<?xml version="1.0" encoding="utf-8" standalone="no"?>
<!DOCTYPE svg PUBLIC "-//W3C//DTD SVG 1.1//EN"
  "http://www.w3.org/Graphics/SVG/1.1/DTD/svg11.dtd">
<svg xmlns:xlink="http://www.w3.org/1999/xlink" width="870.209375pt" height="711.060318pt" viewBox="0 0 870.209375 711.060318" xmlns="http://www.w3.org/2000/svg" version="1.1">
 <metadata>
  <rdf:RDF xmlns:dc="http://purl.org/dc/elements/1.1/" xmlns:cc="http://creativecommons.org/ns#" xmlns:rdf="http://www.w3.org/1999/02/22-rdf-syntax-ns#">
   <cc:Work>
    <dc:type rdf:resource="http://purl.org/dc/dcmitype/StillImage"/>
    <dc:date>2024-06-19T17:04:36.130985</dc:date>
    <dc:format>image/svg+xml</dc:format>
    <dc:creator>
     <cc:Agent>
      <dc:title>Matplotlib v3.8.0, https://matplotlib.org/</dc:title>
     </cc:Agent>
    </dc:creator>
   </cc:Work>
  </rdf:RDF>
 </metadata>
 <defs>
  <style type="text/css">*{stroke-linejoin: round; stroke-linecap: butt}</style>
 </defs>
 <g id="figure_1">
  <g id="patch_1">
   <path d="M 0 711.060318 
L 870.209375 711.060318 
L 870.209375 0 
L 0 0 
L 0 711.060318 
z
" style="fill: none"/>
  </g>
  <g id="axes_1">
   <g id="patch_2">
    <path d="M 81.809375 561.6 
L 863.009375 561.6 
L 863.009375 7.2 
L 81.809375 7.2 
L 81.809375 561.6 
z
" style="fill: none"/>
   </g>
   <g id="matplotlib.axis_1">
    <g id="xtick_1">
     <g id="text_1">
      <!-- MSA -->
      <g style="fill: #262626" transform="translate(110.260861 610.465141) rotate(-45) scale(0.2 -0.2)">
       <defs>
        <path id="DejaVuSans-4d" d="M 628 4666 
L 1569 4666 
L 2759 1491 
L 3956 4666 
L 4897 4666 
L 4897 0 
L 4281 0 
L 4281 4097 
L 3078 897 
L 2444 897 
L 1241 4097 
L 1241 0 
L 628 0 
L 628 4666 
z
" transform="scale(0.015625)"/>
        <path id="DejaVuSans-53" d="M 3425 4513 
L 3425 3897 
Q 3066 4069 2747 4153 
Q 2428 4238 2131 4238 
Q 1616 4238 1336 4038 
Q 1056 3838 1056 3469 
Q 1056 3159 1242 3001 
Q 1428 2844 1947 2747 
L 2328 2669 
Q 3034 2534 3370 2195 
Q 3706 1856 3706 1288 
Q 3706 609 3251 259 
Q 2797 -91 1919 -91 
Q 1588 -91 1214 -16 
Q 841 59 441 206 
L 441 856 
Q 825 641 1194 531 
Q 1563 422 1919 422 
Q 2459 422 2753 634 
Q 3047 847 3047 1241 
Q 3047 1584 2836 1778 
Q 2625 1972 2144 2069 
L 1759 2144 
Q 1053 2284 737 2584 
Q 422 2884 422 3419 
Q 422 4038 858 4394 
Q 1294 4750 2059 4750 
Q 2388 4750 2728 4690 
Q 3069 4631 3425 4513 
z
" transform="scale(0.015625)"/>
        <path id="DejaVuSans-41" d="M 2188 4044 
L 1331 1722 
L 3047 1722 
L 2188 4044 
z
M 1831 4666 
L 2547 4666 
L 4325 0 
L 3669 0 
L 3244 1197 
L 1141 1197 
L 716 0 
L 50 0 
L 1831 4666 
z
" transform="scale(0.015625)"/>
       </defs>
       <use xlink:href="#DejaVuSans-4d"/>
       <use xlink:href="#DejaVuSans-53" x="86.279297"/>
       <use xlink:href="#DejaVuSans-41" x="151.630859"/>
      </g>
     </g>
    </g>
    <g id="xtick_2">
     <g id="text_2">
      <!-- Single -->
      <g style="fill: #262626" transform="translate(195.55196 622.824042) rotate(-45) scale(0.2 -0.2)">
       <defs>
        <path id="DejaVuSans-69" d="M 603 3500 
L 1178 3500 
L 1178 0 
L 603 0 
L 603 3500 
z
M 603 4863 
L 1178 4863 
L 1178 4134 
L 603 4134 
L 603 4863 
z
" transform="scale(0.015625)"/>
        <path id="DejaVuSans-6e" d="M 3513 2113 
L 3513 0 
L 2938 0 
L 2938 2094 
Q 2938 2591 2744 2837 
Q 2550 3084 2163 3084 
Q 1697 3084 1428 2787 
Q 1159 2491 1159 1978 
L 1159 0 
L 581 0 
L 581 3500 
L 1159 3500 
L 1159 2956 
Q 1366 3272 1645 3428 
Q 1925 3584 2291 3584 
Q 2894 3584 3203 3211 
Q 3513 2838 3513 2113 
z
" transform="scale(0.015625)"/>
        <path id="DejaVuSans-67" d="M 2906 1791 
Q 2906 2416 2648 2759 
Q 2391 3103 1925 3103 
Q 1463 3103 1205 2759 
Q 947 2416 947 1791 
Q 947 1169 1205 825 
Q 1463 481 1925 481 
Q 2391 481 2648 825 
Q 2906 1169 2906 1791 
z
M 3481 434 
Q 3481 -459 3084 -895 
Q 2688 -1331 1869 -1331 
Q 1566 -1331 1297 -1286 
Q 1028 -1241 775 -1147 
L 775 -588 
Q 1028 -725 1275 -790 
Q 1522 -856 1778 -856 
Q 2344 -856 2625 -561 
Q 2906 -266 2906 331 
L 2906 616 
Q 2728 306 2450 153 
Q 2172 0 1784 0 
Q 1141 0 747 490 
Q 353 981 353 1791 
Q 353 2603 747 3093 
Q 1141 3584 1784 3584 
Q 2172 3584 2450 3431 
Q 2728 3278 2906 2969 
L 2906 3500 
L 3481 3500 
L 3481 434 
z
" transform="scale(0.015625)"/>
        <path id="DejaVuSans-6c" d="M 603 4863 
L 1178 4863 
L 1178 0 
L 603 0 
L 603 4863 
z
" transform="scale(0.015625)"/>
        <path id="DejaVuSans-65" d="M 3597 1894 
L 3597 1613 
L 953 1613 
Q 991 1019 1311 708 
Q 1631 397 2203 397 
Q 2534 397 2845 478 
Q 3156 559 3463 722 
L 3463 178 
Q 3153 47 2828 -22 
Q 2503 -91 2169 -91 
Q 1331 -91 842 396 
Q 353 884 353 1716 
Q 353 2575 817 3079 
Q 1281 3584 2069 3584 
Q 2775 3584 3186 3129 
Q 3597 2675 3597 1894 
z
M 3022 2063 
Q 3016 2534 2758 2815 
Q 2500 3097 2075 3097 
Q 1594 3097 1305 2825 
Q 1016 2553 972 2059 
L 3022 2063 
z
" transform="scale(0.015625)"/>
       </defs>
       <use xlink:href="#DejaVuSans-53"/>
       <use xlink:href="#DejaVuSans-69" x="63.476562"/>
       <use xlink:href="#DejaVuSans-6e" x="91.259766"/>
       <use xlink:href="#DejaVuSans-67" x="154.638672"/>
       <use xlink:href="#DejaVuSans-6c" x="218.115234"/>
       <use xlink:href="#DejaVuSans-65" x="245.898438"/>
      </g>
     </g>
    </g>
    <g id="xtick_3">
     <g id="text_3">
      <!-- Gaussian -->
      <g style="fill: #262626" transform="translate(271.800931 644.22507) rotate(-45) scale(0.2 -0.2)">
       <defs>
        <path id="DejaVuSans-47" d="M 3809 666 
L 3809 1919 
L 2778 1919 
L 2778 2438 
L 4434 2438 
L 4434 434 
Q 4069 175 3628 42 
Q 3188 -91 2688 -91 
Q 1594 -91 976 548 
Q 359 1188 359 2328 
Q 359 3472 976 4111 
Q 1594 4750 2688 4750 
Q 3144 4750 3555 4637 
Q 3966 4525 4313 4306 
L 4313 3634 
Q 3963 3931 3569 4081 
Q 3175 4231 2741 4231 
Q 1884 4231 1454 3753 
Q 1025 3275 1025 2328 
Q 1025 1384 1454 906 
Q 1884 428 2741 428 
Q 3075 428 3337 486 
Q 3600 544 3809 666 
z
" transform="scale(0.015625)"/>
        <path id="DejaVuSans-61" d="M 2194 1759 
Q 1497 1759 1228 1600 
Q 959 1441 959 1056 
Q 959 750 1161 570 
Q 1363 391 1709 391 
Q 2188 391 2477 730 
Q 2766 1069 2766 1631 
L 2766 1759 
L 2194 1759 
z
M 3341 1997 
L 3341 0 
L 2766 0 
L 2766 531 
Q 2569 213 2275 61 
Q 1981 -91 1556 -91 
Q 1019 -91 701 211 
Q 384 513 384 1019 
Q 384 1609 779 1909 
Q 1175 2209 1959 2209 
L 2766 2209 
L 2766 2266 
Q 2766 2663 2505 2880 
Q 2244 3097 1772 3097 
Q 1472 3097 1187 3025 
Q 903 2953 641 2809 
L 641 3341 
Q 956 3463 1253 3523 
Q 1550 3584 1831 3584 
Q 2591 3584 2966 3190 
Q 3341 2797 3341 1997 
z
" transform="scale(0.015625)"/>
        <path id="DejaVuSans-75" d="M 544 1381 
L 544 3500 
L 1119 3500 
L 1119 1403 
Q 1119 906 1312 657 
Q 1506 409 1894 409 
Q 2359 409 2629 706 
Q 2900 1003 2900 1516 
L 2900 3500 
L 3475 3500 
L 3475 0 
L 2900 0 
L 2900 538 
Q 2691 219 2414 64 
Q 2138 -91 1772 -91 
Q 1169 -91 856 284 
Q 544 659 544 1381 
z
M 1991 3584 
L 1991 3584 
z
" transform="scale(0.015625)"/>
        <path id="DejaVuSans-73" d="M 2834 3397 
L 2834 2853 
Q 2591 2978 2328 3040 
Q 2066 3103 1784 3103 
Q 1356 3103 1142 2972 
Q 928 2841 928 2578 
Q 928 2378 1081 2264 
Q 1234 2150 1697 2047 
L 1894 2003 
Q 2506 1872 2764 1633 
Q 3022 1394 3022 966 
Q 3022 478 2636 193 
Q 2250 -91 1575 -91 
Q 1294 -91 989 -36 
Q 684 19 347 128 
L 347 722 
Q 666 556 975 473 
Q 1284 391 1588 391 
Q 1994 391 2212 530 
Q 2431 669 2431 922 
Q 2431 1156 2273 1281 
Q 2116 1406 1581 1522 
L 1381 1569 
Q 847 1681 609 1914 
Q 372 2147 372 2553 
Q 372 3047 722 3315 
Q 1072 3584 1716 3584 
Q 2034 3584 2315 3537 
Q 2597 3491 2834 3397 
z
" transform="scale(0.015625)"/>
       </defs>
       <use xlink:href="#DejaVuSans-47"/>
       <use xlink:href="#DejaVuSans-61" x="77.490234"/>
       <use xlink:href="#DejaVuSans-75" x="138.769531"/>
       <use xlink:href="#DejaVuSans-73" x="202.148438"/>
       <use xlink:href="#DejaVuSans-73" x="254.248047"/>
       <use xlink:href="#DejaVuSans-69" x="306.347656"/>
       <use xlink:href="#DejaVuSans-61" x="334.130859"/>
       <use xlink:href="#DejaVuSans-6e" x="395.410156"/>
      </g>
     </g>
    </g>
    <g id="xtick_4">
     <g id="text_4">
      <!-- Gaussian (AF) -->
      <g style="fill: #262626" transform="translate(336.113056 677.562945) rotate(-45) scale(0.2 -0.2)">
       <defs>
        <path id="DejaVuSans-20" transform="scale(0.015625)"/>
        <path id="DejaVuSans-28" d="M 1984 4856 
Q 1566 4138 1362 3434 
Q 1159 2731 1159 2009 
Q 1159 1288 1364 580 
Q 1569 -128 1984 -844 
L 1484 -844 
Q 1016 -109 783 600 
Q 550 1309 550 2009 
Q 550 2706 781 3412 
Q 1013 4119 1484 4856 
L 1984 4856 
z
" transform="scale(0.015625)"/>
        <path id="DejaVuSans-46" d="M 628 4666 
L 3309 4666 
L 3309 4134 
L 1259 4134 
L 1259 2759 
L 3109 2759 
L 3109 2228 
L 1259 2228 
L 1259 0 
L 628 0 
L 628 4666 
z
" transform="scale(0.015625)"/>
        <path id="DejaVuSans-29" d="M 513 4856 
L 1013 4856 
Q 1481 4119 1714 3412 
Q 1947 2706 1947 2009 
Q 1947 1309 1714 600 
Q 1481 -109 1013 -844 
L 513 -844 
Q 928 -128 1133 580 
Q 1338 1288 1338 2009 
Q 1338 2731 1133 3434 
Q 928 4138 513 4856 
z
" transform="scale(0.015625)"/>
       </defs>
       <use xlink:href="#DejaVuSans-47"/>
       <use xlink:href="#DejaVuSans-61" x="77.490234"/>
       <use xlink:href="#DejaVuSans-75" x="138.769531"/>
       <use xlink:href="#DejaVuSans-73" x="202.148438"/>
       <use xlink:href="#DejaVuSans-73" x="254.248047"/>
       <use xlink:href="#DejaVuSans-69" x="306.347656"/>
       <use xlink:href="#DejaVuSans-61" x="334.130859"/>
       <use xlink:href="#DejaVuSans-6e" x="395.410156"/>
       <use xlink:href="#DejaVuSans-20" x="458.789062"/>
       <use xlink:href="#DejaVuSans-28" x="490.576172"/>
       <use xlink:href="#DejaVuSans-41" x="529.589844"/>
       <use xlink:href="#DejaVuSans-46" x="597.998047"/>
       <use xlink:href="#DejaVuSans-29" x="655.517578"/>
      </g>
     </g>
    </g>
    <g id="xtick_5">
     <g id="text_5">
      <!-- 1 PC -->
      <g style="fill: #262626" transform="translate(500.085253 611.240749) rotate(-45) scale(0.2 -0.2)">
       <defs>
        <path id="DejaVuSans-31" d="M 794 531 
L 1825 531 
L 1825 4091 
L 703 3866 
L 703 4441 
L 1819 4666 
L 2450 4666 
L 2450 531 
L 3481 531 
L 3481 0 
L 794 0 
L 794 531 
z
" transform="scale(0.015625)"/>
        <path id="DejaVuSans-50" d="M 1259 4147 
L 1259 2394 
L 2053 2394 
Q 2494 2394 2734 2622 
Q 2975 2850 2975 3272 
Q 2975 3691 2734 3919 
Q 2494 4147 2053 4147 
L 1259 4147 
z
M 628 4666 
L 2053 4666 
Q 2838 4666 3239 4311 
Q 3641 3956 3641 3272 
Q 3641 2581 3239 2228 
Q 2838 1875 2053 1875 
L 1259 1875 
L 1259 0 
L 628 0 
L 628 4666 
z
" transform="scale(0.015625)"/>
        <path id="DejaVuSans-43" d="M 4122 4306 
L 4122 3641 
Q 3803 3938 3442 4084 
Q 3081 4231 2675 4231 
Q 1875 4231 1450 3742 
Q 1025 3253 1025 2328 
Q 1025 1406 1450 917 
Q 1875 428 2675 428 
Q 3081 428 3442 575 
Q 3803 722 4122 1019 
L 4122 359 
Q 3791 134 3420 21 
Q 3050 -91 2638 -91 
Q 1578 -91 968 557 
Q 359 1206 359 2328 
Q 359 3453 968 4101 
Q 1578 4750 2638 4750 
Q 3056 4750 3426 4639 
Q 3797 4528 4122 4306 
z
" transform="scale(0.015625)"/>
       </defs>
       <use xlink:href="#DejaVuSans-31"/>
       <use xlink:href="#DejaVuSans-20" x="63.623047"/>
       <use xlink:href="#DejaVuSans-50" x="95.410156"/>
       <use xlink:href="#DejaVuSans-43" x="155.712891"/>
      </g>
     </g>
    </g>
    <g id="xtick_6">
     <g id="text_6">
      <!-- 1 PC (AF) -->
      <g style="fill: #262626" transform="translate(564.397378 644.578624) rotate(-45) scale(0.2 -0.2)">
       <use xlink:href="#DejaVuSans-31"/>
       <use xlink:href="#DejaVuSans-20" x="63.623047"/>
       <use xlink:href="#DejaVuSans-50" x="95.410156"/>
       <use xlink:href="#DejaVuSans-43" x="155.712891"/>
       <use xlink:href="#DejaVuSans-20" x="225.537109"/>
       <use xlink:href="#DejaVuSans-28" x="257.324219"/>
       <use xlink:href="#DejaVuSans-41" x="296.337891"/>
       <use xlink:href="#DejaVuSans-46" x="364.746094"/>
       <use xlink:href="#DejaVuSans-29" x="422.265625"/>
      </g>
     </g>
    </g>
    <g id="xtick_7">
     <g id="text_7">
      <!-- 2 PC -->
      <g style="fill: #262626" transform="translate(695.385253 611.240749) rotate(-45) scale(0.2 -0.2)">
       <defs>
        <path id="DejaVuSans-32" d="M 1228 531 
L 3431 531 
L 3431 0 
L 469 0 
L 469 531 
Q 828 903 1448 1529 
Q 2069 2156 2228 2338 
Q 2531 2678 2651 2914 
Q 2772 3150 2772 3378 
Q 2772 3750 2511 3984 
Q 2250 4219 1831 4219 
Q 1534 4219 1204 4116 
Q 875 4013 500 3803 
L 500 4441 
Q 881 4594 1212 4672 
Q 1544 4750 1819 4750 
Q 2544 4750 2975 4387 
Q 3406 4025 3406 3419 
Q 3406 3131 3298 2873 
Q 3191 2616 2906 2266 
Q 2828 2175 2409 1742 
Q 1991 1309 1228 531 
z
" transform="scale(0.015625)"/>
       </defs>
       <use xlink:href="#DejaVuSans-32"/>
       <use xlink:href="#DejaVuSans-20" x="63.623047"/>
       <use xlink:href="#DejaVuSans-50" x="95.410156"/>
       <use xlink:href="#DejaVuSans-43" x="155.712891"/>
      </g>
     </g>
    </g>
    <g id="xtick_8">
     <g id="text_8">
      <!-- 2 PC (AF) -->
      <g style="fill: #262626" transform="translate(759.697378 644.578624) rotate(-45) scale(0.2 -0.2)">
       <use xlink:href="#DejaVuSans-32"/>
       <use xlink:href="#DejaVuSans-20" x="63.623047"/>
       <use xlink:href="#DejaVuSans-50" x="95.410156"/>
       <use xlink:href="#DejaVuSans-43" x="155.712891"/>
       <use xlink:href="#DejaVuSans-20" x="225.537109"/>
       <use xlink:href="#DejaVuSans-28" x="257.324219"/>
       <use xlink:href="#DejaVuSans-41" x="296.337891"/>
       <use xlink:href="#DejaVuSans-46" x="364.746094"/>
       <use xlink:href="#DejaVuSans-29" x="422.265625"/>
      </g>
     </g>
    </g>
    <g id="text_9">
     <!-- Method -->
     <g style="fill: #262626" transform="translate(434.903125 699.700943) scale(0.2 -0.2)">
      <defs>
       <path id="DejaVuSans-74" d="M 1172 4494 
L 1172 3500 
L 2356 3500 
L 2356 3053 
L 1172 3053 
L 1172 1153 
Q 1172 725 1289 603 
Q 1406 481 1766 481 
L 2356 481 
L 2356 0 
L 1766 0 
Q 1100 0 847 248 
Q 594 497 594 1153 
L 594 3053 
L 172 3053 
L 172 3500 
L 594 3500 
L 594 4494 
L 1172 4494 
z
" transform="scale(0.015625)"/>
       <path id="DejaVuSans-68" d="M 3513 2113 
L 3513 0 
L 2938 0 
L 2938 2094 
Q 2938 2591 2744 2837 
Q 2550 3084 2163 3084 
Q 1697 3084 1428 2787 
Q 1159 2491 1159 1978 
L 1159 0 
L 581 0 
L 581 4863 
L 1159 4863 
L 1159 2956 
Q 1366 3272 1645 3428 
Q 1925 3584 2291 3584 
Q 2894 3584 3203 3211 
Q 3513 2838 3513 2113 
z
" transform="scale(0.015625)"/>
       <path id="DejaVuSans-6f" d="M 1959 3097 
Q 1497 3097 1228 2736 
Q 959 2375 959 1747 
Q 959 1119 1226 758 
Q 1494 397 1959 397 
Q 2419 397 2687 759 
Q 2956 1122 2956 1747 
Q 2956 2369 2687 2733 
Q 2419 3097 1959 3097 
z
M 1959 3584 
Q 2709 3584 3137 3096 
Q 3566 2609 3566 1747 
Q 3566 888 3137 398 
Q 2709 -91 1959 -91 
Q 1206 -91 779 398 
Q 353 888 353 1747 
Q 353 2609 779 3096 
Q 1206 3584 1959 3584 
z
" transform="scale(0.015625)"/>
       <path id="DejaVuSans-64" d="M 2906 2969 
L 2906 4863 
L 3481 4863 
L 3481 0 
L 2906 0 
L 2906 525 
Q 2725 213 2448 61 
Q 2172 -91 1784 -91 
Q 1150 -91 751 415 
Q 353 922 353 1747 
Q 353 2572 751 3078 
Q 1150 3584 1784 3584 
Q 2172 3584 2448 3432 
Q 2725 3281 2906 2969 
z
M 947 1747 
Q 947 1113 1208 752 
Q 1469 391 1925 391 
Q 2381 391 2643 752 
Q 2906 1113 2906 1747 
Q 2906 2381 2643 2742 
Q 2381 3103 1925 3103 
Q 1469 3103 1208 2742 
Q 947 2381 947 1747 
z
" transform="scale(0.015625)"/>
      </defs>
      <use xlink:href="#DejaVuSans-4d"/>
      <use xlink:href="#DejaVuSans-65" x="86.279297"/>
      <use xlink:href="#DejaVuSans-74" x="147.802734"/>
      <use xlink:href="#DejaVuSans-68" x="187.011719"/>
      <use xlink:href="#DejaVuSans-6f" x="250.390625"/>
      <use xlink:href="#DejaVuSans-64" x="311.572266"/>
     </g>
    </g>
   </g>
   <g id="matplotlib.axis_2">
    <g id="ytick_1">
     <g id="line2d_1">
      <path d="M 81.809375 539.423956 
L 863.009375 539.423956 
" clip-path="url(#p1a657997b8)" style="fill: none; stroke: #cccccc; stroke-width: 0.8; stroke-linecap: round"/>
     </g>
     <g id="text_10">
      <!-- −10 -->
      <g style="fill: #262626" transform="translate(32.6 547.022393) scale(0.2 -0.2)">
       <defs>
        <path id="DejaVuSans-2212" d="M 678 2272 
L 4684 2272 
L 4684 1741 
L 678 1741 
L 678 2272 
z
" transform="scale(0.015625)"/>
        <path id="DejaVuSans-30" d="M 2034 4250 
Q 1547 4250 1301 3770 
Q 1056 3291 1056 2328 
Q 1056 1369 1301 889 
Q 1547 409 2034 409 
Q 2525 409 2770 889 
Q 3016 1369 3016 2328 
Q 3016 3291 2770 3770 
Q 2525 4250 2034 4250 
z
M 2034 4750 
Q 2819 4750 3233 4129 
Q 3647 3509 3647 2328 
Q 3647 1150 3233 529 
Q 2819 -91 2034 -91 
Q 1250 -91 836 529 
Q 422 1150 422 2328 
Q 422 3509 836 4129 
Q 1250 4750 2034 4750 
z
" transform="scale(0.015625)"/>
       </defs>
       <use xlink:href="#DejaVuSans-2212"/>
       <use xlink:href="#DejaVuSans-31" x="83.789062"/>
       <use xlink:href="#DejaVuSans-30" x="147.412109"/>
      </g>
     </g>
    </g>
    <g id="ytick_2">
     <g id="line2d_2">
      <path d="M 81.809375 469.989402 
L 863.009375 469.989402 
" clip-path="url(#p1a657997b8)" style="fill: none; stroke: #cccccc; stroke-width: 0.8; stroke-linecap: round"/>
     </g>
     <g id="text_11">
      <!-- 0 -->
      <g style="fill: #262626" transform="translate(62.084375 477.58784) scale(0.2 -0.2)">
       <use xlink:href="#DejaVuSans-30"/>
      </g>
     </g>
    </g>
    <g id="ytick_3">
     <g id="line2d_3">
      <path d="M 81.809375 400.554849 
L 863.009375 400.554849 
" clip-path="url(#p1a657997b8)" style="fill: none; stroke: #cccccc; stroke-width: 0.8; stroke-linecap: round"/>
     </g>
     <g id="text_12">
      <!-- 10 -->
      <g style="fill: #262626" transform="translate(49.359375 408.153287) scale(0.2 -0.2)">
       <use xlink:href="#DejaVuSans-31"/>
       <use xlink:href="#DejaVuSans-30" x="63.623047"/>
      </g>
     </g>
    </g>
    <g id="ytick_4">
     <g id="line2d_4">
      <path d="M 81.809375 331.120296 
L 863.009375 331.120296 
" clip-path="url(#p1a657997b8)" style="fill: none; stroke: #cccccc; stroke-width: 0.8; stroke-linecap: round"/>
     </g>
     <g id="text_13">
      <!-- 20 -->
      <g style="fill: #262626" transform="translate(49.359375 338.718734) scale(0.2 -0.2)">
       <use xlink:href="#DejaVuSans-32"/>
       <use xlink:href="#DejaVuSans-30" x="63.623047"/>
      </g>
     </g>
    </g>
    <g id="ytick_5">
     <g id="line2d_5">
      <path d="M 81.809375 261.685743 
L 863.009375 261.685743 
" clip-path="url(#p1a657997b8)" style="fill: none; stroke: #cccccc; stroke-width: 0.8; stroke-linecap: round"/>
     </g>
     <g id="text_14">
      <!-- 30 -->
      <g style="fill: #262626" transform="translate(49.359375 269.28418) scale(0.2 -0.2)">
       <defs>
        <path id="DejaVuSans-33" d="M 2597 2516 
Q 3050 2419 3304 2112 
Q 3559 1806 3559 1356 
Q 3559 666 3084 287 
Q 2609 -91 1734 -91 
Q 1441 -91 1130 -33 
Q 819 25 488 141 
L 488 750 
Q 750 597 1062 519 
Q 1375 441 1716 441 
Q 2309 441 2620 675 
Q 2931 909 2931 1356 
Q 2931 1769 2642 2001 
Q 2353 2234 1838 2234 
L 1294 2234 
L 1294 2753 
L 1863 2753 
Q 2328 2753 2575 2939 
Q 2822 3125 2822 3475 
Q 2822 3834 2567 4026 
Q 2313 4219 1838 4219 
Q 1578 4219 1281 4162 
Q 984 4106 628 3988 
L 628 4550 
Q 988 4650 1302 4700 
Q 1616 4750 1894 4750 
Q 2613 4750 3031 4423 
Q 3450 4097 3450 3541 
Q 3450 3153 3228 2886 
Q 3006 2619 2597 2516 
z
" transform="scale(0.015625)"/>
       </defs>
       <use xlink:href="#DejaVuSans-33"/>
       <use xlink:href="#DejaVuSans-30" x="63.623047"/>
      </g>
     </g>
    </g>
    <g id="ytick_6">
     <g id="line2d_6">
      <path d="M 81.809375 192.25119 
L 863.009375 192.25119 
" clip-path="url(#p1a657997b8)" style="fill: none; stroke: #cccccc; stroke-width: 0.8; stroke-linecap: round"/>
     </g>
     <g id="text_15">
      <!-- 40 -->
      <g style="fill: #262626" transform="translate(49.359375 199.849627) scale(0.2 -0.2)">
       <defs>
        <path id="DejaVuSans-34" d="M 2419 4116 
L 825 1625 
L 2419 1625 
L 2419 4116 
z
M 2253 4666 
L 3047 4666 
L 3047 1625 
L 3713 1625 
L 3713 1100 
L 3047 1100 
L 3047 0 
L 2419 0 
L 2419 1100 
L 313 1100 
L 313 1709 
L 2253 4666 
z
" transform="scale(0.015625)"/>
       </defs>
       <use xlink:href="#DejaVuSans-34"/>
       <use xlink:href="#DejaVuSans-30" x="63.623047"/>
      </g>
     </g>
    </g>
    <g id="ytick_7">
     <g id="line2d_7">
      <path d="M 81.809375 122.816637 
L 863.009375 122.816637 
" clip-path="url(#p1a657997b8)" style="fill: none; stroke: #cccccc; stroke-width: 0.8; stroke-linecap: round"/>
     </g>
     <g id="text_16">
      <!-- 50 -->
      <g style="fill: #262626" transform="translate(49.359375 130.415074) scale(0.2 -0.2)">
       <defs>
        <path id="DejaVuSans-35" d="M 691 4666 
L 3169 4666 
L 3169 4134 
L 1269 4134 
L 1269 2991 
Q 1406 3038 1543 3061 
Q 1681 3084 1819 3084 
Q 2600 3084 3056 2656 
Q 3513 2228 3513 1497 
Q 3513 744 3044 326 
Q 2575 -91 1722 -91 
Q 1428 -91 1123 -41 
Q 819 9 494 109 
L 494 744 
Q 775 591 1075 516 
Q 1375 441 1709 441 
Q 2250 441 2565 725 
Q 2881 1009 2881 1497 
Q 2881 1984 2565 2268 
Q 2250 2553 1709 2553 
Q 1456 2553 1204 2497 
Q 953 2441 691 2322 
L 691 4666 
z
" transform="scale(0.015625)"/>
       </defs>
       <use xlink:href="#DejaVuSans-35"/>
       <use xlink:href="#DejaVuSans-30" x="63.623047"/>
      </g>
     </g>
    </g>
    <g id="ytick_8">
     <g id="line2d_8">
      <path d="M 81.809375 53.382083 
L 863.009375 53.382083 
" clip-path="url(#p1a657997b8)" style="fill: none; stroke: #cccccc; stroke-width: 0.8; stroke-linecap: round"/>
     </g>
     <g id="text_17">
      <!-- 60 -->
      <g style="fill: #262626" transform="translate(49.359375 60.980521) scale(0.2 -0.2)">
       <defs>
        <path id="DejaVuSans-36" d="M 2113 2584 
Q 1688 2584 1439 2293 
Q 1191 2003 1191 1497 
Q 1191 994 1439 701 
Q 1688 409 2113 409 
Q 2538 409 2786 701 
Q 3034 994 3034 1497 
Q 3034 2003 2786 2293 
Q 2538 2584 2113 2584 
z
M 3366 4563 
L 3366 3988 
Q 3128 4100 2886 4159 
Q 2644 4219 2406 4219 
Q 1781 4219 1451 3797 
Q 1122 3375 1075 2522 
Q 1259 2794 1537 2939 
Q 1816 3084 2150 3084 
Q 2853 3084 3261 2657 
Q 3669 2231 3669 1497 
Q 3669 778 3244 343 
Q 2819 -91 2113 -91 
Q 1303 -91 875 529 
Q 447 1150 447 2328 
Q 447 3434 972 4092 
Q 1497 4750 2381 4750 
Q 2619 4750 2861 4703 
Q 3103 4656 3366 4563 
z
" transform="scale(0.015625)"/>
       </defs>
       <use xlink:href="#DejaVuSans-36"/>
       <use xlink:href="#DejaVuSans-30" x="63.623047"/>
      </g>
     </g>
    </g>
    <g id="text_18">
     <!-- $\alpha$-RMSD ($\AA$) $\downarrow$ -->
     <g style="fill: #262626" transform="translate(24.440625 357.6) rotate(-90) scale(0.2 -0.2)">
      <defs>
       <path id="DejaVuSans-Oblique-3b1" d="M 2619 1628 
L 2622 2350 
Q 2625 3088 2069 3091 
Q 1653 3094 1394 2747 
Q 1069 2319 959 1747 
Q 825 1059 994 731 
Q 1169 397 1547 397 
Q 1966 397 2319 1063 
L 2619 1628 
z
M 2166 3578 
Q 3141 3594 3128 2584 
Q 3128 2584 3616 3500 
L 4128 3500 
L 3119 1603 
L 3109 919 
Q 3109 766 3194 638 
Q 3291 488 3391 488 
L 3669 488 
L 3575 0 
L 3228 0 
Q 2934 0 2722 263 
Q 2622 394 2619 669 
Q 2416 334 2066 50 
Q 1900 -81 1453 -78 
Q 722 -72 456 397 
Q 184 884 353 1747 
Q 534 2675 1009 3097 
Q 1544 3569 2166 3578 
z
" transform="scale(0.015625)"/>
       <path id="DejaVuSans-2d" d="M 313 2009 
L 1997 2009 
L 1997 1497 
L 313 1497 
L 313 2009 
z
" transform="scale(0.015625)"/>
       <path id="DejaVuSans-52" d="M 2841 2188 
Q 3044 2119 3236 1894 
Q 3428 1669 3622 1275 
L 4263 0 
L 3584 0 
L 2988 1197 
Q 2756 1666 2539 1819 
Q 2322 1972 1947 1972 
L 1259 1972 
L 1259 0 
L 628 0 
L 628 4666 
L 2053 4666 
Q 2853 4666 3247 4331 
Q 3641 3997 3641 3322 
Q 3641 2881 3436 2590 
Q 3231 2300 2841 2188 
z
M 1259 4147 
L 1259 2491 
L 2053 2491 
Q 2509 2491 2742 2702 
Q 2975 2913 2975 3322 
Q 2975 3731 2742 3939 
Q 2509 4147 2053 4147 
L 1259 4147 
z
" transform="scale(0.015625)"/>
       <path id="DejaVuSans-44" d="M 1259 4147 
L 1259 519 
L 2022 519 
Q 2988 519 3436 956 
Q 3884 1394 3884 2338 
Q 3884 3275 3436 3711 
Q 2988 4147 2022 4147 
L 1259 4147 
z
M 628 4666 
L 1925 4666 
Q 3281 4666 3915 4102 
Q 4550 3538 4550 2338 
Q 4550 1131 3912 565 
Q 3275 0 1925 0 
L 628 0 
L 628 4666 
z
" transform="scale(0.015625)"/>
       <path id="DejaVuSans-Oblique-c5" d="M 3188 5081 
Q 3188 5278 3048 5417 
Q 2909 5556 2713 5556 
Q 2513 5556 2377 5420 
Q 2241 5284 2241 5081 
Q 2241 4884 2377 4746 
Q 2513 4609 2713 4609 
Q 2909 4609 3048 4746 
Q 3188 4884 3188 5081 
z
M 2203 4397 
Q 2034 4513 1945 4689 
Q 1856 4866 1856 5081 
Q 1856 5438 2106 5689 
Q 2356 5941 2713 5941 
Q 3069 5941 3320 5689 
Q 3572 5438 3572 5081 
Q 3572 4834 3458 4643 
Q 3344 4453 3128 4341 
L 3938 0 
L 3278 0 
L 3084 1197 
L 984 1197 
L 325 0 
L -341 0 
L 2203 4397 
z
M 2584 4044 
L 1275 1722 
L 2988 1722 
L 2584 4044 
z
" transform="scale(0.015625)"/>
       <path id="DejaVuSans-2193" d="M 2822 -22 
L 2541 -22 
L 1309 1209 
L 1684 1584 
L 2416 853 
L 2416 4666 
L 2947 4666 
L 2947 853 
L 3672 1584 
L 4047 1209 
L 2822 -22 
z
" transform="scale(0.015625)"/>
      </defs>
      <use xlink:href="#DejaVuSans-Oblique-3b1" transform="translate(0 0.171875)"/>
      <use xlink:href="#DejaVuSans-2d" transform="translate(65.917969 0.171875)"/>
      <use xlink:href="#DejaVuSans-52" transform="translate(102.001953 0.171875)"/>
      <use xlink:href="#DejaVuSans-4d" transform="translate(171.484375 0.171875)"/>
      <use xlink:href="#DejaVuSans-53" transform="translate(257.763672 0.171875)"/>
      <use xlink:href="#DejaVuSans-44" transform="translate(321.240234 0.171875)"/>
      <use xlink:href="#DejaVuSans-20" transform="translate(398.242188 0.171875)"/>
      <use xlink:href="#DejaVuSans-28" transform="translate(430.029297 0.171875)"/>
      <use xlink:href="#DejaVuSans-Oblique-c5" transform="translate(469.042969 0.171875)"/>
      <use xlink:href="#DejaVuSans-29" transform="translate(537.451172 0.171875)"/>
      <use xlink:href="#DejaVuSans-20" transform="translate(576.464844 0.171875)"/>
      <use xlink:href="#DejaVuSans-2193" transform="translate(627.734375 0.171875)"/>
     </g>
    </g>
   </g>
   <g id="PolyCollection_1">
    <defs>
     <path id="mdc277cd84a" d="M 132.168719 -213.257605 
L 129.100031 -213.257605 
L 128.463713 -215.634886 
L 127.626019 -218.012167 
L 126.549397 -220.389448 
L 125.198956 -222.766729 
L 123.546399 -225.14401 
L 121.574447 -227.521292 
L 119.281351 -229.898573 
L 116.684893 -232.275854 
L 113.825295 -234.653135 
L 110.766408 -237.030416 
L 107.594737 -239.407698 
L 104.416032 -241.784979 
L 101.349526 -244.16226 
L 98.520188 -246.539541 
L 96.049689 -248.916822 
L 94.04701 -251.294104 
L 92.599707 -253.671385 
L 91.766841 -256.048666 
L 91.574375 -258.425947 
L 92.013554 -260.803228 
L 93.042395 -263.18051 
L 94.59006 -265.557791 
L 96.563509 -267.935072 
L 98.855622 -270.312353 
L 101.353841 -272.689634 
L 103.948413 -275.066915 
L 106.539462 -277.444197 
L 109.042312 -279.821478 
L 111.390809 -282.198759 
L 113.538596 -284.57604 
L 115.45858 -286.953321 
L 117.140952 -289.330603 
L 118.590221 -291.707884 
L 119.821738 -294.085165 
L 120.858127 -296.462446 
L 121.725949 -298.839727 
L 122.452847 -301.217009 
L 123.06529 -303.59429 
L 123.586968 -305.971571 
L 124.037813 -308.348852 
L 124.43359 -310.726133 
L 124.78595 -313.103415 
L 125.102843 -315.480696 
L 125.389173 -317.857977 
L 125.647586 -320.235258 
L 125.879285 -322.612539 
L 126.084783 -324.98982 
L 126.264532 -327.367102 
L 126.419381 -329.744383 
L 126.55083 -332.121664 
L 126.661112 -334.498945 
L 126.753103 -336.876226 
L 126.830127 -339.253508 
L 126.895699 -341.630789 
L 126.953278 -344.00807 
L 127.006069 -346.385351 
L 127.056922 -348.762632 
L 127.108333 -351.139914 
L 127.162535 -353.517195 
L 127.22164 -355.894476 
L 127.287786 -358.271757 
L 127.363222 -360.649038 
L 127.450289 -363.026319 
L 127.551273 -365.403601 
L 127.668136 -367.780882 
L 127.802152 -370.158163 
L 127.953542 -372.535444 
L 128.121145 -374.912725 
L 128.302243 -377.290007 
L 128.492561 -379.667288 
L 128.686492 -382.044569 
L 128.877521 -384.42185 
L 129.058803 -386.799131 
L 129.22383 -389.176413 
L 129.367085 -391.553694 
L 129.484613 -393.930975 
L 129.574426 -396.308256 
L 129.6367 -398.685537 
L 129.673739 -401.062819 
L 129.689716 -403.4401 
L 129.690228 -405.817381 
L 129.681711 -408.194662 
L 129.670802 -410.571943 
L 129.663693 -412.949224 
L 129.665579 -415.326506 
L 129.680236 -417.703787 
L 129.709777 -420.081068 
L 129.754606 -422.458349 
L 129.813554 -424.83563 
L 129.884175 -427.212912 
L 129.963138 -429.590193 
L 130.046672 -431.967474 
L 130.130991 -434.344755 
L 130.212662 -436.722036 
L 130.288868 -439.099318 
L 130.357565 -441.476599 
L 130.41752 -443.85388 
L 130.468263 -446.231161 
L 130.509962 -448.608442 
L 130.758788 -448.608442 
L 130.758788 -448.608442 
L 130.800487 -446.231161 
L 130.85123 -443.85388 
L 130.911185 -441.476599 
L 130.979882 -439.099318 
L 131.056088 -436.722036 
L 131.137759 -434.344755 
L 131.222078 -431.967474 
L 131.305612 -429.590193 
L 131.384575 -427.212912 
L 131.455196 -424.83563 
L 131.514144 -422.458349 
L 131.558973 -420.081068 
L 131.588514 -417.703787 
L 131.603171 -415.326506 
L 131.605057 -412.949224 
L 131.597948 -410.571943 
L 131.587039 -408.194662 
L 131.578522 -405.817381 
L 131.579034 -403.4401 
L 131.595011 -401.062819 
L 131.63205 -398.685537 
L 131.694324 -396.308256 
L 131.784137 -393.930975 
L 131.901665 -391.553694 
L 132.04492 -389.176413 
L 132.209947 -386.799131 
L 132.391229 -384.42185 
L 132.582258 -382.044569 
L 132.776189 -379.667288 
L 132.966507 -377.290007 
L 133.147605 -374.912725 
L 133.315208 -372.535444 
L 133.466598 -370.158163 
L 133.600614 -367.780882 
L 133.717477 -365.403601 
L 133.818461 -363.026319 
L 133.905528 -360.649038 
L 133.980964 -358.271757 
L 134.04711 -355.894476 
L 134.106215 -353.517195 
L 134.160417 -351.139914 
L 134.211828 -348.762632 
L 134.262681 -346.385351 
L 134.315472 -344.00807 
L 134.373051 -341.630789 
L 134.438623 -339.253508 
L 134.515647 -336.876226 
L 134.607638 -334.498945 
L 134.71792 -332.121664 
L 134.849369 -329.744383 
L 135.004218 -327.367102 
L 135.183967 -324.98982 
L 135.389465 -322.612539 
L 135.621164 -320.235258 
L 135.879577 -317.857977 
L 136.165907 -315.480696 
L 136.4828 -313.103415 
L 136.83516 -310.726133 
L 137.230937 -308.348852 
L 137.681782 -305.971571 
L 138.20346 -303.59429 
L 138.815903 -301.217009 
L 139.542801 -298.839727 
L 140.410623 -296.462446 
L 141.447012 -294.085165 
L 142.678529 -291.707884 
L 144.127798 -289.330603 
L 145.81017 -286.953321 
L 147.730154 -284.57604 
L 149.877941 -282.198759 
L 152.226438 -279.821478 
L 154.729288 -277.444197 
L 157.320337 -275.066915 
L 159.914909 -272.689634 
L 162.413128 -270.312353 
L 164.705241 -267.935072 
L 166.67869 -265.557791 
L 168.226355 -263.18051 
L 169.255196 -260.803228 
L 169.694375 -258.425947 
L 169.501909 -256.048666 
L 168.669043 -253.671385 
L 167.22174 -251.294104 
L 165.219061 -248.916822 
L 162.748562 -246.539541 
L 159.919224 -244.16226 
L 156.852718 -241.784979 
L 153.674013 -239.407698 
L 150.502342 -237.030416 
L 147.443455 -234.653135 
L 144.583857 -232.275854 
L 141.987399 -229.898573 
L 139.694303 -227.521292 
L 137.722351 -225.14401 
L 136.069794 -222.766729 
L 134.719353 -220.389448 
L 133.642731 -218.012167 
L 132.805037 -215.634886 
L 132.168719 -213.257605 
z
" style="stroke: #3d3d3d; stroke-opacity: 0.5"/>
    </defs>
    <g clip-path="url(#p1a657997b8)">
     <use xlink:href="#mdc277cd84a" x="0" y="711.060318" style="fill: #d684bd; fill-opacity: 0.5; stroke: #3d3d3d; stroke-opacity: 0.5"/>
    </g>
   </g>
   <g id="PolyCollection_2">
    <defs>
     <path id="m17f8a7d582" d="M 229.013404 -202.93172 
L 227.555346 -202.93172 
L 227.31509 -206.786428 
L 227.016198 -210.641135 
L 226.651345 -214.495842 
L 226.214375 -218.350549 
L 225.700929 -222.205257 
L 225.109032 -226.059964 
L 224.439564 -229.914671 
L 223.696528 -233.769378 
L 222.887041 -237.624086 
L 222.020992 -241.478793 
L 221.110367 -245.3335 
L 220.168251 -249.188207 
L 219.207584 -253.042915 
L 218.239807 -256.897622 
L 217.273517 -260.752329 
L 216.313329 -264.607036 
L 215.359076 -268.461744 
L 214.405495 -272.316451 
L 213.442473 -276.171158 
L 212.455867 -280.025865 
L 211.428873 -283.880572 
L 210.343805 -287.73528 
L 209.18415 -291.589987 
L 207.936686 -295.444694 
L 206.593467 -299.299401 
L 205.153473 -303.154109 
L 203.623756 -307.008816 
L 202.019961 -310.863523 
L 200.366146 -314.71823 
L 198.693917 -318.572938 
L 197.040913 -322.427645 
L 195.448766 -326.282352 
L 193.960701 -330.137059 
L 192.61897 -333.991767 
L 191.462326 -337.846474 
L 190.523743 -341.701181 
L 189.828557 -345.555888 
L 189.393171 -349.410596 
L 189.224375 -353.265303 
L 189.31932 -357.12001 
L 189.666076 -360.974717 
L 190.244682 -364.829425 
L 191.028557 -368.684132 
L 191.986108 -372.538839 
L 193.082424 -376.393546 
L 194.280904 -380.248254 
L 195.544776 -384.102961 
L 196.838431 -387.957668 
L 198.128593 -391.812375 
L 199.385324 -395.667082 
L 200.582893 -399.52179 
L 201.700516 -403.376497 
L 202.722981 -407.231204 
L 203.641103 -411.085911 
L 204.451981 -414.940619 
L 205.158968 -418.795326 
L 205.771306 -422.650033 
L 206.303382 -426.50474 
L 206.773594 -430.359448 
L 207.20288 -434.214155 
L 207.613021 -438.068862 
L 208.024852 -441.923569 
L 208.456569 -445.778277 
L 208.922324 -449.632984 
L 209.431248 -453.487691 
L 209.98704 -457.342398 
L 210.588145 -461.197106 
L 211.228496 -465.051813 
L 211.898714 -468.90652 
L 212.587588 -472.761227 
L 213.283645 -476.615935 
L 213.976608 -480.470642 
L 214.658543 -484.325349 
L 215.324597 -488.180056 
L 215.973234 -492.034764 
L 216.605994 -495.889471 
L 217.226849 -499.744178 
L 217.841264 -503.598885 
L 218.455121 -507.453592 
L 219.073668 -511.3083 
L 219.700612 -515.163007 
L 220.337477 -519.017714 
L 220.983275 -522.872421 
L 221.63451 -526.727129 
L 222.285477 -530.581836 
L 222.928804 -534.436543 
L 223.556132 -538.29125 
L 224.15886 -542.145958 
L 224.728858 -546.000665 
L 225.259076 -549.855372 
L 225.743996 -553.710079 
L 226.179911 -557.564787 
L 226.565021 -561.419494 
L 226.899356 -565.274201 
L 227.184579 -569.128908 
L 227.423687 -572.983616 
L 227.620667 -576.838323 
L 227.780139 -580.69303 
L 227.907018 -584.547737 
L 228.661732 -584.547737 
L 228.661732 -584.547737 
L 228.788611 -580.69303 
L 228.948083 -576.838323 
L 229.145063 -572.983616 
L 229.384171 -569.128908 
L 229.669394 -565.274201 
L 230.003729 -561.419494 
L 230.388839 -557.564787 
L 230.824754 -553.710079 
L 231.309674 -549.855372 
L 231.839892 -546.000665 
L 232.40989 -542.145958 
L 233.012618 -538.29125 
L 233.639946 -534.436543 
L 234.283273 -530.581836 
L 234.93424 -526.727129 
L 235.585475 -522.872421 
L 236.231273 -519.017714 
L 236.868138 -515.163007 
L 237.495082 -511.3083 
L 238.113629 -507.453592 
L 238.727486 -503.598885 
L 239.341901 -499.744178 
L 239.962756 -495.889471 
L 240.595516 -492.034764 
L 241.244153 -488.180056 
L 241.910207 -484.325349 
L 242.592142 -480.470642 
L 243.285105 -476.615935 
L 243.981162 -472.761227 
L 244.670036 -468.90652 
L 245.340254 -465.051813 
L 245.980605 -461.197106 
L 246.58171 -457.342398 
L 247.137502 -453.487691 
L 247.646426 -449.632984 
L 248.112181 -445.778277 
L 248.543898 -441.923569 
L 248.955729 -438.068862 
L 249.36587 -434.214155 
L 249.795156 -430.359448 
L 250.265368 -426.50474 
L 250.797444 -422.650033 
L 251.409782 -418.795326 
L 252.116769 -414.940619 
L 252.927647 -411.085911 
L 253.845769 -407.231204 
L 254.868234 -403.376497 
L 255.985857 -399.52179 
L 257.183426 -395.667082 
L 258.440157 -391.812375 
L 259.730319 -387.957668 
L 261.023974 -384.102961 
L 262.287846 -380.248254 
L 263.486326 -376.393546 
L 264.582642 -372.538839 
L 265.540193 -368.684132 
L 266.324068 -364.829425 
L 266.902674 -360.974717 
L 267.24943 -357.12001 
L 267.344375 -353.265303 
L 267.175579 -349.410596 
L 266.740193 -345.555888 
L 266.045007 -341.701181 
L 265.106424 -337.846474 
L 263.94978 -333.991767 
L 262.608049 -330.137059 
L 261.119984 -326.282352 
L 259.527837 -322.427645 
L 257.874833 -318.572938 
L 256.202604 -314.71823 
L 254.548789 -310.863523 
L 252.944994 -307.008816 
L 251.415277 -303.154109 
L 249.975283 -299.299401 
L 248.632064 -295.444694 
L 247.3846 -291.589987 
L 246.224945 -287.73528 
L 245.139877 -283.880572 
L 244.112883 -280.025865 
L 243.126277 -276.171158 
L 242.163255 -272.316451 
L 241.209674 -268.461744 
L 240.255421 -264.607036 
L 239.295233 -260.752329 
L 238.328943 -256.897622 
L 237.361166 -253.042915 
L 236.400499 -249.188207 
L 235.458383 -245.3335 
L 234.547758 -241.478793 
L 233.681709 -237.624086 
L 232.872222 -233.769378 
L 232.129186 -229.914671 
L 231.459718 -226.059964 
L 230.867821 -222.205257 
L 230.354375 -218.350549 
L 229.917405 -214.495842 
L 229.552552 -210.641135 
L 229.25366 -206.786428 
L 229.013404 -202.93172 
z
" style="stroke: #3d3d3d; stroke-opacity: 0.5"/>
    </defs>
    <g clip-path="url(#p1a657997b8)">
     <use xlink:href="#m17f8a7d582" x="0" y="711.060318" style="fill: #7f7f7f; fill-opacity: 0.5; stroke: #3d3d3d; stroke-opacity: 0.5"/>
    </g>
   </g>
   <g id="PolyCollection_3">
    <defs>
     <path id="md44c366e82" d="M 326.155536 -251.646457 
L 325.713214 -251.646457 
L 325.628593 -251.674413 
L 325.520247 -251.702369 
L 325.384481 -251.730325 
L 325.217715 -251.758281 
L 325.016534 -251.786237 
L 324.777654 -251.814193 
L 324.497812 -251.842149 
L 324.173599 -251.870104 
L 323.801312 -251.89806 
L 323.376888 -251.926016 
L 322.896016 -251.953972 
L 322.354474 -251.981928 
L 321.748708 -252.009884 
L 321.076572 -252.03784 
L 320.338117 -252.065796 
L 319.536237 -252.093752 
L 318.676986 -252.121708 
L 317.769409 -252.149664 
L 316.824825 -252.177619 
L 315.855619 -252.205575 
L 314.873709 -252.233531 
L 313.888958 -252.261487 
L 312.907841 -252.289443 
L 311.932639 -252.317399 
L 310.961341 -252.345355 
L 309.988287 -252.373311 
L 309.005444 -252.401267 
L 308.004065 -252.429223 
L 306.976417 -252.457179 
L 305.917238 -252.485134 
L 304.824677 -252.51309 
L 303.70055 -252.541046 
L 302.549922 -252.569002 
L 301.380143 -252.596958 
L 300.199574 -252.624914 
L 299.016302 -252.65287 
L 297.83715 -252.680826 
L 296.667214 -252.708782 
L 295.510083 -252.736738 
L 294.368759 -252.764694 
L 293.24715 -252.792649 
L 292.151908 -252.820605 
L 291.094254 -252.848561 
L 290.091402 -252.876517 
L 289.167213 -252.904473 
L 288.351756 -252.932429 
L 287.679672 -252.960385 
L 287.187375 -252.988341 
L 286.909397 -253.016297 
L 286.874375 -253.044253 
L 287.101303 -253.072208 
L 287.596707 -253.100164 
L 288.353272 -253.12812 
L 289.350254 -253.156076 
L 290.555645 -253.184032 
L 291.929781 -253.211988 
L 293.429793 -253.239944 
L 295.014127 -253.2679 
L 296.646422 -253.295856 
L 298.298133 -253.323812 
L 299.949598 -253.351768 
L 301.589552 -253.379723 
L 303.213375 -253.407679 
L 304.820577 -253.435635 
L 306.412068 -253.463591 
L 307.987748 -253.491547 
L 309.544772 -253.519503 
L 311.076676 -253.547459 
L 312.573339 -253.575415 
L 314.02164 -253.603371 
L 315.406555 -253.631327 
L 316.71247 -253.659283 
L 317.924495 -253.687238 
L 319.029645 -253.715194 
L 320.017821 -253.74315 
L 320.882556 -253.771106 
L 321.621527 -253.799062 
L 322.236817 -253.827018 
L 322.734913 -253.854974 
L 323.126403 -253.88293 
L 323.425373 -253.910886 
L 323.648489 -253.938842 
L 323.813832 -253.966798 
L 323.939582 -253.994753 
L 324.04268 -254.022709 
L 324.137636 -254.050665 
L 324.235628 -254.078621 
L 324.343989 -254.106577 
L 324.466152 -254.134533 
L 324.602017 -254.162489 
L 324.748662 -254.190445 
L 324.901277 -254.218401 
L 325.054153 -254.246357 
L 325.201602 -254.274312 
L 325.338685 -254.302268 
L 325.461695 -254.330224 
L 325.568368 -254.35818 
L 325.657873 -254.386136 
L 325.730608 -254.414092 
L 326.138142 -254.414092 
L 326.138142 -254.414092 
L 326.210877 -254.386136 
L 326.300382 -254.35818 
L 326.407055 -254.330224 
L 326.530065 -254.302268 
L 326.667148 -254.274312 
L 326.814597 -254.246357 
L 326.967473 -254.218401 
L 327.120088 -254.190445 
L 327.266733 -254.162489 
L 327.402598 -254.134533 
L 327.524761 -254.106577 
L 327.633122 -254.078621 
L 327.731114 -254.050665 
L 327.82607 -254.022709 
L 327.929168 -253.994753 
L 328.054918 -253.966798 
L 328.220261 -253.938842 
L 328.443377 -253.910886 
L 328.742347 -253.88293 
L 329.133837 -253.854974 
L 329.631933 -253.827018 
L 330.247223 -253.799062 
L 330.986194 -253.771106 
L 331.850929 -253.74315 
L 332.839105 -253.715194 
L 333.944255 -253.687238 
L 335.15628 -253.659283 
L 336.462195 -253.631327 
L 337.84711 -253.603371 
L 339.295411 -253.575415 
L 340.792074 -253.547459 
L 342.323978 -253.519503 
L 343.881002 -253.491547 
L 345.456682 -253.463591 
L 347.048173 -253.435635 
L 348.655375 -253.407679 
L 350.279198 -253.379723 
L 351.919152 -253.351768 
L 353.570617 -253.323812 
L 355.222328 -253.295856 
L 356.854623 -253.2679 
L 358.438957 -253.239944 
L 359.938969 -253.211988 
L 361.313105 -253.184032 
L 362.518496 -253.156076 
L 363.515478 -253.12812 
L 364.272043 -253.100164 
L 364.767447 -253.072208 
L 364.994375 -253.044253 
L 364.959353 -253.016297 
L 364.681375 -252.988341 
L 364.189078 -252.960385 
L 363.516994 -252.932429 
L 362.701537 -252.904473 
L 361.777348 -252.876517 
L 360.774496 -252.848561 
L 359.716842 -252.820605 
L 358.6216 -252.792649 
L 357.499991 -252.764694 
L 356.358667 -252.736738 
L 355.201536 -252.708782 
L 354.0316 -252.680826 
L 352.852448 -252.65287 
L 351.669176 -252.624914 
L 350.488607 -252.596958 
L 349.318828 -252.569002 
L 348.1682 -252.541046 
L 347.044073 -252.51309 
L 345.951512 -252.485134 
L 344.892333 -252.457179 
L 343.864685 -252.429223 
L 342.863306 -252.401267 
L 341.880463 -252.373311 
L 340.907409 -252.345355 
L 339.936111 -252.317399 
L 338.960909 -252.289443 
L 337.979792 -252.261487 
L 336.995041 -252.233531 
L 336.013131 -252.205575 
L 335.043925 -252.177619 
L 334.099341 -252.149664 
L 333.191764 -252.121708 
L 332.332513 -252.093752 
L 331.530633 -252.065796 
L 330.792178 -252.03784 
L 330.120042 -252.009884 
L 329.514276 -251.981928 
L 328.972734 -251.953972 
L 328.491862 -251.926016 
L 328.067438 -251.89806 
L 327.695151 -251.870104 
L 327.370938 -251.842149 
L 327.091096 -251.814193 
L 326.852216 -251.786237 
L 326.651035 -251.758281 
L 326.484269 -251.730325 
L 326.348503 -251.702369 
L 326.240157 -251.674413 
L 326.155536 -251.646457 
z
" style="stroke: #3d3d3d; stroke-opacity: 0.5"/>
    </defs>
    <g clip-path="url(#p1a657997b8)">
     <use xlink:href="#md44c366e82" x="0" y="711.060318" style="fill: #9372b2; fill-opacity: 0.5; stroke: #3d3d3d; stroke-opacity: 0.5"/>
    </g>
   </g>
   <g id="PolyCollection_4">
    <defs>
     <path id="mf4b9ab874d" d="M 424.709919 -236.935505 
L 422.458831 -236.935505 
L 421.851794 -237.771562 
L 420.999754 -238.60762 
L 419.846006 -239.443677 
L 418.338877 -240.279735 
L 416.439753 -241.115792 
L 414.131556 -241.95185 
L 411.426214 -242.787907 
L 408.369564 -243.623965 
L 405.042458 -244.460022 
L 401.557485 -245.29608 
L 398.051564 -246.132137 
L 394.675514 -246.968195 
L 391.582172 -247.804252 
L 388.914718 -248.64031 
L 386.796523 -249.476367 
L 385.323236 -250.312425 
L 384.557251 -251.148482 
L 384.524375 -251.98454 
L 385.21251 -252.820597 
L 386.572354 -253.656655 
L 388.520408 -254.492712 
L 390.944604 -255.32877 
L 393.71263 -256.164827 
L 396.682471 -257.000885 
L 399.714083 -257.836942 
L 402.680633 -258.673 
L 405.477643 -259.509057 
L 408.028701 -260.345115 
L 410.287125 -261.181172 
L 412.233784 -262.017229 
L 413.872035 -262.853287 
L 415.221197 -263.689344 
L 416.309981 -264.525402 
L 417.171038 -265.361459 
L 417.837238 -266.197517 
L 418.339741 -267.033574 
L 418.707537 -267.869632 
L 418.967835 -268.705689 
L 419.146723 -269.541747 
L 419.269595 -270.377804 
L 419.361078 -271.213862 
L 419.444398 -272.049919 
L 419.540284 -272.885977 
L 419.665667 -273.722034 
L 419.832458 -274.558092 
L 420.046676 -275.394149 
L 420.30817 -276.230207 
L 420.611015 -277.066264 
L 420.944579 -277.902322 
L 421.295101 -278.738379 
L 421.647536 -279.574437 
L 421.987387 -280.410494 
L 422.302264 -281.246552 
L 422.582962 -282.082609 
L 422.823965 -282.918667 
L 423.023407 -283.754724 
L 423.182568 -284.590782 
L 423.305098 -285.426839 
L 423.396115 -286.262896 
L 423.461355 -287.098954 
L 423.506485 -287.935011 
L 423.53661 -288.771069 
L 423.556011 -289.607126 
L 423.568062 -290.443184 
L 423.575267 -291.279241 
L 423.579386 -292.115299 
L 423.58158 -292.951356 
L 423.582543 -293.787414 
L 423.582615 -294.623471 
L 423.581838 -295.459529 
L 423.57998 -296.295586 
L 423.576511 -297.131644 
L 423.57056 -297.967701 
L 423.560857 -298.803759 
L 423.545707 -299.639816 
L 423.523014 -300.475874 
L 423.490416 -301.311931 
L 423.445551 -302.147989 
L 423.386464 -302.984046 
L 423.312134 -303.820104 
L 423.223037 -304.656161 
L 423.12162 -305.492219 
L 423.012547 -306.328276 
L 422.902575 -307.164334 
L 422.799996 -308.000391 
L 422.713669 -308.836449 
L 422.651777 -309.672506 
L 422.620558 -310.508563 
L 422.623268 -311.344621 
L 422.659622 -312.180678 
L 422.725842 -313.016736 
L 422.815306 -313.852793 
L 422.919636 -314.688851 
L 423.029987 -315.524908 
L 423.138253 -316.360966 
L 423.237981 -317.197023 
L 423.324859 -318.033081 
L 423.396774 -318.869138 
L 423.453522 -319.705196 
L 423.715228 -319.705196 
L 423.715228 -319.705196 
L 423.771976 -318.869138 
L 423.843891 -318.033081 
L 423.930769 -317.197023 
L 424.030497 -316.360966 
L 424.138763 -315.524908 
L 424.249114 -314.688851 
L 424.353444 -313.852793 
L 424.442908 -313.016736 
L 424.509128 -312.180678 
L 424.545482 -311.344621 
L 424.548192 -310.508563 
L 424.516973 -309.672506 
L 424.455081 -308.836449 
L 424.368754 -308.000391 
L 424.266175 -307.164334 
L 424.156203 -306.328276 
L 424.04713 -305.492219 
L 423.945713 -304.656161 
L 423.856616 -303.820104 
L 423.782286 -302.984046 
L 423.723199 -302.147989 
L 423.678334 -301.311931 
L 423.645736 -300.475874 
L 423.623043 -299.639816 
L 423.607893 -298.803759 
L 423.59819 -297.967701 
L 423.592239 -297.131644 
L 423.58877 -296.295586 
L 423.586912 -295.459529 
L 423.586135 -294.623471 
L 423.586207 -293.787414 
L 423.58717 -292.951356 
L 423.589364 -292.115299 
L 423.593483 -291.279241 
L 423.600688 -290.443184 
L 423.612739 -289.607126 
L 423.63214 -288.771069 
L 423.662265 -287.935011 
L 423.707395 -287.098954 
L 423.772635 -286.262896 
L 423.863652 -285.426839 
L 423.986182 -284.590782 
L 424.145343 -283.754724 
L 424.344785 -282.918667 
L 424.585788 -282.082609 
L 424.866486 -281.246552 
L 425.181363 -280.410494 
L 425.521214 -279.574437 
L 425.873649 -278.738379 
L 426.224171 -277.902322 
L 426.557735 -277.066264 
L 426.86058 -276.230207 
L 427.122074 -275.394149 
L 427.336292 -274.558092 
L 427.503083 -273.722034 
L 427.628466 -272.885977 
L 427.724352 -272.049919 
L 427.807672 -271.213862 
L 427.899155 -270.377804 
L 428.022027 -269.541747 
L 428.200915 -268.705689 
L 428.461213 -267.869632 
L 428.829009 -267.033574 
L 429.331512 -266.197517 
L 429.997712 -265.361459 
L 430.858769 -264.525402 
L 431.947553 -263.689344 
L 433.296715 -262.853287 
L 434.934966 -262.017229 
L 436.881625 -261.181172 
L 439.140049 -260.345115 
L 441.691107 -259.509057 
L 444.488117 -258.673 
L 447.454667 -257.836942 
L 450.486279 -257.000885 
L 453.45612 -256.164827 
L 456.224146 -255.32877 
L 458.648342 -254.492712 
L 460.596396 -253.656655 
L 461.95624 -252.820597 
L 462.644375 -251.98454 
L 462.611499 -251.148482 
L 461.845514 -250.312425 
L 460.372227 -249.476367 
L 458.254032 -248.64031 
L 455.586578 -247.804252 
L 452.493236 -246.968195 
L 449.117186 -246.132137 
L 445.611265 -245.29608 
L 442.126292 -244.460022 
L 438.799186 -243.623965 
L 435.742536 -242.787907 
L 433.037194 -241.95185 
L 430.728997 -241.115792 
L 428.829873 -240.279735 
L 427.322744 -239.443677 
L 426.168996 -238.60762 
L 425.316956 -237.771562 
L 424.709919 -236.935505 
z
" style="stroke: #3d3d3d; stroke-opacity: 0.5"/>
    </defs>
    <g clip-path="url(#p1a657997b8)">
     <use xlink:href="#mf4b9ab874d" x="0" y="711.060318" style="fill: #845b53; fill-opacity: 0.5; stroke: #3d3d3d; stroke-opacity: 0.5"/>
    </g>
   </g>
   <g id="PolyCollection_5">
    <defs>
     <path id="mc829ecc652" d="M 521.780683 -248.511669 
L 520.688067 -248.511669 
L 520.462304 -251.175875 
L 520.164385 -253.84008 
L 519.779397 -256.504286 
L 519.291841 -259.168491 
L 518.686212 -261.832697 
L 517.947589 -264.496902 
L 517.062181 -267.161107 
L 516.017788 -269.825313 
L 514.804181 -272.489518 
L 513.413455 -275.153724 
L 511.840457 -277.817929 
L 510.083413 -280.482135 
L 508.144881 -283.14634 
L 506.033073 -285.810546 
L 503.763503 -288.474751 
L 501.360772 -291.138956 
L 498.860162 -293.803162 
L 496.30864 -296.467367 
L 493.764821 -299.131573 
L 491.297545 -301.795778 
L 488.982885 -304.459984 
L 486.899641 -307.124189 
L 485.1237 -309.788394 
L 483.721832 -312.4526 
L 482.745727 -315.116805 
L 482.227071 -317.781011 
L 482.174375 -320.445216 
L 482.572054 -323.109422 
L 483.381894 -325.773627 
L 484.546733 -328.437832 
L 485.995861 -331.102038 
L 487.651415 -333.766243 
L 489.434965 -336.430449 
L 491.273535 -339.094654 
L 493.104433 -341.75886 
L 494.878495 -344.423065 
L 496.5616 -347.08727 
L 498.134536 -349.751476 
L 499.591463 -352.415681 
L 500.937363 -355.079887 
L 502.184899 -357.744092 
L 503.351089 -360.408298 
L 504.45417 -363.072503 
L 505.510938 -365.736708 
L 506.534747 -368.400914 
L 507.534268 -371.065119 
L 508.513001 -373.729325 
L 509.469467 -376.39353 
L 510.397952 -379.057736 
L 511.289631 -381.721941 
L 512.133897 -384.386147 
L 512.919753 -387.050352 
L 513.63711 -389.714557 
L 514.277912 -392.378763 
L 514.837008 -395.042968 
L 515.312721 -397.707174 
L 515.707107 -400.371379 
L 516.025876 -403.035585 
L 516.277996 -405.69979 
L 516.475012 -408.363995 
L 516.630126 -411.028201 
L 516.757139 -413.692406 
L 516.869355 -416.356612 
L 516.978567 -419.020817 
L 517.094247 -421.685023 
L 517.223018 -424.349228 
L 517.368467 -427.013433 
L 517.531281 -429.677639 
L 517.70966 -432.341844 
L 517.899918 -435.00605 
L 518.097155 -437.670255 
L 518.295917 -440.334461 
L 518.490765 -442.998666 
L 518.676713 -445.662871 
L 518.849554 -448.327077 
L 519.006075 -450.991282 
L 519.144213 -453.655488 
L 519.263164 -456.319693 
L 519.363447 -458.983899 
L 519.446905 -461.648104 
L 519.51662 -464.312309 
L 519.576696 -466.976515 
L 519.631912 -469.64072 
L 519.687256 -472.304926 
L 519.747395 -474.969131 
L 519.81615 -477.633337 
L 519.896059 -480.297542 
L 519.988101 -482.961748 
L 520.091633 -485.625953 
L 520.204531 -488.290158 
L 520.32353 -490.954364 
L 520.444677 -493.618569 
L 520.563836 -496.282775 
L 520.677157 -498.94698 
L 520.781449 -501.611186 
L 520.874422 -504.275391 
L 520.954771 -506.939596 
L 521.022142 -509.603802 
L 521.076987 -512.268007 
L 521.391763 -512.268007 
L 521.391763 -512.268007 
L 521.446608 -509.603802 
L 521.513979 -506.939596 
L 521.594328 -504.275391 
L 521.687301 -501.611186 
L 521.791593 -498.94698 
L 521.904914 -496.282775 
L 522.024073 -493.618569 
L 522.14522 -490.954364 
L 522.264219 -488.290158 
L 522.377117 -485.625953 
L 522.480649 -482.961748 
L 522.572691 -480.297542 
L 522.6526 -477.633337 
L 522.721355 -474.969131 
L 522.781494 -472.304926 
L 522.836838 -469.64072 
L 522.892054 -466.976515 
L 522.95213 -464.312309 
L 523.021845 -461.648104 
L 523.105303 -458.983899 
L 523.205586 -456.319693 
L 523.324537 -453.655488 
L 523.462675 -450.991282 
L 523.619196 -448.327077 
L 523.792037 -445.662871 
L 523.977985 -442.998666 
L 524.172833 -440.334461 
L 524.371595 -437.670255 
L 524.568832 -435.00605 
L 524.75909 -432.341844 
L 524.937469 -429.677639 
L 525.100283 -427.013433 
L 525.245732 -424.349228 
L 525.374503 -421.685023 
L 525.490183 -419.020817 
L 525.599395 -416.356612 
L 525.711611 -413.692406 
L 525.838624 -411.028201 
L 525.993738 -408.363995 
L 526.190754 -405.69979 
L 526.442874 -403.035585 
L 526.761643 -400.371379 
L 527.156029 -397.707174 
L 527.631742 -395.042968 
L 528.190838 -392.378763 
L 528.83164 -389.714557 
L 529.548997 -387.050352 
L 530.334853 -384.386147 
L 531.179119 -381.721941 
L 532.070798 -379.057736 
L 532.999283 -376.39353 
L 533.955749 -373.729325 
L 534.934482 -371.065119 
L 535.934003 -368.400914 
L 536.957812 -365.736708 
L 538.01458 -363.072503 
L 539.117661 -360.408298 
L 540.283851 -357.744092 
L 541.531387 -355.079887 
L 542.877287 -352.415681 
L 544.334214 -349.751476 
L 545.90715 -347.08727 
L 547.590255 -344.423065 
L 549.364317 -341.75886 
L 551.195215 -339.094654 
L 553.033785 -336.430449 
L 554.817335 -333.766243 
L 556.472889 -331.102038 
L 557.922017 -328.437832 
L 559.086856 -325.773627 
L 559.896696 -323.109422 
L 560.294375 -320.445216 
L 560.241679 -317.781011 
L 559.723023 -315.116805 
L 558.746918 -312.4526 
L 557.34505 -309.788394 
L 555.569109 -307.124189 
L 553.485865 -304.459984 
L 551.171205 -301.795778 
L 548.703929 -299.131573 
L 546.16011 -296.467367 
L 543.608588 -293.803162 
L 541.107978 -291.138956 
L 538.705247 -288.474751 
L 536.435677 -285.810546 
L 534.323869 -283.14634 
L 532.385337 -280.482135 
L 530.628293 -277.817929 
L 529.055295 -275.153724 
L 527.664569 -272.489518 
L 526.450962 -269.825313 
L 525.406569 -267.161107 
L 524.521161 -264.496902 
L 523.782538 -261.832697 
L 523.176909 -259.168491 
L 522.689353 -256.504286 
L 522.304365 -253.84008 
L 522.006446 -251.175875 
L 521.780683 -248.511669 
z
" style="stroke: #3d3d3d; stroke-opacity: 0.5"/>
    </defs>
    <g clip-path="url(#p1a657997b8)">
     <use xlink:href="#mc829ecc652" x="0" y="711.060318" style="fill: #3274a1; fill-opacity: 0.5; stroke: #3d3d3d; stroke-opacity: 0.5"/>
    </g>
   </g>
   <g id="PolyCollection_6">
    <defs>
     <path id="m9327a1c58a" d="M 619.927268 -174.660318 
L 617.841482 -174.660318 
L 617.471911 -179.751227 
L 617.001682 -184.842136 
L 616.414222 -189.933045 
L 615.693588 -195.023954 
L 614.825566 -200.114863 
L 613.798859 -205.205772 
L 612.60627 -210.296681 
L 611.245764 -215.38759 
L 609.721261 -220.478499 
L 608.043078 -225.569408 
L 606.227901 -230.660318 
L 604.298277 -235.751227 
L 602.281631 -240.842136 
L 600.208894 -245.933045 
L 598.112879 -251.023954 
L 596.026577 -256.114863 
L 593.981564 -261.205772 
L 592.00668 -266.296681 
L 590.12714 -271.38759 
L 588.36412 -276.478499 
L 586.734852 -281.569408 
L 585.253139 -286.660318 
L 583.930163 -291.751227 
L 582.775421 -296.842136 
L 581.797596 -301.933045 
L 581.005178 -307.023954 
L 580.406716 -312.114863 
L 580.010599 -317.205772 
L 579.824375 -322.296681 
L 579.853654 -327.38759 
L 580.100744 -332.478499 
L 580.563197 -337.569408 
L 581.232485 -342.660318 
L 582.093038 -347.751227 
L 583.121828 -352.842136 
L 584.288668 -357.933045 
L 585.557275 -363.023954 
L 586.887076 -368.114863 
L 588.235641 -373.205772 
L 589.561516 -378.296681 
L 590.827181 -383.38759 
L 592.00181 -388.478499 
L 593.063531 -393.569408 
L 594.000921 -398.660318 
L 594.813554 -403.751227 
L 595.511542 -408.842136 
L 596.114126 -413.933045 
L 596.647458 -419.023954 
L 597.141851 -424.114863 
L 597.628787 -429.205772 
L 598.137998 -434.296681 
L 598.694921 -439.38759 
L 599.318742 -444.478499 
L 600.021174 -449.569408 
L 600.806017 -454.660318 
L 601.669452 -459.751227 
L 602.600953 -464.842136 
L 603.584648 -469.933045 
L 604.600938 -475.023954 
L 605.62819 -480.114863 
L 606.644346 -485.205772 
L 607.628331 -490.296681 
L 608.561188 -495.38759 
L 609.426918 -500.478499 
L 610.213024 -505.569408 
L 610.910801 -510.660318 
L 611.51541 -515.751227 
L 612.025783 -520.842136 
L 612.444381 -525.933045 
L 612.776862 -531.023954 
L 613.031656 -536.114863 
L 613.219463 -541.205772 
L 613.352704 -546.296681 
L 613.44492 -551.38759 
L 613.510145 -556.478499 
L 613.562273 -561.569408 
L 613.614446 -566.660318 
L 613.678484 -571.751227 
L 613.764392 -576.842136 
L 613.87996 -581.933045 
L 614.03049 -587.023954 
L 614.218656 -592.114863 
L 614.444506 -597.205772 
L 614.705625 -602.296681 
L 614.997421 -607.38759 
L 615.313544 -612.478499 
L 615.646389 -617.569408 
L 615.987652 -622.660318 
L 616.328901 -627.751227 
L 616.662108 -632.842136 
L 616.980112 -637.933045 
L 617.276969 -643.023954 
L 617.548188 -648.114863 
L 617.790821 -653.205772 
L 618.003443 -658.296681 
L 618.186009 -663.38759 
L 618.339646 -668.478499 
L 618.466391 -673.569408 
L 618.568908 -678.660318 
L 619.199842 -678.660318 
L 619.199842 -678.660318 
L 619.302359 -673.569408 
L 619.429104 -668.478499 
L 619.582741 -663.38759 
L 619.765307 -658.296681 
L 619.977929 -653.205772 
L 620.220562 -648.114863 
L 620.491781 -643.023954 
L 620.788638 -637.933045 
L 621.106642 -632.842136 
L 621.439849 -627.751227 
L 621.781098 -622.660318 
L 622.122361 -617.569408 
L 622.455206 -612.478499 
L 622.771329 -607.38759 
L 623.063125 -602.296681 
L 623.324244 -597.205772 
L 623.550094 -592.114863 
L 623.73826 -587.023954 
L 623.88879 -581.933045 
L 624.004358 -576.842136 
L 624.090266 -571.751227 
L 624.154304 -566.660318 
L 624.206477 -561.569408 
L 624.258605 -556.478499 
L 624.32383 -551.38759 
L 624.416046 -546.296681 
L 624.549287 -541.205772 
L 624.737094 -536.114863 
L 624.991888 -531.023954 
L 625.324369 -525.933045 
L 625.742967 -520.842136 
L 626.25334 -515.751227 
L 626.857949 -510.660318 
L 627.555726 -505.569408 
L 628.341832 -500.478499 
L 629.207562 -495.38759 
L 630.140419 -490.296681 
L 631.124404 -485.205772 
L 632.14056 -480.114863 
L 633.167812 -475.023954 
L 634.184102 -469.933045 
L 635.167797 -464.842136 
L 636.099298 -459.751227 
L 636.962733 -454.660318 
L 637.747576 -449.569408 
L 638.450008 -444.478499 
L 639.073829 -439.38759 
L 639.630752 -434.296681 
L 640.139963 -429.205772 
L 640.626899 -424.114863 
L 641.121292 -419.023954 
L 641.654624 -413.933045 
L 642.257208 -408.842136 
L 642.955196 -403.751227 
L 643.767829 -398.660318 
L 644.705219 -393.569408 
L 645.76694 -388.478499 
L 646.941569 -383.38759 
L 648.207234 -378.296681 
L 649.533109 -373.205772 
L 650.881674 -368.114863 
L 652.211475 -363.023954 
L 653.480082 -357.933045 
L 654.646922 -352.842136 
L 655.675712 -347.751227 
L 656.536265 -342.660318 
L 657.205553 -337.569408 
L 657.668006 -332.478499 
L 657.915096 -327.38759 
L 657.944375 -322.296681 
L 657.758151 -317.205772 
L 657.362034 -312.114863 
L 656.763572 -307.023954 
L 655.971154 -301.933045 
L 654.993329 -296.842136 
L 653.838587 -291.751227 
L 652.515611 -286.660318 
L 651.033898 -281.569408 
L 649.40463 -276.478499 
L 647.64161 -271.38759 
L 645.76207 -266.296681 
L 643.787186 -261.205772 
L 641.742173 -256.114863 
L 639.655871 -251.023954 
L 637.559856 -245.933045 
L 635.487119 -240.842136 
L 633.470473 -235.751227 
L 631.540849 -230.660318 
L 629.725672 -225.569408 
L 628.047489 -220.478499 
L 626.522986 -215.38759 
L 625.16248 -210.296681 
L 623.969891 -205.205772 
L 622.943184 -200.114863 
L 622.075162 -195.023954 
L 621.354528 -189.933045 
L 620.767068 -184.842136 
L 620.296839 -179.751227 
L 619.927268 -174.660318 
z
" style="stroke: #3d3d3d; stroke-opacity: 0.5"/>
    </defs>
    <g clip-path="url(#p1a657997b8)">
     <use xlink:href="#m9327a1c58a" x="0" y="711.060318" style="fill: #e1812c; fill-opacity: 0.5; stroke: #3d3d3d; stroke-opacity: 0.5"/>
    </g>
   </g>
   <g id="PolyCollection_7">
    <defs>
     <path id="mbf6c66f0f9" d="M 716.913401 -243.629104 
L 716.155349 -243.629104 
L 715.941452 -245.722194 
L 715.629765 -247.815284 
L 715.187946 -249.908374 
L 714.578807 -252.001464 
L 713.762152 -254.094553 
L 712.697802 -256.187643 
L 711.349755 -258.280733 
L 709.691178 -260.373823 
L 707.709637 -262.466913 
L 705.411746 -264.560002 
L 702.826313 -266.653092 
L 700.005196 -268.746182 
L 697.021391 -270.839272 
L 693.964438 -272.932362 
L 690.93372 -275.025452 
L 688.030735 -277.118541 
L 685.351536 -279.211631 
L 682.980432 -281.304721 
L 680.985576 -283.397811 
L 679.416583 -285.490901 
L 678.303793 -287.58399 
L 677.658607 -289.67708 
L 677.474375 -291.77017 
L 677.727542 -293.86326 
L 678.379163 -295.95635 
L 679.377043 -298.04944 
L 680.658817 -300.142529 
L 682.156033 -302.235619 
L 683.798988 -304.328709 
L 685.521766 -306.421799 
L 687.266777 -308.514889 
L 688.988177 -310.607978 
L 690.65375 -312.701068 
L 692.24518 -314.794158 
L 693.756869 -316.887248 
L 695.193675 -318.980338 
L 696.567993 -321.073428 
L 697.896566 -323.166517 
L 699.197364 -325.259607 
L 700.486756 -327.352697 
L 701.777158 -329.445787 
L 703.07528 -331.538877 
L 704.381078 -333.631966 
L 705.687477 -335.725056 
L 706.980879 -337.818146 
L 708.242418 -339.911236 
L 709.449822 -342.004326 
L 710.57967 -344.097416 
L 711.609779 -346.190505 
L 712.521424 -348.283595 
L 713.301143 -350.376685 
L 713.941966 -352.469775 
L 714.443959 -354.562865 
L 714.814134 -356.655954 
L 715.065766 -358.749044 
L 715.217244 -360.842134 
L 715.290547 -362.935224 
L 715.309468 -365.028314 
L 715.297703 -367.121403 
L 715.276951 -369.214493 
L 715.265234 -371.307583 
L 715.27561 -373.400673 
L 715.315489 -375.493763 
L 715.386639 -377.586853 
L 715.485886 -379.679942 
L 715.606362 -381.773032 
L 715.73907 -383.866122 
L 715.874482 -385.959212 
L 716.00388 -388.052302 
L 716.120273 -390.145391 
L 716.21879 -392.238481 
L 716.296593 -394.331571 
L 716.352448 -396.424661 
L 716.386108 -398.517751 
L 716.397719 -400.610841 
L 716.387388 -402.70393 
L 716.355022 -404.79702 
L 716.300477 -406.89011 
L 716.223974 -408.9832 
L 716.126706 -411.07629 
L 716.011462 -413.169379 
L 715.883106 -415.262469 
L 715.748729 -417.355559 
L 715.617353 -419.448649 
L 715.499158 -421.541739 
L 715.404307 -423.634829 
L 715.341576 -425.727918 
L 715.317052 -427.821008 
L 715.333176 -429.914098 
L 715.388355 -432.007188 
L 715.477225 -434.100278 
L 715.591513 -436.193367 
L 715.721309 -438.286457 
L 715.856467 -440.379547 
L 715.987886 -442.472637 
L 716.108424 -444.565727 
L 716.213376 -446.658817 
L 716.300483 -448.751906 
L 716.3696 -450.844996 
L 716.69915 -450.844996 
L 716.69915 -450.844996 
L 716.768267 -448.751906 
L 716.855374 -446.658817 
L 716.960326 -444.565727 
L 717.080864 -442.472637 
L 717.212283 -440.379547 
L 717.347441 -438.286457 
L 717.477237 -436.193367 
L 717.591525 -434.100278 
L 717.680395 -432.007188 
L 717.735574 -429.914098 
L 717.751698 -427.821008 
L 717.727174 -425.727918 
L 717.664443 -423.634829 
L 717.569592 -421.541739 
L 717.451397 -419.448649 
L 717.320021 -417.355559 
L 717.185644 -415.262469 
L 717.057288 -413.169379 
L 716.942044 -411.07629 
L 716.844776 -408.9832 
L 716.768273 -406.89011 
L 716.713728 -404.79702 
L 716.681362 -402.70393 
L 716.671031 -400.610841 
L 716.682642 -398.517751 
L 716.716302 -396.424661 
L 716.772157 -394.331571 
L 716.84996 -392.238481 
L 716.948477 -390.145391 
L 717.06487 -388.052302 
L 717.194268 -385.959212 
L 717.32968 -383.866122 
L 717.462388 -381.773032 
L 717.582864 -379.679942 
L 717.682111 -377.586853 
L 717.753261 -375.493763 
L 717.79314 -373.400673 
L 717.803516 -371.307583 
L 717.791799 -369.214493 
L 717.771047 -367.121403 
L 717.759282 -365.028314 
L 717.778203 -362.935224 
L 717.851506 -360.842134 
L 718.002984 -358.749044 
L 718.254616 -356.655954 
L 718.624791 -354.562865 
L 719.126784 -352.469775 
L 719.767607 -350.376685 
L 720.547326 -348.283595 
L 721.458971 -346.190505 
L 722.48908 -344.097416 
L 723.618928 -342.004326 
L 724.826332 -339.911236 
L 726.087871 -337.818146 
L 727.381273 -335.725056 
L 728.687672 -333.631966 
L 729.99347 -331.538877 
L 731.291592 -329.445787 
L 732.581994 -327.352697 
L 733.871386 -325.259607 
L 735.172184 -323.166517 
L 736.500757 -321.073428 
L 737.875075 -318.980338 
L 739.311881 -316.887248 
L 740.82357 -314.794158 
L 742.415 -312.701068 
L 744.080573 -310.607978 
L 745.801973 -308.514889 
L 747.546984 -306.421799 
L 749.269762 -304.328709 
L 750.912717 -302.235619 
L 752.409933 -300.142529 
L 753.691707 -298.04944 
L 754.689587 -295.95635 
L 755.341208 -293.86326 
L 755.594375 -291.77017 
L 755.410143 -289.67708 
L 754.764957 -287.58399 
L 753.652167 -285.490901 
L 752.083174 -283.397811 
L 750.088318 -281.304721 
L 747.717214 -279.211631 
L 745.038015 -277.118541 
L 742.13503 -275.025452 
L 739.104312 -272.932362 
L 736.047359 -270.839272 
L 733.063554 -268.746182 
L 730.242437 -266.653092 
L 727.657004 -264.560002 
L 725.359113 -262.466913 
L 723.377572 -260.373823 
L 721.718995 -258.280733 
L 720.370948 -256.187643 
L 719.306598 -254.094553 
L 718.489943 -252.001464 
L 717.880804 -249.908374 
L 717.438985 -247.815284 
L 717.127298 -245.722194 
L 716.913401 -243.629104 
z
" style="stroke: #3d3d3d; stroke-opacity: 0.5"/>
    </defs>
    <g clip-path="url(#p1a657997b8)">
     <use xlink:href="#mbf6c66f0f9" x="0" y="711.060318" style="fill: #3a923a; fill-opacity: 0.5; stroke: #3d3d3d; stroke-opacity: 0.5"/>
    </g>
   </g>
   <g id="PolyCollection_8">
    <defs>
     <path id="m17e8bccbcf" d="M 816.427725 -212.962925 
L 811.941025 -212.962925 
L 810.964908 -215.584518 
L 809.679957 -218.206112 
L 808.039266 -220.827705 
L 806.008531 -223.449299 
L 803.573982 -226.070892 
L 800.749971 -228.692486 
L 797.584875 -231.314079 
L 794.163982 -233.935672 
L 790.608212 -236.557266 
L 787.068118 -239.178859 
L 783.713317 -241.800453 
L 780.718329 -244.422046 
L 778.246533 -247.043639 
L 776.434374 -249.665233 
L 775.378026 -252.286826 
L 775.124375 -254.90842 
L 775.667504 -257.530013 
L 776.950963 -260.151607 
L 778.875254 -262.7732 
L 781.309221 -265.394793 
L 784.103589 -268.016387 
L 787.104814 -270.63798 
L 790.167574 -273.259574 
L 793.164651 -275.881167 
L 795.993518 -278.50276 
L 798.579438 -281.124354 
L 800.875406 -283.745947 
L 802.859576 -286.367541 
L 804.531002 -288.989134 
L 805.904589 -291.610728 
L 807.006022 -294.232321 
L 807.867292 -296.853914 
L 808.523168 -299.475508 
L 809.008743 -302.097101 
L 809.35796 -304.718695 
L 809.60287 -307.340288 
L 809.773322 -309.961882 
L 809.896762 -312.583475 
L 809.997958 -315.205068 
L 810.098508 -317.826662 
L 810.216186 -320.448255 
L 810.364242 -323.069849 
L 810.550833 -325.691442 
L 810.778776 -328.313035 
L 811.045744 -330.934629 
L 811.344948 -333.556222 
L 811.666245 -336.177816 
L 811.997533 -338.799409 
L 812.326232 -341.421003 
L 812.640655 -344.042596 
L 812.931091 -346.664189 
L 813.190496 -349.285783 
L 813.414762 -351.907376 
L 813.602591 -354.52897 
L 813.755074 -357.150563 
L 813.875084 -359.772156 
L 813.966611 -362.39375 
L 814.034122 -365.015343 
L 814.082027 -367.636937 
L 814.11428 -370.25853 
L 814.13412 -372.880124 
L 814.143937 -375.501717 
L 814.145238 -378.12331 
L 814.138696 -380.744904 
L 814.124253 -383.366497 
L 814.101271 -385.988091 
L 814.068731 -388.609684 
L 814.025459 -391.231277 
L 813.970381 -393.852871 
L 813.902794 -396.474464 
L 813.82261 -399.096058 
L 813.730557 -401.717651 
L 813.628289 -404.339245 
L 813.518398 -406.960838 
L 813.4043 -409.582431 
L 813.29001 -412.204025 
L 813.179858 -414.825618 
L 813.078161 -417.447212 
L 812.988926 -420.068805 
L 812.915619 -422.690398 
L 812.861005 -425.311992 
L 812.827076 -427.933585 
L 812.815036 -430.555179 
L 812.825304 -433.176772 
L 812.857522 -435.798366 
L 812.910551 -438.419959 
L 812.982461 -441.041552 
L 813.070545 -443.663146 
L 813.171391 -446.284739 
L 813.281027 -448.906333 
L 813.39515 -451.527926 
L 813.509423 -454.149519 
L 813.619795 -456.771113 
L 813.722803 -459.392706 
L 813.815796 -462.0143 
L 813.897067 -464.635893 
L 813.965866 -467.257487 
L 814.022302 -469.87908 
L 814.06718 -472.500673 
L 814.30157 -472.500673 
L 814.30157 -472.500673 
L 814.346448 -469.87908 
L 814.402884 -467.257487 
L 814.471683 -464.635893 
L 814.552954 -462.0143 
L 814.645947 -459.392706 
L 814.748955 -456.771113 
L 814.859327 -454.149519 
L 814.9736 -451.527926 
L 815.087723 -448.906333 
L 815.197359 -446.284739 
L 815.298205 -443.663146 
L 815.386289 -441.041552 
L 815.458199 -438.419959 
L 815.511228 -435.798366 
L 815.543446 -433.176772 
L 815.553714 -430.555179 
L 815.541674 -427.933585 
L 815.507745 -425.311992 
L 815.453131 -422.690398 
L 815.379824 -420.068805 
L 815.290589 -417.447212 
L 815.188892 -414.825618 
L 815.07874 -412.204025 
L 814.96445 -409.582431 
L 814.850352 -406.960838 
L 814.740461 -404.339245 
L 814.638193 -401.717651 
L 814.54614 -399.096058 
L 814.465956 -396.474464 
L 814.398369 -393.852871 
L 814.343291 -391.231277 
L 814.300019 -388.609684 
L 814.267479 -385.988091 
L 814.244497 -383.366497 
L 814.230054 -380.744904 
L 814.223512 -378.12331 
L 814.224813 -375.501717 
L 814.23463 -372.880124 
L 814.25447 -370.25853 
L 814.286723 -367.636937 
L 814.334628 -365.015343 
L 814.402139 -362.39375 
L 814.493666 -359.772156 
L 814.613676 -357.150563 
L 814.766159 -354.52897 
L 814.953988 -351.907376 
L 815.178254 -349.285783 
L 815.437659 -346.664189 
L 815.728095 -344.042596 
L 816.042518 -341.421003 
L 816.371217 -338.799409 
L 816.702505 -336.177816 
L 817.023802 -333.556222 
L 817.323006 -330.934629 
L 817.589974 -328.313035 
L 817.817917 -325.691442 
L 818.004508 -323.069849 
L 818.152564 -320.448255 
L 818.270242 -317.826662 
L 818.370792 -315.205068 
L 818.471988 -312.583475 
L 818.595428 -309.961882 
L 818.76588 -307.340288 
L 819.01079 -304.718695 
L 819.360007 -302.097101 
L 819.845582 -299.475508 
L 820.501458 -296.853914 
L 821.362728 -294.232321 
L 822.464161 -291.610728 
L 823.837748 -288.989134 
L 825.509174 -286.367541 
L 827.493344 -283.745947 
L 829.789312 -281.124354 
L 832.375232 -278.50276 
L 835.204099 -275.881167 
L 838.201176 -273.259574 
L 841.263936 -270.63798 
L 844.265161 -268.016387 
L 847.059529 -265.394793 
L 849.493496 -262.7732 
L 851.417787 -260.151607 
L 852.701246 -257.530013 
L 853.244375 -254.90842 
L 852.990724 -252.286826 
L 851.934376 -249.665233 
L 850.122217 -247.043639 
L 847.650421 -244.422046 
L 844.655433 -241.800453 
L 841.300632 -239.178859 
L 837.760538 -236.557266 
L 834.204768 -233.935672 
L 830.783875 -231.314079 
L 827.618779 -228.692486 
L 824.794768 -226.070892 
L 822.360219 -223.449299 
L 820.329484 -220.827705 
L 818.688793 -218.206112 
L 817.403842 -215.584518 
L 816.427725 -212.962925 
z
" style="stroke: #3d3d3d; stroke-opacity: 0.5"/>
    </defs>
    <g clip-path="url(#p1a657997b8)">
     <use xlink:href="#m17e8bccbcf" x="0" y="711.060318" style="fill: #c03d3e; fill-opacity: 0.5; stroke: #3d3d3d; stroke-opacity: 0.5"/>
    </g>
   </g>
   <g id="line2d_9">
    <path d="M 130.634375 466.129321 
L 130.634375 393.887755 
" clip-path="url(#p1a657997b8)" style="fill: none; stroke: #3d3d3d; stroke-width: 1.5; stroke-linecap: round"/>
   </g>
   <g id="line2d_10">
    <path d="M 130.634375 458.215526 
L 130.634375 431.68656 
" clip-path="url(#p1a657997b8)" style="fill: none; stroke: #3d3d3d; stroke-width: 4.5; stroke-linecap: round"/>
   </g>
   <g id="line2d_11">
    <path d="M 130.634375 449.272036 
" clip-path="url(#p1a657997b8)" style="fill: none; stroke: #3d3d3d; stroke-width: 1.5; stroke-linecap: round"/>
    <defs>
     <path id="m26bd02f970" d="M 1.875 0 
L -1.875 -0 
" style="stroke: #ffffff; stroke-width: 0.9"/>
    </defs>
    <g clip-path="url(#p1a657997b8)">
     <use xlink:href="#m26bd02f970" x="130.634375" y="449.272036" style="fill: #ffffff; stroke: #ffffff; stroke-width: 0.9"/>
    </g>
   </g>
   <g id="line2d_12">
    <path d="M 228.284375 449.416904 
L 228.284375 185.224273 
" clip-path="url(#p1a657997b8)" style="fill: none; stroke: #3d3d3d; stroke-width: 1.5; stroke-linecap: round"/>
   </g>
   <g id="line2d_13">
    <path d="M 228.284375 373.003934 
L 228.284375 280.658281 
" clip-path="url(#p1a657997b8)" style="fill: none; stroke: #3d3d3d; stroke-width: 4.5; stroke-linecap: round"/>
   </g>
   <g id="line2d_14">
    <path d="M 228.284375 343.001346 
" clip-path="url(#p1a657997b8)" style="fill: none; stroke: #3d3d3d; stroke-width: 1.5; stroke-linecap: round"/>
    <g clip-path="url(#p1a657997b8)">
     <use xlink:href="#m26bd02f970" x="228.284375" y="343.001346" style="fill: #ffffff; stroke: #ffffff; stroke-width: 0.9"/>
    </g>
   </g>
   <g id="line2d_15">
    <path d="M 325.934375 459.061142 
L 325.934375 457.371871 
" clip-path="url(#p1a657997b8)" style="fill: none; stroke: #3d3d3d; stroke-width: 1.5; stroke-linecap: round"/>
   </g>
   <g id="line2d_16">
    <path d="M 325.934375 458.373612 
L 325.934375 457.865305 
" clip-path="url(#p1a657997b8)" style="fill: none; stroke: #3d3d3d; stroke-width: 4.5; stroke-linecap: round"/>
   </g>
   <g id="line2d_17">
    <path d="M 325.934375 458.092117 
" clip-path="url(#p1a657997b8)" style="fill: none; stroke: #3d3d3d; stroke-width: 1.5; stroke-linecap: round"/>
    <g clip-path="url(#p1a657997b8)">
     <use xlink:href="#m26bd02f970" x="325.934375" y="458.092117" style="fill: #ffffff; stroke: #ffffff; stroke-width: 0.9"/>
    </g>
   </g>
   <g id="line2d_18">
    <path d="M 423.584375 465.280344 
L 423.584375 446.637121 
" clip-path="url(#p1a657997b8)" style="fill: none; stroke: #3d3d3d; stroke-width: 1.5; stroke-linecap: round"/>
   </g>
   <g id="line2d_19">
    <path d="M 423.584375 461.775768 
L 423.584375 454.941554 
" clip-path="url(#p1a657997b8)" style="fill: none; stroke: #3d3d3d; stroke-width: 4.5; stroke-linecap: round"/>
   </g>
   <g id="line2d_20">
    <path d="M 423.584375 458.44471 
" clip-path="url(#p1a657997b8)" style="fill: none; stroke: #3d3d3d; stroke-width: 1.5; stroke-linecap: round"/>
    <g clip-path="url(#p1a657997b8)">
     <use xlink:href="#m26bd02f970" x="423.584375" y="458.44471" style="fill: #ffffff; stroke: #ffffff; stroke-width: 0.9"/>
    </g>
   </g>
   <g id="line2d_21">
    <path d="M 521.234375 428.063272 
L 521.234375 300.742216 
" clip-path="url(#p1a657997b8)" style="fill: none; stroke: #3d3d3d; stroke-width: 1.5; stroke-linecap: round"/>
   </g>
   <g id="line2d_22">
    <path d="M 521.234375 398.246804 
L 521.234375 358.647998 
" clip-path="url(#p1a657997b8)" style="fill: none; stroke: #3d3d3d; stroke-width: 4.5; stroke-linecap: round"/>
   </g>
   <g id="line2d_23">
    <path d="M 521.234375 386.831305 
" clip-path="url(#p1a657997b8)" style="fill: none; stroke: #3d3d3d; stroke-width: 1.5; stroke-linecap: round"/>
    <g clip-path="url(#p1a657997b8)">
     <use xlink:href="#m26bd02f970" x="521.234375" y="386.831305" style="fill: #ffffff; stroke: #ffffff; stroke-width: 0.9"/>
    </g>
   </g>
   <g id="line2d_24">
    <path d="M 618.884375 460.548213 
L 618.884375 117.858078 
" clip-path="url(#p1a657997b8)" style="fill: none; stroke: #3d3d3d; stroke-width: 1.5; stroke-linecap: round"/>
   </g>
   <g id="line2d_25">
    <path d="M 618.884375 405.107242 
L 618.884375 286.576362 
" clip-path="url(#p1a657997b8)" style="fill: none; stroke: #3d3d3d; stroke-width: 4.5; stroke-linecap: round"/>
   </g>
   <g id="line2d_26">
    <path d="M 618.884375 362.317609 
" clip-path="url(#p1a657997b8)" style="fill: none; stroke: #3d3d3d; stroke-width: 1.5; stroke-linecap: round"/>
    <g clip-path="url(#p1a657997b8)">
     <use xlink:href="#m26bd02f970" x="618.884375" y="362.317609" style="fill: #ffffff; stroke: #ffffff; stroke-width: 0.9"/>
    </g>
   </g>
   <g id="line2d_27">
    <path d="M 716.534375 444.625858 
L 716.534375 368.946141 
" clip-path="url(#p1a657997b8)" style="fill: none; stroke: #3d3d3d; stroke-width: 1.5; stroke-linecap: round"/>
   </g>
   <g id="line2d_28">
    <path d="M 716.534375 426.061029 
L 716.534375 400.234399 
" clip-path="url(#p1a657997b8)" style="fill: none; stroke: #3d3d3d; stroke-width: 4.5; stroke-linecap: round"/>
   </g>
   <g id="line2d_29">
    <path d="M 716.534375 414.874666 
" clip-path="url(#p1a657997b8)" style="fill: none; stroke: #3d3d3d; stroke-width: 1.5; stroke-linecap: round"/>
    <g clip-path="url(#p1a657997b8)">
     <use xlink:href="#m26bd02f970" x="716.534375" y="414.874666" style="fill: #ffffff; stroke: #ffffff; stroke-width: 0.9"/>
    </g>
   </g>
   <g id="line2d_30">
    <path d="M 814.184375 466.300358 
L 814.184375 419.661383 
" clip-path="url(#p1a657997b8)" style="fill: none; stroke: #3d3d3d; stroke-width: 1.5; stroke-linecap: round"/>
   </g>
   <g id="line2d_31">
    <path d="M 814.184375 462.206753 
L 814.184375 444.619606 
" clip-path="url(#p1a657997b8)" style="fill: none; stroke: #3d3d3d; stroke-width: 4.5; stroke-linecap: round"/>
   </g>
   <g id="line2d_32">
    <path d="M 814.184375 455.657037 
" clip-path="url(#p1a657997b8)" style="fill: none; stroke: #3d3d3d; stroke-width: 1.5; stroke-linecap: round"/>
    <g clip-path="url(#p1a657997b8)">
     <use xlink:href="#m26bd02f970" x="814.184375" y="455.657037" style="fill: #ffffff; stroke: #ffffff; stroke-width: 0.9"/>
    </g>
   </g>
   <g id="patch_3">
    <path d="M 81.809375 561.6 
L 863.009375 561.6 
" style="fill: none; stroke: #cccccc; stroke-width: 0.8; stroke-linejoin: miter; stroke-linecap: square"/>
   </g>
  </g>
 </g>
 <defs>
  <clipPath id="p1a657997b8">
   <rect x="81.809375" y="7.2" width="781.2" height="554.4"/>
  </clipPath>
 </defs>
</svg>
