<?xml version="1.0" encoding="utf-8" standalone="no"?>
<!DOCTYPE svg PUBLIC "-//W3C//DTD SVG 1.1//EN"
  "http://www.w3.org/Graphics/SVG/1.1/DTD/svg11.dtd">
<svg xmlns:xlink="http://www.w3.org/1999/xlink" width="857.7625pt" height="711.060318pt" viewBox="0 0 857.7625 711.060318" xmlns="http://www.w3.org/2000/svg" version="1.1">
 <metadata>
  <rdf:RDF xmlns:dc="http://purl.org/dc/elements/1.1/" xmlns:cc="http://creativecommons.org/ns#" xmlns:rdf="http://www.w3.org/1999/02/22-rdf-syntax-ns#">
   <cc:Work>
    <dc:type rdf:resource="http://purl.org/dc/dcmitype/StillImage"/>
    <dc:date>2024-06-19T17:04:34.046429</dc:date>
    <dc:format>image/svg+xml</dc:format>
    <dc:creator>
     <cc:Agent>
      <dc:title>Matplotlib v3.8.0, https://matplotlib.org/</dc:title>
     </cc:Agent>
    </dc:creator>
   </cc:Work>
  </rdf:RDF>
 </metadata>
 <defs>
  <style type="text/css">*{stroke-linejoin: round; stroke-linecap: butt}</style>
 </defs>
 <g id="figure_1">
  <g id="patch_1">
   <path d="M 0 711.060318 
L 857.7625 711.060318 
L 857.7625 0 
L 0 0 
L 0 711.060318 
z
" style="fill: none"/>
  </g>
  <g id="axes_1">
   <g id="patch_2">
    <path d="M 69.3625 561.6 
L 850.5625 561.6 
L 850.5625 7.2 
L 69.3625 7.2 
L 69.3625 561.6 
z
" style="fill: none"/>
   </g>
   <g id="matplotlib.axis_1">
    <g id="xtick_1">
     <g id="text_1">
      <!-- MSA -->
      <g style="fill: #262626" transform="translate(97.813986 610.465141) rotate(-45) scale(0.2 -0.2)">
       <defs>
        <path id="DejaVuSans-4d" d="M 628 4666 
L 1569 4666 
L 2759 1491 
L 3956 4666 
L 4897 4666 
L 4897 0 
L 4281 0 
L 4281 4097 
L 3078 897 
L 2444 897 
L 1241 4097 
L 1241 0 
L 628 0 
L 628 4666 
z
" transform="scale(0.015625)"/>
        <path id="DejaVuSans-53" d="M 3425 4513 
L 3425 3897 
Q 3066 4069 2747 4153 
Q 2428 4238 2131 4238 
Q 1616 4238 1336 4038 
Q 1056 3838 1056 3469 
Q 1056 3159 1242 3001 
Q 1428 2844 1947 2747 
L 2328 2669 
Q 3034 2534 3370 2195 
Q 3706 1856 3706 1288 
Q 3706 609 3251 259 
Q 2797 -91 1919 -91 
Q 1588 -91 1214 -16 
Q 841 59 441 206 
L 441 856 
Q 825 641 1194 531 
Q 1563 422 1919 422 
Q 2459 422 2753 634 
Q 3047 847 3047 1241 
Q 3047 1584 2836 1778 
Q 2625 1972 2144 2069 
L 1759 2144 
Q 1053 2284 737 2584 
Q 422 2884 422 3419 
Q 422 4038 858 4394 
Q 1294 4750 2059 4750 
Q 2388 4750 2728 4690 
Q 3069 4631 3425 4513 
z
" transform="scale(0.015625)"/>
        <path id="DejaVuSans-41" d="M 2188 4044 
L 1331 1722 
L 3047 1722 
L 2188 4044 
z
M 1831 4666 
L 2547 4666 
L 4325 0 
L 3669 0 
L 3244 1197 
L 1141 1197 
L 716 0 
L 50 0 
L 1831 4666 
z
" transform="scale(0.015625)"/>
       </defs>
       <use xlink:href="#DejaVuSans-4d"/>
       <use xlink:href="#DejaVuSans-53" x="86.279297"/>
       <use xlink:href="#DejaVuSans-41" x="151.630859"/>
      </g>
     </g>
    </g>
    <g id="xtick_2">
     <g id="text_2">
      <!-- Single -->
      <g style="fill: #262626" transform="translate(183.105085 622.824042) rotate(-45) scale(0.2 -0.2)">
       <defs>
        <path id="DejaVuSans-69" d="M 603 3500 
L 1178 3500 
L 1178 0 
L 603 0 
L 603 3500 
z
M 603 4863 
L 1178 4863 
L 1178 4134 
L 603 4134 
L 603 4863 
z
" transform="scale(0.015625)"/>
        <path id="DejaVuSans-6e" d="M 3513 2113 
L 3513 0 
L 2938 0 
L 2938 2094 
Q 2938 2591 2744 2837 
Q 2550 3084 2163 3084 
Q 1697 3084 1428 2787 
Q 1159 2491 1159 1978 
L 1159 0 
L 581 0 
L 581 3500 
L 1159 3500 
L 1159 2956 
Q 1366 3272 1645 3428 
Q 1925 3584 2291 3584 
Q 2894 3584 3203 3211 
Q 3513 2838 3513 2113 
z
" transform="scale(0.015625)"/>
        <path id="DejaVuSans-67" d="M 2906 1791 
Q 2906 2416 2648 2759 
Q 2391 3103 1925 3103 
Q 1463 3103 1205 2759 
Q 947 2416 947 1791 
Q 947 1169 1205 825 
Q 1463 481 1925 481 
Q 2391 481 2648 825 
Q 2906 1169 2906 1791 
z
M 3481 434 
Q 3481 -459 3084 -895 
Q 2688 -1331 1869 -1331 
Q 1566 -1331 1297 -1286 
Q 1028 -1241 775 -1147 
L 775 -588 
Q 1028 -725 1275 -790 
Q 1522 -856 1778 -856 
Q 2344 -856 2625 -561 
Q 2906 -266 2906 331 
L 2906 616 
Q 2728 306 2450 153 
Q 2172 0 1784 0 
Q 1141 0 747 490 
Q 353 981 353 1791 
Q 353 2603 747 3093 
Q 1141 3584 1784 3584 
Q 2172 3584 2450 3431 
Q 2728 3278 2906 2969 
L 2906 3500 
L 3481 3500 
L 3481 434 
z
" transform="scale(0.015625)"/>
        <path id="DejaVuSans-6c" d="M 603 4863 
L 1178 4863 
L 1178 0 
L 603 0 
L 603 4863 
z
" transform="scale(0.015625)"/>
        <path id="DejaVuSans-65" d="M 3597 1894 
L 3597 1613 
L 953 1613 
Q 991 1019 1311 708 
Q 1631 397 2203 397 
Q 2534 397 2845 478 
Q 3156 559 3463 722 
L 3463 178 
Q 3153 47 2828 -22 
Q 2503 -91 2169 -91 
Q 1331 -91 842 396 
Q 353 884 353 1716 
Q 353 2575 817 3079 
Q 1281 3584 2069 3584 
Q 2775 3584 3186 3129 
Q 3597 2675 3597 1894 
z
M 3022 2063 
Q 3016 2534 2758 2815 
Q 2500 3097 2075 3097 
Q 1594 3097 1305 2825 
Q 1016 2553 972 2059 
L 3022 2063 
z
" transform="scale(0.015625)"/>
       </defs>
       <use xlink:href="#DejaVuSans-53"/>
       <use xlink:href="#DejaVuSans-69" x="63.476562"/>
       <use xlink:href="#DejaVuSans-6e" x="91.259766"/>
       <use xlink:href="#DejaVuSans-67" x="154.638672"/>
       <use xlink:href="#DejaVuSans-6c" x="218.115234"/>
       <use xlink:href="#DejaVuSans-65" x="245.898438"/>
      </g>
     </g>
    </g>
    <g id="xtick_3">
     <g id="text_3">
      <!-- Gaussian -->
      <g style="fill: #262626" transform="translate(259.354056 644.22507) rotate(-45) scale(0.2 -0.2)">
       <defs>
        <path id="DejaVuSans-47" d="M 3809 666 
L 3809 1919 
L 2778 1919 
L 2778 2438 
L 4434 2438 
L 4434 434 
Q 4069 175 3628 42 
Q 3188 -91 2688 -91 
Q 1594 -91 976 548 
Q 359 1188 359 2328 
Q 359 3472 976 4111 
Q 1594 4750 2688 4750 
Q 3144 4750 3555 4637 
Q 3966 4525 4313 4306 
L 4313 3634 
Q 3963 3931 3569 4081 
Q 3175 4231 2741 4231 
Q 1884 4231 1454 3753 
Q 1025 3275 1025 2328 
Q 1025 1384 1454 906 
Q 1884 428 2741 428 
Q 3075 428 3337 486 
Q 3600 544 3809 666 
z
" transform="scale(0.015625)"/>
        <path id="DejaVuSans-61" d="M 2194 1759 
Q 1497 1759 1228 1600 
Q 959 1441 959 1056 
Q 959 750 1161 570 
Q 1363 391 1709 391 
Q 2188 391 2477 730 
Q 2766 1069 2766 1631 
L 2766 1759 
L 2194 1759 
z
M 3341 1997 
L 3341 0 
L 2766 0 
L 2766 531 
Q 2569 213 2275 61 
Q 1981 -91 1556 -91 
Q 1019 -91 701 211 
Q 384 513 384 1019 
Q 384 1609 779 1909 
Q 1175 2209 1959 2209 
L 2766 2209 
L 2766 2266 
Q 2766 2663 2505 2880 
Q 2244 3097 1772 3097 
Q 1472 3097 1187 3025 
Q 903 2953 641 2809 
L 641 3341 
Q 956 3463 1253 3523 
Q 1550 3584 1831 3584 
Q 2591 3584 2966 3190 
Q 3341 2797 3341 1997 
z
" transform="scale(0.015625)"/>
        <path id="DejaVuSans-75" d="M 544 1381 
L 544 3500 
L 1119 3500 
L 1119 1403 
Q 1119 906 1312 657 
Q 1506 409 1894 409 
Q 2359 409 2629 706 
Q 2900 1003 2900 1516 
L 2900 3500 
L 3475 3500 
L 3475 0 
L 2900 0 
L 2900 538 
Q 2691 219 2414 64 
Q 2138 -91 1772 -91 
Q 1169 -91 856 284 
Q 544 659 544 1381 
z
M 1991 3584 
L 1991 3584 
z
" transform="scale(0.015625)"/>
        <path id="DejaVuSans-73" d="M 2834 3397 
L 2834 2853 
Q 2591 2978 2328 3040 
Q 2066 3103 1784 3103 
Q 1356 3103 1142 2972 
Q 928 2841 928 2578 
Q 928 2378 1081 2264 
Q 1234 2150 1697 2047 
L 1894 2003 
Q 2506 1872 2764 1633 
Q 3022 1394 3022 966 
Q 3022 478 2636 193 
Q 2250 -91 1575 -91 
Q 1294 -91 989 -36 
Q 684 19 347 128 
L 347 722 
Q 666 556 975 473 
Q 1284 391 1588 391 
Q 1994 391 2212 530 
Q 2431 669 2431 922 
Q 2431 1156 2273 1281 
Q 2116 1406 1581 1522 
L 1381 1569 
Q 847 1681 609 1914 
Q 372 2147 372 2553 
Q 372 3047 722 3315 
Q 1072 3584 1716 3584 
Q 2034 3584 2315 3537 
Q 2597 3491 2834 3397 
z
" transform="scale(0.015625)"/>
       </defs>
       <use xlink:href="#DejaVuSans-47"/>
       <use xlink:href="#DejaVuSans-61" x="77.490234"/>
       <use xlink:href="#DejaVuSans-75" x="138.769531"/>
       <use xlink:href="#DejaVuSans-73" x="202.148438"/>
       <use xlink:href="#DejaVuSans-73" x="254.248047"/>
       <use xlink:href="#DejaVuSans-69" x="306.347656"/>
       <use xlink:href="#DejaVuSans-61" x="334.130859"/>
       <use xlink:href="#DejaVuSans-6e" x="395.410156"/>
      </g>
     </g>
    </g>
    <g id="xtick_4">
     <g id="text_4">
      <!-- Gaussian (AF) -->
      <g style="fill: #262626" transform="translate(323.666181 677.562945) rotate(-45) scale(0.2 -0.2)">
       <defs>
        <path id="DejaVuSans-20" transform="scale(0.015625)"/>
        <path id="DejaVuSans-28" d="M 1984 4856 
Q 1566 4138 1362 3434 
Q 1159 2731 1159 2009 
Q 1159 1288 1364 580 
Q 1569 -128 1984 -844 
L 1484 -844 
Q 1016 -109 783 600 
Q 550 1309 550 2009 
Q 550 2706 781 3412 
Q 1013 4119 1484 4856 
L 1984 4856 
z
" transform="scale(0.015625)"/>
        <path id="DejaVuSans-46" d="M 628 4666 
L 3309 4666 
L 3309 4134 
L 1259 4134 
L 1259 2759 
L 3109 2759 
L 3109 2228 
L 1259 2228 
L 1259 0 
L 628 0 
L 628 4666 
z
" transform="scale(0.015625)"/>
        <path id="DejaVuSans-29" d="M 513 4856 
L 1013 4856 
Q 1481 4119 1714 3412 
Q 1947 2706 1947 2009 
Q 1947 1309 1714 600 
Q 1481 -109 1013 -844 
L 513 -844 
Q 928 -128 1133 580 
Q 1338 1288 1338 2009 
Q 1338 2731 1133 3434 
Q 928 4138 513 4856 
z
" transform="scale(0.015625)"/>
       </defs>
       <use xlink:href="#DejaVuSans-47"/>
       <use xlink:href="#DejaVuSans-61" x="77.490234"/>
       <use xlink:href="#DejaVuSans-75" x="138.769531"/>
       <use xlink:href="#DejaVuSans-73" x="202.148438"/>
       <use xlink:href="#DejaVuSans-73" x="254.248047"/>
       <use xlink:href="#DejaVuSans-69" x="306.347656"/>
       <use xlink:href="#DejaVuSans-61" x="334.130859"/>
       <use xlink:href="#DejaVuSans-6e" x="395.410156"/>
       <use xlink:href="#DejaVuSans-20" x="458.789062"/>
       <use xlink:href="#DejaVuSans-28" x="490.576172"/>
       <use xlink:href="#DejaVuSans-41" x="529.589844"/>
       <use xlink:href="#DejaVuSans-46" x="597.998047"/>
       <use xlink:href="#DejaVuSans-29" x="655.517578"/>
      </g>
     </g>
    </g>
    <g id="xtick_5">
     <g id="text_5">
      <!-- 1 PC -->
      <g style="fill: #262626" transform="translate(487.638378 611.240749) rotate(-45) scale(0.2 -0.2)">
       <defs>
        <path id="DejaVuSans-31" d="M 794 531 
L 1825 531 
L 1825 4091 
L 703 3866 
L 703 4441 
L 1819 4666 
L 2450 4666 
L 2450 531 
L 3481 531 
L 3481 0 
L 794 0 
L 794 531 
z
" transform="scale(0.015625)"/>
        <path id="DejaVuSans-50" d="M 1259 4147 
L 1259 2394 
L 2053 2394 
Q 2494 2394 2734 2622 
Q 2975 2850 2975 3272 
Q 2975 3691 2734 3919 
Q 2494 4147 2053 4147 
L 1259 4147 
z
M 628 4666 
L 2053 4666 
Q 2838 4666 3239 4311 
Q 3641 3956 3641 3272 
Q 3641 2581 3239 2228 
Q 2838 1875 2053 1875 
L 1259 1875 
L 1259 0 
L 628 0 
L 628 4666 
z
" transform="scale(0.015625)"/>
        <path id="DejaVuSans-43" d="M 4122 4306 
L 4122 3641 
Q 3803 3938 3442 4084 
Q 3081 4231 2675 4231 
Q 1875 4231 1450 3742 
Q 1025 3253 1025 2328 
Q 1025 1406 1450 917 
Q 1875 428 2675 428 
Q 3081 428 3442 575 
Q 3803 722 4122 1019 
L 4122 359 
Q 3791 134 3420 21 
Q 3050 -91 2638 -91 
Q 1578 -91 968 557 
Q 359 1206 359 2328 
Q 359 3453 968 4101 
Q 1578 4750 2638 4750 
Q 3056 4750 3426 4639 
Q 3797 4528 4122 4306 
z
" transform="scale(0.015625)"/>
       </defs>
       <use xlink:href="#DejaVuSans-31"/>
       <use xlink:href="#DejaVuSans-20" x="63.623047"/>
       <use xlink:href="#DejaVuSans-50" x="95.410156"/>
       <use xlink:href="#DejaVuSans-43" x="155.712891"/>
      </g>
     </g>
    </g>
    <g id="xtick_6">
     <g id="text_6">
      <!-- 1 PC (AF) -->
      <g style="fill: #262626" transform="translate(551.950503 644.578624) rotate(-45) scale(0.2 -0.2)">
       <use xlink:href="#DejaVuSans-31"/>
       <use xlink:href="#DejaVuSans-20" x="63.623047"/>
       <use xlink:href="#DejaVuSans-50" x="95.410156"/>
       <use xlink:href="#DejaVuSans-43" x="155.712891"/>
       <use xlink:href="#DejaVuSans-20" x="225.537109"/>
       <use xlink:href="#DejaVuSans-28" x="257.324219"/>
       <use xlink:href="#DejaVuSans-41" x="296.337891"/>
       <use xlink:href="#DejaVuSans-46" x="364.746094"/>
       <use xlink:href="#DejaVuSans-29" x="422.265625"/>
      </g>
     </g>
    </g>
    <g id="xtick_7">
     <g id="text_7">
      <!-- 2 PC -->
      <g style="fill: #262626" transform="translate(682.938378 611.240749) rotate(-45) scale(0.2 -0.2)">
       <defs>
        <path id="DejaVuSans-32" d="M 1228 531 
L 3431 531 
L 3431 0 
L 469 0 
L 469 531 
Q 828 903 1448 1529 
Q 2069 2156 2228 2338 
Q 2531 2678 2651 2914 
Q 2772 3150 2772 3378 
Q 2772 3750 2511 3984 
Q 2250 4219 1831 4219 
Q 1534 4219 1204 4116 
Q 875 4013 500 3803 
L 500 4441 
Q 881 4594 1212 4672 
Q 1544 4750 1819 4750 
Q 2544 4750 2975 4387 
Q 3406 4025 3406 3419 
Q 3406 3131 3298 2873 
Q 3191 2616 2906 2266 
Q 2828 2175 2409 1742 
Q 1991 1309 1228 531 
z
" transform="scale(0.015625)"/>
       </defs>
       <use xlink:href="#DejaVuSans-32"/>
       <use xlink:href="#DejaVuSans-20" x="63.623047"/>
       <use xlink:href="#DejaVuSans-50" x="95.410156"/>
       <use xlink:href="#DejaVuSans-43" x="155.712891"/>
      </g>
     </g>
    </g>
    <g id="xtick_8">
     <g id="text_8">
      <!-- 2 PC (AF) -->
      <g style="fill: #262626" transform="translate(747.250503 644.578624) rotate(-45) scale(0.2 -0.2)">
       <use xlink:href="#DejaVuSans-32"/>
       <use xlink:href="#DejaVuSans-20" x="63.623047"/>
       <use xlink:href="#DejaVuSans-50" x="95.410156"/>
       <use xlink:href="#DejaVuSans-43" x="155.712891"/>
       <use xlink:href="#DejaVuSans-20" x="225.537109"/>
       <use xlink:href="#DejaVuSans-28" x="257.324219"/>
       <use xlink:href="#DejaVuSans-41" x="296.337891"/>
       <use xlink:href="#DejaVuSans-46" x="364.746094"/>
       <use xlink:href="#DejaVuSans-29" x="422.265625"/>
      </g>
     </g>
    </g>
    <g id="text_9">
     <!-- Method -->
     <g style="fill: #262626" transform="translate(422.45625 699.700943) scale(0.2 -0.2)">
      <defs>
       <path id="DejaVuSans-74" d="M 1172 4494 
L 1172 3500 
L 2356 3500 
L 2356 3053 
L 1172 3053 
L 1172 1153 
Q 1172 725 1289 603 
Q 1406 481 1766 481 
L 2356 481 
L 2356 0 
L 1766 0 
Q 1100 0 847 248 
Q 594 497 594 1153 
L 594 3053 
L 172 3053 
L 172 3500 
L 594 3500 
L 594 4494 
L 1172 4494 
z
" transform="scale(0.015625)"/>
       <path id="DejaVuSans-68" d="M 3513 2113 
L 3513 0 
L 2938 0 
L 2938 2094 
Q 2938 2591 2744 2837 
Q 2550 3084 2163 3084 
Q 1697 3084 1428 2787 
Q 1159 2491 1159 1978 
L 1159 0 
L 581 0 
L 581 4863 
L 1159 4863 
L 1159 2956 
Q 1366 3272 1645 3428 
Q 1925 3584 2291 3584 
Q 2894 3584 3203 3211 
Q 3513 2838 3513 2113 
z
" transform="scale(0.015625)"/>
       <path id="DejaVuSans-6f" d="M 1959 3097 
Q 1497 3097 1228 2736 
Q 959 2375 959 1747 
Q 959 1119 1226 758 
Q 1494 397 1959 397 
Q 2419 397 2687 759 
Q 2956 1122 2956 1747 
Q 2956 2369 2687 2733 
Q 2419 3097 1959 3097 
z
M 1959 3584 
Q 2709 3584 3137 3096 
Q 3566 2609 3566 1747 
Q 3566 888 3137 398 
Q 2709 -91 1959 -91 
Q 1206 -91 779 398 
Q 353 888 353 1747 
Q 353 2609 779 3096 
Q 1206 3584 1959 3584 
z
" transform="scale(0.015625)"/>
       <path id="DejaVuSans-64" d="M 2906 2969 
L 2906 4863 
L 3481 4863 
L 3481 0 
L 2906 0 
L 2906 525 
Q 2725 213 2448 61 
Q 2172 -91 1784 -91 
Q 1150 -91 751 415 
Q 353 922 353 1747 
Q 353 2572 751 3078 
Q 1150 3584 1784 3584 
Q 2172 3584 2448 3432 
Q 2725 3281 2906 2969 
z
M 947 1747 
Q 947 1113 1208 752 
Q 1469 391 1925 391 
Q 2381 391 2643 752 
Q 2906 1113 2906 1747 
Q 2906 2381 2643 2742 
Q 2381 3103 1925 3103 
Q 1469 3103 1208 2742 
Q 947 2381 947 1747 
z
" transform="scale(0.015625)"/>
      </defs>
      <use xlink:href="#DejaVuSans-4d"/>
      <use xlink:href="#DejaVuSans-65" x="86.279297"/>
      <use xlink:href="#DejaVuSans-74" x="147.802734"/>
      <use xlink:href="#DejaVuSans-68" x="187.011719"/>
      <use xlink:href="#DejaVuSans-6f" x="250.390625"/>
      <use xlink:href="#DejaVuSans-64" x="311.572266"/>
     </g>
    </g>
   </g>
   <g id="matplotlib.axis_2">
    <g id="ytick_1">
     <g id="line2d_1">
      <path d="M 69.3625 511.903024 
L 850.5625 511.903024 
" clip-path="url(#p66a4ee94a5)" style="fill: none; stroke: #cccccc; stroke-width: 0.8; stroke-linecap: round"/>
     </g>
     <g id="text_10">
      <!-- 0.0 -->
      <g style="fill: #262626" transform="translate(30.55625 519.501461) scale(0.2 -0.2)">
       <defs>
        <path id="DejaVuSans-30" d="M 2034 4250 
Q 1547 4250 1301 3770 
Q 1056 3291 1056 2328 
Q 1056 1369 1301 889 
Q 1547 409 2034 409 
Q 2525 409 2770 889 
Q 3016 1369 3016 2328 
Q 3016 3291 2770 3770 
Q 2525 4250 2034 4250 
z
M 2034 4750 
Q 2819 4750 3233 4129 
Q 3647 3509 3647 2328 
Q 3647 1150 3233 529 
Q 2819 -91 2034 -91 
Q 1250 -91 836 529 
Q 422 1150 422 2328 
Q 422 3509 836 4129 
Q 1250 4750 2034 4750 
z
" transform="scale(0.015625)"/>
        <path id="DejaVuSans-2e" d="M 684 794 
L 1344 794 
L 1344 0 
L 684 0 
L 684 794 
z
" transform="scale(0.015625)"/>
       </defs>
       <use xlink:href="#DejaVuSans-30"/>
       <use xlink:href="#DejaVuSans-2e" x="63.623047"/>
       <use xlink:href="#DejaVuSans-30" x="95.410156"/>
      </g>
     </g>
    </g>
    <g id="ytick_2">
     <g id="line2d_2">
      <path d="M 69.3625 429.886622 
L 850.5625 429.886622 
" clip-path="url(#p66a4ee94a5)" style="fill: none; stroke: #cccccc; stroke-width: 0.8; stroke-linecap: round"/>
     </g>
     <g id="text_11">
      <!-- 0.2 -->
      <g style="fill: #262626" transform="translate(30.55625 437.48506) scale(0.2 -0.2)">
       <use xlink:href="#DejaVuSans-30"/>
       <use xlink:href="#DejaVuSans-2e" x="63.623047"/>
       <use xlink:href="#DejaVuSans-32" x="95.410156"/>
      </g>
     </g>
    </g>
    <g id="ytick_3">
     <g id="line2d_3">
      <path d="M 69.3625 347.870221 
L 850.5625 347.870221 
" clip-path="url(#p66a4ee94a5)" style="fill: none; stroke: #cccccc; stroke-width: 0.8; stroke-linecap: round"/>
     </g>
     <g id="text_12">
      <!-- 0.4 -->
      <g style="fill: #262626" transform="translate(30.55625 355.468659) scale(0.2 -0.2)">
       <defs>
        <path id="DejaVuSans-34" d="M 2419 4116 
L 825 1625 
L 2419 1625 
L 2419 4116 
z
M 2253 4666 
L 3047 4666 
L 3047 1625 
L 3713 1625 
L 3713 1100 
L 3047 1100 
L 3047 0 
L 2419 0 
L 2419 1100 
L 313 1100 
L 313 1709 
L 2253 4666 
z
" transform="scale(0.015625)"/>
       </defs>
       <use xlink:href="#DejaVuSans-30"/>
       <use xlink:href="#DejaVuSans-2e" x="63.623047"/>
       <use xlink:href="#DejaVuSans-34" x="95.410156"/>
      </g>
     </g>
    </g>
    <g id="ytick_4">
     <g id="line2d_4">
      <path d="M 69.3625 265.85382 
L 850.5625 265.85382 
" clip-path="url(#p66a4ee94a5)" style="fill: none; stroke: #cccccc; stroke-width: 0.8; stroke-linecap: round"/>
     </g>
     <g id="text_13">
      <!-- 0.6 -->
      <g style="fill: #262626" transform="translate(30.55625 273.452258) scale(0.2 -0.2)">
       <defs>
        <path id="DejaVuSans-36" d="M 2113 2584 
Q 1688 2584 1439 2293 
Q 1191 2003 1191 1497 
Q 1191 994 1439 701 
Q 1688 409 2113 409 
Q 2538 409 2786 701 
Q 3034 994 3034 1497 
Q 3034 2003 2786 2293 
Q 2538 2584 2113 2584 
z
M 3366 4563 
L 3366 3988 
Q 3128 4100 2886 4159 
Q 2644 4219 2406 4219 
Q 1781 4219 1451 3797 
Q 1122 3375 1075 2522 
Q 1259 2794 1537 2939 
Q 1816 3084 2150 3084 
Q 2853 3084 3261 2657 
Q 3669 2231 3669 1497 
Q 3669 778 3244 343 
Q 2819 -91 2113 -91 
Q 1303 -91 875 529 
Q 447 1150 447 2328 
Q 447 3434 972 4092 
Q 1497 4750 2381 4750 
Q 2619 4750 2861 4703 
Q 3103 4656 3366 4563 
z
" transform="scale(0.015625)"/>
       </defs>
       <use xlink:href="#DejaVuSans-30"/>
       <use xlink:href="#DejaVuSans-2e" x="63.623047"/>
       <use xlink:href="#DejaVuSans-36" x="95.410156"/>
      </g>
     </g>
    </g>
    <g id="ytick_5">
     <g id="line2d_5">
      <path d="M 69.3625 183.837419 
L 850.5625 183.837419 
" clip-path="url(#p66a4ee94a5)" style="fill: none; stroke: #cccccc; stroke-width: 0.8; stroke-linecap: round"/>
     </g>
     <g id="text_14">
      <!-- 0.8 -->
      <g style="fill: #262626" transform="translate(30.55625 191.435857) scale(0.2 -0.2)">
       <defs>
        <path id="DejaVuSans-38" d="M 2034 2216 
Q 1584 2216 1326 1975 
Q 1069 1734 1069 1313 
Q 1069 891 1326 650 
Q 1584 409 2034 409 
Q 2484 409 2743 651 
Q 3003 894 3003 1313 
Q 3003 1734 2745 1975 
Q 2488 2216 2034 2216 
z
M 1403 2484 
Q 997 2584 770 2862 
Q 544 3141 544 3541 
Q 544 4100 942 4425 
Q 1341 4750 2034 4750 
Q 2731 4750 3128 4425 
Q 3525 4100 3525 3541 
Q 3525 3141 3298 2862 
Q 3072 2584 2669 2484 
Q 3125 2378 3379 2068 
Q 3634 1759 3634 1313 
Q 3634 634 3220 271 
Q 2806 -91 2034 -91 
Q 1263 -91 848 271 
Q 434 634 434 1313 
Q 434 1759 690 2068 
Q 947 2378 1403 2484 
z
M 1172 3481 
Q 1172 3119 1398 2916 
Q 1625 2713 2034 2713 
Q 2441 2713 2670 2916 
Q 2900 3119 2900 3481 
Q 2900 3844 2670 4047 
Q 2441 4250 2034 4250 
Q 1625 4250 1398 4047 
Q 1172 3844 1172 3481 
z
" transform="scale(0.015625)"/>
       </defs>
       <use xlink:href="#DejaVuSans-30"/>
       <use xlink:href="#DejaVuSans-2e" x="63.623047"/>
       <use xlink:href="#DejaVuSans-38" x="95.410156"/>
      </g>
     </g>
    </g>
    <g id="ytick_6">
     <g id="line2d_6">
      <path d="M 69.3625 101.821018 
L 850.5625 101.821018 
" clip-path="url(#p66a4ee94a5)" style="fill: none; stroke: #cccccc; stroke-width: 0.8; stroke-linecap: round"/>
     </g>
     <g id="text_15">
      <!-- 1.0 -->
      <g style="fill: #262626" transform="translate(30.55625 109.419456) scale(0.2 -0.2)">
       <use xlink:href="#DejaVuSans-31"/>
       <use xlink:href="#DejaVuSans-2e" x="63.623047"/>
       <use xlink:href="#DejaVuSans-30" x="95.410156"/>
      </g>
     </g>
    </g>
    <g id="ytick_7">
     <g id="line2d_7">
      <path d="M 69.3625 19.804617 
L 850.5625 19.804617 
" clip-path="url(#p66a4ee94a5)" style="fill: none; stroke: #cccccc; stroke-width: 0.8; stroke-linecap: round"/>
     </g>
     <g id="text_16">
      <!-- 1.2 -->
      <g style="fill: #262626" transform="translate(30.55625 27.403055) scale(0.2 -0.2)">
       <use xlink:href="#DejaVuSans-31"/>
       <use xlink:href="#DejaVuSans-2e" x="63.623047"/>
       <use xlink:href="#DejaVuSans-32" x="95.410156"/>
      </g>
     </g>
    </g>
    <g id="text_17">
     <!-- TM-score -->
     <g style="fill: #262626" transform="translate(22.396875 329.609375) rotate(-90) scale(0.2 -0.2)">
      <defs>
       <path id="DejaVuSans-54" d="M -19 4666 
L 3928 4666 
L 3928 4134 
L 2272 4134 
L 2272 0 
L 1638 0 
L 1638 4134 
L -19 4134 
L -19 4666 
z
" transform="scale(0.015625)"/>
       <path id="DejaVuSans-2d" d="M 313 2009 
L 1997 2009 
L 1997 1497 
L 313 1497 
L 313 2009 
z
" transform="scale(0.015625)"/>
       <path id="DejaVuSans-63" d="M 3122 3366 
L 3122 2828 
Q 2878 2963 2633 3030 
Q 2388 3097 2138 3097 
Q 1578 3097 1268 2742 
Q 959 2388 959 1747 
Q 959 1106 1268 751 
Q 1578 397 2138 397 
Q 2388 397 2633 464 
Q 2878 531 3122 666 
L 3122 134 
Q 2881 22 2623 -34 
Q 2366 -91 2075 -91 
Q 1284 -91 818 406 
Q 353 903 353 1747 
Q 353 2603 823 3093 
Q 1294 3584 2113 3584 
Q 2378 3584 2631 3529 
Q 2884 3475 3122 3366 
z
" transform="scale(0.015625)"/>
       <path id="DejaVuSans-72" d="M 2631 2963 
Q 2534 3019 2420 3045 
Q 2306 3072 2169 3072 
Q 1681 3072 1420 2755 
Q 1159 2438 1159 1844 
L 1159 0 
L 581 0 
L 581 3500 
L 1159 3500 
L 1159 2956 
Q 1341 3275 1631 3429 
Q 1922 3584 2338 3584 
Q 2397 3584 2469 3576 
Q 2541 3569 2628 3553 
L 2631 2963 
z
" transform="scale(0.015625)"/>
      </defs>
      <use xlink:href="#DejaVuSans-54"/>
      <use xlink:href="#DejaVuSans-4d" x="61.083984"/>
      <use xlink:href="#DejaVuSans-2d" x="147.363281"/>
      <use xlink:href="#DejaVuSans-73" x="183.447266"/>
      <use xlink:href="#DejaVuSans-63" x="235.546875"/>
      <use xlink:href="#DejaVuSans-6f" x="290.527344"/>
      <use xlink:href="#DejaVuSans-72" x="351.708984"/>
      <use xlink:href="#DejaVuSans-65" x="390.572266"/>
     </g>
    </g>
   </g>
   <g id="PolyCollection_1">
    <defs>
     <path id="m3a6c0c9805" d="M 118.448536 -318.388732 
L 117.926464 -318.388732 
L 117.844629 -321.864669 
L 117.743574 -325.340605 
L 117.620896 -328.816541 
L 117.47451 -332.292477 
L 117.30284 -335.768413 
L 117.105021 -339.244349 
L 116.88107 -342.720285 
L 116.632037 -346.196221 
L 116.360076 -349.672157 
L 116.068454 -353.148093 
L 115.761458 -356.624029 
L 115.444212 -360.099965 
L 115.122405 -363.575901 
L 114.801941 -367.051837 
L 114.488555 -370.527773 
L 114.187417 -374.003709 
L 113.902767 -377.479645 
L 113.637635 -380.955582 
L 113.393653 -384.431518 
L 113.171013 -387.907454 
L 112.96856 -391.38339 
L 112.784018 -394.859326 
L 112.614332 -398.335262 
L 112.456076 -401.811198 
L 112.305903 -405.287134 
L 112.16096 -408.76307 
L 112.019245 -412.239006 
L 111.879859 -415.714942 
L 111.743122 -419.190878 
L 111.610558 -422.666814 
L 111.48474 -426.14275 
L 111.369029 -429.618686 
L 111.267234 -433.094622 
L 111.183231 -436.570558 
L 111.120579 -440.046494 
L 111.082169 -443.522431 
L 111.069933 -446.998367 
L 111.084624 -450.474303 
L 111.125679 -453.950239 
L 111.191149 -457.426175 
L 111.277709 -460.902111 
L 111.380699 -464.378047 
L 111.494223 -467.853983 
L 111.611255 -471.329919 
L 111.723778 -474.805855 
L 111.822926 -478.281791 
L 111.899146 -481.757727 
L 111.942374 -485.233663 
L 111.94221 -488.709599 
L 111.888116 -492.185535 
L 111.769597 -495.661471 
L 111.576378 -499.137407 
L 111.298552 -502.613344 
L 110.926694 -506.08928 
L 110.451952 -509.565216 
L 109.866092 -513.041152 
L 109.161552 -516.517088 
L 108.331501 -519.993024 
L 107.369964 -523.46896 
L 106.272041 -526.944896 
L 105.034267 -530.420832 
L 103.655126 -533.896768 
L 102.135753 -537.372704 
L 100.480775 -540.84864 
L 98.699273 -544.324576 
L 96.805772 -547.800512 
L 94.821153 -551.276448 
L 92.773362 -554.752384 
L 90.697777 -558.22832 
L 88.637111 -561.704256 
L 86.640723 -565.180193 
L 84.763298 -568.656129 
L 83.062873 -572.132065 
L 81.598267 -575.608001 
L 80.426063 -579.083937 
L 79.597327 -582.559873 
L 79.154321 -586.035809 
L 79.1275 -589.511745 
L 79.533065 -592.987681 
L 80.371327 -596.463617 
L 81.626076 -599.939553 
L 83.265037 -603.415489 
L 85.241434 -606.891425 
L 87.496521 -610.367361 
L 89.962904 -613.843297 
L 92.56834 -617.319233 
L 95.239724 -620.795169 
L 97.906904 -624.271106 
L 100.50606 -627.747042 
L 102.982382 -631.222978 
L 105.291914 -634.698914 
L 107.402497 -638.17485 
L 109.29384 -641.650786 
L 110.956821 -645.126722 
L 112.392189 -648.602658 
L 113.608849 -652.078594 
L 114.621934 -655.55453 
L 115.45085 -659.030466 
L 116.117444 -662.506402 
L 120.257556 -662.506402 
L 120.257556 -662.506402 
L 120.92415 -659.030466 
L 121.753066 -655.55453 
L 122.766151 -652.078594 
L 123.982811 -648.602658 
L 125.418179 -645.126722 
L 127.08116 -641.650786 
L 128.972503 -638.17485 
L 131.083086 -634.698914 
L 133.392618 -631.222978 
L 135.86894 -627.747042 
L 138.468096 -624.271106 
L 141.135276 -620.795169 
L 143.80666 -617.319233 
L 146.412096 -613.843297 
L 148.878479 -610.367361 
L 151.133566 -606.891425 
L 153.109963 -603.415489 
L 154.748924 -599.939553 
L 156.003673 -596.463617 
L 156.841935 -592.987681 
L 157.2475 -589.511745 
L 157.220679 -586.035809 
L 156.777673 -582.559873 
L 155.948937 -579.083937 
L 154.776733 -575.608001 
L 153.312127 -572.132065 
L 151.611702 -568.656129 
L 149.734277 -565.180193 
L 147.737889 -561.704256 
L 145.677223 -558.22832 
L 143.601638 -554.752384 
L 141.553847 -551.276448 
L 139.569228 -547.800512 
L 137.675727 -544.324576 
L 135.894225 -540.84864 
L 134.239247 -537.372704 
L 132.719874 -533.896768 
L 131.340733 -530.420832 
L 130.102959 -526.944896 
L 129.005036 -523.46896 
L 128.043499 -519.993024 
L 127.213448 -516.517088 
L 126.508908 -513.041152 
L 125.923048 -509.565216 
L 125.448306 -506.08928 
L 125.076448 -502.613344 
L 124.798622 -499.137407 
L 124.605403 -495.661471 
L 124.486884 -492.185535 
L 124.43279 -488.709599 
L 124.432626 -485.233663 
L 124.475854 -481.757727 
L 124.552074 -478.281791 
L 124.651222 -474.805855 
L 124.763745 -471.329919 
L 124.880777 -467.853983 
L 124.994301 -464.378047 
L 125.097291 -460.902111 
L 125.183851 -457.426175 
L 125.249321 -453.950239 
L 125.290376 -450.474303 
L 125.305067 -446.998367 
L 125.292831 -443.522431 
L 125.254421 -440.046494 
L 125.191769 -436.570558 
L 125.107766 -433.094622 
L 125.005971 -429.618686 
L 124.89026 -426.14275 
L 124.764442 -422.666814 
L 124.631878 -419.190878 
L 124.495141 -415.714942 
L 124.355755 -412.239006 
L 124.21404 -408.76307 
L 124.069097 -405.287134 
L 123.918924 -401.811198 
L 123.760668 -398.335262 
L 123.590982 -394.859326 
L 123.40644 -391.38339 
L 123.203987 -387.907454 
L 122.981347 -384.431518 
L 122.737365 -380.955582 
L 122.472233 -377.479645 
L 122.187583 -374.003709 
L 121.886445 -370.527773 
L 121.573059 -367.051837 
L 121.252595 -363.575901 
L 120.930788 -360.099965 
L 120.613542 -356.624029 
L 120.306546 -353.148093 
L 120.014924 -349.672157 
L 119.742963 -346.196221 
L 119.49393 -342.720285 
L 119.269979 -339.244349 
L 119.07216 -335.768413 
L 118.90049 -332.292477 
L 118.754104 -328.816541 
L 118.631426 -325.340605 
L 118.530371 -321.864669 
L 118.448536 -318.388732 
z
" style="stroke: #3d3d3d; stroke-opacity: 0.5"/>
    </defs>
    <g clip-path="url(#p66a4ee94a5)">
     <use xlink:href="#m3a6c0c9805" x="0" y="711.060318" style="fill: #d684bd; fill-opacity: 0.5; stroke: #3d3d3d; stroke-opacity: 0.5"/>
    </g>
   </g>
   <g id="PolyCollection_2">
    <defs>
     <path id="m84c5f17890" d="M 216.312756 -217.801261 
L 215.362244 -217.801261 
L 215.144605 -221.715773 
L 214.847318 -225.630285 
L 214.450085 -229.544797 
L 213.930795 -233.459309 
L 213.26655 -237.37382 
L 212.435067 -241.288332 
L 211.4164 -245.202844 
L 210.194861 -249.117356 
L 208.760978 -253.031868 
L 207.113265 -256.94638 
L 205.259578 -260.860892 
L 203.217831 -264.775404 
L 201.01593 -268.689916 
L 198.690815 -272.604428 
L 196.286684 -276.51894 
L 193.852532 -280.433452 
L 191.439282 -284.347964 
L 189.096856 -288.262476 
L 186.871546 -292.176988 
L 184.804001 -296.0915 
L 182.928083 -300.006012 
L 181.270636 -303.920524 
L 179.852121 -307.835036 
L 178.687859 -311.749548 
L 177.789532 -315.66406 
L 177.166559 -319.578572 
L 176.826968 -323.493084 
L 176.7775 -327.407596 
L 177.022866 -331.322108 
L 177.56422 -335.23662 
L 178.397151 -339.151132 
L 179.509574 -343.065644 
L 180.880003 -346.980156 
L 182.47663 -350.894668 
L 184.257514 -354.80918 
L 186.172035 -358.723692 
L 188.163499 -362.638204 
L 190.172645 -366.552716 
L 192.141612 -370.467228 
L 194.017874 -374.38174 
L 195.75766 -378.296252 
L 197.328458 -382.210764 
L 198.710386 -386.125276 
L 199.896319 -390.039788 
L 200.890902 -393.9543 
L 201.708647 -397.868812 
L 202.371443 -401.783324 
L 202.905802 -405.697836 
L 203.340181 -409.612348 
L 203.702631 -413.52686 
L 204.018975 -417.441372 
L 204.311599 -421.355884 
L 204.598867 -425.270396 
L 204.895098 -429.184908 
L 205.210951 -433.09942 
L 205.554053 -437.013932 
L 205.929684 -440.928444 
L 206.341333 -444.842956 
L 206.791019 -448.757468 
L 207.279313 -452.67198 
L 207.805096 -456.586492 
L 208.365158 -460.501004 
L 208.953783 -464.415516 
L 209.562507 -468.330028 
L 210.180164 -472.24454 
L 210.793334 -476.159052 
L 211.387159 -480.073564 
L 211.94648 -483.988076 
L 212.457115 -487.902588 
L 212.907121 -491.8171 
L 213.287857 -495.731612 
L 213.594702 -499.646124 
L 213.82735 -503.560636 
L 213.989668 -507.475148 
L 214.089163 -511.38966 
L 214.136164 -515.304172 
L 214.142822 -519.218684 
L 214.122084 -523.133196 
L 214.086718 -527.047708 
L 214.048501 -530.96222 
L 214.017591 -534.876732 
L 214.002116 -538.791244 
L 214.007945 -542.705756 
L 214.038641 -546.620268 
L 214.095536 -550.53478 
L 214.177917 -554.449292 
L 214.283304 -558.363804 
L 214.407787 -562.278316 
L 214.546424 -566.192828 
L 214.693682 -570.10734 
L 214.843879 -574.021852 
L 214.991618 -577.936364 
L 215.132152 -581.850876 
L 215.261671 -585.765388 
L 215.37747 -589.6799 
L 215.477997 -593.594412 
L 215.562785 -597.508924 
L 215.632301 -601.423436 
L 215.68772 -605.337948 
L 215.98728 -605.337948 
L 215.98728 -605.337948 
L 216.042699 -601.423436 
L 216.112215 -597.508924 
L 216.197003 -593.594412 
L 216.29753 -589.6799 
L 216.413329 -585.765388 
L 216.542848 -581.850876 
L 216.683382 -577.936364 
L 216.831121 -574.021852 
L 216.981318 -570.10734 
L 217.128576 -566.192828 
L 217.267213 -562.278316 
L 217.391696 -558.363804 
L 217.497083 -554.449292 
L 217.579464 -550.53478 
L 217.636359 -546.620268 
L 217.667055 -542.705756 
L 217.672884 -538.791244 
L 217.657409 -534.876732 
L 217.626499 -530.96222 
L 217.588282 -527.047708 
L 217.552916 -523.133196 
L 217.532178 -519.218684 
L 217.538836 -515.304172 
L 217.585837 -511.38966 
L 217.685332 -507.475148 
L 217.84765 -503.560636 
L 218.080298 -499.646124 
L 218.387143 -495.731612 
L 218.767879 -491.8171 
L 219.217885 -487.902588 
L 219.72852 -483.988076 
L 220.287841 -480.073564 
L 220.881666 -476.159052 
L 221.494836 -472.24454 
L 222.112493 -468.330028 
L 222.721217 -464.415516 
L 223.309842 -460.501004 
L 223.869904 -456.586492 
L 224.395687 -452.67198 
L 224.883981 -448.757468 
L 225.333667 -444.842956 
L 225.745316 -440.928444 
L 226.120947 -437.013932 
L 226.464049 -433.09942 
L 226.779902 -429.184908 
L 227.076133 -425.270396 
L 227.363401 -421.355884 
L 227.656025 -417.441372 
L 227.972369 -413.52686 
L 228.334819 -409.612348 
L 228.769198 -405.697836 
L 229.303557 -401.783324 
L 229.966353 -397.868812 
L 230.784098 -393.9543 
L 231.778681 -390.039788 
L 232.964614 -386.125276 
L 234.346542 -382.210764 
L 235.91734 -378.296252 
L 237.657126 -374.38174 
L 239.533388 -370.467228 
L 241.502355 -366.552716 
L 243.511501 -362.638204 
L 245.502965 -358.723692 
L 247.417486 -354.80918 
L 249.19837 -350.894668 
L 250.794997 -346.980156 
L 252.165426 -343.065644 
L 253.277849 -339.151132 
L 254.11078 -335.23662 
L 254.652134 -331.322108 
L 254.8975 -327.407596 
L 254.848032 -323.493084 
L 254.508441 -319.578572 
L 253.885468 -315.66406 
L 252.987141 -311.749548 
L 251.822879 -307.835036 
L 250.404364 -303.920524 
L 248.746917 -300.006012 
L 246.870999 -296.0915 
L 244.803454 -292.176988 
L 242.578144 -288.262476 
L 240.235718 -284.347964 
L 237.822468 -280.433452 
L 235.388316 -276.51894 
L 232.984185 -272.604428 
L 230.65907 -268.689916 
L 228.457169 -264.775404 
L 226.415422 -260.860892 
L 224.561735 -256.94638 
L 222.914022 -253.031868 
L 221.480139 -249.117356 
L 220.2586 -245.202844 
L 219.239933 -241.288332 
L 218.40845 -237.37382 
L 217.744205 -233.459309 
L 217.224915 -229.544797 
L 216.827682 -225.630285 
L 216.530395 -221.715773 
L 216.312756 -217.801261 
z
" style="stroke: #3d3d3d; stroke-opacity: 0.5"/>
    </defs>
    <g clip-path="url(#p66a4ee94a5)">
     <use xlink:href="#m84c5f17890" x="0" y="711.060318" style="fill: #7f7f7f; fill-opacity: 0.5; stroke: #3d3d3d; stroke-opacity: 0.5"/>
    </g>
   </g>
   <g id="PolyCollection_3">
    <defs>
     <path id="md7e9b948d4" d="M 313.659743 -495.42414 
L 313.315257 -495.42414 
L 313.259721 -496.640609 
L 313.190572 -497.857078 
L 313.105752 -499.073547 
L 313.003174 -500.290016 
L 312.880755 -501.506484 
L 312.736435 -502.722953 
L 312.56818 -503.939422 
L 312.373968 -505.155891 
L 312.151754 -506.37236 
L 311.899443 -507.588829 
L 311.614862 -508.805298 
L 311.295757 -510.021766 
L 310.939834 -511.238235 
L 310.544848 -512.454704 
L 310.10875 -513.671173 
L 309.629889 -514.887642 
L 309.107253 -516.104111 
L 308.540735 -517.320579 
L 307.931393 -518.537048 
L 307.281664 -519.753517 
L 306.595525 -520.969986 
L 305.878549 -522.186455 
L 305.137861 -523.402924 
L 304.381977 -524.619392 
L 303.620529 -525.835861 
L 302.863892 -527.05233 
L 302.122738 -528.268799 
L 301.407531 -529.485268 
L 300.728005 -530.701737 
L 300.092654 -531.918206 
L 299.508264 -533.134674 
L 298.979523 -534.351143 
L 298.508748 -535.567612 
L 298.095742 -536.784081 
L 297.737826 -538.00055 
L 297.430034 -539.217019 
L 297.165487 -540.433487 
L 296.935918 -541.649956 
L 296.732301 -542.866425 
L 296.545536 -544.082894 
L 296.367108 -545.299363 
L 296.189634 -546.515832 
L 296.007231 -547.7323 
L 295.815636 -548.948769 
L 295.612049 -550.165238 
L 295.394707 -551.381707 
L 295.16222 -552.598176 
L 294.912782 -553.814645 
L 294.643343 -555.031114 
L 294.348891 -556.247582 
L 294.021964 -557.464051 
L 293.652498 -558.68052 
L 293.228084 -559.896989 
L 292.734633 -561.113458 
L 292.157436 -562.329927 
L 291.482506 -563.546395 
L 290.698094 -564.762864 
L 289.796222 -565.979333 
L 288.774072 -567.195802 
L 287.635109 -568.412271 
L 286.38981 -569.62874 
L 285.05594 -570.845209 
L 283.658357 -572.061677 
L 282.228344 -573.278146 
L 280.802542 -574.494615 
L 279.421562 -575.711084 
L 278.128361 -576.927553 
L 276.966502 -578.144022 
L 275.978374 -579.36049 
L 275.203477 -580.576959 
L 274.67682 -581.793428 
L 274.4275 -583.009897 
L 274.477497 -584.226366 
L 274.840714 -585.442835 
L 275.522288 -586.659303 
L 276.51821 -587.875772 
L 277.815254 -589.092241 
L 279.391274 -590.30871 
L 281.215849 -591.525179 
L 283.251311 -592.741648 
L 285.454123 -593.958117 
L 287.776573 -595.174585 
L 290.168696 -596.391054 
L 292.580348 -597.607523 
L 294.963273 -598.823992 
L 297.273056 -600.040461 
L 299.470815 -601.25693 
L 301.524513 -602.473398 
L 303.409823 -603.689867 
L 305.110484 -604.906336 
L 306.61817 -606.122805 
L 307.931912 -607.339274 
L 309.057159 -608.555743 
L 310.004583 -609.772211 
L 310.788758 -610.98868 
L 311.426817 -612.205149 
L 311.937194 -613.421618 
L 312.338526 -614.638087 
L 312.648767 -615.854556 
L 314.326233 -615.854556 
L 314.326233 -615.854556 
L 314.636474 -614.638087 
L 315.037806 -613.421618 
L 315.548183 -612.205149 
L 316.186242 -610.98868 
L 316.970417 -609.772211 
L 317.917841 -608.555743 
L 319.043088 -607.339274 
L 320.35683 -606.122805 
L 321.864516 -604.906336 
L 323.565177 -603.689867 
L 325.450487 -602.473398 
L 327.504185 -601.25693 
L 329.701944 -600.040461 
L 332.011727 -598.823992 
L 334.394652 -597.607523 
L 336.806304 -596.391054 
L 339.198427 -595.174585 
L 341.520877 -593.958117 
L 343.723689 -592.741648 
L 345.759151 -591.525179 
L 347.583726 -590.30871 
L 349.159746 -589.092241 
L 350.45679 -587.875772 
L 351.452712 -586.659303 
L 352.134286 -585.442835 
L 352.497503 -584.226366 
L 352.5475 -583.009897 
L 352.29818 -581.793428 
L 351.771523 -580.576959 
L 350.996626 -579.36049 
L 350.008498 -578.144022 
L 348.846639 -576.927553 
L 347.553438 -575.711084 
L 346.172458 -574.494615 
L 344.746656 -573.278146 
L 343.316643 -572.061677 
L 341.91906 -570.845209 
L 340.58519 -569.62874 
L 339.339891 -568.412271 
L 338.200928 -567.195802 
L 337.178778 -565.979333 
L 336.276906 -564.762864 
L 335.492494 -563.546395 
L 334.817564 -562.329927 
L 334.240367 -561.113458 
L 333.746916 -559.896989 
L 333.322502 -558.68052 
L 332.953036 -557.464051 
L 332.626109 -556.247582 
L 332.331657 -555.031114 
L 332.062218 -553.814645 
L 331.81278 -552.598176 
L 331.580293 -551.381707 
L 331.362951 -550.165238 
L 331.159364 -548.948769 
L 330.967769 -547.7323 
L 330.785366 -546.515832 
L 330.607892 -545.299363 
L 330.429464 -544.082894 
L 330.242699 -542.866425 
L 330.039082 -541.649956 
L 329.809513 -540.433487 
L 329.544966 -539.217019 
L 329.237174 -538.00055 
L 328.879258 -536.784081 
L 328.466252 -535.567612 
L 327.995477 -534.351143 
L 327.466736 -533.134674 
L 326.882346 -531.918206 
L 326.246995 -530.701737 
L 325.567469 -529.485268 
L 324.852262 -528.268799 
L 324.111108 -527.05233 
L 323.354471 -525.835861 
L 322.593023 -524.619392 
L 321.837139 -523.402924 
L 321.096451 -522.186455 
L 320.379475 -520.969986 
L 319.693336 -519.753517 
L 319.043607 -518.537048 
L 318.434265 -517.320579 
L 317.867747 -516.104111 
L 317.345111 -514.887642 
L 316.86625 -513.671173 
L 316.430152 -512.454704 
L 316.035166 -511.238235 
L 315.679243 -510.021766 
L 315.360138 -508.805298 
L 315.075557 -507.588829 
L 314.823246 -506.37236 
L 314.601032 -505.155891 
L 314.40682 -503.939422 
L 314.238565 -502.722953 
L 314.094245 -501.506484 
L 313.971826 -500.290016 
L 313.869248 -499.073547 
L 313.784428 -497.857078 
L 313.715279 -496.640609 
L 313.659743 -495.42414 
z
" style="stroke: #3d3d3d; stroke-opacity: 0.5"/>
    </defs>
    <g clip-path="url(#p66a4ee94a5)">
     <use xlink:href="#md7e9b948d4" x="0" y="711.060318" style="fill: #9372b2; fill-opacity: 0.5; stroke: #3d3d3d; stroke-opacity: 0.5"/>
    </g>
   </g>
   <g id="PolyCollection_4">
    <defs>
     <path id="md7692583b8" d="M 411.238767 -358.362473 
L 411.036233 -358.362473 
L 410.985639 -361.126637 
L 410.919968 -363.890801 
L 410.839852 -366.654964 
L 410.748471 -369.419128 
L 410.651808 -372.183292 
L 410.558283 -374.947456 
L 410.477686 -377.71162 
L 410.419536 -380.475784 
L 410.39125 -383.239948 
L 410.396589 -386.004111 
L 410.434835 -388.768275 
L 410.500951 -391.532439 
L 410.586673 -394.296603 
L 410.682199 -397.060767 
L 410.778013 -399.824931 
L 410.866376 -402.589094 
L 410.942177 -405.353258 
L 411.003088 -408.117422 
L 411.049146 -410.881586 
L 411.082023 -413.64575 
L 411.104226 -416.409914 
L 411.118437 -419.174077 
L 411.127068 -421.938241 
L 411.132047 -424.702405 
L 411.134777 -427.466569 
L 411.136201 -430.230733 
L 411.136908 -432.994897 
L 411.137242 -435.75906 
L 411.137393 -438.523224 
L 411.137457 -441.287388 
L 411.137484 -444.051552 
L 411.137494 -446.815716 
L 411.137497 -449.57988 
L 411.137496 -452.344043 
L 411.137489 -455.108207 
L 411.137471 -457.872371 
L 411.137421 -460.636535 
L 411.137298 -463.400699 
L 411.137003 -466.164863 
L 411.136332 -468.929026 
L 411.134875 -471.69319 
L 411.131855 -474.457354 
L 411.125887 -477.221518 
L 411.114638 -479.985682 
L 411.094423 -482.749846 
L 411.059801 -485.51401 
L 411.003307 -488.278173 
L 410.915532 -491.042337 
L 410.785764 -493.806501 
L 410.603368 -496.570665 
L 410.359934 -499.334829 
L 410.051925 -502.098993 
L 409.68331 -504.863156 
L 409.267407 -507.62732 
L 408.827157 -510.391484 
L 408.393277 -513.155648 
L 408.000277 -515.919812 
L 407.680927 -518.683976 
L 407.46031 -521.448139 
L 407.350818 -524.212303 
L 407.349216 -526.976467 
L 407.436372 -529.740631 
L 407.579472 -532.504795 
L 407.735917 -535.268959 
L 407.857762 -538.033122 
L 407.895605 -540.797286 
L 407.801203 -543.56145 
L 407.528617 -546.325614 
L 407.034203 -549.089778 
L 406.27618 -551.853942 
L 405.214721 -554.618105 
L 403.813503 -557.382269 
L 402.04335 -560.146433 
L 399.888027 -562.910597 
L 397.351421 -565.674761 
L 394.464656 -568.438925 
L 391.291325 -571.203089 
L 387.929296 -573.967252 
L 384.508436 -576.731416 
L 381.184608 -579.49558 
L 378.131033 -582.259744 
L 375.528039 -585.023908 
L 373.551534 -587.788072 
L 372.359723 -590.552235 
L 372.0775 -593.316399 
L 372.779007 -596.080563 
L 374.470886 -598.844727 
L 377.080662 -601.608891 
L 380.455237 -604.373055 
L 384.372931 -607.137218 
L 388.56886 -609.901382 
L 392.769345 -612.665546 
L 396.727844 -615.42971 
L 400.25433 -618.193874 
L 403.232037 -620.958038 
L 405.619382 -623.722201 
L 407.438994 -626.486365 
L 408.758667 -629.250529 
L 409.670001 -632.014693 
L 412.604999 -632.014693 
L 412.604999 -632.014693 
L 413.516333 -629.250529 
L 414.836006 -626.486365 
L 416.655618 -623.722201 
L 419.042963 -620.958038 
L 422.02067 -618.193874 
L 425.547156 -615.42971 
L 429.505655 -612.665546 
L 433.70614 -609.901382 
L 437.902069 -607.137218 
L 441.819763 -604.373055 
L 445.194338 -601.608891 
L 447.804114 -598.844727 
L 449.495993 -596.080563 
L 450.1975 -593.316399 
L 449.915277 -590.552235 
L 448.723466 -587.788072 
L 446.746961 -585.023908 
L 444.143967 -582.259744 
L 441.090392 -579.49558 
L 437.766564 -576.731416 
L 434.345704 -573.967252 
L 430.983675 -571.203089 
L 427.810344 -568.438925 
L 424.923579 -565.674761 
L 422.386973 -562.910597 
L 420.23165 -560.146433 
L 418.461497 -557.382269 
L 417.060279 -554.618105 
L 415.99882 -551.853942 
L 415.240797 -549.089778 
L 414.746383 -546.325614 
L 414.473797 -543.56145 
L 414.379395 -540.797286 
L 414.417238 -538.033122 
L 414.539083 -535.268959 
L 414.695528 -532.504795 
L 414.838628 -529.740631 
L 414.925784 -526.976467 
L 414.924182 -524.212303 
L 414.81469 -521.448139 
L 414.594073 -518.683976 
L 414.274723 -515.919812 
L 413.881723 -513.155648 
L 413.447843 -510.391484 
L 413.007593 -507.62732 
L 412.59169 -504.863156 
L 412.223075 -502.098993 
L 411.915066 -499.334829 
L 411.671632 -496.570665 
L 411.489236 -493.806501 
L 411.359468 -491.042337 
L 411.271693 -488.278173 
L 411.215199 -485.51401 
L 411.180577 -482.749846 
L 411.160362 -479.985682 
L 411.149113 -477.221518 
L 411.143145 -474.457354 
L 411.140125 -471.69319 
L 411.138668 -468.929026 
L 411.137997 -466.164863 
L 411.137702 -463.400699 
L 411.137579 -460.636535 
L 411.137529 -457.872371 
L 411.137511 -455.108207 
L 411.137504 -452.344043 
L 411.137503 -449.57988 
L 411.137506 -446.815716 
L 411.137516 -444.051552 
L 411.137543 -441.287388 
L 411.137607 -438.523224 
L 411.137758 -435.75906 
L 411.138092 -432.994897 
L 411.138799 -430.230733 
L 411.140223 -427.466569 
L 411.142953 -424.702405 
L 411.147932 -421.938241 
L 411.156563 -419.174077 
L 411.170774 -416.409914 
L 411.192977 -413.64575 
L 411.225854 -410.881586 
L 411.271912 -408.117422 
L 411.332823 -405.353258 
L 411.408624 -402.589094 
L 411.496987 -399.824931 
L 411.592801 -397.060767 
L 411.688327 -394.296603 
L 411.774049 -391.532439 
L 411.840165 -388.768275 
L 411.878411 -386.004111 
L 411.88375 -383.239948 
L 411.855464 -380.475784 
L 411.797314 -377.71162 
L 411.716717 -374.947456 
L 411.623192 -372.183292 
L 411.526529 -369.419128 
L 411.435148 -366.654964 
L 411.355032 -363.890801 
L 411.289361 -361.126637 
L 411.238767 -358.362473 
z
" style="stroke: #3d3d3d; stroke-opacity: 0.5"/>
    </defs>
    <g clip-path="url(#p66a4ee94a5)">
     <use xlink:href="#md7692583b8" x="0" y="711.060318" style="fill: #845b53; fill-opacity: 0.5; stroke: #3d3d3d; stroke-opacity: 0.5"/>
    </g>
   </g>
   <g id="PolyCollection_5">
    <defs>
     <path id="m85cd6d6513" d="M 508.956979 -249.517354 
L 508.618021 -249.517354 
L 508.53281 -250.669828 
L 508.413556 -251.822303 
L 508.25004 -252.974778 
L 508.029803 -254.127253 
L 507.737767 -255.279727 
L 507.355898 -256.432202 
L 506.863123 -257.584677 
L 506.235732 -258.737152 
L 505.448552 -259.889626 
L 504.477044 -261.042101 
L 503.30033 -262.194576 
L 501.904809 -263.347051 
L 500.287753 -264.499525 
L 498.460042 -265.652 
L 496.447173 -266.804475 
L 494.287929 -267.95695 
L 492.030603 -269.109424 
L 489.727299 -270.261899 
L 487.427467 -271.414374 
L 485.172212 -272.566849 
L 482.990901 -273.719323 
L 480.901153 -274.871798 
L 478.912418 -276.024273 
L 477.032403 -277.176748 
L 475.274674 -278.329222 
L 473.665314 -279.481697 
L 472.246576 -280.634172 
L 471.076185 -281.786647 
L 470.221974 -282.939121 
L 469.752787 -284.091596 
L 469.7275 -285.244071 
L 470.184479 -286.396546 
L 471.133658 -287.54902 
L 472.552736 -288.701495 
L 474.388002 -289.85397 
L 476.55934 -291.006444 
L 478.968191 -292.158919 
L 481.506933 -293.311394 
L 484.068207 -294.463869 
L 486.553124 -295.616343 
L 488.877761 -296.768818 
L 490.977836 -297.921293 
L 492.811669 -299.073768 
L 494.361551 -300.226242 
L 495.633537 -301.378717 
L 496.65549 -302.531192 
L 497.473235 -303.683667 
L 498.144823 -304.836141 
L 498.733304 -305.988616 
L 499.298833 -307.141091 
L 499.891244 -308.293566 
L 500.544312 -309.44604 
L 501.272696 -310.598515 
L 502.072012 -311.75099 
L 502.921869 -312.903465 
L 503.791104 -314.055939 
L 504.64404 -315.208414 
L 505.446537 -316.360889 
L 506.17079 -317.513364 
L 506.798241 -318.665838 
L 507.32047 -319.818313 
L 507.738328 -320.970788 
L 508.059886 -322.123263 
L 508.297817 -323.275737 
L 508.466814 -324.428212 
L 508.581416 -325.580687 
L 508.654464 -326.733162 
L 508.696208 -327.885636 
L 508.713961 -329.038111 
L 508.712181 -330.190586 
L 508.69283 -331.343061 
L 508.655917 -332.495535 
L 508.600156 -333.64801 
L 508.523709 -334.800485 
L 508.424962 -335.95296 
L 508.303299 -337.105434 
L 508.159787 -338.257909 
L 507.997666 -339.410384 
L 507.822574 -340.562859 
L 507.642417 -341.715333 
L 507.466872 -342.867808 
L 507.306584 -344.020283 
L 507.172131 -345.172758 
L 507.072922 -346.325232 
L 507.016179 -347.477707 
L 507.006125 -348.630182 
L 507.043518 -349.782657 
L 507.125556 -350.935131 
L 507.246203 -352.087606 
L 507.396854 -353.240081 
L 507.567293 -354.392556 
L 507.746774 -355.54503 
L 507.925106 -356.697505 
L 508.093575 -357.84998 
L 508.245591 -359.002455 
L 508.376991 -360.154929 
L 508.486001 -361.307404 
L 508.572907 -362.459879 
L 508.639545 -363.612354 
L 508.935455 -363.612354 
L 508.935455 -363.612354 
L 509.002093 -362.459879 
L 509.088999 -361.307404 
L 509.198009 -360.154929 
L 509.329409 -359.002455 
L 509.481425 -357.84998 
L 509.649894 -356.697505 
L 509.828226 -355.54503 
L 510.007707 -354.392556 
L 510.178146 -353.240081 
L 510.328797 -352.087606 
L 510.449444 -350.935131 
L 510.531482 -349.782657 
L 510.568875 -348.630182 
L 510.558821 -347.477707 
L 510.502078 -346.325232 
L 510.402869 -345.172758 
L 510.268416 -344.020283 
L 510.108128 -342.867808 
L 509.932583 -341.715333 
L 509.752426 -340.562859 
L 509.577334 -339.410384 
L 509.415213 -338.257909 
L 509.271701 -337.105434 
L 509.150038 -335.95296 
L 509.051291 -334.800485 
L 508.974844 -333.64801 
L 508.919083 -332.495535 
L 508.88217 -331.343061 
L 508.862819 -330.190586 
L 508.861039 -329.038111 
L 508.878792 -327.885636 
L 508.920536 -326.733162 
L 508.993584 -325.580687 
L 509.108186 -324.428212 
L 509.277183 -323.275737 
L 509.515114 -322.123263 
L 509.836672 -320.970788 
L 510.25453 -319.818313 
L 510.776759 -318.665838 
L 511.40421 -317.513364 
L 512.128463 -316.360889 
L 512.93096 -315.208414 
L 513.783896 -314.055939 
L 514.653131 -312.903465 
L 515.502988 -311.75099 
L 516.302304 -310.598515 
L 517.030688 -309.44604 
L 517.683756 -308.293566 
L 518.276167 -307.141091 
L 518.841696 -305.988616 
L 519.430177 -304.836141 
L 520.101765 -303.683667 
L 520.91951 -302.531192 
L 521.941463 -301.378717 
L 523.213449 -300.226242 
L 524.763331 -299.073768 
L 526.597164 -297.921293 
L 528.697239 -296.768818 
L 531.021876 -295.616343 
L 533.506793 -294.463869 
L 536.068067 -293.311394 
L 538.606809 -292.158919 
L 541.01566 -291.006444 
L 543.186998 -289.85397 
L 545.022264 -288.701495 
L 546.441342 -287.54902 
L 547.390521 -286.396546 
L 547.8475 -285.244071 
L 547.822213 -284.091596 
L 547.353026 -282.939121 
L 546.498815 -281.786647 
L 545.328424 -280.634172 
L 543.909686 -279.481697 
L 542.300326 -278.329222 
L 540.542597 -277.176748 
L 538.662582 -276.024273 
L 536.673847 -274.871798 
L 534.584099 -273.719323 
L 532.402788 -272.566849 
L 530.147533 -271.414374 
L 527.847701 -270.261899 
L 525.544397 -269.109424 
L 523.287071 -267.95695 
L 521.127827 -266.804475 
L 519.114958 -265.652 
L 517.287247 -264.499525 
L 515.670191 -263.347051 
L 514.27467 -262.194576 
L 513.097956 -261.042101 
L 512.126448 -259.889626 
L 511.339268 -258.737152 
L 510.711877 -257.584677 
L 510.219102 -256.432202 
L 509.837233 -255.279727 
L 509.545197 -254.127253 
L 509.32496 -252.974778 
L 509.161444 -251.822303 
L 509.04219 -250.669828 
L 508.956979 -249.517354 
z
" style="stroke: #3d3d3d; stroke-opacity: 0.5"/>
    </defs>
    <g clip-path="url(#p66a4ee94a5)">
     <use xlink:href="#m85cd6d6513" x="0" y="711.060318" style="fill: #3274a1; fill-opacity: 0.5; stroke: #3d3d3d; stroke-opacity: 0.5"/>
    </g>
   </g>
   <g id="PolyCollection_6">
    <defs>
     <path id="mefe1edd4e5" d="M 607.408514 -174.660318 
L 605.466486 -174.660318 
L 605.146754 -179.235239 
L 604.748297 -183.810161 
L 604.260651 -188.385083 
L 603.674574 -192.960004 
L 602.982847 -197.534926 
L 602.181064 -202.109848 
L 601.268338 -206.684769 
L 600.247836 -211.259691 
L 599.127061 -215.834613 
L 597.917819 -220.409535 
L 596.635849 -224.984456 
L 595.30012 -229.559378 
L 593.93184 -234.1343 
L 592.553256 -238.709221 
L 591.18636 -243.284143 
L 589.851615 -247.859065 
L 588.56681 -252.433986 
L 587.34615 -257.008908 
L 586.199638 -261.58383 
L 585.132769 -266.158752 
L 584.146548 -270.733673 
L 583.237778 -275.308595 
L 582.399564 -279.883517 
L 581.621991 -284.458438 
L 580.892893 -289.03336 
L 580.198685 -293.608282 
L 579.525223 -298.183203 
L 578.858666 -302.758125 
L 578.186313 -307.333047 
L 577.497411 -311.907969 
L 576.783883 -316.48289 
L 576.040954 -321.057812 
L 575.2676 -325.632734 
L 574.466807 -330.207655 
L 573.645552 -334.782577 
L 572.814529 -339.357499 
L 571.98758 -343.932421 
L 571.180894 -348.507342 
L 570.412018 -353.082264 
L 569.698773 -357.657186 
L 569.058172 -362.232107 
L 568.505432 -366.807029 
L 568.053185 -371.381951 
L 567.710931 -375.956872 
L 567.484783 -380.531794 
L 567.3775 -385.106716 
L 567.388785 -389.681638 
L 567.515784 -394.256559 
L 567.753722 -398.831481 
L 568.096588 -403.406403 
L 568.537792 -407.981324 
L 569.070709 -412.556246 
L 569.689058 -417.131168 
L 570.387076 -421.706089 
L 571.159471 -426.281011 
L 572.001181 -430.855933 
L 572.906968 -435.430855 
L 573.870942 -440.005776 
L 574.886076 -444.580698 
L 575.943837 -449.15562 
L 577.033995 -453.730541 
L 578.144696 -458.305463 
L 579.262828 -462.880385 
L 580.374664 -467.455306 
L 581.466735 -472.030228 
L 582.526831 -476.60515 
L 583.545014 -481.180072 
L 584.514495 -485.754993 
L 585.432266 -490.329915 
L 586.299382 -494.904837 
L 587.120841 -499.479758 
L 587.905076 -504.05468 
L 588.663091 -508.629602 
L 589.407362 -513.204523 
L 590.15061 -517.779445 
L 590.904584 -522.354367 
L 591.678987 -526.929289 
L 592.480636 -531.50421 
L 593.312929 -536.079132 
L 594.175642 -540.654054 
L 595.065046 -545.228975 
L 595.974302 -549.803897 
L 596.894074 -554.378819 
L 597.813277 -558.95374 
L 598.71989 -563.528662 
L 599.601766 -568.103584 
L 600.447367 -572.678506 
L 601.246394 -577.253427 
L 601.990271 -581.828349 
L 602.672476 -586.403271 
L 603.288707 -590.978192 
L 603.836895 -595.553114 
L 604.317091 -600.128036 
L 604.731237 -604.702957 
L 605.082857 -609.277879 
L 605.376701 -613.852801 
L 605.61837 -618.427723 
L 605.813948 -623.002644 
L 605.969672 -627.577566 
L 606.905328 -627.577566 
L 606.905328 -627.577566 
L 607.061052 -623.002644 
L 607.25663 -618.427723 
L 607.498299 -613.852801 
L 607.792143 -609.277879 
L 608.143763 -604.702957 
L 608.557909 -600.128036 
L 609.038105 -595.553114 
L 609.586293 -590.978192 
L 610.202524 -586.403271 
L 610.884729 -581.828349 
L 611.628606 -577.253427 
L 612.427633 -572.678506 
L 613.273234 -568.103584 
L 614.15511 -563.528662 
L 615.061723 -558.95374 
L 615.980926 -554.378819 
L 616.900698 -549.803897 
L 617.809954 -545.228975 
L 618.699358 -540.654054 
L 619.562071 -536.079132 
L 620.394364 -531.50421 
L 621.196013 -526.929289 
L 621.970416 -522.354367 
L 622.72439 -517.779445 
L 623.467638 -513.204523 
L 624.211909 -508.629602 
L 624.969924 -504.05468 
L 625.754159 -499.479758 
L 626.575618 -494.904837 
L 627.442734 -490.329915 
L 628.360505 -485.754993 
L 629.329986 -481.180072 
L 630.348169 -476.60515 
L 631.408265 -472.030228 
L 632.500336 -467.455306 
L 633.612172 -462.880385 
L 634.730304 -458.305463 
L 635.841005 -453.730541 
L 636.931163 -449.15562 
L 637.988924 -444.580698 
L 639.004058 -440.005776 
L 639.968032 -435.430855 
L 640.873819 -430.855933 
L 641.715529 -426.281011 
L 642.487924 -421.706089 
L 643.185942 -417.131168 
L 643.804291 -412.556246 
L 644.337208 -407.981324 
L 644.778412 -403.406403 
L 645.121278 -398.831481 
L 645.359216 -394.256559 
L 645.486215 -389.681638 
L 645.4975 -385.106716 
L 645.390217 -380.531794 
L 645.164069 -375.956872 
L 644.821815 -371.381951 
L 644.369568 -366.807029 
L 643.816828 -362.232107 
L 643.176227 -357.657186 
L 642.462982 -353.082264 
L 641.694106 -348.507342 
L 640.88742 -343.932421 
L 640.060471 -339.357499 
L 639.229448 -334.782577 
L 638.408193 -330.207655 
L 637.6074 -325.632734 
L 636.834046 -321.057812 
L 636.091117 -316.48289 
L 635.377589 -311.907969 
L 634.688687 -307.333047 
L 634.016334 -302.758125 
L 633.349777 -298.183203 
L 632.676315 -293.608282 
L 631.982107 -289.03336 
L 631.253009 -284.458438 
L 630.475436 -279.883517 
L 629.637222 -275.308595 
L 628.728452 -270.733673 
L 627.742231 -266.158752 
L 626.675362 -261.58383 
L 625.52885 -257.008908 
L 624.30819 -252.433986 
L 623.023385 -247.859065 
L 621.68864 -243.284143 
L 620.321744 -238.709221 
L 618.94316 -234.1343 
L 617.57488 -229.559378 
L 616.239151 -224.984456 
L 614.957181 -220.409535 
L 613.747939 -215.834613 
L 612.627164 -211.259691 
L 611.606662 -206.684769 
L 610.693936 -202.109848 
L 609.892153 -197.534926 
L 609.200426 -192.960004 
L 608.614349 -188.385083 
L 608.126703 -183.810161 
L 607.728246 -179.235239 
L 607.408514 -174.660318 
z
" style="stroke: #3d3d3d; stroke-opacity: 0.5"/>
    </defs>
    <g clip-path="url(#p66a4ee94a5)">
     <use xlink:href="#mefe1edd4e5" x="0" y="711.060318" style="fill: #e1812c; fill-opacity: 0.5; stroke: #3d3d3d; stroke-opacity: 0.5"/>
    </g>
   </g>
   <g id="PolyCollection_7">
    <defs>
     <path id="mb06c6370ea" d="M 704.231842 -252.390785 
L 703.943158 -252.390785 
L 703.888377 -254.612949 
L 703.820395 -256.835113 
L 703.739076 -259.057277 
L 703.645473 -261.279441 
L 703.542017 -263.501605 
L 703.432532 -265.723768 
L 703.321996 -267.945932 
L 703.216056 -270.168096 
L 703.1203 -272.39026 
L 703.039368 -274.612424 
L 702.976054 -276.834588 
L 702.930532 -279.056751 
L 702.899883 -281.278915 
L 702.878048 -283.501079 
L 702.856266 -285.723243 
L 702.823991 -287.945407 
L 702.770188 -290.167571 
L 702.684834 -292.389734 
L 702.560391 -294.611898 
L 702.39301 -296.834062 
L 702.183229 -299.056226 
L 701.936009 -301.27839 
L 701.660019 -303.500554 
L 701.366246 -305.722717 
L 701.066118 -307.944881 
L 700.769447 -310.167045 
L 700.482593 -312.389209 
L 700.207229 -314.611373 
L 699.940013 -316.833537 
L 699.673305 -319.0557 
L 699.396841 -321.277864 
L 699.100046 -323.500028 
L 698.774481 -325.722192 
L 698.415864 -327.944356 
L 698.025118 -330.16652 
L 697.608145 -332.388684 
L 697.174263 -334.610847 
L 696.733578 -336.833011 
L 696.29382 -339.055175 
L 695.857305 -341.277339 
L 695.418657 -343.499503 
L 694.96378 -345.721667 
L 694.470269 -347.94383 
L 693.909199 -350.165994 
L 693.247931 -352.388158 
L 692.453498 -354.610322 
L 691.496054 -356.832486 
L 690.351989 -359.05465 
L 689.006438 -361.276813 
L 687.455059 -363.498977 
L 685.705082 -365.721141 
L 683.775691 -367.943305 
L 681.697826 -370.165469 
L 679.513465 -372.387633 
L 677.274438 -374.609796 
L 675.040741 -376.83196 
L 672.878334 -379.054124 
L 670.856387 -381.276288 
L 669.043941 -383.498452 
L 667.506056 -385.720616 
L 666.299585 -387.942779 
L 665.468898 -390.164943 
L 665.041985 -392.387107 
L 665.0275 -394.609271 
L 665.413319 -396.831435 
L 666.167055 -399.053599 
L 667.23876 -401.275762 
L 668.565663 -403.497926 
L 670.078449 -405.72009 
L 671.708209 -407.942254 
L 673.393052 -410.164418 
L 675.083359 -412.386582 
L 676.744891 -414.608745 
L 678.359376 -416.830909 
L 679.922672 -419.053073 
L 681.441055 -421.275237 
L 682.926506 -423.497401 
L 684.391968 -425.719565 
L 685.84745 -427.941729 
L 687.297547 -430.163892 
L 688.740582 -432.386056 
L 690.169184 -434.60822 
L 691.571863 -436.830384 
L 692.935009 -439.052548 
L 694.244794 -441.274712 
L 695.488621 -443.496875 
L 696.655957 -445.719039 
L 697.738628 -447.941203 
L 698.730732 -450.163367 
L 699.628409 -452.385531 
L 700.429636 -454.607695 
L 701.134138 -456.829858 
L 701.743418 -459.052022 
L 702.260817 -461.274186 
L 702.691523 -463.49635 
L 703.042433 -465.718514 
L 703.321853 -467.940678 
L 703.53904 -470.162841 
L 703.703658 -472.385005 
L 704.471342 -472.385005 
L 704.471342 -472.385005 
L 704.63596 -470.162841 
L 704.853147 -467.940678 
L 705.132567 -465.718514 
L 705.483477 -463.49635 
L 705.914183 -461.274186 
L 706.431582 -459.052022 
L 707.040862 -456.829858 
L 707.745364 -454.607695 
L 708.546591 -452.385531 
L 709.444268 -450.163367 
L 710.436372 -447.941203 
L 711.519043 -445.719039 
L 712.686379 -443.496875 
L 713.930206 -441.274712 
L 715.239991 -439.052548 
L 716.603137 -436.830384 
L 718.005816 -434.60822 
L 719.434418 -432.386056 
L 720.877453 -430.163892 
L 722.32755 -427.941729 
L 723.783032 -425.719565 
L 725.248494 -423.497401 
L 726.733945 -421.275237 
L 728.252328 -419.053073 
L 729.815624 -416.830909 
L 731.430109 -414.608745 
L 733.091641 -412.386582 
L 734.781948 -410.164418 
L 736.466791 -407.942254 
L 738.096551 -405.72009 
L 739.609337 -403.497926 
L 740.93624 -401.275762 
L 742.007945 -399.053599 
L 742.761681 -396.831435 
L 743.1475 -394.609271 
L 743.133015 -392.387107 
L 742.706102 -390.164943 
L 741.875415 -387.942779 
L 740.668944 -385.720616 
L 739.131059 -383.498452 
L 737.318613 -381.276288 
L 735.296666 -379.054124 
L 733.134259 -376.83196 
L 730.900562 -374.609796 
L 728.661535 -372.387633 
L 726.477174 -370.165469 
L 724.399309 -367.943305 
L 722.469918 -365.721141 
L 720.719941 -363.498977 
L 719.168562 -361.276813 
L 717.823011 -359.05465 
L 716.678946 -356.832486 
L 715.721502 -354.610322 
L 714.927069 -352.388158 
L 714.265801 -350.165994 
L 713.704731 -347.94383 
L 713.21122 -345.721667 
L 712.756343 -343.499503 
L 712.317695 -341.277339 
L 711.88118 -339.055175 
L 711.441422 -336.833011 
L 711.000737 -334.610847 
L 710.566855 -332.388684 
L 710.149882 -330.16652 
L 709.759136 -327.944356 
L 709.400519 -325.722192 
L 709.074954 -323.500028 
L 708.778159 -321.277864 
L 708.501695 -319.0557 
L 708.234987 -316.833537 
L 707.967771 -314.611373 
L 707.692407 -312.389209 
L 707.405553 -310.167045 
L 707.108882 -307.944881 
L 706.808754 -305.722717 
L 706.514981 -303.500554 
L 706.238991 -301.27839 
L 705.991771 -299.056226 
L 705.78199 -296.834062 
L 705.614609 -294.611898 
L 705.490166 -292.389734 
L 705.404812 -290.167571 
L 705.351009 -287.945407 
L 705.318734 -285.723243 
L 705.296952 -283.501079 
L 705.275117 -281.278915 
L 705.244468 -279.056751 
L 705.198946 -276.834588 
L 705.135632 -274.612424 
L 705.0547 -272.39026 
L 704.958944 -270.168096 
L 704.853004 -267.945932 
L 704.742468 -265.723768 
L 704.632983 -263.501605 
L 704.529527 -261.279441 
L 704.435924 -259.057277 
L 704.354605 -256.835113 
L 704.286623 -254.612949 
L 704.231842 -252.390785 
z
" style="stroke: #3d3d3d; stroke-opacity: 0.5"/>
    </defs>
    <g clip-path="url(#p66a4ee94a5)">
     <use xlink:href="#mb06c6370ea" x="0" y="711.060318" style="fill: #3a923a; fill-opacity: 0.5; stroke: #3d3d3d; stroke-opacity: 0.5"/>
    </g>
   </g>
   <g id="PolyCollection_8">
    <defs>
     <path id="m05f4383507" d="M 801.939505 -176.271478 
L 801.535495 -176.271478 
L 801.4679 -181.346113 
L 801.384336 -186.420748 
L 801.283412 -191.495382 
L 801.164412 -196.570017 
L 801.027548 -201.644652 
L 800.874174 -206.719287 
L 800.706943 -211.793921 
L 800.529858 -216.868556 
L 800.348199 -221.943191 
L 800.168304 -227.017826 
L 799.997198 -232.09246 
L 799.842105 -237.167095 
L 799.709855 -242.24173 
L 799.606266 -247.316364 
L 799.535551 -252.390999 
L 799.499816 -257.465634 
L 799.498723 -262.540269 
L 799.529344 -267.614903 
L 799.586243 -272.689538 
L 799.661784 -277.764173 
L 799.746642 -282.838808 
L 799.830466 -287.913442 
L 799.902648 -292.988077 
L 799.953123 -298.062712 
L 799.973134 -303.137347 
L 799.955898 -308.211981 
L 799.897122 -313.286616 
L 799.795316 -318.361251 
L 799.651882 -323.435886 
L 799.470966 -328.51052 
L 799.259072 -333.585155 
L 799.024483 -338.65979 
L 798.776517 -343.734425 
L 798.524706 -348.809059 
L 798.277962 -353.883694 
L 798.043835 -358.958329 
L 797.827926 -364.032964 
L 797.633543 -369.107598 
L 797.461621 -374.182233 
L 797.310915 -379.256868 
L 797.178448 -384.331503 
L 797.060118 -389.406137 
L 796.951403 -394.480772 
L 796.848042 -399.555407 
L 796.746586 -404.630041 
L 796.644755 -409.704676 
L 796.541533 -414.779311 
L 796.436992 -419.853946 
L 796.331869 -424.92858 
L 796.226968 -430.003215 
L 796.122454 -435.07785 
L 796.017153 -440.152485 
L 795.907954 -445.227119 
L 795.789386 -450.301754 
L 795.653425 -455.376389 
L 795.489561 -460.451024 
L 795.285084 -465.525658 
L 795.025552 -470.600293 
L 794.695366 -475.674928 
L 794.278359 -480.749563 
L 793.758332 -485.824197 
L 793.119494 -490.898832 
L 792.346793 -495.973467 
L 791.426191 -501.048102 
L 790.344982 -506.122736 
L 789.092272 -511.197371 
L 787.659753 -516.272006 
L 786.042899 -521.346641 
L 784.242597 -526.421275 
L 782.267174 -531.49591 
L 780.134634 -536.570545 
L 777.874807 -541.64518 
L 775.531021 -546.719814 
L 773.160864 -551.794449 
L 770.835634 -556.869084 
L 768.638192 -561.943718 
L 766.659115 -567.018353 
L 764.991281 -572.092988 
L 763.7233 -577.167623 
L 762.932389 -582.242257 
L 762.6775 -587.316892 
L 762.993513 -592.391527 
L 763.887252 -597.466162 
L 765.335887 -602.540796 
L 767.287987 -607.615431 
L 769.667158 -612.690066 
L 772.37785 -617.764701 
L 775.312695 -622.839335 
L 778.360497 -627.91397 
L 781.414037 -632.988605 
L 784.376874 -638.06324 
L 787.168546 -643.137874 
L 789.727824 -648.212509 
L 792.013933 -653.287144 
L 794.005913 -658.361779 
L 795.700478 -663.436413 
L 797.108849 -668.511048 
L 798.253053 -673.585683 
L 799.162161 -678.660318 
L 804.312839 -678.660318 
L 804.312839 -678.660318 
L 805.221947 -673.585683 
L 806.366151 -668.511048 
L 807.774522 -663.436413 
L 809.469087 -658.361779 
L 811.461067 -653.287144 
L 813.747176 -648.212509 
L 816.306454 -643.137874 
L 819.098126 -638.06324 
L 822.060963 -632.988605 
L 825.114503 -627.91397 
L 828.162305 -622.839335 
L 831.09715 -617.764701 
L 833.807842 -612.690066 
L 836.187013 -607.615431 
L 838.139113 -602.540796 
L 839.587748 -597.466162 
L 840.481487 -592.391527 
L 840.7975 -587.316892 
L 840.542611 -582.242257 
L 839.7517 -577.167623 
L 838.483719 -572.092988 
L 836.815885 -567.018353 
L 834.836808 -561.943718 
L 832.639366 -556.869084 
L 830.314136 -551.794449 
L 827.943979 -546.719814 
L 825.600193 -541.64518 
L 823.340366 -536.570545 
L 821.207826 -531.49591 
L 819.232403 -526.421275 
L 817.432101 -521.346641 
L 815.815247 -516.272006 
L 814.382728 -511.197371 
L 813.130018 -506.122736 
L 812.048809 -501.048102 
L 811.128207 -495.973467 
L 810.355506 -490.898832 
L 809.716668 -485.824197 
L 809.196641 -480.749563 
L 808.779634 -475.674928 
L 808.449448 -470.600293 
L 808.189916 -465.525658 
L 807.985439 -460.451024 
L 807.821575 -455.376389 
L 807.685614 -450.301754 
L 807.567046 -445.227119 
L 807.457847 -440.152485 
L 807.352546 -435.07785 
L 807.248032 -430.003215 
L 807.143131 -424.92858 
L 807.038008 -419.853946 
L 806.933467 -414.779311 
L 806.830245 -409.704676 
L 806.728414 -404.630041 
L 806.626958 -399.555407 
L 806.523597 -394.480772 
L 806.414882 -389.406137 
L 806.296552 -384.331503 
L 806.164085 -379.256868 
L 806.013379 -374.182233 
L 805.841457 -369.107598 
L 805.647074 -364.032964 
L 805.431165 -358.958329 
L 805.197038 -353.883694 
L 804.950294 -348.809059 
L 804.698483 -343.734425 
L 804.450517 -338.65979 
L 804.215928 -333.585155 
L 804.004034 -328.51052 
L 803.823118 -323.435886 
L 803.679684 -318.361251 
L 803.577878 -313.286616 
L 803.519102 -308.211981 
L 803.501866 -303.137347 
L 803.521877 -298.062712 
L 803.572352 -292.988077 
L 803.644534 -287.913442 
L 803.728358 -282.838808 
L 803.813216 -277.764173 
L 803.888757 -272.689538 
L 803.945656 -267.614903 
L 803.976277 -262.540269 
L 803.975184 -257.465634 
L 803.939449 -252.390999 
L 803.868734 -247.316364 
L 803.765145 -242.24173 
L 803.632895 -237.167095 
L 803.477802 -232.09246 
L 803.306696 -227.017826 
L 803.126801 -221.943191 
L 802.945142 -216.868556 
L 802.768057 -211.793921 
L 802.600826 -206.719287 
L 802.447452 -201.644652 
L 802.310588 -196.570017 
L 802.191588 -191.495382 
L 802.090664 -186.420748 
L 802.0071 -181.346113 
L 801.939505 -176.271478 
z
" style="stroke: #3d3d3d; stroke-opacity: 0.5"/>
    </defs>
    <g clip-path="url(#p66a4ee94a5)">
     <use xlink:href="#m05f4383507" x="0" y="711.060318" style="fill: #c03d3e; fill-opacity: 0.5; stroke: #3d3d3d; stroke-opacity: 0.5"/>
    </g>
   </g>
   <g id="line2d_8">
    <path d="M 118.1875 262.927422 
L 118.1875 104.149854 
" clip-path="url(#p66a4ee94a5)" style="fill: none; stroke: #3d3d3d; stroke-width: 1.5; stroke-linecap: round"/>
   </g>
   <g id="line2d_9">
    <path d="M 118.1875 175.888374 
L 118.1875 114.99583 
" clip-path="url(#p66a4ee94a5)" style="fill: none; stroke: #3d3d3d; stroke-width: 4.5; stroke-linecap: round"/>
   </g>
   <g id="line2d_10">
    <path d="M 118.1875 132.722085 
" clip-path="url(#p66a4ee94a5)" style="fill: none; stroke: #3d3d3d; stroke-width: 1.5; stroke-linecap: round"/>
    <defs>
     <path id="mede2e3dd5c" d="M 1.875 0 
L -1.875 -0 
" style="stroke: #ffffff; stroke-width: 0.9"/>
    </defs>
    <g clip-path="url(#p66a4ee94a5)">
     <use xlink:href="#mede2e3dd5c" x="118.1875" y="132.722085" style="fill: #ffffff; stroke: #ffffff; stroke-width: 0.9"/>
    </g>
   </g>
   <g id="line2d_11">
    <path d="M 215.8375 443.728611 
L 215.8375 249.00053 
" clip-path="url(#p66a4ee94a5)" style="fill: none; stroke: #3d3d3d; stroke-width: 1.5; stroke-linecap: round"/>
   </g>
   <g id="line2d_12">
    <path d="M 215.8375 402.473193 
L 215.8375 338.614112 
" clip-path="url(#p66a4ee94a5)" style="fill: none; stroke: #3d3d3d; stroke-width: 4.5; stroke-linecap: round"/>
   </g>
   <g id="line2d_13">
    <path d="M 215.8375 372.779392 
" clip-path="url(#p66a4ee94a5)" style="fill: none; stroke: #3d3d3d; stroke-width: 1.5; stroke-linecap: round"/>
    <g clip-path="url(#p66a4ee94a5)">
     <use xlink:href="#mede2e3dd5c" x="215.8375" y="372.779392" style="fill: #ffffff; stroke: #ffffff; stroke-width: 0.9"/>
    </g>
   </g>
   <g id="line2d_14">
    <path d="M 313.4875 197.396345 
L 313.4875 113.445595 
" clip-path="url(#p66a4ee94a5)" style="fill: none; stroke: #3d3d3d; stroke-width: 1.5; stroke-linecap: round"/>
   </g>
   <g id="line2d_15">
    <path d="M 313.4875 157.852037 
L 313.4875 125.364438 
" clip-path="url(#p66a4ee94a5)" style="fill: none; stroke: #3d3d3d; stroke-width: 4.5; stroke-linecap: round"/>
   </g>
   <g id="line2d_16">
    <path d="M 313.4875 135.143266 
" clip-path="url(#p66a4ee94a5)" style="fill: none; stroke: #3d3d3d; stroke-width: 1.5; stroke-linecap: round"/>
    <g clip-path="url(#p66a4ee94a5)">
     <use xlink:href="#mede2e3dd5c" x="313.4875" y="135.143266" style="fill: #ffffff; stroke: #ffffff; stroke-width: 0.9"/>
    </g>
   </g>
   <g id="line2d_17">
    <path d="M 411.1375 151.233589 
L 411.1375 104.872065 
" clip-path="url(#p66a4ee94a5)" style="fill: none; stroke: #3d3d3d; stroke-width: 1.5; stroke-linecap: round"/>
   </g>
   <g id="line2d_18">
    <path d="M 411.1375 132.150075 
L 411.1375 111.342977 
" clip-path="url(#p66a4ee94a5)" style="fill: none; stroke: #3d3d3d; stroke-width: 4.5; stroke-linecap: round"/>
   </g>
   <g id="line2d_19">
    <path d="M 411.1375 121.310601 
" clip-path="url(#p66a4ee94a5)" style="fill: none; stroke: #3d3d3d; stroke-width: 1.5; stroke-linecap: round"/>
    <g clip-path="url(#p66a4ee94a5)">
     <use xlink:href="#mede2e3dd5c" x="411.1375" y="121.310601" style="fill: #ffffff; stroke: #ffffff; stroke-width: 0.9"/>
    </g>
   </g>
   <g id="line2d_20">
    <path d="M 508.7875 449.167084 
L 508.7875 401.72033 
" clip-path="url(#p66a4ee94a5)" style="fill: none; stroke: #3d3d3d; stroke-width: 1.5; stroke-linecap: round"/>
   </g>
   <g id="line2d_21">
    <path d="M 508.7875 433.11849 
L 508.7875 420.083143 
" clip-path="url(#p66a4ee94a5)" style="fill: none; stroke: #3d3d3d; stroke-width: 4.5; stroke-linecap: round"/>
   </g>
   <g id="line2d_22">
    <path d="M 508.7875 426.268196 
" clip-path="url(#p66a4ee94a5)" style="fill: none; stroke: #3d3d3d; stroke-width: 1.5; stroke-linecap: round"/>
    <g clip-path="url(#p66a4ee94a5)">
     <use xlink:href="#mede2e3dd5c" x="508.7875" y="426.268196" style="fill: #ffffff; stroke: #ffffff; stroke-width: 0.9"/>
    </g>
   </g>
   <g id="line2d_23">
    <path d="M 606.4375 466.902334 
L 606.4375 152.980418 
" clip-path="url(#p66a4ee94a5)" style="fill: none; stroke: #3d3d3d; stroke-width: 1.5; stroke-linecap: round"/>
   </g>
   <g id="line2d_24">
    <path d="M 606.4375 386.295841 
L 606.4375 265.509949 
" clip-path="url(#p66a4ee94a5)" style="fill: none; stroke: #3d3d3d; stroke-width: 4.5; stroke-linecap: round"/>
   </g>
   <g id="line2d_25">
    <path d="M 606.4375 330.048454 
" clip-path="url(#p66a4ee94a5)" style="fill: none; stroke: #3d3d3d; stroke-width: 1.5; stroke-linecap: round"/>
    <g clip-path="url(#p66a4ee94a5)">
     <use xlink:href="#mede2e3dd5c" x="606.4375" y="330.048454" style="fill: #ffffff; stroke: #ffffff; stroke-width: 0.9"/>
    </g>
   </g>
   <g id="line2d_26">
    <path d="M 704.0875 370.97654 
L 704.0875 265.164426 
" clip-path="url(#p66a4ee94a5)" style="fill: none; stroke: #3d3d3d; stroke-width: 1.5; stroke-linecap: round"/>
   </g>
   <g id="line2d_27">
    <path d="M 704.0875 334.351583 
L 704.0875 302.925069 
" clip-path="url(#p66a4ee94a5)" style="fill: none; stroke: #3d3d3d; stroke-width: 4.5; stroke-linecap: round"/>
   </g>
   <g id="line2d_28">
    <path d="M 704.0875 317.213886 
" clip-path="url(#p66a4ee94a5)" style="fill: none; stroke: #3d3d3d; stroke-width: 1.5; stroke-linecap: round"/>
    <g clip-path="url(#p66a4ee94a5)">
     <use xlink:href="#mede2e3dd5c" x="704.0875" y="317.213886" style="fill: #ffffff; stroke: #ffffff; stroke-width: 0.9"/>
    </g>
   </g>
   <g id="line2d_29">
    <path d="M 801.7375 284.930652 
L 801.7375 105.4781 
" clip-path="url(#p66a4ee94a5)" style="fill: none; stroke: #3d3d3d; stroke-width: 1.5; stroke-linecap: round"/>
   </g>
   <g id="line2d_30">
    <path d="M 801.7375 184.143756 
L 801.7375 114.442787 
" clip-path="url(#p66a4ee94a5)" style="fill: none; stroke: #3d3d3d; stroke-width: 4.5; stroke-linecap: round"/>
   </g>
   <g id="line2d_31">
    <path d="M 801.7375 126.616764 
" clip-path="url(#p66a4ee94a5)" style="fill: none; stroke: #3d3d3d; stroke-width: 1.5; stroke-linecap: round"/>
    <g clip-path="url(#p66a4ee94a5)">
     <use xlink:href="#mede2e3dd5c" x="801.7375" y="126.616764" style="fill: #ffffff; stroke: #ffffff; stroke-width: 0.9"/>
    </g>
   </g>
   <g id="patch_3">
    <path d="M 69.3625 561.6 
L 850.5625 561.6 
" style="fill: none; stroke: #cccccc; stroke-width: 0.8; stroke-linejoin: miter; stroke-linecap: square"/>
   </g>
  </g>
 </g>
 <defs>
  <clipPath id="p66a4ee94a5">
   <rect x="69.3625" y="7.2" width="781.2" height="554.4"/>
  </clipPath>
 </defs>
</svg>
