<?xml version="1.0" encoding="utf-8" standalone="no"?>
<!DOCTYPE svg PUBLIC "-//W3C//DTD SVG 1.1//EN"
  "http://www.w3.org/Graphics/SVG/1.1/DTD/svg11.dtd">
<svg xmlns:xlink="http://www.w3.org/1999/xlink" width="857.7625pt" height="711.060318pt" viewBox="0 0 857.7625 711.060318" xmlns="http://www.w3.org/2000/svg" version="1.1">
 <metadata>
  <rdf:RDF xmlns:dc="http://purl.org/dc/elements/1.1/" xmlns:cc="http://creativecommons.org/ns#" xmlns:rdf="http://www.w3.org/1999/02/22-rdf-syntax-ns#">
   <cc:Work>
    <dc:type rdf:resource="http://purl.org/dc/dcmitype/StillImage"/>
    <dc:date>2024-06-19T17:04:36.580633</dc:date>
    <dc:format>image/svg+xml</dc:format>
    <dc:creator>
     <cc:Agent>
      <dc:title>Matplotlib v3.8.0, https://matplotlib.org/</dc:title>
     </cc:Agent>
    </dc:creator>
   </cc:Work>
  </rdf:RDF>
 </metadata>
 <defs>
  <style type="text/css">*{stroke-linejoin: round; stroke-linecap: butt}</style>
 </defs>
 <g id="figure_1">
  <g id="patch_1">
   <path d="M 0 711.060318 
L 857.7625 711.060318 
L 857.7625 0 
L 0 0 
L 0 711.060318 
z
" style="fill: none"/>
  </g>
  <g id="axes_1">
   <g id="patch_2">
    <path d="M 69.3625 561.6 
L 850.5625 561.6 
L 850.5625 7.2 
L 69.3625 7.2 
L 69.3625 561.6 
z
" style="fill: none"/>
   </g>
   <g id="matplotlib.axis_1">
    <g id="xtick_1">
     <g id="text_1">
      <!-- MSA -->
      <g style="fill: #262626" transform="translate(97.813986 610.465141) rotate(-45) scale(0.2 -0.2)">
       <defs>
        <path id="DejaVuSans-4d" d="M 628 4666 
L 1569 4666 
L 2759 1491 
L 3956 4666 
L 4897 4666 
L 4897 0 
L 4281 0 
L 4281 4097 
L 3078 897 
L 2444 897 
L 1241 4097 
L 1241 0 
L 628 0 
L 628 4666 
z
" transform="scale(0.015625)"/>
        <path id="DejaVuSans-53" d="M 3425 4513 
L 3425 3897 
Q 3066 4069 2747 4153 
Q 2428 4238 2131 4238 
Q 1616 4238 1336 4038 
Q 1056 3838 1056 3469 
Q 1056 3159 1242 3001 
Q 1428 2844 1947 2747 
L 2328 2669 
Q 3034 2534 3370 2195 
Q 3706 1856 3706 1288 
Q 3706 609 3251 259 
Q 2797 -91 1919 -91 
Q 1588 -91 1214 -16 
Q 841 59 441 206 
L 441 856 
Q 825 641 1194 531 
Q 1563 422 1919 422 
Q 2459 422 2753 634 
Q 3047 847 3047 1241 
Q 3047 1584 2836 1778 
Q 2625 1972 2144 2069 
L 1759 2144 
Q 1053 2284 737 2584 
Q 422 2884 422 3419 
Q 422 4038 858 4394 
Q 1294 4750 2059 4750 
Q 2388 4750 2728 4690 
Q 3069 4631 3425 4513 
z
" transform="scale(0.015625)"/>
        <path id="DejaVuSans-41" d="M 2188 4044 
L 1331 1722 
L 3047 1722 
L 2188 4044 
z
M 1831 4666 
L 2547 4666 
L 4325 0 
L 3669 0 
L 3244 1197 
L 1141 1197 
L 716 0 
L 50 0 
L 1831 4666 
z
" transform="scale(0.015625)"/>
       </defs>
       <use xlink:href="#DejaVuSans-4d"/>
       <use xlink:href="#DejaVuSans-53" x="86.279297"/>
       <use xlink:href="#DejaVuSans-41" x="151.630859"/>
      </g>
     </g>
    </g>
    <g id="xtick_2">
     <g id="text_2">
      <!-- Single -->
      <g style="fill: #262626" transform="translate(183.105085 622.824042) rotate(-45) scale(0.2 -0.2)">
       <defs>
        <path id="DejaVuSans-69" d="M 603 3500 
L 1178 3500 
L 1178 0 
L 603 0 
L 603 3500 
z
M 603 4863 
L 1178 4863 
L 1178 4134 
L 603 4134 
L 603 4863 
z
" transform="scale(0.015625)"/>
        <path id="DejaVuSans-6e" d="M 3513 2113 
L 3513 0 
L 2938 0 
L 2938 2094 
Q 2938 2591 2744 2837 
Q 2550 3084 2163 3084 
Q 1697 3084 1428 2787 
Q 1159 2491 1159 1978 
L 1159 0 
L 581 0 
L 581 3500 
L 1159 3500 
L 1159 2956 
Q 1366 3272 1645 3428 
Q 1925 3584 2291 3584 
Q 2894 3584 3203 3211 
Q 3513 2838 3513 2113 
z
" transform="scale(0.015625)"/>
        <path id="DejaVuSans-67" d="M 2906 1791 
Q 2906 2416 2648 2759 
Q 2391 3103 1925 3103 
Q 1463 3103 1205 2759 
Q 947 2416 947 1791 
Q 947 1169 1205 825 
Q 1463 481 1925 481 
Q 2391 481 2648 825 
Q 2906 1169 2906 1791 
z
M 3481 434 
Q 3481 -459 3084 -895 
Q 2688 -1331 1869 -1331 
Q 1566 -1331 1297 -1286 
Q 1028 -1241 775 -1147 
L 775 -588 
Q 1028 -725 1275 -790 
Q 1522 -856 1778 -856 
Q 2344 -856 2625 -561 
Q 2906 -266 2906 331 
L 2906 616 
Q 2728 306 2450 153 
Q 2172 0 1784 0 
Q 1141 0 747 490 
Q 353 981 353 1791 
Q 353 2603 747 3093 
Q 1141 3584 1784 3584 
Q 2172 3584 2450 3431 
Q 2728 3278 2906 2969 
L 2906 3500 
L 3481 3500 
L 3481 434 
z
" transform="scale(0.015625)"/>
        <path id="DejaVuSans-6c" d="M 603 4863 
L 1178 4863 
L 1178 0 
L 603 0 
L 603 4863 
z
" transform="scale(0.015625)"/>
        <path id="DejaVuSans-65" d="M 3597 1894 
L 3597 1613 
L 953 1613 
Q 991 1019 1311 708 
Q 1631 397 2203 397 
Q 2534 397 2845 478 
Q 3156 559 3463 722 
L 3463 178 
Q 3153 47 2828 -22 
Q 2503 -91 2169 -91 
Q 1331 -91 842 396 
Q 353 884 353 1716 
Q 353 2575 817 3079 
Q 1281 3584 2069 3584 
Q 2775 3584 3186 3129 
Q 3597 2675 3597 1894 
z
M 3022 2063 
Q 3016 2534 2758 2815 
Q 2500 3097 2075 3097 
Q 1594 3097 1305 2825 
Q 1016 2553 972 2059 
L 3022 2063 
z
" transform="scale(0.015625)"/>
       </defs>
       <use xlink:href="#DejaVuSans-53"/>
       <use xlink:href="#DejaVuSans-69" x="63.476562"/>
       <use xlink:href="#DejaVuSans-6e" x="91.259766"/>
       <use xlink:href="#DejaVuSans-67" x="154.638672"/>
       <use xlink:href="#DejaVuSans-6c" x="218.115234"/>
       <use xlink:href="#DejaVuSans-65" x="245.898438"/>
      </g>
     </g>
    </g>
    <g id="xtick_3">
     <g id="text_3">
      <!-- Gaussian -->
      <g style="fill: #262626" transform="translate(259.354056 644.22507) rotate(-45) scale(0.2 -0.2)">
       <defs>
        <path id="DejaVuSans-47" d="M 3809 666 
L 3809 1919 
L 2778 1919 
L 2778 2438 
L 4434 2438 
L 4434 434 
Q 4069 175 3628 42 
Q 3188 -91 2688 -91 
Q 1594 -91 976 548 
Q 359 1188 359 2328 
Q 359 3472 976 4111 
Q 1594 4750 2688 4750 
Q 3144 4750 3555 4637 
Q 3966 4525 4313 4306 
L 4313 3634 
Q 3963 3931 3569 4081 
Q 3175 4231 2741 4231 
Q 1884 4231 1454 3753 
Q 1025 3275 1025 2328 
Q 1025 1384 1454 906 
Q 1884 428 2741 428 
Q 3075 428 3337 486 
Q 3600 544 3809 666 
z
" transform="scale(0.015625)"/>
        <path id="DejaVuSans-61" d="M 2194 1759 
Q 1497 1759 1228 1600 
Q 959 1441 959 1056 
Q 959 750 1161 570 
Q 1363 391 1709 391 
Q 2188 391 2477 730 
Q 2766 1069 2766 1631 
L 2766 1759 
L 2194 1759 
z
M 3341 1997 
L 3341 0 
L 2766 0 
L 2766 531 
Q 2569 213 2275 61 
Q 1981 -91 1556 -91 
Q 1019 -91 701 211 
Q 384 513 384 1019 
Q 384 1609 779 1909 
Q 1175 2209 1959 2209 
L 2766 2209 
L 2766 2266 
Q 2766 2663 2505 2880 
Q 2244 3097 1772 3097 
Q 1472 3097 1187 3025 
Q 903 2953 641 2809 
L 641 3341 
Q 956 3463 1253 3523 
Q 1550 3584 1831 3584 
Q 2591 3584 2966 3190 
Q 3341 2797 3341 1997 
z
" transform="scale(0.015625)"/>
        <path id="DejaVuSans-75" d="M 544 1381 
L 544 3500 
L 1119 3500 
L 1119 1403 
Q 1119 906 1312 657 
Q 1506 409 1894 409 
Q 2359 409 2629 706 
Q 2900 1003 2900 1516 
L 2900 3500 
L 3475 3500 
L 3475 0 
L 2900 0 
L 2900 538 
Q 2691 219 2414 64 
Q 2138 -91 1772 -91 
Q 1169 -91 856 284 
Q 544 659 544 1381 
z
M 1991 3584 
L 1991 3584 
z
" transform="scale(0.015625)"/>
        <path id="DejaVuSans-73" d="M 2834 3397 
L 2834 2853 
Q 2591 2978 2328 3040 
Q 2066 3103 1784 3103 
Q 1356 3103 1142 2972 
Q 928 2841 928 2578 
Q 928 2378 1081 2264 
Q 1234 2150 1697 2047 
L 1894 2003 
Q 2506 1872 2764 1633 
Q 3022 1394 3022 966 
Q 3022 478 2636 193 
Q 2250 -91 1575 -91 
Q 1294 -91 989 -36 
Q 684 19 347 128 
L 347 722 
Q 666 556 975 473 
Q 1284 391 1588 391 
Q 1994 391 2212 530 
Q 2431 669 2431 922 
Q 2431 1156 2273 1281 
Q 2116 1406 1581 1522 
L 1381 1569 
Q 847 1681 609 1914 
Q 372 2147 372 2553 
Q 372 3047 722 3315 
Q 1072 3584 1716 3584 
Q 2034 3584 2315 3537 
Q 2597 3491 2834 3397 
z
" transform="scale(0.015625)"/>
       </defs>
       <use xlink:href="#DejaVuSans-47"/>
       <use xlink:href="#DejaVuSans-61" x="77.490234"/>
       <use xlink:href="#DejaVuSans-75" x="138.769531"/>
       <use xlink:href="#DejaVuSans-73" x="202.148438"/>
       <use xlink:href="#DejaVuSans-73" x="254.248047"/>
       <use xlink:href="#DejaVuSans-69" x="306.347656"/>
       <use xlink:href="#DejaVuSans-61" x="334.130859"/>
       <use xlink:href="#DejaVuSans-6e" x="395.410156"/>
      </g>
     </g>
    </g>
    <g id="xtick_4">
     <g id="text_4">
      <!-- Gaussian (AF) -->
      <g style="fill: #262626" transform="translate(323.666181 677.562945) rotate(-45) scale(0.2 -0.2)">
       <defs>
        <path id="DejaVuSans-20" transform="scale(0.015625)"/>
        <path id="DejaVuSans-28" d="M 1984 4856 
Q 1566 4138 1362 3434 
Q 1159 2731 1159 2009 
Q 1159 1288 1364 580 
Q 1569 -128 1984 -844 
L 1484 -844 
Q 1016 -109 783 600 
Q 550 1309 550 2009 
Q 550 2706 781 3412 
Q 1013 4119 1484 4856 
L 1984 4856 
z
" transform="scale(0.015625)"/>
        <path id="DejaVuSans-46" d="M 628 4666 
L 3309 4666 
L 3309 4134 
L 1259 4134 
L 1259 2759 
L 3109 2759 
L 3109 2228 
L 1259 2228 
L 1259 0 
L 628 0 
L 628 4666 
z
" transform="scale(0.015625)"/>
        <path id="DejaVuSans-29" d="M 513 4856 
L 1013 4856 
Q 1481 4119 1714 3412 
Q 1947 2706 1947 2009 
Q 1947 1309 1714 600 
Q 1481 -109 1013 -844 
L 513 -844 
Q 928 -128 1133 580 
Q 1338 1288 1338 2009 
Q 1338 2731 1133 3434 
Q 928 4138 513 4856 
z
" transform="scale(0.015625)"/>
       </defs>
       <use xlink:href="#DejaVuSans-47"/>
       <use xlink:href="#DejaVuSans-61" x="77.490234"/>
       <use xlink:href="#DejaVuSans-75" x="138.769531"/>
       <use xlink:href="#DejaVuSans-73" x="202.148438"/>
       <use xlink:href="#DejaVuSans-73" x="254.248047"/>
       <use xlink:href="#DejaVuSans-69" x="306.347656"/>
       <use xlink:href="#DejaVuSans-61" x="334.130859"/>
       <use xlink:href="#DejaVuSans-6e" x="395.410156"/>
       <use xlink:href="#DejaVuSans-20" x="458.789062"/>
       <use xlink:href="#DejaVuSans-28" x="490.576172"/>
       <use xlink:href="#DejaVuSans-41" x="529.589844"/>
       <use xlink:href="#DejaVuSans-46" x="597.998047"/>
       <use xlink:href="#DejaVuSans-29" x="655.517578"/>
      </g>
     </g>
    </g>
    <g id="xtick_5">
     <g id="text_5">
      <!-- 1 PC -->
      <g style="fill: #262626" transform="translate(487.638378 611.240749) rotate(-45) scale(0.2 -0.2)">
       <defs>
        <path id="DejaVuSans-31" d="M 794 531 
L 1825 531 
L 1825 4091 
L 703 3866 
L 703 4441 
L 1819 4666 
L 2450 4666 
L 2450 531 
L 3481 531 
L 3481 0 
L 794 0 
L 794 531 
z
" transform="scale(0.015625)"/>
        <path id="DejaVuSans-50" d="M 1259 4147 
L 1259 2394 
L 2053 2394 
Q 2494 2394 2734 2622 
Q 2975 2850 2975 3272 
Q 2975 3691 2734 3919 
Q 2494 4147 2053 4147 
L 1259 4147 
z
M 628 4666 
L 2053 4666 
Q 2838 4666 3239 4311 
Q 3641 3956 3641 3272 
Q 3641 2581 3239 2228 
Q 2838 1875 2053 1875 
L 1259 1875 
L 1259 0 
L 628 0 
L 628 4666 
z
" transform="scale(0.015625)"/>
        <path id="DejaVuSans-43" d="M 4122 4306 
L 4122 3641 
Q 3803 3938 3442 4084 
Q 3081 4231 2675 4231 
Q 1875 4231 1450 3742 
Q 1025 3253 1025 2328 
Q 1025 1406 1450 917 
Q 1875 428 2675 428 
Q 3081 428 3442 575 
Q 3803 722 4122 1019 
L 4122 359 
Q 3791 134 3420 21 
Q 3050 -91 2638 -91 
Q 1578 -91 968 557 
Q 359 1206 359 2328 
Q 359 3453 968 4101 
Q 1578 4750 2638 4750 
Q 3056 4750 3426 4639 
Q 3797 4528 4122 4306 
z
" transform="scale(0.015625)"/>
       </defs>
       <use xlink:href="#DejaVuSans-31"/>
       <use xlink:href="#DejaVuSans-20" x="63.623047"/>
       <use xlink:href="#DejaVuSans-50" x="95.410156"/>
       <use xlink:href="#DejaVuSans-43" x="155.712891"/>
      </g>
     </g>
    </g>
    <g id="xtick_6">
     <g id="text_6">
      <!-- 1 PC (AF) -->
      <g style="fill: #262626" transform="translate(551.950503 644.578624) rotate(-45) scale(0.2 -0.2)">
       <use xlink:href="#DejaVuSans-31"/>
       <use xlink:href="#DejaVuSans-20" x="63.623047"/>
       <use xlink:href="#DejaVuSans-50" x="95.410156"/>
       <use xlink:href="#DejaVuSans-43" x="155.712891"/>
       <use xlink:href="#DejaVuSans-20" x="225.537109"/>
       <use xlink:href="#DejaVuSans-28" x="257.324219"/>
       <use xlink:href="#DejaVuSans-41" x="296.337891"/>
       <use xlink:href="#DejaVuSans-46" x="364.746094"/>
       <use xlink:href="#DejaVuSans-29" x="422.265625"/>
      </g>
     </g>
    </g>
    <g id="xtick_7">
     <g id="text_7">
      <!-- 2 PC -->
      <g style="fill: #262626" transform="translate(682.938378 611.240749) rotate(-45) scale(0.2 -0.2)">
       <defs>
        <path id="DejaVuSans-32" d="M 1228 531 
L 3431 531 
L 3431 0 
L 469 0 
L 469 531 
Q 828 903 1448 1529 
Q 2069 2156 2228 2338 
Q 2531 2678 2651 2914 
Q 2772 3150 2772 3378 
Q 2772 3750 2511 3984 
Q 2250 4219 1831 4219 
Q 1534 4219 1204 4116 
Q 875 4013 500 3803 
L 500 4441 
Q 881 4594 1212 4672 
Q 1544 4750 1819 4750 
Q 2544 4750 2975 4387 
Q 3406 4025 3406 3419 
Q 3406 3131 3298 2873 
Q 3191 2616 2906 2266 
Q 2828 2175 2409 1742 
Q 1991 1309 1228 531 
z
" transform="scale(0.015625)"/>
       </defs>
       <use xlink:href="#DejaVuSans-32"/>
       <use xlink:href="#DejaVuSans-20" x="63.623047"/>
       <use xlink:href="#DejaVuSans-50" x="95.410156"/>
       <use xlink:href="#DejaVuSans-43" x="155.712891"/>
      </g>
     </g>
    </g>
    <g id="xtick_8">
     <g id="text_8">
      <!-- 2 PC (AF) -->
      <g style="fill: #262626" transform="translate(747.250503 644.578624) rotate(-45) scale(0.2 -0.2)">
       <use xlink:href="#DejaVuSans-32"/>
       <use xlink:href="#DejaVuSans-20" x="63.623047"/>
       <use xlink:href="#DejaVuSans-50" x="95.410156"/>
       <use xlink:href="#DejaVuSans-43" x="155.712891"/>
       <use xlink:href="#DejaVuSans-20" x="225.537109"/>
       <use xlink:href="#DejaVuSans-28" x="257.324219"/>
       <use xlink:href="#DejaVuSans-41" x="296.337891"/>
       <use xlink:href="#DejaVuSans-46" x="364.746094"/>
       <use xlink:href="#DejaVuSans-29" x="422.265625"/>
      </g>
     </g>
    </g>
    <g id="text_9">
     <!-- Method -->
     <g style="fill: #262626" transform="translate(422.45625 699.700943) scale(0.2 -0.2)">
      <defs>
       <path id="DejaVuSans-74" d="M 1172 4494 
L 1172 3500 
L 2356 3500 
L 2356 3053 
L 1172 3053 
L 1172 1153 
Q 1172 725 1289 603 
Q 1406 481 1766 481 
L 2356 481 
L 2356 0 
L 1766 0 
Q 1100 0 847 248 
Q 594 497 594 1153 
L 594 3053 
L 172 3053 
L 172 3500 
L 594 3500 
L 594 4494 
L 1172 4494 
z
" transform="scale(0.015625)"/>
       <path id="DejaVuSans-68" d="M 3513 2113 
L 3513 0 
L 2938 0 
L 2938 2094 
Q 2938 2591 2744 2837 
Q 2550 3084 2163 3084 
Q 1697 3084 1428 2787 
Q 1159 2491 1159 1978 
L 1159 0 
L 581 0 
L 581 4863 
L 1159 4863 
L 1159 2956 
Q 1366 3272 1645 3428 
Q 1925 3584 2291 3584 
Q 2894 3584 3203 3211 
Q 3513 2838 3513 2113 
z
" transform="scale(0.015625)"/>
       <path id="DejaVuSans-6f" d="M 1959 3097 
Q 1497 3097 1228 2736 
Q 959 2375 959 1747 
Q 959 1119 1226 758 
Q 1494 397 1959 397 
Q 2419 397 2687 759 
Q 2956 1122 2956 1747 
Q 2956 2369 2687 2733 
Q 2419 3097 1959 3097 
z
M 1959 3584 
Q 2709 3584 3137 3096 
Q 3566 2609 3566 1747 
Q 3566 888 3137 398 
Q 2709 -91 1959 -91 
Q 1206 -91 779 398 
Q 353 888 353 1747 
Q 353 2609 779 3096 
Q 1206 3584 1959 3584 
z
" transform="scale(0.015625)"/>
       <path id="DejaVuSans-64" d="M 2906 2969 
L 2906 4863 
L 3481 4863 
L 3481 0 
L 2906 0 
L 2906 525 
Q 2725 213 2448 61 
Q 2172 -91 1784 -91 
Q 1150 -91 751 415 
Q 353 922 353 1747 
Q 353 2572 751 3078 
Q 1150 3584 1784 3584 
Q 2172 3584 2448 3432 
Q 2725 3281 2906 2969 
z
M 947 1747 
Q 947 1113 1208 752 
Q 1469 391 1925 391 
Q 2381 391 2643 752 
Q 2906 1113 2906 1747 
Q 2906 2381 2643 2742 
Q 2381 3103 1925 3103 
Q 1469 3103 1208 2742 
Q 947 2381 947 1747 
z
" transform="scale(0.015625)"/>
      </defs>
      <use xlink:href="#DejaVuSans-4d"/>
      <use xlink:href="#DejaVuSans-65" x="86.279297"/>
      <use xlink:href="#DejaVuSans-74" x="147.802734"/>
      <use xlink:href="#DejaVuSans-68" x="187.011719"/>
      <use xlink:href="#DejaVuSans-6f" x="250.390625"/>
      <use xlink:href="#DejaVuSans-64" x="311.572266"/>
     </g>
    </g>
   </g>
   <g id="matplotlib.axis_2">
    <g id="ytick_1">
     <g id="line2d_1">
      <path d="M 69.3625 494.009145 
L 850.5625 494.009145 
" clip-path="url(#pbadfc68e33)" style="fill: none; stroke: #cccccc; stroke-width: 0.8; stroke-linecap: round"/>
     </g>
     <g id="text_10">
      <!-- 0.0 -->
      <g style="fill: #262626" transform="translate(30.55625 501.607582) scale(0.2 -0.2)">
       <defs>
        <path id="DejaVuSans-30" d="M 2034 4250 
Q 1547 4250 1301 3770 
Q 1056 3291 1056 2328 
Q 1056 1369 1301 889 
Q 1547 409 2034 409 
Q 2525 409 2770 889 
Q 3016 1369 3016 2328 
Q 3016 3291 2770 3770 
Q 2525 4250 2034 4250 
z
M 2034 4750 
Q 2819 4750 3233 4129 
Q 3647 3509 3647 2328 
Q 3647 1150 3233 529 
Q 2819 -91 2034 -91 
Q 1250 -91 836 529 
Q 422 1150 422 2328 
Q 422 3509 836 4129 
Q 1250 4750 2034 4750 
z
" transform="scale(0.015625)"/>
        <path id="DejaVuSans-2e" d="M 684 794 
L 1344 794 
L 1344 0 
L 684 0 
L 684 794 
z
" transform="scale(0.015625)"/>
       </defs>
       <use xlink:href="#DejaVuSans-30"/>
       <use xlink:href="#DejaVuSans-2e" x="63.623047"/>
       <use xlink:href="#DejaVuSans-30" x="95.410156"/>
      </g>
     </g>
    </g>
    <g id="ytick_2">
     <g id="line2d_2">
      <path d="M 69.3625 405.24936 
L 850.5625 405.24936 
" clip-path="url(#pbadfc68e33)" style="fill: none; stroke: #cccccc; stroke-width: 0.8; stroke-linecap: round"/>
     </g>
     <g id="text_11">
      <!-- 0.2 -->
      <g style="fill: #262626" transform="translate(30.55625 412.847798) scale(0.2 -0.2)">
       <use xlink:href="#DejaVuSans-30"/>
       <use xlink:href="#DejaVuSans-2e" x="63.623047"/>
       <use xlink:href="#DejaVuSans-32" x="95.410156"/>
      </g>
     </g>
    </g>
    <g id="ytick_3">
     <g id="line2d_3">
      <path d="M 69.3625 316.489575 
L 850.5625 316.489575 
" clip-path="url(#pbadfc68e33)" style="fill: none; stroke: #cccccc; stroke-width: 0.8; stroke-linecap: round"/>
     </g>
     <g id="text_12">
      <!-- 0.4 -->
      <g style="fill: #262626" transform="translate(30.55625 324.088013) scale(0.2 -0.2)">
       <defs>
        <path id="DejaVuSans-34" d="M 2419 4116 
L 825 1625 
L 2419 1625 
L 2419 4116 
z
M 2253 4666 
L 3047 4666 
L 3047 1625 
L 3713 1625 
L 3713 1100 
L 3047 1100 
L 3047 0 
L 2419 0 
L 2419 1100 
L 313 1100 
L 313 1709 
L 2253 4666 
z
" transform="scale(0.015625)"/>
       </defs>
       <use xlink:href="#DejaVuSans-30"/>
       <use xlink:href="#DejaVuSans-2e" x="63.623047"/>
       <use xlink:href="#DejaVuSans-34" x="95.410156"/>
      </g>
     </g>
    </g>
    <g id="ytick_4">
     <g id="line2d_4">
      <path d="M 69.3625 227.729791 
L 850.5625 227.729791 
" clip-path="url(#pbadfc68e33)" style="fill: none; stroke: #cccccc; stroke-width: 0.8; stroke-linecap: round"/>
     </g>
     <g id="text_13">
      <!-- 0.6 -->
      <g style="fill: #262626" transform="translate(30.55625 235.328228) scale(0.2 -0.2)">
       <defs>
        <path id="DejaVuSans-36" d="M 2113 2584 
Q 1688 2584 1439 2293 
Q 1191 2003 1191 1497 
Q 1191 994 1439 701 
Q 1688 409 2113 409 
Q 2538 409 2786 701 
Q 3034 994 3034 1497 
Q 3034 2003 2786 2293 
Q 2538 2584 2113 2584 
z
M 3366 4563 
L 3366 3988 
Q 3128 4100 2886 4159 
Q 2644 4219 2406 4219 
Q 1781 4219 1451 3797 
Q 1122 3375 1075 2522 
Q 1259 2794 1537 2939 
Q 1816 3084 2150 3084 
Q 2853 3084 3261 2657 
Q 3669 2231 3669 1497 
Q 3669 778 3244 343 
Q 2819 -91 2113 -91 
Q 1303 -91 875 529 
Q 447 1150 447 2328 
Q 447 3434 972 4092 
Q 1497 4750 2381 4750 
Q 2619 4750 2861 4703 
Q 3103 4656 3366 4563 
z
" transform="scale(0.015625)"/>
       </defs>
       <use xlink:href="#DejaVuSans-30"/>
       <use xlink:href="#DejaVuSans-2e" x="63.623047"/>
       <use xlink:href="#DejaVuSans-36" x="95.410156"/>
      </g>
     </g>
    </g>
    <g id="ytick_5">
     <g id="line2d_5">
      <path d="M 69.3625 138.970006 
L 850.5625 138.970006 
" clip-path="url(#pbadfc68e33)" style="fill: none; stroke: #cccccc; stroke-width: 0.8; stroke-linecap: round"/>
     </g>
     <g id="text_14">
      <!-- 0.8 -->
      <g style="fill: #262626" transform="translate(30.55625 146.568443) scale(0.2 -0.2)">
       <defs>
        <path id="DejaVuSans-38" d="M 2034 2216 
Q 1584 2216 1326 1975 
Q 1069 1734 1069 1313 
Q 1069 891 1326 650 
Q 1584 409 2034 409 
Q 2484 409 2743 651 
Q 3003 894 3003 1313 
Q 3003 1734 2745 1975 
Q 2488 2216 2034 2216 
z
M 1403 2484 
Q 997 2584 770 2862 
Q 544 3141 544 3541 
Q 544 4100 942 4425 
Q 1341 4750 2034 4750 
Q 2731 4750 3128 4425 
Q 3525 4100 3525 3541 
Q 3525 3141 3298 2862 
Q 3072 2584 2669 2484 
Q 3125 2378 3379 2068 
Q 3634 1759 3634 1313 
Q 3634 634 3220 271 
Q 2806 -91 2034 -91 
Q 1263 -91 848 271 
Q 434 634 434 1313 
Q 434 1759 690 2068 
Q 947 2378 1403 2484 
z
M 1172 3481 
Q 1172 3119 1398 2916 
Q 1625 2713 2034 2713 
Q 2441 2713 2670 2916 
Q 2900 3119 2900 3481 
Q 2900 3844 2670 4047 
Q 2441 4250 2034 4250 
Q 1625 4250 1398 4047 
Q 1172 3844 1172 3481 
z
" transform="scale(0.015625)"/>
       </defs>
       <use xlink:href="#DejaVuSans-30"/>
       <use xlink:href="#DejaVuSans-2e" x="63.623047"/>
       <use xlink:href="#DejaVuSans-38" x="95.410156"/>
      </g>
     </g>
    </g>
    <g id="ytick_6">
     <g id="line2d_6">
      <path d="M 69.3625 50.210221 
L 850.5625 50.210221 
" clip-path="url(#pbadfc68e33)" style="fill: none; stroke: #cccccc; stroke-width: 0.8; stroke-linecap: round"/>
     </g>
     <g id="text_15">
      <!-- 1.0 -->
      <g style="fill: #262626" transform="translate(30.55625 57.808658) scale(0.2 -0.2)">
       <use xlink:href="#DejaVuSans-31"/>
       <use xlink:href="#DejaVuSans-2e" x="63.623047"/>
       <use xlink:href="#DejaVuSans-30" x="95.410156"/>
      </g>
     </g>
    </g>
    <g id="text_16">
     <!-- lDDT $\uparrow$ -->
     <g style="fill: #262626" transform="translate(22.396875 324.2) rotate(-90) scale(0.2 -0.2)">
      <defs>
       <path id="DejaVuSans-44" d="M 1259 4147 
L 1259 519 
L 2022 519 
Q 2988 519 3436 956 
Q 3884 1394 3884 2338 
Q 3884 3275 3436 3711 
Q 2988 4147 2022 4147 
L 1259 4147 
z
M 628 4666 
L 1925 4666 
Q 3281 4666 3915 4102 
Q 4550 3538 4550 2338 
Q 4550 1131 3912 565 
Q 3275 0 1925 0 
L 628 0 
L 628 4666 
z
" transform="scale(0.015625)"/>
       <path id="DejaVuSans-54" d="M -19 4666 
L 3928 4666 
L 3928 4134 
L 2272 4134 
L 2272 0 
L 1638 0 
L 1638 4134 
L -19 4134 
L -19 4666 
z
" transform="scale(0.015625)"/>
       <path id="DejaVuSans-2191" d="M 2541 4688 
L 2822 4688 
L 4047 3456 
L 3672 3081 
L 2947 3813 
L 2947 0 
L 2416 0 
L 2416 3813 
L 1684 3081 
L 1309 3456 
L 2541 4688 
z
" transform="scale(0.015625)"/>
      </defs>
      <use xlink:href="#DejaVuSans-6c" transform="translate(0 0.015625)"/>
      <use xlink:href="#DejaVuSans-44" transform="translate(27.783203 0.015625)"/>
      <use xlink:href="#DejaVuSans-44" transform="translate(104.785156 0.015625)"/>
      <use xlink:href="#DejaVuSans-54" transform="translate(181.787109 0.015625)"/>
      <use xlink:href="#DejaVuSans-20" transform="translate(242.871094 0.015625)"/>
      <use xlink:href="#DejaVuSans-2191" transform="translate(294.140625 0.015625)"/>
     </g>
    </g>
   </g>
   <g id="PolyCollection_1">
    <defs>
     <path id="m8e04cdea8d" d="M 118.34565 -292.892199 
L 118.02935 -292.892199 
L 117.96792 -296.771404 
L 117.891459 -300.650609 
L 117.799931 -304.529815 
L 117.694799 -308.40902 
L 117.579284 -312.288226 
L 117.458422 -316.167431 
L 117.338836 -320.046636 
L 117.228205 -323.925842 
L 117.134473 -327.805047 
L 117.064895 -331.684252 
L 117.025057 -335.563458 
L 117.018053 -339.442663 
L 117.043954 -343.321868 
L 117.099653 -347.201074 
L 117.179117 -351.080279 
L 117.27397 -354.959484 
L 117.374297 -358.83869 
L 117.469516 -362.717895 
L 117.549208 -366.5971 
L 117.603816 -370.476306 
L 117.625192 -374.355511 
L 117.607037 -378.234716 
L 117.545263 -382.113922 
L 117.438346 -385.993127 
L 117.287646 -389.872332 
L 117.097661 -393.751538 
L 116.876088 -397.630743 
L 116.633593 -401.509949 
L 116.383191 -405.389154 
L 116.139223 -409.268359 
L 115.916011 -413.147565 
L 115.726384 -417.02677 
L 115.580322 -420.905975 
L 115.483969 -424.785181 
L 115.439208 -428.664386 
L 115.443847 -432.543591 
L 115.492355 -436.422797 
L 115.576913 -440.302002 
L 115.688512 -444.181207 
L 115.817832 -448.060413 
L 115.955693 -451.939618 
L 116.093042 -455.818823 
L 116.220518 -459.698029 
L 116.327801 -463.577234 
L 116.402924 -467.456439 
L 116.431757 -471.335645 
L 116.397774 -475.21485 
L 116.28215 -479.094056 
L 116.064154 -482.973261 
L 115.7218 -486.852466 
L 115.232721 -490.731672 
L 114.575262 -494.610877 
L 113.729843 -498.490082 
L 112.680606 -502.369288 
L 111.417365 -506.248493 
L 109.937686 -510.127698 
L 108.248891 -514.006904 
L 106.369558 -517.886109 
L 104.330118 -521.765314 
L 102.172133 -525.64452 
L 99.946023 -529.523725 
L 97.70727 -533.40293 
L 95.511441 -537.282136 
L 93.408702 -541.161341 
L 91.438683 -545.040546 
L 89.62667 -548.919752 
L 87.981956 -552.798957 
L 86.498897 -556.678162 
L 85.160755 -560.557368 
L 83.945882 -564.436573 
L 82.835303 -568.315779 
L 81.820365 -572.194984 
L 80.90898 -576.074189 
L 80.12911 -579.953395 
L 79.528574 -583.8326 
L 79.170876 -587.711805 
L 79.1275 -591.591011 
L 79.467814 -595.470216 
L 80.248209 -599.349421 
L 81.502281 -603.228627 
L 83.233716 -607.107832 
L 85.413036 -610.987037 
L 87.978691 -614.866243 
L 90.84225 -618.745448 
L 93.896775 -622.624653 
L 97.027024 -626.503859 
L 100.119969 -630.383064 
L 103.074188 -634.262269 
L 105.807059 -638.141475 
L 108.259102 -642.02068 
L 110.395349 -645.899885 
L 112.204036 -649.779091 
L 113.693248 -653.658296 
L 114.886302 -657.537502 
L 115.816668 -661.416707 
L 116.523112 -665.295912 
L 117.045556 -669.175118 
L 117.42193 -673.054323 
L 117.686096 -676.933528 
L 118.688904 -676.933528 
L 118.688904 -676.933528 
L 118.95307 -673.054323 
L 119.329444 -669.175118 
L 119.851888 -665.295912 
L 120.558332 -661.416707 
L 121.488698 -657.537502 
L 122.681752 -653.658296 
L 124.170964 -649.779091 
L 125.979651 -645.899885 
L 128.115898 -642.02068 
L 130.567941 -638.141475 
L 133.300812 -634.262269 
L 136.255031 -630.383064 
L 139.347976 -626.503859 
L 142.478225 -622.624653 
L 145.53275 -618.745448 
L 148.396309 -614.866243 
L 150.961964 -610.987037 
L 153.141284 -607.107832 
L 154.872719 -603.228627 
L 156.126791 -599.349421 
L 156.907186 -595.470216 
L 157.2475 -591.591011 
L 157.204124 -587.711805 
L 156.846426 -583.8326 
L 156.24589 -579.953395 
L 155.46602 -576.074189 
L 154.554635 -572.194984 
L 153.539697 -568.315779 
L 152.429118 -564.436573 
L 151.214245 -560.557368 
L 149.876103 -556.678162 
L 148.393044 -552.798957 
L 146.74833 -548.919752 
L 144.936317 -545.040546 
L 142.966298 -541.161341 
L 140.863559 -537.282136 
L 138.66773 -533.40293 
L 136.428977 -529.523725 
L 134.202867 -525.64452 
L 132.044882 -521.765314 
L 130.005442 -517.886109 
L 128.126109 -514.006904 
L 126.437314 -510.127698 
L 124.957635 -506.248493 
L 123.694394 -502.369288 
L 122.645157 -498.490082 
L 121.799738 -494.610877 
L 121.142279 -490.731672 
L 120.6532 -486.852466 
L 120.310846 -482.973261 
L 120.09285 -479.094056 
L 119.977226 -475.21485 
L 119.943243 -471.335645 
L 119.972076 -467.456439 
L 120.047199 -463.577234 
L 120.154482 -459.698029 
L 120.281958 -455.818823 
L 120.419307 -451.939618 
L 120.557168 -448.060413 
L 120.686488 -444.181207 
L 120.798087 -440.302002 
L 120.882645 -436.422797 
L 120.931153 -432.543591 
L 120.935792 -428.664386 
L 120.891031 -424.785181 
L 120.794678 -420.905975 
L 120.648616 -417.02677 
L 120.458989 -413.147565 
L 120.235777 -409.268359 
L 119.991809 -405.389154 
L 119.741407 -401.509949 
L 119.498912 -397.630743 
L 119.277339 -393.751538 
L 119.087354 -389.872332 
L 118.936654 -385.993127 
L 118.829737 -382.113922 
L 118.767963 -378.234716 
L 118.749808 -374.355511 
L 118.771184 -370.476306 
L 118.825792 -366.5971 
L 118.905484 -362.717895 
L 119.000703 -358.83869 
L 119.10103 -354.959484 
L 119.195883 -351.080279 
L 119.275347 -347.201074 
L 119.331046 -343.321868 
L 119.356947 -339.442663 
L 119.349943 -335.563458 
L 119.310105 -331.684252 
L 119.240527 -327.805047 
L 119.146795 -323.925842 
L 119.036164 -320.046636 
L 118.916578 -316.167431 
L 118.795716 -312.288226 
L 118.680201 -308.40902 
L 118.575069 -304.529815 
L 118.483541 -300.650609 
L 118.40708 -296.771404 
L 118.34565 -292.892199 
z
" style="stroke: #3d3d3d; stroke-opacity: 0.5"/>
    </defs>
    <g clip-path="url(#pbadfc68e33)">
     <use xlink:href="#m8e04cdea8d" x="0" y="711.060318" style="fill: #d684bd; fill-opacity: 0.5; stroke: #3d3d3d; stroke-opacity: 0.5"/>
    </g>
   </g>
   <g id="PolyCollection_2">
    <defs>
     <path id="m3479c4d330" d="M 216.410802 -228.419994 
L 215.264198 -228.419994 
L 215.021429 -232.779535 
L 214.695944 -237.139076 
L 214.267799 -241.498617 
L 213.715149 -245.858158 
L 213.015021 -250.217699 
L 212.144396 -254.57724 
L 211.081599 -258.936781 
L 209.807942 -263.296322 
L 208.309569 -267.655864 
L 206.579375 -272.015405 
L 204.618882 -276.374946 
L 202.439888 -280.734487 
L 200.065729 -285.094028 
L 197.531941 -289.453569 
L 194.886157 -293.81311 
L 192.187089 -298.172651 
L 189.502509 -302.532192 
L 186.906257 -306.891733 
L 184.474403 -311.251274 
L 182.280821 -315.610815 
L 180.392582 -319.970356 
L 178.865604 -324.329897 
L 177.741069 -328.689439 
L 177.043028 -333.04898 
L 176.7775 -337.408521 
L 176.933161 -341.768062 
L 177.483512 -346.127603 
L 178.390168 -350.487144 
L 179.606803 -354.846685 
L 181.083144 -359.206226 
L 182.768522 -363.565767 
L 184.614548 -367.925308 
L 186.57673 -372.284849 
L 188.615042 -376.64439 
L 190.693656 -381.003931 
L 192.780192 -385.363472 
L 194.844865 -389.723014 
L 196.859864 -394.082555 
L 198.799187 -398.442096 
L 200.638984 -402.801637 
L 202.358332 -407.161178 
L 203.940212 -411.520719 
L 205.372451 -415.88026 
L 206.648377 -420.239801 
L 207.766998 -424.599342 
L 208.732657 -428.958883 
L 209.554177 -433.318424 
L 210.243635 -437.677965 
L 210.814958 -442.037506 
L 211.282527 -446.397047 
L 211.659979 -450.756588 
L 211.959331 -455.11613 
L 212.19048 -459.475671 
L 212.361097 -463.835212 
L 212.476854 -468.194753 
L 212.541914 -472.554294 
L 212.559571 -476.913835 
L 212.532966 -481.273376 
L 212.465764 -485.632917 
L 212.362726 -489.992458 
L 212.230114 -494.351999 
L 212.075871 -498.71154 
L 211.909562 -503.071081 
L 211.742049 -507.430622 
L 211.584951 -511.790163 
L 211.449898 -516.149705 
L 211.347687 -520.509246 
L 211.287413 -524.868787 
L 211.275688 -529.228328 
L 211.316048 -533.587869 
L 211.408637 -537.94741 
L 211.550212 -542.306951 
L 211.734487 -546.666492 
L 211.952778 -551.026033 
L 212.194878 -555.385574 
L 212.450049 -559.745115 
L 212.708024 -564.104656 
L 212.959885 -568.464197 
L 213.198732 -572.823738 
L 213.420061 -577.18328 
L 213.621834 -581.542821 
L 213.804263 -585.902362 
L 213.969343 -590.261903 
L 214.120239 -594.621444 
L 214.260614 -598.980985 
L 214.393998 -603.340526 
L 214.523272 -607.700067 
L 214.650336 -612.059608 
L 214.775969 -616.419149 
L 214.899881 -620.77869 
L 215.020916 -625.138231 
L 215.137354 -629.497772 
L 215.24724 -633.857313 
L 215.34871 -638.216855 
L 215.440243 -642.576396 
L 215.520826 -646.935937 
L 215.590028 -651.295478 
L 215.647986 -655.655019 
L 215.695325 -660.01456 
L 215.979675 -660.01456 
L 215.979675 -660.01456 
L 216.027014 -655.655019 
L 216.084972 -651.295478 
L 216.154174 -646.935937 
L 216.234757 -642.576396 
L 216.32629 -638.216855 
L 216.42776 -633.857313 
L 216.537646 -629.497772 
L 216.654084 -625.138231 
L 216.775119 -620.77869 
L 216.899031 -616.419149 
L 217.024664 -612.059608 
L 217.151728 -607.700067 
L 217.281002 -603.340526 
L 217.414386 -598.980985 
L 217.554761 -594.621444 
L 217.705657 -590.261903 
L 217.870737 -585.902362 
L 218.053166 -581.542821 
L 218.254939 -577.18328 
L 218.476268 -572.823738 
L 218.715115 -568.464197 
L 218.966976 -564.104656 
L 219.224951 -559.745115 
L 219.480122 -555.385574 
L 219.722222 -551.026033 
L 219.940513 -546.666492 
L 220.124788 -542.306951 
L 220.266363 -537.94741 
L 220.358952 -533.587869 
L 220.399312 -529.228328 
L 220.387587 -524.868787 
L 220.327313 -520.509246 
L 220.225102 -516.149705 
L 220.090049 -511.790163 
L 219.932951 -507.430622 
L 219.765438 -503.071081 
L 219.599129 -498.71154 
L 219.444886 -494.351999 
L 219.312274 -489.992458 
L 219.209236 -485.632917 
L 219.142034 -481.273376 
L 219.115429 -476.913835 
L 219.133086 -472.554294 
L 219.198146 -468.194753 
L 219.313903 -463.835212 
L 219.48452 -459.475671 
L 219.715669 -455.11613 
L 220.015021 -450.756588 
L 220.392473 -446.397047 
L 220.860042 -442.037506 
L 221.431365 -437.677965 
L 222.120823 -433.318424 
L 222.942343 -428.958883 
L 223.908002 -424.599342 
L 225.026623 -420.239801 
L 226.302549 -415.88026 
L 227.734788 -411.520719 
L 229.316668 -407.161178 
L 231.036016 -402.801637 
L 232.875813 -398.442096 
L 234.815136 -394.082555 
L 236.830135 -389.723014 
L 238.894808 -385.363472 
L 240.981344 -381.003931 
L 243.059958 -376.64439 
L 245.09827 -372.284849 
L 247.060452 -367.925308 
L 248.906478 -363.565767 
L 250.591856 -359.206226 
L 252.068197 -354.846685 
L 253.284832 -350.487144 
L 254.191488 -346.127603 
L 254.741839 -341.768062 
L 254.8975 -337.408521 
L 254.631972 -333.04898 
L 253.933931 -328.689439 
L 252.809396 -324.329897 
L 251.282418 -319.970356 
L 249.394179 -315.610815 
L 247.200597 -311.251274 
L 244.768743 -306.891733 
L 242.172491 -302.532192 
L 239.487911 -298.172651 
L 236.788843 -293.81311 
L 234.143059 -289.453569 
L 231.609271 -285.094028 
L 229.235112 -280.734487 
L 227.056118 -276.374946 
L 225.095625 -272.015405 
L 223.365431 -267.655864 
L 221.867058 -263.296322 
L 220.593401 -258.936781 
L 219.530604 -254.57724 
L 218.659979 -250.217699 
L 217.959851 -245.858158 
L 217.407201 -241.498617 
L 216.979056 -237.139076 
L 216.653571 -232.779535 
L 216.410802 -228.419994 
z
" style="stroke: #3d3d3d; stroke-opacity: 0.5"/>
    </defs>
    <g clip-path="url(#pbadfc68e33)">
     <use xlink:href="#m3479c4d330" x="0" y="711.060318" style="fill: #7f7f7f; fill-opacity: 0.5; stroke: #3d3d3d; stroke-opacity: 0.5"/>
    </g>
   </g>
   <g id="PolyCollection_3">
    <defs>
     <path id="me954cf8598" d="M 313.726289 -503.871596 
L 313.248711 -503.871596 
L 313.161623 -503.984617 
L 313.052135 -504.097637 
L 312.917879 -504.210657 
L 312.757285 -504.323678 
L 312.569855 -504.436698 
L 312.356372 -504.549718 
L 312.118989 -504.662738 
L 311.861194 -504.775759 
L 311.587621 -504.888779 
L 311.303726 -505.001799 
L 311.015349 -505.114819 
L 310.728194 -505.22784 
L 310.447258 -505.34086 
L 310.176242 -505.45388 
L 309.91694 -505.5669 
L 309.668633 -505.679921 
L 309.427477 -505.792941 
L 309.185919 -505.905961 
L 308.932187 -506.018981 
L 308.649947 -506.132002 
L 308.318238 -506.245022 
L 307.911833 -506.358042 
L 307.402129 -506.471063 
L 306.758666 -506.584083 
L 305.951256 -506.697103 
L 304.952614 -506.810123 
L 303.741296 -506.923144 
L 302.304613 -507.036164 
L 300.641174 -507.149184 
L 298.762674 -507.262204 
L 296.69461 -507.375225 
L 294.475719 -507.488245 
L 292.156087 -507.601265 
L 289.794049 -507.714285 
L 287.452178 -507.827306 
L 285.192817 -507.940326 
L 283.073633 -508.053346 
L 281.143739 -508.166366 
L 279.440793 -508.279387 
L 277.989357 -508.392407 
L 276.800593 -508.505427 
L 275.873176 -508.618448 
L 275.195129 -508.731468 
L 274.746176 -508.844488 
L 274.500203 -508.957508 
L 274.4275 -509.070529 
L 274.496579 -509.183549 
L 274.675562 -509.296569 
L 274.933253 -509.409589 
L 275.240141 -509.52261 
L 275.569535 -509.63563 
L 275.898982 -509.74865 
L 276.21195 -509.86167 
L 276.499583 -509.974691 
L 276.762218 -510.087711 
L 277.010261 -510.200731 
L 277.264088 -510.313752 
L 277.552748 -510.426772 
L 277.911468 -510.539792 
L 278.37816 -510.652812 
L 278.989323 -510.765833 
L 279.775866 -510.878853 
L 280.759381 -510.991873 
L 281.949335 -511.104893 
L 283.341523 -511.217914 
L 284.917921 -511.330934 
L 286.647946 -511.443954 
L 288.490892 -511.556974 
L 290.39928 -511.669995 
L 292.322692 -511.783015 
L 294.211723 -511.896035 
L 296.021615 -512.009055 
L 297.715287 -512.122076 
L 299.265468 -512.235096 
L 300.655833 -512.348116 
L 301.881099 -512.461137 
L 302.946162 -512.574157 
L 303.86446 -512.687177 
L 304.655774 -512.800197 
L 305.343747 -512.913218 
L 305.953358 -513.026238 
L 306.508605 -513.139258 
L 307.030565 -513.252278 
L 307.535976 -513.365299 
L 308.036404 -513.478319 
L 308.538011 -513.591339 
L 309.041884 -513.704359 
L 309.544817 -513.81738 
L 310.040433 -513.9304 
L 310.520471 -514.04342 
L 310.976094 -514.15644 
L 311.399053 -514.269461 
L 311.782612 -514.382481 
L 312.122153 -514.495501 
L 312.415439 -514.608522 
L 312.662572 -514.721542 
L 312.865693 -514.834562 
L 313.028528 -514.947582 
L 313.155852 -515.060603 
L 313.819148 -515.060603 
L 313.819148 -515.060603 
L 313.946472 -514.947582 
L 314.109307 -514.834562 
L 314.312428 -514.721542 
L 314.559561 -514.608522 
L 314.852847 -514.495501 
L 315.192388 -514.382481 
L 315.575947 -514.269461 
L 315.998906 -514.15644 
L 316.454529 -514.04342 
L 316.934567 -513.9304 
L 317.430183 -513.81738 
L 317.933116 -513.704359 
L 318.436989 -513.591339 
L 318.938596 -513.478319 
L 319.439024 -513.365299 
L 319.944435 -513.252278 
L 320.466395 -513.139258 
L 321.021642 -513.026238 
L 321.631253 -512.913218 
L 322.319226 -512.800197 
L 323.11054 -512.687177 
L 324.028838 -512.574157 
L 325.093901 -512.461137 
L 326.319167 -512.348116 
L 327.709532 -512.235096 
L 329.259713 -512.122076 
L 330.953385 -512.009055 
L 332.763277 -511.896035 
L 334.652308 -511.783015 
L 336.57572 -511.669995 
L 338.484108 -511.556974 
L 340.327054 -511.443954 
L 342.057079 -511.330934 
L 343.633477 -511.217914 
L 345.025665 -511.104893 
L 346.215619 -510.991873 
L 347.199134 -510.878853 
L 347.985677 -510.765833 
L 348.59684 -510.652812 
L 349.063532 -510.539792 
L 349.422252 -510.426772 
L 349.710912 -510.313752 
L 349.964739 -510.200731 
L 350.212782 -510.087711 
L 350.475417 -509.974691 
L 350.76305 -509.86167 
L 351.076018 -509.74865 
L 351.405465 -509.63563 
L 351.734859 -509.52261 
L 352.041747 -509.409589 
L 352.299438 -509.296569 
L 352.478421 -509.183549 
L 352.5475 -509.070529 
L 352.474797 -508.957508 
L 352.228824 -508.844488 
L 351.779871 -508.731468 
L 351.101824 -508.618448 
L 350.174407 -508.505427 
L 348.985643 -508.392407 
L 347.534207 -508.279387 
L 345.831261 -508.166366 
L 343.901367 -508.053346 
L 341.782183 -507.940326 
L 339.522822 -507.827306 
L 337.180951 -507.714285 
L 334.818913 -507.601265 
L 332.499281 -507.488245 
L 330.28039 -507.375225 
L 328.212326 -507.262204 
L 326.333826 -507.149184 
L 324.670387 -507.036164 
L 323.233704 -506.923144 
L 322.022386 -506.810123 
L 321.023744 -506.697103 
L 320.216334 -506.584083 
L 319.572871 -506.471063 
L 319.063167 -506.358042 
L 318.656762 -506.245022 
L 318.325053 -506.132002 
L 318.042813 -506.018981 
L 317.789081 -505.905961 
L 317.547523 -505.792941 
L 317.306367 -505.679921 
L 317.05806 -505.5669 
L 316.798758 -505.45388 
L 316.527742 -505.34086 
L 316.246806 -505.22784 
L 315.959651 -505.114819 
L 315.671274 -505.001799 
L 315.387379 -504.888779 
L 315.113806 -504.775759 
L 314.856011 -504.662738 
L 314.618628 -504.549718 
L 314.405145 -504.436698 
L 314.217715 -504.323678 
L 314.057121 -504.210657 
L 313.922865 -504.097637 
L 313.813377 -503.984617 
L 313.726289 -503.871596 
z
" style="stroke: #3d3d3d; stroke-opacity: 0.5"/>
    </defs>
    <g clip-path="url(#pbadfc68e33)">
     <use xlink:href="#me954cf8598" x="0" y="711.060318" style="fill: #9372b2; fill-opacity: 0.5; stroke: #3d3d3d; stroke-opacity: 0.5"/>
    </g>
   </g>
   <g id="PolyCollection_4">
    <defs>
     <path id="m89b0ce0339" d="M 411.336301 -447.207418 
L 410.938699 -447.207418 
L 410.87096 -449.22848 
L 410.787551 -451.249542 
L 410.687407 -453.270604 
L 410.570152 -455.291665 
L 410.436234 -457.312727 
L 410.286967 -459.333789 
L 410.124469 -461.354851 
L 409.951496 -463.375913 
L 409.771164 -465.396974 
L 409.586639 -467.418036 
L 409.400824 -469.439098 
L 409.216128 -471.46016 
L 409.034377 -473.481222 
L 408.8569 -475.502283 
L 408.684786 -477.523345 
L 408.519278 -479.544407 
L 408.362205 -481.565469 
L 408.216346 -483.586531 
L 408.085613 -485.607593 
L 407.974969 -487.628654 
L 407.890024 -489.649716 
L 407.83635 -491.670778 
L 407.818573 -493.69184 
L 407.839395 -495.712902 
L 407.898685 -497.733963 
L 407.992802 -499.755025 
L 408.114259 -501.776087 
L 408.251779 -503.797149 
L 408.390756 -505.818211 
L 408.514035 -507.839272 
L 408.6029 -509.860334 
L 408.638148 -511.881396 
L 408.6011 -513.902458 
L 408.474466 -515.92352 
L 408.242988 -517.944581 
L 407.893847 -519.965643 
L 407.416874 -521.986705 
L 406.804611 -524.007767 
L 406.052319 -526.028829 
L 405.158002 -528.049891 
L 404.122524 -530.070952 
L 402.94985 -532.092014 
L 401.647418 -534.113076 
L 400.226582 -536.134138 
L 398.70304 -538.1552 
L 397.097101 -540.176261 
L 395.433646 -542.197323 
L 393.741646 -544.218385 
L 392.053106 -546.239447 
L 390.401447 -548.260509 
L 388.819362 -550.28157 
L 387.336364 -552.302632 
L 385.976288 -554.323694 
L 384.755116 -556.344756 
L 383.67946 -558.365818 
L 382.745997 -560.38688 
L 381.942007 -562.407941 
L 381.246992 -564.429003 
L 380.635167 -566.450065 
L 380.078465 -568.471127 
L 379.549596 -570.492189 
L 379.024721 -572.51325 
L 378.485399 -574.534312 
L 377.919621 -576.555374 
L 377.32197 -578.576436 
L 376.69312 -580.597498 
L 376.039023 -582.618559 
L 375.370148 -584.639621 
L 374.701063 -586.660683 
L 374.050493 -588.681745 
L 373.441789 -590.702807 
L 372.903525 -592.723868 
L 372.469836 -594.74493 
L 372.180082 -596.765992 
L 372.0775 -598.787054 
L 372.206695 -600.808116 
L 372.610089 -602.829178 
L 373.323669 -604.850239 
L 374.372593 -606.871301 
L 375.7673 -608.892363 
L 377.500758 -610.913425 
L 379.547315 -612.934487 
L 381.863435 -614.955548 
L 384.390263 -616.97661 
L 387.05775 -618.997672 
L 389.789809 -621.018734 
L 392.509896 -623.039796 
L 395.146347 -625.060857 
L 397.636906 -627.081919 
L 399.932029 -629.102981 
L 401.996751 -631.124043 
L 403.81108 -633.145105 
L 405.369105 -635.166167 
L 406.67709 -637.187228 
L 407.750917 -639.20829 
L 408.613252 -641.229352 
L 409.290758 -643.250414 
L 409.811607 -645.271476 
L 410.203458 -647.292537 
L 412.071542 -647.292537 
L 412.071542 -647.292537 
L 412.463393 -645.271476 
L 412.984242 -643.250414 
L 413.661748 -641.229352 
L 414.524083 -639.20829 
L 415.59791 -637.187228 
L 416.905895 -635.166167 
L 418.46392 -633.145105 
L 420.278249 -631.124043 
L 422.342971 -629.102981 
L 424.638094 -627.081919 
L 427.128653 -625.060857 
L 429.765104 -623.039796 
L 432.485191 -621.018734 
L 435.21725 -618.997672 
L 437.884737 -616.97661 
L 440.411565 -614.955548 
L 442.727685 -612.934487 
L 444.774242 -610.913425 
L 446.5077 -608.892363 
L 447.902407 -606.871301 
L 448.951331 -604.850239 
L 449.664911 -602.829178 
L 450.068305 -600.808116 
L 450.1975 -598.787054 
L 450.094918 -596.765992 
L 449.805164 -594.74493 
L 449.371475 -592.723868 
L 448.833211 -590.702807 
L 448.224507 -588.681745 
L 447.573937 -586.660683 
L 446.904852 -584.639621 
L 446.235977 -582.618559 
L 445.58188 -580.597498 
L 444.95303 -578.576436 
L 444.355379 -576.555374 
L 443.789601 -574.534312 
L 443.250279 -572.51325 
L 442.725404 -570.492189 
L 442.196535 -568.471127 
L 441.639833 -566.450065 
L 441.028008 -564.429003 
L 440.332993 -562.407941 
L 439.529003 -560.38688 
L 438.59554 -558.365818 
L 437.519884 -556.344756 
L 436.298712 -554.323694 
L 434.938636 -552.302632 
L 433.455638 -550.28157 
L 431.873553 -548.260509 
L 430.221894 -546.239447 
L 428.533354 -544.218385 
L 426.841354 -542.197323 
L 425.177899 -540.176261 
L 423.57196 -538.1552 
L 422.048418 -536.134138 
L 420.627582 -534.113076 
L 419.32515 -532.092014 
L 418.152476 -530.070952 
L 417.116998 -528.049891 
L 416.222681 -526.028829 
L 415.470389 -524.007767 
L 414.858126 -521.986705 
L 414.381153 -519.965643 
L 414.032012 -517.944581 
L 413.800534 -515.92352 
L 413.6739 -513.902458 
L 413.636852 -511.881396 
L 413.6721 -509.860334 
L 413.760965 -507.839272 
L 413.884244 -505.818211 
L 414.023221 -503.797149 
L 414.160741 -501.776087 
L 414.282198 -499.755025 
L 414.376315 -497.733963 
L 414.435605 -495.712902 
L 414.456427 -493.69184 
L 414.43865 -491.670778 
L 414.384976 -489.649716 
L 414.300031 -487.628654 
L 414.189387 -485.607593 
L 414.058654 -483.586531 
L 413.912795 -481.565469 
L 413.755722 -479.544407 
L 413.590214 -477.523345 
L 413.4181 -475.502283 
L 413.240623 -473.481222 
L 413.058872 -471.46016 
L 412.874176 -469.439098 
L 412.688361 -467.418036 
L 412.503836 -465.396974 
L 412.323504 -463.375913 
L 412.150531 -461.354851 
L 411.988033 -459.333789 
L 411.838766 -457.312727 
L 411.704848 -455.291665 
L 411.587593 -453.270604 
L 411.487449 -451.249542 
L 411.40404 -449.22848 
L 411.336301 -447.207418 
z
" style="stroke: #3d3d3d; stroke-opacity: 0.5"/>
    </defs>
    <g clip-path="url(#pbadfc68e33)">
     <use xlink:href="#m89b0ce0339" x="0" y="711.060318" style="fill: #845b53; fill-opacity: 0.5; stroke: #3d3d3d; stroke-opacity: 0.5"/>
    </g>
   </g>
   <g id="PolyCollection_5">
    <defs>
     <path id="me4bccda714" d="M 508.992237 -258.456468 
L 508.582763 -258.456468 
L 508.500908 -259.696932 
L 508.398532 -260.937396 
L 508.275638 -262.17786 
L 508.134374 -263.418324 
L 507.979394 -264.658788 
L 507.817869 -265.899252 
L 507.659071 -267.139716 
L 507.513487 -268.38018 
L 507.391547 -269.620644 
L 507.302133 -270.861108 
L 507.25114 -272.101572 
L 507.240336 -273.342036 
L 507.266789 -274.5825 
L 507.322991 -275.822964 
L 507.397694 -277.063428 
L 507.477325 -278.303892 
L 507.547751 -279.544356 
L 507.596063 -280.78482 
L 507.612056 -282.025283 
L 507.589109 -283.265747 
L 507.524263 -284.506211 
L 507.417381 -285.746675 
L 507.269452 -286.987139 
L 507.080226 -288.227603 
L 506.845511 -289.468067 
L 506.554595 -290.708531 
L 506.188319 -291.948995 
L 505.718323 -293.189459 
L 505.107882 -294.429923 
L 504.314541 -295.670387 
L 503.294493 -296.910851 
L 502.008331 -298.151315 
L 500.427467 -299.391779 
L 498.540365 -300.632243 
L 496.357572 -301.872707 
L 493.914665 -303.113171 
L 491.272442 -304.353635 
L 488.514066 -305.594099 
L 485.739298 -306.834563 
L 483.056363 -308.075027 
L 480.572333 -309.315491 
L 478.383059 -310.555955 
L 476.563756 -311.796419 
L 475.161207 -313.036883 
L 474.18843 -314.277347 
L 473.622417 -315.517811 
L 473.40541 -316.758275 
L 473.4499 -317.998739 
L 473.647298 -319.239203 
L 473.879816 -320.479667 
L 474.034619 -321.720131 
L 474.018744 -322.960595 
L 473.77286 -324.201059 
L 473.281687 -325.441523 
L 472.579035 -326.681987 
L 471.746048 -327.922451 
L 470.902226 -329.162915 
L 470.190093 -330.403379 
L 469.755621 -331.643843 
L 469.7275 -332.884307 
L 470.198739 -334.124771 
L 471.213732 -335.365234 
L 472.762965 -336.605698 
L 474.786029 -337.846162 
L 477.182023 -339.086626 
L 479.825039 -340.32709 
L 482.581647 -341.567554 
L 485.327184 -342.808018 
L 487.958259 -344.048482 
L 490.399978 -345.288946 
L 492.607603 -346.52941 
L 494.563534 -347.769874 
L 496.271175 -349.010338 
L 497.747555 -350.250802 
L 499.016373 -351.491266 
L 500.102645 -352.73173 
L 501.029484 -353.972194 
L 501.816971 -355.212658 
L 502.482592 -356.453122 
L 503.042539 -357.693586 
L 503.513089 -358.93405 
L 503.911509 -360.174514 
L 504.256141 -361.414978 
L 504.56564 -362.655442 
L 504.857582 -363.895906 
L 505.146823 -365.13637 
L 505.444031 -366.376834 
L 505.754748 -367.617298 
L 506.07921 -368.857762 
L 506.412941 -370.098226 
L 506.748004 -371.33869 
L 507.074617 -372.579154 
L 507.382841 -373.819618 
L 507.664048 -375.060082 
L 507.911946 -376.300546 
L 508.123083 -377.54101 
L 508.29685 -378.781474 
L 508.435075 -380.021938 
L 508.541376 -381.262402 
L 509.033624 -381.262402 
L 509.033624 -381.262402 
L 509.139925 -380.021938 
L 509.27815 -378.781474 
L 509.451917 -377.54101 
L 509.663054 -376.300546 
L 509.910952 -375.060082 
L 510.192159 -373.819618 
L 510.500383 -372.579154 
L 510.826996 -371.33869 
L 511.162059 -370.098226 
L 511.49579 -368.857762 
L 511.820252 -367.617298 
L 512.130969 -366.376834 
L 512.428177 -365.13637 
L 512.717418 -363.895906 
L 513.00936 -362.655442 
L 513.318859 -361.414978 
L 513.663491 -360.174514 
L 514.061911 -358.93405 
L 514.532461 -357.693586 
L 515.092408 -356.453122 
L 515.758029 -355.212658 
L 516.545516 -353.972194 
L 517.472355 -352.73173 
L 518.558627 -351.491266 
L 519.827445 -350.250802 
L 521.303825 -349.010338 
L 523.011466 -347.769874 
L 524.967397 -346.52941 
L 527.175022 -345.288946 
L 529.616741 -344.048482 
L 532.247816 -342.808018 
L 534.993353 -341.567554 
L 537.749961 -340.32709 
L 540.392977 -339.086626 
L 542.788971 -337.846162 
L 544.812035 -336.605698 
L 546.361268 -335.365234 
L 547.376261 -334.124771 
L 547.8475 -332.884307 
L 547.819379 -331.643843 
L 547.384907 -330.403379 
L 546.672774 -329.162915 
L 545.828952 -327.922451 
L 544.995965 -326.681987 
L 544.293313 -325.441523 
L 543.80214 -324.201059 
L 543.556256 -322.960595 
L 543.540381 -321.720131 
L 543.695184 -320.479667 
L 543.927702 -319.239203 
L 544.1251 -317.998739 
L 544.16959 -316.758275 
L 543.952583 -315.517811 
L 543.38657 -314.277347 
L 542.413793 -313.036883 
L 541.011244 -311.796419 
L 539.191941 -310.555955 
L 537.002667 -309.315491 
L 534.518637 -308.075027 
L 531.835702 -306.834563 
L 529.060934 -305.594099 
L 526.302558 -304.353635 
L 523.660335 -303.113171 
L 521.217428 -301.872707 
L 519.034635 -300.632243 
L 517.147533 -299.391779 
L 515.566669 -298.151315 
L 514.280507 -296.910851 
L 513.260459 -295.670387 
L 512.467118 -294.429923 
L 511.856677 -293.189459 
L 511.386681 -291.948995 
L 511.020405 -290.708531 
L 510.729489 -289.468067 
L 510.494774 -288.227603 
L 510.305548 -286.987139 
L 510.157619 -285.746675 
L 510.050737 -284.506211 
L 509.985891 -283.265747 
L 509.962944 -282.025283 
L 509.978937 -280.78482 
L 510.027249 -279.544356 
L 510.097675 -278.303892 
L 510.177306 -277.063428 
L 510.252009 -275.822964 
L 510.308211 -274.5825 
L 510.334664 -273.342036 
L 510.32386 -272.101572 
L 510.272867 -270.861108 
L 510.183453 -269.620644 
L 510.061513 -268.38018 
L 509.915929 -267.139716 
L 509.757131 -265.899252 
L 509.595606 -264.658788 
L 509.440626 -263.418324 
L 509.299362 -262.17786 
L 509.176468 -260.937396 
L 509.074092 -259.696932 
L 508.992237 -258.456468 
z
" style="stroke: #3d3d3d; stroke-opacity: 0.5"/>
    </defs>
    <g clip-path="url(#pbadfc68e33)">
     <use xlink:href="#me4bccda714" x="0" y="711.060318" style="fill: #3274a1; fill-opacity: 0.5; stroke: #3d3d3d; stroke-opacity: 0.5"/>
    </g>
   </g>
   <g id="PolyCollection_6">
    <defs>
     <path id="me5ac5faf95" d="M 607.120768 -174.660318 
L 605.754232 -174.660318 
L 605.51755 -179.751227 
L 605.215866 -184.842136 
L 604.837285 -189.933045 
L 604.369568 -195.023954 
L 603.800694 -200.114863 
L 603.11953 -205.205772 
L 602.316596 -210.296681 
L 601.38486 -215.38759 
L 600.320509 -220.478499 
L 599.123618 -225.569408 
L 597.798629 -230.660318 
L 596.354586 -235.751227 
L 594.805045 -240.842136 
L 593.167644 -245.933045 
L 591.463325 -251.023954 
L 589.715255 -256.114863 
L 587.947525 -261.205772 
L 586.183746 -266.296681 
L 584.445682 -271.38759 
L 582.75208 -276.478499 
L 581.117828 -281.569408 
L 579.553558 -286.660318 
L 578.065761 -291.751227 
L 576.657411 -296.842136 
L 575.329039 -301.933045 
L 574.080126 -307.023954 
L 572.91064 -312.114863 
L 571.822515 -317.205772 
L 570.820854 -322.296681 
L 569.914692 -327.38759 
L 569.117163 -332.478499 
L 568.445044 -337.569408 
L 567.917674 -342.660318 
L 567.555368 -347.751227 
L 567.3775 -352.842136 
L 567.400456 -357.933045 
L 567.635715 -363.023954 
L 568.088263 -368.114863 
L 568.755522 -373.205772 
L 569.626912 -378.296681 
L 570.68408 -383.38759 
L 571.90177 -388.478499 
L 573.249202 -393.569408 
L 574.691835 -398.660318 
L 576.193295 -403.751227 
L 577.717304 -408.842136 
L 579.229421 -413.933045 
L 580.698474 -419.023954 
L 582.097586 -424.114863 
L 583.404783 -429.205772 
L 584.60318 -434.296681 
L 585.680838 -439.38759 
L 586.630357 -444.478499 
L 587.448335 -449.569408 
L 588.134789 -454.660318 
L 588.692623 -459.751227 
L 589.127234 -464.842136 
L 589.446259 -469.933045 
L 589.659479 -475.023954 
L 589.77884 -480.114863 
L 589.818522 -485.205772 
L 589.794978 -490.296681 
L 589.726874 -495.38759 
L 589.634831 -500.478499 
L 589.540942 -505.569408 
L 589.468051 -510.660318 
L 589.438791 -515.751227 
L 589.474479 -520.842136 
L 589.593931 -525.933045 
L 589.812332 -531.023954 
L 590.14027 -536.114863 
L 590.583043 -541.205772 
L 591.140326 -546.296681 
L 591.806234 -551.38759 
L 592.569789 -556.478499 
L 593.415737 -561.569408 
L 594.325639 -566.660318 
L 595.27912 -571.751227 
L 596.255163 -576.842136 
L 597.23333 -581.933045 
L 598.194805 -587.023954 
L 599.123201 -592.114863 
L 600.005082 -597.205772 
L 600.830211 -602.296681 
L 601.591536 -607.38759 
L 602.284976 -612.478499 
L 602.909055 -617.569408 
L 603.464463 -622.660318 
L 603.953573 -627.751227 
L 604.379996 -632.842136 
L 604.748168 -637.933045 
L 605.063018 -643.023954 
L 605.329695 -648.114863 
L 605.553372 -653.205772 
L 605.739098 -658.296681 
L 605.891699 -663.38759 
L 606.01571 -668.478499 
L 606.115328 -673.569408 
L 606.194388 -678.660318 
L 606.680612 -678.660318 
L 606.680612 -678.660318 
L 606.759672 -673.569408 
L 606.85929 -668.478499 
L 606.983301 -663.38759 
L 607.135902 -658.296681 
L 607.321628 -653.205772 
L 607.545305 -648.114863 
L 607.811982 -643.023954 
L 608.126832 -637.933045 
L 608.495004 -632.842136 
L 608.921427 -627.751227 
L 609.410537 -622.660318 
L 609.965945 -617.569408 
L 610.590024 -612.478499 
L 611.283464 -607.38759 
L 612.044789 -602.296681 
L 612.869918 -597.205772 
L 613.751799 -592.114863 
L 614.680195 -587.023954 
L 615.64167 -581.933045 
L 616.619837 -576.842136 
L 617.59588 -571.751227 
L 618.549361 -566.660318 
L 619.459263 -561.569408 
L 620.305211 -556.478499 
L 621.068766 -551.38759 
L 621.734674 -546.296681 
L 622.291957 -541.205772 
L 622.73473 -536.114863 
L 623.062668 -531.023954 
L 623.281069 -525.933045 
L 623.400521 -520.842136 
L 623.436209 -515.751227 
L 623.406949 -510.660318 
L 623.334058 -505.569408 
L 623.240169 -500.478499 
L 623.148126 -495.38759 
L 623.080022 -490.296681 
L 623.056478 -485.205772 
L 623.09616 -480.114863 
L 623.215521 -475.023954 
L 623.428741 -469.933045 
L 623.747766 -464.842136 
L 624.182377 -459.751227 
L 624.740211 -454.660318 
L 625.426665 -449.569408 
L 626.244643 -444.478499 
L 627.194162 -439.38759 
L 628.27182 -434.296681 
L 629.470217 -429.205772 
L 630.777414 -424.114863 
L 632.176526 -419.023954 
L 633.645579 -413.933045 
L 635.157696 -408.842136 
L 636.681705 -403.751227 
L 638.183165 -398.660318 
L 639.625798 -393.569408 
L 640.97323 -388.478499 
L 642.19092 -383.38759 
L 643.248088 -378.296681 
L 644.119478 -373.205772 
L 644.786737 -368.114863 
L 645.239285 -363.023954 
L 645.474544 -357.933045 
L 645.4975 -352.842136 
L 645.319632 -347.751227 
L 644.957326 -342.660318 
L 644.429956 -337.569408 
L 643.757837 -332.478499 
L 642.960308 -327.38759 
L 642.054146 -322.296681 
L 641.052485 -317.205772 
L 639.96436 -312.114863 
L 638.794874 -307.023954 
L 637.545961 -301.933045 
L 636.217589 -296.842136 
L 634.809239 -291.751227 
L 633.321442 -286.660318 
L 631.757172 -281.569408 
L 630.12292 -276.478499 
L 628.429318 -271.38759 
L 626.691254 -266.296681 
L 624.927475 -261.205772 
L 623.159745 -256.114863 
L 621.411675 -251.023954 
L 619.707356 -245.933045 
L 618.069955 -240.842136 
L 616.520414 -235.751227 
L 615.076371 -230.660318 
L 613.751382 -225.569408 
L 612.554491 -220.478499 
L 611.49014 -215.38759 
L 610.558404 -210.296681 
L 609.75547 -205.205772 
L 609.074306 -200.114863 
L 608.505432 -195.023954 
L 608.037715 -189.933045 
L 607.659134 -184.842136 
L 607.35745 -179.751227 
L 607.120768 -174.660318 
z
" style="stroke: #3d3d3d; stroke-opacity: 0.5"/>
    </defs>
    <g clip-path="url(#pbadfc68e33)">
     <use xlink:href="#me5ac5faf95" x="0" y="711.060318" style="fill: #e1812c; fill-opacity: 0.5; stroke: #3d3d3d; stroke-opacity: 0.5"/>
    </g>
   </g>
   <g id="PolyCollection_7">
    <defs>
     <path id="m609eae6d18" d="M 704.210292 -258.411329 
L 703.964708 -258.411329 
L 703.917544 -261.369312 
L 703.858896 -264.327296 
L 703.788658 -267.285279 
L 703.707782 -270.243262 
L 703.618458 -273.201245 
L 703.524121 -276.159229 
L 703.429257 -279.117212 
L 703.338976 -282.075195 
L 703.258391 -285.033178 
L 703.191879 -287.991161 
L 703.142329 -290.949145 
L 703.110533 -293.907128 
L 703.094819 -296.865111 
L 703.091026 -299.823094 
L 703.092836 -302.781078 
L 703.09242 -305.739061 
L 703.081296 -308.697044 
L 703.051263 -311.655027 
L 702.995278 -314.61301 
L 702.908175 -317.570994 
L 702.787158 -320.528977 
L 702.632084 -323.48696 
L 702.445558 -326.444943 
L 702.232906 -329.402927 
L 702.002038 -332.36091 
L 701.763211 -335.318893 
L 701.528635 -338.276876 
L 701.311853 -341.234859 
L 701.126834 -344.192843 
L 700.986774 -347.150826 
L 700.902693 -350.108809 
L 700.881976 -353.066792 
L 700.927127 -356.024776 
L 701.034953 -358.982759 
L 701.196396 -361.940742 
L 701.397109 -364.898725 
L 701.618697 -367.856709 
L 701.840486 -370.814692 
L 702.041509 -373.772675 
L 702.202426 -376.730658 
L 702.307102 -379.688641 
L 702.34367 -382.646625 
L 702.305002 -385.604608 
L 702.188616 -388.562591 
L 701.996126 -391.520574 
L 701.732347 -394.478558 
L 701.404164 -397.436541 
L 701.019237 -400.394524 
L 700.584545 -403.352507 
L 700.104783 -406.31049 
L 699.580616 -409.268474 
L 699.006884 -412.226457 
L 698.370935 -415.18444 
L 697.651392 -418.142423 
L 696.817768 -421.100407 
L 695.831346 -424.05839 
L 694.647741 -427.016373 
L 693.221337 -429.974356 
L 691.511525 -432.932339 
L 689.490311 -435.890323 
L 687.150432 -438.848306 
L 684.512797 -441.806289 
L 681.63188 -444.764272 
L 678.597741 -447.722256 
L 675.533641 -450.680239 
L 672.588856 -453.638222 
L 669.927036 -456.596205 
L 667.711271 -459.554188 
L 666.087737 -462.512172 
L 665.170182 -465.470155 
L 665.0275 -468.428138 
L 665.676246 -471.386121 
L 667.079146 -474.344105 
L 669.149727 -477.302088 
L 671.762224 -480.260071 
L 674.765174 -483.218054 
L 677.996672 -486.176037 
L 681.299198 -489.134021 
L 684.53223 -492.092004 
L 687.581384 -495.049987 
L 690.363479 -498.00797 
L 692.827596 -500.965954 
L 694.9527 -503.923937 
L 696.742759 -506.88192 
L 698.220452 -509.839903 
L 699.420496 -512.797886 
L 700.383458 -515.75587 
L 701.150661 -518.713853 
L 701.760496 -521.671836 
L 702.246187 -524.629819 
L 702.634865 -527.587803 
L 702.947646 -530.545786 
L 703.200382 -533.503769 
L 703.404734 -536.461752 
L 703.569315 -539.419735 
L 703.700689 -542.377719 
L 703.80414 -545.335702 
L 703.884177 -548.293685 
L 703.944818 -551.251668 
L 704.230182 -551.251668 
L 704.230182 -551.251668 
L 704.290823 -548.293685 
L 704.37086 -545.335702 
L 704.474311 -542.377719 
L 704.605685 -539.419735 
L 704.770266 -536.461752 
L 704.974618 -533.503769 
L 705.227354 -530.545786 
L 705.540135 -527.587803 
L 705.928813 -524.629819 
L 706.414504 -521.671836 
L 707.024339 -518.713853 
L 707.791542 -515.75587 
L 708.754504 -512.797886 
L 709.954548 -509.839903 
L 711.432241 -506.88192 
L 713.2223 -503.923937 
L 715.347404 -500.965954 
L 717.811521 -498.00797 
L 720.593616 -495.049987 
L 723.64277 -492.092004 
L 726.875802 -489.134021 
L 730.178328 -486.176037 
L 733.409826 -483.218054 
L 736.412776 -480.260071 
L 739.025273 -477.302088 
L 741.095854 -474.344105 
L 742.498754 -471.386121 
L 743.1475 -468.428138 
L 743.004818 -465.470155 
L 742.087263 -462.512172 
L 740.463729 -459.554188 
L 738.247964 -456.596205 
L 735.586144 -453.638222 
L 732.641359 -450.680239 
L 729.577259 -447.722256 
L 726.54312 -444.764272 
L 723.662203 -441.806289 
L 721.024568 -438.848306 
L 718.684689 -435.890323 
L 716.663475 -432.932339 
L 714.953663 -429.974356 
L 713.527259 -427.016373 
L 712.343654 -424.05839 
L 711.357232 -421.100407 
L 710.523608 -418.142423 
L 709.804065 -415.18444 
L 709.168116 -412.226457 
L 708.594384 -409.268474 
L 708.070217 -406.31049 
L 707.590455 -403.352507 
L 707.155763 -400.394524 
L 706.770836 -397.436541 
L 706.442653 -394.478558 
L 706.178874 -391.520574 
L 705.986384 -388.562591 
L 705.869998 -385.604608 
L 705.83133 -382.646625 
L 705.867898 -379.688641 
L 705.972574 -376.730658 
L 706.133491 -373.772675 
L 706.334514 -370.814692 
L 706.556303 -367.856709 
L 706.777891 -364.898725 
L 706.978604 -361.940742 
L 707.140047 -358.982759 
L 707.247873 -356.024776 
L 707.293024 -353.066792 
L 707.272307 -350.108809 
L 707.188226 -347.150826 
L 707.048166 -344.192843 
L 706.863147 -341.234859 
L 706.646365 -338.276876 
L 706.411789 -335.318893 
L 706.172962 -332.36091 
L 705.942094 -329.402927 
L 705.729442 -326.444943 
L 705.542916 -323.48696 
L 705.387842 -320.528977 
L 705.266825 -317.570994 
L 705.179722 -314.61301 
L 705.123737 -311.655027 
L 705.093704 -308.697044 
L 705.08258 -305.739061 
L 705.082164 -302.781078 
L 705.083974 -299.823094 
L 705.080181 -296.865111 
L 705.064467 -293.907128 
L 705.032671 -290.949145 
L 704.983121 -287.991161 
L 704.916609 -285.033178 
L 704.836024 -282.075195 
L 704.745743 -279.117212 
L 704.650879 -276.159229 
L 704.556542 -273.201245 
L 704.467218 -270.243262 
L 704.386342 -267.285279 
L 704.316104 -264.327296 
L 704.257456 -261.369312 
L 704.210292 -258.411329 
z
" style="stroke: #3d3d3d; stroke-opacity: 0.5"/>
    </defs>
    <g clip-path="url(#pbadfc68e33)">
     <use xlink:href="#m609eae6d18" x="0" y="711.060318" style="fill: #3a923a; fill-opacity: 0.5; stroke: #3d3d3d; stroke-opacity: 0.5"/>
    </g>
   </g>
   <g id="PolyCollection_8">
    <defs>
     <path id="mbc7207d3e4" d="M 801.897738 -249.955446 
L 801.577262 -249.955446 
L 801.512677 -254.237172 
L 801.431809 -258.518898 
L 801.334698 -262.800625 
L 801.223138 -267.082351 
L 801.100979 -271.364077 
L 800.97415 -275.645803 
L 800.85034 -279.92753 
L 800.738311 -284.209256 
L 800.646913 -288.490982 
L 800.58394 -292.772708 
L 800.555038 -297.054435 
L 800.562869 -301.336161 
L 800.606707 -305.617887 
L 800.682551 -309.899613 
L 800.783721 -314.181339 
L 800.901837 -318.463066 
L 801.027951 -322.744792 
L 801.153647 -327.026518 
L 801.271916 -331.308244 
L 801.377683 -335.589971 
L 801.467978 -339.871697 
L 801.541769 -344.153423 
L 801.599574 -348.435149 
L 801.642953 -352.716875 
L 801.673982 -356.998602 
L 801.694792 -361.280328 
L 801.707185 -365.562054 
L 801.712362 -369.84378 
L 801.710712 -374.125507 
L 801.701668 -378.407233 
L 801.683603 -382.688959 
L 801.653767 -386.970685 
L 801.608292 -391.252411 
L 801.542301 -395.534138 
L 801.450169 -399.815864 
L 801.325966 -404.09759 
L 801.164101 -408.379316 
L 800.960118 -412.661043 
L 800.711566 -416.942769 
L 800.418802 -421.224495 
L 800.085568 -425.506221 
L 799.719167 -429.787948 
L 799.330149 -434.069674 
L 798.93145 -438.3514 
L 798.537082 -442.633126 
L 798.160512 -446.914852 
L 797.81298 -451.196579 
L 797.501961 -455.478305 
L 797.229958 -459.760031 
L 796.993697 -464.041757 
L 796.7837 -468.323484 
L 796.584164 -472.60521 
L 796.37307 -476.886936 
L 796.122518 -481.168662 
L 795.799431 -485.450388 
L 795.36686 -489.732115 
L 794.786181 -494.013841 
L 794.020397 -498.295567 
L 793.038497 -502.577293 
L 791.82053 -506.85902 
L 790.362639 -511.140746 
L 788.681033 -515.422472 
L 786.813758 -519.704198 
L 784.819351 -523.985925 
L 782.771881 -528.267651 
L 780.752621 -532.549377 
L 778.839365 -536.831103 
L 777.095066 -541.112829 
L 775.557912 -545.394556 
L 774.234897 -549.676282 
L 773.100537 -553.958008 
L 772.101504 -558.239734 
L 771.166898 -562.521461 
L 770.222769 -566.803187 
L 769.208592 -571.084913 
L 768.092841 -575.366639 
L 766.884749 -579.648365 
L 765.639799 -583.930092 
L 764.457418 -588.211818 
L 763.470668 -592.493544 
L 762.82912 -596.77527 
L 762.6775 -601.056997 
L 763.133549 -605.338723 
L 764.268938 -609.620449 
L 766.096593 -613.902175 
L 768.566666 -618.183902 
L 771.571788 -622.465628 
L 774.96049 -626.747354 
L 778.55618 -631.02908 
L 782.178248 -635.310806 
L 785.661703 -639.592533 
L 788.872439 -643.874259 
L 791.716349 -648.155985 
L 794.141871 -652.437711 
L 796.13677 -656.719438 
L 797.720789 -661.001164 
L 798.936171 -665.28289 
L 799.837923 -669.564616 
L 800.485258 -673.846342 
L 802.989742 -673.846342 
L 802.989742 -673.846342 
L 803.637077 -669.564616 
L 804.538829 -665.28289 
L 805.754211 -661.001164 
L 807.33823 -656.719438 
L 809.333129 -652.437711 
L 811.758651 -648.155985 
L 814.602561 -643.874259 
L 817.813297 -639.592533 
L 821.296752 -635.310806 
L 824.91882 -631.02908 
L 828.51451 -626.747354 
L 831.903212 -622.465628 
L 834.908334 -618.183902 
L 837.378407 -613.902175 
L 839.206062 -609.620449 
L 840.341451 -605.338723 
L 840.7975 -601.056997 
L 840.64588 -596.77527 
L 840.004332 -592.493544 
L 839.017582 -588.211818 
L 837.835201 -583.930092 
L 836.590251 -579.648365 
L 835.382159 -575.366639 
L 834.266408 -571.084913 
L 833.252231 -566.803187 
L 832.308102 -562.521461 
L 831.373496 -558.239734 
L 830.374463 -553.958008 
L 829.240103 -549.676282 
L 827.917088 -545.394556 
L 826.379934 -541.112829 
L 824.635635 -536.831103 
L 822.722379 -532.549377 
L 820.703119 -528.267651 
L 818.655649 -523.985925 
L 816.661242 -519.704198 
L 814.793967 -515.422472 
L 813.112361 -511.140746 
L 811.65447 -506.85902 
L 810.436503 -502.577293 
L 809.454603 -498.295567 
L 808.688819 -494.013841 
L 808.10814 -489.732115 
L 807.675569 -485.450388 
L 807.352482 -481.168662 
L 807.10193 -476.886936 
L 806.890836 -472.60521 
L 806.6913 -468.323484 
L 806.481303 -464.041757 
L 806.245042 -459.760031 
L 805.973039 -455.478305 
L 805.66202 -451.196579 
L 805.314488 -446.914852 
L 804.937918 -442.633126 
L 804.54355 -438.3514 
L 804.144851 -434.069674 
L 803.755833 -429.787948 
L 803.389432 -425.506221 
L 803.056198 -421.224495 
L 802.763434 -416.942769 
L 802.514882 -412.661043 
L 802.310899 -408.379316 
L 802.149034 -404.09759 
L 802.024831 -399.815864 
L 801.932699 -395.534138 
L 801.866708 -391.252411 
L 801.821233 -386.970685 
L 801.791397 -382.688959 
L 801.773332 -378.407233 
L 801.764288 -374.125507 
L 801.762638 -369.84378 
L 801.767815 -365.562054 
L 801.780208 -361.280328 
L 801.801018 -356.998602 
L 801.832047 -352.716875 
L 801.875426 -348.435149 
L 801.933231 -344.153423 
L 802.007022 -339.871697 
L 802.097317 -335.589971 
L 802.203084 -331.308244 
L 802.321353 -327.026518 
L 802.447049 -322.744792 
L 802.573163 -318.463066 
L 802.691279 -314.181339 
L 802.792449 -309.899613 
L 802.868293 -305.617887 
L 802.912131 -301.336161 
L 802.919962 -297.054435 
L 802.89106 -292.772708 
L 802.828087 -288.490982 
L 802.736689 -284.209256 
L 802.62466 -279.92753 
L 802.50085 -275.645803 
L 802.374021 -271.364077 
L 802.251862 -267.082351 
L 802.140302 -262.800625 
L 802.043191 -258.518898 
L 801.962323 -254.237172 
L 801.897738 -249.955446 
z
" style="stroke: #3d3d3d; stroke-opacity: 0.5"/>
    </defs>
    <g clip-path="url(#pbadfc68e33)">
     <use xlink:href="#mbc7207d3e4" x="0" y="711.060318" style="fill: #c03d3e; fill-opacity: 0.5; stroke: #3d3d3d; stroke-opacity: 0.5"/>
    </g>
   </g>
   <g id="line2d_7">
    <path d="M 118.1875 202.171627 
L 118.1875 79.383284 
" clip-path="url(#pbadfc68e33)" style="fill: none; stroke: #3d3d3d; stroke-width: 1.5; stroke-linecap: round"/>
   </g>
   <g id="line2d_8">
    <path d="M 118.1875 161.806641 
L 118.1875 110.636317 
" clip-path="url(#pbadfc68e33)" style="fill: none; stroke: #3d3d3d; stroke-width: 4.5; stroke-linecap: round"/>
   </g>
   <g id="line2d_9">
    <path d="M 118.1875 130.861989 
" clip-path="url(#pbadfc68e33)" style="fill: none; stroke: #3d3d3d; stroke-width: 1.5; stroke-linecap: round"/>
    <defs>
     <path id="m8ef050221a" d="M 1.875 0 
L -1.875 -0 
" style="stroke: #ffffff; stroke-width: 0.9"/>
    </defs>
    <g clip-path="url(#pbadfc68e33)">
     <use xlink:href="#m8ef050221a" x="118.1875" y="130.861989" style="fill: #ffffff; stroke: #ffffff; stroke-width: 0.9"/>
    </g>
   </g>
   <g id="line2d_10">
    <path d="M 215.8375 423.390295 
L 215.8375 276.785327 
" clip-path="url(#pbadfc68e33)" style="fill: none; stroke: #3d3d3d; stroke-width: 1.5; stroke-linecap: round"/>
   </g>
   <g id="line2d_11">
    <path d="M 215.8375 383.687633 
L 215.8375 330.447604 
" clip-path="url(#pbadfc68e33)" style="fill: none; stroke: #3d3d3d; stroke-width: 4.5; stroke-linecap: round"/>
   </g>
   <g id="line2d_12">
    <path d="M 215.8375 369.870924 
" clip-path="url(#pbadfc68e33)" style="fill: none; stroke: #3d3d3d; stroke-width: 1.5; stroke-linecap: round"/>
    <g clip-path="url(#pbadfc68e33)">
     <use xlink:href="#m8ef050221a" x="215.8375" y="369.870924" style="fill: #ffffff; stroke: #ffffff; stroke-width: 0.9"/>
    </g>
   </g>
   <g id="line2d_13">
    <path d="M 313.4875 205.721924 
L 313.4875 197.466512 
" clip-path="url(#pbadfc68e33)" style="fill: none; stroke: #3d3d3d; stroke-width: 1.5; stroke-linecap: round"/>
   </g>
   <g id="line2d_14">
    <path d="M 313.4875 202.620593 
L 313.4875 200.17825 
" clip-path="url(#pbadfc68e33)" style="fill: none; stroke: #3d3d3d; stroke-width: 4.5; stroke-linecap: round"/>
   </g>
   <g id="line2d_15">
    <path d="M 313.4875 201.399427 
" clip-path="url(#pbadfc68e33)" style="fill: none; stroke: #3d3d3d; stroke-width: 1.5; stroke-linecap: round"/>
    <g clip-path="url(#pbadfc68e33)">
     <use xlink:href="#m8ef050221a" x="313.4875" y="201.399427" style="fill: #ffffff; stroke: #ffffff; stroke-width: 0.9"/>
    </g>
   </g>
   <g id="line2d_16">
    <path d="M 411.1375 212.16695 
L 411.1375 90.799416 
" clip-path="url(#pbadfc68e33)" style="fill: none; stroke: #3d3d3d; stroke-width: 1.5; stroke-linecap: round"/>
   </g>
   <g id="line2d_17">
    <path d="M 411.1375 149.88442 
L 411.1375 107.054436 
" clip-path="url(#pbadfc68e33)" style="fill: none; stroke: #3d3d3d; stroke-width: 4.5; stroke-linecap: round"/>
   </g>
   <g id="line2d_18">
    <path d="M 411.1375 126.110472 
" clip-path="url(#pbadfc68e33)" style="fill: none; stroke: #3d3d3d; stroke-width: 1.5; stroke-linecap: round"/>
    <g clip-path="url(#pbadfc68e33)">
     <use xlink:href="#m8ef050221a" x="411.1375" y="126.110472" style="fill: #ffffff; stroke: #ffffff; stroke-width: 0.9"/>
    </g>
   </g>
   <g id="line2d_19">
    <path d="M 508.7875 418.931381 
L 508.7875 348.785931 
" clip-path="url(#pbadfc68e33)" style="fill: none; stroke: #3d3d3d; stroke-width: 1.5; stroke-linecap: round"/>
   </g>
   <g id="line2d_20">
    <path d="M 508.7875 396.820523 
L 508.7875 376.317529 
" clip-path="url(#pbadfc68e33)" style="fill: none; stroke: #3d3d3d; stroke-width: 4.5; stroke-linecap: round"/>
   </g>
   <g id="line2d_21">
    <path d="M 508.7875 383.076282 
" clip-path="url(#pbadfc68e33)" style="fill: none; stroke: #3d3d3d; stroke-width: 1.5; stroke-linecap: round"/>
    <g clip-path="url(#pbadfc68e33)">
     <use xlink:href="#m8ef050221a" x="508.7875" y="383.076282" style="fill: #ffffff; stroke: #ffffff; stroke-width: 0.9"/>
    </g>
   </g>
   <g id="line2d_22">
    <path d="M 606.4375 457.175672 
L 606.4375 111.624328 
" clip-path="url(#pbadfc68e33)" style="fill: none; stroke: #3d3d3d; stroke-width: 1.5; stroke-linecap: round"/>
   </g>
   <g id="line2d_23">
    <path d="M 606.4375 385.837608 
L 606.4375 252.998454 
" clip-path="url(#pbadfc68e33)" style="fill: none; stroke: #3d3d3d; stroke-width: 4.5; stroke-linecap: round"/>
   </g>
   <g id="line2d_24">
    <path d="M 606.4375 340.57923 
" clip-path="url(#pbadfc68e33)" style="fill: none; stroke: #3d3d3d; stroke-width: 1.5; stroke-linecap: round"/>
    <g clip-path="url(#pbadfc68e33)">
     <use xlink:href="#m8ef050221a" x="606.4375" y="340.57923" style="fill: #ffffff; stroke: #ffffff; stroke-width: 0.9"/>
    </g>
   </g>
   <g id="line2d_25">
    <path d="M 704.0875 274.254997 
L 704.0875 222.588541 
" clip-path="url(#pbadfc68e33)" style="fill: none; stroke: #3d3d3d; stroke-width: 1.5; stroke-linecap: round"/>
   </g>
   <g id="line2d_26">
    <path d="M 704.0875 254.204618 
L 704.0875 237.551875 
" clip-path="url(#pbadfc68e33)" style="fill: none; stroke: #3d3d3d; stroke-width: 4.5; stroke-linecap: round"/>
   </g>
   <g id="line2d_27">
    <path d="M 704.0875 246.425144 
" clip-path="url(#pbadfc68e33)" style="fill: none; stroke: #3d3d3d; stroke-width: 1.5; stroke-linecap: round"/>
    <g clip-path="url(#pbadfc68e33)">
     <use xlink:href="#m8ef050221a" x="704.0875" y="246.425144" style="fill: #ffffff; stroke: #ffffff; stroke-width: 0.9"/>
    </g>
   </g>
   <g id="line2d_28">
    <path d="M 801.7375 254.061163 
L 801.7375 85.547488 
" clip-path="url(#pbadfc68e33)" style="fill: none; stroke: #3d3d3d; stroke-width: 1.5; stroke-linecap: round"/>
   </g>
   <g id="line2d_29">
    <path d="M 801.7375 164.756032 
L 801.7375 103.936421 
" clip-path="url(#pbadfc68e33)" style="fill: none; stroke: #3d3d3d; stroke-width: 4.5; stroke-linecap: round"/>
   </g>
   <g id="line2d_30">
    <path d="M 801.7375 125.331927 
" clip-path="url(#pbadfc68e33)" style="fill: none; stroke: #3d3d3d; stroke-width: 1.5; stroke-linecap: round"/>
    <g clip-path="url(#pbadfc68e33)">
     <use xlink:href="#m8ef050221a" x="801.7375" y="125.331927" style="fill: #ffffff; stroke: #ffffff; stroke-width: 0.9"/>
    </g>
   </g>
   <g id="patch_3">
    <path d="M 69.3625 561.6 
L 850.5625 561.6 
" style="fill: none; stroke: #cccccc; stroke-width: 0.8; stroke-linejoin: miter; stroke-linecap: square"/>
   </g>
  </g>
 </g>
 <defs>
  <clipPath id="pbadfc68e33">
   <rect x="69.3625" y="7.2" width="781.2" height="554.4"/>
  </clipPath>
 </defs>
</svg>
