<?xml version="1.0" encoding="utf-8" standalone="no"?>
<!DOCTYPE svg PUBLIC "-//W3C//DTD SVG 1.1//EN"
  "http://www.w3.org/Graphics/SVG/1.1/DTD/svg11.dtd">
<svg xmlns:xlink="http://www.w3.org/1999/xlink" width="857.7625pt" height="711.060318pt" viewBox="0 0 857.7625 711.060318" xmlns="http://www.w3.org/2000/svg" version="1.1">
 <metadata>
  <rdf:RDF xmlns:dc="http://purl.org/dc/elements/1.1/" xmlns:cc="http://creativecommons.org/ns#" xmlns:rdf="http://www.w3.org/1999/02/22-rdf-syntax-ns#">
   <cc:Work>
    <dc:type rdf:resource="http://purl.org/dc/dcmitype/StillImage"/>
    <dc:date>2024-03-14T15:47:15.635707</dc:date>
    <dc:format>image/svg+xml</dc:format>
    <dc:creator>
     <cc:Agent>
      <dc:title>Matplotlib v3.8.0, https://matplotlib.org/</dc:title>
     </cc:Agent>
    </dc:creator>
   </cc:Work>
  </rdf:RDF>
 </metadata>
 <defs>
  <style type="text/css">*{stroke-linejoin: round; stroke-linecap: butt}</style>
 </defs>
 <g id="figure_1">
  <g id="patch_1">
   <path d="M 0 711.060318 
L 857.7625 711.060318 
L 857.7625 0 
L 0 0 
L 0 711.060318 
z
" style="fill: none"/>
  </g>
  <g id="axes_1">
   <g id="patch_2">
    <path d="M 69.3625 561.6 
L 850.5625 561.6 
L 850.5625 7.2 
L 69.3625 7.2 
L 69.3625 561.6 
z
" style="fill: none"/>
   </g>
   <g id="matplotlib.axis_1">
    <g id="xtick_1">
     <g id="text_1">
      <!-- MSA -->
      <g style="fill: #262626" transform="translate(97.813986 610.465141) rotate(-45) scale(0.2 -0.2)">
       <defs>
        <path id="DejaVuSans-4d" d="M 628 4666 
L 1569 4666 
L 2759 1491 
L 3956 4666 
L 4897 4666 
L 4897 0 
L 4281 0 
L 4281 4097 
L 3078 897 
L 2444 897 
L 1241 4097 
L 1241 0 
L 628 0 
L 628 4666 
z
" transform="scale(0.015625)"/>
        <path id="DejaVuSans-53" d="M 3425 4513 
L 3425 3897 
Q 3066 4069 2747 4153 
Q 2428 4238 2131 4238 
Q 1616 4238 1336 4038 
Q 1056 3838 1056 3469 
Q 1056 3159 1242 3001 
Q 1428 2844 1947 2747 
L 2328 2669 
Q 3034 2534 3370 2195 
Q 3706 1856 3706 1288 
Q 3706 609 3251 259 
Q 2797 -91 1919 -91 
Q 1588 -91 1214 -16 
Q 841 59 441 206 
L 441 856 
Q 825 641 1194 531 
Q 1563 422 1919 422 
Q 2459 422 2753 634 
Q 3047 847 3047 1241 
Q 3047 1584 2836 1778 
Q 2625 1972 2144 2069 
L 1759 2144 
Q 1053 2284 737 2584 
Q 422 2884 422 3419 
Q 422 4038 858 4394 
Q 1294 4750 2059 4750 
Q 2388 4750 2728 4690 
Q 3069 4631 3425 4513 
z
" transform="scale(0.015625)"/>
        <path id="DejaVuSans-41" d="M 2188 4044 
L 1331 1722 
L 3047 1722 
L 2188 4044 
z
M 1831 4666 
L 2547 4666 
L 4325 0 
L 3669 0 
L 3244 1197 
L 1141 1197 
L 716 0 
L 50 0 
L 1831 4666 
z
" transform="scale(0.015625)"/>
       </defs>
       <use xlink:href="#DejaVuSans-4d"/>
       <use xlink:href="#DejaVuSans-53" x="86.279297"/>
       <use xlink:href="#DejaVuSans-41" x="151.630859"/>
      </g>
     </g>
    </g>
    <g id="xtick_2">
     <g id="text_2">
      <!-- Single -->
      <g style="fill: #262626" transform="translate(183.105085 622.824042) rotate(-45) scale(0.2 -0.2)">
       <defs>
        <path id="DejaVuSans-69" d="M 603 3500 
L 1178 3500 
L 1178 0 
L 603 0 
L 603 3500 
z
M 603 4863 
L 1178 4863 
L 1178 4134 
L 603 4134 
L 603 4863 
z
" transform="scale(0.015625)"/>
        <path id="DejaVuSans-6e" d="M 3513 2113 
L 3513 0 
L 2938 0 
L 2938 2094 
Q 2938 2591 2744 2837 
Q 2550 3084 2163 3084 
Q 1697 3084 1428 2787 
Q 1159 2491 1159 1978 
L 1159 0 
L 581 0 
L 581 3500 
L 1159 3500 
L 1159 2956 
Q 1366 3272 1645 3428 
Q 1925 3584 2291 3584 
Q 2894 3584 3203 3211 
Q 3513 2838 3513 2113 
z
" transform="scale(0.015625)"/>
        <path id="DejaVuSans-67" d="M 2906 1791 
Q 2906 2416 2648 2759 
Q 2391 3103 1925 3103 
Q 1463 3103 1205 2759 
Q 947 2416 947 1791 
Q 947 1169 1205 825 
Q 1463 481 1925 481 
Q 2391 481 2648 825 
Q 2906 1169 2906 1791 
z
M 3481 434 
Q 3481 -459 3084 -895 
Q 2688 -1331 1869 -1331 
Q 1566 -1331 1297 -1286 
Q 1028 -1241 775 -1147 
L 775 -588 
Q 1028 -725 1275 -790 
Q 1522 -856 1778 -856 
Q 2344 -856 2625 -561 
Q 2906 -266 2906 331 
L 2906 616 
Q 2728 306 2450 153 
Q 2172 0 1784 0 
Q 1141 0 747 490 
Q 353 981 353 1791 
Q 353 2603 747 3093 
Q 1141 3584 1784 3584 
Q 2172 3584 2450 3431 
Q 2728 3278 2906 2969 
L 2906 3500 
L 3481 3500 
L 3481 434 
z
" transform="scale(0.015625)"/>
        <path id="DejaVuSans-6c" d="M 603 4863 
L 1178 4863 
L 1178 0 
L 603 0 
L 603 4863 
z
" transform="scale(0.015625)"/>
        <path id="DejaVuSans-65" d="M 3597 1894 
L 3597 1613 
L 953 1613 
Q 991 1019 1311 708 
Q 1631 397 2203 397 
Q 2534 397 2845 478 
Q 3156 559 3463 722 
L 3463 178 
Q 3153 47 2828 -22 
Q 2503 -91 2169 -91 
Q 1331 -91 842 396 
Q 353 884 353 1716 
Q 353 2575 817 3079 
Q 1281 3584 2069 3584 
Q 2775 3584 3186 3129 
Q 3597 2675 3597 1894 
z
M 3022 2063 
Q 3016 2534 2758 2815 
Q 2500 3097 2075 3097 
Q 1594 3097 1305 2825 
Q 1016 2553 972 2059 
L 3022 2063 
z
" transform="scale(0.015625)"/>
       </defs>
       <use xlink:href="#DejaVuSans-53"/>
       <use xlink:href="#DejaVuSans-69" x="63.476562"/>
       <use xlink:href="#DejaVuSans-6e" x="91.259766"/>
       <use xlink:href="#DejaVuSans-67" x="154.638672"/>
       <use xlink:href="#DejaVuSans-6c" x="218.115234"/>
       <use xlink:href="#DejaVuSans-65" x="245.898438"/>
      </g>
     </g>
    </g>
    <g id="xtick_3">
     <g id="text_3">
      <!-- Gaussian -->
      <g style="fill: #262626" transform="translate(259.354056 644.22507) rotate(-45) scale(0.2 -0.2)">
       <defs>
        <path id="DejaVuSans-47" d="M 3809 666 
L 3809 1919 
L 2778 1919 
L 2778 2438 
L 4434 2438 
L 4434 434 
Q 4069 175 3628 42 
Q 3188 -91 2688 -91 
Q 1594 -91 976 548 
Q 359 1188 359 2328 
Q 359 3472 976 4111 
Q 1594 4750 2688 4750 
Q 3144 4750 3555 4637 
Q 3966 4525 4313 4306 
L 4313 3634 
Q 3963 3931 3569 4081 
Q 3175 4231 2741 4231 
Q 1884 4231 1454 3753 
Q 1025 3275 1025 2328 
Q 1025 1384 1454 906 
Q 1884 428 2741 428 
Q 3075 428 3337 486 
Q 3600 544 3809 666 
z
" transform="scale(0.015625)"/>
        <path id="DejaVuSans-61" d="M 2194 1759 
Q 1497 1759 1228 1600 
Q 959 1441 959 1056 
Q 959 750 1161 570 
Q 1363 391 1709 391 
Q 2188 391 2477 730 
Q 2766 1069 2766 1631 
L 2766 1759 
L 2194 1759 
z
M 3341 1997 
L 3341 0 
L 2766 0 
L 2766 531 
Q 2569 213 2275 61 
Q 1981 -91 1556 -91 
Q 1019 -91 701 211 
Q 384 513 384 1019 
Q 384 1609 779 1909 
Q 1175 2209 1959 2209 
L 2766 2209 
L 2766 2266 
Q 2766 2663 2505 2880 
Q 2244 3097 1772 3097 
Q 1472 3097 1187 3025 
Q 903 2953 641 2809 
L 641 3341 
Q 956 3463 1253 3523 
Q 1550 3584 1831 3584 
Q 2591 3584 2966 3190 
Q 3341 2797 3341 1997 
z
" transform="scale(0.015625)"/>
        <path id="DejaVuSans-75" d="M 544 1381 
L 544 3500 
L 1119 3500 
L 1119 1403 
Q 1119 906 1312 657 
Q 1506 409 1894 409 
Q 2359 409 2629 706 
Q 2900 1003 2900 1516 
L 2900 3500 
L 3475 3500 
L 3475 0 
L 2900 0 
L 2900 538 
Q 2691 219 2414 64 
Q 2138 -91 1772 -91 
Q 1169 -91 856 284 
Q 544 659 544 1381 
z
M 1991 3584 
L 1991 3584 
z
" transform="scale(0.015625)"/>
        <path id="DejaVuSans-73" d="M 2834 3397 
L 2834 2853 
Q 2591 2978 2328 3040 
Q 2066 3103 1784 3103 
Q 1356 3103 1142 2972 
Q 928 2841 928 2578 
Q 928 2378 1081 2264 
Q 1234 2150 1697 2047 
L 1894 2003 
Q 2506 1872 2764 1633 
Q 3022 1394 3022 966 
Q 3022 478 2636 193 
Q 2250 -91 1575 -91 
Q 1294 -91 989 -36 
Q 684 19 347 128 
L 347 722 
Q 666 556 975 473 
Q 1284 391 1588 391 
Q 1994 391 2212 530 
Q 2431 669 2431 922 
Q 2431 1156 2273 1281 
Q 2116 1406 1581 1522 
L 1381 1569 
Q 847 1681 609 1914 
Q 372 2147 372 2553 
Q 372 3047 722 3315 
Q 1072 3584 1716 3584 
Q 2034 3584 2315 3537 
Q 2597 3491 2834 3397 
z
" transform="scale(0.015625)"/>
       </defs>
       <use xlink:href="#DejaVuSans-47"/>
       <use xlink:href="#DejaVuSans-61" x="77.490234"/>
       <use xlink:href="#DejaVuSans-75" x="138.769531"/>
       <use xlink:href="#DejaVuSans-73" x="202.148438"/>
       <use xlink:href="#DejaVuSans-73" x="254.248047"/>
       <use xlink:href="#DejaVuSans-69" x="306.347656"/>
       <use xlink:href="#DejaVuSans-61" x="334.130859"/>
       <use xlink:href="#DejaVuSans-6e" x="395.410156"/>
      </g>
     </g>
    </g>
    <g id="xtick_4">
     <g id="text_4">
      <!-- Gaussian (AF) -->
      <g style="fill: #262626" transform="translate(323.666181 677.562945) rotate(-45) scale(0.2 -0.2)">
       <defs>
        <path id="DejaVuSans-20" transform="scale(0.015625)"/>
        <path id="DejaVuSans-28" d="M 1984 4856 
Q 1566 4138 1362 3434 
Q 1159 2731 1159 2009 
Q 1159 1288 1364 580 
Q 1569 -128 1984 -844 
L 1484 -844 
Q 1016 -109 783 600 
Q 550 1309 550 2009 
Q 550 2706 781 3412 
Q 1013 4119 1484 4856 
L 1984 4856 
z
" transform="scale(0.015625)"/>
        <path id="DejaVuSans-46" d="M 628 4666 
L 3309 4666 
L 3309 4134 
L 1259 4134 
L 1259 2759 
L 3109 2759 
L 3109 2228 
L 1259 2228 
L 1259 0 
L 628 0 
L 628 4666 
z
" transform="scale(0.015625)"/>
        <path id="DejaVuSans-29" d="M 513 4856 
L 1013 4856 
Q 1481 4119 1714 3412 
Q 1947 2706 1947 2009 
Q 1947 1309 1714 600 
Q 1481 -109 1013 -844 
L 513 -844 
Q 928 -128 1133 580 
Q 1338 1288 1338 2009 
Q 1338 2731 1133 3434 
Q 928 4138 513 4856 
z
" transform="scale(0.015625)"/>
       </defs>
       <use xlink:href="#DejaVuSans-47"/>
       <use xlink:href="#DejaVuSans-61" x="77.490234"/>
       <use xlink:href="#DejaVuSans-75" x="138.769531"/>
       <use xlink:href="#DejaVuSans-73" x="202.148438"/>
       <use xlink:href="#DejaVuSans-73" x="254.248047"/>
       <use xlink:href="#DejaVuSans-69" x="306.347656"/>
       <use xlink:href="#DejaVuSans-61" x="334.130859"/>
       <use xlink:href="#DejaVuSans-6e" x="395.410156"/>
       <use xlink:href="#DejaVuSans-20" x="458.789062"/>
       <use xlink:href="#DejaVuSans-28" x="490.576172"/>
       <use xlink:href="#DejaVuSans-41" x="529.589844"/>
       <use xlink:href="#DejaVuSans-46" x="597.998047"/>
       <use xlink:href="#DejaVuSans-29" x="655.517578"/>
      </g>
     </g>
    </g>
    <g id="xtick_5">
     <g id="text_5">
      <!-- 1 PC -->
      <g style="fill: #262626" transform="translate(487.638378 611.240749) rotate(-45) scale(0.2 -0.2)">
       <defs>
        <path id="DejaVuSans-31" d="M 794 531 
L 1825 531 
L 1825 4091 
L 703 3866 
L 703 4441 
L 1819 4666 
L 2450 4666 
L 2450 531 
L 3481 531 
L 3481 0 
L 794 0 
L 794 531 
z
" transform="scale(0.015625)"/>
        <path id="DejaVuSans-50" d="M 1259 4147 
L 1259 2394 
L 2053 2394 
Q 2494 2394 2734 2622 
Q 2975 2850 2975 3272 
Q 2975 3691 2734 3919 
Q 2494 4147 2053 4147 
L 1259 4147 
z
M 628 4666 
L 2053 4666 
Q 2838 4666 3239 4311 
Q 3641 3956 3641 3272 
Q 3641 2581 3239 2228 
Q 2838 1875 2053 1875 
L 1259 1875 
L 1259 0 
L 628 0 
L 628 4666 
z
" transform="scale(0.015625)"/>
        <path id="DejaVuSans-43" d="M 4122 4306 
L 4122 3641 
Q 3803 3938 3442 4084 
Q 3081 4231 2675 4231 
Q 1875 4231 1450 3742 
Q 1025 3253 1025 2328 
Q 1025 1406 1450 917 
Q 1875 428 2675 428 
Q 3081 428 3442 575 
Q 3803 722 4122 1019 
L 4122 359 
Q 3791 134 3420 21 
Q 3050 -91 2638 -91 
Q 1578 -91 968 557 
Q 359 1206 359 2328 
Q 359 3453 968 4101 
Q 1578 4750 2638 4750 
Q 3056 4750 3426 4639 
Q 3797 4528 4122 4306 
z
" transform="scale(0.015625)"/>
       </defs>
       <use xlink:href="#DejaVuSans-31"/>
       <use xlink:href="#DejaVuSans-20" x="63.623047"/>
       <use xlink:href="#DejaVuSans-50" x="95.410156"/>
       <use xlink:href="#DejaVuSans-43" x="155.712891"/>
      </g>
     </g>
    </g>
    <g id="xtick_6">
     <g id="text_6">
      <!-- 1 PC (AF) -->
      <g style="fill: #262626" transform="translate(551.950503 644.578624) rotate(-45) scale(0.2 -0.2)">
       <use xlink:href="#DejaVuSans-31"/>
       <use xlink:href="#DejaVuSans-20" x="63.623047"/>
       <use xlink:href="#DejaVuSans-50" x="95.410156"/>
       <use xlink:href="#DejaVuSans-43" x="155.712891"/>
       <use xlink:href="#DejaVuSans-20" x="225.537109"/>
       <use xlink:href="#DejaVuSans-28" x="257.324219"/>
       <use xlink:href="#DejaVuSans-41" x="296.337891"/>
       <use xlink:href="#DejaVuSans-46" x="364.746094"/>
       <use xlink:href="#DejaVuSans-29" x="422.265625"/>
      </g>
     </g>
    </g>
    <g id="xtick_7">
     <g id="text_7">
      <!-- 2 PC -->
      <g style="fill: #262626" transform="translate(682.938378 611.240749) rotate(-45) scale(0.2 -0.2)">
       <defs>
        <path id="DejaVuSans-32" d="M 1228 531 
L 3431 531 
L 3431 0 
L 469 0 
L 469 531 
Q 828 903 1448 1529 
Q 2069 2156 2228 2338 
Q 2531 2678 2651 2914 
Q 2772 3150 2772 3378 
Q 2772 3750 2511 3984 
Q 2250 4219 1831 4219 
Q 1534 4219 1204 4116 
Q 875 4013 500 3803 
L 500 4441 
Q 881 4594 1212 4672 
Q 1544 4750 1819 4750 
Q 2544 4750 2975 4387 
Q 3406 4025 3406 3419 
Q 3406 3131 3298 2873 
Q 3191 2616 2906 2266 
Q 2828 2175 2409 1742 
Q 1991 1309 1228 531 
z
" transform="scale(0.015625)"/>
       </defs>
       <use xlink:href="#DejaVuSans-32"/>
       <use xlink:href="#DejaVuSans-20" x="63.623047"/>
       <use xlink:href="#DejaVuSans-50" x="95.410156"/>
       <use xlink:href="#DejaVuSans-43" x="155.712891"/>
      </g>
     </g>
    </g>
    <g id="xtick_8">
     <g id="text_8">
      <!-- 2 PC (AF) -->
      <g style="fill: #262626" transform="translate(747.250503 644.578624) rotate(-45) scale(0.2 -0.2)">
       <use xlink:href="#DejaVuSans-32"/>
       <use xlink:href="#DejaVuSans-20" x="63.623047"/>
       <use xlink:href="#DejaVuSans-50" x="95.410156"/>
       <use xlink:href="#DejaVuSans-43" x="155.712891"/>
       <use xlink:href="#DejaVuSans-20" x="225.537109"/>
       <use xlink:href="#DejaVuSans-28" x="257.324219"/>
       <use xlink:href="#DejaVuSans-41" x="296.337891"/>
       <use xlink:href="#DejaVuSans-46" x="364.746094"/>
       <use xlink:href="#DejaVuSans-29" x="422.265625"/>
      </g>
     </g>
    </g>
    <g id="text_9">
     <!-- Method -->
     <g style="fill: #262626" transform="translate(422.45625 699.700943) scale(0.2 -0.2)">
      <defs>
       <path id="DejaVuSans-74" d="M 1172 4494 
L 1172 3500 
L 2356 3500 
L 2356 3053 
L 1172 3053 
L 1172 1153 
Q 1172 725 1289 603 
Q 1406 481 1766 481 
L 2356 481 
L 2356 0 
L 1766 0 
Q 1100 0 847 248 
Q 594 497 594 1153 
L 594 3053 
L 172 3053 
L 172 3500 
L 594 3500 
L 594 4494 
L 1172 4494 
z
" transform="scale(0.015625)"/>
       <path id="DejaVuSans-68" d="M 3513 2113 
L 3513 0 
L 2938 0 
L 2938 2094 
Q 2938 2591 2744 2837 
Q 2550 3084 2163 3084 
Q 1697 3084 1428 2787 
Q 1159 2491 1159 1978 
L 1159 0 
L 581 0 
L 581 4863 
L 1159 4863 
L 1159 2956 
Q 1366 3272 1645 3428 
Q 1925 3584 2291 3584 
Q 2894 3584 3203 3211 
Q 3513 2838 3513 2113 
z
" transform="scale(0.015625)"/>
       <path id="DejaVuSans-6f" d="M 1959 3097 
Q 1497 3097 1228 2736 
Q 959 2375 959 1747 
Q 959 1119 1226 758 
Q 1494 397 1959 397 
Q 2419 397 2687 759 
Q 2956 1122 2956 1747 
Q 2956 2369 2687 2733 
Q 2419 3097 1959 3097 
z
M 1959 3584 
Q 2709 3584 3137 3096 
Q 3566 2609 3566 1747 
Q 3566 888 3137 398 
Q 2709 -91 1959 -91 
Q 1206 -91 779 398 
Q 353 888 353 1747 
Q 353 2609 779 3096 
Q 1206 3584 1959 3584 
z
" transform="scale(0.015625)"/>
       <path id="DejaVuSans-64" d="M 2906 2969 
L 2906 4863 
L 3481 4863 
L 3481 0 
L 2906 0 
L 2906 525 
Q 2725 213 2448 61 
Q 2172 -91 1784 -91 
Q 1150 -91 751 415 
Q 353 922 353 1747 
Q 353 2572 751 3078 
Q 1150 3584 1784 3584 
Q 2172 3584 2448 3432 
Q 2725 3281 2906 2969 
z
M 947 1747 
Q 947 1113 1208 752 
Q 1469 391 1925 391 
Q 2381 391 2643 752 
Q 2906 1113 2906 1747 
Q 2906 2381 2643 2742 
Q 2381 3103 1925 3103 
Q 1469 3103 1208 2742 
Q 947 2381 947 1747 
z
" transform="scale(0.015625)"/>
      </defs>
      <use xlink:href="#DejaVuSans-4d"/>
      <use xlink:href="#DejaVuSans-65" x="86.279297"/>
      <use xlink:href="#DejaVuSans-74" x="147.802734"/>
      <use xlink:href="#DejaVuSans-68" x="187.011719"/>
      <use xlink:href="#DejaVuSans-6f" x="250.390625"/>
      <use xlink:href="#DejaVuSans-64" x="311.572266"/>
     </g>
    </g>
   </g>
   <g id="matplotlib.axis_2">
    <g id="ytick_1">
     <g id="line2d_1">
      <path d="M 69.3625 513.825428 
L 850.5625 513.825428 
" clip-path="url(#p1dd83cdc45)" style="fill: none; stroke: #cccccc; stroke-width: 0.8; stroke-linecap: round"/>
     </g>
     <g id="text_10">
      <!-- 0.0 -->
      <g style="fill: #262626" transform="translate(30.55625 521.423865) scale(0.2 -0.2)">
       <defs>
        <path id="DejaVuSans-30" d="M 2034 4250 
Q 1547 4250 1301 3770 
Q 1056 3291 1056 2328 
Q 1056 1369 1301 889 
Q 1547 409 2034 409 
Q 2525 409 2770 889 
Q 3016 1369 3016 2328 
Q 3016 3291 2770 3770 
Q 2525 4250 2034 4250 
z
M 2034 4750 
Q 2819 4750 3233 4129 
Q 3647 3509 3647 2328 
Q 3647 1150 3233 529 
Q 2819 -91 2034 -91 
Q 1250 -91 836 529 
Q 422 1150 422 2328 
Q 422 3509 836 4129 
Q 1250 4750 2034 4750 
z
" transform="scale(0.015625)"/>
        <path id="DejaVuSans-2e" d="M 684 794 
L 1344 794 
L 1344 0 
L 684 0 
L 684 794 
z
" transform="scale(0.015625)"/>
       </defs>
       <use xlink:href="#DejaVuSans-30"/>
       <use xlink:href="#DejaVuSans-2e" x="63.623047"/>
       <use xlink:href="#DejaVuSans-30" x="95.410156"/>
      </g>
     </g>
    </g>
    <g id="ytick_2">
     <g id="line2d_2">
      <path d="M 69.3625 427.641271 
L 850.5625 427.641271 
" clip-path="url(#p1dd83cdc45)" style="fill: none; stroke: #cccccc; stroke-width: 0.8; stroke-linecap: round"/>
     </g>
     <g id="text_11">
      <!-- 0.2 -->
      <g style="fill: #262626" transform="translate(30.55625 435.239709) scale(0.2 -0.2)">
       <use xlink:href="#DejaVuSans-30"/>
       <use xlink:href="#DejaVuSans-2e" x="63.623047"/>
       <use xlink:href="#DejaVuSans-32" x="95.410156"/>
      </g>
     </g>
    </g>
    <g id="ytick_3">
     <g id="line2d_3">
      <path d="M 69.3625 341.457114 
L 850.5625 341.457114 
" clip-path="url(#p1dd83cdc45)" style="fill: none; stroke: #cccccc; stroke-width: 0.8; stroke-linecap: round"/>
     </g>
     <g id="text_12">
      <!-- 0.4 -->
      <g style="fill: #262626" transform="translate(30.55625 349.055552) scale(0.2 -0.2)">
       <defs>
        <path id="DejaVuSans-34" d="M 2419 4116 
L 825 1625 
L 2419 1625 
L 2419 4116 
z
M 2253 4666 
L 3047 4666 
L 3047 1625 
L 3713 1625 
L 3713 1100 
L 3047 1100 
L 3047 0 
L 2419 0 
L 2419 1100 
L 313 1100 
L 313 1709 
L 2253 4666 
z
" transform="scale(0.015625)"/>
       </defs>
       <use xlink:href="#DejaVuSans-30"/>
       <use xlink:href="#DejaVuSans-2e" x="63.623047"/>
       <use xlink:href="#DejaVuSans-34" x="95.410156"/>
      </g>
     </g>
    </g>
    <g id="ytick_4">
     <g id="line2d_4">
      <path d="M 69.3625 255.272957 
L 850.5625 255.272957 
" clip-path="url(#p1dd83cdc45)" style="fill: none; stroke: #cccccc; stroke-width: 0.8; stroke-linecap: round"/>
     </g>
     <g id="text_13">
      <!-- 0.6 -->
      <g style="fill: #262626" transform="translate(30.55625 262.871395) scale(0.2 -0.2)">
       <defs>
        <path id="DejaVuSans-36" d="M 2113 2584 
Q 1688 2584 1439 2293 
Q 1191 2003 1191 1497 
Q 1191 994 1439 701 
Q 1688 409 2113 409 
Q 2538 409 2786 701 
Q 3034 994 3034 1497 
Q 3034 2003 2786 2293 
Q 2538 2584 2113 2584 
z
M 3366 4563 
L 3366 3988 
Q 3128 4100 2886 4159 
Q 2644 4219 2406 4219 
Q 1781 4219 1451 3797 
Q 1122 3375 1075 2522 
Q 1259 2794 1537 2939 
Q 1816 3084 2150 3084 
Q 2853 3084 3261 2657 
Q 3669 2231 3669 1497 
Q 3669 778 3244 343 
Q 2819 -91 2113 -91 
Q 1303 -91 875 529 
Q 447 1150 447 2328 
Q 447 3434 972 4092 
Q 1497 4750 2381 4750 
Q 2619 4750 2861 4703 
Q 3103 4656 3366 4563 
z
" transform="scale(0.015625)"/>
       </defs>
       <use xlink:href="#DejaVuSans-30"/>
       <use xlink:href="#DejaVuSans-2e" x="63.623047"/>
       <use xlink:href="#DejaVuSans-36" x="95.410156"/>
      </g>
     </g>
    </g>
    <g id="ytick_5">
     <g id="line2d_5">
      <path d="M 69.3625 169.088801 
L 850.5625 169.088801 
" clip-path="url(#p1dd83cdc45)" style="fill: none; stroke: #cccccc; stroke-width: 0.8; stroke-linecap: round"/>
     </g>
     <g id="text_14">
      <!-- 0.8 -->
      <g style="fill: #262626" transform="translate(30.55625 176.687238) scale(0.2 -0.2)">
       <defs>
        <path id="DejaVuSans-38" d="M 2034 2216 
Q 1584 2216 1326 1975 
Q 1069 1734 1069 1313 
Q 1069 891 1326 650 
Q 1584 409 2034 409 
Q 2484 409 2743 651 
Q 3003 894 3003 1313 
Q 3003 1734 2745 1975 
Q 2488 2216 2034 2216 
z
M 1403 2484 
Q 997 2584 770 2862 
Q 544 3141 544 3541 
Q 544 4100 942 4425 
Q 1341 4750 2034 4750 
Q 2731 4750 3128 4425 
Q 3525 4100 3525 3541 
Q 3525 3141 3298 2862 
Q 3072 2584 2669 2484 
Q 3125 2378 3379 2068 
Q 3634 1759 3634 1313 
Q 3634 634 3220 271 
Q 2806 -91 2034 -91 
Q 1263 -91 848 271 
Q 434 634 434 1313 
Q 434 1759 690 2068 
Q 947 2378 1403 2484 
z
M 1172 3481 
Q 1172 3119 1398 2916 
Q 1625 2713 2034 2713 
Q 2441 2713 2670 2916 
Q 2900 3119 2900 3481 
Q 2900 3844 2670 4047 
Q 2441 4250 2034 4250 
Q 1625 4250 1398 4047 
Q 1172 3844 1172 3481 
z
" transform="scale(0.015625)"/>
       </defs>
       <use xlink:href="#DejaVuSans-30"/>
       <use xlink:href="#DejaVuSans-2e" x="63.623047"/>
       <use xlink:href="#DejaVuSans-38" x="95.410156"/>
      </g>
     </g>
    </g>
    <g id="ytick_6">
     <g id="line2d_6">
      <path d="M 69.3625 82.904644 
L 850.5625 82.904644 
" clip-path="url(#p1dd83cdc45)" style="fill: none; stroke: #cccccc; stroke-width: 0.8; stroke-linecap: round"/>
     </g>
     <g id="text_15">
      <!-- 1.0 -->
      <g style="fill: #262626" transform="translate(30.55625 90.503081) scale(0.2 -0.2)">
       <use xlink:href="#DejaVuSans-31"/>
       <use xlink:href="#DejaVuSans-2e" x="63.623047"/>
       <use xlink:href="#DejaVuSans-30" x="95.410156"/>
      </g>
     </g>
    </g>
    <g id="text_16">
     <!-- TM-score -->
     <g style="fill: #262626" transform="translate(22.396875 329.609375) rotate(-90) scale(0.2 -0.2)">
      <defs>
       <path id="DejaVuSans-54" d="M -19 4666 
L 3928 4666 
L 3928 4134 
L 2272 4134 
L 2272 0 
L 1638 0 
L 1638 4134 
L -19 4134 
L -19 4666 
z
" transform="scale(0.015625)"/>
       <path id="DejaVuSans-2d" d="M 313 2009 
L 1997 2009 
L 1997 1497 
L 313 1497 
L 313 2009 
z
" transform="scale(0.015625)"/>
       <path id="DejaVuSans-63" d="M 3122 3366 
L 3122 2828 
Q 2878 2963 2633 3030 
Q 2388 3097 2138 3097 
Q 1578 3097 1268 2742 
Q 959 2388 959 1747 
Q 959 1106 1268 751 
Q 1578 397 2138 397 
Q 2388 397 2633 464 
Q 2878 531 3122 666 
L 3122 134 
Q 2881 22 2623 -34 
Q 2366 -91 2075 -91 
Q 1284 -91 818 406 
Q 353 903 353 1747 
Q 353 2603 823 3093 
Q 1294 3584 2113 3584 
Q 2378 3584 2631 3529 
Q 2884 3475 3122 3366 
z
" transform="scale(0.015625)"/>
       <path id="DejaVuSans-72" d="M 2631 2963 
Q 2534 3019 2420 3045 
Q 2306 3072 2169 3072 
Q 1681 3072 1420 2755 
Q 1159 2438 1159 1844 
L 1159 0 
L 581 0 
L 581 3500 
L 1159 3500 
L 1159 2956 
Q 1341 3275 1631 3429 
Q 1922 3584 2338 3584 
Q 2397 3584 2469 3576 
Q 2541 3569 2628 3553 
L 2631 2963 
z
" transform="scale(0.015625)"/>
      </defs>
      <use xlink:href="#DejaVuSans-54"/>
      <use xlink:href="#DejaVuSans-4d" x="61.083984"/>
      <use xlink:href="#DejaVuSans-2d" x="147.363281"/>
      <use xlink:href="#DejaVuSans-73" x="183.447266"/>
      <use xlink:href="#DejaVuSans-63" x="235.546875"/>
      <use xlink:href="#DejaVuSans-6f" x="290.527344"/>
      <use xlink:href="#DejaVuSans-72" x="351.708984"/>
      <use xlink:href="#DejaVuSans-65" x="390.572266"/>
     </g>
    </g>
   </g>
   <g id="PolyCollection_1">
    <defs>
     <path id="mca6876b6d0" d="M 118.331919 -258.812109 
L 118.043081 -258.812109 
L 117.993892 -263.039016 
L 117.933904 -267.265923 
L 117.862948 -271.49283 
L 117.781665 -275.719737 
L 117.69166 -279.946643 
L 117.595573 -284.17355 
L 117.497042 -288.400457 
L 117.400517 -292.627364 
L 117.310945 -296.854271 
L 117.233334 -301.081177 
L 117.172246 -305.308084 
L 117.131276 -309.534991 
L 117.112582 -313.761898 
L 117.11653 -317.988805 
L 117.141504 -322.215711 
L 117.183897 -326.442618 
L 117.238289 -330.669525 
L 117.297777 -334.896432 
L 117.354419 -339.123339 
L 117.399748 -343.350245 
L 117.425303 -347.577152 
L 117.423155 -351.804059 
L 117.386403 -356.030966 
L 117.309625 -360.257873 
L 117.189289 -364.484779 
L 117.024095 -368.711686 
L 116.815238 -372.938593 
L 116.566546 -377.1655 
L 116.284455 -381.392407 
L 115.97777 -385.619314 
L 115.657199 -389.84622 
L 115.334636 -394.073127 
L 115.02224 -398.300034 
L 114.731366 -402.526941 
L 114.471447 -406.753848 
L 114.248959 -410.980754 
L 114.066571 -415.207661 
L 113.922609 -419.434568 
L 113.810917 -423.661475 
L 113.721147 -427.888382 
L 113.639492 -432.115288 
L 113.549786 -436.342195 
L 113.434902 -440.569102 
L 113.278286 -444.796009 
L 113.065497 -449.022916 
L 112.785587 -453.249822 
L 112.432172 -457.476729 
L 112.004079 -461.703636 
L 111.505485 -465.930543 
L 110.945529 -470.15745 
L 110.337396 -474.384356 
L 109.696967 -478.611263 
L 109.041149 -482.83817 
L 108.386037 -487.065077 
L 107.745086 -491.291984 
L 107.127476 -495.51889 
L 106.536826 -499.745797 
L 105.97038 -503.972704 
L 105.418741 -508.199611 
L 104.866156 -512.426518 
L 104.291326 -516.653424 
L 103.668648 -520.880331 
L 102.969806 -525.107238 
L 102.165618 -529.334145 
L 101.228072 -533.561052 
L 100.132532 -537.787958 
L 98.860086 -542.014865 
L 97.400016 -546.241772 
L 95.752306 -550.468679 
L 93.930046 -554.695586 
L 91.961459 -558.922492 
L 89.891213 -563.149399 
L 87.780633 -567.376306 
L 85.706433 -571.603213 
L 83.757729 -575.83012 
L 82.031276 -580.057026 
L 80.625125 -584.283933 
L 79.631199 -588.51084 
L 79.1275 -592.737747 
L 79.170816 -596.964654 
L 79.790853 -601.19156 
L 80.986556 -605.418467 
L 82.725178 -609.645374 
L 84.944285 -613.872281 
L 87.556517 -618.099188 
L 90.456565 -622.326094 
L 93.529536 -626.553001 
L 96.65974 -630.779908 
L 99.738941 -635.006815 
L 102.6732 -639.233722 
L 105.387756 -643.460629 
L 107.829625 -647.687535 
L 109.967954 -651.914442 
L 111.792419 -656.141349 
L 113.310156 -660.368256 
L 114.541783 -664.595163 
L 115.51713 -668.822069 
L 116.271128 -673.048976 
L 116.840266 -677.275883 
L 119.534734 -677.275883 
L 119.534734 -677.275883 
L 120.103872 -673.048976 
L 120.85787 -668.822069 
L 121.833217 -664.595163 
L 123.064844 -660.368256 
L 124.582581 -656.141349 
L 126.407046 -651.914442 
L 128.545375 -647.687535 
L 130.987244 -643.460629 
L 133.7018 -639.233722 
L 136.636059 -635.006815 
L 139.71526 -630.779908 
L 142.845464 -626.553001 
L 145.918435 -622.326094 
L 148.818483 -618.099188 
L 151.430715 -613.872281 
L 153.649822 -609.645374 
L 155.388444 -605.418467 
L 156.584147 -601.19156 
L 157.204184 -596.964654 
L 157.2475 -592.737747 
L 156.743801 -588.51084 
L 155.749875 -584.283933 
L 154.343724 -580.057026 
L 152.617271 -575.83012 
L 150.668567 -571.603213 
L 148.594367 -567.376306 
L 146.483787 -563.149399 
L 144.413541 -558.922492 
L 142.444954 -554.695586 
L 140.622694 -550.468679 
L 138.974984 -546.241772 
L 137.514914 -542.014865 
L 136.242468 -537.787958 
L 135.146928 -533.561052 
L 134.209382 -529.334145 
L 133.405194 -525.107238 
L 132.706352 -520.880331 
L 132.083674 -516.653424 
L 131.508844 -512.426518 
L 130.956259 -508.199611 
L 130.40462 -503.972704 
L 129.838174 -499.745797 
L 129.247524 -495.51889 
L 128.629914 -491.291984 
L 127.988963 -487.065077 
L 127.333851 -482.83817 
L 126.678033 -478.611263 
L 126.037604 -474.384356 
L 125.429471 -470.15745 
L 124.869515 -465.930543 
L 124.370921 -461.703636 
L 123.942828 -457.476729 
L 123.589413 -453.249822 
L 123.309503 -449.022916 
L 123.096714 -444.796009 
L 122.940098 -440.569102 
L 122.825214 -436.342195 
L 122.735508 -432.115288 
L 122.653853 -427.888382 
L 122.564083 -423.661475 
L 122.452391 -419.434568 
L 122.308429 -415.207661 
L 122.126041 -410.980754 
L 121.903553 -406.753848 
L 121.643634 -402.526941 
L 121.35276 -398.300034 
L 121.040364 -394.073127 
L 120.717801 -389.84622 
L 120.39723 -385.619314 
L 120.090545 -381.392407 
L 119.808454 -377.1655 
L 119.559762 -372.938593 
L 119.350905 -368.711686 
L 119.185711 -364.484779 
L 119.065375 -360.257873 
L 118.988597 -356.030966 
L 118.951845 -351.804059 
L 118.949697 -347.577152 
L 118.975252 -343.350245 
L 119.020581 -339.123339 
L 119.077223 -334.896432 
L 119.136711 -330.669525 
L 119.191103 -326.442618 
L 119.233496 -322.215711 
L 119.25847 -317.988805 
L 119.262418 -313.761898 
L 119.243724 -309.534991 
L 119.202754 -305.308084 
L 119.141666 -301.081177 
L 119.064055 -296.854271 
L 118.974483 -292.627364 
L 118.877958 -288.400457 
L 118.779427 -284.17355 
L 118.68334 -279.946643 
L 118.593335 -275.719737 
L 118.512052 -271.49283 
L 118.441096 -267.265923 
L 118.381108 -263.039016 
L 118.331919 -258.812109 
z
" style="stroke: #3d3d3d; stroke-opacity: 0.5"/>
    </defs>
    <g clip-path="url(#p1dd83cdc45)">
     <use xlink:href="#mca6876b6d0" x="0" y="711.060318" style="fill: #d684bd; fill-opacity: 0.5; stroke: #3d3d3d; stroke-opacity: 0.5"/>
    </g>
   </g>
   <g id="PolyCollection_2">
    <defs>
     <path id="m9264daab24" d="M 216.629895 -209.355731 
L 215.045105 -209.355731 
L 214.769131 -213.291984 
L 214.416232 -217.228237 
L 213.971761 -221.16449 
L 213.420398 -225.100742 
L 212.746763 -229.036995 
L 211.936185 -232.973248 
L 210.9756 -236.909501 
L 209.854524 -240.845753 
L 208.566048 -244.782006 
L 207.107767 -248.718259 
L 205.482575 -252.654511 
L 203.699227 -256.590764 
L 201.772624 -260.527017 
L 199.72375 -264.46327 
L 197.579259 -268.399522 
L 195.370722 -272.335775 
L 193.133582 -276.272028 
L 190.905885 -280.208281 
L 188.726901 -284.144533 
L 186.635724 -288.080786 
L 184.669953 -292.017039 
L 182.864546 -295.953292 
L 181.250892 -299.889544 
L 179.85613 -303.825797 
L 178.702711 -307.76205 
L 177.808153 -311.698303 
L 177.184952 -315.634555 
L 176.840577 -319.570808 
L 176.7775 -323.507061 
L 176.993229 -327.443314 
L 177.480328 -331.379566 
L 178.226444 -335.315819 
L 179.214378 -339.252072 
L 180.422256 -343.188324 
L 181.823855 -347.124577 
L 183.389129 -351.06083 
L 185.084973 -354.997083 
L 186.876201 -358.933335 
L 188.726725 -362.869588 
L 190.60086 -366.805841 
L 192.464651 -370.742094 
L 194.287149 -374.678346 
L 196.041509 -378.614599 
L 197.705832 -382.550852 
L 199.263689 -386.487105 
L 200.704285 -390.423357 
L 202.022276 -394.35961 
L 203.21727 -398.295863 
L 204.293064 -402.232116 
L 205.256713 -406.168368 
L 206.117499 -410.104621 
L 206.885909 -414.040874 
L 207.572679 -417.977127 
L 208.187969 -421.913379 
L 208.740723 -425.849632 
L 209.238205 -429.785885 
L 209.685755 -433.722137 
L 210.086706 -437.65839 
L 210.442479 -441.594643 
L 210.752802 -445.530896 
L 211.016037 -449.467148 
L 211.229577 -453.403401 
L 211.390301 -457.339654 
L 211.495053 -461.275907 
L 211.54114 -465.212159 
L 211.52682 -469.148412 
L 211.451762 -473.084665 
L 211.317468 -477.020918 
L 211.127613 -480.95717 
L 210.888279 -484.893423 
L 210.608061 -488.829676 
L 210.297998 -492.765929 
L 209.971325 -496.702181 
L 209.643033 -500.638434 
L 209.32924 -504.574687 
L 209.046411 -508.51094 
L 208.81047 -512.447192 
L 208.63587 -516.383445 
L 208.534701 -520.319698 
L 208.515906 -524.25595 
L 208.584691 -528.192203 
L 208.742183 -532.128456 
L 208.985367 -536.064709 
L 209.307316 -540.000961 
L 209.697699 -543.937214 
L 210.143507 -547.873467 
L 210.629941 -551.80972 
L 211.141368 -555.745972 
L 211.662275 -559.682225 
L 212.178134 -563.618478 
L 212.676109 -567.554731 
L 213.145578 -571.490983 
L 213.578436 -575.427236 
L 213.969184 -579.363489 
L 214.314832 -583.299742 
L 214.614652 -587.235994 
L 214.869814 -591.172247 
L 215.082973 -595.1085 
L 215.257832 -599.044753 
L 216.417168 -599.044753 
L 216.417168 -599.044753 
L 216.592027 -595.1085 
L 216.805186 -591.172247 
L 217.060348 -587.235994 
L 217.360168 -583.299742 
L 217.705816 -579.363489 
L 218.096564 -575.427236 
L 218.529422 -571.490983 
L 218.998891 -567.554731 
L 219.496866 -563.618478 
L 220.012725 -559.682225 
L 220.533632 -555.745972 
L 221.045059 -551.80972 
L 221.531493 -547.873467 
L 221.977301 -543.937214 
L 222.367684 -540.000961 
L 222.689633 -536.064709 
L 222.932817 -532.128456 
L 223.090309 -528.192203 
L 223.159094 -524.25595 
L 223.140299 -520.319698 
L 223.03913 -516.383445 
L 222.86453 -512.447192 
L 222.628589 -508.51094 
L 222.34576 -504.574687 
L 222.031967 -500.638434 
L 221.703675 -496.702181 
L 221.377002 -492.765929 
L 221.066939 -488.829676 
L 220.786721 -484.893423 
L 220.547387 -480.95717 
L 220.357532 -477.020918 
L 220.223238 -473.084665 
L 220.14818 -469.148412 
L 220.13386 -465.212159 
L 220.179947 -461.275907 
L 220.284699 -457.339654 
L 220.445423 -453.403401 
L 220.658963 -449.467148 
L 220.922198 -445.530896 
L 221.232521 -441.594643 
L 221.588294 -437.65839 
L 221.989245 -433.722137 
L 222.436795 -429.785885 
L 222.934277 -425.849632 
L 223.487031 -421.913379 
L 224.102321 -417.977127 
L 224.789091 -414.040874 
L 225.557501 -410.104621 
L 226.418287 -406.168368 
L 227.381936 -402.232116 
L 228.45773 -398.295863 
L 229.652724 -394.35961 
L 230.970715 -390.423357 
L 232.411311 -386.487105 
L 233.969168 -382.550852 
L 235.633491 -378.614599 
L 237.387851 -374.678346 
L 239.210349 -370.742094 
L 241.07414 -366.805841 
L 242.948275 -362.869588 
L 244.798799 -358.933335 
L 246.590027 -354.997083 
L 248.285871 -351.06083 
L 249.851145 -347.124577 
L 251.252744 -343.188324 
L 252.460622 -339.252072 
L 253.448556 -335.315819 
L 254.194672 -331.379566 
L 254.681771 -327.443314 
L 254.8975 -323.507061 
L 254.834423 -319.570808 
L 254.490048 -315.634555 
L 253.866847 -311.698303 
L 252.972289 -307.76205 
L 251.81887 -303.825797 
L 250.424108 -299.889544 
L 248.810454 -295.953292 
L 247.005047 -292.017039 
L 245.039276 -288.080786 
L 242.948099 -284.144533 
L 240.769115 -280.208281 
L 238.541418 -276.272028 
L 236.304278 -272.335775 
L 234.095741 -268.399522 
L 231.95125 -264.46327 
L 229.902376 -260.527017 
L 227.975773 -256.590764 
L 226.192425 -252.654511 
L 224.567233 -248.718259 
L 223.108952 -244.782006 
L 221.820476 -240.845753 
L 220.6994 -236.909501 
L 219.738815 -232.973248 
L 218.928237 -229.036995 
L 218.254602 -225.100742 
L 217.703239 -221.16449 
L 217.258768 -217.228237 
L 216.905869 -213.291984 
L 216.629895 -209.355731 
z
" style="stroke: #3d3d3d; stroke-opacity: 0.5"/>
    </defs>
    <g clip-path="url(#p1dd83cdc45)">
     <use xlink:href="#m9264daab24" x="0" y="711.060318" style="fill: #7f7f7f; fill-opacity: 0.5; stroke: #3d3d3d; stroke-opacity: 0.5"/>
    </g>
   </g>
   <g id="PolyCollection_3">
    <defs>
     <path id="m7da5a3f2ba" d="M 313.88064 -508.237821 
L 313.09436 -508.237821 
L 312.970887 -509.520422 
L 312.81913 -510.803023 
L 312.63594 -512.085624 
L 312.418721 -513.368225 
L 312.165652 -514.650826 
L 311.87588 -515.933427 
L 311.549663 -517.216028 
L 311.188419 -518.498629 
L 310.7947 -519.78123 
L 310.372054 -521.063831 
L 309.924822 -522.346432 
L 309.457861 -523.629033 
L 308.976243 -524.911634 
L 308.484959 -526.194235 
L 307.988672 -527.476836 
L 307.491519 -528.759437 
L 306.997015 -530.042038 
L 306.508017 -531.324639 
L 306.026759 -532.60724 
L 305.554929 -533.889841 
L 305.093741 -535.172442 
L 304.643988 -536.455043 
L 304.206054 -537.737644 
L 303.779866 -539.020245 
L 303.364791 -540.302846 
L 302.959512 -541.585447 
L 302.561872 -542.868048 
L 302.16876 -544.150649 
L 301.776017 -545.433249 
L 301.378416 -546.71585 
L 300.969707 -547.998451 
L 300.542728 -549.281052 
L 300.089574 -550.563653 
L 299.601806 -551.846254 
L 299.070691 -553.128855 
L 298.48746 -554.411456 
L 297.84358 -555.694057 
L 297.131043 -556.976658 
L 296.342693 -558.259259 
L 295.472593 -559.54186 
L 294.516448 -560.824461 
L 293.472088 -562.107062 
L 292.339995 -563.389663 
L 291.123833 -564.672264 
L 289.830955 -565.954865 
L 288.472781 -567.237466 
L 287.064995 -568.520067 
L 285.627465 -569.802668 
L 284.183817 -571.085269 
L 282.760621 -572.36787 
L 281.386178 -573.650471 
L 280.088956 -574.933072 
L 278.89578 -576.215673 
L 277.829906 -577.498274 
L 276.909188 -578.780875 
L 276.144531 -580.063476 
L 275.53883 -581.346077 
L 275.08658 -582.628678 
L 274.77423 -583.911279 
L 274.581344 -585.19388 
L 274.48248 -586.476481 
L 274.449644 -587.759082 
L 274.455107 -589.041683 
L 274.474292 -590.324284 
L 274.488468 -591.606885 
L 274.486953 -592.889486 
L 274.468613 -594.172087 
L 274.442491 -595.454688 
L 274.4275 -596.737289 
L 274.451178 -598.01989 
L 274.547629 -599.302491 
L 274.754808 -600.585092 
L 275.111393 -601.867693 
L 275.653504 -603.150294 
L 276.411565 -604.432895 
L 277.407545 -605.715496 
L 278.652849 -606.998097 
L 280.146994 -608.280698 
L 281.877211 -609.563299 
L 283.818964 -610.8459 
L 285.937354 -612.128501 
L 288.189246 -613.411102 
L 290.52594 -614.693703 
L 292.896134 -615.976304 
L 295.248924 -617.258905 
L 297.536591 -618.541506 
L 299.716968 -619.824107 
L 301.755236 -621.106708 
L 303.625043 -622.389309 
L 305.308942 -623.67191 
L 306.798194 -624.954511 
L 308.092024 -626.237112 
L 309.196479 -627.519713 
L 310.12303 -628.802313 
L 310.887068 -630.084914 
L 311.506436 -631.367515 
L 312.00009 -632.650116 
L 312.386977 -633.932717 
L 312.685148 -635.215318 
L 314.289852 -635.215318 
L 314.289852 -635.215318 
L 314.588023 -633.932717 
L 314.97491 -632.650116 
L 315.468564 -631.367515 
L 316.087932 -630.084914 
L 316.85197 -628.802313 
L 317.778521 -627.519713 
L 318.882976 -626.237112 
L 320.176806 -624.954511 
L 321.666058 -623.67191 
L 323.349957 -622.389309 
L 325.219764 -621.106708 
L 327.258032 -619.824107 
L 329.438409 -618.541506 
L 331.726076 -617.258905 
L 334.078866 -615.976304 
L 336.44906 -614.693703 
L 338.785754 -613.411102 
L 341.037646 -612.128501 
L 343.156036 -610.8459 
L 345.097789 -609.563299 
L 346.828006 -608.280698 
L 348.322151 -606.998097 
L 349.567455 -605.715496 
L 350.563435 -604.432895 
L 351.321496 -603.150294 
L 351.863607 -601.867693 
L 352.220192 -600.585092 
L 352.427371 -599.302491 
L 352.523822 -598.01989 
L 352.5475 -596.737289 
L 352.532509 -595.454688 
L 352.506387 -594.172087 
L 352.488047 -592.889486 
L 352.486532 -591.606885 
L 352.500708 -590.324284 
L 352.519893 -589.041683 
L 352.525356 -587.759082 
L 352.49252 -586.476481 
L 352.393656 -585.19388 
L 352.20077 -583.911279 
L 351.88842 -582.628678 
L 351.43617 -581.346077 
L 350.830469 -580.063476 
L 350.065812 -578.780875 
L 349.145094 -577.498274 
L 348.07922 -576.215673 
L 346.886044 -574.933072 
L 345.588822 -573.650471 
L 344.214379 -572.36787 
L 342.791183 -571.085269 
L 341.347535 -569.802668 
L 339.910005 -568.520067 
L 338.502219 -567.237466 
L 337.144045 -565.954865 
L 335.851167 -564.672264 
L 334.635005 -563.389663 
L 333.502912 -562.107062 
L 332.458552 -560.824461 
L 331.502407 -559.54186 
L 330.632307 -558.259259 
L 329.843957 -556.976658 
L 329.13142 -555.694057 
L 328.48754 -554.411456 
L 327.904309 -553.128855 
L 327.373194 -551.846254 
L 326.885426 -550.563653 
L 326.432272 -549.281052 
L 326.005293 -547.998451 
L 325.596584 -546.71585 
L 325.198983 -545.433249 
L 324.80624 -544.150649 
L 324.413128 -542.868048 
L 324.015488 -541.585447 
L 323.610209 -540.302846 
L 323.195134 -539.020245 
L 322.768946 -537.737644 
L 322.331012 -536.455043 
L 321.881259 -535.172442 
L 321.420071 -533.889841 
L 320.948241 -532.60724 
L 320.466983 -531.324639 
L 319.977985 -530.042038 
L 319.483481 -528.759437 
L 318.986328 -527.476836 
L 318.490041 -526.194235 
L 317.998757 -524.911634 
L 317.517139 -523.629033 
L 317.050178 -522.346432 
L 316.602946 -521.063831 
L 316.1803 -519.78123 
L 315.786581 -518.498629 
L 315.425337 -517.216028 
L 315.09912 -515.933427 
L 314.809348 -514.650826 
L 314.556279 -513.368225 
L 314.33906 -512.085624 
L 314.15587 -510.803023 
L 314.004113 -509.520422 
L 313.88064 -508.237821 
z
" style="stroke: #3d3d3d; stroke-opacity: 0.5"/>
    </defs>
    <g clip-path="url(#p1dd83cdc45)">
     <use xlink:href="#m7da5a3f2ba" x="0" y="711.060318" style="fill: #9372b2; fill-opacity: 0.5; stroke: #3d3d3d; stroke-opacity: 0.5"/>
    </g>
   </g>
   <g id="PolyCollection_4">
    <defs>
     <path id="mddefd31f26" d="M 411.290871 -481.059398 
L 410.984129 -481.059398 
L 410.934654 -482.742991 
L 410.874795 -484.426583 
L 410.804337 -486.110176 
L 410.723747 -487.793769 
L 410.634303 -489.477361 
L 410.538161 -491.160954 
L 410.438328 -492.844547 
L 410.33853 -494.528139 
L 410.242952 -496.211732 
L 410.155881 -497.895325 
L 410.081255 -499.578917 
L 410.022186 -501.26251 
L 409.980477 -502.946103 
L 409.956213 -504.629695 
L 409.947467 -506.313288 
L 409.950154 -507.996881 
L 409.958069 -509.680473 
L 409.963098 -511.364066 
L 409.955614 -513.047659 
L 409.925009 -514.731251 
L 409.860352 -516.414844 
L 409.751109 -518.098437 
L 409.587911 -519.782029 
L 409.363302 -521.465622 
L 409.072426 -523.149215 
L 408.713609 -524.832807 
L 408.288779 -526.5164 
L 407.80367 -528.199993 
L 407.267784 -529.883585 
L 406.694069 -531.567178 
L 406.098316 -533.250771 
L 405.498305 -534.934363 
L 404.91273 -536.617956 
L 404.360003 -538.301549 
L 403.857007 -539.985141 
L 403.417912 -541.668734 
L 403.05314 -543.352327 
L 402.768569 -545.035919 
L 402.565025 -546.719512 
L 402.438118 -548.403105 
L 402.378414 -550.086697 
L 402.37194 -551.77029 
L 402.401002 -553.453883 
L 402.445237 -555.137475 
L 402.482872 -556.821068 
L 402.492069 -558.504661 
L 402.452297 -560.188253 
L 402.345598 -561.871846 
L 402.157653 -563.555439 
L 401.878522 -565.239031 
L 401.502987 -566.922624 
L 401.030406 -568.606217 
L 400.464088 -570.289809 
L 399.810197 -571.973402 
L 399.076323 -573.656995 
L 398.269852 -575.340587 
L 397.396376 -577.02418 
L 396.458359 -578.707773 
L 395.454321 -580.391365 
L 394.378697 -582.074958 
L 393.222506 -583.758551 
L 391.974836 -585.442143 
L 390.625022 -587.125736 
L 389.165323 -588.809329 
L 387.593763 -590.492921 
L 385.9168 -592.176514 
L 384.151453 -593.860107 
L 382.326568 -595.543699 
L 380.483006 -597.227292 
L 378.672643 -598.910885 
L 376.956206 -600.594477 
L 375.400102 -602.27807 
L 374.072495 -603.961663 
L 373.038968 -605.645255 
L 372.358124 -607.328848 
L 372.0775 -609.012441 
L 372.230117 -610.696033 
L 372.831932 -612.379626 
L 373.880393 -614.063219 
L 375.354203 -615.746811 
L 377.214317 -617.430404 
L 379.406096 -619.113997 
L 381.862469 -620.797589 
L 384.50786 -622.481182 
L 387.262579 -624.164775 
L 390.047331 -625.848367 
L 392.787495 -627.53196 
L 395.41684 -629.215553 
L 397.880395 -630.899145 
L 400.136312 -632.582738 
L 402.156632 -634.266331 
L 403.927001 -635.949923 
L 405.445473 -637.633516 
L 406.72062 -639.317109 
L 407.769207 -641.000701 
L 408.613703 -642.684294 
L 409.279868 -644.367887 
L 409.794603 -646.051479 
L 410.184209 -647.735072 
L 412.090791 -647.735072 
L 412.090791 -647.735072 
L 412.480397 -646.051479 
L 412.995132 -644.367887 
L 413.661297 -642.684294 
L 414.505793 -641.000701 
L 415.55438 -639.317109 
L 416.829527 -637.633516 
L 418.347999 -635.949923 
L 420.118368 -634.266331 
L 422.138688 -632.582738 
L 424.394605 -630.899145 
L 426.85816 -629.215553 
L 429.487505 -627.53196 
L 432.227669 -625.848367 
L 435.012421 -624.164775 
L 437.76714 -622.481182 
L 440.412531 -620.797589 
L 442.868904 -619.113997 
L 445.060683 -617.430404 
L 446.920797 -615.746811 
L 448.394607 -614.063219 
L 449.443068 -612.379626 
L 450.044883 -610.696033 
L 450.1975 -609.012441 
L 449.916876 -607.328848 
L 449.236032 -605.645255 
L 448.202505 -603.961663 
L 446.874898 -602.27807 
L 445.318794 -600.594477 
L 443.602357 -598.910885 
L 441.791994 -597.227292 
L 439.948432 -595.543699 
L 438.123547 -593.860107 
L 436.3582 -592.176514 
L 434.681237 -590.492921 
L 433.109677 -588.809329 
L 431.649978 -587.125736 
L 430.300164 -585.442143 
L 429.052494 -583.758551 
L 427.896303 -582.074958 
L 426.820679 -580.391365 
L 425.816641 -578.707773 
L 424.878624 -577.02418 
L 424.005148 -575.340587 
L 423.198677 -573.656995 
L 422.464803 -571.973402 
L 421.810912 -570.289809 
L 421.244594 -568.606217 
L 420.772013 -566.922624 
L 420.396478 -565.239031 
L 420.117347 -563.555439 
L 419.929402 -561.871846 
L 419.822703 -560.188253 
L 419.782931 -558.504661 
L 419.792128 -556.821068 
L 419.829763 -555.137475 
L 419.873998 -553.453883 
L 419.90306 -551.77029 
L 419.896586 -550.086697 
L 419.836882 -548.403105 
L 419.709975 -546.719512 
L 419.506431 -545.035919 
L 419.22186 -543.352327 
L 418.857088 -541.668734 
L 418.417993 -539.985141 
L 417.914997 -538.301549 
L 417.36227 -536.617956 
L 416.776695 -534.934363 
L 416.176684 -533.250771 
L 415.580931 -531.567178 
L 415.007216 -529.883585 
L 414.47133 -528.199993 
L 413.986221 -526.5164 
L 413.561391 -524.832807 
L 413.202574 -523.149215 
L 412.911698 -521.465622 
L 412.687089 -519.782029 
L 412.523891 -518.098437 
L 412.414648 -516.414844 
L 412.349991 -514.731251 
L 412.319386 -513.047659 
L 412.311902 -511.364066 
L 412.316931 -509.680473 
L 412.324846 -507.996881 
L 412.327533 -506.313288 
L 412.318787 -504.629695 
L 412.294523 -502.946103 
L 412.252814 -501.26251 
L 412.193745 -499.578917 
L 412.119119 -497.895325 
L 412.032048 -496.211732 
L 411.93647 -494.528139 
L 411.836672 -492.844547 
L 411.736839 -491.160954 
L 411.640697 -489.477361 
L 411.551253 -487.793769 
L 411.470663 -486.110176 
L 411.400205 -484.426583 
L 411.340346 -482.742991 
L 411.290871 -481.059398 
z
" style="stroke: #3d3d3d; stroke-opacity: 0.5"/>
    </defs>
    <g clip-path="url(#p1dd83cdc45)">
     <use xlink:href="#mddefd31f26" x="0" y="711.060318" style="fill: #845b53; fill-opacity: 0.5; stroke: #3d3d3d; stroke-opacity: 0.5"/>
    </g>
   </g>
   <g id="PolyCollection_5">
    <defs>
     <path id="m8bc026a6b5" d="M 509.20774 -246.019534 
L 508.36726 -246.019534 
L 508.178682 -247.650498 
L 507.923146 -249.281462 
L 507.584041 -250.912426 
L 507.14295 -252.54339 
L 506.580035 -254.174354 
L 505.87456 -255.805318 
L 505.005539 -257.436282 
L 503.952557 -259.067247 
L 502.696788 -260.698211 
L 501.222288 -262.329175 
L 499.517617 -263.960139 
L 497.577814 -265.591103 
L 495.406673 -267.222067 
L 493.019163 -268.853031 
L 490.443702 -270.483995 
L 487.723901 -272.114959 
L 484.9193 -273.745923 
L 482.104679 -275.376887 
L 479.367601 -277.007852 
L 476.804106 -278.638816 
L 474.512754 -280.26978 
L 472.587514 -281.900744 
L 471.110301 -283.531708 
L 470.144084 -285.162672 
L 469.7275 -286.793636 
L 469.871736 -288.4246 
L 470.560085 -290.055564 
L 471.750203 -291.686528 
L 473.378645 -293.317493 
L 475.366965 -294.948457 
L 477.62846 -296.579421 
L 480.074679 -298.210385 
L 482.620957 -299.841349 
L 485.190536 -301.472313 
L 487.717122 -303.103277 
L 490.146018 -304.734241 
L 492.434138 -306.365205 
L 494.549289 -307.996169 
L 496.469074 -309.627133 
L 498.179681 -311.258098 
L 499.674715 -312.889062 
L 500.954125 -314.520026 
L 502.023238 -316.15099 
L 502.891872 -317.781954 
L 503.573514 -319.412918 
L 504.08458 -321.043882 
L 504.443745 -322.674846 
L 504.671365 -324.30581 
L 504.788967 -325.936774 
L 504.818752 -327.567739 
L 504.783069 -329.198703 
L 504.703799 -330.829667 
L 504.60164 -332.460631 
L 504.495312 -334.091595 
L 504.400782 -335.722559 
L 504.330617 -337.353523 
L 504.29359 -338.984487 
L 504.294654 -340.615451 
L 504.335292 -342.246415 
L 504.414216 -343.877379 
L 504.528289 -345.508344 
L 504.673477 -347.139308 
L 504.845676 -348.770272 
L 505.04124 -350.401236 
L 505.257144 -352.0322 
L 505.490802 -353.663164 
L 505.739626 -355.294128 
L 506.00049 -356.925092 
L 506.269263 -358.556056 
L 506.540555 -360.18702 
L 506.807747 -361.817985 
L 507.063333 -363.448949 
L 507.299496 -365.079913 
L 507.508835 -366.710877 
L 507.685104 -368.341841 
L 507.823871 -369.972805 
L 507.923 -371.603769 
L 507.982912 -373.234733 
L 508.006604 -374.865697 
L 507.999434 -376.496661 
L 507.968692 -378.127626 
L 507.922992 -379.75859 
L 507.871543 -381.389554 
L 507.823348 -383.020518 
L 507.786425 -384.651482 
L 507.76712 -386.282446 
L 507.769601 -387.91341 
L 507.795599 -389.544374 
L 507.844429 -391.175338 
L 507.913271 -392.806302 
L 507.997689 -394.437266 
L 508.092275 -396.068231 
L 508.191338 -397.699195 
L 508.289536 -399.330159 
L 508.382363 -400.961123 
L 508.466458 -402.592087 
L 508.539719 -404.223051 
L 508.601242 -405.854015 
L 508.651136 -407.484979 
L 508.923864 -407.484979 
L 508.923864 -407.484979 
L 508.973758 -405.854015 
L 509.035281 -404.223051 
L 509.108542 -402.592087 
L 509.192637 -400.961123 
L 509.285464 -399.330159 
L 509.383662 -397.699195 
L 509.482725 -396.068231 
L 509.577311 -394.437266 
L 509.661729 -392.806302 
L 509.730571 -391.175338 
L 509.779401 -389.544374 
L 509.805399 -387.91341 
L 509.80788 -386.282446 
L 509.788575 -384.651482 
L 509.751652 -383.020518 
L 509.703457 -381.389554 
L 509.652008 -379.75859 
L 509.606308 -378.127626 
L 509.575566 -376.496661 
L 509.568396 -374.865697 
L 509.592088 -373.234733 
L 509.652 -371.603769 
L 509.751129 -369.972805 
L 509.889896 -368.341841 
L 510.066165 -366.710877 
L 510.275504 -365.079913 
L 510.511667 -363.448949 
L 510.767253 -361.817985 
L 511.034445 -360.18702 
L 511.305737 -358.556056 
L 511.57451 -356.925092 
L 511.835374 -355.294128 
L 512.084198 -353.663164 
L 512.317856 -352.0322 
L 512.53376 -350.401236 
L 512.729324 -348.770272 
L 512.901523 -347.139308 
L 513.046711 -345.508344 
L 513.160784 -343.877379 
L 513.239708 -342.246415 
L 513.280346 -340.615451 
L 513.28141 -338.984487 
L 513.244383 -337.353523 
L 513.174218 -335.722559 
L 513.079688 -334.091595 
L 512.97336 -332.460631 
L 512.871201 -330.829667 
L 512.791931 -329.198703 
L 512.756248 -327.567739 
L 512.786033 -325.936774 
L 512.903635 -324.30581 
L 513.131255 -322.674846 
L 513.49042 -321.043882 
L 514.001486 -319.412918 
L 514.683128 -317.781954 
L 515.551762 -316.15099 
L 516.620875 -314.520026 
L 517.900285 -312.889062 
L 519.395319 -311.258098 
L 521.105926 -309.627133 
L 523.025711 -307.996169 
L 525.140862 -306.365205 
L 527.428982 -304.734241 
L 529.857878 -303.103277 
L 532.384464 -301.472313 
L 534.954043 -299.841349 
L 537.500321 -298.210385 
L 539.94654 -296.579421 
L 542.208035 -294.948457 
L 544.196355 -293.317493 
L 545.824797 -291.686528 
L 547.014915 -290.055564 
L 547.703264 -288.4246 
L 547.8475 -286.793636 
L 547.430916 -285.162672 
L 546.464699 -283.531708 
L 544.987486 -281.900744 
L 543.062246 -280.26978 
L 540.770894 -278.638816 
L 538.207399 -277.007852 
L 535.470321 -275.376887 
L 532.6557 -273.745923 
L 529.851099 -272.114959 
L 527.131298 -270.483995 
L 524.555837 -268.853031 
L 522.168327 -267.222067 
L 519.997186 -265.591103 
L 518.057383 -263.960139 
L 516.352712 -262.329175 
L 514.878212 -260.698211 
L 513.622443 -259.067247 
L 512.569461 -257.436282 
L 511.70044 -255.805318 
L 510.994965 -254.174354 
L 510.43205 -252.54339 
L 509.990959 -250.912426 
L 509.651854 -249.281462 
L 509.396318 -247.650498 
L 509.20774 -246.019534 
z
" style="stroke: #3d3d3d; stroke-opacity: 0.5"/>
    </defs>
    <g clip-path="url(#p1dd83cdc45)">
     <use xlink:href="#m8bc026a6b5" x="0" y="711.060318" style="fill: #3274a1; fill-opacity: 0.5; stroke: #3d3d3d; stroke-opacity: 0.5"/>
    </g>
   </g>
   <g id="PolyCollection_6">
    <defs>
     <path id="mcc80e36a65" d="M 607.515155 -174.660318 
L 605.359845 -174.660318 
L 605.03408 -179.590435 
L 604.63446 -184.520552 
L 604.151908 -189.450669 
L 603.578319 -194.380786 
L 602.907134 -199.310903 
L 602.133915 -204.24102 
L 601.256845 -209.171138 
L 600.277088 -214.101255 
L 599.198979 -219.031372 
L 598.02997 -223.961489 
L 596.780334 -228.891606 
L 595.462616 -233.821723 
L 594.090882 -238.75184 
L 592.679806 -243.681958 
L 591.243719 -248.612075 
L 589.795684 -253.542192 
L 588.346736 -258.472309 
L 586.905362 -263.402426 
L 585.477294 -268.332543 
L 584.065662 -273.26266 
L 582.671476 -278.192778 
L 581.294405 -283.122895 
L 579.933765 -288.053012 
L 578.589592 -292.983129 
L 577.26369 -297.913246 
L 575.960526 -302.843363 
L 574.687874 -307.77348 
L 573.457133 -312.703598 
L 572.283302 -317.633715 
L 571.184592 -322.563832 
L 570.181732 -327.493949 
L 569.29703 -332.424066 
L 568.553266 -337.354183 
L 567.972497 -342.2843 
L 567.57487 -347.214418 
L 567.3775 -352.144535 
L 567.393475 -357.074652 
L 567.631034 -362.004769 
L 568.092939 -366.934886 
L 568.776083 -371.865003 
L 569.671321 -376.795121 
L 570.763557 -381.725238 
L 572.032072 -386.655355 
L 573.451092 -391.585472 
L 574.990584 -396.515589 
L 576.617247 -401.445706 
L 578.29565 -406.375823 
L 579.989487 -411.305941 
L 581.662856 -416.236058 
L 583.281529 -421.166175 
L 584.814119 -426.096292 
L 586.233109 -431.026409 
L 587.515681 -435.956526 
L 588.644313 -440.886643 
L 589.607139 -445.816761 
L 590.398053 -450.746878 
L 591.016591 -455.676995 
L 591.467605 -460.607112 
L 591.760768 -465.537229 
L 591.909951 -470.467346 
L 591.932524 -475.397463 
L 591.848602 -480.327581 
L 591.68029 -485.257698 
L 591.450942 -490.187815 
L 591.184469 -495.117932 
L 590.904684 -500.048049 
L 590.634717 -504.978166 
L 590.396462 -509.908283 
L 590.210084 -514.838401 
L 590.093556 -519.768518 
L 590.062231 -524.698635 
L 590.128458 -529.628752 
L 590.30124 -534.558869 
L 590.585973 -539.488986 
L 590.984263 -544.419103 
L 591.493865 -549.349221 
L 592.108773 -554.279338 
L 592.819444 -559.209455 
L 593.613207 -564.139572 
L 594.474801 -569.069689 
L 595.38706 -573.999806 
L 596.331675 -578.929923 
L 597.290005 -583.860041 
L 598.243885 -588.790158 
L 599.176361 -593.720275 
L 600.072335 -598.650392 
L 600.919054 -603.580509 
L 601.706436 -608.510626 
L 602.427234 -613.440744 
L 603.077012 -618.370861 
L 603.653993 -623.300978 
L 604.15877 -628.231095 
L 604.593945 -633.161212 
L 604.963706 -638.091329 
L 605.273399 -643.021446 
L 605.529102 -647.951564 
L 605.737253 -652.881681 
L 605.904317 -657.811798 
L 606.036531 -662.741915 
L 606.838469 -662.741915 
L 606.838469 -662.741915 
L 606.970683 -657.811798 
L 607.137747 -652.881681 
L 607.345898 -647.951564 
L 607.601601 -643.021446 
L 607.911294 -638.091329 
L 608.281055 -633.161212 
L 608.71623 -628.231095 
L 609.221007 -623.300978 
L 609.797988 -618.370861 
L 610.447766 -613.440744 
L 611.168564 -608.510626 
L 611.955946 -603.580509 
L 612.802665 -598.650392 
L 613.698639 -593.720275 
L 614.631115 -588.790158 
L 615.584995 -583.860041 
L 616.543325 -578.929923 
L 617.48794 -573.999806 
L 618.400199 -569.069689 
L 619.261793 -564.139572 
L 620.055556 -559.209455 
L 620.766227 -554.279338 
L 621.381135 -549.349221 
L 621.890737 -544.419103 
L 622.289027 -539.488986 
L 622.57376 -534.558869 
L 622.746542 -529.628752 
L 622.812769 -524.698635 
L 622.781444 -519.768518 
L 622.664916 -514.838401 
L 622.478538 -509.908283 
L 622.240283 -504.978166 
L 621.970316 -500.048049 
L 621.690531 -495.117932 
L 621.424058 -490.187815 
L 621.19471 -485.257698 
L 621.026398 -480.327581 
L 620.942476 -475.397463 
L 620.965049 -470.467346 
L 621.114232 -465.537229 
L 621.407395 -460.607112 
L 621.858409 -455.676995 
L 622.476947 -450.746878 
L 623.267861 -445.816761 
L 624.230687 -440.886643 
L 625.359319 -435.956526 
L 626.641891 -431.026409 
L 628.060881 -426.096292 
L 629.593471 -421.166175 
L 631.212144 -416.236058 
L 632.885513 -411.305941 
L 634.57935 -406.375823 
L 636.257753 -401.445706 
L 637.884416 -396.515589 
L 639.423908 -391.585472 
L 640.842928 -386.655355 
L 642.111443 -381.725238 
L 643.203679 -376.795121 
L 644.098917 -371.865003 
L 644.782061 -366.934886 
L 645.243966 -362.004769 
L 645.481525 -357.074652 
L 645.4975 -352.144535 
L 645.30013 -347.214418 
L 644.902503 -342.2843 
L 644.321734 -337.354183 
L 643.57797 -332.424066 
L 642.693268 -327.493949 
L 641.690408 -322.563832 
L 640.591698 -317.633715 
L 639.417867 -312.703598 
L 638.187126 -307.77348 
L 636.914474 -302.843363 
L 635.61131 -297.913246 
L 634.285408 -292.983129 
L 632.941235 -288.053012 
L 631.580595 -283.122895 
L 630.203524 -278.192778 
L 628.809338 -273.26266 
L 627.397706 -268.332543 
L 625.969638 -263.402426 
L 624.528264 -258.472309 
L 623.079316 -253.542192 
L 621.631281 -248.612075 
L 620.195194 -243.681958 
L 618.784118 -238.75184 
L 617.412384 -233.821723 
L 616.094666 -228.891606 
L 614.84503 -223.961489 
L 613.676021 -219.031372 
L 612.597912 -214.101255 
L 611.618155 -209.171138 
L 610.741085 -204.24102 
L 609.967866 -199.310903 
L 609.296681 -194.380786 
L 608.723092 -189.450669 
L 608.24054 -184.520552 
L 607.84092 -179.590435 
L 607.515155 -174.660318 
z
" style="stroke: #3d3d3d; stroke-opacity: 0.5"/>
    </defs>
    <g clip-path="url(#p1dd83cdc45)">
     <use xlink:href="#mcc80e36a65" x="0" y="711.060318" style="fill: #e1812c; fill-opacity: 0.5; stroke: #3d3d3d; stroke-opacity: 0.5"/>
    </g>
   </g>
   <g id="PolyCollection_7">
    <defs>
     <path id="m3b46578548" d="M 704.279179 -293.39535 
L 703.895821 -293.39535 
L 703.825964 -295.592373 
L 703.73827 -297.789397 
L 703.630863 -299.98642 
L 703.502422 -302.183443 
L 703.352299 -304.380466 
L 703.180558 -306.57749 
L 702.987897 -308.774513 
L 702.775454 -310.971536 
L 702.544528 -313.16856 
L 702.29626 -315.365583 
L 702.031345 -317.562606 
L 701.749841 -319.75963 
L 701.451138 -321.956653 
L 701.134106 -324.153676 
L 700.797394 -326.3507 
L 700.439806 -328.547723 
L 700.060665 -330.744746 
L 699.660024 -332.94177 
L 699.238656 -335.138793 
L 698.797757 -337.335816 
L 698.338408 -339.53284 
L 697.86088 -341.729863 
L 697.363948 -343.926886 
L 696.844383 -346.123909 
L 696.296788 -348.320933 
L 695.713844 -350.517956 
L 695.086979 -352.714979 
L 694.407349 -354.912003 
L 693.666947 -357.109026 
L 692.859626 -359.306049 
L 691.981847 -361.503073 
L 691.033011 -363.700096 
L 690.015348 -365.897119 
L 688.933396 -368.094143 
L 687.793224 -370.291166 
L 686.601531 -372.488189 
L 685.36478 -374.685213 
L 684.08851 -376.882236 
L 682.776879 -379.079259 
L 681.432536 -381.276282 
L 680.056859 -383.473306 
L 678.650615 -385.670329 
L 677.215083 -387.867352 
L 675.75364 -390.064376 
L 674.273702 -392.261399 
L 672.788821 -394.458422 
L 671.320593 -396.655446 
L 669.899929 -398.852469 
L 668.567265 -401.049492 
L 667.371345 -403.246516 
L 666.366427 -405.443539 
L 665.608045 -407.640562 
L 665.147749 -409.837586 
L 665.0275 -412.034609 
L 665.274543 -414.231632 
L 665.89757 -416.428655 
L 666.884814 -418.625679 
L 668.204426 -420.822702 
L 669.807124 -423.019725 
L 671.630744 -425.216749 
L 673.606019 -427.413772 
L 675.662772 -429.610795 
L 677.735669 -431.807819 
L 679.768818 -434.004842 
L 681.718738 -436.201865 
L 683.555494 -438.398889 
L 685.262118 -440.595912 
L 686.832663 -442.792935 
L 688.269399 -444.989959 
L 689.579724 -447.186982 
L 690.773315 -449.384005 
L 691.859917 -451.581029 
L 692.848001 -453.778052 
L 693.744322 -455.975075 
L 694.554244 -458.172098 
L 695.282583 -460.369122 
L 695.934635 -462.566145 
L 696.51709 -464.763168 
L 697.038577 -466.960192 
L 697.509706 -469.157215 
L 697.942567 -471.354238 
L 698.349808 -473.551262 
L 698.743444 -475.748285 
L 699.133643 -477.945308 
L 699.527704 -480.142332 
L 699.929394 -482.339355 
L 700.33877 -484.536378 
L 700.752478 -486.733402 
L 701.164463 -488.930425 
L 701.566973 -491.127448 
L 701.951664 -493.324471 
L 702.310665 -495.521495 
L 702.637443 -497.718518 
L 702.927394 -499.915541 
L 703.178109 -502.112565 
L 703.389348 -504.309588 
L 703.562774 -506.506611 
L 703.701523 -508.703635 
L 703.809706 -510.900658 
L 704.365294 -510.900658 
L 704.365294 -510.900658 
L 704.473477 -508.703635 
L 704.612226 -506.506611 
L 704.785652 -504.309588 
L 704.996891 -502.112565 
L 705.247606 -499.915541 
L 705.537557 -497.718518 
L 705.864335 -495.521495 
L 706.223336 -493.324471 
L 706.608027 -491.127448 
L 707.010537 -488.930425 
L 707.422522 -486.733402 
L 707.83623 -484.536378 
L 708.245606 -482.339355 
L 708.647296 -480.142332 
L 709.041357 -477.945308 
L 709.431556 -475.748285 
L 709.825192 -473.551262 
L 710.232433 -471.354238 
L 710.665294 -469.157215 
L 711.136423 -466.960192 
L 711.65791 -464.763168 
L 712.240365 -462.566145 
L 712.892417 -460.369122 
L 713.620756 -458.172098 
L 714.430678 -455.975075 
L 715.326999 -453.778052 
L 716.315083 -451.581029 
L 717.401685 -449.384005 
L 718.595276 -447.186982 
L 719.905601 -444.989959 
L 721.342337 -442.792935 
L 722.912882 -440.595912 
L 724.619506 -438.398889 
L 726.456262 -436.201865 
L 728.406182 -434.004842 
L 730.439331 -431.807819 
L 732.512228 -429.610795 
L 734.568981 -427.413772 
L 736.544256 -425.216749 
L 738.367876 -423.019725 
L 739.970574 -420.822702 
L 741.290186 -418.625679 
L 742.27743 -416.428655 
L 742.900457 -414.231632 
L 743.1475 -412.034609 
L 743.027251 -409.837586 
L 742.566955 -407.640562 
L 741.808573 -405.443539 
L 740.803655 -403.246516 
L 739.607735 -401.049492 
L 738.275071 -398.852469 
L 736.854407 -396.655446 
L 735.386179 -394.458422 
L 733.901298 -392.261399 
L 732.42136 -390.064376 
L 730.959917 -387.867352 
L 729.524385 -385.670329 
L 728.118141 -383.473306 
L 726.742464 -381.276282 
L 725.398121 -379.079259 
L 724.08649 -376.882236 
L 722.81022 -374.685213 
L 721.573469 -372.488189 
L 720.381776 -370.291166 
L 719.241604 -368.094143 
L 718.159652 -365.897119 
L 717.141989 -363.700096 
L 716.193153 -361.503073 
L 715.315374 -359.306049 
L 714.508053 -357.109026 
L 713.767651 -354.912003 
L 713.088021 -352.714979 
L 712.461156 -350.517956 
L 711.878212 -348.320933 
L 711.330617 -346.123909 
L 710.811052 -343.926886 
L 710.31412 -341.729863 
L 709.836592 -339.53284 
L 709.377243 -337.335816 
L 708.936344 -335.138793 
L 708.514976 -332.94177 
L 708.114335 -330.744746 
L 707.735194 -328.547723 
L 707.377606 -326.3507 
L 707.040894 -324.153676 
L 706.723862 -321.956653 
L 706.425159 -319.75963 
L 706.143655 -317.562606 
L 705.87874 -315.365583 
L 705.630472 -313.16856 
L 705.399546 -310.971536 
L 705.187103 -308.774513 
L 704.994442 -306.57749 
L 704.822701 -304.380466 
L 704.672578 -302.183443 
L 704.544137 -299.98642 
L 704.43673 -297.789397 
L 704.349036 -295.592373 
L 704.279179 -293.39535 
z
" style="stroke: #3d3d3d; stroke-opacity: 0.5"/>
    </defs>
    <g clip-path="url(#p1dd83cdc45)">
     <use xlink:href="#m3b46578548" x="0" y="711.060318" style="fill: #3a923a; fill-opacity: 0.5; stroke: #3d3d3d; stroke-opacity: 0.5"/>
    </g>
   </g>
   <g id="PolyCollection_8">
    <defs>
     <path id="m28598fbe3a" d="M 801.87993 -247.709197 
L 801.59507 -247.709197 
L 801.545729 -252.062238 
L 801.485403 -256.41528 
L 801.413936 -260.768322 
L 801.332028 -265.121363 
L 801.2414 -269.474405 
L 801.144861 -273.827447 
L 801.046264 -278.180488 
L 800.950298 -282.53353 
L 800.862151 -286.886571 
L 800.787037 -291.239613 
L 800.729674 -295.592655 
L 800.693742 -299.945696 
L 800.681429 -304.298738 
L 800.693101 -308.65178 
L 800.727168 -313.004821 
L 800.780139 -317.357863 
L 800.846863 -321.710904 
L 800.920916 -326.063946 
L 800.995075 -330.416988 
L 801.061823 -334.770029 
L 801.113829 -339.123071 
L 801.144389 -343.476112 
L 801.147796 -347.829154 
L 801.119648 -352.182196 
L 801.057106 -356.535237 
L 800.95909 -360.888279 
L 800.826402 -365.241321 
L 800.661743 -369.594362 
L 800.46959 -373.947404 
L 800.25589 -378.300445 
L 800.02755 -382.653487 
L 799.791763 -387.006529 
L 799.555209 -391.35957 
L 799.323252 -395.712612 
L 799.099273 -400.065654 
L 798.884261 -404.418695 
L 798.676775 -408.771737 
L 798.47334 -413.124778 
L 798.269223 -417.47782 
L 798.0595 -421.830862 
L 797.840233 -426.183903 
L 797.609534 -430.536945 
L 797.368319 -434.889987 
L 797.120579 -439.243028 
L 796.873088 -443.59607 
L 796.634548 -447.949111 
L 796.414279 -452.302153 
L 796.220633 -456.655195 
L 796.059334 -461.008236 
L 795.931991 -465.361278 
L 795.834971 -469.71432 
L 795.758781 -474.067361 
L 795.688052 -478.420403 
L 795.602142 -482.773444 
L 795.476318 -487.126486 
L 795.283422 -491.479528 
L 794.995875 -495.832569 
L 794.587854 -500.185611 
L 794.037421 -504.538653 
L 793.328392 -508.891694 
L 792.451731 -513.244736 
L 791.406283 -517.597777 
L 790.198722 -521.950819 
L 788.842697 -526.303861 
L 787.357238 -530.656902 
L 785.764622 -535.009944 
L 784.088007 -539.362986 
L 782.349195 -543.716027 
L 780.566932 -548.069069 
L 778.756095 -552.42211 
L 776.928049 -556.775152 
L 775.092252 -561.128194 
L 773.259027 -565.481235 
L 771.443125 -569.834277 
L 769.667545 -574.187319 
L 767.966849 -578.54036 
L 766.389189 -582.893402 
L 764.996313 -587.246443 
L 763.861072 -591.599485 
L 763.062309 -595.952527 
L 762.6775 -600.305568 
L 762.773974 -604.65861 
L 763.399938 -609.011652 
L 764.576702 -613.364693 
L 766.293422 -617.717735 
L 768.505373 -622.070776 
L 771.136178 -626.423818 
L 774.083807 -630.77686 
L 777.229512 -635.129901 
L 780.448425 -639.482943 
L 783.620312 -643.835985 
L 786.639061 -648.189026 
L 789.419776 -652.542068 
L 791.902839 -656.895109 
L 794.054838 -661.248151 
L 795.866705 -665.601193 
L 797.349786 -669.954234 
L 798.530708 -674.307276 
L 799.445901 -678.660318 
L 804.029099 -678.660318 
L 804.029099 -678.660318 
L 804.944292 -674.307276 
L 806.125214 -669.954234 
L 807.608295 -665.601193 
L 809.420162 -661.248151 
L 811.572161 -656.895109 
L 814.055224 -652.542068 
L 816.835939 -648.189026 
L 819.854688 -643.835985 
L 823.026575 -639.482943 
L 826.245488 -635.129901 
L 829.391193 -630.77686 
L 832.338822 -626.423818 
L 834.969627 -622.070776 
L 837.181578 -617.717735 
L 838.898298 -613.364693 
L 840.075062 -609.011652 
L 840.701026 -604.65861 
L 840.7975 -600.305568 
L 840.412691 -595.952527 
L 839.613928 -591.599485 
L 838.478687 -587.246443 
L 837.085811 -582.893402 
L 835.508151 -578.54036 
L 833.807455 -574.187319 
L 832.031875 -569.834277 
L 830.215973 -565.481235 
L 828.382748 -561.128194 
L 826.546951 -556.775152 
L 824.718905 -552.42211 
L 822.908068 -548.069069 
L 821.125805 -543.716027 
L 819.386993 -539.362986 
L 817.710378 -535.009944 
L 816.117762 -530.656902 
L 814.632303 -526.303861 
L 813.276278 -521.950819 
L 812.068717 -517.597777 
L 811.023269 -513.244736 
L 810.146608 -508.891694 
L 809.437579 -504.538653 
L 808.887146 -500.185611 
L 808.479125 -495.832569 
L 808.191578 -491.479528 
L 807.998682 -487.126486 
L 807.872858 -482.773444 
L 807.786948 -478.420403 
L 807.716219 -474.067361 
L 807.640029 -469.71432 
L 807.543009 -465.361278 
L 807.415666 -461.008236 
L 807.254367 -456.655195 
L 807.060721 -452.302153 
L 806.840452 -447.949111 
L 806.601912 -443.59607 
L 806.354421 -439.243028 
L 806.106681 -434.889987 
L 805.865466 -430.536945 
L 805.634767 -426.183903 
L 805.4155 -421.830862 
L 805.205777 -417.47782 
L 805.00166 -413.124778 
L 804.798225 -408.771737 
L 804.590739 -404.418695 
L 804.375727 -400.065654 
L 804.151748 -395.712612 
L 803.919791 -391.35957 
L 803.683237 -387.006529 
L 803.44745 -382.653487 
L 803.21911 -378.300445 
L 803.00541 -373.947404 
L 802.813257 -369.594362 
L 802.648598 -365.241321 
L 802.51591 -360.888279 
L 802.417894 -356.535237 
L 802.355352 -352.182196 
L 802.327204 -347.829154 
L 802.330611 -343.476112 
L 802.361171 -339.123071 
L 802.413177 -334.770029 
L 802.479925 -330.416988 
L 802.554084 -326.063946 
L 802.628137 -321.710904 
L 802.694861 -317.357863 
L 802.747832 -313.004821 
L 802.781899 -308.65178 
L 802.793571 -304.298738 
L 802.781258 -299.945696 
L 802.745326 -295.592655 
L 802.687963 -291.239613 
L 802.612849 -286.886571 
L 802.524702 -282.53353 
L 802.428736 -278.180488 
L 802.330139 -273.827447 
L 802.2336 -269.474405 
L 802.142972 -265.121363 
L 802.061064 -260.768322 
L 801.989597 -256.41528 
L 801.929271 -252.062238 
L 801.87993 -247.709197 
z
" style="stroke: #3d3d3d; stroke-opacity: 0.5"/>
    </defs>
    <g clip-path="url(#p1dd83cdc45)">
     <use xlink:href="#m28598fbe3a" x="0" y="711.060318" style="fill: #c03d3e; fill-opacity: 0.5; stroke: #3d3d3d; stroke-opacity: 0.5"/>
    </g>
   </g>
   <g id="line2d_7">
    <path d="M 118.1875 274.078389 
L 118.1875 89.270821 
" clip-path="url(#p1dd83cdc45)" style="fill: none; stroke: #3d3d3d; stroke-width: 1.5; stroke-linecap: round"/>
   </g>
   <g id="line2d_8">
    <path d="M 118.1875 178.59441 
L 118.1875 108.403906 
" clip-path="url(#p1dd83cdc45)" style="fill: none; stroke: #3d3d3d; stroke-width: 4.5; stroke-linecap: round"/>
   </g>
   <g id="line2d_9">
    <path d="M 118.1875 124.875742 
" clip-path="url(#p1dd83cdc45)" style="fill: none; stroke: #3d3d3d; stroke-width: 1.5; stroke-linecap: round"/>
    <defs>
     <path id="mf0b9e85cf4" d="M 1.875 0 
L -1.875 -0 
" style="stroke: #ffffff; stroke-width: 0.9"/>
    </defs>
    <g clip-path="url(#p1dd83cdc45)">
     <use xlink:href="#mf0b9e85cf4" x="118.1875" y="124.875742" style="fill: #ffffff; stroke: #ffffff; stroke-width: 0.9"/>
    </g>
   </g>
   <g id="line2d_10">
    <path d="M 215.8375 438.332396 
L 215.8375 278.71094 
" clip-path="url(#p1dd83cdc45)" style="fill: none; stroke: #3d3d3d; stroke-width: 1.5; stroke-linecap: round"/>
   </g>
   <g id="line2d_11">
    <path d="M 215.8375 406.080752 
L 215.8375 348.698383 
" clip-path="url(#p1dd83cdc45)" style="fill: none; stroke: #3d3d3d; stroke-width: 4.5; stroke-linecap: round"/>
   </g>
   <g id="line2d_12">
    <path d="M 215.8375 375.833332 
" clip-path="url(#p1dd83cdc45)" style="fill: none; stroke: #3d3d3d; stroke-width: 1.5; stroke-linecap: round"/>
    <g clip-path="url(#p1dd83cdc45)">
     <use xlink:href="#mf0b9e85cf4" x="215.8375" y="375.833332" style="fill: #ffffff; stroke: #ffffff; stroke-width: 0.9"/>
    </g>
   </g>
   <g id="line2d_13">
    <path d="M 313.4875 183.323639 
L 313.4875 95.343857 
" clip-path="url(#p1dd83cdc45)" style="fill: none; stroke: #3d3d3d; stroke-width: 1.5; stroke-linecap: round"/>
   </g>
   <g id="line2d_14">
    <path d="M 313.4875 139.530199 
L 313.4875 109.591453 
" clip-path="url(#p1dd83cdc45)" style="fill: none; stroke: #3d3d3d; stroke-width: 4.5; stroke-linecap: round"/>
   </g>
   <g id="line2d_15">
    <path d="M 313.4875 126.390405 
" clip-path="url(#p1dd83cdc45)" style="fill: none; stroke: #3d3d3d; stroke-width: 1.5; stroke-linecap: round"/>
    <g clip-path="url(#p1dd83cdc45)">
     <use xlink:href="#mf0b9e85cf4" x="313.4875" y="126.390405" style="fill: #ffffff; stroke: #ffffff; stroke-width: 0.9"/>
    </g>
   </g>
   <g id="line2d_16">
    <path d="M 411.1375 174.259701 
L 411.1375 86.543549 
" clip-path="url(#p1dd83cdc45)" style="fill: none; stroke: #3d3d3d; stroke-width: 1.5; stroke-linecap: round"/>
   </g>
   <g id="line2d_17">
    <path d="M 411.1375 129.76507 
L 411.1375 97.545681 
" clip-path="url(#p1dd83cdc45)" style="fill: none; stroke: #3d3d3d; stroke-width: 4.5; stroke-linecap: round"/>
   </g>
   <g id="line2d_18">
    <path d="M 411.1375 106.259482 
" clip-path="url(#p1dd83cdc45)" style="fill: none; stroke: #3d3d3d; stroke-width: 1.5; stroke-linecap: round"/>
    <g clip-path="url(#p1dd83cdc45)">
     <use xlink:href="#mf0b9e85cf4" x="411.1375" y="106.259482" style="fill: #ffffff; stroke: #ffffff; stroke-width: 0.9"/>
    </g>
   </g>
   <g id="line2d_19">
    <path d="M 508.7875 444.966698 
L 508.7875 398.743307 
" clip-path="url(#p1dd83cdc45)" style="fill: none; stroke: #3d3d3d; stroke-width: 1.5; stroke-linecap: round"/>
   </g>
   <g id="line2d_20">
    <path d="M 508.7875 427.205978 
L 508.7875 412.467461 
" clip-path="url(#p1dd83cdc45)" style="fill: none; stroke: #3d3d3d; stroke-width: 4.5; stroke-linecap: round"/>
   </g>
   <g id="line2d_21">
    <path d="M 508.7875 423.062494 
" clip-path="url(#p1dd83cdc45)" style="fill: none; stroke: #3d3d3d; stroke-width: 1.5; stroke-linecap: round"/>
    <g clip-path="url(#p1dd83cdc45)">
     <use xlink:href="#mf0b9e85cf4" x="508.7875" y="423.062494" style="fill: #ffffff; stroke: #ffffff; stroke-width: 0.9"/>
    </g>
   </g>
   <g id="line2d_22">
    <path d="M 606.4375 455.809518 
L 606.4375 128.908884 
" clip-path="url(#p1dd83cdc45)" style="fill: none; stroke: #3d3d3d; stroke-width: 1.5; stroke-linecap: round"/>
   </g>
   <g id="line2d_23">
    <path d="M 606.4375 380.530406 
L 606.4375 273.00453 
" clip-path="url(#p1dd83cdc45)" style="fill: none; stroke: #3d3d3d; stroke-width: 4.5; stroke-linecap: round"/>
   </g>
   <g id="line2d_24">
    <path d="M 606.4375 341.582749 
" clip-path="url(#p1dd83cdc45)" style="fill: none; stroke: #3d3d3d; stroke-width: 1.5; stroke-linecap: round"/>
    <g clip-path="url(#p1dd83cdc45)">
     <use xlink:href="#mf0b9e85cf4" x="606.4375" y="341.582749" style="fill: #ffffff; stroke: #ffffff; stroke-width: 0.9"/>
    </g>
   </g>
   <g id="line2d_25">
    <path d="M 704.0875 372.6163 
L 704.0875 241.135116 
" clip-path="url(#p1dd83cdc45)" style="fill: none; stroke: #3d3d3d; stroke-width: 1.5; stroke-linecap: round"/>
   </g>
   <g id="line2d_26">
    <path d="M 704.0875 321.79417 
L 704.0875 287.663116 
" clip-path="url(#p1dd83cdc45)" style="fill: none; stroke: #3d3d3d; stroke-width: 4.5; stroke-linecap: round"/>
   </g>
   <g id="line2d_27">
    <path d="M 704.0875 300.568439 
" clip-path="url(#p1dd83cdc45)" style="fill: none; stroke: #3d3d3d; stroke-width: 1.5; stroke-linecap: round"/>
    <g clip-path="url(#p1dd83cdc45)">
     <use xlink:href="#mf0b9e85cf4" x="704.0875" y="300.568439" style="fill: #ffffff; stroke: #ffffff; stroke-width: 0.9"/>
    </g>
   </g>
   <g id="line2d_28">
    <path d="M 801.7375 250.791475 
L 801.7375 88.675086 
" clip-path="url(#p1dd83cdc45)" style="fill: none; stroke: #3d3d3d; stroke-width: 1.5; stroke-linecap: round"/>
   </g>
   <g id="line2d_29">
    <path d="M 801.7375 162.37279 
L 801.7375 98.142385 
" clip-path="url(#p1dd83cdc45)" style="fill: none; stroke: #3d3d3d; stroke-width: 4.5; stroke-linecap: round"/>
   </g>
   <g id="line2d_30">
    <path d="M 801.7375 126.866435 
" clip-path="url(#p1dd83cdc45)" style="fill: none; stroke: #3d3d3d; stroke-width: 1.5; stroke-linecap: round"/>
    <g clip-path="url(#p1dd83cdc45)">
     <use xlink:href="#mf0b9e85cf4" x="801.7375" y="126.866435" style="fill: #ffffff; stroke: #ffffff; stroke-width: 0.9"/>
    </g>
   </g>
   <g id="patch_3">
    <path d="M 69.3625 561.6 
L 850.5625 561.6 
" style="fill: none; stroke: #cccccc; stroke-width: 0.8; stroke-linejoin: miter; stroke-linecap: square"/>
   </g>
  </g>
 </g>
 <defs>
  <clipPath id="p1dd83cdc45">
   <rect x="69.3625" y="7.2" width="781.2" height="554.4"/>
  </clipPath>
 </defs>
</svg>
