<?xml version="1.0" encoding="utf-8" standalone="no"?>
<!DOCTYPE svg PUBLIC "-//W3C//DTD SVG 1.1//EN"
  "http://www.w3.org/Graphics/SVG/1.1/DTD/svg11.dtd">
<svg xmlns:xlink="http://www.w3.org/1999/xlink" width="853.45pt" height="711.060318pt" viewBox="0 0 853.45 711.060318" xmlns="http://www.w3.org/2000/svg" version="1.1">
 <metadata>
  <rdf:RDF xmlns:dc="http://purl.org/dc/elements/1.1/" xmlns:cc="http://creativecommons.org/ns#" xmlns:rdf="http://www.w3.org/1999/02/22-rdf-syntax-ns#">
   <cc:Work>
    <dc:type rdf:resource="http://purl.org/dc/dcmitype/StillImage"/>
    <dc:date>2024-06-19T17:04:34.725035</dc:date>
    <dc:format>image/svg+xml</dc:format>
    <dc:creator>
     <cc:Agent>
      <dc:title>Matplotlib v3.8.0, https://matplotlib.org/</dc:title>
     </cc:Agent>
    </dc:creator>
   </cc:Work>
  </rdf:RDF>
 </metadata>
 <defs>
  <style type="text/css">*{stroke-linejoin: round; stroke-linecap: butt}</style>
 </defs>
 <g id="figure_1">
  <g id="patch_1">
   <path d="M 0 711.060318 
L 853.45 711.060318 
L 853.45 0 
L 0 0 
L 0 711.060318 
z
" style="fill: none"/>
  </g>
  <g id="axes_1">
   <g id="patch_2">
    <path d="M 65.05 561.6 
L 846.25 561.6 
L 846.25 7.2 
L 65.05 7.2 
L 65.05 561.6 
z
" style="fill: none"/>
   </g>
   <g id="matplotlib.axis_1">
    <g id="xtick_1">
     <g id="text_1">
      <!-- MSA -->
      <g style="fill: #262626" transform="translate(93.501486 610.465141) rotate(-45) scale(0.2 -0.2)">
       <defs>
        <path id="DejaVuSans-4d" d="M 628 4666 
L 1569 4666 
L 2759 1491 
L 3956 4666 
L 4897 4666 
L 4897 0 
L 4281 0 
L 4281 4097 
L 3078 897 
L 2444 897 
L 1241 4097 
L 1241 0 
L 628 0 
L 628 4666 
z
" transform="scale(0.015625)"/>
        <path id="DejaVuSans-53" d="M 3425 4513 
L 3425 3897 
Q 3066 4069 2747 4153 
Q 2428 4238 2131 4238 
Q 1616 4238 1336 4038 
Q 1056 3838 1056 3469 
Q 1056 3159 1242 3001 
Q 1428 2844 1947 2747 
L 2328 2669 
Q 3034 2534 3370 2195 
Q 3706 1856 3706 1288 
Q 3706 609 3251 259 
Q 2797 -91 1919 -91 
Q 1588 -91 1214 -16 
Q 841 59 441 206 
L 441 856 
Q 825 641 1194 531 
Q 1563 422 1919 422 
Q 2459 422 2753 634 
Q 3047 847 3047 1241 
Q 3047 1584 2836 1778 
Q 2625 1972 2144 2069 
L 1759 2144 
Q 1053 2284 737 2584 
Q 422 2884 422 3419 
Q 422 4038 858 4394 
Q 1294 4750 2059 4750 
Q 2388 4750 2728 4690 
Q 3069 4631 3425 4513 
z
" transform="scale(0.015625)"/>
        <path id="DejaVuSans-41" d="M 2188 4044 
L 1331 1722 
L 3047 1722 
L 2188 4044 
z
M 1831 4666 
L 2547 4666 
L 4325 0 
L 3669 0 
L 3244 1197 
L 1141 1197 
L 716 0 
L 50 0 
L 1831 4666 
z
" transform="scale(0.015625)"/>
       </defs>
       <use xlink:href="#DejaVuSans-4d"/>
       <use xlink:href="#DejaVuSans-53" x="86.279297"/>
       <use xlink:href="#DejaVuSans-41" x="151.630859"/>
      </g>
     </g>
    </g>
    <g id="xtick_2">
     <g id="text_2">
      <!-- Single -->
      <g style="fill: #262626" transform="translate(178.792585 622.824042) rotate(-45) scale(0.2 -0.2)">
       <defs>
        <path id="DejaVuSans-69" d="M 603 3500 
L 1178 3500 
L 1178 0 
L 603 0 
L 603 3500 
z
M 603 4863 
L 1178 4863 
L 1178 4134 
L 603 4134 
L 603 4863 
z
" transform="scale(0.015625)"/>
        <path id="DejaVuSans-6e" d="M 3513 2113 
L 3513 0 
L 2938 0 
L 2938 2094 
Q 2938 2591 2744 2837 
Q 2550 3084 2163 3084 
Q 1697 3084 1428 2787 
Q 1159 2491 1159 1978 
L 1159 0 
L 581 0 
L 581 3500 
L 1159 3500 
L 1159 2956 
Q 1366 3272 1645 3428 
Q 1925 3584 2291 3584 
Q 2894 3584 3203 3211 
Q 3513 2838 3513 2113 
z
" transform="scale(0.015625)"/>
        <path id="DejaVuSans-67" d="M 2906 1791 
Q 2906 2416 2648 2759 
Q 2391 3103 1925 3103 
Q 1463 3103 1205 2759 
Q 947 2416 947 1791 
Q 947 1169 1205 825 
Q 1463 481 1925 481 
Q 2391 481 2648 825 
Q 2906 1169 2906 1791 
z
M 3481 434 
Q 3481 -459 3084 -895 
Q 2688 -1331 1869 -1331 
Q 1566 -1331 1297 -1286 
Q 1028 -1241 775 -1147 
L 775 -588 
Q 1028 -725 1275 -790 
Q 1522 -856 1778 -856 
Q 2344 -856 2625 -561 
Q 2906 -266 2906 331 
L 2906 616 
Q 2728 306 2450 153 
Q 2172 0 1784 0 
Q 1141 0 747 490 
Q 353 981 353 1791 
Q 353 2603 747 3093 
Q 1141 3584 1784 3584 
Q 2172 3584 2450 3431 
Q 2728 3278 2906 2969 
L 2906 3500 
L 3481 3500 
L 3481 434 
z
" transform="scale(0.015625)"/>
        <path id="DejaVuSans-6c" d="M 603 4863 
L 1178 4863 
L 1178 0 
L 603 0 
L 603 4863 
z
" transform="scale(0.015625)"/>
        <path id="DejaVuSans-65" d="M 3597 1894 
L 3597 1613 
L 953 1613 
Q 991 1019 1311 708 
Q 1631 397 2203 397 
Q 2534 397 2845 478 
Q 3156 559 3463 722 
L 3463 178 
Q 3153 47 2828 -22 
Q 2503 -91 2169 -91 
Q 1331 -91 842 396 
Q 353 884 353 1716 
Q 353 2575 817 3079 
Q 1281 3584 2069 3584 
Q 2775 3584 3186 3129 
Q 3597 2675 3597 1894 
z
M 3022 2063 
Q 3016 2534 2758 2815 
Q 2500 3097 2075 3097 
Q 1594 3097 1305 2825 
Q 1016 2553 972 2059 
L 3022 2063 
z
" transform="scale(0.015625)"/>
       </defs>
       <use xlink:href="#DejaVuSans-53"/>
       <use xlink:href="#DejaVuSans-69" x="63.476562"/>
       <use xlink:href="#DejaVuSans-6e" x="91.259766"/>
       <use xlink:href="#DejaVuSans-67" x="154.638672"/>
       <use xlink:href="#DejaVuSans-6c" x="218.115234"/>
       <use xlink:href="#DejaVuSans-65" x="245.898438"/>
      </g>
     </g>
    </g>
    <g id="xtick_3">
     <g id="text_3">
      <!-- Gaussian -->
      <g style="fill: #262626" transform="translate(255.041556 644.22507) rotate(-45) scale(0.2 -0.2)">
       <defs>
        <path id="DejaVuSans-47" d="M 3809 666 
L 3809 1919 
L 2778 1919 
L 2778 2438 
L 4434 2438 
L 4434 434 
Q 4069 175 3628 42 
Q 3188 -91 2688 -91 
Q 1594 -91 976 548 
Q 359 1188 359 2328 
Q 359 3472 976 4111 
Q 1594 4750 2688 4750 
Q 3144 4750 3555 4637 
Q 3966 4525 4313 4306 
L 4313 3634 
Q 3963 3931 3569 4081 
Q 3175 4231 2741 4231 
Q 1884 4231 1454 3753 
Q 1025 3275 1025 2328 
Q 1025 1384 1454 906 
Q 1884 428 2741 428 
Q 3075 428 3337 486 
Q 3600 544 3809 666 
z
" transform="scale(0.015625)"/>
        <path id="DejaVuSans-61" d="M 2194 1759 
Q 1497 1759 1228 1600 
Q 959 1441 959 1056 
Q 959 750 1161 570 
Q 1363 391 1709 391 
Q 2188 391 2477 730 
Q 2766 1069 2766 1631 
L 2766 1759 
L 2194 1759 
z
M 3341 1997 
L 3341 0 
L 2766 0 
L 2766 531 
Q 2569 213 2275 61 
Q 1981 -91 1556 -91 
Q 1019 -91 701 211 
Q 384 513 384 1019 
Q 384 1609 779 1909 
Q 1175 2209 1959 2209 
L 2766 2209 
L 2766 2266 
Q 2766 2663 2505 2880 
Q 2244 3097 1772 3097 
Q 1472 3097 1187 3025 
Q 903 2953 641 2809 
L 641 3341 
Q 956 3463 1253 3523 
Q 1550 3584 1831 3584 
Q 2591 3584 2966 3190 
Q 3341 2797 3341 1997 
z
" transform="scale(0.015625)"/>
        <path id="DejaVuSans-75" d="M 544 1381 
L 544 3500 
L 1119 3500 
L 1119 1403 
Q 1119 906 1312 657 
Q 1506 409 1894 409 
Q 2359 409 2629 706 
Q 2900 1003 2900 1516 
L 2900 3500 
L 3475 3500 
L 3475 0 
L 2900 0 
L 2900 538 
Q 2691 219 2414 64 
Q 2138 -91 1772 -91 
Q 1169 -91 856 284 
Q 544 659 544 1381 
z
M 1991 3584 
L 1991 3584 
z
" transform="scale(0.015625)"/>
        <path id="DejaVuSans-73" d="M 2834 3397 
L 2834 2853 
Q 2591 2978 2328 3040 
Q 2066 3103 1784 3103 
Q 1356 3103 1142 2972 
Q 928 2841 928 2578 
Q 928 2378 1081 2264 
Q 1234 2150 1697 2047 
L 1894 2003 
Q 2506 1872 2764 1633 
Q 3022 1394 3022 966 
Q 3022 478 2636 193 
Q 2250 -91 1575 -91 
Q 1294 -91 989 -36 
Q 684 19 347 128 
L 347 722 
Q 666 556 975 473 
Q 1284 391 1588 391 
Q 1994 391 2212 530 
Q 2431 669 2431 922 
Q 2431 1156 2273 1281 
Q 2116 1406 1581 1522 
L 1381 1569 
Q 847 1681 609 1914 
Q 372 2147 372 2553 
Q 372 3047 722 3315 
Q 1072 3584 1716 3584 
Q 2034 3584 2315 3537 
Q 2597 3491 2834 3397 
z
" transform="scale(0.015625)"/>
       </defs>
       <use xlink:href="#DejaVuSans-47"/>
       <use xlink:href="#DejaVuSans-61" x="77.490234"/>
       <use xlink:href="#DejaVuSans-75" x="138.769531"/>
       <use xlink:href="#DejaVuSans-73" x="202.148438"/>
       <use xlink:href="#DejaVuSans-73" x="254.248047"/>
       <use xlink:href="#DejaVuSans-69" x="306.347656"/>
       <use xlink:href="#DejaVuSans-61" x="334.130859"/>
       <use xlink:href="#DejaVuSans-6e" x="395.410156"/>
      </g>
     </g>
    </g>
    <g id="xtick_4">
     <g id="text_4">
      <!-- Gaussian (AF) -->
      <g style="fill: #262626" transform="translate(319.353681 677.562945) rotate(-45) scale(0.2 -0.2)">
       <defs>
        <path id="DejaVuSans-20" transform="scale(0.015625)"/>
        <path id="DejaVuSans-28" d="M 1984 4856 
Q 1566 4138 1362 3434 
Q 1159 2731 1159 2009 
Q 1159 1288 1364 580 
Q 1569 -128 1984 -844 
L 1484 -844 
Q 1016 -109 783 600 
Q 550 1309 550 2009 
Q 550 2706 781 3412 
Q 1013 4119 1484 4856 
L 1984 4856 
z
" transform="scale(0.015625)"/>
        <path id="DejaVuSans-46" d="M 628 4666 
L 3309 4666 
L 3309 4134 
L 1259 4134 
L 1259 2759 
L 3109 2759 
L 3109 2228 
L 1259 2228 
L 1259 0 
L 628 0 
L 628 4666 
z
" transform="scale(0.015625)"/>
        <path id="DejaVuSans-29" d="M 513 4856 
L 1013 4856 
Q 1481 4119 1714 3412 
Q 1947 2706 1947 2009 
Q 1947 1309 1714 600 
Q 1481 -109 1013 -844 
L 513 -844 
Q 928 -128 1133 580 
Q 1338 1288 1338 2009 
Q 1338 2731 1133 3434 
Q 928 4138 513 4856 
z
" transform="scale(0.015625)"/>
       </defs>
       <use xlink:href="#DejaVuSans-47"/>
       <use xlink:href="#DejaVuSans-61" x="77.490234"/>
       <use xlink:href="#DejaVuSans-75" x="138.769531"/>
       <use xlink:href="#DejaVuSans-73" x="202.148438"/>
       <use xlink:href="#DejaVuSans-73" x="254.248047"/>
       <use xlink:href="#DejaVuSans-69" x="306.347656"/>
       <use xlink:href="#DejaVuSans-61" x="334.130859"/>
       <use xlink:href="#DejaVuSans-6e" x="395.410156"/>
       <use xlink:href="#DejaVuSans-20" x="458.789062"/>
       <use xlink:href="#DejaVuSans-28" x="490.576172"/>
       <use xlink:href="#DejaVuSans-41" x="529.589844"/>
       <use xlink:href="#DejaVuSans-46" x="597.998047"/>
       <use xlink:href="#DejaVuSans-29" x="655.517578"/>
      </g>
     </g>
    </g>
    <g id="xtick_5">
     <g id="text_5">
      <!-- 1 PC -->
      <g style="fill: #262626" transform="translate(483.325878 611.240749) rotate(-45) scale(0.2 -0.2)">
       <defs>
        <path id="DejaVuSans-31" d="M 794 531 
L 1825 531 
L 1825 4091 
L 703 3866 
L 703 4441 
L 1819 4666 
L 2450 4666 
L 2450 531 
L 3481 531 
L 3481 0 
L 794 0 
L 794 531 
z
" transform="scale(0.015625)"/>
        <path id="DejaVuSans-50" d="M 1259 4147 
L 1259 2394 
L 2053 2394 
Q 2494 2394 2734 2622 
Q 2975 2850 2975 3272 
Q 2975 3691 2734 3919 
Q 2494 4147 2053 4147 
L 1259 4147 
z
M 628 4666 
L 2053 4666 
Q 2838 4666 3239 4311 
Q 3641 3956 3641 3272 
Q 3641 2581 3239 2228 
Q 2838 1875 2053 1875 
L 1259 1875 
L 1259 0 
L 628 0 
L 628 4666 
z
" transform="scale(0.015625)"/>
        <path id="DejaVuSans-43" d="M 4122 4306 
L 4122 3641 
Q 3803 3938 3442 4084 
Q 3081 4231 2675 4231 
Q 1875 4231 1450 3742 
Q 1025 3253 1025 2328 
Q 1025 1406 1450 917 
Q 1875 428 2675 428 
Q 3081 428 3442 575 
Q 3803 722 4122 1019 
L 4122 359 
Q 3791 134 3420 21 
Q 3050 -91 2638 -91 
Q 1578 -91 968 557 
Q 359 1206 359 2328 
Q 359 3453 968 4101 
Q 1578 4750 2638 4750 
Q 3056 4750 3426 4639 
Q 3797 4528 4122 4306 
z
" transform="scale(0.015625)"/>
       </defs>
       <use xlink:href="#DejaVuSans-31"/>
       <use xlink:href="#DejaVuSans-20" x="63.623047"/>
       <use xlink:href="#DejaVuSans-50" x="95.410156"/>
       <use xlink:href="#DejaVuSans-43" x="155.712891"/>
      </g>
     </g>
    </g>
    <g id="xtick_6">
     <g id="text_6">
      <!-- 1 PC (AF) -->
      <g style="fill: #262626" transform="translate(547.638003 644.578624) rotate(-45) scale(0.2 -0.2)">
       <use xlink:href="#DejaVuSans-31"/>
       <use xlink:href="#DejaVuSans-20" x="63.623047"/>
       <use xlink:href="#DejaVuSans-50" x="95.410156"/>
       <use xlink:href="#DejaVuSans-43" x="155.712891"/>
       <use xlink:href="#DejaVuSans-20" x="225.537109"/>
       <use xlink:href="#DejaVuSans-28" x="257.324219"/>
       <use xlink:href="#DejaVuSans-41" x="296.337891"/>
       <use xlink:href="#DejaVuSans-46" x="364.746094"/>
       <use xlink:href="#DejaVuSans-29" x="422.265625"/>
      </g>
     </g>
    </g>
    <g id="xtick_7">
     <g id="text_7">
      <!-- 2 PC -->
      <g style="fill: #262626" transform="translate(678.625878 611.240749) rotate(-45) scale(0.2 -0.2)">
       <defs>
        <path id="DejaVuSans-32" d="M 1228 531 
L 3431 531 
L 3431 0 
L 469 0 
L 469 531 
Q 828 903 1448 1529 
Q 2069 2156 2228 2338 
Q 2531 2678 2651 2914 
Q 2772 3150 2772 3378 
Q 2772 3750 2511 3984 
Q 2250 4219 1831 4219 
Q 1534 4219 1204 4116 
Q 875 4013 500 3803 
L 500 4441 
Q 881 4594 1212 4672 
Q 1544 4750 1819 4750 
Q 2544 4750 2975 4387 
Q 3406 4025 3406 3419 
Q 3406 3131 3298 2873 
Q 3191 2616 2906 2266 
Q 2828 2175 2409 1742 
Q 1991 1309 1228 531 
z
" transform="scale(0.015625)"/>
       </defs>
       <use xlink:href="#DejaVuSans-32"/>
       <use xlink:href="#DejaVuSans-20" x="63.623047"/>
       <use xlink:href="#DejaVuSans-50" x="95.410156"/>
       <use xlink:href="#DejaVuSans-43" x="155.712891"/>
      </g>
     </g>
    </g>
    <g id="xtick_8">
     <g id="text_8">
      <!-- 2 PC (AF) -->
      <g style="fill: #262626" transform="translate(742.938003 644.578624) rotate(-45) scale(0.2 -0.2)">
       <use xlink:href="#DejaVuSans-32"/>
       <use xlink:href="#DejaVuSans-20" x="63.623047"/>
       <use xlink:href="#DejaVuSans-50" x="95.410156"/>
       <use xlink:href="#DejaVuSans-43" x="155.712891"/>
       <use xlink:href="#DejaVuSans-20" x="225.537109"/>
       <use xlink:href="#DejaVuSans-28" x="257.324219"/>
       <use xlink:href="#DejaVuSans-41" x="296.337891"/>
       <use xlink:href="#DejaVuSans-46" x="364.746094"/>
       <use xlink:href="#DejaVuSans-29" x="422.265625"/>
      </g>
     </g>
    </g>
    <g id="text_9">
     <!-- Method -->
     <g style="fill: #262626" transform="translate(418.14375 699.700943) scale(0.2 -0.2)">
      <defs>
       <path id="DejaVuSans-74" d="M 1172 4494 
L 1172 3500 
L 2356 3500 
L 2356 3053 
L 1172 3053 
L 1172 1153 
Q 1172 725 1289 603 
Q 1406 481 1766 481 
L 2356 481 
L 2356 0 
L 1766 0 
Q 1100 0 847 248 
Q 594 497 594 1153 
L 594 3053 
L 172 3053 
L 172 3500 
L 594 3500 
L 594 4494 
L 1172 4494 
z
" transform="scale(0.015625)"/>
       <path id="DejaVuSans-68" d="M 3513 2113 
L 3513 0 
L 2938 0 
L 2938 2094 
Q 2938 2591 2744 2837 
Q 2550 3084 2163 3084 
Q 1697 3084 1428 2787 
Q 1159 2491 1159 1978 
L 1159 0 
L 581 0 
L 581 4863 
L 1159 4863 
L 1159 2956 
Q 1366 3272 1645 3428 
Q 1925 3584 2291 3584 
Q 2894 3584 3203 3211 
Q 3513 2838 3513 2113 
z
" transform="scale(0.015625)"/>
       <path id="DejaVuSans-6f" d="M 1959 3097 
Q 1497 3097 1228 2736 
Q 959 2375 959 1747 
Q 959 1119 1226 758 
Q 1494 397 1959 397 
Q 2419 397 2687 759 
Q 2956 1122 2956 1747 
Q 2956 2369 2687 2733 
Q 2419 3097 1959 3097 
z
M 1959 3584 
Q 2709 3584 3137 3096 
Q 3566 2609 3566 1747 
Q 3566 888 3137 398 
Q 2709 -91 1959 -91 
Q 1206 -91 779 398 
Q 353 888 353 1747 
Q 353 2609 779 3096 
Q 1206 3584 1959 3584 
z
" transform="scale(0.015625)"/>
       <path id="DejaVuSans-64" d="M 2906 2969 
L 2906 4863 
L 3481 4863 
L 3481 0 
L 2906 0 
L 2906 525 
Q 2725 213 2448 61 
Q 2172 -91 1784 -91 
Q 1150 -91 751 415 
Q 353 922 353 1747 
Q 353 2572 751 3078 
Q 1150 3584 1784 3584 
Q 2172 3584 2448 3432 
Q 2725 3281 2906 2969 
z
M 947 1747 
Q 947 1113 1208 752 
Q 1469 391 1925 391 
Q 2381 391 2643 752 
Q 2906 1113 2906 1747 
Q 2906 2381 2643 2742 
Q 2381 3103 1925 3103 
Q 1469 3103 1208 2742 
Q 947 2381 947 1747 
z
" transform="scale(0.015625)"/>
      </defs>
      <use xlink:href="#DejaVuSans-4d"/>
      <use xlink:href="#DejaVuSans-65" x="86.279297"/>
      <use xlink:href="#DejaVuSans-74" x="147.802734"/>
      <use xlink:href="#DejaVuSans-68" x="187.011719"/>
      <use xlink:href="#DejaVuSans-6f" x="250.390625"/>
      <use xlink:href="#DejaVuSans-64" x="311.572266"/>
     </g>
    </g>
   </g>
   <g id="matplotlib.axis_2">
    <g id="ytick_1">
     <g id="line2d_1">
      <path d="M 65.05 483.026913 
L 846.25 483.026913 
" clip-path="url(#p0e380680ff)" style="fill: none; stroke: #cccccc; stroke-width: 0.8; stroke-linecap: round"/>
     </g>
     <g id="text_10">
      <!-- 0 -->
      <g style="fill: #262626" transform="translate(45.325 490.62535) scale(0.2 -0.2)">
       <defs>
        <path id="DejaVuSans-30" d="M 2034 4250 
Q 1547 4250 1301 3770 
Q 1056 3291 1056 2328 
Q 1056 1369 1301 889 
Q 1547 409 2034 409 
Q 2525 409 2770 889 
Q 3016 1369 3016 2328 
Q 3016 3291 2770 3770 
Q 2525 4250 2034 4250 
z
M 2034 4750 
Q 2819 4750 3233 4129 
Q 3647 3509 3647 2328 
Q 3647 1150 3233 529 
Q 2819 -91 2034 -91 
Q 1250 -91 836 529 
Q 422 1150 422 2328 
Q 422 3509 836 4129 
Q 1250 4750 2034 4750 
z
" transform="scale(0.015625)"/>
       </defs>
       <use xlink:href="#DejaVuSans-30"/>
      </g>
     </g>
    </g>
    <g id="ytick_2">
     <g id="line2d_2">
      <path d="M 65.05 373.234949 
L 846.25 373.234949 
" clip-path="url(#p0e380680ff)" style="fill: none; stroke: #cccccc; stroke-width: 0.8; stroke-linecap: round"/>
     </g>
     <g id="text_11">
      <!-- 20 -->
      <g style="fill: #262626" transform="translate(32.6 380.833387) scale(0.2 -0.2)">
       <use xlink:href="#DejaVuSans-32"/>
       <use xlink:href="#DejaVuSans-30" x="63.623047"/>
      </g>
     </g>
    </g>
    <g id="ytick_3">
     <g id="line2d_3">
      <path d="M 65.05 263.442986 
L 846.25 263.442986 
" clip-path="url(#p0e380680ff)" style="fill: none; stroke: #cccccc; stroke-width: 0.8; stroke-linecap: round"/>
     </g>
     <g id="text_12">
      <!-- 40 -->
      <g style="fill: #262626" transform="translate(32.6 271.041423) scale(0.2 -0.2)">
       <defs>
        <path id="DejaVuSans-34" d="M 2419 4116 
L 825 1625 
L 2419 1625 
L 2419 4116 
z
M 2253 4666 
L 3047 4666 
L 3047 1625 
L 3713 1625 
L 3713 1100 
L 3047 1100 
L 3047 0 
L 2419 0 
L 2419 1100 
L 313 1100 
L 313 1709 
L 2253 4666 
z
" transform="scale(0.015625)"/>
       </defs>
       <use xlink:href="#DejaVuSans-34"/>
       <use xlink:href="#DejaVuSans-30" x="63.623047"/>
      </g>
     </g>
    </g>
    <g id="ytick_4">
     <g id="line2d_4">
      <path d="M 65.05 153.651022 
L 846.25 153.651022 
" clip-path="url(#p0e380680ff)" style="fill: none; stroke: #cccccc; stroke-width: 0.8; stroke-linecap: round"/>
     </g>
     <g id="text_13">
      <!-- 60 -->
      <g style="fill: #262626" transform="translate(32.6 161.249459) scale(0.2 -0.2)">
       <defs>
        <path id="DejaVuSans-36" d="M 2113 2584 
Q 1688 2584 1439 2293 
Q 1191 2003 1191 1497 
Q 1191 994 1439 701 
Q 1688 409 2113 409 
Q 2538 409 2786 701 
Q 3034 994 3034 1497 
Q 3034 2003 2786 2293 
Q 2538 2584 2113 2584 
z
M 3366 4563 
L 3366 3988 
Q 3128 4100 2886 4159 
Q 2644 4219 2406 4219 
Q 1781 4219 1451 3797 
Q 1122 3375 1075 2522 
Q 1259 2794 1537 2939 
Q 1816 3084 2150 3084 
Q 2853 3084 3261 2657 
Q 3669 2231 3669 1497 
Q 3669 778 3244 343 
Q 2819 -91 2113 -91 
Q 1303 -91 875 529 
Q 447 1150 447 2328 
Q 447 3434 972 4092 
Q 1497 4750 2381 4750 
Q 2619 4750 2861 4703 
Q 3103 4656 3366 4563 
z
" transform="scale(0.015625)"/>
       </defs>
       <use xlink:href="#DejaVuSans-36"/>
       <use xlink:href="#DejaVuSans-30" x="63.623047"/>
      </g>
     </g>
    </g>
    <g id="ytick_5">
     <g id="line2d_5">
      <path d="M 65.05 43.859058 
L 846.25 43.859058 
" clip-path="url(#p0e380680ff)" style="fill: none; stroke: #cccccc; stroke-width: 0.8; stroke-linecap: round"/>
     </g>
     <g id="text_14">
      <!-- 80 -->
      <g style="fill: #262626" transform="translate(32.6 51.457496) scale(0.2 -0.2)">
       <defs>
        <path id="DejaVuSans-38" d="M 2034 2216 
Q 1584 2216 1326 1975 
Q 1069 1734 1069 1313 
Q 1069 891 1326 650 
Q 1584 409 2034 409 
Q 2484 409 2743 651 
Q 3003 894 3003 1313 
Q 3003 1734 2745 1975 
Q 2488 2216 2034 2216 
z
M 1403 2484 
Q 997 2584 770 2862 
Q 544 3141 544 3541 
Q 544 4100 942 4425 
Q 1341 4750 2034 4750 
Q 2731 4750 3128 4425 
Q 3525 4100 3525 3541 
Q 3525 3141 3298 2862 
Q 3072 2584 2669 2484 
Q 3125 2378 3379 2068 
Q 3634 1759 3634 1313 
Q 3634 634 3220 271 
Q 2806 -91 2034 -91 
Q 1263 -91 848 271 
Q 434 634 434 1313 
Q 434 1759 690 2068 
Q 947 2378 1403 2484 
z
M 1172 3481 
Q 1172 3119 1398 2916 
Q 1625 2713 2034 2713 
Q 2441 2713 2670 2916 
Q 2900 3119 2900 3481 
Q 2900 3844 2670 4047 
Q 2441 4250 2034 4250 
Q 1625 4250 1398 4047 
Q 1172 3844 1172 3481 
z
" transform="scale(0.015625)"/>
       </defs>
       <use xlink:href="#DejaVuSans-38"/>
       <use xlink:href="#DejaVuSans-30" x="63.623047"/>
      </g>
     </g>
    </g>
    <g id="text_15">
     <!-- $\alpha$-RMSD ($\AA$) $\downarrow$ -->
     <g style="fill: #262626" transform="translate(24.440625 357.6) rotate(-90) scale(0.2 -0.2)">
      <defs>
       <path id="DejaVuSans-Oblique-3b1" d="M 2619 1628 
L 2622 2350 
Q 2625 3088 2069 3091 
Q 1653 3094 1394 2747 
Q 1069 2319 959 1747 
Q 825 1059 994 731 
Q 1169 397 1547 397 
Q 1966 397 2319 1063 
L 2619 1628 
z
M 2166 3578 
Q 3141 3594 3128 2584 
Q 3128 2584 3616 3500 
L 4128 3500 
L 3119 1603 
L 3109 919 
Q 3109 766 3194 638 
Q 3291 488 3391 488 
L 3669 488 
L 3575 0 
L 3228 0 
Q 2934 0 2722 263 
Q 2622 394 2619 669 
Q 2416 334 2066 50 
Q 1900 -81 1453 -78 
Q 722 -72 456 397 
Q 184 884 353 1747 
Q 534 2675 1009 3097 
Q 1544 3569 2166 3578 
z
" transform="scale(0.015625)"/>
       <path id="DejaVuSans-2d" d="M 313 2009 
L 1997 2009 
L 1997 1497 
L 313 1497 
L 313 2009 
z
" transform="scale(0.015625)"/>
       <path id="DejaVuSans-52" d="M 2841 2188 
Q 3044 2119 3236 1894 
Q 3428 1669 3622 1275 
L 4263 0 
L 3584 0 
L 2988 1197 
Q 2756 1666 2539 1819 
Q 2322 1972 1947 1972 
L 1259 1972 
L 1259 0 
L 628 0 
L 628 4666 
L 2053 4666 
Q 2853 4666 3247 4331 
Q 3641 3997 3641 3322 
Q 3641 2881 3436 2590 
Q 3231 2300 2841 2188 
z
M 1259 4147 
L 1259 2491 
L 2053 2491 
Q 2509 2491 2742 2702 
Q 2975 2913 2975 3322 
Q 2975 3731 2742 3939 
Q 2509 4147 2053 4147 
L 1259 4147 
z
" transform="scale(0.015625)"/>
       <path id="DejaVuSans-44" d="M 1259 4147 
L 1259 519 
L 2022 519 
Q 2988 519 3436 956 
Q 3884 1394 3884 2338 
Q 3884 3275 3436 3711 
Q 2988 4147 2022 4147 
L 1259 4147 
z
M 628 4666 
L 1925 4666 
Q 3281 4666 3915 4102 
Q 4550 3538 4550 2338 
Q 4550 1131 3912 565 
Q 3275 0 1925 0 
L 628 0 
L 628 4666 
z
" transform="scale(0.015625)"/>
       <path id="DejaVuSans-Oblique-c5" d="M 3188 5081 
Q 3188 5278 3048 5417 
Q 2909 5556 2713 5556 
Q 2513 5556 2377 5420 
Q 2241 5284 2241 5081 
Q 2241 4884 2377 4746 
Q 2513 4609 2713 4609 
Q 2909 4609 3048 4746 
Q 3188 4884 3188 5081 
z
M 2203 4397 
Q 2034 4513 1945 4689 
Q 1856 4866 1856 5081 
Q 1856 5438 2106 5689 
Q 2356 5941 2713 5941 
Q 3069 5941 3320 5689 
Q 3572 5438 3572 5081 
Q 3572 4834 3458 4643 
Q 3344 4453 3128 4341 
L 3938 0 
L 3278 0 
L 3084 1197 
L 984 1197 
L 325 0 
L -341 0 
L 2203 4397 
z
M 2584 4044 
L 1275 1722 
L 2988 1722 
L 2584 4044 
z
" transform="scale(0.015625)"/>
       <path id="DejaVuSans-2193" d="M 2822 -22 
L 2541 -22 
L 1309 1209 
L 1684 1584 
L 2416 853 
L 2416 4666 
L 2947 4666 
L 2947 853 
L 3672 1584 
L 4047 1209 
L 2822 -22 
z
" transform="scale(0.015625)"/>
      </defs>
      <use xlink:href="#DejaVuSans-Oblique-3b1" transform="translate(0 0.171875)"/>
      <use xlink:href="#DejaVuSans-2d" transform="translate(65.917969 0.171875)"/>
      <use xlink:href="#DejaVuSans-52" transform="translate(102.001953 0.171875)"/>
      <use xlink:href="#DejaVuSans-4d" transform="translate(171.484375 0.171875)"/>
      <use xlink:href="#DejaVuSans-53" transform="translate(257.763672 0.171875)"/>
      <use xlink:href="#DejaVuSans-44" transform="translate(321.240234 0.171875)"/>
      <use xlink:href="#DejaVuSans-20" transform="translate(398.242188 0.171875)"/>
      <use xlink:href="#DejaVuSans-28" transform="translate(430.029297 0.171875)"/>
      <use xlink:href="#DejaVuSans-Oblique-c5" transform="translate(469.042969 0.171875)"/>
      <use xlink:href="#DejaVuSans-29" transform="translate(537.451172 0.171875)"/>
      <use xlink:href="#DejaVuSans-20" transform="translate(576.464844 0.171875)"/>
      <use xlink:href="#DejaVuSans-2193" transform="translate(627.734375 0.171875)"/>
     </g>
    </g>
   </g>
   <g id="PolyCollection_1">
    <defs>
     <path id="m2fba14b403" d="M 116.172178 -205.932395 
L 111.577822 -205.932395 
L 110.790924 -207.547398 
L 109.802776 -209.162401 
L 108.586416 -210.777404 
L 107.119225 -212.392406 
L 105.385777 -214.007409 
L 103.380812 -215.622412 
L 101.112032 -217.237415 
L 98.602391 -218.852418 
L 95.891529 -220.46742 
L 93.036027 -222.082423 
L 90.108259 -223.697426 
L 87.193736 -225.312429 
L 84.387015 -226.927431 
L 81.786415 -228.542434 
L 79.487946 -230.157437 
L 77.578982 -231.77244 
L 76.132292 -233.387443 
L 75.201004 -235.002445 
L 74.815 -236.617448 
L 74.979113 -238.232451 
L 75.673251 -239.847454 
L 76.854398 -241.462456 
L 78.460228 -243.077459 
L 80.41391 -244.692462 
L 82.629577 -246.307465 
L 85.017939 -247.922468 
L 87.491518 -249.53747 
L 89.969126 -251.152473 
L 92.379305 -252.767476 
L 94.662607 -254.382479 
L 96.772742 -255.997481 
L 98.676698 -257.612484 
L 100.354044 -259.227487 
L 101.795648 -260.84249 
L 103.002037 -262.457493 
L 103.981617 -264.072495 
L 104.748914 -265.687498 
L 105.322958 -267.302501 
L 105.725857 -268.917504 
L 105.981611 -270.532506 
L 106.115138 -272.147509 
L 106.151476 -273.762512 
L 106.115145 -275.377515 
L 106.029595 -276.992517 
L 105.916725 -278.60752 
L 105.796449 -280.222523 
L 105.686284 -281.837526 
L 105.600981 -283.452529 
L 105.552204 -285.067531 
L 105.548295 -286.682534 
L 105.594136 -288.297537 
L 105.691156 -289.91254 
L 105.837487 -291.527542 
L 106.028281 -293.142545 
L 106.256199 -294.757548 
L 106.512022 -296.372551 
L 106.785383 -297.987554 
L 107.065554 -299.602556 
L 107.342239 -301.217559 
L 107.606325 -302.832562 
L 107.85052 -304.447565 
L 108.069836 -306.062567 
L 108.261879 -307.67757 
L 108.426914 -309.292573 
L 108.567703 -310.907576 
L 108.689134 -312.522579 
L 108.797668 -314.137581 
L 108.900668 -315.752584 
L 109.005668 -317.367587 
L 109.119666 -318.98259 
L 109.248499 -320.597592 
L 109.396378 -322.212595 
L 109.565604 -323.827598 
L 109.756505 -325.442601 
L 109.967566 -327.057604 
L 110.195739 -328.672606 
L 110.436863 -330.287609 
L 110.686151 -331.902612 
L 110.938669 -333.517615 
L 111.189756 -335.132617 
L 111.435344 -336.74762 
L 111.672155 -338.362623 
L 111.897773 -339.977626 
L 112.11061 -341.592628 
L 112.309791 -343.207631 
L 112.494985 -344.822634 
L 112.666231 -346.437637 
L 112.823786 -348.05264 
L 112.967992 -349.667642 
L 113.099209 -351.282645 
L 113.217779 -352.897648 
L 113.324036 -354.512651 
L 113.41833 -356.127653 
L 113.50107 -357.742656 
L 113.572758 -359.357659 
L 113.634012 -360.972662 
L 113.685572 -362.587665 
L 113.728287 -364.202667 
L 113.763092 -365.81767 
L 113.986908 -365.81767 
L 113.986908 -365.81767 
L 114.021713 -364.202667 
L 114.064428 -362.587665 
L 114.115988 -360.972662 
L 114.177242 -359.357659 
L 114.24893 -357.742656 
L 114.33167 -356.127653 
L 114.425964 -354.512651 
L 114.532221 -352.897648 
L 114.650791 -351.282645 
L 114.782008 -349.667642 
L 114.926214 -348.05264 
L 115.083769 -346.437637 
L 115.255015 -344.822634 
L 115.440209 -343.207631 
L 115.63939 -341.592628 
L 115.852227 -339.977626 
L 116.077845 -338.362623 
L 116.314656 -336.74762 
L 116.560244 -335.132617 
L 116.811331 -333.517615 
L 117.063849 -331.902612 
L 117.313137 -330.287609 
L 117.554261 -328.672606 
L 117.782434 -327.057604 
L 117.993495 -325.442601 
L 118.184396 -323.827598 
L 118.353622 -322.212595 
L 118.501501 -320.597592 
L 118.630334 -318.98259 
L 118.744332 -317.367587 
L 118.849332 -315.752584 
L 118.952332 -314.137581 
L 119.060866 -312.522579 
L 119.182297 -310.907576 
L 119.323086 -309.292573 
L 119.488121 -307.67757 
L 119.680164 -306.062567 
L 119.89948 -304.447565 
L 120.143675 -302.832562 
L 120.407761 -301.217559 
L 120.684446 -299.602556 
L 120.964617 -297.987554 
L 121.237978 -296.372551 
L 121.493801 -294.757548 
L 121.721719 -293.142545 
L 121.912513 -291.527542 
L 122.058844 -289.91254 
L 122.155864 -288.297537 
L 122.201705 -286.682534 
L 122.197796 -285.067531 
L 122.149019 -283.452529 
L 122.063716 -281.837526 
L 121.953551 -280.222523 
L 121.833275 -278.60752 
L 121.720405 -276.992517 
L 121.634855 -275.377515 
L 121.598524 -273.762512 
L 121.634862 -272.147509 
L 121.768389 -270.532506 
L 122.024143 -268.917504 
L 122.427042 -267.302501 
L 123.001086 -265.687498 
L 123.768383 -264.072495 
L 124.747963 -262.457493 
L 125.954352 -260.84249 
L 127.395956 -259.227487 
L 129.073302 -257.612484 
L 130.977258 -255.997481 
L 133.087393 -254.382479 
L 135.370695 -252.767476 
L 137.780874 -251.152473 
L 140.258482 -249.53747 
L 142.732061 -247.922468 
L 145.120423 -246.307465 
L 147.33609 -244.692462 
L 149.289772 -243.077459 
L 150.895602 -241.462456 
L 152.076749 -239.847454 
L 152.770887 -238.232451 
L 152.935 -236.617448 
L 152.548996 -235.002445 
L 151.617708 -233.387443 
L 150.171018 -231.77244 
L 148.262054 -230.157437 
L 145.963585 -228.542434 
L 143.362985 -226.927431 
L 140.556264 -225.312429 
L 137.641741 -223.697426 
L 134.713973 -222.082423 
L 131.858471 -220.46742 
L 129.147609 -218.852418 
L 126.637968 -217.237415 
L 124.369188 -215.622412 
L 122.364223 -214.007409 
L 120.630775 -212.392406 
L 119.163584 -210.777404 
L 117.947224 -209.162401 
L 116.959076 -207.547398 
L 116.172178 -205.932395 
z
" style="stroke: #3d3d3d; stroke-opacity: 0.5"/>
    </defs>
    <g clip-path="url(#p0e380680ff)">
     <use xlink:href="#m2fba14b403" x="0" y="711.060318" style="fill: #d684bd; fill-opacity: 0.5; stroke: #3d3d3d; stroke-opacity: 0.5"/>
    </g>
   </g>
   <g id="PolyCollection_2">
    <defs>
     <path id="ma6788a9783" d="M 211.94904 -186.623876 
L 211.10096 -186.623876 
L 210.921498 -190.837929 
L 210.685252 -195.051982 
L 210.381799 -199.266035 
L 210.001128 -203.480088 
L 209.534224 -207.694141 
L 208.973548 -211.908194 
L 208.313314 -216.122246 
L 207.549509 -220.336299 
L 206.679645 -224.550352 
L 205.702319 -228.764405 
L 204.616697 -232.978458 
L 203.422094 -237.192511 
L 202.117803 -241.406564 
L 200.703302 -245.620617 
L 199.178878 -249.83467 
L 197.546611 -254.048723 
L 195.811566 -258.262776 
L 193.982991 -262.476829 
L 192.075248 -266.690881 
L 190.108286 -270.904934 
L 188.107488 -275.118987 
L 186.102848 -279.33304 
L 184.127565 -283.547093 
L 182.216244 -287.761146 
L 180.402974 -291.975199 
L 178.719614 -296.189252 
L 177.194531 -300.403305 
L 175.851972 -304.617358 
L 174.71206 -308.831411 
L 173.79126 -313.045464 
L 173.103015 -317.259517 
L 172.658187 -321.473569 
L 172.465 -325.687622 
L 172.528326 -329.901675 
L 172.84835 -334.115728 
L 173.418915 -338.329781 
L 174.225989 -342.543834 
L 175.246781 -346.757887 
L 176.449969 -350.97194 
L 177.797285 -355.185993 
L 179.246453 -359.400046 
L 180.75512 -363.614099 
L 182.285196 -367.828152 
L 183.806841 -372.042205 
L 185.301326 -376.256257 
L 186.762191 -380.47031 
L 188.19437 -384.684363 
L 189.611397 -388.898416 
L 191.031136 -393.112469 
L 192.470834 -397.326522 
L 193.942402 -401.540575 
L 195.448816 -405.754628 
L 196.982295 -409.968681 
L 198.524547 -414.182734 
L 200.048955 -418.396787 
L 201.524193 -422.61084 
L 202.918543 -426.824892 
L 204.204054 -431.038945 
L 205.359828 -435.252998 
L 206.373931 -439.467051 
L 207.24376 -443.681104 
L 207.974983 -447.895157 
L 208.579445 -452.10921 
L 209.072535 -456.323263 
L 209.470556 -460.537316 
L 209.788513 -464.751369 
L 210.038612 -468.965422 
L 210.229572 -473.179475 
L 210.366683 -477.393528 
L 210.452468 -481.60758 
L 210.487703 -485.821633 
L 210.472588 -490.035686 
L 210.407866 -494.249739 
L 210.295756 -498.463792 
L 210.14061 -502.677845 
L 209.949265 -506.891898 
L 209.731071 -511.105951 
L 209.497627 -515.320004 
L 209.262246 -519.534057 
L 209.039192 -523.74811 
L 208.842743 -527.962163 
L 208.686155 -532.176215 
L 208.580602 -536.390268 
L 208.53423 -540.604321 
L 208.551398 -544.818374 
L 208.632253 -549.032427 
L 208.772692 -553.24648 
L 208.964746 -557.460533 
L 209.197369 -561.674586 
L 209.457519 -565.888639 
L 209.731419 -570.102692 
L 210.005797 -574.316745 
L 210.268981 -578.530798 
L 210.511692 -582.744851 
L 210.727485 -586.958903 
L 210.91281 -591.172956 
L 211.066764 -595.387009 
L 211.190603 -599.601062 
L 211.287135 -603.815115 
L 211.762865 -603.815115 
L 211.762865 -603.815115 
L 211.859397 -599.601062 
L 211.983236 -595.387009 
L 212.13719 -591.172956 
L 212.322515 -586.958903 
L 212.538308 -582.744851 
L 212.781019 -578.530798 
L 213.044203 -574.316745 
L 213.318581 -570.102692 
L 213.592481 -565.888639 
L 213.852631 -561.674586 
L 214.085254 -557.460533 
L 214.277308 -553.24648 
L 214.417747 -549.032427 
L 214.498602 -544.818374 
L 214.51577 -540.604321 
L 214.469398 -536.390268 
L 214.363845 -532.176215 
L 214.207257 -527.962163 
L 214.010808 -523.74811 
L 213.787754 -519.534057 
L 213.552373 -515.320004 
L 213.318929 -511.105951 
L 213.100735 -506.891898 
L 212.90939 -502.677845 
L 212.754244 -498.463792 
L 212.642134 -494.249739 
L 212.577412 -490.035686 
L 212.562297 -485.821633 
L 212.597532 -481.60758 
L 212.683317 -477.393528 
L 212.820428 -473.179475 
L 213.011388 -468.965422 
L 213.261487 -464.751369 
L 213.579444 -460.537316 
L 213.977465 -456.323263 
L 214.470555 -452.10921 
L 215.075017 -447.895157 
L 215.80624 -443.681104 
L 216.676069 -439.467051 
L 217.690172 -435.252998 
L 218.845946 -431.038945 
L 220.131457 -426.824892 
L 221.525807 -422.61084 
L 223.001045 -418.396787 
L 224.525453 -414.182734 
L 226.067705 -409.968681 
L 227.601184 -405.754628 
L 229.107598 -401.540575 
L 230.579166 -397.326522 
L 232.018864 -393.112469 
L 233.438603 -388.898416 
L 234.85563 -384.684363 
L 236.287809 -380.47031 
L 237.748674 -376.256257 
L 239.243159 -372.042205 
L 240.764804 -367.828152 
L 242.29488 -363.614099 
L 243.803547 -359.400046 
L 245.252715 -355.185993 
L 246.600031 -350.97194 
L 247.803219 -346.757887 
L 248.824011 -342.543834 
L 249.631085 -338.329781 
L 250.20165 -334.115728 
L 250.521674 -329.901675 
L 250.585 -325.687622 
L 250.391813 -321.473569 
L 249.946985 -317.259517 
L 249.25874 -313.045464 
L 248.33794 -308.831411 
L 247.198028 -304.617358 
L 245.855469 -300.403305 
L 244.330386 -296.189252 
L 242.647026 -291.975199 
L 240.833756 -287.761146 
L 238.922435 -283.547093 
L 236.947152 -279.33304 
L 234.942512 -275.118987 
L 232.941714 -270.904934 
L 230.974752 -266.690881 
L 229.067009 -262.476829 
L 227.238434 -258.262776 
L 225.503389 -254.048723 
L 223.871122 -249.83467 
L 222.346698 -245.620617 
L 220.932197 -241.406564 
L 219.627906 -237.192511 
L 218.433303 -232.978458 
L 217.347681 -228.764405 
L 216.370355 -224.550352 
L 215.500491 -220.336299 
L 214.736686 -216.122246 
L 214.076452 -211.908194 
L 213.515776 -207.694141 
L 213.048872 -203.480088 
L 212.668201 -199.266035 
L 212.364748 -195.051982 
L 212.128502 -190.837929 
L 211.94904 -186.623876 
z
" style="stroke: #3d3d3d; stroke-opacity: 0.5"/>
    </defs>
    <g clip-path="url(#p0e380680ff)">
     <use xlink:href="#ma6788a9783" x="0" y="711.060318" style="fill: #7f7f7f; fill-opacity: 0.5; stroke: #3d3d3d; stroke-opacity: 0.5"/>
    </g>
   </g>
   <g id="PolyCollection_3">
    <defs>
     <path id="m617416c294" d="M 309.349211 -236.132802 
L 309.000789 -236.132802 
L 308.933656 -236.154532 
L 308.850184 -236.176263 
L 308.750291 -236.197994 
L 308.635471 -236.219724 
L 308.509061 -236.241455 
L 308.37628 -236.263186 
L 308.243968 -236.284917 
L 308.119993 -236.306647 
L 308.012367 -236.328378 
L 307.928174 -236.350109 
L 307.872471 -236.37184 
L 307.847345 -236.39357 
L 307.851304 -236.415301 
L 307.879113 -236.437032 
L 307.922121 -236.458763 
L 307.969026 -236.480493 
L 308.006937 -236.502224 
L 308.02256 -236.523955 
L 308.003308 -236.545686 
L 307.938172 -236.567416 
L 307.818244 -236.589147 
L 307.636874 -236.610878 
L 307.389494 -236.632608 
L 307.073252 -236.654339 
L 306.68656 -236.67607 
L 306.228718 -236.697801 
L 305.699697 -236.719531 
L 305.1001 -236.741262 
L 304.43128 -236.762993 
L 303.695508 -236.784724 
L 302.896101 -236.806454 
L 302.03742 -236.828185 
L 301.124713 -236.849916 
L 300.163824 -236.871647 
L 299.160834 -236.893377 
L 298.121709 -236.915108 
L 297.051976 -236.936839 
L 295.956417 -236.958569 
L 294.838734 -236.9803 
L 293.70114 -237.002031 
L 292.543895 -237.023762 
L 291.364908 -237.045492 
L 290.159614 -237.067223 
L 288.921357 -237.088954 
L 287.642476 -237.110685 
L 286.316091 -237.132415 
L 284.938422 -237.154146 
L 283.511202 -237.175877 
L 282.043637 -237.197608 
L 280.553375 -237.219338 
L 279.066077 -237.241069 
L 277.613501 -237.2628 
L 276.23033 -237.28453 
L 274.950284 -237.306261 
L 273.802243 -237.327992 
L 272.807138 -237.349723 
L 271.976194 -237.371453 
L 271.310865 -237.393184 
L 270.80443 -237.414915 
L 270.444938 -237.436646 
L 270.218894 -237.458376 
L 270.115 -237.480107 
L 270.127251 -237.501838 
L 270.25684 -237.523569 
L 270.512547 -237.545299 
L 270.909588 -237.56703 
L 271.467143 -237.588761 
L 272.205029 -237.610492 
L 273.140071 -237.632222 
L 274.282761 -237.653953 
L 275.634692 -237.675684 
L 277.187076 -237.697414 
L 278.920496 -237.719145 
L 280.80583 -237.740876 
L 282.806148 -237.762607 
L 284.879315 -237.784337 
L 286.980967 -237.806068 
L 289.067557 -237.827799 
L 291.099178 -237.84953 
L 293.041917 -237.87126 
L 294.869538 -237.892991 
L 296.564359 -237.914722 
L 298.117267 -237.936453 
L 299.526897 -237.958183 
L 300.798131 -237.979914 
L 301.940141 -238.001645 
L 302.964295 -238.023375 
L 303.88223 -238.045106 
L 304.704378 -238.066837 
L 305.439108 -238.088568 
L 306.092525 -238.110298 
L 306.66883 -238.132029 
L 307.171066 -238.15376 
L 307.601975 -238.175491 
L 307.96479 -238.197221 
L 308.263747 -238.218952 
L 308.504289 -238.240683 
L 308.692947 -238.262414 
L 308.836986 -238.284144 
L 309.513014 -238.284144 
L 309.513014 -238.284144 
L 309.657053 -238.262414 
L 309.845711 -238.240683 
L 310.086253 -238.218952 
L 310.38521 -238.197221 
L 310.748025 -238.175491 
L 311.178934 -238.15376 
L 311.68117 -238.132029 
L 312.257475 -238.110298 
L 312.910892 -238.088568 
L 313.645622 -238.066837 
L 314.46777 -238.045106 
L 315.385705 -238.023375 
L 316.409859 -238.001645 
L 317.551869 -237.979914 
L 318.823103 -237.958183 
L 320.232733 -237.936453 
L 321.785641 -237.914722 
L 323.480462 -237.892991 
L 325.308083 -237.87126 
L 327.250822 -237.84953 
L 329.282443 -237.827799 
L 331.369033 -237.806068 
L 333.470685 -237.784337 
L 335.543852 -237.762607 
L 337.54417 -237.740876 
L 339.429504 -237.719145 
L 341.162924 -237.697414 
L 342.715308 -237.675684 
L 344.067239 -237.653953 
L 345.209929 -237.632222 
L 346.144971 -237.610492 
L 346.882857 -237.588761 
L 347.440412 -237.56703 
L 347.837453 -237.545299 
L 348.09316 -237.523569 
L 348.222749 -237.501838 
L 348.235 -237.480107 
L 348.131106 -237.458376 
L 347.905062 -237.436646 
L 347.54557 -237.414915 
L 347.039135 -237.393184 
L 346.373806 -237.371453 
L 345.542862 -237.349723 
L 344.547757 -237.327992 
L 343.399716 -237.306261 
L 342.11967 -237.28453 
L 340.736499 -237.2628 
L 339.283923 -237.241069 
L 337.796625 -237.219338 
L 336.306363 -237.197608 
L 334.838798 -237.175877 
L 333.411578 -237.154146 
L 332.033909 -237.132415 
L 330.707524 -237.110685 
L 329.428643 -237.088954 
L 328.190386 -237.067223 
L 326.985092 -237.045492 
L 325.806105 -237.023762 
L 324.64886 -237.002031 
L 323.511266 -236.9803 
L 322.393583 -236.958569 
L 321.298024 -236.936839 
L 320.228291 -236.915108 
L 319.189166 -236.893377 
L 318.186176 -236.871647 
L 317.225287 -236.849916 
L 316.31258 -236.828185 
L 315.453899 -236.806454 
L 314.654492 -236.784724 
L 313.91872 -236.762993 
L 313.2499 -236.741262 
L 312.650303 -236.719531 
L 312.121282 -236.697801 
L 311.66344 -236.67607 
L 311.276748 -236.654339 
L 310.960506 -236.632608 
L 310.713126 -236.610878 
L 310.531756 -236.589147 
L 310.411828 -236.567416 
L 310.346692 -236.545686 
L 310.32744 -236.523955 
L 310.343063 -236.502224 
L 310.380974 -236.480493 
L 310.427879 -236.458763 
L 310.470887 -236.437032 
L 310.498696 -236.415301 
L 310.502655 -236.39357 
L 310.477529 -236.37184 
L 310.421826 -236.350109 
L 310.337633 -236.328378 
L 310.230007 -236.306647 
L 310.106032 -236.284917 
L 309.97372 -236.263186 
L 309.840939 -236.241455 
L 309.714529 -236.219724 
L 309.599709 -236.197994 
L 309.499816 -236.176263 
L 309.416344 -236.154532 
L 309.349211 -236.132802 
z
" style="stroke: #3d3d3d; stroke-opacity: 0.5"/>
    </defs>
    <g clip-path="url(#p0e380680ff)">
     <use xlink:href="#m617416c294" x="0" y="711.060318" style="fill: #9372b2; fill-opacity: 0.5; stroke: #3d3d3d; stroke-opacity: 0.5"/>
    </g>
   </g>
   <g id="PolyCollection_4">
    <defs>
     <path id="mce6f7bff24" d="M 409.199619 -208.429625 
L 404.450381 -208.429625 
L 402.792858 -211.144413 
L 400.352309 -213.859201 
L 396.999873 -216.573989 
L 392.718999 -219.288776 
L 387.66468 -222.003564 
L 382.194714 -224.718352 
L 376.850307 -227.43314 
L 372.276596 -230.147928 
L 369.095523 -232.862716 
L 367.765 -235.577504 
L 368.468677 -238.292291 
L 371.073244 -241.007079 
L 375.167072 -243.721867 
L 380.165248 -246.436655 
L 385.444481 -249.151443 
L 390.465783 -251.866231 
L 394.853453 -254.581018 
L 398.418898 -257.295806 
L 401.137358 -260.010594 
L 403.097329 -262.725382 
L 404.444253 -265.44017 
L 405.334264 -268.154958 
L 405.905067 -270.869746 
L 406.263477 -273.584533 
L 406.484809 -276.299321 
L 406.618405 -279.014109 
L 406.694773 -281.728897 
L 406.731842 -284.443685 
L 406.739558 -287.158473 
L 406.723104 -289.87326 
L 406.685312 -292.588048 
L 406.628694 -295.302836 
L 406.557161 -298.017624 
L 406.477163 -300.732412 
L 406.397852 -303.4472 
L 406.33006 -306.161987 
L 406.284248 -308.876775 
L 406.268047 -311.591563 
L 406.284267 -314.306351 
L 406.330142 -317.021139 
L 406.398118 -319.735927 
L 406.477892 -322.450715 
L 406.558958 -325.165502 
L 406.632796 -327.88029 
L 406.69411 -330.595078 
L 406.740981 -333.309866 
L 406.774164 -336.024654 
L 406.796006 -338.739442 
L 406.809413 -341.454229 
L 406.817102 -344.169017 
L 406.821227 -346.883805 
L 406.823301 -349.598593 
L 406.824279 -352.313381 
L 406.824712 -355.028169 
L 406.824891 -357.742957 
L 406.824961 -360.457744 
L 406.824987 -363.172532 
L 406.824996 -365.88732 
L 406.824999 -368.602108 
L 406.825 -371.316896 
L 406.825 -374.031684 
L 406.825 -376.746471 
L 406.825 -379.461259 
L 406.825 -382.176047 
L 406.825 -384.890835 
L 406.825 -387.605623 
L 406.825 -390.320411 
L 406.825 -393.035198 
L 406.825 -395.749986 
L 406.824998 -398.464774 
L 406.824995 -401.179562 
L 406.824983 -403.89435 
L 406.824951 -406.609138 
L 406.824864 -409.323926 
L 406.824643 -412.038713 
L 406.824121 -414.753501 
L 406.822955 -417.468289 
L 406.820519 -420.183077 
L 406.815743 -422.897865 
L 406.806975 -425.612653 
L 406.791915 -428.32744 
L 406.76776 -431.042228 
L 406.731652 -433.757016 
L 406.681505 -436.471804 
L 406.61708 -439.186592 
L 406.541023 -441.90138 
L 406.459405 -444.616168 
L 406.381345 -447.330955 
L 406.31752 -450.045743 
L 406.277831 -452.760531 
L 406.268902 -455.475319 
L 406.292266 -458.190107 
L 406.343942 -460.904895 
L 406.415538 -463.619682 
L 406.496483 -466.33447 
L 406.576555 -469.049258 
L 406.647895 -471.764046 
L 406.705996 -474.478834 
L 406.749626 -477.193622 
L 406.900374 -477.193622 
L 406.900374 -477.193622 
L 406.944004 -474.478834 
L 407.002105 -471.764046 
L 407.073445 -469.049258 
L 407.153517 -466.33447 
L 407.234462 -463.619682 
L 407.306058 -460.904895 
L 407.357734 -458.190107 
L 407.381098 -455.475319 
L 407.372169 -452.760531 
L 407.33248 -450.045743 
L 407.268655 -447.330955 
L 407.190595 -444.616168 
L 407.108977 -441.90138 
L 407.03292 -439.186592 
L 406.968495 -436.471804 
L 406.918348 -433.757016 
L 406.88224 -431.042228 
L 406.858085 -428.32744 
L 406.843025 -425.612653 
L 406.834257 -422.897865 
L 406.829481 -420.183077 
L 406.827045 -417.468289 
L 406.825879 -414.753501 
L 406.825357 -412.038713 
L 406.825136 -409.323926 
L 406.825049 -406.609138 
L 406.825017 -403.89435 
L 406.825005 -401.179562 
L 406.825002 -398.464774 
L 406.825 -395.749986 
L 406.825 -393.035198 
L 406.825 -390.320411 
L 406.825 -387.605623 
L 406.825 -384.890835 
L 406.825 -382.176047 
L 406.825 -379.461259 
L 406.825 -376.746471 
L 406.825 -374.031684 
L 406.825 -371.316896 
L 406.825001 -368.602108 
L 406.825004 -365.88732 
L 406.825013 -363.172532 
L 406.825039 -360.457744 
L 406.825109 -357.742957 
L 406.825288 -355.028169 
L 406.825721 -352.313381 
L 406.826699 -349.598593 
L 406.828773 -346.883805 
L 406.832898 -344.169017 
L 406.840587 -341.454229 
L 406.853994 -338.739442 
L 406.875836 -336.024654 
L 406.909019 -333.309866 
L 406.95589 -330.595078 
L 407.017204 -327.88029 
L 407.091042 -325.165502 
L 407.172108 -322.450715 
L 407.251882 -319.735927 
L 407.319858 -317.021139 
L 407.365733 -314.306351 
L 407.381953 -311.591563 
L 407.365752 -308.876775 
L 407.31994 -306.161987 
L 407.252148 -303.4472 
L 407.172837 -300.732412 
L 407.092839 -298.017624 
L 407.021306 -295.302836 
L 406.964688 -292.588048 
L 406.926896 -289.87326 
L 406.910442 -287.158473 
L 406.918158 -284.443685 
L 406.955227 -281.728897 
L 407.031595 -279.014109 
L 407.165191 -276.299321 
L 407.386523 -273.584533 
L 407.744933 -270.869746 
L 408.315736 -268.154958 
L 409.205747 -265.44017 
L 410.552671 -262.725382 
L 412.512642 -260.010594 
L 415.231102 -257.295806 
L 418.796547 -254.581018 
L 423.184217 -251.866231 
L 428.205519 -249.151443 
L 433.484752 -246.436655 
L 438.482928 -243.721867 
L 442.576756 -241.007079 
L 445.181323 -238.292291 
L 445.885 -235.577504 
L 444.554477 -232.862716 
L 441.373404 -230.147928 
L 436.799693 -227.43314 
L 431.455286 -224.718352 
L 425.98532 -222.003564 
L 420.931001 -219.288776 
L 416.650127 -216.573989 
L 413.297691 -213.859201 
L 410.857142 -211.144413 
L 409.199619 -208.429625 
z
" style="stroke: #3d3d3d; stroke-opacity: 0.5"/>
    </defs>
    <g clip-path="url(#p0e380680ff)">
     <use xlink:href="#mce6f7bff24" x="0" y="711.060318" style="fill: #845b53; fill-opacity: 0.5; stroke: #3d3d3d; stroke-opacity: 0.5"/>
    </g>
   </g>
   <g id="PolyCollection_5">
    <defs>
     <path id="m4756b2bae2" d="M 505.317594 -230.081444 
L 503.632406 -230.081444 
L 503.11322 -233.801763 
L 502.350512 -237.522082 
L 501.274312 -241.242401 
L 499.816093 -244.96272 
L 497.919336 -248.683039 
L 495.551902 -252.403358 
L 492.718088 -256.123677 
L 489.46766 -259.843996 
L 485.899251 -263.564315 
L 482.156345 -267.284634 
L 478.415601 -271.004952 
L 474.869063 -274.725271 
L 471.703362 -278.44559 
L 469.079735 -282.165909 
L 467.118497 -285.886228 
L 465.890328 -289.606547 
L 465.415 -293.326866 
L 465.666427 -297.047185 
L 466.581678 -300.767504 
L 468.071308 -304.487823 
L 470.028852 -308.208142 
L 472.338459 -311.928461 
L 474.880807 -315.64878 
L 477.538263 -319.369099 
L 480.200382 -323.089418 
L 482.770275 -326.809737 
L 485.171402 -330.530056 
L 487.35346 -334.250375 
L 489.295568 -337.970694 
L 491.005319 -341.691013 
L 492.51321 -345.411332 
L 493.863316 -349.131651 
L 495.102193 -352.85197 
L 496.268589 -356.572289 
L 497.386258 -360.292608 
L 498.461252 -364.012927 
L 499.483757 -367.733246 
L 500.433362 -371.453565 
L 501.285891 -375.173884 
L 502.019908 -378.894203 
L 502.621429 -382.614522 
L 503.086222 -386.334841 
L 503.419814 -390.055159 
L 503.635882 -393.775478 
L 503.753842 -397.495797 
L 503.79632 -401.216116 
L 503.786901 -404.936435 
L 503.748246 -408.656754 
L 503.700517 -412.377073 
L 503.660043 -416.097392 
L 503.638246 -419.817711 
L 503.640952 -423.53803 
L 503.668288 -427.258349 
L 503.715269 -430.978668 
L 503.773084 -434.698987 
L 503.83092 -438.419306 
L 503.878033 -442.139625 
L 503.905729 -445.859944 
L 503.908923 -449.580263 
L 503.887045 -453.300582 
L 503.844155 -457.020901 
L 503.78825 -460.74122 
L 503.729896 -464.461539 
L 503.680399 -468.181858 
L 503.64986 -471.902177 
L 503.64548 -475.622496 
L 503.670444 -479.342815 
L 503.723606 -483.063134 
L 503.799993 -486.783453 
L 503.891967 -490.503772 
L 503.990721 -494.224091 
L 504.087734 -497.94441 
L 504.175881 -501.664729 
L 504.250005 -505.385048 
L 504.306939 -509.105366 
L 504.345111 -512.825685 
L 504.363953 -516.546004 
L 504.363344 -520.266323 
L 504.343289 -523.986642 
L 504.303925 -527.706961 
L 504.245872 -531.42728 
L 504.170797 -535.147599 
L 504.082012 -538.867918 
L 503.98486 -542.588237 
L 503.886684 -546.308556 
L 503.796258 -550.028875 
L 503.722706 -553.749194 
L 503.674108 -557.469513 
L 503.656098 -561.189832 
L 503.670831 -564.910151 
L 503.71657 -568.63047 
L 503.788036 -572.350789 
L 503.87741 -576.071108 
L 503.975746 -579.791427 
L 504.07442 -583.511746 
L 504.166321 -587.232065 
L 504.246559 -590.952384 
L 504.312636 -594.672703 
L 504.36417 -598.393022 
L 504.58583 -598.393022 
L 504.58583 -598.393022 
L 504.637364 -594.672703 
L 504.703441 -590.952384 
L 504.783679 -587.232065 
L 504.87558 -583.511746 
L 504.974254 -579.791427 
L 505.07259 -576.071108 
L 505.161964 -572.350789 
L 505.23343 -568.63047 
L 505.279169 -564.910151 
L 505.293902 -561.189832 
L 505.275892 -557.469513 
L 505.227294 -553.749194 
L 505.153742 -550.028875 
L 505.063316 -546.308556 
L 504.96514 -542.588237 
L 504.867988 -538.867918 
L 504.779203 -535.147599 
L 504.704128 -531.42728 
L 504.646075 -527.706961 
L 504.606711 -523.986642 
L 504.586656 -520.266323 
L 504.586047 -516.546004 
L 504.604889 -512.825685 
L 504.643061 -509.105366 
L 504.699995 -505.385048 
L 504.774119 -501.664729 
L 504.862266 -497.94441 
L 504.959279 -494.224091 
L 505.058033 -490.503772 
L 505.150007 -486.783453 
L 505.226394 -483.063134 
L 505.279556 -479.342815 
L 505.30452 -475.622496 
L 505.30014 -471.902177 
L 505.269601 -468.181858 
L 505.220104 -464.461539 
L 505.16175 -460.74122 
L 505.105845 -457.020901 
L 505.062955 -453.300582 
L 505.041077 -449.580263 
L 505.044271 -445.859944 
L 505.071967 -442.139625 
L 505.11908 -438.419306 
L 505.176916 -434.698987 
L 505.234731 -430.978668 
L 505.281712 -427.258349 
L 505.309048 -423.53803 
L 505.311754 -419.817711 
L 505.289957 -416.097392 
L 505.249483 -412.377073 
L 505.201754 -408.656754 
L 505.163099 -404.936435 
L 505.15368 -401.216116 
L 505.196158 -397.495797 
L 505.314118 -393.775478 
L 505.530186 -390.055159 
L 505.863778 -386.334841 
L 506.328571 -382.614522 
L 506.930092 -378.894203 
L 507.664109 -375.173884 
L 508.516638 -371.453565 
L 509.466243 -367.733246 
L 510.488748 -364.012927 
L 511.563742 -360.292608 
L 512.681411 -356.572289 
L 513.847807 -352.85197 
L 515.086684 -349.131651 
L 516.43679 -345.411332 
L 517.944681 -341.691013 
L 519.654432 -337.970694 
L 521.59654 -334.250375 
L 523.778598 -330.530056 
L 526.179725 -326.809737 
L 528.749618 -323.089418 
L 531.411737 -319.369099 
L 534.069193 -315.64878 
L 536.611541 -311.928461 
L 538.921148 -308.208142 
L 540.878692 -304.487823 
L 542.368322 -300.767504 
L 543.283573 -297.047185 
L 543.535 -293.326866 
L 543.059672 -289.606547 
L 541.831503 -285.886228 
L 539.870265 -282.165909 
L 537.246638 -278.44559 
L 534.080937 -274.725271 
L 530.534399 -271.004952 
L 526.793655 -267.284634 
L 523.050749 -263.564315 
L 519.48234 -259.843996 
L 516.231912 -256.123677 
L 513.398098 -252.403358 
L 511.030664 -248.683039 
L 509.133907 -244.96272 
L 507.675688 -241.242401 
L 506.599488 -237.522082 
L 505.83678 -233.801763 
L 505.317594 -230.081444 
z
" style="stroke: #3d3d3d; stroke-opacity: 0.5"/>
    </defs>
    <g clip-path="url(#p0e380680ff)">
     <use xlink:href="#m4756b2bae2" x="0" y="711.060318" style="fill: #3274a1; fill-opacity: 0.5; stroke: #3d3d3d; stroke-opacity: 0.5"/>
    </g>
   </g>
   <g id="PolyCollection_6">
    <defs>
     <path id="m5ad797d694" d="M 603.101095 -174.660318 
L 601.148905 -174.660318 
L 600.719304 -179.751227 
L 600.147341 -184.842136 
L 599.405777 -189.933045 
L 598.469314 -195.023954 
L 597.317191 -200.114863 
L 595.935817 -205.205772 
L 594.321086 -210.296681 
L 592.479956 -215.38759 
L 590.431017 -220.478499 
L 588.203855 -225.569408 
L 585.837299 -230.660318 
L 583.376812 -235.751227 
L 580.871498 -240.842136 
L 578.371245 -245.933045 
L 575.924511 -251.023954 
L 573.577039 -256.114863 
L 571.37158 -261.205772 
L 569.348361 -266.296681 
L 567.545874 -271.38759 
L 566.001402 -276.478499 
L 564.750793 -281.569408 
L 563.827173 -286.660318 
L 563.258604 -291.751227 
L 563.065 -296.842136 
L 563.254888 -301.933045 
L 563.82271 -307.023954 
L 564.747325 -312.114863 
L 565.992162 -317.205772 
L 567.507166 -322.296681 
L 569.232332 -327.38759 
L 571.102332 -332.478499 
L 573.051541 -337.569408 
L 575.018757 -342.660318 
L 576.950963 -347.751227 
L 578.805743 -352.842136 
L 580.552181 -357.933045 
L 582.170357 -363.023954 
L 583.649763 -368.114863 
L 584.987081 -373.205772 
L 586.183822 -378.296681 
L 587.244242 -383.38759 
L 588.173867 -388.478499 
L 588.978769 -393.569408 
L 589.665568 -398.660318 
L 590.241991 -403.751227 
L 590.717715 -408.842136 
L 591.105149 -413.933045 
L 591.419883 -419.023954 
L 591.680574 -424.114863 
L 591.908194 -429.205772 
L 592.124695 -434.296681 
L 592.351272 -439.38759 
L 592.606514 -444.478499 
L 592.904745 -449.569408 
L 593.254837 -454.660318 
L 593.659704 -459.751227 
L 594.116535 -464.842136 
L 594.617725 -469.933045 
L 595.152297 -475.023954 
L 595.707564 -480.114863 
L 596.270735 -485.205772 
L 596.830214 -490.296681 
L 597.376419 -495.38759 
L 597.90208 -500.478499 
L 598.402065 -505.569408 
L 598.872896 -510.660318 
L 599.312122 -515.751227 
L 599.717742 -520.842136 
L 600.087802 -525.933045 
L 600.420225 -531.023954 
L 600.712856 -536.114863 
L 600.963682 -541.205772 
L 601.171134 -546.296681 
L 601.33439 -551.38759 
L 601.453642 -556.478499 
L 601.530285 -561.569408 
L 601.567033 -566.660318 
L 601.56796 -571.751227 
L 601.538472 -576.842136 
L 601.48519 -581.933045 
L 601.415738 -587.023954 
L 601.338403 -592.114863 
L 601.261676 -597.205772 
L 601.193683 -602.296681 
L 601.141564 -607.38759 
L 601.110884 -612.478499 
L 601.105158 -617.569408 
L 601.125579 -622.660318 
L 601.171006 -627.751227 
L 601.238213 -632.842136 
L 601.322382 -637.933045 
L 601.417736 -643.023954 
L 601.518238 -648.114863 
L 601.618233 -653.205772 
L 601.712954 -658.296681 
L 601.798843 -663.38759 
L 601.873667 -668.478499 
L 601.936456 -673.569408 
L 601.987306 -678.660318 
L 602.262694 -678.660318 
L 602.262694 -678.660318 
L 602.313544 -673.569408 
L 602.376333 -668.478499 
L 602.451157 -663.38759 
L 602.537046 -658.296681 
L 602.631767 -653.205772 
L 602.731762 -648.114863 
L 602.832264 -643.023954 
L 602.927618 -637.933045 
L 603.011787 -632.842136 
L 603.078994 -627.751227 
L 603.124421 -622.660318 
L 603.144842 -617.569408 
L 603.139116 -612.478499 
L 603.108436 -607.38759 
L 603.056317 -602.296681 
L 602.988324 -597.205772 
L 602.911597 -592.114863 
L 602.834262 -587.023954 
L 602.76481 -581.933045 
L 602.711528 -576.842136 
L 602.68204 -571.751227 
L 602.682967 -566.660318 
L 602.719715 -561.569408 
L 602.796358 -556.478499 
L 602.91561 -551.38759 
L 603.078866 -546.296681 
L 603.286318 -541.205772 
L 603.537144 -536.114863 
L 603.829775 -531.023954 
L 604.162198 -525.933045 
L 604.532258 -520.842136 
L 604.937878 -515.751227 
L 605.377104 -510.660318 
L 605.847935 -505.569408 
L 606.34792 -500.478499 
L 606.873581 -495.38759 
L 607.419786 -490.296681 
L 607.979265 -485.205772 
L 608.542436 -480.114863 
L 609.097703 -475.023954 
L 609.632275 -469.933045 
L 610.133465 -464.842136 
L 610.590296 -459.751227 
L 610.995163 -454.660318 
L 611.345255 -449.569408 
L 611.643486 -444.478499 
L 611.898728 -439.38759 
L 612.125305 -434.296681 
L 612.341806 -429.205772 
L 612.569426 -424.114863 
L 612.830117 -419.023954 
L 613.144851 -413.933045 
L 613.532285 -408.842136 
L 614.008009 -403.751227 
L 614.584432 -398.660318 
L 615.271231 -393.569408 
L 616.076133 -388.478499 
L 617.005758 -383.38759 
L 618.066178 -378.296681 
L 619.262919 -373.205772 
L 620.600237 -368.114863 
L 622.079643 -363.023954 
L 623.697819 -357.933045 
L 625.444257 -352.842136 
L 627.299037 -347.751227 
L 629.231243 -342.660318 
L 631.198459 -337.569408 
L 633.147668 -332.478499 
L 635.017668 -327.38759 
L 636.742834 -322.296681 
L 638.257838 -317.205772 
L 639.502675 -312.114863 
L 640.42729 -307.023954 
L 640.995112 -301.933045 
L 641.185 -296.842136 
L 640.991396 -291.751227 
L 640.422827 -286.660318 
L 639.499207 -281.569408 
L 638.248598 -276.478499 
L 636.704126 -271.38759 
L 634.901639 -266.296681 
L 632.87842 -261.205772 
L 630.672961 -256.114863 
L 628.325489 -251.023954 
L 625.878755 -245.933045 
L 623.378502 -240.842136 
L 620.873188 -235.751227 
L 618.412701 -230.660318 
L 616.046145 -225.569408 
L 613.818983 -220.478499 
L 611.770044 -215.38759 
L 609.928914 -210.296681 
L 608.314183 -205.205772 
L 606.932809 -200.114863 
L 605.780686 -195.023954 
L 604.844223 -189.933045 
L 604.102659 -184.842136 
L 603.530696 -179.751227 
L 603.101095 -174.660318 
z
" style="stroke: #3d3d3d; stroke-opacity: 0.5"/>
    </defs>
    <g clip-path="url(#p0e380680ff)">
     <use xlink:href="#m5ad797d694" x="0" y="711.060318" style="fill: #e1812c; fill-opacity: 0.5; stroke: #3d3d3d; stroke-opacity: 0.5"/>
    </g>
   </g>
   <g id="PolyCollection_7">
    <defs>
     <path id="me3f757bf3d" d="M 700.905036 -221.419112 
L 698.644964 -221.419112 
L 697.840983 -225.121384 
L 696.61897 -228.823656 
L 694.86131 -232.525928 
L 692.470711 -236.228201 
L 689.399193 -239.930473 
L 685.676659 -243.632745 
L 681.430388 -247.335017 
L 676.887292 -251.037289 
L 672.354551 -254.739562 
L 668.180432 -258.441834 
L 664.703375 -262.144106 
L 662.201212 -265.846378 
L 660.852129 -269.548651 
L 660.715 -273.250923 
L 661.731006 -276.953195 
L 663.743245 -280.655467 
L 666.52797 -284.35774 
L 669.830202 -288.060012 
L 673.39723 -291.762284 
L 677.004995 -295.464556 
L 680.4744 -299.166829 
L 683.676942 -302.869101 
L 686.531532 -306.571373 
L 688.996181 -310.273645 
L 691.058658 -313.975918 
L 692.729108 -317.67819 
L 694.035488 -321.380462 
L 695.020703 -325.082734 
L 695.739437 -328.785006 
L 696.253257 -332.487279 
L 696.623943 -336.189551 
L 696.906443 -339.891823 
L 697.143446 -343.594095 
L 697.363066 -347.296368 
L 697.579963 -350.99864 
L 697.79891 -354.700912 
L 698.019153 -358.403184 
L 698.237941 -362.105457 
L 698.452412 -365.807729 
L 698.659917 -369.510001 
L 698.857534 -373.212273 
L 699.04164 -376.914546 
L 699.208079 -380.616818 
L 699.352924 -384.31909 
L 699.473452 -388.021362 
L 699.568875 -391.723635 
L 699.64051 -395.425907 
L 699.691391 -399.128179 
L 699.725545 -402.830451 
L 699.747195 -406.532723 
L 699.760152 -410.234996 
L 699.767474 -413.937268 
L 699.77138 -417.63954 
L 699.773349 -421.341812 
L 699.774286 -425.044085 
L 699.774707 -428.746357 
L 699.774886 -432.448629 
L 699.774958 -436.150901 
L 699.774985 -439.853174 
L 699.774995 -443.555446 
L 699.774998 -447.257718 
L 699.775 -450.95999 
L 699.775 -454.662263 
L 699.775 -458.364535 
L 699.775 -462.066807 
L 699.775 -465.769079 
L 699.775 -469.471352 
L 699.774999 -473.173624 
L 699.774997 -476.875896 
L 699.774989 -480.578168 
L 699.774969 -484.28044 
L 699.774915 -487.982713 
L 699.774779 -491.684985 
L 699.774452 -495.387257 
L 699.773716 -499.089529 
L 699.772146 -502.791802 
L 699.768991 -506.494074 
L 699.763008 -510.196346 
L 699.752319 -513.898618 
L 699.734347 -517.600891 
L 699.705941 -521.303163 
L 699.663821 -525.005435 
L 699.605367 -528.707707 
L 699.52971 -532.40998 
L 699.438853 -536.112252 
L 699.338423 -539.814524 
L 699.237629 -543.516796 
L 699.148142 -547.219069 
L 699.08198 -550.921341 
L 699.048888 -554.623613 
L 699.053986 -558.325885 
L 699.096476 -562.028157 
L 699.169843 -565.73043 
L 699.263492 -569.432702 
L 699.36525 -573.134974 
L 699.463924 -576.837246 
L 699.551181 -580.539519 
L 699.622381 -584.241791 
L 699.676372 -587.944063 
L 699.873628 -587.944063 
L 699.873628 -587.944063 
L 699.927619 -584.241791 
L 699.998819 -580.539519 
L 700.086076 -576.837246 
L 700.18475 -573.134974 
L 700.286508 -569.432702 
L 700.380157 -565.73043 
L 700.453524 -562.028157 
L 700.496014 -558.325885 
L 700.501112 -554.623613 
L 700.46802 -550.921341 
L 700.401858 -547.219069 
L 700.312371 -543.516796 
L 700.211577 -539.814524 
L 700.111147 -536.112252 
L 700.02029 -532.40998 
L 699.944633 -528.707707 
L 699.886179 -525.005435 
L 699.844059 -521.303163 
L 699.815653 -517.600891 
L 699.797681 -513.898618 
L 699.786992 -510.196346 
L 699.781009 -506.494074 
L 699.777854 -502.791802 
L 699.776284 -499.089529 
L 699.775548 -495.387257 
L 699.775221 -491.684985 
L 699.775085 -487.982713 
L 699.775031 -484.28044 
L 699.775011 -480.578168 
L 699.775003 -476.875896 
L 699.775001 -473.173624 
L 699.775 -469.471352 
L 699.775 -465.769079 
L 699.775 -462.066807 
L 699.775 -458.364535 
L 699.775 -454.662263 
L 699.775 -450.95999 
L 699.775002 -447.257718 
L 699.775005 -443.555446 
L 699.775015 -439.853174 
L 699.775042 -436.150901 
L 699.775114 -432.448629 
L 699.775293 -428.746357 
L 699.775714 -425.044085 
L 699.776651 -421.341812 
L 699.77862 -417.63954 
L 699.782526 -413.937268 
L 699.789848 -410.234996 
L 699.802805 -406.532723 
L 699.824455 -402.830451 
L 699.858609 -399.128179 
L 699.90949 -395.425907 
L 699.981125 -391.723635 
L 700.076548 -388.021362 
L 700.197076 -384.31909 
L 700.341921 -380.616818 
L 700.50836 -376.914546 
L 700.692466 -373.212273 
L 700.890083 -369.510001 
L 701.097588 -365.807729 
L 701.312059 -362.105457 
L 701.530847 -358.403184 
L 701.75109 -354.700912 
L 701.970037 -350.99864 
L 702.186934 -347.296368 
L 702.406554 -343.594095 
L 702.643557 -339.891823 
L 702.926057 -336.189551 
L 703.296743 -332.487279 
L 703.810563 -328.785006 
L 704.529297 -325.082734 
L 705.514512 -321.380462 
L 706.820892 -317.67819 
L 708.491342 -313.975918 
L 710.553819 -310.273645 
L 713.018468 -306.571373 
L 715.873058 -302.869101 
L 719.0756 -299.166829 
L 722.545005 -295.464556 
L 726.15277 -291.762284 
L 729.719798 -288.060012 
L 733.02203 -284.35774 
L 735.806755 -280.655467 
L 737.818994 -276.953195 
L 738.835 -273.250923 
L 738.697871 -269.548651 
L 737.348788 -265.846378 
L 734.846625 -262.144106 
L 731.369568 -258.441834 
L 727.195449 -254.739562 
L 722.662708 -251.037289 
L 718.119612 -247.335017 
L 713.873341 -243.632745 
L 710.150807 -239.930473 
L 707.079289 -236.228201 
L 704.68869 -232.525928 
L 702.93103 -228.823656 
L 701.709017 -225.121384 
L 700.905036 -221.419112 
z
" style="stroke: #3d3d3d; stroke-opacity: 0.5"/>
    </defs>
    <g clip-path="url(#p0e380680ff)">
     <use xlink:href="#me3f757bf3d" x="0" y="711.060318" style="fill: #3a923a; fill-opacity: 0.5; stroke: #3d3d3d; stroke-opacity: 0.5"/>
    </g>
   </g>
   <g id="PolyCollection_8">
    <defs>
     <path id="m91d3c0f677" d="M 800.620361 -177.430003 
L 794.229639 -177.430003 
L 792.865976 -181.923529 
L 791.097992 -186.417055 
L 788.883506 -190.910582 
L 786.206947 -195.404108 
L 783.090101 -199.897634 
L 779.600478 -204.391161 
L 775.855075 -208.884687 
L 772.017663 -213.378214 
L 768.288653 -217.87174 
L 764.887903 -222.365266 
L 762.032321 -226.858793 
L 759.911431 -231.352319 
L 758.664771 -235.845845 
L 758.365 -240.339372 
L 759.009629 -244.832898 
L 760.522782 -249.326425 
L 762.766496 -253.819951 
L 765.559383 -258.313477 
L 768.699246 -262.807004 
L 771.985893 -267.30053 
L 775.240719 -271.794057 
L 778.320667 -276.287583 
L 781.125482 -280.781109 
L 783.598449 -285.274636 
L 785.721845 -289.768162 
L 787.508865 -294.261688 
L 788.993934 -298.755215 
L 790.223088 -303.248741 
L 791.245643 -307.742268 
L 792.107873 -312.235794 
L 792.848949 -316.72932 
L 793.498993 -321.222847 
L 794.078902 -325.716373 
L 794.601422 -330.2099 
L 795.072988 -334.703426 
L 795.495821 -339.196952 
L 795.869935 -343.690479 
L 796.194764 -348.184005 
L 796.470287 -352.677531 
L 796.697618 -357.171058 
L 796.879128 -361.664584 
L 797.018221 -366.158111 
L 797.118909 -370.651637 
L 797.185333 -375.145163 
L 797.221359 -379.63869 
L 797.230316 -384.132216 
L 797.214921 -388.625742 
L 797.177399 -393.119269 
L 797.119748 -397.612795 
L 797.044101 -402.106322 
L 796.953101 -406.599848 
L 796.850215 -411.093374 
L 796.739913 -415.586901 
L 796.627657 -420.080427 
L 796.51968 -424.573954 
L 796.422574 -429.06748 
L 796.342723 -433.561006 
L 796.285679 -438.054533 
L 796.255565 -442.548059 
L 796.254604 -447.041585 
L 796.282864 -451.535112 
L 796.338245 -456.028638 
L 796.416722 -460.522165 
L 796.5128 -465.015691 
L 796.620101 -469.509217 
L 796.731996 -474.002744 
L 796.842172 -478.49627 
L 796.945073 -482.989797 
L 797.03616 -487.483323 
L 797.111969 -491.976849 
L 797.170026 -496.470376 
L 797.208643 -500.963902 
L 797.226697 -505.457428 
L 797.223447 -509.950955 
L 797.198467 -514.444481 
L 797.151722 -518.938008 
L 797.083781 -523.431534 
L 796.99613 -527.92506 
L 796.891505 -532.418587 
L 796.774148 -536.912113 
L 796.649877 -541.405639 
L 796.52591 -545.899166 
L 796.410393 -550.392692 
L 796.311677 -554.886219 
L 796.237424 -559.379745 
L 796.1937 -563.873271 
L 796.184198 -568.366798 
L 796.209751 -572.860324 
L 796.268234 -577.353851 
L 796.354861 -581.847377 
L 796.462838 -586.340903 
L 796.584246 -590.83443 
L 796.710994 -595.327956 
L 796.835687 -599.821482 
L 796.952282 -604.315009 
L 797.056473 -608.808535 
L 797.145779 -613.302062 
L 797.219393 -617.795588 
L 797.277857 -622.289114 
L 797.572143 -622.289114 
L 797.572143 -622.289114 
L 797.630607 -617.795588 
L 797.704221 -613.302062 
L 797.793527 -608.808535 
L 797.897718 -604.315009 
L 798.014313 -599.821482 
L 798.139006 -595.327956 
L 798.265754 -590.83443 
L 798.387162 -586.340903 
L 798.495139 -581.847377 
L 798.581766 -577.353851 
L 798.640249 -572.860324 
L 798.665802 -568.366798 
L 798.6563 -563.873271 
L 798.612576 -559.379745 
L 798.538323 -554.886219 
L 798.439607 -550.392692 
L 798.32409 -545.899166 
L 798.200123 -541.405639 
L 798.075852 -536.912113 
L 797.958495 -532.418587 
L 797.85387 -527.92506 
L 797.766219 -523.431534 
L 797.698278 -518.938008 
L 797.651533 -514.444481 
L 797.626553 -509.950955 
L 797.623303 -505.457428 
L 797.641357 -500.963902 
L 797.679974 -496.470376 
L 797.738031 -491.976849 
L 797.81384 -487.483323 
L 797.904927 -482.989797 
L 798.007828 -478.49627 
L 798.118004 -474.002744 
L 798.229899 -469.509217 
L 798.3372 -465.015691 
L 798.433278 -460.522165 
L 798.511755 -456.028638 
L 798.567136 -451.535112 
L 798.595396 -447.041585 
L 798.594435 -442.548059 
L 798.564321 -438.054533 
L 798.507277 -433.561006 
L 798.427426 -429.06748 
L 798.33032 -424.573954 
L 798.222343 -420.080427 
L 798.110087 -415.586901 
L 797.999785 -411.093374 
L 797.896899 -406.599848 
L 797.805899 -402.106322 
L 797.730252 -397.612795 
L 797.672601 -393.119269 
L 797.635079 -388.625742 
L 797.619684 -384.132216 
L 797.628641 -379.63869 
L 797.664667 -375.145163 
L 797.731091 -370.651637 
L 797.831779 -366.158111 
L 797.970872 -361.664584 
L 798.152382 -357.171058 
L 798.379713 -352.677531 
L 798.655236 -348.184005 
L 798.980065 -343.690479 
L 799.354179 -339.196952 
L 799.777012 -334.703426 
L 800.248578 -330.2099 
L 800.771098 -325.716373 
L 801.351007 -321.222847 
L 802.001051 -316.72932 
L 802.742127 -312.235794 
L 803.604357 -307.742268 
L 804.626912 -303.248741 
L 805.856066 -298.755215 
L 807.341135 -294.261688 
L 809.128155 -289.768162 
L 811.251551 -285.274636 
L 813.724518 -280.781109 
L 816.529333 -276.287583 
L 819.609281 -271.794057 
L 822.864107 -267.30053 
L 826.150754 -262.807004 
L 829.290617 -258.313477 
L 832.083504 -253.819951 
L 834.327218 -249.326425 
L 835.840371 -244.832898 
L 836.485 -240.339372 
L 836.185229 -235.845845 
L 834.938569 -231.352319 
L 832.817679 -226.858793 
L 829.962097 -222.365266 
L 826.561347 -217.87174 
L 822.832337 -213.378214 
L 818.994925 -208.884687 
L 815.249522 -204.391161 
L 811.759899 -199.897634 
L 808.643053 -195.404108 
L 805.966494 -190.910582 
L 803.752008 -186.417055 
L 801.984024 -181.923529 
L 800.620361 -177.430003 
z
" style="stroke: #3d3d3d; stroke-opacity: 0.5"/>
    </defs>
    <g clip-path="url(#p0e380680ff)">
     <use xlink:href="#m91d3c0f677" x="0" y="711.060318" style="fill: #c03d3e; fill-opacity: 0.5; stroke: #3d3d3d; stroke-opacity: 0.5"/>
    </g>
   </g>
   <g id="line2d_6">
    <path d="M 113.875 480.913928 
L 113.875 390.875066 
" clip-path="url(#p0e380680ff)" style="fill: none; stroke: #3d3d3d; stroke-width: 1.5; stroke-linecap: round"/>
   </g>
   <g id="line2d_7">
    <path d="M 113.875 477.55699 
L 113.875 442.115351 
" clip-path="url(#p0e380680ff)" style="fill: none; stroke: #3d3d3d; stroke-width: 4.5; stroke-linecap: round"/>
   </g>
   <g id="line2d_8">
    <path d="M 113.875 472.664145 
" clip-path="url(#p0e380680ff)" style="fill: none; stroke: #3d3d3d; stroke-width: 1.5; stroke-linecap: round"/>
    <defs>
     <path id="mac365d57f4" d="M 1.875 0 
L -1.875 -0 
" style="stroke: #ffffff; stroke-width: 0.9"/>
    </defs>
    <g clip-path="url(#p0e380680ff)">
     <use xlink:href="#mac365d57f4" x="113.875" y="472.664145" style="fill: #ffffff; stroke: #ffffff; stroke-width: 0.9"/>
    </g>
   </g>
   <g id="line2d_9">
    <path d="M 211.525 473.380576 
L 211.525 256.669841 
" clip-path="url(#p0e380680ff)" style="fill: none; stroke: #3d3d3d; stroke-width: 1.5; stroke-linecap: round"/>
   </g>
   <g id="line2d_10">
    <path d="M 211.525 409.910466 
L 211.525 345.741066 
" clip-path="url(#p0e380680ff)" style="fill: none; stroke: #3d3d3d; stroke-width: 4.5; stroke-linecap: round"/>
   </g>
   <g id="line2d_11">
    <path d="M 211.525 375.33763 
" clip-path="url(#p0e380680ff)" style="fill: none; stroke: #3d3d3d; stroke-width: 1.5; stroke-linecap: round"/>
    <g clip-path="url(#p0e380680ff)">
     <use xlink:href="#mac365d57f4" x="211.525" y="375.33763" style="fill: #ffffff; stroke: #ffffff; stroke-width: 0.9"/>
    </g>
   </g>
   <g id="line2d_12">
    <path d="M 309.175 474.329406 
L 309.175 473.031556 
" clip-path="url(#p0e380680ff)" style="fill: none; stroke: #3d3d3d; stroke-width: 1.5; stroke-linecap: round"/>
   </g>
   <g id="line2d_13">
    <path d="M 309.175 473.807648 
L 309.175 473.420543 
" clip-path="url(#p0e380680ff)" style="fill: none; stroke: #3d3d3d; stroke-width: 4.5; stroke-linecap: round"/>
   </g>
   <g id="line2d_14">
    <path d="M 309.175 473.619637 
" clip-path="url(#p0e380680ff)" style="fill: none; stroke: #3d3d3d; stroke-width: 1.5; stroke-linecap: round"/>
    <g clip-path="url(#p0e380680ff)">
     <use xlink:href="#mac365d57f4" x="309.175" y="473.619637" style="fill: #ffffff; stroke: #ffffff; stroke-width: 0.9"/>
    </g>
   </g>
   <g id="line2d_15">
    <path d="M 406.825 480.298472 
L 406.825 464.922419 
" clip-path="url(#p0e380680ff)" style="fill: none; stroke: #3d3d3d; stroke-width: 1.5; stroke-linecap: round"/>
   </g>
   <g id="line2d_16">
    <path d="M 406.825 477.690608 
L 406.825 471.903277 
" clip-path="url(#p0e380680ff)" style="fill: none; stroke: #3d3d3d; stroke-width: 4.5; stroke-linecap: round"/>
   </g>
   <g id="line2d_17">
    <path d="M 406.825 475.644707 
" clip-path="url(#p0e380680ff)" style="fill: none; stroke: #3d3d3d; stroke-width: 1.5; stroke-linecap: round"/>
    <g clip-path="url(#p0e380680ff)">
     <use xlink:href="#mac365d57f4" x="406.825" y="475.644707" style="fill: #ffffff; stroke: #ffffff; stroke-width: 0.9"/>
    </g>
   </g>
   <g id="line2d_18">
    <path d="M 504.475 443.965632 
L 504.475 352.912385 
" clip-path="url(#p0e380680ff)" style="fill: none; stroke: #3d3d3d; stroke-width: 1.5; stroke-linecap: round"/>
   </g>
   <g id="line2d_19">
    <path d="M 504.475 427.007386 
L 504.475 394.341278 
" clip-path="url(#p0e380680ff)" style="fill: none; stroke: #3d3d3d; stroke-width: 4.5; stroke-linecap: round"/>
   </g>
   <g id="line2d_20">
    <path d="M 504.475 412.633602 
" clip-path="url(#p0e380680ff)" style="fill: none; stroke: #3d3d3d; stroke-width: 1.5; stroke-linecap: round"/>
    <g clip-path="url(#p0e380680ff)">
     <use xlink:href="#mac365d57f4" x="504.475" y="412.633602" style="fill: #ffffff; stroke: #ffffff; stroke-width: 0.9"/>
    </g>
   </g>
   <g id="line2d_21">
    <path d="M 602.125 474.262006 
L 602.125 244.305366 
" clip-path="url(#p0e380680ff)" style="fill: none; stroke: #3d3d3d; stroke-width: 1.5; stroke-linecap: round"/>
   </g>
   <g id="line2d_22">
    <path d="M 602.125 431.213212 
L 602.125 347.945646 
" clip-path="url(#p0e380680ff)" style="fill: none; stroke: #3d3d3d; stroke-width: 4.5; stroke-linecap: round"/>
   </g>
   <g id="line2d_23">
    <path d="M 602.125 402.25971 
" clip-path="url(#p0e380680ff)" style="fill: none; stroke: #3d3d3d; stroke-width: 1.5; stroke-linecap: round"/>
    <g clip-path="url(#p0e380680ff)">
     <use xlink:href="#mac365d57f4" x="602.125" y="402.25971" style="fill: #ffffff; stroke: #ffffff; stroke-width: 0.9"/>
    </g>
   </g>
   <g id="line2d_24">
    <path d="M 699.775 457.686021 
L 699.775 396.882398 
" clip-path="url(#p0e380680ff)" style="fill: none; stroke: #3d3d3d; stroke-width: 1.5; stroke-linecap: round"/>
   </g>
   <g id="line2d_25">
    <path d="M 699.775 447.66683 
L 699.775 425.122148 
" clip-path="url(#p0e380680ff)" style="fill: none; stroke: #3d3d3d; stroke-width: 4.5; stroke-linecap: round"/>
   </g>
   <g id="line2d_26">
    <path d="M 699.775 435.302847 
" clip-path="url(#p0e380680ff)" style="fill: none; stroke: #3d3d3d; stroke-width: 1.5; stroke-linecap: round"/>
    <g clip-path="url(#p0e380680ff)">
     <use xlink:href="#mac365d57f4" x="699.775" y="435.302847" style="fill: #ffffff; stroke: #ffffff; stroke-width: 0.9"/>
    </g>
   </g>
   <g id="line2d_27">
    <path d="M 797.425 480.55067 
L 797.425 430.936475 
" clip-path="url(#p0e380680ff)" style="fill: none; stroke: #3d3d3d; stroke-width: 1.5; stroke-linecap: round"/>
   </g>
   <g id="line2d_28">
    <path d="M 797.425 477.427532 
L 797.425 458.167139 
" clip-path="url(#p0e380680ff)" style="fill: none; stroke: #3d3d3d; stroke-width: 4.5; stroke-linecap: round"/>
   </g>
   <g id="line2d_29">
    <path d="M 797.425 473.688299 
" clip-path="url(#p0e380680ff)" style="fill: none; stroke: #3d3d3d; stroke-width: 1.5; stroke-linecap: round"/>
    <g clip-path="url(#p0e380680ff)">
     <use xlink:href="#mac365d57f4" x="797.425" y="473.688299" style="fill: #ffffff; stroke: #ffffff; stroke-width: 0.9"/>
    </g>
   </g>
   <g id="patch_3">
    <path d="M 65.05 561.6 
L 846.25 561.6 
" style="fill: none; stroke: #cccccc; stroke-width: 0.8; stroke-linejoin: miter; stroke-linecap: square"/>
   </g>
  </g>
 </g>
 <defs>
  <clipPath id="p0e380680ff">
   <rect x="65.05" y="7.2" width="781.2" height="554.4"/>
  </clipPath>
 </defs>
</svg>
