<?xml version="1.0" encoding="utf-8" standalone="no"?>
<!DOCTYPE svg PUBLIC "-//W3C//DTD SVG 1.1//EN"
  "http://www.w3.org/Graphics/SVG/1.1/DTD/svg11.dtd">
<svg xmlns:xlink="http://www.w3.org/1999/xlink" width="857.7625pt" height="711.060318pt" viewBox="0 0 857.7625 711.060318" xmlns="http://www.w3.org/2000/svg" version="1.1">
 <metadata>
  <rdf:RDF xmlns:dc="http://purl.org/dc/elements/1.1/" xmlns:cc="http://creativecommons.org/ns#" xmlns:rdf="http://www.w3.org/1999/02/22-rdf-syntax-ns#">
   <cc:Work>
    <dc:type rdf:resource="http://purl.org/dc/dcmitype/StillImage"/>
    <dc:date>2024-06-19T17:04:35.171409</dc:date>
    <dc:format>image/svg+xml</dc:format>
    <dc:creator>
     <cc:Agent>
      <dc:title>Matplotlib v3.8.0, https://matplotlib.org/</dc:title>
     </cc:Agent>
    </dc:creator>
   </cc:Work>
  </rdf:RDF>
 </metadata>
 <defs>
  <style type="text/css">*{stroke-linejoin: round; stroke-linecap: butt}</style>
 </defs>
 <g id="figure_1">
  <g id="patch_1">
   <path d="M 0 711.060318 
L 857.7625 711.060318 
L 857.7625 0 
L 0 0 
L 0 711.060318 
z
" style="fill: none"/>
  </g>
  <g id="axes_1">
   <g id="patch_2">
    <path d="M 69.3625 561.6 
L 850.5625 561.6 
L 850.5625 7.2 
L 69.3625 7.2 
L 69.3625 561.6 
z
" style="fill: none"/>
   </g>
   <g id="matplotlib.axis_1">
    <g id="xtick_1">
     <g id="text_1">
      <!-- MSA -->
      <g style="fill: #262626" transform="translate(97.813986 610.465141) rotate(-45) scale(0.2 -0.2)">
       <defs>
        <path id="DejaVuSans-4d" d="M 628 4666 
L 1569 4666 
L 2759 1491 
L 3956 4666 
L 4897 4666 
L 4897 0 
L 4281 0 
L 4281 4097 
L 3078 897 
L 2444 897 
L 1241 4097 
L 1241 0 
L 628 0 
L 628 4666 
z
" transform="scale(0.015625)"/>
        <path id="DejaVuSans-53" d="M 3425 4513 
L 3425 3897 
Q 3066 4069 2747 4153 
Q 2428 4238 2131 4238 
Q 1616 4238 1336 4038 
Q 1056 3838 1056 3469 
Q 1056 3159 1242 3001 
Q 1428 2844 1947 2747 
L 2328 2669 
Q 3034 2534 3370 2195 
Q 3706 1856 3706 1288 
Q 3706 609 3251 259 
Q 2797 -91 1919 -91 
Q 1588 -91 1214 -16 
Q 841 59 441 206 
L 441 856 
Q 825 641 1194 531 
Q 1563 422 1919 422 
Q 2459 422 2753 634 
Q 3047 847 3047 1241 
Q 3047 1584 2836 1778 
Q 2625 1972 2144 2069 
L 1759 2144 
Q 1053 2284 737 2584 
Q 422 2884 422 3419 
Q 422 4038 858 4394 
Q 1294 4750 2059 4750 
Q 2388 4750 2728 4690 
Q 3069 4631 3425 4513 
z
" transform="scale(0.015625)"/>
        <path id="DejaVuSans-41" d="M 2188 4044 
L 1331 1722 
L 3047 1722 
L 2188 4044 
z
M 1831 4666 
L 2547 4666 
L 4325 0 
L 3669 0 
L 3244 1197 
L 1141 1197 
L 716 0 
L 50 0 
L 1831 4666 
z
" transform="scale(0.015625)"/>
       </defs>
       <use xlink:href="#DejaVuSans-4d"/>
       <use xlink:href="#DejaVuSans-53" x="86.279297"/>
       <use xlink:href="#DejaVuSans-41" x="151.630859"/>
      </g>
     </g>
    </g>
    <g id="xtick_2">
     <g id="text_2">
      <!-- Single -->
      <g style="fill: #262626" transform="translate(183.105085 622.824042) rotate(-45) scale(0.2 -0.2)">
       <defs>
        <path id="DejaVuSans-69" d="M 603 3500 
L 1178 3500 
L 1178 0 
L 603 0 
L 603 3500 
z
M 603 4863 
L 1178 4863 
L 1178 4134 
L 603 4134 
L 603 4863 
z
" transform="scale(0.015625)"/>
        <path id="DejaVuSans-6e" d="M 3513 2113 
L 3513 0 
L 2938 0 
L 2938 2094 
Q 2938 2591 2744 2837 
Q 2550 3084 2163 3084 
Q 1697 3084 1428 2787 
Q 1159 2491 1159 1978 
L 1159 0 
L 581 0 
L 581 3500 
L 1159 3500 
L 1159 2956 
Q 1366 3272 1645 3428 
Q 1925 3584 2291 3584 
Q 2894 3584 3203 3211 
Q 3513 2838 3513 2113 
z
" transform="scale(0.015625)"/>
        <path id="DejaVuSans-67" d="M 2906 1791 
Q 2906 2416 2648 2759 
Q 2391 3103 1925 3103 
Q 1463 3103 1205 2759 
Q 947 2416 947 1791 
Q 947 1169 1205 825 
Q 1463 481 1925 481 
Q 2391 481 2648 825 
Q 2906 1169 2906 1791 
z
M 3481 434 
Q 3481 -459 3084 -895 
Q 2688 -1331 1869 -1331 
Q 1566 -1331 1297 -1286 
Q 1028 -1241 775 -1147 
L 775 -588 
Q 1028 -725 1275 -790 
Q 1522 -856 1778 -856 
Q 2344 -856 2625 -561 
Q 2906 -266 2906 331 
L 2906 616 
Q 2728 306 2450 153 
Q 2172 0 1784 0 
Q 1141 0 747 490 
Q 353 981 353 1791 
Q 353 2603 747 3093 
Q 1141 3584 1784 3584 
Q 2172 3584 2450 3431 
Q 2728 3278 2906 2969 
L 2906 3500 
L 3481 3500 
L 3481 434 
z
" transform="scale(0.015625)"/>
        <path id="DejaVuSans-6c" d="M 603 4863 
L 1178 4863 
L 1178 0 
L 603 0 
L 603 4863 
z
" transform="scale(0.015625)"/>
        <path id="DejaVuSans-65" d="M 3597 1894 
L 3597 1613 
L 953 1613 
Q 991 1019 1311 708 
Q 1631 397 2203 397 
Q 2534 397 2845 478 
Q 3156 559 3463 722 
L 3463 178 
Q 3153 47 2828 -22 
Q 2503 -91 2169 -91 
Q 1331 -91 842 396 
Q 353 884 353 1716 
Q 353 2575 817 3079 
Q 1281 3584 2069 3584 
Q 2775 3584 3186 3129 
Q 3597 2675 3597 1894 
z
M 3022 2063 
Q 3016 2534 2758 2815 
Q 2500 3097 2075 3097 
Q 1594 3097 1305 2825 
Q 1016 2553 972 2059 
L 3022 2063 
z
" transform="scale(0.015625)"/>
       </defs>
       <use xlink:href="#DejaVuSans-53"/>
       <use xlink:href="#DejaVuSans-69" x="63.476562"/>
       <use xlink:href="#DejaVuSans-6e" x="91.259766"/>
       <use xlink:href="#DejaVuSans-67" x="154.638672"/>
       <use xlink:href="#DejaVuSans-6c" x="218.115234"/>
       <use xlink:href="#DejaVuSans-65" x="245.898438"/>
      </g>
     </g>
    </g>
    <g id="xtick_3">
     <g id="text_3">
      <!-- Gaussian -->
      <g style="fill: #262626" transform="translate(259.354056 644.22507) rotate(-45) scale(0.2 -0.2)">
       <defs>
        <path id="DejaVuSans-47" d="M 3809 666 
L 3809 1919 
L 2778 1919 
L 2778 2438 
L 4434 2438 
L 4434 434 
Q 4069 175 3628 42 
Q 3188 -91 2688 -91 
Q 1594 -91 976 548 
Q 359 1188 359 2328 
Q 359 3472 976 4111 
Q 1594 4750 2688 4750 
Q 3144 4750 3555 4637 
Q 3966 4525 4313 4306 
L 4313 3634 
Q 3963 3931 3569 4081 
Q 3175 4231 2741 4231 
Q 1884 4231 1454 3753 
Q 1025 3275 1025 2328 
Q 1025 1384 1454 906 
Q 1884 428 2741 428 
Q 3075 428 3337 486 
Q 3600 544 3809 666 
z
" transform="scale(0.015625)"/>
        <path id="DejaVuSans-61" d="M 2194 1759 
Q 1497 1759 1228 1600 
Q 959 1441 959 1056 
Q 959 750 1161 570 
Q 1363 391 1709 391 
Q 2188 391 2477 730 
Q 2766 1069 2766 1631 
L 2766 1759 
L 2194 1759 
z
M 3341 1997 
L 3341 0 
L 2766 0 
L 2766 531 
Q 2569 213 2275 61 
Q 1981 -91 1556 -91 
Q 1019 -91 701 211 
Q 384 513 384 1019 
Q 384 1609 779 1909 
Q 1175 2209 1959 2209 
L 2766 2209 
L 2766 2266 
Q 2766 2663 2505 2880 
Q 2244 3097 1772 3097 
Q 1472 3097 1187 3025 
Q 903 2953 641 2809 
L 641 3341 
Q 956 3463 1253 3523 
Q 1550 3584 1831 3584 
Q 2591 3584 2966 3190 
Q 3341 2797 3341 1997 
z
" transform="scale(0.015625)"/>
        <path id="DejaVuSans-75" d="M 544 1381 
L 544 3500 
L 1119 3500 
L 1119 1403 
Q 1119 906 1312 657 
Q 1506 409 1894 409 
Q 2359 409 2629 706 
Q 2900 1003 2900 1516 
L 2900 3500 
L 3475 3500 
L 3475 0 
L 2900 0 
L 2900 538 
Q 2691 219 2414 64 
Q 2138 -91 1772 -91 
Q 1169 -91 856 284 
Q 544 659 544 1381 
z
M 1991 3584 
L 1991 3584 
z
" transform="scale(0.015625)"/>
        <path id="DejaVuSans-73" d="M 2834 3397 
L 2834 2853 
Q 2591 2978 2328 3040 
Q 2066 3103 1784 3103 
Q 1356 3103 1142 2972 
Q 928 2841 928 2578 
Q 928 2378 1081 2264 
Q 1234 2150 1697 2047 
L 1894 2003 
Q 2506 1872 2764 1633 
Q 3022 1394 3022 966 
Q 3022 478 2636 193 
Q 2250 -91 1575 -91 
Q 1294 -91 989 -36 
Q 684 19 347 128 
L 347 722 
Q 666 556 975 473 
Q 1284 391 1588 391 
Q 1994 391 2212 530 
Q 2431 669 2431 922 
Q 2431 1156 2273 1281 
Q 2116 1406 1581 1522 
L 1381 1569 
Q 847 1681 609 1914 
Q 372 2147 372 2553 
Q 372 3047 722 3315 
Q 1072 3584 1716 3584 
Q 2034 3584 2315 3537 
Q 2597 3491 2834 3397 
z
" transform="scale(0.015625)"/>
       </defs>
       <use xlink:href="#DejaVuSans-47"/>
       <use xlink:href="#DejaVuSans-61" x="77.490234"/>
       <use xlink:href="#DejaVuSans-75" x="138.769531"/>
       <use xlink:href="#DejaVuSans-73" x="202.148438"/>
       <use xlink:href="#DejaVuSans-73" x="254.248047"/>
       <use xlink:href="#DejaVuSans-69" x="306.347656"/>
       <use xlink:href="#DejaVuSans-61" x="334.130859"/>
       <use xlink:href="#DejaVuSans-6e" x="395.410156"/>
      </g>
     </g>
    </g>
    <g id="xtick_4">
     <g id="text_4">
      <!-- Gaussian (AF) -->
      <g style="fill: #262626" transform="translate(323.666181 677.562945) rotate(-45) scale(0.2 -0.2)">
       <defs>
        <path id="DejaVuSans-20" transform="scale(0.015625)"/>
        <path id="DejaVuSans-28" d="M 1984 4856 
Q 1566 4138 1362 3434 
Q 1159 2731 1159 2009 
Q 1159 1288 1364 580 
Q 1569 -128 1984 -844 
L 1484 -844 
Q 1016 -109 783 600 
Q 550 1309 550 2009 
Q 550 2706 781 3412 
Q 1013 4119 1484 4856 
L 1984 4856 
z
" transform="scale(0.015625)"/>
        <path id="DejaVuSans-46" d="M 628 4666 
L 3309 4666 
L 3309 4134 
L 1259 4134 
L 1259 2759 
L 3109 2759 
L 3109 2228 
L 1259 2228 
L 1259 0 
L 628 0 
L 628 4666 
z
" transform="scale(0.015625)"/>
        <path id="DejaVuSans-29" d="M 513 4856 
L 1013 4856 
Q 1481 4119 1714 3412 
Q 1947 2706 1947 2009 
Q 1947 1309 1714 600 
Q 1481 -109 1013 -844 
L 513 -844 
Q 928 -128 1133 580 
Q 1338 1288 1338 2009 
Q 1338 2731 1133 3434 
Q 928 4138 513 4856 
z
" transform="scale(0.015625)"/>
       </defs>
       <use xlink:href="#DejaVuSans-47"/>
       <use xlink:href="#DejaVuSans-61" x="77.490234"/>
       <use xlink:href="#DejaVuSans-75" x="138.769531"/>
       <use xlink:href="#DejaVuSans-73" x="202.148438"/>
       <use xlink:href="#DejaVuSans-73" x="254.248047"/>
       <use xlink:href="#DejaVuSans-69" x="306.347656"/>
       <use xlink:href="#DejaVuSans-61" x="334.130859"/>
       <use xlink:href="#DejaVuSans-6e" x="395.410156"/>
       <use xlink:href="#DejaVuSans-20" x="458.789062"/>
       <use xlink:href="#DejaVuSans-28" x="490.576172"/>
       <use xlink:href="#DejaVuSans-41" x="529.589844"/>
       <use xlink:href="#DejaVuSans-46" x="597.998047"/>
       <use xlink:href="#DejaVuSans-29" x="655.517578"/>
      </g>
     </g>
    </g>
    <g id="xtick_5">
     <g id="text_5">
      <!-- 1 PC -->
      <g style="fill: #262626" transform="translate(487.638378 611.240749) rotate(-45) scale(0.2 -0.2)">
       <defs>
        <path id="DejaVuSans-31" d="M 794 531 
L 1825 531 
L 1825 4091 
L 703 3866 
L 703 4441 
L 1819 4666 
L 2450 4666 
L 2450 531 
L 3481 531 
L 3481 0 
L 794 0 
L 794 531 
z
" transform="scale(0.015625)"/>
        <path id="DejaVuSans-50" d="M 1259 4147 
L 1259 2394 
L 2053 2394 
Q 2494 2394 2734 2622 
Q 2975 2850 2975 3272 
Q 2975 3691 2734 3919 
Q 2494 4147 2053 4147 
L 1259 4147 
z
M 628 4666 
L 2053 4666 
Q 2838 4666 3239 4311 
Q 3641 3956 3641 3272 
Q 3641 2581 3239 2228 
Q 2838 1875 2053 1875 
L 1259 1875 
L 1259 0 
L 628 0 
L 628 4666 
z
" transform="scale(0.015625)"/>
        <path id="DejaVuSans-43" d="M 4122 4306 
L 4122 3641 
Q 3803 3938 3442 4084 
Q 3081 4231 2675 4231 
Q 1875 4231 1450 3742 
Q 1025 3253 1025 2328 
Q 1025 1406 1450 917 
Q 1875 428 2675 428 
Q 3081 428 3442 575 
Q 3803 722 4122 1019 
L 4122 359 
Q 3791 134 3420 21 
Q 3050 -91 2638 -91 
Q 1578 -91 968 557 
Q 359 1206 359 2328 
Q 359 3453 968 4101 
Q 1578 4750 2638 4750 
Q 3056 4750 3426 4639 
Q 3797 4528 4122 4306 
z
" transform="scale(0.015625)"/>
       </defs>
       <use xlink:href="#DejaVuSans-31"/>
       <use xlink:href="#DejaVuSans-20" x="63.623047"/>
       <use xlink:href="#DejaVuSans-50" x="95.410156"/>
       <use xlink:href="#DejaVuSans-43" x="155.712891"/>
      </g>
     </g>
    </g>
    <g id="xtick_6">
     <g id="text_6">
      <!-- 1 PC (AF) -->
      <g style="fill: #262626" transform="translate(551.950503 644.578624) rotate(-45) scale(0.2 -0.2)">
       <use xlink:href="#DejaVuSans-31"/>
       <use xlink:href="#DejaVuSans-20" x="63.623047"/>
       <use xlink:href="#DejaVuSans-50" x="95.410156"/>
       <use xlink:href="#DejaVuSans-43" x="155.712891"/>
       <use xlink:href="#DejaVuSans-20" x="225.537109"/>
       <use xlink:href="#DejaVuSans-28" x="257.324219"/>
       <use xlink:href="#DejaVuSans-41" x="296.337891"/>
       <use xlink:href="#DejaVuSans-46" x="364.746094"/>
       <use xlink:href="#DejaVuSans-29" x="422.265625"/>
      </g>
     </g>
    </g>
    <g id="xtick_7">
     <g id="text_7">
      <!-- 2 PC -->
      <g style="fill: #262626" transform="translate(682.938378 611.240749) rotate(-45) scale(0.2 -0.2)">
       <defs>
        <path id="DejaVuSans-32" d="M 1228 531 
L 3431 531 
L 3431 0 
L 469 0 
L 469 531 
Q 828 903 1448 1529 
Q 2069 2156 2228 2338 
Q 2531 2678 2651 2914 
Q 2772 3150 2772 3378 
Q 2772 3750 2511 3984 
Q 2250 4219 1831 4219 
Q 1534 4219 1204 4116 
Q 875 4013 500 3803 
L 500 4441 
Q 881 4594 1212 4672 
Q 1544 4750 1819 4750 
Q 2544 4750 2975 4387 
Q 3406 4025 3406 3419 
Q 3406 3131 3298 2873 
Q 3191 2616 2906 2266 
Q 2828 2175 2409 1742 
Q 1991 1309 1228 531 
z
" transform="scale(0.015625)"/>
       </defs>
       <use xlink:href="#DejaVuSans-32"/>
       <use xlink:href="#DejaVuSans-20" x="63.623047"/>
       <use xlink:href="#DejaVuSans-50" x="95.410156"/>
       <use xlink:href="#DejaVuSans-43" x="155.712891"/>
      </g>
     </g>
    </g>
    <g id="xtick_8">
     <g id="text_8">
      <!-- 2 PC (AF) -->
      <g style="fill: #262626" transform="translate(747.250503 644.578624) rotate(-45) scale(0.2 -0.2)">
       <use xlink:href="#DejaVuSans-32"/>
       <use xlink:href="#DejaVuSans-20" x="63.623047"/>
       <use xlink:href="#DejaVuSans-50" x="95.410156"/>
       <use xlink:href="#DejaVuSans-43" x="155.712891"/>
       <use xlink:href="#DejaVuSans-20" x="225.537109"/>
       <use xlink:href="#DejaVuSans-28" x="257.324219"/>
       <use xlink:href="#DejaVuSans-41" x="296.337891"/>
       <use xlink:href="#DejaVuSans-46" x="364.746094"/>
       <use xlink:href="#DejaVuSans-29" x="422.265625"/>
      </g>
     </g>
    </g>
    <g id="text_9">
     <!-- Method -->
     <g style="fill: #262626" transform="translate(422.45625 699.700943) scale(0.2 -0.2)">
      <defs>
       <path id="DejaVuSans-74" d="M 1172 4494 
L 1172 3500 
L 2356 3500 
L 2356 3053 
L 1172 3053 
L 1172 1153 
Q 1172 725 1289 603 
Q 1406 481 1766 481 
L 2356 481 
L 2356 0 
L 1766 0 
Q 1100 0 847 248 
Q 594 497 594 1153 
L 594 3053 
L 172 3053 
L 172 3500 
L 594 3500 
L 594 4494 
L 1172 4494 
z
" transform="scale(0.015625)"/>
       <path id="DejaVuSans-68" d="M 3513 2113 
L 3513 0 
L 2938 0 
L 2938 2094 
Q 2938 2591 2744 2837 
Q 2550 3084 2163 3084 
Q 1697 3084 1428 2787 
Q 1159 2491 1159 1978 
L 1159 0 
L 581 0 
L 581 4863 
L 1159 4863 
L 1159 2956 
Q 1366 3272 1645 3428 
Q 1925 3584 2291 3584 
Q 2894 3584 3203 3211 
Q 3513 2838 3513 2113 
z
" transform="scale(0.015625)"/>
       <path id="DejaVuSans-6f" d="M 1959 3097 
Q 1497 3097 1228 2736 
Q 959 2375 959 1747 
Q 959 1119 1226 758 
Q 1494 397 1959 397 
Q 2419 397 2687 759 
Q 2956 1122 2956 1747 
Q 2956 2369 2687 2733 
Q 2419 3097 1959 3097 
z
M 1959 3584 
Q 2709 3584 3137 3096 
Q 3566 2609 3566 1747 
Q 3566 888 3137 398 
Q 2709 -91 1959 -91 
Q 1206 -91 779 398 
Q 353 888 353 1747 
Q 353 2609 779 3096 
Q 1206 3584 1959 3584 
z
" transform="scale(0.015625)"/>
       <path id="DejaVuSans-64" d="M 2906 2969 
L 2906 4863 
L 3481 4863 
L 3481 0 
L 2906 0 
L 2906 525 
Q 2725 213 2448 61 
Q 2172 -91 1784 -91 
Q 1150 -91 751 415 
Q 353 922 353 1747 
Q 353 2572 751 3078 
Q 1150 3584 1784 3584 
Q 2172 3584 2448 3432 
Q 2725 3281 2906 2969 
z
M 947 1747 
Q 947 1113 1208 752 
Q 1469 391 1925 391 
Q 2381 391 2643 752 
Q 2906 1113 2906 1747 
Q 2906 2381 2643 2742 
Q 2381 3103 1925 3103 
Q 1469 3103 1208 2742 
Q 947 2381 947 1747 
z
" transform="scale(0.015625)"/>
      </defs>
      <use xlink:href="#DejaVuSans-4d"/>
      <use xlink:href="#DejaVuSans-65" x="86.279297"/>
      <use xlink:href="#DejaVuSans-74" x="147.802734"/>
      <use xlink:href="#DejaVuSans-68" x="187.011719"/>
      <use xlink:href="#DejaVuSans-6f" x="250.390625"/>
      <use xlink:href="#DejaVuSans-64" x="311.572266"/>
     </g>
    </g>
   </g>
   <g id="matplotlib.axis_2">
    <g id="ytick_1">
     <g id="line2d_1">
      <path d="M 69.3625 500.680944 
L 850.5625 500.680944 
" clip-path="url(#pbf80f55bdc)" style="fill: none; stroke: #cccccc; stroke-width: 0.8; stroke-linecap: round"/>
     </g>
     <g id="text_10">
      <!-- 0.0 -->
      <g style="fill: #262626" transform="translate(30.55625 508.279381) scale(0.2 -0.2)">
       <defs>
        <path id="DejaVuSans-30" d="M 2034 4250 
Q 1547 4250 1301 3770 
Q 1056 3291 1056 2328 
Q 1056 1369 1301 889 
Q 1547 409 2034 409 
Q 2525 409 2770 889 
Q 3016 1369 3016 2328 
Q 3016 3291 2770 3770 
Q 2525 4250 2034 4250 
z
M 2034 4750 
Q 2819 4750 3233 4129 
Q 3647 3509 3647 2328 
Q 3647 1150 3233 529 
Q 2819 -91 2034 -91 
Q 1250 -91 836 529 
Q 422 1150 422 2328 
Q 422 3509 836 4129 
Q 1250 4750 2034 4750 
z
" transform="scale(0.015625)"/>
        <path id="DejaVuSans-2e" d="M 684 794 
L 1344 794 
L 1344 0 
L 684 0 
L 684 794 
z
" transform="scale(0.015625)"/>
       </defs>
       <use xlink:href="#DejaVuSans-30"/>
       <use xlink:href="#DejaVuSans-2e" x="63.623047"/>
       <use xlink:href="#DejaVuSans-30" x="95.410156"/>
      </g>
     </g>
    </g>
    <g id="ytick_2">
     <g id="line2d_2">
      <path d="M 69.3625 412.768688 
L 850.5625 412.768688 
" clip-path="url(#pbf80f55bdc)" style="fill: none; stroke: #cccccc; stroke-width: 0.8; stroke-linecap: round"/>
     </g>
     <g id="text_11">
      <!-- 0.2 -->
      <g style="fill: #262626" transform="translate(30.55625 420.367126) scale(0.2 -0.2)">
       <use xlink:href="#DejaVuSans-30"/>
       <use xlink:href="#DejaVuSans-2e" x="63.623047"/>
       <use xlink:href="#DejaVuSans-32" x="95.410156"/>
      </g>
     </g>
    </g>
    <g id="ytick_3">
     <g id="line2d_3">
      <path d="M 69.3625 324.856432 
L 850.5625 324.856432 
" clip-path="url(#pbf80f55bdc)" style="fill: none; stroke: #cccccc; stroke-width: 0.8; stroke-linecap: round"/>
     </g>
     <g id="text_12">
      <!-- 0.4 -->
      <g style="fill: #262626" transform="translate(30.55625 332.45487) scale(0.2 -0.2)">
       <defs>
        <path id="DejaVuSans-34" d="M 2419 4116 
L 825 1625 
L 2419 1625 
L 2419 4116 
z
M 2253 4666 
L 3047 4666 
L 3047 1625 
L 3713 1625 
L 3713 1100 
L 3047 1100 
L 3047 0 
L 2419 0 
L 2419 1100 
L 313 1100 
L 313 1709 
L 2253 4666 
z
" transform="scale(0.015625)"/>
       </defs>
       <use xlink:href="#DejaVuSans-30"/>
       <use xlink:href="#DejaVuSans-2e" x="63.623047"/>
       <use xlink:href="#DejaVuSans-34" x="95.410156"/>
      </g>
     </g>
    </g>
    <g id="ytick_4">
     <g id="line2d_4">
      <path d="M 69.3625 236.944176 
L 850.5625 236.944176 
" clip-path="url(#pbf80f55bdc)" style="fill: none; stroke: #cccccc; stroke-width: 0.8; stroke-linecap: round"/>
     </g>
     <g id="text_13">
      <!-- 0.6 -->
      <g style="fill: #262626" transform="translate(30.55625 244.542614) scale(0.2 -0.2)">
       <defs>
        <path id="DejaVuSans-36" d="M 2113 2584 
Q 1688 2584 1439 2293 
Q 1191 2003 1191 1497 
Q 1191 994 1439 701 
Q 1688 409 2113 409 
Q 2538 409 2786 701 
Q 3034 994 3034 1497 
Q 3034 2003 2786 2293 
Q 2538 2584 2113 2584 
z
M 3366 4563 
L 3366 3988 
Q 3128 4100 2886 4159 
Q 2644 4219 2406 4219 
Q 1781 4219 1451 3797 
Q 1122 3375 1075 2522 
Q 1259 2794 1537 2939 
Q 1816 3084 2150 3084 
Q 2853 3084 3261 2657 
Q 3669 2231 3669 1497 
Q 3669 778 3244 343 
Q 2819 -91 2113 -91 
Q 1303 -91 875 529 
Q 447 1150 447 2328 
Q 447 3434 972 4092 
Q 1497 4750 2381 4750 
Q 2619 4750 2861 4703 
Q 3103 4656 3366 4563 
z
" transform="scale(0.015625)"/>
       </defs>
       <use xlink:href="#DejaVuSans-30"/>
       <use xlink:href="#DejaVuSans-2e" x="63.623047"/>
       <use xlink:href="#DejaVuSans-36" x="95.410156"/>
      </g>
     </g>
    </g>
    <g id="ytick_5">
     <g id="line2d_5">
      <path d="M 69.3625 149.03192 
L 850.5625 149.03192 
" clip-path="url(#pbf80f55bdc)" style="fill: none; stroke: #cccccc; stroke-width: 0.8; stroke-linecap: round"/>
     </g>
     <g id="text_14">
      <!-- 0.8 -->
      <g style="fill: #262626" transform="translate(30.55625 156.630358) scale(0.2 -0.2)">
       <defs>
        <path id="DejaVuSans-38" d="M 2034 2216 
Q 1584 2216 1326 1975 
Q 1069 1734 1069 1313 
Q 1069 891 1326 650 
Q 1584 409 2034 409 
Q 2484 409 2743 651 
Q 3003 894 3003 1313 
Q 3003 1734 2745 1975 
Q 2488 2216 2034 2216 
z
M 1403 2484 
Q 997 2584 770 2862 
Q 544 3141 544 3541 
Q 544 4100 942 4425 
Q 1341 4750 2034 4750 
Q 2731 4750 3128 4425 
Q 3525 4100 3525 3541 
Q 3525 3141 3298 2862 
Q 3072 2584 2669 2484 
Q 3125 2378 3379 2068 
Q 3634 1759 3634 1313 
Q 3634 634 3220 271 
Q 2806 -91 2034 -91 
Q 1263 -91 848 271 
Q 434 634 434 1313 
Q 434 1759 690 2068 
Q 947 2378 1403 2484 
z
M 1172 3481 
Q 1172 3119 1398 2916 
Q 1625 2713 2034 2713 
Q 2441 2713 2670 2916 
Q 2900 3119 2900 3481 
Q 2900 3844 2670 4047 
Q 2441 4250 2034 4250 
Q 1625 4250 1398 4047 
Q 1172 3844 1172 3481 
z
" transform="scale(0.015625)"/>
       </defs>
       <use xlink:href="#DejaVuSans-30"/>
       <use xlink:href="#DejaVuSans-2e" x="63.623047"/>
       <use xlink:href="#DejaVuSans-38" x="95.410156"/>
      </g>
     </g>
    </g>
    <g id="ytick_6">
     <g id="line2d_6">
      <path d="M 69.3625 61.119664 
L 850.5625 61.119664 
" clip-path="url(#pbf80f55bdc)" style="fill: none; stroke: #cccccc; stroke-width: 0.8; stroke-linecap: round"/>
     </g>
     <g id="text_15">
      <!-- 1.0 -->
      <g style="fill: #262626" transform="translate(30.55625 68.718102) scale(0.2 -0.2)">
       <use xlink:href="#DejaVuSans-31"/>
       <use xlink:href="#DejaVuSans-2e" x="63.623047"/>
       <use xlink:href="#DejaVuSans-30" x="95.410156"/>
      </g>
     </g>
    </g>
    <g id="text_16">
     <!-- lDDT $\uparrow$ -->
     <g style="fill: #262626" transform="translate(22.396875 324.2) rotate(-90) scale(0.2 -0.2)">
      <defs>
       <path id="DejaVuSans-44" d="M 1259 4147 
L 1259 519 
L 2022 519 
Q 2988 519 3436 956 
Q 3884 1394 3884 2338 
Q 3884 3275 3436 3711 
Q 2988 4147 2022 4147 
L 1259 4147 
z
M 628 4666 
L 1925 4666 
Q 3281 4666 3915 4102 
Q 4550 3538 4550 2338 
Q 4550 1131 3912 565 
Q 3275 0 1925 0 
L 628 0 
L 628 4666 
z
" transform="scale(0.015625)"/>
       <path id="DejaVuSans-54" d="M -19 4666 
L 3928 4666 
L 3928 4134 
L 2272 4134 
L 2272 0 
L 1638 0 
L 1638 4134 
L -19 4134 
L -19 4666 
z
" transform="scale(0.015625)"/>
       <path id="DejaVuSans-2191" d="M 2541 4688 
L 2822 4688 
L 4047 3456 
L 3672 3081 
L 2947 3813 
L 2947 0 
L 2416 0 
L 2416 3813 
L 1684 3081 
L 1309 3456 
L 2541 4688 
z
" transform="scale(0.015625)"/>
      </defs>
      <use xlink:href="#DejaVuSans-6c" transform="translate(0 0.015625)"/>
      <use xlink:href="#DejaVuSans-44" transform="translate(27.783203 0.015625)"/>
      <use xlink:href="#DejaVuSans-44" transform="translate(104.785156 0.015625)"/>
      <use xlink:href="#DejaVuSans-54" transform="translate(181.787109 0.015625)"/>
      <use xlink:href="#DejaVuSans-20" transform="translate(242.871094 0.015625)"/>
      <use xlink:href="#DejaVuSans-2191" transform="translate(294.140625 0.015625)"/>
     </g>
    </g>
   </g>
   <g id="PolyCollection_1">
    <defs>
     <path id="mde5ebafeec" d="M 118.360416 -363.185965 
L 118.014584 -363.185965 
L 117.941491 -366.215262 
L 117.847307 -369.244559 
L 117.730207 -372.273856 
L 117.589917 -375.303153 
L 117.428249 -378.33245 
L 117.24947 -381.361747 
L 117.06038 -384.391044 
L 116.87 -387.420341 
L 116.68885 -390.449638 
L 116.527845 -393.478935 
L 116.39697 -396.508232 
L 116.30393 -399.537528 
L 116.253024 -402.566825 
L 116.244482 -405.596122 
L 116.274411 -408.625419 
L 116.335408 -411.654716 
L 116.417739 -414.684013 
L 116.510893 -417.71331 
L 116.605206 -420.742607 
L 116.69327 -423.771904 
L 116.770852 -426.801201 
L 116.837183 -429.830498 
L 116.894596 -432.859795 
L 116.947621 -435.889092 
L 117.001759 -438.918388 
L 117.062198 -441.947685 
L 117.132727 -444.976982 
L 117.215027 -448.006279 
L 117.308441 -451.035576 
L 117.410175 -454.064873 
L 117.515836 -457.09417 
L 117.620113 -460.123467 
L 117.717438 -463.152764 
L 117.802471 -466.182061 
L 117.870318 -469.211358 
L 117.916466 -472.240655 
L 117.936495 -475.269951 
L 117.925656 -478.299248 
L 117.878448 -481.328545 
L 117.788315 -484.357842 
L 117.647577 -487.387139 
L 117.447655 -490.416436 
L 117.179589 -493.445733 
L 116.834822 -496.47503 
L 116.406114 -499.504327 
L 115.888444 -502.533624 
L 115.279714 -505.562921 
L 114.581089 -508.592218 
L 113.796855 -511.621514 
L 112.933751 -514.650811 
L 111.999842 -517.680108 
L 111.003106 -520.709405 
L 109.949959 -523.738702 
L 108.844022 -526.767999 
L 107.685392 -529.797296 
L 106.470636 -532.826593 
L 105.193598 -535.85589 
L 103.846975 -538.885187 
L 102.424466 -541.914484 
L 100.923112 -544.943781 
L 99.345386 -547.973078 
L 97.700544 -551.002374 
L 96.004843 -554.031671 
L 94.280452 -557.060968 
L 92.553177 -560.090265 
L 90.849458 -563.119562 
L 89.19336 -566.148859 
L 87.604404 -569.178156 
L 86.096958 -572.207453 
L 84.681596 -575.23675 
L 83.368323 -578.266047 
L 82.171025 -581.295344 
L 81.112071 -584.324641 
L 80.225785 -587.353937 
L 79.559585 -590.383234 
L 79.172015 -593.412531 
L 79.1275 -596.441828 
L 79.488381 -599.471125 
L 80.305421 -602.500422 
L 81.608436 -605.529719 
L 83.398757 -608.559016 
L 85.645042 -611.588313 
L 88.283329 -614.61761 
L 91.221509 -617.646907 
L 94.347554 -620.676204 
L 97.540223 -623.7055 
L 100.680523 -626.734797 
L 103.662228 -629.764094 
L 106.400005 -632.793391 
L 108.834264 -635.822688 
L 110.932482 -638.851985 
L 112.68737 -641.881282 
L 114.112658 -644.910579 
L 115.237542 -647.939876 
L 116.100769 -650.969173 
L 116.74522 -653.99847 
L 117.213502 -657.027767 
L 117.544836 -660.057064 
L 117.773198 -663.08636 
L 118.601802 -663.08636 
L 118.601802 -663.08636 
L 118.830164 -660.057064 
L 119.161498 -657.027767 
L 119.62978 -653.99847 
L 120.274231 -650.969173 
L 121.137458 -647.939876 
L 122.262342 -644.910579 
L 123.68763 -641.881282 
L 125.442518 -638.851985 
L 127.540736 -635.822688 
L 129.974995 -632.793391 
L 132.712772 -629.764094 
L 135.694477 -626.734797 
L 138.834777 -623.7055 
L 142.027446 -620.676204 
L 145.153491 -617.646907 
L 148.091671 -614.61761 
L 150.729958 -611.588313 
L 152.976243 -608.559016 
L 154.766564 -605.529719 
L 156.069579 -602.500422 
L 156.886619 -599.471125 
L 157.2475 -596.441828 
L 157.202985 -593.412531 
L 156.815415 -590.383234 
L 156.149215 -587.353937 
L 155.262929 -584.324641 
L 154.203975 -581.295344 
L 153.006677 -578.266047 
L 151.693404 -575.23675 
L 150.278042 -572.207453 
L 148.770596 -569.178156 
L 147.18164 -566.148859 
L 145.525542 -563.119562 
L 143.821823 -560.090265 
L 142.094548 -557.060968 
L 140.370157 -554.031671 
L 138.674456 -551.002374 
L 137.029614 -547.973078 
L 135.451888 -544.943781 
L 133.950534 -541.914484 
L 132.528025 -538.885187 
L 131.181402 -535.85589 
L 129.904364 -532.826593 
L 128.689608 -529.797296 
L 127.530978 -526.767999 
L 126.425041 -523.738702 
L 125.371894 -520.709405 
L 124.375158 -517.680108 
L 123.441249 -514.650811 
L 122.578145 -511.621514 
L 121.793911 -508.592218 
L 121.095286 -505.562921 
L 120.486556 -502.533624 
L 119.968886 -499.504327 
L 119.540178 -496.47503 
L 119.195411 -493.445733 
L 118.927345 -490.416436 
L 118.727423 -487.387139 
L 118.586685 -484.357842 
L 118.496552 -481.328545 
L 118.449344 -478.299248 
L 118.438505 -475.269951 
L 118.458534 -472.240655 
L 118.504682 -469.211358 
L 118.572529 -466.182061 
L 118.657562 -463.152764 
L 118.754887 -460.123467 
L 118.859164 -457.09417 
L 118.964825 -454.064873 
L 119.066559 -451.035576 
L 119.159973 -448.006279 
L 119.242273 -444.976982 
L 119.312802 -441.947685 
L 119.373241 -438.918388 
L 119.427379 -435.889092 
L 119.480404 -432.859795 
L 119.537817 -429.830498 
L 119.604148 -426.801201 
L 119.68173 -423.771904 
L 119.769794 -420.742607 
L 119.864107 -417.71331 
L 119.957261 -414.684013 
L 120.039592 -411.654716 
L 120.100589 -408.625419 
L 120.130518 -405.596122 
L 120.121976 -402.566825 
L 120.07107 -399.537528 
L 119.97803 -396.508232 
L 119.847155 -393.478935 
L 119.68615 -390.449638 
L 119.505 -387.420341 
L 119.31462 -384.391044 
L 119.12553 -381.361747 
L 118.946751 -378.33245 
L 118.785083 -375.303153 
L 118.644793 -372.273856 
L 118.527693 -369.244559 
L 118.433509 -366.215262 
L 118.360416 -363.185965 
z
" style="stroke: #3d3d3d; stroke-opacity: 0.5"/>
    </defs>
    <g clip-path="url(#pbf80f55bdc)">
     <use xlink:href="#mde5ebafeec" x="0" y="711.060318" style="fill: #d684bd; fill-opacity: 0.5; stroke: #3d3d3d; stroke-opacity: 0.5"/>
    </g>
   </g>
   <g id="PolyCollection_2">
    <defs>
     <path id="m37a8e7fbe8" d="M 216.381952 -238.738526 
L 215.293048 -238.738526 
L 215.051534 -242.33098 
L 214.7248 -245.923435 
L 214.292283 -249.515889 
L 213.731997 -253.108344 
L 213.021677 -256.700798 
L 212.140255 -260.293252 
L 211.069591 -263.885707 
L 209.796312 -267.478161 
L 208.313572 -271.070616 
L 206.622518 -274.66307 
L 204.733262 -278.255525 
L 202.665192 -281.847979 
L 200.446542 -285.440434 
L 198.113241 -289.032888 
L 195.707159 -292.625343 
L 193.273976 -296.217797 
L 190.860954 -299.810252 
L 188.514906 -303.402706 
L 186.280614 -306.995161 
L 184.199851 -310.587615 
L 182.311013 -314.18007 
L 180.649251 -317.772524 
L 179.246837 -321.364979 
L 178.133433 -324.957433 
L 177.335968 -328.549888 
L 176.877857 -332.142342 
L 176.7775 -335.734797 
L 177.046177 -339.327251 
L 177.685628 -342.919706 
L 178.685784 -346.51216 
L 180.023121 -350.104615 
L 181.660097 -353.697069 
L 183.545954 -357.289523 
L 185.618944 -360.881978 
L 187.809823 -364.474432 
L 190.046209 -368.066887 
L 192.257302 -371.659341 
L 194.378397 -375.251796 
L 196.354689 -378.84425 
L 198.144024 -382.436705 
L 199.718401 -386.029159 
L 201.064233 -389.621614 
L 202.18151 -393.214068 
L 203.082107 -396.806523 
L 203.787527 -400.398977 
L 204.326328 -403.991432 
L 204.7315 -407.583886 
L 205.037931 -411.176341 
L 205.280132 -414.768795 
L 205.490288 -418.36125 
L 205.696706 -421.953704 
L 205.92271 -425.546159 
L 206.185975 -429.138613 
L 206.498319 -432.731068 
L 206.865879 -436.323522 
L 207.289626 -439.915977 
L 207.766118 -443.508431 
L 208.288374 -447.100886 
L 208.846806 -450.69334 
L 209.430086 -454.285794 
L 210.025922 -457.878249 
L 210.621703 -461.470703 
L 211.204997 -465.063158 
L 211.763945 -468.655612 
L 212.287543 -472.248067 
L 212.76587 -475.840521 
L 213.190281 -479.432976 
L 213.553592 -483.02543 
L 213.850274 -486.617885 
L 214.076671 -490.210339 
L 214.231238 -493.802794 
L 214.314773 -497.395248 
L 214.330634 -500.987703 
L 214.284869 -504.580157 
L 214.186227 -508.172612 
L 214.045988 -511.765066 
L 213.877571 -515.357521 
L 213.69591 -518.949975 
L 213.516604 -522.54243 
L 213.354909 -526.134884 
L 213.224657 -529.727339 
L 213.137229 -533.319793 
L 213.100695 -536.912248 
L 213.119245 -540.504702 
L 213.192985 -544.097156 
L 213.318121 -547.689611 
L 213.487516 -551.282065 
L 213.691534 -554.87452 
L 213.919065 -558.466974 
L 214.15859 -562.059429 
L 214.399171 -565.651883 
L 214.631257 -569.244338 
L 214.847232 -572.836792 
L 215.041697 -576.429247 
L 215.211485 -580.021701 
L 215.355464 -583.614156 
L 215.474193 -587.20661 
L 215.569489 -590.799065 
L 215.643993 -594.391519 
L 216.031007 -594.391519 
L 216.031007 -594.391519 
L 216.105511 -590.799065 
L 216.200807 -587.20661 
L 216.319536 -583.614156 
L 216.463515 -580.021701 
L 216.633303 -576.429247 
L 216.827768 -572.836792 
L 217.043743 -569.244338 
L 217.275829 -565.651883 
L 217.51641 -562.059429 
L 217.755935 -558.466974 
L 217.983466 -554.87452 
L 218.187484 -551.282065 
L 218.356879 -547.689611 
L 218.482015 -544.097156 
L 218.555755 -540.504702 
L 218.574305 -536.912248 
L 218.537771 -533.319793 
L 218.450343 -529.727339 
L 218.320091 -526.134884 
L 218.158396 -522.54243 
L 217.97909 -518.949975 
L 217.797429 -515.357521 
L 217.629012 -511.765066 
L 217.488773 -508.172612 
L 217.390131 -504.580157 
L 217.344366 -500.987703 
L 217.360227 -497.395248 
L 217.443762 -493.802794 
L 217.598329 -490.210339 
L 217.824726 -486.617885 
L 218.121408 -483.02543 
L 218.484719 -479.432976 
L 218.90913 -475.840521 
L 219.387457 -472.248067 
L 219.911055 -468.655612 
L 220.470003 -465.063158 
L 221.053297 -461.470703 
L 221.649078 -457.878249 
L 222.244914 -454.285794 
L 222.828194 -450.69334 
L 223.386626 -447.100886 
L 223.908882 -443.508431 
L 224.385374 -439.915977 
L 224.809121 -436.323522 
L 225.176681 -432.731068 
L 225.489025 -429.138613 
L 225.75229 -425.546159 
L 225.978294 -421.953704 
L 226.184712 -418.36125 
L 226.394868 -414.768795 
L 226.637069 -411.176341 
L 226.9435 -407.583886 
L 227.348672 -403.991432 
L 227.887473 -400.398977 
L 228.592893 -396.806523 
L 229.49349 -393.214068 
L 230.610767 -389.621614 
L 231.956599 -386.029159 
L 233.530976 -382.436705 
L 235.320311 -378.84425 
L 237.296603 -375.251796 
L 239.417698 -371.659341 
L 241.628791 -368.066887 
L 243.865177 -364.474432 
L 246.056056 -360.881978 
L 248.129046 -357.289523 
L 250.014903 -353.697069 
L 251.651879 -350.104615 
L 252.989216 -346.51216 
L 253.989372 -342.919706 
L 254.628823 -339.327251 
L 254.8975 -335.734797 
L 254.797143 -332.142342 
L 254.339032 -328.549888 
L 253.541567 -324.957433 
L 252.428163 -321.364979 
L 251.025749 -317.772524 
L 249.363987 -314.18007 
L 247.475149 -310.587615 
L 245.394386 -306.995161 
L 243.160094 -303.402706 
L 240.814046 -299.810252 
L 238.401024 -296.217797 
L 235.967841 -292.625343 
L 233.561759 -289.032888 
L 231.228458 -285.440434 
L 229.009808 -281.847979 
L 226.941738 -278.255525 
L 225.052482 -274.66307 
L 223.361428 -271.070616 
L 221.878688 -267.478161 
L 220.605409 -263.885707 
L 219.534745 -260.293252 
L 218.653323 -256.700798 
L 217.943003 -253.108344 
L 217.382717 -249.515889 
L 216.9502 -245.923435 
L 216.623466 -242.33098 
L 216.381952 -238.738526 
z
" style="stroke: #3d3d3d; stroke-opacity: 0.5"/>
    </defs>
    <g clip-path="url(#pbf80f55bdc)">
     <use xlink:href="#m37a8e7fbe8" x="0" y="711.060318" style="fill: #7f7f7f; fill-opacity: 0.5; stroke: #3d3d3d; stroke-opacity: 0.5"/>
    </g>
   </g>
   <g id="PolyCollection_3">
    <defs>
     <path id="mfd772476fa" d="M 313.64682 -494.569741 
L 313.32818 -494.569741 
L 313.259641 -494.685771 
L 313.172876 -494.801801 
L 313.068062 -494.917831 
L 312.947585 -495.033861 
L 312.816351 -495.149892 
L 312.681675 -495.265922 
L 312.552634 -495.381952 
L 312.438889 -495.497982 
L 312.349098 -495.614012 
L 312.289188 -495.730042 
L 312.260808 -495.846072 
L 312.260296 -495.962102 
L 312.278408 -496.078132 
L 312.300896 -496.194162 
L 312.309881 -496.310193 
L 312.285777 -496.426223 
L 312.209425 -496.542253 
L 312.064066 -496.658283 
L 311.836762 -496.774313 
L 311.518983 -496.890343 
L 311.106193 -497.006373 
L 310.596448 -497.122403 
L 309.988234 -497.238433 
L 309.277984 -497.354463 
L 308.457881 -497.470494 
L 307.514584 -497.586524 
L 306.429456 -497.702554 
L 305.180564 -497.818584 
L 303.746381 -497.934614 
L 302.110663 -498.050644 
L 300.267635 -498.166674 
L 298.226428 -498.282704 
L 296.013736 -498.398734 
L 293.67395 -498.514764 
L 291.266456 -498.630795 
L 288.860379 -498.746825 
L 286.527538 -498.862855 
L 284.334803 -498.978885 
L 282.337152 -499.094915 
L 280.572643 -499.210945 
L 279.060117 -499.326975 
L 277.799928 -499.443005 
L 276.777469 -499.559035 
L 275.968757 -499.675066 
L 275.347091 -499.791096 
L 274.889678 -499.907126 
L 274.5832 -500.023156 
L 274.4275 -500.139186 
L 274.436809 -500.255216 
L 274.63825 -500.371246 
L 275.067702 -500.487276 
L 275.763484 -500.603306 
L 276.758678 -500.719336 
L 278.07326 -500.835367 
L 279.707377 -500.951397 
L 281.637059 -501.067427 
L 283.813412 -501.183457 
L 286.165733 -501.299487 
L 288.60835 -501.415517 
L 291.050178 -501.531547 
L 293.405447 -501.647577 
L 295.603666 -501.763607 
L 297.597006 -501.879637 
L 299.363741 -501.995668 
L 300.90717 -502.111698 
L 302.250411 -502.227728 
L 303.428312 -502.343758 
L 304.478306 -502.459788 
L 305.432196 -502.575818 
L 306.310505 -502.691848 
L 307.120355 -502.807878 
L 307.856943 -502.923908 
L 308.50784 -503.039939 
L 309.05878 -503.155969 
L 309.499374 -503.271999 
L 309.827383 -503.388029 
L 310.050697 -503.504059 
L 310.186777 -503.620089 
L 310.260002 -503.736119 
L 310.29775 -503.852149 
L 310.326285 -503.968179 
L 310.367379 -504.084209 
L 310.43627 -504.20024 
L 310.541136 -504.31627 
L 310.683854 -504.4323 
L 310.861529 -504.54833 
L 311.068234 -504.66436 
L 311.296518 -504.78039 
L 311.538432 -504.89642 
L 311.786103 -505.01245 
L 312.031999 -505.12848 
L 312.269098 -505.24451 
L 312.491109 -505.360541 
L 312.692784 -505.476571 
L 312.87027 -505.592601 
L 313.021375 -505.708631 
L 313.145665 -505.824661 
L 313.244332 -505.940691 
L 313.319865 -506.056721 
L 313.655135 -506.056721 
L 313.655135 -506.056721 
L 313.730668 -505.940691 
L 313.829335 -505.824661 
L 313.953625 -505.708631 
L 314.10473 -505.592601 
L 314.282216 -505.476571 
L 314.483891 -505.360541 
L 314.705902 -505.24451 
L 314.943001 -505.12848 
L 315.188897 -505.01245 
L 315.436568 -504.89642 
L 315.678482 -504.78039 
L 315.906766 -504.66436 
L 316.113471 -504.54833 
L 316.291146 -504.4323 
L 316.433864 -504.31627 
L 316.53873 -504.20024 
L 316.607621 -504.084209 
L 316.648715 -503.968179 
L 316.67725 -503.852149 
L 316.714998 -503.736119 
L 316.788223 -503.620089 
L 316.924303 -503.504059 
L 317.147617 -503.388029 
L 317.475626 -503.271999 
L 317.91622 -503.155969 
L 318.46716 -503.039939 
L 319.118057 -502.923908 
L 319.854645 -502.807878 
L 320.664495 -502.691848 
L 321.542804 -502.575818 
L 322.496694 -502.459788 
L 323.546688 -502.343758 
L 324.724589 -502.227728 
L 326.06783 -502.111698 
L 327.611259 -501.995668 
L 329.377994 -501.879637 
L 331.371334 -501.763607 
L 333.569553 -501.647577 
L 335.924822 -501.531547 
L 338.36665 -501.415517 
L 340.809267 -501.299487 
L 343.161588 -501.183457 
L 345.337941 -501.067427 
L 347.267623 -500.951397 
L 348.90174 -500.835367 
L 350.216322 -500.719336 
L 351.211516 -500.603306 
L 351.907298 -500.487276 
L 352.33675 -500.371246 
L 352.538191 -500.255216 
L 352.5475 -500.139186 
L 352.3918 -500.023156 
L 352.085322 -499.907126 
L 351.627909 -499.791096 
L 351.006243 -499.675066 
L 350.197531 -499.559035 
L 349.175072 -499.443005 
L 347.914883 -499.326975 
L 346.402357 -499.210945 
L 344.637848 -499.094915 
L 342.640197 -498.978885 
L 340.447462 -498.862855 
L 338.114621 -498.746825 
L 335.708544 -498.630795 
L 333.30105 -498.514764 
L 330.961264 -498.398734 
L 328.748572 -498.282704 
L 326.707365 -498.166674 
L 324.864337 -498.050644 
L 323.228619 -497.934614 
L 321.794436 -497.818584 
L 320.545544 -497.702554 
L 319.460416 -497.586524 
L 318.517119 -497.470494 
L 317.697016 -497.354463 
L 316.986766 -497.238433 
L 316.378552 -497.122403 
L 315.868807 -497.006373 
L 315.456017 -496.890343 
L 315.138238 -496.774313 
L 314.910934 -496.658283 
L 314.765575 -496.542253 
L 314.689223 -496.426223 
L 314.665119 -496.310193 
L 314.674104 -496.194162 
L 314.696592 -496.078132 
L 314.714704 -495.962102 
L 314.714192 -495.846072 
L 314.685812 -495.730042 
L 314.625902 -495.614012 
L 314.536111 -495.497982 
L 314.422366 -495.381952 
L 314.293325 -495.265922 
L 314.158649 -495.149892 
L 314.027415 -495.033861 
L 313.906938 -494.917831 
L 313.802124 -494.801801 
L 313.715359 -494.685771 
L 313.64682 -494.569741 
z
" style="stroke: #3d3d3d; stroke-opacity: 0.5"/>
    </defs>
    <g clip-path="url(#pbf80f55bdc)">
     <use xlink:href="#mfd772476fa" x="0" y="711.060318" style="fill: #9372b2; fill-opacity: 0.5; stroke: #3d3d3d; stroke-opacity: 0.5"/>
    </g>
   </g>
   <g id="PolyCollection_4">
    <defs>
     <path id="m240fa5045f" d="M 411.281758 -464.498738 
L 410.993242 -464.498738 
L 410.932947 -466.307263 
L 410.857002 -468.115788 
L 410.765525 -469.924312 
L 410.660459 -471.732837 
L 410.545862 -473.541362 
L 410.427896 -475.349887 
L 410.314435 -477.158412 
L 410.214266 -478.966937 
L 410.136003 -480.775462 
L 410.086872 -482.583987 
L 410.071606 -484.392512 
L 410.091688 -486.201037 
L 410.145094 -488.009562 
L 410.226602 -489.818087 
L 410.328573 -491.626611 
L 410.442036 -493.435136 
L 410.557826 -495.243661 
L 410.667535 -497.052186 
L 410.764108 -498.860711 
L 410.842007 -500.669236 
L 410.896965 -502.477761 
L 410.925451 -504.286286 
L 410.924012 -506.094811 
L 410.888661 -507.903336 
L 410.814469 -509.711861 
L 410.695462 -511.520386 
L 410.524845 -513.328911 
L 410.295513 -515.137435 
L 410.000741 -516.94596 
L 409.634886 -518.754485 
L 409.193971 -520.56301 
L 408.676026 -522.371535 
L 408.081201 -524.18006 
L 407.411738 -525.988585 
L 406.671992 -527.79711 
L 405.868713 -529.605635 
L 405.011676 -531.41416 
L 404.11459 -533.222685 
L 403.195977 -535.03121 
L 402.279499 -536.839735 
L 401.39322 -538.648259 
L 400.567387 -540.456784 
L 399.830731 -542.265309 
L 399.205682 -544.073834 
L 398.703387 -545.882359 
L 398.319602 -547.690884 
L 398.032511 -549.499409 
L 397.803171 -551.307934 
L 397.578715 -553.116459 
L 397.297887 -554.924984 
L 396.89796 -556.733509 
L 396.321911 -558.542034 
L 395.524749 -560.350558 
L 394.478177 -562.159083 
L 393.173175 -563.967608 
L 391.620446 -565.776133 
L 389.849005 -567.584658 
L 387.903315 -569.393183 
L 385.839487 -571.201708 
L 383.721021 -573.010233 
L 381.614563 -574.818758 
L 379.586117 -576.627283 
L 377.698061 -578.435808 
L 376.007244 -580.244333 
L 374.564204 -582.052858 
L 373.413331 -583.861382 
L 372.593521 -585.669907 
L 372.138691 -587.478432 
L 372.0775 -589.286957 
L 372.431819 -591.095482 
L 373.213894 -592.904007 
L 374.422632 -594.712532 
L 376.039889 -596.521057 
L 378.027888 -598.329582 
L 380.328803 -600.138107 
L 382.867154 -601.946632 
L 385.555001 -603.755157 
L 388.299284 -605.563681 
L 391.010082 -607.372206 
L 393.60837 -609.180731 
L 396.031969 -610.989256 
L 398.238832 -612.797781 
L 400.207397 -614.606306 
L 401.934352 -616.414831 
L 403.430575 -618.223356 
L 404.716246 -620.031881 
L 405.816061 -621.840406 
L 406.755278 -623.648931 
L 407.55699 -625.457456 
L 408.240702 -627.265981 
L 408.822034 -629.074505 
L 409.313225 -630.88303 
L 409.724056 -632.691555 
L 410.062842 -634.50008 
L 410.337265 -636.308605 
L 410.554906 -638.11713 
L 410.723447 -639.925655 
L 410.850611 -641.73418 
L 410.943925 -643.542705 
L 411.331075 -643.542705 
L 411.331075 -643.542705 
L 411.424389 -641.73418 
L 411.551553 -639.925655 
L 411.720094 -638.11713 
L 411.937735 -636.308605 
L 412.212158 -634.50008 
L 412.550944 -632.691555 
L 412.961775 -630.88303 
L 413.452966 -629.074505 
L 414.034298 -627.265981 
L 414.71801 -625.457456 
L 415.519722 -623.648931 
L 416.458939 -621.840406 
L 417.558754 -620.031881 
L 418.844425 -618.223356 
L 420.340648 -616.414831 
L 422.067603 -614.606306 
L 424.036168 -612.797781 
L 426.243031 -610.989256 
L 428.66663 -609.180731 
L 431.264918 -607.372206 
L 433.975716 -605.563681 
L 436.719999 -603.755157 
L 439.407846 -601.946632 
L 441.946197 -600.138107 
L 444.247112 -598.329582 
L 446.235111 -596.521057 
L 447.852368 -594.712532 
L 449.061106 -592.904007 
L 449.843181 -591.095482 
L 450.1975 -589.286957 
L 450.136309 -587.478432 
L 449.681479 -585.669907 
L 448.861669 -583.861382 
L 447.710796 -582.052858 
L 446.267756 -580.244333 
L 444.576939 -578.435808 
L 442.688883 -576.627283 
L 440.660437 -574.818758 
L 438.553979 -573.010233 
L 436.435513 -571.201708 
L 434.371685 -569.393183 
L 432.425995 -567.584658 
L 430.654554 -565.776133 
L 429.101825 -563.967608 
L 427.796823 -562.159083 
L 426.750251 -560.350558 
L 425.953089 -558.542034 
L 425.37704 -556.733509 
L 424.977113 -554.924984 
L 424.696285 -553.116459 
L 424.471829 -551.307934 
L 424.242489 -549.499409 
L 423.955398 -547.690884 
L 423.571613 -545.882359 
L 423.069318 -544.073834 
L 422.444269 -542.265309 
L 421.707613 -540.456784 
L 420.88178 -538.648259 
L 419.995501 -536.839735 
L 419.079023 -535.03121 
L 418.16041 -533.222685 
L 417.263324 -531.41416 
L 416.406287 -529.605635 
L 415.603008 -527.79711 
L 414.863262 -525.988585 
L 414.193799 -524.18006 
L 413.598974 -522.371535 
L 413.081029 -520.56301 
L 412.640114 -518.754485 
L 412.274259 -516.94596 
L 411.979487 -515.137435 
L 411.750155 -513.328911 
L 411.579538 -511.520386 
L 411.460531 -509.711861 
L 411.386339 -507.903336 
L 411.350988 -506.094811 
L 411.349549 -504.286286 
L 411.378035 -502.477761 
L 411.432993 -500.669236 
L 411.510892 -498.860711 
L 411.607465 -497.052186 
L 411.717174 -495.243661 
L 411.832964 -493.435136 
L 411.946427 -491.626611 
L 412.048398 -489.818087 
L 412.129906 -488.009562 
L 412.183312 -486.201037 
L 412.203394 -484.392512 
L 412.188128 -482.583987 
L 412.138997 -480.775462 
L 412.060734 -478.966937 
L 411.960565 -477.158412 
L 411.847104 -475.349887 
L 411.729138 -473.541362 
L 411.614541 -471.732837 
L 411.509475 -469.924312 
L 411.417998 -468.115788 
L 411.342053 -466.307263 
L 411.281758 -464.498738 
z
" style="stroke: #3d3d3d; stroke-opacity: 0.5"/>
    </defs>
    <g clip-path="url(#pbf80f55bdc)">
     <use xlink:href="#m240fa5045f" x="0" y="711.060318" style="fill: #845b53; fill-opacity: 0.5; stroke: #3d3d3d; stroke-opacity: 0.5"/>
    </g>
   </g>
   <g id="PolyCollection_5">
    <defs>
     <path id="mb92932821d" d="M 508.971821 -237.625306 
L 508.603179 -237.625306 
L 508.524295 -238.773474 
L 508.422225 -239.921642 
L 508.294739 -241.06981 
L 508.141211 -242.217978 
L 507.963219 -243.366146 
L 507.764995 -244.514315 
L 507.553609 -245.662483 
L 507.338779 -246.810651 
L 507.132271 -247.958819 
L 506.946912 -249.106987 
L 506.795308 -250.255155 
L 506.68846 -251.403323 
L 506.634463 -252.551492 
L 506.637506 -253.69966 
L 506.697348 -254.847828 
L 506.809346 -255.995996 
L 506.965033 -257.144164 
L 507.15315 -258.292332 
L 507.360959 -259.4405 
L 507.575613 -260.588669 
L 507.785386 -261.736837 
L 507.980592 -262.885005 
L 508.154095 -264.033173 
L 508.301389 -265.181341 
L 508.420315 -266.329509 
L 508.510499 -267.477677 
L 508.57267 -268.625846 
L 508.607972 -269.774014 
L 508.617385 -270.922182 
L 508.60133 -272.07035 
L 508.559476 -273.218518 
L 508.490723 -274.366686 
L 508.393302 -275.514855 
L 508.264879 -276.663023 
L 508.102568 -277.811191 
L 507.902731 -278.959359 
L 507.660537 -280.107527 
L 507.36929 -281.255695 
L 507.019673 -282.403863 
L 506.599107 -283.552032 
L 506.091544 -284.7002 
L 505.477956 -285.848368 
L 504.737727 -286.996536 
L 503.850967 -288.144704 
L 502.801522 -289.292872 
L 501.580217 -290.44104 
L 500.18771 -291.589209 
L 498.63625 -292.737377 
L 496.949811 -293.885545 
L 495.162331 -295.033713 
L 493.314209 -296.181881 
L 491.447617 -297.330049 
L 489.601477 -298.478217 
L 487.80709 -299.626386 
L 486.085225 -300.774554 
L 484.445209 -301.922722 
L 482.886054 -303.07089 
L 481.399299 -304.219058 
L 479.97291 -305.367226 
L 478.595473 -306.515394 
L 477.260003 -307.663563 
L 475.966828 -308.811731 
L 474.725265 -309.959899 
L 473.553935 -311.108067 
L 472.479738 -312.256235 
L 471.535581 -313.404403 
L 470.757067 -314.552571 
L 470.178499 -315.70074 
L 469.828731 -316.848908 
L 469.7275 -317.997076 
L 469.882947 -319.145244 
L 470.290849 -320.293412 
L 470.935799 -321.44158 
L 471.794159 -322.589748 
L 472.838164 -323.737917 
L 474.040307 -324.886085 
L 475.377062 -326.034253 
L 476.831173 -327.182421 
L 478.392113 -328.330589 
L 480.054763 -329.478757 
L 481.816733 -330.626926 
L 483.675015 -331.775094 
L 485.622707 -332.923262 
L 487.646464 -334.07143 
L 489.725115 -335.219598 
L 491.82966 -336.367766 
L 493.924589 -337.515934 
L 495.970321 -338.664103 
L 497.92637 -339.812271 
L 499.754792 -340.960439 
L 501.423425 -342.108607 
L 502.908477 -343.256775 
L 504.196131 -344.404943 
L 505.282988 -345.553111 
L 506.175373 -346.70128 
L 506.887691 -347.849448 
L 507.440165 -348.997616 
L 507.856341 -350.145784 
L 508.160716 -351.293952 
L 509.414284 -351.293952 
L 509.414284 -351.293952 
L 509.718659 -350.145784 
L 510.134835 -348.997616 
L 510.687309 -347.849448 
L 511.399627 -346.70128 
L 512.292012 -345.553111 
L 513.378869 -344.404943 
L 514.666523 -343.256775 
L 516.151575 -342.108607 
L 517.820208 -340.960439 
L 519.64863 -339.812271 
L 521.604679 -338.664103 
L 523.650411 -337.515934 
L 525.74534 -336.367766 
L 527.849885 -335.219598 
L 529.928536 -334.07143 
L 531.952293 -332.923262 
L 533.899985 -331.775094 
L 535.758267 -330.626926 
L 537.520237 -329.478757 
L 539.182887 -328.330589 
L 540.743827 -327.182421 
L 542.197938 -326.034253 
L 543.534693 -324.886085 
L 544.736836 -323.737917 
L 545.780841 -322.589748 
L 546.639201 -321.44158 
L 547.284151 -320.293412 
L 547.692053 -319.145244 
L 547.8475 -317.997076 
L 547.746269 -316.848908 
L 547.396501 -315.70074 
L 546.817933 -314.552571 
L 546.039419 -313.404403 
L 545.095262 -312.256235 
L 544.021065 -311.108067 
L 542.849735 -309.959899 
L 541.608172 -308.811731 
L 540.314997 -307.663563 
L 538.979527 -306.515394 
L 537.60209 -305.367226 
L 536.175701 -304.219058 
L 534.688946 -303.07089 
L 533.129791 -301.922722 
L 531.489775 -300.774554 
L 529.76791 -299.626386 
L 527.973523 -298.478217 
L 526.127383 -297.330049 
L 524.260791 -296.181881 
L 522.412669 -295.033713 
L 520.625189 -293.885545 
L 518.93875 -292.737377 
L 517.38729 -291.589209 
L 515.994783 -290.44104 
L 514.773478 -289.292872 
L 513.724033 -288.144704 
L 512.837273 -286.996536 
L 512.097044 -285.848368 
L 511.483456 -284.7002 
L 510.975893 -283.552032 
L 510.555327 -282.403863 
L 510.20571 -281.255695 
L 509.914463 -280.107527 
L 509.672269 -278.959359 
L 509.472432 -277.811191 
L 509.310121 -276.663023 
L 509.181698 -275.514855 
L 509.084277 -274.366686 
L 509.015524 -273.218518 
L 508.97367 -272.07035 
L 508.957615 -270.922182 
L 508.967028 -269.774014 
L 509.00233 -268.625846 
L 509.064501 -267.477677 
L 509.154685 -266.329509 
L 509.273611 -265.181341 
L 509.420905 -264.033173 
L 509.594408 -262.885005 
L 509.789614 -261.736837 
L 509.999387 -260.588669 
L 510.214041 -259.4405 
L 510.42185 -258.292332 
L 510.609967 -257.144164 
L 510.765654 -255.995996 
L 510.877652 -254.847828 
L 510.937494 -253.69966 
L 510.940537 -252.551492 
L 510.88654 -251.403323 
L 510.779692 -250.255155 
L 510.628088 -249.106987 
L 510.442729 -247.958819 
L 510.236221 -246.810651 
L 510.021391 -245.662483 
L 509.810005 -244.514315 
L 509.611781 -243.366146 
L 509.433789 -242.217978 
L 509.280261 -241.06981 
L 509.152775 -239.921642 
L 509.050705 -238.773474 
L 508.971821 -237.625306 
z
" style="stroke: #3d3d3d; stroke-opacity: 0.5"/>
    </defs>
    <g clip-path="url(#pbf80f55bdc)">
     <use xlink:href="#mb92932821d" x="0" y="711.060318" style="fill: #3274a1; fill-opacity: 0.5; stroke: #3d3d3d; stroke-opacity: 0.5"/>
    </g>
   </g>
   <g id="PolyCollection_6">
    <defs>
     <path id="m1546503eba" d="M 607.059441 -174.660318 
L 605.815559 -174.660318 
L 605.585855 -179.352112 
L 605.290671 -184.043906 
L 604.918567 -188.7357 
L 604.458463 -193.427495 
L 603.900455 -198.119289 
L 603.236736 -202.811083 
L 602.462533 -207.502877 
L 601.576969 -212.194672 
L 600.583744 -216.886466 
L 599.491514 -221.57826 
L 598.313885 -226.270055 
L 597.068968 -230.961849 
L 595.778477 -235.653643 
L 594.46642 -240.345437 
L 593.157497 -245.037232 
L 591.875332 -249.729026 
L 590.640757 -254.42082 
L 589.470301 -259.112614 
L 588.375079 -263.804409 
L 587.360196 -268.496203 
L 586.424722 -273.187997 
L 585.562226 -277.879792 
L 584.761784 -282.571586 
L 584.009304 -287.26338 
L 583.288985 -291.955174 
L 582.58473 -296.646969 
L 581.88134 -301.338763 
L 581.165396 -306.030557 
L 580.425771 -310.722351 
L 579.653836 -315.414146 
L 578.843433 -320.10594 
L 577.990788 -324.797734 
L 577.094481 -329.489529 
L 576.155625 -334.181323 
L 575.178287 -338.873117 
L 574.170154 -343.564911 
L 573.143329 -348.256706 
L 572.115083 -352.9485 
L 571.108352 -357.640294 
L 570.151743 -362.332088 
L 569.278898 -367.023883 
L 568.527101 -371.715677 
L 567.935176 -376.407471 
L 567.540799 -381.099265 
L 567.3775 -385.79106 
L 567.47168 -390.482854 
L 567.840008 -395.174648 
L 568.487536 -399.866443 
L 569.406775 -404.558237 
L 570.577874 -409.250031 
L 571.96988 -413.941825 
L 573.542921 -418.63362 
L 575.251044 -423.325414 
L 577.045359 -428.017208 
L 578.877128 -432.709002 
L 580.700488 -437.400797 
L 582.474566 -442.092591 
L 584.164865 -446.784385 
L 585.743928 -451.47618 
L 587.191384 -456.167974 
L 588.493547 -460.859768 
L 589.642776 -465.551562 
L 590.636787 -470.243357 
L 591.478049 -474.935151 
L 592.173336 -479.626945 
L 592.733417 -484.318739 
L 593.172827 -489.010534 
L 593.509581 -493.702328 
L 593.76476 -498.394122 
L 593.961836 -503.085917 
L 594.125741 -507.777711 
L 594.281668 -512.469505 
L 594.453712 -517.161299 
L 594.663468 -521.853094 
L 594.928728 -526.544888 
L 595.262446 -531.236682 
L 595.672058 -535.928476 
L 596.159263 -540.620271 
L 596.720244 -545.312065 
L 597.34632 -550.003859 
L 598.024925 -554.695654 
L 598.740789 -559.387448 
L 599.477213 -564.079242 
L 600.217292 -568.771036 
L 600.944994 -573.462831 
L 601.646023 -578.154625 
L 602.308423 -582.846419 
L 602.922927 -587.538213 
L 603.483067 -592.230008 
L 603.985076 -596.921802 
L 604.427651 -601.613596 
L 604.811604 -606.305391 
L 605.139466 -610.997185 
L 605.415067 -615.688979 
L 605.643135 -620.380773 
L 605.828923 -625.072568 
L 605.977891 -629.764362 
L 606.095439 -634.456156 
L 606.186702 -639.14795 
L 606.688298 -639.14795 
L 606.688298 -639.14795 
L 606.779561 -634.456156 
L 606.897109 -629.764362 
L 607.046077 -625.072568 
L 607.231865 -620.380773 
L 607.459933 -615.688979 
L 607.735534 -610.997185 
L 608.063396 -606.305391 
L 608.447349 -601.613596 
L 608.889924 -596.921802 
L 609.391933 -592.230008 
L 609.952073 -587.538213 
L 610.566577 -582.846419 
L 611.228977 -578.154625 
L 611.930006 -573.462831 
L 612.657708 -568.771036 
L 613.397787 -564.079242 
L 614.134211 -559.387448 
L 614.850075 -554.695654 
L 615.52868 -550.003859 
L 616.154756 -545.312065 
L 616.715737 -540.620271 
L 617.202942 -535.928476 
L 617.612554 -531.236682 
L 617.946272 -526.544888 
L 618.211532 -521.853094 
L 618.421288 -517.161299 
L 618.593332 -512.469505 
L 618.749259 -507.777711 
L 618.913164 -503.085917 
L 619.11024 -498.394122 
L 619.365419 -493.702328 
L 619.702173 -489.010534 
L 620.141583 -484.318739 
L 620.701664 -479.626945 
L 621.396951 -474.935151 
L 622.238213 -470.243357 
L 623.232224 -465.551562 
L 624.381453 -460.859768 
L 625.683616 -456.167974 
L 627.131072 -451.47618 
L 628.710135 -446.784385 
L 630.400434 -442.092591 
L 632.174512 -437.400797 
L 633.997872 -432.709002 
L 635.829641 -428.017208 
L 637.623956 -423.325414 
L 639.332079 -418.63362 
L 640.90512 -413.941825 
L 642.297126 -409.250031 
L 643.468225 -404.558237 
L 644.387464 -399.866443 
L 645.034992 -395.174648 
L 645.40332 -390.482854 
L 645.4975 -385.79106 
L 645.334201 -381.099265 
L 644.939824 -376.407471 
L 644.347899 -371.715677 
L 643.596102 -367.023883 
L 642.723257 -362.332088 
L 641.766648 -357.640294 
L 640.759917 -352.9485 
L 639.731671 -348.256706 
L 638.704846 -343.564911 
L 637.696713 -338.873117 
L 636.719375 -334.181323 
L 635.780519 -329.489529 
L 634.884212 -324.797734 
L 634.031567 -320.10594 
L 633.221164 -315.414146 
L 632.449229 -310.722351 
L 631.709604 -306.030557 
L 630.99366 -301.338763 
L 630.29027 -296.646969 
L 629.586015 -291.955174 
L 628.865696 -287.26338 
L 628.113216 -282.571586 
L 627.312774 -277.879792 
L 626.450278 -273.187997 
L 625.514804 -268.496203 
L 624.499921 -263.804409 
L 623.404699 -259.112614 
L 622.234243 -254.42082 
L 620.999668 -249.729026 
L 619.717503 -245.037232 
L 618.40858 -240.345437 
L 617.096523 -235.653643 
L 615.806032 -230.961849 
L 614.561115 -226.270055 
L 613.383486 -221.57826 
L 612.291256 -216.886466 
L 611.298031 -212.194672 
L 610.412467 -207.502877 
L 609.638264 -202.811083 
L 608.974545 -198.119289 
L 608.416537 -193.427495 
L 607.956433 -188.7357 
L 607.584329 -184.043906 
L 607.289145 -179.352112 
L 607.059441 -174.660318 
z
" style="stroke: #3d3d3d; stroke-opacity: 0.5"/>
    </defs>
    <g clip-path="url(#pbf80f55bdc)">
     <use xlink:href="#m1546503eba" x="0" y="711.060318" style="fill: #e1812c; fill-opacity: 0.5; stroke: #3d3d3d; stroke-opacity: 0.5"/>
    </g>
   </g>
   <g id="PolyCollection_7">
    <defs>
     <path id="m40f3836359" d="M 704.211467 -259.436044 
L 703.963533 -259.436044 
L 703.910925 -262.07085 
L 703.842405 -264.705657 
L 703.755881 -267.340463 
L 703.650011 -269.97527 
L 703.524574 -272.610076 
L 703.380802 -275.244883 
L 703.221598 -277.87969 
L 703.051586 -280.514496 
L 702.876955 -283.149303 
L 702.705065 -285.784109 
L 702.543866 -288.418916 
L 702.401161 -291.053722 
L 702.283837 -293.688529 
L 702.197145 -296.323335 
L 702.144162 -298.958142 
L 702.125515 -301.592948 
L 702.139415 -304.227755 
L 702.182005 -306.862561 
L 702.247974 -309.497368 
L 702.331308 -312.132174 
L 702.426087 -314.766981 
L 702.527152 -317.401787 
L 702.630556 -320.036594 
L 702.733711 -322.6714 
L 702.835246 -325.306207 
L 702.934622 -327.941014 
L 703.031605 -330.57582 
L 703.125747 -333.210627 
L 703.215983 -335.845433 
L 703.300438 -338.48024 
L 703.376487 -341.115046 
L 703.44105 -343.749853 
L 703.491043 -346.384659 
L 703.5239 -349.019466 
L 703.538037 -351.654272 
L 703.533178 -354.289079 
L 703.510446 -356.923885 
L 703.472208 -359.558692 
L 703.421683 -362.193498 
L 703.362361 -364.828305 
L 703.297357 -367.463111 
L 703.228792 -370.097918 
L 703.15733 -372.732724 
L 703.081972 -375.367531 
L 703.000136 -378.002337 
L 702.90801 -380.637144 
L 702.801099 -383.271951 
L 702.67482 -385.906757 
L 702.524997 -388.541564 
L 702.348089 -391.17637 
L 702.141052 -393.811177 
L 701.90078 -396.445983 
L 701.623159 -399.08079 
L 701.301822 -401.715596 
L 700.926785 -404.350403 
L 700.483152 -406.985209 
L 699.950132 -409.620016 
L 699.300605 -412.254822 
L 698.501493 -414.889629 
L 697.515143 -417.524435 
L 696.301887 -420.159242 
L 694.82384 -422.794048 
L 693.049829 -425.428855 
L 690.961152 -428.063661 
L 688.557644 -430.698468 
L 685.863286 -433.333275 
L 682.930465 -435.968081 
L 679.84193 -438.602888 
L 676.709618 -441.237694 
L 673.66981 -443.872501 
L 670.874562 -446.507307 
L 668.479928 -449.142114 
L 666.632081 -451.77692 
L 665.452986 -454.411727 
L 665.0275 -457.046533 
L 665.39381 -459.68134 
L 666.53868 -462.316146 
L 668.39834 -464.950953 
L 670.864972 -467.585759 
L 673.797848 -470.220566 
L 677.037511 -472.855372 
L 680.420931 -475.490179 
L 683.795602 -478.124985 
L 687.03086 -480.759792 
L 690.025322 -483.394599 
L 692.710084 -486.029405 
L 695.047994 -488.664212 
L 697.029843 -491.299018 
L 698.668609 -493.933825 
L 699.992898 -496.568631 
L 701.04059 -499.203438 
L 701.853393 -501.838244 
L 702.472672 -504.473051 
L 702.936649 -507.107857 
L 703.278828 -509.742664 
L 703.527397 -512.37747 
L 703.705308 -515.012277 
L 703.830757 -517.647083 
L 703.917859 -520.28189 
L 704.257141 -520.28189 
L 704.257141 -520.28189 
L 704.344243 -517.647083 
L 704.469692 -515.012277 
L 704.647603 -512.37747 
L 704.896172 -509.742664 
L 705.238351 -507.107857 
L 705.702328 -504.473051 
L 706.321607 -501.838244 
L 707.13441 -499.203438 
L 708.182102 -496.568631 
L 709.506391 -493.933825 
L 711.145157 -491.299018 
L 713.127006 -488.664212 
L 715.464916 -486.029405 
L 718.149678 -483.394599 
L 721.14414 -480.759792 
L 724.379398 -478.124985 
L 727.754069 -475.490179 
L 731.137489 -472.855372 
L 734.377152 -470.220566 
L 737.310028 -467.585759 
L 739.77666 -464.950953 
L 741.63632 -462.316146 
L 742.78119 -459.68134 
L 743.1475 -457.046533 
L 742.722014 -454.411727 
L 741.542919 -451.77692 
L 739.695072 -449.142114 
L 737.300438 -446.507307 
L 734.50519 -443.872501 
L 731.465382 -441.237694 
L 728.33307 -438.602888 
L 725.244535 -435.968081 
L 722.311714 -433.333275 
L 719.617356 -430.698468 
L 717.213848 -428.063661 
L 715.125171 -425.428855 
L 713.35116 -422.794048 
L 711.873113 -420.159242 
L 710.659857 -417.524435 
L 709.673507 -414.889629 
L 708.874395 -412.254822 
L 708.224868 -409.620016 
L 707.691848 -406.985209 
L 707.248215 -404.350403 
L 706.873178 -401.715596 
L 706.551841 -399.08079 
L 706.27422 -396.445983 
L 706.033948 -393.811177 
L 705.826911 -391.17637 
L 705.650003 -388.541564 
L 705.50018 -385.906757 
L 705.373901 -383.271951 
L 705.26699 -380.637144 
L 705.174864 -378.002337 
L 705.093028 -375.367531 
L 705.01767 -372.732724 
L 704.946208 -370.097918 
L 704.877643 -367.463111 
L 704.812639 -364.828305 
L 704.753317 -362.193498 
L 704.702792 -359.558692 
L 704.664554 -356.923885 
L 704.641822 -354.289079 
L 704.636963 -351.654272 
L 704.6511 -349.019466 
L 704.683957 -346.384659 
L 704.73395 -343.749853 
L 704.798513 -341.115046 
L 704.874562 -338.48024 
L 704.959017 -335.845433 
L 705.049253 -333.210627 
L 705.143395 -330.57582 
L 705.240378 -327.941014 
L 705.339754 -325.306207 
L 705.441289 -322.6714 
L 705.544444 -320.036594 
L 705.647848 -317.401787 
L 705.748913 -314.766981 
L 705.843692 -312.132174 
L 705.927026 -309.497368 
L 705.992995 -306.862561 
L 706.035585 -304.227755 
L 706.049485 -301.592948 
L 706.030838 -298.958142 
L 705.977855 -296.323335 
L 705.891163 -293.688529 
L 705.773839 -291.053722 
L 705.631134 -288.418916 
L 705.469935 -285.784109 
L 705.298045 -283.149303 
L 705.123414 -280.514496 
L 704.953402 -277.87969 
L 704.794198 -275.244883 
L 704.650426 -272.610076 
L 704.524989 -269.97527 
L 704.419119 -267.340463 
L 704.332595 -264.705657 
L 704.264075 -262.07085 
L 704.211467 -259.436044 
z
" style="stroke: #3d3d3d; stroke-opacity: 0.5"/>
    </defs>
    <g clip-path="url(#pbf80f55bdc)">
     <use xlink:href="#m40f3836359" x="0" y="711.060318" style="fill: #3a923a; fill-opacity: 0.5; stroke: #3d3d3d; stroke-opacity: 0.5"/>
    </g>
   </g>
   <g id="PolyCollection_8">
    <defs>
     <path id="mc5820e219a" d="M 801.891454 -196.789222 
L 801.583546 -196.789222 
L 801.521421 -201.656607 
L 801.441237 -206.523992 
L 801.340668 -211.391376 
L 801.218199 -216.258761 
L 801.073558 -221.126146 
L 800.908126 -225.993531 
L 800.72525 -230.860916 
L 800.530392 -235.728301 
L 800.331048 -240.595685 
L 800.136392 -245.46307 
L 799.95665 -250.330455 
L 799.802255 -255.19784 
L 799.682851 -260.065225 
L 799.606291 -264.932609 
L 799.577761 -269.799994 
L 799.59915 -274.667379 
L 799.66878 -279.534764 
L 799.781518 -284.402149 
L 799.929271 -289.269533 
L 800.101772 -294.136918 
L 800.287548 -299.004303 
L 800.474934 -303.871688 
L 800.652999 -308.739073 
L 800.812293 -313.606457 
L 800.945345 -318.473842 
L 801.046929 -323.341227 
L 801.114087 -328.208612 
L 801.146003 -333.075997 
L 801.14376 -337.943381 
L 801.110033 -342.810766 
L 801.048778 -347.678151 
L 800.964904 -352.545536 
L 800.863966 -357.412921 
L 800.751852 -362.280305 
L 800.634487 -367.14769 
L 800.51755 -372.015075 
L 800.406216 -376.88246 
L 800.304955 -381.749845 
L 800.21738 -386.617229 
L 800.146176 -391.484614 
L 800.093078 -396.351999 
L 800.058902 -401.219384 
L 800.043569 -406.086769 
L 800.046115 -410.954153 
L 800.064623 -415.821538 
L 800.096096 -420.688923 
L 800.136233 -425.556308 
L 800.179158 -430.423693 
L 800.217147 -435.291077 
L 800.240403 -440.158462 
L 800.236955 -445.025847 
L 800.192752 -449.893232 
L 800.091984 -454.760617 
L 799.917648 -459.628001 
L 799.652341 -464.495386 
L 799.279206 -469.362771 
L 798.782944 -474.230156 
L 798.150747 -479.097541 
L 797.373041 -483.964925 
L 796.443904 -488.83231 
L 795.361092 -493.699695 
L 794.12567 -498.56708 
L 792.741303 -503.434465 
L 791.213374 -508.301849 
L 789.54815 -513.169234 
L 787.752245 -518.036619 
L 785.832636 -522.904004 
L 783.797404 -527.771389 
L 781.657268 -532.638773 
L 779.427797 -537.506158 
L 777.132058 -542.373543 
L 774.803247 -547.240928 
L 772.486796 -552.108313 
L 770.241382 -556.975697 
L 768.138363 -561.843082 
L 766.259302 -566.710467 
L 764.691517 -571.577852 
L 763.521887 -576.445237 
L 762.82943 -581.312621 
L 762.6775 -586.180006 
L 763.106535 -591.047391 
L 764.128394 -595.914776 
L 765.723133 -600.782161 
L 767.838826 -605.649546 
L 770.394606 -610.51693 
L 773.286667 -615.384315 
L 776.396535 -620.2517 
L 779.600586 -625.119085 
L 782.779658 -629.98647 
L 785.827592 -634.853854 
L 788.657808 -639.721239 
L 791.207309 -644.588624 
L 793.43796 -649.456009 
L 795.33526 -654.323394 
L 796.90512 -659.190778 
L 798.169362 -664.058163 
L 799.160695 -668.925548 
L 799.917813 -673.792933 
L 800.481155 -678.660318 
L 802.993845 -678.660318 
L 802.993845 -678.660318 
L 803.557187 -673.792933 
L 804.314305 -668.925548 
L 805.305638 -664.058163 
L 806.56988 -659.190778 
L 808.13974 -654.323394 
L 810.03704 -649.456009 
L 812.267691 -644.588624 
L 814.817192 -639.721239 
L 817.647408 -634.853854 
L 820.695342 -629.98647 
L 823.874414 -625.119085 
L 827.078465 -620.2517 
L 830.188333 -615.384315 
L 833.080394 -610.51693 
L 835.636174 -605.649546 
L 837.751867 -600.782161 
L 839.346606 -595.914776 
L 840.368465 -591.047391 
L 840.7975 -586.180006 
L 840.64557 -581.312621 
L 839.953113 -576.445237 
L 838.783483 -571.577852 
L 837.215698 -566.710467 
L 835.336637 -561.843082 
L 833.233618 -556.975697 
L 830.988204 -552.108313 
L 828.671753 -547.240928 
L 826.342942 -542.373543 
L 824.047203 -537.506158 
L 821.817732 -532.638773 
L 819.677596 -527.771389 
L 817.642364 -522.904004 
L 815.722755 -518.036619 
L 813.92685 -513.169234 
L 812.261626 -508.301849 
L 810.733697 -503.434465 
L 809.34933 -498.56708 
L 808.113908 -493.699695 
L 807.031096 -488.83231 
L 806.101959 -483.964925 
L 805.324253 -479.097541 
L 804.692056 -474.230156 
L 804.195794 -469.362771 
L 803.822659 -464.495386 
L 803.557352 -459.628001 
L 803.383016 -454.760617 
L 803.282248 -449.893232 
L 803.238045 -445.025847 
L 803.234597 -440.158462 
L 803.257853 -435.291077 
L 803.295842 -430.423693 
L 803.338767 -425.556308 
L 803.378904 -420.688923 
L 803.410377 -415.821538 
L 803.428885 -410.954153 
L 803.431431 -406.086769 
L 803.416098 -401.219384 
L 803.381922 -396.351999 
L 803.328824 -391.484614 
L 803.25762 -386.617229 
L 803.170045 -381.749845 
L 803.068784 -376.88246 
L 802.95745 -372.015075 
L 802.840513 -367.14769 
L 802.723148 -362.280305 
L 802.611034 -357.412921 
L 802.510096 -352.545536 
L 802.426222 -347.678151 
L 802.364967 -342.810766 
L 802.33124 -337.943381 
L 802.328997 -333.075997 
L 802.360913 -328.208612 
L 802.428071 -323.341227 
L 802.529655 -318.473842 
L 802.662707 -313.606457 
L 802.822001 -308.739073 
L 803.000066 -303.871688 
L 803.187452 -299.004303 
L 803.373228 -294.136918 
L 803.545729 -289.269533 
L 803.693482 -284.402149 
L 803.80622 -279.534764 
L 803.87585 -274.667379 
L 803.897239 -269.799994 
L 803.868709 -264.932609 
L 803.792149 -260.065225 
L 803.672745 -255.19784 
L 803.51835 -250.330455 
L 803.338608 -245.46307 
L 803.143952 -240.595685 
L 802.944608 -235.728301 
L 802.74975 -230.860916 
L 802.566874 -225.993531 
L 802.401442 -221.126146 
L 802.256801 -216.258761 
L 802.134332 -211.391376 
L 802.033763 -206.523992 
L 801.953579 -201.656607 
L 801.891454 -196.789222 
z
" style="stroke: #3d3d3d; stroke-opacity: 0.5"/>
    </defs>
    <g clip-path="url(#pbf80f55bdc)">
     <use xlink:href="#mc5820e219a" x="0" y="711.060318" style="fill: #c03d3e; fill-opacity: 0.5; stroke: #3d3d3d; stroke-opacity: 0.5"/>
    </g>
   </g>
   <g id="line2d_7">
    <path d="M 118.1875 193.70202 
L 118.1875 83.03783 
" clip-path="url(#pbf80f55bdc)" style="fill: none; stroke: #3d3d3d; stroke-width: 1.5; stroke-linecap: round"/>
   </g>
   <g id="line2d_8">
    <path d="M 118.1875 145.72102 
L 118.1875 106.650087 
" clip-path="url(#pbf80f55bdc)" style="fill: none; stroke: #3d3d3d; stroke-width: 4.5; stroke-linecap: round"/>
   </g>
   <g id="line2d_9">
    <path d="M 118.1875 123.769762 
" clip-path="url(#pbf80f55bdc)" style="fill: none; stroke: #3d3d3d; stroke-width: 1.5; stroke-linecap: round"/>
    <defs>
     <path id="m8ae213ac30" d="M 1.875 0 
L -1.875 -0 
" style="stroke: #ffffff; stroke-width: 0.9"/>
    </defs>
    <g clip-path="url(#pbf80f55bdc)">
     <use xlink:href="#m8ae213ac30" x="118.1875" y="123.769762" style="fill: #ffffff; stroke: #ffffff; stroke-width: 0.9"/>
    </g>
   </g>
   <g id="line2d_10">
    <path d="M 215.8375 425.327382 
L 215.8375 266.976277 
" clip-path="url(#pbf80f55bdc)" style="fill: none; stroke: #3d3d3d; stroke-width: 1.5; stroke-linecap: round"/>
   </g>
   <g id="line2d_11">
    <path d="M 215.8375 391.588857 
L 215.8375 341.732187 
" clip-path="url(#pbf80f55bdc)" style="fill: none; stroke: #3d3d3d; stroke-width: 4.5; stroke-linecap: round"/>
   </g>
   <g id="line2d_12">
    <path d="M 215.8375 366.527544 
" clip-path="url(#pbf80f55bdc)" style="fill: none; stroke: #3d3d3d; stroke-width: 1.5; stroke-linecap: round"/>
    <g clip-path="url(#pbf80f55bdc)">
     <use xlink:href="#m8ae213ac30" x="215.8375" y="366.527544" style="fill: #ffffff; stroke: #ffffff; stroke-width: 0.9"/>
    </g>
   </g>
   <g id="line2d_13">
    <path d="M 313.4875 213.550294 
L 313.4875 208.329677 
" clip-path="url(#pbf80f55bdc)" style="fill: none; stroke: #3d3d3d; stroke-width: 1.5; stroke-linecap: round"/>
   </g>
   <g id="line2d_14">
    <path d="M 313.4875 211.805099 
L 313.4875 210.010079 
" clip-path="url(#pbf80f55bdc)" style="fill: none; stroke: #3d3d3d; stroke-width: 4.5; stroke-linecap: round"/>
   </g>
   <g id="line2d_15">
    <path d="M 313.4875 210.861124 
" clip-path="url(#pbf80f55bdc)" style="fill: none; stroke: #3d3d3d; stroke-width: 1.5; stroke-linecap: round"/>
    <g clip-path="url(#pbf80f55bdc)">
     <use xlink:href="#m8ae213ac30" x="313.4875" y="210.861124" style="fill: #ffffff; stroke: #ffffff; stroke-width: 0.9"/>
    </g>
   </g>
   <g id="line2d_16">
    <path d="M 411.1375 175.881098 
L 411.1375 87.284793 
" clip-path="url(#pbf80f55bdc)" style="fill: none; stroke: #3d3d3d; stroke-width: 1.5; stroke-linecap: round"/>
   </g>
   <g id="line2d_17">
    <path d="M 411.1375 140.409315 
L 411.1375 115.693707 
" clip-path="url(#pbf80f55bdc)" style="fill: none; stroke: #3d3d3d; stroke-width: 4.5; stroke-linecap: round"/>
   </g>
   <g id="line2d_18">
    <path d="M 411.1375 127.645092 
" clip-path="url(#pbf80f55bdc)" style="fill: none; stroke: #3d3d3d; stroke-width: 1.5; stroke-linecap: round"/>
    <g clip-path="url(#pbf80f55bdc)">
     <use xlink:href="#m8ae213ac30" x="411.1375" y="127.645092" style="fill: #ffffff; stroke: #ffffff; stroke-width: 0.9"/>
    </g>
   </g>
   <g id="line2d_19">
    <path d="M 508.7875 425.22967 
L 508.7875 372.848532 
" clip-path="url(#pbf80f55bdc)" style="fill: none; stroke: #3d3d3d; stroke-width: 1.5; stroke-linecap: round"/>
   </g>
   <g id="line2d_20">
    <path d="M 508.7875 404.113822 
L 508.7875 385.559336 
" clip-path="url(#pbf80f55bdc)" style="fill: none; stroke: #3d3d3d; stroke-width: 4.5; stroke-linecap: round"/>
   </g>
   <g id="line2d_21">
    <path d="M 508.7875 394.176845 
" clip-path="url(#pbf80f55bdc)" style="fill: none; stroke: #3d3d3d; stroke-width: 1.5; stroke-linecap: round"/>
    <g clip-path="url(#pbf80f55bdc)">
     <use xlink:href="#m8ae213ac30" x="508.7875" y="394.176845" style="fill: #ffffff; stroke: #ffffff; stroke-width: 0.9"/>
    </g>
   </g>
   <g id="line2d_22">
    <path d="M 606.4375 468.633479 
L 606.4375 158.788156 
" clip-path="url(#pbf80f55bdc)" style="fill: none; stroke: #3d3d3d; stroke-width: 1.5; stroke-linecap: round"/>
   </g>
   <g id="line2d_23">
    <path d="M 606.4375 382.625978 
L 606.4375 291.007612 
" clip-path="url(#pbf80f55bdc)" style="fill: none; stroke: #3d3d3d; stroke-width: 4.5; stroke-linecap: round"/>
   </g>
   <g id="line2d_24">
    <path d="M 606.4375 326.554376 
" clip-path="url(#pbf80f55bdc)" style="fill: none; stroke: #3d3d3d; stroke-width: 1.5; stroke-linecap: round"/>
    <g clip-path="url(#pbf80f55bdc)">
     <use xlink:href="#m8ae213ac30" x="606.4375" y="326.554376" style="fill: #ffffff; stroke: #ffffff; stroke-width: 0.9"/>
    </g>
   </g>
   <g id="line2d_25">
    <path d="M 704.0875 285.595708 
L 704.0875 230.859607 
" clip-path="url(#pbf80f55bdc)" style="fill: none; stroke: #3d3d3d; stroke-width: 1.5; stroke-linecap: round"/>
   </g>
   <g id="line2d_26">
    <path d="M 704.0875 264.799812 
L 704.0875 249.046947 
" clip-path="url(#pbf80f55bdc)" style="fill: none; stroke: #3d3d3d; stroke-width: 4.5; stroke-linecap: round"/>
   </g>
   <g id="line2d_27">
    <path d="M 704.0875 254.662887 
" clip-path="url(#pbf80f55bdc)" style="fill: none; stroke: #3d3d3d; stroke-width: 1.5; stroke-linecap: round"/>
    <g clip-path="url(#pbf80f55bdc)">
     <use xlink:href="#m8ae213ac30" x="704.0875" y="254.662887" style="fill: #ffffff; stroke: #ffffff; stroke-width: 0.9"/>
    </g>
   </g>
   <g id="line2d_28">
    <path d="M 801.7375 204.873025 
L 801.7375 93.469864 
" clip-path="url(#pbf80f55bdc)" style="fill: none; stroke: #3d3d3d; stroke-width: 1.5; stroke-linecap: round"/>
   </g>
   <g id="line2d_29">
    <path d="M 801.7375 158.359054 
L 801.7375 114.440389 
" clip-path="url(#pbf80f55bdc)" style="fill: none; stroke: #3d3d3d; stroke-width: 4.5; stroke-linecap: round"/>
   </g>
   <g id="line2d_30">
    <path d="M 801.7375 131.074965 
" clip-path="url(#pbf80f55bdc)" style="fill: none; stroke: #3d3d3d; stroke-width: 1.5; stroke-linecap: round"/>
    <g clip-path="url(#pbf80f55bdc)">
     <use xlink:href="#m8ae213ac30" x="801.7375" y="131.074965" style="fill: #ffffff; stroke: #ffffff; stroke-width: 0.9"/>
    </g>
   </g>
   <g id="patch_3">
    <path d="M 69.3625 561.6 
L 850.5625 561.6 
" style="fill: none; stroke: #cccccc; stroke-width: 0.8; stroke-linejoin: miter; stroke-linecap: square"/>
   </g>
  </g>
 </g>
 <defs>
  <clipPath id="pbf80f55bdc">
   <rect x="69.3625" y="7.2" width="781.2" height="554.4"/>
  </clipPath>
 </defs>
</svg>
