<?xml version="1.0" encoding="utf-8" standalone="no"?>
<!DOCTYPE svg PUBLIC "-//W3C//DTD SVG 1.1//EN"
  "http://www.w3.org/Graphics/SVG/1.1/DTD/svg11.dtd">
<svg xmlns:xlink="http://www.w3.org/1999/xlink" width="829.003125pt" height="494.5pt" viewBox="0 0 829.003125 494.5" xmlns="http://www.w3.org/2000/svg" version="1.1">
 <metadata>
  <rdf:RDF xmlns:dc="http://purl.org/dc/elements/1.1/" xmlns:cc="http://creativecommons.org/ns#" xmlns:rdf="http://www.w3.org/1999/02/22-rdf-syntax-ns#">
   <cc:Work>
    <dc:type rdf:resource="http://purl.org/dc/dcmitype/StillImage"/>
    <dc:date>2024-03-17T10:58:30.949266</dc:date>
    <dc:format>image/svg+xml</dc:format>
    <dc:creator>
     <cc:Agent>
      <dc:title>Matplotlib v3.8.0, https://matplotlib.org/</dc:title>
     </cc:Agent>
    </dc:creator>
   </cc:Work>
  </rdf:RDF>
 </metadata>
 <defs>
  <style type="text/css">*{stroke-linejoin: round; stroke-linecap: butt}</style>
 </defs>
 <g id="figure_1">
  <g id="patch_1">
   <path d="M 0 494.5 
L 829.003125 494.5 
L 829.003125 0 
L 0 0 
L 0 494.5 
z
" style="fill: none"/>
  </g>
  <g id="axes_1">
   <g id="patch_2">
    <path d="M 40.603125 395.28 
L 395.694034 395.28 
L 395.694034 7.2 
L 40.603125 7.2 
L 40.603125 395.28 
z
" style="fill: none"/>
   </g>
   <g id="PolyCollection_1">
    <defs>
     <path id="m8a39440f72" d="M 56.743621 -324.674076 
L 56.743621 -313.997552 
L 89.024613 -307.540452 
L 121.305604 -302.726265 
L 153.586596 -299.7658 
L 185.867588 -289.702148 
L 218.14858 -277.469384 
L 250.429571 -267.129704 
L 282.710563 -260.285125 
L 314.991555 -248.515839 
L 347.272546 -237.892838 
L 379.553538 -242.98413 
L 379.553538 -270.72268 
L 379.553538 -270.72268 
L 347.272546 -259.819847 
L 314.991555 -266.573981 
L 282.710563 -274.386788 
L 250.429571 -280.020842 
L 218.14858 -288.993956 
L 185.867588 -301.852945 
L 153.586596 -310.938497 
L 121.305604 -313.454688 
L 89.024613 -318.485864 
L 56.743621 -324.674076 
z
" style="stroke: #1f77b4; stroke-opacity: 0.2"/>
    </defs>
    <g clip-path="url(#p3989e5c4d2)">
     <use xlink:href="#m8a39440f72" x="0" y="494.5" style="fill: #1f77b4; fill-opacity: 0.2; stroke: #1f77b4; stroke-opacity: 0.2"/>
    </g>
   </g>
   <g id="PolyCollection_2">
    <defs>
     <path id="m915f351c11" d="M 56.743621 -469.66 
L 56.743621 -467.687938 
L 89.024613 -458.786238 
L 121.305604 -455.1131 
L 153.586596 -452.221031 
L 185.867588 -449.708425 
L 218.14858 -445.735637 
L 250.429571 -441.132629 
L 282.710563 -434.251103 
L 314.991555 -421.31988 
L 347.272546 -406.058058 
L 379.553538 -360.917758 
L 379.553538 -377.264232 
L 379.553538 -377.264232 
L 347.272546 -417.003966 
L 314.991555 -428.537967 
L 282.710563 -439.337374 
L 250.429571 -445.205504 
L 218.14858 -449.084662 
L 185.867588 -452.952147 
L 153.586596 -455.166238 
L 121.305604 -457.918036 
L 89.024613 -461.262826 
L 56.743621 -469.66 
z
" style="stroke: #ff7f0e; stroke-opacity: 0.2"/>
    </defs>
    <g clip-path="url(#p3989e5c4d2)">
     <use xlink:href="#m915f351c11" x="0" y="494.5" style="fill: #ff7f0e; fill-opacity: 0.2; stroke: #ff7f0e; stroke-opacity: 0.2"/>
    </g>
   </g>
   <g id="PolyCollection_3">
    <defs>
     <path id="m0475a4a750" d="M 56.743621 -447.054965 
L 56.743621 -442.571715 
L 89.024613 -426.663734 
L 121.305604 -425.545161 
L 153.586596 -421.469578 
L 185.867588 -419.929349 
L 218.14858 -414.795135 
L 250.429571 -408.547446 
L 282.710563 -401.045329 
L 314.991555 -384.127106 
L 347.272546 -375.095914 
L 379.553538 -323.945511 
L 379.553538 -344.882261 
L 379.553538 -344.882261 
L 347.272546 -388.663046 
L 314.991555 -395.736733 
L 282.710563 -408.794408 
L 250.429571 -415.77484 
L 218.14858 -420.613646 
L 185.867588 -425.697697 
L 153.586596 -427.604095 
L 121.305604 -431.227137 
L 89.024613 -432.151303 
L 56.743621 -447.054965 
z
" style="stroke: #2ca02c; stroke-opacity: 0.2"/>
    </defs>
    <g clip-path="url(#p3989e5c4d2)">
     <use xlink:href="#m0475a4a750" x="0" y="494.5" style="fill: #2ca02c; fill-opacity: 0.2; stroke: #2ca02c; stroke-opacity: 0.2"/>
    </g>
   </g>
   <g id="PolyCollection_4">
    <defs>
     <path id="m0d2e0bec1f" d="M 56.743621 -465.688552 
L 56.743621 -462.464298 
L 89.024613 -452.534705 
L 121.305604 -448.679213 
L 153.586596 -448.077489 
L 185.867588 -443.884619 
L 218.14858 -439.211008 
L 250.429571 -434.607999 
L 282.710563 -428.681106 
L 314.991555 -413.145873 
L 347.272546 -405.917763 
L 379.553538 -356.281293 
L 379.553538 -374.176811 
L 379.553538 -374.176811 
L 347.272546 -416.726109 
L 314.991555 -422.198664 
L 282.710563 -435.014896 
L 250.429571 -439.855847 
L 218.14858 -444.279597 
L 185.867588 -448.281642 
L 153.586596 -452.196092 
L 121.305604 -453.239522 
L 89.024613 -456.471681 
L 56.743621 -465.688552 
z
" style="stroke: #d62728; stroke-opacity: 0.2"/>
    </defs>
    <g clip-path="url(#p3989e5c4d2)">
     <use xlink:href="#m0d2e0bec1f" x="0" y="494.5" style="fill: #d62728; fill-opacity: 0.2; stroke: #d62728; stroke-opacity: 0.2"/>
    </g>
   </g>
   <g id="PolyCollection_5">
    <defs>
     <path id="m9129637994" d="M 56.743621 -451.517331 
L 56.743621 -447.960766 
L 89.024613 -434.971937 
L 121.305604 -431.379373 
L 153.586596 -430.137162 
L 185.867588 -426.275104 
L 218.14858 -421.308995 
L 250.429571 -415.750404 
L 282.710563 -410.564043 
L 314.991555 -393.436656 
L 347.272546 -385.022123 
L 379.553538 -335.666113 
L 379.553538 -354.376296 
L 379.553538 -354.376296 
L 347.272546 -396.793653 
L 314.991555 -403.526572 
L 282.710563 -417.401464 
L 250.429571 -421.712595 
L 218.14858 -426.331961 
L 185.867588 -431.112926 
L 153.586596 -434.576267 
L 121.305604 -436.091648 
L 89.024613 -439.295031 
L 56.743621 -451.517331 
z
" style="stroke: #9467bd; stroke-opacity: 0.2"/>
    </defs>
    <g clip-path="url(#p3989e5c4d2)">
     <use xlink:href="#m9129637994" x="0" y="494.5" style="fill: #9467bd; fill-opacity: 0.2; stroke: #9467bd; stroke-opacity: 0.2"/>
    </g>
   </g>
   <g id="PolyCollection_6">
    <defs>
     <path id="m4c4e78a90f" d="M 56.743621 -404.754498 
L 56.743621 -398.832062 
L 89.024613 -374.192124 
L 121.305604 -364.349589 
L 153.586596 -354.151646 
L 185.867588 -347.245594 
L 218.14858 -333.22342 
L 250.429571 -319.157529 
L 282.710563 -307.189037 
L 314.991555 -272.854269 
L 347.272546 -237.068593 
L 379.553538 -170.338104 
L 379.553538 -197.100641 
L 379.553538 -197.100641 
L 347.272546 -258.392827 
L 314.991555 -289.237939 
L 282.710563 -320.055816 
L 250.429571 -329.873914 
L 218.14858 -342.709822 
L 185.867588 -356.122701 
L 153.586596 -362.839832 
L 121.305604 -372.369576 
L 89.024613 -381.539372 
L 56.743621 -404.754498 
z
" style="stroke: #8c564b; stroke-opacity: 0.2"/>
    </defs>
    <g clip-path="url(#p3989e5c4d2)">
     <use xlink:href="#m4c4e78a90f" x="0" y="494.5" style="fill: #8c564b; fill-opacity: 0.2; stroke: #8c564b; stroke-opacity: 0.2"/>
    </g>
   </g>
   <g id="PolyCollection_7">
    <defs>
     <path id="m8fc3c2eb1f" d="M 56.743621 -468.158676 
L 56.743621 -466.087035 
L 89.024613 -456.379 
L 121.305604 -452.99327 
L 153.586596 -449.931453 
L 185.867588 -447.414914 
L 218.14858 -443.421569 
L 250.429571 -438.016026 
L 282.710563 -431.104439 
L 314.991555 -417.772767 
L 347.272546 -401.836734 
L 379.553538 -356.072058 
L 379.553538 -373.652288 
L 379.553538 -373.652288 
L 347.272546 -413.094873 
L 314.991555 -425.11497 
L 282.710563 -436.409401 
L 250.429571 -442.276384 
L 218.14858 -446.983178 
L 185.867588 -450.637426 
L 153.586596 -453.115701 
L 121.305604 -455.999257 
L 89.024613 -459.104086 
L 56.743621 -468.158676 
z
" style="stroke: #e377c2; stroke-opacity: 0.2"/>
    </defs>
    <g clip-path="url(#p3989e5c4d2)">
     <use xlink:href="#m8fc3c2eb1f" x="0" y="494.5" style="fill: #e377c2; fill-opacity: 0.2; stroke: #e377c2; stroke-opacity: 0.2"/>
    </g>
   </g>
   <g id="PolyCollection_8">
    <defs>
     <path id="mdacb911173" d="M 56.743621 -453.196701 
L 56.743621 -450.552645 
L 89.024613 -437.061442 
L 121.305604 -432.999902 
L 153.586596 -429.349035 
L 185.867588 -426.140154 
L 218.14858 -421.78488 
L 250.429571 -415.908898 
L 282.710563 -407.712281 
L 314.991555 -392.451687 
L 347.272546 -373.462048 
L 379.553538 -327.664943 
L 379.553538 -345.743075 
L 379.553538 -345.743075 
L 347.272546 -385.771368 
L 314.991555 -400.783492 
L 282.710563 -413.516205 
L 250.429571 -421.096293 
L 218.14858 -425.827114 
L 185.867588 -430.248274 
L 153.586596 -433.279291 
L 121.305604 -436.683135 
L 89.024613 -440.359518 
L 56.743621 -453.196701 
z
" style="stroke: #7f7f7f; stroke-opacity: 0.2"/>
    </defs>
    <g clip-path="url(#p3989e5c4d2)">
     <use xlink:href="#mdacb911173" x="0" y="494.5" style="fill: #7f7f7f; fill-opacity: 0.2; stroke: #7f7f7f; stroke-opacity: 0.2"/>
    </g>
   </g>
   <g id="matplotlib.axis_1">
    <g id="xtick_1">
     <g id="line2d_1">
      <defs>
       <path id="mccf6b9b74f" d="M 0 0 
L 0 3.5 
" style="stroke: #000000; stroke-width: 0.8"/>
      </defs>
      <g>
       <use xlink:href="#mccf6b9b74f" x="56.743621" y="395.28" style="stroke: #000000; stroke-width: 0.8"/>
      </g>
     </g>
     <g id="text_1">
      <!-- 0.0 -->
      <g transform="translate(48.792058 409.878437) scale(0.1 -0.1)">
       <defs>
        <path id="DejaVuSans-30" d="M 2034 4250 
Q 1547 4250 1301 3770 
Q 1056 3291 1056 2328 
Q 1056 1369 1301 889 
Q 1547 409 2034 409 
Q 2525 409 2770 889 
Q 3016 1369 3016 2328 
Q 3016 3291 2770 3770 
Q 2525 4250 2034 4250 
z
M 2034 4750 
Q 2819 4750 3233 4129 
Q 3647 3509 3647 2328 
Q 3647 1150 3233 529 
Q 2819 -91 2034 -91 
Q 1250 -91 836 529 
Q 422 1150 422 2328 
Q 422 3509 836 4129 
Q 1250 4750 2034 4750 
z
" transform="scale(0.015625)"/>
        <path id="DejaVuSans-2e" d="M 684 794 
L 1344 794 
L 1344 0 
L 684 0 
L 684 794 
z
" transform="scale(0.015625)"/>
       </defs>
       <use xlink:href="#DejaVuSans-30"/>
       <use xlink:href="#DejaVuSans-2e" x="63.623047"/>
       <use xlink:href="#DejaVuSans-30" x="95.410156"/>
      </g>
     </g>
    </g>
    <g id="xtick_2">
     <g id="line2d_2">
      <g>
       <use xlink:href="#mccf6b9b74f" x="89.024613" y="395.28" style="stroke: #000000; stroke-width: 0.8"/>
      </g>
     </g>
     <g id="text_2">
      <!-- 0.1 -->
      <g transform="translate(81.07305 409.878437) scale(0.1 -0.1)">
       <defs>
        <path id="DejaVuSans-31" d="M 794 531 
L 1825 531 
L 1825 4091 
L 703 3866 
L 703 4441 
L 1819 4666 
L 2450 4666 
L 2450 531 
L 3481 531 
L 3481 0 
L 794 0 
L 794 531 
z
" transform="scale(0.015625)"/>
       </defs>
       <use xlink:href="#DejaVuSans-30"/>
       <use xlink:href="#DejaVuSans-2e" x="63.623047"/>
       <use xlink:href="#DejaVuSans-31" x="95.410156"/>
      </g>
     </g>
    </g>
    <g id="xtick_3">
     <g id="line2d_3">
      <g>
       <use xlink:href="#mccf6b9b74f" x="121.305604" y="395.28" style="stroke: #000000; stroke-width: 0.8"/>
      </g>
     </g>
     <g id="text_3">
      <!-- 0.2 -->
      <g transform="translate(113.354042 409.878437) scale(0.1 -0.1)">
       <defs>
        <path id="DejaVuSans-32" d="M 1228 531 
L 3431 531 
L 3431 0 
L 469 0 
L 469 531 
Q 828 903 1448 1529 
Q 2069 2156 2228 2338 
Q 2531 2678 2651 2914 
Q 2772 3150 2772 3378 
Q 2772 3750 2511 3984 
Q 2250 4219 1831 4219 
Q 1534 4219 1204 4116 
Q 875 4013 500 3803 
L 500 4441 
Q 881 4594 1212 4672 
Q 1544 4750 1819 4750 
Q 2544 4750 2975 4387 
Q 3406 4025 3406 3419 
Q 3406 3131 3298 2873 
Q 3191 2616 2906 2266 
Q 2828 2175 2409 1742 
Q 1991 1309 1228 531 
z
" transform="scale(0.015625)"/>
       </defs>
       <use xlink:href="#DejaVuSans-30"/>
       <use xlink:href="#DejaVuSans-2e" x="63.623047"/>
       <use xlink:href="#DejaVuSans-32" x="95.410156"/>
      </g>
     </g>
    </g>
    <g id="xtick_4">
     <g id="line2d_4">
      <g>
       <use xlink:href="#mccf6b9b74f" x="153.586596" y="395.28" style="stroke: #000000; stroke-width: 0.8"/>
      </g>
     </g>
     <g id="text_4">
      <!-- 0.3 -->
      <g transform="translate(145.635034 409.878437) scale(0.1 -0.1)">
       <defs>
        <path id="DejaVuSans-33" d="M 2597 2516 
Q 3050 2419 3304 2112 
Q 3559 1806 3559 1356 
Q 3559 666 3084 287 
Q 2609 -91 1734 -91 
Q 1441 -91 1130 -33 
Q 819 25 488 141 
L 488 750 
Q 750 597 1062 519 
Q 1375 441 1716 441 
Q 2309 441 2620 675 
Q 2931 909 2931 1356 
Q 2931 1769 2642 2001 
Q 2353 2234 1838 2234 
L 1294 2234 
L 1294 2753 
L 1863 2753 
Q 2328 2753 2575 2939 
Q 2822 3125 2822 3475 
Q 2822 3834 2567 4026 
Q 2313 4219 1838 4219 
Q 1578 4219 1281 4162 
Q 984 4106 628 3988 
L 628 4550 
Q 988 4650 1302 4700 
Q 1616 4750 1894 4750 
Q 2613 4750 3031 4423 
Q 3450 4097 3450 3541 
Q 3450 3153 3228 2886 
Q 3006 2619 2597 2516 
z
" transform="scale(0.015625)"/>
       </defs>
       <use xlink:href="#DejaVuSans-30"/>
       <use xlink:href="#DejaVuSans-2e" x="63.623047"/>
       <use xlink:href="#DejaVuSans-33" x="95.410156"/>
      </g>
     </g>
    </g>
    <g id="xtick_5">
     <g id="line2d_5">
      <g>
       <use xlink:href="#mccf6b9b74f" x="185.867588" y="395.28" style="stroke: #000000; stroke-width: 0.8"/>
      </g>
     </g>
     <g id="text_5">
      <!-- 0.4 -->
      <g transform="translate(177.916025 409.878437) scale(0.1 -0.1)">
       <defs>
        <path id="DejaVuSans-34" d="M 2419 4116 
L 825 1625 
L 2419 1625 
L 2419 4116 
z
M 2253 4666 
L 3047 4666 
L 3047 1625 
L 3713 1625 
L 3713 1100 
L 3047 1100 
L 3047 0 
L 2419 0 
L 2419 1100 
L 313 1100 
L 313 1709 
L 2253 4666 
z
" transform="scale(0.015625)"/>
       </defs>
       <use xlink:href="#DejaVuSans-30"/>
       <use xlink:href="#DejaVuSans-2e" x="63.623047"/>
       <use xlink:href="#DejaVuSans-34" x="95.410156"/>
      </g>
     </g>
    </g>
    <g id="xtick_6">
     <g id="line2d_6">
      <g>
       <use xlink:href="#mccf6b9b74f" x="218.14858" y="395.28" style="stroke: #000000; stroke-width: 0.8"/>
      </g>
     </g>
     <g id="text_6">
      <!-- 0.5 -->
      <g transform="translate(210.197017 409.878437) scale(0.1 -0.1)">
       <defs>
        <path id="DejaVuSans-35" d="M 691 4666 
L 3169 4666 
L 3169 4134 
L 1269 4134 
L 1269 2991 
Q 1406 3038 1543 3061 
Q 1681 3084 1819 3084 
Q 2600 3084 3056 2656 
Q 3513 2228 3513 1497 
Q 3513 744 3044 326 
Q 2575 -91 1722 -91 
Q 1428 -91 1123 -41 
Q 819 9 494 109 
L 494 744 
Q 775 591 1075 516 
Q 1375 441 1709 441 
Q 2250 441 2565 725 
Q 2881 1009 2881 1497 
Q 2881 1984 2565 2268 
Q 2250 2553 1709 2553 
Q 1456 2553 1204 2497 
Q 953 2441 691 2322 
L 691 4666 
z
" transform="scale(0.015625)"/>
       </defs>
       <use xlink:href="#DejaVuSans-30"/>
       <use xlink:href="#DejaVuSans-2e" x="63.623047"/>
       <use xlink:href="#DejaVuSans-35" x="95.410156"/>
      </g>
     </g>
    </g>
    <g id="xtick_7">
     <g id="line2d_7">
      <g>
       <use xlink:href="#mccf6b9b74f" x="250.429571" y="395.28" style="stroke: #000000; stroke-width: 0.8"/>
      </g>
     </g>
     <g id="text_7">
      <!-- 0.6 -->
      <g transform="translate(242.478009 409.878437) scale(0.1 -0.1)">
       <defs>
        <path id="DejaVuSans-36" d="M 2113 2584 
Q 1688 2584 1439 2293 
Q 1191 2003 1191 1497 
Q 1191 994 1439 701 
Q 1688 409 2113 409 
Q 2538 409 2786 701 
Q 3034 994 3034 1497 
Q 3034 2003 2786 2293 
Q 2538 2584 2113 2584 
z
M 3366 4563 
L 3366 3988 
Q 3128 4100 2886 4159 
Q 2644 4219 2406 4219 
Q 1781 4219 1451 3797 
Q 1122 3375 1075 2522 
Q 1259 2794 1537 2939 
Q 1816 3084 2150 3084 
Q 2853 3084 3261 2657 
Q 3669 2231 3669 1497 
Q 3669 778 3244 343 
Q 2819 -91 2113 -91 
Q 1303 -91 875 529 
Q 447 1150 447 2328 
Q 447 3434 972 4092 
Q 1497 4750 2381 4750 
Q 2619 4750 2861 4703 
Q 3103 4656 3366 4563 
z
" transform="scale(0.015625)"/>
       </defs>
       <use xlink:href="#DejaVuSans-30"/>
       <use xlink:href="#DejaVuSans-2e" x="63.623047"/>
       <use xlink:href="#DejaVuSans-36" x="95.410156"/>
      </g>
     </g>
    </g>
    <g id="xtick_8">
     <g id="line2d_8">
      <g>
       <use xlink:href="#mccf6b9b74f" x="282.710563" y="395.28" style="stroke: #000000; stroke-width: 0.8"/>
      </g>
     </g>
     <g id="text_8">
      <!-- 0.7 -->
      <g transform="translate(274.759001 409.878437) scale(0.1 -0.1)">
       <defs>
        <path id="DejaVuSans-37" d="M 525 4666 
L 3525 4666 
L 3525 4397 
L 1831 0 
L 1172 0 
L 2766 4134 
L 525 4134 
L 525 4666 
z
" transform="scale(0.015625)"/>
       </defs>
       <use xlink:href="#DejaVuSans-30"/>
       <use xlink:href="#DejaVuSans-2e" x="63.623047"/>
       <use xlink:href="#DejaVuSans-37" x="95.410156"/>
      </g>
     </g>
    </g>
    <g id="xtick_9">
     <g id="line2d_9">
      <g>
       <use xlink:href="#mccf6b9b74f" x="314.991555" y="395.28" style="stroke: #000000; stroke-width: 0.8"/>
      </g>
     </g>
     <g id="text_9">
      <!-- 0.8 -->
      <g transform="translate(307.039992 409.878437) scale(0.1 -0.1)">
       <defs>
        <path id="DejaVuSans-38" d="M 2034 2216 
Q 1584 2216 1326 1975 
Q 1069 1734 1069 1313 
Q 1069 891 1326 650 
Q 1584 409 2034 409 
Q 2484 409 2743 651 
Q 3003 894 3003 1313 
Q 3003 1734 2745 1975 
Q 2488 2216 2034 2216 
z
M 1403 2484 
Q 997 2584 770 2862 
Q 544 3141 544 3541 
Q 544 4100 942 4425 
Q 1341 4750 2034 4750 
Q 2731 4750 3128 4425 
Q 3525 4100 3525 3541 
Q 3525 3141 3298 2862 
Q 3072 2584 2669 2484 
Q 3125 2378 3379 2068 
Q 3634 1759 3634 1313 
Q 3634 634 3220 271 
Q 2806 -91 2034 -91 
Q 1263 -91 848 271 
Q 434 634 434 1313 
Q 434 1759 690 2068 
Q 947 2378 1403 2484 
z
M 1172 3481 
Q 1172 3119 1398 2916 
Q 1625 2713 2034 2713 
Q 2441 2713 2670 2916 
Q 2900 3119 2900 3481 
Q 2900 3844 2670 4047 
Q 2441 4250 2034 4250 
Q 1625 4250 1398 4047 
Q 1172 3844 1172 3481 
z
" transform="scale(0.015625)"/>
       </defs>
       <use xlink:href="#DejaVuSans-30"/>
       <use xlink:href="#DejaVuSans-2e" x="63.623047"/>
       <use xlink:href="#DejaVuSans-38" x="95.410156"/>
      </g>
     </g>
    </g>
    <g id="xtick_10">
     <g id="line2d_10">
      <g>
       <use xlink:href="#mccf6b9b74f" x="347.272546" y="395.28" style="stroke: #000000; stroke-width: 0.8"/>
      </g>
     </g>
     <g id="text_10">
      <!-- 0.9 -->
      <g transform="translate(339.320984 409.878437) scale(0.1 -0.1)">
       <defs>
        <path id="DejaVuSans-39" d="M 703 97 
L 703 672 
Q 941 559 1184 500 
Q 1428 441 1663 441 
Q 2288 441 2617 861 
Q 2947 1281 2994 2138 
Q 2813 1869 2534 1725 
Q 2256 1581 1919 1581 
Q 1219 1581 811 2004 
Q 403 2428 403 3163 
Q 403 3881 828 4315 
Q 1253 4750 1959 4750 
Q 2769 4750 3195 4129 
Q 3622 3509 3622 2328 
Q 3622 1225 3098 567 
Q 2575 -91 1691 -91 
Q 1453 -91 1209 -44 
Q 966 3 703 97 
z
M 1959 2075 
Q 2384 2075 2632 2365 
Q 2881 2656 2881 3163 
Q 2881 3666 2632 3958 
Q 2384 4250 1959 4250 
Q 1534 4250 1286 3958 
Q 1038 3666 1038 3163 
Q 1038 2656 1286 2365 
Q 1534 2075 1959 2075 
z
" transform="scale(0.015625)"/>
       </defs>
       <use xlink:href="#DejaVuSans-30"/>
       <use xlink:href="#DejaVuSans-2e" x="63.623047"/>
       <use xlink:href="#DejaVuSans-39" x="95.410156"/>
      </g>
     </g>
    </g>
    <g id="xtick_11">
     <g id="line2d_11">
      <g>
       <use xlink:href="#mccf6b9b74f" x="379.553538" y="395.28" style="stroke: #000000; stroke-width: 0.8"/>
      </g>
     </g>
     <g id="text_11">
      <!-- 1.0 -->
      <g transform="translate(371.601976 409.878437) scale(0.1 -0.1)">
       <use xlink:href="#DejaVuSans-31"/>
       <use xlink:href="#DejaVuSans-2e" x="63.623047"/>
       <use xlink:href="#DejaVuSans-30" x="95.410156"/>
      </g>
     </g>
    </g>
    <g id="text_12">
     <!-- rASA -->
     <g transform="translate(205.984517 423.556562) scale(0.1 -0.1)">
      <defs>
       <path id="DejaVuSans-72" d="M 2631 2963 
Q 2534 3019 2420 3045 
Q 2306 3072 2169 3072 
Q 1681 3072 1420 2755 
Q 1159 2438 1159 1844 
L 1159 0 
L 581 0 
L 581 3500 
L 1159 3500 
L 1159 2956 
Q 1341 3275 1631 3429 
Q 1922 3584 2338 3584 
Q 2397 3584 2469 3576 
Q 2541 3569 2628 3553 
L 2631 2963 
z
" transform="scale(0.015625)"/>
       <path id="DejaVuSans-41" d="M 2188 4044 
L 1331 1722 
L 3047 1722 
L 2188 4044 
z
M 1831 4666 
L 2547 4666 
L 4325 0 
L 3669 0 
L 3244 1197 
L 1141 1197 
L 716 0 
L 50 0 
L 1831 4666 
z
" transform="scale(0.015625)"/>
       <path id="DejaVuSans-53" d="M 3425 4513 
L 3425 3897 
Q 3066 4069 2747 4153 
Q 2428 4238 2131 4238 
Q 1616 4238 1336 4038 
Q 1056 3838 1056 3469 
Q 1056 3159 1242 3001 
Q 1428 2844 1947 2747 
L 2328 2669 
Q 3034 2534 3370 2195 
Q 3706 1856 3706 1288 
Q 3706 609 3251 259 
Q 2797 -91 1919 -91 
Q 1588 -91 1214 -16 
Q 841 59 441 206 
L 441 856 
Q 825 641 1194 531 
Q 1563 422 1919 422 
Q 2459 422 2753 634 
Q 3047 847 3047 1241 
Q 3047 1584 2836 1778 
Q 2625 1972 2144 2069 
L 1759 2144 
Q 1053 2284 737 2584 
Q 422 2884 422 3419 
Q 422 4038 858 4394 
Q 1294 4750 2059 4750 
Q 2388 4750 2728 4690 
Q 3069 4631 3425 4513 
z
" transform="scale(0.015625)"/>
      </defs>
      <use xlink:href="#DejaVuSans-72"/>
      <use xlink:href="#DejaVuSans-41" x="41.113281"/>
      <use xlink:href="#DejaVuSans-53" x="109.521484"/>
      <use xlink:href="#DejaVuSans-41" x="174.873047"/>
     </g>
    </g>
   </g>
   <g id="matplotlib.axis_2">
    <g id="ytick_1">
     <g id="line2d_12">
      <defs>
       <path id="m2cd07185bb" d="M 0 0 
L -3.5 0 
" style="stroke: #000000; stroke-width: 0.8"/>
      </defs>
      <g>
       <use xlink:href="#m2cd07185bb" x="40.603125" y="386.172797" style="stroke: #000000; stroke-width: 0.8"/>
      </g>
     </g>
     <g id="text_13">
      <!-- 60 -->
      <g transform="translate(20.878125 389.972016) scale(0.1 -0.1)">
       <use xlink:href="#DejaVuSans-36"/>
       <use xlink:href="#DejaVuSans-30" x="63.623047"/>
      </g>
     </g>
    </g>
    <g id="ytick_2">
     <g id="line2d_13">
      <g>
       <use xlink:href="#m2cd07185bb" x="40.603125" y="337.450093" style="stroke: #000000; stroke-width: 0.8"/>
      </g>
     </g>
     <g id="text_14">
      <!-- 65 -->
      <g transform="translate(20.878125 341.249312) scale(0.1 -0.1)">
       <use xlink:href="#DejaVuSans-36"/>
       <use xlink:href="#DejaVuSans-35" x="63.623047"/>
      </g>
     </g>
    </g>
    <g id="ytick_3">
     <g id="line2d_14">
      <g>
       <use xlink:href="#m2cd07185bb" x="40.603125" y="288.72739" style="stroke: #000000; stroke-width: 0.8"/>
      </g>
     </g>
     <g id="text_15">
      <!-- 70 -->
      <g transform="translate(20.878125 292.526608) scale(0.1 -0.1)">
       <use xlink:href="#DejaVuSans-37"/>
       <use xlink:href="#DejaVuSans-30" x="63.623047"/>
      </g>
     </g>
    </g>
    <g id="ytick_4">
     <g id="line2d_15">
      <g>
       <use xlink:href="#m2cd07185bb" x="40.603125" y="240.004686" style="stroke: #000000; stroke-width: 0.8"/>
      </g>
     </g>
     <g id="text_16">
      <!-- 75 -->
      <g transform="translate(20.878125 243.803905) scale(0.1 -0.1)">
       <use xlink:href="#DejaVuSans-37"/>
       <use xlink:href="#DejaVuSans-35" x="63.623047"/>
      </g>
     </g>
    </g>
    <g id="ytick_5">
     <g id="line2d_16">
      <g>
       <use xlink:href="#m2cd07185bb" x="40.603125" y="191.281982" style="stroke: #000000; stroke-width: 0.8"/>
      </g>
     </g>
     <g id="text_17">
      <!-- 80 -->
      <g transform="translate(20.878125 195.081201) scale(0.1 -0.1)">
       <use xlink:href="#DejaVuSans-38"/>
       <use xlink:href="#DejaVuSans-30" x="63.623047"/>
      </g>
     </g>
    </g>
    <g id="ytick_6">
     <g id="line2d_17">
      <g>
       <use xlink:href="#m2cd07185bb" x="40.603125" y="142.559278" style="stroke: #000000; stroke-width: 0.8"/>
      </g>
     </g>
     <g id="text_18">
      <!-- 85 -->
      <g transform="translate(20.878125 146.358497) scale(0.1 -0.1)">
       <use xlink:href="#DejaVuSans-38"/>
       <use xlink:href="#DejaVuSans-35" x="63.623047"/>
      </g>
     </g>
    </g>
    <g id="ytick_7">
     <g id="line2d_18">
      <g>
       <use xlink:href="#m2cd07185bb" x="40.603125" y="93.836575" style="stroke: #000000; stroke-width: 0.8"/>
      </g>
     </g>
     <g id="text_19">
      <!-- 90 -->
      <g transform="translate(20.878125 97.635793) scale(0.1 -0.1)">
       <use xlink:href="#DejaVuSans-39"/>
       <use xlink:href="#DejaVuSans-30" x="63.623047"/>
      </g>
     </g>
    </g>
    <g id="ytick_8">
     <g id="line2d_19">
      <g>
       <use xlink:href="#m2cd07185bb" x="40.603125" y="45.113871" style="stroke: #000000; stroke-width: 0.8"/>
      </g>
     </g>
     <g id="text_20">
      <!-- 95 -->
      <g transform="translate(20.878125 48.91309) scale(0.1 -0.1)">
       <use xlink:href="#DejaVuSans-39"/>
       <use xlink:href="#DejaVuSans-35" x="63.623047"/>
      </g>
     </g>
    </g>
    <g id="text_21">
     <!-- pLDDT -->
     <g transform="translate(14.798438 217.954062) rotate(-90) scale(0.1 -0.1)">
      <defs>
       <path id="DejaVuSans-70" d="M 1159 525 
L 1159 -1331 
L 581 -1331 
L 581 3500 
L 1159 3500 
L 1159 2969 
Q 1341 3281 1617 3432 
Q 1894 3584 2278 3584 
Q 2916 3584 3314 3078 
Q 3713 2572 3713 1747 
Q 3713 922 3314 415 
Q 2916 -91 2278 -91 
Q 1894 -91 1617 61 
Q 1341 213 1159 525 
z
M 3116 1747 
Q 3116 2381 2855 2742 
Q 2594 3103 2138 3103 
Q 1681 3103 1420 2742 
Q 1159 2381 1159 1747 
Q 1159 1113 1420 752 
Q 1681 391 2138 391 
Q 2594 391 2855 752 
Q 3116 1113 3116 1747 
z
" transform="scale(0.015625)"/>
       <path id="DejaVuSans-4c" d="M 628 4666 
L 1259 4666 
L 1259 531 
L 3531 531 
L 3531 0 
L 628 0 
L 628 4666 
z
" transform="scale(0.015625)"/>
       <path id="DejaVuSans-44" d="M 1259 4147 
L 1259 519 
L 2022 519 
Q 2988 519 3436 956 
Q 3884 1394 3884 2338 
Q 3884 3275 3436 3711 
Q 2988 4147 2022 4147 
L 1259 4147 
z
M 628 4666 
L 1925 4666 
Q 3281 4666 3915 4102 
Q 4550 3538 4550 2338 
Q 4550 1131 3912 565 
Q 3275 0 1925 0 
L 628 0 
L 628 4666 
z
" transform="scale(0.015625)"/>
       <path id="DejaVuSans-54" d="M -19 4666 
L 3928 4666 
L 3928 4134 
L 2272 4134 
L 2272 0 
L 1638 0 
L 1638 4134 
L -19 4134 
L -19 4666 
z
" transform="scale(0.015625)"/>
      </defs>
      <use xlink:href="#DejaVuSans-70"/>
      <use xlink:href="#DejaVuSans-4c" x="63.476562"/>
      <use xlink:href="#DejaVuSans-44" x="119.189453"/>
      <use xlink:href="#DejaVuSans-44" x="196.191406"/>
      <use xlink:href="#DejaVuSans-54" x="273.193359"/>
     </g>
    </g>
   </g>
   <g id="line2d_20">
    <path d="M 56.743621 175.171706 
L 89.024613 181.887568 
L 121.305604 186.04969 
L 153.586596 189.033796 
L 185.867588 198.795614 
L 218.14858 211.078608 
L 250.429571 221.002925 
L 282.710563 227.354471 
L 314.991555 236.796966 
L 347.272546 245.750259 
L 379.553538 238.06167 
" clip-path="url(#p3989e5c4d2)" style="fill: none; stroke: #1f77b4; stroke-width: 1.5; stroke-linecap: square"/>
   </g>
   <g id="line2d_21">
    <path d="M 56.743621 25.802478 
L 89.024613 34.495259 
L 121.305604 37.930992 
L 153.586596 40.720778 
L 185.867588 43.114405 
L 218.14858 47.051367 
L 250.429571 51.296937 
L 282.710563 57.821795 
L 314.991555 69.582656 
L 347.272546 82.888538 
L 379.553538 125.558792 
" clip-path="url(#p3989e5c4d2)" style="fill: none; stroke-dasharray: 6,2.25; stroke-dashoffset: 0; stroke: #ff7f0e; stroke-width: 1.5"/>
   </g>
   <g id="line2d_22">
    <path d="M 56.743621 49.651919 
L 89.024613 65.023726 
L 121.305604 66.080691 
L 153.586596 69.735596 
L 185.867588 71.583798 
L 218.14858 76.745389 
L 250.429571 82.176332 
L 282.710563 89.41045 
L 314.991555 104.440523 
L 347.272546 112.553103 
L 379.553538 159.717575 
" clip-path="url(#p3989e5c4d2)" style="fill: none; stroke-dasharray: 1.5,1.5; stroke-dashoffset: 0; stroke: #2ca02c; stroke-width: 1.5"/>
   </g>
   <g id="line2d_23">
    <path d="M 56.743621 30.398833 
L 89.024613 40.04058 
L 121.305604 43.405821 
L 153.586596 44.293081 
L 185.867588 48.327903 
L 218.14858 52.921174 
L 250.429571 57.211501 
L 282.710563 62.554439 
L 314.991555 76.748 
L 347.272546 83.021837 
L 379.553538 129.139264 
" clip-path="url(#p3989e5c4d2)" style="fill: none; stroke-dasharray: 4.5,1.875,2.25,1.875; stroke-dashoffset: 0; stroke: #d62728; stroke-width: 1.5"/>
   </g>
   <g id="line2d_24">
    <path d="M 56.743621 44.668298 
L 89.024613 57.436415 
L 121.305604 60.772622 
L 153.586596 62.11762 
L 185.867588 65.827542 
L 218.14858 70.664062 
L 250.429571 75.606308 
L 282.710563 80.287628 
L 314.991555 95.825557 
L 347.272546 103.632692 
L 379.553538 148.985645 
" clip-path="url(#p3989e5c4d2)" style="fill: none; stroke-dasharray: 7.5,1.5,1.5,1.5; stroke-dashoffset: 0; stroke: #9467bd; stroke-width: 1.5"/>
   </g>
   <g id="line2d_25">
    <path d="M 56.743621 92.708651 
L 89.024613 116.706105 
L 121.305604 126.132162 
L 153.586596 135.553186 
L 185.867588 142.852161 
L 218.14858 156.418396 
L 250.429571 169.949786 
L 282.710563 180.90048 
L 314.991555 213.326752 
L 347.272546 246.245198 
L 379.553538 310.801361 
" clip-path="url(#p3989e5c4d2)" style="fill: none; stroke-dasharray: 4.5,1.875,1.875,1.875,1.875,1.875; stroke-dashoffset: 0; stroke: #8c564b; stroke-width: 1.5"/>
   </g>
   <g id="line2d_26">
    <path d="M 56.743621 27.379293 
L 89.024613 36.811258 
L 121.305604 39.974715 
L 153.586596 42.900393 
L 185.867588 45.457963 
L 218.14858 49.167538 
L 250.429571 54.337358 
L 282.710563 60.670576 
L 314.991555 72.926435 
L 347.272546 87.116147 
L 379.553538 129.591422 
" clip-path="url(#p3989e5c4d2)" style="fill: none; stroke-dasharray: 6,1.5,6,1.5,1.5,1.5; stroke-dashoffset: 0; stroke: #e377c2; stroke-width: 1.5"/>
   </g>
   <g id="line2d_27">
    <path d="M 56.743621 42.59502 
L 89.024613 55.745999 
L 121.305604 59.611719 
L 153.586596 63.131532 
L 185.867588 66.250621 
L 218.14858 70.582806 
L 250.429571 76.073394 
L 282.710563 83.80035 
L 314.991555 97.837257 
L 347.272546 114.733557 
L 379.553538 157.9351 
" clip-path="url(#p3989e5c4d2)" style="fill: none; stroke-dasharray: 4.5,1.875,4.5,1.875,1.875,1.875; stroke-dashoffset: 0; stroke: #7f7f7f; stroke-width: 1.5"/>
   </g>
   <g id="line2d_28"/>
   <g id="line2d_29"/>
   <g id="line2d_30"/>
   <g id="line2d_31"/>
   <g id="line2d_32"/>
   <g id="line2d_33"/>
   <g id="line2d_34"/>
   <g id="line2d_35"/>
   <g id="patch_3">
    <path d="M 40.603125 395.28 
L 40.603125 7.2 
" style="fill: none; stroke: #000000; stroke-width: 0.8; stroke-linejoin: miter; stroke-linecap: square"/>
   </g>
   <g id="patch_4">
    <path d="M 395.694034 395.28 
L 395.694034 7.2 
" style="fill: none; stroke: #000000; stroke-width: 0.8; stroke-linejoin: miter; stroke-linecap: square"/>
   </g>
   <g id="patch_5">
    <path d="M 40.603125 395.28 
L 395.694034 395.28 
" style="fill: none; stroke: #000000; stroke-width: 0.8; stroke-linejoin: miter; stroke-linecap: square"/>
   </g>
   <g id="patch_6">
    <path d="M 40.603125 7.2 
L 395.694034 7.2 
" style="fill: none; stroke: #000000; stroke-width: 0.8; stroke-linejoin: miter; stroke-linecap: square"/>
   </g>
  </g>
  <g id="axes_2">
   <g id="patch_7">
    <path d="M 466.712216 395.28 
L 821.803125 395.28 
L 821.803125 7.2 
L 466.712216 7.2 
L 466.712216 395.28 
z
" style="fill: none"/>
   </g>
   <g id="PolyCollection_9">
    <defs>
     <path id="m4c43ea5040" d="M 482.852712 -461.544409 
L 482.852712 -459.393536 
L 515.133704 -450.398003 
L 547.414695 -445.185274 
L 579.695687 -440.054101 
L 611.976679 -436.640449 
L 644.25767 -430.747384 
L 676.538662 -423.485419 
L 708.819654 -419.609598 
L 741.100646 -417.747478 
L 773.381637 -416.470312 
L 805.662629 -414.98614 
L 805.662629 -424.641643 
L 805.662629 -424.641643 
L 773.381637 -423.490788 
L 741.100646 -423.791286 
L 708.819654 -424.654476 
L 676.538662 -427.769347 
L 644.25767 -434.540958 
L 611.976679 -439.993686 
L 579.695687 -443.357097 
L 547.414695 -448.182421 
L 515.133704 -453.117072 
L 482.852712 -461.544409 
z
" style="stroke: #1f77b4; stroke-opacity: 0.2"/>
    </defs>
    <g clip-path="url(#p06a829ab27)">
     <use xlink:href="#m4c43ea5040" x="0" y="494.5" style="fill: #1f77b4; fill-opacity: 0.2; stroke: #1f77b4; stroke-opacity: 0.2"/>
    </g>
   </g>
   <g id="PolyCollection_10">
    <defs>
     <path id="ma2f2802185" d="M 482.852712 -442.968442 
L 482.852712 -439.712163 
L 515.133704 -427.26243 
L 547.414695 -421.67697 
L 579.695687 -414.594047 
L 611.976679 -410.163858 
L 644.25767 -403.149523 
L 676.538662 -394.149045 
L 708.819654 -386.63526 
L 741.100646 -380.435159 
L 773.381637 -372.868224 
L 805.662629 -331.892515 
L 805.662629 -352.609473 
L 805.662629 -352.609473 
L 773.381637 -385.369228 
L 741.100646 -389.350409 
L 708.819654 -393.317617 
L 676.538662 -399.859912 
L 644.25767 -407.923353 
L 611.976679 -414.851898 
L 579.695687 -419.123847 
L 547.414695 -425.979767 
L 515.133704 -431.120607 
L 482.852712 -442.968442 
z
" style="stroke: #ff7f0e; stroke-opacity: 0.2"/>
    </defs>
    <g clip-path="url(#p06a829ab27)">
     <use xlink:href="#ma2f2802185" x="0" y="494.5" style="fill: #ff7f0e; fill-opacity: 0.2; stroke: #ff7f0e; stroke-opacity: 0.2"/>
    </g>
   </g>
   <g id="PolyCollection_11">
    <defs>
     <path id="maadfae0b8c" d="M 482.852712 -409.1798 
L 482.852712 -402.895524 
L 515.133704 -383.304346 
L 547.414695 -378.048739 
L 579.695687 -371.137884 
L 611.976679 -364.582125 
L 644.25767 -355.472484 
L 676.538662 -349.94655 
L 708.819654 -340.034741 
L 741.100646 -329.764972 
L 773.381637 -328.56535 
L 805.662629 -283.543055 
L 805.662629 -309.934291 
L 805.662629 -309.934291 
L 773.381637 -346.719893 
L 741.100646 -345.82173 
L 708.819654 -351.441788 
L 676.538662 -358.911931 
L 644.25767 -363.831271 
L 611.976679 -372.549454 
L 579.695687 -378.975301 
L 547.414695 -385.91283 
L 515.133704 -390.494406 
L 482.852712 -409.1798 
z
" style="stroke: #2ca02c; stroke-opacity: 0.2"/>
    </defs>
    <g clip-path="url(#p06a829ab27)">
     <use xlink:href="#maadfae0b8c" x="0" y="494.5" style="fill: #2ca02c; fill-opacity: 0.2; stroke: #2ca02c; stroke-opacity: 0.2"/>
    </g>
   </g>
   <g id="PolyCollection_12">
    <defs>
     <path id="m24287b59cd" d="M 482.852712 -431.460284 
L 482.852712 -426.328778 
L 515.133704 -412.142315 
L 547.414695 -405.539096 
L 579.695687 -401.003046 
L 611.976679 -393.523831 
L 644.25767 -384.921099 
L 676.538662 -376.160234 
L 708.819654 -369.797501 
L 741.100646 -361.2796 
L 773.381637 -360.655551 
L 805.662629 -320.29899 
L 805.662629 -341.807872 
L 805.662629 -341.807872 
L 773.381637 -373.420874 
L 741.100646 -372.876365 
L 708.819654 -378.324361 
L 676.538662 -383.825518 
L 644.25767 -391.760591 
L 611.976679 -400.124905 
L 579.695687 -407.250974 
L 547.414695 -412.050973 
L 515.133704 -418.101518 
L 482.852712 -431.460284 
z
" style="stroke: #d62728; stroke-opacity: 0.2"/>
    </defs>
    <g clip-path="url(#p06a829ab27)">
     <use xlink:href="#m24287b59cd" x="0" y="494.5" style="fill: #d62728; fill-opacity: 0.2; stroke: #d62728; stroke-opacity: 0.2"/>
    </g>
   </g>
   <g id="PolyCollection_13">
    <defs>
     <path id="m91f70bf1f5" d="M 482.852712 -412.868869 
L 482.852712 -407.721687 
L 515.133704 -390.574037 
L 547.414695 -383.076183 
L 579.695687 -378.655247 
L 611.976679 -371.488881 
L 644.25767 -365.613785 
L 676.538662 -355.421167 
L 708.819654 -352.230235 
L 741.100646 -344.254685 
L 773.381637 -343.464574 
L 805.662629 -301.659071 
L 805.662629 -322.529096 
L 805.662629 -322.529096 
L 773.381637 -356.834449 
L 741.100646 -355.316002 
L 708.819654 -360.913952 
L 676.538662 -363.071121 
L 644.25767 -372.577091 
L 611.976679 -378.290312 
L 579.695687 -385.346516 
L 547.414695 -389.771553 
L 515.133704 -396.805956 
L 482.852712 -412.868869 
z
" style="stroke: #9467bd; stroke-opacity: 0.2"/>
    </defs>
    <g clip-path="url(#p06a829ab27)">
     <use xlink:href="#m91f70bf1f5" x="0" y="494.5" style="fill: #9467bd; fill-opacity: 0.2; stroke: #9467bd; stroke-opacity: 0.2"/>
    </g>
   </g>
   <g id="PolyCollection_14">
    <defs>
     <path id="m7cfe16c4ea" d="M 482.852712 -329.453376 
L 482.852712 -321.307217 
L 515.133704 -281.444264 
L 547.414695 -274.891934 
L 579.695687 -262.100068 
L 611.976679 -256.257317 
L 644.25767 -245.581215 
L 676.538662 -234.174719 
L 708.819654 -225.561996 
L 741.100646 -197.987103 
L 773.381637 -173.121964 
L 805.662629 -116.86 
L 805.662629 -145.347044 
L 805.662629 -145.347044 
L 773.381637 -195.512851 
L 741.100646 -214.499136 
L 708.819654 -238.993394 
L 676.538662 -246.38985 
L 644.25767 -256.748119 
L 611.976679 -267.14638 
L 579.695687 -273.405451 
L 547.414695 -285.373872 
L 515.133704 -291.02489 
L 482.852712 -329.453376 
z
" style="stroke: #8c564b; stroke-opacity: 0.2"/>
    </defs>
    <g clip-path="url(#p06a829ab27)">
     <use xlink:href="#m7cfe16c4ea" x="0" y="494.5" style="fill: #8c564b; fill-opacity: 0.2; stroke: #8c564b; stroke-opacity: 0.2"/>
    </g>
   </g>
   <g id="PolyCollection_15">
    <defs>
     <path id="m2be49dbd95" d="M 482.852712 -451.788361 
L 482.852712 -448.561536 
L 515.133704 -438.713244 
L 547.414695 -434.483626 
L 579.695687 -429.557044 
L 611.976679 -427.319964 
L 644.25767 -420.759765 
L 676.538662 -414.554198 
L 708.819654 -406.896243 
L 741.100646 -399.911817 
L 773.381637 -393.976096 
L 805.662629 -350.24732 
L 805.662629 -372.624875 
L 805.662629 -372.624875 
L 773.381637 -405.656 
L 741.100646 -409.397366 
L 708.819654 -413.664674 
L 676.538662 -419.839828 
L 644.25767 -425.327002 
L 611.976679 -431.74415 
L 579.695687 -433.908667 
L 547.414695 -438.464597 
L 515.133704 -442.222779 
L 482.852712 -451.788361 
z
" style="stroke: #e377c2; stroke-opacity: 0.2"/>
    </defs>
    <g clip-path="url(#p06a829ab27)">
     <use xlink:href="#m2be49dbd95" x="0" y="494.5" style="fill: #e377c2; fill-opacity: 0.2; stroke: #e377c2; stroke-opacity: 0.2"/>
    </g>
   </g>
   <g id="PolyCollection_16">
    <defs>
     <path id="mb483de7abd" d="M 482.852712 -421.303017 
L 482.852712 -417.516985 
L 515.133704 -402.26888 
L 547.414695 -395.610029 
L 579.695687 -386.940752 
L 611.976679 -381.662879 
L 644.25767 -374.050875 
L 676.538662 -365.446415 
L 708.819654 -356.854582 
L 741.100646 -349.893059 
L 773.381637 -344.683142 
L 805.662629 -298.779581 
L 805.662629 -320.832533 
L 805.662629 -320.832533 
L 773.381637 -357.237801 
L 741.100646 -359.670015 
L 708.819654 -364.486848 
L 676.538662 -371.659444 
L 644.25767 -379.586583 
L 611.976679 -387.210785 
L 579.695687 -392.399114 
L 547.414695 -400.782232 
L 515.133704 -406.721989 
L 482.852712 -421.303017 
z
" style="stroke: #7f7f7f; stroke-opacity: 0.2"/>
    </defs>
    <g clip-path="url(#p06a829ab27)">
     <use xlink:href="#mb483de7abd" x="0" y="494.5" style="fill: #7f7f7f; fill-opacity: 0.2; stroke: #7f7f7f; stroke-opacity: 0.2"/>
    </g>
   </g>
   <g id="matplotlib.axis_3">
    <g id="xtick_12">
     <g id="line2d_36">
      <g>
       <use xlink:href="#mccf6b9b74f" x="482.852712" y="395.28" style="stroke: #000000; stroke-width: 0.8"/>
      </g>
     </g>
     <g id="text_22">
      <!-- 0.0 -->
      <g transform="translate(474.901149 409.878437) scale(0.1 -0.1)">
       <use xlink:href="#DejaVuSans-30"/>
       <use xlink:href="#DejaVuSans-2e" x="63.623047"/>
       <use xlink:href="#DejaVuSans-30" x="95.410156"/>
      </g>
     </g>
    </g>
    <g id="xtick_13">
     <g id="line2d_37">
      <g>
       <use xlink:href="#mccf6b9b74f" x="515.133704" y="395.28" style="stroke: #000000; stroke-width: 0.8"/>
      </g>
     </g>
     <g id="text_23">
      <!-- 0.1 -->
      <g transform="translate(507.182141 409.878437) scale(0.1 -0.1)">
       <use xlink:href="#DejaVuSans-30"/>
       <use xlink:href="#DejaVuSans-2e" x="63.623047"/>
       <use xlink:href="#DejaVuSans-31" x="95.410156"/>
      </g>
     </g>
    </g>
    <g id="xtick_14">
     <g id="line2d_38">
      <g>
       <use xlink:href="#mccf6b9b74f" x="547.414695" y="395.28" style="stroke: #000000; stroke-width: 0.8"/>
      </g>
     </g>
     <g id="text_24">
      <!-- 0.2 -->
      <g transform="translate(539.463133 409.878437) scale(0.1 -0.1)">
       <use xlink:href="#DejaVuSans-30"/>
       <use xlink:href="#DejaVuSans-2e" x="63.623047"/>
       <use xlink:href="#DejaVuSans-32" x="95.410156"/>
      </g>
     </g>
    </g>
    <g id="xtick_15">
     <g id="line2d_39">
      <g>
       <use xlink:href="#mccf6b9b74f" x="579.695687" y="395.28" style="stroke: #000000; stroke-width: 0.8"/>
      </g>
     </g>
     <g id="text_25">
      <!-- 0.3 -->
      <g transform="translate(571.744124 409.878437) scale(0.1 -0.1)">
       <use xlink:href="#DejaVuSans-30"/>
       <use xlink:href="#DejaVuSans-2e" x="63.623047"/>
       <use xlink:href="#DejaVuSans-33" x="95.410156"/>
      </g>
     </g>
    </g>
    <g id="xtick_16">
     <g id="line2d_40">
      <g>
       <use xlink:href="#mccf6b9b74f" x="611.976679" y="395.28" style="stroke: #000000; stroke-width: 0.8"/>
      </g>
     </g>
     <g id="text_26">
      <!-- 0.4 -->
      <g transform="translate(604.025116 409.878437) scale(0.1 -0.1)">
       <use xlink:href="#DejaVuSans-30"/>
       <use xlink:href="#DejaVuSans-2e" x="63.623047"/>
       <use xlink:href="#DejaVuSans-34" x="95.410156"/>
      </g>
     </g>
    </g>
    <g id="xtick_17">
     <g id="line2d_41">
      <g>
       <use xlink:href="#mccf6b9b74f" x="644.25767" y="395.28" style="stroke: #000000; stroke-width: 0.8"/>
      </g>
     </g>
     <g id="text_27">
      <!-- 0.5 -->
      <g transform="translate(636.306108 409.878437) scale(0.1 -0.1)">
       <use xlink:href="#DejaVuSans-30"/>
       <use xlink:href="#DejaVuSans-2e" x="63.623047"/>
       <use xlink:href="#DejaVuSans-35" x="95.410156"/>
      </g>
     </g>
    </g>
    <g id="xtick_18">
     <g id="line2d_42">
      <g>
       <use xlink:href="#mccf6b9b74f" x="676.538662" y="395.28" style="stroke: #000000; stroke-width: 0.8"/>
      </g>
     </g>
     <g id="text_28">
      <!-- 0.6 -->
      <g transform="translate(668.5871 409.878437) scale(0.1 -0.1)">
       <use xlink:href="#DejaVuSans-30"/>
       <use xlink:href="#DejaVuSans-2e" x="63.623047"/>
       <use xlink:href="#DejaVuSans-36" x="95.410156"/>
      </g>
     </g>
    </g>
    <g id="xtick_19">
     <g id="line2d_43">
      <g>
       <use xlink:href="#mccf6b9b74f" x="708.819654" y="395.28" style="stroke: #000000; stroke-width: 0.8"/>
      </g>
     </g>
     <g id="text_29">
      <!-- 0.7 -->
      <g transform="translate(700.868091 409.878437) scale(0.1 -0.1)">
       <use xlink:href="#DejaVuSans-30"/>
       <use xlink:href="#DejaVuSans-2e" x="63.623047"/>
       <use xlink:href="#DejaVuSans-37" x="95.410156"/>
      </g>
     </g>
    </g>
    <g id="xtick_20">
     <g id="line2d_44">
      <g>
       <use xlink:href="#mccf6b9b74f" x="741.100646" y="395.28" style="stroke: #000000; stroke-width: 0.8"/>
      </g>
     </g>
     <g id="text_30">
      <!-- 0.8 -->
      <g transform="translate(733.149083 409.878437) scale(0.1 -0.1)">
       <use xlink:href="#DejaVuSans-30"/>
       <use xlink:href="#DejaVuSans-2e" x="63.623047"/>
       <use xlink:href="#DejaVuSans-38" x="95.410156"/>
      </g>
     </g>
    </g>
    <g id="xtick_21">
     <g id="line2d_45">
      <g>
       <use xlink:href="#mccf6b9b74f" x="773.381637" y="395.28" style="stroke: #000000; stroke-width: 0.8"/>
      </g>
     </g>
     <g id="text_31">
      <!-- 0.9 -->
      <g transform="translate(765.430075 409.878437) scale(0.1 -0.1)">
       <use xlink:href="#DejaVuSans-30"/>
       <use xlink:href="#DejaVuSans-2e" x="63.623047"/>
       <use xlink:href="#DejaVuSans-39" x="95.410156"/>
      </g>
     </g>
    </g>
    <g id="xtick_22">
     <g id="line2d_46">
      <g>
       <use xlink:href="#mccf6b9b74f" x="805.662629" y="395.28" style="stroke: #000000; stroke-width: 0.8"/>
      </g>
     </g>
     <g id="text_32">
      <!-- 1.0 -->
      <g transform="translate(797.711067 409.878437) scale(0.1 -0.1)">
       <use xlink:href="#DejaVuSans-31"/>
       <use xlink:href="#DejaVuSans-2e" x="63.623047"/>
       <use xlink:href="#DejaVuSans-30" x="95.410156"/>
      </g>
     </g>
    </g>
    <g id="text_33">
     <!-- rASA -->
     <g transform="translate(632.093608 423.556562) scale(0.1 -0.1)">
      <use xlink:href="#DejaVuSans-72"/>
      <use xlink:href="#DejaVuSans-41" x="41.113281"/>
      <use xlink:href="#DejaVuSans-53" x="109.521484"/>
      <use xlink:href="#DejaVuSans-41" x="174.873047"/>
     </g>
    </g>
   </g>
   <g id="matplotlib.axis_4">
    <g id="ytick_9">
     <g id="line2d_47">
      <g>
       <use xlink:href="#m2cd07185bb" x="466.712216" y="386.172797" style="stroke: #000000; stroke-width: 0.8"/>
      </g>
     </g>
    </g>
    <g id="ytick_10">
     <g id="line2d_48">
      <g>
       <use xlink:href="#m2cd07185bb" x="466.712216" y="337.450093" style="stroke: #000000; stroke-width: 0.8"/>
      </g>
     </g>
    </g>
    <g id="ytick_11">
     <g id="line2d_49">
      <g>
       <use xlink:href="#m2cd07185bb" x="466.712216" y="288.72739" style="stroke: #000000; stroke-width: 0.8"/>
      </g>
     </g>
    </g>
    <g id="ytick_12">
     <g id="line2d_50">
      <g>
       <use xlink:href="#m2cd07185bb" x="466.712216" y="240.004686" style="stroke: #000000; stroke-width: 0.8"/>
      </g>
     </g>
    </g>
    <g id="ytick_13">
     <g id="line2d_51">
      <g>
       <use xlink:href="#m2cd07185bb" x="466.712216" y="191.281982" style="stroke: #000000; stroke-width: 0.8"/>
      </g>
     </g>
    </g>
    <g id="ytick_14">
     <g id="line2d_52">
      <g>
       <use xlink:href="#m2cd07185bb" x="466.712216" y="142.559278" style="stroke: #000000; stroke-width: 0.8"/>
      </g>
     </g>
    </g>
    <g id="ytick_15">
     <g id="line2d_53">
      <g>
       <use xlink:href="#m2cd07185bb" x="466.712216" y="93.836575" style="stroke: #000000; stroke-width: 0.8"/>
      </g>
     </g>
    </g>
    <g id="ytick_16">
     <g id="line2d_54">
      <g>
       <use xlink:href="#m2cd07185bb" x="466.712216" y="45.113871" style="stroke: #000000; stroke-width: 0.8"/>
      </g>
     </g>
    </g>
    <g id="text_34">
     <!-- lDDT % -->
     <g transform="translate(457.132528 219.722812) rotate(-90) scale(0.1 -0.1)">
      <defs>
       <path id="DejaVuSans-6c" d="M 603 4863 
L 1178 4863 
L 1178 0 
L 603 0 
L 603 4863 
z
" transform="scale(0.015625)"/>
       <path id="DejaVuSans-20" transform="scale(0.015625)"/>
       <path id="DejaVuSans-25" d="M 4653 2053 
Q 4381 2053 4226 1822 
Q 4072 1591 4072 1178 
Q 4072 772 4226 539 
Q 4381 306 4653 306 
Q 4919 306 5073 539 
Q 5228 772 5228 1178 
Q 5228 1588 5073 1820 
Q 4919 2053 4653 2053 
z
M 4653 2450 
Q 5147 2450 5437 2106 
Q 5728 1763 5728 1178 
Q 5728 594 5436 251 
Q 5144 -91 4653 -91 
Q 4153 -91 3862 251 
Q 3572 594 3572 1178 
Q 3572 1766 3864 2108 
Q 4156 2450 4653 2450 
z
M 1428 4353 
Q 1159 4353 1004 4120 
Q 850 3888 850 3481 
Q 850 3069 1003 2837 
Q 1156 2606 1428 2606 
Q 1700 2606 1854 2837 
Q 2009 3069 2009 3481 
Q 2009 3884 1853 4118 
Q 1697 4353 1428 4353 
z
M 4250 4750 
L 4750 4750 
L 1831 -91 
L 1331 -91 
L 4250 4750 
z
M 1428 4750 
Q 1922 4750 2215 4408 
Q 2509 4066 2509 3481 
Q 2509 2891 2217 2550 
Q 1925 2209 1428 2209 
Q 931 2209 642 2551 
Q 353 2894 353 3481 
Q 353 4063 643 4406 
Q 934 4750 1428 4750 
z
" transform="scale(0.015625)"/>
      </defs>
      <use xlink:href="#DejaVuSans-6c"/>
      <use xlink:href="#DejaVuSans-44" x="27.783203"/>
      <use xlink:href="#DejaVuSans-44" x="104.785156"/>
      <use xlink:href="#DejaVuSans-54" x="181.787109"/>
      <use xlink:href="#DejaVuSans-20" x="242.871094"/>
      <use xlink:href="#DejaVuSans-25" x="274.658203"/>
     </g>
    </g>
   </g>
   <g id="line2d_55">
    <path d="M 482.852712 33.996514 
L 515.133704 42.721371 
L 547.414695 47.724105 
L 579.695687 52.806568 
L 611.976679 56.153866 
L 644.25767 61.868852 
L 676.538662 68.861379 
L 708.819654 72.307701 
L 741.100646 73.799972 
L 773.381637 74.482695 
L 805.662629 74.601886 
" clip-path="url(#p06a829ab27)" style="fill: none; stroke: #1f77b4; stroke-width: 1.5; stroke-linecap: square"/>
   </g>
   <g id="line2d_56">
    <path d="M 482.852712 53.194168 
L 515.133704 65.392435 
L 547.414695 70.726983 
L 579.695687 77.549836 
L 611.976679 81.994732 
L 644.25767 88.921185 
L 676.538662 97.313576 
L 708.819654 104.739783 
L 741.100646 109.596542 
L 773.381637 115.287584 
L 805.662629 151.967503 
" clip-path="url(#p06a829ab27)" style="fill: none; stroke-dasharray: 6,2.25; stroke-dashoffset: 0; stroke: #ff7f0e; stroke-width: 1.5"/>
   </g>
   <g id="line2d_57">
    <path d="M 482.852712 88.373027 
L 515.133704 107.412375 
L 547.414695 112.467525 
L 579.695687 119.29048 
L 611.976679 125.836322 
L 644.25767 134.772176 
L 676.538662 140.032041 
L 708.819654 148.368885 
L 741.100646 157.04046 
L 773.381637 156.801609 
L 805.662629 197.585662 
" clip-path="url(#p06a829ab27)" style="fill: none; stroke-dasharray: 1.5,1.5; stroke-dashoffset: 0; stroke: #2ca02c; stroke-width: 1.5"/>
   </g>
   <g id="line2d_58">
    <path d="M 482.852712 65.628338 
L 515.133704 79.113549 
L 547.414695 85.569747 
L 579.695687 90.468743 
L 611.976679 97.660454 
L 644.25767 106.140155 
L 676.538662 114.443796 
L 708.819654 120.243424 
L 741.100646 127.407736 
L 773.381637 127.583932 
L 805.662629 163.054433 
" clip-path="url(#p06a829ab27)" style="fill: none; stroke-dasharray: 4.5,1.875,2.25,1.875; stroke-dashoffset: 0; stroke: #d62728; stroke-width: 1.5"/>
   </g>
   <g id="line2d_59">
    <path d="M 482.852712 84.216931 
L 515.133704 100.739916 
L 547.414695 108.019265 
L 579.695687 112.263839 
L 611.976679 119.567838 
L 644.25767 125.584309 
L 676.538662 135.191288 
L 708.819654 137.944988 
L 741.100646 144.989932 
L 773.381637 144.12862 
L 805.662629 182.313555 
" clip-path="url(#p06a829ab27)" style="fill: none; stroke-dasharray: 7.5,1.5,1.5,1.5; stroke-dashoffset: 0; stroke: #9467bd; stroke-width: 1.5"/>
   </g>
   <g id="line2d_60">
    <path d="M 482.852712 168.855168 
L 515.133704 208.136334 
L 547.414695 214.466224 
L 579.695687 226.617028 
L 611.976679 232.56598 
L 644.25767 243.125314 
L 676.538662 254.146994 
L 708.819654 262.174229 
L 741.100646 288.555033 
L 773.381637 310.1123 
L 805.662629 363.100657 
" clip-path="url(#p06a829ab27)" style="fill: none; stroke-dasharray: 4.5,1.875,1.875,1.875,1.875,1.875; stroke-dashoffset: 0; stroke: #8c564b; stroke-width: 1.5"/>
   </g>
   <g id="line2d_61">
    <path d="M 482.852712 44.316091 
L 515.133704 54.100858 
L 547.414695 58.090393 
L 579.695687 62.818477 
L 611.976679 64.910675 
L 644.25767 71.32524 
L 676.538662 77.261545 
L 708.819654 84.288066 
L 741.100646 89.919269 
L 773.381637 94.792 
L 805.662629 132.47411 
" clip-path="url(#p06a829ab27)" style="fill: none; stroke-dasharray: 6,1.5,6,1.5,1.5,1.5; stroke-dashoffset: 0; stroke: #e377c2; stroke-width: 1.5"/>
   </g>
   <g id="line2d_62">
    <path d="M 482.852712 75.214379 
L 515.133704 90.067962 
L 547.414695 96.18779 
L 579.695687 104.706277 
L 611.976679 109.949302 
L 644.25767 117.548549 
L 676.538662 125.885562 
L 708.819654 133.818128 
L 741.100646 139.699256 
L 773.381637 143.921311 
L 805.662629 184.192038 
" clip-path="url(#p06a829ab27)" style="fill: none; stroke-dasharray: 4.5,1.875,4.5,1.875,1.875,1.875; stroke-dashoffset: 0; stroke: #7f7f7f; stroke-width: 1.5"/>
   </g>
   <g id="line2d_63"/>
   <g id="line2d_64"/>
   <g id="line2d_65"/>
   <g id="line2d_66"/>
   <g id="line2d_67"/>
   <g id="line2d_68"/>
   <g id="line2d_69"/>
   <g id="line2d_70"/>
   <g id="patch_8">
    <path d="M 466.712216 395.28 
L 466.712216 7.2 
" style="fill: none; stroke: #000000; stroke-width: 0.8; stroke-linejoin: miter; stroke-linecap: square"/>
   </g>
   <g id="patch_9">
    <path d="M 821.803125 395.28 
L 821.803125 7.2 
" style="fill: none; stroke: #000000; stroke-width: 0.8; stroke-linejoin: miter; stroke-linecap: square"/>
   </g>
   <g id="patch_10">
    <path d="M 466.712216 395.28 
L 821.803125 395.28 
" style="fill: none; stroke: #000000; stroke-width: 0.8; stroke-linejoin: miter; stroke-linecap: square"/>
   </g>
   <g id="patch_11">
    <path d="M 466.712216 7.2 
L 821.803125 7.2 
" style="fill: none; stroke: #000000; stroke-width: 0.8; stroke-linejoin: miter; stroke-linecap: square"/>
   </g>
   <g id="legend_1">
    <g id="patch_12">
     <path d="M 219.167187 487.3 
L 643.239062 487.3 
Q 645.239062 487.3 645.239062 485.3 
L 645.239062 456.94375 
Q 645.239062 454.94375 643.239062 454.94375 
L 219.167187 454.94375 
Q 217.167187 454.94375 217.167187 456.94375 
L 217.167187 485.3 
Q 217.167187 487.3 219.167187 487.3 
L 219.167187 487.3 
z
" style="fill: none; stroke: #000000; stroke-linejoin: miter"/>
    </g>
    <g id="line2d_71">
     <path d="M 221.167187 463.042187 
L 231.167187 463.042187 
L 241.167187 463.042187 
" style="fill: none; stroke: #1f77b4; stroke-width: 1.5; stroke-linecap: square"/>
    </g>
    <g id="text_35">
     <!-- AttnPacker -->
     <g transform="translate(249.167187 466.542187) scale(0.1 -0.1)">
      <defs>
       <path id="DejaVuSans-74" d="M 1172 4494 
L 1172 3500 
L 2356 3500 
L 2356 3053 
L 1172 3053 
L 1172 1153 
Q 1172 725 1289 603 
Q 1406 481 1766 481 
L 2356 481 
L 2356 0 
L 1766 0 
Q 1100 0 847 248 
Q 594 497 594 1153 
L 594 3053 
L 172 3053 
L 172 3500 
L 594 3500 
L 594 4494 
L 1172 4494 
z
" transform="scale(0.015625)"/>
       <path id="DejaVuSans-6e" d="M 3513 2113 
L 3513 0 
L 2938 0 
L 2938 2094 
Q 2938 2591 2744 2837 
Q 2550 3084 2163 3084 
Q 1697 3084 1428 2787 
Q 1159 2491 1159 1978 
L 1159 0 
L 581 0 
L 581 3500 
L 1159 3500 
L 1159 2956 
Q 1366 3272 1645 3428 
Q 1925 3584 2291 3584 
Q 2894 3584 3203 3211 
Q 3513 2838 3513 2113 
z
" transform="scale(0.015625)"/>
       <path id="DejaVuSans-50" d="M 1259 4147 
L 1259 2394 
L 2053 2394 
Q 2494 2394 2734 2622 
Q 2975 2850 2975 3272 
Q 2975 3691 2734 3919 
Q 2494 4147 2053 4147 
L 1259 4147 
z
M 628 4666 
L 2053 4666 
Q 2838 4666 3239 4311 
Q 3641 3956 3641 3272 
Q 3641 2581 3239 2228 
Q 2838 1875 2053 1875 
L 1259 1875 
L 1259 0 
L 628 0 
L 628 4666 
z
" transform="scale(0.015625)"/>
       <path id="DejaVuSans-61" d="M 2194 1759 
Q 1497 1759 1228 1600 
Q 959 1441 959 1056 
Q 959 750 1161 570 
Q 1363 391 1709 391 
Q 2188 391 2477 730 
Q 2766 1069 2766 1631 
L 2766 1759 
L 2194 1759 
z
M 3341 1997 
L 3341 0 
L 2766 0 
L 2766 531 
Q 2569 213 2275 61 
Q 1981 -91 1556 -91 
Q 1019 -91 701 211 
Q 384 513 384 1019 
Q 384 1609 779 1909 
Q 1175 2209 1959 2209 
L 2766 2209 
L 2766 2266 
Q 2766 2663 2505 2880 
Q 2244 3097 1772 3097 
Q 1472 3097 1187 3025 
Q 903 2953 641 2809 
L 641 3341 
Q 956 3463 1253 3523 
Q 1550 3584 1831 3584 
Q 2591 3584 2966 3190 
Q 3341 2797 3341 1997 
z
" transform="scale(0.015625)"/>
       <path id="DejaVuSans-63" d="M 3122 3366 
L 3122 2828 
Q 2878 2963 2633 3030 
Q 2388 3097 2138 3097 
Q 1578 3097 1268 2742 
Q 959 2388 959 1747 
Q 959 1106 1268 751 
Q 1578 397 2138 397 
Q 2388 397 2633 464 
Q 2878 531 3122 666 
L 3122 134 
Q 2881 22 2623 -34 
Q 2366 -91 2075 -91 
Q 1284 -91 818 406 
Q 353 903 353 1747 
Q 353 2603 823 3093 
Q 1294 3584 2113 3584 
Q 2378 3584 2631 3529 
Q 2884 3475 3122 3366 
z
" transform="scale(0.015625)"/>
       <path id="DejaVuSans-6b" d="M 581 4863 
L 1159 4863 
L 1159 1991 
L 2875 3500 
L 3609 3500 
L 1753 1863 
L 3688 0 
L 2938 0 
L 1159 1709 
L 1159 0 
L 581 0 
L 581 4863 
z
" transform="scale(0.015625)"/>
       <path id="DejaVuSans-65" d="M 3597 1894 
L 3597 1613 
L 953 1613 
Q 991 1019 1311 708 
Q 1631 397 2203 397 
Q 2534 397 2845 478 
Q 3156 559 3463 722 
L 3463 178 
Q 3153 47 2828 -22 
Q 2503 -91 2169 -91 
Q 1331 -91 842 396 
Q 353 884 353 1716 
Q 353 2575 817 3079 
Q 1281 3584 2069 3584 
Q 2775 3584 3186 3129 
Q 3597 2675 3597 1894 
z
M 3022 2063 
Q 3016 2534 2758 2815 
Q 2500 3097 2075 3097 
Q 1594 3097 1305 2825 
Q 1016 2553 972 2059 
L 3022 2063 
z
" transform="scale(0.015625)"/>
      </defs>
      <use xlink:href="#DejaVuSans-41"/>
      <use xlink:href="#DejaVuSans-74" x="66.658203"/>
      <use xlink:href="#DejaVuSans-74" x="105.867188"/>
      <use xlink:href="#DejaVuSans-6e" x="145.076172"/>
      <use xlink:href="#DejaVuSans-50" x="208.455078"/>
      <use xlink:href="#DejaVuSans-61" x="264.257812"/>
      <use xlink:href="#DejaVuSans-63" x="325.537109"/>
      <use xlink:href="#DejaVuSans-6b" x="380.517578"/>
      <use xlink:href="#DejaVuSans-65" x="434.802734"/>
      <use xlink:href="#DejaVuSans-72" x="496.326172"/>
     </g>
    </g>
    <g id="line2d_72">
     <path d="M 221.167187 477.720312 
L 231.167187 477.720312 
L 241.167187 477.720312 
" style="fill: none; stroke-dasharray: 6,2.25; stroke-dashoffset: 0; stroke: #ff7f0e; stroke-width: 1.5"/>
    </g>
    <g id="text_36">
     <!-- AttnPacker (AF) -->
     <g transform="translate(249.167187 481.220312) scale(0.1 -0.1)">
      <defs>
       <path id="DejaVuSans-28" d="M 1984 4856 
Q 1566 4138 1362 3434 
Q 1159 2731 1159 2009 
Q 1159 1288 1364 580 
Q 1569 -128 1984 -844 
L 1484 -844 
Q 1016 -109 783 600 
Q 550 1309 550 2009 
Q 550 2706 781 3412 
Q 1013 4119 1484 4856 
L 1984 4856 
z
" transform="scale(0.015625)"/>
       <path id="DejaVuSans-46" d="M 628 4666 
L 3309 4666 
L 3309 4134 
L 1259 4134 
L 1259 2759 
L 3109 2759 
L 3109 2228 
L 1259 2228 
L 1259 0 
L 628 0 
L 628 4666 
z
" transform="scale(0.015625)"/>
       <path id="DejaVuSans-29" d="M 513 4856 
L 1013 4856 
Q 1481 4119 1714 3412 
Q 1947 2706 1947 2009 
Q 1947 1309 1714 600 
Q 1481 -109 1013 -844 
L 513 -844 
Q 928 -128 1133 580 
Q 1338 1288 1338 2009 
Q 1338 2731 1133 3434 
Q 928 4138 513 4856 
z
" transform="scale(0.015625)"/>
      </defs>
      <use xlink:href="#DejaVuSans-41"/>
      <use xlink:href="#DejaVuSans-74" x="66.658203"/>
      <use xlink:href="#DejaVuSans-74" x="105.867188"/>
      <use xlink:href="#DejaVuSans-6e" x="145.076172"/>
      <use xlink:href="#DejaVuSans-50" x="208.455078"/>
      <use xlink:href="#DejaVuSans-61" x="264.257812"/>
      <use xlink:href="#DejaVuSans-63" x="325.537109"/>
      <use xlink:href="#DejaVuSans-6b" x="380.517578"/>
      <use xlink:href="#DejaVuSans-65" x="434.802734"/>
      <use xlink:href="#DejaVuSans-72" x="496.326172"/>
      <use xlink:href="#DejaVuSans-20" x="537.439453"/>
      <use xlink:href="#DejaVuSans-28" x="569.226562"/>
      <use xlink:href="#DejaVuSans-41" x="608.240234"/>
      <use xlink:href="#DejaVuSans-46" x="676.648438"/>
      <use xlink:href="#DejaVuSans-29" x="734.167969"/>
     </g>
    </g>
    <g id="line2d_73">
     <path d="M 346.482812 463.042187 
L 356.482812 463.042187 
L 366.482812 463.042187 
" style="fill: none; stroke-dasharray: 1.5,1.5; stroke-dashoffset: 0; stroke: #2ca02c; stroke-width: 1.5"/>
    </g>
    <g id="text_37">
     <!-- C36 (AF) -->
     <g transform="translate(374.482812 466.542187) scale(0.1 -0.1)">
      <defs>
       <path id="DejaVuSans-43" d="M 4122 4306 
L 4122 3641 
Q 3803 3938 3442 4084 
Q 3081 4231 2675 4231 
Q 1875 4231 1450 3742 
Q 1025 3253 1025 2328 
Q 1025 1406 1450 917 
Q 1875 428 2675 428 
Q 3081 428 3442 575 
Q 3803 722 4122 1019 
L 4122 359 
Q 3791 134 3420 21 
Q 3050 -91 2638 -91 
Q 1578 -91 968 557 
Q 359 1206 359 2328 
Q 359 3453 968 4101 
Q 1578 4750 2638 4750 
Q 3056 4750 3426 4639 
Q 3797 4528 4122 4306 
z
" transform="scale(0.015625)"/>
      </defs>
      <use xlink:href="#DejaVuSans-43"/>
      <use xlink:href="#DejaVuSans-33" x="69.824219"/>
      <use xlink:href="#DejaVuSans-36" x="133.447266"/>
      <use xlink:href="#DejaVuSans-20" x="197.070312"/>
      <use xlink:href="#DejaVuSans-28" x="228.857422"/>
      <use xlink:href="#DejaVuSans-41" x="267.871094"/>
      <use xlink:href="#DejaVuSans-46" x="336.279297"/>
      <use xlink:href="#DejaVuSans-29" x="393.798828"/>
     </g>
    </g>
    <g id="line2d_74">
     <path d="M 346.482812 477.720312 
L 356.482812 477.720312 
L 366.482812 477.720312 
" style="fill: none; stroke-dasharray: 4.5,1.875,2.25,1.875; stroke-dashoffset: 0; stroke: #d62728; stroke-width: 1.5"/>
    </g>
    <g id="text_38">
     <!-- FASPR (AF) -->
     <g transform="translate(374.482812 481.220312) scale(0.1 -0.1)">
      <defs>
       <path id="DejaVuSans-52" d="M 2841 2188 
Q 3044 2119 3236 1894 
Q 3428 1669 3622 1275 
L 4263 0 
L 3584 0 
L 2988 1197 
Q 2756 1666 2539 1819 
Q 2322 1972 1947 1972 
L 1259 1972 
L 1259 0 
L 628 0 
L 628 4666 
L 2053 4666 
Q 2853 4666 3247 4331 
Q 3641 3997 3641 3322 
Q 3641 2881 3436 2590 
Q 3231 2300 2841 2188 
z
M 1259 4147 
L 1259 2491 
L 2053 2491 
Q 2509 2491 2742 2702 
Q 2975 2913 2975 3322 
Q 2975 3731 2742 3939 
Q 2509 4147 2053 4147 
L 1259 4147 
z
" transform="scale(0.015625)"/>
      </defs>
      <use xlink:href="#DejaVuSans-46"/>
      <use xlink:href="#DejaVuSans-41" x="48.394531"/>
      <use xlink:href="#DejaVuSans-53" x="116.802734"/>
      <use xlink:href="#DejaVuSans-50" x="180.279297"/>
      <use xlink:href="#DejaVuSans-52" x="240.582031"/>
      <use xlink:href="#DejaVuSans-20" x="310.064453"/>
      <use xlink:href="#DejaVuSans-28" x="341.851562"/>
      <use xlink:href="#DejaVuSans-41" x="380.865234"/>
      <use xlink:href="#DejaVuSans-46" x="449.273438"/>
      <use xlink:href="#DejaVuSans-29" x="506.792969"/>
     </g>
    </g>
    <g id="line2d_75">
     <path d="M 449.0625 463.042187 
L 459.0625 463.042187 
L 469.0625 463.042187 
" style="fill: none; stroke-dasharray: 7.5,1.5,1.5,1.5; stroke-dashoffset: 0; stroke: #9467bd; stroke-width: 1.5"/>
    </g>
    <g id="text_39">
     <!-- Heuristic -->
     <g transform="translate(477.0625 466.542187) scale(0.1 -0.1)">
      <defs>
       <path id="DejaVuSans-48" d="M 628 4666 
L 1259 4666 
L 1259 2753 
L 3553 2753 
L 3553 4666 
L 4184 4666 
L 4184 0 
L 3553 0 
L 3553 2222 
L 1259 2222 
L 1259 0 
L 628 0 
L 628 4666 
z
" transform="scale(0.015625)"/>
       <path id="DejaVuSans-75" d="M 544 1381 
L 544 3500 
L 1119 3500 
L 1119 1403 
Q 1119 906 1312 657 
Q 1506 409 1894 409 
Q 2359 409 2629 706 
Q 2900 1003 2900 1516 
L 2900 3500 
L 3475 3500 
L 3475 0 
L 2900 0 
L 2900 538 
Q 2691 219 2414 64 
Q 2138 -91 1772 -91 
Q 1169 -91 856 284 
Q 544 659 544 1381 
z
M 1991 3584 
L 1991 3584 
z
" transform="scale(0.015625)"/>
       <path id="DejaVuSans-69" d="M 603 3500 
L 1178 3500 
L 1178 0 
L 603 0 
L 603 3500 
z
M 603 4863 
L 1178 4863 
L 1178 4134 
L 603 4134 
L 603 4863 
z
" transform="scale(0.015625)"/>
       <path id="DejaVuSans-73" d="M 2834 3397 
L 2834 2853 
Q 2591 2978 2328 3040 
Q 2066 3103 1784 3103 
Q 1356 3103 1142 2972 
Q 928 2841 928 2578 
Q 928 2378 1081 2264 
Q 1234 2150 1697 2047 
L 1894 2003 
Q 2506 1872 2764 1633 
Q 3022 1394 3022 966 
Q 3022 478 2636 193 
Q 2250 -91 1575 -91 
Q 1294 -91 989 -36 
Q 684 19 347 128 
L 347 722 
Q 666 556 975 473 
Q 1284 391 1588 391 
Q 1994 391 2212 530 
Q 2431 669 2431 922 
Q 2431 1156 2273 1281 
Q 2116 1406 1581 1522 
L 1381 1569 
Q 847 1681 609 1914 
Q 372 2147 372 2553 
Q 372 3047 722 3315 
Q 1072 3584 1716 3584 
Q 2034 3584 2315 3537 
Q 2597 3491 2834 3397 
z
" transform="scale(0.015625)"/>
      </defs>
      <use xlink:href="#DejaVuSans-48"/>
      <use xlink:href="#DejaVuSans-65" x="75.195312"/>
      <use xlink:href="#DejaVuSans-75" x="136.71875"/>
      <use xlink:href="#DejaVuSans-72" x="200.097656"/>
      <use xlink:href="#DejaVuSans-69" x="241.210938"/>
      <use xlink:href="#DejaVuSans-73" x="268.994141"/>
      <use xlink:href="#DejaVuSans-74" x="321.09375"/>
      <use xlink:href="#DejaVuSans-69" x="360.302734"/>
      <use xlink:href="#DejaVuSans-63" x="388.085938"/>
     </g>
    </g>
    <g id="line2d_76">
     <path d="M 449.0625 477.720312 
L 459.0625 477.720312 
L 469.0625 477.720312 
" style="fill: none; stroke-dasharray: 4.5,1.875,1.875,1.875,1.875,1.875; stroke-dashoffset: 0; stroke: #8c564b; stroke-width: 1.5"/>
    </g>
    <g id="text_40">
     <!-- MSA -->
     <g transform="translate(477.0625 481.220312) scale(0.1 -0.1)">
      <defs>
       <path id="DejaVuSans-4d" d="M 628 4666 
L 1569 4666 
L 2759 1491 
L 3956 4666 
L 4897 4666 
L 4897 0 
L 4281 0 
L 4281 4097 
L 3078 897 
L 2444 897 
L 1241 4097 
L 1241 0 
L 628 0 
L 628 4666 
z
" transform="scale(0.015625)"/>
      </defs>
      <use xlink:href="#DejaVuSans-4d"/>
      <use xlink:href="#DejaVuSans-53" x="86.279297"/>
      <use xlink:href="#DejaVuSans-41" x="151.630859"/>
     </g>
    </g>
    <g id="line2d_77">
     <path d="M 541.36875 463.042187 
L 551.36875 463.042187 
L 561.36875 463.042187 
" style="fill: none; stroke-dasharray: 6,1.5,6,1.5,1.5,1.5; stroke-dashoffset: 0; stroke: #e377c2; stroke-width: 1.5"/>
    </g>
    <g id="text_41">
     <!-- Template (AF) -->
     <g transform="translate(569.36875 466.542187) scale(0.1 -0.1)">
      <defs>
       <path id="DejaVuSans-6d" d="M 3328 2828 
Q 3544 3216 3844 3400 
Q 4144 3584 4550 3584 
Q 5097 3584 5394 3201 
Q 5691 2819 5691 2113 
L 5691 0 
L 5113 0 
L 5113 2094 
Q 5113 2597 4934 2840 
Q 4756 3084 4391 3084 
Q 3944 3084 3684 2787 
Q 3425 2491 3425 1978 
L 3425 0 
L 2847 0 
L 2847 2094 
Q 2847 2600 2669 2842 
Q 2491 3084 2119 3084 
Q 1678 3084 1418 2786 
Q 1159 2488 1159 1978 
L 1159 0 
L 581 0 
L 581 3500 
L 1159 3500 
L 1159 2956 
Q 1356 3278 1631 3431 
Q 1906 3584 2284 3584 
Q 2666 3584 2933 3390 
Q 3200 3197 3328 2828 
z
" transform="scale(0.015625)"/>
      </defs>
      <use xlink:href="#DejaVuSans-54"/>
      <use xlink:href="#DejaVuSans-65" x="44.083984"/>
      <use xlink:href="#DejaVuSans-6d" x="105.607422"/>
      <use xlink:href="#DejaVuSans-70" x="203.019531"/>
      <use xlink:href="#DejaVuSans-6c" x="266.496094"/>
      <use xlink:href="#DejaVuSans-61" x="294.279297"/>
      <use xlink:href="#DejaVuSans-74" x="355.558594"/>
      <use xlink:href="#DejaVuSans-65" x="394.767578"/>
      <use xlink:href="#DejaVuSans-20" x="456.291016"/>
      <use xlink:href="#DejaVuSans-28" x="488.078125"/>
      <use xlink:href="#DejaVuSans-41" x="527.091797"/>
      <use xlink:href="#DejaVuSans-46" x="595.5"/>
      <use xlink:href="#DejaVuSans-29" x="653.019531"/>
     </g>
    </g>
    <g id="line2d_78">
     <path d="M 541.36875 477.720312 
L 551.36875 477.720312 
L 561.36875 477.720312 
" style="fill: none; stroke-dasharray: 4.5,1.875,4.5,1.875,1.875,1.875; stroke-dashoffset: 0; stroke: #7f7f7f; stroke-width: 1.5"/>
    </g>
    <g id="text_42">
     <!-- Template Beta -->
     <g transform="translate(569.36875 481.220312) scale(0.1 -0.1)">
      <defs>
       <path id="DejaVuSans-42" d="M 1259 2228 
L 1259 519 
L 2272 519 
Q 2781 519 3026 730 
Q 3272 941 3272 1375 
Q 3272 1813 3026 2020 
Q 2781 2228 2272 2228 
L 1259 2228 
z
M 1259 4147 
L 1259 2741 
L 2194 2741 
Q 2656 2741 2882 2914 
Q 3109 3088 3109 3444 
Q 3109 3797 2882 3972 
Q 2656 4147 2194 4147 
L 1259 4147 
z
M 628 4666 
L 2241 4666 
Q 2963 4666 3353 4366 
Q 3744 4066 3744 3513 
Q 3744 3084 3544 2831 
Q 3344 2578 2956 2516 
Q 3422 2416 3680 2098 
Q 3938 1781 3938 1306 
Q 3938 681 3513 340 
Q 3088 0 2303 0 
L 628 0 
L 628 4666 
z
" transform="scale(0.015625)"/>
      </defs>
      <use xlink:href="#DejaVuSans-54"/>
      <use xlink:href="#DejaVuSans-65" x="44.083984"/>
      <use xlink:href="#DejaVuSans-6d" x="105.607422"/>
      <use xlink:href="#DejaVuSans-70" x="203.019531"/>
      <use xlink:href="#DejaVuSans-6c" x="266.496094"/>
      <use xlink:href="#DejaVuSans-61" x="294.279297"/>
      <use xlink:href="#DejaVuSans-74" x="355.558594"/>
      <use xlink:href="#DejaVuSans-65" x="394.767578"/>
      <use xlink:href="#DejaVuSans-20" x="456.291016"/>
      <use xlink:href="#DejaVuSans-42" x="488.078125"/>
      <use xlink:href="#DejaVuSans-65" x="556.681641"/>
      <use xlink:href="#DejaVuSans-74" x="618.205078"/>
      <use xlink:href="#DejaVuSans-61" x="657.414062"/>
     </g>
    </g>
   </g>
  </g>
 </g>
 <defs>
  <clipPath id="p3989e5c4d2">
   <rect x="40.603125" y="7.2" width="355.090909" height="388.08"/>
  </clipPath>
  <clipPath id="p06a829ab27">
   <rect x="466.712216" y="7.2" width="355.090909" height="388.08"/>
  </clipPath>
 </defs>
</svg>
