<?xml version="1.0" encoding="utf-8" standalone="no"?>
<!DOCTYPE svg PUBLIC "-//W3C//DTD SVG 1.1//EN"
  "http://www.w3.org/Graphics/SVG/1.1/DTD/svg11.dtd">
<svg xmlns:xlink="http://www.w3.org/1999/xlink" width="864.13125pt" height="722.183991pt" viewBox="0 0 864.13125 722.183991" xmlns="http://www.w3.org/2000/svg" version="1.1">
 <metadata>
  <rdf:RDF xmlns:dc="http://purl.org/dc/elements/1.1/" xmlns:cc="http://creativecommons.org/ns#" xmlns:rdf="http://www.w3.org/1999/02/22-rdf-syntax-ns#">
   <cc:Work>
    <dc:type rdf:resource="http://purl.org/dc/dcmitype/StillImage"/>
    <dc:date>2024-03-17T20:48:20.273327</dc:date>
    <dc:format>image/svg+xml</dc:format>
    <dc:creator>
     <cc:Agent>
      <dc:title>Matplotlib v3.8.0, https://matplotlib.org/</dc:title>
     </cc:Agent>
    </dc:creator>
   </cc:Work>
  </rdf:RDF>
 </metadata>
 <defs>
  <style type="text/css">*{stroke-linejoin: round; stroke-linecap: butt}</style>
 </defs>
 <g id="figure_1">
  <g id="patch_1">
   <path d="M 0 722.183991 
L 864.13125 722.183991 
L 864.13125 0 
L 0 0 
L 0 722.183991 
z
" style="fill: none"/>
  </g>
  <g id="axes_1">
   <g id="patch_2">
    <path d="M 75.73125 561.6 
L 856.93125 561.6 
L 856.93125 7.2 
L 75.73125 7.2 
L 75.73125 561.6 
z
" style="fill: none"/>
   </g>
   <g id="matplotlib.axis_1">
    <g id="xtick_1">
     <g id="text_1">
      <!-- MSA -->
      <g style="fill: #262626" transform="translate(111.157736 610.465141) rotate(-45) scale(0.2 -0.2)">
       <defs>
        <path id="DejaVuSans-4d" d="M 628 4666 
L 1569 4666 
L 2759 1491 
L 3956 4666 
L 4897 4666 
L 4897 0 
L 4281 0 
L 4281 4097 
L 3078 897 
L 2444 897 
L 1241 4097 
L 1241 0 
L 628 0 
L 628 4666 
z
" transform="scale(0.015625)"/>
        <path id="DejaVuSans-53" d="M 3425 4513 
L 3425 3897 
Q 3066 4069 2747 4153 
Q 2428 4238 2131 4238 
Q 1616 4238 1336 4038 
Q 1056 3838 1056 3469 
Q 1056 3159 1242 3001 
Q 1428 2844 1947 2747 
L 2328 2669 
Q 3034 2534 3370 2195 
Q 3706 1856 3706 1288 
Q 3706 609 3251 259 
Q 2797 -91 1919 -91 
Q 1588 -91 1214 -16 
Q 841 59 441 206 
L 441 856 
Q 825 641 1194 531 
Q 1563 422 1919 422 
Q 2459 422 2753 634 
Q 3047 847 3047 1241 
Q 3047 1584 2836 1778 
Q 2625 1972 2144 2069 
L 1759 2144 
Q 1053 2284 737 2584 
Q 422 2884 422 3419 
Q 422 4038 858 4394 
Q 1294 4750 2059 4750 
Q 2388 4750 2728 4690 
Q 3069 4631 3425 4513 
z
" transform="scale(0.015625)"/>
        <path id="DejaVuSans-41" d="M 2188 4044 
L 1331 1722 
L 3047 1722 
L 2188 4044 
z
M 1831 4666 
L 2547 4666 
L 4325 0 
L 3669 0 
L 3244 1197 
L 1141 1197 
L 716 0 
L 50 0 
L 1831 4666 
z
" transform="scale(0.015625)"/>
       </defs>
       <use xlink:href="#DejaVuSans-4d"/>
       <use xlink:href="#DejaVuSans-53" x="86.279297"/>
       <use xlink:href="#DejaVuSans-41" x="151.630859"/>
      </g>
     </g>
    </g>
    <g id="xtick_2">
     <g id="text_2">
      <!-- Template -->
      <g style="fill: #262626" transform="translate(189.34694 643.875936) rotate(-45) scale(0.2 -0.2)">
       <defs>
        <path id="DejaVuSans-54" d="M -19 4666 
L 3928 4666 
L 3928 4134 
L 2272 4134 
L 2272 0 
L 1638 0 
L 1638 4134 
L -19 4134 
L -19 4666 
z
" transform="scale(0.015625)"/>
        <path id="DejaVuSans-65" d="M 3597 1894 
L 3597 1613 
L 953 1613 
Q 991 1019 1311 708 
Q 1631 397 2203 397 
Q 2534 397 2845 478 
Q 3156 559 3463 722 
L 3463 178 
Q 3153 47 2828 -22 
Q 2503 -91 2169 -91 
Q 1331 -91 842 396 
Q 353 884 353 1716 
Q 353 2575 817 3079 
Q 1281 3584 2069 3584 
Q 2775 3584 3186 3129 
Q 3597 2675 3597 1894 
z
M 3022 2063 
Q 3016 2534 2758 2815 
Q 2500 3097 2075 3097 
Q 1594 3097 1305 2825 
Q 1016 2553 972 2059 
L 3022 2063 
z
" transform="scale(0.015625)"/>
        <path id="DejaVuSans-6d" d="M 3328 2828 
Q 3544 3216 3844 3400 
Q 4144 3584 4550 3584 
Q 5097 3584 5394 3201 
Q 5691 2819 5691 2113 
L 5691 0 
L 5113 0 
L 5113 2094 
Q 5113 2597 4934 2840 
Q 4756 3084 4391 3084 
Q 3944 3084 3684 2787 
Q 3425 2491 3425 1978 
L 3425 0 
L 2847 0 
L 2847 2094 
Q 2847 2600 2669 2842 
Q 2491 3084 2119 3084 
Q 1678 3084 1418 2786 
Q 1159 2488 1159 1978 
L 1159 0 
L 581 0 
L 581 3500 
L 1159 3500 
L 1159 2956 
Q 1356 3278 1631 3431 
Q 1906 3584 2284 3584 
Q 2666 3584 2933 3390 
Q 3200 3197 3328 2828 
z
" transform="scale(0.015625)"/>
        <path id="DejaVuSans-70" d="M 1159 525 
L 1159 -1331 
L 581 -1331 
L 581 3500 
L 1159 3500 
L 1159 2969 
Q 1341 3281 1617 3432 
Q 1894 3584 2278 3584 
Q 2916 3584 3314 3078 
Q 3713 2572 3713 1747 
Q 3713 922 3314 415 
Q 2916 -91 2278 -91 
Q 1894 -91 1617 61 
Q 1341 213 1159 525 
z
M 3116 1747 
Q 3116 2381 2855 2742 
Q 2594 3103 2138 3103 
Q 1681 3103 1420 2742 
Q 1159 2381 1159 1747 
Q 1159 1113 1420 752 
Q 1681 391 2138 391 
Q 2594 391 2855 752 
Q 3116 1113 3116 1747 
z
" transform="scale(0.015625)"/>
        <path id="DejaVuSans-6c" d="M 603 4863 
L 1178 4863 
L 1178 0 
L 603 0 
L 603 4863 
z
" transform="scale(0.015625)"/>
        <path id="DejaVuSans-61" d="M 2194 1759 
Q 1497 1759 1228 1600 
Q 959 1441 959 1056 
Q 959 750 1161 570 
Q 1363 391 1709 391 
Q 2188 391 2477 730 
Q 2766 1069 2766 1631 
L 2766 1759 
L 2194 1759 
z
M 3341 1997 
L 3341 0 
L 2766 0 
L 2766 531 
Q 2569 213 2275 61 
Q 1981 -91 1556 -91 
Q 1019 -91 701 211 
Q 384 513 384 1019 
Q 384 1609 779 1909 
Q 1175 2209 1959 2209 
L 2766 2209 
L 2766 2266 
Q 2766 2663 2505 2880 
Q 2244 3097 1772 3097 
Q 1472 3097 1187 3025 
Q 903 2953 641 2809 
L 641 3341 
Q 956 3463 1253 3523 
Q 1550 3584 1831 3584 
Q 2591 3584 2966 3190 
Q 3341 2797 3341 1997 
z
" transform="scale(0.015625)"/>
        <path id="DejaVuSans-74" d="M 1172 4494 
L 1172 3500 
L 2356 3500 
L 2356 3053 
L 1172 3053 
L 1172 1153 
Q 1172 725 1289 603 
Q 1406 481 1766 481 
L 2356 481 
L 2356 0 
L 1766 0 
Q 1100 0 847 248 
Q 594 497 594 1153 
L 594 3053 
L 172 3053 
L 172 3500 
L 594 3500 
L 594 4494 
L 1172 4494 
z
" transform="scale(0.015625)"/>
       </defs>
       <use xlink:href="#DejaVuSans-54"/>
       <use xlink:href="#DejaVuSans-65" x="44.083984"/>
       <use xlink:href="#DejaVuSans-6d" x="105.607422"/>
       <use xlink:href="#DejaVuSans-70" x="203.019531"/>
       <use xlink:href="#DejaVuSans-6c" x="266.496094"/>
       <use xlink:href="#DejaVuSans-61" x="294.279297"/>
       <use xlink:href="#DejaVuSans-74" x="355.558594"/>
       <use xlink:href="#DejaVuSans-65" x="394.767578"/>
      </g>
     </g>
    </g>
    <g id="xtick_3">
     <g id="text_3">
      <!-- Backbone -->
      <g style="fill: #262626" transform="translate(295.846933 648.975944) rotate(-45) scale(0.2 -0.2)">
       <defs>
        <path id="DejaVuSans-42" d="M 1259 2228 
L 1259 519 
L 2272 519 
Q 2781 519 3026 730 
Q 3272 941 3272 1375 
Q 3272 1813 3026 2020 
Q 2781 2228 2272 2228 
L 1259 2228 
z
M 1259 4147 
L 1259 2741 
L 2194 2741 
Q 2656 2741 2882 2914 
Q 3109 3088 3109 3444 
Q 3109 3797 2882 3972 
Q 2656 4147 2194 4147 
L 1259 4147 
z
M 628 4666 
L 2241 4666 
Q 2963 4666 3353 4366 
Q 3744 4066 3744 3513 
Q 3744 3084 3544 2831 
Q 3344 2578 2956 2516 
Q 3422 2416 3680 2098 
Q 3938 1781 3938 1306 
Q 3938 681 3513 340 
Q 3088 0 2303 0 
L 628 0 
L 628 4666 
z
" transform="scale(0.015625)"/>
        <path id="DejaVuSans-63" d="M 3122 3366 
L 3122 2828 
Q 2878 2963 2633 3030 
Q 2388 3097 2138 3097 
Q 1578 3097 1268 2742 
Q 959 2388 959 1747 
Q 959 1106 1268 751 
Q 1578 397 2138 397 
Q 2388 397 2633 464 
Q 2878 531 3122 666 
L 3122 134 
Q 2881 22 2623 -34 
Q 2366 -91 2075 -91 
Q 1284 -91 818 406 
Q 353 903 353 1747 
Q 353 2603 823 3093 
Q 1294 3584 2113 3584 
Q 2378 3584 2631 3529 
Q 2884 3475 3122 3366 
z
" transform="scale(0.015625)"/>
        <path id="DejaVuSans-6b" d="M 581 4863 
L 1159 4863 
L 1159 1991 
L 2875 3500 
L 3609 3500 
L 1753 1863 
L 3688 0 
L 2938 0 
L 1159 1709 
L 1159 0 
L 581 0 
L 581 4863 
z
" transform="scale(0.015625)"/>
        <path id="DejaVuSans-62" d="M 3116 1747 
Q 3116 2381 2855 2742 
Q 2594 3103 2138 3103 
Q 1681 3103 1420 2742 
Q 1159 2381 1159 1747 
Q 1159 1113 1420 752 
Q 1681 391 2138 391 
Q 2594 391 2855 752 
Q 3116 1113 3116 1747 
z
M 1159 2969 
Q 1341 3281 1617 3432 
Q 1894 3584 2278 3584 
Q 2916 3584 3314 3078 
Q 3713 2572 3713 1747 
Q 3713 922 3314 415 
Q 2916 -91 2278 -91 
Q 1894 -91 1617 61 
Q 1341 213 1159 525 
L 1159 0 
L 581 0 
L 581 4863 
L 1159 4863 
L 1159 2969 
z
" transform="scale(0.015625)"/>
        <path id="DejaVuSans-6f" d="M 1959 3097 
Q 1497 3097 1228 2736 
Q 959 2375 959 1747 
Q 959 1119 1226 758 
Q 1494 397 1959 397 
Q 2419 397 2687 759 
Q 2956 1122 2956 1747 
Q 2956 2369 2687 2733 
Q 2419 3097 1959 3097 
z
M 1959 3584 
Q 2709 3584 3137 3096 
Q 3566 2609 3566 1747 
Q 3566 888 3137 398 
Q 2709 -91 1959 -91 
Q 1206 -91 779 398 
Q 353 888 353 1747 
Q 353 2609 779 3096 
Q 1206 3584 1959 3584 
z
" transform="scale(0.015625)"/>
        <path id="DejaVuSans-6e" d="M 3513 2113 
L 3513 0 
L 2938 0 
L 2938 2094 
Q 2938 2591 2744 2837 
Q 2550 3084 2163 3084 
Q 1697 3084 1428 2787 
Q 1159 2491 1159 1978 
L 1159 0 
L 581 0 
L 581 3500 
L 1159 3500 
L 1159 2956 
Q 1366 3272 1645 3428 
Q 1925 3584 2291 3584 
Q 2894 3584 3203 3211 
Q 3513 2838 3513 2113 
z
" transform="scale(0.015625)"/>
       </defs>
       <use xlink:href="#DejaVuSans-42"/>
       <use xlink:href="#DejaVuSans-61" x="68.603516"/>
       <use xlink:href="#DejaVuSans-63" x="129.882812"/>
       <use xlink:href="#DejaVuSans-6b" x="184.863281"/>
       <use xlink:href="#DejaVuSans-62" x="242.773438"/>
       <use xlink:href="#DejaVuSans-6f" x="306.25"/>
       <use xlink:href="#DejaVuSans-6e" x="367.431641"/>
       <use xlink:href="#DejaVuSans-65" x="430.810547"/>
      </g>
     </g>
    </g>
    <g id="xtick_4">
     <g id="text_4">
      <!-- Heuristic C-$\beta$ -->
      <g style="fill: #262626" transform="translate(386.00392 670.706219) rotate(-45) scale(0.2 -0.2)">
       <defs>
        <path id="DejaVuSans-48" d="M 628 4666 
L 1259 4666 
L 1259 2753 
L 3553 2753 
L 3553 4666 
L 4184 4666 
L 4184 0 
L 3553 0 
L 3553 2222 
L 1259 2222 
L 1259 0 
L 628 0 
L 628 4666 
z
" transform="scale(0.015625)"/>
        <path id="DejaVuSans-75" d="M 544 1381 
L 544 3500 
L 1119 3500 
L 1119 1403 
Q 1119 906 1312 657 
Q 1506 409 1894 409 
Q 2359 409 2629 706 
Q 2900 1003 2900 1516 
L 2900 3500 
L 3475 3500 
L 3475 0 
L 2900 0 
L 2900 538 
Q 2691 219 2414 64 
Q 2138 -91 1772 -91 
Q 1169 -91 856 284 
Q 544 659 544 1381 
z
M 1991 3584 
L 1991 3584 
z
" transform="scale(0.015625)"/>
        <path id="DejaVuSans-72" d="M 2631 2963 
Q 2534 3019 2420 3045 
Q 2306 3072 2169 3072 
Q 1681 3072 1420 2755 
Q 1159 2438 1159 1844 
L 1159 0 
L 581 0 
L 581 3500 
L 1159 3500 
L 1159 2956 
Q 1341 3275 1631 3429 
Q 1922 3584 2338 3584 
Q 2397 3584 2469 3576 
Q 2541 3569 2628 3553 
L 2631 2963 
z
" transform="scale(0.015625)"/>
        <path id="DejaVuSans-69" d="M 603 3500 
L 1178 3500 
L 1178 0 
L 603 0 
L 603 3500 
z
M 603 4863 
L 1178 4863 
L 1178 4134 
L 603 4134 
L 603 4863 
z
" transform="scale(0.015625)"/>
        <path id="DejaVuSans-73" d="M 2834 3397 
L 2834 2853 
Q 2591 2978 2328 3040 
Q 2066 3103 1784 3103 
Q 1356 3103 1142 2972 
Q 928 2841 928 2578 
Q 928 2378 1081 2264 
Q 1234 2150 1697 2047 
L 1894 2003 
Q 2506 1872 2764 1633 
Q 3022 1394 3022 966 
Q 3022 478 2636 193 
Q 2250 -91 1575 -91 
Q 1294 -91 989 -36 
Q 684 19 347 128 
L 347 722 
Q 666 556 975 473 
Q 1284 391 1588 391 
Q 1994 391 2212 530 
Q 2431 669 2431 922 
Q 2431 1156 2273 1281 
Q 2116 1406 1581 1522 
L 1381 1569 
Q 847 1681 609 1914 
Q 372 2147 372 2553 
Q 372 3047 722 3315 
Q 1072 3584 1716 3584 
Q 2034 3584 2315 3537 
Q 2597 3491 2834 3397 
z
" transform="scale(0.015625)"/>
        <path id="DejaVuSans-20" transform="scale(0.015625)"/>
        <path id="DejaVuSans-43" d="M 4122 4306 
L 4122 3641 
Q 3803 3938 3442 4084 
Q 3081 4231 2675 4231 
Q 1875 4231 1450 3742 
Q 1025 3253 1025 2328 
Q 1025 1406 1450 917 
Q 1875 428 2675 428 
Q 3081 428 3442 575 
Q 3803 722 4122 1019 
L 4122 359 
Q 3791 134 3420 21 
Q 3050 -91 2638 -91 
Q 1578 -91 968 557 
Q 359 1206 359 2328 
Q 359 3453 968 4101 
Q 1578 4750 2638 4750 
Q 3056 4750 3426 4639 
Q 3797 4528 4122 4306 
z
" transform="scale(0.015625)"/>
        <path id="DejaVuSans-2d" d="M 313 2009 
L 1997 2009 
L 1997 1497 
L 313 1497 
L 313 2009 
z
" transform="scale(0.015625)"/>
        <path id="DejaVuSans-Oblique-3b2" d="M 872 216 
L 572 -1331 
L -6 -1331 
L 928 3478 
Q 1206 4903 2538 4903 
Q 3888 4903 3659 3700 
Q 3503 2844 2894 2531 
Q 3713 2250 3553 1416 
Q 3272 -69 1759 -66 
Q 1097 -63 872 216 
z
M 1019 966 
Q 1259 422 1875 425 
Q 2775 425 2966 1406 
Q 3138 2288 1675 2219 
L 1778 2750 
Q 2909 2731 3106 3750 
Q 3241 4438 2509 4434 
Q 1691 4434 1503 3459 
L 1019 966 
z
" transform="scale(0.015625)"/>
       </defs>
       <use xlink:href="#DejaVuSans-48" transform="translate(0 0.390625)"/>
       <use xlink:href="#DejaVuSans-65" transform="translate(75.195312 0.390625)"/>
       <use xlink:href="#DejaVuSans-75" transform="translate(136.71875 0.390625)"/>
       <use xlink:href="#DejaVuSans-72" transform="translate(200.097656 0.390625)"/>
       <use xlink:href="#DejaVuSans-69" transform="translate(241.210938 0.390625)"/>
       <use xlink:href="#DejaVuSans-73" transform="translate(268.994141 0.390625)"/>
       <use xlink:href="#DejaVuSans-74" transform="translate(321.09375 0.390625)"/>
       <use xlink:href="#DejaVuSans-69" transform="translate(360.302734 0.390625)"/>
       <use xlink:href="#DejaVuSans-63" transform="translate(388.085938 0.390625)"/>
       <use xlink:href="#DejaVuSans-20" transform="translate(443.066406 0.390625)"/>
       <use xlink:href="#DejaVuSans-43" transform="translate(474.853516 0.390625)"/>
       <use xlink:href="#DejaVuSans-2d" transform="translate(544.677734 0.390625)"/>
       <use xlink:href="#DejaVuSans-Oblique-3b2" transform="translate(580.761719 0.390625)"/>
      </g>
     </g>
    </g>
    <g id="xtick_5">
     <g id="text_5">
      <!-- Template C-$\beta$ -->
      <g style="fill: #262626" transform="translate(493.361279 674.94886) rotate(-45) scale(0.2 -0.2)">
       <use xlink:href="#DejaVuSans-54" transform="translate(0 0.390625)"/>
       <use xlink:href="#DejaVuSans-65" transform="translate(61.083984 0.390625)"/>
       <use xlink:href="#DejaVuSans-6d" transform="translate(122.607422 0.390625)"/>
       <use xlink:href="#DejaVuSans-70" transform="translate(220.019531 0.390625)"/>
       <use xlink:href="#DejaVuSans-6c" transform="translate(283.496094 0.390625)"/>
       <use xlink:href="#DejaVuSans-61" transform="translate(311.279297 0.390625)"/>
       <use xlink:href="#DejaVuSans-74" transform="translate(372.558594 0.390625)"/>
       <use xlink:href="#DejaVuSans-65" transform="translate(411.767578 0.390625)"/>
       <use xlink:href="#DejaVuSans-20" transform="translate(473.291016 0.390625)"/>
       <use xlink:href="#DejaVuSans-43" transform="translate(505.078125 0.390625)"/>
       <use xlink:href="#DejaVuSans-2d" transform="translate(574.902344 0.390625)"/>
       <use xlink:href="#DejaVuSans-Oblique-3b2" transform="translate(610.986328 0.390625)"/>
      </g>
     </g>
    </g>
    <g id="xtick_6">
     <g id="text_6">
      <!-- AttnPacker -->
      <g style="fill: #262626" transform="translate(624.274133 655.348744) rotate(-45) scale(0.2 -0.2)">
       <defs>
        <path id="DejaVuSans-50" d="M 1259 4147 
L 1259 2394 
L 2053 2394 
Q 2494 2394 2734 2622 
Q 2975 2850 2975 3272 
Q 2975 3691 2734 3919 
Q 2494 4147 2053 4147 
L 1259 4147 
z
M 628 4666 
L 2053 4666 
Q 2838 4666 3239 4311 
Q 3641 3956 3641 3272 
Q 3641 2581 3239 2228 
Q 2838 1875 2053 1875 
L 1259 1875 
L 1259 0 
L 628 0 
L 628 4666 
z
" transform="scale(0.015625)"/>
       </defs>
       <use xlink:href="#DejaVuSans-41"/>
       <use xlink:href="#DejaVuSans-74" x="66.658203"/>
       <use xlink:href="#DejaVuSans-74" x="105.867188"/>
       <use xlink:href="#DejaVuSans-6e" x="145.076172"/>
       <use xlink:href="#DejaVuSans-50" x="208.455078"/>
       <use xlink:href="#DejaVuSans-61" x="264.257812"/>
       <use xlink:href="#DejaVuSans-63" x="325.537109"/>
       <use xlink:href="#DejaVuSans-6b" x="380.517578"/>
       <use xlink:href="#DejaVuSans-65" x="434.802734"/>
       <use xlink:href="#DejaVuSans-72" x="496.326172"/>
      </g>
     </g>
    </g>
    <g id="xtick_7">
     <g id="text_7">
      <!-- AttnPacker (AF) -->
      <g style="fill: #262626" transform="translate(702.536258 688.686619) rotate(-45) scale(0.2 -0.2)">
       <defs>
        <path id="DejaVuSans-28" d="M 1984 4856 
Q 1566 4138 1362 3434 
Q 1159 2731 1159 2009 
Q 1159 1288 1364 580 
Q 1569 -128 1984 -844 
L 1484 -844 
Q 1016 -109 783 600 
Q 550 1309 550 2009 
Q 550 2706 781 3412 
Q 1013 4119 1484 4856 
L 1984 4856 
z
" transform="scale(0.015625)"/>
        <path id="DejaVuSans-46" d="M 628 4666 
L 3309 4666 
L 3309 4134 
L 1259 4134 
L 1259 2759 
L 3109 2759 
L 3109 2228 
L 1259 2228 
L 1259 0 
L 628 0 
L 628 4666 
z
" transform="scale(0.015625)"/>
        <path id="DejaVuSans-29" d="M 513 4856 
L 1013 4856 
Q 1481 4119 1714 3412 
Q 1947 2706 1947 2009 
Q 1947 1309 1714 600 
Q 1481 -109 1013 -844 
L 513 -844 
Q 928 -128 1133 580 
Q 1338 1288 1338 2009 
Q 1338 2731 1133 3434 
Q 928 4138 513 4856 
z
" transform="scale(0.015625)"/>
       </defs>
       <use xlink:href="#DejaVuSans-41"/>
       <use xlink:href="#DejaVuSans-74" x="66.658203"/>
       <use xlink:href="#DejaVuSans-74" x="105.867188"/>
       <use xlink:href="#DejaVuSans-6e" x="145.076172"/>
       <use xlink:href="#DejaVuSans-50" x="208.455078"/>
       <use xlink:href="#DejaVuSans-61" x="264.257812"/>
       <use xlink:href="#DejaVuSans-63" x="325.537109"/>
       <use xlink:href="#DejaVuSans-6b" x="380.517578"/>
       <use xlink:href="#DejaVuSans-65" x="434.802734"/>
       <use xlink:href="#DejaVuSans-72" x="496.326172"/>
       <use xlink:href="#DejaVuSans-20" x="537.439453"/>
       <use xlink:href="#DejaVuSans-28" x="569.226562"/>
       <use xlink:href="#DejaVuSans-41" x="608.240234"/>
       <use xlink:href="#DejaVuSans-46" x="676.648438"/>
       <use xlink:href="#DejaVuSans-29" x="734.167969"/>
      </g>
     </g>
    </g>
    <g id="text_8">
     <!-- Method -->
     <g style="fill: #262626" transform="translate(428.825 710.824616) scale(0.2 -0.2)">
      <defs>
       <path id="DejaVuSans-68" d="M 3513 2113 
L 3513 0 
L 2938 0 
L 2938 2094 
Q 2938 2591 2744 2837 
Q 2550 3084 2163 3084 
Q 1697 3084 1428 2787 
Q 1159 2491 1159 1978 
L 1159 0 
L 581 0 
L 581 4863 
L 1159 4863 
L 1159 2956 
Q 1366 3272 1645 3428 
Q 1925 3584 2291 3584 
Q 2894 3584 3203 3211 
Q 3513 2838 3513 2113 
z
" transform="scale(0.015625)"/>
       <path id="DejaVuSans-64" d="M 2906 2969 
L 2906 4863 
L 3481 4863 
L 3481 0 
L 2906 0 
L 2906 525 
Q 2725 213 2448 61 
Q 2172 -91 1784 -91 
Q 1150 -91 751 415 
Q 353 922 353 1747 
Q 353 2572 751 3078 
Q 1150 3584 1784 3584 
Q 2172 3584 2448 3432 
Q 2725 3281 2906 2969 
z
M 947 1747 
Q 947 1113 1208 752 
Q 1469 391 1925 391 
Q 2381 391 2643 752 
Q 2906 1113 2906 1747 
Q 2906 2381 2643 2742 
Q 2381 3103 1925 3103 
Q 1469 3103 1208 2742 
Q 947 2381 947 1747 
z
" transform="scale(0.015625)"/>
      </defs>
      <use xlink:href="#DejaVuSans-4d"/>
      <use xlink:href="#DejaVuSans-65" x="86.279297"/>
      <use xlink:href="#DejaVuSans-74" x="147.802734"/>
      <use xlink:href="#DejaVuSans-68" x="187.011719"/>
      <use xlink:href="#DejaVuSans-6f" x="250.390625"/>
      <use xlink:href="#DejaVuSans-64" x="311.572266"/>
     </g>
    </g>
   </g>
   <g id="matplotlib.axis_2">
    <g id="ytick_1">
     <g id="line2d_1">
      <path d="M 75.73125 543.394616 
L 856.93125 543.394616 
" clip-path="url(#p1d01706c3f)" style="fill: none; stroke: #cccccc; stroke-width: 0.8; stroke-linecap: round"/>
     </g>
     <g id="text_9">
      <!-- 20 -->
      <g style="fill: #262626" transform="translate(43.28125 550.993053) scale(0.2 -0.2)">
       <defs>
        <path id="DejaVuSans-32" d="M 1228 531 
L 3431 531 
L 3431 0 
L 469 0 
L 469 531 
Q 828 903 1448 1529 
Q 2069 2156 2228 2338 
Q 2531 2678 2651 2914 
Q 2772 3150 2772 3378 
Q 2772 3750 2511 3984 
Q 2250 4219 1831 4219 
Q 1534 4219 1204 4116 
Q 875 4013 500 3803 
L 500 4441 
Q 881 4594 1212 4672 
Q 1544 4750 1819 4750 
Q 2544 4750 2975 4387 
Q 3406 4025 3406 3419 
Q 3406 3131 3298 2873 
Q 3191 2616 2906 2266 
Q 2828 2175 2409 1742 
Q 1991 1309 1228 531 
z
" transform="scale(0.015625)"/>
        <path id="DejaVuSans-30" d="M 2034 4250 
Q 1547 4250 1301 3770 
Q 1056 3291 1056 2328 
Q 1056 1369 1301 889 
Q 1547 409 2034 409 
Q 2525 409 2770 889 
Q 3016 1369 3016 2328 
Q 3016 3291 2770 3770 
Q 2525 4250 2034 4250 
z
M 2034 4750 
Q 2819 4750 3233 4129 
Q 3647 3509 3647 2328 
Q 3647 1150 3233 529 
Q 2819 -91 2034 -91 
Q 1250 -91 836 529 
Q 422 1150 422 2328 
Q 422 3509 836 4129 
Q 1250 4750 2034 4750 
z
" transform="scale(0.015625)"/>
       </defs>
       <use xlink:href="#DejaVuSans-32"/>
       <use xlink:href="#DejaVuSans-30" x="63.623047"/>
      </g>
     </g>
    </g>
    <g id="ytick_2">
     <g id="line2d_2">
      <path d="M 75.73125 430.321873 
L 856.93125 430.321873 
" clip-path="url(#p1d01706c3f)" style="fill: none; stroke: #cccccc; stroke-width: 0.8; stroke-linecap: round"/>
     </g>
     <g id="text_10">
      <!-- 40 -->
      <g style="fill: #262626" transform="translate(43.28125 437.92031) scale(0.2 -0.2)">
       <defs>
        <path id="DejaVuSans-34" d="M 2419 4116 
L 825 1625 
L 2419 1625 
L 2419 4116 
z
M 2253 4666 
L 3047 4666 
L 3047 1625 
L 3713 1625 
L 3713 1100 
L 3047 1100 
L 3047 0 
L 2419 0 
L 2419 1100 
L 313 1100 
L 313 1709 
L 2253 4666 
z
" transform="scale(0.015625)"/>
       </defs>
       <use xlink:href="#DejaVuSans-34"/>
       <use xlink:href="#DejaVuSans-30" x="63.623047"/>
      </g>
     </g>
    </g>
    <g id="ytick_3">
     <g id="line2d_3">
      <path d="M 75.73125 317.24913 
L 856.93125 317.24913 
" clip-path="url(#p1d01706c3f)" style="fill: none; stroke: #cccccc; stroke-width: 0.8; stroke-linecap: round"/>
     </g>
     <g id="text_11">
      <!-- 60 -->
      <g style="fill: #262626" transform="translate(43.28125 324.847567) scale(0.2 -0.2)">
       <defs>
        <path id="DejaVuSans-36" d="M 2113 2584 
Q 1688 2584 1439 2293 
Q 1191 2003 1191 1497 
Q 1191 994 1439 701 
Q 1688 409 2113 409 
Q 2538 409 2786 701 
Q 3034 994 3034 1497 
Q 3034 2003 2786 2293 
Q 2538 2584 2113 2584 
z
M 3366 4563 
L 3366 3988 
Q 3128 4100 2886 4159 
Q 2644 4219 2406 4219 
Q 1781 4219 1451 3797 
Q 1122 3375 1075 2522 
Q 1259 2794 1537 2939 
Q 1816 3084 2150 3084 
Q 2853 3084 3261 2657 
Q 3669 2231 3669 1497 
Q 3669 778 3244 343 
Q 2819 -91 2113 -91 
Q 1303 -91 875 529 
Q 447 1150 447 2328 
Q 447 3434 972 4092 
Q 1497 4750 2381 4750 
Q 2619 4750 2861 4703 
Q 3103 4656 3366 4563 
z
" transform="scale(0.015625)"/>
       </defs>
       <use xlink:href="#DejaVuSans-36"/>
       <use xlink:href="#DejaVuSans-30" x="63.623047"/>
      </g>
     </g>
    </g>
    <g id="ytick_4">
     <g id="line2d_4">
      <path d="M 75.73125 204.176387 
L 856.93125 204.176387 
" clip-path="url(#p1d01706c3f)" style="fill: none; stroke: #cccccc; stroke-width: 0.8; stroke-linecap: round"/>
     </g>
     <g id="text_12">
      <!-- 80 -->
      <g style="fill: #262626" transform="translate(43.28125 211.774824) scale(0.2 -0.2)">
       <defs>
        <path id="DejaVuSans-38" d="M 2034 2216 
Q 1584 2216 1326 1975 
Q 1069 1734 1069 1313 
Q 1069 891 1326 650 
Q 1584 409 2034 409 
Q 2484 409 2743 651 
Q 3003 894 3003 1313 
Q 3003 1734 2745 1975 
Q 2488 2216 2034 2216 
z
M 1403 2484 
Q 997 2584 770 2862 
Q 544 3141 544 3541 
Q 544 4100 942 4425 
Q 1341 4750 2034 4750 
Q 2731 4750 3128 4425 
Q 3525 4100 3525 3541 
Q 3525 3141 3298 2862 
Q 3072 2584 2669 2484 
Q 3125 2378 3379 2068 
Q 3634 1759 3634 1313 
Q 3634 634 3220 271 
Q 2806 -91 2034 -91 
Q 1263 -91 848 271 
Q 434 634 434 1313 
Q 434 1759 690 2068 
Q 947 2378 1403 2484 
z
M 1172 3481 
Q 1172 3119 1398 2916 
Q 1625 2713 2034 2713 
Q 2441 2713 2670 2916 
Q 2900 3119 2900 3481 
Q 2900 3844 2670 4047 
Q 2441 4250 2034 4250 
Q 1625 4250 1398 4047 
Q 1172 3844 1172 3481 
z
" transform="scale(0.015625)"/>
       </defs>
       <use xlink:href="#DejaVuSans-38"/>
       <use xlink:href="#DejaVuSans-30" x="63.623047"/>
      </g>
     </g>
    </g>
    <g id="ytick_5">
     <g id="line2d_5">
      <path d="M 75.73125 91.103644 
L 856.93125 91.103644 
" clip-path="url(#p1d01706c3f)" style="fill: none; stroke: #cccccc; stroke-width: 0.8; stroke-linecap: round"/>
     </g>
     <g id="text_13">
      <!-- 100 -->
      <g style="fill: #262626" transform="translate(30.55625 98.702081) scale(0.2 -0.2)">
       <defs>
        <path id="DejaVuSans-31" d="M 794 531 
L 1825 531 
L 1825 4091 
L 703 3866 
L 703 4441 
L 1819 4666 
L 2450 4666 
L 2450 531 
L 3481 531 
L 3481 0 
L 794 0 
L 794 531 
z
" transform="scale(0.015625)"/>
       </defs>
       <use xlink:href="#DejaVuSans-31"/>
       <use xlink:href="#DejaVuSans-30" x="63.623047"/>
       <use xlink:href="#DejaVuSans-30" x="127.246094"/>
      </g>
     </g>
    </g>
    <g id="text_14">
     <!-- pLDDT % -->
     <g style="fill: #262626" transform="translate(22.396875 330.507812) rotate(-90) scale(0.2 -0.2)">
      <defs>
       <path id="DejaVuSans-4c" d="M 628 4666 
L 1259 4666 
L 1259 531 
L 3531 531 
L 3531 0 
L 628 0 
L 628 4666 
z
" transform="scale(0.015625)"/>
       <path id="DejaVuSans-44" d="M 1259 4147 
L 1259 519 
L 2022 519 
Q 2988 519 3436 956 
Q 3884 1394 3884 2338 
Q 3884 3275 3436 3711 
Q 2988 4147 2022 4147 
L 1259 4147 
z
M 628 4666 
L 1925 4666 
Q 3281 4666 3915 4102 
Q 4550 3538 4550 2338 
Q 4550 1131 3912 565 
Q 3275 0 1925 0 
L 628 0 
L 628 4666 
z
" transform="scale(0.015625)"/>
       <path id="DejaVuSans-25" d="M 4653 2053 
Q 4381 2053 4226 1822 
Q 4072 1591 4072 1178 
Q 4072 772 4226 539 
Q 4381 306 4653 306 
Q 4919 306 5073 539 
Q 5228 772 5228 1178 
Q 5228 1588 5073 1820 
Q 4919 2053 4653 2053 
z
M 4653 2450 
Q 5147 2450 5437 2106 
Q 5728 1763 5728 1178 
Q 5728 594 5436 251 
Q 5144 -91 4653 -91 
Q 4153 -91 3862 251 
Q 3572 594 3572 1178 
Q 3572 1766 3864 2108 
Q 4156 2450 4653 2450 
z
M 1428 4353 
Q 1159 4353 1004 4120 
Q 850 3888 850 3481 
Q 850 3069 1003 2837 
Q 1156 2606 1428 2606 
Q 1700 2606 1854 2837 
Q 2009 3069 2009 3481 
Q 2009 3884 1853 4118 
Q 1697 4353 1428 4353 
z
M 4250 4750 
L 4750 4750 
L 1831 -91 
L 1331 -91 
L 4250 4750 
z
M 1428 4750 
Q 1922 4750 2215 4408 
Q 2509 4066 2509 3481 
Q 2509 2891 2217 2550 
Q 1925 2209 1428 2209 
Q 931 2209 642 2551 
Q 353 2894 353 3481 
Q 353 4063 643 4406 
Q 934 4750 1428 4750 
z
" transform="scale(0.015625)"/>
      </defs>
      <use xlink:href="#DejaVuSans-70"/>
      <use xlink:href="#DejaVuSans-4c" x="63.476562"/>
      <use xlink:href="#DejaVuSans-44" x="119.189453"/>
      <use xlink:href="#DejaVuSans-44" x="196.191406"/>
      <use xlink:href="#DejaVuSans-54" x="273.193359"/>
      <use xlink:href="#DejaVuSans-20" x="334.277344"/>
      <use xlink:href="#DejaVuSans-25" x="366.064453"/>
     </g>
    </g>
   </g>
   <g id="PolyCollection_1">
    <defs>
     <path id="m7c889fa122" d="M 131.728857 -185.783991 
L 131.333643 -185.783991 
L 131.260402 -190.731416 
L 131.168112 -195.678841 
L 131.054931 -200.626266 
L 130.919925 -205.573691 
L 130.763413 -210.521116 
L 130.587259 -215.468541 
L 130.395031 -220.415966 
L 130.192016 -225.363391 
L 129.98501 -230.310816 
L 129.781913 -235.258241 
L 129.591123 -240.205666 
L 129.420794 -245.153091 
L 129.278051 -250.100516 
L 129.168261 -255.047941 
L 129.094458 -259.995366 
L 129.057034 -264.942791 
L 129.053735 -269.890216 
L 129.079975 -274.837641 
L 129.129438 -279.785066 
L 129.194861 -284.732491 
L 129.268888 -289.679916 
L 129.344852 -294.627341 
L 129.417374 -299.574766 
L 129.482685 -304.522191 
L 129.538651 -309.469616 
L 129.584516 -314.417041 
L 129.620458 -319.364466 
L 129.647047 -324.311891 
L 129.664735 -329.259316 
L 129.673476 -334.206741 
L 129.672519 -339.154166 
L 129.660396 -344.101591 
L 129.635058 -349.049016 
L 129.594099 -353.996441 
L 129.534987 -358.943866 
L 129.455254 -363.891291 
L 129.352595 -368.838716 
L 129.224898 -373.786141 
L 129.070227 -378.733566 
L 128.886802 -383.680991 
L 128.673007 -388.628416 
L 128.427452 -393.575841 
L 128.149037 -398.523266 
L 127.837006 -403.470691 
L 127.490887 -408.418116 
L 127.110294 -413.365541 
L 126.694537 -418.312966 
L 126.242065 -423.260391 
L 125.74979 -428.207816 
L 125.212405 -433.155241 
L 124.621818 -438.102666 
L 123.96683 -443.050091 
L 123.233165 -447.997516 
L 122.40394 -452.944941 
L 121.460572 -457.892366 
L 120.384107 -462.839791 
L 119.156858 -467.787216 
L 117.764233 -472.734641 
L 116.196572 -477.682066 
L 114.450804 -482.629491 
L 112.531761 -487.576916 
L 110.453003 -492.524341 
L 108.237047 -497.471766 
L 105.914996 -502.419191 
L 103.525605 -507.366616 
L 101.113908 -512.314041 
L 98.729575 -517.261466 
L 96.425192 -522.208891 
L 94.254618 -527.156316 
L 92.271543 -532.103741 
L 90.528274 -537.051166 
L 89.074675 -541.998591 
L 87.957145 -546.946016 
L 87.217449 -551.893441 
L 86.89125 -556.840866 
L 87.006283 -561.788291 
L 87.580197 -566.735716 
L 88.61827 -571.683141 
L 90.111297 -576.630566 
L 92.034054 -581.577991 
L 94.344724 -586.525416 
L 96.985595 -591.472841 
L 99.885179 -596.420266 
L 102.961702 -601.367691 
L 106.127685 -606.315116 
L 109.29517 -611.262541 
L 112.381026 -616.209966 
L 115.311767 -621.157391 
L 118.027373 -626.104816 
L 120.483753 -631.052241 
L 122.653709 -635.999666 
L 124.52643 -640.947091 
L 126.10574 -645.894516 
L 127.40745 -650.841941 
L 128.456203 -655.789366 
L 129.282222 -660.736791 
L 129.91828 -665.684216 
L 130.397147 -670.631641 
L 130.749648 -675.579066 
L 132.312852 -675.579066 
L 132.312852 -675.579066 
L 132.665353 -670.631641 
L 133.14422 -665.684216 
L 133.780278 -660.736791 
L 134.606297 -655.789366 
L 135.65505 -650.841941 
L 136.95676 -645.894516 
L 138.53607 -640.947091 
L 140.408791 -635.999666 
L 142.578747 -631.052241 
L 145.035127 -626.104816 
L 147.750733 -621.157391 
L 150.681474 -616.209966 
L 153.76733 -611.262541 
L 156.934815 -606.315116 
L 160.100798 -601.367691 
L 163.177321 -596.420266 
L 166.076905 -591.472841 
L 168.717776 -586.525416 
L 171.028446 -581.577991 
L 172.951203 -576.630566 
L 174.44423 -571.683141 
L 175.482303 -566.735716 
L 176.056217 -561.788291 
L 176.17125 -556.840866 
L 175.845051 -551.893441 
L 175.105355 -546.946016 
L 173.987825 -541.998591 
L 172.534226 -537.051166 
L 170.790957 -532.103741 
L 168.807882 -527.156316 
L 166.637308 -522.208891 
L 164.332925 -517.261466 
L 161.948592 -512.314041 
L 159.536895 -507.366616 
L 157.147504 -502.419191 
L 154.825453 -497.471766 
L 152.609497 -492.524341 
L 150.530739 -487.576916 
L 148.611696 -482.629491 
L 146.865928 -477.682066 
L 145.298267 -472.734641 
L 143.905642 -467.787216 
L 142.678393 -462.839791 
L 141.601928 -457.892366 
L 140.65856 -452.944941 
L 139.829335 -447.997516 
L 139.09567 -443.050091 
L 138.440682 -438.102666 
L 137.850095 -433.155241 
L 137.31271 -428.207816 
L 136.820435 -423.260391 
L 136.367963 -418.312966 
L 135.952206 -413.365541 
L 135.571613 -408.418116 
L 135.225494 -403.470691 
L 134.913463 -398.523266 
L 134.635048 -393.575841 
L 134.389493 -388.628416 
L 134.175698 -383.680991 
L 133.992273 -378.733566 
L 133.837602 -373.786141 
L 133.709905 -368.838716 
L 133.607246 -363.891291 
L 133.527513 -358.943866 
L 133.468401 -353.996441 
L 133.427442 -349.049016 
L 133.402104 -344.101591 
L 133.389981 -339.154166 
L 133.389024 -334.206741 
L 133.397765 -329.259316 
L 133.415453 -324.311891 
L 133.442042 -319.364466 
L 133.477984 -314.417041 
L 133.523849 -309.469616 
L 133.579815 -304.522191 
L 133.645126 -299.574766 
L 133.717648 -294.627341 
L 133.793612 -289.679916 
L 133.867639 -284.732491 
L 133.933062 -279.785066 
L 133.982525 -274.837641 
L 134.008765 -269.890216 
L 134.005466 -264.942791 
L 133.968042 -259.995366 
L 133.894239 -255.047941 
L 133.784449 -250.100516 
L 133.641706 -245.153091 
L 133.471377 -240.205666 
L 133.280587 -235.258241 
L 133.07749 -230.310816 
L 132.870484 -225.363391 
L 132.667469 -220.415966 
L 132.475241 -215.468541 
L 132.299087 -210.521116 
L 132.142575 -205.573691 
L 132.007569 -200.626266 
L 131.894388 -195.678841 
L 131.802098 -190.731416 
L 131.728857 -185.783991 
z
" style="stroke: #3d3d3d; stroke-opacity: 0.5"/>
    </defs>
    <g clip-path="url(#p1d01706c3f)">
     <use xlink:href="#m7c889fa122" x="0" y="722.183991" style="fill: #3274a1; fill-opacity: 0.5; stroke: #3d3d3d; stroke-opacity: 0.5"/>
    </g>
   </g>
   <g id="PolyCollection_2">
    <defs>
     <path id="m1d9657b07b" d="M 243.298163 -470.74741 
L 242.964337 -470.74741 
L 242.892396 -472.433196 
L 242.801319 -474.118982 
L 242.691346 -475.804768 
L 242.565092 -477.490554 
L 242.427914 -479.17634 
L 242.287851 -480.862126 
L 242.155027 -482.547912 
L 242.040539 -484.233698 
L 241.954956 -485.919483 
L 241.906726 -487.605269 
L 241.9008 -489.291055 
L 241.937795 -490.976841 
L 242.01389 -492.662627 
L 242.121473 -494.348413 
L 242.250397 -496.034199 
L 242.389551 -497.719985 
L 242.528413 -499.405771 
L 242.658287 -501.091557 
L 242.773049 -502.777343 
L 242.869334 -504.463129 
L 242.946273 -506.148915 
L 243.004897 -507.834701 
L 243.047423 -509.520487 
L 243.076544 -511.206273 
L 243.094844 -512.892059 
L 243.104363 -514.577845 
L 243.106329 -516.263631 
L 243.101011 -517.949417 
L 243.087692 -519.635203 
L 243.064749 -521.320988 
L 243.02985 -523.006774 
L 242.980296 -524.69256 
L 242.913524 -526.378346 
L 242.827755 -528.064132 
L 242.722716 -529.749918 
L 242.60031 -531.435704 
L 242.465062 -533.12149 
L 242.32416 -534.807276 
L 242.186962 -536.493062 
L 242.063935 -538.178848 
L 241.965133 -539.864634 
L 241.89845 -541.55042 
L 241.867973 -543.236206 
L 241.872781 -544.921992 
L 241.906422 -546.607778 
L 241.95719 -548.293564 
L 242.009109 -549.97935 
L 242.043396 -551.665136 
L 242.040087 -553.350922 
L 241.979517 -555.036707 
L 241.843445 -556.722493 
L 241.615744 -558.408279 
L 241.282742 -560.094065 
L 240.833398 -561.779851 
L 240.259546 -563.465637 
L 239.556367 -565.151423 
L 238.723106 -566.837209 
L 237.763865 -568.522995 
L 236.688105 -570.208781 
L 235.51043 -571.894567 
L 234.249243 -573.580353 
L 232.924152 -575.266139 
L 231.552351 -576.951925 
L 230.14461 -578.637711 
L 228.701846 -580.323497 
L 227.213309 -582.009283 
L 225.657227 -583.695069 
L 224.004213 -585.380855 
L 222.223118 -587.066641 
L 220.2883 -588.752427 
L 218.186919 -590.438212 
L 215.924755 -592.123998 
L 213.529447 -593.809784 
L 211.050695 -595.49557 
L 208.557741 -597.181356 
L 206.135045 -598.867142 
L 203.877281 -600.552928 
L 201.88456 -602.238714 
L 200.258209 -603.9245 
L 199.096748 -605.610286 
L 198.49125 -607.296072 
L 198.519281 -608.981858 
L 199.237121 -610.667644 
L 200.670913 -612.35343 
L 202.808322 -614.039216 
L 205.592892 -615.725002 
L 208.923264 -617.410788 
L 212.658571 -619.096574 
L 216.630033 -620.78236 
L 220.657214 -622.468146 
L 224.566264 -624.153931 
L 228.20691 -625.839717 
L 231.465312 -627.525503 
L 234.270921 -629.211289 
L 236.59682 -630.897075 
L 238.454426 -632.582861 
L 239.884352 -634.268647 
L 240.94562 -635.954433 
L 241.705269 -637.640219 
L 244.557231 -637.640219 
L 244.557231 -637.640219 
L 245.31688 -635.954433 
L 246.378148 -634.268647 
L 247.808074 -632.582861 
L 249.66568 -630.897075 
L 251.991579 -629.211289 
L 254.797188 -627.525503 
L 258.05559 -625.839717 
L 261.696236 -624.153931 
L 265.605286 -622.468146 
L 269.632467 -620.78236 
L 273.603929 -619.096574 
L 277.339236 -617.410788 
L 280.669608 -615.725002 
L 283.454178 -614.039216 
L 285.591587 -612.35343 
L 287.025379 -610.667644 
L 287.743219 -608.981858 
L 287.77125 -607.296072 
L 287.165752 -605.610286 
L 286.004291 -603.9245 
L 284.37794 -602.238714 
L 282.385219 -600.552928 
L 280.127455 -598.867142 
L 277.704759 -597.181356 
L 275.211805 -595.49557 
L 272.733053 -593.809784 
L 270.337745 -592.123998 
L 268.075581 -590.438212 
L 265.9742 -588.752427 
L 264.039382 -587.066641 
L 262.258287 -585.380855 
L 260.605273 -583.695069 
L 259.049191 -582.009283 
L 257.560654 -580.323497 
L 256.11789 -578.637711 
L 254.710149 -576.951925 
L 253.338348 -575.266139 
L 252.013257 -573.580353 
L 250.75207 -571.894567 
L 249.574395 -570.208781 
L 248.498635 -568.522995 
L 247.539394 -566.837209 
L 246.706133 -565.151423 
L 246.002954 -563.465637 
L 245.429102 -561.779851 
L 244.979758 -560.094065 
L 244.646756 -558.408279 
L 244.419055 -556.722493 
L 244.282983 -555.036707 
L 244.222413 -553.350922 
L 244.219104 -551.665136 
L 244.253391 -549.97935 
L 244.30531 -548.293564 
L 244.356078 -546.607778 
L 244.389719 -544.921992 
L 244.394527 -543.236206 
L 244.36405 -541.55042 
L 244.297367 -539.864634 
L 244.198565 -538.178848 
L 244.075538 -536.493062 
L 243.93834 -534.807276 
L 243.797438 -533.12149 
L 243.66219 -531.435704 
L 243.539784 -529.749918 
L 243.434745 -528.064132 
L 243.348976 -526.378346 
L 243.282204 -524.69256 
L 243.23265 -523.006774 
L 243.197751 -521.320988 
L 243.174808 -519.635203 
L 243.161489 -517.949417 
L 243.156171 -516.263631 
L 243.158137 -514.577845 
L 243.167656 -512.892059 
L 243.185956 -511.206273 
L 243.215077 -509.520487 
L 243.257603 -507.834701 
L 243.316227 -506.148915 
L 243.393166 -504.463129 
L 243.489451 -502.777343 
L 243.604213 -501.091557 
L 243.734087 -499.405771 
L 243.872949 -497.719985 
L 244.012103 -496.034199 
L 244.141027 -494.348413 
L 244.24861 -492.662627 
L 244.324705 -490.976841 
L 244.3617 -489.291055 
L 244.355774 -487.605269 
L 244.307544 -485.919483 
L 244.221961 -484.233698 
L 244.107473 -482.547912 
L 243.974649 -480.862126 
L 243.834586 -479.17634 
L 243.697408 -477.490554 
L 243.571154 -475.804768 
L 243.461181 -474.118982 
L 243.370104 -472.433196 
L 243.298163 -470.74741 
z
" style="stroke: #3d3d3d; stroke-opacity: 0.5"/>
    </defs>
    <g clip-path="url(#p1d01706c3f)">
     <use xlink:href="#m1d9657b07b" x="0" y="722.183991" style="fill: #d684bd; fill-opacity: 0.5; stroke: #3d3d3d; stroke-opacity: 0.5"/>
    </g>
   </g>
   <g id="PolyCollection_3">
    <defs>
     <path id="m193696a58c" d="M 355.994145 -192.397606 
L 353.468355 -192.397606 
L 352.981774 -197.229226 
L 352.34824 -202.060847 
L 351.53917 -206.892468 
L 350.525849 -211.724088 
L 349.281372 -216.555709 
L 347.782999 -221.38733 
L 346.014741 -226.21895 
L 343.970007 -231.050571 
L 341.654009 -235.882192 
L 339.085655 -240.713812 
L 336.298623 -245.545433 
L 333.341394 -250.377054 
L 330.276076 -255.208674 
L 327.17601 -260.040295 
L 324.122263 -264.871916 
L 321.19928 -269.703536 
L 318.490042 -274.535157 
L 316.0712 -279.366778 
L 314.008618 -284.198398 
L 312.35376 -289.030019 
L 311.1412 -293.86164 
L 310.387473 -298.69326 
L 310.09125 -303.524881 
L 310.234754 -308.356502 
L 310.786165 -313.188122 
L 311.702712 -318.019743 
L 312.934138 -322.851364 
L 314.426185 -327.682985 
L 316.123867 -332.514605 
L 317.974276 -337.346226 
L 319.928818 -342.177847 
L 321.944769 -347.009467 
L 323.986163 -351.841088 
L 326.024027 -356.672709 
L 328.03604 -361.504329 
L 330.005734 -366.33595 
L 331.921373 -371.167571 
L 333.77465 -375.999191 
L 335.559375 -380.830812 
L 337.270293 -385.662433 
L 338.902146 -390.494053 
L 340.449074 -395.325674 
L 341.904364 -400.157295 
L 343.26054 -404.988915 
L 344.50973 -409.820536 
L 345.644211 -414.652157 
L 346.657032 -419.483777 
L 347.542611 -424.315398 
L 348.297241 -429.147019 
L 348.919454 -433.978639 
L 349.410232 -438.81026 
L 349.773091 -443.641881 
L 350.01406 -448.473501 
L 350.141605 -453.305122 
L 350.166506 -458.136743 
L 350.101712 -462.968364 
L 349.962148 -467.799984 
L 349.764442 -472.631605 
L 349.526549 -477.463226 
L 349.267226 -482.294846 
L 349.005361 -487.126467 
L 348.759174 -491.958088 
L 348.545337 -496.789708 
L 348.378103 -501.621329 
L 348.268528 -506.45295 
L 348.223892 -511.28457 
L 348.247382 -516.116191 
L 348.338105 -520.947812 
L 348.49142 -525.779432 
L 348.699555 -530.611053 
L 348.95246 -535.442674 
L 349.238769 -540.274294 
L 349.546796 -545.105915 
L 349.865443 -549.937536 
L 350.184958 -554.769156 
L 350.497466 -559.600777 
L 350.797265 -564.432398 
L 351.080881 -569.264018 
L 351.346905 -574.095639 
L 351.595664 -578.92726 
L 351.828784 -583.75888 
L 352.048688 -588.590501 
L 352.258105 -593.422122 
L 352.459622 -598.253743 
L 352.655334 -603.085363 
L 352.8466 -607.916984 
L 353.033935 -612.748605 
L 353.217017 -617.580225 
L 353.394801 -622.411846 
L 353.565717 -627.243467 
L 353.727906 -632.075087 
L 353.879477 -636.906708 
L 354.01873 -641.738329 
L 354.144344 -646.569949 
L 354.255499 -651.40157 
L 354.351926 -656.233191 
L 354.433895 -661.064811 
L 354.502155 -665.896432 
L 354.557831 -670.728053 
L 354.904669 -670.728053 
L 354.904669 -670.728053 
L 354.960345 -665.896432 
L 355.028605 -661.064811 
L 355.110574 -656.233191 
L 355.207001 -651.40157 
L 355.318156 -646.569949 
L 355.44377 -641.738329 
L 355.583023 -636.906708 
L 355.734594 -632.075087 
L 355.896783 -627.243467 
L 356.067699 -622.411846 
L 356.245483 -617.580225 
L 356.428565 -612.748605 
L 356.6159 -607.916984 
L 356.807166 -603.085363 
L 357.002878 -598.253743 
L 357.204395 -593.422122 
L 357.413812 -588.590501 
L 357.633716 -583.75888 
L 357.866836 -578.92726 
L 358.115595 -574.095639 
L 358.381619 -569.264018 
L 358.665235 -564.432398 
L 358.965034 -559.600777 
L 359.277542 -554.769156 
L 359.597057 -549.937536 
L 359.915704 -545.105915 
L 360.223731 -540.274294 
L 360.51004 -535.442674 
L 360.762945 -530.611053 
L 360.97108 -525.779432 
L 361.124395 -520.947812 
L 361.215118 -516.116191 
L 361.238608 -511.28457 
L 361.193972 -506.45295 
L 361.084397 -501.621329 
L 360.917163 -496.789708 
L 360.703326 -491.958088 
L 360.457139 -487.126467 
L 360.195274 -482.294846 
L 359.935951 -477.463226 
L 359.698058 -472.631605 
L 359.500352 -467.799984 
L 359.360788 -462.968364 
L 359.295994 -458.136743 
L 359.320895 -453.305122 
L 359.44844 -448.473501 
L 359.689409 -443.641881 
L 360.052268 -438.81026 
L 360.543046 -433.978639 
L 361.165259 -429.147019 
L 361.919889 -424.315398 
L 362.805468 -419.483777 
L 363.818289 -414.652157 
L 364.95277 -409.820536 
L 366.20196 -404.988915 
L 367.558136 -400.157295 
L 369.013426 -395.325674 
L 370.560354 -390.494053 
L 372.192207 -385.662433 
L 373.903125 -380.830812 
L 375.68785 -375.999191 
L 377.541127 -371.167571 
L 379.456766 -366.33595 
L 381.42646 -361.504329 
L 383.438473 -356.672709 
L 385.476337 -351.841088 
L 387.517731 -347.009467 
L 389.533682 -342.177847 
L 391.488224 -337.346226 
L 393.338633 -332.514605 
L 395.036315 -327.682985 
L 396.528362 -322.851364 
L 397.759788 -318.019743 
L 398.676335 -313.188122 
L 399.227746 -308.356502 
L 399.37125 -303.524881 
L 399.075027 -298.69326 
L 398.3213 -293.86164 
L 397.10874 -289.030019 
L 395.453882 -284.198398 
L 393.3913 -279.366778 
L 390.972458 -274.535157 
L 388.26322 -269.703536 
L 385.340237 -264.871916 
L 382.28649 -260.040295 
L 379.186424 -255.208674 
L 376.121106 -250.377054 
L 373.163877 -245.545433 
L 370.376845 -240.713812 
L 367.808491 -235.882192 
L 365.492493 -231.050571 
L 363.447759 -226.21895 
L 361.679501 -221.38733 
L 360.181128 -216.555709 
L 358.936651 -211.724088 
L 357.92333 -206.892468 
L 357.11426 -202.060847 
L 356.480726 -197.229226 
L 355.994145 -192.397606 
z
" style="stroke: #3d3d3d; stroke-opacity: 0.5"/>
    </defs>
    <g clip-path="url(#p1d01706c3f)">
     <use xlink:href="#m193696a58c" x="0" y="722.183991" style="fill: #c03d3e; fill-opacity: 0.5; stroke: #3d3d3d; stroke-opacity: 0.5"/>
    </g>
   </g>
   <g id="PolyCollection_4">
    <defs>
     <path id="m614f312caf" d="M 466.508477 -484.085685 
L 466.154023 -484.085685 
L 466.085232 -485.592577 
L 465.999607 -487.099468 
L 465.897088 -488.60636 
L 465.779273 -490.113252 
L 465.649702 -491.620144 
L 465.513894 -493.127036 
L 465.379078 -494.633927 
L 465.25357 -496.140819 
L 465.145847 -497.647711 
L 465.063442 -499.154603 
L 465.011817 -500.661495 
L 464.993425 -502.168386 
L 465.007148 -503.675278 
L 465.048223 -505.18217 
L 465.10872 -506.689062 
L 465.178505 -508.195954 
L 465.24656 -509.702845 
L 465.302452 -511.209737 
L 465.337748 -512.716629 
L 465.347157 -514.223521 
L 465.329247 -515.730413 
L 465.286626 -517.237304 
L 465.225566 -518.744196 
L 465.155111 -520.251088 
L 465.085795 -521.75798 
L 465.028137 -523.264872 
L 464.991126 -524.771763 
L 464.980916 -526.278655 
L 464.999914 -527.785547 
L 465.046387 -529.292439 
L 465.114623 -530.799331 
L 465.195608 -532.306222 
L 465.278084 -533.813114 
L 465.349821 -535.320006 
L 465.398912 -536.826898 
L 465.414933 -538.33379 
L 465.389813 -539.840681 
L 465.318359 -541.347573 
L 465.198363 -542.854465 
L 465.030307 -544.361357 
L 464.816684 -545.868249 
L 464.56101 -547.37514 
L 464.266629 -548.882032 
L 463.935465 -550.388924 
L 463.566916 -551.895816 
L 463.157101 -553.402708 
L 462.69863 -554.909599 
L 462.181058 -556.416491 
L 461.592002 -557.923383 
L 460.918833 -559.430275 
L 460.150681 -560.937167 
L 459.280398 -562.444058 
L 458.306092 -563.95095 
L 457.231864 -565.457842 
L 456.067516 -566.964734 
L 454.827143 -568.471626 
L 453.526761 -569.978517 
L 452.18129 -571.485409 
L 450.801392 -572.992301 
L 449.390742 -574.499193 
L 447.944332 -576.006085 
L 446.4483 -577.512976 
L 444.88162 -579.019868 
L 443.219684 -580.52676 
L 441.439489 -582.033652 
L 439.525769 -583.540544 
L 437.477131 -585.047435 
L 435.311076 -586.554327 
L 433.066873 -588.061219 
L 430.805507 -589.568111 
L 428.606436 -591.075003 
L 426.561474 -592.581894 
L 424.766682 -594.088786 
L 423.313533 -595.595678 
L 422.280713 -597.10257 
L 421.727757 -598.609462 
L 421.69125 -600.116353 
L 422.183785 -601.623245 
L 423.195309 -603.130137 
L 424.696133 -604.637029 
L 426.640702 -606.14392 
L 428.97135 -607.650812 
L 431.621527 -609.157704 
L 434.518358 -610.664596 
L 437.58471 -612.171488 
L 440.741143 -613.678379 
L 443.908125 -615.185271 
L 447.008755 -616.692163 
L 449.971978 -618.199055 
L 452.736019 -619.705947 
L 455.251573 -621.212838 
L 457.484209 -622.71973 
L 459.415584 -624.226622 
L 461.043195 -625.733514 
L 462.378744 -627.240406 
L 463.445353 -628.747297 
L 464.274101 -630.254189 
L 464.900387 -631.761081 
L 465.360575 -633.267973 
L 467.301925 -633.267973 
L 467.301925 -633.267973 
L 467.762113 -631.761081 
L 468.388399 -630.254189 
L 469.217147 -628.747297 
L 470.283756 -627.240406 
L 471.619305 -625.733514 
L 473.246916 -624.226622 
L 475.178291 -622.71973 
L 477.410927 -621.212838 
L 479.926481 -619.705947 
L 482.690522 -618.199055 
L 485.653745 -616.692163 
L 488.754375 -615.185271 
L 491.921357 -613.678379 
L 495.07779 -612.171488 
L 498.144142 -610.664596 
L 501.040973 -609.157704 
L 503.69115 -607.650812 
L 506.021798 -606.14392 
L 507.966367 -604.637029 
L 509.467191 -603.130137 
L 510.478715 -601.623245 
L 510.97125 -600.116353 
L 510.934743 -598.609462 
L 510.381787 -597.10257 
L 509.348967 -595.595678 
L 507.895818 -594.088786 
L 506.101026 -592.581894 
L 504.056064 -591.075003 
L 501.856993 -589.568111 
L 499.595627 -588.061219 
L 497.351424 -586.554327 
L 495.185369 -585.047435 
L 493.136731 -583.540544 
L 491.223011 -582.033652 
L 489.442816 -580.52676 
L 487.78088 -579.019868 
L 486.2142 -577.512976 
L 484.718168 -576.006085 
L 483.271758 -574.499193 
L 481.861108 -572.992301 
L 480.48121 -571.485409 
L 479.135739 -569.978517 
L 477.835357 -568.471626 
L 476.594984 -566.964734 
L 475.430636 -565.457842 
L 474.356408 -563.95095 
L 473.382102 -562.444058 
L 472.511819 -560.937167 
L 471.743667 -559.430275 
L 471.070498 -557.923383 
L 470.481442 -556.416491 
L 469.96387 -554.909599 
L 469.505399 -553.402708 
L 469.095584 -551.895816 
L 468.727035 -550.388924 
L 468.395871 -548.882032 
L 468.10149 -547.37514 
L 467.845816 -545.868249 
L 467.632193 -544.361357 
L 467.464137 -542.854465 
L 467.344141 -541.347573 
L 467.272687 -539.840681 
L 467.247567 -538.33379 
L 467.263588 -536.826898 
L 467.312679 -535.320006 
L 467.384416 -533.813114 
L 467.466892 -532.306222 
L 467.547877 -530.799331 
L 467.616113 -529.292439 
L 467.662586 -527.785547 
L 467.681584 -526.278655 
L 467.671374 -524.771763 
L 467.634363 -523.264872 
L 467.576705 -521.75798 
L 467.507389 -520.251088 
L 467.436934 -518.744196 
L 467.375874 -517.237304 
L 467.333253 -515.730413 
L 467.315343 -514.223521 
L 467.324752 -512.716629 
L 467.360048 -511.209737 
L 467.41594 -509.702845 
L 467.483995 -508.195954 
L 467.55378 -506.689062 
L 467.614277 -505.18217 
L 467.655352 -503.675278 
L 467.669075 -502.168386 
L 467.650683 -500.661495 
L 467.599058 -499.154603 
L 467.516653 -497.647711 
L 467.40893 -496.140819 
L 467.283422 -494.633927 
L 467.148606 -493.127036 
L 467.012798 -491.620144 
L 466.883227 -490.113252 
L 466.765412 -488.60636 
L 466.662893 -487.099468 
L 466.577268 -485.592577 
L 466.508477 -484.085685 
z
" style="stroke: #3d3d3d; stroke-opacity: 0.5"/>
    </defs>
    <g clip-path="url(#p1d01706c3f)">
     <use xlink:href="#m614f312caf" x="0" y="722.183991" style="fill: #9372b2; fill-opacity: 0.5; stroke: #3d3d3d; stroke-opacity: 0.5"/>
    </g>
   </g>
   <g id="PolyCollection_5">
    <defs>
     <path id="m11c087a7ed" d="M 578.105966 -447.063666 
L 577.756534 -447.063666 
L 577.686228 -448.981685 
L 577.598215 -450.899704 
L 577.492528 -452.817723 
L 577.371092 -454.735742 
L 577.238045 -456.653761 
L 577.099755 -458.57178 
L 576.964459 -460.489799 
L 576.841495 -462.407819 
L 576.740199 -464.325838 
L 576.668612 -466.243857 
L 576.632228 -468.161876 
L 576.633009 -470.079895 
L 576.66887 -471.997914 
L 576.733738 -473.915933 
L 576.818208 -475.833952 
L 576.910675 -477.751971 
L 576.998771 -479.66999 
L 577.070896 -481.588009 
L 577.117617 -483.506029 
L 577.13277 -485.424048 
L 577.114147 -487.342067 
L 577.063684 -489.260086 
L 576.987135 -491.178105 
L 576.893266 -493.096124 
L 576.792624 -495.014143 
L 576.696055 -496.932162 
L 576.613129 -498.850181 
L 576.55075 -500.7682 
L 576.512167 -502.686219 
L 576.496613 -504.604239 
L 576.499658 -506.522258 
L 576.514247 -508.440277 
L 576.532244 -510.358296 
L 576.546168 -512.276315 
L 576.55078 -514.194334 
L 576.54416 -516.112353 
L 576.528053 -518.030372 
L 576.50739 -519.948391 
L 576.489077 -521.86641 
L 576.480309 -523.78443 
L 576.486744 -525.702449 
L 576.510892 -527.620468 
L 576.55102 -529.538487 
L 576.600719 -531.456506 
L 576.649138 -533.374525 
L 576.681734 -535.292544 
L 576.681284 -537.210563 
L 576.628881 -539.128582 
L 576.504699 -541.046601 
L 576.288385 -542.96462 
L 575.95914 -544.88264 
L 575.495658 -546.800659 
L 574.876191 -548.718678 
L 574.07906 -550.636697 
L 573.083815 -552.554716 
L 571.873074 -554.472735 
L 570.434871 -556.390754 
L 568.765082 -558.308773 
L 566.869398 -560.226792 
L 564.7643 -562.144811 
L 562.476695 -564.06283 
L 560.042177 -565.98085 
L 557.502239 -567.898869 
L 554.901066 -569.816888 
L 552.282634 -571.734907 
L 549.688766 -573.652926 
L 547.158441 -575.570945 
L 544.728316 -577.488964 
L 542.433984 -579.406983 
L 540.311379 -581.325002 
L 538.397688 -583.243021 
L 536.731407 -585.16104 
L 535.351477 -587.07906 
L 534.295717 -588.997079 
L 533.598963 -590.915098 
L 533.29125 -592.833117 
L 533.396253 -594.751136 
L 533.929964 -596.669155 
L 534.899445 -598.587174 
L 536.301452 -600.505193 
L 538.1209 -602.423212 
L 540.329295 -604.341231 
L 542.883565 -606.25925 
L 545.725773 -608.17727 
L 548.784229 -610.095289 
L 551.976254 -612.013308 
L 555.212576 -613.931327 
L 558.402946 -615.849346 
L 561.462289 -617.767365 
L 564.316564 -619.685384 
L 566.907514 -621.603403 
L 569.195702 -623.521422 
L 571.16151 -625.439441 
L 572.804128 -627.357461 
L 574.138866 -629.27548 
L 575.193319 -631.193499 
L 576.003039 -633.111518 
L 576.60729 -635.029537 
L 577.045392 -636.947556 
L 578.817108 -636.947556 
L 578.817108 -636.947556 
L 579.25521 -635.029537 
L 579.859461 -633.111518 
L 580.669181 -631.193499 
L 581.723634 -629.27548 
L 583.058372 -627.357461 
L 584.70099 -625.439441 
L 586.666798 -623.521422 
L 588.954986 -621.603403 
L 591.545936 -619.685384 
L 594.400211 -617.767365 
L 597.459554 -615.849346 
L 600.649924 -613.931327 
L 603.886246 -612.013308 
L 607.078271 -610.095289 
L 610.136727 -608.17727 
L 612.978935 -606.25925 
L 615.533205 -604.341231 
L 617.7416 -602.423212 
L 619.561048 -600.505193 
L 620.963055 -598.587174 
L 621.932536 -596.669155 
L 622.466247 -594.751136 
L 622.57125 -592.833117 
L 622.263537 -590.915098 
L 621.566783 -588.997079 
L 620.511023 -587.07906 
L 619.131093 -585.16104 
L 617.464812 -583.243021 
L 615.551121 -581.325002 
L 613.428516 -579.406983 
L 611.134184 -577.488964 
L 608.704059 -575.570945 
L 606.173734 -573.652926 
L 603.579866 -571.734907 
L 600.961434 -569.816888 
L 598.360261 -567.898869 
L 595.820323 -565.98085 
L 593.385805 -564.06283 
L 591.0982 -562.144811 
L 588.993102 -560.226792 
L 587.097418 -558.308773 
L 585.427629 -556.390754 
L 583.989426 -554.472735 
L 582.778685 -552.554716 
L 581.78344 -550.636697 
L 580.986309 -548.718678 
L 580.366842 -546.800659 
L 579.90336 -544.88264 
L 579.574115 -542.96462 
L 579.357801 -541.046601 
L 579.233619 -539.128582 
L 579.181216 -537.210563 
L 579.180766 -535.292544 
L 579.213362 -533.374525 
L 579.261781 -531.456506 
L 579.31148 -529.538487 
L 579.351608 -527.620468 
L 579.375756 -525.702449 
L 579.382191 -523.78443 
L 579.373423 -521.86641 
L 579.35511 -519.948391 
L 579.334447 -518.030372 
L 579.31834 -516.112353 
L 579.31172 -514.194334 
L 579.316332 -512.276315 
L 579.330256 -510.358296 
L 579.348253 -508.440277 
L 579.362842 -506.522258 
L 579.365887 -504.604239 
L 579.350333 -502.686219 
L 579.31175 -500.7682 
L 579.249371 -498.850181 
L 579.166445 -496.932162 
L 579.069876 -495.014143 
L 578.969234 -493.096124 
L 578.875365 -491.178105 
L 578.798816 -489.260086 
L 578.748353 -487.342067 
L 578.72973 -485.424048 
L 578.744883 -483.506029 
L 578.791604 -481.588009 
L 578.863729 -479.66999 
L 578.951825 -477.751971 
L 579.044292 -475.833952 
L 579.128762 -473.915933 
L 579.19363 -471.997914 
L 579.229491 -470.079895 
L 579.230272 -468.161876 
L 579.193888 -466.243857 
L 579.122301 -464.325838 
L 579.021005 -462.407819 
L 578.898041 -460.489799 
L 578.762745 -458.57178 
L 578.624455 -456.653761 
L 578.491408 -454.735742 
L 578.369972 -452.817723 
L 578.264285 -450.899704 
L 578.176272 -448.981685 
L 578.105966 -447.063666 
z
" style="stroke: #3d3d3d; stroke-opacity: 0.5"/>
    </defs>
    <g clip-path="url(#p1d01706c3f)">
     <use xlink:href="#m11c087a7ed" x="0" y="722.183991" style="fill: #845b53; fill-opacity: 0.5; stroke: #3d3d3d; stroke-opacity: 0.5"/>
    </g>
   </g>
   <g id="PolyCollection_6">
    <defs>
     <path id="m02628591be" d="M 690.130596 -226.940814 
L 688.931904 -226.940814 
L 688.757565 -231.615998 
L 688.545483 -236.291182 
L 688.291532 -240.966365 
L 687.992287 -245.641549 
L 687.645392 -250.316732 
L 687.249929 -254.991916 
L 686.806773 -259.6671 
L 686.318883 -264.342283 
L 685.791519 -269.017467 
L 685.232319 -273.69265 
L 684.651239 -278.367834 
L 684.060318 -283.043018 
L 683.473272 -287.718201 
L 682.904938 -292.393385 
L 682.370575 -297.068568 
L 681.885082 -301.743752 
L 681.462185 -306.418936 
L 681.113637 -311.094119 
L 680.84852 -315.769303 
L 680.672674 -320.444486 
L 680.588319 -325.11967 
L 680.593887 -329.794854 
L 680.684078 -334.470037 
L 680.850125 -339.145221 
L 681.080252 -343.820404 
L 681.360271 -348.495588 
L 681.674285 -353.170772 
L 682.005425 -357.845955 
L 682.336592 -362.521139 
L 682.651142 -367.196322 
L 682.933488 -371.871506 
L 683.169597 -376.54669 
L 683.347355 -381.221873 
L 683.456818 -385.897057 
L 683.490336 -390.57224 
L 683.442573 -395.247424 
L 683.310427 -399.922608 
L 683.09288 -404.597791 
L 682.790791 -409.272975 
L 682.406635 -413.948158 
L 681.94424 -418.623342 
L 681.408493 -423.298526 
L 680.805068 -427.973709 
L 680.140161 -432.648893 
L 679.420252 -437.324077 
L 678.651888 -441.99926 
L 677.841496 -446.674444 
L 676.99521 -451.349627 
L 676.118697 -456.024811 
L 675.216993 -460.699995 
L 674.294308 -465.375178 
L 673.35382 -470.050362 
L 672.397449 -474.725545 
L 671.425627 -479.400729 
L 670.437087 -484.075913 
L 669.428722 -488.751096 
L 668.395542 -493.42628 
L 667.330795 -498.101463 
L 666.226295 -502.776647 
L 665.072984 -507.451831 
L 663.861754 -512.127014 
L 662.584517 -516.802198 
L 661.235462 -521.477381 
L 659.812445 -526.152565 
L 658.318387 -530.827749 
L 656.762549 -535.502932 
L 655.161548 -540.178116 
L 653.539964 -544.853299 
L 651.930425 -549.528483 
L 650.37306 -554.203667 
L 648.9143 -558.87885 
L 647.605035 -563.554034 
L 646.498198 -568.229217 
L 645.645929 -572.904401 
L 645.096503 -577.579585 
L 644.89125 -582.254768 
L 645.061718 -586.929952 
L 645.627312 -591.605135 
L 646.593613 -596.280319 
L 647.951549 -600.955503 
L 649.677474 -605.630686 
L 651.734192 -610.30587 
L 654.072823 -614.981053 
L 656.635388 -619.656237 
L 659.357879 -624.331421 
L 662.1736 -629.006604 
L 665.016493 -633.681788 
L 667.824233 -638.356971 
L 670.540871 -643.032155 
L 673.118865 -647.707339 
L 675.520433 -652.382522 
L 677.718176 -657.057706 
L 679.695028 -661.732889 
L 681.443614 -666.408073 
L 682.965141 -671.083257 
L 684.267977 -675.75844 
L 685.366049 -680.433624 
L 686.277221 -685.108807 
L 687.021748 -689.783991 
L 692.040752 -689.783991 
L 692.040752 -689.783991 
L 692.785279 -685.108807 
L 693.696451 -680.433624 
L 694.794523 -675.75844 
L 696.097359 -671.083257 
L 697.618886 -666.408073 
L 699.367472 -661.732889 
L 701.344324 -657.057706 
L 703.542067 -652.382522 
L 705.943635 -647.707339 
L 708.521629 -643.032155 
L 711.238267 -638.356971 
L 714.046007 -633.681788 
L 716.8889 -629.006604 
L 719.704621 -624.331421 
L 722.427112 -619.656237 
L 724.989677 -614.981053 
L 727.328308 -610.30587 
L 729.385026 -605.630686 
L 731.110951 -600.955503 
L 732.468887 -596.280319 
L 733.435188 -591.605135 
L 734.000782 -586.929952 
L 734.17125 -582.254768 
L 733.965997 -577.579585 
L 733.416571 -572.904401 
L 732.564302 -568.229217 
L 731.457465 -563.554034 
L 730.1482 -558.87885 
L 728.68944 -554.203667 
L 727.132075 -549.528483 
L 725.522536 -544.853299 
L 723.900952 -540.178116 
L 722.299951 -535.502932 
L 720.744113 -530.827749 
L 719.250055 -526.152565 
L 717.827038 -521.477381 
L 716.477983 -516.802198 
L 715.200746 -512.127014 
L 713.989516 -507.451831 
L 712.836205 -502.776647 
L 711.731705 -498.101463 
L 710.666958 -493.42628 
L 709.633778 -488.751096 
L 708.625413 -484.075913 
L 707.636873 -479.400729 
L 706.665051 -474.725545 
L 705.70868 -470.050362 
L 704.768192 -465.375178 
L 703.845507 -460.699995 
L 702.943803 -456.024811 
L 702.06729 -451.349627 
L 701.221004 -446.674444 
L 700.410612 -441.99926 
L 699.642248 -437.324077 
L 698.922339 -432.648893 
L 698.257432 -427.973709 
L 697.654007 -423.298526 
L 697.11826 -418.623342 
L 696.655865 -413.948158 
L 696.271709 -409.272975 
L 695.96962 -404.597791 
L 695.752073 -399.922608 
L 695.619927 -395.247424 
L 695.572164 -390.57224 
L 695.605682 -385.897057 
L 695.715145 -381.221873 
L 695.892903 -376.54669 
L 696.129012 -371.871506 
L 696.411358 -367.196322 
L 696.725908 -362.521139 
L 697.057075 -357.845955 
L 697.388215 -353.170772 
L 697.702229 -348.495588 
L 697.982248 -343.820404 
L 698.212375 -339.145221 
L 698.378422 -334.470037 
L 698.468613 -329.794854 
L 698.474181 -325.11967 
L 698.389826 -320.444486 
L 698.21398 -315.769303 
L 697.948863 -311.094119 
L 697.600315 -306.418936 
L 697.177418 -301.743752 
L 696.691925 -297.068568 
L 696.157562 -292.393385 
L 695.589228 -287.718201 
L 695.002182 -283.043018 
L 694.411261 -278.367834 
L 693.830181 -273.69265 
L 693.270981 -269.017467 
L 692.743617 -264.342283 
L 692.255727 -259.6671 
L 691.812571 -254.991916 
L 691.417108 -250.316732 
L 691.070213 -245.641549 
L 690.770968 -240.966365 
L 690.517017 -236.291182 
L 690.304935 -231.615998 
L 690.130596 -226.940814 
z
" style="stroke: #3d3d3d; stroke-opacity: 0.5"/>
    </defs>
    <g clip-path="url(#p1d01706c3f)">
     <use xlink:href="#m02628591be" x="0" y="722.183991" style="fill: #e1812c; fill-opacity: 0.5; stroke: #3d3d3d; stroke-opacity: 0.5"/>
    </g>
   </g>
   <g id="PolyCollection_7">
    <defs>
     <path id="m6ff567eb18" d="M 801.293176 -490.600629 
L 800.969324 -490.600629 
L 800.90498 -492.073778 
L 800.824598 -493.546928 
L 800.728188 -495.020077 
L 800.617435 -496.493226 
L 800.495994 -497.966375 
L 800.369523 -499.439525 
L 800.245405 -500.912674 
L 800.132112 -502.385823 
L 800.038293 -503.858972 
L 799.97169 -505.332121 
L 799.938081 -506.805271 
L 799.940447 -508.27842 
L 799.978508 -509.751569 
L 800.048747 -511.224718 
L 800.144885 -512.697867 
L 800.258718 -514.171017 
L 800.381133 -515.644166 
L 800.503117 -517.117315 
L 800.61657 -518.590464 
L 800.714828 -520.063614 
L 800.792859 -521.536763 
L 800.847195 -523.009912 
L 800.875691 -524.483061 
L 800.877264 -525.95621 
L 800.85169 -527.42936 
L 800.799567 -528.902509 
L 800.722403 -530.375658 
L 800.622811 -531.848807 
L 800.504673 -533.321956 
L 800.373173 -534.795106 
L 800.2346 -536.268255 
L 800.095867 -537.741404 
L 799.963801 -539.214553 
L 799.844316 -540.687703 
L 799.741637 -542.160852 
L 799.65777 -543.634001 
L 799.592338 -545.10715 
L 799.542841 -546.580299 
L 799.505239 -548.053449 
L 799.474707 -549.526598 
L 799.446307 -550.999747 
L 799.415379 -552.472896 
L 799.377513 -553.946046 
L 799.328121 -555.419195 
L 799.261755 -556.892344 
L 799.171414 -558.365493 
L 799.048115 -559.838642 
L 798.880941 -561.311792 
L 798.657667 -562.784941 
L 798.3659 -564.25809 
L 797.994543 -565.731239 
L 797.535308 -567.204388 
L 796.983979 -568.677538 
L 796.341183 -570.150687 
L 795.612499 -571.623836 
L 794.807838 -573.096985 
L 793.940136 -574.570135 
L 793.023438 -576.043284 
L 792.070575 -577.516433 
L 791.090651 -578.989582 
L 790.086669 -580.462731 
L 789.053644 -581.935881 
L 787.977608 -583.40903 
L 786.83584 -584.882179 
L 785.598551 -586.355328 
L 784.23201 -587.828477 
L 782.702907 -589.301627 
L 780.983435 -590.774776 
L 779.056474 -592.247925 
L 776.920176 -593.721074 
L 774.591346 -595.194224 
L 772.10722 -596.667373 
L 769.525471 -598.140522 
L 766.922531 -599.613671 
L 764.390452 -601.08682 
L 762.032584 -602.55997 
L 759.958333 -604.033119 
L 758.277135 -605.506268 
L 757.091783 -606.979417 
L 756.49125 -608.452566 
L 756.543318 -609.925716 
L 757.287589 -611.398865 
L 758.729689 -612.872014 
L 760.837658 -614.345163 
L 763.541457 -615.818313 
L 766.736239 -617.291462 
L 770.289461 -618.764611 
L 774.051275 -620.23776 
L 777.866988 -621.710909 
L 781.589926 -623.184059 
L 785.09296 -624.657208 
L 788.277154 -626.130357 
L 791.076577 -627.603506 
L 793.458996 -629.076656 
L 795.422869 -630.549805 
L 796.991606 -632.022954 
L 798.206322 -633.496103 
L 799.118328 -634.969252 
L 799.782383 -636.442402 
L 802.480117 -636.442402 
L 802.480117 -636.442402 
L 803.144172 -634.969252 
L 804.056178 -633.496103 
L 805.270894 -632.022954 
L 806.839631 -630.549805 
L 808.803504 -629.076656 
L 811.185923 -627.603506 
L 813.985346 -626.130357 
L 817.16954 -624.657208 
L 820.672574 -623.184059 
L 824.395512 -621.710909 
L 828.211225 -620.23776 
L 831.973039 -618.764611 
L 835.526261 -617.291462 
L 838.721043 -615.818313 
L 841.424842 -614.345163 
L 843.532811 -612.872014 
L 844.974911 -611.398865 
L 845.719182 -609.925716 
L 845.77125 -608.452566 
L 845.170717 -606.979417 
L 843.985365 -605.506268 
L 842.304167 -604.033119 
L 840.229916 -602.55997 
L 837.872048 -601.08682 
L 835.339969 -599.613671 
L 832.737029 -598.140522 
L 830.15528 -596.667373 
L 827.671154 -595.194224 
L 825.342324 -593.721074 
L 823.206026 -592.247925 
L 821.279065 -590.774776 
L 819.559593 -589.301627 
L 818.03049 -587.828477 
L 816.663949 -586.355328 
L 815.42666 -584.882179 
L 814.284892 -583.40903 
L 813.208856 -581.935881 
L 812.175831 -580.462731 
L 811.171849 -578.989582 
L 810.191925 -577.516433 
L 809.239062 -576.043284 
L 808.322364 -574.570135 
L 807.454662 -573.096985 
L 806.650001 -571.623836 
L 805.921317 -570.150687 
L 805.278521 -568.677538 
L 804.727192 -567.204388 
L 804.267957 -565.731239 
L 803.8966 -564.25809 
L 803.604833 -562.784941 
L 803.381559 -561.311792 
L 803.214385 -559.838642 
L 803.091086 -558.365493 
L 803.000745 -556.892344 
L 802.934379 -555.419195 
L 802.884987 -553.946046 
L 802.847121 -552.472896 
L 802.816193 -550.999747 
L 802.787793 -549.526598 
L 802.757261 -548.053449 
L 802.719659 -546.580299 
L 802.670162 -545.10715 
L 802.60473 -543.634001 
L 802.520863 -542.160852 
L 802.418184 -540.687703 
L 802.298699 -539.214553 
L 802.166633 -537.741404 
L 802.0279 -536.268255 
L 801.889327 -534.795106 
L 801.757827 -533.321956 
L 801.639689 -531.848807 
L 801.540097 -530.375658 
L 801.462933 -528.902509 
L 801.41081 -527.42936 
L 801.385236 -525.95621 
L 801.386809 -524.483061 
L 801.415305 -523.009912 
L 801.469641 -521.536763 
L 801.547672 -520.063614 
L 801.64593 -518.590464 
L 801.759383 -517.117315 
L 801.881367 -515.644166 
L 802.003782 -514.171017 
L 802.117615 -512.697867 
L 802.213753 -511.224718 
L 802.283992 -509.751569 
L 802.322053 -508.27842 
L 802.324419 -506.805271 
L 802.29081 -505.332121 
L 802.224207 -503.858972 
L 802.130388 -502.385823 
L 802.017095 -500.912674 
L 801.892977 -499.439525 
L 801.766506 -497.966375 
L 801.645065 -496.493226 
L 801.534312 -495.020077 
L 801.437902 -493.546928 
L 801.35752 -492.073778 
L 801.293176 -490.600629 
z
" style="stroke: #3d3d3d; stroke-opacity: 0.5"/>
    </defs>
    <g clip-path="url(#p1d01706c3f)">
     <use xlink:href="#m6ff567eb18" x="0" y="722.183991" style="fill: #3a923a; fill-opacity: 0.5; stroke: #3d3d3d; stroke-opacity: 0.5"/>
    </g>
   </g>
   <g id="line2d_6">
    <path d="M 131.53125 301.196487 
L 131.53125 110.743042 
" clip-path="url(#p1d01706c3f)" style="fill: none; stroke: #3d3d3d; stroke-width: 1.5; stroke-linecap: round"/>
   </g>
   <g id="line2d_7">
    <path d="M 131.53125 209.682412 
L 131.53125 145.744697 
" clip-path="url(#p1d01706c3f)" style="fill: none; stroke: #3d3d3d; stroke-width: 4.5; stroke-linecap: round"/>
   </g>
   <g id="line2d_8">
    <path d="M 131.53125 176.154817 
" clip-path="url(#p1d01706c3f)" style="fill: none; stroke: #3d3d3d; stroke-width: 1.5; stroke-linecap: round"/>
    <defs>
     <path id="m66fd07faaf" d="M 1.875 0 
L -1.875 -0 
" style="stroke: #ffffff; stroke-width: 0.9"/>
    </defs>
    <g clip-path="url(#p1d01706c3f)">
     <use xlink:href="#m66fd07faaf" x="131.53125" y="176.154817" style="fill: #ffffff; stroke: #ffffff; stroke-width: 0.9"/>
    </g>
   </g>
   <g id="line2d_9">
    <path d="M 243.13125 145.763076 
L 243.13125 102.474714 
" clip-path="url(#p1d01706c3f)" style="fill: none; stroke: #3d3d3d; stroke-width: 1.5; stroke-linecap: round"/>
   </g>
   <g id="line2d_10">
    <path d="M 243.13125 126.479882 
L 243.13125 108.688801 
" clip-path="url(#p1d01706c3f)" style="fill: none; stroke: #3d3d3d; stroke-width: 4.5; stroke-linecap: round"/>
   </g>
   <g id="line2d_11">
    <path d="M 243.13125 118.195561 
" clip-path="url(#p1d01706c3f)" style="fill: none; stroke: #3d3d3d; stroke-width: 1.5; stroke-linecap: round"/>
    <g clip-path="url(#p1d01706c3f)">
     <use xlink:href="#m66fd07faaf" x="243.13125" y="118.195561" style="fill: #ffffff; stroke: #ffffff; stroke-width: 0.9"/>
    </g>
   </g>
   <g id="line2d_12">
    <path d="M 354.73125 460.340973 
L 354.73125 268.302955 
" clip-path="url(#p1d01706c3f)" style="fill: none; stroke: #3d3d3d; stroke-width: 1.5; stroke-linecap: round"/>
   </g>
   <g id="line2d_13">
    <path d="M 354.73125 432.589203 
L 354.73125 356.50338 
" clip-path="url(#p1d01706c3f)" style="fill: none; stroke: #3d3d3d; stroke-width: 4.5; stroke-linecap: round"/>
   </g>
   <g id="line2d_14">
    <path d="M 354.73125 401.954277 
" clip-path="url(#p1d01706c3f)" style="fill: none; stroke: #3d3d3d; stroke-width: 1.5; stroke-linecap: round"/>
    <g clip-path="url(#p1d01706c3f)">
     <use xlink:href="#m66fd07faaf" x="354.73125" y="401.954277" style="fill: #ffffff; stroke: #ffffff; stroke-width: 0.9"/>
    </g>
   </g>
   <g id="line2d_15">
    <path d="M 466.33125 169.383359 
L 466.33125 106.509695 
" clip-path="url(#p1d01706c3f)" style="fill: none; stroke: #3d3d3d; stroke-width: 1.5; stroke-linecap: round"/>
   </g>
   <g id="line2d_16">
    <path d="M 466.33125 138.672365 
L 466.33125 117.689415 
" clip-path="url(#p1d01706c3f)" style="fill: none; stroke: #3d3d3d; stroke-width: 4.5; stroke-linecap: round"/>
   </g>
   <g id="line2d_17">
    <path d="M 466.33125 125.411749 
" clip-path="url(#p1d01706c3f)" style="fill: none; stroke: #3d3d3d; stroke-width: 1.5; stroke-linecap: round"/>
    <g clip-path="url(#p1d01706c3f)">
     <use xlink:href="#m66fd07faaf" x="466.33125" y="125.411749" style="fill: #ffffff; stroke: #ffffff; stroke-width: 0.9"/>
    </g>
   </g>
   <g id="line2d_18">
    <path d="M 577.93125 167.245698 
L 577.93125 106.920031 
" clip-path="url(#p1d01706c3f)" style="fill: none; stroke: #3d3d3d; stroke-width: 1.5; stroke-linecap: round"/>
   </g>
   <g id="line2d_19">
    <path d="M 577.93125 142.814061 
L 577.93125 119.750606 
" clip-path="url(#p1d01706c3f)" style="fill: none; stroke: #3d3d3d; stroke-width: 4.5; stroke-linecap: round"/>
   </g>
   <g id="line2d_20">
    <path d="M 577.93125 131.290491 
" clip-path="url(#p1d01706c3f)" style="fill: none; stroke: #3d3d3d; stroke-width: 1.5; stroke-linecap: round"/>
    <g clip-path="url(#p1d01706c3f)">
     <use xlink:href="#m66fd07faaf" x="577.93125" y="131.290491" style="fill: #ffffff; stroke: #ffffff; stroke-width: 0.9"/>
    </g>
   </g>
   <g id="line2d_21">
    <path d="M 689.53125 344.21047 
L 689.53125 111.835616 
" clip-path="url(#p1d01706c3f)" style="fill: none; stroke: #3d3d3d; stroke-width: 1.5; stroke-linecap: round"/>
   </g>
   <g id="line2d_22">
    <path d="M 689.53125 225.316804 
L 689.53125 126.604895 
" clip-path="url(#p1d01706c3f)" style="fill: none; stroke: #3d3d3d; stroke-width: 4.5; stroke-linecap: round"/>
   </g>
   <g id="line2d_23">
    <path d="M 689.53125 155.401685 
" clip-path="url(#p1d01706c3f)" style="fill: none; stroke: #3d3d3d; stroke-width: 1.5; stroke-linecap: round"/>
    <g clip-path="url(#p1d01706c3f)">
     <use xlink:href="#m66fd07faaf" x="689.53125" y="155.401685" style="fill: #ffffff; stroke: #ffffff; stroke-width: 0.9"/>
    </g>
   </g>
   <g id="line2d_24">
    <path d="M 801.13125 149.351433 
L 801.13125 102.582657 
" clip-path="url(#p1d01706c3f)" style="fill: none; stroke: #3d3d3d; stroke-width: 1.5; stroke-linecap: round"/>
   </g>
   <g id="line2d_25">
    <path d="M 801.13125 125.530509 
L 801.13125 108.750777 
" clip-path="url(#p1d01706c3f)" style="fill: none; stroke: #3d3d3d; stroke-width: 4.5; stroke-linecap: round"/>
   </g>
   <g id="line2d_26">
    <path d="M 801.13125 116.427894 
" clip-path="url(#p1d01706c3f)" style="fill: none; stroke: #3d3d3d; stroke-width: 1.5; stroke-linecap: round"/>
    <g clip-path="url(#p1d01706c3f)">
     <use xlink:href="#m66fd07faaf" x="801.13125" y="116.427894" style="fill: #ffffff; stroke: #ffffff; stroke-width: 0.9"/>
    </g>
   </g>
   <g id="patch_3">
    <path d="M 75.73125 561.6 
L 856.93125 561.6 
" style="fill: none; stroke: #cccccc; stroke-width: 0.8; stroke-linejoin: miter; stroke-linecap: square"/>
   </g>
  </g>
 </g>
 <defs>
  <clipPath id="p1d01706c3f">
   <rect x="75.73125" y="7.2" width="781.2" height="554.4"/>
  </clipPath>
 </defs>
</svg>
