<?xml version="1.0" encoding="utf-8" standalone="no"?>
<!DOCTYPE svg PUBLIC "-//W3C//DTD SVG 1.1//EN"
  "http://www.w3.org/Graphics/SVG/1.1/DTD/svg11.dtd">
<svg xmlns:xlink="http://www.w3.org/1999/xlink" width="857.7625pt" height="722.183991pt" viewBox="0 0 857.7625 722.183991" xmlns="http://www.w3.org/2000/svg" version="1.1">
 <metadata>
  <rdf:RDF xmlns:dc="http://purl.org/dc/elements/1.1/" xmlns:cc="http://creativecommons.org/ns#" xmlns:rdf="http://www.w3.org/1999/02/22-rdf-syntax-ns#">
   <cc:Work>
    <dc:type rdf:resource="http://purl.org/dc/dcmitype/StillImage"/>
    <dc:date>2024-03-17T20:48:19.958411</dc:date>
    <dc:format>image/svg+xml</dc:format>
    <dc:creator>
     <cc:Agent>
      <dc:title>Matplotlib v3.8.0, https://matplotlib.org/</dc:title>
     </cc:Agent>
    </dc:creator>
   </cc:Work>
  </rdf:RDF>
 </metadata>
 <defs>
  <style type="text/css">*{stroke-linejoin: round; stroke-linecap: butt}</style>
 </defs>
 <g id="figure_1">
  <g id="patch_1">
   <path d="M 0 722.183991 
L 857.7625 722.183991 
L 857.7625 0 
L 0 0 
L 0 722.183991 
z
" style="fill: none"/>
  </g>
  <g id="axes_1">
   <g id="patch_2">
    <path d="M 69.3625 561.6 
L 850.5625 561.6 
L 850.5625 7.2 
L 69.3625 7.2 
L 69.3625 561.6 
z
" style="fill: none"/>
   </g>
   <g id="matplotlib.axis_1">
    <g id="xtick_1">
     <g id="text_1">
      <!-- MSA -->
      <g style="fill: #262626" transform="translate(104.788986 610.465141) rotate(-45) scale(0.2 -0.2)">
       <defs>
        <path id="DejaVuSans-4d" d="M 628 4666 
L 1569 4666 
L 2759 1491 
L 3956 4666 
L 4897 4666 
L 4897 0 
L 4281 0 
L 4281 4097 
L 3078 897 
L 2444 897 
L 1241 4097 
L 1241 0 
L 628 0 
L 628 4666 
z
" transform="scale(0.015625)"/>
        <path id="DejaVuSans-53" d="M 3425 4513 
L 3425 3897 
Q 3066 4069 2747 4153 
Q 2428 4238 2131 4238 
Q 1616 4238 1336 4038 
Q 1056 3838 1056 3469 
Q 1056 3159 1242 3001 
Q 1428 2844 1947 2747 
L 2328 2669 
Q 3034 2534 3370 2195 
Q 3706 1856 3706 1288 
Q 3706 609 3251 259 
Q 2797 -91 1919 -91 
Q 1588 -91 1214 -16 
Q 841 59 441 206 
L 441 856 
Q 825 641 1194 531 
Q 1563 422 1919 422 
Q 2459 422 2753 634 
Q 3047 847 3047 1241 
Q 3047 1584 2836 1778 
Q 2625 1972 2144 2069 
L 1759 2144 
Q 1053 2284 737 2584 
Q 422 2884 422 3419 
Q 422 4038 858 4394 
Q 1294 4750 2059 4750 
Q 2388 4750 2728 4690 
Q 3069 4631 3425 4513 
z
" transform="scale(0.015625)"/>
        <path id="DejaVuSans-41" d="M 2188 4044 
L 1331 1722 
L 3047 1722 
L 2188 4044 
z
M 1831 4666 
L 2547 4666 
L 4325 0 
L 3669 0 
L 3244 1197 
L 1141 1197 
L 716 0 
L 50 0 
L 1831 4666 
z
" transform="scale(0.015625)"/>
       </defs>
       <use xlink:href="#DejaVuSans-4d"/>
       <use xlink:href="#DejaVuSans-53" x="86.279297"/>
       <use xlink:href="#DejaVuSans-41" x="151.630859"/>
      </g>
     </g>
    </g>
    <g id="xtick_2">
     <g id="text_2">
      <!-- Template -->
      <g style="fill: #262626" transform="translate(182.97819 643.875936) rotate(-45) scale(0.2 -0.2)">
       <defs>
        <path id="DejaVuSans-54" d="M -19 4666 
L 3928 4666 
L 3928 4134 
L 2272 4134 
L 2272 0 
L 1638 0 
L 1638 4134 
L -19 4134 
L -19 4666 
z
" transform="scale(0.015625)"/>
        <path id="DejaVuSans-65" d="M 3597 1894 
L 3597 1613 
L 953 1613 
Q 991 1019 1311 708 
Q 1631 397 2203 397 
Q 2534 397 2845 478 
Q 3156 559 3463 722 
L 3463 178 
Q 3153 47 2828 -22 
Q 2503 -91 2169 -91 
Q 1331 -91 842 396 
Q 353 884 353 1716 
Q 353 2575 817 3079 
Q 1281 3584 2069 3584 
Q 2775 3584 3186 3129 
Q 3597 2675 3597 1894 
z
M 3022 2063 
Q 3016 2534 2758 2815 
Q 2500 3097 2075 3097 
Q 1594 3097 1305 2825 
Q 1016 2553 972 2059 
L 3022 2063 
z
" transform="scale(0.015625)"/>
        <path id="DejaVuSans-6d" d="M 3328 2828 
Q 3544 3216 3844 3400 
Q 4144 3584 4550 3584 
Q 5097 3584 5394 3201 
Q 5691 2819 5691 2113 
L 5691 0 
L 5113 0 
L 5113 2094 
Q 5113 2597 4934 2840 
Q 4756 3084 4391 3084 
Q 3944 3084 3684 2787 
Q 3425 2491 3425 1978 
L 3425 0 
L 2847 0 
L 2847 2094 
Q 2847 2600 2669 2842 
Q 2491 3084 2119 3084 
Q 1678 3084 1418 2786 
Q 1159 2488 1159 1978 
L 1159 0 
L 581 0 
L 581 3500 
L 1159 3500 
L 1159 2956 
Q 1356 3278 1631 3431 
Q 1906 3584 2284 3584 
Q 2666 3584 2933 3390 
Q 3200 3197 3328 2828 
z
" transform="scale(0.015625)"/>
        <path id="DejaVuSans-70" d="M 1159 525 
L 1159 -1331 
L 581 -1331 
L 581 3500 
L 1159 3500 
L 1159 2969 
Q 1341 3281 1617 3432 
Q 1894 3584 2278 3584 
Q 2916 3584 3314 3078 
Q 3713 2572 3713 1747 
Q 3713 922 3314 415 
Q 2916 -91 2278 -91 
Q 1894 -91 1617 61 
Q 1341 213 1159 525 
z
M 3116 1747 
Q 3116 2381 2855 2742 
Q 2594 3103 2138 3103 
Q 1681 3103 1420 2742 
Q 1159 2381 1159 1747 
Q 1159 1113 1420 752 
Q 1681 391 2138 391 
Q 2594 391 2855 752 
Q 3116 1113 3116 1747 
z
" transform="scale(0.015625)"/>
        <path id="DejaVuSans-6c" d="M 603 4863 
L 1178 4863 
L 1178 0 
L 603 0 
L 603 4863 
z
" transform="scale(0.015625)"/>
        <path id="DejaVuSans-61" d="M 2194 1759 
Q 1497 1759 1228 1600 
Q 959 1441 959 1056 
Q 959 750 1161 570 
Q 1363 391 1709 391 
Q 2188 391 2477 730 
Q 2766 1069 2766 1631 
L 2766 1759 
L 2194 1759 
z
M 3341 1997 
L 3341 0 
L 2766 0 
L 2766 531 
Q 2569 213 2275 61 
Q 1981 -91 1556 -91 
Q 1019 -91 701 211 
Q 384 513 384 1019 
Q 384 1609 779 1909 
Q 1175 2209 1959 2209 
L 2766 2209 
L 2766 2266 
Q 2766 2663 2505 2880 
Q 2244 3097 1772 3097 
Q 1472 3097 1187 3025 
Q 903 2953 641 2809 
L 641 3341 
Q 956 3463 1253 3523 
Q 1550 3584 1831 3584 
Q 2591 3584 2966 3190 
Q 3341 2797 3341 1997 
z
" transform="scale(0.015625)"/>
        <path id="DejaVuSans-74" d="M 1172 4494 
L 1172 3500 
L 2356 3500 
L 2356 3053 
L 1172 3053 
L 1172 1153 
Q 1172 725 1289 603 
Q 1406 481 1766 481 
L 2356 481 
L 2356 0 
L 1766 0 
Q 1100 0 847 248 
Q 594 497 594 1153 
L 594 3053 
L 172 3053 
L 172 3500 
L 594 3500 
L 594 4494 
L 1172 4494 
z
" transform="scale(0.015625)"/>
       </defs>
       <use xlink:href="#DejaVuSans-54"/>
       <use xlink:href="#DejaVuSans-65" x="44.083984"/>
       <use xlink:href="#DejaVuSans-6d" x="105.607422"/>
       <use xlink:href="#DejaVuSans-70" x="203.019531"/>
       <use xlink:href="#DejaVuSans-6c" x="266.496094"/>
       <use xlink:href="#DejaVuSans-61" x="294.279297"/>
       <use xlink:href="#DejaVuSans-74" x="355.558594"/>
       <use xlink:href="#DejaVuSans-65" x="394.767578"/>
      </g>
     </g>
    </g>
    <g id="xtick_3">
     <g id="text_3">
      <!-- Backbone -->
      <g style="fill: #262626" transform="translate(289.478183 648.975944) rotate(-45) scale(0.2 -0.2)">
       <defs>
        <path id="DejaVuSans-42" d="M 1259 2228 
L 1259 519 
L 2272 519 
Q 2781 519 3026 730 
Q 3272 941 3272 1375 
Q 3272 1813 3026 2020 
Q 2781 2228 2272 2228 
L 1259 2228 
z
M 1259 4147 
L 1259 2741 
L 2194 2741 
Q 2656 2741 2882 2914 
Q 3109 3088 3109 3444 
Q 3109 3797 2882 3972 
Q 2656 4147 2194 4147 
L 1259 4147 
z
M 628 4666 
L 2241 4666 
Q 2963 4666 3353 4366 
Q 3744 4066 3744 3513 
Q 3744 3084 3544 2831 
Q 3344 2578 2956 2516 
Q 3422 2416 3680 2098 
Q 3938 1781 3938 1306 
Q 3938 681 3513 340 
Q 3088 0 2303 0 
L 628 0 
L 628 4666 
z
" transform="scale(0.015625)"/>
        <path id="DejaVuSans-63" d="M 3122 3366 
L 3122 2828 
Q 2878 2963 2633 3030 
Q 2388 3097 2138 3097 
Q 1578 3097 1268 2742 
Q 959 2388 959 1747 
Q 959 1106 1268 751 
Q 1578 397 2138 397 
Q 2388 397 2633 464 
Q 2878 531 3122 666 
L 3122 134 
Q 2881 22 2623 -34 
Q 2366 -91 2075 -91 
Q 1284 -91 818 406 
Q 353 903 353 1747 
Q 353 2603 823 3093 
Q 1294 3584 2113 3584 
Q 2378 3584 2631 3529 
Q 2884 3475 3122 3366 
z
" transform="scale(0.015625)"/>
        <path id="DejaVuSans-6b" d="M 581 4863 
L 1159 4863 
L 1159 1991 
L 2875 3500 
L 3609 3500 
L 1753 1863 
L 3688 0 
L 2938 0 
L 1159 1709 
L 1159 0 
L 581 0 
L 581 4863 
z
" transform="scale(0.015625)"/>
        <path id="DejaVuSans-62" d="M 3116 1747 
Q 3116 2381 2855 2742 
Q 2594 3103 2138 3103 
Q 1681 3103 1420 2742 
Q 1159 2381 1159 1747 
Q 1159 1113 1420 752 
Q 1681 391 2138 391 
Q 2594 391 2855 752 
Q 3116 1113 3116 1747 
z
M 1159 2969 
Q 1341 3281 1617 3432 
Q 1894 3584 2278 3584 
Q 2916 3584 3314 3078 
Q 3713 2572 3713 1747 
Q 3713 922 3314 415 
Q 2916 -91 2278 -91 
Q 1894 -91 1617 61 
Q 1341 213 1159 525 
L 1159 0 
L 581 0 
L 581 4863 
L 1159 4863 
L 1159 2969 
z
" transform="scale(0.015625)"/>
        <path id="DejaVuSans-6f" d="M 1959 3097 
Q 1497 3097 1228 2736 
Q 959 2375 959 1747 
Q 959 1119 1226 758 
Q 1494 397 1959 397 
Q 2419 397 2687 759 
Q 2956 1122 2956 1747 
Q 2956 2369 2687 2733 
Q 2419 3097 1959 3097 
z
M 1959 3584 
Q 2709 3584 3137 3096 
Q 3566 2609 3566 1747 
Q 3566 888 3137 398 
Q 2709 -91 1959 -91 
Q 1206 -91 779 398 
Q 353 888 353 1747 
Q 353 2609 779 3096 
Q 1206 3584 1959 3584 
z
" transform="scale(0.015625)"/>
        <path id="DejaVuSans-6e" d="M 3513 2113 
L 3513 0 
L 2938 0 
L 2938 2094 
Q 2938 2591 2744 2837 
Q 2550 3084 2163 3084 
Q 1697 3084 1428 2787 
Q 1159 2491 1159 1978 
L 1159 0 
L 581 0 
L 581 3500 
L 1159 3500 
L 1159 2956 
Q 1366 3272 1645 3428 
Q 1925 3584 2291 3584 
Q 2894 3584 3203 3211 
Q 3513 2838 3513 2113 
z
" transform="scale(0.015625)"/>
       </defs>
       <use xlink:href="#DejaVuSans-42"/>
       <use xlink:href="#DejaVuSans-61" x="68.603516"/>
       <use xlink:href="#DejaVuSans-63" x="129.882812"/>
       <use xlink:href="#DejaVuSans-6b" x="184.863281"/>
       <use xlink:href="#DejaVuSans-62" x="242.773438"/>
       <use xlink:href="#DejaVuSans-6f" x="306.25"/>
       <use xlink:href="#DejaVuSans-6e" x="367.431641"/>
       <use xlink:href="#DejaVuSans-65" x="430.810547"/>
      </g>
     </g>
    </g>
    <g id="xtick_4">
     <g id="text_4">
      <!-- Heuristic C-$\beta$ -->
      <g style="fill: #262626" transform="translate(379.63517 670.706219) rotate(-45) scale(0.2 -0.2)">
       <defs>
        <path id="DejaVuSans-48" d="M 628 4666 
L 1259 4666 
L 1259 2753 
L 3553 2753 
L 3553 4666 
L 4184 4666 
L 4184 0 
L 3553 0 
L 3553 2222 
L 1259 2222 
L 1259 0 
L 628 0 
L 628 4666 
z
" transform="scale(0.015625)"/>
        <path id="DejaVuSans-75" d="M 544 1381 
L 544 3500 
L 1119 3500 
L 1119 1403 
Q 1119 906 1312 657 
Q 1506 409 1894 409 
Q 2359 409 2629 706 
Q 2900 1003 2900 1516 
L 2900 3500 
L 3475 3500 
L 3475 0 
L 2900 0 
L 2900 538 
Q 2691 219 2414 64 
Q 2138 -91 1772 -91 
Q 1169 -91 856 284 
Q 544 659 544 1381 
z
M 1991 3584 
L 1991 3584 
z
" transform="scale(0.015625)"/>
        <path id="DejaVuSans-72" d="M 2631 2963 
Q 2534 3019 2420 3045 
Q 2306 3072 2169 3072 
Q 1681 3072 1420 2755 
Q 1159 2438 1159 1844 
L 1159 0 
L 581 0 
L 581 3500 
L 1159 3500 
L 1159 2956 
Q 1341 3275 1631 3429 
Q 1922 3584 2338 3584 
Q 2397 3584 2469 3576 
Q 2541 3569 2628 3553 
L 2631 2963 
z
" transform="scale(0.015625)"/>
        <path id="DejaVuSans-69" d="M 603 3500 
L 1178 3500 
L 1178 0 
L 603 0 
L 603 3500 
z
M 603 4863 
L 1178 4863 
L 1178 4134 
L 603 4134 
L 603 4863 
z
" transform="scale(0.015625)"/>
        <path id="DejaVuSans-73" d="M 2834 3397 
L 2834 2853 
Q 2591 2978 2328 3040 
Q 2066 3103 1784 3103 
Q 1356 3103 1142 2972 
Q 928 2841 928 2578 
Q 928 2378 1081 2264 
Q 1234 2150 1697 2047 
L 1894 2003 
Q 2506 1872 2764 1633 
Q 3022 1394 3022 966 
Q 3022 478 2636 193 
Q 2250 -91 1575 -91 
Q 1294 -91 989 -36 
Q 684 19 347 128 
L 347 722 
Q 666 556 975 473 
Q 1284 391 1588 391 
Q 1994 391 2212 530 
Q 2431 669 2431 922 
Q 2431 1156 2273 1281 
Q 2116 1406 1581 1522 
L 1381 1569 
Q 847 1681 609 1914 
Q 372 2147 372 2553 
Q 372 3047 722 3315 
Q 1072 3584 1716 3584 
Q 2034 3584 2315 3537 
Q 2597 3491 2834 3397 
z
" transform="scale(0.015625)"/>
        <path id="DejaVuSans-20" transform="scale(0.015625)"/>
        <path id="DejaVuSans-43" d="M 4122 4306 
L 4122 3641 
Q 3803 3938 3442 4084 
Q 3081 4231 2675 4231 
Q 1875 4231 1450 3742 
Q 1025 3253 1025 2328 
Q 1025 1406 1450 917 
Q 1875 428 2675 428 
Q 3081 428 3442 575 
Q 3803 722 4122 1019 
L 4122 359 
Q 3791 134 3420 21 
Q 3050 -91 2638 -91 
Q 1578 -91 968 557 
Q 359 1206 359 2328 
Q 359 3453 968 4101 
Q 1578 4750 2638 4750 
Q 3056 4750 3426 4639 
Q 3797 4528 4122 4306 
z
" transform="scale(0.015625)"/>
        <path id="DejaVuSans-2d" d="M 313 2009 
L 1997 2009 
L 1997 1497 
L 313 1497 
L 313 2009 
z
" transform="scale(0.015625)"/>
        <path id="DejaVuSans-Oblique-3b2" d="M 872 216 
L 572 -1331 
L -6 -1331 
L 928 3478 
Q 1206 4903 2538 4903 
Q 3888 4903 3659 3700 
Q 3503 2844 2894 2531 
Q 3713 2250 3553 1416 
Q 3272 -69 1759 -66 
Q 1097 -63 872 216 
z
M 1019 966 
Q 1259 422 1875 425 
Q 2775 425 2966 1406 
Q 3138 2288 1675 2219 
L 1778 2750 
Q 2909 2731 3106 3750 
Q 3241 4438 2509 4434 
Q 1691 4434 1503 3459 
L 1019 966 
z
" transform="scale(0.015625)"/>
       </defs>
       <use xlink:href="#DejaVuSans-48" transform="translate(0 0.390625)"/>
       <use xlink:href="#DejaVuSans-65" transform="translate(75.195312 0.390625)"/>
       <use xlink:href="#DejaVuSans-75" transform="translate(136.71875 0.390625)"/>
       <use xlink:href="#DejaVuSans-72" transform="translate(200.097656 0.390625)"/>
       <use xlink:href="#DejaVuSans-69" transform="translate(241.210938 0.390625)"/>
       <use xlink:href="#DejaVuSans-73" transform="translate(268.994141 0.390625)"/>
       <use xlink:href="#DejaVuSans-74" transform="translate(321.09375 0.390625)"/>
       <use xlink:href="#DejaVuSans-69" transform="translate(360.302734 0.390625)"/>
       <use xlink:href="#DejaVuSans-63" transform="translate(388.085938 0.390625)"/>
       <use xlink:href="#DejaVuSans-20" transform="translate(443.066406 0.390625)"/>
       <use xlink:href="#DejaVuSans-43" transform="translate(474.853516 0.390625)"/>
       <use xlink:href="#DejaVuSans-2d" transform="translate(544.677734 0.390625)"/>
       <use xlink:href="#DejaVuSans-Oblique-3b2" transform="translate(580.761719 0.390625)"/>
      </g>
     </g>
    </g>
    <g id="xtick_5">
     <g id="text_5">
      <!-- Template C-$\beta$ -->
      <g style="fill: #262626" transform="translate(486.992529 674.94886) rotate(-45) scale(0.2 -0.2)">
       <use xlink:href="#DejaVuSans-54" transform="translate(0 0.390625)"/>
       <use xlink:href="#DejaVuSans-65" transform="translate(61.083984 0.390625)"/>
       <use xlink:href="#DejaVuSans-6d" transform="translate(122.607422 0.390625)"/>
       <use xlink:href="#DejaVuSans-70" transform="translate(220.019531 0.390625)"/>
       <use xlink:href="#DejaVuSans-6c" transform="translate(283.496094 0.390625)"/>
       <use xlink:href="#DejaVuSans-61" transform="translate(311.279297 0.390625)"/>
       <use xlink:href="#DejaVuSans-74" transform="translate(372.558594 0.390625)"/>
       <use xlink:href="#DejaVuSans-65" transform="translate(411.767578 0.390625)"/>
       <use xlink:href="#DejaVuSans-20" transform="translate(473.291016 0.390625)"/>
       <use xlink:href="#DejaVuSans-43" transform="translate(505.078125 0.390625)"/>
       <use xlink:href="#DejaVuSans-2d" transform="translate(574.902344 0.390625)"/>
       <use xlink:href="#DejaVuSans-Oblique-3b2" transform="translate(610.986328 0.390625)"/>
      </g>
     </g>
    </g>
    <g id="xtick_6">
     <g id="text_6">
      <!-- AttnPacker -->
      <g style="fill: #262626" transform="translate(617.905383 655.348744) rotate(-45) scale(0.2 -0.2)">
       <defs>
        <path id="DejaVuSans-50" d="M 1259 4147 
L 1259 2394 
L 2053 2394 
Q 2494 2394 2734 2622 
Q 2975 2850 2975 3272 
Q 2975 3691 2734 3919 
Q 2494 4147 2053 4147 
L 1259 4147 
z
M 628 4666 
L 2053 4666 
Q 2838 4666 3239 4311 
Q 3641 3956 3641 3272 
Q 3641 2581 3239 2228 
Q 2838 1875 2053 1875 
L 1259 1875 
L 1259 0 
L 628 0 
L 628 4666 
z
" transform="scale(0.015625)"/>
       </defs>
       <use xlink:href="#DejaVuSans-41"/>
       <use xlink:href="#DejaVuSans-74" x="66.658203"/>
       <use xlink:href="#DejaVuSans-74" x="105.867188"/>
       <use xlink:href="#DejaVuSans-6e" x="145.076172"/>
       <use xlink:href="#DejaVuSans-50" x="208.455078"/>
       <use xlink:href="#DejaVuSans-61" x="264.257812"/>
       <use xlink:href="#DejaVuSans-63" x="325.537109"/>
       <use xlink:href="#DejaVuSans-6b" x="380.517578"/>
       <use xlink:href="#DejaVuSans-65" x="434.802734"/>
       <use xlink:href="#DejaVuSans-72" x="496.326172"/>
      </g>
     </g>
    </g>
    <g id="xtick_7">
     <g id="text_7">
      <!-- AttnPacker (AF) -->
      <g style="fill: #262626" transform="translate(696.167508 688.686619) rotate(-45) scale(0.2 -0.2)">
       <defs>
        <path id="DejaVuSans-28" d="M 1984 4856 
Q 1566 4138 1362 3434 
Q 1159 2731 1159 2009 
Q 1159 1288 1364 580 
Q 1569 -128 1984 -844 
L 1484 -844 
Q 1016 -109 783 600 
Q 550 1309 550 2009 
Q 550 2706 781 3412 
Q 1013 4119 1484 4856 
L 1984 4856 
z
" transform="scale(0.015625)"/>
        <path id="DejaVuSans-46" d="M 628 4666 
L 3309 4666 
L 3309 4134 
L 1259 4134 
L 1259 2759 
L 3109 2759 
L 3109 2228 
L 1259 2228 
L 1259 0 
L 628 0 
L 628 4666 
z
" transform="scale(0.015625)"/>
        <path id="DejaVuSans-29" d="M 513 4856 
L 1013 4856 
Q 1481 4119 1714 3412 
Q 1947 2706 1947 2009 
Q 1947 1309 1714 600 
Q 1481 -109 1013 -844 
L 513 -844 
Q 928 -128 1133 580 
Q 1338 1288 1338 2009 
Q 1338 2731 1133 3434 
Q 928 4138 513 4856 
z
" transform="scale(0.015625)"/>
       </defs>
       <use xlink:href="#DejaVuSans-41"/>
       <use xlink:href="#DejaVuSans-74" x="66.658203"/>
       <use xlink:href="#DejaVuSans-74" x="105.867188"/>
       <use xlink:href="#DejaVuSans-6e" x="145.076172"/>
       <use xlink:href="#DejaVuSans-50" x="208.455078"/>
       <use xlink:href="#DejaVuSans-61" x="264.257812"/>
       <use xlink:href="#DejaVuSans-63" x="325.537109"/>
       <use xlink:href="#DejaVuSans-6b" x="380.517578"/>
       <use xlink:href="#DejaVuSans-65" x="434.802734"/>
       <use xlink:href="#DejaVuSans-72" x="496.326172"/>
       <use xlink:href="#DejaVuSans-20" x="537.439453"/>
       <use xlink:href="#DejaVuSans-28" x="569.226562"/>
       <use xlink:href="#DejaVuSans-41" x="608.240234"/>
       <use xlink:href="#DejaVuSans-46" x="676.648438"/>
       <use xlink:href="#DejaVuSans-29" x="734.167969"/>
      </g>
     </g>
    </g>
    <g id="text_8">
     <!-- Method -->
     <g style="fill: #262626" transform="translate(422.45625 710.824616) scale(0.2 -0.2)">
      <defs>
       <path id="DejaVuSans-68" d="M 3513 2113 
L 3513 0 
L 2938 0 
L 2938 2094 
Q 2938 2591 2744 2837 
Q 2550 3084 2163 3084 
Q 1697 3084 1428 2787 
Q 1159 2491 1159 1978 
L 1159 0 
L 581 0 
L 581 4863 
L 1159 4863 
L 1159 2956 
Q 1366 3272 1645 3428 
Q 1925 3584 2291 3584 
Q 2894 3584 3203 3211 
Q 3513 2838 3513 2113 
z
" transform="scale(0.015625)"/>
       <path id="DejaVuSans-64" d="M 2906 2969 
L 2906 4863 
L 3481 4863 
L 3481 0 
L 2906 0 
L 2906 525 
Q 2725 213 2448 61 
Q 2172 -91 1784 -91 
Q 1150 -91 751 415 
Q 353 922 353 1747 
Q 353 2572 751 3078 
Q 1150 3584 1784 3584 
Q 2172 3584 2448 3432 
Q 2725 3281 2906 2969 
z
M 947 1747 
Q 947 1113 1208 752 
Q 1469 391 1925 391 
Q 2381 391 2643 752 
Q 2906 1113 2906 1747 
Q 2906 2381 2643 2742 
Q 2381 3103 1925 3103 
Q 1469 3103 1208 2742 
Q 947 2381 947 1747 
z
" transform="scale(0.015625)"/>
      </defs>
      <use xlink:href="#DejaVuSans-4d"/>
      <use xlink:href="#DejaVuSans-65" x="86.279297"/>
      <use xlink:href="#DejaVuSans-74" x="147.802734"/>
      <use xlink:href="#DejaVuSans-68" x="187.011719"/>
      <use xlink:href="#DejaVuSans-6f" x="250.390625"/>
      <use xlink:href="#DejaVuSans-64" x="311.572266"/>
     </g>
    </g>
   </g>
   <g id="matplotlib.axis_2">
    <g id="ytick_1">
     <g id="line2d_1">
      <path d="M 69.3625 522.75975 
L 850.5625 522.75975 
" clip-path="url(#p0b40a4b5d3)" style="fill: none; stroke: #cccccc; stroke-width: 0.8; stroke-linecap: round"/>
     </g>
     <g id="text_9">
      <!-- 0.0 -->
      <g style="fill: #262626" transform="translate(30.55625 530.358187) scale(0.2 -0.2)">
       <defs>
        <path id="DejaVuSans-30" d="M 2034 4250 
Q 1547 4250 1301 3770 
Q 1056 3291 1056 2328 
Q 1056 1369 1301 889 
Q 1547 409 2034 409 
Q 2525 409 2770 889 
Q 3016 1369 3016 2328 
Q 3016 3291 2770 3770 
Q 2525 4250 2034 4250 
z
M 2034 4750 
Q 2819 4750 3233 4129 
Q 3647 3509 3647 2328 
Q 3647 1150 3233 529 
Q 2819 -91 2034 -91 
Q 1250 -91 836 529 
Q 422 1150 422 2328 
Q 422 3509 836 4129 
Q 1250 4750 2034 4750 
z
" transform="scale(0.015625)"/>
        <path id="DejaVuSans-2e" d="M 684 794 
L 1344 794 
L 1344 0 
L 684 0 
L 684 794 
z
" transform="scale(0.015625)"/>
       </defs>
       <use xlink:href="#DejaVuSans-30"/>
       <use xlink:href="#DejaVuSans-2e" x="63.623047"/>
       <use xlink:href="#DejaVuSans-30" x="95.410156"/>
      </g>
     </g>
    </g>
    <g id="ytick_2">
     <g id="line2d_2">
      <path d="M 69.3625 436.529908 
L 850.5625 436.529908 
" clip-path="url(#p0b40a4b5d3)" style="fill: none; stroke: #cccccc; stroke-width: 0.8; stroke-linecap: round"/>
     </g>
     <g id="text_10">
      <!-- 0.2 -->
      <g style="fill: #262626" transform="translate(30.55625 444.128345) scale(0.2 -0.2)">
       <defs>
        <path id="DejaVuSans-32" d="M 1228 531 
L 3431 531 
L 3431 0 
L 469 0 
L 469 531 
Q 828 903 1448 1529 
Q 2069 2156 2228 2338 
Q 2531 2678 2651 2914 
Q 2772 3150 2772 3378 
Q 2772 3750 2511 3984 
Q 2250 4219 1831 4219 
Q 1534 4219 1204 4116 
Q 875 4013 500 3803 
L 500 4441 
Q 881 4594 1212 4672 
Q 1544 4750 1819 4750 
Q 2544 4750 2975 4387 
Q 3406 4025 3406 3419 
Q 3406 3131 3298 2873 
Q 3191 2616 2906 2266 
Q 2828 2175 2409 1742 
Q 1991 1309 1228 531 
z
" transform="scale(0.015625)"/>
       </defs>
       <use xlink:href="#DejaVuSans-30"/>
       <use xlink:href="#DejaVuSans-2e" x="63.623047"/>
       <use xlink:href="#DejaVuSans-32" x="95.410156"/>
      </g>
     </g>
    </g>
    <g id="ytick_3">
     <g id="line2d_3">
      <path d="M 69.3625 350.300065 
L 850.5625 350.300065 
" clip-path="url(#p0b40a4b5d3)" style="fill: none; stroke: #cccccc; stroke-width: 0.8; stroke-linecap: round"/>
     </g>
     <g id="text_11">
      <!-- 0.4 -->
      <g style="fill: #262626" transform="translate(30.55625 357.898503) scale(0.2 -0.2)">
       <defs>
        <path id="DejaVuSans-34" d="M 2419 4116 
L 825 1625 
L 2419 1625 
L 2419 4116 
z
M 2253 4666 
L 3047 4666 
L 3047 1625 
L 3713 1625 
L 3713 1100 
L 3047 1100 
L 3047 0 
L 2419 0 
L 2419 1100 
L 313 1100 
L 313 1709 
L 2253 4666 
z
" transform="scale(0.015625)"/>
       </defs>
       <use xlink:href="#DejaVuSans-30"/>
       <use xlink:href="#DejaVuSans-2e" x="63.623047"/>
       <use xlink:href="#DejaVuSans-34" x="95.410156"/>
      </g>
     </g>
    </g>
    <g id="ytick_4">
     <g id="line2d_4">
      <path d="M 69.3625 264.070223 
L 850.5625 264.070223 
" clip-path="url(#p0b40a4b5d3)" style="fill: none; stroke: #cccccc; stroke-width: 0.8; stroke-linecap: round"/>
     </g>
     <g id="text_12">
      <!-- 0.6 -->
      <g style="fill: #262626" transform="translate(30.55625 271.66866) scale(0.2 -0.2)">
       <defs>
        <path id="DejaVuSans-36" d="M 2113 2584 
Q 1688 2584 1439 2293 
Q 1191 2003 1191 1497 
Q 1191 994 1439 701 
Q 1688 409 2113 409 
Q 2538 409 2786 701 
Q 3034 994 3034 1497 
Q 3034 2003 2786 2293 
Q 2538 2584 2113 2584 
z
M 3366 4563 
L 3366 3988 
Q 3128 4100 2886 4159 
Q 2644 4219 2406 4219 
Q 1781 4219 1451 3797 
Q 1122 3375 1075 2522 
Q 1259 2794 1537 2939 
Q 1816 3084 2150 3084 
Q 2853 3084 3261 2657 
Q 3669 2231 3669 1497 
Q 3669 778 3244 343 
Q 2819 -91 2113 -91 
Q 1303 -91 875 529 
Q 447 1150 447 2328 
Q 447 3434 972 4092 
Q 1497 4750 2381 4750 
Q 2619 4750 2861 4703 
Q 3103 4656 3366 4563 
z
" transform="scale(0.015625)"/>
       </defs>
       <use xlink:href="#DejaVuSans-30"/>
       <use xlink:href="#DejaVuSans-2e" x="63.623047"/>
       <use xlink:href="#DejaVuSans-36" x="95.410156"/>
      </g>
     </g>
    </g>
    <g id="ytick_5">
     <g id="line2d_5">
      <path d="M 69.3625 177.840381 
L 850.5625 177.840381 
" clip-path="url(#p0b40a4b5d3)" style="fill: none; stroke: #cccccc; stroke-width: 0.8; stroke-linecap: round"/>
     </g>
     <g id="text_13">
      <!-- 0.8 -->
      <g style="fill: #262626" transform="translate(30.55625 185.438818) scale(0.2 -0.2)">
       <defs>
        <path id="DejaVuSans-38" d="M 2034 2216 
Q 1584 2216 1326 1975 
Q 1069 1734 1069 1313 
Q 1069 891 1326 650 
Q 1584 409 2034 409 
Q 2484 409 2743 651 
Q 3003 894 3003 1313 
Q 3003 1734 2745 1975 
Q 2488 2216 2034 2216 
z
M 1403 2484 
Q 997 2584 770 2862 
Q 544 3141 544 3541 
Q 544 4100 942 4425 
Q 1341 4750 2034 4750 
Q 2731 4750 3128 4425 
Q 3525 4100 3525 3541 
Q 3525 3141 3298 2862 
Q 3072 2584 2669 2484 
Q 3125 2378 3379 2068 
Q 3634 1759 3634 1313 
Q 3634 634 3220 271 
Q 2806 -91 2034 -91 
Q 1263 -91 848 271 
Q 434 634 434 1313 
Q 434 1759 690 2068 
Q 947 2378 1403 2484 
z
M 1172 3481 
Q 1172 3119 1398 2916 
Q 1625 2713 2034 2713 
Q 2441 2713 2670 2916 
Q 2900 3119 2900 3481 
Q 2900 3844 2670 4047 
Q 2441 4250 2034 4250 
Q 1625 4250 1398 4047 
Q 1172 3844 1172 3481 
z
" transform="scale(0.015625)"/>
       </defs>
       <use xlink:href="#DejaVuSans-30"/>
       <use xlink:href="#DejaVuSans-2e" x="63.623047"/>
       <use xlink:href="#DejaVuSans-38" x="95.410156"/>
      </g>
     </g>
    </g>
    <g id="ytick_6">
     <g id="line2d_6">
      <path d="M 69.3625 91.610538 
L 850.5625 91.610538 
" clip-path="url(#p0b40a4b5d3)" style="fill: none; stroke: #cccccc; stroke-width: 0.8; stroke-linecap: round"/>
     </g>
     <g id="text_14">
      <!-- 1.0 -->
      <g style="fill: #262626" transform="translate(30.55625 99.208976) scale(0.2 -0.2)">
       <defs>
        <path id="DejaVuSans-31" d="M 794 531 
L 1825 531 
L 1825 4091 
L 703 3866 
L 703 4441 
L 1819 4666 
L 2450 4666 
L 2450 531 
L 3481 531 
L 3481 0 
L 794 0 
L 794 531 
z
" transform="scale(0.015625)"/>
       </defs>
       <use xlink:href="#DejaVuSans-31"/>
       <use xlink:href="#DejaVuSans-2e" x="63.623047"/>
       <use xlink:href="#DejaVuSans-30" x="95.410156"/>
      </g>
     </g>
    </g>
    <g id="text_15">
     <!-- TM-score -->
     <g style="fill: #262626" transform="translate(22.396875 329.609375) rotate(-90) scale(0.2 -0.2)">
      <use xlink:href="#DejaVuSans-54"/>
      <use xlink:href="#DejaVuSans-4d" x="61.083984"/>
      <use xlink:href="#DejaVuSans-2d" x="147.363281"/>
      <use xlink:href="#DejaVuSans-73" x="183.447266"/>
      <use xlink:href="#DejaVuSans-63" x="235.546875"/>
      <use xlink:href="#DejaVuSans-6f" x="290.527344"/>
      <use xlink:href="#DejaVuSans-72" x="351.708984"/>
      <use xlink:href="#DejaVuSans-65" x="390.572266"/>
     </g>
    </g>
   </g>
   <g id="PolyCollection_1">
    <defs>
     <path id="mae2815a293" d="M 125.420709 -251.65812 
L 124.904291 -251.65812 
L 124.82438 -256.083634 
L 124.727074 -260.509148 
L 124.61103 -264.934662 
L 124.47556 -269.360176 
L 124.320836 -273.785689 
L 124.148064 -278.211203 
L 123.959582 -282.636717 
L 123.758878 -287.062231 
L 123.550474 -291.487745 
L 123.339686 -295.913259 
L 123.132249 -300.338772 
L 122.933822 -304.764286 
L 122.749422 -309.1898 
L 122.582812 -313.615314 
L 122.435942 -318.040828 
L 122.308467 -322.466342 
L 122.19745 -326.891856 
L 122.097262 -331.317369 
L 121.999749 -335.742883 
L 121.894647 -340.168397 
L 121.770238 -344.593911 
L 121.614211 -349.019425 
L 121.414629 -353.444939 
L 121.160948 -357.870452 
L 120.844966 -362.295966 
L 120.46162 -366.72148 
L 120.00955 -371.146994 
L 119.491362 -375.572508 
L 118.913556 -379.998022 
L 118.286137 -384.423536 
L 117.621917 -388.849049 
L 116.935597 -393.274563 
L 116.24271 -397.700077 
L 115.558523 -402.125591 
L 114.897019 -406.551105 
L 114.270045 -410.976619 
L 113.686702 -415.402133 
L 113.153032 -419.827646 
L 112.671994 -424.25316 
L 112.243715 -428.678674 
L 111.865955 -433.104188 
L 111.534696 -437.529702 
L 111.244778 -441.955216 
L 110.990469 -446.380729 
L 110.765918 -450.806243 
L 110.565418 -455.231757 
L 110.383457 -459.657271 
L 110.214574 -464.082785 
L 110.05304 -468.508299 
L 109.892422 -472.933813 
L 109.7251 -477.359326 
L 109.541805 -481.78484 
L 109.331247 -486.210354 
L 109.079894 -490.635868 
L 108.771951 -495.061382 
L 108.389574 -499.486896 
L 107.913348 -503.912409 
L 107.323033 -508.337923 
L 106.598566 -512.763437 
L 105.721319 -517.188951 
L 104.675543 -521.614465 
L 103.449952 -526.039979 
L 102.039352 -530.465493 
L 100.4462 -534.891006 
L 98.681967 -539.31652 
L 96.768167 -543.742034 
L 94.736919 -548.167548 
L 92.63092 -552.593062 
L 90.502747 -557.018576 
L 88.413435 -561.444089 
L 86.430349 -565.869603 
L 84.624406 -570.295117 
L 83.066782 -574.720631 
L 81.825271 -579.146145 
L 80.960537 -583.571659 
L 80.5225 -587.997173 
L 80.547137 -592.422686 
L 81.053954 -596.8482 
L 82.044354 -601.273714 
L 83.50107 -605.699228 
L 85.388745 -610.124742 
L 87.655671 -614.550256 
L 90.236554 -618.97577 
L 93.056134 -623.401283 
L 96.033357 -627.826797 
L 99.08578 -632.252311 
L 102.133871 -636.677825 
L 105.104855 -641.103339 
L 107.93585 -645.528853 
L 110.576102 -649.954366 
L 112.988203 -654.37988 
L 115.148323 -658.805394 
L 117.045538 -663.230908 
L 118.680421 -667.656422 
L 120.063119 -672.081936 
L 121.211142 -676.50745 
L 122.147077 -680.932963 
L 122.896427 -685.358477 
L 123.485716 -689.783991 
L 126.839284 -689.783991 
L 126.839284 -689.783991 
L 127.428573 -685.358477 
L 128.177923 -680.932963 
L 129.113858 -676.50745 
L 130.261881 -672.081936 
L 131.644579 -667.656422 
L 133.279462 -663.230908 
L 135.176677 -658.805394 
L 137.336797 -654.37988 
L 139.748898 -649.954366 
L 142.38915 -645.528853 
L 145.220145 -641.103339 
L 148.191129 -636.677825 
L 151.23922 -632.252311 
L 154.291643 -627.826797 
L 157.268866 -623.401283 
L 160.088446 -618.97577 
L 162.669329 -614.550256 
L 164.936255 -610.124742 
L 166.82393 -605.699228 
L 168.280646 -601.273714 
L 169.271046 -596.8482 
L 169.777863 -592.422686 
L 169.8025 -587.997173 
L 169.364463 -583.571659 
L 168.499729 -579.146145 
L 167.258218 -574.720631 
L 165.700594 -570.295117 
L 163.894651 -565.869603 
L 161.911565 -561.444089 
L 159.822253 -557.018576 
L 157.69408 -552.593062 
L 155.588081 -548.167548 
L 153.556833 -543.742034 
L 151.643033 -539.31652 
L 149.8788 -534.891006 
L 148.285648 -530.465493 
L 146.875048 -526.039979 
L 145.649457 -521.614465 
L 144.603681 -517.188951 
L 143.726434 -512.763437 
L 143.001967 -508.337923 
L 142.411652 -503.912409 
L 141.935426 -499.486896 
L 141.553049 -495.061382 
L 141.245106 -490.635868 
L 140.993753 -486.210354 
L 140.783195 -481.78484 
L 140.5999 -477.359326 
L 140.432578 -472.933813 
L 140.27196 -468.508299 
L 140.110426 -464.082785 
L 139.941543 -459.657271 
L 139.759582 -455.231757 
L 139.559082 -450.806243 
L 139.334531 -446.380729 
L 139.080222 -441.955216 
L 138.790304 -437.529702 
L 138.459045 -433.104188 
L 138.081285 -428.678674 
L 137.653006 -424.25316 
L 137.171968 -419.827646 
L 136.638298 -415.402133 
L 136.054955 -410.976619 
L 135.427981 -406.551105 
L 134.766477 -402.125591 
L 134.08229 -397.700077 
L 133.389403 -393.274563 
L 132.703083 -388.849049 
L 132.038863 -384.423536 
L 131.411444 -379.998022 
L 130.833638 -375.572508 
L 130.31545 -371.146994 
L 129.86338 -366.72148 
L 129.480034 -362.295966 
L 129.164052 -357.870452 
L 128.910371 -353.444939 
L 128.710789 -349.019425 
L 128.554762 -344.593911 
L 128.430353 -340.168397 
L 128.325251 -335.742883 
L 128.227738 -331.317369 
L 128.12755 -326.891856 
L 128.016533 -322.466342 
L 127.889058 -318.040828 
L 127.742188 -313.615314 
L 127.575578 -309.1898 
L 127.391178 -304.764286 
L 127.192751 -300.338772 
L 126.985314 -295.913259 
L 126.774526 -291.487745 
L 126.566122 -287.062231 
L 126.365418 -282.636717 
L 126.176936 -278.211203 
L 126.004164 -273.785689 
L 125.84944 -269.360176 
L 125.71397 -264.934662 
L 125.597926 -260.509148 
L 125.50062 -256.083634 
L 125.420709 -251.65812 
z
" style="stroke: #3d3d3d; stroke-opacity: 0.5"/>
    </defs>
    <g clip-path="url(#p0b40a4b5d3)">
     <use xlink:href="#mae2815a293" x="0" y="722.183991" style="fill: #3274a1; fill-opacity: 0.5; stroke: #3d3d3d; stroke-opacity: 0.5"/>
    </g>
   </g>
   <g id="PolyCollection_2">
    <defs>
     <path id="m2b0a57d0a0" d="M 236.88887 -536.055601 
L 236.63613 -536.055601 
L 236.582963 -537.123846 
L 236.515922 -538.192091 
L 236.435129 -539.260336 
L 236.34234 -540.328581 
L 236.241213 -541.396825 
L 236.137287 -542.46507 
L 236.037619 -543.533315 
L 235.950056 -544.60156 
L 235.882245 -545.669804 
L 235.840541 -546.738049 
L 235.829025 -547.806294 
L 235.848846 -548.874539 
L 235.898031 -549.942783 
L 235.971813 -551.011028 
L 236.063385 -552.079273 
L 236.164942 -553.147518 
L 236.268758 -554.215763 
L 236.368125 -555.284007 
L 236.457984 -556.352252 
L 236.535196 -557.420497 
L 236.59847 -558.488742 
L 236.648046 -559.556986 
L 236.685238 -560.625231 
L 236.711953 -561.693476 
L 236.730267 -562.761721 
L 236.742102 -563.829966 
L 236.749011 -564.89821 
L 236.752059 -565.966455 
L 236.751762 -567.0347 
L 236.748065 -568.102945 
L 236.74034 -569.171189 
L 236.727409 -570.239434 
L 236.707601 -571.307679 
L 236.678877 -572.375924 
L 236.63903 -573.444169 
L 236.585999 -574.512413 
L 236.518246 -575.580658 
L 236.435178 -576.648903 
L 236.337493 -577.717148 
L 236.22738 -578.785392 
L 236.108449 -579.853637 
L 235.985352 -580.921882 
L 235.863112 -581.990127 
L 235.746279 -583.058371 
L 235.638079 -584.126616 
L 235.539794 -585.194861 
L 235.450528 -586.263106 
L 235.367459 -587.331351 
L 235.286529 -588.399595 
L 235.203374 -589.46784 
L 235.114251 -590.536085 
L 235.016666 -591.60433 
L 234.909525 -592.672574 
L 234.792761 -593.740819 
L 234.666571 -594.809064 
L 234.530501 -595.877309 
L 234.382736 -596.945554 
L 234.219848 -598.013798 
L 234.037162 -599.082043 
L 233.829678 -600.150288 
L 233.593298 -601.218533 
L 233.325947 -602.286777 
L 233.028146 -603.355022 
L 232.702644 -604.423267 
L 232.352958 -605.491512 
L 231.980864 -606.559757 
L 231.583188 -607.628001 
L 231.148389 -608.696246 
L 230.653559 -609.764491 
L 230.062402 -610.832736 
L 229.32473 -611.90098 
L 228.377918 -612.969225 
L 227.150681 -614.03747 
L 225.569486 -615.105715 
L 223.567745 -616.173959 
L 221.097565 -617.242204 
L 218.143261 -618.310449 
L 214.735016 -619.378694 
L 210.960185 -620.446939 
L 206.969232 -621.515183 
L 202.973253 -622.583428 
L 199.231045 -623.651673 
L 196.025467 -624.719918 
L 193.631305 -625.788162 
L 192.279278 -626.856407 
L 192.1225 -627.924652 
L 193.21205 -628.992897 
L 195.486893 -630.061142 
L 198.780644 -631.129386 
L 202.844118 -632.197631 
L 207.379257 -633.265876 
L 212.077844 -634.334121 
L 216.657867 -635.402365 
L 220.891532 -636.47061 
L 224.621364 -637.538855 
L 227.763675 -638.6071 
L 230.301288 -639.675344 
L 232.269021 -640.743589 
L 233.736025 -641.811834 
L 239.788975 -641.811834 
L 239.788975 -641.811834 
L 241.255979 -640.743589 
L 243.223712 -639.675344 
L 245.761325 -638.6071 
L 248.903636 -637.538855 
L 252.633468 -636.47061 
L 256.867133 -635.402365 
L 261.447156 -634.334121 
L 266.145743 -633.265876 
L 270.680882 -632.197631 
L 274.744356 -631.129386 
L 278.038107 -630.061142 
L 280.31295 -628.992897 
L 281.4025 -627.924652 
L 281.245722 -626.856407 
L 279.893695 -625.788162 
L 277.499533 -624.719918 
L 274.293955 -623.651673 
L 270.551747 -622.583428 
L 266.555768 -621.515183 
L 262.564815 -620.446939 
L 258.789984 -619.378694 
L 255.381739 -618.310449 
L 252.427435 -617.242204 
L 249.957255 -616.173959 
L 247.955514 -615.105715 
L 246.374319 -614.03747 
L 245.147082 -612.969225 
L 244.20027 -611.90098 
L 243.462598 -610.832736 
L 242.871441 -609.764491 
L 242.376611 -608.696246 
L 241.941812 -607.628001 
L 241.544136 -606.559757 
L 241.172042 -605.491512 
L 240.822356 -604.423267 
L 240.496854 -603.355022 
L 240.199053 -602.286777 
L 239.931702 -601.218533 
L 239.695322 -600.150288 
L 239.487838 -599.082043 
L 239.305152 -598.013798 
L 239.142264 -596.945554 
L 238.994499 -595.877309 
L 238.858429 -594.809064 
L 238.732239 -593.740819 
L 238.615475 -592.672574 
L 238.508334 -591.60433 
L 238.410749 -590.536085 
L 238.321626 -589.46784 
L 238.238471 -588.399595 
L 238.157541 -587.331351 
L 238.074472 -586.263106 
L 237.985206 -585.194861 
L 237.886921 -584.126616 
L 237.778721 -583.058371 
L 237.661888 -581.990127 
L 237.539648 -580.921882 
L 237.416551 -579.853637 
L 237.29762 -578.785392 
L 237.187507 -577.717148 
L 237.089822 -576.648903 
L 237.006754 -575.580658 
L 236.939001 -574.512413 
L 236.88597 -573.444169 
L 236.846123 -572.375924 
L 236.817399 -571.307679 
L 236.797591 -570.239434 
L 236.78466 -569.171189 
L 236.776935 -568.102945 
L 236.773238 -567.0347 
L 236.772941 -565.966455 
L 236.775989 -564.89821 
L 236.782898 -563.829966 
L 236.794733 -562.761721 
L 236.813047 -561.693476 
L 236.839762 -560.625231 
L 236.876954 -559.556986 
L 236.92653 -558.488742 
L 236.989804 -557.420497 
L 237.067016 -556.352252 
L 237.156875 -555.284007 
L 237.256242 -554.215763 
L 237.360058 -553.147518 
L 237.461615 -552.079273 
L 237.553187 -551.011028 
L 237.626969 -549.942783 
L 237.676154 -548.874539 
L 237.695975 -547.806294 
L 237.684459 -546.738049 
L 237.642755 -545.669804 
L 237.574944 -544.60156 
L 237.487381 -543.533315 
L 237.387713 -542.46507 
L 237.283787 -541.396825 
L 237.18266 -540.328581 
L 237.089871 -539.260336 
L 237.009078 -538.192091 
L 236.942037 -537.123846 
L 236.88887 -536.055601 
z
" style="stroke: #3d3d3d; stroke-opacity: 0.5"/>
    </defs>
    <g clip-path="url(#p0b40a4b5d3)">
     <use xlink:href="#m2b0a57d0a0" x="0" y="722.183991" style="fill: #d684bd; fill-opacity: 0.5; stroke: #3d3d3d; stroke-opacity: 0.5"/>
    </g>
   </g>
   <g id="PolyCollection_3">
    <defs>
     <path id="m6447d3ddeb" d="M 349.639746 -185.783991 
L 347.085254 -185.783991 
L 346.660674 -190.564339 
L 346.125997 -195.344687 
L 345.463177 -200.125036 
L 344.65433 -204.905384 
L 343.68272 -209.685732 
L 342.533889 -214.46608 
L 341.196879 -219.246428 
L 339.66545 -224.026776 
L 337.939209 -228.807124 
L 336.024529 -233.587473 
L 333.935161 -238.367821 
L 331.69244 -243.148169 
L 329.325026 -247.928517 
L 326.868139 -252.708865 
L 324.362305 -257.489213 
L 321.851677 -262.269562 
L 319.382018 -267.04991 
L 316.998502 -271.830258 
L 314.743488 -276.610606 
L 312.654449 -281.390954 
L 310.762213 -286.171302 
L 309.089682 -290.95165 
L 307.651106 -295.731999 
L 306.451982 -300.512347 
L 305.489573 -305.292695 
L 304.753974 -310.073043 
L 304.22963 -314.853391 
L 303.897143 -319.633739 
L 303.735209 -324.414088 
L 303.7225 -329.194436 
L 303.839347 -333.974784 
L 304.069075 -338.755132 
L 304.39892 -343.53548 
L 304.820459 -348.315828 
L 305.329576 -353.096176 
L 305.925989 -357.876525 
L 306.61242 -362.656873 
L 307.393504 -367.437221 
L 308.274548 -372.217569 
L 309.260255 -376.997917 
L 310.35351 -381.778265 
L 311.554349 -386.558614 
L 312.859151 -391.338962 
L 314.260137 -396.11931 
L 315.745185 -400.899658 
L 317.29797 -405.680006 
L 318.898414 -410.460354 
L 320.523381 -415.240702 
L 322.147586 -420.021051 
L 323.744625 -424.801399 
L 325.288063 -429.581747 
L 326.752513 -434.362095 
L 328.114645 -439.142443 
L 329.354076 -443.922791 
L 330.454127 -448.70314 
L 331.402419 -453.483488 
L 332.191311 -458.263836 
L 332.818185 -463.044184 
L 333.285587 -467.824532 
L 333.601201 -472.60488 
L 333.777689 -477.385228 
L 333.832339 -482.165577 
L 333.786552 -486.945925 
L 333.665119 -491.726273 
L 333.495313 -496.506621 
L 333.305799 -501.286969 
L 333.125404 -506.067317 
L 332.981811 -510.847666 
L 332.900239 -515.628014 
L 332.902234 -520.408362 
L 333.004636 -525.18871 
L 333.218826 -529.969058 
L 333.550314 -534.749406 
L 333.998709 -539.529754 
L 334.558062 -544.310103 
L 335.217541 -549.090451 
L 335.96239 -553.870799 
L 336.775044 -558.651147 
L 337.636332 -563.431495 
L 338.526638 -568.211843 
L 339.426942 -572.992192 
L 340.319688 -577.77254 
L 341.189413 -582.552888 
L 342.023153 -587.333236 
L 342.810623 -592.113584 
L 343.544213 -596.893932 
L 344.218836 -601.67428 
L 344.831675 -606.454629 
L 345.381881 -611.234977 
L 345.870241 -616.015325 
L 346.298854 -620.795673 
L 346.670837 -625.576021 
L 346.990046 -630.356369 
L 347.260848 -635.136718 
L 347.487908 -639.917066 
L 347.676017 -644.697414 
L 347.829944 -649.477762 
L 347.954309 -654.25811 
L 348.053484 -659.038458 
L 348.671516 -659.038458 
L 348.671516 -659.038458 
L 348.770691 -654.25811 
L 348.895056 -649.477762 
L 349.048983 -644.697414 
L 349.237092 -639.917066 
L 349.464152 -635.136718 
L 349.734954 -630.356369 
L 350.054163 -625.576021 
L 350.426146 -620.795673 
L 350.854759 -616.015325 
L 351.343119 -611.234977 
L 351.893325 -606.454629 
L 352.506164 -601.67428 
L 353.180787 -596.893932 
L 353.914377 -592.113584 
L 354.701847 -587.333236 
L 355.535587 -582.552888 
L 356.405312 -577.77254 
L 357.298058 -572.992192 
L 358.198362 -568.211843 
L 359.088668 -563.431495 
L 359.949956 -558.651147 
L 360.76261 -553.870799 
L 361.507459 -549.090451 
L 362.166938 -544.310103 
L 362.726291 -539.529754 
L 363.174686 -534.749406 
L 363.506174 -529.969058 
L 363.720364 -525.18871 
L 363.822766 -520.408362 
L 363.824761 -515.628014 
L 363.743189 -510.847666 
L 363.599596 -506.067317 
L 363.419201 -501.286969 
L 363.229687 -496.506621 
L 363.059881 -491.726273 
L 362.938448 -486.945925 
L 362.892661 -482.165577 
L 362.947311 -477.385228 
L 363.123799 -472.60488 
L 363.439413 -467.824532 
L 363.906815 -463.044184 
L 364.533689 -458.263836 
L 365.322581 -453.483488 
L 366.270873 -448.70314 
L 367.370924 -443.922791 
L 368.610355 -439.142443 
L 369.972487 -434.362095 
L 371.436937 -429.581747 
L 372.980375 -424.801399 
L 374.577414 -420.021051 
L 376.201619 -415.240702 
L 377.826586 -410.460354 
L 379.42703 -405.680006 
L 380.979815 -400.899658 
L 382.464863 -396.11931 
L 383.865849 -391.338962 
L 385.170651 -386.558614 
L 386.37149 -381.778265 
L 387.464745 -376.997917 
L 388.450452 -372.217569 
L 389.331496 -367.437221 
L 390.11258 -362.656873 
L 390.799011 -357.876525 
L 391.395424 -353.096176 
L 391.904541 -348.315828 
L 392.32608 -343.53548 
L 392.655925 -338.755132 
L 392.885653 -333.974784 
L 393.0025 -329.194436 
L 392.989791 -324.414088 
L 392.827857 -319.633739 
L 392.49537 -314.853391 
L 391.971026 -310.073043 
L 391.235427 -305.292695 
L 390.273018 -300.512347 
L 389.073894 -295.731999 
L 387.635318 -290.95165 
L 385.962787 -286.171302 
L 384.070551 -281.390954 
L 381.981512 -276.610606 
L 379.726498 -271.830258 
L 377.342982 -267.04991 
L 374.873323 -262.269562 
L 372.362695 -257.489213 
L 369.856861 -252.708865 
L 367.399974 -247.928517 
L 365.03256 -243.148169 
L 362.789839 -238.367821 
L 360.700471 -233.587473 
L 358.785791 -228.807124 
L 357.05955 -224.026776 
L 355.528121 -219.246428 
L 354.191111 -214.46608 
L 353.04228 -209.685732 
L 352.07067 -204.905384 
L 351.261823 -200.125036 
L 350.599003 -195.344687 
L 350.064326 -190.564339 
L 349.639746 -185.783991 
z
" style="stroke: #3d3d3d; stroke-opacity: 0.5"/>
    </defs>
    <g clip-path="url(#p0b40a4b5d3)">
     <use xlink:href="#m6447d3ddeb" x="0" y="722.183991" style="fill: #c03d3e; fill-opacity: 0.5; stroke: #3d3d3d; stroke-opacity: 0.5"/>
    </g>
   </g>
   <g id="PolyCollection_4">
    <defs>
     <path id="m77b943cac9" d="M 460.091889 -532.577855 
L 459.833111 -532.577855 
L 459.780108 -533.686356 
L 459.713567 -534.794857 
L 459.633551 -535.903358 
L 459.541635 -537.011859 
L 459.441153 -538.12036 
L 459.337213 -539.228861 
L 459.236393 -540.337362 
L 459.146122 -541.445863 
L 459.073807 -542.554364 
L 459.025837 -543.662865 
L 459.006653 -544.771366 
L 459.018064 -545.879867 
L 459.058956 -546.988368 
L 459.125457 -548.096869 
L 459.211511 -549.20537 
L 459.309736 -550.313871 
L 459.412393 -551.422372 
L 459.512257 -552.530873 
L 459.603255 -553.639374 
L 459.680789 -554.747875 
L 459.741746 -555.856376 
L 459.784266 -556.964877 
L 459.807396 -558.073378 
L 459.810742 -559.181879 
L 459.794255 -560.290379 
L 459.758193 -561.39888 
L 459.70328 -562.507381 
L 459.63102 -563.615882 
L 459.544046 -564.724383 
L 459.446404 -565.832884 
L 459.343615 -566.941385 
L 459.242446 -568.049886 
L 459.150338 -569.158387 
L 459.074555 -570.266888 
L 459.021176 -571.375389 
L 458.994116 -572.48389 
L 458.994374 -573.592391 
L 459.019685 -574.700892 
L 459.064659 -575.809393 
L 459.121406 -576.917894 
L 459.180559 -578.026395 
L 459.232517 -579.134896 
L 459.268697 -580.243397 
L 459.282617 -581.351898 
L 459.270623 -582.460399 
L 459.232169 -583.5689 
L 459.169609 -584.677401 
L 459.087538 -585.785902 
L 458.991785 -586.894403 
L 458.888233 -588.002904 
L 458.781652 -589.111405 
L 458.674769 -590.219905 
L 458.567733 -591.328406 
L 458.458066 -592.436907 
L 458.341079 -593.545408 
L 458.210638 -594.653909 
L 458.060054 -595.76241 
L 457.882884 -596.870911 
L 457.673441 -597.979412 
L 457.426904 -599.087913 
L 457.139025 -600.196414 
L 456.805527 -601.304915 
L 456.421331 -602.413416 
L 455.979761 -603.521917 
L 455.471808 -604.630418 
L 454.88548 -605.738919 
L 454.205194 -606.84742 
L 453.41118 -607.955921 
L 452.478887 -609.064422 
L 451.378562 -610.172923 
L 450.075323 -611.281424 
L 448.530243 -612.389925 
L 446.703053 -613.498426 
L 444.557012 -614.606927 
L 442.066198 -615.715428 
L 439.224922 -616.823929 
L 436.058217 -617.93243 
L 432.631585 -619.040931 
L 429.057569 -620.149431 
L 425.496623 -621.257932 
L 422.150226 -622.366433 
L 419.245439 -623.474934 
L 417.011862 -624.583435 
L 415.653859 -625.691936 
L 415.3225 -626.800437 
L 416.092345 -627.908938 
L 417.947777 -629.017439 
L 420.78191 -630.12594 
L 424.408675 -631.234441 
L 428.586003 -632.342942 
L 433.045825 -633.451443 
L 437.525495 -634.559944 
L 441.795284 -635.668445 
L 445.677958 -636.776946 
L 449.058393 -637.885447 
L 451.883356 -638.993948 
L 454.153396 -640.102449 
L 455.909765 -641.21095 
L 457.219553 -642.319451 
L 462.705447 -642.319451 
L 462.705447 -642.319451 
L 464.015235 -641.21095 
L 465.771604 -640.102449 
L 468.041644 -638.993948 
L 470.866607 -637.885447 
L 474.247042 -636.776946 
L 478.129716 -635.668445 
L 482.399505 -634.559944 
L 486.879175 -633.451443 
L 491.338997 -632.342942 
L 495.516325 -631.234441 
L 499.14309 -630.12594 
L 501.977223 -629.017439 
L 503.832655 -627.908938 
L 504.6025 -626.800437 
L 504.271141 -625.691936 
L 502.913138 -624.583435 
L 500.679561 -623.474934 
L 497.774774 -622.366433 
L 494.428377 -621.257932 
L 490.867431 -620.149431 
L 487.293415 -619.040931 
L 483.866783 -617.93243 
L 480.700078 -616.823929 
L 477.858802 -615.715428 
L 475.367988 -614.606927 
L 473.221947 -613.498426 
L 471.394757 -612.389925 
L 469.849677 -611.281424 
L 468.546438 -610.172923 
L 467.446113 -609.064422 
L 466.51382 -607.955921 
L 465.719806 -606.84742 
L 465.03952 -605.738919 
L 464.453192 -604.630418 
L 463.945239 -603.521917 
L 463.503669 -602.413416 
L 463.119473 -601.304915 
L 462.785975 -600.196414 
L 462.498096 -599.087913 
L 462.251559 -597.979412 
L 462.042116 -596.870911 
L 461.864946 -595.76241 
L 461.714362 -594.653909 
L 461.583921 -593.545408 
L 461.466934 -592.436907 
L 461.357267 -591.328406 
L 461.250231 -590.219905 
L 461.143348 -589.111405 
L 461.036767 -588.002904 
L 460.933215 -586.894403 
L 460.837462 -585.785902 
L 460.755391 -584.677401 
L 460.692831 -583.5689 
L 460.654377 -582.460399 
L 460.642383 -581.351898 
L 460.656303 -580.243397 
L 460.692483 -579.134896 
L 460.744441 -578.026395 
L 460.803594 -576.917894 
L 460.860341 -575.809393 
L 460.905315 -574.700892 
L 460.930626 -573.592391 
L 460.930884 -572.48389 
L 460.903824 -571.375389 
L 460.850445 -570.266888 
L 460.774662 -569.158387 
L 460.682554 -568.049886 
L 460.581385 -566.941385 
L 460.478596 -565.832884 
L 460.380954 -564.724383 
L 460.29398 -563.615882 
L 460.22172 -562.507381 
L 460.166807 -561.39888 
L 460.130745 -560.290379 
L 460.114258 -559.181879 
L 460.117604 -558.073378 
L 460.140734 -556.964877 
L 460.183254 -555.856376 
L 460.244211 -554.747875 
L 460.321745 -553.639374 
L 460.412743 -552.530873 
L 460.512607 -551.422372 
L 460.615264 -550.313871 
L 460.713489 -549.20537 
L 460.799543 -548.096869 
L 460.866044 -546.988368 
L 460.906936 -545.879867 
L 460.918347 -544.771366 
L 460.899163 -543.662865 
L 460.851193 -542.554364 
L 460.778878 -541.445863 
L 460.688607 -540.337362 
L 460.587787 -539.228861 
L 460.483847 -538.12036 
L 460.383365 -537.011859 
L 460.291449 -535.903358 
L 460.211433 -534.794857 
L 460.144892 -533.686356 
L 460.091889 -532.577855 
z
" style="stroke: #3d3d3d; stroke-opacity: 0.5"/>
    </defs>
    <g clip-path="url(#p0b40a4b5d3)">
     <use xlink:href="#m77b943cac9" x="0" y="722.183991" style="fill: #9372b2; fill-opacity: 0.5; stroke: #3d3d3d; stroke-opacity: 0.5"/>
    </g>
   </g>
   <g id="PolyCollection_5">
    <defs>
     <path id="mf4b7edbd3f" d="M 571.769405 -527.634266 
L 571.355595 -527.634266 
L 571.274769 -528.812712 
L 571.172514 -529.991158 
L 571.047317 -531.169604 
L 570.899171 -532.34805 
L 570.730054 -533.526496 
L 570.544268 -534.704942 
L 570.348539 -535.883388 
L 570.151803 -537.061834 
L 569.96465 -538.24028 
L 569.798435 -539.418725 
L 569.664174 -540.597171 
L 569.571338 -541.775617 
L 569.526759 -542.954063 
L 569.533793 -544.132509 
L 569.591907 -545.310955 
L 569.696746 -546.489401 
L 569.840667 -547.667847 
L 570.013664 -548.846293 
L 570.204513 -550.024739 
L 570.401961 -551.203185 
L 570.595788 -552.381631 
L 570.77761 -553.560077 
L 570.941338 -554.738523 
L 571.083303 -555.916969 
L 571.20207 -557.095415 
L 571.298045 -558.273861 
L 571.372959 -559.452307 
L 571.429329 -560.630753 
L 571.469952 -561.809198 
L 571.497496 -562.987644 
L 571.514195 -564.16609 
L 571.521637 -565.344536 
L 571.520659 -566.522982 
L 571.511298 -567.701428 
L 571.492822 -568.879874 
L 571.463807 -570.05832 
L 571.422283 -571.236766 
L 571.365936 -572.415212 
L 571.292385 -573.593658 
L 571.199509 -574.772104 
L 571.085813 -575.95055 
L 570.950775 -577.128996 
L 570.795138 -578.307442 
L 570.62105 -579.485888 
L 570.43202 -580.664334 
L 570.232611 -581.84278 
L 570.027884 -583.021226 
L 569.822602 -584.199671 
L 569.620296 -585.378117 
L 569.422297 -586.556563 
L 569.226913 -587.735009 
L 569.028883 -588.913455 
L 568.819271 -590.091901 
L 568.585848 -591.270347 
L 568.313973 -592.448793 
L 567.987868 -593.627239 
L 567.592113 -594.805685 
L 567.113094 -595.984131 
L 566.540158 -597.162577 
L 565.866227 -598.341023 
L 565.087724 -599.519469 
L 564.203762 -600.697915 
L 563.214733 -601.876361 
L 562.120506 -603.054807 
L 560.918599 -604.233253 
L 559.602707 -605.411699 
L 558.161957 -606.590144 
L 556.581201 -607.76859 
L 554.842531 -608.947036 
L 552.928051 -610.125482 
L 550.823783 -611.303928 
L 548.524417 -612.482374 
L 546.038444 -613.66082 
L 543.393065 -614.839266 
L 540.638127 -616.017712 
L 537.848288 -617.196158 
L 535.12265 -618.374604 
L 532.581237 -619.55305 
L 530.358095 -620.731496 
L 528.591222 -621.909942 
L 527.410142 -623.088388 
L 526.9225 -624.266834 
L 527.20141 -625.44528 
L 528.275484 -626.623726 
L 530.123195 -627.802172 
L 532.672686 -628.980617 
L 535.807304 -630.159063 
L 539.376232 -631.337509 
L 543.208728 -632.515955 
L 547.129975 -633.694401 
L 550.976315 -634.872847 
L 554.607928 -636.051293 
L 557.917532 -637.229739 
L 560.83448 -638.408185 
L 563.324389 -639.586631 
L 565.385072 -640.765077 
L 567.039982 -641.943523 
L 568.330477 -643.121969 
L 569.308125 -644.300415 
L 573.816875 -644.300415 
L 573.816875 -644.300415 
L 574.794523 -643.121969 
L 576.085018 -641.943523 
L 577.739928 -640.765077 
L 579.800611 -639.586631 
L 582.29052 -638.408185 
L 585.207468 -637.229739 
L 588.517072 -636.051293 
L 592.148685 -634.872847 
L 595.995025 -633.694401 
L 599.916272 -632.515955 
L 603.748768 -631.337509 
L 607.317696 -630.159063 
L 610.452314 -628.980617 
L 613.001805 -627.802172 
L 614.849516 -626.623726 
L 615.92359 -625.44528 
L 616.2025 -624.266834 
L 615.714858 -623.088388 
L 614.533778 -621.909942 
L 612.766905 -620.731496 
L 610.543763 -619.55305 
L 608.00235 -618.374604 
L 605.276712 -617.196158 
L 602.486873 -616.017712 
L 599.731935 -614.839266 
L 597.086556 -613.66082 
L 594.600583 -612.482374 
L 592.301217 -611.303928 
L 590.196949 -610.125482 
L 588.282469 -608.947036 
L 586.543799 -607.76859 
L 584.963043 -606.590144 
L 583.522293 -605.411699 
L 582.206401 -604.233253 
L 581.004494 -603.054807 
L 579.910267 -601.876361 
L 578.921238 -600.697915 
L 578.037276 -599.519469 
L 577.258773 -598.341023 
L 576.584842 -597.162577 
L 576.011906 -595.984131 
L 575.532887 -594.805685 
L 575.137132 -593.627239 
L 574.811027 -592.448793 
L 574.539152 -591.270347 
L 574.305729 -590.091901 
L 574.096117 -588.913455 
L 573.898087 -587.735009 
L 573.702703 -586.556563 
L 573.504704 -585.378117 
L 573.302398 -584.199671 
L 573.097116 -583.021226 
L 572.892389 -581.84278 
L 572.69298 -580.664334 
L 572.50395 -579.485888 
L 572.329862 -578.307442 
L 572.174225 -577.128996 
L 572.039187 -575.95055 
L 571.925491 -574.772104 
L 571.832615 -573.593658 
L 571.759064 -572.415212 
L 571.702717 -571.236766 
L 571.661193 -570.05832 
L 571.632178 -568.879874 
L 571.613702 -567.701428 
L 571.604341 -566.522982 
L 571.603363 -565.344536 
L 571.610805 -564.16609 
L 571.627504 -562.987644 
L 571.655048 -561.809198 
L 571.695671 -560.630753 
L 571.752041 -559.452307 
L 571.826955 -558.273861 
L 571.92293 -557.095415 
L 572.041697 -555.916969 
L 572.183662 -554.738523 
L 572.34739 -553.560077 
L 572.529212 -552.381631 
L 572.723039 -551.203185 
L 572.920487 -550.024739 
L 573.111336 -548.846293 
L 573.284333 -547.667847 
L 573.428254 -546.489401 
L 573.533093 -545.310955 
L 573.591207 -544.132509 
L 573.598241 -542.954063 
L 573.553662 -541.775617 
L 573.460826 -540.597171 
L 573.326565 -539.418725 
L 573.16035 -538.24028 
L 572.973197 -537.061834 
L 572.776461 -535.883388 
L 572.580732 -534.704942 
L 572.394946 -533.526496 
L 572.225829 -532.34805 
L 572.077683 -531.169604 
L 571.952486 -529.991158 
L 571.850231 -528.812712 
L 571.769405 -527.634266 
z
" style="stroke: #3d3d3d; stroke-opacity: 0.5"/>
    </defs>
    <g clip-path="url(#p0b40a4b5d3)">
     <use xlink:href="#mf4b7edbd3f" x="0" y="722.183991" style="fill: #845b53; fill-opacity: 0.5; stroke: #3d3d3d; stroke-opacity: 0.5"/>
    </g>
   </g>
   <g id="PolyCollection_6">
    <defs>
     <path id="m39025d9008" d="M 794.886824 -538.419712 
L 794.638176 -538.419712 
L 794.585583 -539.460373 
L 794.519208 -540.501035 
L 794.43918 -541.541697 
L 794.347277 -542.582358 
L 794.247182 -543.62302 
L 794.144462 -544.663682 
L 794.046193 -545.704343 
L 793.960215 -546.745005 
L 793.894133 -547.785667 
L 793.854213 -548.826328 
L 793.844404 -549.86699 
L 793.865695 -550.907652 
L 793.915949 -551.948313 
L 793.990258 -552.988975 
L 794.081732 -554.029637 
L 794.182551 -555.070298 
L 794.285052 -556.11096 
L 794.382651 -557.151622 
L 794.470456 -558.192283 
L 794.545503 -559.232945 
L 794.606658 -560.273607 
L 794.65428 -561.314268 
L 794.689745 -562.35493 
L 794.714959 -563.395592 
L 794.731934 -564.436253 
L 794.742465 -565.476915 
L 794.747909 -566.517577 
L 794.749068 -567.558238 
L 794.746119 -568.5989 
L 794.73861 -569.639562 
L 794.725484 -570.680223 
L 794.705165 -571.720885 
L 794.675711 -572.761547 
L 794.635069 -573.802208 
L 794.581427 -574.84287 
L 794.513649 -575.883532 
L 794.431733 -576.924193 
L 794.337185 -577.964855 
L 794.233203 -579.005517 
L 794.124556 -580.046178 
L 794.017103 -581.08684 
L 793.916965 -582.127502 
L 793.829483 -583.168163 
L 793.758155 -584.208825 
L 793.70381 -585.249487 
L 793.664224 -586.290148 
L 793.634319 -587.33081 
L 793.606936 -588.371472 
L 793.574008 -589.412133 
L 793.527878 -590.452795 
L 793.462446 -591.493457 
L 793.373907 -592.534118 
L 793.260925 -593.57478 
L 793.124291 -594.615442 
L 792.96623 -595.656103 
L 792.789606 -596.696765 
L 792.5973 -597.737427 
L 792.391917 -598.778088 
L 792.175875 -599.81875 
L 791.951744 -600.859412 
L 791.722601 -601.900073 
L 791.492081 -602.940735 
L 791.263882 -603.981397 
L 791.04053 -605.022058 
L 790.821434 -606.06272 
L 790.600418 -607.103382 
L 790.363076 -608.144043 
L 790.084395 -609.184705 
L 789.727141 -610.225367 
L 789.24142 -611.266028 
L 788.565805 -612.30669 
L 787.63028 -613.347352 
L 786.361206 -614.388013 
L 784.688384 -615.428675 
L 782.554156 -616.469337 
L 779.924181 -617.509998 
L 776.799091 -618.55066 
L 773.225635 -619.591322 
L 769.305289 -620.631983 
L 765.19788 -621.672645 
L 761.117792 -622.713307 
L 757.321055 -623.753968 
L 754.083092 -624.79463 
L 751.668942 -625.835292 
L 750.299951 -626.875953 
L 750.1225 -627.916615 
L 751.184834 -628.957277 
L 753.427015 -629.997938 
L 756.686644 -631.0386 
L 760.719728 -632.079262 
L 765.232895 -633.119923 
L 769.920842 -634.160585 
L 774.502147 -635.201247 
L 778.747464 -636.241908 
L 782.496315 -637.28257 
L 785.661455 -638.323232 
L 788.222405 -639.363893 
L 790.211481 -640.404555 
L 791.696343 -641.445217 
L 797.828657 -641.445217 
L 797.828657 -641.445217 
L 799.313519 -640.404555 
L 801.302595 -639.363893 
L 803.863545 -638.323232 
L 807.028685 -637.28257 
L 810.777536 -636.241908 
L 815.022853 -635.201247 
L 819.604158 -634.160585 
L 824.292105 -633.119923 
L 828.805272 -632.079262 
L 832.838356 -631.0386 
L 836.097985 -629.997938 
L 838.340166 -628.957277 
L 839.4025 -627.916615 
L 839.225049 -626.875953 
L 837.856058 -625.835292 
L 835.441908 -624.79463 
L 832.203945 -623.753968 
L 828.407208 -622.713307 
L 824.32712 -621.672645 
L 820.219711 -620.631983 
L 816.299365 -619.591322 
L 812.725909 -618.55066 
L 809.600819 -617.509998 
L 806.970844 -616.469337 
L 804.836616 -615.428675 
L 803.163794 -614.388013 
L 801.89472 -613.347352 
L 800.959195 -612.30669 
L 800.28358 -611.266028 
L 799.797859 -610.225367 
L 799.440605 -609.184705 
L 799.161924 -608.144043 
L 798.924582 -607.103382 
L 798.703566 -606.06272 
L 798.48447 -605.022058 
L 798.261118 -603.981397 
L 798.032919 -602.940735 
L 797.802399 -601.900073 
L 797.573256 -600.859412 
L 797.349125 -599.81875 
L 797.133083 -598.778088 
L 796.9277 -597.737427 
L 796.735394 -596.696765 
L 796.55877 -595.656103 
L 796.400709 -594.615442 
L 796.264075 -593.57478 
L 796.151093 -592.534118 
L 796.062554 -591.493457 
L 795.997122 -590.452795 
L 795.950992 -589.412133 
L 795.918064 -588.371472 
L 795.890681 -587.33081 
L 795.860776 -586.290148 
L 795.82119 -585.249487 
L 795.766845 -584.208825 
L 795.695517 -583.168163 
L 795.608035 -582.127502 
L 795.507897 -581.08684 
L 795.400444 -580.046178 
L 795.291797 -579.005517 
L 795.187815 -577.964855 
L 795.093267 -576.924193 
L 795.011351 -575.883532 
L 794.943573 -574.84287 
L 794.889931 -573.802208 
L 794.849289 -572.761547 
L 794.819835 -571.720885 
L 794.799516 -570.680223 
L 794.78639 -569.639562 
L 794.778881 -568.5989 
L 794.775932 -567.558238 
L 794.777091 -566.517577 
L 794.782535 -565.476915 
L 794.793066 -564.436253 
L 794.810041 -563.395592 
L 794.835255 -562.35493 
L 794.87072 -561.314268 
L 794.918342 -560.273607 
L 794.979497 -559.232945 
L 795.054544 -558.192283 
L 795.142349 -557.151622 
L 795.239948 -556.11096 
L 795.342449 -555.070298 
L 795.443268 -554.029637 
L 795.534742 -552.988975 
L 795.609051 -551.948313 
L 795.659305 -550.907652 
L 795.680596 -549.86699 
L 795.670787 -548.826328 
L 795.630867 -547.785667 
L 795.564785 -546.745005 
L 795.478807 -545.704343 
L 795.380538 -544.663682 
L 795.277818 -543.62302 
L 795.177723 -542.582358 
L 795.08582 -541.541697 
L 795.005792 -540.501035 
L 794.939417 -539.460373 
L 794.886824 -538.419712 
z
" style="stroke: #3d3d3d; stroke-opacity: 0.5"/>
    </defs>
    <g clip-path="url(#p0b40a4b5d3)">
     <use xlink:href="#m39025d9008" x="0" y="722.183991" style="fill: #3a923a; fill-opacity: 0.5; stroke: #3d3d3d; stroke-opacity: 0.5"/>
    </g>
   </g>
   <g id="line2d_7">
    <path d="M 125.1625 403.217068 
L 125.1625 99.708802 
" clip-path="url(#p0b40a4b5d3)" style="fill: none; stroke: #3d3d3d; stroke-width: 1.5; stroke-linecap: round"/>
   </g>
   <g id="line2d_8">
    <path d="M 125.1625 236.077477 
L 125.1625 123.080306 
" clip-path="url(#p0b40a4b5d3)" style="fill: none; stroke: #3d3d3d; stroke-width: 4.5; stroke-linecap: round"/>
   </g>
   <g id="line2d_9">
    <path d="M 125.1625 149.886323 
" clip-path="url(#p0b40a4b5d3)" style="fill: none; stroke: #3d3d3d; stroke-width: 1.5; stroke-linecap: round"/>
    <defs>
     <path id="mdb7d34da0b" d="M 1.875 0 
L -1.875 -0 
" style="stroke: #ffffff; stroke-width: 0.9"/>
    </defs>
    <g clip-path="url(#p0b40a4b5d3)">
     <use xlink:href="#mdb7d34da0b" x="125.1625" y="149.886323" style="fill: #ffffff; stroke: #ffffff; stroke-width: 0.9"/>
    </g>
   </g>
   <g id="line2d_10">
    <path d="M 236.7625 102.944115 
L 236.7625 91.980186 
" clip-path="url(#p0b40a4b5d3)" style="fill: none; stroke: #3d3d3d; stroke-width: 1.5; stroke-linecap: round"/>
   </g>
   <g id="line2d_11">
    <path d="M 236.7625 97.906638 
L 236.7625 93.15081 
" clip-path="url(#p0b40a4b5d3)" style="fill: none; stroke: #3d3d3d; stroke-width: 4.5; stroke-linecap: round"/>
   </g>
   <g id="line2d_12">
    <path d="M 236.7625 94.817287 
" clip-path="url(#p0b40a4b5d3)" style="fill: none; stroke: #3d3d3d; stroke-width: 1.5; stroke-linecap: round"/>
    <g clip-path="url(#p0b40a4b5d3)">
     <use xlink:href="#mdb7d34da0b" x="236.7625" y="94.817287" style="fill: #ffffff; stroke: #ffffff; stroke-width: 0.9"/>
    </g>
   </g>
   <g id="line2d_13">
    <path d="M 348.3625 460.672274 
L 348.3625 138.873258 
" clip-path="url(#p0b40a4b5d3)" style="fill: none; stroke: #3d3d3d; stroke-width: 1.5; stroke-linecap: round"/>
   </g>
   <g id="line2d_14">
    <path d="M 348.3625 417.870932 
L 348.3625 305.563328 
" clip-path="url(#p0b40a4b5d3)" style="fill: none; stroke: #3d3d3d; stroke-width: 4.5; stroke-linecap: round"/>
   </g>
   <g id="line2d_15">
    <path d="M 348.3625 365.701814 
" clip-path="url(#p0b40a4b5d3)" style="fill: none; stroke: #3d3d3d; stroke-width: 1.5; stroke-linecap: round"/>
    <g clip-path="url(#p0b40a4b5d3)">
     <use xlink:href="#mdb7d34da0b" x="348.3625" y="365.701814" style="fill: #ffffff; stroke: #ffffff; stroke-width: 0.9"/>
    </g>
   </g>
   <g id="line2d_16">
    <path d="M 459.9625 110.785599 
L 459.9625 92.198751 
" clip-path="url(#p0b40a4b5d3)" style="fill: none; stroke: #3d3d3d; stroke-width: 1.5; stroke-linecap: round"/>
   </g>
   <g id="line2d_17">
    <path d="M 459.9625 100.759948 
L 459.9625 93.770651 
" clip-path="url(#p0b40a4b5d3)" style="fill: none; stroke: #3d3d3d; stroke-width: 4.5; stroke-linecap: round"/>
   </g>
   <g id="line2d_18">
    <path d="M 459.9625 95.72605 
" clip-path="url(#p0b40a4b5d3)" style="fill: none; stroke: #3d3d3d; stroke-width: 1.5; stroke-linecap: round"/>
    <g clip-path="url(#p0b40a4b5d3)">
     <use xlink:href="#mdb7d34da0b" x="459.9625" y="95.72605" style="fill: #ffffff; stroke: #ffffff; stroke-width: 0.9"/>
    </g>
   </g>
   <g id="line2d_19">
    <path d="M 571.5625 120.910113 
L 571.5625 92.398608 
" clip-path="url(#p0b40a4b5d3)" style="fill: none; stroke: #3d3d3d; stroke-width: 1.5; stroke-linecap: round"/>
   </g>
   <g id="line2d_20">
    <path d="M 571.5625 106.199529 
L 571.5625 94.80179 
" clip-path="url(#p0b40a4b5d3)" style="fill: none; stroke: #3d3d3d; stroke-width: 4.5; stroke-linecap: round"/>
   </g>
   <g id="line2d_21">
    <path d="M 571.5625 98.354389 
" clip-path="url(#p0b40a4b5d3)" style="fill: none; stroke: #3d3d3d; stroke-width: 1.5; stroke-linecap: round"/>
    <g clip-path="url(#p0b40a4b5d3)">
     <use xlink:href="#mdb7d34da0b" x="571.5625" y="98.354389" style="fill: #ffffff; stroke: #ffffff; stroke-width: 0.9"/>
    </g>
   </g>
   <g id="line2d_22">
    <path d="M 638.5225 91.610538 
L 727.8025 91.610538 
" clip-path="url(#p0b40a4b5d3)" style="fill: none; stroke: #3d3d3d; stroke-linecap: round"/>
   </g>
   <g id="line2d_23">
    <path d="M 794.7625 102.85417 
L 794.7625 91.992521 
" clip-path="url(#p0b40a4b5d3)" style="fill: none; stroke: #3d3d3d; stroke-width: 1.5; stroke-linecap: round"/>
   </g>
   <g id="line2d_24">
    <path d="M 794.7625 98.164162 
L 794.7625 93.032533 
" clip-path="url(#p0b40a4b5d3)" style="fill: none; stroke: #3d3d3d; stroke-width: 4.5; stroke-linecap: round"/>
   </g>
   <g id="line2d_25">
    <path d="M 794.7625 94.566752 
" clip-path="url(#p0b40a4b5d3)" style="fill: none; stroke: #3d3d3d; stroke-width: 1.5; stroke-linecap: round"/>
    <g clip-path="url(#p0b40a4b5d3)">
     <use xlink:href="#mdb7d34da0b" x="794.7625" y="94.566752" style="fill: #ffffff; stroke: #ffffff; stroke-width: 0.9"/>
    </g>
   </g>
   <g id="patch_3">
    <path d="M 69.3625 561.6 
L 850.5625 561.6 
" style="fill: none; stroke: #cccccc; stroke-width: 0.8; stroke-linejoin: miter; stroke-linecap: square"/>
   </g>
  </g>
 </g>
 <defs>
  <clipPath id="p0b40a4b5d3">
   <rect x="69.3625" y="7.2" width="781.2" height="554.4"/>
  </clipPath>
 </defs>
</svg>
