<?xml version="1.0" encoding="utf-8" standalone="no"?>
<!DOCTYPE svg PUBLIC "-//W3C//DTD SVG 1.1//EN"
  "http://www.w3.org/Graphics/SVG/1.1/DTD/svg11.dtd">
<svg xmlns:xlink="http://www.w3.org/1999/xlink" width="864.689971pt" height="722.183991pt" viewBox="0 0 864.689971 722.183991" xmlns="http://www.w3.org/2000/svg" version="1.1">
 <metadata>
  <rdf:RDF xmlns:dc="http://purl.org/dc/elements/1.1/" xmlns:cc="http://creativecommons.org/ns#" xmlns:rdf="http://www.w3.org/1999/02/22-rdf-syntax-ns#">
   <cc:Work>
    <dc:type rdf:resource="http://purl.org/dc/dcmitype/StillImage"/>
    <dc:date>2024-03-13T13:39:56.764549</dc:date>
    <dc:format>image/svg+xml</dc:format>
    <dc:creator>
     <cc:Agent>
      <dc:title>Matplotlib v3.8.0, https://matplotlib.org/</dc:title>
     </cc:Agent>
    </dc:creator>
   </cc:Work>
  </rdf:RDF>
 </metadata>
 <defs>
  <style type="text/css">*{stroke-linejoin: round; stroke-linecap: butt}</style>
 </defs>
 <g id="figure_1">
  <g id="patch_1">
   <path d="M 0 722.183991 
L 864.689971 722.183991 
L 864.689971 0 
L 0 0 
L 0 722.183991 
z
" style="fill: none"/>
  </g>
  <g id="axes_1">
   <g id="patch_2">
    <path d="M 76.289971 561.6 
L 857.489971 561.6 
L 857.489971 7.2 
L 76.289971 7.2 
L 76.289971 561.6 
z
" style="fill: none"/>
   </g>
   <g id="matplotlib.axis_1">
    <g id="xtick_1">
     <g id="text_1">
      <!-- Template Beta -->
      <g style="fill: #262626" transform="translate(17.945813 680.985784) rotate(-45) scale(0.2 -0.2)">
       <defs>
        <path id="DejaVuSans-54" d="M -19 4666 
L 3928 4666 
L 3928 4134 
L 2272 4134 
L 2272 0 
L 1638 0 
L 1638 4134 
L -19 4134 
L -19 4666 
z
" transform="scale(0.015625)"/>
        <path id="DejaVuSans-65" d="M 3597 1894 
L 3597 1613 
L 953 1613 
Q 991 1019 1311 708 
Q 1631 397 2203 397 
Q 2534 397 2845 478 
Q 3156 559 3463 722 
L 3463 178 
Q 3153 47 2828 -22 
Q 2503 -91 2169 -91 
Q 1331 -91 842 396 
Q 353 884 353 1716 
Q 353 2575 817 3079 
Q 1281 3584 2069 3584 
Q 2775 3584 3186 3129 
Q 3597 2675 3597 1894 
z
M 3022 2063 
Q 3016 2534 2758 2815 
Q 2500 3097 2075 3097 
Q 1594 3097 1305 2825 
Q 1016 2553 972 2059 
L 3022 2063 
z
" transform="scale(0.015625)"/>
        <path id="DejaVuSans-6d" d="M 3328 2828 
Q 3544 3216 3844 3400 
Q 4144 3584 4550 3584 
Q 5097 3584 5394 3201 
Q 5691 2819 5691 2113 
L 5691 0 
L 5113 0 
L 5113 2094 
Q 5113 2597 4934 2840 
Q 4756 3084 4391 3084 
Q 3944 3084 3684 2787 
Q 3425 2491 3425 1978 
L 3425 0 
L 2847 0 
L 2847 2094 
Q 2847 2600 2669 2842 
Q 2491 3084 2119 3084 
Q 1678 3084 1418 2786 
Q 1159 2488 1159 1978 
L 1159 0 
L 581 0 
L 581 3500 
L 1159 3500 
L 1159 2956 
Q 1356 3278 1631 3431 
Q 1906 3584 2284 3584 
Q 2666 3584 2933 3390 
Q 3200 3197 3328 2828 
z
" transform="scale(0.015625)"/>
        <path id="DejaVuSans-70" d="M 1159 525 
L 1159 -1331 
L 581 -1331 
L 581 3500 
L 1159 3500 
L 1159 2969 
Q 1341 3281 1617 3432 
Q 1894 3584 2278 3584 
Q 2916 3584 3314 3078 
Q 3713 2572 3713 1747 
Q 3713 922 3314 415 
Q 2916 -91 2278 -91 
Q 1894 -91 1617 61 
Q 1341 213 1159 525 
z
M 3116 1747 
Q 3116 2381 2855 2742 
Q 2594 3103 2138 3103 
Q 1681 3103 1420 2742 
Q 1159 2381 1159 1747 
Q 1159 1113 1420 752 
Q 1681 391 2138 391 
Q 2594 391 2855 752 
Q 3116 1113 3116 1747 
z
" transform="scale(0.015625)"/>
        <path id="DejaVuSans-6c" d="M 603 4863 
L 1178 4863 
L 1178 0 
L 603 0 
L 603 4863 
z
" transform="scale(0.015625)"/>
        <path id="DejaVuSans-61" d="M 2194 1759 
Q 1497 1759 1228 1600 
Q 959 1441 959 1056 
Q 959 750 1161 570 
Q 1363 391 1709 391 
Q 2188 391 2477 730 
Q 2766 1069 2766 1631 
L 2766 1759 
L 2194 1759 
z
M 3341 1997 
L 3341 0 
L 2766 0 
L 2766 531 
Q 2569 213 2275 61 
Q 1981 -91 1556 -91 
Q 1019 -91 701 211 
Q 384 513 384 1019 
Q 384 1609 779 1909 
Q 1175 2209 1959 2209 
L 2766 2209 
L 2766 2266 
Q 2766 2663 2505 2880 
Q 2244 3097 1772 3097 
Q 1472 3097 1187 3025 
Q 903 2953 641 2809 
L 641 3341 
Q 956 3463 1253 3523 
Q 1550 3584 1831 3584 
Q 2591 3584 2966 3190 
Q 3341 2797 3341 1997 
z
" transform="scale(0.015625)"/>
        <path id="DejaVuSans-74" d="M 1172 4494 
L 1172 3500 
L 2356 3500 
L 2356 3053 
L 1172 3053 
L 1172 1153 
Q 1172 725 1289 603 
Q 1406 481 1766 481 
L 2356 481 
L 2356 0 
L 1766 0 
Q 1100 0 847 248 
Q 594 497 594 1153 
L 594 3053 
L 172 3053 
L 172 3500 
L 594 3500 
L 594 4494 
L 1172 4494 
z
" transform="scale(0.015625)"/>
        <path id="DejaVuSans-20" transform="scale(0.015625)"/>
        <path id="DejaVuSans-42" d="M 1259 2228 
L 1259 519 
L 2272 519 
Q 2781 519 3026 730 
Q 3272 941 3272 1375 
Q 3272 1813 3026 2020 
Q 2781 2228 2272 2228 
L 1259 2228 
z
M 1259 4147 
L 1259 2741 
L 2194 2741 
Q 2656 2741 2882 2914 
Q 3109 3088 3109 3444 
Q 3109 3797 2882 3972 
Q 2656 4147 2194 4147 
L 1259 4147 
z
M 628 4666 
L 2241 4666 
Q 2963 4666 3353 4366 
Q 3744 4066 3744 3513 
Q 3744 3084 3544 2831 
Q 3344 2578 2956 2516 
Q 3422 2416 3680 2098 
Q 3938 1781 3938 1306 
Q 3938 681 3513 340 
Q 3088 0 2303 0 
L 628 0 
L 628 4666 
z
" transform="scale(0.015625)"/>
       </defs>
       <use xlink:href="#DejaVuSans-54"/>
       <use xlink:href="#DejaVuSans-65" x="44.083984"/>
       <use xlink:href="#DejaVuSans-6d" x="105.607422"/>
       <use xlink:href="#DejaVuSans-70" x="203.019531"/>
       <use xlink:href="#DejaVuSans-6c" x="266.496094"/>
       <use xlink:href="#DejaVuSans-61" x="294.279297"/>
       <use xlink:href="#DejaVuSans-74" x="355.558594"/>
       <use xlink:href="#DejaVuSans-65" x="394.767578"/>
       <use xlink:href="#DejaVuSans-20" x="456.291016"/>
       <use xlink:href="#DejaVuSans-42" x="488.078125"/>
       <use xlink:href="#DejaVuSans-65" x="556.681641"/>
       <use xlink:href="#DejaVuSans-74" x="618.205078"/>
       <use xlink:href="#DejaVuSans-61" x="657.414062"/>
      </g>
     </g>
    </g>
    <g id="xtick_2">
     <g id="text_2">
      <!-- MSA -->
      <g style="fill: #262626" transform="translate(153.566457 610.465141) rotate(-45) scale(0.2 -0.2)">
       <defs>
        <path id="DejaVuSans-4d" d="M 628 4666 
L 1569 4666 
L 2759 1491 
L 3956 4666 
L 4897 4666 
L 4897 0 
L 4281 0 
L 4281 4097 
L 3078 897 
L 2444 897 
L 1241 4097 
L 1241 0 
L 628 0 
L 628 4666 
z
" transform="scale(0.015625)"/>
        <path id="DejaVuSans-53" d="M 3425 4513 
L 3425 3897 
Q 3066 4069 2747 4153 
Q 2428 4238 2131 4238 
Q 1616 4238 1336 4038 
Q 1056 3838 1056 3469 
Q 1056 3159 1242 3001 
Q 1428 2844 1947 2747 
L 2328 2669 
Q 3034 2534 3370 2195 
Q 3706 1856 3706 1288 
Q 3706 609 3251 259 
Q 2797 -91 1919 -91 
Q 1588 -91 1214 -16 
Q 841 59 441 206 
L 441 856 
Q 825 641 1194 531 
Q 1563 422 1919 422 
Q 2459 422 2753 634 
Q 3047 847 3047 1241 
Q 3047 1584 2836 1778 
Q 2625 1972 2144 2069 
L 1759 2144 
Q 1053 2284 737 2584 
Q 422 2884 422 3419 
Q 422 4038 858 4394 
Q 1294 4750 2059 4750 
Q 2388 4750 2728 4690 
Q 3069 4631 3425 4513 
z
" transform="scale(0.015625)"/>
        <path id="DejaVuSans-41" d="M 2188 4044 
L 1331 1722 
L 3047 1722 
L 2188 4044 
z
M 1831 4666 
L 2547 4666 
L 4325 0 
L 3669 0 
L 3244 1197 
L 1141 1197 
L 716 0 
L 50 0 
L 1831 4666 
z
" transform="scale(0.015625)"/>
       </defs>
       <use xlink:href="#DejaVuSans-4d"/>
       <use xlink:href="#DejaVuSans-53" x="86.279297"/>
       <use xlink:href="#DejaVuSans-41" x="151.630859"/>
      </g>
     </g>
    </g>
    <g id="xtick_3">
     <g id="text_3">
      <!-- AttnPacker -->
      <g style="fill: #262626" transform="translate(173.782854 655.348744) rotate(-45) scale(0.2 -0.2)">
       <defs>
        <path id="DejaVuSans-6e" d="M 3513 2113 
L 3513 0 
L 2938 0 
L 2938 2094 
Q 2938 2591 2744 2837 
Q 2550 3084 2163 3084 
Q 1697 3084 1428 2787 
Q 1159 2491 1159 1978 
L 1159 0 
L 581 0 
L 581 3500 
L 1159 3500 
L 1159 2956 
Q 1366 3272 1645 3428 
Q 1925 3584 2291 3584 
Q 2894 3584 3203 3211 
Q 3513 2838 3513 2113 
z
" transform="scale(0.015625)"/>
        <path id="DejaVuSans-50" d="M 1259 4147 
L 1259 2394 
L 2053 2394 
Q 2494 2394 2734 2622 
Q 2975 2850 2975 3272 
Q 2975 3691 2734 3919 
Q 2494 4147 2053 4147 
L 1259 4147 
z
M 628 4666 
L 2053 4666 
Q 2838 4666 3239 4311 
Q 3641 3956 3641 3272 
Q 3641 2581 3239 2228 
Q 2838 1875 2053 1875 
L 1259 1875 
L 1259 0 
L 628 0 
L 628 4666 
z
" transform="scale(0.015625)"/>
        <path id="DejaVuSans-63" d="M 3122 3366 
L 3122 2828 
Q 2878 2963 2633 3030 
Q 2388 3097 2138 3097 
Q 1578 3097 1268 2742 
Q 959 2388 959 1747 
Q 959 1106 1268 751 
Q 1578 397 2138 397 
Q 2388 397 2633 464 
Q 2878 531 3122 666 
L 3122 134 
Q 2881 22 2623 -34 
Q 2366 -91 2075 -91 
Q 1284 -91 818 406 
Q 353 903 353 1747 
Q 353 2603 823 3093 
Q 1294 3584 2113 3584 
Q 2378 3584 2631 3529 
Q 2884 3475 3122 3366 
z
" transform="scale(0.015625)"/>
        <path id="DejaVuSans-6b" d="M 581 4863 
L 1159 4863 
L 1159 1991 
L 2875 3500 
L 3609 3500 
L 1753 1863 
L 3688 0 
L 2938 0 
L 1159 1709 
L 1159 0 
L 581 0 
L 581 4863 
z
" transform="scale(0.015625)"/>
        <path id="DejaVuSans-72" d="M 2631 2963 
Q 2534 3019 2420 3045 
Q 2306 3072 2169 3072 
Q 1681 3072 1420 2755 
Q 1159 2438 1159 1844 
L 1159 0 
L 581 0 
L 581 3500 
L 1159 3500 
L 1159 2956 
Q 1341 3275 1631 3429 
Q 1922 3584 2338 3584 
Q 2397 3584 2469 3576 
Q 2541 3569 2628 3553 
L 2631 2963 
z
" transform="scale(0.015625)"/>
       </defs>
       <use xlink:href="#DejaVuSans-41"/>
       <use xlink:href="#DejaVuSans-74" x="66.658203"/>
       <use xlink:href="#DejaVuSans-74" x="105.867188"/>
       <use xlink:href="#DejaVuSans-6e" x="145.076172"/>
       <use xlink:href="#DejaVuSans-50" x="208.455078"/>
       <use xlink:href="#DejaVuSans-61" x="264.257812"/>
       <use xlink:href="#DejaVuSans-63" x="325.537109"/>
       <use xlink:href="#DejaVuSans-6b" x="380.517578"/>
       <use xlink:href="#DejaVuSans-65" x="434.802734"/>
       <use xlink:href="#DejaVuSans-72" x="496.326172"/>
      </g>
     </g>
    </g>
    <g id="xtick_4">
     <g id="text_4">
      <!-- AttnPacker (AF) -->
      <g style="fill: #262626" transform="translate(205.544979 688.686619) rotate(-45) scale(0.2 -0.2)">
       <defs>
        <path id="DejaVuSans-28" d="M 1984 4856 
Q 1566 4138 1362 3434 
Q 1159 2731 1159 2009 
Q 1159 1288 1364 580 
Q 1569 -128 1984 -844 
L 1484 -844 
Q 1016 -109 783 600 
Q 550 1309 550 2009 
Q 550 2706 781 3412 
Q 1013 4119 1484 4856 
L 1984 4856 
z
" transform="scale(0.015625)"/>
        <path id="DejaVuSans-46" d="M 628 4666 
L 3309 4666 
L 3309 4134 
L 1259 4134 
L 1259 2759 
L 3109 2759 
L 3109 2228 
L 1259 2228 
L 1259 0 
L 628 0 
L 628 4666 
z
" transform="scale(0.015625)"/>
        <path id="DejaVuSans-29" d="M 513 4856 
L 1013 4856 
Q 1481 4119 1714 3412 
Q 1947 2706 1947 2009 
Q 1947 1309 1714 600 
Q 1481 -109 1013 -844 
L 513 -844 
Q 928 -128 1133 580 
Q 1338 1288 1338 2009 
Q 1338 2731 1133 3434 
Q 928 4138 513 4856 
z
" transform="scale(0.015625)"/>
       </defs>
       <use xlink:href="#DejaVuSans-41"/>
       <use xlink:href="#DejaVuSans-74" x="66.658203"/>
       <use xlink:href="#DejaVuSans-74" x="105.867188"/>
       <use xlink:href="#DejaVuSans-6e" x="145.076172"/>
       <use xlink:href="#DejaVuSans-50" x="208.455078"/>
       <use xlink:href="#DejaVuSans-61" x="264.257812"/>
       <use xlink:href="#DejaVuSans-63" x="325.537109"/>
       <use xlink:href="#DejaVuSans-6b" x="380.517578"/>
       <use xlink:href="#DejaVuSans-65" x="434.802734"/>
       <use xlink:href="#DejaVuSans-72" x="496.326172"/>
       <use xlink:href="#DejaVuSans-20" x="537.439453"/>
       <use xlink:href="#DejaVuSans-28" x="569.226562"/>
       <use xlink:href="#DejaVuSans-41" x="608.240234"/>
       <use xlink:href="#DejaVuSans-46" x="676.648438"/>
       <use xlink:href="#DejaVuSans-29" x="734.167969"/>
      </g>
     </g>
    </g>
    <g id="xtick_5">
     <g id="text_5">
      <!-- Backbone -->
      <g style="fill: #262626" transform="translate(310.355653 648.975944) rotate(-45) scale(0.2 -0.2)">
       <defs>
        <path id="DejaVuSans-62" d="M 3116 1747 
Q 3116 2381 2855 2742 
Q 2594 3103 2138 3103 
Q 1681 3103 1420 2742 
Q 1159 2381 1159 1747 
Q 1159 1113 1420 752 
Q 1681 391 2138 391 
Q 2594 391 2855 752 
Q 3116 1113 3116 1747 
z
M 1159 2969 
Q 1341 3281 1617 3432 
Q 1894 3584 2278 3584 
Q 2916 3584 3314 3078 
Q 3713 2572 3713 1747 
Q 3713 922 3314 415 
Q 2916 -91 2278 -91 
Q 1894 -91 1617 61 
Q 1341 213 1159 525 
L 1159 0 
L 581 0 
L 581 4863 
L 1159 4863 
L 1159 2969 
z
" transform="scale(0.015625)"/>
        <path id="DejaVuSans-6f" d="M 1959 3097 
Q 1497 3097 1228 2736 
Q 959 2375 959 1747 
Q 959 1119 1226 758 
Q 1494 397 1959 397 
Q 2419 397 2687 759 
Q 2956 1122 2956 1747 
Q 2956 2369 2687 2733 
Q 2419 3097 1959 3097 
z
M 1959 3584 
Q 2709 3584 3137 3096 
Q 3566 2609 3566 1747 
Q 3566 888 3137 398 
Q 2709 -91 1959 -91 
Q 1206 -91 779 398 
Q 353 888 353 1747 
Q 353 2609 779 3096 
Q 1206 3584 1959 3584 
z
" transform="scale(0.015625)"/>
       </defs>
       <use xlink:href="#DejaVuSans-42"/>
       <use xlink:href="#DejaVuSans-61" x="68.603516"/>
       <use xlink:href="#DejaVuSans-63" x="129.882812"/>
       <use xlink:href="#DejaVuSans-6b" x="184.863281"/>
       <use xlink:href="#DejaVuSans-62" x="242.773438"/>
       <use xlink:href="#DejaVuSans-6f" x="306.25"/>
       <use xlink:href="#DejaVuSans-6e" x="367.431641"/>
       <use xlink:href="#DejaVuSans-65" x="430.810547"/>
      </g>
     </g>
    </g>
    <g id="xtick_6">
     <g id="text_6">
      <!-- C36 -->
      <g style="fill: #262626" transform="translate(417.214728 607.216869) rotate(-45) scale(0.2 -0.2)">
       <defs>
        <path id="DejaVuSans-43" d="M 4122 4306 
L 4122 3641 
Q 3803 3938 3442 4084 
Q 3081 4231 2675 4231 
Q 1875 4231 1450 3742 
Q 1025 3253 1025 2328 
Q 1025 1406 1450 917 
Q 1875 428 2675 428 
Q 3081 428 3442 575 
Q 3803 722 4122 1019 
L 4122 359 
Q 3791 134 3420 21 
Q 3050 -91 2638 -91 
Q 1578 -91 968 557 
Q 359 1206 359 2328 
Q 359 3453 968 4101 
Q 1578 4750 2638 4750 
Q 3056 4750 3426 4639 
Q 3797 4528 4122 4306 
z
" transform="scale(0.015625)"/>
        <path id="DejaVuSans-33" d="M 2597 2516 
Q 3050 2419 3304 2112 
Q 3559 1806 3559 1356 
Q 3559 666 3084 287 
Q 2609 -91 1734 -91 
Q 1441 -91 1130 -33 
Q 819 25 488 141 
L 488 750 
Q 750 597 1062 519 
Q 1375 441 1716 441 
Q 2309 441 2620 675 
Q 2931 909 2931 1356 
Q 2931 1769 2642 2001 
Q 2353 2234 1838 2234 
L 1294 2234 
L 1294 2753 
L 1863 2753 
Q 2328 2753 2575 2939 
Q 2822 3125 2822 3475 
Q 2822 3834 2567 4026 
Q 2313 4219 1838 4219 
Q 1578 4219 1281 4162 
Q 984 4106 628 3988 
L 628 4550 
Q 988 4650 1302 4700 
Q 1616 4750 1894 4750 
Q 2613 4750 3031 4423 
Q 3450 4097 3450 3541 
Q 3450 3153 3228 2886 
Q 3006 2619 2597 2516 
z
" transform="scale(0.015625)"/>
        <path id="DejaVuSans-36" d="M 2113 2584 
Q 1688 2584 1439 2293 
Q 1191 2003 1191 1497 
Q 1191 994 1439 701 
Q 1688 409 2113 409 
Q 2538 409 2786 701 
Q 3034 994 3034 1497 
Q 3034 2003 2786 2293 
Q 2538 2584 2113 2584 
z
M 3366 4563 
L 3366 3988 
Q 3128 4100 2886 4159 
Q 2644 4219 2406 4219 
Q 1781 4219 1451 3797 
Q 1122 3375 1075 2522 
Q 1259 2794 1537 2939 
Q 1816 3084 2150 3084 
Q 2853 3084 3261 2657 
Q 3669 2231 3669 1497 
Q 3669 778 3244 343 
Q 2819 -91 2113 -91 
Q 1303 -91 875 529 
Q 447 1150 447 2328 
Q 447 3434 972 4092 
Q 1497 4750 2381 4750 
Q 2619 4750 2861 4703 
Q 3103 4656 3366 4563 
z
" transform="scale(0.015625)"/>
       </defs>
       <use xlink:href="#DejaVuSans-43"/>
       <use xlink:href="#DejaVuSans-33" x="69.824219"/>
       <use xlink:href="#DejaVuSans-36" x="133.447266"/>
      </g>
     </g>
    </g>
    <g id="xtick_7">
     <g id="text_7">
      <!-- Dummy -->
      <g style="fill: #262626" transform="translate(454.412737 635.118861) rotate(-45) scale(0.2 -0.2)">
       <defs>
        <path id="DejaVuSans-44" d="M 1259 4147 
L 1259 519 
L 2022 519 
Q 2988 519 3436 956 
Q 3884 1394 3884 2338 
Q 3884 3275 3436 3711 
Q 2988 4147 2022 4147 
L 1259 4147 
z
M 628 4666 
L 1925 4666 
Q 3281 4666 3915 4102 
Q 4550 3538 4550 2338 
Q 4550 1131 3912 565 
Q 3275 0 1925 0 
L 628 0 
L 628 4666 
z
" transform="scale(0.015625)"/>
        <path id="DejaVuSans-75" d="M 544 1381 
L 544 3500 
L 1119 3500 
L 1119 1403 
Q 1119 906 1312 657 
Q 1506 409 1894 409 
Q 2359 409 2629 706 
Q 2900 1003 2900 1516 
L 2900 3500 
L 3475 3500 
L 3475 0 
L 2900 0 
L 2900 538 
Q 2691 219 2414 64 
Q 2138 -91 1772 -91 
Q 1169 -91 856 284 
Q 544 659 544 1381 
z
M 1991 3584 
L 1991 3584 
z
" transform="scale(0.015625)"/>
        <path id="DejaVuSans-79" d="M 2059 -325 
Q 1816 -950 1584 -1140 
Q 1353 -1331 966 -1331 
L 506 -1331 
L 506 -850 
L 844 -850 
Q 1081 -850 1212 -737 
Q 1344 -625 1503 -206 
L 1606 56 
L 191 3500 
L 800 3500 
L 1894 763 
L 2988 3500 
L 3597 3500 
L 2059 -325 
z
" transform="scale(0.015625)"/>
       </defs>
       <use xlink:href="#DejaVuSans-44"/>
       <use xlink:href="#DejaVuSans-75" x="77.001953"/>
       <use xlink:href="#DejaVuSans-6d" x="140.380859"/>
       <use xlink:href="#DejaVuSans-6d" x="237.792969"/>
       <use xlink:href="#DejaVuSans-79" x="335.205078"/>
      </g>
     </g>
    </g>
    <g id="xtick_8">
     <g id="text_8">
      <!-- Heuristic -->
      <g style="fill: #262626" transform="translate(512.627284 642.004313) rotate(-45) scale(0.2 -0.2)">
       <defs>
        <path id="DejaVuSans-48" d="M 628 4666 
L 1259 4666 
L 1259 2753 
L 3553 2753 
L 3553 4666 
L 4184 4666 
L 4184 0 
L 3553 0 
L 3553 2222 
L 1259 2222 
L 1259 0 
L 628 0 
L 628 4666 
z
" transform="scale(0.015625)"/>
        <path id="DejaVuSans-69" d="M 603 3500 
L 1178 3500 
L 1178 0 
L 603 0 
L 603 3500 
z
M 603 4863 
L 1178 4863 
L 1178 4134 
L 603 4134 
L 603 4863 
z
" transform="scale(0.015625)"/>
        <path id="DejaVuSans-73" d="M 2834 3397 
L 2834 2853 
Q 2591 2978 2328 3040 
Q 2066 3103 1784 3103 
Q 1356 3103 1142 2972 
Q 928 2841 928 2578 
Q 928 2378 1081 2264 
Q 1234 2150 1697 2047 
L 1894 2003 
Q 2506 1872 2764 1633 
Q 3022 1394 3022 966 
Q 3022 478 2636 193 
Q 2250 -91 1575 -91 
Q 1294 -91 989 -36 
Q 684 19 347 128 
L 347 722 
Q 666 556 975 473 
Q 1284 391 1588 391 
Q 1994 391 2212 530 
Q 2431 669 2431 922 
Q 2431 1156 2273 1281 
Q 2116 1406 1581 1522 
L 1381 1569 
Q 847 1681 609 1914 
Q 372 2147 372 2553 
Q 372 3047 722 3315 
Q 1072 3584 1716 3584 
Q 2034 3584 2315 3537 
Q 2597 3491 2834 3397 
z
" transform="scale(0.015625)"/>
       </defs>
       <use xlink:href="#DejaVuSans-48"/>
       <use xlink:href="#DejaVuSans-65" x="75.195312"/>
       <use xlink:href="#DejaVuSans-75" x="136.71875"/>
       <use xlink:href="#DejaVuSans-72" x="200.097656"/>
       <use xlink:href="#DejaVuSans-69" x="241.210938"/>
       <use xlink:href="#DejaVuSans-73" x="268.994141"/>
       <use xlink:href="#DejaVuSans-74" x="321.09375"/>
       <use xlink:href="#DejaVuSans-69" x="360.302734"/>
       <use xlink:href="#DejaVuSans-63" x="388.085938"/>
      </g>
     </g>
    </g>
    <g id="xtick_9">
     <g id="text_9">
      <!-- FASPR -->
      <g style="fill: #262626" transform="translate(596.536325 623.195273) rotate(-45) scale(0.2 -0.2)">
       <defs>
        <path id="DejaVuSans-52" d="M 2841 2188 
Q 3044 2119 3236 1894 
Q 3428 1669 3622 1275 
L 4263 0 
L 3584 0 
L 2988 1197 
Q 2756 1666 2539 1819 
Q 2322 1972 1947 1972 
L 1259 1972 
L 1259 0 
L 628 0 
L 628 4666 
L 2053 4666 
Q 2853 4666 3247 4331 
Q 3641 3997 3641 3322 
Q 3641 2881 3436 2590 
Q 3231 2300 2841 2188 
z
M 1259 4147 
L 1259 2491 
L 2053 2491 
Q 2509 2491 2742 2702 
Q 2975 2913 2975 3322 
Q 2975 3731 2742 3939 
Q 2509 4147 2053 4147 
L 1259 4147 
z
" transform="scale(0.015625)"/>
       </defs>
       <use xlink:href="#DejaVuSans-46"/>
       <use xlink:href="#DejaVuSans-41" x="48.394531"/>
       <use xlink:href="#DejaVuSans-53" x="116.802734"/>
       <use xlink:href="#DejaVuSans-50" x="180.279297"/>
       <use xlink:href="#DejaVuSans-52" x="240.582031"/>
      </g>
     </g>
    </g>
    <g id="xtick_10">
     <g id="text_10">
      <!-- FASPR (AF) -->
      <g style="fill: #262626" transform="translate(628.29845 656.533148) rotate(-45) scale(0.2 -0.2)">
       <use xlink:href="#DejaVuSans-46"/>
       <use xlink:href="#DejaVuSans-41" x="48.394531"/>
       <use xlink:href="#DejaVuSans-53" x="116.802734"/>
       <use xlink:href="#DejaVuSans-50" x="180.279297"/>
       <use xlink:href="#DejaVuSans-52" x="240.582031"/>
       <use xlink:href="#DejaVuSans-20" x="310.064453"/>
       <use xlink:href="#DejaVuSans-28" x="341.851562"/>
       <use xlink:href="#DejaVuSans-41" x="380.865234"/>
       <use xlink:href="#DejaVuSans-46" x="449.273438"/>
       <use xlink:href="#DejaVuSans-29" x="506.792969"/>
      </g>
     </g>
    </g>
    <g id="xtick_11">
     <g id="text_11">
      <!-- C36 (AF) -->
      <g style="fill: #262626" transform="translate(709.376853 640.554744) rotate(-45) scale(0.2 -0.2)">
       <use xlink:href="#DejaVuSans-43"/>
       <use xlink:href="#DejaVuSans-33" x="69.824219"/>
       <use xlink:href="#DejaVuSans-36" x="133.447266"/>
       <use xlink:href="#DejaVuSans-20" x="197.070312"/>
       <use xlink:href="#DejaVuSans-28" x="228.857422"/>
       <use xlink:href="#DejaVuSans-41" x="267.871094"/>
       <use xlink:href="#DejaVuSans-46" x="336.279297"/>
       <use xlink:href="#DejaVuSans-29" x="393.798828"/>
      </g>
     </g>
    </g>
    <g id="xtick_12">
     <g id="text_12">
      <!-- Template (AF) -->
      <g style="fill: #262626" transform="translate(737.817786 677.213811) rotate(-45) scale(0.2 -0.2)">
       <use xlink:href="#DejaVuSans-54"/>
       <use xlink:href="#DejaVuSans-65" x="44.083984"/>
       <use xlink:href="#DejaVuSans-6d" x="105.607422"/>
       <use xlink:href="#DejaVuSans-70" x="203.019531"/>
       <use xlink:href="#DejaVuSans-6c" x="266.496094"/>
       <use xlink:href="#DejaVuSans-61" x="294.279297"/>
       <use xlink:href="#DejaVuSans-74" x="355.558594"/>
       <use xlink:href="#DejaVuSans-65" x="394.767578"/>
       <use xlink:href="#DejaVuSans-20" x="456.291016"/>
       <use xlink:href="#DejaVuSans-28" x="488.078125"/>
       <use xlink:href="#DejaVuSans-41" x="527.091797"/>
       <use xlink:href="#DejaVuSans-46" x="595.5"/>
       <use xlink:href="#DejaVuSans-29" x="653.019531"/>
      </g>
     </g>
    </g>
    <g id="text_13">
     <!-- Method -->
     <g style="fill: #262626" transform="translate(429.383721 710.824616) scale(0.2 -0.2)">
      <defs>
       <path id="DejaVuSans-68" d="M 3513 2113 
L 3513 0 
L 2938 0 
L 2938 2094 
Q 2938 2591 2744 2837 
Q 2550 3084 2163 3084 
Q 1697 3084 1428 2787 
Q 1159 2491 1159 1978 
L 1159 0 
L 581 0 
L 581 4863 
L 1159 4863 
L 1159 2956 
Q 1366 3272 1645 3428 
Q 1925 3584 2291 3584 
Q 2894 3584 3203 3211 
Q 3513 2838 3513 2113 
z
" transform="scale(0.015625)"/>
       <path id="DejaVuSans-64" d="M 2906 2969 
L 2906 4863 
L 3481 4863 
L 3481 0 
L 2906 0 
L 2906 525 
Q 2725 213 2448 61 
Q 2172 -91 1784 -91 
Q 1150 -91 751 415 
Q 353 922 353 1747 
Q 353 2572 751 3078 
Q 1150 3584 1784 3584 
Q 2172 3584 2448 3432 
Q 2725 3281 2906 2969 
z
M 947 1747 
Q 947 1113 1208 752 
Q 1469 391 1925 391 
Q 2381 391 2643 752 
Q 2906 1113 2906 1747 
Q 2906 2381 2643 2742 
Q 2381 3103 1925 3103 
Q 1469 3103 1208 2742 
Q 947 2381 947 1747 
z
" transform="scale(0.015625)"/>
      </defs>
      <use xlink:href="#DejaVuSans-4d"/>
      <use xlink:href="#DejaVuSans-65" x="86.279297"/>
      <use xlink:href="#DejaVuSans-74" x="147.802734"/>
      <use xlink:href="#DejaVuSans-68" x="187.011719"/>
      <use xlink:href="#DejaVuSans-6f" x="250.390625"/>
      <use xlink:href="#DejaVuSans-64" x="311.572266"/>
     </g>
    </g>
   </g>
   <g id="matplotlib.axis_2">
    <g id="ytick_1">
     <g id="line2d_1">
      <path d="M 76.289971 536.4 
L 857.489971 536.4 
" clip-path="url(#p250517539c)" style="fill: none; stroke: #cccccc; stroke-width: 0.8; stroke-linecap: round"/>
     </g>
     <g id="text_14">
      <!-- 0 -->
      <g style="fill: #262626" transform="translate(56.564971 543.998437) scale(0.2 -0.2)">
       <defs>
        <path id="DejaVuSans-30" d="M 2034 4250 
Q 1547 4250 1301 3770 
Q 1056 3291 1056 2328 
Q 1056 1369 1301 889 
Q 1547 409 2034 409 
Q 2525 409 2770 889 
Q 3016 1369 3016 2328 
Q 3016 3291 2770 3770 
Q 2525 4250 2034 4250 
z
M 2034 4750 
Q 2819 4750 3233 4129 
Q 3647 3509 3647 2328 
Q 3647 1150 3233 529 
Q 2819 -91 2034 -91 
Q 1250 -91 836 529 
Q 422 1150 422 2328 
Q 422 3509 836 4129 
Q 1250 4750 2034 4750 
z
" transform="scale(0.015625)"/>
       </defs>
       <use xlink:href="#DejaVuSans-30"/>
      </g>
     </g>
    </g>
    <g id="ytick_2">
     <g id="line2d_2">
      <path d="M 76.289971 445.081873 
L 857.489971 445.081873 
" clip-path="url(#p250517539c)" style="fill: none; stroke: #cccccc; stroke-width: 0.8; stroke-linecap: round"/>
     </g>
     <g id="text_15">
      <!-- 20 -->
      <g style="fill: #262626" transform="translate(43.839971 452.68031) scale(0.2 -0.2)">
       <defs>
        <path id="DejaVuSans-32" d="M 1228 531 
L 3431 531 
L 3431 0 
L 469 0 
L 469 531 
Q 828 903 1448 1529 
Q 2069 2156 2228 2338 
Q 2531 2678 2651 2914 
Q 2772 3150 2772 3378 
Q 2772 3750 2511 3984 
Q 2250 4219 1831 4219 
Q 1534 4219 1204 4116 
Q 875 4013 500 3803 
L 500 4441 
Q 881 4594 1212 4672 
Q 1544 4750 1819 4750 
Q 2544 4750 2975 4387 
Q 3406 4025 3406 3419 
Q 3406 3131 3298 2873 
Q 3191 2616 2906 2266 
Q 2828 2175 2409 1742 
Q 1991 1309 1228 531 
z
" transform="scale(0.015625)"/>
       </defs>
       <use xlink:href="#DejaVuSans-32"/>
       <use xlink:href="#DejaVuSans-30" x="63.623047"/>
      </g>
     </g>
    </g>
    <g id="ytick_3">
     <g id="line2d_3">
      <path d="M 76.289971 353.763746 
L 857.489971 353.763746 
" clip-path="url(#p250517539c)" style="fill: none; stroke: #cccccc; stroke-width: 0.8; stroke-linecap: round"/>
     </g>
     <g id="text_16">
      <!-- 40 -->
      <g style="fill: #262626" transform="translate(43.839971 361.362183) scale(0.2 -0.2)">
       <defs>
        <path id="DejaVuSans-34" d="M 2419 4116 
L 825 1625 
L 2419 1625 
L 2419 4116 
z
M 2253 4666 
L 3047 4666 
L 3047 1625 
L 3713 1625 
L 3713 1100 
L 3047 1100 
L 3047 0 
L 2419 0 
L 2419 1100 
L 313 1100 
L 313 1709 
L 2253 4666 
z
" transform="scale(0.015625)"/>
       </defs>
       <use xlink:href="#DejaVuSans-34"/>
       <use xlink:href="#DejaVuSans-30" x="63.623047"/>
      </g>
     </g>
    </g>
    <g id="ytick_4">
     <g id="line2d_4">
      <path d="M 76.289971 262.445618 
L 857.489971 262.445618 
" clip-path="url(#p250517539c)" style="fill: none; stroke: #cccccc; stroke-width: 0.8; stroke-linecap: round"/>
     </g>
     <g id="text_17">
      <!-- 60 -->
      <g style="fill: #262626" transform="translate(43.839971 270.044056) scale(0.2 -0.2)">
       <use xlink:href="#DejaVuSans-36"/>
       <use xlink:href="#DejaVuSans-30" x="63.623047"/>
      </g>
     </g>
    </g>
    <g id="ytick_5">
     <g id="line2d_5">
      <path d="M 76.289971 171.127491 
L 857.489971 171.127491 
" clip-path="url(#p250517539c)" style="fill: none; stroke: #cccccc; stroke-width: 0.8; stroke-linecap: round"/>
     </g>
     <g id="text_18">
      <!-- 80 -->
      <g style="fill: #262626" transform="translate(43.839971 178.725929) scale(0.2 -0.2)">
       <defs>
        <path id="DejaVuSans-38" d="M 2034 2216 
Q 1584 2216 1326 1975 
Q 1069 1734 1069 1313 
Q 1069 891 1326 650 
Q 1584 409 2034 409 
Q 2484 409 2743 651 
Q 3003 894 3003 1313 
Q 3003 1734 2745 1975 
Q 2488 2216 2034 2216 
z
M 1403 2484 
Q 997 2584 770 2862 
Q 544 3141 544 3541 
Q 544 4100 942 4425 
Q 1341 4750 2034 4750 
Q 2731 4750 3128 4425 
Q 3525 4100 3525 3541 
Q 3525 3141 3298 2862 
Q 3072 2584 2669 2484 
Q 3125 2378 3379 2068 
Q 3634 1759 3634 1313 
Q 3634 634 3220 271 
Q 2806 -91 2034 -91 
Q 1263 -91 848 271 
Q 434 634 434 1313 
Q 434 1759 690 2068 
Q 947 2378 1403 2484 
z
M 1172 3481 
Q 1172 3119 1398 2916 
Q 1625 2713 2034 2713 
Q 2441 2713 2670 2916 
Q 2900 3119 2900 3481 
Q 2900 3844 2670 4047 
Q 2441 4250 2034 4250 
Q 1625 4250 1398 4047 
Q 1172 3844 1172 3481 
z
" transform="scale(0.015625)"/>
       </defs>
       <use xlink:href="#DejaVuSans-38"/>
       <use xlink:href="#DejaVuSans-30" x="63.623047"/>
      </g>
     </g>
    </g>
    <g id="ytick_6">
     <g id="line2d_6">
      <path d="M 76.289971 79.809364 
L 857.489971 79.809364 
" clip-path="url(#p250517539c)" style="fill: none; stroke: #cccccc; stroke-width: 0.8; stroke-linecap: round"/>
     </g>
     <g id="text_19">
      <!-- 100 -->
      <g style="fill: #262626" transform="translate(31.114971 87.407801) scale(0.2 -0.2)">
       <defs>
        <path id="DejaVuSans-31" d="M 794 531 
L 1825 531 
L 1825 4091 
L 703 3866 
L 703 4441 
L 1819 4666 
L 2450 4666 
L 2450 531 
L 3481 531 
L 3481 0 
L 794 0 
L 794 531 
z
" transform="scale(0.015625)"/>
       </defs>
       <use xlink:href="#DejaVuSans-31"/>
       <use xlink:href="#DejaVuSans-30" x="63.623047"/>
       <use xlink:href="#DejaVuSans-30" x="127.246094"/>
      </g>
     </g>
    </g>
    <g id="text_20">
     <!-- pLDDT -->
     <g style="fill: #262626" transform="translate(22.955596 317.828125) rotate(-90) scale(0.2 -0.2)">
      <defs>
       <path id="DejaVuSans-4c" d="M 628 4666 
L 1259 4666 
L 1259 531 
L 3531 531 
L 3531 0 
L 628 0 
L 628 4666 
z
" transform="scale(0.015625)"/>
      </defs>
      <use xlink:href="#DejaVuSans-70"/>
      <use xlink:href="#DejaVuSans-4c" x="63.476562"/>
      <use xlink:href="#DejaVuSans-44" x="119.189453"/>
      <use xlink:href="#DejaVuSans-44" x="196.191406"/>
      <use xlink:href="#DejaVuSans-54" x="273.193359"/>
     </g>
    </g>
   </g>
   <g id="PolyCollection_1">
    <defs>
     <path id="m00c09bc8d8" d="M 108.941889 -493.761811 
L 108.738053 -493.761811 
L 108.697041 -495.310813 
L 108.6457 -496.859815 
L 108.584049 -498.408818 
L 108.513212 -499.95782 
L 108.435601 -501.506822 
L 108.354932 -503.055824 
L 108.276009 -504.604826 
L 108.204281 -506.153828 
L 108.145191 -507.70283 
L 108.103432 -509.251832 
L 108.082208 -510.800834 
L 108.082663 -512.349836 
L 108.103582 -513.898838 
L 108.141422 -515.44784 
L 108.190696 -516.996842 
L 108.244635 -518.545844 
L 108.296025 -520.094846 
L 108.338098 -521.643848 
L 108.365351 -523.19285 
L 108.374191 -524.741852 
L 108.363327 -526.290855 
L 108.33389 -527.839857 
L 108.289237 -529.388859 
L 108.23448 -530.937861 
L 108.175772 -532.486863 
L 108.11944 -534.035865 
L 108.071067 -535.584867 
L 108.034679 -537.133869 
L 108.012172 -538.682871 
L 108.003099 -540.231873 
L 108.004875 -541.780875 
L 108.013386 -543.329877 
L 108.023884 -544.878879 
L 108.032006 -546.427881 
L 108.034697 -547.976883 
L 108.030835 -549.525885 
L 108.021439 -551.074887 
L 108.009385 -552.62389 
L 107.998703 -554.172892 
L 107.993589 -555.721894 
L 107.997342 -557.270896 
L 108.011429 -558.819898 
L 108.034837 -560.3689 
L 108.063828 -561.917902 
L 108.092072 -563.466904 
L 108.111087 -565.015906 
L 108.110824 -566.564908 
L 108.080256 -568.11391 
L 108.007816 -569.662912 
L 107.881632 -571.211914 
L 107.689573 -572.760916 
L 107.419209 -574.309918 
L 107.057853 -575.85892 
L 106.59286 -577.407922 
L 106.0123 -578.956925 
L 105.306035 -580.505927 
L 104.467083 -582.054929 
L 103.493039 -583.603931 
L 102.387224 -585.152933 
L 101.15925 -586.701935 
L 99.824814 -588.250937 
L 98.404678 -589.799939 
L 96.923048 -591.348941 
L 95.405697 -592.897943 
L 93.878278 -594.446945 
L 92.365188 -595.995947 
L 90.889166 -597.544949 
L 89.471592 -599.093951 
L 88.133232 -600.642953 
L 86.895046 -602.191955 
L 85.778726 -603.740957 
L 84.806729 -605.289959 
L 84.00177 -606.838962 
L 83.38591 -608.387964 
L 82.97947 -609.936966 
L 82.799971 -611.485968 
L 82.861222 -613.03497 
L 83.172554 -614.583972 
L 83.738084 -616.132974 
L 84.555922 -617.681976 
L 85.617266 -619.230978 
L 86.905497 -620.77998 
L 88.395488 -622.328982 
L 90.053443 -623.877984 
L 91.837542 -625.426986 
L 93.699556 -626.975988 
L 95.587411 -628.52499 
L 97.44846 -630.073992 
L 99.233077 -631.622994 
L 100.898071 -633.171997 
L 102.409458 -634.720999 
L 103.744234 -636.270001 
L 104.890955 -637.819003 
L 105.849149 -639.368005 
L 106.627746 -640.917007 
L 107.242844 -642.466009 
L 107.715181 -644.015011 
L 108.067661 -645.564013 
L 108.32322 -647.113015 
L 109.356721 -647.113015 
L 109.356721 -647.113015 
L 109.61228 -645.564013 
L 109.96476 -644.015011 
L 110.437097 -642.466009 
L 111.052195 -640.917007 
L 111.830792 -639.368005 
L 112.788986 -637.819003 
L 113.935707 -636.270001 
L 115.270483 -634.720999 
L 116.781871 -633.171997 
L 118.446864 -631.622994 
L 120.231481 -630.073992 
L 122.09253 -628.52499 
L 123.980385 -626.975988 
L 125.8424 -625.426986 
L 127.626499 -623.877984 
L 129.284454 -622.328982 
L 130.774444 -620.77998 
L 132.062675 -619.230978 
L 133.124019 -617.681976 
L 133.941857 -616.132974 
L 134.507387 -614.583972 
L 134.818719 -613.03497 
L 134.879971 -611.485968 
L 134.700471 -609.936966 
L 134.294032 -608.387964 
L 133.678172 -606.838962 
L 132.873212 -605.289959 
L 131.901215 -603.740957 
L 130.784896 -602.191955 
L 129.546709 -600.642953 
L 128.208349 -599.093951 
L 126.790776 -597.544949 
L 125.314753 -595.995947 
L 123.801663 -594.446945 
L 122.274245 -592.897943 
L 120.756893 -591.348941 
L 119.275263 -589.799939 
L 117.855128 -588.250937 
L 116.520692 -586.701935 
L 115.292718 -585.152933 
L 114.186902 -583.603931 
L 113.212859 -582.054929 
L 112.373907 -580.505927 
L 111.667641 -578.956925 
L 111.087081 -577.407922 
L 110.622089 -575.85892 
L 110.260733 -574.309918 
L 109.990368 -572.760916 
L 109.798309 -571.211914 
L 109.672126 -569.662912 
L 109.599686 -568.11391 
L 109.569118 -566.564908 
L 109.568855 -565.015906 
L 109.587869 -563.466904 
L 109.616114 -561.917902 
L 109.645105 -560.3689 
L 109.668513 -558.819898 
L 109.682599 -557.270896 
L 109.686353 -555.721894 
L 109.681238 -554.172892 
L 109.670556 -552.62389 
L 109.658502 -551.074887 
L 109.649107 -549.525885 
L 109.645245 -547.976883 
L 109.647935 -546.427881 
L 109.656057 -544.878879 
L 109.666556 -543.329877 
L 109.675066 -541.780875 
L 109.676842 -540.231873 
L 109.667769 -538.682871 
L 109.645262 -537.133869 
L 109.608874 -535.584867 
L 109.560501 -534.035865 
L 109.504169 -532.486863 
L 109.445462 -530.937861 
L 109.390704 -529.388859 
L 109.346051 -527.839857 
L 109.316614 -526.290855 
L 109.305751 -524.741852 
L 109.31459 -523.19285 
L 109.341844 -521.643848 
L 109.383917 -520.094846 
L 109.435306 -518.545844 
L 109.489245 -516.996842 
L 109.538519 -515.44784 
L 109.576359 -513.898838 
L 109.597278 -512.349836 
L 109.597734 -510.800834 
L 109.576509 -509.251832 
L 109.53475 -507.70283 
L 109.475661 -506.153828 
L 109.403932 -504.604826 
L 109.32501 -503.055824 
L 109.24434 -501.506822 
L 109.166729 -499.95782 
L 109.095892 -498.408818 
L 109.034241 -496.859815 
L 108.9829 -495.310813 
L 108.941889 -493.761811 
z
" style="stroke: #3d3d3d; stroke-opacity: 0.5"/>
    </defs>
    <g clip-path="url(#p250517539c)">
     <use xlink:href="#m00c09bc8d8" x="0" y="722.183991" style="fill: #3274a1; fill-opacity: 0.5; stroke: #3d3d3d; stroke-opacity: 0.5"/>
    </g>
   </g>
   <g id="PolyCollection_2">
    <defs>
     <path id="m2830590c5c" d="M 174.055241 -282.751006 
L 173.8247 -282.751006 
L 173.781976 -286.746572 
L 173.72814 -290.742137 
L 173.662118 -294.737703 
L 173.583364 -298.733269 
L 173.492066 -302.728835 
L 173.389309 -306.724401 
L 173.277176 -310.719966 
L 173.158751 -314.715532 
L 173.037997 -318.711098 
L 172.919524 -322.706664 
L 172.80823 -326.70223 
L 172.708871 -330.697795 
L 172.625605 -334.693361 
L 172.56156 -338.688927 
L 172.518509 -342.684493 
L 172.496678 -346.680059 
L 172.494753 -350.675624 
L 172.51006 -354.67119 
L 172.538913 -358.666756 
L 172.577077 -362.662322 
L 172.62026 -366.657888 
L 172.664572 -370.653454 
L 172.706876 -374.649019 
L 172.744975 -378.644585 
L 172.777621 -382.640151 
L 172.804376 -386.635717 
L 172.825342 -390.631283 
L 172.840852 -394.626848 
L 172.85117 -398.622414 
L 172.856269 -402.61798 
L 172.855711 -406.613546 
L 172.848639 -410.609112 
L 172.833859 -414.604677 
L 172.809966 -418.600243 
L 172.775484 -422.595809 
L 172.728973 -426.591375 
L 172.669088 -430.586941 
L 172.594599 -434.582506 
L 172.504374 -438.578072 
L 172.397376 -442.573638 
L 172.272662 -446.569204 
L 172.129422 -450.56477 
L 171.967013 -454.560335 
L 171.784995 -458.555901 
L 171.583092 -462.551467 
L 171.361079 -466.547033 
L 171.118555 -470.542599 
L 170.854613 -474.538164 
L 170.567452 -478.53373 
L 170.253978 -482.529296 
L 169.909469 -486.524862 
L 169.527392 -490.520428 
L 169.099421 -494.515994 
L 168.615706 -498.511559 
L 168.065409 -502.507125 
L 167.43747 -506.502691 
L 166.721575 -510.498257 
L 165.909211 -514.493823 
L 164.994742 -518.489388 
L 163.976377 -522.484954 
L 162.856936 -526.48052 
L 161.644327 -530.476086 
L 160.351686 -534.471652 
L 158.997156 -538.467217 
L 157.603345 -542.462783 
L 156.196521 -546.458349 
L 154.80566 -550.453915 
L 153.461437 -554.449481 
L 152.195269 -558.445046 
L 151.038475 -562.440612 
L 150.021568 -566.436178 
L 149.173635 -570.431744 
L 148.521743 -574.42731 
L 148.090253 -578.422875 
L 147.899971 -582.418441 
L 147.967073 -586.414007 
L 148.301857 -590.409573 
L 148.907399 -594.405139 
L 149.778331 -598.400704 
L 150.89994 -602.39627 
L 152.247831 -606.391836 
L 153.788338 -610.387402 
L 155.479762 -614.382968 
L 157.274401 -618.378534 
L 159.121225 -622.374099 
L 160.968924 -626.369665 
L 162.769006 -630.365231 
L 164.478606 -634.360797 
L 166.062709 -638.356363 
L 167.495597 -642.351928 
L 168.761405 -646.347494 
L 169.853826 -650.34306 
L 170.77509 -654.338626 
L 171.53442 -658.334192 
L 172.146193 -662.329757 
L 172.628038 -666.325323 
L 172.999071 -670.320889 
L 173.27841 -674.316455 
L 173.484036 -678.312021 
L 174.395905 -678.312021 
L 174.395905 -678.312021 
L 174.601531 -674.316455 
L 174.88087 -670.320889 
L 175.251904 -666.325323 
L 175.733748 -662.329757 
L 176.345521 -658.334192 
L 177.104852 -654.338626 
L 178.026116 -650.34306 
L 179.118536 -646.347494 
L 180.384344 -642.351928 
L 181.817232 -638.356363 
L 183.401336 -634.360797 
L 185.110935 -630.365231 
L 186.911017 -626.369665 
L 188.758717 -622.374099 
L 190.60554 -618.378534 
L 192.400179 -614.382968 
L 194.091603 -610.387402 
L 195.632111 -606.391836 
L 196.980001 -602.39627 
L 198.10161 -598.400704 
L 198.972542 -594.405139 
L 199.578085 -590.409573 
L 199.912868 -586.414007 
L 199.979971 -582.418441 
L 199.789688 -578.422875 
L 199.358198 -574.42731 
L 198.706306 -570.431744 
L 197.858374 -566.436178 
L 196.841466 -562.440612 
L 195.684673 -558.445046 
L 194.418504 -554.449481 
L 193.074281 -550.453915 
L 191.68342 -546.458349 
L 190.276597 -542.462783 
L 188.882785 -538.467217 
L 187.528256 -534.471652 
L 186.235615 -530.476086 
L 185.023006 -526.48052 
L 183.903564 -522.484954 
L 182.885199 -518.489388 
L 181.97073 -514.493823 
L 181.158366 -510.498257 
L 180.442471 -506.502691 
L 179.814533 -502.507125 
L 179.264235 -498.511559 
L 178.78052 -494.515994 
L 178.352549 -490.520428 
L 177.970472 -486.524862 
L 177.625964 -482.529296 
L 177.312489 -478.53373 
L 177.025328 -474.538164 
L 176.761386 -470.542599 
L 176.518862 -466.547033 
L 176.296849 -462.551467 
L 176.094947 -458.555901 
L 175.912928 -454.560335 
L 175.75052 -450.56477 
L 175.607279 -446.569204 
L 175.482566 -442.573638 
L 175.375567 -438.578072 
L 175.285343 -434.582506 
L 175.210853 -430.586941 
L 175.150969 -426.591375 
L 175.104458 -422.595809 
L 175.069976 -418.600243 
L 175.046082 -414.604677 
L 175.031302 -410.609112 
L 175.02423 -406.613546 
L 175.023672 -402.61798 
L 175.028771 -398.622414 
L 175.039089 -394.626848 
L 175.054599 -390.631283 
L 175.075565 -386.635717 
L 175.10232 -382.640151 
L 175.134967 -378.644585 
L 175.173065 -374.649019 
L 175.215369 -370.653454 
L 175.259682 -366.657888 
L 175.302864 -362.662322 
L 175.341028 -358.666756 
L 175.369881 -354.67119 
L 175.385188 -350.675624 
L 175.383263 -346.680059 
L 175.361433 -342.684493 
L 175.318381 -338.688927 
L 175.254337 -334.693361 
L 175.17107 -330.697795 
L 175.071711 -326.70223 
L 174.960417 -322.706664 
L 174.841944 -318.711098 
L 174.721191 -314.715532 
L 174.602765 -310.719966 
L 174.490632 -306.724401 
L 174.387875 -302.728835 
L 174.296577 -298.733269 
L 174.217823 -294.737703 
L 174.151801 -290.742137 
L 174.097966 -286.746572 
L 174.055241 -282.751006 
z
" style="stroke: #3d3d3d; stroke-opacity: 0.5"/>
    </defs>
    <g clip-path="url(#p250517539c)">
     <use xlink:href="#m2830590c5c" x="0" y="722.183991" style="fill: #3274a1; fill-opacity: 0.5; stroke: #3d3d3d; stroke-opacity: 0.5"/>
    </g>
   </g>
   <g id="PolyCollection_3">
    <defs>
     <path id="m20694247d8" d="M 239.389589 -315.989467 
L 238.690352 -315.989467 
L 238.588654 -319.76517 
L 238.46494 -323.540872 
L 238.316802 -327.316574 
L 238.142242 -331.092276 
L 237.939887 -334.867979 
L 237.7092 -338.643681 
L 237.450692 -342.419383 
L 237.16609 -346.195085 
L 236.858461 -349.970788 
L 236.532261 -353.74649 
L 236.193298 -357.522192 
L 235.848593 -361.297894 
L 235.50615 -365.073597 
L 235.174622 -368.849299 
L 234.86291 -372.625001 
L 234.579706 -376.400704 
L 234.333016 -380.176406 
L 234.129697 -383.952108 
L 233.975045 -387.72781 
L 233.872468 -391.503513 
L 233.823261 -395.279215 
L 233.826509 -399.054917 
L 233.87912 -402.830619 
L 233.975981 -406.606322 
L 234.110222 -410.382024 
L 234.273566 -414.157726 
L 234.456741 -417.933428 
L 234.649906 -421.709131 
L 234.843087 -425.484833 
L 235.026574 -429.260535 
L 235.191276 -433.036237 
L 235.329006 -436.81194 
L 235.432698 -440.587642 
L 235.496552 -444.363344 
L 235.516104 -448.139046 
L 235.488242 -451.914749 
L 235.411157 -455.690451 
L 235.284255 -459.466153 
L 235.108036 -463.241856 
L 234.883946 -467.017558 
L 234.614215 -470.79326 
L 234.301696 -474.568962 
L 233.949698 -478.344665 
L 233.561836 -482.120367 
L 233.141888 -485.896069 
L 232.693676 -489.671771 
L 232.220948 -493.447474 
L 231.727281 -497.223176 
L 231.215982 -500.998878 
L 230.689988 -504.77458 
L 230.151754 -508.550283 
L 229.603136 -512.325985 
L 229.045254 -516.101687 
L 228.478357 -519.877389 
L 227.901709 -523.653092 
L 227.313496 -527.428794 
L 226.710807 -531.204496 
L 226.089705 -534.980198 
L 225.445414 -538.755901 
L 224.772649 -542.531603 
L 224.066098 -546.307305 
L 223.321043 -550.083007 
L 222.534094 -553.85871 
L 221.704001 -557.634412 
L 220.832467 -561.410114 
L 219.924895 -565.185817 
L 218.990978 -568.961519 
L 218.045054 -572.737221 
L 217.106156 -576.512923 
L 216.197693 -580.288626 
L 215.34675 -584.064328 
L 214.583012 -587.84003 
L 213.937357 -591.615732 
L 213.4402 -595.391435 
L 213.119702 -599.167137 
L 212.999971 -602.942839 
L 213.09941 -606.718541 
L 213.42934 -610.494244 
L 213.993016 -614.269946 
L 214.785145 -618.045648 
L 215.791935 -621.82135 
L 216.991687 -625.597053 
L 218.355888 -629.372755 
L 219.850718 -633.148457 
L 221.438838 -636.924159 
L 223.081341 -640.699862 
L 224.739696 -644.475564 
L 226.377544 -648.251266 
L 227.962249 -652.026968 
L 229.466079 -655.802671 
L 230.866994 -659.578373 
L 232.149011 -663.354075 
L 233.302174 -667.129778 
L 234.322183 -670.90548 
L 235.209741 -674.681182 
L 235.969728 -678.456884 
L 236.61027 -682.232587 
L 237.141787 -686.008289 
L 237.576094 -689.783991 
L 240.503847 -689.783991 
L 240.503847 -689.783991 
L 240.938154 -686.008289 
L 241.469671 -682.232587 
L 242.110213 -678.456884 
L 242.870201 -674.681182 
L 243.757758 -670.90548 
L 244.777767 -667.129778 
L 245.930931 -663.354075 
L 247.212948 -659.578373 
L 248.613862 -655.802671 
L 250.117692 -652.026968 
L 251.702397 -648.251266 
L 253.340246 -644.475564 
L 254.9986 -640.699862 
L 256.641104 -636.924159 
L 258.229224 -633.148457 
L 259.724053 -629.372755 
L 261.088255 -625.597053 
L 262.288007 -621.82135 
L 263.294796 -618.045648 
L 264.086925 -614.269946 
L 264.650601 -610.494244 
L 264.980531 -606.718541 
L 265.079971 -602.942839 
L 264.96024 -599.167137 
L 264.639741 -595.391435 
L 264.142584 -591.615732 
L 263.496929 -587.84003 
L 262.733191 -584.064328 
L 261.882248 -580.288626 
L 260.973785 -576.512923 
L 260.034887 -572.737221 
L 259.088964 -568.961519 
L 258.155046 -565.185817 
L 257.247474 -561.410114 
L 256.37594 -557.634412 
L 255.545847 -553.85871 
L 254.758898 -550.083007 
L 254.013843 -546.307305 
L 253.307293 -542.531603 
L 252.634528 -538.755901 
L 251.990236 -534.980198 
L 251.369134 -531.204496 
L 250.766446 -527.428794 
L 250.178232 -523.653092 
L 249.601584 -519.877389 
L 249.034688 -516.101687 
L 248.476805 -512.325985 
L 247.928187 -508.550283 
L 247.389954 -504.77458 
L 246.86396 -500.998878 
L 246.352661 -497.223176 
L 245.858994 -493.447474 
L 245.386265 -489.671771 
L 244.938053 -485.896069 
L 244.518106 -482.120367 
L 244.130243 -478.344665 
L 243.778245 -474.568962 
L 243.465726 -470.79326 
L 243.195996 -467.017558 
L 242.971905 -463.241856 
L 242.795686 -459.466153 
L 242.668784 -455.690451 
L 242.591699 -451.914749 
L 242.563837 -448.139046 
L 242.58339 -444.363344 
L 242.647243 -440.587642 
L 242.750935 -436.81194 
L 242.888665 -433.036237 
L 243.053367 -429.260535 
L 243.236855 -425.484833 
L 243.430035 -421.709131 
L 243.6232 -417.933428 
L 243.806375 -414.157726 
L 243.96972 -410.382024 
L 244.10396 -406.606322 
L 244.200821 -402.830619 
L 244.253432 -399.054917 
L 244.25668 -395.279215 
L 244.207473 -391.503513 
L 244.104896 -387.72781 
L 243.950245 -383.952108 
L 243.746925 -380.176406 
L 243.500235 -376.400704 
L 243.217031 -372.625001 
L 242.905319 -368.849299 
L 242.573791 -365.073597 
L 242.231348 -361.297894 
L 241.886644 -357.522192 
L 241.54768 -353.74649 
L 241.221481 -349.970788 
L 240.913851 -346.195085 
L 240.629249 -342.419383 
L 240.370741 -338.643681 
L 240.140055 -334.867979 
L 239.937699 -331.092276 
L 239.76314 -327.316574 
L 239.615001 -323.540872 
L 239.491287 -319.76517 
L 239.389589 -315.989467 
z
" style="stroke: #3d3d3d; stroke-opacity: 0.5"/>
    </defs>
    <g clip-path="url(#p250517539c)">
     <use xlink:href="#m20694247d8" x="0" y="722.183991" style="fill: #e1812c; fill-opacity: 0.5; stroke: #3d3d3d; stroke-opacity: 0.5"/>
    </g>
   </g>
   <g id="PolyCollection_4">
    <defs>
     <path id="m65098b992a" d="M 304.234427 -528.922486 
L 304.045514 -528.922486 
L 304.00798 -530.112209 
L 303.961091 -531.301932 
L 303.904851 -532.491655 
L 303.840245 -533.681378 
L 303.769405 -534.871101 
L 303.69563 -536.060823 
L 303.623228 -537.250546 
L 303.55714 -538.440269 
L 303.502413 -539.629992 
L 303.463561 -540.819715 
L 303.443956 -542.009438 
L 303.445335 -543.199161 
L 303.467538 -544.388884 
L 303.508511 -545.578606 
L 303.564591 -546.768329 
L 303.630994 -547.958052 
L 303.702403 -549.147775 
L 303.77356 -550.337498 
L 303.839741 -551.527221 
L 303.897058 -552.716944 
L 303.942576 -553.906666 
L 303.974272 -555.096389 
L 303.990895 -556.286112 
L 303.991812 -557.475835 
L 303.976894 -558.665558 
L 303.946489 -559.855281 
L 303.901477 -561.045004 
L 303.843381 -562.234726 
L 303.774467 -563.424449 
L 303.697759 -564.614172 
L 303.616925 -565.803895 
L 303.535997 -566.993618 
L 303.458959 -568.183341 
L 303.389259 -569.373064 
L 303.329363 -570.562787 
L 303.280441 -571.752509 
L 303.242272 -572.942232 
L 303.213399 -574.131955 
L 303.191464 -575.321678 
L 303.173654 -576.511401 
L 303.157087 -577.701124 
L 303.139046 -578.890847 
L 303.116957 -580.080569 
L 303.088145 -581.270292 
L 303.049432 -582.460015 
L 302.996733 -583.649738 
L 302.924808 -584.839461 
L 302.82729 -586.029184 
L 302.697047 -587.218907 
L 302.52685 -588.408629 
L 302.310225 -589.598352 
L 302.042338 -590.788075 
L 301.720729 -591.977798 
L 301.345765 -593.167521 
L 300.920699 -594.357244 
L 300.451314 -595.546967 
L 299.945154 -596.73669 
L 299.410414 -597.926412 
L 298.854577 -599.116135 
L 298.282955 -600.305858 
L 297.697298 -601.495581 
L 297.0947 -602.685304 
L 296.467013 -603.875027 
L 295.800982 -605.06475 
L 295.079229 -606.254472 
L 294.282081 -607.444195 
L 293.390104 -608.633918 
L 292.387079 -609.823641 
L 291.263018 -611.013364 
L 290.016844 -612.203087 
L 288.65836 -613.39281 
L 287.209287 -614.582532 
L 285.703266 -615.772255 
L 284.184885 -616.961978 
L 282.707838 -618.151701 
L 281.332416 -619.341424 
L 280.122436 -620.531147 
L 279.141737 -621.72087 
L 278.450282 -622.910593 
L 278.099971 -624.100315 
L 278.130344 -625.290038 
L 278.564502 -626.479761 
L 279.405727 -627.669484 
L 280.635375 -628.859207 
L 282.212592 -630.04893 
L 284.076214 -631.238653 
L 286.148927 -632.428375 
L 288.343319 -633.618098 
L 290.569151 -634.807821 
L 292.740865 -635.997544 
L 294.784301 -637.187267 
L 296.641748 -638.37699 
L 298.274745 -639.566713 
L 299.664489 -640.756435 
L 300.810082 -641.946158 
L 301.725178 -643.135881 
L 302.433762 -644.325604 
L 302.965766 -645.515327 
L 303.353132 -646.70505 
L 304.92681 -646.70505 
L 304.92681 -646.70505 
L 305.314175 -645.515327 
L 305.846179 -644.325604 
L 306.554763 -643.135881 
L 307.469859 -641.946158 
L 308.615452 -640.756435 
L 310.005196 -639.566713 
L 311.638194 -638.37699 
L 313.49564 -637.187267 
L 315.539076 -635.997544 
L 317.71079 -634.807821 
L 319.936623 -633.618098 
L 322.131014 -632.428375 
L 324.203727 -631.238653 
L 326.06735 -630.04893 
L 327.644566 -628.859207 
L 328.874214 -627.669484 
L 329.715439 -626.479761 
L 330.149598 -625.290038 
L 330.179971 -624.100315 
L 329.82966 -622.910593 
L 329.138204 -621.72087 
L 328.157505 -620.531147 
L 326.947526 -619.341424 
L 325.572103 -618.151701 
L 324.095057 -616.961978 
L 322.576675 -615.772255 
L 321.070655 -614.582532 
L 319.621581 -613.39281 
L 318.263097 -612.203087 
L 317.016923 -611.013364 
L 315.892863 -609.823641 
L 314.889837 -608.633918 
L 313.99786 -607.444195 
L 313.200712 -606.254472 
L 312.47896 -605.06475 
L 311.812929 -603.875027 
L 311.185241 -602.685304 
L 310.582643 -601.495581 
L 309.996987 -600.305858 
L 309.425365 -599.116135 
L 308.869527 -597.926412 
L 308.334787 -596.73669 
L 307.828627 -595.546967 
L 307.359242 -594.357244 
L 306.934176 -593.167521 
L 306.559212 -591.977798 
L 306.237604 -590.788075 
L 305.969716 -589.598352 
L 305.753092 -588.408629 
L 305.582894 -587.218907 
L 305.452651 -586.029184 
L 305.355133 -584.839461 
L 305.283208 -583.649738 
L 305.23051 -582.460015 
L 305.191796 -581.270292 
L 305.162984 -580.080569 
L 305.140895 -578.890847 
L 305.122854 -577.701124 
L 305.106288 -576.511401 
L 305.088477 -575.321678 
L 305.066543 -574.131955 
L 305.037669 -572.942232 
L 304.999501 -571.752509 
L 304.950578 -570.562787 
L 304.890682 -569.373064 
L 304.820982 -568.183341 
L 304.743944 -566.993618 
L 304.663017 -565.803895 
L 304.582182 -564.614172 
L 304.505474 -563.424449 
L 304.43656 -562.234726 
L 304.378465 -561.045004 
L 304.333453 -559.855281 
L 304.303047 -558.665558 
L 304.288129 -557.475835 
L 304.289047 -556.286112 
L 304.30567 -555.096389 
L 304.337365 -553.906666 
L 304.382884 -552.716944 
L 304.4402 -551.527221 
L 304.506381 -550.337498 
L 304.577539 -549.147775 
L 304.648948 -547.958052 
L 304.71535 -546.768329 
L 304.771431 -545.578606 
L 304.812404 -544.388884 
L 304.834606 -543.199161 
L 304.835986 -542.009438 
L 304.816381 -540.819715 
L 304.777529 -539.629992 
L 304.722801 -538.440269 
L 304.656714 -537.250546 
L 304.584311 -536.060823 
L 304.510537 -534.871101 
L 304.439696 -533.681378 
L 304.37509 -532.491655 
L 304.318851 -531.301932 
L 304.271961 -530.112209 
L 304.234427 -528.922486 
z
" style="stroke: #3d3d3d; stroke-opacity: 0.5"/>
    </defs>
    <g clip-path="url(#p250517539c)">
     <use xlink:href="#m65098b992a" x="0" y="722.183991" style="fill: #3a923a; fill-opacity: 0.5; stroke: #3d3d3d; stroke-opacity: 0.5"/>
    </g>
   </g>
   <g id="PolyCollection_5">
    <defs>
     <path id="mb1d9c24e38" d="M 369.97666 -288.092195 
L 368.503282 -288.092195 
L 368.219443 -291.994236 
L 367.849881 -295.896278 
L 367.377924 -299.79832 
L 366.78682 -303.700361 
L 366.060875 -307.602403 
L 365.186824 -311.504445 
L 364.15534 -315.406486 
L 362.962579 -319.308528 
L 361.61158 -323.21057 
L 360.113373 -327.112611 
L 358.487605 -331.014653 
L 356.762555 -334.916694 
L 354.974453 -338.818736 
L 353.166081 -342.720778 
L 351.384728 -346.622819 
L 349.679655 -350.524861 
L 348.099266 -354.426903 
L 346.688275 -358.328944 
L 345.485102 -362.230986 
L 344.519768 -366.133028 
L 343.812442 -370.035069 
L 343.372767 -373.937111 
L 343.199971 -377.839153 
L 343.283682 -381.741194 
L 343.605338 -385.643236 
L 344.13999 -389.545277 
L 344.858322 -393.447319 
L 345.728683 -397.349361 
L 346.718997 -401.251402 
L 347.798403 -405.153444 
L 348.938552 -409.055486 
L 350.114523 -412.957527 
L 351.305337 -416.859569 
L 352.494091 -420.761611 
L 353.667765 -424.663652 
L 354.816753 -428.565694 
L 355.934209 -432.467736 
L 357.015287 -436.369777 
L 358.056377 -440.271819 
L 359.054412 -444.17386 
L 360.006327 -448.075902 
L 360.908702 -451.977944 
L 361.75762 -455.879985 
L 362.548723 -459.782027 
L 363.277417 -463.684069 
L 363.939198 -467.58611 
L 364.53001 -471.488152 
L 365.046598 -475.390194 
L 365.486799 -479.292235 
L 365.849756 -483.194277 
L 366.136044 -487.096319 
L 366.347711 -490.99836 
L 366.488277 -494.900402 
L 366.562678 -498.802444 
L 366.577203 -502.704485 
L 366.539407 -506.606527 
L 366.457994 -510.508568 
L 366.342666 -514.41061 
L 366.203895 -518.312652 
L 366.052623 -522.214693 
L 365.899869 -526.116735 
L 365.75626 -530.018777 
L 365.631521 -533.920818 
L 365.533968 -537.82286 
L 365.47005 -541.724902 
L 365.444012 -545.626943 
L 365.457714 -549.528985 
L 365.510636 -553.431027 
L 365.60007 -557.333068 
L 365.721482 -561.23511 
L 365.86901 -565.137151 
L 366.036024 -569.039193 
L 366.215706 -572.941235 
L 366.401583 -576.843276 
L 366.587967 -580.745318 
L 366.770263 -584.64736 
L 366.945146 -588.549401 
L 367.110589 -592.451443 
L 367.265769 -596.353485 
L 367.410879 -600.255526 
L 367.546865 -604.157568 
L 367.675143 -608.05961 
L 367.797303 -611.961651 
L 367.914855 -615.863693 
L 368.02902 -619.765734 
L 368.140592 -623.667776 
L 368.24987 -627.569818 
L 368.356668 -631.471859 
L 368.460375 -635.373901 
L 368.560076 -639.275943 
L 368.654687 -643.177984 
L 368.743103 -647.080026 
L 368.824334 -650.982068 
L 368.897609 -654.884109 
L 368.96245 -658.786151 
L 369.018698 -662.688193 
L 369.066514 -666.590234 
L 369.106332 -670.492276 
L 369.13881 -674.394317 
L 369.341132 -674.394317 
L 369.341132 -674.394317 
L 369.373609 -670.492276 
L 369.413428 -666.590234 
L 369.461243 -662.688193 
L 369.517492 -658.786151 
L 369.582332 -654.884109 
L 369.655607 -650.982068 
L 369.736838 -647.080026 
L 369.825254 -643.177984 
L 369.919865 -639.275943 
L 370.019566 -635.373901 
L 370.123273 -631.471859 
L 370.230071 -627.569818 
L 370.33935 -623.667776 
L 370.450922 -619.765734 
L 370.565087 -615.863693 
L 370.682639 -611.961651 
L 370.804798 -608.05961 
L 370.933076 -604.157568 
L 371.069063 -600.255526 
L 371.214172 -596.353485 
L 371.369352 -592.451443 
L 371.534795 -588.549401 
L 371.709678 -584.64736 
L 371.891975 -580.745318 
L 372.078358 -576.843276 
L 372.264236 -572.941235 
L 372.443918 -569.039193 
L 372.610931 -565.137151 
L 372.758459 -561.23511 
L 372.879872 -557.333068 
L 372.969305 -553.431027 
L 373.022227 -549.528985 
L 373.03593 -545.626943 
L 373.009892 -541.724902 
L 372.945973 -537.82286 
L 372.84842 -533.920818 
L 372.723682 -530.018777 
L 372.580073 -526.116735 
L 372.427318 -522.214693 
L 372.276046 -518.312652 
L 372.137275 -514.41061 
L 372.021947 -510.508568 
L 371.940534 -506.606527 
L 371.902738 -502.704485 
L 371.917264 -498.802444 
L 371.991665 -494.900402 
L 372.13223 -490.99836 
L 372.343898 -487.096319 
L 372.630185 -483.194277 
L 372.993142 -479.292235 
L 373.433343 -475.390194 
L 373.949931 -471.488152 
L 374.540743 -467.58611 
L 375.202524 -463.684069 
L 375.931218 -459.782027 
L 376.722321 -455.879985 
L 377.57124 -451.977944 
L 378.473615 -448.075902 
L 379.425529 -444.17386 
L 380.423564 -440.271819 
L 381.464654 -436.369777 
L 382.545732 -432.467736 
L 383.663188 -428.565694 
L 384.812177 -424.663652 
L 385.985851 -420.761611 
L 387.174605 -416.859569 
L 388.365418 -412.957527 
L 389.54139 -409.055486 
L 390.681539 -405.153444 
L 391.760944 -401.251402 
L 392.751258 -397.349361 
L 393.62162 -393.447319 
L 394.339951 -389.545277 
L 394.874604 -385.643236 
L 395.19626 -381.741194 
L 395.279971 -377.839153 
L 395.107174 -373.937111 
L 394.6675 -370.035069 
L 393.960173 -366.133028 
L 392.994839 -362.230986 
L 391.791667 -358.328944 
L 390.380675 -354.426903 
L 388.800286 -350.524861 
L 387.095213 -346.622819 
L 385.313861 -342.720778 
L 383.505489 -338.818736 
L 381.717387 -334.916694 
L 379.992336 -331.014653 
L 378.366568 -327.112611 
L 376.868361 -323.21057 
L 375.517363 -319.308528 
L 374.324601 -315.406486 
L 373.293117 -311.504445 
L 372.419066 -307.602403 
L 371.693121 -303.700361 
L 371.102017 -299.79832 
L 370.63006 -295.896278 
L 370.260499 -291.994236 
L 369.97666 -288.092195 
z
" style="stroke: #3d3d3d; stroke-opacity: 0.5"/>
    </defs>
    <g clip-path="url(#p250517539c)">
     <use xlink:href="#mb1d9c24e38" x="0" y="722.183991" style="fill: #c03d3e; fill-opacity: 0.5; stroke: #3d3d3d; stroke-opacity: 0.5"/>
    </g>
   </g>
   <g id="PolyCollection_6">
    <defs>
     <path id="m7521938207" d="M 499.762512 -283.134681 
L 499.11743 -283.134681 
L 498.978253 -287.068191 
L 498.790154 -291.001701 
L 498.540677 -294.935212 
L 498.215959 -298.868722 
L 497.801182 -302.802232 
L 497.281242 -306.735743 
L 496.641634 -310.669253 
L 495.869532 -314.602763 
L 494.954985 -318.536274 
L 493.892164 -322.469784 
L 492.680536 -326.403295 
L 491.325851 -330.336805 
L 489.840828 -334.270315 
L 488.245424 -338.203826 
L 486.566634 -342.137336 
L 484.837772 -346.070846 
L 483.097262 -350.004357 
L 481.387011 -353.937867 
L 479.750456 -357.871377 
L 478.230457 -361.804888 
L 476.867168 -365.738398 
L 475.69608 -369.671909 
L 474.746359 -373.605419 
L 474.039621 -377.538929 
L 473.589203 -381.47244 
L 473.399971 -385.40595 
L 473.468627 -389.33946 
L 473.784468 -393.272971 
L 474.330464 -397.206481 
L 475.084556 -401.139992 
L 476.021017 -405.073502 
L 477.111786 -409.007012 
L 478.327661 -412.940523 
L 479.639311 -416.874033 
L 481.018079 -420.807543 
L 482.436603 -424.741054 
L 483.869279 -428.674564 
L 485.292606 -432.608074 
L 486.685463 -436.541585 
L 488.02933 -440.475095 
L 489.308456 -444.408606 
L 490.509973 -448.342116 
L 491.623927 -452.275626 
L 492.643213 -456.209137 
L 493.563407 -460.142647 
L 494.382499 -464.076157 
L 495.100556 -468.009668 
L 495.719345 -471.943178 
L 496.241964 -475.876688 
L 496.672508 -479.810199 
L 497.015811 -483.743709 
L 497.277258 -487.67722 
L 497.462691 -491.61073 
L 497.578368 -495.54424 
L 497.630978 -499.477751 
L 497.62766 -503.411261 
L 497.576035 -507.344771 
L 497.484199 -511.278282 
L 497.360674 -515.211792 
L 497.214317 -519.145302 
L 497.054157 -523.078813 
L 496.889183 -527.012323 
L 496.728074 -530.945834 
L 496.578907 -534.879344 
L 496.448834 -538.812854 
L 496.343796 -542.746365 
L 496.268271 -546.679875 
L 496.225109 -550.613385 
L 496.215461 -554.546896 
L 496.238824 -558.480406 
L 496.2932 -562.413917 
L 496.375344 -566.347427 
L 496.481089 -570.280937 
L 496.605712 -574.214448 
L 496.744299 -578.147958 
L 496.892093 -582.081468 
L 497.044785 -586.014979 
L 497.198736 -589.948489 
L 497.351112 -593.881999 
L 497.499934 -597.81551 
L 497.644039 -601.74902 
L 497.782969 -605.682531 
L 497.916801 -609.616041 
L 498.04594 -613.549551 
L 498.170908 -617.483062 
L 498.292148 -621.416572 
L 498.409874 -625.350082 
L 498.523981 -629.283593 
L 498.634024 -633.217103 
L 498.739258 -637.150613 
L 498.838739 -641.084124 
L 498.931448 -645.017634 
L 499.016426 -648.951145 
L 499.092904 -652.884655 
L 499.160387 -656.818165 
L 499.21871 -660.751676 
L 499.268045 -664.685186 
L 499.308867 -668.618696 
L 499.341899 -672.552207 
L 499.538043 -672.552207 
L 499.538043 -672.552207 
L 499.571074 -668.618696 
L 499.611897 -664.685186 
L 499.661232 -660.751676 
L 499.719555 -656.818165 
L 499.787038 -652.884655 
L 499.863515 -648.951145 
L 499.948494 -645.017634 
L 500.041202 -641.084124 
L 500.140683 -637.150613 
L 500.245918 -633.217103 
L 500.35596 -629.283593 
L 500.470067 -625.350082 
L 500.587793 -621.416572 
L 500.709033 -617.483062 
L 500.834001 -613.549551 
L 500.963141 -609.616041 
L 501.096973 -605.682531 
L 501.235903 -601.74902 
L 501.380008 -597.81551 
L 501.528829 -593.881999 
L 501.681205 -589.948489 
L 501.835156 -586.014979 
L 501.987849 -582.081468 
L 502.135643 -578.147958 
L 502.27423 -574.214448 
L 502.398852 -570.280937 
L 502.504598 -566.347427 
L 502.586742 -562.413917 
L 502.641117 -558.480406 
L 502.664481 -554.546896 
L 502.654832 -550.613385 
L 502.61167 -546.679875 
L 502.536146 -542.746365 
L 502.431108 -538.812854 
L 502.301035 -534.879344 
L 502.151867 -530.945834 
L 501.990759 -527.012323 
L 501.825784 -523.078813 
L 501.665624 -519.145302 
L 501.519267 -515.211792 
L 501.395743 -511.278282 
L 501.303906 -507.344771 
L 501.252281 -503.411261 
L 501.248964 -499.477751 
L 501.301573 -495.54424 
L 501.417251 -491.61073 
L 501.602683 -487.67722 
L 501.864131 -483.743709 
L 502.207433 -479.810199 
L 502.637978 -475.876688 
L 503.160596 -471.943178 
L 503.779385 -468.009668 
L 504.497442 -464.076157 
L 505.316534 -460.142647 
L 506.236728 -456.209137 
L 507.256014 -452.275626 
L 508.369969 -448.342116 
L 509.571486 -444.408606 
L 510.850612 -440.475095 
L 512.194478 -436.541585 
L 513.587335 -432.608074 
L 515.010662 -428.674564 
L 516.443338 -424.741054 
L 517.861863 -420.807543 
L 519.240631 -416.874033 
L 520.55228 -412.940523 
L 521.768155 -409.007012 
L 522.858924 -405.073502 
L 523.795386 -401.139992 
L 524.549477 -397.206481 
L 525.095474 -393.272971 
L 525.411314 -389.33946 
L 525.479971 -385.40595 
L 525.290738 -381.47244 
L 524.84032 -377.538929 
L 524.133582 -373.605419 
L 523.183861 -369.671909 
L 522.012773 -365.738398 
L 520.649484 -361.804888 
L 519.129485 -357.871377 
L 517.492931 -353.937867 
L 515.782679 -350.004357 
L 514.04217 -346.070846 
L 512.313307 -342.137336 
L 510.634518 -338.203826 
L 509.039114 -334.270315 
L 507.55409 -330.336805 
L 506.199405 -326.403295 
L 504.987777 -322.469784 
L 503.924956 -318.536274 
L 503.01041 -314.602763 
L 502.238308 -310.669253 
L 501.5987 -306.735743 
L 501.078759 -302.802232 
L 500.663982 -298.868722 
L 500.339265 -294.935212 
L 500.089788 -291.001701 
L 499.901688 -287.068191 
L 499.762512 -283.134681 
z
" style="stroke: #3d3d3d; stroke-opacity: 0.5"/>
    </defs>
    <g clip-path="url(#p250517539c)">
     <use xlink:href="#m7521938207" x="0" y="722.183991" style="fill: #845b53; fill-opacity: 0.5; stroke: #3d3d3d; stroke-opacity: 0.5"/>
    </g>
   </g>
   <g id="PolyCollection_7">
    <defs>
     <path id="m2695d3cfda" d="M 564.643353 -523.660984 
L 564.436588 -523.660984 
L 564.39646 -524.877957 
L 564.346512 -526.094931 
L 564.286709 -527.311904 
L 564.217984 -528.528878 
L 564.142401 -529.745852 
L 564.063179 -530.962825 
L 563.984537 -532.179799 
L 563.911324 -533.396772 
L 563.848486 -534.613746 
L 563.800416 -535.830719 
L 563.770301 -537.047693 
L 563.759573 -538.264666 
L 563.767578 -539.48164 
L 563.791538 -540.698613 
L 563.826828 -541.915587 
L 563.867536 -543.132561 
L 563.907235 -544.349534 
L 563.939839 -545.566508 
L 563.960428 -546.783481 
L 563.965916 -548.000455 
L 563.955469 -549.217428 
L 563.930607 -550.434402 
L 563.894988 -551.651375 
L 563.853889 -552.868349 
L 563.813455 -554.085322 
L 563.779822 -555.302296 
L 563.758232 -556.51927 
L 563.752276 -557.736243 
L 563.763358 -558.953217 
L 563.790467 -560.17019 
L 563.830272 -561.387164 
L 563.877513 -562.604137 
L 563.925624 -563.821111 
L 563.96747 -565.038084 
L 563.996107 -566.255058 
L 564.005452 -567.472031 
L 563.990799 -568.689005 
L 563.949118 -569.905979 
L 563.87912 -571.122952 
L 563.781087 -572.339926 
L 563.656474 -573.556899 
L 563.507331 -574.773873 
L 563.335608 -575.990846 
L 563.142429 -577.20782 
L 562.927443 -578.424793 
L 562.688383 -579.641767 
L 562.420942 -580.85874 
L 562.119025 -582.075714 
L 561.775409 -583.292688 
L 561.382728 -584.509661 
L 560.934639 -585.726635 
L 560.426974 -586.943608 
L 559.858628 -588.160582 
L 559.231995 -589.377555 
L 558.552792 -590.594529 
L 557.829242 -591.811502 
L 557.070685 -593.028476 
L 556.285827 -594.245449 
L 555.480887 -595.462423 
L 554.658008 -596.679397 
L 553.814269 -597.89637 
L 552.941583 -599.113344 
L 552.027687 -600.330317 
L 551.058224 -601.547291 
L 550.019777 -602.764264 
L 548.90344 -603.981238 
L 547.708401 -605.198211 
L 546.444869 -606.415185 
L 545.135751 -607.632158 
L 543.816621 -608.849132 
L 542.533829 -610.066106 
L 541.340935 -611.283079 
L 540.293973 -612.500053 
L 539.446302 -613.717026 
L 538.843824 -614.934 
L 538.521266 -616.150973 
L 538.499971 -617.367947 
L 538.787283 -618.58492 
L 539.377338 -619.801894 
L 540.252819 -621.018867 
L 541.387151 -622.235841 
L 542.746696 -623.452815 
L 544.292632 -624.669788 
L 545.98245 -625.886762 
L 547.771156 -627.103735 
L 549.612408 -628.320709 
L 551.459815 -629.537682 
L 553.268515 -630.754656 
L 554.997062 -631.971629 
L 556.60942 -633.188603 
L 558.076826 -634.405576 
L 559.379197 -635.62255 
L 560.505832 -636.839524 
L 561.455272 -638.056497 
L 562.234342 -639.273471 
L 562.856531 -640.490444 
L 563.339967 -641.707418 
L 563.7053 -642.924391 
L 563.973744 -644.141365 
L 565.106198 -644.141365 
L 565.106198 -644.141365 
L 565.374641 -642.924391 
L 565.739974 -641.707418 
L 566.223411 -640.490444 
L 566.845599 -639.273471 
L 567.624669 -638.056497 
L 568.574109 -636.839524 
L 569.700744 -635.62255 
L 571.003116 -634.405576 
L 572.470522 -633.188603 
L 574.082879 -631.971629 
L 575.811426 -630.754656 
L 577.620127 -629.537682 
L 579.467533 -628.320709 
L 581.308786 -627.103735 
L 583.097491 -625.886762 
L 584.787309 -624.669788 
L 586.333246 -623.452815 
L 587.69279 -622.235841 
L 588.827122 -621.018867 
L 589.702603 -619.801894 
L 590.292659 -618.58492 
L 590.579971 -617.367947 
L 590.558675 -616.150973 
L 590.236117 -614.934 
L 589.633639 -613.717026 
L 588.785968 -612.500053 
L 587.739007 -611.283079 
L 586.546112 -610.066106 
L 585.263321 -608.849132 
L 583.944191 -607.632158 
L 582.635072 -606.415185 
L 581.37154 -605.198211 
L 580.176501 -603.981238 
L 579.060165 -602.764264 
L 578.021718 -601.547291 
L 577.052255 -600.330317 
L 576.138358 -599.113344 
L 575.265673 -597.89637 
L 574.421934 -596.679397 
L 573.599055 -595.462423 
L 572.794114 -594.245449 
L 572.009256 -593.028476 
L 571.2507 -591.811502 
L 570.527149 -590.594529 
L 569.847946 -589.377555 
L 569.221313 -588.160582 
L 568.652967 -586.943608 
L 568.145302 -585.726635 
L 567.697214 -584.509661 
L 567.304532 -583.292688 
L 566.960916 -582.075714 
L 566.658999 -580.85874 
L 566.391558 -579.641767 
L 566.152499 -578.424793 
L 565.937512 -577.20782 
L 565.744333 -575.990846 
L 565.572611 -574.773873 
L 565.423468 -573.556899 
L 565.298854 -572.339926 
L 565.200821 -571.122952 
L 565.130824 -569.905979 
L 565.089142 -568.689005 
L 565.074489 -567.472031 
L 565.083834 -566.255058 
L 565.112471 -565.038084 
L 565.154318 -563.821111 
L 565.202429 -562.604137 
L 565.24967 -561.387164 
L 565.289474 -560.17019 
L 565.316583 -558.953217 
L 565.327665 -557.736243 
L 565.32171 -556.51927 
L 565.30012 -555.302296 
L 565.266486 -554.085322 
L 565.226052 -552.868349 
L 565.184953 -551.651375 
L 565.149335 -550.434402 
L 565.124472 -549.217428 
L 565.114025 -548.000455 
L 565.119514 -546.783481 
L 565.140103 -545.566508 
L 565.172706 -544.349534 
L 565.212405 -543.132561 
L 565.253113 -541.915587 
L 565.288403 -540.698613 
L 565.312363 -539.48164 
L 565.320368 -538.264666 
L 565.30964 -537.047693 
L 565.279525 -535.830719 
L 565.231456 -534.613746 
L 565.168618 -533.396772 
L 565.095404 -532.179799 
L 565.016762 -530.962825 
L 564.937541 -529.745852 
L 564.861957 -528.528878 
L 564.793232 -527.311904 
L 564.733429 -526.094931 
L 564.683481 -524.877957 
L 564.643353 -523.660984 
z
" style="stroke: #3d3d3d; stroke-opacity: 0.5"/>
    </defs>
    <g clip-path="url(#p250517539c)">
     <use xlink:href="#m2695d3cfda" x="0" y="722.183991" style="fill: #d684bd; fill-opacity: 0.5; stroke: #3d3d3d; stroke-opacity: 0.5"/>
    </g>
   </g>
   <g id="PolyCollection_8">
    <defs>
     <path id="mc02f0f0d6f" d="M 694.835031 -542.143606 
L 694.64491 -542.143606 
L 694.607745 -543.189525 
L 694.561439 -544.235444 
L 694.505977 -545.281363 
L 694.442269 -546.327281 
L 694.372311 -547.3732 
L 694.299214 -548.419119 
L 694.227063 -549.465038 
L 694.160585 -550.510957 
L 694.104662 -551.556876 
L 694.063743 -552.602795 
L 694.041266 -553.648713 
L 694.039169 -554.694632 
L 694.057616 -555.740551 
L 694.094959 -556.78647 
L 694.147958 -557.832389 
L 694.212215 -558.878308 
L 694.28272 -559.924227 
L 694.354411 -560.970145 
L 694.42265 -562.016064 
L 694.483549 -563.061983 
L 694.534097 -564.107902 
L 694.572135 -565.153821 
L 694.5962 -566.19974 
L 694.605316 -567.245659 
L 694.598808 -568.291577 
L 694.576189 -569.337496 
L 694.537156 -570.383415 
L 694.48169 -571.429334 
L 694.41024 -572.475253 
L 694.323942 -573.521172 
L 694.224798 -574.56709 
L 694.115772 -575.613009 
L 694.000735 -576.658928 
L 693.884255 -577.704847 
L 693.77121 -578.750766 
L 693.666281 -579.796685 
L 693.573347 -580.842604 
L 693.494879 -581.888522 
L 693.431392 -582.934441 
L 693.381029 -583.98036 
L 693.339372 -585.026279 
L 693.299513 -586.072198 
L 693.252446 -587.118117 
L 693.187786 -588.164036 
L 693.094768 -589.209954 
L 692.963441 -590.255873 
L 692.785922 -591.301792 
L 692.557506 -592.347711 
L 692.277476 -593.39363 
L 691.949421 -594.439549 
L 691.58098 -595.485468 
L 691.182998 -596.531386 
L 690.768168 -597.577305 
L 690.349322 -598.623224 
L 689.937582 -599.669143 
L 689.540591 -600.715062 
L 689.161035 -601.760981 
L 688.795622 -602.8069 
L 688.434637 -603.852818 
L 688.062138 -604.898737 
L 687.656799 -605.944656 
L 687.193368 -606.990575 
L 686.644677 -608.036494 
L 685.984052 -609.082413 
L 685.188004 -610.128331 
L 684.238984 -611.17425 
L 683.127984 -612.220169 
L 681.856775 -613.266088 
L 680.439503 -614.312007 
L 678.903465 -615.357926 
L 677.288862 -616.403845 
L 675.647435 -617.449763 
L 674.040015 -618.495682 
L 672.533102 -619.541601 
L 671.194759 -620.58752 
L 670.090182 -621.633439 
L 669.277338 -622.679358 
L 668.803072 -623.725277 
L 668.699971 -624.771195 
L 668.98419 -625.817114 
L 669.654321 -626.863033 
L 670.691322 -627.908952 
L 672.059473 -628.954871 
L 673.70833 -630.00079 
L 675.5756 -631.046709 
L 677.590865 -632.092627 
L 679.679944 -633.138546 
L 681.769607 -634.184465 
L 683.79223 -635.230384 
L 685.689912 -636.276303 
L 687.417608 -637.322222 
L 688.944936 -638.368141 
L 690.256501 -639.414059 
L 691.350809 -640.459978 
L 692.238042 -641.505897 
L 692.937094 -642.551816 
L 693.472359 -643.597735 
L 693.870663 -644.643654 
L 694.158697 -645.689572 
L 695.321244 -645.689572 
L 695.321244 -645.689572 
L 695.609278 -644.643654 
L 696.007582 -643.597735 
L 696.542847 -642.551816 
L 697.2419 -641.505897 
L 698.129132 -640.459978 
L 699.223441 -639.414059 
L 700.535005 -638.368141 
L 702.062333 -637.322222 
L 703.790029 -636.276303 
L 705.687711 -635.230384 
L 707.710334 -634.184465 
L 709.799997 -633.138546 
L 711.889076 -632.092627 
L 713.904341 -631.046709 
L 715.771611 -630.00079 
L 717.420468 -628.954871 
L 718.78862 -627.908952 
L 719.825621 -626.863033 
L 720.495752 -625.817114 
L 720.779971 -624.771195 
L 720.67687 -623.725277 
L 720.202603 -622.679358 
L 719.389759 -621.633439 
L 718.285182 -620.58752 
L 716.94684 -619.541601 
L 715.439926 -618.495682 
L 713.832506 -617.449763 
L 712.191079 -616.403845 
L 710.576476 -615.357926 
L 709.040439 -614.312007 
L 707.623167 -613.266088 
L 706.351957 -612.220169 
L 705.240958 -611.17425 
L 704.291937 -610.128331 
L 703.49589 -609.082413 
L 702.835265 -608.036494 
L 702.286573 -606.990575 
L 701.823143 -605.944656 
L 701.417803 -604.898737 
L 701.045304 -603.852818 
L 700.684319 -602.8069 
L 700.318906 -601.760981 
L 699.93935 -600.715062 
L 699.542359 -599.669143 
L 699.13062 -598.623224 
L 698.711774 -597.577305 
L 698.296943 -596.531386 
L 697.898961 -595.485468 
L 697.53052 -594.439549 
L 697.202465 -593.39363 
L 696.922435 -592.347711 
L 696.69402 -591.301792 
L 696.5165 -590.255873 
L 696.385174 -589.209954 
L 696.292155 -588.164036 
L 696.227495 -587.118117 
L 696.180429 -586.072198 
L 696.140569 -585.026279 
L 696.098912 -583.98036 
L 696.04855 -582.934441 
L 695.985062 -581.888522 
L 695.906595 -580.842604 
L 695.81366 -579.796685 
L 695.708731 -578.750766 
L 695.595687 -577.704847 
L 695.479206 -576.658928 
L 695.36417 -575.613009 
L 695.255143 -574.56709 
L 695.156 -573.521172 
L 695.069701 -572.475253 
L 694.998252 -571.429334 
L 694.942785 -570.383415 
L 694.903752 -569.337496 
L 694.881133 -568.291577 
L 694.874625 -567.245659 
L 694.883741 -566.19974 
L 694.907806 -565.153821 
L 694.945845 -564.107902 
L 694.996393 -563.061983 
L 695.057291 -562.016064 
L 695.125531 -560.970145 
L 695.197221 -559.924227 
L 695.267726 -558.878308 
L 695.331984 -557.832389 
L 695.384983 -556.78647 
L 695.422325 -555.740551 
L 695.440772 -554.694632 
L 695.438676 -553.648713 
L 695.416198 -552.602795 
L 695.375279 -551.556876 
L 695.319356 -550.510957 
L 695.252878 -549.465038 
L 695.180727 -548.419119 
L 695.107631 -547.3732 
L 695.037673 -546.327281 
L 694.973965 -545.281363 
L 694.918503 -544.235444 
L 694.872196 -543.189525 
L 694.835031 -542.143606 
z
" style="stroke: #3d3d3d; stroke-opacity: 0.5"/>
    </defs>
    <g clip-path="url(#p250517539c)">
     <use xlink:href="#mc02f0f0d6f" x="0" y="722.183991" style="fill: #a9aa35; fill-opacity: 0.5; stroke: #3d3d3d; stroke-opacity: 0.5"/>
    </g>
   </g>
   <g id="PolyCollection_9">
    <defs>
     <path id="mcd3fc79a77" d="M 759.939629 -504.969284 
L 759.740312 -504.969284 
L 759.699906 -506.393047 
L 759.649216 -507.816811 
L 759.588206 -509.240574 
L 759.517904 -510.664338 
L 759.440563 -512.088101 
L 759.359639 -513.511865 
L 759.279542 -514.935628 
L 759.205152 -516.359391 
L 759.14115 -517.783155 
L 759.091278 -519.206918 
L 759.057664 -520.630682 
L 759.040388 -522.054445 
L 759.037385 -523.478208 
L 759.044765 -524.901972 
L 759.057502 -526.325735 
L 759.070374 -527.749499 
L 759.078975 -529.173262 
L 759.080582 -530.597026 
L 759.074701 -532.020789 
L 759.063163 -533.444552 
L 759.049759 -534.868316 
L 759.039487 -536.292079 
L 759.03758 -537.715843 
L 759.048507 -539.139606 
L 759.075158 -540.56337 
L 759.118364 -541.987133 
L 759.17682 -543.410896 
L 759.247387 -544.83466 
L 759.325687 -546.258423 
L 759.406833 -547.682187 
L 759.486138 -549.10595 
L 759.559689 -550.529713 
L 759.624687 -551.953477 
L 759.679552 -553.37724 
L 759.723805 -554.801004 
L 759.757809 -556.224767 
L 759.78242 -557.648531 
L 759.798618 -559.072294 
L 759.807158 -560.496057 
L 759.808273 -561.919821 
L 759.801417 -563.343584 
L 759.785059 -564.767348 
L 759.756527 -566.191111 
L 759.711923 -567.614875 
L 759.646112 -569.038638 
L 759.552833 -570.462401 
L 759.42494 -571.886165 
L 759.254792 -573.309928 
L 759.034761 -574.733692 
L 758.75782 -576.157455 
L 758.418133 -577.581218 
L 758.011546 -579.004982 
L 757.535921 -580.428745 
L 756.991219 -581.852509 
L 756.379322 -583.276272 
L 755.703583 -584.700036 
L 754.968147 -586.123799 
L 754.177103 -587.547562 
L 753.333565 -588.971326 
L 752.43882 -590.395089 
L 751.491713 -591.818853 
L 750.488494 -593.242616 
L 749.42333 -594.66638 
L 748.289622 -596.090143 
L 747.08211 -597.513906 
L 745.799532 -598.93767 
L 744.447374 -600.361433 
L 743.0401 -601.785197 
L 741.602244 -603.20896 
L 740.167945 -604.632724 
L 738.77887 -606.056487 
L 737.480849 -607.48025 
L 736.319946 -608.904014 
L 735.338765 -610.327777 
L 734.573739 -611.751541 
L 734.053743 -613.175304 
L 733.799971 -614.599067 
L 733.826589 -616.022831 
L 734.141497 -617.446594 
L 734.74657 -618.870358 
L 735.637079 -620.294121 
L 736.800359 -621.717885 
L 738.214208 -623.141648 
L 739.845671 -624.565411 
L 741.650891 -625.989175 
L 743.576432 -627.412938 
L 745.562161 -628.836702 
L 747.545371 -630.260465 
L 749.465542 -631.684229 
L 751.268992 -633.107992 
L 752.912725 -634.531755 
L 754.366928 -635.955519 
L 755.615877 -637.379282 
L 756.657276 -638.803046 
L 757.500306 -640.226809 
L 758.162837 -641.650572 
L 758.668281 -643.074336 
L 759.042565 -644.498099 
L 759.311557 -645.921863 
L 760.368384 -645.921863 
L 760.368384 -645.921863 
L 760.637376 -644.498099 
L 761.01166 -643.074336 
L 761.517104 -641.650572 
L 762.179635 -640.226809 
L 763.022666 -638.803046 
L 764.064064 -637.379282 
L 765.313013 -635.955519 
L 766.767216 -634.531755 
L 768.410949 -633.107992 
L 770.214399 -631.684229 
L 772.13457 -630.260465 
L 774.117781 -628.836702 
L 776.10351 -627.412938 
L 778.029051 -625.989175 
L 779.83427 -624.565411 
L 781.465734 -623.141648 
L 782.879582 -621.717885 
L 784.042862 -620.294121 
L 784.933371 -618.870358 
L 785.538444 -617.446594 
L 785.853352 -616.022831 
L 785.879971 -614.599067 
L 785.626198 -613.175304 
L 785.106202 -611.751541 
L 784.341176 -610.327777 
L 783.359996 -608.904014 
L 782.199092 -607.48025 
L 780.901071 -606.056487 
L 779.511996 -604.632724 
L 778.077697 -603.20896 
L 776.639841 -601.785197 
L 775.232567 -600.361433 
L 773.880409 -598.93767 
L 772.597831 -597.513906 
L 771.390319 -596.090143 
L 770.256611 -594.66638 
L 769.191448 -593.242616 
L 768.188229 -591.818853 
L 767.241122 -590.395089 
L 766.346376 -588.971326 
L 765.502838 -587.547562 
L 764.711794 -586.123799 
L 763.976358 -584.700036 
L 763.300619 -583.276272 
L 762.688722 -581.852509 
L 762.14402 -580.428745 
L 761.668395 -579.004982 
L 761.261808 -577.581218 
L 760.922121 -576.157455 
L 760.645181 -574.733692 
L 760.42515 -573.309928 
L 760.255001 -571.886165 
L 760.127109 -570.462401 
L 760.033829 -569.038638 
L 759.968019 -567.614875 
L 759.923414 -566.191111 
L 759.894883 -564.767348 
L 759.878524 -563.343584 
L 759.871668 -561.919821 
L 759.872784 -560.496057 
L 759.881324 -559.072294 
L 759.897521 -557.648531 
L 759.922132 -556.224767 
L 759.956137 -554.801004 
L 760.00039 -553.37724 
L 760.055254 -551.953477 
L 760.120252 -550.529713 
L 760.193803 -549.10595 
L 760.273109 -547.682187 
L 760.354254 -546.258423 
L 760.432555 -544.83466 
L 760.503122 -543.410896 
L 760.561577 -541.987133 
L 760.604784 -540.56337 
L 760.631435 -539.139606 
L 760.642361 -537.715843 
L 760.640454 -536.292079 
L 760.630183 -534.868316 
L 760.616778 -533.444552 
L 760.60524 -532.020789 
L 760.599359 -530.597026 
L 760.600966 -529.173262 
L 760.609567 -527.749499 
L 760.622439 -526.325735 
L 760.635176 -524.901972 
L 760.642557 -523.478208 
L 760.639554 -522.054445 
L 760.622277 -520.630682 
L 760.588663 -519.206918 
L 760.538791 -517.783155 
L 760.47479 -516.359391 
L 760.4004 -514.935628 
L 760.320303 -513.511865 
L 760.239378 -512.088101 
L 760.162037 -510.664338 
L 760.091736 -509.240574 
L 760.030726 -507.816811 
L 759.980036 -506.393047 
L 759.939629 -504.969284 
z
" style="stroke: #3d3d3d; stroke-opacity: 0.5"/>
    </defs>
    <g clip-path="url(#p250517539c)">
     <use xlink:href="#mcd3fc79a77" x="0" y="722.183991" style="fill: #2eabb8; fill-opacity: 0.5; stroke: #3d3d3d; stroke-opacity: 0.5"/>
    </g>
   </g>
   <g id="PolyCollection_10">
    <defs>
     <path id="m6762a5850b" d="M 825.037336 -512.888925 
L 824.842605 -512.888925 
L 824.800639 -514.250374 
L 824.747511 -515.611823 
L 824.68336 -516.973273 
L 824.609712 -518.334722 
L 824.529691 -519.696171 
L 824.447988 -521.057621 
L 824.370507 -522.41907 
L 824.303722 -523.78052 
L 824.253799 -525.141969 
L 824.225665 -526.503418 
L 824.222208 -527.864868 
L 824.243789 -529.226317 
L 824.288177 -530.587767 
L 824.350934 -531.949216 
L 824.426139 -533.310665 
L 824.507313 -534.672115 
L 824.588315 -536.033564 
L 824.664076 -537.395013 
L 824.73102 -538.756463 
L 824.787187 -540.117912 
L 824.832067 -541.479362 
L 824.866265 -542.840811 
L 824.891071 -544.20226 
L 824.908059 -545.56371 
L 824.918734 -546.925159 
L 824.924287 -548.286608 
L 824.925434 -549.648058 
L 824.922331 -551.009507 
L 824.914562 -552.370957 
L 824.901178 -553.732406 
L 824.880821 -555.093855 
L 824.851914 -556.455305 
L 824.812964 -557.816754 
L 824.762932 -559.178204 
L 824.701659 -560.539653 
L 824.630256 -561.901102 
L 824.551361 -563.262552 
L 824.469168 -564.624001 
L 824.389136 -565.98545 
L 824.31737 -567.3469 
L 824.259736 -568.708349 
L 824.220837 -570.069799 
L 824.203059 -571.431248 
L 824.205864 -572.792697 
L 824.225488 -574.154147 
L 824.255102 -575.515596 
L 824.285389 -576.877046 
L 824.305389 -578.238495 
L 824.303459 -579.599944 
L 824.268126 -580.961394 
L 824.188751 -582.322843 
L 824.055926 -583.684292 
L 823.861674 -585.045742 
L 823.599557 -586.407191 
L 823.26481 -587.768641 
L 822.854622 -589.13009 
L 822.368554 -590.491539 
L 821.808996 -591.852989 
L 821.18147 -593.214438 
L 820.494493 -594.575887 
L 819.7588 -595.937337 
L 818.98583 -597.298786 
L 818.185613 -598.660236 
L 817.364431 -600.021685 
L 816.522818 -601.383134 
L 815.654505 -602.744584 
L 814.74679 -604.106033 
L 813.782533 -605.467483 
L 812.74356 -606.828932 
L 811.614916 -608.190381 
L 810.389111 -609.551831 
L 809.069515 -610.91328 
L 807.672252 -612.274729 
L 806.226313 -613.636179 
L 804.77209 -614.997628 
L 803.358851 -616.359078 
L 802.041822 -617.720527 
L 800.879402 -619.081976 
L 799.930697 -620.443426 
L 799.253178 -621.804875 
L 798.899971 -623.166324 
L 798.916322 -624.527774 
L 799.335062 -625.889223 
L 800.171441 -627.250673 
L 801.418262 -628.612122 
L 803.042595 -629.973571 
L 804.985312 -631.335021 
L 807.164241 -632.69647 
L 809.480927 -634.05792 
L 811.830116 -635.419369 
L 814.110396 -636.780818 
L 816.234105 -638.142268 
L 818.13484 -639.503717 
L 819.771446 -640.865166 
L 821.12822 -642.226616 
L 822.211823 -643.588065 
L 823.045947 -644.949515 
L 823.66502 -646.310964 
L 824.108149 -647.672413 
L 825.771793 -647.672413 
L 825.771793 -647.672413 
L 826.214921 -646.310964 
L 826.833995 -644.949515 
L 827.668118 -643.588065 
L 828.751721 -642.226616 
L 830.108496 -640.865166 
L 831.745101 -639.503717 
L 833.645836 -638.142268 
L 835.769546 -636.780818 
L 838.049825 -635.419369 
L 840.399014 -634.05792 
L 842.7157 -632.69647 
L 844.894629 -631.335021 
L 846.837346 -629.973571 
L 848.461679 -628.612122 
L 849.7085 -627.250673 
L 850.544879 -625.889223 
L 850.963619 -624.527774 
L 850.979971 -623.166324 
L 850.626764 -621.804875 
L 849.949244 -620.443426 
L 849.00054 -619.081976 
L 847.838119 -617.720527 
L 846.52109 -616.359078 
L 845.107851 -614.997628 
L 843.653628 -613.636179 
L 842.207689 -612.274729 
L 840.810426 -610.91328 
L 839.490831 -609.551831 
L 838.265025 -608.190381 
L 837.136381 -606.828932 
L 836.097409 -605.467483 
L 835.133151 -604.106033 
L 834.225436 -602.744584 
L 833.357123 -601.383134 
L 832.51551 -600.021685 
L 831.694328 -598.660236 
L 830.894111 -597.298786 
L 830.121142 -595.937337 
L 829.385449 -594.575887 
L 828.698472 -593.214438 
L 828.070945 -591.852989 
L 827.511388 -590.491539 
L 827.025319 -589.13009 
L 826.615131 -587.768641 
L 826.280384 -586.407191 
L 826.018267 -585.045742 
L 825.824016 -583.684292 
L 825.69119 -582.322843 
L 825.611815 -580.961394 
L 825.576483 -579.599944 
L 825.574552 -578.238495 
L 825.594553 -576.877046 
L 825.624839 -575.515596 
L 825.654454 -574.154147 
L 825.674078 -572.792697 
L 825.676882 -571.431248 
L 825.659104 -570.069799 
L 825.620205 -568.708349 
L 825.562571 -567.3469 
L 825.490805 -565.98545 
L 825.410773 -564.624001 
L 825.32858 -563.262552 
L 825.249685 -561.901102 
L 825.178282 -560.539653 
L 825.11701 -559.178204 
L 825.066978 -557.816754 
L 825.028027 -556.455305 
L 824.999121 -555.093855 
L 824.978763 -553.732406 
L 824.96538 -552.370957 
L 824.95761 -551.009507 
L 824.954508 -549.648058 
L 824.955655 -548.286608 
L 824.961208 -546.925159 
L 824.971883 -545.56371 
L 824.98887 -544.20226 
L 825.013677 -542.840811 
L 825.047874 -541.479362 
L 825.092755 -540.117912 
L 825.148921 -538.756463 
L 825.215866 -537.395013 
L 825.291626 -536.033564 
L 825.372629 -534.672115 
L 825.453802 -533.310665 
L 825.529007 -531.949216 
L 825.591764 -530.587767 
L 825.636153 -529.226317 
L 825.657733 -527.864868 
L 825.654276 -526.503418 
L 825.626142 -525.141969 
L 825.576219 -523.78052 
L 825.509434 -522.41907 
L 825.431954 -521.057621 
L 825.35025 -519.696171 
L 825.270229 -518.334722 
L 825.196581 -516.973273 
L 825.13243 -515.611823 
L 825.079302 -514.250374 
L 825.037336 -512.888925 
z
" style="stroke: #3d3d3d; stroke-opacity: 0.5"/>
    </defs>
    <g clip-path="url(#p250517539c)">
     <use xlink:href="#m6762a5850b" x="0" y="722.183991" style="fill: #e1812c; fill-opacity: 0.5; stroke: #3d3d3d; stroke-opacity: 0.5"/>
    </g>
   </g>
   <g id="line2d_7">
    <path d="M 108.839971 141.302078 
L 108.839971 92.582759 
" clip-path="url(#p250517539c)" style="fill: none; stroke: #3d3d3d; stroke-width: 1.5; stroke-linecap: round"/>
   </g>
   <g id="line2d_8">
    <path d="M 108.839971 121.570962 
L 108.839971 102.944798 
" clip-path="url(#p250517539c)" style="fill: none; stroke: #3d3d3d; stroke-width: 4.5; stroke-linecap: round"/>
   </g>
   <g id="line2d_9">
    <path d="M 108.839971 112.264468 
" clip-path="url(#p250517539c)" style="fill: none; stroke: #3d3d3d; stroke-width: 1.5; stroke-linecap: round"/>
    <defs>
     <path id="m5def109bd1" d="M 1.875 0 
L -1.875 -0 
" style="stroke: #ffffff; stroke-width: 0.9"/>
    </defs>
    <g clip-path="url(#p250517539c)">
     <use xlink:href="#m5def109bd1" x="108.839971" y="112.264468" style="fill: #ffffff; stroke: #ffffff; stroke-width: 0.9"/>
    </g>
   </g>
   <g id="line2d_10">
    <path d="M 173.939971 249.481422 
L 173.939971 95.670243 
" clip-path="url(#p250517539c)" style="fill: none; stroke: #3d3d3d; stroke-width: 1.5; stroke-linecap: round"/>
   </g>
   <g id="line2d_11">
    <path d="M 173.939971 175.574185 
L 173.939971 123.937758 
" clip-path="url(#p250517539c)" style="fill: none; stroke: #3d3d3d; stroke-width: 4.5; stroke-linecap: round"/>
   </g>
   <g id="line2d_12">
    <path d="M 173.939971 148.497128 
" clip-path="url(#p250517539c)" style="fill: none; stroke: #3d3d3d; stroke-width: 1.5; stroke-linecap: round"/>
    <g clip-path="url(#p250517539c)">
     <use xlink:href="#m5def109bd1" x="173.939971" y="148.497128" style="fill: #ffffff; stroke: #ffffff; stroke-width: 0.9"/>
    </g>
   </g>
   <g id="line2d_13">
    <path d="M 239.039971 284.219735 
L 239.039971 96.552611 
" clip-path="url(#p250517539c)" style="fill: none; stroke: #3d3d3d; stroke-width: 1.5; stroke-linecap: round"/>
   </g>
   <g id="line2d_14">
    <path d="M 239.039971 188.200601 
L 239.039971 108.480357 
" clip-path="url(#p250517539c)" style="fill: none; stroke: #3d3d3d; stroke-width: 4.5; stroke-linecap: round"/>
   </g>
   <g id="line2d_15">
    <path d="M 239.039971 131.736791 
" clip-path="url(#p250517539c)" style="fill: none; stroke: #3d3d3d; stroke-width: 1.5; stroke-linecap: round"/>
    <g clip-path="url(#p250517539c)">
     <use xlink:href="#m5def109bd1" x="239.039971" y="131.736791" style="fill: #ffffff; stroke: #ffffff; stroke-width: 0.9"/>
    </g>
   </g>
   <g id="line2d_16">
    <path d="M 304.139971 126.850577 
L 304.139971 89.079874 
" clip-path="url(#p250517539c)" style="fill: none; stroke: #3d3d3d; stroke-width: 1.5; stroke-linecap: round"/>
   </g>
   <g id="line2d_17">
    <path d="M 304.139971 107.612677 
L 304.139971 94.061279 
" clip-path="url(#p250517539c)" style="fill: none; stroke: #3d3d3d; stroke-width: 4.5; stroke-linecap: round"/>
   </g>
   <g id="line2d_18">
    <path d="M 304.139971 100.261358 
" clip-path="url(#p250517539c)" style="fill: none; stroke: #3d3d3d; stroke-width: 1.5; stroke-linecap: round"/>
    <g clip-path="url(#p250517539c)">
     <use xlink:href="#m5def109bd1" x="304.139971" y="100.261358" style="fill: #ffffff; stroke: #ffffff; stroke-width: 0.9"/>
    </g>
   </g>
   <g id="line2d_19">
    <path d="M 369.239971 378.007325 
L 369.239971 222.916436 
" clip-path="url(#p250517539c)" style="fill: none; stroke: #3d3d3d; stroke-width: 1.5; stroke-linecap: round"/>
   </g>
   <g id="line2d_20">
    <path d="M 369.239971 355.594853 
L 369.239971 294.147552 
" clip-path="url(#p250517539c)" style="fill: none; stroke: #3d3d3d; stroke-width: 4.5; stroke-linecap: round"/>
   </g>
   <g id="line2d_21">
    <path d="M 369.239971 330.853929 
" clip-path="url(#p250517539c)" style="fill: none; stroke: #3d3d3d; stroke-width: 1.5; stroke-linecap: round"/>
    <g clip-path="url(#p250517539c)">
     <use xlink:href="#m5def109bd1" x="369.239971" y="330.853929" style="fill: #ffffff; stroke: #ffffff; stroke-width: 0.9"/>
    </g>
   </g>
   <g id="line2d_22">
    <path d="M 408.299971 536.4 
L 460.379971 536.4 
" clip-path="url(#p250517539c)" style="fill: none; stroke: #3d3d3d; stroke-linecap: round"/>
   </g>
   <g id="line2d_23">
    <path d="M 499.439971 385.013643 
L 499.439971 255.241099 
" clip-path="url(#p250517539c)" style="fill: none; stroke: #3d3d3d; stroke-width: 1.5; stroke-linecap: round"/>
   </g>
   <g id="line2d_24">
    <path d="M 499.439971 348.750087 
L 499.439971 298.479684 
" clip-path="url(#p250517539c)" style="fill: none; stroke: #3d3d3d; stroke-width: 4.5; stroke-linecap: round"/>
   </g>
   <g id="line2d_25">
    <path d="M 499.439971 329.647957 
" clip-path="url(#p250517539c)" style="fill: none; stroke: #3d3d3d; stroke-width: 1.5; stroke-linecap: round"/>
    <g clip-path="url(#p250517539c)">
     <use xlink:href="#m5def109bd1" x="499.439971" y="329.647957" style="fill: #ffffff; stroke: #ffffff; stroke-width: 0.9"/>
    </g>
   </g>
   <g id="line2d_26">
    <path d="M 564.539971 143.028463 
L 564.539971 92.25137 
" clip-path="url(#p250517539c)" style="fill: none; stroke: #3d3d3d; stroke-width: 1.5; stroke-linecap: round"/>
   </g>
   <g id="line2d_27">
    <path d="M 564.539971 118.226107 
L 564.539971 101.280169 
" clip-path="url(#p250517539c)" style="fill: none; stroke: #3d3d3d; stroke-width: 4.5; stroke-linecap: round"/>
   </g>
   <g id="line2d_28">
    <path d="M 564.539971 107.516766 
" clip-path="url(#p250517539c)" style="fill: none; stroke: #3d3d3d; stroke-width: 1.5; stroke-linecap: round"/>
    <g clip-path="url(#p250517539c)">
     <use xlink:href="#m5def109bd1" x="564.539971" y="107.516766" style="fill: #ffffff; stroke: #ffffff; stroke-width: 0.9"/>
    </g>
   </g>
   <g id="line2d_29">
    <path d="M 603.599971 536.4 
L 655.679971 536.4 
" clip-path="url(#p250517539c)" style="fill: none; stroke: #3d3d3d; stroke-linecap: round"/>
   </g>
   <g id="line2d_30">
    <path d="M 694.739971 124.356382 
L 694.739971 88.626005 
" clip-path="url(#p250517539c)" style="fill: none; stroke: #3d3d3d; stroke-width: 1.5; stroke-linecap: round"/>
   </g>
   <g id="line2d_31">
    <path d="M 694.739971 106.444842 
L 694.739971 94.242729 
" clip-path="url(#p250517539c)" style="fill: none; stroke: #3d3d3d; stroke-width: 4.5; stroke-linecap: round"/>
   </g>
   <g id="line2d_32">
    <path d="M 694.739971 99.410389 
" clip-path="url(#p250517539c)" style="fill: none; stroke: #3d3d3d; stroke-width: 1.5; stroke-linecap: round"/>
    <g clip-path="url(#p250517539c)">
     <use xlink:href="#m5def109bd1" x="694.739971" y="99.410389" style="fill: #ffffff; stroke: #ffffff; stroke-width: 0.9"/>
    </g>
   </g>
   <g id="line2d_33">
    <path d="M 759.839971 137.043 
L 759.839971 92.267359 
" clip-path="url(#p250517539c)" style="fill: none; stroke: #3d3d3d; stroke-width: 1.5; stroke-linecap: round"/>
   </g>
   <g id="line2d_34">
    <path d="M 759.839971 116.888838 
L 759.839971 101.680817 
" clip-path="url(#p250517539c)" style="fill: none; stroke: #3d3d3d; stroke-width: 4.5; stroke-linecap: round"/>
   </g>
   <g id="line2d_35">
    <path d="M 759.839971 110.786493 
" clip-path="url(#p250517539c)" style="fill: none; stroke: #3d3d3d; stroke-width: 1.5; stroke-linecap: round"/>
    <g clip-path="url(#p250517539c)">
     <use xlink:href="#m5def109bd1" x="759.839971" y="110.786493" style="fill: #ffffff; stroke: #ffffff; stroke-width: 0.9"/>
    </g>
   </g>
   <g id="line2d_36">
    <path d="M 824.939971 123.952602 
L 824.939971 88.992699 
" clip-path="url(#p250517539c)" style="fill: none; stroke: #3d3d3d; stroke-width: 1.5; stroke-linecap: round"/>
   </g>
   <g id="line2d_37">
    <path d="M 824.939971 108.379395 
L 824.939971 94.011227 
" clip-path="url(#p250517539c)" style="fill: none; stroke: #3d3d3d; stroke-width: 4.5; stroke-linecap: round"/>
   </g>
   <g id="line2d_38">
    <path d="M 824.939971 101.688935 
" clip-path="url(#p250517539c)" style="fill: none; stroke: #3d3d3d; stroke-width: 1.5; stroke-linecap: round"/>
    <g clip-path="url(#p250517539c)">
     <use xlink:href="#m5def109bd1" x="824.939971" y="101.688935" style="fill: #ffffff; stroke: #ffffff; stroke-width: 0.9"/>
    </g>
   </g>
   <g id="patch_3">
    <path d="M 76.289971 561.6 
L 857.489971 561.6 
" style="fill: none; stroke: #cccccc; stroke-width: 0.8; stroke-linejoin: miter; stroke-linecap: square"/>
   </g>
  </g>
 </g>
 <defs>
  <clipPath id="p250517539c">
   <rect x="76.289971" y="7.2" width="781.2" height="554.4"/>
  </clipPath>
 </defs>
</svg>
