<?xml version="1.0" encoding="utf-8" standalone="no"?>
<!DOCTYPE svg PUBLIC "-//W3C//DTD SVG 1.1//EN"
  "http://www.w3.org/Graphics/SVG/1.1/DTD/svg11.dtd">
<svg xmlns:xlink="http://www.w3.org/1999/xlink" width="857.7625pt" height="722.183991pt" viewBox="0 0 857.7625 722.183991" xmlns="http://www.w3.org/2000/svg" version="1.1">
 <metadata>
  <rdf:RDF xmlns:dc="http://purl.org/dc/elements/1.1/" xmlns:cc="http://creativecommons.org/ns#" xmlns:rdf="http://www.w3.org/1999/02/22-rdf-syntax-ns#">
   <cc:Work>
    <dc:type rdf:resource="http://purl.org/dc/dcmitype/StillImage"/>
    <dc:date>2024-03-17T20:48:18.355611</dc:date>
    <dc:format>image/svg+xml</dc:format>
    <dc:creator>
     <cc:Agent>
      <dc:title>Matplotlib v3.8.0, https://matplotlib.org/</dc:title>
     </cc:Agent>
    </dc:creator>
   </cc:Work>
  </rdf:RDF>
 </metadata>
 <defs>
  <style type="text/css">*{stroke-linejoin: round; stroke-linecap: butt}</style>
 </defs>
 <g id="figure_1">
  <g id="patch_1">
   <path d="M 0 722.183991 
L 857.7625 722.183991 
L 857.7625 0 
L 0 0 
L 0 722.183991 
z
" style="fill: none"/>
  </g>
  <g id="axes_1">
   <g id="patch_2">
    <path d="M 69.3625 561.6 
L 850.5625 561.6 
L 850.5625 7.2 
L 69.3625 7.2 
L 69.3625 561.6 
z
" style="fill: none"/>
   </g>
   <g id="matplotlib.axis_1">
    <g id="xtick_1">
     <g id="text_1">
      <!-- MSA -->
      <g style="fill: #262626" transform="translate(104.788986 610.465141) rotate(-45) scale(0.2 -0.2)">
       <defs>
        <path id="DejaVuSans-4d" d="M 628 4666 
L 1569 4666 
L 2759 1491 
L 3956 4666 
L 4897 4666 
L 4897 0 
L 4281 0 
L 4281 4097 
L 3078 897 
L 2444 897 
L 1241 4097 
L 1241 0 
L 628 0 
L 628 4666 
z
" transform="scale(0.015625)"/>
        <path id="DejaVuSans-53" d="M 3425 4513 
L 3425 3897 
Q 3066 4069 2747 4153 
Q 2428 4238 2131 4238 
Q 1616 4238 1336 4038 
Q 1056 3838 1056 3469 
Q 1056 3159 1242 3001 
Q 1428 2844 1947 2747 
L 2328 2669 
Q 3034 2534 3370 2195 
Q 3706 1856 3706 1288 
Q 3706 609 3251 259 
Q 2797 -91 1919 -91 
Q 1588 -91 1214 -16 
Q 841 59 441 206 
L 441 856 
Q 825 641 1194 531 
Q 1563 422 1919 422 
Q 2459 422 2753 634 
Q 3047 847 3047 1241 
Q 3047 1584 2836 1778 
Q 2625 1972 2144 2069 
L 1759 2144 
Q 1053 2284 737 2584 
Q 422 2884 422 3419 
Q 422 4038 858 4394 
Q 1294 4750 2059 4750 
Q 2388 4750 2728 4690 
Q 3069 4631 3425 4513 
z
" transform="scale(0.015625)"/>
        <path id="DejaVuSans-41" d="M 2188 4044 
L 1331 1722 
L 3047 1722 
L 2188 4044 
z
M 1831 4666 
L 2547 4666 
L 4325 0 
L 3669 0 
L 3244 1197 
L 1141 1197 
L 716 0 
L 50 0 
L 1831 4666 
z
" transform="scale(0.015625)"/>
       </defs>
       <use xlink:href="#DejaVuSans-4d"/>
       <use xlink:href="#DejaVuSans-53" x="86.279297"/>
       <use xlink:href="#DejaVuSans-41" x="151.630859"/>
      </g>
     </g>
    </g>
    <g id="xtick_2">
     <g id="text_2">
      <!-- Template -->
      <g style="fill: #262626" transform="translate(182.97819 643.875936) rotate(-45) scale(0.2 -0.2)">
       <defs>
        <path id="DejaVuSans-54" d="M -19 4666 
L 3928 4666 
L 3928 4134 
L 2272 4134 
L 2272 0 
L 1638 0 
L 1638 4134 
L -19 4134 
L -19 4666 
z
" transform="scale(0.015625)"/>
        <path id="DejaVuSans-65" d="M 3597 1894 
L 3597 1613 
L 953 1613 
Q 991 1019 1311 708 
Q 1631 397 2203 397 
Q 2534 397 2845 478 
Q 3156 559 3463 722 
L 3463 178 
Q 3153 47 2828 -22 
Q 2503 -91 2169 -91 
Q 1331 -91 842 396 
Q 353 884 353 1716 
Q 353 2575 817 3079 
Q 1281 3584 2069 3584 
Q 2775 3584 3186 3129 
Q 3597 2675 3597 1894 
z
M 3022 2063 
Q 3016 2534 2758 2815 
Q 2500 3097 2075 3097 
Q 1594 3097 1305 2825 
Q 1016 2553 972 2059 
L 3022 2063 
z
" transform="scale(0.015625)"/>
        <path id="DejaVuSans-6d" d="M 3328 2828 
Q 3544 3216 3844 3400 
Q 4144 3584 4550 3584 
Q 5097 3584 5394 3201 
Q 5691 2819 5691 2113 
L 5691 0 
L 5113 0 
L 5113 2094 
Q 5113 2597 4934 2840 
Q 4756 3084 4391 3084 
Q 3944 3084 3684 2787 
Q 3425 2491 3425 1978 
L 3425 0 
L 2847 0 
L 2847 2094 
Q 2847 2600 2669 2842 
Q 2491 3084 2119 3084 
Q 1678 3084 1418 2786 
Q 1159 2488 1159 1978 
L 1159 0 
L 581 0 
L 581 3500 
L 1159 3500 
L 1159 2956 
Q 1356 3278 1631 3431 
Q 1906 3584 2284 3584 
Q 2666 3584 2933 3390 
Q 3200 3197 3328 2828 
z
" transform="scale(0.015625)"/>
        <path id="DejaVuSans-70" d="M 1159 525 
L 1159 -1331 
L 581 -1331 
L 581 3500 
L 1159 3500 
L 1159 2969 
Q 1341 3281 1617 3432 
Q 1894 3584 2278 3584 
Q 2916 3584 3314 3078 
Q 3713 2572 3713 1747 
Q 3713 922 3314 415 
Q 2916 -91 2278 -91 
Q 1894 -91 1617 61 
Q 1341 213 1159 525 
z
M 3116 1747 
Q 3116 2381 2855 2742 
Q 2594 3103 2138 3103 
Q 1681 3103 1420 2742 
Q 1159 2381 1159 1747 
Q 1159 1113 1420 752 
Q 1681 391 2138 391 
Q 2594 391 2855 752 
Q 3116 1113 3116 1747 
z
" transform="scale(0.015625)"/>
        <path id="DejaVuSans-6c" d="M 603 4863 
L 1178 4863 
L 1178 0 
L 603 0 
L 603 4863 
z
" transform="scale(0.015625)"/>
        <path id="DejaVuSans-61" d="M 2194 1759 
Q 1497 1759 1228 1600 
Q 959 1441 959 1056 
Q 959 750 1161 570 
Q 1363 391 1709 391 
Q 2188 391 2477 730 
Q 2766 1069 2766 1631 
L 2766 1759 
L 2194 1759 
z
M 3341 1997 
L 3341 0 
L 2766 0 
L 2766 531 
Q 2569 213 2275 61 
Q 1981 -91 1556 -91 
Q 1019 -91 701 211 
Q 384 513 384 1019 
Q 384 1609 779 1909 
Q 1175 2209 1959 2209 
L 2766 2209 
L 2766 2266 
Q 2766 2663 2505 2880 
Q 2244 3097 1772 3097 
Q 1472 3097 1187 3025 
Q 903 2953 641 2809 
L 641 3341 
Q 956 3463 1253 3523 
Q 1550 3584 1831 3584 
Q 2591 3584 2966 3190 
Q 3341 2797 3341 1997 
z
" transform="scale(0.015625)"/>
        <path id="DejaVuSans-74" d="M 1172 4494 
L 1172 3500 
L 2356 3500 
L 2356 3053 
L 1172 3053 
L 1172 1153 
Q 1172 725 1289 603 
Q 1406 481 1766 481 
L 2356 481 
L 2356 0 
L 1766 0 
Q 1100 0 847 248 
Q 594 497 594 1153 
L 594 3053 
L 172 3053 
L 172 3500 
L 594 3500 
L 594 4494 
L 1172 4494 
z
" transform="scale(0.015625)"/>
       </defs>
       <use xlink:href="#DejaVuSans-54"/>
       <use xlink:href="#DejaVuSans-65" x="44.083984"/>
       <use xlink:href="#DejaVuSans-6d" x="105.607422"/>
       <use xlink:href="#DejaVuSans-70" x="203.019531"/>
       <use xlink:href="#DejaVuSans-6c" x="266.496094"/>
       <use xlink:href="#DejaVuSans-61" x="294.279297"/>
       <use xlink:href="#DejaVuSans-74" x="355.558594"/>
       <use xlink:href="#DejaVuSans-65" x="394.767578"/>
      </g>
     </g>
    </g>
    <g id="xtick_3">
     <g id="text_3">
      <!-- Backbone -->
      <g style="fill: #262626" transform="translate(289.478183 648.975944) rotate(-45) scale(0.2 -0.2)">
       <defs>
        <path id="DejaVuSans-42" d="M 1259 2228 
L 1259 519 
L 2272 519 
Q 2781 519 3026 730 
Q 3272 941 3272 1375 
Q 3272 1813 3026 2020 
Q 2781 2228 2272 2228 
L 1259 2228 
z
M 1259 4147 
L 1259 2741 
L 2194 2741 
Q 2656 2741 2882 2914 
Q 3109 3088 3109 3444 
Q 3109 3797 2882 3972 
Q 2656 4147 2194 4147 
L 1259 4147 
z
M 628 4666 
L 2241 4666 
Q 2963 4666 3353 4366 
Q 3744 4066 3744 3513 
Q 3744 3084 3544 2831 
Q 3344 2578 2956 2516 
Q 3422 2416 3680 2098 
Q 3938 1781 3938 1306 
Q 3938 681 3513 340 
Q 3088 0 2303 0 
L 628 0 
L 628 4666 
z
" transform="scale(0.015625)"/>
        <path id="DejaVuSans-63" d="M 3122 3366 
L 3122 2828 
Q 2878 2963 2633 3030 
Q 2388 3097 2138 3097 
Q 1578 3097 1268 2742 
Q 959 2388 959 1747 
Q 959 1106 1268 751 
Q 1578 397 2138 397 
Q 2388 397 2633 464 
Q 2878 531 3122 666 
L 3122 134 
Q 2881 22 2623 -34 
Q 2366 -91 2075 -91 
Q 1284 -91 818 406 
Q 353 903 353 1747 
Q 353 2603 823 3093 
Q 1294 3584 2113 3584 
Q 2378 3584 2631 3529 
Q 2884 3475 3122 3366 
z
" transform="scale(0.015625)"/>
        <path id="DejaVuSans-6b" d="M 581 4863 
L 1159 4863 
L 1159 1991 
L 2875 3500 
L 3609 3500 
L 1753 1863 
L 3688 0 
L 2938 0 
L 1159 1709 
L 1159 0 
L 581 0 
L 581 4863 
z
" transform="scale(0.015625)"/>
        <path id="DejaVuSans-62" d="M 3116 1747 
Q 3116 2381 2855 2742 
Q 2594 3103 2138 3103 
Q 1681 3103 1420 2742 
Q 1159 2381 1159 1747 
Q 1159 1113 1420 752 
Q 1681 391 2138 391 
Q 2594 391 2855 752 
Q 3116 1113 3116 1747 
z
M 1159 2969 
Q 1341 3281 1617 3432 
Q 1894 3584 2278 3584 
Q 2916 3584 3314 3078 
Q 3713 2572 3713 1747 
Q 3713 922 3314 415 
Q 2916 -91 2278 -91 
Q 1894 -91 1617 61 
Q 1341 213 1159 525 
L 1159 0 
L 581 0 
L 581 4863 
L 1159 4863 
L 1159 2969 
z
" transform="scale(0.015625)"/>
        <path id="DejaVuSans-6f" d="M 1959 3097 
Q 1497 3097 1228 2736 
Q 959 2375 959 1747 
Q 959 1119 1226 758 
Q 1494 397 1959 397 
Q 2419 397 2687 759 
Q 2956 1122 2956 1747 
Q 2956 2369 2687 2733 
Q 2419 3097 1959 3097 
z
M 1959 3584 
Q 2709 3584 3137 3096 
Q 3566 2609 3566 1747 
Q 3566 888 3137 398 
Q 2709 -91 1959 -91 
Q 1206 -91 779 398 
Q 353 888 353 1747 
Q 353 2609 779 3096 
Q 1206 3584 1959 3584 
z
" transform="scale(0.015625)"/>
        <path id="DejaVuSans-6e" d="M 3513 2113 
L 3513 0 
L 2938 0 
L 2938 2094 
Q 2938 2591 2744 2837 
Q 2550 3084 2163 3084 
Q 1697 3084 1428 2787 
Q 1159 2491 1159 1978 
L 1159 0 
L 581 0 
L 581 3500 
L 1159 3500 
L 1159 2956 
Q 1366 3272 1645 3428 
Q 1925 3584 2291 3584 
Q 2894 3584 3203 3211 
Q 3513 2838 3513 2113 
z
" transform="scale(0.015625)"/>
       </defs>
       <use xlink:href="#DejaVuSans-42"/>
       <use xlink:href="#DejaVuSans-61" x="68.603516"/>
       <use xlink:href="#DejaVuSans-63" x="129.882812"/>
       <use xlink:href="#DejaVuSans-6b" x="184.863281"/>
       <use xlink:href="#DejaVuSans-62" x="242.773438"/>
       <use xlink:href="#DejaVuSans-6f" x="306.25"/>
       <use xlink:href="#DejaVuSans-6e" x="367.431641"/>
       <use xlink:href="#DejaVuSans-65" x="430.810547"/>
      </g>
     </g>
    </g>
    <g id="xtick_4">
     <g id="text_4">
      <!-- Heuristic C-$\beta$ -->
      <g style="fill: #262626" transform="translate(379.63517 670.706219) rotate(-45) scale(0.2 -0.2)">
       <defs>
        <path id="DejaVuSans-48" d="M 628 4666 
L 1259 4666 
L 1259 2753 
L 3553 2753 
L 3553 4666 
L 4184 4666 
L 4184 0 
L 3553 0 
L 3553 2222 
L 1259 2222 
L 1259 0 
L 628 0 
L 628 4666 
z
" transform="scale(0.015625)"/>
        <path id="DejaVuSans-75" d="M 544 1381 
L 544 3500 
L 1119 3500 
L 1119 1403 
Q 1119 906 1312 657 
Q 1506 409 1894 409 
Q 2359 409 2629 706 
Q 2900 1003 2900 1516 
L 2900 3500 
L 3475 3500 
L 3475 0 
L 2900 0 
L 2900 538 
Q 2691 219 2414 64 
Q 2138 -91 1772 -91 
Q 1169 -91 856 284 
Q 544 659 544 1381 
z
M 1991 3584 
L 1991 3584 
z
" transform="scale(0.015625)"/>
        <path id="DejaVuSans-72" d="M 2631 2963 
Q 2534 3019 2420 3045 
Q 2306 3072 2169 3072 
Q 1681 3072 1420 2755 
Q 1159 2438 1159 1844 
L 1159 0 
L 581 0 
L 581 3500 
L 1159 3500 
L 1159 2956 
Q 1341 3275 1631 3429 
Q 1922 3584 2338 3584 
Q 2397 3584 2469 3576 
Q 2541 3569 2628 3553 
L 2631 2963 
z
" transform="scale(0.015625)"/>
        <path id="DejaVuSans-69" d="M 603 3500 
L 1178 3500 
L 1178 0 
L 603 0 
L 603 3500 
z
M 603 4863 
L 1178 4863 
L 1178 4134 
L 603 4134 
L 603 4863 
z
" transform="scale(0.015625)"/>
        <path id="DejaVuSans-73" d="M 2834 3397 
L 2834 2853 
Q 2591 2978 2328 3040 
Q 2066 3103 1784 3103 
Q 1356 3103 1142 2972 
Q 928 2841 928 2578 
Q 928 2378 1081 2264 
Q 1234 2150 1697 2047 
L 1894 2003 
Q 2506 1872 2764 1633 
Q 3022 1394 3022 966 
Q 3022 478 2636 193 
Q 2250 -91 1575 -91 
Q 1294 -91 989 -36 
Q 684 19 347 128 
L 347 722 
Q 666 556 975 473 
Q 1284 391 1588 391 
Q 1994 391 2212 530 
Q 2431 669 2431 922 
Q 2431 1156 2273 1281 
Q 2116 1406 1581 1522 
L 1381 1569 
Q 847 1681 609 1914 
Q 372 2147 372 2553 
Q 372 3047 722 3315 
Q 1072 3584 1716 3584 
Q 2034 3584 2315 3537 
Q 2597 3491 2834 3397 
z
" transform="scale(0.015625)"/>
        <path id="DejaVuSans-20" transform="scale(0.015625)"/>
        <path id="DejaVuSans-43" d="M 4122 4306 
L 4122 3641 
Q 3803 3938 3442 4084 
Q 3081 4231 2675 4231 
Q 1875 4231 1450 3742 
Q 1025 3253 1025 2328 
Q 1025 1406 1450 917 
Q 1875 428 2675 428 
Q 3081 428 3442 575 
Q 3803 722 4122 1019 
L 4122 359 
Q 3791 134 3420 21 
Q 3050 -91 2638 -91 
Q 1578 -91 968 557 
Q 359 1206 359 2328 
Q 359 3453 968 4101 
Q 1578 4750 2638 4750 
Q 3056 4750 3426 4639 
Q 3797 4528 4122 4306 
z
" transform="scale(0.015625)"/>
        <path id="DejaVuSans-2d" d="M 313 2009 
L 1997 2009 
L 1997 1497 
L 313 1497 
L 313 2009 
z
" transform="scale(0.015625)"/>
        <path id="DejaVuSans-Oblique-3b2" d="M 872 216 
L 572 -1331 
L -6 -1331 
L 928 3478 
Q 1206 4903 2538 4903 
Q 3888 4903 3659 3700 
Q 3503 2844 2894 2531 
Q 3713 2250 3553 1416 
Q 3272 -69 1759 -66 
Q 1097 -63 872 216 
z
M 1019 966 
Q 1259 422 1875 425 
Q 2775 425 2966 1406 
Q 3138 2288 1675 2219 
L 1778 2750 
Q 2909 2731 3106 3750 
Q 3241 4438 2509 4434 
Q 1691 4434 1503 3459 
L 1019 966 
z
" transform="scale(0.015625)"/>
       </defs>
       <use xlink:href="#DejaVuSans-48" transform="translate(0 0.390625)"/>
       <use xlink:href="#DejaVuSans-65" transform="translate(75.195312 0.390625)"/>
       <use xlink:href="#DejaVuSans-75" transform="translate(136.71875 0.390625)"/>
       <use xlink:href="#DejaVuSans-72" transform="translate(200.097656 0.390625)"/>
       <use xlink:href="#DejaVuSans-69" transform="translate(241.210938 0.390625)"/>
       <use xlink:href="#DejaVuSans-73" transform="translate(268.994141 0.390625)"/>
       <use xlink:href="#DejaVuSans-74" transform="translate(321.09375 0.390625)"/>
       <use xlink:href="#DejaVuSans-69" transform="translate(360.302734 0.390625)"/>
       <use xlink:href="#DejaVuSans-63" transform="translate(388.085938 0.390625)"/>
       <use xlink:href="#DejaVuSans-20" transform="translate(443.066406 0.390625)"/>
       <use xlink:href="#DejaVuSans-43" transform="translate(474.853516 0.390625)"/>
       <use xlink:href="#DejaVuSans-2d" transform="translate(544.677734 0.390625)"/>
       <use xlink:href="#DejaVuSans-Oblique-3b2" transform="translate(580.761719 0.390625)"/>
      </g>
     </g>
    </g>
    <g id="xtick_5">
     <g id="text_5">
      <!-- Template C-$\beta$ -->
      <g style="fill: #262626" transform="translate(486.992529 674.94886) rotate(-45) scale(0.2 -0.2)">
       <use xlink:href="#DejaVuSans-54" transform="translate(0 0.390625)"/>
       <use xlink:href="#DejaVuSans-65" transform="translate(61.083984 0.390625)"/>
       <use xlink:href="#DejaVuSans-6d" transform="translate(122.607422 0.390625)"/>
       <use xlink:href="#DejaVuSans-70" transform="translate(220.019531 0.390625)"/>
       <use xlink:href="#DejaVuSans-6c" transform="translate(283.496094 0.390625)"/>
       <use xlink:href="#DejaVuSans-61" transform="translate(311.279297 0.390625)"/>
       <use xlink:href="#DejaVuSans-74" transform="translate(372.558594 0.390625)"/>
       <use xlink:href="#DejaVuSans-65" transform="translate(411.767578 0.390625)"/>
       <use xlink:href="#DejaVuSans-20" transform="translate(473.291016 0.390625)"/>
       <use xlink:href="#DejaVuSans-43" transform="translate(505.078125 0.390625)"/>
       <use xlink:href="#DejaVuSans-2d" transform="translate(574.902344 0.390625)"/>
       <use xlink:href="#DejaVuSans-Oblique-3b2" transform="translate(610.986328 0.390625)"/>
      </g>
     </g>
    </g>
    <g id="xtick_6">
     <g id="text_6">
      <!-- AttnPacker -->
      <g style="fill: #262626" transform="translate(617.905383 655.348744) rotate(-45) scale(0.2 -0.2)">
       <defs>
        <path id="DejaVuSans-50" d="M 1259 4147 
L 1259 2394 
L 2053 2394 
Q 2494 2394 2734 2622 
Q 2975 2850 2975 3272 
Q 2975 3691 2734 3919 
Q 2494 4147 2053 4147 
L 1259 4147 
z
M 628 4666 
L 2053 4666 
Q 2838 4666 3239 4311 
Q 3641 3956 3641 3272 
Q 3641 2581 3239 2228 
Q 2838 1875 2053 1875 
L 1259 1875 
L 1259 0 
L 628 0 
L 628 4666 
z
" transform="scale(0.015625)"/>
       </defs>
       <use xlink:href="#DejaVuSans-41"/>
       <use xlink:href="#DejaVuSans-74" x="66.658203"/>
       <use xlink:href="#DejaVuSans-74" x="105.867188"/>
       <use xlink:href="#DejaVuSans-6e" x="145.076172"/>
       <use xlink:href="#DejaVuSans-50" x="208.455078"/>
       <use xlink:href="#DejaVuSans-61" x="264.257812"/>
       <use xlink:href="#DejaVuSans-63" x="325.537109"/>
       <use xlink:href="#DejaVuSans-6b" x="380.517578"/>
       <use xlink:href="#DejaVuSans-65" x="434.802734"/>
       <use xlink:href="#DejaVuSans-72" x="496.326172"/>
      </g>
     </g>
    </g>
    <g id="xtick_7">
     <g id="text_7">
      <!-- AttnPacker (AF) -->
      <g style="fill: #262626" transform="translate(696.167508 688.686619) rotate(-45) scale(0.2 -0.2)">
       <defs>
        <path id="DejaVuSans-28" d="M 1984 4856 
Q 1566 4138 1362 3434 
Q 1159 2731 1159 2009 
Q 1159 1288 1364 580 
Q 1569 -128 1984 -844 
L 1484 -844 
Q 1016 -109 783 600 
Q 550 1309 550 2009 
Q 550 2706 781 3412 
Q 1013 4119 1484 4856 
L 1984 4856 
z
" transform="scale(0.015625)"/>
        <path id="DejaVuSans-46" d="M 628 4666 
L 3309 4666 
L 3309 4134 
L 1259 4134 
L 1259 2759 
L 3109 2759 
L 3109 2228 
L 1259 2228 
L 1259 0 
L 628 0 
L 628 4666 
z
" transform="scale(0.015625)"/>
        <path id="DejaVuSans-29" d="M 513 4856 
L 1013 4856 
Q 1481 4119 1714 3412 
Q 1947 2706 1947 2009 
Q 1947 1309 1714 600 
Q 1481 -109 1013 -844 
L 513 -844 
Q 928 -128 1133 580 
Q 1338 1288 1338 2009 
Q 1338 2731 1133 3434 
Q 928 4138 513 4856 
z
" transform="scale(0.015625)"/>
       </defs>
       <use xlink:href="#DejaVuSans-41"/>
       <use xlink:href="#DejaVuSans-74" x="66.658203"/>
       <use xlink:href="#DejaVuSans-74" x="105.867188"/>
       <use xlink:href="#DejaVuSans-6e" x="145.076172"/>
       <use xlink:href="#DejaVuSans-50" x="208.455078"/>
       <use xlink:href="#DejaVuSans-61" x="264.257812"/>
       <use xlink:href="#DejaVuSans-63" x="325.537109"/>
       <use xlink:href="#DejaVuSans-6b" x="380.517578"/>
       <use xlink:href="#DejaVuSans-65" x="434.802734"/>
       <use xlink:href="#DejaVuSans-72" x="496.326172"/>
       <use xlink:href="#DejaVuSans-20" x="537.439453"/>
       <use xlink:href="#DejaVuSans-28" x="569.226562"/>
       <use xlink:href="#DejaVuSans-41" x="608.240234"/>
       <use xlink:href="#DejaVuSans-46" x="676.648438"/>
       <use xlink:href="#DejaVuSans-29" x="734.167969"/>
      </g>
     </g>
    </g>
    <g id="text_8">
     <!-- Method -->
     <g style="fill: #262626" transform="translate(422.45625 710.824616) scale(0.2 -0.2)">
      <defs>
       <path id="DejaVuSans-68" d="M 3513 2113 
L 3513 0 
L 2938 0 
L 2938 2094 
Q 2938 2591 2744 2837 
Q 2550 3084 2163 3084 
Q 1697 3084 1428 2787 
Q 1159 2491 1159 1978 
L 1159 0 
L 581 0 
L 581 4863 
L 1159 4863 
L 1159 2956 
Q 1366 3272 1645 3428 
Q 1925 3584 2291 3584 
Q 2894 3584 3203 3211 
Q 3513 2838 3513 2113 
z
" transform="scale(0.015625)"/>
       <path id="DejaVuSans-64" d="M 2906 2969 
L 2906 4863 
L 3481 4863 
L 3481 0 
L 2906 0 
L 2906 525 
Q 2725 213 2448 61 
Q 2172 -91 1784 -91 
Q 1150 -91 751 415 
Q 353 922 353 1747 
Q 353 2572 751 3078 
Q 1150 3584 1784 3584 
Q 2172 3584 2448 3432 
Q 2725 3281 2906 2969 
z
M 947 1747 
Q 947 1113 1208 752 
Q 1469 391 1925 391 
Q 2381 391 2643 752 
Q 2906 1113 2906 1747 
Q 2906 2381 2643 2742 
Q 2381 3103 1925 3103 
Q 1469 3103 1208 2742 
Q 947 2381 947 1747 
z
" transform="scale(0.015625)"/>
      </defs>
      <use xlink:href="#DejaVuSans-4d"/>
      <use xlink:href="#DejaVuSans-65" x="86.279297"/>
      <use xlink:href="#DejaVuSans-74" x="147.802734"/>
      <use xlink:href="#DejaVuSans-68" x="187.011719"/>
      <use xlink:href="#DejaVuSans-6f" x="250.390625"/>
      <use xlink:href="#DejaVuSans-64" x="311.572266"/>
     </g>
    </g>
   </g>
   <g id="matplotlib.axis_2">
    <g id="ytick_1">
     <g id="line2d_1">
      <path d="M 69.3625 552.512237 
L 850.5625 552.512237 
" clip-path="url(#p980cbb4511)" style="fill: none; stroke: #cccccc; stroke-width: 0.8; stroke-linecap: round"/>
     </g>
     <g id="text_9">
      <!-- 0.0 -->
      <g style="fill: #262626" transform="translate(30.55625 560.110674) scale(0.2 -0.2)">
       <defs>
        <path id="DejaVuSans-30" d="M 2034 4250 
Q 1547 4250 1301 3770 
Q 1056 3291 1056 2328 
Q 1056 1369 1301 889 
Q 1547 409 2034 409 
Q 2525 409 2770 889 
Q 3016 1369 3016 2328 
Q 3016 3291 2770 3770 
Q 2525 4250 2034 4250 
z
M 2034 4750 
Q 2819 4750 3233 4129 
Q 3647 3509 3647 2328 
Q 3647 1150 3233 529 
Q 2819 -91 2034 -91 
Q 1250 -91 836 529 
Q 422 1150 422 2328 
Q 422 3509 836 4129 
Q 1250 4750 2034 4750 
z
" transform="scale(0.015625)"/>
        <path id="DejaVuSans-2e" d="M 684 794 
L 1344 794 
L 1344 0 
L 684 0 
L 684 794 
z
" transform="scale(0.015625)"/>
       </defs>
       <use xlink:href="#DejaVuSans-30"/>
       <use xlink:href="#DejaVuSans-2e" x="63.623047"/>
       <use xlink:href="#DejaVuSans-30" x="95.410156"/>
      </g>
     </g>
    </g>
    <g id="ytick_2">
     <g id="line2d_2">
      <path d="M 69.3625 449.70038 
L 850.5625 449.70038 
" clip-path="url(#p980cbb4511)" style="fill: none; stroke: #cccccc; stroke-width: 0.8; stroke-linecap: round"/>
     </g>
     <g id="text_10">
      <!-- 0.2 -->
      <g style="fill: #262626" transform="translate(30.55625 457.298818) scale(0.2 -0.2)">
       <defs>
        <path id="DejaVuSans-32" d="M 1228 531 
L 3431 531 
L 3431 0 
L 469 0 
L 469 531 
Q 828 903 1448 1529 
Q 2069 2156 2228 2338 
Q 2531 2678 2651 2914 
Q 2772 3150 2772 3378 
Q 2772 3750 2511 3984 
Q 2250 4219 1831 4219 
Q 1534 4219 1204 4116 
Q 875 4013 500 3803 
L 500 4441 
Q 881 4594 1212 4672 
Q 1544 4750 1819 4750 
Q 2544 4750 2975 4387 
Q 3406 4025 3406 3419 
Q 3406 3131 3298 2873 
Q 3191 2616 2906 2266 
Q 2828 2175 2409 1742 
Q 1991 1309 1228 531 
z
" transform="scale(0.015625)"/>
       </defs>
       <use xlink:href="#DejaVuSans-30"/>
       <use xlink:href="#DejaVuSans-2e" x="63.623047"/>
       <use xlink:href="#DejaVuSans-32" x="95.410156"/>
      </g>
     </g>
    </g>
    <g id="ytick_3">
     <g id="line2d_3">
      <path d="M 69.3625 346.888523 
L 850.5625 346.888523 
" clip-path="url(#p980cbb4511)" style="fill: none; stroke: #cccccc; stroke-width: 0.8; stroke-linecap: round"/>
     </g>
     <g id="text_11">
      <!-- 0.4 -->
      <g style="fill: #262626" transform="translate(30.55625 354.486961) scale(0.2 -0.2)">
       <defs>
        <path id="DejaVuSans-34" d="M 2419 4116 
L 825 1625 
L 2419 1625 
L 2419 4116 
z
M 2253 4666 
L 3047 4666 
L 3047 1625 
L 3713 1625 
L 3713 1100 
L 3047 1100 
L 3047 0 
L 2419 0 
L 2419 1100 
L 313 1100 
L 313 1709 
L 2253 4666 
z
" transform="scale(0.015625)"/>
       </defs>
       <use xlink:href="#DejaVuSans-30"/>
       <use xlink:href="#DejaVuSans-2e" x="63.623047"/>
       <use xlink:href="#DejaVuSans-34" x="95.410156"/>
      </g>
     </g>
    </g>
    <g id="ytick_4">
     <g id="line2d_4">
      <path d="M 69.3625 244.076667 
L 850.5625 244.076667 
" clip-path="url(#p980cbb4511)" style="fill: none; stroke: #cccccc; stroke-width: 0.8; stroke-linecap: round"/>
     </g>
     <g id="text_12">
      <!-- 0.6 -->
      <g style="fill: #262626" transform="translate(30.55625 251.675104) scale(0.2 -0.2)">
       <defs>
        <path id="DejaVuSans-36" d="M 2113 2584 
Q 1688 2584 1439 2293 
Q 1191 2003 1191 1497 
Q 1191 994 1439 701 
Q 1688 409 2113 409 
Q 2538 409 2786 701 
Q 3034 994 3034 1497 
Q 3034 2003 2786 2293 
Q 2538 2584 2113 2584 
z
M 3366 4563 
L 3366 3988 
Q 3128 4100 2886 4159 
Q 2644 4219 2406 4219 
Q 1781 4219 1451 3797 
Q 1122 3375 1075 2522 
Q 1259 2794 1537 2939 
Q 1816 3084 2150 3084 
Q 2853 3084 3261 2657 
Q 3669 2231 3669 1497 
Q 3669 778 3244 343 
Q 2819 -91 2113 -91 
Q 1303 -91 875 529 
Q 447 1150 447 2328 
Q 447 3434 972 4092 
Q 1497 4750 2381 4750 
Q 2619 4750 2861 4703 
Q 3103 4656 3366 4563 
z
" transform="scale(0.015625)"/>
       </defs>
       <use xlink:href="#DejaVuSans-30"/>
       <use xlink:href="#DejaVuSans-2e" x="63.623047"/>
       <use xlink:href="#DejaVuSans-36" x="95.410156"/>
      </g>
     </g>
    </g>
    <g id="ytick_5">
     <g id="line2d_5">
      <path d="M 69.3625 141.26481 
L 850.5625 141.26481 
" clip-path="url(#p980cbb4511)" style="fill: none; stroke: #cccccc; stroke-width: 0.8; stroke-linecap: round"/>
     </g>
     <g id="text_13">
      <!-- 0.8 -->
      <g style="fill: #262626" transform="translate(30.55625 148.863248) scale(0.2 -0.2)">
       <defs>
        <path id="DejaVuSans-38" d="M 2034 2216 
Q 1584 2216 1326 1975 
Q 1069 1734 1069 1313 
Q 1069 891 1326 650 
Q 1584 409 2034 409 
Q 2484 409 2743 651 
Q 3003 894 3003 1313 
Q 3003 1734 2745 1975 
Q 2488 2216 2034 2216 
z
M 1403 2484 
Q 997 2584 770 2862 
Q 544 3141 544 3541 
Q 544 4100 942 4425 
Q 1341 4750 2034 4750 
Q 2731 4750 3128 4425 
Q 3525 4100 3525 3541 
Q 3525 3141 3298 2862 
Q 3072 2584 2669 2484 
Q 3125 2378 3379 2068 
Q 3634 1759 3634 1313 
Q 3634 634 3220 271 
Q 2806 -91 2034 -91 
Q 1263 -91 848 271 
Q 434 634 434 1313 
Q 434 1759 690 2068 
Q 947 2378 1403 2484 
z
M 1172 3481 
Q 1172 3119 1398 2916 
Q 1625 2713 2034 2713 
Q 2441 2713 2670 2916 
Q 2900 3119 2900 3481 
Q 2900 3844 2670 4047 
Q 2441 4250 2034 4250 
Q 1625 4250 1398 4047 
Q 1172 3844 1172 3481 
z
" transform="scale(0.015625)"/>
       </defs>
       <use xlink:href="#DejaVuSans-30"/>
       <use xlink:href="#DejaVuSans-2e" x="63.623047"/>
       <use xlink:href="#DejaVuSans-38" x="95.410156"/>
      </g>
     </g>
    </g>
    <g id="ytick_6">
     <g id="line2d_6">
      <path d="M 69.3625 38.452953 
L 850.5625 38.452953 
" clip-path="url(#p980cbb4511)" style="fill: none; stroke: #cccccc; stroke-width: 0.8; stroke-linecap: round"/>
     </g>
     <g id="text_14">
      <!-- 1.0 -->
      <g style="fill: #262626" transform="translate(30.55625 46.051391) scale(0.2 -0.2)">
       <defs>
        <path id="DejaVuSans-31" d="M 794 531 
L 1825 531 
L 1825 4091 
L 703 3866 
L 703 4441 
L 1819 4666 
L 2450 4666 
L 2450 531 
L 3481 531 
L 3481 0 
L 794 0 
L 794 531 
z
" transform="scale(0.015625)"/>
       </defs>
       <use xlink:href="#DejaVuSans-31"/>
       <use xlink:href="#DejaVuSans-2e" x="63.623047"/>
       <use xlink:href="#DejaVuSans-30" x="95.410156"/>
      </g>
     </g>
    </g>
    <g id="text_15">
     <!-- MAE 2 (rad) -->
     <g style="fill: #262626" transform="translate(22.396875 343.296875) rotate(-90) scale(0.2 -0.2)">
      <defs>
       <path id="DejaVuSans-45" d="M 628 4666 
L 3578 4666 
L 3578 4134 
L 1259 4134 
L 1259 2753 
L 3481 2753 
L 3481 2222 
L 1259 2222 
L 1259 531 
L 3634 531 
L 3634 0 
L 628 0 
L 628 4666 
z
" transform="scale(0.015625)"/>
      </defs>
      <use xlink:href="#DejaVuSans-4d"/>
      <use xlink:href="#DejaVuSans-41" x="86.279297"/>
      <use xlink:href="#DejaVuSans-45" x="154.6875"/>
      <use xlink:href="#DejaVuSans-20" x="217.871094"/>
      <use xlink:href="#DejaVuSans-32" x="249.658203"/>
      <use xlink:href="#DejaVuSans-20" x="313.28125"/>
      <use xlink:href="#DejaVuSans-28" x="345.068359"/>
      <use xlink:href="#DejaVuSans-72" x="384.082031"/>
      <use xlink:href="#DejaVuSans-61" x="425.195312"/>
      <use xlink:href="#DejaVuSans-64" x="486.474609"/>
      <use xlink:href="#DejaVuSans-29" x="549.951172"/>
     </g>
    </g>
   </g>
   <g id="PolyCollection_1">
    <defs>
     <path id="m2c9e3133e4" d="M 125.425763 -241.747087 
L 124.899237 -241.747087 
L 124.788917 -246.272713 
L 124.642944 -250.798338 
L 124.45367 -255.323963 
L 124.212788 -259.849589 
L 123.911341 -264.375214 
L 123.539627 -268.900839 
L 123.087005 -273.426464 
L 122.541592 -277.95209 
L 121.889957 -282.477715 
L 121.116921 -287.00334 
L 120.205638 -291.528966 
L 119.138137 -296.054591 
L 117.896461 -300.580216 
L 116.464453 -305.105841 
L 114.830106 -309.631467 
L 112.988219 -314.157092 
L 110.942972 -318.682717 
L 108.709928 -323.208343 
L 106.316986 -327.733968 
L 103.803909 -332.259593 
L 101.220284 -336.785218 
L 98.622078 -341.310844 
L 96.067221 -345.836469 
L 93.61092 -350.362094 
L 91.30148 -354.88772 
L 89.177346 -359.413345 
L 87.265836 -363.93897 
L 85.583676 -368.464595 
L 84.139058 -372.990221 
L 82.934598 -377.515846 
L 81.97039 -382.041471 
L 81.246363 -386.567097 
L 80.763334 -391.092722 
L 80.5225 -395.618347 
L 80.523538 -400.143973 
L 80.761821 -404.669598 
L 81.225534 -409.195223 
L 81.893538 -413.720848 
L 82.734679 -418.246474 
L 83.708972 -422.772099 
L 84.770645 -427.297724 
L 85.872661 -431.82335 
L 86.971949 -436.348975 
L 88.03446 -440.8746 
L 89.039119 -445.400225 
L 89.979995 -449.925851 
L 90.866318 -454.451476 
L 91.720374 -458.977101 
L 92.573678 -463.502727 
L 93.462067 -468.028352 
L 94.420484 -472.553977 
L 95.478199 -477.079602 
L 96.655053 -481.605228 
L 97.959104 -486.130853 
L 99.385831 -490.656478 
L 100.918834 -495.182104 
L 102.531802 -499.707729 
L 104.191425 -504.233354 
L 105.860852 -508.758979 
L 107.503278 -513.284605 
L 109.085266 -517.81023 
L 110.579455 -522.335855 
L 111.966369 -526.861481 
L 113.235195 -531.387106 
L 114.383471 -535.912731 
L 115.415818 -540.438357 
L 116.341941 -544.963982 
L 117.174232 -549.489607 
L 117.925357 -554.015232 
L 118.606179 -558.540858 
L 119.224324 -563.066483 
L 119.783572 -567.592108 
L 120.284103 -572.117734 
L 120.723503 -576.643359 
L 121.098307 -581.168984 
L 121.405766 -585.694609 
L 121.645505 -590.220235 
L 121.820778 -594.74586 
L 121.939078 -599.271485 
L 122.012014 -603.797111 
L 122.054466 -608.322736 
L 122.083166 -612.848361 
L 122.114944 -617.373986 
L 122.16491 -621.899612 
L 122.244882 -626.425237 
L 122.362263 -630.950862 
L 122.519525 -635.476488 
L 122.714343 -640.002113 
L 122.940306 -644.527738 
L 123.188048 -649.053363 
L 123.44662 -653.578989 
L 123.704862 -658.104614 
L 123.952606 -662.630239 
L 124.18157 -667.155865 
L 124.385874 -671.68149 
L 124.562183 -676.207115 
L 124.709527 -680.732741 
L 124.828901 -685.258366 
L 124.922737 -689.783991 
L 125.402263 -689.783991 
L 125.402263 -689.783991 
L 125.496099 -685.258366 
L 125.615473 -680.732741 
L 125.762817 -676.207115 
L 125.939126 -671.68149 
L 126.14343 -667.155865 
L 126.372394 -662.630239 
L 126.620138 -658.104614 
L 126.87838 -653.578989 
L 127.136952 -649.053363 
L 127.384694 -644.527738 
L 127.610657 -640.002113 
L 127.805475 -635.476488 
L 127.962737 -630.950862 
L 128.080118 -626.425237 
L 128.16009 -621.899612 
L 128.210056 -617.373986 
L 128.241834 -612.848361 
L 128.270534 -608.322736 
L 128.312986 -603.797111 
L 128.385922 -599.271485 
L 128.504222 -594.74586 
L 128.679495 -590.220235 
L 128.919234 -585.694609 
L 129.226693 -581.168984 
L 129.601497 -576.643359 
L 130.040897 -572.117734 
L 130.541428 -567.592108 
L 131.100676 -563.066483 
L 131.718821 -558.540858 
L 132.399643 -554.015232 
L 133.150768 -549.489607 
L 133.983059 -544.963982 
L 134.909182 -540.438357 
L 135.941529 -535.912731 
L 137.089805 -531.387106 
L 138.358631 -526.861481 
L 139.745545 -522.335855 
L 141.239734 -517.81023 
L 142.821722 -513.284605 
L 144.464148 -508.758979 
L 146.133575 -504.233354 
L 147.793198 -499.707729 
L 149.406166 -495.182104 
L 150.939169 -490.656478 
L 152.365896 -486.130853 
L 153.669947 -481.605228 
L 154.846801 -477.079602 
L 155.904516 -472.553977 
L 156.862933 -468.028352 
L 157.751322 -463.502727 
L 158.604626 -458.977101 
L 159.458682 -454.451476 
L 160.345005 -449.925851 
L 161.285881 -445.400225 
L 162.29054 -440.8746 
L 163.353051 -436.348975 
L 164.452339 -431.82335 
L 165.554355 -427.297724 
L 166.616028 -422.772099 
L 167.590321 -418.246474 
L 168.431462 -413.720848 
L 169.099466 -409.195223 
L 169.563179 -404.669598 
L 169.801462 -400.143973 
L 169.8025 -395.618347 
L 169.561666 -391.092722 
L 169.078637 -386.567097 
L 168.35461 -382.041471 
L 167.390402 -377.515846 
L 166.185942 -372.990221 
L 164.741324 -368.464595 
L 163.059164 -363.93897 
L 161.147654 -359.413345 
L 159.02352 -354.88772 
L 156.71408 -350.362094 
L 154.257779 -345.836469 
L 151.702922 -341.310844 
L 149.104716 -336.785218 
L 146.521091 -332.259593 
L 144.008014 -327.733968 
L 141.615072 -323.208343 
L 139.382028 -318.682717 
L 137.336781 -314.157092 
L 135.494894 -309.631467 
L 133.860547 -305.105841 
L 132.428539 -300.580216 
L 131.186863 -296.054591 
L 130.119362 -291.528966 
L 129.208079 -287.00334 
L 128.435043 -282.477715 
L 127.783408 -277.95209 
L 127.237995 -273.426464 
L 126.785373 -268.900839 
L 126.413659 -264.375214 
L 126.112212 -259.849589 
L 125.87133 -255.323963 
L 125.682056 -250.798338 
L 125.536083 -246.272713 
L 125.425763 -241.747087 
z
" style="stroke: #3d3d3d; stroke-opacity: 0.5"/>
    </defs>
    <g clip-path="url(#p980cbb4511)">
     <use xlink:href="#m2c9e3133e4" x="0" y="722.183991" style="fill: #3274a1; fill-opacity: 0.5; stroke: #3d3d3d; stroke-opacity: 0.5"/>
    </g>
   </g>
   <g id="PolyCollection_2">
    <defs>
     <path id="m2d2feca109" d="M 237.290252 -185.783991 
L 236.234748 -185.783991 
L 235.97318 -190.378532 
L 235.60721 -194.973072 
L 235.106984 -199.567613 
L 234.438866 -204.162153 
L 233.566698 -208.756694 
L 232.453765 -213.351235 
L 231.065463 -217.945775 
L 229.372601 -222.540316 
L 227.355157 -227.134856 
L 225.006221 -231.729397 
L 222.335725 -236.323937 
L 219.373489 -240.918478 
L 216.171078 -245.513019 
L 212.801972 -250.107559 
L 209.359658 -254.7021 
L 205.953461 -259.29664 
L 202.702163 -263.891181 
L 199.725831 -268.485721 
L 197.136541 -273.080262 
L 195.028986 -277.674803 
L 193.472089 -282.269343 
L 192.50273 -286.863884 
L 192.1225 -291.458424 
L 192.298025 -296.052965 
L 192.964938 -300.647505 
L 194.035037 -305.242046 
L 195.405704 -309.836587 
L 196.970333 -314.431127 
L 198.628394 -319.025668 
L 200.293846 -323.620208 
L 201.900972 -328.214749 
L 203.407101 -332.809289 
L 204.792267 -337.40383 
L 206.056244 -341.998371 
L 207.213778 -346.592911 
L 208.288936 -351.187452 
L 209.309494 -355.781992 
L 210.302088 -360.376533 
L 211.288596 -364.971073 
L 212.283973 -369.565614 
L 213.29551 -374.160155 
L 214.323344 -378.754695 
L 215.361957 -383.349236 
L 216.402322 -387.943776 
L 217.434346 -392.538317 
L 218.44925 -397.132857 
L 219.441502 -401.727398 
L 220.409986 -406.321939 
L 221.358187 -410.916479 
L 222.293319 -415.51102 
L 223.224539 -420.10556 
L 224.160575 -424.700101 
L 225.107257 -429.294641 
L 226.065467 -433.889182 
L 227.029969 -438.483723 
L 227.989383 -443.078263 
L 228.927338 -447.672804 
L 229.824556 -452.267344 
L 230.661475 -456.861885 
L 231.420876 -461.456425 
L 232.090076 -466.050966 
L 232.662303 -470.645507 
L 233.13715 -475.240047 
L 233.520115 -479.834588 
L 233.821457 -484.429128 
L 234.054647 -489.023669 
L 234.234696 -493.618209 
L 234.376616 -498.21275 
L 234.494148 -502.807291 
L 234.59882 -507.401831 
L 234.699337 -511.996372 
L 234.80127 -516.590912 
L 234.907017 -521.185453 
L 235.01602 -525.779993 
L 235.12524 -530.374534 
L 235.229878 -534.969075 
L 235.324302 -539.563615 
L 235.403089 -544.158156 
L 235.462071 -548.752696 
L 235.499213 -553.347237 
L 235.515178 -557.941777 
L 235.51347 -562.536318 
L 235.500106 -567.130859 
L 235.482858 -571.725399 
L 235.470192 -576.31994 
L 235.470079 -580.91448 
L 235.48889 -585.509021 
L 235.530563 -590.103561 
L 235.596163 -594.698102 
L 235.683908 -599.292643 
L 235.789606 -603.887183 
L 235.907394 -608.481724 
L 236.030646 -613.076264 
L 236.152852 -617.670805 
L 236.268365 -622.265345 
L 236.372887 -626.859886 
L 236.463701 -631.454427 
L 236.539636 -636.048967 
L 236.600845 -640.643508 
L 236.924155 -640.643508 
L 236.924155 -640.643508 
L 236.985364 -636.048967 
L 237.061299 -631.454427 
L 237.152113 -626.859886 
L 237.256635 -622.265345 
L 237.372148 -617.670805 
L 237.494354 -613.076264 
L 237.617606 -608.481724 
L 237.735394 -603.887183 
L 237.841092 -599.292643 
L 237.928837 -594.698102 
L 237.994437 -590.103561 
L 238.03611 -585.509021 
L 238.054921 -580.91448 
L 238.054808 -576.31994 
L 238.042142 -571.725399 
L 238.024894 -567.130859 
L 238.01153 -562.536318 
L 238.009822 -557.941777 
L 238.025787 -553.347237 
L 238.062929 -548.752696 
L 238.121911 -544.158156 
L 238.200698 -539.563615 
L 238.295122 -534.969075 
L 238.39976 -530.374534 
L 238.50898 -525.779993 
L 238.617983 -521.185453 
L 238.72373 -516.590912 
L 238.825663 -511.996372 
L 238.92618 -507.401831 
L 239.030852 -502.807291 
L 239.148384 -498.21275 
L 239.290304 -493.618209 
L 239.470353 -489.023669 
L 239.703543 -484.429128 
L 240.004885 -479.834588 
L 240.38785 -475.240047 
L 240.862697 -470.645507 
L 241.434924 -466.050966 
L 242.104124 -461.456425 
L 242.863525 -456.861885 
L 243.700444 -452.267344 
L 244.597662 -447.672804 
L 245.535617 -443.078263 
L 246.495031 -438.483723 
L 247.459533 -433.889182 
L 248.417743 -429.294641 
L 249.364425 -424.700101 
L 250.300461 -420.10556 
L 251.231681 -415.51102 
L 252.166813 -410.916479 
L 253.115014 -406.321939 
L 254.083498 -401.727398 
L 255.07575 -397.132857 
L 256.090654 -392.538317 
L 257.122678 -387.943776 
L 258.163043 -383.349236 
L 259.201656 -378.754695 
L 260.22949 -374.160155 
L 261.241027 -369.565614 
L 262.236404 -364.971073 
L 263.222912 -360.376533 
L 264.215506 -355.781992 
L 265.236064 -351.187452 
L 266.311222 -346.592911 
L 267.468756 -341.998371 
L 268.732733 -337.40383 
L 270.117899 -332.809289 
L 271.624028 -328.214749 
L 273.231154 -323.620208 
L 274.896606 -319.025668 
L 276.554667 -314.431127 
L 278.119296 -309.836587 
L 279.489963 -305.242046 
L 280.560062 -300.647505 
L 281.226975 -296.052965 
L 281.4025 -291.458424 
L 281.02227 -286.863884 
L 280.052911 -282.269343 
L 278.496014 -277.674803 
L 276.388459 -273.080262 
L 273.799169 -268.485721 
L 270.822837 -263.891181 
L 267.571539 -259.29664 
L 264.165342 -254.7021 
L 260.723028 -250.107559 
L 257.353922 -245.513019 
L 254.151511 -240.918478 
L 251.189275 -236.323937 
L 248.518779 -231.729397 
L 246.169843 -227.134856 
L 244.152399 -222.540316 
L 242.459537 -217.945775 
L 241.071235 -213.351235 
L 239.958302 -208.756694 
L 239.086134 -204.162153 
L 238.418016 -199.567613 
L 237.91779 -194.973072 
L 237.55182 -190.378532 
L 237.290252 -185.783991 
z
" style="stroke: #3d3d3d; stroke-opacity: 0.5"/>
    </defs>
    <g clip-path="url(#p980cbb4511)">
     <use xlink:href="#m2d2feca109" x="0" y="722.183991" style="fill: #d684bd; fill-opacity: 0.5; stroke: #3d3d3d; stroke-opacity: 0.5"/>
    </g>
   </g>
   <g id="PolyCollection_3">
    <defs>
     <path id="m36be873808" d="M 348.545723 -319.771345 
L 348.179277 -319.771345 
L 348.11461 -323.222695 
L 348.034026 -326.674046 
L 347.935898 -330.125396 
L 347.818974 -333.576746 
L 347.682376 -337.028096 
L 347.525487 -340.479447 
L 347.347703 -343.930797 
L 347.148071 -347.382147 
L 346.924843 -350.833498 
L 346.675041 -354.284848 
L 346.394131 -357.736198 
L 346.07592 -361.187549 
L 345.712761 -364.638899 
L 345.296112 -368.090249 
L 344.817423 -371.541599 
L 344.269214 -374.99295 
L 343.646176 -378.4443 
L 342.94602 -381.89565 
L 342.169849 -385.347001 
L 341.321854 -388.798351 
L 340.408246 -392.249701 
L 339.435523 -395.701052 
L 338.408299 -399.152402 
L 337.327109 -402.603752 
L 336.186654 -406.055103 
L 334.974964 -409.506453 
L 333.673854 -412.957803 
L 332.260821 -416.409153 
L 330.712291 -419.860504 
L 329.007859 -423.311854 
L 327.134886 -426.763204 
L 325.092766 -430.214555 
L 322.896089 -433.665905 
L 320.576121 -437.117255 
L 318.18026 -440.568606 
L 315.769414 -444.019956 
L 313.41364 -447.471306 
L 311.186587 -450.922657 
L 309.159506 -454.374007 
L 307.3956 -457.825357 
L 305.945396 -461.276707 
L 304.843632 -464.728058 
L 304.107886 -468.179408 
L 303.738922 -471.630758 
L 303.7225 -475.082109 
L 304.032244 -478.533459 
L 304.633083 -481.984809 
L 305.484811 -485.43616 
L 306.545341 -488.88751 
L 307.773396 -492.33886 
L 309.130442 -495.79021 
L 310.581845 -499.241561 
L 312.097309 -502.692911 
L 313.65073 -506.144261 
L 315.219666 -509.595612 
L 316.784606 -513.046962 
L 318.328232 -516.498312 
L 319.834814 -519.949663 
L 321.289835 -523.401013 
L 322.679878 -526.852363 
L 323.992776 -530.303714 
L 325.217957 -533.755064 
L 326.346915 -537.206414 
L 327.373715 -540.657764 
L 328.295457 -544.109115 
L 329.11261 -547.560465 
L 329.829198 -551.011815 
L 330.452783 -554.463166 
L 330.994264 -557.914516 
L 331.46749 -561.365866 
L 331.888714 -564.817217 
L 332.275925 -568.268567 
L 332.648068 -571.719917 
L 333.024207 -575.171267 
L 333.422624 -578.622618 
L 333.859916 -582.073968 
L 334.350099 -585.525318 
L 334.90379 -588.976669 
L 335.527501 -592.428019 
L 336.22315 -595.879369 
L 336.987817 -599.33072 
L 337.813837 -602.78207 
L 338.68923 -606.23342 
L 339.598479 -609.684771 
L 340.523588 -613.136121 
L 341.44533 -616.587471 
L 342.344579 -620.038821 
L 343.203568 -623.490172 
L 344.006979 -626.941522 
L 344.742759 -630.392872 
L 345.402592 -633.844223 
L 345.982035 -637.295573 
L 346.48033 -640.746923 
L 346.899956 -644.198274 
L 347.246 -647.649624 
L 347.525429 -651.100974 
L 347.746362 -654.552325 
L 347.917388 -658.003675 
L 348.046994 -661.455025 
L 348.678006 -661.455025 
L 348.678006 -661.455025 
L 348.807612 -658.003675 
L 348.978638 -654.552325 
L 349.199571 -651.100974 
L 349.479 -647.649624 
L 349.825044 -644.198274 
L 350.24467 -640.746923 
L 350.742965 -637.295573 
L 351.322408 -633.844223 
L 351.982241 -630.392872 
L 352.718021 -626.941522 
L 353.521432 -623.490172 
L 354.380421 -620.038821 
L 355.27967 -616.587471 
L 356.201412 -613.136121 
L 357.126521 -609.684771 
L 358.03577 -606.23342 
L 358.911163 -602.78207 
L 359.737183 -599.33072 
L 360.50185 -595.879369 
L 361.197499 -592.428019 
L 361.82121 -588.976669 
L 362.374901 -585.525318 
L 362.865084 -582.073968 
L 363.302376 -578.622618 
L 363.700793 -575.171267 
L 364.076932 -571.719917 
L 364.449075 -568.268567 
L 364.836286 -564.817217 
L 365.25751 -561.365866 
L 365.730736 -557.914516 
L 366.272217 -554.463166 
L 366.895802 -551.011815 
L 367.61239 -547.560465 
L 368.429543 -544.109115 
L 369.351285 -540.657764 
L 370.378085 -537.206414 
L 371.507043 -533.755064 
L 372.732224 -530.303714 
L 374.045122 -526.852363 
L 375.435165 -523.401013 
L 376.890186 -519.949663 
L 378.396768 -516.498312 
L 379.940394 -513.046962 
L 381.505334 -509.595612 
L 383.07427 -506.144261 
L 384.627691 -502.692911 
L 386.143155 -499.241561 
L 387.594558 -495.79021 
L 388.951604 -492.33886 
L 390.179659 -488.88751 
L 391.240189 -485.43616 
L 392.091917 -481.984809 
L 392.692756 -478.533459 
L 393.0025 -475.082109 
L 392.986078 -471.630758 
L 392.617114 -468.179408 
L 391.881368 -464.728058 
L 390.779604 -461.276707 
L 389.3294 -457.825357 
L 387.565494 -454.374007 
L 385.538413 -450.922657 
L 383.31136 -447.471306 
L 380.955586 -444.019956 
L 378.54474 -440.568606 
L 376.148879 -437.117255 
L 373.828911 -433.665905 
L 371.632234 -430.214555 
L 369.590114 -426.763204 
L 367.717141 -423.311854 
L 366.012709 -419.860504 
L 364.464179 -416.409153 
L 363.051146 -412.957803 
L 361.750036 -409.506453 
L 360.538346 -406.055103 
L 359.397891 -402.603752 
L 358.316701 -399.152402 
L 357.289477 -395.701052 
L 356.316754 -392.249701 
L 355.403146 -388.798351 
L 354.555151 -385.347001 
L 353.77898 -381.89565 
L 353.078824 -378.4443 
L 352.455786 -374.99295 
L 351.907577 -371.541599 
L 351.428888 -368.090249 
L 351.012239 -364.638899 
L 350.64908 -361.187549 
L 350.330869 -357.736198 
L 350.049959 -354.284848 
L 349.800157 -350.833498 
L 349.576929 -347.382147 
L 349.377297 -343.930797 
L 349.199513 -340.479447 
L 349.042624 -337.028096 
L 348.906026 -333.576746 
L 348.789102 -330.125396 
L 348.690974 -326.674046 
L 348.61039 -323.222695 
L 348.545723 -319.771345 
z
" style="stroke: #3d3d3d; stroke-opacity: 0.5"/>
    </defs>
    <g clip-path="url(#p980cbb4511)">
     <use xlink:href="#m36be873808" x="0" y="722.183991" style="fill: #c03d3e; fill-opacity: 0.5; stroke: #3d3d3d; stroke-opacity: 0.5"/>
    </g>
   </g>
   <g id="PolyCollection_4">
    <defs>
     <path id="ma9665c0ecc" d="M 460.208585 -251.783393 
L 459.716415 -251.783393 
L 459.616999 -255.918149 
L 459.486742 -260.052905 
L 459.31952 -264.187662 
L 459.108953 -268.322418 
L 458.848561 -272.457174 
L 458.531869 -276.591931 
L 458.152437 -280.726687 
L 457.703782 -284.861443 
L 457.179193 -288.9962 
L 456.571472 -293.130956 
L 455.872651 -297.265712 
L 455.073759 -301.400469 
L 454.164741 -305.535225 
L 453.13461 -309.669981 
L 451.971887 -313.804738 
L 450.66536 -317.939494 
L 449.205135 -322.07425 
L 447.583903 -326.209007 
L 445.798311 -330.343763 
L 443.850312 -334.47852 
L 441.748337 -338.613276 
L 439.508195 -342.748032 
L 437.153566 -346.882789 
L 434.716036 -351.017545 
L 432.234609 -355.152301 
L 429.754683 -359.287058 
L 427.326461 -363.421814 
L 425.002861 -367.55657 
L 422.836971 -371.691327 
L 420.879208 -375.826083 
L 419.174385 -379.960839 
L 417.758948 -384.095596 
L 416.6587 -388.230352 
L 415.887283 -392.365108 
L 415.445632 -396.499865 
L 415.3225 -400.634621 
L 415.496001 -404.769377 
L 415.935962 -408.904134 
L 416.606788 -413.03889 
L 417.470471 -417.173646 
L 418.489405 -421.308403 
L 419.628715 -425.443159 
L 420.857923 -429.577915 
L 422.151886 -433.712672 
L 423.491014 -437.847428 
L 424.860866 -441.982184 
L 426.251272 -446.116941 
L 427.655128 -450.251697 
L 429.067072 -454.386453 
L 430.482204 -458.52121 
L 431.895043 -462.655966 
L 433.298858 -466.790722 
L 434.685467 -470.925479 
L 436.045514 -475.060235 
L 437.369168 -479.194991 
L 438.647084 -483.329748 
L 439.871451 -487.464504 
L 441.036904 -491.59926 
L 442.141147 -495.734017 
L 443.185147 -499.868773 
L 444.172884 -504.003529 
L 445.110675 -508.138286 
L 446.006181 -512.273042 
L 446.867248 -516.407799 
L 447.700714 -520.542555 
L 448.511371 -524.677311 
L 449.301185 -528.812068 
L 450.068897 -532.946824 
L 450.810054 -537.08158 
L 451.51748 -541.216337 
L 452.182138 -545.351093 
L 452.794298 -549.485849 
L 453.344869 -553.620606 
L 453.826733 -557.755362 
L 454.235917 -561.890118 
L 454.572446 -566.024875 
L 454.840765 -570.159631 
L 455.049658 -574.294387 
L 455.211667 -578.429144 
L 455.342061 -582.5639 
L 455.457475 -586.698656 
L 455.574367 -590.833413 
L 455.707491 -594.968169 
L 455.868546 -599.102925 
L 456.065182 -603.237682 
L 456.300468 -607.372438 
L 456.572877 -611.507194 
L 456.876769 -615.641951 
L 457.203293 -619.776707 
L 457.541558 -623.911463 
L 457.879924 -628.04622 
L 458.207222 -632.180976 
L 458.513774 -636.315732 
L 458.792112 -640.450489 
L 459.037336 -644.585245 
L 459.247147 -648.720001 
L 459.421592 -652.854758 
L 459.562618 -656.989514 
L 459.673522 -661.12427 
L 460.251478 -661.12427 
L 460.251478 -661.12427 
L 460.362382 -656.989514 
L 460.503408 -652.854758 
L 460.677853 -648.720001 
L 460.887664 -644.585245 
L 461.132888 -640.450489 
L 461.411226 -636.315732 
L 461.717778 -632.180976 
L 462.045076 -628.04622 
L 462.383442 -623.911463 
L 462.721707 -619.776707 
L 463.048231 -615.641951 
L 463.352123 -611.507194 
L 463.624532 -607.372438 
L 463.859818 -603.237682 
L 464.056454 -599.102925 
L 464.217509 -594.968169 
L 464.350633 -590.833413 
L 464.467525 -586.698656 
L 464.582939 -582.5639 
L 464.713333 -578.429144 
L 464.875342 -574.294387 
L 465.084235 -570.159631 
L 465.352554 -566.024875 
L 465.689083 -561.890118 
L 466.098267 -557.755362 
L 466.580131 -553.620606 
L 467.130702 -549.485849 
L 467.742862 -545.351093 
L 468.40752 -541.216337 
L 469.114946 -537.08158 
L 469.856103 -532.946824 
L 470.623815 -528.812068 
L 471.413629 -524.677311 
L 472.224286 -520.542555 
L 473.057752 -516.407799 
L 473.918819 -512.273042 
L 474.814325 -508.138286 
L 475.752116 -504.003529 
L 476.739853 -499.868773 
L 477.783853 -495.734017 
L 478.888096 -491.59926 
L 480.053549 -487.464504 
L 481.277916 -483.329748 
L 482.555832 -479.194991 
L 483.879486 -475.060235 
L 485.239533 -470.925479 
L 486.626142 -466.790722 
L 488.029957 -462.655966 
L 489.442796 -458.52121 
L 490.857928 -454.386453 
L 492.269872 -450.251697 
L 493.673728 -446.116941 
L 495.064134 -441.982184 
L 496.433986 -437.847428 
L 497.773114 -433.712672 
L 499.067077 -429.577915 
L 500.296285 -425.443159 
L 501.435595 -421.308403 
L 502.454529 -417.173646 
L 503.318212 -413.03889 
L 503.989038 -408.904134 
L 504.428999 -404.769377 
L 504.6025 -400.634621 
L 504.479368 -396.499865 
L 504.037717 -392.365108 
L 503.2663 -388.230352 
L 502.166052 -384.095596 
L 500.750615 -379.960839 
L 499.045792 -375.826083 
L 497.088029 -371.691327 
L 494.922139 -367.55657 
L 492.598539 -363.421814 
L 490.170317 -359.287058 
L 487.690391 -355.152301 
L 485.208964 -351.017545 
L 482.771434 -346.882789 
L 480.416805 -342.748032 
L 478.176663 -338.613276 
L 476.074688 -334.47852 
L 474.126689 -330.343763 
L 472.341097 -326.209007 
L 470.719865 -322.07425 
L 469.25964 -317.939494 
L 467.953113 -313.804738 
L 466.79039 -309.669981 
L 465.760259 -305.535225 
L 464.851241 -301.400469 
L 464.052349 -297.265712 
L 463.353528 -293.130956 
L 462.745807 -288.9962 
L 462.221218 -284.861443 
L 461.772563 -280.726687 
L 461.393131 -276.591931 
L 461.076439 -272.457174 
L 460.816047 -268.322418 
L 460.60548 -264.187662 
L 460.438258 -260.052905 
L 460.308001 -255.918149 
L 460.208585 -251.783393 
z
" style="stroke: #3d3d3d; stroke-opacity: 0.5"/>
    </defs>
    <g clip-path="url(#p980cbb4511)">
     <use xlink:href="#ma9665c0ecc" x="0" y="722.183991" style="fill: #9372b2; fill-opacity: 0.5; stroke: #3d3d3d; stroke-opacity: 0.5"/>
    </g>
   </g>
   <g id="PolyCollection_5">
    <defs>
     <path id="m4584d1d14b" d="M 571.999241 -237.853486 
L 571.125759 -237.853486 
L 570.954673 -242.155982 
L 570.732701 -246.458478 
L 570.45042 -250.760974 
L 570.098152 -255.06347 
L 569.666171 -259.365966 
L 569.144821 -263.668462 
L 568.524524 -267.970958 
L 567.795664 -272.273454 
L 566.94839 -276.57595 
L 565.972421 -280.878446 
L 564.856959 -285.180942 
L 563.590832 -289.483438 
L 562.162991 -293.785933 
L 560.56341 -298.088429 
L 558.784423 -302.390925 
L 556.822415 -306.693421 
L 554.679726 -310.995917 
L 552.366581 -315.298413 
L 549.902773 -319.600909 
L 547.318864 -323.903405 
L 544.656635 -328.205901 
L 541.968583 -332.508397 
L 539.31633 -336.810893 
L 536.767902 -341.113389 
L 534.393966 -345.415885 
L 532.263263 -349.718381 
L 530.437591 -354.020877 
L 528.966854 -358.323373 
L 527.884722 -362.625869 
L 527.205475 -366.928365 
L 526.9225 -371.230861 
L 527.008728 -375.533357 
L 527.419087 -379.835853 
L 528.094754 -384.138349 
L 528.968744 -388.440844 
L 529.972198 -392.74334 
L 531.040612 -397.045836 
L 532.119261 -401.348332 
L 533.167204 -405.650828 
L 534.159438 -409.953324 
L 535.087048 -414.25582 
L 535.955478 -418.558316 
L 536.781292 -422.860812 
L 537.587999 -427.163308 
L 538.401595 -431.465804 
L 539.246486 -435.7683 
L 540.142307 -440.070796 
L 541.101988 -444.373292 
L 542.131153 -448.675788 
L 543.228706 -452.978284 
L 544.38828 -457.28078 
L 545.600121 -461.583276 
L 546.852958 -465.885772 
L 548.135512 -470.188268 
L 549.437431 -474.490764 
L 550.749605 -478.793259 
L 552.063956 -483.095755 
L 553.372904 -487.398251 
L 554.668743 -491.700747 
L 555.943141 -496.003243 
L 557.186908 -500.305739 
L 558.390101 -504.608235 
L 559.542436 -508.910731 
L 560.633913 -513.213227 
L 561.65555 -517.515723 
L 562.600052 -521.818219 
L 563.462328 -526.120715 
L 564.239747 -530.423211 
L 564.932116 -534.725707 
L 565.541379 -539.028203 
L 566.071128 -543.330699 
L 566.52601 -547.633195 
L 566.911163 -551.935691 
L 567.231815 -556.238187 
L 567.493099 -560.540683 
L 567.700145 -564.843179 
L 567.858401 -569.145674 
L 567.974089 -573.44817 
L 568.054646 -577.750666 
L 568.109004 -582.053162 
L 568.147569 -586.355658 
L 568.181838 -590.658154 
L 568.223637 -594.96065 
L 568.284116 -599.263146 
L 568.372617 -603.565642 
L 568.495658 -607.868138 
L 568.656195 -612.170634 
L 568.85331 -616.47313 
L 569.082398 -620.775626 
L 569.335804 -625.078122 
L 569.603814 -629.380618 
L 569.875824 -633.683114 
L 570.141513 -637.98561 
L 570.391839 -642.288106 
L 570.619756 -646.590602 
L 570.820585 -650.893098 
L 570.992049 -655.195594 
L 571.134038 -659.49809 
L 571.248174 -663.800585 
L 571.876826 -663.800585 
L 571.876826 -663.800585 
L 571.990962 -659.49809 
L 572.132951 -655.195594 
L 572.304415 -650.893098 
L 572.505244 -646.590602 
L 572.733161 -642.288106 
L 572.983487 -637.98561 
L 573.249176 -633.683114 
L 573.521186 -629.380618 
L 573.789196 -625.078122 
L 574.042602 -620.775626 
L 574.27169 -616.47313 
L 574.468805 -612.170634 
L 574.629342 -607.868138 
L 574.752383 -603.565642 
L 574.840884 -599.263146 
L 574.901363 -594.96065 
L 574.943162 -590.658154 
L 574.977431 -586.355658 
L 575.015996 -582.053162 
L 575.070354 -577.750666 
L 575.150911 -573.44817 
L 575.266599 -569.145674 
L 575.424855 -564.843179 
L 575.631901 -560.540683 
L 575.893185 -556.238187 
L 576.213837 -551.935691 
L 576.59899 -547.633195 
L 577.053872 -543.330699 
L 577.583621 -539.028203 
L 578.192884 -534.725707 
L 578.885253 -530.423211 
L 579.662672 -526.120715 
L 580.524948 -521.818219 
L 581.46945 -517.515723 
L 582.491087 -513.213227 
L 583.582564 -508.910731 
L 584.734899 -504.608235 
L 585.938092 -500.305739 
L 587.181859 -496.003243 
L 588.456257 -491.700747 
L 589.752096 -487.398251 
L 591.061044 -483.095755 
L 592.375395 -478.793259 
L 593.687569 -474.490764 
L 594.989488 -470.188268 
L 596.272042 -465.885772 
L 597.524879 -461.583276 
L 598.73672 -457.28078 
L 599.896294 -452.978284 
L 600.993847 -448.675788 
L 602.023012 -444.373292 
L 602.982693 -440.070796 
L 603.878514 -435.7683 
L 604.723405 -431.465804 
L 605.537001 -427.163308 
L 606.343708 -422.860812 
L 607.169522 -418.558316 
L 608.037952 -414.25582 
L 608.965562 -409.953324 
L 609.957796 -405.650828 
L 611.005739 -401.348332 
L 612.084388 -397.045836 
L 613.152802 -392.74334 
L 614.156256 -388.440844 
L 615.030246 -384.138349 
L 615.705913 -379.835853 
L 616.116272 -375.533357 
L 616.2025 -371.230861 
L 615.919525 -366.928365 
L 615.240278 -362.625869 
L 614.158146 -358.323373 
L 612.687409 -354.020877 
L 610.861737 -349.718381 
L 608.731034 -345.415885 
L 606.357098 -341.113389 
L 603.80867 -336.810893 
L 601.156417 -332.508397 
L 598.468365 -328.205901 
L 595.806136 -323.903405 
L 593.222227 -319.600909 
L 590.758419 -315.298413 
L 588.445274 -310.995917 
L 586.302585 -306.693421 
L 584.340577 -302.390925 
L 582.56159 -298.088429 
L 580.962009 -293.785933 
L 579.534168 -289.483438 
L 578.268041 -285.180942 
L 577.152579 -280.878446 
L 576.17661 -276.57595 
L 575.329336 -272.273454 
L 574.600476 -267.970958 
L 573.980179 -263.668462 
L 573.458829 -259.365966 
L 573.026848 -255.06347 
L 572.67458 -250.760974 
L 572.392299 -246.458478 
L 572.170327 -242.155982 
L 571.999241 -237.853486 
z
" style="stroke: #3d3d3d; stroke-opacity: 0.5"/>
    </defs>
    <g clip-path="url(#p980cbb4511)">
     <use xlink:href="#m4584d1d14b" x="0" y="722.183991" style="fill: #845b53; fill-opacity: 0.5; stroke: #3d3d3d; stroke-opacity: 0.5"/>
    </g>
   </g>
   <g id="PolyCollection_6">
    <defs>
     <path id="m0bd1d8f182" d="M 683.533375 -209.398267 
L 682.791625 -209.398267 
L 682.625513 -214.058198 
L 682.403964 -218.71813 
L 682.116137 -223.378062 
L 681.751321 -228.037994 
L 681.299278 -232.697925 
L 680.750313 -237.357857 
L 680.094986 -242.017789 
L 679.323454 -246.677721 
L 678.424586 -251.337652 
L 677.38512 -255.997584 
L 676.189232 -260.657516 
L 674.818874 -265.317448 
L 673.255182 -269.977379 
L 671.480971 -274.637311 
L 669.484132 -279.297243 
L 667.261436 -283.957175 
L 664.822089 -288.617106 
L 662.190362 -293.277038 
L 659.406737 -297.93697 
L 656.527283 -302.596902 
L 653.621288 -307.256834 
L 650.767448 -311.916765 
L 648.049092 -316.576697 
L 645.548993 -321.236629 
L 643.344226 -325.896561 
L 641.501458 -330.556492 
L 640.072946 -335.216424 
L 639.093445 -339.876356 
L 638.578243 -344.536288 
L 638.5225 -349.196219 
L 638.902068 -353.856151 
L 639.675797 -358.516083 
L 640.789209 -363.176015 
L 642.179173 -367.835946 
L 643.779035 -372.495878 
L 645.523604 -377.15581 
L 647.353373 -381.815742 
L 649.217563 -386.475673 
L 651.075764 -391.135605 
L 652.898229 -395.795537 
L 654.66503 -400.455469 
L 656.364482 -405.1154 
L 657.991188 -409.775332 
L 659.544119 -414.435264 
L 661.024971 -419.095196 
L 662.436984 -423.755127 
L 663.784287 -428.415059 
L 665.071676 -433.074991 
L 666.304695 -437.734923 
L 667.489788 -442.394854 
L 668.634284 -447.054786 
L 669.746041 -451.714718 
L 670.832647 -456.37465 
L 671.90026 -461.034581 
L 672.952279 -465.694513 
L 673.988147 -470.354445 
L 675.002618 -475.014377 
L 675.985738 -479.674308 
L 676.923661 -484.33424 
L 677.800234 -488.994172 
L 678.599113 -493.654104 
L 679.306055 -498.314035 
L 679.910988 -502.973967 
L 680.409487 -507.633899 
L 680.803426 -512.293831 
L 681.100693 -516.953763 
L 681.31404 -521.613694 
L 681.459284 -526.273626 
L 681.553155 -530.933558 
L 681.611165 -535.59349 
L 681.645841 -540.253421 
L 681.665577 -544.913353 
L 681.674299 -549.573285 
L 681.671942 -554.233217 
L 681.655625 -558.893148 
L 681.621296 -563.55308 
L 681.565515 -568.213012 
L 681.487063 -572.872944 
L 681.388063 -577.532875 
L 681.274431 -582.192807 
L 681.155579 -586.852739 
L 681.043426 -591.512671 
L 680.950916 -596.172602 
L 680.890295 -600.832534 
L 680.871455 -605.492466 
L 680.900609 -610.152398 
L 680.979522 -614.812329 
L 681.105372 -619.472261 
L 681.271252 -624.132193 
L 681.467173 -628.792125 
L 681.681393 -633.452056 
L 681.901826 -638.111988 
L 682.11733 -642.77192 
L 682.318697 -647.431852 
L 682.499246 -652.091783 
L 682.655013 -656.751715 
L 682.784577 -661.411647 
L 682.888629 -666.071579 
L 682.969398 -670.73151 
L 683.355602 -670.73151 
L 683.355602 -670.73151 
L 683.436371 -666.071579 
L 683.540423 -661.411647 
L 683.669987 -656.751715 
L 683.825754 -652.091783 
L 684.006303 -647.431852 
L 684.20767 -642.77192 
L 684.423174 -638.111988 
L 684.643607 -633.452056 
L 684.857827 -628.792125 
L 685.053748 -624.132193 
L 685.219628 -619.472261 
L 685.345478 -614.812329 
L 685.424391 -610.152398 
L 685.453545 -605.492466 
L 685.434705 -600.832534 
L 685.374084 -596.172602 
L 685.281574 -591.512671 
L 685.169421 -586.852739 
L 685.050569 -582.192807 
L 684.936937 -577.532875 
L 684.837937 -572.872944 
L 684.759485 -568.213012 
L 684.703704 -563.55308 
L 684.669375 -558.893148 
L 684.653058 -554.233217 
L 684.650701 -549.573285 
L 684.659423 -544.913353 
L 684.679159 -540.253421 
L 684.713835 -535.59349 
L 684.771845 -530.933558 
L 684.865716 -526.273626 
L 685.01096 -521.613694 
L 685.224307 -516.953763 
L 685.521574 -512.293831 
L 685.915513 -507.633899 
L 686.414012 -502.973967 
L 687.018945 -498.314035 
L 687.725887 -493.654104 
L 688.524766 -488.994172 
L 689.401339 -484.33424 
L 690.339262 -479.674308 
L 691.322382 -475.014377 
L 692.336853 -470.354445 
L 693.372721 -465.694513 
L 694.42474 -461.034581 
L 695.492353 -456.37465 
L 696.578959 -451.714718 
L 697.690716 -447.054786 
L 698.835212 -442.394854 
L 700.020305 -437.734923 
L 701.253324 -433.074991 
L 702.540713 -428.415059 
L 703.888016 -423.755127 
L 705.300029 -419.095196 
L 706.780881 -414.435264 
L 708.333812 -409.775332 
L 709.960518 -405.1154 
L 711.65997 -400.455469 
L 713.426771 -395.795537 
L 715.249236 -391.135605 
L 717.107437 -386.475673 
L 718.971627 -381.815742 
L 720.801396 -377.15581 
L 722.545965 -372.495878 
L 724.145827 -367.835946 
L 725.535791 -363.176015 
L 726.649203 -358.516083 
L 727.422932 -353.856151 
L 727.8025 -349.196219 
L 727.746757 -344.536288 
L 727.231555 -339.876356 
L 726.252054 -335.216424 
L 724.823542 -330.556492 
L 722.980774 -325.896561 
L 720.776007 -321.236629 
L 718.275908 -316.576697 
L 715.557552 -311.916765 
L 712.703712 -307.256834 
L 709.797717 -302.596902 
L 706.918263 -297.93697 
L 704.134638 -293.277038 
L 701.502911 -288.617106 
L 699.063564 -283.957175 
L 696.840868 -279.297243 
L 694.844029 -274.637311 
L 693.069818 -269.977379 
L 691.506126 -265.317448 
L 690.135768 -260.657516 
L 688.93988 -255.997584 
L 687.900414 -251.337652 
L 687.001546 -246.677721 
L 686.230014 -242.017789 
L 685.574687 -237.357857 
L 685.025722 -232.697925 
L 684.573679 -228.037994 
L 684.208863 -223.378062 
L 683.921036 -218.71813 
L 683.699487 -214.058198 
L 683.533375 -209.398267 
z
" style="stroke: #3d3d3d; stroke-opacity: 0.5"/>
    </defs>
    <g clip-path="url(#p980cbb4511)">
     <use xlink:href="#m0bd1d8f182" x="0" y="722.183991" style="fill: #e1812c; fill-opacity: 0.5; stroke: #3d3d3d; stroke-opacity: 0.5"/>
    </g>
   </g>
   <g id="PolyCollection_7">
    <defs>
     <path id="mfcb531905d" d="M 795.256516 -210.996619 
L 794.268484 -210.996619 
L 794.068759 -215.678574 
L 793.810515 -220.360529 
L 793.484531 -225.042484 
L 793.081946 -229.724439 
L 792.594197 -234.406394 
L 792.012545 -239.088349 
L 791.327203 -243.770304 
L 790.52616 -248.452259 
L 789.594007 -253.134215 
L 788.511164 -257.81617 
L 787.25399 -262.498125 
L 785.796159 -267.18008 
L 784.111532 -271.862035 
L 782.178397 -276.54399 
L 779.984605 -281.225945 
L 777.532801 -285.9079 
L 774.844741 -290.589855 
L 771.963706 -295.27181 
L 768.954278 -299.953765 
L 765.899182 -304.63572 
L 762.893425 -309.317676 
L 760.036534 -313.999631 
L 757.424007 -318.681586 
L 755.139288 -323.363541 
L 753.247407 -328.045496 
L 751.791091 -332.727451 
L 750.789657 -337.409406 
L 750.240491 -342.091361 
L 750.1225 -346.773316 
L 750.400692 -351.455271 
L 751.030986 -356.137226 
L 751.964502 -360.819182 
L 753.150851 -365.501137 
L 754.540243 -370.183092 
L 756.084547 -374.865047 
L 757.737621 -379.547002 
L 759.455353 -384.228957 
L 761.195803 -388.910912 
L 762.919749 -393.592867 
L 764.591727 -398.274822 
L 766.18149 -402.956777 
L 767.665643 -407.638732 
L 769.029125 -412.320687 
L 770.266203 -417.002643 
L 771.380716 -421.684598 
L 772.385441 -426.366553 
L 773.300596 -431.048508 
L 774.151628 -435.730463 
L 774.966552 -440.412418 
L 775.773134 -445.094373 
L 776.59623 -449.776328 
L 777.455533 -454.458283 
L 778.36396 -459.140238 
L 779.326775 -463.822193 
L 780.341539 -468.504149 
L 781.398828 -473.186104 
L 782.483641 -477.868059 
L 783.577294 -482.550014 
L 784.659584 -487.231969 
L 785.71091 -491.913924 
L 786.714111 -496.595879 
L 787.655761 -501.277834 
L 788.526805 -505.959789 
L 789.32249 -510.641744 
L 790.041708 -515.323699 
L 790.685916 -520.005654 
L 791.257906 -524.68761 
L 791.760654 -529.369565 
L 792.196461 -534.05152 
L 792.566519 -538.733475 
L 792.870923 -543.41543 
L 793.109093 -548.097385 
L 793.28049 -552.77934 
L 793.385466 -557.461295 
L 793.426116 -562.14325 
L 793.406965 -566.825205 
L 793.33539 -571.50716 
L 793.221695 -576.189116 
L 793.078803 -580.871071 
L 792.921582 -585.553026 
L 792.765839 -590.234981 
L 792.627121 -594.916936 
L 792.519418 -599.598891 
L 792.453968 -604.280846 
L 792.438289 -608.962801 
L 792.475597 -613.644756 
L 792.564684 -618.326711 
L 792.700261 -623.008666 
L 792.873739 -627.690621 
L 793.074309 -632.372577 
L 793.290168 -637.054532 
L 793.509732 -641.736487 
L 793.722676 -646.418442 
L 793.920681 -651.100397 
L 794.097851 -655.782352 
L 794.250788 -660.464307 
L 794.378385 -665.146262 
L 794.481411 -669.828217 
L 794.561998 -674.510172 
L 794.963002 -674.510172 
L 794.963002 -674.510172 
L 795.043589 -669.828217 
L 795.146615 -665.146262 
L 795.274212 -660.464307 
L 795.427149 -655.782352 
L 795.604319 -651.100397 
L 795.802324 -646.418442 
L 796.015268 -641.736487 
L 796.234832 -637.054532 
L 796.450691 -632.372577 
L 796.651261 -627.690621 
L 796.824739 -623.008666 
L 796.960316 -618.326711 
L 797.049403 -613.644756 
L 797.086711 -608.962801 
L 797.071032 -604.280846 
L 797.005582 -599.598891 
L 796.897879 -594.916936 
L 796.759161 -590.234981 
L 796.603418 -585.553026 
L 796.446197 -580.871071 
L 796.303305 -576.189116 
L 796.18961 -571.50716 
L 796.118035 -566.825205 
L 796.098884 -562.14325 
L 796.139534 -557.461295 
L 796.24451 -552.77934 
L 796.415907 -548.097385 
L 796.654077 -543.41543 
L 796.958481 -538.733475 
L 797.328539 -534.05152 
L 797.764346 -529.369565 
L 798.267094 -524.68761 
L 798.839084 -520.005654 
L 799.483292 -515.323699 
L 800.20251 -510.641744 
L 800.998195 -505.959789 
L 801.869239 -501.277834 
L 802.810889 -496.595879 
L 803.81409 -491.913924 
L 804.865416 -487.231969 
L 805.947706 -482.550014 
L 807.041359 -477.868059 
L 808.126172 -473.186104 
L 809.183461 -468.504149 
L 810.198225 -463.822193 
L 811.16104 -459.140238 
L 812.069467 -454.458283 
L 812.92877 -449.776328 
L 813.751866 -445.094373 
L 814.558448 -440.412418 
L 815.373372 -435.730463 
L 816.224404 -431.048508 
L 817.139559 -426.366553 
L 818.144284 -421.684598 
L 819.258797 -417.002643 
L 820.495875 -412.320687 
L 821.859357 -407.638732 
L 823.34351 -402.956777 
L 824.933273 -398.274822 
L 826.605251 -393.592867 
L 828.329197 -388.910912 
L 830.069647 -384.228957 
L 831.787379 -379.547002 
L 833.440453 -374.865047 
L 834.984757 -370.183092 
L 836.374149 -365.501137 
L 837.560498 -360.819182 
L 838.494014 -356.137226 
L 839.124308 -351.455271 
L 839.4025 -346.773316 
L 839.284509 -342.091361 
L 838.735343 -337.409406 
L 837.733909 -332.727451 
L 836.277593 -328.045496 
L 834.385712 -323.363541 
L 832.100993 -318.681586 
L 829.488466 -313.999631 
L 826.631575 -309.317676 
L 823.625818 -304.63572 
L 820.570722 -299.953765 
L 817.561294 -295.27181 
L 814.680259 -290.589855 
L 811.992199 -285.9079 
L 809.540395 -281.225945 
L 807.346603 -276.54399 
L 805.413468 -271.862035 
L 803.728841 -267.18008 
L 802.27101 -262.498125 
L 801.013836 -257.81617 
L 799.930993 -253.134215 
L 798.99884 -248.452259 
L 798.197797 -243.770304 
L 797.512455 -239.088349 
L 796.930803 -234.406394 
L 796.443054 -229.724439 
L 796.040469 -225.042484 
L 795.714485 -220.360529 
L 795.456241 -215.678574 
L 795.256516 -210.996619 
z
" style="stroke: #3d3d3d; stroke-opacity: 0.5"/>
    </defs>
    <g clip-path="url(#p980cbb4511)">
     <use xlink:href="#mfcb531905d" x="0" y="722.183991" style="fill: #3a923a; fill-opacity: 0.5; stroke: #3d3d3d; stroke-opacity: 0.5"/>
    </g>
   </g>
   <g id="line2d_7">
    <path d="M 125.1625 424.359337 
L 125.1625 155.122194 
" clip-path="url(#p980cbb4511)" style="fill: none; stroke: #3d3d3d; stroke-width: 1.5; stroke-linecap: round"/>
   </g>
   <g id="line2d_8">
    <path d="M 125.1625 345.499608 
L 125.1625 256.227052 
" clip-path="url(#p980cbb4511)" style="fill: none; stroke: #3d3d3d; stroke-width: 4.5; stroke-linecap: round"/>
   </g>
   <g id="line2d_9">
    <path d="M 125.1625 306.048912 
" clip-path="url(#p980cbb4511)" style="fill: none; stroke: #3d3d3d; stroke-width: 1.5; stroke-linecap: round"/>
    <defs>
     <path id="m0bcb908a48" d="M 1.875 0 
L -1.875 -0 
" style="stroke: #ffffff; stroke-width: 0.9"/>
    </defs>
    <g clip-path="url(#p980cbb4511)">
     <use xlink:href="#m0bcb908a48" x="125.1625" y="306.048912" style="fill: #ffffff; stroke: #ffffff; stroke-width: 0.9"/>
    </g>
   </g>
   <g id="line2d_10">
    <path d="M 236.7625 481.511803 
L 236.7625 235.722601 
" clip-path="url(#p980cbb4511)" style="fill: none; stroke: #3d3d3d; stroke-width: 1.5; stroke-linecap: round"/>
   </g>
   <g id="line2d_11">
    <path d="M 236.7625 440.087677 
L 236.7625 357.49238 
" clip-path="url(#p980cbb4511)" style="fill: none; stroke: #3d3d3d; stroke-width: 4.5; stroke-linecap: round"/>
   </g>
   <g id="line2d_12">
    <path d="M 236.7625 412.942842 
" clip-path="url(#p980cbb4511)" style="fill: none; stroke: #3d3d3d; stroke-width: 1.5; stroke-linecap: round"/>
    <g clip-path="url(#p980cbb4511)">
     <use xlink:href="#m0bcb908a48" x="236.7625" y="412.942842" style="fill: #ffffff; stroke: #ffffff; stroke-width: 0.9"/>
    </g>
   </g>
   <g id="line2d_13">
    <path d="M 348.3625 357.210842 
L 348.3625 105.93077 
" clip-path="url(#p980cbb4511)" style="fill: none; stroke: #3d3d3d; stroke-width: 1.5; stroke-linecap: round"/>
   </g>
   <g id="line2d_14">
    <path d="M 348.3625 264.592797 
L 348.3625 197.984145 
" clip-path="url(#p980cbb4511)" style="fill: none; stroke: #3d3d3d; stroke-width: 4.5; stroke-linecap: round"/>
   </g>
   <g id="line2d_15">
    <path d="M 348.3625 240.075578 
" clip-path="url(#p980cbb4511)" style="fill: none; stroke: #3d3d3d; stroke-width: 1.5; stroke-linecap: round"/>
    <g clip-path="url(#p980cbb4511)">
     <use xlink:href="#m0bcb908a48" x="348.3625" y="240.075578" style="fill: #ffffff; stroke: #ffffff; stroke-width: 0.9"/>
    </g>
   </g>
   <g id="line2d_16">
    <path d="M 459.9625 417.490261 
L 459.9625 167.365414 
" clip-path="url(#p980cbb4511)" style="fill: none; stroke: #3d3d3d; stroke-width: 1.5; stroke-linecap: round"/>
   </g>
   <g id="line2d_17">
    <path d="M 459.9625 337.774825 
L 459.9625 262.371449 
" clip-path="url(#p980cbb4511)" style="fill: none; stroke: #3d3d3d; stroke-width: 4.5; stroke-linecap: round"/>
   </g>
   <g id="line2d_18">
    <path d="M 459.9625 304.733806 
" clip-path="url(#p980cbb4511)" style="fill: none; stroke: #3d3d3d; stroke-width: 1.5; stroke-linecap: round"/>
    <g clip-path="url(#p980cbb4511)">
     <use xlink:href="#m0bcb908a48" x="459.9625" y="304.733806" style="fill: #ffffff; stroke: #ffffff; stroke-width: 0.9"/>
    </g>
   </g>
   <g id="line2d_19">
    <path d="M 571.5625 428.905313 
L 571.5625 160.810332 
" clip-path="url(#p980cbb4511)" style="fill: none; stroke: #3d3d3d; stroke-width: 1.5; stroke-linecap: round"/>
   </g>
   <g id="line2d_20">
    <path d="M 571.5625 361.382033 
L 571.5625 275.466287 
" clip-path="url(#p980cbb4511)" style="fill: none; stroke: #3d3d3d; stroke-width: 4.5; stroke-linecap: round"/>
   </g>
   <g id="line2d_21">
    <path d="M 571.5625 328.77993 
" clip-path="url(#p980cbb4511)" style="fill: none; stroke: #3d3d3d; stroke-width: 1.5; stroke-linecap: round"/>
    <g clip-path="url(#p980cbb4511)">
     <use xlink:href="#m0bcb908a48" x="571.5625" y="328.77993" style="fill: #ffffff; stroke: #ffffff; stroke-width: 0.9"/>
    </g>
   </g>
   <g id="line2d_22">
    <path d="M 683.1625 458.468932 
L 683.1625 245.487336 
" clip-path="url(#p980cbb4511)" style="fill: none; stroke: #3d3d3d; stroke-width: 1.5; stroke-linecap: round"/>
   </g>
   <g id="line2d_23">
    <path d="M 683.1625 390.282662 
L 683.1625 321.967585 
" clip-path="url(#p980cbb4511)" style="fill: none; stroke: #3d3d3d; stroke-width: 4.5; stroke-linecap: round"/>
   </g>
   <g id="line2d_24">
    <path d="M 683.1625 364.94478 
" clip-path="url(#p980cbb4511)" style="fill: none; stroke: #3d3d3d; stroke-width: 1.5; stroke-linecap: round"/>
    <g clip-path="url(#p980cbb4511)">
     <use xlink:href="#m0bcb908a48" x="683.1625" y="364.94478" style="fill: #ffffff; stroke: #ffffff; stroke-width: 0.9"/>
    </g>
   </g>
   <g id="line2d_25">
    <path d="M 794.7625 454.670355 
L 794.7625 199.178397 
" clip-path="url(#p980cbb4511)" style="fill: none; stroke: #3d3d3d; stroke-width: 1.5; stroke-linecap: round"/>
   </g>
   <g id="line2d_26">
    <path d="M 794.7625 391.780226 
L 794.7625 308.138455 
" clip-path="url(#p980cbb4511)" style="fill: none; stroke: #3d3d3d; stroke-width: 4.5; stroke-linecap: round"/>
   </g>
   <g id="line2d_27">
    <path d="M 794.7625 361.000506 
" clip-path="url(#p980cbb4511)" style="fill: none; stroke: #3d3d3d; stroke-width: 1.5; stroke-linecap: round"/>
    <g clip-path="url(#p980cbb4511)">
     <use xlink:href="#m0bcb908a48" x="794.7625" y="361.000506" style="fill: #ffffff; stroke: #ffffff; stroke-width: 0.9"/>
    </g>
   </g>
   <g id="patch_3">
    <path d="M 69.3625 561.6 
L 850.5625 561.6 
" style="fill: none; stroke: #cccccc; stroke-width: 0.8; stroke-linejoin: miter; stroke-linecap: square"/>
   </g>
  </g>
 </g>
 <defs>
  <clipPath id="p980cbb4511">
   <rect x="69.3625" y="7.2" width="781.2" height="554.4"/>
  </clipPath>
 </defs>
</svg>
