<?xml version="1.0" encoding="utf-8" standalone="no"?>
<!DOCTYPE svg PUBLIC "-//W3C//DTD SVG 1.1//EN"
  "http://www.w3.org/Graphics/SVG/1.1/DTD/svg11.dtd">
<svg xmlns:xlink="http://www.w3.org/1999/xlink" width="857.7625pt" height="722.183991pt" viewBox="0 0 857.7625 722.183991" xmlns="http://www.w3.org/2000/svg" version="1.1">
 <metadata>
  <rdf:RDF xmlns:dc="http://purl.org/dc/elements/1.1/" xmlns:cc="http://creativecommons.org/ns#" xmlns:rdf="http://www.w3.org/1999/02/22-rdf-syntax-ns#">
   <cc:Work>
    <dc:type rdf:resource="http://purl.org/dc/dcmitype/StillImage"/>
    <dc:date>2024-03-17T20:48:16.546509</dc:date>
    <dc:format>image/svg+xml</dc:format>
    <dc:creator>
     <cc:Agent>
      <dc:title>Matplotlib v3.8.0, https://matplotlib.org/</dc:title>
     </cc:Agent>
    </dc:creator>
   </cc:Work>
  </rdf:RDF>
 </metadata>
 <defs>
  <style type="text/css">*{stroke-linejoin: round; stroke-linecap: butt}</style>
 </defs>
 <g id="figure_1">
  <g id="patch_1">
   <path d="M 0 722.183991 
L 857.7625 722.183991 
L 857.7625 0 
L 0 0 
L 0 722.183991 
z
" style="fill: none"/>
  </g>
  <g id="axes_1">
   <g id="patch_2">
    <path d="M 69.3625 561.6 
L 850.5625 561.6 
L 850.5625 7.2 
L 69.3625 7.2 
L 69.3625 561.6 
z
" style="fill: none"/>
   </g>
   <g id="matplotlib.axis_1">
    <g id="xtick_1">
     <g id="text_1">
      <!-- MSA -->
      <g style="fill: #262626" transform="translate(104.788986 610.465141) rotate(-45) scale(0.2 -0.2)">
       <defs>
        <path id="DejaVuSans-4d" d="M 628 4666 
L 1569 4666 
L 2759 1491 
L 3956 4666 
L 4897 4666 
L 4897 0 
L 4281 0 
L 4281 4097 
L 3078 897 
L 2444 897 
L 1241 4097 
L 1241 0 
L 628 0 
L 628 4666 
z
" transform="scale(0.015625)"/>
        <path id="DejaVuSans-53" d="M 3425 4513 
L 3425 3897 
Q 3066 4069 2747 4153 
Q 2428 4238 2131 4238 
Q 1616 4238 1336 4038 
Q 1056 3838 1056 3469 
Q 1056 3159 1242 3001 
Q 1428 2844 1947 2747 
L 2328 2669 
Q 3034 2534 3370 2195 
Q 3706 1856 3706 1288 
Q 3706 609 3251 259 
Q 2797 -91 1919 -91 
Q 1588 -91 1214 -16 
Q 841 59 441 206 
L 441 856 
Q 825 641 1194 531 
Q 1563 422 1919 422 
Q 2459 422 2753 634 
Q 3047 847 3047 1241 
Q 3047 1584 2836 1778 
Q 2625 1972 2144 2069 
L 1759 2144 
Q 1053 2284 737 2584 
Q 422 2884 422 3419 
Q 422 4038 858 4394 
Q 1294 4750 2059 4750 
Q 2388 4750 2728 4690 
Q 3069 4631 3425 4513 
z
" transform="scale(0.015625)"/>
        <path id="DejaVuSans-41" d="M 2188 4044 
L 1331 1722 
L 3047 1722 
L 2188 4044 
z
M 1831 4666 
L 2547 4666 
L 4325 0 
L 3669 0 
L 3244 1197 
L 1141 1197 
L 716 0 
L 50 0 
L 1831 4666 
z
" transform="scale(0.015625)"/>
       </defs>
       <use xlink:href="#DejaVuSans-4d"/>
       <use xlink:href="#DejaVuSans-53" x="86.279297"/>
       <use xlink:href="#DejaVuSans-41" x="151.630859"/>
      </g>
     </g>
    </g>
    <g id="xtick_2">
     <g id="text_2">
      <!-- Template -->
      <g style="fill: #262626" transform="translate(182.97819 643.875936) rotate(-45) scale(0.2 -0.2)">
       <defs>
        <path id="DejaVuSans-54" d="M -19 4666 
L 3928 4666 
L 3928 4134 
L 2272 4134 
L 2272 0 
L 1638 0 
L 1638 4134 
L -19 4134 
L -19 4666 
z
" transform="scale(0.015625)"/>
        <path id="DejaVuSans-65" d="M 3597 1894 
L 3597 1613 
L 953 1613 
Q 991 1019 1311 708 
Q 1631 397 2203 397 
Q 2534 397 2845 478 
Q 3156 559 3463 722 
L 3463 178 
Q 3153 47 2828 -22 
Q 2503 -91 2169 -91 
Q 1331 -91 842 396 
Q 353 884 353 1716 
Q 353 2575 817 3079 
Q 1281 3584 2069 3584 
Q 2775 3584 3186 3129 
Q 3597 2675 3597 1894 
z
M 3022 2063 
Q 3016 2534 2758 2815 
Q 2500 3097 2075 3097 
Q 1594 3097 1305 2825 
Q 1016 2553 972 2059 
L 3022 2063 
z
" transform="scale(0.015625)"/>
        <path id="DejaVuSans-6d" d="M 3328 2828 
Q 3544 3216 3844 3400 
Q 4144 3584 4550 3584 
Q 5097 3584 5394 3201 
Q 5691 2819 5691 2113 
L 5691 0 
L 5113 0 
L 5113 2094 
Q 5113 2597 4934 2840 
Q 4756 3084 4391 3084 
Q 3944 3084 3684 2787 
Q 3425 2491 3425 1978 
L 3425 0 
L 2847 0 
L 2847 2094 
Q 2847 2600 2669 2842 
Q 2491 3084 2119 3084 
Q 1678 3084 1418 2786 
Q 1159 2488 1159 1978 
L 1159 0 
L 581 0 
L 581 3500 
L 1159 3500 
L 1159 2956 
Q 1356 3278 1631 3431 
Q 1906 3584 2284 3584 
Q 2666 3584 2933 3390 
Q 3200 3197 3328 2828 
z
" transform="scale(0.015625)"/>
        <path id="DejaVuSans-70" d="M 1159 525 
L 1159 -1331 
L 581 -1331 
L 581 3500 
L 1159 3500 
L 1159 2969 
Q 1341 3281 1617 3432 
Q 1894 3584 2278 3584 
Q 2916 3584 3314 3078 
Q 3713 2572 3713 1747 
Q 3713 922 3314 415 
Q 2916 -91 2278 -91 
Q 1894 -91 1617 61 
Q 1341 213 1159 525 
z
M 3116 1747 
Q 3116 2381 2855 2742 
Q 2594 3103 2138 3103 
Q 1681 3103 1420 2742 
Q 1159 2381 1159 1747 
Q 1159 1113 1420 752 
Q 1681 391 2138 391 
Q 2594 391 2855 752 
Q 3116 1113 3116 1747 
z
" transform="scale(0.015625)"/>
        <path id="DejaVuSans-6c" d="M 603 4863 
L 1178 4863 
L 1178 0 
L 603 0 
L 603 4863 
z
" transform="scale(0.015625)"/>
        <path id="DejaVuSans-61" d="M 2194 1759 
Q 1497 1759 1228 1600 
Q 959 1441 959 1056 
Q 959 750 1161 570 
Q 1363 391 1709 391 
Q 2188 391 2477 730 
Q 2766 1069 2766 1631 
L 2766 1759 
L 2194 1759 
z
M 3341 1997 
L 3341 0 
L 2766 0 
L 2766 531 
Q 2569 213 2275 61 
Q 1981 -91 1556 -91 
Q 1019 -91 701 211 
Q 384 513 384 1019 
Q 384 1609 779 1909 
Q 1175 2209 1959 2209 
L 2766 2209 
L 2766 2266 
Q 2766 2663 2505 2880 
Q 2244 3097 1772 3097 
Q 1472 3097 1187 3025 
Q 903 2953 641 2809 
L 641 3341 
Q 956 3463 1253 3523 
Q 1550 3584 1831 3584 
Q 2591 3584 2966 3190 
Q 3341 2797 3341 1997 
z
" transform="scale(0.015625)"/>
        <path id="DejaVuSans-74" d="M 1172 4494 
L 1172 3500 
L 2356 3500 
L 2356 3053 
L 1172 3053 
L 1172 1153 
Q 1172 725 1289 603 
Q 1406 481 1766 481 
L 2356 481 
L 2356 0 
L 1766 0 
Q 1100 0 847 248 
Q 594 497 594 1153 
L 594 3053 
L 172 3053 
L 172 3500 
L 594 3500 
L 594 4494 
L 1172 4494 
z
" transform="scale(0.015625)"/>
       </defs>
       <use xlink:href="#DejaVuSans-54"/>
       <use xlink:href="#DejaVuSans-65" x="44.083984"/>
       <use xlink:href="#DejaVuSans-6d" x="105.607422"/>
       <use xlink:href="#DejaVuSans-70" x="203.019531"/>
       <use xlink:href="#DejaVuSans-6c" x="266.496094"/>
       <use xlink:href="#DejaVuSans-61" x="294.279297"/>
       <use xlink:href="#DejaVuSans-74" x="355.558594"/>
       <use xlink:href="#DejaVuSans-65" x="394.767578"/>
      </g>
     </g>
    </g>
    <g id="xtick_3">
     <g id="text_3">
      <!-- Backbone -->
      <g style="fill: #262626" transform="translate(289.478183 648.975944) rotate(-45) scale(0.2 -0.2)">
       <defs>
        <path id="DejaVuSans-42" d="M 1259 2228 
L 1259 519 
L 2272 519 
Q 2781 519 3026 730 
Q 3272 941 3272 1375 
Q 3272 1813 3026 2020 
Q 2781 2228 2272 2228 
L 1259 2228 
z
M 1259 4147 
L 1259 2741 
L 2194 2741 
Q 2656 2741 2882 2914 
Q 3109 3088 3109 3444 
Q 3109 3797 2882 3972 
Q 2656 4147 2194 4147 
L 1259 4147 
z
M 628 4666 
L 2241 4666 
Q 2963 4666 3353 4366 
Q 3744 4066 3744 3513 
Q 3744 3084 3544 2831 
Q 3344 2578 2956 2516 
Q 3422 2416 3680 2098 
Q 3938 1781 3938 1306 
Q 3938 681 3513 340 
Q 3088 0 2303 0 
L 628 0 
L 628 4666 
z
" transform="scale(0.015625)"/>
        <path id="DejaVuSans-63" d="M 3122 3366 
L 3122 2828 
Q 2878 2963 2633 3030 
Q 2388 3097 2138 3097 
Q 1578 3097 1268 2742 
Q 959 2388 959 1747 
Q 959 1106 1268 751 
Q 1578 397 2138 397 
Q 2388 397 2633 464 
Q 2878 531 3122 666 
L 3122 134 
Q 2881 22 2623 -34 
Q 2366 -91 2075 -91 
Q 1284 -91 818 406 
Q 353 903 353 1747 
Q 353 2603 823 3093 
Q 1294 3584 2113 3584 
Q 2378 3584 2631 3529 
Q 2884 3475 3122 3366 
z
" transform="scale(0.015625)"/>
        <path id="DejaVuSans-6b" d="M 581 4863 
L 1159 4863 
L 1159 1991 
L 2875 3500 
L 3609 3500 
L 1753 1863 
L 3688 0 
L 2938 0 
L 1159 1709 
L 1159 0 
L 581 0 
L 581 4863 
z
" transform="scale(0.015625)"/>
        <path id="DejaVuSans-62" d="M 3116 1747 
Q 3116 2381 2855 2742 
Q 2594 3103 2138 3103 
Q 1681 3103 1420 2742 
Q 1159 2381 1159 1747 
Q 1159 1113 1420 752 
Q 1681 391 2138 391 
Q 2594 391 2855 752 
Q 3116 1113 3116 1747 
z
M 1159 2969 
Q 1341 3281 1617 3432 
Q 1894 3584 2278 3584 
Q 2916 3584 3314 3078 
Q 3713 2572 3713 1747 
Q 3713 922 3314 415 
Q 2916 -91 2278 -91 
Q 1894 -91 1617 61 
Q 1341 213 1159 525 
L 1159 0 
L 581 0 
L 581 4863 
L 1159 4863 
L 1159 2969 
z
" transform="scale(0.015625)"/>
        <path id="DejaVuSans-6f" d="M 1959 3097 
Q 1497 3097 1228 2736 
Q 959 2375 959 1747 
Q 959 1119 1226 758 
Q 1494 397 1959 397 
Q 2419 397 2687 759 
Q 2956 1122 2956 1747 
Q 2956 2369 2687 2733 
Q 2419 3097 1959 3097 
z
M 1959 3584 
Q 2709 3584 3137 3096 
Q 3566 2609 3566 1747 
Q 3566 888 3137 398 
Q 2709 -91 1959 -91 
Q 1206 -91 779 398 
Q 353 888 353 1747 
Q 353 2609 779 3096 
Q 1206 3584 1959 3584 
z
" transform="scale(0.015625)"/>
        <path id="DejaVuSans-6e" d="M 3513 2113 
L 3513 0 
L 2938 0 
L 2938 2094 
Q 2938 2591 2744 2837 
Q 2550 3084 2163 3084 
Q 1697 3084 1428 2787 
Q 1159 2491 1159 1978 
L 1159 0 
L 581 0 
L 581 3500 
L 1159 3500 
L 1159 2956 
Q 1366 3272 1645 3428 
Q 1925 3584 2291 3584 
Q 2894 3584 3203 3211 
Q 3513 2838 3513 2113 
z
" transform="scale(0.015625)"/>
       </defs>
       <use xlink:href="#DejaVuSans-42"/>
       <use xlink:href="#DejaVuSans-61" x="68.603516"/>
       <use xlink:href="#DejaVuSans-63" x="129.882812"/>
       <use xlink:href="#DejaVuSans-6b" x="184.863281"/>
       <use xlink:href="#DejaVuSans-62" x="242.773438"/>
       <use xlink:href="#DejaVuSans-6f" x="306.25"/>
       <use xlink:href="#DejaVuSans-6e" x="367.431641"/>
       <use xlink:href="#DejaVuSans-65" x="430.810547"/>
      </g>
     </g>
    </g>
    <g id="xtick_4">
     <g id="text_4">
      <!-- Heuristic C-$\beta$ -->
      <g style="fill: #262626" transform="translate(379.63517 670.706219) rotate(-45) scale(0.2 -0.2)">
       <defs>
        <path id="DejaVuSans-48" d="M 628 4666 
L 1259 4666 
L 1259 2753 
L 3553 2753 
L 3553 4666 
L 4184 4666 
L 4184 0 
L 3553 0 
L 3553 2222 
L 1259 2222 
L 1259 0 
L 628 0 
L 628 4666 
z
" transform="scale(0.015625)"/>
        <path id="DejaVuSans-75" d="M 544 1381 
L 544 3500 
L 1119 3500 
L 1119 1403 
Q 1119 906 1312 657 
Q 1506 409 1894 409 
Q 2359 409 2629 706 
Q 2900 1003 2900 1516 
L 2900 3500 
L 3475 3500 
L 3475 0 
L 2900 0 
L 2900 538 
Q 2691 219 2414 64 
Q 2138 -91 1772 -91 
Q 1169 -91 856 284 
Q 544 659 544 1381 
z
M 1991 3584 
L 1991 3584 
z
" transform="scale(0.015625)"/>
        <path id="DejaVuSans-72" d="M 2631 2963 
Q 2534 3019 2420 3045 
Q 2306 3072 2169 3072 
Q 1681 3072 1420 2755 
Q 1159 2438 1159 1844 
L 1159 0 
L 581 0 
L 581 3500 
L 1159 3500 
L 1159 2956 
Q 1341 3275 1631 3429 
Q 1922 3584 2338 3584 
Q 2397 3584 2469 3576 
Q 2541 3569 2628 3553 
L 2631 2963 
z
" transform="scale(0.015625)"/>
        <path id="DejaVuSans-69" d="M 603 3500 
L 1178 3500 
L 1178 0 
L 603 0 
L 603 3500 
z
M 603 4863 
L 1178 4863 
L 1178 4134 
L 603 4134 
L 603 4863 
z
" transform="scale(0.015625)"/>
        <path id="DejaVuSans-73" d="M 2834 3397 
L 2834 2853 
Q 2591 2978 2328 3040 
Q 2066 3103 1784 3103 
Q 1356 3103 1142 2972 
Q 928 2841 928 2578 
Q 928 2378 1081 2264 
Q 1234 2150 1697 2047 
L 1894 2003 
Q 2506 1872 2764 1633 
Q 3022 1394 3022 966 
Q 3022 478 2636 193 
Q 2250 -91 1575 -91 
Q 1294 -91 989 -36 
Q 684 19 347 128 
L 347 722 
Q 666 556 975 473 
Q 1284 391 1588 391 
Q 1994 391 2212 530 
Q 2431 669 2431 922 
Q 2431 1156 2273 1281 
Q 2116 1406 1581 1522 
L 1381 1569 
Q 847 1681 609 1914 
Q 372 2147 372 2553 
Q 372 3047 722 3315 
Q 1072 3584 1716 3584 
Q 2034 3584 2315 3537 
Q 2597 3491 2834 3397 
z
" transform="scale(0.015625)"/>
        <path id="DejaVuSans-20" transform="scale(0.015625)"/>
        <path id="DejaVuSans-43" d="M 4122 4306 
L 4122 3641 
Q 3803 3938 3442 4084 
Q 3081 4231 2675 4231 
Q 1875 4231 1450 3742 
Q 1025 3253 1025 2328 
Q 1025 1406 1450 917 
Q 1875 428 2675 428 
Q 3081 428 3442 575 
Q 3803 722 4122 1019 
L 4122 359 
Q 3791 134 3420 21 
Q 3050 -91 2638 -91 
Q 1578 -91 968 557 
Q 359 1206 359 2328 
Q 359 3453 968 4101 
Q 1578 4750 2638 4750 
Q 3056 4750 3426 4639 
Q 3797 4528 4122 4306 
z
" transform="scale(0.015625)"/>
        <path id="DejaVuSans-2d" d="M 313 2009 
L 1997 2009 
L 1997 1497 
L 313 1497 
L 313 2009 
z
" transform="scale(0.015625)"/>
        <path id="DejaVuSans-Oblique-3b2" d="M 872 216 
L 572 -1331 
L -6 -1331 
L 928 3478 
Q 1206 4903 2538 4903 
Q 3888 4903 3659 3700 
Q 3503 2844 2894 2531 
Q 3713 2250 3553 1416 
Q 3272 -69 1759 -66 
Q 1097 -63 872 216 
z
M 1019 966 
Q 1259 422 1875 425 
Q 2775 425 2966 1406 
Q 3138 2288 1675 2219 
L 1778 2750 
Q 2909 2731 3106 3750 
Q 3241 4438 2509 4434 
Q 1691 4434 1503 3459 
L 1019 966 
z
" transform="scale(0.015625)"/>
       </defs>
       <use xlink:href="#DejaVuSans-48" transform="translate(0 0.390625)"/>
       <use xlink:href="#DejaVuSans-65" transform="translate(75.195312 0.390625)"/>
       <use xlink:href="#DejaVuSans-75" transform="translate(136.71875 0.390625)"/>
       <use xlink:href="#DejaVuSans-72" transform="translate(200.097656 0.390625)"/>
       <use xlink:href="#DejaVuSans-69" transform="translate(241.210938 0.390625)"/>
       <use xlink:href="#DejaVuSans-73" transform="translate(268.994141 0.390625)"/>
       <use xlink:href="#DejaVuSans-74" transform="translate(321.09375 0.390625)"/>
       <use xlink:href="#DejaVuSans-69" transform="translate(360.302734 0.390625)"/>
       <use xlink:href="#DejaVuSans-63" transform="translate(388.085938 0.390625)"/>
       <use xlink:href="#DejaVuSans-20" transform="translate(443.066406 0.390625)"/>
       <use xlink:href="#DejaVuSans-43" transform="translate(474.853516 0.390625)"/>
       <use xlink:href="#DejaVuSans-2d" transform="translate(544.677734 0.390625)"/>
       <use xlink:href="#DejaVuSans-Oblique-3b2" transform="translate(580.761719 0.390625)"/>
      </g>
     </g>
    </g>
    <g id="xtick_5">
     <g id="text_5">
      <!-- Template C-$\beta$ -->
      <g style="fill: #262626" transform="translate(486.992529 674.94886) rotate(-45) scale(0.2 -0.2)">
       <use xlink:href="#DejaVuSans-54" transform="translate(0 0.390625)"/>
       <use xlink:href="#DejaVuSans-65" transform="translate(61.083984 0.390625)"/>
       <use xlink:href="#DejaVuSans-6d" transform="translate(122.607422 0.390625)"/>
       <use xlink:href="#DejaVuSans-70" transform="translate(220.019531 0.390625)"/>
       <use xlink:href="#DejaVuSans-6c" transform="translate(283.496094 0.390625)"/>
       <use xlink:href="#DejaVuSans-61" transform="translate(311.279297 0.390625)"/>
       <use xlink:href="#DejaVuSans-74" transform="translate(372.558594 0.390625)"/>
       <use xlink:href="#DejaVuSans-65" transform="translate(411.767578 0.390625)"/>
       <use xlink:href="#DejaVuSans-20" transform="translate(473.291016 0.390625)"/>
       <use xlink:href="#DejaVuSans-43" transform="translate(505.078125 0.390625)"/>
       <use xlink:href="#DejaVuSans-2d" transform="translate(574.902344 0.390625)"/>
       <use xlink:href="#DejaVuSans-Oblique-3b2" transform="translate(610.986328 0.390625)"/>
      </g>
     </g>
    </g>
    <g id="xtick_6">
     <g id="text_6">
      <!-- AttnPacker -->
      <g style="fill: #262626" transform="translate(617.905383 655.348744) rotate(-45) scale(0.2 -0.2)">
       <defs>
        <path id="DejaVuSans-50" d="M 1259 4147 
L 1259 2394 
L 2053 2394 
Q 2494 2394 2734 2622 
Q 2975 2850 2975 3272 
Q 2975 3691 2734 3919 
Q 2494 4147 2053 4147 
L 1259 4147 
z
M 628 4666 
L 2053 4666 
Q 2838 4666 3239 4311 
Q 3641 3956 3641 3272 
Q 3641 2581 3239 2228 
Q 2838 1875 2053 1875 
L 1259 1875 
L 1259 0 
L 628 0 
L 628 4666 
z
" transform="scale(0.015625)"/>
       </defs>
       <use xlink:href="#DejaVuSans-41"/>
       <use xlink:href="#DejaVuSans-74" x="66.658203"/>
       <use xlink:href="#DejaVuSans-74" x="105.867188"/>
       <use xlink:href="#DejaVuSans-6e" x="145.076172"/>
       <use xlink:href="#DejaVuSans-50" x="208.455078"/>
       <use xlink:href="#DejaVuSans-61" x="264.257812"/>
       <use xlink:href="#DejaVuSans-63" x="325.537109"/>
       <use xlink:href="#DejaVuSans-6b" x="380.517578"/>
       <use xlink:href="#DejaVuSans-65" x="434.802734"/>
       <use xlink:href="#DejaVuSans-72" x="496.326172"/>
      </g>
     </g>
    </g>
    <g id="xtick_7">
     <g id="text_7">
      <!-- AttnPacker (AF) -->
      <g style="fill: #262626" transform="translate(696.167508 688.686619) rotate(-45) scale(0.2 -0.2)">
       <defs>
        <path id="DejaVuSans-28" d="M 1984 4856 
Q 1566 4138 1362 3434 
Q 1159 2731 1159 2009 
Q 1159 1288 1364 580 
Q 1569 -128 1984 -844 
L 1484 -844 
Q 1016 -109 783 600 
Q 550 1309 550 2009 
Q 550 2706 781 3412 
Q 1013 4119 1484 4856 
L 1984 4856 
z
" transform="scale(0.015625)"/>
        <path id="DejaVuSans-46" d="M 628 4666 
L 3309 4666 
L 3309 4134 
L 1259 4134 
L 1259 2759 
L 3109 2759 
L 3109 2228 
L 1259 2228 
L 1259 0 
L 628 0 
L 628 4666 
z
" transform="scale(0.015625)"/>
        <path id="DejaVuSans-29" d="M 513 4856 
L 1013 4856 
Q 1481 4119 1714 3412 
Q 1947 2706 1947 2009 
Q 1947 1309 1714 600 
Q 1481 -109 1013 -844 
L 513 -844 
Q 928 -128 1133 580 
Q 1338 1288 1338 2009 
Q 1338 2731 1133 3434 
Q 928 4138 513 4856 
z
" transform="scale(0.015625)"/>
       </defs>
       <use xlink:href="#DejaVuSans-41"/>
       <use xlink:href="#DejaVuSans-74" x="66.658203"/>
       <use xlink:href="#DejaVuSans-74" x="105.867188"/>
       <use xlink:href="#DejaVuSans-6e" x="145.076172"/>
       <use xlink:href="#DejaVuSans-50" x="208.455078"/>
       <use xlink:href="#DejaVuSans-61" x="264.257812"/>
       <use xlink:href="#DejaVuSans-63" x="325.537109"/>
       <use xlink:href="#DejaVuSans-6b" x="380.517578"/>
       <use xlink:href="#DejaVuSans-65" x="434.802734"/>
       <use xlink:href="#DejaVuSans-72" x="496.326172"/>
       <use xlink:href="#DejaVuSans-20" x="537.439453"/>
       <use xlink:href="#DejaVuSans-28" x="569.226562"/>
       <use xlink:href="#DejaVuSans-41" x="608.240234"/>
       <use xlink:href="#DejaVuSans-46" x="676.648438"/>
       <use xlink:href="#DejaVuSans-29" x="734.167969"/>
      </g>
     </g>
    </g>
    <g id="text_8">
     <!-- Method -->
     <g style="fill: #262626" transform="translate(422.45625 710.824616) scale(0.2 -0.2)">
      <defs>
       <path id="DejaVuSans-68" d="M 3513 2113 
L 3513 0 
L 2938 0 
L 2938 2094 
Q 2938 2591 2744 2837 
Q 2550 3084 2163 3084 
Q 1697 3084 1428 2787 
Q 1159 2491 1159 1978 
L 1159 0 
L 581 0 
L 581 4863 
L 1159 4863 
L 1159 2956 
Q 1366 3272 1645 3428 
Q 1925 3584 2291 3584 
Q 2894 3584 3203 3211 
Q 3513 2838 3513 2113 
z
" transform="scale(0.015625)"/>
       <path id="DejaVuSans-64" d="M 2906 2969 
L 2906 4863 
L 3481 4863 
L 3481 0 
L 2906 0 
L 2906 525 
Q 2725 213 2448 61 
Q 2172 -91 1784 -91 
Q 1150 -91 751 415 
Q 353 922 353 1747 
Q 353 2572 751 3078 
Q 1150 3584 1784 3584 
Q 2172 3584 2448 3432 
Q 2725 3281 2906 2969 
z
M 947 1747 
Q 947 1113 1208 752 
Q 1469 391 1925 391 
Q 2381 391 2643 752 
Q 2906 1113 2906 1747 
Q 2906 2381 2643 2742 
Q 2381 3103 1925 3103 
Q 1469 3103 1208 2742 
Q 947 2381 947 1747 
z
" transform="scale(0.015625)"/>
      </defs>
      <use xlink:href="#DejaVuSans-4d"/>
      <use xlink:href="#DejaVuSans-65" x="86.279297"/>
      <use xlink:href="#DejaVuSans-74" x="147.802734"/>
      <use xlink:href="#DejaVuSans-68" x="187.011719"/>
      <use xlink:href="#DejaVuSans-6f" x="250.390625"/>
      <use xlink:href="#DejaVuSans-64" x="311.572266"/>
     </g>
    </g>
   </g>
   <g id="matplotlib.axis_2">
    <g id="ytick_1">
     <g id="line2d_1">
      <path d="M 69.3625 540.356229 
L 850.5625 540.356229 
" clip-path="url(#p82f8b797de)" style="fill: none; stroke: #cccccc; stroke-width: 0.8; stroke-linecap: round"/>
     </g>
     <g id="text_9">
      <!-- 0.0 -->
      <g style="fill: #262626" transform="translate(30.55625 547.954666) scale(0.2 -0.2)">
       <defs>
        <path id="DejaVuSans-30" d="M 2034 4250 
Q 1547 4250 1301 3770 
Q 1056 3291 1056 2328 
Q 1056 1369 1301 889 
Q 1547 409 2034 409 
Q 2525 409 2770 889 
Q 3016 1369 3016 2328 
Q 3016 3291 2770 3770 
Q 2525 4250 2034 4250 
z
M 2034 4750 
Q 2819 4750 3233 4129 
Q 3647 3509 3647 2328 
Q 3647 1150 3233 529 
Q 2819 -91 2034 -91 
Q 1250 -91 836 529 
Q 422 1150 422 2328 
Q 422 3509 836 4129 
Q 1250 4750 2034 4750 
z
" transform="scale(0.015625)"/>
        <path id="DejaVuSans-2e" d="M 684 794 
L 1344 794 
L 1344 0 
L 684 0 
L 684 794 
z
" transform="scale(0.015625)"/>
       </defs>
       <use xlink:href="#DejaVuSans-30"/>
       <use xlink:href="#DejaVuSans-2e" x="63.623047"/>
       <use xlink:href="#DejaVuSans-30" x="95.410156"/>
      </g>
     </g>
    </g>
    <g id="ytick_2">
     <g id="line2d_2">
      <path d="M 69.3625 440.246612 
L 850.5625 440.246612 
" clip-path="url(#p82f8b797de)" style="fill: none; stroke: #cccccc; stroke-width: 0.8; stroke-linecap: round"/>
     </g>
     <g id="text_10">
      <!-- 0.2 -->
      <g style="fill: #262626" transform="translate(30.55625 447.84505) scale(0.2 -0.2)">
       <defs>
        <path id="DejaVuSans-32" d="M 1228 531 
L 3431 531 
L 3431 0 
L 469 0 
L 469 531 
Q 828 903 1448 1529 
Q 2069 2156 2228 2338 
Q 2531 2678 2651 2914 
Q 2772 3150 2772 3378 
Q 2772 3750 2511 3984 
Q 2250 4219 1831 4219 
Q 1534 4219 1204 4116 
Q 875 4013 500 3803 
L 500 4441 
Q 881 4594 1212 4672 
Q 1544 4750 1819 4750 
Q 2544 4750 2975 4387 
Q 3406 4025 3406 3419 
Q 3406 3131 3298 2873 
Q 3191 2616 2906 2266 
Q 2828 2175 2409 1742 
Q 1991 1309 1228 531 
z
" transform="scale(0.015625)"/>
       </defs>
       <use xlink:href="#DejaVuSans-30"/>
       <use xlink:href="#DejaVuSans-2e" x="63.623047"/>
       <use xlink:href="#DejaVuSans-32" x="95.410156"/>
      </g>
     </g>
    </g>
    <g id="ytick_3">
     <g id="line2d_3">
      <path d="M 69.3625 340.136996 
L 850.5625 340.136996 
" clip-path="url(#p82f8b797de)" style="fill: none; stroke: #cccccc; stroke-width: 0.8; stroke-linecap: round"/>
     </g>
     <g id="text_11">
      <!-- 0.4 -->
      <g style="fill: #262626" transform="translate(30.55625 347.735434) scale(0.2 -0.2)">
       <defs>
        <path id="DejaVuSans-34" d="M 2419 4116 
L 825 1625 
L 2419 1625 
L 2419 4116 
z
M 2253 4666 
L 3047 4666 
L 3047 1625 
L 3713 1625 
L 3713 1100 
L 3047 1100 
L 3047 0 
L 2419 0 
L 2419 1100 
L 313 1100 
L 313 1709 
L 2253 4666 
z
" transform="scale(0.015625)"/>
       </defs>
       <use xlink:href="#DejaVuSans-30"/>
       <use xlink:href="#DejaVuSans-2e" x="63.623047"/>
       <use xlink:href="#DejaVuSans-34" x="95.410156"/>
      </g>
     </g>
    </g>
    <g id="ytick_4">
     <g id="line2d_4">
      <path d="M 69.3625 240.02738 
L 850.5625 240.02738 
" clip-path="url(#p82f8b797de)" style="fill: none; stroke: #cccccc; stroke-width: 0.8; stroke-linecap: round"/>
     </g>
     <g id="text_12">
      <!-- 0.6 -->
      <g style="fill: #262626" transform="translate(30.55625 247.625817) scale(0.2 -0.2)">
       <defs>
        <path id="DejaVuSans-36" d="M 2113 2584 
Q 1688 2584 1439 2293 
Q 1191 2003 1191 1497 
Q 1191 994 1439 701 
Q 1688 409 2113 409 
Q 2538 409 2786 701 
Q 3034 994 3034 1497 
Q 3034 2003 2786 2293 
Q 2538 2584 2113 2584 
z
M 3366 4563 
L 3366 3988 
Q 3128 4100 2886 4159 
Q 2644 4219 2406 4219 
Q 1781 4219 1451 3797 
Q 1122 3375 1075 2522 
Q 1259 2794 1537 2939 
Q 1816 3084 2150 3084 
Q 2853 3084 3261 2657 
Q 3669 2231 3669 1497 
Q 3669 778 3244 343 
Q 2819 -91 2113 -91 
Q 1303 -91 875 529 
Q 447 1150 447 2328 
Q 447 3434 972 4092 
Q 1497 4750 2381 4750 
Q 2619 4750 2861 4703 
Q 3103 4656 3366 4563 
z
" transform="scale(0.015625)"/>
       </defs>
       <use xlink:href="#DejaVuSans-30"/>
       <use xlink:href="#DejaVuSans-2e" x="63.623047"/>
       <use xlink:href="#DejaVuSans-36" x="95.410156"/>
      </g>
     </g>
    </g>
    <g id="ytick_5">
     <g id="line2d_5">
      <path d="M 69.3625 139.917764 
L 850.5625 139.917764 
" clip-path="url(#p82f8b797de)" style="fill: none; stroke: #cccccc; stroke-width: 0.8; stroke-linecap: round"/>
     </g>
     <g id="text_13">
      <!-- 0.8 -->
      <g style="fill: #262626" transform="translate(30.55625 147.516201) scale(0.2 -0.2)">
       <defs>
        <path id="DejaVuSans-38" d="M 2034 2216 
Q 1584 2216 1326 1975 
Q 1069 1734 1069 1313 
Q 1069 891 1326 650 
Q 1584 409 2034 409 
Q 2484 409 2743 651 
Q 3003 894 3003 1313 
Q 3003 1734 2745 1975 
Q 2488 2216 2034 2216 
z
M 1403 2484 
Q 997 2584 770 2862 
Q 544 3141 544 3541 
Q 544 4100 942 4425 
Q 1341 4750 2034 4750 
Q 2731 4750 3128 4425 
Q 3525 4100 3525 3541 
Q 3525 3141 3298 2862 
Q 3072 2584 2669 2484 
Q 3125 2378 3379 2068 
Q 3634 1759 3634 1313 
Q 3634 634 3220 271 
Q 2806 -91 2034 -91 
Q 1263 -91 848 271 
Q 434 634 434 1313 
Q 434 1759 690 2068 
Q 947 2378 1403 2484 
z
M 1172 3481 
Q 1172 3119 1398 2916 
Q 1625 2713 2034 2713 
Q 2441 2713 2670 2916 
Q 2900 3119 2900 3481 
Q 2900 3844 2670 4047 
Q 2441 4250 2034 4250 
Q 1625 4250 1398 4047 
Q 1172 3844 1172 3481 
z
" transform="scale(0.015625)"/>
       </defs>
       <use xlink:href="#DejaVuSans-30"/>
       <use xlink:href="#DejaVuSans-2e" x="63.623047"/>
       <use xlink:href="#DejaVuSans-38" x="95.410156"/>
      </g>
     </g>
    </g>
    <g id="ytick_6">
     <g id="line2d_6">
      <path d="M 69.3625 39.808147 
L 850.5625 39.808147 
" clip-path="url(#p82f8b797de)" style="fill: none; stroke: #cccccc; stroke-width: 0.8; stroke-linecap: round"/>
     </g>
     <g id="text_14">
      <!-- 1.0 -->
      <g style="fill: #262626" transform="translate(30.55625 47.406585) scale(0.2 -0.2)">
       <defs>
        <path id="DejaVuSans-31" d="M 794 531 
L 1825 531 
L 1825 4091 
L 703 3866 
L 703 4441 
L 1819 4666 
L 2450 4666 
L 2450 531 
L 3481 531 
L 3481 0 
L 794 0 
L 794 531 
z
" transform="scale(0.015625)"/>
       </defs>
       <use xlink:href="#DejaVuSans-31"/>
       <use xlink:href="#DejaVuSans-2e" x="63.623047"/>
       <use xlink:href="#DejaVuSans-30" x="95.410156"/>
      </g>
     </g>
    </g>
    <g id="text_15">
     <!-- lDDT -->
     <g style="fill: #262626" transform="translate(22.396875 308.685937) rotate(-90) scale(0.2 -0.2)">
      <defs>
       <path id="DejaVuSans-44" d="M 1259 4147 
L 1259 519 
L 2022 519 
Q 2988 519 3436 956 
Q 3884 1394 3884 2338 
Q 3884 3275 3436 3711 
Q 2988 4147 2022 4147 
L 1259 4147 
z
M 628 4666 
L 1925 4666 
Q 3281 4666 3915 4102 
Q 4550 3538 4550 2338 
Q 4550 1131 3912 565 
Q 3275 0 1925 0 
L 628 0 
L 628 4666 
z
" transform="scale(0.015625)"/>
      </defs>
      <use xlink:href="#DejaVuSans-6c"/>
      <use xlink:href="#DejaVuSans-44" x="27.783203"/>
      <use xlink:href="#DejaVuSans-44" x="104.785156"/>
      <use xlink:href="#DejaVuSans-54" x="181.787109"/>
     </g>
    </g>
   </g>
   <g id="PolyCollection_1">
    <defs>
     <path id="m9ac945820b" d="M 125.293685 -245.043493 
L 125.031315 -245.043493 
L 124.974069 -249.522178 
L 124.901423 -254.000862 
L 124.813557 -258.479547 
L 124.712572 -262.958231 
L 124.602756 -267.436916 
L 124.490478 -271.9156 
L 124.383614 -276.394285 
L 124.290533 -280.87297 
L 124.218758 -285.351654 
L 124.173579 -289.830339 
L 124.156905 -294.309023 
L 124.166662 -298.787708 
L 124.196915 -303.266393 
L 124.238765 -307.745077 
L 124.281873 -312.223762 
L 124.316317 -316.702446 
L 124.334435 -321.181131 
L 124.332256 -325.659815 
L 124.310251 -330.1385 
L 124.273242 -334.617185 
L 124.229485 -339.095869 
L 124.189116 -343.574554 
L 124.162262 -348.053238 
L 124.157201 -352.531923 
L 124.178918 -357.010607 
L 124.22831 -361.489292 
L 124.302163 -365.967977 
L 124.393803 -370.446661 
L 124.494246 -374.925346 
L 124.59354 -379.40403 
L 124.682043 -383.882715 
L 124.751438 -388.3614 
L 124.79542 -392.840084 
L 124.810068 -397.318769 
L 124.793998 -401.797453 
L 124.748383 -406.276138 
L 124.676863 -410.754822 
L 124.585331 -415.233507 
L 124.481491 -419.712192 
L 124.374134 -424.190876 
L 124.272116 -428.669561 
L 124.183145 -433.148245 
L 124.112589 -437.62693 
L 124.062572 -442.105615 
L 124.031619 -446.584299 
L 124.01495 -451.062984 
L 124.005395 -455.541668 
L 123.994636 -460.020353 
L 123.974405 -464.499037 
L 123.937215 -468.977722 
L 123.876323 -473.456407 
L 123.784852 -477.935091 
L 123.654298 -482.413776 
L 123.472855 -486.89246 
L 123.224155 -491.371145 
L 122.886975 -495.84983 
L 122.436246 -500.328514 
L 121.845393 -504.807199 
L 121.089647 -509.285883 
L 120.149671 -513.764568 
L 119.01465 -518.243252 
L 117.684049 -522.721937 
L 116.167471 -527.200622 
L 114.482499 -531.679306 
L 112.650915 -536.157991 
L 110.6942 -540.636675 
L 108.629534 -545.11536 
L 106.467535 -549.594045 
L 104.21262 -554.072729 
L 101.866227 -558.551414 
L 99.432305 -563.030098 
L 96.923775 -567.508783 
L 94.368276 -571.987467 
L 91.811648 -576.466152 
L 89.318222 -580.944837 
L 86.967878 -585.423521 
L 84.850697 -589.902206 
L 83.06054 -594.38089 
L 81.688793 -598.859575 
L 80.819025 -603.338259 
L 80.5225 -607.816944 
L 80.853934 -612.295629 
L 81.846777 -616.774313 
L 83.507761 -621.252998 
L 85.811361 -625.731682 
L 88.695617 -630.210367 
L 92.06124 -634.689052 
L 95.775548 -639.167736 
L 99.681804 -643.646421 
L 103.613081 -648.125105 
L 107.408492 -652.60379 
L 110.928852 -657.082474 
L 114.06892 -661.561159 
L 116.764189 -666.039844 
L 118.991512 -670.518528 
L 120.764236 -674.997213 
L 122.123495 -679.475897 
L 123.127811 -683.954582 
L 123.843021 -688.433267 
L 126.481979 -688.433267 
L 126.481979 -688.433267 
L 127.197189 -683.954582 
L 128.201505 -679.475897 
L 129.560764 -674.997213 
L 131.333488 -670.518528 
L 133.560811 -666.039844 
L 136.25608 -661.561159 
L 139.396148 -657.082474 
L 142.916508 -652.60379 
L 146.711919 -648.125105 
L 150.643196 -643.646421 
L 154.549452 -639.167736 
L 158.26376 -634.689052 
L 161.629383 -630.210367 
L 164.513639 -625.731682 
L 166.817239 -621.252998 
L 168.478223 -616.774313 
L 169.471066 -612.295629 
L 169.8025 -607.816944 
L 169.505975 -603.338259 
L 168.636207 -598.859575 
L 167.26446 -594.38089 
L 165.474303 -589.902206 
L 163.357122 -585.423521 
L 161.006778 -580.944837 
L 158.513352 -576.466152 
L 155.956724 -571.987467 
L 153.401225 -567.508783 
L 150.892695 -563.030098 
L 148.458773 -558.551414 
L 146.11238 -554.072729 
L 143.857465 -549.594045 
L 141.695466 -545.11536 
L 139.6308 -540.636675 
L 137.674085 -536.157991 
L 135.842501 -531.679306 
L 134.157529 -527.200622 
L 132.640951 -522.721937 
L 131.31035 -518.243252 
L 130.175329 -513.764568 
L 129.235353 -509.285883 
L 128.479607 -504.807199 
L 127.888754 -500.328514 
L 127.438025 -495.84983 
L 127.100845 -491.371145 
L 126.852145 -486.89246 
L 126.670702 -482.413776 
L 126.540148 -477.935091 
L 126.448677 -473.456407 
L 126.387785 -468.977722 
L 126.350595 -464.499037 
L 126.330364 -460.020353 
L 126.319605 -455.541668 
L 126.31005 -451.062984 
L 126.293381 -446.584299 
L 126.262428 -442.105615 
L 126.212411 -437.62693 
L 126.141855 -433.148245 
L 126.052884 -428.669561 
L 125.950866 -424.190876 
L 125.843509 -419.712192 
L 125.739669 -415.233507 
L 125.648137 -410.754822 
L 125.576617 -406.276138 
L 125.531002 -401.797453 
L 125.514932 -397.318769 
L 125.52958 -392.840084 
L 125.573562 -388.3614 
L 125.642957 -383.882715 
L 125.73146 -379.40403 
L 125.830754 -374.925346 
L 125.931197 -370.446661 
L 126.022837 -365.967977 
L 126.09669 -361.489292 
L 126.146082 -357.010607 
L 126.167799 -352.531923 
L 126.162738 -348.053238 
L 126.135884 -343.574554 
L 126.095515 -339.095869 
L 126.051758 -334.617185 
L 126.014749 -330.1385 
L 125.992744 -325.659815 
L 125.990565 -321.181131 
L 126.008683 -316.702446 
L 126.043127 -312.223762 
L 126.086235 -307.745077 
L 126.128085 -303.266393 
L 126.158338 -298.787708 
L 126.168095 -294.309023 
L 126.151421 -289.830339 
L 126.106242 -285.351654 
L 126.034467 -280.87297 
L 125.941386 -276.394285 
L 125.834522 -271.9156 
L 125.722244 -267.436916 
L 125.612428 -262.958231 
L 125.511443 -258.479547 
L 125.423577 -254.000862 
L 125.350931 -249.522178 
L 125.293685 -245.043493 
z
" style="stroke: #3d3d3d; stroke-opacity: 0.5"/>
    </defs>
    <g clip-path="url(#p82f8b797de)">
     <use xlink:href="#m9ac945820b" x="0" y="722.183991" style="fill: #3274a1; fill-opacity: 0.5; stroke: #3d3d3d; stroke-opacity: 0.5"/>
    </g>
   </g>
   <g id="PolyCollection_2">
    <defs>
     <path id="m352556491e" d="M 236.98012 -553.96687 
L 236.54488 -553.96687 
L 236.456383 -555.33876 
L 236.344332 -556.71065 
L 236.20776 -558.08254 
L 236.047832 -559.454431 
L 235.868381 -560.826321 
L 235.676167 -562.198211 
L 235.48074 -563.570101 
L 235.293818 -564.941991 
L 235.128221 -566.313881 
L 234.996456 -567.685771 
L 234.909162 -569.057661 
L 234.873704 -570.429551 
L 234.893139 -571.801442 
L 234.965786 -573.173332 
L 235.085461 -574.545222 
L 235.242351 -575.917112 
L 235.424331 -577.289002 
L 235.618505 -578.660892 
L 235.812676 -580.032782 
L 235.996528 -581.404672 
L 236.162365 -582.776562 
L 236.305367 -584.148453 
L 236.423391 -585.520343 
L 236.516458 -586.892233 
L 236.586041 -588.264123 
L 236.634311 -589.636013 
L 236.663447 -591.007903 
L 236.675088 -592.379793 
L 236.669976 -593.751683 
L 236.647798 -595.123573 
L 236.607244 -596.495464 
L 236.546263 -597.867354 
L 236.462506 -599.239244 
L 236.353907 -600.611134 
L 236.219338 -601.983024 
L 236.059225 -603.354914 
L 235.876 -604.726804 
L 235.674233 -606.098694 
L 235.46033 -607.470584 
L 235.241736 -608.842475 
L 235.025681 -610.214365 
L 234.817624 -611.586255 
L 234.619654 -612.958145 
L 234.429176 -614.330035 
L 234.238205 -615.701925 
L 234.033524 -617.073815 
L 233.797776 -618.445705 
L 233.511438 -619.817595 
L 233.155357 -621.189486 
L 232.713463 -622.561376 
L 232.175159 -623.933266 
L 231.53697 -625.305156 
L 230.803145 -626.677046 
L 229.985095 -628.048936 
L 229.099784 -629.420826 
L 228.167327 -630.792716 
L 227.208212 -632.164606 
L 226.240548 -633.536497 
L 225.277725 -634.908387 
L 224.326727 -636.280277 
L 223.387209 -637.652167 
L 222.4513 -639.024057 
L 221.503976 -640.395947 
L 220.523834 -641.767837 
L 219.484136 -643.139727 
L 218.354094 -644.511617 
L 217.100541 -645.883508 
L 215.690227 -647.255398 
L 214.093034 -648.627288 
L 212.286297 -649.999178 
L 210.260159 -651.371068 
L 208.023512 -652.742958 
L 205.60968 -654.114848 
L 203.08067 -655.486738 
L 200.528704 -656.858628 
L 198.073942 -658.230519 
L 195.8578 -659.602409 
L 194.031984 -660.974299 
L 192.744234 -662.346189 
L 192.1225 -663.718079 
L 192.259791 -665.089969 
L 193.202015 -666.461859 
L 194.940801 -667.833749 
L 197.412545 -669.205639 
L 200.503941 -670.57753 
L 204.063199 -671.94942 
L 207.91529 -673.32131 
L 211.878956 -674.6932 
L 215.783118 -676.06509 
L 219.480563 -677.43698 
L 222.857436 -678.80887 
L 225.837856 -680.18076 
L 228.383789 -681.55265 
L 230.49099 -682.924541 
L 232.182267 -684.296431 
L 233.499444 -685.668321 
L 234.495307 -687.040211 
L 235.226507 -688.412101 
L 235.748027 -689.783991 
L 237.776973 -689.783991 
L 237.776973 -689.783991 
L 238.298493 -688.412101 
L 239.029693 -687.040211 
L 240.025556 -685.668321 
L 241.342733 -684.296431 
L 243.03401 -682.924541 
L 245.141211 -681.55265 
L 247.687144 -680.18076 
L 250.667564 -678.80887 
L 254.044437 -677.43698 
L 257.741882 -676.06509 
L 261.646044 -674.6932 
L 265.60971 -673.32131 
L 269.461801 -671.94942 
L 273.021059 -670.57753 
L 276.112455 -669.205639 
L 278.584199 -667.833749 
L 280.322985 -666.461859 
L 281.265209 -665.089969 
L 281.4025 -663.718079 
L 280.780766 -662.346189 
L 279.493016 -660.974299 
L 277.6672 -659.602409 
L 275.451058 -658.230519 
L 272.996296 -656.858628 
L 270.44433 -655.486738 
L 267.91532 -654.114848 
L 265.501488 -652.742958 
L 263.264841 -651.371068 
L 261.238703 -649.999178 
L 259.431966 -648.627288 
L 257.834773 -647.255398 
L 256.424459 -645.883508 
L 255.170906 -644.511617 
L 254.040864 -643.139727 
L 253.001166 -641.767837 
L 252.021024 -640.395947 
L 251.0737 -639.024057 
L 250.137791 -637.652167 
L 249.198273 -636.280277 
L 248.247275 -634.908387 
L 247.284452 -633.536497 
L 246.316788 -632.164606 
L 245.357673 -630.792716 
L 244.425216 -629.420826 
L 243.539905 -628.048936 
L 242.721855 -626.677046 
L 241.98803 -625.305156 
L 241.349841 -623.933266 
L 240.811537 -622.561376 
L 240.369643 -621.189486 
L 240.013562 -619.817595 
L 239.727224 -618.445705 
L 239.491476 -617.073815 
L 239.286795 -615.701925 
L 239.095824 -614.330035 
L 238.905346 -612.958145 
L 238.707376 -611.586255 
L 238.499319 -610.214365 
L 238.283264 -608.842475 
L 238.06467 -607.470584 
L 237.850767 -606.098694 
L 237.649 -604.726804 
L 237.465775 -603.354914 
L 237.305662 -601.983024 
L 237.171093 -600.611134 
L 237.062494 -599.239244 
L 236.978737 -597.867354 
L 236.917756 -596.495464 
L 236.877202 -595.123573 
L 236.855024 -593.751683 
L 236.849912 -592.379793 
L 236.861553 -591.007903 
L 236.890689 -589.636013 
L 236.938959 -588.264123 
L 237.008542 -586.892233 
L 237.101609 -585.520343 
L 237.219633 -584.148453 
L 237.362635 -582.776562 
L 237.528472 -581.404672 
L 237.712324 -580.032782 
L 237.906495 -578.660892 
L 238.100669 -577.289002 
L 238.282649 -575.917112 
L 238.439539 -574.545222 
L 238.559214 -573.173332 
L 238.631861 -571.801442 
L 238.651296 -570.429551 
L 238.615838 -569.057661 
L 238.528544 -567.685771 
L 238.396779 -566.313881 
L 238.231182 -564.941991 
L 238.04426 -563.570101 
L 237.848833 -562.198211 
L 237.656619 -560.826321 
L 237.477168 -559.454431 
L 237.31724 -558.08254 
L 237.180668 -556.71065 
L 237.068617 -555.33876 
L 236.98012 -553.96687 
z
" style="stroke: #3d3d3d; stroke-opacity: 0.5"/>
    </defs>
    <g clip-path="url(#p82f8b797de)">
     <use xlink:href="#m352556491e" x="0" y="722.183991" style="fill: #d684bd; fill-opacity: 0.5; stroke: #3d3d3d; stroke-opacity: 0.5"/>
    </g>
   </g>
   <g id="PolyCollection_3">
    <defs>
     <path id="m19297d1460" d="M 348.888941 -185.783991 
L 347.836059 -185.783991 
L 347.626 -190.676892 
L 347.347942 -195.569793 
L 346.986003 -200.462693 
L 346.522649 -205.355594 
L 345.939149 -210.248495 
L 345.216252 -215.141395 
L 344.335054 -220.034296 
L 343.278074 -224.927197 
L 342.03047 -229.820098 
L 340.581358 -234.712998 
L 338.925147 -239.605899 
L 337.06278 -244.4988 
L 335.002789 -249.3917 
L 332.762023 -254.284601 
L 330.365942 -259.177502 
L 327.848374 -264.070403 
L 325.25066 -268.963303 
L 322.620184 -273.856204 
L 320.008305 -278.749105 
L 317.467828 -283.642005 
L 315.050179 -288.534906 
L 312.802546 -293.427807 
L 310.765251 -298.320708 
L 308.969639 -303.213608 
L 307.436739 -308.106509 
L 306.176848 -312.99941 
L 305.190105 -317.89231 
L 304.467975 -322.785211 
L 303.995449 -327.678112 
L 303.75365 -332.571013 
L 303.7225 -337.463913 
L 303.883073 -342.356814 
L 304.21934 -347.249715 
L 304.719099 -352.142615 
L 305.374032 -357.035516 
L 306.178949 -361.928417 
L 307.130433 -366.821318 
L 308.225149 -371.714218 
L 309.458122 -376.607119 
L 310.821269 -381.50002 
L 312.302391 -386.39292 
L 313.884738 -391.285821 
L 315.547174 -396.178722 
L 317.264865 -401.071623 
L 319.010359 -405.964523 
L 320.7549 -410.857424 
L 322.469822 -415.750325 
L 324.127898 -420.643225 
L 325.704534 -425.536126 
L 327.178766 -430.429027 
L 328.534018 -435.321928 
L 329.75862 -440.214828 
L 330.846076 -445.107729 
L 331.795083 -450.00063 
L 332.6093 -454.89353 
L 333.296864 -459.786431 
L 333.869683 -464.679332 
L 334.342518 -469.572233 
L 334.731932 -474.465133 
L 335.055164 -479.358034 
L 335.329041 -484.250935 
L 335.569016 -489.143836 
L 335.78843 -494.036736 
L 335.998069 -498.929637 
L 336.206036 -503.822538 
L 336.417952 -508.715438 
L 336.637402 -513.608339 
L 336.866569 -518.50124 
L 337.10692 -523.394141 
L 337.35984 -528.287041 
L 337.62711 -533.179942 
L 337.911167 -538.072843 
L 338.215107 -542.965743 
L 338.542451 -547.858644 
L 338.896729 -552.751545 
L 339.280969 -557.644446 
L 339.697164 -562.537346 
L 340.145834 -567.430247 
L 340.625719 -572.323148 
L 341.133669 -577.216048 
L 341.664721 -582.108949 
L 342.212357 -587.00185 
L 342.768896 -591.894751 
L 343.325963 -596.787651 
L 343.874997 -601.680552 
L 344.407731 -606.573453 
L 344.916612 -611.466353 
L 345.395145 -616.359254 
L 345.838131 -621.252155 
L 346.241805 -626.145056 
L 346.60388 -631.037956 
L 346.923504 -635.930857 
L 347.20114 -640.823758 
L 347.438399 -645.716658 
L 347.63782 -650.609559 
L 347.80264 -655.50246 
L 347.936553 -660.395361 
L 348.043479 -665.288261 
L 348.127363 -670.181162 
L 348.597637 -670.181162 
L 348.597637 -670.181162 
L 348.681521 -665.288261 
L 348.788447 -660.395361 
L 348.92236 -655.50246 
L 349.08718 -650.609559 
L 349.286601 -645.716658 
L 349.52386 -640.823758 
L 349.801496 -635.930857 
L 350.12112 -631.037956 
L 350.483195 -626.145056 
L 350.886869 -621.252155 
L 351.329855 -616.359254 
L 351.808388 -611.466353 
L 352.317269 -606.573453 
L 352.850003 -601.680552 
L 353.399037 -596.787651 
L 353.956104 -591.894751 
L 354.512643 -587.00185 
L 355.060279 -582.108949 
L 355.591331 -577.216048 
L 356.099281 -572.323148 
L 356.579166 -567.430247 
L 357.027836 -562.537346 
L 357.444031 -557.644446 
L 357.828271 -552.751545 
L 358.182549 -547.858644 
L 358.509893 -542.965743 
L 358.813833 -538.072843 
L 359.09789 -533.179942 
L 359.36516 -528.287041 
L 359.61808 -523.394141 
L 359.858431 -518.50124 
L 360.087598 -513.608339 
L 360.307048 -508.715438 
L 360.518964 -503.822538 
L 360.726931 -498.929637 
L 360.93657 -494.036736 
L 361.155984 -489.143836 
L 361.395959 -484.250935 
L 361.669836 -479.358034 
L 361.993068 -474.465133 
L 362.382482 -469.572233 
L 362.855317 -464.679332 
L 363.428136 -459.786431 
L 364.1157 -454.89353 
L 364.929917 -450.00063 
L 365.878924 -445.107729 
L 366.96638 -440.214828 
L 368.190982 -435.321928 
L 369.546234 -430.429027 
L 371.020466 -425.536126 
L 372.597102 -420.643225 
L 374.255178 -415.750325 
L 375.9701 -410.857424 
L 377.714641 -405.964523 
L 379.460135 -401.071623 
L 381.177826 -396.178722 
L 382.840262 -391.285821 
L 384.422609 -386.39292 
L 385.903731 -381.50002 
L 387.266878 -376.607119 
L 388.499851 -371.714218 
L 389.594567 -366.821318 
L 390.546051 -361.928417 
L 391.350968 -357.035516 
L 392.005901 -352.142615 
L 392.50566 -347.249715 
L 392.841927 -342.356814 
L 393.0025 -337.463913 
L 392.97135 -332.571013 
L 392.729551 -327.678112 
L 392.257025 -322.785211 
L 391.534895 -317.89231 
L 390.548152 -312.99941 
L 389.288261 -308.106509 
L 387.755361 -303.213608 
L 385.959749 -298.320708 
L 383.922454 -293.427807 
L 381.674821 -288.534906 
L 379.257172 -283.642005 
L 376.716695 -278.749105 
L 374.104816 -273.856204 
L 371.47434 -268.963303 
L 368.876626 -264.070403 
L 366.359058 -259.177502 
L 363.962977 -254.284601 
L 361.722211 -249.3917 
L 359.66222 -244.4988 
L 357.799853 -239.605899 
L 356.143642 -234.712998 
L 354.69453 -229.820098 
L 353.446926 -224.927197 
L 352.389946 -220.034296 
L 351.508748 -215.141395 
L 350.785851 -210.248495 
L 350.202351 -205.355594 
L 349.738997 -200.462693 
L 349.377058 -195.569793 
L 349.099 -190.676892 
L 348.888941 -185.783991 
z
" style="stroke: #3d3d3d; stroke-opacity: 0.5"/>
    </defs>
    <g clip-path="url(#p82f8b797de)">
     <use xlink:href="#m19297d1460" x="0" y="722.183991" style="fill: #c03d3e; fill-opacity: 0.5; stroke: #3d3d3d; stroke-opacity: 0.5"/>
    </g>
   </g>
   <g id="PolyCollection_4">
    <defs>
     <path id="m90df5f7bab" d="M 460.072642 -362.828804 
L 459.852358 -362.828804 
L 459.793789 -366.127439 
L 459.716939 -369.426074 
L 459.622878 -372.72471 
L 459.516171 -376.023345 
L 459.405138 -379.321981 
L 459.301133 -382.620616 
L 459.216789 -385.919252 
L 459.163547 -389.217887 
L 459.149118 -392.516523 
L 459.175652 -395.815158 
L 459.239215 -399.113793 
L 459.330741 -402.412429 
L 459.438156 -405.711064 
L 459.548974 -409.0097 
L 459.652606 -412.308335 
L 459.741829 -415.606971 
L 459.813186 -418.905606 
L 459.866498 -422.204241 
L 459.903848 -425.502877 
L 459.928451 -428.801512 
L 459.943718 -432.100148 
L 459.952655 -435.398783 
L 459.957596 -438.697419 
L 459.960179 -441.996054 
L 459.961456 -445.294689 
L 459.962054 -448.593325 
L 459.962318 -451.89196 
L 459.962427 -455.190596 
L 459.962466 -458.489231 
L 459.962468 -461.787867 
L 459.962434 -465.086502 
L 459.962334 -468.385138 
L 459.962091 -471.683773 
L 459.961538 -474.982408 
L 459.960349 -478.281044 
L 459.957932 -481.579679 
L 459.95328 -484.878315 
L 459.944816 -488.17695 
L 459.930264 -491.475586 
L 459.906648 -494.774221 
L 459.870508 -498.072856 
L 459.818434 -501.371492 
L 459.747904 -504.670127 
L 459.658302 -507.968763 
L 459.551817 -511.267398 
L 459.433823 -514.566034 
L 459.312396 -517.864669 
L 459.196839 -521.163304 
L 459.095499 -524.46194 
L 459.013483 -527.760575 
L 458.951114 -531.059211 
L 458.903775 -534.357846 
L 458.863335 -537.656482 
L 458.820737 -540.955117 
L 458.768846 -544.253753 
L 458.704505 -547.552388 
L 458.629057 -550.851023 
L 458.547121 -554.149659 
L 458.463995 -557.448294 
L 458.382444 -560.74693 
L 458.299719 -564.045565 
L 458.205526 -567.344201 
L 458.081364 -570.642836 
L 457.901369 -573.941471 
L 457.634433 -577.240107 
L 457.247053 -580.538742 
L 456.706062 -583.837378 
L 455.980339 -587.136013 
L 455.040812 -590.434649 
L 453.858736 -593.733284 
L 452.403018 -597.031919 
L 450.63819 -600.330555 
L 448.524986 -603.62919 
L 446.02522 -606.927826 
L 443.111767 -610.226461 
L 439.78306 -613.525097 
L 436.079934 -616.823732 
L 432.101261 -620.122368 
L 428.013873 -623.421003 
L 424.052175 -626.719638 
L 420.503886 -630.018274 
L 417.68081 -633.316909 
L 415.877213 -636.615545 
L 415.3225 -639.91418 
L 416.138122 -643.212816 
L 418.309397 -646.511451 
L 421.680417 -649.810086 
L 425.974707 -653.108722 
L 430.83757 -656.407357 
L 435.890347 -659.705993 
L 440.7842 -663.004628 
L 445.24221 -666.303264 
L 449.082845 -669.601899 
L 452.223376 -672.900534 
L 454.666757 -676.19917 
L 456.478407 -679.497805 
L 457.759901 -682.796441 
L 458.625277 -686.095076 
L 459.183347 -689.393712 
L 460.741653 -689.393712 
L 460.741653 -689.393712 
L 461.299723 -686.095076 
L 462.165099 -682.796441 
L 463.446593 -679.497805 
L 465.258243 -676.19917 
L 467.701624 -672.900534 
L 470.842155 -669.601899 
L 474.68279 -666.303264 
L 479.1408 -663.004628 
L 484.034653 -659.705993 
L 489.08743 -656.407357 
L 493.950293 -653.108722 
L 498.244583 -649.810086 
L 501.615603 -646.511451 
L 503.786878 -643.212816 
L 504.6025 -639.91418 
L 504.047787 -636.615545 
L 502.24419 -633.316909 
L 499.421114 -630.018274 
L 495.872825 -626.719638 
L 491.911127 -623.421003 
L 487.823739 -620.122368 
L 483.845066 -616.823732 
L 480.14194 -613.525097 
L 476.813233 -610.226461 
L 473.89978 -606.927826 
L 471.400014 -603.62919 
L 469.28681 -600.330555 
L 467.521982 -597.031919 
L 466.066264 -593.733284 
L 464.884188 -590.434649 
L 463.944661 -587.136013 
L 463.218938 -583.837378 
L 462.677947 -580.538742 
L 462.290567 -577.240107 
L 462.023631 -573.941471 
L 461.843636 -570.642836 
L 461.719474 -567.344201 
L 461.625281 -564.045565 
L 461.542556 -560.74693 
L 461.461005 -557.448294 
L 461.377879 -554.149659 
L 461.295943 -550.851023 
L 461.220495 -547.552388 
L 461.156154 -544.253753 
L 461.104263 -540.955117 
L 461.061665 -537.656482 
L 461.021225 -534.357846 
L 460.973886 -531.059211 
L 460.911517 -527.760575 
L 460.829501 -524.46194 
L 460.728161 -521.163304 
L 460.612604 -517.864669 
L 460.491177 -514.566034 
L 460.373183 -511.267398 
L 460.266698 -507.968763 
L 460.177096 -504.670127 
L 460.106566 -501.371492 
L 460.054492 -498.072856 
L 460.018352 -494.774221 
L 459.994736 -491.475586 
L 459.980184 -488.17695 
L 459.97172 -484.878315 
L 459.967068 -481.579679 
L 459.964651 -478.281044 
L 459.963462 -474.982408 
L 459.962909 -471.683773 
L 459.962666 -468.385138 
L 459.962566 -465.086502 
L 459.962532 -461.787867 
L 459.962534 -458.489231 
L 459.962573 -455.190596 
L 459.962682 -451.89196 
L 459.962946 -448.593325 
L 459.963544 -445.294689 
L 459.964821 -441.996054 
L 459.967404 -438.697419 
L 459.972345 -435.398783 
L 459.981282 -432.100148 
L 459.996549 -428.801512 
L 460.021152 -425.502877 
L 460.058502 -422.204241 
L 460.111814 -418.905606 
L 460.183171 -415.606971 
L 460.272394 -412.308335 
L 460.376026 -409.0097 
L 460.486844 -405.711064 
L 460.594259 -402.412429 
L 460.685785 -399.113793 
L 460.749348 -395.815158 
L 460.775882 -392.516523 
L 460.761453 -389.217887 
L 460.708211 -385.919252 
L 460.623867 -382.620616 
L 460.519862 -379.321981 
L 460.408829 -376.023345 
L 460.302122 -372.72471 
L 460.208061 -369.426074 
L 460.131211 -366.127439 
L 460.072642 -362.828804 
z
" style="stroke: #3d3d3d; stroke-opacity: 0.5"/>
    </defs>
    <g clip-path="url(#p82f8b797de)">
     <use xlink:href="#m90df5f7bab" x="0" y="722.183991" style="fill: #9372b2; fill-opacity: 0.5; stroke: #3d3d3d; stroke-opacity: 0.5"/>
    </g>
   </g>
   <g id="PolyCollection_5">
    <defs>
     <path id="mfa73c038a5" d="M 571.708819 -527.505771 
L 571.416181 -527.505771 
L 571.356092 -529.030366 
L 571.28062 -530.554961 
L 571.189835 -532.079556 
L 571.085528 -533.604151 
L 570.971486 -535.128745 
L 570.853492 -536.65334 
L 570.738962 -538.177935 
L 570.636206 -539.70253 
L 570.55339 -541.227125 
L 570.497345 -542.75172 
L 570.472446 -544.276315 
L 570.479773 -545.80091 
L 570.516734 -547.325505 
L 570.577239 -548.8501 
L 570.652405 -550.374695 
L 570.73168 -551.89929 
L 570.8042 -553.423885 
L 570.860169 -554.94848 
L 570.892081 -556.473075 
L 570.895625 -557.99767 
L 570.870174 -559.522265 
L 570.818808 -561.04686 
L 570.74786 -562.571455 
L 570.66601 -564.09605 
L 570.583019 -565.620645 
L 570.50823 -567.14524 
L 570.449031 -568.669835 
L 570.409501 -570.19443 
L 570.389457 -571.719025 
L 570.384097 -573.24362 
L 570.384309 -574.768215 
L 570.377642 -576.29281 
L 570.349799 -577.817405 
L 570.286425 -579.342 
L 570.174927 -580.866595 
L 570.00605 -582.391189 
L 569.774977 -583.915784 
L 569.481806 -585.440379 
L 569.131344 -586.964974 
L 568.732254 -588.489569 
L 568.295693 -590.014164 
L 567.833647 -591.538759 
L 567.357211 -593.063354 
L 566.875042 -594.587949 
L 566.392203 -596.112544 
L 565.909479 -597.637139 
L 565.423191 -599.161734 
L 564.925414 -600.686329 
L 564.404499 -602.210924 
L 563.845774 -603.735519 
L 563.232418 -605.260114 
L 562.546541 -606.784709 
L 561.770575 -608.309304 
L 560.889088 -609.833899 
L 559.890971 -611.358494 
L 558.771801 -612.883089 
L 557.535938 -614.407684 
L 556.197751 -615.932279 
L 554.781363 -617.456874 
L 553.318424 -618.981469 
L 551.843824 -620.506064 
L 550.389743 -622.030659 
L 548.978975 -623.555254 
L 547.61889 -625.079849 
L 546.297598 -626.604444 
L 544.983704 -628.129039 
L 543.630494 -629.653633 
L 542.184596 -631.178228 
L 540.598107 -632.702823 
L 538.8423 -634.227418 
L 536.920326 -635.752013 
L 534.876203 -637.276608 
L 532.797773 -638.801203 
L 530.812292 -640.325798 
L 529.074651 -641.850393 
L 527.749709 -643.374988 
L 526.991465 -644.899583 
L 526.9225 -646.424178 
L 527.617194 -647.948773 
L 529.09149 -649.473368 
L 531.300748 -650.997963 
L 534.145685 -652.522558 
L 537.484962 -654.047153 
L 541.151954 -655.571748 
L 544.972773 -657.096343 
L 548.782819 -658.620938 
L 552.439798 -660.145533 
L 555.832098 -661.670128 
L 558.882357 -663.194723 
L 561.546831 -664.719318 
L 563.811638 -666.243913 
L 565.687098 -667.768508 
L 567.201304 -669.293103 
L 568.393822 -670.817698 
L 569.310102 -672.342293 
L 569.996941 -673.866888 
L 570.499108 -675.391483 
L 570.857081 -676.916077 
L 571.105774 -678.440672 
L 572.019226 -678.440672 
L 572.019226 -678.440672 
L 572.267919 -676.916077 
L 572.625892 -675.391483 
L 573.128059 -673.866888 
L 573.814898 -672.342293 
L 574.731178 -670.817698 
L 575.923696 -669.293103 
L 577.437902 -667.768508 
L 579.313362 -666.243913 
L 581.578169 -664.719318 
L 584.242643 -663.194723 
L 587.292902 -661.670128 
L 590.685202 -660.145533 
L 594.342181 -658.620938 
L 598.152227 -657.096343 
L 601.973046 -655.571748 
L 605.640038 -654.047153 
L 608.979315 -652.522558 
L 611.824252 -650.997963 
L 614.03351 -649.473368 
L 615.507806 -647.948773 
L 616.2025 -646.424178 
L 616.133535 -644.899583 
L 615.375291 -643.374988 
L 614.050349 -641.850393 
L 612.312708 -640.325798 
L 610.327227 -638.801203 
L 608.248797 -637.276608 
L 606.204674 -635.752013 
L 604.2827 -634.227418 
L 602.526893 -632.702823 
L 600.940404 -631.178228 
L 599.494506 -629.653633 
L 598.141296 -628.129039 
L 596.827402 -626.604444 
L 595.50611 -625.079849 
L 594.146025 -623.555254 
L 592.735257 -622.030659 
L 591.281176 -620.506064 
L 589.806576 -618.981469 
L 588.343637 -617.456874 
L 586.927249 -615.932279 
L 585.589062 -614.407684 
L 584.353199 -612.883089 
L 583.234029 -611.358494 
L 582.235912 -609.833899 
L 581.354425 -608.309304 
L 580.578459 -606.784709 
L 579.892582 -605.260114 
L 579.279226 -603.735519 
L 578.720501 -602.210924 
L 578.199586 -600.686329 
L 577.701809 -599.161734 
L 577.215521 -597.637139 
L 576.732797 -596.112544 
L 576.249958 -594.587949 
L 575.767789 -593.063354 
L 575.291353 -591.538759 
L 574.829307 -590.014164 
L 574.392746 -588.489569 
L 573.993656 -586.964974 
L 573.643194 -585.440379 
L 573.350023 -583.915784 
L 573.11895 -582.391189 
L 572.950073 -580.866595 
L 572.838575 -579.342 
L 572.775201 -577.817405 
L 572.747358 -576.29281 
L 572.740691 -574.768215 
L 572.740903 -573.24362 
L 572.735543 -571.719025 
L 572.715499 -570.19443 
L 572.675969 -568.669835 
L 572.61677 -567.14524 
L 572.541981 -565.620645 
L 572.45899 -564.09605 
L 572.37714 -562.571455 
L 572.306192 -561.04686 
L 572.254826 -559.522265 
L 572.229375 -557.99767 
L 572.232919 -556.473075 
L 572.264831 -554.94848 
L 572.3208 -553.423885 
L 572.39332 -551.89929 
L 572.472595 -550.374695 
L 572.547761 -548.8501 
L 572.608266 -547.325505 
L 572.645227 -545.80091 
L 572.652554 -544.276315 
L 572.627655 -542.75172 
L 572.57161 -541.227125 
L 572.488794 -539.70253 
L 572.386038 -538.177935 
L 572.271508 -536.65334 
L 572.153514 -535.128745 
L 572.039472 -533.604151 
L 571.935165 -532.079556 
L 571.84438 -530.554961 
L 571.768908 -529.030366 
L 571.708819 -527.505771 
z
" style="stroke: #3d3d3d; stroke-opacity: 0.5"/>
    </defs>
    <g clip-path="url(#p82f8b797de)">
     <use xlink:href="#mfa73c038a5" x="0" y="722.183991" style="fill: #845b53; fill-opacity: 0.5; stroke: #3d3d3d; stroke-opacity: 0.5"/>
    </g>
   </g>
   <g id="PolyCollection_6">
    <defs>
     <path id="me0acc9c392" d="M 683.29733 -578.332488 
L 683.02767 -578.332488 
L 682.963515 -579.414332 
L 682.880934 -580.496175 
L 682.780497 -581.578019 
L 682.665588 -582.659862 
L 682.542748 -583.741706 
L 682.42139 -584.823549 
L 682.312783 -585.905393 
L 682.228403 -586.987236 
L 682.177955 -588.06908 
L 682.16754 -589.150923 
L 682.198444 -590.232767 
L 682.266878 -591.31461 
L 682.364737 -592.396454 
L 682.481183 -593.478297 
L 682.604606 -594.560141 
L 682.724493 -595.641984 
L 682.832784 -596.723828 
L 682.92452 -597.805671 
L 682.997791 -598.887515 
L 683.053151 -599.969358 
L 683.092779 -601.051202 
L 683.119614 -602.133045 
L 683.136634 -603.214889 
L 683.146352 -604.296732 
L 683.150522 -605.378576 
L 683.149986 -606.460419 
L 683.144623 -607.542263 
L 683.133345 -608.624106 
L 683.114153 -609.70595 
L 683.084284 -610.787793 
L 683.040509 -611.869637 
L 682.979612 -612.95148 
L 682.899056 -614.033324 
L 682.797724 -615.115167 
L 682.676568 -616.197011 
L 682.538935 -617.278854 
L 682.390368 -618.360698 
L 682.237785 -619.442541 
L 682.088129 -620.524385 
L 681.946793 -621.606228 
L 681.816226 -622.688072 
L 681.69514 -623.769915 
L 681.578576 -624.851759 
L 681.458824 -625.933602 
L 681.326937 -627.015446 
L 681.174435 -628.097289 
L 680.994741 -629.179133 
L 680.78408 -630.260976 
L 680.541666 -631.34282 
L 680.269238 -632.424663 
L 679.970024 -633.506507 
L 679.647324 -634.58835 
L 679.302878 -635.670194 
L 678.935303 -636.752037 
L 678.538893 -637.833881 
L 678.103082 -638.915724 
L 677.612739 -639.997568 
L 677.049192 -641.079411 
L 676.391639 -642.161255 
L 675.618423 -643.243098 
L 674.707774 -644.324942 
L 673.637893 -645.406785 
L 672.386695 -646.488629 
L 670.931852 -647.570472 
L 669.251841 -648.652316 
L 667.328423 -649.734159 
L 665.150523 -650.816003 
L 662.71897 -651.897846 
L 660.051251 -652.97969 
L 657.185406 -654.061533 
L 654.182429 -655.143377 
L 651.12681 -656.22522 
L 648.125041 -657.307064 
L 645.301944 -658.388907 
L 642.794587 -659.470751 
L 640.74361 -660.552594 
L 639.282059 -661.634438 
L 638.5225 -662.716281 
L 638.543919 -663.798125 
L 639.380591 -664.879968 
L 641.015207 -665.961812 
L 643.378057 -667.043655 
L 646.352895 -668.125499 
L 649.788739 -669.207342 
L 653.515565 -670.289186 
L 657.361118 -671.371029 
L 661.16609 -672.452873 
L 664.795581 -673.534716 
L 668.145822 -674.61656 
L 671.14628 -675.698403 
L 673.758035 -676.780247 
L 675.96972 -677.86209 
L 677.792251 -678.943934 
L 679.253233 -680.025777 
L 680.391619 -681.107621 
L 681.252845 -682.189464 
L 681.884604 -683.271308 
L 682.333326 -684.353151 
L 682.641493 -685.434995 
L 683.683507 -685.434995 
L 683.683507 -685.434995 
L 683.991674 -684.353151 
L 684.440396 -683.271308 
L 685.072155 -682.189464 
L 685.933381 -681.107621 
L 687.071767 -680.025777 
L 688.532749 -678.943934 
L 690.35528 -677.86209 
L 692.566965 -676.780247 
L 695.17872 -675.698403 
L 698.179178 -674.61656 
L 701.529419 -673.534716 
L 705.15891 -672.452873 
L 708.963882 -671.371029 
L 712.809435 -670.289186 
L 716.536261 -669.207342 
L 719.972105 -668.125499 
L 722.946943 -667.043655 
L 725.309793 -665.961812 
L 726.944409 -664.879968 
L 727.781081 -663.798125 
L 727.8025 -662.716281 
L 727.042941 -661.634438 
L 725.58139 -660.552594 
L 723.530413 -659.470751 
L 721.023056 -658.388907 
L 718.199959 -657.307064 
L 715.19819 -656.22522 
L 712.142571 -655.143377 
L 709.139594 -654.061533 
L 706.273749 -652.97969 
L 703.60603 -651.897846 
L 701.174477 -650.816003 
L 698.996577 -649.734159 
L 697.073159 -648.652316 
L 695.393148 -647.570472 
L 693.938305 -646.488629 
L 692.687107 -645.406785 
L 691.617226 -644.324942 
L 690.706577 -643.243098 
L 689.933361 -642.161255 
L 689.275808 -641.079411 
L 688.712261 -639.997568 
L 688.221918 -638.915724 
L 687.786107 -637.833881 
L 687.389697 -636.752037 
L 687.022122 -635.670194 
L 686.677676 -634.58835 
L 686.354976 -633.506507 
L 686.055762 -632.424663 
L 685.783334 -631.34282 
L 685.54092 -630.260976 
L 685.330259 -629.179133 
L 685.150565 -628.097289 
L 684.998063 -627.015446 
L 684.866176 -625.933602 
L 684.746424 -624.851759 
L 684.62986 -623.769915 
L 684.508774 -622.688072 
L 684.378207 -621.606228 
L 684.236871 -620.524385 
L 684.087215 -619.442541 
L 683.934632 -618.360698 
L 683.786065 -617.278854 
L 683.648432 -616.197011 
L 683.527276 -615.115167 
L 683.425944 -614.033324 
L 683.345388 -612.95148 
L 683.284491 -611.869637 
L 683.240716 -610.787793 
L 683.210847 -609.70595 
L 683.191655 -608.624106 
L 683.180377 -607.542263 
L 683.175014 -606.460419 
L 683.174478 -605.378576 
L 683.178648 -604.296732 
L 683.188366 -603.214889 
L 683.205386 -602.133045 
L 683.232221 -601.051202 
L 683.271849 -599.969358 
L 683.327209 -598.887515 
L 683.40048 -597.805671 
L 683.492216 -596.723828 
L 683.600507 -595.641984 
L 683.720394 -594.560141 
L 683.843817 -593.478297 
L 683.960263 -592.396454 
L 684.058122 -591.31461 
L 684.126556 -590.232767 
L 684.15746 -589.150923 
L 684.147045 -588.06908 
L 684.096597 -586.987236 
L 684.012217 -585.905393 
L 683.90361 -584.823549 
L 683.782252 -583.741706 
L 683.659412 -582.659862 
L 683.544503 -581.578019 
L 683.444066 -580.496175 
L 683.361485 -579.414332 
L 683.29733 -578.332488 
z
" style="stroke: #3d3d3d; stroke-opacity: 0.5"/>
    </defs>
    <g clip-path="url(#p82f8b797de)">
     <use xlink:href="#me0acc9c392" x="0" y="722.183991" style="fill: #e1812c; fill-opacity: 0.5; stroke: #3d3d3d; stroke-opacity: 0.5"/>
    </g>
   </g>
   <g id="PolyCollection_7">
    <defs>
     <path id="m7de6acdf4c" d="M 794.91224 -548.218364 
L 794.61276 -548.218364 
L 794.549376 -549.62607 
L 794.467599 -551.033776 
L 794.365683 -552.441482 
L 794.243093 -553.849188 
L 794.100946 -555.256894 
L 793.94233 -556.6646 
L 793.772438 -558.072305 
L 793.598433 -559.480011 
L 793.42904 -560.887717 
L 793.273869 -562.295423 
L 793.142546 -563.703129 
L 793.043758 -565.110835 
L 792.984333 -566.518541 
L 792.968488 -567.926247 
L 792.997363 -569.333953 
L 793.068883 -570.741659 
L 793.177995 -572.149365 
L 793.317228 -573.557071 
L 793.477499 -574.964777 
L 793.649046 -576.372483 
L 793.822362 -577.780189 
L 793.988986 -579.187895 
L 794.142081 -580.595601 
L 794.276706 -582.003307 
L 794.389801 -583.411013 
L 794.479914 -584.818719 
L 794.546739 -586.226424 
L 794.590566 -587.63413 
L 794.611737 -589.041836 
L 794.610194 -590.449542 
L 794.585183 -591.857248 
L 794.535147 -593.264954 
L 794.457817 -594.67266 
L 794.350471 -596.080366 
L 794.210294 -597.488072 
L 794.034781 -598.895778 
L 793.822058 -600.303484 
L 793.571071 -601.71119 
L 793.281545 -603.118896 
L 792.95374 -604.526602 
L 792.588017 -605.934308 
L 792.184358 -607.342014 
L 791.741964 -608.74972 
L 791.259126 -610.157426 
L 790.733479 -611.565132 
L 790.162688 -612.972838 
L 789.545516 -614.380544 
L 788.88306 -615.788249 
L 788.179876 -617.195955 
L 787.444651 -618.603661 
L 786.690121 -620.011367 
L 785.932059 -621.419073 
L 785.187322 -622.826779 
L 784.47119 -624.234485 
L 783.794398 -625.642191 
L 783.160359 -627.049897 
L 782.563116 -628.457603 
L 781.9864 -629.865309 
L 781.404001 -631.273015 
L 780.781404 -632.680721 
L 780.078445 -634.088427 
L 779.252607 -635.496133 
L 778.262552 -636.903839 
L 777.071574 -638.311545 
L 775.650763 -639.719251 
L 773.981853 -641.126957 
L 772.059802 -642.534663 
L 769.895167 -643.942368 
L 767.51627 -645.350074 
L 764.970989 -646.75778 
L 762.327801 -648.165486 
L 759.675582 -649.573192 
L 757.121574 -650.980898 
L 754.787074 -652.388604 
L 752.800619 -653.79631 
L 751.288892 -655.204016 
L 750.366033 -656.611722 
L 750.1225 -658.019428 
L 750.614912 -659.427134 
L 751.858396 -660.83484 
L 753.822742 -662.242546 
L 756.433189 -663.650252 
L 759.575991 -665.057958 
L 763.10819 -666.465664 
L 766.870346 -667.87337 
L 770.70053 -669.281076 
L 774.44774 -670.688782 
L 777.983075 -672.096488 
L 781.207459 -673.504193 
L 784.055333 -674.911899 
L 786.494393 -676.319605 
L 788.522035 -677.727311 
L 790.159506 -679.135017 
L 791.444939 -680.542723 
L 792.426349 -681.950429 
L 793.155414 -683.358135 
L 793.682593 -684.765841 
L 794.053749 -686.173547 
L 794.308235 -687.581253 
L 795.216765 -687.581253 
L 795.216765 -687.581253 
L 795.471251 -686.173547 
L 795.842407 -684.765841 
L 796.369586 -683.358135 
L 797.098651 -681.950429 
L 798.080061 -680.542723 
L 799.365494 -679.135017 
L 801.002965 -677.727311 
L 803.030607 -676.319605 
L 805.469667 -674.911899 
L 808.317541 -673.504193 
L 811.541925 -672.096488 
L 815.07726 -670.688782 
L 818.82447 -669.281076 
L 822.654654 -667.87337 
L 826.41681 -666.465664 
L 829.949009 -665.057958 
L 833.091811 -663.650252 
L 835.702258 -662.242546 
L 837.666604 -660.83484 
L 838.910088 -659.427134 
L 839.4025 -658.019428 
L 839.158967 -656.611722 
L 838.236108 -655.204016 
L 836.724381 -653.79631 
L 834.737926 -652.388604 
L 832.403426 -650.980898 
L 829.849418 -649.573192 
L 827.197199 -648.165486 
L 824.554011 -646.75778 
L 822.00873 -645.350074 
L 819.629833 -643.942368 
L 817.465198 -642.534663 
L 815.543147 -641.126957 
L 813.874237 -639.719251 
L 812.453426 -638.311545 
L 811.262448 -636.903839 
L 810.272393 -635.496133 
L 809.446555 -634.088427 
L 808.743596 -632.680721 
L 808.120999 -631.273015 
L 807.5386 -629.865309 
L 806.961884 -628.457603 
L 806.364641 -627.049897 
L 805.730602 -625.642191 
L 805.05381 -624.234485 
L 804.337678 -622.826779 
L 803.592941 -621.419073 
L 802.834879 -620.011367 
L 802.080349 -618.603661 
L 801.345124 -617.195955 
L 800.64194 -615.788249 
L 799.979484 -614.380544 
L 799.362312 -612.972838 
L 798.791521 -611.565132 
L 798.265874 -610.157426 
L 797.783036 -608.74972 
L 797.340642 -607.342014 
L 796.936983 -605.934308 
L 796.57126 -604.526602 
L 796.243455 -603.118896 
L 795.953929 -601.71119 
L 795.702942 -600.303484 
L 795.490219 -598.895778 
L 795.314706 -597.488072 
L 795.174529 -596.080366 
L 795.067183 -594.67266 
L 794.989853 -593.264954 
L 794.939817 -591.857248 
L 794.914806 -590.449542 
L 794.913263 -589.041836 
L 794.934434 -587.63413 
L 794.978261 -586.226424 
L 795.045086 -584.818719 
L 795.135199 -583.411013 
L 795.248294 -582.003307 
L 795.382919 -580.595601 
L 795.536014 -579.187895 
L 795.702638 -577.780189 
L 795.875954 -576.372483 
L 796.047501 -574.964777 
L 796.207772 -573.557071 
L 796.347005 -572.149365 
L 796.456117 -570.741659 
L 796.527637 -569.333953 
L 796.556512 -567.926247 
L 796.540667 -566.518541 
L 796.481242 -565.110835 
L 796.382454 -563.703129 
L 796.251131 -562.295423 
L 796.09596 -560.887717 
L 795.926567 -559.480011 
L 795.752562 -558.072305 
L 795.58267 -556.6646 
L 795.424054 -555.256894 
L 795.281907 -553.849188 
L 795.159317 -552.441482 
L 795.057401 -551.033776 
L 794.975624 -549.62607 
L 794.91224 -548.218364 
z
" style="stroke: #3d3d3d; stroke-opacity: 0.5"/>
    </defs>
    <g clip-path="url(#p82f8b797de)">
     <use xlink:href="#m7de6acdf4c" x="0" y="722.183991" style="fill: #3a923a; fill-opacity: 0.5; stroke: #3d3d3d; stroke-opacity: 0.5"/>
    </g>
   </g>
   <g id="line2d_7">
    <path d="M 125.1625 193.227999 
L 125.1625 80.886637 
" clip-path="url(#p82f8b797de)" style="fill: none; stroke: #3d3d3d; stroke-width: 1.5; stroke-linecap: round"/>
   </g>
   <g id="line2d_8">
    <path d="M 125.1625 143.173111 
L 125.1625 98.17569 
" clip-path="url(#p82f8b797de)" style="fill: none; stroke: #3d3d3d; stroke-width: 4.5; stroke-linecap: round"/>
   </g>
   <g id="line2d_9">
    <path d="M 125.1625 122.517726 
" clip-path="url(#p82f8b797de)" style="fill: none; stroke: #3d3d3d; stroke-width: 1.5; stroke-linecap: round"/>
    <defs>
     <path id="m5d0c66332e" d="M 1.875 0 
L -1.875 -0 
" style="stroke: #ffffff; stroke-width: 0.9"/>
    </defs>
    <g clip-path="url(#p82f8b797de)">
     <use xlink:href="#m5d0c66332e" x="125.1625" y="122.517726" style="fill: #ffffff; stroke: #ffffff; stroke-width: 0.9"/>
    </g>
   </g>
   <g id="line2d_10">
    <path d="M 236.7625 92.26197 
L 236.7625 48.370141 
" clip-path="url(#p82f8b797de)" style="fill: none; stroke: #3d3d3d; stroke-width: 1.5; stroke-linecap: round"/>
   </g>
   <g id="line2d_11">
    <path d="M 236.7625 72.709405 
L 236.7625 55.508882 
" clip-path="url(#p82f8b797de)" style="fill: none; stroke: #3d3d3d; stroke-width: 4.5; stroke-linecap: round"/>
   </g>
   <g id="line2d_12">
    <path d="M 236.7625 60.34337 
" clip-path="url(#p82f8b797de)" style="fill: none; stroke: #3d3d3d; stroke-width: 1.5; stroke-linecap: round"/>
    <g clip-path="url(#p82f8b797de)">
     <use xlink:href="#m5d0c66332e" x="236.7625" y="60.34337" style="fill: #ffffff; stroke: #ffffff; stroke-width: 0.9"/>
    </g>
   </g>
   <g id="line2d_13">
    <path d="M 348.3625 466.67052 
L 348.3625 159.060778 
" clip-path="url(#p82f8b797de)" style="fill: none; stroke: #3d3d3d; stroke-width: 1.5; stroke-linecap: round"/>
   </g>
   <g id="line2d_14">
    <path d="M 348.3625 407.14252 
L 348.3625 306.639132 
" clip-path="url(#p82f8b797de)" style="fill: none; stroke: #3d3d3d; stroke-width: 4.5; stroke-linecap: round"/>
   </g>
   <g id="line2d_15">
    <path d="M 348.3625 356.728245 
" clip-path="url(#p82f8b797de)" style="fill: none; stroke: #3d3d3d; stroke-width: 1.5; stroke-linecap: round"/>
    <g clip-path="url(#p82f8b797de)">
     <use xlink:href="#m5d0c66332e" x="348.3625" y="356.728245" style="fill: #ffffff; stroke: #ffffff; stroke-width: 0.9"/>
    </g>
   </g>
   <g id="line2d_16">
    <path d="M 459.9625 116.120236 
L 459.9625 61.984901 
" clip-path="url(#p82f8b797de)" style="fill: none; stroke: #3d3d3d; stroke-width: 1.5; stroke-linecap: round"/>
   </g>
   <g id="line2d_17">
    <path d="M 459.9625 95.684857 
L 459.9625 77.035149 
" clip-path="url(#p82f8b797de)" style="fill: none; stroke: #3d3d3d; stroke-width: 4.5; stroke-linecap: round"/>
   </g>
   <g id="line2d_18">
    <path d="M 459.9625 83.338359 
" clip-path="url(#p82f8b797de)" style="fill: none; stroke: #3d3d3d; stroke-width: 1.5; stroke-linecap: round"/>
    <g clip-path="url(#p82f8b797de)">
     <use xlink:href="#m5d0c66332e" x="459.9625" y="83.338359" style="fill: #ffffff; stroke: #ffffff; stroke-width: 0.9"/>
    </g>
   </g>
   <g id="line2d_19">
    <path d="M 571.5625 130.883641 
L 571.5625 60.670132 
" clip-path="url(#p82f8b797de)" style="fill: none; stroke: #3d3d3d; stroke-width: 1.5; stroke-linecap: round"/>
   </g>
   <g id="line2d_20">
    <path d="M 571.5625 96.921825 
L 571.5625 74.075722 
" clip-path="url(#p82f8b797de)" style="fill: none; stroke: #3d3d3d; stroke-width: 4.5; stroke-linecap: round"/>
   </g>
   <g id="line2d_21">
    <path d="M 571.5625 80.888035 
" clip-path="url(#p82f8b797de)" style="fill: none; stroke: #3d3d3d; stroke-width: 1.5; stroke-linecap: round"/>
    <g clip-path="url(#p82f8b797de)">
     <use xlink:href="#m5d0c66332e" x="571.5625" y="80.888035" style="fill: #ffffff; stroke: #ffffff; stroke-width: 0.9"/>
    </g>
   </g>
   <g id="line2d_22">
    <path d="M 683.1625 76.918927 
L 683.1625 47.297073 
" clip-path="url(#p82f8b797de)" style="fill: none; stroke: #3d3d3d; stroke-width: 1.5; stroke-linecap: round"/>
   </g>
   <g id="line2d_23">
    <path d="M 683.1625 66.624273 
L 683.1625 56.397507 
" clip-path="url(#p82f8b797de)" style="fill: none; stroke: #3d3d3d; stroke-width: 4.5; stroke-linecap: round"/>
   </g>
   <g id="line2d_24">
    <path d="M 683.1625 60.103419 
" clip-path="url(#p82f8b797de)" style="fill: none; stroke: #3d3d3d; stroke-width: 1.5; stroke-linecap: round"/>
    <g clip-path="url(#p82f8b797de)">
     <use xlink:href="#m5d0c66332e" x="683.1625" y="60.103419" style="fill: #ffffff; stroke: #ffffff; stroke-width: 0.9"/>
    </g>
   </g>
   <g id="line2d_25">
    <path d="M 794.7625 103.674728 
L 794.7625 50.669059 
" clip-path="url(#p82f8b797de)" style="fill: none; stroke: #3d3d3d; stroke-width: 1.5; stroke-linecap: round"/>
   </g>
   <g id="line2d_26">
    <path d="M 794.7625 79.309253 
L 794.7625 61.451016 
" clip-path="url(#p82f8b797de)" style="fill: none; stroke: #3d3d3d; stroke-width: 4.5; stroke-linecap: round"/>
   </g>
   <g id="line2d_27">
    <path d="M 794.7625 67.570493 
" clip-path="url(#p82f8b797de)" style="fill: none; stroke: #3d3d3d; stroke-width: 1.5; stroke-linecap: round"/>
    <g clip-path="url(#p82f8b797de)">
     <use xlink:href="#m5d0c66332e" x="794.7625" y="67.570493" style="fill: #ffffff; stroke: #ffffff; stroke-width: 0.9"/>
    </g>
   </g>
   <g id="patch_3">
    <path d="M 69.3625 561.6 
L 850.5625 561.6 
" style="fill: none; stroke: #cccccc; stroke-width: 0.8; stroke-linejoin: miter; stroke-linecap: square"/>
   </g>
  </g>
 </g>
 <defs>
  <clipPath id="p82f8b797de">
   <rect x="69.3625" y="7.2" width="781.2" height="554.4"/>
  </clipPath>
 </defs>
</svg>
