<?xml version="1.0" encoding="utf-8" standalone="no"?>
<!DOCTYPE svg PUBLIC "-//W3C//DTD SVG 1.1//EN"
  "http://www.w3.org/Graphics/SVG/1.1/DTD/svg11.dtd">
<svg xmlns:xlink="http://www.w3.org/1999/xlink" width="857.7625pt" height="722.183991pt" viewBox="0 0 857.7625 722.183991" xmlns="http://www.w3.org/2000/svg" version="1.1">
 <metadata>
  <rdf:RDF xmlns:dc="http://purl.org/dc/elements/1.1/" xmlns:cc="http://creativecommons.org/ns#" xmlns:rdf="http://www.w3.org/1999/02/22-rdf-syntax-ns#">
   <cc:Work>
    <dc:type rdf:resource="http://purl.org/dc/dcmitype/StillImage"/>
    <dc:date>2024-03-17T20:48:20.922832</dc:date>
    <dc:format>image/svg+xml</dc:format>
    <dc:creator>
     <cc:Agent>
      <dc:title>Matplotlib v3.8.0, https://matplotlib.org/</dc:title>
     </cc:Agent>
    </dc:creator>
   </cc:Work>
  </rdf:RDF>
 </metadata>
 <defs>
  <style type="text/css">*{stroke-linejoin: round; stroke-linecap: butt}</style>
 </defs>
 <g id="figure_1">
  <g id="patch_1">
   <path d="M 0 722.183991 
L 857.7625 722.183991 
L 857.7625 0 
L 0 0 
L 0 722.183991 
z
" style="fill: none"/>
  </g>
  <g id="axes_1">
   <g id="patch_2">
    <path d="M 69.3625 561.6 
L 850.5625 561.6 
L 850.5625 7.2 
L 69.3625 7.2 
L 69.3625 561.6 
z
" style="fill: none"/>
   </g>
   <g id="matplotlib.axis_1">
    <g id="xtick_1">
     <g id="text_1">
      <!-- MSA -->
      <g style="fill: #262626" transform="translate(104.788986 610.465141) rotate(-45) scale(0.2 -0.2)">
       <defs>
        <path id="DejaVuSans-4d" d="M 628 4666 
L 1569 4666 
L 2759 1491 
L 3956 4666 
L 4897 4666 
L 4897 0 
L 4281 0 
L 4281 4097 
L 3078 897 
L 2444 897 
L 1241 4097 
L 1241 0 
L 628 0 
L 628 4666 
z
" transform="scale(0.015625)"/>
        <path id="DejaVuSans-53" d="M 3425 4513 
L 3425 3897 
Q 3066 4069 2747 4153 
Q 2428 4238 2131 4238 
Q 1616 4238 1336 4038 
Q 1056 3838 1056 3469 
Q 1056 3159 1242 3001 
Q 1428 2844 1947 2747 
L 2328 2669 
Q 3034 2534 3370 2195 
Q 3706 1856 3706 1288 
Q 3706 609 3251 259 
Q 2797 -91 1919 -91 
Q 1588 -91 1214 -16 
Q 841 59 441 206 
L 441 856 
Q 825 641 1194 531 
Q 1563 422 1919 422 
Q 2459 422 2753 634 
Q 3047 847 3047 1241 
Q 3047 1584 2836 1778 
Q 2625 1972 2144 2069 
L 1759 2144 
Q 1053 2284 737 2584 
Q 422 2884 422 3419 
Q 422 4038 858 4394 
Q 1294 4750 2059 4750 
Q 2388 4750 2728 4690 
Q 3069 4631 3425 4513 
z
" transform="scale(0.015625)"/>
        <path id="DejaVuSans-41" d="M 2188 4044 
L 1331 1722 
L 3047 1722 
L 2188 4044 
z
M 1831 4666 
L 2547 4666 
L 4325 0 
L 3669 0 
L 3244 1197 
L 1141 1197 
L 716 0 
L 50 0 
L 1831 4666 
z
" transform="scale(0.015625)"/>
       </defs>
       <use xlink:href="#DejaVuSans-4d"/>
       <use xlink:href="#DejaVuSans-53" x="86.279297"/>
       <use xlink:href="#DejaVuSans-41" x="151.630859"/>
      </g>
     </g>
    </g>
    <g id="xtick_2">
     <g id="text_2">
      <!-- Template -->
      <g style="fill: #262626" transform="translate(182.97819 643.875936) rotate(-45) scale(0.2 -0.2)">
       <defs>
        <path id="DejaVuSans-54" d="M -19 4666 
L 3928 4666 
L 3928 4134 
L 2272 4134 
L 2272 0 
L 1638 0 
L 1638 4134 
L -19 4134 
L -19 4666 
z
" transform="scale(0.015625)"/>
        <path id="DejaVuSans-65" d="M 3597 1894 
L 3597 1613 
L 953 1613 
Q 991 1019 1311 708 
Q 1631 397 2203 397 
Q 2534 397 2845 478 
Q 3156 559 3463 722 
L 3463 178 
Q 3153 47 2828 -22 
Q 2503 -91 2169 -91 
Q 1331 -91 842 396 
Q 353 884 353 1716 
Q 353 2575 817 3079 
Q 1281 3584 2069 3584 
Q 2775 3584 3186 3129 
Q 3597 2675 3597 1894 
z
M 3022 2063 
Q 3016 2534 2758 2815 
Q 2500 3097 2075 3097 
Q 1594 3097 1305 2825 
Q 1016 2553 972 2059 
L 3022 2063 
z
" transform="scale(0.015625)"/>
        <path id="DejaVuSans-6d" d="M 3328 2828 
Q 3544 3216 3844 3400 
Q 4144 3584 4550 3584 
Q 5097 3584 5394 3201 
Q 5691 2819 5691 2113 
L 5691 0 
L 5113 0 
L 5113 2094 
Q 5113 2597 4934 2840 
Q 4756 3084 4391 3084 
Q 3944 3084 3684 2787 
Q 3425 2491 3425 1978 
L 3425 0 
L 2847 0 
L 2847 2094 
Q 2847 2600 2669 2842 
Q 2491 3084 2119 3084 
Q 1678 3084 1418 2786 
Q 1159 2488 1159 1978 
L 1159 0 
L 581 0 
L 581 3500 
L 1159 3500 
L 1159 2956 
Q 1356 3278 1631 3431 
Q 1906 3584 2284 3584 
Q 2666 3584 2933 3390 
Q 3200 3197 3328 2828 
z
" transform="scale(0.015625)"/>
        <path id="DejaVuSans-70" d="M 1159 525 
L 1159 -1331 
L 581 -1331 
L 581 3500 
L 1159 3500 
L 1159 2969 
Q 1341 3281 1617 3432 
Q 1894 3584 2278 3584 
Q 2916 3584 3314 3078 
Q 3713 2572 3713 1747 
Q 3713 922 3314 415 
Q 2916 -91 2278 -91 
Q 1894 -91 1617 61 
Q 1341 213 1159 525 
z
M 3116 1747 
Q 3116 2381 2855 2742 
Q 2594 3103 2138 3103 
Q 1681 3103 1420 2742 
Q 1159 2381 1159 1747 
Q 1159 1113 1420 752 
Q 1681 391 2138 391 
Q 2594 391 2855 752 
Q 3116 1113 3116 1747 
z
" transform="scale(0.015625)"/>
        <path id="DejaVuSans-6c" d="M 603 4863 
L 1178 4863 
L 1178 0 
L 603 0 
L 603 4863 
z
" transform="scale(0.015625)"/>
        <path id="DejaVuSans-61" d="M 2194 1759 
Q 1497 1759 1228 1600 
Q 959 1441 959 1056 
Q 959 750 1161 570 
Q 1363 391 1709 391 
Q 2188 391 2477 730 
Q 2766 1069 2766 1631 
L 2766 1759 
L 2194 1759 
z
M 3341 1997 
L 3341 0 
L 2766 0 
L 2766 531 
Q 2569 213 2275 61 
Q 1981 -91 1556 -91 
Q 1019 -91 701 211 
Q 384 513 384 1019 
Q 384 1609 779 1909 
Q 1175 2209 1959 2209 
L 2766 2209 
L 2766 2266 
Q 2766 2663 2505 2880 
Q 2244 3097 1772 3097 
Q 1472 3097 1187 3025 
Q 903 2953 641 2809 
L 641 3341 
Q 956 3463 1253 3523 
Q 1550 3584 1831 3584 
Q 2591 3584 2966 3190 
Q 3341 2797 3341 1997 
z
" transform="scale(0.015625)"/>
        <path id="DejaVuSans-74" d="M 1172 4494 
L 1172 3500 
L 2356 3500 
L 2356 3053 
L 1172 3053 
L 1172 1153 
Q 1172 725 1289 603 
Q 1406 481 1766 481 
L 2356 481 
L 2356 0 
L 1766 0 
Q 1100 0 847 248 
Q 594 497 594 1153 
L 594 3053 
L 172 3053 
L 172 3500 
L 594 3500 
L 594 4494 
L 1172 4494 
z
" transform="scale(0.015625)"/>
       </defs>
       <use xlink:href="#DejaVuSans-54"/>
       <use xlink:href="#DejaVuSans-65" x="44.083984"/>
       <use xlink:href="#DejaVuSans-6d" x="105.607422"/>
       <use xlink:href="#DejaVuSans-70" x="203.019531"/>
       <use xlink:href="#DejaVuSans-6c" x="266.496094"/>
       <use xlink:href="#DejaVuSans-61" x="294.279297"/>
       <use xlink:href="#DejaVuSans-74" x="355.558594"/>
       <use xlink:href="#DejaVuSans-65" x="394.767578"/>
      </g>
     </g>
    </g>
    <g id="xtick_3">
     <g id="text_3">
      <!-- Backbone -->
      <g style="fill: #262626" transform="translate(289.478183 648.975944) rotate(-45) scale(0.2 -0.2)">
       <defs>
        <path id="DejaVuSans-42" d="M 1259 2228 
L 1259 519 
L 2272 519 
Q 2781 519 3026 730 
Q 3272 941 3272 1375 
Q 3272 1813 3026 2020 
Q 2781 2228 2272 2228 
L 1259 2228 
z
M 1259 4147 
L 1259 2741 
L 2194 2741 
Q 2656 2741 2882 2914 
Q 3109 3088 3109 3444 
Q 3109 3797 2882 3972 
Q 2656 4147 2194 4147 
L 1259 4147 
z
M 628 4666 
L 2241 4666 
Q 2963 4666 3353 4366 
Q 3744 4066 3744 3513 
Q 3744 3084 3544 2831 
Q 3344 2578 2956 2516 
Q 3422 2416 3680 2098 
Q 3938 1781 3938 1306 
Q 3938 681 3513 340 
Q 3088 0 2303 0 
L 628 0 
L 628 4666 
z
" transform="scale(0.015625)"/>
        <path id="DejaVuSans-63" d="M 3122 3366 
L 3122 2828 
Q 2878 2963 2633 3030 
Q 2388 3097 2138 3097 
Q 1578 3097 1268 2742 
Q 959 2388 959 1747 
Q 959 1106 1268 751 
Q 1578 397 2138 397 
Q 2388 397 2633 464 
Q 2878 531 3122 666 
L 3122 134 
Q 2881 22 2623 -34 
Q 2366 -91 2075 -91 
Q 1284 -91 818 406 
Q 353 903 353 1747 
Q 353 2603 823 3093 
Q 1294 3584 2113 3584 
Q 2378 3584 2631 3529 
Q 2884 3475 3122 3366 
z
" transform="scale(0.015625)"/>
        <path id="DejaVuSans-6b" d="M 581 4863 
L 1159 4863 
L 1159 1991 
L 2875 3500 
L 3609 3500 
L 1753 1863 
L 3688 0 
L 2938 0 
L 1159 1709 
L 1159 0 
L 581 0 
L 581 4863 
z
" transform="scale(0.015625)"/>
        <path id="DejaVuSans-62" d="M 3116 1747 
Q 3116 2381 2855 2742 
Q 2594 3103 2138 3103 
Q 1681 3103 1420 2742 
Q 1159 2381 1159 1747 
Q 1159 1113 1420 752 
Q 1681 391 2138 391 
Q 2594 391 2855 752 
Q 3116 1113 3116 1747 
z
M 1159 2969 
Q 1341 3281 1617 3432 
Q 1894 3584 2278 3584 
Q 2916 3584 3314 3078 
Q 3713 2572 3713 1747 
Q 3713 922 3314 415 
Q 2916 -91 2278 -91 
Q 1894 -91 1617 61 
Q 1341 213 1159 525 
L 1159 0 
L 581 0 
L 581 4863 
L 1159 4863 
L 1159 2969 
z
" transform="scale(0.015625)"/>
        <path id="DejaVuSans-6f" d="M 1959 3097 
Q 1497 3097 1228 2736 
Q 959 2375 959 1747 
Q 959 1119 1226 758 
Q 1494 397 1959 397 
Q 2419 397 2687 759 
Q 2956 1122 2956 1747 
Q 2956 2369 2687 2733 
Q 2419 3097 1959 3097 
z
M 1959 3584 
Q 2709 3584 3137 3096 
Q 3566 2609 3566 1747 
Q 3566 888 3137 398 
Q 2709 -91 1959 -91 
Q 1206 -91 779 398 
Q 353 888 353 1747 
Q 353 2609 779 3096 
Q 1206 3584 1959 3584 
z
" transform="scale(0.015625)"/>
        <path id="DejaVuSans-6e" d="M 3513 2113 
L 3513 0 
L 2938 0 
L 2938 2094 
Q 2938 2591 2744 2837 
Q 2550 3084 2163 3084 
Q 1697 3084 1428 2787 
Q 1159 2491 1159 1978 
L 1159 0 
L 581 0 
L 581 3500 
L 1159 3500 
L 1159 2956 
Q 1366 3272 1645 3428 
Q 1925 3584 2291 3584 
Q 2894 3584 3203 3211 
Q 3513 2838 3513 2113 
z
" transform="scale(0.015625)"/>
       </defs>
       <use xlink:href="#DejaVuSans-42"/>
       <use xlink:href="#DejaVuSans-61" x="68.603516"/>
       <use xlink:href="#DejaVuSans-63" x="129.882812"/>
       <use xlink:href="#DejaVuSans-6b" x="184.863281"/>
       <use xlink:href="#DejaVuSans-62" x="242.773438"/>
       <use xlink:href="#DejaVuSans-6f" x="306.25"/>
       <use xlink:href="#DejaVuSans-6e" x="367.431641"/>
       <use xlink:href="#DejaVuSans-65" x="430.810547"/>
      </g>
     </g>
    </g>
    <g id="xtick_4">
     <g id="text_4">
      <!-- Heuristic C-$\beta$ -->
      <g style="fill: #262626" transform="translate(379.63517 670.706219) rotate(-45) scale(0.2 -0.2)">
       <defs>
        <path id="DejaVuSans-48" d="M 628 4666 
L 1259 4666 
L 1259 2753 
L 3553 2753 
L 3553 4666 
L 4184 4666 
L 4184 0 
L 3553 0 
L 3553 2222 
L 1259 2222 
L 1259 0 
L 628 0 
L 628 4666 
z
" transform="scale(0.015625)"/>
        <path id="DejaVuSans-75" d="M 544 1381 
L 544 3500 
L 1119 3500 
L 1119 1403 
Q 1119 906 1312 657 
Q 1506 409 1894 409 
Q 2359 409 2629 706 
Q 2900 1003 2900 1516 
L 2900 3500 
L 3475 3500 
L 3475 0 
L 2900 0 
L 2900 538 
Q 2691 219 2414 64 
Q 2138 -91 1772 -91 
Q 1169 -91 856 284 
Q 544 659 544 1381 
z
M 1991 3584 
L 1991 3584 
z
" transform="scale(0.015625)"/>
        <path id="DejaVuSans-72" d="M 2631 2963 
Q 2534 3019 2420 3045 
Q 2306 3072 2169 3072 
Q 1681 3072 1420 2755 
Q 1159 2438 1159 1844 
L 1159 0 
L 581 0 
L 581 3500 
L 1159 3500 
L 1159 2956 
Q 1341 3275 1631 3429 
Q 1922 3584 2338 3584 
Q 2397 3584 2469 3576 
Q 2541 3569 2628 3553 
L 2631 2963 
z
" transform="scale(0.015625)"/>
        <path id="DejaVuSans-69" d="M 603 3500 
L 1178 3500 
L 1178 0 
L 603 0 
L 603 3500 
z
M 603 4863 
L 1178 4863 
L 1178 4134 
L 603 4134 
L 603 4863 
z
" transform="scale(0.015625)"/>
        <path id="DejaVuSans-73" d="M 2834 3397 
L 2834 2853 
Q 2591 2978 2328 3040 
Q 2066 3103 1784 3103 
Q 1356 3103 1142 2972 
Q 928 2841 928 2578 
Q 928 2378 1081 2264 
Q 1234 2150 1697 2047 
L 1894 2003 
Q 2506 1872 2764 1633 
Q 3022 1394 3022 966 
Q 3022 478 2636 193 
Q 2250 -91 1575 -91 
Q 1294 -91 989 -36 
Q 684 19 347 128 
L 347 722 
Q 666 556 975 473 
Q 1284 391 1588 391 
Q 1994 391 2212 530 
Q 2431 669 2431 922 
Q 2431 1156 2273 1281 
Q 2116 1406 1581 1522 
L 1381 1569 
Q 847 1681 609 1914 
Q 372 2147 372 2553 
Q 372 3047 722 3315 
Q 1072 3584 1716 3584 
Q 2034 3584 2315 3537 
Q 2597 3491 2834 3397 
z
" transform="scale(0.015625)"/>
        <path id="DejaVuSans-20" transform="scale(0.015625)"/>
        <path id="DejaVuSans-43" d="M 4122 4306 
L 4122 3641 
Q 3803 3938 3442 4084 
Q 3081 4231 2675 4231 
Q 1875 4231 1450 3742 
Q 1025 3253 1025 2328 
Q 1025 1406 1450 917 
Q 1875 428 2675 428 
Q 3081 428 3442 575 
Q 3803 722 4122 1019 
L 4122 359 
Q 3791 134 3420 21 
Q 3050 -91 2638 -91 
Q 1578 -91 968 557 
Q 359 1206 359 2328 
Q 359 3453 968 4101 
Q 1578 4750 2638 4750 
Q 3056 4750 3426 4639 
Q 3797 4528 4122 4306 
z
" transform="scale(0.015625)"/>
        <path id="DejaVuSans-2d" d="M 313 2009 
L 1997 2009 
L 1997 1497 
L 313 1497 
L 313 2009 
z
" transform="scale(0.015625)"/>
        <path id="DejaVuSans-Oblique-3b2" d="M 872 216 
L 572 -1331 
L -6 -1331 
L 928 3478 
Q 1206 4903 2538 4903 
Q 3888 4903 3659 3700 
Q 3503 2844 2894 2531 
Q 3713 2250 3553 1416 
Q 3272 -69 1759 -66 
Q 1097 -63 872 216 
z
M 1019 966 
Q 1259 422 1875 425 
Q 2775 425 2966 1406 
Q 3138 2288 1675 2219 
L 1778 2750 
Q 2909 2731 3106 3750 
Q 3241 4438 2509 4434 
Q 1691 4434 1503 3459 
L 1019 966 
z
" transform="scale(0.015625)"/>
       </defs>
       <use xlink:href="#DejaVuSans-48" transform="translate(0 0.390625)"/>
       <use xlink:href="#DejaVuSans-65" transform="translate(75.195312 0.390625)"/>
       <use xlink:href="#DejaVuSans-75" transform="translate(136.71875 0.390625)"/>
       <use xlink:href="#DejaVuSans-72" transform="translate(200.097656 0.390625)"/>
       <use xlink:href="#DejaVuSans-69" transform="translate(241.210938 0.390625)"/>
       <use xlink:href="#DejaVuSans-73" transform="translate(268.994141 0.390625)"/>
       <use xlink:href="#DejaVuSans-74" transform="translate(321.09375 0.390625)"/>
       <use xlink:href="#DejaVuSans-69" transform="translate(360.302734 0.390625)"/>
       <use xlink:href="#DejaVuSans-63" transform="translate(388.085938 0.390625)"/>
       <use xlink:href="#DejaVuSans-20" transform="translate(443.066406 0.390625)"/>
       <use xlink:href="#DejaVuSans-43" transform="translate(474.853516 0.390625)"/>
       <use xlink:href="#DejaVuSans-2d" transform="translate(544.677734 0.390625)"/>
       <use xlink:href="#DejaVuSans-Oblique-3b2" transform="translate(580.761719 0.390625)"/>
      </g>
     </g>
    </g>
    <g id="xtick_5">
     <g id="text_5">
      <!-- Template C-$\beta$ -->
      <g style="fill: #262626" transform="translate(486.992529 674.94886) rotate(-45) scale(0.2 -0.2)">
       <use xlink:href="#DejaVuSans-54" transform="translate(0 0.390625)"/>
       <use xlink:href="#DejaVuSans-65" transform="translate(61.083984 0.390625)"/>
       <use xlink:href="#DejaVuSans-6d" transform="translate(122.607422 0.390625)"/>
       <use xlink:href="#DejaVuSans-70" transform="translate(220.019531 0.390625)"/>
       <use xlink:href="#DejaVuSans-6c" transform="translate(283.496094 0.390625)"/>
       <use xlink:href="#DejaVuSans-61" transform="translate(311.279297 0.390625)"/>
       <use xlink:href="#DejaVuSans-74" transform="translate(372.558594 0.390625)"/>
       <use xlink:href="#DejaVuSans-65" transform="translate(411.767578 0.390625)"/>
       <use xlink:href="#DejaVuSans-20" transform="translate(473.291016 0.390625)"/>
       <use xlink:href="#DejaVuSans-43" transform="translate(505.078125 0.390625)"/>
       <use xlink:href="#DejaVuSans-2d" transform="translate(574.902344 0.390625)"/>
       <use xlink:href="#DejaVuSans-Oblique-3b2" transform="translate(610.986328 0.390625)"/>
      </g>
     </g>
    </g>
    <g id="xtick_6">
     <g id="text_6">
      <!-- AttnPacker -->
      <g style="fill: #262626" transform="translate(617.905383 655.348744) rotate(-45) scale(0.2 -0.2)">
       <defs>
        <path id="DejaVuSans-50" d="M 1259 4147 
L 1259 2394 
L 2053 2394 
Q 2494 2394 2734 2622 
Q 2975 2850 2975 3272 
Q 2975 3691 2734 3919 
Q 2494 4147 2053 4147 
L 1259 4147 
z
M 628 4666 
L 2053 4666 
Q 2838 4666 3239 4311 
Q 3641 3956 3641 3272 
Q 3641 2581 3239 2228 
Q 2838 1875 2053 1875 
L 1259 1875 
L 1259 0 
L 628 0 
L 628 4666 
z
" transform="scale(0.015625)"/>
       </defs>
       <use xlink:href="#DejaVuSans-41"/>
       <use xlink:href="#DejaVuSans-74" x="66.658203"/>
       <use xlink:href="#DejaVuSans-74" x="105.867188"/>
       <use xlink:href="#DejaVuSans-6e" x="145.076172"/>
       <use xlink:href="#DejaVuSans-50" x="208.455078"/>
       <use xlink:href="#DejaVuSans-61" x="264.257812"/>
       <use xlink:href="#DejaVuSans-63" x="325.537109"/>
       <use xlink:href="#DejaVuSans-6b" x="380.517578"/>
       <use xlink:href="#DejaVuSans-65" x="434.802734"/>
       <use xlink:href="#DejaVuSans-72" x="496.326172"/>
      </g>
     </g>
    </g>
    <g id="xtick_7">
     <g id="text_7">
      <!-- AttnPacker (AF) -->
      <g style="fill: #262626" transform="translate(696.167508 688.686619) rotate(-45) scale(0.2 -0.2)">
       <defs>
        <path id="DejaVuSans-28" d="M 1984 4856 
Q 1566 4138 1362 3434 
Q 1159 2731 1159 2009 
Q 1159 1288 1364 580 
Q 1569 -128 1984 -844 
L 1484 -844 
Q 1016 -109 783 600 
Q 550 1309 550 2009 
Q 550 2706 781 3412 
Q 1013 4119 1484 4856 
L 1984 4856 
z
" transform="scale(0.015625)"/>
        <path id="DejaVuSans-46" d="M 628 4666 
L 3309 4666 
L 3309 4134 
L 1259 4134 
L 1259 2759 
L 3109 2759 
L 3109 2228 
L 1259 2228 
L 1259 0 
L 628 0 
L 628 4666 
z
" transform="scale(0.015625)"/>
        <path id="DejaVuSans-29" d="M 513 4856 
L 1013 4856 
Q 1481 4119 1714 3412 
Q 1947 2706 1947 2009 
Q 1947 1309 1714 600 
Q 1481 -109 1013 -844 
L 513 -844 
Q 928 -128 1133 580 
Q 1338 1288 1338 2009 
Q 1338 2731 1133 3434 
Q 928 4138 513 4856 
z
" transform="scale(0.015625)"/>
       </defs>
       <use xlink:href="#DejaVuSans-41"/>
       <use xlink:href="#DejaVuSans-74" x="66.658203"/>
       <use xlink:href="#DejaVuSans-74" x="105.867188"/>
       <use xlink:href="#DejaVuSans-6e" x="145.076172"/>
       <use xlink:href="#DejaVuSans-50" x="208.455078"/>
       <use xlink:href="#DejaVuSans-61" x="264.257812"/>
       <use xlink:href="#DejaVuSans-63" x="325.537109"/>
       <use xlink:href="#DejaVuSans-6b" x="380.517578"/>
       <use xlink:href="#DejaVuSans-65" x="434.802734"/>
       <use xlink:href="#DejaVuSans-72" x="496.326172"/>
       <use xlink:href="#DejaVuSans-20" x="537.439453"/>
       <use xlink:href="#DejaVuSans-28" x="569.226562"/>
       <use xlink:href="#DejaVuSans-41" x="608.240234"/>
       <use xlink:href="#DejaVuSans-46" x="676.648438"/>
       <use xlink:href="#DejaVuSans-29" x="734.167969"/>
      </g>
     </g>
    </g>
    <g id="text_8">
     <!-- Method -->
     <g style="fill: #262626" transform="translate(422.45625 710.824616) scale(0.2 -0.2)">
      <defs>
       <path id="DejaVuSans-68" d="M 3513 2113 
L 3513 0 
L 2938 0 
L 2938 2094 
Q 2938 2591 2744 2837 
Q 2550 3084 2163 3084 
Q 1697 3084 1428 2787 
Q 1159 2491 1159 1978 
L 1159 0 
L 581 0 
L 581 4863 
L 1159 4863 
L 1159 2956 
Q 1366 3272 1645 3428 
Q 1925 3584 2291 3584 
Q 2894 3584 3203 3211 
Q 3513 2838 3513 2113 
z
" transform="scale(0.015625)"/>
       <path id="DejaVuSans-64" d="M 2906 2969 
L 2906 4863 
L 3481 4863 
L 3481 0 
L 2906 0 
L 2906 525 
Q 2725 213 2448 61 
Q 2172 -91 1784 -91 
Q 1150 -91 751 415 
Q 353 922 353 1747 
Q 353 2572 751 3078 
Q 1150 3584 1784 3584 
Q 2172 3584 2448 3432 
Q 2725 3281 2906 2969 
z
M 947 1747 
Q 947 1113 1208 752 
Q 1469 391 1925 391 
Q 2381 391 2643 752 
Q 2906 1113 2906 1747 
Q 2906 2381 2643 2742 
Q 2381 3103 1925 3103 
Q 1469 3103 1208 2742 
Q 947 2381 947 1747 
z
" transform="scale(0.015625)"/>
      </defs>
      <use xlink:href="#DejaVuSans-4d"/>
      <use xlink:href="#DejaVuSans-65" x="86.279297"/>
      <use xlink:href="#DejaVuSans-74" x="147.802734"/>
      <use xlink:href="#DejaVuSans-68" x="187.011719"/>
      <use xlink:href="#DejaVuSans-6f" x="250.390625"/>
      <use xlink:href="#DejaVuSans-64" x="311.572266"/>
     </g>
    </g>
   </g>
   <g id="matplotlib.axis_2">
    <g id="ytick_1">
     <g id="line2d_1">
      <path d="M 69.3625 515.704497 
L 850.5625 515.704497 
" clip-path="url(#p4514e80edc)" style="fill: none; stroke: #cccccc; stroke-width: 0.8; stroke-linecap: round"/>
     </g>
     <g id="text_9">
      <!-- 0.0 -->
      <g style="fill: #262626" transform="translate(30.55625 523.302935) scale(0.2 -0.2)">
       <defs>
        <path id="DejaVuSans-30" d="M 2034 4250 
Q 1547 4250 1301 3770 
Q 1056 3291 1056 2328 
Q 1056 1369 1301 889 
Q 1547 409 2034 409 
Q 2525 409 2770 889 
Q 3016 1369 3016 2328 
Q 3016 3291 2770 3770 
Q 2525 4250 2034 4250 
z
M 2034 4750 
Q 2819 4750 3233 4129 
Q 3647 3509 3647 2328 
Q 3647 1150 3233 529 
Q 2819 -91 2034 -91 
Q 1250 -91 836 529 
Q 422 1150 422 2328 
Q 422 3509 836 4129 
Q 1250 4750 2034 4750 
z
" transform="scale(0.015625)"/>
        <path id="DejaVuSans-2e" d="M 684 794 
L 1344 794 
L 1344 0 
L 684 0 
L 684 794 
z
" transform="scale(0.015625)"/>
       </defs>
       <use xlink:href="#DejaVuSans-30"/>
       <use xlink:href="#DejaVuSans-2e" x="63.623047"/>
       <use xlink:href="#DejaVuSans-30" x="95.410156"/>
      </g>
     </g>
    </g>
    <g id="ytick_2">
     <g id="line2d_2">
      <path d="M 69.3625 439.307986 
L 850.5625 439.307986 
" clip-path="url(#p4514e80edc)" style="fill: none; stroke: #cccccc; stroke-width: 0.8; stroke-linecap: round"/>
     </g>
     <g id="text_10">
      <!-- 0.2 -->
      <g style="fill: #262626" transform="translate(30.55625 446.906423) scale(0.2 -0.2)">
       <defs>
        <path id="DejaVuSans-32" d="M 1228 531 
L 3431 531 
L 3431 0 
L 469 0 
L 469 531 
Q 828 903 1448 1529 
Q 2069 2156 2228 2338 
Q 2531 2678 2651 2914 
Q 2772 3150 2772 3378 
Q 2772 3750 2511 3984 
Q 2250 4219 1831 4219 
Q 1534 4219 1204 4116 
Q 875 4013 500 3803 
L 500 4441 
Q 881 4594 1212 4672 
Q 1544 4750 1819 4750 
Q 2544 4750 2975 4387 
Q 3406 4025 3406 3419 
Q 3406 3131 3298 2873 
Q 3191 2616 2906 2266 
Q 2828 2175 2409 1742 
Q 1991 1309 1228 531 
z
" transform="scale(0.015625)"/>
       </defs>
       <use xlink:href="#DejaVuSans-30"/>
       <use xlink:href="#DejaVuSans-2e" x="63.623047"/>
       <use xlink:href="#DejaVuSans-32" x="95.410156"/>
      </g>
     </g>
    </g>
    <g id="ytick_3">
     <g id="line2d_3">
      <path d="M 69.3625 362.911475 
L 850.5625 362.911475 
" clip-path="url(#p4514e80edc)" style="fill: none; stroke: #cccccc; stroke-width: 0.8; stroke-linecap: round"/>
     </g>
     <g id="text_11">
      <!-- 0.4 -->
      <g style="fill: #262626" transform="translate(30.55625 370.509912) scale(0.2 -0.2)">
       <defs>
        <path id="DejaVuSans-34" d="M 2419 4116 
L 825 1625 
L 2419 1625 
L 2419 4116 
z
M 2253 4666 
L 3047 4666 
L 3047 1625 
L 3713 1625 
L 3713 1100 
L 3047 1100 
L 3047 0 
L 2419 0 
L 2419 1100 
L 313 1100 
L 313 1709 
L 2253 4666 
z
" transform="scale(0.015625)"/>
       </defs>
       <use xlink:href="#DejaVuSans-30"/>
       <use xlink:href="#DejaVuSans-2e" x="63.623047"/>
       <use xlink:href="#DejaVuSans-34" x="95.410156"/>
      </g>
     </g>
    </g>
    <g id="ytick_4">
     <g id="line2d_4">
      <path d="M 69.3625 286.514963 
L 850.5625 286.514963 
" clip-path="url(#p4514e80edc)" style="fill: none; stroke: #cccccc; stroke-width: 0.8; stroke-linecap: round"/>
     </g>
     <g id="text_12">
      <!-- 0.6 -->
      <g style="fill: #262626" transform="translate(30.55625 294.113401) scale(0.2 -0.2)">
       <defs>
        <path id="DejaVuSans-36" d="M 2113 2584 
Q 1688 2584 1439 2293 
Q 1191 2003 1191 1497 
Q 1191 994 1439 701 
Q 1688 409 2113 409 
Q 2538 409 2786 701 
Q 3034 994 3034 1497 
Q 3034 2003 2786 2293 
Q 2538 2584 2113 2584 
z
M 3366 4563 
L 3366 3988 
Q 3128 4100 2886 4159 
Q 2644 4219 2406 4219 
Q 1781 4219 1451 3797 
Q 1122 3375 1075 2522 
Q 1259 2794 1537 2939 
Q 1816 3084 2150 3084 
Q 2853 3084 3261 2657 
Q 3669 2231 3669 1497 
Q 3669 778 3244 343 
Q 2819 -91 2113 -91 
Q 1303 -91 875 529 
Q 447 1150 447 2328 
Q 447 3434 972 4092 
Q 1497 4750 2381 4750 
Q 2619 4750 2861 4703 
Q 3103 4656 3366 4563 
z
" transform="scale(0.015625)"/>
       </defs>
       <use xlink:href="#DejaVuSans-30"/>
       <use xlink:href="#DejaVuSans-2e" x="63.623047"/>
       <use xlink:href="#DejaVuSans-36" x="95.410156"/>
      </g>
     </g>
    </g>
    <g id="ytick_5">
     <g id="line2d_5">
      <path d="M 69.3625 210.118452 
L 850.5625 210.118452 
" clip-path="url(#p4514e80edc)" style="fill: none; stroke: #cccccc; stroke-width: 0.8; stroke-linecap: round"/>
     </g>
     <g id="text_13">
      <!-- 0.8 -->
      <g style="fill: #262626" transform="translate(30.55625 217.716889) scale(0.2 -0.2)">
       <defs>
        <path id="DejaVuSans-38" d="M 2034 2216 
Q 1584 2216 1326 1975 
Q 1069 1734 1069 1313 
Q 1069 891 1326 650 
Q 1584 409 2034 409 
Q 2484 409 2743 651 
Q 3003 894 3003 1313 
Q 3003 1734 2745 1975 
Q 2488 2216 2034 2216 
z
M 1403 2484 
Q 997 2584 770 2862 
Q 544 3141 544 3541 
Q 544 4100 942 4425 
Q 1341 4750 2034 4750 
Q 2731 4750 3128 4425 
Q 3525 4100 3525 3541 
Q 3525 3141 3298 2862 
Q 3072 2584 2669 2484 
Q 3125 2378 3379 2068 
Q 3634 1759 3634 1313 
Q 3634 634 3220 271 
Q 2806 -91 2034 -91 
Q 1263 -91 848 271 
Q 434 634 434 1313 
Q 434 1759 690 2068 
Q 947 2378 1403 2484 
z
M 1172 3481 
Q 1172 3119 1398 2916 
Q 1625 2713 2034 2713 
Q 2441 2713 2670 2916 
Q 2900 3119 2900 3481 
Q 2900 3844 2670 4047 
Q 2441 4250 2034 4250 
Q 1625 4250 1398 4047 
Q 1172 3844 1172 3481 
z
" transform="scale(0.015625)"/>
       </defs>
       <use xlink:href="#DejaVuSans-30"/>
       <use xlink:href="#DejaVuSans-2e" x="63.623047"/>
       <use xlink:href="#DejaVuSans-38" x="95.410156"/>
      </g>
     </g>
    </g>
    <g id="ytick_6">
     <g id="line2d_6">
      <path d="M 69.3625 133.72194 
L 850.5625 133.72194 
" clip-path="url(#p4514e80edc)" style="fill: none; stroke: #cccccc; stroke-width: 0.8; stroke-linecap: round"/>
     </g>
     <g id="text_14">
      <!-- 1.0 -->
      <g style="fill: #262626" transform="translate(30.55625 141.320378) scale(0.2 -0.2)">
       <defs>
        <path id="DejaVuSans-31" d="M 794 531 
L 1825 531 
L 1825 4091 
L 703 3866 
L 703 4441 
L 1819 4666 
L 2450 4666 
L 2450 531 
L 3481 531 
L 3481 0 
L 794 0 
L 794 531 
z
" transform="scale(0.015625)"/>
       </defs>
       <use xlink:href="#DejaVuSans-31"/>
       <use xlink:href="#DejaVuSans-2e" x="63.623047"/>
       <use xlink:href="#DejaVuSans-30" x="95.410156"/>
      </g>
     </g>
    </g>
    <g id="ytick_7">
     <g id="line2d_7">
      <path d="M 69.3625 57.325429 
L 850.5625 57.325429 
" clip-path="url(#p4514e80edc)" style="fill: none; stroke: #cccccc; stroke-width: 0.8; stroke-linecap: round"/>
     </g>
     <g id="text_15">
      <!-- 1.2 -->
      <g style="fill: #262626" transform="translate(30.55625 64.923866) scale(0.2 -0.2)">
       <use xlink:href="#DejaVuSans-31"/>
       <use xlink:href="#DejaVuSans-2e" x="63.623047"/>
       <use xlink:href="#DejaVuSans-32" x="95.410156"/>
      </g>
     </g>
    </g>
    <g id="text_16">
     <!-- MAE 1 (rad) -->
     <g style="fill: #262626" transform="translate(22.396875 343.296875) rotate(-90) scale(0.2 -0.2)">
      <defs>
       <path id="DejaVuSans-45" d="M 628 4666 
L 3578 4666 
L 3578 4134 
L 1259 4134 
L 1259 2753 
L 3481 2753 
L 3481 2222 
L 1259 2222 
L 1259 531 
L 3634 531 
L 3634 0 
L 628 0 
L 628 4666 
z
" transform="scale(0.015625)"/>
      </defs>
      <use xlink:href="#DejaVuSans-4d"/>
      <use xlink:href="#DejaVuSans-41" x="86.279297"/>
      <use xlink:href="#DejaVuSans-45" x="154.6875"/>
      <use xlink:href="#DejaVuSans-20" x="217.871094"/>
      <use xlink:href="#DejaVuSans-31" x="249.658203"/>
      <use xlink:href="#DejaVuSans-20" x="313.28125"/>
      <use xlink:href="#DejaVuSans-28" x="345.068359"/>
      <use xlink:href="#DejaVuSans-72" x="384.082031"/>
      <use xlink:href="#DejaVuSans-61" x="425.195312"/>
      <use xlink:href="#DejaVuSans-64" x="486.474609"/>
      <use xlink:href="#DejaVuSans-29" x="549.951172"/>
     </g>
    </g>
   </g>
   <g id="PolyCollection_1">
    <defs>
     <path id="m633447feaa" d="M 125.715907 -256.630789 
L 124.609093 -256.630789 
L 124.431951 -260.468768 
L 124.209384 -264.306746 
L 123.933307 -268.144725 
L 123.595153 -271.982704 
L 123.186068 -275.820683 
L 122.697151 -279.658662 
L 122.119716 -283.496641 
L 121.445574 -287.33462 
L 120.667308 -291.172599 
L 119.778536 -295.010578 
L 118.774137 -298.848557 
L 117.650446 -302.686536 
L 116.405402 -306.524514 
L 115.038669 -310.362493 
L 113.551727 -314.200472 
L 111.947964 -318.038451 
L 110.232776 -321.87643 
L 108.413695 -325.714409 
L 106.500557 -329.552388 
L 104.505696 -333.390367 
L 102.444152 -337.228346 
L 100.333861 -341.066325 
L 98.195784 -344.904304 
L 96.053915 -348.742283 
L 93.93512 -352.580261 
L 91.868763 -356.41824 
L 89.886092 -360.256219 
L 88.019376 -364.094198 
L 86.300818 -367.932177 
L 84.761305 -371.770156 
L 83.429061 -375.608135 
L 82.328313 -379.446114 
L 81.478064 -383.284093 
L 80.891065 -387.122072 
L 80.573083 -390.960051 
L 80.5225 -394.798029 
L 80.730272 -398.636008 
L 81.180229 -402.473987 
L 81.849677 -406.311966 
L 82.710236 -410.149945 
L 83.728846 -413.987924 
L 84.868864 -417.825903 
L 86.091201 -421.663882 
L 87.355455 -425.501861 
L 88.621036 -429.33984 
L 89.848261 -433.177819 
L 90.999459 -437.015797 
L 92.040069 -440.853776 
L 92.939753 -444.691755 
L 93.673505 -448.529734 
L 94.222695 -452.367713 
L 94.576014 -456.205692 
L 94.7302 -460.043671 
L 94.690485 -463.88165 
L 94.470648 -467.719629 
L 94.092628 -471.557608 
L 93.585645 -475.395587 
L 92.984855 -479.233565 
L 92.329593 -483.071544 
L 91.661309 -486.909523 
L 91.021345 -490.747502 
L 90.448727 -494.585481 
L 89.978146 -498.42346 
L 89.638296 -502.261439 
L 89.45071 -506.099418 
L 89.429159 -509.937397 
L 89.579682 -513.775376 
L 89.901176 -517.613355 
L 90.386483 -521.451334 
L 91.023836 -525.289312 
L 91.798477 -529.127291 
L 92.694302 -532.96527 
L 93.695323 -536.803249 
L 94.786837 -540.641228 
L 95.956187 -544.479207 
L 97.193074 -548.317186 
L 98.489431 -552.155165 
L 99.838931 -555.993144 
L 101.236224 -559.831123 
L 102.676049 -563.669102 
L 104.152358 -567.50708 
L 105.657574 -571.345059 
L 107.182102 -575.183038 
L 108.714145 -579.021017 
L 110.239859 -582.858996 
L 111.743803 -586.696975 
L 113.209642 -590.534954 
L 114.62101 -594.372933 
L 115.962416 -598.210912 
L 117.220115 -602.048891 
L 118.382833 -605.88687 
L 119.442302 -609.724848 
L 120.393544 -613.562827 
L 121.23492 -617.400806 
L 121.967945 -621.238785 
L 122.596915 -625.076764 
L 123.128403 -628.914743 
L 123.570678 -632.752722 
L 123.933102 -636.590701 
L 126.391898 -636.590701 
L 126.391898 -636.590701 
L 126.754322 -632.752722 
L 127.196597 -628.914743 
L 127.728085 -625.076764 
L 128.357055 -621.238785 
L 129.09008 -617.400806 
L 129.931456 -613.562827 
L 130.882698 -609.724848 
L 131.942167 -605.88687 
L 133.104885 -602.048891 
L 134.362584 -598.210912 
L 135.70399 -594.372933 
L 137.115358 -590.534954 
L 138.581197 -586.696975 
L 140.085141 -582.858996 
L 141.610855 -579.021017 
L 143.142898 -575.183038 
L 144.667426 -571.345059 
L 146.172642 -567.50708 
L 147.648951 -563.669102 
L 149.088776 -559.831123 
L 150.486069 -555.993144 
L 151.835569 -552.155165 
L 153.131926 -548.317186 
L 154.368813 -544.479207 
L 155.538163 -540.641228 
L 156.629677 -536.803249 
L 157.630698 -532.96527 
L 158.526523 -529.127291 
L 159.301164 -525.289312 
L 159.938517 -521.451334 
L 160.423824 -517.613355 
L 160.745318 -513.775376 
L 160.895841 -509.937397 
L 160.87429 -506.099418 
L 160.686704 -502.261439 
L 160.346854 -498.42346 
L 159.876273 -494.585481 
L 159.303655 -490.747502 
L 158.663691 -486.909523 
L 157.995407 -483.071544 
L 157.340145 -479.233565 
L 156.739355 -475.395587 
L 156.232372 -471.557608 
L 155.854352 -467.719629 
L 155.634515 -463.88165 
L 155.5948 -460.043671 
L 155.748986 -456.205692 
L 156.102305 -452.367713 
L 156.651495 -448.529734 
L 157.385247 -444.691755 
L 158.284931 -440.853776 
L 159.325541 -437.015797 
L 160.476739 -433.177819 
L 161.703964 -429.33984 
L 162.969545 -425.501861 
L 164.233799 -421.663882 
L 165.456136 -417.825903 
L 166.596154 -413.987924 
L 167.614764 -410.149945 
L 168.475323 -406.311966 
L 169.144771 -402.473987 
L 169.594728 -398.636008 
L 169.8025 -394.798029 
L 169.751917 -390.960051 
L 169.433935 -387.122072 
L 168.846936 -383.284093 
L 167.996687 -379.446114 
L 166.895939 -375.608135 
L 165.563695 -371.770156 
L 164.024182 -367.932177 
L 162.305624 -364.094198 
L 160.438908 -360.256219 
L 158.456237 -356.41824 
L 156.38988 -352.580261 
L 154.271085 -348.742283 
L 152.129216 -344.904304 
L 149.991139 -341.066325 
L 147.880848 -337.228346 
L 145.819304 -333.390367 
L 143.824443 -329.552388 
L 141.911305 -325.714409 
L 140.092224 -321.87643 
L 138.377036 -318.038451 
L 136.773273 -314.200472 
L 135.286331 -310.362493 
L 133.919598 -306.524514 
L 132.674554 -302.686536 
L 131.550863 -298.848557 
L 130.546464 -295.010578 
L 129.657692 -291.172599 
L 128.879426 -287.33462 
L 128.205284 -283.496641 
L 127.627849 -279.658662 
L 127.138932 -275.820683 
L 126.729847 -271.982704 
L 126.391693 -268.144725 
L 126.115616 -264.306746 
L 125.893049 -260.468768 
L 125.715907 -256.630789 
z
" style="stroke: #3d3d3d; stroke-opacity: 0.5"/>
    </defs>
    <g clip-path="url(#p4514e80edc)">
     <use xlink:href="#m633447feaa" x="0" y="722.183991" style="fill: #3274a1; fill-opacity: 0.5; stroke: #3d3d3d; stroke-opacity: 0.5"/>
    </g>
   </g>
   <g id="PolyCollection_2">
    <defs>
     <path id="mb795494317" d="M 238.098739 -185.783991 
L 235.426261 -185.783991 
L 234.994972 -189.587849 
L 234.455253 -193.391706 
L 233.789973 -197.195564 
L 232.982218 -200.999421 
L 232.016185 -204.803279 
L 230.878196 -208.607137 
L 229.55777 -212.410994 
L 228.048693 -216.214852 
L 226.349994 -220.018709 
L 224.466732 -223.822567 
L 222.410528 -227.626424 
L 220.199764 -231.430282 
L 217.859404 -235.23414 
L 215.42044 -239.037997 
L 212.918976 -242.841855 
L 210.395007 -246.645712 
L 207.89099 -250.44957 
L 205.450296 -254.253427 
L 203.115665 -258.057285 
L 200.927762 -261.861143 
L 198.923912 -265.665 
L 197.137078 -269.468858 
L 195.595091 -273.272715 
L 194.320126 -277.076573 
L 193.328392 -280.88043 
L 192.629972 -284.684288 
L 192.228766 -288.488146 
L 192.1225 -292.292003 
L 192.302768 -296.095861 
L 192.755115 -299.899718 
L 193.459199 -303.703576 
L 194.38906 -307.507433 
L 195.513573 -311.311291 
L 196.797121 -315.115149 
L 198.200519 -318.919006 
L 199.682196 -322.722864 
L 201.199601 -326.526721 
L 202.710766 -330.330579 
L 204.175927 -334.134436 
L 205.559107 -337.938294 
L 206.829546 -341.742152 
L 207.962871 -345.546009 
L 208.94195 -349.349867 
L 209.757369 -353.153724 
L 210.407531 -356.957582 
L 210.898388 -360.761439 
L 211.242851 -364.565297 
L 211.459919 -368.369155 
L 211.573603 -372.173012 
L 211.611673 -375.97687 
L 211.604304 -379.780727 
L 211.582639 -383.584585 
L 211.577333 -387.388442 
L 211.617096 -391.1923 
L 211.727304 -394.996158 
L 211.928736 -398.800015 
L 212.23649 -402.603873 
L 212.65919 -406.40773 
L 213.198518 -410.211588 
L 213.849179 -414.015445 
L 214.599299 -417.819303 
L 215.431295 -421.623161 
L 216.323162 -425.427018 
L 217.250103 -429.230876 
L 218.186385 -433.034733 
L 219.107264 -436.838591 
L 219.990821 -440.642448 
L 220.819537 -444.446306 
L 221.581467 -448.250164 
L 222.270906 -452.054021 
L 222.888496 -455.857879 
L 223.44077 -459.661736 
L 223.939198 -463.465594 
L 224.39884 -467.269451 
L 224.836751 -471.073309 
L 225.270303 -474.877167 
L 225.71559 -478.681024 
L 226.186056 -482.484882 
L 226.691464 -486.288739 
L 227.237274 -490.092597 
L 227.824454 -493.896454 
L 228.449697 -497.700312 
L 229.105989 -501.50417 
L 229.783439 -505.308027 
L 230.470257 -509.111885 
L 231.153787 -512.915742 
L 231.821483 -516.7196 
L 232.461761 -520.523457 
L 233.064668 -524.327315 
L 233.622335 -528.131173 
L 234.129211 -531.93503 
L 234.582095 -535.738888 
L 234.980004 -539.542745 
L 235.3239 -543.346603 
L 235.616346 -547.15046 
L 235.861111 -550.954318 
L 236.06278 -554.758176 
L 236.226387 -558.562033 
L 236.357097 -562.365891 
L 237.167903 -562.365891 
L 237.167903 -562.365891 
L 237.298613 -558.562033 
L 237.46222 -554.758176 
L 237.663889 -550.954318 
L 237.908654 -547.15046 
L 238.2011 -543.346603 
L 238.544996 -539.542745 
L 238.942905 -535.738888 
L 239.395789 -531.93503 
L 239.902665 -528.131173 
L 240.460332 -524.327315 
L 241.063239 -520.523457 
L 241.703517 -516.7196 
L 242.371213 -512.915742 
L 243.054743 -509.111885 
L 243.741561 -505.308027 
L 244.419011 -501.50417 
L 245.075303 -497.700312 
L 245.700546 -493.896454 
L 246.287726 -490.092597 
L 246.833536 -486.288739 
L 247.338944 -482.484882 
L 247.80941 -478.681024 
L 248.254697 -474.877167 
L 248.688249 -471.073309 
L 249.12616 -467.269451 
L 249.585802 -463.465594 
L 250.08423 -459.661736 
L 250.636504 -455.857879 
L 251.254094 -452.054021 
L 251.943533 -448.250164 
L 252.705463 -444.446306 
L 253.534179 -440.642448 
L 254.417736 -436.838591 
L 255.338615 -433.034733 
L 256.274897 -429.230876 
L 257.201838 -425.427018 
L 258.093705 -421.623161 
L 258.925701 -417.819303 
L 259.675821 -414.015445 
L 260.326482 -410.211588 
L 260.86581 -406.40773 
L 261.28851 -402.603873 
L 261.596264 -398.800015 
L 261.797696 -394.996158 
L 261.907904 -391.1923 
L 261.947667 -387.388442 
L 261.942361 -383.584585 
L 261.920696 -379.780727 
L 261.913327 -375.97687 
L 261.951397 -372.173012 
L 262.065081 -368.369155 
L 262.282149 -364.565297 
L 262.626612 -360.761439 
L 263.117469 -356.957582 
L 263.767631 -353.153724 
L 264.58305 -349.349867 
L 265.562129 -345.546009 
L 266.695454 -341.742152 
L 267.965893 -337.938294 
L 269.349073 -334.134436 
L 270.814234 -330.330579 
L 272.325399 -326.526721 
L 273.842804 -322.722864 
L 275.324481 -318.919006 
L 276.727879 -315.115149 
L 278.011427 -311.311291 
L 279.13594 -307.507433 
L 280.065801 -303.703576 
L 280.769885 -299.899718 
L 281.222232 -296.095861 
L 281.4025 -292.292003 
L 281.296234 -288.488146 
L 280.895028 -284.684288 
L 280.196608 -280.88043 
L 279.204874 -277.076573 
L 277.929909 -273.272715 
L 276.387922 -269.468858 
L 274.601088 -265.665 
L 272.597238 -261.861143 
L 270.409335 -258.057285 
L 268.074704 -254.253427 
L 265.63401 -250.44957 
L 263.129993 -246.645712 
L 260.606024 -242.841855 
L 258.10456 -239.037997 
L 255.665596 -235.23414 
L 253.325236 -231.430282 
L 251.114472 -227.626424 
L 249.058268 -223.822567 
L 247.175006 -220.018709 
L 245.476307 -216.214852 
L 243.96723 -212.410994 
L 242.646804 -208.607137 
L 241.508815 -204.803279 
L 240.542782 -200.999421 
L 239.735027 -197.195564 
L 239.069747 -193.391706 
L 238.530028 -189.587849 
L 238.098739 -185.783991 
z
" style="stroke: #3d3d3d; stroke-opacity: 0.5"/>
    </defs>
    <g clip-path="url(#p4514e80edc)">
     <use xlink:href="#mb795494317" x="0" y="722.183991" style="fill: #d684bd; fill-opacity: 0.5; stroke: #3d3d3d; stroke-opacity: 0.5"/>
    </g>
   </g>
   <g id="PolyCollection_3">
    <defs>
     <path id="m00c33a0ae8" d="M 348.644854 -326.427601 
L 348.080146 -326.427601 
L 347.975165 -330.097868 
L 347.841806 -333.768134 
L 347.67618 -337.438401 
L 347.474924 -341.108667 
L 347.235436 -344.778934 
L 346.956016 -348.4492 
L 346.635897 -352.119467 
L 346.275112 -355.789734 
L 345.874228 -359.46 
L 345.433954 -363.130267 
L 344.954693 -366.800533 
L 344.436102 -370.4708 
L 343.876748 -374.141066 
L 343.273917 -377.811333 
L 342.62364 -381.481599 
L 341.920921 -385.151866 
L 341.160166 -388.822133 
L 340.335749 -392.492399 
L 339.442649 -396.162666 
L 338.477072 -399.832932 
L 337.436981 -403.503199 
L 336.322474 -407.173465 
L 335.13596 -410.843732 
L 333.882095 -414.513999 
L 332.567492 -418.184265 
L 331.200205 -421.854532 
L 329.789064 -425.524798 
L 328.342929 -429.195065 
L 326.870003 -432.865331 
L 325.377321 -436.535598 
L 323.870546 -440.205865 
L 322.354154 -443.876131 
L 320.832013 -447.546398 
L 319.308287 -451.216664 
L 317.788495 -454.886931 
L 316.280495 -458.557197 
L 314.795164 -462.227464 
L 313.346558 -465.897731 
L 311.951461 -469.567997 
L 310.628314 -473.238264 
L 309.395692 -476.90853 
L 308.27055 -480.578797 
L 307.266551 -484.249063 
L 306.39275 -487.91933 
L 305.652895 -491.589596 
L 305.045453 -495.259863 
L 304.564411 -498.93013 
L 304.200761 -502.600396 
L 303.944491 -506.270663 
L 303.786839 -509.940929 
L 303.7225 -513.611196 
L 303.751488 -517.281462 
L 303.88033 -520.951729 
L 304.122351 -524.621996 
L 304.496876 -528.292262 
L 305.027345 -531.962529 
L 305.738464 -535.632795 
L 306.652738 -539.303062 
L 307.786813 -542.973328 
L 309.14818 -546.643595 
L 310.732762 -550.313862 
L 312.523784 -553.984128 
L 314.492149 -557.654395 
L 316.598317 -561.324661 
L 318.795403 -564.994928 
L 321.033087 -568.665194 
L 323.261736 -572.335461 
L 325.436219 -576.005728 
L 327.518904 -579.675994 
L 329.481539 -583.346261 
L 331.305886 -587.016527 
L 332.983199 -590.686794 
L 334.512783 -594.35706 
L 335.899992 -598.027327 
L 337.154049 -601.697593 
L 338.286039 -605.36786 
L 339.307344 -609.038127 
L 340.228642 -612.708393 
L 341.059488 -616.37866 
L 341.808362 -620.048926 
L 342.483001 -623.719193 
L 343.090815 -627.389459 
L 343.639193 -631.059726 
L 344.135608 -634.729993 
L 344.587465 -638.400259 
L 345.001746 -642.070526 
L 345.384569 -645.740792 
L 345.740764 -649.411059 
L 346.0736 -653.081325 
L 346.384729 -656.751592 
L 346.674363 -660.421859 
L 346.941647 -664.092125 
L 347.185152 -667.762392 
L 347.4034 -671.432658 
L 347.595308 -675.102925 
L 347.760515 -678.773191 
L 347.89954 -682.443458 
L 348.01378 -686.113725 
L 348.105376 -689.783991 
L 348.619624 -689.783991 
L 348.619624 -689.783991 
L 348.71122 -686.113725 
L 348.82546 -682.443458 
L 348.964485 -678.773191 
L 349.129692 -675.102925 
L 349.3216 -671.432658 
L 349.539848 -667.762392 
L 349.783353 -664.092125 
L 350.050637 -660.421859 
L 350.340271 -656.751592 
L 350.6514 -653.081325 
L 350.984236 -649.411059 
L 351.340431 -645.740792 
L 351.723254 -642.070526 
L 352.137535 -638.400259 
L 352.589392 -634.729993 
L 353.085807 -631.059726 
L 353.634185 -627.389459 
L 354.241999 -623.719193 
L 354.916638 -620.048926 
L 355.665512 -616.37866 
L 356.496358 -612.708393 
L 357.417656 -609.038127 
L 358.438961 -605.36786 
L 359.570951 -601.697593 
L 360.825008 -598.027327 
L 362.212217 -594.35706 
L 363.741801 -590.686794 
L 365.419114 -587.016527 
L 367.243461 -583.346261 
L 369.206096 -579.675994 
L 371.288781 -576.005728 
L 373.463264 -572.335461 
L 375.691913 -568.665194 
L 377.929597 -564.994928 
L 380.126683 -561.324661 
L 382.232851 -557.654395 
L 384.201216 -553.984128 
L 385.992238 -550.313862 
L 387.57682 -546.643595 
L 388.938187 -542.973328 
L 390.072262 -539.303062 
L 390.986536 -535.632795 
L 391.697655 -531.962529 
L 392.228124 -528.292262 
L 392.602649 -524.621996 
L 392.84467 -520.951729 
L 392.973512 -517.281462 
L 393.0025 -513.611196 
L 392.938161 -509.940929 
L 392.780509 -506.270663 
L 392.524239 -502.600396 
L 392.160589 -498.93013 
L 391.679547 -495.259863 
L 391.072105 -491.589596 
L 390.33225 -487.91933 
L 389.458449 -484.249063 
L 388.45445 -480.578797 
L 387.329308 -476.90853 
L 386.096686 -473.238264 
L 384.773539 -469.567997 
L 383.378442 -465.897731 
L 381.929836 -462.227464 
L 380.444505 -458.557197 
L 378.936505 -454.886931 
L 377.416713 -451.216664 
L 375.892987 -447.546398 
L 374.370846 -443.876131 
L 372.854454 -440.205865 
L 371.347679 -436.535598 
L 369.854997 -432.865331 
L 368.382071 -429.195065 
L 366.935936 -425.524798 
L 365.524795 -421.854532 
L 364.157508 -418.184265 
L 362.842905 -414.513999 
L 361.58904 -410.843732 
L 360.402526 -407.173465 
L 359.288019 -403.503199 
L 358.247928 -399.832932 
L 357.282351 -396.162666 
L 356.389251 -392.492399 
L 355.564834 -388.822133 
L 354.804079 -385.151866 
L 354.10136 -381.481599 
L 353.451083 -377.811333 
L 352.848252 -374.141066 
L 352.288898 -370.4708 
L 351.770307 -366.800533 
L 351.291046 -363.130267 
L 350.850772 -359.46 
L 350.449888 -355.789734 
L 350.089103 -352.119467 
L 349.768984 -348.4492 
L 349.489564 -344.778934 
L 349.250076 -341.108667 
L 349.04882 -337.438401 
L 348.883194 -333.768134 
L 348.749835 -330.097868 
L 348.644854 -326.427601 
z
" style="stroke: #3d3d3d; stroke-opacity: 0.5"/>
    </defs>
    <g clip-path="url(#p4514e80edc)">
     <use xlink:href="#m00c33a0ae8" x="0" y="722.183991" style="fill: #c03d3e; fill-opacity: 0.5; stroke: #3d3d3d; stroke-opacity: 0.5"/>
    </g>
   </g>
   <g id="PolyCollection_4">
    <defs>
     <path id="mf4ab4c903e" d="M 460.363546 -225.529273 
L 459.561454 -225.529273 
L 459.423712 -229.628242 
L 459.246793 -233.727212 
L 459.022077 -237.826181 
L 458.739716 -241.92515 
L 458.388624 -246.024119 
L 457.956523 -250.123088 
L 457.430086 -254.222057 
L 456.795176 -258.321026 
L 456.037229 -262.419995 
L 455.141793 -266.518964 
L 454.095235 -270.617933 
L 452.885616 -274.716902 
L 451.503697 -278.815871 
L 449.944025 -282.91484 
L 448.206031 -287.013809 
L 446.295006 -291.112778 
L 444.222877 -295.211747 
L 442.008633 -299.310716 
L 439.678325 -303.409685 
L 437.264561 -307.508654 
L 434.805482 -311.607623 
L 432.343268 -315.706592 
L 429.922261 -319.805561 
L 427.586853 -323.90453 
L 425.379339 -328.0035 
L 423.337903 -332.102469 
L 421.494931 -336.201438 
L 419.875781 -340.300407 
L 418.498085 -344.399376 
L 417.371582 -348.498345 
L 416.498438 -352.597314 
L 415.873909 -356.696283 
L 415.487222 -360.795252 
L 415.3225 -364.894221 
L 415.359611 -368.99319 
L 415.574849 -373.092159 
L 415.941423 -377.191128 
L 416.4298 -381.290097 
L 417.007984 -385.389066 
L 417.641863 -389.488035 
L 418.295757 -393.587004 
L 418.933264 -397.685973 
L 419.51847 -401.784942 
L 420.017515 -405.883911 
L 420.400425 -409.98288 
L 420.643061 -414.081849 
L 420.728994 -418.180818 
L 420.651077 -422.279787 
L 420.412523 -426.378757 
L 420.027303 -430.477726 
L 419.519776 -434.576695 
L 418.923533 -438.675664 
L 418.279523 -442.774633 
L 417.633601 -446.873602 
L 417.033708 -450.972571 
L 416.52692 -455.07154 
L 416.156608 -459.170509 
L 415.959934 -463.269478 
L 415.965857 -467.368447 
L 416.193777 -471.467416 
L 416.652865 -475.566385 
L 417.34208 -479.665354 
L 418.250815 -483.764323 
L 419.360081 -487.863292 
L 420.644097 -491.962261 
L 422.072164 -496.06123 
L 423.610689 -500.160199 
L 425.225224 -504.259168 
L 426.882413 -508.358137 
L 428.551738 -512.457106 
L 430.206964 -516.556075 
L 431.82722 -520.655045 
L 433.397648 -524.754014 
L 434.909584 -528.852983 
L 436.360278 -532.951952 
L 437.752157 -537.050921 
L 439.091733 -541.14989 
L 440.388217 -545.248859 
L 441.651996 -549.347828 
L 442.893113 -553.446797 
L 444.119886 -557.545766 
L 445.337816 -561.644735 
L 446.548867 -565.743704 
L 447.751185 -569.842673 
L 448.939263 -573.941642 
L 450.104493 -578.040611 
L 451.236039 -582.13958 
L 452.321889 -586.238549 
L 453.349981 -590.337518 
L 454.309257 -594.436487 
L 455.190552 -598.535456 
L 455.987231 -602.634425 
L 456.695556 -606.733394 
L 457.314752 -610.832363 
L 457.846836 -614.931333 
L 458.29623 -619.030302 
L 458.669255 -623.129271 
L 458.97355 -627.22824 
L 459.217496 -631.327209 
L 460.707504 -631.327209 
L 460.707504 -631.327209 
L 460.95145 -627.22824 
L 461.255745 -623.129271 
L 461.62877 -619.030302 
L 462.078164 -614.931333 
L 462.610248 -610.832363 
L 463.229444 -606.733394 
L 463.937769 -602.634425 
L 464.734448 -598.535456 
L 465.615743 -594.436487 
L 466.575019 -590.337518 
L 467.603111 -586.238549 
L 468.688961 -582.13958 
L 469.820507 -578.040611 
L 470.985737 -573.941642 
L 472.173815 -569.842673 
L 473.376133 -565.743704 
L 474.587184 -561.644735 
L 475.805114 -557.545766 
L 477.031887 -553.446797 
L 478.273004 -549.347828 
L 479.536783 -545.248859 
L 480.833267 -541.14989 
L 482.172843 -537.050921 
L 483.564722 -532.951952 
L 485.015416 -528.852983 
L 486.527352 -524.754014 
L 488.09778 -520.655045 
L 489.718036 -516.556075 
L 491.373262 -512.457106 
L 493.042587 -508.358137 
L 494.699776 -504.259168 
L 496.314311 -500.160199 
L 497.852836 -496.06123 
L 499.280903 -491.962261 
L 500.564919 -487.863292 
L 501.674185 -483.764323 
L 502.58292 -479.665354 
L 503.272135 -475.566385 
L 503.731223 -471.467416 
L 503.959143 -467.368447 
L 503.965066 -463.269478 
L 503.768392 -459.170509 
L 503.39808 -455.07154 
L 502.891292 -450.972571 
L 502.291399 -446.873602 
L 501.645477 -442.774633 
L 501.001467 -438.675664 
L 500.405224 -434.576695 
L 499.897697 -430.477726 
L 499.512477 -426.378757 
L 499.273923 -422.279787 
L 499.196006 -418.180818 
L 499.281939 -414.081849 
L 499.524575 -409.98288 
L 499.907485 -405.883911 
L 500.40653 -401.784942 
L 500.991736 -397.685973 
L 501.629243 -393.587004 
L 502.283137 -389.488035 
L 502.917016 -385.389066 
L 503.4952 -381.290097 
L 503.983577 -377.191128 
L 504.350151 -373.092159 
L 504.565389 -368.99319 
L 504.6025 -364.894221 
L 504.437778 -360.795252 
L 504.051091 -356.696283 
L 503.426562 -352.597314 
L 502.553418 -348.498345 
L 501.426915 -344.399376 
L 500.049219 -340.300407 
L 498.430069 -336.201438 
L 496.587097 -332.102469 
L 494.545661 -328.0035 
L 492.338147 -323.90453 
L 490.002739 -319.805561 
L 487.581732 -315.706592 
L 485.119518 -311.607623 
L 482.660439 -307.508654 
L 480.246675 -303.409685 
L 477.916367 -299.310716 
L 475.702123 -295.211747 
L 473.629994 -291.112778 
L 471.718969 -287.013809 
L 469.980975 -282.91484 
L 468.421303 -278.815871 
L 467.039384 -274.716902 
L 465.829765 -270.617933 
L 464.783207 -266.518964 
L 463.887771 -262.419995 
L 463.129824 -258.321026 
L 462.494914 -254.222057 
L 461.968477 -250.123088 
L 461.536376 -246.024119 
L 461.185284 -241.92515 
L 460.902923 -237.826181 
L 460.678207 -233.727212 
L 460.501288 -229.628242 
L 460.363546 -225.529273 
z
" style="stroke: #3d3d3d; stroke-opacity: 0.5"/>
    </defs>
    <g clip-path="url(#p4514e80edc)">
     <use xlink:href="#mf4ab4c903e" x="0" y="722.183991" style="fill: #9372b2; fill-opacity: 0.5; stroke: #3d3d3d; stroke-opacity: 0.5"/>
    </g>
   </g>
   <g id="PolyCollection_5">
    <defs>
     <path id="mf92245d47e" d="M 572.401309 -233.079406 
L 570.723691 -233.079406 
L 570.417124 -237.382135 
L 570.021157 -241.684864 
L 569.518034 -245.987593 
L 568.889137 -250.290321 
L 568.115768 -254.59305 
L 567.180136 -258.895779 
L 566.066498 -263.198508 
L 564.762393 -267.501237 
L 563.259888 -271.803965 
L 561.556725 -276.106694 
L 559.657273 -280.409423 
L 557.573181 -284.712152 
L 555.323641 -289.01488 
L 552.935234 -293.317609 
L 550.441317 -297.620338 
L 547.880987 -301.923067 
L 545.297689 -306.225796 
L 542.73755 -310.528524 
L 540.247552 -314.831253 
L 537.873678 -319.133982 
L 535.659117 -323.436711 
L 533.642657 -327.739439 
L 531.857321 -332.042168 
L 530.329305 -336.344897 
L 529.077242 -340.647626 
L 528.111795 -344.950355 
L 527.435576 -349.253083 
L 527.043348 -353.555812 
L 526.9225 -357.858541 
L 527.05376 -362.16127 
L 527.412097 -366.463998 
L 527.967784 -370.766727 
L 528.687579 -375.069456 
L 529.535971 -379.372185 
L 530.476443 -383.674914 
L 531.472687 -387.977642 
L 532.489742 -392.280371 
L 533.49498 -396.5831 
L 534.458938 -400.885829 
L 535.355959 -405.188557 
L 536.164668 -409.491286 
L 536.868295 -413.794015 
L 537.454885 -418.096744 
L 537.917443 -422.399473 
L 538.25404 -426.702201 
L 538.467901 -431.00493 
L 538.567468 -435.307659 
L 538.566401 -439.610388 
L 538.483458 -443.913116 
L 538.34217 -448.215845 
L 538.170261 -452.518574 
L 537.998729 -456.821303 
L 537.860586 -461.124032 
L 537.789286 -465.42676 
L 537.816914 -469.729489 
L 537.972275 -474.032218 
L 538.279046 -478.334947 
L 538.754178 -482.637675 
L 539.406711 -486.940404 
L 540.237151 -491.243133 
L 541.237478 -495.545862 
L 542.391802 -499.84859 
L 543.677608 -504.151319 
L 545.067461 -508.454048 
L 546.531 -512.756777 
L 548.037025 -517.059506 
L 549.555473 -521.362234 
L 551.059123 -525.664963 
L 552.52488 -529.967692 
L 553.934592 -534.270421 
L 555.275358 -538.573149 
L 556.539381 -542.875878 
L 557.723451 -547.178607 
L 558.828154 -551.481336 
L 559.856941 -555.784065 
L 560.815163 -560.086793 
L 561.709169 -564.389522 
L 562.545535 -568.692251 
L 563.330467 -572.99498 
L 564.069392 -577.297708 
L 564.766715 -581.600437 
L 565.425732 -585.903166 
L 566.048662 -590.205895 
L 566.636759 -594.508624 
L 567.190478 -598.811352 
L 567.709679 -603.114081 
L 568.193831 -607.41681 
L 568.642227 -611.719539 
L 569.054173 -616.022267 
L 569.429168 -620.324996 
L 569.767044 -624.627725 
L 570.068081 -628.930454 
L 570.333072 -633.233183 
L 570.563343 -637.535911 
L 570.76074 -641.83864 
L 570.927561 -646.141369 
L 571.066469 -650.444098 
L 571.180378 -654.746826 
L 571.272328 -659.049555 
L 571.852672 -659.049555 
L 571.852672 -659.049555 
L 571.944622 -654.746826 
L 572.058531 -650.444098 
L 572.197439 -646.141369 
L 572.36426 -641.83864 
L 572.561657 -637.535911 
L 572.791928 -633.233183 
L 573.056919 -628.930454 
L 573.357956 -624.627725 
L 573.695832 -620.324996 
L 574.070827 -616.022267 
L 574.482773 -611.719539 
L 574.931169 -607.41681 
L 575.415321 -603.114081 
L 575.934522 -598.811352 
L 576.488241 -594.508624 
L 577.076338 -590.205895 
L 577.699268 -585.903166 
L 578.358285 -581.600437 
L 579.055608 -577.297708 
L 579.794533 -572.99498 
L 580.579465 -568.692251 
L 581.415831 -564.389522 
L 582.309837 -560.086793 
L 583.268059 -555.784065 
L 584.296846 -551.481336 
L 585.401549 -547.178607 
L 586.585619 -542.875878 
L 587.849642 -538.573149 
L 589.190408 -534.270421 
L 590.60012 -529.967692 
L 592.065877 -525.664963 
L 593.569527 -521.362234 
L 595.087975 -517.059506 
L 596.594 -512.756777 
L 598.057539 -508.454048 
L 599.447392 -504.151319 
L 600.733198 -499.84859 
L 601.887522 -495.545862 
L 602.887849 -491.243133 
L 603.718289 -486.940404 
L 604.370822 -482.637675 
L 604.845954 -478.334947 
L 605.152725 -474.032218 
L 605.308086 -469.729489 
L 605.335714 -465.42676 
L 605.264414 -461.124032 
L 605.126271 -456.821303 
L 604.954739 -452.518574 
L 604.78283 -448.215845 
L 604.641542 -443.913116 
L 604.558599 -439.610388 
L 604.557532 -435.307659 
L 604.657099 -431.00493 
L 604.87096 -426.702201 
L 605.207557 -422.399473 
L 605.670115 -418.096744 
L 606.256705 -413.794015 
L 606.960332 -409.491286 
L 607.769041 -405.188557 
L 608.666062 -400.885829 
L 609.63002 -396.5831 
L 610.635258 -392.280371 
L 611.652313 -387.977642 
L 612.648557 -383.674914 
L 613.589029 -379.372185 
L 614.437421 -375.069456 
L 615.157216 -370.766727 
L 615.712903 -366.463998 
L 616.07124 -362.16127 
L 616.2025 -357.858541 
L 616.081652 -353.555812 
L 615.689424 -349.253083 
L 615.013205 -344.950355 
L 614.047758 -340.647626 
L 612.795695 -336.344897 
L 611.267679 -332.042168 
L 609.482343 -327.739439 
L 607.465883 -323.436711 
L 605.251322 -319.133982 
L 602.877448 -314.831253 
L 600.38745 -310.528524 
L 597.827311 -306.225796 
L 595.244013 -301.923067 
L 592.683683 -297.620338 
L 590.189766 -293.317609 
L 587.801359 -289.01488 
L 585.551819 -284.712152 
L 583.467727 -280.409423 
L 581.568275 -276.106694 
L 579.865112 -271.803965 
L 578.362607 -267.501237 
L 577.058502 -263.198508 
L 575.944864 -258.895779 
L 575.009232 -254.59305 
L 574.235863 -250.290321 
L 573.606966 -245.987593 
L 573.103843 -241.684864 
L 572.707876 -237.382135 
L 572.401309 -233.079406 
z
" style="stroke: #3d3d3d; stroke-opacity: 0.5"/>
    </defs>
    <g clip-path="url(#p4514e80edc)">
     <use xlink:href="#mf92245d47e" x="0" y="722.183991" style="fill: #845b53; fill-opacity: 0.5; stroke: #3d3d3d; stroke-opacity: 0.5"/>
    </g>
   </g>
   <g id="PolyCollection_6">
    <defs>
     <path id="m030acb2c4c" d="M 683.611918 -190.996903 
L 682.713082 -190.996903 
L 682.560543 -194.582762 
L 682.364547 -198.16862 
L 682.115471 -201.754479 
L 681.802391 -205.340337 
L 681.413139 -208.926196 
L 680.93446 -212.512054 
L 680.352263 -216.097913 
L 679.652005 -219.683771 
L 678.819199 -223.26963 
L 677.840059 -226.855488 
L 676.702275 -230.441347 
L 675.395878 -234.027205 
L 673.914183 -237.613064 
L 672.254723 -241.198922 
L 670.420137 -244.784781 
L 668.418902 -248.370639 
L 666.265856 -251.956498 
L 663.982415 -255.542356 
L 661.596438 -259.128214 
L 659.141688 -262.714073 
L 656.656898 -266.299931 
L 654.184462 -269.88579 
L 651.768824 -273.471648 
L 649.454656 -277.057507 
L 647.284962 -280.643365 
L 645.299229 -284.229224 
L 643.531766 -287.815082 
L 642.010343 -291.400941 
L 640.75522 -294.986799 
L 639.778616 -298.572658 
L 639.08462 -302.158516 
L 638.669524 -305.744375 
L 638.5225 -309.330233 
L 638.626547 -312.916092 
L 638.959603 -316.50195 
L 639.495727 -320.087809 
L 640.206269 -323.673667 
L 641.060956 -327.259526 
L 642.028858 -330.845384 
L 643.079202 -334.431242 
L 644.182036 -338.017101 
L 645.308744 -341.602959 
L 646.432445 -345.188818 
L 647.528293 -348.774676 
L 648.573696 -352.360535 
L 649.548503 -355.946393 
L 650.435153 -359.532252 
L 651.218837 -363.11811 
L 651.887648 -366.703969 
L 652.432763 -370.289827 
L 652.848618 -373.875686 
L 653.133088 -377.461544 
L 653.287629 -381.047403 
L 653.317368 -384.633261 
L 653.231103 -388.21912 
L 653.041175 -391.804978 
L 652.763214 -395.390837 
L 652.415729 -398.976695 
L 652.019567 -402.562554 
L 651.597263 -406.148412 
L 651.17231 -409.73427 
L 650.768422 -413.320129 
L 650.408798 -416.905987 
L 650.115473 -420.491846 
L 649.908756 -424.077704 
L 649.806776 -427.663563 
L 649.825144 -431.249421 
L 649.976715 -434.83528 
L 650.271418 -438.421138 
L 650.716143 -442.006997 
L 651.314662 -445.592855 
L 652.067568 -449.178714 
L 652.972238 -452.764572 
L 654.022825 -456.350431 
L 655.210301 -459.936289 
L 656.52257 -463.522148 
L 657.944663 -467.108006 
L 659.459054 -470.693865 
L 661.046063 -474.279723 
L 662.684386 -477.865581 
L 664.351696 -481.45144 
L 666.025317 -485.037298 
L 667.682923 -488.623157 
L 669.303236 -492.209015 
L 670.866673 -495.794874 
L 672.355921 -499.380732 
L 673.756396 -502.966591 
L 675.056582 -506.552449 
L 676.248207 -510.138308 
L 677.326287 -513.724166 
L 678.289013 -517.310025 
L 679.137509 -520.895883 
L 679.875492 -524.481742 
L 680.508836 -528.0676 
L 681.045099 -531.653459 
L 681.493025 -535.239317 
L 681.862067 -538.825176 
L 682.161937 -542.411034 
L 682.402225 -545.996893 
L 683.922775 -545.996893 
L 683.922775 -545.996893 
L 684.163063 -542.411034 
L 684.462933 -538.825176 
L 684.831975 -535.239317 
L 685.279901 -531.653459 
L 685.816164 -528.0676 
L 686.449508 -524.481742 
L 687.187491 -520.895883 
L 688.035987 -517.310025 
L 688.998713 -513.724166 
L 690.076793 -510.138308 
L 691.268418 -506.552449 
L 692.568604 -502.966591 
L 693.969079 -499.380732 
L 695.458327 -495.794874 
L 697.021764 -492.209015 
L 698.642077 -488.623157 
L 700.299683 -485.037298 
L 701.973304 -481.45144 
L 703.640614 -477.865581 
L 705.278937 -474.279723 
L 706.865946 -470.693865 
L 708.380337 -467.108006 
L 709.80243 -463.522148 
L 711.114699 -459.936289 
L 712.302175 -456.350431 
L 713.352762 -452.764572 
L 714.257432 -449.178714 
L 715.010338 -445.592855 
L 715.608857 -442.006997 
L 716.053582 -438.421138 
L 716.348285 -434.83528 
L 716.499856 -431.249421 
L 716.518224 -427.663563 
L 716.416244 -424.077704 
L 716.209527 -420.491846 
L 715.916202 -416.905987 
L 715.556578 -413.320129 
L 715.15269 -409.73427 
L 714.727737 -406.148412 
L 714.305433 -402.562554 
L 713.909271 -398.976695 
L 713.561786 -395.390837 
L 713.283825 -391.804978 
L 713.093897 -388.21912 
L 713.007632 -384.633261 
L 713.037371 -381.047403 
L 713.191912 -377.461544 
L 713.476382 -373.875686 
L 713.892237 -370.289827 
L 714.437352 -366.703969 
L 715.106163 -363.11811 
L 715.889847 -359.532252 
L 716.776497 -355.946393 
L 717.751304 -352.360535 
L 718.796707 -348.774676 
L 719.892555 -345.188818 
L 721.016256 -341.602959 
L 722.142964 -338.017101 
L 723.245798 -334.431242 
L 724.296142 -330.845384 
L 725.264044 -327.259526 
L 726.118731 -323.673667 
L 726.829273 -320.087809 
L 727.365397 -316.50195 
L 727.698453 -312.916092 
L 727.8025 -309.330233 
L 727.655476 -305.744375 
L 727.24038 -302.158516 
L 726.546384 -298.572658 
L 725.56978 -294.986799 
L 724.314657 -291.400941 
L 722.793234 -287.815082 
L 721.025771 -284.229224 
L 719.040038 -280.643365 
L 716.870344 -277.057507 
L 714.556176 -273.471648 
L 712.140538 -269.88579 
L 709.668102 -266.299931 
L 707.183312 -262.714073 
L 704.728562 -259.128214 
L 702.342585 -255.542356 
L 700.059144 -251.956498 
L 697.906098 -248.370639 
L 695.904863 -244.784781 
L 694.070277 -241.198922 
L 692.410817 -237.613064 
L 690.929122 -234.027205 
L 689.622725 -230.441347 
L 688.484941 -226.855488 
L 687.505801 -223.26963 
L 686.672995 -219.683771 
L 685.972737 -216.097913 
L 685.39054 -212.512054 
L 684.911861 -208.926196 
L 684.522609 -205.340337 
L 684.209529 -201.754479 
L 683.960453 -198.16862 
L 683.764457 -194.582762 
L 683.611918 -190.996903 
z
" style="stroke: #3d3d3d; stroke-opacity: 0.5"/>
    </defs>
    <g clip-path="url(#p4514e80edc)">
     <use xlink:href="#m030acb2c4c" x="0" y="722.183991" style="fill: #e1812c; fill-opacity: 0.5; stroke: #3d3d3d; stroke-opacity: 0.5"/>
    </g>
   </g>
   <g id="PolyCollection_7">
    <defs>
     <path id="mabb361596a" d="M 795.394349 -193.805035 
L 794.130651 -193.805035 
L 793.914977 -197.911045 
L 793.638884 -202.017054 
L 793.289981 -206.123064 
L 792.854714 -210.229074 
L 792.318651 -214.335084 
L 791.66689 -218.441094 
L 790.884589 -222.547103 
L 789.957619 -226.653113 
L 788.873314 -230.759123 
L 787.621293 -234.865133 
L 786.194322 -238.971143 
L 784.589155 -243.077152 
L 782.807309 -247.183162 
L 780.855718 -251.289172 
L 778.747191 -255.395182 
L 776.500655 -259.501192 
L 774.141106 -263.607201 
L 771.699271 -267.713211 
L 769.21095 -271.819221 
L 766.716067 -275.925231 
L 764.257445 -280.031241 
L 761.879363 -284.13725 
L 759.62597 -288.24326 
L 757.539625 -292.34927 
L 755.659267 -296.45528 
L 754.018897 -300.56129 
L 752.646279 -304.667299 
L 751.561909 -308.773309 
L 750.778334 -312.879319 
L 750.299837 -316.985329 
L 750.1225 -321.091338 
L 750.234611 -325.197348 
L 750.617377 -329.303358 
L 751.245857 -333.409368 
L 752.09006 -337.515378 
L 753.116093 -341.621387 
L 754.287324 -345.727397 
L 755.565476 -349.833407 
L 756.911638 -353.939417 
L 758.287175 -358.045427 
L 759.654564 -362.151436 
L 760.978152 -366.257446 
L 762.224901 -370.363456 
L 763.365123 -374.469466 
L 764.373212 -378.575476 
L 765.228383 -382.681485 
L 765.915364 -386.787495 
L 766.425006 -390.893505 
L 766.754745 -394.999515 
L 766.908845 -399.105525 
L 766.898375 -403.211534 
L 766.740876 -407.317544 
L 766.459707 -411.423554 
L 766.083083 -415.529564 
L 765.642847 -419.635574 
L 765.173053 -423.741583 
L 764.708431 -427.847593 
L 764.282832 -431.953603 
L 763.927754 -436.059613 
L 763.671014 -440.165623 
L 763.535655 -444.271632 
L 763.539126 -448.377642 
L 763.692776 -452.483652 
L 764.00168 -456.589662 
L 764.464786 -460.695672 
L 765.075369 -464.801681 
L 765.821763 -468.907691 
L 766.688313 -473.013701 
L 767.656497 -477.119711 
L 768.706144 -481.225721 
L 769.816663 -485.33173 
L 770.968216 -489.43774 
L 772.14273 -493.54375 
L 773.324709 -497.64976 
L 774.501754 -501.755769 
L 775.664798 -505.861779 
L 776.808015 -509.967789 
L 777.928458 -514.073799 
L 779.025458 -518.179809 
L 780.09987 -522.285818 
L 781.153254 -526.391828 
L 782.18708 -530.497838 
L 783.202049 -534.603848 
L 784.197592 -538.709858 
L 785.171597 -542.815867 
L 786.120371 -546.921877 
L 787.038836 -551.027887 
L 787.920899 -555.133897 
L 788.759957 -559.239907 
L 789.549456 -563.345916 
L 790.283442 -567.451926 
L 790.957043 -571.557936 
L 791.566832 -575.663946 
L 792.111049 -579.769956 
L 792.589668 -583.875965 
L 793.004329 -587.981975 
L 793.358142 -592.087985 
L 793.655418 -596.193995 
L 793.901341 -600.300005 
L 795.623659 -600.300005 
L 795.623659 -600.300005 
L 795.869582 -596.193995 
L 796.166858 -592.087985 
L 796.520671 -587.981975 
L 796.935332 -583.875965 
L 797.413951 -579.769956 
L 797.958168 -575.663946 
L 798.567957 -571.557936 
L 799.241558 -567.451926 
L 799.975544 -563.345916 
L 800.765043 -559.239907 
L 801.604101 -555.133897 
L 802.486164 -551.027887 
L 803.404629 -546.921877 
L 804.353403 -542.815867 
L 805.327408 -538.709858 
L 806.322951 -534.603848 
L 807.33792 -530.497838 
L 808.371746 -526.391828 
L 809.42513 -522.285818 
L 810.499542 -518.179809 
L 811.596542 -514.073799 
L 812.716985 -509.967789 
L 813.860202 -505.861779 
L 815.023246 -501.755769 
L 816.200291 -497.64976 
L 817.38227 -493.54375 
L 818.556784 -489.43774 
L 819.708337 -485.33173 
L 820.818856 -481.225721 
L 821.868503 -477.119711 
L 822.836687 -473.013701 
L 823.703237 -468.907691 
L 824.449631 -464.801681 
L 825.060214 -460.695672 
L 825.52332 -456.589662 
L 825.832224 -452.483652 
L 825.985874 -448.377642 
L 825.989345 -444.271632 
L 825.853986 -440.165623 
L 825.597246 -436.059613 
L 825.242168 -431.953603 
L 824.816569 -427.847593 
L 824.351947 -423.741583 
L 823.882153 -419.635574 
L 823.441917 -415.529564 
L 823.065293 -411.423554 
L 822.784124 -407.317544 
L 822.626625 -403.211534 
L 822.616155 -399.105525 
L 822.770255 -394.999515 
L 823.099994 -390.893505 
L 823.609636 -386.787495 
L 824.296617 -382.681485 
L 825.151788 -378.575476 
L 826.159877 -374.469466 
L 827.300099 -370.363456 
L 828.546848 -366.257446 
L 829.870436 -362.151436 
L 831.237825 -358.045427 
L 832.613362 -353.939417 
L 833.959524 -349.833407 
L 835.237676 -345.727397 
L 836.408907 -341.621387 
L 837.43494 -337.515378 
L 838.279143 -333.409368 
L 838.907623 -329.303358 
L 839.290389 -325.197348 
L 839.4025 -321.091338 
L 839.225163 -316.985329 
L 838.746666 -312.879319 
L 837.963091 -308.773309 
L 836.878721 -304.667299 
L 835.506103 -300.56129 
L 833.865733 -296.45528 
L 831.985375 -292.34927 
L 829.89903 -288.24326 
L 827.645637 -284.13725 
L 825.267555 -280.031241 
L 822.808933 -275.925231 
L 820.31405 -271.819221 
L 817.825729 -267.713211 
L 815.383894 -263.607201 
L 813.024345 -259.501192 
L 810.777809 -255.395182 
L 808.669282 -251.289172 
L 806.717691 -247.183162 
L 804.935845 -243.077152 
L 803.330678 -238.971143 
L 801.903707 -234.865133 
L 800.651686 -230.759123 
L 799.567381 -226.653113 
L 798.640411 -222.547103 
L 797.85811 -218.441094 
L 797.206349 -214.335084 
L 796.670286 -210.229074 
L 796.235019 -206.123064 
L 795.886116 -202.017054 
L 795.610023 -197.911045 
L 795.394349 -193.805035 
z
" style="stroke: #3d3d3d; stroke-opacity: 0.5"/>
    </defs>
    <g clip-path="url(#p4514e80edc)">
     <use xlink:href="#mabb361596a" x="0" y="722.183991" style="fill: #3a923a; fill-opacity: 0.5; stroke: #3d3d3d; stroke-opacity: 0.5"/>
    </g>
   </g>
   <g id="line2d_8">
    <path d="M 125.1625 401.795855 
L 125.1625 149.350638 
" clip-path="url(#p4514e80edc)" style="fill: none; stroke: #3d3d3d; stroke-width: 1.5; stroke-linecap: round"/>
   </g>
   <g id="line2d_9">
    <path d="M 125.1625 334.500941 
L 125.1625 215.727319 
" clip-path="url(#p4514e80edc)" style="fill: none; stroke: #3d3d3d; stroke-width: 4.5; stroke-linecap: round"/>
   </g>
   <g id="line2d_10">
    <path d="M 125.1625 285.496956 
" clip-path="url(#p4514e80edc)" style="fill: none; stroke: #3d3d3d; stroke-width: 1.5; stroke-linecap: round"/>
    <defs>
     <path id="m657b4861d5" d="M 1.875 0 
L -1.875 -0 
" style="stroke: #ffffff; stroke-width: 0.9"/>
    </defs>
    <g clip-path="url(#p4514e80edc)">
     <use xlink:href="#m657b4861d5" x="125.1625" y="285.496956" style="fill: #ffffff; stroke: #ffffff; stroke-width: 0.9"/>
    </g>
   </g>
   <g id="line2d_11">
    <path d="M 236.7625 474.623959 
L 236.7625 221.594141 
" clip-path="url(#p4514e80edc)" style="fill: none; stroke: #3d3d3d; stroke-width: 1.5; stroke-linecap: round"/>
   </g>
   <g id="line2d_12">
    <path d="M 236.7625 442.61144 
L 236.7625 325.285091 
" clip-path="url(#p4514e80edc)" style="fill: none; stroke: #3d3d3d; stroke-width: 4.5; stroke-linecap: round"/>
   </g>
   <g id="line2d_13">
    <path d="M 236.7625 407.545235 
" clip-path="url(#p4514e80edc)" style="fill: none; stroke: #3d3d3d; stroke-width: 1.5; stroke-linecap: round"/>
    <g clip-path="url(#p4514e80edc)">
     <use xlink:href="#m657b4861d5" x="236.7625" y="407.545235" style="fill: #ffffff; stroke: #ffffff; stroke-width: 0.9"/>
    </g>
   </g>
   <g id="line2d_14">
    <path d="M 348.3625 347.998061 
L 348.3625 80.158329 
" clip-path="url(#p4514e80edc)" style="fill: none; stroke: #3d3d3d; stroke-width: 1.5; stroke-linecap: round"/>
   </g>
   <g id="line2d_15">
    <path d="M 348.3625 252.126896 
L 348.3625 176.931031 
" clip-path="url(#p4514e80edc)" style="fill: none; stroke: #3d3d3d; stroke-width: 4.5; stroke-linecap: round"/>
   </g>
   <g id="line2d_16">
    <path d="M 348.3625 215.720087 
" clip-path="url(#p4514e80edc)" style="fill: none; stroke: #3d3d3d; stroke-width: 1.5; stroke-linecap: round"/>
    <g clip-path="url(#p4514e80edc)">
     <use xlink:href="#m657b4861d5" x="348.3625" y="215.720087" style="fill: #ffffff; stroke: #ffffff; stroke-width: 0.9"/>
    </g>
   </g>
   <g id="line2d_17">
    <path d="M 459.9625 433.014925 
L 459.9625 154.496575 
" clip-path="url(#p4514e80edc)" style="fill: none; stroke: #3d3d3d; stroke-width: 1.5; stroke-linecap: round"/>
   </g>
   <g id="line2d_18">
    <path d="M 459.9625 361.422023 
L 459.9625 241.980945 
" clip-path="url(#p4514e80edc)" style="fill: none; stroke: #3d3d3d; stroke-width: 4.5; stroke-linecap: round"/>
   </g>
   <g id="line2d_19">
    <path d="M 459.9625 297.92943 
" clip-path="url(#p4514e80edc)" style="fill: none; stroke: #3d3d3d; stroke-width: 1.5; stroke-linecap: round"/>
    <g clip-path="url(#p4514e80edc)">
     <use xlink:href="#m657b4861d5" x="459.9625" y="297.92943" style="fill: #ffffff; stroke: #ffffff; stroke-width: 0.9"/>
    </g>
   </g>
   <g id="line2d_20">
    <path d="M 571.5625 423.571009 
L 571.5625 128.668011 
" clip-path="url(#p4514e80edc)" style="fill: none; stroke: #3d3d3d; stroke-width: 1.5; stroke-linecap: round"/>
   </g>
   <g id="line2d_21">
    <path d="M 571.5625 370.634046 
L 571.5625 241.432121 
" clip-path="url(#p4514e80edc)" style="fill: none; stroke: #3d3d3d; stroke-width: 4.5; stroke-linecap: round"/>
   </g>
   <g id="line2d_22">
    <path d="M 571.5625 319.431188 
" clip-path="url(#p4514e80edc)" style="fill: none; stroke: #3d3d3d; stroke-width: 1.5; stroke-linecap: round"/>
    <g clip-path="url(#p4514e80edc)">
     <use xlink:href="#m657b4861d5" x="571.5625" y="319.431188" style="fill: #ffffff; stroke: #ffffff; stroke-width: 0.9"/>
    </g>
   </g>
   <g id="line2d_23">
    <path d="M 683.1625 472.184228 
L 683.1625 235.189958 
" clip-path="url(#p4514e80edc)" style="fill: none; stroke: #3d3d3d; stroke-width: 1.5; stroke-linecap: round"/>
   </g>
   <g id="line2d_24">
    <path d="M 683.1625 418.8788 
L 683.1625 303.027276 
" clip-path="url(#p4514e80edc)" style="fill: none; stroke: #3d3d3d; stroke-width: 4.5; stroke-linecap: round"/>
   </g>
   <g id="line2d_25">
    <path d="M 683.1625 367.398806 
" clip-path="url(#p4514e80edc)" style="fill: none; stroke: #3d3d3d; stroke-width: 1.5; stroke-linecap: round"/>
    <g clip-path="url(#p4514e80edc)">
     <use xlink:href="#m657b4861d5" x="683.1625" y="367.398806" style="fill: #ffffff; stroke: #ffffff; stroke-width: 0.9"/>
    </g>
   </g>
   <g id="line2d_26">
    <path d="M 794.7625 460.562112 
L 794.7625 189.700831 
" clip-path="url(#p4514e80edc)" style="fill: none; stroke: #3d3d3d; stroke-width: 1.5; stroke-linecap: round"/>
   </g>
   <g id="line2d_27">
    <path d="M 794.7625 403.086143 
L 794.7625 275.285246 
" clip-path="url(#p4514e80edc)" style="fill: none; stroke: #3d3d3d; stroke-width: 4.5; stroke-linecap: round"/>
   </g>
   <g id="line2d_28">
    <path d="M 794.7625 358.048158 
" clip-path="url(#p4514e80edc)" style="fill: none; stroke: #3d3d3d; stroke-width: 1.5; stroke-linecap: round"/>
    <g clip-path="url(#p4514e80edc)">
     <use xlink:href="#m657b4861d5" x="794.7625" y="358.048158" style="fill: #ffffff; stroke: #ffffff; stroke-width: 0.9"/>
    </g>
   </g>
   <g id="patch_3">
    <path d="M 69.3625 561.6 
L 850.5625 561.6 
" style="fill: none; stroke: #cccccc; stroke-width: 0.8; stroke-linejoin: miter; stroke-linecap: square"/>
   </g>
  </g>
 </g>
 <defs>
  <clipPath id="p4514e80edc">
   <rect x="69.3625" y="7.2" width="781.2" height="554.4"/>
  </clipPath>
 </defs>
</svg>
