<?xml version="1.0" encoding="utf-8" standalone="no"?>
<!DOCTYPE svg PUBLIC "-//W3C//DTD SVG 1.1//EN"
  "http://www.w3.org/Graphics/SVG/1.1/DTD/svg11.dtd">
<svg xmlns:xlink="http://www.w3.org/1999/xlink" width="857.7625pt" height="723.390382pt" viewBox="0 0 857.7625 723.390382" xmlns="http://www.w3.org/2000/svg" version="1.1">
 <metadata>
  <rdf:RDF xmlns:dc="http://purl.org/dc/elements/1.1/" xmlns:cc="http://creativecommons.org/ns#" xmlns:rdf="http://www.w3.org/1999/02/22-rdf-syntax-ns#">
   <cc:Work>
    <dc:type rdf:resource="http://purl.org/dc/dcmitype/StillImage"/>
    <dc:date>2024-03-17T20:48:16.934615</dc:date>
    <dc:format>image/svg+xml</dc:format>
    <dc:creator>
     <cc:Agent>
      <dc:title>Matplotlib v3.8.0, https://matplotlib.org/</dc:title>
     </cc:Agent>
    </dc:creator>
   </cc:Work>
  </rdf:RDF>
 </metadata>
 <defs>
  <style type="text/css">*{stroke-linejoin: round; stroke-linecap: butt}</style>
 </defs>
 <g id="figure_1">
  <g id="patch_1">
   <path d="M 0 723.390382 
L 857.7625 723.390382 
L 857.7625 0 
L 0 0 
L 0 723.390382 
z
" style="fill: none"/>
  </g>
  <g id="axes_1">
   <g id="patch_2">
    <path d="M 69.3625 562.806391 
L 850.5625 562.806391 
L 850.5625 8.406391 
L 69.3625 8.406391 
L 69.3625 562.806391 
z
" style="fill: none"/>
   </g>
   <g id="matplotlib.axis_1">
    <g id="xtick_1">
     <g id="text_1">
      <!-- MSA -->
      <g style="fill: #262626" transform="translate(104.788986 611.671532) rotate(-45) scale(0.2 -0.2)">
       <defs>
        <path id="DejaVuSans-4d" d="M 628 4666 
L 1569 4666 
L 2759 1491 
L 3956 4666 
L 4897 4666 
L 4897 0 
L 4281 0 
L 4281 4097 
L 3078 897 
L 2444 897 
L 1241 4097 
L 1241 0 
L 628 0 
L 628 4666 
z
" transform="scale(0.015625)"/>
        <path id="DejaVuSans-53" d="M 3425 4513 
L 3425 3897 
Q 3066 4069 2747 4153 
Q 2428 4238 2131 4238 
Q 1616 4238 1336 4038 
Q 1056 3838 1056 3469 
Q 1056 3159 1242 3001 
Q 1428 2844 1947 2747 
L 2328 2669 
Q 3034 2534 3370 2195 
Q 3706 1856 3706 1288 
Q 3706 609 3251 259 
Q 2797 -91 1919 -91 
Q 1588 -91 1214 -16 
Q 841 59 441 206 
L 441 856 
Q 825 641 1194 531 
Q 1563 422 1919 422 
Q 2459 422 2753 634 
Q 3047 847 3047 1241 
Q 3047 1584 2836 1778 
Q 2625 1972 2144 2069 
L 1759 2144 
Q 1053 2284 737 2584 
Q 422 2884 422 3419 
Q 422 4038 858 4394 
Q 1294 4750 2059 4750 
Q 2388 4750 2728 4690 
Q 3069 4631 3425 4513 
z
" transform="scale(0.015625)"/>
        <path id="DejaVuSans-41" d="M 2188 4044 
L 1331 1722 
L 3047 1722 
L 2188 4044 
z
M 1831 4666 
L 2547 4666 
L 4325 0 
L 3669 0 
L 3244 1197 
L 1141 1197 
L 716 0 
L 50 0 
L 1831 4666 
z
" transform="scale(0.015625)"/>
       </defs>
       <use xlink:href="#DejaVuSans-4d"/>
       <use xlink:href="#DejaVuSans-53" x="86.279297"/>
       <use xlink:href="#DejaVuSans-41" x="151.630859"/>
      </g>
     </g>
    </g>
    <g id="xtick_2">
     <g id="text_2">
      <!-- Template -->
      <g style="fill: #262626" transform="translate(182.97819 645.082327) rotate(-45) scale(0.2 -0.2)">
       <defs>
        <path id="DejaVuSans-54" d="M -19 4666 
L 3928 4666 
L 3928 4134 
L 2272 4134 
L 2272 0 
L 1638 0 
L 1638 4134 
L -19 4134 
L -19 4666 
z
" transform="scale(0.015625)"/>
        <path id="DejaVuSans-65" d="M 3597 1894 
L 3597 1613 
L 953 1613 
Q 991 1019 1311 708 
Q 1631 397 2203 397 
Q 2534 397 2845 478 
Q 3156 559 3463 722 
L 3463 178 
Q 3153 47 2828 -22 
Q 2503 -91 2169 -91 
Q 1331 -91 842 396 
Q 353 884 353 1716 
Q 353 2575 817 3079 
Q 1281 3584 2069 3584 
Q 2775 3584 3186 3129 
Q 3597 2675 3597 1894 
z
M 3022 2063 
Q 3016 2534 2758 2815 
Q 2500 3097 2075 3097 
Q 1594 3097 1305 2825 
Q 1016 2553 972 2059 
L 3022 2063 
z
" transform="scale(0.015625)"/>
        <path id="DejaVuSans-6d" d="M 3328 2828 
Q 3544 3216 3844 3400 
Q 4144 3584 4550 3584 
Q 5097 3584 5394 3201 
Q 5691 2819 5691 2113 
L 5691 0 
L 5113 0 
L 5113 2094 
Q 5113 2597 4934 2840 
Q 4756 3084 4391 3084 
Q 3944 3084 3684 2787 
Q 3425 2491 3425 1978 
L 3425 0 
L 2847 0 
L 2847 2094 
Q 2847 2600 2669 2842 
Q 2491 3084 2119 3084 
Q 1678 3084 1418 2786 
Q 1159 2488 1159 1978 
L 1159 0 
L 581 0 
L 581 3500 
L 1159 3500 
L 1159 2956 
Q 1356 3278 1631 3431 
Q 1906 3584 2284 3584 
Q 2666 3584 2933 3390 
Q 3200 3197 3328 2828 
z
" transform="scale(0.015625)"/>
        <path id="DejaVuSans-70" d="M 1159 525 
L 1159 -1331 
L 581 -1331 
L 581 3500 
L 1159 3500 
L 1159 2969 
Q 1341 3281 1617 3432 
Q 1894 3584 2278 3584 
Q 2916 3584 3314 3078 
Q 3713 2572 3713 1747 
Q 3713 922 3314 415 
Q 2916 -91 2278 -91 
Q 1894 -91 1617 61 
Q 1341 213 1159 525 
z
M 3116 1747 
Q 3116 2381 2855 2742 
Q 2594 3103 2138 3103 
Q 1681 3103 1420 2742 
Q 1159 2381 1159 1747 
Q 1159 1113 1420 752 
Q 1681 391 2138 391 
Q 2594 391 2855 752 
Q 3116 1113 3116 1747 
z
" transform="scale(0.015625)"/>
        <path id="DejaVuSans-6c" d="M 603 4863 
L 1178 4863 
L 1178 0 
L 603 0 
L 603 4863 
z
" transform="scale(0.015625)"/>
        <path id="DejaVuSans-61" d="M 2194 1759 
Q 1497 1759 1228 1600 
Q 959 1441 959 1056 
Q 959 750 1161 570 
Q 1363 391 1709 391 
Q 2188 391 2477 730 
Q 2766 1069 2766 1631 
L 2766 1759 
L 2194 1759 
z
M 3341 1997 
L 3341 0 
L 2766 0 
L 2766 531 
Q 2569 213 2275 61 
Q 1981 -91 1556 -91 
Q 1019 -91 701 211 
Q 384 513 384 1019 
Q 384 1609 779 1909 
Q 1175 2209 1959 2209 
L 2766 2209 
L 2766 2266 
Q 2766 2663 2505 2880 
Q 2244 3097 1772 3097 
Q 1472 3097 1187 3025 
Q 903 2953 641 2809 
L 641 3341 
Q 956 3463 1253 3523 
Q 1550 3584 1831 3584 
Q 2591 3584 2966 3190 
Q 3341 2797 3341 1997 
z
" transform="scale(0.015625)"/>
        <path id="DejaVuSans-74" d="M 1172 4494 
L 1172 3500 
L 2356 3500 
L 2356 3053 
L 1172 3053 
L 1172 1153 
Q 1172 725 1289 603 
Q 1406 481 1766 481 
L 2356 481 
L 2356 0 
L 1766 0 
Q 1100 0 847 248 
Q 594 497 594 1153 
L 594 3053 
L 172 3053 
L 172 3500 
L 594 3500 
L 594 4494 
L 1172 4494 
z
" transform="scale(0.015625)"/>
       </defs>
       <use xlink:href="#DejaVuSans-54"/>
       <use xlink:href="#DejaVuSans-65" x="44.083984"/>
       <use xlink:href="#DejaVuSans-6d" x="105.607422"/>
       <use xlink:href="#DejaVuSans-70" x="203.019531"/>
       <use xlink:href="#DejaVuSans-6c" x="266.496094"/>
       <use xlink:href="#DejaVuSans-61" x="294.279297"/>
       <use xlink:href="#DejaVuSans-74" x="355.558594"/>
       <use xlink:href="#DejaVuSans-65" x="394.767578"/>
      </g>
     </g>
    </g>
    <g id="xtick_3">
     <g id="text_3">
      <!-- Backbone -->
      <g style="fill: #262626" transform="translate(289.478183 650.182335) rotate(-45) scale(0.2 -0.2)">
       <defs>
        <path id="DejaVuSans-42" d="M 1259 2228 
L 1259 519 
L 2272 519 
Q 2781 519 3026 730 
Q 3272 941 3272 1375 
Q 3272 1813 3026 2020 
Q 2781 2228 2272 2228 
L 1259 2228 
z
M 1259 4147 
L 1259 2741 
L 2194 2741 
Q 2656 2741 2882 2914 
Q 3109 3088 3109 3444 
Q 3109 3797 2882 3972 
Q 2656 4147 2194 4147 
L 1259 4147 
z
M 628 4666 
L 2241 4666 
Q 2963 4666 3353 4366 
Q 3744 4066 3744 3513 
Q 3744 3084 3544 2831 
Q 3344 2578 2956 2516 
Q 3422 2416 3680 2098 
Q 3938 1781 3938 1306 
Q 3938 681 3513 340 
Q 3088 0 2303 0 
L 628 0 
L 628 4666 
z
" transform="scale(0.015625)"/>
        <path id="DejaVuSans-63" d="M 3122 3366 
L 3122 2828 
Q 2878 2963 2633 3030 
Q 2388 3097 2138 3097 
Q 1578 3097 1268 2742 
Q 959 2388 959 1747 
Q 959 1106 1268 751 
Q 1578 397 2138 397 
Q 2388 397 2633 464 
Q 2878 531 3122 666 
L 3122 134 
Q 2881 22 2623 -34 
Q 2366 -91 2075 -91 
Q 1284 -91 818 406 
Q 353 903 353 1747 
Q 353 2603 823 3093 
Q 1294 3584 2113 3584 
Q 2378 3584 2631 3529 
Q 2884 3475 3122 3366 
z
" transform="scale(0.015625)"/>
        <path id="DejaVuSans-6b" d="M 581 4863 
L 1159 4863 
L 1159 1991 
L 2875 3500 
L 3609 3500 
L 1753 1863 
L 3688 0 
L 2938 0 
L 1159 1709 
L 1159 0 
L 581 0 
L 581 4863 
z
" transform="scale(0.015625)"/>
        <path id="DejaVuSans-62" d="M 3116 1747 
Q 3116 2381 2855 2742 
Q 2594 3103 2138 3103 
Q 1681 3103 1420 2742 
Q 1159 2381 1159 1747 
Q 1159 1113 1420 752 
Q 1681 391 2138 391 
Q 2594 391 2855 752 
Q 3116 1113 3116 1747 
z
M 1159 2969 
Q 1341 3281 1617 3432 
Q 1894 3584 2278 3584 
Q 2916 3584 3314 3078 
Q 3713 2572 3713 1747 
Q 3713 922 3314 415 
Q 2916 -91 2278 -91 
Q 1894 -91 1617 61 
Q 1341 213 1159 525 
L 1159 0 
L 581 0 
L 581 4863 
L 1159 4863 
L 1159 2969 
z
" transform="scale(0.015625)"/>
        <path id="DejaVuSans-6f" d="M 1959 3097 
Q 1497 3097 1228 2736 
Q 959 2375 959 1747 
Q 959 1119 1226 758 
Q 1494 397 1959 397 
Q 2419 397 2687 759 
Q 2956 1122 2956 1747 
Q 2956 2369 2687 2733 
Q 2419 3097 1959 3097 
z
M 1959 3584 
Q 2709 3584 3137 3096 
Q 3566 2609 3566 1747 
Q 3566 888 3137 398 
Q 2709 -91 1959 -91 
Q 1206 -91 779 398 
Q 353 888 353 1747 
Q 353 2609 779 3096 
Q 1206 3584 1959 3584 
z
" transform="scale(0.015625)"/>
        <path id="DejaVuSans-6e" d="M 3513 2113 
L 3513 0 
L 2938 0 
L 2938 2094 
Q 2938 2591 2744 2837 
Q 2550 3084 2163 3084 
Q 1697 3084 1428 2787 
Q 1159 2491 1159 1978 
L 1159 0 
L 581 0 
L 581 3500 
L 1159 3500 
L 1159 2956 
Q 1366 3272 1645 3428 
Q 1925 3584 2291 3584 
Q 2894 3584 3203 3211 
Q 3513 2838 3513 2113 
z
" transform="scale(0.015625)"/>
       </defs>
       <use xlink:href="#DejaVuSans-42"/>
       <use xlink:href="#DejaVuSans-61" x="68.603516"/>
       <use xlink:href="#DejaVuSans-63" x="129.882812"/>
       <use xlink:href="#DejaVuSans-6b" x="184.863281"/>
       <use xlink:href="#DejaVuSans-62" x="242.773438"/>
       <use xlink:href="#DejaVuSans-6f" x="306.25"/>
       <use xlink:href="#DejaVuSans-6e" x="367.431641"/>
       <use xlink:href="#DejaVuSans-65" x="430.810547"/>
      </g>
     </g>
    </g>
    <g id="xtick_4">
     <g id="text_4">
      <!-- Heuristic C-$\beta$ -->
      <g style="fill: #262626" transform="translate(379.63517 671.91261) rotate(-45) scale(0.2 -0.2)">
       <defs>
        <path id="DejaVuSans-48" d="M 628 4666 
L 1259 4666 
L 1259 2753 
L 3553 2753 
L 3553 4666 
L 4184 4666 
L 4184 0 
L 3553 0 
L 3553 2222 
L 1259 2222 
L 1259 0 
L 628 0 
L 628 4666 
z
" transform="scale(0.015625)"/>
        <path id="DejaVuSans-75" d="M 544 1381 
L 544 3500 
L 1119 3500 
L 1119 1403 
Q 1119 906 1312 657 
Q 1506 409 1894 409 
Q 2359 409 2629 706 
Q 2900 1003 2900 1516 
L 2900 3500 
L 3475 3500 
L 3475 0 
L 2900 0 
L 2900 538 
Q 2691 219 2414 64 
Q 2138 -91 1772 -91 
Q 1169 -91 856 284 
Q 544 659 544 1381 
z
M 1991 3584 
L 1991 3584 
z
" transform="scale(0.015625)"/>
        <path id="DejaVuSans-72" d="M 2631 2963 
Q 2534 3019 2420 3045 
Q 2306 3072 2169 3072 
Q 1681 3072 1420 2755 
Q 1159 2438 1159 1844 
L 1159 0 
L 581 0 
L 581 3500 
L 1159 3500 
L 1159 2956 
Q 1341 3275 1631 3429 
Q 1922 3584 2338 3584 
Q 2397 3584 2469 3576 
Q 2541 3569 2628 3553 
L 2631 2963 
z
" transform="scale(0.015625)"/>
        <path id="DejaVuSans-69" d="M 603 3500 
L 1178 3500 
L 1178 0 
L 603 0 
L 603 3500 
z
M 603 4863 
L 1178 4863 
L 1178 4134 
L 603 4134 
L 603 4863 
z
" transform="scale(0.015625)"/>
        <path id="DejaVuSans-73" d="M 2834 3397 
L 2834 2853 
Q 2591 2978 2328 3040 
Q 2066 3103 1784 3103 
Q 1356 3103 1142 2972 
Q 928 2841 928 2578 
Q 928 2378 1081 2264 
Q 1234 2150 1697 2047 
L 1894 2003 
Q 2506 1872 2764 1633 
Q 3022 1394 3022 966 
Q 3022 478 2636 193 
Q 2250 -91 1575 -91 
Q 1294 -91 989 -36 
Q 684 19 347 128 
L 347 722 
Q 666 556 975 473 
Q 1284 391 1588 391 
Q 1994 391 2212 530 
Q 2431 669 2431 922 
Q 2431 1156 2273 1281 
Q 2116 1406 1581 1522 
L 1381 1569 
Q 847 1681 609 1914 
Q 372 2147 372 2553 
Q 372 3047 722 3315 
Q 1072 3584 1716 3584 
Q 2034 3584 2315 3537 
Q 2597 3491 2834 3397 
z
" transform="scale(0.015625)"/>
        <path id="DejaVuSans-20" transform="scale(0.015625)"/>
        <path id="DejaVuSans-43" d="M 4122 4306 
L 4122 3641 
Q 3803 3938 3442 4084 
Q 3081 4231 2675 4231 
Q 1875 4231 1450 3742 
Q 1025 3253 1025 2328 
Q 1025 1406 1450 917 
Q 1875 428 2675 428 
Q 3081 428 3442 575 
Q 3803 722 4122 1019 
L 4122 359 
Q 3791 134 3420 21 
Q 3050 -91 2638 -91 
Q 1578 -91 968 557 
Q 359 1206 359 2328 
Q 359 3453 968 4101 
Q 1578 4750 2638 4750 
Q 3056 4750 3426 4639 
Q 3797 4528 4122 4306 
z
" transform="scale(0.015625)"/>
        <path id="DejaVuSans-2d" d="M 313 2009 
L 1997 2009 
L 1997 1497 
L 313 1497 
L 313 2009 
z
" transform="scale(0.015625)"/>
        <path id="DejaVuSans-Oblique-3b2" d="M 872 216 
L 572 -1331 
L -6 -1331 
L 928 3478 
Q 1206 4903 2538 4903 
Q 3888 4903 3659 3700 
Q 3503 2844 2894 2531 
Q 3713 2250 3553 1416 
Q 3272 -69 1759 -66 
Q 1097 -63 872 216 
z
M 1019 966 
Q 1259 422 1875 425 
Q 2775 425 2966 1406 
Q 3138 2288 1675 2219 
L 1778 2750 
Q 2909 2731 3106 3750 
Q 3241 4438 2509 4434 
Q 1691 4434 1503 3459 
L 1019 966 
z
" transform="scale(0.015625)"/>
       </defs>
       <use xlink:href="#DejaVuSans-48" transform="translate(0 0.390625)"/>
       <use xlink:href="#DejaVuSans-65" transform="translate(75.195312 0.390625)"/>
       <use xlink:href="#DejaVuSans-75" transform="translate(136.71875 0.390625)"/>
       <use xlink:href="#DejaVuSans-72" transform="translate(200.097656 0.390625)"/>
       <use xlink:href="#DejaVuSans-69" transform="translate(241.210938 0.390625)"/>
       <use xlink:href="#DejaVuSans-73" transform="translate(268.994141 0.390625)"/>
       <use xlink:href="#DejaVuSans-74" transform="translate(321.09375 0.390625)"/>
       <use xlink:href="#DejaVuSans-69" transform="translate(360.302734 0.390625)"/>
       <use xlink:href="#DejaVuSans-63" transform="translate(388.085938 0.390625)"/>
       <use xlink:href="#DejaVuSans-20" transform="translate(443.066406 0.390625)"/>
       <use xlink:href="#DejaVuSans-43" transform="translate(474.853516 0.390625)"/>
       <use xlink:href="#DejaVuSans-2d" transform="translate(544.677734 0.390625)"/>
       <use xlink:href="#DejaVuSans-Oblique-3b2" transform="translate(580.761719 0.390625)"/>
      </g>
     </g>
    </g>
    <g id="xtick_5">
     <g id="text_5">
      <!-- Template C-$\beta$ -->
      <g style="fill: #262626" transform="translate(486.992529 676.155251) rotate(-45) scale(0.2 -0.2)">
       <use xlink:href="#DejaVuSans-54" transform="translate(0 0.390625)"/>
       <use xlink:href="#DejaVuSans-65" transform="translate(61.083984 0.390625)"/>
       <use xlink:href="#DejaVuSans-6d" transform="translate(122.607422 0.390625)"/>
       <use xlink:href="#DejaVuSans-70" transform="translate(220.019531 0.390625)"/>
       <use xlink:href="#DejaVuSans-6c" transform="translate(283.496094 0.390625)"/>
       <use xlink:href="#DejaVuSans-61" transform="translate(311.279297 0.390625)"/>
       <use xlink:href="#DejaVuSans-74" transform="translate(372.558594 0.390625)"/>
       <use xlink:href="#DejaVuSans-65" transform="translate(411.767578 0.390625)"/>
       <use xlink:href="#DejaVuSans-20" transform="translate(473.291016 0.390625)"/>
       <use xlink:href="#DejaVuSans-43" transform="translate(505.078125 0.390625)"/>
       <use xlink:href="#DejaVuSans-2d" transform="translate(574.902344 0.390625)"/>
       <use xlink:href="#DejaVuSans-Oblique-3b2" transform="translate(610.986328 0.390625)"/>
      </g>
     </g>
    </g>
    <g id="xtick_6">
     <g id="text_6">
      <!-- AttnPacker -->
      <g style="fill: #262626" transform="translate(617.905383 656.555135) rotate(-45) scale(0.2 -0.2)">
       <defs>
        <path id="DejaVuSans-50" d="M 1259 4147 
L 1259 2394 
L 2053 2394 
Q 2494 2394 2734 2622 
Q 2975 2850 2975 3272 
Q 2975 3691 2734 3919 
Q 2494 4147 2053 4147 
L 1259 4147 
z
M 628 4666 
L 2053 4666 
Q 2838 4666 3239 4311 
Q 3641 3956 3641 3272 
Q 3641 2581 3239 2228 
Q 2838 1875 2053 1875 
L 1259 1875 
L 1259 0 
L 628 0 
L 628 4666 
z
" transform="scale(0.015625)"/>
       </defs>
       <use xlink:href="#DejaVuSans-41"/>
       <use xlink:href="#DejaVuSans-74" x="66.658203"/>
       <use xlink:href="#DejaVuSans-74" x="105.867188"/>
       <use xlink:href="#DejaVuSans-6e" x="145.076172"/>
       <use xlink:href="#DejaVuSans-50" x="208.455078"/>
       <use xlink:href="#DejaVuSans-61" x="264.257812"/>
       <use xlink:href="#DejaVuSans-63" x="325.537109"/>
       <use xlink:href="#DejaVuSans-6b" x="380.517578"/>
       <use xlink:href="#DejaVuSans-65" x="434.802734"/>
       <use xlink:href="#DejaVuSans-72" x="496.326172"/>
      </g>
     </g>
    </g>
    <g id="xtick_7">
     <g id="text_7">
      <!-- AttnPacker (AF) -->
      <g style="fill: #262626" transform="translate(696.167508 689.89301) rotate(-45) scale(0.2 -0.2)">
       <defs>
        <path id="DejaVuSans-28" d="M 1984 4856 
Q 1566 4138 1362 3434 
Q 1159 2731 1159 2009 
Q 1159 1288 1364 580 
Q 1569 -128 1984 -844 
L 1484 -844 
Q 1016 -109 783 600 
Q 550 1309 550 2009 
Q 550 2706 781 3412 
Q 1013 4119 1484 4856 
L 1984 4856 
z
" transform="scale(0.015625)"/>
        <path id="DejaVuSans-46" d="M 628 4666 
L 3309 4666 
L 3309 4134 
L 1259 4134 
L 1259 2759 
L 3109 2759 
L 3109 2228 
L 1259 2228 
L 1259 0 
L 628 0 
L 628 4666 
z
" transform="scale(0.015625)"/>
        <path id="DejaVuSans-29" d="M 513 4856 
L 1013 4856 
Q 1481 4119 1714 3412 
Q 1947 2706 1947 2009 
Q 1947 1309 1714 600 
Q 1481 -109 1013 -844 
L 513 -844 
Q 928 -128 1133 580 
Q 1338 1288 1338 2009 
Q 1338 2731 1133 3434 
Q 928 4138 513 4856 
z
" transform="scale(0.015625)"/>
       </defs>
       <use xlink:href="#DejaVuSans-41"/>
       <use xlink:href="#DejaVuSans-74" x="66.658203"/>
       <use xlink:href="#DejaVuSans-74" x="105.867188"/>
       <use xlink:href="#DejaVuSans-6e" x="145.076172"/>
       <use xlink:href="#DejaVuSans-50" x="208.455078"/>
       <use xlink:href="#DejaVuSans-61" x="264.257812"/>
       <use xlink:href="#DejaVuSans-63" x="325.537109"/>
       <use xlink:href="#DejaVuSans-6b" x="380.517578"/>
       <use xlink:href="#DejaVuSans-65" x="434.802734"/>
       <use xlink:href="#DejaVuSans-72" x="496.326172"/>
       <use xlink:href="#DejaVuSans-20" x="537.439453"/>
       <use xlink:href="#DejaVuSans-28" x="569.226562"/>
       <use xlink:href="#DejaVuSans-41" x="608.240234"/>
       <use xlink:href="#DejaVuSans-46" x="676.648438"/>
       <use xlink:href="#DejaVuSans-29" x="734.167969"/>
      </g>
     </g>
    </g>
    <g id="text_8">
     <!-- Method -->
     <g style="fill: #262626" transform="translate(422.45625 712.031007) scale(0.2 -0.2)">
      <defs>
       <path id="DejaVuSans-68" d="M 3513 2113 
L 3513 0 
L 2938 0 
L 2938 2094 
Q 2938 2591 2744 2837 
Q 2550 3084 2163 3084 
Q 1697 3084 1428 2787 
Q 1159 2491 1159 1978 
L 1159 0 
L 581 0 
L 581 4863 
L 1159 4863 
L 1159 2956 
Q 1366 3272 1645 3428 
Q 1925 3584 2291 3584 
Q 2894 3584 3203 3211 
Q 3513 2838 3513 2113 
z
" transform="scale(0.015625)"/>
       <path id="DejaVuSans-64" d="M 2906 2969 
L 2906 4863 
L 3481 4863 
L 3481 0 
L 2906 0 
L 2906 525 
Q 2725 213 2448 61 
Q 2172 -91 1784 -91 
Q 1150 -91 751 415 
Q 353 922 353 1747 
Q 353 2572 751 3078 
Q 1150 3584 1784 3584 
Q 2172 3584 2448 3432 
Q 2725 3281 2906 2969 
z
M 947 1747 
Q 947 1113 1208 752 
Q 1469 391 1925 391 
Q 2381 391 2643 752 
Q 2906 1113 2906 1747 
Q 2906 2381 2643 2742 
Q 2381 3103 1925 3103 
Q 1469 3103 1208 2742 
Q 947 2381 947 1747 
z
" transform="scale(0.015625)"/>
      </defs>
      <use xlink:href="#DejaVuSans-4d"/>
      <use xlink:href="#DejaVuSans-65" x="86.279297"/>
      <use xlink:href="#DejaVuSans-74" x="147.802734"/>
      <use xlink:href="#DejaVuSans-68" x="187.011719"/>
      <use xlink:href="#DejaVuSans-6f" x="250.390625"/>
      <use xlink:href="#DejaVuSans-64" x="311.572266"/>
     </g>
    </g>
   </g>
   <g id="matplotlib.axis_2">
    <g id="ytick_1">
     <g id="line2d_1">
      <path d="M 69.3625 526.129745 
L 850.5625 526.129745 
" clip-path="url(#pe04a1edaca)" style="fill: none; stroke: #cccccc; stroke-width: 0.8; stroke-linecap: round"/>
     </g>
     <g id="text_9">
      <!-- 0.0 -->
      <g style="fill: #262626" transform="translate(30.55625 533.728183) scale(0.2 -0.2)">
       <defs>
        <path id="DejaVuSans-30" d="M 2034 4250 
Q 1547 4250 1301 3770 
Q 1056 3291 1056 2328 
Q 1056 1369 1301 889 
Q 1547 409 2034 409 
Q 2525 409 2770 889 
Q 3016 1369 3016 2328 
Q 3016 3291 2770 3770 
Q 2525 4250 2034 4250 
z
M 2034 4750 
Q 2819 4750 3233 4129 
Q 3647 3509 3647 2328 
Q 3647 1150 3233 529 
Q 2819 -91 2034 -91 
Q 1250 -91 836 529 
Q 422 1150 422 2328 
Q 422 3509 836 4129 
Q 1250 4750 2034 4750 
z
" transform="scale(0.015625)"/>
        <path id="DejaVuSans-2e" d="M 684 794 
L 1344 794 
L 1344 0 
L 684 0 
L 684 794 
z
" transform="scale(0.015625)"/>
       </defs>
       <use xlink:href="#DejaVuSans-30"/>
       <use xlink:href="#DejaVuSans-2e" x="63.623047"/>
       <use xlink:href="#DejaVuSans-30" x="95.410156"/>
      </g>
     </g>
    </g>
    <g id="ytick_2">
     <g id="line2d_2">
      <path d="M 69.3625 440.907861 
L 850.5625 440.907861 
" clip-path="url(#pe04a1edaca)" style="fill: none; stroke: #cccccc; stroke-width: 0.8; stroke-linecap: round"/>
     </g>
     <g id="text_10">
      <!-- 0.2 -->
      <g style="fill: #262626" transform="translate(30.55625 448.506298) scale(0.2 -0.2)">
       <defs>
        <path id="DejaVuSans-32" d="M 1228 531 
L 3431 531 
L 3431 0 
L 469 0 
L 469 531 
Q 828 903 1448 1529 
Q 2069 2156 2228 2338 
Q 2531 2678 2651 2914 
Q 2772 3150 2772 3378 
Q 2772 3750 2511 3984 
Q 2250 4219 1831 4219 
Q 1534 4219 1204 4116 
Q 875 4013 500 3803 
L 500 4441 
Q 881 4594 1212 4672 
Q 1544 4750 1819 4750 
Q 2544 4750 2975 4387 
Q 3406 4025 3406 3419 
Q 3406 3131 3298 2873 
Q 3191 2616 2906 2266 
Q 2828 2175 2409 1742 
Q 1991 1309 1228 531 
z
" transform="scale(0.015625)"/>
       </defs>
       <use xlink:href="#DejaVuSans-30"/>
       <use xlink:href="#DejaVuSans-2e" x="63.623047"/>
       <use xlink:href="#DejaVuSans-32" x="95.410156"/>
      </g>
     </g>
    </g>
    <g id="ytick_3">
     <g id="line2d_3">
      <path d="M 69.3625 355.685976 
L 850.5625 355.685976 
" clip-path="url(#pe04a1edaca)" style="fill: none; stroke: #cccccc; stroke-width: 0.8; stroke-linecap: round"/>
     </g>
     <g id="text_11">
      <!-- 0.4 -->
      <g style="fill: #262626" transform="translate(30.55625 363.284413) scale(0.2 -0.2)">
       <defs>
        <path id="DejaVuSans-34" d="M 2419 4116 
L 825 1625 
L 2419 1625 
L 2419 4116 
z
M 2253 4666 
L 3047 4666 
L 3047 1625 
L 3713 1625 
L 3713 1100 
L 3047 1100 
L 3047 0 
L 2419 0 
L 2419 1100 
L 313 1100 
L 313 1709 
L 2253 4666 
z
" transform="scale(0.015625)"/>
       </defs>
       <use xlink:href="#DejaVuSans-30"/>
       <use xlink:href="#DejaVuSans-2e" x="63.623047"/>
       <use xlink:href="#DejaVuSans-34" x="95.410156"/>
      </g>
     </g>
    </g>
    <g id="ytick_4">
     <g id="line2d_4">
      <path d="M 69.3625 270.464091 
L 850.5625 270.464091 
" clip-path="url(#pe04a1edaca)" style="fill: none; stroke: #cccccc; stroke-width: 0.8; stroke-linecap: round"/>
     </g>
     <g id="text_12">
      <!-- 0.6 -->
      <g style="fill: #262626" transform="translate(30.55625 278.062529) scale(0.2 -0.2)">
       <defs>
        <path id="DejaVuSans-36" d="M 2113 2584 
Q 1688 2584 1439 2293 
Q 1191 2003 1191 1497 
Q 1191 994 1439 701 
Q 1688 409 2113 409 
Q 2538 409 2786 701 
Q 3034 994 3034 1497 
Q 3034 2003 2786 2293 
Q 2538 2584 2113 2584 
z
M 3366 4563 
L 3366 3988 
Q 3128 4100 2886 4159 
Q 2644 4219 2406 4219 
Q 1781 4219 1451 3797 
Q 1122 3375 1075 2522 
Q 1259 2794 1537 2939 
Q 1816 3084 2150 3084 
Q 2853 3084 3261 2657 
Q 3669 2231 3669 1497 
Q 3669 778 3244 343 
Q 2819 -91 2113 -91 
Q 1303 -91 875 529 
Q 447 1150 447 2328 
Q 447 3434 972 4092 
Q 1497 4750 2381 4750 
Q 2619 4750 2861 4703 
Q 3103 4656 3366 4563 
z
" transform="scale(0.015625)"/>
       </defs>
       <use xlink:href="#DejaVuSans-30"/>
       <use xlink:href="#DejaVuSans-2e" x="63.623047"/>
       <use xlink:href="#DejaVuSans-36" x="95.410156"/>
      </g>
     </g>
    </g>
    <g id="ytick_5">
     <g id="line2d_5">
      <path d="M 69.3625 185.242207 
L 850.5625 185.242207 
" clip-path="url(#pe04a1edaca)" style="fill: none; stroke: #cccccc; stroke-width: 0.8; stroke-linecap: round"/>
     </g>
     <g id="text_13">
      <!-- 0.8 -->
      <g style="fill: #262626" transform="translate(30.55625 192.840644) scale(0.2 -0.2)">
       <defs>
        <path id="DejaVuSans-38" d="M 2034 2216 
Q 1584 2216 1326 1975 
Q 1069 1734 1069 1313 
Q 1069 891 1326 650 
Q 1584 409 2034 409 
Q 2484 409 2743 651 
Q 3003 894 3003 1313 
Q 3003 1734 2745 1975 
Q 2488 2216 2034 2216 
z
M 1403 2484 
Q 997 2584 770 2862 
Q 544 3141 544 3541 
Q 544 4100 942 4425 
Q 1341 4750 2034 4750 
Q 2731 4750 3128 4425 
Q 3525 4100 3525 3541 
Q 3525 3141 3298 2862 
Q 3072 2584 2669 2484 
Q 3125 2378 3379 2068 
Q 3634 1759 3634 1313 
Q 3634 634 3220 271 
Q 2806 -91 2034 -91 
Q 1263 -91 848 271 
Q 434 634 434 1313 
Q 434 1759 690 2068 
Q 947 2378 1403 2484 
z
M 1172 3481 
Q 1172 3119 1398 2916 
Q 1625 2713 2034 2713 
Q 2441 2713 2670 2916 
Q 2900 3119 2900 3481 
Q 2900 3844 2670 4047 
Q 2441 4250 2034 4250 
Q 1625 4250 1398 4047 
Q 1172 3844 1172 3481 
z
" transform="scale(0.015625)"/>
       </defs>
       <use xlink:href="#DejaVuSans-30"/>
       <use xlink:href="#DejaVuSans-2e" x="63.623047"/>
       <use xlink:href="#DejaVuSans-38" x="95.410156"/>
      </g>
     </g>
    </g>
    <g id="ytick_6">
     <g id="line2d_6">
      <path d="M 69.3625 100.020322 
L 850.5625 100.020322 
" clip-path="url(#pe04a1edaca)" style="fill: none; stroke: #cccccc; stroke-width: 0.8; stroke-linecap: round"/>
     </g>
     <g id="text_14">
      <!-- 1.0 -->
      <g style="fill: #262626" transform="translate(30.55625 107.61876) scale(0.2 -0.2)">
       <defs>
        <path id="DejaVuSans-31" d="M 794 531 
L 1825 531 
L 1825 4091 
L 703 3866 
L 703 4441 
L 1819 4666 
L 2450 4666 
L 2450 531 
L 3481 531 
L 3481 0 
L 794 0 
L 794 531 
z
" transform="scale(0.015625)"/>
       </defs>
       <use xlink:href="#DejaVuSans-31"/>
       <use xlink:href="#DejaVuSans-2e" x="63.623047"/>
       <use xlink:href="#DejaVuSans-30" x="95.410156"/>
      </g>
     </g>
    </g>
    <g id="ytick_7">
     <g id="line2d_7">
      <path d="M 69.3625 14.798437 
L 850.5625 14.798437 
" clip-path="url(#pe04a1edaca)" style="fill: none; stroke: #cccccc; stroke-width: 0.8; stroke-linecap: round"/>
     </g>
     <g id="text_15">
      <!-- 1.2 -->
      <g style="fill: #262626" transform="translate(30.55625 22.396875) scale(0.2 -0.2)">
       <use xlink:href="#DejaVuSans-31"/>
       <use xlink:href="#DejaVuSans-2e" x="63.623047"/>
       <use xlink:href="#DejaVuSans-32" x="95.410156"/>
      </g>
     </g>
    </g>
    <g id="text_16">
     <!-- TM-score -->
     <g style="fill: #262626" transform="translate(22.396875 330.815766) rotate(-90) scale(0.2 -0.2)">
      <use xlink:href="#DejaVuSans-54"/>
      <use xlink:href="#DejaVuSans-4d" x="61.083984"/>
      <use xlink:href="#DejaVuSans-2d" x="147.363281"/>
      <use xlink:href="#DejaVuSans-73" x="183.447266"/>
      <use xlink:href="#DejaVuSans-63" x="235.546875"/>
      <use xlink:href="#DejaVuSans-6f" x="290.527344"/>
      <use xlink:href="#DejaVuSans-72" x="351.708984"/>
      <use xlink:href="#DejaVuSans-65" x="390.572266"/>
     </g>
    </g>
   </g>
   <g id="PolyCollection_1">
    <defs>
     <path id="m70d20c606b" d="M 125.528512 -265.079097 
L 124.796488 -265.079097 
L 124.686879 -269.369046 
L 124.55289 -273.658994 
L 124.391721 -277.948942 
L 124.200973 -282.238891 
L 123.978863 -286.528839 
L 123.724435 -290.818788 
L 123.437756 -295.108736 
L 123.120076 -299.398685 
L 122.773932 -303.688633 
L 122.403189 -307.978581 
L 122.01299 -312.26853 
L 121.609631 -316.558478 
L 121.200352 -320.848427 
L 120.79305 -325.138375 
L 120.395933 -329.428323 
L 120.017142 -333.718272 
L 119.664351 -338.00822 
L 119.344375 -342.298169 
L 119.062817 -346.588117 
L 118.823767 -350.878066 
L 118.629579 -355.168014 
L 118.480733 -359.457962 
L 118.375809 -363.747911 
L 118.311563 -368.037859 
L 118.283115 -372.327808 
L 118.284239 -376.617756 
L 118.307744 -380.907705 
L 118.345926 -385.197653 
L 118.391053 -389.487601 
L 118.435873 -393.77755 
L 118.474078 -398.067498 
L 118.500713 -402.357447 
L 118.512475 -406.647395 
L 118.507884 -410.937344 
L 118.48731 -415.227292 
L 118.452836 -419.51724 
L 118.407981 -423.807189 
L 118.357299 -428.097137 
L 118.305885 -432.387086 
L 118.258826 -436.677034 
L 118.220649 -440.966983 
L 118.1948 -445.256931 
L 118.183192 -449.546879 
L 118.185845 -453.836828 
L 118.200642 -458.126776 
L 118.223196 -462.416725 
L 118.246822 -466.706673 
L 118.262611 -470.996621 
L 118.259584 -475.28657 
L 118.224909 -479.576518 
L 118.144164 -483.866467 
L 118.001649 -488.156415 
L 117.78072 -492.446364 
L 117.464166 -496.736312 
L 117.034612 -501.02626 
L 116.474969 -505.316209 
L 115.768934 -509.606157 
L 114.901546 -513.896106 
L 113.859809 -518.186054 
L 112.633394 -522.476003 
L 111.215408 -526.765951 
L 109.603237 -531.055899 
L 107.799439 -535.345848 
L 105.812649 -539.635796 
L 103.65845 -543.925745 
L 101.360141 -548.215693 
L 98.949292 -552.505642 
L 96.466002 -556.79559 
L 93.958738 -561.085538 
L 91.483649 -565.375487 
L 89.10329 -569.665435 
L 86.884703 -573.955384 
L 84.896891 -578.245332 
L 83.207765 -582.53528 
L 81.880714 -586.825229 
L 80.971037 -591.115177 
L 80.5225 -595.405126 
L 80.564302 -599.695074 
L 81.108759 -603.985023 
L 82.149927 -608.274971 
L 83.663353 -612.564919 
L 85.607017 -616.854868 
L 87.923429 -621.144816 
L 90.54273 -625.434765 
L 93.386552 -629.724713 
L 96.372318 -634.014662 
L 99.417629 -638.30461 
L 102.444393 -642.594558 
L 105.382388 -646.884507 
L 108.172021 -651.174455 
L 110.766149 -655.464404 
L 113.130911 -659.754352 
L 115.24562 -664.044301 
L 117.101855 -668.334249 
L 118.701917 -672.624197 
L 120.056883 -676.914146 
L 121.184457 -681.204094 
L 122.10682 -685.494043 
L 122.848634 -689.783991 
L 127.476366 -689.783991 
L 127.476366 -689.783991 
L 128.21818 -685.494043 
L 129.140543 -681.204094 
L 130.268117 -676.914146 
L 131.623083 -672.624197 
L 133.223145 -668.334249 
L 135.07938 -664.044301 
L 137.194089 -659.754352 
L 139.558851 -655.464404 
L 142.152979 -651.174455 
L 144.942612 -646.884507 
L 147.880607 -642.594558 
L 150.907371 -638.30461 
L 153.952682 -634.014662 
L 156.938448 -629.724713 
L 159.78227 -625.434765 
L 162.401571 -621.144816 
L 164.717983 -616.854868 
L 166.661647 -612.564919 
L 168.175073 -608.274971 
L 169.216241 -603.985023 
L 169.760698 -599.695074 
L 169.8025 -595.405126 
L 169.353963 -591.115177 
L 168.444286 -586.825229 
L 167.117235 -582.53528 
L 165.428109 -578.245332 
L 163.440297 -573.955384 
L 161.22171 -569.665435 
L 158.841351 -565.375487 
L 156.366262 -561.085538 
L 153.858998 -556.79559 
L 151.375708 -552.505642 
L 148.964859 -548.215693 
L 146.66655 -543.925745 
L 144.512351 -539.635796 
L 142.525561 -535.345848 
L 140.721763 -531.055899 
L 139.109592 -526.765951 
L 137.691606 -522.476003 
L 136.465191 -518.186054 
L 135.423454 -513.896106 
L 134.556066 -509.606157 
L 133.850031 -505.316209 
L 133.290388 -501.02626 
L 132.860834 -496.736312 
L 132.54428 -492.446364 
L 132.323351 -488.156415 
L 132.180836 -483.866467 
L 132.100091 -479.576518 
L 132.065416 -475.28657 
L 132.062389 -470.996621 
L 132.078178 -466.706673 
L 132.101804 -462.416725 
L 132.124358 -458.126776 
L 132.139155 -453.836828 
L 132.141808 -449.546879 
L 132.1302 -445.256931 
L 132.104351 -440.966983 
L 132.066174 -436.677034 
L 132.019115 -432.387086 
L 131.967701 -428.097137 
L 131.917019 -423.807189 
L 131.872164 -419.51724 
L 131.83769 -415.227292 
L 131.817116 -410.937344 
L 131.812525 -406.647395 
L 131.824287 -402.357447 
L 131.850922 -398.067498 
L 131.889127 -393.77755 
L 131.933947 -389.487601 
L 131.979074 -385.197653 
L 132.017256 -380.907705 
L 132.040761 -376.617756 
L 132.041885 -372.327808 
L 132.013437 -368.037859 
L 131.949191 -363.747911 
L 131.844267 -359.457962 
L 131.695421 -355.168014 
L 131.501233 -350.878066 
L 131.262183 -346.588117 
L 130.980625 -342.298169 
L 130.660649 -338.00822 
L 130.307858 -333.718272 
L 129.929067 -329.428323 
L 129.53195 -325.138375 
L 129.124648 -320.848427 
L 128.715369 -316.558478 
L 128.31201 -312.26853 
L 127.921811 -307.978581 
L 127.551068 -303.688633 
L 127.204924 -299.398685 
L 126.887244 -295.108736 
L 126.600565 -290.818788 
L 126.346137 -286.528839 
L 126.124027 -282.238891 
L 125.933279 -277.948942 
L 125.77211 -273.658994 
L 125.638121 -269.369046 
L 125.528512 -265.079097 
z
" style="stroke: #3d3d3d; stroke-opacity: 0.5"/>
    </defs>
    <g clip-path="url(#pe04a1edaca)">
     <use xlink:href="#m70d20c606b" x="0" y="723.390382" style="fill: #3274a1; fill-opacity: 0.5; stroke: #3d3d3d; stroke-opacity: 0.5"/>
    </g>
   </g>
   <g id="PolyCollection_2">
    <defs>
     <path id="m87e5320fd8" d="M 236.854701 -534.204632 
L 236.670299 -534.204632 
L 236.632777 -535.217109 
L 236.585674 -536.229587 
L 236.52896 -537.242064 
L 236.463599 -538.254542 
L 236.391701 -539.267019 
L 236.316499 -540.279497 
L 236.242109 -541.291974 
L 236.173067 -542.304452 
L 236.113694 -543.31693 
L 236.067391 -544.329407 
L 236.036008 -545.341885 
L 236.019415 -546.354362 
L 236.015414 -547.36684 
L 236.020015 -548.379317 
L 236.028063 -549.391795 
L 236.034082 -550.404272 
L 236.033196 -551.41675 
L 236.021913 -552.429228 
L 235.998642 -553.441705 
L 235.963843 -554.454183 
L 235.919815 -555.46666 
L 235.8702 -556.479138 
L 235.819351 -557.491615 
L 235.771702 -558.504093 
L 235.731274 -559.51657 
L 235.701384 -560.529048 
L 235.684547 -561.541526 
L 235.682509 -562.554003 
L 235.69633 -563.566481 
L 235.726422 -564.578958 
L 235.772524 -565.591436 
L 235.833609 -566.603913 
L 235.907788 -567.616391 
L 235.992279 -568.628868 
L 236.083492 -569.641346 
L 236.177246 -570.653824 
L 236.269096 -571.666301 
L 236.354694 -572.678779 
L 236.430114 -573.691256 
L 236.492085 -574.703734 
L 236.538099 -575.716211 
L 236.566408 -576.728689 
L 236.575958 -577.741166 
L 236.56631 -578.753644 
L 236.537589 -579.766122 
L 236.490492 -580.778599 
L 236.42632 -581.791077 
L 236.347007 -582.803554 
L 236.255091 -583.816032 
L 236.15358 -584.828509 
L 236.045707 -585.840987 
L 235.934617 -586.853464 
L 235.823029 -587.865942 
L 235.712979 -588.87842 
L 235.605688 -589.890897 
L 235.501601 -590.903375 
L 235.400552 -591.915852 
L 235.301989 -592.92833 
L 235.205141 -593.940807 
L 235.109049 -594.953285 
L 235.012377 -595.965762 
L 234.913017 -596.97824 
L 234.807504 -597.990718 
L 234.690298 -599.003195 
L 234.55296 -600.015673 
L 234.383208 -601.02815 
L 234.163794 -602.040628 
L 233.871184 -603.053105 
L 233.474067 -604.065583 
L 232.93195 -605.07806 
L 232.194285 -606.090538 
L 231.200859 -607.103015 
L 229.884284 -608.115493 
L 228.175406 -609.127971 
L 226.012073 -610.140448 
L 223.351087 -611.152926 
L 220.182224 -612.165403 
L 216.542264 -613.177881 
L 212.52614 -614.190358 
L 208.292012 -615.202836 
L 204.057458 -616.215313 
L 200.085218 -617.227791 
L 196.65886 -618.240269 
L 194.051003 -619.252746 
L 192.488783 -620.265224 
L 192.1225 -621.277701 
L 193.003346 -622.290179 
L 195.074693 -623.302656 
L 198.17887 -624.315134 
L 202.078268 -625.327611 
L 206.486779 -626.340089 
L 211.105701 -627.352567 
L 215.657804 -628.365044 
L 219.914191 -629.377522 
L 223.710609 -630.389999 
L 226.952345 -631.402477 
L 229.609069 -632.414954 
L 231.702572 -633.427432 
L 233.290938 -634.439909 
L 240.234062 -634.439909 
L 240.234062 -634.439909 
L 241.822428 -633.427432 
L 243.915931 -632.414954 
L 246.572655 -631.402477 
L 249.814391 -630.389999 
L 253.610809 -629.377522 
L 257.867196 -628.365044 
L 262.419299 -627.352567 
L 267.038221 -626.340089 
L 271.446732 -625.327611 
L 275.34613 -624.315134 
L 278.450307 -623.302656 
L 280.521654 -622.290179 
L 281.4025 -621.277701 
L 281.036217 -620.265224 
L 279.473997 -619.252746 
L 276.86614 -618.240269 
L 273.439782 -617.227791 
L 269.467542 -616.215313 
L 265.232988 -615.202836 
L 260.99886 -614.190358 
L 256.982736 -613.177881 
L 253.342776 -612.165403 
L 250.173913 -611.152926 
L 247.512927 -610.140448 
L 245.349594 -609.127971 
L 243.640716 -608.115493 
L 242.324141 -607.103015 
L 241.330715 -606.090538 
L 240.59305 -605.07806 
L 240.050933 -604.065583 
L 239.653816 -603.053105 
L 239.361206 -602.040628 
L 239.141792 -601.02815 
L 238.97204 -600.015673 
L 238.834702 -599.003195 
L 238.717496 -597.990718 
L 238.611983 -596.97824 
L 238.512623 -595.965762 
L 238.415951 -594.953285 
L 238.319859 -593.940807 
L 238.223011 -592.92833 
L 238.124448 -591.915852 
L 238.023399 -590.903375 
L 237.919312 -589.890897 
L 237.812021 -588.87842 
L 237.701971 -587.865942 
L 237.590383 -586.853464 
L 237.479293 -585.840987 
L 237.37142 -584.828509 
L 237.269909 -583.816032 
L 237.177993 -582.803554 
L 237.09868 -581.791077 
L 237.034508 -580.778599 
L 236.987411 -579.766122 
L 236.95869 -578.753644 
L 236.949042 -577.741166 
L 236.958592 -576.728689 
L 236.986901 -575.716211 
L 237.032915 -574.703734 
L 237.094886 -573.691256 
L 237.170306 -572.678779 
L 237.255904 -571.666301 
L 237.347754 -570.653824 
L 237.441508 -569.641346 
L 237.532721 -568.628868 
L 237.617212 -567.616391 
L 237.691391 -566.603913 
L 237.752476 -565.591436 
L 237.798578 -564.578958 
L 237.82867 -563.566481 
L 237.842491 -562.554003 
L 237.840453 -561.541526 
L 237.823616 -560.529048 
L 237.793726 -559.51657 
L 237.753298 -558.504093 
L 237.705649 -557.491615 
L 237.6548 -556.479138 
L 237.605185 -555.46666 
L 237.561157 -554.454183 
L 237.526358 -553.441705 
L 237.503087 -552.429228 
L 237.491804 -551.41675 
L 237.490918 -550.404272 
L 237.496937 -549.391795 
L 237.504985 -548.379317 
L 237.509586 -547.36684 
L 237.505585 -546.354362 
L 237.488992 -545.341885 
L 237.457609 -544.329407 
L 237.411306 -543.31693 
L 237.351933 -542.304452 
L 237.282891 -541.291974 
L 237.208501 -540.279497 
L 237.133299 -539.267019 
L 237.061401 -538.254542 
L 236.99604 -537.242064 
L 236.939326 -536.229587 
L 236.892223 -535.217109 
L 236.854701 -534.204632 
z
" style="stroke: #3d3d3d; stroke-opacity: 0.5"/>
    </defs>
    <g clip-path="url(#pe04a1edaca)">
     <use xlink:href="#m87e5320fd8" x="0" y="723.390382" style="fill: #d684bd; fill-opacity: 0.5; stroke: #3d3d3d; stroke-opacity: 0.5"/>
    </g>
   </g>
   <g id="PolyCollection_3">
    <defs>
     <path id="mefd2e57a16" d="M 349.225174 -185.783991 
L 347.499826 -185.783991 
L 347.173754 -190.651106 
L 346.748779 -195.51822 
L 346.204116 -200.385335 
L 345.517678 -205.25245 
L 344.666982 -210.119565 
L 343.630348 -214.986679 
L 342.38834 -219.853794 
L 340.92541 -224.720909 
L 339.231617 -229.588023 
L 337.304325 -234.455138 
L 335.149697 -239.322253 
L 332.783847 -244.189367 
L 330.233486 -249.056482 
L 327.535925 -253.923597 
L 324.738362 -258.790711 
L 321.896399 -263.657826 
L 319.071839 -268.524941 
L 316.329872 -273.392056 
L 313.735821 -278.25917 
L 311.351678 -283.126285 
L 309.232719 -287.9934 
L 307.424464 -292.860514 
L 305.960254 -297.727629 
L 304.859655 -302.594744 
L 304.127832 -307.461858 
L 303.755946 -312.328973 
L 303.7225 -317.196088 
L 303.995506 -322.063202 
L 304.535235 -326.930317 
L 305.297265 -331.797432 
L 306.235543 -336.664547 
L 307.305174 -341.531661 
L 308.464718 -346.398776 
L 309.677852 -351.265891 
L 310.914336 -356.133005 
L 312.150328 -361.00012 
L 313.368149 -365.867235 
L 314.555671 -370.734349 
L 315.705499 -375.601464 
L 316.814122 -380.468579 
L 317.881157 -385.335693 
L 318.908751 -390.202808 
L 319.90114 -395.069923 
L 320.864328 -399.937037 
L 321.805775 -404.804152 
L 322.734009 -409.671267 
L 323.65808 -414.538382 
L 324.586818 -419.405496 
L 325.527917 -424.272611 
L 326.486921 -429.139726 
L 327.466241 -434.00684 
L 328.464353 -438.873955 
L 329.475321 -443.74107 
L 330.488761 -448.608184 
L 331.490301 -453.475299 
L 332.462527 -458.342414 
L 333.386336 -463.209528 
L 334.242549 -468.076643 
L 335.01361 -472.943758 
L 335.685185 -477.810873 
L 336.247477 -482.677987 
L 336.696132 -487.545102 
L 337.032659 -492.412217 
L 337.26433 -497.279331 
L 337.403623 -502.146446 
L 337.467281 -507.013561 
L 337.475106 -511.880675 
L 337.448625 -516.74779 
L 337.409748 -521.614905 
L 337.37953 -526.482019 
L 337.377105 -531.349134 
L 337.418857 -536.216249 
L 337.517832 -541.083364 
L 337.683399 -545.950478 
L 337.921131 -550.817593 
L 338.232879 -555.684708 
L 338.617008 -560.551822 
L 339.06875 -565.418937 
L 339.580661 -570.286052 
L 340.143137 -575.153166 
L 340.744981 -580.020281 
L 341.373982 -584.887396 
L 342.017501 -589.75451 
L 342.663021 -594.621625 
L 343.298665 -599.48874 
L 343.913632 -604.355855 
L 344.498565 -609.222969 
L 345.045804 -614.090084 
L 345.549548 -618.957199 
L 346.005903 -623.824313 
L 346.412832 -628.691428 
L 346.770015 -633.558543 
L 347.078641 -638.425657 
L 347.341146 -643.292772 
L 347.560926 -648.159887 
L 347.742041 -653.027001 
L 347.888933 -657.894116 
L 348.006174 -662.761231 
L 348.09825 -667.628345 
L 348.62675 -667.628345 
L 348.62675 -667.628345 
L 348.718826 -662.761231 
L 348.836067 -657.894116 
L 348.982959 -653.027001 
L 349.164074 -648.159887 
L 349.383854 -643.292772 
L 349.646359 -638.425657 
L 349.954985 -633.558543 
L 350.312168 -628.691428 
L 350.719097 -623.824313 
L 351.175452 -618.957199 
L 351.679196 -614.090084 
L 352.226435 -609.222969 
L 352.811368 -604.355855 
L 353.426335 -599.48874 
L 354.061979 -594.621625 
L 354.707499 -589.75451 
L 355.351018 -584.887396 
L 355.980019 -580.020281 
L 356.581863 -575.153166 
L 357.144339 -570.286052 
L 357.65625 -565.418937 
L 358.107992 -560.551822 
L 358.492121 -555.684708 
L 358.803869 -550.817593 
L 359.041601 -545.950478 
L 359.207168 -541.083364 
L 359.306143 -536.216249 
L 359.347895 -531.349134 
L 359.34547 -526.482019 
L 359.315252 -521.614905 
L 359.276375 -516.74779 
L 359.249894 -511.880675 
L 359.257719 -507.013561 
L 359.321377 -502.146446 
L 359.46067 -497.279331 
L 359.692341 -492.412217 
L 360.028868 -487.545102 
L 360.477523 -482.677987 
L 361.039815 -477.810873 
L 361.71139 -472.943758 
L 362.482451 -468.076643 
L 363.338664 -463.209528 
L 364.262473 -458.342414 
L 365.234699 -453.475299 
L 366.236239 -448.608184 
L 367.249679 -443.74107 
L 368.260647 -438.873955 
L 369.258759 -434.00684 
L 370.238079 -429.139726 
L 371.197083 -424.272611 
L 372.138182 -419.405496 
L 373.06692 -414.538382 
L 373.990991 -409.671267 
L 374.919225 -404.804152 
L 375.860672 -399.937037 
L 376.82386 -395.069923 
L 377.816249 -390.202808 
L 378.843843 -385.335693 
L 379.910878 -380.468579 
L 381.019501 -375.601464 
L 382.169329 -370.734349 
L 383.356851 -365.867235 
L 384.574672 -361.00012 
L 385.810664 -356.133005 
L 387.047148 -351.265891 
L 388.260282 -346.398776 
L 389.419826 -341.531661 
L 390.489457 -336.664547 
L 391.427735 -331.797432 
L 392.189765 -326.930317 
L 392.729494 -322.063202 
L 393.0025 -317.196088 
L 392.969054 -312.328973 
L 392.597168 -307.461858 
L 391.865345 -302.594744 
L 390.764746 -297.727629 
L 389.300536 -292.860514 
L 387.492281 -287.9934 
L 385.373322 -283.126285 
L 382.989179 -278.25917 
L 380.395128 -273.392056 
L 377.653161 -268.524941 
L 374.828601 -263.657826 
L 371.986638 -258.790711 
L 369.189075 -253.923597 
L 366.491514 -249.056482 
L 363.941153 -244.189367 
L 361.575303 -239.322253 
L 359.420675 -234.455138 
L 357.493383 -229.588023 
L 355.79959 -224.720909 
L 354.33666 -219.853794 
L 353.094652 -214.986679 
L 352.058018 -210.119565 
L 351.207322 -205.25245 
L 350.520884 -200.385335 
L 349.976221 -195.51822 
L 349.551246 -190.651106 
L 349.225174 -185.783991 
z
" style="stroke: #3d3d3d; stroke-opacity: 0.5"/>
    </defs>
    <g clip-path="url(#pe04a1edaca)">
     <use xlink:href="#mefd2e57a16" x="0" y="723.390382" style="fill: #c03d3e; fill-opacity: 0.5; stroke: #3d3d3d; stroke-opacity: 0.5"/>
    </g>
   </g>
   <g id="PolyCollection_4">
    <defs>
     <path id="mfbe310b3e1" d="M 460.049558 -306.516806 
L 459.875442 -306.516806 
L 459.832234 -310.048922 
L 459.776214 -313.581037 
L 459.7079 -317.113153 
L 459.629943 -320.645268 
L 459.547352 -324.177384 
L 459.467198 -327.709499 
L 459.397738 -331.241615 
L 459.347053 -334.77373 
L 459.321518 -338.305846 
L 459.324484 -341.837961 
L 459.355554 -345.370076 
L 459.410667 -348.902192 
L 459.48296 -352.434307 
L 459.564157 -355.966423 
L 459.646076 -359.498538 
L 459.721877 -363.030654 
L 459.786773 -366.562769 
L 459.838142 -370.094885 
L 459.875124 -373.627 
L 459.897936 -377.159116 
L 459.907132 -380.691231 
L 459.90304 -384.223347 
L 459.885506 -387.755462 
L 459.85401 -391.287578 
L 459.808124 -394.819693 
L 459.748208 -398.351809 
L 459.67614 -401.883924 
L 459.595859 -405.41604 
L 459.513469 -408.948155 
L 459.436761 -412.48027 
L 459.374146 -416.012386 
L 459.333209 -419.544501 
L 459.319222 -423.076617 
L 459.334041 -426.608732 
L 459.375706 -430.140848 
L 459.438872 -433.672963 
L 459.515929 -437.205079 
L 459.598512 -440.737194 
L 459.678961 -444.26931 
L 459.75141 -447.801425 
L 459.812306 -451.333541 
L 459.860367 -454.865656 
L 459.896124 -458.397772 
L 459.921273 -461.929887 
L 459.938027 -465.462003 
L 459.948616 -468.994118 
L 459.954972 -472.526233 
L 459.958599 -476.058349 
L 459.960567 -479.590464 
L 459.961583 -483.12258 
L 459.962079 -486.654695 
L 459.9623 -490.186811 
L 459.96237 -493.718926 
L 459.962327 -497.251042 
L 459.962138 -500.783157 
L 459.961677 -504.315273 
L 459.960667 -507.847388 
L 459.958575 -511.379504 
L 459.954442 -514.911619 
L 459.946646 -518.443735 
L 459.932607 -521.97585 
L 459.908475 -525.507966 
L 459.868896 -529.040081 
L 459.806997 -532.572197 
L 459.714733 -536.104312 
L 459.583745 -539.636427 
L 459.406722 -543.168543 
L 459.179055 -546.700658 
L 458.900319 -550.232774 
L 458.574815 -553.764889 
L 458.21033 -557.297005 
L 457.814381 -560.82912 
L 457.387679 -564.361236 
L 456.915334 -567.893351 
L 456.357279 -571.425467 
L 455.640374 -574.957582 
L 454.655413 -578.489698 
L 453.262409 -582.021813 
L 451.306938 -585.553929 
L 448.648497 -589.086044 
L 445.198804 -592.61816 
L 440.963965 -596.150275 
L 436.080544 -599.68239 
L 430.833286 -603.214506 
L 425.643456 -606.746621 
L 421.022385 -610.278737 
L 417.494226 -613.810852 
L 415.502475 -617.342968 
L 415.3225 -620.875083 
L 417.003506 -624.407199 
L 420.356616 -627.939314 
L 424.992906 -631.47143 
L 430.400748 -635.003545 
L 436.041144 -638.535661 
L 441.436472 -642.067776 
L 446.232905 -645.599892 
L 450.226956 -649.132007 
L 453.357909 -652.664123 
L 455.676251 -656.196238 
L 464.248749 -656.196238 
L 464.248749 -656.196238 
L 466.567091 -652.664123 
L 469.698044 -649.132007 
L 473.692095 -645.599892 
L 478.488528 -642.067776 
L 483.883856 -638.535661 
L 489.524252 -635.003545 
L 494.932094 -631.47143 
L 499.568384 -627.939314 
L 502.921494 -624.407199 
L 504.6025 -620.875083 
L 504.422525 -617.342968 
L 502.430774 -613.810852 
L 498.902615 -610.278737 
L 494.281544 -606.746621 
L 489.091714 -603.214506 
L 483.844456 -599.68239 
L 478.961035 -596.150275 
L 474.726196 -592.61816 
L 471.276503 -589.086044 
L 468.618062 -585.553929 
L 466.662591 -582.021813 
L 465.269587 -578.489698 
L 464.284626 -574.957582 
L 463.567721 -571.425467 
L 463.009666 -567.893351 
L 462.537321 -564.361236 
L 462.110619 -560.82912 
L 461.71467 -557.297005 
L 461.350185 -553.764889 
L 461.024681 -550.232774 
L 460.745945 -546.700658 
L 460.518278 -543.168543 
L 460.341255 -539.636427 
L 460.210267 -536.104312 
L 460.118003 -532.572197 
L 460.056104 -529.040081 
L 460.016525 -525.507966 
L 459.992393 -521.97585 
L 459.978354 -518.443735 
L 459.970558 -514.911619 
L 459.966425 -511.379504 
L 459.964333 -507.847388 
L 459.963323 -504.315273 
L 459.962862 -500.783157 
L 459.962673 -497.251042 
L 459.96263 -493.718926 
L 459.9627 -490.186811 
L 459.962921 -486.654695 
L 459.963417 -483.12258 
L 459.964433 -479.590464 
L 459.966401 -476.058349 
L 459.970028 -472.526233 
L 459.976384 -468.994118 
L 459.986973 -465.462003 
L 460.003727 -461.929887 
L 460.028876 -458.397772 
L 460.064633 -454.865656 
L 460.112694 -451.333541 
L 460.17359 -447.801425 
L 460.246039 -444.26931 
L 460.326488 -440.737194 
L 460.409071 -437.205079 
L 460.486128 -433.672963 
L 460.549294 -430.140848 
L 460.590959 -426.608732 
L 460.605778 -423.076617 
L 460.591791 -419.544501 
L 460.550854 -416.012386 
L 460.488239 -412.48027 
L 460.411531 -408.948155 
L 460.329141 -405.41604 
L 460.24886 -401.883924 
L 460.176792 -398.351809 
L 460.116876 -394.819693 
L 460.07099 -391.287578 
L 460.039494 -387.755462 
L 460.02196 -384.223347 
L 460.017868 -380.691231 
L 460.027064 -377.159116 
L 460.049876 -373.627 
L 460.086858 -370.094885 
L 460.138227 -366.562769 
L 460.203123 -363.030654 
L 460.278924 -359.498538 
L 460.360843 -355.966423 
L 460.44204 -352.434307 
L 460.514333 -348.902192 
L 460.569446 -345.370076 
L 460.600516 -341.837961 
L 460.603482 -338.305846 
L 460.577947 -334.77373 
L 460.527262 -331.241615 
L 460.457802 -327.709499 
L 460.377648 -324.177384 
L 460.295057 -320.645268 
L 460.2171 -317.113153 
L 460.148786 -313.581037 
L 460.092766 -310.048922 
L 460.049558 -306.516806 
z
" style="stroke: #3d3d3d; stroke-opacity: 0.5"/>
    </defs>
    <g clip-path="url(#pe04a1edaca)">
     <use xlink:href="#mfbe310b3e1" x="0" y="723.390382" style="fill: #9372b2; fill-opacity: 0.5; stroke: #3d3d3d; stroke-opacity: 0.5"/>
    </g>
   </g>
   <g id="PolyCollection_5">
    <defs>
     <path id="m3c115d2589" d="M 571.652682 -390.685917 
L 571.472318 -390.685917 
L 571.42267 -393.254749 
L 571.357132 -395.823581 
L 571.276796 -398.392413 
L 571.18601 -400.961245 
L 571.092559 -403.530077 
L 571.006872 -406.098908 
L 570.940233 -408.66774 
L 570.902381 -411.236572 
L 570.899185 -413.805404 
L 570.931152 -416.374236 
L 570.993293 -418.943068 
L 571.076402 -421.5119 
L 571.169285 -424.080732 
L 571.261208 -426.649564 
L 571.343826 -429.218396 
L 571.412165 -431.787228 
L 571.464602 -434.35606 
L 571.502114 -436.924892 
L 571.527218 -439.493724 
L 571.542973 -442.062555 
L 571.552264 -444.631387 
L 571.557417 -447.200219 
L 571.560109 -449.769051 
L 571.561435 -452.337883 
L 571.56205 -454.906715 
L 571.56232 -457.475547 
L 571.562432 -460.044379 
L 571.562476 -462.613211 
L 571.562492 -465.182043 
L 571.562497 -467.750875 
L 571.562499 -470.319707 
L 571.5625 -472.888539 
L 571.5625 -475.45737 
L 571.5625 -478.026202 
L 571.5625 -480.595034 
L 571.5625 -483.163866 
L 571.5625 -485.732698 
L 571.5625 -488.30153 
L 571.562499 -490.870362 
L 571.562496 -493.439194 
L 571.562488 -496.008026 
L 571.562466 -498.576858 
L 571.562407 -501.14569 
L 571.562258 -503.714522 
L 571.561903 -506.283354 
L 571.561104 -508.852186 
L 571.559407 -511.421017 
L 571.556003 -513.989849 
L 571.549552 -516.558681 
L 571.538018 -519.127513 
L 571.518555 -521.696345 
L 571.487574 -524.265177 
L 571.441072 -526.834009 
L 571.375271 -529.402841 
L 571.287531 -531.971673 
L 571.177331 -534.540505 
L 571.047026 -537.109337 
L 570.902063 -539.678169 
L 570.750471 -542.247001 
L 570.601665 -544.815832 
L 570.464846 -547.384664 
L 570.347448 -549.953496 
L 570.254028 -552.522328 
L 570.185829 -555.09116 
L 570.140957 -557.659992 
L 570.114933 -560.228824 
L 570.101283 -562.797656 
L 570.091922 -565.366488 
L 570.077248 -567.93532 
L 570.045985 -570.504152 
L 569.984838 -573.072984 
L 569.877805 -575.641816 
L 569.704751 -578.210647 
L 569.438583 -580.779479 
L 569.040531 -583.348311 
L 568.453699 -585.917143 
L 567.596324 -588.485975 
L 566.357831 -591.054807 
L 564.602239 -593.623639 
L 562.183879 -596.192471 
L 558.978719 -598.761303 
L 554.930155 -601.330135 
L 550.101267 -603.898967 
L 544.718233 -606.467799 
L 539.18548 -609.036631 
L 534.05586 -611.605463 
L 529.950567 -614.174294 
L 527.441063 -616.743126 
L 526.9225 -619.311958 
L 528.516645 -621.88079 
L 532.0366 -624.449622 
L 537.026414 -627.018454 
L 542.863538 -629.587286 
L 548.891624 -632.156118 
L 554.543997 -634.72495 
L 559.426 -637.293782 
L 563.342482 -639.862614 
L 566.276061 -642.431446 
L 568.33489 -645.000278 
L 574.79011 -645.000278 
L 574.79011 -645.000278 
L 576.848939 -642.431446 
L 579.782518 -639.862614 
L 583.699 -637.293782 
L 588.581003 -634.72495 
L 594.233376 -632.156118 
L 600.261462 -629.587286 
L 606.098586 -627.018454 
L 611.0884 -624.449622 
L 614.608355 -621.88079 
L 616.2025 -619.311958 
L 615.683937 -616.743126 
L 613.174433 -614.174294 
L 609.06914 -611.605463 
L 603.93952 -609.036631 
L 598.406767 -606.467799 
L 593.023733 -603.898967 
L 588.194845 -601.330135 
L 584.146281 -598.761303 
L 580.941121 -596.192471 
L 578.522761 -593.623639 
L 576.767169 -591.054807 
L 575.528676 -588.485975 
L 574.671301 -585.917143 
L 574.084469 -583.348311 
L 573.686417 -580.779479 
L 573.420249 -578.210647 
L 573.247195 -575.641816 
L 573.140162 -573.072984 
L 573.079015 -570.504152 
L 573.047752 -567.93532 
L 573.033078 -565.366488 
L 573.023717 -562.797656 
L 573.010067 -560.228824 
L 572.984043 -557.659992 
L 572.939171 -555.09116 
L 572.870972 -552.522328 
L 572.777552 -549.953496 
L 572.660154 -547.384664 
L 572.523335 -544.815832 
L 572.374529 -542.247001 
L 572.222937 -539.678169 
L 572.077974 -537.109337 
L 571.947669 -534.540505 
L 571.837469 -531.971673 
L 571.749729 -529.402841 
L 571.683928 -526.834009 
L 571.637426 -524.265177 
L 571.606445 -521.696345 
L 571.586982 -519.127513 
L 571.575448 -516.558681 
L 571.568997 -513.989849 
L 571.565593 -511.421017 
L 571.563896 -508.852186 
L 571.563097 -506.283354 
L 571.562742 -503.714522 
L 571.562593 -501.14569 
L 571.562534 -498.576858 
L 571.562512 -496.008026 
L 571.562504 -493.439194 
L 571.562501 -490.870362 
L 571.5625 -488.30153 
L 571.5625 -485.732698 
L 571.5625 -483.163866 
L 571.5625 -480.595034 
L 571.5625 -478.026202 
L 571.5625 -475.45737 
L 571.5625 -472.888539 
L 571.562501 -470.319707 
L 571.562503 -467.750875 
L 571.562508 -465.182043 
L 571.562524 -462.613211 
L 571.562568 -460.044379 
L 571.56268 -457.475547 
L 571.56295 -454.906715 
L 571.563565 -452.337883 
L 571.564891 -449.769051 
L 571.567583 -447.200219 
L 571.572736 -444.631387 
L 571.582027 -442.062555 
L 571.597782 -439.493724 
L 571.622886 -436.924892 
L 571.660398 -434.35606 
L 571.712835 -431.787228 
L 571.781174 -429.218396 
L 571.863792 -426.649564 
L 571.955715 -424.080732 
L 572.048598 -421.5119 
L 572.131707 -418.943068 
L 572.193848 -416.374236 
L 572.225815 -413.805404 
L 572.222619 -411.236572 
L 572.184767 -408.66774 
L 572.118128 -406.098908 
L 572.032441 -403.530077 
L 571.93899 -400.961245 
L 571.848204 -398.392413 
L 571.767868 -395.823581 
L 571.70233 -393.254749 
L 571.652682 -390.685917 
z
" style="stroke: #3d3d3d; stroke-opacity: 0.5"/>
    </defs>
    <g clip-path="url(#pe04a1edaca)">
     <use xlink:href="#m3c115d2589" x="0" y="723.390382" style="fill: #845b53; fill-opacity: 0.5; stroke: #3d3d3d; stroke-opacity: 0.5"/>
    </g>
   </g>
   <g id="PolyCollection_6">
    <defs>
     <path id="m60c7e3c4d0" d="M 794.854534 -531.267707 
L 794.670466 -531.267707 
L 794.630875 -532.307135 
L 794.580769 -533.346563 
L 794.520273 -534.385991 
L 794.450814 -535.425419 
L 794.375312 -536.464846 
L 794.298153 -537.504274 
L 794.224851 -538.543702 
L 794.161437 -539.58313 
L 794.113616 -540.622558 
L 794.085873 -541.661985 
L 794.080675 -542.701413 
L 794.097956 -543.740841 
L 794.135004 -544.780269 
L 794.186748 -545.819697 
L 794.246408 -546.859124 
L 794.306361 -547.898552 
L 794.359063 -548.93798 
L 794.397892 -549.977408 
L 794.417804 -551.016836 
L 794.41576 -552.056263 
L 794.390916 -553.095691 
L 794.344593 -554.135119 
L 794.280038 -555.174547 
L 794.20201 -556.213975 
L 794.116221 -557.253402 
L 794.028689 -558.29283 
L 793.945111 -559.332258 
L 793.870335 -560.371686 
L 793.808058 -561.411114 
L 793.760767 -562.450542 
L 793.729909 -563.489969 
L 793.716199 -564.529397 
L 793.719915 -565.568825 
L 793.741069 -566.608253 
L 793.77939 -567.647681 
L 793.834121 -568.687108 
L 793.903747 -569.726536 
L 793.985771 -570.765964 
L 794.076661 -571.805392 
L 794.172018 -572.84482 
L 794.266945 -573.884247 
L 794.356522 -574.923675 
L 794.436259 -575.963103 
L 794.502443 -577.002531 
L 794.552296 -578.041959 
L 794.583992 -579.081386 
L 794.596564 -580.120814 
L 794.589818 -581.160242 
L 794.564299 -582.19967 
L 794.521353 -583.239098 
L 794.463246 -584.278525 
L 794.393254 -585.317953 
L 794.31561 -586.357381 
L 794.235231 -587.396809 
L 794.157165 -588.436237 
L 794.08582 -589.475664 
L 794.024104 -590.515092 
L 793.97266 -591.55452 
L 793.9294 -592.593948 
L 793.889468 -593.633376 
L 793.84568 -594.672803 
L 793.789327 -595.712231 
L 793.711128 -596.751659 
L 793.602041 -597.791087 
L 793.453635 -598.830515 
L 793.257806 -599.869942 
L 793.005696 -600.90937 
L 792.685862 -601.948798 
L 792.281841 -602.988226 
L 791.769422 -604.027654 
L 791.114078 -605.067081 
L 790.269163 -606.106509 
L 789.175682 -607.145937 
L 787.764539 -608.185365 
L 785.962175 -609.224793 
L 783.700209 -610.26422 
L 780.929044 -611.303648 
L 777.634351 -612.343076 
L 773.854069 -613.382504 
L 769.692359 -614.421932 
L 765.326362 -615.461359 
L 761.00188 -616.500787 
L 757.015761 -617.540215 
L 753.685372 -618.579643 
L 751.308825 -619.619071 
L 750.1225 -620.658498 
L 750.264066 -621.697926 
L 751.748845 -622.737354 
L 754.464948 -623.776782 
L 758.188606 -624.81621 
L 762.616674 -625.855638 
L 767.409566 -626.895065 
L 772.235997 -627.934493 
L 776.81126 -628.973921 
L 780.923047 -630.013349 
L 784.442238 -631.052777 
L 787.3196 -632.092204 
L 789.571954 -633.131632 
L 791.262651 -634.17106 
L 798.262349 -634.17106 
L 798.262349 -634.17106 
L 799.953046 -633.131632 
L 802.2054 -632.092204 
L 805.082762 -631.052777 
L 808.601953 -630.013349 
L 812.71374 -628.973921 
L 817.289003 -627.934493 
L 822.115434 -626.895065 
L 826.908326 -625.855638 
L 831.336394 -624.81621 
L 835.060052 -623.776782 
L 837.776155 -622.737354 
L 839.260934 -621.697926 
L 839.4025 -620.658498 
L 838.216175 -619.619071 
L 835.839628 -618.579643 
L 832.509239 -617.540215 
L 828.52312 -616.500787 
L 824.198638 -615.461359 
L 819.832641 -614.421932 
L 815.670931 -613.382504 
L 811.890649 -612.343076 
L 808.595956 -611.303648 
L 805.824791 -610.26422 
L 803.562825 -609.224793 
L 801.760461 -608.185365 
L 800.349318 -607.145937 
L 799.255837 -606.106509 
L 798.410922 -605.067081 
L 797.755578 -604.027654 
L 797.243159 -602.988226 
L 796.839138 -601.948798 
L 796.519304 -600.90937 
L 796.267194 -599.869942 
L 796.071365 -598.830515 
L 795.922959 -597.791087 
L 795.813872 -596.751659 
L 795.735673 -595.712231 
L 795.67932 -594.672803 
L 795.635532 -593.633376 
L 795.5956 -592.593948 
L 795.55234 -591.55452 
L 795.500896 -590.515092 
L 795.43918 -589.475664 
L 795.367835 -588.436237 
L 795.289769 -587.396809 
L 795.20939 -586.357381 
L 795.131746 -585.317953 
L 795.061754 -584.278525 
L 795.003647 -583.239098 
L 794.960701 -582.19967 
L 794.935182 -581.160242 
L 794.928436 -580.120814 
L 794.941008 -579.081386 
L 794.972704 -578.041959 
L 795.022557 -577.002531 
L 795.088741 -575.963103 
L 795.168478 -574.923675 
L 795.258055 -573.884247 
L 795.352982 -572.84482 
L 795.448339 -571.805392 
L 795.539229 -570.765964 
L 795.621253 -569.726536 
L 795.690879 -568.687108 
L 795.74561 -567.647681 
L 795.783931 -566.608253 
L 795.805085 -565.568825 
L 795.808801 -564.529397 
L 795.795091 -563.489969 
L 795.764233 -562.450542 
L 795.716942 -561.411114 
L 795.654665 -560.371686 
L 795.579889 -559.332258 
L 795.496311 -558.29283 
L 795.408779 -557.253402 
L 795.32299 -556.213975 
L 795.244962 -555.174547 
L 795.180407 -554.135119 
L 795.134084 -553.095691 
L 795.10924 -552.056263 
L 795.107196 -551.016836 
L 795.127108 -549.977408 
L 795.165937 -548.93798 
L 795.218639 -547.898552 
L 795.278592 -546.859124 
L 795.338252 -545.819697 
L 795.389996 -544.780269 
L 795.427044 -543.740841 
L 795.444325 -542.701413 
L 795.439127 -541.661985 
L 795.411384 -540.622558 
L 795.363563 -539.58313 
L 795.300149 -538.543702 
L 795.226847 -537.504274 
L 795.149688 -536.464846 
L 795.074186 -535.425419 
L 795.004727 -534.385991 
L 794.944231 -533.346563 
L 794.894125 -532.307135 
L 794.854534 -531.267707 
z
" style="stroke: #3d3d3d; stroke-opacity: 0.5"/>
    </defs>
    <g clip-path="url(#pe04a1edaca)">
     <use xlink:href="#m60c7e3c4d0" x="0" y="723.390382" style="fill: #3a923a; fill-opacity: 0.5; stroke: #3d3d3d; stroke-opacity: 0.5"/>
    </g>
   </g>
   <g id="line2d_8">
    <path d="M 125.1625 273.568008 
L 125.1625 103.067154 
" clip-path="url(#pe04a1edaca)" style="fill: none; stroke: #3d3d3d; stroke-width: 1.5; stroke-linecap: round"/>
   </g>
   <g id="line2d_9">
    <path d="M 125.1625 179.741462 
L 125.1625 114.444367 
" clip-path="url(#pe04a1edaca)" style="fill: none; stroke: #3d3d3d; stroke-width: 4.5; stroke-linecap: round"/>
   </g>
   <g id="line2d_10">
    <path d="M 125.1625 134.195372 
" clip-path="url(#pe04a1edaca)" style="fill: none; stroke: #3d3d3d; stroke-width: 1.5; stroke-linecap: round"/>
    <defs>
     <path id="m0021906d45" d="M 1.875 0 
L -1.875 -0 
" style="stroke: #ffffff; stroke-width: 0.9"/>
    </defs>
    <g clip-path="url(#pe04a1edaca)">
     <use xlink:href="#m0021906d45" x="125.1625" y="134.195372" style="fill: #ffffff; stroke: #ffffff; stroke-width: 0.9"/>
    </g>
   </g>
   <g id="line2d_11">
    <path d="M 236.7625 109.618188 
L 236.7625 100.295282 
" clip-path="url(#pe04a1edaca)" style="fill: none; stroke: #3d3d3d; stroke-width: 1.5; stroke-linecap: round"/>
   </g>
   <g id="line2d_12">
    <path d="M 236.7625 104.581332 
L 236.7625 101.087855 
" clip-path="url(#pe04a1edaca)" style="fill: none; stroke: #3d3d3d; stroke-width: 4.5; stroke-linecap: round"/>
   </g>
   <g id="line2d_13">
    <path d="M 236.7625 102.115589 
" clip-path="url(#pe04a1edaca)" style="fill: none; stroke: #3d3d3d; stroke-width: 1.5; stroke-linecap: round"/>
    <g clip-path="url(#pe04a1edaca)">
     <use xlink:href="#m0021906d45" x="236.7625" y="102.115589" style="fill: #ffffff; stroke: #ffffff; stroke-width: 0.9"/>
    </g>
   </g>
   <g id="line2d_14">
    <path d="M 348.3625 464.721423 
L 348.3625 128.647004 
" clip-path="url(#pe04a1edaca)" style="fill: none; stroke: #3d3d3d; stroke-width: 1.5; stroke-linecap: round"/>
   </g>
   <g id="line2d_15">
    <path d="M 348.3625 420.333972 
L 348.3625 295.917353 
" clip-path="url(#pe04a1edaca)" style="fill: none; stroke: #3d3d3d; stroke-width: 4.5; stroke-linecap: round"/>
   </g>
   <g id="line2d_16">
    <path d="M 348.3625 374.029174 
" clip-path="url(#pe04a1edaca)" style="fill: none; stroke: #3d3d3d; stroke-width: 1.5; stroke-linecap: round"/>
    <g clip-path="url(#pe04a1edaca)">
     <use xlink:href="#m0021906d45" x="348.3625" y="374.029174" style="fill: #ffffff; stroke: #ffffff; stroke-width: 0.9"/>
    </g>
   </g>
   <g id="line2d_17">
    <path d="M 459.9625 112.198559 
L 459.9625 100.387198 
" clip-path="url(#pe04a1edaca)" style="fill: none; stroke: #3d3d3d; stroke-width: 1.5; stroke-linecap: round"/>
   </g>
   <g id="line2d_18">
    <path d="M 459.9625 105.951452 
L 459.9625 101.471735 
" clip-path="url(#pe04a1edaca)" style="fill: none; stroke: #3d3d3d; stroke-width: 4.5; stroke-linecap: round"/>
   </g>
   <g id="line2d_19">
    <path d="M 459.9625 102.993665 
" clip-path="url(#pe04a1edaca)" style="fill: none; stroke: #3d3d3d; stroke-width: 1.5; stroke-linecap: round"/>
    <g clip-path="url(#pe04a1edaca)">
     <use xlink:href="#m0021906d45" x="459.9625" y="102.993665" style="fill: #ffffff; stroke: #ffffff; stroke-width: 0.9"/>
    </g>
   </g>
   <g id="line2d_20">
    <path d="M 571.5625 115.660066 
L 571.5625 100.453969 
" clip-path="url(#pe04a1edaca)" style="fill: none; stroke: #3d3d3d; stroke-width: 1.5; stroke-linecap: round"/>
   </g>
   <g id="line2d_21">
    <path d="M 571.5625 107.681805 
L 571.5625 102.319219 
" clip-path="url(#pe04a1edaca)" style="fill: none; stroke: #3d3d3d; stroke-width: 4.5; stroke-linecap: round"/>
   </g>
   <g id="line2d_22">
    <path d="M 571.5625 104.248331 
" clip-path="url(#pe04a1edaca)" style="fill: none; stroke: #3d3d3d; stroke-width: 1.5; stroke-linecap: round"/>
    <g clip-path="url(#pe04a1edaca)">
     <use xlink:href="#m0021906d45" x="571.5625" y="104.248331" style="fill: #ffffff; stroke: #ffffff; stroke-width: 0.9"/>
    </g>
   </g>
   <g id="line2d_23">
    <path d="M 638.5225 100.020322 
L 727.8025 100.020322 
" clip-path="url(#pe04a1edaca)" style="fill: none; stroke: #3d3d3d; stroke-linecap: round"/>
   </g>
   <g id="line2d_24">
    <path d="M 794.7625 109.457571 
L 794.7625 100.294291 
" clip-path="url(#pe04a1edaca)" style="fill: none; stroke: #3d3d3d; stroke-width: 1.5; stroke-linecap: round"/>
   </g>
   <g id="line2d_25">
    <path d="M 794.7625 104.597561 
L 794.7625 101.053263 
" clip-path="url(#pe04a1edaca)" style="fill: none; stroke: #3d3d3d; stroke-width: 4.5; stroke-linecap: round"/>
   </g>
   <g id="line2d_26">
    <path d="M 794.7625 102.048068 
" clip-path="url(#pe04a1edaca)" style="fill: none; stroke: #3d3d3d; stroke-width: 1.5; stroke-linecap: round"/>
    <g clip-path="url(#pe04a1edaca)">
     <use xlink:href="#m0021906d45" x="794.7625" y="102.048068" style="fill: #ffffff; stroke: #ffffff; stroke-width: 0.9"/>
    </g>
   </g>
   <g id="patch_3">
    <path d="M 69.3625 562.806391 
L 850.5625 562.806391 
" style="fill: none; stroke: #cccccc; stroke-width: 0.8; stroke-linejoin: miter; stroke-linecap: square"/>
   </g>
  </g>
 </g>
 <defs>
  <clipPath id="pe04a1edaca">
   <rect x="69.3625" y="8.406391" width="781.2" height="554.4"/>
  </clipPath>
 </defs>
</svg>
