<?xml version="1.0" encoding="utf-8" standalone="no"?>
<!DOCTYPE svg PUBLIC "-//W3C//DTD SVG 1.1//EN"
  "http://www.w3.org/Graphics/SVG/1.1/DTD/svg11.dtd">
<svg xmlns:xlink="http://www.w3.org/1999/xlink" width="870.4875pt" height="722.183991pt" viewBox="0 0 870.4875 722.183991" xmlns="http://www.w3.org/2000/svg" version="1.1">
 <metadata>
  <rdf:RDF xmlns:dc="http://purl.org/dc/elements/1.1/" xmlns:cc="http://creativecommons.org/ns#" xmlns:rdf="http://www.w3.org/1999/02/22-rdf-syntax-ns#">
   <cc:Work>
    <dc:type rdf:resource="http://purl.org/dc/dcmitype/StillImage"/>
    <dc:date>2024-03-17T20:48:21.909786</dc:date>
    <dc:format>image/svg+xml</dc:format>
    <dc:creator>
     <cc:Agent>
      <dc:title>Matplotlib v3.8.0, https://matplotlib.org/</dc:title>
     </cc:Agent>
    </dc:creator>
   </cc:Work>
  </rdf:RDF>
 </metadata>
 <defs>
  <style type="text/css">*{stroke-linejoin: round; stroke-linecap: butt}</style>
 </defs>
 <g id="figure_1">
  <g id="patch_1">
   <path d="M 0 722.183991 
L 870.4875 722.183991 
L 870.4875 0 
L 0 0 
L 0 722.183991 
z
" style="fill: none"/>
  </g>
  <g id="axes_1">
   <g id="patch_2">
    <path d="M 82.0875 561.6 
L 863.2875 561.6 
L 863.2875 7.2 
L 82.0875 7.2 
L 82.0875 561.6 
z
" style="fill: none"/>
   </g>
   <g id="matplotlib.axis_1">
    <g id="xtick_1">
     <g id="text_1">
      <!-- MSA -->
      <g style="fill: #262626" transform="translate(117.513986 610.465141) rotate(-45) scale(0.2 -0.2)">
       <defs>
        <path id="DejaVuSans-4d" d="M 628 4666 
L 1569 4666 
L 2759 1491 
L 3956 4666 
L 4897 4666 
L 4897 0 
L 4281 0 
L 4281 4097 
L 3078 897 
L 2444 897 
L 1241 4097 
L 1241 0 
L 628 0 
L 628 4666 
z
" transform="scale(0.015625)"/>
        <path id="DejaVuSans-53" d="M 3425 4513 
L 3425 3897 
Q 3066 4069 2747 4153 
Q 2428 4238 2131 4238 
Q 1616 4238 1336 4038 
Q 1056 3838 1056 3469 
Q 1056 3159 1242 3001 
Q 1428 2844 1947 2747 
L 2328 2669 
Q 3034 2534 3370 2195 
Q 3706 1856 3706 1288 
Q 3706 609 3251 259 
Q 2797 -91 1919 -91 
Q 1588 -91 1214 -16 
Q 841 59 441 206 
L 441 856 
Q 825 641 1194 531 
Q 1563 422 1919 422 
Q 2459 422 2753 634 
Q 3047 847 3047 1241 
Q 3047 1584 2836 1778 
Q 2625 1972 2144 2069 
L 1759 2144 
Q 1053 2284 737 2584 
Q 422 2884 422 3419 
Q 422 4038 858 4394 
Q 1294 4750 2059 4750 
Q 2388 4750 2728 4690 
Q 3069 4631 3425 4513 
z
" transform="scale(0.015625)"/>
        <path id="DejaVuSans-41" d="M 2188 4044 
L 1331 1722 
L 3047 1722 
L 2188 4044 
z
M 1831 4666 
L 2547 4666 
L 4325 0 
L 3669 0 
L 3244 1197 
L 1141 1197 
L 716 0 
L 50 0 
L 1831 4666 
z
" transform="scale(0.015625)"/>
       </defs>
       <use xlink:href="#DejaVuSans-4d"/>
       <use xlink:href="#DejaVuSans-53" x="86.279297"/>
       <use xlink:href="#DejaVuSans-41" x="151.630859"/>
      </g>
     </g>
    </g>
    <g id="xtick_2">
     <g id="text_2">
      <!-- Template -->
      <g style="fill: #262626" transform="translate(195.70319 643.875936) rotate(-45) scale(0.2 -0.2)">
       <defs>
        <path id="DejaVuSans-54" d="M -19 4666 
L 3928 4666 
L 3928 4134 
L 2272 4134 
L 2272 0 
L 1638 0 
L 1638 4134 
L -19 4134 
L -19 4666 
z
" transform="scale(0.015625)"/>
        <path id="DejaVuSans-65" d="M 3597 1894 
L 3597 1613 
L 953 1613 
Q 991 1019 1311 708 
Q 1631 397 2203 397 
Q 2534 397 2845 478 
Q 3156 559 3463 722 
L 3463 178 
Q 3153 47 2828 -22 
Q 2503 -91 2169 -91 
Q 1331 -91 842 396 
Q 353 884 353 1716 
Q 353 2575 817 3079 
Q 1281 3584 2069 3584 
Q 2775 3584 3186 3129 
Q 3597 2675 3597 1894 
z
M 3022 2063 
Q 3016 2534 2758 2815 
Q 2500 3097 2075 3097 
Q 1594 3097 1305 2825 
Q 1016 2553 972 2059 
L 3022 2063 
z
" transform="scale(0.015625)"/>
        <path id="DejaVuSans-6d" d="M 3328 2828 
Q 3544 3216 3844 3400 
Q 4144 3584 4550 3584 
Q 5097 3584 5394 3201 
Q 5691 2819 5691 2113 
L 5691 0 
L 5113 0 
L 5113 2094 
Q 5113 2597 4934 2840 
Q 4756 3084 4391 3084 
Q 3944 3084 3684 2787 
Q 3425 2491 3425 1978 
L 3425 0 
L 2847 0 
L 2847 2094 
Q 2847 2600 2669 2842 
Q 2491 3084 2119 3084 
Q 1678 3084 1418 2786 
Q 1159 2488 1159 1978 
L 1159 0 
L 581 0 
L 581 3500 
L 1159 3500 
L 1159 2956 
Q 1356 3278 1631 3431 
Q 1906 3584 2284 3584 
Q 2666 3584 2933 3390 
Q 3200 3197 3328 2828 
z
" transform="scale(0.015625)"/>
        <path id="DejaVuSans-70" d="M 1159 525 
L 1159 -1331 
L 581 -1331 
L 581 3500 
L 1159 3500 
L 1159 2969 
Q 1341 3281 1617 3432 
Q 1894 3584 2278 3584 
Q 2916 3584 3314 3078 
Q 3713 2572 3713 1747 
Q 3713 922 3314 415 
Q 2916 -91 2278 -91 
Q 1894 -91 1617 61 
Q 1341 213 1159 525 
z
M 3116 1747 
Q 3116 2381 2855 2742 
Q 2594 3103 2138 3103 
Q 1681 3103 1420 2742 
Q 1159 2381 1159 1747 
Q 1159 1113 1420 752 
Q 1681 391 2138 391 
Q 2594 391 2855 752 
Q 3116 1113 3116 1747 
z
" transform="scale(0.015625)"/>
        <path id="DejaVuSans-6c" d="M 603 4863 
L 1178 4863 
L 1178 0 
L 603 0 
L 603 4863 
z
" transform="scale(0.015625)"/>
        <path id="DejaVuSans-61" d="M 2194 1759 
Q 1497 1759 1228 1600 
Q 959 1441 959 1056 
Q 959 750 1161 570 
Q 1363 391 1709 391 
Q 2188 391 2477 730 
Q 2766 1069 2766 1631 
L 2766 1759 
L 2194 1759 
z
M 3341 1997 
L 3341 0 
L 2766 0 
L 2766 531 
Q 2569 213 2275 61 
Q 1981 -91 1556 -91 
Q 1019 -91 701 211 
Q 384 513 384 1019 
Q 384 1609 779 1909 
Q 1175 2209 1959 2209 
L 2766 2209 
L 2766 2266 
Q 2766 2663 2505 2880 
Q 2244 3097 1772 3097 
Q 1472 3097 1187 3025 
Q 903 2953 641 2809 
L 641 3341 
Q 956 3463 1253 3523 
Q 1550 3584 1831 3584 
Q 2591 3584 2966 3190 
Q 3341 2797 3341 1997 
z
" transform="scale(0.015625)"/>
        <path id="DejaVuSans-74" d="M 1172 4494 
L 1172 3500 
L 2356 3500 
L 2356 3053 
L 1172 3053 
L 1172 1153 
Q 1172 725 1289 603 
Q 1406 481 1766 481 
L 2356 481 
L 2356 0 
L 1766 0 
Q 1100 0 847 248 
Q 594 497 594 1153 
L 594 3053 
L 172 3053 
L 172 3500 
L 594 3500 
L 594 4494 
L 1172 4494 
z
" transform="scale(0.015625)"/>
       </defs>
       <use xlink:href="#DejaVuSans-54"/>
       <use xlink:href="#DejaVuSans-65" x="44.083984"/>
       <use xlink:href="#DejaVuSans-6d" x="105.607422"/>
       <use xlink:href="#DejaVuSans-70" x="203.019531"/>
       <use xlink:href="#DejaVuSans-6c" x="266.496094"/>
       <use xlink:href="#DejaVuSans-61" x="294.279297"/>
       <use xlink:href="#DejaVuSans-74" x="355.558594"/>
       <use xlink:href="#DejaVuSans-65" x="394.767578"/>
      </g>
     </g>
    </g>
    <g id="xtick_3">
     <g id="text_3">
      <!-- Backbone -->
      <g style="fill: #262626" transform="translate(302.203183 648.975944) rotate(-45) scale(0.2 -0.2)">
       <defs>
        <path id="DejaVuSans-42" d="M 1259 2228 
L 1259 519 
L 2272 519 
Q 2781 519 3026 730 
Q 3272 941 3272 1375 
Q 3272 1813 3026 2020 
Q 2781 2228 2272 2228 
L 1259 2228 
z
M 1259 4147 
L 1259 2741 
L 2194 2741 
Q 2656 2741 2882 2914 
Q 3109 3088 3109 3444 
Q 3109 3797 2882 3972 
Q 2656 4147 2194 4147 
L 1259 4147 
z
M 628 4666 
L 2241 4666 
Q 2963 4666 3353 4366 
Q 3744 4066 3744 3513 
Q 3744 3084 3544 2831 
Q 3344 2578 2956 2516 
Q 3422 2416 3680 2098 
Q 3938 1781 3938 1306 
Q 3938 681 3513 340 
Q 3088 0 2303 0 
L 628 0 
L 628 4666 
z
" transform="scale(0.015625)"/>
        <path id="DejaVuSans-63" d="M 3122 3366 
L 3122 2828 
Q 2878 2963 2633 3030 
Q 2388 3097 2138 3097 
Q 1578 3097 1268 2742 
Q 959 2388 959 1747 
Q 959 1106 1268 751 
Q 1578 397 2138 397 
Q 2388 397 2633 464 
Q 2878 531 3122 666 
L 3122 134 
Q 2881 22 2623 -34 
Q 2366 -91 2075 -91 
Q 1284 -91 818 406 
Q 353 903 353 1747 
Q 353 2603 823 3093 
Q 1294 3584 2113 3584 
Q 2378 3584 2631 3529 
Q 2884 3475 3122 3366 
z
" transform="scale(0.015625)"/>
        <path id="DejaVuSans-6b" d="M 581 4863 
L 1159 4863 
L 1159 1991 
L 2875 3500 
L 3609 3500 
L 1753 1863 
L 3688 0 
L 2938 0 
L 1159 1709 
L 1159 0 
L 581 0 
L 581 4863 
z
" transform="scale(0.015625)"/>
        <path id="DejaVuSans-62" d="M 3116 1747 
Q 3116 2381 2855 2742 
Q 2594 3103 2138 3103 
Q 1681 3103 1420 2742 
Q 1159 2381 1159 1747 
Q 1159 1113 1420 752 
Q 1681 391 2138 391 
Q 2594 391 2855 752 
Q 3116 1113 3116 1747 
z
M 1159 2969 
Q 1341 3281 1617 3432 
Q 1894 3584 2278 3584 
Q 2916 3584 3314 3078 
Q 3713 2572 3713 1747 
Q 3713 922 3314 415 
Q 2916 -91 2278 -91 
Q 1894 -91 1617 61 
Q 1341 213 1159 525 
L 1159 0 
L 581 0 
L 581 4863 
L 1159 4863 
L 1159 2969 
z
" transform="scale(0.015625)"/>
        <path id="DejaVuSans-6f" d="M 1959 3097 
Q 1497 3097 1228 2736 
Q 959 2375 959 1747 
Q 959 1119 1226 758 
Q 1494 397 1959 397 
Q 2419 397 2687 759 
Q 2956 1122 2956 1747 
Q 2956 2369 2687 2733 
Q 2419 3097 1959 3097 
z
M 1959 3584 
Q 2709 3584 3137 3096 
Q 3566 2609 3566 1747 
Q 3566 888 3137 398 
Q 2709 -91 1959 -91 
Q 1206 -91 779 398 
Q 353 888 353 1747 
Q 353 2609 779 3096 
Q 1206 3584 1959 3584 
z
" transform="scale(0.015625)"/>
        <path id="DejaVuSans-6e" d="M 3513 2113 
L 3513 0 
L 2938 0 
L 2938 2094 
Q 2938 2591 2744 2837 
Q 2550 3084 2163 3084 
Q 1697 3084 1428 2787 
Q 1159 2491 1159 1978 
L 1159 0 
L 581 0 
L 581 3500 
L 1159 3500 
L 1159 2956 
Q 1366 3272 1645 3428 
Q 1925 3584 2291 3584 
Q 2894 3584 3203 3211 
Q 3513 2838 3513 2113 
z
" transform="scale(0.015625)"/>
       </defs>
       <use xlink:href="#DejaVuSans-42"/>
       <use xlink:href="#DejaVuSans-61" x="68.603516"/>
       <use xlink:href="#DejaVuSans-63" x="129.882812"/>
       <use xlink:href="#DejaVuSans-6b" x="184.863281"/>
       <use xlink:href="#DejaVuSans-62" x="242.773438"/>
       <use xlink:href="#DejaVuSans-6f" x="306.25"/>
       <use xlink:href="#DejaVuSans-6e" x="367.431641"/>
       <use xlink:href="#DejaVuSans-65" x="430.810547"/>
      </g>
     </g>
    </g>
    <g id="xtick_4">
     <g id="text_4">
      <!-- Heuristic C-$\beta$ -->
      <g style="fill: #262626" transform="translate(392.36017 670.706219) rotate(-45) scale(0.2 -0.2)">
       <defs>
        <path id="DejaVuSans-48" d="M 628 4666 
L 1259 4666 
L 1259 2753 
L 3553 2753 
L 3553 4666 
L 4184 4666 
L 4184 0 
L 3553 0 
L 3553 2222 
L 1259 2222 
L 1259 0 
L 628 0 
L 628 4666 
z
" transform="scale(0.015625)"/>
        <path id="DejaVuSans-75" d="M 544 1381 
L 544 3500 
L 1119 3500 
L 1119 1403 
Q 1119 906 1312 657 
Q 1506 409 1894 409 
Q 2359 409 2629 706 
Q 2900 1003 2900 1516 
L 2900 3500 
L 3475 3500 
L 3475 0 
L 2900 0 
L 2900 538 
Q 2691 219 2414 64 
Q 2138 -91 1772 -91 
Q 1169 -91 856 284 
Q 544 659 544 1381 
z
M 1991 3584 
L 1991 3584 
z
" transform="scale(0.015625)"/>
        <path id="DejaVuSans-72" d="M 2631 2963 
Q 2534 3019 2420 3045 
Q 2306 3072 2169 3072 
Q 1681 3072 1420 2755 
Q 1159 2438 1159 1844 
L 1159 0 
L 581 0 
L 581 3500 
L 1159 3500 
L 1159 2956 
Q 1341 3275 1631 3429 
Q 1922 3584 2338 3584 
Q 2397 3584 2469 3576 
Q 2541 3569 2628 3553 
L 2631 2963 
z
" transform="scale(0.015625)"/>
        <path id="DejaVuSans-69" d="M 603 3500 
L 1178 3500 
L 1178 0 
L 603 0 
L 603 3500 
z
M 603 4863 
L 1178 4863 
L 1178 4134 
L 603 4134 
L 603 4863 
z
" transform="scale(0.015625)"/>
        <path id="DejaVuSans-73" d="M 2834 3397 
L 2834 2853 
Q 2591 2978 2328 3040 
Q 2066 3103 1784 3103 
Q 1356 3103 1142 2972 
Q 928 2841 928 2578 
Q 928 2378 1081 2264 
Q 1234 2150 1697 2047 
L 1894 2003 
Q 2506 1872 2764 1633 
Q 3022 1394 3022 966 
Q 3022 478 2636 193 
Q 2250 -91 1575 -91 
Q 1294 -91 989 -36 
Q 684 19 347 128 
L 347 722 
Q 666 556 975 473 
Q 1284 391 1588 391 
Q 1994 391 2212 530 
Q 2431 669 2431 922 
Q 2431 1156 2273 1281 
Q 2116 1406 1581 1522 
L 1381 1569 
Q 847 1681 609 1914 
Q 372 2147 372 2553 
Q 372 3047 722 3315 
Q 1072 3584 1716 3584 
Q 2034 3584 2315 3537 
Q 2597 3491 2834 3397 
z
" transform="scale(0.015625)"/>
        <path id="DejaVuSans-20" transform="scale(0.015625)"/>
        <path id="DejaVuSans-43" d="M 4122 4306 
L 4122 3641 
Q 3803 3938 3442 4084 
Q 3081 4231 2675 4231 
Q 1875 4231 1450 3742 
Q 1025 3253 1025 2328 
Q 1025 1406 1450 917 
Q 1875 428 2675 428 
Q 3081 428 3442 575 
Q 3803 722 4122 1019 
L 4122 359 
Q 3791 134 3420 21 
Q 3050 -91 2638 -91 
Q 1578 -91 968 557 
Q 359 1206 359 2328 
Q 359 3453 968 4101 
Q 1578 4750 2638 4750 
Q 3056 4750 3426 4639 
Q 3797 4528 4122 4306 
z
" transform="scale(0.015625)"/>
        <path id="DejaVuSans-2d" d="M 313 2009 
L 1997 2009 
L 1997 1497 
L 313 1497 
L 313 2009 
z
" transform="scale(0.015625)"/>
        <path id="DejaVuSans-Oblique-3b2" d="M 872 216 
L 572 -1331 
L -6 -1331 
L 928 3478 
Q 1206 4903 2538 4903 
Q 3888 4903 3659 3700 
Q 3503 2844 2894 2531 
Q 3713 2250 3553 1416 
Q 3272 -69 1759 -66 
Q 1097 -63 872 216 
z
M 1019 966 
Q 1259 422 1875 425 
Q 2775 425 2966 1406 
Q 3138 2288 1675 2219 
L 1778 2750 
Q 2909 2731 3106 3750 
Q 3241 4438 2509 4434 
Q 1691 4434 1503 3459 
L 1019 966 
z
" transform="scale(0.015625)"/>
       </defs>
       <use xlink:href="#DejaVuSans-48" transform="translate(0 0.390625)"/>
       <use xlink:href="#DejaVuSans-65" transform="translate(75.195312 0.390625)"/>
       <use xlink:href="#DejaVuSans-75" transform="translate(136.71875 0.390625)"/>
       <use xlink:href="#DejaVuSans-72" transform="translate(200.097656 0.390625)"/>
       <use xlink:href="#DejaVuSans-69" transform="translate(241.210938 0.390625)"/>
       <use xlink:href="#DejaVuSans-73" transform="translate(268.994141 0.390625)"/>
       <use xlink:href="#DejaVuSans-74" transform="translate(321.09375 0.390625)"/>
       <use xlink:href="#DejaVuSans-69" transform="translate(360.302734 0.390625)"/>
       <use xlink:href="#DejaVuSans-63" transform="translate(388.085938 0.390625)"/>
       <use xlink:href="#DejaVuSans-20" transform="translate(443.066406 0.390625)"/>
       <use xlink:href="#DejaVuSans-43" transform="translate(474.853516 0.390625)"/>
       <use xlink:href="#DejaVuSans-2d" transform="translate(544.677734 0.390625)"/>
       <use xlink:href="#DejaVuSans-Oblique-3b2" transform="translate(580.761719 0.390625)"/>
      </g>
     </g>
    </g>
    <g id="xtick_5">
     <g id="text_5">
      <!-- Template C-$\beta$ -->
      <g style="fill: #262626" transform="translate(499.717529 674.94886) rotate(-45) scale(0.2 -0.2)">
       <use xlink:href="#DejaVuSans-54" transform="translate(0 0.390625)"/>
       <use xlink:href="#DejaVuSans-65" transform="translate(61.083984 0.390625)"/>
       <use xlink:href="#DejaVuSans-6d" transform="translate(122.607422 0.390625)"/>
       <use xlink:href="#DejaVuSans-70" transform="translate(220.019531 0.390625)"/>
       <use xlink:href="#DejaVuSans-6c" transform="translate(283.496094 0.390625)"/>
       <use xlink:href="#DejaVuSans-61" transform="translate(311.279297 0.390625)"/>
       <use xlink:href="#DejaVuSans-74" transform="translate(372.558594 0.390625)"/>
       <use xlink:href="#DejaVuSans-65" transform="translate(411.767578 0.390625)"/>
       <use xlink:href="#DejaVuSans-20" transform="translate(473.291016 0.390625)"/>
       <use xlink:href="#DejaVuSans-43" transform="translate(505.078125 0.390625)"/>
       <use xlink:href="#DejaVuSans-2d" transform="translate(574.902344 0.390625)"/>
       <use xlink:href="#DejaVuSans-Oblique-3b2" transform="translate(610.986328 0.390625)"/>
      </g>
     </g>
    </g>
    <g id="xtick_6">
     <g id="text_6">
      <!-- AttnPacker -->
      <g style="fill: #262626" transform="translate(630.630383 655.348744) rotate(-45) scale(0.2 -0.2)">
       <defs>
        <path id="DejaVuSans-50" d="M 1259 4147 
L 1259 2394 
L 2053 2394 
Q 2494 2394 2734 2622 
Q 2975 2850 2975 3272 
Q 2975 3691 2734 3919 
Q 2494 4147 2053 4147 
L 1259 4147 
z
M 628 4666 
L 2053 4666 
Q 2838 4666 3239 4311 
Q 3641 3956 3641 3272 
Q 3641 2581 3239 2228 
Q 2838 1875 2053 1875 
L 1259 1875 
L 1259 0 
L 628 0 
L 628 4666 
z
" transform="scale(0.015625)"/>
       </defs>
       <use xlink:href="#DejaVuSans-41"/>
       <use xlink:href="#DejaVuSans-74" x="66.658203"/>
       <use xlink:href="#DejaVuSans-74" x="105.867188"/>
       <use xlink:href="#DejaVuSans-6e" x="145.076172"/>
       <use xlink:href="#DejaVuSans-50" x="208.455078"/>
       <use xlink:href="#DejaVuSans-61" x="264.257812"/>
       <use xlink:href="#DejaVuSans-63" x="325.537109"/>
       <use xlink:href="#DejaVuSans-6b" x="380.517578"/>
       <use xlink:href="#DejaVuSans-65" x="434.802734"/>
       <use xlink:href="#DejaVuSans-72" x="496.326172"/>
      </g>
     </g>
    </g>
    <g id="xtick_7">
     <g id="text_7">
      <!-- AttnPacker (AF) -->
      <g style="fill: #262626" transform="translate(708.892508 688.686619) rotate(-45) scale(0.2 -0.2)">
       <defs>
        <path id="DejaVuSans-28" d="M 1984 4856 
Q 1566 4138 1362 3434 
Q 1159 2731 1159 2009 
Q 1159 1288 1364 580 
Q 1569 -128 1984 -844 
L 1484 -844 
Q 1016 -109 783 600 
Q 550 1309 550 2009 
Q 550 2706 781 3412 
Q 1013 4119 1484 4856 
L 1984 4856 
z
" transform="scale(0.015625)"/>
        <path id="DejaVuSans-46" d="M 628 4666 
L 3309 4666 
L 3309 4134 
L 1259 4134 
L 1259 2759 
L 3109 2759 
L 3109 2228 
L 1259 2228 
L 1259 0 
L 628 0 
L 628 4666 
z
" transform="scale(0.015625)"/>
        <path id="DejaVuSans-29" d="M 513 4856 
L 1013 4856 
Q 1481 4119 1714 3412 
Q 1947 2706 1947 2009 
Q 1947 1309 1714 600 
Q 1481 -109 1013 -844 
L 513 -844 
Q 928 -128 1133 580 
Q 1338 1288 1338 2009 
Q 1338 2731 1133 3434 
Q 928 4138 513 4856 
z
" transform="scale(0.015625)"/>
       </defs>
       <use xlink:href="#DejaVuSans-41"/>
       <use xlink:href="#DejaVuSans-74" x="66.658203"/>
       <use xlink:href="#DejaVuSans-74" x="105.867188"/>
       <use xlink:href="#DejaVuSans-6e" x="145.076172"/>
       <use xlink:href="#DejaVuSans-50" x="208.455078"/>
       <use xlink:href="#DejaVuSans-61" x="264.257812"/>
       <use xlink:href="#DejaVuSans-63" x="325.537109"/>
       <use xlink:href="#DejaVuSans-6b" x="380.517578"/>
       <use xlink:href="#DejaVuSans-65" x="434.802734"/>
       <use xlink:href="#DejaVuSans-72" x="496.326172"/>
       <use xlink:href="#DejaVuSans-20" x="537.439453"/>
       <use xlink:href="#DejaVuSans-28" x="569.226562"/>
       <use xlink:href="#DejaVuSans-41" x="608.240234"/>
       <use xlink:href="#DejaVuSans-46" x="676.648438"/>
       <use xlink:href="#DejaVuSans-29" x="734.167969"/>
      </g>
     </g>
    </g>
    <g id="text_8">
     <!-- Method -->
     <g style="fill: #262626" transform="translate(435.18125 710.824616) scale(0.2 -0.2)">
      <defs>
       <path id="DejaVuSans-68" d="M 3513 2113 
L 3513 0 
L 2938 0 
L 2938 2094 
Q 2938 2591 2744 2837 
Q 2550 3084 2163 3084 
Q 1697 3084 1428 2787 
Q 1159 2491 1159 1978 
L 1159 0 
L 581 0 
L 581 4863 
L 1159 4863 
L 1159 2956 
Q 1366 3272 1645 3428 
Q 1925 3584 2291 3584 
Q 2894 3584 3203 3211 
Q 3513 2838 3513 2113 
z
" transform="scale(0.015625)"/>
       <path id="DejaVuSans-64" d="M 2906 2969 
L 2906 4863 
L 3481 4863 
L 3481 0 
L 2906 0 
L 2906 525 
Q 2725 213 2448 61 
Q 2172 -91 1784 -91 
Q 1150 -91 751 415 
Q 353 922 353 1747 
Q 353 2572 751 3078 
Q 1150 3584 1784 3584 
Q 2172 3584 2448 3432 
Q 2725 3281 2906 2969 
z
M 947 1747 
Q 947 1113 1208 752 
Q 1469 391 1925 391 
Q 2381 391 2643 752 
Q 2906 1113 2906 1747 
Q 2906 2381 2643 2742 
Q 2381 3103 1925 3103 
Q 1469 3103 1208 2742 
Q 947 2381 947 1747 
z
" transform="scale(0.015625)"/>
      </defs>
      <use xlink:href="#DejaVuSans-4d"/>
      <use xlink:href="#DejaVuSans-65" x="86.279297"/>
      <use xlink:href="#DejaVuSans-74" x="147.802734"/>
      <use xlink:href="#DejaVuSans-68" x="187.011719"/>
      <use xlink:href="#DejaVuSans-6f" x="250.390625"/>
      <use xlink:href="#DejaVuSans-64" x="311.572266"/>
     </g>
    </g>
   </g>
   <g id="matplotlib.axis_2">
    <g id="ytick_1">
     <g id="line2d_1">
      <path d="M 82.0875 529.881406 
L 863.2875 529.881406 
" clip-path="url(#pba25c87d44)" style="fill: none; stroke: #cccccc; stroke-width: 0.8; stroke-linecap: round"/>
     </g>
     <g id="text_9">
      <!-- 0.00 -->
      <g style="fill: #262626" transform="translate(30.55625 537.479844) scale(0.2 -0.2)">
       <defs>
        <path id="DejaVuSans-30" d="M 2034 4250 
Q 1547 4250 1301 3770 
Q 1056 3291 1056 2328 
Q 1056 1369 1301 889 
Q 1547 409 2034 409 
Q 2525 409 2770 889 
Q 3016 1369 3016 2328 
Q 3016 3291 2770 3770 
Q 2525 4250 2034 4250 
z
M 2034 4750 
Q 2819 4750 3233 4129 
Q 3647 3509 3647 2328 
Q 3647 1150 3233 529 
Q 2819 -91 2034 -91 
Q 1250 -91 836 529 
Q 422 1150 422 2328 
Q 422 3509 836 4129 
Q 1250 4750 2034 4750 
z
" transform="scale(0.015625)"/>
        <path id="DejaVuSans-2e" d="M 684 794 
L 1344 794 
L 1344 0 
L 684 0 
L 684 794 
z
" transform="scale(0.015625)"/>
       </defs>
       <use xlink:href="#DejaVuSans-30"/>
       <use xlink:href="#DejaVuSans-2e" x="63.623047"/>
       <use xlink:href="#DejaVuSans-30" x="95.410156"/>
       <use xlink:href="#DejaVuSans-30" x="159.033203"/>
      </g>
     </g>
    </g>
    <g id="ytick_2">
     <g id="line2d_2">
      <path d="M 82.0875 454.161971 
L 863.2875 454.161971 
" clip-path="url(#pba25c87d44)" style="fill: none; stroke: #cccccc; stroke-width: 0.8; stroke-linecap: round"/>
     </g>
     <g id="text_10">
      <!-- 0.25 -->
      <g style="fill: #262626" transform="translate(30.55625 461.760408) scale(0.2 -0.2)">
       <defs>
        <path id="DejaVuSans-32" d="M 1228 531 
L 3431 531 
L 3431 0 
L 469 0 
L 469 531 
Q 828 903 1448 1529 
Q 2069 2156 2228 2338 
Q 2531 2678 2651 2914 
Q 2772 3150 2772 3378 
Q 2772 3750 2511 3984 
Q 2250 4219 1831 4219 
Q 1534 4219 1204 4116 
Q 875 4013 500 3803 
L 500 4441 
Q 881 4594 1212 4672 
Q 1544 4750 1819 4750 
Q 2544 4750 2975 4387 
Q 3406 4025 3406 3419 
Q 3406 3131 3298 2873 
Q 3191 2616 2906 2266 
Q 2828 2175 2409 1742 
Q 1991 1309 1228 531 
z
" transform="scale(0.015625)"/>
        <path id="DejaVuSans-35" d="M 691 4666 
L 3169 4666 
L 3169 4134 
L 1269 4134 
L 1269 2991 
Q 1406 3038 1543 3061 
Q 1681 3084 1819 3084 
Q 2600 3084 3056 2656 
Q 3513 2228 3513 1497 
Q 3513 744 3044 326 
Q 2575 -91 1722 -91 
Q 1428 -91 1123 -41 
Q 819 9 494 109 
L 494 744 
Q 775 591 1075 516 
Q 1375 441 1709 441 
Q 2250 441 2565 725 
Q 2881 1009 2881 1497 
Q 2881 1984 2565 2268 
Q 2250 2553 1709 2553 
Q 1456 2553 1204 2497 
Q 953 2441 691 2322 
L 691 4666 
z
" transform="scale(0.015625)"/>
       </defs>
       <use xlink:href="#DejaVuSans-30"/>
       <use xlink:href="#DejaVuSans-2e" x="63.623047"/>
       <use xlink:href="#DejaVuSans-32" x="95.410156"/>
       <use xlink:href="#DejaVuSans-35" x="159.033203"/>
      </g>
     </g>
    </g>
    <g id="ytick_3">
     <g id="line2d_3">
      <path d="M 82.0875 378.442535 
L 863.2875 378.442535 
" clip-path="url(#pba25c87d44)" style="fill: none; stroke: #cccccc; stroke-width: 0.8; stroke-linecap: round"/>
     </g>
     <g id="text_11">
      <!-- 0.50 -->
      <g style="fill: #262626" transform="translate(30.55625 386.040973) scale(0.2 -0.2)">
       <use xlink:href="#DejaVuSans-30"/>
       <use xlink:href="#DejaVuSans-2e" x="63.623047"/>
       <use xlink:href="#DejaVuSans-35" x="95.410156"/>
       <use xlink:href="#DejaVuSans-30" x="159.033203"/>
      </g>
     </g>
    </g>
    <g id="ytick_4">
     <g id="line2d_4">
      <path d="M 82.0875 302.7231 
L 863.2875 302.7231 
" clip-path="url(#pba25c87d44)" style="fill: none; stroke: #cccccc; stroke-width: 0.8; stroke-linecap: round"/>
     </g>
     <g id="text_12">
      <!-- 0.75 -->
      <g style="fill: #262626" transform="translate(30.55625 310.321538) scale(0.2 -0.2)">
       <defs>
        <path id="DejaVuSans-37" d="M 525 4666 
L 3525 4666 
L 3525 4397 
L 1831 0 
L 1172 0 
L 2766 4134 
L 525 4134 
L 525 4666 
z
" transform="scale(0.015625)"/>
       </defs>
       <use xlink:href="#DejaVuSans-30"/>
       <use xlink:href="#DejaVuSans-2e" x="63.623047"/>
       <use xlink:href="#DejaVuSans-37" x="95.410156"/>
       <use xlink:href="#DejaVuSans-35" x="159.033203"/>
      </g>
     </g>
    </g>
    <g id="ytick_5">
     <g id="line2d_5">
      <path d="M 82.0875 227.003665 
L 863.2875 227.003665 
" clip-path="url(#pba25c87d44)" style="fill: none; stroke: #cccccc; stroke-width: 0.8; stroke-linecap: round"/>
     </g>
     <g id="text_13">
      <!-- 1.00 -->
      <g style="fill: #262626" transform="translate(30.55625 234.602102) scale(0.2 -0.2)">
       <defs>
        <path id="DejaVuSans-31" d="M 794 531 
L 1825 531 
L 1825 4091 
L 703 3866 
L 703 4441 
L 1819 4666 
L 2450 4666 
L 2450 531 
L 3481 531 
L 3481 0 
L 794 0 
L 794 531 
z
" transform="scale(0.015625)"/>
       </defs>
       <use xlink:href="#DejaVuSans-31"/>
       <use xlink:href="#DejaVuSans-2e" x="63.623047"/>
       <use xlink:href="#DejaVuSans-30" x="95.410156"/>
       <use xlink:href="#DejaVuSans-30" x="159.033203"/>
      </g>
     </g>
    </g>
    <g id="ytick_6">
     <g id="line2d_6">
      <path d="M 82.0875 151.284229 
L 863.2875 151.284229 
" clip-path="url(#pba25c87d44)" style="fill: none; stroke: #cccccc; stroke-width: 0.8; stroke-linecap: round"/>
     </g>
     <g id="text_14">
      <!-- 1.25 -->
      <g style="fill: #262626" transform="translate(30.55625 158.882667) scale(0.2 -0.2)">
       <use xlink:href="#DejaVuSans-31"/>
       <use xlink:href="#DejaVuSans-2e" x="63.623047"/>
       <use xlink:href="#DejaVuSans-32" x="95.410156"/>
       <use xlink:href="#DejaVuSans-35" x="159.033203"/>
      </g>
     </g>
    </g>
    <g id="ytick_7">
     <g id="line2d_7">
      <path d="M 82.0875 75.564794 
L 863.2875 75.564794 
" clip-path="url(#pba25c87d44)" style="fill: none; stroke: #cccccc; stroke-width: 0.8; stroke-linecap: round"/>
     </g>
     <g id="text_15">
      <!-- 1.50 -->
      <g style="fill: #262626" transform="translate(30.55625 83.163231) scale(0.2 -0.2)">
       <use xlink:href="#DejaVuSans-31"/>
       <use xlink:href="#DejaVuSans-2e" x="63.623047"/>
       <use xlink:href="#DejaVuSans-35" x="95.410156"/>
       <use xlink:href="#DejaVuSans-30" x="159.033203"/>
      </g>
     </g>
    </g>
    <g id="text_16">
     <!-- MAE 4 (rad) -->
     <g style="fill: #262626" transform="translate(22.396875 343.296875) rotate(-90) scale(0.2 -0.2)">
      <defs>
       <path id="DejaVuSans-45" d="M 628 4666 
L 3578 4666 
L 3578 4134 
L 1259 4134 
L 1259 2753 
L 3481 2753 
L 3481 2222 
L 1259 2222 
L 1259 531 
L 3634 531 
L 3634 0 
L 628 0 
L 628 4666 
z
" transform="scale(0.015625)"/>
       <path id="DejaVuSans-34" d="M 2419 4116 
L 825 1625 
L 2419 1625 
L 2419 4116 
z
M 2253 4666 
L 3047 4666 
L 3047 1625 
L 3713 1625 
L 3713 1100 
L 3047 1100 
L 3047 0 
L 2419 0 
L 2419 1100 
L 313 1100 
L 313 1709 
L 2253 4666 
z
" transform="scale(0.015625)"/>
      </defs>
      <use xlink:href="#DejaVuSans-4d"/>
      <use xlink:href="#DejaVuSans-41" x="86.279297"/>
      <use xlink:href="#DejaVuSans-45" x="154.6875"/>
      <use xlink:href="#DejaVuSans-20" x="217.871094"/>
      <use xlink:href="#DejaVuSans-34" x="249.658203"/>
      <use xlink:href="#DejaVuSans-20" x="313.28125"/>
      <use xlink:href="#DejaVuSans-28" x="345.068359"/>
      <use xlink:href="#DejaVuSans-72" x="384.082031"/>
      <use xlink:href="#DejaVuSans-61" x="425.195312"/>
      <use xlink:href="#DejaVuSans-64" x="486.474609"/>
      <use xlink:href="#DejaVuSans-29" x="549.951172"/>
     </g>
    </g>
   </g>
   <g id="PolyCollection_1">
    <defs>
     <path id="m500b78956a" d="M 138.417935 -248.628076 
L 137.357065 -248.628076 
L 137.167463 -253.005917 
L 136.928145 -257.383757 
L 136.632551 -261.761597 
L 136.275239 -266.139437 
L 135.852494 -270.517278 
L 135.362867 -274.895118 
L 134.807597 -279.272958 
L 134.190821 -283.650799 
L 133.519545 -288.028639 
L 132.80333 -292.406479 
L 132.053722 -296.78432 
L 131.283467 -301.16216 
L 130.505574 -305.54 
L 129.732319 -309.917841 
L 128.974275 -314.295681 
L 128.239418 -318.673521 
L 127.532388 -323.051361 
L 126.853909 -327.429202 
L 126.200414 -331.807042 
L 125.563891 -336.184882 
L 124.931986 -340.562723 
L 124.288411 -344.940563 
L 123.613721 -349.318403 
L 122.886485 -353.696244 
L 122.08485 -358.074084 
L 121.188447 -362.451924 
L 120.180476 -366.829764 
L 119.049771 -371.207605 
L 117.792552 -375.585445 
L 116.413595 -379.963285 
L 114.926567 -384.341126 
L 113.35336 -388.718966 
L 111.722441 -393.096806 
L 110.066328 -397.474647 
L 108.418512 -401.852487 
L 106.810226 -406.230327 
L 105.267528 -410.608168 
L 103.809152 -414.986008 
L 102.445456 -419.363848 
L 101.17867 -423.741688 
L 100.004421 -428.119529 
L 98.914344 -432.497369 
L 97.899363 -436.875209 
L 96.953166 -441.25305 
L 96.075319 -445.63089 
L 95.273505 -450.00873 
L 94.564519 -454.386571 
L 93.973808 -458.764411 
L 93.533568 -463.142251 
L 93.279623 -467.520092 
L 93.2475 -471.897932 
L 93.468222 -476.275772 
L 93.964408 -480.653612 
L 94.747184 -485.031453 
L 95.814335 -489.409293 
L 97.149882 -493.787133 
L 98.725113 -498.164974 
L 100.500858 -502.542814 
L 102.430649 -506.920654 
L 104.464317 -511.298495 
L 106.551566 -515.676335 
L 108.645111 -520.054175 
L 110.703107 -524.432015 
L 112.690724 -528.809856 
L 114.580884 -533.187696 
L 116.354263 -537.565536 
L 117.998774 -541.943377 
L 119.508722 -546.321217 
L 120.883825 -550.699057 
L 122.128244 -555.076898 
L 123.249676 -559.454738 
L 124.258553 -563.832578 
L 125.167303 -568.210419 
L 125.98966 -572.588259 
L 126.739996 -576.966099 
L 127.432651 -581.343939 
L 128.081293 -585.72178 
L 128.69833 -590.09962 
L 129.294396 -594.47746 
L 129.877971 -598.855301 
L 130.455132 -603.233141 
L 131.029466 -607.610981 
L 131.602127 -611.988822 
L 132.172042 -616.366662 
L 132.736229 -620.744502 
L 133.29021 -625.122343 
L 133.828496 -629.500183 
L 134.345101 -633.878023 
L 134.834059 -638.255863 
L 135.289899 -642.633704 
L 135.70806 -647.011544 
L 136.085199 -651.389384 
L 136.419381 -655.767225 
L 136.71014 -660.145065 
L 136.95842 -664.522905 
L 137.166401 -668.900746 
L 137.337257 -673.278586 
L 137.474863 -677.656426 
L 137.583488 -682.034266 
L 138.191512 -682.034266 
L 138.191512 -682.034266 
L 138.300137 -677.656426 
L 138.437743 -673.278586 
L 138.608599 -668.900746 
L 138.81658 -664.522905 
L 139.06486 -660.145065 
L 139.355619 -655.767225 
L 139.689801 -651.389384 
L 140.06694 -647.011544 
L 140.485101 -642.633704 
L 140.940941 -638.255863 
L 141.429899 -633.878023 
L 141.946504 -629.500183 
L 142.48479 -625.122343 
L 143.038771 -620.744502 
L 143.602958 -616.366662 
L 144.172873 -611.988822 
L 144.745534 -607.610981 
L 145.319868 -603.233141 
L 145.897029 -598.855301 
L 146.480604 -594.47746 
L 147.07667 -590.09962 
L 147.693707 -585.72178 
L 148.342349 -581.343939 
L 149.035004 -576.966099 
L 149.78534 -572.588259 
L 150.607697 -568.210419 
L 151.516447 -563.832578 
L 152.525324 -559.454738 
L 153.646756 -555.076898 
L 154.891175 -550.699057 
L 156.266278 -546.321217 
L 157.776226 -541.943377 
L 159.420737 -537.565536 
L 161.194116 -533.187696 
L 163.084276 -528.809856 
L 165.071893 -524.432015 
L 167.129889 -520.054175 
L 169.223434 -515.676335 
L 171.310683 -511.298495 
L 173.344351 -506.920654 
L 175.274142 -502.542814 
L 177.049887 -498.164974 
L 178.625118 -493.787133 
L 179.960665 -489.409293 
L 181.027816 -485.031453 
L 181.810592 -480.653612 
L 182.306778 -476.275772 
L 182.5275 -471.897932 
L 182.495377 -467.520092 
L 182.241432 -463.142251 
L 181.801192 -458.764411 
L 181.210481 -454.386571 
L 180.501495 -450.00873 
L 179.699681 -445.63089 
L 178.821834 -441.25305 
L 177.875637 -436.875209 
L 176.860656 -432.497369 
L 175.770579 -428.119529 
L 174.59633 -423.741688 
L 173.329544 -419.363848 
L 171.965848 -414.986008 
L 170.507472 -410.608168 
L 168.964774 -406.230327 
L 167.356488 -401.852487 
L 165.708672 -397.474647 
L 164.052559 -393.096806 
L 162.42164 -388.718966 
L 160.848433 -384.341126 
L 159.361405 -379.963285 
L 157.982448 -375.585445 
L 156.725229 -371.207605 
L 155.594524 -366.829764 
L 154.586553 -362.451924 
L 153.69015 -358.074084 
L 152.888515 -353.696244 
L 152.161279 -349.318403 
L 151.486589 -344.940563 
L 150.843014 -340.562723 
L 150.211109 -336.184882 
L 149.574586 -331.807042 
L 148.921091 -327.429202 
L 148.242612 -323.051361 
L 147.535582 -318.673521 
L 146.800725 -314.295681 
L 146.042681 -309.917841 
L 145.269426 -305.54 
L 144.491533 -301.16216 
L 143.721278 -296.78432 
L 142.97167 -292.406479 
L 142.255455 -288.028639 
L 141.584179 -283.650799 
L 140.967403 -279.272958 
L 140.412133 -274.895118 
L 139.922506 -270.517278 
L 139.499761 -266.139437 
L 139.142449 -261.761597 
L 138.846855 -257.383757 
L 138.607537 -253.005917 
L 138.417935 -248.628076 
z
" style="stroke: #3d3d3d; stroke-opacity: 0.5"/>
    </defs>
    <g clip-path="url(#pba25c87d44)">
     <use xlink:href="#m500b78956a" x="0" y="722.183991" style="fill: #3274a1; fill-opacity: 0.5; stroke: #3d3d3d; stroke-opacity: 0.5"/>
    </g>
   </g>
   <g id="PolyCollection_2">
    <defs>
     <path id="m11e508845c" d="M 249.704321 -185.783991 
L 249.270679 -185.783991 
L 249.195183 -190.522352 
L 249.101706 -195.260713 
L 248.988808 -199.999074 
L 248.855698 -204.737435 
L 248.702301 -209.475796 
L 248.529182 -214.214156 
L 248.3373 -218.952517 
L 248.127579 -223.690878 
L 247.900326 -228.429239 
L 247.654565 -233.1676 
L 247.38738 -237.905961 
L 247.093412 -242.644322 
L 246.76462 -247.382683 
L 246.390428 -252.121044 
L 245.958304 -256.859405 
L 245.45479 -261.597765 
L 244.866877 -266.336126 
L 244.183591 -271.074487 
L 243.397568 -275.812848 
L 242.506398 -280.551209 
L 241.513497 -285.28957 
L 240.428331 -290.027931 
L 239.265869 -294.766292 
L 238.045286 -299.504653 
L 236.787985 -304.243014 
L 235.515177 -308.981374 
L 234.2453 -313.719735 
L 232.991629 -318.458096 
L 231.760438 -323.196457 
L 230.550009 -327.934818 
L 229.350693 -332.673179 
L 228.146094 -337.41154 
L 226.915277 -342.149901 
L 225.635741 -346.888262 
L 224.286786 -351.626623 
L 222.852836 -356.364983 
L 221.326265 -361.103344 
L 219.709369 -365.841705 
L 218.01527 -370.580066 
L 216.267676 -375.318427 
L 214.499626 -380.056788 
L 212.751469 -384.795149 
L 211.068396 -389.53351 
L 209.497872 -394.271871 
L 208.087228 -399.010232 
L 206.881589 -403.748593 
L 205.922179 -408.486953 
L 205.244951 -413.225314 
L 204.879407 -417.963675 
L 204.8475 -422.702036 
L 205.162526 -427.440397 
L 205.828044 -432.178758 
L 206.836915 -436.917119 
L 208.170667 -441.65548 
L 209.799402 -446.393841 
L 211.682424 -451.132202 
L 213.769703 -455.870562 
L 216.004127 -460.608923 
L 218.324422 -465.347284 
L 220.668431 -470.085645 
L 222.976471 -474.824006 
L 225.194412 -479.562367 
L 227.276234 -484.300728 
L 229.185867 -489.039089 
L 230.898262 -493.77745 
L 232.399684 -498.515811 
L 233.687343 -503.254171 
L 234.768446 -507.992532 
L 235.65881 -512.730893 
L 236.381142 -517.469254 
L 236.963091 -522.207615 
L 237.435183 -526.945976 
L 237.828755 -531.684337 
L 238.174026 -536.422698 
L 238.49843 -541.161059 
L 238.825323 -545.89942 
L 239.173166 -550.63778 
L 239.55517 -555.376141 
L 239.979393 -560.114502 
L 240.449179 -564.852863 
L 240.963817 -569.591224 
L 241.519301 -574.329585 
L 242.109071 -579.067946 
L 242.724682 -583.806307 
L 243.356384 -588.544668 
L 243.993613 -593.283029 
L 244.625461 -598.021389 
L 245.241124 -602.75975 
L 245.830379 -607.498111 
L 246.38406 -612.236472 
L 246.894503 -616.974833 
L 247.355925 -621.713194 
L 247.764667 -626.451555 
L 248.119283 -631.189916 
L 248.420451 -635.928277 
L 248.670724 -640.666638 
L 248.874154 -645.404998 
L 249.035843 -650.143359 
L 249.161477 -654.88172 
L 249.813523 -654.88172 
L 249.813523 -654.88172 
L 249.939157 -650.143359 
L 250.100846 -645.404998 
L 250.304276 -640.666638 
L 250.554549 -635.928277 
L 250.855717 -631.189916 
L 251.210333 -626.451555 
L 251.619075 -621.713194 
L 252.080497 -616.974833 
L 252.59094 -612.236472 
L 253.144621 -607.498111 
L 253.733876 -602.75975 
L 254.349539 -598.021389 
L 254.981387 -593.283029 
L 255.618616 -588.544668 
L 256.250318 -583.806307 
L 256.865929 -579.067946 
L 257.455699 -574.329585 
L 258.011183 -569.591224 
L 258.525821 -564.852863 
L 258.995607 -560.114502 
L 259.41983 -555.376141 
L 259.801834 -550.63778 
L 260.149677 -545.89942 
L 260.47657 -541.161059 
L 260.800974 -536.422698 
L 261.146245 -531.684337 
L 261.539817 -526.945976 
L 262.011909 -522.207615 
L 262.593858 -517.469254 
L 263.31619 -512.730893 
L 264.206554 -507.992532 
L 265.287657 -503.254171 
L 266.575316 -498.515811 
L 268.076738 -493.77745 
L 269.789133 -489.039089 
L 271.698766 -484.300728 
L 273.780588 -479.562367 
L 275.998529 -474.824006 
L 278.306569 -470.085645 
L 280.650578 -465.347284 
L 282.970873 -460.608923 
L 285.205297 -455.870562 
L 287.292576 -451.132202 
L 289.175598 -446.393841 
L 290.804333 -441.65548 
L 292.138085 -436.917119 
L 293.146956 -432.178758 
L 293.812474 -427.440397 
L 294.1275 -422.702036 
L 294.095593 -417.963675 
L 293.730049 -413.225314 
L 293.052821 -408.486953 
L 292.093411 -403.748593 
L 290.887772 -399.010232 
L 289.477128 -394.271871 
L 287.906604 -389.53351 
L 286.223531 -384.795149 
L 284.475374 -380.056788 
L 282.707324 -375.318427 
L 280.95973 -370.580066 
L 279.265631 -365.841705 
L 277.648735 -361.103344 
L 276.122164 -356.364983 
L 274.688214 -351.626623 
L 273.339259 -346.888262 
L 272.059723 -342.149901 
L 270.828906 -337.41154 
L 269.624307 -332.673179 
L 268.424991 -327.934818 
L 267.214562 -323.196457 
L 265.983371 -318.458096 
L 264.7297 -313.719735 
L 263.459823 -308.981374 
L 262.187015 -304.243014 
L 260.929714 -299.504653 
L 259.709131 -294.766292 
L 258.546669 -290.027931 
L 257.461503 -285.28957 
L 256.468602 -280.551209 
L 255.577432 -275.812848 
L 254.791409 -271.074487 
L 254.108123 -266.336126 
L 253.52021 -261.597765 
L 253.016696 -256.859405 
L 252.584572 -252.121044 
L 252.21038 -247.382683 
L 251.881588 -242.644322 
L 251.58762 -237.905961 
L 251.320435 -233.1676 
L 251.074674 -228.429239 
L 250.847421 -223.690878 
L 250.6377 -218.952517 
L 250.445818 -214.214156 
L 250.272699 -209.475796 
L 250.119302 -204.737435 
L 249.986192 -199.999074 
L 249.873294 -195.260713 
L 249.779817 -190.522352 
L 249.704321 -185.783991 
z
" style="stroke: #3d3d3d; stroke-opacity: 0.5"/>
    </defs>
    <g clip-path="url(#pba25c87d44)">
     <use xlink:href="#m11e508845c" x="0" y="722.183991" style="fill: #d684bd; fill-opacity: 0.5; stroke: #3d3d3d; stroke-opacity: 0.5"/>
    </g>
   </g>
   <g id="PolyCollection_3">
    <defs>
     <path id="mdb42dfd45d" d="M 361.361249 -212.459817 
L 360.813751 -212.459817 
L 360.711044 -217.227729 
L 360.579903 -221.995642 
L 360.416063 -226.763554 
L 360.215653 -231.531467 
L 359.975476 -236.299379 
L 359.693241 -241.067292 
L 359.367756 -245.835204 
L 358.99903 -250.603117 
L 358.588303 -255.371029 
L 358.138009 -260.138942 
L 357.65168 -264.906854 
L 357.133832 -269.674767 
L 356.589837 -274.442679 
L 356.025791 -279.210592 
L 355.448373 -283.978504 
L 354.86465 -288.746417 
L 354.281811 -293.514329 
L 353.706764 -298.282242 
L 353.145601 -303.050154 
L 352.602898 -307.818067 
L 352.080895 -312.585979 
L 351.578616 -317.353892 
L 351.091025 -322.121804 
L 350.608342 -326.889717 
L 350.115661 -331.657629 
L 349.593013 -336.425541 
L 349.015983 -341.193454 
L 348.356956 -345.961366 
L 347.587005 -350.729279 
L 346.678332 -355.497191 
L 345.607081 -360.265104 
L 344.356273 -365.033016 
L 342.918497 -369.800929 
L 341.298023 -374.568841 
L 339.511969 -379.336754 
L 337.590263 -384.104666 
L 335.574278 -388.872579 
L 333.514164 -393.640491 
L 331.465093 -398.408404 
L 329.482787 -403.176316 
L 327.61882 -407.944229 
L 325.916209 -412.712141 
L 324.405815 -417.480054 
L 323.103973 -422.247966 
L 322.011616 -427.015879 
L 321.115025 -431.783791 
L 320.388145 -436.551704 
L 319.796232 -441.319616 
L 319.3005 -446.087529 
L 318.863274 -450.855441 
L 318.453126 -455.623354 
L 318.049422 -460.391266 
L 317.64572 -465.159179 
L 317.251592 -469.927091 
L 316.892548 -474.695004 
L 316.608011 -479.462916 
L 316.4475 -484.230829 
L 316.465464 -488.998741 
L 316.715372 -493.766653 
L 317.243806 -498.534566 
L 318.085259 -503.302478 
L 319.258253 -508.070391 
L 320.763151 -512.838303 
L 322.581816 -517.606216 
L 324.678992 -522.374128 
L 327.005125 -527.142041 
L 329.500169 -531.909953 
L 332.097948 -536.677866 
L 334.730608 -541.445778 
L 337.332807 -546.213691 
L 339.845359 -550.981603 
L 342.218132 -555.749516 
L 344.412099 -560.517428 
L 346.40047 -565.285341 
L 348.168932 -570.053253 
L 349.715027 -574.821166 
L 351.046817 -579.589078 
L 352.180951 -584.356991 
L 353.140363 -589.124903 
L 353.951797 -593.892816 
L 354.643374 -598.660728 
L 355.24239 -603.428641 
L 355.773508 -608.196553 
L 356.257438 -612.964466 
L 356.710147 -617.732378 
L 357.14261 -622.500291 
L 357.561032 -627.268203 
L 357.967463 -632.036116 
L 358.360686 -636.804028 
L 358.737254 -641.57194 
L 359.092548 -646.339853 
L 359.421752 -651.107765 
L 359.720643 -655.875678 
L 359.986164 -660.64359 
L 360.216735 -665.411503 
L 360.41233 -670.179415 
L 360.574354 -674.947328 
L 360.705381 -679.71524 
L 360.808808 -684.483153 
L 361.366192 -684.483153 
L 361.366192 -684.483153 
L 361.469619 -679.71524 
L 361.600646 -674.947328 
L 361.76267 -670.179415 
L 361.958265 -665.411503 
L 362.188836 -660.64359 
L 362.454357 -655.875678 
L 362.753248 -651.107765 
L 363.082452 -646.339853 
L 363.437746 -641.57194 
L 363.814314 -636.804028 
L 364.207537 -632.036116 
L 364.613968 -627.268203 
L 365.03239 -622.500291 
L 365.464853 -617.732378 
L 365.917562 -612.964466 
L 366.401492 -608.196553 
L 366.93261 -603.428641 
L 367.531626 -598.660728 
L 368.223203 -593.892816 
L 369.034637 -589.124903 
L 369.994049 -584.356991 
L 371.128183 -579.589078 
L 372.459973 -574.821166 
L 374.006068 -570.053253 
L 375.77453 -565.285341 
L 377.762901 -560.517428 
L 379.956868 -555.749516 
L 382.329641 -550.981603 
L 384.842193 -546.213691 
L 387.444392 -541.445778 
L 390.077052 -536.677866 
L 392.674831 -531.909953 
L 395.169875 -527.142041 
L 397.496008 -522.374128 
L 399.593184 -517.606216 
L 401.411849 -512.838303 
L 402.916747 -508.070391 
L 404.089741 -503.302478 
L 404.931194 -498.534566 
L 405.459628 -493.766653 
L 405.709536 -488.998741 
L 405.7275 -484.230829 
L 405.566989 -479.462916 
L 405.282452 -474.695004 
L 404.923408 -469.927091 
L 404.52928 -465.159179 
L 404.125578 -460.391266 
L 403.721874 -455.623354 
L 403.311726 -450.855441 
L 402.8745 -446.087529 
L 402.378768 -441.319616 
L 401.786855 -436.551704 
L 401.059975 -431.783791 
L 400.163384 -427.015879 
L 399.071027 -422.247966 
L 397.769185 -417.480054 
L 396.258791 -412.712141 
L 394.55618 -407.944229 
L 392.692213 -403.176316 
L 390.709907 -398.408404 
L 388.660836 -393.640491 
L 386.600722 -388.872579 
L 384.584737 -384.104666 
L 382.663031 -379.336754 
L 380.876977 -374.568841 
L 379.256503 -369.800929 
L 377.818727 -365.033016 
L 376.567919 -360.265104 
L 375.496668 -355.497191 
L 374.587995 -350.729279 
L 373.818044 -345.961366 
L 373.159017 -341.193454 
L 372.581987 -336.425541 
L 372.059339 -331.657629 
L 371.566658 -326.889717 
L 371.083975 -322.121804 
L 370.596384 -317.353892 
L 370.094105 -312.585979 
L 369.572102 -307.818067 
L 369.029399 -303.050154 
L 368.468236 -298.282242 
L 367.893189 -293.514329 
L 367.31035 -288.746417 
L 366.726627 -283.978504 
L 366.149209 -279.210592 
L 365.585163 -274.442679 
L 365.041168 -269.674767 
L 364.52332 -264.906854 
L 364.036991 -260.138942 
L 363.586697 -255.371029 
L 363.17597 -250.603117 
L 362.807244 -245.835204 
L 362.481759 -241.067292 
L 362.199524 -236.299379 
L 361.959347 -231.531467 
L 361.758937 -226.763554 
L 361.595097 -221.995642 
L 361.463956 -217.227729 
L 361.361249 -212.459817 
z
" style="stroke: #3d3d3d; stroke-opacity: 0.5"/>
    </defs>
    <g clip-path="url(#pba25c87d44)">
     <use xlink:href="#mdb42dfd45d" x="0" y="722.183991" style="fill: #c03d3e; fill-opacity: 0.5; stroke: #3d3d3d; stroke-opacity: 0.5"/>
    </g>
   </g>
   <g id="PolyCollection_4">
    <defs>
     <path id="m093a904db0" d="M 473.174183 -249.204935 
L 472.200817 -249.204935 
L 472.014037 -253.543126 
L 471.771453 -257.881317 
L 471.462644 -262.219507 
L 471.077435 -266.557698 
L 470.606726 -270.895889 
L 470.043477 -275.234079 
L 469.383751 -279.57227 
L 468.627722 -283.910461 
L 467.780509 -288.248651 
L 466.852695 -292.586842 
L 465.860385 -296.925033 
L 464.824716 -301.263224 
L 463.770767 -305.601414 
L 462.725897 -309.939605 
L 461.71763 -314.277796 
L 460.771289 -318.615986 
L 459.907624 -322.954177 
L 459.140736 -327.292368 
L 458.476556 -331.630559 
L 457.912105 -335.968749 
L 457.435654 -340.30694 
L 457.027775 -344.645131 
L 456.663172 -348.983321 
L 456.313056 -353.321512 
L 455.947748 -357.659703 
L 455.539191 -361.997894 
L 455.06306 -366.336084 
L 454.500257 -370.674275 
L 453.837644 -375.012466 
L 453.068055 -379.350656 
L 452.189672 -383.688847 
L 451.204982 -388.027038 
L 450.119552 -392.365229 
L 448.940874 -396.703419 
L 447.677465 -401.04161 
L 446.338358 -405.379801 
L 444.933013 -409.717991 
L 443.471599 -414.056182 
L 441.965549 -418.394373 
L 440.428226 -422.732563 
L 438.875561 -427.070754 
L 437.326534 -431.408945 
L 435.803419 -435.747136 
L 434.331746 -440.085326 
L 432.939991 -444.423517 
L 431.659005 -448.761708 
L 430.521236 -453.099898 
L 429.559748 -457.438089 
L 428.807072 -461.77628 
L 428.293879 -466.114471 
L 428.0475 -470.452661 
L 428.090313 -474.790852 
L 428.438078 -479.129043 
L 429.098325 -483.467233 
L 430.068963 -487.805424 
L 431.3373 -492.143615 
L 432.879659 -496.481806 
L 434.661755 -500.819996 
L 436.639918 -505.158187 
L 438.76315 -509.496378 
L 440.975897 -513.834568 
L 443.221319 -518.172759 
L 445.444722 -522.51095 
L 447.596835 -526.849141 
L 449.636562 -531.187331 
L 451.532953 -535.525522 
L 453.266197 -539.863713 
L 454.827607 -544.201903 
L 456.218658 -548.540094 
L 457.44928 -552.878285 
L 458.535672 -557.216476 
L 459.497938 -561.554666 
L 460.357804 -565.892857 
L 461.13668 -570.231048 
L 461.854163 -574.569238 
L 462.527076 -578.907429 
L 463.168995 -583.24562 
L 463.790174 -587.58381 
L 464.397773 -591.922001 
L 464.996232 -596.260192 
L 465.587715 -600.598383 
L 466.172534 -604.936573 
L 466.749514 -609.274764 
L 467.316304 -613.612955 
L 467.869646 -617.951145 
L 468.405626 -622.289336 
L 468.919927 -626.627527 
L 469.408113 -630.965718 
L 469.865917 -635.303908 
L 470.289543 -639.642099 
L 470.675931 -643.98029 
L 471.02298 -648.31848 
L 471.329686 -652.656671 
L 471.596192 -656.994862 
L 471.823746 -661.333053 
L 472.014572 -665.671243 
L 472.171674 -670.009434 
L 472.298603 -674.347625 
L 472.399219 -678.685815 
L 472.975781 -678.685815 
L 472.975781 -678.685815 
L 473.076397 -674.347625 
L 473.203326 -670.009434 
L 473.360428 -665.671243 
L 473.551254 -661.333053 
L 473.778808 -656.994862 
L 474.045314 -652.656671 
L 474.35202 -648.31848 
L 474.699069 -643.98029 
L 475.085457 -639.642099 
L 475.509083 -635.303908 
L 475.966887 -630.965718 
L 476.455073 -626.627527 
L 476.969374 -622.289336 
L 477.505354 -617.951145 
L 478.058696 -613.612955 
L 478.625486 -609.274764 
L 479.202466 -604.936573 
L 479.787285 -600.598383 
L 480.378768 -596.260192 
L 480.977227 -591.922001 
L 481.584826 -587.58381 
L 482.206005 -583.24562 
L 482.847924 -578.907429 
L 483.520837 -574.569238 
L 484.23832 -570.231048 
L 485.017196 -565.892857 
L 485.877062 -561.554666 
L 486.839328 -557.216476 
L 487.92572 -552.878285 
L 489.156342 -548.540094 
L 490.547393 -544.201903 
L 492.108803 -539.863713 
L 493.842047 -535.525522 
L 495.738438 -531.187331 
L 497.778165 -526.849141 
L 499.930278 -522.51095 
L 502.153681 -518.172759 
L 504.399103 -513.834568 
L 506.61185 -509.496378 
L 508.735082 -505.158187 
L 510.713245 -500.819996 
L 512.495341 -496.481806 
L 514.0377 -492.143615 
L 515.306037 -487.805424 
L 516.276675 -483.467233 
L 516.936922 -479.129043 
L 517.284687 -474.790852 
L 517.3275 -470.452661 
L 517.081121 -466.114471 
L 516.567928 -461.77628 
L 515.815252 -457.438089 
L 514.853764 -453.099898 
L 513.715995 -448.761708 
L 512.435009 -444.423517 
L 511.043254 -440.085326 
L 509.571581 -435.747136 
L 508.048466 -431.408945 
L 506.499439 -427.070754 
L 504.946774 -422.732563 
L 503.409451 -418.394373 
L 501.903401 -414.056182 
L 500.441987 -409.717991 
L 499.036642 -405.379801 
L 497.697535 -401.04161 
L 496.434126 -396.703419 
L 495.255448 -392.365229 
L 494.170018 -388.027038 
L 493.185328 -383.688847 
L 492.306945 -379.350656 
L 491.537356 -375.012466 
L 490.874743 -370.674275 
L 490.31194 -366.336084 
L 489.835809 -361.997894 
L 489.427252 -357.659703 
L 489.061944 -353.321512 
L 488.711828 -348.983321 
L 488.347225 -344.645131 
L 487.939346 -340.30694 
L 487.462895 -335.968749 
L 486.898444 -331.630559 
L 486.234264 -327.292368 
L 485.467376 -322.954177 
L 484.603711 -318.615986 
L 483.65737 -314.277796 
L 482.649103 -309.939605 
L 481.604233 -305.601414 
L 480.550284 -301.263224 
L 479.514615 -296.925033 
L 478.522305 -292.586842 
L 477.594491 -288.248651 
L 476.747278 -283.910461 
L 475.991249 -279.57227 
L 475.331523 -275.234079 
L 474.768274 -270.895889 
L 474.297565 -266.557698 
L 473.912356 -262.219507 
L 473.603547 -257.881317 
L 473.360963 -253.543126 
L 473.174183 -249.204935 
z
" style="stroke: #3d3d3d; stroke-opacity: 0.5"/>
    </defs>
    <g clip-path="url(#pba25c87d44)">
     <use xlink:href="#m093a904db0" x="0" y="722.183991" style="fill: #9372b2; fill-opacity: 0.5; stroke: #3d3d3d; stroke-opacity: 0.5"/>
    </g>
   </g>
   <g id="PolyCollection_5">
    <defs>
     <path id="ma28a9c41a6" d="M 584.578477 -216.811099 
L 583.996523 -216.811099 
L 583.886589 -221.588603 
L 583.745156 -226.366107 
L 583.566816 -231.143611 
L 583.346297 -235.921115 
L 583.078765 -240.698619 
L 582.760119 -245.476123 
L 582.387276 -250.253627 
L 581.958398 -255.031131 
L 581.473053 -259.808635 
L 580.932308 -264.586139 
L 580.338736 -269.363643 
L 579.696367 -274.141147 
L 579.01058 -278.918651 
L 578.287956 -283.696155 
L 577.536082 -288.473659 
L 576.763312 -293.251162 
L 575.978441 -298.028666 
L 575.190286 -302.80617 
L 574.40713 -307.583674 
L 573.636039 -312.361178 
L 572.882046 -317.138682 
L 572.147286 -321.916186 
L 571.430154 -326.69369 
L 570.724627 -331.471194 
L 570.019896 -336.248698 
L 569.300445 -341.026202 
L 568.546691 -345.803706 
L 567.736226 -350.58121 
L 566.845617 -355.358714 
L 565.852643 -360.136218 
L 564.738725 -364.913722 
L 563.491284 -369.691226 
L 562.105694 -374.46873 
L 560.586561 -379.246234 
L 558.948089 -384.023738 
L 557.213463 -388.801242 
L 555.41327 -393.578746 
L 553.583165 -398.35625 
L 551.761087 -403.133754 
L 549.984402 -407.911257 
L 548.287371 -412.688761 
L 546.699277 -417.466265 
L 545.243408 -422.243769 
L 543.936973 -427.021273 
L 542.791844 -431.798777 
L 541.815863 -436.576281 
L 541.014426 -441.353785 
L 540.391962 -446.131289 
L 539.953044 -450.908793 
L 539.702932 -455.686297 
L 539.6475 -460.463801 
L 539.792649 -465.241305 
L 540.143364 -470.018809 
L 540.702679 -474.796313 
L 541.470748 -479.573817 
L 542.444208 -484.351321 
L 543.615878 -489.128825 
L 544.974792 -493.906329 
L 546.50645 -498.683833 
L 548.19317 -503.461337 
L 550.014421 -508.238841 
L 551.947072 -513.016345 
L 553.965562 -517.793849 
L 556.042056 -522.571353 
L 558.146704 -527.348856 
L 560.248106 -532.12636 
L 562.314086 -536.903864 
L 564.312778 -541.681368 
L 566.214007 -546.458872 
L 567.990825 -551.236376 
L 569.621063 -556.01388 
L 571.08871 -560.791384 
L 572.384933 -565.568888 
L 573.508621 -570.346392 
L 574.466344 -575.123896 
L 575.271714 -579.9014 
L 575.944187 -584.678904 
L 576.507415 -589.456408 
L 576.987293 -594.233912 
L 577.409896 -599.011416 
L 577.799516 -603.78892 
L 578.176959 -608.566424 
L 578.558291 -613.343928 
L 578.954112 -618.121432 
L 579.369409 -622.898936 
L 579.803943 -627.67644 
L 580.253099 -632.453944 
L 580.709041 -637.231448 
L 581.162027 -642.008951 
L 581.601718 -646.786455 
L 582.01834 -651.563959 
L 582.403598 -656.341463 
L 582.751285 -661.118967 
L 583.057571 -665.896471 
L 583.321005 -670.673975 
L 583.542278 -675.451479 
L 583.723826 -680.228983 
L 583.869357 -685.006487 
L 583.983352 -689.783991 
L 584.591648 -689.783991 
L 584.591648 -689.783991 
L 584.705643 -685.006487 
L 584.851174 -680.228983 
L 585.032722 -675.451479 
L 585.253995 -670.673975 
L 585.517429 -665.896471 
L 585.823715 -661.118967 
L 586.171402 -656.341463 
L 586.55666 -651.563959 
L 586.973282 -646.786455 
L 587.412973 -642.008951 
L 587.865959 -637.231448 
L 588.321901 -632.453944 
L 588.771057 -627.67644 
L 589.205591 -622.898936 
L 589.620888 -618.121432 
L 590.016709 -613.343928 
L 590.398041 -608.566424 
L 590.775484 -603.78892 
L 591.165104 -599.011416 
L 591.587707 -594.233912 
L 592.067585 -589.456408 
L 592.630813 -584.678904 
L 593.303286 -579.9014 
L 594.108656 -575.123896 
L 595.066379 -570.346392 
L 596.190067 -565.568888 
L 597.48629 -560.791384 
L 598.953937 -556.01388 
L 600.584175 -551.236376 
L 602.360993 -546.458872 
L 604.262222 -541.681368 
L 606.260914 -536.903864 
L 608.326894 -532.12636 
L 610.428296 -527.348856 
L 612.532944 -522.571353 
L 614.609438 -517.793849 
L 616.627928 -513.016345 
L 618.560579 -508.238841 
L 620.38183 -503.461337 
L 622.06855 -498.683833 
L 623.600208 -493.906329 
L 624.959122 -489.128825 
L 626.130792 -484.351321 
L 627.104252 -479.573817 
L 627.872321 -474.796313 
L 628.431636 -470.018809 
L 628.782351 -465.241305 
L 628.9275 -460.463801 
L 628.872068 -455.686297 
L 628.621956 -450.908793 
L 628.183038 -446.131289 
L 627.560574 -441.353785 
L 626.759137 -436.576281 
L 625.783156 -431.798777 
L 624.638027 -427.021273 
L 623.331592 -422.243769 
L 621.875723 -417.466265 
L 620.287629 -412.688761 
L 618.590598 -407.911257 
L 616.813913 -403.133754 
L 614.991835 -398.35625 
L 613.16173 -393.578746 
L 611.361537 -388.801242 
L 609.626911 -384.023738 
L 607.988439 -379.246234 
L 606.469306 -374.46873 
L 605.083716 -369.691226 
L 603.836275 -364.913722 
L 602.722357 -360.136218 
L 601.729383 -355.358714 
L 600.838774 -350.58121 
L 600.028309 -345.803706 
L 599.274555 -341.026202 
L 598.555104 -336.248698 
L 597.850373 -331.471194 
L 597.144846 -326.69369 
L 596.427714 -321.916186 
L 595.692954 -317.138682 
L 594.938961 -312.361178 
L 594.16787 -307.583674 
L 593.384714 -302.80617 
L 592.596559 -298.028666 
L 591.811688 -293.251162 
L 591.038918 -288.473659 
L 590.287044 -283.696155 
L 589.56442 -278.918651 
L 588.878633 -274.141147 
L 588.236264 -269.363643 
L 587.642692 -264.586139 
L 587.101947 -259.808635 
L 586.616602 -255.031131 
L 586.187724 -250.253627 
L 585.814881 -245.476123 
L 585.496235 -240.698619 
L 585.228703 -235.921115 
L 585.008184 -231.143611 
L 584.829844 -226.366107 
L 584.688411 -221.588603 
L 584.578477 -216.811099 
z
" style="stroke: #3d3d3d; stroke-opacity: 0.5"/>
    </defs>
    <g clip-path="url(#pba25c87d44)">
     <use xlink:href="#ma28a9c41a6" x="0" y="722.183991" style="fill: #845b53; fill-opacity: 0.5; stroke: #3d3d3d; stroke-opacity: 0.5"/>
    </g>
   </g>
   <g id="PolyCollection_6">
    <defs>
     <path id="mf54887ccf6" d="M 696.381628 -251.399133 
L 695.393372 -251.399133 
L 695.218379 -255.775478 
L 694.998959 -260.151822 
L 694.730261 -264.528167 
L 694.408999 -268.904512 
L 694.034087 -273.280856 
L 693.607175 -277.657201 
L 693.132974 -282.033546 
L 692.61928 -286.40989 
L 692.076626 -290.786235 
L 691.517541 -295.16258 
L 690.955439 -299.538924 
L 690.403255 -303.915269 
L 689.871973 -308.291614 
L 689.369246 -312.667959 
L 688.898309 -317.044303 
L 688.457358 -321.420648 
L 688.0395 -325.796993 
L 687.633304 -330.173337 
L 687.223869 -334.549682 
L 686.794248 -338.926027 
L 686.326999 -343.302371 
L 685.805624 -347.678716 
L 685.215672 -352.055061 
L 684.545374 -356.431405 
L 683.785742 -360.80775 
L 682.930206 -365.184095 
L 681.973935 -369.56044 
L 680.913061 -373.936784 
L 679.744032 -378.313129 
L 678.463306 -382.689474 
L 677.067527 -387.065818 
L 675.554211 -391.442163 
L 673.922897 -395.818508 
L 672.1766 -400.194852 
L 670.323359 -404.571197 
L 668.377629 -408.947542 
L 666.36128 -413.323886 
L 664.304018 -417.700231 
L 662.24311 -422.076576 
L 660.222379 -426.452921 
L 658.290524 -430.829265 
L 656.4989 -435.20561 
L 654.898937 -439.581955 
L 653.53941 -443.958299 
L 652.463773 -448.334644 
L 651.707755 -452.710989 
L 651.297375 -457.087333 
L 651.2475 -461.463678 
L 651.56102 -465.840023 
L 652.228692 -470.216367 
L 653.229648 -474.592712 
L 654.532556 -478.969057 
L 656.097351 -483.345401 
L 657.877452 -487.721746 
L 659.822296 -492.098091 
L 661.880019 -496.474436 
L 664.000035 -500.85078 
L 666.135328 -505.227125 
L 668.244231 -509.60347 
L 670.291564 -513.979814 
L 672.249093 -518.356159 
L 674.095348 -522.732504 
L 675.814944 -527.108848 
L 677.397618 -531.485193 
L 678.837203 -535.861538 
L 680.130762 -540.237882 
L 681.278008 -544.614227 
L 682.281089 -548.990572 
L 683.144675 -553.366917 
L 683.876238 -557.743261 
L 684.486357 -562.119606 
L 684.988873 -566.495951 
L 685.400748 -570.872295 
L 685.741568 -575.24864 
L 686.032677 -579.624985 
L 686.296025 -584.001329 
L 686.552862 -588.377674 
L 686.822416 -592.754019 
L 687.120735 -597.130363 
L 687.459787 -601.506708 
L 687.846924 -605.883053 
L 688.284713 -610.259398 
L 688.771154 -614.635742 
L 689.300199 -619.012087 
L 689.862527 -623.388432 
L 690.446474 -627.764776 
L 691.039036 -632.141121 
L 691.626869 -636.517466 
L 692.197206 -640.89381 
L 692.738638 -645.270155 
L 693.241721 -649.6465 
L 693.699361 -654.022844 
L 694.107 -658.399189 
L 694.462584 -662.775534 
L 694.766356 -667.151879 
L 695.020512 -671.528223 
L 695.228767 -675.904568 
L 695.395886 -680.280913 
L 695.527219 -684.657257 
L 696.247781 -684.657257 
L 696.247781 -684.657257 
L 696.379114 -680.280913 
L 696.546233 -675.904568 
L 696.754488 -671.528223 
L 697.008644 -667.151879 
L 697.312416 -662.775534 
L 697.668 -658.399189 
L 698.075639 -654.022844 
L 698.533279 -649.6465 
L 699.036362 -645.270155 
L 699.577794 -640.89381 
L 700.148131 -636.517466 
L 700.735964 -632.141121 
L 701.328526 -627.764776 
L 701.912473 -623.388432 
L 702.474801 -619.012087 
L 703.003846 -614.635742 
L 703.490287 -610.259398 
L 703.928076 -605.883053 
L 704.315213 -601.506708 
L 704.654265 -597.130363 
L 704.952584 -592.754019 
L 705.222138 -588.377674 
L 705.478975 -584.001329 
L 705.742323 -579.624985 
L 706.033432 -575.24864 
L 706.374252 -570.872295 
L 706.786127 -566.495951 
L 707.288643 -562.119606 
L 707.898762 -557.743261 
L 708.630325 -553.366917 
L 709.493911 -548.990572 
L 710.496992 -544.614227 
L 711.644238 -540.237882 
L 712.937797 -535.861538 
L 714.377382 -531.485193 
L 715.960056 -527.108848 
L 717.679652 -522.732504 
L 719.525907 -518.356159 
L 721.483436 -513.979814 
L 723.530769 -509.60347 
L 725.639672 -505.227125 
L 727.774965 -500.85078 
L 729.894981 -496.474436 
L 731.952704 -492.098091 
L 733.897548 -487.721746 
L 735.677649 -483.345401 
L 737.242444 -478.969057 
L 738.545352 -474.592712 
L 739.546308 -470.216367 
L 740.21398 -465.840023 
L 740.5275 -461.463678 
L 740.477625 -457.087333 
L 740.067245 -452.710989 
L 739.311227 -448.334644 
L 738.23559 -443.958299 
L 736.876063 -439.581955 
L 735.2761 -435.20561 
L 733.484476 -430.829265 
L 731.552621 -426.452921 
L 729.53189 -422.076576 
L 727.470982 -417.700231 
L 725.41372 -413.323886 
L 723.397371 -408.947542 
L 721.451641 -404.571197 
L 719.5984 -400.194852 
L 717.852103 -395.818508 
L 716.220789 -391.442163 
L 714.707473 -387.065818 
L 713.311694 -382.689474 
L 712.030968 -378.313129 
L 710.861939 -373.936784 
L 709.801065 -369.56044 
L 708.844794 -365.184095 
L 707.989258 -360.80775 
L 707.229626 -356.431405 
L 706.559328 -352.055061 
L 705.969376 -347.678716 
L 705.448001 -343.302371 
L 704.980752 -338.926027 
L 704.551131 -334.549682 
L 704.141696 -330.173337 
L 703.7355 -325.796993 
L 703.317642 -321.420648 
L 702.876691 -317.044303 
L 702.405754 -312.667959 
L 701.903027 -308.291614 
L 701.371745 -303.915269 
L 700.819561 -299.538924 
L 700.257459 -295.16258 
L 699.698374 -290.786235 
L 699.15572 -286.40989 
L 698.642026 -282.033546 
L 698.167825 -277.657201 
L 697.740913 -273.280856 
L 697.366001 -268.904512 
L 697.044739 -264.528167 
L 696.776041 -260.151822 
L 696.556621 -255.775478 
L 696.381628 -251.399133 
z
" style="stroke: #3d3d3d; stroke-opacity: 0.5"/>
    </defs>
    <g clip-path="url(#pba25c87d44)">
     <use xlink:href="#mf54887ccf6" x="0" y="722.183991" style="fill: #e1812c; fill-opacity: 0.5; stroke: #3d3d3d; stroke-opacity: 0.5"/>
    </g>
   </g>
   <g id="PolyCollection_7">
    <defs>
     <path id="ma6f9cda5a5" d="M 807.71459 -206.138212 
L 807.26041 -206.138212 
L 807.177778 -210.934128 
L 807.073762 -215.730043 
L 806.945871 -220.525959 
L 806.792174 -225.321874 
L 806.611484 -230.117789 
L 806.403451 -234.913705 
L 806.168572 -239.70962 
L 805.908091 -244.505536 
L 805.623796 -249.301451 
L 805.31776 -254.097366 
L 804.992063 -258.893282 
L 804.648533 -263.689197 
L 804.288563 -268.485113 
L 803.913004 -273.281028 
L 803.522151 -278.076944 
L 803.115773 -282.872859 
L 802.693165 -287.668774 
L 802.25318 -292.46469 
L 801.794192 -297.260605 
L 801.314005 -302.056521 
L 800.809685 -306.852436 
L 800.277367 -311.648351 
L 799.712045 -316.444267 
L 799.107411 -321.240182 
L 798.455764 -326.036098 
L 797.748047 -330.832013 
L 796.974057 -335.627928 
L 796.122883 -340.423844 
L 795.183597 -345.219759 
L 794.146229 -350.015675 
L 793.002961 -354.81159 
L 791.74945 -359.607505 
L 790.386074 -364.403421 
L 788.91888 -369.199336 
L 787.35996 -373.995252 
L 785.727059 -378.791167 
L 784.042323 -383.587082 
L 782.330272 -388.382998 
L 780.615256 -393.178913 
L 778.918845 -397.974829 
L 777.257677 -402.770744 
L 775.642269 -407.566659 
L 774.077155 -412.362575 
L 772.562485 -417.15849 
L 771.096889 -421.954406 
L 769.681126 -426.750321 
L 768.321827 -431.546237 
L 767.034545 -436.342152 
L 765.845409 -441.138067 
L 764.790934 -445.933983 
L 763.915828 -450.729898 
L 763.269095 -455.525814 
L 762.898967 -460.321729 
L 762.8475 -465.117644 
L 763.145641 -469.91356 
L 763.80952 -474.709475 
L 764.838431 -479.505391 
L 766.214663 -484.301306 
L 767.905033 -489.097221 
L 769.863711 -493.893137 
L 772.035816 -498.689052 
L 774.361238 -503.484968 
L 776.778236 -508.280883 
L 779.226543 -513.076798 
L 781.649847 -517.872714 
L 783.997661 -522.668629 
L 786.226686 -527.464545 
L 788.301747 -532.26046 
L 790.196397 -537.056375 
L 791.893202 -541.852291 
L 793.383697 -546.648206 
L 794.667997 -551.444122 
L 795.754053 -556.240037 
L 796.656603 -561.035953 
L 797.395866 -565.831868 
L 797.996109 -570.627783 
L 798.48416 -575.423699 
L 798.887966 -580.219614 
L 799.235227 -585.01553 
L 799.552134 -589.811445 
L 799.862216 -594.60736 
L 800.185305 -599.403276 
L 800.536656 -604.199191 
L 800.926302 -608.995107 
L 801.358698 -613.791022 
L 801.832765 -618.586937 
L 802.34236 -623.382853 
L 802.877169 -628.178768 
L 803.423945 -632.974684 
L 803.967968 -637.770599 
L 804.494543 -642.566514 
L 804.990365 -647.36243 
L 805.444599 -652.158345 
L 805.849569 -656.954261 
L 806.201027 -661.750176 
L 806.498022 -666.546091 
L 806.74246 -671.342007 
L 806.938454 -676.137922 
L 807.091587 -680.933838 
L 807.883413 -680.933838 
L 807.883413 -680.933838 
L 808.036546 -676.137922 
L 808.23254 -671.342007 
L 808.476978 -666.546091 
L 808.773973 -661.750176 
L 809.125431 -656.954261 
L 809.530401 -652.158345 
L 809.984635 -647.36243 
L 810.480457 -642.566514 
L 811.007032 -637.770599 
L 811.551055 -632.974684 
L 812.097831 -628.178768 
L 812.63264 -623.382853 
L 813.142235 -618.586937 
L 813.616302 -613.791022 
L 814.048698 -608.995107 
L 814.438344 -604.199191 
L 814.789695 -599.403276 
L 815.112784 -594.60736 
L 815.422866 -589.811445 
L 815.739773 -585.01553 
L 816.087034 -580.219614 
L 816.49084 -575.423699 
L 816.978891 -570.627783 
L 817.579134 -565.831868 
L 818.318397 -561.035953 
L 819.220947 -556.240037 
L 820.307003 -551.444122 
L 821.591303 -546.648206 
L 823.081798 -541.852291 
L 824.778603 -537.056375 
L 826.673253 -532.26046 
L 828.748314 -527.464545 
L 830.977339 -522.668629 
L 833.325153 -517.872714 
L 835.748457 -513.076798 
L 838.196764 -508.280883 
L 840.613762 -503.484968 
L 842.939184 -498.689052 
L 845.111289 -493.893137 
L 847.069967 -489.097221 
L 848.760337 -484.301306 
L 850.136569 -479.505391 
L 851.16548 -474.709475 
L 851.829359 -469.91356 
L 852.1275 -465.117644 
L 852.076033 -460.321729 
L 851.705905 -455.525814 
L 851.059172 -450.729898 
L 850.184066 -445.933983 
L 849.129591 -441.138067 
L 847.940455 -436.342152 
L 846.653173 -431.546237 
L 845.293874 -426.750321 
L 843.878111 -421.954406 
L 842.412515 -417.15849 
L 840.897845 -412.362575 
L 839.332731 -407.566659 
L 837.717323 -402.770744 
L 836.056155 -397.974829 
L 834.359744 -393.178913 
L 832.644728 -388.382998 
L 830.932677 -383.587082 
L 829.247941 -378.791167 
L 827.61504 -373.995252 
L 826.05612 -369.199336 
L 824.588926 -364.403421 
L 823.22555 -359.607505 
L 821.972039 -354.81159 
L 820.828771 -350.015675 
L 819.791403 -345.219759 
L 818.852117 -340.423844 
L 818.000943 -335.627928 
L 817.226953 -330.832013 
L 816.519236 -326.036098 
L 815.867589 -321.240182 
L 815.262955 -316.444267 
L 814.697633 -311.648351 
L 814.165315 -306.852436 
L 813.660995 -302.056521 
L 813.180808 -297.260605 
L 812.72182 -292.46469 
L 812.281835 -287.668774 
L 811.859227 -282.872859 
L 811.452849 -278.076944 
L 811.061996 -273.281028 
L 810.686437 -268.485113 
L 810.326467 -263.689197 
L 809.982937 -258.893282 
L 809.65724 -254.097366 
L 809.351204 -249.301451 
L 809.066909 -244.505536 
L 808.806428 -239.70962 
L 808.571549 -234.913705 
L 808.363516 -230.117789 
L 808.182826 -225.321874 
L 808.029129 -220.525959 
L 807.901238 -215.730043 
L 807.797222 -210.934128 
L 807.71459 -206.138212 
z
" style="stroke: #3d3d3d; stroke-opacity: 0.5"/>
    </defs>
    <g clip-path="url(#pba25c87d44)">
     <use xlink:href="#ma6f9cda5a5" x="0" y="722.183991" style="fill: #3a923a; fill-opacity: 0.5; stroke: #3d3d3d; stroke-opacity: 0.5"/>
    </g>
   </g>
   <g id="line2d_8">
    <path d="M 137.8875 412.666511 
L 137.8875 118.42324 
" clip-path="url(#pba25c87d44)" style="fill: none; stroke: #3d3d3d; stroke-width: 1.5; stroke-linecap: round"/>
   </g>
   <g id="line2d_9">
    <path d="M 137.8875 309.098701 
L 137.8875 227.444349 
" clip-path="url(#pba25c87d44)" style="fill: none; stroke: #3d3d3d; stroke-width: 4.5; stroke-linecap: round"/>
   </g>
   <g id="line2d_10">
    <path d="M 137.8875 254.525906 
" clip-path="url(#pba25c87d44)" style="fill: none; stroke: #3d3d3d; stroke-width: 1.5; stroke-linecap: round"/>
    <defs>
     <path id="me674f4995d" d="M 1.875 0 
L -1.875 -0 
" style="stroke: #ffffff; stroke-width: 0.9"/>
    </defs>
    <g clip-path="url(#pba25c87d44)">
     <use xlink:href="#me674f4995d" x="137.8875" y="254.525906" style="fill: #ffffff; stroke: #ffffff; stroke-width: 0.9"/>
    </g>
   </g>
   <g id="line2d_11">
    <path d="M 249.4875 428.044407 
L 249.4875 172.964899 
" clip-path="url(#pba25c87d44)" style="fill: none; stroke: #3d3d3d; stroke-width: 1.5; stroke-linecap: round"/>
   </g>
   <g id="line2d_12">
    <path d="M 249.4875 342.14153 
L 249.4875 269.22849 
" clip-path="url(#pba25c87d44)" style="fill: none; stroke: #3d3d3d; stroke-width: 4.5; stroke-linecap: round"/>
   </g>
   <g id="line2d_13">
    <path d="M 249.4875 300.414142 
" clip-path="url(#pba25c87d44)" style="fill: none; stroke: #3d3d3d; stroke-width: 1.5; stroke-linecap: round"/>
    <g clip-path="url(#pba25c87d44)">
     <use xlink:href="#me674f4995d" x="249.4875" y="300.414142" style="fill: #ffffff; stroke: #ffffff; stroke-width: 0.9"/>
    </g>
   </g>
   <g id="line2d_14">
    <path d="M 361.0875 418.915377 
L 361.0875 99.914694 
" clip-path="url(#pba25c87d44)" style="fill: none; stroke: #3d3d3d; stroke-width: 1.5; stroke-linecap: round"/>
   </g>
   <g id="line2d_15">
    <path d="M 361.0875 306.421061 
L 361.0875 219.669208 
" clip-path="url(#pba25c87d44)" style="fill: none; stroke: #3d3d3d; stroke-width: 4.5; stroke-linecap: round"/>
   </g>
   <g id="line2d_16">
    <path d="M 361.0875 262.689372 
" clip-path="url(#pba25c87d44)" style="fill: none; stroke: #3d3d3d; stroke-width: 1.5; stroke-linecap: round"/>
    <g clip-path="url(#pba25c87d44)">
     <use xlink:href="#me674f4995d" x="361.0875" y="262.689372" style="fill: #ffffff; stroke: #ffffff; stroke-width: 0.9"/>
    </g>
   </g>
   <g id="line2d_17">
    <path d="M 472.6875 411.353384 
L 472.6875 105.123847 
" clip-path="url(#pba25c87d44)" style="fill: none; stroke: #3d3d3d; stroke-width: 1.5; stroke-linecap: round"/>
   </g>
   <g id="line2d_18">
    <path d="M 472.6875 313.146591 
L 472.6875 222.228368 
" clip-path="url(#pba25c87d44)" style="fill: none; stroke: #3d3d3d; stroke-width: 4.5; stroke-linecap: round"/>
   </g>
   <g id="line2d_19">
    <path d="M 472.6875 258.853085 
" clip-path="url(#pba25c87d44)" style="fill: none; stroke: #3d3d3d; stroke-width: 1.5; stroke-linecap: round"/>
    <g clip-path="url(#pba25c87d44)">
     <use xlink:href="#me674f4995d" x="472.6875" y="258.853085" style="fill: #ffffff; stroke: #ffffff; stroke-width: 0.9"/>
    </g>
   </g>
   <g id="line2d_20">
    <path d="M 584.2875 441.555466 
L 584.2875 96.217426 
" clip-path="url(#pba25c87d44)" style="fill: none; stroke: #3d3d3d; stroke-width: 1.5; stroke-linecap: round"/>
   </g>
   <g id="line2d_21">
    <path d="M 584.2875 313.201225 
L 584.2875 224.034694 
" clip-path="url(#pba25c87d44)" style="fill: none; stroke: #3d3d3d; stroke-width: 4.5; stroke-linecap: round"/>
   </g>
   <g id="line2d_22">
    <path d="M 584.2875 267.485899 
" clip-path="url(#pba25c87d44)" style="fill: none; stroke: #3d3d3d; stroke-width: 1.5; stroke-linecap: round"/>
    <g clip-path="url(#pba25c87d44)">
     <use xlink:href="#me674f4995d" x="584.2875" y="267.485899" style="fill: #ffffff; stroke: #ffffff; stroke-width: 0.9"/>
    </g>
   </g>
   <g id="line2d_23">
    <path d="M 695.8875 389.150343 
L 695.8875 134.103081 
" clip-path="url(#pba25c87d44)" style="fill: none; stroke: #3d3d3d; stroke-width: 1.5; stroke-linecap: round"/>
   </g>
   <g id="line2d_24">
    <path d="M 695.8875 294.03779 
L 695.8875 229.613557 
" clip-path="url(#pba25c87d44)" style="fill: none; stroke: #3d3d3d; stroke-width: 4.5; stroke-linecap: round"/>
   </g>
   <g id="line2d_25">
    <path d="M 695.8875 263.381381 
" clip-path="url(#pba25c87d44)" style="fill: none; stroke: #3d3d3d; stroke-width: 1.5; stroke-linecap: round"/>
    <g clip-path="url(#pba25c87d44)">
     <use xlink:href="#me674f4995d" x="695.8875" y="263.381381" style="fill: #ffffff; stroke: #ffffff; stroke-width: 0.9"/>
    </g>
   </g>
   <g id="line2d_26">
    <path d="M 807.4875 417.21168 
L 807.4875 112.241658 
" clip-path="url(#pba25c87d44)" style="fill: none; stroke: #3d3d3d; stroke-width: 1.5; stroke-linecap: round"/>
   </g>
   <g id="line2d_27">
    <path d="M 807.4875 313.235666 
L 807.4875 230.891988 
" clip-path="url(#pba25c87d44)" style="fill: none; stroke: #3d3d3d; stroke-width: 4.5; stroke-linecap: round"/>
   </g>
   <g id="line2d_28">
    <path d="M 807.4875 260.806729 
" clip-path="url(#pba25c87d44)" style="fill: none; stroke: #3d3d3d; stroke-width: 1.5; stroke-linecap: round"/>
    <g clip-path="url(#pba25c87d44)">
     <use xlink:href="#me674f4995d" x="807.4875" y="260.806729" style="fill: #ffffff; stroke: #ffffff; stroke-width: 0.9"/>
    </g>
   </g>
   <g id="patch_3">
    <path d="M 82.0875 561.6 
L 863.2875 561.6 
" style="fill: none; stroke: #cccccc; stroke-width: 0.8; stroke-linejoin: miter; stroke-linecap: square"/>
   </g>
  </g>
 </g>
 <defs>
  <clipPath id="pba25c87d44">
   <rect x="82.0875" y="7.2" width="781.2" height="554.4"/>
  </clipPath>
 </defs>
</svg>
