<?xml version="1.0" encoding="utf-8" standalone="no"?>
<!DOCTYPE svg PUBLIC "-//W3C//DTD SVG 1.1//EN"
  "http://www.w3.org/Graphics/SVG/1.1/DTD/svg11.dtd">
<svg xmlns:xlink="http://www.w3.org/1999/xlink" width="864.13125pt" height="722.183991pt" viewBox="0 0 864.13125 722.183991" xmlns="http://www.w3.org/2000/svg" version="1.1">
 <metadata>
  <rdf:RDF xmlns:dc="http://purl.org/dc/elements/1.1/" xmlns:cc="http://creativecommons.org/ns#" xmlns:rdf="http://www.w3.org/1999/02/22-rdf-syntax-ns#">
   <cc:Work>
    <dc:type rdf:resource="http://purl.org/dc/dcmitype/StillImage"/>
    <dc:date>2024-03-17T20:48:17.262662</dc:date>
    <dc:format>image/svg+xml</dc:format>
    <dc:creator>
     <cc:Agent>
      <dc:title>Matplotlib v3.8.0, https://matplotlib.org/</dc:title>
     </cc:Agent>
    </dc:creator>
   </cc:Work>
  </rdf:RDF>
 </metadata>
 <defs>
  <style type="text/css">*{stroke-linejoin: round; stroke-linecap: butt}</style>
 </defs>
 <g id="figure_1">
  <g id="patch_1">
   <path d="M 0 722.183991 
L 864.13125 722.183991 
L 864.13125 0 
L 0 0 
L 0 722.183991 
z
" style="fill: none"/>
  </g>
  <g id="axes_1">
   <g id="patch_2">
    <path d="M 75.73125 561.6 
L 856.93125 561.6 
L 856.93125 7.2 
L 75.73125 7.2 
L 75.73125 561.6 
z
" style="fill: none"/>
   </g>
   <g id="matplotlib.axis_1">
    <g id="xtick_1">
     <g id="text_1">
      <!-- MSA -->
      <g style="fill: #262626" transform="translate(111.157736 610.465141) rotate(-45) scale(0.2 -0.2)">
       <defs>
        <path id="DejaVuSans-4d" d="M 628 4666 
L 1569 4666 
L 2759 1491 
L 3956 4666 
L 4897 4666 
L 4897 0 
L 4281 0 
L 4281 4097 
L 3078 897 
L 2444 897 
L 1241 4097 
L 1241 0 
L 628 0 
L 628 4666 
z
" transform="scale(0.015625)"/>
        <path id="DejaVuSans-53" d="M 3425 4513 
L 3425 3897 
Q 3066 4069 2747 4153 
Q 2428 4238 2131 4238 
Q 1616 4238 1336 4038 
Q 1056 3838 1056 3469 
Q 1056 3159 1242 3001 
Q 1428 2844 1947 2747 
L 2328 2669 
Q 3034 2534 3370 2195 
Q 3706 1856 3706 1288 
Q 3706 609 3251 259 
Q 2797 -91 1919 -91 
Q 1588 -91 1214 -16 
Q 841 59 441 206 
L 441 856 
Q 825 641 1194 531 
Q 1563 422 1919 422 
Q 2459 422 2753 634 
Q 3047 847 3047 1241 
Q 3047 1584 2836 1778 
Q 2625 1972 2144 2069 
L 1759 2144 
Q 1053 2284 737 2584 
Q 422 2884 422 3419 
Q 422 4038 858 4394 
Q 1294 4750 2059 4750 
Q 2388 4750 2728 4690 
Q 3069 4631 3425 4513 
z
" transform="scale(0.015625)"/>
        <path id="DejaVuSans-41" d="M 2188 4044 
L 1331 1722 
L 3047 1722 
L 2188 4044 
z
M 1831 4666 
L 2547 4666 
L 4325 0 
L 3669 0 
L 3244 1197 
L 1141 1197 
L 716 0 
L 50 0 
L 1831 4666 
z
" transform="scale(0.015625)"/>
       </defs>
       <use xlink:href="#DejaVuSans-4d"/>
       <use xlink:href="#DejaVuSans-53" x="86.279297"/>
       <use xlink:href="#DejaVuSans-41" x="151.630859"/>
      </g>
     </g>
    </g>
    <g id="xtick_2">
     <g id="text_2">
      <!-- Template -->
      <g style="fill: #262626" transform="translate(189.34694 643.875936) rotate(-45) scale(0.2 -0.2)">
       <defs>
        <path id="DejaVuSans-54" d="M -19 4666 
L 3928 4666 
L 3928 4134 
L 2272 4134 
L 2272 0 
L 1638 0 
L 1638 4134 
L -19 4134 
L -19 4666 
z
" transform="scale(0.015625)"/>
        <path id="DejaVuSans-65" d="M 3597 1894 
L 3597 1613 
L 953 1613 
Q 991 1019 1311 708 
Q 1631 397 2203 397 
Q 2534 397 2845 478 
Q 3156 559 3463 722 
L 3463 178 
Q 3153 47 2828 -22 
Q 2503 -91 2169 -91 
Q 1331 -91 842 396 
Q 353 884 353 1716 
Q 353 2575 817 3079 
Q 1281 3584 2069 3584 
Q 2775 3584 3186 3129 
Q 3597 2675 3597 1894 
z
M 3022 2063 
Q 3016 2534 2758 2815 
Q 2500 3097 2075 3097 
Q 1594 3097 1305 2825 
Q 1016 2553 972 2059 
L 3022 2063 
z
" transform="scale(0.015625)"/>
        <path id="DejaVuSans-6d" d="M 3328 2828 
Q 3544 3216 3844 3400 
Q 4144 3584 4550 3584 
Q 5097 3584 5394 3201 
Q 5691 2819 5691 2113 
L 5691 0 
L 5113 0 
L 5113 2094 
Q 5113 2597 4934 2840 
Q 4756 3084 4391 3084 
Q 3944 3084 3684 2787 
Q 3425 2491 3425 1978 
L 3425 0 
L 2847 0 
L 2847 2094 
Q 2847 2600 2669 2842 
Q 2491 3084 2119 3084 
Q 1678 3084 1418 2786 
Q 1159 2488 1159 1978 
L 1159 0 
L 581 0 
L 581 3500 
L 1159 3500 
L 1159 2956 
Q 1356 3278 1631 3431 
Q 1906 3584 2284 3584 
Q 2666 3584 2933 3390 
Q 3200 3197 3328 2828 
z
" transform="scale(0.015625)"/>
        <path id="DejaVuSans-70" d="M 1159 525 
L 1159 -1331 
L 581 -1331 
L 581 3500 
L 1159 3500 
L 1159 2969 
Q 1341 3281 1617 3432 
Q 1894 3584 2278 3584 
Q 2916 3584 3314 3078 
Q 3713 2572 3713 1747 
Q 3713 922 3314 415 
Q 2916 -91 2278 -91 
Q 1894 -91 1617 61 
Q 1341 213 1159 525 
z
M 3116 1747 
Q 3116 2381 2855 2742 
Q 2594 3103 2138 3103 
Q 1681 3103 1420 2742 
Q 1159 2381 1159 1747 
Q 1159 1113 1420 752 
Q 1681 391 2138 391 
Q 2594 391 2855 752 
Q 3116 1113 3116 1747 
z
" transform="scale(0.015625)"/>
        <path id="DejaVuSans-6c" d="M 603 4863 
L 1178 4863 
L 1178 0 
L 603 0 
L 603 4863 
z
" transform="scale(0.015625)"/>
        <path id="DejaVuSans-61" d="M 2194 1759 
Q 1497 1759 1228 1600 
Q 959 1441 959 1056 
Q 959 750 1161 570 
Q 1363 391 1709 391 
Q 2188 391 2477 730 
Q 2766 1069 2766 1631 
L 2766 1759 
L 2194 1759 
z
M 3341 1997 
L 3341 0 
L 2766 0 
L 2766 531 
Q 2569 213 2275 61 
Q 1981 -91 1556 -91 
Q 1019 -91 701 211 
Q 384 513 384 1019 
Q 384 1609 779 1909 
Q 1175 2209 1959 2209 
L 2766 2209 
L 2766 2266 
Q 2766 2663 2505 2880 
Q 2244 3097 1772 3097 
Q 1472 3097 1187 3025 
Q 903 2953 641 2809 
L 641 3341 
Q 956 3463 1253 3523 
Q 1550 3584 1831 3584 
Q 2591 3584 2966 3190 
Q 3341 2797 3341 1997 
z
" transform="scale(0.015625)"/>
        <path id="DejaVuSans-74" d="M 1172 4494 
L 1172 3500 
L 2356 3500 
L 2356 3053 
L 1172 3053 
L 1172 1153 
Q 1172 725 1289 603 
Q 1406 481 1766 481 
L 2356 481 
L 2356 0 
L 1766 0 
Q 1100 0 847 248 
Q 594 497 594 1153 
L 594 3053 
L 172 3053 
L 172 3500 
L 594 3500 
L 594 4494 
L 1172 4494 
z
" transform="scale(0.015625)"/>
       </defs>
       <use xlink:href="#DejaVuSans-54"/>
       <use xlink:href="#DejaVuSans-65" x="44.083984"/>
       <use xlink:href="#DejaVuSans-6d" x="105.607422"/>
       <use xlink:href="#DejaVuSans-70" x="203.019531"/>
       <use xlink:href="#DejaVuSans-6c" x="266.496094"/>
       <use xlink:href="#DejaVuSans-61" x="294.279297"/>
       <use xlink:href="#DejaVuSans-74" x="355.558594"/>
       <use xlink:href="#DejaVuSans-65" x="394.767578"/>
      </g>
     </g>
    </g>
    <g id="xtick_3">
     <g id="text_3">
      <!-- Backbone -->
      <g style="fill: #262626" transform="translate(295.846933 648.975944) rotate(-45) scale(0.2 -0.2)">
       <defs>
        <path id="DejaVuSans-42" d="M 1259 2228 
L 1259 519 
L 2272 519 
Q 2781 519 3026 730 
Q 3272 941 3272 1375 
Q 3272 1813 3026 2020 
Q 2781 2228 2272 2228 
L 1259 2228 
z
M 1259 4147 
L 1259 2741 
L 2194 2741 
Q 2656 2741 2882 2914 
Q 3109 3088 3109 3444 
Q 3109 3797 2882 3972 
Q 2656 4147 2194 4147 
L 1259 4147 
z
M 628 4666 
L 2241 4666 
Q 2963 4666 3353 4366 
Q 3744 4066 3744 3513 
Q 3744 3084 3544 2831 
Q 3344 2578 2956 2516 
Q 3422 2416 3680 2098 
Q 3938 1781 3938 1306 
Q 3938 681 3513 340 
Q 3088 0 2303 0 
L 628 0 
L 628 4666 
z
" transform="scale(0.015625)"/>
        <path id="DejaVuSans-63" d="M 3122 3366 
L 3122 2828 
Q 2878 2963 2633 3030 
Q 2388 3097 2138 3097 
Q 1578 3097 1268 2742 
Q 959 2388 959 1747 
Q 959 1106 1268 751 
Q 1578 397 2138 397 
Q 2388 397 2633 464 
Q 2878 531 3122 666 
L 3122 134 
Q 2881 22 2623 -34 
Q 2366 -91 2075 -91 
Q 1284 -91 818 406 
Q 353 903 353 1747 
Q 353 2603 823 3093 
Q 1294 3584 2113 3584 
Q 2378 3584 2631 3529 
Q 2884 3475 3122 3366 
z
" transform="scale(0.015625)"/>
        <path id="DejaVuSans-6b" d="M 581 4863 
L 1159 4863 
L 1159 1991 
L 2875 3500 
L 3609 3500 
L 1753 1863 
L 3688 0 
L 2938 0 
L 1159 1709 
L 1159 0 
L 581 0 
L 581 4863 
z
" transform="scale(0.015625)"/>
        <path id="DejaVuSans-62" d="M 3116 1747 
Q 3116 2381 2855 2742 
Q 2594 3103 2138 3103 
Q 1681 3103 1420 2742 
Q 1159 2381 1159 1747 
Q 1159 1113 1420 752 
Q 1681 391 2138 391 
Q 2594 391 2855 752 
Q 3116 1113 3116 1747 
z
M 1159 2969 
Q 1341 3281 1617 3432 
Q 1894 3584 2278 3584 
Q 2916 3584 3314 3078 
Q 3713 2572 3713 1747 
Q 3713 922 3314 415 
Q 2916 -91 2278 -91 
Q 1894 -91 1617 61 
Q 1341 213 1159 525 
L 1159 0 
L 581 0 
L 581 4863 
L 1159 4863 
L 1159 2969 
z
" transform="scale(0.015625)"/>
        <path id="DejaVuSans-6f" d="M 1959 3097 
Q 1497 3097 1228 2736 
Q 959 2375 959 1747 
Q 959 1119 1226 758 
Q 1494 397 1959 397 
Q 2419 397 2687 759 
Q 2956 1122 2956 1747 
Q 2956 2369 2687 2733 
Q 2419 3097 1959 3097 
z
M 1959 3584 
Q 2709 3584 3137 3096 
Q 3566 2609 3566 1747 
Q 3566 888 3137 398 
Q 2709 -91 1959 -91 
Q 1206 -91 779 398 
Q 353 888 353 1747 
Q 353 2609 779 3096 
Q 1206 3584 1959 3584 
z
" transform="scale(0.015625)"/>
        <path id="DejaVuSans-6e" d="M 3513 2113 
L 3513 0 
L 2938 0 
L 2938 2094 
Q 2938 2591 2744 2837 
Q 2550 3084 2163 3084 
Q 1697 3084 1428 2787 
Q 1159 2491 1159 1978 
L 1159 0 
L 581 0 
L 581 3500 
L 1159 3500 
L 1159 2956 
Q 1366 3272 1645 3428 
Q 1925 3584 2291 3584 
Q 2894 3584 3203 3211 
Q 3513 2838 3513 2113 
z
" transform="scale(0.015625)"/>
       </defs>
       <use xlink:href="#DejaVuSans-42"/>
       <use xlink:href="#DejaVuSans-61" x="68.603516"/>
       <use xlink:href="#DejaVuSans-63" x="129.882812"/>
       <use xlink:href="#DejaVuSans-6b" x="184.863281"/>
       <use xlink:href="#DejaVuSans-62" x="242.773438"/>
       <use xlink:href="#DejaVuSans-6f" x="306.25"/>
       <use xlink:href="#DejaVuSans-6e" x="367.431641"/>
       <use xlink:href="#DejaVuSans-65" x="430.810547"/>
      </g>
     </g>
    </g>
    <g id="xtick_4">
     <g id="text_4">
      <!-- Heuristic C-$\beta$ -->
      <g style="fill: #262626" transform="translate(386.00392 670.706219) rotate(-45) scale(0.2 -0.2)">
       <defs>
        <path id="DejaVuSans-48" d="M 628 4666 
L 1259 4666 
L 1259 2753 
L 3553 2753 
L 3553 4666 
L 4184 4666 
L 4184 0 
L 3553 0 
L 3553 2222 
L 1259 2222 
L 1259 0 
L 628 0 
L 628 4666 
z
" transform="scale(0.015625)"/>
        <path id="DejaVuSans-75" d="M 544 1381 
L 544 3500 
L 1119 3500 
L 1119 1403 
Q 1119 906 1312 657 
Q 1506 409 1894 409 
Q 2359 409 2629 706 
Q 2900 1003 2900 1516 
L 2900 3500 
L 3475 3500 
L 3475 0 
L 2900 0 
L 2900 538 
Q 2691 219 2414 64 
Q 2138 -91 1772 -91 
Q 1169 -91 856 284 
Q 544 659 544 1381 
z
M 1991 3584 
L 1991 3584 
z
" transform="scale(0.015625)"/>
        <path id="DejaVuSans-72" d="M 2631 2963 
Q 2534 3019 2420 3045 
Q 2306 3072 2169 3072 
Q 1681 3072 1420 2755 
Q 1159 2438 1159 1844 
L 1159 0 
L 581 0 
L 581 3500 
L 1159 3500 
L 1159 2956 
Q 1341 3275 1631 3429 
Q 1922 3584 2338 3584 
Q 2397 3584 2469 3576 
Q 2541 3569 2628 3553 
L 2631 2963 
z
" transform="scale(0.015625)"/>
        <path id="DejaVuSans-69" d="M 603 3500 
L 1178 3500 
L 1178 0 
L 603 0 
L 603 3500 
z
M 603 4863 
L 1178 4863 
L 1178 4134 
L 603 4134 
L 603 4863 
z
" transform="scale(0.015625)"/>
        <path id="DejaVuSans-73" d="M 2834 3397 
L 2834 2853 
Q 2591 2978 2328 3040 
Q 2066 3103 1784 3103 
Q 1356 3103 1142 2972 
Q 928 2841 928 2578 
Q 928 2378 1081 2264 
Q 1234 2150 1697 2047 
L 1894 2003 
Q 2506 1872 2764 1633 
Q 3022 1394 3022 966 
Q 3022 478 2636 193 
Q 2250 -91 1575 -91 
Q 1294 -91 989 -36 
Q 684 19 347 128 
L 347 722 
Q 666 556 975 473 
Q 1284 391 1588 391 
Q 1994 391 2212 530 
Q 2431 669 2431 922 
Q 2431 1156 2273 1281 
Q 2116 1406 1581 1522 
L 1381 1569 
Q 847 1681 609 1914 
Q 372 2147 372 2553 
Q 372 3047 722 3315 
Q 1072 3584 1716 3584 
Q 2034 3584 2315 3537 
Q 2597 3491 2834 3397 
z
" transform="scale(0.015625)"/>
        <path id="DejaVuSans-20" transform="scale(0.015625)"/>
        <path id="DejaVuSans-43" d="M 4122 4306 
L 4122 3641 
Q 3803 3938 3442 4084 
Q 3081 4231 2675 4231 
Q 1875 4231 1450 3742 
Q 1025 3253 1025 2328 
Q 1025 1406 1450 917 
Q 1875 428 2675 428 
Q 3081 428 3442 575 
Q 3803 722 4122 1019 
L 4122 359 
Q 3791 134 3420 21 
Q 3050 -91 2638 -91 
Q 1578 -91 968 557 
Q 359 1206 359 2328 
Q 359 3453 968 4101 
Q 1578 4750 2638 4750 
Q 3056 4750 3426 4639 
Q 3797 4528 4122 4306 
z
" transform="scale(0.015625)"/>
        <path id="DejaVuSans-2d" d="M 313 2009 
L 1997 2009 
L 1997 1497 
L 313 1497 
L 313 2009 
z
" transform="scale(0.015625)"/>
        <path id="DejaVuSans-Oblique-3b2" d="M 872 216 
L 572 -1331 
L -6 -1331 
L 928 3478 
Q 1206 4903 2538 4903 
Q 3888 4903 3659 3700 
Q 3503 2844 2894 2531 
Q 3713 2250 3553 1416 
Q 3272 -69 1759 -66 
Q 1097 -63 872 216 
z
M 1019 966 
Q 1259 422 1875 425 
Q 2775 425 2966 1406 
Q 3138 2288 1675 2219 
L 1778 2750 
Q 2909 2731 3106 3750 
Q 3241 4438 2509 4434 
Q 1691 4434 1503 3459 
L 1019 966 
z
" transform="scale(0.015625)"/>
       </defs>
       <use xlink:href="#DejaVuSans-48" transform="translate(0 0.390625)"/>
       <use xlink:href="#DejaVuSans-65" transform="translate(75.195312 0.390625)"/>
       <use xlink:href="#DejaVuSans-75" transform="translate(136.71875 0.390625)"/>
       <use xlink:href="#DejaVuSans-72" transform="translate(200.097656 0.390625)"/>
       <use xlink:href="#DejaVuSans-69" transform="translate(241.210938 0.390625)"/>
       <use xlink:href="#DejaVuSans-73" transform="translate(268.994141 0.390625)"/>
       <use xlink:href="#DejaVuSans-74" transform="translate(321.09375 0.390625)"/>
       <use xlink:href="#DejaVuSans-69" transform="translate(360.302734 0.390625)"/>
       <use xlink:href="#DejaVuSans-63" transform="translate(388.085938 0.390625)"/>
       <use xlink:href="#DejaVuSans-20" transform="translate(443.066406 0.390625)"/>
       <use xlink:href="#DejaVuSans-43" transform="translate(474.853516 0.390625)"/>
       <use xlink:href="#DejaVuSans-2d" transform="translate(544.677734 0.390625)"/>
       <use xlink:href="#DejaVuSans-Oblique-3b2" transform="translate(580.761719 0.390625)"/>
      </g>
     </g>
    </g>
    <g id="xtick_5">
     <g id="text_5">
      <!-- Template C-$\beta$ -->
      <g style="fill: #262626" transform="translate(493.361279 674.94886) rotate(-45) scale(0.2 -0.2)">
       <use xlink:href="#DejaVuSans-54" transform="translate(0 0.390625)"/>
       <use xlink:href="#DejaVuSans-65" transform="translate(61.083984 0.390625)"/>
       <use xlink:href="#DejaVuSans-6d" transform="translate(122.607422 0.390625)"/>
       <use xlink:href="#DejaVuSans-70" transform="translate(220.019531 0.390625)"/>
       <use xlink:href="#DejaVuSans-6c" transform="translate(283.496094 0.390625)"/>
       <use xlink:href="#DejaVuSans-61" transform="translate(311.279297 0.390625)"/>
       <use xlink:href="#DejaVuSans-74" transform="translate(372.558594 0.390625)"/>
       <use xlink:href="#DejaVuSans-65" transform="translate(411.767578 0.390625)"/>
       <use xlink:href="#DejaVuSans-20" transform="translate(473.291016 0.390625)"/>
       <use xlink:href="#DejaVuSans-43" transform="translate(505.078125 0.390625)"/>
       <use xlink:href="#DejaVuSans-2d" transform="translate(574.902344 0.390625)"/>
       <use xlink:href="#DejaVuSans-Oblique-3b2" transform="translate(610.986328 0.390625)"/>
      </g>
     </g>
    </g>
    <g id="xtick_6">
     <g id="text_6">
      <!-- AttnPacker -->
      <g style="fill: #262626" transform="translate(624.274133 655.348744) rotate(-45) scale(0.2 -0.2)">
       <defs>
        <path id="DejaVuSans-50" d="M 1259 4147 
L 1259 2394 
L 2053 2394 
Q 2494 2394 2734 2622 
Q 2975 2850 2975 3272 
Q 2975 3691 2734 3919 
Q 2494 4147 2053 4147 
L 1259 4147 
z
M 628 4666 
L 2053 4666 
Q 2838 4666 3239 4311 
Q 3641 3956 3641 3272 
Q 3641 2581 3239 2228 
Q 2838 1875 2053 1875 
L 1259 1875 
L 1259 0 
L 628 0 
L 628 4666 
z
" transform="scale(0.015625)"/>
       </defs>
       <use xlink:href="#DejaVuSans-41"/>
       <use xlink:href="#DejaVuSans-74" x="66.658203"/>
       <use xlink:href="#DejaVuSans-74" x="105.867188"/>
       <use xlink:href="#DejaVuSans-6e" x="145.076172"/>
       <use xlink:href="#DejaVuSans-50" x="208.455078"/>
       <use xlink:href="#DejaVuSans-61" x="264.257812"/>
       <use xlink:href="#DejaVuSans-63" x="325.537109"/>
       <use xlink:href="#DejaVuSans-6b" x="380.517578"/>
       <use xlink:href="#DejaVuSans-65" x="434.802734"/>
       <use xlink:href="#DejaVuSans-72" x="496.326172"/>
      </g>
     </g>
    </g>
    <g id="xtick_7">
     <g id="text_7">
      <!-- AttnPacker (AF) -->
      <g style="fill: #262626" transform="translate(702.536258 688.686619) rotate(-45) scale(0.2 -0.2)">
       <defs>
        <path id="DejaVuSans-28" d="M 1984 4856 
Q 1566 4138 1362 3434 
Q 1159 2731 1159 2009 
Q 1159 1288 1364 580 
Q 1569 -128 1984 -844 
L 1484 -844 
Q 1016 -109 783 600 
Q 550 1309 550 2009 
Q 550 2706 781 3412 
Q 1013 4119 1484 4856 
L 1984 4856 
z
" transform="scale(0.015625)"/>
        <path id="DejaVuSans-46" d="M 628 4666 
L 3309 4666 
L 3309 4134 
L 1259 4134 
L 1259 2759 
L 3109 2759 
L 3109 2228 
L 1259 2228 
L 1259 0 
L 628 0 
L 628 4666 
z
" transform="scale(0.015625)"/>
        <path id="DejaVuSans-29" d="M 513 4856 
L 1013 4856 
Q 1481 4119 1714 3412 
Q 1947 2706 1947 2009 
Q 1947 1309 1714 600 
Q 1481 -109 1013 -844 
L 513 -844 
Q 928 -128 1133 580 
Q 1338 1288 1338 2009 
Q 1338 2731 1133 3434 
Q 928 4138 513 4856 
z
" transform="scale(0.015625)"/>
       </defs>
       <use xlink:href="#DejaVuSans-41"/>
       <use xlink:href="#DejaVuSans-74" x="66.658203"/>
       <use xlink:href="#DejaVuSans-74" x="105.867188"/>
       <use xlink:href="#DejaVuSans-6e" x="145.076172"/>
       <use xlink:href="#DejaVuSans-50" x="208.455078"/>
       <use xlink:href="#DejaVuSans-61" x="264.257812"/>
       <use xlink:href="#DejaVuSans-63" x="325.537109"/>
       <use xlink:href="#DejaVuSans-6b" x="380.517578"/>
       <use xlink:href="#DejaVuSans-65" x="434.802734"/>
       <use xlink:href="#DejaVuSans-72" x="496.326172"/>
       <use xlink:href="#DejaVuSans-20" x="537.439453"/>
       <use xlink:href="#DejaVuSans-28" x="569.226562"/>
       <use xlink:href="#DejaVuSans-41" x="608.240234"/>
       <use xlink:href="#DejaVuSans-46" x="676.648438"/>
       <use xlink:href="#DejaVuSans-29" x="734.167969"/>
      </g>
     </g>
    </g>
    <g id="text_8">
     <!-- Method -->
     <g style="fill: #262626" transform="translate(428.825 710.824616) scale(0.2 -0.2)">
      <defs>
       <path id="DejaVuSans-68" d="M 3513 2113 
L 3513 0 
L 2938 0 
L 2938 2094 
Q 2938 2591 2744 2837 
Q 2550 3084 2163 3084 
Q 1697 3084 1428 2787 
Q 1159 2491 1159 1978 
L 1159 0 
L 581 0 
L 581 4863 
L 1159 4863 
L 1159 2956 
Q 1366 3272 1645 3428 
Q 1925 3584 2291 3584 
Q 2894 3584 3203 3211 
Q 3513 2838 3513 2113 
z
" transform="scale(0.015625)"/>
       <path id="DejaVuSans-64" d="M 2906 2969 
L 2906 4863 
L 3481 4863 
L 3481 0 
L 2906 0 
L 2906 525 
Q 2725 213 2448 61 
Q 2172 -91 1784 -91 
Q 1150 -91 751 415 
Q 353 922 353 1747 
Q 353 2572 751 3078 
Q 1150 3584 1784 3584 
Q 2172 3584 2448 3432 
Q 2725 3281 2906 2969 
z
M 947 1747 
Q 947 1113 1208 752 
Q 1469 391 1925 391 
Q 2381 391 2643 752 
Q 2906 1113 2906 1747 
Q 2906 2381 2643 2742 
Q 2381 3103 1925 3103 
Q 1469 3103 1208 2742 
Q 947 2381 947 1747 
z
" transform="scale(0.015625)"/>
      </defs>
      <use xlink:href="#DejaVuSans-4d"/>
      <use xlink:href="#DejaVuSans-65" x="86.279297"/>
      <use xlink:href="#DejaVuSans-74" x="147.802734"/>
      <use xlink:href="#DejaVuSans-68" x="187.011719"/>
      <use xlink:href="#DejaVuSans-6f" x="250.390625"/>
      <use xlink:href="#DejaVuSans-64" x="311.572266"/>
     </g>
    </g>
   </g>
   <g id="matplotlib.axis_2">
    <g id="ytick_1">
     <g id="line2d_1">
      <path d="M 75.73125 549.15249 
L 856.93125 549.15249 
" clip-path="url(#pdd8055917e)" style="fill: none; stroke: #cccccc; stroke-width: 0.8; stroke-linecap: round"/>
     </g>
     <g id="text_9">
      <!-- 20 -->
      <g style="fill: #262626" transform="translate(43.28125 556.750928) scale(0.2 -0.2)">
       <defs>
        <path id="DejaVuSans-32" d="M 1228 531 
L 3431 531 
L 3431 0 
L 469 0 
L 469 531 
Q 828 903 1448 1529 
Q 2069 2156 2228 2338 
Q 2531 2678 2651 2914 
Q 2772 3150 2772 3378 
Q 2772 3750 2511 3984 
Q 2250 4219 1831 4219 
Q 1534 4219 1204 4116 
Q 875 4013 500 3803 
L 500 4441 
Q 881 4594 1212 4672 
Q 1544 4750 1819 4750 
Q 2544 4750 2975 4387 
Q 3406 4025 3406 3419 
Q 3406 3131 3298 2873 
Q 3191 2616 2906 2266 
Q 2828 2175 2409 1742 
Q 1991 1309 1228 531 
z
" transform="scale(0.015625)"/>
        <path id="DejaVuSans-30" d="M 2034 4250 
Q 1547 4250 1301 3770 
Q 1056 3291 1056 2328 
Q 1056 1369 1301 889 
Q 1547 409 2034 409 
Q 2525 409 2770 889 
Q 3016 1369 3016 2328 
Q 3016 3291 2770 3770 
Q 2525 4250 2034 4250 
z
M 2034 4750 
Q 2819 4750 3233 4129 
Q 3647 3509 3647 2328 
Q 3647 1150 3233 529 
Q 2819 -91 2034 -91 
Q 1250 -91 836 529 
Q 422 1150 422 2328 
Q 422 3509 836 4129 
Q 1250 4750 2034 4750 
z
" transform="scale(0.015625)"/>
       </defs>
       <use xlink:href="#DejaVuSans-32"/>
       <use xlink:href="#DejaVuSans-30" x="63.623047"/>
      </g>
     </g>
    </g>
    <g id="ytick_2">
     <g id="line2d_2">
      <path d="M 75.73125 433.548802 
L 856.93125 433.548802 
" clip-path="url(#pdd8055917e)" style="fill: none; stroke: #cccccc; stroke-width: 0.8; stroke-linecap: round"/>
     </g>
     <g id="text_10">
      <!-- 40 -->
      <g style="fill: #262626" transform="translate(43.28125 441.147239) scale(0.2 -0.2)">
       <defs>
        <path id="DejaVuSans-34" d="M 2419 4116 
L 825 1625 
L 2419 1625 
L 2419 4116 
z
M 2253 4666 
L 3047 4666 
L 3047 1625 
L 3713 1625 
L 3713 1100 
L 3047 1100 
L 3047 0 
L 2419 0 
L 2419 1100 
L 313 1100 
L 313 1709 
L 2253 4666 
z
" transform="scale(0.015625)"/>
       </defs>
       <use xlink:href="#DejaVuSans-34"/>
       <use xlink:href="#DejaVuSans-30" x="63.623047"/>
      </g>
     </g>
    </g>
    <g id="ytick_3">
     <g id="line2d_3">
      <path d="M 75.73125 317.945113 
L 856.93125 317.945113 
" clip-path="url(#pdd8055917e)" style="fill: none; stroke: #cccccc; stroke-width: 0.8; stroke-linecap: round"/>
     </g>
     <g id="text_11">
      <!-- 60 -->
      <g style="fill: #262626" transform="translate(43.28125 325.543551) scale(0.2 -0.2)">
       <defs>
        <path id="DejaVuSans-36" d="M 2113 2584 
Q 1688 2584 1439 2293 
Q 1191 2003 1191 1497 
Q 1191 994 1439 701 
Q 1688 409 2113 409 
Q 2538 409 2786 701 
Q 3034 994 3034 1497 
Q 3034 2003 2786 2293 
Q 2538 2584 2113 2584 
z
M 3366 4563 
L 3366 3988 
Q 3128 4100 2886 4159 
Q 2644 4219 2406 4219 
Q 1781 4219 1451 3797 
Q 1122 3375 1075 2522 
Q 1259 2794 1537 2939 
Q 1816 3084 2150 3084 
Q 2853 3084 3261 2657 
Q 3669 2231 3669 1497 
Q 3669 778 3244 343 
Q 2819 -91 2113 -91 
Q 1303 -91 875 529 
Q 447 1150 447 2328 
Q 447 3434 972 4092 
Q 1497 4750 2381 4750 
Q 2619 4750 2861 4703 
Q 3103 4656 3366 4563 
z
" transform="scale(0.015625)"/>
       </defs>
       <use xlink:href="#DejaVuSans-36"/>
       <use xlink:href="#DejaVuSans-30" x="63.623047"/>
      </g>
     </g>
    </g>
    <g id="ytick_4">
     <g id="line2d_4">
      <path d="M 75.73125 202.341425 
L 856.93125 202.341425 
" clip-path="url(#pdd8055917e)" style="fill: none; stroke: #cccccc; stroke-width: 0.8; stroke-linecap: round"/>
     </g>
     <g id="text_12">
      <!-- 80 -->
      <g style="fill: #262626" transform="translate(43.28125 209.939862) scale(0.2 -0.2)">
       <defs>
        <path id="DejaVuSans-38" d="M 2034 2216 
Q 1584 2216 1326 1975 
Q 1069 1734 1069 1313 
Q 1069 891 1326 650 
Q 1584 409 2034 409 
Q 2484 409 2743 651 
Q 3003 894 3003 1313 
Q 3003 1734 2745 1975 
Q 2488 2216 2034 2216 
z
M 1403 2484 
Q 997 2584 770 2862 
Q 544 3141 544 3541 
Q 544 4100 942 4425 
Q 1341 4750 2034 4750 
Q 2731 4750 3128 4425 
Q 3525 4100 3525 3541 
Q 3525 3141 3298 2862 
Q 3072 2584 2669 2484 
Q 3125 2378 3379 2068 
Q 3634 1759 3634 1313 
Q 3634 634 3220 271 
Q 2806 -91 2034 -91 
Q 1263 -91 848 271 
Q 434 634 434 1313 
Q 434 1759 690 2068 
Q 947 2378 1403 2484 
z
M 1172 3481 
Q 1172 3119 1398 2916 
Q 1625 2713 2034 2713 
Q 2441 2713 2670 2916 
Q 2900 3119 2900 3481 
Q 2900 3844 2670 4047 
Q 2441 4250 2034 4250 
Q 1625 4250 1398 4047 
Q 1172 3844 1172 3481 
z
" transform="scale(0.015625)"/>
       </defs>
       <use xlink:href="#DejaVuSans-38"/>
       <use xlink:href="#DejaVuSans-30" x="63.623047"/>
      </g>
     </g>
    </g>
    <g id="ytick_5">
     <g id="line2d_5">
      <path d="M 75.73125 86.737736 
L 856.93125 86.737736 
" clip-path="url(#pdd8055917e)" style="fill: none; stroke: #cccccc; stroke-width: 0.8; stroke-linecap: round"/>
     </g>
     <g id="text_13">
      <!-- 100 -->
      <g style="fill: #262626" transform="translate(30.55625 94.336174) scale(0.2 -0.2)">
       <defs>
        <path id="DejaVuSans-31" d="M 794 531 
L 1825 531 
L 1825 4091 
L 703 3866 
L 703 4441 
L 1819 4666 
L 2450 4666 
L 2450 531 
L 3481 531 
L 3481 0 
L 794 0 
L 794 531 
z
" transform="scale(0.015625)"/>
       </defs>
       <use xlink:href="#DejaVuSans-31"/>
       <use xlink:href="#DejaVuSans-30" x="63.623047"/>
       <use xlink:href="#DejaVuSans-30" x="127.246094"/>
      </g>
     </g>
    </g>
    <g id="text_14">
     <!-- pLDDT % -->
     <g style="fill: #262626" transform="translate(22.396875 330.507812) rotate(-90) scale(0.2 -0.2)">
      <defs>
       <path id="DejaVuSans-4c" d="M 628 4666 
L 1259 4666 
L 1259 531 
L 3531 531 
L 3531 0 
L 628 0 
L 628 4666 
z
" transform="scale(0.015625)"/>
       <path id="DejaVuSans-44" d="M 1259 4147 
L 1259 519 
L 2022 519 
Q 2988 519 3436 956 
Q 3884 1394 3884 2338 
Q 3884 3275 3436 3711 
Q 2988 4147 2022 4147 
L 1259 4147 
z
M 628 4666 
L 1925 4666 
Q 3281 4666 3915 4102 
Q 4550 3538 4550 2338 
Q 4550 1131 3912 565 
Q 3275 0 1925 0 
L 628 0 
L 628 4666 
z
" transform="scale(0.015625)"/>
       <path id="DejaVuSans-25" d="M 4653 2053 
Q 4381 2053 4226 1822 
Q 4072 1591 4072 1178 
Q 4072 772 4226 539 
Q 4381 306 4653 306 
Q 4919 306 5073 539 
Q 5228 772 5228 1178 
Q 5228 1588 5073 1820 
Q 4919 2053 4653 2053 
z
M 4653 2450 
Q 5147 2450 5437 2106 
Q 5728 1763 5728 1178 
Q 5728 594 5436 251 
Q 5144 -91 4653 -91 
Q 4153 -91 3862 251 
Q 3572 594 3572 1178 
Q 3572 1766 3864 2108 
Q 4156 2450 4653 2450 
z
M 1428 4353 
Q 1159 4353 1004 4120 
Q 850 3888 850 3481 
Q 850 3069 1003 2837 
Q 1156 2606 1428 2606 
Q 1700 2606 1854 2837 
Q 2009 3069 2009 3481 
Q 2009 3884 1853 4118 
Q 1697 4353 1428 4353 
z
M 4250 4750 
L 4750 4750 
L 1831 -91 
L 1331 -91 
L 4250 4750 
z
M 1428 4750 
Q 1922 4750 2215 4408 
Q 2509 4066 2509 3481 
Q 2509 2891 2217 2550 
Q 1925 2209 1428 2209 
Q 931 2209 642 2551 
Q 353 2894 353 3481 
Q 353 4063 643 4406 
Q 934 4750 1428 4750 
z
" transform="scale(0.015625)"/>
      </defs>
      <use xlink:href="#DejaVuSans-70"/>
      <use xlink:href="#DejaVuSans-4c" x="63.476562"/>
      <use xlink:href="#DejaVuSans-44" x="119.189453"/>
      <use xlink:href="#DejaVuSans-44" x="196.191406"/>
      <use xlink:href="#DejaVuSans-54" x="273.193359"/>
      <use xlink:href="#DejaVuSans-20" x="334.277344"/>
      <use xlink:href="#DejaVuSans-25" x="366.064453"/>
     </g>
    </g>
   </g>
   <g id="PolyCollection_1">
    <defs>
     <path id="mf3899a0012" d="M 131.655602 -185.783991 
L 131.406898 -185.783991 
L 131.349664 -190.619637 
L 131.276337 -195.455284 
L 131.187195 -200.29093 
L 131.084694 -205.126576 
L 130.973725 -209.962222 
L 130.861368 -214.797869 
L 130.756068 -219.633515 
L 130.666297 -224.469161 
L 130.598946 -229.304808 
L 130.557803 -234.140454 
L 130.542572 -238.9761 
L 130.548725 -243.811746 
L 130.568354 -248.647393 
L 130.591876 -253.483039 
L 130.610212 -258.318685 
L 130.616917 -263.154331 
L 130.609717 -267.989978 
L 130.591057 -272.825624 
L 130.567507 -277.66127 
L 130.548206 -282.496917 
L 130.542713 -287.332563 
L 130.558838 -292.168209 
L 130.600961 -297.003855 
L 130.669223 -301.839502 
L 130.759697 -306.675148 
L 130.86541 -311.510794 
L 130.97786 -316.34644 
L 131.088632 -321.182087 
L 131.190716 -326.017733 
L 131.279308 -330.853379 
L 131.352038 -335.689025 
L 131.4087 -340.524672 
L 131.450691 -345.360318 
L 131.480343 -350.195964 
L 131.500318 -355.031611 
L 131.513158 -359.867257 
L 131.521014 -364.702903 
L 131.525537 -369.538549 
L 131.527864 -374.374196 
L 131.528663 -379.209842 
L 131.528177 -384.045488 
L 131.526238 -388.881134 
L 131.522241 -393.716781 
L 131.515075 -398.552427 
L 131.503023 -403.388073 
L 131.483672 -408.22372 
L 131.453863 -413.059366 
L 131.409718 -417.895012 
L 131.346773 -422.730658 
L 131.260209 -427.566305 
L 131.145128 -432.401951 
L 130.996776 -437.237597 
L 130.810624 -442.073243 
L 130.582201 -446.90889 
L 130.306672 -451.744536 
L 129.97823 -456.580182 
L 129.589464 -461.415829 
L 129.130896 -466.251475 
L 128.590834 -471.087121 
L 127.955585 -475.922767 
L 127.209938 -480.758414 
L 126.337755 -485.59406 
L 125.32253 -490.429706 
L 124.14791 -495.265352 
L 122.798353 -500.100999 
L 121.26017 -504.936645 
L 119.523178 -509.772291 
L 117.5829 -514.607938 
L 115.442927 -519.443584 
L 113.116753 -524.27923 
L 110.628377 -529.114876 
L 108.011329 -533.950523 
L 105.306409 -538.786169 
L 102.55915 -543.621815 
L 99.818444 -548.457461 
L 97.137585 -553.293108 
L 94.57811 -558.128754 
L 92.215452 -562.9644 
L 90.144059 -567.800046 
L 88.478852 -572.635693 
L 87.350219 -577.471339 
L 86.89125 -582.306985 
L 87.218282 -587.142632 
L 88.408291 -591.978278 
L 90.47839 -596.813924 
L 93.372914 -601.64957 
L 96.962158 -606.485217 
L 101.054066 -611.320863 
L 105.416967 -616.156509 
L 109.808705 -620.992155 
L 114.006157 -625.827802 
L 117.829419 -630.663448 
L 121.15667 -635.499094 
L 123.928243 -640.334741 
L 126.141005 -645.170387 
L 127.835907 -650.006033 
L 129.082397 -654.841679 
L 129.96309 -659.677326 
L 130.56116 -664.512972 
L 132.50134 -664.512972 
L 132.50134 -664.512972 
L 133.09941 -659.677326 
L 133.980103 -654.841679 
L 135.226593 -650.006033 
L 136.921495 -645.170387 
L 139.134257 -640.334741 
L 141.90583 -635.499094 
L 145.233081 -630.663448 
L 149.056343 -625.827802 
L 153.253795 -620.992155 
L 157.645533 -616.156509 
L 162.008434 -611.320863 
L 166.100342 -606.485217 
L 169.689586 -601.64957 
L 172.58411 -596.813924 
L 174.654209 -591.978278 
L 175.844218 -587.142632 
L 176.17125 -582.306985 
L 175.712281 -577.471339 
L 174.583648 -572.635693 
L 172.918441 -567.800046 
L 170.847048 -562.9644 
L 168.48439 -558.128754 
L 165.924915 -553.293108 
L 163.244056 -548.457461 
L 160.50335 -543.621815 
L 157.756091 -538.786169 
L 155.051171 -533.950523 
L 152.434123 -529.114876 
L 149.945747 -524.27923 
L 147.619573 -519.443584 
L 145.4796 -514.607938 
L 143.539322 -509.772291 
L 141.80233 -504.936645 
L 140.264147 -500.100999 
L 138.91459 -495.265352 
L 137.73997 -490.429706 
L 136.724745 -485.59406 
L 135.852562 -480.758414 
L 135.106915 -475.922767 
L 134.471666 -471.087121 
L 133.931604 -466.251475 
L 133.473036 -461.415829 
L 133.08427 -456.580182 
L 132.755828 -451.744536 
L 132.480299 -446.90889 
L 132.251876 -442.073243 
L 132.065724 -437.237597 
L 131.917372 -432.401951 
L 131.802291 -427.566305 
L 131.715727 -422.730658 
L 131.652782 -417.895012 
L 131.608637 -413.059366 
L 131.578828 -408.22372 
L 131.559477 -403.388073 
L 131.547425 -398.552427 
L 131.540259 -393.716781 
L 131.536262 -388.881134 
L 131.534323 -384.045488 
L 131.533837 -379.209842 
L 131.534636 -374.374196 
L 131.536963 -369.538549 
L 131.541486 -364.702903 
L 131.549342 -359.867257 
L 131.562182 -355.031611 
L 131.582157 -350.195964 
L 131.611809 -345.360318 
L 131.6538 -340.524672 
L 131.710462 -335.689025 
L 131.783192 -330.853379 
L 131.871784 -326.017733 
L 131.973868 -321.182087 
L 132.08464 -316.34644 
L 132.19709 -311.510794 
L 132.302803 -306.675148 
L 132.393277 -301.839502 
L 132.461539 -297.003855 
L 132.503662 -292.168209 
L 132.519787 -287.332563 
L 132.514294 -282.496917 
L 132.494993 -277.66127 
L 132.471443 -272.825624 
L 132.452783 -267.989978 
L 132.445583 -263.154331 
L 132.452288 -258.318685 
L 132.470624 -253.483039 
L 132.494146 -248.647393 
L 132.513775 -243.811746 
L 132.519928 -238.9761 
L 132.504697 -234.140454 
L 132.463554 -229.304808 
L 132.396203 -224.469161 
L 132.306432 -219.633515 
L 132.201132 -214.797869 
L 132.088775 -209.962222 
L 131.977806 -205.126576 
L 131.875305 -200.29093 
L 131.786163 -195.455284 
L 131.712836 -190.619637 
L 131.655602 -185.783991 
z
" style="stroke: #3d3d3d; stroke-opacity: 0.5"/>
    </defs>
    <g clip-path="url(#pdd8055917e)">
     <use xlink:href="#mf3899a0012" x="0" y="722.183991" style="fill: #3274a1; fill-opacity: 0.5; stroke: #3d3d3d; stroke-opacity: 0.5"/>
    </g>
   </g>
   <g id="PolyCollection_2">
    <defs>
     <path id="m7f39d563ac" d="M 243.411165 -549.445027 
L 242.851335 -549.445027 
L 242.751168 -550.340932 
L 242.625841 -551.236837 
L 242.47295 -552.132742 
L 242.291142 -553.028647 
L 242.080486 -553.924551 
L 241.842766 -554.820456 
L 241.581664 -555.716361 
L 241.302766 -556.612266 
L 241.0134 -557.508171 
L 240.722279 -558.404076 
L 240.438997 -559.299981 
L 240.173427 -560.195886 
L 239.935072 -561.091791 
L 239.732449 -561.987695 
L 239.572549 -562.8836 
L 239.460419 -563.779505 
L 239.39888 -564.67541 
L 239.388379 -565.571315 
L 239.426971 -566.46722 
L 239.510412 -567.363125 
L 239.632357 -568.25903 
L 239.784656 -569.154935 
L 239.957739 -570.050839 
L 240.141087 -570.946744 
L 240.323769 -571.842649 
L 240.495004 -572.738554 
L 240.6447 -573.634459 
L 240.763916 -574.530364 
L 240.845191 -575.426269 
L 240.882709 -576.322174 
L 240.872285 -577.218079 
L 240.811209 -578.113984 
L 240.697984 -579.009888 
L 240.532046 -579.905793 
L 240.313508 -580.801698 
L 240.043009 -581.697603 
L 239.721643 -582.593508 
L 239.350985 -583.489413 
L 238.933122 -584.385318 
L 238.470634 -585.281223 
L 237.966448 -586.177128 
L 237.423514 -587.073032 
L 236.844321 -587.968937 
L 236.230291 -588.864842 
L 235.581163 -589.760747 
L 234.894509 -590.656652 
L 234.16549 -591.552557 
L 233.386979 -592.448462 
L 232.550065 -593.344367 
L 231.644923 -594.240272 
L 230.661933 -595.136176 
L 229.592896 -596.032081 
L 228.432157 -596.927986 
L 227.177467 -597.823891 
L 225.830461 -598.719796 
L 224.396689 -599.615701 
L 222.885216 -600.511606 
L 221.307884 -601.407511 
L 219.678356 -602.303416 
L 218.011112 -603.199321 
L 216.320545 -604.095225 
L 214.6203 -604.99113 
L 212.922943 -605.887035 
L 211.240036 -606.78294 
L 209.582606 -607.678845 
L 207.961992 -608.57475 
L 206.390991 -609.470655 
L 204.885158 -610.36656 
L 203.464121 -611.262465 
L 202.152674 -612.158369 
L 200.981446 -613.054274 
L 199.986901 -613.950179 
L 199.210497 -614.846084 
L 198.696898 -615.741989 
L 198.49125 -616.637894 
L 198.635678 -617.533799 
L 199.165305 -618.429704 
L 200.104203 -619.325609 
L 201.461781 -620.221513 
L 203.230087 -621.117418 
L 205.382455 -622.013323 
L 207.873762 -622.909228 
L 210.642376 -623.805133 
L 213.613653 -624.701038 
L 216.704636 -625.596943 
L 219.829467 -626.492848 
L 222.904926 -627.388753 
L 225.855525 -628.284658 
L 228.617661 -629.180562 
L 231.142475 -630.076467 
L 233.397247 -630.972372 
L 235.365361 -631.868277 
L 237.044989 -632.764182 
L 238.446839 -633.660087 
L 239.591295 -634.555992 
L 240.505345 -635.451897 
L 241.219613 -636.347802 
L 241.765757 -637.243706 
L 242.17439 -638.139611 
L 244.08811 -638.139611 
L 244.08811 -638.139611 
L 244.496743 -637.243706 
L 245.042887 -636.347802 
L 245.757155 -635.451897 
L 246.671205 -634.555992 
L 247.815661 -633.660087 
L 249.217511 -632.764182 
L 250.897139 -631.868277 
L 252.865253 -630.972372 
L 255.120025 -630.076467 
L 257.644839 -629.180562 
L 260.406975 -628.284658 
L 263.357574 -627.388753 
L 266.433033 -626.492848 
L 269.557864 -625.596943 
L 272.648847 -624.701038 
L 275.620124 -623.805133 
L 278.388738 -622.909228 
L 280.880045 -622.013323 
L 283.032413 -621.117418 
L 284.800719 -620.221513 
L 286.158297 -619.325609 
L 287.097195 -618.429704 
L 287.626822 -617.533799 
L 287.77125 -616.637894 
L 287.565602 -615.741989 
L 287.052003 -614.846084 
L 286.275599 -613.950179 
L 285.281054 -613.054274 
L 284.109826 -612.158369 
L 282.798379 -611.262465 
L 281.377342 -610.36656 
L 279.871509 -609.470655 
L 278.300508 -608.57475 
L 276.679894 -607.678845 
L 275.022464 -606.78294 
L 273.339557 -605.887035 
L 271.6422 -604.99113 
L 269.941955 -604.095225 
L 268.251388 -603.199321 
L 266.584144 -602.303416 
L 264.954616 -601.407511 
L 263.377284 -600.511606 
L 261.865811 -599.615701 
L 260.432039 -598.719796 
L 259.085033 -597.823891 
L 257.830343 -596.927986 
L 256.669604 -596.032081 
L 255.600567 -595.136176 
L 254.617577 -594.240272 
L 253.712435 -593.344367 
L 252.875521 -592.448462 
L 252.09701 -591.552557 
L 251.367991 -590.656652 
L 250.681337 -589.760747 
L 250.032209 -588.864842 
L 249.418179 -587.968937 
L 248.838986 -587.073032 
L 248.296052 -586.177128 
L 247.791866 -585.281223 
L 247.329378 -584.385318 
L 246.911515 -583.489413 
L 246.540857 -582.593508 
L 246.219491 -581.697603 
L 245.948992 -580.801698 
L 245.730454 -579.905793 
L 245.564516 -579.009888 
L 245.451291 -578.113984 
L 245.390215 -577.218079 
L 245.379791 -576.322174 
L 245.417309 -575.426269 
L 245.498584 -574.530364 
L 245.6178 -573.634459 
L 245.767496 -572.738554 
L 245.938731 -571.842649 
L 246.121413 -570.946744 
L 246.304761 -570.050839 
L 246.477844 -569.154935 
L 246.630143 -568.25903 
L 246.752088 -567.363125 
L 246.835529 -566.46722 
L 246.874121 -565.571315 
L 246.86362 -564.67541 
L 246.802081 -563.779505 
L 246.689951 -562.8836 
L 246.530051 -561.987695 
L 246.327428 -561.091791 
L 246.089073 -560.195886 
L 245.823503 -559.299981 
L 245.540221 -558.404076 
L 245.2491 -557.508171 
L 244.959734 -556.612266 
L 244.680836 -555.716361 
L 244.419734 -554.820456 
L 244.182014 -553.924551 
L 243.971358 -553.028647 
L 243.78955 -552.132742 
L 243.636659 -551.236837 
L 243.511332 -550.340932 
L 243.411165 -549.445027 
z
" style="stroke: #3d3d3d; stroke-opacity: 0.5"/>
    </defs>
    <g clip-path="url(#pdd8055917e)">
     <use xlink:href="#m7f39d563ac" x="0" y="722.183991" style="fill: #d684bd; fill-opacity: 0.5; stroke: #3d3d3d; stroke-opacity: 0.5"/>
    </g>
   </g>
   <g id="PolyCollection_3">
    <defs>
     <path id="m3641f11a24" d="M 355.543606 -192.151904 
L 353.918894 -192.151904 
L 353.567397 -196.709869 
L 353.09352 -201.267833 
L 352.467502 -205.825797 
L 351.657242 -210.383761 
L 350.629934 -214.941725 
L 349.354308 -219.499689 
L 347.80343 -224.057653 
L 345.957895 -228.615618 
L 343.809144 -233.173582 
L 341.362579 -237.731546 
L 338.640059 -242.28951 
L 335.68139 -246.847474 
L 332.544443 -251.405438 
L 329.303683 -255.963402 
L 326.04704 -260.521367 
L 322.871259 -265.079331 
L 319.876074 -269.637295 
L 317.157715 -274.195259 
L 314.802387 -278.753223 
L 312.880355 -283.311187 
L 311.44126 -287.869151 
L 310.511115 -292.427116 
L 310.09125 -296.98508 
L 310.159271 -301.543044 
L 310.671842 -306.101008 
L 311.568952 -310.658972 
L 312.779179 -315.216936 
L 314.225396 -319.7749 
L 315.830379 -324.332865 
L 317.521822 -328.890829 
L 319.236372 -333.448793 
L 320.922444 -338.006757 
L 322.541699 -342.564721 
L 324.069241 -347.122685 
L 325.492682 -351.680649 
L 326.810333 -356.238614 
L 328.028836 -360.796578 
L 329.160534 -365.354542 
L 330.220888 -369.912506 
L 331.226157 -374.47047 
L 332.191511 -379.028434 
L 333.129658 -383.586398 
L 334.049999 -388.144363 
L 334.958294 -392.702327 
L 335.856737 -397.260291 
L 336.744396 -401.818255 
L 337.617881 -406.376219 
L 338.47217 -410.934183 
L 339.301497 -415.492147 
L 340.100197 -420.050112 
L 340.863451 -424.608076 
L 341.587854 -429.16604 
L 342.271763 -433.724004 
L 342.915408 -438.281968 
L 343.52077 -442.839932 
L 344.091263 -447.397897 
L 344.631275 -451.955861 
L 345.145624 -456.513825 
L 345.639005 -461.071789 
L 346.115474 -465.629753 
L 346.578035 -470.187717 
L 347.028345 -474.745681 
L 347.466573 -479.303646 
L 347.891408 -483.86161 
L 348.300238 -488.419574 
L 348.689466 -492.977538 
L 349.054956 -497.535502 
L 349.392567 -502.093466 
L 349.698724 -506.65143 
L 349.970961 -511.209395 
L 350.208377 -515.767359 
L 350.41192 -520.325323 
L 350.584481 -524.883287 
L 350.730752 -529.441251 
L 350.856875 -533.999215 
L 350.969926 -538.557179 
L 351.077293 -543.115144 
L 351.186048 -547.673108 
L 351.302382 -552.231072 
L 351.431155 -556.789036 
L 351.575631 -561.347 
L 351.73737 -565.904964 
L 351.916286 -570.462928 
L 352.110828 -575.020893 
L 352.318241 -579.578857 
L 352.534875 -584.136821 
L 352.756504 -588.694785 
L 352.978637 -593.252749 
L 353.196801 -597.810713 
L 353.406797 -602.368677 
L 353.604912 -606.926642 
L 353.788095 -611.484606 
L 353.954071 -616.04257 
L 354.101405 -620.600534 
L 354.229504 -625.158498 
L 354.338559 -629.716462 
L 354.429445 -634.274426 
L 354.503571 -638.832391 
L 354.562724 -643.390355 
L 354.899776 -643.390355 
L 354.899776 -643.390355 
L 354.958929 -638.832391 
L 355.033055 -634.274426 
L 355.123941 -629.716462 
L 355.232996 -625.158498 
L 355.361095 -620.600534 
L 355.508429 -616.04257 
L 355.674405 -611.484606 
L 355.857588 -606.926642 
L 356.055703 -602.368677 
L 356.265699 -597.810713 
L 356.483863 -593.252749 
L 356.705996 -588.694785 
L 356.927625 -584.136821 
L 357.144259 -579.578857 
L 357.351672 -575.020893 
L 357.546214 -570.462928 
L 357.72513 -565.904964 
L 357.886869 -561.347 
L 358.031345 -556.789036 
L 358.160118 -552.231072 
L 358.276452 -547.673108 
L 358.385207 -543.115144 
L 358.492574 -538.557179 
L 358.605625 -533.999215 
L 358.731748 -529.441251 
L 358.878019 -524.883287 
L 359.05058 -520.325323 
L 359.254123 -515.767359 
L 359.491539 -511.209395 
L 359.763776 -506.65143 
L 360.069933 -502.093466 
L 360.407544 -497.535502 
L 360.773034 -492.977538 
L 361.162262 -488.419574 
L 361.571092 -483.86161 
L 361.995927 -479.303646 
L 362.434155 -474.745681 
L 362.884465 -470.187717 
L 363.347026 -465.629753 
L 363.823495 -461.071789 
L 364.316876 -456.513825 
L 364.831225 -451.955861 
L 365.371237 -447.397897 
L 365.94173 -442.839932 
L 366.547092 -438.281968 
L 367.190737 -433.724004 
L 367.874646 -429.16604 
L 368.599049 -424.608076 
L 369.362303 -420.050112 
L 370.161003 -415.492147 
L 370.99033 -410.934183 
L 371.844619 -406.376219 
L 372.718104 -401.818255 
L 373.605763 -397.260291 
L 374.504206 -392.702327 
L 375.412501 -388.144363 
L 376.332842 -383.586398 
L 377.270989 -379.028434 
L 378.236343 -374.47047 
L 379.241612 -369.912506 
L 380.301966 -365.354542 
L 381.433664 -360.796578 
L 382.652167 -356.238614 
L 383.969818 -351.680649 
L 385.393259 -347.122685 
L 386.920801 -342.564721 
L 388.540056 -338.006757 
L 390.226128 -333.448793 
L 391.940678 -328.890829 
L 393.632121 -324.332865 
L 395.237104 -319.7749 
L 396.683321 -315.216936 
L 397.893548 -310.658972 
L 398.790658 -306.101008 
L 399.303229 -301.543044 
L 399.37125 -296.98508 
L 398.951385 -292.427116 
L 398.02124 -287.869151 
L 396.582145 -283.311187 
L 394.660113 -278.753223 
L 392.304785 -274.195259 
L 389.586426 -269.637295 
L 386.591241 -265.079331 
L 383.41546 -260.521367 
L 380.158817 -255.963402 
L 376.918057 -251.405438 
L 373.78111 -246.847474 
L 370.822441 -242.28951 
L 368.099921 -237.731546 
L 365.653356 -233.173582 
L 363.504605 -228.615618 
L 361.65907 -224.057653 
L 360.108192 -219.499689 
L 358.832566 -214.941725 
L 357.805258 -210.383761 
L 356.994998 -205.825797 
L 356.36898 -201.267833 
L 355.895103 -196.709869 
L 355.543606 -192.151904 
z
" style="stroke: #3d3d3d; stroke-opacity: 0.5"/>
    </defs>
    <g clip-path="url(#pdd8055917e)">
     <use xlink:href="#m3641f11a24" x="0" y="722.183991" style="fill: #c03d3e; fill-opacity: 0.5; stroke: #3d3d3d; stroke-opacity: 0.5"/>
    </g>
   </g>
   <g id="PolyCollection_4">
    <defs>
     <path id="m7a61fe5525" d="M 466.441857 -385.267927 
L 466.220643 -385.267927 
L 466.167501 -387.91364 
L 466.098983 -390.559353 
L 466.015597 -393.205066 
L 465.920247 -395.850779 
L 465.818513 -398.496492 
L 465.718395 -401.142205 
L 465.629416 -403.787918 
L 465.56119 -406.433631 
L 465.521728 -409.079344 
L 465.515896 -411.725057 
L 465.544424 -414.37077 
L 465.603757 -417.016483 
L 465.686778 -419.662196 
L 465.784202 -422.307909 
L 465.886255 -424.953622 
L 465.984213 -427.599335 
L 466.071468 -430.245048 
L 466.14394 -432.890761 
L 466.199888 -435.536474 
L 466.23927 -438.182187 
L 466.262921 -440.8279 
L 466.271757 -443.473613 
L 466.266213 -446.119326 
L 466.24601 -448.765039 
L 466.210301 -451.410752 
L 466.158172 -454.056465 
L 466.089387 -456.702178 
L 466.005235 -459.347891 
L 465.909224 -461.993604 
L 465.8074 -464.639317 
L 465.708077 -467.28503 
L 465.620909 -469.930743 
L 465.555444 -472.576456 
L 465.51943 -475.222169 
L 465.517321 -477.867882 
L 465.549372 -480.513595 
L 465.611572 -483.159309 
L 465.696449 -485.805022 
L 465.794488 -488.450735 
L 465.895779 -491.096448 
L 465.991466 -493.742161 
L 466.074665 -496.387874 
L 466.140715 -499.033587 
L 466.186833 -501.6793 
L 466.211377 -504.325013 
L 466.213016 -506.970726 
L 466.190084 -509.616439 
L 466.140322 -512.262152 
L 466.061123 -514.907865 
L 465.950216 -517.553578 
L 465.806638 -520.199291 
L 465.631671 -522.845004 
L 465.429393 -525.490717 
L 465.20651 -528.13643 
L 464.971321 -530.782143 
L 464.731905 -533.427856 
L 464.493974 -536.073569 
L 464.258996 -538.719282 
L 464.02327 -541.364995 
L 463.778342 -544.010708 
L 463.512706 -546.656421 
L 463.214192 -549.302134 
L 462.87204 -551.947847 
L 462.47761 -554.59356 
L 462.023033 -557.239273 
L 461.497811 -559.884986 
L 460.884131 -562.530699 
L 460.152336 -565.176412 
L 459.258185 -567.822125 
L 458.143321 -570.467838 
L 456.739748 -573.113551 
L 454.978263 -575.759264 
L 452.800016 -578.404977 
L 450.169699 -581.05069 
L 447.088464 -583.696403 
L 443.604524 -586.342116 
L 439.819485 -588.987829 
L 435.888761 -591.633542 
L 432.015016 -594.279255 
L 428.434364 -596.924968 
L 425.396055 -599.570681 
L 423.137503 -602.216394 
L 421.857504 -604.862107 
L 421.69125 -607.50782 
L 422.69102 -610.153533 
L 424.816041 -612.799246 
L 427.933872 -615.444959 
L 431.833934 -618.090673 
L 436.25162 -620.736386 
L 440.899358 -623.382099 
L 445.49955 -626.027812 
L 449.813873 -628.673525 
L 453.664303 -631.319238 
L 456.943131 -633.964951 
L 459.611671 -636.610664 
L 461.689678 -639.256377 
L 463.239013 -641.90209 
L 464.345553 -644.547803 
L 465.102805 -647.193516 
L 467.559695 -647.193516 
L 467.559695 -647.193516 
L 468.316947 -644.547803 
L 469.423487 -641.90209 
L 470.972822 -639.256377 
L 473.050829 -636.610664 
L 475.719369 -633.964951 
L 478.998197 -631.319238 
L 482.848627 -628.673525 
L 487.16295 -626.027812 
L 491.763142 -623.382099 
L 496.41088 -620.736386 
L 500.828566 -618.090673 
L 504.728628 -615.444959 
L 507.846459 -612.799246 
L 509.97148 -610.153533 
L 510.97125 -607.50782 
L 510.804996 -604.862107 
L 509.524997 -602.216394 
L 507.266445 -599.570681 
L 504.228136 -596.924968 
L 500.647484 -594.279255 
L 496.773739 -591.633542 
L 492.843015 -588.987829 
L 489.057976 -586.342116 
L 485.574036 -583.696403 
L 482.492801 -581.05069 
L 479.862484 -578.404977 
L 477.684237 -575.759264 
L 475.922752 -573.113551 
L 474.519179 -570.467838 
L 473.404315 -567.822125 
L 472.510164 -565.176412 
L 471.778369 -562.530699 
L 471.164689 -559.884986 
L 470.639467 -557.239273 
L 470.18489 -554.59356 
L 469.79046 -551.947847 
L 469.448308 -549.302134 
L 469.149794 -546.656421 
L 468.884158 -544.010708 
L 468.63923 -541.364995 
L 468.403504 -538.719282 
L 468.168526 -536.073569 
L 467.930595 -533.427856 
L 467.691179 -530.782143 
L 467.45599 -528.13643 
L 467.233107 -525.490717 
L 467.030829 -522.845004 
L 466.855862 -520.199291 
L 466.712284 -517.553578 
L 466.601377 -514.907865 
L 466.522178 -512.262152 
L 466.472416 -509.616439 
L 466.449484 -506.970726 
L 466.451123 -504.325013 
L 466.475667 -501.6793 
L 466.521785 -499.033587 
L 466.587835 -496.387874 
L 466.671034 -493.742161 
L 466.766721 -491.096448 
L 466.868012 -488.450735 
L 466.966051 -485.805022 
L 467.050928 -483.159309 
L 467.113128 -480.513595 
L 467.145179 -477.867882 
L 467.14307 -475.222169 
L 467.107056 -472.576456 
L 467.041591 -469.930743 
L 466.954423 -467.28503 
L 466.8551 -464.639317 
L 466.753276 -461.993604 
L 466.657265 -459.347891 
L 466.573113 -456.702178 
L 466.504328 -454.056465 
L 466.452199 -451.410752 
L 466.41649 -448.765039 
L 466.396287 -446.119326 
L 466.390743 -443.473613 
L 466.399579 -440.8279 
L 466.42323 -438.182187 
L 466.462612 -435.536474 
L 466.51856 -432.890761 
L 466.591032 -430.245048 
L 466.678287 -427.599335 
L 466.776245 -424.953622 
L 466.878298 -422.307909 
L 466.975722 -419.662196 
L 467.058743 -417.016483 
L 467.118076 -414.37077 
L 467.146604 -411.725057 
L 467.140772 -409.079344 
L 467.10131 -406.433631 
L 467.033084 -403.787918 
L 466.944105 -401.142205 
L 466.843987 -398.496492 
L 466.742253 -395.850779 
L 466.646903 -393.205066 
L 466.563517 -390.559353 
L 466.494999 -387.91364 
L 466.441857 -385.267927 
z
" style="stroke: #3d3d3d; stroke-opacity: 0.5"/>
    </defs>
    <g clip-path="url(#pdd8055917e)">
     <use xlink:href="#m7a61fe5525" x="0" y="722.183991" style="fill: #9372b2; fill-opacity: 0.5; stroke: #3d3d3d; stroke-opacity: 0.5"/>
    </g>
   </g>
   <g id="PolyCollection_5">
    <defs>
     <path id="m4c39096b7c" d="M 578.082828 -511.337835 
L 577.779672 -511.337835 
L 577.723334 -512.613513 
L 577.653599 -513.88919 
L 577.570237 -515.164868 
L 577.474128 -516.440546 
L 577.367439 -517.716223 
L 577.253639 -518.991901 
L 577.13729 -520.267579 
L 577.023615 -521.543256 
L 576.917843 -522.818934 
L 576.824421 -524.094612 
L 576.74621 -525.37029 
L 576.6838 -526.645967 
L 576.635093 -527.921645 
L 576.595259 -529.197323 
L 576.557115 -530.473 
L 576.511907 -531.748678 
L 576.450403 -533.024356 
L 576.364134 -534.300034 
L 576.246613 -535.575711 
L 576.094337 -536.851389 
L 575.907436 -538.127067 
L 575.689876 -539.402744 
L 575.449193 -540.678422 
L 575.195809 -541.9541 
L 574.94203 -543.229778 
L 574.700843 -544.505455 
L 574.484668 -545.781133 
L 574.304165 -547.056811 
L 574.167205 -548.332488 
L 574.078075 -549.608166 
L 574.036943 -550.883844 
L 574.039614 -552.159522 
L 574.077585 -553.435199 
L 574.138389 -554.710877 
L 574.206205 -555.986555 
L 574.262717 -557.262232 
L 574.288135 -558.53791 
L 574.262324 -559.813588 
L 574.165931 -561.089265 
L 573.981428 -562.364943 
L 573.694008 -563.640621 
L 573.292297 -564.916299 
L 572.768902 -566.191976 
L 572.120823 -567.467654 
L 571.349783 -568.743332 
L 570.462484 -570.019009 
L 569.470734 -571.294687 
L 568.391354 -572.570365 
L 567.245661 -573.846043 
L 566.058359 -575.12172 
L 564.855689 -576.397398 
L 563.662827 -577.673076 
L 562.500699 -578.948753 
L 561.382584 -580.224431 
L 560.311066 -581.500109 
L 559.275975 -582.775787 
L 558.25393 -584.051464 
L 557.209925 -585.327142 
L 556.101047 -586.60282 
L 554.882086 -587.878497 
L 553.512347 -589.154175 
L 551.962717 -590.429853 
L 550.221873 -591.705531 
L 548.30061 -592.981208 
L 546.233501 -594.256886 
L 544.077557 -595.532564 
L 541.908042 -596.808241 
L 539.812033 -598.083919 
L 537.880724 -599.359597 
L 536.201578 -600.635274 
L 534.851415 -601.910952 
L 533.891277 -603.18663 
L 533.363532 -604.462308 
L 533.29125 -605.737985 
L 533.679497 -607.013663 
L 534.517886 -608.289341 
L 535.783636 -609.565018 
L 537.444422 -610.840696 
L 539.460533 -612.116374 
L 541.786141 -613.392052 
L 544.369837 -614.667729 
L 547.154806 -615.943407 
L 550.079151 -617.219085 
L 553.076851 -618.494762 
L 556.079617 -619.77044 
L 559.019681 -621.046118 
L 561.833255 -622.321796 
L 564.464187 -623.597473 
L 566.867245 -624.873151 
L 569.010518 -626.148829 
L 570.87656 -627.424506 
L 572.462155 -628.700184 
L 573.776808 -629.975862 
L 574.840276 -631.25154 
L 575.679539 -632.527217 
L 576.325662 -633.802895 
L 576.810919 -635.078573 
L 577.166446 -636.35425 
L 577.420561 -637.629928 
L 578.441939 -637.629928 
L 578.441939 -637.629928 
L 578.696054 -636.35425 
L 579.051581 -635.078573 
L 579.536838 -633.802895 
L 580.182961 -632.527217 
L 581.022224 -631.25154 
L 582.085692 -629.975862 
L 583.400345 -628.700184 
L 584.98594 -627.424506 
L 586.851982 -626.148829 
L 588.995255 -624.873151 
L 591.398313 -623.597473 
L 594.029245 -622.321796 
L 596.842819 -621.046118 
L 599.782883 -619.77044 
L 602.785649 -618.494762 
L 605.783349 -617.219085 
L 608.707694 -615.943407 
L 611.492663 -614.667729 
L 614.076359 -613.392052 
L 616.401967 -612.116374 
L 618.418078 -610.840696 
L 620.078864 -609.565018 
L 621.344614 -608.289341 
L 622.183003 -607.013663 
L 622.57125 -605.737985 
L 622.498968 -604.462308 
L 621.971223 -603.18663 
L 621.011085 -601.910952 
L 619.660922 -600.635274 
L 617.981776 -599.359597 
L 616.050467 -598.083919 
L 613.954458 -596.808241 
L 611.784943 -595.532564 
L 609.628999 -594.256886 
L 607.56189 -592.981208 
L 605.640627 -591.705531 
L 603.899783 -590.429853 
L 602.350153 -589.154175 
L 600.980414 -587.878497 
L 599.761453 -586.60282 
L 598.652575 -585.327142 
L 597.60857 -584.051464 
L 596.586525 -582.775787 
L 595.551434 -581.500109 
L 594.479916 -580.224431 
L 593.361801 -578.948753 
L 592.199673 -577.673076 
L 591.006811 -576.397398 
L 589.804141 -575.12172 
L 588.616839 -573.846043 
L 587.471146 -572.570365 
L 586.391766 -571.294687 
L 585.400016 -570.019009 
L 584.512717 -568.743332 
L 583.741677 -567.467654 
L 583.093598 -566.191976 
L 582.570203 -564.916299 
L 582.168492 -563.640621 
L 581.881072 -562.364943 
L 581.696569 -561.089265 
L 581.600176 -559.813588 
L 581.574365 -558.53791 
L 581.599783 -557.262232 
L 581.656295 -555.986555 
L 581.724111 -554.710877 
L 581.784915 -553.435199 
L 581.822886 -552.159522 
L 581.825557 -550.883844 
L 581.784425 -549.608166 
L 581.695295 -548.332488 
L 581.558335 -547.056811 
L 581.377832 -545.781133 
L 581.161657 -544.505455 
L 580.92047 -543.229778 
L 580.666691 -541.9541 
L 580.413307 -540.678422 
L 580.172624 -539.402744 
L 579.955064 -538.127067 
L 579.768163 -536.851389 
L 579.615887 -535.575711 
L 579.498366 -534.300034 
L 579.412097 -533.024356 
L 579.350593 -531.748678 
L 579.305385 -530.473 
L 579.267241 -529.197323 
L 579.227407 -527.921645 
L 579.1787 -526.645967 
L 579.11629 -525.37029 
L 579.038079 -524.094612 
L 578.944657 -522.818934 
L 578.838885 -521.543256 
L 578.72521 -520.267579 
L 578.608861 -518.991901 
L 578.495061 -517.716223 
L 578.388372 -516.440546 
L 578.292263 -515.164868 
L 578.208901 -513.88919 
L 578.139166 -512.613513 
L 578.082828 -511.337835 
z
" style="stroke: #3d3d3d; stroke-opacity: 0.5"/>
    </defs>
    <g clip-path="url(#pdd8055917e)">
     <use xlink:href="#m4c39096b7c" x="0" y="722.183991" style="fill: #845b53; fill-opacity: 0.5; stroke: #3d3d3d; stroke-opacity: 0.5"/>
    </g>
   </g>
   <g id="PolyCollection_6">
    <defs>
     <path id="m8c62bba9a8" d="M 689.851324 -237.450063 
L 689.211176 -237.450063 
L 689.109889 -242.019093 
L 688.984681 -246.588123 
L 688.832614 -251.157152 
L 688.651203 -255.726182 
L 688.438689 -260.295211 
L 688.194307 -264.864241 
L 687.918549 -269.43327 
L 687.613364 -274.0023 
L 687.282292 -278.57133 
L 686.930481 -283.140359 
L 686.564592 -287.709389 
L 686.192561 -292.278418 
L 685.823241 -296.847448 
L 685.465933 -301.416477 
L 685.129843 -305.985507 
L 684.823526 -310.554537 
L 684.554343 -315.123566 
L 684.328012 -319.692596 
L 684.148276 -324.261625 
L 684.016742 -328.830655 
L 683.932884 -333.399684 
L 683.894227 -337.968714 
L 683.896661 -342.537744 
L 683.934874 -347.106773 
L 684.002817 -351.675803 
L 684.094182 -356.244832 
L 684.202812 -360.813862 
L 684.323034 -365.382891 
L 684.449872 -369.951921 
L 684.579146 -374.520951 
L 684.707471 -379.08998 
L 684.832174 -383.65901 
L 684.95117 -388.228039 
L 685.062807 -392.797069 
L 685.165732 -397.366098 
L 685.258769 -401.935128 
L 685.340834 -406.504158 
L 685.410861 -411.073187 
L 685.467759 -415.642217 
L 685.510352 -420.211246 
L 685.537332 -424.780276 
L 685.54718 -429.349305 
L 685.538093 -433.918335 
L 685.507898 -438.487365 
L 685.453984 -443.056394 
L 685.373256 -447.625424 
L 685.262112 -452.194453 
L 685.116467 -456.763483 
L 684.93179 -461.332512 
L 684.703159 -465.901542 
L 684.425305 -470.470572 
L 684.092614 -475.039601 
L 683.699085 -479.608631 
L 683.238221 -484.17766 
L 682.702854 -488.74669 
L 682.084943 -493.315719 
L 681.375372 -497.884749 
L 680.563807 -502.453779 
L 679.638684 -507.022808 
L 678.587406 -511.591838 
L 677.396802 -516.160867 
L 676.053917 -520.729897 
L 674.547132 -525.298926 
L 672.867624 -529.867956 
L 671.011084 -534.436986 
L 668.979601 -539.006015 
L 666.783539 -543.575045 
L 664.443233 -548.144074 
L 661.990279 -552.713104 
L 659.468193 -557.282133 
L 656.932255 -561.851163 
L 654.448386 -566.420193 
L 652.090984 -570.989222 
L 649.939762 -575.558252 
L 648.075711 -580.127281 
L 646.576454 -584.696311 
L 645.511325 -589.26534 
L 644.93659 -593.83437 
L 644.89125 -598.4034 
L 645.393835 -602.972429 
L 646.440524 -607.541459 
L 648.004818 -612.110488 
L 650.038834 -616.679518 
L 652.476123 -621.248547 
L 655.235774 -625.817577 
L 658.227418 -630.386607 
L 661.356695 -634.955636 
L 664.530689 -639.524666 
L 667.662882 -644.093695 
L 670.677248 -648.662725 
L 673.511231 -653.231755 
L 676.117473 -657.800784 
L 678.464297 -662.369814 
L 680.535074 -666.938843 
L 682.326683 -671.507873 
L 683.84733 -676.076902 
L 685.114012 -680.645932 
L 686.14989 -685.214962 
L 686.981797 -689.783991 
L 692.080703 -689.783991 
L 692.080703 -689.783991 
L 692.91261 -685.214962 
L 693.948488 -680.645932 
L 695.21517 -676.076902 
L 696.735817 -671.507873 
L 698.527426 -666.938843 
L 700.598203 -662.369814 
L 702.945027 -657.800784 
L 705.551269 -653.231755 
L 708.385252 -648.662725 
L 711.399618 -644.093695 
L 714.531811 -639.524666 
L 717.705805 -634.955636 
L 720.835082 -630.386607 
L 723.826726 -625.817577 
L 726.586377 -621.248547 
L 729.023666 -616.679518 
L 731.057682 -612.110488 
L 732.621976 -607.541459 
L 733.668665 -602.972429 
L 734.17125 -598.4034 
L 734.12591 -593.83437 
L 733.551175 -589.26534 
L 732.486046 -584.696311 
L 730.986789 -580.127281 
L 729.122738 -575.558252 
L 726.971516 -570.989222 
L 724.614114 -566.420193 
L 722.130245 -561.851163 
L 719.594307 -557.282133 
L 717.072221 -552.713104 
L 714.619267 -548.144074 
L 712.278961 -543.575045 
L 710.082899 -539.006015 
L 708.051416 -534.436986 
L 706.194876 -529.867956 
L 704.515368 -525.298926 
L 703.008583 -520.729897 
L 701.665698 -516.160867 
L 700.475094 -511.591838 
L 699.423816 -507.022808 
L 698.498693 -502.453779 
L 697.687128 -497.884749 
L 696.977557 -493.315719 
L 696.359646 -488.74669 
L 695.824279 -484.17766 
L 695.363415 -479.608631 
L 694.969886 -475.039601 
L 694.637195 -470.470572 
L 694.359341 -465.901542 
L 694.13071 -461.332512 
L 693.946033 -456.763483 
L 693.800388 -452.194453 
L 693.689244 -447.625424 
L 693.608516 -443.056394 
L 693.554602 -438.487365 
L 693.524407 -433.918335 
L 693.51532 -429.349305 
L 693.525168 -424.780276 
L 693.552148 -420.211246 
L 693.594741 -415.642217 
L 693.651639 -411.073187 
L 693.721666 -406.504158 
L 693.803731 -401.935128 
L 693.896768 -397.366098 
L 693.999693 -392.797069 
L 694.11133 -388.228039 
L 694.230326 -383.65901 
L 694.355029 -379.08998 
L 694.483354 -374.520951 
L 694.612628 -369.951921 
L 694.739466 -365.382891 
L 694.859688 -360.813862 
L 694.968318 -356.244832 
L 695.059683 -351.675803 
L 695.127626 -347.106773 
L 695.165839 -342.537744 
L 695.168273 -337.968714 
L 695.129616 -333.399684 
L 695.045758 -328.830655 
L 694.914224 -324.261625 
L 694.734488 -319.692596 
L 694.508157 -315.123566 
L 694.238974 -310.554537 
L 693.932657 -305.985507 
L 693.596567 -301.416477 
L 693.239259 -296.847448 
L 692.869939 -292.278418 
L 692.497908 -287.709389 
L 692.132019 -283.140359 
L 691.780208 -278.57133 
L 691.449136 -274.0023 
L 691.143951 -269.43327 
L 690.868193 -264.864241 
L 690.623811 -260.295211 
L 690.411297 -255.726182 
L 690.229886 -251.157152 
L 690.077819 -246.588123 
L 689.952611 -242.019093 
L 689.851324 -237.450063 
z
" style="stroke: #3d3d3d; stroke-opacity: 0.5"/>
    </defs>
    <g clip-path="url(#pdd8055917e)">
     <use xlink:href="#m8c62bba9a8" x="0" y="722.183991" style="fill: #e1812c; fill-opacity: 0.5; stroke: #3d3d3d; stroke-opacity: 0.5"/>
    </g>
   </g>
   <g id="PolyCollection_7">
    <defs>
     <path id="m75a8875cb1" d="M 801.47149 -558.125102 
L 800.79101 -558.125102 
L 800.672242 -558.920627 
L 800.524902 -559.716152 
L 800.346914 -560.511677 
L 800.137732 -561.307202 
L 799.898819 -562.102728 
L 799.634019 -562.898253 
L 799.349732 -563.693778 
L 799.054825 -564.489303 
L 798.760229 -565.284828 
L 798.478218 -566.080353 
L 798.221401 -566.875878 
L 798.001533 -567.671403 
L 797.828275 -568.466928 
L 797.708062 -569.262453 
L 797.643234 -570.057978 
L 797.631587 -570.853503 
L 797.666402 -571.649028 
L 797.736989 -572.444553 
L 797.829681 -573.240078 
L 797.929165 -574.035603 
L 798.019971 -574.831128 
L 798.087936 -575.626653 
L 798.121454 -576.422178 
L 798.112364 -577.217703 
L 798.056388 -578.013228 
L 797.953084 -578.808753 
L 797.80537 -579.604278 
L 797.618714 -580.399803 
L 797.400137 -581.195328 
L 797.157175 -581.990853 
L 796.896958 -582.786378 
L 796.625513 -583.581903 
L 796.347346 -584.377428 
L 796.065306 -585.172954 
L 795.780686 -585.968479 
L 795.493457 -586.764004 
L 795.20253 -587.559529 
L 794.90594 -588.355054 
L 794.600863 -589.150579 
L 794.283468 -589.946104 
L 793.948606 -590.741629 
L 793.589442 -591.537154 
L 793.197135 -592.332679 
L 792.760722 -593.128204 
L 792.267303 -593.923729 
L 791.702609 -594.719254 
L 791.051958 -595.514779 
L 790.301526 -596.310304 
L 789.439786 -597.105829 
L 788.458933 -597.901354 
L 787.356058 -598.696879 
L 786.133896 -599.492404 
L 784.800978 -600.287929 
L 783.371142 -601.083454 
L 781.862423 -601.878979 
L 780.295462 -602.674504 
L 778.691637 -603.470029 
L 777.071177 -604.265554 
L 775.451529 -605.061079 
L 773.846187 -605.856604 
L 772.264173 -606.652129 
L 770.71022 -607.447654 
L 769.185663 -608.24318 
L 767.689925 -609.038705 
L 766.222438 -609.83423 
L 764.784791 -610.629755 
L 763.382874 -611.42528 
L 762.028764 -612.220805 
L 760.742143 -613.01633 
L 759.55102 -613.811855 
L 758.491585 -614.60738 
L 757.607103 -615.402905 
L 756.945786 -616.19843 
L 756.557753 -616.993955 
L 756.49125 -617.78948 
L 756.788461 -618.585005 
L 757.481296 -619.38053 
L 758.587632 -620.176055 
L 760.108444 -620.97158 
L 762.026208 -621.767105 
L 764.304818 -622.56263 
L 766.891095 -623.358155 
L 769.71777 -624.15368 
L 772.70765 -624.949205 
L 775.778544 -625.74473 
L 778.848449 -626.540255 
L 781.84048 -627.33578 
L 784.687097 -628.131305 
L 787.333279 -628.92683 
L 789.738458 -629.722355 
L 791.877149 -630.51788 
L 793.73839 -631.313405 
L 795.324192 -632.108931 
L 796.647286 -632.904456 
L 797.728486 -633.699981 
L 798.593951 -634.495506 
L 799.272625 -635.291031 
L 799.794018 -636.086556 
L 800.186461 -636.882081 
L 802.076039 -636.882081 
L 802.076039 -636.882081 
L 802.468482 -636.086556 
L 802.989875 -635.291031 
L 803.668549 -634.495506 
L 804.534014 -633.699981 
L 805.615214 -632.904456 
L 806.938308 -632.108931 
L 808.52411 -631.313405 
L 810.385351 -630.51788 
L 812.524042 -629.722355 
L 814.929221 -628.92683 
L 817.575403 -628.131305 
L 820.42202 -627.33578 
L 823.414051 -626.540255 
L 826.483956 -625.74473 
L 829.55485 -624.949205 
L 832.54473 -624.15368 
L 835.371405 -623.358155 
L 837.957682 -622.56263 
L 840.236292 -621.767105 
L 842.154056 -620.97158 
L 843.674868 -620.176055 
L 844.781204 -619.38053 
L 845.474039 -618.585005 
L 845.77125 -617.78948 
L 845.704747 -616.993955 
L 845.316714 -616.19843 
L 844.655397 -615.402905 
L 843.770915 -614.60738 
L 842.71148 -613.811855 
L 841.520357 -613.01633 
L 840.233736 -612.220805 
L 838.879626 -611.42528 
L 837.477709 -610.629755 
L 836.040062 -609.83423 
L 834.572575 -609.038705 
L 833.076837 -608.24318 
L 831.55228 -607.447654 
L 829.998327 -606.652129 
L 828.416313 -605.856604 
L 826.810971 -605.061079 
L 825.191323 -604.265554 
L 823.570863 -603.470029 
L 821.967038 -602.674504 
L 820.400077 -601.878979 
L 818.891358 -601.083454 
L 817.461522 -600.287929 
L 816.128604 -599.492404 
L 814.906442 -598.696879 
L 813.803567 -597.901354 
L 812.822714 -597.105829 
L 811.960974 -596.310304 
L 811.210542 -595.514779 
L 810.559891 -594.719254 
L 809.995197 -593.923729 
L 809.501778 -593.128204 
L 809.065365 -592.332679 
L 808.673058 -591.537154 
L 808.313894 -590.741629 
L 807.979032 -589.946104 
L 807.661637 -589.150579 
L 807.35656 -588.355054 
L 807.05997 -587.559529 
L 806.769043 -586.764004 
L 806.481814 -585.968479 
L 806.197194 -585.172954 
L 805.915154 -584.377428 
L 805.636987 -583.581903 
L 805.365542 -582.786378 
L 805.105325 -581.990853 
L 804.862363 -581.195328 
L 804.643786 -580.399803 
L 804.45713 -579.604278 
L 804.309416 -578.808753 
L 804.206112 -578.013228 
L 804.150136 -577.217703 
L 804.141046 -576.422178 
L 804.174564 -575.626653 
L 804.242529 -574.831128 
L 804.333335 -574.035603 
L 804.432819 -573.240078 
L 804.525511 -572.444553 
L 804.596098 -571.649028 
L 804.630913 -570.853503 
L 804.619266 -570.057978 
L 804.554438 -569.262453 
L 804.434225 -568.466928 
L 804.260967 -567.671403 
L 804.041099 -566.875878 
L 803.784282 -566.080353 
L 803.502271 -565.284828 
L 803.207675 -564.489303 
L 802.912768 -563.693778 
L 802.628481 -562.898253 
L 802.363681 -562.102728 
L 802.124768 -561.307202 
L 801.915586 -560.511677 
L 801.737598 -559.716152 
L 801.590258 -558.920627 
L 801.47149 -558.125102 
z
" style="stroke: #3d3d3d; stroke-opacity: 0.5"/>
    </defs>
    <g clip-path="url(#pdd8055917e)">
     <use xlink:href="#m75a8875cb1" x="0" y="722.183991" style="fill: #3a923a; fill-opacity: 0.5; stroke: #3d3d3d; stroke-opacity: 0.5"/>
    </g>
   </g>
   <g id="line2d_6">
    <path d="M 131.53125 229.177859 
L 131.53125 106.258753 
" clip-path="url(#pdd8055917e)" style="fill: none; stroke: #3d3d3d; stroke-width: 1.5; stroke-linecap: round"/>
   </g>
   <g id="line2d_7">
    <path d="M 131.53125 172.997532 
L 131.53125 127.398929 
" clip-path="url(#pdd8055917e)" style="fill: none; stroke: #3d3d3d; stroke-width: 4.5; stroke-linecap: round"/>
   </g>
   <g id="line2d_8">
    <path d="M 131.53125 144.610787 
" clip-path="url(#pdd8055917e)" style="fill: none; stroke: #3d3d3d; stroke-width: 1.5; stroke-linecap: round"/>
    <defs>
     <path id="ma8e3ce797e" d="M 1.875 0 
L -1.875 -0 
" style="stroke: #ffffff; stroke-width: 0.9"/>
    </defs>
    <g clip-path="url(#pdd8055917e)">
     <use xlink:href="#ma8e3ce797e" x="131.53125" y="144.610787" style="fill: #ffffff; stroke: #ffffff; stroke-width: 0.9"/>
    </g>
   </g>
   <g id="line2d_9">
    <path d="M 243.13125 134.866952 
L 243.13125 95.989942 
" clip-path="url(#pdd8055917e)" style="fill: none; stroke: #3d3d3d; stroke-width: 1.5; stroke-linecap: round"/>
   </g>
   <g id="line2d_10">
    <path d="M 243.13125 117.194685 
L 243.13125 102.93106 
" clip-path="url(#pdd8055917e)" style="fill: none; stroke: #3d3d3d; stroke-width: 4.5; stroke-linecap: round"/>
   </g>
   <g id="line2d_11">
    <path d="M 243.13125 109.057181 
" clip-path="url(#pdd8055917e)" style="fill: none; stroke: #3d3d3d; stroke-width: 1.5; stroke-linecap: round"/>
    <g clip-path="url(#pdd8055917e)">
     <use xlink:href="#ma8e3ce797e" x="243.13125" y="109.057181" style="fill: #ffffff; stroke: #ffffff; stroke-width: 0.9"/>
    </g>
   </g>
   <g id="line2d_12">
    <path d="M 354.73125 468.1964 
L 354.73125 221.498795 
" clip-path="url(#pdd8055917e)" style="fill: none; stroke: #3d3d3d; stroke-width: 1.5; stroke-linecap: round"/>
   </g>
   <g id="line2d_13">
    <path d="M 354.73125 433.074223 
L 354.73125 338.153998 
" clip-path="url(#pdd8055917e)" style="fill: none; stroke: #3d3d3d; stroke-width: 4.5; stroke-linecap: round"/>
   </g>
   <g id="line2d_14">
    <path d="M 354.73125 403.349744 
" clip-path="url(#pdd8055917e)" style="fill: none; stroke: #3d3d3d; stroke-width: 1.5; stroke-linecap: round"/>
    <g clip-path="url(#pdd8055917e)">
     <use xlink:href="#ma8e3ce797e" x="354.73125" y="403.349744" style="fill: #ffffff; stroke: #ffffff; stroke-width: 0.9"/>
    </g>
   </g>
   <g id="line2d_15">
    <path d="M 466.33125 150.503313 
L 466.33125 100.568457 
" clip-path="url(#pdd8055917e)" style="fill: none; stroke: #3d3d3d; stroke-width: 1.5; stroke-linecap: round"/>
   </g>
   <g id="line2d_16">
    <path d="M 466.33125 128.083563 
L 466.33125 109.514891 
" clip-path="url(#pdd8055917e)" style="fill: none; stroke: #3d3d3d; stroke-width: 4.5; stroke-linecap: round"/>
   </g>
   <g id="line2d_17">
    <path d="M 466.33125 117.259659 
" clip-path="url(#pdd8055917e)" style="fill: none; stroke: #3d3d3d; stroke-width: 1.5; stroke-linecap: round"/>
    <g clip-path="url(#pdd8055917e)">
     <use xlink:href="#ma8e3ce797e" x="466.33125" y="117.259659" style="fill: #ffffff; stroke: #ffffff; stroke-width: 0.9"/>
    </g>
   </g>
   <g id="line2d_18">
    <path d="M 577.93125 165.631999 
L 577.93125 100.064755 
" clip-path="url(#pdd8055917e)" style="fill: none; stroke: #3d3d3d; stroke-width: 1.5; stroke-linecap: round"/>
   </g>
   <g id="line2d_19">
    <path d="M 577.93125 134.055923 
L 577.93125 112.439463 
" clip-path="url(#pdd8055917e)" style="fill: none; stroke: #3d3d3d; stroke-width: 4.5; stroke-linecap: round"/>
   </g>
   <g id="line2d_20">
    <path d="M 577.93125 120.320557 
" clip-path="url(#pdd8055917e)" style="fill: none; stroke: #3d3d3d; stroke-width: 1.5; stroke-linecap: round"/>
    <g clip-path="url(#pdd8055917e)">
     <use xlink:href="#ma8e3ce797e" x="577.93125" y="120.320557" style="fill: #ffffff; stroke: #ffffff; stroke-width: 0.9"/>
    </g>
   </g>
   <g id="line2d_21">
    <path d="M 689.53125 230.860242 
L 689.53125 104.505414 
" clip-path="url(#pdd8055917e)" style="fill: none; stroke: #3d3d3d; stroke-width: 1.5; stroke-linecap: round"/>
   </g>
   <g id="line2d_22">
    <path d="M 689.53125 175.27601 
L 689.53125 115.578442 
" clip-path="url(#pdd8055917e)" style="fill: none; stroke: #3d3d3d; stroke-width: 4.5; stroke-linecap: round"/>
   </g>
   <g id="line2d_23">
    <path d="M 689.53125 130.610113 
" clip-path="url(#pdd8055917e)" style="fill: none; stroke: #3d3d3d; stroke-width: 1.5; stroke-linecap: round"/>
    <g clip-path="url(#pdd8055917e)">
     <use xlink:href="#ma8e3ce797e" x="689.53125" y="130.610113" style="fill: #ffffff; stroke: #ffffff; stroke-width: 0.9"/>
    </g>
   </g>
   <g id="line2d_24">
    <path d="M 801.13125 135.318486 
L 801.13125 96.157698 
" clip-path="url(#pdd8055917e)" style="fill: none; stroke: #3d3d3d; stroke-width: 1.5; stroke-linecap: round"/>
   </g>
   <g id="line2d_25">
    <path d="M 801.13125 116.581568 
L 801.13125 102.685368 
" clip-path="url(#pdd8055917e)" style="fill: none; stroke: #3d3d3d; stroke-width: 4.5; stroke-linecap: round"/>
   </g>
   <g id="line2d_26">
    <path d="M 801.13125 108.071599 
" clip-path="url(#pdd8055917e)" style="fill: none; stroke: #3d3d3d; stroke-width: 1.5; stroke-linecap: round"/>
    <g clip-path="url(#pdd8055917e)">
     <use xlink:href="#ma8e3ce797e" x="801.13125" y="108.071599" style="fill: #ffffff; stroke: #ffffff; stroke-width: 0.9"/>
    </g>
   </g>
   <g id="patch_3">
    <path d="M 75.73125 561.6 
L 856.93125 561.6 
" style="fill: none; stroke: #cccccc; stroke-width: 0.8; stroke-linejoin: miter; stroke-linecap: square"/>
   </g>
  </g>
 </g>
 <defs>
  <clipPath id="pdd8055917e">
   <rect x="75.73125" y="7.2" width="781.2" height="554.4"/>
  </clipPath>
 </defs>
</svg>
