<?xml version="1.0" encoding="utf-8" standalone="no"?>
<!DOCTYPE svg PUBLIC "-//W3C//DTD SVG 1.1//EN"
  "http://www.w3.org/Graphics/SVG/1.1/DTD/svg11.dtd">
<svg xmlns:xlink="http://www.w3.org/1999/xlink" width="864.689971pt" height="722.183991pt" viewBox="0 0 864.689971 722.183991" xmlns="http://www.w3.org/2000/svg" version="1.1">
 <metadata>
  <rdf:RDF xmlns:dc="http://purl.org/dc/elements/1.1/" xmlns:cc="http://creativecommons.org/ns#" xmlns:rdf="http://www.w3.org/1999/02/22-rdf-syntax-ns#">
   <cc:Work>
    <dc:type rdf:resource="http://purl.org/dc/dcmitype/StillImage"/>
    <dc:date>2024-03-13T13:39:53.374093</dc:date>
    <dc:format>image/svg+xml</dc:format>
    <dc:creator>
     <cc:Agent>
      <dc:title>Matplotlib v3.8.0, https://matplotlib.org/</dc:title>
     </cc:Agent>
    </dc:creator>
   </cc:Work>
  </rdf:RDF>
 </metadata>
 <defs>
  <style type="text/css">*{stroke-linejoin: round; stroke-linecap: butt}</style>
 </defs>
 <g id="figure_1">
  <g id="patch_1">
   <path d="M 0 722.183991 
L 864.689971 722.183991 
L 864.689971 0 
L 0 0 
L 0 722.183991 
z
" style="fill: none"/>
  </g>
  <g id="axes_1">
   <g id="patch_2">
    <path d="M 76.289971 561.6 
L 857.489971 561.6 
L 857.489971 7.2 
L 76.289971 7.2 
L 76.289971 561.6 
z
" style="fill: none"/>
   </g>
   <g id="matplotlib.axis_1">
    <g id="xtick_1">
     <g id="text_1">
      <!-- Template Beta -->
      <g style="fill: #262626" transform="translate(17.945813 680.985784) rotate(-45) scale(0.2 -0.2)">
       <defs>
        <path id="DejaVuSans-54" d="M -19 4666 
L 3928 4666 
L 3928 4134 
L 2272 4134 
L 2272 0 
L 1638 0 
L 1638 4134 
L -19 4134 
L -19 4666 
z
" transform="scale(0.015625)"/>
        <path id="DejaVuSans-65" d="M 3597 1894 
L 3597 1613 
L 953 1613 
Q 991 1019 1311 708 
Q 1631 397 2203 397 
Q 2534 397 2845 478 
Q 3156 559 3463 722 
L 3463 178 
Q 3153 47 2828 -22 
Q 2503 -91 2169 -91 
Q 1331 -91 842 396 
Q 353 884 353 1716 
Q 353 2575 817 3079 
Q 1281 3584 2069 3584 
Q 2775 3584 3186 3129 
Q 3597 2675 3597 1894 
z
M 3022 2063 
Q 3016 2534 2758 2815 
Q 2500 3097 2075 3097 
Q 1594 3097 1305 2825 
Q 1016 2553 972 2059 
L 3022 2063 
z
" transform="scale(0.015625)"/>
        <path id="DejaVuSans-6d" d="M 3328 2828 
Q 3544 3216 3844 3400 
Q 4144 3584 4550 3584 
Q 5097 3584 5394 3201 
Q 5691 2819 5691 2113 
L 5691 0 
L 5113 0 
L 5113 2094 
Q 5113 2597 4934 2840 
Q 4756 3084 4391 3084 
Q 3944 3084 3684 2787 
Q 3425 2491 3425 1978 
L 3425 0 
L 2847 0 
L 2847 2094 
Q 2847 2600 2669 2842 
Q 2491 3084 2119 3084 
Q 1678 3084 1418 2786 
Q 1159 2488 1159 1978 
L 1159 0 
L 581 0 
L 581 3500 
L 1159 3500 
L 1159 2956 
Q 1356 3278 1631 3431 
Q 1906 3584 2284 3584 
Q 2666 3584 2933 3390 
Q 3200 3197 3328 2828 
z
" transform="scale(0.015625)"/>
        <path id="DejaVuSans-70" d="M 1159 525 
L 1159 -1331 
L 581 -1331 
L 581 3500 
L 1159 3500 
L 1159 2969 
Q 1341 3281 1617 3432 
Q 1894 3584 2278 3584 
Q 2916 3584 3314 3078 
Q 3713 2572 3713 1747 
Q 3713 922 3314 415 
Q 2916 -91 2278 -91 
Q 1894 -91 1617 61 
Q 1341 213 1159 525 
z
M 3116 1747 
Q 3116 2381 2855 2742 
Q 2594 3103 2138 3103 
Q 1681 3103 1420 2742 
Q 1159 2381 1159 1747 
Q 1159 1113 1420 752 
Q 1681 391 2138 391 
Q 2594 391 2855 752 
Q 3116 1113 3116 1747 
z
" transform="scale(0.015625)"/>
        <path id="DejaVuSans-6c" d="M 603 4863 
L 1178 4863 
L 1178 0 
L 603 0 
L 603 4863 
z
" transform="scale(0.015625)"/>
        <path id="DejaVuSans-61" d="M 2194 1759 
Q 1497 1759 1228 1600 
Q 959 1441 959 1056 
Q 959 750 1161 570 
Q 1363 391 1709 391 
Q 2188 391 2477 730 
Q 2766 1069 2766 1631 
L 2766 1759 
L 2194 1759 
z
M 3341 1997 
L 3341 0 
L 2766 0 
L 2766 531 
Q 2569 213 2275 61 
Q 1981 -91 1556 -91 
Q 1019 -91 701 211 
Q 384 513 384 1019 
Q 384 1609 779 1909 
Q 1175 2209 1959 2209 
L 2766 2209 
L 2766 2266 
Q 2766 2663 2505 2880 
Q 2244 3097 1772 3097 
Q 1472 3097 1187 3025 
Q 903 2953 641 2809 
L 641 3341 
Q 956 3463 1253 3523 
Q 1550 3584 1831 3584 
Q 2591 3584 2966 3190 
Q 3341 2797 3341 1997 
z
" transform="scale(0.015625)"/>
        <path id="DejaVuSans-74" d="M 1172 4494 
L 1172 3500 
L 2356 3500 
L 2356 3053 
L 1172 3053 
L 1172 1153 
Q 1172 725 1289 603 
Q 1406 481 1766 481 
L 2356 481 
L 2356 0 
L 1766 0 
Q 1100 0 847 248 
Q 594 497 594 1153 
L 594 3053 
L 172 3053 
L 172 3500 
L 594 3500 
L 594 4494 
L 1172 4494 
z
" transform="scale(0.015625)"/>
        <path id="DejaVuSans-20" transform="scale(0.015625)"/>
        <path id="DejaVuSans-42" d="M 1259 2228 
L 1259 519 
L 2272 519 
Q 2781 519 3026 730 
Q 3272 941 3272 1375 
Q 3272 1813 3026 2020 
Q 2781 2228 2272 2228 
L 1259 2228 
z
M 1259 4147 
L 1259 2741 
L 2194 2741 
Q 2656 2741 2882 2914 
Q 3109 3088 3109 3444 
Q 3109 3797 2882 3972 
Q 2656 4147 2194 4147 
L 1259 4147 
z
M 628 4666 
L 2241 4666 
Q 2963 4666 3353 4366 
Q 3744 4066 3744 3513 
Q 3744 3084 3544 2831 
Q 3344 2578 2956 2516 
Q 3422 2416 3680 2098 
Q 3938 1781 3938 1306 
Q 3938 681 3513 340 
Q 3088 0 2303 0 
L 628 0 
L 628 4666 
z
" transform="scale(0.015625)"/>
       </defs>
       <use xlink:href="#DejaVuSans-54"/>
       <use xlink:href="#DejaVuSans-65" x="44.083984"/>
       <use xlink:href="#DejaVuSans-6d" x="105.607422"/>
       <use xlink:href="#DejaVuSans-70" x="203.019531"/>
       <use xlink:href="#DejaVuSans-6c" x="266.496094"/>
       <use xlink:href="#DejaVuSans-61" x="294.279297"/>
       <use xlink:href="#DejaVuSans-74" x="355.558594"/>
       <use xlink:href="#DejaVuSans-65" x="394.767578"/>
       <use xlink:href="#DejaVuSans-20" x="456.291016"/>
       <use xlink:href="#DejaVuSans-42" x="488.078125"/>
       <use xlink:href="#DejaVuSans-65" x="556.681641"/>
       <use xlink:href="#DejaVuSans-74" x="618.205078"/>
       <use xlink:href="#DejaVuSans-61" x="657.414062"/>
      </g>
     </g>
    </g>
    <g id="xtick_2">
     <g id="text_2">
      <!-- MSA -->
      <g style="fill: #262626" transform="translate(153.566457 610.465141) rotate(-45) scale(0.2 -0.2)">
       <defs>
        <path id="DejaVuSans-4d" d="M 628 4666 
L 1569 4666 
L 2759 1491 
L 3956 4666 
L 4897 4666 
L 4897 0 
L 4281 0 
L 4281 4097 
L 3078 897 
L 2444 897 
L 1241 4097 
L 1241 0 
L 628 0 
L 628 4666 
z
" transform="scale(0.015625)"/>
        <path id="DejaVuSans-53" d="M 3425 4513 
L 3425 3897 
Q 3066 4069 2747 4153 
Q 2428 4238 2131 4238 
Q 1616 4238 1336 4038 
Q 1056 3838 1056 3469 
Q 1056 3159 1242 3001 
Q 1428 2844 1947 2747 
L 2328 2669 
Q 3034 2534 3370 2195 
Q 3706 1856 3706 1288 
Q 3706 609 3251 259 
Q 2797 -91 1919 -91 
Q 1588 -91 1214 -16 
Q 841 59 441 206 
L 441 856 
Q 825 641 1194 531 
Q 1563 422 1919 422 
Q 2459 422 2753 634 
Q 3047 847 3047 1241 
Q 3047 1584 2836 1778 
Q 2625 1972 2144 2069 
L 1759 2144 
Q 1053 2284 737 2584 
Q 422 2884 422 3419 
Q 422 4038 858 4394 
Q 1294 4750 2059 4750 
Q 2388 4750 2728 4690 
Q 3069 4631 3425 4513 
z
" transform="scale(0.015625)"/>
        <path id="DejaVuSans-41" d="M 2188 4044 
L 1331 1722 
L 3047 1722 
L 2188 4044 
z
M 1831 4666 
L 2547 4666 
L 4325 0 
L 3669 0 
L 3244 1197 
L 1141 1197 
L 716 0 
L 50 0 
L 1831 4666 
z
" transform="scale(0.015625)"/>
       </defs>
       <use xlink:href="#DejaVuSans-4d"/>
       <use xlink:href="#DejaVuSans-53" x="86.279297"/>
       <use xlink:href="#DejaVuSans-41" x="151.630859"/>
      </g>
     </g>
    </g>
    <g id="xtick_3">
     <g id="text_3">
      <!-- AttnPacker -->
      <g style="fill: #262626" transform="translate(173.782854 655.348744) rotate(-45) scale(0.2 -0.2)">
       <defs>
        <path id="DejaVuSans-6e" d="M 3513 2113 
L 3513 0 
L 2938 0 
L 2938 2094 
Q 2938 2591 2744 2837 
Q 2550 3084 2163 3084 
Q 1697 3084 1428 2787 
Q 1159 2491 1159 1978 
L 1159 0 
L 581 0 
L 581 3500 
L 1159 3500 
L 1159 2956 
Q 1366 3272 1645 3428 
Q 1925 3584 2291 3584 
Q 2894 3584 3203 3211 
Q 3513 2838 3513 2113 
z
" transform="scale(0.015625)"/>
        <path id="DejaVuSans-50" d="M 1259 4147 
L 1259 2394 
L 2053 2394 
Q 2494 2394 2734 2622 
Q 2975 2850 2975 3272 
Q 2975 3691 2734 3919 
Q 2494 4147 2053 4147 
L 1259 4147 
z
M 628 4666 
L 2053 4666 
Q 2838 4666 3239 4311 
Q 3641 3956 3641 3272 
Q 3641 2581 3239 2228 
Q 2838 1875 2053 1875 
L 1259 1875 
L 1259 0 
L 628 0 
L 628 4666 
z
" transform="scale(0.015625)"/>
        <path id="DejaVuSans-63" d="M 3122 3366 
L 3122 2828 
Q 2878 2963 2633 3030 
Q 2388 3097 2138 3097 
Q 1578 3097 1268 2742 
Q 959 2388 959 1747 
Q 959 1106 1268 751 
Q 1578 397 2138 397 
Q 2388 397 2633 464 
Q 2878 531 3122 666 
L 3122 134 
Q 2881 22 2623 -34 
Q 2366 -91 2075 -91 
Q 1284 -91 818 406 
Q 353 903 353 1747 
Q 353 2603 823 3093 
Q 1294 3584 2113 3584 
Q 2378 3584 2631 3529 
Q 2884 3475 3122 3366 
z
" transform="scale(0.015625)"/>
        <path id="DejaVuSans-6b" d="M 581 4863 
L 1159 4863 
L 1159 1991 
L 2875 3500 
L 3609 3500 
L 1753 1863 
L 3688 0 
L 2938 0 
L 1159 1709 
L 1159 0 
L 581 0 
L 581 4863 
z
" transform="scale(0.015625)"/>
        <path id="DejaVuSans-72" d="M 2631 2963 
Q 2534 3019 2420 3045 
Q 2306 3072 2169 3072 
Q 1681 3072 1420 2755 
Q 1159 2438 1159 1844 
L 1159 0 
L 581 0 
L 581 3500 
L 1159 3500 
L 1159 2956 
Q 1341 3275 1631 3429 
Q 1922 3584 2338 3584 
Q 2397 3584 2469 3576 
Q 2541 3569 2628 3553 
L 2631 2963 
z
" transform="scale(0.015625)"/>
       </defs>
       <use xlink:href="#DejaVuSans-41"/>
       <use xlink:href="#DejaVuSans-74" x="66.658203"/>
       <use xlink:href="#DejaVuSans-74" x="105.867188"/>
       <use xlink:href="#DejaVuSans-6e" x="145.076172"/>
       <use xlink:href="#DejaVuSans-50" x="208.455078"/>
       <use xlink:href="#DejaVuSans-61" x="264.257812"/>
       <use xlink:href="#DejaVuSans-63" x="325.537109"/>
       <use xlink:href="#DejaVuSans-6b" x="380.517578"/>
       <use xlink:href="#DejaVuSans-65" x="434.802734"/>
       <use xlink:href="#DejaVuSans-72" x="496.326172"/>
      </g>
     </g>
    </g>
    <g id="xtick_4">
     <g id="text_4">
      <!-- AttnPacker (AF) -->
      <g style="fill: #262626" transform="translate(205.544979 688.686619) rotate(-45) scale(0.2 -0.2)">
       <defs>
        <path id="DejaVuSans-28" d="M 1984 4856 
Q 1566 4138 1362 3434 
Q 1159 2731 1159 2009 
Q 1159 1288 1364 580 
Q 1569 -128 1984 -844 
L 1484 -844 
Q 1016 -109 783 600 
Q 550 1309 550 2009 
Q 550 2706 781 3412 
Q 1013 4119 1484 4856 
L 1984 4856 
z
" transform="scale(0.015625)"/>
        <path id="DejaVuSans-46" d="M 628 4666 
L 3309 4666 
L 3309 4134 
L 1259 4134 
L 1259 2759 
L 3109 2759 
L 3109 2228 
L 1259 2228 
L 1259 0 
L 628 0 
L 628 4666 
z
" transform="scale(0.015625)"/>
        <path id="DejaVuSans-29" d="M 513 4856 
L 1013 4856 
Q 1481 4119 1714 3412 
Q 1947 2706 1947 2009 
Q 1947 1309 1714 600 
Q 1481 -109 1013 -844 
L 513 -844 
Q 928 -128 1133 580 
Q 1338 1288 1338 2009 
Q 1338 2731 1133 3434 
Q 928 4138 513 4856 
z
" transform="scale(0.015625)"/>
       </defs>
       <use xlink:href="#DejaVuSans-41"/>
       <use xlink:href="#DejaVuSans-74" x="66.658203"/>
       <use xlink:href="#DejaVuSans-74" x="105.867188"/>
       <use xlink:href="#DejaVuSans-6e" x="145.076172"/>
       <use xlink:href="#DejaVuSans-50" x="208.455078"/>
       <use xlink:href="#DejaVuSans-61" x="264.257812"/>
       <use xlink:href="#DejaVuSans-63" x="325.537109"/>
       <use xlink:href="#DejaVuSans-6b" x="380.517578"/>
       <use xlink:href="#DejaVuSans-65" x="434.802734"/>
       <use xlink:href="#DejaVuSans-72" x="496.326172"/>
       <use xlink:href="#DejaVuSans-20" x="537.439453"/>
       <use xlink:href="#DejaVuSans-28" x="569.226562"/>
       <use xlink:href="#DejaVuSans-41" x="608.240234"/>
       <use xlink:href="#DejaVuSans-46" x="676.648438"/>
       <use xlink:href="#DejaVuSans-29" x="734.167969"/>
      </g>
     </g>
    </g>
    <g id="xtick_5">
     <g id="text_5">
      <!-- Backbone -->
      <g style="fill: #262626" transform="translate(310.355653 648.975944) rotate(-45) scale(0.2 -0.2)">
       <defs>
        <path id="DejaVuSans-62" d="M 3116 1747 
Q 3116 2381 2855 2742 
Q 2594 3103 2138 3103 
Q 1681 3103 1420 2742 
Q 1159 2381 1159 1747 
Q 1159 1113 1420 752 
Q 1681 391 2138 391 
Q 2594 391 2855 752 
Q 3116 1113 3116 1747 
z
M 1159 2969 
Q 1341 3281 1617 3432 
Q 1894 3584 2278 3584 
Q 2916 3584 3314 3078 
Q 3713 2572 3713 1747 
Q 3713 922 3314 415 
Q 2916 -91 2278 -91 
Q 1894 -91 1617 61 
Q 1341 213 1159 525 
L 1159 0 
L 581 0 
L 581 4863 
L 1159 4863 
L 1159 2969 
z
" transform="scale(0.015625)"/>
        <path id="DejaVuSans-6f" d="M 1959 3097 
Q 1497 3097 1228 2736 
Q 959 2375 959 1747 
Q 959 1119 1226 758 
Q 1494 397 1959 397 
Q 2419 397 2687 759 
Q 2956 1122 2956 1747 
Q 2956 2369 2687 2733 
Q 2419 3097 1959 3097 
z
M 1959 3584 
Q 2709 3584 3137 3096 
Q 3566 2609 3566 1747 
Q 3566 888 3137 398 
Q 2709 -91 1959 -91 
Q 1206 -91 779 398 
Q 353 888 353 1747 
Q 353 2609 779 3096 
Q 1206 3584 1959 3584 
z
" transform="scale(0.015625)"/>
       </defs>
       <use xlink:href="#DejaVuSans-42"/>
       <use xlink:href="#DejaVuSans-61" x="68.603516"/>
       <use xlink:href="#DejaVuSans-63" x="129.882812"/>
       <use xlink:href="#DejaVuSans-6b" x="184.863281"/>
       <use xlink:href="#DejaVuSans-62" x="242.773438"/>
       <use xlink:href="#DejaVuSans-6f" x="306.25"/>
       <use xlink:href="#DejaVuSans-6e" x="367.431641"/>
       <use xlink:href="#DejaVuSans-65" x="430.810547"/>
      </g>
     </g>
    </g>
    <g id="xtick_6">
     <g id="text_6">
      <!-- C36 -->
      <g style="fill: #262626" transform="translate(417.214728 607.216869) rotate(-45) scale(0.2 -0.2)">
       <defs>
        <path id="DejaVuSans-43" d="M 4122 4306 
L 4122 3641 
Q 3803 3938 3442 4084 
Q 3081 4231 2675 4231 
Q 1875 4231 1450 3742 
Q 1025 3253 1025 2328 
Q 1025 1406 1450 917 
Q 1875 428 2675 428 
Q 3081 428 3442 575 
Q 3803 722 4122 1019 
L 4122 359 
Q 3791 134 3420 21 
Q 3050 -91 2638 -91 
Q 1578 -91 968 557 
Q 359 1206 359 2328 
Q 359 3453 968 4101 
Q 1578 4750 2638 4750 
Q 3056 4750 3426 4639 
Q 3797 4528 4122 4306 
z
" transform="scale(0.015625)"/>
        <path id="DejaVuSans-33" d="M 2597 2516 
Q 3050 2419 3304 2112 
Q 3559 1806 3559 1356 
Q 3559 666 3084 287 
Q 2609 -91 1734 -91 
Q 1441 -91 1130 -33 
Q 819 25 488 141 
L 488 750 
Q 750 597 1062 519 
Q 1375 441 1716 441 
Q 2309 441 2620 675 
Q 2931 909 2931 1356 
Q 2931 1769 2642 2001 
Q 2353 2234 1838 2234 
L 1294 2234 
L 1294 2753 
L 1863 2753 
Q 2328 2753 2575 2939 
Q 2822 3125 2822 3475 
Q 2822 3834 2567 4026 
Q 2313 4219 1838 4219 
Q 1578 4219 1281 4162 
Q 984 4106 628 3988 
L 628 4550 
Q 988 4650 1302 4700 
Q 1616 4750 1894 4750 
Q 2613 4750 3031 4423 
Q 3450 4097 3450 3541 
Q 3450 3153 3228 2886 
Q 3006 2619 2597 2516 
z
" transform="scale(0.015625)"/>
        <path id="DejaVuSans-36" d="M 2113 2584 
Q 1688 2584 1439 2293 
Q 1191 2003 1191 1497 
Q 1191 994 1439 701 
Q 1688 409 2113 409 
Q 2538 409 2786 701 
Q 3034 994 3034 1497 
Q 3034 2003 2786 2293 
Q 2538 2584 2113 2584 
z
M 3366 4563 
L 3366 3988 
Q 3128 4100 2886 4159 
Q 2644 4219 2406 4219 
Q 1781 4219 1451 3797 
Q 1122 3375 1075 2522 
Q 1259 2794 1537 2939 
Q 1816 3084 2150 3084 
Q 2853 3084 3261 2657 
Q 3669 2231 3669 1497 
Q 3669 778 3244 343 
Q 2819 -91 2113 -91 
Q 1303 -91 875 529 
Q 447 1150 447 2328 
Q 447 3434 972 4092 
Q 1497 4750 2381 4750 
Q 2619 4750 2861 4703 
Q 3103 4656 3366 4563 
z
" transform="scale(0.015625)"/>
       </defs>
       <use xlink:href="#DejaVuSans-43"/>
       <use xlink:href="#DejaVuSans-33" x="69.824219"/>
       <use xlink:href="#DejaVuSans-36" x="133.447266"/>
      </g>
     </g>
    </g>
    <g id="xtick_7">
     <g id="text_7">
      <!-- Dummy -->
      <g style="fill: #262626" transform="translate(454.412737 635.118861) rotate(-45) scale(0.2 -0.2)">
       <defs>
        <path id="DejaVuSans-44" d="M 1259 4147 
L 1259 519 
L 2022 519 
Q 2988 519 3436 956 
Q 3884 1394 3884 2338 
Q 3884 3275 3436 3711 
Q 2988 4147 2022 4147 
L 1259 4147 
z
M 628 4666 
L 1925 4666 
Q 3281 4666 3915 4102 
Q 4550 3538 4550 2338 
Q 4550 1131 3912 565 
Q 3275 0 1925 0 
L 628 0 
L 628 4666 
z
" transform="scale(0.015625)"/>
        <path id="DejaVuSans-75" d="M 544 1381 
L 544 3500 
L 1119 3500 
L 1119 1403 
Q 1119 906 1312 657 
Q 1506 409 1894 409 
Q 2359 409 2629 706 
Q 2900 1003 2900 1516 
L 2900 3500 
L 3475 3500 
L 3475 0 
L 2900 0 
L 2900 538 
Q 2691 219 2414 64 
Q 2138 -91 1772 -91 
Q 1169 -91 856 284 
Q 544 659 544 1381 
z
M 1991 3584 
L 1991 3584 
z
" transform="scale(0.015625)"/>
        <path id="DejaVuSans-79" d="M 2059 -325 
Q 1816 -950 1584 -1140 
Q 1353 -1331 966 -1331 
L 506 -1331 
L 506 -850 
L 844 -850 
Q 1081 -850 1212 -737 
Q 1344 -625 1503 -206 
L 1606 56 
L 191 3500 
L 800 3500 
L 1894 763 
L 2988 3500 
L 3597 3500 
L 2059 -325 
z
" transform="scale(0.015625)"/>
       </defs>
       <use xlink:href="#DejaVuSans-44"/>
       <use xlink:href="#DejaVuSans-75" x="77.001953"/>
       <use xlink:href="#DejaVuSans-6d" x="140.380859"/>
       <use xlink:href="#DejaVuSans-6d" x="237.792969"/>
       <use xlink:href="#DejaVuSans-79" x="335.205078"/>
      </g>
     </g>
    </g>
    <g id="xtick_8">
     <g id="text_8">
      <!-- Heuristic -->
      <g style="fill: #262626" transform="translate(512.627284 642.004313) rotate(-45) scale(0.2 -0.2)">
       <defs>
        <path id="DejaVuSans-48" d="M 628 4666 
L 1259 4666 
L 1259 2753 
L 3553 2753 
L 3553 4666 
L 4184 4666 
L 4184 0 
L 3553 0 
L 3553 2222 
L 1259 2222 
L 1259 0 
L 628 0 
L 628 4666 
z
" transform="scale(0.015625)"/>
        <path id="DejaVuSans-69" d="M 603 3500 
L 1178 3500 
L 1178 0 
L 603 0 
L 603 3500 
z
M 603 4863 
L 1178 4863 
L 1178 4134 
L 603 4134 
L 603 4863 
z
" transform="scale(0.015625)"/>
        <path id="DejaVuSans-73" d="M 2834 3397 
L 2834 2853 
Q 2591 2978 2328 3040 
Q 2066 3103 1784 3103 
Q 1356 3103 1142 2972 
Q 928 2841 928 2578 
Q 928 2378 1081 2264 
Q 1234 2150 1697 2047 
L 1894 2003 
Q 2506 1872 2764 1633 
Q 3022 1394 3022 966 
Q 3022 478 2636 193 
Q 2250 -91 1575 -91 
Q 1294 -91 989 -36 
Q 684 19 347 128 
L 347 722 
Q 666 556 975 473 
Q 1284 391 1588 391 
Q 1994 391 2212 530 
Q 2431 669 2431 922 
Q 2431 1156 2273 1281 
Q 2116 1406 1581 1522 
L 1381 1569 
Q 847 1681 609 1914 
Q 372 2147 372 2553 
Q 372 3047 722 3315 
Q 1072 3584 1716 3584 
Q 2034 3584 2315 3537 
Q 2597 3491 2834 3397 
z
" transform="scale(0.015625)"/>
       </defs>
       <use xlink:href="#DejaVuSans-48"/>
       <use xlink:href="#DejaVuSans-65" x="75.195312"/>
       <use xlink:href="#DejaVuSans-75" x="136.71875"/>
       <use xlink:href="#DejaVuSans-72" x="200.097656"/>
       <use xlink:href="#DejaVuSans-69" x="241.210938"/>
       <use xlink:href="#DejaVuSans-73" x="268.994141"/>
       <use xlink:href="#DejaVuSans-74" x="321.09375"/>
       <use xlink:href="#DejaVuSans-69" x="360.302734"/>
       <use xlink:href="#DejaVuSans-63" x="388.085938"/>
      </g>
     </g>
    </g>
    <g id="xtick_9">
     <g id="text_9">
      <!-- FASPR -->
      <g style="fill: #262626" transform="translate(596.536325 623.195273) rotate(-45) scale(0.2 -0.2)">
       <defs>
        <path id="DejaVuSans-52" d="M 2841 2188 
Q 3044 2119 3236 1894 
Q 3428 1669 3622 1275 
L 4263 0 
L 3584 0 
L 2988 1197 
Q 2756 1666 2539 1819 
Q 2322 1972 1947 1972 
L 1259 1972 
L 1259 0 
L 628 0 
L 628 4666 
L 2053 4666 
Q 2853 4666 3247 4331 
Q 3641 3997 3641 3322 
Q 3641 2881 3436 2590 
Q 3231 2300 2841 2188 
z
M 1259 4147 
L 1259 2491 
L 2053 2491 
Q 2509 2491 2742 2702 
Q 2975 2913 2975 3322 
Q 2975 3731 2742 3939 
Q 2509 4147 2053 4147 
L 1259 4147 
z
" transform="scale(0.015625)"/>
       </defs>
       <use xlink:href="#DejaVuSans-46"/>
       <use xlink:href="#DejaVuSans-41" x="48.394531"/>
       <use xlink:href="#DejaVuSans-53" x="116.802734"/>
       <use xlink:href="#DejaVuSans-50" x="180.279297"/>
       <use xlink:href="#DejaVuSans-52" x="240.582031"/>
      </g>
     </g>
    </g>
    <g id="xtick_10">
     <g id="text_10">
      <!-- FASPR (AF) -->
      <g style="fill: #262626" transform="translate(628.29845 656.533148) rotate(-45) scale(0.2 -0.2)">
       <use xlink:href="#DejaVuSans-46"/>
       <use xlink:href="#DejaVuSans-41" x="48.394531"/>
       <use xlink:href="#DejaVuSans-53" x="116.802734"/>
       <use xlink:href="#DejaVuSans-50" x="180.279297"/>
       <use xlink:href="#DejaVuSans-52" x="240.582031"/>
       <use xlink:href="#DejaVuSans-20" x="310.064453"/>
       <use xlink:href="#DejaVuSans-28" x="341.851562"/>
       <use xlink:href="#DejaVuSans-41" x="380.865234"/>
       <use xlink:href="#DejaVuSans-46" x="449.273438"/>
       <use xlink:href="#DejaVuSans-29" x="506.792969"/>
      </g>
     </g>
    </g>
    <g id="xtick_11">
     <g id="text_11">
      <!-- C36 (AF) -->
      <g style="fill: #262626" transform="translate(709.376853 640.554744) rotate(-45) scale(0.2 -0.2)">
       <use xlink:href="#DejaVuSans-43"/>
       <use xlink:href="#DejaVuSans-33" x="69.824219"/>
       <use xlink:href="#DejaVuSans-36" x="133.447266"/>
       <use xlink:href="#DejaVuSans-20" x="197.070312"/>
       <use xlink:href="#DejaVuSans-28" x="228.857422"/>
       <use xlink:href="#DejaVuSans-41" x="267.871094"/>
       <use xlink:href="#DejaVuSans-46" x="336.279297"/>
       <use xlink:href="#DejaVuSans-29" x="393.798828"/>
      </g>
     </g>
    </g>
    <g id="xtick_12">
     <g id="text_12">
      <!-- Template (AF) -->
      <g style="fill: #262626" transform="translate(737.817786 677.213811) rotate(-45) scale(0.2 -0.2)">
       <use xlink:href="#DejaVuSans-54"/>
       <use xlink:href="#DejaVuSans-65" x="44.083984"/>
       <use xlink:href="#DejaVuSans-6d" x="105.607422"/>
       <use xlink:href="#DejaVuSans-70" x="203.019531"/>
       <use xlink:href="#DejaVuSans-6c" x="266.496094"/>
       <use xlink:href="#DejaVuSans-61" x="294.279297"/>
       <use xlink:href="#DejaVuSans-74" x="355.558594"/>
       <use xlink:href="#DejaVuSans-65" x="394.767578"/>
       <use xlink:href="#DejaVuSans-20" x="456.291016"/>
       <use xlink:href="#DejaVuSans-28" x="488.078125"/>
       <use xlink:href="#DejaVuSans-41" x="527.091797"/>
       <use xlink:href="#DejaVuSans-46" x="595.5"/>
       <use xlink:href="#DejaVuSans-29" x="653.019531"/>
      </g>
     </g>
    </g>
    <g id="text_13">
     <!-- Method -->
     <g style="fill: #262626" transform="translate(429.383721 710.824616) scale(0.2 -0.2)">
      <defs>
       <path id="DejaVuSans-68" d="M 3513 2113 
L 3513 0 
L 2938 0 
L 2938 2094 
Q 2938 2591 2744 2837 
Q 2550 3084 2163 3084 
Q 1697 3084 1428 2787 
Q 1159 2491 1159 1978 
L 1159 0 
L 581 0 
L 581 4863 
L 1159 4863 
L 1159 2956 
Q 1366 3272 1645 3428 
Q 1925 3584 2291 3584 
Q 2894 3584 3203 3211 
Q 3513 2838 3513 2113 
z
" transform="scale(0.015625)"/>
       <path id="DejaVuSans-64" d="M 2906 2969 
L 2906 4863 
L 3481 4863 
L 3481 0 
L 2906 0 
L 2906 525 
Q 2725 213 2448 61 
Q 2172 -91 1784 -91 
Q 1150 -91 751 415 
Q 353 922 353 1747 
Q 353 2572 751 3078 
Q 1150 3584 1784 3584 
Q 2172 3584 2448 3432 
Q 2725 3281 2906 2969 
z
M 947 1747 
Q 947 1113 1208 752 
Q 1469 391 1925 391 
Q 2381 391 2643 752 
Q 2906 1113 2906 1747 
Q 2906 2381 2643 2742 
Q 2381 3103 1925 3103 
Q 1469 3103 1208 2742 
Q 947 2381 947 1747 
z
" transform="scale(0.015625)"/>
      </defs>
      <use xlink:href="#DejaVuSans-4d"/>
      <use xlink:href="#DejaVuSans-65" x="86.279297"/>
      <use xlink:href="#DejaVuSans-74" x="147.802734"/>
      <use xlink:href="#DejaVuSans-68" x="187.011719"/>
      <use xlink:href="#DejaVuSans-6f" x="250.390625"/>
      <use xlink:href="#DejaVuSans-64" x="311.572266"/>
     </g>
    </g>
   </g>
   <g id="matplotlib.axis_2">
    <g id="ytick_1">
     <g id="line2d_1">
      <path d="M 76.289971 536.4 
L 857.489971 536.4 
" clip-path="url(#p410fef76dc)" style="fill: none; stroke: #cccccc; stroke-width: 0.8; stroke-linecap: round"/>
     </g>
     <g id="text_14">
      <!-- 0 -->
      <g style="fill: #262626" transform="translate(56.564971 543.998437) scale(0.2 -0.2)">
       <defs>
        <path id="DejaVuSans-30" d="M 2034 4250 
Q 1547 4250 1301 3770 
Q 1056 3291 1056 2328 
Q 1056 1369 1301 889 
Q 1547 409 2034 409 
Q 2525 409 2770 889 
Q 3016 1369 3016 2328 
Q 3016 3291 2770 3770 
Q 2525 4250 2034 4250 
z
M 2034 4750 
Q 2819 4750 3233 4129 
Q 3647 3509 3647 2328 
Q 3647 1150 3233 529 
Q 2819 -91 2034 -91 
Q 1250 -91 836 529 
Q 422 1150 422 2328 
Q 422 3509 836 4129 
Q 1250 4750 2034 4750 
z
" transform="scale(0.015625)"/>
       </defs>
       <use xlink:href="#DejaVuSans-30"/>
      </g>
     </g>
    </g>
    <g id="ytick_2">
     <g id="line2d_2">
      <path d="M 76.289971 444.261644 
L 857.489971 444.261644 
" clip-path="url(#p410fef76dc)" style="fill: none; stroke: #cccccc; stroke-width: 0.8; stroke-linecap: round"/>
     </g>
     <g id="text_15">
      <!-- 20 -->
      <g style="fill: #262626" transform="translate(43.839971 451.860081) scale(0.2 -0.2)">
       <defs>
        <path id="DejaVuSans-32" d="M 1228 531 
L 3431 531 
L 3431 0 
L 469 0 
L 469 531 
Q 828 903 1448 1529 
Q 2069 2156 2228 2338 
Q 2531 2678 2651 2914 
Q 2772 3150 2772 3378 
Q 2772 3750 2511 3984 
Q 2250 4219 1831 4219 
Q 1534 4219 1204 4116 
Q 875 4013 500 3803 
L 500 4441 
Q 881 4594 1212 4672 
Q 1544 4750 1819 4750 
Q 2544 4750 2975 4387 
Q 3406 4025 3406 3419 
Q 3406 3131 3298 2873 
Q 3191 2616 2906 2266 
Q 2828 2175 2409 1742 
Q 1991 1309 1228 531 
z
" transform="scale(0.015625)"/>
       </defs>
       <use xlink:href="#DejaVuSans-32"/>
       <use xlink:href="#DejaVuSans-30" x="63.623047"/>
      </g>
     </g>
    </g>
    <g id="ytick_3">
     <g id="line2d_3">
      <path d="M 76.289971 352.123287 
L 857.489971 352.123287 
" clip-path="url(#p410fef76dc)" style="fill: none; stroke: #cccccc; stroke-width: 0.8; stroke-linecap: round"/>
     </g>
     <g id="text_16">
      <!-- 40 -->
      <g style="fill: #262626" transform="translate(43.839971 359.721725) scale(0.2 -0.2)">
       <defs>
        <path id="DejaVuSans-34" d="M 2419 4116 
L 825 1625 
L 2419 1625 
L 2419 4116 
z
M 2253 4666 
L 3047 4666 
L 3047 1625 
L 3713 1625 
L 3713 1100 
L 3047 1100 
L 3047 0 
L 2419 0 
L 2419 1100 
L 313 1100 
L 313 1709 
L 2253 4666 
z
" transform="scale(0.015625)"/>
       </defs>
       <use xlink:href="#DejaVuSans-34"/>
       <use xlink:href="#DejaVuSans-30" x="63.623047"/>
      </g>
     </g>
    </g>
    <g id="ytick_4">
     <g id="line2d_4">
      <path d="M 76.289971 259.984931 
L 857.489971 259.984931 
" clip-path="url(#p410fef76dc)" style="fill: none; stroke: #cccccc; stroke-width: 0.8; stroke-linecap: round"/>
     </g>
     <g id="text_17">
      <!-- 60 -->
      <g style="fill: #262626" transform="translate(43.839971 267.583368) scale(0.2 -0.2)">
       <use xlink:href="#DejaVuSans-36"/>
       <use xlink:href="#DejaVuSans-30" x="63.623047"/>
      </g>
     </g>
    </g>
    <g id="ytick_5">
     <g id="line2d_5">
      <path d="M 76.289971 167.846574 
L 857.489971 167.846574 
" clip-path="url(#p410fef76dc)" style="fill: none; stroke: #cccccc; stroke-width: 0.8; stroke-linecap: round"/>
     </g>
     <g id="text_18">
      <!-- 80 -->
      <g style="fill: #262626" transform="translate(43.839971 175.445012) scale(0.2 -0.2)">
       <defs>
        <path id="DejaVuSans-38" d="M 2034 2216 
Q 1584 2216 1326 1975 
Q 1069 1734 1069 1313 
Q 1069 891 1326 650 
Q 1584 409 2034 409 
Q 2484 409 2743 651 
Q 3003 894 3003 1313 
Q 3003 1734 2745 1975 
Q 2488 2216 2034 2216 
z
M 1403 2484 
Q 997 2584 770 2862 
Q 544 3141 544 3541 
Q 544 4100 942 4425 
Q 1341 4750 2034 4750 
Q 2731 4750 3128 4425 
Q 3525 4100 3525 3541 
Q 3525 3141 3298 2862 
Q 3072 2584 2669 2484 
Q 3125 2378 3379 2068 
Q 3634 1759 3634 1313 
Q 3634 634 3220 271 
Q 2806 -91 2034 -91 
Q 1263 -91 848 271 
Q 434 634 434 1313 
Q 434 1759 690 2068 
Q 947 2378 1403 2484 
z
M 1172 3481 
Q 1172 3119 1398 2916 
Q 1625 2713 2034 2713 
Q 2441 2713 2670 2916 
Q 2900 3119 2900 3481 
Q 2900 3844 2670 4047 
Q 2441 4250 2034 4250 
Q 1625 4250 1398 4047 
Q 1172 3844 1172 3481 
z
" transform="scale(0.015625)"/>
       </defs>
       <use xlink:href="#DejaVuSans-38"/>
       <use xlink:href="#DejaVuSans-30" x="63.623047"/>
      </g>
     </g>
    </g>
    <g id="ytick_6">
     <g id="line2d_6">
      <path d="M 76.289971 75.708218 
L 857.489971 75.708218 
" clip-path="url(#p410fef76dc)" style="fill: none; stroke: #cccccc; stroke-width: 0.8; stroke-linecap: round"/>
     </g>
     <g id="text_19">
      <!-- 100 -->
      <g style="fill: #262626" transform="translate(31.114971 83.306655) scale(0.2 -0.2)">
       <defs>
        <path id="DejaVuSans-31" d="M 794 531 
L 1825 531 
L 1825 4091 
L 703 3866 
L 703 4441 
L 1819 4666 
L 2450 4666 
L 2450 531 
L 3481 531 
L 3481 0 
L 794 0 
L 794 531 
z
" transform="scale(0.015625)"/>
       </defs>
       <use xlink:href="#DejaVuSans-31"/>
       <use xlink:href="#DejaVuSans-30" x="63.623047"/>
       <use xlink:href="#DejaVuSans-30" x="127.246094"/>
      </g>
     </g>
    </g>
    <g id="text_20">
     <!-- pLDDT -->
     <g style="fill: #262626" transform="translate(22.955596 317.828125) rotate(-90) scale(0.2 -0.2)">
      <defs>
       <path id="DejaVuSans-4c" d="M 628 4666 
L 1259 4666 
L 1259 531 
L 3531 531 
L 3531 0 
L 628 0 
L 628 4666 
z
" transform="scale(0.015625)"/>
      </defs>
      <use xlink:href="#DejaVuSans-70"/>
      <use xlink:href="#DejaVuSans-4c" x="63.476562"/>
      <use xlink:href="#DejaVuSans-44" x="119.189453"/>
      <use xlink:href="#DejaVuSans-44" x="196.191406"/>
      <use xlink:href="#DejaVuSans-54" x="273.193359"/>
     </g>
    </g>
   </g>
   <g id="PolyCollection_1">
    <defs>
     <path id="m1096a16106" d="M 108.928391 -547.558983 
L 108.75155 -547.558983 
L 108.718687 -548.575722 
L 108.678008 -549.592462 
L 108.62938 -550.609202 
L 108.573316 -551.625941 
L 108.511081 -552.642681 
L 108.444697 -553.65942 
L 108.376827 -554.67616 
L 108.310517 -555.6929 
L 108.248817 -556.709639 
L 108.19432 -557.726379 
L 108.148697 -558.743118 
L 108.112291 -559.759858 
L 108.083879 -560.776598 
L 108.060643 -561.793337 
L 108.038392 -562.810077 
L 108.012021 -563.826816 
L 107.976143 -564.843556 
L 107.92582 -565.860296 
L 107.857266 -566.877035 
L 107.768438 -567.893775 
L 107.659412 -568.910514 
L 107.532502 -569.927254 
L 107.392104 -570.943994 
L 107.244297 -571.960733 
L 107.096259 -572.977473 
L 106.955567 -573.994212 
L 106.829465 -575.010952 
L 106.724171 -576.027692 
L 106.644278 -577.044431 
L 106.592286 -578.061171 
L 106.568292 -579.07791 
L 106.56985 -580.09465 
L 106.592 -581.111389 
L 106.627468 -582.128129 
L 106.667028 -583.144869 
L 106.699993 -584.161608 
L 106.71482 -585.178348 
L 106.699764 -586.195087 
L 106.643535 -587.211827 
L 106.535908 -588.228567 
L 106.368246 -589.245306 
L 106.133915 -590.262046 
L 105.828601 -591.278785 
L 105.450555 -592.295525 
L 105.000782 -593.312265 
L 104.48319 -594.329004 
L 103.90467 -595.345744 
L 103.275031 -596.362483 
L 102.606711 -597.379223 
L 101.914118 -598.395963 
L 101.21256 -599.412702 
L 100.516724 -600.429442 
L 99.838816 -601.446181 
L 99.186582 -602.462921 
L 98.56153 -603.479661 
L 97.957727 -604.4964 
L 97.361534 -605.51314 
L 96.752531 -606.529879 
L 96.105686 -607.546619 
L 95.394625 -608.563359 
L 94.595611 -609.580098 
L 93.691659 -610.596838 
L 92.676167 -611.613577 
L 91.555431 -612.630317 
L 90.349617 -613.647057 
L 89.091983 -614.663796 
L 87.826433 -615.680536 
L 86.603761 -616.697275 
L 85.477164 -617.714015 
L 84.497662 -618.730755 
L 83.710067 -619.747494 
L 83.149987 -620.764234 
L 82.842135 -621.780973 
L 82.799971 -622.797713 
L 83.026448 -623.814453 
L 83.515508 -624.831192 
L 84.253862 -625.847932 
L 85.222654 -626.864671 
L 86.398719 -627.881411 
L 87.755324 -628.898151 
L 89.26248 -629.91489 
L 90.887045 -630.93163 
L 92.592913 -631.948369 
L 94.341571 -632.965109 
L 96.093185 -633.981848 
L 97.808222 -634.998588 
L 99.449474 -636.015328 
L 100.984184 -637.032067 
L 102.385968 -638.048807 
L 103.63621 -639.065546 
L 104.724735 -640.082286 
L 105.649665 -641.099026 
L 106.416546 -642.115765 
L 107.036902 -643.132505 
L 107.526472 -644.149244 
L 107.903378 -645.165984 
L 108.186444 -646.182724 
L 108.393835 -647.199463 
L 108.542069 -648.216203 
L 109.137873 -648.216203 
L 109.137873 -648.216203 
L 109.286106 -647.199463 
L 109.493497 -646.182724 
L 109.776564 -645.165984 
L 110.153469 -644.149244 
L 110.643039 -643.132505 
L 111.263395 -642.115765 
L 112.030276 -641.099026 
L 112.955206 -640.082286 
L 114.043731 -639.065546 
L 115.293974 -638.048807 
L 116.695758 -637.032067 
L 118.230467 -636.015328 
L 119.871719 -634.998588 
L 121.586756 -633.981848 
L 123.33837 -632.965109 
L 125.087028 -631.948369 
L 126.792897 -630.93163 
L 128.417461 -629.91489 
L 129.924618 -628.898151 
L 131.281222 -627.881411 
L 132.457287 -626.864671 
L 133.426079 -625.847932 
L 134.164433 -624.831192 
L 134.653493 -623.814453 
L 134.879971 -622.797713 
L 134.837806 -621.780973 
L 134.529955 -620.764234 
L 133.969874 -619.747494 
L 133.182279 -618.730755 
L 132.202778 -617.714015 
L 131.076181 -616.697275 
L 129.853509 -615.680536 
L 128.587958 -614.663796 
L 127.330325 -613.647057 
L 126.124511 -612.630317 
L 125.003774 -611.613577 
L 123.988282 -610.596838 
L 123.084331 -609.580098 
L 122.285316 -608.563359 
L 121.574256 -607.546619 
L 120.92741 -606.529879 
L 120.318407 -605.51314 
L 119.722215 -604.4964 
L 119.118411 -603.479661 
L 118.493359 -602.462921 
L 117.841126 -601.446181 
L 117.163218 -600.429442 
L 116.467381 -599.412702 
L 115.765824 -598.395963 
L 115.073231 -597.379223 
L 114.40491 -596.362483 
L 113.775272 -595.345744 
L 113.196751 -594.329004 
L 112.679159 -593.312265 
L 112.229387 -592.295525 
L 111.851341 -591.278785 
L 111.546027 -590.262046 
L 111.311695 -589.245306 
L 111.144033 -588.228567 
L 111.036407 -587.211827 
L 110.980177 -586.195087 
L 110.965121 -585.178348 
L 110.979948 -584.161608 
L 111.012914 -583.144869 
L 111.052473 -582.128129 
L 111.087942 -581.111389 
L 111.110092 -580.09465 
L 111.11165 -579.07791 
L 111.087656 -578.061171 
L 111.035663 -577.044431 
L 110.95577 -576.027692 
L 110.850477 -575.010952 
L 110.724375 -573.994212 
L 110.583682 -572.977473 
L 110.435644 -571.960733 
L 110.287837 -570.943994 
L 110.147439 -569.927254 
L 110.020529 -568.910514 
L 109.911503 -567.893775 
L 109.822676 -566.877035 
L 109.754121 -565.860296 
L 109.703798 -564.843556 
L 109.667921 -563.826816 
L 109.641549 -562.810077 
L 109.619299 -561.793337 
L 109.596062 -560.776598 
L 109.56765 -559.759858 
L 109.531244 -558.743118 
L 109.485621 -557.726379 
L 109.431125 -556.709639 
L 109.369424 -555.6929 
L 109.303114 -554.67616 
L 109.235244 -553.65942 
L 109.16886 -552.642681 
L 109.106625 -551.625941 
L 109.050562 -550.609202 
L 109.001934 -549.592462 
L 108.961255 -548.575722 
L 108.928391 -547.558983 
z
" style="stroke: #3d3d3d; stroke-opacity: 0.5"/>
    </defs>
    <g clip-path="url(#p410fef76dc)">
     <use xlink:href="#m1096a16106" x="0" y="722.183991" style="fill: #3274a1; fill-opacity: 0.5; stroke: #3d3d3d; stroke-opacity: 0.5"/>
    </g>
   </g>
   <g id="PolyCollection_2">
    <defs>
     <path id="m81683b777b" d="M 174.01251 -288.086327 
L 173.867432 -288.086327 
L 173.834045 -291.94043 
L 173.791272 -295.794533 
L 173.739272 -299.648635 
L 173.67948 -303.502738 
L 173.614748 -307.356841 
L 173.549206 -311.210944 
L 173.487781 -315.065047 
L 173.435415 -318.919149 
L 173.396126 -322.773252 
L 173.372127 -326.627355 
L 173.363242 -330.481458 
L 173.366831 -334.335561 
L 173.378282 -338.189663 
L 173.392003 -342.043766 
L 173.402698 -345.897869 
L 173.40661 -349.751972 
L 173.40241 -353.606075 
L 173.391525 -357.460177 
L 173.377788 -361.31428 
L 173.366529 -365.168383 
L 173.363324 -369.022486 
L 173.37273 -372.876589 
L 173.397302 -376.730691 
L 173.437121 -380.584794 
L 173.489898 -384.438897 
L 173.551564 -388.293 
L 173.61716 -392.147103 
L 173.681777 -396.001205 
L 173.741326 -399.855308 
L 173.793005 -403.709411 
L 173.83543 -407.563514 
L 173.868483 -411.417617 
L 173.892978 -415.271719 
L 173.910275 -419.125822 
L 173.921927 -422.979925 
L 173.929417 -426.834028 
L 173.934 -430.688131 
L 173.936638 -434.542233 
L 173.937995 -438.396336 
L 173.938461 -442.250439 
L 173.938178 -446.104542 
L 173.937047 -449.958645 
L 173.934716 -453.812747 
L 173.930535 -457.66685 
L 173.923505 -461.520953 
L 173.912217 -465.375056 
L 173.894828 -469.229159 
L 173.869077 -473.083261 
L 173.832359 -476.937364 
L 173.781864 -480.791467 
L 173.714733 -484.64557 
L 173.628194 -488.499673 
L 173.519605 -492.353775 
L 173.386359 -496.207878 
L 173.225633 -500.061981 
L 173.034042 -503.916084 
L 172.807262 -507.770187 
L 172.539764 -511.624289 
L 172.224728 -515.478392 
L 171.854166 -519.332495 
L 171.419205 -523.186598 
L 170.910432 -527.040701 
L 170.318217 -530.894803 
L 169.633022 -534.748906 
L 168.845781 -538.603009 
L 167.948507 -542.457112 
L 166.935262 -546.311215 
L 165.803433 -550.165317 
L 164.555116 -554.01942 
L 163.198181 -557.873523 
L 161.746628 -561.727626 
L 160.220017 -565.581729 
L 158.642147 -569.435831 
L 157.039579 -573.289934 
L 155.440834 -577.144037 
L 153.876999 -580.99814 
L 152.383972 -584.852243 
L 151.005755 -588.706345 
L 149.797443 -592.560448 
L 148.826072 -596.414551 
L 148.167702 -600.268654 
L 147.899971 -604.122757 
L 148.090739 -607.976859 
L 148.784911 -611.830962 
L 149.992469 -615.685065 
L 151.680942 -619.539168 
L 153.774667 -623.393271 
L 156.161613 -627.247373 
L 158.706639 -631.101476 
L 161.268486 -634.955579 
L 163.716999 -638.809682 
L 165.947236 -642.663785 
L 167.888132 -646.517887 
L 169.504883 -650.37199 
L 170.795661 -654.226093 
L 171.784354 -658.080196 
L 172.511473 -661.934299 
L 173.025211 -665.788401 
L 173.374085 -669.642504 
L 174.505856 -669.642504 
L 174.505856 -669.642504 
L 174.854731 -665.788401 
L 175.368468 -661.934299 
L 176.095587 -658.080196 
L 177.08428 -654.226093 
L 178.375058 -650.37199 
L 179.991809 -646.517887 
L 181.932705 -642.663785 
L 184.162942 -638.809682 
L 186.611455 -634.955579 
L 189.173302 -631.101476 
L 191.718328 -627.247373 
L 194.105275 -623.393271 
L 196.199 -619.539168 
L 197.887472 -615.685065 
L 199.09503 -611.830962 
L 199.789202 -607.976859 
L 199.979971 -604.122757 
L 199.712239 -600.268654 
L 199.053869 -596.414551 
L 198.082499 -592.560448 
L 196.874186 -588.706345 
L 195.495969 -584.852243 
L 194.002942 -580.99814 
L 192.439108 -577.144037 
L 190.840362 -573.289934 
L 189.237794 -569.435831 
L 187.659924 -565.581729 
L 186.133313 -561.727626 
L 184.681761 -557.873523 
L 183.324826 -554.01942 
L 182.076508 -550.165317 
L 180.944679 -546.311215 
L 179.931434 -542.457112 
L 179.034161 -538.603009 
L 178.246919 -534.748906 
L 177.561724 -530.894803 
L 176.969509 -527.040701 
L 176.460736 -523.186598 
L 176.025775 -519.332495 
L 175.655213 -515.478392 
L 175.340177 -511.624289 
L 175.072679 -507.770187 
L 174.845899 -503.916084 
L 174.654308 -500.061981 
L 174.493583 -496.207878 
L 174.360336 -492.353775 
L 174.251747 -488.499673 
L 174.165209 -484.64557 
L 174.098078 -480.791467 
L 174.047582 -476.937364 
L 174.010864 -473.083261 
L 173.985113 -469.229159 
L 173.967724 -465.375056 
L 173.956436 -461.520953 
L 173.949406 -457.66685 
L 173.945226 -453.812747 
L 173.942894 -449.958645 
L 173.941763 -446.104542 
L 173.94148 -442.250439 
L 173.941946 -438.396336 
L 173.943303 -434.542233 
L 173.945941 -430.688131 
L 173.950524 -426.834028 
L 173.958014 -422.979925 
L 173.969666 -419.125822 
L 173.986963 -415.271719 
L 174.011458 -411.417617 
L 174.044511 -407.563514 
L 174.086937 -403.709411 
L 174.138616 -399.855308 
L 174.198164 -396.001205 
L 174.262781 -392.147103 
L 174.328377 -388.293 
L 174.390043 -384.438897 
L 174.44282 -380.584794 
L 174.48264 -376.730691 
L 174.507211 -372.876589 
L 174.516617 -369.022486 
L 174.513413 -365.168383 
L 174.502154 -361.31428 
L 174.488417 -357.460177 
L 174.477531 -353.606075 
L 174.473332 -349.751972 
L 174.477243 -345.897869 
L 174.487939 -342.043766 
L 174.50166 -338.189663 
L 174.51311 -334.335561 
L 174.516699 -330.481458 
L 174.507815 -326.627355 
L 174.483815 -322.773252 
L 174.444526 -318.919149 
L 174.39216 -315.065047 
L 174.330735 -311.210944 
L 174.265194 -307.356841 
L 174.200462 -303.502738 
L 174.14067 -299.648635 
L 174.08867 -295.794533 
L 174.045896 -291.94043 
L 174.01251 -288.086327 
z
" style="stroke: #3d3d3d; stroke-opacity: 0.5"/>
    </defs>
    <g clip-path="url(#p410fef76dc)">
     <use xlink:href="#m81683b777b" x="0" y="722.183991" style="fill: #3274a1; fill-opacity: 0.5; stroke: #3d3d3d; stroke-opacity: 0.5"/>
    </g>
   </g>
   <g id="PolyCollection_3">
    <defs>
     <path id="m725f9a894e" d="M 239.226681 -329.265177 
L 238.853261 -329.265177 
L 238.794177 -332.906781 
L 238.721139 -336.548386 
L 238.632433 -340.18999 
L 238.52661 -343.831594 
L 238.402643 -347.473198 
L 238.260087 -351.114802 
L 238.099228 -354.756406 
L 237.921204 -358.398011 
L 237.728078 -362.039615 
L 237.522855 -365.681219 
L 237.30942 -369.322823 
L 237.092402 -372.964427 
L 236.876966 -376.606032 
L 236.668536 -380.247636 
L 236.472483 -383.88924 
L 236.293798 -387.530844 
L 236.136775 -391.172448 
L 236.004748 -394.814052 
L 235.899903 -398.455657 
L 235.823174 -402.097261 
L 235.774257 -405.738865 
L 235.751707 -409.380469 
L 235.753127 -413.022073 
L 235.775418 -416.663678 
L 235.815052 -420.305282 
L 235.868347 -423.946886 
L 235.931715 -427.58849 
L 236.001845 -431.230094 
L 236.075834 -434.871698 
L 236.151243 -438.513303 
L 236.226099 -442.154907 
L 236.298843 -445.796511 
L 236.368257 -449.438115 
L 236.433379 -453.079719 
L 236.493418 -456.721324 
L 236.54769 -460.362928 
L 236.595561 -464.004532 
L 236.636411 -467.646136 
L 236.669601 -471.28774 
L 236.694447 -474.929344 
L 236.710185 -478.570949 
L 236.71593 -482.212553 
L 236.710629 -485.854157 
L 236.693015 -489.495761 
L 236.661566 -493.137365 
L 236.614474 -496.77897 
L 236.54964 -500.420574 
L 236.46468 -504.062178 
L 236.356952 -507.703782 
L 236.223584 -511.345386 
L 236.061503 -514.98699 
L 235.867433 -518.628595 
L 235.637875 -522.270199 
L 235.369037 -525.911803 
L 235.056739 -529.553407 
L 234.696292 -533.195011 
L 234.282375 -536.836616 
L 233.808962 -540.47822 
L 233.269307 -544.119824 
L 232.656062 -547.761428 
L 231.961543 -551.403032 
L 231.178193 -555.044636 
L 230.299235 -558.686241 
L 229.319522 -562.327845 
L 228.236541 -565.969449 
L 227.051509 -569.611053 
L 225.770473 -573.252657 
L 224.405294 -576.894261 
L 222.974404 -580.535866 
L 221.503187 -584.17747 
L 220.02389 -587.819074 
L 218.574967 -591.460678 
L 217.199816 -595.102282 
L 215.944936 -598.743887 
L 214.857573 -602.385491 
L 213.983007 -606.027095 
L 213.361681 -609.668699 
L 213.026419 -613.310303 
L 212.999971 -616.951907 
L 213.293145 -620.593512 
L 213.903714 -624.235116 
L 214.816218 -627.87672 
L 216.002728 -631.518324 
L 217.42448 -635.159928 
L 219.034276 -638.801533 
L 220.779402 -642.443137 
L 222.604813 -646.084741 
L 224.45631 -649.726345 
L 226.283423 -653.367949 
L 228.041803 -657.009553 
L 229.69496 -660.651158 
L 231.215267 -664.292762 
L 232.584248 -667.934366 
L 233.792201 -671.57597 
L 234.837307 -675.217574 
L 235.724351 -678.859179 
L 236.463249 -682.500783 
L 237.067511 -686.142387 
L 237.55279 -689.783991 
L 240.527152 -689.783991 
L 240.527152 -689.783991 
L 241.012431 -686.142387 
L 241.616693 -682.500783 
L 242.35559 -678.859179 
L 243.242635 -675.217574 
L 244.28774 -671.57597 
L 245.495693 -667.934366 
L 246.864674 -664.292762 
L 248.384982 -660.651158 
L 250.038139 -657.009553 
L 251.796519 -653.367949 
L 253.623631 -649.726345 
L 255.475128 -646.084741 
L 257.30054 -642.443137 
L 259.045665 -638.801533 
L 260.655461 -635.159928 
L 262.077214 -631.518324 
L 263.263723 -627.87672 
L 264.176228 -624.235116 
L 264.786796 -620.593512 
L 265.079971 -616.951907 
L 265.053523 -613.310303 
L 264.71826 -609.668699 
L 264.096935 -606.027095 
L 263.222368 -602.385491 
L 262.135005 -598.743887 
L 260.880126 -595.102282 
L 259.504975 -591.460678 
L 258.056051 -587.819074 
L 256.576754 -584.17747 
L 255.105537 -580.535866 
L 253.674647 -576.894261 
L 252.309469 -573.252657 
L 251.028432 -569.611053 
L 249.843401 -565.969449 
L 248.760419 -562.327845 
L 247.780706 -558.686241 
L 246.901748 -555.044636 
L 246.118398 -551.403032 
L 245.42388 -547.761428 
L 244.810634 -544.119824 
L 244.270979 -540.47822 
L 243.797566 -536.836616 
L 243.38365 -533.195011 
L 243.023202 -529.553407 
L 242.710904 -525.911803 
L 242.442067 -522.270199 
L 242.212508 -518.628595 
L 242.018439 -514.98699 
L 241.856357 -511.345386 
L 241.722989 -507.703782 
L 241.615261 -504.062178 
L 241.530301 -500.420574 
L 241.465467 -496.77897 
L 241.418376 -493.137365 
L 241.386926 -489.495761 
L 241.369312 -485.854157 
L 241.364011 -482.212553 
L 241.369756 -478.570949 
L 241.385494 -474.929344 
L 241.410341 -471.28774 
L 241.443531 -467.646136 
L 241.48438 -464.004532 
L 241.532251 -460.362928 
L 241.586523 -456.721324 
L 241.646562 -453.079719 
L 241.711684 -449.438115 
L 241.781098 -445.796511 
L 241.853842 -442.154907 
L 241.928698 -438.513303 
L 242.004108 -434.871698 
L 242.078097 -431.230094 
L 242.148226 -427.58849 
L 242.211594 -423.946886 
L 242.26489 -420.305282 
L 242.304523 -416.663678 
L 242.326814 -413.022073 
L 242.328234 -409.380469 
L 242.305684 -405.738865 
L 242.256767 -402.097261 
L 242.180039 -398.455657 
L 242.075193 -394.814052 
L 241.943166 -391.172448 
L 241.786143 -387.530844 
L 241.607458 -383.88924 
L 241.411406 -380.247636 
L 241.202976 -376.606032 
L 240.987539 -372.964427 
L 240.770521 -369.322823 
L 240.557086 -365.681219 
L 240.351863 -362.039615 
L 240.158737 -358.398011 
L 239.980713 -354.756406 
L 239.819854 -351.114802 
L 239.677298 -347.473198 
L 239.553331 -343.831594 
L 239.447508 -340.18999 
L 239.358803 -336.548386 
L 239.285765 -332.906781 
L 239.226681 -329.265177 
z
" style="stroke: #3d3d3d; stroke-opacity: 0.5"/>
    </defs>
    <g clip-path="url(#p410fef76dc)">
     <use xlink:href="#m725f9a894e" x="0" y="722.183991" style="fill: #e1812c; fill-opacity: 0.5; stroke: #3d3d3d; stroke-opacity: 0.5"/>
    </g>
   </g>
   <g id="PolyCollection_4">
    <defs>
     <path id="ma487502d1c" d="M 304.338444 -584.849332 
L 303.941497 -584.849332 
L 303.872216 -585.483381 
L 303.786268 -586.11743 
L 303.682441 -586.751478 
L 303.560418 -587.385527 
L 303.421053 -588.019576 
L 303.266586 -588.653624 
L 303.100752 -589.287673 
L 302.928723 -589.921722 
L 302.756875 -590.555771 
L 302.592369 -591.189819 
L 302.442559 -591.823868 
L 302.314302 -592.457917 
L 302.213236 -593.091965 
L 302.143111 -593.726014 
L 302.105295 -594.360063 
L 302.098501 -594.994112 
L 302.11881 -595.62816 
L 302.159985 -596.262209 
L 302.214056 -596.896258 
L 302.272088 -597.530306 
L 302.325058 -598.164355 
L 302.364704 -598.798404 
L 302.384256 -599.432452 
L 302.378954 -600.066501 
L 302.346301 -600.70055 
L 302.28604 -601.334599 
L 302.199874 -601.968647 
L 302.090992 -602.602696 
L 301.963488 -603.236745 
L 301.82176 -603.870793 
L 301.669967 -604.504842 
L 301.511624 -605.138891 
L 301.34936 -605.77294 
L 301.184837 -606.406988 
L 301.018808 -607.041037 
L 300.851258 -607.675086 
L 300.681551 -608.309134 
L 300.50854 -608.943183 
L 300.330578 -609.577232 
L 300.145431 -610.21128 
L 299.950095 -610.845329 
L 299.740582 -611.479378 
L 299.511737 -612.113427 
L 299.257163 -612.747475 
L 298.969335 -613.381524 
L 298.63993 -614.015573 
L 298.260384 -614.649621 
L 297.822632 -615.28367 
L 297.31995 -615.917719 
L 296.747786 -616.551768 
L 296.104442 -617.185816 
L 295.391514 -617.819865 
L 294.613978 -618.453914 
L 293.779907 -619.087962 
L 292.899822 -619.722011 
L 291.985761 -620.35606 
L 291.050196 -620.990108 
L 290.104928 -621.624157 
L 289.160133 -622.258206 
L 288.223684 -622.892255 
L 287.300842 -623.526303 
L 286.39437 -624.160352 
L 285.505045 -624.794401 
L 284.632531 -625.428449 
L 283.776497 -626.062498 
L 282.93787 -626.696547 
L 282.120085 -627.330596 
L 281.330187 -627.964644 
L 280.579658 -628.598693 
L 279.884836 -629.232742 
L 279.266833 -629.86679 
L 278.750885 -630.500839 
L 278.365117 -631.134888 
L 278.138764 -631.768936 
L 278.099971 -632.402985 
L 278.273344 -633.037034 
L 278.677497 -633.671083 
L 279.32286 -634.305131 
L 280.21 -634.93918 
L 281.328696 -635.573229 
L 282.657885 -636.207277 
L 284.166547 -636.841326 
L 285.815441 -637.475375 
L 287.559537 -638.109424 
L 289.350892 -638.743472 
L 291.14167 -639.377521 
L 292.887022 -640.01157 
L 294.547548 -640.645618 
L 296.091154 -641.279667 
L 297.494175 -641.913716 
L 298.741745 -642.547764 
L 299.827469 -643.181813 
L 300.75252 -643.815862 
L 301.524325 -644.449911 
L 302.155025 -645.083959 
L 302.65988 -645.718008 
L 303.055773 -646.352057 
L 303.359919 -646.986105 
L 303.588844 -647.620154 
L 304.691098 -647.620154 
L 304.691098 -647.620154 
L 304.920023 -646.986105 
L 305.224169 -646.352057 
L 305.620062 -645.718008 
L 306.124916 -645.083959 
L 306.755616 -644.449911 
L 307.527421 -643.815862 
L 308.452472 -643.181813 
L 309.538196 -642.547764 
L 310.785766 -641.913716 
L 312.188787 -641.279667 
L 313.732394 -640.645618 
L 315.39292 -640.01157 
L 317.138271 -639.377521 
L 318.929049 -638.743472 
L 320.720404 -638.109424 
L 322.464501 -637.475375 
L 324.113394 -636.841326 
L 325.622056 -636.207277 
L 326.951245 -635.573229 
L 328.069941 -634.93918 
L 328.957081 -634.305131 
L 329.602444 -633.671083 
L 330.006598 -633.037034 
L 330.179971 -632.402985 
L 330.141177 -631.768936 
L 329.914825 -631.134888 
L 329.529056 -630.500839 
L 329.013108 -629.86679 
L 328.395105 -629.232742 
L 327.700283 -628.598693 
L 326.949754 -627.964644 
L 326.159857 -627.330596 
L 325.342071 -626.696547 
L 324.503445 -626.062498 
L 323.64741 -625.428449 
L 322.774897 -624.794401 
L 321.885572 -624.160352 
L 320.979099 -623.526303 
L 320.056257 -622.892255 
L 319.119808 -622.258206 
L 318.175013 -621.624157 
L 317.229745 -620.990108 
L 316.29418 -620.35606 
L 315.38012 -619.722011 
L 314.500034 -619.087962 
L 313.665963 -618.453914 
L 312.888427 -617.819865 
L 312.175499 -617.185816 
L 311.532155 -616.551768 
L 310.959991 -615.917719 
L 310.45731 -615.28367 
L 310.019558 -614.649621 
L 309.640011 -614.015573 
L 309.310606 -613.381524 
L 309.022779 -612.747475 
L 308.768205 -612.113427 
L 308.539359 -611.479378 
L 308.329846 -610.845329 
L 308.13451 -610.21128 
L 307.949363 -609.577232 
L 307.771402 -608.943183 
L 307.59839 -608.309134 
L 307.428684 -607.675086 
L 307.261133 -607.041037 
L 307.095105 -606.406988 
L 306.930581 -605.77294 
L 306.768317 -605.138891 
L 306.609974 -604.504842 
L 306.458181 -603.870793 
L 306.316453 -603.236745 
L 306.18895 -602.602696 
L 306.080068 -601.968647 
L 305.993901 -601.334599 
L 305.93364 -600.70055 
L 305.900987 -600.066501 
L 305.895685 -599.432452 
L 305.915237 -598.798404 
L 305.954883 -598.164355 
L 306.007853 -597.530306 
L 306.065886 -596.896258 
L 306.119956 -596.262209 
L 306.161132 -595.62816 
L 306.181441 -594.994112 
L 306.174647 -594.360063 
L 306.136831 -593.726014 
L 306.066706 -593.091965 
L 305.965639 -592.457917 
L 305.837383 -591.823868 
L 305.687573 -591.189819 
L 305.523066 -590.555771 
L 305.351219 -589.921722 
L 305.17919 -589.287673 
L 305.013355 -588.653624 
L 304.858889 -588.019576 
L 304.719523 -587.385527 
L 304.5975 -586.751478 
L 304.493674 -586.11743 
L 304.407725 -585.483381 
L 304.338444 -584.849332 
z
" style="stroke: #3d3d3d; stroke-opacity: 0.5"/>
    </defs>
    <g clip-path="url(#p410fef76dc)">
     <use xlink:href="#ma487502d1c" x="0" y="722.183991" style="fill: #3a923a; fill-opacity: 0.5; stroke: #3d3d3d; stroke-opacity: 0.5"/>
    </g>
   </g>
   <g id="PolyCollection_5">
    <defs>
     <path id="m11ac2dbb30" d="M 369.713845 -293.161676 
L 368.766096 -293.161676 
L 368.561057 -296.794461 
L 368.284628 -300.427246 
L 367.919451 -304.06003 
L 367.4468 -307.692815 
L 366.847537 -311.3256 
L 366.103421 -314.958385 
L 365.198742 -318.59117 
L 364.12218 -322.223954 
L 362.868742 -325.856739 
L 361.441579 -329.489524 
L 359.853443 -333.122309 
L 358.127552 -336.755094 
L 356.297666 -340.387879 
L 354.407223 -344.020663 
L 352.507515 -347.653448 
L 350.654976 -351.286233 
L 348.907785 -354.919018 
L 347.322075 -358.551803 
L 345.948134 -362.184588 
L 344.826948 -365.817372 
L 343.987477 -369.450157 
L 343.444892 -373.082942 
L 343.199971 -376.715727 
L 343.23965 -380.348512 
L 343.538649 -383.981296 
L 344.061964 -387.614081 
L 344.767929 -391.246866 
L 345.611556 -394.879651 
L 346.547796 -398.512436 
L 347.534471 -402.145221 
L 348.534625 -405.778005 
L 349.518167 -409.41079 
L 350.462732 -413.043575 
L 351.353799 -416.67636 
L 352.184139 -420.309145 
L 352.952769 -423.94193 
L 353.663562 -427.574714 
L 354.32372 -431.207499 
L 354.942259 -434.840284 
L 355.528666 -438.473069 
L 356.09179 -442.105854 
L 356.639042 -445.738638 
L 357.175908 -449.371423 
L 357.705746 -453.004208 
L 358.229838 -456.636993 
L 358.747639 -460.269778 
L 359.257172 -463.902563 
L 359.755508 -467.535347 
L 360.239282 -471.168132 
L 360.70519 -474.800917 
L 361.150421 -478.433702 
L 361.57299 -482.066487 
L 361.971937 -485.699271 
L 362.347396 -489.332056 
L 362.700524 -492.964841 
L 363.033312 -496.597626 
L 363.348318 -500.230411 
L 363.648356 -503.863196 
L 363.936161 -507.49598 
L 364.214101 -511.128765 
L 364.483928 -514.76155 
L 364.74661 -518.394335 
L 365.002242 -522.02712 
L 365.250063 -525.659905 
L 365.488547 -529.292689 
L 365.715597 -532.925474 
L 365.928799 -536.558259 
L 366.125739 -540.191044 
L 366.30433 -543.823829 
L 366.463136 -547.456613 
L 366.601628 -551.089398 
L 366.720361 -554.722183 
L 366.821022 -558.354968 
L 366.906347 -561.987753 
L 366.979919 -565.620538 
L 367.045865 -569.253322 
L 367.108495 -572.886107 
L 367.171936 -576.518892 
L 367.239797 -580.151677 
L 367.314915 -583.784462 
L 367.399193 -587.417247 
L 367.493541 -591.050031 
L 367.597908 -594.682816 
L 367.711391 -598.315601 
L 367.832382 -601.948386 
L 367.958752 -605.581171 
L 368.088036 -609.213955 
L 368.217613 -612.84674 
L 368.344876 -616.479525 
L 368.467373 -620.11231 
L 368.58294 -623.745095 
L 368.689797 -627.37788 
L 368.786616 -631.010664 
L 368.872561 -634.643449 
L 368.947285 -638.276234 
L 369.010901 -641.909019 
L 369.063918 -645.541804 
L 369.107158 -649.174589 
L 369.141664 -652.807373 
L 369.338278 -652.807373 
L 369.338278 -652.807373 
L 369.372783 -649.174589 
L 369.416024 -645.541804 
L 369.46904 -641.909019 
L 369.532656 -638.276234 
L 369.60738 -634.643449 
L 369.693325 -631.010664 
L 369.790144 -627.37788 
L 369.897001 -623.745095 
L 370.012568 -620.11231 
L 370.135066 -616.479525 
L 370.262328 -612.84674 
L 370.391906 -609.213955 
L 370.52119 -605.581171 
L 370.64756 -601.948386 
L 370.76855 -598.315601 
L 370.882033 -594.682816 
L 370.986401 -591.050031 
L 371.080749 -587.417247 
L 371.165026 -583.784462 
L 371.240144 -580.151677 
L 371.308005 -576.518892 
L 371.371446 -572.886107 
L 371.434077 -569.253322 
L 371.500023 -565.620538 
L 371.573595 -561.987753 
L 371.65892 -558.354968 
L 371.75958 -554.722183 
L 371.878313 -551.089398 
L 372.016806 -547.456613 
L 372.175611 -543.823829 
L 372.354202 -540.191044 
L 372.551142 -536.558259 
L 372.764345 -532.925474 
L 372.991395 -529.292689 
L 373.229879 -525.659905 
L 373.477699 -522.02712 
L 373.733332 -518.394335 
L 373.996013 -514.76155 
L 374.26584 -511.128765 
L 374.543781 -507.49598 
L 374.831586 -503.863196 
L 375.131623 -500.230411 
L 375.44663 -496.597626 
L 375.779417 -492.964841 
L 376.132545 -489.332056 
L 376.508005 -485.699271 
L 376.906952 -482.066487 
L 377.32952 -478.433702 
L 377.774752 -474.800917 
L 378.24066 -471.168132 
L 378.724434 -467.535347 
L 379.22277 -463.902563 
L 379.732302 -460.269778 
L 380.250103 -456.636993 
L 380.774195 -453.004208 
L 381.304033 -449.371423 
L 381.8409 -445.738638 
L 382.388152 -442.105854 
L 382.951275 -438.473069 
L 383.537682 -434.840284 
L 384.156222 -431.207499 
L 384.816379 -427.574714 
L 385.527172 -423.94193 
L 386.295802 -420.309145 
L 387.126143 -416.67636 
L 388.017209 -413.043575 
L 388.961774 -409.41079 
L 389.945316 -405.778005 
L 390.94547 -402.145221 
L 391.932145 -398.512436 
L 392.868385 -394.879651 
L 393.712012 -391.246866 
L 394.417978 -387.614081 
L 394.941292 -383.981296 
L 395.240292 -380.348512 
L 395.279971 -376.715727 
L 395.03505 -373.082942 
L 394.492465 -369.450157 
L 393.652993 -365.817372 
L 392.531807 -362.184588 
L 391.157866 -358.551803 
L 389.572157 -354.919018 
L 387.824965 -351.286233 
L 385.972426 -347.653448 
L 384.072718 -344.020663 
L 382.182275 -340.387879 
L 380.352389 -336.755094 
L 378.626499 -333.122309 
L 377.038362 -329.489524 
L 375.611199 -325.856739 
L 374.357761 -322.223954 
L 373.281199 -318.59117 
L 372.37652 -314.958385 
L 371.632405 -311.3256 
L 371.033142 -307.692815 
L 370.560491 -304.06003 
L 370.195313 -300.427246 
L 369.918885 -296.794461 
L 369.713845 -293.161676 
z
" style="stroke: #3d3d3d; stroke-opacity: 0.5"/>
    </defs>
    <g clip-path="url(#p410fef76dc)">
     <use xlink:href="#m11ac2dbb30" x="0" y="722.183991" style="fill: #c03d3e; fill-opacity: 0.5; stroke: #3d3d3d; stroke-opacity: 0.5"/>
    </g>
   </g>
   <g id="PolyCollection_6">
    <defs>
     <path id="m28a194ffcd" d="M 500.213994 -302.91789 
L 498.665948 -302.91789 
L 498.335619 -306.325032 
L 497.897389 -309.732174 
L 497.330077 -313.139315 
L 496.613525 -316.546457 
L 495.730636 -319.953599 
L 494.669636 -323.360741 
L 493.426333 -326.767883 
L 492.006055 -330.175025 
L 490.424944 -333.582167 
L 488.710326 -336.989309 
L 486.899958 -340.396451 
L 485.040107 -343.803593 
L 483.182614 -347.210735 
L 481.381221 -350.617877 
L 479.687611 -354.025019 
L 478.147656 -357.432161 
L 476.798341 -360.839302 
L 475.665734 -364.246444 
L 474.764207 -367.653586 
L 474.096901 -371.060728 
L 473.657251 -374.46787 
L 473.431239 -377.875012 
L 473.399971 -381.282154 
L 473.542162 -384.689296 
L 473.836227 -388.096438 
L 474.261742 -391.50358 
L 474.800217 -394.910722 
L 475.435226 -398.317864 
L 476.152067 -401.725006 
L 476.937128 -405.132148 
L 477.777206 -408.539289 
L 478.658961 -411.946431 
L 479.568636 -415.353573 
L 480.492132 -418.760715 
L 481.415435 -422.167857 
L 482.325316 -425.574999 
L 483.210204 -428.982141 
L 484.061067 -432.389283 
L 484.872126 -435.796425 
L 485.641274 -439.203567 
L 486.370076 -442.610709 
L 487.063328 -446.017851 
L 487.728204 -449.424993 
L 488.373113 -452.832134 
L 489.006429 -456.239276 
L 489.635293 -459.646418 
L 490.26466 -463.05356 
L 490.896726 -466.460702 
L 491.530789 -469.867844 
L 492.163535 -473.274986 
L 492.789639 -476.682128 
L 493.402549 -480.08927 
L 493.995294 -483.496412 
L 494.561189 -486.903554 
L 495.094319 -490.310696 
L 495.589803 -493.717838 
L 496.043837 -497.12498 
L 496.453586 -500.532121 
L 496.817019 -503.939263 
L 497.132762 -507.346405 
L 497.400025 -510.753547 
L 497.618614 -514.160689 
L 497.789042 -517.567831 
L 497.91267 -520.974973 
L 497.991842 -524.382115 
L 498.02997 -527.789257 
L 498.031534 -531.196399 
L 498.001985 -534.603541 
L 497.947561 -538.010683 
L 497.875035 -541.417825 
L 497.791426 -544.824967 
L 497.703697 -548.232108 
L 497.61846 -551.63925 
L 497.541711 -555.046392 
L 497.478599 -558.453534 
L 497.433247 -561.860676 
L 497.408635 -565.267818 
L 497.406544 -568.67496 
L 497.427583 -572.082102 
L 497.471274 -575.489244 
L 497.536213 -578.896386 
L 497.620251 -582.303528 
L 497.720709 -585.71067 
L 497.83457 -589.117812 
L 497.958651 -592.524954 
L 498.089735 -595.932095 
L 498.224664 -599.339237 
L 498.360409 -602.746379 
L 498.494128 -606.153521 
L 498.623217 -609.560663 
L 498.745379 -612.967805 
L 498.858684 -616.374947 
L 498.961639 -619.782089 
L 499.053238 -623.189231 
L 499.132985 -626.596373 
L 499.200883 -630.003515 
L 499.257387 -633.410657 
L 499.303328 -636.817799 
L 499.339804 -640.22494 
L 499.540137 -640.22494 
L 499.540137 -640.22494 
L 499.576614 -636.817799 
L 499.622554 -633.410657 
L 499.679059 -630.003515 
L 499.746956 -626.596373 
L 499.826703 -623.189231 
L 499.918302 -619.782089 
L 500.021257 -616.374947 
L 500.134562 -612.967805 
L 500.256724 -609.560663 
L 500.385814 -606.153521 
L 500.519532 -602.746379 
L 500.655278 -599.339237 
L 500.790206 -595.932095 
L 500.92129 -592.524954 
L 501.045372 -589.117812 
L 501.159233 -585.71067 
L 501.25969 -582.303528 
L 501.343729 -578.896386 
L 501.408667 -575.489244 
L 501.452359 -572.082102 
L 501.473397 -568.67496 
L 501.471306 -565.267818 
L 501.446694 -561.860676 
L 501.401342 -558.453534 
L 501.33823 -555.046392 
L 501.261481 -551.63925 
L 501.176244 -548.232108 
L 501.088515 -544.824967 
L 501.004907 -541.417825 
L 500.932381 -538.010683 
L 500.877957 -534.603541 
L 500.848408 -531.196399 
L 500.849972 -527.789257 
L 500.888099 -524.382115 
L 500.967271 -520.974973 
L 501.090899 -517.567831 
L 501.261328 -514.160689 
L 501.479917 -510.753547 
L 501.747179 -507.346405 
L 502.062923 -503.939263 
L 502.426356 -500.532121 
L 502.836104 -497.12498 
L 503.290138 -493.717838 
L 503.785623 -490.310696 
L 504.318753 -486.903554 
L 504.884647 -483.496412 
L 505.477393 -480.08927 
L 506.090302 -476.682128 
L 506.716406 -473.274986 
L 507.349152 -469.867844 
L 507.983216 -466.460702 
L 508.615281 -463.05356 
L 509.244648 -459.646418 
L 509.873513 -456.239276 
L 510.506828 -452.832134 
L 511.151737 -449.424993 
L 511.816613 -446.017851 
L 512.509865 -442.610709 
L 513.238667 -439.203567 
L 514.007815 -435.796425 
L 514.818874 -432.389283 
L 515.669737 -428.982141 
L 516.554626 -425.574999 
L 517.464506 -422.167857 
L 518.387809 -418.760715 
L 519.311306 -415.353573 
L 520.22098 -411.946431 
L 521.102735 -408.539289 
L 521.942814 -405.132148 
L 522.727874 -401.725006 
L 523.444715 -398.317864 
L 524.079725 -394.910722 
L 524.618199 -391.50358 
L 525.043714 -388.096438 
L 525.33778 -384.689296 
L 525.479971 -381.282154 
L 525.448702 -377.875012 
L 525.222691 -374.46787 
L 524.783041 -371.060728 
L 524.115734 -367.653586 
L 523.214207 -364.246444 
L 522.0816 -360.839302 
L 520.732285 -357.432161 
L 519.192331 -354.025019 
L 517.498721 -350.617877 
L 515.697327 -347.210735 
L 513.839834 -343.803593 
L 511.979983 -340.396451 
L 510.169615 -336.989309 
L 508.454998 -333.582167 
L 506.873887 -330.175025 
L 505.453608 -326.767883 
L 504.210305 -323.360741 
L 503.149305 -319.953599 
L 502.266417 -316.546457 
L 501.549865 -313.139315 
L 500.982552 -309.732174 
L 500.544322 -306.325032 
L 500.213994 -302.91789 
z
" style="stroke: #3d3d3d; stroke-opacity: 0.5"/>
    </defs>
    <g clip-path="url(#p410fef76dc)">
     <use xlink:href="#m28a194ffcd" x="0" y="722.183991" style="fill: #845b53; fill-opacity: 0.5; stroke: #3d3d3d; stroke-opacity: 0.5"/>
    </g>
   </g>
   <g id="PolyCollection_7">
    <defs>
     <path id="m8fd7edf9c4" d="M 564.604491 -447.078849 
L 564.47545 -447.078849 
L 564.444451 -449.187533 
L 564.404482 -451.296217 
L 564.35584 -453.404901 
L 564.300219 -455.513585 
L 564.240874 -457.622269 
L 564.182472 -459.730953 
L 564.130567 -461.839637 
L 564.090769 -463.948321 
L 564.06775 -466.057005 
L 564.064347 -468.165689 
L 564.080989 -470.274373 
L 564.1156 -472.383057 
L 564.164029 -474.491741 
L 564.220859 -476.600425 
L 564.28039 -478.709109 
L 564.337533 -480.817793 
L 564.388431 -482.926477 
L 564.430707 -485.035161 
L 564.463343 -487.143845 
L 564.486316 -489.252529 
L 564.500112 -491.361213 
L 564.505266 -493.469897 
L 564.502032 -495.578581 
L 564.490247 -497.687265 
L 564.469417 -499.795949 
L 564.439009 -501.904633 
L 564.398884 -504.013317 
L 564.349795 -506.122001 
L 564.293789 -508.230685 
L 564.234392 -510.339369 
L 564.176453 -512.448053 
L 564.125605 -514.556737 
L 564.087417 -516.665421 
L 564.066409 -518.774105 
L 564.065179 -520.882789 
L 564.083875 -522.991473 
L 564.120159 -525.100157 
L 564.16967 -527.208841 
L 564.226859 -529.317525 
L 564.285946 -531.426209 
L 564.341763 -533.534893 
L 564.390296 -535.643577 
L 564.428825 -537.752261 
L 564.455727 -539.860945 
L 564.470045 -541.969629 
L 564.471001 -544.078313 
L 564.457624 -546.186997 
L 564.428596 -548.295681 
L 564.382396 -550.404365 
L 564.317701 -552.513049 
L 564.233947 -554.621733 
L 564.131883 -556.730417 
L 564.013887 -558.839101 
L 563.883873 -560.947785 
L 563.746678 -563.056469 
L 563.607019 -565.165153 
L 563.468226 -567.273837 
L 563.331156 -569.382521 
L 563.193649 -571.491205 
L 563.050774 -573.599889 
L 562.89582 -575.708573 
L 562.721687 -577.817257 
L 562.522098 -579.925941 
L 562.292014 -582.034625 
L 562.026844 -584.143309 
L 561.720465 -586.251993 
L 561.362485 -588.360677 
L 560.935604 -590.469361 
L 560.414016 -592.578045 
L 559.763679 -594.686729 
L 558.944928 -596.795413 
L 557.917395 -598.904097 
L 556.646751 -601.012781 
L 555.112399 -603.121465 
L 553.315012 -605.230149 
L 551.282714 -607.338833 
L 549.074774 -609.447517 
L 546.781852 -611.556201 
L 544.522168 -613.664885 
L 542.433454 -615.773569 
L 540.661107 -617.882253 
L 539.343618 -619.990937 
L 538.596952 -622.099621 
L 538.499971 -624.208305 
L 539.08317 -626.316989 
L 540.322765 -628.425673 
L 542.1415 -630.534357 
L 544.416537 -632.643041 
L 546.99352 -634.751725 
L 549.7047 -636.860409 
L 552.388146 -638.969093 
L 554.904834 -641.077777 
L 557.150918 -643.186462 
L 559.063568 -645.295146 
L 560.620216 -647.40383 
L 561.832387 -649.512514 
L 562.736166 -651.621198 
L 563.381648 -653.729882 
L 563.823378 -655.838566 
L 565.256563 -655.838566 
L 565.256563 -655.838566 
L 565.698294 -653.729882 
L 566.343775 -651.621198 
L 567.247554 -649.512514 
L 568.459725 -647.40383 
L 570.016373 -645.295146 
L 571.929023 -643.186462 
L 574.175107 -641.077777 
L 576.691796 -638.969093 
L 579.375241 -636.860409 
L 582.086422 -634.751725 
L 584.663405 -632.643041 
L 586.938441 -630.534357 
L 588.757176 -628.425673 
L 589.996771 -626.316989 
L 590.579971 -624.208305 
L 590.482989 -622.099621 
L 589.736323 -619.990937 
L 588.418835 -617.882253 
L 586.646487 -615.773569 
L 584.557774 -613.664885 
L 582.29809 -611.556201 
L 580.005167 -609.447517 
L 577.797227 -607.338833 
L 575.764929 -605.230149 
L 573.967542 -603.121465 
L 572.433191 -601.012781 
L 571.162547 -598.904097 
L 570.135013 -596.795413 
L 569.316262 -594.686729 
L 568.665925 -592.578045 
L 568.144337 -590.469361 
L 567.717457 -588.360677 
L 567.359477 -586.251993 
L 567.053097 -584.143309 
L 566.787927 -582.034625 
L 566.557843 -579.925941 
L 566.358254 -577.817257 
L 566.184122 -575.708573 
L 566.029167 -573.599889 
L 565.886292 -571.491205 
L 565.748786 -569.382521 
L 565.611715 -567.273837 
L 565.472922 -565.165153 
L 565.333263 -563.056469 
L 565.196069 -560.947785 
L 565.066054 -558.839101 
L 564.948058 -556.730417 
L 564.845994 -554.621733 
L 564.762241 -552.513049 
L 564.697545 -550.404365 
L 564.651345 -548.295681 
L 564.622318 -546.186997 
L 564.60894 -544.078313 
L 564.609897 -541.969629 
L 564.624214 -539.860945 
L 564.651116 -537.752261 
L 564.689645 -535.643577 
L 564.738178 -533.534893 
L 564.793996 -531.426209 
L 564.853082 -529.317525 
L 564.910271 -527.208841 
L 564.959783 -525.100157 
L 564.996066 -522.991473 
L 565.014763 -520.882789 
L 565.013533 -518.774105 
L 564.992524 -516.665421 
L 564.954336 -514.556737 
L 564.903488 -512.448053 
L 564.84555 -510.339369 
L 564.786153 -508.230685 
L 564.730146 -506.122001 
L 564.681057 -504.013317 
L 564.640933 -501.904633 
L 564.610524 -499.795949 
L 564.589694 -497.687265 
L 564.577909 -495.578581 
L 564.574675 -493.469897 
L 564.579829 -491.361213 
L 564.593626 -489.252529 
L 564.616599 -487.143845 
L 564.649235 -485.035161 
L 564.69151 -482.926477 
L 564.742409 -480.817793 
L 564.799551 -478.709109 
L 564.859082 -476.600425 
L 564.915913 -474.491741 
L 564.964342 -472.383057 
L 564.998953 -470.274373 
L 565.015594 -468.165689 
L 565.012192 -466.057005 
L 564.989172 -463.948321 
L 564.949374 -461.839637 
L 564.89747 -459.730953 
L 564.839067 -457.622269 
L 564.779723 -455.513585 
L 564.724101 -453.404901 
L 564.67546 -451.296217 
L 564.635491 -449.187533 
L 564.604491 -447.078849 
z
" style="stroke: #3d3d3d; stroke-opacity: 0.5"/>
    </defs>
    <g clip-path="url(#p410fef76dc)">
     <use xlink:href="#m8fd7edf9c4" x="0" y="722.183991" style="fill: #d684bd; fill-opacity: 0.5; stroke: #3d3d3d; stroke-opacity: 0.5"/>
    </g>
   </g>
   <g id="PolyCollection_8">
    <defs>
     <path id="m8e06da1eac" d="M 694.8029 -447.911206 
L 694.677041 -447.911206 
L 694.641052 -450.018108 
L 694.593227 -452.12501 
L 694.534525 -454.231911 
L 694.468521 -456.338813 
L 694.401487 -458.445714 
L 694.341641 -460.552616 
L 694.297583 -462.659517 
L 694.276289 -464.766419 
L 694.281309 -466.87332 
L 694.311795 -468.980222 
L 694.362741 -471.087124 
L 694.426319 -473.194025 
L 694.493852 -475.300927 
L 694.557708 -477.407828 
L 694.612589 -479.51473 
L 694.655953 -481.621631 
L 694.687672 -483.728533 
L 694.709247 -485.835434 
L 694.722937 -487.942336 
L 694.731058 -490.049237 
L 694.73557 -492.156139 
L 694.73792 -494.263041 
L 694.739069 -496.369942 
L 694.739596 -498.476844 
L 694.739824 -500.583745 
L 694.739916 -502.690647 
L 694.739952 -504.797548 
L 694.739964 -506.90445 
L 694.739969 -509.011351 
L 694.73997 -511.118253 
L 694.739971 -513.225154 
L 694.739971 -515.332056 
L 694.739971 -517.438958 
L 694.739971 -519.545859 
L 694.739971 -521.652761 
L 694.739971 -523.759662 
L 694.739971 -525.866564 
L 694.739971 -527.973465 
L 694.739971 -530.080367 
L 694.739971 -532.187268 
L 694.739971 -534.29417 
L 694.739971 -536.401071 
L 694.739971 -538.507973 
L 694.739971 -540.614875 
L 694.739971 -542.721776 
L 694.73997 -544.828678 
L 694.739969 -546.935579 
L 694.739965 -549.042481 
L 694.739954 -551.149382 
L 694.739923 -553.256284 
L 694.739839 -555.363185 
L 694.739627 -557.470087 
L 694.739122 -559.576988 
L 694.737984 -561.68389 
L 694.735568 -563.790792 
L 694.730724 -565.897693 
L 694.721557 -568.004595 
L 694.705164 -570.111496 
L 694.677461 -572.218398 
L 694.633181 -574.325299 
L 694.566185 -576.432201 
L 694.470118 -578.539102 
L 694.339363 -580.646004 
L 694.17006 -582.752905 
L 693.960845 -584.859807 
L 693.712956 -586.966709 
L 693.429418 -589.07361 
L 693.113336 -591.180512 
L 692.765539 -593.287413 
L 692.382108 -595.394315 
L 691.952316 -597.501216 
L 691.457412 -599.608118 
L 690.870434 -601.715019 
L 690.157066 -603.821921 
L 689.27754 -605.928822 
L 688.189747 -608.035724 
L 686.853953 -610.142626 
L 685.239583 -612.249527 
L 683.334284 -614.356429 
L 681.154845 -616.46333 
L 678.758491 -618.570232 
L 676.251864 -620.677133 
L 673.79394 -622.784035 
L 671.588819 -624.890936 
L 669.865546 -626.997838 
L 668.845191 -629.104739 
L 668.699971 -631.211641 
L 669.513751 -633.318543 
L 671.255557 -635.425444 
L 673.77589 -637.532346 
L 676.829558 -639.639247 
L 680.120224 -641.746149 
L 683.354625 -643.85305 
L 686.291473 -645.959952 
L 688.772759 -648.066853 
L 690.732028 -650.173755 
L 692.18205 -652.280657 
L 693.189813 -654.387558 
L 693.848437 -656.49446 
L 695.631504 -656.49446 
L 695.631504 -656.49446 
L 696.290128 -654.387558 
L 697.297891 -652.280657 
L 698.747913 -650.173755 
L 700.707183 -648.066853 
L 703.188468 -645.959952 
L 706.125317 -643.85305 
L 709.359717 -641.746149 
L 712.650383 -639.639247 
L 715.704051 -637.532346 
L 718.224385 -635.425444 
L 719.96619 -633.318543 
L 720.779971 -631.211641 
L 720.63475 -629.104739 
L 719.614396 -626.997838 
L 717.891123 -624.890936 
L 715.686001 -622.784035 
L 713.228077 -620.677133 
L 710.721451 -618.570232 
L 708.325096 -616.46333 
L 706.145658 -614.356429 
L 704.240359 -612.249527 
L 702.625988 -610.142626 
L 701.290194 -608.035724 
L 700.202401 -605.928822 
L 699.322875 -603.821921 
L 698.609508 -601.715019 
L 698.02253 -599.608118 
L 697.527625 -597.501216 
L 697.097833 -595.394315 
L 696.714402 -593.287413 
L 696.366605 -591.180512 
L 696.050523 -589.07361 
L 695.766986 -586.966709 
L 695.519096 -584.859807 
L 695.309882 -582.752905 
L 695.140578 -580.646004 
L 695.009823 -578.539102 
L 694.913757 -576.432201 
L 694.84676 -574.325299 
L 694.80248 -572.218398 
L 694.774777 -570.111496 
L 694.758385 -568.004595 
L 694.749217 -565.897693 
L 694.744373 -563.790792 
L 694.741957 -561.68389 
L 694.74082 -559.576988 
L 694.740314 -557.470087 
L 694.740102 -555.363185 
L 694.740018 -553.256284 
L 694.739987 -551.149382 
L 694.739976 -549.042481 
L 694.739972 -546.935579 
L 694.739971 -544.828678 
L 694.739971 -542.721776 
L 694.739971 -540.614875 
L 694.739971 -538.507973 
L 694.739971 -536.401071 
L 694.739971 -534.29417 
L 694.739971 -532.187268 
L 694.739971 -530.080367 
L 694.739971 -527.973465 
L 694.739971 -525.866564 
L 694.739971 -523.759662 
L 694.739971 -521.652761 
L 694.739971 -519.545859 
L 694.739971 -517.438958 
L 694.739971 -515.332056 
L 694.739971 -513.225154 
L 694.739971 -511.118253 
L 694.739973 -509.011351 
L 694.739977 -506.90445 
L 694.73999 -504.797548 
L 694.740025 -502.690647 
L 694.740117 -500.583745 
L 694.740345 -498.476844 
L 694.740873 -496.369942 
L 694.742022 -494.263041 
L 694.744371 -492.156139 
L 694.748883 -490.049237 
L 694.757004 -487.942336 
L 694.770694 -485.835434 
L 694.792269 -483.728533 
L 694.823988 -481.621631 
L 694.867352 -479.51473 
L 694.922233 -477.407828 
L 694.986089 -475.300927 
L 695.053622 -473.194025 
L 695.117201 -471.087124 
L 695.168146 -468.980222 
L 695.198633 -466.87332 
L 695.203653 -464.766419 
L 695.182359 -462.659517 
L 695.1383 -460.552616 
L 695.078455 -458.445714 
L 695.01142 -456.338813 
L 694.945416 -454.231911 
L 694.886715 -452.12501 
L 694.83889 -450.018108 
L 694.8029 -447.911206 
z
" style="stroke: #3d3d3d; stroke-opacity: 0.5"/>
    </defs>
    <g clip-path="url(#p410fef76dc)">
     <use xlink:href="#m8e06da1eac" x="0" y="722.183991" style="fill: #a9aa35; fill-opacity: 0.5; stroke: #3d3d3d; stroke-opacity: 0.5"/>
    </g>
   </g>
   <g id="PolyCollection_9">
    <defs>
     <path id="m42c87eb700" d="M 759.896922 -336.41435 
L 759.783019 -336.41435 
L 759.758802 -339.809387 
L 759.72791 -343.204424 
L 759.690039 -346.599461 
L 759.645446 -349.994498 
L 759.595055 -353.389535 
L 759.540452 -356.784572 
L 759.483777 -360.179609 
L 759.427504 -363.574647 
L 759.374155 -366.969684 
L 759.326015 -370.364721 
L 759.284903 -373.759758 
L 759.252058 -377.154795 
L 759.228152 -380.549832 
L 759.213404 -383.944869 
L 759.207727 -387.339906 
L 759.210844 -390.734943 
L 759.222311 -394.12998 
L 759.241439 -397.525017 
L 759.267141 -400.920055 
L 759.297783 -404.315092 
L 759.331125 -407.710129 
L 759.364414 -411.105166 
L 759.394661 -414.500203 
L 759.419068 -417.89524 
L 759.435514 -421.290277 
L 759.442995 -424.685314 
L 759.441902 -428.080351 
L 759.434055 -431.475388 
L 759.422476 -434.870425 
L 759.410912 -438.265463 
L 759.403222 -441.6605 
L 759.402732 -445.055537 
L 759.411685 -448.450574 
L 759.430896 -451.845611 
L 759.459657 -455.240648 
L 759.495893 -458.635685 
L 759.536512 -462.030722 
L 759.577869 -465.425759 
L 759.616232 -468.820796 
L 759.648206 -472.215834 
L 759.671035 -475.610871 
L 759.682806 -479.005908 
L 759.682559 -482.400945 
L 759.670336 -485.795982 
L 759.647182 -489.191019 
L 759.615113 -492.586056 
L 759.577018 -495.981093 
L 759.536472 -499.37613 
L 759.497445 -502.771167 
L 759.463907 -506.166204 
L 759.43937 -509.561242 
L 759.426425 -512.956279 
L 759.426363 -516.351316 
L 759.438935 -519.746353 
L 759.462295 -523.14139 
L 759.49311 -526.536427 
L 759.526784 -529.931464 
L 759.557709 -533.326501 
L 759.579459 -536.721538 
L 759.584864 -540.116575 
L 759.565923 -543.511612 
L 759.513595 -546.90665 
L 759.417502 -550.301687 
L 759.265615 -553.696724 
L 759.044001 -557.091761 
L 758.736649 -560.486798 
L 758.325434 -563.881835 
L 757.790245 -567.276872 
L 757.109347 -570.671909 
L 756.260117 -574.066946 
L 755.22035 -577.461983 
L 753.970373 -580.85702 
L 752.496134 -584.252058 
L 750.793312 -587.647095 
L 748.872174 -591.042132 
L 746.762563 -594.437169 
L 744.518049 -597.832206 
L 742.217999 -601.227243 
L 739.966399 -604.62228 
L 737.886539 -608.017317 
L 736.111383 -611.412354 
L 734.770345 -614.807391 
L 733.974123 -618.202428 
L 733.799971 -621.597466 
L 734.280059 -624.992503 
L 735.395252 -628.38754 
L 737.075739 -631.782577 
L 739.20867 -635.177614 
L 741.651568 -638.572651 
L 744.249202 -641.967688 
L 746.850976 -645.362725 
L 749.326033 -648.757762 
L 751.57391 -652.152799 
L 753.529681 -655.547836 
L 755.163664 -658.942874 
L 756.476752 -662.337911 
L 757.492989 -665.732948 
L 758.251136 -669.127985 
L 758.796738 -672.523022 
L 760.883203 -672.523022 
L 760.883203 -672.523022 
L 761.428806 -669.127985 
L 762.186952 -665.732948 
L 763.203189 -662.337911 
L 764.516277 -658.942874 
L 766.15026 -655.547836 
L 768.106031 -652.152799 
L 770.353909 -648.757762 
L 772.828966 -645.362725 
L 775.430739 -641.967688 
L 778.028373 -638.572651 
L 780.471272 -635.177614 
L 782.604202 -631.782577 
L 784.284689 -628.38754 
L 785.399883 -624.992503 
L 785.879971 -621.597466 
L 785.705818 -618.202428 
L 784.909596 -614.807391 
L 783.568558 -611.412354 
L 781.793402 -608.017317 
L 779.713542 -604.62228 
L 777.461943 -601.227243 
L 775.161893 -597.832206 
L 772.917378 -594.437169 
L 770.807768 -591.042132 
L 768.886629 -587.647095 
L 767.183807 -584.252058 
L 765.709568 -580.85702 
L 764.459591 -577.461983 
L 763.419825 -574.066946 
L 762.570594 -570.671909 
L 761.889696 -567.276872 
L 761.354507 -563.881835 
L 760.943292 -560.486798 
L 760.63594 -557.091761 
L 760.414326 -553.696724 
L 760.26244 -550.301687 
L 760.166346 -546.90665 
L 760.114018 -543.511612 
L 760.095077 -540.116575 
L 760.100482 -536.721538 
L 760.122233 -533.326501 
L 760.153157 -529.931464 
L 760.186831 -526.536427 
L 760.217647 -523.14139 
L 760.241007 -519.746353 
L 760.253578 -516.351316 
L 760.253516 -512.956279 
L 760.240572 -509.561242 
L 760.216034 -506.166204 
L 760.182497 -502.771167 
L 760.143469 -499.37613 
L 760.102923 -495.981093 
L 760.064828 -492.586056 
L 760.032759 -489.191019 
L 760.009605 -485.795982 
L 759.997382 -482.400945 
L 759.997136 -479.005908 
L 760.008906 -475.610871 
L 760.031735 -472.215834 
L 760.063709 -468.820796 
L 760.102073 -465.425759 
L 760.143429 -462.030722 
L 760.184049 -458.635685 
L 760.220285 -455.240648 
L 760.249046 -451.845611 
L 760.268256 -448.450574 
L 760.277209 -445.055537 
L 760.276719 -441.6605 
L 760.26903 -438.265463 
L 760.257465 -434.870425 
L 760.245886 -431.475388 
L 760.23804 -428.080351 
L 760.236946 -424.685314 
L 760.244427 -421.290277 
L 760.260874 -417.89524 
L 760.285281 -414.500203 
L 760.315528 -411.105166 
L 760.348816 -407.710129 
L 760.382158 -404.315092 
L 760.412801 -400.920055 
L 760.438503 -397.525017 
L 760.457631 -394.12998 
L 760.469098 -390.734943 
L 760.472214 -387.339906 
L 760.466537 -383.944869 
L 760.451789 -380.549832 
L 760.427884 -377.154795 
L 760.395039 -373.759758 
L 760.353926 -370.364721 
L 760.305787 -366.969684 
L 760.252438 -363.574647 
L 760.196164 -360.179609 
L 760.139489 -356.784572 
L 760.084886 -353.389535 
L 760.034495 -349.994498 
L 759.989903 -346.599461 
L 759.952031 -343.204424 
L 759.92114 -339.809387 
L 759.896922 -336.41435 
z
" style="stroke: #3d3d3d; stroke-opacity: 0.5"/>
    </defs>
    <g clip-path="url(#p410fef76dc)">
     <use xlink:href="#m42c87eb700" x="0" y="722.183991" style="fill: #2eabb8; fill-opacity: 0.5; stroke: #3d3d3d; stroke-opacity: 0.5"/>
    </g>
   </g>
   <g id="PolyCollection_10">
    <defs>
     <path id="m8d60aa3fac" d="M 825.103254 -577.931146 
L 824.776687 -577.931146 
L 824.718256 -578.645199 
L 824.645149 -579.359252 
L 824.555962 -580.073306 
L 824.449908 -580.787359 
L 824.327025 -581.501413 
L 824.188355 -582.215466 
L 824.036045 -582.929519 
L 823.873355 -583.643573 
L 823.704558 -584.357626 
L 823.534737 -585.071679 
L 823.36949 -585.785733 
L 823.214574 -586.499786 
L 823.075534 -587.21384 
L 822.957337 -587.927893 
L 822.864062 -588.641946 
L 822.798653 -589.356 
L 822.762755 -590.070053 
L 822.756629 -590.784106 
L 822.779141 -591.49816 
L 822.827815 -592.212213 
L 822.89895 -592.926267 
L 822.987791 -593.64032 
L 823.088756 -594.354373 
L 823.195709 -595.068427 
L 823.302273 -595.78248 
L 823.402161 -596.496534 
L 823.489483 -597.210587 
L 823.559026 -597.92464 
L 823.606436 -598.638694 
L 823.628322 -599.352747 
L 823.622241 -600.0668 
L 823.586613 -600.780854 
L 823.520566 -601.494907 
L 823.423768 -602.208961 
L 823.296288 -602.923014 
L 823.138497 -603.637067 
L 822.951033 -604.351121 
L 822.734816 -605.065174 
L 822.491063 -605.779227 
L 822.221278 -606.493281 
L 821.927169 -607.207334 
L 821.610458 -607.921388 
L 821.272596 -608.635441 
L 820.914411 -609.349494 
L 820.535753 -610.063548 
L 820.135205 -610.777601 
L 819.709944 -611.491654 
L 819.255813 -612.205708 
L 818.767613 -612.919761 
L 818.239613 -613.633815 
L 817.666202 -614.347868 
L 817.042597 -615.061921 
L 816.3655 -615.775975 
L 815.633597 -616.490028 
L 814.847844 -617.204082 
L 814.011477 -617.918135 
L 813.129784 -618.632188 
L 812.209674 -619.346242 
L 811.259116 -620.060295 
L 810.286557 -620.774348 
L 809.300393 -621.488402 
L 808.308583 -622.202455 
L 807.318458 -622.916509 
L 806.336763 -623.630562 
L 805.369928 -624.344615 
L 804.42457 -625.058669 
L 803.508153 -625.772722 
L 802.62975 -626.486775 
L 801.800812 -627.200829 
L 801.035801 -627.914882 
L 800.352585 -628.628936 
L 799.772434 -629.342989 
L 799.319532 -630.057042 
L 799.019932 -630.771096 
L 798.899971 -631.485149 
L 798.98422 -632.199202 
L 799.293169 -632.913256 
L 799.84086 -633.627309 
L 800.63278 -634.341363 
L 801.664292 -635.055416 
L 802.91984 -635.769469 
L 804.373103 -636.483523 
L 805.988128 -637.197576 
L 807.721373 -637.911629 
L 809.524446 -638.625683 
L 811.347264 -639.339736 
L 813.141281 -640.05379 
L 814.862464 -640.767843 
L 816.47371 -641.481896 
L 817.946518 -642.19595 
L 819.261803 -642.910003 
L 820.409868 -643.624057 
L 821.389652 -644.33811 
L 822.207398 -645.052163 
L 822.874997 -645.766217 
L 823.408193 -646.48027 
L 823.824849 -647.194323 
L 824.143433 -647.908377 
L 824.381802 -648.62243 
L 825.498139 -648.62243 
L 825.498139 -648.62243 
L 825.736508 -647.908377 
L 826.055092 -647.194323 
L 826.471748 -646.48027 
L 827.004944 -645.766217 
L 827.672544 -645.052163 
L 828.49029 -644.33811 
L 829.470073 -643.624057 
L 830.618139 -642.910003 
L 831.933423 -642.19595 
L 833.406231 -641.481896 
L 835.017477 -640.767843 
L 836.73866 -640.05379 
L 838.532677 -639.339736 
L 840.355495 -638.625683 
L 842.158569 -637.911629 
L 843.891814 -637.197576 
L 845.506839 -636.483523 
L 846.960101 -635.769469 
L 848.215649 -635.055416 
L 849.247161 -634.341363 
L 850.039081 -633.627309 
L 850.586772 -632.913256 
L 850.895721 -632.199202 
L 850.979971 -631.485149 
L 850.860009 -630.771096 
L 850.56041 -630.057042 
L 850.107507 -629.342989 
L 849.527356 -628.628936 
L 848.84414 -627.914882 
L 848.079129 -627.200829 
L 847.250191 -626.486775 
L 846.371788 -625.772722 
L 845.455371 -625.058669 
L 844.510013 -624.344615 
L 843.543179 -623.630562 
L 842.561483 -622.916509 
L 841.571358 -622.202455 
L 840.579548 -621.488402 
L 839.593385 -620.774348 
L 838.620826 -620.060295 
L 837.670268 -619.346242 
L 836.750157 -618.632188 
L 835.868465 -617.918135 
L 835.032097 -617.204082 
L 834.246344 -616.490028 
L 833.514442 -615.775975 
L 832.837344 -615.061921 
L 832.213739 -614.347868 
L 831.640328 -613.633815 
L 831.112328 -612.919761 
L 830.624128 -612.205708 
L 830.169997 -611.491654 
L 829.744737 -610.777601 
L 829.344188 -610.063548 
L 828.96553 -609.349494 
L 828.607346 -608.635441 
L 828.269483 -607.921388 
L 827.952772 -607.207334 
L 827.658663 -606.493281 
L 827.388879 -605.779227 
L 827.145125 -605.065174 
L 826.928908 -604.351121 
L 826.741445 -603.637067 
L 826.583653 -602.923014 
L 826.456173 -602.208961 
L 826.359376 -601.494907 
L 826.293328 -600.780854 
L 826.2577 -600.0668 
L 826.25162 -599.352747 
L 826.273505 -598.638694 
L 826.320915 -597.92464 
L 826.390458 -597.210587 
L 826.477781 -596.496534 
L 826.577668 -595.78248 
L 826.684233 -595.068427 
L 826.791185 -594.354373 
L 826.89215 -593.64032 
L 826.980991 -592.926267 
L 827.052126 -592.212213 
L 827.1008 -591.49816 
L 827.123312 -590.784106 
L 827.117186 -590.070053 
L 827.081289 -589.356 
L 827.01588 -588.641946 
L 826.922605 -587.927893 
L 826.804408 -587.21384 
L 826.665367 -586.499786 
L 826.510452 -585.785733 
L 826.345204 -585.071679 
L 826.175383 -584.357626 
L 826.006586 -583.643573 
L 825.843896 -582.929519 
L 825.691586 -582.215466 
L 825.552916 -581.501413 
L 825.430034 -580.787359 
L 825.323979 -580.073306 
L 825.234792 -579.359252 
L 825.161685 -578.645199 
L 825.103254 -577.931146 
z
" style="stroke: #3d3d3d; stroke-opacity: 0.5"/>
    </defs>
    <g clip-path="url(#p410fef76dc)">
     <use xlink:href="#m8d60aa3fac" x="0" y="722.183991" style="fill: #e1812c; fill-opacity: 0.5; stroke: #3d3d3d; stroke-opacity: 0.5"/>
    </g>
   </g>
   <g id="line2d_7">
    <path d="M 108.839971 138.588458 
L 108.839971 86.330107 
" clip-path="url(#p410fef76dc)" style="fill: none; stroke: #3d3d3d; stroke-width: 1.5; stroke-linecap: round"/>
   </g>
   <g id="line2d_8">
    <path d="M 108.839971 113.42172 
L 108.839971 96.192987 
" clip-path="url(#p410fef76dc)" style="fill: none; stroke: #3d3d3d; stroke-width: 4.5; stroke-linecap: round"/>
   </g>
   <g id="line2d_9">
    <path d="M 108.839971 102.47437 
" clip-path="url(#p410fef76dc)" style="fill: none; stroke: #3d3d3d; stroke-width: 1.5; stroke-linecap: round"/>
    <defs>
     <path id="m2233f16de3" d="M 1.875 0 
L -1.875 -0 
" style="stroke: #ffffff; stroke-width: 0.9"/>
    </defs>
    <g clip-path="url(#p410fef76dc)">
     <use xlink:href="#m2233f16de3" x="108.839971" y="102.47437" style="fill: #ffffff; stroke: #ffffff; stroke-width: 0.9"/>
    </g>
   </g>
   <g id="line2d_10">
    <path d="M 173.939971 189.235727 
L 173.939971 91.266842 
" clip-path="url(#p410fef76dc)" style="fill: none; stroke: #3d3d3d; stroke-width: 1.5; stroke-linecap: round"/>
   </g>
   <g id="line2d_11">
    <path d="M 173.939971 144.458929 
L 173.939971 108.115968 
" clip-path="url(#p410fef76dc)" style="fill: none; stroke: #3d3d3d; stroke-width: 4.5; stroke-linecap: round"/>
   </g>
   <g id="line2d_12">
    <path d="M 173.939971 121.834149 
" clip-path="url(#p410fef76dc)" style="fill: none; stroke: #3d3d3d; stroke-width: 1.5; stroke-linecap: round"/>
    <g clip-path="url(#p410fef76dc)">
     <use xlink:href="#m2233f16de3" x="173.939971" y="121.834149" style="fill: #ffffff; stroke: #ffffff; stroke-width: 0.9"/>
    </g>
   </g>
   <g id="line2d_13">
    <path d="M 239.039971 190.576618 
L 239.039971 89.869398 
" clip-path="url(#p410fef76dc)" style="fill: none; stroke: #3d3d3d; stroke-width: 1.5; stroke-linecap: round"/>
   </g>
   <g id="line2d_14">
    <path d="M 239.039971 146.27492 
L 239.039971 98.694813 
" clip-path="url(#p410fef76dc)" style="fill: none; stroke: #3d3d3d; stroke-width: 4.5; stroke-linecap: round"/>
   </g>
   <g id="line2d_15">
    <path d="M 239.039971 110.675344 
" clip-path="url(#p410fef76dc)" style="fill: none; stroke: #3d3d3d; stroke-width: 1.5; stroke-linecap: round"/>
    <g clip-path="url(#p410fef76dc)">
     <use xlink:href="#m2233f16de3" x="239.039971" y="110.675344" style="fill: #ffffff; stroke: #ffffff; stroke-width: 0.9"/>
    </g>
   </g>
   <g id="line2d_16">
    <path d="M 304.139971 114.428007 
L 304.139971 83.216108 
" clip-path="url(#p410fef76dc)" style="fill: none; stroke: #3d3d3d; stroke-width: 1.5; stroke-linecap: round"/>
   </g>
   <g id="line2d_17">
    <path d="M 304.139971 99.494324 
L 304.139971 88.418786 
" clip-path="url(#p410fef76dc)" style="fill: none; stroke: #3d3d3d; stroke-width: 4.5; stroke-linecap: round"/>
   </g>
   <g id="line2d_18">
    <path d="M 304.139971 92.711716 
" clip-path="url(#p410fef76dc)" style="fill: none; stroke: #3d3d3d; stroke-width: 1.5; stroke-linecap: round"/>
    <g clip-path="url(#p410fef76dc)">
     <use xlink:href="#m2233f16de3" x="304.139971" y="92.711716" style="fill: #ffffff; stroke: #ffffff; stroke-width: 0.9"/>
    </g>
   </g>
   <g id="line2d_19">
    <path d="M 369.239971 379.738087 
L 369.239971 183.115366 
" clip-path="url(#p410fef76dc)" style="fill: none; stroke: #3d3d3d; stroke-width: 1.5; stroke-linecap: round"/>
   </g>
   <g id="line2d_20">
    <path d="M 369.239971 351.745038 
L 369.239971 276.091799 
" clip-path="url(#p410fef76dc)" style="fill: none; stroke: #3d3d3d; stroke-width: 4.5; stroke-linecap: round"/>
   </g>
   <g id="line2d_21">
    <path d="M 369.239971 328.054059 
" clip-path="url(#p410fef76dc)" style="fill: none; stroke: #3d3d3d; stroke-width: 1.5; stroke-linecap: round"/>
    <g clip-path="url(#p410fef76dc)">
     <use xlink:href="#m2233f16de3" x="369.239971" y="328.054059" style="fill: #ffffff; stroke: #ffffff; stroke-width: 0.9"/>
    </g>
   </g>
   <g id="line2d_22">
    <path d="M 408.299971 536.4 
L 460.379971 536.4 
" clip-path="url(#p410fef76dc)" style="fill: none; stroke: #3d3d3d; stroke-linecap: round"/>
   </g>
   <g id="line2d_23">
    <path d="M 499.439971 374.882719 
L 499.439971 226.20165 
" clip-path="url(#p410fef76dc)" style="fill: none; stroke: #3d3d3d; stroke-width: 1.5; stroke-linecap: round"/>
   </g>
   <g id="line2d_24">
    <path d="M 499.439971 352.404625 
L 499.439971 294.952143 
" clip-path="url(#p410fef76dc)" style="fill: none; stroke: #3d3d3d; stroke-width: 4.5; stroke-linecap: round"/>
   </g>
   <g id="line2d_25">
    <path d="M 499.439971 325.258265 
" clip-path="url(#p410fef76dc)" style="fill: none; stroke: #3d3d3d; stroke-width: 1.5; stroke-linecap: round"/>
    <g clip-path="url(#p410fef76dc)">
     <use xlink:href="#m2233f16de3" x="499.439971" y="325.258265" style="fill: #ffffff; stroke: #ffffff; stroke-width: 0.9"/>
    </g>
   </g>
   <g id="line2d_26">
    <path d="M 564.539971 126.530605 
L 564.539971 86.731567 
" clip-path="url(#p410fef76dc)" style="fill: none; stroke: #3d3d3d; stroke-width: 1.5; stroke-linecap: round"/>
   </g>
   <g id="line2d_27">
    <path d="M 564.539971 108.661635 
L 564.539971 93.862047 
" clip-path="url(#p410fef76dc)" style="fill: none; stroke: #3d3d3d; stroke-width: 4.5; stroke-linecap: round"/>
   </g>
   <g id="line2d_28">
    <path d="M 564.539971 100.034776 
" clip-path="url(#p410fef76dc)" style="fill: none; stroke: #3d3d3d; stroke-width: 1.5; stroke-linecap: round"/>
    <g clip-path="url(#p410fef76dc)">
     <use xlink:href="#m2233f16de3" x="564.539971" y="100.034776" style="fill: #ffffff; stroke: #ffffff; stroke-width: 0.9"/>
    </g>
   </g>
   <g id="line2d_29">
    <path d="M 603.599971 536.4 
L 655.679971 536.4 
" clip-path="url(#p410fef76dc)" style="fill: none; stroke: #3d3d3d; stroke-linecap: round"/>
   </g>
   <g id="line2d_30">
    <path d="M 694.739971 115.197975 
L 694.739971 83.202079 
" clip-path="url(#p410fef76dc)" style="fill: none; stroke: #3d3d3d; stroke-width: 1.5; stroke-linecap: round"/>
   </g>
   <g id="line2d_31">
    <path d="M 694.739971 99.425174 
L 694.739971 87.676286 
" clip-path="url(#p410fef76dc)" style="fill: none; stroke: #3d3d3d; stroke-width: 4.5; stroke-linecap: round"/>
   </g>
   <g id="line2d_32">
    <path d="M 694.739971 92.862382 
" clip-path="url(#p410fef76dc)" style="fill: none; stroke: #3d3d3d; stroke-width: 1.5; stroke-linecap: round"/>
    <g clip-path="url(#p410fef76dc)">
     <use xlink:href="#m2233f16de3" x="694.739971" y="92.862382" style="fill: #ffffff; stroke: #ffffff; stroke-width: 0.9"/>
    </g>
   </g>
   <g id="line2d_33">
    <path d="M 759.839971 135.241562 
L 759.839971 86.792531 
" clip-path="url(#p410fef76dc)" style="fill: none; stroke: #3d3d3d; stroke-width: 1.5; stroke-linecap: round"/>
   </g>
   <g id="line2d_34">
    <path d="M 759.839971 111.928161 
L 759.839971 95.170827 
" clip-path="url(#p410fef76dc)" style="fill: none; stroke: #3d3d3d; stroke-width: 4.5; stroke-linecap: round"/>
   </g>
   <g id="line2d_35">
    <path d="M 759.839971 101.216136 
" clip-path="url(#p410fef76dc)" style="fill: none; stroke: #3d3d3d; stroke-width: 1.5; stroke-linecap: round"/>
    <g clip-path="url(#p410fef76dc)">
     <use xlink:href="#m2233f16de3" x="759.839971" y="101.216136" style="fill: #ffffff; stroke: #ffffff; stroke-width: 0.9"/>
    </g>
   </g>
   <g id="line2d_36">
    <path d="M 824.939971 114.068125 
L 824.939971 83.082403 
" clip-path="url(#p410fef76dc)" style="fill: none; stroke: #3d3d3d; stroke-width: 1.5; stroke-linecap: round"/>
   </g>
   <g id="line2d_37">
    <path d="M 824.939971 99.98299 
L 824.939971 88.614608 
" clip-path="url(#p410fef76dc)" style="fill: none; stroke: #3d3d3d; stroke-width: 4.5; stroke-linecap: round"/>
   </g>
   <g id="line2d_38">
    <path d="M 824.939971 93.497243 
" clip-path="url(#p410fef76dc)" style="fill: none; stroke: #3d3d3d; stroke-width: 1.5; stroke-linecap: round"/>
    <g clip-path="url(#p410fef76dc)">
     <use xlink:href="#m2233f16de3" x="824.939971" y="93.497243" style="fill: #ffffff; stroke: #ffffff; stroke-width: 0.9"/>
    </g>
   </g>
   <g id="patch_3">
    <path d="M 76.289971 561.6 
L 857.489971 561.6 
" style="fill: none; stroke: #cccccc; stroke-width: 0.8; stroke-linejoin: miter; stroke-linecap: square"/>
   </g>
  </g>
 </g>
 <defs>
  <clipPath id="p410fef76dc">
   <rect x="76.289971" y="7.2" width="781.2" height="554.4"/>
  </clipPath>
 </defs>
</svg>
