<?xml version="1.0" encoding="utf-8" standalone="no"?>
<!DOCTYPE svg PUBLIC "-//W3C//DTD SVG 1.1//EN"
  "http://www.w3.org/Graphics/SVG/1.1/DTD/svg11.dtd">
<svg xmlns:xlink="http://www.w3.org/1999/xlink" width="857.7625pt" height="711.060318pt" viewBox="0 0 857.7625 711.060318" xmlns="http://www.w3.org/2000/svg" version="1.1">
 <metadata>
  <rdf:RDF xmlns:dc="http://purl.org/dc/elements/1.1/" xmlns:cc="http://creativecommons.org/ns#" xmlns:rdf="http://www.w3.org/1999/02/22-rdf-syntax-ns#">
   <cc:Work>
    <dc:type rdf:resource="http://purl.org/dc/dcmitype/StillImage"/>
    <dc:date>2024-03-13T22:15:48.970156</dc:date>
    <dc:format>image/svg+xml</dc:format>
    <dc:creator>
     <cc:Agent>
      <dc:title>Matplotlib v3.8.0, https://matplotlib.org/</dc:title>
     </cc:Agent>
    </dc:creator>
   </cc:Work>
  </rdf:RDF>
 </metadata>
 <defs>
  <style type="text/css">*{stroke-linejoin: round; stroke-linecap: butt}</style>
 </defs>
 <g id="figure_1">
  <g id="patch_1">
   <path d="M 0 711.060318 
L 857.7625 711.060318 
L 857.7625 0 
L 0 0 
L 0 711.060318 
z
" style="fill: none"/>
  </g>
  <g id="axes_1">
   <g id="patch_2">
    <path d="M 69.3625 561.6 
L 850.5625 561.6 
L 850.5625 7.2 
L 69.3625 7.2 
L 69.3625 561.6 
z
" style="fill: none"/>
   </g>
   <g id="matplotlib.axis_1">
    <g id="xtick_1">
     <g id="text_1">
      <!-- 1 PC -->
      <g style="fill: #262626" transform="translate(97.038378 611.240749) rotate(-45) scale(0.2 -0.2)">
       <defs>
        <path id="DejaVuSans-31" d="M 794 531 
L 1825 531 
L 1825 4091 
L 703 3866 
L 703 4441 
L 1819 4666 
L 2450 4666 
L 2450 531 
L 3481 531 
L 3481 0 
L 794 0 
L 794 531 
z
" transform="scale(0.015625)"/>
        <path id="DejaVuSans-20" transform="scale(0.015625)"/>
        <path id="DejaVuSans-50" d="M 1259 4147 
L 1259 2394 
L 2053 2394 
Q 2494 2394 2734 2622 
Q 2975 2850 2975 3272 
Q 2975 3691 2734 3919 
Q 2494 4147 2053 4147 
L 1259 4147 
z
M 628 4666 
L 2053 4666 
Q 2838 4666 3239 4311 
Q 3641 3956 3641 3272 
Q 3641 2581 3239 2228 
Q 2838 1875 2053 1875 
L 1259 1875 
L 1259 0 
L 628 0 
L 628 4666 
z
" transform="scale(0.015625)"/>
        <path id="DejaVuSans-43" d="M 4122 4306 
L 4122 3641 
Q 3803 3938 3442 4084 
Q 3081 4231 2675 4231 
Q 1875 4231 1450 3742 
Q 1025 3253 1025 2328 
Q 1025 1406 1450 917 
Q 1875 428 2675 428 
Q 3081 428 3442 575 
Q 3803 722 4122 1019 
L 4122 359 
Q 3791 134 3420 21 
Q 3050 -91 2638 -91 
Q 1578 -91 968 557 
Q 359 1206 359 2328 
Q 359 3453 968 4101 
Q 1578 4750 2638 4750 
Q 3056 4750 3426 4639 
Q 3797 4528 4122 4306 
z
" transform="scale(0.015625)"/>
       </defs>
       <use xlink:href="#DejaVuSans-31"/>
       <use xlink:href="#DejaVuSans-20" x="63.623047"/>
       <use xlink:href="#DejaVuSans-50" x="95.410156"/>
       <use xlink:href="#DejaVuSans-43" x="155.712891"/>
      </g>
     </g>
    </g>
    <g id="xtick_2">
     <g id="text_2">
      <!-- 1 PC (AF) -->
      <g style="fill: #262626" transform="translate(161.350503 644.578624) rotate(-45) scale(0.2 -0.2)">
       <defs>
        <path id="DejaVuSans-28" d="M 1984 4856 
Q 1566 4138 1362 3434 
Q 1159 2731 1159 2009 
Q 1159 1288 1364 580 
Q 1569 -128 1984 -844 
L 1484 -844 
Q 1016 -109 783 600 
Q 550 1309 550 2009 
Q 550 2706 781 3412 
Q 1013 4119 1484 4856 
L 1984 4856 
z
" transform="scale(0.015625)"/>
        <path id="DejaVuSans-41" d="M 2188 4044 
L 1331 1722 
L 3047 1722 
L 2188 4044 
z
M 1831 4666 
L 2547 4666 
L 4325 0 
L 3669 0 
L 3244 1197 
L 1141 1197 
L 716 0 
L 50 0 
L 1831 4666 
z
" transform="scale(0.015625)"/>
        <path id="DejaVuSans-46" d="M 628 4666 
L 3309 4666 
L 3309 4134 
L 1259 4134 
L 1259 2759 
L 3109 2759 
L 3109 2228 
L 1259 2228 
L 1259 0 
L 628 0 
L 628 4666 
z
" transform="scale(0.015625)"/>
        <path id="DejaVuSans-29" d="M 513 4856 
L 1013 4856 
Q 1481 4119 1714 3412 
Q 1947 2706 1947 2009 
Q 1947 1309 1714 600 
Q 1481 -109 1013 -844 
L 513 -844 
Q 928 -128 1133 580 
Q 1338 1288 1338 2009 
Q 1338 2731 1133 3434 
Q 928 4138 513 4856 
z
" transform="scale(0.015625)"/>
       </defs>
       <use xlink:href="#DejaVuSans-31"/>
       <use xlink:href="#DejaVuSans-20" x="63.623047"/>
       <use xlink:href="#DejaVuSans-50" x="95.410156"/>
       <use xlink:href="#DejaVuSans-43" x="155.712891"/>
       <use xlink:href="#DejaVuSans-20" x="225.537109"/>
       <use xlink:href="#DejaVuSans-28" x="257.324219"/>
       <use xlink:href="#DejaVuSans-41" x="296.337891"/>
       <use xlink:href="#DejaVuSans-46" x="364.746094"/>
       <use xlink:href="#DejaVuSans-29" x="422.265625"/>
      </g>
     </g>
    </g>
    <g id="xtick_3">
     <g id="text_3">
      <!-- 2 PC -->
      <g style="fill: #262626" transform="translate(292.338378 611.240749) rotate(-45) scale(0.2 -0.2)">
       <defs>
        <path id="DejaVuSans-32" d="M 1228 531 
L 3431 531 
L 3431 0 
L 469 0 
L 469 531 
Q 828 903 1448 1529 
Q 2069 2156 2228 2338 
Q 2531 2678 2651 2914 
Q 2772 3150 2772 3378 
Q 2772 3750 2511 3984 
Q 2250 4219 1831 4219 
Q 1534 4219 1204 4116 
Q 875 4013 500 3803 
L 500 4441 
Q 881 4594 1212 4672 
Q 1544 4750 1819 4750 
Q 2544 4750 2975 4387 
Q 3406 4025 3406 3419 
Q 3406 3131 3298 2873 
Q 3191 2616 2906 2266 
Q 2828 2175 2409 1742 
Q 1991 1309 1228 531 
z
" transform="scale(0.015625)"/>
       </defs>
       <use xlink:href="#DejaVuSans-32"/>
       <use xlink:href="#DejaVuSans-20" x="63.623047"/>
       <use xlink:href="#DejaVuSans-50" x="95.410156"/>
       <use xlink:href="#DejaVuSans-43" x="155.712891"/>
      </g>
     </g>
    </g>
    <g id="xtick_4">
     <g id="text_4">
      <!-- 2 PC (AF) -->
      <g style="fill: #262626" transform="translate(356.650503 644.578624) rotate(-45) scale(0.2 -0.2)">
       <use xlink:href="#DejaVuSans-32"/>
       <use xlink:href="#DejaVuSans-20" x="63.623047"/>
       <use xlink:href="#DejaVuSans-50" x="95.410156"/>
       <use xlink:href="#DejaVuSans-43" x="155.712891"/>
       <use xlink:href="#DejaVuSans-20" x="225.537109"/>
       <use xlink:href="#DejaVuSans-28" x="257.324219"/>
       <use xlink:href="#DejaVuSans-41" x="296.337891"/>
       <use xlink:href="#DejaVuSans-46" x="364.746094"/>
       <use xlink:href="#DejaVuSans-29" x="422.265625"/>
      </g>
     </g>
    </g>
    <g id="xtick_5">
     <g id="text_5">
      <!-- Gaussian -->
      <g style="fill: #262626" transform="translate(454.654056 644.22507) rotate(-45) scale(0.2 -0.2)">
       <defs>
        <path id="DejaVuSans-47" d="M 3809 666 
L 3809 1919 
L 2778 1919 
L 2778 2438 
L 4434 2438 
L 4434 434 
Q 4069 175 3628 42 
Q 3188 -91 2688 -91 
Q 1594 -91 976 548 
Q 359 1188 359 2328 
Q 359 3472 976 4111 
Q 1594 4750 2688 4750 
Q 3144 4750 3555 4637 
Q 3966 4525 4313 4306 
L 4313 3634 
Q 3963 3931 3569 4081 
Q 3175 4231 2741 4231 
Q 1884 4231 1454 3753 
Q 1025 3275 1025 2328 
Q 1025 1384 1454 906 
Q 1884 428 2741 428 
Q 3075 428 3337 486 
Q 3600 544 3809 666 
z
" transform="scale(0.015625)"/>
        <path id="DejaVuSans-61" d="M 2194 1759 
Q 1497 1759 1228 1600 
Q 959 1441 959 1056 
Q 959 750 1161 570 
Q 1363 391 1709 391 
Q 2188 391 2477 730 
Q 2766 1069 2766 1631 
L 2766 1759 
L 2194 1759 
z
M 3341 1997 
L 3341 0 
L 2766 0 
L 2766 531 
Q 2569 213 2275 61 
Q 1981 -91 1556 -91 
Q 1019 -91 701 211 
Q 384 513 384 1019 
Q 384 1609 779 1909 
Q 1175 2209 1959 2209 
L 2766 2209 
L 2766 2266 
Q 2766 2663 2505 2880 
Q 2244 3097 1772 3097 
Q 1472 3097 1187 3025 
Q 903 2953 641 2809 
L 641 3341 
Q 956 3463 1253 3523 
Q 1550 3584 1831 3584 
Q 2591 3584 2966 3190 
Q 3341 2797 3341 1997 
z
" transform="scale(0.015625)"/>
        <path id="DejaVuSans-75" d="M 544 1381 
L 544 3500 
L 1119 3500 
L 1119 1403 
Q 1119 906 1312 657 
Q 1506 409 1894 409 
Q 2359 409 2629 706 
Q 2900 1003 2900 1516 
L 2900 3500 
L 3475 3500 
L 3475 0 
L 2900 0 
L 2900 538 
Q 2691 219 2414 64 
Q 2138 -91 1772 -91 
Q 1169 -91 856 284 
Q 544 659 544 1381 
z
M 1991 3584 
L 1991 3584 
z
" transform="scale(0.015625)"/>
        <path id="DejaVuSans-73" d="M 2834 3397 
L 2834 2853 
Q 2591 2978 2328 3040 
Q 2066 3103 1784 3103 
Q 1356 3103 1142 2972 
Q 928 2841 928 2578 
Q 928 2378 1081 2264 
Q 1234 2150 1697 2047 
L 1894 2003 
Q 2506 1872 2764 1633 
Q 3022 1394 3022 966 
Q 3022 478 2636 193 
Q 2250 -91 1575 -91 
Q 1294 -91 989 -36 
Q 684 19 347 128 
L 347 722 
Q 666 556 975 473 
Q 1284 391 1588 391 
Q 1994 391 2212 530 
Q 2431 669 2431 922 
Q 2431 1156 2273 1281 
Q 2116 1406 1581 1522 
L 1381 1569 
Q 847 1681 609 1914 
Q 372 2147 372 2553 
Q 372 3047 722 3315 
Q 1072 3584 1716 3584 
Q 2034 3584 2315 3537 
Q 2597 3491 2834 3397 
z
" transform="scale(0.015625)"/>
        <path id="DejaVuSans-69" d="M 603 3500 
L 1178 3500 
L 1178 0 
L 603 0 
L 603 3500 
z
M 603 4863 
L 1178 4863 
L 1178 4134 
L 603 4134 
L 603 4863 
z
" transform="scale(0.015625)"/>
        <path id="DejaVuSans-6e" d="M 3513 2113 
L 3513 0 
L 2938 0 
L 2938 2094 
Q 2938 2591 2744 2837 
Q 2550 3084 2163 3084 
Q 1697 3084 1428 2787 
Q 1159 2491 1159 1978 
L 1159 0 
L 581 0 
L 581 3500 
L 1159 3500 
L 1159 2956 
Q 1366 3272 1645 3428 
Q 1925 3584 2291 3584 
Q 2894 3584 3203 3211 
Q 3513 2838 3513 2113 
z
" transform="scale(0.015625)"/>
       </defs>
       <use xlink:href="#DejaVuSans-47"/>
       <use xlink:href="#DejaVuSans-61" x="77.490234"/>
       <use xlink:href="#DejaVuSans-75" x="138.769531"/>
       <use xlink:href="#DejaVuSans-73" x="202.148438"/>
       <use xlink:href="#DejaVuSans-73" x="254.248047"/>
       <use xlink:href="#DejaVuSans-69" x="306.347656"/>
       <use xlink:href="#DejaVuSans-61" x="334.130859"/>
       <use xlink:href="#DejaVuSans-6e" x="395.410156"/>
      </g>
     </g>
    </g>
    <g id="xtick_6">
     <g id="text_6">
      <!-- Gaussian (AF) -->
      <g style="fill: #262626" transform="translate(518.966181 677.562945) rotate(-45) scale(0.2 -0.2)">
       <use xlink:href="#DejaVuSans-47"/>
       <use xlink:href="#DejaVuSans-61" x="77.490234"/>
       <use xlink:href="#DejaVuSans-75" x="138.769531"/>
       <use xlink:href="#DejaVuSans-73" x="202.148438"/>
       <use xlink:href="#DejaVuSans-73" x="254.248047"/>
       <use xlink:href="#DejaVuSans-69" x="306.347656"/>
       <use xlink:href="#DejaVuSans-61" x="334.130859"/>
       <use xlink:href="#DejaVuSans-6e" x="395.410156"/>
       <use xlink:href="#DejaVuSans-20" x="458.789062"/>
       <use xlink:href="#DejaVuSans-28" x="490.576172"/>
       <use xlink:href="#DejaVuSans-41" x="529.589844"/>
       <use xlink:href="#DejaVuSans-46" x="597.998047"/>
       <use xlink:href="#DejaVuSans-29" x="655.517578"/>
      </g>
     </g>
    </g>
    <g id="xtick_7">
     <g id="text_7">
      <!-- MSA -->
      <g style="fill: #262626" transform="translate(683.713986 610.465141) rotate(-45) scale(0.2 -0.2)">
       <defs>
        <path id="DejaVuSans-4d" d="M 628 4666 
L 1569 4666 
L 2759 1491 
L 3956 4666 
L 4897 4666 
L 4897 0 
L 4281 0 
L 4281 4097 
L 3078 897 
L 2444 897 
L 1241 4097 
L 1241 0 
L 628 0 
L 628 4666 
z
" transform="scale(0.015625)"/>
        <path id="DejaVuSans-53" d="M 3425 4513 
L 3425 3897 
Q 3066 4069 2747 4153 
Q 2428 4238 2131 4238 
Q 1616 4238 1336 4038 
Q 1056 3838 1056 3469 
Q 1056 3159 1242 3001 
Q 1428 2844 1947 2747 
L 2328 2669 
Q 3034 2534 3370 2195 
Q 3706 1856 3706 1288 
Q 3706 609 3251 259 
Q 2797 -91 1919 -91 
Q 1588 -91 1214 -16 
Q 841 59 441 206 
L 441 856 
Q 825 641 1194 531 
Q 1563 422 1919 422 
Q 2459 422 2753 634 
Q 3047 847 3047 1241 
Q 3047 1584 2836 1778 
Q 2625 1972 2144 2069 
L 1759 2144 
Q 1053 2284 737 2584 
Q 422 2884 422 3419 
Q 422 4038 858 4394 
Q 1294 4750 2059 4750 
Q 2388 4750 2728 4690 
Q 3069 4631 3425 4513 
z
" transform="scale(0.015625)"/>
       </defs>
       <use xlink:href="#DejaVuSans-4d"/>
       <use xlink:href="#DejaVuSans-53" x="86.279297"/>
       <use xlink:href="#DejaVuSans-41" x="151.630859"/>
      </g>
     </g>
    </g>
    <g id="xtick_8">
     <g id="text_8">
      <!-- Single -->
      <g style="fill: #262626" transform="translate(769.005085 622.824042) rotate(-45) scale(0.2 -0.2)">
       <defs>
        <path id="DejaVuSans-67" d="M 2906 1791 
Q 2906 2416 2648 2759 
Q 2391 3103 1925 3103 
Q 1463 3103 1205 2759 
Q 947 2416 947 1791 
Q 947 1169 1205 825 
Q 1463 481 1925 481 
Q 2391 481 2648 825 
Q 2906 1169 2906 1791 
z
M 3481 434 
Q 3481 -459 3084 -895 
Q 2688 -1331 1869 -1331 
Q 1566 -1331 1297 -1286 
Q 1028 -1241 775 -1147 
L 775 -588 
Q 1028 -725 1275 -790 
Q 1522 -856 1778 -856 
Q 2344 -856 2625 -561 
Q 2906 -266 2906 331 
L 2906 616 
Q 2728 306 2450 153 
Q 2172 0 1784 0 
Q 1141 0 747 490 
Q 353 981 353 1791 
Q 353 2603 747 3093 
Q 1141 3584 1784 3584 
Q 2172 3584 2450 3431 
Q 2728 3278 2906 2969 
L 2906 3500 
L 3481 3500 
L 3481 434 
z
" transform="scale(0.015625)"/>
        <path id="DejaVuSans-6c" d="M 603 4863 
L 1178 4863 
L 1178 0 
L 603 0 
L 603 4863 
z
" transform="scale(0.015625)"/>
        <path id="DejaVuSans-65" d="M 3597 1894 
L 3597 1613 
L 953 1613 
Q 991 1019 1311 708 
Q 1631 397 2203 397 
Q 2534 397 2845 478 
Q 3156 559 3463 722 
L 3463 178 
Q 3153 47 2828 -22 
Q 2503 -91 2169 -91 
Q 1331 -91 842 396 
Q 353 884 353 1716 
Q 353 2575 817 3079 
Q 1281 3584 2069 3584 
Q 2775 3584 3186 3129 
Q 3597 2675 3597 1894 
z
M 3022 2063 
Q 3016 2534 2758 2815 
Q 2500 3097 2075 3097 
Q 1594 3097 1305 2825 
Q 1016 2553 972 2059 
L 3022 2063 
z
" transform="scale(0.015625)"/>
       </defs>
       <use xlink:href="#DejaVuSans-53"/>
       <use xlink:href="#DejaVuSans-69" x="63.476562"/>
       <use xlink:href="#DejaVuSans-6e" x="91.259766"/>
       <use xlink:href="#DejaVuSans-67" x="154.638672"/>
       <use xlink:href="#DejaVuSans-6c" x="218.115234"/>
       <use xlink:href="#DejaVuSans-65" x="245.898438"/>
      </g>
     </g>
    </g>
    <g id="text_9">
     <!-- Method -->
     <g style="fill: #262626" transform="translate(422.45625 699.700943) scale(0.2 -0.2)">
      <defs>
       <path id="DejaVuSans-74" d="M 1172 4494 
L 1172 3500 
L 2356 3500 
L 2356 3053 
L 1172 3053 
L 1172 1153 
Q 1172 725 1289 603 
Q 1406 481 1766 481 
L 2356 481 
L 2356 0 
L 1766 0 
Q 1100 0 847 248 
Q 594 497 594 1153 
L 594 3053 
L 172 3053 
L 172 3500 
L 594 3500 
L 594 4494 
L 1172 4494 
z
" transform="scale(0.015625)"/>
       <path id="DejaVuSans-68" d="M 3513 2113 
L 3513 0 
L 2938 0 
L 2938 2094 
Q 2938 2591 2744 2837 
Q 2550 3084 2163 3084 
Q 1697 3084 1428 2787 
Q 1159 2491 1159 1978 
L 1159 0 
L 581 0 
L 581 4863 
L 1159 4863 
L 1159 2956 
Q 1366 3272 1645 3428 
Q 1925 3584 2291 3584 
Q 2894 3584 3203 3211 
Q 3513 2838 3513 2113 
z
" transform="scale(0.015625)"/>
       <path id="DejaVuSans-6f" d="M 1959 3097 
Q 1497 3097 1228 2736 
Q 959 2375 959 1747 
Q 959 1119 1226 758 
Q 1494 397 1959 397 
Q 2419 397 2687 759 
Q 2956 1122 2956 1747 
Q 2956 2369 2687 2733 
Q 2419 3097 1959 3097 
z
M 1959 3584 
Q 2709 3584 3137 3096 
Q 3566 2609 3566 1747 
Q 3566 888 3137 398 
Q 2709 -91 1959 -91 
Q 1206 -91 779 398 
Q 353 888 353 1747 
Q 353 2609 779 3096 
Q 1206 3584 1959 3584 
z
" transform="scale(0.015625)"/>
       <path id="DejaVuSans-64" d="M 2906 2969 
L 2906 4863 
L 3481 4863 
L 3481 0 
L 2906 0 
L 2906 525 
Q 2725 213 2448 61 
Q 2172 -91 1784 -91 
Q 1150 -91 751 415 
Q 353 922 353 1747 
Q 353 2572 751 3078 
Q 1150 3584 1784 3584 
Q 2172 3584 2448 3432 
Q 2725 3281 2906 2969 
z
M 947 1747 
Q 947 1113 1208 752 
Q 1469 391 1925 391 
Q 2381 391 2643 752 
Q 2906 1113 2906 1747 
Q 2906 2381 2643 2742 
Q 2381 3103 1925 3103 
Q 1469 3103 1208 2742 
Q 947 2381 947 1747 
z
" transform="scale(0.015625)"/>
      </defs>
      <use xlink:href="#DejaVuSans-4d"/>
      <use xlink:href="#DejaVuSans-65" x="86.279297"/>
      <use xlink:href="#DejaVuSans-74" x="147.802734"/>
      <use xlink:href="#DejaVuSans-68" x="187.011719"/>
      <use xlink:href="#DejaVuSans-6f" x="250.390625"/>
      <use xlink:href="#DejaVuSans-64" x="311.572266"/>
     </g>
    </g>
   </g>
   <g id="matplotlib.axis_2">
    <g id="ytick_1">
     <g id="line2d_1">
      <path d="M 69.3625 513.825428 
L 850.5625 513.825428 
" clip-path="url(#p71c10ce918)" style="fill: none; stroke: #cccccc; stroke-width: 0.8; stroke-linecap: round"/>
     </g>
     <g id="text_10">
      <!-- 0.0 -->
      <g style="fill: #262626" transform="translate(30.55625 521.423865) scale(0.2 -0.2)">
       <defs>
        <path id="DejaVuSans-30" d="M 2034 4250 
Q 1547 4250 1301 3770 
Q 1056 3291 1056 2328 
Q 1056 1369 1301 889 
Q 1547 409 2034 409 
Q 2525 409 2770 889 
Q 3016 1369 3016 2328 
Q 3016 3291 2770 3770 
Q 2525 4250 2034 4250 
z
M 2034 4750 
Q 2819 4750 3233 4129 
Q 3647 3509 3647 2328 
Q 3647 1150 3233 529 
Q 2819 -91 2034 -91 
Q 1250 -91 836 529 
Q 422 1150 422 2328 
Q 422 3509 836 4129 
Q 1250 4750 2034 4750 
z
" transform="scale(0.015625)"/>
        <path id="DejaVuSans-2e" d="M 684 794 
L 1344 794 
L 1344 0 
L 684 0 
L 684 794 
z
" transform="scale(0.015625)"/>
       </defs>
       <use xlink:href="#DejaVuSans-30"/>
       <use xlink:href="#DejaVuSans-2e" x="63.623047"/>
       <use xlink:href="#DejaVuSans-30" x="95.410156"/>
      </g>
     </g>
    </g>
    <g id="ytick_2">
     <g id="line2d_2">
      <path d="M 69.3625 427.641271 
L 850.5625 427.641271 
" clip-path="url(#p71c10ce918)" style="fill: none; stroke: #cccccc; stroke-width: 0.8; stroke-linecap: round"/>
     </g>
     <g id="text_11">
      <!-- 0.2 -->
      <g style="fill: #262626" transform="translate(30.55625 435.239709) scale(0.2 -0.2)">
       <use xlink:href="#DejaVuSans-30"/>
       <use xlink:href="#DejaVuSans-2e" x="63.623047"/>
       <use xlink:href="#DejaVuSans-32" x="95.410156"/>
      </g>
     </g>
    </g>
    <g id="ytick_3">
     <g id="line2d_3">
      <path d="M 69.3625 341.457114 
L 850.5625 341.457114 
" clip-path="url(#p71c10ce918)" style="fill: none; stroke: #cccccc; stroke-width: 0.8; stroke-linecap: round"/>
     </g>
     <g id="text_12">
      <!-- 0.4 -->
      <g style="fill: #262626" transform="translate(30.55625 349.055552) scale(0.2 -0.2)">
       <defs>
        <path id="DejaVuSans-34" d="M 2419 4116 
L 825 1625 
L 2419 1625 
L 2419 4116 
z
M 2253 4666 
L 3047 4666 
L 3047 1625 
L 3713 1625 
L 3713 1100 
L 3047 1100 
L 3047 0 
L 2419 0 
L 2419 1100 
L 313 1100 
L 313 1709 
L 2253 4666 
z
" transform="scale(0.015625)"/>
       </defs>
       <use xlink:href="#DejaVuSans-30"/>
       <use xlink:href="#DejaVuSans-2e" x="63.623047"/>
       <use xlink:href="#DejaVuSans-34" x="95.410156"/>
      </g>
     </g>
    </g>
    <g id="ytick_4">
     <g id="line2d_4">
      <path d="M 69.3625 255.272957 
L 850.5625 255.272957 
" clip-path="url(#p71c10ce918)" style="fill: none; stroke: #cccccc; stroke-width: 0.8; stroke-linecap: round"/>
     </g>
     <g id="text_13">
      <!-- 0.6 -->
      <g style="fill: #262626" transform="translate(30.55625 262.871395) scale(0.2 -0.2)">
       <defs>
        <path id="DejaVuSans-36" d="M 2113 2584 
Q 1688 2584 1439 2293 
Q 1191 2003 1191 1497 
Q 1191 994 1439 701 
Q 1688 409 2113 409 
Q 2538 409 2786 701 
Q 3034 994 3034 1497 
Q 3034 2003 2786 2293 
Q 2538 2584 2113 2584 
z
M 3366 4563 
L 3366 3988 
Q 3128 4100 2886 4159 
Q 2644 4219 2406 4219 
Q 1781 4219 1451 3797 
Q 1122 3375 1075 2522 
Q 1259 2794 1537 2939 
Q 1816 3084 2150 3084 
Q 2853 3084 3261 2657 
Q 3669 2231 3669 1497 
Q 3669 778 3244 343 
Q 2819 -91 2113 -91 
Q 1303 -91 875 529 
Q 447 1150 447 2328 
Q 447 3434 972 4092 
Q 1497 4750 2381 4750 
Q 2619 4750 2861 4703 
Q 3103 4656 3366 4563 
z
" transform="scale(0.015625)"/>
       </defs>
       <use xlink:href="#DejaVuSans-30"/>
       <use xlink:href="#DejaVuSans-2e" x="63.623047"/>
       <use xlink:href="#DejaVuSans-36" x="95.410156"/>
      </g>
     </g>
    </g>
    <g id="ytick_5">
     <g id="line2d_5">
      <path d="M 69.3625 169.088801 
L 850.5625 169.088801 
" clip-path="url(#p71c10ce918)" style="fill: none; stroke: #cccccc; stroke-width: 0.8; stroke-linecap: round"/>
     </g>
     <g id="text_14">
      <!-- 0.8 -->
      <g style="fill: #262626" transform="translate(30.55625 176.687238) scale(0.2 -0.2)">
       <defs>
        <path id="DejaVuSans-38" d="M 2034 2216 
Q 1584 2216 1326 1975 
Q 1069 1734 1069 1313 
Q 1069 891 1326 650 
Q 1584 409 2034 409 
Q 2484 409 2743 651 
Q 3003 894 3003 1313 
Q 3003 1734 2745 1975 
Q 2488 2216 2034 2216 
z
M 1403 2484 
Q 997 2584 770 2862 
Q 544 3141 544 3541 
Q 544 4100 942 4425 
Q 1341 4750 2034 4750 
Q 2731 4750 3128 4425 
Q 3525 4100 3525 3541 
Q 3525 3141 3298 2862 
Q 3072 2584 2669 2484 
Q 3125 2378 3379 2068 
Q 3634 1759 3634 1313 
Q 3634 634 3220 271 
Q 2806 -91 2034 -91 
Q 1263 -91 848 271 
Q 434 634 434 1313 
Q 434 1759 690 2068 
Q 947 2378 1403 2484 
z
M 1172 3481 
Q 1172 3119 1398 2916 
Q 1625 2713 2034 2713 
Q 2441 2713 2670 2916 
Q 2900 3119 2900 3481 
Q 2900 3844 2670 4047 
Q 2441 4250 2034 4250 
Q 1625 4250 1398 4047 
Q 1172 3844 1172 3481 
z
" transform="scale(0.015625)"/>
       </defs>
       <use xlink:href="#DejaVuSans-30"/>
       <use xlink:href="#DejaVuSans-2e" x="63.623047"/>
       <use xlink:href="#DejaVuSans-38" x="95.410156"/>
      </g>
     </g>
    </g>
    <g id="ytick_6">
     <g id="line2d_6">
      <path d="M 69.3625 82.904644 
L 850.5625 82.904644 
" clip-path="url(#p71c10ce918)" style="fill: none; stroke: #cccccc; stroke-width: 0.8; stroke-linecap: round"/>
     </g>
     <g id="text_15">
      <!-- 1.0 -->
      <g style="fill: #262626" transform="translate(30.55625 90.503081) scale(0.2 -0.2)">
       <use xlink:href="#DejaVuSans-31"/>
       <use xlink:href="#DejaVuSans-2e" x="63.623047"/>
       <use xlink:href="#DejaVuSans-30" x="95.410156"/>
      </g>
     </g>
    </g>
    <g id="text_16">
     <!-- tm_score -->
     <g style="fill: #262626" transform="translate(21.840625 329.926563) rotate(-90) scale(0.2 -0.2)">
      <defs>
       <path id="DejaVuSans-6d" d="M 3328 2828 
Q 3544 3216 3844 3400 
Q 4144 3584 4550 3584 
Q 5097 3584 5394 3201 
Q 5691 2819 5691 2113 
L 5691 0 
L 5113 0 
L 5113 2094 
Q 5113 2597 4934 2840 
Q 4756 3084 4391 3084 
Q 3944 3084 3684 2787 
Q 3425 2491 3425 1978 
L 3425 0 
L 2847 0 
L 2847 2094 
Q 2847 2600 2669 2842 
Q 2491 3084 2119 3084 
Q 1678 3084 1418 2786 
Q 1159 2488 1159 1978 
L 1159 0 
L 581 0 
L 581 3500 
L 1159 3500 
L 1159 2956 
Q 1356 3278 1631 3431 
Q 1906 3584 2284 3584 
Q 2666 3584 2933 3390 
Q 3200 3197 3328 2828 
z
" transform="scale(0.015625)"/>
       <path id="DejaVuSans-5f" d="M 3263 -1063 
L 3263 -1509 
L -63 -1509 
L -63 -1063 
L 3263 -1063 
z
" transform="scale(0.015625)"/>
       <path id="DejaVuSans-63" d="M 3122 3366 
L 3122 2828 
Q 2878 2963 2633 3030 
Q 2388 3097 2138 3097 
Q 1578 3097 1268 2742 
Q 959 2388 959 1747 
Q 959 1106 1268 751 
Q 1578 397 2138 397 
Q 2388 397 2633 464 
Q 2878 531 3122 666 
L 3122 134 
Q 2881 22 2623 -34 
Q 2366 -91 2075 -91 
Q 1284 -91 818 406 
Q 353 903 353 1747 
Q 353 2603 823 3093 
Q 1294 3584 2113 3584 
Q 2378 3584 2631 3529 
Q 2884 3475 3122 3366 
z
" transform="scale(0.015625)"/>
       <path id="DejaVuSans-72" d="M 2631 2963 
Q 2534 3019 2420 3045 
Q 2306 3072 2169 3072 
Q 1681 3072 1420 2755 
Q 1159 2438 1159 1844 
L 1159 0 
L 581 0 
L 581 3500 
L 1159 3500 
L 1159 2956 
Q 1341 3275 1631 3429 
Q 1922 3584 2338 3584 
Q 2397 3584 2469 3576 
Q 2541 3569 2628 3553 
L 2631 2963 
z
" transform="scale(0.015625)"/>
      </defs>
      <use xlink:href="#DejaVuSans-74"/>
      <use xlink:href="#DejaVuSans-6d" x="39.208984"/>
      <use xlink:href="#DejaVuSans-5f" x="136.621094"/>
      <use xlink:href="#DejaVuSans-73" x="186.621094"/>
      <use xlink:href="#DejaVuSans-63" x="238.720703"/>
      <use xlink:href="#DejaVuSans-6f" x="293.701172"/>
      <use xlink:href="#DejaVuSans-72" x="354.882812"/>
      <use xlink:href="#DejaVuSans-65" x="393.746094"/>
     </g>
    </g>
   </g>
   <g id="PolyCollection_1">
    <defs>
     <path id="mf9b3999dc7" d="M 118.60774 -246.019534 
L 117.76726 -246.019534 
L 117.578682 -247.650498 
L 117.323146 -249.281462 
L 116.984041 -250.912426 
L 116.54295 -252.54339 
L 115.980035 -254.174354 
L 115.27456 -255.805318 
L 114.405539 -257.436282 
L 113.352557 -259.067247 
L 112.096788 -260.698211 
L 110.622288 -262.329175 
L 108.917617 -263.960139 
L 106.977814 -265.591103 
L 104.806673 -267.222067 
L 102.419163 -268.853031 
L 99.843702 -270.483995 
L 97.123901 -272.114959 
L 94.3193 -273.745923 
L 91.504679 -275.376887 
L 88.767601 -277.007852 
L 86.204106 -278.638816 
L 83.912754 -280.26978 
L 81.987514 -281.900744 
L 80.510301 -283.531708 
L 79.544084 -285.162672 
L 79.1275 -286.793636 
L 79.271736 -288.4246 
L 79.960085 -290.055564 
L 81.150203 -291.686528 
L 82.778645 -293.317493 
L 84.766965 -294.948457 
L 87.02846 -296.579421 
L 89.474679 -298.210385 
L 92.020957 -299.841349 
L 94.590536 -301.472313 
L 97.117122 -303.103277 
L 99.546018 -304.734241 
L 101.834138 -306.365205 
L 103.949289 -307.996169 
L 105.869074 -309.627133 
L 107.579681 -311.258098 
L 109.074715 -312.889062 
L 110.354125 -314.520026 
L 111.423238 -316.15099 
L 112.291872 -317.781954 
L 112.973514 -319.412918 
L 113.48458 -321.043882 
L 113.843745 -322.674846 
L 114.071365 -324.30581 
L 114.188967 -325.936774 
L 114.218752 -327.567739 
L 114.183069 -329.198703 
L 114.103799 -330.829667 
L 114.00164 -332.460631 
L 113.895312 -334.091595 
L 113.800782 -335.722559 
L 113.730617 -337.353523 
L 113.69359 -338.984487 
L 113.694654 -340.615451 
L 113.735292 -342.246415 
L 113.814216 -343.877379 
L 113.928289 -345.508344 
L 114.073477 -347.139308 
L 114.245676 -348.770272 
L 114.44124 -350.401236 
L 114.657144 -352.0322 
L 114.890802 -353.663164 
L 115.139626 -355.294128 
L 115.40049 -356.925092 
L 115.669263 -358.556056 
L 115.940555 -360.18702 
L 116.207747 -361.817985 
L 116.463333 -363.448949 
L 116.699496 -365.079913 
L 116.908835 -366.710877 
L 117.085104 -368.341841 
L 117.223871 -369.972805 
L 117.323 -371.603769 
L 117.382912 -373.234733 
L 117.406604 -374.865697 
L 117.399434 -376.496661 
L 117.368692 -378.127626 
L 117.322992 -379.75859 
L 117.271543 -381.389554 
L 117.223348 -383.020518 
L 117.186425 -384.651482 
L 117.16712 -386.282446 
L 117.169601 -387.91341 
L 117.195599 -389.544374 
L 117.244429 -391.175338 
L 117.313271 -392.806302 
L 117.397689 -394.437266 
L 117.492275 -396.068231 
L 117.591338 -397.699195 
L 117.689536 -399.330159 
L 117.782363 -400.961123 
L 117.866458 -402.592087 
L 117.939719 -404.223051 
L 118.001242 -405.854015 
L 118.051136 -407.484979 
L 118.323864 -407.484979 
L 118.323864 -407.484979 
L 118.373758 -405.854015 
L 118.435281 -404.223051 
L 118.508542 -402.592087 
L 118.592637 -400.961123 
L 118.685464 -399.330159 
L 118.783662 -397.699195 
L 118.882725 -396.068231 
L 118.977311 -394.437266 
L 119.061729 -392.806302 
L 119.130571 -391.175338 
L 119.179401 -389.544374 
L 119.205399 -387.91341 
L 119.20788 -386.282446 
L 119.188575 -384.651482 
L 119.151652 -383.020518 
L 119.103457 -381.389554 
L 119.052008 -379.75859 
L 119.006308 -378.127626 
L 118.975566 -376.496661 
L 118.968396 -374.865697 
L 118.992088 -373.234733 
L 119.052 -371.603769 
L 119.151129 -369.972805 
L 119.289896 -368.341841 
L 119.466165 -366.710877 
L 119.675504 -365.079913 
L 119.911667 -363.448949 
L 120.167253 -361.817985 
L 120.434445 -360.18702 
L 120.705737 -358.556056 
L 120.97451 -356.925092 
L 121.235374 -355.294128 
L 121.484198 -353.663164 
L 121.717856 -352.0322 
L 121.93376 -350.401236 
L 122.129324 -348.770272 
L 122.301523 -347.139308 
L 122.446711 -345.508344 
L 122.560784 -343.877379 
L 122.639708 -342.246415 
L 122.680346 -340.615451 
L 122.68141 -338.984487 
L 122.644383 -337.353523 
L 122.574218 -335.722559 
L 122.479688 -334.091595 
L 122.37336 -332.460631 
L 122.271201 -330.829667 
L 122.191931 -329.198703 
L 122.156248 -327.567739 
L 122.186033 -325.936774 
L 122.303635 -324.30581 
L 122.531255 -322.674846 
L 122.89042 -321.043882 
L 123.401486 -319.412918 
L 124.083128 -317.781954 
L 124.951762 -316.15099 
L 126.020875 -314.520026 
L 127.300285 -312.889062 
L 128.795319 -311.258098 
L 130.505926 -309.627133 
L 132.425711 -307.996169 
L 134.540862 -306.365205 
L 136.828982 -304.734241 
L 139.257878 -303.103277 
L 141.784464 -301.472313 
L 144.354043 -299.841349 
L 146.900321 -298.210385 
L 149.34654 -296.579421 
L 151.608035 -294.948457 
L 153.596355 -293.317493 
L 155.224797 -291.686528 
L 156.414915 -290.055564 
L 157.103264 -288.4246 
L 157.2475 -286.793636 
L 156.830916 -285.162672 
L 155.864699 -283.531708 
L 154.387486 -281.900744 
L 152.462246 -280.26978 
L 150.170894 -278.638816 
L 147.607399 -277.007852 
L 144.870321 -275.376887 
L 142.0557 -273.745923 
L 139.251099 -272.114959 
L 136.531298 -270.483995 
L 133.955837 -268.853031 
L 131.568327 -267.222067 
L 129.397186 -265.591103 
L 127.457383 -263.960139 
L 125.752712 -262.329175 
L 124.278212 -260.698211 
L 123.022443 -259.067247 
L 121.969461 -257.436282 
L 121.10044 -255.805318 
L 120.394965 -254.174354 
L 119.83205 -252.54339 
L 119.390959 -250.912426 
L 119.051854 -249.281462 
L 118.796318 -247.650498 
L 118.60774 -246.019534 
z
" style="stroke: #3d3d3d; stroke-opacity: 0.5"/>
    </defs>
    <g clip-path="url(#p71c10ce918)">
     <use xlink:href="#mf9b3999dc7" x="0" y="711.060318" style="fill: #3274a1; fill-opacity: 0.5; stroke: #3d3d3d; stroke-opacity: 0.5"/>
    </g>
   </g>
   <g id="PolyCollection_2">
    <defs>
     <path id="m8b8c261756" d="M 216.915155 -174.660318 
L 214.759845 -174.660318 
L 214.43408 -179.590435 
L 214.03446 -184.520552 
L 213.551908 -189.450669 
L 212.978319 -194.380786 
L 212.307134 -199.310903 
L 211.533915 -204.24102 
L 210.656845 -209.171138 
L 209.677088 -214.101255 
L 208.598979 -219.031372 
L 207.42997 -223.961489 
L 206.180334 -228.891606 
L 204.862616 -233.821723 
L 203.490882 -238.75184 
L 202.079806 -243.681958 
L 200.643719 -248.612075 
L 199.195684 -253.542192 
L 197.746736 -258.472309 
L 196.305362 -263.402426 
L 194.877294 -268.332543 
L 193.465662 -273.26266 
L 192.071476 -278.192778 
L 190.694405 -283.122895 
L 189.333765 -288.053012 
L 187.989592 -292.983129 
L 186.66369 -297.913246 
L 185.360526 -302.843363 
L 184.087874 -307.77348 
L 182.857133 -312.703598 
L 181.683302 -317.633715 
L 180.584592 -322.563832 
L 179.581732 -327.493949 
L 178.69703 -332.424066 
L 177.953266 -337.354183 
L 177.372497 -342.2843 
L 176.97487 -347.214418 
L 176.7775 -352.144535 
L 176.793475 -357.074652 
L 177.031034 -362.004769 
L 177.492939 -366.934886 
L 178.176083 -371.865003 
L 179.071321 -376.795121 
L 180.163557 -381.725238 
L 181.432072 -386.655355 
L 182.851092 -391.585472 
L 184.390584 -396.515589 
L 186.017247 -401.445706 
L 187.69565 -406.375823 
L 189.389487 -411.305941 
L 191.062856 -416.236058 
L 192.681529 -421.166175 
L 194.214119 -426.096292 
L 195.633109 -431.026409 
L 196.915681 -435.956526 
L 198.044313 -440.886643 
L 199.007139 -445.816761 
L 199.798053 -450.746878 
L 200.416591 -455.676995 
L 200.867605 -460.607112 
L 201.160768 -465.537229 
L 201.309951 -470.467346 
L 201.332524 -475.397463 
L 201.248602 -480.327581 
L 201.08029 -485.257698 
L 200.850942 -490.187815 
L 200.584469 -495.117932 
L 200.304684 -500.048049 
L 200.034717 -504.978166 
L 199.796462 -509.908283 
L 199.610084 -514.838401 
L 199.493556 -519.768518 
L 199.462231 -524.698635 
L 199.528458 -529.628752 
L 199.70124 -534.558869 
L 199.985973 -539.488986 
L 200.384263 -544.419103 
L 200.893865 -549.349221 
L 201.508773 -554.279338 
L 202.219444 -559.209455 
L 203.013207 -564.139572 
L 203.874801 -569.069689 
L 204.78706 -573.999806 
L 205.731675 -578.929923 
L 206.690005 -583.860041 
L 207.643885 -588.790158 
L 208.576361 -593.720275 
L 209.472335 -598.650392 
L 210.319054 -603.580509 
L 211.106436 -608.510626 
L 211.827234 -613.440744 
L 212.477012 -618.370861 
L 213.053993 -623.300978 
L 213.55877 -628.231095 
L 213.993945 -633.161212 
L 214.363706 -638.091329 
L 214.673399 -643.021446 
L 214.929102 -647.951564 
L 215.137253 -652.881681 
L 215.304317 -657.811798 
L 215.436531 -662.741915 
L 216.238469 -662.741915 
L 216.238469 -662.741915 
L 216.370683 -657.811798 
L 216.537747 -652.881681 
L 216.745898 -647.951564 
L 217.001601 -643.021446 
L 217.311294 -638.091329 
L 217.681055 -633.161212 
L 218.11623 -628.231095 
L 218.621007 -623.300978 
L 219.197988 -618.370861 
L 219.847766 -613.440744 
L 220.568564 -608.510626 
L 221.355946 -603.580509 
L 222.202665 -598.650392 
L 223.098639 -593.720275 
L 224.031115 -588.790158 
L 224.984995 -583.860041 
L 225.943325 -578.929923 
L 226.88794 -573.999806 
L 227.800199 -569.069689 
L 228.661793 -564.139572 
L 229.455556 -559.209455 
L 230.166227 -554.279338 
L 230.781135 -549.349221 
L 231.290737 -544.419103 
L 231.689027 -539.488986 
L 231.97376 -534.558869 
L 232.146542 -529.628752 
L 232.212769 -524.698635 
L 232.181444 -519.768518 
L 232.064916 -514.838401 
L 231.878538 -509.908283 
L 231.640283 -504.978166 
L 231.370316 -500.048049 
L 231.090531 -495.117932 
L 230.824058 -490.187815 
L 230.59471 -485.257698 
L 230.426398 -480.327581 
L 230.342476 -475.397463 
L 230.365049 -470.467346 
L 230.514232 -465.537229 
L 230.807395 -460.607112 
L 231.258409 -455.676995 
L 231.876947 -450.746878 
L 232.667861 -445.816761 
L 233.630687 -440.886643 
L 234.759319 -435.956526 
L 236.041891 -431.026409 
L 237.460881 -426.096292 
L 238.993471 -421.166175 
L 240.612144 -416.236058 
L 242.285513 -411.305941 
L 243.97935 -406.375823 
L 245.657753 -401.445706 
L 247.284416 -396.515589 
L 248.823908 -391.585472 
L 250.242928 -386.655355 
L 251.511443 -381.725238 
L 252.603679 -376.795121 
L 253.498917 -371.865003 
L 254.182061 -366.934886 
L 254.643966 -362.004769 
L 254.881525 -357.074652 
L 254.8975 -352.144535 
L 254.70013 -347.214418 
L 254.302503 -342.2843 
L 253.721734 -337.354183 
L 252.97797 -332.424066 
L 252.093268 -327.493949 
L 251.090408 -322.563832 
L 249.991698 -317.633715 
L 248.817867 -312.703598 
L 247.587126 -307.77348 
L 246.314474 -302.843363 
L 245.01131 -297.913246 
L 243.685408 -292.983129 
L 242.341235 -288.053012 
L 240.980595 -283.122895 
L 239.603524 -278.192778 
L 238.209338 -273.26266 
L 236.797706 -268.332543 
L 235.369638 -263.402426 
L 233.928264 -258.472309 
L 232.479316 -253.542192 
L 231.031281 -248.612075 
L 229.595194 -243.681958 
L 228.184118 -238.75184 
L 226.812384 -233.821723 
L 225.494666 -228.891606 
L 224.24503 -223.961489 
L 223.076021 -219.031372 
L 221.997912 -214.101255 
L 221.018155 -209.171138 
L 220.141085 -204.24102 
L 219.367866 -199.310903 
L 218.696681 -194.380786 
L 218.123092 -189.450669 
L 217.64054 -184.520552 
L 217.24092 -179.590435 
L 216.915155 -174.660318 
z
" style="stroke: #3d3d3d; stroke-opacity: 0.5"/>
    </defs>
    <g clip-path="url(#p71c10ce918)">
     <use xlink:href="#m8b8c261756" x="0" y="711.060318" style="fill: #e1812c; fill-opacity: 0.5; stroke: #3d3d3d; stroke-opacity: 0.5"/>
    </g>
   </g>
   <g id="PolyCollection_3">
    <defs>
     <path id="m287e61f7d2" d="M 313.679179 -293.39535 
L 313.295821 -293.39535 
L 313.225964 -295.592373 
L 313.13827 -297.789397 
L 313.030863 -299.98642 
L 312.902422 -302.183443 
L 312.752299 -304.380466 
L 312.580558 -306.57749 
L 312.387897 -308.774513 
L 312.175454 -310.971536 
L 311.944528 -313.16856 
L 311.69626 -315.365583 
L 311.431345 -317.562606 
L 311.149841 -319.75963 
L 310.851138 -321.956653 
L 310.534106 -324.153676 
L 310.197394 -326.3507 
L 309.839806 -328.547723 
L 309.460665 -330.744746 
L 309.060024 -332.94177 
L 308.638656 -335.138793 
L 308.197757 -337.335816 
L 307.738408 -339.53284 
L 307.26088 -341.729863 
L 306.763948 -343.926886 
L 306.244383 -346.123909 
L 305.696788 -348.320933 
L 305.113844 -350.517956 
L 304.486979 -352.714979 
L 303.807349 -354.912003 
L 303.066947 -357.109026 
L 302.259626 -359.306049 
L 301.381847 -361.503073 
L 300.433011 -363.700096 
L 299.415348 -365.897119 
L 298.333396 -368.094143 
L 297.193224 -370.291166 
L 296.001531 -372.488189 
L 294.76478 -374.685213 
L 293.48851 -376.882236 
L 292.176879 -379.079259 
L 290.832536 -381.276282 
L 289.456859 -383.473306 
L 288.050615 -385.670329 
L 286.615083 -387.867352 
L 285.15364 -390.064376 
L 283.673702 -392.261399 
L 282.188821 -394.458422 
L 280.720593 -396.655446 
L 279.299929 -398.852469 
L 277.967265 -401.049492 
L 276.771345 -403.246516 
L 275.766427 -405.443539 
L 275.008045 -407.640562 
L 274.547749 -409.837586 
L 274.4275 -412.034609 
L 274.674543 -414.231632 
L 275.29757 -416.428655 
L 276.284814 -418.625679 
L 277.604426 -420.822702 
L 279.207124 -423.019725 
L 281.030744 -425.216749 
L 283.006019 -427.413772 
L 285.062772 -429.610795 
L 287.135669 -431.807819 
L 289.168818 -434.004842 
L 291.118738 -436.201865 
L 292.955494 -438.398889 
L 294.662118 -440.595912 
L 296.232663 -442.792935 
L 297.669399 -444.989959 
L 298.979724 -447.186982 
L 300.173315 -449.384005 
L 301.259917 -451.581029 
L 302.248001 -453.778052 
L 303.144322 -455.975075 
L 303.954244 -458.172098 
L 304.682583 -460.369122 
L 305.334635 -462.566145 
L 305.91709 -464.763168 
L 306.438577 -466.960192 
L 306.909706 -469.157215 
L 307.342567 -471.354238 
L 307.749808 -473.551262 
L 308.143444 -475.748285 
L 308.533643 -477.945308 
L 308.927704 -480.142332 
L 309.329394 -482.339355 
L 309.73877 -484.536378 
L 310.152478 -486.733402 
L 310.564463 -488.930425 
L 310.966973 -491.127448 
L 311.351664 -493.324471 
L 311.710665 -495.521495 
L 312.037443 -497.718518 
L 312.327394 -499.915541 
L 312.578109 -502.112565 
L 312.789348 -504.309588 
L 312.962774 -506.506611 
L 313.101523 -508.703635 
L 313.209706 -510.900658 
L 313.765294 -510.900658 
L 313.765294 -510.900658 
L 313.873477 -508.703635 
L 314.012226 -506.506611 
L 314.185652 -504.309588 
L 314.396891 -502.112565 
L 314.647606 -499.915541 
L 314.937557 -497.718518 
L 315.264335 -495.521495 
L 315.623336 -493.324471 
L 316.008027 -491.127448 
L 316.410537 -488.930425 
L 316.822522 -486.733402 
L 317.23623 -484.536378 
L 317.645606 -482.339355 
L 318.047296 -480.142332 
L 318.441357 -477.945308 
L 318.831556 -475.748285 
L 319.225192 -473.551262 
L 319.632433 -471.354238 
L 320.065294 -469.157215 
L 320.536423 -466.960192 
L 321.05791 -464.763168 
L 321.640365 -462.566145 
L 322.292417 -460.369122 
L 323.020756 -458.172098 
L 323.830678 -455.975075 
L 324.726999 -453.778052 
L 325.715083 -451.581029 
L 326.801685 -449.384005 
L 327.995276 -447.186982 
L 329.305601 -444.989959 
L 330.742337 -442.792935 
L 332.312882 -440.595912 
L 334.019506 -438.398889 
L 335.856262 -436.201865 
L 337.806182 -434.004842 
L 339.839331 -431.807819 
L 341.912228 -429.610795 
L 343.968981 -427.413772 
L 345.944256 -425.216749 
L 347.767876 -423.019725 
L 349.370574 -420.822702 
L 350.690186 -418.625679 
L 351.67743 -416.428655 
L 352.300457 -414.231632 
L 352.5475 -412.034609 
L 352.427251 -409.837586 
L 351.966955 -407.640562 
L 351.208573 -405.443539 
L 350.203655 -403.246516 
L 349.007735 -401.049492 
L 347.675071 -398.852469 
L 346.254407 -396.655446 
L 344.786179 -394.458422 
L 343.301298 -392.261399 
L 341.82136 -390.064376 
L 340.359917 -387.867352 
L 338.924385 -385.670329 
L 337.518141 -383.473306 
L 336.142464 -381.276282 
L 334.798121 -379.079259 
L 333.48649 -376.882236 
L 332.21022 -374.685213 
L 330.973469 -372.488189 
L 329.781776 -370.291166 
L 328.641604 -368.094143 
L 327.559652 -365.897119 
L 326.541989 -363.700096 
L 325.593153 -361.503073 
L 324.715374 -359.306049 
L 323.908053 -357.109026 
L 323.167651 -354.912003 
L 322.488021 -352.714979 
L 321.861156 -350.517956 
L 321.278212 -348.320933 
L 320.730617 -346.123909 
L 320.211052 -343.926886 
L 319.71412 -341.729863 
L 319.236592 -339.53284 
L 318.777243 -337.335816 
L 318.336344 -335.138793 
L 317.914976 -332.94177 
L 317.514335 -330.744746 
L 317.135194 -328.547723 
L 316.777606 -326.3507 
L 316.440894 -324.153676 
L 316.123862 -321.956653 
L 315.825159 -319.75963 
L 315.543655 -317.562606 
L 315.27874 -315.365583 
L 315.030472 -313.16856 
L 314.799546 -310.971536 
L 314.587103 -308.774513 
L 314.394442 -306.57749 
L 314.222701 -304.380466 
L 314.072578 -302.183443 
L 313.944137 -299.98642 
L 313.83673 -297.789397 
L 313.749036 -295.592373 
L 313.679179 -293.39535 
z
" style="stroke: #3d3d3d; stroke-opacity: 0.5"/>
    </defs>
    <g clip-path="url(#p71c10ce918)">
     <use xlink:href="#m287e61f7d2" x="0" y="711.060318" style="fill: #3a923a; fill-opacity: 0.5; stroke: #3d3d3d; stroke-opacity: 0.5"/>
    </g>
   </g>
   <g id="PolyCollection_4">
    <defs>
     <path id="md64c2b822a" d="M 411.27993 -247.709197 
L 410.99507 -247.709197 
L 410.945729 -252.062238 
L 410.885403 -256.41528 
L 410.813936 -260.768322 
L 410.732028 -265.121363 
L 410.6414 -269.474405 
L 410.544861 -273.827447 
L 410.446264 -278.180488 
L 410.350298 -282.53353 
L 410.262151 -286.886571 
L 410.187037 -291.239613 
L 410.129674 -295.592655 
L 410.093742 -299.945696 
L 410.081429 -304.298738 
L 410.093101 -308.65178 
L 410.127168 -313.004821 
L 410.180139 -317.357863 
L 410.246863 -321.710904 
L 410.320916 -326.063946 
L 410.395075 -330.416988 
L 410.461823 -334.770029 
L 410.513829 -339.123071 
L 410.544389 -343.476112 
L 410.547796 -347.829154 
L 410.519648 -352.182196 
L 410.457106 -356.535237 
L 410.35909 -360.888279 
L 410.226402 -365.241321 
L 410.061743 -369.594362 
L 409.86959 -373.947404 
L 409.65589 -378.300445 
L 409.42755 -382.653487 
L 409.191763 -387.006529 
L 408.955209 -391.35957 
L 408.723252 -395.712612 
L 408.499273 -400.065654 
L 408.284261 -404.418695 
L 408.076775 -408.771737 
L 407.87334 -413.124778 
L 407.669223 -417.47782 
L 407.4595 -421.830862 
L 407.240233 -426.183903 
L 407.009534 -430.536945 
L 406.768319 -434.889987 
L 406.520579 -439.243028 
L 406.273088 -443.59607 
L 406.034548 -447.949111 
L 405.814279 -452.302153 
L 405.620633 -456.655195 
L 405.459334 -461.008236 
L 405.331991 -465.361278 
L 405.234971 -469.71432 
L 405.158781 -474.067361 
L 405.088052 -478.420403 
L 405.002142 -482.773444 
L 404.876318 -487.126486 
L 404.683422 -491.479528 
L 404.395875 -495.832569 
L 403.987854 -500.185611 
L 403.437421 -504.538653 
L 402.728392 -508.891694 
L 401.851731 -513.244736 
L 400.806283 -517.597777 
L 399.598722 -521.950819 
L 398.242697 -526.303861 
L 396.757238 -530.656902 
L 395.164622 -535.009944 
L 393.488007 -539.362986 
L 391.749195 -543.716027 
L 389.966932 -548.069069 
L 388.156095 -552.42211 
L 386.328049 -556.775152 
L 384.492252 -561.128194 
L 382.659027 -565.481235 
L 380.843125 -569.834277 
L 379.067545 -574.187319 
L 377.366849 -578.54036 
L 375.789189 -582.893402 
L 374.396313 -587.246443 
L 373.261072 -591.599485 
L 372.462309 -595.952527 
L 372.0775 -600.305568 
L 372.173974 -604.65861 
L 372.799938 -609.011652 
L 373.976702 -613.364693 
L 375.693422 -617.717735 
L 377.905373 -622.070776 
L 380.536178 -626.423818 
L 383.483807 -630.77686 
L 386.629512 -635.129901 
L 389.848425 -639.482943 
L 393.020312 -643.835985 
L 396.039061 -648.189026 
L 398.819776 -652.542068 
L 401.302839 -656.895109 
L 403.454838 -661.248151 
L 405.266705 -665.601193 
L 406.749786 -669.954234 
L 407.930708 -674.307276 
L 408.845901 -678.660318 
L 413.429099 -678.660318 
L 413.429099 -678.660318 
L 414.344292 -674.307276 
L 415.525214 -669.954234 
L 417.008295 -665.601193 
L 418.820162 -661.248151 
L 420.972161 -656.895109 
L 423.455224 -652.542068 
L 426.235939 -648.189026 
L 429.254688 -643.835985 
L 432.426575 -639.482943 
L 435.645488 -635.129901 
L 438.791193 -630.77686 
L 441.738822 -626.423818 
L 444.369627 -622.070776 
L 446.581578 -617.717735 
L 448.298298 -613.364693 
L 449.475062 -609.011652 
L 450.101026 -604.65861 
L 450.1975 -600.305568 
L 449.812691 -595.952527 
L 449.013928 -591.599485 
L 447.878687 -587.246443 
L 446.485811 -582.893402 
L 444.908151 -578.54036 
L 443.207455 -574.187319 
L 441.431875 -569.834277 
L 439.615973 -565.481235 
L 437.782748 -561.128194 
L 435.946951 -556.775152 
L 434.118905 -552.42211 
L 432.308068 -548.069069 
L 430.525805 -543.716027 
L 428.786993 -539.362986 
L 427.110378 -535.009944 
L 425.517762 -530.656902 
L 424.032303 -526.303861 
L 422.676278 -521.950819 
L 421.468717 -517.597777 
L 420.423269 -513.244736 
L 419.546608 -508.891694 
L 418.837579 -504.538653 
L 418.287146 -500.185611 
L 417.879125 -495.832569 
L 417.591578 -491.479528 
L 417.398682 -487.126486 
L 417.272858 -482.773444 
L 417.186948 -478.420403 
L 417.116219 -474.067361 
L 417.040029 -469.71432 
L 416.943009 -465.361278 
L 416.815666 -461.008236 
L 416.654367 -456.655195 
L 416.460721 -452.302153 
L 416.240452 -447.949111 
L 416.001912 -443.59607 
L 415.754421 -439.243028 
L 415.506681 -434.889987 
L 415.265466 -430.536945 
L 415.034767 -426.183903 
L 414.8155 -421.830862 
L 414.605777 -417.47782 
L 414.40166 -413.124778 
L 414.198225 -408.771737 
L 413.990739 -404.418695 
L 413.775727 -400.065654 
L 413.551748 -395.712612 
L 413.319791 -391.35957 
L 413.083237 -387.006529 
L 412.84745 -382.653487 
L 412.61911 -378.300445 
L 412.40541 -373.947404 
L 412.213257 -369.594362 
L 412.048598 -365.241321 
L 411.91591 -360.888279 
L 411.817894 -356.535237 
L 411.755352 -352.182196 
L 411.727204 -347.829154 
L 411.730611 -343.476112 
L 411.761171 -339.123071 
L 411.813177 -334.770029 
L 411.879925 -330.416988 
L 411.954084 -326.063946 
L 412.028137 -321.710904 
L 412.094861 -317.357863 
L 412.147832 -313.004821 
L 412.181899 -308.65178 
L 412.193571 -304.298738 
L 412.181258 -299.945696 
L 412.145326 -295.592655 
L 412.087963 -291.239613 
L 412.012849 -286.886571 
L 411.924702 -282.53353 
L 411.828736 -278.180488 
L 411.730139 -273.827447 
L 411.6336 -269.474405 
L 411.542972 -265.121363 
L 411.461064 -260.768322 
L 411.389597 -256.41528 
L 411.329271 -252.062238 
L 411.27993 -247.709197 
z
" style="stroke: #3d3d3d; stroke-opacity: 0.5"/>
    </defs>
    <g clip-path="url(#p71c10ce918)">
     <use xlink:href="#md64c2b822a" x="0" y="711.060318" style="fill: #c03d3e; fill-opacity: 0.5; stroke: #3d3d3d; stroke-opacity: 0.5"/>
    </g>
   </g>
   <g id="PolyCollection_5">
    <defs>
     <path id="m9e59c57182" d="M 704.231919 -258.812109 
L 703.943081 -258.812109 
L 703.893892 -263.039016 
L 703.833904 -267.265923 
L 703.762948 -271.49283 
L 703.681665 -275.719737 
L 703.59166 -279.946643 
L 703.495573 -284.17355 
L 703.397042 -288.400457 
L 703.300517 -292.627364 
L 703.210945 -296.854271 
L 703.133334 -301.081177 
L 703.072246 -305.308084 
L 703.031276 -309.534991 
L 703.012582 -313.761898 
L 703.01653 -317.988805 
L 703.041504 -322.215711 
L 703.083897 -326.442618 
L 703.138289 -330.669525 
L 703.197777 -334.896432 
L 703.254419 -339.123339 
L 703.299748 -343.350245 
L 703.325303 -347.577152 
L 703.323155 -351.804059 
L 703.286403 -356.030966 
L 703.209625 -360.257873 
L 703.089289 -364.484779 
L 702.924095 -368.711686 
L 702.715238 -372.938593 
L 702.466546 -377.1655 
L 702.184455 -381.392407 
L 701.87777 -385.619314 
L 701.557199 -389.84622 
L 701.234636 -394.073127 
L 700.92224 -398.300034 
L 700.631366 -402.526941 
L 700.371447 -406.753848 
L 700.148959 -410.980754 
L 699.966571 -415.207661 
L 699.822609 -419.434568 
L 699.710917 -423.661475 
L 699.621147 -427.888382 
L 699.539492 -432.115288 
L 699.449786 -436.342195 
L 699.334902 -440.569102 
L 699.178286 -444.796009 
L 698.965497 -449.022916 
L 698.685587 -453.249822 
L 698.332172 -457.476729 
L 697.904079 -461.703636 
L 697.405485 -465.930543 
L 696.845529 -470.15745 
L 696.237396 -474.384356 
L 695.596967 -478.611263 
L 694.941149 -482.83817 
L 694.286037 -487.065077 
L 693.645086 -491.291984 
L 693.027476 -495.51889 
L 692.436826 -499.745797 
L 691.87038 -503.972704 
L 691.318741 -508.199611 
L 690.766156 -512.426518 
L 690.191326 -516.653424 
L 689.568648 -520.880331 
L 688.869806 -525.107238 
L 688.065618 -529.334145 
L 687.128072 -533.561052 
L 686.032532 -537.787958 
L 684.760086 -542.014865 
L 683.300016 -546.241772 
L 681.652306 -550.468679 
L 679.830046 -554.695586 
L 677.861459 -558.922492 
L 675.791213 -563.149399 
L 673.680633 -567.376306 
L 671.606433 -571.603213 
L 669.657729 -575.83012 
L 667.931276 -580.057026 
L 666.525125 -584.283933 
L 665.531199 -588.51084 
L 665.0275 -592.737747 
L 665.070816 -596.964654 
L 665.690853 -601.19156 
L 666.886556 -605.418467 
L 668.625178 -609.645374 
L 670.844285 -613.872281 
L 673.456517 -618.099188 
L 676.356565 -622.326094 
L 679.429536 -626.553001 
L 682.55974 -630.779908 
L 685.638941 -635.006815 
L 688.5732 -639.233722 
L 691.287756 -643.460629 
L 693.729625 -647.687535 
L 695.867954 -651.914442 
L 697.692419 -656.141349 
L 699.210156 -660.368256 
L 700.441783 -664.595163 
L 701.41713 -668.822069 
L 702.171128 -673.048976 
L 702.740266 -677.275883 
L 705.434734 -677.275883 
L 705.434734 -677.275883 
L 706.003872 -673.048976 
L 706.75787 -668.822069 
L 707.733217 -664.595163 
L 708.964844 -660.368256 
L 710.482581 -656.141349 
L 712.307046 -651.914442 
L 714.445375 -647.687535 
L 716.887244 -643.460629 
L 719.6018 -639.233722 
L 722.536059 -635.006815 
L 725.61526 -630.779908 
L 728.745464 -626.553001 
L 731.818435 -622.326094 
L 734.718483 -618.099188 
L 737.330715 -613.872281 
L 739.549822 -609.645374 
L 741.288444 -605.418467 
L 742.484147 -601.19156 
L 743.104184 -596.964654 
L 743.1475 -592.737747 
L 742.643801 -588.51084 
L 741.649875 -584.283933 
L 740.243724 -580.057026 
L 738.517271 -575.83012 
L 736.568567 -571.603213 
L 734.494367 -567.376306 
L 732.383787 -563.149399 
L 730.313541 -558.922492 
L 728.344954 -554.695586 
L 726.522694 -550.468679 
L 724.874984 -546.241772 
L 723.414914 -542.014865 
L 722.142468 -537.787958 
L 721.046928 -533.561052 
L 720.109382 -529.334145 
L 719.305194 -525.107238 
L 718.606352 -520.880331 
L 717.983674 -516.653424 
L 717.408844 -512.426518 
L 716.856259 -508.199611 
L 716.30462 -503.972704 
L 715.738174 -499.745797 
L 715.147524 -495.51889 
L 714.529914 -491.291984 
L 713.888963 -487.065077 
L 713.233851 -482.83817 
L 712.578033 -478.611263 
L 711.937604 -474.384356 
L 711.329471 -470.15745 
L 710.769515 -465.930543 
L 710.270921 -461.703636 
L 709.842828 -457.476729 
L 709.489413 -453.249822 
L 709.209503 -449.022916 
L 708.996714 -444.796009 
L 708.840098 -440.569102 
L 708.725214 -436.342195 
L 708.635508 -432.115288 
L 708.553853 -427.888382 
L 708.464083 -423.661475 
L 708.352391 -419.434568 
L 708.208429 -415.207661 
L 708.026041 -410.980754 
L 707.803553 -406.753848 
L 707.543634 -402.526941 
L 707.25276 -398.300034 
L 706.940364 -394.073127 
L 706.617801 -389.84622 
L 706.29723 -385.619314 
L 705.990545 -381.392407 
L 705.708454 -377.1655 
L 705.459762 -372.938593 
L 705.250905 -368.711686 
L 705.085711 -364.484779 
L 704.965375 -360.257873 
L 704.888597 -356.030966 
L 704.851845 -351.804059 
L 704.849697 -347.577152 
L 704.875252 -343.350245 
L 704.920581 -339.123339 
L 704.977223 -334.896432 
L 705.036711 -330.669525 
L 705.091103 -326.442618 
L 705.133496 -322.215711 
L 705.15847 -317.988805 
L 705.162418 -313.761898 
L 705.143724 -309.534991 
L 705.102754 -305.308084 
L 705.041666 -301.081177 
L 704.964055 -296.854271 
L 704.874483 -292.627364 
L 704.777958 -288.400457 
L 704.679427 -284.17355 
L 704.58334 -279.946643 
L 704.493335 -275.719737 
L 704.412052 -271.49283 
L 704.341096 -267.265923 
L 704.281108 -263.039016 
L 704.231919 -258.812109 
z
" style="stroke: #3d3d3d; stroke-opacity: 0.5"/>
    </defs>
    <g clip-path="url(#p71c10ce918)">
     <use xlink:href="#m9e59c57182" x="0" y="711.060318" style="fill: #9372b2; fill-opacity: 0.5; stroke: #3d3d3d; stroke-opacity: 0.5"/>
    </g>
   </g>
   <g id="PolyCollection_6">
    <defs>
     <path id="m567cded4eb" d="M 802.529895 -209.355731 
L 800.945105 -209.355731 
L 800.669131 -213.291984 
L 800.316232 -217.228237 
L 799.871761 -221.16449 
L 799.320398 -225.100742 
L 798.646763 -229.036995 
L 797.836185 -232.973248 
L 796.8756 -236.909501 
L 795.754524 -240.845753 
L 794.466048 -244.782006 
L 793.007767 -248.718259 
L 791.382575 -252.654511 
L 789.599227 -256.590764 
L 787.672624 -260.527017 
L 785.62375 -264.46327 
L 783.479259 -268.399522 
L 781.270722 -272.335775 
L 779.033582 -276.272028 
L 776.805885 -280.208281 
L 774.626901 -284.144533 
L 772.535724 -288.080786 
L 770.569953 -292.017039 
L 768.764546 -295.953292 
L 767.150892 -299.889544 
L 765.75613 -303.825797 
L 764.602711 -307.76205 
L 763.708153 -311.698303 
L 763.084952 -315.634555 
L 762.740577 -319.570808 
L 762.6775 -323.507061 
L 762.893229 -327.443314 
L 763.380328 -331.379566 
L 764.126444 -335.315819 
L 765.114378 -339.252072 
L 766.322256 -343.188324 
L 767.723855 -347.124577 
L 769.289129 -351.06083 
L 770.984973 -354.997083 
L 772.776201 -358.933335 
L 774.626725 -362.869588 
L 776.50086 -366.805841 
L 778.364651 -370.742094 
L 780.187149 -374.678346 
L 781.941509 -378.614599 
L 783.605832 -382.550852 
L 785.163689 -386.487105 
L 786.604285 -390.423357 
L 787.922276 -394.35961 
L 789.11727 -398.295863 
L 790.193064 -402.232116 
L 791.156713 -406.168368 
L 792.017499 -410.104621 
L 792.785909 -414.040874 
L 793.472679 -417.977127 
L 794.087969 -421.913379 
L 794.640723 -425.849632 
L 795.138205 -429.785885 
L 795.585755 -433.722137 
L 795.986706 -437.65839 
L 796.342479 -441.594643 
L 796.652802 -445.530896 
L 796.916037 -449.467148 
L 797.129577 -453.403401 
L 797.290301 -457.339654 
L 797.395053 -461.275907 
L 797.44114 -465.212159 
L 797.42682 -469.148412 
L 797.351762 -473.084665 
L 797.217468 -477.020918 
L 797.027613 -480.95717 
L 796.788279 -484.893423 
L 796.508061 -488.829676 
L 796.197998 -492.765929 
L 795.871325 -496.702181 
L 795.543033 -500.638434 
L 795.22924 -504.574687 
L 794.946411 -508.51094 
L 794.71047 -512.447192 
L 794.53587 -516.383445 
L 794.434701 -520.319698 
L 794.415906 -524.25595 
L 794.484691 -528.192203 
L 794.642183 -532.128456 
L 794.885367 -536.064709 
L 795.207316 -540.000961 
L 795.597699 -543.937214 
L 796.043507 -547.873467 
L 796.529941 -551.80972 
L 797.041368 -555.745972 
L 797.562275 -559.682225 
L 798.078134 -563.618478 
L 798.576109 -567.554731 
L 799.045578 -571.490983 
L 799.478436 -575.427236 
L 799.869184 -579.363489 
L 800.214832 -583.299742 
L 800.514652 -587.235994 
L 800.769814 -591.172247 
L 800.982973 -595.1085 
L 801.157832 -599.044753 
L 802.317168 -599.044753 
L 802.317168 -599.044753 
L 802.492027 -595.1085 
L 802.705186 -591.172247 
L 802.960348 -587.235994 
L 803.260168 -583.299742 
L 803.605816 -579.363489 
L 803.996564 -575.427236 
L 804.429422 -571.490983 
L 804.898891 -567.554731 
L 805.396866 -563.618478 
L 805.912725 -559.682225 
L 806.433632 -555.745972 
L 806.945059 -551.80972 
L 807.431493 -547.873467 
L 807.877301 -543.937214 
L 808.267684 -540.000961 
L 808.589633 -536.064709 
L 808.832817 -532.128456 
L 808.990309 -528.192203 
L 809.059094 -524.25595 
L 809.040299 -520.319698 
L 808.93913 -516.383445 
L 808.76453 -512.447192 
L 808.528589 -508.51094 
L 808.24576 -504.574687 
L 807.931967 -500.638434 
L 807.603675 -496.702181 
L 807.277002 -492.765929 
L 806.966939 -488.829676 
L 806.686721 -484.893423 
L 806.447387 -480.95717 
L 806.257532 -477.020918 
L 806.123238 -473.084665 
L 806.04818 -469.148412 
L 806.03386 -465.212159 
L 806.079947 -461.275907 
L 806.184699 -457.339654 
L 806.345423 -453.403401 
L 806.558963 -449.467148 
L 806.822198 -445.530896 
L 807.132521 -441.594643 
L 807.488294 -437.65839 
L 807.889245 -433.722137 
L 808.336795 -429.785885 
L 808.834277 -425.849632 
L 809.387031 -421.913379 
L 810.002321 -417.977127 
L 810.689091 -414.040874 
L 811.457501 -410.104621 
L 812.318287 -406.168368 
L 813.281936 -402.232116 
L 814.35773 -398.295863 
L 815.552724 -394.35961 
L 816.870715 -390.423357 
L 818.311311 -386.487105 
L 819.869168 -382.550852 
L 821.533491 -378.614599 
L 823.287851 -374.678346 
L 825.110349 -370.742094 
L 826.97414 -366.805841 
L 828.848275 -362.869588 
L 830.698799 -358.933335 
L 832.490027 -354.997083 
L 834.185871 -351.06083 
L 835.751145 -347.124577 
L 837.152744 -343.188324 
L 838.360622 -339.252072 
L 839.348556 -335.315819 
L 840.094672 -331.379566 
L 840.581771 -327.443314 
L 840.7975 -323.507061 
L 840.734423 -319.570808 
L 840.390048 -315.634555 
L 839.766847 -311.698303 
L 838.872289 -307.76205 
L 837.71887 -303.825797 
L 836.324108 -299.889544 
L 834.710454 -295.953292 
L 832.905047 -292.017039 
L 830.939276 -288.080786 
L 828.848099 -284.144533 
L 826.669115 -280.208281 
L 824.441418 -276.272028 
L 822.204278 -272.335775 
L 819.995741 -268.399522 
L 817.85125 -264.46327 
L 815.802376 -260.527017 
L 813.875773 -256.590764 
L 812.092425 -252.654511 
L 810.467233 -248.718259 
L 809.008952 -244.782006 
L 807.720476 -240.845753 
L 806.5994 -236.909501 
L 805.638815 -232.973248 
L 804.828237 -229.036995 
L 804.154602 -225.100742 
L 803.603239 -221.16449 
L 803.158768 -217.228237 
L 802.805869 -213.291984 
L 802.529895 -209.355731 
z
" style="stroke: #3d3d3d; stroke-opacity: 0.5"/>
    </defs>
    <g clip-path="url(#p71c10ce918)">
     <use xlink:href="#m567cded4eb" x="0" y="711.060318" style="fill: #845b53; fill-opacity: 0.5; stroke: #3d3d3d; stroke-opacity: 0.5"/>
    </g>
   </g>
   <g id="line2d_7">
    <path d="M 118.1875 444.966698 
L 118.1875 398.743307 
" clip-path="url(#p71c10ce918)" style="fill: none; stroke: #3d3d3d; stroke-width: 1.5; stroke-linecap: round"/>
   </g>
   <g id="line2d_8">
    <path d="M 118.1875 427.205978 
L 118.1875 412.467461 
" clip-path="url(#p71c10ce918)" style="fill: none; stroke: #3d3d3d; stroke-width: 4.5; stroke-linecap: round"/>
   </g>
   <g id="line2d_9">
    <path d="M 118.1875 423.062494 
" clip-path="url(#p71c10ce918)" style="fill: none; stroke: #3d3d3d; stroke-width: 1.5; stroke-linecap: round"/>
    <defs>
     <path id="mab7df4cdc9" d="M 1.875 0 
L -1.875 -0 
" style="stroke: #ffffff; stroke-width: 0.9"/>
    </defs>
    <g clip-path="url(#p71c10ce918)">
     <use xlink:href="#mab7df4cdc9" x="118.1875" y="423.062494" style="fill: #ffffff; stroke: #ffffff; stroke-width: 0.9"/>
    </g>
   </g>
   <g id="line2d_10">
    <path d="M 215.8375 455.809518 
L 215.8375 128.908884 
" clip-path="url(#p71c10ce918)" style="fill: none; stroke: #3d3d3d; stroke-width: 1.5; stroke-linecap: round"/>
   </g>
   <g id="line2d_11">
    <path d="M 215.8375 380.530406 
L 215.8375 273.00453 
" clip-path="url(#p71c10ce918)" style="fill: none; stroke: #3d3d3d; stroke-width: 4.5; stroke-linecap: round"/>
   </g>
   <g id="line2d_12">
    <path d="M 215.8375 341.582749 
" clip-path="url(#p71c10ce918)" style="fill: none; stroke: #3d3d3d; stroke-width: 1.5; stroke-linecap: round"/>
    <g clip-path="url(#p71c10ce918)">
     <use xlink:href="#mab7df4cdc9" x="215.8375" y="341.582749" style="fill: #ffffff; stroke: #ffffff; stroke-width: 0.9"/>
    </g>
   </g>
   <g id="line2d_13">
    <path d="M 313.4875 372.6163 
L 313.4875 241.135116 
" clip-path="url(#p71c10ce918)" style="fill: none; stroke: #3d3d3d; stroke-width: 1.5; stroke-linecap: round"/>
   </g>
   <g id="line2d_14">
    <path d="M 313.4875 321.79417 
L 313.4875 287.663116 
" clip-path="url(#p71c10ce918)" style="fill: none; stroke: #3d3d3d; stroke-width: 4.5; stroke-linecap: round"/>
   </g>
   <g id="line2d_15">
    <path d="M 313.4875 300.568439 
" clip-path="url(#p71c10ce918)" style="fill: none; stroke: #3d3d3d; stroke-width: 1.5; stroke-linecap: round"/>
    <g clip-path="url(#p71c10ce918)">
     <use xlink:href="#mab7df4cdc9" x="313.4875" y="300.568439" style="fill: #ffffff; stroke: #ffffff; stroke-width: 0.9"/>
    </g>
   </g>
   <g id="line2d_16">
    <path d="M 411.1375 250.791475 
L 411.1375 88.675086 
" clip-path="url(#p71c10ce918)" style="fill: none; stroke: #3d3d3d; stroke-width: 1.5; stroke-linecap: round"/>
   </g>
   <g id="line2d_17">
    <path d="M 411.1375 162.37279 
L 411.1375 98.142385 
" clip-path="url(#p71c10ce918)" style="fill: none; stroke: #3d3d3d; stroke-width: 4.5; stroke-linecap: round"/>
   </g>
   <g id="line2d_18">
    <path d="M 411.1375 126.866435 
" clip-path="url(#p71c10ce918)" style="fill: none; stroke: #3d3d3d; stroke-width: 1.5; stroke-linecap: round"/>
    <g clip-path="url(#p71c10ce918)">
     <use xlink:href="#mab7df4cdc9" x="411.1375" y="126.866435" style="fill: #ffffff; stroke: #ffffff; stroke-width: 0.9"/>
    </g>
   </g>
   <g id="line2d_19">
    <path d="M 704.0875 274.078389 
L 704.0875 89.270821 
" clip-path="url(#p71c10ce918)" style="fill: none; stroke: #3d3d3d; stroke-width: 1.5; stroke-linecap: round"/>
   </g>
   <g id="line2d_20">
    <path d="M 704.0875 178.59441 
L 704.0875 108.403906 
" clip-path="url(#p71c10ce918)" style="fill: none; stroke: #3d3d3d; stroke-width: 4.5; stroke-linecap: round"/>
   </g>
   <g id="line2d_21">
    <path d="M 704.0875 124.875742 
" clip-path="url(#p71c10ce918)" style="fill: none; stroke: #3d3d3d; stroke-width: 1.5; stroke-linecap: round"/>
    <g clip-path="url(#p71c10ce918)">
     <use xlink:href="#mab7df4cdc9" x="704.0875" y="124.875742" style="fill: #ffffff; stroke: #ffffff; stroke-width: 0.9"/>
    </g>
   </g>
   <g id="line2d_22">
    <path d="M 801.7375 438.332396 
L 801.7375 278.71094 
" clip-path="url(#p71c10ce918)" style="fill: none; stroke: #3d3d3d; stroke-width: 1.5; stroke-linecap: round"/>
   </g>
   <g id="line2d_23">
    <path d="M 801.7375 406.080752 
L 801.7375 348.698383 
" clip-path="url(#p71c10ce918)" style="fill: none; stroke: #3d3d3d; stroke-width: 4.5; stroke-linecap: round"/>
   </g>
   <g id="line2d_24">
    <path d="M 801.7375 375.833332 
" clip-path="url(#p71c10ce918)" style="fill: none; stroke: #3d3d3d; stroke-width: 1.5; stroke-linecap: round"/>
    <g clip-path="url(#p71c10ce918)">
     <use xlink:href="#mab7df4cdc9" x="801.7375" y="375.833332" style="fill: #ffffff; stroke: #ffffff; stroke-width: 0.9"/>
    </g>
   </g>
   <g id="patch_3">
    <path d="M 69.3625 561.6 
L 850.5625 561.6 
" style="fill: none; stroke: #cccccc; stroke-width: 0.8; stroke-linejoin: miter; stroke-linecap: square"/>
   </g>
  </g>
 </g>
 <defs>
  <clipPath id="p71c10ce918">
   <rect x="69.3625" y="7.2" width="781.2" height="554.4"/>
  </clipPath>
 </defs>
</svg>
