<?xml version="1.0" encoding="utf-8" standalone="no"?>
<!DOCTYPE svg PUBLIC "-//W3C//DTD SVG 1.1//EN"
  "http://www.w3.org/Graphics/SVG/1.1/DTD/svg11.dtd">
<svg xmlns:xlink="http://www.w3.org/1999/xlink" width="857.7625pt" height="722.183991pt" viewBox="0 0 857.7625 722.183991" xmlns="http://www.w3.org/2000/svg" version="1.1">
 <metadata>
  <rdf:RDF xmlns:dc="http://purl.org/dc/elements/1.1/" xmlns:cc="http://creativecommons.org/ns#" xmlns:rdf="http://www.w3.org/1999/02/22-rdf-syntax-ns#">
   <cc:Work>
    <dc:type rdf:resource="http://purl.org/dc/dcmitype/StillImage"/>
    <dc:date>2024-03-17T20:48:21.583548</dc:date>
    <dc:format>image/svg+xml</dc:format>
    <dc:creator>
     <cc:Agent>
      <dc:title>Matplotlib v3.8.0, https://matplotlib.org/</dc:title>
     </cc:Agent>
    </dc:creator>
   </cc:Work>
  </rdf:RDF>
 </metadata>
 <defs>
  <style type="text/css">*{stroke-linejoin: round; stroke-linecap: butt}</style>
 </defs>
 <g id="figure_1">
  <g id="patch_1">
   <path d="M 0 722.183991 
L 857.7625 722.183991 
L 857.7625 0 
L 0 0 
L 0 722.183991 
z
" style="fill: none"/>
  </g>
  <g id="axes_1">
   <g id="patch_2">
    <path d="M 69.3625 561.6 
L 850.5625 561.6 
L 850.5625 7.2 
L 69.3625 7.2 
L 69.3625 561.6 
z
" style="fill: none"/>
   </g>
   <g id="matplotlib.axis_1">
    <g id="xtick_1">
     <g id="text_1">
      <!-- MSA -->
      <g style="fill: #262626" transform="translate(104.788986 610.465141) rotate(-45) scale(0.2 -0.2)">
       <defs>
        <path id="DejaVuSans-4d" d="M 628 4666 
L 1569 4666 
L 2759 1491 
L 3956 4666 
L 4897 4666 
L 4897 0 
L 4281 0 
L 4281 4097 
L 3078 897 
L 2444 897 
L 1241 4097 
L 1241 0 
L 628 0 
L 628 4666 
z
" transform="scale(0.015625)"/>
        <path id="DejaVuSans-53" d="M 3425 4513 
L 3425 3897 
Q 3066 4069 2747 4153 
Q 2428 4238 2131 4238 
Q 1616 4238 1336 4038 
Q 1056 3838 1056 3469 
Q 1056 3159 1242 3001 
Q 1428 2844 1947 2747 
L 2328 2669 
Q 3034 2534 3370 2195 
Q 3706 1856 3706 1288 
Q 3706 609 3251 259 
Q 2797 -91 1919 -91 
Q 1588 -91 1214 -16 
Q 841 59 441 206 
L 441 856 
Q 825 641 1194 531 
Q 1563 422 1919 422 
Q 2459 422 2753 634 
Q 3047 847 3047 1241 
Q 3047 1584 2836 1778 
Q 2625 1972 2144 2069 
L 1759 2144 
Q 1053 2284 737 2584 
Q 422 2884 422 3419 
Q 422 4038 858 4394 
Q 1294 4750 2059 4750 
Q 2388 4750 2728 4690 
Q 3069 4631 3425 4513 
z
" transform="scale(0.015625)"/>
        <path id="DejaVuSans-41" d="M 2188 4044 
L 1331 1722 
L 3047 1722 
L 2188 4044 
z
M 1831 4666 
L 2547 4666 
L 4325 0 
L 3669 0 
L 3244 1197 
L 1141 1197 
L 716 0 
L 50 0 
L 1831 4666 
z
" transform="scale(0.015625)"/>
       </defs>
       <use xlink:href="#DejaVuSans-4d"/>
       <use xlink:href="#DejaVuSans-53" x="86.279297"/>
       <use xlink:href="#DejaVuSans-41" x="151.630859"/>
      </g>
     </g>
    </g>
    <g id="xtick_2">
     <g id="text_2">
      <!-- Template -->
      <g style="fill: #262626" transform="translate(182.97819 643.875936) rotate(-45) scale(0.2 -0.2)">
       <defs>
        <path id="DejaVuSans-54" d="M -19 4666 
L 3928 4666 
L 3928 4134 
L 2272 4134 
L 2272 0 
L 1638 0 
L 1638 4134 
L -19 4134 
L -19 4666 
z
" transform="scale(0.015625)"/>
        <path id="DejaVuSans-65" d="M 3597 1894 
L 3597 1613 
L 953 1613 
Q 991 1019 1311 708 
Q 1631 397 2203 397 
Q 2534 397 2845 478 
Q 3156 559 3463 722 
L 3463 178 
Q 3153 47 2828 -22 
Q 2503 -91 2169 -91 
Q 1331 -91 842 396 
Q 353 884 353 1716 
Q 353 2575 817 3079 
Q 1281 3584 2069 3584 
Q 2775 3584 3186 3129 
Q 3597 2675 3597 1894 
z
M 3022 2063 
Q 3016 2534 2758 2815 
Q 2500 3097 2075 3097 
Q 1594 3097 1305 2825 
Q 1016 2553 972 2059 
L 3022 2063 
z
" transform="scale(0.015625)"/>
        <path id="DejaVuSans-6d" d="M 3328 2828 
Q 3544 3216 3844 3400 
Q 4144 3584 4550 3584 
Q 5097 3584 5394 3201 
Q 5691 2819 5691 2113 
L 5691 0 
L 5113 0 
L 5113 2094 
Q 5113 2597 4934 2840 
Q 4756 3084 4391 3084 
Q 3944 3084 3684 2787 
Q 3425 2491 3425 1978 
L 3425 0 
L 2847 0 
L 2847 2094 
Q 2847 2600 2669 2842 
Q 2491 3084 2119 3084 
Q 1678 3084 1418 2786 
Q 1159 2488 1159 1978 
L 1159 0 
L 581 0 
L 581 3500 
L 1159 3500 
L 1159 2956 
Q 1356 3278 1631 3431 
Q 1906 3584 2284 3584 
Q 2666 3584 2933 3390 
Q 3200 3197 3328 2828 
z
" transform="scale(0.015625)"/>
        <path id="DejaVuSans-70" d="M 1159 525 
L 1159 -1331 
L 581 -1331 
L 581 3500 
L 1159 3500 
L 1159 2969 
Q 1341 3281 1617 3432 
Q 1894 3584 2278 3584 
Q 2916 3584 3314 3078 
Q 3713 2572 3713 1747 
Q 3713 922 3314 415 
Q 2916 -91 2278 -91 
Q 1894 -91 1617 61 
Q 1341 213 1159 525 
z
M 3116 1747 
Q 3116 2381 2855 2742 
Q 2594 3103 2138 3103 
Q 1681 3103 1420 2742 
Q 1159 2381 1159 1747 
Q 1159 1113 1420 752 
Q 1681 391 2138 391 
Q 2594 391 2855 752 
Q 3116 1113 3116 1747 
z
" transform="scale(0.015625)"/>
        <path id="DejaVuSans-6c" d="M 603 4863 
L 1178 4863 
L 1178 0 
L 603 0 
L 603 4863 
z
" transform="scale(0.015625)"/>
        <path id="DejaVuSans-61" d="M 2194 1759 
Q 1497 1759 1228 1600 
Q 959 1441 959 1056 
Q 959 750 1161 570 
Q 1363 391 1709 391 
Q 2188 391 2477 730 
Q 2766 1069 2766 1631 
L 2766 1759 
L 2194 1759 
z
M 3341 1997 
L 3341 0 
L 2766 0 
L 2766 531 
Q 2569 213 2275 61 
Q 1981 -91 1556 -91 
Q 1019 -91 701 211 
Q 384 513 384 1019 
Q 384 1609 779 1909 
Q 1175 2209 1959 2209 
L 2766 2209 
L 2766 2266 
Q 2766 2663 2505 2880 
Q 2244 3097 1772 3097 
Q 1472 3097 1187 3025 
Q 903 2953 641 2809 
L 641 3341 
Q 956 3463 1253 3523 
Q 1550 3584 1831 3584 
Q 2591 3584 2966 3190 
Q 3341 2797 3341 1997 
z
" transform="scale(0.015625)"/>
        <path id="DejaVuSans-74" d="M 1172 4494 
L 1172 3500 
L 2356 3500 
L 2356 3053 
L 1172 3053 
L 1172 1153 
Q 1172 725 1289 603 
Q 1406 481 1766 481 
L 2356 481 
L 2356 0 
L 1766 0 
Q 1100 0 847 248 
Q 594 497 594 1153 
L 594 3053 
L 172 3053 
L 172 3500 
L 594 3500 
L 594 4494 
L 1172 4494 
z
" transform="scale(0.015625)"/>
       </defs>
       <use xlink:href="#DejaVuSans-54"/>
       <use xlink:href="#DejaVuSans-65" x="44.083984"/>
       <use xlink:href="#DejaVuSans-6d" x="105.607422"/>
       <use xlink:href="#DejaVuSans-70" x="203.019531"/>
       <use xlink:href="#DejaVuSans-6c" x="266.496094"/>
       <use xlink:href="#DejaVuSans-61" x="294.279297"/>
       <use xlink:href="#DejaVuSans-74" x="355.558594"/>
       <use xlink:href="#DejaVuSans-65" x="394.767578"/>
      </g>
     </g>
    </g>
    <g id="xtick_3">
     <g id="text_3">
      <!-- Backbone -->
      <g style="fill: #262626" transform="translate(289.478183 648.975944) rotate(-45) scale(0.2 -0.2)">
       <defs>
        <path id="DejaVuSans-42" d="M 1259 2228 
L 1259 519 
L 2272 519 
Q 2781 519 3026 730 
Q 3272 941 3272 1375 
Q 3272 1813 3026 2020 
Q 2781 2228 2272 2228 
L 1259 2228 
z
M 1259 4147 
L 1259 2741 
L 2194 2741 
Q 2656 2741 2882 2914 
Q 3109 3088 3109 3444 
Q 3109 3797 2882 3972 
Q 2656 4147 2194 4147 
L 1259 4147 
z
M 628 4666 
L 2241 4666 
Q 2963 4666 3353 4366 
Q 3744 4066 3744 3513 
Q 3744 3084 3544 2831 
Q 3344 2578 2956 2516 
Q 3422 2416 3680 2098 
Q 3938 1781 3938 1306 
Q 3938 681 3513 340 
Q 3088 0 2303 0 
L 628 0 
L 628 4666 
z
" transform="scale(0.015625)"/>
        <path id="DejaVuSans-63" d="M 3122 3366 
L 3122 2828 
Q 2878 2963 2633 3030 
Q 2388 3097 2138 3097 
Q 1578 3097 1268 2742 
Q 959 2388 959 1747 
Q 959 1106 1268 751 
Q 1578 397 2138 397 
Q 2388 397 2633 464 
Q 2878 531 3122 666 
L 3122 134 
Q 2881 22 2623 -34 
Q 2366 -91 2075 -91 
Q 1284 -91 818 406 
Q 353 903 353 1747 
Q 353 2603 823 3093 
Q 1294 3584 2113 3584 
Q 2378 3584 2631 3529 
Q 2884 3475 3122 3366 
z
" transform="scale(0.015625)"/>
        <path id="DejaVuSans-6b" d="M 581 4863 
L 1159 4863 
L 1159 1991 
L 2875 3500 
L 3609 3500 
L 1753 1863 
L 3688 0 
L 2938 0 
L 1159 1709 
L 1159 0 
L 581 0 
L 581 4863 
z
" transform="scale(0.015625)"/>
        <path id="DejaVuSans-62" d="M 3116 1747 
Q 3116 2381 2855 2742 
Q 2594 3103 2138 3103 
Q 1681 3103 1420 2742 
Q 1159 2381 1159 1747 
Q 1159 1113 1420 752 
Q 1681 391 2138 391 
Q 2594 391 2855 752 
Q 3116 1113 3116 1747 
z
M 1159 2969 
Q 1341 3281 1617 3432 
Q 1894 3584 2278 3584 
Q 2916 3584 3314 3078 
Q 3713 2572 3713 1747 
Q 3713 922 3314 415 
Q 2916 -91 2278 -91 
Q 1894 -91 1617 61 
Q 1341 213 1159 525 
L 1159 0 
L 581 0 
L 581 4863 
L 1159 4863 
L 1159 2969 
z
" transform="scale(0.015625)"/>
        <path id="DejaVuSans-6f" d="M 1959 3097 
Q 1497 3097 1228 2736 
Q 959 2375 959 1747 
Q 959 1119 1226 758 
Q 1494 397 1959 397 
Q 2419 397 2687 759 
Q 2956 1122 2956 1747 
Q 2956 2369 2687 2733 
Q 2419 3097 1959 3097 
z
M 1959 3584 
Q 2709 3584 3137 3096 
Q 3566 2609 3566 1747 
Q 3566 888 3137 398 
Q 2709 -91 1959 -91 
Q 1206 -91 779 398 
Q 353 888 353 1747 
Q 353 2609 779 3096 
Q 1206 3584 1959 3584 
z
" transform="scale(0.015625)"/>
        <path id="DejaVuSans-6e" d="M 3513 2113 
L 3513 0 
L 2938 0 
L 2938 2094 
Q 2938 2591 2744 2837 
Q 2550 3084 2163 3084 
Q 1697 3084 1428 2787 
Q 1159 2491 1159 1978 
L 1159 0 
L 581 0 
L 581 3500 
L 1159 3500 
L 1159 2956 
Q 1366 3272 1645 3428 
Q 1925 3584 2291 3584 
Q 2894 3584 3203 3211 
Q 3513 2838 3513 2113 
z
" transform="scale(0.015625)"/>
       </defs>
       <use xlink:href="#DejaVuSans-42"/>
       <use xlink:href="#DejaVuSans-61" x="68.603516"/>
       <use xlink:href="#DejaVuSans-63" x="129.882812"/>
       <use xlink:href="#DejaVuSans-6b" x="184.863281"/>
       <use xlink:href="#DejaVuSans-62" x="242.773438"/>
       <use xlink:href="#DejaVuSans-6f" x="306.25"/>
       <use xlink:href="#DejaVuSans-6e" x="367.431641"/>
       <use xlink:href="#DejaVuSans-65" x="430.810547"/>
      </g>
     </g>
    </g>
    <g id="xtick_4">
     <g id="text_4">
      <!-- Heuristic C-$\beta$ -->
      <g style="fill: #262626" transform="translate(379.63517 670.706219) rotate(-45) scale(0.2 -0.2)">
       <defs>
        <path id="DejaVuSans-48" d="M 628 4666 
L 1259 4666 
L 1259 2753 
L 3553 2753 
L 3553 4666 
L 4184 4666 
L 4184 0 
L 3553 0 
L 3553 2222 
L 1259 2222 
L 1259 0 
L 628 0 
L 628 4666 
z
" transform="scale(0.015625)"/>
        <path id="DejaVuSans-75" d="M 544 1381 
L 544 3500 
L 1119 3500 
L 1119 1403 
Q 1119 906 1312 657 
Q 1506 409 1894 409 
Q 2359 409 2629 706 
Q 2900 1003 2900 1516 
L 2900 3500 
L 3475 3500 
L 3475 0 
L 2900 0 
L 2900 538 
Q 2691 219 2414 64 
Q 2138 -91 1772 -91 
Q 1169 -91 856 284 
Q 544 659 544 1381 
z
M 1991 3584 
L 1991 3584 
z
" transform="scale(0.015625)"/>
        <path id="DejaVuSans-72" d="M 2631 2963 
Q 2534 3019 2420 3045 
Q 2306 3072 2169 3072 
Q 1681 3072 1420 2755 
Q 1159 2438 1159 1844 
L 1159 0 
L 581 0 
L 581 3500 
L 1159 3500 
L 1159 2956 
Q 1341 3275 1631 3429 
Q 1922 3584 2338 3584 
Q 2397 3584 2469 3576 
Q 2541 3569 2628 3553 
L 2631 2963 
z
" transform="scale(0.015625)"/>
        <path id="DejaVuSans-69" d="M 603 3500 
L 1178 3500 
L 1178 0 
L 603 0 
L 603 3500 
z
M 603 4863 
L 1178 4863 
L 1178 4134 
L 603 4134 
L 603 4863 
z
" transform="scale(0.015625)"/>
        <path id="DejaVuSans-73" d="M 2834 3397 
L 2834 2853 
Q 2591 2978 2328 3040 
Q 2066 3103 1784 3103 
Q 1356 3103 1142 2972 
Q 928 2841 928 2578 
Q 928 2378 1081 2264 
Q 1234 2150 1697 2047 
L 1894 2003 
Q 2506 1872 2764 1633 
Q 3022 1394 3022 966 
Q 3022 478 2636 193 
Q 2250 -91 1575 -91 
Q 1294 -91 989 -36 
Q 684 19 347 128 
L 347 722 
Q 666 556 975 473 
Q 1284 391 1588 391 
Q 1994 391 2212 530 
Q 2431 669 2431 922 
Q 2431 1156 2273 1281 
Q 2116 1406 1581 1522 
L 1381 1569 
Q 847 1681 609 1914 
Q 372 2147 372 2553 
Q 372 3047 722 3315 
Q 1072 3584 1716 3584 
Q 2034 3584 2315 3537 
Q 2597 3491 2834 3397 
z
" transform="scale(0.015625)"/>
        <path id="DejaVuSans-20" transform="scale(0.015625)"/>
        <path id="DejaVuSans-43" d="M 4122 4306 
L 4122 3641 
Q 3803 3938 3442 4084 
Q 3081 4231 2675 4231 
Q 1875 4231 1450 3742 
Q 1025 3253 1025 2328 
Q 1025 1406 1450 917 
Q 1875 428 2675 428 
Q 3081 428 3442 575 
Q 3803 722 4122 1019 
L 4122 359 
Q 3791 134 3420 21 
Q 3050 -91 2638 -91 
Q 1578 -91 968 557 
Q 359 1206 359 2328 
Q 359 3453 968 4101 
Q 1578 4750 2638 4750 
Q 3056 4750 3426 4639 
Q 3797 4528 4122 4306 
z
" transform="scale(0.015625)"/>
        <path id="DejaVuSans-2d" d="M 313 2009 
L 1997 2009 
L 1997 1497 
L 313 1497 
L 313 2009 
z
" transform="scale(0.015625)"/>
        <path id="DejaVuSans-Oblique-3b2" d="M 872 216 
L 572 -1331 
L -6 -1331 
L 928 3478 
Q 1206 4903 2538 4903 
Q 3888 4903 3659 3700 
Q 3503 2844 2894 2531 
Q 3713 2250 3553 1416 
Q 3272 -69 1759 -66 
Q 1097 -63 872 216 
z
M 1019 966 
Q 1259 422 1875 425 
Q 2775 425 2966 1406 
Q 3138 2288 1675 2219 
L 1778 2750 
Q 2909 2731 3106 3750 
Q 3241 4438 2509 4434 
Q 1691 4434 1503 3459 
L 1019 966 
z
" transform="scale(0.015625)"/>
       </defs>
       <use xlink:href="#DejaVuSans-48" transform="translate(0 0.390625)"/>
       <use xlink:href="#DejaVuSans-65" transform="translate(75.195312 0.390625)"/>
       <use xlink:href="#DejaVuSans-75" transform="translate(136.71875 0.390625)"/>
       <use xlink:href="#DejaVuSans-72" transform="translate(200.097656 0.390625)"/>
       <use xlink:href="#DejaVuSans-69" transform="translate(241.210938 0.390625)"/>
       <use xlink:href="#DejaVuSans-73" transform="translate(268.994141 0.390625)"/>
       <use xlink:href="#DejaVuSans-74" transform="translate(321.09375 0.390625)"/>
       <use xlink:href="#DejaVuSans-69" transform="translate(360.302734 0.390625)"/>
       <use xlink:href="#DejaVuSans-63" transform="translate(388.085938 0.390625)"/>
       <use xlink:href="#DejaVuSans-20" transform="translate(443.066406 0.390625)"/>
       <use xlink:href="#DejaVuSans-43" transform="translate(474.853516 0.390625)"/>
       <use xlink:href="#DejaVuSans-2d" transform="translate(544.677734 0.390625)"/>
       <use xlink:href="#DejaVuSans-Oblique-3b2" transform="translate(580.761719 0.390625)"/>
      </g>
     </g>
    </g>
    <g id="xtick_5">
     <g id="text_5">
      <!-- Template C-$\beta$ -->
      <g style="fill: #262626" transform="translate(486.992529 674.94886) rotate(-45) scale(0.2 -0.2)">
       <use xlink:href="#DejaVuSans-54" transform="translate(0 0.390625)"/>
       <use xlink:href="#DejaVuSans-65" transform="translate(61.083984 0.390625)"/>
       <use xlink:href="#DejaVuSans-6d" transform="translate(122.607422 0.390625)"/>
       <use xlink:href="#DejaVuSans-70" transform="translate(220.019531 0.390625)"/>
       <use xlink:href="#DejaVuSans-6c" transform="translate(283.496094 0.390625)"/>
       <use xlink:href="#DejaVuSans-61" transform="translate(311.279297 0.390625)"/>
       <use xlink:href="#DejaVuSans-74" transform="translate(372.558594 0.390625)"/>
       <use xlink:href="#DejaVuSans-65" transform="translate(411.767578 0.390625)"/>
       <use xlink:href="#DejaVuSans-20" transform="translate(473.291016 0.390625)"/>
       <use xlink:href="#DejaVuSans-43" transform="translate(505.078125 0.390625)"/>
       <use xlink:href="#DejaVuSans-2d" transform="translate(574.902344 0.390625)"/>
       <use xlink:href="#DejaVuSans-Oblique-3b2" transform="translate(610.986328 0.390625)"/>
      </g>
     </g>
    </g>
    <g id="xtick_6">
     <g id="text_6">
      <!-- AttnPacker -->
      <g style="fill: #262626" transform="translate(617.905383 655.348744) rotate(-45) scale(0.2 -0.2)">
       <defs>
        <path id="DejaVuSans-50" d="M 1259 4147 
L 1259 2394 
L 2053 2394 
Q 2494 2394 2734 2622 
Q 2975 2850 2975 3272 
Q 2975 3691 2734 3919 
Q 2494 4147 2053 4147 
L 1259 4147 
z
M 628 4666 
L 2053 4666 
Q 2838 4666 3239 4311 
Q 3641 3956 3641 3272 
Q 3641 2581 3239 2228 
Q 2838 1875 2053 1875 
L 1259 1875 
L 1259 0 
L 628 0 
L 628 4666 
z
" transform="scale(0.015625)"/>
       </defs>
       <use xlink:href="#DejaVuSans-41"/>
       <use xlink:href="#DejaVuSans-74" x="66.658203"/>
       <use xlink:href="#DejaVuSans-74" x="105.867188"/>
       <use xlink:href="#DejaVuSans-6e" x="145.076172"/>
       <use xlink:href="#DejaVuSans-50" x="208.455078"/>
       <use xlink:href="#DejaVuSans-61" x="264.257812"/>
       <use xlink:href="#DejaVuSans-63" x="325.537109"/>
       <use xlink:href="#DejaVuSans-6b" x="380.517578"/>
       <use xlink:href="#DejaVuSans-65" x="434.802734"/>
       <use xlink:href="#DejaVuSans-72" x="496.326172"/>
      </g>
     </g>
    </g>
    <g id="xtick_7">
     <g id="text_7">
      <!-- AttnPacker (AF) -->
      <g style="fill: #262626" transform="translate(696.167508 688.686619) rotate(-45) scale(0.2 -0.2)">
       <defs>
        <path id="DejaVuSans-28" d="M 1984 4856 
Q 1566 4138 1362 3434 
Q 1159 2731 1159 2009 
Q 1159 1288 1364 580 
Q 1569 -128 1984 -844 
L 1484 -844 
Q 1016 -109 783 600 
Q 550 1309 550 2009 
Q 550 2706 781 3412 
Q 1013 4119 1484 4856 
L 1984 4856 
z
" transform="scale(0.015625)"/>
        <path id="DejaVuSans-46" d="M 628 4666 
L 3309 4666 
L 3309 4134 
L 1259 4134 
L 1259 2759 
L 3109 2759 
L 3109 2228 
L 1259 2228 
L 1259 0 
L 628 0 
L 628 4666 
z
" transform="scale(0.015625)"/>
        <path id="DejaVuSans-29" d="M 513 4856 
L 1013 4856 
Q 1481 4119 1714 3412 
Q 1947 2706 1947 2009 
Q 1947 1309 1714 600 
Q 1481 -109 1013 -844 
L 513 -844 
Q 928 -128 1133 580 
Q 1338 1288 1338 2009 
Q 1338 2731 1133 3434 
Q 928 4138 513 4856 
z
" transform="scale(0.015625)"/>
       </defs>
       <use xlink:href="#DejaVuSans-41"/>
       <use xlink:href="#DejaVuSans-74" x="66.658203"/>
       <use xlink:href="#DejaVuSans-74" x="105.867188"/>
       <use xlink:href="#DejaVuSans-6e" x="145.076172"/>
       <use xlink:href="#DejaVuSans-50" x="208.455078"/>
       <use xlink:href="#DejaVuSans-61" x="264.257812"/>
       <use xlink:href="#DejaVuSans-63" x="325.537109"/>
       <use xlink:href="#DejaVuSans-6b" x="380.517578"/>
       <use xlink:href="#DejaVuSans-65" x="434.802734"/>
       <use xlink:href="#DejaVuSans-72" x="496.326172"/>
       <use xlink:href="#DejaVuSans-20" x="537.439453"/>
       <use xlink:href="#DejaVuSans-28" x="569.226562"/>
       <use xlink:href="#DejaVuSans-41" x="608.240234"/>
       <use xlink:href="#DejaVuSans-46" x="676.648438"/>
       <use xlink:href="#DejaVuSans-29" x="734.167969"/>
      </g>
     </g>
    </g>
    <g id="text_8">
     <!-- Method -->
     <g style="fill: #262626" transform="translate(422.45625 710.824616) scale(0.2 -0.2)">
      <defs>
       <path id="DejaVuSans-68" d="M 3513 2113 
L 3513 0 
L 2938 0 
L 2938 2094 
Q 2938 2591 2744 2837 
Q 2550 3084 2163 3084 
Q 1697 3084 1428 2787 
Q 1159 2491 1159 1978 
L 1159 0 
L 581 0 
L 581 4863 
L 1159 4863 
L 1159 2956 
Q 1366 3272 1645 3428 
Q 1925 3584 2291 3584 
Q 2894 3584 3203 3211 
Q 3513 2838 3513 2113 
z
" transform="scale(0.015625)"/>
       <path id="DejaVuSans-64" d="M 2906 2969 
L 2906 4863 
L 3481 4863 
L 3481 0 
L 2906 0 
L 2906 525 
Q 2725 213 2448 61 
Q 2172 -91 1784 -91 
Q 1150 -91 751 415 
Q 353 922 353 1747 
Q 353 2572 751 3078 
Q 1150 3584 1784 3584 
Q 2172 3584 2448 3432 
Q 2725 3281 2906 2969 
z
M 947 1747 
Q 947 1113 1208 752 
Q 1469 391 1925 391 
Q 2381 391 2643 752 
Q 2906 1113 2906 1747 
Q 2906 2381 2643 2742 
Q 2381 3103 1925 3103 
Q 1469 3103 1208 2742 
Q 947 2381 947 1747 
z
" transform="scale(0.015625)"/>
      </defs>
      <use xlink:href="#DejaVuSans-4d"/>
      <use xlink:href="#DejaVuSans-65" x="86.279297"/>
      <use xlink:href="#DejaVuSans-74" x="147.802734"/>
      <use xlink:href="#DejaVuSans-68" x="187.011719"/>
      <use xlink:href="#DejaVuSans-6f" x="250.390625"/>
      <use xlink:href="#DejaVuSans-64" x="311.572266"/>
     </g>
    </g>
   </g>
   <g id="matplotlib.axis_2">
    <g id="ytick_1">
     <g id="line2d_1">
      <path d="M 69.3625 541.99535 
L 850.5625 541.99535 
" clip-path="url(#pf60399628c)" style="fill: none; stroke: #cccccc; stroke-width: 0.8; stroke-linecap: round"/>
     </g>
     <g id="text_9">
      <!-- 0.0 -->
      <g style="fill: #262626" transform="translate(30.55625 549.593787) scale(0.2 -0.2)">
       <defs>
        <path id="DejaVuSans-30" d="M 2034 4250 
Q 1547 4250 1301 3770 
Q 1056 3291 1056 2328 
Q 1056 1369 1301 889 
Q 1547 409 2034 409 
Q 2525 409 2770 889 
Q 3016 1369 3016 2328 
Q 3016 3291 2770 3770 
Q 2525 4250 2034 4250 
z
M 2034 4750 
Q 2819 4750 3233 4129 
Q 3647 3509 3647 2328 
Q 3647 1150 3233 529 
Q 2819 -91 2034 -91 
Q 1250 -91 836 529 
Q 422 1150 422 2328 
Q 422 3509 836 4129 
Q 1250 4750 2034 4750 
z
" transform="scale(0.015625)"/>
        <path id="DejaVuSans-2e" d="M 684 794 
L 1344 794 
L 1344 0 
L 684 0 
L 684 794 
z
" transform="scale(0.015625)"/>
       </defs>
       <use xlink:href="#DejaVuSans-30"/>
       <use xlink:href="#DejaVuSans-2e" x="63.623047"/>
       <use xlink:href="#DejaVuSans-30" x="95.410156"/>
      </g>
     </g>
    </g>
    <g id="ytick_2">
     <g id="line2d_2">
      <path d="M 69.3625 476.971618 
L 850.5625 476.971618 
" clip-path="url(#pf60399628c)" style="fill: none; stroke: #cccccc; stroke-width: 0.8; stroke-linecap: round"/>
     </g>
     <g id="text_10">
      <!-- 0.2 -->
      <g style="fill: #262626" transform="translate(30.55625 484.570056) scale(0.2 -0.2)">
       <defs>
        <path id="DejaVuSans-32" d="M 1228 531 
L 3431 531 
L 3431 0 
L 469 0 
L 469 531 
Q 828 903 1448 1529 
Q 2069 2156 2228 2338 
Q 2531 2678 2651 2914 
Q 2772 3150 2772 3378 
Q 2772 3750 2511 3984 
Q 2250 4219 1831 4219 
Q 1534 4219 1204 4116 
Q 875 4013 500 3803 
L 500 4441 
Q 881 4594 1212 4672 
Q 1544 4750 1819 4750 
Q 2544 4750 2975 4387 
Q 3406 4025 3406 3419 
Q 3406 3131 3298 2873 
Q 3191 2616 2906 2266 
Q 2828 2175 2409 1742 
Q 1991 1309 1228 531 
z
" transform="scale(0.015625)"/>
       </defs>
       <use xlink:href="#DejaVuSans-30"/>
       <use xlink:href="#DejaVuSans-2e" x="63.623047"/>
       <use xlink:href="#DejaVuSans-32" x="95.410156"/>
      </g>
     </g>
    </g>
    <g id="ytick_3">
     <g id="line2d_3">
      <path d="M 69.3625 411.947887 
L 850.5625 411.947887 
" clip-path="url(#pf60399628c)" style="fill: none; stroke: #cccccc; stroke-width: 0.8; stroke-linecap: round"/>
     </g>
     <g id="text_11">
      <!-- 0.4 -->
      <g style="fill: #262626" transform="translate(30.55625 419.546325) scale(0.2 -0.2)">
       <defs>
        <path id="DejaVuSans-34" d="M 2419 4116 
L 825 1625 
L 2419 1625 
L 2419 4116 
z
M 2253 4666 
L 3047 4666 
L 3047 1625 
L 3713 1625 
L 3713 1100 
L 3047 1100 
L 3047 0 
L 2419 0 
L 2419 1100 
L 313 1100 
L 313 1709 
L 2253 4666 
z
" transform="scale(0.015625)"/>
       </defs>
       <use xlink:href="#DejaVuSans-30"/>
       <use xlink:href="#DejaVuSans-2e" x="63.623047"/>
       <use xlink:href="#DejaVuSans-34" x="95.410156"/>
      </g>
     </g>
    </g>
    <g id="ytick_4">
     <g id="line2d_4">
      <path d="M 69.3625 346.924156 
L 850.5625 346.924156 
" clip-path="url(#pf60399628c)" style="fill: none; stroke: #cccccc; stroke-width: 0.8; stroke-linecap: round"/>
     </g>
     <g id="text_12">
      <!-- 0.6 -->
      <g style="fill: #262626" transform="translate(30.55625 354.522593) scale(0.2 -0.2)">
       <defs>
        <path id="DejaVuSans-36" d="M 2113 2584 
Q 1688 2584 1439 2293 
Q 1191 2003 1191 1497 
Q 1191 994 1439 701 
Q 1688 409 2113 409 
Q 2538 409 2786 701 
Q 3034 994 3034 1497 
Q 3034 2003 2786 2293 
Q 2538 2584 2113 2584 
z
M 3366 4563 
L 3366 3988 
Q 3128 4100 2886 4159 
Q 2644 4219 2406 4219 
Q 1781 4219 1451 3797 
Q 1122 3375 1075 2522 
Q 1259 2794 1537 2939 
Q 1816 3084 2150 3084 
Q 2853 3084 3261 2657 
Q 3669 2231 3669 1497 
Q 3669 778 3244 343 
Q 2819 -91 2113 -91 
Q 1303 -91 875 529 
Q 447 1150 447 2328 
Q 447 3434 972 4092 
Q 1497 4750 2381 4750 
Q 2619 4750 2861 4703 
Q 3103 4656 3366 4563 
z
" transform="scale(0.015625)"/>
       </defs>
       <use xlink:href="#DejaVuSans-30"/>
       <use xlink:href="#DejaVuSans-2e" x="63.623047"/>
       <use xlink:href="#DejaVuSans-36" x="95.410156"/>
      </g>
     </g>
    </g>
    <g id="ytick_5">
     <g id="line2d_5">
      <path d="M 69.3625 281.900424 
L 850.5625 281.900424 
" clip-path="url(#pf60399628c)" style="fill: none; stroke: #cccccc; stroke-width: 0.8; stroke-linecap: round"/>
     </g>
     <g id="text_13">
      <!-- 0.8 -->
      <g style="fill: #262626" transform="translate(30.55625 289.498862) scale(0.2 -0.2)">
       <defs>
        <path id="DejaVuSans-38" d="M 2034 2216 
Q 1584 2216 1326 1975 
Q 1069 1734 1069 1313 
Q 1069 891 1326 650 
Q 1584 409 2034 409 
Q 2484 409 2743 651 
Q 3003 894 3003 1313 
Q 3003 1734 2745 1975 
Q 2488 2216 2034 2216 
z
M 1403 2484 
Q 997 2584 770 2862 
Q 544 3141 544 3541 
Q 544 4100 942 4425 
Q 1341 4750 2034 4750 
Q 2731 4750 3128 4425 
Q 3525 4100 3525 3541 
Q 3525 3141 3298 2862 
Q 3072 2584 2669 2484 
Q 3125 2378 3379 2068 
Q 3634 1759 3634 1313 
Q 3634 634 3220 271 
Q 2806 -91 2034 -91 
Q 1263 -91 848 271 
Q 434 634 434 1313 
Q 434 1759 690 2068 
Q 947 2378 1403 2484 
z
M 1172 3481 
Q 1172 3119 1398 2916 
Q 1625 2713 2034 2713 
Q 2441 2713 2670 2916 
Q 2900 3119 2900 3481 
Q 2900 3844 2670 4047 
Q 2441 4250 2034 4250 
Q 1625 4250 1398 4047 
Q 1172 3844 1172 3481 
z
" transform="scale(0.015625)"/>
       </defs>
       <use xlink:href="#DejaVuSans-30"/>
       <use xlink:href="#DejaVuSans-2e" x="63.623047"/>
       <use xlink:href="#DejaVuSans-38" x="95.410156"/>
      </g>
     </g>
    </g>
    <g id="ytick_6">
     <g id="line2d_6">
      <path d="M 69.3625 216.876693 
L 850.5625 216.876693 
" clip-path="url(#pf60399628c)" style="fill: none; stroke: #cccccc; stroke-width: 0.8; stroke-linecap: round"/>
     </g>
     <g id="text_14">
      <!-- 1.0 -->
      <g style="fill: #262626" transform="translate(30.55625 224.47513) scale(0.2 -0.2)">
       <defs>
        <path id="DejaVuSans-31" d="M 794 531 
L 1825 531 
L 1825 4091 
L 703 3866 
L 703 4441 
L 1819 4666 
L 2450 4666 
L 2450 531 
L 3481 531 
L 3481 0 
L 794 0 
L 794 531 
z
" transform="scale(0.015625)"/>
       </defs>
       <use xlink:href="#DejaVuSans-31"/>
       <use xlink:href="#DejaVuSans-2e" x="63.623047"/>
       <use xlink:href="#DejaVuSans-30" x="95.410156"/>
      </g>
     </g>
    </g>
    <g id="ytick_7">
     <g id="line2d_7">
      <path d="M 69.3625 151.852962 
L 850.5625 151.852962 
" clip-path="url(#pf60399628c)" style="fill: none; stroke: #cccccc; stroke-width: 0.8; stroke-linecap: round"/>
     </g>
     <g id="text_15">
      <!-- 1.2 -->
      <g style="fill: #262626" transform="translate(30.55625 159.451399) scale(0.2 -0.2)">
       <use xlink:href="#DejaVuSans-31"/>
       <use xlink:href="#DejaVuSans-2e" x="63.623047"/>
       <use xlink:href="#DejaVuSans-32" x="95.410156"/>
      </g>
     </g>
    </g>
    <g id="ytick_8">
     <g id="line2d_8">
      <path d="M 69.3625 86.82923 
L 850.5625 86.82923 
" clip-path="url(#pf60399628c)" style="fill: none; stroke: #cccccc; stroke-width: 0.8; stroke-linecap: round"/>
     </g>
     <g id="text_16">
      <!-- 1.4 -->
      <g style="fill: #262626" transform="translate(30.55625 94.427668) scale(0.2 -0.2)">
       <use xlink:href="#DejaVuSans-31"/>
       <use xlink:href="#DejaVuSans-2e" x="63.623047"/>
       <use xlink:href="#DejaVuSans-34" x="95.410156"/>
      </g>
     </g>
    </g>
    <g id="ytick_9">
     <g id="line2d_9">
      <path d="M 69.3625 21.805499 
L 850.5625 21.805499 
" clip-path="url(#pf60399628c)" style="fill: none; stroke: #cccccc; stroke-width: 0.8; stroke-linecap: round"/>
     </g>
     <g id="text_17">
      <!-- 1.6 -->
      <g style="fill: #262626" transform="translate(30.55625 29.403936) scale(0.2 -0.2)">
       <use xlink:href="#DejaVuSans-31"/>
       <use xlink:href="#DejaVuSans-2e" x="63.623047"/>
       <use xlink:href="#DejaVuSans-36" x="95.410156"/>
      </g>
     </g>
    </g>
    <g id="text_18">
     <!-- MAE 3 (rad) -->
     <g style="fill: #262626" transform="translate(22.396875 343.296875) rotate(-90) scale(0.2 -0.2)">
      <defs>
       <path id="DejaVuSans-45" d="M 628 4666 
L 3578 4666 
L 3578 4134 
L 1259 4134 
L 1259 2753 
L 3481 2753 
L 3481 2222 
L 1259 2222 
L 1259 531 
L 3634 531 
L 3634 0 
L 628 0 
L 628 4666 
z
" transform="scale(0.015625)"/>
       <path id="DejaVuSans-33" d="M 2597 2516 
Q 3050 2419 3304 2112 
Q 3559 1806 3559 1356 
Q 3559 666 3084 287 
Q 2609 -91 1734 -91 
Q 1441 -91 1130 -33 
Q 819 25 488 141 
L 488 750 
Q 750 597 1062 519 
Q 1375 441 1716 441 
Q 2309 441 2620 675 
Q 2931 909 2931 1356 
Q 2931 1769 2642 2001 
Q 2353 2234 1838 2234 
L 1294 2234 
L 1294 2753 
L 1863 2753 
Q 2328 2753 2575 2939 
Q 2822 3125 2822 3475 
Q 2822 3834 2567 4026 
Q 2313 4219 1838 4219 
Q 1578 4219 1281 4162 
Q 984 4106 628 3988 
L 628 4550 
Q 988 4650 1302 4700 
Q 1616 4750 1894 4750 
Q 2613 4750 3031 4423 
Q 3450 4097 3450 3541 
Q 3450 3153 3228 2886 
Q 3006 2619 2597 2516 
z
" transform="scale(0.015625)"/>
      </defs>
      <use xlink:href="#DejaVuSans-4d"/>
      <use xlink:href="#DejaVuSans-41" x="86.279297"/>
      <use xlink:href="#DejaVuSans-45" x="154.6875"/>
      <use xlink:href="#DejaVuSans-20" x="217.871094"/>
      <use xlink:href="#DejaVuSans-33" x="249.658203"/>
      <use xlink:href="#DejaVuSans-20" x="313.28125"/>
      <use xlink:href="#DejaVuSans-28" x="345.068359"/>
      <use xlink:href="#DejaVuSans-72" x="384.082031"/>
      <use xlink:href="#DejaVuSans-61" x="425.195312"/>
      <use xlink:href="#DejaVuSans-64" x="486.474609"/>
      <use xlink:href="#DejaVuSans-29" x="549.951172"/>
     </g>
    </g>
   </g>
   <g id="PolyCollection_1">
    <defs>
     <path id="m922340b4b0" d="M 125.469298 -301.370865 
L 124.855702 -301.370865 
L 124.739329 -304.892836 
L 124.592161 -308.414808 
L 124.411241 -311.936779 
L 124.195115 -315.45875 
L 123.94431 -318.980721 
L 123.661629 -322.502692 
L 123.352142 -326.024663 
L 123.02277 -329.546635 
L 122.681421 -333.068606 
L 122.335697 -336.590577 
L 121.991287 -340.112548 
L 121.650249 -343.634519 
L 121.309454 -347.15649 
L 120.959491 -350.678462 
L 120.584319 -354.200433 
L 120.161851 -357.722404 
L 119.665541 -361.244375 
L 119.066873 -364.766346 
L 118.338459 -368.288317 
L 117.457336 -371.810288 
L 116.407956 -375.33226 
L 115.184357 -378.854231 
L 113.79112 -382.376202 
L 112.242895 -385.898173 
L 110.562514 -389.420144 
L 108.777998 -392.942115 
L 106.918949 -396.464087 
L 105.013001 -399.986058 
L 103.082976 -403.508029 
L 101.145296 -407.03 
L 99.209963 -410.551971 
L 97.282084 -414.073942 
L 95.364646 -417.595913 
L 93.461949 -421.117885 
L 91.582988 -424.639856 
L 89.744088 -428.161827 
L 87.970216 -431.683798 
L 86.294684 -435.205769 
L 84.757227 -438.72774 
L 83.400747 -442.249712 
L 82.267211 -445.771683 
L 81.39333 -449.293654 
L 80.806637 -452.815625 
L 80.5225 -456.337596 
L 80.542459 -459.859567 
L 80.854071 -463.381538 
L 81.432278 -466.90351 
L 82.242084 -470.425481 
L 83.242221 -473.947452 
L 84.389313 -477.469423 
L 85.642022 -480.991394 
L 86.964631 -484.513365 
L 88.329634 -488.035337 
L 89.719004 -491.557308 
L 91.124053 -495.079279 
L 92.543993 -498.60125 
L 93.983521 -502.123221 
L 95.44989 -505.645192 
L 96.949962 -509.167163 
L 98.487703 -512.689135 
L 100.062456 -516.211106 
L 101.668116 -519.733077 
L 103.2932 -523.255048 
L 104.921631 -526.777019 
L 106.533983 -530.29899 
L 108.108949 -533.820962 
L 109.624822 -537.342933 
L 111.060866 -540.864904 
L 112.398529 -544.386875 
L 113.622492 -547.908846 
L 114.721572 -551.430817 
L 115.689441 -554.952788 
L 116.525133 -558.47476 
L 117.233239 -561.996731 
L 117.823703 -565.518702 
L 118.311181 -569.040673 
L 118.713951 -572.562644 
L 119.052476 -576.084615 
L 119.347758 -579.606587 
L 119.619692 -583.128558 
L 119.885604 -586.650529 
L 120.159155 -590.1725 
L 120.449691 -593.694471 
L 120.762078 -597.216442 
L 121.096971 -600.738414 
L 121.451423 -604.260385 
L 121.819715 -607.782356 
L 122.194292 -611.304327 
L 122.566696 -614.826298 
L 122.92842 -618.348269 
L 123.271632 -621.87024 
L 123.589724 -625.392212 
L 123.877695 -628.914183 
L 124.132335 -632.436154 
L 124.352242 -635.958125 
L 124.537692 -639.480096 
L 124.690381 -643.002067 
L 124.813095 -646.524039 
L 124.909347 -650.04601 
L 125.415653 -650.04601 
L 125.415653 -650.04601 
L 125.511905 -646.524039 
L 125.634619 -643.002067 
L 125.787308 -639.480096 
L 125.972758 -635.958125 
L 126.192665 -632.436154 
L 126.447305 -628.914183 
L 126.735276 -625.392212 
L 127.053368 -621.87024 
L 127.39658 -618.348269 
L 127.758304 -614.826298 
L 128.130708 -611.304327 
L 128.505285 -607.782356 
L 128.873577 -604.260385 
L 129.228029 -600.738414 
L 129.562922 -597.216442 
L 129.875309 -593.694471 
L 130.165845 -590.1725 
L 130.439396 -586.650529 
L 130.705308 -583.128558 
L 130.977242 -579.606587 
L 131.272524 -576.084615 
L 131.611049 -572.562644 
L 132.013819 -569.040673 
L 132.501297 -565.518702 
L 133.091761 -561.996731 
L 133.799867 -558.47476 
L 134.635559 -554.952788 
L 135.603428 -551.430817 
L 136.702508 -547.908846 
L 137.926471 -544.386875 
L 139.264134 -540.864904 
L 140.700178 -537.342933 
L 142.216051 -533.820962 
L 143.791017 -530.29899 
L 145.403369 -526.777019 
L 147.0318 -523.255048 
L 148.656884 -519.733077 
L 150.262544 -516.211106 
L 151.837297 -512.689135 
L 153.375038 -509.167163 
L 154.87511 -505.645192 
L 156.341479 -502.123221 
L 157.781007 -498.60125 
L 159.200947 -495.079279 
L 160.605996 -491.557308 
L 161.995366 -488.035337 
L 163.360369 -484.513365 
L 164.682978 -480.991394 
L 165.935687 -477.469423 
L 167.082779 -473.947452 
L 168.082916 -470.425481 
L 168.892722 -466.90351 
L 169.470929 -463.381538 
L 169.782541 -459.859567 
L 169.8025 -456.337596 
L 169.518363 -452.815625 
L 168.93167 -449.293654 
L 168.057789 -445.771683 
L 166.924253 -442.249712 
L 165.567773 -438.72774 
L 164.030316 -435.205769 
L 162.354784 -431.683798 
L 160.580912 -428.161827 
L 158.742012 -424.639856 
L 156.863051 -421.117885 
L 154.960354 -417.595913 
L 153.042916 -414.073942 
L 151.115037 -410.551971 
L 149.179704 -407.03 
L 147.242024 -403.508029 
L 145.311999 -399.986058 
L 143.406051 -396.464087 
L 141.547002 -392.942115 
L 139.762486 -389.420144 
L 138.082105 -385.898173 
L 136.53388 -382.376202 
L 135.140643 -378.854231 
L 133.917044 -375.33226 
L 132.867664 -371.810288 
L 131.986541 -368.288317 
L 131.258127 -364.766346 
L 130.659459 -361.244375 
L 130.163149 -357.722404 
L 129.740681 -354.200433 
L 129.365509 -350.678462 
L 129.015546 -347.15649 
L 128.674751 -343.634519 
L 128.333713 -340.112548 
L 127.989303 -336.590577 
L 127.643579 -333.068606 
L 127.30223 -329.546635 
L 126.972858 -326.024663 
L 126.663371 -322.502692 
L 126.38069 -318.980721 
L 126.129885 -315.45875 
L 125.913759 -311.936779 
L 125.732839 -308.414808 
L 125.585671 -304.892836 
L 125.469298 -301.370865 
z
" style="stroke: #3d3d3d; stroke-opacity: 0.5"/>
    </defs>
    <g clip-path="url(#pf60399628c)">
     <use xlink:href="#m922340b4b0" x="0" y="722.183991" style="fill: #3274a1; fill-opacity: 0.5; stroke: #3d3d3d; stroke-opacity: 0.5"/>
    </g>
   </g>
   <g id="PolyCollection_2">
    <defs>
     <path id="m2381440bde" d="M 237.081053 -185.783991 
L 236.443947 -185.783991 
L 236.322642 -189.882419 
L 236.169842 -193.980846 
L 235.983212 -198.079274 
L 235.762387 -202.177702 
L 235.509548 -206.276129 
L 235.229787 -210.374557 
L 234.931124 -214.472985 
L 234.624084 -218.571412 
L 234.320776 -222.66984 
L 234.033532 -226.768268 
L 233.773232 -230.866695 
L 233.547525 -234.965123 
L 233.359221 -239.063551 
L 233.205126 -243.161978 
L 233.075539 -247.260406 
L 232.954566 -251.358834 
L 232.82124 -255.457261 
L 232.65134 -259.555689 
L 232.41967 -263.654117 
L 232.102459 -267.752544 
L 231.679569 -271.850972 
L 231.136161 -275.9494 
L 230.463608 -280.047827 
L 229.659545 -284.146255 
L 228.727074 -288.244682 
L 227.673339 -292.34311 
L 226.507751 -296.441538 
L 225.240264 -300.539965 
L 223.880075 -304.638393 
L 222.435056 -308.736821 
L 220.912068 -312.835248 
L 219.318071 -316.933676 
L 217.661731 -321.032104 
L 215.955042 -325.130531 
L 214.21441 -329.228959 
L 212.460691 -333.327387 
L 210.717939 -337.425814 
L 209.010921 -341.524242 
L 207.361833 -345.62267 
L 205.786951 -349.721097 
L 204.294075 -353.819525 
L 202.881569 -357.917953 
L 201.539482 -362.01638 
L 200.252794 -366.114808 
L 199.006334 -370.213236 
L 197.790507 -374.311663 
L 196.6067 -378.410091 
L 195.471266 -382.508519 
L 194.417193 -386.606946 
L 193.493007 -390.705374 
L 192.758925 -394.803802 
L 192.280767 -398.902229 
L 192.1225 -403.000657 
L 192.338479 -407.099084 
L 192.966477 -411.197512 
L 194.022451 -415.29594 
L 195.497719 -419.394367 
L 197.358892 -423.492795 
L 199.550496 -427.591223 
L 201.999913 -431.68965 
L 204.623944 -435.788078 
L 207.336108 -439.886506 
L 210.053742 -443.984933 
L 212.70402 -448.083361 
L 215.228207 -452.181789 
L 217.583763 -456.280216 
L 219.744283 -460.378644 
L 221.697548 -464.477072 
L 223.442303 -468.575499 
L 224.984462 -472.673927 
L 226.333517 -476.772355 
L 227.499753 -480.870782 
L 228.492667 -484.96921 
L 229.320693 -489.067638 
L 229.992034 -493.166065 
L 230.516206 -497.264493 
L 230.905747 -501.362921 
L 231.177553 -505.461348 
L 231.353438 -509.559776 
L 231.459655 -513.658204 
L 231.525406 -517.756631 
L 231.580554 -521.855059 
L 231.652929 -525.953486 
L 231.765693 -530.051914 
L 231.93521 -534.150342 
L 232.169776 -538.248769 
L 232.46937 -542.347197 
L 232.826434 -546.445625 
L 233.22749 -550.544052 
L 233.655302 -554.64248 
L 234.091212 -558.740908 
L 234.517322 -562.839335 
L 234.918245 -566.937763 
L 235.282256 -571.036191 
L 235.601806 -575.134618 
L 235.873457 -579.233046 
L 236.097364 -583.331474 
L 236.276485 -587.429901 
L 236.415671 -591.528329 
L 237.109329 -591.528329 
L 237.109329 -591.528329 
L 237.248515 -587.429901 
L 237.427636 -583.331474 
L 237.651543 -579.233046 
L 237.923194 -575.134618 
L 238.242744 -571.036191 
L 238.606755 -566.937763 
L 239.007678 -562.839335 
L 239.433788 -558.740908 
L 239.869698 -554.64248 
L 240.29751 -550.544052 
L 240.698566 -546.445625 
L 241.05563 -542.347197 
L 241.355224 -538.248769 
L 241.58979 -534.150342 
L 241.759307 -530.051914 
L 241.872071 -525.953486 
L 241.944446 -521.855059 
L 241.999594 -517.756631 
L 242.065345 -513.658204 
L 242.171562 -509.559776 
L 242.347447 -505.461348 
L 242.619253 -501.362921 
L 243.008794 -497.264493 
L 243.532966 -493.166065 
L 244.204307 -489.067638 
L 245.032333 -484.96921 
L 246.025247 -480.870782 
L 247.191483 -476.772355 
L 248.540538 -472.673927 
L 250.082697 -468.575499 
L 251.827452 -464.477072 
L 253.780717 -460.378644 
L 255.941237 -456.280216 
L 258.296793 -452.181789 
L 260.82098 -448.083361 
L 263.471258 -443.984933 
L 266.188892 -439.886506 
L 268.901056 -435.788078 
L 271.525087 -431.68965 
L 273.974504 -427.591223 
L 276.166108 -423.492795 
L 278.027281 -419.394367 
L 279.502549 -415.29594 
L 280.558523 -411.197512 
L 281.186521 -407.099084 
L 281.4025 -403.000657 
L 281.244233 -398.902229 
L 280.766075 -394.803802 
L 280.031993 -390.705374 
L 279.107807 -386.606946 
L 278.053734 -382.508519 
L 276.9183 -378.410091 
L 275.734493 -374.311663 
L 274.518666 -370.213236 
L 273.272206 -366.114808 
L 271.985518 -362.01638 
L 270.643431 -357.917953 
L 269.230925 -353.819525 
L 267.738049 -349.721097 
L 266.163167 -345.62267 
L 264.514079 -341.524242 
L 262.807061 -337.425814 
L 261.064309 -333.327387 
L 259.31059 -329.228959 
L 257.569958 -325.130531 
L 255.863269 -321.032104 
L 254.206929 -316.933676 
L 252.612932 -312.835248 
L 251.089944 -308.736821 
L 249.644925 -304.638393 
L 248.284736 -300.539965 
L 247.017249 -296.441538 
L 245.851661 -292.34311 
L 244.797926 -288.244682 
L 243.865455 -284.146255 
L 243.061392 -280.047827 
L 242.388839 -275.9494 
L 241.845431 -271.850972 
L 241.422541 -267.752544 
L 241.10533 -263.654117 
L 240.87366 -259.555689 
L 240.70376 -255.457261 
L 240.570434 -251.358834 
L 240.449461 -247.260406 
L 240.319874 -243.161978 
L 240.165779 -239.063551 
L 239.977475 -234.965123 
L 239.751768 -230.866695 
L 239.491468 -226.768268 
L 239.204224 -222.66984 
L 238.900916 -218.571412 
L 238.593876 -214.472985 
L 238.295213 -210.374557 
L 238.015452 -206.276129 
L 237.762613 -202.177702 
L 237.541788 -198.079274 
L 237.355158 -193.980846 
L 237.202358 -189.882419 
L 237.081053 -185.783991 
z
" style="stroke: #3d3d3d; stroke-opacity: 0.5"/>
    </defs>
    <g clip-path="url(#pf60399628c)">
     <use xlink:href="#m2381440bde" x="0" y="722.183991" style="fill: #d684bd; fill-opacity: 0.5; stroke: #3d3d3d; stroke-opacity: 0.5"/>
    </g>
   </g>
   <g id="PolyCollection_3">
    <defs>
     <path id="macb7f74692" d="M 348.671092 -333.148268 
L 348.053908 -333.148268 
L 347.944482 -336.227473 
L 347.805446 -339.306678 
L 347.631876 -342.385883 
L 347.418854 -345.465089 
L 347.161661 -348.544294 
L 346.855952 -351.623499 
L 346.49791 -354.702704 
L 346.084344 -357.781909 
L 345.612728 -360.861114 
L 345.081183 -363.940319 
L 344.488376 -367.019524 
L 343.83338 -370.098729 
L 343.11549 -373.177934 
L 342.334026 -376.257139 
L 341.488132 -379.336344 
L 340.576612 -382.415549 
L 339.597787 -385.494754 
L 338.549415 -388.573959 
L 337.42865 -391.653164 
L 336.232074 -394.732369 
L 334.955795 -397.811574 
L 333.595631 -400.890779 
L 332.147408 -403.969984 
L 330.607411 -407.049189 
L 328.973007 -410.128394 
L 327.24348 -413.2076 
L 325.42106 -416.286805 
L 323.512118 -419.36601 
L 321.528407 -422.445215 
L 319.488194 -425.52442 
L 317.417066 -428.603625 
L 315.348148 -431.68283 
L 313.32152 -434.762035 
L 311.38266 -437.84124 
L 309.57988 -440.920445 
L 307.960871 -443.99965 
L 306.568664 -447.078855 
L 305.437478 -450.15806 
L 304.588991 -453.237265 
L 304.029639 -456.31647 
L 303.749418 -459.395675 
L 303.7225 -462.47488 
L 303.909712 -465.554085 
L 304.262663 -468.63329 
L 304.729009 -471.712495 
L 305.258189 -474.7917 
L 305.806856 -477.870905 
L 306.343251 -480.950111 
L 306.849957 -484.029316 
L 307.324659 -487.108521 
L 307.778877 -490.187726 
L 308.234891 -493.266931 
L 308.721378 -496.346136 
L 309.268401 -499.425341 
L 309.90251 -502.504546 
L 310.642633 -505.583751 
L 311.49731 -508.662956 
L 312.463593 -511.742161 
L 313.527688 -514.821366 
L 314.667137 -517.900571 
L 315.854127 -520.979776 
L 317.059386 -524.058981 
L 318.256038 -527.138186 
L 319.422866 -530.217391 
L 320.546542 -533.296596 
L 321.622573 -536.375801 
L 322.65493 -539.455006 
L 323.654518 -542.534211 
L 324.636814 -545.613416 
L 325.61908 -548.692622 
L 326.617615 -551.771827 
L 327.645404 -554.851032 
L 328.710477 -557.930237 
L 329.815114 -561.009442 
L 330.955903 -564.088647 
L 332.124534 -567.167852 
L 333.309102 -570.247057 
L 334.495667 -573.326262 
L 335.669811 -576.405467 
L 336.81797 -579.484672 
L 337.928395 -582.563877 
L 338.991691 -585.643082 
L 340.000934 -588.722287 
L 340.951466 -591.801492 
L 341.840482 -594.880697 
L 342.666524 -597.959902 
L 343.42902 -601.039107 
L 344.127927 -604.118312 
L 344.763535 -607.197517 
L 345.336417 -610.276722 
L 345.84749 -613.355927 
L 346.298155 -616.435133 
L 346.690435 -619.514338 
L 347.02707 -622.593543 
L 347.311553 -625.672748 
L 347.548063 -628.751953 
L 347.741341 -631.831158 
L 347.896486 -634.910363 
L 348.018742 -637.989568 
L 348.706258 -637.989568 
L 348.706258 -637.989568 
L 348.828514 -634.910363 
L 348.983659 -631.831158 
L 349.176937 -628.751953 
L 349.413447 -625.672748 
L 349.69793 -622.593543 
L 350.034565 -619.514338 
L 350.426845 -616.435133 
L 350.87751 -613.355927 
L 351.388583 -610.276722 
L 351.961465 -607.197517 
L 352.597073 -604.118312 
L 353.29598 -601.039107 
L 354.058476 -597.959902 
L 354.884518 -594.880697 
L 355.773534 -591.801492 
L 356.724066 -588.722287 
L 357.733309 -585.643082 
L 358.796605 -582.563877 
L 359.90703 -579.484672 
L 361.055189 -576.405467 
L 362.229333 -573.326262 
L 363.415898 -570.247057 
L 364.600466 -567.167852 
L 365.769097 -564.088647 
L 366.909886 -561.009442 
L 368.014523 -557.930237 
L 369.079596 -554.851032 
L 370.107385 -551.771827 
L 371.10592 -548.692622 
L 372.088186 -545.613416 
L 373.070482 -542.534211 
L 374.07007 -539.455006 
L 375.102427 -536.375801 
L 376.178458 -533.296596 
L 377.302134 -530.217391 
L 378.468962 -527.138186 
L 379.665614 -524.058981 
L 380.870873 -520.979776 
L 382.057863 -517.900571 
L 383.197312 -514.821366 
L 384.261407 -511.742161 
L 385.22769 -508.662956 
L 386.082367 -505.583751 
L 386.82249 -502.504546 
L 387.456599 -499.425341 
L 388.003622 -496.346136 
L 388.490109 -493.266931 
L 388.946123 -490.187726 
L 389.400341 -487.108521 
L 389.875043 -484.029316 
L 390.381749 -480.950111 
L 390.918144 -477.870905 
L 391.466811 -474.7917 
L 391.995991 -471.712495 
L 392.462337 -468.63329 
L 392.815288 -465.554085 
L 393.0025 -462.47488 
L 392.975582 -459.395675 
L 392.695361 -456.31647 
L 392.136009 -453.237265 
L 391.287522 -450.15806 
L 390.156336 -447.078855 
L 388.764129 -443.99965 
L 387.14512 -440.920445 
L 385.34234 -437.84124 
L 383.40348 -434.762035 
L 381.376852 -431.68283 
L 379.307934 -428.603625 
L 377.236806 -425.52442 
L 375.196593 -422.445215 
L 373.212882 -419.36601 
L 371.30394 -416.286805 
L 369.48152 -413.2076 
L 367.751993 -410.128394 
L 366.117589 -407.049189 
L 364.577592 -403.969984 
L 363.129369 -400.890779 
L 361.769205 -397.811574 
L 360.492926 -394.732369 
L 359.29635 -391.653164 
L 358.175585 -388.573959 
L 357.127213 -385.494754 
L 356.148388 -382.415549 
L 355.236868 -379.336344 
L 354.390974 -376.257139 
L 353.60951 -373.177934 
L 352.89162 -370.098729 
L 352.236624 -367.019524 
L 351.643817 -363.940319 
L 351.112272 -360.861114 
L 350.640656 -357.781909 
L 350.22709 -354.702704 
L 349.869048 -351.623499 
L 349.563339 -348.544294 
L 349.306146 -345.465089 
L 349.093124 -342.385883 
L 348.919554 -339.306678 
L 348.780518 -336.227473 
L 348.671092 -333.148268 
z
" style="stroke: #3d3d3d; stroke-opacity: 0.5"/>
    </defs>
    <g clip-path="url(#pf60399628c)">
     <use xlink:href="#macb7f74692" x="0" y="722.183991" style="fill: #c03d3e; fill-opacity: 0.5; stroke: #3d3d3d; stroke-opacity: 0.5"/>
    </g>
   </g>
   <g id="PolyCollection_4">
    <defs>
     <path id="m141bca4974" d="M 460.242557 -309.009153 
L 459.682443 -309.009153 
L 459.570313 -312.855364 
L 459.424337 -316.701574 
L 459.238223 -320.547785 
L 459.005457 -324.393995 
L 458.719321 -328.240206 
L 458.372756 -332.086416 
L 457.958034 -335.932627 
L 457.466228 -339.778837 
L 456.886524 -343.625048 
L 456.205481 -347.471258 
L 455.406414 -351.317469 
L 454.469101 -355.163679 
L 453.370047 -359.00989 
L 452.083509 -362.8561 
L 450.583412 -366.702311 
L 448.846162 -370.548521 
L 446.854227 -374.394732 
L 444.600182 -378.240942 
L 442.090744 -382.087153 
L 439.35023 -385.933363 
L 436.422787 -389.779574 
L 433.372822 -393.625784 
L 430.2832 -397.471994 
L 427.251025 -401.318205 
L 424.381189 -405.164415 
L 421.778212 -409.010626 
L 419.537238 -412.856836 
L 417.735264 -416.703047 
L 416.423719 -420.549257 
L 415.623408 -424.395468 
L 415.3225 -428.241678 
L 415.477834 -432.087889 
L 416.019388 -435.934099 
L 416.85733 -439.78031 
L 417.890805 -443.62652 
L 419.017489 -447.472731 
L 420.142906 -451.318941 
L 421.188661 -455.165152 
L 422.098849 -459.011362 
L 422.844125 -462.857573 
L 423.423087 -466.703783 
L 423.860841 -470.549994 
L 424.204856 -474.396204 
L 424.518466 -478.242415 
L 424.872684 -482.088625 
L 425.337234 -485.934836 
L 425.971886 -489.781046 
L 426.819186 -493.627257 
L 427.899547 -497.473467 
L 429.209295 -501.319677 
L 430.721878 -505.165888 
L 432.391892 -509.012098 
L 434.161219 -512.858309 
L 435.966262 -516.704519 
L 437.745189 -520.55073 
L 439.444222 -524.39694 
L 441.022247 -528.243151 
L 442.453396 -532.089361 
L 443.727578 -535.935572 
L 444.849221 -539.781782 
L 445.834679 -543.627993 
L 446.708796 -547.474203 
L 447.501135 -551.320414 
L 448.242266 -555.166624 
L 448.960434 -559.012835 
L 449.678842 -562.859045 
L 450.413684 -566.705256 
L 451.173039 -570.551466 
L 451.956642 -574.397677 
L 452.75652 -578.243887 
L 453.558379 -582.090098 
L 454.343567 -585.936308 
L 455.091398 -589.782519 
L 455.781552 -593.628729 
L 456.396295 -597.47494 
L 456.922298 -601.32115 
L 457.351889 -605.16736 
L 457.683645 -609.013571 
L 457.922338 -612.859781 
L 458.078269 -616.705992 
L 458.166126 -620.552202 
L 458.203491 -624.398413 
L 458.209164 -628.244623 
L 458.201481 -632.090834 
L 458.196779 -635.937044 
L 458.20816 -639.783255 
L 458.244669 -643.629465 
L 458.310951 -647.475676 
L 458.407399 -651.321886 
L 458.530737 -655.168097 
L 458.674927 -659.014307 
L 458.832266 -662.860518 
L 458.994501 -666.706728 
L 459.153826 -670.552939 
L 459.303647 -674.399149 
L 459.439051 -678.24536 
L 459.556992 -682.09157 
L 459.656202 -685.937781 
L 459.736921 -689.783991 
L 460.188079 -689.783991 
L 460.188079 -689.783991 
L 460.268798 -685.937781 
L 460.368008 -682.09157 
L 460.485949 -678.24536 
L 460.621353 -674.399149 
L 460.771174 -670.552939 
L 460.930499 -666.706728 
L 461.092734 -662.860518 
L 461.250073 -659.014307 
L 461.394263 -655.168097 
L 461.517601 -651.321886 
L 461.614049 -647.475676 
L 461.680331 -643.629465 
L 461.71684 -639.783255 
L 461.728221 -635.937044 
L 461.723519 -632.090834 
L 461.715836 -628.244623 
L 461.721509 -624.398413 
L 461.758874 -620.552202 
L 461.846731 -616.705992 
L 462.002662 -612.859781 
L 462.241355 -609.013571 
L 462.573111 -605.16736 
L 463.002702 -601.32115 
L 463.528705 -597.47494 
L 464.143448 -593.628729 
L 464.833602 -589.782519 
L 465.581433 -585.936308 
L 466.366621 -582.090098 
L 467.16848 -578.243887 
L 467.968358 -574.397677 
L 468.751961 -570.551466 
L 469.511316 -566.705256 
L 470.246158 -562.859045 
L 470.964566 -559.012835 
L 471.682734 -555.166624 
L 472.423865 -551.320414 
L 473.216204 -547.474203 
L 474.090321 -543.627993 
L 475.075779 -539.781782 
L 476.197422 -535.935572 
L 477.471604 -532.089361 
L 478.902753 -528.243151 
L 480.480778 -524.39694 
L 482.179811 -520.55073 
L 483.958738 -516.704519 
L 485.763781 -512.858309 
L 487.533108 -509.012098 
L 489.203122 -505.165888 
L 490.715705 -501.319677 
L 492.025453 -497.473467 
L 493.105814 -493.627257 
L 493.953114 -489.781046 
L 494.587766 -485.934836 
L 495.052316 -482.088625 
L 495.406534 -478.242415 
L 495.720144 -474.396204 
L 496.064159 -470.549994 
L 496.501913 -466.703783 
L 497.080875 -462.857573 
L 497.826151 -459.011362 
L 498.736339 -455.165152 
L 499.782094 -451.318941 
L 500.907511 -447.472731 
L 502.034195 -443.62652 
L 503.06767 -439.78031 
L 503.905612 -435.934099 
L 504.447166 -432.087889 
L 504.6025 -428.241678 
L 504.301592 -424.395468 
L 503.501281 -420.549257 
L 502.189736 -416.703047 
L 500.387762 -412.856836 
L 498.146788 -409.010626 
L 495.543811 -405.164415 
L 492.673975 -401.318205 
L 489.6418 -397.471994 
L 486.552178 -393.625784 
L 483.502213 -389.779574 
L 480.57477 -385.933363 
L 477.834256 -382.087153 
L 475.324818 -378.240942 
L 473.070773 -374.394732 
L 471.078838 -370.548521 
L 469.341588 -366.702311 
L 467.841491 -362.8561 
L 466.554953 -359.00989 
L 465.455899 -355.163679 
L 464.518586 -351.317469 
L 463.719519 -347.471258 
L 463.038476 -343.625048 
L 462.458772 -339.778837 
L 461.966966 -335.932627 
L 461.552244 -332.086416 
L 461.205679 -328.240206 
L 460.919543 -324.393995 
L 460.686777 -320.547785 
L 460.500663 -316.701574 
L 460.354687 -312.855364 
L 460.242557 -309.009153 
z
" style="stroke: #3d3d3d; stroke-opacity: 0.5"/>
    </defs>
    <g clip-path="url(#pf60399628c)">
     <use xlink:href="#m141bca4974" x="0" y="722.183991" style="fill: #9372b2; fill-opacity: 0.5; stroke: #3d3d3d; stroke-opacity: 0.5"/>
    </g>
   </g>
   <g id="PolyCollection_5">
    <defs>
     <path id="mf4ec2a3fee" d="M 572.003123 -305.869579 
L 571.121877 -305.869579 
L 570.949851 -309.227623 
L 570.723587 -312.585668 
L 570.430843 -315.943712 
L 570.05821 -319.301757 
L 569.591483 -322.659802 
L 569.016211 -326.017846 
L 568.318406 -329.375891 
L 567.485406 -332.733935 
L 566.506855 -336.09198 
L 565.375746 -339.450024 
L 564.089439 -342.808069 
L 562.650567 -346.166113 
L 561.067701 -349.524158 
L 559.355666 -352.882202 
L 557.535414 -356.240247 
L 555.63337 -359.598291 
L 553.680248 -362.956336 
L 551.709374 -366.31438 
L 549.754625 -369.672425 
L 547.848155 -373.030469 
L 546.018146 -376.388514 
L 544.286806 -379.746558 
L 542.668873 -383.104603 
L 541.170816 -386.462647 
L 539.790854 -389.820692 
L 538.519846 -393.178736 
L 537.34297 -396.536781 
L 536.242034 -399.894826 
L 535.198172 -403.25287 
L 534.194617 -406.610915 
L 533.219216 -409.968959 
L 532.266395 -413.327004 
L 531.338308 -416.685048 
L 530.445015 -420.043093 
L 529.603633 -423.401137 
L 528.836547 -426.759182 
L 528.168869 -430.117226 
L 527.625441 -433.475271 
L 527.227747 -436.833315 
L 526.991105 -440.19136 
L 526.9225 -443.549404 
L 527.019325 -446.907449 
L 527.269211 -450.265493 
L 527.650975 -453.623538 
L 528.136611 -456.981582 
L 528.694101 -460.339627 
L 529.290758 -463.697671 
L 529.896743 -467.055716 
L 530.488366 -470.413761 
L 531.050821 -473.771805 
L 531.580026 -477.12985 
L 532.083363 -480.487894 
L 532.579165 -483.845939 
L 533.094978 -487.203983 
L 533.664731 -490.562028 
L 534.32508 -493.920072 
L 535.111309 -497.278117 
L 536.053239 -500.636161 
L 537.171612 -503.994206 
L 538.475383 -507.35225 
L 539.960245 -510.710295 
L 541.608574 -514.068339 
L 543.390784 -517.426384 
L 545.267926 -520.784428 
L 547.195194 -524.142473 
L 549.125887 -527.500517 
L 551.015355 -530.858562 
L 552.824462 -534.216606 
L 554.522199 -537.574651 
L 556.08723 -540.932695 
L 557.508283 -544.29074 
L 558.783493 -547.648785 
L 559.91891 -551.006829 
L 560.926463 -554.364874 
L 561.821729 -557.722918 
L 562.621799 -561.080963 
L 563.343489 -564.439007 
L 564.002027 -567.797052 
L 564.610281 -571.155096 
L 565.178457 -574.513141 
L 565.714182 -577.871185 
L 566.222824 -581.22923 
L 566.707911 -584.587274 
L 567.171555 -587.945319 
L 567.614795 -591.303363 
L 568.037859 -594.661408 
L 568.440337 -598.019452 
L 568.82132 -601.377497 
L 569.179518 -604.735541 
L 569.513406 -608.093586 
L 569.821401 -611.45163 
L 570.102063 -614.809675 
L 570.354294 -618.16772 
L 570.57752 -621.525764 
L 570.771812 -624.883809 
L 570.937944 -628.241853 
L 571.077371 -631.599898 
L 571.192135 -634.957942 
L 571.28473 -638.315987 
L 571.84027 -638.315987 
L 571.84027 -638.315987 
L 571.932865 -634.957942 
L 572.047629 -631.599898 
L 572.187056 -628.241853 
L 572.353188 -624.883809 
L 572.54748 -621.525764 
L 572.770706 -618.16772 
L 573.022937 -614.809675 
L 573.303599 -611.45163 
L 573.611594 -608.093586 
L 573.945482 -604.735541 
L 574.30368 -601.377497 
L 574.684663 -598.019452 
L 575.087141 -594.661408 
L 575.510205 -591.303363 
L 575.953445 -587.945319 
L 576.417089 -584.587274 
L 576.902176 -581.22923 
L 577.410818 -577.871185 
L 577.946543 -574.513141 
L 578.514719 -571.155096 
L 579.122973 -567.797052 
L 579.781511 -564.439007 
L 580.503201 -561.080963 
L 581.303271 -557.722918 
L 582.198537 -554.364874 
L 583.20609 -551.006829 
L 584.341507 -547.648785 
L 585.616717 -544.29074 
L 587.03777 -540.932695 
L 588.602801 -537.574651 
L 590.300538 -534.216606 
L 592.109645 -530.858562 
L 593.999113 -527.500517 
L 595.929806 -524.142473 
L 597.857074 -520.784428 
L 599.734216 -517.426384 
L 601.516426 -514.068339 
L 603.164755 -510.710295 
L 604.649617 -507.35225 
L 605.953388 -503.994206 
L 607.071761 -500.636161 
L 608.013691 -497.278117 
L 608.79992 -493.920072 
L 609.460269 -490.562028 
L 610.030022 -487.203983 
L 610.545835 -483.845939 
L 611.041637 -480.487894 
L 611.544974 -477.12985 
L 612.074179 -473.771805 
L 612.636634 -470.413761 
L 613.228257 -467.055716 
L 613.834242 -463.697671 
L 614.430899 -460.339627 
L 614.988389 -456.981582 
L 615.474025 -453.623538 
L 615.855789 -450.265493 
L 616.105675 -446.907449 
L 616.2025 -443.549404 
L 616.133895 -440.19136 
L 615.897253 -436.833315 
L 615.499559 -433.475271 
L 614.956131 -430.117226 
L 614.288453 -426.759182 
L 613.521367 -423.401137 
L 612.679985 -420.043093 
L 611.786692 -416.685048 
L 610.858605 -413.327004 
L 609.905784 -409.968959 
L 608.930383 -406.610915 
L 607.926828 -403.25287 
L 606.882966 -399.894826 
L 605.78203 -396.536781 
L 604.605154 -393.178736 
L 603.334146 -389.820692 
L 601.954184 -386.462647 
L 600.456127 -383.104603 
L 598.838194 -379.746558 
L 597.106854 -376.388514 
L 595.276845 -373.030469 
L 593.370375 -369.672425 
L 591.415626 -366.31438 
L 589.444752 -362.956336 
L 587.49163 -359.598291 
L 585.589586 -356.240247 
L 583.769334 -352.882202 
L 582.057299 -349.524158 
L 580.474433 -346.166113 
L 579.035561 -342.808069 
L 577.749254 -339.450024 
L 576.618145 -336.09198 
L 575.639594 -332.733935 
L 574.806594 -329.375891 
L 574.108789 -326.017846 
L 573.533517 -322.659802 
L 573.06679 -319.301757 
L 572.694157 -315.943712 
L 572.401413 -312.585668 
L 572.175149 -309.227623 
L 572.003123 -305.869579 
z
" style="stroke: #3d3d3d; stroke-opacity: 0.5"/>
    </defs>
    <g clip-path="url(#pf60399628c)">
     <use xlink:href="#mf4ec2a3fee" x="0" y="722.183991" style="fill: #845b53; fill-opacity: 0.5; stroke: #3d3d3d; stroke-opacity: 0.5"/>
    </g>
   </g>
   <g id="PolyCollection_6">
    <defs>
     <path id="md0d4b389b2" d="M 683.404864 -277.561594 
L 682.920136 -277.561594 
L 682.830556 -281.097033 
L 682.717435 -284.632472 
L 682.577891 -288.167912 
L 682.409541 -291.703351 
L 682.21061 -295.23879 
L 681.979934 -298.774229 
L 681.716837 -302.309669 
L 681.420912 -305.845108 
L 681.091724 -309.380547 
L 680.728535 -312.915986 
L 680.330124 -316.451426 
L 679.894768 -319.986865 
L 679.420435 -323.522304 
L 678.905158 -327.057743 
L 678.347501 -330.593183 
L 677.747005 -334.128622 
L 677.104429 -337.664061 
L 676.421679 -341.1995 
L 675.701326 -344.734939 
L 674.945745 -348.270379 
L 674.156001 -351.805818 
L 673.330672 -355.341257 
L 672.464894 -358.876696 
L 671.549852 -362.412136 
L 670.572927 -365.947575 
L 669.518563 -369.483014 
L 668.369802 -373.018453 
L 667.110314 -376.553893 
L 665.726628 -380.089332 
L 664.21025 -383.624771 
L 662.559362 -387.16021 
L 660.779859 -390.695649 
L 658.885607 -394.231089 
L 656.897954 -397.766528 
L 654.844635 -401.301967 
L 652.758331 -404.837406 
L 650.675173 -408.372846 
L 648.633434 -411.908285 
L 646.672599 -415.443724 
L 644.832781 -418.979163 
L 643.154375 -422.514603 
L 641.677632 -426.050042 
L 640.44186 -429.585481 
L 639.483935 -433.12092 
L 638.836009 -436.65636 
L 638.5225 -440.191799 
L 638.556708 -443.727238 
L 638.937605 -447.262677 
L 639.647465 -450.798116 
L 640.650963 -454.333556 
L 641.896196 -457.868995 
L 643.317781 -461.404434 
L 644.841852 -464.939873 
L 646.392406 -468.475313 
L 647.898232 -472.010752 
L 649.299517 -475.546191 
L 650.553257 -479.08163 
L 651.636811 -482.61707 
L 652.54919 -486.152509 
L 653.310004 -489.687948 
L 653.956314 -493.223387 
L 654.537855 -496.758827 
L 655.111257 -500.294266 
L 655.733941 -503.829705 
L 656.458318 -507.365144 
L 657.32682 -510.900583 
L 658.368165 -514.436023 
L 659.595098 -517.971462 
L 661.003703 -521.506901 
L 662.574239 -525.04234 
L 664.273351 -528.57778 
L 666.057353 -532.113219 
L 667.876252 -535.648658 
L 669.6781 -539.184097 
L 671.413237 -542.719537 
L 673.038063 -546.254976 
L 674.517996 -549.790415 
L 675.829403 -553.325854 
L 676.960404 -556.861294 
L 677.910553 -560.396733 
L 678.689534 -563.932172 
L 679.315091 -567.467611 
L 679.810464 -571.00305 
L 680.201639 -574.53849 
L 680.514719 -578.073929 
L 680.773671 -581.609368 
L 680.998637 -585.144807 
L 681.204934 -588.680247 
L 681.402742 -592.215686 
L 681.597411 -595.751125 
L 681.790259 -599.286564 
L 681.979649 -602.822004 
L 682.162183 -606.357443 
L 682.333812 -609.892882 
L 682.490748 -613.428321 
L 682.630091 -616.963761 
L 682.750162 -620.4992 
L 682.850572 -624.034639 
L 682.932077 -627.570078 
L 683.392923 -627.570078 
L 683.392923 -627.570078 
L 683.474428 -624.034639 
L 683.574838 -620.4992 
L 683.694909 -616.963761 
L 683.834252 -613.428321 
L 683.991188 -609.892882 
L 684.162817 -606.357443 
L 684.345351 -602.822004 
L 684.534741 -599.286564 
L 684.727589 -595.751125 
L 684.922258 -592.215686 
L 685.120066 -588.680247 
L 685.326363 -585.144807 
L 685.551329 -581.609368 
L 685.810281 -578.073929 
L 686.123361 -574.53849 
L 686.514536 -571.00305 
L 687.009909 -567.467611 
L 687.635466 -563.932172 
L 688.414447 -560.396733 
L 689.364596 -556.861294 
L 690.495597 -553.325854 
L 691.807004 -549.790415 
L 693.286937 -546.254976 
L 694.911763 -542.719537 
L 696.6469 -539.184097 
L 698.448748 -535.648658 
L 700.267647 -532.113219 
L 702.051649 -528.57778 
L 703.750761 -525.04234 
L 705.321297 -521.506901 
L 706.729902 -517.971462 
L 707.956835 -514.436023 
L 708.99818 -510.900583 
L 709.866682 -507.365144 
L 710.591059 -503.829705 
L 711.213743 -500.294266 
L 711.787145 -496.758827 
L 712.368686 -493.223387 
L 713.014996 -489.687948 
L 713.77581 -486.152509 
L 714.688189 -482.61707 
L 715.771743 -479.08163 
L 717.025483 -475.546191 
L 718.426768 -472.010752 
L 719.932594 -468.475313 
L 721.483148 -464.939873 
L 723.007219 -461.404434 
L 724.428804 -457.868995 
L 725.674037 -454.333556 
L 726.677535 -450.798116 
L 727.387395 -447.262677 
L 727.768292 -443.727238 
L 727.8025 -440.191799 
L 727.488991 -436.65636 
L 726.841065 -433.12092 
L 725.88314 -429.585481 
L 724.647368 -426.050042 
L 723.170625 -422.514603 
L 721.492219 -418.979163 
L 719.652401 -415.443724 
L 717.691566 -411.908285 
L 715.649827 -408.372846 
L 713.566669 -404.837406 
L 711.480365 -401.301967 
L 709.427046 -397.766528 
L 707.439393 -394.231089 
L 705.545141 -390.695649 
L 703.765638 -387.16021 
L 702.11475 -383.624771 
L 700.598372 -380.089332 
L 699.214686 -376.553893 
L 697.955198 -373.018453 
L 696.806437 -369.483014 
L 695.752073 -365.947575 
L 694.775148 -362.412136 
L 693.860106 -358.876696 
L 692.994328 -355.341257 
L 692.168999 -351.805818 
L 691.379255 -348.270379 
L 690.623674 -344.734939 
L 689.903321 -341.1995 
L 689.220571 -337.664061 
L 688.577995 -334.128622 
L 687.977499 -330.593183 
L 687.419842 -327.057743 
L 686.904565 -323.522304 
L 686.430232 -319.986865 
L 685.994876 -316.451426 
L 685.596465 -312.915986 
L 685.233276 -309.380547 
L 684.904088 -305.845108 
L 684.608163 -302.309669 
L 684.345066 -298.774229 
L 684.11439 -295.23879 
L 683.915459 -291.703351 
L 683.747109 -288.167912 
L 683.607565 -284.632472 
L 683.494444 -281.097033 
L 683.404864 -277.561594 
z
" style="stroke: #3d3d3d; stroke-opacity: 0.5"/>
    </defs>
    <g clip-path="url(#pf60399628c)">
     <use xlink:href="#md0d4b389b2" x="0" y="722.183991" style="fill: #e1812c; fill-opacity: 0.5; stroke: #3d3d3d; stroke-opacity: 0.5"/>
    </g>
   </g>
   <g id="PolyCollection_7">
    <defs>
     <path id="m2c7f7fbd6c" d="M 794.996618 -242.147277 
L 794.528382 -242.147277 
L 794.448305 -245.711075 
L 794.350508 -249.274873 
L 794.234623 -252.838671 
L 794.101543 -256.402469 
L 793.953643 -259.966267 
L 793.794852 -263.530065 
L 793.630507 -267.093863 
L 793.466972 -270.657661 
L 793.311004 -274.221459 
L 793.168912 -277.785257 
L 793.045579 -281.349055 
L 792.943475 -284.912853 
L 792.86176 -288.476651 
L 792.795633 -292.040449 
L 792.736008 -295.604247 
L 792.669587 -299.168045 
L 792.579359 -302.731843 
L 792.445469 -306.295641 
L 792.24642 -309.859439 
L 791.96047 -313.423237 
L 791.567138 -316.987034 
L 791.048679 -320.550832 
L 790.391417 -324.11463 
L 789.586804 -327.678428 
L 788.632116 -331.242226 
L 787.53066 -334.806024 
L 786.291435 -338.369822 
L 784.928193 -341.93362 
L 783.457933 -345.497418 
L 781.898932 -349.061216 
L 780.268525 -352.625014 
L 778.580943 -356.188812 
L 776.845576 -359.75261 
L 775.066051 -363.316408 
L 773.240463 -366.880206 
L 771.36292 -370.444004 
L 769.426388 -374.007802 
L 767.426524 -377.5716 
L 765.365967 -381.135398 
L 763.258351 -384.699196 
L 761.131219 -388.262994 
L 759.027127 -391.826792 
L 757.002417 -395.39059 
L 755.12353 -398.954388 
L 753.461127 -402.518186 
L 752.082742 -406.081984 
L 751.044974 -409.645782 
L 750.386422 -413.20958 
L 750.1225 -416.773378 
L 750.243023 -420.337176 
L 750.713024 -423.900974 
L 751.476743 -427.464772 
L 752.4642 -431.02857 
L 753.599343 -434.592368 
L 754.808513 -438.156166 
L 756.027938 -441.719964 
L 757.209168 -445.283762 
L 758.321779 -448.84756 
L 759.353129 -452.411358 
L 760.305514 -455.975156 
L 761.191475 -459.538954 
L 762.028297 -463.102752 
L 762.832801 -466.66655 
L 763.6174 -470.230348 
L 764.388058 -473.794146 
L 765.14438 -477.357944 
L 765.881606 -480.921742 
L 766.593922 -484.48554 
L 767.278226 -488.049338 
L 767.937462 -491.613136 
L 768.582727 -495.176934 
L 769.233633 -498.740732 
L 769.916803 -502.30453 
L 770.662718 -505.868328 
L 771.501503 -509.432126 
L 772.458403 -512.995924 
L 773.549773 -516.559722 
L 774.780266 -520.12352 
L 776.141665 -523.687318 
L 777.613494 -527.251116 
L 779.165215 -530.814914 
L 780.759574 -534.378712 
L 782.356505 -537.94251 
L 783.916968 -541.506308 
L 785.406221 -545.070106 
L 786.796141 -548.633904 
L 788.066477 -552.197702 
L 789.205066 -555.7615 
L 790.207211 -559.325298 
L 791.074494 -562.889096 
L 791.813311 -566.452894 
L 792.433382 -570.016692 
L 792.946405 -573.58049 
L 793.364963 -577.144288 
L 793.701707 -580.708086 
L 793.968788 -584.271884 
L 794.177507 -587.835682 
L 794.338108 -591.39948 
L 794.45968 -594.963278 
L 795.06532 -594.963278 
L 795.06532 -594.963278 
L 795.186892 -591.39948 
L 795.347493 -587.835682 
L 795.556212 -584.271884 
L 795.823293 -580.708086 
L 796.160037 -577.144288 
L 796.578595 -573.58049 
L 797.091618 -570.016692 
L 797.711689 -566.452894 
L 798.450506 -562.889096 
L 799.317789 -559.325298 
L 800.319934 -555.7615 
L 801.458523 -552.197702 
L 802.728859 -548.633904 
L 804.118779 -545.070106 
L 805.608032 -541.506308 
L 807.168495 -537.94251 
L 808.765426 -534.378712 
L 810.359785 -530.814914 
L 811.911506 -527.251116 
L 813.383335 -523.687318 
L 814.744734 -520.12352 
L 815.975227 -516.559722 
L 817.066597 -512.995924 
L 818.023497 -509.432126 
L 818.862282 -505.868328 
L 819.608197 -502.30453 
L 820.291367 -498.740732 
L 820.942273 -495.176934 
L 821.587538 -491.613136 
L 822.246774 -488.049338 
L 822.931078 -484.48554 
L 823.643394 -480.921742 
L 824.38062 -477.357944 
L 825.136942 -473.794146 
L 825.9076 -470.230348 
L 826.692199 -466.66655 
L 827.496703 -463.102752 
L 828.333525 -459.538954 
L 829.219486 -455.975156 
L 830.171871 -452.411358 
L 831.203221 -448.84756 
L 832.315832 -445.283762 
L 833.497062 -441.719964 
L 834.716487 -438.156166 
L 835.925657 -434.592368 
L 837.0608 -431.02857 
L 838.048257 -427.464772 
L 838.811976 -423.900974 
L 839.281977 -420.337176 
L 839.4025 -416.773378 
L 839.138578 -413.20958 
L 838.480026 -409.645782 
L 837.442258 -406.081984 
L 836.063873 -402.518186 
L 834.40147 -398.954388 
L 832.522583 -395.39059 
L 830.497873 -391.826792 
L 828.393781 -388.262994 
L 826.266649 -384.699196 
L 824.159033 -381.135398 
L 822.098476 -377.5716 
L 820.098612 -374.007802 
L 818.16208 -370.444004 
L 816.284537 -366.880206 
L 814.458949 -363.316408 
L 812.679424 -359.75261 
L 810.944057 -356.188812 
L 809.256475 -352.625014 
L 807.626068 -349.061216 
L 806.067067 -345.497418 
L 804.596807 -341.93362 
L 803.233565 -338.369822 
L 801.99434 -334.806024 
L 800.892884 -331.242226 
L 799.938196 -327.678428 
L 799.133583 -324.11463 
L 798.476321 -320.550832 
L 797.957862 -316.987034 
L 797.56453 -313.423237 
L 797.27858 -309.859439 
L 797.079531 -306.295641 
L 796.945641 -302.731843 
L 796.855413 -299.168045 
L 796.788992 -295.604247 
L 796.729367 -292.040449 
L 796.66324 -288.476651 
L 796.581525 -284.912853 
L 796.479421 -281.349055 
L 796.356088 -277.785257 
L 796.213996 -274.221459 
L 796.058028 -270.657661 
L 795.894493 -267.093863 
L 795.730148 -263.530065 
L 795.571357 -259.966267 
L 795.423457 -256.402469 
L 795.290377 -252.838671 
L 795.174492 -249.274873 
L 795.076695 -245.711075 
L 794.996618 -242.147277 
z
" style="stroke: #3d3d3d; stroke-opacity: 0.5"/>
    </defs>
    <g clip-path="url(#pf60399628c)">
     <use xlink:href="#m2c7f7fbd6c" x="0" y="722.183991" style="fill: #3a923a; fill-opacity: 0.5; stroke: #3d3d3d; stroke-opacity: 0.5"/>
    </g>
   </g>
   <g id="line2d_10">
    <path d="M 125.1625 375.858342 
L 125.1625 139.202168 
" clip-path="url(#pf60399628c)" style="fill: none; stroke: #3d3d3d; stroke-width: 1.5; stroke-linecap: round"/>
   </g>
   <g id="line2d_11">
    <path d="M 125.1625 286.256236 
L 125.1625 221.629265 
" clip-path="url(#pf60399628c)" style="fill: none; stroke: #3d3d3d; stroke-width: 4.5; stroke-linecap: round"/>
   </g>
   <g id="line2d_12">
    <path d="M 125.1625 256.670036 
" clip-path="url(#pf60399628c)" style="fill: none; stroke: #3d3d3d; stroke-width: 1.5; stroke-linecap: round"/>
    <defs>
     <path id="m056033ec84" d="M 1.875 0 
L -1.875 -0 
" style="stroke: #ffffff; stroke-width: 0.9"/>
    </defs>
    <g clip-path="url(#pf60399628c)">
     <use xlink:href="#m056033ec84" x="125.1625" y="256.670036" style="fill: #ffffff; stroke: #ffffff; stroke-width: 0.9"/>
    </g>
   </g>
   <g id="line2d_13">
    <path d="M 236.7625 431.97634 
L 236.7625 244.385102 
" clip-path="url(#pf60399628c)" style="fill: none; stroke: #3d3d3d; stroke-width: 1.5; stroke-linecap: round"/>
   </g>
   <g id="line2d_14">
    <path d="M 236.7625 366.413967 
L 236.7625 299.719591 
" clip-path="url(#pf60399628c)" style="fill: none; stroke: #3d3d3d; stroke-width: 4.5; stroke-linecap: round"/>
   </g>
   <g id="line2d_15">
    <path d="M 236.7625 327.693272 
" clip-path="url(#pf60399628c)" style="fill: none; stroke: #3d3d3d; stroke-width: 1.5; stroke-linecap: round"/>
    <g clip-path="url(#pf60399628c)">
     <use xlink:href="#m056033ec84" x="236.7625" y="327.693272" style="fill: #ffffff; stroke: #ffffff; stroke-width: 0.9"/>
    </g>
   </g>
   <g id="line2d_16">
    <path d="M 348.3625 345.739669 
L 348.3625 127.490477 
" clip-path="url(#pf60399628c)" style="fill: none; stroke: #3d3d3d; stroke-width: 1.5; stroke-linecap: round"/>
   </g>
   <g id="line2d_17">
    <path d="M 348.3625 270.275662 
L 348.3625 209.11883 
" clip-path="url(#pf60399628c)" style="fill: none; stroke: #3d3d3d; stroke-width: 4.5; stroke-linecap: round"/>
   </g>
   <g id="line2d_18">
    <path d="M 348.3625 238.912835 
" clip-path="url(#pf60399628c)" style="fill: none; stroke: #3d3d3d; stroke-width: 1.5; stroke-linecap: round"/>
    <g clip-path="url(#pf60399628c)">
     <use xlink:href="#m056033ec84" x="348.3625" y="238.912835" style="fill: #ffffff; stroke: #ffffff; stroke-width: 0.9"/>
    </g>
   </g>
   <g id="line2d_19">
    <path d="M 459.9625 364.868082 
L 459.9625 146.584461 
" clip-path="url(#pf60399628c)" style="fill: none; stroke: #3d3d3d; stroke-width: 1.5; stroke-linecap: round"/>
   </g>
   <g id="line2d_20">
    <path d="M 459.9625 301.28713 
L 459.9625 224.581718 
" clip-path="url(#pf60399628c)" style="fill: none; stroke: #3d3d3d; stroke-width: 4.5; stroke-linecap: round"/>
   </g>
   <g id="line2d_21">
    <path d="M 459.9625 269.260431 
" clip-path="url(#pf60399628c)" style="fill: none; stroke: #3d3d3d; stroke-width: 1.5; stroke-linecap: round"/>
    <g clip-path="url(#pf60399628c)">
     <use xlink:href="#m056033ec84" x="459.9625" y="269.260431" style="fill: #ffffff; stroke: #ffffff; stroke-width: 0.9"/>
    </g>
   </g>
   <g id="line2d_22">
    <path d="M 571.5625 369.180368 
L 571.5625 131.002048 
" clip-path="url(#pf60399628c)" style="fill: none; stroke: #3d3d3d; stroke-width: 1.5; stroke-linecap: round"/>
   </g>
   <g id="line2d_23">
    <path d="M 571.5625 308.201342 
L 571.5625 224.713102 
" clip-path="url(#pf60399628c)" style="fill: none; stroke: #3d3d3d; stroke-width: 4.5; stroke-linecap: round"/>
   </g>
   <g id="line2d_24">
    <path d="M 571.5625 277.081113 
" clip-path="url(#pf60399628c)" style="fill: none; stroke: #3d3d3d; stroke-width: 1.5; stroke-linecap: round"/>
    <g clip-path="url(#pf60399628c)">
     <use xlink:href="#m056033ec84" x="571.5625" y="277.081113" style="fill: #ffffff; stroke: #ffffff; stroke-width: 0.9"/>
    </g>
   </g>
   <g id="line2d_25">
    <path d="M 683.1625 399.471863 
L 683.1625 139.764447 
" clip-path="url(#pf60399628c)" style="fill: none; stroke: #3d3d3d; stroke-width: 1.5; stroke-linecap: round"/>
   </g>
   <g id="line2d_26">
    <path d="M 683.1625 303.848071 
L 683.1625 231.044577 
" clip-path="url(#pf60399628c)" style="fill: none; stroke: #3d3d3d; stroke-width: 4.5; stroke-linecap: round"/>
   </g>
   <g id="line2d_27">
    <path d="M 683.1625 276.05219 
" clip-path="url(#pf60399628c)" style="fill: none; stroke: #3d3d3d; stroke-width: 1.5; stroke-linecap: round"/>
    <g clip-path="url(#pf60399628c)">
     <use xlink:href="#m056033ec84" x="683.1625" y="276.05219" style="fill: #ffffff; stroke: #ffffff; stroke-width: 0.9"/>
    </g>
   </g>
   <g id="line2d_28">
    <path d="M 794.7625 379.161311 
L 794.7625 173.876787 
" clip-path="url(#pf60399628c)" style="fill: none; stroke: #3d3d3d; stroke-width: 1.5; stroke-linecap: round"/>
   </g>
   <g id="line2d_29">
    <path d="M 794.7625 318.348833 
L 794.7625 247.676717 
" clip-path="url(#pf60399628c)" style="fill: none; stroke: #3d3d3d; stroke-width: 4.5; stroke-linecap: round"/>
   </g>
   <g id="line2d_30">
    <path d="M 794.7625 294.728084 
" clip-path="url(#pf60399628c)" style="fill: none; stroke: #3d3d3d; stroke-width: 1.5; stroke-linecap: round"/>
    <g clip-path="url(#pf60399628c)">
     <use xlink:href="#m056033ec84" x="794.7625" y="294.728084" style="fill: #ffffff; stroke: #ffffff; stroke-width: 0.9"/>
    </g>
   </g>
   <g id="patch_3">
    <path d="M 69.3625 561.6 
L 850.5625 561.6 
" style="fill: none; stroke: #cccccc; stroke-width: 0.8; stroke-linejoin: miter; stroke-linecap: square"/>
   </g>
  </g>
 </g>
 <defs>
  <clipPath id="pf60399628c">
   <rect x="69.3625" y="7.2" width="781.2" height="554.4"/>
  </clipPath>
 </defs>
</svg>
