<?xml version="1.0" encoding="utf-8" standalone="no"?>
<!DOCTYPE svg PUBLIC "-//W3C//DTD SVG 1.1//EN"
  "http://www.w3.org/Graphics/SVG/1.1/DTD/svg11.dtd">
<svg xmlns:xlink="http://www.w3.org/1999/xlink" width="857.7625pt" height="722.183991pt" viewBox="0 0 857.7625 722.183991" xmlns="http://www.w3.org/2000/svg" version="1.1">
 <metadata>
  <rdf:RDF xmlns:dc="http://purl.org/dc/elements/1.1/" xmlns:cc="http://creativecommons.org/ns#" xmlns:rdf="http://www.w3.org/1999/02/22-rdf-syntax-ns#">
   <cc:Work>
    <dc:type rdf:resource="http://purl.org/dc/dcmitype/StillImage"/>
    <dc:date>2024-03-17T20:48:17.992956</dc:date>
    <dc:format>image/svg+xml</dc:format>
    <dc:creator>
     <cc:Agent>
      <dc:title>Matplotlib v3.8.0, https://matplotlib.org/</dc:title>
     </cc:Agent>
    </dc:creator>
   </cc:Work>
  </rdf:RDF>
 </metadata>
 <defs>
  <style type="text/css">*{stroke-linejoin: round; stroke-linecap: butt}</style>
 </defs>
 <g id="figure_1">
  <g id="patch_1">
   <path d="M 0 722.183991 
L 857.7625 722.183991 
L 857.7625 0 
L 0 0 
L 0 722.183991 
z
" style="fill: none"/>
  </g>
  <g id="axes_1">
   <g id="patch_2">
    <path d="M 69.3625 561.6 
L 850.5625 561.6 
L 850.5625 7.2 
L 69.3625 7.2 
L 69.3625 561.6 
z
" style="fill: none"/>
   </g>
   <g id="matplotlib.axis_1">
    <g id="xtick_1">
     <g id="text_1">
      <!-- MSA -->
      <g style="fill: #262626" transform="translate(104.788986 610.465141) rotate(-45) scale(0.2 -0.2)">
       <defs>
        <path id="DejaVuSans-4d" d="M 628 4666 
L 1569 4666 
L 2759 1491 
L 3956 4666 
L 4897 4666 
L 4897 0 
L 4281 0 
L 4281 4097 
L 3078 897 
L 2444 897 
L 1241 4097 
L 1241 0 
L 628 0 
L 628 4666 
z
" transform="scale(0.015625)"/>
        <path id="DejaVuSans-53" d="M 3425 4513 
L 3425 3897 
Q 3066 4069 2747 4153 
Q 2428 4238 2131 4238 
Q 1616 4238 1336 4038 
Q 1056 3838 1056 3469 
Q 1056 3159 1242 3001 
Q 1428 2844 1947 2747 
L 2328 2669 
Q 3034 2534 3370 2195 
Q 3706 1856 3706 1288 
Q 3706 609 3251 259 
Q 2797 -91 1919 -91 
Q 1588 -91 1214 -16 
Q 841 59 441 206 
L 441 856 
Q 825 641 1194 531 
Q 1563 422 1919 422 
Q 2459 422 2753 634 
Q 3047 847 3047 1241 
Q 3047 1584 2836 1778 
Q 2625 1972 2144 2069 
L 1759 2144 
Q 1053 2284 737 2584 
Q 422 2884 422 3419 
Q 422 4038 858 4394 
Q 1294 4750 2059 4750 
Q 2388 4750 2728 4690 
Q 3069 4631 3425 4513 
z
" transform="scale(0.015625)"/>
        <path id="DejaVuSans-41" d="M 2188 4044 
L 1331 1722 
L 3047 1722 
L 2188 4044 
z
M 1831 4666 
L 2547 4666 
L 4325 0 
L 3669 0 
L 3244 1197 
L 1141 1197 
L 716 0 
L 50 0 
L 1831 4666 
z
" transform="scale(0.015625)"/>
       </defs>
       <use xlink:href="#DejaVuSans-4d"/>
       <use xlink:href="#DejaVuSans-53" x="86.279297"/>
       <use xlink:href="#DejaVuSans-41" x="151.630859"/>
      </g>
     </g>
    </g>
    <g id="xtick_2">
     <g id="text_2">
      <!-- Template -->
      <g style="fill: #262626" transform="translate(182.97819 643.875936) rotate(-45) scale(0.2 -0.2)">
       <defs>
        <path id="DejaVuSans-54" d="M -19 4666 
L 3928 4666 
L 3928 4134 
L 2272 4134 
L 2272 0 
L 1638 0 
L 1638 4134 
L -19 4134 
L -19 4666 
z
" transform="scale(0.015625)"/>
        <path id="DejaVuSans-65" d="M 3597 1894 
L 3597 1613 
L 953 1613 
Q 991 1019 1311 708 
Q 1631 397 2203 397 
Q 2534 397 2845 478 
Q 3156 559 3463 722 
L 3463 178 
Q 3153 47 2828 -22 
Q 2503 -91 2169 -91 
Q 1331 -91 842 396 
Q 353 884 353 1716 
Q 353 2575 817 3079 
Q 1281 3584 2069 3584 
Q 2775 3584 3186 3129 
Q 3597 2675 3597 1894 
z
M 3022 2063 
Q 3016 2534 2758 2815 
Q 2500 3097 2075 3097 
Q 1594 3097 1305 2825 
Q 1016 2553 972 2059 
L 3022 2063 
z
" transform="scale(0.015625)"/>
        <path id="DejaVuSans-6d" d="M 3328 2828 
Q 3544 3216 3844 3400 
Q 4144 3584 4550 3584 
Q 5097 3584 5394 3201 
Q 5691 2819 5691 2113 
L 5691 0 
L 5113 0 
L 5113 2094 
Q 5113 2597 4934 2840 
Q 4756 3084 4391 3084 
Q 3944 3084 3684 2787 
Q 3425 2491 3425 1978 
L 3425 0 
L 2847 0 
L 2847 2094 
Q 2847 2600 2669 2842 
Q 2491 3084 2119 3084 
Q 1678 3084 1418 2786 
Q 1159 2488 1159 1978 
L 1159 0 
L 581 0 
L 581 3500 
L 1159 3500 
L 1159 2956 
Q 1356 3278 1631 3431 
Q 1906 3584 2284 3584 
Q 2666 3584 2933 3390 
Q 3200 3197 3328 2828 
z
" transform="scale(0.015625)"/>
        <path id="DejaVuSans-70" d="M 1159 525 
L 1159 -1331 
L 581 -1331 
L 581 3500 
L 1159 3500 
L 1159 2969 
Q 1341 3281 1617 3432 
Q 1894 3584 2278 3584 
Q 2916 3584 3314 3078 
Q 3713 2572 3713 1747 
Q 3713 922 3314 415 
Q 2916 -91 2278 -91 
Q 1894 -91 1617 61 
Q 1341 213 1159 525 
z
M 3116 1747 
Q 3116 2381 2855 2742 
Q 2594 3103 2138 3103 
Q 1681 3103 1420 2742 
Q 1159 2381 1159 1747 
Q 1159 1113 1420 752 
Q 1681 391 2138 391 
Q 2594 391 2855 752 
Q 3116 1113 3116 1747 
z
" transform="scale(0.015625)"/>
        <path id="DejaVuSans-6c" d="M 603 4863 
L 1178 4863 
L 1178 0 
L 603 0 
L 603 4863 
z
" transform="scale(0.015625)"/>
        <path id="DejaVuSans-61" d="M 2194 1759 
Q 1497 1759 1228 1600 
Q 959 1441 959 1056 
Q 959 750 1161 570 
Q 1363 391 1709 391 
Q 2188 391 2477 730 
Q 2766 1069 2766 1631 
L 2766 1759 
L 2194 1759 
z
M 3341 1997 
L 3341 0 
L 2766 0 
L 2766 531 
Q 2569 213 2275 61 
Q 1981 -91 1556 -91 
Q 1019 -91 701 211 
Q 384 513 384 1019 
Q 384 1609 779 1909 
Q 1175 2209 1959 2209 
L 2766 2209 
L 2766 2266 
Q 2766 2663 2505 2880 
Q 2244 3097 1772 3097 
Q 1472 3097 1187 3025 
Q 903 2953 641 2809 
L 641 3341 
Q 956 3463 1253 3523 
Q 1550 3584 1831 3584 
Q 2591 3584 2966 3190 
Q 3341 2797 3341 1997 
z
" transform="scale(0.015625)"/>
        <path id="DejaVuSans-74" d="M 1172 4494 
L 1172 3500 
L 2356 3500 
L 2356 3053 
L 1172 3053 
L 1172 1153 
Q 1172 725 1289 603 
Q 1406 481 1766 481 
L 2356 481 
L 2356 0 
L 1766 0 
Q 1100 0 847 248 
Q 594 497 594 1153 
L 594 3053 
L 172 3053 
L 172 3500 
L 594 3500 
L 594 4494 
L 1172 4494 
z
" transform="scale(0.015625)"/>
       </defs>
       <use xlink:href="#DejaVuSans-54"/>
       <use xlink:href="#DejaVuSans-65" x="44.083984"/>
       <use xlink:href="#DejaVuSans-6d" x="105.607422"/>
       <use xlink:href="#DejaVuSans-70" x="203.019531"/>
       <use xlink:href="#DejaVuSans-6c" x="266.496094"/>
       <use xlink:href="#DejaVuSans-61" x="294.279297"/>
       <use xlink:href="#DejaVuSans-74" x="355.558594"/>
       <use xlink:href="#DejaVuSans-65" x="394.767578"/>
      </g>
     </g>
    </g>
    <g id="xtick_3">
     <g id="text_3">
      <!-- Backbone -->
      <g style="fill: #262626" transform="translate(289.478183 648.975944) rotate(-45) scale(0.2 -0.2)">
       <defs>
        <path id="DejaVuSans-42" d="M 1259 2228 
L 1259 519 
L 2272 519 
Q 2781 519 3026 730 
Q 3272 941 3272 1375 
Q 3272 1813 3026 2020 
Q 2781 2228 2272 2228 
L 1259 2228 
z
M 1259 4147 
L 1259 2741 
L 2194 2741 
Q 2656 2741 2882 2914 
Q 3109 3088 3109 3444 
Q 3109 3797 2882 3972 
Q 2656 4147 2194 4147 
L 1259 4147 
z
M 628 4666 
L 2241 4666 
Q 2963 4666 3353 4366 
Q 3744 4066 3744 3513 
Q 3744 3084 3544 2831 
Q 3344 2578 2956 2516 
Q 3422 2416 3680 2098 
Q 3938 1781 3938 1306 
Q 3938 681 3513 340 
Q 3088 0 2303 0 
L 628 0 
L 628 4666 
z
" transform="scale(0.015625)"/>
        <path id="DejaVuSans-63" d="M 3122 3366 
L 3122 2828 
Q 2878 2963 2633 3030 
Q 2388 3097 2138 3097 
Q 1578 3097 1268 2742 
Q 959 2388 959 1747 
Q 959 1106 1268 751 
Q 1578 397 2138 397 
Q 2388 397 2633 464 
Q 2878 531 3122 666 
L 3122 134 
Q 2881 22 2623 -34 
Q 2366 -91 2075 -91 
Q 1284 -91 818 406 
Q 353 903 353 1747 
Q 353 2603 823 3093 
Q 1294 3584 2113 3584 
Q 2378 3584 2631 3529 
Q 2884 3475 3122 3366 
z
" transform="scale(0.015625)"/>
        <path id="DejaVuSans-6b" d="M 581 4863 
L 1159 4863 
L 1159 1991 
L 2875 3500 
L 3609 3500 
L 1753 1863 
L 3688 0 
L 2938 0 
L 1159 1709 
L 1159 0 
L 581 0 
L 581 4863 
z
" transform="scale(0.015625)"/>
        <path id="DejaVuSans-62" d="M 3116 1747 
Q 3116 2381 2855 2742 
Q 2594 3103 2138 3103 
Q 1681 3103 1420 2742 
Q 1159 2381 1159 1747 
Q 1159 1113 1420 752 
Q 1681 391 2138 391 
Q 2594 391 2855 752 
Q 3116 1113 3116 1747 
z
M 1159 2969 
Q 1341 3281 1617 3432 
Q 1894 3584 2278 3584 
Q 2916 3584 3314 3078 
Q 3713 2572 3713 1747 
Q 3713 922 3314 415 
Q 2916 -91 2278 -91 
Q 1894 -91 1617 61 
Q 1341 213 1159 525 
L 1159 0 
L 581 0 
L 581 4863 
L 1159 4863 
L 1159 2969 
z
" transform="scale(0.015625)"/>
        <path id="DejaVuSans-6f" d="M 1959 3097 
Q 1497 3097 1228 2736 
Q 959 2375 959 1747 
Q 959 1119 1226 758 
Q 1494 397 1959 397 
Q 2419 397 2687 759 
Q 2956 1122 2956 1747 
Q 2956 2369 2687 2733 
Q 2419 3097 1959 3097 
z
M 1959 3584 
Q 2709 3584 3137 3096 
Q 3566 2609 3566 1747 
Q 3566 888 3137 398 
Q 2709 -91 1959 -91 
Q 1206 -91 779 398 
Q 353 888 353 1747 
Q 353 2609 779 3096 
Q 1206 3584 1959 3584 
z
" transform="scale(0.015625)"/>
        <path id="DejaVuSans-6e" d="M 3513 2113 
L 3513 0 
L 2938 0 
L 2938 2094 
Q 2938 2591 2744 2837 
Q 2550 3084 2163 3084 
Q 1697 3084 1428 2787 
Q 1159 2491 1159 1978 
L 1159 0 
L 581 0 
L 581 3500 
L 1159 3500 
L 1159 2956 
Q 1366 3272 1645 3428 
Q 1925 3584 2291 3584 
Q 2894 3584 3203 3211 
Q 3513 2838 3513 2113 
z
" transform="scale(0.015625)"/>
       </defs>
       <use xlink:href="#DejaVuSans-42"/>
       <use xlink:href="#DejaVuSans-61" x="68.603516"/>
       <use xlink:href="#DejaVuSans-63" x="129.882812"/>
       <use xlink:href="#DejaVuSans-6b" x="184.863281"/>
       <use xlink:href="#DejaVuSans-62" x="242.773438"/>
       <use xlink:href="#DejaVuSans-6f" x="306.25"/>
       <use xlink:href="#DejaVuSans-6e" x="367.431641"/>
       <use xlink:href="#DejaVuSans-65" x="430.810547"/>
      </g>
     </g>
    </g>
    <g id="xtick_4">
     <g id="text_4">
      <!-- Heuristic C-$\beta$ -->
      <g style="fill: #262626" transform="translate(379.63517 670.706219) rotate(-45) scale(0.2 -0.2)">
       <defs>
        <path id="DejaVuSans-48" d="M 628 4666 
L 1259 4666 
L 1259 2753 
L 3553 2753 
L 3553 4666 
L 4184 4666 
L 4184 0 
L 3553 0 
L 3553 2222 
L 1259 2222 
L 1259 0 
L 628 0 
L 628 4666 
z
" transform="scale(0.015625)"/>
        <path id="DejaVuSans-75" d="M 544 1381 
L 544 3500 
L 1119 3500 
L 1119 1403 
Q 1119 906 1312 657 
Q 1506 409 1894 409 
Q 2359 409 2629 706 
Q 2900 1003 2900 1516 
L 2900 3500 
L 3475 3500 
L 3475 0 
L 2900 0 
L 2900 538 
Q 2691 219 2414 64 
Q 2138 -91 1772 -91 
Q 1169 -91 856 284 
Q 544 659 544 1381 
z
M 1991 3584 
L 1991 3584 
z
" transform="scale(0.015625)"/>
        <path id="DejaVuSans-72" d="M 2631 2963 
Q 2534 3019 2420 3045 
Q 2306 3072 2169 3072 
Q 1681 3072 1420 2755 
Q 1159 2438 1159 1844 
L 1159 0 
L 581 0 
L 581 3500 
L 1159 3500 
L 1159 2956 
Q 1341 3275 1631 3429 
Q 1922 3584 2338 3584 
Q 2397 3584 2469 3576 
Q 2541 3569 2628 3553 
L 2631 2963 
z
" transform="scale(0.015625)"/>
        <path id="DejaVuSans-69" d="M 603 3500 
L 1178 3500 
L 1178 0 
L 603 0 
L 603 3500 
z
M 603 4863 
L 1178 4863 
L 1178 4134 
L 603 4134 
L 603 4863 
z
" transform="scale(0.015625)"/>
        <path id="DejaVuSans-73" d="M 2834 3397 
L 2834 2853 
Q 2591 2978 2328 3040 
Q 2066 3103 1784 3103 
Q 1356 3103 1142 2972 
Q 928 2841 928 2578 
Q 928 2378 1081 2264 
Q 1234 2150 1697 2047 
L 1894 2003 
Q 2506 1872 2764 1633 
Q 3022 1394 3022 966 
Q 3022 478 2636 193 
Q 2250 -91 1575 -91 
Q 1294 -91 989 -36 
Q 684 19 347 128 
L 347 722 
Q 666 556 975 473 
Q 1284 391 1588 391 
Q 1994 391 2212 530 
Q 2431 669 2431 922 
Q 2431 1156 2273 1281 
Q 2116 1406 1581 1522 
L 1381 1569 
Q 847 1681 609 1914 
Q 372 2147 372 2553 
Q 372 3047 722 3315 
Q 1072 3584 1716 3584 
Q 2034 3584 2315 3537 
Q 2597 3491 2834 3397 
z
" transform="scale(0.015625)"/>
        <path id="DejaVuSans-20" transform="scale(0.015625)"/>
        <path id="DejaVuSans-43" d="M 4122 4306 
L 4122 3641 
Q 3803 3938 3442 4084 
Q 3081 4231 2675 4231 
Q 1875 4231 1450 3742 
Q 1025 3253 1025 2328 
Q 1025 1406 1450 917 
Q 1875 428 2675 428 
Q 3081 428 3442 575 
Q 3803 722 4122 1019 
L 4122 359 
Q 3791 134 3420 21 
Q 3050 -91 2638 -91 
Q 1578 -91 968 557 
Q 359 1206 359 2328 
Q 359 3453 968 4101 
Q 1578 4750 2638 4750 
Q 3056 4750 3426 4639 
Q 3797 4528 4122 4306 
z
" transform="scale(0.015625)"/>
        <path id="DejaVuSans-2d" d="M 313 2009 
L 1997 2009 
L 1997 1497 
L 313 1497 
L 313 2009 
z
" transform="scale(0.015625)"/>
        <path id="DejaVuSans-Oblique-3b2" d="M 872 216 
L 572 -1331 
L -6 -1331 
L 928 3478 
Q 1206 4903 2538 4903 
Q 3888 4903 3659 3700 
Q 3503 2844 2894 2531 
Q 3713 2250 3553 1416 
Q 3272 -69 1759 -66 
Q 1097 -63 872 216 
z
M 1019 966 
Q 1259 422 1875 425 
Q 2775 425 2966 1406 
Q 3138 2288 1675 2219 
L 1778 2750 
Q 2909 2731 3106 3750 
Q 3241 4438 2509 4434 
Q 1691 4434 1503 3459 
L 1019 966 
z
" transform="scale(0.015625)"/>
       </defs>
       <use xlink:href="#DejaVuSans-48" transform="translate(0 0.390625)"/>
       <use xlink:href="#DejaVuSans-65" transform="translate(75.195312 0.390625)"/>
       <use xlink:href="#DejaVuSans-75" transform="translate(136.71875 0.390625)"/>
       <use xlink:href="#DejaVuSans-72" transform="translate(200.097656 0.390625)"/>
       <use xlink:href="#DejaVuSans-69" transform="translate(241.210938 0.390625)"/>
       <use xlink:href="#DejaVuSans-73" transform="translate(268.994141 0.390625)"/>
       <use xlink:href="#DejaVuSans-74" transform="translate(321.09375 0.390625)"/>
       <use xlink:href="#DejaVuSans-69" transform="translate(360.302734 0.390625)"/>
       <use xlink:href="#DejaVuSans-63" transform="translate(388.085938 0.390625)"/>
       <use xlink:href="#DejaVuSans-20" transform="translate(443.066406 0.390625)"/>
       <use xlink:href="#DejaVuSans-43" transform="translate(474.853516 0.390625)"/>
       <use xlink:href="#DejaVuSans-2d" transform="translate(544.677734 0.390625)"/>
       <use xlink:href="#DejaVuSans-Oblique-3b2" transform="translate(580.761719 0.390625)"/>
      </g>
     </g>
    </g>
    <g id="xtick_5">
     <g id="text_5">
      <!-- Template C-$\beta$ -->
      <g style="fill: #262626" transform="translate(486.992529 674.94886) rotate(-45) scale(0.2 -0.2)">
       <use xlink:href="#DejaVuSans-54" transform="translate(0 0.390625)"/>
       <use xlink:href="#DejaVuSans-65" transform="translate(61.083984 0.390625)"/>
       <use xlink:href="#DejaVuSans-6d" transform="translate(122.607422 0.390625)"/>
       <use xlink:href="#DejaVuSans-70" transform="translate(220.019531 0.390625)"/>
       <use xlink:href="#DejaVuSans-6c" transform="translate(283.496094 0.390625)"/>
       <use xlink:href="#DejaVuSans-61" transform="translate(311.279297 0.390625)"/>
       <use xlink:href="#DejaVuSans-74" transform="translate(372.558594 0.390625)"/>
       <use xlink:href="#DejaVuSans-65" transform="translate(411.767578 0.390625)"/>
       <use xlink:href="#DejaVuSans-20" transform="translate(473.291016 0.390625)"/>
       <use xlink:href="#DejaVuSans-43" transform="translate(505.078125 0.390625)"/>
       <use xlink:href="#DejaVuSans-2d" transform="translate(574.902344 0.390625)"/>
       <use xlink:href="#DejaVuSans-Oblique-3b2" transform="translate(610.986328 0.390625)"/>
      </g>
     </g>
    </g>
    <g id="xtick_6">
     <g id="text_6">
      <!-- AttnPacker -->
      <g style="fill: #262626" transform="translate(617.905383 655.348744) rotate(-45) scale(0.2 -0.2)">
       <defs>
        <path id="DejaVuSans-50" d="M 1259 4147 
L 1259 2394 
L 2053 2394 
Q 2494 2394 2734 2622 
Q 2975 2850 2975 3272 
Q 2975 3691 2734 3919 
Q 2494 4147 2053 4147 
L 1259 4147 
z
M 628 4666 
L 2053 4666 
Q 2838 4666 3239 4311 
Q 3641 3956 3641 3272 
Q 3641 2581 3239 2228 
Q 2838 1875 2053 1875 
L 1259 1875 
L 1259 0 
L 628 0 
L 628 4666 
z
" transform="scale(0.015625)"/>
       </defs>
       <use xlink:href="#DejaVuSans-41"/>
       <use xlink:href="#DejaVuSans-74" x="66.658203"/>
       <use xlink:href="#DejaVuSans-74" x="105.867188"/>
       <use xlink:href="#DejaVuSans-6e" x="145.076172"/>
       <use xlink:href="#DejaVuSans-50" x="208.455078"/>
       <use xlink:href="#DejaVuSans-61" x="264.257812"/>
       <use xlink:href="#DejaVuSans-63" x="325.537109"/>
       <use xlink:href="#DejaVuSans-6b" x="380.517578"/>
       <use xlink:href="#DejaVuSans-65" x="434.802734"/>
       <use xlink:href="#DejaVuSans-72" x="496.326172"/>
      </g>
     </g>
    </g>
    <g id="xtick_7">
     <g id="text_7">
      <!-- AttnPacker (AF) -->
      <g style="fill: #262626" transform="translate(696.167508 688.686619) rotate(-45) scale(0.2 -0.2)">
       <defs>
        <path id="DejaVuSans-28" d="M 1984 4856 
Q 1566 4138 1362 3434 
Q 1159 2731 1159 2009 
Q 1159 1288 1364 580 
Q 1569 -128 1984 -844 
L 1484 -844 
Q 1016 -109 783 600 
Q 550 1309 550 2009 
Q 550 2706 781 3412 
Q 1013 4119 1484 4856 
L 1984 4856 
z
" transform="scale(0.015625)"/>
        <path id="DejaVuSans-46" d="M 628 4666 
L 3309 4666 
L 3309 4134 
L 1259 4134 
L 1259 2759 
L 3109 2759 
L 3109 2228 
L 1259 2228 
L 1259 0 
L 628 0 
L 628 4666 
z
" transform="scale(0.015625)"/>
        <path id="DejaVuSans-29" d="M 513 4856 
L 1013 4856 
Q 1481 4119 1714 3412 
Q 1947 2706 1947 2009 
Q 1947 1309 1714 600 
Q 1481 -109 1013 -844 
L 513 -844 
Q 928 -128 1133 580 
Q 1338 1288 1338 2009 
Q 1338 2731 1133 3434 
Q 928 4138 513 4856 
z
" transform="scale(0.015625)"/>
       </defs>
       <use xlink:href="#DejaVuSans-41"/>
       <use xlink:href="#DejaVuSans-74" x="66.658203"/>
       <use xlink:href="#DejaVuSans-74" x="105.867188"/>
       <use xlink:href="#DejaVuSans-6e" x="145.076172"/>
       <use xlink:href="#DejaVuSans-50" x="208.455078"/>
       <use xlink:href="#DejaVuSans-61" x="264.257812"/>
       <use xlink:href="#DejaVuSans-63" x="325.537109"/>
       <use xlink:href="#DejaVuSans-6b" x="380.517578"/>
       <use xlink:href="#DejaVuSans-65" x="434.802734"/>
       <use xlink:href="#DejaVuSans-72" x="496.326172"/>
       <use xlink:href="#DejaVuSans-20" x="537.439453"/>
       <use xlink:href="#DejaVuSans-28" x="569.226562"/>
       <use xlink:href="#DejaVuSans-41" x="608.240234"/>
       <use xlink:href="#DejaVuSans-46" x="676.648438"/>
       <use xlink:href="#DejaVuSans-29" x="734.167969"/>
      </g>
     </g>
    </g>
    <g id="text_8">
     <!-- Method -->
     <g style="fill: #262626" transform="translate(422.45625 710.824616) scale(0.2 -0.2)">
      <defs>
       <path id="DejaVuSans-68" d="M 3513 2113 
L 3513 0 
L 2938 0 
L 2938 2094 
Q 2938 2591 2744 2837 
Q 2550 3084 2163 3084 
Q 1697 3084 1428 2787 
Q 1159 2491 1159 1978 
L 1159 0 
L 581 0 
L 581 4863 
L 1159 4863 
L 1159 2956 
Q 1366 3272 1645 3428 
Q 1925 3584 2291 3584 
Q 2894 3584 3203 3211 
Q 3513 2838 3513 2113 
z
" transform="scale(0.015625)"/>
       <path id="DejaVuSans-64" d="M 2906 2969 
L 2906 4863 
L 3481 4863 
L 3481 0 
L 2906 0 
L 2906 525 
Q 2725 213 2448 61 
Q 2172 -91 1784 -91 
Q 1150 -91 751 415 
Q 353 922 353 1747 
Q 353 2572 751 3078 
Q 1150 3584 1784 3584 
Q 2172 3584 2448 3432 
Q 2725 3281 2906 2969 
z
M 947 1747 
Q 947 1113 1208 752 
Q 1469 391 1925 391 
Q 2381 391 2643 752 
Q 2906 1113 2906 1747 
Q 2906 2381 2643 2742 
Q 2381 3103 1925 3103 
Q 1469 3103 1208 2742 
Q 947 2381 947 1747 
z
" transform="scale(0.015625)"/>
      </defs>
      <use xlink:href="#DejaVuSans-4d"/>
      <use xlink:href="#DejaVuSans-65" x="86.279297"/>
      <use xlink:href="#DejaVuSans-74" x="147.802734"/>
      <use xlink:href="#DejaVuSans-68" x="187.011719"/>
      <use xlink:href="#DejaVuSans-6f" x="250.390625"/>
      <use xlink:href="#DejaVuSans-64" x="311.572266"/>
     </g>
    </g>
   </g>
   <g id="matplotlib.axis_2">
    <g id="ytick_1">
     <g id="line2d_1">
      <path d="M 69.3625 529.792535 
L 850.5625 529.792535 
" clip-path="url(#pc6e9960ce6)" style="fill: none; stroke: #cccccc; stroke-width: 0.8; stroke-linecap: round"/>
     </g>
     <g id="text_9">
      <!-- 0.0 -->
      <g style="fill: #262626" transform="translate(30.55625 537.390973) scale(0.2 -0.2)">
       <defs>
        <path id="DejaVuSans-30" d="M 2034 4250 
Q 1547 4250 1301 3770 
Q 1056 3291 1056 2328 
Q 1056 1369 1301 889 
Q 1547 409 2034 409 
Q 2525 409 2770 889 
Q 3016 1369 3016 2328 
Q 3016 3291 2770 3770 
Q 2525 4250 2034 4250 
z
M 2034 4750 
Q 2819 4750 3233 4129 
Q 3647 3509 3647 2328 
Q 3647 1150 3233 529 
Q 2819 -91 2034 -91 
Q 1250 -91 836 529 
Q 422 1150 422 2328 
Q 422 3509 836 4129 
Q 1250 4750 2034 4750 
z
" transform="scale(0.015625)"/>
        <path id="DejaVuSans-2e" d="M 684 794 
L 1344 794 
L 1344 0 
L 684 0 
L 684 794 
z
" transform="scale(0.015625)"/>
       </defs>
       <use xlink:href="#DejaVuSans-30"/>
       <use xlink:href="#DejaVuSans-2e" x="63.623047"/>
       <use xlink:href="#DejaVuSans-30" x="95.410156"/>
      </g>
     </g>
    </g>
    <g id="ytick_2">
     <g id="line2d_2">
      <path d="M 69.3625 450.220089 
L 850.5625 450.220089 
" clip-path="url(#pc6e9960ce6)" style="fill: none; stroke: #cccccc; stroke-width: 0.8; stroke-linecap: round"/>
     </g>
     <g id="text_10">
      <!-- 0.2 -->
      <g style="fill: #262626" transform="translate(30.55625 457.818527) scale(0.2 -0.2)">
       <defs>
        <path id="DejaVuSans-32" d="M 1228 531 
L 3431 531 
L 3431 0 
L 469 0 
L 469 531 
Q 828 903 1448 1529 
Q 2069 2156 2228 2338 
Q 2531 2678 2651 2914 
Q 2772 3150 2772 3378 
Q 2772 3750 2511 3984 
Q 2250 4219 1831 4219 
Q 1534 4219 1204 4116 
Q 875 4013 500 3803 
L 500 4441 
Q 881 4594 1212 4672 
Q 1544 4750 1819 4750 
Q 2544 4750 2975 4387 
Q 3406 4025 3406 3419 
Q 3406 3131 3298 2873 
Q 3191 2616 2906 2266 
Q 2828 2175 2409 1742 
Q 1991 1309 1228 531 
z
" transform="scale(0.015625)"/>
       </defs>
       <use xlink:href="#DejaVuSans-30"/>
       <use xlink:href="#DejaVuSans-2e" x="63.623047"/>
       <use xlink:href="#DejaVuSans-32" x="95.410156"/>
      </g>
     </g>
    </g>
    <g id="ytick_3">
     <g id="line2d_3">
      <path d="M 69.3625 370.647643 
L 850.5625 370.647643 
" clip-path="url(#pc6e9960ce6)" style="fill: none; stroke: #cccccc; stroke-width: 0.8; stroke-linecap: round"/>
     </g>
     <g id="text_11">
      <!-- 0.4 -->
      <g style="fill: #262626" transform="translate(30.55625 378.24608) scale(0.2 -0.2)">
       <defs>
        <path id="DejaVuSans-34" d="M 2419 4116 
L 825 1625 
L 2419 1625 
L 2419 4116 
z
M 2253 4666 
L 3047 4666 
L 3047 1625 
L 3713 1625 
L 3713 1100 
L 3047 1100 
L 3047 0 
L 2419 0 
L 2419 1100 
L 313 1100 
L 313 1709 
L 2253 4666 
z
" transform="scale(0.015625)"/>
       </defs>
       <use xlink:href="#DejaVuSans-30"/>
       <use xlink:href="#DejaVuSans-2e" x="63.623047"/>
       <use xlink:href="#DejaVuSans-34" x="95.410156"/>
      </g>
     </g>
    </g>
    <g id="ytick_4">
     <g id="line2d_4">
      <path d="M 69.3625 291.075197 
L 850.5625 291.075197 
" clip-path="url(#pc6e9960ce6)" style="fill: none; stroke: #cccccc; stroke-width: 0.8; stroke-linecap: round"/>
     </g>
     <g id="text_12">
      <!-- 0.6 -->
      <g style="fill: #262626" transform="translate(30.55625 298.673634) scale(0.2 -0.2)">
       <defs>
        <path id="DejaVuSans-36" d="M 2113 2584 
Q 1688 2584 1439 2293 
Q 1191 2003 1191 1497 
Q 1191 994 1439 701 
Q 1688 409 2113 409 
Q 2538 409 2786 701 
Q 3034 994 3034 1497 
Q 3034 2003 2786 2293 
Q 2538 2584 2113 2584 
z
M 3366 4563 
L 3366 3988 
Q 3128 4100 2886 4159 
Q 2644 4219 2406 4219 
Q 1781 4219 1451 3797 
Q 1122 3375 1075 2522 
Q 1259 2794 1537 2939 
Q 1816 3084 2150 3084 
Q 2853 3084 3261 2657 
Q 3669 2231 3669 1497 
Q 3669 778 3244 343 
Q 2819 -91 2113 -91 
Q 1303 -91 875 529 
Q 447 1150 447 2328 
Q 447 3434 972 4092 
Q 1497 4750 2381 4750 
Q 2619 4750 2861 4703 
Q 3103 4656 3366 4563 
z
" transform="scale(0.015625)"/>
       </defs>
       <use xlink:href="#DejaVuSans-30"/>
       <use xlink:href="#DejaVuSans-2e" x="63.623047"/>
       <use xlink:href="#DejaVuSans-36" x="95.410156"/>
      </g>
     </g>
    </g>
    <g id="ytick_5">
     <g id="line2d_5">
      <path d="M 69.3625 211.502751 
L 850.5625 211.502751 
" clip-path="url(#pc6e9960ce6)" style="fill: none; stroke: #cccccc; stroke-width: 0.8; stroke-linecap: round"/>
     </g>
     <g id="text_13">
      <!-- 0.8 -->
      <g style="fill: #262626" transform="translate(30.55625 219.101188) scale(0.2 -0.2)">
       <defs>
        <path id="DejaVuSans-38" d="M 2034 2216 
Q 1584 2216 1326 1975 
Q 1069 1734 1069 1313 
Q 1069 891 1326 650 
Q 1584 409 2034 409 
Q 2484 409 2743 651 
Q 3003 894 3003 1313 
Q 3003 1734 2745 1975 
Q 2488 2216 2034 2216 
z
M 1403 2484 
Q 997 2584 770 2862 
Q 544 3141 544 3541 
Q 544 4100 942 4425 
Q 1341 4750 2034 4750 
Q 2731 4750 3128 4425 
Q 3525 4100 3525 3541 
Q 3525 3141 3298 2862 
Q 3072 2584 2669 2484 
Q 3125 2378 3379 2068 
Q 3634 1759 3634 1313 
Q 3634 634 3220 271 
Q 2806 -91 2034 -91 
Q 1263 -91 848 271 
Q 434 634 434 1313 
Q 434 1759 690 2068 
Q 947 2378 1403 2484 
z
M 1172 3481 
Q 1172 3119 1398 2916 
Q 1625 2713 2034 2713 
Q 2441 2713 2670 2916 
Q 2900 3119 2900 3481 
Q 2900 3844 2670 4047 
Q 2441 4250 2034 4250 
Q 1625 4250 1398 4047 
Q 1172 3844 1172 3481 
z
" transform="scale(0.015625)"/>
       </defs>
       <use xlink:href="#DejaVuSans-30"/>
       <use xlink:href="#DejaVuSans-2e" x="63.623047"/>
       <use xlink:href="#DejaVuSans-38" x="95.410156"/>
      </g>
     </g>
    </g>
    <g id="ytick_6">
     <g id="line2d_6">
      <path d="M 69.3625 131.930304 
L 850.5625 131.930304 
" clip-path="url(#pc6e9960ce6)" style="fill: none; stroke: #cccccc; stroke-width: 0.8; stroke-linecap: round"/>
     </g>
     <g id="text_14">
      <!-- 1.0 -->
      <g style="fill: #262626" transform="translate(30.55625 139.528742) scale(0.2 -0.2)">
       <defs>
        <path id="DejaVuSans-31" d="M 794 531 
L 1825 531 
L 1825 4091 
L 703 3866 
L 703 4441 
L 1819 4666 
L 2450 4666 
L 2450 531 
L 3481 531 
L 3481 0 
L 794 0 
L 794 531 
z
" transform="scale(0.015625)"/>
       </defs>
       <use xlink:href="#DejaVuSans-31"/>
       <use xlink:href="#DejaVuSans-2e" x="63.623047"/>
       <use xlink:href="#DejaVuSans-30" x="95.410156"/>
      </g>
     </g>
    </g>
    <g id="ytick_7">
     <g id="line2d_7">
      <path d="M 69.3625 52.357858 
L 850.5625 52.357858 
" clip-path="url(#pc6e9960ce6)" style="fill: none; stroke: #cccccc; stroke-width: 0.8; stroke-linecap: round"/>
     </g>
     <g id="text_15">
      <!-- 1.2 -->
      <g style="fill: #262626" transform="translate(30.55625 59.956296) scale(0.2 -0.2)">
       <use xlink:href="#DejaVuSans-31"/>
       <use xlink:href="#DejaVuSans-2e" x="63.623047"/>
       <use xlink:href="#DejaVuSans-32" x="95.410156"/>
      </g>
     </g>
    </g>
    <g id="text_16">
     <!-- MAE 1 (rad) -->
     <g style="fill: #262626" transform="translate(22.396875 343.296875) rotate(-90) scale(0.2 -0.2)">
      <defs>
       <path id="DejaVuSans-45" d="M 628 4666 
L 3578 4666 
L 3578 4134 
L 1259 4134 
L 1259 2753 
L 3481 2753 
L 3481 2222 
L 1259 2222 
L 1259 531 
L 3634 531 
L 3634 0 
L 628 0 
L 628 4666 
z
" transform="scale(0.015625)"/>
      </defs>
      <use xlink:href="#DejaVuSans-4d"/>
      <use xlink:href="#DejaVuSans-41" x="86.279297"/>
      <use xlink:href="#DejaVuSans-45" x="154.6875"/>
      <use xlink:href="#DejaVuSans-20" x="217.871094"/>
      <use xlink:href="#DejaVuSans-31" x="249.658203"/>
      <use xlink:href="#DejaVuSans-20" x="313.28125"/>
      <use xlink:href="#DejaVuSans-28" x="345.068359"/>
      <use xlink:href="#DejaVuSans-72" x="384.082031"/>
      <use xlink:href="#DejaVuSans-61" x="425.195312"/>
      <use xlink:href="#DejaVuSans-64" x="486.474609"/>
      <use xlink:href="#DejaVuSans-29" x="549.951172"/>
     </g>
    </g>
   </g>
   <g id="PolyCollection_1">
    <defs>
     <path id="m6c0aa5bf98" d="M 125.410828 -210.635778 
L 124.914172 -210.635778 
L 124.805836 -215.475659 
L 124.657996 -220.31554 
L 124.459155 -225.155421 
L 124.195434 -229.995302 
L 123.850415 -234.835183 
L 123.405149 -239.675064 
L 122.838437 -244.514945 
L 122.127466 -249.354826 
L 121.248899 -254.194707 
L 120.180469 -259.034588 
L 118.903015 -263.874469 
L 117.402854 -268.71435 
L 115.674204 -273.554231 
L 113.72134 -278.394111 
L 111.560074 -283.233992 
L 109.218217 -288.073873 
L 106.734768 -292.913754 
L 104.157777 -297.753635 
L 101.541077 -302.593516 
L 98.940267 -307.433397 
L 96.408548 -312.273278 
L 93.993016 -317.113159 
L 91.731978 -321.95304 
L 89.653644 -326.792921 
L 87.776306 -331.632802 
L 86.109813 -336.472683 
L 84.657939 -341.312564 
L 83.421138 -346.152445 
L 82.399155 -350.992326 
L 81.593088 -355.832206 
L 81.006664 -360.672087 
L 80.646651 -365.511968 
L 80.5225 -370.351849 
L 80.645338 -375.19173 
L 81.026498 -380.031611 
L 81.675713 -384.871492 
L 82.599086 -389.711373 
L 83.796948 -394.551254 
L 85.261747 -399.391135 
L 86.97619 -404.231016 
L 88.911886 -409.070897 
L 91.028821 -413.910778 
L 93.27592 -418.750659 
L 95.592881 -423.59054 
L 97.913284 -428.43042 
L 100.168779 -433.270301 
L 102.293972 -438.110182 
L 104.231457 -442.950063 
L 105.936393 -447.789944 
L 107.380021 -452.629825 
L 108.551661 -457.469706 
L 109.458912 -462.309587 
L 110.126009 -467.149468 
L 110.590569 -471.989349 
L 110.899165 -476.82923 
L 111.102312 -481.669111 
L 111.249522 -486.508992 
L 111.38504 -491.348873 
L 111.544741 -496.188754 
L 111.754437 -501.028635 
L 112.029644 -505.868515 
L 112.376575 -510.708396 
L 112.794008 -515.548277 
L 113.275545 -520.388158 
L 113.811799 -525.228039 
L 114.392177 -530.06792 
L 115.00603 -534.907801 
L 115.643167 -539.747682 
L 116.29386 -544.587563 
L 116.948577 -549.427444 
L 117.597692 -554.267325 
L 118.231381 -559.107206 
L 118.839824 -563.947087 
L 119.413718 -568.786968 
L 119.944991 -573.626849 
L 120.427571 -578.46673 
L 120.85802 -583.30661 
L 121.235909 -588.146491 
L 121.563837 -592.986372 
L 121.847088 -597.826253 
L 122.092986 -602.666134 
L 122.310051 -607.506015 
L 122.507076 -612.345896 
L 122.692248 -617.185777 
L 122.872418 -622.025658 
L 123.052586 -626.865539 
L 123.235642 -631.70542 
L 123.422364 -636.545301 
L 123.611645 -641.385182 
L 123.800903 -646.225063 
L 123.986601 -651.064944 
L 124.164815 -655.904825 
L 124.331756 -660.744705 
L 124.484213 -665.584586 
L 124.619854 -670.424467 
L 124.737378 -675.264348 
L 124.836528 -680.104229 
L 124.917971 -684.94411 
L 124.983106 -689.783991 
L 125.341894 -689.783991 
L 125.341894 -689.783991 
L 125.407029 -684.94411 
L 125.488472 -680.104229 
L 125.587622 -675.264348 
L 125.705146 -670.424467 
L 125.840787 -665.584586 
L 125.993244 -660.744705 
L 126.160185 -655.904825 
L 126.338399 -651.064944 
L 126.524097 -646.225063 
L 126.713355 -641.385182 
L 126.902636 -636.545301 
L 127.089358 -631.70542 
L 127.272414 -626.865539 
L 127.452582 -622.025658 
L 127.632752 -617.185777 
L 127.817924 -612.345896 
L 128.014949 -607.506015 
L 128.232014 -602.666134 
L 128.477912 -597.826253 
L 128.761163 -592.986372 
L 129.089091 -588.146491 
L 129.46698 -583.30661 
L 129.897429 -578.46673 
L 130.380009 -573.626849 
L 130.911282 -568.786968 
L 131.485176 -563.947087 
L 132.093619 -559.107206 
L 132.727308 -554.267325 
L 133.376423 -549.427444 
L 134.03114 -544.587563 
L 134.681833 -539.747682 
L 135.31897 -534.907801 
L 135.932823 -530.06792 
L 136.513201 -525.228039 
L 137.049455 -520.388158 
L 137.530992 -515.548277 
L 137.948425 -510.708396 
L 138.295356 -505.868515 
L 138.570563 -501.028635 
L 138.780259 -496.188754 
L 138.93996 -491.348873 
L 139.075478 -486.508992 
L 139.222688 -481.669111 
L 139.425835 -476.82923 
L 139.734431 -471.989349 
L 140.198991 -467.149468 
L 140.866088 -462.309587 
L 141.773339 -457.469706 
L 142.944979 -452.629825 
L 144.388607 -447.789944 
L 146.093543 -442.950063 
L 148.031028 -438.110182 
L 150.156221 -433.270301 
L 152.411716 -428.43042 
L 154.732119 -423.59054 
L 157.04908 -418.750659 
L 159.296179 -413.910778 
L 161.413114 -409.070897 
L 163.34881 -404.231016 
L 165.063253 -399.391135 
L 166.528052 -394.551254 
L 167.725914 -389.711373 
L 168.649287 -384.871492 
L 169.298502 -380.031611 
L 169.679662 -375.19173 
L 169.8025 -370.351849 
L 169.678349 -365.511968 
L 169.318336 -360.672087 
L 168.731912 -355.832206 
L 167.925845 -350.992326 
L 166.903862 -346.152445 
L 165.667061 -341.312564 
L 164.215187 -336.472683 
L 162.548694 -331.632802 
L 160.671356 -326.792921 
L 158.593022 -321.95304 
L 156.331984 -317.113159 
L 153.916452 -312.273278 
L 151.384733 -307.433397 
L 148.783923 -302.593516 
L 146.167223 -297.753635 
L 143.590232 -292.913754 
L 141.106783 -288.073873 
L 138.764926 -283.233992 
L 136.60366 -278.394111 
L 134.650796 -273.554231 
L 132.922146 -268.71435 
L 131.421985 -263.874469 
L 130.144531 -259.034588 
L 129.076101 -254.194707 
L 128.197534 -249.354826 
L 127.486563 -244.514945 
L 126.919851 -239.675064 
L 126.474585 -234.835183 
L 126.129566 -229.995302 
L 125.865845 -225.155421 
L 125.667004 -220.31554 
L 125.519164 -215.475659 
L 125.410828 -210.635778 
z
" style="stroke: #3d3d3d; stroke-opacity: 0.5"/>
    </defs>
    <g clip-path="url(#pc6e9960ce6)">
     <use xlink:href="#m6c0aa5bf98" x="0" y="722.183991" style="fill: #3274a1; fill-opacity: 0.5; stroke: #3d3d3d; stroke-opacity: 0.5"/>
    </g>
   </g>
   <g id="PolyCollection_2">
    <defs>
     <path id="m2ed5c2380a" d="M 238.13004 -185.783991 
L 235.39496 -185.783991 
L 234.868925 -189.306636 
L 234.186318 -192.829282 
L 233.318244 -196.351927 
L 232.236465 -199.874573 
L 230.915566 -203.397218 
L 229.335449 -206.919863 
L 227.483969 -210.442509 
L 225.359462 -213.965154 
L 222.972879 -217.4878 
L 220.349227 -221.010445 
L 217.528052 -224.53309 
L 214.562776 -228.055736 
L 211.51882 -231.578381 
L 208.470567 -235.101027 
L 205.497377 -238.623672 
L 202.678989 -242.146317 
L 200.090748 -245.668963 
L 197.799116 -249.191608 
L 195.857922 -252.714254 
L 194.305734 -256.236899 
L 193.16456 -259.759544 
L 192.439967 -263.28219 
L 192.1225 -266.804835 
L 192.190125 -270.327481 
L 192.611335 -273.850126 
L 193.348461 -277.372771 
L 194.360787 -280.895417 
L 195.607108 -284.418062 
L 197.047528 -287.940707 
L 198.644423 -291.463353 
L 200.362648 -294.985998 
L 202.169202 -298.508644 
L 204.032615 -302.031289 
L 205.922351 -305.553934 
L 207.808476 -309.07658 
L 209.661738 -312.599225 
L 211.454123 -316.121871 
L 213.159796 -319.644516 
L 214.756285 -323.167161 
L 216.225684 -326.689807 
L 217.555665 -330.212452 
L 218.740104 -333.735098 
L 219.779218 -337.257743 
L 220.679189 -340.780388 
L 221.451316 -344.303034 
L 222.110836 -347.825679 
L 222.675559 -351.348325 
L 223.164482 -354.87097 
L 223.596534 -358.393615 
L 223.989535 -361.916261 
L 224.359438 -365.438906 
L 224.719843 -368.961551 
L 225.081767 -372.484197 
L 225.453611 -376.006842 
L 225.841261 -379.529488 
L 226.248277 -383.052133 
L 226.676114 -386.574778 
L 227.124353 -390.097424 
L 227.590922 -393.620069 
L 228.072304 -397.142715 
L 228.563745 -400.66536 
L 229.059464 -404.188005 
L 229.552883 -407.710651 
L 230.036888 -411.233296 
L 230.50413 -414.755942 
L 230.94735 -418.278587 
L 231.359735 -421.801232 
L 231.735275 -425.323878 
L 232.069105 -428.846523 
L 232.357806 -432.369169 
L 232.599645 -435.891814 
L 232.794734 -439.414459 
L 232.945101 -442.937105 
L 233.054657 -446.45975 
L 233.129071 -449.982396 
L 233.17553 -453.505041 
L 233.202415 -457.027686 
L 233.218881 -460.550332 
L 233.234358 -464.072977 
L 233.25801 -467.595622 
L 233.29817 -471.118268 
L 233.361796 -474.640913 
L 233.454007 -478.163559 
L 233.577733 -481.686204 
L 233.733538 -485.208849 
L 233.919622 -488.731495 
L 234.132032 -492.25414 
L 234.365043 -495.776786 
L 234.611688 -499.299431 
L 234.864362 -502.822076 
L 235.11545 -506.344722 
L 235.3579 -509.867367 
L 235.585688 -513.390013 
L 235.794145 -516.912658 
L 235.980118 -520.435303 
L 236.141974 -523.957949 
L 236.279471 -527.480594 
L 236.393537 -531.00324 
L 236.485981 -534.525885 
L 237.039019 -534.525885 
L 237.039019 -534.525885 
L 237.131463 -531.00324 
L 237.245529 -527.480594 
L 237.383026 -523.957949 
L 237.544882 -520.435303 
L 237.730855 -516.912658 
L 237.939312 -513.390013 
L 238.1671 -509.867367 
L 238.40955 -506.344722 
L 238.660638 -502.822076 
L 238.913312 -499.299431 
L 239.159957 -495.776786 
L 239.392968 -492.25414 
L 239.605378 -488.731495 
L 239.791462 -485.208849 
L 239.947267 -481.686204 
L 240.070993 -478.163559 
L 240.163204 -474.640913 
L 240.22683 -471.118268 
L 240.26699 -467.595622 
L 240.290642 -464.072977 
L 240.306119 -460.550332 
L 240.322585 -457.027686 
L 240.34947 -453.505041 
L 240.395929 -449.982396 
L 240.470343 -446.45975 
L 240.579899 -442.937105 
L 240.730266 -439.414459 
L 240.925355 -435.891814 
L 241.167194 -432.369169 
L 241.455895 -428.846523 
L 241.789725 -425.323878 
L 242.165265 -421.801232 
L 242.57765 -418.278587 
L 243.02087 -414.755942 
L 243.488112 -411.233296 
L 243.972117 -407.710651 
L 244.465536 -404.188005 
L 244.961255 -400.66536 
L 245.452696 -397.142715 
L 245.934078 -393.620069 
L 246.400647 -390.097424 
L 246.848886 -386.574778 
L 247.276723 -383.052133 
L 247.683739 -379.529488 
L 248.071389 -376.006842 
L 248.443233 -372.484197 
L 248.805157 -368.961551 
L 249.165562 -365.438906 
L 249.535465 -361.916261 
L 249.928466 -358.393615 
L 250.360518 -354.87097 
L 250.849441 -351.348325 
L 251.414164 -347.825679 
L 252.073684 -344.303034 
L 252.845811 -340.780388 
L 253.745782 -337.257743 
L 254.784896 -333.735098 
L 255.969335 -330.212452 
L 257.299316 -326.689807 
L 258.768715 -323.167161 
L 260.365204 -319.644516 
L 262.070877 -316.121871 
L 263.863262 -312.599225 
L 265.716524 -309.07658 
L 267.602649 -305.553934 
L 269.492385 -302.031289 
L 271.355798 -298.508644 
L 273.162352 -294.985998 
L 274.880577 -291.463353 
L 276.477472 -287.940707 
L 277.917892 -284.418062 
L 279.164213 -280.895417 
L 280.176539 -277.372771 
L 280.913665 -273.850126 
L 281.334875 -270.327481 
L 281.4025 -266.804835 
L 281.085033 -263.28219 
L 280.36044 -259.759544 
L 279.219266 -256.236899 
L 277.667078 -252.714254 
L 275.725884 -249.191608 
L 273.434252 -245.668963 
L 270.846011 -242.146317 
L 268.027623 -238.623672 
L 265.054433 -235.101027 
L 262.00618 -231.578381 
L 258.962224 -228.055736 
L 255.996948 -224.53309 
L 253.175773 -221.010445 
L 250.552121 -217.4878 
L 248.165538 -213.965154 
L 246.041031 -210.442509 
L 244.189551 -206.919863 
L 242.609434 -203.397218 
L 241.288535 -199.874573 
L 240.206756 -196.351927 
L 239.338682 -192.829282 
L 238.656075 -189.306636 
L 238.13004 -185.783991 
z
" style="stroke: #3d3d3d; stroke-opacity: 0.5"/>
    </defs>
    <g clip-path="url(#pc6e9960ce6)">
     <use xlink:href="#m2ed5c2380a" x="0" y="722.183991" style="fill: #d684bd; fill-opacity: 0.5; stroke: #3d3d3d; stroke-opacity: 0.5"/>
    </g>
   </g>
   <g id="PolyCollection_3">
    <defs>
     <path id="mb23f3d6d7b" d="M 348.746111 -332.89276 
L 347.978889 -332.89276 
L 347.828313 -336.449325 
L 347.63298 -340.005891 
L 347.384893 -343.562456 
L 347.076217 -347.119021 
L 346.699705 -350.675587 
L 346.249138 -354.232152 
L 345.719724 -357.788717 
L 345.108433 -361.345283 
L 344.414247 -364.901848 
L 343.638311 -368.458413 
L 342.783994 -372.014979 
L 341.856828 -375.571544 
L 340.864343 -379.128109 
L 339.815726 -382.684675 
L 338.721283 -386.24124 
L 337.59166 -389.797805 
L 336.436797 -393.354371 
L 335.264682 -396.910936 
L 334.080003 -400.467501 
L 332.88291 -404.024067 
L 331.668124 -407.580632 
L 330.42468 -411.137197 
L 329.136511 -414.693763 
L 327.784007 -418.250328 
L 326.346518 -421.806893 
L 324.805585 -425.363459 
L 323.148538 -428.920024 
L 321.371962 -432.476589 
L 319.484499 -436.033155 
L 317.50849 -439.58972 
L 315.480107 -443.146285 
L 313.447797 -446.702851 
L 311.469156 -450.259416 
L 309.606523 -453.815981 
L 307.921856 -457.372547 
L 306.471517 -460.929112 
L 305.301656 -464.485677 
L 304.444781 -468.042243 
L 303.917915 -471.598808 
L 303.7225 -475.155373 
L 303.845945 -478.711939 
L 304.264447 -482.268504 
L 304.946581 -485.825069 
L 305.857053 -489.381635 
L 306.960091 -492.9382 
L 308.222049 -496.494765 
L 309.613022 -500.051331 
L 311.107469 -503.607896 
L 312.683996 -507.164461 
L 314.324603 -510.721027 
L 316.01369 -514.277592 
L 317.73711 -517.834157 
L 319.481438 -521.390723 
L 321.233546 -524.947288 
L 322.980446 -528.503853 
L 324.70931 -532.060419 
L 326.407564 -535.616984 
L 328.062944 -539.173549 
L 329.663472 -542.730115 
L 331.197371 -546.28668 
L 332.652958 -549.843245 
L 334.018617 -553.399811 
L 335.282933 -556.956376 
L 336.435041 -560.512941 
L 337.465213 -564.069507 
L 338.365652 -567.626072 
L 339.131396 -571.182637 
L 339.761235 -574.739203 
L 340.258481 -578.295768 
L 340.631466 -581.852333 
L 340.89365 -585.408899 
L 341.063257 -588.965464 
L 341.162425 -592.522029 
L 341.215901 -596.078595 
L 341.249411 -599.63516 
L 341.28784 -603.191725 
L 341.353447 -606.748291 
L 341.464315 -610.304856 
L 341.633201 -613.861421 
L 341.866937 -617.417987 
L 342.166404 -620.974552 
L 342.527064 -624.531117 
L 342.939927 -628.087683 
L 343.392816 -631.644248 
L 343.871726 -635.200813 
L 344.362141 -638.757378 
L 344.850163 -642.313944 
L 345.323376 -645.870509 
L 345.771427 -649.427074 
L 346.186325 -652.98364 
L 346.562512 -656.540205 
L 346.896754 -660.09677 
L 347.187906 -663.653336 
L 347.436606 -667.209901 
L 347.644923 -670.766466 
L 347.816004 -674.323032 
L 347.95372 -677.879597 
L 348.062341 -681.436162 
L 348.146252 -684.992728 
L 348.578748 -684.992728 
L 348.578748 -684.992728 
L 348.662659 -681.436162 
L 348.77128 -677.879597 
L 348.908996 -674.323032 
L 349.080077 -670.766466 
L 349.288394 -667.209901 
L 349.537094 -663.653336 
L 349.828246 -660.09677 
L 350.162488 -656.540205 
L 350.538675 -652.98364 
L 350.953573 -649.427074 
L 351.401624 -645.870509 
L 351.874837 -642.313944 
L 352.362859 -638.757378 
L 352.853274 -635.200813 
L 353.332184 -631.644248 
L 353.785073 -628.087683 
L 354.197936 -624.531117 
L 354.558596 -620.974552 
L 354.858063 -617.417987 
L 355.091799 -613.861421 
L 355.260685 -610.304856 
L 355.371553 -606.748291 
L 355.43716 -603.191725 
L 355.475589 -599.63516 
L 355.509099 -596.078595 
L 355.562575 -592.522029 
L 355.661743 -588.965464 
L 355.83135 -585.408899 
L 356.093534 -581.852333 
L 356.466519 -578.295768 
L 356.963765 -574.739203 
L 357.593604 -571.182637 
L 358.359348 -567.626072 
L 359.259787 -564.069507 
L 360.289959 -560.512941 
L 361.442067 -556.956376 
L 362.706383 -553.399811 
L 364.072042 -549.843245 
L 365.527629 -546.28668 
L 367.061528 -542.730115 
L 368.662056 -539.173549 
L 370.317436 -535.616984 
L 372.01569 -532.060419 
L 373.744554 -528.503853 
L 375.491454 -524.947288 
L 377.243562 -521.390723 
L 378.98789 -517.834157 
L 380.71131 -514.277592 
L 382.400397 -510.721027 
L 384.041004 -507.164461 
L 385.617531 -503.607896 
L 387.111978 -500.051331 
L 388.502951 -496.494765 
L 389.764909 -492.9382 
L 390.867947 -489.381635 
L 391.778419 -485.825069 
L 392.460553 -482.268504 
L 392.879055 -478.711939 
L 393.0025 -475.155373 
L 392.807085 -471.598808 
L 392.280219 -468.042243 
L 391.423344 -464.485677 
L 390.253483 -460.929112 
L 388.803144 -457.372547 
L 387.118477 -453.815981 
L 385.255844 -450.259416 
L 383.277203 -446.702851 
L 381.244893 -443.146285 
L 379.21651 -439.58972 
L 377.240501 -436.033155 
L 375.353038 -432.476589 
L 373.576462 -428.920024 
L 371.919415 -425.363459 
L 370.378482 -421.806893 
L 368.940993 -418.250328 
L 367.588489 -414.693763 
L 366.30032 -411.137197 
L 365.056876 -407.580632 
L 363.84209 -404.024067 
L 362.644997 -400.467501 
L 361.460318 -396.910936 
L 360.288203 -393.354371 
L 359.13334 -389.797805 
L 358.003717 -386.24124 
L 356.909274 -382.684675 
L 355.860657 -379.128109 
L 354.868172 -375.571544 
L 353.941006 -372.014979 
L 353.086689 -368.458413 
L 352.310753 -364.901848 
L 351.616567 -361.345283 
L 351.005276 -357.788717 
L 350.475862 -354.232152 
L 350.025295 -350.675587 
L 349.648783 -347.119021 
L 349.340107 -343.562456 
L 349.09202 -340.005891 
L 348.896687 -336.449325 
L 348.746111 -332.89276 
z
" style="stroke: #3d3d3d; stroke-opacity: 0.5"/>
    </defs>
    <g clip-path="url(#pc6e9960ce6)">
     <use xlink:href="#mb23f3d6d7b" x="0" y="722.183991" style="fill: #c03d3e; fill-opacity: 0.5; stroke: #3d3d3d; stroke-opacity: 0.5"/>
    </g>
   </g>
   <g id="PolyCollection_4">
    <defs>
     <path id="m092126890a" d="M 460.723625 -231.580813 
L 459.201375 -231.580813 
L 458.893326 -235.774341 
L 458.487483 -239.967868 
L 457.963519 -244.161396 
L 457.300559 -248.354924 
L 456.478385 -252.548451 
L 455.478893 -256.741979 
L 454.287681 -260.935506 
L 452.895644 -265.129034 
L 451.300392 -269.322562 
L 449.507341 -273.516089 
L 447.530301 -277.709617 
L 445.391461 -281.903145 
L 443.120705 -286.096672 
L 440.754284 -290.2902 
L 438.332936 -294.483727 
L 435.899605 -298.677255 
L 433.496976 -302.870783 
L 431.165072 -307.06431 
L 428.93913 -311.257838 
L 426.848008 -315.451366 
L 424.913261 -319.644893 
L 423.149011 -323.838421 
L 421.562616 -328.031948 
L 420.156068 -332.225476 
L 418.927946 -336.419004 
L 417.875673 -340.612531 
L 416.997756 -344.806059 
L 416.295671 -348.999586 
L 415.775069 -353.193114 
L 415.446068 -357.386642 
L 415.3225 -361.580169 
L 415.420155 -365.773697 
L 415.754231 -369.967225 
L 416.336332 -374.160752 
L 417.171478 -378.35428 
L 418.255602 -382.547807 
L 419.573947 -386.741335 
L 421.100665 -390.934863 
L 422.79972 -395.12839 
L 424.626989 -399.321918 
L 426.533298 -403.515446 
L 428.467978 -407.708973 
L 430.382472 -411.902501 
L 432.23358 -416.096028 
L 433.985978 -420.289556 
L 435.613818 -424.483084 
L 437.101346 -428.676611 
L 438.442613 -432.870139 
L 439.640438 -437.063667 
L 440.704855 -441.257194 
L 441.65125 -445.450722 
L 442.498407 -449.644249 
L 443.266613 -453.837777 
L 443.975936 -458.031305 
L 444.644757 -462.224832 
L 445.288606 -466.41836 
L 445.919326 -470.611887 
L 446.544602 -474.805415 
L 447.167854 -478.998943 
L 447.788498 -483.19247 
L 448.402548 -487.385998 
L 449.003489 -491.579526 
L 449.583365 -495.773053 
L 450.133939 -499.966581 
L 450.647816 -504.160108 
L 451.119401 -508.353636 
L 451.545579 -512.547164 
L 451.926068 -516.740691 
L 452.263396 -520.934219 
L 452.562567 -525.127747 
L 452.830457 -529.321274 
L 453.075073 -533.514802 
L 453.304772 -537.708329 
L 453.527555 -541.901857 
L 453.750504 -546.095385 
L 453.979421 -550.288912 
L 454.218659 -554.48244 
L 454.471115 -558.675968 
L 454.738346 -562.869495 
L 455.020745 -567.063023 
L 455.317711 -571.25655 
L 455.627808 -575.450078 
L 455.948874 -579.643606 
L 456.278091 -583.837133 
L 456.612053 -588.030661 
L 456.946843 -592.224188 
L 457.278147 -596.417716 
L 457.60142 -600.611244 
L 457.91211 -604.804771 
L 458.205906 -608.998299 
L 458.479 -613.191827 
L 458.728321 -617.385354 
L 458.951712 -621.578882 
L 459.14803 -625.772409 
L 459.31716 -629.965937 
L 459.459938 -634.159465 
L 459.578005 -638.352992 
L 459.673616 -642.54652 
L 459.749422 -646.740048 
L 460.175578 -646.740048 
L 460.175578 -646.740048 
L 460.251384 -642.54652 
L 460.346995 -638.352992 
L 460.465062 -634.159465 
L 460.60784 -629.965937 
L 460.77697 -625.772409 
L 460.973288 -621.578882 
L 461.196679 -617.385354 
L 461.446 -613.191827 
L 461.719094 -608.998299 
L 462.01289 -604.804771 
L 462.32358 -600.611244 
L 462.646853 -596.417716 
L 462.978157 -592.224188 
L 463.312947 -588.030661 
L 463.646909 -583.837133 
L 463.976126 -579.643606 
L 464.297192 -575.450078 
L 464.607289 -571.25655 
L 464.904255 -567.063023 
L 465.186654 -562.869495 
L 465.453885 -558.675968 
L 465.706341 -554.48244 
L 465.945579 -550.288912 
L 466.174496 -546.095385 
L 466.397445 -541.901857 
L 466.620228 -537.708329 
L 466.849927 -533.514802 
L 467.094543 -529.321274 
L 467.362433 -525.127747 
L 467.661604 -520.934219 
L 467.998932 -516.740691 
L 468.379421 -512.547164 
L 468.805599 -508.353636 
L 469.277184 -504.160108 
L 469.791061 -499.966581 
L 470.341635 -495.773053 
L 470.921511 -491.579526 
L 471.522452 -487.385998 
L 472.136502 -483.19247 
L 472.757146 -478.998943 
L 473.380398 -474.805415 
L 474.005674 -470.611887 
L 474.636394 -466.41836 
L 475.280243 -462.224832 
L 475.949064 -458.031305 
L 476.658387 -453.837777 
L 477.426593 -449.644249 
L 478.27375 -445.450722 
L 479.220145 -441.257194 
L 480.284562 -437.063667 
L 481.482387 -432.870139 
L 482.823654 -428.676611 
L 484.311182 -424.483084 
L 485.939022 -420.289556 
L 487.69142 -416.096028 
L 489.542528 -411.902501 
L 491.457022 -407.708973 
L 493.391702 -403.515446 
L 495.298011 -399.321918 
L 497.12528 -395.12839 
L 498.824335 -390.934863 
L 500.351053 -386.741335 
L 501.669398 -382.547807 
L 502.753522 -378.35428 
L 503.588668 -374.160752 
L 504.170769 -369.967225 
L 504.504845 -365.773697 
L 504.6025 -361.580169 
L 504.478932 -357.386642 
L 504.149931 -353.193114 
L 503.629329 -348.999586 
L 502.927244 -344.806059 
L 502.049327 -340.612531 
L 500.997054 -336.419004 
L 499.768932 -332.225476 
L 498.362384 -328.031948 
L 496.775989 -323.838421 
L 495.011739 -319.644893 
L 493.076992 -315.451366 
L 490.98587 -311.257838 
L 488.759928 -307.06431 
L 486.428024 -302.870783 
L 484.025395 -298.677255 
L 481.592064 -294.483727 
L 479.170716 -290.2902 
L 476.804295 -286.096672 
L 474.533539 -281.903145 
L 472.394699 -277.709617 
L 470.417659 -273.516089 
L 468.624608 -269.322562 
L 467.029356 -265.129034 
L 465.637319 -260.935506 
L 464.446107 -256.741979 
L 463.446615 -252.548451 
L 462.624441 -248.354924 
L 461.961481 -244.161396 
L 461.437517 -239.967868 
L 461.031674 -235.774341 
L 460.723625 -231.580813 
z
" style="stroke: #3d3d3d; stroke-opacity: 0.5"/>
    </defs>
    <g clip-path="url(#pc6e9960ce6)">
     <use xlink:href="#m092126890a" x="0" y="722.183991" style="fill: #9372b2; fill-opacity: 0.5; stroke: #3d3d3d; stroke-opacity: 0.5"/>
    </g>
   </g>
   <g id="PolyCollection_5">
    <defs>
     <path id="me1242a0aa1" d="M 572.61283 -229.719685 
L 570.51217 -229.719685 
L 570.057518 -234.230772 
L 569.450886 -238.741859 
L 568.660608 -243.252946 
L 567.655436 -247.764033 
L 566.40718 -252.27512 
L 564.893742 -256.786207 
L 563.102231 -261.297294 
L 561.031793 -265.808381 
L 558.695736 -270.319468 
L 556.122564 -274.830555 
L 553.355659 -279.341642 
L 550.451487 -283.852729 
L 547.476468 -288.363816 
L 544.502785 -292.874903 
L 541.603651 -297.38599 
L 538.848582 -301.897077 
L 536.299272 -306.408164 
L 534.006524 -310.919251 
L 532.008561 -315.430338 
L 530.330754 -319.941425 
L 528.986641 -324.452512 
L 527.979879 -328.963599 
L 527.306667 -333.474686 
L 526.958167 -337.985773 
L 526.9225 -342.49686 
L 527.186032 -347.007947 
L 527.733864 -351.519034 
L 528.549589 -356.030121 
L 529.614576 -360.541208 
L 530.907058 -365.052295 
L 532.401394 -369.563382 
L 534.067718 -374.074469 
L 535.872161 -378.585556 
L 537.777618 -383.096643 
L 539.744971 -387.60773 
L 541.734558 -392.118817 
L 543.707698 -396.629904 
L 545.628073 -401.140991 
L 547.462903 -405.652078 
L 549.183867 -410.163165 
L 550.767839 -414.674252 
L 552.197493 -419.185339 
L 553.461841 -423.696426 
L 554.556671 -428.207513 
L 555.484838 -432.7186 
L 556.256267 -437.229687 
L 556.887529 -441.740774 
L 557.400899 -446.251861 
L 557.822875 -450.762948 
L 558.182206 -455.274035 
L 558.507635 -459.785122 
L 558.825588 -464.296209 
L 559.158095 -468.807296 
L 559.521204 -473.318383 
L 559.924087 -477.82947 
L 560.368946 -482.340557 
L 560.851705 -486.851644 
L 561.363373 -491.362731 
L 561.89188 -495.873818 
L 562.424119 -500.384905 
L 562.947923 -504.895992 
L 563.453709 -509.407079 
L 563.935576 -513.918166 
L 564.39175 -518.429253 
L 564.824326 -522.94034 
L 565.238392 -527.451427 
L 565.640713 -531.962514 
L 566.038181 -536.473601 
L 566.436326 -540.984688 
L 566.838101 -545.495775 
L 567.243151 -550.006862 
L 567.64767 -554.517949 
L 568.044834 -559.029036 
L 568.425745 -563.540123 
L 568.780694 -568.05121 
L 569.100545 -572.562297 
L 569.378026 -577.073384 
L 569.608735 -581.584471 
L 569.79173 -586.095558 
L 569.929645 -590.606645 
L 570.028345 -595.117732 
L 570.096177 -599.628819 
L 570.142976 -604.139906 
L 570.178933 -608.650993 
L 570.213517 -613.16208 
L 570.254561 -617.673167 
L 570.307624 -622.184254 
L 570.375691 -626.695341 
L 570.4592 -631.206428 
L 570.556372 -635.717515 
L 570.663754 -640.228602 
L 570.776876 -644.739689 
L 570.890931 -649.250776 
L 571.00137 -653.761863 
L 571.104362 -658.272949 
L 571.197077 -662.784036 
L 571.277791 -667.295123 
L 571.345845 -671.80621 
L 571.401484 -676.317297 
L 571.723516 -676.317297 
L 571.723516 -676.317297 
L 571.779155 -671.80621 
L 571.847209 -667.295123 
L 571.927923 -662.784036 
L 572.020638 -658.272949 
L 572.12363 -653.761863 
L 572.234069 -649.250776 
L 572.348124 -644.739689 
L 572.461246 -640.228602 
L 572.568628 -635.717515 
L 572.6658 -631.206428 
L 572.749309 -626.695341 
L 572.817376 -622.184254 
L 572.870439 -617.673167 
L 572.911483 -613.16208 
L 572.946067 -608.650993 
L 572.982024 -604.139906 
L 573.028823 -599.628819 
L 573.096655 -595.117732 
L 573.195355 -590.606645 
L 573.33327 -586.095558 
L 573.516265 -581.584471 
L 573.746974 -577.073384 
L 574.024455 -572.562297 
L 574.344306 -568.05121 
L 574.699255 -563.540123 
L 575.080166 -559.029036 
L 575.47733 -554.517949 
L 575.881849 -550.006862 
L 576.286899 -545.495775 
L 576.688674 -540.984688 
L 577.086819 -536.473601 
L 577.484287 -531.962514 
L 577.886608 -527.451427 
L 578.300674 -522.94034 
L 578.73325 -518.429253 
L 579.189424 -513.918166 
L 579.671291 -509.407079 
L 580.177077 -504.895992 
L 580.700881 -500.384905 
L 581.23312 -495.873818 
L 581.761627 -491.362731 
L 582.273295 -486.851644 
L 582.756054 -482.340557 
L 583.200913 -477.82947 
L 583.603796 -473.318383 
L 583.966905 -468.807296 
L 584.299412 -464.296209 
L 584.617365 -459.785122 
L 584.942794 -455.274035 
L 585.302125 -450.762948 
L 585.724101 -446.251861 
L 586.237471 -441.740774 
L 586.868733 -437.229687 
L 587.640162 -432.7186 
L 588.568329 -428.207513 
L 589.663159 -423.696426 
L 590.927507 -419.185339 
L 592.357161 -414.674252 
L 593.941133 -410.163165 
L 595.662097 -405.652078 
L 597.496927 -401.140991 
L 599.417302 -396.629904 
L 601.390442 -392.118817 
L 603.380029 -387.60773 
L 605.347382 -383.096643 
L 607.252839 -378.585556 
L 609.057282 -374.074469 
L 610.723606 -369.563382 
L 612.217942 -365.052295 
L 613.510424 -360.541208 
L 614.575411 -356.030121 
L 615.391136 -351.519034 
L 615.938968 -347.007947 
L 616.2025 -342.49686 
L 616.166833 -337.985773 
L 615.818333 -333.474686 
L 615.145121 -328.963599 
L 614.138359 -324.452512 
L 612.794246 -319.941425 
L 611.116439 -315.430338 
L 609.118476 -310.919251 
L 606.825728 -306.408164 
L 604.276418 -301.897077 
L 601.521349 -297.38599 
L 598.622215 -292.874903 
L 595.648532 -288.363816 
L 592.673513 -283.852729 
L 589.769341 -279.341642 
L 587.002436 -274.830555 
L 584.429264 -270.319468 
L 582.093207 -265.808381 
L 580.022769 -261.297294 
L 578.231258 -256.786207 
L 576.71782 -252.27512 
L 575.469564 -247.764033 
L 574.464392 -243.252946 
L 573.674114 -238.741859 
L 573.067482 -234.230772 
L 572.61283 -229.719685 
z
" style="stroke: #3d3d3d; stroke-opacity: 0.5"/>
    </defs>
    <g clip-path="url(#pc6e9960ce6)">
     <use xlink:href="#me1242a0aa1" x="0" y="722.183991" style="fill: #845b53; fill-opacity: 0.5; stroke: #3d3d3d; stroke-opacity: 0.5"/>
    </g>
   </g>
   <g id="PolyCollection_6">
    <defs>
     <path id="me5b41882b4" d="M 683.819574 -187.096525 
L 682.505426 -187.096525 
L 682.168577 -191.450894 
L 681.696463 -195.805263 
L 681.053053 -200.159632 
L 680.20027 -204.514001 
L 679.100777 -208.868369 
L 677.721484 -213.222738 
L 676.037422 -217.577107 
L 674.035523 -221.931476 
L 671.717755 -226.285844 
L 669.10313 -230.640213 
L 666.228275 -234.994582 
L 663.146502 -239.348951 
L 659.925603 -243.703319 
L 656.64476 -248.057688 
L 653.39105 -252.412057 
L 650.255883 -256.766426 
L 647.331523 -261.120795 
L 644.707558 -265.475163 
L 642.467076 -269.829532 
L 640.682332 -274.183901 
L 639.409955 -278.53827 
L 638.686125 -282.892638 
L 638.5225 -287.247007 
L 638.903869 -291.601376 
L 639.788372 -295.955745 
L 641.110708 -300.310114 
L 642.788143 -304.664482 
L 644.728499 -309.018851 
L 646.838838 -313.37322 
L 649.033443 -317.727589 
L 651.239903 -322.081957 
L 653.402579 -326.436326 
L 655.483348 -330.790695 
L 657.460032 -335.145064 
L 659.323288 -339.499432 
L 661.072834 -343.853801 
L 662.713803 -348.20817 
L 664.253731 -352.562539 
L 665.700463 -356.916908 
L 667.060957 -361.271276 
L 668.34083 -365.625645 
L 669.544406 -369.980014 
L 670.675004 -374.334383 
L 671.735257 -378.688751 
L 672.727306 -383.04312 
L 673.652802 -387.397489 
L 674.512717 -391.751858 
L 675.307039 -396.106226 
L 676.034485 -400.460595 
L 676.692384 -404.814964 
L 677.276851 -409.169333 
L 677.783366 -413.523702 
L 678.207742 -417.87807 
L 678.547393 -422.232439 
L 678.802745 -426.586808 
L 678.978507 -430.941177 
L 679.084544 -435.295545 
L 679.136065 -439.649914 
L 679.152964 -444.004283 
L 679.158263 -448.358652 
L 679.175808 -452.71302 
L 679.227537 -457.067389 
L 679.330767 -461.421758 
L 679.496016 -465.776127 
L 679.725756 -470.130496 
L 680.014362 -474.484864 
L 680.349242 -478.839233 
L 680.712913 -483.193602 
L 681.085591 -487.547971 
L 681.447799 -491.902339 
L 681.782545 -496.256708 
L 682.076759 -500.611077 
L 682.321896 -504.965446 
L 682.513776 -509.319814 
L 682.6519 -513.674183 
L 682.738519 -518.028552 
L 682.777739 -522.382921 
L 682.774849 -526.73729 
L 682.735949 -531.091658 
L 682.667853 -535.446027 
L 682.578142 -539.800396 
L 682.475214 -544.154765 
L 682.368181 -548.509133 
L 682.266508 -552.863502 
L 682.179394 -557.217871 
L 682.114955 -561.57224 
L 682.079375 -565.926608 
L 682.076189 -570.280977 
L 682.105874 -574.635346 
L 682.165851 -578.989715 
L 682.25091 -583.344084 
L 682.353991 -587.698452 
L 682.467166 -592.052821 
L 682.582639 -596.40719 
L 682.693606 -600.761559 
L 682.79484 -605.115927 
L 682.882964 -609.470296 
L 682.956413 -613.824665 
L 683.015173 -618.179034 
L 683.309827 -618.179034 
L 683.309827 -618.179034 
L 683.368587 -613.824665 
L 683.442036 -609.470296 
L 683.53016 -605.115927 
L 683.631394 -600.761559 
L 683.742361 -596.40719 
L 683.857834 -592.052821 
L 683.971009 -587.698452 
L 684.07409 -583.344084 
L 684.159149 -578.989715 
L 684.219126 -574.635346 
L 684.248811 -570.280977 
L 684.245625 -565.926608 
L 684.210045 -561.57224 
L 684.145606 -557.217871 
L 684.058492 -552.863502 
L 683.956819 -548.509133 
L 683.849786 -544.154765 
L 683.746858 -539.800396 
L 683.657147 -535.446027 
L 683.589051 -531.091658 
L 683.550151 -526.73729 
L 683.547261 -522.382921 
L 683.586481 -518.028552 
L 683.6731 -513.674183 
L 683.811224 -509.319814 
L 684.003104 -504.965446 
L 684.248241 -500.611077 
L 684.542455 -496.256708 
L 684.877201 -491.902339 
L 685.239409 -487.547971 
L 685.612087 -483.193602 
L 685.975758 -478.839233 
L 686.310638 -474.484864 
L 686.599244 -470.130496 
L 686.828984 -465.776127 
L 686.994233 -461.421758 
L 687.097463 -457.067389 
L 687.149192 -452.71302 
L 687.166737 -448.358652 
L 687.172036 -444.004283 
L 687.188935 -439.649914 
L 687.240456 -435.295545 
L 687.346493 -430.941177 
L 687.522255 -426.586808 
L 687.777607 -422.232439 
L 688.117258 -417.87807 
L 688.541634 -413.523702 
L 689.048149 -409.169333 
L 689.632616 -404.814964 
L 690.290515 -400.460595 
L 691.017961 -396.106226 
L 691.812283 -391.751858 
L 692.672198 -387.397489 
L 693.597694 -383.04312 
L 694.589743 -378.688751 
L 695.649996 -374.334383 
L 696.780594 -369.980014 
L 697.98417 -365.625645 
L 699.264043 -361.271276 
L 700.624537 -356.916908 
L 702.071269 -352.562539 
L 703.611197 -348.20817 
L 705.252166 -343.853801 
L 707.001712 -339.499432 
L 708.864968 -335.145064 
L 710.841652 -330.790695 
L 712.922421 -326.436326 
L 715.085097 -322.081957 
L 717.291557 -317.727589 
L 719.486162 -313.37322 
L 721.596501 -309.018851 
L 723.536857 -304.664482 
L 725.214292 -300.310114 
L 726.536628 -295.955745 
L 727.421131 -291.601376 
L 727.8025 -287.247007 
L 727.638875 -282.892638 
L 726.915045 -278.53827 
L 725.642668 -274.183901 
L 723.857924 -269.829532 
L 721.617442 -265.475163 
L 718.993477 -261.120795 
L 716.069117 -256.766426 
L 712.93395 -252.412057 
L 709.68024 -248.057688 
L 706.399397 -243.703319 
L 703.178498 -239.348951 
L 700.096725 -234.994582 
L 697.22187 -230.640213 
L 694.607245 -226.285844 
L 692.289477 -221.931476 
L 690.287578 -217.577107 
L 688.603516 -213.222738 
L 687.224223 -208.868369 
L 686.12473 -204.514001 
L 685.271947 -200.159632 
L 684.628537 -195.805263 
L 684.156423 -191.450894 
L 683.819574 -187.096525 
z
" style="stroke: #3d3d3d; stroke-opacity: 0.5"/>
    </defs>
    <g clip-path="url(#pc6e9960ce6)">
     <use xlink:href="#me5b41882b4" x="0" y="722.183991" style="fill: #e1812c; fill-opacity: 0.5; stroke: #3d3d3d; stroke-opacity: 0.5"/>
    </g>
   </g>
   <g id="PolyCollection_7">
    <defs>
     <path id="mc968dcb4c2" d="M 795.555853 -191.093538 
L 793.969147 -191.093538 
L 793.618444 -195.599472 
L 793.144877 -200.105406 
L 792.51924 -204.61134 
L 791.710513 -209.117275 
L 790.687586 -213.623209 
L 789.421488 -218.129143 
L 787.888045 -222.635077 
L 786.070755 -227.141011 
L 783.963641 -231.646946 
L 781.573758 -236.15288 
L 778.923052 -240.658814 
L 776.049264 -245.164748 
L 773.005676 -249.670682 
L 769.859589 -254.176616 
L 766.689573 -258.682551 
L 763.581657 -263.188485 
L 760.624782 -267.694419 
L 757.905882 -272.200353 
L 755.505047 -276.706287 
L 753.491154 -281.212221 
L 751.91833 -285.718156 
L 750.823471 -290.22409 
L 750.224946 -294.730024 
L 750.1225 -299.235958 
L 750.498255 -303.741892 
L 751.318648 -308.247827 
L 752.537103 -312.753761 
L 754.09719 -317.259695 
L 755.936025 -321.765629 
L 757.987667 -326.271563 
L 760.186283 -330.777497 
L 762.468879 -335.283432 
L 764.777447 -339.789366 
L 767.060456 -344.2953 
L 769.273665 -348.801234 
L 771.380362 -353.307168 
L 773.351152 -357.813103 
L 775.163484 -362.319037 
L 776.801127 -366.824971 
L 778.253721 -371.330905 
L 779.51652 -375.836839 
L 780.590309 -380.342773 
L 781.481432 -384.848708 
L 782.20177 -389.354642 
L 782.768512 -393.860576 
L 783.203563 -398.36651 
L 783.532482 -402.872444 
L 783.78297 -407.378378 
L 783.982991 -411.884313 
L 784.158734 -416.390247 
L 784.332664 -420.896181 
L 784.521953 -425.402115 
L 784.737524 -429.908049 
L 784.983859 -434.413984 
L 785.259628 -438.919918 
L 785.559029 -443.425852 
L 785.87363 -447.931786 
L 786.194415 -452.43772 
L 786.513702 -456.943654 
L 786.826625 -461.449589 
L 787.131967 -465.955523 
L 787.432238 -470.461457 
L 787.733027 -474.967391 
L 788.041801 -479.473325 
L 788.366367 -483.97926 
L 788.71331 -488.485194 
L 789.086642 -492.991128 
L 789.486891 -497.497062 
L 789.910725 -502.002996 
L 790.351152 -506.50893 
L 790.798201 -511.014865 
L 791.239973 -515.520799 
L 791.663877 -520.026733 
L 792.057902 -524.532667 
L 792.411756 -529.038601 
L 792.717783 -533.544535 
L 792.971561 -538.05047 
L 793.17217 -542.556404 
L 793.322121 -547.062338 
L 793.426977 -551.568272 
L 793.494715 -556.074206 
L 793.534904 -560.580141 
L 793.557783 -565.086075 
L 793.573318 -569.592009 
L 793.590355 -574.097943 
L 793.615936 -578.603877 
L 793.65485 -583.109811 
L 793.709455 -587.615746 
L 793.77978 -592.12168 
L 793.863859 -596.627614 
L 793.958249 -601.133548 
L 794.058631 -605.639482 
L 794.160432 -610.145416 
L 794.259357 -614.651351 
L 794.351803 -619.157285 
L 794.435113 -623.663219 
L 794.507663 -628.169153 
L 794.568818 -632.675087 
L 794.618778 -637.181022 
L 794.906222 -637.181022 
L 794.906222 -637.181022 
L 794.956182 -632.675087 
L 795.017337 -628.169153 
L 795.089887 -623.663219 
L 795.173197 -619.157285 
L 795.265643 -614.651351 
L 795.364568 -610.145416 
L 795.466369 -605.639482 
L 795.566751 -601.133548 
L 795.661141 -596.627614 
L 795.74522 -592.12168 
L 795.815545 -587.615746 
L 795.87015 -583.109811 
L 795.909064 -578.603877 
L 795.934645 -574.097943 
L 795.951682 -569.592009 
L 795.967217 -565.086075 
L 795.990096 -560.580141 
L 796.030285 -556.074206 
L 796.098023 -551.568272 
L 796.202879 -547.062338 
L 796.35283 -542.556404 
L 796.553439 -538.05047 
L 796.807217 -533.544535 
L 797.113244 -529.038601 
L 797.467098 -524.532667 
L 797.861123 -520.026733 
L 798.285027 -515.520799 
L 798.726799 -511.014865 
L 799.173848 -506.50893 
L 799.614275 -502.002996 
L 800.038109 -497.497062 
L 800.438358 -492.991128 
L 800.81169 -488.485194 
L 801.158633 -483.97926 
L 801.483199 -479.473325 
L 801.791973 -474.967391 
L 802.092762 -470.461457 
L 802.393033 -465.955523 
L 802.698375 -461.449589 
L 803.011298 -456.943654 
L 803.330585 -452.43772 
L 803.65137 -447.931786 
L 803.965971 -443.425852 
L 804.265372 -438.919918 
L 804.541141 -434.413984 
L 804.787476 -429.908049 
L 805.003047 -425.402115 
L 805.192336 -420.896181 
L 805.366266 -416.390247 
L 805.542009 -411.884313 
L 805.74203 -407.378378 
L 805.992518 -402.872444 
L 806.321437 -398.36651 
L 806.756488 -393.860576 
L 807.32323 -389.354642 
L 808.043568 -384.848708 
L 808.934691 -380.342773 
L 810.00848 -375.836839 
L 811.271279 -371.330905 
L 812.723873 -366.824971 
L 814.361516 -362.319037 
L 816.173848 -357.813103 
L 818.144638 -353.307168 
L 820.251335 -348.801234 
L 822.464544 -344.2953 
L 824.747553 -339.789366 
L 827.056121 -335.283432 
L 829.338717 -330.777497 
L 831.537333 -326.271563 
L 833.588975 -321.765629 
L 835.42781 -317.259695 
L 836.987897 -312.753761 
L 838.206352 -308.247827 
L 839.026745 -303.741892 
L 839.4025 -299.235958 
L 839.300054 -294.730024 
L 838.701529 -290.22409 
L 837.60667 -285.718156 
L 836.033846 -281.212221 
L 834.019953 -276.706287 
L 831.619118 -272.200353 
L 828.900218 -267.694419 
L 825.943343 -263.188485 
L 822.835427 -258.682551 
L 819.665411 -254.176616 
L 816.519324 -249.670682 
L 813.475736 -245.164748 
L 810.601948 -240.658814 
L 807.951242 -236.15288 
L 805.561359 -231.646946 
L 803.454245 -227.141011 
L 801.636955 -222.635077 
L 800.103512 -218.129143 
L 798.837414 -213.623209 
L 797.814487 -209.117275 
L 797.00576 -204.61134 
L 796.380123 -200.105406 
L 795.906556 -195.599472 
L 795.555853 -191.093538 
z
" style="stroke: #3d3d3d; stroke-opacity: 0.5"/>
    </defs>
    <g clip-path="url(#pc6e9960ce6)">
     <use xlink:href="#mc968dcb4c2" x="0" y="722.183991" style="fill: #3a923a; fill-opacity: 0.5; stroke: #3d3d3d; stroke-opacity: 0.5"/>
    </g>
   </g>
   <g id="line2d_8">
    <path d="M 125.1625 449.366899 
L 125.1625 189.054192 
" clip-path="url(#pc6e9960ce6)" style="fill: none; stroke: #3d3d3d; stroke-width: 1.5; stroke-linecap: round"/>
   </g>
   <g id="line2d_9">
    <path d="M 125.1625 374.762699 
L 125.1625 297.792397 
" clip-path="url(#pc6e9960ce6)" style="fill: none; stroke: #3d3d3d; stroke-width: 4.5; stroke-linecap: round"/>
   </g>
   <g id="line2d_10">
    <path d="M 125.1625 340.26465 
" clip-path="url(#pc6e9960ce6)" style="fill: none; stroke: #3d3d3d; stroke-width: 1.5; stroke-linecap: round"/>
    <defs>
     <path id="m8106ef2637" d="M 1.875 0 
L -1.875 -0 
" style="stroke: #ffffff; stroke-width: 0.9"/>
    </defs>
    <g clip-path="url(#pc6e9960ce6)">
     <use xlink:href="#m8106ef2637" x="125.1625" y="340.26465" style="fill: #ffffff; stroke: #ffffff; stroke-width: 0.9"/>
    </g>
   </g>
   <g id="line2d_11">
    <path d="M 236.7625 486.736207 
L 236.7625 312.297977 
" clip-path="url(#pc6e9960ce6)" style="fill: none; stroke: #3d3d3d; stroke-width: 1.5; stroke-linecap: round"/>
   </g>
   <g id="line2d_12">
    <path d="M 236.7625 462.853477 
L 236.7625 401.071514 
" clip-path="url(#pc6e9960ce6)" style="fill: none; stroke: #3d3d3d; stroke-width: 4.5; stroke-linecap: round"/>
   </g>
   <g id="line2d_13">
    <path d="M 236.7625 437.815932 
" clip-path="url(#pc6e9960ce6)" style="fill: none; stroke: #3d3d3d; stroke-width: 1.5; stroke-linecap: round"/>
    <g clip-path="url(#pc6e9960ce6)">
     <use xlink:href="#m8106ef2637" x="236.7625" y="437.815932" style="fill: #ffffff; stroke: #ffffff; stroke-width: 0.9"/>
    </g>
   </g>
   <g id="line2d_14">
    <path d="M 348.3625 342.972306 
L 348.3625 135.723788 
" clip-path="url(#pc6e9960ce6)" style="fill: none; stroke: #3d3d3d; stroke-width: 1.5; stroke-linecap: round"/>
   </g>
   <g id="line2d_15">
    <path d="M 348.3625 267.505277 
L 348.3625 207.375635 
" clip-path="url(#pc6e9960ce6)" style="fill: none; stroke: #3d3d3d; stroke-width: 4.5; stroke-linecap: round"/>
   </g>
   <g id="line2d_16">
    <path d="M 348.3625 244.089959 
" clip-path="url(#pc6e9960ce6)" style="fill: none; stroke: #3d3d3d; stroke-width: 1.5; stroke-linecap: round"/>
    <g clip-path="url(#pc6e9960ce6)">
     <use xlink:href="#m8106ef2637" x="348.3625" y="244.089959" style="fill: #ffffff; stroke: #ffffff; stroke-width: 0.9"/>
    </g>
   </g>
   <g id="line2d_17">
    <path d="M 459.9625 433.002775 
L 459.9625 173.01821 
" clip-path="url(#pc6e9960ce6)" style="fill: none; stroke: #3d3d3d; stroke-width: 1.5; stroke-linecap: round"/>
   </g>
   <g id="line2d_18">
    <path d="M 459.9625 386.090172 
L 459.9625 299.624318 
" clip-path="url(#pc6e9960ce6)" style="fill: none; stroke: #3d3d3d; stroke-width: 4.5; stroke-linecap: round"/>
   </g>
   <g id="line2d_19">
    <path d="M 459.9625 345.254117 
" clip-path="url(#pc6e9960ce6)" style="fill: none; stroke: #3d3d3d; stroke-width: 1.5; stroke-linecap: round"/>
    <g clip-path="url(#pc6e9960ce6)">
     <use xlink:href="#m8106ef2637" x="459.9625" y="345.254117" style="fill: #ffffff; stroke: #ffffff; stroke-width: 0.9"/>
    </g>
   </g>
   <g id="line2d_20">
    <path d="M 571.5625 433.954792 
L 571.5625 190.235137 
" clip-path="url(#pc6e9960ce6)" style="fill: none; stroke: #3d3d3d; stroke-width: 1.5; stroke-linecap: round"/>
   </g>
   <g id="line2d_21">
    <path d="M 571.5625 398.992997 
L 571.5625 313.780114 
" clip-path="url(#pc6e9960ce6)" style="fill: none; stroke: #3d3d3d; stroke-width: 4.5; stroke-linecap: round"/>
   </g>
   <g id="line2d_22">
    <path d="M 571.5625 366.255734 
" clip-path="url(#pc6e9960ce6)" style="fill: none; stroke: #3d3d3d; stroke-width: 1.5; stroke-linecap: round"/>
    <g clip-path="url(#pc6e9960ce6)">
     <use xlink:href="#m8106ef2637" x="571.5625" y="366.255734" style="fill: #ffffff; stroke: #ffffff; stroke-width: 0.9"/>
    </g>
   </g>
   <g id="line2d_23">
    <path d="M 683.1625 485.471889 
L 683.1625 316.963802 
" clip-path="url(#pc6e9960ce6)" style="fill: none; stroke: #3d3d3d; stroke-width: 1.5; stroke-linecap: round"/>
   </g>
   <g id="line2d_24">
    <path d="M 683.1625 444.296295 
L 683.1625 388.589067 
" clip-path="url(#pc6e9960ce6)" style="fill: none; stroke: #3d3d3d; stroke-width: 4.5; stroke-linecap: round"/>
   </g>
   <g id="line2d_25">
    <path d="M 683.1625 425.409945 
" clip-path="url(#pc6e9960ce6)" style="fill: none; stroke: #3d3d3d; stroke-width: 1.5; stroke-linecap: round"/>
    <g clip-path="url(#pc6e9960ce6)">
     <use xlink:href="#m8106ef2637" x="683.1625" y="425.409945" style="fill: #ffffff; stroke: #ffffff; stroke-width: 0.9"/>
    </g>
   </g>
   <g id="line2d_26">
    <path d="M 794.7625 472.972978 
L 794.7625 250.092368 
" clip-path="url(#pc6e9960ce6)" style="fill: none; stroke: #3d3d3d; stroke-width: 1.5; stroke-linecap: round"/>
   </g>
   <g id="line2d_27">
    <path d="M 794.7625 438.003839 
L 794.7625 361.548384 
" clip-path="url(#pc6e9960ce6)" style="fill: none; stroke: #3d3d3d; stroke-width: 4.5; stroke-linecap: round"/>
   </g>
   <g id="line2d_28">
    <path d="M 794.7625 412.211366 
" clip-path="url(#pc6e9960ce6)" style="fill: none; stroke: #3d3d3d; stroke-width: 1.5; stroke-linecap: round"/>
    <g clip-path="url(#pc6e9960ce6)">
     <use xlink:href="#m8106ef2637" x="794.7625" y="412.211366" style="fill: #ffffff; stroke: #ffffff; stroke-width: 0.9"/>
    </g>
   </g>
   <g id="patch_3">
    <path d="M 69.3625 561.6 
L 850.5625 561.6 
" style="fill: none; stroke: #cccccc; stroke-width: 0.8; stroke-linejoin: miter; stroke-linecap: square"/>
   </g>
  </g>
 </g>
 <defs>
  <clipPath id="pc6e9960ce6">
   <rect x="69.3625" y="7.2" width="781.2" height="554.4"/>
  </clipPath>
 </defs>
</svg>
