<?xml version="1.0" encoding="utf-8" standalone="no"?>
<!DOCTYPE svg PUBLIC "-//W3C//DTD SVG 1.1//EN"
  "http://www.w3.org/Graphics/SVG/1.1/DTD/svg11.dtd">
<svg xmlns:xlink="http://www.w3.org/1999/xlink" width="857.7625pt" height="722.183991pt" viewBox="0 0 857.7625 722.183991" xmlns="http://www.w3.org/2000/svg" version="1.1">
 <metadata>
  <rdf:RDF xmlns:dc="http://purl.org/dc/elements/1.1/" xmlns:cc="http://creativecommons.org/ns#" xmlns:rdf="http://www.w3.org/1999/02/22-rdf-syntax-ns#">
   <cc:Work>
    <dc:type rdf:resource="http://purl.org/dc/dcmitype/StillImage"/>
    <dc:date>2024-03-17T20:48:19.591627</dc:date>
    <dc:format>image/svg+xml</dc:format>
    <dc:creator>
     <cc:Agent>
      <dc:title>Matplotlib v3.8.0, https://matplotlib.org/</dc:title>
     </cc:Agent>
    </dc:creator>
   </cc:Work>
  </rdf:RDF>
 </metadata>
 <defs>
  <style type="text/css">*{stroke-linejoin: round; stroke-linecap: butt}</style>
 </defs>
 <g id="figure_1">
  <g id="patch_1">
   <path d="M 0 722.183991 
L 857.7625 722.183991 
L 857.7625 0 
L 0 0 
L 0 722.183991 
z
" style="fill: none"/>
  </g>
  <g id="axes_1">
   <g id="patch_2">
    <path d="M 69.3625 561.6 
L 850.5625 561.6 
L 850.5625 7.2 
L 69.3625 7.2 
L 69.3625 561.6 
z
" style="fill: none"/>
   </g>
   <g id="matplotlib.axis_1">
    <g id="xtick_1">
     <g id="text_1">
      <!-- MSA -->
      <g style="fill: #262626" transform="translate(104.788986 610.465141) rotate(-45) scale(0.2 -0.2)">
       <defs>
        <path id="DejaVuSans-4d" d="M 628 4666 
L 1569 4666 
L 2759 1491 
L 3956 4666 
L 4897 4666 
L 4897 0 
L 4281 0 
L 4281 4097 
L 3078 897 
L 2444 897 
L 1241 4097 
L 1241 0 
L 628 0 
L 628 4666 
z
" transform="scale(0.015625)"/>
        <path id="DejaVuSans-53" d="M 3425 4513 
L 3425 3897 
Q 3066 4069 2747 4153 
Q 2428 4238 2131 4238 
Q 1616 4238 1336 4038 
Q 1056 3838 1056 3469 
Q 1056 3159 1242 3001 
Q 1428 2844 1947 2747 
L 2328 2669 
Q 3034 2534 3370 2195 
Q 3706 1856 3706 1288 
Q 3706 609 3251 259 
Q 2797 -91 1919 -91 
Q 1588 -91 1214 -16 
Q 841 59 441 206 
L 441 856 
Q 825 641 1194 531 
Q 1563 422 1919 422 
Q 2459 422 2753 634 
Q 3047 847 3047 1241 
Q 3047 1584 2836 1778 
Q 2625 1972 2144 2069 
L 1759 2144 
Q 1053 2284 737 2584 
Q 422 2884 422 3419 
Q 422 4038 858 4394 
Q 1294 4750 2059 4750 
Q 2388 4750 2728 4690 
Q 3069 4631 3425 4513 
z
" transform="scale(0.015625)"/>
        <path id="DejaVuSans-41" d="M 2188 4044 
L 1331 1722 
L 3047 1722 
L 2188 4044 
z
M 1831 4666 
L 2547 4666 
L 4325 0 
L 3669 0 
L 3244 1197 
L 1141 1197 
L 716 0 
L 50 0 
L 1831 4666 
z
" transform="scale(0.015625)"/>
       </defs>
       <use xlink:href="#DejaVuSans-4d"/>
       <use xlink:href="#DejaVuSans-53" x="86.279297"/>
       <use xlink:href="#DejaVuSans-41" x="151.630859"/>
      </g>
     </g>
    </g>
    <g id="xtick_2">
     <g id="text_2">
      <!-- Template -->
      <g style="fill: #262626" transform="translate(182.97819 643.875936) rotate(-45) scale(0.2 -0.2)">
       <defs>
        <path id="DejaVuSans-54" d="M -19 4666 
L 3928 4666 
L 3928 4134 
L 2272 4134 
L 2272 0 
L 1638 0 
L 1638 4134 
L -19 4134 
L -19 4666 
z
" transform="scale(0.015625)"/>
        <path id="DejaVuSans-65" d="M 3597 1894 
L 3597 1613 
L 953 1613 
Q 991 1019 1311 708 
Q 1631 397 2203 397 
Q 2534 397 2845 478 
Q 3156 559 3463 722 
L 3463 178 
Q 3153 47 2828 -22 
Q 2503 -91 2169 -91 
Q 1331 -91 842 396 
Q 353 884 353 1716 
Q 353 2575 817 3079 
Q 1281 3584 2069 3584 
Q 2775 3584 3186 3129 
Q 3597 2675 3597 1894 
z
M 3022 2063 
Q 3016 2534 2758 2815 
Q 2500 3097 2075 3097 
Q 1594 3097 1305 2825 
Q 1016 2553 972 2059 
L 3022 2063 
z
" transform="scale(0.015625)"/>
        <path id="DejaVuSans-6d" d="M 3328 2828 
Q 3544 3216 3844 3400 
Q 4144 3584 4550 3584 
Q 5097 3584 5394 3201 
Q 5691 2819 5691 2113 
L 5691 0 
L 5113 0 
L 5113 2094 
Q 5113 2597 4934 2840 
Q 4756 3084 4391 3084 
Q 3944 3084 3684 2787 
Q 3425 2491 3425 1978 
L 3425 0 
L 2847 0 
L 2847 2094 
Q 2847 2600 2669 2842 
Q 2491 3084 2119 3084 
Q 1678 3084 1418 2786 
Q 1159 2488 1159 1978 
L 1159 0 
L 581 0 
L 581 3500 
L 1159 3500 
L 1159 2956 
Q 1356 3278 1631 3431 
Q 1906 3584 2284 3584 
Q 2666 3584 2933 3390 
Q 3200 3197 3328 2828 
z
" transform="scale(0.015625)"/>
        <path id="DejaVuSans-70" d="M 1159 525 
L 1159 -1331 
L 581 -1331 
L 581 3500 
L 1159 3500 
L 1159 2969 
Q 1341 3281 1617 3432 
Q 1894 3584 2278 3584 
Q 2916 3584 3314 3078 
Q 3713 2572 3713 1747 
Q 3713 922 3314 415 
Q 2916 -91 2278 -91 
Q 1894 -91 1617 61 
Q 1341 213 1159 525 
z
M 3116 1747 
Q 3116 2381 2855 2742 
Q 2594 3103 2138 3103 
Q 1681 3103 1420 2742 
Q 1159 2381 1159 1747 
Q 1159 1113 1420 752 
Q 1681 391 2138 391 
Q 2594 391 2855 752 
Q 3116 1113 3116 1747 
z
" transform="scale(0.015625)"/>
        <path id="DejaVuSans-6c" d="M 603 4863 
L 1178 4863 
L 1178 0 
L 603 0 
L 603 4863 
z
" transform="scale(0.015625)"/>
        <path id="DejaVuSans-61" d="M 2194 1759 
Q 1497 1759 1228 1600 
Q 959 1441 959 1056 
Q 959 750 1161 570 
Q 1363 391 1709 391 
Q 2188 391 2477 730 
Q 2766 1069 2766 1631 
L 2766 1759 
L 2194 1759 
z
M 3341 1997 
L 3341 0 
L 2766 0 
L 2766 531 
Q 2569 213 2275 61 
Q 1981 -91 1556 -91 
Q 1019 -91 701 211 
Q 384 513 384 1019 
Q 384 1609 779 1909 
Q 1175 2209 1959 2209 
L 2766 2209 
L 2766 2266 
Q 2766 2663 2505 2880 
Q 2244 3097 1772 3097 
Q 1472 3097 1187 3025 
Q 903 2953 641 2809 
L 641 3341 
Q 956 3463 1253 3523 
Q 1550 3584 1831 3584 
Q 2591 3584 2966 3190 
Q 3341 2797 3341 1997 
z
" transform="scale(0.015625)"/>
        <path id="DejaVuSans-74" d="M 1172 4494 
L 1172 3500 
L 2356 3500 
L 2356 3053 
L 1172 3053 
L 1172 1153 
Q 1172 725 1289 603 
Q 1406 481 1766 481 
L 2356 481 
L 2356 0 
L 1766 0 
Q 1100 0 847 248 
Q 594 497 594 1153 
L 594 3053 
L 172 3053 
L 172 3500 
L 594 3500 
L 594 4494 
L 1172 4494 
z
" transform="scale(0.015625)"/>
       </defs>
       <use xlink:href="#DejaVuSans-54"/>
       <use xlink:href="#DejaVuSans-65" x="44.083984"/>
       <use xlink:href="#DejaVuSans-6d" x="105.607422"/>
       <use xlink:href="#DejaVuSans-70" x="203.019531"/>
       <use xlink:href="#DejaVuSans-6c" x="266.496094"/>
       <use xlink:href="#DejaVuSans-61" x="294.279297"/>
       <use xlink:href="#DejaVuSans-74" x="355.558594"/>
       <use xlink:href="#DejaVuSans-65" x="394.767578"/>
      </g>
     </g>
    </g>
    <g id="xtick_3">
     <g id="text_3">
      <!-- Backbone -->
      <g style="fill: #262626" transform="translate(289.478183 648.975944) rotate(-45) scale(0.2 -0.2)">
       <defs>
        <path id="DejaVuSans-42" d="M 1259 2228 
L 1259 519 
L 2272 519 
Q 2781 519 3026 730 
Q 3272 941 3272 1375 
Q 3272 1813 3026 2020 
Q 2781 2228 2272 2228 
L 1259 2228 
z
M 1259 4147 
L 1259 2741 
L 2194 2741 
Q 2656 2741 2882 2914 
Q 3109 3088 3109 3444 
Q 3109 3797 2882 3972 
Q 2656 4147 2194 4147 
L 1259 4147 
z
M 628 4666 
L 2241 4666 
Q 2963 4666 3353 4366 
Q 3744 4066 3744 3513 
Q 3744 3084 3544 2831 
Q 3344 2578 2956 2516 
Q 3422 2416 3680 2098 
Q 3938 1781 3938 1306 
Q 3938 681 3513 340 
Q 3088 0 2303 0 
L 628 0 
L 628 4666 
z
" transform="scale(0.015625)"/>
        <path id="DejaVuSans-63" d="M 3122 3366 
L 3122 2828 
Q 2878 2963 2633 3030 
Q 2388 3097 2138 3097 
Q 1578 3097 1268 2742 
Q 959 2388 959 1747 
Q 959 1106 1268 751 
Q 1578 397 2138 397 
Q 2388 397 2633 464 
Q 2878 531 3122 666 
L 3122 134 
Q 2881 22 2623 -34 
Q 2366 -91 2075 -91 
Q 1284 -91 818 406 
Q 353 903 353 1747 
Q 353 2603 823 3093 
Q 1294 3584 2113 3584 
Q 2378 3584 2631 3529 
Q 2884 3475 3122 3366 
z
" transform="scale(0.015625)"/>
        <path id="DejaVuSans-6b" d="M 581 4863 
L 1159 4863 
L 1159 1991 
L 2875 3500 
L 3609 3500 
L 1753 1863 
L 3688 0 
L 2938 0 
L 1159 1709 
L 1159 0 
L 581 0 
L 581 4863 
z
" transform="scale(0.015625)"/>
        <path id="DejaVuSans-62" d="M 3116 1747 
Q 3116 2381 2855 2742 
Q 2594 3103 2138 3103 
Q 1681 3103 1420 2742 
Q 1159 2381 1159 1747 
Q 1159 1113 1420 752 
Q 1681 391 2138 391 
Q 2594 391 2855 752 
Q 3116 1113 3116 1747 
z
M 1159 2969 
Q 1341 3281 1617 3432 
Q 1894 3584 2278 3584 
Q 2916 3584 3314 3078 
Q 3713 2572 3713 1747 
Q 3713 922 3314 415 
Q 2916 -91 2278 -91 
Q 1894 -91 1617 61 
Q 1341 213 1159 525 
L 1159 0 
L 581 0 
L 581 4863 
L 1159 4863 
L 1159 2969 
z
" transform="scale(0.015625)"/>
        <path id="DejaVuSans-6f" d="M 1959 3097 
Q 1497 3097 1228 2736 
Q 959 2375 959 1747 
Q 959 1119 1226 758 
Q 1494 397 1959 397 
Q 2419 397 2687 759 
Q 2956 1122 2956 1747 
Q 2956 2369 2687 2733 
Q 2419 3097 1959 3097 
z
M 1959 3584 
Q 2709 3584 3137 3096 
Q 3566 2609 3566 1747 
Q 3566 888 3137 398 
Q 2709 -91 1959 -91 
Q 1206 -91 779 398 
Q 353 888 353 1747 
Q 353 2609 779 3096 
Q 1206 3584 1959 3584 
z
" transform="scale(0.015625)"/>
        <path id="DejaVuSans-6e" d="M 3513 2113 
L 3513 0 
L 2938 0 
L 2938 2094 
Q 2938 2591 2744 2837 
Q 2550 3084 2163 3084 
Q 1697 3084 1428 2787 
Q 1159 2491 1159 1978 
L 1159 0 
L 581 0 
L 581 3500 
L 1159 3500 
L 1159 2956 
Q 1366 3272 1645 3428 
Q 1925 3584 2291 3584 
Q 2894 3584 3203 3211 
Q 3513 2838 3513 2113 
z
" transform="scale(0.015625)"/>
       </defs>
       <use xlink:href="#DejaVuSans-42"/>
       <use xlink:href="#DejaVuSans-61" x="68.603516"/>
       <use xlink:href="#DejaVuSans-63" x="129.882812"/>
       <use xlink:href="#DejaVuSans-6b" x="184.863281"/>
       <use xlink:href="#DejaVuSans-62" x="242.773438"/>
       <use xlink:href="#DejaVuSans-6f" x="306.25"/>
       <use xlink:href="#DejaVuSans-6e" x="367.431641"/>
       <use xlink:href="#DejaVuSans-65" x="430.810547"/>
      </g>
     </g>
    </g>
    <g id="xtick_4">
     <g id="text_4">
      <!-- Heuristic C-$\beta$ -->
      <g style="fill: #262626" transform="translate(379.63517 670.706219) rotate(-45) scale(0.2 -0.2)">
       <defs>
        <path id="DejaVuSans-48" d="M 628 4666 
L 1259 4666 
L 1259 2753 
L 3553 2753 
L 3553 4666 
L 4184 4666 
L 4184 0 
L 3553 0 
L 3553 2222 
L 1259 2222 
L 1259 0 
L 628 0 
L 628 4666 
z
" transform="scale(0.015625)"/>
        <path id="DejaVuSans-75" d="M 544 1381 
L 544 3500 
L 1119 3500 
L 1119 1403 
Q 1119 906 1312 657 
Q 1506 409 1894 409 
Q 2359 409 2629 706 
Q 2900 1003 2900 1516 
L 2900 3500 
L 3475 3500 
L 3475 0 
L 2900 0 
L 2900 538 
Q 2691 219 2414 64 
Q 2138 -91 1772 -91 
Q 1169 -91 856 284 
Q 544 659 544 1381 
z
M 1991 3584 
L 1991 3584 
z
" transform="scale(0.015625)"/>
        <path id="DejaVuSans-72" d="M 2631 2963 
Q 2534 3019 2420 3045 
Q 2306 3072 2169 3072 
Q 1681 3072 1420 2755 
Q 1159 2438 1159 1844 
L 1159 0 
L 581 0 
L 581 3500 
L 1159 3500 
L 1159 2956 
Q 1341 3275 1631 3429 
Q 1922 3584 2338 3584 
Q 2397 3584 2469 3576 
Q 2541 3569 2628 3553 
L 2631 2963 
z
" transform="scale(0.015625)"/>
        <path id="DejaVuSans-69" d="M 603 3500 
L 1178 3500 
L 1178 0 
L 603 0 
L 603 3500 
z
M 603 4863 
L 1178 4863 
L 1178 4134 
L 603 4134 
L 603 4863 
z
" transform="scale(0.015625)"/>
        <path id="DejaVuSans-73" d="M 2834 3397 
L 2834 2853 
Q 2591 2978 2328 3040 
Q 2066 3103 1784 3103 
Q 1356 3103 1142 2972 
Q 928 2841 928 2578 
Q 928 2378 1081 2264 
Q 1234 2150 1697 2047 
L 1894 2003 
Q 2506 1872 2764 1633 
Q 3022 1394 3022 966 
Q 3022 478 2636 193 
Q 2250 -91 1575 -91 
Q 1294 -91 989 -36 
Q 684 19 347 128 
L 347 722 
Q 666 556 975 473 
Q 1284 391 1588 391 
Q 1994 391 2212 530 
Q 2431 669 2431 922 
Q 2431 1156 2273 1281 
Q 2116 1406 1581 1522 
L 1381 1569 
Q 847 1681 609 1914 
Q 372 2147 372 2553 
Q 372 3047 722 3315 
Q 1072 3584 1716 3584 
Q 2034 3584 2315 3537 
Q 2597 3491 2834 3397 
z
" transform="scale(0.015625)"/>
        <path id="DejaVuSans-20" transform="scale(0.015625)"/>
        <path id="DejaVuSans-43" d="M 4122 4306 
L 4122 3641 
Q 3803 3938 3442 4084 
Q 3081 4231 2675 4231 
Q 1875 4231 1450 3742 
Q 1025 3253 1025 2328 
Q 1025 1406 1450 917 
Q 1875 428 2675 428 
Q 3081 428 3442 575 
Q 3803 722 4122 1019 
L 4122 359 
Q 3791 134 3420 21 
Q 3050 -91 2638 -91 
Q 1578 -91 968 557 
Q 359 1206 359 2328 
Q 359 3453 968 4101 
Q 1578 4750 2638 4750 
Q 3056 4750 3426 4639 
Q 3797 4528 4122 4306 
z
" transform="scale(0.015625)"/>
        <path id="DejaVuSans-2d" d="M 313 2009 
L 1997 2009 
L 1997 1497 
L 313 1497 
L 313 2009 
z
" transform="scale(0.015625)"/>
        <path id="DejaVuSans-Oblique-3b2" d="M 872 216 
L 572 -1331 
L -6 -1331 
L 928 3478 
Q 1206 4903 2538 4903 
Q 3888 4903 3659 3700 
Q 3503 2844 2894 2531 
Q 3713 2250 3553 1416 
Q 3272 -69 1759 -66 
Q 1097 -63 872 216 
z
M 1019 966 
Q 1259 422 1875 425 
Q 2775 425 2966 1406 
Q 3138 2288 1675 2219 
L 1778 2750 
Q 2909 2731 3106 3750 
Q 3241 4438 2509 4434 
Q 1691 4434 1503 3459 
L 1019 966 
z
" transform="scale(0.015625)"/>
       </defs>
       <use xlink:href="#DejaVuSans-48" transform="translate(0 0.390625)"/>
       <use xlink:href="#DejaVuSans-65" transform="translate(75.195312 0.390625)"/>
       <use xlink:href="#DejaVuSans-75" transform="translate(136.71875 0.390625)"/>
       <use xlink:href="#DejaVuSans-72" transform="translate(200.097656 0.390625)"/>
       <use xlink:href="#DejaVuSans-69" transform="translate(241.210938 0.390625)"/>
       <use xlink:href="#DejaVuSans-73" transform="translate(268.994141 0.390625)"/>
       <use xlink:href="#DejaVuSans-74" transform="translate(321.09375 0.390625)"/>
       <use xlink:href="#DejaVuSans-69" transform="translate(360.302734 0.390625)"/>
       <use xlink:href="#DejaVuSans-63" transform="translate(388.085938 0.390625)"/>
       <use xlink:href="#DejaVuSans-20" transform="translate(443.066406 0.390625)"/>
       <use xlink:href="#DejaVuSans-43" transform="translate(474.853516 0.390625)"/>
       <use xlink:href="#DejaVuSans-2d" transform="translate(544.677734 0.390625)"/>
       <use xlink:href="#DejaVuSans-Oblique-3b2" transform="translate(580.761719 0.390625)"/>
      </g>
     </g>
    </g>
    <g id="xtick_5">
     <g id="text_5">
      <!-- Template C-$\beta$ -->
      <g style="fill: #262626" transform="translate(486.992529 674.94886) rotate(-45) scale(0.2 -0.2)">
       <use xlink:href="#DejaVuSans-54" transform="translate(0 0.390625)"/>
       <use xlink:href="#DejaVuSans-65" transform="translate(61.083984 0.390625)"/>
       <use xlink:href="#DejaVuSans-6d" transform="translate(122.607422 0.390625)"/>
       <use xlink:href="#DejaVuSans-70" transform="translate(220.019531 0.390625)"/>
       <use xlink:href="#DejaVuSans-6c" transform="translate(283.496094 0.390625)"/>
       <use xlink:href="#DejaVuSans-61" transform="translate(311.279297 0.390625)"/>
       <use xlink:href="#DejaVuSans-74" transform="translate(372.558594 0.390625)"/>
       <use xlink:href="#DejaVuSans-65" transform="translate(411.767578 0.390625)"/>
       <use xlink:href="#DejaVuSans-20" transform="translate(473.291016 0.390625)"/>
       <use xlink:href="#DejaVuSans-43" transform="translate(505.078125 0.390625)"/>
       <use xlink:href="#DejaVuSans-2d" transform="translate(574.902344 0.390625)"/>
       <use xlink:href="#DejaVuSans-Oblique-3b2" transform="translate(610.986328 0.390625)"/>
      </g>
     </g>
    </g>
    <g id="xtick_6">
     <g id="text_6">
      <!-- AttnPacker -->
      <g style="fill: #262626" transform="translate(617.905383 655.348744) rotate(-45) scale(0.2 -0.2)">
       <defs>
        <path id="DejaVuSans-50" d="M 1259 4147 
L 1259 2394 
L 2053 2394 
Q 2494 2394 2734 2622 
Q 2975 2850 2975 3272 
Q 2975 3691 2734 3919 
Q 2494 4147 2053 4147 
L 1259 4147 
z
M 628 4666 
L 2053 4666 
Q 2838 4666 3239 4311 
Q 3641 3956 3641 3272 
Q 3641 2581 3239 2228 
Q 2838 1875 2053 1875 
L 1259 1875 
L 1259 0 
L 628 0 
L 628 4666 
z
" transform="scale(0.015625)"/>
       </defs>
       <use xlink:href="#DejaVuSans-41"/>
       <use xlink:href="#DejaVuSans-74" x="66.658203"/>
       <use xlink:href="#DejaVuSans-74" x="105.867188"/>
       <use xlink:href="#DejaVuSans-6e" x="145.076172"/>
       <use xlink:href="#DejaVuSans-50" x="208.455078"/>
       <use xlink:href="#DejaVuSans-61" x="264.257812"/>
       <use xlink:href="#DejaVuSans-63" x="325.537109"/>
       <use xlink:href="#DejaVuSans-6b" x="380.517578"/>
       <use xlink:href="#DejaVuSans-65" x="434.802734"/>
       <use xlink:href="#DejaVuSans-72" x="496.326172"/>
      </g>
     </g>
    </g>
    <g id="xtick_7">
     <g id="text_7">
      <!-- AttnPacker (AF) -->
      <g style="fill: #262626" transform="translate(696.167508 688.686619) rotate(-45) scale(0.2 -0.2)">
       <defs>
        <path id="DejaVuSans-28" d="M 1984 4856 
Q 1566 4138 1362 3434 
Q 1159 2731 1159 2009 
Q 1159 1288 1364 580 
Q 1569 -128 1984 -844 
L 1484 -844 
Q 1016 -109 783 600 
Q 550 1309 550 2009 
Q 550 2706 781 3412 
Q 1013 4119 1484 4856 
L 1984 4856 
z
" transform="scale(0.015625)"/>
        <path id="DejaVuSans-46" d="M 628 4666 
L 3309 4666 
L 3309 4134 
L 1259 4134 
L 1259 2759 
L 3109 2759 
L 3109 2228 
L 1259 2228 
L 1259 0 
L 628 0 
L 628 4666 
z
" transform="scale(0.015625)"/>
        <path id="DejaVuSans-29" d="M 513 4856 
L 1013 4856 
Q 1481 4119 1714 3412 
Q 1947 2706 1947 2009 
Q 1947 1309 1714 600 
Q 1481 -109 1013 -844 
L 513 -844 
Q 928 -128 1133 580 
Q 1338 1288 1338 2009 
Q 1338 2731 1133 3434 
Q 928 4138 513 4856 
z
" transform="scale(0.015625)"/>
       </defs>
       <use xlink:href="#DejaVuSans-41"/>
       <use xlink:href="#DejaVuSans-74" x="66.658203"/>
       <use xlink:href="#DejaVuSans-74" x="105.867188"/>
       <use xlink:href="#DejaVuSans-6e" x="145.076172"/>
       <use xlink:href="#DejaVuSans-50" x="208.455078"/>
       <use xlink:href="#DejaVuSans-61" x="264.257812"/>
       <use xlink:href="#DejaVuSans-63" x="325.537109"/>
       <use xlink:href="#DejaVuSans-6b" x="380.517578"/>
       <use xlink:href="#DejaVuSans-65" x="434.802734"/>
       <use xlink:href="#DejaVuSans-72" x="496.326172"/>
       <use xlink:href="#DejaVuSans-20" x="537.439453"/>
       <use xlink:href="#DejaVuSans-28" x="569.226562"/>
       <use xlink:href="#DejaVuSans-41" x="608.240234"/>
       <use xlink:href="#DejaVuSans-46" x="676.648438"/>
       <use xlink:href="#DejaVuSans-29" x="734.167969"/>
      </g>
     </g>
    </g>
    <g id="text_8">
     <!-- Method -->
     <g style="fill: #262626" transform="translate(422.45625 710.824616) scale(0.2 -0.2)">
      <defs>
       <path id="DejaVuSans-68" d="M 3513 2113 
L 3513 0 
L 2938 0 
L 2938 2094 
Q 2938 2591 2744 2837 
Q 2550 3084 2163 3084 
Q 1697 3084 1428 2787 
Q 1159 2491 1159 1978 
L 1159 0 
L 581 0 
L 581 4863 
L 1159 4863 
L 1159 2956 
Q 1366 3272 1645 3428 
Q 1925 3584 2291 3584 
Q 2894 3584 3203 3211 
Q 3513 2838 3513 2113 
z
" transform="scale(0.015625)"/>
       <path id="DejaVuSans-64" d="M 2906 2969 
L 2906 4863 
L 3481 4863 
L 3481 0 
L 2906 0 
L 2906 525 
Q 2725 213 2448 61 
Q 2172 -91 1784 -91 
Q 1150 -91 751 415 
Q 353 922 353 1747 
Q 353 2572 751 3078 
Q 1150 3584 1784 3584 
Q 2172 3584 2448 3432 
Q 2725 3281 2906 2969 
z
M 947 1747 
Q 947 1113 1208 752 
Q 1469 391 1925 391 
Q 2381 391 2643 752 
Q 2906 1113 2906 1747 
Q 2906 2381 2643 2742 
Q 2381 3103 1925 3103 
Q 1469 3103 1208 2742 
Q 947 2381 947 1747 
z
" transform="scale(0.015625)"/>
      </defs>
      <use xlink:href="#DejaVuSans-4d"/>
      <use xlink:href="#DejaVuSans-65" x="86.279297"/>
      <use xlink:href="#DejaVuSans-74" x="147.802734"/>
      <use xlink:href="#DejaVuSans-68" x="187.011719"/>
      <use xlink:href="#DejaVuSans-6f" x="250.390625"/>
      <use xlink:href="#DejaVuSans-64" x="311.572266"/>
     </g>
    </g>
   </g>
   <g id="matplotlib.axis_2">
    <g id="ytick_1">
     <g id="line2d_1">
      <path d="M 69.3625 526.947803 
L 850.5625 526.947803 
" clip-path="url(#pf5217bb98d)" style="fill: none; stroke: #cccccc; stroke-width: 0.8; stroke-linecap: round"/>
     </g>
     <g id="text_9">
      <!-- 0.0 -->
      <g style="fill: #262626" transform="translate(30.55625 534.54624) scale(0.2 -0.2)">
       <defs>
        <path id="DejaVuSans-30" d="M 2034 4250 
Q 1547 4250 1301 3770 
Q 1056 3291 1056 2328 
Q 1056 1369 1301 889 
Q 1547 409 2034 409 
Q 2525 409 2770 889 
Q 3016 1369 3016 2328 
Q 3016 3291 2770 3770 
Q 2525 4250 2034 4250 
z
M 2034 4750 
Q 2819 4750 3233 4129 
Q 3647 3509 3647 2328 
Q 3647 1150 3233 529 
Q 2819 -91 2034 -91 
Q 1250 -91 836 529 
Q 422 1150 422 2328 
Q 422 3509 836 4129 
Q 1250 4750 2034 4750 
z
" transform="scale(0.015625)"/>
        <path id="DejaVuSans-2e" d="M 684 794 
L 1344 794 
L 1344 0 
L 684 0 
L 684 794 
z
" transform="scale(0.015625)"/>
       </defs>
       <use xlink:href="#DejaVuSans-30"/>
       <use xlink:href="#DejaVuSans-2e" x="63.623047"/>
       <use xlink:href="#DejaVuSans-30" x="95.410156"/>
      </g>
     </g>
    </g>
    <g id="ytick_2">
     <g id="line2d_2">
      <path d="M 69.3625 433.691602 
L 850.5625 433.691602 
" clip-path="url(#pf5217bb98d)" style="fill: none; stroke: #cccccc; stroke-width: 0.8; stroke-linecap: round"/>
     </g>
     <g id="text_10">
      <!-- 0.2 -->
      <g style="fill: #262626" transform="translate(30.55625 441.290039) scale(0.2 -0.2)">
       <defs>
        <path id="DejaVuSans-32" d="M 1228 531 
L 3431 531 
L 3431 0 
L 469 0 
L 469 531 
Q 828 903 1448 1529 
Q 2069 2156 2228 2338 
Q 2531 2678 2651 2914 
Q 2772 3150 2772 3378 
Q 2772 3750 2511 3984 
Q 2250 4219 1831 4219 
Q 1534 4219 1204 4116 
Q 875 4013 500 3803 
L 500 4441 
Q 881 4594 1212 4672 
Q 1544 4750 1819 4750 
Q 2544 4750 2975 4387 
Q 3406 4025 3406 3419 
Q 3406 3131 3298 2873 
Q 3191 2616 2906 2266 
Q 2828 2175 2409 1742 
Q 1991 1309 1228 531 
z
" transform="scale(0.015625)"/>
       </defs>
       <use xlink:href="#DejaVuSans-30"/>
       <use xlink:href="#DejaVuSans-2e" x="63.623047"/>
       <use xlink:href="#DejaVuSans-32" x="95.410156"/>
      </g>
     </g>
    </g>
    <g id="ytick_3">
     <g id="line2d_3">
      <path d="M 69.3625 340.435401 
L 850.5625 340.435401 
" clip-path="url(#pf5217bb98d)" style="fill: none; stroke: #cccccc; stroke-width: 0.8; stroke-linecap: round"/>
     </g>
     <g id="text_11">
      <!-- 0.4 -->
      <g style="fill: #262626" transform="translate(30.55625 348.033838) scale(0.2 -0.2)">
       <defs>
        <path id="DejaVuSans-34" d="M 2419 4116 
L 825 1625 
L 2419 1625 
L 2419 4116 
z
M 2253 4666 
L 3047 4666 
L 3047 1625 
L 3713 1625 
L 3713 1100 
L 3047 1100 
L 3047 0 
L 2419 0 
L 2419 1100 
L 313 1100 
L 313 1709 
L 2253 4666 
z
" transform="scale(0.015625)"/>
       </defs>
       <use xlink:href="#DejaVuSans-30"/>
       <use xlink:href="#DejaVuSans-2e" x="63.623047"/>
       <use xlink:href="#DejaVuSans-34" x="95.410156"/>
      </g>
     </g>
    </g>
    <g id="ytick_4">
     <g id="line2d_4">
      <path d="M 69.3625 247.1792 
L 850.5625 247.1792 
" clip-path="url(#pf5217bb98d)" style="fill: none; stroke: #cccccc; stroke-width: 0.8; stroke-linecap: round"/>
     </g>
     <g id="text_12">
      <!-- 0.6 -->
      <g style="fill: #262626" transform="translate(30.55625 254.777638) scale(0.2 -0.2)">
       <defs>
        <path id="DejaVuSans-36" d="M 2113 2584 
Q 1688 2584 1439 2293 
Q 1191 2003 1191 1497 
Q 1191 994 1439 701 
Q 1688 409 2113 409 
Q 2538 409 2786 701 
Q 3034 994 3034 1497 
Q 3034 2003 2786 2293 
Q 2538 2584 2113 2584 
z
M 3366 4563 
L 3366 3988 
Q 3128 4100 2886 4159 
Q 2644 4219 2406 4219 
Q 1781 4219 1451 3797 
Q 1122 3375 1075 2522 
Q 1259 2794 1537 2939 
Q 1816 3084 2150 3084 
Q 2853 3084 3261 2657 
Q 3669 2231 3669 1497 
Q 3669 778 3244 343 
Q 2819 -91 2113 -91 
Q 1303 -91 875 529 
Q 447 1150 447 2328 
Q 447 3434 972 4092 
Q 1497 4750 2381 4750 
Q 2619 4750 2861 4703 
Q 3103 4656 3366 4563 
z
" transform="scale(0.015625)"/>
       </defs>
       <use xlink:href="#DejaVuSans-30"/>
       <use xlink:href="#DejaVuSans-2e" x="63.623047"/>
       <use xlink:href="#DejaVuSans-36" x="95.410156"/>
      </g>
     </g>
    </g>
    <g id="ytick_5">
     <g id="line2d_5">
      <path d="M 69.3625 153.922999 
L 850.5625 153.922999 
" clip-path="url(#pf5217bb98d)" style="fill: none; stroke: #cccccc; stroke-width: 0.8; stroke-linecap: round"/>
     </g>
     <g id="text_13">
      <!-- 0.8 -->
      <g style="fill: #262626" transform="translate(30.55625 161.521437) scale(0.2 -0.2)">
       <defs>
        <path id="DejaVuSans-38" d="M 2034 2216 
Q 1584 2216 1326 1975 
Q 1069 1734 1069 1313 
Q 1069 891 1326 650 
Q 1584 409 2034 409 
Q 2484 409 2743 651 
Q 3003 894 3003 1313 
Q 3003 1734 2745 1975 
Q 2488 2216 2034 2216 
z
M 1403 2484 
Q 997 2584 770 2862 
Q 544 3141 544 3541 
Q 544 4100 942 4425 
Q 1341 4750 2034 4750 
Q 2731 4750 3128 4425 
Q 3525 4100 3525 3541 
Q 3525 3141 3298 2862 
Q 3072 2584 2669 2484 
Q 3125 2378 3379 2068 
Q 3634 1759 3634 1313 
Q 3634 634 3220 271 
Q 2806 -91 2034 -91 
Q 1263 -91 848 271 
Q 434 634 434 1313 
Q 434 1759 690 2068 
Q 947 2378 1403 2484 
z
M 1172 3481 
Q 1172 3119 1398 2916 
Q 1625 2713 2034 2713 
Q 2441 2713 2670 2916 
Q 2900 3119 2900 3481 
Q 2900 3844 2670 4047 
Q 2441 4250 2034 4250 
Q 1625 4250 1398 4047 
Q 1172 3844 1172 3481 
z
" transform="scale(0.015625)"/>
       </defs>
       <use xlink:href="#DejaVuSans-30"/>
       <use xlink:href="#DejaVuSans-2e" x="63.623047"/>
       <use xlink:href="#DejaVuSans-38" x="95.410156"/>
      </g>
     </g>
    </g>
    <g id="ytick_6">
     <g id="line2d_6">
      <path d="M 69.3625 60.666798 
L 850.5625 60.666798 
" clip-path="url(#pf5217bb98d)" style="fill: none; stroke: #cccccc; stroke-width: 0.8; stroke-linecap: round"/>
     </g>
     <g id="text_14">
      <!-- 1.0 -->
      <g style="fill: #262626" transform="translate(30.55625 68.265236) scale(0.2 -0.2)">
       <defs>
        <path id="DejaVuSans-31" d="M 794 531 
L 1825 531 
L 1825 4091 
L 703 3866 
L 703 4441 
L 1819 4666 
L 2450 4666 
L 2450 531 
L 3481 531 
L 3481 0 
L 794 0 
L 794 531 
z
" transform="scale(0.015625)"/>
       </defs>
       <use xlink:href="#DejaVuSans-31"/>
       <use xlink:href="#DejaVuSans-2e" x="63.623047"/>
       <use xlink:href="#DejaVuSans-30" x="95.410156"/>
      </g>
     </g>
    </g>
    <g id="text_15">
     <!-- lDDT -->
     <g style="fill: #262626" transform="translate(22.396875 308.685937) rotate(-90) scale(0.2 -0.2)">
      <defs>
       <path id="DejaVuSans-44" d="M 1259 4147 
L 1259 519 
L 2022 519 
Q 2988 519 3436 956 
Q 3884 1394 3884 2338 
Q 3884 3275 3436 3711 
Q 2988 4147 2022 4147 
L 1259 4147 
z
M 628 4666 
L 1925 4666 
Q 3281 4666 3915 4102 
Q 4550 3538 4550 2338 
Q 4550 1131 3912 565 
Q 3275 0 1925 0 
L 628 0 
L 628 4666 
z
" transform="scale(0.015625)"/>
      </defs>
      <use xlink:href="#DejaVuSans-6c"/>
      <use xlink:href="#DejaVuSans-44" x="27.783203"/>
      <use xlink:href="#DejaVuSans-44" x="104.785156"/>
      <use xlink:href="#DejaVuSans-54" x="181.787109"/>
     </g>
    </g>
   </g>
   <g id="PolyCollection_1">
    <defs>
     <path id="mf25cceb4e0" d="M 125.348305 -233.535724 
L 124.976695 -233.535724 
L 124.909136 -238.144293 
L 124.824497 -242.752861 
L 124.721242 -247.361429 
L 124.598627 -251.969998 
L 124.456974 -256.578566 
L 124.297875 -261.187135 
L 124.124314 -265.795703 
L 123.940655 -270.404271 
L 123.752479 -275.01284 
L 123.566275 -279.621408 
L 123.388987 -284.229976 
L 123.227466 -288.838545 
L 123.087849 -293.447113 
L 122.974945 -298.055681 
L 122.891672 -302.66425 
L 122.838596 -307.272818 
L 122.813642 -311.881386 
L 122.81201 -316.489955 
L 122.826332 -321.098523 
L 122.847094 -325.707091 
L 122.863307 -330.31566 
L 122.863415 -334.924228 
L 122.836356 -339.532796 
L 122.772689 -344.141365 
L 122.665679 -348.749933 
L 122.512192 -353.358502 
L 122.313286 -357.96707 
L 122.074398 -362.575638 
L 121.805073 -367.184207 
L 121.518241 -371.792775 
L 121.229094 -376.401343 
L 120.953689 -381.009912 
L 120.707414 -385.61848 
L 120.503508 -390.227048 
L 120.351776 -394.835617 
L 120.257644 -399.444185 
L 120.221646 -404.052753 
L 120.239362 -408.661322 
L 120.30178 -413.26989 
L 120.396005 -417.878458 
L 120.506162 -422.487027 
L 120.614352 -427.095595 
L 120.701517 -431.704163 
L 120.748058 -436.312732 
L 120.734181 -440.9213 
L 120.639931 -445.529869 
L 120.445016 -450.138437 
L 120.128574 -454.747005 
L 119.66905 -459.355574 
L 119.044399 -463.964142 
L 118.232774 -468.57271 
L 117.213757 -473.181279 
L 115.970117 -477.789847 
L 114.489935 -482.398415 
L 112.768815 -487.006984 
L 110.811876 -491.615552 
L 108.635156 -496.22412 
L 106.266154 -500.832689 
L 103.74335 -505.441257 
L 101.114687 -510.049825 
L 98.435172 -514.658394 
L 95.763919 -519.266962 
L 93.161004 -523.87553 
L 90.684534 -528.484099 
L 88.388265 -533.092667 
L 86.319959 -537.701236 
L 84.520545 -542.309804 
L 83.023956 -546.918372 
L 81.857463 -551.526941 
L 81.042227 -556.135509 
L 80.593814 -560.744077 
L 80.5225 -565.352646 
L 80.833237 -569.961214 
L 81.525279 -574.569782 
L 82.591526 -579.178351 
L 84.017739 -583.786919 
L 85.78177 -588.395487 
L 87.853013 -593.004056 
L 90.192268 -597.612624 
L 92.752142 -602.221192 
L 95.478126 -606.829761 
L 98.310351 -611.438329 
L 101.185977 -616.046897 
L 104.042039 -620.655466 
L 106.818518 -625.264034 
L 109.461337 -629.872603 
L 111.924961 -634.481171 
L 114.174346 -639.089739 
L 116.186036 -643.698308 
L 117.948334 -648.306876 
L 119.4606 -652.915444 
L 120.7318 -657.524013 
L 121.778555 -662.132581 
L 122.622918 -666.741149 
L 123.290148 -671.349718 
L 123.806672 -675.958286 
L 124.198397 -680.566854 
L 124.489433 -685.175423 
L 124.701263 -689.783991 
L 125.623737 -689.783991 
L 125.623737 -689.783991 
L 125.835567 -685.175423 
L 126.126603 -680.566854 
L 126.518328 -675.958286 
L 127.034852 -671.349718 
L 127.702082 -666.741149 
L 128.546445 -662.132581 
L 129.5932 -657.524013 
L 130.8644 -652.915444 
L 132.376666 -648.306876 
L 134.138964 -643.698308 
L 136.150654 -639.089739 
L 138.400039 -634.481171 
L 140.863663 -629.872603 
L 143.506482 -625.264034 
L 146.282961 -620.655466 
L 149.139023 -616.046897 
L 152.014649 -611.438329 
L 154.846874 -606.829761 
L 157.572858 -602.221192 
L 160.132732 -597.612624 
L 162.471987 -593.004056 
L 164.54323 -588.395487 
L 166.307261 -583.786919 
L 167.733474 -579.178351 
L 168.799721 -574.569782 
L 169.491763 -569.961214 
L 169.8025 -565.352646 
L 169.731186 -560.744077 
L 169.282773 -556.135509 
L 168.467537 -551.526941 
L 167.301044 -546.918372 
L 165.804455 -542.309804 
L 164.005041 -537.701236 
L 161.936735 -533.092667 
L 159.640466 -528.484099 
L 157.163996 -523.87553 
L 154.561081 -519.266962 
L 151.889828 -514.658394 
L 149.210313 -510.049825 
L 146.58165 -505.441257 
L 144.058846 -500.832689 
L 141.689844 -496.22412 
L 139.513124 -491.615552 
L 137.556185 -487.006984 
L 135.835065 -482.398415 
L 134.354883 -477.789847 
L 133.111243 -473.181279 
L 132.092226 -468.57271 
L 131.280601 -463.964142 
L 130.65595 -459.355574 
L 130.196426 -454.747005 
L 129.879984 -450.138437 
L 129.685069 -445.529869 
L 129.590819 -440.9213 
L 129.576942 -436.312732 
L 129.623483 -431.704163 
L 129.710648 -427.095595 
L 129.818838 -422.487027 
L 129.928995 -417.878458 
L 130.02322 -413.26989 
L 130.085638 -408.661322 
L 130.103354 -404.052753 
L 130.067356 -399.444185 
L 129.973224 -394.835617 
L 129.821492 -390.227048 
L 129.617586 -385.61848 
L 129.371311 -381.009912 
L 129.095906 -376.401343 
L 128.806759 -371.792775 
L 128.519927 -367.184207 
L 128.250602 -362.575638 
L 128.011714 -357.96707 
L 127.812808 -353.358502 
L 127.659321 -348.749933 
L 127.552311 -344.141365 
L 127.488644 -339.532796 
L 127.461585 -334.924228 
L 127.461693 -330.31566 
L 127.477906 -325.707091 
L 127.498668 -321.098523 
L 127.51299 -316.489955 
L 127.511358 -311.881386 
L 127.486404 -307.272818 
L 127.433328 -302.66425 
L 127.350055 -298.055681 
L 127.237151 -293.447113 
L 127.097534 -288.838545 
L 126.936013 -284.229976 
L 126.758725 -279.621408 
L 126.572521 -275.01284 
L 126.384345 -270.404271 
L 126.200686 -265.795703 
L 126.027125 -261.187135 
L 125.868026 -256.578566 
L 125.726373 -251.969998 
L 125.603758 -247.361429 
L 125.500503 -242.752861 
L 125.415864 -238.144293 
L 125.348305 -233.535724 
z
" style="stroke: #3d3d3d; stroke-opacity: 0.5"/>
    </defs>
    <g clip-path="url(#pf5217bb98d)">
     <use xlink:href="#mf25cceb4e0" x="0" y="722.183991" style="fill: #3274a1; fill-opacity: 0.5; stroke: #3d3d3d; stroke-opacity: 0.5"/>
    </g>
   </g>
   <g id="PolyCollection_2">
    <defs>
     <path id="mc112ecc77a" d="M 237.045606 -547.631003 
L 236.479394 -547.631003 
L 236.385933 -548.890151 
L 236.270337 -550.149299 
L 236.13036 -551.408448 
L 235.964453 -552.667596 
L 235.772025 -553.926745 
L 235.553683 -555.185893 
L 235.311386 -556.445041 
L 235.048504 -557.70419 
L 234.76974 -558.963338 
L 234.480915 -560.222486 
L 234.188608 -561.481635 
L 233.899693 -562.740783 
L 233.6208 -563.999931 
L 233.357762 -565.25908 
L 233.115116 -566.518228 
L 232.895693 -567.777377 
L 232.700366 -569.036525 
L 232.527965 -570.295673 
L 232.375359 -571.554822 
L 232.237692 -572.81397 
L 232.108731 -574.073118 
L 231.981276 -575.332267 
L 231.847583 -576.591415 
L 231.699762 -577.850563 
L 231.530125 -579.109712 
L 231.331465 -580.36886 
L 231.097292 -581.628009 
L 230.822018 -582.887157 
L 230.501143 -584.146305 
L 230.131434 -585.405454 
L 229.711126 -586.664602 
L 229.240121 -587.92375 
L 228.720173 -589.182899 
L 228.155013 -590.442047 
L 227.550365 -591.701195 
L 226.913819 -592.960344 
L 226.254501 -594.219492 
L 225.582549 -595.478641 
L 224.908381 -596.737789 
L 224.241806 -597.996937 
L 223.591047 -599.256086 
L 222.961762 -600.515234 
L 222.356198 -601.774382 
L 221.772575 -603.033531 
L 221.204814 -604.292679 
L 220.642688 -605.551827 
L 220.072426 -606.810976 
L 219.47774 -608.070124 
L 218.841197 -609.329273 
L 218.145786 -610.588421 
L 217.376504 -611.847569 
L 216.521757 -613.106718 
L 215.574393 -614.365866 
L 214.532231 -615.625014 
L 213.398008 -616.884163 
L 212.17879 -618.143311 
L 210.884947 -619.40246 
L 209.52889 -620.661608 
L 208.123816 -621.920756 
L 206.682706 -623.179905 
L 205.217767 -624.439053 
L 203.740474 -625.698201 
L 202.262188 -626.95735 
L 200.795301 -628.216498 
L 199.35467 -629.475646 
L 197.9591 -630.734795 
L 196.632561 -631.993943 
L 195.404871 -633.253092 
L 194.311632 -634.51224 
L 193.393299 -635.771388 
L 192.693389 -637.030537 
L 192.255949 -638.289685 
L 192.1225 -639.548833 
L 192.328749 -640.807982 
L 192.901407 -642.06713 
L 193.855423 -643.326278 
L 195.191946 -644.585427 
L 196.897217 -645.844575 
L 198.942532 -647.103724 
L 201.285301 -648.362872 
L 203.871119 -649.62202 
L 206.636682 -650.881169 
L 209.513295 -652.140317 
L 212.430672 -653.399465 
L 215.320696 -654.658614 
L 218.120863 -655.917762 
L 220.777112 -657.17691 
L 223.24589 -658.436059 
L 225.495326 -659.695207 
L 227.50552 -660.954356 
L 229.268012 -662.213504 
L 230.784574 -663.472652 
L 232.065525 -664.731801 
L 233.127758 -665.990949 
L 233.99269 -667.250097 
L 234.68431 -668.509246 
L 235.227455 -669.768394 
L 235.6464 -671.027542 
L 235.963806 -672.286691 
L 237.561194 -672.286691 
L 237.561194 -672.286691 
L 237.8786 -671.027542 
L 238.297545 -669.768394 
L 238.84069 -668.509246 
L 239.53231 -667.250097 
L 240.397242 -665.990949 
L 241.459475 -664.731801 
L 242.740426 -663.472652 
L 244.256988 -662.213504 
L 246.01948 -660.954356 
L 248.029674 -659.695207 
L 250.27911 -658.436059 
L 252.747888 -657.17691 
L 255.404137 -655.917762 
L 258.204304 -654.658614 
L 261.094328 -653.399465 
L 264.011705 -652.140317 
L 266.888318 -650.881169 
L 269.653881 -649.62202 
L 272.239699 -648.362872 
L 274.582468 -647.103724 
L 276.627783 -645.844575 
L 278.333054 -644.585427 
L 279.669577 -643.326278 
L 280.623593 -642.06713 
L 281.196251 -640.807982 
L 281.4025 -639.548833 
L 281.269051 -638.289685 
L 280.831611 -637.030537 
L 280.131701 -635.771388 
L 279.213368 -634.51224 
L 278.120129 -633.253092 
L 276.892439 -631.993943 
L 275.5659 -630.734795 
L 274.17033 -629.475646 
L 272.729699 -628.216498 
L 271.262812 -626.95735 
L 269.784526 -625.698201 
L 268.307233 -624.439053 
L 266.842294 -623.179905 
L 265.401184 -621.920756 
L 263.99611 -620.661608 
L 262.640053 -619.40246 
L 261.34621 -618.143311 
L 260.126992 -616.884163 
L 258.992769 -615.625014 
L 257.950607 -614.365866 
L 257.003243 -613.106718 
L 256.148496 -611.847569 
L 255.379214 -610.588421 
L 254.683803 -609.329273 
L 254.04726 -608.070124 
L 253.452574 -606.810976 
L 252.882312 -605.551827 
L 252.320186 -604.292679 
L 251.752425 -603.033531 
L 251.168802 -601.774382 
L 250.563238 -600.515234 
L 249.933953 -599.256086 
L 249.283194 -597.996937 
L 248.616619 -596.737789 
L 247.942451 -595.478641 
L 247.270499 -594.219492 
L 246.611181 -592.960344 
L 245.974635 -591.701195 
L 245.369987 -590.442047 
L 244.804827 -589.182899 
L 244.284879 -587.92375 
L 243.813874 -586.664602 
L 243.393566 -585.405454 
L 243.023857 -584.146305 
L 242.702982 -582.887157 
L 242.427708 -581.628009 
L 242.193535 -580.36886 
L 241.994875 -579.109712 
L 241.825238 -577.850563 
L 241.677417 -576.591415 
L 241.543724 -575.332267 
L 241.416269 -574.073118 
L 241.287308 -572.81397 
L 241.149641 -571.554822 
L 240.997035 -570.295673 
L 240.824634 -569.036525 
L 240.629307 -567.777377 
L 240.409884 -566.518228 
L 240.167238 -565.25908 
L 239.9042 -563.999931 
L 239.625307 -562.740783 
L 239.336392 -561.481635 
L 239.044085 -560.222486 
L 238.75526 -558.963338 
L 238.476496 -557.70419 
L 238.213614 -556.445041 
L 237.971317 -555.185893 
L 237.752975 -553.926745 
L 237.560547 -552.667596 
L 237.39464 -551.408448 
L 237.254663 -550.149299 
L 237.139067 -548.890151 
L 237.045606 -547.631003 
z
" style="stroke: #3d3d3d; stroke-opacity: 0.5"/>
    </defs>
    <g clip-path="url(#pf5217bb98d)">
     <use xlink:href="#mc112ecc77a" x="0" y="722.183991" style="fill: #d684bd; fill-opacity: 0.5; stroke: #3d3d3d; stroke-opacity: 0.5"/>
    </g>
   </g>
   <g id="PolyCollection_3">
    <defs>
     <path id="m7371c030ec" d="M 348.931944 -185.783991 
L 347.793056 -185.783991 
L 347.576993 -190.695545 
L 347.29458 -195.607098 
L 346.931293 -200.518652 
L 346.471338 -205.430205 
L 345.898127 -210.341759 
L 345.194942 -215.253312 
L 344.345761 -220.164866 
L 343.336239 -225.07642 
L 342.154783 -229.987973 
L 340.793663 -234.899527 
L 339.250057 -239.81108 
L 337.526952 -244.722634 
L 335.633782 -249.634187 
L 333.586712 -254.545741 
L 331.408503 -259.457295 
L 329.127896 -264.368848 
L 326.778539 -269.280402 
L 324.397499 -274.191955 
L 322.023462 -279.103509 
L 319.694791 -284.015062 
L 317.447614 -288.926616 
L 315.314154 -293.838169 
L 313.321483 -298.749723 
L 311.490839 -303.661277 
L 309.837596 -308.57283 
L 308.371868 -313.484384 
L 307.099652 -318.395937 
L 306.024338 -323.307491 
L 305.148332 -328.219044 
L 304.474555 -333.130598 
L 304.007544 -338.042152 
L 303.753975 -342.953705 
L 303.7225 -347.865259 
L 303.922892 -352.776812 
L 304.364601 -357.688366 
L 305.054914 -362.599919 
L 305.996983 -367.511473 
L 307.187988 -372.423026 
L 308.617705 -377.33458 
L 310.267675 -382.246134 
L 312.111097 -387.157687 
L 314.113469 -392.069241 
L 316.233916 -396.980794 
L 318.427054 -401.892348 
L 320.645188 -406.803901 
L 322.840644 -411.715455 
L 324.968007 -416.627009 
L 326.986089 -421.538562 
L 328.859517 -426.450116 
L 330.559841 -431.361669 
L 332.066175 -436.273223 
L 333.365395 -441.184776 
L 334.451953 -446.09633 
L 335.327412 -451.007883 
L 335.999777 -455.919437 
L 336.482706 -460.830991 
L 336.794666 -465.742544 
L 336.958049 -470.654098 
L 336.998288 -475.565651 
L 336.942943 -480.477205 
L 336.820761 -485.388758 
L 336.660685 -490.300312 
L 336.490828 -495.211866 
L 336.337418 -500.123419 
L 336.223767 -505.034973 
L 336.169327 -509.946526 
L 336.188907 -514.85808 
L 336.29214 -519.769633 
L 336.483257 -524.681187 
L 336.761226 -529.592741 
L 337.120247 -534.504294 
L 337.550584 -539.415848 
L 338.039648 -544.327401 
L 338.573223 -549.238955 
L 339.136716 -554.150508 
L 339.716299 -559.062062 
L 340.299826 -563.973615 
L 340.877459 -568.885169 
L 341.441945 -573.796723 
L 341.988578 -578.708276 
L 342.514868 -583.61983 
L 343.020024 -588.531383 
L 343.504325 -593.442937 
L 343.968502 -598.35449 
L 344.413201 -603.266044 
L 344.838602 -608.177598 
L 345.244213 -613.089151 
L 345.628856 -618.000705 
L 345.9908 -622.912258 
L 346.328011 -627.823812 
L 346.638451 -632.735365 
L 346.920375 -637.646919 
L 347.172589 -642.558472 
L 347.394618 -647.470026 
L 347.586788 -652.38158 
L 347.750215 -657.293133 
L 347.88671 -662.204687 
L 347.998631 -667.11624 
L 348.088708 -672.027794 
L 348.636292 -672.027794 
L 348.636292 -672.027794 
L 348.726369 -667.11624 
L 348.83829 -662.204687 
L 348.974785 -657.293133 
L 349.138212 -652.38158 
L 349.330382 -647.470026 
L 349.552411 -642.558472 
L 349.804625 -637.646919 
L 350.086549 -632.735365 
L 350.396989 -627.823812 
L 350.7342 -622.912258 
L 351.096144 -618.000705 
L 351.480787 -613.089151 
L 351.886398 -608.177598 
L 352.311799 -603.266044 
L 352.756498 -598.35449 
L 353.220675 -593.442937 
L 353.704976 -588.531383 
L 354.210132 -583.61983 
L 354.736422 -578.708276 
L 355.283055 -573.796723 
L 355.847541 -568.885169 
L 356.425174 -563.973615 
L 357.008701 -559.062062 
L 357.588284 -554.150508 
L 358.151777 -549.238955 
L 358.685352 -544.327401 
L 359.174416 -539.415848 
L 359.604753 -534.504294 
L 359.963774 -529.592741 
L 360.241743 -524.681187 
L 360.43286 -519.769633 
L 360.536093 -514.85808 
L 360.555673 -509.946526 
L 360.501233 -505.034973 
L 360.387582 -500.123419 
L 360.234172 -495.211866 
L 360.064315 -490.300312 
L 359.904239 -485.388758 
L 359.782057 -480.477205 
L 359.726712 -475.565651 
L 359.766951 -470.654098 
L 359.930334 -465.742544 
L 360.242294 -460.830991 
L 360.725223 -455.919437 
L 361.397588 -451.007883 
L 362.273047 -446.09633 
L 363.359605 -441.184776 
L 364.658825 -436.273223 
L 366.165159 -431.361669 
L 367.865483 -426.450116 
L 369.738911 -421.538562 
L 371.756993 -416.627009 
L 373.884356 -411.715455 
L 376.079812 -406.803901 
L 378.297946 -401.892348 
L 380.491084 -396.980794 
L 382.611531 -392.069241 
L 384.613903 -387.157687 
L 386.457325 -382.246134 
L 388.107295 -377.33458 
L 389.537012 -372.423026 
L 390.728017 -367.511473 
L 391.670086 -362.599919 
L 392.360399 -357.688366 
L 392.802108 -352.776812 
L 393.0025 -347.865259 
L 392.971025 -342.953705 
L 392.717456 -338.042152 
L 392.250445 -333.130598 
L 391.576668 -328.219044 
L 390.700662 -323.307491 
L 389.625348 -318.395937 
L 388.353132 -313.484384 
L 386.887404 -308.57283 
L 385.234161 -303.661277 
L 383.403517 -298.749723 
L 381.410846 -293.838169 
L 379.277386 -288.926616 
L 377.030209 -284.015062 
L 374.701538 -279.103509 
L 372.327501 -274.191955 
L 369.946461 -269.280402 
L 367.597104 -264.368848 
L 365.316497 -259.457295 
L 363.138288 -254.545741 
L 361.091218 -249.634187 
L 359.198048 -244.722634 
L 357.474943 -239.81108 
L 355.931337 -234.899527 
L 354.570217 -229.987973 
L 353.388761 -225.07642 
L 352.379239 -220.164866 
L 351.530058 -215.253312 
L 350.826873 -210.341759 
L 350.253662 -205.430205 
L 349.793707 -200.518652 
L 349.43042 -195.607098 
L 349.148007 -190.695545 
L 348.931944 -185.783991 
z
" style="stroke: #3d3d3d; stroke-opacity: 0.5"/>
    </defs>
    <g clip-path="url(#pf5217bb98d)">
     <use xlink:href="#m7371c030ec" x="0" y="722.183991" style="fill: #c03d3e; fill-opacity: 0.5; stroke: #3d3d3d; stroke-opacity: 0.5"/>
    </g>
   </g>
   <g id="PolyCollection_4">
    <defs>
     <path id="mbba5b2b2d3" d="M 460.194282 -526.023432 
L 459.730718 -526.023432 
L 459.652186 -527.402646 
L 459.555851 -528.781859 
L 459.440749 -530.161072 
L 459.306809 -531.540286 
L 459.154996 -532.919499 
L 458.987344 -534.298712 
L 458.806816 -535.677926 
L 458.617002 -537.057139 
L 458.421656 -538.436352 
L 458.224127 -539.815566 
L 458.026758 -541.194779 
L 457.830349 -542.573993 
L 457.633798 -543.953206 
L 457.433982 -545.332419 
L 457.225938 -546.711633 
L 457.003336 -548.090846 
L 456.759175 -549.470059 
L 456.486604 -550.849273 
L 456.179731 -552.228486 
L 455.834284 -553.607699 
L 455.448011 -554.986913 
L 455.020748 -556.366126 
L 454.554155 -557.745339 
L 454.051163 -559.124553 
L 453.515242 -560.503766 
L 452.949607 -561.882979 
L 452.356516 -563.262193 
L 451.736758 -564.641406 
L 451.089431 -566.020619 
L 450.412038 -567.399833 
L 449.700881 -568.779046 
L 448.951696 -570.15826 
L 448.160426 -571.537473 
L 447.323997 -572.916686 
L 446.440983 -574.2959 
L 445.512029 -575.675113 
L 444.539955 -577.054326 
L 443.529503 -578.43354 
L 442.486751 -579.812753 
L 441.418277 -581.191966 
L 440.330222 -582.57118 
L 439.227407 -583.950393 
L 438.112707 -585.329606 
L 436.986809 -586.70882 
L 435.848463 -588.088033 
L 434.695217 -589.467246 
L 433.524547 -590.84646 
L 432.335191 -592.225673 
L 431.128431 -593.604886 
L 429.909058 -594.9841 
L 428.685755 -596.363313 
L 427.470763 -597.742526 
L 426.278771 -599.12174 
L 425.125188 -600.500953 
L 424.024036 -601.880167 
L 422.985893 -603.25938 
L 422.016286 -604.638593 
L 421.114983 -606.017807 
L 420.276439 -607.39702 
L 419.491514 -608.776233 
L 418.750319 -610.155447 
L 418.0458 -611.53466 
L 417.377498 -612.913873 
L 416.75482 -614.293087 
L 416.199134 -615.6723 
L 415.744204 -617.051513 
L 415.434651 -618.430727 
L 415.3225 -619.80994 
L 415.46215 -621.189153 
L 415.904404 -622.568367 
L 416.690344 -623.94758 
L 417.845923 -625.326793 
L 419.378005 -626.706007 
L 421.272407 -628.08522 
L 423.494191 -629.464434 
L 425.990127 -630.843647 
L 428.692962 -632.22286 
L 431.526893 -633.602074 
L 434.413529 -634.981287 
L 437.277621 -636.3605 
L 440.051927 -637.739714 
L 442.680788 -639.118927 
L 445.122172 -640.49814 
L 447.348212 -641.877354 
L 449.344421 -643.256567 
L 451.10793 -644.63578 
L 452.645128 -646.014994 
L 453.969109 -647.394207 
L 455.097233 -648.77342 
L 456.049049 -650.152634 
L 456.844676 -651.531847 
L 457.503691 -652.91106 
L 458.044454 -654.290274 
L 458.483774 -655.669487 
L 458.836818 -657.048701 
L 459.117149 -658.427914 
L 459.336823 -659.807127 
L 459.506496 -661.186341 
L 459.635511 -662.565554 
L 460.289489 -662.565554 
L 460.289489 -662.565554 
L 460.418504 -661.186341 
L 460.588177 -659.807127 
L 460.807851 -658.427914 
L 461.088182 -657.048701 
L 461.441226 -655.669487 
L 461.880546 -654.290274 
L 462.421309 -652.91106 
L 463.080324 -651.531847 
L 463.875951 -650.152634 
L 464.827767 -648.77342 
L 465.955891 -647.394207 
L 467.279872 -646.014994 
L 468.81707 -644.63578 
L 470.580579 -643.256567 
L 472.576788 -641.877354 
L 474.802828 -640.49814 
L 477.244212 -639.118927 
L 479.873073 -637.739714 
L 482.647379 -636.3605 
L 485.511471 -634.981287 
L 488.398107 -633.602074 
L 491.232038 -632.22286 
L 493.934873 -630.843647 
L 496.430809 -629.464434 
L 498.652593 -628.08522 
L 500.546995 -626.706007 
L 502.079077 -625.326793 
L 503.234656 -623.94758 
L 504.020596 -622.568367 
L 504.46285 -621.189153 
L 504.6025 -619.80994 
L 504.490349 -618.430727 
L 504.180796 -617.051513 
L 503.725866 -615.6723 
L 503.17018 -614.293087 
L 502.547502 -612.913873 
L 501.8792 -611.53466 
L 501.174681 -610.155447 
L 500.433486 -608.776233 
L 499.648561 -607.39702 
L 498.810017 -606.017807 
L 497.908714 -604.638593 
L 496.939107 -603.25938 
L 495.900964 -601.880167 
L 494.799812 -600.500953 
L 493.646229 -599.12174 
L 492.454237 -597.742526 
L 491.239245 -596.363313 
L 490.015942 -594.9841 
L 488.796569 -593.604886 
L 487.589809 -592.225673 
L 486.400453 -590.84646 
L 485.229783 -589.467246 
L 484.076537 -588.088033 
L 482.938191 -586.70882 
L 481.812293 -585.329606 
L 480.697593 -583.950393 
L 479.594778 -582.57118 
L 478.506723 -581.191966 
L 477.438249 -579.812753 
L 476.395497 -578.43354 
L 475.385045 -577.054326 
L 474.412971 -575.675113 
L 473.484017 -574.2959 
L 472.601003 -572.916686 
L 471.764574 -571.537473 
L 470.973304 -570.15826 
L 470.224119 -568.779046 
L 469.512962 -567.399833 
L 468.835569 -566.020619 
L 468.188242 -564.641406 
L 467.568484 -563.262193 
L 466.975393 -561.882979 
L 466.409758 -560.503766 
L 465.873837 -559.124553 
L 465.370845 -557.745339 
L 464.904252 -556.366126 
L 464.476989 -554.986913 
L 464.090716 -553.607699 
L 463.745269 -552.228486 
L 463.438396 -550.849273 
L 463.165825 -549.470059 
L 462.921664 -548.090846 
L 462.699062 -546.711633 
L 462.491018 -545.332419 
L 462.291202 -543.953206 
L 462.094651 -542.573993 
L 461.898242 -541.194779 
L 461.700873 -539.815566 
L 461.503344 -538.436352 
L 461.307998 -537.057139 
L 461.118184 -535.677926 
L 460.937656 -534.298712 
L 460.770004 -532.919499 
L 460.618191 -531.540286 
L 460.484251 -530.161072 
L 460.369149 -528.781859 
L 460.272814 -527.402646 
L 460.194282 -526.023432 
z
" style="stroke: #3d3d3d; stroke-opacity: 0.5"/>
    </defs>
    <g clip-path="url(#pf5217bb98d)">
     <use xlink:href="#mbba5b2b2d3" x="0" y="722.183991" style="fill: #9372b2; fill-opacity: 0.5; stroke: #3d3d3d; stroke-opacity: 0.5"/>
    </g>
   </g>
   <g id="PolyCollection_5">
    <defs>
     <path id="mb5a742785d" d="M 571.776681 -506.406427 
L 571.348319 -506.406427 
L 571.275933 -508.017194 
L 571.187688 -509.627961 
L 571.083239 -511.238727 
L 570.963338 -512.849494 
L 570.830031 -514.460261 
L 570.686715 -516.071028 
L 570.538034 -517.681795 
L 570.389553 -519.292561 
L 570.247234 -520.903328 
L 570.116737 -522.514095 
L 570.002616 -524.124862 
L 569.907516 -525.735629 
L 569.831482 -527.346395 
L 569.771506 -528.957162 
L 569.721402 -530.567929 
L 569.672066 -532.178696 
L 569.612134 -533.789462 
L 569.528987 -535.400229 
L 569.409997 -537.010996 
L 569.243879 -538.621763 
L 569.02197 -540.23253 
L 568.73928 -541.843296 
L 568.395157 -543.454063 
L 567.993468 -545.06483 
L 567.542241 -546.675597 
L 567.05279 -548.286364 
L 566.538405 -549.89713 
L 566.012745 -551.507897 
L 565.488119 -553.118664 
L 564.973844 -554.729431 
L 564.474882 -556.340198 
L 563.99091 -557.950964 
L 563.515962 -559.561731 
L 563.038685 -561.172498 
L 562.54324 -562.783265 
L 562.010763 -564.394032 
L 561.421296 -566.004798 
L 560.755985 -567.615565 
L 559.999358 -569.226332 
L 559.141392 -570.837099 
L 558.179135 -572.447866 
L 557.117635 -574.058632 
L 555.969987 -575.669399 
L 554.756417 -577.280166 
L 553.502463 -578.890933 
L 552.236406 -580.5017 
L 550.986279 -582.112466 
L 549.776833 -583.723233 
L 548.62686 -585.334 
L 547.547257 -586.944767 
L 546.54007 -588.555534 
L 545.598618 -590.1663 
L 544.708645 -591.777067 
L 543.850258 -593.387834 
L 543.000378 -594.998601 
L 542.135327 -596.609368 
L 541.233268 -598.220134 
L 540.276265 -599.830901 
L 539.251858 -601.441668 
L 538.154156 -603.052435 
L 536.984526 -604.663202 
L 535.751986 -606.273968 
L 534.473397 -607.884735 
L 533.173488 -609.495502 
L 531.884662 -611.106269 
L 530.646472 -612.717036 
L 529.504626 -614.327802 
L 528.509386 -615.938569 
L 527.713296 -617.549336 
L 527.168315 -619.160103 
L 526.9225 -620.77087 
L 527.016561 -622.381636 
L 527.480627 -623.992403 
L 528.331595 -625.60317 
L 529.571377 -627.213937 
L 531.186229 -628.824704 
L 533.147237 -630.43547 
L 535.411885 -632.046237 
L 537.926502 -633.657004 
L 540.629341 -635.267771 
L 543.453996 -636.878538 
L 546.332876 -638.489304 
L 549.200497 -640.100071 
L 551.996401 -641.710838 
L 554.667547 -643.321605 
L 557.170097 -644.932372 
L 559.470531 -646.543138 
L 561.546082 -648.153905 
L 563.384537 -649.764672 
L 564.983449 -651.375439 
L 566.3489 -652.986206 
L 567.49392 -654.596972 
L 568.436735 -656.207739 
L 569.198982 -657.818506 
L 569.804035 -659.429273 
L 570.275537 -661.04004 
L 570.636221 -662.650806 
L 570.907038 -664.261573 
L 571.106599 -665.87234 
L 572.018401 -665.87234 
L 572.018401 -665.87234 
L 572.217962 -664.261573 
L 572.488779 -662.650806 
L 572.849463 -661.04004 
L 573.320965 -659.429273 
L 573.926018 -657.818506 
L 574.688265 -656.207739 
L 575.63108 -654.596972 
L 576.7761 -652.986206 
L 578.141551 -651.375439 
L 579.740463 -649.764672 
L 581.578918 -648.153905 
L 583.654469 -646.543138 
L 585.954903 -644.932372 
L 588.457453 -643.321605 
L 591.128599 -641.710838 
L 593.924503 -640.100071 
L 596.792124 -638.489304 
L 599.671004 -636.878538 
L 602.495659 -635.267771 
L 605.198498 -633.657004 
L 607.713115 -632.046237 
L 609.977763 -630.43547 
L 611.938771 -628.824704 
L 613.553623 -627.213937 
L 614.793405 -625.60317 
L 615.644373 -623.992403 
L 616.108439 -622.381636 
L 616.2025 -620.77087 
L 615.956685 -619.160103 
L 615.411704 -617.549336 
L 614.615614 -615.938569 
L 613.620374 -614.327802 
L 612.478528 -612.717036 
L 611.240338 -611.106269 
L 609.951512 -609.495502 
L 608.651603 -607.884735 
L 607.373014 -606.273968 
L 606.140474 -604.663202 
L 604.970844 -603.052435 
L 603.873142 -601.441668 
L 602.848735 -599.830901 
L 601.891732 -598.220134 
L 600.989673 -596.609368 
L 600.124622 -594.998601 
L 599.274742 -593.387834 
L 598.416355 -591.777067 
L 597.526382 -590.1663 
L 596.58493 -588.555534 
L 595.577743 -586.944767 
L 594.49814 -585.334 
L 593.348167 -583.723233 
L 592.138721 -582.112466 
L 590.888594 -580.5017 
L 589.622537 -578.890933 
L 588.368583 -577.280166 
L 587.155013 -575.669399 
L 586.007365 -574.058632 
L 584.945865 -572.447866 
L 583.983608 -570.837099 
L 583.125642 -569.226332 
L 582.369015 -567.615565 
L 581.703704 -566.004798 
L 581.114237 -564.394032 
L 580.58176 -562.783265 
L 580.086315 -561.172498 
L 579.609038 -559.561731 
L 579.13409 -557.950964 
L 578.650118 -556.340198 
L 578.151156 -554.729431 
L 577.636881 -553.118664 
L 577.112255 -551.507897 
L 576.586595 -549.89713 
L 576.07221 -548.286364 
L 575.582759 -546.675597 
L 575.131532 -545.06483 
L 574.729843 -543.454063 
L 574.38572 -541.843296 
L 574.10303 -540.23253 
L 573.881121 -538.621763 
L 573.715003 -537.010996 
L 573.596013 -535.400229 
L 573.512866 -533.789462 
L 573.452934 -532.178696 
L 573.403598 -530.567929 
L 573.353494 -528.957162 
L 573.293518 -527.346395 
L 573.217484 -525.735629 
L 573.122384 -524.124862 
L 573.008263 -522.514095 
L 572.877766 -520.903328 
L 572.735447 -519.292561 
L 572.586966 -517.681795 
L 572.438285 -516.071028 
L 572.294969 -514.460261 
L 572.161662 -512.849494 
L 572.041761 -511.238727 
L 571.937312 -509.627961 
L 571.849067 -508.017194 
L 571.776681 -506.406427 
z
" style="stroke: #3d3d3d; stroke-opacity: 0.5"/>
    </defs>
    <g clip-path="url(#pf5217bb98d)">
     <use xlink:href="#mb5a742785d" x="0" y="722.183991" style="fill: #845b53; fill-opacity: 0.5; stroke: #3d3d3d; stroke-opacity: 0.5"/>
    </g>
   </g>
   <g id="PolyCollection_6">
    <defs>
     <path id="m60d9377284" d="M 683.682957 -595.58964 
L 682.642043 -595.58964 
L 682.472045 -596.25952 
L 682.25974 -596.929399 
L 681.998975 -597.599279 
L 681.683946 -598.269159 
L 681.309577 -598.939039 
L 680.8719 -599.608919 
L 680.368428 -600.278798 
L 679.79846 -600.948678 
L 679.16331 -601.618558 
L 678.466409 -602.288438 
L 677.713273 -602.958318 
L 676.911329 -603.628197 
L 676.06962 -604.298077 
L 675.198402 -604.967957 
L 674.308686 -605.637837 
L 673.411751 -606.307717 
L 672.518685 -606.977596 
L 671.639966 -607.647476 
L 670.785121 -608.317356 
L 669.962434 -608.987236 
L 669.17872 -609.657116 
L 668.43911 -610.326995 
L 667.746841 -610.996875 
L 667.103026 -611.666755 
L 666.506395 -612.336635 
L 665.953039 -613.006515 
L 665.436196 -613.676395 
L 664.946147 -614.346274 
L 664.470288 -615.016154 
L 663.993466 -615.686034 
L 663.498621 -616.355914 
L 662.96775 -617.025794 
L 662.383181 -617.695673 
L 661.72906 -618.365553 
L 660.992948 -619.035433 
L 660.167341 -619.705313 
L 659.250942 -620.375193 
L 658.249508 -621.045072 
L 657.176099 -621.714952 
L 656.050649 -622.384832 
L 654.898809 -623.054712 
L 653.75012 -623.724592 
L 652.63564 -624.394471 
L 651.585237 -625.064351 
L 650.624801 -625.734231 
L 649.773667 -626.404111 
L 649.042538 -627.073991 
L 648.432154 -627.74387 
L 647.932892 -628.41375 
L 647.525406 -629.08363 
L 647.182269 -629.75351 
L 646.870519 -630.42339 
L 646.55487 -631.093269 
L 646.201294 -631.763149 
L 645.780608 -632.433029 
L 645.27171 -633.102909 
L 644.664134 -633.772789 
L 643.959656 -634.442669 
L 643.172781 -635.112548 
L 642.330094 -635.782428 
L 641.468512 -636.452308 
L 640.632672 -637.122188 
L 639.871694 -637.792068 
L 639.23566 -638.461947 
L 638.772153 -639.131827 
L 638.523147 -639.801707 
L 638.5225 -640.471587 
L 638.794224 -641.141467 
L 639.351583 -641.811346 
L 640.197005 -642.481226 
L 641.322711 -643.151106 
L 642.711892 -643.820986 
L 644.340267 -644.490866 
L 646.177822 -645.160745 
L 648.190566 -645.830625 
L 650.342177 -646.500505 
L 652.595444 -647.170385 
L 654.913471 -647.840265 
L 657.260632 -648.510144 
L 659.603307 -649.180024 
L 661.91044 -649.849904 
L 664.153967 -650.519784 
L 666.30914 -651.189664 
L 668.354797 -651.859544 
L 670.273558 -652.529423 
L 672.051971 -653.199303 
L 673.680572 -653.869183 
L 675.153861 -654.539063 
L 676.470162 -655.208943 
L 677.631371 -655.878822 
L 678.642582 -656.548702 
L 679.51162 -657.218582 
L 680.248498 -657.888462 
L 680.864822 -658.558342 
L 681.373198 -659.228221 
L 681.786658 -659.898101 
L 682.118153 -660.567981 
L 682.380115 -661.237861 
L 682.584125 -661.907741 
L 683.740875 -661.907741 
L 683.740875 -661.907741 
L 683.944885 -661.237861 
L 684.206847 -660.567981 
L 684.538342 -659.898101 
L 684.951802 -659.228221 
L 685.460178 -658.558342 
L 686.076502 -657.888462 
L 686.81338 -657.218582 
L 687.682418 -656.548702 
L 688.693629 -655.878822 
L 689.854838 -655.208943 
L 691.171139 -654.539063 
L 692.644428 -653.869183 
L 694.273029 -653.199303 
L 696.051442 -652.529423 
L 697.970203 -651.859544 
L 700.01586 -651.189664 
L 702.171033 -650.519784 
L 704.41456 -649.849904 
L 706.721693 -649.180024 
L 709.064368 -648.510144 
L 711.411529 -647.840265 
L 713.729556 -647.170385 
L 715.982823 -646.500505 
L 718.134434 -645.830625 
L 720.147178 -645.160745 
L 721.984733 -644.490866 
L 723.613108 -643.820986 
L 725.002289 -643.151106 
L 726.127995 -642.481226 
L 726.973417 -641.811346 
L 727.530776 -641.141467 
L 727.8025 -640.471587 
L 727.801853 -639.801707 
L 727.552847 -639.131827 
L 727.08934 -638.461947 
L 726.453306 -637.792068 
L 725.692328 -637.122188 
L 724.856488 -636.452308 
L 723.994906 -635.782428 
L 723.152219 -635.112548 
L 722.365344 -634.442669 
L 721.660866 -633.772789 
L 721.05329 -633.102909 
L 720.544392 -632.433029 
L 720.123706 -631.763149 
L 719.77013 -631.093269 
L 719.454481 -630.42339 
L 719.142731 -629.75351 
L 718.799594 -629.08363 
L 718.392108 -628.41375 
L 717.892846 -627.74387 
L 717.282462 -627.073991 
L 716.551333 -626.404111 
L 715.700199 -625.734231 
L 714.739763 -625.064351 
L 713.68936 -624.394471 
L 712.57488 -623.724592 
L 711.426191 -623.054712 
L 710.274351 -622.384832 
L 709.148901 -621.714952 
L 708.075492 -621.045072 
L 707.074058 -620.375193 
L 706.157659 -619.705313 
L 705.332052 -619.035433 
L 704.59594 -618.365553 
L 703.941819 -617.695673 
L 703.35725 -617.025794 
L 702.826379 -616.355914 
L 702.331534 -615.686034 
L 701.854712 -615.016154 
L 701.378853 -614.346274 
L 700.888804 -613.676395 
L 700.371961 -613.006515 
L 699.818605 -612.336635 
L 699.221974 -611.666755 
L 698.578159 -610.996875 
L 697.88589 -610.326995 
L 697.14628 -609.657116 
L 696.362566 -608.987236 
L 695.539879 -608.317356 
L 694.685034 -607.647476 
L 693.806315 -606.977596 
L 692.913249 -606.307717 
L 692.016314 -605.637837 
L 691.126598 -604.967957 
L 690.25538 -604.298077 
L 689.413671 -603.628197 
L 688.611727 -602.958318 
L 687.858591 -602.288438 
L 687.16169 -601.618558 
L 686.52654 -600.948678 
L 685.956572 -600.278798 
L 685.4531 -599.608919 
L 685.015423 -598.939039 
L 684.641054 -598.269159 
L 684.326025 -597.599279 
L 684.06526 -596.929399 
L 683.852955 -596.25952 
L 683.682957 -595.58964 
z
" style="stroke: #3d3d3d; stroke-opacity: 0.5"/>
    </defs>
    <g clip-path="url(#pf5217bb98d)">
     <use xlink:href="#m60d9377284" x="0" y="722.183991" style="fill: #e1812c; fill-opacity: 0.5; stroke: #3d3d3d; stroke-opacity: 0.5"/>
    </g>
   </g>
   <g id="PolyCollection_7">
    <defs>
     <path id="m62bce85e1a" d="M 795.213966 -543.38397 
L 794.311034 -543.38397 
L 794.174585 -544.622902 
L 794.009773 -545.861834 
L 793.814821 -547.100766 
L 793.589042 -548.339698 
L 793.333105 -549.57863 
L 793.049218 -550.817562 
L 792.741194 -552.056494 
L 792.41437 -553.295426 
L 792.075371 -554.534358 
L 791.73171 -555.77329 
L 791.391267 -557.012222 
L 791.061674 -558.251154 
L 790.749688 -559.490086 
L 790.460599 -560.729018 
L 790.197767 -561.96795 
L 789.962305 -563.206882 
L 789.752988 -564.445814 
L 789.566349 -565.684747 
L 789.396975 -566.923679 
L 789.237947 -568.162611 
L 789.081358 -569.401543 
L 788.918851 -570.640475 
L 788.742112 -571.879407 
L 788.543262 -573.118339 
L 788.315124 -574.357271 
L 788.051355 -575.596203 
L 787.746469 -576.835135 
L 787.395761 -578.074067 
L 786.995199 -579.312999 
L 786.541311 -580.551931 
L 786.031109 -581.790863 
L 785.462065 -583.029795 
L 784.832162 -584.268727 
L 784.13999 -585.507659 
L 783.384889 -586.746591 
L 782.567094 -587.985523 
L 781.687862 -589.224455 
L 780.74957 -590.463387 
L 779.75575 -591.702319 
L 778.711088 -592.941251 
L 777.621382 -594.180183 
L 776.493475 -595.419115 
L 775.335189 -596.658047 
L 774.155269 -597.896979 
L 772.963326 -599.135911 
L 771.769773 -600.374843 
L 770.585723 -601.613775 
L 769.422803 -602.852707 
L 768.292844 -604.091639 
L 767.207411 -605.330571 
L 766.177164 -606.569503 
L 765.211052 -607.808435 
L 764.315407 -609.047367 
L 763.493021 -610.286299 
L 762.742331 -611.525231 
L 762.056847 -612.764163 
L 761.424986 -614.003095 
L 760.830411 -615.242027 
L 760.252962 -616.480959 
L 759.670195 -617.719891 
L 759.059449 -618.958823 
L 758.400299 -620.197755 
L 757.677181 -621.436687 
L 756.881912 -622.675619 
L 756.015816 -623.914551 
L 755.09119 -625.153483 
L 754.131879 -626.392415 
L 753.172839 -627.631347 
L 752.258651 -628.870279 
L 751.441075 -630.109211 
L 750.775825 -631.348143 
L 750.318861 -632.587075 
L 750.1225 -633.826007 
L 750.231694 -635.064939 
L 750.680797 -636.303871 
L 751.491063 -637.542803 
L 752.669073 -638.781735 
L 754.206167 -640.020667 
L 756.078884 -641.259599 
L 758.250345 -642.498531 
L 760.672403 -643.737463 
L 763.2884 -644.976395 
L 766.036287 -646.215327 
L 768.85189 -647.454259 
L 771.672093 -648.693191 
L 774.437754 -649.932123 
L 777.09616 -651.171055 
L 779.602926 -652.409987 
L 781.923246 -653.648919 
L 784.032474 -654.887851 
L 785.916062 -656.126783 
L 787.56894 -657.365715 
L 788.994419 -658.604647 
L 790.202776 -659.843579 
L 791.20965 -661.082511 
L 792.034393 -662.321443 
L 792.698492 -663.560375 
L 793.224167 -664.799307 
L 793.63321 -666.038239 
L 795.89179 -666.038239 
L 795.89179 -666.038239 
L 796.300833 -664.799307 
L 796.826508 -663.560375 
L 797.490607 -662.321443 
L 798.31535 -661.082511 
L 799.322224 -659.843579 
L 800.530581 -658.604647 
L 801.95606 -657.365715 
L 803.608938 -656.126783 
L 805.492526 -654.887851 
L 807.601754 -653.648919 
L 809.922074 -652.409987 
L 812.42884 -651.171055 
L 815.087246 -649.932123 
L 817.852907 -648.693191 
L 820.67311 -647.454259 
L 823.488713 -646.215327 
L 826.2366 -644.976395 
L 828.852597 -643.737463 
L 831.274655 -642.498531 
L 833.446116 -641.259599 
L 835.318833 -640.020667 
L 836.855927 -638.781735 
L 838.033937 -637.542803 
L 838.844203 -636.303871 
L 839.293306 -635.064939 
L 839.4025 -633.826007 
L 839.206139 -632.587075 
L 838.749175 -631.348143 
L 838.083925 -630.109211 
L 837.266349 -628.870279 
L 836.352161 -627.631347 
L 835.393121 -626.392415 
L 834.43381 -625.153483 
L 833.509184 -623.914551 
L 832.643088 -622.675619 
L 831.847819 -621.436687 
L 831.124701 -620.197755 
L 830.465551 -618.958823 
L 829.854805 -617.719891 
L 829.272038 -616.480959 
L 828.694589 -615.242027 
L 828.100014 -614.003095 
L 827.468153 -612.764163 
L 826.782669 -611.525231 
L 826.031979 -610.286299 
L 825.209593 -609.047367 
L 824.313948 -607.808435 
L 823.347836 -606.569503 
L 822.317589 -605.330571 
L 821.232156 -604.091639 
L 820.102197 -602.852707 
L 818.939277 -601.613775 
L 817.755227 -600.374843 
L 816.561674 -599.135911 
L 815.369731 -597.896979 
L 814.189811 -596.658047 
L 813.031525 -595.419115 
L 811.903618 -594.180183 
L 810.813912 -592.941251 
L 809.76925 -591.702319 
L 808.77543 -590.463387 
L 807.837138 -589.224455 
L 806.957906 -587.985523 
L 806.140111 -586.746591 
L 805.38501 -585.507659 
L 804.692838 -584.268727 
L 804.062935 -583.029795 
L 803.493891 -581.790863 
L 802.983689 -580.551931 
L 802.529801 -579.312999 
L 802.129239 -578.074067 
L 801.778531 -576.835135 
L 801.473645 -575.596203 
L 801.209876 -574.357271 
L 800.981738 -573.118339 
L 800.782888 -571.879407 
L 800.606149 -570.640475 
L 800.443642 -569.401543 
L 800.287053 -568.162611 
L 800.128025 -566.923679 
L 799.958651 -565.684747 
L 799.772012 -564.445814 
L 799.562695 -563.206882 
L 799.327233 -561.96795 
L 799.064401 -560.729018 
L 798.775312 -559.490086 
L 798.463326 -558.251154 
L 798.133733 -557.012222 
L 797.79329 -555.77329 
L 797.449629 -554.534358 
L 797.11063 -553.295426 
L 796.783806 -552.056494 
L 796.475782 -550.817562 
L 796.191895 -549.57863 
L 795.935958 -548.339698 
L 795.710179 -547.100766 
L 795.515227 -545.861834 
L 795.350415 -544.622902 
L 795.213966 -543.38397 
z
" style="stroke: #3d3d3d; stroke-opacity: 0.5"/>
    </defs>
    <g clip-path="url(#pf5217bb98d)">
     <use xlink:href="#m62bce85e1a" x="0" y="722.183991" style="fill: #3a923a; fill-opacity: 0.5; stroke: #3d3d3d; stroke-opacity: 0.5"/>
    </g>
   </g>
   <g id="line2d_7">
    <path d="M 125.1625 268.566845 
L 125.1625 92.108908 
" clip-path="url(#pf5217bb98d)" style="fill: none; stroke: #3d3d3d; stroke-width: 1.5; stroke-linecap: round"/>
   </g>
   <g id="line2d_8">
    <path d="M 125.1625 194.392975 
L 125.1625 136.767141 
" clip-path="url(#pf5217bb98d)" style="fill: none; stroke: #3d3d3d; stroke-width: 4.5; stroke-linecap: round"/>
   </g>
   <g id="line2d_9">
    <path d="M 125.1625 163.918233 
" clip-path="url(#pf5217bb98d)" style="fill: none; stroke: #3d3d3d; stroke-width: 1.5; stroke-linecap: round"/>
    <defs>
     <path id="mcb8389997d" d="M 1.875 0 
L -1.875 -0 
" style="stroke: #ffffff; stroke-width: 0.9"/>
    </defs>
    <g clip-path="url(#pf5217bb98d)">
     <use xlink:href="#mcb8389997d" x="125.1625" y="163.918233" style="fill: #ffffff; stroke: #ffffff; stroke-width: 0.9"/>
    </g>
   </g>
   <g id="line2d_10">
    <path d="M 236.7625 136.678585 
L 236.7625 68.225978 
" clip-path="url(#pf5217bb98d)" style="fill: none; stroke: #3d3d3d; stroke-width: 1.5; stroke-linecap: round"/>
   </g>
   <g id="line2d_11">
    <path d="M 236.7625 104.334385 
L 236.7625 79.911946 
" clip-path="url(#pf5217bb98d)" style="fill: none; stroke: #3d3d3d; stroke-width: 4.5; stroke-linecap: round"/>
   </g>
   <g id="line2d_12">
    <path d="M 236.7625 88.276641 
" clip-path="url(#pf5217bb98d)" style="fill: none; stroke: #3d3d3d; stroke-width: 1.5; stroke-linecap: round"/>
    <g clip-path="url(#pf5217bb98d)">
     <use xlink:href="#mcb8389997d" x="236.7625" y="88.276641" style="fill: #ffffff; stroke: #ffffff; stroke-width: 0.9"/>
    </g>
   </g>
   <g id="line2d_13">
    <path d="M 348.3625 463.798216 
L 348.3625 197.11188 
" clip-path="url(#pf5217bb98d)" style="fill: none; stroke: #3d3d3d; stroke-width: 1.5; stroke-linecap: round"/>
   </g>
   <g id="line2d_14">
    <path d="M 348.3625 405.943854 
L 348.3625 320.001844 
" clip-path="url(#pf5217bb98d)" style="fill: none; stroke: #3d3d3d; stroke-width: 4.5; stroke-linecap: round"/>
   </g>
   <g id="line2d_15">
    <path d="M 348.3625 360.164917 
" clip-path="url(#pf5217bb98d)" style="fill: none; stroke: #3d3d3d; stroke-width: 1.5; stroke-linecap: round"/>
    <g clip-path="url(#pf5217bb98d)">
     <use xlink:href="#mcb8389997d" x="348.3625" y="360.164917" style="fill: #ffffff; stroke: #ffffff; stroke-width: 0.9"/>
    </g>
   </g>
   <g id="line2d_16">
    <path d="M 459.9625 162.717064 
L 459.9625 78.034952 
" clip-path="url(#pf5217bb98d)" style="fill: none; stroke: #3d3d3d; stroke-width: 1.5; stroke-linecap: round"/>
   </g>
   <g id="line2d_17">
    <path d="M 459.9625 127.941918 
L 459.9625 98.614561 
" clip-path="url(#pf5217bb98d)" style="fill: none; stroke: #3d3d3d; stroke-width: 4.5; stroke-linecap: round"/>
   </g>
   <g id="line2d_18">
    <path d="M 459.9625 113.193115 
" clip-path="url(#pf5217bb98d)" style="fill: none; stroke: #3d3d3d; stroke-width: 1.5; stroke-linecap: round"/>
    <g clip-path="url(#pf5217bb98d)">
     <use xlink:href="#mcb8389997d" x="459.9625" y="113.193115" style="fill: #ffffff; stroke: #ffffff; stroke-width: 0.9"/>
    </g>
   </g>
   <g id="line2d_19">
    <path d="M 571.5625 168.563651 
L 571.5625 77.628031 
" clip-path="url(#pf5217bb98d)" style="fill: none; stroke: #3d3d3d; stroke-width: 1.5; stroke-linecap: round"/>
   </g>
   <g id="line2d_20">
    <path d="M 571.5625 131.143728 
L 571.5625 97.323159 
" clip-path="url(#pf5217bb98d)" style="fill: none; stroke: #3d3d3d; stroke-width: 4.5; stroke-linecap: round"/>
   </g>
   <g id="line2d_21">
    <path d="M 571.5625 109.578248 
" clip-path="url(#pf5217bb98d)" style="fill: none; stroke: #3d3d3d; stroke-width: 1.5; stroke-linecap: round"/>
    <g clip-path="url(#pf5217bb98d)">
     <use xlink:href="#mcb8389997d" x="571.5625" y="109.578248" style="fill: #ffffff; stroke: #ffffff; stroke-width: 0.9"/>
    </g>
   </g>
   <g id="line2d_22">
    <path d="M 683.1625 116.168199 
L 683.1625 70.702403 
" clip-path="url(#pf5217bb98d)" style="fill: none; stroke: #3d3d3d; stroke-width: 1.5; stroke-linecap: round"/>
   </g>
   <g id="line2d_23">
    <path d="M 683.1625 97.054585 
L 683.1625 80.909973 
" clip-path="url(#pf5217bb98d)" style="fill: none; stroke: #3d3d3d; stroke-width: 4.5; stroke-linecap: round"/>
   </g>
   <g id="line2d_24">
    <path d="M 683.1625 87.895292 
" clip-path="url(#pf5217bb98d)" style="fill: none; stroke: #3d3d3d; stroke-width: 1.5; stroke-linecap: round"/>
    <g clip-path="url(#pf5217bb98d)">
     <use xlink:href="#mcb8389997d" x="683.1625" y="87.895292" style="fill: #ffffff; stroke: #ffffff; stroke-width: 0.9"/>
    </g>
   </g>
   <g id="line2d_25">
    <path d="M 794.7625 150.383614 
L 794.7625 74.678084 
" clip-path="url(#pf5217bb98d)" style="fill: none; stroke: #3d3d3d; stroke-width: 1.5; stroke-linecap: round"/>
   </g>
   <g id="line2d_26">
    <path d="M 794.7625 113.852485 
L 794.7625 85.907087 
" clip-path="url(#pf5217bb98d)" style="fill: none; stroke: #3d3d3d; stroke-width: 4.5; stroke-linecap: round"/>
   </g>
   <g id="line2d_27">
    <path d="M 794.7625 99.787034 
" clip-path="url(#pf5217bb98d)" style="fill: none; stroke: #3d3d3d; stroke-width: 1.5; stroke-linecap: round"/>
    <g clip-path="url(#pf5217bb98d)">
     <use xlink:href="#mcb8389997d" x="794.7625" y="99.787034" style="fill: #ffffff; stroke: #ffffff; stroke-width: 0.9"/>
    </g>
   </g>
   <g id="patch_3">
    <path d="M 69.3625 561.6 
L 850.5625 561.6 
" style="fill: none; stroke: #cccccc; stroke-width: 0.8; stroke-linejoin: miter; stroke-linecap: square"/>
   </g>
  </g>
 </g>
 <defs>
  <clipPath id="pf5217bb98d">
   <rect x="69.3625" y="7.2" width="781.2" height="554.4"/>
  </clipPath>
 </defs>
</svg>
