<?xml version="1.0" encoding="utf-8" standalone="no"?>
<!DOCTYPE svg PUBLIC "-//W3C//DTD SVG 1.1//EN"
  "http://www.w3.org/Graphics/SVG/1.1/DTD/svg11.dtd">
<svg xmlns:xlink="http://www.w3.org/1999/xlink" width="872.53125pt" height="722.183991pt" viewBox="0 0 872.53125 722.183991" xmlns="http://www.w3.org/2000/svg" version="1.1">
 <metadata>
  <rdf:RDF xmlns:dc="http://purl.org/dc/elements/1.1/" xmlns:cc="http://creativecommons.org/ns#" xmlns:rdf="http://www.w3.org/1999/02/22-rdf-syntax-ns#">
   <cc:Work>
    <dc:type rdf:resource="http://purl.org/dc/dcmitype/StillImage"/>
    <dc:date>2024-03-17T20:48:17.618013</dc:date>
    <dc:format>image/svg+xml</dc:format>
    <dc:creator>
     <cc:Agent>
      <dc:title>Matplotlib v3.8.0, https://matplotlib.org/</dc:title>
     </cc:Agent>
    </dc:creator>
   </cc:Work>
  </rdf:RDF>
 </metadata>
 <defs>
  <style type="text/css">*{stroke-linejoin: round; stroke-linecap: butt}</style>
 </defs>
 <g id="figure_1">
  <g id="patch_1">
   <path d="M 0 722.183991 
L 872.53125 722.183991 
L 872.53125 0 
L 0 0 
L 0 722.183991 
z
" style="fill: none"/>
  </g>
  <g id="axes_1">
   <g id="patch_2">
    <path d="M 84.13125 561.6 
L 865.33125 561.6 
L 865.33125 7.2 
L 84.13125 7.2 
L 84.13125 561.6 
z
" style="fill: none"/>
   </g>
   <g id="matplotlib.axis_1">
    <g id="xtick_1">
     <g id="text_1">
      <!-- MSA -->
      <g style="fill: #262626" transform="translate(119.557736 610.465141) rotate(-45) scale(0.2 -0.2)">
       <defs>
        <path id="DejaVuSans-4d" d="M 628 4666 
L 1569 4666 
L 2759 1491 
L 3956 4666 
L 4897 4666 
L 4897 0 
L 4281 0 
L 4281 4097 
L 3078 897 
L 2444 897 
L 1241 4097 
L 1241 0 
L 628 0 
L 628 4666 
z
" transform="scale(0.015625)"/>
        <path id="DejaVuSans-53" d="M 3425 4513 
L 3425 3897 
Q 3066 4069 2747 4153 
Q 2428 4238 2131 4238 
Q 1616 4238 1336 4038 
Q 1056 3838 1056 3469 
Q 1056 3159 1242 3001 
Q 1428 2844 1947 2747 
L 2328 2669 
Q 3034 2534 3370 2195 
Q 3706 1856 3706 1288 
Q 3706 609 3251 259 
Q 2797 -91 1919 -91 
Q 1588 -91 1214 -16 
Q 841 59 441 206 
L 441 856 
Q 825 641 1194 531 
Q 1563 422 1919 422 
Q 2459 422 2753 634 
Q 3047 847 3047 1241 
Q 3047 1584 2836 1778 
Q 2625 1972 2144 2069 
L 1759 2144 
Q 1053 2284 737 2584 
Q 422 2884 422 3419 
Q 422 4038 858 4394 
Q 1294 4750 2059 4750 
Q 2388 4750 2728 4690 
Q 3069 4631 3425 4513 
z
" transform="scale(0.015625)"/>
        <path id="DejaVuSans-41" d="M 2188 4044 
L 1331 1722 
L 3047 1722 
L 2188 4044 
z
M 1831 4666 
L 2547 4666 
L 4325 0 
L 3669 0 
L 3244 1197 
L 1141 1197 
L 716 0 
L 50 0 
L 1831 4666 
z
" transform="scale(0.015625)"/>
       </defs>
       <use xlink:href="#DejaVuSans-4d"/>
       <use xlink:href="#DejaVuSans-53" x="86.279297"/>
       <use xlink:href="#DejaVuSans-41" x="151.630859"/>
      </g>
     </g>
    </g>
    <g id="xtick_2">
     <g id="text_2">
      <!-- Template -->
      <g style="fill: #262626" transform="translate(197.74694 643.875936) rotate(-45) scale(0.2 -0.2)">
       <defs>
        <path id="DejaVuSans-54" d="M -19 4666 
L 3928 4666 
L 3928 4134 
L 2272 4134 
L 2272 0 
L 1638 0 
L 1638 4134 
L -19 4134 
L -19 4666 
z
" transform="scale(0.015625)"/>
        <path id="DejaVuSans-65" d="M 3597 1894 
L 3597 1613 
L 953 1613 
Q 991 1019 1311 708 
Q 1631 397 2203 397 
Q 2534 397 2845 478 
Q 3156 559 3463 722 
L 3463 178 
Q 3153 47 2828 -22 
Q 2503 -91 2169 -91 
Q 1331 -91 842 396 
Q 353 884 353 1716 
Q 353 2575 817 3079 
Q 1281 3584 2069 3584 
Q 2775 3584 3186 3129 
Q 3597 2675 3597 1894 
z
M 3022 2063 
Q 3016 2534 2758 2815 
Q 2500 3097 2075 3097 
Q 1594 3097 1305 2825 
Q 1016 2553 972 2059 
L 3022 2063 
z
" transform="scale(0.015625)"/>
        <path id="DejaVuSans-6d" d="M 3328 2828 
Q 3544 3216 3844 3400 
Q 4144 3584 4550 3584 
Q 5097 3584 5394 3201 
Q 5691 2819 5691 2113 
L 5691 0 
L 5113 0 
L 5113 2094 
Q 5113 2597 4934 2840 
Q 4756 3084 4391 3084 
Q 3944 3084 3684 2787 
Q 3425 2491 3425 1978 
L 3425 0 
L 2847 0 
L 2847 2094 
Q 2847 2600 2669 2842 
Q 2491 3084 2119 3084 
Q 1678 3084 1418 2786 
Q 1159 2488 1159 1978 
L 1159 0 
L 581 0 
L 581 3500 
L 1159 3500 
L 1159 2956 
Q 1356 3278 1631 3431 
Q 1906 3584 2284 3584 
Q 2666 3584 2933 3390 
Q 3200 3197 3328 2828 
z
" transform="scale(0.015625)"/>
        <path id="DejaVuSans-70" d="M 1159 525 
L 1159 -1331 
L 581 -1331 
L 581 3500 
L 1159 3500 
L 1159 2969 
Q 1341 3281 1617 3432 
Q 1894 3584 2278 3584 
Q 2916 3584 3314 3078 
Q 3713 2572 3713 1747 
Q 3713 922 3314 415 
Q 2916 -91 2278 -91 
Q 1894 -91 1617 61 
Q 1341 213 1159 525 
z
M 3116 1747 
Q 3116 2381 2855 2742 
Q 2594 3103 2138 3103 
Q 1681 3103 1420 2742 
Q 1159 2381 1159 1747 
Q 1159 1113 1420 752 
Q 1681 391 2138 391 
Q 2594 391 2855 752 
Q 3116 1113 3116 1747 
z
" transform="scale(0.015625)"/>
        <path id="DejaVuSans-6c" d="M 603 4863 
L 1178 4863 
L 1178 0 
L 603 0 
L 603 4863 
z
" transform="scale(0.015625)"/>
        <path id="DejaVuSans-61" d="M 2194 1759 
Q 1497 1759 1228 1600 
Q 959 1441 959 1056 
Q 959 750 1161 570 
Q 1363 391 1709 391 
Q 2188 391 2477 730 
Q 2766 1069 2766 1631 
L 2766 1759 
L 2194 1759 
z
M 3341 1997 
L 3341 0 
L 2766 0 
L 2766 531 
Q 2569 213 2275 61 
Q 1981 -91 1556 -91 
Q 1019 -91 701 211 
Q 384 513 384 1019 
Q 384 1609 779 1909 
Q 1175 2209 1959 2209 
L 2766 2209 
L 2766 2266 
Q 2766 2663 2505 2880 
Q 2244 3097 1772 3097 
Q 1472 3097 1187 3025 
Q 903 2953 641 2809 
L 641 3341 
Q 956 3463 1253 3523 
Q 1550 3584 1831 3584 
Q 2591 3584 2966 3190 
Q 3341 2797 3341 1997 
z
" transform="scale(0.015625)"/>
        <path id="DejaVuSans-74" d="M 1172 4494 
L 1172 3500 
L 2356 3500 
L 2356 3053 
L 1172 3053 
L 1172 1153 
Q 1172 725 1289 603 
Q 1406 481 1766 481 
L 2356 481 
L 2356 0 
L 1766 0 
Q 1100 0 847 248 
Q 594 497 594 1153 
L 594 3053 
L 172 3053 
L 172 3500 
L 594 3500 
L 594 4494 
L 1172 4494 
z
" transform="scale(0.015625)"/>
       </defs>
       <use xlink:href="#DejaVuSans-54"/>
       <use xlink:href="#DejaVuSans-65" x="44.083984"/>
       <use xlink:href="#DejaVuSans-6d" x="105.607422"/>
       <use xlink:href="#DejaVuSans-70" x="203.019531"/>
       <use xlink:href="#DejaVuSans-6c" x="266.496094"/>
       <use xlink:href="#DejaVuSans-61" x="294.279297"/>
       <use xlink:href="#DejaVuSans-74" x="355.558594"/>
       <use xlink:href="#DejaVuSans-65" x="394.767578"/>
      </g>
     </g>
    </g>
    <g id="xtick_3">
     <g id="text_3">
      <!-- Backbone -->
      <g style="fill: #262626" transform="translate(304.246933 648.975944) rotate(-45) scale(0.2 -0.2)">
       <defs>
        <path id="DejaVuSans-42" d="M 1259 2228 
L 1259 519 
L 2272 519 
Q 2781 519 3026 730 
Q 3272 941 3272 1375 
Q 3272 1813 3026 2020 
Q 2781 2228 2272 2228 
L 1259 2228 
z
M 1259 4147 
L 1259 2741 
L 2194 2741 
Q 2656 2741 2882 2914 
Q 3109 3088 3109 3444 
Q 3109 3797 2882 3972 
Q 2656 4147 2194 4147 
L 1259 4147 
z
M 628 4666 
L 2241 4666 
Q 2963 4666 3353 4366 
Q 3744 4066 3744 3513 
Q 3744 3084 3544 2831 
Q 3344 2578 2956 2516 
Q 3422 2416 3680 2098 
Q 3938 1781 3938 1306 
Q 3938 681 3513 340 
Q 3088 0 2303 0 
L 628 0 
L 628 4666 
z
" transform="scale(0.015625)"/>
        <path id="DejaVuSans-63" d="M 3122 3366 
L 3122 2828 
Q 2878 2963 2633 3030 
Q 2388 3097 2138 3097 
Q 1578 3097 1268 2742 
Q 959 2388 959 1747 
Q 959 1106 1268 751 
Q 1578 397 2138 397 
Q 2388 397 2633 464 
Q 2878 531 3122 666 
L 3122 134 
Q 2881 22 2623 -34 
Q 2366 -91 2075 -91 
Q 1284 -91 818 406 
Q 353 903 353 1747 
Q 353 2603 823 3093 
Q 1294 3584 2113 3584 
Q 2378 3584 2631 3529 
Q 2884 3475 3122 3366 
z
" transform="scale(0.015625)"/>
        <path id="DejaVuSans-6b" d="M 581 4863 
L 1159 4863 
L 1159 1991 
L 2875 3500 
L 3609 3500 
L 1753 1863 
L 3688 0 
L 2938 0 
L 1159 1709 
L 1159 0 
L 581 0 
L 581 4863 
z
" transform="scale(0.015625)"/>
        <path id="DejaVuSans-62" d="M 3116 1747 
Q 3116 2381 2855 2742 
Q 2594 3103 2138 3103 
Q 1681 3103 1420 2742 
Q 1159 2381 1159 1747 
Q 1159 1113 1420 752 
Q 1681 391 2138 391 
Q 2594 391 2855 752 
Q 3116 1113 3116 1747 
z
M 1159 2969 
Q 1341 3281 1617 3432 
Q 1894 3584 2278 3584 
Q 2916 3584 3314 3078 
Q 3713 2572 3713 1747 
Q 3713 922 3314 415 
Q 2916 -91 2278 -91 
Q 1894 -91 1617 61 
Q 1341 213 1159 525 
L 1159 0 
L 581 0 
L 581 4863 
L 1159 4863 
L 1159 2969 
z
" transform="scale(0.015625)"/>
        <path id="DejaVuSans-6f" d="M 1959 3097 
Q 1497 3097 1228 2736 
Q 959 2375 959 1747 
Q 959 1119 1226 758 
Q 1494 397 1959 397 
Q 2419 397 2687 759 
Q 2956 1122 2956 1747 
Q 2956 2369 2687 2733 
Q 2419 3097 1959 3097 
z
M 1959 3584 
Q 2709 3584 3137 3096 
Q 3566 2609 3566 1747 
Q 3566 888 3137 398 
Q 2709 -91 1959 -91 
Q 1206 -91 779 398 
Q 353 888 353 1747 
Q 353 2609 779 3096 
Q 1206 3584 1959 3584 
z
" transform="scale(0.015625)"/>
        <path id="DejaVuSans-6e" d="M 3513 2113 
L 3513 0 
L 2938 0 
L 2938 2094 
Q 2938 2591 2744 2837 
Q 2550 3084 2163 3084 
Q 1697 3084 1428 2787 
Q 1159 2491 1159 1978 
L 1159 0 
L 581 0 
L 581 3500 
L 1159 3500 
L 1159 2956 
Q 1366 3272 1645 3428 
Q 1925 3584 2291 3584 
Q 2894 3584 3203 3211 
Q 3513 2838 3513 2113 
z
" transform="scale(0.015625)"/>
       </defs>
       <use xlink:href="#DejaVuSans-42"/>
       <use xlink:href="#DejaVuSans-61" x="68.603516"/>
       <use xlink:href="#DejaVuSans-63" x="129.882812"/>
       <use xlink:href="#DejaVuSans-6b" x="184.863281"/>
       <use xlink:href="#DejaVuSans-62" x="242.773438"/>
       <use xlink:href="#DejaVuSans-6f" x="306.25"/>
       <use xlink:href="#DejaVuSans-6e" x="367.431641"/>
       <use xlink:href="#DejaVuSans-65" x="430.810547"/>
      </g>
     </g>
    </g>
    <g id="xtick_4">
     <g id="text_4">
      <!-- Heuristic C-$\beta$ -->
      <g style="fill: #262626" transform="translate(394.40392 670.706219) rotate(-45) scale(0.2 -0.2)">
       <defs>
        <path id="DejaVuSans-48" d="M 628 4666 
L 1259 4666 
L 1259 2753 
L 3553 2753 
L 3553 4666 
L 4184 4666 
L 4184 0 
L 3553 0 
L 3553 2222 
L 1259 2222 
L 1259 0 
L 628 0 
L 628 4666 
z
" transform="scale(0.015625)"/>
        <path id="DejaVuSans-75" d="M 544 1381 
L 544 3500 
L 1119 3500 
L 1119 1403 
Q 1119 906 1312 657 
Q 1506 409 1894 409 
Q 2359 409 2629 706 
Q 2900 1003 2900 1516 
L 2900 3500 
L 3475 3500 
L 3475 0 
L 2900 0 
L 2900 538 
Q 2691 219 2414 64 
Q 2138 -91 1772 -91 
Q 1169 -91 856 284 
Q 544 659 544 1381 
z
M 1991 3584 
L 1991 3584 
z
" transform="scale(0.015625)"/>
        <path id="DejaVuSans-72" d="M 2631 2963 
Q 2534 3019 2420 3045 
Q 2306 3072 2169 3072 
Q 1681 3072 1420 2755 
Q 1159 2438 1159 1844 
L 1159 0 
L 581 0 
L 581 3500 
L 1159 3500 
L 1159 2956 
Q 1341 3275 1631 3429 
Q 1922 3584 2338 3584 
Q 2397 3584 2469 3576 
Q 2541 3569 2628 3553 
L 2631 2963 
z
" transform="scale(0.015625)"/>
        <path id="DejaVuSans-69" d="M 603 3500 
L 1178 3500 
L 1178 0 
L 603 0 
L 603 3500 
z
M 603 4863 
L 1178 4863 
L 1178 4134 
L 603 4134 
L 603 4863 
z
" transform="scale(0.015625)"/>
        <path id="DejaVuSans-73" d="M 2834 3397 
L 2834 2853 
Q 2591 2978 2328 3040 
Q 2066 3103 1784 3103 
Q 1356 3103 1142 2972 
Q 928 2841 928 2578 
Q 928 2378 1081 2264 
Q 1234 2150 1697 2047 
L 1894 2003 
Q 2506 1872 2764 1633 
Q 3022 1394 3022 966 
Q 3022 478 2636 193 
Q 2250 -91 1575 -91 
Q 1294 -91 989 -36 
Q 684 19 347 128 
L 347 722 
Q 666 556 975 473 
Q 1284 391 1588 391 
Q 1994 391 2212 530 
Q 2431 669 2431 922 
Q 2431 1156 2273 1281 
Q 2116 1406 1581 1522 
L 1381 1569 
Q 847 1681 609 1914 
Q 372 2147 372 2553 
Q 372 3047 722 3315 
Q 1072 3584 1716 3584 
Q 2034 3584 2315 3537 
Q 2597 3491 2834 3397 
z
" transform="scale(0.015625)"/>
        <path id="DejaVuSans-20" transform="scale(0.015625)"/>
        <path id="DejaVuSans-43" d="M 4122 4306 
L 4122 3641 
Q 3803 3938 3442 4084 
Q 3081 4231 2675 4231 
Q 1875 4231 1450 3742 
Q 1025 3253 1025 2328 
Q 1025 1406 1450 917 
Q 1875 428 2675 428 
Q 3081 428 3442 575 
Q 3803 722 4122 1019 
L 4122 359 
Q 3791 134 3420 21 
Q 3050 -91 2638 -91 
Q 1578 -91 968 557 
Q 359 1206 359 2328 
Q 359 3453 968 4101 
Q 1578 4750 2638 4750 
Q 3056 4750 3426 4639 
Q 3797 4528 4122 4306 
z
" transform="scale(0.015625)"/>
        <path id="DejaVuSans-2d" d="M 313 2009 
L 1997 2009 
L 1997 1497 
L 313 1497 
L 313 2009 
z
" transform="scale(0.015625)"/>
        <path id="DejaVuSans-Oblique-3b2" d="M 872 216 
L 572 -1331 
L -6 -1331 
L 928 3478 
Q 1206 4903 2538 4903 
Q 3888 4903 3659 3700 
Q 3503 2844 2894 2531 
Q 3713 2250 3553 1416 
Q 3272 -69 1759 -66 
Q 1097 -63 872 216 
z
M 1019 966 
Q 1259 422 1875 425 
Q 2775 425 2966 1406 
Q 3138 2288 1675 2219 
L 1778 2750 
Q 2909 2731 3106 3750 
Q 3241 4438 2509 4434 
Q 1691 4434 1503 3459 
L 1019 966 
z
" transform="scale(0.015625)"/>
       </defs>
       <use xlink:href="#DejaVuSans-48" transform="translate(0 0.390625)"/>
       <use xlink:href="#DejaVuSans-65" transform="translate(75.195312 0.390625)"/>
       <use xlink:href="#DejaVuSans-75" transform="translate(136.71875 0.390625)"/>
       <use xlink:href="#DejaVuSans-72" transform="translate(200.097656 0.390625)"/>
       <use xlink:href="#DejaVuSans-69" transform="translate(241.210938 0.390625)"/>
       <use xlink:href="#DejaVuSans-73" transform="translate(268.994141 0.390625)"/>
       <use xlink:href="#DejaVuSans-74" transform="translate(321.09375 0.390625)"/>
       <use xlink:href="#DejaVuSans-69" transform="translate(360.302734 0.390625)"/>
       <use xlink:href="#DejaVuSans-63" transform="translate(388.085938 0.390625)"/>
       <use xlink:href="#DejaVuSans-20" transform="translate(443.066406 0.390625)"/>
       <use xlink:href="#DejaVuSans-43" transform="translate(474.853516 0.390625)"/>
       <use xlink:href="#DejaVuSans-2d" transform="translate(544.677734 0.390625)"/>
       <use xlink:href="#DejaVuSans-Oblique-3b2" transform="translate(580.761719 0.390625)"/>
      </g>
     </g>
    </g>
    <g id="xtick_5">
     <g id="text_5">
      <!-- Template C-$\beta$ -->
      <g style="fill: #262626" transform="translate(501.761279 674.94886) rotate(-45) scale(0.2 -0.2)">
       <use xlink:href="#DejaVuSans-54" transform="translate(0 0.390625)"/>
       <use xlink:href="#DejaVuSans-65" transform="translate(61.083984 0.390625)"/>
       <use xlink:href="#DejaVuSans-6d" transform="translate(122.607422 0.390625)"/>
       <use xlink:href="#DejaVuSans-70" transform="translate(220.019531 0.390625)"/>
       <use xlink:href="#DejaVuSans-6c" transform="translate(283.496094 0.390625)"/>
       <use xlink:href="#DejaVuSans-61" transform="translate(311.279297 0.390625)"/>
       <use xlink:href="#DejaVuSans-74" transform="translate(372.558594 0.390625)"/>
       <use xlink:href="#DejaVuSans-65" transform="translate(411.767578 0.390625)"/>
       <use xlink:href="#DejaVuSans-20" transform="translate(473.291016 0.390625)"/>
       <use xlink:href="#DejaVuSans-43" transform="translate(505.078125 0.390625)"/>
       <use xlink:href="#DejaVuSans-2d" transform="translate(574.902344 0.390625)"/>
       <use xlink:href="#DejaVuSans-Oblique-3b2" transform="translate(610.986328 0.390625)"/>
      </g>
     </g>
    </g>
    <g id="xtick_6">
     <g id="text_6">
      <!-- AttnPacker -->
      <g style="fill: #262626" transform="translate(632.674133 655.348744) rotate(-45) scale(0.2 -0.2)">
       <defs>
        <path id="DejaVuSans-50" d="M 1259 4147 
L 1259 2394 
L 2053 2394 
Q 2494 2394 2734 2622 
Q 2975 2850 2975 3272 
Q 2975 3691 2734 3919 
Q 2494 4147 2053 4147 
L 1259 4147 
z
M 628 4666 
L 2053 4666 
Q 2838 4666 3239 4311 
Q 3641 3956 3641 3272 
Q 3641 2581 3239 2228 
Q 2838 1875 2053 1875 
L 1259 1875 
L 1259 0 
L 628 0 
L 628 4666 
z
" transform="scale(0.015625)"/>
       </defs>
       <use xlink:href="#DejaVuSans-41"/>
       <use xlink:href="#DejaVuSans-74" x="66.658203"/>
       <use xlink:href="#DejaVuSans-74" x="105.867188"/>
       <use xlink:href="#DejaVuSans-6e" x="145.076172"/>
       <use xlink:href="#DejaVuSans-50" x="208.455078"/>
       <use xlink:href="#DejaVuSans-61" x="264.257812"/>
       <use xlink:href="#DejaVuSans-63" x="325.537109"/>
       <use xlink:href="#DejaVuSans-6b" x="380.517578"/>
       <use xlink:href="#DejaVuSans-65" x="434.802734"/>
       <use xlink:href="#DejaVuSans-72" x="496.326172"/>
      </g>
     </g>
    </g>
    <g id="xtick_7">
     <g id="text_7">
      <!-- AttnPacker (AF) -->
      <g style="fill: #262626" transform="translate(710.936258 688.686619) rotate(-45) scale(0.2 -0.2)">
       <defs>
        <path id="DejaVuSans-28" d="M 1984 4856 
Q 1566 4138 1362 3434 
Q 1159 2731 1159 2009 
Q 1159 1288 1364 580 
Q 1569 -128 1984 -844 
L 1484 -844 
Q 1016 -109 783 600 
Q 550 1309 550 2009 
Q 550 2706 781 3412 
Q 1013 4119 1484 4856 
L 1984 4856 
z
" transform="scale(0.015625)"/>
        <path id="DejaVuSans-46" d="M 628 4666 
L 3309 4666 
L 3309 4134 
L 1259 4134 
L 1259 2759 
L 3109 2759 
L 3109 2228 
L 1259 2228 
L 1259 0 
L 628 0 
L 628 4666 
z
" transform="scale(0.015625)"/>
        <path id="DejaVuSans-29" d="M 513 4856 
L 1013 4856 
Q 1481 4119 1714 3412 
Q 1947 2706 1947 2009 
Q 1947 1309 1714 600 
Q 1481 -109 1013 -844 
L 513 -844 
Q 928 -128 1133 580 
Q 1338 1288 1338 2009 
Q 1338 2731 1133 3434 
Q 928 4138 513 4856 
z
" transform="scale(0.015625)"/>
       </defs>
       <use xlink:href="#DejaVuSans-41"/>
       <use xlink:href="#DejaVuSans-74" x="66.658203"/>
       <use xlink:href="#DejaVuSans-74" x="105.867188"/>
       <use xlink:href="#DejaVuSans-6e" x="145.076172"/>
       <use xlink:href="#DejaVuSans-50" x="208.455078"/>
       <use xlink:href="#DejaVuSans-61" x="264.257812"/>
       <use xlink:href="#DejaVuSans-63" x="325.537109"/>
       <use xlink:href="#DejaVuSans-6b" x="380.517578"/>
       <use xlink:href="#DejaVuSans-65" x="434.802734"/>
       <use xlink:href="#DejaVuSans-72" x="496.326172"/>
       <use xlink:href="#DejaVuSans-20" x="537.439453"/>
       <use xlink:href="#DejaVuSans-28" x="569.226562"/>
       <use xlink:href="#DejaVuSans-41" x="608.240234"/>
       <use xlink:href="#DejaVuSans-46" x="676.648438"/>
       <use xlink:href="#DejaVuSans-29" x="734.167969"/>
      </g>
     </g>
    </g>
    <g id="text_8">
     <!-- Method -->
     <g style="fill: #262626" transform="translate(437.225 710.824616) scale(0.2 -0.2)">
      <defs>
       <path id="DejaVuSans-68" d="M 3513 2113 
L 3513 0 
L 2938 0 
L 2938 2094 
Q 2938 2591 2744 2837 
Q 2550 3084 2163 3084 
Q 1697 3084 1428 2787 
Q 1159 2491 1159 1978 
L 1159 0 
L 581 0 
L 581 4863 
L 1159 4863 
L 1159 2956 
Q 1366 3272 1645 3428 
Q 1925 3584 2291 3584 
Q 2894 3584 3203 3211 
Q 3513 2838 3513 2113 
z
" transform="scale(0.015625)"/>
       <path id="DejaVuSans-64" d="M 2906 2969 
L 2906 4863 
L 3481 4863 
L 3481 0 
L 2906 0 
L 2906 525 
Q 2725 213 2448 61 
Q 2172 -91 1784 -91 
Q 1150 -91 751 415 
Q 353 922 353 1747 
Q 353 2572 751 3078 
Q 1150 3584 1784 3584 
Q 2172 3584 2448 3432 
Q 2725 3281 2906 2969 
z
M 947 1747 
Q 947 1113 1208 752 
Q 1469 391 1925 391 
Q 2381 391 2643 752 
Q 2906 1113 2906 1747 
Q 2906 2381 2643 2742 
Q 2381 3103 1925 3103 
Q 1469 3103 1208 2742 
Q 947 2381 947 1747 
z
" transform="scale(0.015625)"/>
      </defs>
      <use xlink:href="#DejaVuSans-4d"/>
      <use xlink:href="#DejaVuSans-65" x="86.279297"/>
      <use xlink:href="#DejaVuSans-74" x="147.802734"/>
      <use xlink:href="#DejaVuSans-68" x="187.011719"/>
      <use xlink:href="#DejaVuSans-6f" x="250.390625"/>
      <use xlink:href="#DejaVuSans-64" x="311.572266"/>
     </g>
    </g>
   </g>
   <g id="matplotlib.axis_2">
    <g id="ytick_1">
     <g id="line2d_1">
      <path d="M 84.13125 548.119308 
L 865.33125 548.119308 
" clip-path="url(#p5efe5dc25f)" style="fill: none; stroke: #cccccc; stroke-width: 0.8; stroke-linecap: round"/>
     </g>
     <g id="text_9">
      <!-- 0.00 -->
      <g style="fill: #262626" transform="translate(32.6 555.717746) scale(0.2 -0.2)">
       <defs>
        <path id="DejaVuSans-30" d="M 2034 4250 
Q 1547 4250 1301 3770 
Q 1056 3291 1056 2328 
Q 1056 1369 1301 889 
Q 1547 409 2034 409 
Q 2525 409 2770 889 
Q 3016 1369 3016 2328 
Q 3016 3291 2770 3770 
Q 2525 4250 2034 4250 
z
M 2034 4750 
Q 2819 4750 3233 4129 
Q 3647 3509 3647 2328 
Q 3647 1150 3233 529 
Q 2819 -91 2034 -91 
Q 1250 -91 836 529 
Q 422 1150 422 2328 
Q 422 3509 836 4129 
Q 1250 4750 2034 4750 
z
" transform="scale(0.015625)"/>
        <path id="DejaVuSans-2e" d="M 684 794 
L 1344 794 
L 1344 0 
L 684 0 
L 684 794 
z
" transform="scale(0.015625)"/>
       </defs>
       <use xlink:href="#DejaVuSans-30"/>
       <use xlink:href="#DejaVuSans-2e" x="63.623047"/>
       <use xlink:href="#DejaVuSans-30" x="95.410156"/>
       <use xlink:href="#DejaVuSans-30" x="159.033203"/>
      </g>
     </g>
    </g>
    <g id="ytick_2">
     <g id="line2d_2">
      <path d="M 84.13125 483.202917 
L 865.33125 483.202917 
" clip-path="url(#p5efe5dc25f)" style="fill: none; stroke: #cccccc; stroke-width: 0.8; stroke-linecap: round"/>
     </g>
     <g id="text_10">
      <!-- 0.25 -->
      <g style="fill: #262626" transform="translate(32.6 490.801355) scale(0.2 -0.2)">
       <defs>
        <path id="DejaVuSans-32" d="M 1228 531 
L 3431 531 
L 3431 0 
L 469 0 
L 469 531 
Q 828 903 1448 1529 
Q 2069 2156 2228 2338 
Q 2531 2678 2651 2914 
Q 2772 3150 2772 3378 
Q 2772 3750 2511 3984 
Q 2250 4219 1831 4219 
Q 1534 4219 1204 4116 
Q 875 4013 500 3803 
L 500 4441 
Q 881 4594 1212 4672 
Q 1544 4750 1819 4750 
Q 2544 4750 2975 4387 
Q 3406 4025 3406 3419 
Q 3406 3131 3298 2873 
Q 3191 2616 2906 2266 
Q 2828 2175 2409 1742 
Q 1991 1309 1228 531 
z
" transform="scale(0.015625)"/>
        <path id="DejaVuSans-35" d="M 691 4666 
L 3169 4666 
L 3169 4134 
L 1269 4134 
L 1269 2991 
Q 1406 3038 1543 3061 
Q 1681 3084 1819 3084 
Q 2600 3084 3056 2656 
Q 3513 2228 3513 1497 
Q 3513 744 3044 326 
Q 2575 -91 1722 -91 
Q 1428 -91 1123 -41 
Q 819 9 494 109 
L 494 744 
Q 775 591 1075 516 
Q 1375 441 1709 441 
Q 2250 441 2565 725 
Q 2881 1009 2881 1497 
Q 2881 1984 2565 2268 
Q 2250 2553 1709 2553 
Q 1456 2553 1204 2497 
Q 953 2441 691 2322 
L 691 4666 
z
" transform="scale(0.015625)"/>
       </defs>
       <use xlink:href="#DejaVuSans-30"/>
       <use xlink:href="#DejaVuSans-2e" x="63.623047"/>
       <use xlink:href="#DejaVuSans-32" x="95.410156"/>
       <use xlink:href="#DejaVuSans-35" x="159.033203"/>
      </g>
     </g>
    </g>
    <g id="ytick_3">
     <g id="line2d_3">
      <path d="M 84.13125 418.286526 
L 865.33125 418.286526 
" clip-path="url(#p5efe5dc25f)" style="fill: none; stroke: #cccccc; stroke-width: 0.8; stroke-linecap: round"/>
     </g>
     <g id="text_11">
      <!-- 0.50 -->
      <g style="fill: #262626" transform="translate(32.6 425.884964) scale(0.2 -0.2)">
       <use xlink:href="#DejaVuSans-30"/>
       <use xlink:href="#DejaVuSans-2e" x="63.623047"/>
       <use xlink:href="#DejaVuSans-35" x="95.410156"/>
       <use xlink:href="#DejaVuSans-30" x="159.033203"/>
      </g>
     </g>
    </g>
    <g id="ytick_4">
     <g id="line2d_4">
      <path d="M 84.13125 353.370135 
L 865.33125 353.370135 
" clip-path="url(#p5efe5dc25f)" style="fill: none; stroke: #cccccc; stroke-width: 0.8; stroke-linecap: round"/>
     </g>
     <g id="text_12">
      <!-- 0.75 -->
      <g style="fill: #262626" transform="translate(32.6 360.968573) scale(0.2 -0.2)">
       <defs>
        <path id="DejaVuSans-37" d="M 525 4666 
L 3525 4666 
L 3525 4397 
L 1831 0 
L 1172 0 
L 2766 4134 
L 525 4134 
L 525 4666 
z
" transform="scale(0.015625)"/>
       </defs>
       <use xlink:href="#DejaVuSans-30"/>
       <use xlink:href="#DejaVuSans-2e" x="63.623047"/>
       <use xlink:href="#DejaVuSans-37" x="95.410156"/>
       <use xlink:href="#DejaVuSans-35" x="159.033203"/>
      </g>
     </g>
    </g>
    <g id="ytick_5">
     <g id="line2d_5">
      <path d="M 84.13125 288.453744 
L 865.33125 288.453744 
" clip-path="url(#p5efe5dc25f)" style="fill: none; stroke: #cccccc; stroke-width: 0.8; stroke-linecap: round"/>
     </g>
     <g id="text_13">
      <!-- 1.00 -->
      <g style="fill: #262626" transform="translate(32.6 296.052181) scale(0.2 -0.2)">
       <defs>
        <path id="DejaVuSans-31" d="M 794 531 
L 1825 531 
L 1825 4091 
L 703 3866 
L 703 4441 
L 1819 4666 
L 2450 4666 
L 2450 531 
L 3481 531 
L 3481 0 
L 794 0 
L 794 531 
z
" transform="scale(0.015625)"/>
       </defs>
       <use xlink:href="#DejaVuSans-31"/>
       <use xlink:href="#DejaVuSans-2e" x="63.623047"/>
       <use xlink:href="#DejaVuSans-30" x="95.410156"/>
       <use xlink:href="#DejaVuSans-30" x="159.033203"/>
      </g>
     </g>
    </g>
    <g id="ytick_6">
     <g id="line2d_6">
      <path d="M 84.13125 223.537353 
L 865.33125 223.537353 
" clip-path="url(#p5efe5dc25f)" style="fill: none; stroke: #cccccc; stroke-width: 0.8; stroke-linecap: round"/>
     </g>
     <g id="text_14">
      <!-- 1.25 -->
      <g style="fill: #262626" transform="translate(32.6 231.13579) scale(0.2 -0.2)">
       <use xlink:href="#DejaVuSans-31"/>
       <use xlink:href="#DejaVuSans-2e" x="63.623047"/>
       <use xlink:href="#DejaVuSans-32" x="95.410156"/>
       <use xlink:href="#DejaVuSans-35" x="159.033203"/>
      </g>
     </g>
    </g>
    <g id="ytick_7">
     <g id="line2d_7">
      <path d="M 84.13125 158.620962 
L 865.33125 158.620962 
" clip-path="url(#p5efe5dc25f)" style="fill: none; stroke: #cccccc; stroke-width: 0.8; stroke-linecap: round"/>
     </g>
     <g id="text_15">
      <!-- 1.50 -->
      <g style="fill: #262626" transform="translate(32.6 166.219399) scale(0.2 -0.2)">
       <use xlink:href="#DejaVuSans-31"/>
       <use xlink:href="#DejaVuSans-2e" x="63.623047"/>
       <use xlink:href="#DejaVuSans-35" x="95.410156"/>
       <use xlink:href="#DejaVuSans-30" x="159.033203"/>
      </g>
     </g>
    </g>
    <g id="ytick_8">
     <g id="line2d_8">
      <path d="M 84.13125 93.70457 
L 865.33125 93.70457 
" clip-path="url(#p5efe5dc25f)" style="fill: none; stroke: #cccccc; stroke-width: 0.8; stroke-linecap: round"/>
     </g>
     <g id="text_16">
      <!-- 1.75 -->
      <g style="fill: #262626" transform="translate(32.6 101.303008) scale(0.2 -0.2)">
       <use xlink:href="#DejaVuSans-31"/>
       <use xlink:href="#DejaVuSans-2e" x="63.623047"/>
       <use xlink:href="#DejaVuSans-37" x="95.410156"/>
       <use xlink:href="#DejaVuSans-35" x="159.033203"/>
      </g>
     </g>
    </g>
    <g id="ytick_9">
     <g id="line2d_9">
      <path d="M 84.13125 28.788179 
L 865.33125 28.788179 
" clip-path="url(#p5efe5dc25f)" style="fill: none; stroke: #cccccc; stroke-width: 0.8; stroke-linecap: round"/>
     </g>
     <g id="text_17">
      <!-- 2.00 -->
      <g style="fill: #262626" transform="translate(32.6 36.386617) scale(0.2 -0.2)">
       <use xlink:href="#DejaVuSans-32"/>
       <use xlink:href="#DejaVuSans-2e" x="63.623047"/>
       <use xlink:href="#DejaVuSans-30" x="95.410156"/>
       <use xlink:href="#DejaVuSans-30" x="159.033203"/>
      </g>
     </g>
    </g>
    <g id="text_18">
     <!-- RMSD ($\AA$) -->
     <g style="fill: #262626" transform="translate(24.440625 331.9) rotate(-90) scale(0.2 -0.2)">
      <defs>
       <path id="DejaVuSans-52" d="M 2841 2188 
Q 3044 2119 3236 1894 
Q 3428 1669 3622 1275 
L 4263 0 
L 3584 0 
L 2988 1197 
Q 2756 1666 2539 1819 
Q 2322 1972 1947 1972 
L 1259 1972 
L 1259 0 
L 628 0 
L 628 4666 
L 2053 4666 
Q 2853 4666 3247 4331 
Q 3641 3997 3641 3322 
Q 3641 2881 3436 2590 
Q 3231 2300 2841 2188 
z
M 1259 4147 
L 1259 2491 
L 2053 2491 
Q 2509 2491 2742 2702 
Q 2975 2913 2975 3322 
Q 2975 3731 2742 3939 
Q 2509 4147 2053 4147 
L 1259 4147 
z
" transform="scale(0.015625)"/>
       <path id="DejaVuSans-44" d="M 1259 4147 
L 1259 519 
L 2022 519 
Q 2988 519 3436 956 
Q 3884 1394 3884 2338 
Q 3884 3275 3436 3711 
Q 2988 4147 2022 4147 
L 1259 4147 
z
M 628 4666 
L 1925 4666 
Q 3281 4666 3915 4102 
Q 4550 3538 4550 2338 
Q 4550 1131 3912 565 
Q 3275 0 1925 0 
L 628 0 
L 628 4666 
z
" transform="scale(0.015625)"/>
       <path id="DejaVuSans-Oblique-c5" d="M 3188 5081 
Q 3188 5278 3048 5417 
Q 2909 5556 2713 5556 
Q 2513 5556 2377 5420 
Q 2241 5284 2241 5081 
Q 2241 4884 2377 4746 
Q 2513 4609 2713 4609 
Q 2909 4609 3048 4746 
Q 3188 4884 3188 5081 
z
M 2203 4397 
Q 2034 4513 1945 4689 
Q 1856 4866 1856 5081 
Q 1856 5438 2106 5689 
Q 2356 5941 2713 5941 
Q 3069 5941 3320 5689 
Q 3572 5438 3572 5081 
Q 3572 4834 3458 4643 
Q 3344 4453 3128 4341 
L 3938 0 
L 3278 0 
L 3084 1197 
L 984 1197 
L 325 0 
L -341 0 
L 2203 4397 
z
M 2584 4044 
L 1275 1722 
L 2988 1722 
L 2584 4044 
z
" transform="scale(0.015625)"/>
      </defs>
      <use xlink:href="#DejaVuSans-52" transform="translate(0 0.171875)"/>
      <use xlink:href="#DejaVuSans-4d" transform="translate(69.482422 0.171875)"/>
      <use xlink:href="#DejaVuSans-53" transform="translate(155.761719 0.171875)"/>
      <use xlink:href="#DejaVuSans-44" transform="translate(219.238281 0.171875)"/>
      <use xlink:href="#DejaVuSans-20" transform="translate(296.240234 0.171875)"/>
      <use xlink:href="#DejaVuSans-28" transform="translate(328.027344 0.171875)"/>
      <use xlink:href="#DejaVuSans-Oblique-c5" transform="translate(367.041016 0.171875)"/>
      <use xlink:href="#DejaVuSans-29" transform="translate(435.449219 0.171875)"/>
     </g>
    </g>
   </g>
   <g id="PolyCollection_1">
    <defs>
     <path id="m9cc9055158" d="M 140.461638 -243.928286 
L 139.400862 -243.928286 
L 139.122003 -248.431879 
L 138.730225 -252.935472 
L 138.196036 -257.439065 
L 137.488549 -261.942658 
L 136.577525 -266.446251 
L 135.435698 -270.949844 
L 134.041136 -275.453437 
L 132.379383 -279.95703 
L 130.445199 -284.460623 
L 128.243854 -288.964216 
L 125.792022 -293.467809 
L 123.118348 -297.971401 
L 120.26373 -302.474994 
L 117.281173 -306.978587 
L 114.234928 -311.48218 
L 111.198535 -315.985773 
L 108.25144 -320.489366 
L 105.474174 -324.992959 
L 102.942452 -329.496552 
L 100.721029 -334.000145 
L 98.858422 -338.503738 
L 97.383613 -343.007331 
L 96.305511 -347.510924 
L 95.615319 -352.014517 
L 95.29125 -356.51811 
L 95.304453 -361.021703 
L 95.624718 -365.525296 
L 96.22467 -370.028889 
L 97.081641 -374.532482 
L 98.177066 -379.036075 
L 99.493926 -383.539668 
L 101.013217 -388.043261 
L 102.71059 -392.546854 
L 104.554198 -397.050447 
L 106.504374 -401.55404 
L 108.515333 -406.057633 
L 110.538554 -410.561226 
L 112.527189 -415.064819 
L 114.44057 -419.568412 
L 116.24795 -424.072005 
L 117.930758 -428.575598 
L 119.482987 -433.079191 
L 120.909741 -437.582784 
L 122.224318 -442.086377 
L 123.444502 -446.58997 
L 124.588829 -451.093563 
L 125.673515 -455.597156 
L 126.710534 -460.100749 
L 127.706985 -464.604342 
L 128.665617 -469.107935 
L 129.586099 -473.611528 
L 130.466554 -478.115121 
L 131.304925 -482.618714 
L 132.09986 -487.122307 
L 132.851071 -491.6259 
L 133.559243 -496.129493 
L 134.225695 -500.633086 
L 134.851995 -505.136679 
L 135.439646 -509.640272 
L 135.989892 -514.143865 
L 136.503601 -518.647458 
L 136.981192 -523.151051 
L 137.422599 -527.654644 
L 137.827261 -532.158237 
L 138.194227 -536.66183 
L 138.522364 -541.165423 
L 138.810682 -545.669016 
L 139.058695 -550.172609 
L 139.266731 -554.676202 
L 139.436085 -559.179795 
L 139.568963 -563.683388 
L 139.668217 -568.186981 
L 139.736934 -572.690574 
L 139.777974 -577.194166 
L 139.793575 -581.697759 
L 139.785144 -586.201352 
L 139.753301 -590.704945 
L 139.698199 -595.208538 
L 139.620098 -599.712131 
L 139.5201 -604.215724 
L 139.400891 -608.719317 
L 139.267316 -613.22291 
L 139.126609 -617.726503 
L 138.988128 -622.230096 
L 138.862579 -626.733689 
L 138.760786 -631.237282 
L 138.692222 -635.740875 
L 138.663595 -640.244468 
L 138.677783 -644.748061 
L 138.733367 -649.251654 
L 138.824867 -653.755247 
L 138.943641 -658.25884 
L 139.079223 -662.762433 
L 139.220839 -667.266026 
L 139.358777 -671.769619 
L 139.485399 -676.273212 
L 139.595658 -680.776805 
L 139.687119 -685.280398 
L 139.759608 -689.783991 
L 140.102892 -689.783991 
L 140.102892 -689.783991 
L 140.175381 -685.280398 
L 140.266842 -680.776805 
L 140.377101 -676.273212 
L 140.503723 -671.769619 
L 140.641661 -667.266026 
L 140.783277 -662.762433 
L 140.918859 -658.25884 
L 141.037633 -653.755247 
L 141.129133 -649.251654 
L 141.184717 -644.748061 
L 141.198905 -640.244468 
L 141.170278 -635.740875 
L 141.101714 -631.237282 
L 140.999921 -626.733689 
L 140.874372 -622.230096 
L 140.735891 -617.726503 
L 140.595184 -613.22291 
L 140.461609 -608.719317 
L 140.3424 -604.215724 
L 140.242402 -599.712131 
L 140.164301 -595.208538 
L 140.109199 -590.704945 
L 140.077356 -586.201352 
L 140.068925 -581.697759 
L 140.084526 -577.194166 
L 140.125566 -572.690574 
L 140.194283 -568.186981 
L 140.293537 -563.683388 
L 140.426415 -559.179795 
L 140.595769 -554.676202 
L 140.803805 -550.172609 
L 141.051818 -545.669016 
L 141.340136 -541.165423 
L 141.668273 -536.66183 
L 142.035239 -532.158237 
L 142.439901 -527.654644 
L 142.881308 -523.151051 
L 143.358899 -518.647458 
L 143.872608 -514.143865 
L 144.422854 -509.640272 
L 145.010505 -505.136679 
L 145.636805 -500.633086 
L 146.303257 -496.129493 
L 147.011429 -491.6259 
L 147.76264 -487.122307 
L 148.557575 -482.618714 
L 149.395946 -478.115121 
L 150.276401 -473.611528 
L 151.196883 -469.107935 
L 152.155515 -464.604342 
L 153.151966 -460.100749 
L 154.188985 -455.597156 
L 155.273671 -451.093563 
L 156.417998 -446.58997 
L 157.638182 -442.086377 
L 158.952759 -437.582784 
L 160.379513 -433.079191 
L 161.931742 -428.575598 
L 163.61455 -424.072005 
L 165.42193 -419.568412 
L 167.335311 -415.064819 
L 169.323946 -410.561226 
L 171.347167 -406.057633 
L 173.358126 -401.55404 
L 175.308302 -397.050447 
L 177.15191 -392.546854 
L 178.849283 -388.043261 
L 180.368574 -383.539668 
L 181.685434 -379.036075 
L 182.780859 -374.532482 
L 183.63783 -370.028889 
L 184.237782 -365.525296 
L 184.558047 -361.021703 
L 184.57125 -356.51811 
L 184.247181 -352.014517 
L 183.556989 -347.510924 
L 182.478887 -343.007331 
L 181.004078 -338.503738 
L 179.141471 -334.000145 
L 176.920048 -329.496552 
L 174.388326 -324.992959 
L 171.61106 -320.489366 
L 168.663965 -315.985773 
L 165.627572 -311.48218 
L 162.581327 -306.978587 
L 159.59877 -302.474994 
L 156.744152 -297.971401 
L 154.070478 -293.467809 
L 151.618646 -288.964216 
L 149.417301 -284.460623 
L 147.483117 -279.95703 
L 145.821364 -275.453437 
L 144.426802 -270.949844 
L 143.284975 -266.446251 
L 142.373951 -261.942658 
L 141.666464 -257.439065 
L 141.132275 -252.935472 
L 140.740497 -248.431879 
L 140.461638 -243.928286 
z
" style="stroke: #3d3d3d; stroke-opacity: 0.5"/>
    </defs>
    <g clip-path="url(#p5efe5dc25f)">
     <use xlink:href="#m9cc9055158" x="0" y="722.183991" style="fill: #3274a1; fill-opacity: 0.5; stroke: #3d3d3d; stroke-opacity: 0.5"/>
    </g>
   </g>
   <g id="PolyCollection_2">
    <defs>
     <path id="mfd1a0c0d37" d="M 252.374403 -195.946881 
L 250.688097 -195.946881 
L 250.26456 -199.814869 
L 249.679386 -203.682858 
L 248.895057 -207.550846 
L 247.874754 -211.418834 
L 246.585842 -215.286822 
L 245.003579 -219.15481 
L 243.114533 -223.022798 
L 240.919151 -226.890786 
L 238.433136 -230.758774 
L 235.687473 -234.626763 
L 232.727313 -238.494751 
L 229.610114 -242.362739 
L 226.403527 -246.230727 
L 223.183403 -250.098715 
L 220.031992 -253.966703 
L 217.036069 -257.834691 
L 214.284484 -261.70268 
L 211.864586 -265.570668 
L 209.857264 -269.438656 
L 208.330772 -273.306644 
L 207.33413 -277.174632 
L 206.89125 -281.04262 
L 206.997143 -284.910608 
L 207.617273 -288.778597 
L 208.690571 -292.646585 
L 210.135839 -296.514573 
L 211.860536 -300.382561 
L 213.770445 -304.250549 
L 215.778567 -308.118537 
L 217.811895 -311.986525 
L 219.815258 -315.854513 
L 221.752151 -319.722502 
L 223.603047 -323.59049 
L 225.362091 -327.458478 
L 227.033143 -331.326466 
L 228.625945 -335.194454 
L 230.152875 -339.062442 
L 231.626386 -342.93043 
L 233.057062 -346.798419 
L 234.452158 -350.666407 
L 235.814555 -354.534395 
L 237.14225 -358.402383 
L 238.42853 -362.270371 
L 239.662949 -366.138359 
L 240.833094 -370.006347 
L 241.926858 -373.874335 
L 242.93478 -377.742324 
L 243.851933 -381.610312 
L 244.678901 -385.4783 
L 245.421647 -389.346288 
L 246.090299 -393.214276 
L 246.697208 -397.082264 
L 247.254739 -400.950252 
L 247.773305 -404.818241 
L 248.260032 -408.686229 
L 248.718259 -412.554217 
L 249.147836 -416.422205 
L 249.546046 -420.290193 
L 249.90884 -424.158181 
L 250.232083 -428.026169 
L 250.512556 -431.894157 
L 250.748565 -435.762146 
L 250.94012 -439.630134 
L 251.088728 -443.498122 
L 251.196944 -447.36611 
L 251.267813 -451.234098 
L 251.304374 -455.102086 
L 251.309319 -458.970074 
L 251.284901 -462.838063 
L 251.233071 -466.706051 
L 251.15582 -470.574039 
L 251.0556 -474.442027 
L 250.935726 -478.310015 
L 250.800616 -482.178003 
L 250.655791 -486.045991 
L 250.507596 -489.913979 
L 250.362701 -493.781968 
L 250.227485 -497.649956 
L 250.107457 -501.517944 
L 250.006865 -505.385932 
L 249.928573 -509.25392 
L 249.87422 -513.121908 
L 249.84456 -516.989896 
L 249.839853 -520.857885 
L 249.860128 -524.725873 
L 249.90524 -528.593861 
L 249.974668 -532.461849 
L 250.067168 -536.329837 
L 250.180394 -540.197825 
L 250.310672 -544.065813 
L 250.453029 -547.933801 
L 250.601517 -551.80179 
L 250.749782 -555.669778 
L 250.891747 -559.537766 
L 251.022259 -563.405754 
L 251.137564 -567.273742 
L 251.23554 -571.14173 
L 251.315665 -575.009718 
L 251.378768 -578.877707 
L 251.683732 -578.877707 
L 251.683732 -578.877707 
L 251.746835 -575.009718 
L 251.82696 -571.14173 
L 251.924936 -567.273742 
L 252.040241 -563.405754 
L 252.170753 -559.537766 
L 252.312718 -555.669778 
L 252.460983 -551.80179 
L 252.609471 -547.933801 
L 252.751828 -544.065813 
L 252.882106 -540.197825 
L 252.995332 -536.329837 
L 253.087832 -532.461849 
L 253.15726 -528.593861 
L 253.202372 -524.725873 
L 253.222647 -520.857885 
L 253.21794 -516.989896 
L 253.18828 -513.121908 
L 253.133927 -509.25392 
L 253.055635 -505.385932 
L 252.955043 -501.517944 
L 252.835015 -497.649956 
L 252.699799 -493.781968 
L 252.554904 -489.913979 
L 252.406709 -486.045991 
L 252.261884 -482.178003 
L 252.126774 -478.310015 
L 252.0069 -474.442027 
L 251.90668 -470.574039 
L 251.829429 -466.706051 
L 251.777599 -462.838063 
L 251.753181 -458.970074 
L 251.758126 -455.102086 
L 251.794687 -451.234098 
L 251.865556 -447.36611 
L 251.973772 -443.498122 
L 252.12238 -439.630134 
L 252.313935 -435.762146 
L 252.549944 -431.894157 
L 252.830417 -428.026169 
L 253.15366 -424.158181 
L 253.516454 -420.290193 
L 253.914664 -416.422205 
L 254.344241 -412.554217 
L 254.802468 -408.686229 
L 255.289195 -404.818241 
L 255.807761 -400.950252 
L 256.365292 -397.082264 
L 256.972201 -393.214276 
L 257.640853 -389.346288 
L 258.383599 -385.4783 
L 259.210567 -381.610312 
L 260.12772 -377.742324 
L 261.135642 -373.874335 
L 262.229406 -370.006347 
L 263.399551 -366.138359 
L 264.63397 -362.270371 
L 265.92025 -358.402383 
L 267.247945 -354.534395 
L 268.610342 -350.666407 
L 270.005438 -346.798419 
L 271.436114 -342.93043 
L 272.909625 -339.062442 
L 274.436555 -335.194454 
L 276.029357 -331.326466 
L 277.700409 -327.458478 
L 279.459453 -323.59049 
L 281.310349 -319.722502 
L 283.247242 -315.854513 
L 285.250605 -311.986525 
L 287.283933 -308.118537 
L 289.292055 -304.250549 
L 291.201964 -300.382561 
L 292.926661 -296.514573 
L 294.371929 -292.646585 
L 295.445227 -288.778597 
L 296.065357 -284.910608 
L 296.17125 -281.04262 
L 295.72837 -277.174632 
L 294.731728 -273.306644 
L 293.205236 -269.438656 
L 291.197914 -265.570668 
L 288.778016 -261.70268 
L 286.026431 -257.834691 
L 283.030508 -253.966703 
L 279.879097 -250.098715 
L 276.658973 -246.230727 
L 273.452386 -242.362739 
L 270.335187 -238.494751 
L 267.375027 -234.626763 
L 264.629364 -230.758774 
L 262.143349 -226.890786 
L 259.947967 -223.022798 
L 258.058921 -219.15481 
L 256.476658 -215.286822 
L 255.187746 -211.418834 
L 254.167443 -207.550846 
L 253.383114 -203.682858 
L 252.79794 -199.814869 
L 252.374403 -195.946881 
z
" style="stroke: #3d3d3d; stroke-opacity: 0.5"/>
    </defs>
    <g clip-path="url(#p5efe5dc25f)">
     <use xlink:href="#mfd1a0c0d37" x="0" y="722.183991" style="fill: #d684bd; fill-opacity: 0.5; stroke: #3d3d3d; stroke-opacity: 0.5"/>
    </g>
   </g>
   <g id="PolyCollection_3">
    <defs>
     <path id="m799f0ba43c" d="M 363.636308 -339.088382 
L 362.626192 -339.088382 
L 362.41655 -342.117971 
L 362.143388 -345.14756 
L 361.796684 -348.177149 
L 361.367711 -351.206738 
L 360.849776 -354.236327 
L 360.238743 -357.265916 
L 359.533225 -360.295505 
L 358.734363 -363.325094 
L 357.845235 -366.354684 
L 356.869992 -369.384273 
L 355.812932 -372.413862 
L 354.677752 -375.443451 
L 353.46716 -378.47304 
L 352.182971 -381.502629 
L 350.826674 -384.532218 
L 349.400292 -387.561807 
L 347.907318 -390.591396 
L 346.353441 -393.620985 
L 344.746874 -396.650574 
L 343.098192 -399.680163 
L 341.419763 -402.709753 
L 339.72495 -405.739342 
L 338.027308 -408.768931 
L 336.339972 -411.79852 
L 334.675306 -414.828109 
L 333.044764 -417.857698 
L 331.458835 -420.887287 
L 329.926924 -423.916876 
L 328.457132 -426.946465 
L 327.05601 -429.976054 
L 325.728524 -433.005643 
L 324.478503 -436.035233 
L 323.309743 -439.064822 
L 322.227761 -442.094411 
L 321.24188 -445.124 
L 320.367103 -448.153589 
L 319.625109 -451.183178 
L 319.043796 -454.212767 
L 318.6551 -457.242356 
L 318.49125 -460.271945 
L 318.580057 -463.301534 
L 318.940165 -466.331123 
L 319.577277 -469.360712 
L 320.482204 -472.390302 
L 321.631171 -475.419891 
L 322.988332 -478.44948 
L 324.509938 -481.479069 
L 326.149285 -484.508658 
L 327.86148 -487.538247 
L 329.607198 -490.567836 
L 331.354939 -493.597425 
L 333.081681 -496.627014 
L 334.772222 -499.656603 
L 336.417692 -502.686192 
L 338.013821 -505.715781 
L 339.559412 -508.745371 
L 341.055268 -511.77496 
L 342.50358 -514.804549 
L 343.907605 -517.834138 
L 345.271367 -520.863727 
L 346.599162 -523.893316 
L 347.894778 -526.922905 
L 349.160497 -529.952494 
L 350.396103 -532.982083 
L 351.598164 -536.011672 
L 352.759848 -539.041261 
L 353.8714 -542.070851 
L 354.921247 -545.10044 
L 355.897529 -548.130029 
L 356.789743 -551.159618 
L 357.590166 -554.189207 
L 358.294778 -557.218796 
L 358.903535 -560.248385 
L 359.420017 -563.277974 
L 359.850608 -566.307563 
L 360.203462 -569.337152 
L 360.487531 -572.366741 
L 360.711853 -575.39633 
L 360.885217 -578.42592 
L 361.016161 -581.455509 
L 361.113187 -584.485098 
L 361.185 -587.514687 
L 361.240591 -590.544276 
L 361.289058 -593.573865 
L 361.339133 -596.603454 
L 361.398506 -599.633043 
L 361.473093 -602.662632 
L 361.566426 -605.692221 
L 361.679325 -608.72181 
L 361.809926 -611.751399 
L 361.954089 -614.780989 
L 362.106098 -617.810578 
L 362.259516 -620.840167 
L 362.408046 -623.869756 
L 362.54626 -626.899345 
L 362.670097 -629.928934 
L 362.777087 -632.958523 
L 362.866331 -635.988112 
L 362.938278 -639.017701 
L 363.324222 -639.017701 
L 363.324222 -639.017701 
L 363.396169 -635.988112 
L 363.485413 -632.958523 
L 363.592403 -629.928934 
L 363.71624 -626.899345 
L 363.854454 -623.869756 
L 364.002984 -620.840167 
L 364.156402 -617.810578 
L 364.308411 -614.780989 
L 364.452574 -611.751399 
L 364.583175 -608.72181 
L 364.696074 -605.692221 
L 364.789407 -602.662632 
L 364.863994 -599.633043 
L 364.923367 -596.603454 
L 364.973442 -593.573865 
L 365.021909 -590.544276 
L 365.0775 -587.514687 
L 365.149313 -584.485098 
L 365.246339 -581.455509 
L 365.377283 -578.42592 
L 365.550647 -575.39633 
L 365.774969 -572.366741 
L 366.059038 -569.337152 
L 366.411892 -566.307563 
L 366.842483 -563.277974 
L 367.358965 -560.248385 
L 367.967722 -557.218796 
L 368.672334 -554.189207 
L 369.472757 -551.159618 
L 370.364971 -548.130029 
L 371.341253 -545.10044 
L 372.3911 -542.070851 
L 373.502652 -539.041261 
L 374.664336 -536.011672 
L 375.866397 -532.982083 
L 377.102003 -529.952494 
L 378.367722 -526.922905 
L 379.663338 -523.893316 
L 380.991133 -520.863727 
L 382.354895 -517.834138 
L 383.75892 -514.804549 
L 385.207232 -511.77496 
L 386.703088 -508.745371 
L 388.248679 -505.715781 
L 389.844808 -502.686192 
L 391.490278 -499.656603 
L 393.180819 -496.627014 
L 394.907561 -493.597425 
L 396.655302 -490.567836 
L 398.40102 -487.538247 
L 400.113215 -484.508658 
L 401.752562 -481.479069 
L 403.274168 -478.44948 
L 404.631329 -475.419891 
L 405.780296 -472.390302 
L 406.685223 -469.360712 
L 407.322335 -466.331123 
L 407.682443 -463.301534 
L 407.77125 -460.271945 
L 407.6074 -457.242356 
L 407.218704 -454.212767 
L 406.637391 -451.183178 
L 405.895397 -448.153589 
L 405.02062 -445.124 
L 404.034739 -442.094411 
L 402.952757 -439.064822 
L 401.783997 -436.035233 
L 400.533976 -433.005643 
L 399.20649 -429.976054 
L 397.805368 -426.946465 
L 396.335576 -423.916876 
L 394.803665 -420.887287 
L 393.217736 -417.857698 
L 391.587194 -414.828109 
L 389.922528 -411.79852 
L 388.235192 -408.768931 
L 386.53755 -405.739342 
L 384.842737 -402.709753 
L 383.164308 -399.680163 
L 381.515626 -396.650574 
L 379.909059 -393.620985 
L 378.355182 -390.591396 
L 376.862208 -387.561807 
L 375.435826 -384.532218 
L 374.079529 -381.502629 
L 372.79534 -378.47304 
L 371.584748 -375.443451 
L 370.449568 -372.413862 
L 369.392508 -369.384273 
L 368.417265 -366.354684 
L 367.528137 -363.325094 
L 366.729275 -360.295505 
L 366.023757 -357.265916 
L 365.412724 -354.236327 
L 364.894789 -351.206738 
L 364.465816 -348.177149 
L 364.119112 -345.14756 
L 363.84595 -342.117971 
L 363.636308 -339.088382 
z
" style="stroke: #3d3d3d; stroke-opacity: 0.5"/>
    </defs>
    <g clip-path="url(#p5efe5dc25f)">
     <use xlink:href="#m799f0ba43c" x="0" y="722.183991" style="fill: #c03d3e; fill-opacity: 0.5; stroke: #3d3d3d; stroke-opacity: 0.5"/>
    </g>
   </g>
   <g id="PolyCollection_4">
    <defs>
     <path id="m7af4f4978c" d="M 475.520805 -254.514503 
L 473.941695 -254.514503 
L 473.544018 -258.616256 
L 472.996108 -262.718009 
L 472.265119 -266.819762 
L 471.320499 -270.921515 
L 470.137702 -275.023268 
L 468.701932 -279.125021 
L 467.011237 -283.226774 
L 465.07824 -287.328527 
L 462.929999 -291.43028 
L 460.605764 -295.532033 
L 458.152892 -299.633786 
L 455.621573 -303.735539 
L 453.059418 -307.837292 
L 450.507031 -311.939046 
L 447.995581 -316.040799 
L 445.546994 -320.142552 
L 443.176783 -324.244305 
L 440.898908 -328.346058 
L 438.731459 -332.447811 
L 436.701639 -336.549564 
L 434.848552 -340.651317 
L 433.222675 -344.75307 
L 431.881691 -348.854823 
L 430.883236 -352.956576 
L 430.276016 -357.058329 
L 430.09125 -361.160082 
L 430.33647 -365.261835 
L 430.993157 -369.363588 
L 432.018801 -373.465341 
L 433.352836 -377.567095 
L 434.925026 -381.668848 
L 436.664332 -385.770601 
L 438.506409 -389.872354 
L 440.398382 -393.974107 
L 442.300457 -398.07586 
L 444.184743 -402.177613 
L 446.032302 -406.279366 
L 447.829701 -410.381119 
L 449.566167 -414.482872 
L 451.232074 -418.584625 
L 452.818911 -422.686378 
L 454.320402 -426.788131 
L 455.734129 -430.889884 
L 457.062883 -434.991637 
L 458.315073 -439.09339 
L 459.503826 -443.195144 
L 460.644764 -447.296897 
L 461.752842 -451.39865 
L 462.83894 -455.500403 
L 463.907029 -459.602156 
L 464.952674 -463.703909 
L 465.963342 -467.805662 
L 466.920594 -471.907415 
L 467.803741 -476.009168 
L 468.594198 -480.110921 
L 469.279553 -484.212674 
L 469.85643 -488.314427 
L 470.331521 -492.41618 
L 470.720569 -496.517933 
L 471.045593 -500.619686 
L 471.331032 -504.721439 
L 471.599662 -508.823192 
L 471.869183 -512.924946 
L 472.150081 -517.026699 
L 472.44508 -521.128452 
L 472.750067 -525.230205 
L 473.05609 -529.331958 
L 473.35185 -533.433711 
L 473.626098 -537.535464 
L 473.869482 -541.637217 
L 474.075592 -545.73897 
L 474.24119 -549.840723 
L 474.36578 -553.942476 
L 474.450797 -558.044229 
L 474.498698 -562.145982 
L 474.512214 -566.247735 
L 474.493935 -570.349488 
L 474.446271 -574.451241 
L 474.371776 -578.552995 
L 474.273689 -582.654748 
L 474.156527 -586.756501 
L 474.026527 -590.858254 
L 473.891762 -594.960007 
L 473.761816 -599.06176 
L 473.647006 -603.163513 
L 473.557252 -607.265266 
L 473.5008 -611.367019 
L 473.483047 -615.468772 
L 473.505739 -619.570525 
L 473.566713 -623.672278 
L 473.660245 -627.774031 
L 473.777948 -631.875784 
L 473.91001 -635.977537 
L 474.046535 -640.07929 
L 474.178728 -644.181043 
L 474.299742 -648.282797 
L 474.405091 -652.38455 
L 474.492651 -656.486303 
L 474.562319 -660.588056 
L 474.900181 -660.588056 
L 474.900181 -660.588056 
L 474.969849 -656.486303 
L 475.057409 -652.38455 
L 475.162758 -648.282797 
L 475.283772 -644.181043 
L 475.415965 -640.07929 
L 475.55249 -635.977537 
L 475.684552 -631.875784 
L 475.802255 -627.774031 
L 475.895787 -623.672278 
L 475.956761 -619.570525 
L 475.979453 -615.468772 
L 475.9617 -611.367019 
L 475.905248 -607.265266 
L 475.815494 -603.163513 
L 475.700684 -599.06176 
L 475.570738 -594.960007 
L 475.435973 -590.858254 
L 475.305973 -586.756501 
L 475.188811 -582.654748 
L 475.090724 -578.552995 
L 475.016229 -574.451241 
L 474.968565 -570.349488 
L 474.950286 -566.247735 
L 474.963802 -562.145982 
L 475.011703 -558.044229 
L 475.09672 -553.942476 
L 475.22131 -549.840723 
L 475.386908 -545.73897 
L 475.593018 -541.637217 
L 475.836402 -537.535464 
L 476.11065 -533.433711 
L 476.40641 -529.331958 
L 476.712433 -525.230205 
L 477.01742 -521.128452 
L 477.312419 -517.026699 
L 477.593317 -512.924946 
L 477.862838 -508.823192 
L 478.131468 -504.721439 
L 478.416907 -500.619686 
L 478.741931 -496.517933 
L 479.130979 -492.41618 
L 479.60607 -488.314427 
L 480.182947 -484.212674 
L 480.868302 -480.110921 
L 481.658759 -476.009168 
L 482.541906 -471.907415 
L 483.499158 -467.805662 
L 484.509826 -463.703909 
L 485.555471 -459.602156 
L 486.62356 -455.500403 
L 487.709658 -451.39865 
L 488.817736 -447.296897 
L 489.958674 -443.195144 
L 491.147427 -439.09339 
L 492.399617 -434.991637 
L 493.728371 -430.889884 
L 495.142098 -426.788131 
L 496.643589 -422.686378 
L 498.230426 -418.584625 
L 499.896333 -414.482872 
L 501.632799 -410.381119 
L 503.430198 -406.279366 
L 505.277757 -402.177613 
L 507.162043 -398.07586 
L 509.064118 -393.974107 
L 510.956091 -389.872354 
L 512.798168 -385.770601 
L 514.537474 -381.668848 
L 516.109664 -377.567095 
L 517.443699 -373.465341 
L 518.469343 -369.363588 
L 519.12603 -365.261835 
L 519.37125 -361.160082 
L 519.186484 -357.058329 
L 518.579264 -352.956576 
L 517.580809 -348.854823 
L 516.239825 -344.75307 
L 514.613948 -340.651317 
L 512.760861 -336.549564 
L 510.731041 -332.447811 
L 508.563592 -328.346058 
L 506.285717 -324.244305 
L 503.915506 -320.142552 
L 501.466919 -316.040799 
L 498.955469 -311.939046 
L 496.403082 -307.837292 
L 493.840927 -303.735539 
L 491.309608 -299.633786 
L 488.856736 -295.532033 
L 486.532501 -291.43028 
L 484.38426 -287.328527 
L 482.451263 -283.226774 
L 480.760568 -279.125021 
L 479.324798 -275.023268 
L 478.142001 -270.921515 
L 477.197381 -266.819762 
L 476.466392 -262.718009 
L 475.918482 -258.616256 
L 475.520805 -254.514503 
z
" style="stroke: #3d3d3d; stroke-opacity: 0.5"/>
    </defs>
    <g clip-path="url(#p5efe5dc25f)">
     <use xlink:href="#m7af4f4978c" x="0" y="722.183991" style="fill: #9372b2; fill-opacity: 0.5; stroke: #3d3d3d; stroke-opacity: 0.5"/>
    </g>
   </g>
   <g id="PolyCollection_5">
    <defs>
     <path id="mde2cbd706b" d="M 586.635979 -231.861076 
L 586.026521 -231.861076 
L 585.856036 -236.359075 
L 585.608541 -240.857074 
L 585.25817 -245.355072 
L 584.773946 -249.853071 
L 584.120049 -254.35107 
L 583.25671 -258.849069 
L 582.141955 -263.347068 
L 580.734442 -267.845067 
L 578.997495 -272.343066 
L 576.904273 -276.841065 
L 574.443665 -281.339064 
L 571.62616 -285.837063 
L 568.488635 -290.335062 
L 565.096879 -294.833061 
L 561.544839 -299.33106 
L 557.950049 -303.829059 
L 554.445365 -308.327058 
L 551.167926 -312.825057 
L 548.246842 -317.323056 
L 545.791414 -321.821055 
L 543.881629 -326.319054 
L 542.56222 -330.817053 
L 541.840971 -335.315052 
L 541.69125 -339.81305 
L 542.05819 -344.311049 
L 542.867485 -348.809048 
L 544.035497 -353.307047 
L 545.479238 -357.805046 
L 547.124795 -362.303045 
L 548.91294 -366.801044 
L 550.801109 -371.299043 
L 552.761565 -375.797042 
L 554.776368 -380.295041 
L 556.830555 -384.79304 
L 558.905394 -389.291039 
L 560.973624 -393.789038 
L 562.998055 -398.287037 
L 564.934009 -402.785036 
L 566.734981 -407.283035 
L 568.360086 -411.781034 
L 569.781364 -416.279033 
L 570.989159 -420.777032 
L 571.99433 -425.275031 
L 572.826859 -429.77303 
L 573.531209 -434.271029 
L 574.159445 -438.769027 
L 574.763429 -443.267026 
L 575.387479 -447.765025 
L 576.06267 -452.263024 
L 576.803597 -456.761023 
L 577.607946 -461.259022 
L 578.458727 -465.757021 
L 579.328569 -470.25502 
L 580.18518 -474.753019 
L 580.996951 -479.251018 
L 581.737751 -483.749017 
L 582.390234 -488.247016 
L 582.947275 -492.745015 
L 583.411581 -497.243014 
L 583.79377 -501.741013 
L 584.109479 -506.239012 
L 584.376119 -510.737011 
L 584.609904 -515.23501 
L 584.823633 -519.733009 
L 585.025508 -524.231008 
L 585.219029 -528.729007 
L 585.40378 -533.227006 
L 585.576778 -537.725004 
L 585.733966 -542.223003 
L 585.87152 -546.721002 
L 585.9867 -551.219001 
L 586.078179 -555.717 
L 586.145904 -560.214999 
L 586.190633 -564.712998 
L 586.213367 -569.210997 
L 586.214852 -573.708996 
L 586.195316 -578.206995 
L 586.154513 -582.704994 
L 586.092097 -587.202993 
L 586.008251 -591.700992 
L 585.904459 -596.198991 
L 585.784202 -600.69699 
L 585.6534 -605.194989 
L 585.520395 -609.692988 
L 585.395371 -614.190987 
L 585.289246 -618.688986 
L 585.212181 -623.186985 
L 585.172027 -627.684984 
L 585.173019 -632.182983 
L 585.21506 -636.680981 
L 585.293732 -641.17898 
L 585.40107 -645.676979 
L 585.526887 -650.174978 
L 585.66036 -654.672977 
L 585.791535 -659.170976 
L 585.912465 -663.668975 
L 586.017826 -668.166974 
L 586.105001 -672.664973 
L 586.173723 -677.162972 
L 586.488777 -677.162972 
L 586.488777 -677.162972 
L 586.557499 -672.664973 
L 586.644674 -668.166974 
L 586.750035 -663.668975 
L 586.870965 -659.170976 
L 587.00214 -654.672977 
L 587.135613 -650.174978 
L 587.26143 -645.676979 
L 587.368768 -641.17898 
L 587.44744 -636.680981 
L 587.489481 -632.182983 
L 587.490473 -627.684984 
L 587.450319 -623.186985 
L 587.373254 -618.688986 
L 587.267129 -614.190987 
L 587.142105 -609.692988 
L 587.0091 -605.194989 
L 586.878298 -600.69699 
L 586.758041 -596.198991 
L 586.654249 -591.700992 
L 586.570403 -587.202993 
L 586.507987 -582.704994 
L 586.467184 -578.206995 
L 586.447648 -573.708996 
L 586.449133 -569.210997 
L 586.471867 -564.712998 
L 586.516596 -560.214999 
L 586.584321 -555.717 
L 586.6758 -551.219001 
L 586.79098 -546.721002 
L 586.928534 -542.223003 
L 587.085722 -537.725004 
L 587.25872 -533.227006 
L 587.443471 -528.729007 
L 587.636992 -524.231008 
L 587.838867 -519.733009 
L 588.052596 -515.23501 
L 588.286381 -510.737011 
L 588.553021 -506.239012 
L 588.86873 -501.741013 
L 589.250919 -497.243014 
L 589.715225 -492.745015 
L 590.272266 -488.247016 
L 590.924749 -483.749017 
L 591.665549 -479.251018 
L 592.47732 -474.753019 
L 593.333931 -470.25502 
L 594.203773 -465.757021 
L 595.054554 -461.259022 
L 595.858903 -456.761023 
L 596.59983 -452.263024 
L 597.275021 -447.765025 
L 597.899071 -443.267026 
L 598.503055 -438.769027 
L 599.131291 -434.271029 
L 599.835641 -429.77303 
L 600.66817 -425.275031 
L 601.673341 -420.777032 
L 602.881136 -416.279033 
L 604.302414 -411.781034 
L 605.927519 -407.283035 
L 607.728491 -402.785036 
L 609.664445 -398.287037 
L 611.688876 -393.789038 
L 613.757106 -389.291039 
L 615.831945 -384.79304 
L 617.886132 -380.295041 
L 619.900935 -375.797042 
L 621.861391 -371.299043 
L 623.74956 -366.801044 
L 625.537705 -362.303045 
L 627.183262 -357.805046 
L 628.627003 -353.307047 
L 629.795015 -348.809048 
L 630.60431 -344.311049 
L 630.97125 -339.81305 
L 630.821529 -335.315052 
L 630.10028 -330.817053 
L 628.780871 -326.319054 
L 626.871086 -321.821055 
L 624.415658 -317.323056 
L 621.494574 -312.825057 
L 618.217135 -308.327058 
L 614.712451 -303.829059 
L 611.117661 -299.33106 
L 607.565621 -294.833061 
L 604.173865 -290.335062 
L 601.03634 -285.837063 
L 598.218835 -281.339064 
L 595.758227 -276.841065 
L 593.665005 -272.343066 
L 591.928058 -267.845067 
L 590.520545 -263.347068 
L 589.40579 -258.849069 
L 588.542451 -254.35107 
L 587.888554 -249.853071 
L 587.40433 -245.355072 
L 587.053959 -240.857074 
L 586.806464 -236.359075 
L 586.635979 -231.861076 
z
" style="stroke: #3d3d3d; stroke-opacity: 0.5"/>
    </defs>
    <g clip-path="url(#p5efe5dc25f)">
     <use xlink:href="#mde2cbd706b" x="0" y="722.183991" style="fill: #845b53; fill-opacity: 0.5; stroke: #3d3d3d; stroke-opacity: 0.5"/>
    </g>
   </g>
   <g id="PolyCollection_6">
    <defs>
     <path id="mb1b406e55b" d="M 698.138589 -185.783991 
L 697.723911 -185.783991 
L 697.607503 -190.073746 
L 697.438542 -194.363501 
L 697.199228 -198.653255 
L 696.867901 -202.94301 
L 696.418901 -207.232765 
L 695.822748 -211.52252 
L 695.046842 -215.812275 
L 694.056858 -220.102029 
L 692.818951 -224.391784 
L 691.30274 -228.681539 
L 689.484825 -232.971294 
L 687.352453 -237.261048 
L 684.906855 -241.550803 
L 682.165843 -245.840558 
L 679.165438 -250.130313 
L 675.960473 -254.420067 
L 672.624192 -258.709822 
L 669.24678 -262.999577 
L 665.932554 -267.289332 
L 662.795381 -271.579087 
L 659.951976 -275.868841 
L 657.513188 -280.158596 
L 655.574114 -284.448351 
L 654.204675 -288.738106 
L 653.442686 -293.02786 
L 653.29125 -297.317615 
L 653.721332 -301.60737 
L 654.679014 -305.897125 
L 656.095555 -310.18688 
L 657.897595 -314.476634 
L 660.014962 -318.766389 
L 662.384467 -323.056144 
L 664.949573 -327.345899 
L 667.657188 -331.635653 
L 670.453657 -335.925408 
L 673.282033 -340.215163 
L 676.081905 -344.504918 
L 678.791932 -348.794673 
L 681.35417 -353.084427 
L 683.718711 -357.374182 
L 685.847238 -361.663937 
L 687.714681 -365.953692 
L 689.308963 -370.243446 
L 690.629472 -374.533201 
L 691.685153 -378.822956 
L 692.492941 -383.112711 
L 693.076815 -387.402465 
L 693.467245 -391.69222 
L 693.700511 -395.981975 
L 693.817325 -400.27173 
L 693.860465 -404.561485 
L 693.871529 -408.851239 
L 693.887261 -413.140994 
L 693.936182 -417.430749 
L 694.036193 -421.720504 
L 694.193678 -426.010258 
L 694.404283 -430.300013 
L 694.655223 -434.589768 
L 694.928654 -438.879523 
L 695.205494 -443.169278 
L 695.468978 -447.459032 
L 695.707366 -451.748787 
L 695.915341 -456.038542 
L 696.093973 -460.328297 
L 696.249372 -464.618051 
L 696.390444 -468.907806 
L 696.526342 -473.197561 
L 696.664215 -477.487316 
L 696.807738 -481.777071 
L 696.95665 -486.066825 
L 697.10726 -490.35658 
L 697.253606 -494.646335 
L 697.38887 -498.93609 
L 697.506631 -503.225844 
L 697.601698 -507.515599 
L 697.670431 -511.805354 
L 697.710657 -516.095109 
L 697.721388 -520.384863 
L 697.702593 -524.674618 
L 697.655179 -528.964373 
L 697.581257 -533.254128 
L 697.484596 -537.543883 
L 697.37107 -541.833637 
L 697.248838 -546.123392 
L 697.128056 -550.413147 
L 697.020005 -554.702902 
L 696.935729 -558.992656 
L 696.884421 -563.282411 
L 696.871923 -567.572166 
L 696.899729 -571.861921 
L 696.964743 -576.151676 
L 697.059878 -580.44143 
L 697.175336 -584.731185 
L 697.30028 -589.02094 
L 697.424477 -593.310695 
L 697.539612 -597.600449 
L 697.640028 -601.890204 
L 697.722882 -606.179959 
L 697.787798 -610.469714 
L 698.074702 -610.469714 
L 698.074702 -610.469714 
L 698.139618 -606.179959 
L 698.222472 -601.890204 
L 698.322888 -597.600449 
L 698.438023 -593.310695 
L 698.56222 -589.02094 
L 698.687164 -584.731185 
L 698.802622 -580.44143 
L 698.897757 -576.151676 
L 698.962771 -571.861921 
L 698.990577 -567.572166 
L 698.978079 -563.282411 
L 698.926771 -558.992656 
L 698.842495 -554.702902 
L 698.734444 -550.413147 
L 698.613662 -546.123392 
L 698.49143 -541.833637 
L 698.377904 -537.543883 
L 698.281243 -533.254128 
L 698.207321 -528.964373 
L 698.159907 -524.674618 
L 698.141112 -520.384863 
L 698.151843 -516.095109 
L 698.192069 -511.805354 
L 698.260802 -507.515599 
L 698.355869 -503.225844 
L 698.47363 -498.93609 
L 698.608894 -494.646335 
L 698.75524 -490.35658 
L 698.90585 -486.066825 
L 699.054762 -481.777071 
L 699.198285 -477.487316 
L 699.336158 -473.197561 
L 699.472056 -468.907806 
L 699.613128 -464.618051 
L 699.768527 -460.328297 
L 699.947159 -456.038542 
L 700.155134 -451.748787 
L 700.393522 -447.459032 
L 700.657006 -443.169278 
L 700.933846 -438.879523 
L 701.207277 -434.589768 
L 701.458217 -430.300013 
L 701.668822 -426.010258 
L 701.826307 -421.720504 
L 701.926318 -417.430749 
L 701.975239 -413.140994 
L 701.990971 -408.851239 
L 702.002035 -404.561485 
L 702.045175 -400.27173 
L 702.161989 -395.981975 
L 702.395255 -391.69222 
L 702.785685 -387.402465 
L 703.369559 -383.112711 
L 704.177347 -378.822956 
L 705.233028 -374.533201 
L 706.553537 -370.243446 
L 708.147819 -365.953692 
L 710.015262 -361.663937 
L 712.143789 -357.374182 
L 714.50833 -353.084427 
L 717.070568 -348.794673 
L 719.780595 -344.504918 
L 722.580467 -340.215163 
L 725.408843 -335.925408 
L 728.205312 -331.635653 
L 730.912927 -327.345899 
L 733.478033 -323.056144 
L 735.847538 -318.766389 
L 737.964905 -314.476634 
L 739.766945 -310.18688 
L 741.183486 -305.897125 
L 742.141168 -301.60737 
L 742.57125 -297.317615 
L 742.419814 -293.02786 
L 741.657825 -288.738106 
L 740.288386 -284.448351 
L 738.349312 -280.158596 
L 735.910524 -275.868841 
L 733.067119 -271.579087 
L 729.929946 -267.289332 
L 726.61572 -262.999577 
L 723.238308 -258.709822 
L 719.902027 -254.420067 
L 716.697062 -250.130313 
L 713.696657 -245.840558 
L 710.955645 -241.550803 
L 708.510047 -237.261048 
L 706.377675 -232.971294 
L 704.55976 -228.681539 
L 703.043549 -224.391784 
L 701.805642 -220.102029 
L 700.815658 -215.812275 
L 700.039752 -211.52252 
L 699.443599 -207.232765 
L 698.994599 -202.94301 
L 698.663272 -198.653255 
L 698.423958 -194.363501 
L 698.254997 -190.073746 
L 698.138589 -185.783991 
z
" style="stroke: #3d3d3d; stroke-opacity: 0.5"/>
    </defs>
    <g clip-path="url(#p5efe5dc25f)">
     <use xlink:href="#mb1b406e55b" x="0" y="722.183991" style="fill: #e1812c; fill-opacity: 0.5; stroke: #3d3d3d; stroke-opacity: 0.5"/>
    </g>
   </g>
   <g id="PolyCollection_7">
    <defs>
     <path id="m16028629da" d="M 809.811792 -198.476272 
L 809.250708 -198.476272 
L 809.094462 -203.00806 
L 808.869291 -207.539849 
L 808.553935 -212.071637 
L 808.124385 -216.603426 
L 807.554853 -221.135214 
L 806.819135 -225.667003 
L 805.892217 -230.198791 
L 804.751932 -234.73058 
L 803.380403 -239.262368 
L 801.765063 -243.794157 
L 799.899146 -248.325945 
L 797.781755 -252.857734 
L 795.417853 -257.389522 
L 792.818703 -261.921311 
L 790.00333 -266.453099 
L 787.001304 -270.984888 
L 783.856716 -275.516676 
L 780.632486 -280.048465 
L 777.413576 -284.580253 
L 774.307329 -289.112042 
L 771.439428 -293.643831 
L 768.944788 -298.175619 
L 766.954047 -302.707408 
L 765.577736 -307.239196 
L 764.89125 -311.770985 
L 764.923969 -316.302773 
L 765.655148 -320.834562 
L 767.017596 -325.36635 
L 768.908225 -329.898139 
L 771.202908 -334.429927 
L 773.772147 -338.961716 
L 776.494279 -343.493504 
L 779.26401 -348.025293 
L 781.995677 -352.557081 
L 784.622184 -357.08887 
L 787.091544 -361.620658 
L 789.363177 -366.152447 
L 791.405583 -370.684235 
L 793.196114 -375.216024 
L 794.722541 -379.747812 
L 795.985436 -384.279601 
L 797.000091 -388.811389 
L 797.796888 -393.343178 
L 798.419489 -397.874966 
L 798.920814 -402.406755 
L 799.357358 -406.938543 
L 799.782771 -411.470332 
L 800.2418 -416.00212 
L 800.765646 -420.533909 
L 801.369477 -425.065697 
L 802.052409 -429.597486 
L 802.799772 -434.129274 
L 803.587043 -438.661063 
L 804.384558 -443.192851 
L 805.162074 -447.72464 
L 805.892434 -452.256428 
L 806.553942 -456.788217 
L 807.131386 -461.320006 
L 807.615983 -465.851794 
L 808.004665 -470.383583 
L 808.299128 -474.915371 
L 808.50496 -479.44716 
L 808.630992 -483.978948 
L 808.68883 -488.510737 
L 808.692443 -493.042525 
L 808.657606 -497.574314 
L 808.601062 -502.106102 
L 808.539357 -506.637891 
L 808.487434 -511.169679 
L 808.457192 -515.701468 
L 808.456269 -520.233256 
L 808.48732 -524.765045 
L 808.547947 -529.296833 
L 808.631334 -533.828622 
L 808.727439 -538.36041 
L 808.824549 -542.892199 
L 808.910917 -547.423987 
L 808.976242 -551.955776 
L 809.012847 -556.487564 
L 809.016484 -561.019353 
L 808.986749 -565.551141 
L 808.927129 -570.08293 
L 808.844684 -574.614718 
L 808.749353 -579.146507 
L 808.652896 -583.678295 
L 808.567523 -588.210084 
L 808.504364 -592.741872 
L 808.471996 -597.273661 
L 808.475297 -601.805449 
L 808.514866 -606.337238 
L 808.587128 -610.869026 
L 808.685105 -615.400815 
L 808.799694 -619.932603 
L 808.921142 -624.464392 
L 809.04045 -628.996181 
L 809.150418 -633.527969 
L 809.246222 -638.059758 
L 809.325488 -642.591546 
L 809.387976 -647.123335 
L 809.674524 -647.123335 
L 809.674524 -647.123335 
L 809.737012 -642.591546 
L 809.816278 -638.059758 
L 809.912082 -633.527969 
L 810.02205 -628.996181 
L 810.141358 -624.464392 
L 810.262806 -619.932603 
L 810.377395 -615.400815 
L 810.475372 -610.869026 
L 810.547634 -606.337238 
L 810.587203 -601.805449 
L 810.590504 -597.273661 
L 810.558136 -592.741872 
L 810.494977 -588.210084 
L 810.409604 -583.678295 
L 810.313147 -579.146507 
L 810.217816 -574.614718 
L 810.135371 -570.08293 
L 810.075751 -565.551141 
L 810.046016 -561.019353 
L 810.049653 -556.487564 
L 810.086258 -551.955776 
L 810.151583 -547.423987 
L 810.237951 -542.892199 
L 810.335061 -538.36041 
L 810.431166 -533.828622 
L 810.514553 -529.296833 
L 810.57518 -524.765045 
L 810.606231 -520.233256 
L 810.605308 -515.701468 
L 810.575066 -511.169679 
L 810.523143 -506.637891 
L 810.461438 -502.106102 
L 810.404894 -497.574314 
L 810.370057 -493.042525 
L 810.37367 -488.510737 
L 810.431508 -483.978948 
L 810.55754 -479.44716 
L 810.763372 -474.915371 
L 811.057835 -470.383583 
L 811.446517 -465.851794 
L 811.931114 -461.320006 
L 812.508558 -456.788217 
L 813.170066 -452.256428 
L 813.900426 -447.72464 
L 814.677942 -443.192851 
L 815.475457 -438.661063 
L 816.262728 -434.129274 
L 817.010091 -429.597486 
L 817.693023 -425.065697 
L 818.296854 -420.533909 
L 818.8207 -416.00212 
L 819.279729 -411.470332 
L 819.705142 -406.938543 
L 820.141686 -402.406755 
L 820.643011 -397.874966 
L 821.265612 -393.343178 
L 822.062409 -388.811389 
L 823.077064 -384.279601 
L 824.339959 -379.747812 
L 825.866386 -375.216024 
L 827.656917 -370.684235 
L 829.699323 -366.152447 
L 831.970956 -361.620658 
L 834.440316 -357.08887 
L 837.066823 -352.557081 
L 839.79849 -348.025293 
L 842.568221 -343.493504 
L 845.290353 -338.961716 
L 847.859592 -334.429927 
L 850.154275 -329.898139 
L 852.044904 -325.36635 
L 853.407352 -320.834562 
L 854.138531 -316.302773 
L 854.17125 -311.770985 
L 853.484764 -307.239196 
L 852.108453 -302.707408 
L 850.117712 -298.175619 
L 847.623072 -293.643831 
L 844.755171 -289.112042 
L 841.648924 -284.580253 
L 838.430014 -280.048465 
L 835.205784 -275.516676 
L 832.061196 -270.984888 
L 829.05917 -266.453099 
L 826.243797 -261.921311 
L 823.644647 -257.389522 
L 821.280745 -252.857734 
L 819.163354 -248.325945 
L 817.297437 -243.794157 
L 815.682097 -239.262368 
L 814.310568 -234.73058 
L 813.170283 -230.198791 
L 812.243365 -225.667003 
L 811.507647 -221.135214 
L 810.938115 -216.603426 
L 810.508565 -212.071637 
L 810.193209 -207.539849 
L 809.968038 -203.00806 
L 809.811792 -198.476272 
z
" style="stroke: #3d3d3d; stroke-opacity: 0.5"/>
    </defs>
    <g clip-path="url(#p5efe5dc25f)">
     <use xlink:href="#m16028629da" x="0" y="722.183991" style="fill: #3a923a; fill-opacity: 0.5; stroke: #3d3d3d; stroke-opacity: 0.5"/>
    </g>
   </g>
   <g id="line2d_10">
    <path d="M 139.93125 429.482359 
L 139.93125 227.386498 
" clip-path="url(#p5efe5dc25f)" style="fill: none; stroke: #3d3d3d; stroke-width: 1.5; stroke-linecap: round"/>
   </g>
   <g id="line2d_11">
    <path d="M 139.93125 381.872358 
L 139.93125 315.630623 
" clip-path="url(#p5efe5dc25f)" style="fill: none; stroke: #3d3d3d; stroke-width: 4.5; stroke-linecap: round"/>
   </g>
   <g id="line2d_12">
    <path d="M 139.93125 349.698602 
" clip-path="url(#p5efe5dc25f)" style="fill: none; stroke: #3d3d3d; stroke-width: 1.5; stroke-linecap: round"/>
    <defs>
     <path id="m1047e273ed" d="M 1.875 0 
L -1.875 -0 
" style="stroke: #ffffff; stroke-width: 0.9"/>
    </defs>
    <g clip-path="url(#p5efe5dc25f)">
     <use xlink:href="#m1047e273ed" x="139.93125" y="349.698602" style="fill: #ffffff; stroke: #ffffff; stroke-width: 0.9"/>
    </g>
   </g>
   <g id="line2d_13">
    <path d="M 251.53125 482.883215 
L 251.53125 331.113123 
" clip-path="url(#p5efe5dc25f)" style="fill: none; stroke: #3d3d3d; stroke-width: 1.5; stroke-linecap: round"/>
   </g>
   <g id="line2d_14">
    <path d="M 251.53125 450.302561 
L 251.53125 397.94913 
" clip-path="url(#p5efe5dc25f)" style="fill: none; stroke: #3d3d3d; stroke-width: 4.5; stroke-linecap: round"/>
   </g>
   <g id="line2d_15">
    <path d="M 251.53125 431.822128 
" clip-path="url(#p5efe5dc25f)" style="fill: none; stroke: #3d3d3d; stroke-width: 1.5; stroke-linecap: round"/>
    <g clip-path="url(#p5efe5dc25f)">
     <use xlink:href="#m1047e273ed" x="251.53125" y="431.822128" style="fill: #ffffff; stroke: #ffffff; stroke-width: 0.9"/>
    </g>
   </g>
   <g id="line2d_16">
    <path d="M 363.13125 346.261335 
L 363.13125 154.737073 
" clip-path="url(#p5efe5dc25f)" style="fill: none; stroke: #3d3d3d; stroke-width: 1.5; stroke-linecap: round"/>
   </g>
   <g id="line2d_17">
    <path d="M 363.13125 287.711009 
L 363.13125 233.723727 
" clip-path="url(#p5efe5dc25f)" style="fill: none; stroke: #3d3d3d; stroke-width: 4.5; stroke-linecap: round"/>
   </g>
   <g id="line2d_18">
    <path d="M 363.13125 260.702735 
" clip-path="url(#p5efe5dc25f)" style="fill: none; stroke: #3d3d3d; stroke-width: 1.5; stroke-linecap: round"/>
    <g clip-path="url(#p5efe5dc25f)">
     <use xlink:href="#m1047e273ed" x="363.13125" y="260.702735" style="fill: #ffffff; stroke: #ffffff; stroke-width: 0.9"/>
    </g>
   </g>
   <g id="line2d_19">
    <path d="M 474.73125 422.301699 
L 474.73125 253.193453 
" clip-path="url(#p5efe5dc25f)" style="fill: none; stroke: #3d3d3d; stroke-width: 1.5; stroke-linecap: round"/>
   </g>
   <g id="line2d_20">
    <path d="M 474.73125 380.359157 
L 474.73125 319.659951 
" clip-path="url(#p5efe5dc25f)" style="fill: none; stroke: #3d3d3d; stroke-width: 4.5; stroke-linecap: round"/>
   </g>
   <g id="line2d_21">
    <path d="M 474.73125 355.716072 
" clip-path="url(#p5efe5dc25f)" style="fill: none; stroke: #3d3d3d; stroke-width: 1.5; stroke-linecap: round"/>
    <g clip-path="url(#p5efe5dc25f)">
     <use xlink:href="#m1047e273ed" x="474.73125" y="355.716072" style="fill: #ffffff; stroke: #ffffff; stroke-width: 0.9"/>
    </g>
   </g>
   <g id="line2d_22">
    <path d="M 586.33125 442.987888 
L 586.33125 243.57392 
" clip-path="url(#p5efe5dc25f)" style="fill: none; stroke: #3d3d3d; stroke-width: 1.5; stroke-linecap: round"/>
   </g>
   <g id="line2d_23">
    <path d="M 586.33125 396.050464 
L 586.33125 333.334735 
" clip-path="url(#p5efe5dc25f)" style="fill: none; stroke: #3d3d3d; stroke-width: 4.5; stroke-linecap: round"/>
   </g>
   <g id="line2d_24">
    <path d="M 586.33125 372.012394 
" clip-path="url(#p5efe5dc25f)" style="fill: none; stroke: #3d3d3d; stroke-width: 1.5; stroke-linecap: round"/>
    <g clip-path="url(#p5efe5dc25f)">
     <use xlink:href="#m1047e273ed" x="586.33125" y="372.012394" style="fill: #ffffff; stroke: #ffffff; stroke-width: 0.9"/>
    </g>
   </g>
   <g id="line2d_25">
    <path d="M 697.93125 492.690858 
L 697.93125 350.367619 
" clip-path="url(#p5efe5dc25f)" style="fill: none; stroke: #3d3d3d; stroke-width: 1.5; stroke-linecap: round"/>
   </g>
   <g id="line2d_26">
    <path d="M 697.93125 439.846372 
L 697.93125 394.655378 
" clip-path="url(#p5efe5dc25f)" style="fill: none; stroke: #3d3d3d; stroke-width: 4.5; stroke-linecap: round"/>
   </g>
   <g id="line2d_27">
    <path d="M 697.93125 421.444928 
" clip-path="url(#p5efe5dc25f)" style="fill: none; stroke: #3d3d3d; stroke-width: 1.5; stroke-linecap: round"/>
    <g clip-path="url(#p5efe5dc25f)">
     <use xlink:href="#m1047e273ed" x="697.93125" y="421.444928" style="fill: #ffffff; stroke: #ffffff; stroke-width: 0.9"/>
    </g>
   </g>
   <g id="line2d_28">
    <path d="M 809.53125 476.006341 
L 809.53125 295.076014 
" clip-path="url(#p5efe5dc25f)" style="fill: none; stroke: #3d3d3d; stroke-width: 1.5; stroke-linecap: round"/>
   </g>
   <g id="line2d_29">
    <path d="M 809.53125 421.875183 
L 809.53125 368.712575 
" clip-path="url(#p5efe5dc25f)" style="fill: none; stroke: #3d3d3d; stroke-width: 4.5; stroke-linecap: round"/>
   </g>
   <g id="line2d_30">
    <path d="M 809.53125 405.052099 
" clip-path="url(#p5efe5dc25f)" style="fill: none; stroke: #3d3d3d; stroke-width: 1.5; stroke-linecap: round"/>
    <g clip-path="url(#p5efe5dc25f)">
     <use xlink:href="#m1047e273ed" x="809.53125" y="405.052099" style="fill: #ffffff; stroke: #ffffff; stroke-width: 0.9"/>
    </g>
   </g>
   <g id="patch_3">
    <path d="M 84.13125 561.6 
L 865.33125 561.6 
" style="fill: none; stroke: #cccccc; stroke-width: 0.8; stroke-linejoin: miter; stroke-linecap: square"/>
   </g>
  </g>
 </g>
 <defs>
  <clipPath id="p5efe5dc25f">
   <rect x="84.13125" y="7.2" width="781.2" height="554.4"/>
  </clipPath>
 </defs>
</svg>
