<?xml version="1.0" encoding="utf-8" standalone="no"?>
<!DOCTYPE svg PUBLIC "-//W3C//DTD SVG 1.1//EN"
  "http://www.w3.org/Graphics/SVG/1.1/DTD/svg11.dtd">
<svg xmlns:xlink="http://www.w3.org/1999/xlink" width="872.53125pt" height="722.183991pt" viewBox="0 0 872.53125 722.183991" xmlns="http://www.w3.org/2000/svg" version="1.1">
 <metadata>
  <rdf:RDF xmlns:dc="http://purl.org/dc/elements/1.1/" xmlns:cc="http://creativecommons.org/ns#" xmlns:rdf="http://www.w3.org/1999/02/22-rdf-syntax-ns#">
   <cc:Work>
    <dc:type rdf:resource="http://purl.org/dc/dcmitype/StillImage"/>
    <dc:date>2024-03-17T20:48:20.591102</dc:date>
    <dc:format>image/svg+xml</dc:format>
    <dc:creator>
     <cc:Agent>
      <dc:title>Matplotlib v3.8.0, https://matplotlib.org/</dc:title>
     </cc:Agent>
    </dc:creator>
   </cc:Work>
  </rdf:RDF>
 </metadata>
 <defs>
  <style type="text/css">*{stroke-linejoin: round; stroke-linecap: butt}</style>
 </defs>
 <g id="figure_1">
  <g id="patch_1">
   <path d="M 0 722.183991 
L 872.53125 722.183991 
L 872.53125 0 
L 0 0 
L 0 722.183991 
z
" style="fill: none"/>
  </g>
  <g id="axes_1">
   <g id="patch_2">
    <path d="M 84.13125 561.6 
L 865.33125 561.6 
L 865.33125 7.2 
L 84.13125 7.2 
L 84.13125 561.6 
z
" style="fill: none"/>
   </g>
   <g id="matplotlib.axis_1">
    <g id="xtick_1">
     <g id="text_1">
      <!-- MSA -->
      <g style="fill: #262626" transform="translate(119.557736 610.465141) rotate(-45) scale(0.2 -0.2)">
       <defs>
        <path id="DejaVuSans-4d" d="M 628 4666 
L 1569 4666 
L 2759 1491 
L 3956 4666 
L 4897 4666 
L 4897 0 
L 4281 0 
L 4281 4097 
L 3078 897 
L 2444 897 
L 1241 4097 
L 1241 0 
L 628 0 
L 628 4666 
z
" transform="scale(0.015625)"/>
        <path id="DejaVuSans-53" d="M 3425 4513 
L 3425 3897 
Q 3066 4069 2747 4153 
Q 2428 4238 2131 4238 
Q 1616 4238 1336 4038 
Q 1056 3838 1056 3469 
Q 1056 3159 1242 3001 
Q 1428 2844 1947 2747 
L 2328 2669 
Q 3034 2534 3370 2195 
Q 3706 1856 3706 1288 
Q 3706 609 3251 259 
Q 2797 -91 1919 -91 
Q 1588 -91 1214 -16 
Q 841 59 441 206 
L 441 856 
Q 825 641 1194 531 
Q 1563 422 1919 422 
Q 2459 422 2753 634 
Q 3047 847 3047 1241 
Q 3047 1584 2836 1778 
Q 2625 1972 2144 2069 
L 1759 2144 
Q 1053 2284 737 2584 
Q 422 2884 422 3419 
Q 422 4038 858 4394 
Q 1294 4750 2059 4750 
Q 2388 4750 2728 4690 
Q 3069 4631 3425 4513 
z
" transform="scale(0.015625)"/>
        <path id="DejaVuSans-41" d="M 2188 4044 
L 1331 1722 
L 3047 1722 
L 2188 4044 
z
M 1831 4666 
L 2547 4666 
L 4325 0 
L 3669 0 
L 3244 1197 
L 1141 1197 
L 716 0 
L 50 0 
L 1831 4666 
z
" transform="scale(0.015625)"/>
       </defs>
       <use xlink:href="#DejaVuSans-4d"/>
       <use xlink:href="#DejaVuSans-53" x="86.279297"/>
       <use xlink:href="#DejaVuSans-41" x="151.630859"/>
      </g>
     </g>
    </g>
    <g id="xtick_2">
     <g id="text_2">
      <!-- Template -->
      <g style="fill: #262626" transform="translate(197.74694 643.875936) rotate(-45) scale(0.2 -0.2)">
       <defs>
        <path id="DejaVuSans-54" d="M -19 4666 
L 3928 4666 
L 3928 4134 
L 2272 4134 
L 2272 0 
L 1638 0 
L 1638 4134 
L -19 4134 
L -19 4666 
z
" transform="scale(0.015625)"/>
        <path id="DejaVuSans-65" d="M 3597 1894 
L 3597 1613 
L 953 1613 
Q 991 1019 1311 708 
Q 1631 397 2203 397 
Q 2534 397 2845 478 
Q 3156 559 3463 722 
L 3463 178 
Q 3153 47 2828 -22 
Q 2503 -91 2169 -91 
Q 1331 -91 842 396 
Q 353 884 353 1716 
Q 353 2575 817 3079 
Q 1281 3584 2069 3584 
Q 2775 3584 3186 3129 
Q 3597 2675 3597 1894 
z
M 3022 2063 
Q 3016 2534 2758 2815 
Q 2500 3097 2075 3097 
Q 1594 3097 1305 2825 
Q 1016 2553 972 2059 
L 3022 2063 
z
" transform="scale(0.015625)"/>
        <path id="DejaVuSans-6d" d="M 3328 2828 
Q 3544 3216 3844 3400 
Q 4144 3584 4550 3584 
Q 5097 3584 5394 3201 
Q 5691 2819 5691 2113 
L 5691 0 
L 5113 0 
L 5113 2094 
Q 5113 2597 4934 2840 
Q 4756 3084 4391 3084 
Q 3944 3084 3684 2787 
Q 3425 2491 3425 1978 
L 3425 0 
L 2847 0 
L 2847 2094 
Q 2847 2600 2669 2842 
Q 2491 3084 2119 3084 
Q 1678 3084 1418 2786 
Q 1159 2488 1159 1978 
L 1159 0 
L 581 0 
L 581 3500 
L 1159 3500 
L 1159 2956 
Q 1356 3278 1631 3431 
Q 1906 3584 2284 3584 
Q 2666 3584 2933 3390 
Q 3200 3197 3328 2828 
z
" transform="scale(0.015625)"/>
        <path id="DejaVuSans-70" d="M 1159 525 
L 1159 -1331 
L 581 -1331 
L 581 3500 
L 1159 3500 
L 1159 2969 
Q 1341 3281 1617 3432 
Q 1894 3584 2278 3584 
Q 2916 3584 3314 3078 
Q 3713 2572 3713 1747 
Q 3713 922 3314 415 
Q 2916 -91 2278 -91 
Q 1894 -91 1617 61 
Q 1341 213 1159 525 
z
M 3116 1747 
Q 3116 2381 2855 2742 
Q 2594 3103 2138 3103 
Q 1681 3103 1420 2742 
Q 1159 2381 1159 1747 
Q 1159 1113 1420 752 
Q 1681 391 2138 391 
Q 2594 391 2855 752 
Q 3116 1113 3116 1747 
z
" transform="scale(0.015625)"/>
        <path id="DejaVuSans-6c" d="M 603 4863 
L 1178 4863 
L 1178 0 
L 603 0 
L 603 4863 
z
" transform="scale(0.015625)"/>
        <path id="DejaVuSans-61" d="M 2194 1759 
Q 1497 1759 1228 1600 
Q 959 1441 959 1056 
Q 959 750 1161 570 
Q 1363 391 1709 391 
Q 2188 391 2477 730 
Q 2766 1069 2766 1631 
L 2766 1759 
L 2194 1759 
z
M 3341 1997 
L 3341 0 
L 2766 0 
L 2766 531 
Q 2569 213 2275 61 
Q 1981 -91 1556 -91 
Q 1019 -91 701 211 
Q 384 513 384 1019 
Q 384 1609 779 1909 
Q 1175 2209 1959 2209 
L 2766 2209 
L 2766 2266 
Q 2766 2663 2505 2880 
Q 2244 3097 1772 3097 
Q 1472 3097 1187 3025 
Q 903 2953 641 2809 
L 641 3341 
Q 956 3463 1253 3523 
Q 1550 3584 1831 3584 
Q 2591 3584 2966 3190 
Q 3341 2797 3341 1997 
z
" transform="scale(0.015625)"/>
        <path id="DejaVuSans-74" d="M 1172 4494 
L 1172 3500 
L 2356 3500 
L 2356 3053 
L 1172 3053 
L 1172 1153 
Q 1172 725 1289 603 
Q 1406 481 1766 481 
L 2356 481 
L 2356 0 
L 1766 0 
Q 1100 0 847 248 
Q 594 497 594 1153 
L 594 3053 
L 172 3053 
L 172 3500 
L 594 3500 
L 594 4494 
L 1172 4494 
z
" transform="scale(0.015625)"/>
       </defs>
       <use xlink:href="#DejaVuSans-54"/>
       <use xlink:href="#DejaVuSans-65" x="44.083984"/>
       <use xlink:href="#DejaVuSans-6d" x="105.607422"/>
       <use xlink:href="#DejaVuSans-70" x="203.019531"/>
       <use xlink:href="#DejaVuSans-6c" x="266.496094"/>
       <use xlink:href="#DejaVuSans-61" x="294.279297"/>
       <use xlink:href="#DejaVuSans-74" x="355.558594"/>
       <use xlink:href="#DejaVuSans-65" x="394.767578"/>
      </g>
     </g>
    </g>
    <g id="xtick_3">
     <g id="text_3">
      <!-- Backbone -->
      <g style="fill: #262626" transform="translate(304.246933 648.975944) rotate(-45) scale(0.2 -0.2)">
       <defs>
        <path id="DejaVuSans-42" d="M 1259 2228 
L 1259 519 
L 2272 519 
Q 2781 519 3026 730 
Q 3272 941 3272 1375 
Q 3272 1813 3026 2020 
Q 2781 2228 2272 2228 
L 1259 2228 
z
M 1259 4147 
L 1259 2741 
L 2194 2741 
Q 2656 2741 2882 2914 
Q 3109 3088 3109 3444 
Q 3109 3797 2882 3972 
Q 2656 4147 2194 4147 
L 1259 4147 
z
M 628 4666 
L 2241 4666 
Q 2963 4666 3353 4366 
Q 3744 4066 3744 3513 
Q 3744 3084 3544 2831 
Q 3344 2578 2956 2516 
Q 3422 2416 3680 2098 
Q 3938 1781 3938 1306 
Q 3938 681 3513 340 
Q 3088 0 2303 0 
L 628 0 
L 628 4666 
z
" transform="scale(0.015625)"/>
        <path id="DejaVuSans-63" d="M 3122 3366 
L 3122 2828 
Q 2878 2963 2633 3030 
Q 2388 3097 2138 3097 
Q 1578 3097 1268 2742 
Q 959 2388 959 1747 
Q 959 1106 1268 751 
Q 1578 397 2138 397 
Q 2388 397 2633 464 
Q 2878 531 3122 666 
L 3122 134 
Q 2881 22 2623 -34 
Q 2366 -91 2075 -91 
Q 1284 -91 818 406 
Q 353 903 353 1747 
Q 353 2603 823 3093 
Q 1294 3584 2113 3584 
Q 2378 3584 2631 3529 
Q 2884 3475 3122 3366 
z
" transform="scale(0.015625)"/>
        <path id="DejaVuSans-6b" d="M 581 4863 
L 1159 4863 
L 1159 1991 
L 2875 3500 
L 3609 3500 
L 1753 1863 
L 3688 0 
L 2938 0 
L 1159 1709 
L 1159 0 
L 581 0 
L 581 4863 
z
" transform="scale(0.015625)"/>
        <path id="DejaVuSans-62" d="M 3116 1747 
Q 3116 2381 2855 2742 
Q 2594 3103 2138 3103 
Q 1681 3103 1420 2742 
Q 1159 2381 1159 1747 
Q 1159 1113 1420 752 
Q 1681 391 2138 391 
Q 2594 391 2855 752 
Q 3116 1113 3116 1747 
z
M 1159 2969 
Q 1341 3281 1617 3432 
Q 1894 3584 2278 3584 
Q 2916 3584 3314 3078 
Q 3713 2572 3713 1747 
Q 3713 922 3314 415 
Q 2916 -91 2278 -91 
Q 1894 -91 1617 61 
Q 1341 213 1159 525 
L 1159 0 
L 581 0 
L 581 4863 
L 1159 4863 
L 1159 2969 
z
" transform="scale(0.015625)"/>
        <path id="DejaVuSans-6f" d="M 1959 3097 
Q 1497 3097 1228 2736 
Q 959 2375 959 1747 
Q 959 1119 1226 758 
Q 1494 397 1959 397 
Q 2419 397 2687 759 
Q 2956 1122 2956 1747 
Q 2956 2369 2687 2733 
Q 2419 3097 1959 3097 
z
M 1959 3584 
Q 2709 3584 3137 3096 
Q 3566 2609 3566 1747 
Q 3566 888 3137 398 
Q 2709 -91 1959 -91 
Q 1206 -91 779 398 
Q 353 888 353 1747 
Q 353 2609 779 3096 
Q 1206 3584 1959 3584 
z
" transform="scale(0.015625)"/>
        <path id="DejaVuSans-6e" d="M 3513 2113 
L 3513 0 
L 2938 0 
L 2938 2094 
Q 2938 2591 2744 2837 
Q 2550 3084 2163 3084 
Q 1697 3084 1428 2787 
Q 1159 2491 1159 1978 
L 1159 0 
L 581 0 
L 581 3500 
L 1159 3500 
L 1159 2956 
Q 1366 3272 1645 3428 
Q 1925 3584 2291 3584 
Q 2894 3584 3203 3211 
Q 3513 2838 3513 2113 
z
" transform="scale(0.015625)"/>
       </defs>
       <use xlink:href="#DejaVuSans-42"/>
       <use xlink:href="#DejaVuSans-61" x="68.603516"/>
       <use xlink:href="#DejaVuSans-63" x="129.882812"/>
       <use xlink:href="#DejaVuSans-6b" x="184.863281"/>
       <use xlink:href="#DejaVuSans-62" x="242.773438"/>
       <use xlink:href="#DejaVuSans-6f" x="306.25"/>
       <use xlink:href="#DejaVuSans-6e" x="367.431641"/>
       <use xlink:href="#DejaVuSans-65" x="430.810547"/>
      </g>
     </g>
    </g>
    <g id="xtick_4">
     <g id="text_4">
      <!-- Heuristic C-$\beta$ -->
      <g style="fill: #262626" transform="translate(394.40392 670.706219) rotate(-45) scale(0.2 -0.2)">
       <defs>
        <path id="DejaVuSans-48" d="M 628 4666 
L 1259 4666 
L 1259 2753 
L 3553 2753 
L 3553 4666 
L 4184 4666 
L 4184 0 
L 3553 0 
L 3553 2222 
L 1259 2222 
L 1259 0 
L 628 0 
L 628 4666 
z
" transform="scale(0.015625)"/>
        <path id="DejaVuSans-75" d="M 544 1381 
L 544 3500 
L 1119 3500 
L 1119 1403 
Q 1119 906 1312 657 
Q 1506 409 1894 409 
Q 2359 409 2629 706 
Q 2900 1003 2900 1516 
L 2900 3500 
L 3475 3500 
L 3475 0 
L 2900 0 
L 2900 538 
Q 2691 219 2414 64 
Q 2138 -91 1772 -91 
Q 1169 -91 856 284 
Q 544 659 544 1381 
z
M 1991 3584 
L 1991 3584 
z
" transform="scale(0.015625)"/>
        <path id="DejaVuSans-72" d="M 2631 2963 
Q 2534 3019 2420 3045 
Q 2306 3072 2169 3072 
Q 1681 3072 1420 2755 
Q 1159 2438 1159 1844 
L 1159 0 
L 581 0 
L 581 3500 
L 1159 3500 
L 1159 2956 
Q 1341 3275 1631 3429 
Q 1922 3584 2338 3584 
Q 2397 3584 2469 3576 
Q 2541 3569 2628 3553 
L 2631 2963 
z
" transform="scale(0.015625)"/>
        <path id="DejaVuSans-69" d="M 603 3500 
L 1178 3500 
L 1178 0 
L 603 0 
L 603 3500 
z
M 603 4863 
L 1178 4863 
L 1178 4134 
L 603 4134 
L 603 4863 
z
" transform="scale(0.015625)"/>
        <path id="DejaVuSans-73" d="M 2834 3397 
L 2834 2853 
Q 2591 2978 2328 3040 
Q 2066 3103 1784 3103 
Q 1356 3103 1142 2972 
Q 928 2841 928 2578 
Q 928 2378 1081 2264 
Q 1234 2150 1697 2047 
L 1894 2003 
Q 2506 1872 2764 1633 
Q 3022 1394 3022 966 
Q 3022 478 2636 193 
Q 2250 -91 1575 -91 
Q 1294 -91 989 -36 
Q 684 19 347 128 
L 347 722 
Q 666 556 975 473 
Q 1284 391 1588 391 
Q 1994 391 2212 530 
Q 2431 669 2431 922 
Q 2431 1156 2273 1281 
Q 2116 1406 1581 1522 
L 1381 1569 
Q 847 1681 609 1914 
Q 372 2147 372 2553 
Q 372 3047 722 3315 
Q 1072 3584 1716 3584 
Q 2034 3584 2315 3537 
Q 2597 3491 2834 3397 
z
" transform="scale(0.015625)"/>
        <path id="DejaVuSans-20" transform="scale(0.015625)"/>
        <path id="DejaVuSans-43" d="M 4122 4306 
L 4122 3641 
Q 3803 3938 3442 4084 
Q 3081 4231 2675 4231 
Q 1875 4231 1450 3742 
Q 1025 3253 1025 2328 
Q 1025 1406 1450 917 
Q 1875 428 2675 428 
Q 3081 428 3442 575 
Q 3803 722 4122 1019 
L 4122 359 
Q 3791 134 3420 21 
Q 3050 -91 2638 -91 
Q 1578 -91 968 557 
Q 359 1206 359 2328 
Q 359 3453 968 4101 
Q 1578 4750 2638 4750 
Q 3056 4750 3426 4639 
Q 3797 4528 4122 4306 
z
" transform="scale(0.015625)"/>
        <path id="DejaVuSans-2d" d="M 313 2009 
L 1997 2009 
L 1997 1497 
L 313 1497 
L 313 2009 
z
" transform="scale(0.015625)"/>
        <path id="DejaVuSans-Oblique-3b2" d="M 872 216 
L 572 -1331 
L -6 -1331 
L 928 3478 
Q 1206 4903 2538 4903 
Q 3888 4903 3659 3700 
Q 3503 2844 2894 2531 
Q 3713 2250 3553 1416 
Q 3272 -69 1759 -66 
Q 1097 -63 872 216 
z
M 1019 966 
Q 1259 422 1875 425 
Q 2775 425 2966 1406 
Q 3138 2288 1675 2219 
L 1778 2750 
Q 2909 2731 3106 3750 
Q 3241 4438 2509 4434 
Q 1691 4434 1503 3459 
L 1019 966 
z
" transform="scale(0.015625)"/>
       </defs>
       <use xlink:href="#DejaVuSans-48" transform="translate(0 0.390625)"/>
       <use xlink:href="#DejaVuSans-65" transform="translate(75.195312 0.390625)"/>
       <use xlink:href="#DejaVuSans-75" transform="translate(136.71875 0.390625)"/>
       <use xlink:href="#DejaVuSans-72" transform="translate(200.097656 0.390625)"/>
       <use xlink:href="#DejaVuSans-69" transform="translate(241.210938 0.390625)"/>
       <use xlink:href="#DejaVuSans-73" transform="translate(268.994141 0.390625)"/>
       <use xlink:href="#DejaVuSans-74" transform="translate(321.09375 0.390625)"/>
       <use xlink:href="#DejaVuSans-69" transform="translate(360.302734 0.390625)"/>
       <use xlink:href="#DejaVuSans-63" transform="translate(388.085938 0.390625)"/>
       <use xlink:href="#DejaVuSans-20" transform="translate(443.066406 0.390625)"/>
       <use xlink:href="#DejaVuSans-43" transform="translate(474.853516 0.390625)"/>
       <use xlink:href="#DejaVuSans-2d" transform="translate(544.677734 0.390625)"/>
       <use xlink:href="#DejaVuSans-Oblique-3b2" transform="translate(580.761719 0.390625)"/>
      </g>
     </g>
    </g>
    <g id="xtick_5">
     <g id="text_5">
      <!-- Template C-$\beta$ -->
      <g style="fill: #262626" transform="translate(501.761279 674.94886) rotate(-45) scale(0.2 -0.2)">
       <use xlink:href="#DejaVuSans-54" transform="translate(0 0.390625)"/>
       <use xlink:href="#DejaVuSans-65" transform="translate(61.083984 0.390625)"/>
       <use xlink:href="#DejaVuSans-6d" transform="translate(122.607422 0.390625)"/>
       <use xlink:href="#DejaVuSans-70" transform="translate(220.019531 0.390625)"/>
       <use xlink:href="#DejaVuSans-6c" transform="translate(283.496094 0.390625)"/>
       <use xlink:href="#DejaVuSans-61" transform="translate(311.279297 0.390625)"/>
       <use xlink:href="#DejaVuSans-74" transform="translate(372.558594 0.390625)"/>
       <use xlink:href="#DejaVuSans-65" transform="translate(411.767578 0.390625)"/>
       <use xlink:href="#DejaVuSans-20" transform="translate(473.291016 0.390625)"/>
       <use xlink:href="#DejaVuSans-43" transform="translate(505.078125 0.390625)"/>
       <use xlink:href="#DejaVuSans-2d" transform="translate(574.902344 0.390625)"/>
       <use xlink:href="#DejaVuSans-Oblique-3b2" transform="translate(610.986328 0.390625)"/>
      </g>
     </g>
    </g>
    <g id="xtick_6">
     <g id="text_6">
      <!-- AttnPacker -->
      <g style="fill: #262626" transform="translate(632.674133 655.348744) rotate(-45) scale(0.2 -0.2)">
       <defs>
        <path id="DejaVuSans-50" d="M 1259 4147 
L 1259 2394 
L 2053 2394 
Q 2494 2394 2734 2622 
Q 2975 2850 2975 3272 
Q 2975 3691 2734 3919 
Q 2494 4147 2053 4147 
L 1259 4147 
z
M 628 4666 
L 2053 4666 
Q 2838 4666 3239 4311 
Q 3641 3956 3641 3272 
Q 3641 2581 3239 2228 
Q 2838 1875 2053 1875 
L 1259 1875 
L 1259 0 
L 628 0 
L 628 4666 
z
" transform="scale(0.015625)"/>
       </defs>
       <use xlink:href="#DejaVuSans-41"/>
       <use xlink:href="#DejaVuSans-74" x="66.658203"/>
       <use xlink:href="#DejaVuSans-74" x="105.867188"/>
       <use xlink:href="#DejaVuSans-6e" x="145.076172"/>
       <use xlink:href="#DejaVuSans-50" x="208.455078"/>
       <use xlink:href="#DejaVuSans-61" x="264.257812"/>
       <use xlink:href="#DejaVuSans-63" x="325.537109"/>
       <use xlink:href="#DejaVuSans-6b" x="380.517578"/>
       <use xlink:href="#DejaVuSans-65" x="434.802734"/>
       <use xlink:href="#DejaVuSans-72" x="496.326172"/>
      </g>
     </g>
    </g>
    <g id="xtick_7">
     <g id="text_7">
      <!-- AttnPacker (AF) -->
      <g style="fill: #262626" transform="translate(710.936258 688.686619) rotate(-45) scale(0.2 -0.2)">
       <defs>
        <path id="DejaVuSans-28" d="M 1984 4856 
Q 1566 4138 1362 3434 
Q 1159 2731 1159 2009 
Q 1159 1288 1364 580 
Q 1569 -128 1984 -844 
L 1484 -844 
Q 1016 -109 783 600 
Q 550 1309 550 2009 
Q 550 2706 781 3412 
Q 1013 4119 1484 4856 
L 1984 4856 
z
" transform="scale(0.015625)"/>
        <path id="DejaVuSans-46" d="M 628 4666 
L 3309 4666 
L 3309 4134 
L 1259 4134 
L 1259 2759 
L 3109 2759 
L 3109 2228 
L 1259 2228 
L 1259 0 
L 628 0 
L 628 4666 
z
" transform="scale(0.015625)"/>
        <path id="DejaVuSans-29" d="M 513 4856 
L 1013 4856 
Q 1481 4119 1714 3412 
Q 1947 2706 1947 2009 
Q 1947 1309 1714 600 
Q 1481 -109 1013 -844 
L 513 -844 
Q 928 -128 1133 580 
Q 1338 1288 1338 2009 
Q 1338 2731 1133 3434 
Q 928 4138 513 4856 
z
" transform="scale(0.015625)"/>
       </defs>
       <use xlink:href="#DejaVuSans-41"/>
       <use xlink:href="#DejaVuSans-74" x="66.658203"/>
       <use xlink:href="#DejaVuSans-74" x="105.867188"/>
       <use xlink:href="#DejaVuSans-6e" x="145.076172"/>
       <use xlink:href="#DejaVuSans-50" x="208.455078"/>
       <use xlink:href="#DejaVuSans-61" x="264.257812"/>
       <use xlink:href="#DejaVuSans-63" x="325.537109"/>
       <use xlink:href="#DejaVuSans-6b" x="380.517578"/>
       <use xlink:href="#DejaVuSans-65" x="434.802734"/>
       <use xlink:href="#DejaVuSans-72" x="496.326172"/>
       <use xlink:href="#DejaVuSans-20" x="537.439453"/>
       <use xlink:href="#DejaVuSans-28" x="569.226562"/>
       <use xlink:href="#DejaVuSans-41" x="608.240234"/>
       <use xlink:href="#DejaVuSans-46" x="676.648438"/>
       <use xlink:href="#DejaVuSans-29" x="734.167969"/>
      </g>
     </g>
    </g>
    <g id="text_8">
     <!-- Method -->
     <g style="fill: #262626" transform="translate(437.225 710.824616) scale(0.2 -0.2)">
      <defs>
       <path id="DejaVuSans-68" d="M 3513 2113 
L 3513 0 
L 2938 0 
L 2938 2094 
Q 2938 2591 2744 2837 
Q 2550 3084 2163 3084 
Q 1697 3084 1428 2787 
Q 1159 2491 1159 1978 
L 1159 0 
L 581 0 
L 581 4863 
L 1159 4863 
L 1159 2956 
Q 1366 3272 1645 3428 
Q 1925 3584 2291 3584 
Q 2894 3584 3203 3211 
Q 3513 2838 3513 2113 
z
" transform="scale(0.015625)"/>
       <path id="DejaVuSans-64" d="M 2906 2969 
L 2906 4863 
L 3481 4863 
L 3481 0 
L 2906 0 
L 2906 525 
Q 2725 213 2448 61 
Q 2172 -91 1784 -91 
Q 1150 -91 751 415 
Q 353 922 353 1747 
Q 353 2572 751 3078 
Q 1150 3584 1784 3584 
Q 2172 3584 2448 3432 
Q 2725 3281 2906 2969 
z
M 947 1747 
Q 947 1113 1208 752 
Q 1469 391 1925 391 
Q 2381 391 2643 752 
Q 2906 1113 2906 1747 
Q 2906 2381 2643 2742 
Q 2381 3103 1925 3103 
Q 1469 3103 1208 2742 
Q 947 2381 947 1747 
z
" transform="scale(0.015625)"/>
      </defs>
      <use xlink:href="#DejaVuSans-4d"/>
      <use xlink:href="#DejaVuSans-65" x="86.279297"/>
      <use xlink:href="#DejaVuSans-74" x="147.802734"/>
      <use xlink:href="#DejaVuSans-68" x="187.011719"/>
      <use xlink:href="#DejaVuSans-6f" x="250.390625"/>
      <use xlink:href="#DejaVuSans-64" x="311.572266"/>
     </g>
    </g>
   </g>
   <g id="matplotlib.axis_2">
    <g id="ytick_1">
     <g id="line2d_1">
      <path d="M 84.13125 542.736436 
L 865.33125 542.736436 
" clip-path="url(#p5b2f34e9cf)" style="fill: none; stroke: #cccccc; stroke-width: 0.8; stroke-linecap: round"/>
     </g>
     <g id="text_9">
      <!-- 0.00 -->
      <g style="fill: #262626" transform="translate(32.6 550.334873) scale(0.2 -0.2)">
       <defs>
        <path id="DejaVuSans-30" d="M 2034 4250 
Q 1547 4250 1301 3770 
Q 1056 3291 1056 2328 
Q 1056 1369 1301 889 
Q 1547 409 2034 409 
Q 2525 409 2770 889 
Q 3016 1369 3016 2328 
Q 3016 3291 2770 3770 
Q 2525 4250 2034 4250 
z
M 2034 4750 
Q 2819 4750 3233 4129 
Q 3647 3509 3647 2328 
Q 3647 1150 3233 529 
Q 2819 -91 2034 -91 
Q 1250 -91 836 529 
Q 422 1150 422 2328 
Q 422 3509 836 4129 
Q 1250 4750 2034 4750 
z
" transform="scale(0.015625)"/>
        <path id="DejaVuSans-2e" d="M 684 794 
L 1344 794 
L 1344 0 
L 684 0 
L 684 794 
z
" transform="scale(0.015625)"/>
       </defs>
       <use xlink:href="#DejaVuSans-30"/>
       <use xlink:href="#DejaVuSans-2e" x="63.623047"/>
       <use xlink:href="#DejaVuSans-30" x="95.410156"/>
       <use xlink:href="#DejaVuSans-30" x="159.033203"/>
      </g>
     </g>
    </g>
    <g id="ytick_2">
     <g id="line2d_2">
      <path d="M 84.13125 473.153254 
L 865.33125 473.153254 
" clip-path="url(#p5b2f34e9cf)" style="fill: none; stroke: #cccccc; stroke-width: 0.8; stroke-linecap: round"/>
     </g>
     <g id="text_10">
      <!-- 0.25 -->
      <g style="fill: #262626" transform="translate(32.6 480.751691) scale(0.2 -0.2)">
       <defs>
        <path id="DejaVuSans-32" d="M 1228 531 
L 3431 531 
L 3431 0 
L 469 0 
L 469 531 
Q 828 903 1448 1529 
Q 2069 2156 2228 2338 
Q 2531 2678 2651 2914 
Q 2772 3150 2772 3378 
Q 2772 3750 2511 3984 
Q 2250 4219 1831 4219 
Q 1534 4219 1204 4116 
Q 875 4013 500 3803 
L 500 4441 
Q 881 4594 1212 4672 
Q 1544 4750 1819 4750 
Q 2544 4750 2975 4387 
Q 3406 4025 3406 3419 
Q 3406 3131 3298 2873 
Q 3191 2616 2906 2266 
Q 2828 2175 2409 1742 
Q 1991 1309 1228 531 
z
" transform="scale(0.015625)"/>
        <path id="DejaVuSans-35" d="M 691 4666 
L 3169 4666 
L 3169 4134 
L 1269 4134 
L 1269 2991 
Q 1406 3038 1543 3061 
Q 1681 3084 1819 3084 
Q 2600 3084 3056 2656 
Q 3513 2228 3513 1497 
Q 3513 744 3044 326 
Q 2575 -91 1722 -91 
Q 1428 -91 1123 -41 
Q 819 9 494 109 
L 494 744 
Q 775 591 1075 516 
Q 1375 441 1709 441 
Q 2250 441 2565 725 
Q 2881 1009 2881 1497 
Q 2881 1984 2565 2268 
Q 2250 2553 1709 2553 
Q 1456 2553 1204 2497 
Q 953 2441 691 2322 
L 691 4666 
z
" transform="scale(0.015625)"/>
       </defs>
       <use xlink:href="#DejaVuSans-30"/>
       <use xlink:href="#DejaVuSans-2e" x="63.623047"/>
       <use xlink:href="#DejaVuSans-32" x="95.410156"/>
       <use xlink:href="#DejaVuSans-35" x="159.033203"/>
      </g>
     </g>
    </g>
    <g id="ytick_3">
     <g id="line2d_3">
      <path d="M 84.13125 403.570072 
L 865.33125 403.570072 
" clip-path="url(#p5b2f34e9cf)" style="fill: none; stroke: #cccccc; stroke-width: 0.8; stroke-linecap: round"/>
     </g>
     <g id="text_11">
      <!-- 0.50 -->
      <g style="fill: #262626" transform="translate(32.6 411.168509) scale(0.2 -0.2)">
       <use xlink:href="#DejaVuSans-30"/>
       <use xlink:href="#DejaVuSans-2e" x="63.623047"/>
       <use xlink:href="#DejaVuSans-35" x="95.410156"/>
       <use xlink:href="#DejaVuSans-30" x="159.033203"/>
      </g>
     </g>
    </g>
    <g id="ytick_4">
     <g id="line2d_4">
      <path d="M 84.13125 333.98689 
L 865.33125 333.98689 
" clip-path="url(#p5b2f34e9cf)" style="fill: none; stroke: #cccccc; stroke-width: 0.8; stroke-linecap: round"/>
     </g>
     <g id="text_12">
      <!-- 0.75 -->
      <g style="fill: #262626" transform="translate(32.6 341.585327) scale(0.2 -0.2)">
       <defs>
        <path id="DejaVuSans-37" d="M 525 4666 
L 3525 4666 
L 3525 4397 
L 1831 0 
L 1172 0 
L 2766 4134 
L 525 4134 
L 525 4666 
z
" transform="scale(0.015625)"/>
       </defs>
       <use xlink:href="#DejaVuSans-30"/>
       <use xlink:href="#DejaVuSans-2e" x="63.623047"/>
       <use xlink:href="#DejaVuSans-37" x="95.410156"/>
       <use xlink:href="#DejaVuSans-35" x="159.033203"/>
      </g>
     </g>
    </g>
    <g id="ytick_5">
     <g id="line2d_5">
      <path d="M 84.13125 264.403707 
L 865.33125 264.403707 
" clip-path="url(#p5b2f34e9cf)" style="fill: none; stroke: #cccccc; stroke-width: 0.8; stroke-linecap: round"/>
     </g>
     <g id="text_13">
      <!-- 1.00 -->
      <g style="fill: #262626" transform="translate(32.6 272.002145) scale(0.2 -0.2)">
       <defs>
        <path id="DejaVuSans-31" d="M 794 531 
L 1825 531 
L 1825 4091 
L 703 3866 
L 703 4441 
L 1819 4666 
L 2450 4666 
L 2450 531 
L 3481 531 
L 3481 0 
L 794 0 
L 794 531 
z
" transform="scale(0.015625)"/>
       </defs>
       <use xlink:href="#DejaVuSans-31"/>
       <use xlink:href="#DejaVuSans-2e" x="63.623047"/>
       <use xlink:href="#DejaVuSans-30" x="95.410156"/>
       <use xlink:href="#DejaVuSans-30" x="159.033203"/>
      </g>
     </g>
    </g>
    <g id="ytick_6">
     <g id="line2d_6">
      <path d="M 84.13125 194.820525 
L 865.33125 194.820525 
" clip-path="url(#p5b2f34e9cf)" style="fill: none; stroke: #cccccc; stroke-width: 0.8; stroke-linecap: round"/>
     </g>
     <g id="text_14">
      <!-- 1.25 -->
      <g style="fill: #262626" transform="translate(32.6 202.418963) scale(0.2 -0.2)">
       <use xlink:href="#DejaVuSans-31"/>
       <use xlink:href="#DejaVuSans-2e" x="63.623047"/>
       <use xlink:href="#DejaVuSans-32" x="95.410156"/>
       <use xlink:href="#DejaVuSans-35" x="159.033203"/>
      </g>
     </g>
    </g>
    <g id="ytick_7">
     <g id="line2d_7">
      <path d="M 84.13125 125.237343 
L 865.33125 125.237343 
" clip-path="url(#p5b2f34e9cf)" style="fill: none; stroke: #cccccc; stroke-width: 0.8; stroke-linecap: round"/>
     </g>
     <g id="text_15">
      <!-- 1.50 -->
      <g style="fill: #262626" transform="translate(32.6 132.835781) scale(0.2 -0.2)">
       <use xlink:href="#DejaVuSans-31"/>
       <use xlink:href="#DejaVuSans-2e" x="63.623047"/>
       <use xlink:href="#DejaVuSans-35" x="95.410156"/>
       <use xlink:href="#DejaVuSans-30" x="159.033203"/>
      </g>
     </g>
    </g>
    <g id="ytick_8">
     <g id="line2d_8">
      <path d="M 84.13125 55.654161 
L 865.33125 55.654161 
" clip-path="url(#p5b2f34e9cf)" style="fill: none; stroke: #cccccc; stroke-width: 0.8; stroke-linecap: round"/>
     </g>
     <g id="text_16">
      <!-- 1.75 -->
      <g style="fill: #262626" transform="translate(32.6 63.252599) scale(0.2 -0.2)">
       <use xlink:href="#DejaVuSans-31"/>
       <use xlink:href="#DejaVuSans-2e" x="63.623047"/>
       <use xlink:href="#DejaVuSans-37" x="95.410156"/>
       <use xlink:href="#DejaVuSans-35" x="159.033203"/>
      </g>
     </g>
    </g>
    <g id="text_17">
     <!-- RMSD ($\AA$) -->
     <g style="fill: #262626" transform="translate(24.440625 331.9) rotate(-90) scale(0.2 -0.2)">
      <defs>
       <path id="DejaVuSans-52" d="M 2841 2188 
Q 3044 2119 3236 1894 
Q 3428 1669 3622 1275 
L 4263 0 
L 3584 0 
L 2988 1197 
Q 2756 1666 2539 1819 
Q 2322 1972 1947 1972 
L 1259 1972 
L 1259 0 
L 628 0 
L 628 4666 
L 2053 4666 
Q 2853 4666 3247 4331 
Q 3641 3997 3641 3322 
Q 3641 2881 3436 2590 
Q 3231 2300 2841 2188 
z
M 1259 4147 
L 1259 2491 
L 2053 2491 
Q 2509 2491 2742 2702 
Q 2975 2913 2975 3322 
Q 2975 3731 2742 3939 
Q 2509 4147 2053 4147 
L 1259 4147 
z
" transform="scale(0.015625)"/>
       <path id="DejaVuSans-44" d="M 1259 4147 
L 1259 519 
L 2022 519 
Q 2988 519 3436 956 
Q 3884 1394 3884 2338 
Q 3884 3275 3436 3711 
Q 2988 4147 2022 4147 
L 1259 4147 
z
M 628 4666 
L 1925 4666 
Q 3281 4666 3915 4102 
Q 4550 3538 4550 2338 
Q 4550 1131 3912 565 
Q 3275 0 1925 0 
L 628 0 
L 628 4666 
z
" transform="scale(0.015625)"/>
       <path id="DejaVuSans-Oblique-c5" d="M 3188 5081 
Q 3188 5278 3048 5417 
Q 2909 5556 2713 5556 
Q 2513 5556 2377 5420 
Q 2241 5284 2241 5081 
Q 2241 4884 2377 4746 
Q 2513 4609 2713 4609 
Q 2909 4609 3048 4746 
Q 3188 4884 3188 5081 
z
M 2203 4397 
Q 2034 4513 1945 4689 
Q 1856 4866 1856 5081 
Q 1856 5438 2106 5689 
Q 2356 5941 2713 5941 
Q 3069 5941 3320 5689 
Q 3572 5438 3572 5081 
Q 3572 4834 3458 4643 
Q 3344 4453 3128 4341 
L 3938 0 
L 3278 0 
L 3084 1197 
L 984 1197 
L 325 0 
L -341 0 
L 2203 4397 
z
M 2584 4044 
L 1275 1722 
L 2988 1722 
L 2584 4044 
z
" transform="scale(0.015625)"/>
      </defs>
      <use xlink:href="#DejaVuSans-52" transform="translate(0 0.171875)"/>
      <use xlink:href="#DejaVuSans-4d" transform="translate(69.482422 0.171875)"/>
      <use xlink:href="#DejaVuSans-53" transform="translate(155.761719 0.171875)"/>
      <use xlink:href="#DejaVuSans-44" transform="translate(219.238281 0.171875)"/>
      <use xlink:href="#DejaVuSans-20" transform="translate(296.240234 0.171875)"/>
      <use xlink:href="#DejaVuSans-28" transform="translate(328.027344 0.171875)"/>
      <use xlink:href="#DejaVuSans-Oblique-c5" transform="translate(367.041016 0.171875)"/>
      <use xlink:href="#DejaVuSans-29" transform="translate(435.449219 0.171875)"/>
     </g>
    </g>
   </g>
   <g id="PolyCollection_1">
    <defs>
     <path id="m14a232bdce" d="M 140.225285 -226.806338 
L 139.637215 -226.806338 
L 139.548142 -230.884212 
L 139.439465 -234.962087 
L 139.308941 -239.039961 
L 139.154456 -243.117835 
L 138.974004 -247.19571 
L 138.765598 -251.273584 
L 138.5271 -255.351459 
L 138.255966 -259.429333 
L 137.948922 -263.507207 
L 137.601611 -267.585082 
L 137.208252 -271.662956 
L 136.761377 -275.740831 
L 136.251721 -279.818705 
L 135.668315 -283.896579 
L 134.998841 -287.974454 
L 134.23026 -292.052328 
L 133.349699 -296.130203 
L 132.345531 -300.208077 
L 131.208566 -304.285952 
L 129.933216 -308.363826 
L 128.518514 -312.4417 
L 126.968847 -316.519575 
L 125.29431 -320.597449 
L 123.510618 -324.675324 
L 121.638571 -328.753198 
L 119.703117 -332.831072 
L 117.73211 -336.908947 
L 115.754884 -340.986821 
L 113.800791 -345.064696 
L 111.897825 -349.14257 
L 110.071446 -353.220445 
L 108.343676 -357.298319 
L 106.732493 -361.376193 
L 105.251521 -365.454068 
L 103.909987 -369.531942 
L 102.712905 -373.609817 
L 101.661432 -377.687691 
L 100.753372 -381.765565 
L 99.983784 -385.84344 
L 99.345679 -389.921314 
L 98.830766 -393.999189 
L 98.430203 -398.077063 
L 98.135295 -402.154937 
L 97.93805 -406.232812 
L 97.831502 -410.310686 
L 97.809737 -414.388561 
L 97.86754 -418.466435 
L 97.9997 -422.54431 
L 98.200003 -426.622184 
L 98.460073 -430.700058 
L 98.768242 -434.777933 
L 99.10867 -438.855807 
L 99.46096 -442.933682 
L 99.800436 -447.011556 
L 100.099198 -451.08943 
L 100.327957 -455.167305 
L 100.458518 -459.245179 
L 100.466682 -463.323054 
L 100.335238 -467.400928 
L 100.056664 -471.478803 
L 99.635175 -475.556677 
L 99.087805 -479.634551 
L 98.44431 -483.712426 
L 97.74584 -487.7903 
L 97.042462 -491.868175 
L 96.389772 -495.946049 
L 95.844948 -500.023923 
L 95.462657 -504.101798 
L 95.29125 -508.179672 
L 95.369619 -512.257547 
L 95.725002 -516.335421 
L 96.371885 -520.413295 
L 97.31201 -524.49117 
L 98.535365 -528.569044 
L 100.021922 -532.646919 
L 101.743837 -536.724793 
L 103.667799 -540.802668 
L 105.757267 -544.880542 
L 107.974396 -548.958416 
L 110.28152 -553.036291 
L 112.642199 -557.114165 
L 115.021862 -561.19204 
L 117.388163 -565.269914 
L 119.711178 -569.347788 
L 121.963561 -573.425663 
L 124.120738 -577.503537 
L 126.161188 -581.581412 
L 128.066795 -585.659286 
L 129.823232 -589.737161 
L 131.420292 -593.815035 
L 132.852118 -597.892909 
L 134.117243 -601.970784 
L 135.218418 -606.048658 
L 136.162223 -610.126533 
L 136.958481 -614.204407 
L 137.619529 -618.282281 
L 138.159417 -622.360156 
L 138.593092 -626.43803 
L 138.935651 -630.515905 
L 140.926849 -630.515905 
L 140.926849 -630.515905 
L 141.269408 -626.43803 
L 141.703083 -622.360156 
L 142.242971 -618.282281 
L 142.904019 -614.204407 
L 143.700277 -610.126533 
L 144.644082 -606.048658 
L 145.745257 -601.970784 
L 147.010382 -597.892909 
L 148.442208 -593.815035 
L 150.039268 -589.737161 
L 151.795705 -585.659286 
L 153.701312 -581.581412 
L 155.741762 -577.503537 
L 157.898939 -573.425663 
L 160.151322 -569.347788 
L 162.474337 -565.269914 
L 164.840638 -561.19204 
L 167.220301 -557.114165 
L 169.58098 -553.036291 
L 171.888104 -548.958416 
L 174.105233 -544.880542 
L 176.194701 -540.802668 
L 178.118663 -536.724793 
L 179.840578 -532.646919 
L 181.327135 -528.569044 
L 182.55049 -524.49117 
L 183.490615 -520.413295 
L 184.137498 -516.335421 
L 184.492881 -512.257547 
L 184.57125 -508.179672 
L 184.399843 -504.101798 
L 184.017552 -500.023923 
L 183.472728 -495.946049 
L 182.820038 -491.868175 
L 182.11666 -487.7903 
L 181.41819 -483.712426 
L 180.774695 -479.634551 
L 180.227325 -475.556677 
L 179.805836 -471.478803 
L 179.527262 -467.400928 
L 179.395818 -463.323054 
L 179.403982 -459.245179 
L 179.534543 -455.167305 
L 179.763302 -451.08943 
L 180.062064 -447.011556 
L 180.40154 -442.933682 
L 180.75383 -438.855807 
L 181.094258 -434.777933 
L 181.402427 -430.700058 
L 181.662497 -426.622184 
L 181.8628 -422.54431 
L 181.99496 -418.466435 
L 182.052763 -414.388561 
L 182.030998 -410.310686 
L 181.92445 -406.232812 
L 181.727205 -402.154937 
L 181.432297 -398.077063 
L 181.031734 -393.999189 
L 180.516821 -389.921314 
L 179.878716 -385.84344 
L 179.109128 -381.765565 
L 178.201068 -377.687691 
L 177.149595 -373.609817 
L 175.952513 -369.531942 
L 174.610979 -365.454068 
L 173.130007 -361.376193 
L 171.518824 -357.298319 
L 169.791054 -353.220445 
L 167.964675 -349.14257 
L 166.061709 -345.064696 
L 164.107616 -340.986821 
L 162.13039 -336.908947 
L 160.159383 -332.831072 
L 158.223929 -328.753198 
L 156.351882 -324.675324 
L 154.56819 -320.597449 
L 152.893653 -316.519575 
L 151.343986 -312.4417 
L 149.929284 -308.363826 
L 148.653934 -304.285952 
L 147.516969 -300.208077 
L 146.512801 -296.130203 
L 145.63224 -292.052328 
L 144.863659 -287.974454 
L 144.194185 -283.896579 
L 143.610779 -279.818705 
L 143.101123 -275.740831 
L 142.654248 -271.662956 
L 142.260889 -267.585082 
L 141.913578 -263.507207 
L 141.606534 -259.429333 
L 141.3354 -255.351459 
L 141.096902 -251.273584 
L 140.888496 -247.19571 
L 140.708044 -243.117835 
L 140.553559 -239.039961 
L 140.423035 -234.962087 
L 140.314358 -230.884212 
L 140.225285 -226.806338 
z
" style="stroke: #3d3d3d; stroke-opacity: 0.5"/>
    </defs>
    <g clip-path="url(#p5b2f34e9cf)">
     <use xlink:href="#m14a232bdce" x="0" y="722.183991" style="fill: #3274a1; fill-opacity: 0.5; stroke: #3d3d3d; stroke-opacity: 0.5"/>
    </g>
   </g>
   <g id="PolyCollection_2">
    <defs>
     <path id="mebc753d905" d="M 252.113782 -185.783991 
L 250.948718 -185.783991 
L 250.74915 -189.37028 
L 250.494478 -192.95657 
L 250.174047 -196.542859 
L 249.77651 -200.129148 
L 249.290181 -203.715438 
L 248.703477 -207.301727 
L 248.005453 -210.888016 
L 247.186404 -214.474306 
L 246.238491 -218.060595 
L 245.156365 -221.646884 
L 243.937719 -225.233174 
L 242.583742 -228.819463 
L 241.099403 -232.405752 
L 239.493547 -235.992042 
L 237.778762 -239.578331 
L 235.97102 -243.16462 
L 234.089104 -246.75091 
L 232.153853 -250.337199 
L 230.187292 -253.923488 
L 228.211704 -257.509778 
L 226.248736 -261.096067 
L 224.318602 -264.682356 
L 222.439466 -268.268646 
L 220.627046 -271.854935 
L 218.894465 -275.441224 
L 217.252355 -279.027514 
L 215.709167 -282.613803 
L 214.271653 -286.200092 
L 212.945426 -289.786382 
L 211.735532 -293.372671 
L 210.646941 -296.95896 
L 209.684889 -300.54525 
L 208.855034 -304.131539 
L 208.163385 -307.717828 
L 207.616023 -311.304118 
L 207.218648 -314.890407 
L 206.976002 -318.476696 
L 206.89125 -322.062986 
L 206.965397 -325.649275 
L 207.196804 -329.235564 
L 207.580876 -332.821854 
L 208.109956 -336.408143 
L 208.773429 -339.994432 
L 209.558044 -343.580722 
L 210.448392 -347.167011 
L 211.427525 -350.7533 
L 212.47762 -354.339589 
L 213.580655 -357.925879 
L 214.719042 -361.512168 
L 215.876162 -365.098457 
L 217.036805 -368.684747 
L 218.18748 -372.271036 
L 219.316622 -375.857325 
L 220.4147 -379.443615 
L 221.474235 -383.029904 
L 222.489765 -386.616193 
L 223.457752 -390.202483 
L 224.376432 -393.788772 
L 225.245628 -397.375061 
L 226.066507 -400.961351 
L 226.841288 -404.54764 
L 227.572911 -408.133929 
L 228.264677 -411.720219 
L 228.919902 -415.306508 
L 229.541611 -418.892797 
L 230.132321 -422.479087 
L 230.693959 -426.065376 
L 231.227936 -429.651665 
L 231.735388 -433.237955 
L 232.217572 -436.824244 
L 232.67636 -440.410533 
L 233.114769 -443.996823 
L 233.537433 -447.583112 
L 233.95092 -451.169401 
L 234.363815 -454.755691 
L 234.786518 -458.34198 
L 235.230726 -461.928269 
L 235.708635 -465.514559 
L 236.231939 -469.100848 
L 236.810716 -472.687137 
L 237.452359 -476.273427 
L 238.160659 -479.859716 
L 238.935182 -483.446005 
L 239.77101 -487.032295 
L 240.658892 -490.618584 
L 241.585787 -494.204873 
L 242.535754 -497.791163 
L 243.491068 -501.377452 
L 244.433459 -504.963741 
L 245.345332 -508.550031 
L 246.210858 -512.13632 
L 247.016843 -515.722609 
L 247.753302 -519.308899 
L 248.413737 -522.895188 
L 248.995117 -526.481477 
L 249.497607 -530.067767 
L 249.924104 -533.654056 
L 250.279659 -537.240345 
L 250.570849 -540.826635 
L 252.491651 -540.826635 
L 252.491651 -540.826635 
L 252.782841 -537.240345 
L 253.138396 -533.654056 
L 253.564893 -530.067767 
L 254.067383 -526.481477 
L 254.648763 -522.895188 
L 255.309198 -519.308899 
L 256.045657 -515.722609 
L 256.851642 -512.13632 
L 257.717168 -508.550031 
L 258.629041 -504.963741 
L 259.571432 -501.377452 
L 260.526746 -497.791163 
L 261.476713 -494.204873 
L 262.403608 -490.618584 
L 263.29149 -487.032295 
L 264.127318 -483.446005 
L 264.901841 -479.859716 
L 265.610141 -476.273427 
L 266.251784 -472.687137 
L 266.830561 -469.100848 
L 267.353865 -465.514559 
L 267.831774 -461.928269 
L 268.275982 -458.34198 
L 268.698685 -454.755691 
L 269.11158 -451.169401 
L 269.525067 -447.583112 
L 269.947731 -443.996823 
L 270.38614 -440.410533 
L 270.844928 -436.824244 
L 271.327112 -433.237955 
L 271.834564 -429.651665 
L 272.368541 -426.065376 
L 272.930179 -422.479087 
L 273.520889 -418.892797 
L 274.142598 -415.306508 
L 274.797823 -411.720219 
L 275.489589 -408.133929 
L 276.221212 -404.54764 
L 276.995993 -400.961351 
L 277.816872 -397.375061 
L 278.686068 -393.788772 
L 279.604748 -390.202483 
L 280.572735 -386.616193 
L 281.588265 -383.029904 
L 282.6478 -379.443615 
L 283.745878 -375.857325 
L 284.87502 -372.271036 
L 286.025695 -368.684747 
L 287.186338 -365.098457 
L 288.343458 -361.512168 
L 289.481845 -357.925879 
L 290.58488 -354.339589 
L 291.634975 -350.7533 
L 292.614108 -347.167011 
L 293.504456 -343.580722 
L 294.289071 -339.994432 
L 294.952544 -336.408143 
L 295.481624 -332.821854 
L 295.865696 -329.235564 
L 296.097103 -325.649275 
L 296.17125 -322.062986 
L 296.086498 -318.476696 
L 295.843852 -314.890407 
L 295.446477 -311.304118 
L 294.899115 -307.717828 
L 294.207466 -304.131539 
L 293.377611 -300.54525 
L 292.415559 -296.95896 
L 291.326968 -293.372671 
L 290.117074 -289.786382 
L 288.790847 -286.200092 
L 287.353333 -282.613803 
L 285.810145 -279.027514 
L 284.168035 -275.441224 
L 282.435454 -271.854935 
L 280.623034 -268.268646 
L 278.743898 -264.682356 
L 276.813764 -261.096067 
L 274.850796 -257.509778 
L 272.875208 -253.923488 
L 270.908647 -250.337199 
L 268.973396 -246.75091 
L 267.09148 -243.16462 
L 265.283738 -239.578331 
L 263.568953 -235.992042 
L 261.963097 -232.405752 
L 260.478758 -228.819463 
L 259.124781 -225.233174 
L 257.906135 -221.646884 
L 256.824009 -218.060595 
L 255.876096 -214.474306 
L 255.057047 -210.888016 
L 254.359023 -207.301727 
L 253.772319 -203.715438 
L 253.28599 -200.129148 
L 252.888453 -196.542859 
L 252.568022 -192.95657 
L 252.31335 -189.37028 
L 252.113782 -185.783991 
z
" style="stroke: #3d3d3d; stroke-opacity: 0.5"/>
    </defs>
    <g clip-path="url(#p5b2f34e9cf)">
     <use xlink:href="#mebc753d905" x="0" y="722.183991" style="fill: #d684bd; fill-opacity: 0.5; stroke: #3d3d3d; stroke-opacity: 0.5"/>
    </g>
   </g>
   <g id="PolyCollection_3">
    <defs>
     <path id="m2d0b1aa869" d="M 363.374797 -319.518076 
L 362.887703 -319.518076 
L 362.800752 -323.258136 
L 362.692378 -326.998196 
L 362.560608 -330.738256 
L 362.40416 -334.478315 
L 362.222516 -338.218375 
L 362.015842 -341.958435 
L 361.784736 -345.698495 
L 361.529799 -349.438554 
L 361.251084 -353.178614 
L 360.947519 -356.918674 
L 360.61642 -360.658734 
L 360.253221 -364.398793 
L 359.851542 -368.138853 
L 359.403631 -371.878913 
L 358.901166 -375.618973 
L 358.336316 -379.359032 
L 357.702863 -383.099092 
L 356.997182 -386.839152 
L 356.218872 -390.579212 
L 355.370855 -394.319271 
L 354.458916 -398.059331 
L 353.490697 -401.799391 
L 352.47435 -405.539451 
L 351.41706 -409.27951 
L 350.323747 -413.01957 
L 349.196198 -416.75963 
L 348.032814 -420.49969 
L 346.82908 -424.239749 
L 345.578688 -427.979809 
L 344.275193 -431.719869 
L 342.913925 -435.459929 
L 341.493891 -439.199988 
L 340.019334 -442.940048 
L 338.500706 -446.680108 
L 336.954828 -450.420167 
L 335.40416 -454.160227 
L 333.875175 -457.900287 
L 332.395991 -461.640347 
L 330.993501 -465.380406 
L 329.690349 -469.120466 
L 328.502154 -472.860526 
L 327.435399 -476.600586 
L 326.486362 -480.340645 
L 325.64135 -484.080705 
L 324.87838 -487.820765 
L 324.170219 -491.560825 
L 323.488537 -495.300884 
L 322.808703 -499.040944 
L 322.114632 -502.781004 
L 321.402979 -506.521064 
L 320.686035 -510.261123 
L 319.992751 -514.001183 
L 319.367552 -517.741243 
L 318.866896 -521.481303 
L 318.553844 -525.221362 
L 318.49125 -528.961422 
L 318.734402 -532.701482 
L 319.324123 -536.441542 
L 320.281284 -540.181601 
L 321.603554 -543.921661 
L 323.264859 -547.661721 
L 325.217639 -551.401781 
L 327.397584 -555.14184 
L 329.730106 -558.8819 
L 332.137631 -562.62196 
L 334.546659 -566.36202 
L 336.893665 -570.102079 
L 339.129176 -573.842139 
L 341.219682 -577.582199 
L 343.147429 -581.322259 
L 344.908453 -585.062318 
L 346.509426 -588.802378 
L 347.963994 -592.542438 
L 349.289209 -596.282497 
L 350.502546 -600.022557 
L 351.619787 -603.762617 
L 352.65385 -607.502677 
L 353.614475 -611.242736 
L 354.508549 -614.982796 
L 355.34082 -618.722856 
L 356.114732 -622.462916 
L 356.833182 -626.202975 
L 357.499048 -629.943035 
L 358.115443 -633.683095 
L 358.685708 -637.423155 
L 359.213202 -641.163214 
L 359.701012 -644.903274 
L 360.15166 -648.643334 
L 360.566919 -652.383394 
L 360.947771 -656.123453 
L 361.294524 -659.863513 
L 361.607071 -663.603573 
L 361.885207 -667.343633 
L 362.128969 -671.083692 
L 362.338909 -674.823752 
L 362.516267 -678.563812 
L 362.663018 -682.303872 
L 362.781807 -686.043931 
L 362.875787 -689.783991 
L 363.386713 -689.783991 
L 363.386713 -689.783991 
L 363.480693 -686.043931 
L 363.599482 -682.303872 
L 363.746233 -678.563812 
L 363.923591 -674.823752 
L 364.133531 -671.083692 
L 364.377293 -667.343633 
L 364.655429 -663.603573 
L 364.967976 -659.863513 
L 365.314729 -656.123453 
L 365.695581 -652.383394 
L 366.11084 -648.643334 
L 366.561488 -644.903274 
L 367.049298 -641.163214 
L 367.576792 -637.423155 
L 368.147057 -633.683095 
L 368.763452 -629.943035 
L 369.429318 -626.202975 
L 370.147768 -622.462916 
L 370.92168 -618.722856 
L 371.753951 -614.982796 
L 372.648025 -611.242736 
L 373.60865 -607.502677 
L 374.642713 -603.762617 
L 375.759954 -600.022557 
L 376.973291 -596.282497 
L 378.298506 -592.542438 
L 379.753074 -588.802378 
L 381.354047 -585.062318 
L 383.115071 -581.322259 
L 385.042818 -577.582199 
L 387.133324 -573.842139 
L 389.368835 -570.102079 
L 391.715841 -566.36202 
L 394.124869 -562.62196 
L 396.532394 -558.8819 
L 398.864916 -555.14184 
L 401.044861 -551.401781 
L 402.997641 -547.661721 
L 404.658946 -543.921661 
L 405.981216 -540.181601 
L 406.938377 -536.441542 
L 407.528098 -532.701482 
L 407.77125 -528.961422 
L 407.708656 -525.221362 
L 407.395604 -521.481303 
L 406.894948 -517.741243 
L 406.269749 -514.001183 
L 405.576465 -510.261123 
L 404.859521 -506.521064 
L 404.147868 -502.781004 
L 403.453797 -499.040944 
L 402.773963 -495.300884 
L 402.092281 -491.560825 
L 401.38412 -487.820765 
L 400.62115 -484.080705 
L 399.776138 -480.340645 
L 398.827101 -476.600586 
L 397.760346 -472.860526 
L 396.572151 -469.120466 
L 395.268999 -465.380406 
L 393.866509 -461.640347 
L 392.387325 -457.900287 
L 390.85834 -454.160227 
L 389.307672 -450.420167 
L 387.761794 -446.680108 
L 386.243166 -442.940048 
L 384.768609 -439.199988 
L 383.348575 -435.459929 
L 381.987307 -431.719869 
L 380.683812 -427.979809 
L 379.43342 -424.239749 
L 378.229686 -420.49969 
L 377.066302 -416.75963 
L 375.938753 -413.01957 
L 374.84544 -409.27951 
L 373.78815 -405.539451 
L 372.771803 -401.799391 
L 371.803584 -398.059331 
L 370.891645 -394.319271 
L 370.043628 -390.579212 
L 369.265318 -386.839152 
L 368.559637 -383.099092 
L 367.926184 -379.359032 
L 367.361334 -375.618973 
L 366.858869 -371.878913 
L 366.410958 -368.138853 
L 366.009279 -364.398793 
L 365.64608 -360.658734 
L 365.314981 -356.918674 
L 365.011416 -353.178614 
L 364.732701 -349.438554 
L 364.477764 -345.698495 
L 364.246658 -341.958435 
L 364.039984 -338.218375 
L 363.85834 -334.478315 
L 363.701892 -330.738256 
L 363.570122 -326.998196 
L 363.461748 -323.258136 
L 363.374797 -319.518076 
z
" style="stroke: #3d3d3d; stroke-opacity: 0.5"/>
    </defs>
    <g clip-path="url(#p5b2f34e9cf)">
     <use xlink:href="#m2d0b1aa869" x="0" y="722.183991" style="fill: #c03d3e; fill-opacity: 0.5; stroke: #3d3d3d; stroke-opacity: 0.5"/>
    </g>
   </g>
   <g id="PolyCollection_4">
    <defs>
     <path id="m7b0398560a" d="M 475.030888 -216.842766 
L 474.431612 -216.842766 
L 474.332807 -221.025644 
L 474.209648 -225.208522 
L 474.058542 -229.391401 
L 473.875822 -233.574279 
L 473.657728 -237.757157 
L 473.400333 -241.940035 
L 473.099407 -246.122914 
L 472.750239 -250.305792 
L 472.347452 -254.48867 
L 471.884858 -258.671548 
L 471.355417 -262.854427 
L 470.751371 -267.037305 
L 470.064578 -271.220183 
L 469.287073 -275.403061 
L 468.411835 -279.58594 
L 467.43366 -283.768818 
L 466.350048 -287.951696 
L 465.161934 -292.134574 
L 463.874129 -296.317453 
L 462.495344 -300.500331 
L 461.037727 -304.683209 
L 459.515939 -308.866087 
L 457.945868 -313.048966 
L 456.343163 -317.231844 
L 454.721832 -321.414722 
L 453.093135 -325.5976 
L 451.465019 -329.780479 
L 449.842192 -333.963357 
L 448.226892 -338.146235 
L 446.620231 -342.329113 
L 445.023906 -346.511992 
L 443.441984 -350.69487 
L 441.882419 -354.877748 
L 440.358008 -359.060626 
L 438.886538 -363.243505 
L 437.490039 -367.426383 
L 436.193147 -371.609261 
L 435.020767 -375.792139 
L 433.995329 -379.975018 
L 433.133996 -384.157896 
L 432.446232 -388.340774 
L 431.932079 -392.523652 
L 431.581419 -396.706531 
L 431.374384 -400.889409 
L 431.282891 -405.072287 
L 431.273178 -409.255165 
L 431.309039 -413.438044 
L 431.355386 -417.620922 
L 431.381715 -421.8038 
L 431.365069 -425.986679 
L 431.292137 -430.169557 
L 431.160276 -434.352435 
L 430.977371 -438.535313 
L 430.760593 -442.718192 
L 430.534271 -446.90107 
L 430.327205 -451.083948 
L 430.169778 -455.266826 
L 430.09125 -459.449705 
L 430.117535 -463.632583 
L 430.269679 -467.815461 
L 430.563114 -471.998339 
L 431.007645 -476.181218 
L 431.608003 -480.364096 
L 432.364748 -484.546974 
L 433.275262 -488.729852 
L 434.334617 -492.912731 
L 435.536159 -497.095609 
L 436.871744 -501.278487 
L 438.33166 -505.461365 
L 439.904344 -509.644244 
L 441.576043 -513.827122 
L 443.33061 -518.01 
L 445.149539 -522.192878 
L 447.012352 -526.375757 
L 448.897314 -530.558635 
L 450.782416 -534.741513 
L 452.646495 -538.924391 
L 454.470314 -543.10727 
L 456.237459 -547.290148 
L 457.934913 -551.473026 
L 459.553248 -555.655904 
L 461.086422 -559.838783 
L 462.531262 -564.021661 
L 463.886738 -568.204539 
L 465.153166 -572.387417 
L 466.331481 -576.570296 
L 467.422689 -580.753174 
L 468.427556 -584.936052 
L 469.346547 -589.11893 
L 470.179983 -593.301809 
L 470.928348 -597.484687 
L 471.592648 -601.667565 
L 472.174746 -605.850443 
L 472.677605 -610.033322 
L 473.105389 -614.2162 
L 473.463415 -618.399078 
L 473.757977 -622.581956 
L 473.99606 -626.764835 
L 474.18501 -630.947713 
L 475.27749 -630.947713 
L 475.27749 -630.947713 
L 475.46644 -626.764835 
L 475.704523 -622.581956 
L 475.999085 -618.399078 
L 476.357111 -614.2162 
L 476.784895 -610.033322 
L 477.287754 -605.850443 
L 477.869852 -601.667565 
L 478.534152 -597.484687 
L 479.282517 -593.301809 
L 480.115953 -589.11893 
L 481.034944 -584.936052 
L 482.039811 -580.753174 
L 483.131019 -576.570296 
L 484.309334 -572.387417 
L 485.575762 -568.204539 
L 486.931238 -564.021661 
L 488.376078 -559.838783 
L 489.909252 -555.655904 
L 491.527587 -551.473026 
L 493.225041 -547.290148 
L 494.992186 -543.10727 
L 496.816005 -538.924391 
L 498.680084 -534.741513 
L 500.565186 -530.558635 
L 502.450148 -526.375757 
L 504.312961 -522.192878 
L 506.13189 -518.01 
L 507.886457 -513.827122 
L 509.558156 -509.644244 
L 511.13084 -505.461365 
L 512.590756 -501.278487 
L 513.926341 -497.095609 
L 515.127883 -492.912731 
L 516.187238 -488.729852 
L 517.097752 -484.546974 
L 517.854497 -480.364096 
L 518.454855 -476.181218 
L 518.899386 -471.998339 
L 519.192821 -467.815461 
L 519.344965 -463.632583 
L 519.37125 -459.449705 
L 519.292722 -455.266826 
L 519.135295 -451.083948 
L 518.928229 -446.90107 
L 518.701907 -442.718192 
L 518.485129 -438.535313 
L 518.302224 -434.352435 
L 518.170363 -430.169557 
L 518.097431 -425.986679 
L 518.080785 -421.8038 
L 518.107114 -417.620922 
L 518.153461 -413.438044 
L 518.189322 -409.255165 
L 518.179609 -405.072287 
L 518.088116 -400.889409 
L 517.881081 -396.706531 
L 517.530421 -392.523652 
L 517.016268 -388.340774 
L 516.328504 -384.157896 
L 515.467171 -379.975018 
L 514.441733 -375.792139 
L 513.269353 -371.609261 
L 511.972461 -367.426383 
L 510.575962 -363.243505 
L 509.104492 -359.060626 
L 507.580081 -354.877748 
L 506.020516 -350.69487 
L 504.438594 -346.511992 
L 502.842269 -342.329113 
L 501.235608 -338.146235 
L 499.620308 -333.963357 
L 497.997481 -329.780479 
L 496.369365 -325.5976 
L 494.740668 -321.414722 
L 493.119337 -317.231844 
L 491.516632 -313.048966 
L 489.946561 -308.866087 
L 488.424773 -304.683209 
L 486.967156 -300.500331 
L 485.588371 -296.317453 
L 484.300566 -292.134574 
L 483.112452 -287.951696 
L 482.02884 -283.768818 
L 481.050665 -279.58594 
L 480.175427 -275.403061 
L 479.397922 -271.220183 
L 478.711129 -267.037305 
L 478.107083 -262.854427 
L 477.577642 -258.671548 
L 477.115048 -254.48867 
L 476.712261 -250.305792 
L 476.363093 -246.122914 
L 476.062167 -241.940035 
L 475.804772 -237.757157 
L 475.586678 -233.574279 
L 475.403958 -229.391401 
L 475.252852 -225.208522 
L 475.129693 -221.025644 
L 475.030888 -216.842766 
z
" style="stroke: #3d3d3d; stroke-opacity: 0.5"/>
    </defs>
    <g clip-path="url(#p5b2f34e9cf)">
     <use xlink:href="#m7b0398560a" x="0" y="722.183991" style="fill: #9372b2; fill-opacity: 0.5; stroke: #3d3d3d; stroke-opacity: 0.5"/>
    </g>
   </g>
   <g id="PolyCollection_5">
    <defs>
     <path id="m0ff69ee9d8" d="M 586.694026 -210.564196 
L 585.968474 -210.564196 
L 585.832314 -215.183033 
L 585.654539 -219.801869 
L 585.425506 -224.420706 
L 585.134134 -229.039543 
L 584.767879 -233.658379 
L 584.312784 -238.277216 
L 583.753661 -242.896053 
L 583.074441 -247.514889 
L 582.258768 -252.133726 
L 581.290859 -256.752562 
L 580.156646 -261.371399 
L 578.84517 -265.990236 
L 577.350123 -270.609072 
L 575.671379 -275.227909 
L 573.816316 -279.846746 
L 571.800688 -284.465582 
L 569.648841 -289.084419 
L 567.393094 -293.703256 
L 565.072269 -298.322092 
L 562.729405 -302.940929 
L 560.40891 -307.559765 
L 558.153459 -312.178602 
L 556.001037 -316.797439 
L 553.982535 -321.416275 
L 552.120212 -326.035112 
L 550.427203 -330.653949 
L 548.908106 -335.272785 
L 547.560464 -339.891622 
L 546.376854 -344.510459 
L 545.347191 -349.129295 
L 544.46086 -353.748132 
L 543.708332 -358.366968 
L 543.082091 -362.985805 
L 542.576774 -367.604642 
L 542.18864 -372.223478 
L 541.914541 -376.842315 
L 541.750656 -381.461152 
L 541.69125 -386.079988 
L 541.727699 -390.698825 
L 541.847929 -395.317662 
L 542.036378 -399.936498 
L 542.274494 -404.555335 
L 542.541721 -409.174171 
L 542.816895 -413.793008 
L 543.079903 -418.411845 
L 543.313471 -423.030681 
L 543.504898 -427.649518 
L 543.647559 -432.268355 
L 543.742006 -436.887191 
L 543.796532 -441.506028 
L 543.82709 -446.124865 
L 543.856549 -450.743701 
L 543.913318 -455.362538 
L 544.029477 -459.981374 
L 544.238555 -464.600211 
L 544.57319 -469.219048 
L 545.062846 -473.837884 
L 545.731783 -478.456721 
L 546.597396 -483.075558 
L 547.669036 -487.694394 
L 548.947324 -492.313231 
L 550.423995 -496.932068 
L 552.082244 -501.550904 
L 553.897561 -506.169741 
L 555.839007 -510.788577 
L 557.870865 -515.407414 
L 559.954586 -520.026251 
L 562.050892 -524.645087 
L 564.12189 -529.263924 
L 566.133019 -533.882761 
L 568.054666 -538.501597 
L 569.863328 -543.120434 
L 571.542219 -547.739271 
L 573.081345 -552.358107 
L 574.477072 -556.976944 
L 575.731316 -561.59578 
L 576.85049 -566.214617 
L 577.844352 -570.833454 
L 578.724873 -575.45229 
L 579.505209 -580.071127 
L 580.198832 -584.689964 
L 580.818817 -589.3088 
L 581.37729 -593.927637 
L 581.885001 -598.546473 
L 582.351027 -603.16531 
L 582.782587 -607.784147 
L 583.184983 -612.402983 
L 583.56166 -617.02182 
L 583.9144 -621.640657 
L 584.243622 -626.259493 
L 584.548772 -630.87833 
L 584.828748 -635.497167 
L 585.08233 -640.116003 
L 585.308544 -644.73484 
L 585.506946 -649.353676 
L 585.677786 -653.972513 
L 585.822063 -658.59135 
L 585.941468 -663.210186 
L 586.038257 -667.829023 
L 586.624243 -667.829023 
L 586.624243 -667.829023 
L 586.721032 -663.210186 
L 586.840437 -658.59135 
L 586.984714 -653.972513 
L 587.155554 -649.353676 
L 587.353956 -644.73484 
L 587.58017 -640.116003 
L 587.833752 -635.497167 
L 588.113728 -630.87833 
L 588.418878 -626.259493 
L 588.7481 -621.640657 
L 589.10084 -617.02182 
L 589.477517 -612.402983 
L 589.879913 -607.784147 
L 590.311473 -603.16531 
L 590.777499 -598.546473 
L 591.28521 -593.927637 
L 591.843683 -589.3088 
L 592.463668 -584.689964 
L 593.157291 -580.071127 
L 593.937627 -575.45229 
L 594.818148 -570.833454 
L 595.81201 -566.214617 
L 596.931184 -561.59578 
L 598.185428 -556.976944 
L 599.581155 -552.358107 
L 601.120281 -547.739271 
L 602.799172 -543.120434 
L 604.607834 -538.501597 
L 606.529481 -533.882761 
L 608.54061 -529.263924 
L 610.611608 -524.645087 
L 612.707914 -520.026251 
L 614.791635 -515.407414 
L 616.823493 -510.788577 
L 618.764939 -506.169741 
L 620.580256 -501.550904 
L 622.238505 -496.932068 
L 623.715176 -492.313231 
L 624.993464 -487.694394 
L 626.065104 -483.075558 
L 626.930717 -478.456721 
L 627.599654 -473.837884 
L 628.08931 -469.219048 
L 628.423945 -464.600211 
L 628.633023 -459.981374 
L 628.749182 -455.362538 
L 628.805951 -450.743701 
L 628.83541 -446.124865 
L 628.865968 -441.506028 
L 628.920494 -436.887191 
L 629.014941 -432.268355 
L 629.157602 -427.649518 
L 629.349029 -423.030681 
L 629.582597 -418.411845 
L 629.845605 -413.793008 
L 630.120779 -409.174171 
L 630.388006 -404.555335 
L 630.626122 -399.936498 
L 630.814571 -395.317662 
L 630.934801 -390.698825 
L 630.97125 -386.079988 
L 630.911844 -381.461152 
L 630.747959 -376.842315 
L 630.47386 -372.223478 
L 630.085726 -367.604642 
L 629.580409 -362.985805 
L 628.954168 -358.366968 
L 628.20164 -353.748132 
L 627.315309 -349.129295 
L 626.285646 -344.510459 
L 625.102036 -339.891622 
L 623.754394 -335.272785 
L 622.235297 -330.653949 
L 620.542288 -326.035112 
L 618.679965 -321.416275 
L 616.661463 -316.797439 
L 614.509041 -312.178602 
L 612.25359 -307.559765 
L 609.933095 -302.940929 
L 607.590231 -298.322092 
L 605.269406 -293.703256 
L 603.013659 -289.084419 
L 600.861812 -284.465582 
L 598.846184 -279.846746 
L 596.991121 -275.227909 
L 595.312377 -270.609072 
L 593.81733 -265.990236 
L 592.505854 -261.371399 
L 591.371641 -256.752562 
L 590.403732 -252.133726 
L 589.588059 -247.514889 
L 588.908839 -242.896053 
L 588.349716 -238.277216 
L 587.894621 -233.658379 
L 587.528366 -229.039543 
L 587.236994 -224.420706 
L 587.007961 -219.801869 
L 586.830186 -215.183033 
L 586.694026 -210.564196 
z
" style="stroke: #3d3d3d; stroke-opacity: 0.5"/>
    </defs>
    <g clip-path="url(#p5b2f34e9cf)">
     <use xlink:href="#m0ff69ee9d8" x="0" y="722.183991" style="fill: #845b53; fill-opacity: 0.5; stroke: #3d3d3d; stroke-opacity: 0.5"/>
    </g>
   </g>
   <g id="PolyCollection_6">
    <defs>
     <path id="maa8ab11d25" d="M 698.511956 -210.336492 
L 697.350544 -210.336492 
L 697.152496 -213.734823 
L 696.900035 -217.133154 
L 696.582578 -220.531484 
L 696.188721 -223.929815 
L 695.706489 -227.328146 
L 695.123659 -230.726476 
L 694.428158 -234.124807 
L 693.608511 -237.523138 
L 692.654343 -240.921468 
L 691.556899 -244.319799 
L 690.309584 -247.71813 
L 688.908488 -251.11646 
L 687.352894 -254.514791 
L 685.645723 -257.913122 
L 683.793927 -261.311452 
L 681.808784 -264.709783 
L 679.706079 -268.108114 
L 677.506136 -271.506444 
L 675.233688 -274.904775 
L 672.917534 -278.303106 
L 670.58998 -281.701436 
L 668.286033 -285.099767 
L 666.042355 -288.498098 
L 663.895997 -291.896428 
L 661.882946 -295.294759 
L 660.036547 -298.69309 
L 658.385909 -302.09142 
L 656.954367 -305.489751 
L 655.758164 -308.888082 
L 654.805434 -312.286412 
L 654.095639 -315.684743 
L 653.619509 -319.083074 
L 653.359573 -322.481405 
L 653.29125 -325.879735 
L 653.38447 -329.278066 
L 653.605693 -332.676397 
L 653.920182 -336.074727 
L 654.294319 -339.473058 
L 654.697772 -342.871389 
L 655.105294 -346.269719 
L 655.497999 -349.66805 
L 655.864011 -353.066381 
L 656.198427 -356.464711 
L 656.50266 -359.863042 
L 656.783241 -363.261373 
L 657.050261 -366.659703 
L 657.315649 -370.058034 
L 657.591471 -373.456365 
L 657.888462 -376.854695 
L 658.214906 -380.253026 
L 658.575976 -383.651357 
L 658.973534 -387.049687 
L 659.406387 -390.448018 
L 659.870885 -393.846349 
L 660.361776 -397.244679 
L 660.873169 -400.64301 
L 661.399481 -404.041341 
L 661.936268 -407.439671 
L 662.480838 -410.838002 
L 663.032615 -414.236333 
L 663.593225 -417.634663 
L 664.166326 -421.032994 
L 664.757216 -424.431325 
L 665.372296 -427.829655 
L 666.018443 -431.227986 
L 666.702381 -434.626317 
L 667.430106 -438.024647 
L 668.206438 -441.422978 
L 669.034724 -444.821309 
L 669.916706 -448.219639 
L 670.852563 -451.61797 
L 671.841062 -455.016301 
L 672.879814 -458.414631 
L 673.965542 -461.812962 
L 675.094325 -465.211293 
L 676.261772 -468.609623 
L 677.463094 -472.007954 
L 678.693064 -475.406285 
L 679.945898 -478.804616 
L 681.21508 -482.202946 
L 682.493183 -485.601277 
L 683.771753 -488.999608 
L 685.041287 -492.397938 
L 686.291352 -495.796269 
L 687.510845 -499.1946 
L 688.688397 -502.59293 
L 689.812866 -505.991261 
L 690.87389 -509.389592 
L 691.862428 -512.787922 
L 692.771231 -516.186253 
L 693.595206 -519.584584 
L 694.331616 -522.982914 
L 694.980124 -526.381245 
L 695.542673 -529.779576 
L 696.023222 -533.177906 
L 696.427384 -536.576237 
L 696.761994 -539.974568 
L 697.034659 -543.372898 
L 697.253325 -546.771229 
L 698.609175 -546.771229 
L 698.609175 -546.771229 
L 698.827841 -543.372898 
L 699.100506 -539.974568 
L 699.435116 -536.576237 
L 699.839278 -533.177906 
L 700.319827 -529.779576 
L 700.882376 -526.381245 
L 701.530884 -522.982914 
L 702.267294 -519.584584 
L 703.091269 -516.186253 
L 704.000072 -512.787922 
L 704.98861 -509.389592 
L 706.049634 -505.991261 
L 707.174103 -502.59293 
L 708.351655 -499.1946 
L 709.571148 -495.796269 
L 710.821213 -492.397938 
L 712.090747 -488.999608 
L 713.369317 -485.601277 
L 714.64742 -482.202946 
L 715.916602 -478.804616 
L 717.169436 -475.406285 
L 718.399406 -472.007954 
L 719.600728 -468.609623 
L 720.768175 -465.211293 
L 721.896958 -461.812962 
L 722.982686 -458.414631 
L 724.021438 -455.016301 
L 725.009937 -451.61797 
L 725.945794 -448.219639 
L 726.827776 -444.821309 
L 727.656062 -441.422978 
L 728.432394 -438.024647 
L 729.160119 -434.626317 
L 729.844057 -431.227986 
L 730.490204 -427.829655 
L 731.105284 -424.431325 
L 731.696174 -421.032994 
L 732.269275 -417.634663 
L 732.829885 -414.236333 
L 733.381662 -410.838002 
L 733.926232 -407.439671 
L 734.463019 -404.041341 
L 734.989331 -400.64301 
L 735.500724 -397.244679 
L 735.991615 -393.846349 
L 736.456113 -390.448018 
L 736.888966 -387.049687 
L 737.286524 -383.651357 
L 737.647594 -380.253026 
L 737.974038 -376.854695 
L 738.271029 -373.456365 
L 738.546851 -370.058034 
L 738.812239 -366.659703 
L 739.079259 -363.261373 
L 739.35984 -359.863042 
L 739.664073 -356.464711 
L 739.998489 -353.066381 
L 740.364501 -349.66805 
L 740.757206 -346.269719 
L 741.164728 -342.871389 
L 741.568181 -339.473058 
L 741.942318 -336.074727 
L 742.256807 -332.676397 
L 742.47803 -329.278066 
L 742.57125 -325.879735 
L 742.502927 -322.481405 
L 742.242991 -319.083074 
L 741.766861 -315.684743 
L 741.057066 -312.286412 
L 740.104336 -308.888082 
L 738.908133 -305.489751 
L 737.476591 -302.09142 
L 735.825953 -298.69309 
L 733.979554 -295.294759 
L 731.966503 -291.896428 
L 729.820145 -288.498098 
L 727.576467 -285.099767 
L 725.27252 -281.701436 
L 722.944966 -278.303106 
L 720.628812 -274.904775 
L 718.356364 -271.506444 
L 716.156421 -268.108114 
L 714.053716 -264.709783 
L 712.068573 -261.311452 
L 710.216777 -257.913122 
L 708.509606 -254.514791 
L 706.954012 -251.11646 
L 705.552916 -247.71813 
L 704.305601 -244.319799 
L 703.208157 -240.921468 
L 702.253989 -237.523138 
L 701.434342 -234.124807 
L 700.738841 -230.726476 
L 700.156011 -227.328146 
L 699.673779 -223.929815 
L 699.279922 -220.531484 
L 698.962465 -217.133154 
L 698.710004 -213.734823 
L 698.511956 -210.336492 
z
" style="stroke: #3d3d3d; stroke-opacity: 0.5"/>
    </defs>
    <g clip-path="url(#p5b2f34e9cf)">
     <use xlink:href="#maa8ab11d25" x="0" y="722.183991" style="fill: #e1812c; fill-opacity: 0.5; stroke: #3d3d3d; stroke-opacity: 0.5"/>
    </g>
   </g>
   <g id="PolyCollection_7">
    <defs>
     <path id="md0c536324e" d="M 810.379989 -210.595046 
L 808.682511 -210.595046 
L 808.39386 -214.595006 
L 808.026775 -218.594966 
L 807.566728 -222.594926 
L 806.998553 -226.594885 
L 806.307028 -230.594845 
L 805.477598 -234.594805 
L 804.49722 -238.594765 
L 803.355279 -242.594724 
L 802.044525 -246.594684 
L 800.561956 -250.594644 
L 798.909567 -254.594604 
L 797.094899 -258.594564 
L 795.131308 -262.594523 
L 793.037903 -266.594483 
L 790.839145 -270.594443 
L 788.564093 -274.594403 
L 786.245345 -278.594362 
L 783.917754 -282.594322 
L 781.616995 -286.594282 
L 779.378109 -290.594242 
L 777.234114 -294.594201 
L 775.214795 -298.594161 
L 773.345732 -302.594121 
L 771.647604 -306.594081 
L 770.135787 -310.594041 
L 768.820203 -314.594 
L 767.705394 -318.59396 
L 766.790762 -322.59392 
L 766.070924 -326.59388 
L 765.536153 -330.593839 
L 765.172897 -334.593799 
L 764.964373 -338.593759 
L 764.89125 -342.593719 
L 764.93245 -346.593678 
L 765.066056 -350.593638 
L 765.270314 -354.593598 
L 765.524678 -358.593558 
L 765.810822 -362.593518 
L 766.113528 -366.593477 
L 766.42134 -370.593437 
L 766.726915 -374.593397 
L 767.027006 -378.593357 
L 767.322067 -382.593316 
L 767.615519 -386.593276 
L 767.91276 -390.593236 
L 768.220038 -394.593196 
L 768.543319 -398.593156 
L 768.887297 -402.593115 
L 769.254651 -406.593075 
L 769.64565 -410.593035 
L 770.058122 -414.592995 
L 770.487802 -418.592954 
L 770.928983 -422.592914 
L 771.375404 -426.592874 
L 771.821233 -430.592834 
L 772.26205 -434.592793 
L 772.695691 -438.592753 
L 773.122864 -442.592713 
L 773.547461 -446.592673 
L 773.97652 -450.592633 
L 774.419859 -454.592592 
L 774.889392 -458.592552 
L 775.398222 -462.592512 
L 775.95959 -466.592472 
L 776.585798 -470.592431 
L 777.287207 -474.592391 
L 778.071421 -478.592351 
L 778.942725 -482.592311 
L 779.901825 -486.592271 
L 780.945902 -490.59223 
L 782.068945 -494.59219 
L 783.262321 -498.59215 
L 784.515481 -502.59211 
L 785.816722 -506.592069 
L 787.153916 -510.592029 
L 788.515112 -514.591989 
L 789.888984 -518.591949 
L 791.265077 -522.591908 
L 792.633873 -526.591868 
L 793.986705 -530.591828 
L 795.315579 -534.591788 
L 796.612953 -538.591748 
L 797.87155 -542.591707 
L 799.084241 -546.591667 
L 800.244038 -550.591627 
L 801.344192 -554.591587 
L 802.378399 -558.591546 
L 803.341072 -562.591506 
L 804.227635 -566.591466 
L 805.034804 -570.591426 
L 805.760807 -574.591386 
L 806.405507 -578.591345 
L 806.970428 -582.591305 
L 807.458657 -586.591265 
L 807.874658 -590.591225 
L 808.224006 -594.591184 
L 808.513073 -598.591144 
L 808.748697 -602.591104 
L 808.937863 -606.591064 
L 810.124637 -606.591064 
L 810.124637 -606.591064 
L 810.313803 -602.591104 
L 810.549427 -598.591144 
L 810.838494 -594.591184 
L 811.187842 -590.591225 
L 811.603843 -586.591265 
L 812.092072 -582.591305 
L 812.656993 -578.591345 
L 813.301693 -574.591386 
L 814.027696 -570.591426 
L 814.834865 -566.591466 
L 815.721428 -562.591506 
L 816.684101 -558.591546 
L 817.718308 -554.591587 
L 818.818462 -550.591627 
L 819.978259 -546.591667 
L 821.19095 -542.591707 
L 822.449547 -538.591748 
L 823.746921 -534.591788 
L 825.075795 -530.591828 
L 826.428627 -526.591868 
L 827.797423 -522.591908 
L 829.173516 -518.591949 
L 830.547388 -514.591989 
L 831.908584 -510.592029 
L 833.245778 -506.592069 
L 834.547019 -502.59211 
L 835.800179 -498.59215 
L 836.993555 -494.59219 
L 838.116598 -490.59223 
L 839.160675 -486.592271 
L 840.119775 -482.592311 
L 840.991079 -478.592351 
L 841.775293 -474.592391 
L 842.476702 -470.592431 
L 843.10291 -466.592472 
L 843.664278 -462.592512 
L 844.173108 -458.592552 
L 844.642641 -454.592592 
L 845.08598 -450.592633 
L 845.515039 -446.592673 
L 845.939636 -442.592713 
L 846.366809 -438.592753 
L 846.80045 -434.592793 
L 847.241267 -430.592834 
L 847.687096 -426.592874 
L 848.133517 -422.592914 
L 848.574698 -418.592954 
L 849.004378 -414.592995 
L 849.41685 -410.593035 
L 849.807849 -406.593075 
L 850.175203 -402.593115 
L 850.519181 -398.593156 
L 850.842462 -394.593196 
L 851.14974 -390.593236 
L 851.446981 -386.593276 
L 851.740433 -382.593316 
L 852.035494 -378.593357 
L 852.335585 -374.593397 
L 852.64116 -370.593437 
L 852.948972 -366.593477 
L 853.251678 -362.593518 
L 853.537822 -358.593558 
L 853.792186 -354.593598 
L 853.996444 -350.593638 
L 854.13005 -346.593678 
L 854.17125 -342.593719 
L 854.098127 -338.593759 
L 853.889603 -334.593799 
L 853.526347 -330.593839 
L 852.991576 -326.59388 
L 852.271738 -322.59392 
L 851.357106 -318.59396 
L 850.242297 -314.594 
L 848.926713 -310.594041 
L 847.414896 -306.594081 
L 845.716768 -302.594121 
L 843.847705 -298.594161 
L 841.828386 -294.594201 
L 839.684391 -290.594242 
L 837.445505 -286.594282 
L 835.144746 -282.594322 
L 832.817155 -278.594362 
L 830.498407 -274.594403 
L 828.223355 -270.594443 
L 826.024597 -266.594483 
L 823.931192 -262.594523 
L 821.967601 -258.594564 
L 820.152933 -254.594604 
L 818.500544 -250.594644 
L 817.017975 -246.594684 
L 815.707221 -242.594724 
L 814.56528 -238.594765 
L 813.584902 -234.594805 
L 812.755472 -230.594845 
L 812.063947 -226.594885 
L 811.495772 -222.594926 
L 811.035725 -218.594966 
L 810.66864 -214.595006 
L 810.379989 -210.595046 
z
" style="stroke: #3d3d3d; stroke-opacity: 0.5"/>
    </defs>
    <g clip-path="url(#p5b2f34e9cf)">
     <use xlink:href="#md0c536324e" x="0" y="722.183991" style="fill: #3a923a; fill-opacity: 0.5; stroke: #3d3d3d; stroke-opacity: 0.5"/>
    </g>
   </g>
   <g id="line2d_9">
    <path d="M 139.93125 433.398781 
L 139.93125 153.646959 
" clip-path="url(#p5b2f34e9cf)" style="fill: none; stroke: #3d3d3d; stroke-width: 1.5; stroke-linecap: round"/>
   </g>
   <g id="line2d_10">
    <path d="M 139.93125 328.166358 
L 139.93125 210.98275 
" clip-path="url(#p5b2f34e9cf)" style="fill: none; stroke: #3d3d3d; stroke-width: 4.5; stroke-linecap: round"/>
   </g>
   <g id="line2d_11">
    <path d="M 139.93125 277.622989 
" clip-path="url(#p5b2f34e9cf)" style="fill: none; stroke: #3d3d3d; stroke-width: 1.5; stroke-linecap: round"/>
    <defs>
     <path id="m406f235f31" d="M 1.875 0 
L -1.875 -0 
" style="stroke: #ffffff; stroke-width: 0.9"/>
    </defs>
    <g clip-path="url(#p5b2f34e9cf)">
     <use xlink:href="#m406f235f31" x="139.93125" y="277.622989" style="fill: #ffffff; stroke: #ffffff; stroke-width: 0.9"/>
    </g>
   </g>
   <g id="line2d_12">
    <path d="M 251.53125 478.998656 
L 251.53125 238.758701 
" clip-path="url(#p5b2f34e9cf)" style="fill: none; stroke: #3d3d3d; stroke-width: 1.5; stroke-linecap: round"/>
   </g>
   <g id="line2d_13">
    <path d="M 251.53125 421.181059 
L 251.53125 332.361337 
" clip-path="url(#p5b2f34e9cf)" style="fill: none; stroke: #3d3d3d; stroke-width: 4.5; stroke-linecap: round"/>
   </g>
   <g id="line2d_14">
    <path d="M 251.53125 386.643666 
" clip-path="url(#p5b2f34e9cf)" style="fill: none; stroke: #3d3d3d; stroke-width: 1.5; stroke-linecap: round"/>
    <g clip-path="url(#p5b2f34e9cf)">
     <use xlink:href="#m406f235f31" x="251.53125" y="386.643666" style="fill: #ffffff; stroke: #ffffff; stroke-width: 0.9"/>
    </g>
   </g>
   <g id="line2d_15">
    <path d="M 363.13125 317.059043 
L 363.13125 80.756621 
" clip-path="url(#p5b2f34e9cf)" style="fill: none; stroke: #3d3d3d; stroke-width: 1.5; stroke-linecap: round"/>
   </g>
   <g id="line2d_16">
    <path d="M 363.13125 246.859956 
L 363.13125 179.003991 
" clip-path="url(#p5b2f34e9cf)" style="fill: none; stroke: #3d3d3d; stroke-width: 4.5; stroke-linecap: round"/>
   </g>
   <g id="line2d_17">
    <path d="M 363.13125 208.88698 
" clip-path="url(#p5b2f34e9cf)" style="fill: none; stroke: #3d3d3d; stroke-width: 1.5; stroke-linecap: round"/>
    <g clip-path="url(#p5b2f34e9cf)">
     <use xlink:href="#m406f235f31" x="363.13125" y="208.88698" style="fill: #ffffff; stroke: #ffffff; stroke-width: 0.9"/>
    </g>
   </g>
   <g id="line2d_18">
    <path d="M 474.73125 445.093338 
L 474.73125 151.484165 
" clip-path="url(#p5b2f34e9cf)" style="fill: none; stroke: #3d3d3d; stroke-width: 1.5; stroke-linecap: round"/>
   </g>
   <g id="line2d_19">
    <path d="M 474.73125 341.564412 
L 474.73125 236.367411 
" clip-path="url(#p5b2f34e9cf)" style="fill: none; stroke: #3d3d3d; stroke-width: 4.5; stroke-linecap: round"/>
   </g>
   <g id="line2d_20">
    <path d="M 474.73125 289.024563 
" clip-path="url(#p5b2f34e9cf)" style="fill: none; stroke: #3d3d3d; stroke-width: 1.5; stroke-linecap: round"/>
    <g clip-path="url(#p5b2f34e9cf)">
     <use xlink:href="#m406f235f31" x="474.73125" y="289.024563" style="fill: #ffffff; stroke: #ffffff; stroke-width: 0.9"/>
    </g>
   </g>
   <g id="line2d_21">
    <path d="M 586.33125 446.913203 
L 586.33125 119.06156 
" clip-path="url(#p5b2f34e9cf)" style="fill: none; stroke: #3d3d3d; stroke-width: 1.5; stroke-linecap: round"/>
   </g>
   <g id="line2d_22">
    <path d="M 586.33125 360.774642 
L 586.33125 249.151015 
" clip-path="url(#p5b2f34e9cf)" style="fill: none; stroke: #3d3d3d; stroke-width: 4.5; stroke-linecap: round"/>
   </g>
   <g id="line2d_23">
    <path d="M 586.33125 306.76262 
" clip-path="url(#p5b2f34e9cf)" style="fill: none; stroke: #3d3d3d; stroke-width: 1.5; stroke-linecap: round"/>
    <g clip-path="url(#p5b2f34e9cf)">
     <use xlink:href="#m406f235f31" x="586.33125" y="306.76262" style="fill: #ffffff; stroke: #ffffff; stroke-width: 0.9"/>
    </g>
   </g>
   <g id="line2d_24">
    <path d="M 697.93125 458.089434 
L 697.93125 229.170826 
" clip-path="url(#p5b2f34e9cf)" style="fill: none; stroke: #3d3d3d; stroke-width: 1.5; stroke-linecap: round"/>
   </g>
   <g id="line2d_25">
    <path d="M 697.93125 400.367666 
L 697.93125 304.846017 
" clip-path="url(#p5b2f34e9cf)" style="fill: none; stroke: #3d3d3d; stroke-width: 4.5; stroke-linecap: round"/>
   </g>
   <g id="line2d_26">
    <path d="M 697.93125 356.476237 
" clip-path="url(#p5b2f34e9cf)" style="fill: none; stroke: #3d3d3d; stroke-width: 1.5; stroke-linecap: round"/>
    <g clip-path="url(#p5b2f34e9cf)">
     <use xlink:href="#m406f235f31" x="697.93125" y="356.476237" style="fill: #ffffff; stroke: #ffffff; stroke-width: 0.9"/>
    </g>
   </g>
   <g id="line2d_27">
    <path d="M 809.53125 447.557474 
L 809.53125 179.624398 
" clip-path="url(#p5b2f34e9cf)" style="fill: none; stroke: #3d3d3d; stroke-width: 1.5; stroke-linecap: round"/>
   </g>
   <g id="line2d_28">
    <path d="M 809.53125 387.230809 
L 809.53125 268.091752 
" clip-path="url(#p5b2f34e9cf)" style="fill: none; stroke: #3d3d3d; stroke-width: 4.5; stroke-linecap: round"/>
   </g>
   <g id="line2d_29">
    <path d="M 809.53125 332.895673 
" clip-path="url(#p5b2f34e9cf)" style="fill: none; stroke: #3d3d3d; stroke-width: 1.5; stroke-linecap: round"/>
    <g clip-path="url(#p5b2f34e9cf)">
     <use xlink:href="#m406f235f31" x="809.53125" y="332.895673" style="fill: #ffffff; stroke: #ffffff; stroke-width: 0.9"/>
    </g>
   </g>
   <g id="patch_3">
    <path d="M 84.13125 561.6 
L 865.33125 561.6 
" style="fill: none; stroke: #cccccc; stroke-width: 0.8; stroke-linejoin: miter; stroke-linecap: square"/>
   </g>
  </g>
 </g>
 <defs>
  <clipPath id="p5b2f34e9cf">
   <rect x="84.13125" y="7.2" width="781.2" height="554.4"/>
  </clipPath>
 </defs>
</svg>
