<?xml version="1.0" encoding="utf-8" standalone="no"?>
<!DOCTYPE svg PUBLIC "-//W3C//DTD SVG 1.1//EN"
  "http://www.w3.org/Graphics/SVG/1.1/DTD/svg11.dtd">
<svg xmlns:xlink="http://www.w3.org/1999/xlink" width="857.7625pt" height="722.183991pt" viewBox="0 0 857.7625 722.183991" xmlns="http://www.w3.org/2000/svg" version="1.1">
 <metadata>
  <rdf:RDF xmlns:dc="http://purl.org/dc/elements/1.1/" xmlns:cc="http://creativecommons.org/ns#" xmlns:rdf="http://www.w3.org/1999/02/22-rdf-syntax-ns#">
   <cc:Work>
    <dc:type rdf:resource="http://purl.org/dc/dcmitype/StillImage"/>
    <dc:date>2024-03-17T20:48:21.247517</dc:date>
    <dc:format>image/svg+xml</dc:format>
    <dc:creator>
     <cc:Agent>
      <dc:title>Matplotlib v3.8.0, https://matplotlib.org/</dc:title>
     </cc:Agent>
    </dc:creator>
   </cc:Work>
  </rdf:RDF>
 </metadata>
 <defs>
  <style type="text/css">*{stroke-linejoin: round; stroke-linecap: butt}</style>
 </defs>
 <g id="figure_1">
  <g id="patch_1">
   <path d="M 0 722.183991 
L 857.7625 722.183991 
L 857.7625 0 
L 0 0 
L 0 722.183991 
z
" style="fill: none"/>
  </g>
  <g id="axes_1">
   <g id="patch_2">
    <path d="M 69.3625 561.6 
L 850.5625 561.6 
L 850.5625 7.2 
L 69.3625 7.2 
L 69.3625 561.6 
z
" style="fill: none"/>
   </g>
   <g id="matplotlib.axis_1">
    <g id="xtick_1">
     <g id="text_1">
      <!-- MSA -->
      <g style="fill: #262626" transform="translate(104.788986 610.465141) rotate(-45) scale(0.2 -0.2)">
       <defs>
        <path id="DejaVuSans-4d" d="M 628 4666 
L 1569 4666 
L 2759 1491 
L 3956 4666 
L 4897 4666 
L 4897 0 
L 4281 0 
L 4281 4097 
L 3078 897 
L 2444 897 
L 1241 4097 
L 1241 0 
L 628 0 
L 628 4666 
z
" transform="scale(0.015625)"/>
        <path id="DejaVuSans-53" d="M 3425 4513 
L 3425 3897 
Q 3066 4069 2747 4153 
Q 2428 4238 2131 4238 
Q 1616 4238 1336 4038 
Q 1056 3838 1056 3469 
Q 1056 3159 1242 3001 
Q 1428 2844 1947 2747 
L 2328 2669 
Q 3034 2534 3370 2195 
Q 3706 1856 3706 1288 
Q 3706 609 3251 259 
Q 2797 -91 1919 -91 
Q 1588 -91 1214 -16 
Q 841 59 441 206 
L 441 856 
Q 825 641 1194 531 
Q 1563 422 1919 422 
Q 2459 422 2753 634 
Q 3047 847 3047 1241 
Q 3047 1584 2836 1778 
Q 2625 1972 2144 2069 
L 1759 2144 
Q 1053 2284 737 2584 
Q 422 2884 422 3419 
Q 422 4038 858 4394 
Q 1294 4750 2059 4750 
Q 2388 4750 2728 4690 
Q 3069 4631 3425 4513 
z
" transform="scale(0.015625)"/>
        <path id="DejaVuSans-41" d="M 2188 4044 
L 1331 1722 
L 3047 1722 
L 2188 4044 
z
M 1831 4666 
L 2547 4666 
L 4325 0 
L 3669 0 
L 3244 1197 
L 1141 1197 
L 716 0 
L 50 0 
L 1831 4666 
z
" transform="scale(0.015625)"/>
       </defs>
       <use xlink:href="#DejaVuSans-4d"/>
       <use xlink:href="#DejaVuSans-53" x="86.279297"/>
       <use xlink:href="#DejaVuSans-41" x="151.630859"/>
      </g>
     </g>
    </g>
    <g id="xtick_2">
     <g id="text_2">
      <!-- Template -->
      <g style="fill: #262626" transform="translate(182.97819 643.875936) rotate(-45) scale(0.2 -0.2)">
       <defs>
        <path id="DejaVuSans-54" d="M -19 4666 
L 3928 4666 
L 3928 4134 
L 2272 4134 
L 2272 0 
L 1638 0 
L 1638 4134 
L -19 4134 
L -19 4666 
z
" transform="scale(0.015625)"/>
        <path id="DejaVuSans-65" d="M 3597 1894 
L 3597 1613 
L 953 1613 
Q 991 1019 1311 708 
Q 1631 397 2203 397 
Q 2534 397 2845 478 
Q 3156 559 3463 722 
L 3463 178 
Q 3153 47 2828 -22 
Q 2503 -91 2169 -91 
Q 1331 -91 842 396 
Q 353 884 353 1716 
Q 353 2575 817 3079 
Q 1281 3584 2069 3584 
Q 2775 3584 3186 3129 
Q 3597 2675 3597 1894 
z
M 3022 2063 
Q 3016 2534 2758 2815 
Q 2500 3097 2075 3097 
Q 1594 3097 1305 2825 
Q 1016 2553 972 2059 
L 3022 2063 
z
" transform="scale(0.015625)"/>
        <path id="DejaVuSans-6d" d="M 3328 2828 
Q 3544 3216 3844 3400 
Q 4144 3584 4550 3584 
Q 5097 3584 5394 3201 
Q 5691 2819 5691 2113 
L 5691 0 
L 5113 0 
L 5113 2094 
Q 5113 2597 4934 2840 
Q 4756 3084 4391 3084 
Q 3944 3084 3684 2787 
Q 3425 2491 3425 1978 
L 3425 0 
L 2847 0 
L 2847 2094 
Q 2847 2600 2669 2842 
Q 2491 3084 2119 3084 
Q 1678 3084 1418 2786 
Q 1159 2488 1159 1978 
L 1159 0 
L 581 0 
L 581 3500 
L 1159 3500 
L 1159 2956 
Q 1356 3278 1631 3431 
Q 1906 3584 2284 3584 
Q 2666 3584 2933 3390 
Q 3200 3197 3328 2828 
z
" transform="scale(0.015625)"/>
        <path id="DejaVuSans-70" d="M 1159 525 
L 1159 -1331 
L 581 -1331 
L 581 3500 
L 1159 3500 
L 1159 2969 
Q 1341 3281 1617 3432 
Q 1894 3584 2278 3584 
Q 2916 3584 3314 3078 
Q 3713 2572 3713 1747 
Q 3713 922 3314 415 
Q 2916 -91 2278 -91 
Q 1894 -91 1617 61 
Q 1341 213 1159 525 
z
M 3116 1747 
Q 3116 2381 2855 2742 
Q 2594 3103 2138 3103 
Q 1681 3103 1420 2742 
Q 1159 2381 1159 1747 
Q 1159 1113 1420 752 
Q 1681 391 2138 391 
Q 2594 391 2855 752 
Q 3116 1113 3116 1747 
z
" transform="scale(0.015625)"/>
        <path id="DejaVuSans-6c" d="M 603 4863 
L 1178 4863 
L 1178 0 
L 603 0 
L 603 4863 
z
" transform="scale(0.015625)"/>
        <path id="DejaVuSans-61" d="M 2194 1759 
Q 1497 1759 1228 1600 
Q 959 1441 959 1056 
Q 959 750 1161 570 
Q 1363 391 1709 391 
Q 2188 391 2477 730 
Q 2766 1069 2766 1631 
L 2766 1759 
L 2194 1759 
z
M 3341 1997 
L 3341 0 
L 2766 0 
L 2766 531 
Q 2569 213 2275 61 
Q 1981 -91 1556 -91 
Q 1019 -91 701 211 
Q 384 513 384 1019 
Q 384 1609 779 1909 
Q 1175 2209 1959 2209 
L 2766 2209 
L 2766 2266 
Q 2766 2663 2505 2880 
Q 2244 3097 1772 3097 
Q 1472 3097 1187 3025 
Q 903 2953 641 2809 
L 641 3341 
Q 956 3463 1253 3523 
Q 1550 3584 1831 3584 
Q 2591 3584 2966 3190 
Q 3341 2797 3341 1997 
z
" transform="scale(0.015625)"/>
        <path id="DejaVuSans-74" d="M 1172 4494 
L 1172 3500 
L 2356 3500 
L 2356 3053 
L 1172 3053 
L 1172 1153 
Q 1172 725 1289 603 
Q 1406 481 1766 481 
L 2356 481 
L 2356 0 
L 1766 0 
Q 1100 0 847 248 
Q 594 497 594 1153 
L 594 3053 
L 172 3053 
L 172 3500 
L 594 3500 
L 594 4494 
L 1172 4494 
z
" transform="scale(0.015625)"/>
       </defs>
       <use xlink:href="#DejaVuSans-54"/>
       <use xlink:href="#DejaVuSans-65" x="44.083984"/>
       <use xlink:href="#DejaVuSans-6d" x="105.607422"/>
       <use xlink:href="#DejaVuSans-70" x="203.019531"/>
       <use xlink:href="#DejaVuSans-6c" x="266.496094"/>
       <use xlink:href="#DejaVuSans-61" x="294.279297"/>
       <use xlink:href="#DejaVuSans-74" x="355.558594"/>
       <use xlink:href="#DejaVuSans-65" x="394.767578"/>
      </g>
     </g>
    </g>
    <g id="xtick_3">
     <g id="text_3">
      <!-- Backbone -->
      <g style="fill: #262626" transform="translate(289.478183 648.975944) rotate(-45) scale(0.2 -0.2)">
       <defs>
        <path id="DejaVuSans-42" d="M 1259 2228 
L 1259 519 
L 2272 519 
Q 2781 519 3026 730 
Q 3272 941 3272 1375 
Q 3272 1813 3026 2020 
Q 2781 2228 2272 2228 
L 1259 2228 
z
M 1259 4147 
L 1259 2741 
L 2194 2741 
Q 2656 2741 2882 2914 
Q 3109 3088 3109 3444 
Q 3109 3797 2882 3972 
Q 2656 4147 2194 4147 
L 1259 4147 
z
M 628 4666 
L 2241 4666 
Q 2963 4666 3353 4366 
Q 3744 4066 3744 3513 
Q 3744 3084 3544 2831 
Q 3344 2578 2956 2516 
Q 3422 2416 3680 2098 
Q 3938 1781 3938 1306 
Q 3938 681 3513 340 
Q 3088 0 2303 0 
L 628 0 
L 628 4666 
z
" transform="scale(0.015625)"/>
        <path id="DejaVuSans-63" d="M 3122 3366 
L 3122 2828 
Q 2878 2963 2633 3030 
Q 2388 3097 2138 3097 
Q 1578 3097 1268 2742 
Q 959 2388 959 1747 
Q 959 1106 1268 751 
Q 1578 397 2138 397 
Q 2388 397 2633 464 
Q 2878 531 3122 666 
L 3122 134 
Q 2881 22 2623 -34 
Q 2366 -91 2075 -91 
Q 1284 -91 818 406 
Q 353 903 353 1747 
Q 353 2603 823 3093 
Q 1294 3584 2113 3584 
Q 2378 3584 2631 3529 
Q 2884 3475 3122 3366 
z
" transform="scale(0.015625)"/>
        <path id="DejaVuSans-6b" d="M 581 4863 
L 1159 4863 
L 1159 1991 
L 2875 3500 
L 3609 3500 
L 1753 1863 
L 3688 0 
L 2938 0 
L 1159 1709 
L 1159 0 
L 581 0 
L 581 4863 
z
" transform="scale(0.015625)"/>
        <path id="DejaVuSans-62" d="M 3116 1747 
Q 3116 2381 2855 2742 
Q 2594 3103 2138 3103 
Q 1681 3103 1420 2742 
Q 1159 2381 1159 1747 
Q 1159 1113 1420 752 
Q 1681 391 2138 391 
Q 2594 391 2855 752 
Q 3116 1113 3116 1747 
z
M 1159 2969 
Q 1341 3281 1617 3432 
Q 1894 3584 2278 3584 
Q 2916 3584 3314 3078 
Q 3713 2572 3713 1747 
Q 3713 922 3314 415 
Q 2916 -91 2278 -91 
Q 1894 -91 1617 61 
Q 1341 213 1159 525 
L 1159 0 
L 581 0 
L 581 4863 
L 1159 4863 
L 1159 2969 
z
" transform="scale(0.015625)"/>
        <path id="DejaVuSans-6f" d="M 1959 3097 
Q 1497 3097 1228 2736 
Q 959 2375 959 1747 
Q 959 1119 1226 758 
Q 1494 397 1959 397 
Q 2419 397 2687 759 
Q 2956 1122 2956 1747 
Q 2956 2369 2687 2733 
Q 2419 3097 1959 3097 
z
M 1959 3584 
Q 2709 3584 3137 3096 
Q 3566 2609 3566 1747 
Q 3566 888 3137 398 
Q 2709 -91 1959 -91 
Q 1206 -91 779 398 
Q 353 888 353 1747 
Q 353 2609 779 3096 
Q 1206 3584 1959 3584 
z
" transform="scale(0.015625)"/>
        <path id="DejaVuSans-6e" d="M 3513 2113 
L 3513 0 
L 2938 0 
L 2938 2094 
Q 2938 2591 2744 2837 
Q 2550 3084 2163 3084 
Q 1697 3084 1428 2787 
Q 1159 2491 1159 1978 
L 1159 0 
L 581 0 
L 581 3500 
L 1159 3500 
L 1159 2956 
Q 1366 3272 1645 3428 
Q 1925 3584 2291 3584 
Q 2894 3584 3203 3211 
Q 3513 2838 3513 2113 
z
" transform="scale(0.015625)"/>
       </defs>
       <use xlink:href="#DejaVuSans-42"/>
       <use xlink:href="#DejaVuSans-61" x="68.603516"/>
       <use xlink:href="#DejaVuSans-63" x="129.882812"/>
       <use xlink:href="#DejaVuSans-6b" x="184.863281"/>
       <use xlink:href="#DejaVuSans-62" x="242.773438"/>
       <use xlink:href="#DejaVuSans-6f" x="306.25"/>
       <use xlink:href="#DejaVuSans-6e" x="367.431641"/>
       <use xlink:href="#DejaVuSans-65" x="430.810547"/>
      </g>
     </g>
    </g>
    <g id="xtick_4">
     <g id="text_4">
      <!-- Heuristic C-$\beta$ -->
      <g style="fill: #262626" transform="translate(379.63517 670.706219) rotate(-45) scale(0.2 -0.2)">
       <defs>
        <path id="DejaVuSans-48" d="M 628 4666 
L 1259 4666 
L 1259 2753 
L 3553 2753 
L 3553 4666 
L 4184 4666 
L 4184 0 
L 3553 0 
L 3553 2222 
L 1259 2222 
L 1259 0 
L 628 0 
L 628 4666 
z
" transform="scale(0.015625)"/>
        <path id="DejaVuSans-75" d="M 544 1381 
L 544 3500 
L 1119 3500 
L 1119 1403 
Q 1119 906 1312 657 
Q 1506 409 1894 409 
Q 2359 409 2629 706 
Q 2900 1003 2900 1516 
L 2900 3500 
L 3475 3500 
L 3475 0 
L 2900 0 
L 2900 538 
Q 2691 219 2414 64 
Q 2138 -91 1772 -91 
Q 1169 -91 856 284 
Q 544 659 544 1381 
z
M 1991 3584 
L 1991 3584 
z
" transform="scale(0.015625)"/>
        <path id="DejaVuSans-72" d="M 2631 2963 
Q 2534 3019 2420 3045 
Q 2306 3072 2169 3072 
Q 1681 3072 1420 2755 
Q 1159 2438 1159 1844 
L 1159 0 
L 581 0 
L 581 3500 
L 1159 3500 
L 1159 2956 
Q 1341 3275 1631 3429 
Q 1922 3584 2338 3584 
Q 2397 3584 2469 3576 
Q 2541 3569 2628 3553 
L 2631 2963 
z
" transform="scale(0.015625)"/>
        <path id="DejaVuSans-69" d="M 603 3500 
L 1178 3500 
L 1178 0 
L 603 0 
L 603 3500 
z
M 603 4863 
L 1178 4863 
L 1178 4134 
L 603 4134 
L 603 4863 
z
" transform="scale(0.015625)"/>
        <path id="DejaVuSans-73" d="M 2834 3397 
L 2834 2853 
Q 2591 2978 2328 3040 
Q 2066 3103 1784 3103 
Q 1356 3103 1142 2972 
Q 928 2841 928 2578 
Q 928 2378 1081 2264 
Q 1234 2150 1697 2047 
L 1894 2003 
Q 2506 1872 2764 1633 
Q 3022 1394 3022 966 
Q 3022 478 2636 193 
Q 2250 -91 1575 -91 
Q 1294 -91 989 -36 
Q 684 19 347 128 
L 347 722 
Q 666 556 975 473 
Q 1284 391 1588 391 
Q 1994 391 2212 530 
Q 2431 669 2431 922 
Q 2431 1156 2273 1281 
Q 2116 1406 1581 1522 
L 1381 1569 
Q 847 1681 609 1914 
Q 372 2147 372 2553 
Q 372 3047 722 3315 
Q 1072 3584 1716 3584 
Q 2034 3584 2315 3537 
Q 2597 3491 2834 3397 
z
" transform="scale(0.015625)"/>
        <path id="DejaVuSans-20" transform="scale(0.015625)"/>
        <path id="DejaVuSans-43" d="M 4122 4306 
L 4122 3641 
Q 3803 3938 3442 4084 
Q 3081 4231 2675 4231 
Q 1875 4231 1450 3742 
Q 1025 3253 1025 2328 
Q 1025 1406 1450 917 
Q 1875 428 2675 428 
Q 3081 428 3442 575 
Q 3803 722 4122 1019 
L 4122 359 
Q 3791 134 3420 21 
Q 3050 -91 2638 -91 
Q 1578 -91 968 557 
Q 359 1206 359 2328 
Q 359 3453 968 4101 
Q 1578 4750 2638 4750 
Q 3056 4750 3426 4639 
Q 3797 4528 4122 4306 
z
" transform="scale(0.015625)"/>
        <path id="DejaVuSans-2d" d="M 313 2009 
L 1997 2009 
L 1997 1497 
L 313 1497 
L 313 2009 
z
" transform="scale(0.015625)"/>
        <path id="DejaVuSans-Oblique-3b2" d="M 872 216 
L 572 -1331 
L -6 -1331 
L 928 3478 
Q 1206 4903 2538 4903 
Q 3888 4903 3659 3700 
Q 3503 2844 2894 2531 
Q 3713 2250 3553 1416 
Q 3272 -69 1759 -66 
Q 1097 -63 872 216 
z
M 1019 966 
Q 1259 422 1875 425 
Q 2775 425 2966 1406 
Q 3138 2288 1675 2219 
L 1778 2750 
Q 2909 2731 3106 3750 
Q 3241 4438 2509 4434 
Q 1691 4434 1503 3459 
L 1019 966 
z
" transform="scale(0.015625)"/>
       </defs>
       <use xlink:href="#DejaVuSans-48" transform="translate(0 0.390625)"/>
       <use xlink:href="#DejaVuSans-65" transform="translate(75.195312 0.390625)"/>
       <use xlink:href="#DejaVuSans-75" transform="translate(136.71875 0.390625)"/>
       <use xlink:href="#DejaVuSans-72" transform="translate(200.097656 0.390625)"/>
       <use xlink:href="#DejaVuSans-69" transform="translate(241.210938 0.390625)"/>
       <use xlink:href="#DejaVuSans-73" transform="translate(268.994141 0.390625)"/>
       <use xlink:href="#DejaVuSans-74" transform="translate(321.09375 0.390625)"/>
       <use xlink:href="#DejaVuSans-69" transform="translate(360.302734 0.390625)"/>
       <use xlink:href="#DejaVuSans-63" transform="translate(388.085938 0.390625)"/>
       <use xlink:href="#DejaVuSans-20" transform="translate(443.066406 0.390625)"/>
       <use xlink:href="#DejaVuSans-43" transform="translate(474.853516 0.390625)"/>
       <use xlink:href="#DejaVuSans-2d" transform="translate(544.677734 0.390625)"/>
       <use xlink:href="#DejaVuSans-Oblique-3b2" transform="translate(580.761719 0.390625)"/>
      </g>
     </g>
    </g>
    <g id="xtick_5">
     <g id="text_5">
      <!-- Template C-$\beta$ -->
      <g style="fill: #262626" transform="translate(486.992529 674.94886) rotate(-45) scale(0.2 -0.2)">
       <use xlink:href="#DejaVuSans-54" transform="translate(0 0.390625)"/>
       <use xlink:href="#DejaVuSans-65" transform="translate(61.083984 0.390625)"/>
       <use xlink:href="#DejaVuSans-6d" transform="translate(122.607422 0.390625)"/>
       <use xlink:href="#DejaVuSans-70" transform="translate(220.019531 0.390625)"/>
       <use xlink:href="#DejaVuSans-6c" transform="translate(283.496094 0.390625)"/>
       <use xlink:href="#DejaVuSans-61" transform="translate(311.279297 0.390625)"/>
       <use xlink:href="#DejaVuSans-74" transform="translate(372.558594 0.390625)"/>
       <use xlink:href="#DejaVuSans-65" transform="translate(411.767578 0.390625)"/>
       <use xlink:href="#DejaVuSans-20" transform="translate(473.291016 0.390625)"/>
       <use xlink:href="#DejaVuSans-43" transform="translate(505.078125 0.390625)"/>
       <use xlink:href="#DejaVuSans-2d" transform="translate(574.902344 0.390625)"/>
       <use xlink:href="#DejaVuSans-Oblique-3b2" transform="translate(610.986328 0.390625)"/>
      </g>
     </g>
    </g>
    <g id="xtick_6">
     <g id="text_6">
      <!-- AttnPacker -->
      <g style="fill: #262626" transform="translate(617.905383 655.348744) rotate(-45) scale(0.2 -0.2)">
       <defs>
        <path id="DejaVuSans-50" d="M 1259 4147 
L 1259 2394 
L 2053 2394 
Q 2494 2394 2734 2622 
Q 2975 2850 2975 3272 
Q 2975 3691 2734 3919 
Q 2494 4147 2053 4147 
L 1259 4147 
z
M 628 4666 
L 2053 4666 
Q 2838 4666 3239 4311 
Q 3641 3956 3641 3272 
Q 3641 2581 3239 2228 
Q 2838 1875 2053 1875 
L 1259 1875 
L 1259 0 
L 628 0 
L 628 4666 
z
" transform="scale(0.015625)"/>
       </defs>
       <use xlink:href="#DejaVuSans-41"/>
       <use xlink:href="#DejaVuSans-74" x="66.658203"/>
       <use xlink:href="#DejaVuSans-74" x="105.867188"/>
       <use xlink:href="#DejaVuSans-6e" x="145.076172"/>
       <use xlink:href="#DejaVuSans-50" x="208.455078"/>
       <use xlink:href="#DejaVuSans-61" x="264.257812"/>
       <use xlink:href="#DejaVuSans-63" x="325.537109"/>
       <use xlink:href="#DejaVuSans-6b" x="380.517578"/>
       <use xlink:href="#DejaVuSans-65" x="434.802734"/>
       <use xlink:href="#DejaVuSans-72" x="496.326172"/>
      </g>
     </g>
    </g>
    <g id="xtick_7">
     <g id="text_7">
      <!-- AttnPacker (AF) -->
      <g style="fill: #262626" transform="translate(696.167508 688.686619) rotate(-45) scale(0.2 -0.2)">
       <defs>
        <path id="DejaVuSans-28" d="M 1984 4856 
Q 1566 4138 1362 3434 
Q 1159 2731 1159 2009 
Q 1159 1288 1364 580 
Q 1569 -128 1984 -844 
L 1484 -844 
Q 1016 -109 783 600 
Q 550 1309 550 2009 
Q 550 2706 781 3412 
Q 1013 4119 1484 4856 
L 1984 4856 
z
" transform="scale(0.015625)"/>
        <path id="DejaVuSans-46" d="M 628 4666 
L 3309 4666 
L 3309 4134 
L 1259 4134 
L 1259 2759 
L 3109 2759 
L 3109 2228 
L 1259 2228 
L 1259 0 
L 628 0 
L 628 4666 
z
" transform="scale(0.015625)"/>
        <path id="DejaVuSans-29" d="M 513 4856 
L 1013 4856 
Q 1481 4119 1714 3412 
Q 1947 2706 1947 2009 
Q 1947 1309 1714 600 
Q 1481 -109 1013 -844 
L 513 -844 
Q 928 -128 1133 580 
Q 1338 1288 1338 2009 
Q 1338 2731 1133 3434 
Q 928 4138 513 4856 
z
" transform="scale(0.015625)"/>
       </defs>
       <use xlink:href="#DejaVuSans-41"/>
       <use xlink:href="#DejaVuSans-74" x="66.658203"/>
       <use xlink:href="#DejaVuSans-74" x="105.867188"/>
       <use xlink:href="#DejaVuSans-6e" x="145.076172"/>
       <use xlink:href="#DejaVuSans-50" x="208.455078"/>
       <use xlink:href="#DejaVuSans-61" x="264.257812"/>
       <use xlink:href="#DejaVuSans-63" x="325.537109"/>
       <use xlink:href="#DejaVuSans-6b" x="380.517578"/>
       <use xlink:href="#DejaVuSans-65" x="434.802734"/>
       <use xlink:href="#DejaVuSans-72" x="496.326172"/>
       <use xlink:href="#DejaVuSans-20" x="537.439453"/>
       <use xlink:href="#DejaVuSans-28" x="569.226562"/>
       <use xlink:href="#DejaVuSans-41" x="608.240234"/>
       <use xlink:href="#DejaVuSans-46" x="676.648438"/>
       <use xlink:href="#DejaVuSans-29" x="734.167969"/>
      </g>
     </g>
    </g>
    <g id="text_8">
     <!-- Method -->
     <g style="fill: #262626" transform="translate(422.45625 710.824616) scale(0.2 -0.2)">
      <defs>
       <path id="DejaVuSans-68" d="M 3513 2113 
L 3513 0 
L 2938 0 
L 2938 2094 
Q 2938 2591 2744 2837 
Q 2550 3084 2163 3084 
Q 1697 3084 1428 2787 
Q 1159 2491 1159 1978 
L 1159 0 
L 581 0 
L 581 4863 
L 1159 4863 
L 1159 2956 
Q 1366 3272 1645 3428 
Q 1925 3584 2291 3584 
Q 2894 3584 3203 3211 
Q 3513 2838 3513 2113 
z
" transform="scale(0.015625)"/>
       <path id="DejaVuSans-64" d="M 2906 2969 
L 2906 4863 
L 3481 4863 
L 3481 0 
L 2906 0 
L 2906 525 
Q 2725 213 2448 61 
Q 2172 -91 1784 -91 
Q 1150 -91 751 415 
Q 353 922 353 1747 
Q 353 2572 751 3078 
Q 1150 3584 1784 3584 
Q 2172 3584 2448 3432 
Q 2725 3281 2906 2969 
z
M 947 1747 
Q 947 1113 1208 752 
Q 1469 391 1925 391 
Q 2381 391 2643 752 
Q 2906 1113 2906 1747 
Q 2906 2381 2643 2742 
Q 2381 3103 1925 3103 
Q 1469 3103 1208 2742 
Q 947 2381 947 1747 
z
" transform="scale(0.015625)"/>
      </defs>
      <use xlink:href="#DejaVuSans-4d"/>
      <use xlink:href="#DejaVuSans-65" x="86.279297"/>
      <use xlink:href="#DejaVuSans-74" x="147.802734"/>
      <use xlink:href="#DejaVuSans-68" x="187.011719"/>
      <use xlink:href="#DejaVuSans-6f" x="250.390625"/>
      <use xlink:href="#DejaVuSans-64" x="311.572266"/>
     </g>
    </g>
   </g>
   <g id="matplotlib.axis_2">
    <g id="ytick_1">
     <g id="line2d_1">
      <path d="M 69.3625 522.750082 
L 850.5625 522.750082 
" clip-path="url(#pb3a509105f)" style="fill: none; stroke: #cccccc; stroke-width: 0.8; stroke-linecap: round"/>
     </g>
     <g id="text_9">
      <!-- 0.0 -->
      <g style="fill: #262626" transform="translate(30.55625 530.348519) scale(0.2 -0.2)">
       <defs>
        <path id="DejaVuSans-30" d="M 2034 4250 
Q 1547 4250 1301 3770 
Q 1056 3291 1056 2328 
Q 1056 1369 1301 889 
Q 1547 409 2034 409 
Q 2525 409 2770 889 
Q 3016 1369 3016 2328 
Q 3016 3291 2770 3770 
Q 2525 4250 2034 4250 
z
M 2034 4750 
Q 2819 4750 3233 4129 
Q 3647 3509 3647 2328 
Q 3647 1150 3233 529 
Q 2819 -91 2034 -91 
Q 1250 -91 836 529 
Q 422 1150 422 2328 
Q 422 3509 836 4129 
Q 1250 4750 2034 4750 
z
" transform="scale(0.015625)"/>
        <path id="DejaVuSans-2e" d="M 684 794 
L 1344 794 
L 1344 0 
L 684 0 
L 684 794 
z
" transform="scale(0.015625)"/>
       </defs>
       <use xlink:href="#DejaVuSans-30"/>
       <use xlink:href="#DejaVuSans-2e" x="63.623047"/>
       <use xlink:href="#DejaVuSans-30" x="95.410156"/>
      </g>
     </g>
    </g>
    <g id="ytick_2">
     <g id="line2d_2">
      <path d="M 69.3625 426.577305 
L 850.5625 426.577305 
" clip-path="url(#pb3a509105f)" style="fill: none; stroke: #cccccc; stroke-width: 0.8; stroke-linecap: round"/>
     </g>
     <g id="text_10">
      <!-- 0.2 -->
      <g style="fill: #262626" transform="translate(30.55625 434.175742) scale(0.2 -0.2)">
       <defs>
        <path id="DejaVuSans-32" d="M 1228 531 
L 3431 531 
L 3431 0 
L 469 0 
L 469 531 
Q 828 903 1448 1529 
Q 2069 2156 2228 2338 
Q 2531 2678 2651 2914 
Q 2772 3150 2772 3378 
Q 2772 3750 2511 3984 
Q 2250 4219 1831 4219 
Q 1534 4219 1204 4116 
Q 875 4013 500 3803 
L 500 4441 
Q 881 4594 1212 4672 
Q 1544 4750 1819 4750 
Q 2544 4750 2975 4387 
Q 3406 4025 3406 3419 
Q 3406 3131 3298 2873 
Q 3191 2616 2906 2266 
Q 2828 2175 2409 1742 
Q 1991 1309 1228 531 
z
" transform="scale(0.015625)"/>
       </defs>
       <use xlink:href="#DejaVuSans-30"/>
       <use xlink:href="#DejaVuSans-2e" x="63.623047"/>
       <use xlink:href="#DejaVuSans-32" x="95.410156"/>
      </g>
     </g>
    </g>
    <g id="ytick_3">
     <g id="line2d_3">
      <path d="M 69.3625 330.404528 
L 850.5625 330.404528 
" clip-path="url(#pb3a509105f)" style="fill: none; stroke: #cccccc; stroke-width: 0.8; stroke-linecap: round"/>
     </g>
     <g id="text_11">
      <!-- 0.4 -->
      <g style="fill: #262626" transform="translate(30.55625 338.002965) scale(0.2 -0.2)">
       <defs>
        <path id="DejaVuSans-34" d="M 2419 4116 
L 825 1625 
L 2419 1625 
L 2419 4116 
z
M 2253 4666 
L 3047 4666 
L 3047 1625 
L 3713 1625 
L 3713 1100 
L 3047 1100 
L 3047 0 
L 2419 0 
L 2419 1100 
L 313 1100 
L 313 1709 
L 2253 4666 
z
" transform="scale(0.015625)"/>
       </defs>
       <use xlink:href="#DejaVuSans-30"/>
       <use xlink:href="#DejaVuSans-2e" x="63.623047"/>
       <use xlink:href="#DejaVuSans-34" x="95.410156"/>
      </g>
     </g>
    </g>
    <g id="ytick_4">
     <g id="line2d_4">
      <path d="M 69.3625 234.231751 
L 850.5625 234.231751 
" clip-path="url(#pb3a509105f)" style="fill: none; stroke: #cccccc; stroke-width: 0.8; stroke-linecap: round"/>
     </g>
     <g id="text_12">
      <!-- 0.6 -->
      <g style="fill: #262626" transform="translate(30.55625 241.830188) scale(0.2 -0.2)">
       <defs>
        <path id="DejaVuSans-36" d="M 2113 2584 
Q 1688 2584 1439 2293 
Q 1191 2003 1191 1497 
Q 1191 994 1439 701 
Q 1688 409 2113 409 
Q 2538 409 2786 701 
Q 3034 994 3034 1497 
Q 3034 2003 2786 2293 
Q 2538 2584 2113 2584 
z
M 3366 4563 
L 3366 3988 
Q 3128 4100 2886 4159 
Q 2644 4219 2406 4219 
Q 1781 4219 1451 3797 
Q 1122 3375 1075 2522 
Q 1259 2794 1537 2939 
Q 1816 3084 2150 3084 
Q 2853 3084 3261 2657 
Q 3669 2231 3669 1497 
Q 3669 778 3244 343 
Q 2819 -91 2113 -91 
Q 1303 -91 875 529 
Q 447 1150 447 2328 
Q 447 3434 972 4092 
Q 1497 4750 2381 4750 
Q 2619 4750 2861 4703 
Q 3103 4656 3366 4563 
z
" transform="scale(0.015625)"/>
       </defs>
       <use xlink:href="#DejaVuSans-30"/>
       <use xlink:href="#DejaVuSans-2e" x="63.623047"/>
       <use xlink:href="#DejaVuSans-36" x="95.410156"/>
      </g>
     </g>
    </g>
    <g id="ytick_5">
     <g id="line2d_5">
      <path d="M 69.3625 138.058974 
L 850.5625 138.058974 
" clip-path="url(#pb3a509105f)" style="fill: none; stroke: #cccccc; stroke-width: 0.8; stroke-linecap: round"/>
     </g>
     <g id="text_13">
      <!-- 0.8 -->
      <g style="fill: #262626" transform="translate(30.55625 145.657411) scale(0.2 -0.2)">
       <defs>
        <path id="DejaVuSans-38" d="M 2034 2216 
Q 1584 2216 1326 1975 
Q 1069 1734 1069 1313 
Q 1069 891 1326 650 
Q 1584 409 2034 409 
Q 2484 409 2743 651 
Q 3003 894 3003 1313 
Q 3003 1734 2745 1975 
Q 2488 2216 2034 2216 
z
M 1403 2484 
Q 997 2584 770 2862 
Q 544 3141 544 3541 
Q 544 4100 942 4425 
Q 1341 4750 2034 4750 
Q 2731 4750 3128 4425 
Q 3525 4100 3525 3541 
Q 3525 3141 3298 2862 
Q 3072 2584 2669 2484 
Q 3125 2378 3379 2068 
Q 3634 1759 3634 1313 
Q 3634 634 3220 271 
Q 2806 -91 2034 -91 
Q 1263 -91 848 271 
Q 434 634 434 1313 
Q 434 1759 690 2068 
Q 947 2378 1403 2484 
z
M 1172 3481 
Q 1172 3119 1398 2916 
Q 1625 2713 2034 2713 
Q 2441 2713 2670 2916 
Q 2900 3119 2900 3481 
Q 2900 3844 2670 4047 
Q 2441 4250 2034 4250 
Q 1625 4250 1398 4047 
Q 1172 3844 1172 3481 
z
" transform="scale(0.015625)"/>
       </defs>
       <use xlink:href="#DejaVuSans-30"/>
       <use xlink:href="#DejaVuSans-2e" x="63.623047"/>
       <use xlink:href="#DejaVuSans-38" x="95.410156"/>
      </g>
     </g>
    </g>
    <g id="ytick_6">
     <g id="line2d_6">
      <path d="M 69.3625 41.886197 
L 850.5625 41.886197 
" clip-path="url(#pb3a509105f)" style="fill: none; stroke: #cccccc; stroke-width: 0.8; stroke-linecap: round"/>
     </g>
     <g id="text_14">
      <!-- 1.0 -->
      <g style="fill: #262626" transform="translate(30.55625 49.484634) scale(0.2 -0.2)">
       <defs>
        <path id="DejaVuSans-31" d="M 794 531 
L 1825 531 
L 1825 4091 
L 703 3866 
L 703 4441 
L 1819 4666 
L 2450 4666 
L 2450 531 
L 3481 531 
L 3481 0 
L 794 0 
L 794 531 
z
" transform="scale(0.015625)"/>
       </defs>
       <use xlink:href="#DejaVuSans-31"/>
       <use xlink:href="#DejaVuSans-2e" x="63.623047"/>
       <use xlink:href="#DejaVuSans-30" x="95.410156"/>
      </g>
     </g>
    </g>
    <g id="text_15">
     <!-- MAE 2 (rad) -->
     <g style="fill: #262626" transform="translate(22.396875 343.296875) rotate(-90) scale(0.2 -0.2)">
      <defs>
       <path id="DejaVuSans-45" d="M 628 4666 
L 3578 4666 
L 3578 4134 
L 1259 4134 
L 1259 2753 
L 3481 2753 
L 3481 2222 
L 1259 2222 
L 1259 531 
L 3634 531 
L 3634 0 
L 628 0 
L 628 4666 
z
" transform="scale(0.015625)"/>
      </defs>
      <use xlink:href="#DejaVuSans-4d"/>
      <use xlink:href="#DejaVuSans-41" x="86.279297"/>
      <use xlink:href="#DejaVuSans-45" x="154.6875"/>
      <use xlink:href="#DejaVuSans-20" x="217.871094"/>
      <use xlink:href="#DejaVuSans-32" x="249.658203"/>
      <use xlink:href="#DejaVuSans-20" x="313.28125"/>
      <use xlink:href="#DejaVuSans-28" x="345.068359"/>
      <use xlink:href="#DejaVuSans-72" x="384.082031"/>
      <use xlink:href="#DejaVuSans-61" x="425.195312"/>
      <use xlink:href="#DejaVuSans-64" x="486.474609"/>
      <use xlink:href="#DejaVuSans-29" x="549.951172"/>
     </g>
    </g>
   </g>
   <g id="PolyCollection_1">
    <defs>
     <path id="m204ba02b11" d="M 125.562134 -264.550778 
L 124.762866 -264.550778 
L 124.633489 -268.506139 
L 124.470857 -272.4615 
L 124.269095 -276.416861 
L 124.021975 -280.372222 
L 123.723039 -284.327582 
L 123.365752 -288.282943 
L 122.943669 -292.238304 
L 122.450611 -296.193665 
L 121.880849 -300.149026 
L 121.229293 -304.104387 
L 120.491671 -308.059747 
L 119.664704 -312.015108 
L 118.746274 -315.970469 
L 117.735579 -319.92583 
L 116.63327 -323.881191 
L 115.441566 -327.836552 
L 114.164344 -331.791912 
L 112.807185 -335.747273 
L 111.377375 -339.702634 
L 109.883857 -343.657995 
L 108.337124 -347.613356 
L 106.749062 -351.568717 
L 105.132745 -355.524077 
L 103.502198 -359.479438 
L 101.872135 -363.434799 
L 100.257691 -367.39016 
L 98.67414 -371.345521 
L 97.136619 -375.300882 
L 95.659833 -379.256242 
L 94.257737 -383.211603 
L 92.943174 -387.166964 
L 91.727467 -391.122325 
L 90.619948 -395.077686 
L 89.627459 -399.033047 
L 88.753839 -402.988407 
L 87.999457 -406.943768 
L 87.360854 -410.899129 
L 86.830564 -414.85449 
L 86.397173 -418.809851 
L 86.045675 -422.765212 
L 85.758129 -426.720573 
L 85.514613 -430.675933 
L 85.294427 -434.631294 
L 85.077454 -438.586655 
L 84.845574 -442.542016 
L 84.584016 -446.497377 
L 84.282516 -450.452738 
L 83.936185 -454.408098 
L 83.546001 -458.363459 
L 83.118869 -462.31882 
L 82.667236 -466.274181 
L 82.208299 -470.229542 
L 81.76283 -474.184903 
L 81.353736 -478.140263 
L 81.004434 -482.095624 
L 80.737174 -486.050985 
L 80.571432 -490.006346 
L 80.5225 -493.961707 
L 80.600387 -497.917068 
L 80.809123 -501.872428 
L 81.14654 -505.827789 
L 81.604556 -509.78315 
L 82.169953 -513.738511 
L 82.825596 -517.693872 
L 83.551998 -521.649233 
L 84.329099 -525.604593 
L 85.1381 -529.559954 
L 85.963195 -533.515315 
L 86.793026 -537.470676 
L 87.621735 -541.426037 
L 88.449502 -545.381398 
L 89.282515 -549.336758 
L 90.132359 -553.292119 
L 91.014895 -557.24748 
L 91.948691 -561.202841 
L 92.953178 -565.158202 
L 94.04667 -569.113563 
L 95.24444 -573.068923 
L 96.557014 -577.024284 
L 97.98884 -580.979645 
L 99.537458 -584.935006 
L 101.193223 -588.890367 
L 102.939623 -592.845728 
L 104.754139 -596.801088 
L 106.609574 -600.756449 
L 108.475717 -604.71181 
L 110.321187 -608.667171 
L 112.115302 -612.622532 
L 113.829804 -616.577893 
L 115.440302 -620.533253 
L 116.927356 -624.488614 
L 118.277111 -628.443975 
L 119.481511 -632.399336 
L 120.538082 -636.354697 
L 121.449395 -640.310058 
L 122.222259 -644.265418 
L 122.866771 -648.220779 
L 123.395305 -652.17614 
L 123.821545 -656.131501 
L 126.503455 -656.131501 
L 126.503455 -656.131501 
L 126.929695 -652.17614 
L 127.458229 -648.220779 
L 128.102741 -644.265418 
L 128.875605 -640.310058 
L 129.786918 -636.354697 
L 130.843489 -632.399336 
L 132.047889 -628.443975 
L 133.397644 -624.488614 
L 134.884698 -620.533253 
L 136.495196 -616.577893 
L 138.209698 -612.622532 
L 140.003813 -608.667171 
L 141.849283 -604.71181 
L 143.715426 -600.756449 
L 145.570861 -596.801088 
L 147.385377 -592.845728 
L 149.131777 -588.890367 
L 150.787542 -584.935006 
L 152.33616 -580.979645 
L 153.767986 -577.024284 
L 155.08056 -573.068923 
L 156.27833 -569.113563 
L 157.371822 -565.158202 
L 158.376309 -561.202841 
L 159.310105 -557.24748 
L 160.192641 -553.292119 
L 161.042485 -549.336758 
L 161.875498 -545.381398 
L 162.703265 -541.426037 
L 163.531974 -537.470676 
L 164.361805 -533.515315 
L 165.1869 -529.559954 
L 165.995901 -525.604593 
L 166.773002 -521.649233 
L 167.499404 -517.693872 
L 168.155047 -513.738511 
L 168.720444 -509.78315 
L 169.17846 -505.827789 
L 169.515877 -501.872428 
L 169.724613 -497.917068 
L 169.8025 -493.961707 
L 169.753568 -490.006346 
L 169.587826 -486.050985 
L 169.320566 -482.095624 
L 168.971264 -478.140263 
L 168.56217 -474.184903 
L 168.116701 -470.229542 
L 167.657764 -466.274181 
L 167.206131 -462.31882 
L 166.778999 -458.363459 
L 166.388815 -454.408098 
L 166.042484 -450.452738 
L 165.740984 -446.497377 
L 165.479426 -442.542016 
L 165.247546 -438.586655 
L 165.030573 -434.631294 
L 164.810387 -430.675933 
L 164.566871 -426.720573 
L 164.279325 -422.765212 
L 163.927827 -418.809851 
L 163.494436 -414.85449 
L 162.964146 -410.899129 
L 162.325543 -406.943768 
L 161.571161 -402.988407 
L 160.697541 -399.033047 
L 159.705052 -395.077686 
L 158.597533 -391.122325 
L 157.381826 -387.166964 
L 156.067263 -383.211603 
L 154.665167 -379.256242 
L 153.188381 -375.300882 
L 151.65086 -371.345521 
L 150.067309 -367.39016 
L 148.452865 -363.434799 
L 146.822802 -359.479438 
L 145.192255 -355.524077 
L 143.575938 -351.568717 
L 141.987876 -347.613356 
L 140.441143 -343.657995 
L 138.947625 -339.702634 
L 137.517815 -335.747273 
L 136.160656 -331.791912 
L 134.883434 -327.836552 
L 133.69173 -323.881191 
L 132.589421 -319.92583 
L 131.578726 -315.970469 
L 130.660296 -312.015108 
L 129.833329 -308.059747 
L 129.095707 -304.104387 
L 128.444151 -300.149026 
L 127.874389 -296.193665 
L 127.381331 -292.238304 
L 126.959248 -288.282943 
L 126.601961 -284.327582 
L 126.303025 -280.372222 
L 126.055905 -276.416861 
L 125.854143 -272.4615 
L 125.691511 -268.506139 
L 125.562134 -264.550778 
z
" style="stroke: #3d3d3d; stroke-opacity: 0.5"/>
    </defs>
    <g clip-path="url(#pb3a509105f)">
     <use xlink:href="#m204ba02b11" x="0" y="722.183991" style="fill: #3274a1; fill-opacity: 0.5; stroke: #3d3d3d; stroke-opacity: 0.5"/>
    </g>
   </g>
   <g id="PolyCollection_2">
    <defs>
     <path id="m958cb86fa3" d="M 237.216619 -185.783991 
L 236.308381 -185.783991 
L 236.129214 -190.493183 
L 235.89108 -195.202376 
L 235.57906 -199.911568 
L 235.176016 -204.62076 
L 234.662782 -209.329953 
L 234.018571 -214.039145 
L 233.22164 -218.748337 
L 232.250254 -223.457529 
L 231.083932 -228.166722 
L 229.704984 -232.875914 
L 228.100242 -237.585106 
L 226.262905 -242.294299 
L 224.194323 -247.003491 
L 221.90557 -251.712683 
L 219.418564 -256.421875 
L 216.766586 -261.131068 
L 213.993998 -265.84026 
L 211.155079 -270.549452 
L 208.311946 -275.258645 
L 205.531647 -279.967837 
L 202.882574 -284.677029 
L 200.430493 -289.386221 
L 198.234486 -294.095414 
L 196.34319 -298.804606 
L 194.791676 -303.513798 
L 193.599288 -308.222991 
L 192.768647 -312.932183 
L 192.285947 -317.641375 
L 192.1225 -322.350567 
L 192.237392 -327.05976 
L 192.580967 -331.768952 
L 193.098793 -336.478144 
L 193.735707 -341.187337 
L 194.439568 -345.896529 
L 195.164372 -350.605721 
L 195.872503 -355.314913 
L 196.536015 -360.024106 
L 197.136954 -364.733298 
L 197.666856 -369.44249 
L 198.125631 -374.151683 
L 198.520101 -378.860875 
L 198.86241 -383.570067 
L 199.16853 -388.279259 
L 199.456952 -392.988452 
L 199.747614 -397.697644 
L 200.060994 -402.406836 
L 200.417288 -407.116029 
L 200.835554 -411.825221 
L 201.332759 -416.534413 
L 201.922699 -421.243605 
L 202.614861 -425.952798 
L 203.413377 -430.66199 
L 204.316213 -435.371182 
L 205.314829 -440.080375 
L 206.394424 -444.789567 
L 207.534865 -449.498759 
L 208.712264 -454.207951 
L 209.901074 -458.917144 
L 211.076461 -463.626336 
L 212.216682 -468.335528 
L 213.305149 -473.044721 
L 214.331909 -477.753913 
L 215.294358 -482.463105 
L 216.197092 -487.172297 
L 217.050922 -491.88149 
L 217.871201 -496.590682 
L 218.675691 -501.299874 
L 219.482227 -506.009067 
L 220.306497 -510.718259 
L 221.160177 -515.427451 
L 222.049637 -520.136643 
L 222.97534 -524.845836 
L 223.931959 -529.555028 
L 224.909155 -534.26422 
L 225.892877 -538.973413 
L 226.866996 -543.682605 
L 227.815039 -548.391797 
L 228.721819 -553.100989 
L 229.57477 -557.810182 
L 230.364846 -562.519374 
L 231.086934 -567.228566 
L 231.739778 -571.937759 
L 232.325486 -576.646951 
L 232.848737 -581.356143 
L 233.315841 -586.065335 
L 233.733782 -590.774528 
L 234.109384 -595.48372 
L 234.448676 -600.192912 
L 234.756515 -604.902105 
L 235.036455 -609.611297 
L 235.290836 -614.320489 
L 235.521023 -619.029681 
L 235.727735 -623.738874 
L 235.911388 -628.448066 
L 236.072392 -633.157258 
L 236.21138 -637.866451 
L 236.329336 -642.575643 
L 236.427634 -647.284835 
L 236.508001 -651.994027 
L 237.016999 -651.994027 
L 237.016999 -651.994027 
L 237.097366 -647.284835 
L 237.195664 -642.575643 
L 237.31362 -637.866451 
L 237.452608 -633.157258 
L 237.613612 -628.448066 
L 237.797265 -623.738874 
L 238.003977 -619.029681 
L 238.234164 -614.320489 
L 238.488545 -609.611297 
L 238.768485 -604.902105 
L 239.076324 -600.192912 
L 239.415616 -595.48372 
L 239.791218 -590.774528 
L 240.209159 -586.065335 
L 240.676263 -581.356143 
L 241.199514 -576.646951 
L 241.785222 -571.937759 
L 242.438066 -567.228566 
L 243.160154 -562.519374 
L 243.95023 -557.810182 
L 244.803181 -553.100989 
L 245.709961 -548.391797 
L 246.658004 -543.682605 
L 247.632123 -538.973413 
L 248.615845 -534.26422 
L 249.593041 -529.555028 
L 250.54966 -524.845836 
L 251.475363 -520.136643 
L 252.364823 -515.427451 
L 253.218503 -510.718259 
L 254.042773 -506.009067 
L 254.849309 -501.299874 
L 255.653799 -496.590682 
L 256.474078 -491.88149 
L 257.327908 -487.172297 
L 258.230642 -482.463105 
L 259.193091 -477.753913 
L 260.219851 -473.044721 
L 261.308318 -468.335528 
L 262.448539 -463.626336 
L 263.623926 -458.917144 
L 264.812736 -454.207951 
L 265.990135 -449.498759 
L 267.130576 -444.789567 
L 268.210171 -440.080375 
L 269.208787 -435.371182 
L 270.111623 -430.66199 
L 270.910139 -425.952798 
L 271.602301 -421.243605 
L 272.192241 -416.534413 
L 272.689446 -411.825221 
L 273.107712 -407.116029 
L 273.464006 -402.406836 
L 273.777386 -397.697644 
L 274.068048 -392.988452 
L 274.35647 -388.279259 
L 274.66259 -383.570067 
L 275.004899 -378.860875 
L 275.399369 -374.151683 
L 275.858144 -369.44249 
L 276.388046 -364.733298 
L 276.988985 -360.024106 
L 277.652497 -355.314913 
L 278.360628 -350.605721 
L 279.085432 -345.896529 
L 279.789293 -341.187337 
L 280.426207 -336.478144 
L 280.944033 -331.768952 
L 281.287608 -327.05976 
L 281.4025 -322.350567 
L 281.239053 -317.641375 
L 280.756353 -312.932183 
L 279.925712 -308.222991 
L 278.733324 -303.513798 
L 277.18181 -298.804606 
L 275.290514 -294.095414 
L 273.094507 -289.386221 
L 270.642426 -284.677029 
L 267.993353 -279.967837 
L 265.213054 -275.258645 
L 262.369921 -270.549452 
L 259.531002 -265.84026 
L 256.758414 -261.131068 
L 254.106436 -256.421875 
L 251.61943 -251.712683 
L 249.330677 -247.003491 
L 247.262095 -242.294299 
L 245.424758 -237.585106 
L 243.820016 -232.875914 
L 242.441068 -228.166722 
L 241.274746 -223.457529 
L 240.30336 -218.748337 
L 239.506429 -214.039145 
L 238.862218 -209.329953 
L 238.348984 -204.62076 
L 237.94594 -199.911568 
L 237.63392 -195.202376 
L 237.395786 -190.493183 
L 237.216619 -185.783991 
z
" style="stroke: #3d3d3d; stroke-opacity: 0.5"/>
    </defs>
    <g clip-path="url(#pb3a509105f)">
     <use xlink:href="#m958cb86fa3" x="0" y="722.183991" style="fill: #d684bd; fill-opacity: 0.5; stroke: #3d3d3d; stroke-opacity: 0.5"/>
    </g>
   </g>
   <g id="PolyCollection_3">
    <defs>
     <path id="m80dd4532e8" d="M 348.61736 -350.797736 
L 348.10764 -350.797736 
L 348.027095 -353.896055 
L 347.928438 -356.994375 
L 347.809824 -360.092695 
L 347.669718 -363.191014 
L 347.506927 -366.289334 
L 347.320544 -369.387654 
L 347.109804 -372.485973 
L 346.873826 -375.584293 
L 346.611259 -378.682613 
L 346.319851 -381.780932 
L 345.995999 -384.879252 
L 345.634328 -387.977572 
L 345.227383 -391.075891 
L 344.765506 -394.174211 
L 344.236958 -397.272531 
L 343.628324 -400.37085 
L 342.925229 -403.46917 
L 342.113324 -406.567489 
L 341.179492 -409.665809 
L 340.113173 -412.764129 
L 338.907701 -415.862448 
L 337.561494 -418.960768 
L 336.07899 -422.059088 
L 334.471177 -425.157407 
L 332.755645 -428.255727 
L 330.956093 -431.354047 
L 329.101291 -434.452366 
L 327.223553 -437.550686 
L 325.356818 -440.649006 
L 323.534507 -443.747325 
L 321.787321 -446.845645 
L 320.141185 -449.943965 
L 318.615534 -453.042284 
L 317.222084 -456.140604 
L 315.964217 -459.238924 
L 314.837045 -462.337243 
L 313.828146 -465.435563 
L 312.918936 -468.533883 
L 312.08659 -471.632202 
L 311.306353 -474.730522 
L 310.55411 -477.828841 
L 309.809004 -480.927161 
L 309.055909 -484.025481 
L 308.28754 -487.1238 
L 307.505983 -490.22212 
L 306.723455 -493.32044 
L 305.962144 -496.418759 
L 305.253038 -499.517079 
L 304.633757 -502.615399 
L 304.14551 -505.713718 
L 303.829411 -508.812038 
L 303.7225 -511.910358 
L 303.853878 -515.008677 
L 304.241401 -518.106997 
L 304.889334 -521.205317 
L 305.787274 -524.303636 
L 306.910511 -527.401956 
L 308.221807 -530.500276 
L 309.674414 -533.598595 
L 311.215967 -536.696915 
L 312.792799 -539.795235 
L 314.354179 -542.893554 
L 315.855998 -545.991874 
L 317.263546 -549.090193 
L 318.553141 -552.188513 
L 319.712562 -555.286833 
L 320.740387 -558.385152 
L 321.644474 -561.483472 
L 322.439899 -564.581792 
L 323.146672 -567.680111 
L 323.787552 -570.778431 
L 324.386163 -573.876751 
L 324.965557 -576.97507 
L 325.547222 -580.07339 
L 326.150498 -583.17171 
L 326.792254 -586.270029 
L 327.48671 -589.368349 
L 328.245271 -592.466669 
L 329.07628 -595.564988 
L 329.984698 -598.663308 
L 330.971715 -601.761628 
L 332.0344 -604.859947 
L 333.165477 -607.958267 
L 334.353358 -611.056587 
L 335.582485 -614.154906 
L 336.834029 -617.253226 
L 338.08691 -620.351545 
L 339.319063 -623.449865 
L 340.508821 -626.548185 
L 341.636275 -629.646504 
L 342.684462 -632.744824 
L 343.64027 -635.843144 
L 344.494974 -638.941463 
L 345.244383 -642.039783 
L 345.88862 -645.138103 
L 346.431585 -648.236422 
L 346.880213 -651.334742 
L 347.243616 -654.433062 
L 347.532202 -657.531381 
L 349.192798 -657.531381 
L 349.192798 -657.531381 
L 349.481384 -654.433062 
L 349.844787 -651.334742 
L 350.293415 -648.236422 
L 350.83638 -645.138103 
L 351.480617 -642.039783 
L 352.230026 -638.941463 
L 353.08473 -635.843144 
L 354.040538 -632.744824 
L 355.088725 -629.646504 
L 356.216179 -626.548185 
L 357.405937 -623.449865 
L 358.63809 -620.351545 
L 359.890971 -617.253226 
L 361.142515 -614.154906 
L 362.371642 -611.056587 
L 363.559523 -607.958267 
L 364.6906 -604.859947 
L 365.753285 -601.761628 
L 366.740302 -598.663308 
L 367.64872 -595.564988 
L 368.479729 -592.466669 
L 369.23829 -589.368349 
L 369.932746 -586.270029 
L 370.574502 -583.17171 
L 371.177778 -580.07339 
L 371.759443 -576.97507 
L 372.338837 -573.876751 
L 372.937448 -570.778431 
L 373.578328 -567.680111 
L 374.285101 -564.581792 
L 375.080526 -561.483472 
L 375.984613 -558.385152 
L 377.012438 -555.286833 
L 378.171859 -552.188513 
L 379.461454 -549.090193 
L 380.869002 -545.991874 
L 382.370821 -542.893554 
L 383.932201 -539.795235 
L 385.509033 -536.696915 
L 387.050586 -533.598595 
L 388.503193 -530.500276 
L 389.814489 -527.401956 
L 390.937726 -524.303636 
L 391.835666 -521.205317 
L 392.483599 -518.106997 
L 392.871122 -515.008677 
L 393.0025 -511.910358 
L 392.895589 -508.812038 
L 392.57949 -505.713718 
L 392.091243 -502.615399 
L 391.471962 -499.517079 
L 390.762856 -496.418759 
L 390.001545 -493.32044 
L 389.219017 -490.22212 
L 388.43746 -487.1238 
L 387.669091 -484.025481 
L 386.915996 -480.927161 
L 386.17089 -477.828841 
L 385.418647 -474.730522 
L 384.63841 -471.632202 
L 383.806064 -468.533883 
L 382.896854 -465.435563 
L 381.887955 -462.337243 
L 380.760783 -459.238924 
L 379.502916 -456.140604 
L 378.109466 -453.042284 
L 376.583815 -449.943965 
L 374.937679 -446.845645 
L 373.190493 -443.747325 
L 371.368182 -440.649006 
L 369.501447 -437.550686 
L 367.623709 -434.452366 
L 365.768907 -431.354047 
L 363.969355 -428.255727 
L 362.253823 -425.157407 
L 360.64601 -422.059088 
L 359.163506 -418.960768 
L 357.817299 -415.862448 
L 356.611827 -412.764129 
L 355.545508 -409.665809 
L 354.611676 -406.567489 
L 353.799771 -403.46917 
L 353.096676 -400.37085 
L 352.488042 -397.272531 
L 351.959494 -394.174211 
L 351.497617 -391.075891 
L 351.090672 -387.977572 
L 350.729001 -384.879252 
L 350.405149 -381.780932 
L 350.113741 -378.682613 
L 349.851174 -375.584293 
L 349.615196 -372.485973 
L 349.404456 -369.387654 
L 349.218073 -366.289334 
L 349.055282 -363.191014 
L 348.915176 -360.092695 
L 348.796562 -356.994375 
L 348.697905 -353.896055 
L 348.61736 -350.797736 
z
" style="stroke: #3d3d3d; stroke-opacity: 0.5"/>
    </defs>
    <g clip-path="url(#pb3a509105f)">
     <use xlink:href="#m80dd4532e8" x="0" y="722.183991" style="fill: #c03d3e; fill-opacity: 0.5; stroke: #3d3d3d; stroke-opacity: 0.5"/>
    </g>
   </g>
   <g id="PolyCollection_4">
    <defs>
     <path id="m1ad8aa6ad0" d="M 460.620457 -262.091704 
L 459.304543 -262.091704 
L 459.086235 -266.380422 
L 458.812705 -270.66914 
L 458.475686 -274.957858 
L 458.067265 -279.246576 
L 457.580313 -283.535293 
L 457.008917 -287.824011 
L 456.348751 -292.112729 
L 455.597335 -296.401447 
L 454.754154 -300.690165 
L 453.820573 -304.978882 
L 452.799567 -309.2676 
L 451.695263 -313.556318 
L 450.512347 -317.845036 
L 449.255413 -322.133753 
L 447.928347 -326.422471 
L 446.533855 -330.711189 
L 445.073234 -334.999907 
L 443.546467 -339.288625 
L 441.952688 -343.577342 
L 440.290997 -347.86606 
L 438.561579 -352.154778 
L 436.766993 -356.443496 
L 434.913481 -360.732214 
L 433.012101 -365.020931 
L 431.079496 -369.309649 
L 429.138126 -373.598367 
L 427.21586 -377.887085 
L 425.344867 -382.175802 
L 423.559854 -386.46452 
L 421.895797 -390.753238 
L 420.385349 -395.041956 
L 419.056214 -399.330674 
L 417.928768 -403.619391 
L 417.014203 -407.908109 
L 416.313434 -412.196827 
L 415.816909 -416.485545 
L 415.505378 -420.774263 
L 415.351553 -425.06298 
L 415.3225 -429.351698 
L 415.382526 -433.640416 
L 415.496266 -437.929134 
L 415.631662 -442.217852 
L 415.762562 -446.506569 
L 415.870699 -450.795287 
L 415.94689 -455.084005 
L 415.991402 -459.372723 
L 416.013462 -463.66144 
L 416.030035 -467.950158 
L 416.063974 -472.238876 
L 416.141759 -476.527594 
L 416.291008 -480.816312 
L 416.537977 -485.105029 
L 416.90523 -489.393747 
L 417.409662 -493.682465 
L 418.061004 -497.971183 
L 418.860902 -502.259901 
L 419.802636 -506.548618 
L 420.871486 -510.837336 
L 422.045712 -515.126054 
L 423.298073 -519.414772 
L 424.597778 -523.703489 
L 425.912722 -527.992207 
L 427.211829 -532.280925 
L 428.467326 -536.569643 
L 429.65677 -540.858361 
L 430.764643 -545.147078 
L 431.783394 -549.435796 
L 432.713817 -553.724514 
L 433.564741 -558.013232 
L 434.352049 -562.30195 
L 435.097104 -566.590667 
L 435.824742 -570.879385 
L 436.561009 -575.168103 
L 437.33085 -579.456821 
L 438.155977 -583.745539 
L 439.053086 -588.034256 
L 440.032593 -592.322974 
L 441.097961 -596.611692 
L 442.245655 -600.90041 
L 443.465673 -605.189127 
L 444.742562 -609.477845 
L 446.056786 -613.766563 
L 447.386288 -618.055281 
L 448.708086 -622.343999 
L 449.99977 -626.632716 
L 451.240787 -630.921434 
L 452.413439 -635.210152 
L 453.503562 -639.49887 
L 454.500882 -643.787588 
L 455.39907 -648.076305 
L 456.195552 -652.365023 
L 456.891121 -656.653741 
L 457.489421 -660.942459 
L 457.99635 -665.231176 
L 458.41945 -669.519894 
L 458.76731 -673.808612 
L 459.049028 -678.09733 
L 459.273749 -682.386048 
L 459.450293 -686.674765 
L 460.474707 -686.674765 
L 460.474707 -686.674765 
L 460.651251 -682.386048 
L 460.875972 -678.09733 
L 461.15769 -673.808612 
L 461.50555 -669.519894 
L 461.92865 -665.231176 
L 462.435579 -660.942459 
L 463.033879 -656.653741 
L 463.729448 -652.365023 
L 464.52593 -648.076305 
L 465.424118 -643.787588 
L 466.421438 -639.49887 
L 467.511561 -635.210152 
L 468.684213 -630.921434 
L 469.92523 -626.632716 
L 471.216914 -622.343999 
L 472.538712 -618.055281 
L 473.868214 -613.766563 
L 475.182438 -609.477845 
L 476.459327 -605.189127 
L 477.679345 -600.90041 
L 478.827039 -596.611692 
L 479.892407 -592.322974 
L 480.871914 -588.034256 
L 481.769023 -583.745539 
L 482.59415 -579.456821 
L 483.363991 -575.168103 
L 484.100258 -570.879385 
L 484.827896 -566.590667 
L 485.572951 -562.30195 
L 486.360259 -558.013232 
L 487.211183 -553.724514 
L 488.141606 -549.435796 
L 489.160357 -545.147078 
L 490.26823 -540.858361 
L 491.457674 -536.569643 
L 492.713171 -532.280925 
L 494.012278 -527.992207 
L 495.327222 -523.703489 
L 496.626927 -519.414772 
L 497.879288 -515.126054 
L 499.053514 -510.837336 
L 500.122364 -506.548618 
L 501.064098 -502.259901 
L 501.863996 -497.971183 
L 502.515338 -493.682465 
L 503.01977 -489.393747 
L 503.387023 -485.105029 
L 503.633992 -480.816312 
L 503.783241 -476.527594 
L 503.861026 -472.238876 
L 503.894965 -467.950158 
L 503.911538 -463.66144 
L 503.933598 -459.372723 
L 503.97811 -455.084005 
L 504.054301 -450.795287 
L 504.162438 -446.506569 
L 504.293338 -442.217852 
L 504.428734 -437.929134 
L 504.542474 -433.640416 
L 504.6025 -429.351698 
L 504.573447 -425.06298 
L 504.419622 -420.774263 
L 504.108091 -416.485545 
L 503.611566 -412.196827 
L 502.910797 -407.908109 
L 501.996232 -403.619391 
L 500.868786 -399.330674 
L 499.539651 -395.041956 
L 498.029203 -390.753238 
L 496.365146 -386.46452 
L 494.580133 -382.175802 
L 492.70914 -377.887085 
L 490.786874 -373.598367 
L 488.845504 -369.309649 
L 486.912899 -365.020931 
L 485.011519 -360.732214 
L 483.158007 -356.443496 
L 481.363421 -352.154778 
L 479.634003 -347.86606 
L 477.972312 -343.577342 
L 476.378533 -339.288625 
L 474.851766 -334.999907 
L 473.391145 -330.711189 
L 471.996653 -326.422471 
L 470.669587 -322.133753 
L 469.412653 -317.845036 
L 468.229737 -313.556318 
L 467.125433 -309.2676 
L 466.104427 -304.978882 
L 465.170846 -300.690165 
L 464.327665 -296.401447 
L 463.576249 -292.112729 
L 462.916083 -287.824011 
L 462.344687 -283.535293 
L 461.857735 -279.246576 
L 461.449314 -274.957858 
L 461.112295 -270.66914 
L 460.838765 -266.380422 
L 460.620457 -262.091704 
z
" style="stroke: #3d3d3d; stroke-opacity: 0.5"/>
    </defs>
    <g clip-path="url(#pb3a509105f)">
     <use xlink:href="#m1ad8aa6ad0" x="0" y="722.183991" style="fill: #9372b2; fill-opacity: 0.5; stroke: #3d3d3d; stroke-opacity: 0.5"/>
    </g>
   </g>
   <g id="PolyCollection_5">
    <defs>
     <path id="m94eb4cfc9c" d="M 571.998194 -229.589969 
L 571.126806 -229.589969 
L 570.969868 -234.238393 
L 570.767306 -238.886818 
L 570.509583 -243.535242 
L 570.18624 -248.183667 
L 569.78608 -252.832091 
L 569.297417 -257.480516 
L 568.708416 -262.12894 
L 568.0075 -266.777364 
L 567.183841 -271.425789 
L 566.22793 -276.074213 
L 565.132211 -280.722638 
L 563.891769 -285.371062 
L 562.505046 -290.019487 
L 560.97454 -294.667911 
L 559.307427 -299.316336 
L 557.516037 -303.96476 
L 555.618094 -308.613185 
L 553.636639 -313.261609 
L 551.599559 -317.910034 
L 549.538677 -322.558458 
L 547.488404 -327.206883 
L 545.484003 -331.855307 
L 543.559584 -336.503732 
L 541.74599 -341.152156 
L 540.068795 -345.80058 
L 538.546619 -350.449005 
L 537.189976 -355.097429 
L 536.000797 -359.745854 
L 534.972705 -364.394278 
L 534.092019 -369.042703 
L 533.339388 -373.691127 
L 532.691839 -378.339552 
L 532.125039 -382.987976 
L 531.615478 -387.636401 
L 531.142387 -392.284825 
L 530.689189 -396.93325 
L 530.244406 -401.581674 
L 529.801999 -406.230099 
L 529.361195 -410.878523 
L 528.925909 -415.526947 
L 528.503892 -420.175372 
L 528.105741 -424.823796 
L 527.743886 -429.472221 
L 527.431641 -434.120645 
L 527.182376 -438.76907 
L 527.00882 -443.417494 
L 526.9225 -448.065919 
L 526.933302 -452.714343 
L 527.049123 -457.362768 
L 527.275609 -462.011192 
L 527.615967 -466.659617 
L 528.070851 -471.308041 
L 528.638339 -475.956466 
L 529.314006 -480.60489 
L 530.091129 -485.253314 
L 530.961009 -489.901739 
L 531.913429 -494.550163 
L 532.93722 -499.198588 
L 534.020905 -503.847012 
L 535.153353 -508.495437 
L 536.324397 -513.143861 
L 537.525317 -517.792286 
L 538.74915 -522.44071 
L 539.990751 -527.089135 
L 541.246622 -531.737559 
L 542.514503 -536.385984 
L 543.792808 -541.034408 
L 545.079979 -545.682833 
L 546.373877 -550.331257 
L 547.67132 -554.979682 
L 548.96783 -559.628106 
L 550.25767 -564.27653 
L 551.534132 -568.924955 
L 552.790054 -573.573379 
L 554.018458 -578.221804 
L 555.213202 -582.870228 
L 556.369523 -587.518653 
L 557.484383 -592.167077 
L 558.55655 -596.815502 
L 559.586408 -601.463926 
L 560.575528 -606.112351 
L 561.526083 -610.760775 
L 562.440206 -615.4092 
L 563.319397 -620.057624 
L 564.164073 -624.706049 
L 564.973334 -629.354473 
L 565.74496 -634.002897 
L 566.475636 -638.651322 
L 567.161358 -643.299746 
L 567.797937 -647.948171 
L 568.381542 -652.596595 
L 568.909186 -657.24502 
L 569.379099 -661.893444 
L 569.790959 -666.541869 
L 570.145957 -671.190293 
L 570.446703 -675.838718 
L 570.697019 -680.487142 
L 570.901643 -685.135567 
L 571.06589 -689.783991 
L 572.05911 -689.783991 
L 572.05911 -689.783991 
L 572.223357 -685.135567 
L 572.427981 -680.487142 
L 572.678297 -675.838718 
L 572.979043 -671.190293 
L 573.334041 -666.541869 
L 573.745901 -661.893444 
L 574.215814 -657.24502 
L 574.743458 -652.596595 
L 575.327063 -647.948171 
L 575.963642 -643.299746 
L 576.649364 -638.651322 
L 577.38004 -634.002897 
L 578.151666 -629.354473 
L 578.960927 -624.706049 
L 579.805603 -620.057624 
L 580.684794 -615.4092 
L 581.598917 -610.760775 
L 582.549472 -606.112351 
L 583.538592 -601.463926 
L 584.56845 -596.815502 
L 585.640617 -592.167077 
L 586.755477 -587.518653 
L 587.911798 -582.870228 
L 589.106542 -578.221804 
L 590.334946 -573.573379 
L 591.590868 -568.924955 
L 592.86733 -564.27653 
L 594.15717 -559.628106 
L 595.45368 -554.979682 
L 596.751123 -550.331257 
L 598.045021 -545.682833 
L 599.332192 -541.034408 
L 600.610497 -536.385984 
L 601.878378 -531.737559 
L 603.134249 -527.089135 
L 604.37585 -522.44071 
L 605.599683 -517.792286 
L 606.800603 -513.143861 
L 607.971647 -508.495437 
L 609.104095 -503.847012 
L 610.18778 -499.198588 
L 611.211571 -494.550163 
L 612.163991 -489.901739 
L 613.033871 -485.253314 
L 613.810994 -480.60489 
L 614.486661 -475.956466 
L 615.054149 -471.308041 
L 615.509033 -466.659617 
L 615.849391 -462.011192 
L 616.075877 -457.362768 
L 616.191698 -452.714343 
L 616.2025 -448.065919 
L 616.11618 -443.417494 
L 615.942624 -438.76907 
L 615.693359 -434.120645 
L 615.381114 -429.472221 
L 615.019259 -424.823796 
L 614.621108 -420.175372 
L 614.199091 -415.526947 
L 613.763805 -410.878523 
L 613.323001 -406.230099 
L 612.880594 -401.581674 
L 612.435811 -396.93325 
L 611.982613 -392.284825 
L 611.509522 -387.636401 
L 610.999961 -382.987976 
L 610.433161 -378.339552 
L 609.785612 -373.691127 
L 609.032981 -369.042703 
L 608.152295 -364.394278 
L 607.124203 -359.745854 
L 605.935024 -355.097429 
L 604.578381 -350.449005 
L 603.056205 -345.80058 
L 601.37901 -341.152156 
L 599.565416 -336.503732 
L 597.640997 -331.855307 
L 595.636596 -327.206883 
L 593.586323 -322.558458 
L 591.525441 -317.910034 
L 589.488361 -313.261609 
L 587.506906 -308.613185 
L 585.608963 -303.96476 
L 583.817573 -299.316336 
L 582.15046 -294.667911 
L 580.619954 -290.019487 
L 579.233231 -285.371062 
L 577.992789 -280.722638 
L 576.89707 -276.074213 
L 575.941159 -271.425789 
L 575.1175 -266.777364 
L 574.416584 -262.12894 
L 573.827583 -257.480516 
L 573.33892 -252.832091 
L 572.93876 -248.183667 
L 572.615417 -243.535242 
L 572.357694 -238.886818 
L 572.155132 -234.238393 
L 571.998194 -229.589969 
z
" style="stroke: #3d3d3d; stroke-opacity: 0.5"/>
    </defs>
    <g clip-path="url(#pb3a509105f)">
     <use xlink:href="#m94eb4cfc9c" x="0" y="722.183991" style="fill: #845b53; fill-opacity: 0.5; stroke: #3d3d3d; stroke-opacity: 0.5"/>
    </g>
   </g>
   <g id="PolyCollection_6">
    <defs>
     <path id="mb6740d5be1" d="M 684.119044 -244.43086 
L 682.205956 -244.43086 
L 681.890658 -248.575611 
L 681.495588 -252.720363 
L 681.008293 -256.865114 
L 680.416404 -261.009865 
L 679.708123 -265.154616 
L 678.872724 -269.299367 
L 677.901032 -273.444118 
L 676.785856 -277.58887 
L 675.522353 -281.733621 
L 674.108331 -285.878372 
L 672.544493 -290.023123 
L 670.834651 -294.167874 
L 668.985952 -298.312625 
L 667.009105 -302.457377 
L 664.918645 -306.602128 
L 662.733184 -310.746879 
L 660.475599 -314.89163 
L 658.173079 -319.036381 
L 655.856924 -323.181132 
L 653.562005 -327.325884 
L 651.325819 -331.470635 
L 649.18712 -335.615386 
L 647.184165 -339.760137 
L 645.35269 -343.904888 
L 643.723784 -348.049639 
L 642.321865 -352.19439 
L 641.162993 -356.339142 
L 640.253702 -360.483893 
L 639.590502 -364.628644 
L 639.16012 -368.773395 
L 638.940463 -372.918146 
L 638.902188 -377.062897 
L 639.010727 -381.207649 
L 639.228538 -385.3524 
L 639.517369 -389.497151 
L 639.840347 -393.641902 
L 640.163721 -397.786653 
L 640.458191 -401.931404 
L 640.699796 -406.076156 
L 640.870399 -410.220907 
L 640.957854 -414.365658 
L 640.95597 -418.510409 
L 640.864354 -422.65516 
L 640.688232 -426.799911 
L 640.438274 -430.944663 
L 640.130418 -435.089414 
L 639.78563 -439.234165 
L 639.429528 -443.378916 
L 639.091756 -447.523667 
L 638.805031 -451.668418 
L 638.603795 -455.81317 
L 638.5225 -459.957921 
L 638.593571 -464.102672 
L 638.845212 -468.247423 
L 639.299247 -472.392174 
L 639.969219 -476.536925 
L 640.859004 -480.681677 
L 641.962105 -484.826428 
L 643.26179 -488.971179 
L 644.732089 -493.11593 
L 646.339586 -497.260681 
L 648.045846 -501.405432 
L 649.810223 -505.550183 
L 651.592769 -509.694935 
L 653.356929 -513.839686 
L 655.071771 -517.984437 
L 656.713545 -522.129188 
L 658.266469 -526.273939 
L 659.722726 -530.41869 
L 661.081764 -534.563442 
L 662.349042 -538.708193 
L 663.534434 -542.852944 
L 664.650506 -546.997695 
L 665.710854 -551.142446 
L 666.728664 -555.287197 
L 667.715601 -559.431949 
L 668.681068 -563.5767 
L 669.631819 -567.721451 
L 670.57189 -571.866202 
L 671.502761 -576.010953 
L 672.423667 -580.155704 
L 673.331999 -584.300456 
L 674.22373 -588.445207 
L 675.093818 -592.589958 
L 675.9366 -596.734709 
L 676.746137 -600.87946 
L 677.516548 -605.024211 
L 678.242308 -609.168963 
L 678.918536 -613.313714 
L 679.541238 -617.458465 
L 680.107523 -621.603216 
L 680.615746 -625.747967 
L 681.065586 -629.892718 
L 681.458046 -634.037469 
L 681.79536 -638.182221 
L 682.080842 -642.326972 
L 682.318663 -646.471723 
L 682.513603 -650.616474 
L 682.670786 -654.761225 
L 683.654214 -654.761225 
L 683.654214 -654.761225 
L 683.811397 -650.616474 
L 684.006337 -646.471723 
L 684.244158 -642.326972 
L 684.52964 -638.182221 
L 684.866954 -634.037469 
L 685.259414 -629.892718 
L 685.709254 -625.747967 
L 686.217477 -621.603216 
L 686.783762 -617.458465 
L 687.406464 -613.313714 
L 688.082692 -609.168963 
L 688.808452 -605.024211 
L 689.578863 -600.87946 
L 690.3884 -596.734709 
L 691.231182 -592.589958 
L 692.10127 -588.445207 
L 692.993001 -584.300456 
L 693.901333 -580.155704 
L 694.822239 -576.010953 
L 695.75311 -571.866202 
L 696.693181 -567.721451 
L 697.643932 -563.5767 
L 698.609399 -559.431949 
L 699.596336 -555.287197 
L 700.614146 -551.142446 
L 701.674494 -546.997695 
L 702.790566 -542.852944 
L 703.975958 -538.708193 
L 705.243236 -534.563442 
L 706.602274 -530.41869 
L 708.058531 -526.273939 
L 709.611455 -522.129188 
L 711.253229 -517.984437 
L 712.968071 -513.839686 
L 714.732231 -509.694935 
L 716.514777 -505.550183 
L 718.279154 -501.405432 
L 719.985414 -497.260681 
L 721.592911 -493.11593 
L 723.06321 -488.971179 
L 724.362895 -484.826428 
L 725.465996 -480.681677 
L 726.355781 -476.536925 
L 727.025753 -472.392174 
L 727.479788 -468.247423 
L 727.731429 -464.102672 
L 727.8025 -459.957921 
L 727.721205 -455.81317 
L 727.519969 -451.668418 
L 727.233244 -447.523667 
L 726.895472 -443.378916 
L 726.53937 -439.234165 
L 726.194582 -435.089414 
L 725.886726 -430.944663 
L 725.636768 -426.799911 
L 725.460646 -422.65516 
L 725.36903 -418.510409 
L 725.367146 -414.365658 
L 725.454601 -410.220907 
L 725.625204 -406.076156 
L 725.866809 -401.931404 
L 726.161279 -397.786653 
L 726.484653 -393.641902 
L 726.807631 -389.497151 
L 727.096462 -385.3524 
L 727.314273 -381.207649 
L 727.422812 -377.062897 
L 727.384537 -372.918146 
L 727.16488 -368.773395 
L 726.734498 -364.628644 
L 726.071298 -360.483893 
L 725.162007 -356.339142 
L 724.003135 -352.19439 
L 722.601216 -348.049639 
L 720.97231 -343.904888 
L 719.140835 -339.760137 
L 717.13788 -335.615386 
L 714.999181 -331.470635 
L 712.762995 -327.325884 
L 710.468076 -323.181132 
L 708.151921 -319.036381 
L 705.849401 -314.89163 
L 703.591816 -310.746879 
L 701.406355 -306.602128 
L 699.315895 -302.457377 
L 697.339048 -298.312625 
L 695.490349 -294.167874 
L 693.780507 -290.023123 
L 692.216669 -285.878372 
L 690.802647 -281.733621 
L 689.539144 -277.58887 
L 688.423968 -273.444118 
L 687.452276 -269.299367 
L 686.616877 -265.154616 
L 685.908596 -261.009865 
L 685.316707 -256.865114 
L 684.829412 -252.720363 
L 684.434342 -248.575611 
L 684.119044 -244.43086 
z
" style="stroke: #3d3d3d; stroke-opacity: 0.5"/>
    </defs>
    <g clip-path="url(#pb3a509105f)">
     <use xlink:href="#mb6740d5be1" x="0" y="722.183991" style="fill: #e1812c; fill-opacity: 0.5; stroke: #3d3d3d; stroke-opacity: 0.5"/>
    </g>
   </g>
   <g id="PolyCollection_7">
    <defs>
     <path id="m720228f614" d="M 795.669482 -231.883996 
L 793.855518 -231.883996 
L 793.546763 -236.425427 
L 793.156574 -240.966859 
L 792.671293 -245.50829 
L 792.077107 -250.049721 
L 791.360584 -254.591153 
L 790.509243 -259.132584 
L 789.512144 -263.674015 
L 788.360445 -268.215447 
L 787.047918 -272.756878 
L 785.571405 -277.298309 
L 783.93122 -281.839741 
L 782.131504 -286.381172 
L 780.180566 -290.922603 
L 778.091216 -295.464035 
L 775.881084 -300.005466 
L 773.572918 -304.546897 
L 771.194775 -309.088329 
L 768.780053 -313.62976 
L 766.367226 -318.171191 
L 763.999198 -322.712623 
L 761.722175 -327.254054 
L 759.584008 -331.795485 
L 757.632024 -336.336917 
L 755.910433 -340.878348 
L 754.457471 -345.419779 
L 753.302513 -349.961211 
L 752.463427 -354.502642 
L 751.944463 -359.044073 
L 751.734932 -363.585505 
L 751.808908 -368.126936 
L 752.126068 -372.668367 
L 752.633688 -377.209799 
L 753.269725 -381.75123 
L 753.966744 -386.292661 
L 754.656417 -390.834093 
L 755.27421 -395.375524 
L 755.763844 -399.916955 
L 756.081157 -404.458387 
L 756.19702 -408.999818 
L 756.099052 -413.541249 
L 755.79202 -418.082681 
L 755.296916 -422.624112 
L 754.648861 -427.165543 
L 753.894056 -431.706975 
L 753.08613 -436.248406 
L 752.282218 -440.789837 
L 751.53912 -445.331269 
L 750.909835 -449.8727 
L 750.440687 -454.414131 
L 750.169163 -458.955563 
L 750.1225 -463.496994 
L 750.316991 -468.038426 
L 750.757923 -472.579857 
L 751.440051 -477.121288 
L 752.348522 -481.66272 
L 753.460153 -486.204151 
L 754.745028 -490.745582 
L 756.168353 -495.287014 
L 757.692518 -499.828445 
L 759.279292 -504.369876 
L 760.89205 -508.911308 
L 762.497883 -513.452739 
L 764.069434 -517.99417 
L 765.586294 -522.535602 
L 767.035805 -527.077033 
L 768.413179 -531.618464 
L 769.720917 -536.159896 
L 770.96757 -540.701327 
L 772.165991 -545.242758 
L 773.331276 -549.78419 
L 774.478634 -554.325621 
L 775.621433 -558.867052 
L 776.769625 -563.408484 
L 777.928719 -567.949915 
L 779.099361 -572.491346 
L 780.27753 -577.032778 
L 781.45525 -581.574209 
L 782.62168 -586.11564 
L 783.76441 -590.657072 
L 784.870761 -595.198503 
L 785.928952 -599.739934 
L 786.929002 -604.281366 
L 787.8633 -608.822797 
L 788.726845 -613.364228 
L 789.51718 -617.90566 
L 790.234103 -622.447091 
L 790.879232 -626.988522 
L 791.455521 -631.529954 
L 791.966797 -636.071385 
L 792.417365 -640.612816 
L 792.811723 -645.154248 
L 793.154366 -649.695679 
L 793.449695 -654.23711 
L 793.701976 -658.778542 
L 793.915346 -663.319973 
L 794.093825 -667.861404 
L 794.241323 -672.402836 
L 794.361632 -676.944267 
L 794.458402 -681.485698 
L 795.066598 -681.485698 
L 795.066598 -681.485698 
L 795.163368 -676.944267 
L 795.283677 -672.402836 
L 795.431175 -667.861404 
L 795.609654 -663.319973 
L 795.823024 -658.778542 
L 796.075305 -654.23711 
L 796.370634 -649.695679 
L 796.713277 -645.154248 
L 797.107635 -640.612816 
L 797.558203 -636.071385 
L 798.069479 -631.529954 
L 798.645768 -626.988522 
L 799.290897 -622.447091 
L 800.00782 -617.90566 
L 800.798155 -613.364228 
L 801.6617 -608.822797 
L 802.595998 -604.281366 
L 803.596048 -599.739934 
L 804.654239 -595.198503 
L 805.76059 -590.657072 
L 806.90332 -586.11564 
L 808.06975 -581.574209 
L 809.24747 -577.032778 
L 810.425639 -572.491346 
L 811.596281 -567.949915 
L 812.755375 -563.408484 
L 813.903567 -558.867052 
L 815.046366 -554.325621 
L 816.193724 -549.78419 
L 817.359009 -545.242758 
L 818.55743 -540.701327 
L 819.804083 -536.159896 
L 821.111821 -531.618464 
L 822.489195 -527.077033 
L 823.938706 -522.535602 
L 825.455566 -517.99417 
L 827.027117 -513.452739 
L 828.63295 -508.911308 
L 830.245708 -504.369876 
L 831.832482 -499.828445 
L 833.356647 -495.287014 
L 834.779972 -490.745582 
L 836.064847 -486.204151 
L 837.176478 -481.66272 
L 838.084949 -477.121288 
L 838.767077 -472.579857 
L 839.208009 -468.038426 
L 839.4025 -463.496994 
L 839.355837 -458.955563 
L 839.084313 -454.414131 
L 838.615165 -449.8727 
L 837.98588 -445.331269 
L 837.242782 -440.789837 
L 836.43887 -436.248406 
L 835.630944 -431.706975 
L 834.876139 -427.165543 
L 834.228084 -422.624112 
L 833.73298 -418.082681 
L 833.425948 -413.541249 
L 833.32798 -408.999818 
L 833.443843 -404.458387 
L 833.761156 -399.916955 
L 834.25079 -395.375524 
L 834.868583 -390.834093 
L 835.558256 -386.292661 
L 836.255275 -381.75123 
L 836.891312 -377.209799 
L 837.398932 -372.668367 
L 837.716092 -368.126936 
L 837.790068 -363.585505 
L 837.580537 -359.044073 
L 837.061573 -354.502642 
L 836.222487 -349.961211 
L 835.067529 -345.419779 
L 833.614567 -340.878348 
L 831.892976 -336.336917 
L 829.940992 -331.795485 
L 827.802825 -327.254054 
L 825.525802 -322.712623 
L 823.157774 -318.171191 
L 820.744947 -313.62976 
L 818.330225 -309.088329 
L 815.952082 -304.546897 
L 813.643916 -300.005466 
L 811.433784 -295.464035 
L 809.344434 -290.922603 
L 807.393496 -286.381172 
L 805.59378 -281.839741 
L 803.953595 -277.298309 
L 802.477082 -272.756878 
L 801.164555 -268.215447 
L 800.012856 -263.674015 
L 799.015757 -259.132584 
L 798.164416 -254.591153 
L 797.447893 -250.049721 
L 796.853707 -245.50829 
L 796.368426 -240.966859 
L 795.978237 -236.425427 
L 795.669482 -231.883996 
z
" style="stroke: #3d3d3d; stroke-opacity: 0.5"/>
    </defs>
    <g clip-path="url(#pb3a509105f)">
     <use xlink:href="#m720228f614" x="0" y="722.183991" style="fill: #3a923a; fill-opacity: 0.5; stroke: #3d3d3d; stroke-opacity: 0.5"/>
    </g>
   </g>
   <g id="line2d_7">
    <path d="M 125.1625 394.922176 
L 125.1625 128.763527 
" clip-path="url(#pb3a509105f)" style="fill: none; stroke: #3d3d3d; stroke-width: 1.5; stroke-linecap: round"/>
   </g>
   <g id="line2d_8">
    <path d="M 125.1625 306.273445 
L 125.1625 193.032726 
" clip-path="url(#pb3a509105f)" style="fill: none; stroke: #3d3d3d; stroke-width: 4.5; stroke-linecap: round"/>
   </g>
   <g id="line2d_9">
    <path d="M 125.1625 245.379824 
" clip-path="url(#pb3a509105f)" style="fill: none; stroke: #3d3d3d; stroke-width: 1.5; stroke-linecap: round"/>
    <defs>
     <path id="m813383d273" d="M 1.875 0 
L -1.875 -0 
" style="stroke: #ffffff; stroke-width: 0.9"/>
    </defs>
    <g clip-path="url(#pb3a509105f)">
     <use xlink:href="#m813383d273" x="125.1625" y="245.379824" style="fill: #ffffff; stroke: #ffffff; stroke-width: 0.9"/>
    </g>
   </g>
   <g id="line2d_10">
    <path d="M 236.7625 468.162611 
L 236.7625 138.427353 
" clip-path="url(#pb3a509105f)" style="fill: none; stroke: #3d3d3d; stroke-width: 1.5; stroke-linecap: round"/>
   </g>
   <g id="line2d_11">
    <path d="M 236.7625 405.117067 
L 236.7625 287.22407 
" clip-path="url(#pb3a509105f)" style="fill: none; stroke: #3d3d3d; stroke-width: 4.5; stroke-linecap: round"/>
   </g>
   <g id="line2d_12">
    <path d="M 236.7625 348.106876 
" clip-path="url(#pb3a509105f)" style="fill: none; stroke: #3d3d3d; stroke-width: 1.5; stroke-linecap: round"/>
    <g clip-path="url(#pb3a509105f)">
     <use xlink:href="#m813383d273" x="236.7625" y="348.106876" style="fill: #ffffff; stroke: #ffffff; stroke-width: 0.9"/>
    </g>
   </g>
   <g id="line2d_13">
    <path d="M 348.3625 326.327505 
L 348.3625 109.71136 
" clip-path="url(#pb3a509105f)" style="fill: none; stroke: #3d3d3d; stroke-width: 1.5; stroke-linecap: round"/>
   </g>
   <g id="line2d_14">
    <path d="M 348.3625 246.023134 
L 348.3625 170.240303 
" clip-path="url(#pb3a509105f)" style="fill: none; stroke: #3d3d3d; stroke-width: 4.5; stroke-linecap: round"/>
   </g>
   <g id="line2d_15">
    <path d="M 348.3625 207.862331 
" clip-path="url(#pb3a509105f)" style="fill: none; stroke: #3d3d3d; stroke-width: 1.5; stroke-linecap: round"/>
    <g clip-path="url(#pb3a509105f)">
     <use xlink:href="#m813383d273" x="348.3625" y="207.862331" style="fill: #ffffff; stroke: #ffffff; stroke-width: 0.9"/>
    </g>
   </g>
   <g id="line2d_16">
    <path d="M 459.9625 394.469682 
L 459.9625 101.13183 
" clip-path="url(#pb3a509105f)" style="fill: none; stroke: #3d3d3d; stroke-width: 1.5; stroke-linecap: round"/>
   </g>
   <g id="line2d_17">
    <path d="M 459.9625 312.749895 
L 459.9625 206.420269 
" clip-path="url(#pb3a509105f)" style="fill: none; stroke: #3d3d3d; stroke-width: 4.5; stroke-linecap: round"/>
   </g>
   <g id="line2d_18">
    <path d="M 459.9625 256.854401 
" clip-path="url(#pb3a509105f)" style="fill: none; stroke: #3d3d3d; stroke-width: 1.5; stroke-linecap: round"/>
    <g clip-path="url(#pb3a509105f)">
     <use xlink:href="#m813383d273" x="459.9625" y="256.854401" style="fill: #ffffff; stroke: #ffffff; stroke-width: 0.9"/>
    </g>
   </g>
   <g id="line2d_19">
    <path d="M 571.5625 423.433404 
L 571.5625 101.560618 
" clip-path="url(#pb3a509105f)" style="fill: none; stroke: #3d3d3d; stroke-width: 1.5; stroke-linecap: round"/>
   </g>
   <g id="line2d_20">
    <path d="M 571.5625 338.409787 
L 571.5625 215.851719 
" clip-path="url(#pb3a509105f)" style="fill: none; stroke: #3d3d3d; stroke-width: 4.5; stroke-linecap: round"/>
   </g>
   <g id="line2d_21">
    <path d="M 571.5625 277.304817 
" clip-path="url(#pb3a509105f)" style="fill: none; stroke: #3d3d3d; stroke-width: 1.5; stroke-linecap: round"/>
    <g clip-path="url(#pb3a509105f)">
     <use xlink:href="#m813383d273" x="571.5625" y="277.304817" style="fill: #ffffff; stroke: #ffffff; stroke-width: 0.9"/>
    </g>
   </g>
   <g id="line2d_22">
    <path d="M 683.1625 414.16016 
L 683.1625 131.015736 
" clip-path="url(#pb3a509105f)" style="fill: none; stroke: #3d3d3d; stroke-width: 1.5; stroke-linecap: round"/>
   </g>
   <g id="line2d_23">
    <path d="M 683.1625 356.031634 
L 683.1625 239.137893 
" clip-path="url(#pb3a509105f)" style="fill: none; stroke: #3d3d3d; stroke-width: 4.5; stroke-linecap: round"/>
   </g>
   <g id="line2d_24">
    <path d="M 683.1625 292.39957 
" clip-path="url(#pb3a509105f)" style="fill: none; stroke: #3d3d3d; stroke-width: 1.5; stroke-linecap: round"/>
    <g clip-path="url(#pb3a509105f)">
     <use xlink:href="#m813383d273" x="683.1625" y="292.39957" style="fill: #ffffff; stroke: #ffffff; stroke-width: 0.9"/>
    </g>
   </g>
   <g id="line2d_25">
    <path d="M 794.7625 421.602053 
L 794.7625 109.396235 
" clip-path="url(#pb3a509105f)" style="fill: none; stroke: #3d3d3d; stroke-width: 1.5; stroke-linecap: round"/>
   </g>
   <g id="line2d_26">
    <path d="M 794.7625 359.141551 
L 794.7625 236.65572 
" clip-path="url(#pb3a509105f)" style="fill: none; stroke: #3d3d3d; stroke-width: 4.5; stroke-linecap: round"/>
   </g>
   <g id="line2d_27">
    <path d="M 794.7625 279.699978 
" clip-path="url(#pb3a509105f)" style="fill: none; stroke: #3d3d3d; stroke-width: 1.5; stroke-linecap: round"/>
    <g clip-path="url(#pb3a509105f)">
     <use xlink:href="#m813383d273" x="794.7625" y="279.699978" style="fill: #ffffff; stroke: #ffffff; stroke-width: 0.9"/>
    </g>
   </g>
   <g id="patch_3">
    <path d="M 69.3625 561.6 
L 850.5625 561.6 
" style="fill: none; stroke: #cccccc; stroke-width: 0.8; stroke-linejoin: miter; stroke-linecap: square"/>
   </g>
  </g>
 </g>
 <defs>
  <clipPath id="pb3a509105f">
   <rect x="69.3625" y="7.2" width="781.2" height="554.4"/>
  </clipPath>
 </defs>
</svg>
