<?xml version="1.0" encoding="utf-8" standalone="no"?>
<!DOCTYPE svg PUBLIC "-//W3C//DTD SVG 1.1//EN"
  "http://www.w3.org/Graphics/SVG/1.1/DTD/svg11.dtd">
<svg xmlns:xlink="http://www.w3.org/1999/xlink" width="857.7625pt" height="722.183991pt" viewBox="0 0 857.7625 722.183991" xmlns="http://www.w3.org/2000/svg" version="1.1">
 <metadata>
  <rdf:RDF xmlns:dc="http://purl.org/dc/elements/1.1/" xmlns:cc="http://creativecommons.org/ns#" xmlns:rdf="http://www.w3.org/1999/02/22-rdf-syntax-ns#">
   <cc:Work>
    <dc:type rdf:resource="http://purl.org/dc/dcmitype/StillImage"/>
    <dc:date>2024-03-17T20:48:18.718860</dc:date>
    <dc:format>image/svg+xml</dc:format>
    <dc:creator>
     <cc:Agent>
      <dc:title>Matplotlib v3.8.0, https://matplotlib.org/</dc:title>
     </cc:Agent>
    </dc:creator>
   </cc:Work>
  </rdf:RDF>
 </metadata>
 <defs>
  <style type="text/css">*{stroke-linejoin: round; stroke-linecap: butt}</style>
 </defs>
 <g id="figure_1">
  <g id="patch_1">
   <path d="M 0 722.183991 
L 857.7625 722.183991 
L 857.7625 0 
L 0 0 
L 0 722.183991 
z
" style="fill: none"/>
  </g>
  <g id="axes_1">
   <g id="patch_2">
    <path d="M 69.3625 561.6 
L 850.5625 561.6 
L 850.5625 7.2 
L 69.3625 7.2 
L 69.3625 561.6 
z
" style="fill: none"/>
   </g>
   <g id="matplotlib.axis_1">
    <g id="xtick_1">
     <g id="text_1">
      <!-- MSA -->
      <g style="fill: #262626" transform="translate(104.788986 610.465141) rotate(-45) scale(0.2 -0.2)">
       <defs>
        <path id="DejaVuSans-4d" d="M 628 4666 
L 1569 4666 
L 2759 1491 
L 3956 4666 
L 4897 4666 
L 4897 0 
L 4281 0 
L 4281 4097 
L 3078 897 
L 2444 897 
L 1241 4097 
L 1241 0 
L 628 0 
L 628 4666 
z
" transform="scale(0.015625)"/>
        <path id="DejaVuSans-53" d="M 3425 4513 
L 3425 3897 
Q 3066 4069 2747 4153 
Q 2428 4238 2131 4238 
Q 1616 4238 1336 4038 
Q 1056 3838 1056 3469 
Q 1056 3159 1242 3001 
Q 1428 2844 1947 2747 
L 2328 2669 
Q 3034 2534 3370 2195 
Q 3706 1856 3706 1288 
Q 3706 609 3251 259 
Q 2797 -91 1919 -91 
Q 1588 -91 1214 -16 
Q 841 59 441 206 
L 441 856 
Q 825 641 1194 531 
Q 1563 422 1919 422 
Q 2459 422 2753 634 
Q 3047 847 3047 1241 
Q 3047 1584 2836 1778 
Q 2625 1972 2144 2069 
L 1759 2144 
Q 1053 2284 737 2584 
Q 422 2884 422 3419 
Q 422 4038 858 4394 
Q 1294 4750 2059 4750 
Q 2388 4750 2728 4690 
Q 3069 4631 3425 4513 
z
" transform="scale(0.015625)"/>
        <path id="DejaVuSans-41" d="M 2188 4044 
L 1331 1722 
L 3047 1722 
L 2188 4044 
z
M 1831 4666 
L 2547 4666 
L 4325 0 
L 3669 0 
L 3244 1197 
L 1141 1197 
L 716 0 
L 50 0 
L 1831 4666 
z
" transform="scale(0.015625)"/>
       </defs>
       <use xlink:href="#DejaVuSans-4d"/>
       <use xlink:href="#DejaVuSans-53" x="86.279297"/>
       <use xlink:href="#DejaVuSans-41" x="151.630859"/>
      </g>
     </g>
    </g>
    <g id="xtick_2">
     <g id="text_2">
      <!-- Template -->
      <g style="fill: #262626" transform="translate(182.97819 643.875936) rotate(-45) scale(0.2 -0.2)">
       <defs>
        <path id="DejaVuSans-54" d="M -19 4666 
L 3928 4666 
L 3928 4134 
L 2272 4134 
L 2272 0 
L 1638 0 
L 1638 4134 
L -19 4134 
L -19 4666 
z
" transform="scale(0.015625)"/>
        <path id="DejaVuSans-65" d="M 3597 1894 
L 3597 1613 
L 953 1613 
Q 991 1019 1311 708 
Q 1631 397 2203 397 
Q 2534 397 2845 478 
Q 3156 559 3463 722 
L 3463 178 
Q 3153 47 2828 -22 
Q 2503 -91 2169 -91 
Q 1331 -91 842 396 
Q 353 884 353 1716 
Q 353 2575 817 3079 
Q 1281 3584 2069 3584 
Q 2775 3584 3186 3129 
Q 3597 2675 3597 1894 
z
M 3022 2063 
Q 3016 2534 2758 2815 
Q 2500 3097 2075 3097 
Q 1594 3097 1305 2825 
Q 1016 2553 972 2059 
L 3022 2063 
z
" transform="scale(0.015625)"/>
        <path id="DejaVuSans-6d" d="M 3328 2828 
Q 3544 3216 3844 3400 
Q 4144 3584 4550 3584 
Q 5097 3584 5394 3201 
Q 5691 2819 5691 2113 
L 5691 0 
L 5113 0 
L 5113 2094 
Q 5113 2597 4934 2840 
Q 4756 3084 4391 3084 
Q 3944 3084 3684 2787 
Q 3425 2491 3425 1978 
L 3425 0 
L 2847 0 
L 2847 2094 
Q 2847 2600 2669 2842 
Q 2491 3084 2119 3084 
Q 1678 3084 1418 2786 
Q 1159 2488 1159 1978 
L 1159 0 
L 581 0 
L 581 3500 
L 1159 3500 
L 1159 2956 
Q 1356 3278 1631 3431 
Q 1906 3584 2284 3584 
Q 2666 3584 2933 3390 
Q 3200 3197 3328 2828 
z
" transform="scale(0.015625)"/>
        <path id="DejaVuSans-70" d="M 1159 525 
L 1159 -1331 
L 581 -1331 
L 581 3500 
L 1159 3500 
L 1159 2969 
Q 1341 3281 1617 3432 
Q 1894 3584 2278 3584 
Q 2916 3584 3314 3078 
Q 3713 2572 3713 1747 
Q 3713 922 3314 415 
Q 2916 -91 2278 -91 
Q 1894 -91 1617 61 
Q 1341 213 1159 525 
z
M 3116 1747 
Q 3116 2381 2855 2742 
Q 2594 3103 2138 3103 
Q 1681 3103 1420 2742 
Q 1159 2381 1159 1747 
Q 1159 1113 1420 752 
Q 1681 391 2138 391 
Q 2594 391 2855 752 
Q 3116 1113 3116 1747 
z
" transform="scale(0.015625)"/>
        <path id="DejaVuSans-6c" d="M 603 4863 
L 1178 4863 
L 1178 0 
L 603 0 
L 603 4863 
z
" transform="scale(0.015625)"/>
        <path id="DejaVuSans-61" d="M 2194 1759 
Q 1497 1759 1228 1600 
Q 959 1441 959 1056 
Q 959 750 1161 570 
Q 1363 391 1709 391 
Q 2188 391 2477 730 
Q 2766 1069 2766 1631 
L 2766 1759 
L 2194 1759 
z
M 3341 1997 
L 3341 0 
L 2766 0 
L 2766 531 
Q 2569 213 2275 61 
Q 1981 -91 1556 -91 
Q 1019 -91 701 211 
Q 384 513 384 1019 
Q 384 1609 779 1909 
Q 1175 2209 1959 2209 
L 2766 2209 
L 2766 2266 
Q 2766 2663 2505 2880 
Q 2244 3097 1772 3097 
Q 1472 3097 1187 3025 
Q 903 2953 641 2809 
L 641 3341 
Q 956 3463 1253 3523 
Q 1550 3584 1831 3584 
Q 2591 3584 2966 3190 
Q 3341 2797 3341 1997 
z
" transform="scale(0.015625)"/>
        <path id="DejaVuSans-74" d="M 1172 4494 
L 1172 3500 
L 2356 3500 
L 2356 3053 
L 1172 3053 
L 1172 1153 
Q 1172 725 1289 603 
Q 1406 481 1766 481 
L 2356 481 
L 2356 0 
L 1766 0 
Q 1100 0 847 248 
Q 594 497 594 1153 
L 594 3053 
L 172 3053 
L 172 3500 
L 594 3500 
L 594 4494 
L 1172 4494 
z
" transform="scale(0.015625)"/>
       </defs>
       <use xlink:href="#DejaVuSans-54"/>
       <use xlink:href="#DejaVuSans-65" x="44.083984"/>
       <use xlink:href="#DejaVuSans-6d" x="105.607422"/>
       <use xlink:href="#DejaVuSans-70" x="203.019531"/>
       <use xlink:href="#DejaVuSans-6c" x="266.496094"/>
       <use xlink:href="#DejaVuSans-61" x="294.279297"/>
       <use xlink:href="#DejaVuSans-74" x="355.558594"/>
       <use xlink:href="#DejaVuSans-65" x="394.767578"/>
      </g>
     </g>
    </g>
    <g id="xtick_3">
     <g id="text_3">
      <!-- Backbone -->
      <g style="fill: #262626" transform="translate(289.478183 648.975944) rotate(-45) scale(0.2 -0.2)">
       <defs>
        <path id="DejaVuSans-42" d="M 1259 2228 
L 1259 519 
L 2272 519 
Q 2781 519 3026 730 
Q 3272 941 3272 1375 
Q 3272 1813 3026 2020 
Q 2781 2228 2272 2228 
L 1259 2228 
z
M 1259 4147 
L 1259 2741 
L 2194 2741 
Q 2656 2741 2882 2914 
Q 3109 3088 3109 3444 
Q 3109 3797 2882 3972 
Q 2656 4147 2194 4147 
L 1259 4147 
z
M 628 4666 
L 2241 4666 
Q 2963 4666 3353 4366 
Q 3744 4066 3744 3513 
Q 3744 3084 3544 2831 
Q 3344 2578 2956 2516 
Q 3422 2416 3680 2098 
Q 3938 1781 3938 1306 
Q 3938 681 3513 340 
Q 3088 0 2303 0 
L 628 0 
L 628 4666 
z
" transform="scale(0.015625)"/>
        <path id="DejaVuSans-63" d="M 3122 3366 
L 3122 2828 
Q 2878 2963 2633 3030 
Q 2388 3097 2138 3097 
Q 1578 3097 1268 2742 
Q 959 2388 959 1747 
Q 959 1106 1268 751 
Q 1578 397 2138 397 
Q 2388 397 2633 464 
Q 2878 531 3122 666 
L 3122 134 
Q 2881 22 2623 -34 
Q 2366 -91 2075 -91 
Q 1284 -91 818 406 
Q 353 903 353 1747 
Q 353 2603 823 3093 
Q 1294 3584 2113 3584 
Q 2378 3584 2631 3529 
Q 2884 3475 3122 3366 
z
" transform="scale(0.015625)"/>
        <path id="DejaVuSans-6b" d="M 581 4863 
L 1159 4863 
L 1159 1991 
L 2875 3500 
L 3609 3500 
L 1753 1863 
L 3688 0 
L 2938 0 
L 1159 1709 
L 1159 0 
L 581 0 
L 581 4863 
z
" transform="scale(0.015625)"/>
        <path id="DejaVuSans-62" d="M 3116 1747 
Q 3116 2381 2855 2742 
Q 2594 3103 2138 3103 
Q 1681 3103 1420 2742 
Q 1159 2381 1159 1747 
Q 1159 1113 1420 752 
Q 1681 391 2138 391 
Q 2594 391 2855 752 
Q 3116 1113 3116 1747 
z
M 1159 2969 
Q 1341 3281 1617 3432 
Q 1894 3584 2278 3584 
Q 2916 3584 3314 3078 
Q 3713 2572 3713 1747 
Q 3713 922 3314 415 
Q 2916 -91 2278 -91 
Q 1894 -91 1617 61 
Q 1341 213 1159 525 
L 1159 0 
L 581 0 
L 581 4863 
L 1159 4863 
L 1159 2969 
z
" transform="scale(0.015625)"/>
        <path id="DejaVuSans-6f" d="M 1959 3097 
Q 1497 3097 1228 2736 
Q 959 2375 959 1747 
Q 959 1119 1226 758 
Q 1494 397 1959 397 
Q 2419 397 2687 759 
Q 2956 1122 2956 1747 
Q 2956 2369 2687 2733 
Q 2419 3097 1959 3097 
z
M 1959 3584 
Q 2709 3584 3137 3096 
Q 3566 2609 3566 1747 
Q 3566 888 3137 398 
Q 2709 -91 1959 -91 
Q 1206 -91 779 398 
Q 353 888 353 1747 
Q 353 2609 779 3096 
Q 1206 3584 1959 3584 
z
" transform="scale(0.015625)"/>
        <path id="DejaVuSans-6e" d="M 3513 2113 
L 3513 0 
L 2938 0 
L 2938 2094 
Q 2938 2591 2744 2837 
Q 2550 3084 2163 3084 
Q 1697 3084 1428 2787 
Q 1159 2491 1159 1978 
L 1159 0 
L 581 0 
L 581 3500 
L 1159 3500 
L 1159 2956 
Q 1366 3272 1645 3428 
Q 1925 3584 2291 3584 
Q 2894 3584 3203 3211 
Q 3513 2838 3513 2113 
z
" transform="scale(0.015625)"/>
       </defs>
       <use xlink:href="#DejaVuSans-42"/>
       <use xlink:href="#DejaVuSans-61" x="68.603516"/>
       <use xlink:href="#DejaVuSans-63" x="129.882812"/>
       <use xlink:href="#DejaVuSans-6b" x="184.863281"/>
       <use xlink:href="#DejaVuSans-62" x="242.773438"/>
       <use xlink:href="#DejaVuSans-6f" x="306.25"/>
       <use xlink:href="#DejaVuSans-6e" x="367.431641"/>
       <use xlink:href="#DejaVuSans-65" x="430.810547"/>
      </g>
     </g>
    </g>
    <g id="xtick_4">
     <g id="text_4">
      <!-- Heuristic C-$\beta$ -->
      <g style="fill: #262626" transform="translate(379.63517 670.706219) rotate(-45) scale(0.2 -0.2)">
       <defs>
        <path id="DejaVuSans-48" d="M 628 4666 
L 1259 4666 
L 1259 2753 
L 3553 2753 
L 3553 4666 
L 4184 4666 
L 4184 0 
L 3553 0 
L 3553 2222 
L 1259 2222 
L 1259 0 
L 628 0 
L 628 4666 
z
" transform="scale(0.015625)"/>
        <path id="DejaVuSans-75" d="M 544 1381 
L 544 3500 
L 1119 3500 
L 1119 1403 
Q 1119 906 1312 657 
Q 1506 409 1894 409 
Q 2359 409 2629 706 
Q 2900 1003 2900 1516 
L 2900 3500 
L 3475 3500 
L 3475 0 
L 2900 0 
L 2900 538 
Q 2691 219 2414 64 
Q 2138 -91 1772 -91 
Q 1169 -91 856 284 
Q 544 659 544 1381 
z
M 1991 3584 
L 1991 3584 
z
" transform="scale(0.015625)"/>
        <path id="DejaVuSans-72" d="M 2631 2963 
Q 2534 3019 2420 3045 
Q 2306 3072 2169 3072 
Q 1681 3072 1420 2755 
Q 1159 2438 1159 1844 
L 1159 0 
L 581 0 
L 581 3500 
L 1159 3500 
L 1159 2956 
Q 1341 3275 1631 3429 
Q 1922 3584 2338 3584 
Q 2397 3584 2469 3576 
Q 2541 3569 2628 3553 
L 2631 2963 
z
" transform="scale(0.015625)"/>
        <path id="DejaVuSans-69" d="M 603 3500 
L 1178 3500 
L 1178 0 
L 603 0 
L 603 3500 
z
M 603 4863 
L 1178 4863 
L 1178 4134 
L 603 4134 
L 603 4863 
z
" transform="scale(0.015625)"/>
        <path id="DejaVuSans-73" d="M 2834 3397 
L 2834 2853 
Q 2591 2978 2328 3040 
Q 2066 3103 1784 3103 
Q 1356 3103 1142 2972 
Q 928 2841 928 2578 
Q 928 2378 1081 2264 
Q 1234 2150 1697 2047 
L 1894 2003 
Q 2506 1872 2764 1633 
Q 3022 1394 3022 966 
Q 3022 478 2636 193 
Q 2250 -91 1575 -91 
Q 1294 -91 989 -36 
Q 684 19 347 128 
L 347 722 
Q 666 556 975 473 
Q 1284 391 1588 391 
Q 1994 391 2212 530 
Q 2431 669 2431 922 
Q 2431 1156 2273 1281 
Q 2116 1406 1581 1522 
L 1381 1569 
Q 847 1681 609 1914 
Q 372 2147 372 2553 
Q 372 3047 722 3315 
Q 1072 3584 1716 3584 
Q 2034 3584 2315 3537 
Q 2597 3491 2834 3397 
z
" transform="scale(0.015625)"/>
        <path id="DejaVuSans-20" transform="scale(0.015625)"/>
        <path id="DejaVuSans-43" d="M 4122 4306 
L 4122 3641 
Q 3803 3938 3442 4084 
Q 3081 4231 2675 4231 
Q 1875 4231 1450 3742 
Q 1025 3253 1025 2328 
Q 1025 1406 1450 917 
Q 1875 428 2675 428 
Q 3081 428 3442 575 
Q 3803 722 4122 1019 
L 4122 359 
Q 3791 134 3420 21 
Q 3050 -91 2638 -91 
Q 1578 -91 968 557 
Q 359 1206 359 2328 
Q 359 3453 968 4101 
Q 1578 4750 2638 4750 
Q 3056 4750 3426 4639 
Q 3797 4528 4122 4306 
z
" transform="scale(0.015625)"/>
        <path id="DejaVuSans-2d" d="M 313 2009 
L 1997 2009 
L 1997 1497 
L 313 1497 
L 313 2009 
z
" transform="scale(0.015625)"/>
        <path id="DejaVuSans-Oblique-3b2" d="M 872 216 
L 572 -1331 
L -6 -1331 
L 928 3478 
Q 1206 4903 2538 4903 
Q 3888 4903 3659 3700 
Q 3503 2844 2894 2531 
Q 3713 2250 3553 1416 
Q 3272 -69 1759 -66 
Q 1097 -63 872 216 
z
M 1019 966 
Q 1259 422 1875 425 
Q 2775 425 2966 1406 
Q 3138 2288 1675 2219 
L 1778 2750 
Q 2909 2731 3106 3750 
Q 3241 4438 2509 4434 
Q 1691 4434 1503 3459 
L 1019 966 
z
" transform="scale(0.015625)"/>
       </defs>
       <use xlink:href="#DejaVuSans-48" transform="translate(0 0.390625)"/>
       <use xlink:href="#DejaVuSans-65" transform="translate(75.195312 0.390625)"/>
       <use xlink:href="#DejaVuSans-75" transform="translate(136.71875 0.390625)"/>
       <use xlink:href="#DejaVuSans-72" transform="translate(200.097656 0.390625)"/>
       <use xlink:href="#DejaVuSans-69" transform="translate(241.210938 0.390625)"/>
       <use xlink:href="#DejaVuSans-73" transform="translate(268.994141 0.390625)"/>
       <use xlink:href="#DejaVuSans-74" transform="translate(321.09375 0.390625)"/>
       <use xlink:href="#DejaVuSans-69" transform="translate(360.302734 0.390625)"/>
       <use xlink:href="#DejaVuSans-63" transform="translate(388.085938 0.390625)"/>
       <use xlink:href="#DejaVuSans-20" transform="translate(443.066406 0.390625)"/>
       <use xlink:href="#DejaVuSans-43" transform="translate(474.853516 0.390625)"/>
       <use xlink:href="#DejaVuSans-2d" transform="translate(544.677734 0.390625)"/>
       <use xlink:href="#DejaVuSans-Oblique-3b2" transform="translate(580.761719 0.390625)"/>
      </g>
     </g>
    </g>
    <g id="xtick_5">
     <g id="text_5">
      <!-- Template C-$\beta$ -->
      <g style="fill: #262626" transform="translate(486.992529 674.94886) rotate(-45) scale(0.2 -0.2)">
       <use xlink:href="#DejaVuSans-54" transform="translate(0 0.390625)"/>
       <use xlink:href="#DejaVuSans-65" transform="translate(61.083984 0.390625)"/>
       <use xlink:href="#DejaVuSans-6d" transform="translate(122.607422 0.390625)"/>
       <use xlink:href="#DejaVuSans-70" transform="translate(220.019531 0.390625)"/>
       <use xlink:href="#DejaVuSans-6c" transform="translate(283.496094 0.390625)"/>
       <use xlink:href="#DejaVuSans-61" transform="translate(311.279297 0.390625)"/>
       <use xlink:href="#DejaVuSans-74" transform="translate(372.558594 0.390625)"/>
       <use xlink:href="#DejaVuSans-65" transform="translate(411.767578 0.390625)"/>
       <use xlink:href="#DejaVuSans-20" transform="translate(473.291016 0.390625)"/>
       <use xlink:href="#DejaVuSans-43" transform="translate(505.078125 0.390625)"/>
       <use xlink:href="#DejaVuSans-2d" transform="translate(574.902344 0.390625)"/>
       <use xlink:href="#DejaVuSans-Oblique-3b2" transform="translate(610.986328 0.390625)"/>
      </g>
     </g>
    </g>
    <g id="xtick_6">
     <g id="text_6">
      <!-- AttnPacker -->
      <g style="fill: #262626" transform="translate(617.905383 655.348744) rotate(-45) scale(0.2 -0.2)">
       <defs>
        <path id="DejaVuSans-50" d="M 1259 4147 
L 1259 2394 
L 2053 2394 
Q 2494 2394 2734 2622 
Q 2975 2850 2975 3272 
Q 2975 3691 2734 3919 
Q 2494 4147 2053 4147 
L 1259 4147 
z
M 628 4666 
L 2053 4666 
Q 2838 4666 3239 4311 
Q 3641 3956 3641 3272 
Q 3641 2581 3239 2228 
Q 2838 1875 2053 1875 
L 1259 1875 
L 1259 0 
L 628 0 
L 628 4666 
z
" transform="scale(0.015625)"/>
       </defs>
       <use xlink:href="#DejaVuSans-41"/>
       <use xlink:href="#DejaVuSans-74" x="66.658203"/>
       <use xlink:href="#DejaVuSans-74" x="105.867188"/>
       <use xlink:href="#DejaVuSans-6e" x="145.076172"/>
       <use xlink:href="#DejaVuSans-50" x="208.455078"/>
       <use xlink:href="#DejaVuSans-61" x="264.257812"/>
       <use xlink:href="#DejaVuSans-63" x="325.537109"/>
       <use xlink:href="#DejaVuSans-6b" x="380.517578"/>
       <use xlink:href="#DejaVuSans-65" x="434.802734"/>
       <use xlink:href="#DejaVuSans-72" x="496.326172"/>
      </g>
     </g>
    </g>
    <g id="xtick_7">
     <g id="text_7">
      <!-- AttnPacker (AF) -->
      <g style="fill: #262626" transform="translate(696.167508 688.686619) rotate(-45) scale(0.2 -0.2)">
       <defs>
        <path id="DejaVuSans-28" d="M 1984 4856 
Q 1566 4138 1362 3434 
Q 1159 2731 1159 2009 
Q 1159 1288 1364 580 
Q 1569 -128 1984 -844 
L 1484 -844 
Q 1016 -109 783 600 
Q 550 1309 550 2009 
Q 550 2706 781 3412 
Q 1013 4119 1484 4856 
L 1984 4856 
z
" transform="scale(0.015625)"/>
        <path id="DejaVuSans-46" d="M 628 4666 
L 3309 4666 
L 3309 4134 
L 1259 4134 
L 1259 2759 
L 3109 2759 
L 3109 2228 
L 1259 2228 
L 1259 0 
L 628 0 
L 628 4666 
z
" transform="scale(0.015625)"/>
        <path id="DejaVuSans-29" d="M 513 4856 
L 1013 4856 
Q 1481 4119 1714 3412 
Q 1947 2706 1947 2009 
Q 1947 1309 1714 600 
Q 1481 -109 1013 -844 
L 513 -844 
Q 928 -128 1133 580 
Q 1338 1288 1338 2009 
Q 1338 2731 1133 3434 
Q 928 4138 513 4856 
z
" transform="scale(0.015625)"/>
       </defs>
       <use xlink:href="#DejaVuSans-41"/>
       <use xlink:href="#DejaVuSans-74" x="66.658203"/>
       <use xlink:href="#DejaVuSans-74" x="105.867188"/>
       <use xlink:href="#DejaVuSans-6e" x="145.076172"/>
       <use xlink:href="#DejaVuSans-50" x="208.455078"/>
       <use xlink:href="#DejaVuSans-61" x="264.257812"/>
       <use xlink:href="#DejaVuSans-63" x="325.537109"/>
       <use xlink:href="#DejaVuSans-6b" x="380.517578"/>
       <use xlink:href="#DejaVuSans-65" x="434.802734"/>
       <use xlink:href="#DejaVuSans-72" x="496.326172"/>
       <use xlink:href="#DejaVuSans-20" x="537.439453"/>
       <use xlink:href="#DejaVuSans-28" x="569.226562"/>
       <use xlink:href="#DejaVuSans-41" x="608.240234"/>
       <use xlink:href="#DejaVuSans-46" x="676.648438"/>
       <use xlink:href="#DejaVuSans-29" x="734.167969"/>
      </g>
     </g>
    </g>
    <g id="text_8">
     <!-- Method -->
     <g style="fill: #262626" transform="translate(422.45625 710.824616) scale(0.2 -0.2)">
      <defs>
       <path id="DejaVuSans-68" d="M 3513 2113 
L 3513 0 
L 2938 0 
L 2938 2094 
Q 2938 2591 2744 2837 
Q 2550 3084 2163 3084 
Q 1697 3084 1428 2787 
Q 1159 2491 1159 1978 
L 1159 0 
L 581 0 
L 581 4863 
L 1159 4863 
L 1159 2956 
Q 1366 3272 1645 3428 
Q 1925 3584 2291 3584 
Q 2894 3584 3203 3211 
Q 3513 2838 3513 2113 
z
" transform="scale(0.015625)"/>
       <path id="DejaVuSans-64" d="M 2906 2969 
L 2906 4863 
L 3481 4863 
L 3481 0 
L 2906 0 
L 2906 525 
Q 2725 213 2448 61 
Q 2172 -91 1784 -91 
Q 1150 -91 751 415 
Q 353 922 353 1747 
Q 353 2572 751 3078 
Q 1150 3584 1784 3584 
Q 2172 3584 2448 3432 
Q 2725 3281 2906 2969 
z
M 947 1747 
Q 947 1113 1208 752 
Q 1469 391 1925 391 
Q 2381 391 2643 752 
Q 2906 1113 2906 1747 
Q 2906 2381 2643 2742 
Q 2381 3103 1925 3103 
Q 1469 3103 1208 2742 
Q 947 2381 947 1747 
z
" transform="scale(0.015625)"/>
      </defs>
      <use xlink:href="#DejaVuSans-4d"/>
      <use xlink:href="#DejaVuSans-65" x="86.279297"/>
      <use xlink:href="#DejaVuSans-74" x="147.802734"/>
      <use xlink:href="#DejaVuSans-68" x="187.011719"/>
      <use xlink:href="#DejaVuSans-6f" x="250.390625"/>
      <use xlink:href="#DejaVuSans-64" x="311.572266"/>
     </g>
    </g>
   </g>
   <g id="matplotlib.axis_2">
    <g id="ytick_1">
     <g id="line2d_1">
      <path d="M 69.3625 536.822066 
L 850.5625 536.822066 
" clip-path="url(#p5f685ca3e4)" style="fill: none; stroke: #cccccc; stroke-width: 0.8; stroke-linecap: round"/>
     </g>
     <g id="text_9">
      <!-- 0.0 -->
      <g style="fill: #262626" transform="translate(30.55625 544.420503) scale(0.2 -0.2)">
       <defs>
        <path id="DejaVuSans-30" d="M 2034 4250 
Q 1547 4250 1301 3770 
Q 1056 3291 1056 2328 
Q 1056 1369 1301 889 
Q 1547 409 2034 409 
Q 2525 409 2770 889 
Q 3016 1369 3016 2328 
Q 3016 3291 2770 3770 
Q 2525 4250 2034 4250 
z
M 2034 4750 
Q 2819 4750 3233 4129 
Q 3647 3509 3647 2328 
Q 3647 1150 3233 529 
Q 2819 -91 2034 -91 
Q 1250 -91 836 529 
Q 422 1150 422 2328 
Q 422 3509 836 4129 
Q 1250 4750 2034 4750 
z
" transform="scale(0.015625)"/>
        <path id="DejaVuSans-2e" d="M 684 794 
L 1344 794 
L 1344 0 
L 684 0 
L 684 794 
z
" transform="scale(0.015625)"/>
       </defs>
       <use xlink:href="#DejaVuSans-30"/>
       <use xlink:href="#DejaVuSans-2e" x="63.623047"/>
       <use xlink:href="#DejaVuSans-30" x="95.410156"/>
      </g>
     </g>
    </g>
    <g id="ytick_2">
     <g id="line2d_2">
      <path d="M 69.3625 468.20356 
L 850.5625 468.20356 
" clip-path="url(#p5f685ca3e4)" style="fill: none; stroke: #cccccc; stroke-width: 0.8; stroke-linecap: round"/>
     </g>
     <g id="text_10">
      <!-- 0.2 -->
      <g style="fill: #262626" transform="translate(30.55625 475.801997) scale(0.2 -0.2)">
       <defs>
        <path id="DejaVuSans-32" d="M 1228 531 
L 3431 531 
L 3431 0 
L 469 0 
L 469 531 
Q 828 903 1448 1529 
Q 2069 2156 2228 2338 
Q 2531 2678 2651 2914 
Q 2772 3150 2772 3378 
Q 2772 3750 2511 3984 
Q 2250 4219 1831 4219 
Q 1534 4219 1204 4116 
Q 875 4013 500 3803 
L 500 4441 
Q 881 4594 1212 4672 
Q 1544 4750 1819 4750 
Q 2544 4750 2975 4387 
Q 3406 4025 3406 3419 
Q 3406 3131 3298 2873 
Q 3191 2616 2906 2266 
Q 2828 2175 2409 1742 
Q 1991 1309 1228 531 
z
" transform="scale(0.015625)"/>
       </defs>
       <use xlink:href="#DejaVuSans-30"/>
       <use xlink:href="#DejaVuSans-2e" x="63.623047"/>
       <use xlink:href="#DejaVuSans-32" x="95.410156"/>
      </g>
     </g>
    </g>
    <g id="ytick_3">
     <g id="line2d_3">
      <path d="M 69.3625 399.585053 
L 850.5625 399.585053 
" clip-path="url(#p5f685ca3e4)" style="fill: none; stroke: #cccccc; stroke-width: 0.8; stroke-linecap: round"/>
     </g>
     <g id="text_11">
      <!-- 0.4 -->
      <g style="fill: #262626" transform="translate(30.55625 407.183491) scale(0.2 -0.2)">
       <defs>
        <path id="DejaVuSans-34" d="M 2419 4116 
L 825 1625 
L 2419 1625 
L 2419 4116 
z
M 2253 4666 
L 3047 4666 
L 3047 1625 
L 3713 1625 
L 3713 1100 
L 3047 1100 
L 3047 0 
L 2419 0 
L 2419 1100 
L 313 1100 
L 313 1709 
L 2253 4666 
z
" transform="scale(0.015625)"/>
       </defs>
       <use xlink:href="#DejaVuSans-30"/>
       <use xlink:href="#DejaVuSans-2e" x="63.623047"/>
       <use xlink:href="#DejaVuSans-34" x="95.410156"/>
      </g>
     </g>
    </g>
    <g id="ytick_4">
     <g id="line2d_4">
      <path d="M 69.3625 330.966547 
L 850.5625 330.966547 
" clip-path="url(#p5f685ca3e4)" style="fill: none; stroke: #cccccc; stroke-width: 0.8; stroke-linecap: round"/>
     </g>
     <g id="text_12">
      <!-- 0.6 -->
      <g style="fill: #262626" transform="translate(30.55625 338.564985) scale(0.2 -0.2)">
       <defs>
        <path id="DejaVuSans-36" d="M 2113 2584 
Q 1688 2584 1439 2293 
Q 1191 2003 1191 1497 
Q 1191 994 1439 701 
Q 1688 409 2113 409 
Q 2538 409 2786 701 
Q 3034 994 3034 1497 
Q 3034 2003 2786 2293 
Q 2538 2584 2113 2584 
z
M 3366 4563 
L 3366 3988 
Q 3128 4100 2886 4159 
Q 2644 4219 2406 4219 
Q 1781 4219 1451 3797 
Q 1122 3375 1075 2522 
Q 1259 2794 1537 2939 
Q 1816 3084 2150 3084 
Q 2853 3084 3261 2657 
Q 3669 2231 3669 1497 
Q 3669 778 3244 343 
Q 2819 -91 2113 -91 
Q 1303 -91 875 529 
Q 447 1150 447 2328 
Q 447 3434 972 4092 
Q 1497 4750 2381 4750 
Q 2619 4750 2861 4703 
Q 3103 4656 3366 4563 
z
" transform="scale(0.015625)"/>
       </defs>
       <use xlink:href="#DejaVuSans-30"/>
       <use xlink:href="#DejaVuSans-2e" x="63.623047"/>
       <use xlink:href="#DejaVuSans-36" x="95.410156"/>
      </g>
     </g>
    </g>
    <g id="ytick_5">
     <g id="line2d_5">
      <path d="M 69.3625 262.348041 
L 850.5625 262.348041 
" clip-path="url(#p5f685ca3e4)" style="fill: none; stroke: #cccccc; stroke-width: 0.8; stroke-linecap: round"/>
     </g>
     <g id="text_13">
      <!-- 0.8 -->
      <g style="fill: #262626" transform="translate(30.55625 269.946478) scale(0.2 -0.2)">
       <defs>
        <path id="DejaVuSans-38" d="M 2034 2216 
Q 1584 2216 1326 1975 
Q 1069 1734 1069 1313 
Q 1069 891 1326 650 
Q 1584 409 2034 409 
Q 2484 409 2743 651 
Q 3003 894 3003 1313 
Q 3003 1734 2745 1975 
Q 2488 2216 2034 2216 
z
M 1403 2484 
Q 997 2584 770 2862 
Q 544 3141 544 3541 
Q 544 4100 942 4425 
Q 1341 4750 2034 4750 
Q 2731 4750 3128 4425 
Q 3525 4100 3525 3541 
Q 3525 3141 3298 2862 
Q 3072 2584 2669 2484 
Q 3125 2378 3379 2068 
Q 3634 1759 3634 1313 
Q 3634 634 3220 271 
Q 2806 -91 2034 -91 
Q 1263 -91 848 271 
Q 434 634 434 1313 
Q 434 1759 690 2068 
Q 947 2378 1403 2484 
z
M 1172 3481 
Q 1172 3119 1398 2916 
Q 1625 2713 2034 2713 
Q 2441 2713 2670 2916 
Q 2900 3119 2900 3481 
Q 2900 3844 2670 4047 
Q 2441 4250 2034 4250 
Q 1625 4250 1398 4047 
Q 1172 3844 1172 3481 
z
" transform="scale(0.015625)"/>
       </defs>
       <use xlink:href="#DejaVuSans-30"/>
       <use xlink:href="#DejaVuSans-2e" x="63.623047"/>
       <use xlink:href="#DejaVuSans-38" x="95.410156"/>
      </g>
     </g>
    </g>
    <g id="ytick_6">
     <g id="line2d_6">
      <path d="M 69.3625 193.729535 
L 850.5625 193.729535 
" clip-path="url(#p5f685ca3e4)" style="fill: none; stroke: #cccccc; stroke-width: 0.8; stroke-linecap: round"/>
     </g>
     <g id="text_14">
      <!-- 1.0 -->
      <g style="fill: #262626" transform="translate(30.55625 201.327972) scale(0.2 -0.2)">
       <defs>
        <path id="DejaVuSans-31" d="M 794 531 
L 1825 531 
L 1825 4091 
L 703 3866 
L 703 4441 
L 1819 4666 
L 2450 4666 
L 2450 531 
L 3481 531 
L 3481 0 
L 794 0 
L 794 531 
z
" transform="scale(0.015625)"/>
       </defs>
       <use xlink:href="#DejaVuSans-31"/>
       <use xlink:href="#DejaVuSans-2e" x="63.623047"/>
       <use xlink:href="#DejaVuSans-30" x="95.410156"/>
      </g>
     </g>
    </g>
    <g id="ytick_7">
     <g id="line2d_7">
      <path d="M 69.3625 125.111028 
L 850.5625 125.111028 
" clip-path="url(#p5f685ca3e4)" style="fill: none; stroke: #cccccc; stroke-width: 0.8; stroke-linecap: round"/>
     </g>
     <g id="text_15">
      <!-- 1.2 -->
      <g style="fill: #262626" transform="translate(30.55625 132.709466) scale(0.2 -0.2)">
       <use xlink:href="#DejaVuSans-31"/>
       <use xlink:href="#DejaVuSans-2e" x="63.623047"/>
       <use xlink:href="#DejaVuSans-32" x="95.410156"/>
      </g>
     </g>
    </g>
    <g id="ytick_8">
     <g id="line2d_8">
      <path d="M 69.3625 56.492522 
L 850.5625 56.492522 
" clip-path="url(#p5f685ca3e4)" style="fill: none; stroke: #cccccc; stroke-width: 0.8; stroke-linecap: round"/>
     </g>
     <g id="text_16">
      <!-- 1.4 -->
      <g style="fill: #262626" transform="translate(30.55625 64.09096) scale(0.2 -0.2)">
       <use xlink:href="#DejaVuSans-31"/>
       <use xlink:href="#DejaVuSans-2e" x="63.623047"/>
       <use xlink:href="#DejaVuSans-34" x="95.410156"/>
      </g>
     </g>
    </g>
    <g id="text_17">
     <!-- MAE 3 (rad) -->
     <g style="fill: #262626" transform="translate(22.396875 343.296875) rotate(-90) scale(0.2 -0.2)">
      <defs>
       <path id="DejaVuSans-45" d="M 628 4666 
L 3578 4666 
L 3578 4134 
L 1259 4134 
L 1259 2753 
L 3481 2753 
L 3481 2222 
L 1259 2222 
L 1259 531 
L 3634 531 
L 3634 0 
L 628 0 
L 628 4666 
z
" transform="scale(0.015625)"/>
       <path id="DejaVuSans-33" d="M 2597 2516 
Q 3050 2419 3304 2112 
Q 3559 1806 3559 1356 
Q 3559 666 3084 287 
Q 2609 -91 1734 -91 
Q 1441 -91 1130 -33 
Q 819 25 488 141 
L 488 750 
Q 750 597 1062 519 
Q 1375 441 1716 441 
Q 2309 441 2620 675 
Q 2931 909 2931 1356 
Q 2931 1769 2642 2001 
Q 2353 2234 1838 2234 
L 1294 2234 
L 1294 2753 
L 1863 2753 
Q 2328 2753 2575 2939 
Q 2822 3125 2822 3475 
Q 2822 3834 2567 4026 
Q 2313 4219 1838 4219 
Q 1578 4219 1281 4162 
Q 984 4106 628 3988 
L 628 4550 
Q 988 4650 1302 4700 
Q 1616 4750 1894 4750 
Q 2613 4750 3031 4423 
Q 3450 4097 3450 3541 
Q 3450 3153 3228 2886 
Q 3006 2619 2597 2516 
z
" transform="scale(0.015625)"/>
      </defs>
      <use xlink:href="#DejaVuSans-4d"/>
      <use xlink:href="#DejaVuSans-41" x="86.279297"/>
      <use xlink:href="#DejaVuSans-45" x="154.6875"/>
      <use xlink:href="#DejaVuSans-20" x="217.871094"/>
      <use xlink:href="#DejaVuSans-33" x="249.658203"/>
      <use xlink:href="#DejaVuSans-20" x="313.28125"/>
      <use xlink:href="#DejaVuSans-28" x="345.068359"/>
      <use xlink:href="#DejaVuSans-72" x="384.082031"/>
      <use xlink:href="#DejaVuSans-61" x="425.195312"/>
      <use xlink:href="#DejaVuSans-64" x="486.474609"/>
      <use xlink:href="#DejaVuSans-29" x="549.951172"/>
     </g>
    </g>
   </g>
   <g id="PolyCollection_1">
    <defs>
     <path id="mc55b94afef" d="M 125.482334 -285.67528 
L 124.842666 -285.67528 
L 124.725705 -289.25329 
L 124.579335 -292.8313 
L 124.401187 -296.409309 
L 124.190384 -299.987319 
L 123.947939 -303.565328 
L 123.676973 -307.143338 
L 123.382668 -310.721348 
L 123.071885 -314.299357 
L 122.752424 -317.877367 
L 122.431994 -321.455377 
L 122.11697 -325.033386 
L 121.811117 -328.611396 
L 121.514466 -332.189406 
L 121.222509 -335.767415 
L 120.92586 -339.345425 
L 120.610442 -342.923435 
L 120.258165 -346.501444 
L 119.84801 -350.079454 
L 119.357335 -353.657464 
L 118.763248 -357.235473 
L 118.043887 -360.813483 
L 117.179507 -364.391492 
L 116.15337 -367.969502 
L 114.952484 -371.547512 
L 113.568265 -375.125521 
L 111.99724 -378.703531 
L 110.241809 -382.281541 
L 108.311066 -385.85955 
L 106.221543 -389.43756 
L 103.997709 -393.01557 
L 101.671998 -396.593579 
L 99.284175 -400.171589 
L 96.87991 -403.749599 
L 94.508577 -407.327608 
L 92.22041 -410.905618 
L 90.063327 -414.483628 
L 88.079789 -418.061637 
L 86.304125 -421.639647 
L 84.760701 -425.217656 
L 83.463174 -428.795666 
L 82.414925 -432.373676 
L 81.610532 -435.951685 
L 81.037985 -439.529695 
L 80.681218 -443.107705 
L 80.5225 -446.685714 
L 80.544275 -450.263724 
L 80.730208 -453.841734 
L 81.065385 -457.419743 
L 81.535823 -460.997753 
L 82.127617 -464.575763 
L 82.826129 -468.153772 
L 83.615592 -471.731782 
L 84.479385 -475.309792 
L 85.401033 -478.887801 
L 86.365749 -482.465811 
L 87.362188 -486.04382 
L 88.38394 -489.62183 
L 89.430334 -493.19984 
L 90.506263 -496.777849 
L 91.620917 -500.355859 
L 92.785589 -503.933869 
L 94.010935 -507.511878 
L 95.304175 -511.089888 
L 96.666767 -514.667898 
L 98.092993 -518.245907 
L 99.56968 -521.823917 
L 101.077086 -525.401927 
L 102.590725 -528.979936 
L 104.083799 -532.557946 
L 105.529793 -536.135956 
L 106.904856 -539.713965 
L 108.189685 -543.291975 
L 109.370765 -546.869984 
L 110.440962 -550.447994 
L 111.399552 -554.026004 
L 112.251826 -557.604013 
L 113.008369 -561.182023 
L 113.684108 -564.760033 
L 114.297149 -568.338042 
L 114.867421 -571.916052 
L 115.415153 -575.494062 
L 115.959239 -579.072071 
L 116.51563 -582.650081 
L 117.095922 -586.228091 
L 117.706328 -589.8061 
L 118.347204 -593.38411 
L 119.013221 -596.96212 
L 119.694182 -600.540129 
L 120.376369 -604.118139 
L 121.044232 -607.696148 
L 121.682165 -611.274158 
L 122.276141 -614.852168 
L 122.81498 -618.430177 
L 123.291151 -622.008187 
L 123.70104 -625.586197 
L 124.044761 -629.164206 
L 124.325591 -632.742216 
L 124.549178 -636.320226 
L 124.722678 -639.898235 
L 125.602322 -639.898235 
L 125.602322 -639.898235 
L 125.775822 -636.320226 
L 125.999409 -632.742216 
L 126.280239 -629.164206 
L 126.62396 -625.586197 
L 127.033849 -622.008187 
L 127.51002 -618.430177 
L 128.048859 -614.852168 
L 128.642835 -611.274158 
L 129.280768 -607.696148 
L 129.948631 -604.118139 
L 130.630818 -600.540129 
L 131.311779 -596.96212 
L 131.977796 -593.38411 
L 132.618672 -589.8061 
L 133.229078 -586.228091 
L 133.80937 -582.650081 
L 134.365761 -579.072071 
L 134.909847 -575.494062 
L 135.457579 -571.916052 
L 136.027851 -568.338042 
L 136.640892 -564.760033 
L 137.316631 -561.182023 
L 138.073174 -557.604013 
L 138.925448 -554.026004 
L 139.884038 -550.447994 
L 140.954235 -546.869984 
L 142.135315 -543.291975 
L 143.420144 -539.713965 
L 144.795207 -536.135956 
L 146.241201 -532.557946 
L 147.734275 -528.979936 
L 149.247914 -525.401927 
L 150.75532 -521.823917 
L 152.232007 -518.245907 
L 153.658233 -514.667898 
L 155.020825 -511.089888 
L 156.314065 -507.511878 
L 157.539411 -503.933869 
L 158.704083 -500.355859 
L 159.818737 -496.777849 
L 160.894666 -493.19984 
L 161.94106 -489.62183 
L 162.962812 -486.04382 
L 163.959251 -482.465811 
L 164.923967 -478.887801 
L 165.845615 -475.309792 
L 166.709408 -471.731782 
L 167.498871 -468.153772 
L 168.197383 -464.575763 
L 168.789177 -460.997753 
L 169.259615 -457.419743 
L 169.594792 -453.841734 
L 169.780725 -450.263724 
L 169.8025 -446.685714 
L 169.643782 -443.107705 
L 169.287015 -439.529695 
L 168.714468 -435.951685 
L 167.910075 -432.373676 
L 166.861826 -428.795666 
L 165.564299 -425.217656 
L 164.020875 -421.639647 
L 162.245211 -418.061637 
L 160.261673 -414.483628 
L 158.10459 -410.905618 
L 155.816423 -407.327608 
L 153.44509 -403.749599 
L 151.040825 -400.171589 
L 148.653002 -396.593579 
L 146.327291 -393.01557 
L 144.103457 -389.43756 
L 142.013934 -385.85955 
L 140.083191 -382.281541 
L 138.32776 -378.703531 
L 136.756735 -375.125521 
L 135.372516 -371.547512 
L 134.17163 -367.969502 
L 133.145493 -364.391492 
L 132.281113 -360.813483 
L 131.561752 -357.235473 
L 130.967665 -353.657464 
L 130.47699 -350.079454 
L 130.066835 -346.501444 
L 129.714558 -342.923435 
L 129.39914 -339.345425 
L 129.102491 -335.767415 
L 128.810534 -332.189406 
L 128.513883 -328.611396 
L 128.20803 -325.033386 
L 127.893006 -321.455377 
L 127.572576 -317.877367 
L 127.253115 -314.299357 
L 126.942332 -310.721348 
L 126.648027 -307.143338 
L 126.377061 -303.565328 
L 126.134616 -299.987319 
L 125.923813 -296.409309 
L 125.745665 -292.8313 
L 125.599295 -289.25329 
L 125.482334 -285.67528 
z
" style="stroke: #3d3d3d; stroke-opacity: 0.5"/>
    </defs>
    <g clip-path="url(#p5f685ca3e4)">
     <use xlink:href="#mc55b94afef" x="0" y="722.183991" style="fill: #3274a1; fill-opacity: 0.5; stroke: #3d3d3d; stroke-opacity: 0.5"/>
    </g>
   </g>
   <g id="PolyCollection_2">
    <defs>
     <path id="m805ff748b5" d="M 236.984565 -185.783991 
L 236.540435 -185.783991 
L 236.453913 -189.900654 
L 236.343332 -194.017317 
L 236.205734 -198.13398 
L 236.039014 -202.250644 
L 235.842264 -206.367307 
L 235.616006 -210.48397 
L 235.362256 -214.600633 
L 235.084348 -218.717296 
L 234.786508 -222.833959 
L 234.473175 -226.950622 
L 234.14815 -231.067285 
L 233.813666 -235.183948 
L 233.469539 -239.300612 
L 233.112524 -243.417275 
L 232.736013 -247.533938 
L 232.330134 -251.650601 
L 231.882259 -255.767264 
L 231.37784 -259.883927 
L 230.801432 -264.00059 
L 230.137718 -268.117253 
L 229.372371 -272.233916 
L 228.4926 -276.35058 
L 227.487354 -280.467243 
L 226.347216 -284.583906 
L 225.06416 -288.700569 
L 223.631382 -292.817232 
L 222.043461 -296.933895 
L 220.297043 -301.050558 
L 218.392115 -305.167221 
L 216.333802 -309.283884 
L 214.13442 -313.400548 
L 211.815378 -317.517211 
L 209.408493 -321.633874 
L 206.956271 -325.750537 
L 204.510901 -329.8672 
L 202.13191 -333.983863 
L 199.882704 -338.100526 
L 197.82643 -342.217189 
L 196.021746 -346.333853 
L 194.519068 -350.450516 
L 193.357751 -354.567179 
L 192.56443 -358.683842 
L 192.1525 -362.800505 
L 192.1225 -366.917168 
L 192.463046 -371.033831 
L 193.15197 -375.150494 
L 194.157433 -379.267157 
L 195.438943 -383.383821 
L 196.948389 -387.500484 
L 198.631294 -391.617147 
L 200.428498 -395.73381 
L 202.278425 -399.850473 
L 204.119902 -403.967136 
L 205.895367 -408.083799 
L 207.554166 -412.200462 
L 209.055554 -416.317125 
L 210.371073 -420.433789 
L 211.485993 -424.550452 
L 212.399691 -428.667115 
L 213.124916 -432.783778 
L 213.686071 -436.900441 
L 214.116693 -441.017104 
L 214.456432 -445.133767 
L 214.74782 -449.25043 
L 215.03313 -453.367093 
L 215.35159 -457.483757 
L 215.737124 -461.60042 
L 216.216717 -465.717083 
L 216.809413 -469.833746 
L 217.525883 -473.950409 
L 218.368461 -478.067072 
L 219.331543 -482.183735 
L 220.402288 -486.300398 
L 221.56159 -490.417061 
L 222.785307 -494.533725 
L 224.045785 -498.650388 
L 225.313623 -502.767051 
L 226.559636 -506.883714 
L 227.756844 -511.000377 
L 228.882302 -515.11704 
L 229.918547 -519.233703 
L 230.854472 -523.350366 
L 231.685514 -527.46703 
L 232.413144 -531.583693 
L 233.043758 -535.700356 
L 233.587178 -539.817019 
L 234.055004 -543.933682 
L 234.459067 -548.050345 
L 234.8102 -552.167008 
L 235.11743 -556.283671 
L 235.387656 -560.400334 
L 235.62572 -564.516998 
L 235.83479 -568.633661 
L 236.016895 -572.750324 
L 236.173475 -576.866987 
L 236.305855 -580.98365 
L 236.415555 -585.100313 
L 236.504451 -589.216976 
L 236.574774 -593.333639 
L 236.950226 -593.333639 
L 236.950226 -593.333639 
L 237.020549 -589.216976 
L 237.109445 -585.100313 
L 237.219145 -580.98365 
L 237.351525 -576.866987 
L 237.508105 -572.750324 
L 237.69021 -568.633661 
L 237.89928 -564.516998 
L 238.137344 -560.400334 
L 238.40757 -556.283671 
L 238.7148 -552.167008 
L 239.065933 -548.050345 
L 239.469996 -543.933682 
L 239.937822 -539.817019 
L 240.481242 -535.700356 
L 241.111856 -531.583693 
L 241.839486 -527.46703 
L 242.670528 -523.350366 
L 243.606453 -519.233703 
L 244.642698 -515.11704 
L 245.768156 -511.000377 
L 246.965364 -506.883714 
L 248.211377 -502.767051 
L 249.479215 -498.650388 
L 250.739693 -494.533725 
L 251.96341 -490.417061 
L 253.122712 -486.300398 
L 254.193457 -482.183735 
L 255.156539 -478.067072 
L 255.999117 -473.950409 
L 256.715587 -469.833746 
L 257.308283 -465.717083 
L 257.787876 -461.60042 
L 258.17341 -457.483757 
L 258.49187 -453.367093 
L 258.77718 -449.25043 
L 259.068568 -445.133767 
L 259.408307 -441.017104 
L 259.838929 -436.900441 
L 260.400084 -432.783778 
L 261.125309 -428.667115 
L 262.039007 -424.550452 
L 263.153927 -420.433789 
L 264.469446 -416.317125 
L 265.970834 -412.200462 
L 267.629633 -408.083799 
L 269.405098 -403.967136 
L 271.246575 -399.850473 
L 273.096502 -395.73381 
L 274.893706 -391.617147 
L 276.576611 -387.500484 
L 278.086057 -383.383821 
L 279.367567 -379.267157 
L 280.37303 -375.150494 
L 281.061954 -371.033831 
L 281.4025 -366.917168 
L 281.3725 -362.800505 
L 280.96057 -358.683842 
L 280.167249 -354.567179 
L 279.005932 -350.450516 
L 277.503254 -346.333853 
L 275.69857 -342.217189 
L 273.642296 -338.100526 
L 271.39309 -333.983863 
L 269.014099 -329.8672 
L 266.568729 -325.750537 
L 264.116507 -321.633874 
L 261.709622 -317.517211 
L 259.39058 -313.400548 
L 257.191198 -309.283884 
L 255.132885 -305.167221 
L 253.227957 -301.050558 
L 251.481539 -296.933895 
L 249.893618 -292.817232 
L 248.46084 -288.700569 
L 247.177784 -284.583906 
L 246.037646 -280.467243 
L 245.0324 -276.35058 
L 244.152629 -272.233916 
L 243.387282 -268.117253 
L 242.723568 -264.00059 
L 242.14716 -259.883927 
L 241.642741 -255.767264 
L 241.194866 -251.650601 
L 240.788987 -247.533938 
L 240.412476 -243.417275 
L 240.055461 -239.300612 
L 239.711334 -235.183948 
L 239.37685 -231.067285 
L 239.051825 -226.950622 
L 238.738492 -222.833959 
L 238.440652 -218.717296 
L 238.162744 -214.600633 
L 237.908994 -210.48397 
L 237.682736 -206.367307 
L 237.485986 -202.250644 
L 237.319266 -198.13398 
L 237.181668 -194.017317 
L 237.071087 -189.900654 
L 236.984565 -185.783991 
z
" style="stroke: #3d3d3d; stroke-opacity: 0.5"/>
    </defs>
    <g clip-path="url(#p5f685ca3e4)">
     <use xlink:href="#m805ff748b5" x="0" y="722.183991" style="fill: #d684bd; fill-opacity: 0.5; stroke: #3d3d3d; stroke-opacity: 0.5"/>
    </g>
   </g>
   <g id="PolyCollection_3">
    <defs>
     <path id="me890e817c4" d="M 348.560471 -314.070425 
L 348.164529 -314.070425 
L 348.090156 -317.311948 
L 347.995993 -320.553472 
L 347.879765 -323.794996 
L 347.73985 -327.036519 
L 347.575503 -330.278043 
L 347.387017 -333.519567 
L 347.175769 -336.761091 
L 346.944154 -340.002614 
L 346.695386 -343.244138 
L 346.433198 -346.485662 
L 346.161479 -349.727185 
L 345.883905 -352.968709 
L 345.603598 -356.210233 
L 345.322875 -359.451757 
L 345.043085 -362.69328 
L 344.764553 -365.934804 
L 344.486604 -369.176328 
L 344.20764 -372.417851 
L 343.925257 -375.659375 
L 343.636359 -378.900899 
L 343.337278 -382.142423 
L 343.023885 -385.383946 
L 342.691691 -388.62547 
L 342.335936 -391.866994 
L 341.95164 -395.108518 
L 341.533614 -398.350041 
L 341.076397 -401.591565 
L 340.574121 -404.833089 
L 340.020325 -408.074612 
L 339.407758 -411.316136 
L 338.728267 -414.55766 
L 337.972871 -417.799184 
L 337.132111 -421.040707 
L 336.196758 -424.282231 
L 335.15888 -427.523755 
L 334.013186 -430.765278 
L 332.758463 -434.006802 
L 331.398862 -437.248326 
L 329.944731 -440.48985 
L 328.412723 -443.731373 
L 326.824987 -446.972897 
L 325.207421 -450.214421 
L 323.587119 -453.455944 
L 321.98936 -456.697468 
L 320.434627 -459.938992 
L 318.936193 -463.180516 
L 317.498807 -466.422039 
L 316.118819 -469.663563 
L 314.785912 -472.905087 
L 313.486239 -476.146611 
L 312.206565 -479.388134 
L 310.93873 -482.629658 
L 309.683679 -485.871182 
L 308.454317 -489.112705 
L 307.276621 -492.354229 
L 306.188727 -495.595753 
L 305.23804 -498.837277 
L 304.476757 -502.0788 
L 303.95645 -505.320324 
L 303.7225 -508.561848 
L 303.809173 -511.803371 
L 304.235977 -515.044895 
L 305.005712 -518.286419 
L 306.104332 -521.527943 
L 307.50246 -524.769466 
L 309.158196 -528.01099 
L 311.020747 -531.252514 
L 313.034372 -534.494038 
L 315.142219 -537.735561 
L 317.289733 -540.977085 
L 319.427429 -544.218609 
L 321.51297 -547.460132 
L 323.512526 -550.701656 
L 325.401477 -553.94318 
L 327.164515 -557.184704 
L 328.795235 -560.426227 
L 330.295259 -563.667751 
L 331.672977 -566.909275 
L 332.941972 -570.150798 
L 334.119223 -573.392322 
L 335.223188 -576.633846 
L 336.271903 -579.87537 
L 337.281237 -583.116893 
L 338.263458 -586.358417 
L 339.226241 -589.599941 
L 340.172216 -592.841464 
L 341.099103 -596.082988 
L 342.000403 -599.324512 
L 342.866545 -602.566036 
L 343.686331 -605.807559 
L 344.448473 -609.049083 
L 345.143025 -612.290607 
L 345.762515 -615.532131 
L 346.302686 -618.773654 
L 346.762759 -622.015178 
L 347.14528 -625.256702 
L 347.45561 -628.498225 
L 347.701189 -631.739749 
L 347.890709 -634.981273 
L 348.834291 -634.981273 
L 348.834291 -634.981273 
L 349.023811 -631.739749 
L 349.26939 -628.498225 
L 349.57972 -625.256702 
L 349.962241 -622.015178 
L 350.422314 -618.773654 
L 350.962485 -615.532131 
L 351.581975 -612.290607 
L 352.276527 -609.049083 
L 353.038669 -605.807559 
L 353.858455 -602.566036 
L 354.724597 -599.324512 
L 355.625897 -596.082988 
L 356.552784 -592.841464 
L 357.498759 -589.599941 
L 358.461542 -586.358417 
L 359.443763 -583.116893 
L 360.453097 -579.87537 
L 361.501812 -576.633846 
L 362.605777 -573.392322 
L 363.783028 -570.150798 
L 365.052023 -566.909275 
L 366.429741 -563.667751 
L 367.929765 -560.426227 
L 369.560485 -557.184704 
L 371.323523 -553.94318 
L 373.212474 -550.701656 
L 375.21203 -547.460132 
L 377.297571 -544.218609 
L 379.435267 -540.977085 
L 381.582781 -537.735561 
L 383.690628 -534.494038 
L 385.704253 -531.252514 
L 387.566804 -528.01099 
L 389.22254 -524.769466 
L 390.620668 -521.527943 
L 391.719288 -518.286419 
L 392.489023 -515.044895 
L 392.915827 -511.803371 
L 393.0025 -508.561848 
L 392.76855 -505.320324 
L 392.248243 -502.0788 
L 391.48696 -498.837277 
L 390.536273 -495.595753 
L 389.448379 -492.354229 
L 388.270683 -489.112705 
L 387.041321 -485.871182 
L 385.78627 -482.629658 
L 384.518435 -479.388134 
L 383.238761 -476.146611 
L 381.939088 -472.905087 
L 380.606181 -469.663563 
L 379.226193 -466.422039 
L 377.788807 -463.180516 
L 376.290373 -459.938992 
L 374.73564 -456.697468 
L 373.137881 -453.455944 
L 371.517579 -450.214421 
L 369.900013 -446.972897 
L 368.312277 -443.731373 
L 366.780269 -440.48985 
L 365.326138 -437.248326 
L 363.966537 -434.006802 
L 362.711814 -430.765278 
L 361.56612 -427.523755 
L 360.528242 -424.282231 
L 359.592889 -421.040707 
L 358.752129 -417.799184 
L 357.996733 -414.55766 
L 357.317242 -411.316136 
L 356.704675 -408.074612 
L 356.150879 -404.833089 
L 355.648603 -401.591565 
L 355.191386 -398.350041 
L 354.77336 -395.108518 
L 354.389064 -391.866994 
L 354.033309 -388.62547 
L 353.701115 -385.383946 
L 353.387722 -382.142423 
L 353.088641 -378.900899 
L 352.799743 -375.659375 
L 352.51736 -372.417851 
L 352.238396 -369.176328 
L 351.960447 -365.934804 
L 351.681915 -362.69328 
L 351.402125 -359.451757 
L 351.121402 -356.210233 
L 350.841095 -352.968709 
L 350.563521 -349.727185 
L 350.291802 -346.485662 
L 350.029614 -343.244138 
L 349.780846 -340.002614 
L 349.549231 -336.761091 
L 349.337983 -333.519567 
L 349.149497 -330.278043 
L 348.98515 -327.036519 
L 348.845235 -323.794996 
L 348.729007 -320.553472 
L 348.634844 -317.311948 
L 348.560471 -314.070425 
z
" style="stroke: #3d3d3d; stroke-opacity: 0.5"/>
    </defs>
    <g clip-path="url(#p5f685ca3e4)">
     <use xlink:href="#me890e817c4" x="0" y="722.183991" style="fill: #c03d3e; fill-opacity: 0.5; stroke: #3d3d3d; stroke-opacity: 0.5"/>
    </g>
   </g>
   <g id="PolyCollection_4">
    <defs>
     <path id="m92dbc58ccc" d="M 460.180885 -287.43881 
L 459.744115 -287.43881 
L 459.659916 -291.031055 
L 459.552265 -294.623301 
L 459.417998 -298.215547 
L 459.254569 -301.807793 
L 459.060354 -305.400038 
L 458.83491 -308.992284 
L 458.579141 -312.58453 
L 458.295355 -316.176776 
L 457.987174 -319.769021 
L 457.659301 -323.361267 
L 457.317144 -326.953513 
L 456.966292 -330.545758 
L 456.611862 -334.138004 
L 456.257728 -337.73025 
L 455.905626 -341.322496 
L 455.554189 -344.914741 
L 455.197947 -348.506987 
L 454.826408 -352.099233 
L 454.423348 -355.691479 
L 453.966498 -359.283724 
L 453.427803 -362.87597 
L 452.774413 -366.468216 
L 451.970484 -370.060462 
L 450.979771 -373.652707 
L 449.768843 -377.244953 
L 448.310638 -380.837199 
L 446.587993 -384.429445 
L 444.59671 -388.02169 
L 442.347787 -391.613936 
L 439.868519 -395.206182 
L 437.202297 -398.798428 
L 434.407122 -402.390673 
L 431.55294 -405.982919 
L 428.718034 -409.575165 
L 425.984739 -413.167411 
L 423.434762 -416.759656 
L 421.144355 -420.351902 
L 419.179617 -423.944148 
L 417.592162 -427.536393 
L 416.415451 -431.128639 
L 415.662101 -434.720885 
L 415.3225 -438.313131 
L 415.365041 -441.905376 
L 415.738176 -445.497622 
L 416.374328 -449.089868 
L 417.195487 -452.682114 
L 418.12006 -456.274359 
L 419.070316 -459.866605 
L 419.979627 -463.458851 
L 420.798619 -467.051097 
L 421.499461 -470.643342 
L 422.077701 -474.235588 
L 422.551358 -477.827834 
L 422.95739 -481.42008 
L 423.345981 -485.012325 
L 423.773438 -488.604571 
L 424.29466 -492.196817 
L 424.956209 -495.789063 
L 425.790872 -499.381308 
L 426.814375 -502.973554 
L 428.02455 -506.5658 
L 429.402868 -510.158046 
L 430.917897 -513.750291 
L 432.529984 -517.342537 
L 434.196324 -520.934783 
L 435.875601 -524.527029 
L 437.531565 -528.119274 
L 439.135157 -531.71152 
L 440.665149 -535.303766 
L 442.10752 -538.896011 
L 443.454031 -542.488257 
L 444.700543 -546.080503 
L 445.845561 -549.672749 
L 446.889352 -553.264994 
L 447.83374 -556.85724 
L 448.682464 -560.449486 
L 449.441826 -564.041732 
L 450.121253 -567.633977 
L 450.733446 -571.226223 
L 451.29392 -574.818469 
L 451.819878 -578.410715 
L 452.328593 -582.00296 
L 452.835549 -585.595206 
L 453.352704 -589.187452 
L 453.887181 -592.779698 
L 454.440638 -596.371943 
L 455.009383 -599.964189 
L 455.585212 -603.556435 
L 456.156767 -607.148681 
L 456.711192 -610.740926 
L 457.235797 -614.333172 
L 457.719501 -617.925418 
L 458.153879 -621.517664 
L 458.533738 -625.109909 
L 458.857217 -628.702155 
L 459.1255 -632.294401 
L 459.342233 -635.886646 
L 459.512809 -639.478892 
L 459.643621 -643.071138 
L 460.281379 -643.071138 
L 460.281379 -643.071138 
L 460.412191 -639.478892 
L 460.582767 -635.886646 
L 460.7995 -632.294401 
L 461.067783 -628.702155 
L 461.391262 -625.109909 
L 461.771121 -621.517664 
L 462.205499 -617.925418 
L 462.689203 -614.333172 
L 463.213808 -610.740926 
L 463.768233 -607.148681 
L 464.339788 -603.556435 
L 464.915617 -599.964189 
L 465.484362 -596.371943 
L 466.037819 -592.779698 
L 466.572296 -589.187452 
L 467.089451 -585.595206 
L 467.596407 -582.00296 
L 468.105122 -578.410715 
L 468.63108 -574.818469 
L 469.191554 -571.226223 
L 469.803747 -567.633977 
L 470.483174 -564.041732 
L 471.242536 -560.449486 
L 472.09126 -556.85724 
L 473.035648 -553.264994 
L 474.079439 -549.672749 
L 475.224457 -546.080503 
L 476.470969 -542.488257 
L 477.81748 -538.896011 
L 479.259851 -535.303766 
L 480.789843 -531.71152 
L 482.393435 -528.119274 
L 484.049399 -524.527029 
L 485.728676 -520.934783 
L 487.395016 -517.342537 
L 489.007103 -513.750291 
L 490.522132 -510.158046 
L 491.90045 -506.5658 
L 493.110625 -502.973554 
L 494.134128 -499.381308 
L 494.968791 -495.789063 
L 495.63034 -492.196817 
L 496.151562 -488.604571 
L 496.579019 -485.012325 
L 496.96761 -481.42008 
L 497.373642 -477.827834 
L 497.847299 -474.235588 
L 498.425539 -470.643342 
L 499.126381 -467.051097 
L 499.945373 -463.458851 
L 500.854684 -459.866605 
L 501.80494 -456.274359 
L 502.729513 -452.682114 
L 503.550672 -449.089868 
L 504.186824 -445.497622 
L 504.559959 -441.905376 
L 504.6025 -438.313131 
L 504.262899 -434.720885 
L 503.509549 -431.128639 
L 502.332838 -427.536393 
L 500.745383 -423.944148 
L 498.780645 -420.351902 
L 496.490238 -416.759656 
L 493.940261 -413.167411 
L 491.206966 -409.575165 
L 488.37206 -405.982919 
L 485.517878 -402.390673 
L 482.722703 -398.798428 
L 480.056481 -395.206182 
L 477.577213 -391.613936 
L 475.32829 -388.02169 
L 473.337007 -384.429445 
L 471.614362 -380.837199 
L 470.156157 -377.244953 
L 468.945229 -373.652707 
L 467.954516 -370.060462 
L 467.150587 -366.468216 
L 466.497197 -362.87597 
L 465.958502 -359.283724 
L 465.501652 -355.691479 
L 465.098592 -352.099233 
L 464.727053 -348.506987 
L 464.370811 -344.914741 
L 464.019374 -341.322496 
L 463.667272 -337.73025 
L 463.313138 -334.138004 
L 462.958708 -330.545758 
L 462.607856 -326.953513 
L 462.265699 -323.361267 
L 461.937826 -319.769021 
L 461.629645 -316.176776 
L 461.345859 -312.58453 
L 461.09009 -308.992284 
L 460.864646 -305.400038 
L 460.670431 -301.807793 
L 460.507002 -298.215547 
L 460.372735 -294.623301 
L 460.265084 -291.031055 
L 460.180885 -287.43881 
z
" style="stroke: #3d3d3d; stroke-opacity: 0.5"/>
    </defs>
    <g clip-path="url(#p5f685ca3e4)">
     <use xlink:href="#m92dbc58ccc" x="0" y="722.183991" style="fill: #9372b2; fill-opacity: 0.5; stroke: #3d3d3d; stroke-opacity: 0.5"/>
    </g>
   </g>
   <g id="PolyCollection_5">
    <defs>
     <path id="m8fe07467c9" d="M 571.915433 -272.269927 
L 571.209567 -272.269927 
L 571.065441 -276.487241 
L 570.881768 -280.704555 
L 570.655417 -284.921869 
L 570.385614 -289.139182 
L 570.074437 -293.356496 
L 569.726913 -297.57381 
L 569.350648 -301.791124 
L 568.954978 -306.008437 
L 568.549776 -310.225751 
L 568.14412 -314.443065 
L 567.745086 -318.660379 
L 567.356889 -322.877693 
L 566.980463 -327.095006 
L 566.613441 -331.31232 
L 566.250335 -335.529634 
L 565.882626 -339.746948 
L 565.498534 -343.964261 
L 565.082359 -348.181575 
L 564.613522 -352.398889 
L 564.065672 -356.616203 
L 563.406358 -360.833516 
L 562.597818 -365.05083 
L 561.599223 -369.268144 
L 560.370475 -373.485458 
L 558.877219 -377.702772 
L 557.096427 -381.920085 
L 555.021623 -386.137399 
L 552.666829 -390.354713 
L 550.068419 -394.572027 
L 547.284431 -398.78934 
L 544.391284 -403.006654 
L 541.478294 -407.223968 
L 538.64069 -411.441282 
L 535.972046 -415.658596 
L 533.557072 -419.875909 
L 531.465605 -424.093223 
L 529.74843 -428.310537 
L 528.435307 -432.527851 
L 527.535257 -436.745164 
L 527.038919 -440.962478 
L 526.9225 -445.179792 
L 527.152662 -449.397106 
L 527.691572 -453.61442 
L 528.501357 -457.831733 
L 529.547314 -462.049047 
L 530.799509 -466.266361 
L 532.232688 -470.483675 
L 533.824762 -474.700988 
L 535.55442 -478.918302 
L 537.398545 -483.135616 
L 539.330112 -487.35293 
L 541.317124 -491.570244 
L 543.322878 -495.787557 
L 545.307565 -500.004871 
L 547.230969 -504.222185 
L 549.055812 -508.439499 
L 550.751195 -512.656812 
L 552.295611 -516.874126 
L 553.679032 -521.09144 
L 554.90376 -525.308754 
L 555.983863 -529.526068 
L 556.943223 -533.743381 
L 557.812392 -537.960695 
L 558.624636 -542.178009 
L 559.411682 -546.395323 
L 560.199758 -550.612636 
L 561.006515 -554.82995 
L 561.839295 -559.047264 
L 562.695006 -563.264578 
L 563.561559 -567.481892 
L 564.420561 -571.699205 
L 565.250685 -575.916519 
L 566.03109 -580.133833 
L 566.744255 -584.351147 
L 567.377831 -588.56846 
L 567.925348 -592.785774 
L 568.385918 -597.003088 
L 568.763256 -601.220402 
L 569.064421 -605.437716 
L 569.298634 -609.655029 
L 569.476393 -613.872343 
L 569.608907 -618.089657 
L 569.707742 -622.306971 
L 569.784513 -626.524284 
L 569.850457 -630.741598 
L 569.915824 -634.958912 
L 569.989138 -639.176226 
L 570.076479 -643.39354 
L 570.180961 -647.610853 
L 570.302574 -651.828167 
L 570.438448 -656.045481 
L 570.583527 -660.262795 
L 570.731498 -664.480108 
L 570.875814 -668.697422 
L 571.010613 -672.914736 
L 571.131388 -677.13205 
L 571.235336 -681.349364 
L 571.321387 -685.566677 
L 571.389979 -689.783991 
L 571.735021 -689.783991 
L 571.735021 -689.783991 
L 571.803613 -685.566677 
L 571.889664 -681.349364 
L 571.993612 -677.13205 
L 572.114387 -672.914736 
L 572.249186 -668.697422 
L 572.393502 -664.480108 
L 572.541473 -660.262795 
L 572.686552 -656.045481 
L 572.822426 -651.828167 
L 572.944039 -647.610853 
L 573.048521 -643.39354 
L 573.135862 -639.176226 
L 573.209176 -634.958912 
L 573.274543 -630.741598 
L 573.340487 -626.524284 
L 573.417258 -622.306971 
L 573.516093 -618.089657 
L 573.648607 -613.872343 
L 573.826366 -609.655029 
L 574.060579 -605.437716 
L 574.361744 -601.220402 
L 574.739082 -597.003088 
L 575.199652 -592.785774 
L 575.747169 -588.56846 
L 576.380745 -584.351147 
L 577.09391 -580.133833 
L 577.874315 -575.916519 
L 578.704439 -571.699205 
L 579.563441 -567.481892 
L 580.429994 -563.264578 
L 581.285705 -559.047264 
L 582.118485 -554.82995 
L 582.925242 -550.612636 
L 583.713318 -546.395323 
L 584.500364 -542.178009 
L 585.312608 -537.960695 
L 586.181777 -533.743381 
L 587.141137 -529.526068 
L 588.22124 -525.308754 
L 589.445968 -521.09144 
L 590.829389 -516.874126 
L 592.373805 -512.656812 
L 594.069188 -508.439499 
L 595.894031 -504.222185 
L 597.817435 -500.004871 
L 599.802122 -495.787557 
L 601.807876 -491.570244 
L 603.794888 -487.35293 
L 605.726455 -483.135616 
L 607.57058 -478.918302 
L 609.300238 -474.700988 
L 610.892312 -470.483675 
L 612.325491 -466.266361 
L 613.577686 -462.049047 
L 614.623643 -457.831733 
L 615.433428 -453.61442 
L 615.972338 -449.397106 
L 616.2025 -445.179792 
L 616.086081 -440.962478 
L 615.589743 -436.745164 
L 614.689693 -432.527851 
L 613.37657 -428.310537 
L 611.659395 -424.093223 
L 609.567928 -419.875909 
L 607.152954 -415.658596 
L 604.48431 -411.441282 
L 601.646706 -407.223968 
L 598.733716 -403.006654 
L 595.840569 -398.78934 
L 593.056581 -394.572027 
L 590.458171 -390.354713 
L 588.103377 -386.137399 
L 586.028573 -381.920085 
L 584.247781 -377.702772 
L 582.754525 -373.485458 
L 581.525777 -369.268144 
L 580.527182 -365.05083 
L 579.718642 -360.833516 
L 579.059328 -356.616203 
L 578.511478 -352.398889 
L 578.042641 -348.181575 
L 577.626466 -343.964261 
L 577.242374 -339.746948 
L 576.874665 -335.529634 
L 576.511559 -331.31232 
L 576.144537 -327.095006 
L 575.768111 -322.877693 
L 575.379914 -318.660379 
L 574.98088 -314.443065 
L 574.575224 -310.225751 
L 574.170022 -306.008437 
L 573.774352 -301.791124 
L 573.398087 -297.57381 
L 573.050563 -293.356496 
L 572.739386 -289.139182 
L 572.469583 -284.921869 
L 572.243232 -280.704555 
L 572.059559 -276.487241 
L 571.915433 -272.269927 
z
" style="stroke: #3d3d3d; stroke-opacity: 0.5"/>
    </defs>
    <g clip-path="url(#p5f685ca3e4)">
     <use xlink:href="#m8fe07467c9" x="0" y="722.183991" style="fill: #845b53; fill-opacity: 0.5; stroke: #3d3d3d; stroke-opacity: 0.5"/>
    </g>
   </g>
   <g id="PolyCollection_6">
    <defs>
     <path id="md9927c5712" d="M 683.539348 -270.224863 
L 682.785652 -270.224863 
L 682.633527 -274.258942 
L 682.433305 -278.29302 
L 682.174978 -282.327099 
L 681.848166 -286.361177 
L 681.44263 -290.395256 
L 680.948868 -294.429334 
L 680.358757 -298.463413 
L 679.666174 -302.497491 
L 678.867544 -306.53157 
L 677.962232 -310.565648 
L 676.952749 -314.599727 
L 675.844726 -318.633805 
L 674.646645 -322.667884 
L 673.369352 -326.701962 
L 672.025393 -330.736041 
L 670.628217 -334.770119 
L 669.191331 -338.804198 
L 667.727474 -342.838276 
L 666.247898 -346.872355 
L 664.7618 -350.906433 
L 663.275997 -354.940512 
L 661.794862 -358.97459 
L 660.320556 -363.008669 
L 658.853558 -367.042747 
L 657.393449 -371.076826 
L 655.939885 -375.110904 
L 654.493665 -379.144983 
L 653.057733 -383.179061 
L 651.637977 -387.21314 
L 650.243668 -391.247218 
L 648.887388 -395.281297 
L 647.5844 -399.315375 
L 646.351429 -403.349454 
L 645.204982 -407.383532 
L 644.159388 -411.417611 
L 643.224861 -415.451689 
L 642.405912 -419.485768 
L 641.700457 -423.519846 
L 641.099881 -427.553925 
L 640.590206 -431.588003 
L 640.15433 -435.622082 
L 639.775092 -439.65616 
L 639.438797 -443.690239 
L 639.138628 -447.724317 
L 638.877412 -451.758396 
L 638.669198 -455.792474 
L 638.539275 -459.826553 
L 638.5225 -463.860631 
L 638.660008 -467.89471 
L 638.994704 -471.928788 
L 639.56608 -475.962867 
L 640.40507 -479.996945 
L 641.529627 -484.031024 
L 642.941654 -488.065102 
L 644.625684 -492.099181 
L 646.549471 -496.133259 
L 648.666393 -500.167338 
L 650.919273 -504.201416 
L 653.245115 -508.235495 
L 655.58011 -512.269573 
L 657.864326 -516.303652 
L 660.045593 -520.33773 
L 662.08225 -524.371809 
L 663.944638 -528.405887 
L 665.615374 -532.439966 
L 667.088597 -536.474044 
L 668.368447 -540.508123 
L 669.467078 -544.542201 
L 670.402465 -548.57628 
L 671.196228 -552.610358 
L 671.871653 -556.644437 
L 672.452011 -560.678515 
L 672.95923 -564.712594 
L 673.41297 -568.746672 
L 673.830084 -572.780751 
L 674.224424 -576.814829 
L 674.606965 -580.848907 
L 674.986129 -584.882986 
L 675.368226 -588.917064 
L 675.757905 -592.951143 
L 676.158516 -596.985221 
L 676.572321 -601.0193 
L 677.000539 -605.053378 
L 677.443244 -609.087457 
L 677.899186 -613.121535 
L 678.365625 -617.155614 
L 678.838263 -621.189692 
L 679.311345 -625.223771 
L 679.777962 -629.257849 
L 680.230527 -633.291928 
L 680.661385 -637.326006 
L 681.063455 -641.360085 
L 681.43082 -645.394163 
L 681.759181 -649.428242 
L 682.04612 -653.46232 
L 682.291143 -657.496399 
L 682.495534 -661.530477 
L 682.662053 -665.564556 
L 682.794532 -669.598634 
L 683.530468 -669.598634 
L 683.530468 -669.598634 
L 683.662947 -665.564556 
L 683.829466 -661.530477 
L 684.033857 -657.496399 
L 684.27888 -653.46232 
L 684.565819 -649.428242 
L 684.89418 -645.394163 
L 685.261545 -641.360085 
L 685.663615 -637.326006 
L 686.094473 -633.291928 
L 686.547038 -629.257849 
L 687.013655 -625.223771 
L 687.486737 -621.189692 
L 687.959375 -617.155614 
L 688.425814 -613.121535 
L 688.881756 -609.087457 
L 689.324461 -605.053378 
L 689.752679 -601.0193 
L 690.166484 -596.985221 
L 690.567095 -592.951143 
L 690.956774 -588.917064 
L 691.338871 -584.882986 
L 691.718035 -580.848907 
L 692.100576 -576.814829 
L 692.494916 -572.780751 
L 692.91203 -568.746672 
L 693.36577 -564.712594 
L 693.872989 -560.678515 
L 694.453347 -556.644437 
L 695.128772 -552.610358 
L 695.922535 -548.57628 
L 696.857922 -544.542201 
L 697.956553 -540.508123 
L 699.236403 -536.474044 
L 700.709626 -532.439966 
L 702.380362 -528.405887 
L 704.24275 -524.371809 
L 706.279407 -520.33773 
L 708.460674 -516.303652 
L 710.74489 -512.269573 
L 713.079885 -508.235495 
L 715.405727 -504.201416 
L 717.658607 -500.167338 
L 719.775529 -496.133259 
L 721.699316 -492.099181 
L 723.383346 -488.065102 
L 724.795373 -484.031024 
L 725.91993 -479.996945 
L 726.75892 -475.962867 
L 727.330296 -471.928788 
L 727.664992 -467.89471 
L 727.8025 -463.860631 
L 727.785725 -459.826553 
L 727.655802 -455.792474 
L 727.447588 -451.758396 
L 727.186372 -447.724317 
L 726.886203 -443.690239 
L 726.549908 -439.65616 
L 726.17067 -435.622082 
L 725.734794 -431.588003 
L 725.225119 -427.553925 
L 724.624543 -423.519846 
L 723.919088 -419.485768 
L 723.100139 -415.451689 
L 722.165612 -411.417611 
L 721.120018 -407.383532 
L 719.973571 -403.349454 
L 718.7406 -399.315375 
L 717.437612 -395.281297 
L 716.081332 -391.247218 
L 714.687023 -387.21314 
L 713.267267 -383.179061 
L 711.831335 -379.144983 
L 710.385115 -375.110904 
L 708.931551 -371.076826 
L 707.471442 -367.042747 
L 706.004444 -363.008669 
L 704.530138 -358.97459 
L 703.049003 -354.940512 
L 701.5632 -350.906433 
L 700.077102 -346.872355 
L 698.597526 -342.838276 
L 697.133669 -338.804198 
L 695.696783 -334.770119 
L 694.299607 -330.736041 
L 692.955648 -326.701962 
L 691.678355 -322.667884 
L 690.480274 -318.633805 
L 689.372251 -314.599727 
L 688.362768 -310.565648 
L 687.457456 -306.53157 
L 686.658826 -302.497491 
L 685.966243 -298.463413 
L 685.376132 -294.429334 
L 684.88237 -290.395256 
L 684.476834 -286.361177 
L 684.150022 -282.327099 
L 683.891695 -278.29302 
L 683.691473 -274.258942 
L 683.539348 -270.224863 
z
" style="stroke: #3d3d3d; stroke-opacity: 0.5"/>
    </defs>
    <g clip-path="url(#p5f685ca3e4)">
     <use xlink:href="#md9927c5712" x="0" y="722.183991" style="fill: #e1812c; fill-opacity: 0.5; stroke: #3d3d3d; stroke-opacity: 0.5"/>
    </g>
   </g>
   <g id="PolyCollection_7">
    <defs>
     <path id="m0f638f9d36" d="M 794.942239 -190.16856 
L 794.582761 -190.16856 
L 794.512753 -194.686178 
L 794.425166 -199.203797 
L 794.319448 -203.721416 
L 794.19643 -208.239035 
L 794.058519 -212.756654 
L 793.909644 -217.274273 
L 793.754903 -221.791892 
L 793.5999 -226.309511 
L 793.449856 -230.82713 
L 793.308624 -235.344749 
L 793.177819 -239.862368 
L 793.056254 -244.379987 
L 792.939847 -248.897606 
L 792.822065 -253.415225 
L 792.694849 -257.932844 
L 792.549856 -262.450463 
L 792.379749 -266.968082 
L 792.179278 -271.485701 
L 791.945903 -276.00332 
L 791.679838 -280.520939 
L 791.383512 -285.038558 
L 791.060575 -289.556177 
L 790.714637 -294.073796 
L 790.347975 -298.591415 
L 789.960366 -303.109034 
L 789.548169 -307.626652 
L 789.103674 -312.144271 
L 788.614721 -316.66189 
L 788.064578 -321.179509 
L 787.432114 -325.697128 
L 786.692371 -330.214747 
L 785.817638 -334.732366 
L 784.779131 -339.249985 
L 783.549287 -343.767604 
L 782.104525 -348.285223 
L 780.428234 -352.802842 
L 778.513628 -357.320461 
L 776.366115 -361.83808 
L 774.004881 -366.355699 
L 771.463523 -370.873318 
L 768.789682 -375.390937 
L 766.043711 -379.908556 
L 763.296441 -384.426175 
L 760.626097 -388.943794 
L 758.11438 -393.461413 
L 755.841753 -397.979032 
L 753.882117 -402.496651 
L 752.297198 -407.01427 
L 751.131261 -411.531889 
L 750.406869 -416.049507 
L 750.1225 -420.567126 
L 750.252606 -425.084745 
L 750.750364 -429.602364 
L 751.552865 -434.119983 
L 752.588019 -438.637602 
L 753.782085 -443.155221 
L 755.066682 -447.67284 
L 756.384283 -452.190459 
L 757.691623 -456.708078 
L 758.960913 -461.225697 
L 760.179219 -465.743316 
L 761.346594 -470.260935 
L 762.473609 -474.778554 
L 763.57874 -479.296173 
L 764.685814 -483.813792 
L 765.821473 -488.331411 
L 767.012494 -492.84903 
L 768.282837 -497.366649 
L 769.650498 -501.884268 
L 771.124453 -506.401887 
L 772.702183 -510.919506 
L 774.368326 -515.437125 
L 776.094902 -519.954744 
L 777.843306 -524.472363 
L 779.567935 -528.989981 
L 781.221011 -533.5076 
L 782.757912 -538.025219 
L 784.142223 -542.542838 
L 785.349759 -547.060457 
L 786.370979 -551.578076 
L 787.211469 -556.095695 
L 787.89047 -560.613314 
L 788.437708 -565.130933 
L 788.889059 -569.648552 
L 789.281697 -574.166171 
L 789.649477 -578.68379 
L 790.019198 -583.201409 
L 790.408235 -587.719028 
L 790.823778 -592.236647 
L 791.263611 -596.754266 
L 791.718141 -601.271885 
L 792.173179 -605.789504 
L 792.612921 -610.307123 
L 793.022617 -614.824742 
L 793.39057 -619.342361 
L 793.709259 -623.85998 
L 793.975611 -628.377599 
L 794.190569 -632.895218 
L 794.358195 -637.412836 
L 795.166805 -637.412836 
L 795.166805 -637.412836 
L 795.334431 -632.895218 
L 795.549389 -628.377599 
L 795.815741 -623.85998 
L 796.13443 -619.342361 
L 796.502383 -614.824742 
L 796.912079 -610.307123 
L 797.351821 -605.789504 
L 797.806859 -601.271885 
L 798.261389 -596.754266 
L 798.701222 -592.236647 
L 799.116765 -587.719028 
L 799.505802 -583.201409 
L 799.875523 -578.68379 
L 800.243303 -574.166171 
L 800.635941 -569.648552 
L 801.087292 -565.130933 
L 801.63453 -560.613314 
L 802.313531 -556.095695 
L 803.154021 -551.578076 
L 804.175241 -547.060457 
L 805.382777 -542.542838 
L 806.767088 -538.025219 
L 808.303989 -533.5076 
L 809.957065 -528.989981 
L 811.681694 -524.472363 
L 813.430098 -519.954744 
L 815.156674 -515.437125 
L 816.822817 -510.919506 
L 818.400547 -506.401887 
L 819.874502 -501.884268 
L 821.242163 -497.366649 
L 822.512506 -492.84903 
L 823.703527 -488.331411 
L 824.839186 -483.813792 
L 825.94626 -479.296173 
L 827.051391 -474.778554 
L 828.178406 -470.260935 
L 829.345781 -465.743316 
L 830.564087 -461.225697 
L 831.833377 -456.708078 
L 833.140717 -452.190459 
L 834.458318 -447.67284 
L 835.742915 -443.155221 
L 836.936981 -438.637602 
L 837.972135 -434.119983 
L 838.774636 -429.602364 
L 839.272394 -425.084745 
L 839.4025 -420.567126 
L 839.118131 -416.049507 
L 838.393739 -411.531889 
L 837.227802 -407.01427 
L 835.642883 -402.496651 
L 833.683247 -397.979032 
L 831.41062 -393.461413 
L 828.898903 -388.943794 
L 826.228559 -384.426175 
L 823.481289 -379.908556 
L 820.735318 -375.390937 
L 818.061477 -370.873318 
L 815.520119 -366.355699 
L 813.158885 -361.83808 
L 811.011372 -357.320461 
L 809.096766 -352.802842 
L 807.420475 -348.285223 
L 805.975713 -343.767604 
L 804.745869 -339.249985 
L 803.707362 -334.732366 
L 802.832629 -330.214747 
L 802.092886 -325.697128 
L 801.460422 -321.179509 
L 800.910279 -316.66189 
L 800.421326 -312.144271 
L 799.976831 -307.626652 
L 799.564634 -303.109034 
L 799.177025 -298.591415 
L 798.810363 -294.073796 
L 798.464425 -289.556177 
L 798.141488 -285.038558 
L 797.845162 -280.520939 
L 797.579097 -276.00332 
L 797.345722 -271.485701 
L 797.145251 -266.968082 
L 796.975144 -262.450463 
L 796.830151 -257.932844 
L 796.702935 -253.415225 
L 796.585153 -248.897606 
L 796.468746 -244.379987 
L 796.347181 -239.862368 
L 796.216376 -235.344749 
L 796.075144 -230.82713 
L 795.9251 -226.309511 
L 795.770097 -221.791892 
L 795.615356 -217.274273 
L 795.466481 -212.756654 
L 795.32857 -208.239035 
L 795.205552 -203.721416 
L 795.099834 -199.203797 
L 795.012247 -194.686178 
L 794.942239 -190.16856 
z
" style="stroke: #3d3d3d; stroke-opacity: 0.5"/>
    </defs>
    <g clip-path="url(#p5f685ca3e4)">
     <use xlink:href="#m0f638f9d36" x="0" y="722.183991" style="fill: #3a923a; fill-opacity: 0.5; stroke: #3d3d3d; stroke-opacity: 0.5"/>
    </g>
   </g>
   <g id="line2d_9">
    <path d="M 125.1625 389.99268 
L 125.1625 128.801787 
" clip-path="url(#p5f685ca3e4)" style="fill: none; stroke: #3d3d3d; stroke-width: 1.5; stroke-linecap: round"/>
   </g>
   <g id="line2d_10">
    <path d="M 125.1625 294.484281 
L 125.1625 218.356238 
" clip-path="url(#p5f685ca3e4)" style="fill: none; stroke: #3d3d3d; stroke-width: 4.5; stroke-linecap: round"/>
   </g>
   <g id="line2d_11">
    <path d="M 125.1625 260.466178 
" clip-path="url(#p5f685ca3e4)" style="fill: none; stroke: #3d3d3d; stroke-width: 1.5; stroke-linecap: round"/>
    <defs>
     <path id="m0f35cdef49" d="M 1.875 0 
L -1.875 -0 
" style="stroke: #ffffff; stroke-width: 0.9"/>
    </defs>
    <g clip-path="url(#p5f685ca3e4)">
     <use xlink:href="#m0f35cdef49" x="125.1625" y="260.466178" style="fill: #ffffff; stroke: #ffffff; stroke-width: 0.9"/>
    </g>
   </g>
   <g id="line2d_12">
    <path d="M 236.7625 484.745757 
L 236.7625 180.504595 
" clip-path="url(#p5f685ca3e4)" style="fill: none; stroke: #3d3d3d; stroke-width: 1.5; stroke-linecap: round"/>
   </g>
   <g id="line2d_13">
    <path d="M 236.7625 374.912725 
L 236.7625 291.845913 
" clip-path="url(#p5f685ca3e4)" style="fill: none; stroke: #3d3d3d; stroke-width: 4.5; stroke-linecap: round"/>
   </g>
   <g id="line2d_14">
    <path d="M 236.7625 341.921927 
" clip-path="url(#p5f685ca3e4)" style="fill: none; stroke: #3d3d3d; stroke-width: 1.5; stroke-linecap: round"/>
    <g clip-path="url(#p5f685ca3e4)">
     <use xlink:href="#m0f35cdef49" x="236.7625" y="341.921927" style="fill: #ffffff; stroke: #ffffff; stroke-width: 0.9"/>
    </g>
   </g>
   <g id="line2d_15">
    <path d="M 348.3625 333.931308 
L 348.3625 128.333078 
" clip-path="url(#p5f685ca3e4)" style="fill: none; stroke: #3d3d3d; stroke-width: 1.5; stroke-linecap: round"/>
   </g>
   <g id="line2d_16">
    <path d="M 348.3625 253.987387 
L 348.3625 192.311576 
" clip-path="url(#p5f685ca3e4)" style="fill: none; stroke: #3d3d3d; stroke-width: 4.5; stroke-linecap: round"/>
   </g>
   <g id="line2d_17">
    <path d="M 348.3625 217.773677 
" clip-path="url(#p5f685ca3e4)" style="fill: none; stroke: #3d3d3d; stroke-width: 1.5; stroke-linecap: round"/>
    <g clip-path="url(#p5f685ca3e4)">
     <use xlink:href="#m0f35cdef49" x="348.3625" y="217.773677" style="fill: #ffffff; stroke: #ffffff; stroke-width: 0.9"/>
    </g>
   </g>
   <g id="line2d_18">
    <path d="M 459.9625 389.450788 
L 459.9625 124.407246 
" clip-path="url(#p5f685ca3e4)" style="fill: none; stroke: #3d3d3d; stroke-width: 1.5; stroke-linecap: round"/>
   </g>
   <g id="line2d_19">
    <path d="M 459.9625 291.670452 
L 459.9625 219.130894 
" clip-path="url(#p5f685ca3e4)" style="fill: none; stroke: #3d3d3d; stroke-width: 4.5; stroke-linecap: round"/>
   </g>
   <g id="line2d_20">
    <path d="M 459.9625 264.085638 
" clip-path="url(#p5f685ca3e4)" style="fill: none; stroke: #3d3d3d; stroke-width: 1.5; stroke-linecap: round"/>
    <g clip-path="url(#p5f685ca3e4)">
     <use xlink:href="#m0f35cdef49" x="459.9625" y="264.085638" style="fill: #ffffff; stroke: #ffffff; stroke-width: 0.9"/>
    </g>
   </g>
   <g id="line2d_21">
    <path d="M 571.5625 372.329735 
L 571.5625 157.490799 
" clip-path="url(#p5f685ca3e4)" style="fill: none; stroke: #3d3d3d; stroke-width: 1.5; stroke-linecap: round"/>
   </g>
   <g id="line2d_22">
    <path d="M 571.5625 297.660658 
L 571.5625 235.648885 
" clip-path="url(#p5f685ca3e4)" style="fill: none; stroke: #3d3d3d; stroke-width: 4.5; stroke-linecap: round"/>
   </g>
   <g id="line2d_23">
    <path d="M 571.5625 268.912536 
" clip-path="url(#p5f685ca3e4)" style="fill: none; stroke: #3d3d3d; stroke-width: 1.5; stroke-linecap: round"/>
    <g clip-path="url(#p5f685ca3e4)">
     <use xlink:href="#m0f35cdef49" x="571.5625" y="268.912536" style="fill: #ffffff; stroke: #ffffff; stroke-width: 0.9"/>
    </g>
   </g>
   <g id="line2d_24">
    <path d="M 683.1625 397.917194 
L 683.1625 134.712641 
" clip-path="url(#p5f685ca3e4)" style="fill: none; stroke: #3d3d3d; stroke-width: 1.5; stroke-linecap: round"/>
   </g>
   <g id="line2d_25">
    <path d="M 683.1625 315.777742 
L 683.1625 234.26057 
" clip-path="url(#p5f685ca3e4)" style="fill: none; stroke: #3d3d3d; stroke-width: 4.5; stroke-linecap: round"/>
   </g>
   <g id="line2d_26">
    <path d="M 683.1625 271.96789 
" clip-path="url(#p5f685ca3e4)" style="fill: none; stroke: #3d3d3d; stroke-width: 1.5; stroke-linecap: round"/>
    <g clip-path="url(#p5f685ca3e4)">
     <use xlink:href="#m0f35cdef49" x="683.1625" y="271.96789" style="fill: #ffffff; stroke: #ffffff; stroke-width: 0.9"/>
    </g>
   </g>
   <g id="line2d_27">
    <path d="M 794.7625 431.018782 
L 794.7625 137.707536 
" clip-path="url(#p5f685ca3e4)" style="fill: none; stroke: #3d3d3d; stroke-width: 1.5; stroke-linecap: round"/>
   </g>
   <g id="line2d_28">
    <path d="M 794.7625 320.463334 
L 794.7625 245.201196 
" clip-path="url(#p5f685ca3e4)" style="fill: none; stroke: #3d3d3d; stroke-width: 4.5; stroke-linecap: round"/>
   </g>
   <g id="line2d_29">
    <path d="M 794.7625 293.79269 
" clip-path="url(#p5f685ca3e4)" style="fill: none; stroke: #3d3d3d; stroke-width: 1.5; stroke-linecap: round"/>
    <g clip-path="url(#p5f685ca3e4)">
     <use xlink:href="#m0f35cdef49" x="794.7625" y="293.79269" style="fill: #ffffff; stroke: #ffffff; stroke-width: 0.9"/>
    </g>
   </g>
   <g id="patch_3">
    <path d="M 69.3625 561.6 
L 850.5625 561.6 
" style="fill: none; stroke: #cccccc; stroke-width: 0.8; stroke-linejoin: miter; stroke-linecap: square"/>
   </g>
  </g>
 </g>
 <defs>
  <clipPath id="p5f685ca3e4">
   <rect x="69.3625" y="7.2" width="781.2" height="554.4"/>
  </clipPath>
 </defs>
</svg>
