<?xml version="1.0" encoding="utf-8" standalone="no"?>
<!DOCTYPE svg PUBLIC "-//W3C//DTD SVG 1.1//EN"
  "http://www.w3.org/Graphics/SVG/1.1/DTD/svg11.dtd">
<svg xmlns:xlink="http://www.w3.org/1999/xlink" width="870.4875pt" height="722.183991pt" viewBox="0 0 870.4875 722.183991" xmlns="http://www.w3.org/2000/svg" version="1.1">
 <metadata>
  <rdf:RDF xmlns:dc="http://purl.org/dc/elements/1.1/" xmlns:cc="http://creativecommons.org/ns#" xmlns:rdf="http://www.w3.org/1999/02/22-rdf-syntax-ns#">
   <cc:Work>
    <dc:type rdf:resource="http://purl.org/dc/dcmitype/StillImage"/>
    <dc:date>2024-03-17T20:48:19.242511</dc:date>
    <dc:format>image/svg+xml</dc:format>
    <dc:creator>
     <cc:Agent>
      <dc:title>Matplotlib v3.8.0, https://matplotlib.org/</dc:title>
     </cc:Agent>
    </dc:creator>
   </cc:Work>
  </rdf:RDF>
 </metadata>
 <defs>
  <style type="text/css">*{stroke-linejoin: round; stroke-linecap: butt}</style>
 </defs>
 <g id="figure_1">
  <g id="patch_1">
   <path d="M 0 722.183991 
L 870.4875 722.183991 
L 870.4875 0 
L 0 0 
L 0 722.183991 
z
" style="fill: none"/>
  </g>
  <g id="axes_1">
   <g id="patch_2">
    <path d="M 82.0875 561.6 
L 863.2875 561.6 
L 863.2875 7.2 
L 82.0875 7.2 
L 82.0875 561.6 
z
" style="fill: none"/>
   </g>
   <g id="matplotlib.axis_1">
    <g id="xtick_1">
     <g id="text_1">
      <!-- MSA -->
      <g style="fill: #262626" transform="translate(117.513986 610.465141) rotate(-45) scale(0.2 -0.2)">
       <defs>
        <path id="DejaVuSans-4d" d="M 628 4666 
L 1569 4666 
L 2759 1491 
L 3956 4666 
L 4897 4666 
L 4897 0 
L 4281 0 
L 4281 4097 
L 3078 897 
L 2444 897 
L 1241 4097 
L 1241 0 
L 628 0 
L 628 4666 
z
" transform="scale(0.015625)"/>
        <path id="DejaVuSans-53" d="M 3425 4513 
L 3425 3897 
Q 3066 4069 2747 4153 
Q 2428 4238 2131 4238 
Q 1616 4238 1336 4038 
Q 1056 3838 1056 3469 
Q 1056 3159 1242 3001 
Q 1428 2844 1947 2747 
L 2328 2669 
Q 3034 2534 3370 2195 
Q 3706 1856 3706 1288 
Q 3706 609 3251 259 
Q 2797 -91 1919 -91 
Q 1588 -91 1214 -16 
Q 841 59 441 206 
L 441 856 
Q 825 641 1194 531 
Q 1563 422 1919 422 
Q 2459 422 2753 634 
Q 3047 847 3047 1241 
Q 3047 1584 2836 1778 
Q 2625 1972 2144 2069 
L 1759 2144 
Q 1053 2284 737 2584 
Q 422 2884 422 3419 
Q 422 4038 858 4394 
Q 1294 4750 2059 4750 
Q 2388 4750 2728 4690 
Q 3069 4631 3425 4513 
z
" transform="scale(0.015625)"/>
        <path id="DejaVuSans-41" d="M 2188 4044 
L 1331 1722 
L 3047 1722 
L 2188 4044 
z
M 1831 4666 
L 2547 4666 
L 4325 0 
L 3669 0 
L 3244 1197 
L 1141 1197 
L 716 0 
L 50 0 
L 1831 4666 
z
" transform="scale(0.015625)"/>
       </defs>
       <use xlink:href="#DejaVuSans-4d"/>
       <use xlink:href="#DejaVuSans-53" x="86.279297"/>
       <use xlink:href="#DejaVuSans-41" x="151.630859"/>
      </g>
     </g>
    </g>
    <g id="xtick_2">
     <g id="text_2">
      <!-- Template -->
      <g style="fill: #262626" transform="translate(195.70319 643.875936) rotate(-45) scale(0.2 -0.2)">
       <defs>
        <path id="DejaVuSans-54" d="M -19 4666 
L 3928 4666 
L 3928 4134 
L 2272 4134 
L 2272 0 
L 1638 0 
L 1638 4134 
L -19 4134 
L -19 4666 
z
" transform="scale(0.015625)"/>
        <path id="DejaVuSans-65" d="M 3597 1894 
L 3597 1613 
L 953 1613 
Q 991 1019 1311 708 
Q 1631 397 2203 397 
Q 2534 397 2845 478 
Q 3156 559 3463 722 
L 3463 178 
Q 3153 47 2828 -22 
Q 2503 -91 2169 -91 
Q 1331 -91 842 396 
Q 353 884 353 1716 
Q 353 2575 817 3079 
Q 1281 3584 2069 3584 
Q 2775 3584 3186 3129 
Q 3597 2675 3597 1894 
z
M 3022 2063 
Q 3016 2534 2758 2815 
Q 2500 3097 2075 3097 
Q 1594 3097 1305 2825 
Q 1016 2553 972 2059 
L 3022 2063 
z
" transform="scale(0.015625)"/>
        <path id="DejaVuSans-6d" d="M 3328 2828 
Q 3544 3216 3844 3400 
Q 4144 3584 4550 3584 
Q 5097 3584 5394 3201 
Q 5691 2819 5691 2113 
L 5691 0 
L 5113 0 
L 5113 2094 
Q 5113 2597 4934 2840 
Q 4756 3084 4391 3084 
Q 3944 3084 3684 2787 
Q 3425 2491 3425 1978 
L 3425 0 
L 2847 0 
L 2847 2094 
Q 2847 2600 2669 2842 
Q 2491 3084 2119 3084 
Q 1678 3084 1418 2786 
Q 1159 2488 1159 1978 
L 1159 0 
L 581 0 
L 581 3500 
L 1159 3500 
L 1159 2956 
Q 1356 3278 1631 3431 
Q 1906 3584 2284 3584 
Q 2666 3584 2933 3390 
Q 3200 3197 3328 2828 
z
" transform="scale(0.015625)"/>
        <path id="DejaVuSans-70" d="M 1159 525 
L 1159 -1331 
L 581 -1331 
L 581 3500 
L 1159 3500 
L 1159 2969 
Q 1341 3281 1617 3432 
Q 1894 3584 2278 3584 
Q 2916 3584 3314 3078 
Q 3713 2572 3713 1747 
Q 3713 922 3314 415 
Q 2916 -91 2278 -91 
Q 1894 -91 1617 61 
Q 1341 213 1159 525 
z
M 3116 1747 
Q 3116 2381 2855 2742 
Q 2594 3103 2138 3103 
Q 1681 3103 1420 2742 
Q 1159 2381 1159 1747 
Q 1159 1113 1420 752 
Q 1681 391 2138 391 
Q 2594 391 2855 752 
Q 3116 1113 3116 1747 
z
" transform="scale(0.015625)"/>
        <path id="DejaVuSans-6c" d="M 603 4863 
L 1178 4863 
L 1178 0 
L 603 0 
L 603 4863 
z
" transform="scale(0.015625)"/>
        <path id="DejaVuSans-61" d="M 2194 1759 
Q 1497 1759 1228 1600 
Q 959 1441 959 1056 
Q 959 750 1161 570 
Q 1363 391 1709 391 
Q 2188 391 2477 730 
Q 2766 1069 2766 1631 
L 2766 1759 
L 2194 1759 
z
M 3341 1997 
L 3341 0 
L 2766 0 
L 2766 531 
Q 2569 213 2275 61 
Q 1981 -91 1556 -91 
Q 1019 -91 701 211 
Q 384 513 384 1019 
Q 384 1609 779 1909 
Q 1175 2209 1959 2209 
L 2766 2209 
L 2766 2266 
Q 2766 2663 2505 2880 
Q 2244 3097 1772 3097 
Q 1472 3097 1187 3025 
Q 903 2953 641 2809 
L 641 3341 
Q 956 3463 1253 3523 
Q 1550 3584 1831 3584 
Q 2591 3584 2966 3190 
Q 3341 2797 3341 1997 
z
" transform="scale(0.015625)"/>
        <path id="DejaVuSans-74" d="M 1172 4494 
L 1172 3500 
L 2356 3500 
L 2356 3053 
L 1172 3053 
L 1172 1153 
Q 1172 725 1289 603 
Q 1406 481 1766 481 
L 2356 481 
L 2356 0 
L 1766 0 
Q 1100 0 847 248 
Q 594 497 594 1153 
L 594 3053 
L 172 3053 
L 172 3500 
L 594 3500 
L 594 4494 
L 1172 4494 
z
" transform="scale(0.015625)"/>
       </defs>
       <use xlink:href="#DejaVuSans-54"/>
       <use xlink:href="#DejaVuSans-65" x="44.083984"/>
       <use xlink:href="#DejaVuSans-6d" x="105.607422"/>
       <use xlink:href="#DejaVuSans-70" x="203.019531"/>
       <use xlink:href="#DejaVuSans-6c" x="266.496094"/>
       <use xlink:href="#DejaVuSans-61" x="294.279297"/>
       <use xlink:href="#DejaVuSans-74" x="355.558594"/>
       <use xlink:href="#DejaVuSans-65" x="394.767578"/>
      </g>
     </g>
    </g>
    <g id="xtick_3">
     <g id="text_3">
      <!-- Backbone -->
      <g style="fill: #262626" transform="translate(302.203183 648.975944) rotate(-45) scale(0.2 -0.2)">
       <defs>
        <path id="DejaVuSans-42" d="M 1259 2228 
L 1259 519 
L 2272 519 
Q 2781 519 3026 730 
Q 3272 941 3272 1375 
Q 3272 1813 3026 2020 
Q 2781 2228 2272 2228 
L 1259 2228 
z
M 1259 4147 
L 1259 2741 
L 2194 2741 
Q 2656 2741 2882 2914 
Q 3109 3088 3109 3444 
Q 3109 3797 2882 3972 
Q 2656 4147 2194 4147 
L 1259 4147 
z
M 628 4666 
L 2241 4666 
Q 2963 4666 3353 4366 
Q 3744 4066 3744 3513 
Q 3744 3084 3544 2831 
Q 3344 2578 2956 2516 
Q 3422 2416 3680 2098 
Q 3938 1781 3938 1306 
Q 3938 681 3513 340 
Q 3088 0 2303 0 
L 628 0 
L 628 4666 
z
" transform="scale(0.015625)"/>
        <path id="DejaVuSans-63" d="M 3122 3366 
L 3122 2828 
Q 2878 2963 2633 3030 
Q 2388 3097 2138 3097 
Q 1578 3097 1268 2742 
Q 959 2388 959 1747 
Q 959 1106 1268 751 
Q 1578 397 2138 397 
Q 2388 397 2633 464 
Q 2878 531 3122 666 
L 3122 134 
Q 2881 22 2623 -34 
Q 2366 -91 2075 -91 
Q 1284 -91 818 406 
Q 353 903 353 1747 
Q 353 2603 823 3093 
Q 1294 3584 2113 3584 
Q 2378 3584 2631 3529 
Q 2884 3475 3122 3366 
z
" transform="scale(0.015625)"/>
        <path id="DejaVuSans-6b" d="M 581 4863 
L 1159 4863 
L 1159 1991 
L 2875 3500 
L 3609 3500 
L 1753 1863 
L 3688 0 
L 2938 0 
L 1159 1709 
L 1159 0 
L 581 0 
L 581 4863 
z
" transform="scale(0.015625)"/>
        <path id="DejaVuSans-62" d="M 3116 1747 
Q 3116 2381 2855 2742 
Q 2594 3103 2138 3103 
Q 1681 3103 1420 2742 
Q 1159 2381 1159 1747 
Q 1159 1113 1420 752 
Q 1681 391 2138 391 
Q 2594 391 2855 752 
Q 3116 1113 3116 1747 
z
M 1159 2969 
Q 1341 3281 1617 3432 
Q 1894 3584 2278 3584 
Q 2916 3584 3314 3078 
Q 3713 2572 3713 1747 
Q 3713 922 3314 415 
Q 2916 -91 2278 -91 
Q 1894 -91 1617 61 
Q 1341 213 1159 525 
L 1159 0 
L 581 0 
L 581 4863 
L 1159 4863 
L 1159 2969 
z
" transform="scale(0.015625)"/>
        <path id="DejaVuSans-6f" d="M 1959 3097 
Q 1497 3097 1228 2736 
Q 959 2375 959 1747 
Q 959 1119 1226 758 
Q 1494 397 1959 397 
Q 2419 397 2687 759 
Q 2956 1122 2956 1747 
Q 2956 2369 2687 2733 
Q 2419 3097 1959 3097 
z
M 1959 3584 
Q 2709 3584 3137 3096 
Q 3566 2609 3566 1747 
Q 3566 888 3137 398 
Q 2709 -91 1959 -91 
Q 1206 -91 779 398 
Q 353 888 353 1747 
Q 353 2609 779 3096 
Q 1206 3584 1959 3584 
z
" transform="scale(0.015625)"/>
        <path id="DejaVuSans-6e" d="M 3513 2113 
L 3513 0 
L 2938 0 
L 2938 2094 
Q 2938 2591 2744 2837 
Q 2550 3084 2163 3084 
Q 1697 3084 1428 2787 
Q 1159 2491 1159 1978 
L 1159 0 
L 581 0 
L 581 3500 
L 1159 3500 
L 1159 2956 
Q 1366 3272 1645 3428 
Q 1925 3584 2291 3584 
Q 2894 3584 3203 3211 
Q 3513 2838 3513 2113 
z
" transform="scale(0.015625)"/>
       </defs>
       <use xlink:href="#DejaVuSans-42"/>
       <use xlink:href="#DejaVuSans-61" x="68.603516"/>
       <use xlink:href="#DejaVuSans-63" x="129.882812"/>
       <use xlink:href="#DejaVuSans-6b" x="184.863281"/>
       <use xlink:href="#DejaVuSans-62" x="242.773438"/>
       <use xlink:href="#DejaVuSans-6f" x="306.25"/>
       <use xlink:href="#DejaVuSans-6e" x="367.431641"/>
       <use xlink:href="#DejaVuSans-65" x="430.810547"/>
      </g>
     </g>
    </g>
    <g id="xtick_4">
     <g id="text_4">
      <!-- Heuristic C-$\beta$ -->
      <g style="fill: #262626" transform="translate(392.36017 670.706219) rotate(-45) scale(0.2 -0.2)">
       <defs>
        <path id="DejaVuSans-48" d="M 628 4666 
L 1259 4666 
L 1259 2753 
L 3553 2753 
L 3553 4666 
L 4184 4666 
L 4184 0 
L 3553 0 
L 3553 2222 
L 1259 2222 
L 1259 0 
L 628 0 
L 628 4666 
z
" transform="scale(0.015625)"/>
        <path id="DejaVuSans-75" d="M 544 1381 
L 544 3500 
L 1119 3500 
L 1119 1403 
Q 1119 906 1312 657 
Q 1506 409 1894 409 
Q 2359 409 2629 706 
Q 2900 1003 2900 1516 
L 2900 3500 
L 3475 3500 
L 3475 0 
L 2900 0 
L 2900 538 
Q 2691 219 2414 64 
Q 2138 -91 1772 -91 
Q 1169 -91 856 284 
Q 544 659 544 1381 
z
M 1991 3584 
L 1991 3584 
z
" transform="scale(0.015625)"/>
        <path id="DejaVuSans-72" d="M 2631 2963 
Q 2534 3019 2420 3045 
Q 2306 3072 2169 3072 
Q 1681 3072 1420 2755 
Q 1159 2438 1159 1844 
L 1159 0 
L 581 0 
L 581 3500 
L 1159 3500 
L 1159 2956 
Q 1341 3275 1631 3429 
Q 1922 3584 2338 3584 
Q 2397 3584 2469 3576 
Q 2541 3569 2628 3553 
L 2631 2963 
z
" transform="scale(0.015625)"/>
        <path id="DejaVuSans-69" d="M 603 3500 
L 1178 3500 
L 1178 0 
L 603 0 
L 603 3500 
z
M 603 4863 
L 1178 4863 
L 1178 4134 
L 603 4134 
L 603 4863 
z
" transform="scale(0.015625)"/>
        <path id="DejaVuSans-73" d="M 2834 3397 
L 2834 2853 
Q 2591 2978 2328 3040 
Q 2066 3103 1784 3103 
Q 1356 3103 1142 2972 
Q 928 2841 928 2578 
Q 928 2378 1081 2264 
Q 1234 2150 1697 2047 
L 1894 2003 
Q 2506 1872 2764 1633 
Q 3022 1394 3022 966 
Q 3022 478 2636 193 
Q 2250 -91 1575 -91 
Q 1294 -91 989 -36 
Q 684 19 347 128 
L 347 722 
Q 666 556 975 473 
Q 1284 391 1588 391 
Q 1994 391 2212 530 
Q 2431 669 2431 922 
Q 2431 1156 2273 1281 
Q 2116 1406 1581 1522 
L 1381 1569 
Q 847 1681 609 1914 
Q 372 2147 372 2553 
Q 372 3047 722 3315 
Q 1072 3584 1716 3584 
Q 2034 3584 2315 3537 
Q 2597 3491 2834 3397 
z
" transform="scale(0.015625)"/>
        <path id="DejaVuSans-20" transform="scale(0.015625)"/>
        <path id="DejaVuSans-43" d="M 4122 4306 
L 4122 3641 
Q 3803 3938 3442 4084 
Q 3081 4231 2675 4231 
Q 1875 4231 1450 3742 
Q 1025 3253 1025 2328 
Q 1025 1406 1450 917 
Q 1875 428 2675 428 
Q 3081 428 3442 575 
Q 3803 722 4122 1019 
L 4122 359 
Q 3791 134 3420 21 
Q 3050 -91 2638 -91 
Q 1578 -91 968 557 
Q 359 1206 359 2328 
Q 359 3453 968 4101 
Q 1578 4750 2638 4750 
Q 3056 4750 3426 4639 
Q 3797 4528 4122 4306 
z
" transform="scale(0.015625)"/>
        <path id="DejaVuSans-2d" d="M 313 2009 
L 1997 2009 
L 1997 1497 
L 313 1497 
L 313 2009 
z
" transform="scale(0.015625)"/>
        <path id="DejaVuSans-Oblique-3b2" d="M 872 216 
L 572 -1331 
L -6 -1331 
L 928 3478 
Q 1206 4903 2538 4903 
Q 3888 4903 3659 3700 
Q 3503 2844 2894 2531 
Q 3713 2250 3553 1416 
Q 3272 -69 1759 -66 
Q 1097 -63 872 216 
z
M 1019 966 
Q 1259 422 1875 425 
Q 2775 425 2966 1406 
Q 3138 2288 1675 2219 
L 1778 2750 
Q 2909 2731 3106 3750 
Q 3241 4438 2509 4434 
Q 1691 4434 1503 3459 
L 1019 966 
z
" transform="scale(0.015625)"/>
       </defs>
       <use xlink:href="#DejaVuSans-48" transform="translate(0 0.390625)"/>
       <use xlink:href="#DejaVuSans-65" transform="translate(75.195312 0.390625)"/>
       <use xlink:href="#DejaVuSans-75" transform="translate(136.71875 0.390625)"/>
       <use xlink:href="#DejaVuSans-72" transform="translate(200.097656 0.390625)"/>
       <use xlink:href="#DejaVuSans-69" transform="translate(241.210938 0.390625)"/>
       <use xlink:href="#DejaVuSans-73" transform="translate(268.994141 0.390625)"/>
       <use xlink:href="#DejaVuSans-74" transform="translate(321.09375 0.390625)"/>
       <use xlink:href="#DejaVuSans-69" transform="translate(360.302734 0.390625)"/>
       <use xlink:href="#DejaVuSans-63" transform="translate(388.085938 0.390625)"/>
       <use xlink:href="#DejaVuSans-20" transform="translate(443.066406 0.390625)"/>
       <use xlink:href="#DejaVuSans-43" transform="translate(474.853516 0.390625)"/>
       <use xlink:href="#DejaVuSans-2d" transform="translate(544.677734 0.390625)"/>
       <use xlink:href="#DejaVuSans-Oblique-3b2" transform="translate(580.761719 0.390625)"/>
      </g>
     </g>
    </g>
    <g id="xtick_5">
     <g id="text_5">
      <!-- Template C-$\beta$ -->
      <g style="fill: #262626" transform="translate(499.717529 674.94886) rotate(-45) scale(0.2 -0.2)">
       <use xlink:href="#DejaVuSans-54" transform="translate(0 0.390625)"/>
       <use xlink:href="#DejaVuSans-65" transform="translate(61.083984 0.390625)"/>
       <use xlink:href="#DejaVuSans-6d" transform="translate(122.607422 0.390625)"/>
       <use xlink:href="#DejaVuSans-70" transform="translate(220.019531 0.390625)"/>
       <use xlink:href="#DejaVuSans-6c" transform="translate(283.496094 0.390625)"/>
       <use xlink:href="#DejaVuSans-61" transform="translate(311.279297 0.390625)"/>
       <use xlink:href="#DejaVuSans-74" transform="translate(372.558594 0.390625)"/>
       <use xlink:href="#DejaVuSans-65" transform="translate(411.767578 0.390625)"/>
       <use xlink:href="#DejaVuSans-20" transform="translate(473.291016 0.390625)"/>
       <use xlink:href="#DejaVuSans-43" transform="translate(505.078125 0.390625)"/>
       <use xlink:href="#DejaVuSans-2d" transform="translate(574.902344 0.390625)"/>
       <use xlink:href="#DejaVuSans-Oblique-3b2" transform="translate(610.986328 0.390625)"/>
      </g>
     </g>
    </g>
    <g id="xtick_6">
     <g id="text_6">
      <!-- AttnPacker -->
      <g style="fill: #262626" transform="translate(630.630383 655.348744) rotate(-45) scale(0.2 -0.2)">
       <defs>
        <path id="DejaVuSans-50" d="M 1259 4147 
L 1259 2394 
L 2053 2394 
Q 2494 2394 2734 2622 
Q 2975 2850 2975 3272 
Q 2975 3691 2734 3919 
Q 2494 4147 2053 4147 
L 1259 4147 
z
M 628 4666 
L 2053 4666 
Q 2838 4666 3239 4311 
Q 3641 3956 3641 3272 
Q 3641 2581 3239 2228 
Q 2838 1875 2053 1875 
L 1259 1875 
L 1259 0 
L 628 0 
L 628 4666 
z
" transform="scale(0.015625)"/>
       </defs>
       <use xlink:href="#DejaVuSans-41"/>
       <use xlink:href="#DejaVuSans-74" x="66.658203"/>
       <use xlink:href="#DejaVuSans-74" x="105.867188"/>
       <use xlink:href="#DejaVuSans-6e" x="145.076172"/>
       <use xlink:href="#DejaVuSans-50" x="208.455078"/>
       <use xlink:href="#DejaVuSans-61" x="264.257812"/>
       <use xlink:href="#DejaVuSans-63" x="325.537109"/>
       <use xlink:href="#DejaVuSans-6b" x="380.517578"/>
       <use xlink:href="#DejaVuSans-65" x="434.802734"/>
       <use xlink:href="#DejaVuSans-72" x="496.326172"/>
      </g>
     </g>
    </g>
    <g id="xtick_7">
     <g id="text_7">
      <!-- AttnPacker (AF) -->
      <g style="fill: #262626" transform="translate(708.892508 688.686619) rotate(-45) scale(0.2 -0.2)">
       <defs>
        <path id="DejaVuSans-28" d="M 1984 4856 
Q 1566 4138 1362 3434 
Q 1159 2731 1159 2009 
Q 1159 1288 1364 580 
Q 1569 -128 1984 -844 
L 1484 -844 
Q 1016 -109 783 600 
Q 550 1309 550 2009 
Q 550 2706 781 3412 
Q 1013 4119 1484 4856 
L 1984 4856 
z
" transform="scale(0.015625)"/>
        <path id="DejaVuSans-46" d="M 628 4666 
L 3309 4666 
L 3309 4134 
L 1259 4134 
L 1259 2759 
L 3109 2759 
L 3109 2228 
L 1259 2228 
L 1259 0 
L 628 0 
L 628 4666 
z
" transform="scale(0.015625)"/>
        <path id="DejaVuSans-29" d="M 513 4856 
L 1013 4856 
Q 1481 4119 1714 3412 
Q 1947 2706 1947 2009 
Q 1947 1309 1714 600 
Q 1481 -109 1013 -844 
L 513 -844 
Q 928 -128 1133 580 
Q 1338 1288 1338 2009 
Q 1338 2731 1133 3434 
Q 928 4138 513 4856 
z
" transform="scale(0.015625)"/>
       </defs>
       <use xlink:href="#DejaVuSans-41"/>
       <use xlink:href="#DejaVuSans-74" x="66.658203"/>
       <use xlink:href="#DejaVuSans-74" x="105.867188"/>
       <use xlink:href="#DejaVuSans-6e" x="145.076172"/>
       <use xlink:href="#DejaVuSans-50" x="208.455078"/>
       <use xlink:href="#DejaVuSans-61" x="264.257812"/>
       <use xlink:href="#DejaVuSans-63" x="325.537109"/>
       <use xlink:href="#DejaVuSans-6b" x="380.517578"/>
       <use xlink:href="#DejaVuSans-65" x="434.802734"/>
       <use xlink:href="#DejaVuSans-72" x="496.326172"/>
       <use xlink:href="#DejaVuSans-20" x="537.439453"/>
       <use xlink:href="#DejaVuSans-28" x="569.226562"/>
       <use xlink:href="#DejaVuSans-41" x="608.240234"/>
       <use xlink:href="#DejaVuSans-46" x="676.648438"/>
       <use xlink:href="#DejaVuSans-29" x="734.167969"/>
      </g>
     </g>
    </g>
    <g id="text_8">
     <!-- Method -->
     <g style="fill: #262626" transform="translate(435.18125 710.824616) scale(0.2 -0.2)">
      <defs>
       <path id="DejaVuSans-68" d="M 3513 2113 
L 3513 0 
L 2938 0 
L 2938 2094 
Q 2938 2591 2744 2837 
Q 2550 3084 2163 3084 
Q 1697 3084 1428 2787 
Q 1159 2491 1159 1978 
L 1159 0 
L 581 0 
L 581 4863 
L 1159 4863 
L 1159 2956 
Q 1366 3272 1645 3428 
Q 1925 3584 2291 3584 
Q 2894 3584 3203 3211 
Q 3513 2838 3513 2113 
z
" transform="scale(0.015625)"/>
       <path id="DejaVuSans-64" d="M 2906 2969 
L 2906 4863 
L 3481 4863 
L 3481 0 
L 2906 0 
L 2906 525 
Q 2725 213 2448 61 
Q 2172 -91 1784 -91 
Q 1150 -91 751 415 
Q 353 922 353 1747 
Q 353 2572 751 3078 
Q 1150 3584 1784 3584 
Q 2172 3584 2448 3432 
Q 2725 3281 2906 2969 
z
M 947 1747 
Q 947 1113 1208 752 
Q 1469 391 1925 391 
Q 2381 391 2643 752 
Q 2906 1113 2906 1747 
Q 2906 2381 2643 2742 
Q 2381 3103 1925 3103 
Q 1469 3103 1208 2742 
Q 947 2381 947 1747 
z
" transform="scale(0.015625)"/>
      </defs>
      <use xlink:href="#DejaVuSans-4d"/>
      <use xlink:href="#DejaVuSans-65" x="86.279297"/>
      <use xlink:href="#DejaVuSans-74" x="147.802734"/>
      <use xlink:href="#DejaVuSans-68" x="187.011719"/>
      <use xlink:href="#DejaVuSans-6f" x="250.390625"/>
      <use xlink:href="#DejaVuSans-64" x="311.572266"/>
     </g>
    </g>
   </g>
   <g id="matplotlib.axis_2">
    <g id="ytick_1">
     <g id="line2d_1">
      <path d="M 82.0875 539.851008 
L 863.2875 539.851008 
" clip-path="url(#p3fd94835eb)" style="fill: none; stroke: #cccccc; stroke-width: 0.8; stroke-linecap: round"/>
     </g>
     <g id="text_9">
      <!-- 0.00 -->
      <g style="fill: #262626" transform="translate(30.55625 547.449445) scale(0.2 -0.2)">
       <defs>
        <path id="DejaVuSans-30" d="M 2034 4250 
Q 1547 4250 1301 3770 
Q 1056 3291 1056 2328 
Q 1056 1369 1301 889 
Q 1547 409 2034 409 
Q 2525 409 2770 889 
Q 3016 1369 3016 2328 
Q 3016 3291 2770 3770 
Q 2525 4250 2034 4250 
z
M 2034 4750 
Q 2819 4750 3233 4129 
Q 3647 3509 3647 2328 
Q 3647 1150 3233 529 
Q 2819 -91 2034 -91 
Q 1250 -91 836 529 
Q 422 1150 422 2328 
Q 422 3509 836 4129 
Q 1250 4750 2034 4750 
z
" transform="scale(0.015625)"/>
        <path id="DejaVuSans-2e" d="M 684 794 
L 1344 794 
L 1344 0 
L 684 0 
L 684 794 
z
" transform="scale(0.015625)"/>
       </defs>
       <use xlink:href="#DejaVuSans-30"/>
       <use xlink:href="#DejaVuSans-2e" x="63.623047"/>
       <use xlink:href="#DejaVuSans-30" x="95.410156"/>
       <use xlink:href="#DejaVuSans-30" x="159.033203"/>
      </g>
     </g>
    </g>
    <g id="ytick_2">
     <g id="line2d_2">
      <path d="M 82.0875 465.950849 
L 863.2875 465.950849 
" clip-path="url(#p3fd94835eb)" style="fill: none; stroke: #cccccc; stroke-width: 0.8; stroke-linecap: round"/>
     </g>
     <g id="text_10">
      <!-- 0.25 -->
      <g style="fill: #262626" transform="translate(30.55625 473.549286) scale(0.2 -0.2)">
       <defs>
        <path id="DejaVuSans-32" d="M 1228 531 
L 3431 531 
L 3431 0 
L 469 0 
L 469 531 
Q 828 903 1448 1529 
Q 2069 2156 2228 2338 
Q 2531 2678 2651 2914 
Q 2772 3150 2772 3378 
Q 2772 3750 2511 3984 
Q 2250 4219 1831 4219 
Q 1534 4219 1204 4116 
Q 875 4013 500 3803 
L 500 4441 
Q 881 4594 1212 4672 
Q 1544 4750 1819 4750 
Q 2544 4750 2975 4387 
Q 3406 4025 3406 3419 
Q 3406 3131 3298 2873 
Q 3191 2616 2906 2266 
Q 2828 2175 2409 1742 
Q 1991 1309 1228 531 
z
" transform="scale(0.015625)"/>
        <path id="DejaVuSans-35" d="M 691 4666 
L 3169 4666 
L 3169 4134 
L 1269 4134 
L 1269 2991 
Q 1406 3038 1543 3061 
Q 1681 3084 1819 3084 
Q 2600 3084 3056 2656 
Q 3513 2228 3513 1497 
Q 3513 744 3044 326 
Q 2575 -91 1722 -91 
Q 1428 -91 1123 -41 
Q 819 9 494 109 
L 494 744 
Q 775 591 1075 516 
Q 1375 441 1709 441 
Q 2250 441 2565 725 
Q 2881 1009 2881 1497 
Q 2881 1984 2565 2268 
Q 2250 2553 1709 2553 
Q 1456 2553 1204 2497 
Q 953 2441 691 2322 
L 691 4666 
z
" transform="scale(0.015625)"/>
       </defs>
       <use xlink:href="#DejaVuSans-30"/>
       <use xlink:href="#DejaVuSans-2e" x="63.623047"/>
       <use xlink:href="#DejaVuSans-32" x="95.410156"/>
       <use xlink:href="#DejaVuSans-35" x="159.033203"/>
      </g>
     </g>
    </g>
    <g id="ytick_3">
     <g id="line2d_3">
      <path d="M 82.0875 392.05069 
L 863.2875 392.05069 
" clip-path="url(#p3fd94835eb)" style="fill: none; stroke: #cccccc; stroke-width: 0.8; stroke-linecap: round"/>
     </g>
     <g id="text_11">
      <!-- 0.50 -->
      <g style="fill: #262626" transform="translate(30.55625 399.649128) scale(0.2 -0.2)">
       <use xlink:href="#DejaVuSans-30"/>
       <use xlink:href="#DejaVuSans-2e" x="63.623047"/>
       <use xlink:href="#DejaVuSans-35" x="95.410156"/>
       <use xlink:href="#DejaVuSans-30" x="159.033203"/>
      </g>
     </g>
    </g>
    <g id="ytick_4">
     <g id="line2d_4">
      <path d="M 82.0875 318.150532 
L 863.2875 318.150532 
" clip-path="url(#p3fd94835eb)" style="fill: none; stroke: #cccccc; stroke-width: 0.8; stroke-linecap: round"/>
     </g>
     <g id="text_12">
      <!-- 0.75 -->
      <g style="fill: #262626" transform="translate(30.55625 325.748969) scale(0.2 -0.2)">
       <defs>
        <path id="DejaVuSans-37" d="M 525 4666 
L 3525 4666 
L 3525 4397 
L 1831 0 
L 1172 0 
L 2766 4134 
L 525 4134 
L 525 4666 
z
" transform="scale(0.015625)"/>
       </defs>
       <use xlink:href="#DejaVuSans-30"/>
       <use xlink:href="#DejaVuSans-2e" x="63.623047"/>
       <use xlink:href="#DejaVuSans-37" x="95.410156"/>
       <use xlink:href="#DejaVuSans-35" x="159.033203"/>
      </g>
     </g>
    </g>
    <g id="ytick_5">
     <g id="line2d_5">
      <path d="M 82.0875 244.250373 
L 863.2875 244.250373 
" clip-path="url(#p3fd94835eb)" style="fill: none; stroke: #cccccc; stroke-width: 0.8; stroke-linecap: round"/>
     </g>
     <g id="text_13">
      <!-- 1.00 -->
      <g style="fill: #262626" transform="translate(30.55625 251.84881) scale(0.2 -0.2)">
       <defs>
        <path id="DejaVuSans-31" d="M 794 531 
L 1825 531 
L 1825 4091 
L 703 3866 
L 703 4441 
L 1819 4666 
L 2450 4666 
L 2450 531 
L 3481 531 
L 3481 0 
L 794 0 
L 794 531 
z
" transform="scale(0.015625)"/>
       </defs>
       <use xlink:href="#DejaVuSans-31"/>
       <use xlink:href="#DejaVuSans-2e" x="63.623047"/>
       <use xlink:href="#DejaVuSans-30" x="95.410156"/>
       <use xlink:href="#DejaVuSans-30" x="159.033203"/>
      </g>
     </g>
    </g>
    <g id="ytick_6">
     <g id="line2d_6">
      <path d="M 82.0875 170.350214 
L 863.2875 170.350214 
" clip-path="url(#p3fd94835eb)" style="fill: none; stroke: #cccccc; stroke-width: 0.8; stroke-linecap: round"/>
     </g>
     <g id="text_14">
      <!-- 1.25 -->
      <g style="fill: #262626" transform="translate(30.55625 177.948652) scale(0.2 -0.2)">
       <use xlink:href="#DejaVuSans-31"/>
       <use xlink:href="#DejaVuSans-2e" x="63.623047"/>
       <use xlink:href="#DejaVuSans-32" x="95.410156"/>
       <use xlink:href="#DejaVuSans-35" x="159.033203"/>
      </g>
     </g>
    </g>
    <g id="ytick_7">
     <g id="line2d_7">
      <path d="M 82.0875 96.450055 
L 863.2875 96.450055 
" clip-path="url(#p3fd94835eb)" style="fill: none; stroke: #cccccc; stroke-width: 0.8; stroke-linecap: round"/>
     </g>
     <g id="text_15">
      <!-- 1.50 -->
      <g style="fill: #262626" transform="translate(30.55625 104.048493) scale(0.2 -0.2)">
       <use xlink:href="#DejaVuSans-31"/>
       <use xlink:href="#DejaVuSans-2e" x="63.623047"/>
       <use xlink:href="#DejaVuSans-35" x="95.410156"/>
       <use xlink:href="#DejaVuSans-30" x="159.033203"/>
      </g>
     </g>
    </g>
    <g id="ytick_8">
     <g id="line2d_8">
      <path d="M 82.0875 22.549897 
L 863.2875 22.549897 
" clip-path="url(#p3fd94835eb)" style="fill: none; stroke: #cccccc; stroke-width: 0.8; stroke-linecap: round"/>
     </g>
     <g id="text_16">
      <!-- 1.75 -->
      <g style="fill: #262626" transform="translate(30.55625 30.148334) scale(0.2 -0.2)">
       <use xlink:href="#DejaVuSans-31"/>
       <use xlink:href="#DejaVuSans-2e" x="63.623047"/>
       <use xlink:href="#DejaVuSans-37" x="95.410156"/>
       <use xlink:href="#DejaVuSans-35" x="159.033203"/>
      </g>
     </g>
    </g>
    <g id="text_17">
     <!-- MAE 4 (rad) -->
     <g style="fill: #262626" transform="translate(22.396875 343.296875) rotate(-90) scale(0.2 -0.2)">
      <defs>
       <path id="DejaVuSans-45" d="M 628 4666 
L 3578 4666 
L 3578 4134 
L 1259 4134 
L 1259 2753 
L 3481 2753 
L 3481 2222 
L 1259 2222 
L 1259 531 
L 3634 531 
L 3634 0 
L 628 0 
L 628 4666 
z
" transform="scale(0.015625)"/>
       <path id="DejaVuSans-34" d="M 2419 4116 
L 825 1625 
L 2419 1625 
L 2419 4116 
z
M 2253 4666 
L 3047 4666 
L 3047 1625 
L 3713 1625 
L 3713 1100 
L 3047 1100 
L 3047 0 
L 2419 0 
L 2419 1100 
L 313 1100 
L 313 1709 
L 2253 4666 
z
" transform="scale(0.015625)"/>
      </defs>
      <use xlink:href="#DejaVuSans-4d"/>
      <use xlink:href="#DejaVuSans-41" x="86.279297"/>
      <use xlink:href="#DejaVuSans-45" x="154.6875"/>
      <use xlink:href="#DejaVuSans-20" x="217.871094"/>
      <use xlink:href="#DejaVuSans-34" x="249.658203"/>
      <use xlink:href="#DejaVuSans-20" x="313.28125"/>
      <use xlink:href="#DejaVuSans-28" x="345.068359"/>
      <use xlink:href="#DejaVuSans-72" x="384.082031"/>
      <use xlink:href="#DejaVuSans-61" x="425.195312"/>
      <use xlink:href="#DejaVuSans-64" x="486.474609"/>
      <use xlink:href="#DejaVuSans-29" x="549.951172"/>
     </g>
    </g>
   </g>
   <g id="PolyCollection_1">
    <defs>
     <path id="m5d57389b42" d="M 138.072355 -199.906033 
L 137.702645 -199.906033 
L 137.631534 -204.75864 
L 137.542648 -209.611247 
L 137.435302 -214.463855 
L 137.310116 -219.316462 
L 137.169208 -224.169069 
L 137.016158 -229.021677 
L 136.855707 -233.874284 
L 136.693168 -238.726892 
L 136.533621 -243.579499 
L 136.381009 -248.432106 
L 136.23732 -253.284714 
L 136.10204 -258.137321 
L 135.972025 -262.989929 
L 135.841882 -267.842536 
L 135.70483 -272.695143 
L 135.553908 -277.547751 
L 135.383297 -282.400358 
L 135.189481 -287.252965 
L 134.971957 -292.105573 
L 134.733273 -296.95818 
L 134.478263 -301.810788 
L 134.212479 -306.663395 
L 133.939976 -311.516002 
L 133.660714 -316.36861 
L 133.367962 -321.221217 
L 133.046156 -326.073824 
L 132.66964 -330.926432 
L 132.202662 -335.779039 
L 131.600881 -340.631647 
L 130.814423 -345.484254 
L 129.792318 -350.336861 
L 128.487942 -355.189469 
L 126.864888 -360.042076 
L 124.9026 -364.894684 
L 122.601071 -369.747291 
L 119.983956 -374.599898 
L 117.099626 -379.452506 
L 114.019868 -384.305113 
L 110.836197 -389.15772 
L 107.653994 -394.010328 
L 104.584955 -398.862935 
L 101.738515 -403.715543 
L 99.213139 -408.56815 
L 97.088385 -413.420757 
L 95.418653 -418.273365 
L 94.229406 -423.125972 
L 93.516316 -427.978579 
L 93.2475 -432.831187 
L 93.36853 -437.683794 
L 93.809547 -442.536402 
L 94.493482 -447.389009 
L 95.344254 -452.241616 
L 96.293844 -457.094224 
L 97.287397 -461.946831 
L 98.285883 -466.799439 
L 99.266302 -471.652046 
L 100.219846 -476.504653 
L 101.148749 -481.357261 
L 102.06265 -486.209868 
L 102.975261 -491.062475 
L 103.901832 -495.915083 
L 104.857624 -500.76769 
L 105.857218 -505.620298 
L 106.914293 -510.472905 
L 108.041405 -515.325512 
L 109.249392 -520.17812 
L 110.546241 -525.030727 
L 111.935517 -529.883334 
L 113.414688 -534.735942 
L 114.973769 -539.588549 
L 116.594727 -544.441157 
L 118.251915 -549.293764 
L 119.913609 -554.146371 
L 121.544463 -558.998979 
L 123.108574 -563.851586 
L 124.572734 -568.704193 
L 125.909441 -573.556801 
L 127.099356 -578.409408 
L 128.132938 -583.262016 
L 129.011129 -588.114623 
L 129.745015 -592.96723 
L 130.354492 -597.819838 
L 130.86602 -602.672445 
L 131.309692 -607.525053 
L 131.715896 -612.37766 
L 132.111994 -617.230267 
L 132.519456 -622.082875 
L 132.951854 -626.935482 
L 133.414025 -631.788089 
L 133.902477 -636.640697 
L 134.406923 -641.493304 
L 134.912622 -646.345912 
L 135.403065 -651.198519 
L 135.862541 -656.051126 
L 136.278184 -660.903734 
L 136.641267 -665.756341 
L 136.947653 -670.608948 
L 137.197522 -675.461556 
L 137.394557 -680.314163 
L 138.380443 -680.314163 
L 138.380443 -680.314163 
L 138.577478 -675.461556 
L 138.827347 -670.608948 
L 139.133733 -665.756341 
L 139.496816 -660.903734 
L 139.912459 -656.051126 
L 140.371935 -651.198519 
L 140.862378 -646.345912 
L 141.368077 -641.493304 
L 141.872523 -636.640697 
L 142.360975 -631.788089 
L 142.823146 -626.935482 
L 143.255544 -622.082875 
L 143.663006 -617.230267 
L 144.059104 -612.37766 
L 144.465308 -607.525053 
L 144.90898 -602.672445 
L 145.420508 -597.819838 
L 146.029985 -592.96723 
L 146.763871 -588.114623 
L 147.642062 -583.262016 
L 148.675644 -578.409408 
L 149.865559 -573.556801 
L 151.202266 -568.704193 
L 152.666426 -563.851586 
L 154.230537 -558.998979 
L 155.861391 -554.146371 
L 157.523085 -549.293764 
L 159.180273 -544.441157 
L 160.801231 -539.588549 
L 162.360312 -534.735942 
L 163.839483 -529.883334 
L 165.228759 -525.030727 
L 166.525608 -520.17812 
L 167.733595 -515.325512 
L 168.860707 -510.472905 
L 169.917782 -505.620298 
L 170.917376 -500.76769 
L 171.873168 -495.915083 
L 172.799739 -491.062475 
L 173.71235 -486.209868 
L 174.626251 -481.357261 
L 175.555154 -476.504653 
L 176.508698 -471.652046 
L 177.489117 -466.799439 
L 178.487603 -461.946831 
L 179.481156 -457.094224 
L 180.430746 -452.241616 
L 181.281518 -447.389009 
L 181.965453 -442.536402 
L 182.40647 -437.683794 
L 182.5275 -432.831187 
L 182.258684 -427.978579 
L 181.545594 -423.125972 
L 180.356347 -418.273365 
L 178.686615 -413.420757 
L 176.561861 -408.56815 
L 174.036485 -403.715543 
L 171.190045 -398.862935 
L 168.121006 -394.010328 
L 164.938803 -389.15772 
L 161.755132 -384.305113 
L 158.675374 -379.452506 
L 155.791044 -374.599898 
L 153.173929 -369.747291 
L 150.8724 -364.894684 
L 148.910112 -360.042076 
L 147.287058 -355.189469 
L 145.982682 -350.336861 
L 144.960577 -345.484254 
L 144.174119 -340.631647 
L 143.572338 -335.779039 
L 143.10536 -330.926432 
L 142.728844 -326.073824 
L 142.407038 -321.221217 
L 142.114286 -316.36861 
L 141.835024 -311.516002 
L 141.562521 -306.663395 
L 141.296737 -301.810788 
L 141.041727 -296.95818 
L 140.803043 -292.105573 
L 140.585519 -287.252965 
L 140.391703 -282.400358 
L 140.221092 -277.547751 
L 140.07017 -272.695143 
L 139.933118 -267.842536 
L 139.802975 -262.989929 
L 139.67296 -258.137321 
L 139.53768 -253.284714 
L 139.393991 -248.432106 
L 139.241379 -243.579499 
L 139.081832 -238.726892 
L 138.919293 -233.874284 
L 138.758842 -229.021677 
L 138.605792 -224.169069 
L 138.464884 -219.316462 
L 138.339698 -214.463855 
L 138.232352 -209.611247 
L 138.143466 -204.75864 
L 138.072355 -199.906033 
z
" style="stroke: #3d3d3d; stroke-opacity: 0.5"/>
    </defs>
    <g clip-path="url(#p3fd94835eb)">
     <use xlink:href="#m5d57389b42" x="0" y="722.183991" style="fill: #3274a1; fill-opacity: 0.5; stroke: #3d3d3d; stroke-opacity: 0.5"/>
    </g>
   </g>
   <g id="PolyCollection_2">
    <defs>
     <path id="m3b0bf3925d" d="M 249.792692 -198.26194 
L 249.182308 -198.26194 
L 249.068219 -202.737378 
L 248.92537 -207.212817 
L 248.751912 -211.688255 
L 248.547795 -216.163694 
L 248.31519 -220.639132 
L 248.058663 -225.114571 
L 247.784985 -229.59001 
L 247.502476 -234.065448 
L 247.219873 -238.540887 
L 246.944795 -243.016325 
L 246.681954 -247.491764 
L 246.431377 -251.967202 
L 246.186946 -256.442641 
L 245.935568 -260.91808 
L 245.657235 -265.393518 
L 245.326132 -269.868957 
L 244.91277 -274.344395 
L 244.386977 -278.819834 
L 243.721357 -283.295272 
L 242.894755 -287.770711 
L 241.895164 -292.24615 
L 240.721589 -296.721588 
L 239.384471 -301.197027 
L 237.90455 -305.672465 
L 236.310261 -310.147904 
L 234.634057 -314.623342 
L 232.908254 -319.098781 
L 231.161103 -323.57422 
L 229.413755 -328.049658 
L 227.678666 -332.525097 
L 225.959662 -337.000535 
L 224.253614 -341.475974 
L 222.553351 -345.951412 
L 220.851232 -350.426851 
L 219.142698 -354.90229 
L 217.4292 -359.377728 
L 215.72005 -363.853167 
L 214.032985 -368.328605 
L 212.393487 -372.804044 
L 210.833062 -377.279482 
L 209.386827 -381.754921 
L 208.090738 -386.23036 
L 206.978772 -390.705798 
L 206.080305 -395.181237 
L 205.41787 -399.656675 
L 205.005455 -404.132114 
L 204.8475 -408.607552 
L 204.938728 -413.082991 
L 205.264934 -417.55843 
L 205.804739 -422.033868 
L 206.532169 -426.509307 
L 207.419758 -430.984745 
L 208.441706 -435.460184 
L 209.576555 -439.935622 
L 210.8089 -444.411061 
L 212.129796 -448.8865 
L 213.535811 -453.361938 
L 215.026933 -457.837377 
L 216.60381 -462.312815 
L 218.264927 -466.788254 
L 220.004301 -471.263692 
L 221.810139 -475.739131 
L 223.664651 -480.21457 
L 225.544929 -484.690008 
L 227.424599 -489.165447 
L 229.275802 -493.640885 
L 231.071103 -498.116324 
L 232.784998 -502.591762 
L 234.394888 -507.067201 
L 235.881563 -511.54264 
L 237.229374 -516.018078 
L 238.426322 -520.493517 
L 239.464278 -524.968955 
L 240.339427 -529.444394 
L 241.052921 -533.919832 
L 241.611592 -538.395271 
L 242.028483 -542.87071 
L 242.322959 -547.346148 
L 242.52018 -551.821587 
L 242.64983 -556.297025 
L 242.744149 -560.772464 
L 242.835425 -565.247902 
L 242.953258 -569.723341 
L 243.121957 -574.19878 
L 243.35844 -578.674218 
L 243.670947 -583.149657 
L 244.058755 -587.625095 
L 244.51291 -592.100534 
L 245.017856 -596.575972 
L 245.553688 -601.051411 
L 246.098679 -605.52685 
L 246.631721 -610.002288 
L 247.134367 -614.477727 
L 247.592269 -618.953165 
L 247.995898 -623.428604 
L 248.340603 -627.904042 
L 248.626107 -632.379481 
L 248.855638 -636.85492 
L 249.034877 -641.330358 
L 249.940123 -641.330358 
L 249.940123 -641.330358 
L 250.119362 -636.85492 
L 250.348893 -632.379481 
L 250.634397 -627.904042 
L 250.979102 -623.428604 
L 251.382731 -618.953165 
L 251.840633 -614.477727 
L 252.343279 -610.002288 
L 252.876321 -605.52685 
L 253.421312 -601.051411 
L 253.957144 -596.575972 
L 254.46209 -592.100534 
L 254.916245 -587.625095 
L 255.304053 -583.149657 
L 255.61656 -578.674218 
L 255.853043 -574.19878 
L 256.021742 -569.723341 
L 256.139575 -565.247902 
L 256.230851 -560.772464 
L 256.32517 -556.297025 
L 256.45482 -551.821587 
L 256.652041 -547.346148 
L 256.946517 -542.87071 
L 257.363408 -538.395271 
L 257.922079 -533.919832 
L 258.635573 -529.444394 
L 259.510722 -524.968955 
L 260.548678 -520.493517 
L 261.745626 -516.018078 
L 263.093437 -511.54264 
L 264.580112 -507.067201 
L 266.190002 -502.591762 
L 267.903897 -498.116324 
L 269.699198 -493.640885 
L 271.550401 -489.165447 
L 273.430071 -484.690008 
L 275.310349 -480.21457 
L 277.164861 -475.739131 
L 278.970699 -471.263692 
L 280.710073 -466.788254 
L 282.37119 -462.312815 
L 283.948067 -457.837377 
L 285.439189 -453.361938 
L 286.845204 -448.8865 
L 288.1661 -444.411061 
L 289.398445 -439.935622 
L 290.533294 -435.460184 
L 291.555242 -430.984745 
L 292.442831 -426.509307 
L 293.170261 -422.033868 
L 293.710066 -417.55843 
L 294.036272 -413.082991 
L 294.1275 -408.607552 
L 293.969545 -404.132114 
L 293.55713 -399.656675 
L 292.894695 -395.181237 
L 291.996228 -390.705798 
L 290.884262 -386.23036 
L 289.588173 -381.754921 
L 288.141938 -377.279482 
L 286.581513 -372.804044 
L 284.942015 -368.328605 
L 283.25495 -363.853167 
L 281.5458 -359.377728 
L 279.832302 -354.90229 
L 278.123768 -350.426851 
L 276.421649 -345.951412 
L 274.721386 -341.475974 
L 273.015338 -337.000535 
L 271.296334 -332.525097 
L 269.561245 -328.049658 
L 267.813897 -323.57422 
L 266.066746 -319.098781 
L 264.340943 -314.623342 
L 262.664739 -310.147904 
L 261.07045 -305.672465 
L 259.590529 -301.197027 
L 258.253411 -296.721588 
L 257.079836 -292.24615 
L 256.080245 -287.770711 
L 255.253643 -283.295272 
L 254.588023 -278.819834 
L 254.06223 -274.344395 
L 253.648868 -269.868957 
L 253.317765 -265.393518 
L 253.039432 -260.91808 
L 252.788054 -256.442641 
L 252.543623 -251.967202 
L 252.293046 -247.491764 
L 252.030205 -243.016325 
L 251.755127 -238.540887 
L 251.472524 -234.065448 
L 251.190015 -229.59001 
L 250.916337 -225.114571 
L 250.65981 -220.639132 
L 250.427205 -216.163694 
L 250.223088 -211.688255 
L 250.04963 -207.212817 
L 249.906781 -202.737378 
L 249.792692 -198.26194 
z
" style="stroke: #3d3d3d; stroke-opacity: 0.5"/>
    </defs>
    <g clip-path="url(#p3fd94835eb)">
     <use xlink:href="#m3b0bf3925d" x="0" y="722.183991" style="fill: #d684bd; fill-opacity: 0.5; stroke: #3d3d3d; stroke-opacity: 0.5"/>
    </g>
   </g>
   <g id="PolyCollection_3">
    <defs>
     <path id="m5847125e85" d="M 361.280289 -258.456353 
L 360.894711 -258.456353 
L 360.82466 -262.664018 
L 360.738096 -266.871684 
L 360.63449 -271.079349 
L 360.514438 -275.287015 
L 360.379781 -279.49468 
L 360.233522 -283.702345 
L 360.079446 -287.910011 
L 359.921443 -292.117676 
L 359.762533 -296.325342 
L 359.603694 -300.533007 
L 359.442617 -304.740673 
L 359.272609 -308.948338 
L 359.081826 -313.156004 
L 358.853052 -317.363669 
L 358.564145 -321.571335 
L 358.189202 -325.779 
L 357.700388 -329.986665 
L 357.070248 -334.194331 
L 356.274233 -338.401996 
L 355.293129 -342.609662 
L 354.115045 -346.817327 
L 352.736704 -351.024993 
L 351.163864 -355.232658 
L 349.410848 -359.440324 
L 347.499307 -363.647989 
L 345.456449 -367.855654 
L 343.313066 -372.06332 
L 341.101638 -376.270985 
L 338.854768 -380.478651 
L 336.604048 -384.686316 
L 334.379353 -388.893982 
L 332.208432 -393.101647 
L 330.116649 -397.309313 
L 328.12672 -401.516978 
L 326.258385 -405.724644 
L 324.528067 -409.932309 
L 322.948618 -414.139974 
L 321.529337 -418.34764 
L 320.276368 -422.555305 
L 319.193524 -426.762971 
L 318.283451 -430.970636 
L 317.548903 -435.178302 
L 316.993862 -439.385967 
L 316.624177 -443.593633 
L 316.4475 -447.801298 
L 316.472431 -452.008964 
L 316.706923 -456.216629 
L 317.156215 -460.424294 
L 317.820644 -464.63196 
L 318.693767 -468.839625 
L 319.761193 -473.047291 
L 321.000374 -477.254956 
L 322.381493 -481.462622 
L 323.869341 -485.670287 
L 325.425927 -489.877953 
L 327.013456 -494.085618 
L 328.597228 -498.293284 
L 330.148092 -502.500949 
L 331.644132 -506.708614 
L 333.07144 -510.91628 
L 334.42396 -515.123945 
L 335.70253 -519.331611 
L 336.913329 -523.539276 
L 338.066023 -527.746942 
L 339.171851 -531.954607 
L 340.2419 -536.162273 
L 341.285712 -540.369938 
L 342.310319 -544.577604 
L 343.319717 -548.785269 
L 344.314749 -552.992934 
L 345.293354 -557.2006 
L 346.251115 -561.408265 
L 347.182041 -565.615931 
L 348.079515 -569.823596 
L 348.937313 -574.031262 
L 349.750599 -578.238927 
L 350.51676 -582.446593 
L 351.235951 -586.654258 
L 351.91126 -590.861923 
L 352.548422 -595.069589 
L 353.155116 -599.277254 
L 353.739921 -603.48492 
L 354.311107 -607.692585 
L 354.875441 -611.900251 
L 355.437207 -616.107916 
L 355.997599 -620.315582 
L 356.554573 -624.523247 
L 357.103169 -628.730913 
L 357.636232 -632.938578 
L 358.145401 -637.146243 
L 358.622202 -641.353909 
L 359.059074 -645.561574 
L 359.450193 -649.76924 
L 359.791995 -653.976905 
L 360.083373 -658.184571 
L 360.32556 -662.392236 
L 360.521767 -666.599902 
L 360.676667 -670.807567 
L 360.795816 -675.015233 
L 361.379184 -675.015233 
L 361.379184 -675.015233 
L 361.498333 -670.807567 
L 361.653233 -666.599902 
L 361.84944 -662.392236 
L 362.091627 -658.184571 
L 362.383005 -653.976905 
L 362.724807 -649.76924 
L 363.115926 -645.561574 
L 363.552798 -641.353909 
L 364.029599 -637.146243 
L 364.538768 -632.938578 
L 365.071831 -628.730913 
L 365.620427 -624.523247 
L 366.177401 -620.315582 
L 366.737793 -616.107916 
L 367.299559 -611.900251 
L 367.863893 -607.692585 
L 368.435079 -603.48492 
L 369.019884 -599.277254 
L 369.626578 -595.069589 
L 370.26374 -590.861923 
L 370.939049 -586.654258 
L 371.65824 -582.446593 
L 372.424401 -578.238927 
L 373.237687 -574.031262 
L 374.095485 -569.823596 
L 374.992959 -565.615931 
L 375.923885 -561.408265 
L 376.881646 -557.2006 
L 377.860251 -552.992934 
L 378.855283 -548.785269 
L 379.864681 -544.577604 
L 380.889288 -540.369938 
L 381.9331 -536.162273 
L 383.003149 -531.954607 
L 384.108977 -527.746942 
L 385.261671 -523.539276 
L 386.47247 -519.331611 
L 387.75104 -515.123945 
L 389.10356 -510.91628 
L 390.530868 -506.708614 
L 392.026908 -502.500949 
L 393.577772 -498.293284 
L 395.161544 -494.085618 
L 396.749073 -489.877953 
L 398.305659 -485.670287 
L 399.793507 -481.462622 
L 401.174626 -477.254956 
L 402.413807 -473.047291 
L 403.481233 -468.839625 
L 404.354356 -464.63196 
L 405.018785 -460.424294 
L 405.468077 -456.216629 
L 405.702569 -452.008964 
L 405.7275 -447.801298 
L 405.550823 -443.593633 
L 405.181138 -439.385967 
L 404.626097 -435.178302 
L 403.891549 -430.970636 
L 402.981476 -426.762971 
L 401.898632 -422.555305 
L 400.645663 -418.34764 
L 399.226382 -414.139974 
L 397.646933 -409.932309 
L 395.916615 -405.724644 
L 394.04828 -401.516978 
L 392.058351 -397.309313 
L 389.966568 -393.101647 
L 387.795647 -388.893982 
L 385.570952 -384.686316 
L 383.320232 -380.478651 
L 381.073362 -376.270985 
L 378.861934 -372.06332 
L 376.718551 -367.855654 
L 374.675693 -363.647989 
L 372.764152 -359.440324 
L 371.011136 -355.232658 
L 369.438296 -351.024993 
L 368.059955 -346.817327 
L 366.881871 -342.609662 
L 365.900767 -338.401996 
L 365.104752 -334.194331 
L 364.474612 -329.986665 
L 363.985798 -325.779 
L 363.610855 -321.571335 
L 363.321948 -317.363669 
L 363.093174 -313.156004 
L 362.902391 -308.948338 
L 362.732383 -304.740673 
L 362.571306 -300.533007 
L 362.412467 -296.325342 
L 362.253557 -292.117676 
L 362.095554 -287.910011 
L 361.941478 -283.702345 
L 361.795219 -279.49468 
L 361.660562 -275.287015 
L 361.54051 -271.079349 
L 361.436904 -266.871684 
L 361.35034 -262.664018 
L 361.280289 -258.456353 
z
" style="stroke: #3d3d3d; stroke-opacity: 0.5"/>
    </defs>
    <g clip-path="url(#p3fd94835eb)">
     <use xlink:href="#m5847125e85" x="0" y="722.183991" style="fill: #c03d3e; fill-opacity: 0.5; stroke: #3d3d3d; stroke-opacity: 0.5"/>
    </g>
   </g>
   <g id="PolyCollection_4">
    <defs>
     <path id="me582a884e5" d="M 472.874121 -185.783991 
L 472.500879 -185.783991 
L 472.424806 -190.8749 
L 472.329372 -195.965809 
L 472.214642 -201.056718 
L 472.082802 -206.147627 
L 471.938507 -211.238537 
L 471.788881 -216.329446 
L 471.643059 -221.420355 
L 471.511271 -226.511264 
L 471.403527 -231.602173 
L 471.32808 -236.693082 
L 471.289937 -241.783991 
L 471.28966 -246.8749 
L 471.322684 -251.965809 
L 471.379279 -257.056718 
L 471.445159 -262.147627 
L 471.502637 -267.238537 
L 471.532153 -272.329446 
L 471.513971 -277.420355 
L 471.42986 -282.511264 
L 471.264595 -287.602173 
L 471.007115 -292.693082 
L 470.651231 -297.783991 
L 470.195716 -302.8749 
L 469.643686 -307.965809 
L 469.001208 -313.056718 
L 468.275195 -318.147627 
L 467.470844 -323.238537 
L 466.588998 -328.329446 
L 465.623981 -333.420355 
L 464.562484 -338.511264 
L 463.383937 -343.602173 
L 462.062615 -348.693082 
L 460.571369 -353.783991 
L 458.886506 -358.8749 
L 456.993068 -363.965809 
L 454.889559 -369.056718 
L 452.591195 -374.147627 
L 450.130957 -379.238537 
L 447.558114 -384.329446 
L 444.934352 -389.420355 
L 442.328171 -394.511264 
L 439.808547 -399.602173 
L 437.439027 -404.693082 
L 435.273304 -409.783991 
L 433.352944 -414.8749 
L 431.707365 -419.965809 
L 430.355635 -425.056718 
L 429.309179 -430.147627 
L 428.574366 -435.238537 
L 428.154039 -440.329446 
L 428.0475 -445.420355 
L 428.248982 -450.511264 
L 428.745196 -455.602173 
L 429.512899 -460.693082 
L 430.517531 -465.783991 
L 431.713773 -470.8749 
L 433.048425 -475.965809 
L 434.4654 -481.056718 
L 435.912069 -486.147627 
L 437.345735 -491.238537 
L 438.738876 -496.329446 
L 440.081974 -501.420355 
L 441.383213 -506.511264 
L 442.665018 -511.602173 
L 443.958089 -516.693082 
L 445.294125 -521.783991 
L 446.698702 -526.8749 
L 448.185667 -531.965809 
L 449.754025 -537.056718 
L 451.387704 -542.147627 
L 453.058006 -547.238537 
L 454.728025 -552.329446 
L 456.358056 -557.420355 
L 457.910973 -562.511264 
L 459.35669 -567.602173 
L 460.675125 -572.693082 
L 461.857399 -577.783991 
L 462.905346 -582.8749 
L 463.829648 -587.965809 
L 464.647096 -593.056718 
L 465.377514 -598.147627 
L 466.040871 -603.238537 
L 466.65497 -608.329446 
L 467.233926 -613.420355 
L 467.787473 -618.511264 
L 468.320981 -623.602173 
L 468.835986 -628.693082 
L 469.331018 -633.783991 
L 469.802532 -638.8749 
L 470.245833 -643.965809 
L 470.655917 -649.056718 
L 471.028203 -654.147627 
L 471.359128 -659.238537 
L 471.646583 -664.329446 
L 471.89016 -669.420355 
L 472.091186 -674.511264 
L 472.252561 -679.602173 
L 472.37842 -684.693082 
L 472.473694 -689.783991 
L 472.901306 -689.783991 
L 472.901306 -689.783991 
L 472.99658 -684.693082 
L 473.122439 -679.602173 
L 473.283814 -674.511264 
L 473.48484 -669.420355 
L 473.728417 -664.329446 
L 474.015872 -659.238537 
L 474.346797 -654.147627 
L 474.719083 -649.056718 
L 475.129167 -643.965809 
L 475.572468 -638.8749 
L 476.043982 -633.783991 
L 476.539014 -628.693082 
L 477.054019 -623.602173 
L 477.587527 -618.511264 
L 478.141074 -613.420355 
L 478.72003 -608.329446 
L 479.334129 -603.238537 
L 479.997486 -598.147627 
L 480.727904 -593.056718 
L 481.545352 -587.965809 
L 482.469654 -582.8749 
L 483.517601 -577.783991 
L 484.699875 -572.693082 
L 486.01831 -567.602173 
L 487.464027 -562.511264 
L 489.016944 -557.420355 
L 490.646975 -552.329446 
L 492.316994 -547.238537 
L 493.987296 -542.147627 
L 495.620975 -537.056718 
L 497.189333 -531.965809 
L 498.676298 -526.8749 
L 500.080875 -521.783991 
L 501.416911 -516.693082 
L 502.709982 -511.602173 
L 503.991787 -506.511264 
L 505.293026 -501.420355 
L 506.636124 -496.329446 
L 508.029265 -491.238537 
L 509.462931 -486.147627 
L 510.9096 -481.056718 
L 512.326575 -475.965809 
L 513.661227 -470.8749 
L 514.857469 -465.783991 
L 515.862101 -460.693082 
L 516.629804 -455.602173 
L 517.126018 -450.511264 
L 517.3275 -445.420355 
L 517.220961 -440.329446 
L 516.800634 -435.238537 
L 516.065821 -430.147627 
L 515.019365 -425.056718 
L 513.667635 -419.965809 
L 512.022056 -414.8749 
L 510.101696 -409.783991 
L 507.935973 -404.693082 
L 505.566453 -399.602173 
L 503.046829 -394.511264 
L 500.440648 -389.420355 
L 497.816886 -384.329446 
L 495.244043 -379.238537 
L 492.783805 -374.147627 
L 490.485441 -369.056718 
L 488.381932 -363.965809 
L 486.488494 -358.8749 
L 484.803631 -353.783991 
L 483.312385 -348.693082 
L 481.991063 -343.602173 
L 480.812516 -338.511264 
L 479.751019 -333.420355 
L 478.786002 -328.329446 
L 477.904156 -323.238537 
L 477.099805 -318.147627 
L 476.373792 -313.056718 
L 475.731314 -307.965809 
L 475.179284 -302.8749 
L 474.723769 -297.783991 
L 474.367885 -292.693082 
L 474.110405 -287.602173 
L 473.94514 -282.511264 
L 473.861029 -277.420355 
L 473.842847 -272.329446 
L 473.872363 -267.238537 
L 473.929841 -262.147627 
L 473.995721 -257.056718 
L 474.052316 -251.965809 
L 474.08534 -246.8749 
L 474.085063 -241.783991 
L 474.04692 -236.693082 
L 473.971473 -231.602173 
L 473.863729 -226.511264 
L 473.731941 -221.420355 
L 473.586119 -216.329446 
L 473.436493 -211.238537 
L 473.292198 -206.147627 
L 473.160358 -201.056718 
L 473.045628 -195.965809 
L 472.950194 -190.8749 
L 472.874121 -185.783991 
z
" style="stroke: #3d3d3d; stroke-opacity: 0.5"/>
    </defs>
    <g clip-path="url(#p3fd94835eb)">
     <use xlink:href="#me582a884e5" x="0" y="722.183991" style="fill: #9372b2; fill-opacity: 0.5; stroke: #3d3d3d; stroke-opacity: 0.5"/>
    </g>
   </g>
   <g id="PolyCollection_5">
    <defs>
     <path id="mc45ec46498" d="M 584.556431 -262.348552 
L 584.018569 -262.348552 
L 583.917379 -266.43761 
L 583.787611 -270.526669 
L 583.624618 -274.615727 
L 583.423987 -278.704786 
L 583.181798 -282.793844 
L 582.894841 -286.882903 
L 582.560779 -290.971961 
L 582.178208 -295.06102 
L 581.746599 -299.150078 
L 581.266139 -303.239137 
L 580.737469 -307.328195 
L 580.16135 -311.417254 
L 579.538317 -315.506313 
L 578.86833 -319.595371 
L 578.150474 -323.68443 
L 577.382704 -327.773488 
L 576.561662 -331.862547 
L 575.682542 -335.951605 
L 574.739017 -340.040664 
L 573.723245 -344.129722 
L 572.625974 -348.218781 
L 571.436811 -352.307839 
L 570.144704 -356.396898 
L 568.73869 -360.485956 
L 567.208945 -364.575015 
L 565.548115 -368.664073 
L 563.752873 -372.753132 
L 561.825579 -376.84219 
L 559.77588 -380.931249 
L 557.622045 -385.020307 
L 555.391834 -389.109366 
L 553.122691 -393.198424 
L 550.861107 -397.287483 
L 548.661066 -401.376541 
L 546.581547 -405.4656 
L 544.683213 -409.554658 
L 543.024479 -413.643717 
L 541.657315 -417.732775 
L 540.623174 -421.821834 
L 539.949538 -425.910892 
L 539.6475 -429.999951 
L 539.710755 -434.089009 
L 540.11619 -438.178068 
L 540.826056 -442.267126 
L 541.79148 -446.356185 
L 542.956867 -450.445244 
L 544.26461 -454.534302 
L 545.659481 -458.623361 
L 547.092143 -462.712419 
L 548.52141 -466.801478 
L 549.915106 -470.890536 
L 551.249646 -474.979595 
L 552.508662 -479.068653 
L 553.681168 -483.157712 
L 554.759756 -487.24677 
L 555.739269 -491.335829 
L 556.616219 -495.424887 
L 557.388999 -499.513946 
L 558.058756 -503.603004 
L 558.63059 -507.692063 
L 559.114718 -511.781121 
L 559.52718 -515.87018 
L 559.889827 -519.959238 
L 560.229425 -524.048297 
L 560.575922 -528.137355 
L 560.960062 -532.226414 
L 561.410671 -536.315472 
L 561.951984 -540.404531 
L 562.601388 -544.493589 
L 563.367879 -548.582648 
L 564.251431 -552.671706 
L 565.243318 -556.760765 
L 566.327329 -560.849823 
L 567.48166 -564.938882 
L 568.681225 -569.02794 
L 569.900066 -573.116999 
L 571.113564 -577.206057 
L 572.30021 -581.295116 
L 573.442782 -585.384175 
L 574.528859 -589.473233 
L 575.550719 -593.562292 
L 576.50474 -597.65135 
L 577.390473 -601.740409 
L 578.209579 -605.829467 
L 578.964823 -609.918526 
L 579.659229 -614.007584 
L 580.295524 -618.096643 
L 580.875852 -622.185701 
L 581.401759 -626.27476 
L 581.874376 -630.363818 
L 582.29471 -634.452877 
L 582.663962 -638.541935 
L 582.983804 -642.630994 
L 583.256555 -646.720052 
L 583.485251 -650.809111 
L 583.673593 -654.898169 
L 583.825806 -658.987228 
L 583.946438 -663.076286 
L 584.040138 -667.165345 
L 584.534862 -667.165345 
L 584.534862 -667.165345 
L 584.628562 -663.076286 
L 584.749194 -658.987228 
L 584.901407 -654.898169 
L 585.089749 -650.809111 
L 585.318445 -646.720052 
L 585.591196 -642.630994 
L 585.911038 -638.541935 
L 586.28029 -634.452877 
L 586.700624 -630.363818 
L 587.173241 -626.27476 
L 587.699148 -622.185701 
L 588.279476 -618.096643 
L 588.915771 -614.007584 
L 589.610177 -609.918526 
L 590.365421 -605.829467 
L 591.184527 -601.740409 
L 592.07026 -597.65135 
L 593.024281 -593.562292 
L 594.046141 -589.473233 
L 595.132218 -585.384175 
L 596.27479 -581.295116 
L 597.461436 -577.206057 
L 598.674934 -573.116999 
L 599.893775 -569.02794 
L 601.09334 -564.938882 
L 602.247671 -560.849823 
L 603.331682 -556.760765 
L 604.323569 -552.671706 
L 605.207121 -548.582648 
L 605.973612 -544.493589 
L 606.623016 -540.404531 
L 607.164329 -536.315472 
L 607.614938 -532.226414 
L 607.999078 -528.137355 
L 608.345575 -524.048297 
L 608.685173 -519.959238 
L 609.04782 -515.87018 
L 609.460282 -511.781121 
L 609.94441 -507.692063 
L 610.516244 -503.603004 
L 611.186001 -499.513946 
L 611.958781 -495.424887 
L 612.835731 -491.335829 
L 613.815244 -487.24677 
L 614.893832 -483.157712 
L 616.066338 -479.068653 
L 617.325354 -474.979595 
L 618.659894 -470.890536 
L 620.05359 -466.801478 
L 621.482857 -462.712419 
L 622.915519 -458.623361 
L 624.31039 -454.534302 
L 625.618133 -450.445244 
L 626.78352 -446.356185 
L 627.748944 -442.267126 
L 628.45881 -438.178068 
L 628.864245 -434.089009 
L 628.9275 -429.999951 
L 628.625462 -425.910892 
L 627.951826 -421.821834 
L 626.917685 -417.732775 
L 625.550521 -413.643717 
L 623.891787 -409.554658 
L 621.993453 -405.4656 
L 619.913934 -401.376541 
L 617.713893 -397.287483 
L 615.452309 -393.198424 
L 613.183166 -389.109366 
L 610.952955 -385.020307 
L 608.79912 -380.931249 
L 606.749421 -376.84219 
L 604.822127 -372.753132 
L 603.026885 -368.664073 
L 601.366055 -364.575015 
L 599.83631 -360.485956 
L 598.430296 -356.396898 
L 597.138189 -352.307839 
L 595.949026 -348.218781 
L 594.851755 -344.129722 
L 593.835983 -340.040664 
L 592.892458 -335.951605 
L 592.013338 -331.862547 
L 591.192296 -327.773488 
L 590.424526 -323.68443 
L 589.70667 -319.595371 
L 589.036683 -315.506313 
L 588.41365 -311.417254 
L 587.837531 -307.328195 
L 587.308861 -303.239137 
L 586.828401 -299.150078 
L 586.396792 -295.06102 
L 586.014221 -290.971961 
L 585.680159 -286.882903 
L 585.393202 -282.793844 
L 585.151013 -278.704786 
L 584.950382 -274.615727 
L 584.787389 -270.526669 
L 584.657621 -266.43761 
L 584.556431 -262.348552 
z
" style="stroke: #3d3d3d; stroke-opacity: 0.5"/>
    </defs>
    <g clip-path="url(#p3fd94835eb)">
     <use xlink:href="#mc45ec46498" x="0" y="722.183991" style="fill: #845b53; fill-opacity: 0.5; stroke: #3d3d3d; stroke-opacity: 0.5"/>
    </g>
   </g>
   <g id="PolyCollection_6">
    <defs>
     <path id="m661d1cec58" d="M 696.088494 -232.528472 
L 695.686506 -232.528472 
L 695.608046 -237.097862 
L 695.507995 -241.667253 
L 695.383746 -246.236644 
L 695.233338 -250.806034 
L 695.055655 -255.375425 
L 694.850521 -259.944815 
L 694.618703 -264.514206 
L 694.361806 -269.083597 
L 694.082138 -273.652987 
L 693.782571 -278.222378 
L 693.466497 -282.791768 
L 693.137864 -287.361159 
L 692.801295 -291.93055 
L 692.462172 -296.49994 
L 692.126529 -301.069331 
L 691.800576 -305.638721 
L 691.489721 -310.208112 
L 691.197012 -314.777503 
L 690.921122 -319.346893 
L 690.65412 -323.916284 
L 690.379437 -328.485674 
L 690.070496 -333.055065 
L 689.690495 -337.624456 
L 689.193674 -342.193846 
L 688.528232 -346.763237 
L 687.64076 -351.332627 
L 686.481809 -355.902018 
L 685.011964 -360.471409 
L 683.207646 -365.040799 
L 681.06584 -369.61019 
L 678.607044 -374.17958 
L 675.875913 -378.748971 
L 672.939424 -383.318362 
L 669.882663 -387.887752 
L 666.802716 -392.457143 
L 663.801359 -397.026533 
L 660.977406 -401.595924 
L 658.419563 -406.165315 
L 656.200525 -410.734705 
L 654.3728 -415.304096 
L 652.966508 -419.873486 
L 651.989099 -424.442877 
L 651.426812 -429.012268 
L 651.2475 -433.581658 
L 651.404507 -438.151049 
L 651.841234 -442.720439 
L 652.496079 -447.28983 
L 653.307436 -451.859221 
L 654.218385 -456.428611 
L 655.180686 -460.998002 
L 656.157653 -465.567392 
L 657.125589 -470.136783 
L 658.073572 -474.706174 
L 659.001673 -479.275564 
L 659.917901 -483.844955 
L 660.83446 -488.414345 
L 661.763989 -492.983736 
L 662.716488 -497.553127 
L 663.697437 -502.122517 
L 664.70736 -506.691908 
L 665.742764 -511.261298 
L 666.798077 -515.830689 
L 667.868001 -520.40008 
L 668.949656 -524.96947 
L 670.043944 -529.538861 
L 671.15579 -534.108251 
L 672.293182 -538.677642 
L 673.465214 -543.247033 
L 674.679557 -547.816423 
L 675.939921 -552.385814 
L 677.244053 -556.955204 
L 678.582719 -561.524595 
L 679.939883 -566.093986 
L 681.294087 -570.663376 
L 682.620769 -575.232767 
L 683.89511 -579.802157 
L 685.094917 -584.371548 
L 686.203067 -588.940939 
L 687.209149 -593.510329 
L 688.110101 -598.07972 
L 688.909828 -602.64911 
L 689.617933 -607.218501 
L 690.247848 -611.787892 
L 690.814691 -616.357282 
L 691.333174 -620.926673 
L 691.815885 -625.496063 
L 692.272104 -630.065454 
L 692.70729 -634.634845 
L 693.123189 -639.204235 
L 693.51847 -643.773626 
L 693.889714 -648.343016 
L 694.232531 -652.912407 
L 694.542638 -657.481798 
L 694.816718 -662.051188 
L 695.052979 -666.620579 
L 695.251382 -671.189969 
L 695.41357 -675.75936 
L 695.542571 -680.32875 
L 695.642376 -684.898141 
L 696.132624 -684.898141 
L 696.132624 -684.898141 
L 696.232429 -680.32875 
L 696.36143 -675.75936 
L 696.523618 -671.189969 
L 696.722021 -666.620579 
L 696.958282 -662.051188 
L 697.232362 -657.481798 
L 697.542469 -652.912407 
L 697.885286 -648.343016 
L 698.25653 -643.773626 
L 698.651811 -639.204235 
L 699.06771 -634.634845 
L 699.502896 -630.065454 
L 699.959115 -625.496063 
L 700.441826 -620.926673 
L 700.960309 -616.357282 
L 701.527152 -611.787892 
L 702.157067 -607.218501 
L 702.865172 -602.64911 
L 703.664899 -598.07972 
L 704.565851 -593.510329 
L 705.571933 -588.940939 
L 706.680083 -584.371548 
L 707.87989 -579.802157 
L 709.154231 -575.232767 
L 710.480913 -570.663376 
L 711.835117 -566.093986 
L 713.192281 -561.524595 
L 714.530947 -556.955204 
L 715.835079 -552.385814 
L 717.095443 -547.816423 
L 718.309786 -543.247033 
L 719.481818 -538.677642 
L 720.61921 -534.108251 
L 721.731056 -529.538861 
L 722.825344 -524.96947 
L 723.906999 -520.40008 
L 724.976923 -515.830689 
L 726.032236 -511.261298 
L 727.06764 -506.691908 
L 728.077563 -502.122517 
L 729.058512 -497.553127 
L 730.011011 -492.983736 
L 730.94054 -488.414345 
L 731.857099 -483.844955 
L 732.773327 -479.275564 
L 733.701428 -474.706174 
L 734.649411 -470.136783 
L 735.617347 -465.567392 
L 736.594314 -460.998002 
L 737.556615 -456.428611 
L 738.467564 -451.859221 
L 739.278921 -447.28983 
L 739.933766 -442.720439 
L 740.370493 -438.151049 
L 740.5275 -433.581658 
L 740.348188 -429.012268 
L 739.785901 -424.442877 
L 738.808492 -419.873486 
L 737.4022 -415.304096 
L 735.574475 -410.734705 
L 733.355437 -406.165315 
L 730.797594 -401.595924 
L 727.973641 -397.026533 
L 724.972284 -392.457143 
L 721.892337 -387.887752 
L 718.835576 -383.318362 
L 715.899087 -378.748971 
L 713.167956 -374.17958 
L 710.70916 -369.61019 
L 708.567354 -365.040799 
L 706.763036 -360.471409 
L 705.293191 -355.902018 
L 704.13424 -351.332627 
L 703.246768 -346.763237 
L 702.581326 -342.193846 
L 702.084505 -337.624456 
L 701.704504 -333.055065 
L 701.395563 -328.485674 
L 701.12088 -323.916284 
L 700.853878 -319.346893 
L 700.577988 -314.777503 
L 700.285279 -310.208112 
L 699.974424 -305.638721 
L 699.648471 -301.069331 
L 699.312828 -296.49994 
L 698.973705 -291.93055 
L 698.637136 -287.361159 
L 698.308503 -282.791768 
L 697.992429 -278.222378 
L 697.692862 -273.652987 
L 697.413194 -269.083597 
L 697.156297 -264.514206 
L 696.924479 -259.944815 
L 696.719345 -255.375425 
L 696.541662 -250.806034 
L 696.391254 -246.236644 
L 696.267005 -241.667253 
L 696.166954 -237.097862 
L 696.088494 -232.528472 
z
" style="stroke: #3d3d3d; stroke-opacity: 0.5"/>
    </defs>
    <g clip-path="url(#p3fd94835eb)">
     <use xlink:href="#m661d1cec58" x="0" y="722.183991" style="fill: #e1812c; fill-opacity: 0.5; stroke: #3d3d3d; stroke-opacity: 0.5"/>
    </g>
   </g>
   <g id="PolyCollection_7">
    <defs>
     <path id="mbd736b4912" d="M 807.667809 -213.289951 
L 807.307191 -213.289951 
L 807.239569 -217.920707 
L 807.155736 -222.551463 
L 807.055415 -227.182218 
L 806.939687 -231.812974 
L 806.811201 -236.44373 
L 806.674173 -241.074486 
L 806.534111 -245.705242 
L 806.397231 -250.335998 
L 806.269612 -254.966754 
L 806.156154 -259.59751 
L 806.059509 -264.228266 
L 805.979137 -268.859022 
L 805.910667 -273.489778 
L 805.845677 -278.120533 
L 805.77196 -282.751289 
L 805.674229 -287.382045 
L 805.535174 -292.012801 
L 805.336681 -296.643557 
L 805.061052 -301.274313 
L 804.692051 -305.905069 
L 804.21565 -310.535825 
L 803.620441 -315.166581 
L 802.897712 -319.797337 
L 802.041247 -324.428092 
L 801.046943 -329.058848 
L 799.912335 -333.689604 
L 798.636104 -338.32036 
L 797.217668 -342.951116 
L 795.656923 -347.581872 
L 793.954227 -352.212628 
L 792.110713 -356.843384 
L 790.129016 -361.47414 
L 788.014446 -366.104896 
L 785.776551 -370.735652 
L 783.430955 -375.366407 
L 781.001171 -379.997163 
L 778.520092 -384.627919 
L 776.030731 -389.258675 
L 773.585894 -393.889431 
L 771.246531 -398.520187 
L 769.078704 -403.150943 
L 767.149352 -407.781699 
L 765.521213 -412.412455 
L 764.247497 -417.043211 
L 763.366984 -421.673967 
L 762.900235 -426.304722 
L 762.8475 -430.935478 
L 763.188679 -435.566234 
L 763.885392 -440.19699 
L 764.884903 -444.827746 
L 766.125328 -449.458502 
L 767.541379 -454.089258 
L 769.069792 -458.720014 
L 770.653727 -463.35077 
L 772.245622 -467.981526 
L 773.808334 -472.612281 
L 775.314757 -477.243037 
L 776.746371 -481.873793 
L 778.091383 -486.504549 
L 779.343048 -491.135305 
L 780.498653 -495.766061 
L 781.55929 -500.396817 
L 782.53028 -505.027573 
L 783.421819 -509.658329 
L 784.249313 -514.289085 
L 785.032942 -518.919841 
L 785.796191 -523.550596 
L 786.563399 -528.181352 
L 787.356726 -532.812108 
L 788.193102 -537.442864 
L 789.081838 -542.07362 
L 790.023427 -546.704376 
L 791.00983 -551.335132 
L 792.026172 -555.965888 
L 793.053498 -560.596644 
L 794.072001 -565.2274 
L 795.06406 -569.858156 
L 796.016554 -574.488911 
L 796.922066 -579.119667 
L 797.778917 -583.750423 
L 798.590155 -588.381179 
L 799.361869 -593.011935 
L 800.101214 -597.642691 
L 800.814578 -602.273447 
L 801.506184 -606.904203 
L 802.177309 -611.534959 
L 802.826159 -616.165715 
L 803.448309 -620.79647 
L 804.03755 -625.427226 
L 804.586947 -630.057982 
L 805.089914 -634.688738 
L 805.541124 -639.319494 
L 805.937176 -643.95025 
L 806.276928 -648.581006 
L 806.561527 -653.211762 
L 806.794158 -657.842518 
L 806.979611 -662.473274 
L 807.123737 -667.10403 
L 807.232889 -671.734785 
L 807.742111 -671.734785 
L 807.742111 -671.734785 
L 807.851263 -667.10403 
L 807.995389 -662.473274 
L 808.180842 -657.842518 
L 808.413473 -653.211762 
L 808.698072 -648.581006 
L 809.037824 -643.95025 
L 809.433876 -639.319494 
L 809.885086 -634.688738 
L 810.388053 -630.057982 
L 810.93745 -625.427226 
L 811.526691 -620.79647 
L 812.148841 -616.165715 
L 812.797691 -611.534959 
L 813.468816 -606.904203 
L 814.160422 -602.273447 
L 814.873786 -597.642691 
L 815.613131 -593.011935 
L 816.384845 -588.381179 
L 817.196083 -583.750423 
L 818.052934 -579.119667 
L 818.958446 -574.488911 
L 819.91094 -569.858156 
L 820.902999 -565.2274 
L 821.921502 -560.596644 
L 822.948828 -555.965888 
L 823.96517 -551.335132 
L 824.951573 -546.704376 
L 825.893162 -542.07362 
L 826.781898 -537.442864 
L 827.618274 -532.812108 
L 828.411601 -528.181352 
L 829.178809 -523.550596 
L 829.942058 -518.919841 
L 830.725687 -514.289085 
L 831.553181 -509.658329 
L 832.44472 -505.027573 
L 833.41571 -500.396817 
L 834.476347 -495.766061 
L 835.631952 -491.135305 
L 836.883617 -486.504549 
L 838.228629 -481.873793 
L 839.660243 -477.243037 
L 841.166666 -472.612281 
L 842.729378 -467.981526 
L 844.321273 -463.35077 
L 845.905208 -458.720014 
L 847.433621 -454.089258 
L 848.849672 -449.458502 
L 850.090097 -444.827746 
L 851.089608 -440.19699 
L 851.786321 -435.566234 
L 852.1275 -430.935478 
L 852.074765 -426.304722 
L 851.608016 -421.673967 
L 850.727503 -417.043211 
L 849.453787 -412.412455 
L 847.825648 -407.781699 
L 845.896296 -403.150943 
L 843.728469 -398.520187 
L 841.389106 -393.889431 
L 838.944269 -389.258675 
L 836.454908 -384.627919 
L 833.973829 -379.997163 
L 831.544045 -375.366407 
L 829.198449 -370.735652 
L 826.960554 -366.104896 
L 824.845984 -361.47414 
L 822.864287 -356.843384 
L 821.020773 -352.212628 
L 819.318077 -347.581872 
L 817.757332 -342.951116 
L 816.338896 -338.32036 
L 815.062665 -333.689604 
L 813.928057 -329.058848 
L 812.933753 -324.428092 
L 812.077288 -319.797337 
L 811.354559 -315.166581 
L 810.75935 -310.535825 
L 810.282949 -305.905069 
L 809.913948 -301.274313 
L 809.638319 -296.643557 
L 809.439826 -292.012801 
L 809.300771 -287.382045 
L 809.20304 -282.751289 
L 809.129323 -278.120533 
L 809.064333 -273.489778 
L 808.995863 -268.859022 
L 808.915491 -264.228266 
L 808.818846 -259.59751 
L 808.705388 -254.966754 
L 808.577769 -250.335998 
L 808.440889 -245.705242 
L 808.300827 -241.074486 
L 808.163799 -236.44373 
L 808.035313 -231.812974 
L 807.919585 -227.182218 
L 807.819264 -222.551463 
L 807.735431 -217.920707 
L 807.667809 -213.289951 
z
" style="stroke: #3d3d3d; stroke-opacity: 0.5"/>
    </defs>
    <g clip-path="url(#p3fd94835eb)">
     <use xlink:href="#mbd736b4912" x="0" y="722.183991" style="fill: #3a923a; fill-opacity: 0.5; stroke: #3d3d3d; stroke-opacity: 0.5"/>
    </g>
   </g>
   <g id="line2d_9">
    <path d="M 137.8875 415.778536 
L 137.8875 99.4954 
" clip-path="url(#p3fd94835eb)" style="fill: none; stroke: #3d3d3d; stroke-width: 1.5; stroke-linecap: round"/>
   </g>
   <g id="line2d_10">
    <path d="M 137.8875 304.653844 
L 137.8875 215.894102 
" clip-path="url(#p3fd94835eb)" style="fill: none; stroke: #3d3d3d; stroke-width: 4.5; stroke-linecap: round"/>
   </g>
   <g id="line2d_11">
    <path d="M 137.8875 268.959226 
" clip-path="url(#p3fd94835eb)" style="fill: none; stroke: #3d3d3d; stroke-width: 1.5; stroke-linecap: round"/>
    <defs>
     <path id="me73a88bdf2" d="M 1.875 0 
L -1.875 -0 
" style="stroke: #ffffff; stroke-width: 0.9"/>
    </defs>
    <g clip-path="url(#p3fd94835eb)">
     <use xlink:href="#me73a88bdf2" x="137.8875" y="268.959226" style="fill: #ffffff; stroke: #ffffff; stroke-width: 0.9"/>
    </g>
   </g>
   <g id="line2d_12">
    <path d="M 249.4875 467.312663 
L 249.4875 137.463022 
" clip-path="url(#p3fd94835eb)" style="fill: none; stroke: #3d3d3d; stroke-width: 1.5; stroke-linecap: round"/>
   </g>
   <g id="line2d_13">
    <path d="M 249.4875 349.203287 
L 249.4875 262.539274 
" clip-path="url(#p3fd94835eb)" style="fill: none; stroke: #3d3d3d; stroke-width: 4.5; stroke-linecap: round"/>
   </g>
   <g id="line2d_14">
    <path d="M 249.4875 307.044216 
" clip-path="url(#p3fd94835eb)" style="fill: none; stroke: #3d3d3d; stroke-width: 1.5; stroke-linecap: round"/>
    <g clip-path="url(#p3fd94835eb)">
     <use xlink:href="#me73a88bdf2" x="249.4875" y="307.044216" style="fill: #ffffff; stroke: #ffffff; stroke-width: 0.9"/>
    </g>
   </g>
   <g id="line2d_15">
    <path d="M 361.0875 411.392884 
L 361.0875 99.503512 
" clip-path="url(#p3fd94835eb)" style="fill: none; stroke: #3d3d3d; stroke-width: 1.5; stroke-linecap: round"/>
   </g>
   <g id="line2d_16">
    <path d="M 361.0875 304.917373 
L 361.0875 221.754425 
" clip-path="url(#p3fd94835eb)" style="fill: none; stroke: #3d3d3d; stroke-width: 4.5; stroke-linecap: round"/>
   </g>
   <g id="line2d_17">
    <path d="M 361.0875 261.126288 
" clip-path="url(#p3fd94835eb)" style="fill: none; stroke: #3d3d3d; stroke-width: 1.5; stroke-linecap: round"/>
    <g clip-path="url(#p3fd94835eb)">
     <use xlink:href="#me73a88bdf2" x="361.0875" y="261.126288" style="fill: #ffffff; stroke: #ffffff; stroke-width: 0.9"/>
    </g>
   </g>
   <g id="line2d_18">
    <path d="M 472.6875 393.317589 
L 472.6875 89.298113 
" clip-path="url(#p3fd94835eb)" style="fill: none; stroke: #3d3d3d; stroke-width: 1.5; stroke-linecap: round"/>
   </g>
   <g id="line2d_19">
    <path d="M 472.6875 308.174488 
L 472.6875 211.561479 
" clip-path="url(#p3fd94835eb)" style="fill: none; stroke: #3d3d3d; stroke-width: 4.5; stroke-linecap: round"/>
   </g>
   <g id="line2d_20">
    <path d="M 472.6875 265.795259 
" clip-path="url(#p3fd94835eb)" style="fill: none; stroke: #3d3d3d; stroke-width: 1.5; stroke-linecap: round"/>
    <g clip-path="url(#p3fd94835eb)">
     <use xlink:href="#me73a88bdf2" x="472.6875" y="265.795259" style="fill: #ffffff; stroke: #ffffff; stroke-width: 0.9"/>
    </g>
   </g>
   <g id="line2d_21">
    <path d="M 584.2875 405.076764 
L 584.2875 109.777321 
" clip-path="url(#p3fd94835eb)" style="fill: none; stroke: #3d3d3d; stroke-width: 1.5; stroke-linecap: round"/>
   </g>
   <g id="line2d_22">
    <path d="M 584.2875 307.267076 
L 584.2875 217.846664 
" clip-path="url(#p3fd94835eb)" style="fill: none; stroke: #3d3d3d; stroke-width: 4.5; stroke-linecap: round"/>
   </g>
   <g id="line2d_23">
    <path d="M 584.2875 280.019808 
" clip-path="url(#p3fd94835eb)" style="fill: none; stroke: #3d3d3d; stroke-width: 1.5; stroke-linecap: round"/>
    <g clip-path="url(#p3fd94835eb)">
     <use xlink:href="#me73a88bdf2" x="584.2875" y="280.019808" style="fill: #ffffff; stroke: #ffffff; stroke-width: 0.9"/>
    </g>
   </g>
   <g id="line2d_24">
    <path d="M 695.8875 433.969855 
L 695.8875 92.971514 
" clip-path="url(#p3fd94835eb)" style="fill: none; stroke: #3d3d3d; stroke-width: 1.5; stroke-linecap: round"/>
   </g>
   <g id="line2d_25">
    <path d="M 695.8875 305.241382 
L 695.8875 214.929976 
" clip-path="url(#p3fd94835eb)" style="fill: none; stroke: #3d3d3d; stroke-width: 4.5; stroke-linecap: round"/>
   </g>
   <g id="line2d_26">
    <path d="M 695.8875 271.64613 
" clip-path="url(#p3fd94835eb)" style="fill: none; stroke: #3d3d3d; stroke-width: 1.5; stroke-linecap: round"/>
    <g clip-path="url(#p3fd94835eb)">
     <use xlink:href="#me73a88bdf2" x="695.8875" y="271.64613" style="fill: #ffffff; stroke: #ffffff; stroke-width: 0.9"/>
    </g>
   </g>
   <g id="line2d_27">
    <path d="M 807.4875 392.626316 
L 807.4875 106.309399 
" clip-path="url(#p3fd94835eb)" style="fill: none; stroke: #3d3d3d; stroke-width: 1.5; stroke-linecap: round"/>
   </g>
   <g id="line2d_28">
    <path d="M 807.4875 309.545027 
L 807.4875 227.479224 
" clip-path="url(#p3fd94835eb)" style="fill: none; stroke: #3d3d3d; stroke-width: 4.5; stroke-linecap: round"/>
   </g>
   <g id="line2d_29">
    <path d="M 807.4875 278.73943 
" clip-path="url(#p3fd94835eb)" style="fill: none; stroke: #3d3d3d; stroke-width: 1.5; stroke-linecap: round"/>
    <g clip-path="url(#p3fd94835eb)">
     <use xlink:href="#me73a88bdf2" x="807.4875" y="278.73943" style="fill: #ffffff; stroke: #ffffff; stroke-width: 0.9"/>
    </g>
   </g>
   <g id="patch_3">
    <path d="M 82.0875 561.6 
L 863.2875 561.6 
" style="fill: none; stroke: #cccccc; stroke-width: 0.8; stroke-linejoin: miter; stroke-linecap: square"/>
   </g>
  </g>
 </g>
 <defs>
  <clipPath id="p3fd94835eb">
   <rect x="82.0875" y="7.2" width="781.2" height="554.4"/>
  </clipPath>
 </defs>
</svg>
