<?xml version="1.0" encoding="utf-8" standalone="no"?>
<!DOCTYPE svg PUBLIC "-//W3C//DTD SVG 1.1//EN"
  "http://www.w3.org/Graphics/SVG/1.1/DTD/svg11.dtd">
<svg xmlns:xlink="http://www.w3.org/1999/xlink" width="857.7625pt" height="696.702001pt" viewBox="0 0 857.7625 696.702001" xmlns="http://www.w3.org/2000/svg" version="1.1">
 <metadata>
  <rdf:RDF xmlns:dc="http://purl.org/dc/elements/1.1/" xmlns:cc="http://creativecommons.org/ns#" xmlns:rdf="http://www.w3.org/1999/02/22-rdf-syntax-ns#">
   <cc:Work>
    <dc:type rdf:resource="http://purl.org/dc/dcmitype/StillImage"/>
    <dc:date>2024-10-23T17:25:23.544811</dc:date>
    <dc:format>image/svg+xml</dc:format>
    <dc:creator>
     <cc:Agent>
      <dc:title>Matplotlib v3.8.0, https://matplotlib.org/</dc:title>
     </cc:Agent>
    </dc:creator>
   </cc:Work>
  </rdf:RDF>
 </metadata>
 <defs>
  <style type="text/css">*{stroke-linejoin: round; stroke-linecap: butt}</style>
 </defs>
 <g id="figure_1">
  <g id="patch_1">
   <path d="M 0 696.702001 
L 857.7625 696.702001 
L 857.7625 0 
L 0 0 
L 0 696.702001 
z
" style="fill: none"/>
  </g>
  <g id="axes_1">
   <g id="patch_2">
    <path d="M 69.3625 561.6 
L 850.5625 561.6 
L 850.5625 7.2 
L 69.3625 7.2 
L 69.3625 561.6 
z
" style="fill: none"/>
   </g>
   <g id="matplotlib.axis_1">
    <g id="xtick_1">
     <g id="text_1">
      <!-- MSA -->
      <g style="fill: #262626" transform="translate(97.813986 610.465141) rotate(-45) scale(0.2 -0.2)">
       <defs>
        <path id="DejaVuSans-4d" d="M 628 4666 
L 1569 4666 
L 2759 1491 
L 3956 4666 
L 4897 4666 
L 4897 0 
L 4281 0 
L 4281 4097 
L 3078 897 
L 2444 897 
L 1241 4097 
L 1241 0 
L 628 0 
L 628 4666 
z
" transform="scale(0.015625)"/>
        <path id="DejaVuSans-53" d="M 3425 4513 
L 3425 3897 
Q 3066 4069 2747 4153 
Q 2428 4238 2131 4238 
Q 1616 4238 1336 4038 
Q 1056 3838 1056 3469 
Q 1056 3159 1242 3001 
Q 1428 2844 1947 2747 
L 2328 2669 
Q 3034 2534 3370 2195 
Q 3706 1856 3706 1288 
Q 3706 609 3251 259 
Q 2797 -91 1919 -91 
Q 1588 -91 1214 -16 
Q 841 59 441 206 
L 441 856 
Q 825 641 1194 531 
Q 1563 422 1919 422 
Q 2459 422 2753 634 
Q 3047 847 3047 1241 
Q 3047 1584 2836 1778 
Q 2625 1972 2144 2069 
L 1759 2144 
Q 1053 2284 737 2584 
Q 422 2884 422 3419 
Q 422 4038 858 4394 
Q 1294 4750 2059 4750 
Q 2388 4750 2728 4690 
Q 3069 4631 3425 4513 
z
" transform="scale(0.015625)"/>
        <path id="DejaVuSans-41" d="M 2188 4044 
L 1331 1722 
L 3047 1722 
L 2188 4044 
z
M 1831 4666 
L 2547 4666 
L 4325 0 
L 3669 0 
L 3244 1197 
L 1141 1197 
L 716 0 
L 50 0 
L 1831 4666 
z
" transform="scale(0.015625)"/>
       </defs>
       <use xlink:href="#DejaVuSans-4d"/>
       <use xlink:href="#DejaVuSans-53" x="86.279297"/>
       <use xlink:href="#DejaVuSans-41" x="151.630859"/>
      </g>
     </g>
    </g>
    <g id="xtick_2">
     <g id="text_2">
      <!-- Single -->
      <g style="fill: #262626" transform="translate(183.105085 622.824042) rotate(-45) scale(0.2 -0.2)">
       <defs>
        <path id="DejaVuSans-69" d="M 603 3500 
L 1178 3500 
L 1178 0 
L 603 0 
L 603 3500 
z
M 603 4863 
L 1178 4863 
L 1178 4134 
L 603 4134 
L 603 4863 
z
" transform="scale(0.015625)"/>
        <path id="DejaVuSans-6e" d="M 3513 2113 
L 3513 0 
L 2938 0 
L 2938 2094 
Q 2938 2591 2744 2837 
Q 2550 3084 2163 3084 
Q 1697 3084 1428 2787 
Q 1159 2491 1159 1978 
L 1159 0 
L 581 0 
L 581 3500 
L 1159 3500 
L 1159 2956 
Q 1366 3272 1645 3428 
Q 1925 3584 2291 3584 
Q 2894 3584 3203 3211 
Q 3513 2838 3513 2113 
z
" transform="scale(0.015625)"/>
        <path id="DejaVuSans-67" d="M 2906 1791 
Q 2906 2416 2648 2759 
Q 2391 3103 1925 3103 
Q 1463 3103 1205 2759 
Q 947 2416 947 1791 
Q 947 1169 1205 825 
Q 1463 481 1925 481 
Q 2391 481 2648 825 
Q 2906 1169 2906 1791 
z
M 3481 434 
Q 3481 -459 3084 -895 
Q 2688 -1331 1869 -1331 
Q 1566 -1331 1297 -1286 
Q 1028 -1241 775 -1147 
L 775 -588 
Q 1028 -725 1275 -790 
Q 1522 -856 1778 -856 
Q 2344 -856 2625 -561 
Q 2906 -266 2906 331 
L 2906 616 
Q 2728 306 2450 153 
Q 2172 0 1784 0 
Q 1141 0 747 490 
Q 353 981 353 1791 
Q 353 2603 747 3093 
Q 1141 3584 1784 3584 
Q 2172 3584 2450 3431 
Q 2728 3278 2906 2969 
L 2906 3500 
L 3481 3500 
L 3481 434 
z
" transform="scale(0.015625)"/>
        <path id="DejaVuSans-6c" d="M 603 4863 
L 1178 4863 
L 1178 0 
L 603 0 
L 603 4863 
z
" transform="scale(0.015625)"/>
        <path id="DejaVuSans-65" d="M 3597 1894 
L 3597 1613 
L 953 1613 
Q 991 1019 1311 708 
Q 1631 397 2203 397 
Q 2534 397 2845 478 
Q 3156 559 3463 722 
L 3463 178 
Q 3153 47 2828 -22 
Q 2503 -91 2169 -91 
Q 1331 -91 842 396 
Q 353 884 353 1716 
Q 353 2575 817 3079 
Q 1281 3584 2069 3584 
Q 2775 3584 3186 3129 
Q 3597 2675 3597 1894 
z
M 3022 2063 
Q 3016 2534 2758 2815 
Q 2500 3097 2075 3097 
Q 1594 3097 1305 2825 
Q 1016 2553 972 2059 
L 3022 2063 
z
" transform="scale(0.015625)"/>
       </defs>
       <use xlink:href="#DejaVuSans-53"/>
       <use xlink:href="#DejaVuSans-69" x="63.476562"/>
       <use xlink:href="#DejaVuSans-6e" x="91.259766"/>
       <use xlink:href="#DejaVuSans-67" x="154.638672"/>
       <use xlink:href="#DejaVuSans-6c" x="218.115234"/>
       <use xlink:href="#DejaVuSans-65" x="245.898438"/>
      </g>
     </g>
    </g>
    <g id="xtick_3">
     <g id="text_3">
      <!-- Gaussian -->
      <g style="fill: #262626" transform="translate(259.354056 644.22507) rotate(-45) scale(0.2 -0.2)">
       <defs>
        <path id="DejaVuSans-47" d="M 3809 666 
L 3809 1919 
L 2778 1919 
L 2778 2438 
L 4434 2438 
L 4434 434 
Q 4069 175 3628 42 
Q 3188 -91 2688 -91 
Q 1594 -91 976 548 
Q 359 1188 359 2328 
Q 359 3472 976 4111 
Q 1594 4750 2688 4750 
Q 3144 4750 3555 4637 
Q 3966 4525 4313 4306 
L 4313 3634 
Q 3963 3931 3569 4081 
Q 3175 4231 2741 4231 
Q 1884 4231 1454 3753 
Q 1025 3275 1025 2328 
Q 1025 1384 1454 906 
Q 1884 428 2741 428 
Q 3075 428 3337 486 
Q 3600 544 3809 666 
z
" transform="scale(0.015625)"/>
        <path id="DejaVuSans-61" d="M 2194 1759 
Q 1497 1759 1228 1600 
Q 959 1441 959 1056 
Q 959 750 1161 570 
Q 1363 391 1709 391 
Q 2188 391 2477 730 
Q 2766 1069 2766 1631 
L 2766 1759 
L 2194 1759 
z
M 3341 1997 
L 3341 0 
L 2766 0 
L 2766 531 
Q 2569 213 2275 61 
Q 1981 -91 1556 -91 
Q 1019 -91 701 211 
Q 384 513 384 1019 
Q 384 1609 779 1909 
Q 1175 2209 1959 2209 
L 2766 2209 
L 2766 2266 
Q 2766 2663 2505 2880 
Q 2244 3097 1772 3097 
Q 1472 3097 1187 3025 
Q 903 2953 641 2809 
L 641 3341 
Q 956 3463 1253 3523 
Q 1550 3584 1831 3584 
Q 2591 3584 2966 3190 
Q 3341 2797 3341 1997 
z
" transform="scale(0.015625)"/>
        <path id="DejaVuSans-75" d="M 544 1381 
L 544 3500 
L 1119 3500 
L 1119 1403 
Q 1119 906 1312 657 
Q 1506 409 1894 409 
Q 2359 409 2629 706 
Q 2900 1003 2900 1516 
L 2900 3500 
L 3475 3500 
L 3475 0 
L 2900 0 
L 2900 538 
Q 2691 219 2414 64 
Q 2138 -91 1772 -91 
Q 1169 -91 856 284 
Q 544 659 544 1381 
z
M 1991 3584 
L 1991 3584 
z
" transform="scale(0.015625)"/>
        <path id="DejaVuSans-73" d="M 2834 3397 
L 2834 2853 
Q 2591 2978 2328 3040 
Q 2066 3103 1784 3103 
Q 1356 3103 1142 2972 
Q 928 2841 928 2578 
Q 928 2378 1081 2264 
Q 1234 2150 1697 2047 
L 1894 2003 
Q 2506 1872 2764 1633 
Q 3022 1394 3022 966 
Q 3022 478 2636 193 
Q 2250 -91 1575 -91 
Q 1294 -91 989 -36 
Q 684 19 347 128 
L 347 722 
Q 666 556 975 473 
Q 1284 391 1588 391 
Q 1994 391 2212 530 
Q 2431 669 2431 922 
Q 2431 1156 2273 1281 
Q 2116 1406 1581 1522 
L 1381 1569 
Q 847 1681 609 1914 
Q 372 2147 372 2553 
Q 372 3047 722 3315 
Q 1072 3584 1716 3584 
Q 2034 3584 2315 3537 
Q 2597 3491 2834 3397 
z
" transform="scale(0.015625)"/>
       </defs>
       <use xlink:href="#DejaVuSans-47"/>
       <use xlink:href="#DejaVuSans-61" x="77.490234"/>
       <use xlink:href="#DejaVuSans-75" x="138.769531"/>
       <use xlink:href="#DejaVuSans-73" x="202.148438"/>
       <use xlink:href="#DejaVuSans-73" x="254.248047"/>
       <use xlink:href="#DejaVuSans-69" x="306.347656"/>
       <use xlink:href="#DejaVuSans-61" x="334.130859"/>
       <use xlink:href="#DejaVuSans-6e" x="395.410156"/>
      </g>
     </g>
    </g>
    <g id="xtick_4">
     <g id="text_4">
      <!-- Gaussian (AF2) -->
      <g style="fill: #262626" transform="translate(314.668248 686.560879) rotate(-45) scale(0.2 -0.2)">
       <defs>
        <path id="DejaVuSans-20" transform="scale(0.015625)"/>
        <path id="DejaVuSans-28" d="M 1984 4856 
Q 1566 4138 1362 3434 
Q 1159 2731 1159 2009 
Q 1159 1288 1364 580 
Q 1569 -128 1984 -844 
L 1484 -844 
Q 1016 -109 783 600 
Q 550 1309 550 2009 
Q 550 2706 781 3412 
Q 1013 4119 1484 4856 
L 1984 4856 
z
" transform="scale(0.015625)"/>
        <path id="DejaVuSans-46" d="M 628 4666 
L 3309 4666 
L 3309 4134 
L 1259 4134 
L 1259 2759 
L 3109 2759 
L 3109 2228 
L 1259 2228 
L 1259 0 
L 628 0 
L 628 4666 
z
" transform="scale(0.015625)"/>
        <path id="DejaVuSans-32" d="M 1228 531 
L 3431 531 
L 3431 0 
L 469 0 
L 469 531 
Q 828 903 1448 1529 
Q 2069 2156 2228 2338 
Q 2531 2678 2651 2914 
Q 2772 3150 2772 3378 
Q 2772 3750 2511 3984 
Q 2250 4219 1831 4219 
Q 1534 4219 1204 4116 
Q 875 4013 500 3803 
L 500 4441 
Q 881 4594 1212 4672 
Q 1544 4750 1819 4750 
Q 2544 4750 2975 4387 
Q 3406 4025 3406 3419 
Q 3406 3131 3298 2873 
Q 3191 2616 2906 2266 
Q 2828 2175 2409 1742 
Q 1991 1309 1228 531 
z
" transform="scale(0.015625)"/>
        <path id="DejaVuSans-29" d="M 513 4856 
L 1013 4856 
Q 1481 4119 1714 3412 
Q 1947 2706 1947 2009 
Q 1947 1309 1714 600 
Q 1481 -109 1013 -844 
L 513 -844 
Q 928 -128 1133 580 
Q 1338 1288 1338 2009 
Q 1338 2731 1133 3434 
Q 928 4138 513 4856 
z
" transform="scale(0.015625)"/>
       </defs>
       <use xlink:href="#DejaVuSans-47"/>
       <use xlink:href="#DejaVuSans-61" x="77.490234"/>
       <use xlink:href="#DejaVuSans-75" x="138.769531"/>
       <use xlink:href="#DejaVuSans-73" x="202.148438"/>
       <use xlink:href="#DejaVuSans-73" x="254.248047"/>
       <use xlink:href="#DejaVuSans-69" x="306.347656"/>
       <use xlink:href="#DejaVuSans-61" x="334.130859"/>
       <use xlink:href="#DejaVuSans-6e" x="395.410156"/>
       <use xlink:href="#DejaVuSans-20" x="458.789062"/>
       <use xlink:href="#DejaVuSans-28" x="490.576172"/>
       <use xlink:href="#DejaVuSans-41" x="529.589844"/>
       <use xlink:href="#DejaVuSans-46" x="597.998047"/>
       <use xlink:href="#DejaVuSans-32" x="655.517578"/>
       <use xlink:href="#DejaVuSans-29" x="719.140625"/>
      </g>
     </g>
    </g>
    <g id="xtick_5">
     <g id="text_5">
      <!-- 1 PC -->
      <g style="fill: #262626" transform="translate(487.638378 611.240749) rotate(-45) scale(0.2 -0.2)">
       <defs>
        <path id="DejaVuSans-31" d="M 794 531 
L 1825 531 
L 1825 4091 
L 703 3866 
L 703 4441 
L 1819 4666 
L 2450 4666 
L 2450 531 
L 3481 531 
L 3481 0 
L 794 0 
L 794 531 
z
" transform="scale(0.015625)"/>
        <path id="DejaVuSans-50" d="M 1259 4147 
L 1259 2394 
L 2053 2394 
Q 2494 2394 2734 2622 
Q 2975 2850 2975 3272 
Q 2975 3691 2734 3919 
Q 2494 4147 2053 4147 
L 1259 4147 
z
M 628 4666 
L 2053 4666 
Q 2838 4666 3239 4311 
Q 3641 3956 3641 3272 
Q 3641 2581 3239 2228 
Q 2838 1875 2053 1875 
L 1259 1875 
L 1259 0 
L 628 0 
L 628 4666 
z
" transform="scale(0.015625)"/>
        <path id="DejaVuSans-43" d="M 4122 4306 
L 4122 3641 
Q 3803 3938 3442 4084 
Q 3081 4231 2675 4231 
Q 1875 4231 1450 3742 
Q 1025 3253 1025 2328 
Q 1025 1406 1450 917 
Q 1875 428 2675 428 
Q 3081 428 3442 575 
Q 3803 722 4122 1019 
L 4122 359 
Q 3791 134 3420 21 
Q 3050 -91 2638 -91 
Q 1578 -91 968 557 
Q 359 1206 359 2328 
Q 359 3453 968 4101 
Q 1578 4750 2638 4750 
Q 3056 4750 3426 4639 
Q 3797 4528 4122 4306 
z
" transform="scale(0.015625)"/>
       </defs>
       <use xlink:href="#DejaVuSans-31"/>
       <use xlink:href="#DejaVuSans-20" x="63.623047"/>
       <use xlink:href="#DejaVuSans-50" x="95.410156"/>
       <use xlink:href="#DejaVuSans-43" x="155.712891"/>
      </g>
     </g>
    </g>
    <g id="xtick_6">
     <g id="text_6">
      <!-- 1 PC (AF2) -->
      <g style="fill: #262626" transform="translate(542.952569 653.576557) rotate(-45) scale(0.2 -0.2)">
       <use xlink:href="#DejaVuSans-31"/>
       <use xlink:href="#DejaVuSans-20" x="63.623047"/>
       <use xlink:href="#DejaVuSans-50" x="95.410156"/>
       <use xlink:href="#DejaVuSans-43" x="155.712891"/>
       <use xlink:href="#DejaVuSans-20" x="225.537109"/>
       <use xlink:href="#DejaVuSans-28" x="257.324219"/>
       <use xlink:href="#DejaVuSans-41" x="296.337891"/>
       <use xlink:href="#DejaVuSans-46" x="364.746094"/>
       <use xlink:href="#DejaVuSans-32" x="422.265625"/>
       <use xlink:href="#DejaVuSans-29" x="485.888672"/>
      </g>
     </g>
    </g>
    <g id="xtick_7">
     <g id="text_7">
      <!-- 2 PC -->
      <g style="fill: #262626" transform="translate(682.938378 611.240749) rotate(-45) scale(0.2 -0.2)">
       <use xlink:href="#DejaVuSans-32"/>
       <use xlink:href="#DejaVuSans-20" x="63.623047"/>
       <use xlink:href="#DejaVuSans-50" x="95.410156"/>
       <use xlink:href="#DejaVuSans-43" x="155.712891"/>
      </g>
     </g>
    </g>
    <g id="xtick_8">
     <g id="text_8">
      <!-- 2 PC (AF2) -->
      <g style="fill: #262626" transform="translate(738.252569 653.576557) rotate(-45) scale(0.2 -0.2)">
       <use xlink:href="#DejaVuSans-32"/>
       <use xlink:href="#DejaVuSans-20" x="63.623047"/>
       <use xlink:href="#DejaVuSans-50" x="95.410156"/>
       <use xlink:href="#DejaVuSans-43" x="155.712891"/>
       <use xlink:href="#DejaVuSans-20" x="225.537109"/>
       <use xlink:href="#DejaVuSans-28" x="257.324219"/>
       <use xlink:href="#DejaVuSans-41" x="296.337891"/>
       <use xlink:href="#DejaVuSans-46" x="364.746094"/>
       <use xlink:href="#DejaVuSans-32" x="422.265625"/>
       <use xlink:href="#DejaVuSans-29" x="485.888672"/>
      </g>
     </g>
    </g>
   </g>
   <g id="matplotlib.axis_2">
    <g id="ytick_1">
     <g id="line2d_1">
      <path d="M 69.3625 513.825428 
L 850.5625 513.825428 
" clip-path="url(#p9a4e86150a)" style="fill: none; stroke: #cccccc; stroke-width: 0.8; stroke-linecap: round"/>
     </g>
     <g id="text_9">
      <!-- 0.0 -->
      <g style="fill: #262626" transform="translate(30.55625 521.423865) scale(0.2 -0.2)">
       <defs>
        <path id="DejaVuSans-30" d="M 2034 4250 
Q 1547 4250 1301 3770 
Q 1056 3291 1056 2328 
Q 1056 1369 1301 889 
Q 1547 409 2034 409 
Q 2525 409 2770 889 
Q 3016 1369 3016 2328 
Q 3016 3291 2770 3770 
Q 2525 4250 2034 4250 
z
M 2034 4750 
Q 2819 4750 3233 4129 
Q 3647 3509 3647 2328 
Q 3647 1150 3233 529 
Q 2819 -91 2034 -91 
Q 1250 -91 836 529 
Q 422 1150 422 2328 
Q 422 3509 836 4129 
Q 1250 4750 2034 4750 
z
" transform="scale(0.015625)"/>
        <path id="DejaVuSans-2e" d="M 684 794 
L 1344 794 
L 1344 0 
L 684 0 
L 684 794 
z
" transform="scale(0.015625)"/>
       </defs>
       <use xlink:href="#DejaVuSans-30"/>
       <use xlink:href="#DejaVuSans-2e" x="63.623047"/>
       <use xlink:href="#DejaVuSans-30" x="95.410156"/>
      </g>
     </g>
    </g>
    <g id="ytick_2">
     <g id="line2d_2">
      <path d="M 69.3625 427.641271 
L 850.5625 427.641271 
" clip-path="url(#p9a4e86150a)" style="fill: none; stroke: #cccccc; stroke-width: 0.8; stroke-linecap: round"/>
     </g>
     <g id="text_10">
      <!-- 0.2 -->
      <g style="fill: #262626" transform="translate(30.55625 435.239709) scale(0.2 -0.2)">
       <use xlink:href="#DejaVuSans-30"/>
       <use xlink:href="#DejaVuSans-2e" x="63.623047"/>
       <use xlink:href="#DejaVuSans-32" x="95.410156"/>
      </g>
     </g>
    </g>
    <g id="ytick_3">
     <g id="line2d_3">
      <path d="M 69.3625 341.457114 
L 850.5625 341.457114 
" clip-path="url(#p9a4e86150a)" style="fill: none; stroke: #cccccc; stroke-width: 0.8; stroke-linecap: round"/>
     </g>
     <g id="text_11">
      <!-- 0.4 -->
      <g style="fill: #262626" transform="translate(30.55625 349.055552) scale(0.2 -0.2)">
       <defs>
        <path id="DejaVuSans-34" d="M 2419 4116 
L 825 1625 
L 2419 1625 
L 2419 4116 
z
M 2253 4666 
L 3047 4666 
L 3047 1625 
L 3713 1625 
L 3713 1100 
L 3047 1100 
L 3047 0 
L 2419 0 
L 2419 1100 
L 313 1100 
L 313 1709 
L 2253 4666 
z
" transform="scale(0.015625)"/>
       </defs>
       <use xlink:href="#DejaVuSans-30"/>
       <use xlink:href="#DejaVuSans-2e" x="63.623047"/>
       <use xlink:href="#DejaVuSans-34" x="95.410156"/>
      </g>
     </g>
    </g>
    <g id="ytick_4">
     <g id="line2d_4">
      <path d="M 69.3625 255.272957 
L 850.5625 255.272957 
" clip-path="url(#p9a4e86150a)" style="fill: none; stroke: #cccccc; stroke-width: 0.8; stroke-linecap: round"/>
     </g>
     <g id="text_12">
      <!-- 0.6 -->
      <g style="fill: #262626" transform="translate(30.55625 262.871395) scale(0.2 -0.2)">
       <defs>
        <path id="DejaVuSans-36" d="M 2113 2584 
Q 1688 2584 1439 2293 
Q 1191 2003 1191 1497 
Q 1191 994 1439 701 
Q 1688 409 2113 409 
Q 2538 409 2786 701 
Q 3034 994 3034 1497 
Q 3034 2003 2786 2293 
Q 2538 2584 2113 2584 
z
M 3366 4563 
L 3366 3988 
Q 3128 4100 2886 4159 
Q 2644 4219 2406 4219 
Q 1781 4219 1451 3797 
Q 1122 3375 1075 2522 
Q 1259 2794 1537 2939 
Q 1816 3084 2150 3084 
Q 2853 3084 3261 2657 
Q 3669 2231 3669 1497 
Q 3669 778 3244 343 
Q 2819 -91 2113 -91 
Q 1303 -91 875 529 
Q 447 1150 447 2328 
Q 447 3434 972 4092 
Q 1497 4750 2381 4750 
Q 2619 4750 2861 4703 
Q 3103 4656 3366 4563 
z
" transform="scale(0.015625)"/>
       </defs>
       <use xlink:href="#DejaVuSans-30"/>
       <use xlink:href="#DejaVuSans-2e" x="63.623047"/>
       <use xlink:href="#DejaVuSans-36" x="95.410156"/>
      </g>
     </g>
    </g>
    <g id="ytick_5">
     <g id="line2d_5">
      <path d="M 69.3625 169.088801 
L 850.5625 169.088801 
" clip-path="url(#p9a4e86150a)" style="fill: none; stroke: #cccccc; stroke-width: 0.8; stroke-linecap: round"/>
     </g>
     <g id="text_13">
      <!-- 0.8 -->
      <g style="fill: #262626" transform="translate(30.55625 176.687238) scale(0.2 -0.2)">
       <defs>
        <path id="DejaVuSans-38" d="M 2034 2216 
Q 1584 2216 1326 1975 
Q 1069 1734 1069 1313 
Q 1069 891 1326 650 
Q 1584 409 2034 409 
Q 2484 409 2743 651 
Q 3003 894 3003 1313 
Q 3003 1734 2745 1975 
Q 2488 2216 2034 2216 
z
M 1403 2484 
Q 997 2584 770 2862 
Q 544 3141 544 3541 
Q 544 4100 942 4425 
Q 1341 4750 2034 4750 
Q 2731 4750 3128 4425 
Q 3525 4100 3525 3541 
Q 3525 3141 3298 2862 
Q 3072 2584 2669 2484 
Q 3125 2378 3379 2068 
Q 3634 1759 3634 1313 
Q 3634 634 3220 271 
Q 2806 -91 2034 -91 
Q 1263 -91 848 271 
Q 434 634 434 1313 
Q 434 1759 690 2068 
Q 947 2378 1403 2484 
z
M 1172 3481 
Q 1172 3119 1398 2916 
Q 1625 2713 2034 2713 
Q 2441 2713 2670 2916 
Q 2900 3119 2900 3481 
Q 2900 3844 2670 4047 
Q 2441 4250 2034 4250 
Q 1625 4250 1398 4047 
Q 1172 3844 1172 3481 
z
" transform="scale(0.015625)"/>
       </defs>
       <use xlink:href="#DejaVuSans-30"/>
       <use xlink:href="#DejaVuSans-2e" x="63.623047"/>
       <use xlink:href="#DejaVuSans-38" x="95.410156"/>
      </g>
     </g>
    </g>
    <g id="ytick_6">
     <g id="line2d_6">
      <path d="M 69.3625 82.904644 
L 850.5625 82.904644 
" clip-path="url(#p9a4e86150a)" style="fill: none; stroke: #cccccc; stroke-width: 0.8; stroke-linecap: round"/>
     </g>
     <g id="text_14">
      <!-- 1.0 -->
      <g style="fill: #262626" transform="translate(30.55625 90.503081) scale(0.2 -0.2)">
       <use xlink:href="#DejaVuSans-31"/>
       <use xlink:href="#DejaVuSans-2e" x="63.623047"/>
       <use xlink:href="#DejaVuSans-30" x="95.410156"/>
      </g>
     </g>
    </g>
    <g id="text_15">
     <!-- TM-score -->
     <g style="fill: #262626" transform="translate(22.396875 329.609375) rotate(-90) scale(0.2 -0.2)">
      <defs>
       <path id="DejaVuSans-54" d="M -19 4666 
L 3928 4666 
L 3928 4134 
L 2272 4134 
L 2272 0 
L 1638 0 
L 1638 4134 
L -19 4134 
L -19 4666 
z
" transform="scale(0.015625)"/>
       <path id="DejaVuSans-2d" d="M 313 2009 
L 1997 2009 
L 1997 1497 
L 313 1497 
L 313 2009 
z
" transform="scale(0.015625)"/>
       <path id="DejaVuSans-63" d="M 3122 3366 
L 3122 2828 
Q 2878 2963 2633 3030 
Q 2388 3097 2138 3097 
Q 1578 3097 1268 2742 
Q 959 2388 959 1747 
Q 959 1106 1268 751 
Q 1578 397 2138 397 
Q 2388 397 2633 464 
Q 2878 531 3122 666 
L 3122 134 
Q 2881 22 2623 -34 
Q 2366 -91 2075 -91 
Q 1284 -91 818 406 
Q 353 903 353 1747 
Q 353 2603 823 3093 
Q 1294 3584 2113 3584 
Q 2378 3584 2631 3529 
Q 2884 3475 3122 3366 
z
" transform="scale(0.015625)"/>
       <path id="DejaVuSans-6f" d="M 1959 3097 
Q 1497 3097 1228 2736 
Q 959 2375 959 1747 
Q 959 1119 1226 758 
Q 1494 397 1959 397 
Q 2419 397 2687 759 
Q 2956 1122 2956 1747 
Q 2956 2369 2687 2733 
Q 2419 3097 1959 3097 
z
M 1959 3584 
Q 2709 3584 3137 3096 
Q 3566 2609 3566 1747 
Q 3566 888 3137 398 
Q 2709 -91 1959 -91 
Q 1206 -91 779 398 
Q 353 888 353 1747 
Q 353 2609 779 3096 
Q 1206 3584 1959 3584 
z
" transform="scale(0.015625)"/>
       <path id="DejaVuSans-72" d="M 2631 2963 
Q 2534 3019 2420 3045 
Q 2306 3072 2169 3072 
Q 1681 3072 1420 2755 
Q 1159 2438 1159 1844 
L 1159 0 
L 581 0 
L 581 3500 
L 1159 3500 
L 1159 2956 
Q 1341 3275 1631 3429 
Q 1922 3584 2338 3584 
Q 2397 3584 2469 3576 
Q 2541 3569 2628 3553 
L 2631 2963 
z
" transform="scale(0.015625)"/>
      </defs>
      <use xlink:href="#DejaVuSans-54"/>
      <use xlink:href="#DejaVuSans-4d" x="61.083984"/>
      <use xlink:href="#DejaVuSans-2d" x="147.363281"/>
      <use xlink:href="#DejaVuSans-73" x="183.447266"/>
      <use xlink:href="#DejaVuSans-63" x="235.546875"/>
      <use xlink:href="#DejaVuSans-6f" x="290.527344"/>
      <use xlink:href="#DejaVuSans-72" x="351.708984"/>
      <use xlink:href="#DejaVuSans-65" x="390.572266"/>
     </g>
    </g>
   </g>
   <g id="PolyCollection_1">
    <defs>
     <path id="m0193978387" d="M 118.331919 -244.453793 
L 118.043081 -244.453793 
L 117.993892 -248.6807 
L 117.933904 -252.907607 
L 117.862948 -257.134514 
L 117.781665 -261.36142 
L 117.69166 -265.588327 
L 117.595573 -269.815234 
L 117.497042 -274.042141 
L 117.400517 -278.269048 
L 117.310945 -282.495954 
L 117.233334 -286.722861 
L 117.172246 -290.949768 
L 117.131276 -295.176675 
L 117.112582 -299.403582 
L 117.11653 -303.630488 
L 117.141504 -307.857395 
L 117.183897 -312.084302 
L 117.238289 -316.311209 
L 117.297777 -320.538116 
L 117.354419 -324.765022 
L 117.399748 -328.991929 
L 117.425303 -333.218836 
L 117.423155 -337.445743 
L 117.386403 -341.67265 
L 117.309625 -345.899556 
L 117.189289 -350.126463 
L 117.024095 -354.35337 
L 116.815238 -358.580277 
L 116.566546 -362.807184 
L 116.284455 -367.034091 
L 115.97777 -371.260997 
L 115.657199 -375.487904 
L 115.334636 -379.714811 
L 115.02224 -383.941718 
L 114.731366 -388.168625 
L 114.471447 -392.395531 
L 114.248959 -396.622438 
L 114.066571 -400.849345 
L 113.922609 -405.076252 
L 113.810917 -409.303159 
L 113.721147 -413.530065 
L 113.639492 -417.756972 
L 113.549786 -421.983879 
L 113.434902 -426.210786 
L 113.278286 -430.437693 
L 113.065497 -434.664599 
L 112.785587 -438.891506 
L 112.432172 -443.118413 
L 112.004079 -447.34532 
L 111.505485 -451.572227 
L 110.945529 -455.799133 
L 110.337396 -460.02604 
L 109.696967 -464.252947 
L 109.041149 -468.479854 
L 108.386037 -472.706761 
L 107.745086 -476.933667 
L 107.127476 -481.160574 
L 106.536826 -485.387481 
L 105.97038 -489.614388 
L 105.418741 -493.841295 
L 104.866156 -498.068201 
L 104.291326 -502.295108 
L 103.668648 -506.522015 
L 102.969806 -510.748922 
L 102.165618 -514.975829 
L 101.228072 -519.202735 
L 100.132532 -523.429642 
L 98.860086 -527.656549 
L 97.400016 -531.883456 
L 95.752306 -536.110363 
L 93.930046 -540.337269 
L 91.961459 -544.564176 
L 89.891213 -548.791083 
L 87.780633 -553.01799 
L 85.706433 -557.244897 
L 83.757729 -561.471803 
L 82.031276 -565.69871 
L 80.625125 -569.925617 
L 79.631199 -574.152524 
L 79.1275 -578.379431 
L 79.170816 -582.606337 
L 79.790853 -586.833244 
L 80.986556 -591.060151 
L 82.725178 -595.287058 
L 84.944285 -599.513965 
L 87.556517 -603.740871 
L 90.456565 -607.967778 
L 93.529536 -612.194685 
L 96.65974 -616.421592 
L 99.738941 -620.648499 
L 102.6732 -624.875405 
L 105.387756 -629.102312 
L 107.829625 -633.329219 
L 109.967954 -637.556126 
L 111.792419 -641.783033 
L 113.310156 -646.00994 
L 114.541783 -650.236846 
L 115.51713 -654.463753 
L 116.271128 -658.69066 
L 116.840266 -662.917567 
L 119.534734 -662.917567 
L 119.534734 -662.917567 
L 120.103872 -658.69066 
L 120.85787 -654.463753 
L 121.833217 -650.236846 
L 123.064844 -646.00994 
L 124.582581 -641.783033 
L 126.407046 -637.556126 
L 128.545375 -633.329219 
L 130.987244 -629.102312 
L 133.7018 -624.875405 
L 136.636059 -620.648499 
L 139.71526 -616.421592 
L 142.845464 -612.194685 
L 145.918435 -607.967778 
L 148.818483 -603.740871 
L 151.430715 -599.513965 
L 153.649822 -595.287058 
L 155.388444 -591.060151 
L 156.584147 -586.833244 
L 157.204184 -582.606337 
L 157.2475 -578.379431 
L 156.743801 -574.152524 
L 155.749875 -569.925617 
L 154.343724 -565.69871 
L 152.617271 -561.471803 
L 150.668567 -557.244897 
L 148.594367 -553.01799 
L 146.483787 -548.791083 
L 144.413541 -544.564176 
L 142.444954 -540.337269 
L 140.622694 -536.110363 
L 138.974984 -531.883456 
L 137.514914 -527.656549 
L 136.242468 -523.429642 
L 135.146928 -519.202735 
L 134.209382 -514.975829 
L 133.405194 -510.748922 
L 132.706352 -506.522015 
L 132.083674 -502.295108 
L 131.508844 -498.068201 
L 130.956259 -493.841295 
L 130.40462 -489.614388 
L 129.838174 -485.387481 
L 129.247524 -481.160574 
L 128.629914 -476.933667 
L 127.988963 -472.706761 
L 127.333851 -468.479854 
L 126.678033 -464.252947 
L 126.037604 -460.02604 
L 125.429471 -455.799133 
L 124.869515 -451.572227 
L 124.370921 -447.34532 
L 123.942828 -443.118413 
L 123.589413 -438.891506 
L 123.309503 -434.664599 
L 123.096714 -430.437693 
L 122.940098 -426.210786 
L 122.825214 -421.983879 
L 122.735508 -417.756972 
L 122.653853 -413.530065 
L 122.564083 -409.303159 
L 122.452391 -405.076252 
L 122.308429 -400.849345 
L 122.126041 -396.622438 
L 121.903553 -392.395531 
L 121.643634 -388.168625 
L 121.35276 -383.941718 
L 121.040364 -379.714811 
L 120.717801 -375.487904 
L 120.39723 -371.260997 
L 120.090545 -367.034091 
L 119.808454 -362.807184 
L 119.559762 -358.580277 
L 119.350905 -354.35337 
L 119.185711 -350.126463 
L 119.065375 -345.899556 
L 118.988597 -341.67265 
L 118.951845 -337.445743 
L 118.949697 -333.218836 
L 118.975252 -328.991929 
L 119.020581 -324.765022 
L 119.077223 -320.538116 
L 119.136711 -316.311209 
L 119.191103 -312.084302 
L 119.233496 -307.857395 
L 119.25847 -303.630488 
L 119.262418 -299.403582 
L 119.243724 -295.176675 
L 119.202754 -290.949768 
L 119.141666 -286.722861 
L 119.064055 -282.495954 
L 118.974483 -278.269048 
L 118.877958 -274.042141 
L 118.779427 -269.815234 
L 118.68334 -265.588327 
L 118.593335 -261.36142 
L 118.512052 -257.134514 
L 118.441096 -252.907607 
L 118.381108 -248.6807 
L 118.331919 -244.453793 
z
" style="stroke: #3d3d3d; stroke-opacity: 0.5"/>
    </defs>
    <g clip-path="url(#p9a4e86150a)">
     <use xlink:href="#m0193978387" x="0" y="696.702001" style="fill: #d684bd; fill-opacity: 0.5; stroke: #3d3d3d; stroke-opacity: 0.5"/>
    </g>
   </g>
   <g id="PolyCollection_2">
    <defs>
     <path id="m449101d181" d="M 216.629895 -194.997415 
L 215.045105 -194.997415 
L 214.769131 -198.933668 
L 214.416232 -202.869921 
L 213.971761 -206.806173 
L 213.420398 -210.742426 
L 212.746763 -214.678679 
L 211.936185 -218.614932 
L 210.9756 -222.551184 
L 209.854524 -226.487437 
L 208.566048 -230.42369 
L 207.107767 -234.359943 
L 205.482575 -238.296195 
L 203.699227 -242.232448 
L 201.772624 -246.168701 
L 199.72375 -250.104953 
L 197.579259 -254.041206 
L 195.370722 -257.977459 
L 193.133582 -261.913712 
L 190.905885 -265.849964 
L 188.726901 -269.786217 
L 186.635724 -273.72247 
L 184.669953 -277.658723 
L 182.864546 -281.594975 
L 181.250892 -285.531228 
L 179.85613 -289.467481 
L 178.702711 -293.403734 
L 177.808153 -297.339986 
L 177.184952 -301.276239 
L 176.840577 -305.212492 
L 176.7775 -309.148745 
L 176.993229 -313.084997 
L 177.480328 -317.02125 
L 178.226444 -320.957503 
L 179.214378 -324.893756 
L 180.422256 -328.830008 
L 181.823855 -332.766261 
L 183.389129 -336.702514 
L 185.084973 -340.638766 
L 186.876201 -344.575019 
L 188.726725 -348.511272 
L 190.60086 -352.447525 
L 192.464651 -356.383777 
L 194.287149 -360.32003 
L 196.041509 -364.256283 
L 197.705832 -368.192536 
L 199.263689 -372.128788 
L 200.704285 -376.065041 
L 202.022276 -380.001294 
L 203.21727 -383.937547 
L 204.293064 -387.873799 
L 205.256713 -391.810052 
L 206.117499 -395.746305 
L 206.885909 -399.682558 
L 207.572679 -403.61881 
L 208.187969 -407.555063 
L 208.740723 -411.491316 
L 209.238205 -415.427569 
L 209.685755 -419.363821 
L 210.086706 -423.300074 
L 210.442479 -427.236327 
L 210.752802 -431.172579 
L 211.016037 -435.108832 
L 211.229577 -439.045085 
L 211.390301 -442.981338 
L 211.495053 -446.91759 
L 211.54114 -450.853843 
L 211.52682 -454.790096 
L 211.451762 -458.726349 
L 211.317468 -462.662601 
L 211.127613 -466.598854 
L 210.888279 -470.535107 
L 210.608061 -474.47136 
L 210.297998 -478.407612 
L 209.971325 -482.343865 
L 209.643033 -486.280118 
L 209.32924 -490.216371 
L 209.046411 -494.152623 
L 208.81047 -498.088876 
L 208.63587 -502.025129 
L 208.534701 -505.961382 
L 208.515906 -509.897634 
L 208.584691 -513.833887 
L 208.742183 -517.77014 
L 208.985367 -521.706392 
L 209.307316 -525.642645 
L 209.697699 -529.578898 
L 210.143507 -533.515151 
L 210.629941 -537.451403 
L 211.141368 -541.387656 
L 211.662275 -545.323909 
L 212.178134 -549.260162 
L 212.676109 -553.196414 
L 213.145578 -557.132667 
L 213.578436 -561.06892 
L 213.969184 -565.005173 
L 214.314832 -568.941425 
L 214.614652 -572.877678 
L 214.869814 -576.813931 
L 215.082973 -580.750184 
L 215.257832 -584.686436 
L 216.417168 -584.686436 
L 216.417168 -584.686436 
L 216.592027 -580.750184 
L 216.805186 -576.813931 
L 217.060348 -572.877678 
L 217.360168 -568.941425 
L 217.705816 -565.005173 
L 218.096564 -561.06892 
L 218.529422 -557.132667 
L 218.998891 -553.196414 
L 219.496866 -549.260162 
L 220.012725 -545.323909 
L 220.533632 -541.387656 
L 221.045059 -537.451403 
L 221.531493 -533.515151 
L 221.977301 -529.578898 
L 222.367684 -525.642645 
L 222.689633 -521.706392 
L 222.932817 -517.77014 
L 223.090309 -513.833887 
L 223.159094 -509.897634 
L 223.140299 -505.961382 
L 223.03913 -502.025129 
L 222.86453 -498.088876 
L 222.628589 -494.152623 
L 222.34576 -490.216371 
L 222.031967 -486.280118 
L 221.703675 -482.343865 
L 221.377002 -478.407612 
L 221.066939 -474.47136 
L 220.786721 -470.535107 
L 220.547387 -466.598854 
L 220.357532 -462.662601 
L 220.223238 -458.726349 
L 220.14818 -454.790096 
L 220.13386 -450.853843 
L 220.179947 -446.91759 
L 220.284699 -442.981338 
L 220.445423 -439.045085 
L 220.658963 -435.108832 
L 220.922198 -431.172579 
L 221.232521 -427.236327 
L 221.588294 -423.300074 
L 221.989245 -419.363821 
L 222.436795 -415.427569 
L 222.934277 -411.491316 
L 223.487031 -407.555063 
L 224.102321 -403.61881 
L 224.789091 -399.682558 
L 225.557501 -395.746305 
L 226.418287 -391.810052 
L 227.381936 -387.873799 
L 228.45773 -383.937547 
L 229.652724 -380.001294 
L 230.970715 -376.065041 
L 232.411311 -372.128788 
L 233.969168 -368.192536 
L 235.633491 -364.256283 
L 237.387851 -360.32003 
L 239.210349 -356.383777 
L 241.07414 -352.447525 
L 242.948275 -348.511272 
L 244.798799 -344.575019 
L 246.590027 -340.638766 
L 248.285871 -336.702514 
L 249.851145 -332.766261 
L 251.252744 -328.830008 
L 252.460622 -324.893756 
L 253.448556 -320.957503 
L 254.194672 -317.02125 
L 254.681771 -313.084997 
L 254.8975 -309.148745 
L 254.834423 -305.212492 
L 254.490048 -301.276239 
L 253.866847 -297.339986 
L 252.972289 -293.403734 
L 251.81887 -289.467481 
L 250.424108 -285.531228 
L 248.810454 -281.594975 
L 247.005047 -277.658723 
L 245.039276 -273.72247 
L 242.948099 -269.786217 
L 240.769115 -265.849964 
L 238.541418 -261.913712 
L 236.304278 -257.977459 
L 234.095741 -254.041206 
L 231.95125 -250.104953 
L 229.902376 -246.168701 
L 227.975773 -242.232448 
L 226.192425 -238.296195 
L 224.567233 -234.359943 
L 223.108952 -230.42369 
L 221.820476 -226.487437 
L 220.6994 -222.551184 
L 219.738815 -218.614932 
L 218.928237 -214.678679 
L 218.254602 -210.742426 
L 217.703239 -206.806173 
L 217.258768 -202.869921 
L 216.905869 -198.933668 
L 216.629895 -194.997415 
z
" style="stroke: #3d3d3d; stroke-opacity: 0.5"/>
    </defs>
    <g clip-path="url(#p9a4e86150a)">
     <use xlink:href="#m449101d181" x="0" y="696.702001" style="fill: #7f7f7f; fill-opacity: 0.5; stroke: #3d3d3d; stroke-opacity: 0.5"/>
    </g>
   </g>
   <g id="PolyCollection_3">
    <defs>
     <path id="mb201e47978" d="M 313.88064 -493.879505 
L 313.09436 -493.879505 
L 312.970887 -495.162106 
L 312.81913 -496.444707 
L 312.63594 -497.727308 
L 312.418721 -499.009909 
L 312.165652 -500.29251 
L 311.87588 -501.575111 
L 311.549663 -502.857712 
L 311.188419 -504.140313 
L 310.7947 -505.422914 
L 310.372054 -506.705515 
L 309.924822 -507.988116 
L 309.457861 -509.270717 
L 308.976243 -510.553318 
L 308.484959 -511.835919 
L 307.988672 -513.11852 
L 307.491519 -514.40112 
L 306.997015 -515.683721 
L 306.508017 -516.966322 
L 306.026759 -518.248923 
L 305.554929 -519.531524 
L 305.093741 -520.814125 
L 304.643988 -522.096726 
L 304.206054 -523.379327 
L 303.779866 -524.661928 
L 303.364791 -525.944529 
L 302.959512 -527.22713 
L 302.561872 -528.509731 
L 302.16876 -529.792332 
L 301.776017 -531.074933 
L 301.378416 -532.357534 
L 300.969707 -533.640135 
L 300.542728 -534.922736 
L 300.089574 -536.205337 
L 299.601806 -537.487938 
L 299.070691 -538.770539 
L 298.48746 -540.05314 
L 297.84358 -541.335741 
L 297.131043 -542.618342 
L 296.342693 -543.900943 
L 295.472593 -545.183544 
L 294.516448 -546.466145 
L 293.472088 -547.748746 
L 292.339995 -549.031347 
L 291.123833 -550.313948 
L 289.830955 -551.596549 
L 288.472781 -552.87915 
L 287.064995 -554.161751 
L 285.627465 -555.444352 
L 284.183817 -556.726953 
L 282.760621 -558.009554 
L 281.386178 -559.292155 
L 280.088956 -560.574756 
L 278.89578 -561.857357 
L 277.829906 -563.139958 
L 276.909188 -564.422559 
L 276.144531 -565.70516 
L 275.53883 -566.987761 
L 275.08658 -568.270362 
L 274.77423 -569.552963 
L 274.581344 -570.835564 
L 274.48248 -572.118165 
L 274.449644 -573.400766 
L 274.455107 -574.683367 
L 274.474292 -575.965968 
L 274.488468 -577.248569 
L 274.486953 -578.53117 
L 274.468613 -579.813771 
L 274.442491 -581.096372 
L 274.4275 -582.378973 
L 274.451178 -583.661574 
L 274.547629 -584.944175 
L 274.754808 -586.226776 
L 275.111393 -587.509377 
L 275.653504 -588.791978 
L 276.411565 -590.074579 
L 277.407545 -591.35718 
L 278.652849 -592.639781 
L 280.146994 -593.922382 
L 281.877211 -595.204983 
L 283.818964 -596.487583 
L 285.937354 -597.770184 
L 288.189246 -599.052785 
L 290.52594 -600.335386 
L 292.896134 -601.617987 
L 295.248924 -602.900588 
L 297.536591 -604.183189 
L 299.716968 -605.46579 
L 301.755236 -606.748391 
L 303.625043 -608.030992 
L 305.308942 -609.313593 
L 306.798194 -610.596194 
L 308.092024 -611.878795 
L 309.196479 -613.161396 
L 310.12303 -614.443997 
L 310.887068 -615.726598 
L 311.506436 -617.009199 
L 312.00009 -618.2918 
L 312.386977 -619.574401 
L 312.685148 -620.857002 
L 314.289852 -620.857002 
L 314.289852 -620.857002 
L 314.588023 -619.574401 
L 314.97491 -618.2918 
L 315.468564 -617.009199 
L 316.087932 -615.726598 
L 316.85197 -614.443997 
L 317.778521 -613.161396 
L 318.882976 -611.878795 
L 320.176806 -610.596194 
L 321.666058 -609.313593 
L 323.349957 -608.030992 
L 325.219764 -606.748391 
L 327.258032 -605.46579 
L 329.438409 -604.183189 
L 331.726076 -602.900588 
L 334.078866 -601.617987 
L 336.44906 -600.335386 
L 338.785754 -599.052785 
L 341.037646 -597.770184 
L 343.156036 -596.487583 
L 345.097789 -595.204983 
L 346.828006 -593.922382 
L 348.322151 -592.639781 
L 349.567455 -591.35718 
L 350.563435 -590.074579 
L 351.321496 -588.791978 
L 351.863607 -587.509377 
L 352.220192 -586.226776 
L 352.427371 -584.944175 
L 352.523822 -583.661574 
L 352.5475 -582.378973 
L 352.532509 -581.096372 
L 352.506387 -579.813771 
L 352.488047 -578.53117 
L 352.486532 -577.248569 
L 352.500708 -575.965968 
L 352.519893 -574.683367 
L 352.525356 -573.400766 
L 352.49252 -572.118165 
L 352.393656 -570.835564 
L 352.20077 -569.552963 
L 351.88842 -568.270362 
L 351.43617 -566.987761 
L 350.830469 -565.70516 
L 350.065812 -564.422559 
L 349.145094 -563.139958 
L 348.07922 -561.857357 
L 346.886044 -560.574756 
L 345.588822 -559.292155 
L 344.214379 -558.009554 
L 342.791183 -556.726953 
L 341.347535 -555.444352 
L 339.910005 -554.161751 
L 338.502219 -552.87915 
L 337.144045 -551.596549 
L 335.851167 -550.313948 
L 334.635005 -549.031347 
L 333.502912 -547.748746 
L 332.458552 -546.466145 
L 331.502407 -545.183544 
L 330.632307 -543.900943 
L 329.843957 -542.618342 
L 329.13142 -541.335741 
L 328.48754 -540.05314 
L 327.904309 -538.770539 
L 327.373194 -537.487938 
L 326.885426 -536.205337 
L 326.432272 -534.922736 
L 326.005293 -533.640135 
L 325.596584 -532.357534 
L 325.198983 -531.074933 
L 324.80624 -529.792332 
L 324.413128 -528.509731 
L 324.015488 -527.22713 
L 323.610209 -525.944529 
L 323.195134 -524.661928 
L 322.768946 -523.379327 
L 322.331012 -522.096726 
L 321.881259 -520.814125 
L 321.420071 -519.531524 
L 320.948241 -518.248923 
L 320.466983 -516.966322 
L 319.977985 -515.683721 
L 319.483481 -514.40112 
L 318.986328 -513.11852 
L 318.490041 -511.835919 
L 317.998757 -510.553318 
L 317.517139 -509.270717 
L 317.050178 -507.988116 
L 316.602946 -506.705515 
L 316.1803 -505.422914 
L 315.786581 -504.140313 
L 315.425337 -502.857712 
L 315.09912 -501.575111 
L 314.809348 -500.29251 
L 314.556279 -499.009909 
L 314.33906 -497.727308 
L 314.15587 -496.444707 
L 314.004113 -495.162106 
L 313.88064 -493.879505 
z
" style="stroke: #3d3d3d; stroke-opacity: 0.5"/>
    </defs>
    <g clip-path="url(#p9a4e86150a)">
     <use xlink:href="#mb201e47978" x="0" y="696.702001" style="fill: #9372b2; fill-opacity: 0.5; stroke: #3d3d3d; stroke-opacity: 0.5"/>
    </g>
   </g>
   <g id="PolyCollection_4">
    <defs>
     <path id="m69d114fc76" d="M 411.290871 -466.701082 
L 410.984129 -466.701082 
L 410.934654 -468.384675 
L 410.874795 -470.068267 
L 410.804337 -471.75186 
L 410.723747 -473.435453 
L 410.634303 -475.119045 
L 410.538161 -476.802638 
L 410.438328 -478.486231 
L 410.33853 -480.169823 
L 410.242952 -481.853416 
L 410.155881 -483.537009 
L 410.081255 -485.220601 
L 410.022186 -486.904194 
L 409.980477 -488.587787 
L 409.956213 -490.271379 
L 409.947467 -491.954972 
L 409.950154 -493.638565 
L 409.958069 -495.322157 
L 409.963098 -497.00575 
L 409.955614 -498.689343 
L 409.925009 -500.372935 
L 409.860352 -502.056528 
L 409.751109 -503.740121 
L 409.587911 -505.423713 
L 409.363302 -507.107306 
L 409.072426 -508.790899 
L 408.713609 -510.474491 
L 408.288779 -512.158084 
L 407.80367 -513.841677 
L 407.267784 -515.525269 
L 406.694069 -517.208862 
L 406.098316 -518.892454 
L 405.498305 -520.576047 
L 404.91273 -522.25964 
L 404.360003 -523.943232 
L 403.857007 -525.626825 
L 403.417912 -527.310418 
L 403.05314 -528.99401 
L 402.768569 -530.677603 
L 402.565025 -532.361196 
L 402.438118 -534.044788 
L 402.378414 -535.728381 
L 402.37194 -537.411974 
L 402.401002 -539.095566 
L 402.445237 -540.779159 
L 402.482872 -542.462752 
L 402.492069 -544.146344 
L 402.452297 -545.829937 
L 402.345598 -547.51353 
L 402.157653 -549.197122 
L 401.878522 -550.880715 
L 401.502987 -552.564308 
L 401.030406 -554.2479 
L 400.464088 -555.931493 
L 399.810197 -557.615086 
L 399.076323 -559.298678 
L 398.269852 -560.982271 
L 397.396376 -562.665864 
L 396.458359 -564.349456 
L 395.454321 -566.033049 
L 394.378697 -567.716642 
L 393.222506 -569.400234 
L 391.974836 -571.083827 
L 390.625022 -572.76742 
L 389.165323 -574.451012 
L 387.593763 -576.134605 
L 385.9168 -577.818198 
L 384.151453 -579.50179 
L 382.326568 -581.185383 
L 380.483006 -582.868976 
L 378.672643 -584.552568 
L 376.956206 -586.236161 
L 375.400102 -587.919754 
L 374.072495 -589.603346 
L 373.038968 -591.286939 
L 372.358124 -592.970532 
L 372.0775 -594.654124 
L 372.230117 -596.337717 
L 372.831932 -598.02131 
L 373.880393 -599.704902 
L 375.354203 -601.388495 
L 377.214317 -603.072088 
L 379.406096 -604.75568 
L 381.862469 -606.439273 
L 384.50786 -608.122866 
L 387.262579 -609.806458 
L 390.047331 -611.490051 
L 392.787495 -613.173644 
L 395.41684 -614.857236 
L 397.880395 -616.540829 
L 400.136312 -618.224422 
L 402.156632 -619.908014 
L 403.927001 -621.591607 
L 405.445473 -623.2752 
L 406.72062 -624.958792 
L 407.769207 -626.642385 
L 408.613703 -628.325978 
L 409.279868 -630.00957 
L 409.794603 -631.693163 
L 410.184209 -633.376756 
L 412.090791 -633.376756 
L 412.090791 -633.376756 
L 412.480397 -631.693163 
L 412.995132 -630.00957 
L 413.661297 -628.325978 
L 414.505793 -626.642385 
L 415.55438 -624.958792 
L 416.829527 -623.2752 
L 418.347999 -621.591607 
L 420.118368 -619.908014 
L 422.138688 -618.224422 
L 424.394605 -616.540829 
L 426.85816 -614.857236 
L 429.487505 -613.173644 
L 432.227669 -611.490051 
L 435.012421 -609.806458 
L 437.76714 -608.122866 
L 440.412531 -606.439273 
L 442.868904 -604.75568 
L 445.060683 -603.072088 
L 446.920797 -601.388495 
L 448.394607 -599.704902 
L 449.443068 -598.02131 
L 450.044883 -596.337717 
L 450.1975 -594.654124 
L 449.916876 -592.970532 
L 449.236032 -591.286939 
L 448.202505 -589.603346 
L 446.874898 -587.919754 
L 445.318794 -586.236161 
L 443.602357 -584.552568 
L 441.791994 -582.868976 
L 439.948432 -581.185383 
L 438.123547 -579.50179 
L 436.3582 -577.818198 
L 434.681237 -576.134605 
L 433.109677 -574.451012 
L 431.649978 -572.76742 
L 430.300164 -571.083827 
L 429.052494 -569.400234 
L 427.896303 -567.716642 
L 426.820679 -566.033049 
L 425.816641 -564.349456 
L 424.878624 -562.665864 
L 424.005148 -560.982271 
L 423.198677 -559.298678 
L 422.464803 -557.615086 
L 421.810912 -555.931493 
L 421.244594 -554.2479 
L 420.772013 -552.564308 
L 420.396478 -550.880715 
L 420.117347 -549.197122 
L 419.929402 -547.51353 
L 419.822703 -545.829937 
L 419.782931 -544.146344 
L 419.792128 -542.462752 
L 419.829763 -540.779159 
L 419.873998 -539.095566 
L 419.90306 -537.411974 
L 419.896586 -535.728381 
L 419.836882 -534.044788 
L 419.709975 -532.361196 
L 419.506431 -530.677603 
L 419.22186 -528.99401 
L 418.857088 -527.310418 
L 418.417993 -525.626825 
L 417.914997 -523.943232 
L 417.36227 -522.25964 
L 416.776695 -520.576047 
L 416.176684 -518.892454 
L 415.580931 -517.208862 
L 415.007216 -515.525269 
L 414.47133 -513.841677 
L 413.986221 -512.158084 
L 413.561391 -510.474491 
L 413.202574 -508.790899 
L 412.911698 -507.107306 
L 412.687089 -505.423713 
L 412.523891 -503.740121 
L 412.414648 -502.056528 
L 412.349991 -500.372935 
L 412.319386 -498.689343 
L 412.311902 -497.00575 
L 412.316931 -495.322157 
L 412.324846 -493.638565 
L 412.327533 -491.954972 
L 412.318787 -490.271379 
L 412.294523 -488.587787 
L 412.252814 -486.904194 
L 412.193745 -485.220601 
L 412.119119 -483.537009 
L 412.032048 -481.853416 
L 411.93647 -480.169823 
L 411.836672 -478.486231 
L 411.736839 -476.802638 
L 411.640697 -475.119045 
L 411.551253 -473.435453 
L 411.470663 -471.75186 
L 411.400205 -470.068267 
L 411.340346 -468.384675 
L 411.290871 -466.701082 
z
" style="stroke: #3d3d3d; stroke-opacity: 0.5"/>
    </defs>
    <g clip-path="url(#p9a4e86150a)">
     <use xlink:href="#m69d114fc76" x="0" y="696.702001" style="fill: #845b53; fill-opacity: 0.5; stroke: #3d3d3d; stroke-opacity: 0.5"/>
    </g>
   </g>
   <g id="PolyCollection_5">
    <defs>
     <path id="m63cd408c14" d="M 509.20774 -231.661218 
L 508.36726 -231.661218 
L 508.178682 -233.292182 
L 507.923146 -234.923146 
L 507.584041 -236.55411 
L 507.14295 -238.185074 
L 506.580035 -239.816038 
L 505.87456 -241.447002 
L 505.005539 -243.077966 
L 503.952557 -244.70893 
L 502.696788 -246.339894 
L 501.222288 -247.970858 
L 499.517617 -249.601823 
L 497.577814 -251.232787 
L 495.406673 -252.863751 
L 493.019163 -254.494715 
L 490.443702 -256.125679 
L 487.723901 -257.756643 
L 484.9193 -259.387607 
L 482.104679 -261.018571 
L 479.367601 -262.649535 
L 476.804106 -264.280499 
L 474.512754 -265.911464 
L 472.587514 -267.542428 
L 471.110301 -269.173392 
L 470.144084 -270.804356 
L 469.7275 -272.43532 
L 469.871736 -274.066284 
L 470.560085 -275.697248 
L 471.750203 -277.328212 
L 473.378645 -278.959176 
L 475.366965 -280.59014 
L 477.62846 -282.221105 
L 480.074679 -283.852069 
L 482.620957 -285.483033 
L 485.190536 -287.113997 
L 487.717122 -288.744961 
L 490.146018 -290.375925 
L 492.434138 -292.006889 
L 494.549289 -293.637853 
L 496.469074 -295.268817 
L 498.179681 -296.899781 
L 499.674715 -298.530745 
L 500.954125 -300.16171 
L 502.023238 -301.792674 
L 502.891872 -303.423638 
L 503.573514 -305.054602 
L 504.08458 -306.685566 
L 504.443745 -308.31653 
L 504.671365 -309.947494 
L 504.788967 -311.578458 
L 504.818752 -313.209422 
L 504.783069 -314.840386 
L 504.703799 -316.471351 
L 504.60164 -318.102315 
L 504.495312 -319.733279 
L 504.400782 -321.364243 
L 504.330617 -322.995207 
L 504.29359 -324.626171 
L 504.294654 -326.257135 
L 504.335292 -327.888099 
L 504.414216 -329.519063 
L 504.528289 -331.150027 
L 504.673477 -332.780991 
L 504.845676 -334.411956 
L 505.04124 -336.04292 
L 505.257144 -337.673884 
L 505.490802 -339.304848 
L 505.739626 -340.935812 
L 506.00049 -342.566776 
L 506.269263 -344.19774 
L 506.540555 -345.828704 
L 506.807747 -347.459668 
L 507.063333 -349.090632 
L 507.299496 -350.721597 
L 507.508835 -352.352561 
L 507.685104 -353.983525 
L 507.823871 -355.614489 
L 507.923 -357.245453 
L 507.982912 -358.876417 
L 508.006604 -360.507381 
L 507.999434 -362.138345 
L 507.968692 -363.769309 
L 507.922992 -365.400273 
L 507.871543 -367.031237 
L 507.823348 -368.662202 
L 507.786425 -370.293166 
L 507.76712 -371.92413 
L 507.769601 -373.555094 
L 507.795599 -375.186058 
L 507.844429 -376.817022 
L 507.913271 -378.447986 
L 507.997689 -380.07895 
L 508.092275 -381.709914 
L 508.191338 -383.340878 
L 508.289536 -384.971843 
L 508.382363 -386.602807 
L 508.466458 -388.233771 
L 508.539719 -389.864735 
L 508.601242 -391.495699 
L 508.651136 -393.126663 
L 508.923864 -393.126663 
L 508.923864 -393.126663 
L 508.973758 -391.495699 
L 509.035281 -389.864735 
L 509.108542 -388.233771 
L 509.192637 -386.602807 
L 509.285464 -384.971843 
L 509.383662 -383.340878 
L 509.482725 -381.709914 
L 509.577311 -380.07895 
L 509.661729 -378.447986 
L 509.730571 -376.817022 
L 509.779401 -375.186058 
L 509.805399 -373.555094 
L 509.80788 -371.92413 
L 509.788575 -370.293166 
L 509.751652 -368.662202 
L 509.703457 -367.031237 
L 509.652008 -365.400273 
L 509.606308 -363.769309 
L 509.575566 -362.138345 
L 509.568396 -360.507381 
L 509.592088 -358.876417 
L 509.652 -357.245453 
L 509.751129 -355.614489 
L 509.889896 -353.983525 
L 510.066165 -352.352561 
L 510.275504 -350.721597 
L 510.511667 -349.090632 
L 510.767253 -347.459668 
L 511.034445 -345.828704 
L 511.305737 -344.19774 
L 511.57451 -342.566776 
L 511.835374 -340.935812 
L 512.084198 -339.304848 
L 512.317856 -337.673884 
L 512.53376 -336.04292 
L 512.729324 -334.411956 
L 512.901523 -332.780991 
L 513.046711 -331.150027 
L 513.160784 -329.519063 
L 513.239708 -327.888099 
L 513.280346 -326.257135 
L 513.28141 -324.626171 
L 513.244383 -322.995207 
L 513.174218 -321.364243 
L 513.079688 -319.733279 
L 512.97336 -318.102315 
L 512.871201 -316.471351 
L 512.791931 -314.840386 
L 512.756248 -313.209422 
L 512.786033 -311.578458 
L 512.903635 -309.947494 
L 513.131255 -308.31653 
L 513.49042 -306.685566 
L 514.001486 -305.054602 
L 514.683128 -303.423638 
L 515.551762 -301.792674 
L 516.620875 -300.16171 
L 517.900285 -298.530745 
L 519.395319 -296.899781 
L 521.105926 -295.268817 
L 523.025711 -293.637853 
L 525.140862 -292.006889 
L 527.428982 -290.375925 
L 529.857878 -288.744961 
L 532.384464 -287.113997 
L 534.954043 -285.483033 
L 537.500321 -283.852069 
L 539.94654 -282.221105 
L 542.208035 -280.59014 
L 544.196355 -278.959176 
L 545.824797 -277.328212 
L 547.014915 -275.697248 
L 547.703264 -274.066284 
L 547.8475 -272.43532 
L 547.430916 -270.804356 
L 546.464699 -269.173392 
L 544.987486 -267.542428 
L 543.062246 -265.911464 
L 540.770894 -264.280499 
L 538.207399 -262.649535 
L 535.470321 -261.018571 
L 532.6557 -259.387607 
L 529.851099 -257.756643 
L 527.131298 -256.125679 
L 524.555837 -254.494715 
L 522.168327 -252.863751 
L 519.997186 -251.232787 
L 518.057383 -249.601823 
L 516.352712 -247.970858 
L 514.878212 -246.339894 
L 513.622443 -244.70893 
L 512.569461 -243.077966 
L 511.70044 -241.447002 
L 510.994965 -239.816038 
L 510.43205 -238.185074 
L 509.990959 -236.55411 
L 509.651854 -234.923146 
L 509.396318 -233.292182 
L 509.20774 -231.661218 
z
" style="stroke: #3d3d3d; stroke-opacity: 0.5"/>
    </defs>
    <g clip-path="url(#p9a4e86150a)">
     <use xlink:href="#m63cd408c14" x="0" y="696.702001" style="fill: #3274a1; fill-opacity: 0.5; stroke: #3d3d3d; stroke-opacity: 0.5"/>
    </g>
   </g>
   <g id="PolyCollection_6">
    <defs>
     <path id="m4f268cd724" d="M 607.515155 -160.302001 
L 605.359845 -160.302001 
L 605.03408 -165.232118 
L 604.63446 -170.162236 
L 604.151908 -175.092353 
L 603.578319 -180.02247 
L 602.907134 -184.952587 
L 602.133915 -189.882704 
L 601.256845 -194.812821 
L 600.277088 -199.742938 
L 599.198979 -204.673056 
L 598.02997 -209.603173 
L 596.780334 -214.53329 
L 595.462616 -219.463407 
L 594.090882 -224.393524 
L 592.679806 -229.323641 
L 591.243719 -234.253759 
L 589.795684 -239.183876 
L 588.346736 -244.113993 
L 586.905362 -249.04411 
L 585.477294 -253.974227 
L 584.065662 -258.904344 
L 582.671476 -263.834461 
L 581.294405 -268.764579 
L 579.933765 -273.694696 
L 578.589592 -278.624813 
L 577.26369 -283.55493 
L 575.960526 -288.485047 
L 574.687874 -293.415164 
L 573.457133 -298.345281 
L 572.283302 -303.275399 
L 571.184592 -308.205516 
L 570.181732 -313.135633 
L 569.29703 -318.06575 
L 568.553266 -322.995867 
L 567.972497 -327.925984 
L 567.57487 -332.856101 
L 567.3775 -337.786219 
L 567.393475 -342.716336 
L 567.631034 -347.646453 
L 568.092939 -352.57657 
L 568.776083 -357.506687 
L 569.671321 -362.436804 
L 570.763557 -367.366921 
L 572.032072 -372.297039 
L 573.451092 -377.227156 
L 574.990584 -382.157273 
L 576.617247 -387.08739 
L 578.29565 -392.017507 
L 579.989487 -396.947624 
L 581.662856 -401.877741 
L 583.281529 -406.807859 
L 584.814119 -411.737976 
L 586.233109 -416.668093 
L 587.515681 -421.59821 
L 588.644313 -426.528327 
L 589.607139 -431.458444 
L 590.398053 -436.388561 
L 591.016591 -441.318679 
L 591.467605 -446.248796 
L 591.760768 -451.178913 
L 591.909951 -456.10903 
L 591.932524 -461.039147 
L 591.848602 -465.969264 
L 591.68029 -470.899382 
L 591.450942 -475.829499 
L 591.184469 -480.759616 
L 590.904684 -485.689733 
L 590.634717 -490.61985 
L 590.396462 -495.549967 
L 590.210084 -500.480084 
L 590.093556 -505.410202 
L 590.062231 -510.340319 
L 590.128458 -515.270436 
L 590.30124 -520.200553 
L 590.585973 -525.13067 
L 590.984263 -530.060787 
L 591.493865 -534.990904 
L 592.108773 -539.921022 
L 592.819444 -544.851139 
L 593.613207 -549.781256 
L 594.474801 -554.711373 
L 595.38706 -559.64149 
L 596.331675 -564.571607 
L 597.290005 -569.501724 
L 598.243885 -574.431842 
L 599.176361 -579.361959 
L 600.072335 -584.292076 
L 600.919054 -589.222193 
L 601.706436 -594.15231 
L 602.427234 -599.082427 
L 603.077012 -604.012544 
L 603.653993 -608.942662 
L 604.15877 -613.872779 
L 604.593945 -618.802896 
L 604.963706 -623.733013 
L 605.273399 -628.66313 
L 605.529102 -633.593247 
L 605.737253 -638.523364 
L 605.904317 -643.453482 
L 606.036531 -648.383599 
L 606.838469 -648.383599 
L 606.838469 -648.383599 
L 606.970683 -643.453482 
L 607.137747 -638.523364 
L 607.345898 -633.593247 
L 607.601601 -628.66313 
L 607.911294 -623.733013 
L 608.281055 -618.802896 
L 608.71623 -613.872779 
L 609.221007 -608.942662 
L 609.797988 -604.012544 
L 610.447766 -599.082427 
L 611.168564 -594.15231 
L 611.955946 -589.222193 
L 612.802665 -584.292076 
L 613.698639 -579.361959 
L 614.631115 -574.431842 
L 615.584995 -569.501724 
L 616.543325 -564.571607 
L 617.48794 -559.64149 
L 618.400199 -554.711373 
L 619.261793 -549.781256 
L 620.055556 -544.851139 
L 620.766227 -539.921022 
L 621.381135 -534.990904 
L 621.890737 -530.060787 
L 622.289027 -525.13067 
L 622.57376 -520.200553 
L 622.746542 -515.270436 
L 622.812769 -510.340319 
L 622.781444 -505.410202 
L 622.664916 -500.480084 
L 622.478538 -495.549967 
L 622.240283 -490.61985 
L 621.970316 -485.689733 
L 621.690531 -480.759616 
L 621.424058 -475.829499 
L 621.19471 -470.899382 
L 621.026398 -465.969264 
L 620.942476 -461.039147 
L 620.965049 -456.10903 
L 621.114232 -451.178913 
L 621.407395 -446.248796 
L 621.858409 -441.318679 
L 622.476947 -436.388561 
L 623.267861 -431.458444 
L 624.230687 -426.528327 
L 625.359319 -421.59821 
L 626.641891 -416.668093 
L 628.060881 -411.737976 
L 629.593471 -406.807859 
L 631.212144 -401.877741 
L 632.885513 -396.947624 
L 634.57935 -392.017507 
L 636.257753 -387.08739 
L 637.884416 -382.157273 
L 639.423908 -377.227156 
L 640.842928 -372.297039 
L 642.111443 -367.366921 
L 643.203679 -362.436804 
L 644.098917 -357.506687 
L 644.782061 -352.57657 
L 645.243966 -347.646453 
L 645.481525 -342.716336 
L 645.4975 -337.786219 
L 645.30013 -332.856101 
L 644.902503 -327.925984 
L 644.321734 -322.995867 
L 643.57797 -318.06575 
L 642.693268 -313.135633 
L 641.690408 -308.205516 
L 640.591698 -303.275399 
L 639.417867 -298.345281 
L 638.187126 -293.415164 
L 636.914474 -288.485047 
L 635.61131 -283.55493 
L 634.285408 -278.624813 
L 632.941235 -273.694696 
L 631.580595 -268.764579 
L 630.203524 -263.834461 
L 628.809338 -258.904344 
L 627.397706 -253.974227 
L 625.969638 -249.04411 
L 624.528264 -244.113993 
L 623.079316 -239.183876 
L 621.631281 -234.253759 
L 620.195194 -229.323641 
L 618.784118 -224.393524 
L 617.412384 -219.463407 
L 616.094666 -214.53329 
L 614.84503 -209.603173 
L 613.676021 -204.673056 
L 612.597912 -199.742938 
L 611.618155 -194.812821 
L 610.741085 -189.882704 
L 609.967866 -184.952587 
L 609.296681 -180.02247 
L 608.723092 -175.092353 
L 608.24054 -170.162236 
L 607.84092 -165.232118 
L 607.515155 -160.302001 
z
" style="stroke: #3d3d3d; stroke-opacity: 0.5"/>
    </defs>
    <g clip-path="url(#p9a4e86150a)">
     <use xlink:href="#m4f268cd724" x="0" y="696.702001" style="fill: #e1812c; fill-opacity: 0.5; stroke: #3d3d3d; stroke-opacity: 0.5"/>
    </g>
   </g>
   <g id="PolyCollection_7">
    <defs>
     <path id="m26d499dbb7" d="M 704.279179 -279.037034 
L 703.895821 -279.037034 
L 703.825964 -281.234057 
L 703.73827 -283.43108 
L 703.630863 -285.628104 
L 703.502422 -287.825127 
L 703.352299 -290.02215 
L 703.180558 -292.219174 
L 702.987897 -294.416197 
L 702.775454 -296.61322 
L 702.544528 -298.810244 
L 702.29626 -301.007267 
L 702.031345 -303.20429 
L 701.749841 -305.401313 
L 701.451138 -307.598337 
L 701.134106 -309.79536 
L 700.797394 -311.992383 
L 700.439806 -314.189407 
L 700.060665 -316.38643 
L 699.660024 -318.583453 
L 699.238656 -320.780477 
L 698.797757 -322.9775 
L 698.338408 -325.174523 
L 697.86088 -327.371547 
L 697.363948 -329.56857 
L 696.844383 -331.765593 
L 696.296788 -333.962617 
L 695.713844 -336.15964 
L 695.086979 -338.356663 
L 694.407349 -340.553686 
L 693.666947 -342.75071 
L 692.859626 -344.947733 
L 691.981847 -347.144756 
L 691.033011 -349.34178 
L 690.015348 -351.538803 
L 688.933396 -353.735826 
L 687.793224 -355.93285 
L 686.601531 -358.129873 
L 685.36478 -360.326896 
L 684.08851 -362.52392 
L 682.776879 -364.720943 
L 681.432536 -366.917966 
L 680.056859 -369.11499 
L 678.650615 -371.312013 
L 677.215083 -373.509036 
L 675.75364 -375.70606 
L 674.273702 -377.903083 
L 672.788821 -380.100106 
L 671.320593 -382.297129 
L 669.899929 -384.494153 
L 668.567265 -386.691176 
L 667.371345 -388.888199 
L 666.366427 -391.085223 
L 665.608045 -393.282246 
L 665.147749 -395.479269 
L 665.0275 -397.676293 
L 665.274543 -399.873316 
L 665.89757 -402.070339 
L 666.884814 -404.267363 
L 668.204426 -406.464386 
L 669.807124 -408.661409 
L 671.630744 -410.858433 
L 673.606019 -413.055456 
L 675.662772 -415.252479 
L 677.735669 -417.449502 
L 679.768818 -419.646526 
L 681.718738 -421.843549 
L 683.555494 -424.040572 
L 685.262118 -426.237596 
L 686.832663 -428.434619 
L 688.269399 -430.631642 
L 689.579724 -432.828666 
L 690.773315 -435.025689 
L 691.859917 -437.222712 
L 692.848001 -439.419736 
L 693.744322 -441.616759 
L 694.554244 -443.813782 
L 695.282583 -446.010806 
L 695.934635 -448.207829 
L 696.51709 -450.404852 
L 697.038577 -452.601875 
L 697.509706 -454.798899 
L 697.942567 -456.995922 
L 698.349808 -459.192945 
L 698.743444 -461.389969 
L 699.133643 -463.586992 
L 699.527704 -465.784015 
L 699.929394 -467.981039 
L 700.33877 -470.178062 
L 700.752478 -472.375085 
L 701.164463 -474.572109 
L 701.566973 -476.769132 
L 701.951664 -478.966155 
L 702.310665 -481.163179 
L 702.637443 -483.360202 
L 702.927394 -485.557225 
L 703.178109 -487.754249 
L 703.389348 -489.951272 
L 703.562774 -492.148295 
L 703.701523 -494.345318 
L 703.809706 -496.542342 
L 704.365294 -496.542342 
L 704.365294 -496.542342 
L 704.473477 -494.345318 
L 704.612226 -492.148295 
L 704.785652 -489.951272 
L 704.996891 -487.754249 
L 705.247606 -485.557225 
L 705.537557 -483.360202 
L 705.864335 -481.163179 
L 706.223336 -478.966155 
L 706.608027 -476.769132 
L 707.010537 -474.572109 
L 707.422522 -472.375085 
L 707.83623 -470.178062 
L 708.245606 -467.981039 
L 708.647296 -465.784015 
L 709.041357 -463.586992 
L 709.431556 -461.389969 
L 709.825192 -459.192945 
L 710.232433 -456.995922 
L 710.665294 -454.798899 
L 711.136423 -452.601875 
L 711.65791 -450.404852 
L 712.240365 -448.207829 
L 712.892417 -446.010806 
L 713.620756 -443.813782 
L 714.430678 -441.616759 
L 715.326999 -439.419736 
L 716.315083 -437.222712 
L 717.401685 -435.025689 
L 718.595276 -432.828666 
L 719.905601 -430.631642 
L 721.342337 -428.434619 
L 722.912882 -426.237596 
L 724.619506 -424.040572 
L 726.456262 -421.843549 
L 728.406182 -419.646526 
L 730.439331 -417.449502 
L 732.512228 -415.252479 
L 734.568981 -413.055456 
L 736.544256 -410.858433 
L 738.367876 -408.661409 
L 739.970574 -406.464386 
L 741.290186 -404.267363 
L 742.27743 -402.070339 
L 742.900457 -399.873316 
L 743.1475 -397.676293 
L 743.027251 -395.479269 
L 742.566955 -393.282246 
L 741.808573 -391.085223 
L 740.803655 -388.888199 
L 739.607735 -386.691176 
L 738.275071 -384.494153 
L 736.854407 -382.297129 
L 735.386179 -380.100106 
L 733.901298 -377.903083 
L 732.42136 -375.70606 
L 730.959917 -373.509036 
L 729.524385 -371.312013 
L 728.118141 -369.11499 
L 726.742464 -366.917966 
L 725.398121 -364.720943 
L 724.08649 -362.52392 
L 722.81022 -360.326896 
L 721.573469 -358.129873 
L 720.381776 -355.93285 
L 719.241604 -353.735826 
L 718.159652 -351.538803 
L 717.141989 -349.34178 
L 716.193153 -347.144756 
L 715.315374 -344.947733 
L 714.508053 -342.75071 
L 713.767651 -340.553686 
L 713.088021 -338.356663 
L 712.461156 -336.15964 
L 711.878212 -333.962617 
L 711.330617 -331.765593 
L 710.811052 -329.56857 
L 710.31412 -327.371547 
L 709.836592 -325.174523 
L 709.377243 -322.9775 
L 708.936344 -320.780477 
L 708.514976 -318.583453 
L 708.114335 -316.38643 
L 707.735194 -314.189407 
L 707.377606 -311.992383 
L 707.040894 -309.79536 
L 706.723862 -307.598337 
L 706.425159 -305.401313 
L 706.143655 -303.20429 
L 705.87874 -301.007267 
L 705.630472 -298.810244 
L 705.399546 -296.61322 
L 705.187103 -294.416197 
L 704.994442 -292.219174 
L 704.822701 -290.02215 
L 704.672578 -287.825127 
L 704.544137 -285.628104 
L 704.43673 -283.43108 
L 704.349036 -281.234057 
L 704.279179 -279.037034 
z
" style="stroke: #3d3d3d; stroke-opacity: 0.5"/>
    </defs>
    <g clip-path="url(#p9a4e86150a)">
     <use xlink:href="#m26d499dbb7" x="0" y="696.702001" style="fill: #3a923a; fill-opacity: 0.5; stroke: #3d3d3d; stroke-opacity: 0.5"/>
    </g>
   </g>
   <g id="PolyCollection_8">
    <defs>
     <path id="m41d3b68ade" d="M 801.87993 -233.350881 
L 801.59507 -233.350881 
L 801.545729 -237.703922 
L 801.485403 -242.056964 
L 801.413936 -246.410005 
L 801.332028 -250.763047 
L 801.2414 -255.116089 
L 801.144861 -259.46913 
L 801.046264 -263.822172 
L 800.950298 -268.175214 
L 800.862151 -272.528255 
L 800.787037 -276.881297 
L 800.729674 -281.234338 
L 800.693742 -285.58738 
L 800.681429 -289.940422 
L 800.693101 -294.293463 
L 800.727168 -298.646505 
L 800.780139 -302.999547 
L 800.846863 -307.352588 
L 800.920916 -311.70563 
L 800.995075 -316.058671 
L 801.061823 -320.411713 
L 801.113829 -324.764755 
L 801.144389 -329.117796 
L 801.147796 -333.470838 
L 801.119648 -337.82388 
L 801.057106 -342.176921 
L 800.95909 -346.529963 
L 800.826402 -350.883004 
L 800.661743 -355.236046 
L 800.46959 -359.589088 
L 800.25589 -363.942129 
L 800.02755 -368.295171 
L 799.791763 -372.648213 
L 799.555209 -377.001254 
L 799.323252 -381.354296 
L 799.099273 -385.707337 
L 798.884261 -390.060379 
L 798.676775 -394.413421 
L 798.47334 -398.766462 
L 798.269223 -403.119504 
L 798.0595 -407.472546 
L 797.840233 -411.825587 
L 797.609534 -416.178629 
L 797.368319 -420.53167 
L 797.120579 -424.884712 
L 796.873088 -429.237754 
L 796.634548 -433.590795 
L 796.414279 -437.943837 
L 796.220633 -442.296879 
L 796.059334 -446.64992 
L 795.931991 -451.002962 
L 795.834971 -455.356003 
L 795.758781 -459.709045 
L 795.688052 -464.062087 
L 795.602142 -468.415128 
L 795.476318 -472.76817 
L 795.283422 -477.121212 
L 794.995875 -481.474253 
L 794.587854 -485.827295 
L 794.037421 -490.180336 
L 793.328392 -494.533378 
L 792.451731 -498.88642 
L 791.406283 -503.239461 
L 790.198722 -507.592503 
L 788.842697 -511.945544 
L 787.357238 -516.298586 
L 785.764622 -520.651628 
L 784.088007 -525.004669 
L 782.349195 -529.357711 
L 780.566932 -533.710753 
L 778.756095 -538.063794 
L 776.928049 -542.416836 
L 775.092252 -546.769877 
L 773.259027 -551.122919 
L 771.443125 -555.475961 
L 769.667545 -559.829002 
L 767.966849 -564.182044 
L 766.389189 -568.535086 
L 764.996313 -572.888127 
L 763.861072 -577.241169 
L 763.062309 -581.59421 
L 762.6775 -585.947252 
L 762.773974 -590.300294 
L 763.399938 -594.653335 
L 764.576702 -599.006377 
L 766.293422 -603.359419 
L 768.505373 -607.71246 
L 771.136178 -612.065502 
L 774.083807 -616.418543 
L 777.229512 -620.771585 
L 780.448425 -625.124627 
L 783.620312 -629.477668 
L 786.639061 -633.83071 
L 789.419776 -638.183752 
L 791.902839 -642.536793 
L 794.054838 -646.889835 
L 795.866705 -651.242876 
L 797.349786 -655.595918 
L 798.530708 -659.94896 
L 799.445901 -664.302001 
L 804.029099 -664.302001 
L 804.029099 -664.302001 
L 804.944292 -659.94896 
L 806.125214 -655.595918 
L 807.608295 -651.242876 
L 809.420162 -646.889835 
L 811.572161 -642.536793 
L 814.055224 -638.183752 
L 816.835939 -633.83071 
L 819.854688 -629.477668 
L 823.026575 -625.124627 
L 826.245488 -620.771585 
L 829.391193 -616.418543 
L 832.338822 -612.065502 
L 834.969627 -607.71246 
L 837.181578 -603.359419 
L 838.898298 -599.006377 
L 840.075062 -594.653335 
L 840.701026 -590.300294 
L 840.7975 -585.947252 
L 840.412691 -581.59421 
L 839.613928 -577.241169 
L 838.478687 -572.888127 
L 837.085811 -568.535086 
L 835.508151 -564.182044 
L 833.807455 -559.829002 
L 832.031875 -555.475961 
L 830.215973 -551.122919 
L 828.382748 -546.769877 
L 826.546951 -542.416836 
L 824.718905 -538.063794 
L 822.908068 -533.710753 
L 821.125805 -529.357711 
L 819.386993 -525.004669 
L 817.710378 -520.651628 
L 816.117762 -516.298586 
L 814.632303 -511.945544 
L 813.276278 -507.592503 
L 812.068717 -503.239461 
L 811.023269 -498.88642 
L 810.146608 -494.533378 
L 809.437579 -490.180336 
L 808.887146 -485.827295 
L 808.479125 -481.474253 
L 808.191578 -477.121212 
L 807.998682 -472.76817 
L 807.872858 -468.415128 
L 807.786948 -464.062087 
L 807.716219 -459.709045 
L 807.640029 -455.356003 
L 807.543009 -451.002962 
L 807.415666 -446.64992 
L 807.254367 -442.296879 
L 807.060721 -437.943837 
L 806.840452 -433.590795 
L 806.601912 -429.237754 
L 806.354421 -424.884712 
L 806.106681 -420.53167 
L 805.865466 -416.178629 
L 805.634767 -411.825587 
L 805.4155 -407.472546 
L 805.205777 -403.119504 
L 805.00166 -398.766462 
L 804.798225 -394.413421 
L 804.590739 -390.060379 
L 804.375727 -385.707337 
L 804.151748 -381.354296 
L 803.919791 -377.001254 
L 803.683237 -372.648213 
L 803.44745 -368.295171 
L 803.21911 -363.942129 
L 803.00541 -359.589088 
L 802.813257 -355.236046 
L 802.648598 -350.883004 
L 802.51591 -346.529963 
L 802.417894 -342.176921 
L 802.355352 -337.82388 
L 802.327204 -333.470838 
L 802.330611 -329.117796 
L 802.361171 -324.764755 
L 802.413177 -320.411713 
L 802.479925 -316.058671 
L 802.554084 -311.70563 
L 802.628137 -307.352588 
L 802.694861 -302.999547 
L 802.747832 -298.646505 
L 802.781899 -294.293463 
L 802.793571 -289.940422 
L 802.781258 -285.58738 
L 802.745326 -281.234338 
L 802.687963 -276.881297 
L 802.612849 -272.528255 
L 802.524702 -268.175214 
L 802.428736 -263.822172 
L 802.330139 -259.46913 
L 802.2336 -255.116089 
L 802.142972 -250.763047 
L 802.061064 -246.410005 
L 801.989597 -242.056964 
L 801.929271 -237.703922 
L 801.87993 -233.350881 
z
" style="stroke: #3d3d3d; stroke-opacity: 0.5"/>
    </defs>
    <g clip-path="url(#p9a4e86150a)">
     <use xlink:href="#m41d3b68ade" x="0" y="696.702001" style="fill: #c03d3e; fill-opacity: 0.5; stroke: #3d3d3d; stroke-opacity: 0.5"/>
    </g>
   </g>
   <g id="line2d_7">
    <path d="M 118.1875 274.078389 
L 118.1875 89.270821 
" clip-path="url(#p9a4e86150a)" style="fill: none; stroke: #3d3d3d; stroke-width: 1.5; stroke-linecap: round"/>
   </g>
   <g id="line2d_8">
    <path d="M 118.1875 178.59441 
L 118.1875 108.403906 
" clip-path="url(#p9a4e86150a)" style="fill: none; stroke: #3d3d3d; stroke-width: 4.5; stroke-linecap: round"/>
   </g>
   <g id="line2d_9">
    <path d="M 118.1875 124.875742 
" clip-path="url(#p9a4e86150a)" style="fill: none; stroke: #3d3d3d; stroke-width: 1.5; stroke-linecap: round"/>
    <defs>
     <path id="m978eb715b7" d="M 1.875 0 
L -1.875 -0 
" style="stroke: #ffffff; stroke-width: 0.9"/>
    </defs>
    <g clip-path="url(#p9a4e86150a)">
     <use xlink:href="#m978eb715b7" x="118.1875" y="124.875742" style="fill: #ffffff; stroke: #ffffff; stroke-width: 0.9"/>
    </g>
   </g>
   <g id="line2d_10">
    <path d="M 215.8375 438.332396 
L 215.8375 278.71094 
" clip-path="url(#p9a4e86150a)" style="fill: none; stroke: #3d3d3d; stroke-width: 1.5; stroke-linecap: round"/>
   </g>
   <g id="line2d_11">
    <path d="M 215.8375 406.080752 
L 215.8375 348.698383 
" clip-path="url(#p9a4e86150a)" style="fill: none; stroke: #3d3d3d; stroke-width: 4.5; stroke-linecap: round"/>
   </g>
   <g id="line2d_12">
    <path d="M 215.8375 375.833332 
" clip-path="url(#p9a4e86150a)" style="fill: none; stroke: #3d3d3d; stroke-width: 1.5; stroke-linecap: round"/>
    <g clip-path="url(#p9a4e86150a)">
     <use xlink:href="#m978eb715b7" x="215.8375" y="375.833332" style="fill: #ffffff; stroke: #ffffff; stroke-width: 0.9"/>
    </g>
   </g>
   <g id="line2d_13">
    <path d="M 313.4875 183.323639 
L 313.4875 95.343857 
" clip-path="url(#p9a4e86150a)" style="fill: none; stroke: #3d3d3d; stroke-width: 1.5; stroke-linecap: round"/>
   </g>
   <g id="line2d_14">
    <path d="M 313.4875 139.530199 
L 313.4875 109.591453 
" clip-path="url(#p9a4e86150a)" style="fill: none; stroke: #3d3d3d; stroke-width: 4.5; stroke-linecap: round"/>
   </g>
   <g id="line2d_15">
    <path d="M 313.4875 126.390405 
" clip-path="url(#p9a4e86150a)" style="fill: none; stroke: #3d3d3d; stroke-width: 1.5; stroke-linecap: round"/>
    <g clip-path="url(#p9a4e86150a)">
     <use xlink:href="#m978eb715b7" x="313.4875" y="126.390405" style="fill: #ffffff; stroke: #ffffff; stroke-width: 0.9"/>
    </g>
   </g>
   <g id="line2d_16">
    <path d="M 411.1375 174.259701 
L 411.1375 86.543549 
" clip-path="url(#p9a4e86150a)" style="fill: none; stroke: #3d3d3d; stroke-width: 1.5; stroke-linecap: round"/>
   </g>
   <g id="line2d_17">
    <path d="M 411.1375 129.76507 
L 411.1375 97.545681 
" clip-path="url(#p9a4e86150a)" style="fill: none; stroke: #3d3d3d; stroke-width: 4.5; stroke-linecap: round"/>
   </g>
   <g id="line2d_18">
    <path d="M 411.1375 106.259482 
" clip-path="url(#p9a4e86150a)" style="fill: none; stroke: #3d3d3d; stroke-width: 1.5; stroke-linecap: round"/>
    <g clip-path="url(#p9a4e86150a)">
     <use xlink:href="#m978eb715b7" x="411.1375" y="106.259482" style="fill: #ffffff; stroke: #ffffff; stroke-width: 0.9"/>
    </g>
   </g>
   <g id="line2d_19">
    <path d="M 508.7875 444.966698 
L 508.7875 398.743307 
" clip-path="url(#p9a4e86150a)" style="fill: none; stroke: #3d3d3d; stroke-width: 1.5; stroke-linecap: round"/>
   </g>
   <g id="line2d_20">
    <path d="M 508.7875 427.205978 
L 508.7875 412.467461 
" clip-path="url(#p9a4e86150a)" style="fill: none; stroke: #3d3d3d; stroke-width: 4.5; stroke-linecap: round"/>
   </g>
   <g id="line2d_21">
    <path d="M 508.7875 423.062494 
" clip-path="url(#p9a4e86150a)" style="fill: none; stroke: #3d3d3d; stroke-width: 1.5; stroke-linecap: round"/>
    <g clip-path="url(#p9a4e86150a)">
     <use xlink:href="#m978eb715b7" x="508.7875" y="423.062494" style="fill: #ffffff; stroke: #ffffff; stroke-width: 0.9"/>
    </g>
   </g>
   <g id="line2d_22">
    <path d="M 606.4375 455.809518 
L 606.4375 128.908884 
" clip-path="url(#p9a4e86150a)" style="fill: none; stroke: #3d3d3d; stroke-width: 1.5; stroke-linecap: round"/>
   </g>
   <g id="line2d_23">
    <path d="M 606.4375 380.530406 
L 606.4375 273.00453 
" clip-path="url(#p9a4e86150a)" style="fill: none; stroke: #3d3d3d; stroke-width: 4.5; stroke-linecap: round"/>
   </g>
   <g id="line2d_24">
    <path d="M 606.4375 341.582749 
" clip-path="url(#p9a4e86150a)" style="fill: none; stroke: #3d3d3d; stroke-width: 1.5; stroke-linecap: round"/>
    <g clip-path="url(#p9a4e86150a)">
     <use xlink:href="#m978eb715b7" x="606.4375" y="341.582749" style="fill: #ffffff; stroke: #ffffff; stroke-width: 0.9"/>
    </g>
   </g>
   <g id="line2d_25">
    <path d="M 704.0875 372.6163 
L 704.0875 241.135116 
" clip-path="url(#p9a4e86150a)" style="fill: none; stroke: #3d3d3d; stroke-width: 1.5; stroke-linecap: round"/>
   </g>
   <g id="line2d_26">
    <path d="M 704.0875 321.79417 
L 704.0875 287.663116 
" clip-path="url(#p9a4e86150a)" style="fill: none; stroke: #3d3d3d; stroke-width: 4.5; stroke-linecap: round"/>
   </g>
   <g id="line2d_27">
    <path d="M 704.0875 300.568439 
" clip-path="url(#p9a4e86150a)" style="fill: none; stroke: #3d3d3d; stroke-width: 1.5; stroke-linecap: round"/>
    <g clip-path="url(#p9a4e86150a)">
     <use xlink:href="#m978eb715b7" x="704.0875" y="300.568439" style="fill: #ffffff; stroke: #ffffff; stroke-width: 0.9"/>
    </g>
   </g>
   <g id="line2d_28">
    <path d="M 801.7375 250.791475 
L 801.7375 88.675086 
" clip-path="url(#p9a4e86150a)" style="fill: none; stroke: #3d3d3d; stroke-width: 1.5; stroke-linecap: round"/>
   </g>
   <g id="line2d_29">
    <path d="M 801.7375 162.37279 
L 801.7375 98.142385 
" clip-path="url(#p9a4e86150a)" style="fill: none; stroke: #3d3d3d; stroke-width: 4.5; stroke-linecap: round"/>
   </g>
   <g id="line2d_30">
    <path d="M 801.7375 126.866435 
" clip-path="url(#p9a4e86150a)" style="fill: none; stroke: #3d3d3d; stroke-width: 1.5; stroke-linecap: round"/>
    <g clip-path="url(#p9a4e86150a)">
     <use xlink:href="#m978eb715b7" x="801.7375" y="126.866435" style="fill: #ffffff; stroke: #ffffff; stroke-width: 0.9"/>
    </g>
   </g>
   <g id="patch_3">
    <path d="M 69.3625 561.6 
L 850.5625 561.6 
" style="fill: none; stroke: #cccccc; stroke-width: 0.8; stroke-linejoin: miter; stroke-linecap: square"/>
   </g>
  </g>
 </g>
 <defs>
  <clipPath id="p9a4e86150a">
   <rect x="69.3625" y="7.2" width="781.2" height="554.4"/>
  </clipPath>
 </defs>
</svg>
