<?xml version="1.0" encoding="utf-8" standalone="no"?>
<!DOCTYPE svg PUBLIC "-//W3C//DTD SVG 1.1//EN"
  "http://www.w3.org/Graphics/SVG/1.1/DTD/svg11.dtd">
<svg xmlns:xlink="http://www.w3.org/1999/xlink" width="857.7625pt" height="696.702001pt" viewBox="0 0 857.7625 696.702001" xmlns="http://www.w3.org/2000/svg" version="1.1">
 <metadata>
  <rdf:RDF xmlns:dc="http://purl.org/dc/elements/1.1/" xmlns:cc="http://creativecommons.org/ns#" xmlns:rdf="http://www.w3.org/1999/02/22-rdf-syntax-ns#">
   <cc:Work>
    <dc:type rdf:resource="http://purl.org/dc/dcmitype/StillImage"/>
    <dc:date>2024-10-23T17:25:17.231242</dc:date>
    <dc:format>image/svg+xml</dc:format>
    <dc:creator>
     <cc:Agent>
      <dc:title>Matplotlib v3.8.0, https://matplotlib.org/</dc:title>
     </cc:Agent>
    </dc:creator>
   </cc:Work>
  </rdf:RDF>
 </metadata>
 <defs>
  <style type="text/css">*{stroke-linejoin: round; stroke-linecap: butt}</style>
 </defs>
 <g id="figure_1">
  <g id="patch_1">
   <path d="M 0 696.702001 
L 857.7625 696.702001 
L 857.7625 0 
L 0 0 
L 0 696.702001 
z
" style="fill: none"/>
  </g>
  <g id="axes_1">
   <g id="patch_2">
    <path d="M 69.3625 561.6 
L 850.5625 561.6 
L 850.5625 7.2 
L 69.3625 7.2 
L 69.3625 561.6 
z
" style="fill: none"/>
   </g>
   <g id="matplotlib.axis_1">
    <g id="xtick_1">
     <g id="text_1">
      <!-- MSA -->
      <g style="fill: #262626" transform="translate(97.813986 610.465141) rotate(-45) scale(0.2 -0.2)">
       <defs>
        <path id="DejaVuSans-4d" d="M 628 4666 
L 1569 4666 
L 2759 1491 
L 3956 4666 
L 4897 4666 
L 4897 0 
L 4281 0 
L 4281 4097 
L 3078 897 
L 2444 897 
L 1241 4097 
L 1241 0 
L 628 0 
L 628 4666 
z
" transform="scale(0.015625)"/>
        <path id="DejaVuSans-53" d="M 3425 4513 
L 3425 3897 
Q 3066 4069 2747 4153 
Q 2428 4238 2131 4238 
Q 1616 4238 1336 4038 
Q 1056 3838 1056 3469 
Q 1056 3159 1242 3001 
Q 1428 2844 1947 2747 
L 2328 2669 
Q 3034 2534 3370 2195 
Q 3706 1856 3706 1288 
Q 3706 609 3251 259 
Q 2797 -91 1919 -91 
Q 1588 -91 1214 -16 
Q 841 59 441 206 
L 441 856 
Q 825 641 1194 531 
Q 1563 422 1919 422 
Q 2459 422 2753 634 
Q 3047 847 3047 1241 
Q 3047 1584 2836 1778 
Q 2625 1972 2144 2069 
L 1759 2144 
Q 1053 2284 737 2584 
Q 422 2884 422 3419 
Q 422 4038 858 4394 
Q 1294 4750 2059 4750 
Q 2388 4750 2728 4690 
Q 3069 4631 3425 4513 
z
" transform="scale(0.015625)"/>
        <path id="DejaVuSans-41" d="M 2188 4044 
L 1331 1722 
L 3047 1722 
L 2188 4044 
z
M 1831 4666 
L 2547 4666 
L 4325 0 
L 3669 0 
L 3244 1197 
L 1141 1197 
L 716 0 
L 50 0 
L 1831 4666 
z
" transform="scale(0.015625)"/>
       </defs>
       <use xlink:href="#DejaVuSans-4d"/>
       <use xlink:href="#DejaVuSans-53" x="86.279297"/>
       <use xlink:href="#DejaVuSans-41" x="151.630859"/>
      </g>
     </g>
    </g>
    <g id="xtick_2">
     <g id="text_2">
      <!-- Single -->
      <g style="fill: #262626" transform="translate(183.105085 622.824042) rotate(-45) scale(0.2 -0.2)">
       <defs>
        <path id="DejaVuSans-69" d="M 603 3500 
L 1178 3500 
L 1178 0 
L 603 0 
L 603 3500 
z
M 603 4863 
L 1178 4863 
L 1178 4134 
L 603 4134 
L 603 4863 
z
" transform="scale(0.015625)"/>
        <path id="DejaVuSans-6e" d="M 3513 2113 
L 3513 0 
L 2938 0 
L 2938 2094 
Q 2938 2591 2744 2837 
Q 2550 3084 2163 3084 
Q 1697 3084 1428 2787 
Q 1159 2491 1159 1978 
L 1159 0 
L 581 0 
L 581 3500 
L 1159 3500 
L 1159 2956 
Q 1366 3272 1645 3428 
Q 1925 3584 2291 3584 
Q 2894 3584 3203 3211 
Q 3513 2838 3513 2113 
z
" transform="scale(0.015625)"/>
        <path id="DejaVuSans-67" d="M 2906 1791 
Q 2906 2416 2648 2759 
Q 2391 3103 1925 3103 
Q 1463 3103 1205 2759 
Q 947 2416 947 1791 
Q 947 1169 1205 825 
Q 1463 481 1925 481 
Q 2391 481 2648 825 
Q 2906 1169 2906 1791 
z
M 3481 434 
Q 3481 -459 3084 -895 
Q 2688 -1331 1869 -1331 
Q 1566 -1331 1297 -1286 
Q 1028 -1241 775 -1147 
L 775 -588 
Q 1028 -725 1275 -790 
Q 1522 -856 1778 -856 
Q 2344 -856 2625 -561 
Q 2906 -266 2906 331 
L 2906 616 
Q 2728 306 2450 153 
Q 2172 0 1784 0 
Q 1141 0 747 490 
Q 353 981 353 1791 
Q 353 2603 747 3093 
Q 1141 3584 1784 3584 
Q 2172 3584 2450 3431 
Q 2728 3278 2906 2969 
L 2906 3500 
L 3481 3500 
L 3481 434 
z
" transform="scale(0.015625)"/>
        <path id="DejaVuSans-6c" d="M 603 4863 
L 1178 4863 
L 1178 0 
L 603 0 
L 603 4863 
z
" transform="scale(0.015625)"/>
        <path id="DejaVuSans-65" d="M 3597 1894 
L 3597 1613 
L 953 1613 
Q 991 1019 1311 708 
Q 1631 397 2203 397 
Q 2534 397 2845 478 
Q 3156 559 3463 722 
L 3463 178 
Q 3153 47 2828 -22 
Q 2503 -91 2169 -91 
Q 1331 -91 842 396 
Q 353 884 353 1716 
Q 353 2575 817 3079 
Q 1281 3584 2069 3584 
Q 2775 3584 3186 3129 
Q 3597 2675 3597 1894 
z
M 3022 2063 
Q 3016 2534 2758 2815 
Q 2500 3097 2075 3097 
Q 1594 3097 1305 2825 
Q 1016 2553 972 2059 
L 3022 2063 
z
" transform="scale(0.015625)"/>
       </defs>
       <use xlink:href="#DejaVuSans-53"/>
       <use xlink:href="#DejaVuSans-69" x="63.476562"/>
       <use xlink:href="#DejaVuSans-6e" x="91.259766"/>
       <use xlink:href="#DejaVuSans-67" x="154.638672"/>
       <use xlink:href="#DejaVuSans-6c" x="218.115234"/>
       <use xlink:href="#DejaVuSans-65" x="245.898438"/>
      </g>
     </g>
    </g>
    <g id="xtick_3">
     <g id="text_3">
      <!-- Gaussian -->
      <g style="fill: #262626" transform="translate(259.354056 644.22507) rotate(-45) scale(0.2 -0.2)">
       <defs>
        <path id="DejaVuSans-47" d="M 3809 666 
L 3809 1919 
L 2778 1919 
L 2778 2438 
L 4434 2438 
L 4434 434 
Q 4069 175 3628 42 
Q 3188 -91 2688 -91 
Q 1594 -91 976 548 
Q 359 1188 359 2328 
Q 359 3472 976 4111 
Q 1594 4750 2688 4750 
Q 3144 4750 3555 4637 
Q 3966 4525 4313 4306 
L 4313 3634 
Q 3963 3931 3569 4081 
Q 3175 4231 2741 4231 
Q 1884 4231 1454 3753 
Q 1025 3275 1025 2328 
Q 1025 1384 1454 906 
Q 1884 428 2741 428 
Q 3075 428 3337 486 
Q 3600 544 3809 666 
z
" transform="scale(0.015625)"/>
        <path id="DejaVuSans-61" d="M 2194 1759 
Q 1497 1759 1228 1600 
Q 959 1441 959 1056 
Q 959 750 1161 570 
Q 1363 391 1709 391 
Q 2188 391 2477 730 
Q 2766 1069 2766 1631 
L 2766 1759 
L 2194 1759 
z
M 3341 1997 
L 3341 0 
L 2766 0 
L 2766 531 
Q 2569 213 2275 61 
Q 1981 -91 1556 -91 
Q 1019 -91 701 211 
Q 384 513 384 1019 
Q 384 1609 779 1909 
Q 1175 2209 1959 2209 
L 2766 2209 
L 2766 2266 
Q 2766 2663 2505 2880 
Q 2244 3097 1772 3097 
Q 1472 3097 1187 3025 
Q 903 2953 641 2809 
L 641 3341 
Q 956 3463 1253 3523 
Q 1550 3584 1831 3584 
Q 2591 3584 2966 3190 
Q 3341 2797 3341 1997 
z
" transform="scale(0.015625)"/>
        <path id="DejaVuSans-75" d="M 544 1381 
L 544 3500 
L 1119 3500 
L 1119 1403 
Q 1119 906 1312 657 
Q 1506 409 1894 409 
Q 2359 409 2629 706 
Q 2900 1003 2900 1516 
L 2900 3500 
L 3475 3500 
L 3475 0 
L 2900 0 
L 2900 538 
Q 2691 219 2414 64 
Q 2138 -91 1772 -91 
Q 1169 -91 856 284 
Q 544 659 544 1381 
z
M 1991 3584 
L 1991 3584 
z
" transform="scale(0.015625)"/>
        <path id="DejaVuSans-73" d="M 2834 3397 
L 2834 2853 
Q 2591 2978 2328 3040 
Q 2066 3103 1784 3103 
Q 1356 3103 1142 2972 
Q 928 2841 928 2578 
Q 928 2378 1081 2264 
Q 1234 2150 1697 2047 
L 1894 2003 
Q 2506 1872 2764 1633 
Q 3022 1394 3022 966 
Q 3022 478 2636 193 
Q 2250 -91 1575 -91 
Q 1294 -91 989 -36 
Q 684 19 347 128 
L 347 722 
Q 666 556 975 473 
Q 1284 391 1588 391 
Q 1994 391 2212 530 
Q 2431 669 2431 922 
Q 2431 1156 2273 1281 
Q 2116 1406 1581 1522 
L 1381 1569 
Q 847 1681 609 1914 
Q 372 2147 372 2553 
Q 372 3047 722 3315 
Q 1072 3584 1716 3584 
Q 2034 3584 2315 3537 
Q 2597 3491 2834 3397 
z
" transform="scale(0.015625)"/>
       </defs>
       <use xlink:href="#DejaVuSans-47"/>
       <use xlink:href="#DejaVuSans-61" x="77.490234"/>
       <use xlink:href="#DejaVuSans-75" x="138.769531"/>
       <use xlink:href="#DejaVuSans-73" x="202.148438"/>
       <use xlink:href="#DejaVuSans-73" x="254.248047"/>
       <use xlink:href="#DejaVuSans-69" x="306.347656"/>
       <use xlink:href="#DejaVuSans-61" x="334.130859"/>
       <use xlink:href="#DejaVuSans-6e" x="395.410156"/>
      </g>
     </g>
    </g>
    <g id="xtick_4">
     <g id="text_4">
      <!-- Gaussian (AF2) -->
      <g style="fill: #262626" transform="translate(314.668248 686.560879) rotate(-45) scale(0.2 -0.2)">
       <defs>
        <path id="DejaVuSans-20" transform="scale(0.015625)"/>
        <path id="DejaVuSans-28" d="M 1984 4856 
Q 1566 4138 1362 3434 
Q 1159 2731 1159 2009 
Q 1159 1288 1364 580 
Q 1569 -128 1984 -844 
L 1484 -844 
Q 1016 -109 783 600 
Q 550 1309 550 2009 
Q 550 2706 781 3412 
Q 1013 4119 1484 4856 
L 1984 4856 
z
" transform="scale(0.015625)"/>
        <path id="DejaVuSans-46" d="M 628 4666 
L 3309 4666 
L 3309 4134 
L 1259 4134 
L 1259 2759 
L 3109 2759 
L 3109 2228 
L 1259 2228 
L 1259 0 
L 628 0 
L 628 4666 
z
" transform="scale(0.015625)"/>
        <path id="DejaVuSans-32" d="M 1228 531 
L 3431 531 
L 3431 0 
L 469 0 
L 469 531 
Q 828 903 1448 1529 
Q 2069 2156 2228 2338 
Q 2531 2678 2651 2914 
Q 2772 3150 2772 3378 
Q 2772 3750 2511 3984 
Q 2250 4219 1831 4219 
Q 1534 4219 1204 4116 
Q 875 4013 500 3803 
L 500 4441 
Q 881 4594 1212 4672 
Q 1544 4750 1819 4750 
Q 2544 4750 2975 4387 
Q 3406 4025 3406 3419 
Q 3406 3131 3298 2873 
Q 3191 2616 2906 2266 
Q 2828 2175 2409 1742 
Q 1991 1309 1228 531 
z
" transform="scale(0.015625)"/>
        <path id="DejaVuSans-29" d="M 513 4856 
L 1013 4856 
Q 1481 4119 1714 3412 
Q 1947 2706 1947 2009 
Q 1947 1309 1714 600 
Q 1481 -109 1013 -844 
L 513 -844 
Q 928 -128 1133 580 
Q 1338 1288 1338 2009 
Q 1338 2731 1133 3434 
Q 928 4138 513 4856 
z
" transform="scale(0.015625)"/>
       </defs>
       <use xlink:href="#DejaVuSans-47"/>
       <use xlink:href="#DejaVuSans-61" x="77.490234"/>
       <use xlink:href="#DejaVuSans-75" x="138.769531"/>
       <use xlink:href="#DejaVuSans-73" x="202.148438"/>
       <use xlink:href="#DejaVuSans-73" x="254.248047"/>
       <use xlink:href="#DejaVuSans-69" x="306.347656"/>
       <use xlink:href="#DejaVuSans-61" x="334.130859"/>
       <use xlink:href="#DejaVuSans-6e" x="395.410156"/>
       <use xlink:href="#DejaVuSans-20" x="458.789062"/>
       <use xlink:href="#DejaVuSans-28" x="490.576172"/>
       <use xlink:href="#DejaVuSans-41" x="529.589844"/>
       <use xlink:href="#DejaVuSans-46" x="597.998047"/>
       <use xlink:href="#DejaVuSans-32" x="655.517578"/>
       <use xlink:href="#DejaVuSans-29" x="719.140625"/>
      </g>
     </g>
    </g>
    <g id="xtick_5">
     <g id="text_5">
      <!-- 1 PC -->
      <g style="fill: #262626" transform="translate(487.638378 611.240749) rotate(-45) scale(0.2 -0.2)">
       <defs>
        <path id="DejaVuSans-31" d="M 794 531 
L 1825 531 
L 1825 4091 
L 703 3866 
L 703 4441 
L 1819 4666 
L 2450 4666 
L 2450 531 
L 3481 531 
L 3481 0 
L 794 0 
L 794 531 
z
" transform="scale(0.015625)"/>
        <path id="DejaVuSans-50" d="M 1259 4147 
L 1259 2394 
L 2053 2394 
Q 2494 2394 2734 2622 
Q 2975 2850 2975 3272 
Q 2975 3691 2734 3919 
Q 2494 4147 2053 4147 
L 1259 4147 
z
M 628 4666 
L 2053 4666 
Q 2838 4666 3239 4311 
Q 3641 3956 3641 3272 
Q 3641 2581 3239 2228 
Q 2838 1875 2053 1875 
L 1259 1875 
L 1259 0 
L 628 0 
L 628 4666 
z
" transform="scale(0.015625)"/>
        <path id="DejaVuSans-43" d="M 4122 4306 
L 4122 3641 
Q 3803 3938 3442 4084 
Q 3081 4231 2675 4231 
Q 1875 4231 1450 3742 
Q 1025 3253 1025 2328 
Q 1025 1406 1450 917 
Q 1875 428 2675 428 
Q 3081 428 3442 575 
Q 3803 722 4122 1019 
L 4122 359 
Q 3791 134 3420 21 
Q 3050 -91 2638 -91 
Q 1578 -91 968 557 
Q 359 1206 359 2328 
Q 359 3453 968 4101 
Q 1578 4750 2638 4750 
Q 3056 4750 3426 4639 
Q 3797 4528 4122 4306 
z
" transform="scale(0.015625)"/>
       </defs>
       <use xlink:href="#DejaVuSans-31"/>
       <use xlink:href="#DejaVuSans-20" x="63.623047"/>
       <use xlink:href="#DejaVuSans-50" x="95.410156"/>
       <use xlink:href="#DejaVuSans-43" x="155.712891"/>
      </g>
     </g>
    </g>
    <g id="xtick_6">
     <g id="text_6">
      <!-- 1 PC (AF2) -->
      <g style="fill: #262626" transform="translate(542.952569 653.576557) rotate(-45) scale(0.2 -0.2)">
       <use xlink:href="#DejaVuSans-31"/>
       <use xlink:href="#DejaVuSans-20" x="63.623047"/>
       <use xlink:href="#DejaVuSans-50" x="95.410156"/>
       <use xlink:href="#DejaVuSans-43" x="155.712891"/>
       <use xlink:href="#DejaVuSans-20" x="225.537109"/>
       <use xlink:href="#DejaVuSans-28" x="257.324219"/>
       <use xlink:href="#DejaVuSans-41" x="296.337891"/>
       <use xlink:href="#DejaVuSans-46" x="364.746094"/>
       <use xlink:href="#DejaVuSans-32" x="422.265625"/>
       <use xlink:href="#DejaVuSans-29" x="485.888672"/>
      </g>
     </g>
    </g>
    <g id="xtick_7">
     <g id="text_7">
      <!-- 2 PC -->
      <g style="fill: #262626" transform="translate(682.938378 611.240749) rotate(-45) scale(0.2 -0.2)">
       <use xlink:href="#DejaVuSans-32"/>
       <use xlink:href="#DejaVuSans-20" x="63.623047"/>
       <use xlink:href="#DejaVuSans-50" x="95.410156"/>
       <use xlink:href="#DejaVuSans-43" x="155.712891"/>
      </g>
     </g>
    </g>
    <g id="xtick_8">
     <g id="text_8">
      <!-- 2 PC (AF2) -->
      <g style="fill: #262626" transform="translate(738.252569 653.576557) rotate(-45) scale(0.2 -0.2)">
       <use xlink:href="#DejaVuSans-32"/>
       <use xlink:href="#DejaVuSans-20" x="63.623047"/>
       <use xlink:href="#DejaVuSans-50" x="95.410156"/>
       <use xlink:href="#DejaVuSans-43" x="155.712891"/>
       <use xlink:href="#DejaVuSans-20" x="225.537109"/>
       <use xlink:href="#DejaVuSans-28" x="257.324219"/>
       <use xlink:href="#DejaVuSans-41" x="296.337891"/>
       <use xlink:href="#DejaVuSans-46" x="364.746094"/>
       <use xlink:href="#DejaVuSans-32" x="422.265625"/>
       <use xlink:href="#DejaVuSans-29" x="485.888672"/>
      </g>
     </g>
    </g>
   </g>
   <g id="matplotlib.axis_2">
    <g id="ytick_1">
     <g id="line2d_1">
      <path d="M 69.3625 511.903024 
L 850.5625 511.903024 
" clip-path="url(#p39e18a2496)" style="fill: none; stroke: #cccccc; stroke-width: 0.8; stroke-linecap: round"/>
     </g>
     <g id="text_9">
      <!-- 0.0 -->
      <g style="fill: #262626" transform="translate(30.55625 519.501461) scale(0.2 -0.2)">
       <defs>
        <path id="DejaVuSans-30" d="M 2034 4250 
Q 1547 4250 1301 3770 
Q 1056 3291 1056 2328 
Q 1056 1369 1301 889 
Q 1547 409 2034 409 
Q 2525 409 2770 889 
Q 3016 1369 3016 2328 
Q 3016 3291 2770 3770 
Q 2525 4250 2034 4250 
z
M 2034 4750 
Q 2819 4750 3233 4129 
Q 3647 3509 3647 2328 
Q 3647 1150 3233 529 
Q 2819 -91 2034 -91 
Q 1250 -91 836 529 
Q 422 1150 422 2328 
Q 422 3509 836 4129 
Q 1250 4750 2034 4750 
z
" transform="scale(0.015625)"/>
        <path id="DejaVuSans-2e" d="M 684 794 
L 1344 794 
L 1344 0 
L 684 0 
L 684 794 
z
" transform="scale(0.015625)"/>
       </defs>
       <use xlink:href="#DejaVuSans-30"/>
       <use xlink:href="#DejaVuSans-2e" x="63.623047"/>
       <use xlink:href="#DejaVuSans-30" x="95.410156"/>
      </g>
     </g>
    </g>
    <g id="ytick_2">
     <g id="line2d_2">
      <path d="M 69.3625 429.886622 
L 850.5625 429.886622 
" clip-path="url(#p39e18a2496)" style="fill: none; stroke: #cccccc; stroke-width: 0.8; stroke-linecap: round"/>
     </g>
     <g id="text_10">
      <!-- 0.2 -->
      <g style="fill: #262626" transform="translate(30.55625 437.48506) scale(0.2 -0.2)">
       <use xlink:href="#DejaVuSans-30"/>
       <use xlink:href="#DejaVuSans-2e" x="63.623047"/>
       <use xlink:href="#DejaVuSans-32" x="95.410156"/>
      </g>
     </g>
    </g>
    <g id="ytick_3">
     <g id="line2d_3">
      <path d="M 69.3625 347.870221 
L 850.5625 347.870221 
" clip-path="url(#p39e18a2496)" style="fill: none; stroke: #cccccc; stroke-width: 0.8; stroke-linecap: round"/>
     </g>
     <g id="text_11">
      <!-- 0.4 -->
      <g style="fill: #262626" transform="translate(30.55625 355.468659) scale(0.2 -0.2)">
       <defs>
        <path id="DejaVuSans-34" d="M 2419 4116 
L 825 1625 
L 2419 1625 
L 2419 4116 
z
M 2253 4666 
L 3047 4666 
L 3047 1625 
L 3713 1625 
L 3713 1100 
L 3047 1100 
L 3047 0 
L 2419 0 
L 2419 1100 
L 313 1100 
L 313 1709 
L 2253 4666 
z
" transform="scale(0.015625)"/>
       </defs>
       <use xlink:href="#DejaVuSans-30"/>
       <use xlink:href="#DejaVuSans-2e" x="63.623047"/>
       <use xlink:href="#DejaVuSans-34" x="95.410156"/>
      </g>
     </g>
    </g>
    <g id="ytick_4">
     <g id="line2d_4">
      <path d="M 69.3625 265.85382 
L 850.5625 265.85382 
" clip-path="url(#p39e18a2496)" style="fill: none; stroke: #cccccc; stroke-width: 0.8; stroke-linecap: round"/>
     </g>
     <g id="text_12">
      <!-- 0.6 -->
      <g style="fill: #262626" transform="translate(30.55625 273.452258) scale(0.2 -0.2)">
       <defs>
        <path id="DejaVuSans-36" d="M 2113 2584 
Q 1688 2584 1439 2293 
Q 1191 2003 1191 1497 
Q 1191 994 1439 701 
Q 1688 409 2113 409 
Q 2538 409 2786 701 
Q 3034 994 3034 1497 
Q 3034 2003 2786 2293 
Q 2538 2584 2113 2584 
z
M 3366 4563 
L 3366 3988 
Q 3128 4100 2886 4159 
Q 2644 4219 2406 4219 
Q 1781 4219 1451 3797 
Q 1122 3375 1075 2522 
Q 1259 2794 1537 2939 
Q 1816 3084 2150 3084 
Q 2853 3084 3261 2657 
Q 3669 2231 3669 1497 
Q 3669 778 3244 343 
Q 2819 -91 2113 -91 
Q 1303 -91 875 529 
Q 447 1150 447 2328 
Q 447 3434 972 4092 
Q 1497 4750 2381 4750 
Q 2619 4750 2861 4703 
Q 3103 4656 3366 4563 
z
" transform="scale(0.015625)"/>
       </defs>
       <use xlink:href="#DejaVuSans-30"/>
       <use xlink:href="#DejaVuSans-2e" x="63.623047"/>
       <use xlink:href="#DejaVuSans-36" x="95.410156"/>
      </g>
     </g>
    </g>
    <g id="ytick_5">
     <g id="line2d_5">
      <path d="M 69.3625 183.837419 
L 850.5625 183.837419 
" clip-path="url(#p39e18a2496)" style="fill: none; stroke: #cccccc; stroke-width: 0.8; stroke-linecap: round"/>
     </g>
     <g id="text_13">
      <!-- 0.8 -->
      <g style="fill: #262626" transform="translate(30.55625 191.435857) scale(0.2 -0.2)">
       <defs>
        <path id="DejaVuSans-38" d="M 2034 2216 
Q 1584 2216 1326 1975 
Q 1069 1734 1069 1313 
Q 1069 891 1326 650 
Q 1584 409 2034 409 
Q 2484 409 2743 651 
Q 3003 894 3003 1313 
Q 3003 1734 2745 1975 
Q 2488 2216 2034 2216 
z
M 1403 2484 
Q 997 2584 770 2862 
Q 544 3141 544 3541 
Q 544 4100 942 4425 
Q 1341 4750 2034 4750 
Q 2731 4750 3128 4425 
Q 3525 4100 3525 3541 
Q 3525 3141 3298 2862 
Q 3072 2584 2669 2484 
Q 3125 2378 3379 2068 
Q 3634 1759 3634 1313 
Q 3634 634 3220 271 
Q 2806 -91 2034 -91 
Q 1263 -91 848 271 
Q 434 634 434 1313 
Q 434 1759 690 2068 
Q 947 2378 1403 2484 
z
M 1172 3481 
Q 1172 3119 1398 2916 
Q 1625 2713 2034 2713 
Q 2441 2713 2670 2916 
Q 2900 3119 2900 3481 
Q 2900 3844 2670 4047 
Q 2441 4250 2034 4250 
Q 1625 4250 1398 4047 
Q 1172 3844 1172 3481 
z
" transform="scale(0.015625)"/>
       </defs>
       <use xlink:href="#DejaVuSans-30"/>
       <use xlink:href="#DejaVuSans-2e" x="63.623047"/>
       <use xlink:href="#DejaVuSans-38" x="95.410156"/>
      </g>
     </g>
    </g>
    <g id="ytick_6">
     <g id="line2d_6">
      <path d="M 69.3625 101.821018 
L 850.5625 101.821018 
" clip-path="url(#p39e18a2496)" style="fill: none; stroke: #cccccc; stroke-width: 0.8; stroke-linecap: round"/>
     </g>
     <g id="text_14">
      <!-- 1.0 -->
      <g style="fill: #262626" transform="translate(30.55625 109.419456) scale(0.2 -0.2)">
       <use xlink:href="#DejaVuSans-31"/>
       <use xlink:href="#DejaVuSans-2e" x="63.623047"/>
       <use xlink:href="#DejaVuSans-30" x="95.410156"/>
      </g>
     </g>
    </g>
    <g id="ytick_7">
     <g id="line2d_7">
      <path d="M 69.3625 19.804617 
L 850.5625 19.804617 
" clip-path="url(#p39e18a2496)" style="fill: none; stroke: #cccccc; stroke-width: 0.8; stroke-linecap: round"/>
     </g>
     <g id="text_15">
      <!-- 1.2 -->
      <g style="fill: #262626" transform="translate(30.55625 27.403055) scale(0.2 -0.2)">
       <use xlink:href="#DejaVuSans-31"/>
       <use xlink:href="#DejaVuSans-2e" x="63.623047"/>
       <use xlink:href="#DejaVuSans-32" x="95.410156"/>
      </g>
     </g>
    </g>
    <g id="text_16">
     <!-- TM-score -->
     <g style="fill: #262626" transform="translate(22.396875 329.609375) rotate(-90) scale(0.2 -0.2)">
      <defs>
       <path id="DejaVuSans-54" d="M -19 4666 
L 3928 4666 
L 3928 4134 
L 2272 4134 
L 2272 0 
L 1638 0 
L 1638 4134 
L -19 4134 
L -19 4666 
z
" transform="scale(0.015625)"/>
       <path id="DejaVuSans-2d" d="M 313 2009 
L 1997 2009 
L 1997 1497 
L 313 1497 
L 313 2009 
z
" transform="scale(0.015625)"/>
       <path id="DejaVuSans-63" d="M 3122 3366 
L 3122 2828 
Q 2878 2963 2633 3030 
Q 2388 3097 2138 3097 
Q 1578 3097 1268 2742 
Q 959 2388 959 1747 
Q 959 1106 1268 751 
Q 1578 397 2138 397 
Q 2388 397 2633 464 
Q 2878 531 3122 666 
L 3122 134 
Q 2881 22 2623 -34 
Q 2366 -91 2075 -91 
Q 1284 -91 818 406 
Q 353 903 353 1747 
Q 353 2603 823 3093 
Q 1294 3584 2113 3584 
Q 2378 3584 2631 3529 
Q 2884 3475 3122 3366 
z
" transform="scale(0.015625)"/>
       <path id="DejaVuSans-6f" d="M 1959 3097 
Q 1497 3097 1228 2736 
Q 959 2375 959 1747 
Q 959 1119 1226 758 
Q 1494 397 1959 397 
Q 2419 397 2687 759 
Q 2956 1122 2956 1747 
Q 2956 2369 2687 2733 
Q 2419 3097 1959 3097 
z
M 1959 3584 
Q 2709 3584 3137 3096 
Q 3566 2609 3566 1747 
Q 3566 888 3137 398 
Q 2709 -91 1959 -91 
Q 1206 -91 779 398 
Q 353 888 353 1747 
Q 353 2609 779 3096 
Q 1206 3584 1959 3584 
z
" transform="scale(0.015625)"/>
       <path id="DejaVuSans-72" d="M 2631 2963 
Q 2534 3019 2420 3045 
Q 2306 3072 2169 3072 
Q 1681 3072 1420 2755 
Q 1159 2438 1159 1844 
L 1159 0 
L 581 0 
L 581 3500 
L 1159 3500 
L 1159 2956 
Q 1341 3275 1631 3429 
Q 1922 3584 2338 3584 
Q 2397 3584 2469 3576 
Q 2541 3569 2628 3553 
L 2631 2963 
z
" transform="scale(0.015625)"/>
      </defs>
      <use xlink:href="#DejaVuSans-54"/>
      <use xlink:href="#DejaVuSans-4d" x="61.083984"/>
      <use xlink:href="#DejaVuSans-2d" x="147.363281"/>
      <use xlink:href="#DejaVuSans-73" x="183.447266"/>
      <use xlink:href="#DejaVuSans-63" x="235.546875"/>
      <use xlink:href="#DejaVuSans-6f" x="290.527344"/>
      <use xlink:href="#DejaVuSans-72" x="351.708984"/>
      <use xlink:href="#DejaVuSans-65" x="390.572266"/>
     </g>
    </g>
   </g>
   <g id="PolyCollection_1">
    <defs>
     <path id="mccbfa09412" d="M 118.448536 -304.030416 
L 117.926464 -304.030416 
L 117.844629 -307.506352 
L 117.743574 -310.982288 
L 117.620896 -314.458224 
L 117.47451 -317.93416 
L 117.30284 -321.410097 
L 117.105021 -324.886033 
L 116.88107 -328.361969 
L 116.632037 -331.837905 
L 116.360076 -335.313841 
L 116.068454 -338.789777 
L 115.761458 -342.265713 
L 115.444212 -345.741649 
L 115.122405 -349.217585 
L 114.801941 -352.693521 
L 114.488555 -356.169457 
L 114.187417 -359.645393 
L 113.902767 -363.121329 
L 113.637635 -366.597265 
L 113.393653 -370.073201 
L 113.171013 -373.549137 
L 112.96856 -377.025073 
L 112.784018 -380.50101 
L 112.614332 -383.976946 
L 112.456076 -387.452882 
L 112.305903 -390.928818 
L 112.16096 -394.404754 
L 112.019245 -397.88069 
L 111.879859 -401.356626 
L 111.743122 -404.832562 
L 111.610558 -408.308498 
L 111.48474 -411.784434 
L 111.369029 -415.26037 
L 111.267234 -418.736306 
L 111.183231 -422.212242 
L 111.120579 -425.688178 
L 111.082169 -429.164114 
L 111.069933 -432.64005 
L 111.084624 -436.115986 
L 111.125679 -439.591922 
L 111.191149 -443.067859 
L 111.277709 -446.543795 
L 111.380699 -450.019731 
L 111.494223 -453.495667 
L 111.611255 -456.971603 
L 111.723778 -460.447539 
L 111.822926 -463.923475 
L 111.899146 -467.399411 
L 111.942374 -470.875347 
L 111.94221 -474.351283 
L 111.888116 -477.827219 
L 111.769597 -481.303155 
L 111.576378 -484.779091 
L 111.298552 -488.255027 
L 110.926694 -491.730963 
L 110.451952 -495.206899 
L 109.866092 -498.682835 
L 109.161552 -502.158772 
L 108.331501 -505.634708 
L 107.369964 -509.110644 
L 106.272041 -512.58658 
L 105.034267 -516.062516 
L 103.655126 -519.538452 
L 102.135753 -523.014388 
L 100.480775 -526.490324 
L 98.699273 -529.96626 
L 96.805772 -533.442196 
L 94.821153 -536.918132 
L 92.773362 -540.394068 
L 90.697777 -543.870004 
L 88.637111 -547.34594 
L 86.640723 -550.821876 
L 84.763298 -554.297812 
L 83.062873 -557.773748 
L 81.598267 -561.249685 
L 80.426063 -564.725621 
L 79.597327 -568.201557 
L 79.154321 -571.677493 
L 79.1275 -575.153429 
L 79.533065 -578.629365 
L 80.371327 -582.105301 
L 81.626076 -585.581237 
L 83.265037 -589.057173 
L 85.241434 -592.533109 
L 87.496521 -596.009045 
L 89.962904 -599.484981 
L 92.56834 -602.960917 
L 95.239724 -606.436853 
L 97.906904 -609.912789 
L 100.50606 -613.388725 
L 102.982382 -616.864661 
L 105.291914 -620.340597 
L 107.402497 -623.816534 
L 109.29384 -627.29247 
L 110.956821 -630.768406 
L 112.392189 -634.244342 
L 113.608849 -637.720278 
L 114.621934 -641.196214 
L 115.45085 -644.67215 
L 116.117444 -648.148086 
L 120.257556 -648.148086 
L 120.257556 -648.148086 
L 120.92415 -644.67215 
L 121.753066 -641.196214 
L 122.766151 -637.720278 
L 123.982811 -634.244342 
L 125.418179 -630.768406 
L 127.08116 -627.29247 
L 128.972503 -623.816534 
L 131.083086 -620.340597 
L 133.392618 -616.864661 
L 135.86894 -613.388725 
L 138.468096 -609.912789 
L 141.135276 -606.436853 
L 143.80666 -602.960917 
L 146.412096 -599.484981 
L 148.878479 -596.009045 
L 151.133566 -592.533109 
L 153.109963 -589.057173 
L 154.748924 -585.581237 
L 156.003673 -582.105301 
L 156.841935 -578.629365 
L 157.2475 -575.153429 
L 157.220679 -571.677493 
L 156.777673 -568.201557 
L 155.948937 -564.725621 
L 154.776733 -561.249685 
L 153.312127 -557.773748 
L 151.611702 -554.297812 
L 149.734277 -550.821876 
L 147.737889 -547.34594 
L 145.677223 -543.870004 
L 143.601638 -540.394068 
L 141.553847 -536.918132 
L 139.569228 -533.442196 
L 137.675727 -529.96626 
L 135.894225 -526.490324 
L 134.239247 -523.014388 
L 132.719874 -519.538452 
L 131.340733 -516.062516 
L 130.102959 -512.58658 
L 129.005036 -509.110644 
L 128.043499 -505.634708 
L 127.213448 -502.158772 
L 126.508908 -498.682835 
L 125.923048 -495.206899 
L 125.448306 -491.730963 
L 125.076448 -488.255027 
L 124.798622 -484.779091 
L 124.605403 -481.303155 
L 124.486884 -477.827219 
L 124.43279 -474.351283 
L 124.432626 -470.875347 
L 124.475854 -467.399411 
L 124.552074 -463.923475 
L 124.651222 -460.447539 
L 124.763745 -456.971603 
L 124.880777 -453.495667 
L 124.994301 -450.019731 
L 125.097291 -446.543795 
L 125.183851 -443.067859 
L 125.249321 -439.591922 
L 125.290376 -436.115986 
L 125.305067 -432.64005 
L 125.292831 -429.164114 
L 125.254421 -425.688178 
L 125.191769 -422.212242 
L 125.107766 -418.736306 
L 125.005971 -415.26037 
L 124.89026 -411.784434 
L 124.764442 -408.308498 
L 124.631878 -404.832562 
L 124.495141 -401.356626 
L 124.355755 -397.88069 
L 124.21404 -394.404754 
L 124.069097 -390.928818 
L 123.918924 -387.452882 
L 123.760668 -383.976946 
L 123.590982 -380.50101 
L 123.40644 -377.025073 
L 123.203987 -373.549137 
L 122.981347 -370.073201 
L 122.737365 -366.597265 
L 122.472233 -363.121329 
L 122.187583 -359.645393 
L 121.886445 -356.169457 
L 121.573059 -352.693521 
L 121.252595 -349.217585 
L 120.930788 -345.741649 
L 120.613542 -342.265713 
L 120.306546 -338.789777 
L 120.014924 -335.313841 
L 119.742963 -331.837905 
L 119.49393 -328.361969 
L 119.269979 -324.886033 
L 119.07216 -321.410097 
L 118.90049 -317.93416 
L 118.754104 -314.458224 
L 118.631426 -310.982288 
L 118.530371 -307.506352 
L 118.448536 -304.030416 
z
" style="stroke: #3d3d3d; stroke-opacity: 0.5"/>
    </defs>
    <g clip-path="url(#p39e18a2496)">
     <use xlink:href="#mccbfa09412" x="0" y="696.702001" style="fill: #d684bd; fill-opacity: 0.5; stroke: #3d3d3d; stroke-opacity: 0.5"/>
    </g>
   </g>
   <g id="PolyCollection_2">
    <defs>
     <path id="m99c40a2877" d="M 216.312756 -203.442944 
L 215.362244 -203.442944 
L 215.144605 -207.357456 
L 214.847318 -211.271968 
L 214.450085 -215.18648 
L 213.930795 -219.100992 
L 213.26655 -223.015504 
L 212.435067 -226.930016 
L 211.4164 -230.844528 
L 210.194861 -234.75904 
L 208.760978 -238.673552 
L 207.113265 -242.588064 
L 205.259578 -246.502576 
L 203.217831 -250.417088 
L 201.01593 -254.3316 
L 198.690815 -258.246112 
L 196.286684 -262.160624 
L 193.852532 -266.075136 
L 191.439282 -269.989648 
L 189.096856 -273.90416 
L 186.871546 -277.818672 
L 184.804001 -281.733184 
L 182.928083 -285.647696 
L 181.270636 -289.562208 
L 179.852121 -293.47672 
L 178.687859 -297.391232 
L 177.789532 -301.305744 
L 177.166559 -305.220256 
L 176.826968 -309.134768 
L 176.7775 -313.04928 
L 177.022866 -316.963792 
L 177.56422 -320.878304 
L 178.397151 -324.792816 
L 179.509574 -328.707328 
L 180.880003 -332.62184 
L 182.47663 -336.536352 
L 184.257514 -340.450864 
L 186.172035 -344.365376 
L 188.163499 -348.279888 
L 190.172645 -352.1944 
L 192.141612 -356.108912 
L 194.017874 -360.023424 
L 195.75766 -363.937936 
L 197.328458 -367.852448 
L 198.710386 -371.76696 
L 199.896319 -375.681472 
L 200.890902 -379.595984 
L 201.708647 -383.510496 
L 202.371443 -387.425008 
L 202.905802 -391.33952 
L 203.340181 -395.254032 
L 203.702631 -399.168544 
L 204.018975 -403.083056 
L 204.311599 -406.997568 
L 204.598867 -410.91208 
L 204.895098 -414.826592 
L 205.210951 -418.741104 
L 205.554053 -422.655616 
L 205.929684 -426.570128 
L 206.341333 -430.48464 
L 206.791019 -434.399152 
L 207.279313 -438.313664 
L 207.805096 -442.228176 
L 208.365158 -446.142688 
L 208.953783 -450.0572 
L 209.562507 -453.971712 
L 210.180164 -457.886224 
L 210.793334 -461.800736 
L 211.387159 -465.715248 
L 211.94648 -469.62976 
L 212.457115 -473.544272 
L 212.907121 -477.458784 
L 213.287857 -481.373296 
L 213.594702 -485.287808 
L 213.82735 -489.20232 
L 213.989668 -493.116832 
L 214.089163 -497.031344 
L 214.136164 -500.945856 
L 214.142822 -504.860368 
L 214.122084 -508.77488 
L 214.086718 -512.689392 
L 214.048501 -516.603904 
L 214.017591 -520.518416 
L 214.002116 -524.432928 
L 214.007945 -528.34744 
L 214.038641 -532.261952 
L 214.095536 -536.176464 
L 214.177917 -540.090976 
L 214.283304 -544.005488 
L 214.407787 -547.92 
L 214.546424 -551.834512 
L 214.693682 -555.749024 
L 214.843879 -559.663536 
L 214.991618 -563.578048 
L 215.132152 -567.49256 
L 215.261671 -571.407072 
L 215.37747 -575.321584 
L 215.477997 -579.236096 
L 215.562785 -583.150608 
L 215.632301 -587.06512 
L 215.68772 -590.979632 
L 215.98728 -590.979632 
L 215.98728 -590.979632 
L 216.042699 -587.06512 
L 216.112215 -583.150608 
L 216.197003 -579.236096 
L 216.29753 -575.321584 
L 216.413329 -571.407072 
L 216.542848 -567.49256 
L 216.683382 -563.578048 
L 216.831121 -559.663536 
L 216.981318 -555.749024 
L 217.128576 -551.834512 
L 217.267213 -547.92 
L 217.391696 -544.005488 
L 217.497083 -540.090976 
L 217.579464 -536.176464 
L 217.636359 -532.261952 
L 217.667055 -528.34744 
L 217.672884 -524.432928 
L 217.657409 -520.518416 
L 217.626499 -516.603904 
L 217.588282 -512.689392 
L 217.552916 -508.77488 
L 217.532178 -504.860368 
L 217.538836 -500.945856 
L 217.585837 -497.031344 
L 217.685332 -493.116832 
L 217.84765 -489.20232 
L 218.080298 -485.287808 
L 218.387143 -481.373296 
L 218.767879 -477.458784 
L 219.217885 -473.544272 
L 219.72852 -469.62976 
L 220.287841 -465.715248 
L 220.881666 -461.800736 
L 221.494836 -457.886224 
L 222.112493 -453.971712 
L 222.721217 -450.0572 
L 223.309842 -446.142688 
L 223.869904 -442.228176 
L 224.395687 -438.313664 
L 224.883981 -434.399152 
L 225.333667 -430.48464 
L 225.745316 -426.570128 
L 226.120947 -422.655616 
L 226.464049 -418.741104 
L 226.779902 -414.826592 
L 227.076133 -410.91208 
L 227.363401 -406.997568 
L 227.656025 -403.083056 
L 227.972369 -399.168544 
L 228.334819 -395.254032 
L 228.769198 -391.33952 
L 229.303557 -387.425008 
L 229.966353 -383.510496 
L 230.784098 -379.595984 
L 231.778681 -375.681472 
L 232.964614 -371.76696 
L 234.346542 -367.852448 
L 235.91734 -363.937936 
L 237.657126 -360.023424 
L 239.533388 -356.108912 
L 241.502355 -352.1944 
L 243.511501 -348.279888 
L 245.502965 -344.365376 
L 247.417486 -340.450864 
L 249.19837 -336.536352 
L 250.794997 -332.62184 
L 252.165426 -328.707328 
L 253.277849 -324.792816 
L 254.11078 -320.878304 
L 254.652134 -316.963792 
L 254.8975 -313.04928 
L 254.848032 -309.134768 
L 254.508441 -305.220256 
L 253.885468 -301.305744 
L 252.987141 -297.391232 
L 251.822879 -293.47672 
L 250.404364 -289.562208 
L 248.746917 -285.647696 
L 246.870999 -281.733184 
L 244.803454 -277.818672 
L 242.578144 -273.90416 
L 240.235718 -269.989648 
L 237.822468 -266.075136 
L 235.388316 -262.160624 
L 232.984185 -258.246112 
L 230.65907 -254.3316 
L 228.457169 -250.417088 
L 226.415422 -246.502576 
L 224.561735 -242.588064 
L 222.914022 -238.673552 
L 221.480139 -234.75904 
L 220.2586 -230.844528 
L 219.239933 -226.930016 
L 218.40845 -223.015504 
L 217.744205 -219.100992 
L 217.224915 -215.18648 
L 216.827682 -211.271968 
L 216.530395 -207.357456 
L 216.312756 -203.442944 
z
" style="stroke: #3d3d3d; stroke-opacity: 0.5"/>
    </defs>
    <g clip-path="url(#p39e18a2496)">
     <use xlink:href="#m99c40a2877" x="0" y="696.702001" style="fill: #7f7f7f; fill-opacity: 0.5; stroke: #3d3d3d; stroke-opacity: 0.5"/>
    </g>
   </g>
   <g id="PolyCollection_3">
    <defs>
     <path id="m50ace81db8" d="M 313.659743 -481.065824 
L 313.315257 -481.065824 
L 313.259721 -482.282293 
L 313.190572 -483.498762 
L 313.105752 -484.715231 
L 313.003174 -485.931699 
L 312.880755 -487.148168 
L 312.736435 -488.364637 
L 312.56818 -489.581106 
L 312.373968 -490.797575 
L 312.151754 -492.014044 
L 311.899443 -493.230512 
L 311.614862 -494.446981 
L 311.295757 -495.66345 
L 310.939834 -496.879919 
L 310.544848 -498.096388 
L 310.10875 -499.312857 
L 309.629889 -500.529326 
L 309.107253 -501.745794 
L 308.540735 -502.962263 
L 307.931393 -504.178732 
L 307.281664 -505.395201 
L 306.595525 -506.61167 
L 305.878549 -507.828139 
L 305.137861 -509.044607 
L 304.381977 -510.261076 
L 303.620529 -511.477545 
L 302.863892 -512.694014 
L 302.122738 -513.910483 
L 301.407531 -515.126952 
L 300.728005 -516.34342 
L 300.092654 -517.559889 
L 299.508264 -518.776358 
L 298.979523 -519.992827 
L 298.508748 -521.209296 
L 298.095742 -522.425765 
L 297.737826 -523.642234 
L 297.430034 -524.858702 
L 297.165487 -526.075171 
L 296.935918 -527.29164 
L 296.732301 -528.508109 
L 296.545536 -529.724578 
L 296.367108 -530.941047 
L 296.189634 -532.157515 
L 296.007231 -533.373984 
L 295.815636 -534.590453 
L 295.612049 -535.806922 
L 295.394707 -537.023391 
L 295.16222 -538.23986 
L 294.912782 -539.456328 
L 294.643343 -540.672797 
L 294.348891 -541.889266 
L 294.021964 -543.105735 
L 293.652498 -544.322204 
L 293.228084 -545.538673 
L 292.734633 -546.755142 
L 292.157436 -547.97161 
L 291.482506 -549.188079 
L 290.698094 -550.404548 
L 289.796222 -551.621017 
L 288.774072 -552.837486 
L 287.635109 -554.053955 
L 286.38981 -555.270423 
L 285.05594 -556.486892 
L 283.658357 -557.703361 
L 282.228344 -558.91983 
L 280.802542 -560.136299 
L 279.421562 -561.352768 
L 278.128361 -562.569237 
L 276.966502 -563.785705 
L 275.978374 -565.002174 
L 275.203477 -566.218643 
L 274.67682 -567.435112 
L 274.4275 -568.651581 
L 274.477497 -569.86805 
L 274.840714 -571.084518 
L 275.522288 -572.300987 
L 276.51821 -573.517456 
L 277.815254 -574.733925 
L 279.391274 -575.950394 
L 281.215849 -577.166863 
L 283.251311 -578.383331 
L 285.454123 -579.5998 
L 287.776573 -580.816269 
L 290.168696 -582.032738 
L 292.580348 -583.249207 
L 294.963273 -584.465676 
L 297.273056 -585.682145 
L 299.470815 -586.898613 
L 301.524513 -588.115082 
L 303.409823 -589.331551 
L 305.110484 -590.54802 
L 306.61817 -591.764489 
L 307.931912 -592.980958 
L 309.057159 -594.197426 
L 310.004583 -595.413895 
L 310.788758 -596.630364 
L 311.426817 -597.846833 
L 311.937194 -599.063302 
L 312.338526 -600.279771 
L 312.648767 -601.496239 
L 314.326233 -601.496239 
L 314.326233 -601.496239 
L 314.636474 -600.279771 
L 315.037806 -599.063302 
L 315.548183 -597.846833 
L 316.186242 -596.630364 
L 316.970417 -595.413895 
L 317.917841 -594.197426 
L 319.043088 -592.980958 
L 320.35683 -591.764489 
L 321.864516 -590.54802 
L 323.565177 -589.331551 
L 325.450487 -588.115082 
L 327.504185 -586.898613 
L 329.701944 -585.682145 
L 332.011727 -584.465676 
L 334.394652 -583.249207 
L 336.806304 -582.032738 
L 339.198427 -580.816269 
L 341.520877 -579.5998 
L 343.723689 -578.383331 
L 345.759151 -577.166863 
L 347.583726 -575.950394 
L 349.159746 -574.733925 
L 350.45679 -573.517456 
L 351.452712 -572.300987 
L 352.134286 -571.084518 
L 352.497503 -569.86805 
L 352.5475 -568.651581 
L 352.29818 -567.435112 
L 351.771523 -566.218643 
L 350.996626 -565.002174 
L 350.008498 -563.785705 
L 348.846639 -562.569237 
L 347.553438 -561.352768 
L 346.172458 -560.136299 
L 344.746656 -558.91983 
L 343.316643 -557.703361 
L 341.91906 -556.486892 
L 340.58519 -555.270423 
L 339.339891 -554.053955 
L 338.200928 -552.837486 
L 337.178778 -551.621017 
L 336.276906 -550.404548 
L 335.492494 -549.188079 
L 334.817564 -547.97161 
L 334.240367 -546.755142 
L 333.746916 -545.538673 
L 333.322502 -544.322204 
L 332.953036 -543.105735 
L 332.626109 -541.889266 
L 332.331657 -540.672797 
L 332.062218 -539.456328 
L 331.81278 -538.23986 
L 331.580293 -537.023391 
L 331.362951 -535.806922 
L 331.159364 -534.590453 
L 330.967769 -533.373984 
L 330.785366 -532.157515 
L 330.607892 -530.941047 
L 330.429464 -529.724578 
L 330.242699 -528.508109 
L 330.039082 -527.29164 
L 329.809513 -526.075171 
L 329.544966 -524.858702 
L 329.237174 -523.642234 
L 328.879258 -522.425765 
L 328.466252 -521.209296 
L 327.995477 -519.992827 
L 327.466736 -518.776358 
L 326.882346 -517.559889 
L 326.246995 -516.34342 
L 325.567469 -515.126952 
L 324.852262 -513.910483 
L 324.111108 -512.694014 
L 323.354471 -511.477545 
L 322.593023 -510.261076 
L 321.837139 -509.044607 
L 321.096451 -507.828139 
L 320.379475 -506.61167 
L 319.693336 -505.395201 
L 319.043607 -504.178732 
L 318.434265 -502.962263 
L 317.867747 -501.745794 
L 317.345111 -500.529326 
L 316.86625 -499.312857 
L 316.430152 -498.096388 
L 316.035166 -496.879919 
L 315.679243 -495.66345 
L 315.360138 -494.446981 
L 315.075557 -493.230512 
L 314.823246 -492.014044 
L 314.601032 -490.797575 
L 314.40682 -489.581106 
L 314.238565 -488.364637 
L 314.094245 -487.148168 
L 313.971826 -485.931699 
L 313.869248 -484.715231 
L 313.784428 -483.498762 
L 313.715279 -482.282293 
L 313.659743 -481.065824 
z
" style="stroke: #3d3d3d; stroke-opacity: 0.5"/>
    </defs>
    <g clip-path="url(#p39e18a2496)">
     <use xlink:href="#m50ace81db8" x="0" y="696.702001" style="fill: #9372b2; fill-opacity: 0.5; stroke: #3d3d3d; stroke-opacity: 0.5"/>
    </g>
   </g>
   <g id="PolyCollection_4">
    <defs>
     <path id="m1af694c52e" d="M 411.238767 -344.004157 
L 411.036233 -344.004157 
L 410.985639 -346.768321 
L 410.919968 -349.532484 
L 410.839852 -352.296648 
L 410.748471 -355.060812 
L 410.651808 -357.824976 
L 410.558283 -360.58914 
L 410.477686 -363.353304 
L 410.419536 -366.117467 
L 410.39125 -368.881631 
L 410.396589 -371.645795 
L 410.434835 -374.409959 
L 410.500951 -377.174123 
L 410.586673 -379.938287 
L 410.682199 -382.70245 
L 410.778013 -385.466614 
L 410.866376 -388.230778 
L 410.942177 -390.994942 
L 411.003088 -393.759106 
L 411.049146 -396.52327 
L 411.082023 -399.287434 
L 411.104226 -402.051597 
L 411.118437 -404.815761 
L 411.127068 -407.579925 
L 411.132047 -410.344089 
L 411.134777 -413.108253 
L 411.136201 -415.872417 
L 411.136908 -418.63658 
L 411.137242 -421.400744 
L 411.137393 -424.164908 
L 411.137457 -426.929072 
L 411.137484 -429.693236 
L 411.137494 -432.4574 
L 411.137497 -435.221563 
L 411.137496 -437.985727 
L 411.137489 -440.749891 
L 411.137471 -443.514055 
L 411.137421 -446.278219 
L 411.137298 -449.042383 
L 411.137003 -451.806546 
L 411.136332 -454.57071 
L 411.134875 -457.334874 
L 411.131855 -460.099038 
L 411.125887 -462.863202 
L 411.114638 -465.627366 
L 411.094423 -468.391529 
L 411.059801 -471.155693 
L 411.003307 -473.919857 
L 410.915532 -476.684021 
L 410.785764 -479.448185 
L 410.603368 -482.212349 
L 410.359934 -484.976513 
L 410.051925 -487.740676 
L 409.68331 -490.50484 
L 409.267407 -493.269004 
L 408.827157 -496.033168 
L 408.393277 -498.797332 
L 408.000277 -501.561496 
L 407.680927 -504.325659 
L 407.46031 -507.089823 
L 407.350818 -509.853987 
L 407.349216 -512.618151 
L 407.436372 -515.382315 
L 407.579472 -518.146479 
L 407.735917 -520.910642 
L 407.857762 -523.674806 
L 407.895605 -526.43897 
L 407.801203 -529.203134 
L 407.528617 -531.967298 
L 407.034203 -534.731462 
L 406.27618 -537.495625 
L 405.214721 -540.259789 
L 403.813503 -543.023953 
L 402.04335 -545.788117 
L 399.888027 -548.552281 
L 397.351421 -551.316445 
L 394.464656 -554.080608 
L 391.291325 -556.844772 
L 387.929296 -559.608936 
L 384.508436 -562.3731 
L 381.184608 -565.137264 
L 378.131033 -567.901428 
L 375.528039 -570.665591 
L 373.551534 -573.429755 
L 372.359723 -576.193919 
L 372.0775 -578.958083 
L 372.779007 -581.722247 
L 374.470886 -584.486411 
L 377.080662 -587.250575 
L 380.455237 -590.014738 
L 384.372931 -592.778902 
L 388.56886 -595.543066 
L 392.769345 -598.30723 
L 396.727844 -601.071394 
L 400.25433 -603.835558 
L 403.232037 -606.599721 
L 405.619382 -609.363885 
L 407.438994 -612.128049 
L 408.758667 -614.892213 
L 409.670001 -617.656377 
L 412.604999 -617.656377 
L 412.604999 -617.656377 
L 413.516333 -614.892213 
L 414.836006 -612.128049 
L 416.655618 -609.363885 
L 419.042963 -606.599721 
L 422.02067 -603.835558 
L 425.547156 -601.071394 
L 429.505655 -598.30723 
L 433.70614 -595.543066 
L 437.902069 -592.778902 
L 441.819763 -590.014738 
L 445.194338 -587.250575 
L 447.804114 -584.486411 
L 449.495993 -581.722247 
L 450.1975 -578.958083 
L 449.915277 -576.193919 
L 448.723466 -573.429755 
L 446.746961 -570.665591 
L 444.143967 -567.901428 
L 441.090392 -565.137264 
L 437.766564 -562.3731 
L 434.345704 -559.608936 
L 430.983675 -556.844772 
L 427.810344 -554.080608 
L 424.923579 -551.316445 
L 422.386973 -548.552281 
L 420.23165 -545.788117 
L 418.461497 -543.023953 
L 417.060279 -540.259789 
L 415.99882 -537.495625 
L 415.240797 -534.731462 
L 414.746383 -531.967298 
L 414.473797 -529.203134 
L 414.379395 -526.43897 
L 414.417238 -523.674806 
L 414.539083 -520.910642 
L 414.695528 -518.146479 
L 414.838628 -515.382315 
L 414.925784 -512.618151 
L 414.924182 -509.853987 
L 414.81469 -507.089823 
L 414.594073 -504.325659 
L 414.274723 -501.561496 
L 413.881723 -498.797332 
L 413.447843 -496.033168 
L 413.007593 -493.269004 
L 412.59169 -490.50484 
L 412.223075 -487.740676 
L 411.915066 -484.976513 
L 411.671632 -482.212349 
L 411.489236 -479.448185 
L 411.359468 -476.684021 
L 411.271693 -473.919857 
L 411.215199 -471.155693 
L 411.180577 -468.391529 
L 411.160362 -465.627366 
L 411.149113 -462.863202 
L 411.143145 -460.099038 
L 411.140125 -457.334874 
L 411.138668 -454.57071 
L 411.137997 -451.806546 
L 411.137702 -449.042383 
L 411.137579 -446.278219 
L 411.137529 -443.514055 
L 411.137511 -440.749891 
L 411.137504 -437.985727 
L 411.137503 -435.221563 
L 411.137506 -432.4574 
L 411.137516 -429.693236 
L 411.137543 -426.929072 
L 411.137607 -424.164908 
L 411.137758 -421.400744 
L 411.138092 -418.63658 
L 411.138799 -415.872417 
L 411.140223 -413.108253 
L 411.142953 -410.344089 
L 411.147932 -407.579925 
L 411.156563 -404.815761 
L 411.170774 -402.051597 
L 411.192977 -399.287434 
L 411.225854 -396.52327 
L 411.271912 -393.759106 
L 411.332823 -390.994942 
L 411.408624 -388.230778 
L 411.496987 -385.466614 
L 411.592801 -382.70245 
L 411.688327 -379.938287 
L 411.774049 -377.174123 
L 411.840165 -374.409959 
L 411.878411 -371.645795 
L 411.88375 -368.881631 
L 411.855464 -366.117467 
L 411.797314 -363.353304 
L 411.716717 -360.58914 
L 411.623192 -357.824976 
L 411.526529 -355.060812 
L 411.435148 -352.296648 
L 411.355032 -349.532484 
L 411.289361 -346.768321 
L 411.238767 -344.004157 
z
" style="stroke: #3d3d3d; stroke-opacity: 0.5"/>
    </defs>
    <g clip-path="url(#p39e18a2496)">
     <use xlink:href="#m1af694c52e" x="0" y="696.702001" style="fill: #845b53; fill-opacity: 0.5; stroke: #3d3d3d; stroke-opacity: 0.5"/>
    </g>
   </g>
   <g id="PolyCollection_5">
    <defs>
     <path id="m93225c6489" d="M 508.956979 -235.159037 
L 508.618021 -235.159037 
L 508.53281 -236.311512 
L 508.413556 -237.463987 
L 508.25004 -238.616462 
L 508.029803 -239.768936 
L 507.737767 -240.921411 
L 507.355898 -242.073886 
L 506.863123 -243.226361 
L 506.235732 -244.378835 
L 505.448552 -245.53131 
L 504.477044 -246.683785 
L 503.30033 -247.83626 
L 501.904809 -248.988734 
L 500.287753 -250.141209 
L 498.460042 -251.293684 
L 496.447173 -252.446159 
L 494.287929 -253.598633 
L 492.030603 -254.751108 
L 489.727299 -255.903583 
L 487.427467 -257.056058 
L 485.172212 -258.208532 
L 482.990901 -259.361007 
L 480.901153 -260.513482 
L 478.912418 -261.665957 
L 477.032403 -262.818431 
L 475.274674 -263.970906 
L 473.665314 -265.123381 
L 472.246576 -266.275856 
L 471.076185 -267.42833 
L 470.221974 -268.580805 
L 469.752787 -269.73328 
L 469.7275 -270.885755 
L 470.184479 -272.038229 
L 471.133658 -273.190704 
L 472.552736 -274.343179 
L 474.388002 -275.495654 
L 476.55934 -276.648128 
L 478.968191 -277.800603 
L 481.506933 -278.953078 
L 484.068207 -280.105553 
L 486.553124 -281.258027 
L 488.877761 -282.410502 
L 490.977836 -283.562977 
L 492.811669 -284.715452 
L 494.361551 -285.867926 
L 495.633537 -287.020401 
L 496.65549 -288.172876 
L 497.473235 -289.325351 
L 498.144823 -290.477825 
L 498.733304 -291.6303 
L 499.298833 -292.782775 
L 499.891244 -293.93525 
L 500.544312 -295.087724 
L 501.272696 -296.240199 
L 502.072012 -297.392674 
L 502.921869 -298.545149 
L 503.791104 -299.697623 
L 504.64404 -300.850098 
L 505.446537 -302.002573 
L 506.17079 -303.155048 
L 506.798241 -304.307522 
L 507.32047 -305.459997 
L 507.738328 -306.612472 
L 508.059886 -307.764947 
L 508.297817 -308.917421 
L 508.466814 -310.069896 
L 508.581416 -311.222371 
L 508.654464 -312.374845 
L 508.696208 -313.52732 
L 508.713961 -314.679795 
L 508.712181 -315.83227 
L 508.69283 -316.984744 
L 508.655917 -318.137219 
L 508.600156 -319.289694 
L 508.523709 -320.442169 
L 508.424962 -321.594643 
L 508.303299 -322.747118 
L 508.159787 -323.899593 
L 507.997666 -325.052068 
L 507.822574 -326.204542 
L 507.642417 -327.357017 
L 507.466872 -328.509492 
L 507.306584 -329.661967 
L 507.172131 -330.814441 
L 507.072922 -331.966916 
L 507.016179 -333.119391 
L 507.006125 -334.271866 
L 507.043518 -335.42434 
L 507.125556 -336.576815 
L 507.246203 -337.72929 
L 507.396854 -338.881765 
L 507.567293 -340.034239 
L 507.746774 -341.186714 
L 507.925106 -342.339189 
L 508.093575 -343.491664 
L 508.245591 -344.644138 
L 508.376991 -345.796613 
L 508.486001 -346.949088 
L 508.572907 -348.101563 
L 508.639545 -349.254037 
L 508.935455 -349.254037 
L 508.935455 -349.254037 
L 509.002093 -348.101563 
L 509.088999 -346.949088 
L 509.198009 -345.796613 
L 509.329409 -344.644138 
L 509.481425 -343.491664 
L 509.649894 -342.339189 
L 509.828226 -341.186714 
L 510.007707 -340.034239 
L 510.178146 -338.881765 
L 510.328797 -337.72929 
L 510.449444 -336.576815 
L 510.531482 -335.42434 
L 510.568875 -334.271866 
L 510.558821 -333.119391 
L 510.502078 -331.966916 
L 510.402869 -330.814441 
L 510.268416 -329.661967 
L 510.108128 -328.509492 
L 509.932583 -327.357017 
L 509.752426 -326.204542 
L 509.577334 -325.052068 
L 509.415213 -323.899593 
L 509.271701 -322.747118 
L 509.150038 -321.594643 
L 509.051291 -320.442169 
L 508.974844 -319.289694 
L 508.919083 -318.137219 
L 508.88217 -316.984744 
L 508.862819 -315.83227 
L 508.861039 -314.679795 
L 508.878792 -313.52732 
L 508.920536 -312.374845 
L 508.993584 -311.222371 
L 509.108186 -310.069896 
L 509.277183 -308.917421 
L 509.515114 -307.764947 
L 509.836672 -306.612472 
L 510.25453 -305.459997 
L 510.776759 -304.307522 
L 511.40421 -303.155048 
L 512.128463 -302.002573 
L 512.93096 -300.850098 
L 513.783896 -299.697623 
L 514.653131 -298.545149 
L 515.502988 -297.392674 
L 516.302304 -296.240199 
L 517.030688 -295.087724 
L 517.683756 -293.93525 
L 518.276167 -292.782775 
L 518.841696 -291.6303 
L 519.430177 -290.477825 
L 520.101765 -289.325351 
L 520.91951 -288.172876 
L 521.941463 -287.020401 
L 523.213449 -285.867926 
L 524.763331 -284.715452 
L 526.597164 -283.562977 
L 528.697239 -282.410502 
L 531.021876 -281.258027 
L 533.506793 -280.105553 
L 536.068067 -278.953078 
L 538.606809 -277.800603 
L 541.01566 -276.648128 
L 543.186998 -275.495654 
L 545.022264 -274.343179 
L 546.441342 -273.190704 
L 547.390521 -272.038229 
L 547.8475 -270.885755 
L 547.822213 -269.73328 
L 547.353026 -268.580805 
L 546.498815 -267.42833 
L 545.328424 -266.275856 
L 543.909686 -265.123381 
L 542.300326 -263.970906 
L 540.542597 -262.818431 
L 538.662582 -261.665957 
L 536.673847 -260.513482 
L 534.584099 -259.361007 
L 532.402788 -258.208532 
L 530.147533 -257.056058 
L 527.847701 -255.903583 
L 525.544397 -254.751108 
L 523.287071 -253.598633 
L 521.127827 -252.446159 
L 519.114958 -251.293684 
L 517.287247 -250.141209 
L 515.670191 -248.988734 
L 514.27467 -247.83626 
L 513.097956 -246.683785 
L 512.126448 -245.53131 
L 511.339268 -244.378835 
L 510.711877 -243.226361 
L 510.219102 -242.073886 
L 509.837233 -240.921411 
L 509.545197 -239.768936 
L 509.32496 -238.616462 
L 509.161444 -237.463987 
L 509.04219 -236.311512 
L 508.956979 -235.159037 
z
" style="stroke: #3d3d3d; stroke-opacity: 0.5"/>
    </defs>
    <g clip-path="url(#p39e18a2496)">
     <use xlink:href="#m93225c6489" x="0" y="696.702001" style="fill: #3274a1; fill-opacity: 0.5; stroke: #3d3d3d; stroke-opacity: 0.5"/>
    </g>
   </g>
   <g id="PolyCollection_6">
    <defs>
     <path id="mf90e1569ce" d="M 607.408514 -160.302001 
L 605.466486 -160.302001 
L 605.146754 -164.876923 
L 604.748297 -169.451845 
L 604.260651 -174.026766 
L 603.674574 -178.601688 
L 602.982847 -183.17661 
L 602.181064 -187.751532 
L 601.268338 -192.326453 
L 600.247836 -196.901375 
L 599.127061 -201.476297 
L 597.917819 -206.051218 
L 596.635849 -210.62614 
L 595.30012 -215.201062 
L 593.93184 -219.775983 
L 592.553256 -224.350905 
L 591.18636 -228.925827 
L 589.851615 -233.500749 
L 588.56681 -238.07567 
L 587.34615 -242.650592 
L 586.199638 -247.225514 
L 585.132769 -251.800435 
L 584.146548 -256.375357 
L 583.237778 -260.950279 
L 582.399564 -265.5252 
L 581.621991 -270.100122 
L 580.892893 -274.675044 
L 580.198685 -279.249966 
L 579.525223 -283.824887 
L 578.858666 -288.399809 
L 578.186313 -292.974731 
L 577.497411 -297.549652 
L 576.783883 -302.124574 
L 576.040954 -306.699496 
L 575.2676 -311.274417 
L 574.466807 -315.849339 
L 573.645552 -320.424261 
L 572.814529 -324.999183 
L 571.98758 -329.574104 
L 571.180894 -334.149026 
L 570.412018 -338.723948 
L 569.698773 -343.298869 
L 569.058172 -347.873791 
L 568.505432 -352.448713 
L 568.053185 -357.023635 
L 567.710931 -361.598556 
L 567.484783 -366.173478 
L 567.3775 -370.7484 
L 567.388785 -375.323321 
L 567.515784 -379.898243 
L 567.753722 -384.473165 
L 568.096588 -389.048086 
L 568.537792 -393.623008 
L 569.070709 -398.19793 
L 569.689058 -402.772852 
L 570.387076 -407.347773 
L 571.159471 -411.922695 
L 572.001181 -416.497617 
L 572.906968 -421.072538 
L 573.870942 -425.64746 
L 574.886076 -430.222382 
L 575.943837 -434.797303 
L 577.033995 -439.372225 
L 578.144696 -443.947147 
L 579.262828 -448.522069 
L 580.374664 -453.09699 
L 581.466735 -457.671912 
L 582.526831 -462.246834 
L 583.545014 -466.821755 
L 584.514495 -471.396677 
L 585.432266 -475.971599 
L 586.299382 -480.54652 
L 587.120841 -485.121442 
L 587.905076 -489.696364 
L 588.663091 -494.271286 
L 589.407362 -498.846207 
L 590.15061 -503.421129 
L 590.904584 -507.996051 
L 591.678987 -512.570972 
L 592.480636 -517.145894 
L 593.312929 -521.720816 
L 594.175642 -526.295737 
L 595.065046 -530.870659 
L 595.974302 -535.445581 
L 596.894074 -540.020503 
L 597.813277 -544.595424 
L 598.71989 -549.170346 
L 599.601766 -553.745268 
L 600.447367 -558.320189 
L 601.246394 -562.895111 
L 601.990271 -567.470033 
L 602.672476 -572.044954 
L 603.288707 -576.619876 
L 603.836895 -581.194798 
L 604.317091 -585.76972 
L 604.731237 -590.344641 
L 605.082857 -594.919563 
L 605.376701 -599.494485 
L 605.61837 -604.069406 
L 605.813948 -608.644328 
L 605.969672 -613.21925 
L 606.905328 -613.21925 
L 606.905328 -613.21925 
L 607.061052 -608.644328 
L 607.25663 -604.069406 
L 607.498299 -599.494485 
L 607.792143 -594.919563 
L 608.143763 -590.344641 
L 608.557909 -585.76972 
L 609.038105 -581.194798 
L 609.586293 -576.619876 
L 610.202524 -572.044954 
L 610.884729 -567.470033 
L 611.628606 -562.895111 
L 612.427633 -558.320189 
L 613.273234 -553.745268 
L 614.15511 -549.170346 
L 615.061723 -544.595424 
L 615.980926 -540.020503 
L 616.900698 -535.445581 
L 617.809954 -530.870659 
L 618.699358 -526.295737 
L 619.562071 -521.720816 
L 620.394364 -517.145894 
L 621.196013 -512.570972 
L 621.970416 -507.996051 
L 622.72439 -503.421129 
L 623.467638 -498.846207 
L 624.211909 -494.271286 
L 624.969924 -489.696364 
L 625.754159 -485.121442 
L 626.575618 -480.54652 
L 627.442734 -475.971599 
L 628.360505 -471.396677 
L 629.329986 -466.821755 
L 630.348169 -462.246834 
L 631.408265 -457.671912 
L 632.500336 -453.09699 
L 633.612172 -448.522069 
L 634.730304 -443.947147 
L 635.841005 -439.372225 
L 636.931163 -434.797303 
L 637.988924 -430.222382 
L 639.004058 -425.64746 
L 639.968032 -421.072538 
L 640.873819 -416.497617 
L 641.715529 -411.922695 
L 642.487924 -407.347773 
L 643.185942 -402.772852 
L 643.804291 -398.19793 
L 644.337208 -393.623008 
L 644.778412 -389.048086 
L 645.121278 -384.473165 
L 645.359216 -379.898243 
L 645.486215 -375.323321 
L 645.4975 -370.7484 
L 645.390217 -366.173478 
L 645.164069 -361.598556 
L 644.821815 -357.023635 
L 644.369568 -352.448713 
L 643.816828 -347.873791 
L 643.176227 -343.298869 
L 642.462982 -338.723948 
L 641.694106 -334.149026 
L 640.88742 -329.574104 
L 640.060471 -324.999183 
L 639.229448 -320.424261 
L 638.408193 -315.849339 
L 637.6074 -311.274417 
L 636.834046 -306.699496 
L 636.091117 -302.124574 
L 635.377589 -297.549652 
L 634.688687 -292.974731 
L 634.016334 -288.399809 
L 633.349777 -283.824887 
L 632.676315 -279.249966 
L 631.982107 -274.675044 
L 631.253009 -270.100122 
L 630.475436 -265.5252 
L 629.637222 -260.950279 
L 628.728452 -256.375357 
L 627.742231 -251.800435 
L 626.675362 -247.225514 
L 625.52885 -242.650592 
L 624.30819 -238.07567 
L 623.023385 -233.500749 
L 621.68864 -228.925827 
L 620.321744 -224.350905 
L 618.94316 -219.775983 
L 617.57488 -215.201062 
L 616.239151 -210.62614 
L 614.957181 -206.051218 
L 613.747939 -201.476297 
L 612.627164 -196.901375 
L 611.606662 -192.326453 
L 610.693936 -187.751532 
L 609.892153 -183.17661 
L 609.200426 -178.601688 
L 608.614349 -174.026766 
L 608.126703 -169.451845 
L 607.728246 -164.876923 
L 607.408514 -160.302001 
z
" style="stroke: #3d3d3d; stroke-opacity: 0.5"/>
    </defs>
    <g clip-path="url(#p39e18a2496)">
     <use xlink:href="#mf90e1569ce" x="0" y="696.702001" style="fill: #e1812c; fill-opacity: 0.5; stroke: #3d3d3d; stroke-opacity: 0.5"/>
    </g>
   </g>
   <g id="PolyCollection_7">
    <defs>
     <path id="m1901756710" d="M 704.231842 -238.032469 
L 703.943158 -238.032469 
L 703.888377 -240.254633 
L 703.820395 -242.476797 
L 703.739076 -244.698961 
L 703.645473 -246.921125 
L 703.542017 -249.143288 
L 703.432532 -251.365452 
L 703.321996 -253.587616 
L 703.216056 -255.80978 
L 703.1203 -258.031944 
L 703.039368 -260.254108 
L 702.976054 -262.476271 
L 702.930532 -264.698435 
L 702.899883 -266.920599 
L 702.878048 -269.142763 
L 702.856266 -271.364927 
L 702.823991 -273.587091 
L 702.770188 -275.809254 
L 702.684834 -278.031418 
L 702.560391 -280.253582 
L 702.39301 -282.475746 
L 702.183229 -284.69791 
L 701.936009 -286.920074 
L 701.660019 -289.142237 
L 701.366246 -291.364401 
L 701.066118 -293.586565 
L 700.769447 -295.808729 
L 700.482593 -298.030893 
L 700.207229 -300.253057 
L 699.940013 -302.47522 
L 699.673305 -304.697384 
L 699.396841 -306.919548 
L 699.100046 -309.141712 
L 698.774481 -311.363876 
L 698.415864 -313.58604 
L 698.025118 -315.808203 
L 697.608145 -318.030367 
L 697.174263 -320.252531 
L 696.733578 -322.474695 
L 696.29382 -324.696859 
L 695.857305 -326.919023 
L 695.418657 -329.141186 
L 694.96378 -331.36335 
L 694.470269 -333.585514 
L 693.909199 -335.807678 
L 693.247931 -338.029842 
L 692.453498 -340.252006 
L 691.496054 -342.47417 
L 690.351989 -344.696333 
L 689.006438 -346.918497 
L 687.455059 -349.140661 
L 685.705082 -351.362825 
L 683.775691 -353.584989 
L 681.697826 -355.807153 
L 679.513465 -358.029316 
L 677.274438 -360.25148 
L 675.040741 -362.473644 
L 672.878334 -364.695808 
L 670.856387 -366.917972 
L 669.043941 -369.140136 
L 667.506056 -371.362299 
L 666.299585 -373.584463 
L 665.468898 -375.806627 
L 665.041985 -378.028791 
L 665.0275 -380.250955 
L 665.413319 -382.473119 
L 666.167055 -384.695282 
L 667.23876 -386.917446 
L 668.565663 -389.13961 
L 670.078449 -391.361774 
L 671.708209 -393.583938 
L 673.393052 -395.806102 
L 675.083359 -398.028265 
L 676.744891 -400.250429 
L 678.359376 -402.472593 
L 679.922672 -404.694757 
L 681.441055 -406.916921 
L 682.926506 -409.139085 
L 684.391968 -411.361248 
L 685.84745 -413.583412 
L 687.297547 -415.805576 
L 688.740582 -418.02774 
L 690.169184 -420.249904 
L 691.571863 -422.472068 
L 692.935009 -424.694231 
L 694.244794 -426.916395 
L 695.488621 -429.138559 
L 696.655957 -431.360723 
L 697.738628 -433.582887 
L 698.730732 -435.805051 
L 699.628409 -438.027215 
L 700.429636 -440.249378 
L 701.134138 -442.471542 
L 701.743418 -444.693706 
L 702.260817 -446.91587 
L 702.691523 -449.138034 
L 703.042433 -451.360198 
L 703.321853 -453.582361 
L 703.53904 -455.804525 
L 703.703658 -458.026689 
L 704.471342 -458.026689 
L 704.471342 -458.026689 
L 704.63596 -455.804525 
L 704.853147 -453.582361 
L 705.132567 -451.360198 
L 705.483477 -449.138034 
L 705.914183 -446.91587 
L 706.431582 -444.693706 
L 707.040862 -442.471542 
L 707.745364 -440.249378 
L 708.546591 -438.027215 
L 709.444268 -435.805051 
L 710.436372 -433.582887 
L 711.519043 -431.360723 
L 712.686379 -429.138559 
L 713.930206 -426.916395 
L 715.239991 -424.694231 
L 716.603137 -422.472068 
L 718.005816 -420.249904 
L 719.434418 -418.02774 
L 720.877453 -415.805576 
L 722.32755 -413.583412 
L 723.783032 -411.361248 
L 725.248494 -409.139085 
L 726.733945 -406.916921 
L 728.252328 -404.694757 
L 729.815624 -402.472593 
L 731.430109 -400.250429 
L 733.091641 -398.028265 
L 734.781948 -395.806102 
L 736.466791 -393.583938 
L 738.096551 -391.361774 
L 739.609337 -389.13961 
L 740.93624 -386.917446 
L 742.007945 -384.695282 
L 742.761681 -382.473119 
L 743.1475 -380.250955 
L 743.133015 -378.028791 
L 742.706102 -375.806627 
L 741.875415 -373.584463 
L 740.668944 -371.362299 
L 739.131059 -369.140136 
L 737.318613 -366.917972 
L 735.296666 -364.695808 
L 733.134259 -362.473644 
L 730.900562 -360.25148 
L 728.661535 -358.029316 
L 726.477174 -355.807153 
L 724.399309 -353.584989 
L 722.469918 -351.362825 
L 720.719941 -349.140661 
L 719.168562 -346.918497 
L 717.823011 -344.696333 
L 716.678946 -342.47417 
L 715.721502 -340.252006 
L 714.927069 -338.029842 
L 714.265801 -335.807678 
L 713.704731 -333.585514 
L 713.21122 -331.36335 
L 712.756343 -329.141186 
L 712.317695 -326.919023 
L 711.88118 -324.696859 
L 711.441422 -322.474695 
L 711.000737 -320.252531 
L 710.566855 -318.030367 
L 710.149882 -315.808203 
L 709.759136 -313.58604 
L 709.400519 -311.363876 
L 709.074954 -309.141712 
L 708.778159 -306.919548 
L 708.501695 -304.697384 
L 708.234987 -302.47522 
L 707.967771 -300.253057 
L 707.692407 -298.030893 
L 707.405553 -295.808729 
L 707.108882 -293.586565 
L 706.808754 -291.364401 
L 706.514981 -289.142237 
L 706.238991 -286.920074 
L 705.991771 -284.69791 
L 705.78199 -282.475746 
L 705.614609 -280.253582 
L 705.490166 -278.031418 
L 705.404812 -275.809254 
L 705.351009 -273.587091 
L 705.318734 -271.364927 
L 705.296952 -269.142763 
L 705.275117 -266.920599 
L 705.244468 -264.698435 
L 705.198946 -262.476271 
L 705.135632 -260.254108 
L 705.0547 -258.031944 
L 704.958944 -255.80978 
L 704.853004 -253.587616 
L 704.742468 -251.365452 
L 704.632983 -249.143288 
L 704.529527 -246.921125 
L 704.435924 -244.698961 
L 704.354605 -242.476797 
L 704.286623 -240.254633 
L 704.231842 -238.032469 
z
" style="stroke: #3d3d3d; stroke-opacity: 0.5"/>
    </defs>
    <g clip-path="url(#p39e18a2496)">
     <use xlink:href="#m1901756710" x="0" y="696.702001" style="fill: #3a923a; fill-opacity: 0.5; stroke: #3d3d3d; stroke-opacity: 0.5"/>
    </g>
   </g>
   <g id="PolyCollection_8">
    <defs>
     <path id="m1a7856ae30" d="M 801.939505 -161.913162 
L 801.535495 -161.913162 
L 801.4679 -166.987797 
L 801.384336 -172.062431 
L 801.283412 -177.137066 
L 801.164412 -182.211701 
L 801.027548 -187.286336 
L 800.874174 -192.36097 
L 800.706943 -197.435605 
L 800.529858 -202.51024 
L 800.348199 -207.584875 
L 800.168304 -212.659509 
L 799.997198 -217.734144 
L 799.842105 -222.808779 
L 799.709855 -227.883414 
L 799.606266 -232.958048 
L 799.535551 -238.032683 
L 799.499816 -243.107318 
L 799.498723 -248.181953 
L 799.529344 -253.256587 
L 799.586243 -258.331222 
L 799.661784 -263.405857 
L 799.746642 -268.480491 
L 799.830466 -273.555126 
L 799.902648 -278.629761 
L 799.953123 -283.704396 
L 799.973134 -288.77903 
L 799.955898 -293.853665 
L 799.897122 -298.9283 
L 799.795316 -304.002935 
L 799.651882 -309.077569 
L 799.470966 -314.152204 
L 799.259072 -319.226839 
L 799.024483 -324.301474 
L 798.776517 -329.376108 
L 798.524706 -334.450743 
L 798.277962 -339.525378 
L 798.043835 -344.600013 
L 797.827926 -349.674647 
L 797.633543 -354.749282 
L 797.461621 -359.823917 
L 797.310915 -364.898552 
L 797.178448 -369.973186 
L 797.060118 -375.047821 
L 796.951403 -380.122456 
L 796.848042 -385.197091 
L 796.746586 -390.271725 
L 796.644755 -395.34636 
L 796.541533 -400.420995 
L 796.436992 -405.495629 
L 796.331869 -410.570264 
L 796.226968 -415.644899 
L 796.122454 -420.719534 
L 796.017153 -425.794168 
L 795.907954 -430.868803 
L 795.789386 -435.943438 
L 795.653425 -441.018073 
L 795.489561 -446.092707 
L 795.285084 -451.167342 
L 795.025552 -456.241977 
L 794.695366 -461.316612 
L 794.278359 -466.391246 
L 793.758332 -471.465881 
L 793.119494 -476.540516 
L 792.346793 -481.615151 
L 791.426191 -486.689785 
L 790.344982 -491.76442 
L 789.092272 -496.839055 
L 787.659753 -501.91369 
L 786.042899 -506.988324 
L 784.242597 -512.062959 
L 782.267174 -517.137594 
L 780.134634 -522.212229 
L 777.874807 -527.286863 
L 775.531021 -532.361498 
L 773.160864 -537.436133 
L 770.835634 -542.510768 
L 768.638192 -547.585402 
L 766.659115 -552.660037 
L 764.991281 -557.734672 
L 763.7233 -562.809306 
L 762.932389 -567.883941 
L 762.6775 -572.958576 
L 762.993513 -578.033211 
L 763.887252 -583.107845 
L 765.335887 -588.18248 
L 767.287987 -593.257115 
L 769.667158 -598.33175 
L 772.37785 -603.406384 
L 775.312695 -608.481019 
L 778.360497 -613.555654 
L 781.414037 -618.630289 
L 784.376874 -623.704923 
L 787.168546 -628.779558 
L 789.727824 -633.854193 
L 792.013933 -638.928828 
L 794.005913 -644.003462 
L 795.700478 -649.078097 
L 797.108849 -654.152732 
L 798.253053 -659.227367 
L 799.162161 -664.302001 
L 804.312839 -664.302001 
L 804.312839 -664.302001 
L 805.221947 -659.227367 
L 806.366151 -654.152732 
L 807.774522 -649.078097 
L 809.469087 -644.003462 
L 811.461067 -638.928828 
L 813.747176 -633.854193 
L 816.306454 -628.779558 
L 819.098126 -623.704923 
L 822.060963 -618.630289 
L 825.114503 -613.555654 
L 828.162305 -608.481019 
L 831.09715 -603.406384 
L 833.807842 -598.33175 
L 836.187013 -593.257115 
L 838.139113 -588.18248 
L 839.587748 -583.107845 
L 840.481487 -578.033211 
L 840.7975 -572.958576 
L 840.542611 -567.883941 
L 839.7517 -562.809306 
L 838.483719 -557.734672 
L 836.815885 -552.660037 
L 834.836808 -547.585402 
L 832.639366 -542.510768 
L 830.314136 -537.436133 
L 827.943979 -532.361498 
L 825.600193 -527.286863 
L 823.340366 -522.212229 
L 821.207826 -517.137594 
L 819.232403 -512.062959 
L 817.432101 -506.988324 
L 815.815247 -501.91369 
L 814.382728 -496.839055 
L 813.130018 -491.76442 
L 812.048809 -486.689785 
L 811.128207 -481.615151 
L 810.355506 -476.540516 
L 809.716668 -471.465881 
L 809.196641 -466.391246 
L 808.779634 -461.316612 
L 808.449448 -456.241977 
L 808.189916 -451.167342 
L 807.985439 -446.092707 
L 807.821575 -441.018073 
L 807.685614 -435.943438 
L 807.567046 -430.868803 
L 807.457847 -425.794168 
L 807.352546 -420.719534 
L 807.248032 -415.644899 
L 807.143131 -410.570264 
L 807.038008 -405.495629 
L 806.933467 -400.420995 
L 806.830245 -395.34636 
L 806.728414 -390.271725 
L 806.626958 -385.197091 
L 806.523597 -380.122456 
L 806.414882 -375.047821 
L 806.296552 -369.973186 
L 806.164085 -364.898552 
L 806.013379 -359.823917 
L 805.841457 -354.749282 
L 805.647074 -349.674647 
L 805.431165 -344.600013 
L 805.197038 -339.525378 
L 804.950294 -334.450743 
L 804.698483 -329.376108 
L 804.450517 -324.301474 
L 804.215928 -319.226839 
L 804.004034 -314.152204 
L 803.823118 -309.077569 
L 803.679684 -304.002935 
L 803.577878 -298.9283 
L 803.519102 -293.853665 
L 803.501866 -288.77903 
L 803.521877 -283.704396 
L 803.572352 -278.629761 
L 803.644534 -273.555126 
L 803.728358 -268.480491 
L 803.813216 -263.405857 
L 803.888757 -258.331222 
L 803.945656 -253.256587 
L 803.976277 -248.181953 
L 803.975184 -243.107318 
L 803.939449 -238.032683 
L 803.868734 -232.958048 
L 803.765145 -227.883414 
L 803.632895 -222.808779 
L 803.477802 -217.734144 
L 803.306696 -212.659509 
L 803.126801 -207.584875 
L 802.945142 -202.51024 
L 802.768057 -197.435605 
L 802.600826 -192.36097 
L 802.447452 -187.286336 
L 802.310588 -182.211701 
L 802.191588 -177.137066 
L 802.090664 -172.062431 
L 802.0071 -166.987797 
L 801.939505 -161.913162 
z
" style="stroke: #3d3d3d; stroke-opacity: 0.5"/>
    </defs>
    <g clip-path="url(#p39e18a2496)">
     <use xlink:href="#m1a7856ae30" x="0" y="696.702001" style="fill: #c03d3e; fill-opacity: 0.5; stroke: #3d3d3d; stroke-opacity: 0.5"/>
    </g>
   </g>
   <g id="line2d_8">
    <path d="M 118.1875 262.927422 
L 118.1875 104.149854 
" clip-path="url(#p39e18a2496)" style="fill: none; stroke: #3d3d3d; stroke-width: 1.5; stroke-linecap: round"/>
   </g>
   <g id="line2d_9">
    <path d="M 118.1875 175.888374 
L 118.1875 114.99583 
" clip-path="url(#p39e18a2496)" style="fill: none; stroke: #3d3d3d; stroke-width: 4.5; stroke-linecap: round"/>
   </g>
   <g id="line2d_10">
    <path d="M 118.1875 132.722085 
" clip-path="url(#p39e18a2496)" style="fill: none; stroke: #3d3d3d; stroke-width: 1.5; stroke-linecap: round"/>
    <defs>
     <path id="m1873e4ce90" d="M 1.875 0 
L -1.875 -0 
" style="stroke: #ffffff; stroke-width: 0.9"/>
    </defs>
    <g clip-path="url(#p39e18a2496)">
     <use xlink:href="#m1873e4ce90" x="118.1875" y="132.722085" style="fill: #ffffff; stroke: #ffffff; stroke-width: 0.9"/>
    </g>
   </g>
   <g id="line2d_11">
    <path d="M 215.8375 443.728611 
L 215.8375 249.00053 
" clip-path="url(#p39e18a2496)" style="fill: none; stroke: #3d3d3d; stroke-width: 1.5; stroke-linecap: round"/>
   </g>
   <g id="line2d_12">
    <path d="M 215.8375 402.473193 
L 215.8375 338.614112 
" clip-path="url(#p39e18a2496)" style="fill: none; stroke: #3d3d3d; stroke-width: 4.5; stroke-linecap: round"/>
   </g>
   <g id="line2d_13">
    <path d="M 215.8375 372.779392 
" clip-path="url(#p39e18a2496)" style="fill: none; stroke: #3d3d3d; stroke-width: 1.5; stroke-linecap: round"/>
    <g clip-path="url(#p39e18a2496)">
     <use xlink:href="#m1873e4ce90" x="215.8375" y="372.779392" style="fill: #ffffff; stroke: #ffffff; stroke-width: 0.9"/>
    </g>
   </g>
   <g id="line2d_14">
    <path d="M 313.4875 197.396345 
L 313.4875 113.445595 
" clip-path="url(#p39e18a2496)" style="fill: none; stroke: #3d3d3d; stroke-width: 1.5; stroke-linecap: round"/>
   </g>
   <g id="line2d_15">
    <path d="M 313.4875 157.852037 
L 313.4875 125.364438 
" clip-path="url(#p39e18a2496)" style="fill: none; stroke: #3d3d3d; stroke-width: 4.5; stroke-linecap: round"/>
   </g>
   <g id="line2d_16">
    <path d="M 313.4875 135.143266 
" clip-path="url(#p39e18a2496)" style="fill: none; stroke: #3d3d3d; stroke-width: 1.5; stroke-linecap: round"/>
    <g clip-path="url(#p39e18a2496)">
     <use xlink:href="#m1873e4ce90" x="313.4875" y="135.143266" style="fill: #ffffff; stroke: #ffffff; stroke-width: 0.9"/>
    </g>
   </g>
   <g id="line2d_17">
    <path d="M 411.1375 151.233589 
L 411.1375 104.872065 
" clip-path="url(#p39e18a2496)" style="fill: none; stroke: #3d3d3d; stroke-width: 1.5; stroke-linecap: round"/>
   </g>
   <g id="line2d_18">
    <path d="M 411.1375 132.150075 
L 411.1375 111.342977 
" clip-path="url(#p39e18a2496)" style="fill: none; stroke: #3d3d3d; stroke-width: 4.5; stroke-linecap: round"/>
   </g>
   <g id="line2d_19">
    <path d="M 411.1375 121.310601 
" clip-path="url(#p39e18a2496)" style="fill: none; stroke: #3d3d3d; stroke-width: 1.5; stroke-linecap: round"/>
    <g clip-path="url(#p39e18a2496)">
     <use xlink:href="#m1873e4ce90" x="411.1375" y="121.310601" style="fill: #ffffff; stroke: #ffffff; stroke-width: 0.9"/>
    </g>
   </g>
   <g id="line2d_20">
    <path d="M 508.7875 449.167084 
L 508.7875 401.72033 
" clip-path="url(#p39e18a2496)" style="fill: none; stroke: #3d3d3d; stroke-width: 1.5; stroke-linecap: round"/>
   </g>
   <g id="line2d_21">
    <path d="M 508.7875 433.11849 
L 508.7875 420.083143 
" clip-path="url(#p39e18a2496)" style="fill: none; stroke: #3d3d3d; stroke-width: 4.5; stroke-linecap: round"/>
   </g>
   <g id="line2d_22">
    <path d="M 508.7875 426.268196 
" clip-path="url(#p39e18a2496)" style="fill: none; stroke: #3d3d3d; stroke-width: 1.5; stroke-linecap: round"/>
    <g clip-path="url(#p39e18a2496)">
     <use xlink:href="#m1873e4ce90" x="508.7875" y="426.268196" style="fill: #ffffff; stroke: #ffffff; stroke-width: 0.9"/>
    </g>
   </g>
   <g id="line2d_23">
    <path d="M 606.4375 466.902334 
L 606.4375 152.980418 
" clip-path="url(#p39e18a2496)" style="fill: none; stroke: #3d3d3d; stroke-width: 1.5; stroke-linecap: round"/>
   </g>
   <g id="line2d_24">
    <path d="M 606.4375 386.295841 
L 606.4375 265.509949 
" clip-path="url(#p39e18a2496)" style="fill: none; stroke: #3d3d3d; stroke-width: 4.5; stroke-linecap: round"/>
   </g>
   <g id="line2d_25">
    <path d="M 606.4375 330.048454 
" clip-path="url(#p39e18a2496)" style="fill: none; stroke: #3d3d3d; stroke-width: 1.5; stroke-linecap: round"/>
    <g clip-path="url(#p39e18a2496)">
     <use xlink:href="#m1873e4ce90" x="606.4375" y="330.048454" style="fill: #ffffff; stroke: #ffffff; stroke-width: 0.9"/>
    </g>
   </g>
   <g id="line2d_26">
    <path d="M 704.0875 370.97654 
L 704.0875 265.164426 
" clip-path="url(#p39e18a2496)" style="fill: none; stroke: #3d3d3d; stroke-width: 1.5; stroke-linecap: round"/>
   </g>
   <g id="line2d_27">
    <path d="M 704.0875 334.351583 
L 704.0875 302.925069 
" clip-path="url(#p39e18a2496)" style="fill: none; stroke: #3d3d3d; stroke-width: 4.5; stroke-linecap: round"/>
   </g>
   <g id="line2d_28">
    <path d="M 704.0875 317.213886 
" clip-path="url(#p39e18a2496)" style="fill: none; stroke: #3d3d3d; stroke-width: 1.5; stroke-linecap: round"/>
    <g clip-path="url(#p39e18a2496)">
     <use xlink:href="#m1873e4ce90" x="704.0875" y="317.213886" style="fill: #ffffff; stroke: #ffffff; stroke-width: 0.9"/>
    </g>
   </g>
   <g id="line2d_29">
    <path d="M 801.7375 284.930652 
L 801.7375 105.4781 
" clip-path="url(#p39e18a2496)" style="fill: none; stroke: #3d3d3d; stroke-width: 1.5; stroke-linecap: round"/>
   </g>
   <g id="line2d_30">
    <path d="M 801.7375 184.143756 
L 801.7375 114.442787 
" clip-path="url(#p39e18a2496)" style="fill: none; stroke: #3d3d3d; stroke-width: 4.5; stroke-linecap: round"/>
   </g>
   <g id="line2d_31">
    <path d="M 801.7375 126.616764 
" clip-path="url(#p39e18a2496)" style="fill: none; stroke: #3d3d3d; stroke-width: 1.5; stroke-linecap: round"/>
    <g clip-path="url(#p39e18a2496)">
     <use xlink:href="#m1873e4ce90" x="801.7375" y="126.616764" style="fill: #ffffff; stroke: #ffffff; stroke-width: 0.9"/>
    </g>
   </g>
   <g id="patch_3">
    <path d="M 69.3625 561.6 
L 850.5625 561.6 
" style="fill: none; stroke: #cccccc; stroke-width: 0.8; stroke-linejoin: miter; stroke-linecap: square"/>
   </g>
  </g>
 </g>
 <defs>
  <clipPath id="p39e18a2496">
   <rect x="69.3625" y="7.2" width="781.2" height="554.4"/>
  </clipPath>
 </defs>
</svg>
