<?xml version="1.0" encoding="utf-8" standalone="no"?>
<!DOCTYPE svg PUBLIC "-//W3C//DTD SVG 1.1//EN"
  "http://www.w3.org/Graphics/SVG/1.1/DTD/svg11.dtd">
<svg xmlns:xlink="http://www.w3.org/1999/xlink" width="857.7625pt" height="696.702001pt" viewBox="0 0 857.7625 696.702001" xmlns="http://www.w3.org/2000/svg" version="1.1">
 <metadata>
  <rdf:RDF xmlns:dc="http://purl.org/dc/elements/1.1/" xmlns:cc="http://creativecommons.org/ns#" xmlns:rdf="http://www.w3.org/1999/02/22-rdf-syntax-ns#">
   <cc:Work>
    <dc:type rdf:resource="http://purl.org/dc/dcmitype/StillImage"/>
    <dc:date>2024-10-23T17:25:27.712791</dc:date>
    <dc:format>image/svg+xml</dc:format>
    <dc:creator>
     <cc:Agent>
      <dc:title>Matplotlib v3.8.0, https://matplotlib.org/</dc:title>
     </cc:Agent>
    </dc:creator>
   </cc:Work>
  </rdf:RDF>
 </metadata>
 <defs>
  <style type="text/css">*{stroke-linejoin: round; stroke-linecap: butt}</style>
 </defs>
 <g id="figure_1">
  <g id="patch_1">
   <path d="M 0 696.702001 
L 857.7625 696.702001 
L 857.7625 0 
L 0 0 
L 0 696.702001 
z
" style="fill: none"/>
  </g>
  <g id="axes_1">
   <g id="patch_2">
    <path d="M 69.3625 561.6 
L 850.5625 561.6 
L 850.5625 7.2 
L 69.3625 7.2 
L 69.3625 561.6 
z
" style="fill: none"/>
   </g>
   <g id="matplotlib.axis_1">
    <g id="xtick_1">
     <g id="text_1">
      <!-- MSA -->
      <g style="fill: #262626" transform="translate(97.813986 610.465141) rotate(-45) scale(0.2 -0.2)">
       <defs>
        <path id="DejaVuSans-4d" d="M 628 4666 
L 1569 4666 
L 2759 1491 
L 3956 4666 
L 4897 4666 
L 4897 0 
L 4281 0 
L 4281 4097 
L 3078 897 
L 2444 897 
L 1241 4097 
L 1241 0 
L 628 0 
L 628 4666 
z
" transform="scale(0.015625)"/>
        <path id="DejaVuSans-53" d="M 3425 4513 
L 3425 3897 
Q 3066 4069 2747 4153 
Q 2428 4238 2131 4238 
Q 1616 4238 1336 4038 
Q 1056 3838 1056 3469 
Q 1056 3159 1242 3001 
Q 1428 2844 1947 2747 
L 2328 2669 
Q 3034 2534 3370 2195 
Q 3706 1856 3706 1288 
Q 3706 609 3251 259 
Q 2797 -91 1919 -91 
Q 1588 -91 1214 -16 
Q 841 59 441 206 
L 441 856 
Q 825 641 1194 531 
Q 1563 422 1919 422 
Q 2459 422 2753 634 
Q 3047 847 3047 1241 
Q 3047 1584 2836 1778 
Q 2625 1972 2144 2069 
L 1759 2144 
Q 1053 2284 737 2584 
Q 422 2884 422 3419 
Q 422 4038 858 4394 
Q 1294 4750 2059 4750 
Q 2388 4750 2728 4690 
Q 3069 4631 3425 4513 
z
" transform="scale(0.015625)"/>
        <path id="DejaVuSans-41" d="M 2188 4044 
L 1331 1722 
L 3047 1722 
L 2188 4044 
z
M 1831 4666 
L 2547 4666 
L 4325 0 
L 3669 0 
L 3244 1197 
L 1141 1197 
L 716 0 
L 50 0 
L 1831 4666 
z
" transform="scale(0.015625)"/>
       </defs>
       <use xlink:href="#DejaVuSans-4d"/>
       <use xlink:href="#DejaVuSans-53" x="86.279297"/>
       <use xlink:href="#DejaVuSans-41" x="151.630859"/>
      </g>
     </g>
    </g>
    <g id="xtick_2">
     <g id="text_2">
      <!-- Single -->
      <g style="fill: #262626" transform="translate(183.105085 622.824042) rotate(-45) scale(0.2 -0.2)">
       <defs>
        <path id="DejaVuSans-69" d="M 603 3500 
L 1178 3500 
L 1178 0 
L 603 0 
L 603 3500 
z
M 603 4863 
L 1178 4863 
L 1178 4134 
L 603 4134 
L 603 4863 
z
" transform="scale(0.015625)"/>
        <path id="DejaVuSans-6e" d="M 3513 2113 
L 3513 0 
L 2938 0 
L 2938 2094 
Q 2938 2591 2744 2837 
Q 2550 3084 2163 3084 
Q 1697 3084 1428 2787 
Q 1159 2491 1159 1978 
L 1159 0 
L 581 0 
L 581 3500 
L 1159 3500 
L 1159 2956 
Q 1366 3272 1645 3428 
Q 1925 3584 2291 3584 
Q 2894 3584 3203 3211 
Q 3513 2838 3513 2113 
z
" transform="scale(0.015625)"/>
        <path id="DejaVuSans-67" d="M 2906 1791 
Q 2906 2416 2648 2759 
Q 2391 3103 1925 3103 
Q 1463 3103 1205 2759 
Q 947 2416 947 1791 
Q 947 1169 1205 825 
Q 1463 481 1925 481 
Q 2391 481 2648 825 
Q 2906 1169 2906 1791 
z
M 3481 434 
Q 3481 -459 3084 -895 
Q 2688 -1331 1869 -1331 
Q 1566 -1331 1297 -1286 
Q 1028 -1241 775 -1147 
L 775 -588 
Q 1028 -725 1275 -790 
Q 1522 -856 1778 -856 
Q 2344 -856 2625 -561 
Q 2906 -266 2906 331 
L 2906 616 
Q 2728 306 2450 153 
Q 2172 0 1784 0 
Q 1141 0 747 490 
Q 353 981 353 1791 
Q 353 2603 747 3093 
Q 1141 3584 1784 3584 
Q 2172 3584 2450 3431 
Q 2728 3278 2906 2969 
L 2906 3500 
L 3481 3500 
L 3481 434 
z
" transform="scale(0.015625)"/>
        <path id="DejaVuSans-6c" d="M 603 4863 
L 1178 4863 
L 1178 0 
L 603 0 
L 603 4863 
z
" transform="scale(0.015625)"/>
        <path id="DejaVuSans-65" d="M 3597 1894 
L 3597 1613 
L 953 1613 
Q 991 1019 1311 708 
Q 1631 397 2203 397 
Q 2534 397 2845 478 
Q 3156 559 3463 722 
L 3463 178 
Q 3153 47 2828 -22 
Q 2503 -91 2169 -91 
Q 1331 -91 842 396 
Q 353 884 353 1716 
Q 353 2575 817 3079 
Q 1281 3584 2069 3584 
Q 2775 3584 3186 3129 
Q 3597 2675 3597 1894 
z
M 3022 2063 
Q 3016 2534 2758 2815 
Q 2500 3097 2075 3097 
Q 1594 3097 1305 2825 
Q 1016 2553 972 2059 
L 3022 2063 
z
" transform="scale(0.015625)"/>
       </defs>
       <use xlink:href="#DejaVuSans-53"/>
       <use xlink:href="#DejaVuSans-69" x="63.476562"/>
       <use xlink:href="#DejaVuSans-6e" x="91.259766"/>
       <use xlink:href="#DejaVuSans-67" x="154.638672"/>
       <use xlink:href="#DejaVuSans-6c" x="218.115234"/>
       <use xlink:href="#DejaVuSans-65" x="245.898438"/>
      </g>
     </g>
    </g>
    <g id="xtick_3">
     <g id="text_3">
      <!-- Gaussian -->
      <g style="fill: #262626" transform="translate(259.354056 644.22507) rotate(-45) scale(0.2 -0.2)">
       <defs>
        <path id="DejaVuSans-47" d="M 3809 666 
L 3809 1919 
L 2778 1919 
L 2778 2438 
L 4434 2438 
L 4434 434 
Q 4069 175 3628 42 
Q 3188 -91 2688 -91 
Q 1594 -91 976 548 
Q 359 1188 359 2328 
Q 359 3472 976 4111 
Q 1594 4750 2688 4750 
Q 3144 4750 3555 4637 
Q 3966 4525 4313 4306 
L 4313 3634 
Q 3963 3931 3569 4081 
Q 3175 4231 2741 4231 
Q 1884 4231 1454 3753 
Q 1025 3275 1025 2328 
Q 1025 1384 1454 906 
Q 1884 428 2741 428 
Q 3075 428 3337 486 
Q 3600 544 3809 666 
z
" transform="scale(0.015625)"/>
        <path id="DejaVuSans-61" d="M 2194 1759 
Q 1497 1759 1228 1600 
Q 959 1441 959 1056 
Q 959 750 1161 570 
Q 1363 391 1709 391 
Q 2188 391 2477 730 
Q 2766 1069 2766 1631 
L 2766 1759 
L 2194 1759 
z
M 3341 1997 
L 3341 0 
L 2766 0 
L 2766 531 
Q 2569 213 2275 61 
Q 1981 -91 1556 -91 
Q 1019 -91 701 211 
Q 384 513 384 1019 
Q 384 1609 779 1909 
Q 1175 2209 1959 2209 
L 2766 2209 
L 2766 2266 
Q 2766 2663 2505 2880 
Q 2244 3097 1772 3097 
Q 1472 3097 1187 3025 
Q 903 2953 641 2809 
L 641 3341 
Q 956 3463 1253 3523 
Q 1550 3584 1831 3584 
Q 2591 3584 2966 3190 
Q 3341 2797 3341 1997 
z
" transform="scale(0.015625)"/>
        <path id="DejaVuSans-75" d="M 544 1381 
L 544 3500 
L 1119 3500 
L 1119 1403 
Q 1119 906 1312 657 
Q 1506 409 1894 409 
Q 2359 409 2629 706 
Q 2900 1003 2900 1516 
L 2900 3500 
L 3475 3500 
L 3475 0 
L 2900 0 
L 2900 538 
Q 2691 219 2414 64 
Q 2138 -91 1772 -91 
Q 1169 -91 856 284 
Q 544 659 544 1381 
z
M 1991 3584 
L 1991 3584 
z
" transform="scale(0.015625)"/>
        <path id="DejaVuSans-73" d="M 2834 3397 
L 2834 2853 
Q 2591 2978 2328 3040 
Q 2066 3103 1784 3103 
Q 1356 3103 1142 2972 
Q 928 2841 928 2578 
Q 928 2378 1081 2264 
Q 1234 2150 1697 2047 
L 1894 2003 
Q 2506 1872 2764 1633 
Q 3022 1394 3022 966 
Q 3022 478 2636 193 
Q 2250 -91 1575 -91 
Q 1294 -91 989 -36 
Q 684 19 347 128 
L 347 722 
Q 666 556 975 473 
Q 1284 391 1588 391 
Q 1994 391 2212 530 
Q 2431 669 2431 922 
Q 2431 1156 2273 1281 
Q 2116 1406 1581 1522 
L 1381 1569 
Q 847 1681 609 1914 
Q 372 2147 372 2553 
Q 372 3047 722 3315 
Q 1072 3584 1716 3584 
Q 2034 3584 2315 3537 
Q 2597 3491 2834 3397 
z
" transform="scale(0.015625)"/>
       </defs>
       <use xlink:href="#DejaVuSans-47"/>
       <use xlink:href="#DejaVuSans-61" x="77.490234"/>
       <use xlink:href="#DejaVuSans-75" x="138.769531"/>
       <use xlink:href="#DejaVuSans-73" x="202.148438"/>
       <use xlink:href="#DejaVuSans-73" x="254.248047"/>
       <use xlink:href="#DejaVuSans-69" x="306.347656"/>
       <use xlink:href="#DejaVuSans-61" x="334.130859"/>
       <use xlink:href="#DejaVuSans-6e" x="395.410156"/>
      </g>
     </g>
    </g>
    <g id="xtick_4">
     <g id="text_4">
      <!-- Gaussian (AF2) -->
      <g style="fill: #262626" transform="translate(314.668248 686.560879) rotate(-45) scale(0.2 -0.2)">
       <defs>
        <path id="DejaVuSans-20" transform="scale(0.015625)"/>
        <path id="DejaVuSans-28" d="M 1984 4856 
Q 1566 4138 1362 3434 
Q 1159 2731 1159 2009 
Q 1159 1288 1364 580 
Q 1569 -128 1984 -844 
L 1484 -844 
Q 1016 -109 783 600 
Q 550 1309 550 2009 
Q 550 2706 781 3412 
Q 1013 4119 1484 4856 
L 1984 4856 
z
" transform="scale(0.015625)"/>
        <path id="DejaVuSans-46" d="M 628 4666 
L 3309 4666 
L 3309 4134 
L 1259 4134 
L 1259 2759 
L 3109 2759 
L 3109 2228 
L 1259 2228 
L 1259 0 
L 628 0 
L 628 4666 
z
" transform="scale(0.015625)"/>
        <path id="DejaVuSans-32" d="M 1228 531 
L 3431 531 
L 3431 0 
L 469 0 
L 469 531 
Q 828 903 1448 1529 
Q 2069 2156 2228 2338 
Q 2531 2678 2651 2914 
Q 2772 3150 2772 3378 
Q 2772 3750 2511 3984 
Q 2250 4219 1831 4219 
Q 1534 4219 1204 4116 
Q 875 4013 500 3803 
L 500 4441 
Q 881 4594 1212 4672 
Q 1544 4750 1819 4750 
Q 2544 4750 2975 4387 
Q 3406 4025 3406 3419 
Q 3406 3131 3298 2873 
Q 3191 2616 2906 2266 
Q 2828 2175 2409 1742 
Q 1991 1309 1228 531 
z
" transform="scale(0.015625)"/>
        <path id="DejaVuSans-29" d="M 513 4856 
L 1013 4856 
Q 1481 4119 1714 3412 
Q 1947 2706 1947 2009 
Q 1947 1309 1714 600 
Q 1481 -109 1013 -844 
L 513 -844 
Q 928 -128 1133 580 
Q 1338 1288 1338 2009 
Q 1338 2731 1133 3434 
Q 928 4138 513 4856 
z
" transform="scale(0.015625)"/>
       </defs>
       <use xlink:href="#DejaVuSans-47"/>
       <use xlink:href="#DejaVuSans-61" x="77.490234"/>
       <use xlink:href="#DejaVuSans-75" x="138.769531"/>
       <use xlink:href="#DejaVuSans-73" x="202.148438"/>
       <use xlink:href="#DejaVuSans-73" x="254.248047"/>
       <use xlink:href="#DejaVuSans-69" x="306.347656"/>
       <use xlink:href="#DejaVuSans-61" x="334.130859"/>
       <use xlink:href="#DejaVuSans-6e" x="395.410156"/>
       <use xlink:href="#DejaVuSans-20" x="458.789062"/>
       <use xlink:href="#DejaVuSans-28" x="490.576172"/>
       <use xlink:href="#DejaVuSans-41" x="529.589844"/>
       <use xlink:href="#DejaVuSans-46" x="597.998047"/>
       <use xlink:href="#DejaVuSans-32" x="655.517578"/>
       <use xlink:href="#DejaVuSans-29" x="719.140625"/>
      </g>
     </g>
    </g>
    <g id="xtick_5">
     <g id="text_5">
      <!-- 1 PC -->
      <g style="fill: #262626" transform="translate(487.638378 611.240749) rotate(-45) scale(0.2 -0.2)">
       <defs>
        <path id="DejaVuSans-31" d="M 794 531 
L 1825 531 
L 1825 4091 
L 703 3866 
L 703 4441 
L 1819 4666 
L 2450 4666 
L 2450 531 
L 3481 531 
L 3481 0 
L 794 0 
L 794 531 
z
" transform="scale(0.015625)"/>
        <path id="DejaVuSans-50" d="M 1259 4147 
L 1259 2394 
L 2053 2394 
Q 2494 2394 2734 2622 
Q 2975 2850 2975 3272 
Q 2975 3691 2734 3919 
Q 2494 4147 2053 4147 
L 1259 4147 
z
M 628 4666 
L 2053 4666 
Q 2838 4666 3239 4311 
Q 3641 3956 3641 3272 
Q 3641 2581 3239 2228 
Q 2838 1875 2053 1875 
L 1259 1875 
L 1259 0 
L 628 0 
L 628 4666 
z
" transform="scale(0.015625)"/>
        <path id="DejaVuSans-43" d="M 4122 4306 
L 4122 3641 
Q 3803 3938 3442 4084 
Q 3081 4231 2675 4231 
Q 1875 4231 1450 3742 
Q 1025 3253 1025 2328 
Q 1025 1406 1450 917 
Q 1875 428 2675 428 
Q 3081 428 3442 575 
Q 3803 722 4122 1019 
L 4122 359 
Q 3791 134 3420 21 
Q 3050 -91 2638 -91 
Q 1578 -91 968 557 
Q 359 1206 359 2328 
Q 359 3453 968 4101 
Q 1578 4750 2638 4750 
Q 3056 4750 3426 4639 
Q 3797 4528 4122 4306 
z
" transform="scale(0.015625)"/>
       </defs>
       <use xlink:href="#DejaVuSans-31"/>
       <use xlink:href="#DejaVuSans-20" x="63.623047"/>
       <use xlink:href="#DejaVuSans-50" x="95.410156"/>
       <use xlink:href="#DejaVuSans-43" x="155.712891"/>
      </g>
     </g>
    </g>
    <g id="xtick_6">
     <g id="text_6">
      <!-- 1 PC (AF2) -->
      <g style="fill: #262626" transform="translate(542.952569 653.576557) rotate(-45) scale(0.2 -0.2)">
       <use xlink:href="#DejaVuSans-31"/>
       <use xlink:href="#DejaVuSans-20" x="63.623047"/>
       <use xlink:href="#DejaVuSans-50" x="95.410156"/>
       <use xlink:href="#DejaVuSans-43" x="155.712891"/>
       <use xlink:href="#DejaVuSans-20" x="225.537109"/>
       <use xlink:href="#DejaVuSans-28" x="257.324219"/>
       <use xlink:href="#DejaVuSans-41" x="296.337891"/>
       <use xlink:href="#DejaVuSans-46" x="364.746094"/>
       <use xlink:href="#DejaVuSans-32" x="422.265625"/>
       <use xlink:href="#DejaVuSans-29" x="485.888672"/>
      </g>
     </g>
    </g>
    <g id="xtick_7">
     <g id="text_7">
      <!-- 2 PC -->
      <g style="fill: #262626" transform="translate(682.938378 611.240749) rotate(-45) scale(0.2 -0.2)">
       <use xlink:href="#DejaVuSans-32"/>
       <use xlink:href="#DejaVuSans-20" x="63.623047"/>
       <use xlink:href="#DejaVuSans-50" x="95.410156"/>
       <use xlink:href="#DejaVuSans-43" x="155.712891"/>
      </g>
     </g>
    </g>
    <g id="xtick_8">
     <g id="text_8">
      <!-- 2 PC (AF2) -->
      <g style="fill: #262626" transform="translate(738.252569 653.576557) rotate(-45) scale(0.2 -0.2)">
       <use xlink:href="#DejaVuSans-32"/>
       <use xlink:href="#DejaVuSans-20" x="63.623047"/>
       <use xlink:href="#DejaVuSans-50" x="95.410156"/>
       <use xlink:href="#DejaVuSans-43" x="155.712891"/>
       <use xlink:href="#DejaVuSans-20" x="225.537109"/>
       <use xlink:href="#DejaVuSans-28" x="257.324219"/>
       <use xlink:href="#DejaVuSans-41" x="296.337891"/>
       <use xlink:href="#DejaVuSans-46" x="364.746094"/>
       <use xlink:href="#DejaVuSans-32" x="422.265625"/>
       <use xlink:href="#DejaVuSans-29" x="485.888672"/>
      </g>
     </g>
    </g>
   </g>
   <g id="matplotlib.axis_2">
    <g id="ytick_1">
     <g id="line2d_1">
      <path d="M 69.3625 494.009145 
L 850.5625 494.009145 
" clip-path="url(#pfb0132d709)" style="fill: none; stroke: #cccccc; stroke-width: 0.8; stroke-linecap: round"/>
     </g>
     <g id="text_9">
      <!-- 0.0 -->
      <g style="fill: #262626" transform="translate(30.55625 501.607582) scale(0.2 -0.2)">
       <defs>
        <path id="DejaVuSans-30" d="M 2034 4250 
Q 1547 4250 1301 3770 
Q 1056 3291 1056 2328 
Q 1056 1369 1301 889 
Q 1547 409 2034 409 
Q 2525 409 2770 889 
Q 3016 1369 3016 2328 
Q 3016 3291 2770 3770 
Q 2525 4250 2034 4250 
z
M 2034 4750 
Q 2819 4750 3233 4129 
Q 3647 3509 3647 2328 
Q 3647 1150 3233 529 
Q 2819 -91 2034 -91 
Q 1250 -91 836 529 
Q 422 1150 422 2328 
Q 422 3509 836 4129 
Q 1250 4750 2034 4750 
z
" transform="scale(0.015625)"/>
        <path id="DejaVuSans-2e" d="M 684 794 
L 1344 794 
L 1344 0 
L 684 0 
L 684 794 
z
" transform="scale(0.015625)"/>
       </defs>
       <use xlink:href="#DejaVuSans-30"/>
       <use xlink:href="#DejaVuSans-2e" x="63.623047"/>
       <use xlink:href="#DejaVuSans-30" x="95.410156"/>
      </g>
     </g>
    </g>
    <g id="ytick_2">
     <g id="line2d_2">
      <path d="M 69.3625 405.24936 
L 850.5625 405.24936 
" clip-path="url(#pfb0132d709)" style="fill: none; stroke: #cccccc; stroke-width: 0.8; stroke-linecap: round"/>
     </g>
     <g id="text_10">
      <!-- 0.2 -->
      <g style="fill: #262626" transform="translate(30.55625 412.847798) scale(0.2 -0.2)">
       <use xlink:href="#DejaVuSans-30"/>
       <use xlink:href="#DejaVuSans-2e" x="63.623047"/>
       <use xlink:href="#DejaVuSans-32" x="95.410156"/>
      </g>
     </g>
    </g>
    <g id="ytick_3">
     <g id="line2d_3">
      <path d="M 69.3625 316.489575 
L 850.5625 316.489575 
" clip-path="url(#pfb0132d709)" style="fill: none; stroke: #cccccc; stroke-width: 0.8; stroke-linecap: round"/>
     </g>
     <g id="text_11">
      <!-- 0.4 -->
      <g style="fill: #262626" transform="translate(30.55625 324.088013) scale(0.2 -0.2)">
       <defs>
        <path id="DejaVuSans-34" d="M 2419 4116 
L 825 1625 
L 2419 1625 
L 2419 4116 
z
M 2253 4666 
L 3047 4666 
L 3047 1625 
L 3713 1625 
L 3713 1100 
L 3047 1100 
L 3047 0 
L 2419 0 
L 2419 1100 
L 313 1100 
L 313 1709 
L 2253 4666 
z
" transform="scale(0.015625)"/>
       </defs>
       <use xlink:href="#DejaVuSans-30"/>
       <use xlink:href="#DejaVuSans-2e" x="63.623047"/>
       <use xlink:href="#DejaVuSans-34" x="95.410156"/>
      </g>
     </g>
    </g>
    <g id="ytick_4">
     <g id="line2d_4">
      <path d="M 69.3625 227.729791 
L 850.5625 227.729791 
" clip-path="url(#pfb0132d709)" style="fill: none; stroke: #cccccc; stroke-width: 0.8; stroke-linecap: round"/>
     </g>
     <g id="text_12">
      <!-- 0.6 -->
      <g style="fill: #262626" transform="translate(30.55625 235.328228) scale(0.2 -0.2)">
       <defs>
        <path id="DejaVuSans-36" d="M 2113 2584 
Q 1688 2584 1439 2293 
Q 1191 2003 1191 1497 
Q 1191 994 1439 701 
Q 1688 409 2113 409 
Q 2538 409 2786 701 
Q 3034 994 3034 1497 
Q 3034 2003 2786 2293 
Q 2538 2584 2113 2584 
z
M 3366 4563 
L 3366 3988 
Q 3128 4100 2886 4159 
Q 2644 4219 2406 4219 
Q 1781 4219 1451 3797 
Q 1122 3375 1075 2522 
Q 1259 2794 1537 2939 
Q 1816 3084 2150 3084 
Q 2853 3084 3261 2657 
Q 3669 2231 3669 1497 
Q 3669 778 3244 343 
Q 2819 -91 2113 -91 
Q 1303 -91 875 529 
Q 447 1150 447 2328 
Q 447 3434 972 4092 
Q 1497 4750 2381 4750 
Q 2619 4750 2861 4703 
Q 3103 4656 3366 4563 
z
" transform="scale(0.015625)"/>
       </defs>
       <use xlink:href="#DejaVuSans-30"/>
       <use xlink:href="#DejaVuSans-2e" x="63.623047"/>
       <use xlink:href="#DejaVuSans-36" x="95.410156"/>
      </g>
     </g>
    </g>
    <g id="ytick_5">
     <g id="line2d_5">
      <path d="M 69.3625 138.970006 
L 850.5625 138.970006 
" clip-path="url(#pfb0132d709)" style="fill: none; stroke: #cccccc; stroke-width: 0.8; stroke-linecap: round"/>
     </g>
     <g id="text_13">
      <!-- 0.8 -->
      <g style="fill: #262626" transform="translate(30.55625 146.568443) scale(0.2 -0.2)">
       <defs>
        <path id="DejaVuSans-38" d="M 2034 2216 
Q 1584 2216 1326 1975 
Q 1069 1734 1069 1313 
Q 1069 891 1326 650 
Q 1584 409 2034 409 
Q 2484 409 2743 651 
Q 3003 894 3003 1313 
Q 3003 1734 2745 1975 
Q 2488 2216 2034 2216 
z
M 1403 2484 
Q 997 2584 770 2862 
Q 544 3141 544 3541 
Q 544 4100 942 4425 
Q 1341 4750 2034 4750 
Q 2731 4750 3128 4425 
Q 3525 4100 3525 3541 
Q 3525 3141 3298 2862 
Q 3072 2584 2669 2484 
Q 3125 2378 3379 2068 
Q 3634 1759 3634 1313 
Q 3634 634 3220 271 
Q 2806 -91 2034 -91 
Q 1263 -91 848 271 
Q 434 634 434 1313 
Q 434 1759 690 2068 
Q 947 2378 1403 2484 
z
M 1172 3481 
Q 1172 3119 1398 2916 
Q 1625 2713 2034 2713 
Q 2441 2713 2670 2916 
Q 2900 3119 2900 3481 
Q 2900 3844 2670 4047 
Q 2441 4250 2034 4250 
Q 1625 4250 1398 4047 
Q 1172 3844 1172 3481 
z
" transform="scale(0.015625)"/>
       </defs>
       <use xlink:href="#DejaVuSans-30"/>
       <use xlink:href="#DejaVuSans-2e" x="63.623047"/>
       <use xlink:href="#DejaVuSans-38" x="95.410156"/>
      </g>
     </g>
    </g>
    <g id="ytick_6">
     <g id="line2d_6">
      <path d="M 69.3625 50.210221 
L 850.5625 50.210221 
" clip-path="url(#pfb0132d709)" style="fill: none; stroke: #cccccc; stroke-width: 0.8; stroke-linecap: round"/>
     </g>
     <g id="text_14">
      <!-- 1.0 -->
      <g style="fill: #262626" transform="translate(30.55625 57.808658) scale(0.2 -0.2)">
       <use xlink:href="#DejaVuSans-31"/>
       <use xlink:href="#DejaVuSans-2e" x="63.623047"/>
       <use xlink:href="#DejaVuSans-30" x="95.410156"/>
      </g>
     </g>
    </g>
    <g id="text_15">
     <!-- lDDT $\uparrow$ -->
     <g style="fill: #262626" transform="translate(22.396875 324.2) rotate(-90) scale(0.2 -0.2)">
      <defs>
       <path id="DejaVuSans-44" d="M 1259 4147 
L 1259 519 
L 2022 519 
Q 2988 519 3436 956 
Q 3884 1394 3884 2338 
Q 3884 3275 3436 3711 
Q 2988 4147 2022 4147 
L 1259 4147 
z
M 628 4666 
L 1925 4666 
Q 3281 4666 3915 4102 
Q 4550 3538 4550 2338 
Q 4550 1131 3912 565 
Q 3275 0 1925 0 
L 628 0 
L 628 4666 
z
" transform="scale(0.015625)"/>
       <path id="DejaVuSans-54" d="M -19 4666 
L 3928 4666 
L 3928 4134 
L 2272 4134 
L 2272 0 
L 1638 0 
L 1638 4134 
L -19 4134 
L -19 4666 
z
" transform="scale(0.015625)"/>
       <path id="DejaVuSans-2191" d="M 2541 4688 
L 2822 4688 
L 4047 3456 
L 3672 3081 
L 2947 3813 
L 2947 0 
L 2416 0 
L 2416 3813 
L 1684 3081 
L 1309 3456 
L 2541 4688 
z
" transform="scale(0.015625)"/>
      </defs>
      <use xlink:href="#DejaVuSans-6c" transform="translate(0 0.015625)"/>
      <use xlink:href="#DejaVuSans-44" transform="translate(27.783203 0.015625)"/>
      <use xlink:href="#DejaVuSans-44" transform="translate(104.785156 0.015625)"/>
      <use xlink:href="#DejaVuSans-54" transform="translate(181.787109 0.015625)"/>
      <use xlink:href="#DejaVuSans-20" transform="translate(242.871094 0.015625)"/>
      <use xlink:href="#DejaVuSans-2191" transform="translate(294.140625 0.015625)"/>
     </g>
    </g>
   </g>
   <g id="PolyCollection_1">
    <defs>
     <path id="mde7c5f2939" d="M 118.34565 -278.533883 
L 118.02935 -278.533883 
L 117.96792 -282.413088 
L 117.891459 -286.292293 
L 117.799931 -290.171499 
L 117.694799 -294.050704 
L 117.579284 -297.929909 
L 117.458422 -301.809115 
L 117.338836 -305.68832 
L 117.228205 -309.567525 
L 117.134473 -313.446731 
L 117.064895 -317.325936 
L 117.025057 -321.205141 
L 117.018053 -325.084347 
L 117.043954 -328.963552 
L 117.099653 -332.842757 
L 117.179117 -336.721963 
L 117.27397 -340.601168 
L 117.374297 -344.480373 
L 117.469516 -348.359579 
L 117.549208 -352.238784 
L 117.603816 -356.11799 
L 117.625192 -359.997195 
L 117.607037 -363.8764 
L 117.545263 -367.755606 
L 117.438346 -371.634811 
L 117.287646 -375.514016 
L 117.097661 -379.393222 
L 116.876088 -383.272427 
L 116.633593 -387.151632 
L 116.383191 -391.030838 
L 116.139223 -394.910043 
L 115.916011 -398.789248 
L 115.726384 -402.668454 
L 115.580322 -406.547659 
L 115.483969 -410.426864 
L 115.439208 -414.30607 
L 115.443847 -418.185275 
L 115.492355 -422.06448 
L 115.576913 -425.943686 
L 115.688512 -429.822891 
L 115.817832 -433.702097 
L 115.955693 -437.581302 
L 116.093042 -441.460507 
L 116.220518 -445.339713 
L 116.327801 -449.218918 
L 116.402924 -453.098123 
L 116.431757 -456.977329 
L 116.397774 -460.856534 
L 116.28215 -464.735739 
L 116.064154 -468.614945 
L 115.7218 -472.49415 
L 115.232721 -476.373355 
L 114.575262 -480.252561 
L 113.729843 -484.131766 
L 112.680606 -488.010971 
L 111.417365 -491.890177 
L 109.937686 -495.769382 
L 108.248891 -499.648587 
L 106.369558 -503.527793 
L 104.330118 -507.406998 
L 102.172133 -511.286203 
L 99.946023 -515.165409 
L 97.70727 -519.044614 
L 95.511441 -522.92382 
L 93.408702 -526.803025 
L 91.438683 -530.68223 
L 89.62667 -534.561436 
L 87.981956 -538.440641 
L 86.498897 -542.319846 
L 85.160755 -546.199052 
L 83.945882 -550.078257 
L 82.835303 -553.957462 
L 81.820365 -557.836668 
L 80.90898 -561.715873 
L 80.12911 -565.595078 
L 79.528574 -569.474284 
L 79.170876 -573.353489 
L 79.1275 -577.232694 
L 79.467814 -581.1119 
L 80.248209 -584.991105 
L 81.502281 -588.87031 
L 83.233716 -592.749516 
L 85.413036 -596.628721 
L 87.978691 -600.507926 
L 90.84225 -604.387132 
L 93.896775 -608.266337 
L 97.027024 -612.145543 
L 100.119969 -616.024748 
L 103.074188 -619.903953 
L 105.807059 -623.783159 
L 108.259102 -627.662364 
L 110.395349 -631.541569 
L 112.204036 -635.420775 
L 113.693248 -639.29998 
L 114.886302 -643.179185 
L 115.816668 -647.058391 
L 116.523112 -650.937596 
L 117.045556 -654.816801 
L 117.42193 -658.696007 
L 117.686096 -662.575212 
L 118.688904 -662.575212 
L 118.688904 -662.575212 
L 118.95307 -658.696007 
L 119.329444 -654.816801 
L 119.851888 -650.937596 
L 120.558332 -647.058391 
L 121.488698 -643.179185 
L 122.681752 -639.29998 
L 124.170964 -635.420775 
L 125.979651 -631.541569 
L 128.115898 -627.662364 
L 130.567941 -623.783159 
L 133.300812 -619.903953 
L 136.255031 -616.024748 
L 139.347976 -612.145543 
L 142.478225 -608.266337 
L 145.53275 -604.387132 
L 148.396309 -600.507926 
L 150.961964 -596.628721 
L 153.141284 -592.749516 
L 154.872719 -588.87031 
L 156.126791 -584.991105 
L 156.907186 -581.1119 
L 157.2475 -577.232694 
L 157.204124 -573.353489 
L 156.846426 -569.474284 
L 156.24589 -565.595078 
L 155.46602 -561.715873 
L 154.554635 -557.836668 
L 153.539697 -553.957462 
L 152.429118 -550.078257 
L 151.214245 -546.199052 
L 149.876103 -542.319846 
L 148.393044 -538.440641 
L 146.74833 -534.561436 
L 144.936317 -530.68223 
L 142.966298 -526.803025 
L 140.863559 -522.92382 
L 138.66773 -519.044614 
L 136.428977 -515.165409 
L 134.202867 -511.286203 
L 132.044882 -507.406998 
L 130.005442 -503.527793 
L 128.126109 -499.648587 
L 126.437314 -495.769382 
L 124.957635 -491.890177 
L 123.694394 -488.010971 
L 122.645157 -484.131766 
L 121.799738 -480.252561 
L 121.142279 -476.373355 
L 120.6532 -472.49415 
L 120.310846 -468.614945 
L 120.09285 -464.735739 
L 119.977226 -460.856534 
L 119.943243 -456.977329 
L 119.972076 -453.098123 
L 120.047199 -449.218918 
L 120.154482 -445.339713 
L 120.281958 -441.460507 
L 120.419307 -437.581302 
L 120.557168 -433.702097 
L 120.686488 -429.822891 
L 120.798087 -425.943686 
L 120.882645 -422.06448 
L 120.931153 -418.185275 
L 120.935792 -414.30607 
L 120.891031 -410.426864 
L 120.794678 -406.547659 
L 120.648616 -402.668454 
L 120.458989 -398.789248 
L 120.235777 -394.910043 
L 119.991809 -391.030838 
L 119.741407 -387.151632 
L 119.498912 -383.272427 
L 119.277339 -379.393222 
L 119.087354 -375.514016 
L 118.936654 -371.634811 
L 118.829737 -367.755606 
L 118.767963 -363.8764 
L 118.749808 -359.997195 
L 118.771184 -356.11799 
L 118.825792 -352.238784 
L 118.905484 -348.359579 
L 119.000703 -344.480373 
L 119.10103 -340.601168 
L 119.195883 -336.721963 
L 119.275347 -332.842757 
L 119.331046 -328.963552 
L 119.356947 -325.084347 
L 119.349943 -321.205141 
L 119.310105 -317.325936 
L 119.240527 -313.446731 
L 119.146795 -309.567525 
L 119.036164 -305.68832 
L 118.916578 -301.809115 
L 118.795716 -297.929909 
L 118.680201 -294.050704 
L 118.575069 -290.171499 
L 118.483541 -286.292293 
L 118.40708 -282.413088 
L 118.34565 -278.533883 
z
" style="stroke: #3d3d3d; stroke-opacity: 0.5"/>
    </defs>
    <g clip-path="url(#pfb0132d709)">
     <use xlink:href="#mde7c5f2939" x="0" y="696.702001" style="fill: #d684bd; fill-opacity: 0.5; stroke: #3d3d3d; stroke-opacity: 0.5"/>
    </g>
   </g>
   <g id="PolyCollection_2">
    <defs>
     <path id="m7c156f2eff" d="M 216.410802 -214.061678 
L 215.264198 -214.061678 
L 215.021429 -218.421219 
L 214.695944 -222.78076 
L 214.267799 -227.140301 
L 213.715149 -231.499842 
L 213.015021 -235.859383 
L 212.144396 -240.218924 
L 211.081599 -244.578465 
L 209.807942 -248.938006 
L 208.309569 -253.297547 
L 206.579375 -257.657088 
L 204.618882 -262.016629 
L 202.439888 -266.376171 
L 200.065729 -270.735712 
L 197.531941 -275.095253 
L 194.886157 -279.454794 
L 192.187089 -283.814335 
L 189.502509 -288.173876 
L 186.906257 -292.533417 
L 184.474403 -296.892958 
L 182.280821 -301.252499 
L 180.392582 -305.61204 
L 178.865604 -309.971581 
L 177.741069 -314.331122 
L 177.043028 -318.690663 
L 176.7775 -323.050204 
L 176.933161 -327.409746 
L 177.483512 -331.769287 
L 178.390168 -336.128828 
L 179.606803 -340.488369 
L 181.083144 -344.84791 
L 182.768522 -349.207451 
L 184.614548 -353.566992 
L 186.57673 -357.926533 
L 188.615042 -362.286074 
L 190.693656 -366.645615 
L 192.780192 -371.005156 
L 194.844865 -375.364697 
L 196.859864 -379.724238 
L 198.799187 -384.083779 
L 200.638984 -388.443321 
L 202.358332 -392.802862 
L 203.940212 -397.162403 
L 205.372451 -401.521944 
L 206.648377 -405.881485 
L 207.766998 -410.241026 
L 208.732657 -414.600567 
L 209.554177 -418.960108 
L 210.243635 -423.319649 
L 210.814958 -427.67919 
L 211.282527 -432.038731 
L 211.659979 -436.398272 
L 211.959331 -440.757813 
L 212.19048 -445.117354 
L 212.361097 -449.476896 
L 212.476854 -453.836437 
L 212.541914 -458.195978 
L 212.559571 -462.555519 
L 212.532966 -466.91506 
L 212.465764 -471.274601 
L 212.362726 -475.634142 
L 212.230114 -479.993683 
L 212.075871 -484.353224 
L 211.909562 -488.712765 
L 211.742049 -493.072306 
L 211.584951 -497.431847 
L 211.449898 -501.791388 
L 211.347687 -506.150929 
L 211.287413 -510.51047 
L 211.275688 -514.870012 
L 211.316048 -519.229553 
L 211.408637 -523.589094 
L 211.550212 -527.948635 
L 211.734487 -532.308176 
L 211.952778 -536.667717 
L 212.194878 -541.027258 
L 212.450049 -545.386799 
L 212.708024 -549.74634 
L 212.959885 -554.105881 
L 213.198732 -558.465422 
L 213.420061 -562.824963 
L 213.621834 -567.184504 
L 213.804263 -571.544045 
L 213.969343 -575.903587 
L 214.120239 -580.263128 
L 214.260614 -584.622669 
L 214.393998 -588.98221 
L 214.523272 -593.341751 
L 214.650336 -597.701292 
L 214.775969 -602.060833 
L 214.899881 -606.420374 
L 215.020916 -610.779915 
L 215.137354 -615.139456 
L 215.24724 -619.498997 
L 215.34871 -623.858538 
L 215.440243 -628.218079 
L 215.520826 -632.57762 
L 215.590028 -636.937162 
L 215.647986 -641.296703 
L 215.695325 -645.656244 
L 215.979675 -645.656244 
L 215.979675 -645.656244 
L 216.027014 -641.296703 
L 216.084972 -636.937162 
L 216.154174 -632.57762 
L 216.234757 -628.218079 
L 216.32629 -623.858538 
L 216.42776 -619.498997 
L 216.537646 -615.139456 
L 216.654084 -610.779915 
L 216.775119 -606.420374 
L 216.899031 -602.060833 
L 217.024664 -597.701292 
L 217.151728 -593.341751 
L 217.281002 -588.98221 
L 217.414386 -584.622669 
L 217.554761 -580.263128 
L 217.705657 -575.903587 
L 217.870737 -571.544045 
L 218.053166 -567.184504 
L 218.254939 -562.824963 
L 218.476268 -558.465422 
L 218.715115 -554.105881 
L 218.966976 -549.74634 
L 219.224951 -545.386799 
L 219.480122 -541.027258 
L 219.722222 -536.667717 
L 219.940513 -532.308176 
L 220.124788 -527.948635 
L 220.266363 -523.589094 
L 220.358952 -519.229553 
L 220.399312 -514.870012 
L 220.387587 -510.51047 
L 220.327313 -506.150929 
L 220.225102 -501.791388 
L 220.090049 -497.431847 
L 219.932951 -493.072306 
L 219.765438 -488.712765 
L 219.599129 -484.353224 
L 219.444886 -479.993683 
L 219.312274 -475.634142 
L 219.209236 -471.274601 
L 219.142034 -466.91506 
L 219.115429 -462.555519 
L 219.133086 -458.195978 
L 219.198146 -453.836437 
L 219.313903 -449.476896 
L 219.48452 -445.117354 
L 219.715669 -440.757813 
L 220.015021 -436.398272 
L 220.392473 -432.038731 
L 220.860042 -427.67919 
L 221.431365 -423.319649 
L 222.120823 -418.960108 
L 222.942343 -414.600567 
L 223.908002 -410.241026 
L 225.026623 -405.881485 
L 226.302549 -401.521944 
L 227.734788 -397.162403 
L 229.316668 -392.802862 
L 231.036016 -388.443321 
L 232.875813 -384.083779 
L 234.815136 -379.724238 
L 236.830135 -375.364697 
L 238.894808 -371.005156 
L 240.981344 -366.645615 
L 243.059958 -362.286074 
L 245.09827 -357.926533 
L 247.060452 -353.566992 
L 248.906478 -349.207451 
L 250.591856 -344.84791 
L 252.068197 -340.488369 
L 253.284832 -336.128828 
L 254.191488 -331.769287 
L 254.741839 -327.409746 
L 254.8975 -323.050204 
L 254.631972 -318.690663 
L 253.933931 -314.331122 
L 252.809396 -309.971581 
L 251.282418 -305.61204 
L 249.394179 -301.252499 
L 247.200597 -296.892958 
L 244.768743 -292.533417 
L 242.172491 -288.173876 
L 239.487911 -283.814335 
L 236.788843 -279.454794 
L 234.143059 -275.095253 
L 231.609271 -270.735712 
L 229.235112 -266.376171 
L 227.056118 -262.016629 
L 225.095625 -257.657088 
L 223.365431 -253.297547 
L 221.867058 -248.938006 
L 220.593401 -244.578465 
L 219.530604 -240.218924 
L 218.659979 -235.859383 
L 217.959851 -231.499842 
L 217.407201 -227.140301 
L 216.979056 -222.78076 
L 216.653571 -218.421219 
L 216.410802 -214.061678 
z
" style="stroke: #3d3d3d; stroke-opacity: 0.5"/>
    </defs>
    <g clip-path="url(#pfb0132d709)">
     <use xlink:href="#m7c156f2eff" x="0" y="696.702001" style="fill: #7f7f7f; fill-opacity: 0.5; stroke: #3d3d3d; stroke-opacity: 0.5"/>
    </g>
   </g>
   <g id="PolyCollection_3">
    <defs>
     <path id="mf7f39bda0f" d="M 313.726289 -489.51328 
L 313.248711 -489.51328 
L 313.161623 -489.626301 
L 313.052135 -489.739321 
L 312.917879 -489.852341 
L 312.757285 -489.965361 
L 312.569855 -490.078382 
L 312.356372 -490.191402 
L 312.118989 -490.304422 
L 311.861194 -490.417442 
L 311.587621 -490.530463 
L 311.303726 -490.643483 
L 311.015349 -490.756503 
L 310.728194 -490.869523 
L 310.447258 -490.982544 
L 310.176242 -491.095564 
L 309.91694 -491.208584 
L 309.668633 -491.321604 
L 309.427477 -491.434625 
L 309.185919 -491.547645 
L 308.932187 -491.660665 
L 308.649947 -491.773686 
L 308.318238 -491.886706 
L 307.911833 -491.999726 
L 307.402129 -492.112746 
L 306.758666 -492.225767 
L 305.951256 -492.338787 
L 304.952614 -492.451807 
L 303.741296 -492.564827 
L 302.304613 -492.677848 
L 300.641174 -492.790868 
L 298.762674 -492.903888 
L 296.69461 -493.016908 
L 294.475719 -493.129929 
L 292.156087 -493.242949 
L 289.794049 -493.355969 
L 287.452178 -493.468989 
L 285.192817 -493.58201 
L 283.073633 -493.69503 
L 281.143739 -493.80805 
L 279.440793 -493.921071 
L 277.989357 -494.034091 
L 276.800593 -494.147111 
L 275.873176 -494.260131 
L 275.195129 -494.373152 
L 274.746176 -494.486172 
L 274.500203 -494.599192 
L 274.4275 -494.712212 
L 274.496579 -494.825233 
L 274.675562 -494.938253 
L 274.933253 -495.051273 
L 275.240141 -495.164293 
L 275.569535 -495.277314 
L 275.898982 -495.390334 
L 276.21195 -495.503354 
L 276.499583 -495.616375 
L 276.762218 -495.729395 
L 277.010261 -495.842415 
L 277.264088 -495.955435 
L 277.552748 -496.068456 
L 277.911468 -496.181476 
L 278.37816 -496.294496 
L 278.989323 -496.407516 
L 279.775866 -496.520537 
L 280.759381 -496.633557 
L 281.949335 -496.746577 
L 283.341523 -496.859597 
L 284.917921 -496.972618 
L 286.647946 -497.085638 
L 288.490892 -497.198658 
L 290.39928 -497.311678 
L 292.322692 -497.424699 
L 294.211723 -497.537719 
L 296.021615 -497.650739 
L 297.715287 -497.76376 
L 299.265468 -497.87678 
L 300.655833 -497.9898 
L 301.881099 -498.10282 
L 302.946162 -498.215841 
L 303.86446 -498.328861 
L 304.655774 -498.441881 
L 305.343747 -498.554901 
L 305.953358 -498.667922 
L 306.508605 -498.780942 
L 307.030565 -498.893962 
L 307.535976 -499.006982 
L 308.036404 -499.120003 
L 308.538011 -499.233023 
L 309.041884 -499.346043 
L 309.544817 -499.459063 
L 310.040433 -499.572084 
L 310.520471 -499.685104 
L 310.976094 -499.798124 
L 311.399053 -499.911145 
L 311.782612 -500.024165 
L 312.122153 -500.137185 
L 312.415439 -500.250205 
L 312.662572 -500.363226 
L 312.865693 -500.476246 
L 313.028528 -500.589266 
L 313.155852 -500.702286 
L 313.819148 -500.702286 
L 313.819148 -500.702286 
L 313.946472 -500.589266 
L 314.109307 -500.476246 
L 314.312428 -500.363226 
L 314.559561 -500.250205 
L 314.852847 -500.137185 
L 315.192388 -500.024165 
L 315.575947 -499.911145 
L 315.998906 -499.798124 
L 316.454529 -499.685104 
L 316.934567 -499.572084 
L 317.430183 -499.459063 
L 317.933116 -499.346043 
L 318.436989 -499.233023 
L 318.938596 -499.120003 
L 319.439024 -499.006982 
L 319.944435 -498.893962 
L 320.466395 -498.780942 
L 321.021642 -498.667922 
L 321.631253 -498.554901 
L 322.319226 -498.441881 
L 323.11054 -498.328861 
L 324.028838 -498.215841 
L 325.093901 -498.10282 
L 326.319167 -497.9898 
L 327.709532 -497.87678 
L 329.259713 -497.76376 
L 330.953385 -497.650739 
L 332.763277 -497.537719 
L 334.652308 -497.424699 
L 336.57572 -497.311678 
L 338.484108 -497.198658 
L 340.327054 -497.085638 
L 342.057079 -496.972618 
L 343.633477 -496.859597 
L 345.025665 -496.746577 
L 346.215619 -496.633557 
L 347.199134 -496.520537 
L 347.985677 -496.407516 
L 348.59684 -496.294496 
L 349.063532 -496.181476 
L 349.422252 -496.068456 
L 349.710912 -495.955435 
L 349.964739 -495.842415 
L 350.212782 -495.729395 
L 350.475417 -495.616375 
L 350.76305 -495.503354 
L 351.076018 -495.390334 
L 351.405465 -495.277314 
L 351.734859 -495.164293 
L 352.041747 -495.051273 
L 352.299438 -494.938253 
L 352.478421 -494.825233 
L 352.5475 -494.712212 
L 352.474797 -494.599192 
L 352.228824 -494.486172 
L 351.779871 -494.373152 
L 351.101824 -494.260131 
L 350.174407 -494.147111 
L 348.985643 -494.034091 
L 347.534207 -493.921071 
L 345.831261 -493.80805 
L 343.901367 -493.69503 
L 341.782183 -493.58201 
L 339.522822 -493.468989 
L 337.180951 -493.355969 
L 334.818913 -493.242949 
L 332.499281 -493.129929 
L 330.28039 -493.016908 
L 328.212326 -492.903888 
L 326.333826 -492.790868 
L 324.670387 -492.677848 
L 323.233704 -492.564827 
L 322.022386 -492.451807 
L 321.023744 -492.338787 
L 320.216334 -492.225767 
L 319.572871 -492.112746 
L 319.063167 -491.999726 
L 318.656762 -491.886706 
L 318.325053 -491.773686 
L 318.042813 -491.660665 
L 317.789081 -491.547645 
L 317.547523 -491.434625 
L 317.306367 -491.321604 
L 317.05806 -491.208584 
L 316.798758 -491.095564 
L 316.527742 -490.982544 
L 316.246806 -490.869523 
L 315.959651 -490.756503 
L 315.671274 -490.643483 
L 315.387379 -490.530463 
L 315.113806 -490.417442 
L 314.856011 -490.304422 
L 314.618628 -490.191402 
L 314.405145 -490.078382 
L 314.217715 -489.965361 
L 314.057121 -489.852341 
L 313.922865 -489.739321 
L 313.813377 -489.626301 
L 313.726289 -489.51328 
z
" style="stroke: #3d3d3d; stroke-opacity: 0.5"/>
    </defs>
    <g clip-path="url(#pfb0132d709)">
     <use xlink:href="#mf7f39bda0f" x="0" y="696.702001" style="fill: #9372b2; fill-opacity: 0.5; stroke: #3d3d3d; stroke-opacity: 0.5"/>
    </g>
   </g>
   <g id="PolyCollection_4">
    <defs>
     <path id="m3af7ef4018" d="M 411.336301 -432.849102 
L 410.938699 -432.849102 
L 410.87096 -434.870164 
L 410.787551 -436.891226 
L 410.687407 -438.912287 
L 410.570152 -440.933349 
L 410.436234 -442.954411 
L 410.286967 -444.975473 
L 410.124469 -446.996535 
L 409.951496 -449.017596 
L 409.771164 -451.038658 
L 409.586639 -453.05972 
L 409.400824 -455.080782 
L 409.216128 -457.101844 
L 409.034377 -459.122905 
L 408.8569 -461.143967 
L 408.684786 -463.165029 
L 408.519278 -465.186091 
L 408.362205 -467.207153 
L 408.216346 -469.228214 
L 408.085613 -471.249276 
L 407.974969 -473.270338 
L 407.890024 -475.2914 
L 407.83635 -477.312462 
L 407.818573 -479.333524 
L 407.839395 -481.354585 
L 407.898685 -483.375647 
L 407.992802 -485.396709 
L 408.114259 -487.417771 
L 408.251779 -489.438833 
L 408.390756 -491.459894 
L 408.514035 -493.480956 
L 408.6029 -495.502018 
L 408.638148 -497.52308 
L 408.6011 -499.544142 
L 408.474466 -501.565203 
L 408.242988 -503.586265 
L 407.893847 -505.607327 
L 407.416874 -507.628389 
L 406.804611 -509.649451 
L 406.052319 -511.670513 
L 405.158002 -513.691574 
L 404.122524 -515.712636 
L 402.94985 -517.733698 
L 401.647418 -519.75476 
L 400.226582 -521.775822 
L 398.70304 -523.796883 
L 397.097101 -525.817945 
L 395.433646 -527.839007 
L 393.741646 -529.860069 
L 392.053106 -531.881131 
L 390.401447 -533.902192 
L 388.819362 -535.923254 
L 387.336364 -537.944316 
L 385.976288 -539.965378 
L 384.755116 -541.98644 
L 383.67946 -544.007501 
L 382.745997 -546.028563 
L 381.942007 -548.049625 
L 381.246992 -550.070687 
L 380.635167 -552.091749 
L 380.078465 -554.112811 
L 379.549596 -556.133872 
L 379.024721 -558.154934 
L 378.485399 -560.175996 
L 377.919621 -562.197058 
L 377.32197 -564.21812 
L 376.69312 -566.239181 
L 376.039023 -568.260243 
L 375.370148 -570.281305 
L 374.701063 -572.302367 
L 374.050493 -574.323429 
L 373.441789 -576.34449 
L 372.903525 -578.365552 
L 372.469836 -580.386614 
L 372.180082 -582.407676 
L 372.0775 -584.428738 
L 372.206695 -586.4498 
L 372.610089 -588.470861 
L 373.323669 -590.491923 
L 374.372593 -592.512985 
L 375.7673 -594.534047 
L 377.500758 -596.555109 
L 379.547315 -598.57617 
L 381.863435 -600.597232 
L 384.390263 -602.618294 
L 387.05775 -604.639356 
L 389.789809 -606.660418 
L 392.509896 -608.681479 
L 395.146347 -610.702541 
L 397.636906 -612.723603 
L 399.932029 -614.744665 
L 401.996751 -616.765727 
L 403.81108 -618.786788 
L 405.369105 -620.80785 
L 406.67709 -622.828912 
L 407.750917 -624.849974 
L 408.613252 -626.871036 
L 409.290758 -628.892098 
L 409.811607 -630.913159 
L 410.203458 -632.934221 
L 412.071542 -632.934221 
L 412.071542 -632.934221 
L 412.463393 -630.913159 
L 412.984242 -628.892098 
L 413.661748 -626.871036 
L 414.524083 -624.849974 
L 415.59791 -622.828912 
L 416.905895 -620.80785 
L 418.46392 -618.786788 
L 420.278249 -616.765727 
L 422.342971 -614.744665 
L 424.638094 -612.723603 
L 427.128653 -610.702541 
L 429.765104 -608.681479 
L 432.485191 -606.660418 
L 435.21725 -604.639356 
L 437.884737 -602.618294 
L 440.411565 -600.597232 
L 442.727685 -598.57617 
L 444.774242 -596.555109 
L 446.5077 -594.534047 
L 447.902407 -592.512985 
L 448.951331 -590.491923 
L 449.664911 -588.470861 
L 450.068305 -586.4498 
L 450.1975 -584.428738 
L 450.094918 -582.407676 
L 449.805164 -580.386614 
L 449.371475 -578.365552 
L 448.833211 -576.34449 
L 448.224507 -574.323429 
L 447.573937 -572.302367 
L 446.904852 -570.281305 
L 446.235977 -568.260243 
L 445.58188 -566.239181 
L 444.95303 -564.21812 
L 444.355379 -562.197058 
L 443.789601 -560.175996 
L 443.250279 -558.154934 
L 442.725404 -556.133872 
L 442.196535 -554.112811 
L 441.639833 -552.091749 
L 441.028008 -550.070687 
L 440.332993 -548.049625 
L 439.529003 -546.028563 
L 438.59554 -544.007501 
L 437.519884 -541.98644 
L 436.298712 -539.965378 
L 434.938636 -537.944316 
L 433.455638 -535.923254 
L 431.873553 -533.902192 
L 430.221894 -531.881131 
L 428.533354 -529.860069 
L 426.841354 -527.839007 
L 425.177899 -525.817945 
L 423.57196 -523.796883 
L 422.048418 -521.775822 
L 420.627582 -519.75476 
L 419.32515 -517.733698 
L 418.152476 -515.712636 
L 417.116998 -513.691574 
L 416.222681 -511.670513 
L 415.470389 -509.649451 
L 414.858126 -507.628389 
L 414.381153 -505.607327 
L 414.032012 -503.586265 
L 413.800534 -501.565203 
L 413.6739 -499.544142 
L 413.636852 -497.52308 
L 413.6721 -495.502018 
L 413.760965 -493.480956 
L 413.884244 -491.459894 
L 414.023221 -489.438833 
L 414.160741 -487.417771 
L 414.282198 -485.396709 
L 414.376315 -483.375647 
L 414.435605 -481.354585 
L 414.456427 -479.333524 
L 414.43865 -477.312462 
L 414.384976 -475.2914 
L 414.300031 -473.270338 
L 414.189387 -471.249276 
L 414.058654 -469.228214 
L 413.912795 -467.207153 
L 413.755722 -465.186091 
L 413.590214 -463.165029 
L 413.4181 -461.143967 
L 413.240623 -459.122905 
L 413.058872 -457.101844 
L 412.874176 -455.080782 
L 412.688361 -453.05972 
L 412.503836 -451.038658 
L 412.323504 -449.017596 
L 412.150531 -446.996535 
L 411.988033 -444.975473 
L 411.838766 -442.954411 
L 411.704848 -440.933349 
L 411.587593 -438.912287 
L 411.487449 -436.891226 
L 411.40404 -434.870164 
L 411.336301 -432.849102 
z
" style="stroke: #3d3d3d; stroke-opacity: 0.5"/>
    </defs>
    <g clip-path="url(#pfb0132d709)">
     <use xlink:href="#m3af7ef4018" x="0" y="696.702001" style="fill: #845b53; fill-opacity: 0.5; stroke: #3d3d3d; stroke-opacity: 0.5"/>
    </g>
   </g>
   <g id="PolyCollection_5">
    <defs>
     <path id="mf8ddcdefe1" d="M 508.992237 -244.098152 
L 508.582763 -244.098152 
L 508.500908 -245.338616 
L 508.398532 -246.57908 
L 508.275638 -247.819544 
L 508.134374 -249.060008 
L 507.979394 -250.300472 
L 507.817869 -251.540936 
L 507.659071 -252.7814 
L 507.513487 -254.021864 
L 507.391547 -255.262327 
L 507.302133 -256.502791 
L 507.25114 -257.743255 
L 507.240336 -258.983719 
L 507.266789 -260.224183 
L 507.322991 -261.464647 
L 507.397694 -262.705111 
L 507.477325 -263.945575 
L 507.547751 -265.186039 
L 507.596063 -266.426503 
L 507.612056 -267.666967 
L 507.589109 -268.907431 
L 507.524263 -270.147895 
L 507.417381 -271.388359 
L 507.269452 -272.628823 
L 507.080226 -273.869287 
L 506.845511 -275.109751 
L 506.554595 -276.350215 
L 506.188319 -277.590679 
L 505.718323 -278.831143 
L 505.107882 -280.071607 
L 504.314541 -281.312071 
L 503.294493 -282.552535 
L 502.008331 -283.792999 
L 500.427467 -285.033463 
L 498.540365 -286.273927 
L 496.357572 -287.514391 
L 493.914665 -288.754855 
L 491.272442 -289.995319 
L 488.514066 -291.235783 
L 485.739298 -292.476247 
L 483.056363 -293.716711 
L 480.572333 -294.957175 
L 478.383059 -296.197639 
L 476.563756 -297.438103 
L 475.161207 -298.678567 
L 474.18843 -299.919031 
L 473.622417 -301.159495 
L 473.40541 -302.399959 
L 473.4499 -303.640423 
L 473.647298 -304.880887 
L 473.879816 -306.121351 
L 474.034619 -307.361815 
L 474.018744 -308.602279 
L 473.77286 -309.842742 
L 473.281687 -311.083206 
L 472.579035 -312.32367 
L 471.746048 -313.564134 
L 470.902226 -314.804598 
L 470.190093 -316.045062 
L 469.755621 -317.285526 
L 469.7275 -318.52599 
L 470.198739 -319.766454 
L 471.213732 -321.006918 
L 472.762965 -322.247382 
L 474.786029 -323.487846 
L 477.182023 -324.72831 
L 479.825039 -325.968774 
L 482.581647 -327.209238 
L 485.327184 -328.449702 
L 487.958259 -329.690166 
L 490.399978 -330.93063 
L 492.607603 -332.171094 
L 494.563534 -333.411558 
L 496.271175 -334.652022 
L 497.747555 -335.892486 
L 499.016373 -337.13295 
L 500.102645 -338.373414 
L 501.029484 -339.613878 
L 501.816971 -340.854342 
L 502.482592 -342.094806 
L 503.042539 -343.33527 
L 503.513089 -344.575734 
L 503.911509 -345.816198 
L 504.256141 -347.056662 
L 504.56564 -348.297126 
L 504.857582 -349.53759 
L 505.146823 -350.778054 
L 505.444031 -352.018518 
L 505.754748 -353.258982 
L 506.07921 -354.499446 
L 506.412941 -355.73991 
L 506.748004 -356.980374 
L 507.074617 -358.220838 
L 507.382841 -359.461302 
L 507.664048 -360.701766 
L 507.911946 -361.94223 
L 508.123083 -363.182694 
L 508.29685 -364.423157 
L 508.435075 -365.663621 
L 508.541376 -366.904085 
L 509.033624 -366.904085 
L 509.033624 -366.904085 
L 509.139925 -365.663621 
L 509.27815 -364.423157 
L 509.451917 -363.182694 
L 509.663054 -361.94223 
L 509.910952 -360.701766 
L 510.192159 -359.461302 
L 510.500383 -358.220838 
L 510.826996 -356.980374 
L 511.162059 -355.73991 
L 511.49579 -354.499446 
L 511.820252 -353.258982 
L 512.130969 -352.018518 
L 512.428177 -350.778054 
L 512.717418 -349.53759 
L 513.00936 -348.297126 
L 513.318859 -347.056662 
L 513.663491 -345.816198 
L 514.061911 -344.575734 
L 514.532461 -343.33527 
L 515.092408 -342.094806 
L 515.758029 -340.854342 
L 516.545516 -339.613878 
L 517.472355 -338.373414 
L 518.558627 -337.13295 
L 519.827445 -335.892486 
L 521.303825 -334.652022 
L 523.011466 -333.411558 
L 524.967397 -332.171094 
L 527.175022 -330.93063 
L 529.616741 -329.690166 
L 532.247816 -328.449702 
L 534.993353 -327.209238 
L 537.749961 -325.968774 
L 540.392977 -324.72831 
L 542.788971 -323.487846 
L 544.812035 -322.247382 
L 546.361268 -321.006918 
L 547.376261 -319.766454 
L 547.8475 -318.52599 
L 547.819379 -317.285526 
L 547.384907 -316.045062 
L 546.672774 -314.804598 
L 545.828952 -313.564134 
L 544.995965 -312.32367 
L 544.293313 -311.083206 
L 543.80214 -309.842742 
L 543.556256 -308.602279 
L 543.540381 -307.361815 
L 543.695184 -306.121351 
L 543.927702 -304.880887 
L 544.1251 -303.640423 
L 544.16959 -302.399959 
L 543.952583 -301.159495 
L 543.38657 -299.919031 
L 542.413793 -298.678567 
L 541.011244 -297.438103 
L 539.191941 -296.197639 
L 537.002667 -294.957175 
L 534.518637 -293.716711 
L 531.835702 -292.476247 
L 529.060934 -291.235783 
L 526.302558 -289.995319 
L 523.660335 -288.754855 
L 521.217428 -287.514391 
L 519.034635 -286.273927 
L 517.147533 -285.033463 
L 515.566669 -283.792999 
L 514.280507 -282.552535 
L 513.260459 -281.312071 
L 512.467118 -280.071607 
L 511.856677 -278.831143 
L 511.386681 -277.590679 
L 511.020405 -276.350215 
L 510.729489 -275.109751 
L 510.494774 -273.869287 
L 510.305548 -272.628823 
L 510.157619 -271.388359 
L 510.050737 -270.147895 
L 509.985891 -268.907431 
L 509.962944 -267.666967 
L 509.978937 -266.426503 
L 510.027249 -265.186039 
L 510.097675 -263.945575 
L 510.177306 -262.705111 
L 510.252009 -261.464647 
L 510.308211 -260.224183 
L 510.334664 -258.983719 
L 510.32386 -257.743255 
L 510.272867 -256.502791 
L 510.183453 -255.262327 
L 510.061513 -254.021864 
L 509.915929 -252.7814 
L 509.757131 -251.540936 
L 509.595606 -250.300472 
L 509.440626 -249.060008 
L 509.299362 -247.819544 
L 509.176468 -246.57908 
L 509.074092 -245.338616 
L 508.992237 -244.098152 
z
" style="stroke: #3d3d3d; stroke-opacity: 0.5"/>
    </defs>
    <g clip-path="url(#pfb0132d709)">
     <use xlink:href="#mf8ddcdefe1" x="0" y="696.702001" style="fill: #3274a1; fill-opacity: 0.5; stroke: #3d3d3d; stroke-opacity: 0.5"/>
    </g>
   </g>
   <g id="PolyCollection_6">
    <defs>
     <path id="mcf30acae3c" d="M 607.120768 -160.302001 
L 605.754232 -160.302001 
L 605.51755 -165.39291 
L 605.215866 -170.48382 
L 604.837285 -175.574729 
L 604.369568 -180.665638 
L 603.800694 -185.756547 
L 603.11953 -190.847456 
L 602.316596 -195.938365 
L 601.38486 -201.029274 
L 600.320509 -206.120183 
L 599.123618 -211.211092 
L 597.798629 -216.302001 
L 596.354586 -221.39291 
L 594.805045 -226.48382 
L 593.167644 -231.574729 
L 591.463325 -236.665638 
L 589.715255 -241.756547 
L 587.947525 -246.847456 
L 586.183746 -251.938365 
L 584.445682 -257.029274 
L 582.75208 -262.120183 
L 581.117828 -267.211092 
L 579.553558 -272.302001 
L 578.065761 -277.39291 
L 576.657411 -282.48382 
L 575.329039 -287.574729 
L 574.080126 -292.665638 
L 572.91064 -297.756547 
L 571.822515 -302.847456 
L 570.820854 -307.938365 
L 569.914692 -313.029274 
L 569.117163 -318.120183 
L 568.445044 -323.211092 
L 567.917674 -328.302001 
L 567.555368 -333.39291 
L 567.3775 -338.48382 
L 567.400456 -343.574729 
L 567.635715 -348.665638 
L 568.088263 -353.756547 
L 568.755522 -358.847456 
L 569.626912 -363.938365 
L 570.68408 -369.029274 
L 571.90177 -374.120183 
L 573.249202 -379.211092 
L 574.691835 -384.302001 
L 576.193295 -389.39291 
L 577.717304 -394.48382 
L 579.229421 -399.574729 
L 580.698474 -404.665638 
L 582.097586 -409.756547 
L 583.404783 -414.847456 
L 584.60318 -419.938365 
L 585.680838 -425.029274 
L 586.630357 -430.120183 
L 587.448335 -435.211092 
L 588.134789 -440.302001 
L 588.692623 -445.39291 
L 589.127234 -450.48382 
L 589.446259 -455.574729 
L 589.659479 -460.665638 
L 589.77884 -465.756547 
L 589.818522 -470.847456 
L 589.794978 -475.938365 
L 589.726874 -481.029274 
L 589.634831 -486.120183 
L 589.540942 -491.211092 
L 589.468051 -496.302001 
L 589.438791 -501.39291 
L 589.474479 -506.48382 
L 589.593931 -511.574729 
L 589.812332 -516.665638 
L 590.14027 -521.756547 
L 590.583043 -526.847456 
L 591.140326 -531.938365 
L 591.806234 -537.029274 
L 592.569789 -542.120183 
L 593.415737 -547.211092 
L 594.325639 -552.302001 
L 595.27912 -557.39291 
L 596.255163 -562.48382 
L 597.23333 -567.574729 
L 598.194805 -572.665638 
L 599.123201 -577.756547 
L 600.005082 -582.847456 
L 600.830211 -587.938365 
L 601.591536 -593.029274 
L 602.284976 -598.120183 
L 602.909055 -603.211092 
L 603.464463 -608.302001 
L 603.953573 -613.39291 
L 604.379996 -618.48382 
L 604.748168 -623.574729 
L 605.063018 -628.665638 
L 605.329695 -633.756547 
L 605.553372 -638.847456 
L 605.739098 -643.938365 
L 605.891699 -649.029274 
L 606.01571 -654.120183 
L 606.115328 -659.211092 
L 606.194388 -664.302001 
L 606.680612 -664.302001 
L 606.680612 -664.302001 
L 606.759672 -659.211092 
L 606.85929 -654.120183 
L 606.983301 -649.029274 
L 607.135902 -643.938365 
L 607.321628 -638.847456 
L 607.545305 -633.756547 
L 607.811982 -628.665638 
L 608.126832 -623.574729 
L 608.495004 -618.48382 
L 608.921427 -613.39291 
L 609.410537 -608.302001 
L 609.965945 -603.211092 
L 610.590024 -598.120183 
L 611.283464 -593.029274 
L 612.044789 -587.938365 
L 612.869918 -582.847456 
L 613.751799 -577.756547 
L 614.680195 -572.665638 
L 615.64167 -567.574729 
L 616.619837 -562.48382 
L 617.59588 -557.39291 
L 618.549361 -552.302001 
L 619.459263 -547.211092 
L 620.305211 -542.120183 
L 621.068766 -537.029274 
L 621.734674 -531.938365 
L 622.291957 -526.847456 
L 622.73473 -521.756547 
L 623.062668 -516.665638 
L 623.281069 -511.574729 
L 623.400521 -506.48382 
L 623.436209 -501.39291 
L 623.406949 -496.302001 
L 623.334058 -491.211092 
L 623.240169 -486.120183 
L 623.148126 -481.029274 
L 623.080022 -475.938365 
L 623.056478 -470.847456 
L 623.09616 -465.756547 
L 623.215521 -460.665638 
L 623.428741 -455.574729 
L 623.747766 -450.48382 
L 624.182377 -445.39291 
L 624.740211 -440.302001 
L 625.426665 -435.211092 
L 626.244643 -430.120183 
L 627.194162 -425.029274 
L 628.27182 -419.938365 
L 629.470217 -414.847456 
L 630.777414 -409.756547 
L 632.176526 -404.665638 
L 633.645579 -399.574729 
L 635.157696 -394.48382 
L 636.681705 -389.39291 
L 638.183165 -384.302001 
L 639.625798 -379.211092 
L 640.97323 -374.120183 
L 642.19092 -369.029274 
L 643.248088 -363.938365 
L 644.119478 -358.847456 
L 644.786737 -353.756547 
L 645.239285 -348.665638 
L 645.474544 -343.574729 
L 645.4975 -338.48382 
L 645.319632 -333.39291 
L 644.957326 -328.302001 
L 644.429956 -323.211092 
L 643.757837 -318.120183 
L 642.960308 -313.029274 
L 642.054146 -307.938365 
L 641.052485 -302.847456 
L 639.96436 -297.756547 
L 638.794874 -292.665638 
L 637.545961 -287.574729 
L 636.217589 -282.48382 
L 634.809239 -277.39291 
L 633.321442 -272.302001 
L 631.757172 -267.211092 
L 630.12292 -262.120183 
L 628.429318 -257.029274 
L 626.691254 -251.938365 
L 624.927475 -246.847456 
L 623.159745 -241.756547 
L 621.411675 -236.665638 
L 619.707356 -231.574729 
L 618.069955 -226.48382 
L 616.520414 -221.39291 
L 615.076371 -216.302001 
L 613.751382 -211.211092 
L 612.554491 -206.120183 
L 611.49014 -201.029274 
L 610.558404 -195.938365 
L 609.75547 -190.847456 
L 609.074306 -185.756547 
L 608.505432 -180.665638 
L 608.037715 -175.574729 
L 607.659134 -170.48382 
L 607.35745 -165.39291 
L 607.120768 -160.302001 
z
" style="stroke: #3d3d3d; stroke-opacity: 0.5"/>
    </defs>
    <g clip-path="url(#pfb0132d709)">
     <use xlink:href="#mcf30acae3c" x="0" y="696.702001" style="fill: #e1812c; fill-opacity: 0.5; stroke: #3d3d3d; stroke-opacity: 0.5"/>
    </g>
   </g>
   <g id="PolyCollection_7">
    <defs>
     <path id="mf4616ffda1" d="M 704.210292 -244.053013 
L 703.964708 -244.053013 
L 703.917544 -247.010996 
L 703.858896 -249.968979 
L 703.788658 -252.926963 
L 703.707782 -255.884946 
L 703.618458 -258.842929 
L 703.524121 -261.800912 
L 703.429257 -264.758896 
L 703.338976 -267.716879 
L 703.258391 -270.674862 
L 703.191879 -273.632845 
L 703.142329 -276.590828 
L 703.110533 -279.548812 
L 703.094819 -282.506795 
L 703.091026 -285.464778 
L 703.092836 -288.422761 
L 703.09242 -291.380745 
L 703.081296 -294.338728 
L 703.051263 -297.296711 
L 702.995278 -300.254694 
L 702.908175 -303.212677 
L 702.787158 -306.170661 
L 702.632084 -309.128644 
L 702.445558 -312.086627 
L 702.232906 -315.04461 
L 702.002038 -318.002594 
L 701.763211 -320.960577 
L 701.528635 -323.91856 
L 701.311853 -326.876543 
L 701.126834 -329.834527 
L 700.986774 -332.79251 
L 700.902693 -335.750493 
L 700.881976 -338.708476 
L 700.927127 -341.666459 
L 701.034953 -344.624443 
L 701.196396 -347.582426 
L 701.397109 -350.540409 
L 701.618697 -353.498392 
L 701.840486 -356.456376 
L 702.041509 -359.414359 
L 702.202426 -362.372342 
L 702.307102 -365.330325 
L 702.34367 -368.288308 
L 702.305002 -371.246292 
L 702.188616 -374.204275 
L 701.996126 -377.162258 
L 701.732347 -380.120241 
L 701.404164 -383.078225 
L 701.019237 -386.036208 
L 700.584545 -388.994191 
L 700.104783 -391.952174 
L 699.580616 -394.910157 
L 699.006884 -397.868141 
L 698.370935 -400.826124 
L 697.651392 -403.784107 
L 696.817768 -406.74209 
L 695.831346 -409.700074 
L 694.647741 -412.658057 
L 693.221337 -415.61604 
L 691.511525 -418.574023 
L 689.490311 -421.532006 
L 687.150432 -424.48999 
L 684.512797 -427.447973 
L 681.63188 -430.405956 
L 678.597741 -433.363939 
L 675.533641 -436.321923 
L 672.588856 -439.279906 
L 669.927036 -442.237889 
L 667.711271 -445.195872 
L 666.087737 -448.153855 
L 665.170182 -451.111839 
L 665.0275 -454.069822 
L 665.676246 -457.027805 
L 667.079146 -459.985788 
L 669.149727 -462.943772 
L 671.762224 -465.901755 
L 674.765174 -468.859738 
L 677.996672 -471.817721 
L 681.299198 -474.775704 
L 684.53223 -477.733688 
L 687.581384 -480.691671 
L 690.363479 -483.649654 
L 692.827596 -486.607637 
L 694.9527 -489.565621 
L 696.742759 -492.523604 
L 698.220452 -495.481587 
L 699.420496 -498.43957 
L 700.383458 -501.397553 
L 701.150661 -504.355537 
L 701.760496 -507.31352 
L 702.246187 -510.271503 
L 702.634865 -513.229486 
L 702.947646 -516.18747 
L 703.200382 -519.145453 
L 703.404734 -522.103436 
L 703.569315 -525.061419 
L 703.700689 -528.019403 
L 703.80414 -530.977386 
L 703.884177 -533.935369 
L 703.944818 -536.893352 
L 704.230182 -536.893352 
L 704.230182 -536.893352 
L 704.290823 -533.935369 
L 704.37086 -530.977386 
L 704.474311 -528.019403 
L 704.605685 -525.061419 
L 704.770266 -522.103436 
L 704.974618 -519.145453 
L 705.227354 -516.18747 
L 705.540135 -513.229486 
L 705.928813 -510.271503 
L 706.414504 -507.31352 
L 707.024339 -504.355537 
L 707.791542 -501.397553 
L 708.754504 -498.43957 
L 709.954548 -495.481587 
L 711.432241 -492.523604 
L 713.2223 -489.565621 
L 715.347404 -486.607637 
L 717.811521 -483.649654 
L 720.593616 -480.691671 
L 723.64277 -477.733688 
L 726.875802 -474.775704 
L 730.178328 -471.817721 
L 733.409826 -468.859738 
L 736.412776 -465.901755 
L 739.025273 -462.943772 
L 741.095854 -459.985788 
L 742.498754 -457.027805 
L 743.1475 -454.069822 
L 743.004818 -451.111839 
L 742.087263 -448.153855 
L 740.463729 -445.195872 
L 738.247964 -442.237889 
L 735.586144 -439.279906 
L 732.641359 -436.321923 
L 729.577259 -433.363939 
L 726.54312 -430.405956 
L 723.662203 -427.447973 
L 721.024568 -424.48999 
L 718.684689 -421.532006 
L 716.663475 -418.574023 
L 714.953663 -415.61604 
L 713.527259 -412.658057 
L 712.343654 -409.700074 
L 711.357232 -406.74209 
L 710.523608 -403.784107 
L 709.804065 -400.826124 
L 709.168116 -397.868141 
L 708.594384 -394.910157 
L 708.070217 -391.952174 
L 707.590455 -388.994191 
L 707.155763 -386.036208 
L 706.770836 -383.078225 
L 706.442653 -380.120241 
L 706.178874 -377.162258 
L 705.986384 -374.204275 
L 705.869998 -371.246292 
L 705.83133 -368.288308 
L 705.867898 -365.330325 
L 705.972574 -362.372342 
L 706.133491 -359.414359 
L 706.334514 -356.456376 
L 706.556303 -353.498392 
L 706.777891 -350.540409 
L 706.978604 -347.582426 
L 707.140047 -344.624443 
L 707.247873 -341.666459 
L 707.293024 -338.708476 
L 707.272307 -335.750493 
L 707.188226 -332.79251 
L 707.048166 -329.834527 
L 706.863147 -326.876543 
L 706.646365 -323.91856 
L 706.411789 -320.960577 
L 706.172962 -318.002594 
L 705.942094 -315.04461 
L 705.729442 -312.086627 
L 705.542916 -309.128644 
L 705.387842 -306.170661 
L 705.266825 -303.212677 
L 705.179722 -300.254694 
L 705.123737 -297.296711 
L 705.093704 -294.338728 
L 705.08258 -291.380745 
L 705.082164 -288.422761 
L 705.083974 -285.464778 
L 705.080181 -282.506795 
L 705.064467 -279.548812 
L 705.032671 -276.590828 
L 704.983121 -273.632845 
L 704.916609 -270.674862 
L 704.836024 -267.716879 
L 704.745743 -264.758896 
L 704.650879 -261.800912 
L 704.556542 -258.842929 
L 704.467218 -255.884946 
L 704.386342 -252.926963 
L 704.316104 -249.968979 
L 704.257456 -247.010996 
L 704.210292 -244.053013 
z
" style="stroke: #3d3d3d; stroke-opacity: 0.5"/>
    </defs>
    <g clip-path="url(#pfb0132d709)">
     <use xlink:href="#mf4616ffda1" x="0" y="696.702001" style="fill: #3a923a; fill-opacity: 0.5; stroke: #3d3d3d; stroke-opacity: 0.5"/>
    </g>
   </g>
   <g id="PolyCollection_8">
    <defs>
     <path id="mbb0f7411de" d="M 801.897738 -235.59713 
L 801.577262 -235.59713 
L 801.512677 -239.878856 
L 801.431809 -244.160582 
L 801.334698 -248.442308 
L 801.223138 -252.724035 
L 801.100979 -257.005761 
L 800.97415 -261.287487 
L 800.85034 -265.569213 
L 800.738311 -269.85094 
L 800.646913 -274.132666 
L 800.58394 -278.414392 
L 800.555038 -282.696118 
L 800.562869 -286.977845 
L 800.606707 -291.259571 
L 800.682551 -295.541297 
L 800.783721 -299.823023 
L 800.901837 -304.104749 
L 801.027951 -308.386476 
L 801.153647 -312.668202 
L 801.271916 -316.949928 
L 801.377683 -321.231654 
L 801.467978 -325.513381 
L 801.541769 -329.795107 
L 801.599574 -334.076833 
L 801.642953 -338.358559 
L 801.673982 -342.640285 
L 801.694792 -346.922012 
L 801.707185 -351.203738 
L 801.712362 -355.485464 
L 801.710712 -359.76719 
L 801.701668 -364.048917 
L 801.683603 -368.330643 
L 801.653767 -372.612369 
L 801.608292 -376.894095 
L 801.542301 -381.175822 
L 801.450169 -385.457548 
L 801.325966 -389.739274 
L 801.164101 -394.021 
L 800.960118 -398.302726 
L 800.711566 -402.584453 
L 800.418802 -406.866179 
L 800.085568 -411.147905 
L 799.719167 -415.429631 
L 799.330149 -419.711358 
L 798.93145 -423.993084 
L 798.537082 -428.27481 
L 798.160512 -432.556536 
L 797.81298 -436.838262 
L 797.501961 -441.119989 
L 797.229958 -445.401715 
L 796.993697 -449.683441 
L 796.7837 -453.965167 
L 796.584164 -458.246894 
L 796.37307 -462.52862 
L 796.122518 -466.810346 
L 795.799431 -471.092072 
L 795.36686 -475.373799 
L 794.786181 -479.655525 
L 794.020397 -483.937251 
L 793.038497 -488.218977 
L 791.82053 -492.500703 
L 790.362639 -496.78243 
L 788.681033 -501.064156 
L 786.813758 -505.345882 
L 784.819351 -509.627608 
L 782.771881 -513.909335 
L 780.752621 -518.191061 
L 778.839365 -522.472787 
L 777.095066 -526.754513 
L 775.557912 -531.036239 
L 774.234897 -535.317966 
L 773.100537 -539.599692 
L 772.101504 -543.881418 
L 771.166898 -548.163144 
L 770.222769 -552.444871 
L 769.208592 -556.726597 
L 768.092841 -561.008323 
L 766.884749 -565.290049 
L 765.639799 -569.571775 
L 764.457418 -573.853502 
L 763.470668 -578.135228 
L 762.82912 -582.416954 
L 762.6775 -586.69868 
L 763.133549 -590.980407 
L 764.268938 -595.262133 
L 766.096593 -599.543859 
L 768.566666 -603.825585 
L 771.571788 -608.107312 
L 774.96049 -612.389038 
L 778.55618 -616.670764 
L 782.178248 -620.95249 
L 785.661703 -625.234216 
L 788.872439 -629.515943 
L 791.716349 -633.797669 
L 794.141871 -638.079395 
L 796.13677 -642.361121 
L 797.720789 -646.642848 
L 798.936171 -650.924574 
L 799.837923 -655.2063 
L 800.485258 -659.488026 
L 802.989742 -659.488026 
L 802.989742 -659.488026 
L 803.637077 -655.2063 
L 804.538829 -650.924574 
L 805.754211 -646.642848 
L 807.33823 -642.361121 
L 809.333129 -638.079395 
L 811.758651 -633.797669 
L 814.602561 -629.515943 
L 817.813297 -625.234216 
L 821.296752 -620.95249 
L 824.91882 -616.670764 
L 828.51451 -612.389038 
L 831.903212 -608.107312 
L 834.908334 -603.825585 
L 837.378407 -599.543859 
L 839.206062 -595.262133 
L 840.341451 -590.980407 
L 840.7975 -586.69868 
L 840.64588 -582.416954 
L 840.004332 -578.135228 
L 839.017582 -573.853502 
L 837.835201 -569.571775 
L 836.590251 -565.290049 
L 835.382159 -561.008323 
L 834.266408 -556.726597 
L 833.252231 -552.444871 
L 832.308102 -548.163144 
L 831.373496 -543.881418 
L 830.374463 -539.599692 
L 829.240103 -535.317966 
L 827.917088 -531.036239 
L 826.379934 -526.754513 
L 824.635635 -522.472787 
L 822.722379 -518.191061 
L 820.703119 -513.909335 
L 818.655649 -509.627608 
L 816.661242 -505.345882 
L 814.793967 -501.064156 
L 813.112361 -496.78243 
L 811.65447 -492.500703 
L 810.436503 -488.218977 
L 809.454603 -483.937251 
L 808.688819 -479.655525 
L 808.10814 -475.373799 
L 807.675569 -471.092072 
L 807.352482 -466.810346 
L 807.10193 -462.52862 
L 806.890836 -458.246894 
L 806.6913 -453.965167 
L 806.481303 -449.683441 
L 806.245042 -445.401715 
L 805.973039 -441.119989 
L 805.66202 -436.838262 
L 805.314488 -432.556536 
L 804.937918 -428.27481 
L 804.54355 -423.993084 
L 804.144851 -419.711358 
L 803.755833 -415.429631 
L 803.389432 -411.147905 
L 803.056198 -406.866179 
L 802.763434 -402.584453 
L 802.514882 -398.302726 
L 802.310899 -394.021 
L 802.149034 -389.739274 
L 802.024831 -385.457548 
L 801.932699 -381.175822 
L 801.866708 -376.894095 
L 801.821233 -372.612369 
L 801.791397 -368.330643 
L 801.773332 -364.048917 
L 801.764288 -359.76719 
L 801.762638 -355.485464 
L 801.767815 -351.203738 
L 801.780208 -346.922012 
L 801.801018 -342.640285 
L 801.832047 -338.358559 
L 801.875426 -334.076833 
L 801.933231 -329.795107 
L 802.007022 -325.513381 
L 802.097317 -321.231654 
L 802.203084 -316.949928 
L 802.321353 -312.668202 
L 802.447049 -308.386476 
L 802.573163 -304.104749 
L 802.691279 -299.823023 
L 802.792449 -295.541297 
L 802.868293 -291.259571 
L 802.912131 -286.977845 
L 802.919962 -282.696118 
L 802.89106 -278.414392 
L 802.828087 -274.132666 
L 802.736689 -269.85094 
L 802.62466 -265.569213 
L 802.50085 -261.287487 
L 802.374021 -257.005761 
L 802.251862 -252.724035 
L 802.140302 -248.442308 
L 802.043191 -244.160582 
L 801.962323 -239.878856 
L 801.897738 -235.59713 
z
" style="stroke: #3d3d3d; stroke-opacity: 0.5"/>
    </defs>
    <g clip-path="url(#pfb0132d709)">
     <use xlink:href="#mbb0f7411de" x="0" y="696.702001" style="fill: #c03d3e; fill-opacity: 0.5; stroke: #3d3d3d; stroke-opacity: 0.5"/>
    </g>
   </g>
   <g id="line2d_7">
    <path d="M 118.1875 202.171627 
L 118.1875 79.383284 
" clip-path="url(#pfb0132d709)" style="fill: none; stroke: #3d3d3d; stroke-width: 1.5; stroke-linecap: round"/>
   </g>
   <g id="line2d_8">
    <path d="M 118.1875 161.806641 
L 118.1875 110.636317 
" clip-path="url(#pfb0132d709)" style="fill: none; stroke: #3d3d3d; stroke-width: 4.5; stroke-linecap: round"/>
   </g>
   <g id="line2d_9">
    <path d="M 118.1875 130.861989 
" clip-path="url(#pfb0132d709)" style="fill: none; stroke: #3d3d3d; stroke-width: 1.5; stroke-linecap: round"/>
    <defs>
     <path id="m3e10cda541" d="M 1.875 0 
L -1.875 -0 
" style="stroke: #ffffff; stroke-width: 0.9"/>
    </defs>
    <g clip-path="url(#pfb0132d709)">
     <use xlink:href="#m3e10cda541" x="118.1875" y="130.861989" style="fill: #ffffff; stroke: #ffffff; stroke-width: 0.9"/>
    </g>
   </g>
   <g id="line2d_10">
    <path d="M 215.8375 423.390295 
L 215.8375 276.785327 
" clip-path="url(#pfb0132d709)" style="fill: none; stroke: #3d3d3d; stroke-width: 1.5; stroke-linecap: round"/>
   </g>
   <g id="line2d_11">
    <path d="M 215.8375 383.687633 
L 215.8375 330.447604 
" clip-path="url(#pfb0132d709)" style="fill: none; stroke: #3d3d3d; stroke-width: 4.5; stroke-linecap: round"/>
   </g>
   <g id="line2d_12">
    <path d="M 215.8375 369.870924 
" clip-path="url(#pfb0132d709)" style="fill: none; stroke: #3d3d3d; stroke-width: 1.5; stroke-linecap: round"/>
    <g clip-path="url(#pfb0132d709)">
     <use xlink:href="#m3e10cda541" x="215.8375" y="369.870924" style="fill: #ffffff; stroke: #ffffff; stroke-width: 0.9"/>
    </g>
   </g>
   <g id="line2d_13">
    <path d="M 313.4875 205.721924 
L 313.4875 197.466512 
" clip-path="url(#pfb0132d709)" style="fill: none; stroke: #3d3d3d; stroke-width: 1.5; stroke-linecap: round"/>
   </g>
   <g id="line2d_14">
    <path d="M 313.4875 202.620593 
L 313.4875 200.17825 
" clip-path="url(#pfb0132d709)" style="fill: none; stroke: #3d3d3d; stroke-width: 4.5; stroke-linecap: round"/>
   </g>
   <g id="line2d_15">
    <path d="M 313.4875 201.399427 
" clip-path="url(#pfb0132d709)" style="fill: none; stroke: #3d3d3d; stroke-width: 1.5; stroke-linecap: round"/>
    <g clip-path="url(#pfb0132d709)">
     <use xlink:href="#m3e10cda541" x="313.4875" y="201.399427" style="fill: #ffffff; stroke: #ffffff; stroke-width: 0.9"/>
    </g>
   </g>
   <g id="line2d_16">
    <path d="M 411.1375 212.16695 
L 411.1375 90.799416 
" clip-path="url(#pfb0132d709)" style="fill: none; stroke: #3d3d3d; stroke-width: 1.5; stroke-linecap: round"/>
   </g>
   <g id="line2d_17">
    <path d="M 411.1375 149.88442 
L 411.1375 107.054436 
" clip-path="url(#pfb0132d709)" style="fill: none; stroke: #3d3d3d; stroke-width: 4.5; stroke-linecap: round"/>
   </g>
   <g id="line2d_18">
    <path d="M 411.1375 126.110472 
" clip-path="url(#pfb0132d709)" style="fill: none; stroke: #3d3d3d; stroke-width: 1.5; stroke-linecap: round"/>
    <g clip-path="url(#pfb0132d709)">
     <use xlink:href="#m3e10cda541" x="411.1375" y="126.110472" style="fill: #ffffff; stroke: #ffffff; stroke-width: 0.9"/>
    </g>
   </g>
   <g id="line2d_19">
    <path d="M 508.7875 418.931381 
L 508.7875 348.785931 
" clip-path="url(#pfb0132d709)" style="fill: none; stroke: #3d3d3d; stroke-width: 1.5; stroke-linecap: round"/>
   </g>
   <g id="line2d_20">
    <path d="M 508.7875 396.820523 
L 508.7875 376.317529 
" clip-path="url(#pfb0132d709)" style="fill: none; stroke: #3d3d3d; stroke-width: 4.5; stroke-linecap: round"/>
   </g>
   <g id="line2d_21">
    <path d="M 508.7875 383.076282 
" clip-path="url(#pfb0132d709)" style="fill: none; stroke: #3d3d3d; stroke-width: 1.5; stroke-linecap: round"/>
    <g clip-path="url(#pfb0132d709)">
     <use xlink:href="#m3e10cda541" x="508.7875" y="383.076282" style="fill: #ffffff; stroke: #ffffff; stroke-width: 0.9"/>
    </g>
   </g>
   <g id="line2d_22">
    <path d="M 606.4375 457.175672 
L 606.4375 111.624328 
" clip-path="url(#pfb0132d709)" style="fill: none; stroke: #3d3d3d; stroke-width: 1.5; stroke-linecap: round"/>
   </g>
   <g id="line2d_23">
    <path d="M 606.4375 385.837608 
L 606.4375 252.998454 
" clip-path="url(#pfb0132d709)" style="fill: none; stroke: #3d3d3d; stroke-width: 4.5; stroke-linecap: round"/>
   </g>
   <g id="line2d_24">
    <path d="M 606.4375 340.57923 
" clip-path="url(#pfb0132d709)" style="fill: none; stroke: #3d3d3d; stroke-width: 1.5; stroke-linecap: round"/>
    <g clip-path="url(#pfb0132d709)">
     <use xlink:href="#m3e10cda541" x="606.4375" y="340.57923" style="fill: #ffffff; stroke: #ffffff; stroke-width: 0.9"/>
    </g>
   </g>
   <g id="line2d_25">
    <path d="M 704.0875 274.254997 
L 704.0875 222.588541 
" clip-path="url(#pfb0132d709)" style="fill: none; stroke: #3d3d3d; stroke-width: 1.5; stroke-linecap: round"/>
   </g>
   <g id="line2d_26">
    <path d="M 704.0875 254.204618 
L 704.0875 237.551875 
" clip-path="url(#pfb0132d709)" style="fill: none; stroke: #3d3d3d; stroke-width: 4.5; stroke-linecap: round"/>
   </g>
   <g id="line2d_27">
    <path d="M 704.0875 246.425144 
" clip-path="url(#pfb0132d709)" style="fill: none; stroke: #3d3d3d; stroke-width: 1.5; stroke-linecap: round"/>
    <g clip-path="url(#pfb0132d709)">
     <use xlink:href="#m3e10cda541" x="704.0875" y="246.425144" style="fill: #ffffff; stroke: #ffffff; stroke-width: 0.9"/>
    </g>
   </g>
   <g id="line2d_28">
    <path d="M 801.7375 254.061163 
L 801.7375 85.547488 
" clip-path="url(#pfb0132d709)" style="fill: none; stroke: #3d3d3d; stroke-width: 1.5; stroke-linecap: round"/>
   </g>
   <g id="line2d_29">
    <path d="M 801.7375 164.756032 
L 801.7375 103.936421 
" clip-path="url(#pfb0132d709)" style="fill: none; stroke: #3d3d3d; stroke-width: 4.5; stroke-linecap: round"/>
   </g>
   <g id="line2d_30">
    <path d="M 801.7375 125.331927 
" clip-path="url(#pfb0132d709)" style="fill: none; stroke: #3d3d3d; stroke-width: 1.5; stroke-linecap: round"/>
    <g clip-path="url(#pfb0132d709)">
     <use xlink:href="#m3e10cda541" x="801.7375" y="125.331927" style="fill: #ffffff; stroke: #ffffff; stroke-width: 0.9"/>
    </g>
   </g>
   <g id="patch_3">
    <path d="M 69.3625 561.6 
L 850.5625 561.6 
" style="fill: none; stroke: #cccccc; stroke-width: 0.8; stroke-linejoin: miter; stroke-linecap: square"/>
   </g>
  </g>
 </g>
 <defs>
  <clipPath id="pfb0132d709">
   <rect x="69.3625" y="7.2" width="781.2" height="554.4"/>
  </clipPath>
 </defs>
</svg>
