<?xml version="1.0" encoding="utf-8" standalone="no"?>
<!DOCTYPE svg PUBLIC "-//W3C//DTD SVG 1.1//EN"
  "http://www.w3.org/Graphics/SVG/1.1/DTD/svg11.dtd">
<svg xmlns:xlink="http://www.w3.org/1999/xlink" width="870.209375pt" height="696.702001pt" viewBox="0 0 870.209375 696.702001" xmlns="http://www.w3.org/2000/svg" version="1.1">
 <metadata>
  <rdf:RDF xmlns:dc="http://purl.org/dc/elements/1.1/" xmlns:cc="http://creativecommons.org/ns#" xmlns:rdf="http://www.w3.org/1999/02/22-rdf-syntax-ns#">
   <cc:Work>
    <dc:type rdf:resource="http://purl.org/dc/dcmitype/StillImage"/>
    <dc:date>2024-10-23T17:25:25.591072</dc:date>
    <dc:format>image/svg+xml</dc:format>
    <dc:creator>
     <cc:Agent>
      <dc:title>Matplotlib v3.8.0, https://matplotlib.org/</dc:title>
     </cc:Agent>
    </dc:creator>
   </cc:Work>
  </rdf:RDF>
 </metadata>
 <defs>
  <style type="text/css">*{stroke-linejoin: round; stroke-linecap: butt}</style>
 </defs>
 <g id="figure_1">
  <g id="patch_1">
   <path d="M 0 696.702001 
L 870.209375 696.702001 
L 870.209375 0 
L 0 0 
L 0 696.702001 
z
" style="fill: none"/>
  </g>
  <g id="axes_1">
   <g id="patch_2">
    <path d="M 81.809375 561.6 
L 863.009375 561.6 
L 863.009375 7.2 
L 81.809375 7.2 
L 81.809375 561.6 
z
" style="fill: none"/>
   </g>
   <g id="matplotlib.axis_1">
    <g id="xtick_1">
     <g id="text_1">
      <!-- MSA -->
      <g style="fill: #262626" transform="translate(110.260861 610.465141) rotate(-45) scale(0.2 -0.2)">
       <defs>
        <path id="DejaVuSans-4d" d="M 628 4666 
L 1569 4666 
L 2759 1491 
L 3956 4666 
L 4897 4666 
L 4897 0 
L 4281 0 
L 4281 4097 
L 3078 897 
L 2444 897 
L 1241 4097 
L 1241 0 
L 628 0 
L 628 4666 
z
" transform="scale(0.015625)"/>
        <path id="DejaVuSans-53" d="M 3425 4513 
L 3425 3897 
Q 3066 4069 2747 4153 
Q 2428 4238 2131 4238 
Q 1616 4238 1336 4038 
Q 1056 3838 1056 3469 
Q 1056 3159 1242 3001 
Q 1428 2844 1947 2747 
L 2328 2669 
Q 3034 2534 3370 2195 
Q 3706 1856 3706 1288 
Q 3706 609 3251 259 
Q 2797 -91 1919 -91 
Q 1588 -91 1214 -16 
Q 841 59 441 206 
L 441 856 
Q 825 641 1194 531 
Q 1563 422 1919 422 
Q 2459 422 2753 634 
Q 3047 847 3047 1241 
Q 3047 1584 2836 1778 
Q 2625 1972 2144 2069 
L 1759 2144 
Q 1053 2284 737 2584 
Q 422 2884 422 3419 
Q 422 4038 858 4394 
Q 1294 4750 2059 4750 
Q 2388 4750 2728 4690 
Q 3069 4631 3425 4513 
z
" transform="scale(0.015625)"/>
        <path id="DejaVuSans-41" d="M 2188 4044 
L 1331 1722 
L 3047 1722 
L 2188 4044 
z
M 1831 4666 
L 2547 4666 
L 4325 0 
L 3669 0 
L 3244 1197 
L 1141 1197 
L 716 0 
L 50 0 
L 1831 4666 
z
" transform="scale(0.015625)"/>
       </defs>
       <use xlink:href="#DejaVuSans-4d"/>
       <use xlink:href="#DejaVuSans-53" x="86.279297"/>
       <use xlink:href="#DejaVuSans-41" x="151.630859"/>
      </g>
     </g>
    </g>
    <g id="xtick_2">
     <g id="text_2">
      <!-- Single -->
      <g style="fill: #262626" transform="translate(195.55196 622.824042) rotate(-45) scale(0.2 -0.2)">
       <defs>
        <path id="DejaVuSans-69" d="M 603 3500 
L 1178 3500 
L 1178 0 
L 603 0 
L 603 3500 
z
M 603 4863 
L 1178 4863 
L 1178 4134 
L 603 4134 
L 603 4863 
z
" transform="scale(0.015625)"/>
        <path id="DejaVuSans-6e" d="M 3513 2113 
L 3513 0 
L 2938 0 
L 2938 2094 
Q 2938 2591 2744 2837 
Q 2550 3084 2163 3084 
Q 1697 3084 1428 2787 
Q 1159 2491 1159 1978 
L 1159 0 
L 581 0 
L 581 3500 
L 1159 3500 
L 1159 2956 
Q 1366 3272 1645 3428 
Q 1925 3584 2291 3584 
Q 2894 3584 3203 3211 
Q 3513 2838 3513 2113 
z
" transform="scale(0.015625)"/>
        <path id="DejaVuSans-67" d="M 2906 1791 
Q 2906 2416 2648 2759 
Q 2391 3103 1925 3103 
Q 1463 3103 1205 2759 
Q 947 2416 947 1791 
Q 947 1169 1205 825 
Q 1463 481 1925 481 
Q 2391 481 2648 825 
Q 2906 1169 2906 1791 
z
M 3481 434 
Q 3481 -459 3084 -895 
Q 2688 -1331 1869 -1331 
Q 1566 -1331 1297 -1286 
Q 1028 -1241 775 -1147 
L 775 -588 
Q 1028 -725 1275 -790 
Q 1522 -856 1778 -856 
Q 2344 -856 2625 -561 
Q 2906 -266 2906 331 
L 2906 616 
Q 2728 306 2450 153 
Q 2172 0 1784 0 
Q 1141 0 747 490 
Q 353 981 353 1791 
Q 353 2603 747 3093 
Q 1141 3584 1784 3584 
Q 2172 3584 2450 3431 
Q 2728 3278 2906 2969 
L 2906 3500 
L 3481 3500 
L 3481 434 
z
" transform="scale(0.015625)"/>
        <path id="DejaVuSans-6c" d="M 603 4863 
L 1178 4863 
L 1178 0 
L 603 0 
L 603 4863 
z
" transform="scale(0.015625)"/>
        <path id="DejaVuSans-65" d="M 3597 1894 
L 3597 1613 
L 953 1613 
Q 991 1019 1311 708 
Q 1631 397 2203 397 
Q 2534 397 2845 478 
Q 3156 559 3463 722 
L 3463 178 
Q 3153 47 2828 -22 
Q 2503 -91 2169 -91 
Q 1331 -91 842 396 
Q 353 884 353 1716 
Q 353 2575 817 3079 
Q 1281 3584 2069 3584 
Q 2775 3584 3186 3129 
Q 3597 2675 3597 1894 
z
M 3022 2063 
Q 3016 2534 2758 2815 
Q 2500 3097 2075 3097 
Q 1594 3097 1305 2825 
Q 1016 2553 972 2059 
L 3022 2063 
z
" transform="scale(0.015625)"/>
       </defs>
       <use xlink:href="#DejaVuSans-53"/>
       <use xlink:href="#DejaVuSans-69" x="63.476562"/>
       <use xlink:href="#DejaVuSans-6e" x="91.259766"/>
       <use xlink:href="#DejaVuSans-67" x="154.638672"/>
       <use xlink:href="#DejaVuSans-6c" x="218.115234"/>
       <use xlink:href="#DejaVuSans-65" x="245.898438"/>
      </g>
     </g>
    </g>
    <g id="xtick_3">
     <g id="text_3">
      <!-- Gaussian -->
      <g style="fill: #262626" transform="translate(271.800931 644.22507) rotate(-45) scale(0.2 -0.2)">
       <defs>
        <path id="DejaVuSans-47" d="M 3809 666 
L 3809 1919 
L 2778 1919 
L 2778 2438 
L 4434 2438 
L 4434 434 
Q 4069 175 3628 42 
Q 3188 -91 2688 -91 
Q 1594 -91 976 548 
Q 359 1188 359 2328 
Q 359 3472 976 4111 
Q 1594 4750 2688 4750 
Q 3144 4750 3555 4637 
Q 3966 4525 4313 4306 
L 4313 3634 
Q 3963 3931 3569 4081 
Q 3175 4231 2741 4231 
Q 1884 4231 1454 3753 
Q 1025 3275 1025 2328 
Q 1025 1384 1454 906 
Q 1884 428 2741 428 
Q 3075 428 3337 486 
Q 3600 544 3809 666 
z
" transform="scale(0.015625)"/>
        <path id="DejaVuSans-61" d="M 2194 1759 
Q 1497 1759 1228 1600 
Q 959 1441 959 1056 
Q 959 750 1161 570 
Q 1363 391 1709 391 
Q 2188 391 2477 730 
Q 2766 1069 2766 1631 
L 2766 1759 
L 2194 1759 
z
M 3341 1997 
L 3341 0 
L 2766 0 
L 2766 531 
Q 2569 213 2275 61 
Q 1981 -91 1556 -91 
Q 1019 -91 701 211 
Q 384 513 384 1019 
Q 384 1609 779 1909 
Q 1175 2209 1959 2209 
L 2766 2209 
L 2766 2266 
Q 2766 2663 2505 2880 
Q 2244 3097 1772 3097 
Q 1472 3097 1187 3025 
Q 903 2953 641 2809 
L 641 3341 
Q 956 3463 1253 3523 
Q 1550 3584 1831 3584 
Q 2591 3584 2966 3190 
Q 3341 2797 3341 1997 
z
" transform="scale(0.015625)"/>
        <path id="DejaVuSans-75" d="M 544 1381 
L 544 3500 
L 1119 3500 
L 1119 1403 
Q 1119 906 1312 657 
Q 1506 409 1894 409 
Q 2359 409 2629 706 
Q 2900 1003 2900 1516 
L 2900 3500 
L 3475 3500 
L 3475 0 
L 2900 0 
L 2900 538 
Q 2691 219 2414 64 
Q 2138 -91 1772 -91 
Q 1169 -91 856 284 
Q 544 659 544 1381 
z
M 1991 3584 
L 1991 3584 
z
" transform="scale(0.015625)"/>
        <path id="DejaVuSans-73" d="M 2834 3397 
L 2834 2853 
Q 2591 2978 2328 3040 
Q 2066 3103 1784 3103 
Q 1356 3103 1142 2972 
Q 928 2841 928 2578 
Q 928 2378 1081 2264 
Q 1234 2150 1697 2047 
L 1894 2003 
Q 2506 1872 2764 1633 
Q 3022 1394 3022 966 
Q 3022 478 2636 193 
Q 2250 -91 1575 -91 
Q 1294 -91 989 -36 
Q 684 19 347 128 
L 347 722 
Q 666 556 975 473 
Q 1284 391 1588 391 
Q 1994 391 2212 530 
Q 2431 669 2431 922 
Q 2431 1156 2273 1281 
Q 2116 1406 1581 1522 
L 1381 1569 
Q 847 1681 609 1914 
Q 372 2147 372 2553 
Q 372 3047 722 3315 
Q 1072 3584 1716 3584 
Q 2034 3584 2315 3537 
Q 2597 3491 2834 3397 
z
" transform="scale(0.015625)"/>
       </defs>
       <use xlink:href="#DejaVuSans-47"/>
       <use xlink:href="#DejaVuSans-61" x="77.490234"/>
       <use xlink:href="#DejaVuSans-75" x="138.769531"/>
       <use xlink:href="#DejaVuSans-73" x="202.148438"/>
       <use xlink:href="#DejaVuSans-73" x="254.248047"/>
       <use xlink:href="#DejaVuSans-69" x="306.347656"/>
       <use xlink:href="#DejaVuSans-61" x="334.130859"/>
       <use xlink:href="#DejaVuSans-6e" x="395.410156"/>
      </g>
     </g>
    </g>
    <g id="xtick_4">
     <g id="text_4">
      <!-- Gaussian (AF2) -->
      <g style="fill: #262626" transform="translate(327.115123 686.560879) rotate(-45) scale(0.2 -0.2)">
       <defs>
        <path id="DejaVuSans-20" transform="scale(0.015625)"/>
        <path id="DejaVuSans-28" d="M 1984 4856 
Q 1566 4138 1362 3434 
Q 1159 2731 1159 2009 
Q 1159 1288 1364 580 
Q 1569 -128 1984 -844 
L 1484 -844 
Q 1016 -109 783 600 
Q 550 1309 550 2009 
Q 550 2706 781 3412 
Q 1013 4119 1484 4856 
L 1984 4856 
z
" transform="scale(0.015625)"/>
        <path id="DejaVuSans-46" d="M 628 4666 
L 3309 4666 
L 3309 4134 
L 1259 4134 
L 1259 2759 
L 3109 2759 
L 3109 2228 
L 1259 2228 
L 1259 0 
L 628 0 
L 628 4666 
z
" transform="scale(0.015625)"/>
        <path id="DejaVuSans-32" d="M 1228 531 
L 3431 531 
L 3431 0 
L 469 0 
L 469 531 
Q 828 903 1448 1529 
Q 2069 2156 2228 2338 
Q 2531 2678 2651 2914 
Q 2772 3150 2772 3378 
Q 2772 3750 2511 3984 
Q 2250 4219 1831 4219 
Q 1534 4219 1204 4116 
Q 875 4013 500 3803 
L 500 4441 
Q 881 4594 1212 4672 
Q 1544 4750 1819 4750 
Q 2544 4750 2975 4387 
Q 3406 4025 3406 3419 
Q 3406 3131 3298 2873 
Q 3191 2616 2906 2266 
Q 2828 2175 2409 1742 
Q 1991 1309 1228 531 
z
" transform="scale(0.015625)"/>
        <path id="DejaVuSans-29" d="M 513 4856 
L 1013 4856 
Q 1481 4119 1714 3412 
Q 1947 2706 1947 2009 
Q 1947 1309 1714 600 
Q 1481 -109 1013 -844 
L 513 -844 
Q 928 -128 1133 580 
Q 1338 1288 1338 2009 
Q 1338 2731 1133 3434 
Q 928 4138 513 4856 
z
" transform="scale(0.015625)"/>
       </defs>
       <use xlink:href="#DejaVuSans-47"/>
       <use xlink:href="#DejaVuSans-61" x="77.490234"/>
       <use xlink:href="#DejaVuSans-75" x="138.769531"/>
       <use xlink:href="#DejaVuSans-73" x="202.148438"/>
       <use xlink:href="#DejaVuSans-73" x="254.248047"/>
       <use xlink:href="#DejaVuSans-69" x="306.347656"/>
       <use xlink:href="#DejaVuSans-61" x="334.130859"/>
       <use xlink:href="#DejaVuSans-6e" x="395.410156"/>
       <use xlink:href="#DejaVuSans-20" x="458.789062"/>
       <use xlink:href="#DejaVuSans-28" x="490.576172"/>
       <use xlink:href="#DejaVuSans-41" x="529.589844"/>
       <use xlink:href="#DejaVuSans-46" x="597.998047"/>
       <use xlink:href="#DejaVuSans-32" x="655.517578"/>
       <use xlink:href="#DejaVuSans-29" x="719.140625"/>
      </g>
     </g>
    </g>
    <g id="xtick_5">
     <g id="text_5">
      <!-- 1 PC -->
      <g style="fill: #262626" transform="translate(500.085253 611.240749) rotate(-45) scale(0.2 -0.2)">
       <defs>
        <path id="DejaVuSans-31" d="M 794 531 
L 1825 531 
L 1825 4091 
L 703 3866 
L 703 4441 
L 1819 4666 
L 2450 4666 
L 2450 531 
L 3481 531 
L 3481 0 
L 794 0 
L 794 531 
z
" transform="scale(0.015625)"/>
        <path id="DejaVuSans-50" d="M 1259 4147 
L 1259 2394 
L 2053 2394 
Q 2494 2394 2734 2622 
Q 2975 2850 2975 3272 
Q 2975 3691 2734 3919 
Q 2494 4147 2053 4147 
L 1259 4147 
z
M 628 4666 
L 2053 4666 
Q 2838 4666 3239 4311 
Q 3641 3956 3641 3272 
Q 3641 2581 3239 2228 
Q 2838 1875 2053 1875 
L 1259 1875 
L 1259 0 
L 628 0 
L 628 4666 
z
" transform="scale(0.015625)"/>
        <path id="DejaVuSans-43" d="M 4122 4306 
L 4122 3641 
Q 3803 3938 3442 4084 
Q 3081 4231 2675 4231 
Q 1875 4231 1450 3742 
Q 1025 3253 1025 2328 
Q 1025 1406 1450 917 
Q 1875 428 2675 428 
Q 3081 428 3442 575 
Q 3803 722 4122 1019 
L 4122 359 
Q 3791 134 3420 21 
Q 3050 -91 2638 -91 
Q 1578 -91 968 557 
Q 359 1206 359 2328 
Q 359 3453 968 4101 
Q 1578 4750 2638 4750 
Q 3056 4750 3426 4639 
Q 3797 4528 4122 4306 
z
" transform="scale(0.015625)"/>
       </defs>
       <use xlink:href="#DejaVuSans-31"/>
       <use xlink:href="#DejaVuSans-20" x="63.623047"/>
       <use xlink:href="#DejaVuSans-50" x="95.410156"/>
       <use xlink:href="#DejaVuSans-43" x="155.712891"/>
      </g>
     </g>
    </g>
    <g id="xtick_6">
     <g id="text_6">
      <!-- 1 PC (AF2) -->
      <g style="fill: #262626" transform="translate(555.399444 653.576557) rotate(-45) scale(0.2 -0.2)">
       <use xlink:href="#DejaVuSans-31"/>
       <use xlink:href="#DejaVuSans-20" x="63.623047"/>
       <use xlink:href="#DejaVuSans-50" x="95.410156"/>
       <use xlink:href="#DejaVuSans-43" x="155.712891"/>
       <use xlink:href="#DejaVuSans-20" x="225.537109"/>
       <use xlink:href="#DejaVuSans-28" x="257.324219"/>
       <use xlink:href="#DejaVuSans-41" x="296.337891"/>
       <use xlink:href="#DejaVuSans-46" x="364.746094"/>
       <use xlink:href="#DejaVuSans-32" x="422.265625"/>
       <use xlink:href="#DejaVuSans-29" x="485.888672"/>
      </g>
     </g>
    </g>
    <g id="xtick_7">
     <g id="text_7">
      <!-- 2 PC -->
      <g style="fill: #262626" transform="translate(695.385253 611.240749) rotate(-45) scale(0.2 -0.2)">
       <use xlink:href="#DejaVuSans-32"/>
       <use xlink:href="#DejaVuSans-20" x="63.623047"/>
       <use xlink:href="#DejaVuSans-50" x="95.410156"/>
       <use xlink:href="#DejaVuSans-43" x="155.712891"/>
      </g>
     </g>
    </g>
    <g id="xtick_8">
     <g id="text_8">
      <!-- 2 PC (AF2) -->
      <g style="fill: #262626" transform="translate(750.699444 653.576557) rotate(-45) scale(0.2 -0.2)">
       <use xlink:href="#DejaVuSans-32"/>
       <use xlink:href="#DejaVuSans-20" x="63.623047"/>
       <use xlink:href="#DejaVuSans-50" x="95.410156"/>
       <use xlink:href="#DejaVuSans-43" x="155.712891"/>
       <use xlink:href="#DejaVuSans-20" x="225.537109"/>
       <use xlink:href="#DejaVuSans-28" x="257.324219"/>
       <use xlink:href="#DejaVuSans-41" x="296.337891"/>
       <use xlink:href="#DejaVuSans-46" x="364.746094"/>
       <use xlink:href="#DejaVuSans-32" x="422.265625"/>
       <use xlink:href="#DejaVuSans-29" x="485.888672"/>
      </g>
     </g>
    </g>
   </g>
   <g id="matplotlib.axis_2">
    <g id="ytick_1">
     <g id="line2d_1">
      <path d="M 81.809375 539.423956 
L 863.009375 539.423956 
" clip-path="url(#p4d067ab052)" style="fill: none; stroke: #cccccc; stroke-width: 0.8; stroke-linecap: round"/>
     </g>
     <g id="text_9">
      <!-- −10 -->
      <g style="fill: #262626" transform="translate(32.6 547.022393) scale(0.2 -0.2)">
       <defs>
        <path id="DejaVuSans-2212" d="M 678 2272 
L 4684 2272 
L 4684 1741 
L 678 1741 
L 678 2272 
z
" transform="scale(0.015625)"/>
        <path id="DejaVuSans-30" d="M 2034 4250 
Q 1547 4250 1301 3770 
Q 1056 3291 1056 2328 
Q 1056 1369 1301 889 
Q 1547 409 2034 409 
Q 2525 409 2770 889 
Q 3016 1369 3016 2328 
Q 3016 3291 2770 3770 
Q 2525 4250 2034 4250 
z
M 2034 4750 
Q 2819 4750 3233 4129 
Q 3647 3509 3647 2328 
Q 3647 1150 3233 529 
Q 2819 -91 2034 -91 
Q 1250 -91 836 529 
Q 422 1150 422 2328 
Q 422 3509 836 4129 
Q 1250 4750 2034 4750 
z
" transform="scale(0.015625)"/>
       </defs>
       <use xlink:href="#DejaVuSans-2212"/>
       <use xlink:href="#DejaVuSans-31" x="83.789062"/>
       <use xlink:href="#DejaVuSans-30" x="147.412109"/>
      </g>
     </g>
    </g>
    <g id="ytick_2">
     <g id="line2d_2">
      <path d="M 81.809375 469.989402 
L 863.009375 469.989402 
" clip-path="url(#p4d067ab052)" style="fill: none; stroke: #cccccc; stroke-width: 0.8; stroke-linecap: round"/>
     </g>
     <g id="text_10">
      <!-- 0 -->
      <g style="fill: #262626" transform="translate(62.084375 477.58784) scale(0.2 -0.2)">
       <use xlink:href="#DejaVuSans-30"/>
      </g>
     </g>
    </g>
    <g id="ytick_3">
     <g id="line2d_3">
      <path d="M 81.809375 400.554849 
L 863.009375 400.554849 
" clip-path="url(#p4d067ab052)" style="fill: none; stroke: #cccccc; stroke-width: 0.8; stroke-linecap: round"/>
     </g>
     <g id="text_11">
      <!-- 10 -->
      <g style="fill: #262626" transform="translate(49.359375 408.153287) scale(0.2 -0.2)">
       <use xlink:href="#DejaVuSans-31"/>
       <use xlink:href="#DejaVuSans-30" x="63.623047"/>
      </g>
     </g>
    </g>
    <g id="ytick_4">
     <g id="line2d_4">
      <path d="M 81.809375 331.120296 
L 863.009375 331.120296 
" clip-path="url(#p4d067ab052)" style="fill: none; stroke: #cccccc; stroke-width: 0.8; stroke-linecap: round"/>
     </g>
     <g id="text_12">
      <!-- 20 -->
      <g style="fill: #262626" transform="translate(49.359375 338.718734) scale(0.2 -0.2)">
       <use xlink:href="#DejaVuSans-32"/>
       <use xlink:href="#DejaVuSans-30" x="63.623047"/>
      </g>
     </g>
    </g>
    <g id="ytick_5">
     <g id="line2d_5">
      <path d="M 81.809375 261.685743 
L 863.009375 261.685743 
" clip-path="url(#p4d067ab052)" style="fill: none; stroke: #cccccc; stroke-width: 0.8; stroke-linecap: round"/>
     </g>
     <g id="text_13">
      <!-- 30 -->
      <g style="fill: #262626" transform="translate(49.359375 269.28418) scale(0.2 -0.2)">
       <defs>
        <path id="DejaVuSans-33" d="M 2597 2516 
Q 3050 2419 3304 2112 
Q 3559 1806 3559 1356 
Q 3559 666 3084 287 
Q 2609 -91 1734 -91 
Q 1441 -91 1130 -33 
Q 819 25 488 141 
L 488 750 
Q 750 597 1062 519 
Q 1375 441 1716 441 
Q 2309 441 2620 675 
Q 2931 909 2931 1356 
Q 2931 1769 2642 2001 
Q 2353 2234 1838 2234 
L 1294 2234 
L 1294 2753 
L 1863 2753 
Q 2328 2753 2575 2939 
Q 2822 3125 2822 3475 
Q 2822 3834 2567 4026 
Q 2313 4219 1838 4219 
Q 1578 4219 1281 4162 
Q 984 4106 628 3988 
L 628 4550 
Q 988 4650 1302 4700 
Q 1616 4750 1894 4750 
Q 2613 4750 3031 4423 
Q 3450 4097 3450 3541 
Q 3450 3153 3228 2886 
Q 3006 2619 2597 2516 
z
" transform="scale(0.015625)"/>
       </defs>
       <use xlink:href="#DejaVuSans-33"/>
       <use xlink:href="#DejaVuSans-30" x="63.623047"/>
      </g>
     </g>
    </g>
    <g id="ytick_6">
     <g id="line2d_6">
      <path d="M 81.809375 192.25119 
L 863.009375 192.25119 
" clip-path="url(#p4d067ab052)" style="fill: none; stroke: #cccccc; stroke-width: 0.8; stroke-linecap: round"/>
     </g>
     <g id="text_14">
      <!-- 40 -->
      <g style="fill: #262626" transform="translate(49.359375 199.849627) scale(0.2 -0.2)">
       <defs>
        <path id="DejaVuSans-34" d="M 2419 4116 
L 825 1625 
L 2419 1625 
L 2419 4116 
z
M 2253 4666 
L 3047 4666 
L 3047 1625 
L 3713 1625 
L 3713 1100 
L 3047 1100 
L 3047 0 
L 2419 0 
L 2419 1100 
L 313 1100 
L 313 1709 
L 2253 4666 
z
" transform="scale(0.015625)"/>
       </defs>
       <use xlink:href="#DejaVuSans-34"/>
       <use xlink:href="#DejaVuSans-30" x="63.623047"/>
      </g>
     </g>
    </g>
    <g id="ytick_7">
     <g id="line2d_7">
      <path d="M 81.809375 122.816637 
L 863.009375 122.816637 
" clip-path="url(#p4d067ab052)" style="fill: none; stroke: #cccccc; stroke-width: 0.8; stroke-linecap: round"/>
     </g>
     <g id="text_15">
      <!-- 50 -->
      <g style="fill: #262626" transform="translate(49.359375 130.415074) scale(0.2 -0.2)">
       <defs>
        <path id="DejaVuSans-35" d="M 691 4666 
L 3169 4666 
L 3169 4134 
L 1269 4134 
L 1269 2991 
Q 1406 3038 1543 3061 
Q 1681 3084 1819 3084 
Q 2600 3084 3056 2656 
Q 3513 2228 3513 1497 
Q 3513 744 3044 326 
Q 2575 -91 1722 -91 
Q 1428 -91 1123 -41 
Q 819 9 494 109 
L 494 744 
Q 775 591 1075 516 
Q 1375 441 1709 441 
Q 2250 441 2565 725 
Q 2881 1009 2881 1497 
Q 2881 1984 2565 2268 
Q 2250 2553 1709 2553 
Q 1456 2553 1204 2497 
Q 953 2441 691 2322 
L 691 4666 
z
" transform="scale(0.015625)"/>
       </defs>
       <use xlink:href="#DejaVuSans-35"/>
       <use xlink:href="#DejaVuSans-30" x="63.623047"/>
      </g>
     </g>
    </g>
    <g id="ytick_8">
     <g id="line2d_8">
      <path d="M 81.809375 53.382083 
L 863.009375 53.382083 
" clip-path="url(#p4d067ab052)" style="fill: none; stroke: #cccccc; stroke-width: 0.8; stroke-linecap: round"/>
     </g>
     <g id="text_16">
      <!-- 60 -->
      <g style="fill: #262626" transform="translate(49.359375 60.980521) scale(0.2 -0.2)">
       <defs>
        <path id="DejaVuSans-36" d="M 2113 2584 
Q 1688 2584 1439 2293 
Q 1191 2003 1191 1497 
Q 1191 994 1439 701 
Q 1688 409 2113 409 
Q 2538 409 2786 701 
Q 3034 994 3034 1497 
Q 3034 2003 2786 2293 
Q 2538 2584 2113 2584 
z
M 3366 4563 
L 3366 3988 
Q 3128 4100 2886 4159 
Q 2644 4219 2406 4219 
Q 1781 4219 1451 3797 
Q 1122 3375 1075 2522 
Q 1259 2794 1537 2939 
Q 1816 3084 2150 3084 
Q 2853 3084 3261 2657 
Q 3669 2231 3669 1497 
Q 3669 778 3244 343 
Q 2819 -91 2113 -91 
Q 1303 -91 875 529 
Q 447 1150 447 2328 
Q 447 3434 972 4092 
Q 1497 4750 2381 4750 
Q 2619 4750 2861 4703 
Q 3103 4656 3366 4563 
z
" transform="scale(0.015625)"/>
       </defs>
       <use xlink:href="#DejaVuSans-36"/>
       <use xlink:href="#DejaVuSans-30" x="63.623047"/>
      </g>
     </g>
    </g>
    <g id="text_17">
     <!-- $\alpha$-RMSD ($\AA$) $\downarrow$ -->
     <g style="fill: #262626" transform="translate(24.440625 357.6) rotate(-90) scale(0.2 -0.2)">
      <defs>
       <path id="DejaVuSans-Oblique-3b1" d="M 2619 1628 
L 2622 2350 
Q 2625 3088 2069 3091 
Q 1653 3094 1394 2747 
Q 1069 2319 959 1747 
Q 825 1059 994 731 
Q 1169 397 1547 397 
Q 1966 397 2319 1063 
L 2619 1628 
z
M 2166 3578 
Q 3141 3594 3128 2584 
Q 3128 2584 3616 3500 
L 4128 3500 
L 3119 1603 
L 3109 919 
Q 3109 766 3194 638 
Q 3291 488 3391 488 
L 3669 488 
L 3575 0 
L 3228 0 
Q 2934 0 2722 263 
Q 2622 394 2619 669 
Q 2416 334 2066 50 
Q 1900 -81 1453 -78 
Q 722 -72 456 397 
Q 184 884 353 1747 
Q 534 2675 1009 3097 
Q 1544 3569 2166 3578 
z
" transform="scale(0.015625)"/>
       <path id="DejaVuSans-2d" d="M 313 2009 
L 1997 2009 
L 1997 1497 
L 313 1497 
L 313 2009 
z
" transform="scale(0.015625)"/>
       <path id="DejaVuSans-52" d="M 2841 2188 
Q 3044 2119 3236 1894 
Q 3428 1669 3622 1275 
L 4263 0 
L 3584 0 
L 2988 1197 
Q 2756 1666 2539 1819 
Q 2322 1972 1947 1972 
L 1259 1972 
L 1259 0 
L 628 0 
L 628 4666 
L 2053 4666 
Q 2853 4666 3247 4331 
Q 3641 3997 3641 3322 
Q 3641 2881 3436 2590 
Q 3231 2300 2841 2188 
z
M 1259 4147 
L 1259 2491 
L 2053 2491 
Q 2509 2491 2742 2702 
Q 2975 2913 2975 3322 
Q 2975 3731 2742 3939 
Q 2509 4147 2053 4147 
L 1259 4147 
z
" transform="scale(0.015625)"/>
       <path id="DejaVuSans-44" d="M 1259 4147 
L 1259 519 
L 2022 519 
Q 2988 519 3436 956 
Q 3884 1394 3884 2338 
Q 3884 3275 3436 3711 
Q 2988 4147 2022 4147 
L 1259 4147 
z
M 628 4666 
L 1925 4666 
Q 3281 4666 3915 4102 
Q 4550 3538 4550 2338 
Q 4550 1131 3912 565 
Q 3275 0 1925 0 
L 628 0 
L 628 4666 
z
" transform="scale(0.015625)"/>
       <path id="DejaVuSans-Oblique-c5" d="M 3188 5081 
Q 3188 5278 3048 5417 
Q 2909 5556 2713 5556 
Q 2513 5556 2377 5420 
Q 2241 5284 2241 5081 
Q 2241 4884 2377 4746 
Q 2513 4609 2713 4609 
Q 2909 4609 3048 4746 
Q 3188 4884 3188 5081 
z
M 2203 4397 
Q 2034 4513 1945 4689 
Q 1856 4866 1856 5081 
Q 1856 5438 2106 5689 
Q 2356 5941 2713 5941 
Q 3069 5941 3320 5689 
Q 3572 5438 3572 5081 
Q 3572 4834 3458 4643 
Q 3344 4453 3128 4341 
L 3938 0 
L 3278 0 
L 3084 1197 
L 984 1197 
L 325 0 
L -341 0 
L 2203 4397 
z
M 2584 4044 
L 1275 1722 
L 2988 1722 
L 2584 4044 
z
" transform="scale(0.015625)"/>
       <path id="DejaVuSans-2193" d="M 2822 -22 
L 2541 -22 
L 1309 1209 
L 1684 1584 
L 2416 853 
L 2416 4666 
L 2947 4666 
L 2947 853 
L 3672 1584 
L 4047 1209 
L 2822 -22 
z
" transform="scale(0.015625)"/>
      </defs>
      <use xlink:href="#DejaVuSans-Oblique-3b1" transform="translate(0 0.171875)"/>
      <use xlink:href="#DejaVuSans-2d" transform="translate(65.917969 0.171875)"/>
      <use xlink:href="#DejaVuSans-52" transform="translate(102.001953 0.171875)"/>
      <use xlink:href="#DejaVuSans-4d" transform="translate(171.484375 0.171875)"/>
      <use xlink:href="#DejaVuSans-53" transform="translate(257.763672 0.171875)"/>
      <use xlink:href="#DejaVuSans-44" transform="translate(321.240234 0.171875)"/>
      <use xlink:href="#DejaVuSans-20" transform="translate(398.242188 0.171875)"/>
      <use xlink:href="#DejaVuSans-28" transform="translate(430.029297 0.171875)"/>
      <use xlink:href="#DejaVuSans-Oblique-c5" transform="translate(469.042969 0.171875)"/>
      <use xlink:href="#DejaVuSans-29" transform="translate(537.451172 0.171875)"/>
      <use xlink:href="#DejaVuSans-20" transform="translate(576.464844 0.171875)"/>
      <use xlink:href="#DejaVuSans-2193" transform="translate(627.734375 0.171875)"/>
     </g>
    </g>
   </g>
   <g id="PolyCollection_1">
    <defs>
     <path id="m59e34a434a" d="M 132.168719 -198.899288 
L 129.100031 -198.899288 
L 128.463713 -201.27657 
L 127.626019 -203.653851 
L 126.549397 -206.031132 
L 125.198956 -208.408413 
L 123.546399 -210.785694 
L 121.574447 -213.162975 
L 119.281351 -215.540257 
L 116.684893 -217.917538 
L 113.825295 -220.294819 
L 110.766408 -222.6721 
L 107.594737 -225.049381 
L 104.416032 -227.426663 
L 101.349526 -229.803944 
L 98.520188 -232.181225 
L 96.049689 -234.558506 
L 94.04701 -236.935787 
L 92.599707 -239.313069 
L 91.766841 -241.69035 
L 91.574375 -244.067631 
L 92.013554 -246.444912 
L 93.042395 -248.822193 
L 94.59006 -251.199475 
L 96.563509 -253.576756 
L 98.855622 -255.954037 
L 101.353841 -258.331318 
L 103.948413 -260.708599 
L 106.539462 -263.08588 
L 109.042312 -265.463162 
L 111.390809 -267.840443 
L 113.538596 -270.217724 
L 115.45858 -272.595005 
L 117.140952 -274.972286 
L 118.590221 -277.349568 
L 119.821738 -279.726849 
L 120.858127 -282.10413 
L 121.725949 -284.481411 
L 122.452847 -286.858692 
L 123.06529 -289.235974 
L 123.586968 -291.613255 
L 124.037813 -293.990536 
L 124.43359 -296.367817 
L 124.78595 -298.745098 
L 125.102843 -301.122379 
L 125.389173 -303.499661 
L 125.647586 -305.876942 
L 125.879285 -308.254223 
L 126.084783 -310.631504 
L 126.264532 -313.008785 
L 126.419381 -315.386067 
L 126.55083 -317.763348 
L 126.661112 -320.140629 
L 126.753103 -322.51791 
L 126.830127 -324.895191 
L 126.895699 -327.272473 
L 126.953278 -329.649754 
L 127.006069 -332.027035 
L 127.056922 -334.404316 
L 127.108333 -336.781597 
L 127.162535 -339.158879 
L 127.22164 -341.53616 
L 127.287786 -343.913441 
L 127.363222 -346.290722 
L 127.450289 -348.668003 
L 127.551273 -351.045284 
L 127.668136 -353.422566 
L 127.802152 -355.799847 
L 127.953542 -358.177128 
L 128.121145 -360.554409 
L 128.302243 -362.93169 
L 128.492561 -365.308972 
L 128.686492 -367.686253 
L 128.877521 -370.063534 
L 129.058803 -372.440815 
L 129.22383 -374.818096 
L 129.367085 -377.195378 
L 129.484613 -379.572659 
L 129.574426 -381.94994 
L 129.6367 -384.327221 
L 129.673739 -386.704502 
L 129.689716 -389.081784 
L 129.690228 -391.459065 
L 129.681711 -393.836346 
L 129.670802 -396.213627 
L 129.663693 -398.590908 
L 129.665579 -400.968189 
L 129.680236 -403.345471 
L 129.709777 -405.722752 
L 129.754606 -408.100033 
L 129.813554 -410.477314 
L 129.884175 -412.854595 
L 129.963138 -415.231877 
L 130.046672 -417.609158 
L 130.130991 -419.986439 
L 130.212662 -422.36372 
L 130.288868 -424.741001 
L 130.357565 -427.118283 
L 130.41752 -429.495564 
L 130.468263 -431.872845 
L 130.509962 -434.250126 
L 130.758788 -434.250126 
L 130.758788 -434.250126 
L 130.800487 -431.872845 
L 130.85123 -429.495564 
L 130.911185 -427.118283 
L 130.979882 -424.741001 
L 131.056088 -422.36372 
L 131.137759 -419.986439 
L 131.222078 -417.609158 
L 131.305612 -415.231877 
L 131.384575 -412.854595 
L 131.455196 -410.477314 
L 131.514144 -408.100033 
L 131.558973 -405.722752 
L 131.588514 -403.345471 
L 131.603171 -400.968189 
L 131.605057 -398.590908 
L 131.597948 -396.213627 
L 131.587039 -393.836346 
L 131.578522 -391.459065 
L 131.579034 -389.081784 
L 131.595011 -386.704502 
L 131.63205 -384.327221 
L 131.694324 -381.94994 
L 131.784137 -379.572659 
L 131.901665 -377.195378 
L 132.04492 -374.818096 
L 132.209947 -372.440815 
L 132.391229 -370.063534 
L 132.582258 -367.686253 
L 132.776189 -365.308972 
L 132.966507 -362.93169 
L 133.147605 -360.554409 
L 133.315208 -358.177128 
L 133.466598 -355.799847 
L 133.600614 -353.422566 
L 133.717477 -351.045284 
L 133.818461 -348.668003 
L 133.905528 -346.290722 
L 133.980964 -343.913441 
L 134.04711 -341.53616 
L 134.106215 -339.158879 
L 134.160417 -336.781597 
L 134.211828 -334.404316 
L 134.262681 -332.027035 
L 134.315472 -329.649754 
L 134.373051 -327.272473 
L 134.438623 -324.895191 
L 134.515647 -322.51791 
L 134.607638 -320.140629 
L 134.71792 -317.763348 
L 134.849369 -315.386067 
L 135.004218 -313.008785 
L 135.183967 -310.631504 
L 135.389465 -308.254223 
L 135.621164 -305.876942 
L 135.879577 -303.499661 
L 136.165907 -301.122379 
L 136.4828 -298.745098 
L 136.83516 -296.367817 
L 137.230937 -293.990536 
L 137.681782 -291.613255 
L 138.20346 -289.235974 
L 138.815903 -286.858692 
L 139.542801 -284.481411 
L 140.410623 -282.10413 
L 141.447012 -279.726849 
L 142.678529 -277.349568 
L 144.127798 -274.972286 
L 145.81017 -272.595005 
L 147.730154 -270.217724 
L 149.877941 -267.840443 
L 152.226438 -265.463162 
L 154.729288 -263.08588 
L 157.320337 -260.708599 
L 159.914909 -258.331318 
L 162.413128 -255.954037 
L 164.705241 -253.576756 
L 166.67869 -251.199475 
L 168.226355 -248.822193 
L 169.255196 -246.444912 
L 169.694375 -244.067631 
L 169.501909 -241.69035 
L 168.669043 -239.313069 
L 167.22174 -236.935787 
L 165.219061 -234.558506 
L 162.748562 -232.181225 
L 159.919224 -229.803944 
L 156.852718 -227.426663 
L 153.674013 -225.049381 
L 150.502342 -222.6721 
L 147.443455 -220.294819 
L 144.583857 -217.917538 
L 141.987399 -215.540257 
L 139.694303 -213.162975 
L 137.722351 -210.785694 
L 136.069794 -208.408413 
L 134.719353 -206.031132 
L 133.642731 -203.653851 
L 132.805037 -201.27657 
L 132.168719 -198.899288 
z
" style="stroke: #3d3d3d; stroke-opacity: 0.5"/>
    </defs>
    <g clip-path="url(#p4d067ab052)">
     <use xlink:href="#m59e34a434a" x="0" y="696.702001" style="fill: #d684bd; fill-opacity: 0.5; stroke: #3d3d3d; stroke-opacity: 0.5"/>
    </g>
   </g>
   <g id="PolyCollection_2">
    <defs>
     <path id="m9c6fcde42e" d="M 229.013404 -188.573404 
L 227.555346 -188.573404 
L 227.31509 -192.428111 
L 227.016198 -196.282819 
L 226.651345 -200.137526 
L 226.214375 -203.992233 
L 225.700929 -207.84694 
L 225.109032 -211.701648 
L 224.439564 -215.556355 
L 223.696528 -219.411062 
L 222.887041 -223.265769 
L 222.020992 -227.120477 
L 221.110367 -230.975184 
L 220.168251 -234.829891 
L 219.207584 -238.684598 
L 218.239807 -242.539306 
L 217.273517 -246.394013 
L 216.313329 -250.24872 
L 215.359076 -254.103427 
L 214.405495 -257.958135 
L 213.442473 -261.812842 
L 212.455867 -265.667549 
L 211.428873 -269.522256 
L 210.343805 -273.376964 
L 209.18415 -277.231671 
L 207.936686 -281.086378 
L 206.593467 -284.941085 
L 205.153473 -288.795792 
L 203.623756 -292.6505 
L 202.019961 -296.505207 
L 200.366146 -300.359914 
L 198.693917 -304.214621 
L 197.040913 -308.069329 
L 195.448766 -311.924036 
L 193.960701 -315.778743 
L 192.61897 -319.63345 
L 191.462326 -323.488158 
L 190.523743 -327.342865 
L 189.828557 -331.197572 
L 189.393171 -335.052279 
L 189.224375 -338.906987 
L 189.31932 -342.761694 
L 189.666076 -346.616401 
L 190.244682 -350.471108 
L 191.028557 -354.325816 
L 191.986108 -358.180523 
L 193.082424 -362.03523 
L 194.280904 -365.889937 
L 195.544776 -369.744645 
L 196.838431 -373.599352 
L 198.128593 -377.454059 
L 199.385324 -381.308766 
L 200.582893 -385.163474 
L 201.700516 -389.018181 
L 202.722981 -392.872888 
L 203.641103 -396.727595 
L 204.451981 -400.582302 
L 205.158968 -404.43701 
L 205.771306 -408.291717 
L 206.303382 -412.146424 
L 206.773594 -416.001131 
L 207.20288 -419.855839 
L 207.613021 -423.710546 
L 208.024852 -427.565253 
L 208.456569 -431.41996 
L 208.922324 -435.274668 
L 209.431248 -439.129375 
L 209.98704 -442.984082 
L 210.588145 -446.838789 
L 211.228496 -450.693497 
L 211.898714 -454.548204 
L 212.587588 -458.402911 
L 213.283645 -462.257618 
L 213.976608 -466.112326 
L 214.658543 -469.967033 
L 215.324597 -473.82174 
L 215.973234 -477.676447 
L 216.605994 -481.531155 
L 217.226849 -485.385862 
L 217.841264 -489.240569 
L 218.455121 -493.095276 
L 219.073668 -496.949984 
L 219.700612 -500.804691 
L 220.337477 -504.659398 
L 220.983275 -508.514105 
L 221.63451 -512.368812 
L 222.285477 -516.22352 
L 222.928804 -520.078227 
L 223.556132 -523.932934 
L 224.15886 -527.787641 
L 224.728858 -531.642349 
L 225.259076 -535.497056 
L 225.743996 -539.351763 
L 226.179911 -543.20647 
L 226.565021 -547.061178 
L 226.899356 -550.915885 
L 227.184579 -554.770592 
L 227.423687 -558.625299 
L 227.620667 -562.480007 
L 227.780139 -566.334714 
L 227.907018 -570.189421 
L 228.661732 -570.189421 
L 228.661732 -570.189421 
L 228.788611 -566.334714 
L 228.948083 -562.480007 
L 229.145063 -558.625299 
L 229.384171 -554.770592 
L 229.669394 -550.915885 
L 230.003729 -547.061178 
L 230.388839 -543.20647 
L 230.824754 -539.351763 
L 231.309674 -535.497056 
L 231.839892 -531.642349 
L 232.40989 -527.787641 
L 233.012618 -523.932934 
L 233.639946 -520.078227 
L 234.283273 -516.22352 
L 234.93424 -512.368812 
L 235.585475 -508.514105 
L 236.231273 -504.659398 
L 236.868138 -500.804691 
L 237.495082 -496.949984 
L 238.113629 -493.095276 
L 238.727486 -489.240569 
L 239.341901 -485.385862 
L 239.962756 -481.531155 
L 240.595516 -477.676447 
L 241.244153 -473.82174 
L 241.910207 -469.967033 
L 242.592142 -466.112326 
L 243.285105 -462.257618 
L 243.981162 -458.402911 
L 244.670036 -454.548204 
L 245.340254 -450.693497 
L 245.980605 -446.838789 
L 246.58171 -442.984082 
L 247.137502 -439.129375 
L 247.646426 -435.274668 
L 248.112181 -431.41996 
L 248.543898 -427.565253 
L 248.955729 -423.710546 
L 249.36587 -419.855839 
L 249.795156 -416.001131 
L 250.265368 -412.146424 
L 250.797444 -408.291717 
L 251.409782 -404.43701 
L 252.116769 -400.582302 
L 252.927647 -396.727595 
L 253.845769 -392.872888 
L 254.868234 -389.018181 
L 255.985857 -385.163474 
L 257.183426 -381.308766 
L 258.440157 -377.454059 
L 259.730319 -373.599352 
L 261.023974 -369.744645 
L 262.287846 -365.889937 
L 263.486326 -362.03523 
L 264.582642 -358.180523 
L 265.540193 -354.325816 
L 266.324068 -350.471108 
L 266.902674 -346.616401 
L 267.24943 -342.761694 
L 267.344375 -338.906987 
L 267.175579 -335.052279 
L 266.740193 -331.197572 
L 266.045007 -327.342865 
L 265.106424 -323.488158 
L 263.94978 -319.63345 
L 262.608049 -315.778743 
L 261.119984 -311.924036 
L 259.527837 -308.069329 
L 257.874833 -304.214621 
L 256.202604 -300.359914 
L 254.548789 -296.505207 
L 252.944994 -292.6505 
L 251.415277 -288.795792 
L 249.975283 -284.941085 
L 248.632064 -281.086378 
L 247.3846 -277.231671 
L 246.224945 -273.376964 
L 245.139877 -269.522256 
L 244.112883 -265.667549 
L 243.126277 -261.812842 
L 242.163255 -257.958135 
L 241.209674 -254.103427 
L 240.255421 -250.24872 
L 239.295233 -246.394013 
L 238.328943 -242.539306 
L 237.361166 -238.684598 
L 236.400499 -234.829891 
L 235.458383 -230.975184 
L 234.547758 -227.120477 
L 233.681709 -223.265769 
L 232.872222 -219.411062 
L 232.129186 -215.556355 
L 231.459718 -211.701648 
L 230.867821 -207.84694 
L 230.354375 -203.992233 
L 229.917405 -200.137526 
L 229.552552 -196.282819 
L 229.25366 -192.428111 
L 229.013404 -188.573404 
z
" style="stroke: #3d3d3d; stroke-opacity: 0.5"/>
    </defs>
    <g clip-path="url(#p4d067ab052)">
     <use xlink:href="#m9c6fcde42e" x="0" y="696.702001" style="fill: #7f7f7f; fill-opacity: 0.5; stroke: #3d3d3d; stroke-opacity: 0.5"/>
    </g>
   </g>
   <g id="PolyCollection_3">
    <defs>
     <path id="mb1de9eaa60" d="M 326.155536 -237.288141 
L 325.713214 -237.288141 
L 325.628593 -237.316097 
L 325.520247 -237.344053 
L 325.384481 -237.372009 
L 325.217715 -237.399965 
L 325.016534 -237.427921 
L 324.777654 -237.455876 
L 324.497812 -237.483832 
L 324.173599 -237.511788 
L 323.801312 -237.539744 
L 323.376888 -237.5677 
L 322.896016 -237.595656 
L 322.354474 -237.623612 
L 321.748708 -237.651568 
L 321.076572 -237.679524 
L 320.338117 -237.70748 
L 319.536237 -237.735436 
L 318.676986 -237.763391 
L 317.769409 -237.791347 
L 316.824825 -237.819303 
L 315.855619 -237.847259 
L 314.873709 -237.875215 
L 313.888958 -237.903171 
L 312.907841 -237.931127 
L 311.932639 -237.959083 
L 310.961341 -237.987039 
L 309.988287 -238.014995 
L 309.005444 -238.042951 
L 308.004065 -238.070906 
L 306.976417 -238.098862 
L 305.917238 -238.126818 
L 304.824677 -238.154774 
L 303.70055 -238.18273 
L 302.549922 -238.210686 
L 301.380143 -238.238642 
L 300.199574 -238.266598 
L 299.016302 -238.294554 
L 297.83715 -238.32251 
L 296.667214 -238.350465 
L 295.510083 -238.378421 
L 294.368759 -238.406377 
L 293.24715 -238.434333 
L 292.151908 -238.462289 
L 291.094254 -238.490245 
L 290.091402 -238.518201 
L 289.167213 -238.546157 
L 288.351756 -238.574113 
L 287.679672 -238.602069 
L 287.187375 -238.630025 
L 286.909397 -238.65798 
L 286.874375 -238.685936 
L 287.101303 -238.713892 
L 287.596707 -238.741848 
L 288.353272 -238.769804 
L 289.350254 -238.79776 
L 290.555645 -238.825716 
L 291.929781 -238.853672 
L 293.429793 -238.881628 
L 295.014127 -238.909584 
L 296.646422 -238.93754 
L 298.298133 -238.965495 
L 299.949598 -238.993451 
L 301.589552 -239.021407 
L 303.213375 -239.049363 
L 304.820577 -239.077319 
L 306.412068 -239.105275 
L 307.987748 -239.133231 
L 309.544772 -239.161187 
L 311.076676 -239.189143 
L 312.573339 -239.217099 
L 314.02164 -239.245055 
L 315.406555 -239.27301 
L 316.71247 -239.300966 
L 317.924495 -239.328922 
L 319.029645 -239.356878 
L 320.017821 -239.384834 
L 320.882556 -239.41279 
L 321.621527 -239.440746 
L 322.236817 -239.468702 
L 322.734913 -239.496658 
L 323.126403 -239.524614 
L 323.425373 -239.552569 
L 323.648489 -239.580525 
L 323.813832 -239.608481 
L 323.939582 -239.636437 
L 324.04268 -239.664393 
L 324.137636 -239.692349 
L 324.235628 -239.720305 
L 324.343989 -239.748261 
L 324.466152 -239.776217 
L 324.602017 -239.804173 
L 324.748662 -239.832129 
L 324.901277 -239.860084 
L 325.054153 -239.88804 
L 325.201602 -239.915996 
L 325.338685 -239.943952 
L 325.461695 -239.971908 
L 325.568368 -239.999864 
L 325.657873 -240.02782 
L 325.730608 -240.055776 
L 326.138142 -240.055776 
L 326.138142 -240.055776 
L 326.210877 -240.02782 
L 326.300382 -239.999864 
L 326.407055 -239.971908 
L 326.530065 -239.943952 
L 326.667148 -239.915996 
L 326.814597 -239.88804 
L 326.967473 -239.860084 
L 327.120088 -239.832129 
L 327.266733 -239.804173 
L 327.402598 -239.776217 
L 327.524761 -239.748261 
L 327.633122 -239.720305 
L 327.731114 -239.692349 
L 327.82607 -239.664393 
L 327.929168 -239.636437 
L 328.054918 -239.608481 
L 328.220261 -239.580525 
L 328.443377 -239.552569 
L 328.742347 -239.524614 
L 329.133837 -239.496658 
L 329.631933 -239.468702 
L 330.247223 -239.440746 
L 330.986194 -239.41279 
L 331.850929 -239.384834 
L 332.839105 -239.356878 
L 333.944255 -239.328922 
L 335.15628 -239.300966 
L 336.462195 -239.27301 
L 337.84711 -239.245055 
L 339.295411 -239.217099 
L 340.792074 -239.189143 
L 342.323978 -239.161187 
L 343.881002 -239.133231 
L 345.456682 -239.105275 
L 347.048173 -239.077319 
L 348.655375 -239.049363 
L 350.279198 -239.021407 
L 351.919152 -238.993451 
L 353.570617 -238.965495 
L 355.222328 -238.93754 
L 356.854623 -238.909584 
L 358.438957 -238.881628 
L 359.938969 -238.853672 
L 361.313105 -238.825716 
L 362.518496 -238.79776 
L 363.515478 -238.769804 
L 364.272043 -238.741848 
L 364.767447 -238.713892 
L 364.994375 -238.685936 
L 364.959353 -238.65798 
L 364.681375 -238.630025 
L 364.189078 -238.602069 
L 363.516994 -238.574113 
L 362.701537 -238.546157 
L 361.777348 -238.518201 
L 360.774496 -238.490245 
L 359.716842 -238.462289 
L 358.6216 -238.434333 
L 357.499991 -238.406377 
L 356.358667 -238.378421 
L 355.201536 -238.350465 
L 354.0316 -238.32251 
L 352.852448 -238.294554 
L 351.669176 -238.266598 
L 350.488607 -238.238642 
L 349.318828 -238.210686 
L 348.1682 -238.18273 
L 347.044073 -238.154774 
L 345.951512 -238.126818 
L 344.892333 -238.098862 
L 343.864685 -238.070906 
L 342.863306 -238.042951 
L 341.880463 -238.014995 
L 340.907409 -237.987039 
L 339.936111 -237.959083 
L 338.960909 -237.931127 
L 337.979792 -237.903171 
L 336.995041 -237.875215 
L 336.013131 -237.847259 
L 335.043925 -237.819303 
L 334.099341 -237.791347 
L 333.191764 -237.763391 
L 332.332513 -237.735436 
L 331.530633 -237.70748 
L 330.792178 -237.679524 
L 330.120042 -237.651568 
L 329.514276 -237.623612 
L 328.972734 -237.595656 
L 328.491862 -237.5677 
L 328.067438 -237.539744 
L 327.695151 -237.511788 
L 327.370938 -237.483832 
L 327.091096 -237.455876 
L 326.852216 -237.427921 
L 326.651035 -237.399965 
L 326.484269 -237.372009 
L 326.348503 -237.344053 
L 326.240157 -237.316097 
L 326.155536 -237.288141 
z
" style="stroke: #3d3d3d; stroke-opacity: 0.5"/>
    </defs>
    <g clip-path="url(#p4d067ab052)">
     <use xlink:href="#mb1de9eaa60" x="0" y="696.702001" style="fill: #9372b2; fill-opacity: 0.5; stroke: #3d3d3d; stroke-opacity: 0.5"/>
    </g>
   </g>
   <g id="PolyCollection_4">
    <defs>
     <path id="md1bf86d065" d="M 424.709919 -222.577189 
L 422.458831 -222.577189 
L 421.851794 -223.413246 
L 420.999754 -224.249304 
L 419.846006 -225.085361 
L 418.338877 -225.921419 
L 416.439753 -226.757476 
L 414.131556 -227.593534 
L 411.426214 -228.429591 
L 408.369564 -229.265649 
L 405.042458 -230.101706 
L 401.557485 -230.937764 
L 398.051564 -231.773821 
L 394.675514 -232.609879 
L 391.582172 -233.445936 
L 388.914718 -234.281994 
L 386.796523 -235.118051 
L 385.323236 -235.954109 
L 384.557251 -236.790166 
L 384.524375 -237.626223 
L 385.21251 -238.462281 
L 386.572354 -239.298338 
L 388.520408 -240.134396 
L 390.944604 -240.970453 
L 393.71263 -241.806511 
L 396.682471 -242.642568 
L 399.714083 -243.478626 
L 402.680633 -244.314683 
L 405.477643 -245.150741 
L 408.028701 -245.986798 
L 410.287125 -246.822856 
L 412.233784 -247.658913 
L 413.872035 -248.494971 
L 415.221197 -249.331028 
L 416.309981 -250.167086 
L 417.171038 -251.003143 
L 417.837238 -251.839201 
L 418.339741 -252.675258 
L 418.707537 -253.511316 
L 418.967835 -254.347373 
L 419.146723 -255.183431 
L 419.269595 -256.019488 
L 419.361078 -256.855546 
L 419.444398 -257.691603 
L 419.540284 -258.527661 
L 419.665667 -259.363718 
L 419.832458 -260.199776 
L 420.046676 -261.035833 
L 420.30817 -261.87189 
L 420.611015 -262.707948 
L 420.944579 -263.544005 
L 421.295101 -264.380063 
L 421.647536 -265.21612 
L 421.987387 -266.052178 
L 422.302264 -266.888235 
L 422.582962 -267.724293 
L 422.823965 -268.56035 
L 423.023407 -269.396408 
L 423.182568 -270.232465 
L 423.305098 -271.068523 
L 423.396115 -271.90458 
L 423.461355 -272.740638 
L 423.506485 -273.576695 
L 423.53661 -274.412753 
L 423.556011 -275.24881 
L 423.568062 -276.084868 
L 423.575267 -276.920925 
L 423.579386 -277.756983 
L 423.58158 -278.59304 
L 423.582543 -279.429098 
L 423.582615 -280.265155 
L 423.581838 -281.101213 
L 423.57998 -281.93727 
L 423.576511 -282.773328 
L 423.57056 -283.609385 
L 423.560857 -284.445443 
L 423.545707 -285.2815 
L 423.523014 -286.117557 
L 423.490416 -286.953615 
L 423.445551 -287.789672 
L 423.386464 -288.62573 
L 423.312134 -289.461787 
L 423.223037 -290.297845 
L 423.12162 -291.133902 
L 423.012547 -291.96996 
L 422.902575 -292.806017 
L 422.799996 -293.642075 
L 422.713669 -294.478132 
L 422.651777 -295.31419 
L 422.620558 -296.150247 
L 422.623268 -296.986305 
L 422.659622 -297.822362 
L 422.725842 -298.65842 
L 422.815306 -299.494477 
L 422.919636 -300.330535 
L 423.029987 -301.166592 
L 423.138253 -302.00265 
L 423.237981 -302.838707 
L 423.324859 -303.674765 
L 423.396774 -304.510822 
L 423.453522 -305.34688 
L 423.715228 -305.34688 
L 423.715228 -305.34688 
L 423.771976 -304.510822 
L 423.843891 -303.674765 
L 423.930769 -302.838707 
L 424.030497 -302.00265 
L 424.138763 -301.166592 
L 424.249114 -300.330535 
L 424.353444 -299.494477 
L 424.442908 -298.65842 
L 424.509128 -297.822362 
L 424.545482 -296.986305 
L 424.548192 -296.150247 
L 424.516973 -295.31419 
L 424.455081 -294.478132 
L 424.368754 -293.642075 
L 424.266175 -292.806017 
L 424.156203 -291.96996 
L 424.04713 -291.133902 
L 423.945713 -290.297845 
L 423.856616 -289.461787 
L 423.782286 -288.62573 
L 423.723199 -287.789672 
L 423.678334 -286.953615 
L 423.645736 -286.117557 
L 423.623043 -285.2815 
L 423.607893 -284.445443 
L 423.59819 -283.609385 
L 423.592239 -282.773328 
L 423.58877 -281.93727 
L 423.586912 -281.101213 
L 423.586135 -280.265155 
L 423.586207 -279.429098 
L 423.58717 -278.59304 
L 423.589364 -277.756983 
L 423.593483 -276.920925 
L 423.600688 -276.084868 
L 423.612739 -275.24881 
L 423.63214 -274.412753 
L 423.662265 -273.576695 
L 423.707395 -272.740638 
L 423.772635 -271.90458 
L 423.863652 -271.068523 
L 423.986182 -270.232465 
L 424.145343 -269.396408 
L 424.344785 -268.56035 
L 424.585788 -267.724293 
L 424.866486 -266.888235 
L 425.181363 -266.052178 
L 425.521214 -265.21612 
L 425.873649 -264.380063 
L 426.224171 -263.544005 
L 426.557735 -262.707948 
L 426.86058 -261.87189 
L 427.122074 -261.035833 
L 427.336292 -260.199776 
L 427.503083 -259.363718 
L 427.628466 -258.527661 
L 427.724352 -257.691603 
L 427.807672 -256.855546 
L 427.899155 -256.019488 
L 428.022027 -255.183431 
L 428.200915 -254.347373 
L 428.461213 -253.511316 
L 428.829009 -252.675258 
L 429.331512 -251.839201 
L 429.997712 -251.003143 
L 430.858769 -250.167086 
L 431.947553 -249.331028 
L 433.296715 -248.494971 
L 434.934966 -247.658913 
L 436.881625 -246.822856 
L 439.140049 -245.986798 
L 441.691107 -245.150741 
L 444.488117 -244.314683 
L 447.454667 -243.478626 
L 450.486279 -242.642568 
L 453.45612 -241.806511 
L 456.224146 -240.970453 
L 458.648342 -240.134396 
L 460.596396 -239.298338 
L 461.95624 -238.462281 
L 462.644375 -237.626223 
L 462.611499 -236.790166 
L 461.845514 -235.954109 
L 460.372227 -235.118051 
L 458.254032 -234.281994 
L 455.586578 -233.445936 
L 452.493236 -232.609879 
L 449.117186 -231.773821 
L 445.611265 -230.937764 
L 442.126292 -230.101706 
L 438.799186 -229.265649 
L 435.742536 -228.429591 
L 433.037194 -227.593534 
L 430.728997 -226.757476 
L 428.829873 -225.921419 
L 427.322744 -225.085361 
L 426.168996 -224.249304 
L 425.316956 -223.413246 
L 424.709919 -222.577189 
z
" style="stroke: #3d3d3d; stroke-opacity: 0.5"/>
    </defs>
    <g clip-path="url(#p4d067ab052)">
     <use xlink:href="#md1bf86d065" x="0" y="696.702001" style="fill: #845b53; fill-opacity: 0.5; stroke: #3d3d3d; stroke-opacity: 0.5"/>
    </g>
   </g>
   <g id="PolyCollection_5">
    <defs>
     <path id="mf86880a106" d="M 521.780683 -234.153353 
L 520.688067 -234.153353 
L 520.462304 -236.817559 
L 520.164385 -239.481764 
L 519.779397 -242.14597 
L 519.291841 -244.810175 
L 518.686212 -247.47438 
L 517.947589 -250.138586 
L 517.062181 -252.802791 
L 516.017788 -255.466997 
L 514.804181 -258.131202 
L 513.413455 -260.795408 
L 511.840457 -263.459613 
L 510.083413 -266.123818 
L 508.144881 -268.788024 
L 506.033073 -271.452229 
L 503.763503 -274.116435 
L 501.360772 -276.78064 
L 498.860162 -279.444846 
L 496.30864 -282.109051 
L 493.764821 -284.773256 
L 491.297545 -287.437462 
L 488.982885 -290.101667 
L 486.899641 -292.765873 
L 485.1237 -295.430078 
L 483.721832 -298.094284 
L 482.745727 -300.758489 
L 482.227071 -303.422694 
L 482.174375 -306.0869 
L 482.572054 -308.751105 
L 483.381894 -311.415311 
L 484.546733 -314.079516 
L 485.995861 -316.743722 
L 487.651415 -319.407927 
L 489.434965 -322.072133 
L 491.273535 -324.736338 
L 493.104433 -327.400543 
L 494.878495 -330.064749 
L 496.5616 -332.728954 
L 498.134536 -335.39316 
L 499.591463 -338.057365 
L 500.937363 -340.721571 
L 502.184899 -343.385776 
L 503.351089 -346.049981 
L 504.45417 -348.714187 
L 505.510938 -351.378392 
L 506.534747 -354.042598 
L 507.534268 -356.706803 
L 508.513001 -359.371009 
L 509.469467 -362.035214 
L 510.397952 -364.699419 
L 511.289631 -367.363625 
L 512.133897 -370.02783 
L 512.919753 -372.692036 
L 513.63711 -375.356241 
L 514.277912 -378.020447 
L 514.837008 -380.684652 
L 515.312721 -383.348857 
L 515.707107 -386.013063 
L 516.025876 -388.677268 
L 516.277996 -391.341474 
L 516.475012 -394.005679 
L 516.630126 -396.669885 
L 516.757139 -399.33409 
L 516.869355 -401.998295 
L 516.978567 -404.662501 
L 517.094247 -407.326706 
L 517.223018 -409.990912 
L 517.368467 -412.655117 
L 517.531281 -415.319323 
L 517.70966 -417.983528 
L 517.899918 -420.647734 
L 518.097155 -423.311939 
L 518.295917 -425.976144 
L 518.490765 -428.64035 
L 518.676713 -431.304555 
L 518.849554 -433.968761 
L 519.006075 -436.632966 
L 519.144213 -439.297172 
L 519.263164 -441.961377 
L 519.363447 -444.625582 
L 519.446905 -447.289788 
L 519.51662 -449.953993 
L 519.576696 -452.618199 
L 519.631912 -455.282404 
L 519.687256 -457.94661 
L 519.747395 -460.610815 
L 519.81615 -463.27502 
L 519.896059 -465.939226 
L 519.988101 -468.603431 
L 520.091633 -471.267637 
L 520.204531 -473.931842 
L 520.32353 -476.596048 
L 520.444677 -479.260253 
L 520.563836 -481.924458 
L 520.677157 -484.588664 
L 520.781449 -487.252869 
L 520.874422 -489.917075 
L 520.954771 -492.58128 
L 521.022142 -495.245486 
L 521.076987 -497.909691 
L 521.391763 -497.909691 
L 521.391763 -497.909691 
L 521.446608 -495.245486 
L 521.513979 -492.58128 
L 521.594328 -489.917075 
L 521.687301 -487.252869 
L 521.791593 -484.588664 
L 521.904914 -481.924458 
L 522.024073 -479.260253 
L 522.14522 -476.596048 
L 522.264219 -473.931842 
L 522.377117 -471.267637 
L 522.480649 -468.603431 
L 522.572691 -465.939226 
L 522.6526 -463.27502 
L 522.721355 -460.610815 
L 522.781494 -457.94661 
L 522.836838 -455.282404 
L 522.892054 -452.618199 
L 522.95213 -449.953993 
L 523.021845 -447.289788 
L 523.105303 -444.625582 
L 523.205586 -441.961377 
L 523.324537 -439.297172 
L 523.462675 -436.632966 
L 523.619196 -433.968761 
L 523.792037 -431.304555 
L 523.977985 -428.64035 
L 524.172833 -425.976144 
L 524.371595 -423.311939 
L 524.568832 -420.647734 
L 524.75909 -417.983528 
L 524.937469 -415.319323 
L 525.100283 -412.655117 
L 525.245732 -409.990912 
L 525.374503 -407.326706 
L 525.490183 -404.662501 
L 525.599395 -401.998295 
L 525.711611 -399.33409 
L 525.838624 -396.669885 
L 525.993738 -394.005679 
L 526.190754 -391.341474 
L 526.442874 -388.677268 
L 526.761643 -386.013063 
L 527.156029 -383.348857 
L 527.631742 -380.684652 
L 528.190838 -378.020447 
L 528.83164 -375.356241 
L 529.548997 -372.692036 
L 530.334853 -370.02783 
L 531.179119 -367.363625 
L 532.070798 -364.699419 
L 532.999283 -362.035214 
L 533.955749 -359.371009 
L 534.934482 -356.706803 
L 535.934003 -354.042598 
L 536.957812 -351.378392 
L 538.01458 -348.714187 
L 539.117661 -346.049981 
L 540.283851 -343.385776 
L 541.531387 -340.721571 
L 542.877287 -338.057365 
L 544.334214 -335.39316 
L 545.90715 -332.728954 
L 547.590255 -330.064749 
L 549.364317 -327.400543 
L 551.195215 -324.736338 
L 553.033785 -322.072133 
L 554.817335 -319.407927 
L 556.472889 -316.743722 
L 557.922017 -314.079516 
L 559.086856 -311.415311 
L 559.896696 -308.751105 
L 560.294375 -306.0869 
L 560.241679 -303.422694 
L 559.723023 -300.758489 
L 558.746918 -298.094284 
L 557.34505 -295.430078 
L 555.569109 -292.765873 
L 553.485865 -290.101667 
L 551.171205 -287.437462 
L 548.703929 -284.773256 
L 546.16011 -282.109051 
L 543.608588 -279.444846 
L 541.107978 -276.78064 
L 538.705247 -274.116435 
L 536.435677 -271.452229 
L 534.323869 -268.788024 
L 532.385337 -266.123818 
L 530.628293 -263.459613 
L 529.055295 -260.795408 
L 527.664569 -258.131202 
L 526.450962 -255.466997 
L 525.406569 -252.802791 
L 524.521161 -250.138586 
L 523.782538 -247.47438 
L 523.176909 -244.810175 
L 522.689353 -242.14597 
L 522.304365 -239.481764 
L 522.006446 -236.817559 
L 521.780683 -234.153353 
z
" style="stroke: #3d3d3d; stroke-opacity: 0.5"/>
    </defs>
    <g clip-path="url(#p4d067ab052)">
     <use xlink:href="#mf86880a106" x="0" y="696.702001" style="fill: #3274a1; fill-opacity: 0.5; stroke: #3d3d3d; stroke-opacity: 0.5"/>
    </g>
   </g>
   <g id="PolyCollection_6">
    <defs>
     <path id="m92d64e6ddd" d="M 619.927268 -160.302001 
L 617.841482 -160.302001 
L 617.471911 -165.39291 
L 617.001682 -170.48382 
L 616.414222 -175.574729 
L 615.693588 -180.665638 
L 614.825566 -185.756547 
L 613.798859 -190.847456 
L 612.60627 -195.938365 
L 611.245764 -201.029274 
L 609.721261 -206.120183 
L 608.043078 -211.211092 
L 606.227901 -216.302001 
L 604.298277 -221.39291 
L 602.281631 -226.48382 
L 600.208894 -231.574729 
L 598.112879 -236.665638 
L 596.026577 -241.756547 
L 593.981564 -246.847456 
L 592.00668 -251.938365 
L 590.12714 -257.029274 
L 588.36412 -262.120183 
L 586.734852 -267.211092 
L 585.253139 -272.302001 
L 583.930163 -277.39291 
L 582.775421 -282.48382 
L 581.797596 -287.574729 
L 581.005178 -292.665638 
L 580.406716 -297.756547 
L 580.010599 -302.847456 
L 579.824375 -307.938365 
L 579.853654 -313.029274 
L 580.100744 -318.120183 
L 580.563197 -323.211092 
L 581.232485 -328.302001 
L 582.093038 -333.39291 
L 583.121828 -338.48382 
L 584.288668 -343.574729 
L 585.557275 -348.665638 
L 586.887076 -353.756547 
L 588.235641 -358.847456 
L 589.561516 -363.938365 
L 590.827181 -369.029274 
L 592.00181 -374.120183 
L 593.063531 -379.211092 
L 594.000921 -384.302001 
L 594.813554 -389.39291 
L 595.511542 -394.48382 
L 596.114126 -399.574729 
L 596.647458 -404.665638 
L 597.141851 -409.756547 
L 597.628787 -414.847456 
L 598.137998 -419.938365 
L 598.694921 -425.029274 
L 599.318742 -430.120183 
L 600.021174 -435.211092 
L 600.806017 -440.302001 
L 601.669452 -445.39291 
L 602.600953 -450.48382 
L 603.584648 -455.574729 
L 604.600938 -460.665638 
L 605.62819 -465.756547 
L 606.644346 -470.847456 
L 607.628331 -475.938365 
L 608.561188 -481.029274 
L 609.426918 -486.120183 
L 610.213024 -491.211092 
L 610.910801 -496.302001 
L 611.51541 -501.39291 
L 612.025783 -506.48382 
L 612.444381 -511.574729 
L 612.776862 -516.665638 
L 613.031656 -521.756547 
L 613.219463 -526.847456 
L 613.352704 -531.938365 
L 613.44492 -537.029274 
L 613.510145 -542.120183 
L 613.562273 -547.211092 
L 613.614446 -552.302001 
L 613.678484 -557.39291 
L 613.764392 -562.48382 
L 613.87996 -567.574729 
L 614.03049 -572.665638 
L 614.218656 -577.756547 
L 614.444506 -582.847456 
L 614.705625 -587.938365 
L 614.997421 -593.029274 
L 615.313544 -598.120183 
L 615.646389 -603.211092 
L 615.987652 -608.302001 
L 616.328901 -613.39291 
L 616.662108 -618.48382 
L 616.980112 -623.574729 
L 617.276969 -628.665638 
L 617.548188 -633.756547 
L 617.790821 -638.847456 
L 618.003443 -643.938365 
L 618.186009 -649.029274 
L 618.339646 -654.120183 
L 618.466391 -659.211092 
L 618.568908 -664.302001 
L 619.199842 -664.302001 
L 619.199842 -664.302001 
L 619.302359 -659.211092 
L 619.429104 -654.120183 
L 619.582741 -649.029274 
L 619.765307 -643.938365 
L 619.977929 -638.847456 
L 620.220562 -633.756547 
L 620.491781 -628.665638 
L 620.788638 -623.574729 
L 621.106642 -618.48382 
L 621.439849 -613.39291 
L 621.781098 -608.302001 
L 622.122361 -603.211092 
L 622.455206 -598.120183 
L 622.771329 -593.029274 
L 623.063125 -587.938365 
L 623.324244 -582.847456 
L 623.550094 -577.756547 
L 623.73826 -572.665638 
L 623.88879 -567.574729 
L 624.004358 -562.48382 
L 624.090266 -557.39291 
L 624.154304 -552.302001 
L 624.206477 -547.211092 
L 624.258605 -542.120183 
L 624.32383 -537.029274 
L 624.416046 -531.938365 
L 624.549287 -526.847456 
L 624.737094 -521.756547 
L 624.991888 -516.665638 
L 625.324369 -511.574729 
L 625.742967 -506.48382 
L 626.25334 -501.39291 
L 626.857949 -496.302001 
L 627.555726 -491.211092 
L 628.341832 -486.120183 
L 629.207562 -481.029274 
L 630.140419 -475.938365 
L 631.124404 -470.847456 
L 632.14056 -465.756547 
L 633.167812 -460.665638 
L 634.184102 -455.574729 
L 635.167797 -450.48382 
L 636.099298 -445.39291 
L 636.962733 -440.302001 
L 637.747576 -435.211092 
L 638.450008 -430.120183 
L 639.073829 -425.029274 
L 639.630752 -419.938365 
L 640.139963 -414.847456 
L 640.626899 -409.756547 
L 641.121292 -404.665638 
L 641.654624 -399.574729 
L 642.257208 -394.48382 
L 642.955196 -389.39291 
L 643.767829 -384.302001 
L 644.705219 -379.211092 
L 645.76694 -374.120183 
L 646.941569 -369.029274 
L 648.207234 -363.938365 
L 649.533109 -358.847456 
L 650.881674 -353.756547 
L 652.211475 -348.665638 
L 653.480082 -343.574729 
L 654.646922 -338.48382 
L 655.675712 -333.39291 
L 656.536265 -328.302001 
L 657.205553 -323.211092 
L 657.668006 -318.120183 
L 657.915096 -313.029274 
L 657.944375 -307.938365 
L 657.758151 -302.847456 
L 657.362034 -297.756547 
L 656.763572 -292.665638 
L 655.971154 -287.574729 
L 654.993329 -282.48382 
L 653.838587 -277.39291 
L 652.515611 -272.302001 
L 651.033898 -267.211092 
L 649.40463 -262.120183 
L 647.64161 -257.029274 
L 645.76207 -251.938365 
L 643.787186 -246.847456 
L 641.742173 -241.756547 
L 639.655871 -236.665638 
L 637.559856 -231.574729 
L 635.487119 -226.48382 
L 633.470473 -221.39291 
L 631.540849 -216.302001 
L 629.725672 -211.211092 
L 628.047489 -206.120183 
L 626.522986 -201.029274 
L 625.16248 -195.938365 
L 623.969891 -190.847456 
L 622.943184 -185.756547 
L 622.075162 -180.665638 
L 621.354528 -175.574729 
L 620.767068 -170.48382 
L 620.296839 -165.39291 
L 619.927268 -160.302001 
z
" style="stroke: #3d3d3d; stroke-opacity: 0.5"/>
    </defs>
    <g clip-path="url(#p4d067ab052)">
     <use xlink:href="#m92d64e6ddd" x="0" y="696.702001" style="fill: #e1812c; fill-opacity: 0.5; stroke: #3d3d3d; stroke-opacity: 0.5"/>
    </g>
   </g>
   <g id="PolyCollection_7">
    <defs>
     <path id="mfcbd620b26" d="M 716.913401 -229.270788 
L 716.155349 -229.270788 
L 715.941452 -231.363878 
L 715.629765 -233.456968 
L 715.187946 -235.550058 
L 714.578807 -237.643147 
L 713.762152 -239.736237 
L 712.697802 -241.829327 
L 711.349755 -243.922417 
L 709.691178 -246.015507 
L 707.709637 -248.108596 
L 705.411746 -250.201686 
L 702.826313 -252.294776 
L 700.005196 -254.387866 
L 697.021391 -256.480956 
L 693.964438 -258.574046 
L 690.93372 -260.667135 
L 688.030735 -262.760225 
L 685.351536 -264.853315 
L 682.980432 -266.946405 
L 680.985576 -269.039495 
L 679.416583 -271.132584 
L 678.303793 -273.225674 
L 677.658607 -275.318764 
L 677.474375 -277.411854 
L 677.727542 -279.504944 
L 678.379163 -281.598034 
L 679.377043 -283.691123 
L 680.658817 -285.784213 
L 682.156033 -287.877303 
L 683.798988 -289.970393 
L 685.521766 -292.063483 
L 687.266777 -294.156572 
L 688.988177 -296.249662 
L 690.65375 -298.342752 
L 692.24518 -300.435842 
L 693.756869 -302.528932 
L 695.193675 -304.622021 
L 696.567993 -306.715111 
L 697.896566 -308.808201 
L 699.197364 -310.901291 
L 700.486756 -312.994381 
L 701.777158 -315.087471 
L 703.07528 -317.18056 
L 704.381078 -319.27365 
L 705.687477 -321.36674 
L 706.980879 -323.45983 
L 708.242418 -325.55292 
L 709.449822 -327.646009 
L 710.57967 -329.739099 
L 711.609779 -331.832189 
L 712.521424 -333.925279 
L 713.301143 -336.018369 
L 713.941966 -338.111459 
L 714.443959 -340.204548 
L 714.814134 -342.297638 
L 715.065766 -344.390728 
L 715.217244 -346.483818 
L 715.290547 -348.576908 
L 715.309468 -350.669997 
L 715.297703 -352.763087 
L 715.276951 -354.856177 
L 715.265234 -356.949267 
L 715.27561 -359.042357 
L 715.315489 -361.135447 
L 715.386639 -363.228536 
L 715.485886 -365.321626 
L 715.606362 -367.414716 
L 715.73907 -369.507806 
L 715.874482 -371.600896 
L 716.00388 -373.693985 
L 716.120273 -375.787075 
L 716.21879 -377.880165 
L 716.296593 -379.973255 
L 716.352448 -382.066345 
L 716.386108 -384.159435 
L 716.397719 -386.252524 
L 716.387388 -388.345614 
L 716.355022 -390.438704 
L 716.300477 -392.531794 
L 716.223974 -394.624884 
L 716.126706 -396.717973 
L 716.011462 -398.811063 
L 715.883106 -400.904153 
L 715.748729 -402.997243 
L 715.617353 -405.090333 
L 715.499158 -407.183423 
L 715.404307 -409.276512 
L 715.341576 -411.369602 
L 715.317052 -413.462692 
L 715.333176 -415.555782 
L 715.388355 -417.648872 
L 715.477225 -419.741961 
L 715.591513 -421.835051 
L 715.721309 -423.928141 
L 715.856467 -426.021231 
L 715.987886 -428.114321 
L 716.108424 -430.207411 
L 716.213376 -432.3005 
L 716.300483 -434.39359 
L 716.3696 -436.48668 
L 716.69915 -436.48668 
L 716.69915 -436.48668 
L 716.768267 -434.39359 
L 716.855374 -432.3005 
L 716.960326 -430.207411 
L 717.080864 -428.114321 
L 717.212283 -426.021231 
L 717.347441 -423.928141 
L 717.477237 -421.835051 
L 717.591525 -419.741961 
L 717.680395 -417.648872 
L 717.735574 -415.555782 
L 717.751698 -413.462692 
L 717.727174 -411.369602 
L 717.664443 -409.276512 
L 717.569592 -407.183423 
L 717.451397 -405.090333 
L 717.320021 -402.997243 
L 717.185644 -400.904153 
L 717.057288 -398.811063 
L 716.942044 -396.717973 
L 716.844776 -394.624884 
L 716.768273 -392.531794 
L 716.713728 -390.438704 
L 716.681362 -388.345614 
L 716.671031 -386.252524 
L 716.682642 -384.159435 
L 716.716302 -382.066345 
L 716.772157 -379.973255 
L 716.84996 -377.880165 
L 716.948477 -375.787075 
L 717.06487 -373.693985 
L 717.194268 -371.600896 
L 717.32968 -369.507806 
L 717.462388 -367.414716 
L 717.582864 -365.321626 
L 717.682111 -363.228536 
L 717.753261 -361.135447 
L 717.79314 -359.042357 
L 717.803516 -356.949267 
L 717.791799 -354.856177 
L 717.771047 -352.763087 
L 717.759282 -350.669997 
L 717.778203 -348.576908 
L 717.851506 -346.483818 
L 718.002984 -344.390728 
L 718.254616 -342.297638 
L 718.624791 -340.204548 
L 719.126784 -338.111459 
L 719.767607 -336.018369 
L 720.547326 -333.925279 
L 721.458971 -331.832189 
L 722.48908 -329.739099 
L 723.618928 -327.646009 
L 724.826332 -325.55292 
L 726.087871 -323.45983 
L 727.381273 -321.36674 
L 728.687672 -319.27365 
L 729.99347 -317.18056 
L 731.291592 -315.087471 
L 732.581994 -312.994381 
L 733.871386 -310.901291 
L 735.172184 -308.808201 
L 736.500757 -306.715111 
L 737.875075 -304.622021 
L 739.311881 -302.528932 
L 740.82357 -300.435842 
L 742.415 -298.342752 
L 744.080573 -296.249662 
L 745.801973 -294.156572 
L 747.546984 -292.063483 
L 749.269762 -289.970393 
L 750.912717 -287.877303 
L 752.409933 -285.784213 
L 753.691707 -283.691123 
L 754.689587 -281.598034 
L 755.341208 -279.504944 
L 755.594375 -277.411854 
L 755.410143 -275.318764 
L 754.764957 -273.225674 
L 753.652167 -271.132584 
L 752.083174 -269.039495 
L 750.088318 -266.946405 
L 747.717214 -264.853315 
L 745.038015 -262.760225 
L 742.13503 -260.667135 
L 739.104312 -258.574046 
L 736.047359 -256.480956 
L 733.063554 -254.387866 
L 730.242437 -252.294776 
L 727.657004 -250.201686 
L 725.359113 -248.108596 
L 723.377572 -246.015507 
L 721.718995 -243.922417 
L 720.370948 -241.829327 
L 719.306598 -239.736237 
L 718.489943 -237.643147 
L 717.880804 -235.550058 
L 717.438985 -233.456968 
L 717.127298 -231.363878 
L 716.913401 -229.270788 
z
" style="stroke: #3d3d3d; stroke-opacity: 0.5"/>
    </defs>
    <g clip-path="url(#p4d067ab052)">
     <use xlink:href="#mfcbd620b26" x="0" y="696.702001" style="fill: #3a923a; fill-opacity: 0.5; stroke: #3d3d3d; stroke-opacity: 0.5"/>
    </g>
   </g>
   <g id="PolyCollection_8">
    <defs>
     <path id="meb0f034498" d="M 816.427725 -198.604609 
L 811.941025 -198.604609 
L 810.964908 -201.226202 
L 809.679957 -203.847796 
L 808.039266 -206.469389 
L 806.008531 -209.090983 
L 803.573982 -211.712576 
L 800.749971 -214.334169 
L 797.584875 -216.955763 
L 794.163982 -219.577356 
L 790.608212 -222.19895 
L 787.068118 -224.820543 
L 783.713317 -227.442136 
L 780.718329 -230.06373 
L 778.246533 -232.685323 
L 776.434374 -235.306917 
L 775.378026 -237.92851 
L 775.124375 -240.550104 
L 775.667504 -243.171697 
L 776.950963 -245.79329 
L 778.875254 -248.414884 
L 781.309221 -251.036477 
L 784.103589 -253.658071 
L 787.104814 -256.279664 
L 790.167574 -258.901257 
L 793.164651 -261.522851 
L 795.993518 -264.144444 
L 798.579438 -266.766038 
L 800.875406 -269.387631 
L 802.859576 -272.009225 
L 804.531002 -274.630818 
L 805.904589 -277.252411 
L 807.006022 -279.874005 
L 807.867292 -282.495598 
L 808.523168 -285.117192 
L 809.008743 -287.738785 
L 809.35796 -290.360378 
L 809.60287 -292.981972 
L 809.773322 -295.603565 
L 809.896762 -298.225159 
L 809.997958 -300.846752 
L 810.098508 -303.468346 
L 810.216186 -306.089939 
L 810.364242 -308.711532 
L 810.550833 -311.333126 
L 810.778776 -313.954719 
L 811.045744 -316.576313 
L 811.344948 -319.197906 
L 811.666245 -321.819499 
L 811.997533 -324.441093 
L 812.326232 -327.062686 
L 812.640655 -329.68428 
L 812.931091 -332.305873 
L 813.190496 -334.927467 
L 813.414762 -337.54906 
L 813.602591 -340.170653 
L 813.755074 -342.792247 
L 813.875084 -345.41384 
L 813.966611 -348.035434 
L 814.034122 -350.657027 
L 814.082027 -353.27862 
L 814.11428 -355.900214 
L 814.13412 -358.521807 
L 814.143937 -361.143401 
L 814.145238 -363.764994 
L 814.138696 -366.386588 
L 814.124253 -369.008181 
L 814.101271 -371.629774 
L 814.068731 -374.251368 
L 814.025459 -376.872961 
L 813.970381 -379.494555 
L 813.902794 -382.116148 
L 813.82261 -384.737741 
L 813.730557 -387.359335 
L 813.628289 -389.980928 
L 813.518398 -392.602522 
L 813.4043 -395.224115 
L 813.29001 -397.845709 
L 813.179858 -400.467302 
L 813.078161 -403.088895 
L 812.988926 -405.710489 
L 812.915619 -408.332082 
L 812.861005 -410.953676 
L 812.827076 -413.575269 
L 812.815036 -416.196863 
L 812.825304 -418.818456 
L 812.857522 -421.440049 
L 812.910551 -424.061643 
L 812.982461 -426.683236 
L 813.070545 -429.30483 
L 813.171391 -431.926423 
L 813.281027 -434.548016 
L 813.39515 -437.16961 
L 813.509423 -439.791203 
L 813.619795 -442.412797 
L 813.722803 -445.03439 
L 813.815796 -447.655984 
L 813.897067 -450.277577 
L 813.965866 -452.89917 
L 814.022302 -455.520764 
L 814.06718 -458.142357 
L 814.30157 -458.142357 
L 814.30157 -458.142357 
L 814.346448 -455.520764 
L 814.402884 -452.89917 
L 814.471683 -450.277577 
L 814.552954 -447.655984 
L 814.645947 -445.03439 
L 814.748955 -442.412797 
L 814.859327 -439.791203 
L 814.9736 -437.16961 
L 815.087723 -434.548016 
L 815.197359 -431.926423 
L 815.298205 -429.30483 
L 815.386289 -426.683236 
L 815.458199 -424.061643 
L 815.511228 -421.440049 
L 815.543446 -418.818456 
L 815.553714 -416.196863 
L 815.541674 -413.575269 
L 815.507745 -410.953676 
L 815.453131 -408.332082 
L 815.379824 -405.710489 
L 815.290589 -403.088895 
L 815.188892 -400.467302 
L 815.07874 -397.845709 
L 814.96445 -395.224115 
L 814.850352 -392.602522 
L 814.740461 -389.980928 
L 814.638193 -387.359335 
L 814.54614 -384.737741 
L 814.465956 -382.116148 
L 814.398369 -379.494555 
L 814.343291 -376.872961 
L 814.300019 -374.251368 
L 814.267479 -371.629774 
L 814.244497 -369.008181 
L 814.230054 -366.386588 
L 814.223512 -363.764994 
L 814.224813 -361.143401 
L 814.23463 -358.521807 
L 814.25447 -355.900214 
L 814.286723 -353.27862 
L 814.334628 -350.657027 
L 814.402139 -348.035434 
L 814.493666 -345.41384 
L 814.613676 -342.792247 
L 814.766159 -340.170653 
L 814.953988 -337.54906 
L 815.178254 -334.927467 
L 815.437659 -332.305873 
L 815.728095 -329.68428 
L 816.042518 -327.062686 
L 816.371217 -324.441093 
L 816.702505 -321.819499 
L 817.023802 -319.197906 
L 817.323006 -316.576313 
L 817.589974 -313.954719 
L 817.817917 -311.333126 
L 818.004508 -308.711532 
L 818.152564 -306.089939 
L 818.270242 -303.468346 
L 818.370792 -300.846752 
L 818.471988 -298.225159 
L 818.595428 -295.603565 
L 818.76588 -292.981972 
L 819.01079 -290.360378 
L 819.360007 -287.738785 
L 819.845582 -285.117192 
L 820.501458 -282.495598 
L 821.362728 -279.874005 
L 822.464161 -277.252411 
L 823.837748 -274.630818 
L 825.509174 -272.009225 
L 827.493344 -269.387631 
L 829.789312 -266.766038 
L 832.375232 -264.144444 
L 835.204099 -261.522851 
L 838.201176 -258.901257 
L 841.263936 -256.279664 
L 844.265161 -253.658071 
L 847.059529 -251.036477 
L 849.493496 -248.414884 
L 851.417787 -245.79329 
L 852.701246 -243.171697 
L 853.244375 -240.550104 
L 852.990724 -237.92851 
L 851.934376 -235.306917 
L 850.122217 -232.685323 
L 847.650421 -230.06373 
L 844.655433 -227.442136 
L 841.300632 -224.820543 
L 837.760538 -222.19895 
L 834.204768 -219.577356 
L 830.783875 -216.955763 
L 827.618779 -214.334169 
L 824.794768 -211.712576 
L 822.360219 -209.090983 
L 820.329484 -206.469389 
L 818.688793 -203.847796 
L 817.403842 -201.226202 
L 816.427725 -198.604609 
z
" style="stroke: #3d3d3d; stroke-opacity: 0.5"/>
    </defs>
    <g clip-path="url(#p4d067ab052)">
     <use xlink:href="#meb0f034498" x="0" y="696.702001" style="fill: #c03d3e; fill-opacity: 0.5; stroke: #3d3d3d; stroke-opacity: 0.5"/>
    </g>
   </g>
   <g id="line2d_9">
    <path d="M 130.634375 466.129321 
L 130.634375 393.887755 
" clip-path="url(#p4d067ab052)" style="fill: none; stroke: #3d3d3d; stroke-width: 1.5; stroke-linecap: round"/>
   </g>
   <g id="line2d_10">
    <path d="M 130.634375 458.215526 
L 130.634375 431.68656 
" clip-path="url(#p4d067ab052)" style="fill: none; stroke: #3d3d3d; stroke-width: 4.5; stroke-linecap: round"/>
   </g>
   <g id="line2d_11">
    <path d="M 130.634375 449.272036 
" clip-path="url(#p4d067ab052)" style="fill: none; stroke: #3d3d3d; stroke-width: 1.5; stroke-linecap: round"/>
    <defs>
     <path id="md753e46de6" d="M 1.875 0 
L -1.875 -0 
" style="stroke: #ffffff; stroke-width: 0.9"/>
    </defs>
    <g clip-path="url(#p4d067ab052)">
     <use xlink:href="#md753e46de6" x="130.634375" y="449.272036" style="fill: #ffffff; stroke: #ffffff; stroke-width: 0.9"/>
    </g>
   </g>
   <g id="line2d_12">
    <path d="M 228.284375 449.416904 
L 228.284375 185.224273 
" clip-path="url(#p4d067ab052)" style="fill: none; stroke: #3d3d3d; stroke-width: 1.5; stroke-linecap: round"/>
   </g>
   <g id="line2d_13">
    <path d="M 228.284375 373.003934 
L 228.284375 280.658281 
" clip-path="url(#p4d067ab052)" style="fill: none; stroke: #3d3d3d; stroke-width: 4.5; stroke-linecap: round"/>
   </g>
   <g id="line2d_14">
    <path d="M 228.284375 343.001346 
" clip-path="url(#p4d067ab052)" style="fill: none; stroke: #3d3d3d; stroke-width: 1.5; stroke-linecap: round"/>
    <g clip-path="url(#p4d067ab052)">
     <use xlink:href="#md753e46de6" x="228.284375" y="343.001346" style="fill: #ffffff; stroke: #ffffff; stroke-width: 0.9"/>
    </g>
   </g>
   <g id="line2d_15">
    <path d="M 325.934375 459.061142 
L 325.934375 457.371871 
" clip-path="url(#p4d067ab052)" style="fill: none; stroke: #3d3d3d; stroke-width: 1.5; stroke-linecap: round"/>
   </g>
   <g id="line2d_16">
    <path d="M 325.934375 458.373612 
L 325.934375 457.865305 
" clip-path="url(#p4d067ab052)" style="fill: none; stroke: #3d3d3d; stroke-width: 4.5; stroke-linecap: round"/>
   </g>
   <g id="line2d_17">
    <path d="M 325.934375 458.092117 
" clip-path="url(#p4d067ab052)" style="fill: none; stroke: #3d3d3d; stroke-width: 1.5; stroke-linecap: round"/>
    <g clip-path="url(#p4d067ab052)">
     <use xlink:href="#md753e46de6" x="325.934375" y="458.092117" style="fill: #ffffff; stroke: #ffffff; stroke-width: 0.9"/>
    </g>
   </g>
   <g id="line2d_18">
    <path d="M 423.584375 465.280344 
L 423.584375 446.637121 
" clip-path="url(#p4d067ab052)" style="fill: none; stroke: #3d3d3d; stroke-width: 1.5; stroke-linecap: round"/>
   </g>
   <g id="line2d_19">
    <path d="M 423.584375 461.775768 
L 423.584375 454.941554 
" clip-path="url(#p4d067ab052)" style="fill: none; stroke: #3d3d3d; stroke-width: 4.5; stroke-linecap: round"/>
   </g>
   <g id="line2d_20">
    <path d="M 423.584375 458.44471 
" clip-path="url(#p4d067ab052)" style="fill: none; stroke: #3d3d3d; stroke-width: 1.5; stroke-linecap: round"/>
    <g clip-path="url(#p4d067ab052)">
     <use xlink:href="#md753e46de6" x="423.584375" y="458.44471" style="fill: #ffffff; stroke: #ffffff; stroke-width: 0.9"/>
    </g>
   </g>
   <g id="line2d_21">
    <path d="M 521.234375 428.063272 
L 521.234375 300.742216 
" clip-path="url(#p4d067ab052)" style="fill: none; stroke: #3d3d3d; stroke-width: 1.5; stroke-linecap: round"/>
   </g>
   <g id="line2d_22">
    <path d="M 521.234375 398.246804 
L 521.234375 358.647998 
" clip-path="url(#p4d067ab052)" style="fill: none; stroke: #3d3d3d; stroke-width: 4.5; stroke-linecap: round"/>
   </g>
   <g id="line2d_23">
    <path d="M 521.234375 386.831305 
" clip-path="url(#p4d067ab052)" style="fill: none; stroke: #3d3d3d; stroke-width: 1.5; stroke-linecap: round"/>
    <g clip-path="url(#p4d067ab052)">
     <use xlink:href="#md753e46de6" x="521.234375" y="386.831305" style="fill: #ffffff; stroke: #ffffff; stroke-width: 0.9"/>
    </g>
   </g>
   <g id="line2d_24">
    <path d="M 618.884375 460.548213 
L 618.884375 117.858078 
" clip-path="url(#p4d067ab052)" style="fill: none; stroke: #3d3d3d; stroke-width: 1.5; stroke-linecap: round"/>
   </g>
   <g id="line2d_25">
    <path d="M 618.884375 405.107242 
L 618.884375 286.576362 
" clip-path="url(#p4d067ab052)" style="fill: none; stroke: #3d3d3d; stroke-width: 4.5; stroke-linecap: round"/>
   </g>
   <g id="line2d_26">
    <path d="M 618.884375 362.317609 
" clip-path="url(#p4d067ab052)" style="fill: none; stroke: #3d3d3d; stroke-width: 1.5; stroke-linecap: round"/>
    <g clip-path="url(#p4d067ab052)">
     <use xlink:href="#md753e46de6" x="618.884375" y="362.317609" style="fill: #ffffff; stroke: #ffffff; stroke-width: 0.9"/>
    </g>
   </g>
   <g id="line2d_27">
    <path d="M 716.534375 444.625858 
L 716.534375 368.946141 
" clip-path="url(#p4d067ab052)" style="fill: none; stroke: #3d3d3d; stroke-width: 1.5; stroke-linecap: round"/>
   </g>
   <g id="line2d_28">
    <path d="M 716.534375 426.061029 
L 716.534375 400.234399 
" clip-path="url(#p4d067ab052)" style="fill: none; stroke: #3d3d3d; stroke-width: 4.5; stroke-linecap: round"/>
   </g>
   <g id="line2d_29">
    <path d="M 716.534375 414.874666 
" clip-path="url(#p4d067ab052)" style="fill: none; stroke: #3d3d3d; stroke-width: 1.5; stroke-linecap: round"/>
    <g clip-path="url(#p4d067ab052)">
     <use xlink:href="#md753e46de6" x="716.534375" y="414.874666" style="fill: #ffffff; stroke: #ffffff; stroke-width: 0.9"/>
    </g>
   </g>
   <g id="line2d_30">
    <path d="M 814.184375 466.300358 
L 814.184375 419.661383 
" clip-path="url(#p4d067ab052)" style="fill: none; stroke: #3d3d3d; stroke-width: 1.5; stroke-linecap: round"/>
   </g>
   <g id="line2d_31">
    <path d="M 814.184375 462.206753 
L 814.184375 444.619606 
" clip-path="url(#p4d067ab052)" style="fill: none; stroke: #3d3d3d; stroke-width: 4.5; stroke-linecap: round"/>
   </g>
   <g id="line2d_32">
    <path d="M 814.184375 455.657037 
" clip-path="url(#p4d067ab052)" style="fill: none; stroke: #3d3d3d; stroke-width: 1.5; stroke-linecap: round"/>
    <g clip-path="url(#p4d067ab052)">
     <use xlink:href="#md753e46de6" x="814.184375" y="455.657037" style="fill: #ffffff; stroke: #ffffff; stroke-width: 0.9"/>
    </g>
   </g>
   <g id="patch_3">
    <path d="M 81.809375 561.6 
L 863.009375 561.6 
" style="fill: none; stroke: #cccccc; stroke-width: 0.8; stroke-linejoin: miter; stroke-linecap: square"/>
   </g>
  </g>
 </g>
 <defs>
  <clipPath id="p4d067ab052">
   <rect x="81.809375" y="7.2" width="781.2" height="554.4"/>
  </clipPath>
 </defs>
</svg>
