<?xml version="1.0" encoding="utf-8" standalone="no"?>
<!DOCTYPE svg PUBLIC "-//W3C//DTD SVG 1.1//EN"
  "http://www.w3.org/Graphics/SVG/1.1/DTD/svg11.dtd">
<svg xmlns:xlink="http://www.w3.org/1999/xlink" width="853.45pt" height="696.702001pt" viewBox="0 0 853.45 696.702001" xmlns="http://www.w3.org/2000/svg" version="1.1">
 <metadata>
  <rdf:RDF xmlns:dc="http://purl.org/dc/elements/1.1/" xmlns:cc="http://creativecommons.org/ns#" xmlns:rdf="http://www.w3.org/1999/02/22-rdf-syntax-ns#">
   <cc:Work>
    <dc:type rdf:resource="http://purl.org/dc/dcmitype/StillImage"/>
    <dc:date>2024-10-23T17:25:19.438490</dc:date>
    <dc:format>image/svg+xml</dc:format>
    <dc:creator>
     <cc:Agent>
      <dc:title>Matplotlib v3.8.0, https://matplotlib.org/</dc:title>
     </cc:Agent>
    </dc:creator>
   </cc:Work>
  </rdf:RDF>
 </metadata>
 <defs>
  <style type="text/css">*{stroke-linejoin: round; stroke-linecap: butt}</style>
 </defs>
 <g id="figure_1">
  <g id="patch_1">
   <path d="M 0 696.702001 
L 853.45 696.702001 
L 853.45 0 
L 0 0 
L 0 696.702001 
z
" style="fill: none"/>
  </g>
  <g id="axes_1">
   <g id="patch_2">
    <path d="M 65.05 561.6 
L 846.25 561.6 
L 846.25 7.2 
L 65.05 7.2 
L 65.05 561.6 
z
" style="fill: none"/>
   </g>
   <g id="matplotlib.axis_1">
    <g id="xtick_1">
     <g id="text_1">
      <!-- MSA -->
      <g style="fill: #262626" transform="translate(93.501486 610.465141) rotate(-45) scale(0.2 -0.2)">
       <defs>
        <path id="DejaVuSans-4d" d="M 628 4666 
L 1569 4666 
L 2759 1491 
L 3956 4666 
L 4897 4666 
L 4897 0 
L 4281 0 
L 4281 4097 
L 3078 897 
L 2444 897 
L 1241 4097 
L 1241 0 
L 628 0 
L 628 4666 
z
" transform="scale(0.015625)"/>
        <path id="DejaVuSans-53" d="M 3425 4513 
L 3425 3897 
Q 3066 4069 2747 4153 
Q 2428 4238 2131 4238 
Q 1616 4238 1336 4038 
Q 1056 3838 1056 3469 
Q 1056 3159 1242 3001 
Q 1428 2844 1947 2747 
L 2328 2669 
Q 3034 2534 3370 2195 
Q 3706 1856 3706 1288 
Q 3706 609 3251 259 
Q 2797 -91 1919 -91 
Q 1588 -91 1214 -16 
Q 841 59 441 206 
L 441 856 
Q 825 641 1194 531 
Q 1563 422 1919 422 
Q 2459 422 2753 634 
Q 3047 847 3047 1241 
Q 3047 1584 2836 1778 
Q 2625 1972 2144 2069 
L 1759 2144 
Q 1053 2284 737 2584 
Q 422 2884 422 3419 
Q 422 4038 858 4394 
Q 1294 4750 2059 4750 
Q 2388 4750 2728 4690 
Q 3069 4631 3425 4513 
z
" transform="scale(0.015625)"/>
        <path id="DejaVuSans-41" d="M 2188 4044 
L 1331 1722 
L 3047 1722 
L 2188 4044 
z
M 1831 4666 
L 2547 4666 
L 4325 0 
L 3669 0 
L 3244 1197 
L 1141 1197 
L 716 0 
L 50 0 
L 1831 4666 
z
" transform="scale(0.015625)"/>
       </defs>
       <use xlink:href="#DejaVuSans-4d"/>
       <use xlink:href="#DejaVuSans-53" x="86.279297"/>
       <use xlink:href="#DejaVuSans-41" x="151.630859"/>
      </g>
     </g>
    </g>
    <g id="xtick_2">
     <g id="text_2">
      <!-- Single -->
      <g style="fill: #262626" transform="translate(178.792585 622.824042) rotate(-45) scale(0.2 -0.2)">
       <defs>
        <path id="DejaVuSans-69" d="M 603 3500 
L 1178 3500 
L 1178 0 
L 603 0 
L 603 3500 
z
M 603 4863 
L 1178 4863 
L 1178 4134 
L 603 4134 
L 603 4863 
z
" transform="scale(0.015625)"/>
        <path id="DejaVuSans-6e" d="M 3513 2113 
L 3513 0 
L 2938 0 
L 2938 2094 
Q 2938 2591 2744 2837 
Q 2550 3084 2163 3084 
Q 1697 3084 1428 2787 
Q 1159 2491 1159 1978 
L 1159 0 
L 581 0 
L 581 3500 
L 1159 3500 
L 1159 2956 
Q 1366 3272 1645 3428 
Q 1925 3584 2291 3584 
Q 2894 3584 3203 3211 
Q 3513 2838 3513 2113 
z
" transform="scale(0.015625)"/>
        <path id="DejaVuSans-67" d="M 2906 1791 
Q 2906 2416 2648 2759 
Q 2391 3103 1925 3103 
Q 1463 3103 1205 2759 
Q 947 2416 947 1791 
Q 947 1169 1205 825 
Q 1463 481 1925 481 
Q 2391 481 2648 825 
Q 2906 1169 2906 1791 
z
M 3481 434 
Q 3481 -459 3084 -895 
Q 2688 -1331 1869 -1331 
Q 1566 -1331 1297 -1286 
Q 1028 -1241 775 -1147 
L 775 -588 
Q 1028 -725 1275 -790 
Q 1522 -856 1778 -856 
Q 2344 -856 2625 -561 
Q 2906 -266 2906 331 
L 2906 616 
Q 2728 306 2450 153 
Q 2172 0 1784 0 
Q 1141 0 747 490 
Q 353 981 353 1791 
Q 353 2603 747 3093 
Q 1141 3584 1784 3584 
Q 2172 3584 2450 3431 
Q 2728 3278 2906 2969 
L 2906 3500 
L 3481 3500 
L 3481 434 
z
" transform="scale(0.015625)"/>
        <path id="DejaVuSans-6c" d="M 603 4863 
L 1178 4863 
L 1178 0 
L 603 0 
L 603 4863 
z
" transform="scale(0.015625)"/>
        <path id="DejaVuSans-65" d="M 3597 1894 
L 3597 1613 
L 953 1613 
Q 991 1019 1311 708 
Q 1631 397 2203 397 
Q 2534 397 2845 478 
Q 3156 559 3463 722 
L 3463 178 
Q 3153 47 2828 -22 
Q 2503 -91 2169 -91 
Q 1331 -91 842 396 
Q 353 884 353 1716 
Q 353 2575 817 3079 
Q 1281 3584 2069 3584 
Q 2775 3584 3186 3129 
Q 3597 2675 3597 1894 
z
M 3022 2063 
Q 3016 2534 2758 2815 
Q 2500 3097 2075 3097 
Q 1594 3097 1305 2825 
Q 1016 2553 972 2059 
L 3022 2063 
z
" transform="scale(0.015625)"/>
       </defs>
       <use xlink:href="#DejaVuSans-53"/>
       <use xlink:href="#DejaVuSans-69" x="63.476562"/>
       <use xlink:href="#DejaVuSans-6e" x="91.259766"/>
       <use xlink:href="#DejaVuSans-67" x="154.638672"/>
       <use xlink:href="#DejaVuSans-6c" x="218.115234"/>
       <use xlink:href="#DejaVuSans-65" x="245.898438"/>
      </g>
     </g>
    </g>
    <g id="xtick_3">
     <g id="text_3">
      <!-- Gaussian -->
      <g style="fill: #262626" transform="translate(255.041556 644.22507) rotate(-45) scale(0.2 -0.2)">
       <defs>
        <path id="DejaVuSans-47" d="M 3809 666 
L 3809 1919 
L 2778 1919 
L 2778 2438 
L 4434 2438 
L 4434 434 
Q 4069 175 3628 42 
Q 3188 -91 2688 -91 
Q 1594 -91 976 548 
Q 359 1188 359 2328 
Q 359 3472 976 4111 
Q 1594 4750 2688 4750 
Q 3144 4750 3555 4637 
Q 3966 4525 4313 4306 
L 4313 3634 
Q 3963 3931 3569 4081 
Q 3175 4231 2741 4231 
Q 1884 4231 1454 3753 
Q 1025 3275 1025 2328 
Q 1025 1384 1454 906 
Q 1884 428 2741 428 
Q 3075 428 3337 486 
Q 3600 544 3809 666 
z
" transform="scale(0.015625)"/>
        <path id="DejaVuSans-61" d="M 2194 1759 
Q 1497 1759 1228 1600 
Q 959 1441 959 1056 
Q 959 750 1161 570 
Q 1363 391 1709 391 
Q 2188 391 2477 730 
Q 2766 1069 2766 1631 
L 2766 1759 
L 2194 1759 
z
M 3341 1997 
L 3341 0 
L 2766 0 
L 2766 531 
Q 2569 213 2275 61 
Q 1981 -91 1556 -91 
Q 1019 -91 701 211 
Q 384 513 384 1019 
Q 384 1609 779 1909 
Q 1175 2209 1959 2209 
L 2766 2209 
L 2766 2266 
Q 2766 2663 2505 2880 
Q 2244 3097 1772 3097 
Q 1472 3097 1187 3025 
Q 903 2953 641 2809 
L 641 3341 
Q 956 3463 1253 3523 
Q 1550 3584 1831 3584 
Q 2591 3584 2966 3190 
Q 3341 2797 3341 1997 
z
" transform="scale(0.015625)"/>
        <path id="DejaVuSans-75" d="M 544 1381 
L 544 3500 
L 1119 3500 
L 1119 1403 
Q 1119 906 1312 657 
Q 1506 409 1894 409 
Q 2359 409 2629 706 
Q 2900 1003 2900 1516 
L 2900 3500 
L 3475 3500 
L 3475 0 
L 2900 0 
L 2900 538 
Q 2691 219 2414 64 
Q 2138 -91 1772 -91 
Q 1169 -91 856 284 
Q 544 659 544 1381 
z
M 1991 3584 
L 1991 3584 
z
" transform="scale(0.015625)"/>
        <path id="DejaVuSans-73" d="M 2834 3397 
L 2834 2853 
Q 2591 2978 2328 3040 
Q 2066 3103 1784 3103 
Q 1356 3103 1142 2972 
Q 928 2841 928 2578 
Q 928 2378 1081 2264 
Q 1234 2150 1697 2047 
L 1894 2003 
Q 2506 1872 2764 1633 
Q 3022 1394 3022 966 
Q 3022 478 2636 193 
Q 2250 -91 1575 -91 
Q 1294 -91 989 -36 
Q 684 19 347 128 
L 347 722 
Q 666 556 975 473 
Q 1284 391 1588 391 
Q 1994 391 2212 530 
Q 2431 669 2431 922 
Q 2431 1156 2273 1281 
Q 2116 1406 1581 1522 
L 1381 1569 
Q 847 1681 609 1914 
Q 372 2147 372 2553 
Q 372 3047 722 3315 
Q 1072 3584 1716 3584 
Q 2034 3584 2315 3537 
Q 2597 3491 2834 3397 
z
" transform="scale(0.015625)"/>
       </defs>
       <use xlink:href="#DejaVuSans-47"/>
       <use xlink:href="#DejaVuSans-61" x="77.490234"/>
       <use xlink:href="#DejaVuSans-75" x="138.769531"/>
       <use xlink:href="#DejaVuSans-73" x="202.148438"/>
       <use xlink:href="#DejaVuSans-73" x="254.248047"/>
       <use xlink:href="#DejaVuSans-69" x="306.347656"/>
       <use xlink:href="#DejaVuSans-61" x="334.130859"/>
       <use xlink:href="#DejaVuSans-6e" x="395.410156"/>
      </g>
     </g>
    </g>
    <g id="xtick_4">
     <g id="text_4">
      <!-- Gaussian (AF2) -->
      <g style="fill: #262626" transform="translate(310.355748 686.560879) rotate(-45) scale(0.2 -0.2)">
       <defs>
        <path id="DejaVuSans-20" transform="scale(0.015625)"/>
        <path id="DejaVuSans-28" d="M 1984 4856 
Q 1566 4138 1362 3434 
Q 1159 2731 1159 2009 
Q 1159 1288 1364 580 
Q 1569 -128 1984 -844 
L 1484 -844 
Q 1016 -109 783 600 
Q 550 1309 550 2009 
Q 550 2706 781 3412 
Q 1013 4119 1484 4856 
L 1984 4856 
z
" transform="scale(0.015625)"/>
        <path id="DejaVuSans-46" d="M 628 4666 
L 3309 4666 
L 3309 4134 
L 1259 4134 
L 1259 2759 
L 3109 2759 
L 3109 2228 
L 1259 2228 
L 1259 0 
L 628 0 
L 628 4666 
z
" transform="scale(0.015625)"/>
        <path id="DejaVuSans-32" d="M 1228 531 
L 3431 531 
L 3431 0 
L 469 0 
L 469 531 
Q 828 903 1448 1529 
Q 2069 2156 2228 2338 
Q 2531 2678 2651 2914 
Q 2772 3150 2772 3378 
Q 2772 3750 2511 3984 
Q 2250 4219 1831 4219 
Q 1534 4219 1204 4116 
Q 875 4013 500 3803 
L 500 4441 
Q 881 4594 1212 4672 
Q 1544 4750 1819 4750 
Q 2544 4750 2975 4387 
Q 3406 4025 3406 3419 
Q 3406 3131 3298 2873 
Q 3191 2616 2906 2266 
Q 2828 2175 2409 1742 
Q 1991 1309 1228 531 
z
" transform="scale(0.015625)"/>
        <path id="DejaVuSans-29" d="M 513 4856 
L 1013 4856 
Q 1481 4119 1714 3412 
Q 1947 2706 1947 2009 
Q 1947 1309 1714 600 
Q 1481 -109 1013 -844 
L 513 -844 
Q 928 -128 1133 580 
Q 1338 1288 1338 2009 
Q 1338 2731 1133 3434 
Q 928 4138 513 4856 
z
" transform="scale(0.015625)"/>
       </defs>
       <use xlink:href="#DejaVuSans-47"/>
       <use xlink:href="#DejaVuSans-61" x="77.490234"/>
       <use xlink:href="#DejaVuSans-75" x="138.769531"/>
       <use xlink:href="#DejaVuSans-73" x="202.148438"/>
       <use xlink:href="#DejaVuSans-73" x="254.248047"/>
       <use xlink:href="#DejaVuSans-69" x="306.347656"/>
       <use xlink:href="#DejaVuSans-61" x="334.130859"/>
       <use xlink:href="#DejaVuSans-6e" x="395.410156"/>
       <use xlink:href="#DejaVuSans-20" x="458.789062"/>
       <use xlink:href="#DejaVuSans-28" x="490.576172"/>
       <use xlink:href="#DejaVuSans-41" x="529.589844"/>
       <use xlink:href="#DejaVuSans-46" x="597.998047"/>
       <use xlink:href="#DejaVuSans-32" x="655.517578"/>
       <use xlink:href="#DejaVuSans-29" x="719.140625"/>
      </g>
     </g>
    </g>
    <g id="xtick_5">
     <g id="text_5">
      <!-- 1 PC -->
      <g style="fill: #262626" transform="translate(483.325878 611.240749) rotate(-45) scale(0.2 -0.2)">
       <defs>
        <path id="DejaVuSans-31" d="M 794 531 
L 1825 531 
L 1825 4091 
L 703 3866 
L 703 4441 
L 1819 4666 
L 2450 4666 
L 2450 531 
L 3481 531 
L 3481 0 
L 794 0 
L 794 531 
z
" transform="scale(0.015625)"/>
        <path id="DejaVuSans-50" d="M 1259 4147 
L 1259 2394 
L 2053 2394 
Q 2494 2394 2734 2622 
Q 2975 2850 2975 3272 
Q 2975 3691 2734 3919 
Q 2494 4147 2053 4147 
L 1259 4147 
z
M 628 4666 
L 2053 4666 
Q 2838 4666 3239 4311 
Q 3641 3956 3641 3272 
Q 3641 2581 3239 2228 
Q 2838 1875 2053 1875 
L 1259 1875 
L 1259 0 
L 628 0 
L 628 4666 
z
" transform="scale(0.015625)"/>
        <path id="DejaVuSans-43" d="M 4122 4306 
L 4122 3641 
Q 3803 3938 3442 4084 
Q 3081 4231 2675 4231 
Q 1875 4231 1450 3742 
Q 1025 3253 1025 2328 
Q 1025 1406 1450 917 
Q 1875 428 2675 428 
Q 3081 428 3442 575 
Q 3803 722 4122 1019 
L 4122 359 
Q 3791 134 3420 21 
Q 3050 -91 2638 -91 
Q 1578 -91 968 557 
Q 359 1206 359 2328 
Q 359 3453 968 4101 
Q 1578 4750 2638 4750 
Q 3056 4750 3426 4639 
Q 3797 4528 4122 4306 
z
" transform="scale(0.015625)"/>
       </defs>
       <use xlink:href="#DejaVuSans-31"/>
       <use xlink:href="#DejaVuSans-20" x="63.623047"/>
       <use xlink:href="#DejaVuSans-50" x="95.410156"/>
       <use xlink:href="#DejaVuSans-43" x="155.712891"/>
      </g>
     </g>
    </g>
    <g id="xtick_6">
     <g id="text_6">
      <!-- 1 PC (AF2) -->
      <g style="fill: #262626" transform="translate(538.640069 653.576557) rotate(-45) scale(0.2 -0.2)">
       <use xlink:href="#DejaVuSans-31"/>
       <use xlink:href="#DejaVuSans-20" x="63.623047"/>
       <use xlink:href="#DejaVuSans-50" x="95.410156"/>
       <use xlink:href="#DejaVuSans-43" x="155.712891"/>
       <use xlink:href="#DejaVuSans-20" x="225.537109"/>
       <use xlink:href="#DejaVuSans-28" x="257.324219"/>
       <use xlink:href="#DejaVuSans-41" x="296.337891"/>
       <use xlink:href="#DejaVuSans-46" x="364.746094"/>
       <use xlink:href="#DejaVuSans-32" x="422.265625"/>
       <use xlink:href="#DejaVuSans-29" x="485.888672"/>
      </g>
     </g>
    </g>
    <g id="xtick_7">
     <g id="text_7">
      <!-- 2 PC -->
      <g style="fill: #262626" transform="translate(678.625878 611.240749) rotate(-45) scale(0.2 -0.2)">
       <use xlink:href="#DejaVuSans-32"/>
       <use xlink:href="#DejaVuSans-20" x="63.623047"/>
       <use xlink:href="#DejaVuSans-50" x="95.410156"/>
       <use xlink:href="#DejaVuSans-43" x="155.712891"/>
      </g>
     </g>
    </g>
    <g id="xtick_8">
     <g id="text_8">
      <!-- 2 PC (AF2) -->
      <g style="fill: #262626" transform="translate(733.940069 653.576557) rotate(-45) scale(0.2 -0.2)">
       <use xlink:href="#DejaVuSans-32"/>
       <use xlink:href="#DejaVuSans-20" x="63.623047"/>
       <use xlink:href="#DejaVuSans-50" x="95.410156"/>
       <use xlink:href="#DejaVuSans-43" x="155.712891"/>
       <use xlink:href="#DejaVuSans-20" x="225.537109"/>
       <use xlink:href="#DejaVuSans-28" x="257.324219"/>
       <use xlink:href="#DejaVuSans-41" x="296.337891"/>
       <use xlink:href="#DejaVuSans-46" x="364.746094"/>
       <use xlink:href="#DejaVuSans-32" x="422.265625"/>
       <use xlink:href="#DejaVuSans-29" x="485.888672"/>
      </g>
     </g>
    </g>
   </g>
   <g id="matplotlib.axis_2">
    <g id="ytick_1">
     <g id="line2d_1">
      <path d="M 65.05 483.026913 
L 846.25 483.026913 
" clip-path="url(#p4d71b4cc3c)" style="fill: none; stroke: #cccccc; stroke-width: 0.8; stroke-linecap: round"/>
     </g>
     <g id="text_9">
      <!-- 0 -->
      <g style="fill: #262626" transform="translate(45.325 490.62535) scale(0.2 -0.2)">
       <defs>
        <path id="DejaVuSans-30" d="M 2034 4250 
Q 1547 4250 1301 3770 
Q 1056 3291 1056 2328 
Q 1056 1369 1301 889 
Q 1547 409 2034 409 
Q 2525 409 2770 889 
Q 3016 1369 3016 2328 
Q 3016 3291 2770 3770 
Q 2525 4250 2034 4250 
z
M 2034 4750 
Q 2819 4750 3233 4129 
Q 3647 3509 3647 2328 
Q 3647 1150 3233 529 
Q 2819 -91 2034 -91 
Q 1250 -91 836 529 
Q 422 1150 422 2328 
Q 422 3509 836 4129 
Q 1250 4750 2034 4750 
z
" transform="scale(0.015625)"/>
       </defs>
       <use xlink:href="#DejaVuSans-30"/>
      </g>
     </g>
    </g>
    <g id="ytick_2">
     <g id="line2d_2">
      <path d="M 65.05 373.234949 
L 846.25 373.234949 
" clip-path="url(#p4d71b4cc3c)" style="fill: none; stroke: #cccccc; stroke-width: 0.8; stroke-linecap: round"/>
     </g>
     <g id="text_10">
      <!-- 20 -->
      <g style="fill: #262626" transform="translate(32.6 380.833387) scale(0.2 -0.2)">
       <use xlink:href="#DejaVuSans-32"/>
       <use xlink:href="#DejaVuSans-30" x="63.623047"/>
      </g>
     </g>
    </g>
    <g id="ytick_3">
     <g id="line2d_3">
      <path d="M 65.05 263.442986 
L 846.25 263.442986 
" clip-path="url(#p4d71b4cc3c)" style="fill: none; stroke: #cccccc; stroke-width: 0.8; stroke-linecap: round"/>
     </g>
     <g id="text_11">
      <!-- 40 -->
      <g style="fill: #262626" transform="translate(32.6 271.041423) scale(0.2 -0.2)">
       <defs>
        <path id="DejaVuSans-34" d="M 2419 4116 
L 825 1625 
L 2419 1625 
L 2419 4116 
z
M 2253 4666 
L 3047 4666 
L 3047 1625 
L 3713 1625 
L 3713 1100 
L 3047 1100 
L 3047 0 
L 2419 0 
L 2419 1100 
L 313 1100 
L 313 1709 
L 2253 4666 
z
" transform="scale(0.015625)"/>
       </defs>
       <use xlink:href="#DejaVuSans-34"/>
       <use xlink:href="#DejaVuSans-30" x="63.623047"/>
      </g>
     </g>
    </g>
    <g id="ytick_4">
     <g id="line2d_4">
      <path d="M 65.05 153.651022 
L 846.25 153.651022 
" clip-path="url(#p4d71b4cc3c)" style="fill: none; stroke: #cccccc; stroke-width: 0.8; stroke-linecap: round"/>
     </g>
     <g id="text_12">
      <!-- 60 -->
      <g style="fill: #262626" transform="translate(32.6 161.249459) scale(0.2 -0.2)">
       <defs>
        <path id="DejaVuSans-36" d="M 2113 2584 
Q 1688 2584 1439 2293 
Q 1191 2003 1191 1497 
Q 1191 994 1439 701 
Q 1688 409 2113 409 
Q 2538 409 2786 701 
Q 3034 994 3034 1497 
Q 3034 2003 2786 2293 
Q 2538 2584 2113 2584 
z
M 3366 4563 
L 3366 3988 
Q 3128 4100 2886 4159 
Q 2644 4219 2406 4219 
Q 1781 4219 1451 3797 
Q 1122 3375 1075 2522 
Q 1259 2794 1537 2939 
Q 1816 3084 2150 3084 
Q 2853 3084 3261 2657 
Q 3669 2231 3669 1497 
Q 3669 778 3244 343 
Q 2819 -91 2113 -91 
Q 1303 -91 875 529 
Q 447 1150 447 2328 
Q 447 3434 972 4092 
Q 1497 4750 2381 4750 
Q 2619 4750 2861 4703 
Q 3103 4656 3366 4563 
z
" transform="scale(0.015625)"/>
       </defs>
       <use xlink:href="#DejaVuSans-36"/>
       <use xlink:href="#DejaVuSans-30" x="63.623047"/>
      </g>
     </g>
    </g>
    <g id="ytick_5">
     <g id="line2d_5">
      <path d="M 65.05 43.859058 
L 846.25 43.859058 
" clip-path="url(#p4d71b4cc3c)" style="fill: none; stroke: #cccccc; stroke-width: 0.8; stroke-linecap: round"/>
     </g>
     <g id="text_13">
      <!-- 80 -->
      <g style="fill: #262626" transform="translate(32.6 51.457496) scale(0.2 -0.2)">
       <defs>
        <path id="DejaVuSans-38" d="M 2034 2216 
Q 1584 2216 1326 1975 
Q 1069 1734 1069 1313 
Q 1069 891 1326 650 
Q 1584 409 2034 409 
Q 2484 409 2743 651 
Q 3003 894 3003 1313 
Q 3003 1734 2745 1975 
Q 2488 2216 2034 2216 
z
M 1403 2484 
Q 997 2584 770 2862 
Q 544 3141 544 3541 
Q 544 4100 942 4425 
Q 1341 4750 2034 4750 
Q 2731 4750 3128 4425 
Q 3525 4100 3525 3541 
Q 3525 3141 3298 2862 
Q 3072 2584 2669 2484 
Q 3125 2378 3379 2068 
Q 3634 1759 3634 1313 
Q 3634 634 3220 271 
Q 2806 -91 2034 -91 
Q 1263 -91 848 271 
Q 434 634 434 1313 
Q 434 1759 690 2068 
Q 947 2378 1403 2484 
z
M 1172 3481 
Q 1172 3119 1398 2916 
Q 1625 2713 2034 2713 
Q 2441 2713 2670 2916 
Q 2900 3119 2900 3481 
Q 2900 3844 2670 4047 
Q 2441 4250 2034 4250 
Q 1625 4250 1398 4047 
Q 1172 3844 1172 3481 
z
" transform="scale(0.015625)"/>
       </defs>
       <use xlink:href="#DejaVuSans-38"/>
       <use xlink:href="#DejaVuSans-30" x="63.623047"/>
      </g>
     </g>
    </g>
    <g id="text_14">
     <!-- $\alpha$-RMSD ($\AA$) $\downarrow$ -->
     <g style="fill: #262626" transform="translate(24.440625 357.6) rotate(-90) scale(0.2 -0.2)">
      <defs>
       <path id="DejaVuSans-Oblique-3b1" d="M 2619 1628 
L 2622 2350 
Q 2625 3088 2069 3091 
Q 1653 3094 1394 2747 
Q 1069 2319 959 1747 
Q 825 1059 994 731 
Q 1169 397 1547 397 
Q 1966 397 2319 1063 
L 2619 1628 
z
M 2166 3578 
Q 3141 3594 3128 2584 
Q 3128 2584 3616 3500 
L 4128 3500 
L 3119 1603 
L 3109 919 
Q 3109 766 3194 638 
Q 3291 488 3391 488 
L 3669 488 
L 3575 0 
L 3228 0 
Q 2934 0 2722 263 
Q 2622 394 2619 669 
Q 2416 334 2066 50 
Q 1900 -81 1453 -78 
Q 722 -72 456 397 
Q 184 884 353 1747 
Q 534 2675 1009 3097 
Q 1544 3569 2166 3578 
z
" transform="scale(0.015625)"/>
       <path id="DejaVuSans-2d" d="M 313 2009 
L 1997 2009 
L 1997 1497 
L 313 1497 
L 313 2009 
z
" transform="scale(0.015625)"/>
       <path id="DejaVuSans-52" d="M 2841 2188 
Q 3044 2119 3236 1894 
Q 3428 1669 3622 1275 
L 4263 0 
L 3584 0 
L 2988 1197 
Q 2756 1666 2539 1819 
Q 2322 1972 1947 1972 
L 1259 1972 
L 1259 0 
L 628 0 
L 628 4666 
L 2053 4666 
Q 2853 4666 3247 4331 
Q 3641 3997 3641 3322 
Q 3641 2881 3436 2590 
Q 3231 2300 2841 2188 
z
M 1259 4147 
L 1259 2491 
L 2053 2491 
Q 2509 2491 2742 2702 
Q 2975 2913 2975 3322 
Q 2975 3731 2742 3939 
Q 2509 4147 2053 4147 
L 1259 4147 
z
" transform="scale(0.015625)"/>
       <path id="DejaVuSans-44" d="M 1259 4147 
L 1259 519 
L 2022 519 
Q 2988 519 3436 956 
Q 3884 1394 3884 2338 
Q 3884 3275 3436 3711 
Q 2988 4147 2022 4147 
L 1259 4147 
z
M 628 4666 
L 1925 4666 
Q 3281 4666 3915 4102 
Q 4550 3538 4550 2338 
Q 4550 1131 3912 565 
Q 3275 0 1925 0 
L 628 0 
L 628 4666 
z
" transform="scale(0.015625)"/>
       <path id="DejaVuSans-Oblique-c5" d="M 3188 5081 
Q 3188 5278 3048 5417 
Q 2909 5556 2713 5556 
Q 2513 5556 2377 5420 
Q 2241 5284 2241 5081 
Q 2241 4884 2377 4746 
Q 2513 4609 2713 4609 
Q 2909 4609 3048 4746 
Q 3188 4884 3188 5081 
z
M 2203 4397 
Q 2034 4513 1945 4689 
Q 1856 4866 1856 5081 
Q 1856 5438 2106 5689 
Q 2356 5941 2713 5941 
Q 3069 5941 3320 5689 
Q 3572 5438 3572 5081 
Q 3572 4834 3458 4643 
Q 3344 4453 3128 4341 
L 3938 0 
L 3278 0 
L 3084 1197 
L 984 1197 
L 325 0 
L -341 0 
L 2203 4397 
z
M 2584 4044 
L 1275 1722 
L 2988 1722 
L 2584 4044 
z
" transform="scale(0.015625)"/>
       <path id="DejaVuSans-2193" d="M 2822 -22 
L 2541 -22 
L 1309 1209 
L 1684 1584 
L 2416 853 
L 2416 4666 
L 2947 4666 
L 2947 853 
L 3672 1584 
L 4047 1209 
L 2822 -22 
z
" transform="scale(0.015625)"/>
      </defs>
      <use xlink:href="#DejaVuSans-Oblique-3b1" transform="translate(0 0.171875)"/>
      <use xlink:href="#DejaVuSans-2d" transform="translate(65.917969 0.171875)"/>
      <use xlink:href="#DejaVuSans-52" transform="translate(102.001953 0.171875)"/>
      <use xlink:href="#DejaVuSans-4d" transform="translate(171.484375 0.171875)"/>
      <use xlink:href="#DejaVuSans-53" transform="translate(257.763672 0.171875)"/>
      <use xlink:href="#DejaVuSans-44" transform="translate(321.240234 0.171875)"/>
      <use xlink:href="#DejaVuSans-20" transform="translate(398.242188 0.171875)"/>
      <use xlink:href="#DejaVuSans-28" transform="translate(430.029297 0.171875)"/>
      <use xlink:href="#DejaVuSans-Oblique-c5" transform="translate(469.042969 0.171875)"/>
      <use xlink:href="#DejaVuSans-29" transform="translate(537.451172 0.171875)"/>
      <use xlink:href="#DejaVuSans-20" transform="translate(576.464844 0.171875)"/>
      <use xlink:href="#DejaVuSans-2193" transform="translate(627.734375 0.171875)"/>
     </g>
    </g>
   </g>
   <g id="PolyCollection_1">
    <defs>
     <path id="mb93781d95c" d="M 116.172178 -191.574079 
L 111.577822 -191.574079 
L 110.790924 -193.189082 
L 109.802776 -194.804085 
L 108.586416 -196.419088 
L 107.119225 -198.03409 
L 105.385777 -199.649093 
L 103.380812 -201.264096 
L 101.112032 -202.879099 
L 98.602391 -204.494101 
L 95.891529 -206.109104 
L 93.036027 -207.724107 
L 90.108259 -209.33911 
L 87.193736 -210.954112 
L 84.387015 -212.569115 
L 81.786415 -214.184118 
L 79.487946 -215.799121 
L 77.578982 -217.414124 
L 76.132292 -219.029126 
L 75.201004 -220.644129 
L 74.815 -222.259132 
L 74.979113 -223.874135 
L 75.673251 -225.489137 
L 76.854398 -227.10414 
L 78.460228 -228.719143 
L 80.41391 -230.334146 
L 82.629577 -231.949149 
L 85.017939 -233.564151 
L 87.491518 -235.179154 
L 89.969126 -236.794157 
L 92.379305 -238.40916 
L 94.662607 -240.024162 
L 96.772742 -241.639165 
L 98.676698 -243.254168 
L 100.354044 -244.869171 
L 101.795648 -246.484174 
L 103.002037 -248.099176 
L 103.981617 -249.714179 
L 104.748914 -251.329182 
L 105.322958 -252.944185 
L 105.725857 -254.559187 
L 105.981611 -256.17419 
L 106.115138 -257.789193 
L 106.151476 -259.404196 
L 106.115145 -261.019199 
L 106.029595 -262.634201 
L 105.916725 -264.249204 
L 105.796449 -265.864207 
L 105.686284 -267.47921 
L 105.600981 -269.094212 
L 105.552204 -270.709215 
L 105.548295 -272.324218 
L 105.594136 -273.939221 
L 105.691156 -275.554223 
L 105.837487 -277.169226 
L 106.028281 -278.784229 
L 106.256199 -280.399232 
L 106.512022 -282.014235 
L 106.785383 -283.629237 
L 107.065554 -285.24424 
L 107.342239 -286.859243 
L 107.606325 -288.474246 
L 107.85052 -290.089248 
L 108.069836 -291.704251 
L 108.261879 -293.319254 
L 108.426914 -294.934257 
L 108.567703 -296.54926 
L 108.689134 -298.164262 
L 108.797668 -299.779265 
L 108.900668 -301.394268 
L 109.005668 -303.009271 
L 109.119666 -304.624273 
L 109.248499 -306.239276 
L 109.396378 -307.854279 
L 109.565604 -309.469282 
L 109.756505 -311.084285 
L 109.967566 -312.699287 
L 110.195739 -314.31429 
L 110.436863 -315.929293 
L 110.686151 -317.544296 
L 110.938669 -319.159298 
L 111.189756 -320.774301 
L 111.435344 -322.389304 
L 111.672155 -324.004307 
L 111.897773 -325.61931 
L 112.11061 -327.234312 
L 112.309791 -328.849315 
L 112.494985 -330.464318 
L 112.666231 -332.079321 
L 112.823786 -333.694323 
L 112.967992 -335.309326 
L 113.099209 -336.924329 
L 113.217779 -338.539332 
L 113.324036 -340.154334 
L 113.41833 -341.769337 
L 113.50107 -343.38434 
L 113.572758 -344.999343 
L 113.634012 -346.614346 
L 113.685572 -348.229348 
L 113.728287 -349.844351 
L 113.763092 -351.459354 
L 113.986908 -351.459354 
L 113.986908 -351.459354 
L 114.021713 -349.844351 
L 114.064428 -348.229348 
L 114.115988 -346.614346 
L 114.177242 -344.999343 
L 114.24893 -343.38434 
L 114.33167 -341.769337 
L 114.425964 -340.154334 
L 114.532221 -338.539332 
L 114.650791 -336.924329 
L 114.782008 -335.309326 
L 114.926214 -333.694323 
L 115.083769 -332.079321 
L 115.255015 -330.464318 
L 115.440209 -328.849315 
L 115.63939 -327.234312 
L 115.852227 -325.61931 
L 116.077845 -324.004307 
L 116.314656 -322.389304 
L 116.560244 -320.774301 
L 116.811331 -319.159298 
L 117.063849 -317.544296 
L 117.313137 -315.929293 
L 117.554261 -314.31429 
L 117.782434 -312.699287 
L 117.993495 -311.084285 
L 118.184396 -309.469282 
L 118.353622 -307.854279 
L 118.501501 -306.239276 
L 118.630334 -304.624273 
L 118.744332 -303.009271 
L 118.849332 -301.394268 
L 118.952332 -299.779265 
L 119.060866 -298.164262 
L 119.182297 -296.54926 
L 119.323086 -294.934257 
L 119.488121 -293.319254 
L 119.680164 -291.704251 
L 119.89948 -290.089248 
L 120.143675 -288.474246 
L 120.407761 -286.859243 
L 120.684446 -285.24424 
L 120.964617 -283.629237 
L 121.237978 -282.014235 
L 121.493801 -280.399232 
L 121.721719 -278.784229 
L 121.912513 -277.169226 
L 122.058844 -275.554223 
L 122.155864 -273.939221 
L 122.201705 -272.324218 
L 122.197796 -270.709215 
L 122.149019 -269.094212 
L 122.063716 -267.47921 
L 121.953551 -265.864207 
L 121.833275 -264.249204 
L 121.720405 -262.634201 
L 121.634855 -261.019199 
L 121.598524 -259.404196 
L 121.634862 -257.789193 
L 121.768389 -256.17419 
L 122.024143 -254.559187 
L 122.427042 -252.944185 
L 123.001086 -251.329182 
L 123.768383 -249.714179 
L 124.747963 -248.099176 
L 125.954352 -246.484174 
L 127.395956 -244.869171 
L 129.073302 -243.254168 
L 130.977258 -241.639165 
L 133.087393 -240.024162 
L 135.370695 -238.40916 
L 137.780874 -236.794157 
L 140.258482 -235.179154 
L 142.732061 -233.564151 
L 145.120423 -231.949149 
L 147.33609 -230.334146 
L 149.289772 -228.719143 
L 150.895602 -227.10414 
L 152.076749 -225.489137 
L 152.770887 -223.874135 
L 152.935 -222.259132 
L 152.548996 -220.644129 
L 151.617708 -219.029126 
L 150.171018 -217.414124 
L 148.262054 -215.799121 
L 145.963585 -214.184118 
L 143.362985 -212.569115 
L 140.556264 -210.954112 
L 137.641741 -209.33911 
L 134.713973 -207.724107 
L 131.858471 -206.109104 
L 129.147609 -204.494101 
L 126.637968 -202.879099 
L 124.369188 -201.264096 
L 122.364223 -199.649093 
L 120.630775 -198.03409 
L 119.163584 -196.419088 
L 117.947224 -194.804085 
L 116.959076 -193.189082 
L 116.172178 -191.574079 
z
" style="stroke: #3d3d3d; stroke-opacity: 0.5"/>
    </defs>
    <g clip-path="url(#p4d71b4cc3c)">
     <use xlink:href="#mb93781d95c" x="0" y="696.702001" style="fill: #d684bd; fill-opacity: 0.5; stroke: #3d3d3d; stroke-opacity: 0.5"/>
    </g>
   </g>
   <g id="PolyCollection_2">
    <defs>
     <path id="m0d018ce332" d="M 211.94904 -172.26556 
L 211.10096 -172.26556 
L 210.921498 -176.479613 
L 210.685252 -180.693666 
L 210.381799 -184.907719 
L 210.001128 -189.121771 
L 209.534224 -193.335824 
L 208.973548 -197.549877 
L 208.313314 -201.76393 
L 207.549509 -205.977983 
L 206.679645 -210.192036 
L 205.702319 -214.406089 
L 204.616697 -218.620142 
L 203.422094 -222.834195 
L 202.117803 -227.048248 
L 200.703302 -231.262301 
L 199.178878 -235.476354 
L 197.546611 -239.690407 
L 195.811566 -243.904459 
L 193.982991 -248.118512 
L 192.075248 -252.332565 
L 190.108286 -256.546618 
L 188.107488 -260.760671 
L 186.102848 -264.974724 
L 184.127565 -269.188777 
L 182.216244 -273.40283 
L 180.402974 -277.616883 
L 178.719614 -281.830936 
L 177.194531 -286.044989 
L 175.851972 -290.259042 
L 174.71206 -294.473094 
L 173.79126 -298.687147 
L 173.103015 -302.9012 
L 172.658187 -307.115253 
L 172.465 -311.329306 
L 172.528326 -315.543359 
L 172.84835 -319.757412 
L 173.418915 -323.971465 
L 174.225989 -328.185518 
L 175.246781 -332.399571 
L 176.449969 -336.613624 
L 177.797285 -340.827677 
L 179.246453 -345.04173 
L 180.75512 -349.255782 
L 182.285196 -353.469835 
L 183.806841 -357.683888 
L 185.301326 -361.897941 
L 186.762191 -366.111994 
L 188.19437 -370.326047 
L 189.611397 -374.5401 
L 191.031136 -378.754153 
L 192.470834 -382.968206 
L 193.942402 -387.182259 
L 195.448816 -391.396312 
L 196.982295 -395.610365 
L 198.524547 -399.824417 
L 200.048955 -404.03847 
L 201.524193 -408.252523 
L 202.918543 -412.466576 
L 204.204054 -416.680629 
L 205.359828 -420.894682 
L 206.373931 -425.108735 
L 207.24376 -429.322788 
L 207.974983 -433.536841 
L 208.579445 -437.750894 
L 209.072535 -441.964947 
L 209.470556 -446.179 
L 209.788513 -450.393053 
L 210.038612 -454.607105 
L 210.229572 -458.821158 
L 210.366683 -463.035211 
L 210.452468 -467.249264 
L 210.487703 -471.463317 
L 210.472588 -475.67737 
L 210.407866 -479.891423 
L 210.295756 -484.105476 
L 210.14061 -488.319529 
L 209.949265 -492.533582 
L 209.731071 -496.747635 
L 209.497627 -500.961688 
L 209.262246 -505.175741 
L 209.039192 -509.389793 
L 208.842743 -513.603846 
L 208.686155 -517.817899 
L 208.580602 -522.031952 
L 208.53423 -526.246005 
L 208.551398 -530.460058 
L 208.632253 -534.674111 
L 208.772692 -538.888164 
L 208.964746 -543.102217 
L 209.197369 -547.31627 
L 209.457519 -551.530323 
L 209.731419 -555.744376 
L 210.005797 -559.958428 
L 210.268981 -564.172481 
L 210.511692 -568.386534 
L 210.727485 -572.600587 
L 210.91281 -576.81464 
L 211.066764 -581.028693 
L 211.190603 -585.242746 
L 211.287135 -589.456799 
L 211.762865 -589.456799 
L 211.762865 -589.456799 
L 211.859397 -585.242746 
L 211.983236 -581.028693 
L 212.13719 -576.81464 
L 212.322515 -572.600587 
L 212.538308 -568.386534 
L 212.781019 -564.172481 
L 213.044203 -559.958428 
L 213.318581 -555.744376 
L 213.592481 -551.530323 
L 213.852631 -547.31627 
L 214.085254 -543.102217 
L 214.277308 -538.888164 
L 214.417747 -534.674111 
L 214.498602 -530.460058 
L 214.51577 -526.246005 
L 214.469398 -522.031952 
L 214.363845 -517.817899 
L 214.207257 -513.603846 
L 214.010808 -509.389793 
L 213.787754 -505.175741 
L 213.552373 -500.961688 
L 213.318929 -496.747635 
L 213.100735 -492.533582 
L 212.90939 -488.319529 
L 212.754244 -484.105476 
L 212.642134 -479.891423 
L 212.577412 -475.67737 
L 212.562297 -471.463317 
L 212.597532 -467.249264 
L 212.683317 -463.035211 
L 212.820428 -458.821158 
L 213.011388 -454.607105 
L 213.261487 -450.393053 
L 213.579444 -446.179 
L 213.977465 -441.964947 
L 214.470555 -437.750894 
L 215.075017 -433.536841 
L 215.80624 -429.322788 
L 216.676069 -425.108735 
L 217.690172 -420.894682 
L 218.845946 -416.680629 
L 220.131457 -412.466576 
L 221.525807 -408.252523 
L 223.001045 -404.03847 
L 224.525453 -399.824417 
L 226.067705 -395.610365 
L 227.601184 -391.396312 
L 229.107598 -387.182259 
L 230.579166 -382.968206 
L 232.018864 -378.754153 
L 233.438603 -374.5401 
L 234.85563 -370.326047 
L 236.287809 -366.111994 
L 237.748674 -361.897941 
L 239.243159 -357.683888 
L 240.764804 -353.469835 
L 242.29488 -349.255782 
L 243.803547 -345.04173 
L 245.252715 -340.827677 
L 246.600031 -336.613624 
L 247.803219 -332.399571 
L 248.824011 -328.185518 
L 249.631085 -323.971465 
L 250.20165 -319.757412 
L 250.521674 -315.543359 
L 250.585 -311.329306 
L 250.391813 -307.115253 
L 249.946985 -302.9012 
L 249.25874 -298.687147 
L 248.33794 -294.473094 
L 247.198028 -290.259042 
L 245.855469 -286.044989 
L 244.330386 -281.830936 
L 242.647026 -277.616883 
L 240.833756 -273.40283 
L 238.922435 -269.188777 
L 236.947152 -264.974724 
L 234.942512 -260.760671 
L 232.941714 -256.546618 
L 230.974752 -252.332565 
L 229.067009 -248.118512 
L 227.238434 -243.904459 
L 225.503389 -239.690407 
L 223.871122 -235.476354 
L 222.346698 -231.262301 
L 220.932197 -227.048248 
L 219.627906 -222.834195 
L 218.433303 -218.620142 
L 217.347681 -214.406089 
L 216.370355 -210.192036 
L 215.500491 -205.977983 
L 214.736686 -201.76393 
L 214.076452 -197.549877 
L 213.515776 -193.335824 
L 213.048872 -189.121771 
L 212.668201 -184.907719 
L 212.364748 -180.693666 
L 212.128502 -176.479613 
L 211.94904 -172.26556 
z
" style="stroke: #3d3d3d; stroke-opacity: 0.5"/>
    </defs>
    <g clip-path="url(#p4d71b4cc3c)">
     <use xlink:href="#m0d018ce332" x="0" y="696.702001" style="fill: #7f7f7f; fill-opacity: 0.5; stroke: #3d3d3d; stroke-opacity: 0.5"/>
    </g>
   </g>
   <g id="PolyCollection_3">
    <defs>
     <path id="mba2629732c" d="M 309.349211 -221.774485 
L 309.000789 -221.774485 
L 308.933656 -221.796216 
L 308.850184 -221.817947 
L 308.750291 -221.839678 
L 308.635471 -221.861408 
L 308.509061 -221.883139 
L 308.37628 -221.90487 
L 308.243968 -221.9266 
L 308.119993 -221.948331 
L 308.012367 -221.970062 
L 307.928174 -221.991793 
L 307.872471 -222.013523 
L 307.847345 -222.035254 
L 307.851304 -222.056985 
L 307.879113 -222.078716 
L 307.922121 -222.100446 
L 307.969026 -222.122177 
L 308.006937 -222.143908 
L 308.02256 -222.165639 
L 308.003308 -222.187369 
L 307.938172 -222.2091 
L 307.818244 -222.230831 
L 307.636874 -222.252562 
L 307.389494 -222.274292 
L 307.073252 -222.296023 
L 306.68656 -222.317754 
L 306.228718 -222.339484 
L 305.699697 -222.361215 
L 305.1001 -222.382946 
L 304.43128 -222.404677 
L 303.695508 -222.426407 
L 302.896101 -222.448138 
L 302.03742 -222.469869 
L 301.124713 -222.4916 
L 300.163824 -222.51333 
L 299.160834 -222.535061 
L 298.121709 -222.556792 
L 297.051976 -222.578523 
L 295.956417 -222.600253 
L 294.838734 -222.621984 
L 293.70114 -222.643715 
L 292.543895 -222.665445 
L 291.364908 -222.687176 
L 290.159614 -222.708907 
L 288.921357 -222.730638 
L 287.642476 -222.752368 
L 286.316091 -222.774099 
L 284.938422 -222.79583 
L 283.511202 -222.817561 
L 282.043637 -222.839291 
L 280.553375 -222.861022 
L 279.066077 -222.882753 
L 277.613501 -222.904484 
L 276.23033 -222.926214 
L 274.950284 -222.947945 
L 273.802243 -222.969676 
L 272.807138 -222.991406 
L 271.976194 -223.013137 
L 271.310865 -223.034868 
L 270.80443 -223.056599 
L 270.444938 -223.078329 
L 270.218894 -223.10006 
L 270.115 -223.121791 
L 270.127251 -223.143522 
L 270.25684 -223.165252 
L 270.512547 -223.186983 
L 270.909588 -223.208714 
L 271.467143 -223.230445 
L 272.205029 -223.252175 
L 273.140071 -223.273906 
L 274.282761 -223.295637 
L 275.634692 -223.317367 
L 277.187076 -223.339098 
L 278.920496 -223.360829 
L 280.80583 -223.38256 
L 282.806148 -223.40429 
L 284.879315 -223.426021 
L 286.980967 -223.447752 
L 289.067557 -223.469483 
L 291.099178 -223.491213 
L 293.041917 -223.512944 
L 294.869538 -223.534675 
L 296.564359 -223.556406 
L 298.117267 -223.578136 
L 299.526897 -223.599867 
L 300.798131 -223.621598 
L 301.940141 -223.643329 
L 302.964295 -223.665059 
L 303.88223 -223.68679 
L 304.704378 -223.708521 
L 305.439108 -223.730251 
L 306.092525 -223.751982 
L 306.66883 -223.773713 
L 307.171066 -223.795444 
L 307.601975 -223.817174 
L 307.96479 -223.838905 
L 308.263747 -223.860636 
L 308.504289 -223.882367 
L 308.692947 -223.904097 
L 308.836986 -223.925828 
L 309.513014 -223.925828 
L 309.513014 -223.925828 
L 309.657053 -223.904097 
L 309.845711 -223.882367 
L 310.086253 -223.860636 
L 310.38521 -223.838905 
L 310.748025 -223.817174 
L 311.178934 -223.795444 
L 311.68117 -223.773713 
L 312.257475 -223.751982 
L 312.910892 -223.730251 
L 313.645622 -223.708521 
L 314.46777 -223.68679 
L 315.385705 -223.665059 
L 316.409859 -223.643329 
L 317.551869 -223.621598 
L 318.823103 -223.599867 
L 320.232733 -223.578136 
L 321.785641 -223.556406 
L 323.480462 -223.534675 
L 325.308083 -223.512944 
L 327.250822 -223.491213 
L 329.282443 -223.469483 
L 331.369033 -223.447752 
L 333.470685 -223.426021 
L 335.543852 -223.40429 
L 337.54417 -223.38256 
L 339.429504 -223.360829 
L 341.162924 -223.339098 
L 342.715308 -223.317367 
L 344.067239 -223.295637 
L 345.209929 -223.273906 
L 346.144971 -223.252175 
L 346.882857 -223.230445 
L 347.440412 -223.208714 
L 347.837453 -223.186983 
L 348.09316 -223.165252 
L 348.222749 -223.143522 
L 348.235 -223.121791 
L 348.131106 -223.10006 
L 347.905062 -223.078329 
L 347.54557 -223.056599 
L 347.039135 -223.034868 
L 346.373806 -223.013137 
L 345.542862 -222.991406 
L 344.547757 -222.969676 
L 343.399716 -222.947945 
L 342.11967 -222.926214 
L 340.736499 -222.904484 
L 339.283923 -222.882753 
L 337.796625 -222.861022 
L 336.306363 -222.839291 
L 334.838798 -222.817561 
L 333.411578 -222.79583 
L 332.033909 -222.774099 
L 330.707524 -222.752368 
L 329.428643 -222.730638 
L 328.190386 -222.708907 
L 326.985092 -222.687176 
L 325.806105 -222.665445 
L 324.64886 -222.643715 
L 323.511266 -222.621984 
L 322.393583 -222.600253 
L 321.298024 -222.578523 
L 320.228291 -222.556792 
L 319.189166 -222.535061 
L 318.186176 -222.51333 
L 317.225287 -222.4916 
L 316.31258 -222.469869 
L 315.453899 -222.448138 
L 314.654492 -222.426407 
L 313.91872 -222.404677 
L 313.2499 -222.382946 
L 312.650303 -222.361215 
L 312.121282 -222.339484 
L 311.66344 -222.317754 
L 311.276748 -222.296023 
L 310.960506 -222.274292 
L 310.713126 -222.252562 
L 310.531756 -222.230831 
L 310.411828 -222.2091 
L 310.346692 -222.187369 
L 310.32744 -222.165639 
L 310.343063 -222.143908 
L 310.380974 -222.122177 
L 310.427879 -222.100446 
L 310.470887 -222.078716 
L 310.498696 -222.056985 
L 310.502655 -222.035254 
L 310.477529 -222.013523 
L 310.421826 -221.991793 
L 310.337633 -221.970062 
L 310.230007 -221.948331 
L 310.106032 -221.9266 
L 309.97372 -221.90487 
L 309.840939 -221.883139 
L 309.714529 -221.861408 
L 309.599709 -221.839678 
L 309.499816 -221.817947 
L 309.416344 -221.796216 
L 309.349211 -221.774485 
z
" style="stroke: #3d3d3d; stroke-opacity: 0.5"/>
    </defs>
    <g clip-path="url(#p4d71b4cc3c)">
     <use xlink:href="#mba2629732c" x="0" y="696.702001" style="fill: #9372b2; fill-opacity: 0.5; stroke: #3d3d3d; stroke-opacity: 0.5"/>
    </g>
   </g>
   <g id="PolyCollection_4">
    <defs>
     <path id="m88360f7f73" d="M 409.199619 -194.071309 
L 404.450381 -194.071309 
L 402.792858 -196.786097 
L 400.352309 -199.500885 
L 396.999873 -202.215672 
L 392.718999 -204.93046 
L 387.66468 -207.645248 
L 382.194714 -210.360036 
L 376.850307 -213.074824 
L 372.276596 -215.789612 
L 369.095523 -218.504399 
L 367.765 -221.219187 
L 368.468677 -223.933975 
L 371.073244 -226.648763 
L 375.167072 -229.363551 
L 380.165248 -232.078339 
L 385.444481 -234.793127 
L 390.465783 -237.507914 
L 394.853453 -240.222702 
L 398.418898 -242.93749 
L 401.137358 -245.652278 
L 403.097329 -248.367066 
L 404.444253 -251.081854 
L 405.334264 -253.796641 
L 405.905067 -256.511429 
L 406.263477 -259.226217 
L 406.484809 -261.941005 
L 406.618405 -264.655793 
L 406.694773 -267.370581 
L 406.731842 -270.085369 
L 406.739558 -272.800156 
L 406.723104 -275.514944 
L 406.685312 -278.229732 
L 406.628694 -280.94452 
L 406.557161 -283.659308 
L 406.477163 -286.374096 
L 406.397852 -289.088883 
L 406.33006 -291.803671 
L 406.284248 -294.518459 
L 406.268047 -297.233247 
L 406.284267 -299.948035 
L 406.330142 -302.662823 
L 406.398118 -305.37761 
L 406.477892 -308.092398 
L 406.558958 -310.807186 
L 406.632796 -313.521974 
L 406.69411 -316.236762 
L 406.740981 -318.95155 
L 406.774164 -321.666338 
L 406.796006 -324.381125 
L 406.809413 -327.095913 
L 406.817102 -329.810701 
L 406.821227 -332.525489 
L 406.823301 -335.240277 
L 406.824279 -337.955065 
L 406.824712 -340.669852 
L 406.824891 -343.38464 
L 406.824961 -346.099428 
L 406.824987 -348.814216 
L 406.824996 -351.529004 
L 406.824999 -354.243792 
L 406.825 -356.95858 
L 406.825 -359.673367 
L 406.825 -362.388155 
L 406.825 -365.102943 
L 406.825 -367.817731 
L 406.825 -370.532519 
L 406.825 -373.247307 
L 406.825 -375.962094 
L 406.825 -378.676882 
L 406.825 -381.39167 
L 406.824998 -384.106458 
L 406.824995 -386.821246 
L 406.824983 -389.536034 
L 406.824951 -392.250821 
L 406.824864 -394.965609 
L 406.824643 -397.680397 
L 406.824121 -400.395185 
L 406.822955 -403.109973 
L 406.820519 -405.824761 
L 406.815743 -408.539549 
L 406.806975 -411.254336 
L 406.791915 -413.969124 
L 406.76776 -416.683912 
L 406.731652 -419.3987 
L 406.681505 -422.113488 
L 406.61708 -424.828276 
L 406.541023 -427.543063 
L 406.459405 -430.257851 
L 406.381345 -432.972639 
L 406.31752 -435.687427 
L 406.277831 -438.402215 
L 406.268902 -441.117003 
L 406.292266 -443.831791 
L 406.343942 -446.546578 
L 406.415538 -449.261366 
L 406.496483 -451.976154 
L 406.576555 -454.690942 
L 406.647895 -457.40573 
L 406.705996 -460.120518 
L 406.749626 -462.835305 
L 406.900374 -462.835305 
L 406.900374 -462.835305 
L 406.944004 -460.120518 
L 407.002105 -457.40573 
L 407.073445 -454.690942 
L 407.153517 -451.976154 
L 407.234462 -449.261366 
L 407.306058 -446.546578 
L 407.357734 -443.831791 
L 407.381098 -441.117003 
L 407.372169 -438.402215 
L 407.33248 -435.687427 
L 407.268655 -432.972639 
L 407.190595 -430.257851 
L 407.108977 -427.543063 
L 407.03292 -424.828276 
L 406.968495 -422.113488 
L 406.918348 -419.3987 
L 406.88224 -416.683912 
L 406.858085 -413.969124 
L 406.843025 -411.254336 
L 406.834257 -408.539549 
L 406.829481 -405.824761 
L 406.827045 -403.109973 
L 406.825879 -400.395185 
L 406.825357 -397.680397 
L 406.825136 -394.965609 
L 406.825049 -392.250821 
L 406.825017 -389.536034 
L 406.825005 -386.821246 
L 406.825002 -384.106458 
L 406.825 -381.39167 
L 406.825 -378.676882 
L 406.825 -375.962094 
L 406.825 -373.247307 
L 406.825 -370.532519 
L 406.825 -367.817731 
L 406.825 -365.102943 
L 406.825 -362.388155 
L 406.825 -359.673367 
L 406.825 -356.95858 
L 406.825001 -354.243792 
L 406.825004 -351.529004 
L 406.825013 -348.814216 
L 406.825039 -346.099428 
L 406.825109 -343.38464 
L 406.825288 -340.669852 
L 406.825721 -337.955065 
L 406.826699 -335.240277 
L 406.828773 -332.525489 
L 406.832898 -329.810701 
L 406.840587 -327.095913 
L 406.853994 -324.381125 
L 406.875836 -321.666338 
L 406.909019 -318.95155 
L 406.95589 -316.236762 
L 407.017204 -313.521974 
L 407.091042 -310.807186 
L 407.172108 -308.092398 
L 407.251882 -305.37761 
L 407.319858 -302.662823 
L 407.365733 -299.948035 
L 407.381953 -297.233247 
L 407.365752 -294.518459 
L 407.31994 -291.803671 
L 407.252148 -289.088883 
L 407.172837 -286.374096 
L 407.092839 -283.659308 
L 407.021306 -280.94452 
L 406.964688 -278.229732 
L 406.926896 -275.514944 
L 406.910442 -272.800156 
L 406.918158 -270.085369 
L 406.955227 -267.370581 
L 407.031595 -264.655793 
L 407.165191 -261.941005 
L 407.386523 -259.226217 
L 407.744933 -256.511429 
L 408.315736 -253.796641 
L 409.205747 -251.081854 
L 410.552671 -248.367066 
L 412.512642 -245.652278 
L 415.231102 -242.93749 
L 418.796547 -240.222702 
L 423.184217 -237.507914 
L 428.205519 -234.793127 
L 433.484752 -232.078339 
L 438.482928 -229.363551 
L 442.576756 -226.648763 
L 445.181323 -223.933975 
L 445.885 -221.219187 
L 444.554477 -218.504399 
L 441.373404 -215.789612 
L 436.799693 -213.074824 
L 431.455286 -210.360036 
L 425.98532 -207.645248 
L 420.931001 -204.93046 
L 416.650127 -202.215672 
L 413.297691 -199.500885 
L 410.857142 -196.786097 
L 409.199619 -194.071309 
z
" style="stroke: #3d3d3d; stroke-opacity: 0.5"/>
    </defs>
    <g clip-path="url(#p4d71b4cc3c)">
     <use xlink:href="#m88360f7f73" x="0" y="696.702001" style="fill: #845b53; fill-opacity: 0.5; stroke: #3d3d3d; stroke-opacity: 0.5"/>
    </g>
   </g>
   <g id="PolyCollection_5">
    <defs>
     <path id="mf406313a24" d="M 505.317594 -215.723128 
L 503.632406 -215.723128 
L 503.11322 -219.443447 
L 502.350512 -223.163766 
L 501.274312 -226.884085 
L 499.816093 -230.604403 
L 497.919336 -234.324722 
L 495.551902 -238.045041 
L 492.718088 -241.76536 
L 489.46766 -245.485679 
L 485.899251 -249.205998 
L 482.156345 -252.926317 
L 478.415601 -256.646636 
L 474.869063 -260.366955 
L 471.703362 -264.087274 
L 469.079735 -267.807593 
L 467.118497 -271.527912 
L 465.890328 -275.248231 
L 465.415 -278.96855 
L 465.666427 -282.688869 
L 466.581678 -286.409188 
L 468.071308 -290.129507 
L 470.028852 -293.849826 
L 472.338459 -297.570145 
L 474.880807 -301.290464 
L 477.538263 -305.010783 
L 480.200382 -308.731102 
L 482.770275 -312.451421 
L 485.171402 -316.17174 
L 487.35346 -319.892059 
L 489.295568 -323.612378 
L 491.005319 -327.332697 
L 492.51321 -331.053016 
L 493.863316 -334.773335 
L 495.102193 -338.493654 
L 496.268589 -342.213973 
L 497.386258 -345.934292 
L 498.461252 -349.65461 
L 499.483757 -353.374929 
L 500.433362 -357.095248 
L 501.285891 -360.815567 
L 502.019908 -364.535886 
L 502.621429 -368.256205 
L 503.086222 -371.976524 
L 503.419814 -375.696843 
L 503.635882 -379.417162 
L 503.753842 -383.137481 
L 503.79632 -386.8578 
L 503.786901 -390.578119 
L 503.748246 -394.298438 
L 503.700517 -398.018757 
L 503.660043 -401.739076 
L 503.638246 -405.459395 
L 503.640952 -409.179714 
L 503.668288 -412.900033 
L 503.715269 -416.620352 
L 503.773084 -420.340671 
L 503.83092 -424.06099 
L 503.878033 -427.781309 
L 503.905729 -431.501628 
L 503.908923 -435.221947 
L 503.887045 -438.942266 
L 503.844155 -442.662585 
L 503.78825 -446.382904 
L 503.729896 -450.103223 
L 503.680399 -453.823542 
L 503.64986 -457.543861 
L 503.64548 -461.26418 
L 503.670444 -464.984499 
L 503.723606 -468.704817 
L 503.799993 -472.425136 
L 503.891967 -476.145455 
L 503.990721 -479.865774 
L 504.087734 -483.586093 
L 504.175881 -487.306412 
L 504.250005 -491.026731 
L 504.306939 -494.74705 
L 504.345111 -498.467369 
L 504.363953 -502.187688 
L 504.363344 -505.908007 
L 504.343289 -509.628326 
L 504.303925 -513.348645 
L 504.245872 -517.068964 
L 504.170797 -520.789283 
L 504.082012 -524.509602 
L 503.98486 -528.229921 
L 503.886684 -531.95024 
L 503.796258 -535.670559 
L 503.722706 -539.390878 
L 503.674108 -543.111197 
L 503.656098 -546.831516 
L 503.670831 -550.551835 
L 503.71657 -554.272154 
L 503.788036 -557.992473 
L 503.87741 -561.712792 
L 503.975746 -565.433111 
L 504.07442 -569.15343 
L 504.166321 -572.873749 
L 504.246559 -576.594068 
L 504.312636 -580.314387 
L 504.36417 -584.034706 
L 504.58583 -584.034706 
L 504.58583 -584.034706 
L 504.637364 -580.314387 
L 504.703441 -576.594068 
L 504.783679 -572.873749 
L 504.87558 -569.15343 
L 504.974254 -565.433111 
L 505.07259 -561.712792 
L 505.161964 -557.992473 
L 505.23343 -554.272154 
L 505.279169 -550.551835 
L 505.293902 -546.831516 
L 505.275892 -543.111197 
L 505.227294 -539.390878 
L 505.153742 -535.670559 
L 505.063316 -531.95024 
L 504.96514 -528.229921 
L 504.867988 -524.509602 
L 504.779203 -520.789283 
L 504.704128 -517.068964 
L 504.646075 -513.348645 
L 504.606711 -509.628326 
L 504.586656 -505.908007 
L 504.586047 -502.187688 
L 504.604889 -498.467369 
L 504.643061 -494.74705 
L 504.699995 -491.026731 
L 504.774119 -487.306412 
L 504.862266 -483.586093 
L 504.959279 -479.865774 
L 505.058033 -476.145455 
L 505.150007 -472.425136 
L 505.226394 -468.704817 
L 505.279556 -464.984499 
L 505.30452 -461.26418 
L 505.30014 -457.543861 
L 505.269601 -453.823542 
L 505.220104 -450.103223 
L 505.16175 -446.382904 
L 505.105845 -442.662585 
L 505.062955 -438.942266 
L 505.041077 -435.221947 
L 505.044271 -431.501628 
L 505.071967 -427.781309 
L 505.11908 -424.06099 
L 505.176916 -420.340671 
L 505.234731 -416.620352 
L 505.281712 -412.900033 
L 505.309048 -409.179714 
L 505.311754 -405.459395 
L 505.289957 -401.739076 
L 505.249483 -398.018757 
L 505.201754 -394.298438 
L 505.163099 -390.578119 
L 505.15368 -386.8578 
L 505.196158 -383.137481 
L 505.314118 -379.417162 
L 505.530186 -375.696843 
L 505.863778 -371.976524 
L 506.328571 -368.256205 
L 506.930092 -364.535886 
L 507.664109 -360.815567 
L 508.516638 -357.095248 
L 509.466243 -353.374929 
L 510.488748 -349.65461 
L 511.563742 -345.934292 
L 512.681411 -342.213973 
L 513.847807 -338.493654 
L 515.086684 -334.773335 
L 516.43679 -331.053016 
L 517.944681 -327.332697 
L 519.654432 -323.612378 
L 521.59654 -319.892059 
L 523.778598 -316.17174 
L 526.179725 -312.451421 
L 528.749618 -308.731102 
L 531.411737 -305.010783 
L 534.069193 -301.290464 
L 536.611541 -297.570145 
L 538.921148 -293.849826 
L 540.878692 -290.129507 
L 542.368322 -286.409188 
L 543.283573 -282.688869 
L 543.535 -278.96855 
L 543.059672 -275.248231 
L 541.831503 -271.527912 
L 539.870265 -267.807593 
L 537.246638 -264.087274 
L 534.080937 -260.366955 
L 530.534399 -256.646636 
L 526.793655 -252.926317 
L 523.050749 -249.205998 
L 519.48234 -245.485679 
L 516.231912 -241.76536 
L 513.398098 -238.045041 
L 511.030664 -234.324722 
L 509.133907 -230.604403 
L 507.675688 -226.884085 
L 506.599488 -223.163766 
L 505.83678 -219.443447 
L 505.317594 -215.723128 
z
" style="stroke: #3d3d3d; stroke-opacity: 0.5"/>
    </defs>
    <g clip-path="url(#p4d71b4cc3c)">
     <use xlink:href="#mf406313a24" x="0" y="696.702001" style="fill: #3274a1; fill-opacity: 0.5; stroke: #3d3d3d; stroke-opacity: 0.5"/>
    </g>
   </g>
   <g id="PolyCollection_6">
    <defs>
     <path id="m1808d68afa" d="M 603.101095 -160.302001 
L 601.148905 -160.302001 
L 600.719304 -165.39291 
L 600.147341 -170.48382 
L 599.405777 -175.574729 
L 598.469314 -180.665638 
L 597.317191 -185.756547 
L 595.935817 -190.847456 
L 594.321086 -195.938365 
L 592.479956 -201.029274 
L 590.431017 -206.120183 
L 588.203855 -211.211092 
L 585.837299 -216.302001 
L 583.376812 -221.39291 
L 580.871498 -226.48382 
L 578.371245 -231.574729 
L 575.924511 -236.665638 
L 573.577039 -241.756547 
L 571.37158 -246.847456 
L 569.348361 -251.938365 
L 567.545874 -257.029274 
L 566.001402 -262.120183 
L 564.750793 -267.211092 
L 563.827173 -272.302001 
L 563.258604 -277.39291 
L 563.065 -282.48382 
L 563.254888 -287.574729 
L 563.82271 -292.665638 
L 564.747325 -297.756547 
L 565.992162 -302.847456 
L 567.507166 -307.938365 
L 569.232332 -313.029274 
L 571.102332 -318.120183 
L 573.051541 -323.211092 
L 575.018757 -328.302001 
L 576.950963 -333.39291 
L 578.805743 -338.48382 
L 580.552181 -343.574729 
L 582.170357 -348.665638 
L 583.649763 -353.756547 
L 584.987081 -358.847456 
L 586.183822 -363.938365 
L 587.244242 -369.029274 
L 588.173867 -374.120183 
L 588.978769 -379.211092 
L 589.665568 -384.302001 
L 590.241991 -389.39291 
L 590.717715 -394.48382 
L 591.105149 -399.574729 
L 591.419883 -404.665638 
L 591.680574 -409.756547 
L 591.908194 -414.847456 
L 592.124695 -419.938365 
L 592.351272 -425.029274 
L 592.606514 -430.120183 
L 592.904745 -435.211092 
L 593.254837 -440.302001 
L 593.659704 -445.39291 
L 594.116535 -450.48382 
L 594.617725 -455.574729 
L 595.152297 -460.665638 
L 595.707564 -465.756547 
L 596.270735 -470.847456 
L 596.830214 -475.938365 
L 597.376419 -481.029274 
L 597.90208 -486.120183 
L 598.402065 -491.211092 
L 598.872896 -496.302001 
L 599.312122 -501.39291 
L 599.717742 -506.48382 
L 600.087802 -511.574729 
L 600.420225 -516.665638 
L 600.712856 -521.756547 
L 600.963682 -526.847456 
L 601.171134 -531.938365 
L 601.33439 -537.029274 
L 601.453642 -542.120183 
L 601.530285 -547.211092 
L 601.567033 -552.302001 
L 601.56796 -557.39291 
L 601.538472 -562.48382 
L 601.48519 -567.574729 
L 601.415738 -572.665638 
L 601.338403 -577.756547 
L 601.261676 -582.847456 
L 601.193683 -587.938365 
L 601.141564 -593.029274 
L 601.110884 -598.120183 
L 601.105158 -603.211092 
L 601.125579 -608.302001 
L 601.171006 -613.39291 
L 601.238213 -618.48382 
L 601.322382 -623.574729 
L 601.417736 -628.665638 
L 601.518238 -633.756547 
L 601.618233 -638.847456 
L 601.712954 -643.938365 
L 601.798843 -649.029274 
L 601.873667 -654.120183 
L 601.936456 -659.211092 
L 601.987306 -664.302001 
L 602.262694 -664.302001 
L 602.262694 -664.302001 
L 602.313544 -659.211092 
L 602.376333 -654.120183 
L 602.451157 -649.029274 
L 602.537046 -643.938365 
L 602.631767 -638.847456 
L 602.731762 -633.756547 
L 602.832264 -628.665638 
L 602.927618 -623.574729 
L 603.011787 -618.48382 
L 603.078994 -613.39291 
L 603.124421 -608.302001 
L 603.144842 -603.211092 
L 603.139116 -598.120183 
L 603.108436 -593.029274 
L 603.056317 -587.938365 
L 602.988324 -582.847456 
L 602.911597 -577.756547 
L 602.834262 -572.665638 
L 602.76481 -567.574729 
L 602.711528 -562.48382 
L 602.68204 -557.39291 
L 602.682967 -552.302001 
L 602.719715 -547.211092 
L 602.796358 -542.120183 
L 602.91561 -537.029274 
L 603.078866 -531.938365 
L 603.286318 -526.847456 
L 603.537144 -521.756547 
L 603.829775 -516.665638 
L 604.162198 -511.574729 
L 604.532258 -506.48382 
L 604.937878 -501.39291 
L 605.377104 -496.302001 
L 605.847935 -491.211092 
L 606.34792 -486.120183 
L 606.873581 -481.029274 
L 607.419786 -475.938365 
L 607.979265 -470.847456 
L 608.542436 -465.756547 
L 609.097703 -460.665638 
L 609.632275 -455.574729 
L 610.133465 -450.48382 
L 610.590296 -445.39291 
L 610.995163 -440.302001 
L 611.345255 -435.211092 
L 611.643486 -430.120183 
L 611.898728 -425.029274 
L 612.125305 -419.938365 
L 612.341806 -414.847456 
L 612.569426 -409.756547 
L 612.830117 -404.665638 
L 613.144851 -399.574729 
L 613.532285 -394.48382 
L 614.008009 -389.39291 
L 614.584432 -384.302001 
L 615.271231 -379.211092 
L 616.076133 -374.120183 
L 617.005758 -369.029274 
L 618.066178 -363.938365 
L 619.262919 -358.847456 
L 620.600237 -353.756547 
L 622.079643 -348.665638 
L 623.697819 -343.574729 
L 625.444257 -338.48382 
L 627.299037 -333.39291 
L 629.231243 -328.302001 
L 631.198459 -323.211092 
L 633.147668 -318.120183 
L 635.017668 -313.029274 
L 636.742834 -307.938365 
L 638.257838 -302.847456 
L 639.502675 -297.756547 
L 640.42729 -292.665638 
L 640.995112 -287.574729 
L 641.185 -282.48382 
L 640.991396 -277.39291 
L 640.422827 -272.302001 
L 639.499207 -267.211092 
L 638.248598 -262.120183 
L 636.704126 -257.029274 
L 634.901639 -251.938365 
L 632.87842 -246.847456 
L 630.672961 -241.756547 
L 628.325489 -236.665638 
L 625.878755 -231.574729 
L 623.378502 -226.48382 
L 620.873188 -221.39291 
L 618.412701 -216.302001 
L 616.046145 -211.211092 
L 613.818983 -206.120183 
L 611.770044 -201.029274 
L 609.928914 -195.938365 
L 608.314183 -190.847456 
L 606.932809 -185.756547 
L 605.780686 -180.665638 
L 604.844223 -175.574729 
L 604.102659 -170.48382 
L 603.530696 -165.39291 
L 603.101095 -160.302001 
z
" style="stroke: #3d3d3d; stroke-opacity: 0.5"/>
    </defs>
    <g clip-path="url(#p4d71b4cc3c)">
     <use xlink:href="#m1808d68afa" x="0" y="696.702001" style="fill: #e1812c; fill-opacity: 0.5; stroke: #3d3d3d; stroke-opacity: 0.5"/>
    </g>
   </g>
   <g id="PolyCollection_7">
    <defs>
     <path id="mce58c3ee71" d="M 700.905036 -207.060795 
L 698.644964 -207.060795 
L 697.840983 -210.763068 
L 696.61897 -214.46534 
L 694.86131 -218.167612 
L 692.470711 -221.869884 
L 689.399193 -225.572157 
L 685.676659 -229.274429 
L 681.430388 -232.976701 
L 676.887292 -236.678973 
L 672.354551 -240.381246 
L 668.180432 -244.083518 
L 664.703375 -247.78579 
L 662.201212 -251.488062 
L 660.852129 -255.190334 
L 660.715 -258.892607 
L 661.731006 -262.594879 
L 663.743245 -266.297151 
L 666.52797 -269.999423 
L 669.830202 -273.701696 
L 673.39723 -277.403968 
L 677.004995 -281.10624 
L 680.4744 -284.808512 
L 683.676942 -288.510785 
L 686.531532 -292.213057 
L 688.996181 -295.915329 
L 691.058658 -299.617601 
L 692.729108 -303.319874 
L 694.035488 -307.022146 
L 695.020703 -310.724418 
L 695.739437 -314.42669 
L 696.253257 -318.128963 
L 696.623943 -321.831235 
L 696.906443 -325.533507 
L 697.143446 -329.235779 
L 697.363066 -332.938051 
L 697.579963 -336.640324 
L 697.79891 -340.342596 
L 698.019153 -344.044868 
L 698.237941 -347.74714 
L 698.452412 -351.449413 
L 698.659917 -355.151685 
L 698.857534 -358.853957 
L 699.04164 -362.556229 
L 699.208079 -366.258502 
L 699.352924 -369.960774 
L 699.473452 -373.663046 
L 699.568875 -377.365318 
L 699.64051 -381.067591 
L 699.691391 -384.769863 
L 699.725545 -388.472135 
L 699.747195 -392.174407 
L 699.760152 -395.87668 
L 699.767474 -399.578952 
L 699.77138 -403.281224 
L 699.773349 -406.983496 
L 699.774286 -410.685768 
L 699.774707 -414.388041 
L 699.774886 -418.090313 
L 699.774958 -421.792585 
L 699.774985 -425.494857 
L 699.774995 -429.19713 
L 699.774998 -432.899402 
L 699.775 -436.601674 
L 699.775 -440.303946 
L 699.775 -444.006219 
L 699.775 -447.708491 
L 699.775 -451.410763 
L 699.775 -455.113035 
L 699.774999 -458.815308 
L 699.774997 -462.51758 
L 699.774989 -466.219852 
L 699.774969 -469.922124 
L 699.774915 -473.624397 
L 699.774779 -477.326669 
L 699.774452 -481.028941 
L 699.773716 -484.731213 
L 699.772146 -488.433485 
L 699.768991 -492.135758 
L 699.763008 -495.83803 
L 699.752319 -499.540302 
L 699.734347 -503.242574 
L 699.705941 -506.944847 
L 699.663821 -510.647119 
L 699.605367 -514.349391 
L 699.52971 -518.051663 
L 699.438853 -521.753936 
L 699.338423 -525.456208 
L 699.237629 -529.15848 
L 699.148142 -532.860752 
L 699.08198 -536.563025 
L 699.048888 -540.265297 
L 699.053986 -543.967569 
L 699.096476 -547.669841 
L 699.169843 -551.372113 
L 699.263492 -555.074386 
L 699.36525 -558.776658 
L 699.463924 -562.47893 
L 699.551181 -566.181202 
L 699.622381 -569.883475 
L 699.676372 -573.585747 
L 699.873628 -573.585747 
L 699.873628 -573.585747 
L 699.927619 -569.883475 
L 699.998819 -566.181202 
L 700.086076 -562.47893 
L 700.18475 -558.776658 
L 700.286508 -555.074386 
L 700.380157 -551.372113 
L 700.453524 -547.669841 
L 700.496014 -543.967569 
L 700.501112 -540.265297 
L 700.46802 -536.563025 
L 700.401858 -532.860752 
L 700.312371 -529.15848 
L 700.211577 -525.456208 
L 700.111147 -521.753936 
L 700.02029 -518.051663 
L 699.944633 -514.349391 
L 699.886179 -510.647119 
L 699.844059 -506.944847 
L 699.815653 -503.242574 
L 699.797681 -499.540302 
L 699.786992 -495.83803 
L 699.781009 -492.135758 
L 699.777854 -488.433485 
L 699.776284 -484.731213 
L 699.775548 -481.028941 
L 699.775221 -477.326669 
L 699.775085 -473.624397 
L 699.775031 -469.922124 
L 699.775011 -466.219852 
L 699.775003 -462.51758 
L 699.775001 -458.815308 
L 699.775 -455.113035 
L 699.775 -451.410763 
L 699.775 -447.708491 
L 699.775 -444.006219 
L 699.775 -440.303946 
L 699.775 -436.601674 
L 699.775002 -432.899402 
L 699.775005 -429.19713 
L 699.775015 -425.494857 
L 699.775042 -421.792585 
L 699.775114 -418.090313 
L 699.775293 -414.388041 
L 699.775714 -410.685768 
L 699.776651 -406.983496 
L 699.77862 -403.281224 
L 699.782526 -399.578952 
L 699.789848 -395.87668 
L 699.802805 -392.174407 
L 699.824455 -388.472135 
L 699.858609 -384.769863 
L 699.90949 -381.067591 
L 699.981125 -377.365318 
L 700.076548 -373.663046 
L 700.197076 -369.960774 
L 700.341921 -366.258502 
L 700.50836 -362.556229 
L 700.692466 -358.853957 
L 700.890083 -355.151685 
L 701.097588 -351.449413 
L 701.312059 -347.74714 
L 701.530847 -344.044868 
L 701.75109 -340.342596 
L 701.970037 -336.640324 
L 702.186934 -332.938051 
L 702.406554 -329.235779 
L 702.643557 -325.533507 
L 702.926057 -321.831235 
L 703.296743 -318.128963 
L 703.810563 -314.42669 
L 704.529297 -310.724418 
L 705.514512 -307.022146 
L 706.820892 -303.319874 
L 708.491342 -299.617601 
L 710.553819 -295.915329 
L 713.018468 -292.213057 
L 715.873058 -288.510785 
L 719.0756 -284.808512 
L 722.545005 -281.10624 
L 726.15277 -277.403968 
L 729.719798 -273.701696 
L 733.02203 -269.999423 
L 735.806755 -266.297151 
L 737.818994 -262.594879 
L 738.835 -258.892607 
L 738.697871 -255.190334 
L 737.348788 -251.488062 
L 734.846625 -247.78579 
L 731.369568 -244.083518 
L 727.195449 -240.381246 
L 722.662708 -236.678973 
L 718.119612 -232.976701 
L 713.873341 -229.274429 
L 710.150807 -225.572157 
L 707.079289 -221.869884 
L 704.68869 -218.167612 
L 702.93103 -214.46534 
L 701.709017 -210.763068 
L 700.905036 -207.060795 
z
" style="stroke: #3d3d3d; stroke-opacity: 0.5"/>
    </defs>
    <g clip-path="url(#p4d71b4cc3c)">
     <use xlink:href="#mce58c3ee71" x="0" y="696.702001" style="fill: #3a923a; fill-opacity: 0.5; stroke: #3d3d3d; stroke-opacity: 0.5"/>
    </g>
   </g>
   <g id="PolyCollection_8">
    <defs>
     <path id="m51ef9c69d2" d="M 800.620361 -163.071686 
L 794.229639 -163.071686 
L 792.865976 -167.565213 
L 791.097992 -172.058739 
L 788.883506 -176.552265 
L 786.206947 -181.045792 
L 783.090101 -185.539318 
L 779.600478 -190.032845 
L 775.855075 -194.526371 
L 772.017663 -199.019897 
L 768.288653 -203.513424 
L 764.887903 -208.00695 
L 762.032321 -212.500477 
L 759.911431 -216.994003 
L 758.664771 -221.487529 
L 758.365 -225.981056 
L 759.009629 -230.474582 
L 760.522782 -234.968108 
L 762.766496 -239.461635 
L 765.559383 -243.955161 
L 768.699246 -248.448688 
L 771.985893 -252.942214 
L 775.240719 -257.43574 
L 778.320667 -261.929267 
L 781.125482 -266.422793 
L 783.598449 -270.916319 
L 785.721845 -275.409846 
L 787.508865 -279.903372 
L 788.993934 -284.396899 
L 790.223088 -288.890425 
L 791.245643 -293.383951 
L 792.107873 -297.877478 
L 792.848949 -302.371004 
L 793.498993 -306.864531 
L 794.078902 -311.358057 
L 794.601422 -315.851583 
L 795.072988 -320.34511 
L 795.495821 -324.838636 
L 795.869935 -329.332162 
L 796.194764 -333.825689 
L 796.470287 -338.319215 
L 796.697618 -342.812742 
L 796.879128 -347.306268 
L 797.018221 -351.799794 
L 797.118909 -356.293321 
L 797.185333 -360.786847 
L 797.221359 -365.280374 
L 797.230316 -369.7739 
L 797.214921 -374.267426 
L 797.177399 -378.760953 
L 797.119748 -383.254479 
L 797.044101 -387.748005 
L 796.953101 -392.241532 
L 796.850215 -396.735058 
L 796.739913 -401.228585 
L 796.627657 -405.722111 
L 796.51968 -410.215637 
L 796.422574 -414.709164 
L 796.342723 -419.20269 
L 796.285679 -423.696216 
L 796.255565 -428.189743 
L 796.254604 -432.683269 
L 796.282864 -437.176796 
L 796.338245 -441.670322 
L 796.416722 -446.163848 
L 796.5128 -450.657375 
L 796.620101 -455.150901 
L 796.731996 -459.644428 
L 796.842172 -464.137954 
L 796.945073 -468.63148 
L 797.03616 -473.125007 
L 797.111969 -477.618533 
L 797.170026 -482.112059 
L 797.208643 -486.605586 
L 797.226697 -491.099112 
L 797.223447 -495.592639 
L 797.198467 -500.086165 
L 797.151722 -504.579691 
L 797.083781 -509.073218 
L 796.99613 -513.566744 
L 796.891505 -518.060271 
L 796.774148 -522.553797 
L 796.649877 -527.047323 
L 796.52591 -531.54085 
L 796.410393 -536.034376 
L 796.311677 -540.527902 
L 796.237424 -545.021429 
L 796.1937 -549.514955 
L 796.184198 -554.008482 
L 796.209751 -558.502008 
L 796.268234 -562.995534 
L 796.354861 -567.489061 
L 796.462838 -571.982587 
L 796.584246 -576.476113 
L 796.710994 -580.96964 
L 796.835687 -585.463166 
L 796.952282 -589.956693 
L 797.056473 -594.450219 
L 797.145779 -598.943745 
L 797.219393 -603.437272 
L 797.277857 -607.930798 
L 797.572143 -607.930798 
L 797.572143 -607.930798 
L 797.630607 -603.437272 
L 797.704221 -598.943745 
L 797.793527 -594.450219 
L 797.897718 -589.956693 
L 798.014313 -585.463166 
L 798.139006 -580.96964 
L 798.265754 -576.476113 
L 798.387162 -571.982587 
L 798.495139 -567.489061 
L 798.581766 -562.995534 
L 798.640249 -558.502008 
L 798.665802 -554.008482 
L 798.6563 -549.514955 
L 798.612576 -545.021429 
L 798.538323 -540.527902 
L 798.439607 -536.034376 
L 798.32409 -531.54085 
L 798.200123 -527.047323 
L 798.075852 -522.553797 
L 797.958495 -518.060271 
L 797.85387 -513.566744 
L 797.766219 -509.073218 
L 797.698278 -504.579691 
L 797.651533 -500.086165 
L 797.626553 -495.592639 
L 797.623303 -491.099112 
L 797.641357 -486.605586 
L 797.679974 -482.112059 
L 797.738031 -477.618533 
L 797.81384 -473.125007 
L 797.904927 -468.63148 
L 798.007828 -464.137954 
L 798.118004 -459.644428 
L 798.229899 -455.150901 
L 798.3372 -450.657375 
L 798.433278 -446.163848 
L 798.511755 -441.670322 
L 798.567136 -437.176796 
L 798.595396 -432.683269 
L 798.594435 -428.189743 
L 798.564321 -423.696216 
L 798.507277 -419.20269 
L 798.427426 -414.709164 
L 798.33032 -410.215637 
L 798.222343 -405.722111 
L 798.110087 -401.228585 
L 797.999785 -396.735058 
L 797.896899 -392.241532 
L 797.805899 -387.748005 
L 797.730252 -383.254479 
L 797.672601 -378.760953 
L 797.635079 -374.267426 
L 797.619684 -369.7739 
L 797.628641 -365.280374 
L 797.664667 -360.786847 
L 797.731091 -356.293321 
L 797.831779 -351.799794 
L 797.970872 -347.306268 
L 798.152382 -342.812742 
L 798.379713 -338.319215 
L 798.655236 -333.825689 
L 798.980065 -329.332162 
L 799.354179 -324.838636 
L 799.777012 -320.34511 
L 800.248578 -315.851583 
L 800.771098 -311.358057 
L 801.351007 -306.864531 
L 802.001051 -302.371004 
L 802.742127 -297.877478 
L 803.604357 -293.383951 
L 804.626912 -288.890425 
L 805.856066 -284.396899 
L 807.341135 -279.903372 
L 809.128155 -275.409846 
L 811.251551 -270.916319 
L 813.724518 -266.422793 
L 816.529333 -261.929267 
L 819.609281 -257.43574 
L 822.864107 -252.942214 
L 826.150754 -248.448688 
L 829.290617 -243.955161 
L 832.083504 -239.461635 
L 834.327218 -234.968108 
L 835.840371 -230.474582 
L 836.485 -225.981056 
L 836.185229 -221.487529 
L 834.938569 -216.994003 
L 832.817679 -212.500477 
L 829.962097 -208.00695 
L 826.561347 -203.513424 
L 822.832337 -199.019897 
L 818.994925 -194.526371 
L 815.249522 -190.032845 
L 811.759899 -185.539318 
L 808.643053 -181.045792 
L 805.966494 -176.552265 
L 803.752008 -172.058739 
L 801.984024 -167.565213 
L 800.620361 -163.071686 
z
" style="stroke: #3d3d3d; stroke-opacity: 0.5"/>
    </defs>
    <g clip-path="url(#p4d71b4cc3c)">
     <use xlink:href="#m51ef9c69d2" x="0" y="696.702001" style="fill: #c03d3e; fill-opacity: 0.5; stroke: #3d3d3d; stroke-opacity: 0.5"/>
    </g>
   </g>
   <g id="line2d_6">
    <path d="M 113.875 480.913928 
L 113.875 390.875066 
" clip-path="url(#p4d71b4cc3c)" style="fill: none; stroke: #3d3d3d; stroke-width: 1.5; stroke-linecap: round"/>
   </g>
   <g id="line2d_7">
    <path d="M 113.875 477.55699 
L 113.875 442.115351 
" clip-path="url(#p4d71b4cc3c)" style="fill: none; stroke: #3d3d3d; stroke-width: 4.5; stroke-linecap: round"/>
   </g>
   <g id="line2d_8">
    <path d="M 113.875 472.664145 
" clip-path="url(#p4d71b4cc3c)" style="fill: none; stroke: #3d3d3d; stroke-width: 1.5; stroke-linecap: round"/>
    <defs>
     <path id="m5b740e8406" d="M 1.875 0 
L -1.875 -0 
" style="stroke: #ffffff; stroke-width: 0.9"/>
    </defs>
    <g clip-path="url(#p4d71b4cc3c)">
     <use xlink:href="#m5b740e8406" x="113.875" y="472.664145" style="fill: #ffffff; stroke: #ffffff; stroke-width: 0.9"/>
    </g>
   </g>
   <g id="line2d_9">
    <path d="M 211.525 473.380576 
L 211.525 256.669841 
" clip-path="url(#p4d71b4cc3c)" style="fill: none; stroke: #3d3d3d; stroke-width: 1.5; stroke-linecap: round"/>
   </g>
   <g id="line2d_10">
    <path d="M 211.525 409.910466 
L 211.525 345.741066 
" clip-path="url(#p4d71b4cc3c)" style="fill: none; stroke: #3d3d3d; stroke-width: 4.5; stroke-linecap: round"/>
   </g>
   <g id="line2d_11">
    <path d="M 211.525 375.33763 
" clip-path="url(#p4d71b4cc3c)" style="fill: none; stroke: #3d3d3d; stroke-width: 1.5; stroke-linecap: round"/>
    <g clip-path="url(#p4d71b4cc3c)">
     <use xlink:href="#m5b740e8406" x="211.525" y="375.33763" style="fill: #ffffff; stroke: #ffffff; stroke-width: 0.9"/>
    </g>
   </g>
   <g id="line2d_12">
    <path d="M 309.175 474.329406 
L 309.175 473.031556 
" clip-path="url(#p4d71b4cc3c)" style="fill: none; stroke: #3d3d3d; stroke-width: 1.5; stroke-linecap: round"/>
   </g>
   <g id="line2d_13">
    <path d="M 309.175 473.807648 
L 309.175 473.420543 
" clip-path="url(#p4d71b4cc3c)" style="fill: none; stroke: #3d3d3d; stroke-width: 4.5; stroke-linecap: round"/>
   </g>
   <g id="line2d_14">
    <path d="M 309.175 473.619637 
" clip-path="url(#p4d71b4cc3c)" style="fill: none; stroke: #3d3d3d; stroke-width: 1.5; stroke-linecap: round"/>
    <g clip-path="url(#p4d71b4cc3c)">
     <use xlink:href="#m5b740e8406" x="309.175" y="473.619637" style="fill: #ffffff; stroke: #ffffff; stroke-width: 0.9"/>
    </g>
   </g>
   <g id="line2d_15">
    <path d="M 406.825 480.298472 
L 406.825 464.922419 
" clip-path="url(#p4d71b4cc3c)" style="fill: none; stroke: #3d3d3d; stroke-width: 1.5; stroke-linecap: round"/>
   </g>
   <g id="line2d_16">
    <path d="M 406.825 477.690608 
L 406.825 471.903277 
" clip-path="url(#p4d71b4cc3c)" style="fill: none; stroke: #3d3d3d; stroke-width: 4.5; stroke-linecap: round"/>
   </g>
   <g id="line2d_17">
    <path d="M 406.825 475.644707 
" clip-path="url(#p4d71b4cc3c)" style="fill: none; stroke: #3d3d3d; stroke-width: 1.5; stroke-linecap: round"/>
    <g clip-path="url(#p4d71b4cc3c)">
     <use xlink:href="#m5b740e8406" x="406.825" y="475.644707" style="fill: #ffffff; stroke: #ffffff; stroke-width: 0.9"/>
    </g>
   </g>
   <g id="line2d_18">
    <path d="M 504.475 443.965632 
L 504.475 352.912385 
" clip-path="url(#p4d71b4cc3c)" style="fill: none; stroke: #3d3d3d; stroke-width: 1.5; stroke-linecap: round"/>
   </g>
   <g id="line2d_19">
    <path d="M 504.475 427.007386 
L 504.475 394.341278 
" clip-path="url(#p4d71b4cc3c)" style="fill: none; stroke: #3d3d3d; stroke-width: 4.5; stroke-linecap: round"/>
   </g>
   <g id="line2d_20">
    <path d="M 504.475 412.633602 
" clip-path="url(#p4d71b4cc3c)" style="fill: none; stroke: #3d3d3d; stroke-width: 1.5; stroke-linecap: round"/>
    <g clip-path="url(#p4d71b4cc3c)">
     <use xlink:href="#m5b740e8406" x="504.475" y="412.633602" style="fill: #ffffff; stroke: #ffffff; stroke-width: 0.9"/>
    </g>
   </g>
   <g id="line2d_21">
    <path d="M 602.125 474.262006 
L 602.125 244.305366 
" clip-path="url(#p4d71b4cc3c)" style="fill: none; stroke: #3d3d3d; stroke-width: 1.5; stroke-linecap: round"/>
   </g>
   <g id="line2d_22">
    <path d="M 602.125 431.213212 
L 602.125 347.945646 
" clip-path="url(#p4d71b4cc3c)" style="fill: none; stroke: #3d3d3d; stroke-width: 4.5; stroke-linecap: round"/>
   </g>
   <g id="line2d_23">
    <path d="M 602.125 402.25971 
" clip-path="url(#p4d71b4cc3c)" style="fill: none; stroke: #3d3d3d; stroke-width: 1.5; stroke-linecap: round"/>
    <g clip-path="url(#p4d71b4cc3c)">
     <use xlink:href="#m5b740e8406" x="602.125" y="402.25971" style="fill: #ffffff; stroke: #ffffff; stroke-width: 0.9"/>
    </g>
   </g>
   <g id="line2d_24">
    <path d="M 699.775 457.686021 
L 699.775 396.882398 
" clip-path="url(#p4d71b4cc3c)" style="fill: none; stroke: #3d3d3d; stroke-width: 1.5; stroke-linecap: round"/>
   </g>
   <g id="line2d_25">
    <path d="M 699.775 447.66683 
L 699.775 425.122148 
" clip-path="url(#p4d71b4cc3c)" style="fill: none; stroke: #3d3d3d; stroke-width: 4.5; stroke-linecap: round"/>
   </g>
   <g id="line2d_26">
    <path d="M 699.775 435.302847 
" clip-path="url(#p4d71b4cc3c)" style="fill: none; stroke: #3d3d3d; stroke-width: 1.5; stroke-linecap: round"/>
    <g clip-path="url(#p4d71b4cc3c)">
     <use xlink:href="#m5b740e8406" x="699.775" y="435.302847" style="fill: #ffffff; stroke: #ffffff; stroke-width: 0.9"/>
    </g>
   </g>
   <g id="line2d_27">
    <path d="M 797.425 480.55067 
L 797.425 430.936475 
" clip-path="url(#p4d71b4cc3c)" style="fill: none; stroke: #3d3d3d; stroke-width: 1.5; stroke-linecap: round"/>
   </g>
   <g id="line2d_28">
    <path d="M 797.425 477.427532 
L 797.425 458.167139 
" clip-path="url(#p4d71b4cc3c)" style="fill: none; stroke: #3d3d3d; stroke-width: 4.5; stroke-linecap: round"/>
   </g>
   <g id="line2d_29">
    <path d="M 797.425 473.688299 
" clip-path="url(#p4d71b4cc3c)" style="fill: none; stroke: #3d3d3d; stroke-width: 1.5; stroke-linecap: round"/>
    <g clip-path="url(#p4d71b4cc3c)">
     <use xlink:href="#m5b740e8406" x="797.425" y="473.688299" style="fill: #ffffff; stroke: #ffffff; stroke-width: 0.9"/>
    </g>
   </g>
   <g id="patch_3">
    <path d="M 65.05 561.6 
L 846.25 561.6 
" style="fill: none; stroke: #cccccc; stroke-width: 0.8; stroke-linejoin: miter; stroke-linecap: square"/>
   </g>
  </g>
 </g>
 <defs>
  <clipPath id="p4d71b4cc3c">
   <rect x="65.05" y="7.2" width="781.2" height="554.4"/>
  </clipPath>
 </defs>
</svg>
