<?xml version="1.0" encoding="utf-8" standalone="no"?>
<!DOCTYPE svg PUBLIC "-//W3C//DTD SVG 1.1//EN"
  "http://www.w3.org/Graphics/SVG/1.1/DTD/svg11.dtd">
<svg xmlns:xlink="http://www.w3.org/1999/xlink" width="857.7625pt" height="696.702001pt" viewBox="0 0 857.7625 696.702001" xmlns="http://www.w3.org/2000/svg" version="1.1">
 <metadata>
  <rdf:RDF xmlns:dc="http://purl.org/dc/elements/1.1/" xmlns:cc="http://creativecommons.org/ns#" xmlns:rdf="http://www.w3.org/1999/02/22-rdf-syntax-ns#">
   <cc:Work>
    <dc:type rdf:resource="http://purl.org/dc/dcmitype/StillImage"/>
    <dc:date>2024-10-23T17:25:21.460481</dc:date>
    <dc:format>image/svg+xml</dc:format>
    <dc:creator>
     <cc:Agent>
      <dc:title>Matplotlib v3.8.0, https://matplotlib.org/</dc:title>
     </cc:Agent>
    </dc:creator>
   </cc:Work>
  </rdf:RDF>
 </metadata>
 <defs>
  <style type="text/css">*{stroke-linejoin: round; stroke-linecap: butt}</style>
 </defs>
 <g id="figure_1">
  <g id="patch_1">
   <path d="M 0 696.702001 
L 857.7625 696.702001 
L 857.7625 0 
L 0 0 
L 0 696.702001 
z
" style="fill: none"/>
  </g>
  <g id="axes_1">
   <g id="patch_2">
    <path d="M 69.3625 561.6 
L 850.5625 561.6 
L 850.5625 7.2 
L 69.3625 7.2 
L 69.3625 561.6 
z
" style="fill: none"/>
   </g>
   <g id="matplotlib.axis_1">
    <g id="xtick_1">
     <g id="text_1">
      <!-- MSA -->
      <g style="fill: #262626" transform="translate(97.813986 610.465141) rotate(-45) scale(0.2 -0.2)">
       <defs>
        <path id="DejaVuSans-4d" d="M 628 4666 
L 1569 4666 
L 2759 1491 
L 3956 4666 
L 4897 4666 
L 4897 0 
L 4281 0 
L 4281 4097 
L 3078 897 
L 2444 897 
L 1241 4097 
L 1241 0 
L 628 0 
L 628 4666 
z
" transform="scale(0.015625)"/>
        <path id="DejaVuSans-53" d="M 3425 4513 
L 3425 3897 
Q 3066 4069 2747 4153 
Q 2428 4238 2131 4238 
Q 1616 4238 1336 4038 
Q 1056 3838 1056 3469 
Q 1056 3159 1242 3001 
Q 1428 2844 1947 2747 
L 2328 2669 
Q 3034 2534 3370 2195 
Q 3706 1856 3706 1288 
Q 3706 609 3251 259 
Q 2797 -91 1919 -91 
Q 1588 -91 1214 -16 
Q 841 59 441 206 
L 441 856 
Q 825 641 1194 531 
Q 1563 422 1919 422 
Q 2459 422 2753 634 
Q 3047 847 3047 1241 
Q 3047 1584 2836 1778 
Q 2625 1972 2144 2069 
L 1759 2144 
Q 1053 2284 737 2584 
Q 422 2884 422 3419 
Q 422 4038 858 4394 
Q 1294 4750 2059 4750 
Q 2388 4750 2728 4690 
Q 3069 4631 3425 4513 
z
" transform="scale(0.015625)"/>
        <path id="DejaVuSans-41" d="M 2188 4044 
L 1331 1722 
L 3047 1722 
L 2188 4044 
z
M 1831 4666 
L 2547 4666 
L 4325 0 
L 3669 0 
L 3244 1197 
L 1141 1197 
L 716 0 
L 50 0 
L 1831 4666 
z
" transform="scale(0.015625)"/>
       </defs>
       <use xlink:href="#DejaVuSans-4d"/>
       <use xlink:href="#DejaVuSans-53" x="86.279297"/>
       <use xlink:href="#DejaVuSans-41" x="151.630859"/>
      </g>
     </g>
    </g>
    <g id="xtick_2">
     <g id="text_2">
      <!-- Single -->
      <g style="fill: #262626" transform="translate(183.105085 622.824042) rotate(-45) scale(0.2 -0.2)">
       <defs>
        <path id="DejaVuSans-69" d="M 603 3500 
L 1178 3500 
L 1178 0 
L 603 0 
L 603 3500 
z
M 603 4863 
L 1178 4863 
L 1178 4134 
L 603 4134 
L 603 4863 
z
" transform="scale(0.015625)"/>
        <path id="DejaVuSans-6e" d="M 3513 2113 
L 3513 0 
L 2938 0 
L 2938 2094 
Q 2938 2591 2744 2837 
Q 2550 3084 2163 3084 
Q 1697 3084 1428 2787 
Q 1159 2491 1159 1978 
L 1159 0 
L 581 0 
L 581 3500 
L 1159 3500 
L 1159 2956 
Q 1366 3272 1645 3428 
Q 1925 3584 2291 3584 
Q 2894 3584 3203 3211 
Q 3513 2838 3513 2113 
z
" transform="scale(0.015625)"/>
        <path id="DejaVuSans-67" d="M 2906 1791 
Q 2906 2416 2648 2759 
Q 2391 3103 1925 3103 
Q 1463 3103 1205 2759 
Q 947 2416 947 1791 
Q 947 1169 1205 825 
Q 1463 481 1925 481 
Q 2391 481 2648 825 
Q 2906 1169 2906 1791 
z
M 3481 434 
Q 3481 -459 3084 -895 
Q 2688 -1331 1869 -1331 
Q 1566 -1331 1297 -1286 
Q 1028 -1241 775 -1147 
L 775 -588 
Q 1028 -725 1275 -790 
Q 1522 -856 1778 -856 
Q 2344 -856 2625 -561 
Q 2906 -266 2906 331 
L 2906 616 
Q 2728 306 2450 153 
Q 2172 0 1784 0 
Q 1141 0 747 490 
Q 353 981 353 1791 
Q 353 2603 747 3093 
Q 1141 3584 1784 3584 
Q 2172 3584 2450 3431 
Q 2728 3278 2906 2969 
L 2906 3500 
L 3481 3500 
L 3481 434 
z
" transform="scale(0.015625)"/>
        <path id="DejaVuSans-6c" d="M 603 4863 
L 1178 4863 
L 1178 0 
L 603 0 
L 603 4863 
z
" transform="scale(0.015625)"/>
        <path id="DejaVuSans-65" d="M 3597 1894 
L 3597 1613 
L 953 1613 
Q 991 1019 1311 708 
Q 1631 397 2203 397 
Q 2534 397 2845 478 
Q 3156 559 3463 722 
L 3463 178 
Q 3153 47 2828 -22 
Q 2503 -91 2169 -91 
Q 1331 -91 842 396 
Q 353 884 353 1716 
Q 353 2575 817 3079 
Q 1281 3584 2069 3584 
Q 2775 3584 3186 3129 
Q 3597 2675 3597 1894 
z
M 3022 2063 
Q 3016 2534 2758 2815 
Q 2500 3097 2075 3097 
Q 1594 3097 1305 2825 
Q 1016 2553 972 2059 
L 3022 2063 
z
" transform="scale(0.015625)"/>
       </defs>
       <use xlink:href="#DejaVuSans-53"/>
       <use xlink:href="#DejaVuSans-69" x="63.476562"/>
       <use xlink:href="#DejaVuSans-6e" x="91.259766"/>
       <use xlink:href="#DejaVuSans-67" x="154.638672"/>
       <use xlink:href="#DejaVuSans-6c" x="218.115234"/>
       <use xlink:href="#DejaVuSans-65" x="245.898438"/>
      </g>
     </g>
    </g>
    <g id="xtick_3">
     <g id="text_3">
      <!-- Gaussian -->
      <g style="fill: #262626" transform="translate(259.354056 644.22507) rotate(-45) scale(0.2 -0.2)">
       <defs>
        <path id="DejaVuSans-47" d="M 3809 666 
L 3809 1919 
L 2778 1919 
L 2778 2438 
L 4434 2438 
L 4434 434 
Q 4069 175 3628 42 
Q 3188 -91 2688 -91 
Q 1594 -91 976 548 
Q 359 1188 359 2328 
Q 359 3472 976 4111 
Q 1594 4750 2688 4750 
Q 3144 4750 3555 4637 
Q 3966 4525 4313 4306 
L 4313 3634 
Q 3963 3931 3569 4081 
Q 3175 4231 2741 4231 
Q 1884 4231 1454 3753 
Q 1025 3275 1025 2328 
Q 1025 1384 1454 906 
Q 1884 428 2741 428 
Q 3075 428 3337 486 
Q 3600 544 3809 666 
z
" transform="scale(0.015625)"/>
        <path id="DejaVuSans-61" d="M 2194 1759 
Q 1497 1759 1228 1600 
Q 959 1441 959 1056 
Q 959 750 1161 570 
Q 1363 391 1709 391 
Q 2188 391 2477 730 
Q 2766 1069 2766 1631 
L 2766 1759 
L 2194 1759 
z
M 3341 1997 
L 3341 0 
L 2766 0 
L 2766 531 
Q 2569 213 2275 61 
Q 1981 -91 1556 -91 
Q 1019 -91 701 211 
Q 384 513 384 1019 
Q 384 1609 779 1909 
Q 1175 2209 1959 2209 
L 2766 2209 
L 2766 2266 
Q 2766 2663 2505 2880 
Q 2244 3097 1772 3097 
Q 1472 3097 1187 3025 
Q 903 2953 641 2809 
L 641 3341 
Q 956 3463 1253 3523 
Q 1550 3584 1831 3584 
Q 2591 3584 2966 3190 
Q 3341 2797 3341 1997 
z
" transform="scale(0.015625)"/>
        <path id="DejaVuSans-75" d="M 544 1381 
L 544 3500 
L 1119 3500 
L 1119 1403 
Q 1119 906 1312 657 
Q 1506 409 1894 409 
Q 2359 409 2629 706 
Q 2900 1003 2900 1516 
L 2900 3500 
L 3475 3500 
L 3475 0 
L 2900 0 
L 2900 538 
Q 2691 219 2414 64 
Q 2138 -91 1772 -91 
Q 1169 -91 856 284 
Q 544 659 544 1381 
z
M 1991 3584 
L 1991 3584 
z
" transform="scale(0.015625)"/>
        <path id="DejaVuSans-73" d="M 2834 3397 
L 2834 2853 
Q 2591 2978 2328 3040 
Q 2066 3103 1784 3103 
Q 1356 3103 1142 2972 
Q 928 2841 928 2578 
Q 928 2378 1081 2264 
Q 1234 2150 1697 2047 
L 1894 2003 
Q 2506 1872 2764 1633 
Q 3022 1394 3022 966 
Q 3022 478 2636 193 
Q 2250 -91 1575 -91 
Q 1294 -91 989 -36 
Q 684 19 347 128 
L 347 722 
Q 666 556 975 473 
Q 1284 391 1588 391 
Q 1994 391 2212 530 
Q 2431 669 2431 922 
Q 2431 1156 2273 1281 
Q 2116 1406 1581 1522 
L 1381 1569 
Q 847 1681 609 1914 
Q 372 2147 372 2553 
Q 372 3047 722 3315 
Q 1072 3584 1716 3584 
Q 2034 3584 2315 3537 
Q 2597 3491 2834 3397 
z
" transform="scale(0.015625)"/>
       </defs>
       <use xlink:href="#DejaVuSans-47"/>
       <use xlink:href="#DejaVuSans-61" x="77.490234"/>
       <use xlink:href="#DejaVuSans-75" x="138.769531"/>
       <use xlink:href="#DejaVuSans-73" x="202.148438"/>
       <use xlink:href="#DejaVuSans-73" x="254.248047"/>
       <use xlink:href="#DejaVuSans-69" x="306.347656"/>
       <use xlink:href="#DejaVuSans-61" x="334.130859"/>
       <use xlink:href="#DejaVuSans-6e" x="395.410156"/>
      </g>
     </g>
    </g>
    <g id="xtick_4">
     <g id="text_4">
      <!-- Gaussian (AF2) -->
      <g style="fill: #262626" transform="translate(314.668248 686.560879) rotate(-45) scale(0.2 -0.2)">
       <defs>
        <path id="DejaVuSans-20" transform="scale(0.015625)"/>
        <path id="DejaVuSans-28" d="M 1984 4856 
Q 1566 4138 1362 3434 
Q 1159 2731 1159 2009 
Q 1159 1288 1364 580 
Q 1569 -128 1984 -844 
L 1484 -844 
Q 1016 -109 783 600 
Q 550 1309 550 2009 
Q 550 2706 781 3412 
Q 1013 4119 1484 4856 
L 1984 4856 
z
" transform="scale(0.015625)"/>
        <path id="DejaVuSans-46" d="M 628 4666 
L 3309 4666 
L 3309 4134 
L 1259 4134 
L 1259 2759 
L 3109 2759 
L 3109 2228 
L 1259 2228 
L 1259 0 
L 628 0 
L 628 4666 
z
" transform="scale(0.015625)"/>
        <path id="DejaVuSans-32" d="M 1228 531 
L 3431 531 
L 3431 0 
L 469 0 
L 469 531 
Q 828 903 1448 1529 
Q 2069 2156 2228 2338 
Q 2531 2678 2651 2914 
Q 2772 3150 2772 3378 
Q 2772 3750 2511 3984 
Q 2250 4219 1831 4219 
Q 1534 4219 1204 4116 
Q 875 4013 500 3803 
L 500 4441 
Q 881 4594 1212 4672 
Q 1544 4750 1819 4750 
Q 2544 4750 2975 4387 
Q 3406 4025 3406 3419 
Q 3406 3131 3298 2873 
Q 3191 2616 2906 2266 
Q 2828 2175 2409 1742 
Q 1991 1309 1228 531 
z
" transform="scale(0.015625)"/>
        <path id="DejaVuSans-29" d="M 513 4856 
L 1013 4856 
Q 1481 4119 1714 3412 
Q 1947 2706 1947 2009 
Q 1947 1309 1714 600 
Q 1481 -109 1013 -844 
L 513 -844 
Q 928 -128 1133 580 
Q 1338 1288 1338 2009 
Q 1338 2731 1133 3434 
Q 928 4138 513 4856 
z
" transform="scale(0.015625)"/>
       </defs>
       <use xlink:href="#DejaVuSans-47"/>
       <use xlink:href="#DejaVuSans-61" x="77.490234"/>
       <use xlink:href="#DejaVuSans-75" x="138.769531"/>
       <use xlink:href="#DejaVuSans-73" x="202.148438"/>
       <use xlink:href="#DejaVuSans-73" x="254.248047"/>
       <use xlink:href="#DejaVuSans-69" x="306.347656"/>
       <use xlink:href="#DejaVuSans-61" x="334.130859"/>
       <use xlink:href="#DejaVuSans-6e" x="395.410156"/>
       <use xlink:href="#DejaVuSans-20" x="458.789062"/>
       <use xlink:href="#DejaVuSans-28" x="490.576172"/>
       <use xlink:href="#DejaVuSans-41" x="529.589844"/>
       <use xlink:href="#DejaVuSans-46" x="597.998047"/>
       <use xlink:href="#DejaVuSans-32" x="655.517578"/>
       <use xlink:href="#DejaVuSans-29" x="719.140625"/>
      </g>
     </g>
    </g>
    <g id="xtick_5">
     <g id="text_5">
      <!-- 1 PC -->
      <g style="fill: #262626" transform="translate(487.638378 611.240749) rotate(-45) scale(0.2 -0.2)">
       <defs>
        <path id="DejaVuSans-31" d="M 794 531 
L 1825 531 
L 1825 4091 
L 703 3866 
L 703 4441 
L 1819 4666 
L 2450 4666 
L 2450 531 
L 3481 531 
L 3481 0 
L 794 0 
L 794 531 
z
" transform="scale(0.015625)"/>
        <path id="DejaVuSans-50" d="M 1259 4147 
L 1259 2394 
L 2053 2394 
Q 2494 2394 2734 2622 
Q 2975 2850 2975 3272 
Q 2975 3691 2734 3919 
Q 2494 4147 2053 4147 
L 1259 4147 
z
M 628 4666 
L 2053 4666 
Q 2838 4666 3239 4311 
Q 3641 3956 3641 3272 
Q 3641 2581 3239 2228 
Q 2838 1875 2053 1875 
L 1259 1875 
L 1259 0 
L 628 0 
L 628 4666 
z
" transform="scale(0.015625)"/>
        <path id="DejaVuSans-43" d="M 4122 4306 
L 4122 3641 
Q 3803 3938 3442 4084 
Q 3081 4231 2675 4231 
Q 1875 4231 1450 3742 
Q 1025 3253 1025 2328 
Q 1025 1406 1450 917 
Q 1875 428 2675 428 
Q 3081 428 3442 575 
Q 3803 722 4122 1019 
L 4122 359 
Q 3791 134 3420 21 
Q 3050 -91 2638 -91 
Q 1578 -91 968 557 
Q 359 1206 359 2328 
Q 359 3453 968 4101 
Q 1578 4750 2638 4750 
Q 3056 4750 3426 4639 
Q 3797 4528 4122 4306 
z
" transform="scale(0.015625)"/>
       </defs>
       <use xlink:href="#DejaVuSans-31"/>
       <use xlink:href="#DejaVuSans-20" x="63.623047"/>
       <use xlink:href="#DejaVuSans-50" x="95.410156"/>
       <use xlink:href="#DejaVuSans-43" x="155.712891"/>
      </g>
     </g>
    </g>
    <g id="xtick_6">
     <g id="text_6">
      <!-- 1 PC (AF2) -->
      <g style="fill: #262626" transform="translate(542.952569 653.576557) rotate(-45) scale(0.2 -0.2)">
       <use xlink:href="#DejaVuSans-31"/>
       <use xlink:href="#DejaVuSans-20" x="63.623047"/>
       <use xlink:href="#DejaVuSans-50" x="95.410156"/>
       <use xlink:href="#DejaVuSans-43" x="155.712891"/>
       <use xlink:href="#DejaVuSans-20" x="225.537109"/>
       <use xlink:href="#DejaVuSans-28" x="257.324219"/>
       <use xlink:href="#DejaVuSans-41" x="296.337891"/>
       <use xlink:href="#DejaVuSans-46" x="364.746094"/>
       <use xlink:href="#DejaVuSans-32" x="422.265625"/>
       <use xlink:href="#DejaVuSans-29" x="485.888672"/>
      </g>
     </g>
    </g>
    <g id="xtick_7">
     <g id="text_7">
      <!-- 2 PC -->
      <g style="fill: #262626" transform="translate(682.938378 611.240749) rotate(-45) scale(0.2 -0.2)">
       <use xlink:href="#DejaVuSans-32"/>
       <use xlink:href="#DejaVuSans-20" x="63.623047"/>
       <use xlink:href="#DejaVuSans-50" x="95.410156"/>
       <use xlink:href="#DejaVuSans-43" x="155.712891"/>
      </g>
     </g>
    </g>
    <g id="xtick_8">
     <g id="text_8">
      <!-- 2 PC (AF2) -->
      <g style="fill: #262626" transform="translate(738.252569 653.576557) rotate(-45) scale(0.2 -0.2)">
       <use xlink:href="#DejaVuSans-32"/>
       <use xlink:href="#DejaVuSans-20" x="63.623047"/>
       <use xlink:href="#DejaVuSans-50" x="95.410156"/>
       <use xlink:href="#DejaVuSans-43" x="155.712891"/>
       <use xlink:href="#DejaVuSans-20" x="225.537109"/>
       <use xlink:href="#DejaVuSans-28" x="257.324219"/>
       <use xlink:href="#DejaVuSans-41" x="296.337891"/>
       <use xlink:href="#DejaVuSans-46" x="364.746094"/>
       <use xlink:href="#DejaVuSans-32" x="422.265625"/>
       <use xlink:href="#DejaVuSans-29" x="485.888672"/>
      </g>
     </g>
    </g>
   </g>
   <g id="matplotlib.axis_2">
    <g id="ytick_1">
     <g id="line2d_1">
      <path d="M 69.3625 500.680944 
L 850.5625 500.680944 
" clip-path="url(#p1460028ec5)" style="fill: none; stroke: #cccccc; stroke-width: 0.8; stroke-linecap: round"/>
     </g>
     <g id="text_9">
      <!-- 0.0 -->
      <g style="fill: #262626" transform="translate(30.55625 508.279381) scale(0.2 -0.2)">
       <defs>
        <path id="DejaVuSans-30" d="M 2034 4250 
Q 1547 4250 1301 3770 
Q 1056 3291 1056 2328 
Q 1056 1369 1301 889 
Q 1547 409 2034 409 
Q 2525 409 2770 889 
Q 3016 1369 3016 2328 
Q 3016 3291 2770 3770 
Q 2525 4250 2034 4250 
z
M 2034 4750 
Q 2819 4750 3233 4129 
Q 3647 3509 3647 2328 
Q 3647 1150 3233 529 
Q 2819 -91 2034 -91 
Q 1250 -91 836 529 
Q 422 1150 422 2328 
Q 422 3509 836 4129 
Q 1250 4750 2034 4750 
z
" transform="scale(0.015625)"/>
        <path id="DejaVuSans-2e" d="M 684 794 
L 1344 794 
L 1344 0 
L 684 0 
L 684 794 
z
" transform="scale(0.015625)"/>
       </defs>
       <use xlink:href="#DejaVuSans-30"/>
       <use xlink:href="#DejaVuSans-2e" x="63.623047"/>
       <use xlink:href="#DejaVuSans-30" x="95.410156"/>
      </g>
     </g>
    </g>
    <g id="ytick_2">
     <g id="line2d_2">
      <path d="M 69.3625 412.768688 
L 850.5625 412.768688 
" clip-path="url(#p1460028ec5)" style="fill: none; stroke: #cccccc; stroke-width: 0.8; stroke-linecap: round"/>
     </g>
     <g id="text_10">
      <!-- 0.2 -->
      <g style="fill: #262626" transform="translate(30.55625 420.367126) scale(0.2 -0.2)">
       <use xlink:href="#DejaVuSans-30"/>
       <use xlink:href="#DejaVuSans-2e" x="63.623047"/>
       <use xlink:href="#DejaVuSans-32" x="95.410156"/>
      </g>
     </g>
    </g>
    <g id="ytick_3">
     <g id="line2d_3">
      <path d="M 69.3625 324.856432 
L 850.5625 324.856432 
" clip-path="url(#p1460028ec5)" style="fill: none; stroke: #cccccc; stroke-width: 0.8; stroke-linecap: round"/>
     </g>
     <g id="text_11">
      <!-- 0.4 -->
      <g style="fill: #262626" transform="translate(30.55625 332.45487) scale(0.2 -0.2)">
       <defs>
        <path id="DejaVuSans-34" d="M 2419 4116 
L 825 1625 
L 2419 1625 
L 2419 4116 
z
M 2253 4666 
L 3047 4666 
L 3047 1625 
L 3713 1625 
L 3713 1100 
L 3047 1100 
L 3047 0 
L 2419 0 
L 2419 1100 
L 313 1100 
L 313 1709 
L 2253 4666 
z
" transform="scale(0.015625)"/>
       </defs>
       <use xlink:href="#DejaVuSans-30"/>
       <use xlink:href="#DejaVuSans-2e" x="63.623047"/>
       <use xlink:href="#DejaVuSans-34" x="95.410156"/>
      </g>
     </g>
    </g>
    <g id="ytick_4">
     <g id="line2d_4">
      <path d="M 69.3625 236.944176 
L 850.5625 236.944176 
" clip-path="url(#p1460028ec5)" style="fill: none; stroke: #cccccc; stroke-width: 0.8; stroke-linecap: round"/>
     </g>
     <g id="text_12">
      <!-- 0.6 -->
      <g style="fill: #262626" transform="translate(30.55625 244.542614) scale(0.2 -0.2)">
       <defs>
        <path id="DejaVuSans-36" d="M 2113 2584 
Q 1688 2584 1439 2293 
Q 1191 2003 1191 1497 
Q 1191 994 1439 701 
Q 1688 409 2113 409 
Q 2538 409 2786 701 
Q 3034 994 3034 1497 
Q 3034 2003 2786 2293 
Q 2538 2584 2113 2584 
z
M 3366 4563 
L 3366 3988 
Q 3128 4100 2886 4159 
Q 2644 4219 2406 4219 
Q 1781 4219 1451 3797 
Q 1122 3375 1075 2522 
Q 1259 2794 1537 2939 
Q 1816 3084 2150 3084 
Q 2853 3084 3261 2657 
Q 3669 2231 3669 1497 
Q 3669 778 3244 343 
Q 2819 -91 2113 -91 
Q 1303 -91 875 529 
Q 447 1150 447 2328 
Q 447 3434 972 4092 
Q 1497 4750 2381 4750 
Q 2619 4750 2861 4703 
Q 3103 4656 3366 4563 
z
" transform="scale(0.015625)"/>
       </defs>
       <use xlink:href="#DejaVuSans-30"/>
       <use xlink:href="#DejaVuSans-2e" x="63.623047"/>
       <use xlink:href="#DejaVuSans-36" x="95.410156"/>
      </g>
     </g>
    </g>
    <g id="ytick_5">
     <g id="line2d_5">
      <path d="M 69.3625 149.03192 
L 850.5625 149.03192 
" clip-path="url(#p1460028ec5)" style="fill: none; stroke: #cccccc; stroke-width: 0.8; stroke-linecap: round"/>
     </g>
     <g id="text_13">
      <!-- 0.8 -->
      <g style="fill: #262626" transform="translate(30.55625 156.630358) scale(0.2 -0.2)">
       <defs>
        <path id="DejaVuSans-38" d="M 2034 2216 
Q 1584 2216 1326 1975 
Q 1069 1734 1069 1313 
Q 1069 891 1326 650 
Q 1584 409 2034 409 
Q 2484 409 2743 651 
Q 3003 894 3003 1313 
Q 3003 1734 2745 1975 
Q 2488 2216 2034 2216 
z
M 1403 2484 
Q 997 2584 770 2862 
Q 544 3141 544 3541 
Q 544 4100 942 4425 
Q 1341 4750 2034 4750 
Q 2731 4750 3128 4425 
Q 3525 4100 3525 3541 
Q 3525 3141 3298 2862 
Q 3072 2584 2669 2484 
Q 3125 2378 3379 2068 
Q 3634 1759 3634 1313 
Q 3634 634 3220 271 
Q 2806 -91 2034 -91 
Q 1263 -91 848 271 
Q 434 634 434 1313 
Q 434 1759 690 2068 
Q 947 2378 1403 2484 
z
M 1172 3481 
Q 1172 3119 1398 2916 
Q 1625 2713 2034 2713 
Q 2441 2713 2670 2916 
Q 2900 3119 2900 3481 
Q 2900 3844 2670 4047 
Q 2441 4250 2034 4250 
Q 1625 4250 1398 4047 
Q 1172 3844 1172 3481 
z
" transform="scale(0.015625)"/>
       </defs>
       <use xlink:href="#DejaVuSans-30"/>
       <use xlink:href="#DejaVuSans-2e" x="63.623047"/>
       <use xlink:href="#DejaVuSans-38" x="95.410156"/>
      </g>
     </g>
    </g>
    <g id="ytick_6">
     <g id="line2d_6">
      <path d="M 69.3625 61.119664 
L 850.5625 61.119664 
" clip-path="url(#p1460028ec5)" style="fill: none; stroke: #cccccc; stroke-width: 0.8; stroke-linecap: round"/>
     </g>
     <g id="text_14">
      <!-- 1.0 -->
      <g style="fill: #262626" transform="translate(30.55625 68.718102) scale(0.2 -0.2)">
       <use xlink:href="#DejaVuSans-31"/>
       <use xlink:href="#DejaVuSans-2e" x="63.623047"/>
       <use xlink:href="#DejaVuSans-30" x="95.410156"/>
      </g>
     </g>
    </g>
    <g id="text_15">
     <!-- lDDT $\uparrow$ -->
     <g style="fill: #262626" transform="translate(22.396875 324.2) rotate(-90) scale(0.2 -0.2)">
      <defs>
       <path id="DejaVuSans-44" d="M 1259 4147 
L 1259 519 
L 2022 519 
Q 2988 519 3436 956 
Q 3884 1394 3884 2338 
Q 3884 3275 3436 3711 
Q 2988 4147 2022 4147 
L 1259 4147 
z
M 628 4666 
L 1925 4666 
Q 3281 4666 3915 4102 
Q 4550 3538 4550 2338 
Q 4550 1131 3912 565 
Q 3275 0 1925 0 
L 628 0 
L 628 4666 
z
" transform="scale(0.015625)"/>
       <path id="DejaVuSans-54" d="M -19 4666 
L 3928 4666 
L 3928 4134 
L 2272 4134 
L 2272 0 
L 1638 0 
L 1638 4134 
L -19 4134 
L -19 4666 
z
" transform="scale(0.015625)"/>
       <path id="DejaVuSans-2191" d="M 2541 4688 
L 2822 4688 
L 4047 3456 
L 3672 3081 
L 2947 3813 
L 2947 0 
L 2416 0 
L 2416 3813 
L 1684 3081 
L 1309 3456 
L 2541 4688 
z
" transform="scale(0.015625)"/>
      </defs>
      <use xlink:href="#DejaVuSans-6c" transform="translate(0 0.015625)"/>
      <use xlink:href="#DejaVuSans-44" transform="translate(27.783203 0.015625)"/>
      <use xlink:href="#DejaVuSans-44" transform="translate(104.785156 0.015625)"/>
      <use xlink:href="#DejaVuSans-54" transform="translate(181.787109 0.015625)"/>
      <use xlink:href="#DejaVuSans-20" transform="translate(242.871094 0.015625)"/>
      <use xlink:href="#DejaVuSans-2191" transform="translate(294.140625 0.015625)"/>
     </g>
    </g>
   </g>
   <g id="PolyCollection_1">
    <defs>
     <path id="mc1ea6b2620" d="M 118.360416 -348.827649 
L 118.014584 -348.827649 
L 117.941491 -351.856946 
L 117.847307 -354.886243 
L 117.730207 -357.91554 
L 117.589917 -360.944837 
L 117.428249 -363.974134 
L 117.24947 -367.003431 
L 117.06038 -370.032728 
L 116.87 -373.062025 
L 116.68885 -376.091322 
L 116.527845 -379.120618 
L 116.39697 -382.149915 
L 116.30393 -385.179212 
L 116.253024 -388.208509 
L 116.244482 -391.237806 
L 116.274411 -394.267103 
L 116.335408 -397.2964 
L 116.417739 -400.325697 
L 116.510893 -403.354994 
L 116.605206 -406.384291 
L 116.69327 -409.413588 
L 116.770852 -412.442885 
L 116.837183 -415.472181 
L 116.894596 -418.501478 
L 116.947621 -421.530775 
L 117.001759 -424.560072 
L 117.062198 -427.589369 
L 117.132727 -430.618666 
L 117.215027 -433.647963 
L 117.308441 -436.67726 
L 117.410175 -439.706557 
L 117.515836 -442.735854 
L 117.620113 -445.765151 
L 117.717438 -448.794448 
L 117.802471 -451.823744 
L 117.870318 -454.853041 
L 117.916466 -457.882338 
L 117.936495 -460.911635 
L 117.925656 -463.940932 
L 117.878448 -466.970229 
L 117.788315 -469.999526 
L 117.647577 -473.028823 
L 117.447655 -476.05812 
L 117.179589 -479.087417 
L 116.834822 -482.116714 
L 116.406114 -485.146011 
L 115.888444 -488.175308 
L 115.279714 -491.204604 
L 114.581089 -494.233901 
L 113.796855 -497.263198 
L 112.933751 -500.292495 
L 111.999842 -503.321792 
L 111.003106 -506.351089 
L 109.949959 -509.380386 
L 108.844022 -512.409683 
L 107.685392 -515.43898 
L 106.470636 -518.468277 
L 105.193598 -521.497574 
L 103.846975 -524.526871 
L 102.424466 -527.556167 
L 100.923112 -530.585464 
L 99.345386 -533.614761 
L 97.700544 -536.644058 
L 96.004843 -539.673355 
L 94.280452 -542.702652 
L 92.553177 -545.731949 
L 90.849458 -548.761246 
L 89.19336 -551.790543 
L 87.604404 -554.81984 
L 86.096958 -557.849137 
L 84.681596 -560.878434 
L 83.368323 -563.907731 
L 82.171025 -566.937027 
L 81.112071 -569.966324 
L 80.225785 -572.995621 
L 79.559585 -576.024918 
L 79.172015 -579.054215 
L 79.1275 -582.083512 
L 79.488381 -585.112809 
L 80.305421 -588.142106 
L 81.608436 -591.171403 
L 83.398757 -594.2007 
L 85.645042 -597.229997 
L 88.283329 -600.259294 
L 91.221509 -603.28859 
L 94.347554 -606.317887 
L 97.540223 -609.347184 
L 100.680523 -612.376481 
L 103.662228 -615.405778 
L 106.400005 -618.435075 
L 108.834264 -621.464372 
L 110.932482 -624.493669 
L 112.68737 -627.522966 
L 114.112658 -630.552263 
L 115.237542 -633.58156 
L 116.100769 -636.610857 
L 116.74522 -639.640153 
L 117.213502 -642.66945 
L 117.544836 -645.698747 
L 117.773198 -648.728044 
L 118.601802 -648.728044 
L 118.601802 -648.728044 
L 118.830164 -645.698747 
L 119.161498 -642.66945 
L 119.62978 -639.640153 
L 120.274231 -636.610857 
L 121.137458 -633.58156 
L 122.262342 -630.552263 
L 123.68763 -627.522966 
L 125.442518 -624.493669 
L 127.540736 -621.464372 
L 129.974995 -618.435075 
L 132.712772 -615.405778 
L 135.694477 -612.376481 
L 138.834777 -609.347184 
L 142.027446 -606.317887 
L 145.153491 -603.28859 
L 148.091671 -600.259294 
L 150.729958 -597.229997 
L 152.976243 -594.2007 
L 154.766564 -591.171403 
L 156.069579 -588.142106 
L 156.886619 -585.112809 
L 157.2475 -582.083512 
L 157.202985 -579.054215 
L 156.815415 -576.024918 
L 156.149215 -572.995621 
L 155.262929 -569.966324 
L 154.203975 -566.937027 
L 153.006677 -563.907731 
L 151.693404 -560.878434 
L 150.278042 -557.849137 
L 148.770596 -554.81984 
L 147.18164 -551.790543 
L 145.525542 -548.761246 
L 143.821823 -545.731949 
L 142.094548 -542.702652 
L 140.370157 -539.673355 
L 138.674456 -536.644058 
L 137.029614 -533.614761 
L 135.451888 -530.585464 
L 133.950534 -527.556167 
L 132.528025 -524.526871 
L 131.181402 -521.497574 
L 129.904364 -518.468277 
L 128.689608 -515.43898 
L 127.530978 -512.409683 
L 126.425041 -509.380386 
L 125.371894 -506.351089 
L 124.375158 -503.321792 
L 123.441249 -500.292495 
L 122.578145 -497.263198 
L 121.793911 -494.233901 
L 121.095286 -491.204604 
L 120.486556 -488.175308 
L 119.968886 -485.146011 
L 119.540178 -482.116714 
L 119.195411 -479.087417 
L 118.927345 -476.05812 
L 118.727423 -473.028823 
L 118.586685 -469.999526 
L 118.496552 -466.970229 
L 118.449344 -463.940932 
L 118.438505 -460.911635 
L 118.458534 -457.882338 
L 118.504682 -454.853041 
L 118.572529 -451.823744 
L 118.657562 -448.794448 
L 118.754887 -445.765151 
L 118.859164 -442.735854 
L 118.964825 -439.706557 
L 119.066559 -436.67726 
L 119.159973 -433.647963 
L 119.242273 -430.618666 
L 119.312802 -427.589369 
L 119.373241 -424.560072 
L 119.427379 -421.530775 
L 119.480404 -418.501478 
L 119.537817 -415.472181 
L 119.604148 -412.442885 
L 119.68173 -409.413588 
L 119.769794 -406.384291 
L 119.864107 -403.354994 
L 119.957261 -400.325697 
L 120.039592 -397.2964 
L 120.100589 -394.267103 
L 120.130518 -391.237806 
L 120.121976 -388.208509 
L 120.07107 -385.179212 
L 119.97803 -382.149915 
L 119.847155 -379.120618 
L 119.68615 -376.091322 
L 119.505 -373.062025 
L 119.31462 -370.032728 
L 119.12553 -367.003431 
L 118.946751 -363.974134 
L 118.785083 -360.944837 
L 118.644793 -357.91554 
L 118.527693 -354.886243 
L 118.433509 -351.856946 
L 118.360416 -348.827649 
z
" style="stroke: #3d3d3d; stroke-opacity: 0.5"/>
    </defs>
    <g clip-path="url(#p1460028ec5)">
     <use xlink:href="#mc1ea6b2620" x="0" y="696.702001" style="fill: #d684bd; fill-opacity: 0.5; stroke: #3d3d3d; stroke-opacity: 0.5"/>
    </g>
   </g>
   <g id="PolyCollection_2">
    <defs>
     <path id="ma5e1f01c46" d="M 216.381952 -224.380209 
L 215.293048 -224.380209 
L 215.051534 -227.972664 
L 214.7248 -231.565118 
L 214.292283 -235.157573 
L 213.731997 -238.750027 
L 213.021677 -242.342482 
L 212.140255 -245.934936 
L 211.069591 -249.527391 
L 209.796312 -253.119845 
L 208.313572 -256.7123 
L 206.622518 -260.304754 
L 204.733262 -263.897209 
L 202.665192 -267.489663 
L 200.446542 -271.082118 
L 198.113241 -274.674572 
L 195.707159 -278.267027 
L 193.273976 -281.859481 
L 190.860954 -285.451936 
L 188.514906 -289.04439 
L 186.280614 -292.636845 
L 184.199851 -296.229299 
L 182.311013 -299.821754 
L 180.649251 -303.414208 
L 179.246837 -307.006662 
L 178.133433 -310.599117 
L 177.335968 -314.191571 
L 176.877857 -317.784026 
L 176.7775 -321.37648 
L 177.046177 -324.968935 
L 177.685628 -328.561389 
L 178.685784 -332.153844 
L 180.023121 -335.746298 
L 181.660097 -339.338753 
L 183.545954 -342.931207 
L 185.618944 -346.523662 
L 187.809823 -350.116116 
L 190.046209 -353.708571 
L 192.257302 -357.301025 
L 194.378397 -360.89348 
L 196.354689 -364.485934 
L 198.144024 -368.078389 
L 199.718401 -371.670843 
L 201.064233 -375.263298 
L 202.18151 -378.855752 
L 203.082107 -382.448207 
L 203.787527 -386.040661 
L 204.326328 -389.633116 
L 204.7315 -393.22557 
L 205.037931 -396.818024 
L 205.280132 -400.410479 
L 205.490288 -404.002933 
L 205.696706 -407.595388 
L 205.92271 -411.187842 
L 206.185975 -414.780297 
L 206.498319 -418.372751 
L 206.865879 -421.965206 
L 207.289626 -425.55766 
L 207.766118 -429.150115 
L 208.288374 -432.742569 
L 208.846806 -436.335024 
L 209.430086 -439.927478 
L 210.025922 -443.519933 
L 210.621703 -447.112387 
L 211.204997 -450.704842 
L 211.763945 -454.297296 
L 212.287543 -457.889751 
L 212.76587 -461.482205 
L 213.190281 -465.07466 
L 213.553592 -468.667114 
L 213.850274 -472.259569 
L 214.076671 -475.852023 
L 214.231238 -479.444478 
L 214.314773 -483.036932 
L 214.330634 -486.629387 
L 214.284869 -490.221841 
L 214.186227 -493.814295 
L 214.045988 -497.40675 
L 213.877571 -500.999204 
L 213.69591 -504.591659 
L 213.516604 -508.184113 
L 213.354909 -511.776568 
L 213.224657 -515.369022 
L 213.137229 -518.961477 
L 213.100695 -522.553931 
L 213.119245 -526.146386 
L 213.192985 -529.73884 
L 213.318121 -533.331295 
L 213.487516 -536.923749 
L 213.691534 -540.516204 
L 213.919065 -544.108658 
L 214.15859 -547.701113 
L 214.399171 -551.293567 
L 214.631257 -554.886022 
L 214.847232 -558.478476 
L 215.041697 -562.070931 
L 215.211485 -565.663385 
L 215.355464 -569.25584 
L 215.474193 -572.848294 
L 215.569489 -576.440749 
L 215.643993 -580.033203 
L 216.031007 -580.033203 
L 216.031007 -580.033203 
L 216.105511 -576.440749 
L 216.200807 -572.848294 
L 216.319536 -569.25584 
L 216.463515 -565.663385 
L 216.633303 -562.070931 
L 216.827768 -558.478476 
L 217.043743 -554.886022 
L 217.275829 -551.293567 
L 217.51641 -547.701113 
L 217.755935 -544.108658 
L 217.983466 -540.516204 
L 218.187484 -536.923749 
L 218.356879 -533.331295 
L 218.482015 -529.73884 
L 218.555755 -526.146386 
L 218.574305 -522.553931 
L 218.537771 -518.961477 
L 218.450343 -515.369022 
L 218.320091 -511.776568 
L 218.158396 -508.184113 
L 217.97909 -504.591659 
L 217.797429 -500.999204 
L 217.629012 -497.40675 
L 217.488773 -493.814295 
L 217.390131 -490.221841 
L 217.344366 -486.629387 
L 217.360227 -483.036932 
L 217.443762 -479.444478 
L 217.598329 -475.852023 
L 217.824726 -472.259569 
L 218.121408 -468.667114 
L 218.484719 -465.07466 
L 218.90913 -461.482205 
L 219.387457 -457.889751 
L 219.911055 -454.297296 
L 220.470003 -450.704842 
L 221.053297 -447.112387 
L 221.649078 -443.519933 
L 222.244914 -439.927478 
L 222.828194 -436.335024 
L 223.386626 -432.742569 
L 223.908882 -429.150115 
L 224.385374 -425.55766 
L 224.809121 -421.965206 
L 225.176681 -418.372751 
L 225.489025 -414.780297 
L 225.75229 -411.187842 
L 225.978294 -407.595388 
L 226.184712 -404.002933 
L 226.394868 -400.410479 
L 226.637069 -396.818024 
L 226.9435 -393.22557 
L 227.348672 -389.633116 
L 227.887473 -386.040661 
L 228.592893 -382.448207 
L 229.49349 -378.855752 
L 230.610767 -375.263298 
L 231.956599 -371.670843 
L 233.530976 -368.078389 
L 235.320311 -364.485934 
L 237.296603 -360.89348 
L 239.417698 -357.301025 
L 241.628791 -353.708571 
L 243.865177 -350.116116 
L 246.056056 -346.523662 
L 248.129046 -342.931207 
L 250.014903 -339.338753 
L 251.651879 -335.746298 
L 252.989216 -332.153844 
L 253.989372 -328.561389 
L 254.628823 -324.968935 
L 254.8975 -321.37648 
L 254.797143 -317.784026 
L 254.339032 -314.191571 
L 253.541567 -310.599117 
L 252.428163 -307.006662 
L 251.025749 -303.414208 
L 249.363987 -299.821754 
L 247.475149 -296.229299 
L 245.394386 -292.636845 
L 243.160094 -289.04439 
L 240.814046 -285.451936 
L 238.401024 -281.859481 
L 235.967841 -278.267027 
L 233.561759 -274.674572 
L 231.228458 -271.082118 
L 229.009808 -267.489663 
L 226.941738 -263.897209 
L 225.052482 -260.304754 
L 223.361428 -256.7123 
L 221.878688 -253.119845 
L 220.605409 -249.527391 
L 219.534745 -245.934936 
L 218.653323 -242.342482 
L 217.943003 -238.750027 
L 217.382717 -235.157573 
L 216.9502 -231.565118 
L 216.623466 -227.972664 
L 216.381952 -224.380209 
z
" style="stroke: #3d3d3d; stroke-opacity: 0.5"/>
    </defs>
    <g clip-path="url(#p1460028ec5)">
     <use xlink:href="#ma5e1f01c46" x="0" y="696.702001" style="fill: #7f7f7f; fill-opacity: 0.5; stroke: #3d3d3d; stroke-opacity: 0.5"/>
    </g>
   </g>
   <g id="PolyCollection_3">
    <defs>
     <path id="m17fd2a980e" d="M 313.64682 -480.211425 
L 313.32818 -480.211425 
L 313.259641 -480.327455 
L 313.172876 -480.443485 
L 313.068062 -480.559515 
L 312.947585 -480.675545 
L 312.816351 -480.791575 
L 312.681675 -480.907605 
L 312.552634 -481.023636 
L 312.438889 -481.139666 
L 312.349098 -481.255696 
L 312.289188 -481.371726 
L 312.260808 -481.487756 
L 312.260296 -481.603786 
L 312.278408 -481.719816 
L 312.300896 -481.835846 
L 312.309881 -481.951876 
L 312.285777 -482.067906 
L 312.209425 -482.183937 
L 312.064066 -482.299967 
L 311.836762 -482.415997 
L 311.518983 -482.532027 
L 311.106193 -482.648057 
L 310.596448 -482.764087 
L 309.988234 -482.880117 
L 309.277984 -482.996147 
L 308.457881 -483.112177 
L 307.514584 -483.228207 
L 306.429456 -483.344238 
L 305.180564 -483.460268 
L 303.746381 -483.576298 
L 302.110663 -483.692328 
L 300.267635 -483.808358 
L 298.226428 -483.924388 
L 296.013736 -484.040418 
L 293.67395 -484.156448 
L 291.266456 -484.272478 
L 288.860379 -484.388508 
L 286.527538 -484.504539 
L 284.334803 -484.620569 
L 282.337152 -484.736599 
L 280.572643 -484.852629 
L 279.060117 -484.968659 
L 277.799928 -485.084689 
L 276.777469 -485.200719 
L 275.968757 -485.316749 
L 275.347091 -485.432779 
L 274.889678 -485.54881 
L 274.5832 -485.66484 
L 274.4275 -485.78087 
L 274.436809 -485.8969 
L 274.63825 -486.01293 
L 275.067702 -486.12896 
L 275.763484 -486.24499 
L 276.758678 -486.36102 
L 278.07326 -486.47705 
L 279.707377 -486.59308 
L 281.637059 -486.709111 
L 283.813412 -486.825141 
L 286.165733 -486.941171 
L 288.60835 -487.057201 
L 291.050178 -487.173231 
L 293.405447 -487.289261 
L 295.603666 -487.405291 
L 297.597006 -487.521321 
L 299.363741 -487.637351 
L 300.90717 -487.753381 
L 302.250411 -487.869412 
L 303.428312 -487.985442 
L 304.478306 -488.101472 
L 305.432196 -488.217502 
L 306.310505 -488.333532 
L 307.120355 -488.449562 
L 307.856943 -488.565592 
L 308.50784 -488.681622 
L 309.05878 -488.797652 
L 309.499374 -488.913683 
L 309.827383 -489.029713 
L 310.050697 -489.145743 
L 310.186777 -489.261773 
L 310.260002 -489.377803 
L 310.29775 -489.493833 
L 310.326285 -489.609863 
L 310.367379 -489.725893 
L 310.43627 -489.841923 
L 310.541136 -489.957953 
L 310.683854 -490.073984 
L 310.861529 -490.190014 
L 311.068234 -490.306044 
L 311.296518 -490.422074 
L 311.538432 -490.538104 
L 311.786103 -490.654134 
L 312.031999 -490.770164 
L 312.269098 -490.886194 
L 312.491109 -491.002224 
L 312.692784 -491.118254 
L 312.87027 -491.234285 
L 313.021375 -491.350315 
L 313.145665 -491.466345 
L 313.244332 -491.582375 
L 313.319865 -491.698405 
L 313.655135 -491.698405 
L 313.655135 -491.698405 
L 313.730668 -491.582375 
L 313.829335 -491.466345 
L 313.953625 -491.350315 
L 314.10473 -491.234285 
L 314.282216 -491.118254 
L 314.483891 -491.002224 
L 314.705902 -490.886194 
L 314.943001 -490.770164 
L 315.188897 -490.654134 
L 315.436568 -490.538104 
L 315.678482 -490.422074 
L 315.906766 -490.306044 
L 316.113471 -490.190014 
L 316.291146 -490.073984 
L 316.433864 -489.957953 
L 316.53873 -489.841923 
L 316.607621 -489.725893 
L 316.648715 -489.609863 
L 316.67725 -489.493833 
L 316.714998 -489.377803 
L 316.788223 -489.261773 
L 316.924303 -489.145743 
L 317.147617 -489.029713 
L 317.475626 -488.913683 
L 317.91622 -488.797652 
L 318.46716 -488.681622 
L 319.118057 -488.565592 
L 319.854645 -488.449562 
L 320.664495 -488.333532 
L 321.542804 -488.217502 
L 322.496694 -488.101472 
L 323.546688 -487.985442 
L 324.724589 -487.869412 
L 326.06783 -487.753381 
L 327.611259 -487.637351 
L 329.377994 -487.521321 
L 331.371334 -487.405291 
L 333.569553 -487.289261 
L 335.924822 -487.173231 
L 338.36665 -487.057201 
L 340.809267 -486.941171 
L 343.161588 -486.825141 
L 345.337941 -486.709111 
L 347.267623 -486.59308 
L 348.90174 -486.47705 
L 350.216322 -486.36102 
L 351.211516 -486.24499 
L 351.907298 -486.12896 
L 352.33675 -486.01293 
L 352.538191 -485.8969 
L 352.5475 -485.78087 
L 352.3918 -485.66484 
L 352.085322 -485.54881 
L 351.627909 -485.432779 
L 351.006243 -485.316749 
L 350.197531 -485.200719 
L 349.175072 -485.084689 
L 347.914883 -484.968659 
L 346.402357 -484.852629 
L 344.637848 -484.736599 
L 342.640197 -484.620569 
L 340.447462 -484.504539 
L 338.114621 -484.388508 
L 335.708544 -484.272478 
L 333.30105 -484.156448 
L 330.961264 -484.040418 
L 328.748572 -483.924388 
L 326.707365 -483.808358 
L 324.864337 -483.692328 
L 323.228619 -483.576298 
L 321.794436 -483.460268 
L 320.545544 -483.344238 
L 319.460416 -483.228207 
L 318.517119 -483.112177 
L 317.697016 -482.996147 
L 316.986766 -482.880117 
L 316.378552 -482.764087 
L 315.868807 -482.648057 
L 315.456017 -482.532027 
L 315.138238 -482.415997 
L 314.910934 -482.299967 
L 314.765575 -482.183937 
L 314.689223 -482.067906 
L 314.665119 -481.951876 
L 314.674104 -481.835846 
L 314.696592 -481.719816 
L 314.714704 -481.603786 
L 314.714192 -481.487756 
L 314.685812 -481.371726 
L 314.625902 -481.255696 
L 314.536111 -481.139666 
L 314.422366 -481.023636 
L 314.293325 -480.907605 
L 314.158649 -480.791575 
L 314.027415 -480.675545 
L 313.906938 -480.559515 
L 313.802124 -480.443485 
L 313.715359 -480.327455 
L 313.64682 -480.211425 
z
" style="stroke: #3d3d3d; stroke-opacity: 0.5"/>
    </defs>
    <g clip-path="url(#p1460028ec5)">
     <use xlink:href="#m17fd2a980e" x="0" y="696.702001" style="fill: #9372b2; fill-opacity: 0.5; stroke: #3d3d3d; stroke-opacity: 0.5"/>
    </g>
   </g>
   <g id="PolyCollection_4">
    <defs>
     <path id="m55b1c87abe" d="M 411.281758 -450.140421 
L 410.993242 -450.140421 
L 410.932947 -451.948946 
L 410.857002 -453.757471 
L 410.765525 -455.565996 
L 410.660459 -457.374521 
L 410.545862 -459.183046 
L 410.427896 -460.991571 
L 410.314435 -462.800096 
L 410.214266 -464.608621 
L 410.136003 -466.417146 
L 410.086872 -468.225671 
L 410.071606 -470.034196 
L 410.091688 -471.842721 
L 410.145094 -473.651245 
L 410.226602 -475.45977 
L 410.328573 -477.268295 
L 410.442036 -479.07682 
L 410.557826 -480.885345 
L 410.667535 -482.69387 
L 410.764108 -484.502395 
L 410.842007 -486.31092 
L 410.896965 -488.119445 
L 410.925451 -489.92797 
L 410.924012 -491.736495 
L 410.888661 -493.54502 
L 410.814469 -495.353544 
L 410.695462 -497.162069 
L 410.524845 -498.970594 
L 410.295513 -500.779119 
L 410.000741 -502.587644 
L 409.634886 -504.396169 
L 409.193971 -506.204694 
L 408.676026 -508.013219 
L 408.081201 -509.821744 
L 407.411738 -511.630269 
L 406.671992 -513.438794 
L 405.868713 -515.247319 
L 405.011676 -517.055844 
L 404.11459 -518.864368 
L 403.195977 -520.672893 
L 402.279499 -522.481418 
L 401.39322 -524.289943 
L 400.567387 -526.098468 
L 399.830731 -527.906993 
L 399.205682 -529.715518 
L 398.703387 -531.524043 
L 398.319602 -533.332568 
L 398.032511 -535.141093 
L 397.803171 -536.949618 
L 397.578715 -538.758143 
L 397.297887 -540.566668 
L 396.89796 -542.375192 
L 396.321911 -544.183717 
L 395.524749 -545.992242 
L 394.478177 -547.800767 
L 393.173175 -549.609292 
L 391.620446 -551.417817 
L 389.849005 -553.226342 
L 387.903315 -555.034867 
L 385.839487 -556.843392 
L 383.721021 -558.651917 
L 381.614563 -560.460442 
L 379.586117 -562.268967 
L 377.698061 -564.077491 
L 376.007244 -565.886016 
L 374.564204 -567.694541 
L 373.413331 -569.503066 
L 372.593521 -571.311591 
L 372.138691 -573.120116 
L 372.0775 -574.928641 
L 372.431819 -576.737166 
L 373.213894 -578.545691 
L 374.422632 -580.354216 
L 376.039889 -582.162741 
L 378.027888 -583.971266 
L 380.328803 -585.779791 
L 382.867154 -587.588315 
L 385.555001 -589.39684 
L 388.299284 -591.205365 
L 391.010082 -593.01389 
L 393.60837 -594.822415 
L 396.031969 -596.63094 
L 398.238832 -598.439465 
L 400.207397 -600.24799 
L 401.934352 -602.056515 
L 403.430575 -603.86504 
L 404.716246 -605.673565 
L 405.816061 -607.48209 
L 406.755278 -609.290614 
L 407.55699 -611.099139 
L 408.240702 -612.907664 
L 408.822034 -614.716189 
L 409.313225 -616.524714 
L 409.724056 -618.333239 
L 410.062842 -620.141764 
L 410.337265 -621.950289 
L 410.554906 -623.758814 
L 410.723447 -625.567339 
L 410.850611 -627.375864 
L 410.943925 -629.184389 
L 411.331075 -629.184389 
L 411.331075 -629.184389 
L 411.424389 -627.375864 
L 411.551553 -625.567339 
L 411.720094 -623.758814 
L 411.937735 -621.950289 
L 412.212158 -620.141764 
L 412.550944 -618.333239 
L 412.961775 -616.524714 
L 413.452966 -614.716189 
L 414.034298 -612.907664 
L 414.71801 -611.099139 
L 415.519722 -609.290614 
L 416.458939 -607.48209 
L 417.558754 -605.673565 
L 418.844425 -603.86504 
L 420.340648 -602.056515 
L 422.067603 -600.24799 
L 424.036168 -598.439465 
L 426.243031 -596.63094 
L 428.66663 -594.822415 
L 431.264918 -593.01389 
L 433.975716 -591.205365 
L 436.719999 -589.39684 
L 439.407846 -587.588315 
L 441.946197 -585.779791 
L 444.247112 -583.971266 
L 446.235111 -582.162741 
L 447.852368 -580.354216 
L 449.061106 -578.545691 
L 449.843181 -576.737166 
L 450.1975 -574.928641 
L 450.136309 -573.120116 
L 449.681479 -571.311591 
L 448.861669 -569.503066 
L 447.710796 -567.694541 
L 446.267756 -565.886016 
L 444.576939 -564.077491 
L 442.688883 -562.268967 
L 440.660437 -560.460442 
L 438.553979 -558.651917 
L 436.435513 -556.843392 
L 434.371685 -555.034867 
L 432.425995 -553.226342 
L 430.654554 -551.417817 
L 429.101825 -549.609292 
L 427.796823 -547.800767 
L 426.750251 -545.992242 
L 425.953089 -544.183717 
L 425.37704 -542.375192 
L 424.977113 -540.566668 
L 424.696285 -538.758143 
L 424.471829 -536.949618 
L 424.242489 -535.141093 
L 423.955398 -533.332568 
L 423.571613 -531.524043 
L 423.069318 -529.715518 
L 422.444269 -527.906993 
L 421.707613 -526.098468 
L 420.88178 -524.289943 
L 419.995501 -522.481418 
L 419.079023 -520.672893 
L 418.16041 -518.864368 
L 417.263324 -517.055844 
L 416.406287 -515.247319 
L 415.603008 -513.438794 
L 414.863262 -511.630269 
L 414.193799 -509.821744 
L 413.598974 -508.013219 
L 413.081029 -506.204694 
L 412.640114 -504.396169 
L 412.274259 -502.587644 
L 411.979487 -500.779119 
L 411.750155 -498.970594 
L 411.579538 -497.162069 
L 411.460531 -495.353544 
L 411.386339 -493.54502 
L 411.350988 -491.736495 
L 411.349549 -489.92797 
L 411.378035 -488.119445 
L 411.432993 -486.31092 
L 411.510892 -484.502395 
L 411.607465 -482.69387 
L 411.717174 -480.885345 
L 411.832964 -479.07682 
L 411.946427 -477.268295 
L 412.048398 -475.45977 
L 412.129906 -473.651245 
L 412.183312 -471.842721 
L 412.203394 -470.034196 
L 412.188128 -468.225671 
L 412.138997 -466.417146 
L 412.060734 -464.608621 
L 411.960565 -462.800096 
L 411.847104 -460.991571 
L 411.729138 -459.183046 
L 411.614541 -457.374521 
L 411.509475 -455.565996 
L 411.417998 -453.757471 
L 411.342053 -451.948946 
L 411.281758 -450.140421 
z
" style="stroke: #3d3d3d; stroke-opacity: 0.5"/>
    </defs>
    <g clip-path="url(#p1460028ec5)">
     <use xlink:href="#m55b1c87abe" x="0" y="696.702001" style="fill: #845b53; fill-opacity: 0.5; stroke: #3d3d3d; stroke-opacity: 0.5"/>
    </g>
   </g>
   <g id="PolyCollection_5">
    <defs>
     <path id="m5a5c7cc7f2" d="M 508.971821 -223.266989 
L 508.603179 -223.266989 
L 508.524295 -224.415158 
L 508.422225 -225.563326 
L 508.294739 -226.711494 
L 508.141211 -227.859662 
L 507.963219 -229.00783 
L 507.764995 -230.155998 
L 507.553609 -231.304166 
L 507.338779 -232.452335 
L 507.132271 -233.600503 
L 506.946912 -234.748671 
L 506.795308 -235.896839 
L 506.68846 -237.045007 
L 506.634463 -238.193175 
L 506.637506 -239.341344 
L 506.697348 -240.489512 
L 506.809346 -241.63768 
L 506.965033 -242.785848 
L 507.15315 -243.934016 
L 507.360959 -245.082184 
L 507.575613 -246.230352 
L 507.785386 -247.378521 
L 507.980592 -248.526689 
L 508.154095 -249.674857 
L 508.301389 -250.823025 
L 508.420315 -251.971193 
L 508.510499 -253.119361 
L 508.57267 -254.267529 
L 508.607972 -255.415698 
L 508.617385 -256.563866 
L 508.60133 -257.712034 
L 508.559476 -258.860202 
L 508.490723 -260.00837 
L 508.393302 -261.156538 
L 508.264879 -262.304706 
L 508.102568 -263.452875 
L 507.902731 -264.601043 
L 507.660537 -265.749211 
L 507.36929 -266.897379 
L 507.019673 -268.045547 
L 506.599107 -269.193715 
L 506.091544 -270.341883 
L 505.477956 -271.490052 
L 504.737727 -272.63822 
L 503.850967 -273.786388 
L 502.801522 -274.934556 
L 501.580217 -276.082724 
L 500.18771 -277.230892 
L 498.63625 -278.37906 
L 496.949811 -279.527229 
L 495.162331 -280.675397 
L 493.314209 -281.823565 
L 491.447617 -282.971733 
L 489.601477 -284.119901 
L 487.80709 -285.268069 
L 486.085225 -286.416238 
L 484.445209 -287.564406 
L 482.886054 -288.712574 
L 481.399299 -289.860742 
L 479.97291 -291.00891 
L 478.595473 -292.157078 
L 477.260003 -293.305246 
L 475.966828 -294.453415 
L 474.725265 -295.601583 
L 473.553935 -296.749751 
L 472.479738 -297.897919 
L 471.535581 -299.046087 
L 470.757067 -300.194255 
L 470.178499 -301.342423 
L 469.828731 -302.490592 
L 469.7275 -303.63876 
L 469.882947 -304.786928 
L 470.290849 -305.935096 
L 470.935799 -307.083264 
L 471.794159 -308.231432 
L 472.838164 -309.3796 
L 474.040307 -310.527769 
L 475.377062 -311.675937 
L 476.831173 -312.824105 
L 478.392113 -313.972273 
L 480.054763 -315.120441 
L 481.816733 -316.268609 
L 483.675015 -317.416777 
L 485.622707 -318.564946 
L 487.646464 -319.713114 
L 489.725115 -320.861282 
L 491.82966 -322.00945 
L 493.924589 -323.157618 
L 495.970321 -324.305786 
L 497.92637 -325.453954 
L 499.754792 -326.602123 
L 501.423425 -327.750291 
L 502.908477 -328.898459 
L 504.196131 -330.046627 
L 505.282988 -331.194795 
L 506.175373 -332.342963 
L 506.887691 -333.491132 
L 507.440165 -334.6393 
L 507.856341 -335.787468 
L 508.160716 -336.935636 
L 509.414284 -336.935636 
L 509.414284 -336.935636 
L 509.718659 -335.787468 
L 510.134835 -334.6393 
L 510.687309 -333.491132 
L 511.399627 -332.342963 
L 512.292012 -331.194795 
L 513.378869 -330.046627 
L 514.666523 -328.898459 
L 516.151575 -327.750291 
L 517.820208 -326.602123 
L 519.64863 -325.453954 
L 521.604679 -324.305786 
L 523.650411 -323.157618 
L 525.74534 -322.00945 
L 527.849885 -320.861282 
L 529.928536 -319.713114 
L 531.952293 -318.564946 
L 533.899985 -317.416777 
L 535.758267 -316.268609 
L 537.520237 -315.120441 
L 539.182887 -313.972273 
L 540.743827 -312.824105 
L 542.197938 -311.675937 
L 543.534693 -310.527769 
L 544.736836 -309.3796 
L 545.780841 -308.231432 
L 546.639201 -307.083264 
L 547.284151 -305.935096 
L 547.692053 -304.786928 
L 547.8475 -303.63876 
L 547.746269 -302.490592 
L 547.396501 -301.342423 
L 546.817933 -300.194255 
L 546.039419 -299.046087 
L 545.095262 -297.897919 
L 544.021065 -296.749751 
L 542.849735 -295.601583 
L 541.608172 -294.453415 
L 540.314997 -293.305246 
L 538.979527 -292.157078 
L 537.60209 -291.00891 
L 536.175701 -289.860742 
L 534.688946 -288.712574 
L 533.129791 -287.564406 
L 531.489775 -286.416238 
L 529.76791 -285.268069 
L 527.973523 -284.119901 
L 526.127383 -282.971733 
L 524.260791 -281.823565 
L 522.412669 -280.675397 
L 520.625189 -279.527229 
L 518.93875 -278.37906 
L 517.38729 -277.230892 
L 515.994783 -276.082724 
L 514.773478 -274.934556 
L 513.724033 -273.786388 
L 512.837273 -272.63822 
L 512.097044 -271.490052 
L 511.483456 -270.341883 
L 510.975893 -269.193715 
L 510.555327 -268.045547 
L 510.20571 -266.897379 
L 509.914463 -265.749211 
L 509.672269 -264.601043 
L 509.472432 -263.452875 
L 509.310121 -262.304706 
L 509.181698 -261.156538 
L 509.084277 -260.00837 
L 509.015524 -258.860202 
L 508.97367 -257.712034 
L 508.957615 -256.563866 
L 508.967028 -255.415698 
L 509.00233 -254.267529 
L 509.064501 -253.119361 
L 509.154685 -251.971193 
L 509.273611 -250.823025 
L 509.420905 -249.674857 
L 509.594408 -248.526689 
L 509.789614 -247.378521 
L 509.999387 -246.230352 
L 510.214041 -245.082184 
L 510.42185 -243.934016 
L 510.609967 -242.785848 
L 510.765654 -241.63768 
L 510.877652 -240.489512 
L 510.937494 -239.341344 
L 510.940537 -238.193175 
L 510.88654 -237.045007 
L 510.779692 -235.896839 
L 510.628088 -234.748671 
L 510.442729 -233.600503 
L 510.236221 -232.452335 
L 510.021391 -231.304166 
L 509.810005 -230.155998 
L 509.611781 -229.00783 
L 509.433789 -227.859662 
L 509.280261 -226.711494 
L 509.152775 -225.563326 
L 509.050705 -224.415158 
L 508.971821 -223.266989 
z
" style="stroke: #3d3d3d; stroke-opacity: 0.5"/>
    </defs>
    <g clip-path="url(#p1460028ec5)">
     <use xlink:href="#m5a5c7cc7f2" x="0" y="696.702001" style="fill: #3274a1; fill-opacity: 0.5; stroke: #3d3d3d; stroke-opacity: 0.5"/>
    </g>
   </g>
   <g id="PolyCollection_6">
    <defs>
     <path id="m07335c53ae" d="M 607.059441 -160.302001 
L 605.815559 -160.302001 
L 605.585855 -164.993796 
L 605.290671 -169.68559 
L 604.918567 -174.377384 
L 604.458463 -179.069178 
L 603.900455 -183.760973 
L 603.236736 -188.452767 
L 602.462533 -193.144561 
L 601.576969 -197.836356 
L 600.583744 -202.52815 
L 599.491514 -207.219944 
L 598.313885 -211.911738 
L 597.068968 -216.603533 
L 595.778477 -221.295327 
L 594.46642 -225.987121 
L 593.157497 -230.678915 
L 591.875332 -235.37071 
L 590.640757 -240.062504 
L 589.470301 -244.754298 
L 588.375079 -249.446092 
L 587.360196 -254.137887 
L 586.424722 -258.829681 
L 585.562226 -263.521475 
L 584.761784 -268.21327 
L 584.009304 -272.905064 
L 583.288985 -277.596858 
L 582.58473 -282.288652 
L 581.88134 -286.980447 
L 581.165396 -291.672241 
L 580.425771 -296.364035 
L 579.653836 -301.055829 
L 578.843433 -305.747624 
L 577.990788 -310.439418 
L 577.094481 -315.131212 
L 576.155625 -319.823007 
L 575.178287 -324.514801 
L 574.170154 -329.206595 
L 573.143329 -333.898389 
L 572.115083 -338.590184 
L 571.108352 -343.281978 
L 570.151743 -347.973772 
L 569.278898 -352.665566 
L 568.527101 -357.357361 
L 567.935176 -362.049155 
L 567.540799 -366.740949 
L 567.3775 -371.432744 
L 567.47168 -376.124538 
L 567.840008 -380.816332 
L 568.487536 -385.508126 
L 569.406775 -390.199921 
L 570.577874 -394.891715 
L 571.96988 -399.583509 
L 573.542921 -404.275303 
L 575.251044 -408.967098 
L 577.045359 -413.658892 
L 578.877128 -418.350686 
L 580.700488 -423.042481 
L 582.474566 -427.734275 
L 584.164865 -432.426069 
L 585.743928 -437.117863 
L 587.191384 -441.809658 
L 588.493547 -446.501452 
L 589.642776 -451.193246 
L 590.636787 -455.88504 
L 591.478049 -460.576835 
L 592.173336 -465.268629 
L 592.733417 -469.960423 
L 593.172827 -474.652218 
L 593.509581 -479.344012 
L 593.76476 -484.035806 
L 593.961836 -488.7276 
L 594.125741 -493.419395 
L 594.281668 -498.111189 
L 594.453712 -502.802983 
L 594.663468 -507.494777 
L 594.928728 -512.186572 
L 595.262446 -516.878366 
L 595.672058 -521.57016 
L 596.159263 -526.261955 
L 596.720244 -530.953749 
L 597.34632 -535.645543 
L 598.024925 -540.337337 
L 598.740789 -545.029132 
L 599.477213 -549.720926 
L 600.217292 -554.41272 
L 600.944994 -559.104514 
L 601.646023 -563.796309 
L 602.308423 -568.488103 
L 602.922927 -573.179897 
L 603.483067 -577.871692 
L 603.985076 -582.563486 
L 604.427651 -587.25528 
L 604.811604 -591.947074 
L 605.139466 -596.638869 
L 605.415067 -601.330663 
L 605.643135 -606.022457 
L 605.828923 -610.714251 
L 605.977891 -615.406046 
L 606.095439 -620.09784 
L 606.186702 -624.789634 
L 606.688298 -624.789634 
L 606.688298 -624.789634 
L 606.779561 -620.09784 
L 606.897109 -615.406046 
L 607.046077 -610.714251 
L 607.231865 -606.022457 
L 607.459933 -601.330663 
L 607.735534 -596.638869 
L 608.063396 -591.947074 
L 608.447349 -587.25528 
L 608.889924 -582.563486 
L 609.391933 -577.871692 
L 609.952073 -573.179897 
L 610.566577 -568.488103 
L 611.228977 -563.796309 
L 611.930006 -559.104514 
L 612.657708 -554.41272 
L 613.397787 -549.720926 
L 614.134211 -545.029132 
L 614.850075 -540.337337 
L 615.52868 -535.645543 
L 616.154756 -530.953749 
L 616.715737 -526.261955 
L 617.202942 -521.57016 
L 617.612554 -516.878366 
L 617.946272 -512.186572 
L 618.211532 -507.494777 
L 618.421288 -502.802983 
L 618.593332 -498.111189 
L 618.749259 -493.419395 
L 618.913164 -488.7276 
L 619.11024 -484.035806 
L 619.365419 -479.344012 
L 619.702173 -474.652218 
L 620.141583 -469.960423 
L 620.701664 -465.268629 
L 621.396951 -460.576835 
L 622.238213 -455.88504 
L 623.232224 -451.193246 
L 624.381453 -446.501452 
L 625.683616 -441.809658 
L 627.131072 -437.117863 
L 628.710135 -432.426069 
L 630.400434 -427.734275 
L 632.174512 -423.042481 
L 633.997872 -418.350686 
L 635.829641 -413.658892 
L 637.623956 -408.967098 
L 639.332079 -404.275303 
L 640.90512 -399.583509 
L 642.297126 -394.891715 
L 643.468225 -390.199921 
L 644.387464 -385.508126 
L 645.034992 -380.816332 
L 645.40332 -376.124538 
L 645.4975 -371.432744 
L 645.334201 -366.740949 
L 644.939824 -362.049155 
L 644.347899 -357.357361 
L 643.596102 -352.665566 
L 642.723257 -347.973772 
L 641.766648 -343.281978 
L 640.759917 -338.590184 
L 639.731671 -333.898389 
L 638.704846 -329.206595 
L 637.696713 -324.514801 
L 636.719375 -319.823007 
L 635.780519 -315.131212 
L 634.884212 -310.439418 
L 634.031567 -305.747624 
L 633.221164 -301.055829 
L 632.449229 -296.364035 
L 631.709604 -291.672241 
L 630.99366 -286.980447 
L 630.29027 -282.288652 
L 629.586015 -277.596858 
L 628.865696 -272.905064 
L 628.113216 -268.21327 
L 627.312774 -263.521475 
L 626.450278 -258.829681 
L 625.514804 -254.137887 
L 624.499921 -249.446092 
L 623.404699 -244.754298 
L 622.234243 -240.062504 
L 620.999668 -235.37071 
L 619.717503 -230.678915 
L 618.40858 -225.987121 
L 617.096523 -221.295327 
L 615.806032 -216.603533 
L 614.561115 -211.911738 
L 613.383486 -207.219944 
L 612.291256 -202.52815 
L 611.298031 -197.836356 
L 610.412467 -193.144561 
L 609.638264 -188.452767 
L 608.974545 -183.760973 
L 608.416537 -179.069178 
L 607.956433 -174.377384 
L 607.584329 -169.68559 
L 607.289145 -164.993796 
L 607.059441 -160.302001 
z
" style="stroke: #3d3d3d; stroke-opacity: 0.5"/>
    </defs>
    <g clip-path="url(#p1460028ec5)">
     <use xlink:href="#m07335c53ae" x="0" y="696.702001" style="fill: #e1812c; fill-opacity: 0.5; stroke: #3d3d3d; stroke-opacity: 0.5"/>
    </g>
   </g>
   <g id="PolyCollection_7">
    <defs>
     <path id="m36f45bb355" d="M 704.211467 -245.077728 
L 703.963533 -245.077728 
L 703.910925 -247.712534 
L 703.842405 -250.347341 
L 703.755881 -252.982147 
L 703.650011 -255.616954 
L 703.524574 -258.25176 
L 703.380802 -260.886567 
L 703.221598 -263.521373 
L 703.051586 -266.15618 
L 702.876955 -268.790986 
L 702.705065 -271.425793 
L 702.543866 -274.060599 
L 702.401161 -276.695406 
L 702.283837 -279.330212 
L 702.197145 -281.965019 
L 702.144162 -284.599826 
L 702.125515 -287.234632 
L 702.139415 -289.869439 
L 702.182005 -292.504245 
L 702.247974 -295.139052 
L 702.331308 -297.773858 
L 702.426087 -300.408665 
L 702.527152 -303.043471 
L 702.630556 -305.678278 
L 702.733711 -308.313084 
L 702.835246 -310.947891 
L 702.934622 -313.582697 
L 703.031605 -316.217504 
L 703.125747 -318.85231 
L 703.215983 -321.487117 
L 703.300438 -324.121923 
L 703.376487 -326.75673 
L 703.44105 -329.391536 
L 703.491043 -332.026343 
L 703.5239 -334.66115 
L 703.538037 -337.295956 
L 703.533178 -339.930763 
L 703.510446 -342.565569 
L 703.472208 -345.200376 
L 703.421683 -347.835182 
L 703.362361 -350.469989 
L 703.297357 -353.104795 
L 703.228792 -355.739602 
L 703.15733 -358.374408 
L 703.081972 -361.009215 
L 703.000136 -363.644021 
L 702.90801 -366.278828 
L 702.801099 -368.913634 
L 702.67482 -371.548441 
L 702.524997 -374.183247 
L 702.348089 -376.818054 
L 702.141052 -379.45286 
L 701.90078 -382.087667 
L 701.623159 -384.722473 
L 701.301822 -387.35728 
L 700.926785 -389.992087 
L 700.483152 -392.626893 
L 699.950132 -395.2617 
L 699.300605 -397.896506 
L 698.501493 -400.531313 
L 697.515143 -403.166119 
L 696.301887 -405.800926 
L 694.82384 -408.435732 
L 693.049829 -411.070539 
L 690.961152 -413.705345 
L 688.557644 -416.340152 
L 685.863286 -418.974958 
L 682.930465 -421.609765 
L 679.84193 -424.244571 
L 676.709618 -426.879378 
L 673.66981 -429.514184 
L 670.874562 -432.148991 
L 668.479928 -434.783797 
L 666.632081 -437.418604 
L 665.452986 -440.053411 
L 665.0275 -442.688217 
L 665.39381 -445.323024 
L 666.53868 -447.95783 
L 668.39834 -450.592637 
L 670.864972 -453.227443 
L 673.797848 -455.86225 
L 677.037511 -458.497056 
L 680.420931 -461.131863 
L 683.795602 -463.766669 
L 687.03086 -466.401476 
L 690.025322 -469.036282 
L 692.710084 -471.671089 
L 695.047994 -474.305895 
L 697.029843 -476.940702 
L 698.668609 -479.575508 
L 699.992898 -482.210315 
L 701.04059 -484.845121 
L 701.853393 -487.479928 
L 702.472672 -490.114735 
L 702.936649 -492.749541 
L 703.278828 -495.384348 
L 703.527397 -498.019154 
L 703.705308 -500.653961 
L 703.830757 -503.288767 
L 703.917859 -505.923574 
L 704.257141 -505.923574 
L 704.257141 -505.923574 
L 704.344243 -503.288767 
L 704.469692 -500.653961 
L 704.647603 -498.019154 
L 704.896172 -495.384348 
L 705.238351 -492.749541 
L 705.702328 -490.114735 
L 706.321607 -487.479928 
L 707.13441 -484.845121 
L 708.182102 -482.210315 
L 709.506391 -479.575508 
L 711.145157 -476.940702 
L 713.127006 -474.305895 
L 715.464916 -471.671089 
L 718.149678 -469.036282 
L 721.14414 -466.401476 
L 724.379398 -463.766669 
L 727.754069 -461.131863 
L 731.137489 -458.497056 
L 734.377152 -455.86225 
L 737.310028 -453.227443 
L 739.77666 -450.592637 
L 741.63632 -447.95783 
L 742.78119 -445.323024 
L 743.1475 -442.688217 
L 742.722014 -440.053411 
L 741.542919 -437.418604 
L 739.695072 -434.783797 
L 737.300438 -432.148991 
L 734.50519 -429.514184 
L 731.465382 -426.879378 
L 728.33307 -424.244571 
L 725.244535 -421.609765 
L 722.311714 -418.974958 
L 719.617356 -416.340152 
L 717.213848 -413.705345 
L 715.125171 -411.070539 
L 713.35116 -408.435732 
L 711.873113 -405.800926 
L 710.659857 -403.166119 
L 709.673507 -400.531313 
L 708.874395 -397.896506 
L 708.224868 -395.2617 
L 707.691848 -392.626893 
L 707.248215 -389.992087 
L 706.873178 -387.35728 
L 706.551841 -384.722473 
L 706.27422 -382.087667 
L 706.033948 -379.45286 
L 705.826911 -376.818054 
L 705.650003 -374.183247 
L 705.50018 -371.548441 
L 705.373901 -368.913634 
L 705.26699 -366.278828 
L 705.174864 -363.644021 
L 705.093028 -361.009215 
L 705.01767 -358.374408 
L 704.946208 -355.739602 
L 704.877643 -353.104795 
L 704.812639 -350.469989 
L 704.753317 -347.835182 
L 704.702792 -345.200376 
L 704.664554 -342.565569 
L 704.641822 -339.930763 
L 704.636963 -337.295956 
L 704.6511 -334.66115 
L 704.683957 -332.026343 
L 704.73395 -329.391536 
L 704.798513 -326.75673 
L 704.874562 -324.121923 
L 704.959017 -321.487117 
L 705.049253 -318.85231 
L 705.143395 -316.217504 
L 705.240378 -313.582697 
L 705.339754 -310.947891 
L 705.441289 -308.313084 
L 705.544444 -305.678278 
L 705.647848 -303.043471 
L 705.748913 -300.408665 
L 705.843692 -297.773858 
L 705.927026 -295.139052 
L 705.992995 -292.504245 
L 706.035585 -289.869439 
L 706.049485 -287.234632 
L 706.030838 -284.599826 
L 705.977855 -281.965019 
L 705.891163 -279.330212 
L 705.773839 -276.695406 
L 705.631134 -274.060599 
L 705.469935 -271.425793 
L 705.298045 -268.790986 
L 705.123414 -266.15618 
L 704.953402 -263.521373 
L 704.794198 -260.886567 
L 704.650426 -258.25176 
L 704.524989 -255.616954 
L 704.419119 -252.982147 
L 704.332595 -250.347341 
L 704.264075 -247.712534 
L 704.211467 -245.077728 
z
" style="stroke: #3d3d3d; stroke-opacity: 0.5"/>
    </defs>
    <g clip-path="url(#p1460028ec5)">
     <use xlink:href="#m36f45bb355" x="0" y="696.702001" style="fill: #3a923a; fill-opacity: 0.5; stroke: #3d3d3d; stroke-opacity: 0.5"/>
    </g>
   </g>
   <g id="PolyCollection_8">
    <defs>
     <path id="m1629d4c893" d="M 801.891454 -182.430906 
L 801.583546 -182.430906 
L 801.521421 -187.298291 
L 801.441237 -192.165675 
L 801.340668 -197.03306 
L 801.218199 -201.900445 
L 801.073558 -206.76783 
L 800.908126 -211.635215 
L 800.72525 -216.502599 
L 800.530392 -221.369984 
L 800.331048 -226.237369 
L 800.136392 -231.104754 
L 799.95665 -235.972139 
L 799.802255 -240.839524 
L 799.682851 -245.706908 
L 799.606291 -250.574293 
L 799.577761 -255.441678 
L 799.59915 -260.309063 
L 799.66878 -265.176448 
L 799.781518 -270.043832 
L 799.929271 -274.911217 
L 800.101772 -279.778602 
L 800.287548 -284.645987 
L 800.474934 -289.513372 
L 800.652999 -294.380756 
L 800.812293 -299.248141 
L 800.945345 -304.115526 
L 801.046929 -308.982911 
L 801.114087 -313.850296 
L 801.146003 -318.71768 
L 801.14376 -323.585065 
L 801.110033 -328.45245 
L 801.048778 -333.319835 
L 800.964904 -338.18722 
L 800.863966 -343.054604 
L 800.751852 -347.921989 
L 800.634487 -352.789374 
L 800.51755 -357.656759 
L 800.406216 -362.524144 
L 800.304955 -367.391528 
L 800.21738 -372.258913 
L 800.146176 -377.126298 
L 800.093078 -381.993683 
L 800.058902 -386.861068 
L 800.043569 -391.728452 
L 800.046115 -396.595837 
L 800.064623 -401.463222 
L 800.096096 -406.330607 
L 800.136233 -411.197992 
L 800.179158 -416.065376 
L 800.217147 -420.932761 
L 800.240403 -425.800146 
L 800.236955 -430.667531 
L 800.192752 -435.534916 
L 800.091984 -440.4023 
L 799.917648 -445.269685 
L 799.652341 -450.13707 
L 799.279206 -455.004455 
L 798.782944 -459.87184 
L 798.150747 -464.739224 
L 797.373041 -469.606609 
L 796.443904 -474.473994 
L 795.361092 -479.341379 
L 794.12567 -484.208764 
L 792.741303 -489.076148 
L 791.213374 -493.943533 
L 789.54815 -498.810918 
L 787.752245 -503.678303 
L 785.832636 -508.545688 
L 783.797404 -513.413072 
L 781.657268 -518.280457 
L 779.427797 -523.147842 
L 777.132058 -528.015227 
L 774.803247 -532.882612 
L 772.486796 -537.749996 
L 770.241382 -542.617381 
L 768.138363 -547.484766 
L 766.259302 -552.352151 
L 764.691517 -557.219536 
L 763.521887 -562.08692 
L 762.82943 -566.954305 
L 762.6775 -571.82169 
L 763.106535 -576.689075 
L 764.128394 -581.55646 
L 765.723133 -586.423844 
L 767.838826 -591.291229 
L 770.394606 -596.158614 
L 773.286667 -601.025999 
L 776.396535 -605.893384 
L 779.600586 -610.760769 
L 782.779658 -615.628153 
L 785.827592 -620.495538 
L 788.657808 -625.362923 
L 791.207309 -630.230308 
L 793.43796 -635.097693 
L 795.33526 -639.965077 
L 796.90512 -644.832462 
L 798.169362 -649.699847 
L 799.160695 -654.567232 
L 799.917813 -659.434617 
L 800.481155 -664.302001 
L 802.993845 -664.302001 
L 802.993845 -664.302001 
L 803.557187 -659.434617 
L 804.314305 -654.567232 
L 805.305638 -649.699847 
L 806.56988 -644.832462 
L 808.13974 -639.965077 
L 810.03704 -635.097693 
L 812.267691 -630.230308 
L 814.817192 -625.362923 
L 817.647408 -620.495538 
L 820.695342 -615.628153 
L 823.874414 -610.760769 
L 827.078465 -605.893384 
L 830.188333 -601.025999 
L 833.080394 -596.158614 
L 835.636174 -591.291229 
L 837.751867 -586.423844 
L 839.346606 -581.55646 
L 840.368465 -576.689075 
L 840.7975 -571.82169 
L 840.64557 -566.954305 
L 839.953113 -562.08692 
L 838.783483 -557.219536 
L 837.215698 -552.352151 
L 835.336637 -547.484766 
L 833.233618 -542.617381 
L 830.988204 -537.749996 
L 828.671753 -532.882612 
L 826.342942 -528.015227 
L 824.047203 -523.147842 
L 821.817732 -518.280457 
L 819.677596 -513.413072 
L 817.642364 -508.545688 
L 815.722755 -503.678303 
L 813.92685 -498.810918 
L 812.261626 -493.943533 
L 810.733697 -489.076148 
L 809.34933 -484.208764 
L 808.113908 -479.341379 
L 807.031096 -474.473994 
L 806.101959 -469.606609 
L 805.324253 -464.739224 
L 804.692056 -459.87184 
L 804.195794 -455.004455 
L 803.822659 -450.13707 
L 803.557352 -445.269685 
L 803.383016 -440.4023 
L 803.282248 -435.534916 
L 803.238045 -430.667531 
L 803.234597 -425.800146 
L 803.257853 -420.932761 
L 803.295842 -416.065376 
L 803.338767 -411.197992 
L 803.378904 -406.330607 
L 803.410377 -401.463222 
L 803.428885 -396.595837 
L 803.431431 -391.728452 
L 803.416098 -386.861068 
L 803.381922 -381.993683 
L 803.328824 -377.126298 
L 803.25762 -372.258913 
L 803.170045 -367.391528 
L 803.068784 -362.524144 
L 802.95745 -357.656759 
L 802.840513 -352.789374 
L 802.723148 -347.921989 
L 802.611034 -343.054604 
L 802.510096 -338.18722 
L 802.426222 -333.319835 
L 802.364967 -328.45245 
L 802.33124 -323.585065 
L 802.328997 -318.71768 
L 802.360913 -313.850296 
L 802.428071 -308.982911 
L 802.529655 -304.115526 
L 802.662707 -299.248141 
L 802.822001 -294.380756 
L 803.000066 -289.513372 
L 803.187452 -284.645987 
L 803.373228 -279.778602 
L 803.545729 -274.911217 
L 803.693482 -270.043832 
L 803.80622 -265.176448 
L 803.87585 -260.309063 
L 803.897239 -255.441678 
L 803.868709 -250.574293 
L 803.792149 -245.706908 
L 803.672745 -240.839524 
L 803.51835 -235.972139 
L 803.338608 -231.104754 
L 803.143952 -226.237369 
L 802.944608 -221.369984 
L 802.74975 -216.502599 
L 802.566874 -211.635215 
L 802.401442 -206.76783 
L 802.256801 -201.900445 
L 802.134332 -197.03306 
L 802.033763 -192.165675 
L 801.953579 -187.298291 
L 801.891454 -182.430906 
z
" style="stroke: #3d3d3d; stroke-opacity: 0.5"/>
    </defs>
    <g clip-path="url(#p1460028ec5)">
     <use xlink:href="#m1629d4c893" x="0" y="696.702001" style="fill: #c03d3e; fill-opacity: 0.5; stroke: #3d3d3d; stroke-opacity: 0.5"/>
    </g>
   </g>
   <g id="line2d_7">
    <path d="M 118.1875 193.70202 
L 118.1875 83.03783 
" clip-path="url(#p1460028ec5)" style="fill: none; stroke: #3d3d3d; stroke-width: 1.5; stroke-linecap: round"/>
   </g>
   <g id="line2d_8">
    <path d="M 118.1875 145.72102 
L 118.1875 106.650087 
" clip-path="url(#p1460028ec5)" style="fill: none; stroke: #3d3d3d; stroke-width: 4.5; stroke-linecap: round"/>
   </g>
   <g id="line2d_9">
    <path d="M 118.1875 123.769762 
" clip-path="url(#p1460028ec5)" style="fill: none; stroke: #3d3d3d; stroke-width: 1.5; stroke-linecap: round"/>
    <defs>
     <path id="m3d48f8d34f" d="M 1.875 0 
L -1.875 -0 
" style="stroke: #ffffff; stroke-width: 0.9"/>
    </defs>
    <g clip-path="url(#p1460028ec5)">
     <use xlink:href="#m3d48f8d34f" x="118.1875" y="123.769762" style="fill: #ffffff; stroke: #ffffff; stroke-width: 0.9"/>
    </g>
   </g>
   <g id="line2d_10">
    <path d="M 215.8375 425.327382 
L 215.8375 266.976277 
" clip-path="url(#p1460028ec5)" style="fill: none; stroke: #3d3d3d; stroke-width: 1.5; stroke-linecap: round"/>
   </g>
   <g id="line2d_11">
    <path d="M 215.8375 391.588857 
L 215.8375 341.732187 
" clip-path="url(#p1460028ec5)" style="fill: none; stroke: #3d3d3d; stroke-width: 4.5; stroke-linecap: round"/>
   </g>
   <g id="line2d_12">
    <path d="M 215.8375 366.527544 
" clip-path="url(#p1460028ec5)" style="fill: none; stroke: #3d3d3d; stroke-width: 1.5; stroke-linecap: round"/>
    <g clip-path="url(#p1460028ec5)">
     <use xlink:href="#m3d48f8d34f" x="215.8375" y="366.527544" style="fill: #ffffff; stroke: #ffffff; stroke-width: 0.9"/>
    </g>
   </g>
   <g id="line2d_13">
    <path d="M 313.4875 213.550294 
L 313.4875 208.329677 
" clip-path="url(#p1460028ec5)" style="fill: none; stroke: #3d3d3d; stroke-width: 1.5; stroke-linecap: round"/>
   </g>
   <g id="line2d_14">
    <path d="M 313.4875 211.805099 
L 313.4875 210.010079 
" clip-path="url(#p1460028ec5)" style="fill: none; stroke: #3d3d3d; stroke-width: 4.5; stroke-linecap: round"/>
   </g>
   <g id="line2d_15">
    <path d="M 313.4875 210.861124 
" clip-path="url(#p1460028ec5)" style="fill: none; stroke: #3d3d3d; stroke-width: 1.5; stroke-linecap: round"/>
    <g clip-path="url(#p1460028ec5)">
     <use xlink:href="#m3d48f8d34f" x="313.4875" y="210.861124" style="fill: #ffffff; stroke: #ffffff; stroke-width: 0.9"/>
    </g>
   </g>
   <g id="line2d_16">
    <path d="M 411.1375 175.881098 
L 411.1375 87.284793 
" clip-path="url(#p1460028ec5)" style="fill: none; stroke: #3d3d3d; stroke-width: 1.5; stroke-linecap: round"/>
   </g>
   <g id="line2d_17">
    <path d="M 411.1375 140.409315 
L 411.1375 115.693707 
" clip-path="url(#p1460028ec5)" style="fill: none; stroke: #3d3d3d; stroke-width: 4.5; stroke-linecap: round"/>
   </g>
   <g id="line2d_18">
    <path d="M 411.1375 127.645092 
" clip-path="url(#p1460028ec5)" style="fill: none; stroke: #3d3d3d; stroke-width: 1.5; stroke-linecap: round"/>
    <g clip-path="url(#p1460028ec5)">
     <use xlink:href="#m3d48f8d34f" x="411.1375" y="127.645092" style="fill: #ffffff; stroke: #ffffff; stroke-width: 0.9"/>
    </g>
   </g>
   <g id="line2d_19">
    <path d="M 508.7875 425.22967 
L 508.7875 372.848532 
" clip-path="url(#p1460028ec5)" style="fill: none; stroke: #3d3d3d; stroke-width: 1.5; stroke-linecap: round"/>
   </g>
   <g id="line2d_20">
    <path d="M 508.7875 404.113822 
L 508.7875 385.559336 
" clip-path="url(#p1460028ec5)" style="fill: none; stroke: #3d3d3d; stroke-width: 4.5; stroke-linecap: round"/>
   </g>
   <g id="line2d_21">
    <path d="M 508.7875 394.176845 
" clip-path="url(#p1460028ec5)" style="fill: none; stroke: #3d3d3d; stroke-width: 1.5; stroke-linecap: round"/>
    <g clip-path="url(#p1460028ec5)">
     <use xlink:href="#m3d48f8d34f" x="508.7875" y="394.176845" style="fill: #ffffff; stroke: #ffffff; stroke-width: 0.9"/>
    </g>
   </g>
   <g id="line2d_22">
    <path d="M 606.4375 468.633479 
L 606.4375 158.788156 
" clip-path="url(#p1460028ec5)" style="fill: none; stroke: #3d3d3d; stroke-width: 1.5; stroke-linecap: round"/>
   </g>
   <g id="line2d_23">
    <path d="M 606.4375 382.625978 
L 606.4375 291.007612 
" clip-path="url(#p1460028ec5)" style="fill: none; stroke: #3d3d3d; stroke-width: 4.5; stroke-linecap: round"/>
   </g>
   <g id="line2d_24">
    <path d="M 606.4375 326.554376 
" clip-path="url(#p1460028ec5)" style="fill: none; stroke: #3d3d3d; stroke-width: 1.5; stroke-linecap: round"/>
    <g clip-path="url(#p1460028ec5)">
     <use xlink:href="#m3d48f8d34f" x="606.4375" y="326.554376" style="fill: #ffffff; stroke: #ffffff; stroke-width: 0.9"/>
    </g>
   </g>
   <g id="line2d_25">
    <path d="M 704.0875 285.595708 
L 704.0875 230.859607 
" clip-path="url(#p1460028ec5)" style="fill: none; stroke: #3d3d3d; stroke-width: 1.5; stroke-linecap: round"/>
   </g>
   <g id="line2d_26">
    <path d="M 704.0875 264.799812 
L 704.0875 249.046947 
" clip-path="url(#p1460028ec5)" style="fill: none; stroke: #3d3d3d; stroke-width: 4.5; stroke-linecap: round"/>
   </g>
   <g id="line2d_27">
    <path d="M 704.0875 254.662887 
" clip-path="url(#p1460028ec5)" style="fill: none; stroke: #3d3d3d; stroke-width: 1.5; stroke-linecap: round"/>
    <g clip-path="url(#p1460028ec5)">
     <use xlink:href="#m3d48f8d34f" x="704.0875" y="254.662887" style="fill: #ffffff; stroke: #ffffff; stroke-width: 0.9"/>
    </g>
   </g>
   <g id="line2d_28">
    <path d="M 801.7375 204.873025 
L 801.7375 93.469864 
" clip-path="url(#p1460028ec5)" style="fill: none; stroke: #3d3d3d; stroke-width: 1.5; stroke-linecap: round"/>
   </g>
   <g id="line2d_29">
    <path d="M 801.7375 158.359054 
L 801.7375 114.440389 
" clip-path="url(#p1460028ec5)" style="fill: none; stroke: #3d3d3d; stroke-width: 4.5; stroke-linecap: round"/>
   </g>
   <g id="line2d_30">
    <path d="M 801.7375 131.074965 
" clip-path="url(#p1460028ec5)" style="fill: none; stroke: #3d3d3d; stroke-width: 1.5; stroke-linecap: round"/>
    <g clip-path="url(#p1460028ec5)">
     <use xlink:href="#m3d48f8d34f" x="801.7375" y="131.074965" style="fill: #ffffff; stroke: #ffffff; stroke-width: 0.9"/>
    </g>
   </g>
   <g id="patch_3">
    <path d="M 69.3625 561.6 
L 850.5625 561.6 
" style="fill: none; stroke: #cccccc; stroke-width: 0.8; stroke-linejoin: miter; stroke-linecap: square"/>
   </g>
  </g>
 </g>
 <defs>
  <clipPath id="p1460028ec5">
   <rect x="69.3625" y="7.2" width="781.2" height="554.4"/>
  </clipPath>
 </defs>
</svg>
