<?xml version="1.0" encoding="utf-8" standalone="no"?>
<!DOCTYPE svg PUBLIC "-//W3C//DTD SVG 1.1//EN"
  "http://www.w3.org/Graphics/SVG/1.1/DTD/svg11.dtd">
<svg xmlns:xlink="http://www.w3.org/1999/xlink" width="853.354429pt" height="530.808pt" viewBox="0 0 853.354429 530.808" xmlns="http://www.w3.org/2000/svg" version="1.1">
 <metadata>
  <rdf:RDF xmlns:dc="http://purl.org/dc/elements/1.1/" xmlns:cc="http://creativecommons.org/ns#" xmlns:rdf="http://www.w3.org/1999/02/22-rdf-syntax-ns#">
   <cc:Work>
    <dc:type rdf:resource="http://purl.org/dc/dcmitype/StillImage"/>
    <dc:date>2024-10-23T16:43:59.535493</dc:date>
    <dc:format>image/svg+xml</dc:format>
    <dc:creator>
     <cc:Agent>
      <dc:title>Matplotlib v3.8.0, https://matplotlib.org/</dc:title>
     </cc:Agent>
    </dc:creator>
   </cc:Work>
  </rdf:RDF>
 </metadata>
 <defs>
  <style type="text/css">*{stroke-linejoin: round; stroke-linecap: butt}</style>
 </defs>
 <g id="figure_1">
  <g id="patch_1">
   <path d="M 0 530.808 
L 853.354429 530.808 
L 853.354429 0 
L 0 0 
L 0 530.808 
z
" style="fill: none"/>
  </g>
  <g id="axes_1">
   <g id="patch_2">
    <path d="M 63.00625 395.28 
L 418.097159 395.28 
L 418.097159 7.2 
L 63.00625 7.2 
L 63.00625 395.28 
z
" style="fill: none"/>
   </g>
   <g id="matplotlib.axis_1">
    <g id="xtick_1">
     <g id="text_1">
      <!-- 0.0 -->
      <g style="fill: #262626" transform="translate(71.803884 435.516228) rotate(-45) scale(0.2 -0.2)">
       <defs>
        <path id="DejaVuSans-30" d="M 2034 4250 
Q 1547 4250 1301 3770 
Q 1056 3291 1056 2328 
Q 1056 1369 1301 889 
Q 1547 409 2034 409 
Q 2525 409 2770 889 
Q 3016 1369 3016 2328 
Q 3016 3291 2770 3770 
Q 2525 4250 2034 4250 
z
M 2034 4750 
Q 2819 4750 3233 4129 
Q 3647 3509 3647 2328 
Q 3647 1150 3233 529 
Q 2819 -91 2034 -91 
Q 1250 -91 836 529 
Q 422 1150 422 2328 
Q 422 3509 836 4129 
Q 1250 4750 2034 4750 
z
" transform="scale(0.015625)"/>
        <path id="DejaVuSans-2e" d="M 684 794 
L 1344 794 
L 1344 0 
L 684 0 
L 684 794 
z
" transform="scale(0.015625)"/>
       </defs>
       <use xlink:href="#DejaVuSans-30"/>
       <use xlink:href="#DejaVuSans-2e" x="63.623047"/>
       <use xlink:href="#DejaVuSans-30" x="95.410156"/>
      </g>
     </g>
    </g>
    <g id="xtick_2">
     <g id="text_2">
      <!-- 0.1 -->
      <g style="fill: #262626" transform="translate(104.084876 435.516228) rotate(-45) scale(0.2 -0.2)">
       <defs>
        <path id="DejaVuSans-31" d="M 794 531 
L 1825 531 
L 1825 4091 
L 703 3866 
L 703 4441 
L 1819 4666 
L 2450 4666 
L 2450 531 
L 3481 531 
L 3481 0 
L 794 0 
L 794 531 
z
" transform="scale(0.015625)"/>
       </defs>
       <use xlink:href="#DejaVuSans-30"/>
       <use xlink:href="#DejaVuSans-2e" x="63.623047"/>
       <use xlink:href="#DejaVuSans-31" x="95.410156"/>
      </g>
     </g>
    </g>
    <g id="xtick_3">
     <g id="text_3">
      <!-- 0.2 -->
      <g style="fill: #262626" transform="translate(136.365867 435.516228) rotate(-45) scale(0.2 -0.2)">
       <defs>
        <path id="DejaVuSans-32" d="M 1228 531 
L 3431 531 
L 3431 0 
L 469 0 
L 469 531 
Q 828 903 1448 1529 
Q 2069 2156 2228 2338 
Q 2531 2678 2651 2914 
Q 2772 3150 2772 3378 
Q 2772 3750 2511 3984 
Q 2250 4219 1831 4219 
Q 1534 4219 1204 4116 
Q 875 4013 500 3803 
L 500 4441 
Q 881 4594 1212 4672 
Q 1544 4750 1819 4750 
Q 2544 4750 2975 4387 
Q 3406 4025 3406 3419 
Q 3406 3131 3298 2873 
Q 3191 2616 2906 2266 
Q 2828 2175 2409 1742 
Q 1991 1309 1228 531 
z
" transform="scale(0.015625)"/>
       </defs>
       <use xlink:href="#DejaVuSans-30"/>
       <use xlink:href="#DejaVuSans-2e" x="63.623047"/>
       <use xlink:href="#DejaVuSans-32" x="95.410156"/>
      </g>
     </g>
    </g>
    <g id="xtick_4">
     <g id="text_4">
      <!-- 0.3 -->
      <g style="fill: #262626" transform="translate(168.646859 435.516228) rotate(-45) scale(0.2 -0.2)">
       <defs>
        <path id="DejaVuSans-33" d="M 2597 2516 
Q 3050 2419 3304 2112 
Q 3559 1806 3559 1356 
Q 3559 666 3084 287 
Q 2609 -91 1734 -91 
Q 1441 -91 1130 -33 
Q 819 25 488 141 
L 488 750 
Q 750 597 1062 519 
Q 1375 441 1716 441 
Q 2309 441 2620 675 
Q 2931 909 2931 1356 
Q 2931 1769 2642 2001 
Q 2353 2234 1838 2234 
L 1294 2234 
L 1294 2753 
L 1863 2753 
Q 2328 2753 2575 2939 
Q 2822 3125 2822 3475 
Q 2822 3834 2567 4026 
Q 2313 4219 1838 4219 
Q 1578 4219 1281 4162 
Q 984 4106 628 3988 
L 628 4550 
Q 988 4650 1302 4700 
Q 1616 4750 1894 4750 
Q 2613 4750 3031 4423 
Q 3450 4097 3450 3541 
Q 3450 3153 3228 2886 
Q 3006 2619 2597 2516 
z
" transform="scale(0.015625)"/>
       </defs>
       <use xlink:href="#DejaVuSans-30"/>
       <use xlink:href="#DejaVuSans-2e" x="63.623047"/>
       <use xlink:href="#DejaVuSans-33" x="95.410156"/>
      </g>
     </g>
    </g>
    <g id="xtick_5">
     <g id="text_5">
      <!-- 0.4 -->
      <g style="fill: #262626" transform="translate(200.927851 435.516228) rotate(-45) scale(0.2 -0.2)">
       <defs>
        <path id="DejaVuSans-34" d="M 2419 4116 
L 825 1625 
L 2419 1625 
L 2419 4116 
z
M 2253 4666 
L 3047 4666 
L 3047 1625 
L 3713 1625 
L 3713 1100 
L 3047 1100 
L 3047 0 
L 2419 0 
L 2419 1100 
L 313 1100 
L 313 1709 
L 2253 4666 
z
" transform="scale(0.015625)"/>
       </defs>
       <use xlink:href="#DejaVuSans-30"/>
       <use xlink:href="#DejaVuSans-2e" x="63.623047"/>
       <use xlink:href="#DejaVuSans-34" x="95.410156"/>
      </g>
     </g>
    </g>
    <g id="xtick_6">
     <g id="text_6">
      <!-- 0.5 -->
      <g style="fill: #262626" transform="translate(233.208843 435.516228) rotate(-45) scale(0.2 -0.2)">
       <defs>
        <path id="DejaVuSans-35" d="M 691 4666 
L 3169 4666 
L 3169 4134 
L 1269 4134 
L 1269 2991 
Q 1406 3038 1543 3061 
Q 1681 3084 1819 3084 
Q 2600 3084 3056 2656 
Q 3513 2228 3513 1497 
Q 3513 744 3044 326 
Q 2575 -91 1722 -91 
Q 1428 -91 1123 -41 
Q 819 9 494 109 
L 494 744 
Q 775 591 1075 516 
Q 1375 441 1709 441 
Q 2250 441 2565 725 
Q 2881 1009 2881 1497 
Q 2881 1984 2565 2268 
Q 2250 2553 1709 2553 
Q 1456 2553 1204 2497 
Q 953 2441 691 2322 
L 691 4666 
z
" transform="scale(0.015625)"/>
       </defs>
       <use xlink:href="#DejaVuSans-30"/>
       <use xlink:href="#DejaVuSans-2e" x="63.623047"/>
       <use xlink:href="#DejaVuSans-35" x="95.410156"/>
      </g>
     </g>
    </g>
    <g id="xtick_7">
     <g id="text_7">
      <!-- 0.6 -->
      <g style="fill: #262626" transform="translate(265.489834 435.516228) rotate(-45) scale(0.2 -0.2)">
       <defs>
        <path id="DejaVuSans-36" d="M 2113 2584 
Q 1688 2584 1439 2293 
Q 1191 2003 1191 1497 
Q 1191 994 1439 701 
Q 1688 409 2113 409 
Q 2538 409 2786 701 
Q 3034 994 3034 1497 
Q 3034 2003 2786 2293 
Q 2538 2584 2113 2584 
z
M 3366 4563 
L 3366 3988 
Q 3128 4100 2886 4159 
Q 2644 4219 2406 4219 
Q 1781 4219 1451 3797 
Q 1122 3375 1075 2522 
Q 1259 2794 1537 2939 
Q 1816 3084 2150 3084 
Q 2853 3084 3261 2657 
Q 3669 2231 3669 1497 
Q 3669 778 3244 343 
Q 2819 -91 2113 -91 
Q 1303 -91 875 529 
Q 447 1150 447 2328 
Q 447 3434 972 4092 
Q 1497 4750 2381 4750 
Q 2619 4750 2861 4703 
Q 3103 4656 3366 4563 
z
" transform="scale(0.015625)"/>
       </defs>
       <use xlink:href="#DejaVuSans-30"/>
       <use xlink:href="#DejaVuSans-2e" x="63.623047"/>
       <use xlink:href="#DejaVuSans-36" x="95.410156"/>
      </g>
     </g>
    </g>
    <g id="xtick_8">
     <g id="text_8">
      <!-- 0.7 -->
      <g style="fill: #262626" transform="translate(297.770826 435.516228) rotate(-45) scale(0.2 -0.2)">
       <defs>
        <path id="DejaVuSans-37" d="M 525 4666 
L 3525 4666 
L 3525 4397 
L 1831 0 
L 1172 0 
L 2766 4134 
L 525 4134 
L 525 4666 
z
" transform="scale(0.015625)"/>
       </defs>
       <use xlink:href="#DejaVuSans-30"/>
       <use xlink:href="#DejaVuSans-2e" x="63.623047"/>
       <use xlink:href="#DejaVuSans-37" x="95.410156"/>
      </g>
     </g>
    </g>
    <g id="xtick_9">
     <g id="text_9">
      <!-- 0.8 -->
      <g style="fill: #262626" transform="translate(330.051818 435.516228) rotate(-45) scale(0.2 -0.2)">
       <defs>
        <path id="DejaVuSans-38" d="M 2034 2216 
Q 1584 2216 1326 1975 
Q 1069 1734 1069 1313 
Q 1069 891 1326 650 
Q 1584 409 2034 409 
Q 2484 409 2743 651 
Q 3003 894 3003 1313 
Q 3003 1734 2745 1975 
Q 2488 2216 2034 2216 
z
M 1403 2484 
Q 997 2584 770 2862 
Q 544 3141 544 3541 
Q 544 4100 942 4425 
Q 1341 4750 2034 4750 
Q 2731 4750 3128 4425 
Q 3525 4100 3525 3541 
Q 3525 3141 3298 2862 
Q 3072 2584 2669 2484 
Q 3125 2378 3379 2068 
Q 3634 1759 3634 1313 
Q 3634 634 3220 271 
Q 2806 -91 2034 -91 
Q 1263 -91 848 271 
Q 434 634 434 1313 
Q 434 1759 690 2068 
Q 947 2378 1403 2484 
z
M 1172 3481 
Q 1172 3119 1398 2916 
Q 1625 2713 2034 2713 
Q 2441 2713 2670 2916 
Q 2900 3119 2900 3481 
Q 2900 3844 2670 4047 
Q 2441 4250 2034 4250 
Q 1625 4250 1398 4047 
Q 1172 3844 1172 3481 
z
" transform="scale(0.015625)"/>
       </defs>
       <use xlink:href="#DejaVuSans-30"/>
       <use xlink:href="#DejaVuSans-2e" x="63.623047"/>
       <use xlink:href="#DejaVuSans-38" x="95.410156"/>
      </g>
     </g>
    </g>
    <g id="xtick_10">
     <g id="text_10">
      <!-- 0.9 -->
      <g style="fill: #262626" transform="translate(362.33281 435.516228) rotate(-45) scale(0.2 -0.2)">
       <defs>
        <path id="DejaVuSans-39" d="M 703 97 
L 703 672 
Q 941 559 1184 500 
Q 1428 441 1663 441 
Q 2288 441 2617 861 
Q 2947 1281 2994 2138 
Q 2813 1869 2534 1725 
Q 2256 1581 1919 1581 
Q 1219 1581 811 2004 
Q 403 2428 403 3163 
Q 403 3881 828 4315 
Q 1253 4750 1959 4750 
Q 2769 4750 3195 4129 
Q 3622 3509 3622 2328 
Q 3622 1225 3098 567 
Q 2575 -91 1691 -91 
Q 1453 -91 1209 -44 
Q 966 3 703 97 
z
M 1959 2075 
Q 2384 2075 2632 2365 
Q 2881 2656 2881 3163 
Q 2881 3666 2632 3958 
Q 2384 4250 1959 4250 
Q 1534 4250 1286 3958 
Q 1038 3666 1038 3163 
Q 1038 2656 1286 2365 
Q 1534 2075 1959 2075 
z
" transform="scale(0.015625)"/>
       </defs>
       <use xlink:href="#DejaVuSans-30"/>
       <use xlink:href="#DejaVuSans-2e" x="63.623047"/>
       <use xlink:href="#DejaVuSans-39" x="95.410156"/>
      </g>
     </g>
    </g>
    <g id="xtick_11">
     <g id="text_11">
      <!-- 1.0 -->
      <g style="fill: #262626" transform="translate(394.613801 435.516228) rotate(-45) scale(0.2 -0.2)">
       <use xlink:href="#DejaVuSans-31"/>
       <use xlink:href="#DejaVuSans-2e" x="63.623047"/>
       <use xlink:href="#DejaVuSans-30" x="95.410156"/>
      </g>
     </g>
    </g>
    <g id="text_12">
     <!-- rASA -->
     <g style="fill: #262626" transform="translate(216.22358 457.654226) scale(0.2 -0.2)">
      <defs>
       <path id="DejaVuSans-72" d="M 2631 2963 
Q 2534 3019 2420 3045 
Q 2306 3072 2169 3072 
Q 1681 3072 1420 2755 
Q 1159 2438 1159 1844 
L 1159 0 
L 581 0 
L 581 3500 
L 1159 3500 
L 1159 2956 
Q 1341 3275 1631 3429 
Q 1922 3584 2338 3584 
Q 2397 3584 2469 3576 
Q 2541 3569 2628 3553 
L 2631 2963 
z
" transform="scale(0.015625)"/>
       <path id="DejaVuSans-41" d="M 2188 4044 
L 1331 1722 
L 3047 1722 
L 2188 4044 
z
M 1831 4666 
L 2547 4666 
L 4325 0 
L 3669 0 
L 3244 1197 
L 1141 1197 
L 716 0 
L 50 0 
L 1831 4666 
z
" transform="scale(0.015625)"/>
       <path id="DejaVuSans-53" d="M 3425 4513 
L 3425 3897 
Q 3066 4069 2747 4153 
Q 2428 4238 2131 4238 
Q 1616 4238 1336 4038 
Q 1056 3838 1056 3469 
Q 1056 3159 1242 3001 
Q 1428 2844 1947 2747 
L 2328 2669 
Q 3034 2534 3370 2195 
Q 3706 1856 3706 1288 
Q 3706 609 3251 259 
Q 2797 -91 1919 -91 
Q 1588 -91 1214 -16 
Q 841 59 441 206 
L 441 856 
Q 825 641 1194 531 
Q 1563 422 1919 422 
Q 2459 422 2753 634 
Q 3047 847 3047 1241 
Q 3047 1584 2836 1778 
Q 2625 1972 2144 2069 
L 1759 2144 
Q 1053 2284 737 2584 
Q 422 2884 422 3419 
Q 422 4038 858 4394 
Q 1294 4750 2059 4750 
Q 2388 4750 2728 4690 
Q 3069 4631 3425 4513 
z
" transform="scale(0.015625)"/>
      </defs>
      <use xlink:href="#DejaVuSans-72"/>
      <use xlink:href="#DejaVuSans-41" x="41.113281"/>
      <use xlink:href="#DejaVuSans-53" x="109.521484"/>
      <use xlink:href="#DejaVuSans-41" x="174.873047"/>
     </g>
    </g>
   </g>
   <g id="matplotlib.axis_2">
    <g id="ytick_1">
     <g id="text_13">
      <!-- 65 -->
      <g style="fill: #262626" transform="translate(30.55625 356.872317) scale(0.2 -0.2)">
       <use xlink:href="#DejaVuSans-36"/>
       <use xlink:href="#DejaVuSans-35" x="63.623047"/>
      </g>
     </g>
    </g>
    <g id="ytick_2">
     <g id="text_14">
      <!-- 70 -->
      <g style="fill: #262626" transform="translate(30.55625 306.611305) scale(0.2 -0.2)">
       <use xlink:href="#DejaVuSans-37"/>
       <use xlink:href="#DejaVuSans-30" x="63.623047"/>
      </g>
     </g>
    </g>
    <g id="ytick_3">
     <g id="text_15">
      <!-- 75 -->
      <g style="fill: #262626" transform="translate(30.55625 256.350294) scale(0.2 -0.2)">
       <use xlink:href="#DejaVuSans-37"/>
       <use xlink:href="#DejaVuSans-35" x="63.623047"/>
      </g>
     </g>
    </g>
    <g id="ytick_4">
     <g id="text_16">
      <!-- 80 -->
      <g style="fill: #262626" transform="translate(30.55625 206.089283) scale(0.2 -0.2)">
       <use xlink:href="#DejaVuSans-38"/>
       <use xlink:href="#DejaVuSans-30" x="63.623047"/>
      </g>
     </g>
    </g>
    <g id="ytick_5">
     <g id="text_17">
      <!-- 85 -->
      <g style="fill: #262626" transform="translate(30.55625 155.828272) scale(0.2 -0.2)">
       <use xlink:href="#DejaVuSans-38"/>
       <use xlink:href="#DejaVuSans-35" x="63.623047"/>
      </g>
     </g>
    </g>
    <g id="ytick_6">
     <g id="text_18">
      <!-- 90 -->
      <g style="fill: #262626" transform="translate(30.55625 105.567261) scale(0.2 -0.2)">
       <use xlink:href="#DejaVuSans-39"/>
       <use xlink:href="#DejaVuSans-30" x="63.623047"/>
      </g>
     </g>
    </g>
    <g id="ytick_7">
     <g id="text_19">
      <!-- 95 -->
      <g style="fill: #262626" transform="translate(30.55625 55.30625) scale(0.2 -0.2)">
       <use xlink:href="#DejaVuSans-39"/>
       <use xlink:href="#DejaVuSans-35" x="63.623047"/>
      </g>
     </g>
    </g>
    <g id="text_20">
     <!-- pLDDT -->
     <g style="fill: #262626" transform="translate(22.396875 234.668125) rotate(-90) scale(0.2 -0.2)">
      <defs>
       <path id="DejaVuSans-70" d="M 1159 525 
L 1159 -1331 
L 581 -1331 
L 581 3500 
L 1159 3500 
L 1159 2969 
Q 1341 3281 1617 3432 
Q 1894 3584 2278 3584 
Q 2916 3584 3314 3078 
Q 3713 2572 3713 1747 
Q 3713 922 3314 415 
Q 2916 -91 2278 -91 
Q 1894 -91 1617 61 
Q 1341 213 1159 525 
z
M 3116 1747 
Q 3116 2381 2855 2742 
Q 2594 3103 2138 3103 
Q 1681 3103 1420 2742 
Q 1159 2381 1159 1747 
Q 1159 1113 1420 752 
Q 1681 391 2138 391 
Q 2594 391 2855 752 
Q 3116 1113 3116 1747 
z
" transform="scale(0.015625)"/>
       <path id="DejaVuSans-4c" d="M 628 4666 
L 1259 4666 
L 1259 531 
L 3531 531 
L 3531 0 
L 628 0 
L 628 4666 
z
" transform="scale(0.015625)"/>
       <path id="DejaVuSans-44" d="M 1259 4147 
L 1259 519 
L 2022 519 
Q 2988 519 3436 956 
Q 3884 1394 3884 2338 
Q 3884 3275 3436 3711 
Q 2988 4147 2022 4147 
L 1259 4147 
z
M 628 4666 
L 1925 4666 
Q 3281 4666 3915 4102 
Q 4550 3538 4550 2338 
Q 4550 1131 3912 565 
Q 3275 0 1925 0 
L 628 0 
L 628 4666 
z
" transform="scale(0.015625)"/>
       <path id="DejaVuSans-54" d="M -19 4666 
L 3928 4666 
L 3928 4134 
L 2272 4134 
L 2272 0 
L 1638 0 
L 1638 4134 
L -19 4134 
L -19 4666 
z
" transform="scale(0.015625)"/>
      </defs>
      <use xlink:href="#DejaVuSans-70"/>
      <use xlink:href="#DejaVuSans-4c" x="63.476562"/>
      <use xlink:href="#DejaVuSans-44" x="119.189453"/>
      <use xlink:href="#DejaVuSans-44" x="196.191406"/>
      <use xlink:href="#DejaVuSans-54" x="273.193359"/>
     </g>
    </g>
   </g>
   <g id="PolyCollection_1">
    <defs>
     <path id="mfb10be86ec" d="M 79.146746 -375.379695 
L 79.146746 -362.91882 
L 111.427738 -357.415006 
L 143.708729 -349.122102 
L 175.989721 -346.889146 
L 208.270713 -339.446812 
L 240.551705 -329.335828 
L 272.832696 -312.573111 
L 305.113688 -310.873721 
L 337.39468 -297.941269 
L 369.675671 -274.791897 
L 401.956663 -278.865662 
L 401.956663 -315.589831 
L 401.956663 -315.589831 
L 369.675671 -307.895678 
L 337.39468 -321.972921 
L 305.113688 -329.540256 
L 272.832696 -329.069348 
L 240.551705 -344.445426 
L 208.270713 -353.707095 
L 175.989721 -362.404846 
L 143.708729 -364.14814 
L 111.427738 -370.875082 
L 79.146746 -375.379695 
z
" style="stroke: #1f77b4; stroke-opacity: 0.2"/>
    </defs>
    <g clip-path="url(#p7aac091b2c)">
     <use xlink:href="#mfb10be86ec" x="0" y="530.808" style="fill: #1f77b4; fill-opacity: 0.2; stroke: #1f77b4; stroke-opacity: 0.2"/>
    </g>
   </g>
   <g id="PolyCollection_2">
    <defs>
     <path id="m8d3c9c3b0e" d="M 79.146746 -505.968 
L 79.146746 -503.438367 
L 111.427738 -495.986286 
L 143.708729 -492.506796 
L 175.989721 -490.992389 
L 208.270713 -487.235271 
L 240.551705 -483.293366 
L 272.832696 -478.972726 
L 305.113688 -468.673659 
L 337.39468 -459.621098 
L 369.675671 -450.097999 
L 401.956663 -394.497759 
L 401.956663 -415.804212 
L 401.956663 -415.804212 
L 369.675671 -462.195907 
L 337.39468 -469.071811 
L 305.113688 -475.62918 
L 272.832696 -483.556505 
L 240.551705 -487.599133 
L 208.270713 -490.864756 
L 175.989721 -494.445079 
L 143.708729 -495.807346 
L 111.427738 -499.363163 
L 79.146746 -505.968 
z
" style="stroke: #ff7f0e; stroke-opacity: 0.2"/>
    </defs>
    <g clip-path="url(#p7aac091b2c)">
     <use xlink:href="#m8d3c9c3b0e" x="0" y="530.808" style="fill: #ff7f0e; fill-opacity: 0.2; stroke: #ff7f0e; stroke-opacity: 0.2"/>
    </g>
   </g>
   <g id="PolyCollection_3">
    <defs>
     <path id="m6ad89a86f1" d="M 79.146746 -478.399017 
L 79.146746 -471.279393 
L 111.427738 -453.382582 
L 143.708729 -453.218821 
L 175.989721 -449.727034 
L 208.270713 -448.038607 
L 240.551705 -439.829766 
L 272.832696 -434.012284 
L 305.113688 -423.620511 
L 337.39468 -410.461719 
L 369.675671 -411.335692 
L 401.956663 -346.596031 
L 401.956663 -373.325942 
L 401.956663 -373.325942 
L 369.675671 -429.458793 
L 337.39468 -427.804128 
L 305.113688 -436.594578 
L 272.832696 -444.998424 
L 240.551705 -450.097179 
L 208.270713 -456.824181 
L 175.989721 -458.582858 
L 143.708729 -461.803636 
L 111.427738 -461.923557 
L 79.146746 -478.399017 
z
" style="stroke: #2ca02c; stroke-opacity: 0.2"/>
    </defs>
    <g clip-path="url(#p7aac091b2c)">
     <use xlink:href="#m6ad89a86f1" x="0" y="530.808" style="fill: #2ca02c; fill-opacity: 0.2; stroke: #2ca02c; stroke-opacity: 0.2"/>
    </g>
   </g>
   <g id="PolyCollection_4">
    <defs>
     <path id="m3e06bfb898" d="M 79.146746 -499.381648 
L 79.146746 -493.899709 
L 111.427738 -483.784377 
L 143.708729 -479.724669 
L 175.989721 -482.039613 
L 208.270713 -474.873016 
L 240.551705 -469.221328 
L 272.832696 -464.60009 
L 305.113688 -457.594033 
L 337.39468 -442.019556 
L 369.675671 -444.132844 
L 401.956663 -383.64564 
L 401.956663 -409.003859 
L 401.956663 -409.003859 
L 369.675671 -458.982069 
L 337.39468 -456.913018 
L 305.113688 -467.454811 
L 272.832696 -473.333088 
L 240.551705 -477.152897 
L 208.270713 -482.337763 
L 175.989721 -488.11986 
L 143.708729 -486.389956 
L 111.427738 -490.033447 
L 79.146746 -499.381648 
z
" style="stroke: #d62728; stroke-opacity: 0.2"/>
    </defs>
    <g clip-path="url(#p7aac091b2c)">
     <use xlink:href="#m3e06bfb898" x="0" y="530.808" style="fill: #d62728; fill-opacity: 0.2; stroke: #d62728; stroke-opacity: 0.2"/>
    </g>
   </g>
   <g id="PolyCollection_5">
    <defs>
     <path id="m47dba35a43" d="M 79.146746 -485.200889 
L 79.146746 -479.959852 
L 111.427738 -466.334399 
L 143.708729 -461.559636 
L 175.989721 -462.783503 
L 208.270713 -456.980669 
L 240.551705 -450.023587 
L 272.832696 -444.5653 
L 305.113688 -438.760816 
L 337.39468 -422.834633 
L 369.675671 -422.419228 
L 401.956663 -364.314828 
L 401.956663 -388.334345 
L 401.956663 -388.334345 
L 369.675671 -438.620203 
L 337.39468 -437.842332 
L 305.113688 -448.775831 
L 272.832696 -453.648499 
L 240.551705 -458.260439 
L 208.270713 -464.689849 
L 175.989721 -469.644152 
L 143.708729 -469.339562 
L 111.427738 -472.832523 
L 79.146746 -485.200889 
z
" style="stroke: #9467bd; stroke-opacity: 0.2"/>
    </defs>
    <g clip-path="url(#p7aac091b2c)">
     <use xlink:href="#m47dba35a43" x="0" y="530.808" style="fill: #9467bd; fill-opacity: 0.2; stroke: #9467bd; stroke-opacity: 0.2"/>
    </g>
   </g>
   <g id="PolyCollection_6">
    <defs>
     <path id="maa62ceba9d" d="M 79.146746 -450.087947 
L 79.146746 -442.943815 
L 111.427738 -423.672358 
L 143.708729 -411.195532 
L 175.989721 -401.731951 
L 208.270713 -392.434225 
L 240.551705 -378.497656 
L 272.832696 -364.916532 
L 305.113688 -351.364517 
L 337.39468 -327.00864 
L 369.675671 -287.314203 
L 401.956663 -216.823979 
L 401.956663 -250.783943 
L 401.956663 -250.783943 
L 369.675671 -316.287857 
L 337.39468 -347.26292 
L 305.113688 -367.664075 
L 272.832696 -378.31793 
L 240.551705 -391.185049 
L 208.270713 -403.666116 
L 175.989721 -412.425619 
L 143.708729 -421.660792 
L 111.427738 -432.253644 
L 79.146746 -450.087947 
z
" style="stroke: #8c564b; stroke-opacity: 0.2"/>
    </defs>
    <g clip-path="url(#p7aac091b2c)">
     <use xlink:href="#maa62ceba9d" x="0" y="530.808" style="fill: #8c564b; fill-opacity: 0.2; stroke: #8c564b; stroke-opacity: 0.2"/>
    </g>
   </g>
   <g id="PolyCollection_7">
    <defs>
     <path id="mc17302a62f" d="M 79.146746 -504.516253 
L 79.146746 -501.935712 
L 111.427738 -493.943806 
L 143.708729 -489.961818 
L 175.989721 -488.486851 
L 208.270713 -484.398765 
L 240.551705 -481.133693 
L 272.832696 -475.10963 
L 305.113688 -465.7073 
L 337.39468 -456.209684 
L 369.675671 -446.634161 
L 401.956663 -389.364388 
L 401.956663 -411.603868 
L 401.956663 -411.603868 
L 369.675671 -458.195618 
L 337.39468 -465.557375 
L 305.113688 -472.743563 
L 272.832696 -480.421424 
L 240.551705 -485.267198 
L 208.270713 -488.4982 
L 175.989721 -492.197716 
L 143.708729 -493.784369 
L 111.427738 -497.269497 
L 79.146746 -504.516253 
z
" style="stroke: #e377c2; stroke-opacity: 0.2"/>
    </defs>
    <g clip-path="url(#p7aac091b2c)">
     <use xlink:href="#mc17302a62f" x="0" y="530.808" style="fill: #e377c2; fill-opacity: 0.2; stroke: #e377c2; stroke-opacity: 0.2"/>
    </g>
   </g>
   <g id="PolyCollection_8">
    <defs>
     <path id="m2550a18096" d="M 79.146746 -489.874327 
L 79.146746 -486.699232 
L 111.427738 -474.936659 
L 143.708729 -470.25377 
L 175.989721 -467.98871 
L 208.270713 -462.90462 
L 240.551705 -458.257483 
L 272.832696 -452.423645 
L 305.113688 -441.081585 
L 337.39468 -431.543049 
L 369.675671 -416.951969 
L 401.956663 -359.004394 
L 401.956663 -382.846371 
L 401.956663 -382.846371 
L 369.675671 -431.29178 
L 337.39468 -441.712218 
L 305.113688 -449.531528 
L 272.832696 -458.785164 
L 240.551705 -464.027607 
L 208.270713 -468.063036 
L 175.989721 -472.49529 
L 143.708729 -474.734761 
L 111.427738 -478.89252 
L 79.146746 -489.874327 
z
" style="stroke: #7f7f7f; stroke-opacity: 0.2"/>
    </defs>
    <g clip-path="url(#p7aac091b2c)">
     <use xlink:href="#m2550a18096" x="0" y="530.808" style="fill: #7f7f7f; fill-opacity: 0.2; stroke: #7f7f7f; stroke-opacity: 0.2"/>
    </g>
   </g>
   <g id="line2d_1">
    <path d="M 79.146746 161.357407 
L 111.427738 166.891982 
L 143.708729 174.527891 
L 175.989721 176.239113 
L 208.270713 183.894964 
L 240.551705 194.03643 
L 272.832696 210.366339 
L 305.113688 210.270408 
L 337.39468 221.706312 
L 369.675671 238.5712 
L 401.956663 233.772819 
" clip-path="url(#p7aac091b2c)" style="fill: none; stroke: #1f77b4; stroke-width: 1.5; stroke-linecap: round"/>
   </g>
   <g id="line2d_2">
    <path d="M 79.146746 26.033461 
L 111.427738 33.166647 
L 143.708729 36.642468 
L 175.989721 38.089561 
L 208.270713 41.682027 
L 240.551705 45.459485 
L 272.832696 49.496624 
L 305.113688 58.447039 
L 337.39468 66.265536 
L 369.675671 74.421126 
L 401.956663 125.821968 
" clip-path="url(#p7aac091b2c)" style="fill: none; stroke-dasharray: 6,2.25; stroke-dashoffset: 0; stroke: #ff7f0e; stroke-width: 1.5"/>
   </g>
   <g id="line2d_3">
    <path d="M 79.146746 56.041692 
L 111.427738 73.136133 
L 143.708729 73.122205 
L 175.989721 76.356637 
L 208.270713 78.415546 
L 240.551705 85.505123 
L 272.832696 91.153167 
L 305.113688 100.282018 
L 337.39468 111.652732 
L 369.675671 110.137318 
L 401.956663 169.89811 
" clip-path="url(#p7aac091b2c)" style="fill: none; stroke-dasharray: 1.5,1.5; stroke-dashoffset: 0; stroke: #2ca02c; stroke-width: 1.5"/>
   </g>
   <g id="line2d_4">
    <path d="M 79.146746 34.028878 
L 111.427738 43.964956 
L 143.708729 47.609439 
L 175.989721 45.694018 
L 208.270713 52.055285 
L 240.551705 57.83012 
L 272.832696 61.771518 
L 305.113688 68.167385 
L 337.39468 81.450373 
L 369.675671 78.629452 
L 401.956663 133.711942 
" clip-path="url(#p7aac091b2c)" style="fill: none; stroke-dasharray: 4.5,1.875,2.25,1.875; stroke-dashoffset: 0; stroke: #d62728; stroke-width: 1.5"/>
   </g>
   <g id="line2d_5">
    <path d="M 79.146746 48.079579 
L 111.427738 61.156174 
L 143.708729 65.295496 
L 175.989721 64.415837 
L 208.270713 69.983046 
L 240.551705 76.408052 
L 272.832696 81.600945 
L 305.113688 86.867228 
L 337.39468 100.343615 
L 369.675671 99.873596 
L 401.956663 153.897518 
" clip-path="url(#p7aac091b2c)" style="fill: none; stroke-dasharray: 7.5,1.5,1.5,1.5; stroke-dashoffset: 0; stroke: #9467bd; stroke-width: 1.5"/>
   </g>
   <g id="line2d_6">
    <path d="M 79.146746 84.242682 
L 111.427738 102.853903 
L 143.708729 114.38108 
L 175.989721 123.754495 
L 208.270713 132.758095 
L 240.551705 145.953543 
L 272.832696 158.800486 
L 305.113688 170.685667 
L 337.39468 193.6069 
L 369.675671 228.517343 
L 401.956663 296.880796 
" clip-path="url(#p7aac091b2c)" style="fill: none; stroke-dasharray: 4.5,1.875,1.875,1.875,1.875,1.875; stroke-dashoffset: 0; stroke: #8c564b; stroke-width: 1.5"/>
   </g>
   <g id="line2d_7">
    <path d="M 79.146746 27.525951 
L 111.427738 35.212917 
L 143.708729 38.883313 
L 175.989721 40.45753 
L 208.270713 44.336534 
L 240.551705 47.622204 
L 272.832696 53.055092 
L 305.113688 61.444733 
L 337.39468 69.658572 
L 369.675671 78.29297 
L 401.956663 130.481415 
" clip-path="url(#p7aac091b2c)" style="fill: none; stroke-dasharray: 6,1.5,6,1.5,1.5,1.5; stroke-dashoffset: 0; stroke: #e377c2; stroke-width: 1.5"/>
   </g>
   <g id="line2d_8">
    <path d="M 79.146746 42.451136 
L 111.427738 53.87694 
L 143.708729 58.280841 
L 175.989721 60.643579 
L 208.270713 65.168176 
L 240.551705 69.430774 
L 272.832696 75.07256 
L 305.113688 85.65109 
L 337.39468 94.078076 
L 369.675671 106.63724 
L 401.956663 159.961257 
" clip-path="url(#p7aac091b2c)" style="fill: none; stroke-dasharray: 4.5,1.875,4.5,1.875,1.875,1.875; stroke-dashoffset: 0; stroke: #7f7f7f; stroke-width: 1.5"/>
   </g>
   <g id="line2d_9"/>
   <g id="line2d_10"/>
   <g id="line2d_11"/>
   <g id="line2d_12"/>
   <g id="line2d_13"/>
   <g id="line2d_14"/>
   <g id="line2d_15"/>
   <g id="line2d_16"/>
   <g id="patch_3">
    <path d="M 63.00625 395.28 
L 63.00625 7.2 
" style="fill: none; stroke: #cccccc; stroke-width: 0.8; stroke-linejoin: miter; stroke-linecap: square"/>
   </g>
   <g id="patch_4">
    <path d="M 418.097159 395.28 
L 418.097159 7.2 
" style="fill: none; stroke: #cccccc; stroke-width: 0.8; stroke-linejoin: miter; stroke-linecap: square"/>
   </g>
   <g id="patch_5">
    <path d="M 63.00625 395.28 
L 418.097159 395.28 
" style="fill: none; stroke: #cccccc; stroke-width: 0.8; stroke-linejoin: miter; stroke-linecap: square"/>
   </g>
   <g id="patch_6">
    <path d="M 63.00625 7.2 
L 418.097159 7.2 
" style="fill: none; stroke: #cccccc; stroke-width: 0.8; stroke-linejoin: miter; stroke-linecap: square"/>
   </g>
  </g>
  <g id="axes_2">
   <g id="patch_7">
    <path d="M 489.115341 395.28 
L 844.20625 395.28 
L 844.20625 7.2 
L 489.115341 7.2 
L 489.115341 395.28 
z
" style="fill: none"/>
   </g>
   <g id="matplotlib.axis_3">
    <g id="xtick_12">
     <g id="text_21">
      <!-- 0.0 -->
      <g style="fill: #262626" transform="translate(497.912975 435.516228) rotate(-45) scale(0.2 -0.2)">
       <use xlink:href="#DejaVuSans-30"/>
       <use xlink:href="#DejaVuSans-2e" x="63.623047"/>
       <use xlink:href="#DejaVuSans-30" x="95.410156"/>
      </g>
     </g>
    </g>
    <g id="xtick_13">
     <g id="text_22">
      <!-- 0.1 -->
      <g style="fill: #262626" transform="translate(530.193967 435.516228) rotate(-45) scale(0.2 -0.2)">
       <use xlink:href="#DejaVuSans-30"/>
       <use xlink:href="#DejaVuSans-2e" x="63.623047"/>
       <use xlink:href="#DejaVuSans-31" x="95.410156"/>
      </g>
     </g>
    </g>
    <g id="xtick_14">
     <g id="text_23">
      <!-- 0.2 -->
      <g style="fill: #262626" transform="translate(562.474958 435.516228) rotate(-45) scale(0.2 -0.2)">
       <use xlink:href="#DejaVuSans-30"/>
       <use xlink:href="#DejaVuSans-2e" x="63.623047"/>
       <use xlink:href="#DejaVuSans-32" x="95.410156"/>
      </g>
     </g>
    </g>
    <g id="xtick_15">
     <g id="text_24">
      <!-- 0.3 -->
      <g style="fill: #262626" transform="translate(594.75595 435.516228) rotate(-45) scale(0.2 -0.2)">
       <use xlink:href="#DejaVuSans-30"/>
       <use xlink:href="#DejaVuSans-2e" x="63.623047"/>
       <use xlink:href="#DejaVuSans-33" x="95.410156"/>
      </g>
     </g>
    </g>
    <g id="xtick_16">
     <g id="text_25">
      <!-- 0.4 -->
      <g style="fill: #262626" transform="translate(627.036942 435.516228) rotate(-45) scale(0.2 -0.2)">
       <use xlink:href="#DejaVuSans-30"/>
       <use xlink:href="#DejaVuSans-2e" x="63.623047"/>
       <use xlink:href="#DejaVuSans-34" x="95.410156"/>
      </g>
     </g>
    </g>
    <g id="xtick_17">
     <g id="text_26">
      <!-- 0.5 -->
      <g style="fill: #262626" transform="translate(659.317933 435.516228) rotate(-45) scale(0.2 -0.2)">
       <use xlink:href="#DejaVuSans-30"/>
       <use xlink:href="#DejaVuSans-2e" x="63.623047"/>
       <use xlink:href="#DejaVuSans-35" x="95.410156"/>
      </g>
     </g>
    </g>
    <g id="xtick_18">
     <g id="text_27">
      <!-- 0.6 -->
      <g style="fill: #262626" transform="translate(691.598925 435.516228) rotate(-45) scale(0.2 -0.2)">
       <use xlink:href="#DejaVuSans-30"/>
       <use xlink:href="#DejaVuSans-2e" x="63.623047"/>
       <use xlink:href="#DejaVuSans-36" x="95.410156"/>
      </g>
     </g>
    </g>
    <g id="xtick_19">
     <g id="text_28">
      <!-- 0.7 -->
      <g style="fill: #262626" transform="translate(723.879917 435.516228) rotate(-45) scale(0.2 -0.2)">
       <use xlink:href="#DejaVuSans-30"/>
       <use xlink:href="#DejaVuSans-2e" x="63.623047"/>
       <use xlink:href="#DejaVuSans-37" x="95.410156"/>
      </g>
     </g>
    </g>
    <g id="xtick_20">
     <g id="text_29">
      <!-- 0.8 -->
      <g style="fill: #262626" transform="translate(756.160909 435.516228) rotate(-45) scale(0.2 -0.2)">
       <use xlink:href="#DejaVuSans-30"/>
       <use xlink:href="#DejaVuSans-2e" x="63.623047"/>
       <use xlink:href="#DejaVuSans-38" x="95.410156"/>
      </g>
     </g>
    </g>
    <g id="xtick_21">
     <g id="text_30">
      <!-- 0.9 -->
      <g style="fill: #262626" transform="translate(788.4419 435.516228) rotate(-45) scale(0.2 -0.2)">
       <use xlink:href="#DejaVuSans-30"/>
       <use xlink:href="#DejaVuSans-2e" x="63.623047"/>
       <use xlink:href="#DejaVuSans-39" x="95.410156"/>
      </g>
     </g>
    </g>
    <g id="xtick_22">
     <g id="text_31">
      <!-- 1.0 -->
      <g style="fill: #262626" transform="translate(820.722892 435.516228) rotate(-45) scale(0.2 -0.2)">
       <use xlink:href="#DejaVuSans-31"/>
       <use xlink:href="#DejaVuSans-2e" x="63.623047"/>
       <use xlink:href="#DejaVuSans-30" x="95.410156"/>
      </g>
     </g>
    </g>
    <g id="text_32">
     <!-- rASA -->
     <g style="fill: #262626" transform="translate(642.33267 457.654226) scale(0.2 -0.2)">
      <use xlink:href="#DejaVuSans-72"/>
      <use xlink:href="#DejaVuSans-41" x="41.113281"/>
      <use xlink:href="#DejaVuSans-53" x="109.521484"/>
      <use xlink:href="#DejaVuSans-41" x="174.873047"/>
     </g>
    </g>
   </g>
   <g id="matplotlib.axis_4">
    <g id="ytick_8"/>
    <g id="ytick_9"/>
    <g id="ytick_10"/>
    <g id="ytick_11"/>
    <g id="ytick_12"/>
    <g id="ytick_13"/>
    <g id="ytick_14"/>
    <g id="text_33">
     <!-- lDDT % -->
     <g style="fill: #262626" transform="translate(480.955966 238.205625) rotate(-90) scale(0.2 -0.2)">
      <defs>
       <path id="DejaVuSans-6c" d="M 603 4863 
L 1178 4863 
L 1178 0 
L 603 0 
L 603 4863 
z
" transform="scale(0.015625)"/>
       <path id="DejaVuSans-20" transform="scale(0.015625)"/>
       <path id="DejaVuSans-25" d="M 4653 2053 
Q 4381 2053 4226 1822 
Q 4072 1591 4072 1178 
Q 4072 772 4226 539 
Q 4381 306 4653 306 
Q 4919 306 5073 539 
Q 5228 772 5228 1178 
Q 5228 1588 5073 1820 
Q 4919 2053 4653 2053 
z
M 4653 2450 
Q 5147 2450 5437 2106 
Q 5728 1763 5728 1178 
Q 5728 594 5436 251 
Q 5144 -91 4653 -91 
Q 4153 -91 3862 251 
Q 3572 594 3572 1178 
Q 3572 1766 3864 2108 
Q 4156 2450 4653 2450 
z
M 1428 4353 
Q 1159 4353 1004 4120 
Q 850 3888 850 3481 
Q 850 3069 1003 2837 
Q 1156 2606 1428 2606 
Q 1700 2606 1854 2837 
Q 2009 3069 2009 3481 
Q 2009 3884 1853 4118 
Q 1697 4353 1428 4353 
z
M 4250 4750 
L 4750 4750 
L 1831 -91 
L 1331 -91 
L 4250 4750 
z
M 1428 4750 
Q 1922 4750 2215 4408 
Q 2509 4066 2509 3481 
Q 2509 2891 2217 2550 
Q 1925 2209 1428 2209 
Q 931 2209 642 2551 
Q 353 2894 353 3481 
Q 353 4063 643 4406 
Q 934 4750 1428 4750 
z
" transform="scale(0.015625)"/>
      </defs>
      <use xlink:href="#DejaVuSans-6c"/>
      <use xlink:href="#DejaVuSans-44" x="27.783203"/>
      <use xlink:href="#DejaVuSans-44" x="104.785156"/>
      <use xlink:href="#DejaVuSans-54" x="181.787109"/>
      <use xlink:href="#DejaVuSans-20" x="242.871094"/>
      <use xlink:href="#DejaVuSans-25" x="274.658203"/>
     </g>
    </g>
   </g>
   <g id="PolyCollection_9">
    <defs>
     <path id="ma3d54c3c2b" d="M 505.255837 -499.369504 
L 505.255837 -496.451357 
L 537.536829 -487.599381 
L 569.81782 -483.640102 
L 602.098812 -480.085809 
L 634.379804 -478.027116 
L 666.660795 -472.317925 
L 698.941787 -465.031411 
L 731.222779 -460.595115 
L 763.503771 -458.080418 
L 795.784762 -456.460611 
L 828.065754 -454.277005 
L 828.065754 -466.004344 
L 828.065754 -466.004344 
L 795.784762 -465.837506 
L 763.503771 -466.220058 
L 731.222779 -467.318267 
L 698.941787 -470.862646 
L 666.660795 -477.151543 
L 634.379804 -482.366426 
L 602.098812 -484.647522 
L 569.81782 -487.878419 
L 537.536829 -491.315135 
L 505.255837 -499.369504 
z
" style="stroke: #1f77b4; stroke-opacity: 0.2"/>
    </defs>
    <g clip-path="url(#pfe9c6314fa)">
     <use xlink:href="#ma3d54c3c2b" x="0" y="530.808" style="fill: #1f77b4; fill-opacity: 0.2; stroke: #1f77b4; stroke-opacity: 0.2"/>
    </g>
   </g>
   <g id="PolyCollection_10">
    <defs>
     <path id="m5202357072" d="M 505.255837 -482.614238 
L 505.255837 -478.336798 
L 537.536829 -466.669641 
L 569.81782 -460.863002 
L 602.098812 -457.841658 
L 634.379804 -452.317574 
L 666.660795 -445.10561 
L 698.941787 -437.147643 
L 731.222779 -427.506442 
L 763.503771 -420.861443 
L 795.784762 -417.221555 
L 828.065754 -366.52128 
L 828.065754 -392.928101 
L 828.065754 -392.928101 
L 795.784762 -432.433137 
L 763.503771 -433.345794 
L 731.222779 -436.908741 
L 698.941787 -445.078404 
L 666.660795 -451.58608 
L 634.379804 -458.481991 
L 602.098812 -463.367674 
L 569.81782 -466.592612 
L 537.536829 -472.12141 
L 505.255837 -482.614238 
z
" style="stroke: #ff7f0e; stroke-opacity: 0.2"/>
    </defs>
    <g clip-path="url(#pfe9c6314fa)">
     <use xlink:href="#m5202357072" x="0" y="530.808" style="fill: #ff7f0e; fill-opacity: 0.2; stroke: #ff7f0e; stroke-opacity: 0.2"/>
    </g>
   </g>
   <g id="PolyCollection_11">
    <defs>
     <path id="m111931b50a" d="M 505.255837 -445.547686 
L 505.255837 -436.864647 
L 537.536829 -417.021093 
L 569.81782 -410.210387 
L 602.098812 -411.569689 
L 634.379804 -400.456944 
L 666.660795 -392.772283 
L 698.941787 -384.30245 
L 731.222779 -381.499465 
L 763.503771 -371.676953 
L 795.784762 -375.179184 
L 828.065754 -323.761097 
L 828.065754 -355.163548 
L 828.065754 -355.163548 
L 795.784762 -395.827133 
L 763.503771 -391.543132 
L 731.222779 -396.339808 
L 698.941787 -397.372285 
L 666.660795 -404.28972 
L 634.379804 -412.263781 
L 602.098812 -422.251304 
L 569.81782 -421.16562 
L 537.536829 -427.630511 
L 505.255837 -445.547686 
z
" style="stroke: #2ca02c; stroke-opacity: 0.2"/>
    </defs>
    <g clip-path="url(#pfe9c6314fa)">
     <use xlink:href="#m111931b50a" x="0" y="530.808" style="fill: #2ca02c; fill-opacity: 0.2; stroke: #2ca02c; stroke-opacity: 0.2"/>
    </g>
   </g>
   <g id="PolyCollection_12">
    <defs>
     <path id="md16e248087" d="M 505.255837 -466.230155 
L 505.255837 -457.694369 
L 537.536829 -440.91694 
L 569.81782 -434.723506 
L 602.098812 -434.733128 
L 634.379804 -425.826823 
L 666.660795 -414.901318 
L 698.941787 -406.62723 
L 731.222779 -401.950593 
L 763.503771 -389.529909 
L 795.784762 -395.392334 
L 828.065754 -348.624214 
L 828.065754 -379.16406 
L 828.065754 -379.16406 
L 795.784762 -414.870681 
L 763.503771 -407.250032 
L 731.222779 -414.250732 
L 698.941787 -419.483857 
L 666.660795 -426.459339 
L 634.379804 -435.400685 
L 602.098812 -443.619768 
L 569.81782 -445.068759 
L 537.536829 -450.821048 
L 505.255837 -466.230155 
z
" style="stroke: #d62728; stroke-opacity: 0.2"/>
    </defs>
    <g clip-path="url(#pfe9c6314fa)">
     <use xlink:href="#md16e248087" x="0" y="530.808" style="fill: #d62728; fill-opacity: 0.2; stroke: #d62728; stroke-opacity: 0.2"/>
    </g>
   </g>
   <g id="PolyCollection_13">
    <defs>
     <path id="m999b9dc938" d="M 505.255837 -447.53772 
L 505.255837 -439.536241 
L 537.536829 -419.721244 
L 569.81782 -411.874147 
L 602.098812 -413.375516 
L 634.379804 -403.004417 
L 666.660795 -395.679609 
L 698.941787 -385.548683 
L 731.222779 -385.03084 
L 763.503771 -373.561741 
L 795.784762 -383.339615 
L 828.065754 -330.927123 
L 828.065754 -358.794152 
L 828.065754 -358.794152 
L 795.784762 -401.769418 
L 763.503771 -390.242803 
L 731.222779 -397.869818 
L 698.941787 -397.800504 
L 666.660795 -406.256633 
L 634.379804 -413.224392 
L 602.098812 -423.073028 
L 569.81782 -422.118722 
L 537.536829 -429.461363 
L 505.255837 -447.53772 
z
" style="stroke: #9467bd; stroke-opacity: 0.2"/>
    </defs>
    <g clip-path="url(#pfe9c6314fa)">
     <use xlink:href="#m999b9dc938" x="0" y="530.808" style="fill: #9467bd; fill-opacity: 0.2; stroke: #9467bd; stroke-opacity: 0.2"/>
    </g>
   </g>
   <g id="PolyCollection_14">
    <defs>
     <path id="mbc1b7b6cae" d="M 505.255837 -382.416676 
L 505.255837 -371.935818 
L 537.536829 -336.71929 
L 569.81782 -326.746149 
L 602.098812 -313.221013 
L 634.379804 -304.989096 
L 666.660795 -291.536243 
L 698.941787 -278.611491 
L 731.222779 -270.54214 
L 763.503771 -247.191699 
L 795.784762 -222.336598 
L 828.065754 -153.168 
L 828.065754 -188.492444 
L 828.065754 -188.492444 
L 795.784762 -251.929445 
L 763.503771 -269.361843 
L 731.222779 -288.522256 
L 698.941787 -295.245327 
L 666.660795 -306.299158 
L 634.379804 -319.031641 
L 602.098812 -328.183246 
L 569.81782 -339.970288 
L 537.536829 -349.210558 
L 505.255837 -382.416676 
z
" style="stroke: #8c564b; stroke-opacity: 0.2"/>
    </defs>
    <g clip-path="url(#pfe9c6314fa)">
     <use xlink:href="#mbc1b7b6cae" x="0" y="530.808" style="fill: #8c564b; fill-opacity: 0.2; stroke: #8c564b; stroke-opacity: 0.2"/>
    </g>
   </g>
   <g id="PolyCollection_15">
    <defs>
     <path id="mc405e3dd70" d="M 505.255837 -491.703838 
L 505.255837 -487.875325 
L 537.536829 -478.214783 
L 569.81782 -472.684622 
L 602.098812 -472.047149 
L 634.379804 -469.12151 
L 666.660795 -462.017631 
L 698.941787 -456.119845 
L 731.222779 -446.729423 
L 763.503771 -440.985913 
L 795.784762 -437.630971 
L 828.065754 -383.527345 
L 828.065754 -412.022134 
L 828.065754 -412.022134 
L 795.784762 -451.925818 
L 763.503771 -453.153336 
L 731.222779 -456.413744 
L 698.941787 -462.989436 
L 666.660795 -467.830026 
L 634.379804 -474.751103 
L 602.098812 -477.242097 
L 569.81782 -478.397594 
L 537.536829 -483.131921 
L 505.255837 -491.703838 
z
" style="stroke: #e377c2; stroke-opacity: 0.2"/>
    </defs>
    <g clip-path="url(#pfe9c6314fa)">
     <use xlink:href="#mc405e3dd70" x="0" y="530.808" style="fill: #e377c2; fill-opacity: 0.2; stroke: #e377c2; stroke-opacity: 0.2"/>
    </g>
   </g>
   <g id="PolyCollection_16">
    <defs>
     <path id="m6c78776410" d="M 505.255837 -461.667773 
L 505.255837 -456.888666 
L 537.536829 -441.401635 
L 569.81782 -434.43352 
L 602.098812 -429.060545 
L 634.379804 -422.821548 
L 666.660795 -414.055258 
L 698.941787 -406.140487 
L 731.222779 -394.434214 
L 763.503771 -388.437414 
L 795.784762 -384.892469 
L 828.065754 -329.284216 
L 828.065754 -357.983505 
L 828.065754 -357.983505 
L 795.784762 -401.824963 
L 763.503771 -402.154607 
L 731.222779 -405.082849 
L 698.941787 -414.5926 
L 666.660795 -421.665018 
L 634.379804 -430.170563 
L 602.098812 -435.932205 
L 569.81782 -440.835377 
L 537.536829 -447.319956 
L 505.255837 -461.667773 
z
" style="stroke: #7f7f7f; stroke-opacity: 0.2"/>
    </defs>
    <g clip-path="url(#pfe9c6314fa)">
     <use xlink:href="#m6c78776410" x="0" y="530.808" style="fill: #7f7f7f; fill-opacity: 0.2; stroke: #7f7f7f; stroke-opacity: 0.2"/>
    </g>
   </g>
   <g id="line2d_17">
    <path d="M 505.255837 32.850816 
L 537.536829 41.334272 
L 569.81782 45.043487 
L 602.098812 48.353683 
L 634.379804 50.57276 
L 666.660795 56.152349 
L 698.941787 62.781541 
L 731.222779 66.963645 
L 763.503771 68.691645 
L 795.784762 69.420202 
L 828.065754 70.347885 
" clip-path="url(#pfe9c6314fa)" style="fill: none; stroke: #1f77b4; stroke-width: 1.5; stroke-linecap: round"/>
   </g>
   <g id="line2d_18">
    <path d="M 505.255837 50.240623 
L 537.536829 61.503752 
L 569.81782 66.984231 
L 602.098812 70.272563 
L 634.379804 75.21996 
L 666.660795 82.438686 
L 698.941787 89.768102 
L 731.222779 98.649612 
L 763.503771 103.557091 
L 795.784762 105.646721 
L 828.065754 150.649902 
" clip-path="url(#pfe9c6314fa)" style="fill: none; stroke-dasharray: 6,2.25; stroke-dashoffset: 0; stroke: #ff7f0e; stroke-width: 1.5"/>
   </g>
   <g id="line2d_19">
    <path d="M 505.255837 89.660129 
L 537.536829 108.26678 
L 569.81782 115.127387 
L 602.098812 113.543508 
L 634.379804 124.340853 
L 666.660795 132.355793 
L 698.941787 140.128034 
L 731.222779 141.572664 
L 763.503771 149.094792 
L 795.784762 144.541577 
L 828.065754 190.647615 
" clip-path="url(#pfe9c6314fa)" style="fill: none; stroke-dasharray: 1.5,1.5; stroke-dashoffset: 0; stroke: #2ca02c; stroke-width: 1.5"/>
   </g>
   <g id="line2d_20">
    <path d="M 505.255837 68.896475 
L 537.536829 84.918186 
L 569.81782 90.727299 
L 602.098812 91.615525 
L 634.379804 100.07974 
L 666.660795 109.940216 
L 698.941787 117.604354 
L 731.222779 122.468282 
L 763.503771 132.126274 
L 795.784762 125.264136 
L 828.065754 166.881696 
" clip-path="url(#pfe9c6314fa)" style="fill: none; stroke-dasharray: 4.5,1.875,2.25,1.875; stroke-dashoffset: 0; stroke: #d62728; stroke-width: 1.5"/>
   </g>
   <g id="line2d_21">
    <path d="M 505.255837 87.266354 
L 537.536829 106.056521 
L 569.81782 113.834833 
L 602.098812 112.502353 
L 634.379804 122.389953 
L 666.660795 129.939634 
L 698.941787 138.884374 
L 731.222779 139.16058 
L 763.503771 148.460267 
L 795.784762 138.173957 
L 828.065754 185.737114 
" clip-path="url(#pfe9c6314fa)" style="fill: none; stroke-dasharray: 7.5,1.5,1.5,1.5; stroke-dashoffset: 0; stroke: #9467bd; stroke-width: 1.5"/>
   </g>
   <g id="line2d_22">
    <path d="M 505.255837 153.620229 
L 537.536829 187.858326 
L 569.81782 197.789071 
L 602.098812 210.018297 
L 634.379804 218.224049 
L 666.660795 231.567448 
L 698.941787 243.864131 
L 731.222779 250.858068 
L 763.503771 272.665634 
L 795.784762 292.849232 
L 828.065754 359.615082 
" clip-path="url(#pfe9c6314fa)" style="fill: none; stroke-dasharray: 4.5,1.875,1.875,1.875,1.875,1.875; stroke-dashoffset: 0; stroke: #8c564b; stroke-width: 1.5"/>
   </g>
   <g id="line2d_23">
    <path d="M 505.255837 40.980238 
L 537.536829 50.018747 
L 569.81782 55.257706 
L 602.098812 56.169774 
L 634.379804 58.746628 
L 666.660795 65.735547 
L 698.941787 71.164095 
L 731.222779 78.917896 
L 763.503771 83.946948 
L 795.784762 85.788568 
L 828.065754 132.586095 
" clip-path="url(#pfe9c6314fa)" style="fill: none; stroke-dasharray: 6,1.5,6,1.5,1.5,1.5; stroke-dashoffset: 0; stroke: #e377c2; stroke-width: 1.5"/>
   </g>
   <g id="line2d_24">
    <path d="M 505.255837 71.682926 
L 537.536829 86.426017 
L 569.81782 93.168293 
L 602.098812 98.192579 
L 634.379804 104.39693 
L 666.660795 112.979916 
L 698.941787 120.072233 
L 731.222779 130.648132 
L 763.503771 135.454744 
L 795.784762 137.506873 
L 828.065754 186.119098 
" clip-path="url(#pfe9c6314fa)" style="fill: none; stroke-dasharray: 4.5,1.875,4.5,1.875,1.875,1.875; stroke-dashoffset: 0; stroke: #7f7f7f; stroke-width: 1.5"/>
   </g>
   <g id="line2d_25"/>
   <g id="line2d_26"/>
   <g id="line2d_27"/>
   <g id="line2d_28"/>
   <g id="line2d_29"/>
   <g id="line2d_30"/>
   <g id="line2d_31"/>
   <g id="line2d_32"/>
   <g id="patch_8">
    <path d="M 489.115341 395.28 
L 489.115341 7.2 
" style="fill: none; stroke: #cccccc; stroke-width: 0.8; stroke-linejoin: miter; stroke-linecap: square"/>
   </g>
   <g id="patch_9">
    <path d="M 844.20625 395.28 
L 844.20625 7.2 
" style="fill: none; stroke: #cccccc; stroke-width: 0.8; stroke-linejoin: miter; stroke-linecap: square"/>
   </g>
   <g id="patch_10">
    <path d="M 489.115341 395.28 
L 844.20625 395.28 
" style="fill: none; stroke: #cccccc; stroke-width: 0.8; stroke-linejoin: miter; stroke-linecap: square"/>
   </g>
   <g id="patch_11">
    <path d="M 489.115341 7.2 
L 844.20625 7.2 
" style="fill: none; stroke: #cccccc; stroke-width: 0.8; stroke-linejoin: miter; stroke-linecap: square"/>
   </g>
   <g id="legend_1">
    <g id="patch_12">
     <path d="M 123.237109 523.608 
L 783.975391 523.608 
Q 786.975391 523.608 786.975391 520.608 
L 786.975391 478.073625 
Q 786.975391 475.073625 783.975391 475.073625 
L 123.237109 475.073625 
Q 120.237109 475.073625 120.237109 478.073625 
L 120.237109 520.608 
Q 120.237109 523.608 123.237109 523.608 
L 123.237109 523.608 
z
" style="fill: none; stroke: #000000; stroke-linejoin: miter"/>
    </g>
    <g id="line2d_33">
     <path d="M 126.237109 487.221281 
L 141.237109 487.221281 
L 156.237109 487.221281 
" style="fill: none; stroke: #1f77b4; stroke-width: 1.5; stroke-linecap: round"/>
    </g>
    <g id="text_34">
     <!-- AttnPacker -->
     <g style="fill: #262626" transform="translate(168.237109 492.471281) scale(0.15 -0.15)">
      <defs>
       <path id="DejaVuSans-74" d="M 1172 4494 
L 1172 3500 
L 2356 3500 
L 2356 3053 
L 1172 3053 
L 1172 1153 
Q 1172 725 1289 603 
Q 1406 481 1766 481 
L 2356 481 
L 2356 0 
L 1766 0 
Q 1100 0 847 248 
Q 594 497 594 1153 
L 594 3053 
L 172 3053 
L 172 3500 
L 594 3500 
L 594 4494 
L 1172 4494 
z
" transform="scale(0.015625)"/>
       <path id="DejaVuSans-6e" d="M 3513 2113 
L 3513 0 
L 2938 0 
L 2938 2094 
Q 2938 2591 2744 2837 
Q 2550 3084 2163 3084 
Q 1697 3084 1428 2787 
Q 1159 2491 1159 1978 
L 1159 0 
L 581 0 
L 581 3500 
L 1159 3500 
L 1159 2956 
Q 1366 3272 1645 3428 
Q 1925 3584 2291 3584 
Q 2894 3584 3203 3211 
Q 3513 2838 3513 2113 
z
" transform="scale(0.015625)"/>
       <path id="DejaVuSans-50" d="M 1259 4147 
L 1259 2394 
L 2053 2394 
Q 2494 2394 2734 2622 
Q 2975 2850 2975 3272 
Q 2975 3691 2734 3919 
Q 2494 4147 2053 4147 
L 1259 4147 
z
M 628 4666 
L 2053 4666 
Q 2838 4666 3239 4311 
Q 3641 3956 3641 3272 
Q 3641 2581 3239 2228 
Q 2838 1875 2053 1875 
L 1259 1875 
L 1259 0 
L 628 0 
L 628 4666 
z
" transform="scale(0.015625)"/>
       <path id="DejaVuSans-61" d="M 2194 1759 
Q 1497 1759 1228 1600 
Q 959 1441 959 1056 
Q 959 750 1161 570 
Q 1363 391 1709 391 
Q 2188 391 2477 730 
Q 2766 1069 2766 1631 
L 2766 1759 
L 2194 1759 
z
M 3341 1997 
L 3341 0 
L 2766 0 
L 2766 531 
Q 2569 213 2275 61 
Q 1981 -91 1556 -91 
Q 1019 -91 701 211 
Q 384 513 384 1019 
Q 384 1609 779 1909 
Q 1175 2209 1959 2209 
L 2766 2209 
L 2766 2266 
Q 2766 2663 2505 2880 
Q 2244 3097 1772 3097 
Q 1472 3097 1187 3025 
Q 903 2953 641 2809 
L 641 3341 
Q 956 3463 1253 3523 
Q 1550 3584 1831 3584 
Q 2591 3584 2966 3190 
Q 3341 2797 3341 1997 
z
" transform="scale(0.015625)"/>
       <path id="DejaVuSans-63" d="M 3122 3366 
L 3122 2828 
Q 2878 2963 2633 3030 
Q 2388 3097 2138 3097 
Q 1578 3097 1268 2742 
Q 959 2388 959 1747 
Q 959 1106 1268 751 
Q 1578 397 2138 397 
Q 2388 397 2633 464 
Q 2878 531 3122 666 
L 3122 134 
Q 2881 22 2623 -34 
Q 2366 -91 2075 -91 
Q 1284 -91 818 406 
Q 353 903 353 1747 
Q 353 2603 823 3093 
Q 1294 3584 2113 3584 
Q 2378 3584 2631 3529 
Q 2884 3475 3122 3366 
z
" transform="scale(0.015625)"/>
       <path id="DejaVuSans-6b" d="M 581 4863 
L 1159 4863 
L 1159 1991 
L 2875 3500 
L 3609 3500 
L 1753 1863 
L 3688 0 
L 2938 0 
L 1159 1709 
L 1159 0 
L 581 0 
L 581 4863 
z
" transform="scale(0.015625)"/>
       <path id="DejaVuSans-65" d="M 3597 1894 
L 3597 1613 
L 953 1613 
Q 991 1019 1311 708 
Q 1631 397 2203 397 
Q 2534 397 2845 478 
Q 3156 559 3463 722 
L 3463 178 
Q 3153 47 2828 -22 
Q 2503 -91 2169 -91 
Q 1331 -91 842 396 
Q 353 884 353 1716 
Q 353 2575 817 3079 
Q 1281 3584 2069 3584 
Q 2775 3584 3186 3129 
Q 3597 2675 3597 1894 
z
M 3022 2063 
Q 3016 2534 2758 2815 
Q 2500 3097 2075 3097 
Q 1594 3097 1305 2825 
Q 1016 2553 972 2059 
L 3022 2063 
z
" transform="scale(0.015625)"/>
      </defs>
      <use xlink:href="#DejaVuSans-41"/>
      <use xlink:href="#DejaVuSans-74" x="66.658203"/>
      <use xlink:href="#DejaVuSans-74" x="105.867188"/>
      <use xlink:href="#DejaVuSans-6e" x="145.076172"/>
      <use xlink:href="#DejaVuSans-50" x="208.455078"/>
      <use xlink:href="#DejaVuSans-61" x="264.257812"/>
      <use xlink:href="#DejaVuSans-63" x="325.537109"/>
      <use xlink:href="#DejaVuSans-6b" x="380.517578"/>
      <use xlink:href="#DejaVuSans-65" x="434.802734"/>
      <use xlink:href="#DejaVuSans-72" x="496.326172"/>
     </g>
    </g>
    <g id="line2d_34">
     <path d="M 126.237109 509.238469 
L 141.237109 509.238469 
L 156.237109 509.238469 
" style="fill: none; stroke-dasharray: 6,2.25; stroke-dashoffset: 0; stroke: #ff7f0e; stroke-width: 1.5"/>
    </g>
    <g id="text_35">
     <!-- AttnPacker (AF2) -->
     <g style="fill: #262626" transform="translate(168.237109 514.488469) scale(0.15 -0.15)">
      <defs>
       <path id="DejaVuSans-28" d="M 1984 4856 
Q 1566 4138 1362 3434 
Q 1159 2731 1159 2009 
Q 1159 1288 1364 580 
Q 1569 -128 1984 -844 
L 1484 -844 
Q 1016 -109 783 600 
Q 550 1309 550 2009 
Q 550 2706 781 3412 
Q 1013 4119 1484 4856 
L 1984 4856 
z
" transform="scale(0.015625)"/>
       <path id="DejaVuSans-46" d="M 628 4666 
L 3309 4666 
L 3309 4134 
L 1259 4134 
L 1259 2759 
L 3109 2759 
L 3109 2228 
L 1259 2228 
L 1259 0 
L 628 0 
L 628 4666 
z
" transform="scale(0.015625)"/>
       <path id="DejaVuSans-29" d="M 513 4856 
L 1013 4856 
Q 1481 4119 1714 3412 
Q 1947 2706 1947 2009 
Q 1947 1309 1714 600 
Q 1481 -109 1013 -844 
L 513 -844 
Q 928 -128 1133 580 
Q 1338 1288 1338 2009 
Q 1338 2731 1133 3434 
Q 928 4138 513 4856 
z
" transform="scale(0.015625)"/>
      </defs>
      <use xlink:href="#DejaVuSans-41"/>
      <use xlink:href="#DejaVuSans-74" x="66.658203"/>
      <use xlink:href="#DejaVuSans-74" x="105.867188"/>
      <use xlink:href="#DejaVuSans-6e" x="145.076172"/>
      <use xlink:href="#DejaVuSans-50" x="208.455078"/>
      <use xlink:href="#DejaVuSans-61" x="264.257812"/>
      <use xlink:href="#DejaVuSans-63" x="325.537109"/>
      <use xlink:href="#DejaVuSans-6b" x="380.517578"/>
      <use xlink:href="#DejaVuSans-65" x="434.802734"/>
      <use xlink:href="#DejaVuSans-72" x="496.326172"/>
      <use xlink:href="#DejaVuSans-20" x="537.439453"/>
      <use xlink:href="#DejaVuSans-28" x="569.226562"/>
      <use xlink:href="#DejaVuSans-41" x="608.240234"/>
      <use xlink:href="#DejaVuSans-46" x="676.648438"/>
      <use xlink:href="#DejaVuSans-32" x="734.167969"/>
      <use xlink:href="#DejaVuSans-29" x="797.791016"/>
     </g>
    </g>
    <g id="line2d_35">
     <path d="M 323.754297 487.221281 
L 338.754297 487.221281 
L 353.754297 487.221281 
" style="fill: none; stroke-dasharray: 1.5,1.5; stroke-dashoffset: 0; stroke: #2ca02c; stroke-width: 1.5"/>
    </g>
    <g id="text_36">
     <!-- C36 (AF2) -->
     <g style="fill: #262626" transform="translate(365.754297 492.471281) scale(0.15 -0.15)">
      <defs>
       <path id="DejaVuSans-43" d="M 4122 4306 
L 4122 3641 
Q 3803 3938 3442 4084 
Q 3081 4231 2675 4231 
Q 1875 4231 1450 3742 
Q 1025 3253 1025 2328 
Q 1025 1406 1450 917 
Q 1875 428 2675 428 
Q 3081 428 3442 575 
Q 3803 722 4122 1019 
L 4122 359 
Q 3791 134 3420 21 
Q 3050 -91 2638 -91 
Q 1578 -91 968 557 
Q 359 1206 359 2328 
Q 359 3453 968 4101 
Q 1578 4750 2638 4750 
Q 3056 4750 3426 4639 
Q 3797 4528 4122 4306 
z
" transform="scale(0.015625)"/>
      </defs>
      <use xlink:href="#DejaVuSans-43"/>
      <use xlink:href="#DejaVuSans-33" x="69.824219"/>
      <use xlink:href="#DejaVuSans-36" x="133.447266"/>
      <use xlink:href="#DejaVuSans-20" x="197.070312"/>
      <use xlink:href="#DejaVuSans-28" x="228.857422"/>
      <use xlink:href="#DejaVuSans-41" x="267.871094"/>
      <use xlink:href="#DejaVuSans-46" x="336.279297"/>
      <use xlink:href="#DejaVuSans-32" x="393.798828"/>
      <use xlink:href="#DejaVuSans-29" x="457.421875"/>
     </g>
    </g>
    <g id="line2d_36">
     <path d="M 323.754297 509.238469 
L 338.754297 509.238469 
L 353.754297 509.238469 
" style="fill: none; stroke-dasharray: 4.5,1.875,2.25,1.875; stroke-dashoffset: 0; stroke: #d62728; stroke-width: 1.5"/>
    </g>
    <g id="text_37">
     <!-- FASPR (AF2) -->
     <g style="fill: #262626" transform="translate(365.754297 514.488469) scale(0.15 -0.15)">
      <defs>
       <path id="DejaVuSans-52" d="M 2841 2188 
Q 3044 2119 3236 1894 
Q 3428 1669 3622 1275 
L 4263 0 
L 3584 0 
L 2988 1197 
Q 2756 1666 2539 1819 
Q 2322 1972 1947 1972 
L 1259 1972 
L 1259 0 
L 628 0 
L 628 4666 
L 2053 4666 
Q 2853 4666 3247 4331 
Q 3641 3997 3641 3322 
Q 3641 2881 3436 2590 
Q 3231 2300 2841 2188 
z
M 1259 4147 
L 1259 2491 
L 2053 2491 
Q 2509 2491 2742 2702 
Q 2975 2913 2975 3322 
Q 2975 3731 2742 3939 
Q 2509 4147 2053 4147 
L 1259 4147 
z
" transform="scale(0.015625)"/>
      </defs>
      <use xlink:href="#DejaVuSans-46"/>
      <use xlink:href="#DejaVuSans-41" x="48.394531"/>
      <use xlink:href="#DejaVuSans-53" x="116.802734"/>
      <use xlink:href="#DejaVuSans-50" x="180.279297"/>
      <use xlink:href="#DejaVuSans-52" x="240.582031"/>
      <use xlink:href="#DejaVuSans-20" x="310.064453"/>
      <use xlink:href="#DejaVuSans-28" x="341.851562"/>
      <use xlink:href="#DejaVuSans-41" x="380.865234"/>
      <use xlink:href="#DejaVuSans-46" x="449.273438"/>
      <use xlink:href="#DejaVuSans-32" x="506.792969"/>
      <use xlink:href="#DejaVuSans-29" x="570.416016"/>
     </g>
    </g>
    <g id="line2d_37">
     <path d="M 487.167578 487.221281 
L 502.167578 487.221281 
L 517.167578 487.221281 
" style="fill: none; stroke-dasharray: 7.5,1.5,1.5,1.5; stroke-dashoffset: 0; stroke: #9467bd; stroke-width: 1.5"/>
    </g>
    <g id="text_38">
     <!-- Heuristic -->
     <g style="fill: #262626" transform="translate(529.167578 492.471281) scale(0.15 -0.15)">
      <defs>
       <path id="DejaVuSans-48" d="M 628 4666 
L 1259 4666 
L 1259 2753 
L 3553 2753 
L 3553 4666 
L 4184 4666 
L 4184 0 
L 3553 0 
L 3553 2222 
L 1259 2222 
L 1259 0 
L 628 0 
L 628 4666 
z
" transform="scale(0.015625)"/>
       <path id="DejaVuSans-75" d="M 544 1381 
L 544 3500 
L 1119 3500 
L 1119 1403 
Q 1119 906 1312 657 
Q 1506 409 1894 409 
Q 2359 409 2629 706 
Q 2900 1003 2900 1516 
L 2900 3500 
L 3475 3500 
L 3475 0 
L 2900 0 
L 2900 538 
Q 2691 219 2414 64 
Q 2138 -91 1772 -91 
Q 1169 -91 856 284 
Q 544 659 544 1381 
z
M 1991 3584 
L 1991 3584 
z
" transform="scale(0.015625)"/>
       <path id="DejaVuSans-69" d="M 603 3500 
L 1178 3500 
L 1178 0 
L 603 0 
L 603 3500 
z
M 603 4863 
L 1178 4863 
L 1178 4134 
L 603 4134 
L 603 4863 
z
" transform="scale(0.015625)"/>
       <path id="DejaVuSans-73" d="M 2834 3397 
L 2834 2853 
Q 2591 2978 2328 3040 
Q 2066 3103 1784 3103 
Q 1356 3103 1142 2972 
Q 928 2841 928 2578 
Q 928 2378 1081 2264 
Q 1234 2150 1697 2047 
L 1894 2003 
Q 2506 1872 2764 1633 
Q 3022 1394 3022 966 
Q 3022 478 2636 193 
Q 2250 -91 1575 -91 
Q 1294 -91 989 -36 
Q 684 19 347 128 
L 347 722 
Q 666 556 975 473 
Q 1284 391 1588 391 
Q 1994 391 2212 530 
Q 2431 669 2431 922 
Q 2431 1156 2273 1281 
Q 2116 1406 1581 1522 
L 1381 1569 
Q 847 1681 609 1914 
Q 372 2147 372 2553 
Q 372 3047 722 3315 
Q 1072 3584 1716 3584 
Q 2034 3584 2315 3537 
Q 2597 3491 2834 3397 
z
" transform="scale(0.015625)"/>
      </defs>
      <use xlink:href="#DejaVuSans-48"/>
      <use xlink:href="#DejaVuSans-65" x="75.195312"/>
      <use xlink:href="#DejaVuSans-75" x="136.71875"/>
      <use xlink:href="#DejaVuSans-72" x="200.097656"/>
      <use xlink:href="#DejaVuSans-69" x="241.210938"/>
      <use xlink:href="#DejaVuSans-73" x="268.994141"/>
      <use xlink:href="#DejaVuSans-74" x="321.09375"/>
      <use xlink:href="#DejaVuSans-69" x="360.302734"/>
      <use xlink:href="#DejaVuSans-63" x="388.085938"/>
     </g>
    </g>
    <g id="line2d_38">
     <path d="M 487.167578 509.238469 
L 502.167578 509.238469 
L 517.167578 509.238469 
" style="fill: none; stroke-dasharray: 4.5,1.875,1.875,1.875,1.875,1.875; stroke-dashoffset: 0; stroke: #8c564b; stroke-width: 1.5"/>
    </g>
    <g id="text_39">
     <!-- MSA -->
     <g style="fill: #262626" transform="translate(529.167578 514.488469) scale(0.15 -0.15)">
      <defs>
       <path id="DejaVuSans-4d" d="M 628 4666 
L 1569 4666 
L 2759 1491 
L 3956 4666 
L 4897 4666 
L 4897 0 
L 4281 0 
L 4281 4097 
L 3078 897 
L 2444 897 
L 1241 4097 
L 1241 0 
L 628 0 
L 628 4666 
z
" transform="scale(0.015625)"/>
      </defs>
      <use xlink:href="#DejaVuSans-4d"/>
      <use xlink:href="#DejaVuSans-53" x="86.279297"/>
      <use xlink:href="#DejaVuSans-41" x="151.630859"/>
     </g>
    </g>
    <g id="line2d_39">
     <path d="M 625.626953 487.221281 
L 640.626953 487.221281 
L 655.626953 487.221281 
" style="fill: none; stroke-dasharray: 6,1.5,6,1.5,1.5,1.5; stroke-dashoffset: 0; stroke: #e377c2; stroke-width: 1.5"/>
    </g>
    <g id="text_40">
     <!-- Template (AF2) -->
     <g style="fill: #262626" transform="translate(667.626953 492.471281) scale(0.15 -0.15)">
      <defs>
       <path id="DejaVuSans-6d" d="M 3328 2828 
Q 3544 3216 3844 3400 
Q 4144 3584 4550 3584 
Q 5097 3584 5394 3201 
Q 5691 2819 5691 2113 
L 5691 0 
L 5113 0 
L 5113 2094 
Q 5113 2597 4934 2840 
Q 4756 3084 4391 3084 
Q 3944 3084 3684 2787 
Q 3425 2491 3425 1978 
L 3425 0 
L 2847 0 
L 2847 2094 
Q 2847 2600 2669 2842 
Q 2491 3084 2119 3084 
Q 1678 3084 1418 2786 
Q 1159 2488 1159 1978 
L 1159 0 
L 581 0 
L 581 3500 
L 1159 3500 
L 1159 2956 
Q 1356 3278 1631 3431 
Q 1906 3584 2284 3584 
Q 2666 3584 2933 3390 
Q 3200 3197 3328 2828 
z
" transform="scale(0.015625)"/>
      </defs>
      <use xlink:href="#DejaVuSans-54"/>
      <use xlink:href="#DejaVuSans-65" x="44.083984"/>
      <use xlink:href="#DejaVuSans-6d" x="105.607422"/>
      <use xlink:href="#DejaVuSans-70" x="203.019531"/>
      <use xlink:href="#DejaVuSans-6c" x="266.496094"/>
      <use xlink:href="#DejaVuSans-61" x="294.279297"/>
      <use xlink:href="#DejaVuSans-74" x="355.558594"/>
      <use xlink:href="#DejaVuSans-65" x="394.767578"/>
      <use xlink:href="#DejaVuSans-20" x="456.291016"/>
      <use xlink:href="#DejaVuSans-28" x="488.078125"/>
      <use xlink:href="#DejaVuSans-41" x="527.091797"/>
      <use xlink:href="#DejaVuSans-46" x="595.5"/>
      <use xlink:href="#DejaVuSans-32" x="653.019531"/>
      <use xlink:href="#DejaVuSans-29" x="716.642578"/>
     </g>
    </g>
    <g id="line2d_40">
     <path d="M 625.626953 509.238469 
L 640.626953 509.238469 
L 655.626953 509.238469 
" style="fill: none; stroke-dasharray: 4.5,1.875,4.5,1.875,1.875,1.875; stroke-dashoffset: 0; stroke: #7f7f7f; stroke-width: 1.5"/>
    </g>
    <g id="text_41">
     <!-- Template Beta -->
     <g style="fill: #262626" transform="translate(667.626953 514.488469) scale(0.15 -0.15)">
      <defs>
       <path id="DejaVuSans-42" d="M 1259 2228 
L 1259 519 
L 2272 519 
Q 2781 519 3026 730 
Q 3272 941 3272 1375 
Q 3272 1813 3026 2020 
Q 2781 2228 2272 2228 
L 1259 2228 
z
M 1259 4147 
L 1259 2741 
L 2194 2741 
Q 2656 2741 2882 2914 
Q 3109 3088 3109 3444 
Q 3109 3797 2882 3972 
Q 2656 4147 2194 4147 
L 1259 4147 
z
M 628 4666 
L 2241 4666 
Q 2963 4666 3353 4366 
Q 3744 4066 3744 3513 
Q 3744 3084 3544 2831 
Q 3344 2578 2956 2516 
Q 3422 2416 3680 2098 
Q 3938 1781 3938 1306 
Q 3938 681 3513 340 
Q 3088 0 2303 0 
L 628 0 
L 628 4666 
z
" transform="scale(0.015625)"/>
      </defs>
      <use xlink:href="#DejaVuSans-54"/>
      <use xlink:href="#DejaVuSans-65" x="44.083984"/>
      <use xlink:href="#DejaVuSans-6d" x="105.607422"/>
      <use xlink:href="#DejaVuSans-70" x="203.019531"/>
      <use xlink:href="#DejaVuSans-6c" x="266.496094"/>
      <use xlink:href="#DejaVuSans-61" x="294.279297"/>
      <use xlink:href="#DejaVuSans-74" x="355.558594"/>
      <use xlink:href="#DejaVuSans-65" x="394.767578"/>
      <use xlink:href="#DejaVuSans-20" x="456.291016"/>
      <use xlink:href="#DejaVuSans-42" x="488.078125"/>
      <use xlink:href="#DejaVuSans-65" x="556.681641"/>
      <use xlink:href="#DejaVuSans-74" x="618.205078"/>
      <use xlink:href="#DejaVuSans-61" x="657.414062"/>
     </g>
    </g>
   </g>
  </g>
 </g>
 <defs>
  <clipPath id="p7aac091b2c">
   <rect x="63.00625" y="7.2" width="355.090909" height="388.08"/>
  </clipPath>
  <clipPath id="pfe9c6314fa">
   <rect x="489.115341" y="7.2" width="355.090909" height="388.08"/>
  </clipPath>
 </defs>
</svg>
