<?xml version="1.0" encoding="utf-8" standalone="no"?>
<!DOCTYPE svg PUBLIC "-//W3C//DTD SVG 1.1//EN"
  "http://www.w3.org/Graphics/SVG/1.1/DTD/svg11.dtd">
<svg xmlns:xlink="http://www.w3.org/1999/xlink" width="654.411656pt" height="490.905pt" viewBox="0 0 654.411656 490.905" xmlns="http://www.w3.org/2000/svg" version="1.1">
 <metadata>
  <rdf:RDF xmlns:dc="http://purl.org/dc/elements/1.1/" xmlns:cc="http://creativecommons.org/ns#" xmlns:rdf="http://www.w3.org/1999/02/22-rdf-syntax-ns#">
   <cc:Work>
    <dc:type rdf:resource="http://purl.org/dc/dcmitype/StillImage"/>
    <dc:date>2023-12-03T01:49:58.184570</dc:date>
    <dc:format>image/svg+xml</dc:format>
    <dc:creator>
     <cc:Agent>
      <dc:title>Matplotlib v3.6.2, https://matplotlib.org/</dc:title>
     </cc:Agent>
    </dc:creator>
   </cc:Work>
  </rdf:RDF>
 </metadata>
 <defs>
  <style type="text/css">*{stroke-linejoin: round; stroke-linecap: butt}</style>
 </defs>
 <g id="figure_1">
  <g id="patch_1">
   <path d="M 0 490.905 
L 654.411656 490.905 
L 654.411656 0 
L 0 0 
L 0 490.905 
z
" style="fill: none"/>
  </g>
  <g id="axes_1">
   <g id="patch_2">
    <path d="M 82.153125 424.314375 
L 640.153125 424.314375 
L 640.153125 36.234375 
L 82.153125 36.234375 
L 82.153125 424.314375 
z
" style="fill: none"/>
   </g>
   <g id="PathCollection_1">
    <defs>
     <path id="m47d4566e9c" d="M 0 -7.627858 
L -1.712561 -2.357138 
L -7.254524 -2.357138 
L -2.770982 0.900347 
L -4.483543 6.171067 
L -0 2.913582 
L 4.483543 6.171067 
L 2.770982 0.900347 
L 7.254524 -2.357138 
L 1.712561 -2.357138 
z
" style="stroke: #009e73; stroke-opacity: 0.5"/>
    </defs>
    <g clip-path="url(#p3cfe99d237)">
     <use xlink:href="#m47d4566e9c" x="265.04479" y="263.031244" style="fill: #009e73; fill-opacity: 0.5; stroke: #009e73; stroke-opacity: 0.5"/>
    </g>
   </g>
   <g id="PathCollection_2">
    <defs>
     <path id="mb145c93f72" d="M 0 -7.766096 
L -1.743597 -2.399856 
L -7.385997 -2.399856 
L -2.8212 0.916663 
L -4.564797 6.282904 
L -0 2.966385 
L 4.564797 6.282904 
L 2.8212 0.916663 
L 7.385997 -2.399856 
L 1.743597 -2.399856 
z
" style="stroke: #d55e00; stroke-opacity: 0.5"/>
    </defs>
    <g clip-path="url(#p3cfe99d237)">
     <use xlink:href="#mb145c93f72" x="288.601412" y="257.497517" style="fill: #d55e00; fill-opacity: 0.5; stroke: #d55e00; stroke-opacity: 0.5"/>
    </g>
   </g>
   <g id="PathCollection_3">
    <defs>
     <path id="mbdfafbe483" d="M 0 -7.495953 
L -1.682946 -2.316377 
L -7.129075 -2.316377 
L -2.723064 0.884777 
L -4.406011 6.064354 
L -0 2.863199 
L 4.406011 6.064354 
L 2.723064 0.884777 
L 7.129075 -2.316377 
L 1.682946 -2.316377 
z
" style="stroke: #cc79a7; stroke-opacity: 0.5"/>
    </defs>
    <g clip-path="url(#p3cfe99d237)">
     <use xlink:href="#mbdfafbe483" x="245.863401" y="296.969766" style="fill: #cc79a7; fill-opacity: 0.5; stroke: #cc79a7; stroke-opacity: 0.5"/>
    </g>
   </g>
   <g id="PathCollection_4">
    <defs>
     <path id="m13bc379007" d="M 0 -7.650595 
L -1.717666 -2.364164 
L -7.276148 -2.364164 
L -2.779241 0.90303 
L -4.496907 6.189462 
L -0 2.922267 
L 4.496907 6.189462 
L 2.779241 0.90303 
L 7.276148 -2.364164 
L 1.717666 -2.364164 
z
" style="stroke: #f0e442; stroke-opacity: 0.5"/>
    </defs>
    <g clip-path="url(#p3cfe99d237)">
     <use xlink:href="#m13bc379007" x="247.158851" y="295.161196" style="fill: #f0e442; fill-opacity: 0.5; stroke: #f0e442; stroke-opacity: 0.5"/>
    </g>
   </g>
   <g id="PathCollection_5">
    <defs>
     <path id="mbec1178789" d="M 0 -4.241892 
L -0.952364 -1.310817 
L -4.034279 -1.310817 
L -1.540958 0.500687 
L -2.493322 3.431763 
L -0 1.620259 
L 2.493322 3.431763 
L 1.540958 0.500687 
L 4.034279 -1.310817 
L 0.952364 -1.310817 
z
" style="stroke: #56b4e9; stroke-opacity: 0.5"/>
    </defs>
    <g clip-path="url(#p3cfe99d237)">
     <use xlink:href="#mbec1178789" x="614.789489" y="53.874375" style="fill: #56b4e9; fill-opacity: 0.5; stroke: #56b4e9; stroke-opacity: 0.5"/>
    </g>
   </g>
   <g id="PathCollection_6">
    <defs>
     <path id="m61e58bfa3b" d="M 0 7.417733 
C 1.967206 7.417733 3.854105 6.636154 5.245129 5.245129 
C 6.636154 3.854105 7.417733 1.967206 7.417733 0 
C 7.417733 -1.967206 6.636154 -3.854105 5.245129 -5.245129 
C 3.854105 -6.636154 1.967206 -7.417733 0 -7.417733 
C -1.967206 -7.417733 -3.854105 -6.636154 -5.245129 -5.245129 
C -6.636154 -3.854105 -7.417733 -1.967206 -7.417733 0 
C -7.417733 1.967206 -6.636154 3.854105 -5.245129 5.245129 
C -3.854105 6.636154 -1.967206 7.417733 0 7.417733 
z
" style="stroke: #0072b2; stroke-opacity: 0.5"/>
    </defs>
    <g clip-path="url(#p3cfe99d237)">
     <use xlink:href="#m61e58bfa3b" x="227.956592" y="305.743222" style="fill: #0072b2; fill-opacity: 0.5; stroke: #0072b2; stroke-opacity: 0.5"/>
    </g>
   </g>
   <g id="PathCollection_7">
    <defs>
     <path id="m2012dad3d8" d="M 0 7.518282 
C 1.993872 7.518282 3.906348 6.726108 5.316228 5.316228 
C 6.726108 3.906348 7.518282 1.993872 7.518282 0 
C 7.518282 -1.993872 6.726108 -3.906348 5.316228 -5.316228 
C 3.906348 -6.726108 1.993872 -7.518282 0 -7.518282 
C -1.993872 -7.518282 -3.906348 -6.726108 -5.316228 -5.316228 
C -6.726108 -3.906348 -7.518282 -1.993872 -7.518282 0 
C -7.518282 1.993872 -6.726108 3.906348 -5.316228 5.316228 
C -3.906348 6.726108 -1.993872 7.518282 0 7.518282 
z
" style="stroke: #009e73; stroke-opacity: 0.5"/>
    </defs>
    <g clip-path="url(#p3cfe99d237)">
     <use xlink:href="#m2012dad3d8" x="262.238507" y="267.500313" style="fill: #009e73; fill-opacity: 0.5; stroke: #009e73; stroke-opacity: 0.5"/>
    </g>
   </g>
   <g id="PathCollection_8">
    <defs>
     <path id="mb8c53ce902" d="M 0 7.706243 
C 2.04372 7.706243 4.004009 6.894265 5.449137 5.449137 
C 6.894265 4.004009 7.706243 2.04372 7.706243 0 
C 7.706243 -2.04372 6.894265 -4.004009 5.449137 -5.449137 
C 4.004009 -6.894265 2.04372 -7.706243 0 -7.706243 
C -2.04372 -7.706243 -4.004009 -6.894265 -5.449137 -5.449137 
C -6.894265 -4.004009 -7.706243 -2.04372 -7.706243 0 
C -7.706243 2.04372 -6.894265 4.004009 -5.449137 5.449137 
C -4.004009 6.894265 -2.04372 7.706243 0 7.706243 
z
" style="stroke: #d55e00; stroke-opacity: 0.5"/>
    </defs>
    <g clip-path="url(#p3cfe99d237)">
     <use xlink:href="#mb8c53ce902" x="314.075898" y="249.593322" style="fill: #d55e00; fill-opacity: 0.5; stroke: #d55e00; stroke-opacity: 0.5"/>
    </g>
   </g>
   <g id="PathCollection_9">
    <defs>
     <path id="me7e52954e5" d="M 0 7.466104 
C 1.980034 7.466104 3.879237 6.679428 5.279333 5.279333 
C 6.679428 3.879237 7.466104 1.980034 7.466104 0 
C 7.466104 -1.980034 6.679428 -3.879237 5.279333 -5.279333 
C 3.879237 -6.679428 1.980034 -7.466104 0 -7.466104 
C -1.980034 -7.466104 -3.879237 -6.679428 -5.279333 -5.279333 
C -6.679428 -3.879237 -7.466104 -1.980034 -7.466104 0 
C -7.466104 1.980034 -6.679428 3.879237 -5.279333 5.279333 
C -3.879237 6.679428 -1.980034 7.466104 0 7.466104 
z
" style="stroke: #cc79a7; stroke-opacity: 0.5"/>
    </defs>
    <g clip-path="url(#p3cfe99d237)">
     <use xlink:href="#me7e52954e5" x="107.516761" y="406.674375" style="fill: #cc79a7; fill-opacity: 0.5; stroke: #cc79a7; stroke-opacity: 0.5"/>
    </g>
   </g>
   <g id="PathCollection_10">
    <defs>
     <path id="m8b91c9aa43" d="M 0 7.554669 
C 2.003522 7.554669 3.925254 6.758661 5.341957 5.341957 
C 6.758661 3.925254 7.554669 2.003522 7.554669 0 
C 7.554669 -2.003522 6.758661 -3.925254 5.341957 -5.341957 
C 3.925254 -6.758661 2.003522 -7.554669 0 -7.554669 
C -2.003522 -7.554669 -3.925254 -6.758661 -5.341957 -5.341957 
C -6.758661 -3.925254 -7.554669 -2.003522 -7.554669 0 
C -7.554669 2.003522 -6.758661 3.925254 -5.341957 5.341957 
C -3.925254 6.758661 -2.003522 7.554669 0 7.554669 
z
" style="stroke: #f0e442; stroke-opacity: 0.5"/>
    </defs>
    <g clip-path="url(#p3cfe99d237)">
     <use xlink:href="#m8b91c9aa43" x="233.93933" y="301.701628" style="fill: #f0e442; fill-opacity: 0.5; stroke: #f0e442; stroke-opacity: 0.5"/>
    </g>
   </g>
   <g id="PathCollection_11">
    <defs>
     <path id="mb303509702" d="M 0 4.194011 
C 1.112265 4.194011 2.179124 3.752104 2.965614 2.965614 
C 3.752104 2.179124 4.194011 1.112265 4.194011 0 
C 4.194011 -1.112265 3.752104 -2.179124 2.965614 -2.965614 
C 2.179124 -3.752104 1.112265 -4.194011 0 -4.194011 
C -1.112265 -4.194011 -2.179124 -3.752104 -2.965614 -2.965614 
C -3.752104 -2.179124 -4.194011 -1.112265 -4.194011 0 
C -4.194011 1.112265 -3.752104 2.179124 -2.965614 2.965614 
C -2.179124 3.752104 -1.112265 4.194011 0 4.194011 
z
" style="stroke: #56b4e9; stroke-opacity: 0.5"/>
    </defs>
    <g clip-path="url(#p3cfe99d237)">
     <use xlink:href="#mb303509702" x="589.889206" y="61.296223" style="fill: #56b4e9; fill-opacity: 0.5; stroke: #56b4e9; stroke-opacity: 0.5"/>
    </g>
   </g>
   <g id="PathCollection_12">
    <defs>
     <path id="m0df52d2058" d="M 0 7.858177 
C 2.084013 7.858177 4.08295 7.03019 5.55657 5.55657 
C 7.03019 4.08295 7.858177 2.084013 7.858177 0 
C 7.858177 -2.084013 7.03019 -4.08295 5.55657 -5.55657 
C 4.08295 -7.03019 2.084013 -7.858177 0 -7.858177 
C -2.084013 -7.858177 -4.08295 -7.03019 -5.55657 -5.55657 
C -7.03019 -4.08295 -7.858177 -2.084013 -7.858177 0 
C -7.858177 2.084013 -7.03019 4.08295 -5.55657 5.55657 
C -4.08295 7.03019 -2.084013 7.858177 0 7.858177 
z
" style="stroke: #000000; stroke-opacity: 0.5"/>
    </defs>
    <g clip-path="url(#p3cfe99d237)">
     <use xlink:href="#m0df52d2058" x="319.795495" y="234.212016" style="fill: #56b4e9; fill-opacity: 0.5; stroke: #000000; stroke-opacity: 0.5"/>
    </g>
   </g>
   <g id="PathCollection_13">
    <defs>
     <path id="m9adf59fefc" d="M 0 7.633076 
C 2.024315 7.633076 3.965993 6.828807 5.3974 5.3974 
C 6.828807 3.965993 7.633076 2.024315 7.633076 0 
C 7.633076 -2.024315 6.828807 -3.965993 5.3974 -5.3974 
C 3.965993 -6.828807 2.024315 -7.633076 0 -7.633076 
C -2.024315 -7.633076 -3.965993 -6.828807 -5.3974 -5.3974 
C -6.828807 -3.965993 -7.633076 -2.024315 -7.633076 0 
C -7.633076 2.024315 -6.828807 3.965993 -5.3974 5.3974 
C -3.965993 6.828807 -2.024315 7.633076 0 7.633076 
z
" style="stroke: #000000; stroke-opacity: 0.5"/>
    </defs>
    <g clip-path="url(#p3cfe99d237)">
     <use xlink:href="#m9adf59fefc" x="248.733177" y="294.534807" style="fill: #56b4e9; fill-opacity: 0.5; stroke: #000000; stroke-opacity: 0.5"/>
    </g>
   </g>
   <g id="matplotlib.axis_1">
    <g id="xtick_1">
     <g id="line2d_1">
      <defs>
       <path id="m5b4b3d9936" d="M 0 0 
L 0 3.5 
" style="stroke: #000000; stroke-width: 0.8"/>
      </defs>
      <g>
       <use xlink:href="#m5b4b3d9936" x="199.73482" y="424.314375" style="stroke: #000000; stroke-width: 0.8"/>
      </g>
     </g>
     <g id="text_1">
      <!-- 0.6 -->
      <g transform="translate(179.855913 450.310469) scale(0.25 -0.25)">
       <defs>
        <path id="DejaVuSans-30" d="M 2034 4250 
Q 1547 4250 1301 3770 
Q 1056 3291 1056 2328 
Q 1056 1369 1301 889 
Q 1547 409 2034 409 
Q 2525 409 2770 889 
Q 3016 1369 3016 2328 
Q 3016 3291 2770 3770 
Q 2525 4250 2034 4250 
z
M 2034 4750 
Q 2819 4750 3233 4129 
Q 3647 3509 3647 2328 
Q 3647 1150 3233 529 
Q 2819 -91 2034 -91 
Q 1250 -91 836 529 
Q 422 1150 422 2328 
Q 422 3509 836 4129 
Q 1250 4750 2034 4750 
z
" transform="scale(0.015625)"/>
        <path id="DejaVuSans-2e" d="M 684 794 
L 1344 794 
L 1344 0 
L 684 0 
L 684 794 
z
" transform="scale(0.015625)"/>
        <path id="DejaVuSans-36" d="M 2113 2584 
Q 1688 2584 1439 2293 
Q 1191 2003 1191 1497 
Q 1191 994 1439 701 
Q 1688 409 2113 409 
Q 2538 409 2786 701 
Q 3034 994 3034 1497 
Q 3034 2003 2786 2293 
Q 2538 2584 2113 2584 
z
M 3366 4563 
L 3366 3988 
Q 3128 4100 2886 4159 
Q 2644 4219 2406 4219 
Q 1781 4219 1451 3797 
Q 1122 3375 1075 2522 
Q 1259 2794 1537 2939 
Q 1816 3084 2150 3084 
Q 2853 3084 3261 2657 
Q 3669 2231 3669 1497 
Q 3669 778 3244 343 
Q 2819 -91 2113 -91 
Q 1303 -91 875 529 
Q 447 1150 447 2328 
Q 447 3434 972 4092 
Q 1497 4750 2381 4750 
Q 2619 4750 2861 4703 
Q 3103 4656 3366 4563 
z
" transform="scale(0.015625)"/>
       </defs>
       <use xlink:href="#DejaVuSans-30"/>
       <use xlink:href="#DejaVuSans-2e" x="63.623047"/>
       <use xlink:href="#DejaVuSans-36" x="95.410156"/>
      </g>
     </g>
    </g>
    <g id="xtick_2">
     <g id="line2d_2">
      <g>
       <use xlink:href="#m5b4b3d9936" x="342.267463" y="424.314375" style="stroke: #000000; stroke-width: 0.8"/>
      </g>
     </g>
     <g id="text_2">
      <!-- 0.7 -->
      <g transform="translate(322.388557 450.310469) scale(0.25 -0.25)">
       <defs>
        <path id="DejaVuSans-37" d="M 525 4666 
L 3525 4666 
L 3525 4397 
L 1831 0 
L 1172 0 
L 2766 4134 
L 525 4134 
L 525 4666 
z
" transform="scale(0.015625)"/>
       </defs>
       <use xlink:href="#DejaVuSans-30"/>
       <use xlink:href="#DejaVuSans-2e" x="63.623047"/>
       <use xlink:href="#DejaVuSans-37" x="95.410156"/>
      </g>
     </g>
    </g>
    <g id="xtick_3">
     <g id="line2d_3">
      <g>
       <use xlink:href="#m5b4b3d9936" x="484.800106" y="424.314375" style="stroke: #000000; stroke-width: 0.8"/>
      </g>
     </g>
     <g id="text_3">
      <!-- 0.8 -->
      <g transform="translate(464.9212 450.310469) scale(0.25 -0.25)">
       <defs>
        <path id="DejaVuSans-38" d="M 2034 2216 
Q 1584 2216 1326 1975 
Q 1069 1734 1069 1313 
Q 1069 891 1326 650 
Q 1584 409 2034 409 
Q 2484 409 2743 651 
Q 3003 894 3003 1313 
Q 3003 1734 2745 1975 
Q 2488 2216 2034 2216 
z
M 1403 2484 
Q 997 2584 770 2862 
Q 544 3141 544 3541 
Q 544 4100 942 4425 
Q 1341 4750 2034 4750 
Q 2731 4750 3128 4425 
Q 3525 4100 3525 3541 
Q 3525 3141 3298 2862 
Q 3072 2584 2669 2484 
Q 3125 2378 3379 2068 
Q 3634 1759 3634 1313 
Q 3634 634 3220 271 
Q 2806 -91 2034 -91 
Q 1263 -91 848 271 
Q 434 634 434 1313 
Q 434 1759 690 2068 
Q 947 2378 1403 2484 
z
M 1172 3481 
Q 1172 3119 1398 2916 
Q 1625 2713 2034 2713 
Q 2441 2713 2670 2916 
Q 2900 3119 2900 3481 
Q 2900 3844 2670 4047 
Q 2441 4250 2034 4250 
Q 1625 4250 1398 4047 
Q 1172 3844 1172 3481 
z
" transform="scale(0.015625)"/>
       </defs>
       <use xlink:href="#DejaVuSans-30"/>
       <use xlink:href="#DejaVuSans-2e" x="63.623047"/>
       <use xlink:href="#DejaVuSans-38" x="95.410156"/>
      </g>
     </g>
    </g>
    <g id="xtick_4">
     <g id="line2d_4">
      <g>
       <use xlink:href="#m5b4b3d9936" x="627.332749" y="424.314375" style="stroke: #000000; stroke-width: 0.8"/>
      </g>
     </g>
     <g id="text_4">
      <!-- 0.9 -->
      <g transform="translate(607.453843 450.310469) scale(0.25 -0.25)">
       <defs>
        <path id="DejaVuSans-39" d="M 703 97 
L 703 672 
Q 941 559 1184 500 
Q 1428 441 1663 441 
Q 2288 441 2617 861 
Q 2947 1281 2994 2138 
Q 2813 1869 2534 1725 
Q 2256 1581 1919 1581 
Q 1219 1581 811 2004 
Q 403 2428 403 3163 
Q 403 3881 828 4315 
Q 1253 4750 1959 4750 
Q 2769 4750 3195 4129 
Q 3622 3509 3622 2328 
Q 3622 1225 3098 567 
Q 2575 -91 1691 -91 
Q 1453 -91 1209 -44 
Q 966 3 703 97 
z
M 1959 2075 
Q 2384 2075 2632 2365 
Q 2881 2656 2881 3163 
Q 2881 3666 2632 3958 
Q 2384 4250 1959 4250 
Q 1534 4250 1286 3958 
Q 1038 3666 1038 3163 
Q 1038 2656 1286 2365 
Q 1534 2075 1959 2075 
z
" transform="scale(0.015625)"/>
       </defs>
       <use xlink:href="#DejaVuSans-30"/>
       <use xlink:href="#DejaVuSans-2e" x="63.623047"/>
       <use xlink:href="#DejaVuSans-39" x="95.410156"/>
      </g>
     </g>
    </g>
    <g id="text_5">
     <!-- TM-score -->
     <g transform="translate(304.641406 478.505781) scale(0.25 -0.25)">
      <defs>
       <path id="DejaVuSans-54" d="M -19 4666 
L 3928 4666 
L 3928 4134 
L 2272 4134 
L 2272 0 
L 1638 0 
L 1638 4134 
L -19 4134 
L -19 4666 
z
" transform="scale(0.015625)"/>
       <path id="DejaVuSans-4d" d="M 628 4666 
L 1569 4666 
L 2759 1491 
L 3956 4666 
L 4897 4666 
L 4897 0 
L 4281 0 
L 4281 4097 
L 3078 897 
L 2444 897 
L 1241 4097 
L 1241 0 
L 628 0 
L 628 4666 
z
" transform="scale(0.015625)"/>
       <path id="DejaVuSans-2d" d="M 313 2009 
L 1997 2009 
L 1997 1497 
L 313 1497 
L 313 2009 
z
" transform="scale(0.015625)"/>
       <path id="DejaVuSans-73" d="M 2834 3397 
L 2834 2853 
Q 2591 2978 2328 3040 
Q 2066 3103 1784 3103 
Q 1356 3103 1142 2972 
Q 928 2841 928 2578 
Q 928 2378 1081 2264 
Q 1234 2150 1697 2047 
L 1894 2003 
Q 2506 1872 2764 1633 
Q 3022 1394 3022 966 
Q 3022 478 2636 193 
Q 2250 -91 1575 -91 
Q 1294 -91 989 -36 
Q 684 19 347 128 
L 347 722 
Q 666 556 975 473 
Q 1284 391 1588 391 
Q 1994 391 2212 530 
Q 2431 669 2431 922 
Q 2431 1156 2273 1281 
Q 2116 1406 1581 1522 
L 1381 1569 
Q 847 1681 609 1914 
Q 372 2147 372 2553 
Q 372 3047 722 3315 
Q 1072 3584 1716 3584 
Q 2034 3584 2315 3537 
Q 2597 3491 2834 3397 
z
" transform="scale(0.015625)"/>
       <path id="DejaVuSans-63" d="M 3122 3366 
L 3122 2828 
Q 2878 2963 2633 3030 
Q 2388 3097 2138 3097 
Q 1578 3097 1268 2742 
Q 959 2388 959 1747 
Q 959 1106 1268 751 
Q 1578 397 2138 397 
Q 2388 397 2633 464 
Q 2878 531 3122 666 
L 3122 134 
Q 2881 22 2623 -34 
Q 2366 -91 2075 -91 
Q 1284 -91 818 406 
Q 353 903 353 1747 
Q 353 2603 823 3093 
Q 1294 3584 2113 3584 
Q 2378 3584 2631 3529 
Q 2884 3475 3122 3366 
z
" transform="scale(0.015625)"/>
       <path id="DejaVuSans-6f" d="M 1959 3097 
Q 1497 3097 1228 2736 
Q 959 2375 959 1747 
Q 959 1119 1226 758 
Q 1494 397 1959 397 
Q 2419 397 2687 759 
Q 2956 1122 2956 1747 
Q 2956 2369 2687 2733 
Q 2419 3097 1959 3097 
z
M 1959 3584 
Q 2709 3584 3137 3096 
Q 3566 2609 3566 1747 
Q 3566 888 3137 398 
Q 2709 -91 1959 -91 
Q 1206 -91 779 398 
Q 353 888 353 1747 
Q 353 2609 779 3096 
Q 1206 3584 1959 3584 
z
" transform="scale(0.015625)"/>
       <path id="DejaVuSans-72" d="M 2631 2963 
Q 2534 3019 2420 3045 
Q 2306 3072 2169 3072 
Q 1681 3072 1420 2755 
Q 1159 2438 1159 1844 
L 1159 0 
L 581 0 
L 581 3500 
L 1159 3500 
L 1159 2956 
Q 1341 3275 1631 3429 
Q 1922 3584 2338 3584 
Q 2397 3584 2469 3576 
Q 2541 3569 2628 3553 
L 2631 2963 
z
" transform="scale(0.015625)"/>
       <path id="DejaVuSans-65" d="M 3597 1894 
L 3597 1613 
L 953 1613 
Q 991 1019 1311 708 
Q 1631 397 2203 397 
Q 2534 397 2845 478 
Q 3156 559 3463 722 
L 3463 178 
Q 3153 47 2828 -22 
Q 2503 -91 2169 -91 
Q 1331 -91 842 396 
Q 353 884 353 1716 
Q 353 2575 817 3079 
Q 1281 3584 2069 3584 
Q 2775 3584 3186 3129 
Q 3597 2675 3597 1894 
z
M 3022 2063 
Q 3016 2534 2758 2815 
Q 2500 3097 2075 3097 
Q 1594 3097 1305 2825 
Q 1016 2553 972 2059 
L 3022 2063 
z
" transform="scale(0.015625)"/>
      </defs>
      <use xlink:href="#DejaVuSans-54"/>
      <use xlink:href="#DejaVuSans-4d" x="61.083984"/>
      <use xlink:href="#DejaVuSans-2d" x="147.363281"/>
      <use xlink:href="#DejaVuSans-73" x="183.447266"/>
      <use xlink:href="#DejaVuSans-63" x="235.546875"/>
      <use xlink:href="#DejaVuSans-6f" x="290.527344"/>
      <use xlink:href="#DejaVuSans-72" x="351.708984"/>
      <use xlink:href="#DejaVuSans-65" x="390.572266"/>
     </g>
    </g>
   </g>
   <g id="matplotlib.axis_2">
    <g id="ytick_1">
     <g id="line2d_5">
      <defs>
       <path id="mec720dc69b" d="M 0 0 
L -3.5 0 
" style="stroke: #000000; stroke-width: 0.8"/>
      </defs>
      <g>
       <use xlink:href="#mec720dc69b" x="82.153125" y="360.941466" style="stroke: #000000; stroke-width: 0.8"/>
      </g>
     </g>
     <g id="text_6">
      <!-- 0.6 -->
      <g transform="translate(35.395313 370.439513) scale(0.25 -0.25)">
       <use xlink:href="#DejaVuSans-30"/>
       <use xlink:href="#DejaVuSans-2e" x="63.623047"/>
       <use xlink:href="#DejaVuSans-36" x="95.410156"/>
      </g>
     </g>
    </g>
    <g id="ytick_2">
     <g id="line2d_6">
      <g>
       <use xlink:href="#mec720dc69b" x="82.153125" y="260.25389" style="stroke: #000000; stroke-width: 0.8"/>
      </g>
     </g>
     <g id="text_7">
      <!-- 0.7 -->
      <g transform="translate(35.395313 269.751937) scale(0.25 -0.25)">
       <use xlink:href="#DejaVuSans-30"/>
       <use xlink:href="#DejaVuSans-2e" x="63.623047"/>
       <use xlink:href="#DejaVuSans-37" x="95.410156"/>
      </g>
     </g>
    </g>
    <g id="ytick_3">
     <g id="line2d_7">
      <g>
       <use xlink:href="#mec720dc69b" x="82.153125" y="159.566315" style="stroke: #000000; stroke-width: 0.8"/>
      </g>
     </g>
     <g id="text_8">
      <!-- 0.8 -->
      <g transform="translate(35.395313 169.064362) scale(0.25 -0.25)">
       <use xlink:href="#DejaVuSans-30"/>
       <use xlink:href="#DejaVuSans-2e" x="63.623047"/>
       <use xlink:href="#DejaVuSans-38" x="95.410156"/>
      </g>
     </g>
    </g>
    <g id="ytick_4">
     <g id="line2d_8">
      <g>
       <use xlink:href="#mec720dc69b" x="82.153125" y="58.878739" style="stroke: #000000; stroke-width: 0.8"/>
      </g>
     </g>
     <g id="text_9">
      <!-- 0.9 -->
      <g transform="translate(35.395313 68.376786) scale(0.25 -0.25)">
       <use xlink:href="#DejaVuSans-30"/>
       <use xlink:href="#DejaVuSans-2e" x="63.623047"/>
       <use xlink:href="#DejaVuSans-39" x="95.410156"/>
      </g>
     </g>
    </g>
    <g id="text_10">
     <!-- lDDT -->
     <g transform="translate(26.196094 260.631797) rotate(-90) scale(0.25 -0.25)">
      <defs>
       <path id="DejaVuSans-6c" d="M 603 4863 
L 1178 4863 
L 1178 0 
L 603 0 
L 603 4863 
z
" transform="scale(0.015625)"/>
       <path id="DejaVuSans-44" d="M 1259 4147 
L 1259 519 
L 2022 519 
Q 2988 519 3436 956 
Q 3884 1394 3884 2338 
Q 3884 3275 3436 3711 
Q 2988 4147 2022 4147 
L 1259 4147 
z
M 628 4666 
L 1925 4666 
Q 3281 4666 3915 4102 
Q 4550 3538 4550 2338 
Q 4550 1131 3912 565 
Q 3275 0 1925 0 
L 628 0 
L 628 4666 
z
" transform="scale(0.015625)"/>
      </defs>
      <use xlink:href="#DejaVuSans-6c"/>
      <use xlink:href="#DejaVuSans-44" x="27.783203"/>
      <use xlink:href="#DejaVuSans-44" x="104.785156"/>
      <use xlink:href="#DejaVuSans-54" x="181.787109"/>
     </g>
    </g>
   </g>
   <g id="patch_3">
    <path d="M 82.153125 424.314375 
L 82.153125 36.234375 
" style="fill: none; stroke: #000000; stroke-width: 3; stroke-linejoin: miter; stroke-linecap: square"/>
   </g>
   <g id="patch_4">
    <path d="M 82.153125 424.314375 
L 640.153125 424.314375 
" style="fill: none; stroke: #000000; stroke-width: 3; stroke-linejoin: miter; stroke-linecap: square"/>
   </g>
   <g id="text_11">
    <!-- OmegaFold orphan proteins N=14 -->
    <g transform="translate(104.458594 29.995312) scale(0.3 -0.3)">
     <defs>
      <path id="DejaVuSans-4f" d="M 2522 4238 
Q 1834 4238 1429 3725 
Q 1025 3213 1025 2328 
Q 1025 1447 1429 934 
Q 1834 422 2522 422 
Q 3209 422 3611 934 
Q 4013 1447 4013 2328 
Q 4013 3213 3611 3725 
Q 3209 4238 2522 4238 
z
M 2522 4750 
Q 3503 4750 4090 4092 
Q 4678 3434 4678 2328 
Q 4678 1225 4090 567 
Q 3503 -91 2522 -91 
Q 1538 -91 948 565 
Q 359 1222 359 2328 
Q 359 3434 948 4092 
Q 1538 4750 2522 4750 
z
" transform="scale(0.015625)"/>
      <path id="DejaVuSans-6d" d="M 3328 2828 
Q 3544 3216 3844 3400 
Q 4144 3584 4550 3584 
Q 5097 3584 5394 3201 
Q 5691 2819 5691 2113 
L 5691 0 
L 5113 0 
L 5113 2094 
Q 5113 2597 4934 2840 
Q 4756 3084 4391 3084 
Q 3944 3084 3684 2787 
Q 3425 2491 3425 1978 
L 3425 0 
L 2847 0 
L 2847 2094 
Q 2847 2600 2669 2842 
Q 2491 3084 2119 3084 
Q 1678 3084 1418 2786 
Q 1159 2488 1159 1978 
L 1159 0 
L 581 0 
L 581 3500 
L 1159 3500 
L 1159 2956 
Q 1356 3278 1631 3431 
Q 1906 3584 2284 3584 
Q 2666 3584 2933 3390 
Q 3200 3197 3328 2828 
z
" transform="scale(0.015625)"/>
      <path id="DejaVuSans-67" d="M 2906 1791 
Q 2906 2416 2648 2759 
Q 2391 3103 1925 3103 
Q 1463 3103 1205 2759 
Q 947 2416 947 1791 
Q 947 1169 1205 825 
Q 1463 481 1925 481 
Q 2391 481 2648 825 
Q 2906 1169 2906 1791 
z
M 3481 434 
Q 3481 -459 3084 -895 
Q 2688 -1331 1869 -1331 
Q 1566 -1331 1297 -1286 
Q 1028 -1241 775 -1147 
L 775 -588 
Q 1028 -725 1275 -790 
Q 1522 -856 1778 -856 
Q 2344 -856 2625 -561 
Q 2906 -266 2906 331 
L 2906 616 
Q 2728 306 2450 153 
Q 2172 0 1784 0 
Q 1141 0 747 490 
Q 353 981 353 1791 
Q 353 2603 747 3093 
Q 1141 3584 1784 3584 
Q 2172 3584 2450 3431 
Q 2728 3278 2906 2969 
L 2906 3500 
L 3481 3500 
L 3481 434 
z
" transform="scale(0.015625)"/>
      <path id="DejaVuSans-61" d="M 2194 1759 
Q 1497 1759 1228 1600 
Q 959 1441 959 1056 
Q 959 750 1161 570 
Q 1363 391 1709 391 
Q 2188 391 2477 730 
Q 2766 1069 2766 1631 
L 2766 1759 
L 2194 1759 
z
M 3341 1997 
L 3341 0 
L 2766 0 
L 2766 531 
Q 2569 213 2275 61 
Q 1981 -91 1556 -91 
Q 1019 -91 701 211 
Q 384 513 384 1019 
Q 384 1609 779 1909 
Q 1175 2209 1959 2209 
L 2766 2209 
L 2766 2266 
Q 2766 2663 2505 2880 
Q 2244 3097 1772 3097 
Q 1472 3097 1187 3025 
Q 903 2953 641 2809 
L 641 3341 
Q 956 3463 1253 3523 
Q 1550 3584 1831 3584 
Q 2591 3584 2966 3190 
Q 3341 2797 3341 1997 
z
" transform="scale(0.015625)"/>
      <path id="DejaVuSans-46" d="M 628 4666 
L 3309 4666 
L 3309 4134 
L 1259 4134 
L 1259 2759 
L 3109 2759 
L 3109 2228 
L 1259 2228 
L 1259 0 
L 628 0 
L 628 4666 
z
" transform="scale(0.015625)"/>
      <path id="DejaVuSans-64" d="M 2906 2969 
L 2906 4863 
L 3481 4863 
L 3481 0 
L 2906 0 
L 2906 525 
Q 2725 213 2448 61 
Q 2172 -91 1784 -91 
Q 1150 -91 751 415 
Q 353 922 353 1747 
Q 353 2572 751 3078 
Q 1150 3584 1784 3584 
Q 2172 3584 2448 3432 
Q 2725 3281 2906 2969 
z
M 947 1747 
Q 947 1113 1208 752 
Q 1469 391 1925 391 
Q 2381 391 2643 752 
Q 2906 1113 2906 1747 
Q 2906 2381 2643 2742 
Q 2381 3103 1925 3103 
Q 1469 3103 1208 2742 
Q 947 2381 947 1747 
z
" transform="scale(0.015625)"/>
      <path id="DejaVuSans-20" transform="scale(0.015625)"/>
      <path id="DejaVuSans-70" d="M 1159 525 
L 1159 -1331 
L 581 -1331 
L 581 3500 
L 1159 3500 
L 1159 2969 
Q 1341 3281 1617 3432 
Q 1894 3584 2278 3584 
Q 2916 3584 3314 3078 
Q 3713 2572 3713 1747 
Q 3713 922 3314 415 
Q 2916 -91 2278 -91 
Q 1894 -91 1617 61 
Q 1341 213 1159 525 
z
M 3116 1747 
Q 3116 2381 2855 2742 
Q 2594 3103 2138 3103 
Q 1681 3103 1420 2742 
Q 1159 2381 1159 1747 
Q 1159 1113 1420 752 
Q 1681 391 2138 391 
Q 2594 391 2855 752 
Q 3116 1113 3116 1747 
z
" transform="scale(0.015625)"/>
      <path id="DejaVuSans-68" d="M 3513 2113 
L 3513 0 
L 2938 0 
L 2938 2094 
Q 2938 2591 2744 2837 
Q 2550 3084 2163 3084 
Q 1697 3084 1428 2787 
Q 1159 2491 1159 1978 
L 1159 0 
L 581 0 
L 581 4863 
L 1159 4863 
L 1159 2956 
Q 1366 3272 1645 3428 
Q 1925 3584 2291 3584 
Q 2894 3584 3203 3211 
Q 3513 2838 3513 2113 
z
" transform="scale(0.015625)"/>
      <path id="DejaVuSans-6e" d="M 3513 2113 
L 3513 0 
L 2938 0 
L 2938 2094 
Q 2938 2591 2744 2837 
Q 2550 3084 2163 3084 
Q 1697 3084 1428 2787 
Q 1159 2491 1159 1978 
L 1159 0 
L 581 0 
L 581 3500 
L 1159 3500 
L 1159 2956 
Q 1366 3272 1645 3428 
Q 1925 3584 2291 3584 
Q 2894 3584 3203 3211 
Q 3513 2838 3513 2113 
z
" transform="scale(0.015625)"/>
      <path id="DejaVuSans-74" d="M 1172 4494 
L 1172 3500 
L 2356 3500 
L 2356 3053 
L 1172 3053 
L 1172 1153 
Q 1172 725 1289 603 
Q 1406 481 1766 481 
L 2356 481 
L 2356 0 
L 1766 0 
Q 1100 0 847 248 
Q 594 497 594 1153 
L 594 3053 
L 172 3053 
L 172 3500 
L 594 3500 
L 594 4494 
L 1172 4494 
z
" transform="scale(0.015625)"/>
      <path id="DejaVuSans-69" d="M 603 3500 
L 1178 3500 
L 1178 0 
L 603 0 
L 603 3500 
z
M 603 4863 
L 1178 4863 
L 1178 4134 
L 603 4134 
L 603 4863 
z
" transform="scale(0.015625)"/>
      <path id="DejaVuSans-4e" d="M 628 4666 
L 1478 4666 
L 3547 763 
L 3547 4666 
L 4159 4666 
L 4159 0 
L 3309 0 
L 1241 3903 
L 1241 0 
L 628 0 
L 628 4666 
z
" transform="scale(0.015625)"/>
      <path id="DejaVuSans-3d" d="M 678 2906 
L 4684 2906 
L 4684 2381 
L 678 2381 
L 678 2906 
z
M 678 1631 
L 4684 1631 
L 4684 1100 
L 678 1100 
L 678 1631 
z
" transform="scale(0.015625)"/>
      <path id="DejaVuSans-31" d="M 794 531 
L 1825 531 
L 1825 4091 
L 703 3866 
L 703 4441 
L 1819 4666 
L 2450 4666 
L 2450 531 
L 3481 531 
L 3481 0 
L 794 0 
L 794 531 
z
" transform="scale(0.015625)"/>
      <path id="DejaVuSans-34" d="M 2419 4116 
L 825 1625 
L 2419 1625 
L 2419 4116 
z
M 2253 4666 
L 3047 4666 
L 3047 1625 
L 3713 1625 
L 3713 1100 
L 3047 1100 
L 3047 0 
L 2419 0 
L 2419 1100 
L 313 1100 
L 313 1709 
L 2253 4666 
z
" transform="scale(0.015625)"/>
     </defs>
     <use xlink:href="#DejaVuSans-4f"/>
     <use xlink:href="#DejaVuSans-6d" x="78.710938"/>
     <use xlink:href="#DejaVuSans-65" x="176.123047"/>
     <use xlink:href="#DejaVuSans-67" x="237.646484"/>
     <use xlink:href="#DejaVuSans-61" x="301.123047"/>
     <use xlink:href="#DejaVuSans-46" x="362.402344"/>
     <use xlink:href="#DejaVuSans-6f" x="416.296875"/>
     <use xlink:href="#DejaVuSans-6c" x="477.478516"/>
     <use xlink:href="#DejaVuSans-64" x="505.261719"/>
     <use xlink:href="#DejaVuSans-20" x="568.738281"/>
     <use xlink:href="#DejaVuSans-6f" x="600.525391"/>
     <use xlink:href="#DejaVuSans-72" x="661.707031"/>
     <use xlink:href="#DejaVuSans-70" x="702.820312"/>
     <use xlink:href="#DejaVuSans-68" x="766.296875"/>
     <use xlink:href="#DejaVuSans-61" x="829.675781"/>
     <use xlink:href="#DejaVuSans-6e" x="890.955078"/>
     <use xlink:href="#DejaVuSans-20" x="954.333984"/>
     <use xlink:href="#DejaVuSans-70" x="986.121094"/>
     <use xlink:href="#DejaVuSans-72" x="1049.597656"/>
     <use xlink:href="#DejaVuSans-6f" x="1088.460938"/>
     <use xlink:href="#DejaVuSans-74" x="1149.642578"/>
     <use xlink:href="#DejaVuSans-65" x="1188.851562"/>
     <use xlink:href="#DejaVuSans-69" x="1250.375"/>
     <use xlink:href="#DejaVuSans-6e" x="1278.158203"/>
     <use xlink:href="#DejaVuSans-73" x="1341.537109"/>
     <use xlink:href="#DejaVuSans-20" x="1393.636719"/>
     <use xlink:href="#DejaVuSans-4e" x="1425.423828"/>
     <use xlink:href="#DejaVuSans-3d" x="1500.228516"/>
     <use xlink:href="#DejaVuSans-31" x="1584.017578"/>
     <use xlink:href="#DejaVuSans-34" x="1647.640625"/>
    </g>
   </g>
   <g id="legend_1">
    <g id="patch_5">
     <path d="M 452.047656 411.814375 
L 622.653125 411.814375 
Q 627.653125 411.814375 627.653125 406.814375 
L 627.653125 79.056562 
Q 627.653125 74.056562 622.653125 74.056562 
L 452.047656 74.056562 
Q 447.047656 74.056562 447.047656 79.056562 
L 447.047656 406.814375 
Q 447.047656 411.814375 452.047656 411.814375 
z
" style="fill: #ffffff; opacity: 0.8; stroke: #cccccc; stroke-linejoin: miter"/>
    </g>
    <g id="line2d_9">
     <defs>
      <path id="ma1636fae9b" d="M 0 3 
C 0.795609 3 1.55874 2.683901 2.12132 2.12132 
C 2.683901 1.55874 3 0.795609 3 0 
C 3 -0.795609 2.683901 -1.55874 2.12132 -2.12132 
C 1.55874 -2.683901 0.795609 -3 0 -3 
C -0.795609 -3 -1.55874 -2.683901 -2.12132 -2.12132 
C -2.683901 -1.55874 -3 -0.795609 -3 0 
C -3 0.795609 -2.683901 1.55874 -2.12132 2.12132 
C -1.55874 2.683901 -0.795609 3 0 3 
z
" style="stroke: #000000"/>
     </defs>
     <g>
      <use xlink:href="#ma1636fae9b" x="482.047656" y="94.302656" style="stroke: #000000"/>
     </g>
    </g>
    <g id="text_12">
     <!-- Single -->
     <g transform="translate(527.047656 103.052656) scale(0.25 -0.25)">
      <defs>
       <path id="DejaVuSans-53" d="M 3425 4513 
L 3425 3897 
Q 3066 4069 2747 4153 
Q 2428 4238 2131 4238 
Q 1616 4238 1336 4038 
Q 1056 3838 1056 3469 
Q 1056 3159 1242 3001 
Q 1428 2844 1947 2747 
L 2328 2669 
Q 3034 2534 3370 2195 
Q 3706 1856 3706 1288 
Q 3706 609 3251 259 
Q 2797 -91 1919 -91 
Q 1588 -91 1214 -16 
Q 841 59 441 206 
L 441 856 
Q 825 641 1194 531 
Q 1563 422 1919 422 
Q 2459 422 2753 634 
Q 3047 847 3047 1241 
Q 3047 1584 2836 1778 
Q 2625 1972 2144 2069 
L 1759 2144 
Q 1053 2284 737 2584 
Q 422 2884 422 3419 
Q 422 4038 858 4394 
Q 1294 4750 2059 4750 
Q 2388 4750 2728 4690 
Q 3069 4631 3425 4513 
z
" transform="scale(0.015625)"/>
      </defs>
      <use xlink:href="#DejaVuSans-53"/>
      <use xlink:href="#DejaVuSans-69" x="63.476562"/>
      <use xlink:href="#DejaVuSans-6e" x="91.259766"/>
      <use xlink:href="#DejaVuSans-67" x="154.638672"/>
      <use xlink:href="#DejaVuSans-6c" x="218.115234"/>
      <use xlink:href="#DejaVuSans-65" x="245.898438"/>
     </g>
    </g>
    <g id="line2d_10">
     <defs>
      <path id="m303405ca9a" d="M 0 -3 
L -0.673542 -0.927051 
L -2.85317 -0.927051 
L -1.089814 0.354102 
L -1.763356 2.427051 
L -0 1.145898 
L 1.763356 2.427051 
L 1.089814 0.354102 
L 2.85317 -0.927051 
L 0.673542 -0.927051 
z
" style="stroke: #000000; stroke-linejoin: bevel"/>
     </defs>
     <g>
      <use xlink:href="#m303405ca9a" x="482.047656" y="130.997969" style="stroke: #000000; stroke-linejoin: bevel"/>
     </g>
    </g>
    <g id="text_13">
     <!-- Full -->
     <g transform="translate(527.047656 139.747969) scale(0.25 -0.25)">
      <defs>
       <path id="DejaVuSans-75" d="M 544 1381 
L 544 3500 
L 1119 3500 
L 1119 1403 
Q 1119 906 1312 657 
Q 1506 409 1894 409 
Q 2359 409 2629 706 
Q 2900 1003 2900 1516 
L 2900 3500 
L 3475 3500 
L 3475 0 
L 2900 0 
L 2900 538 
Q 2691 219 2414 64 
Q 2138 -91 1772 -91 
Q 1169 -91 856 284 
Q 544 659 544 1381 
z
M 1991 3584 
L 1991 3584 
z
" transform="scale(0.015625)"/>
      </defs>
      <use xlink:href="#DejaVuSans-46"/>
      <use xlink:href="#DejaVuSans-75" x="52.019531"/>
      <use xlink:href="#DejaVuSans-6c" x="115.398438"/>
      <use xlink:href="#DejaVuSans-6c" x="143.181641"/>
     </g>
    </g>
    <g id="patch_6">
     <path d="M 457.047656 176.443281 
L 507.047656 176.443281 
L 507.047656 158.943281 
L 457.047656 158.943281 
z
" style="fill: #0072b2; opacity: 0.5"/>
    </g>
    <g id="text_14">
     <!-- AF -->
     <g transform="translate(527.047656 176.443281) scale(0.25 -0.25)">
      <defs>
       <path id="DejaVuSans-41" d="M 2188 4044 
L 1331 1722 
L 3047 1722 
L 2188 4044 
z
M 1831 4666 
L 2547 4666 
L 4325 0 
L 3669 0 
L 3244 1197 
L 1141 1197 
L 716 0 
L 50 0 
L 1831 4666 
z
" transform="scale(0.015625)"/>
      </defs>
      <use xlink:href="#DejaVuSans-41"/>
      <use xlink:href="#DejaVuSans-46" x="68.408203"/>
     </g>
    </g>
    <g id="patch_7">
     <path d="M 457.047656 213.138594 
L 507.047656 213.138594 
L 507.047656 195.638594 
L 457.047656 195.638594 
z
" style="fill: #009e73; opacity: 0.5"/>
    </g>
    <g id="text_15">
     <!-- Comb -->
     <g transform="translate(527.047656 213.138594) scale(0.25 -0.25)">
      <defs>
       <path id="DejaVuSans-43" d="M 4122 4306 
L 4122 3641 
Q 3803 3938 3442 4084 
Q 3081 4231 2675 4231 
Q 1875 4231 1450 3742 
Q 1025 3253 1025 2328 
Q 1025 1406 1450 917 
Q 1875 428 2675 428 
Q 3081 428 3442 575 
Q 3803 722 4122 1019 
L 4122 359 
Q 3791 134 3420 21 
Q 3050 -91 2638 -91 
Q 1578 -91 968 557 
Q 359 1206 359 2328 
Q 359 3453 968 4101 
Q 1578 4750 2638 4750 
Q 3056 4750 3426 4639 
Q 3797 4528 4122 4306 
z
" transform="scale(0.015625)"/>
       <path id="DejaVuSans-62" d="M 3116 1747 
Q 3116 2381 2855 2742 
Q 2594 3103 2138 3103 
Q 1681 3103 1420 2742 
Q 1159 2381 1159 1747 
Q 1159 1113 1420 752 
Q 1681 391 2138 391 
Q 2594 391 2855 752 
Q 3116 1113 3116 1747 
z
M 1159 2969 
Q 1341 3281 1617 3432 
Q 1894 3584 2278 3584 
Q 2916 3584 3314 3078 
Q 3713 2572 3713 1747 
Q 3713 922 3314 415 
Q 2916 -91 2278 -91 
Q 1894 -91 1617 61 
Q 1341 213 1159 525 
L 1159 0 
L 581 0 
L 581 4863 
L 1159 4863 
L 1159 2969 
z
" transform="scale(0.015625)"/>
      </defs>
      <use xlink:href="#DejaVuSans-43"/>
      <use xlink:href="#DejaVuSans-6f" x="69.824219"/>
      <use xlink:href="#DejaVuSans-6d" x="131.005859"/>
      <use xlink:href="#DejaVuSans-62" x="228.417969"/>
     </g>
    </g>
    <g id="patch_8">
     <path d="M 457.047656 249.833906 
L 507.047656 249.833906 
L 507.047656 232.333906 
L 457.047656 232.333906 
z
" style="fill: #d55e00; opacity: 0.5"/>
    </g>
    <g id="text_16">
     <!-- ESM -->
     <g transform="translate(527.047656 249.833906) scale(0.25 -0.25)">
      <defs>
       <path id="DejaVuSans-45" d="M 628 4666 
L 3578 4666 
L 3578 4134 
L 1259 4134 
L 1259 2753 
L 3481 2753 
L 3481 2222 
L 1259 2222 
L 1259 531 
L 3634 531 
L 3634 0 
L 628 0 
L 628 4666 
z
" transform="scale(0.015625)"/>
      </defs>
      <use xlink:href="#DejaVuSans-45"/>
      <use xlink:href="#DejaVuSans-53" x="63.183594"/>
      <use xlink:href="#DejaVuSans-4d" x="126.660156"/>
     </g>
    </g>
    <g id="patch_9">
     <path d="M 457.047656 286.529219 
L 507.047656 286.529219 
L 507.047656 269.029219 
L 457.047656 269.029219 
z
" style="fill: #cc79a7; opacity: 0.5"/>
    </g>
    <g id="text_17">
     <!-- None -->
     <g transform="translate(527.047656 286.529219) scale(0.25 -0.25)">
      <use xlink:href="#DejaVuSans-4e"/>
      <use xlink:href="#DejaVuSans-6f" x="74.804688"/>
      <use xlink:href="#DejaVuSans-6e" x="135.986328"/>
      <use xlink:href="#DejaVuSans-65" x="199.365234"/>
     </g>
    </g>
    <g id="patch_10">
     <path d="M 457.047656 323.224531 
L 507.047656 323.224531 
L 507.047656 305.724531 
L 457.047656 305.724531 
z
" style="fill: #f0e442; opacity: 0.5"/>
    </g>
    <g id="text_18">
     <!-- Omega -->
     <g transform="translate(527.047656 323.224531) scale(0.25 -0.25)">
      <use xlink:href="#DejaVuSans-4f"/>
      <use xlink:href="#DejaVuSans-6d" x="78.710938"/>
      <use xlink:href="#DejaVuSans-65" x="176.123047"/>
      <use xlink:href="#DejaVuSans-67" x="237.646484"/>
      <use xlink:href="#DejaVuSans-61" x="301.123047"/>
     </g>
    </g>
    <g id="patch_11">
     <path d="M 457.047656 359.919844 
L 507.047656 359.919844 
L 507.047656 342.419844 
L 457.047656 342.419844 
z
" style="fill: #56b4e9; opacity: 0.5"/>
    </g>
    <g id="text_19">
     <!-- PDB -->
     <g transform="translate(527.047656 359.919844) scale(0.25 -0.25)">
      <defs>
       <path id="DejaVuSans-50" d="M 1259 4147 
L 1259 2394 
L 2053 2394 
Q 2494 2394 2734 2622 
Q 2975 2850 2975 3272 
Q 2975 3691 2734 3919 
Q 2494 4147 2053 4147 
L 1259 4147 
z
M 628 4666 
L 2053 4666 
Q 2838 4666 3239 4311 
Q 3641 3956 3641 3272 
Q 3641 2581 3239 2228 
Q 2838 1875 2053 1875 
L 1259 1875 
L 1259 0 
L 628 0 
L 628 4666 
z
" transform="scale(0.015625)"/>
       <path id="DejaVuSans-42" d="M 1259 2228 
L 1259 519 
L 2272 519 
Q 2781 519 3026 730 
Q 3272 941 3272 1375 
Q 3272 1813 3026 2020 
Q 2781 2228 2272 2228 
L 1259 2228 
z
M 1259 4147 
L 1259 2741 
L 2194 2741 
Q 2656 2741 2882 2914 
Q 3109 3088 3109 3444 
Q 3109 3797 2882 3972 
Q 2656 4147 2194 4147 
L 1259 4147 
z
M 628 4666 
L 2241 4666 
Q 2963 4666 3353 4366 
Q 3744 4066 3744 3513 
Q 3744 3084 3544 2831 
Q 3344 2578 2956 2516 
Q 3422 2416 3680 2098 
Q 3938 1781 3938 1306 
Q 3938 681 3513 340 
Q 3088 0 2303 0 
L 628 0 
L 628 4666 
z
" transform="scale(0.015625)"/>
      </defs>
      <use xlink:href="#DejaVuSans-50"/>
      <use xlink:href="#DejaVuSans-44" x="60.302734"/>
      <use xlink:href="#DejaVuSans-42" x="137.304688"/>
     </g>
    </g>
    <g id="line2d_11">
     <defs>
      <path id="mb5d3d28501" d="M -3 3 
L 3 3 
L 3 -3 
L -3 -3 
z
" style="stroke: #000000; stroke-linejoin: miter"/>
     </defs>
     <g>
      <use xlink:href="#mb5d3d28501" x="482.047656" y="387.865156" style="fill: #ffffff; stroke: #000000; stroke-linejoin: miter"/>
     </g>
    </g>
    <g id="text_20">
     <!-- No AF -->
     <g transform="translate(527.047656 396.615156) scale(0.25 -0.25)">
      <use xlink:href="#DejaVuSans-4e"/>
      <use xlink:href="#DejaVuSans-6f" x="74.804688"/>
      <use xlink:href="#DejaVuSans-20" x="135.986328"/>
      <use xlink:href="#DejaVuSans-41" x="167.773438"/>
      <use xlink:href="#DejaVuSans-46" x="236.181641"/>
     </g>
    </g>
   </g>
  </g>
 </g>
 <defs>
  <clipPath id="p3cfe99d237">
   <rect x="82.153125" y="36.234375" width="558" height="388.08"/>
  </clipPath>
 </defs>
</svg>
