<?xml version="1.0" encoding="utf-8" standalone="no"?>
<!DOCTYPE svg PUBLIC "-//W3C//DTD SVG 1.1//EN"
  "http://www.w3.org/Graphics/SVG/1.1/DTD/svg11.dtd">
<svg xmlns:xlink="http://www.w3.org/1999/xlink" width="872.53125pt" height="707.825675pt" viewBox="0 0 872.53125 707.825675" xmlns="http://www.w3.org/2000/svg" version="1.1">
 <metadata>
  <rdf:RDF xmlns:dc="http://purl.org/dc/elements/1.1/" xmlns:cc="http://creativecommons.org/ns#" xmlns:rdf="http://www.w3.org/1999/02/22-rdf-syntax-ns#">
   <cc:Work>
    <dc:type rdf:resource="http://purl.org/dc/dcmitype/StillImage"/>
    <dc:date>2024-10-23T17:23:39.650578</dc:date>
    <dc:format>image/svg+xml</dc:format>
    <dc:creator>
     <cc:Agent>
      <dc:title>Matplotlib v3.8.0, https://matplotlib.org/</dc:title>
     </cc:Agent>
    </dc:creator>
   </cc:Work>
  </rdf:RDF>
 </metadata>
 <defs>
  <style type="text/css">*{stroke-linejoin: round; stroke-linecap: butt}</style>
 </defs>
 <g id="figure_1">
  <g id="patch_1">
   <path d="M 0 707.825675 
L 872.53125 707.825675 
L 872.53125 0 
L 0 0 
L 0 707.825675 
z
" style="fill: none"/>
  </g>
  <g id="axes_1">
   <g id="patch_2">
    <path d="M 84.13125 561.6 
L 865.33125 561.6 
L 865.33125 7.2 
L 84.13125 7.2 
L 84.13125 561.6 
z
" style="fill: none"/>
   </g>
   <g id="matplotlib.axis_1">
    <g id="xtick_1">
     <g id="text_1">
      <!-- MSA -->
      <g style="fill: #262626" transform="translate(119.557736 610.465141) rotate(-45) scale(0.2 -0.2)">
       <defs>
        <path id="DejaVuSans-4d" d="M 628 4666 
L 1569 4666 
L 2759 1491 
L 3956 4666 
L 4897 4666 
L 4897 0 
L 4281 0 
L 4281 4097 
L 3078 897 
L 2444 897 
L 1241 4097 
L 1241 0 
L 628 0 
L 628 4666 
z
" transform="scale(0.015625)"/>
        <path id="DejaVuSans-53" d="M 3425 4513 
L 3425 3897 
Q 3066 4069 2747 4153 
Q 2428 4238 2131 4238 
Q 1616 4238 1336 4038 
Q 1056 3838 1056 3469 
Q 1056 3159 1242 3001 
Q 1428 2844 1947 2747 
L 2328 2669 
Q 3034 2534 3370 2195 
Q 3706 1856 3706 1288 
Q 3706 609 3251 259 
Q 2797 -91 1919 -91 
Q 1588 -91 1214 -16 
Q 841 59 441 206 
L 441 856 
Q 825 641 1194 531 
Q 1563 422 1919 422 
Q 2459 422 2753 634 
Q 3047 847 3047 1241 
Q 3047 1584 2836 1778 
Q 2625 1972 2144 2069 
L 1759 2144 
Q 1053 2284 737 2584 
Q 422 2884 422 3419 
Q 422 4038 858 4394 
Q 1294 4750 2059 4750 
Q 2388 4750 2728 4690 
Q 3069 4631 3425 4513 
z
" transform="scale(0.015625)"/>
        <path id="DejaVuSans-41" d="M 2188 4044 
L 1331 1722 
L 3047 1722 
L 2188 4044 
z
M 1831 4666 
L 2547 4666 
L 4325 0 
L 3669 0 
L 3244 1197 
L 1141 1197 
L 716 0 
L 50 0 
L 1831 4666 
z
" transform="scale(0.015625)"/>
       </defs>
       <use xlink:href="#DejaVuSans-4d"/>
       <use xlink:href="#DejaVuSans-53" x="86.279297"/>
       <use xlink:href="#DejaVuSans-41" x="151.630859"/>
      </g>
     </g>
    </g>
    <g id="xtick_2">
     <g id="text_2">
      <!-- Template -->
      <g style="fill: #262626" transform="translate(197.74694 643.875936) rotate(-45) scale(0.2 -0.2)">
       <defs>
        <path id="DejaVuSans-54" d="M -19 4666 
L 3928 4666 
L 3928 4134 
L 2272 4134 
L 2272 0 
L 1638 0 
L 1638 4134 
L -19 4134 
L -19 4666 
z
" transform="scale(0.015625)"/>
        <path id="DejaVuSans-65" d="M 3597 1894 
L 3597 1613 
L 953 1613 
Q 991 1019 1311 708 
Q 1631 397 2203 397 
Q 2534 397 2845 478 
Q 3156 559 3463 722 
L 3463 178 
Q 3153 47 2828 -22 
Q 2503 -91 2169 -91 
Q 1331 -91 842 396 
Q 353 884 353 1716 
Q 353 2575 817 3079 
Q 1281 3584 2069 3584 
Q 2775 3584 3186 3129 
Q 3597 2675 3597 1894 
z
M 3022 2063 
Q 3016 2534 2758 2815 
Q 2500 3097 2075 3097 
Q 1594 3097 1305 2825 
Q 1016 2553 972 2059 
L 3022 2063 
z
" transform="scale(0.015625)"/>
        <path id="DejaVuSans-6d" d="M 3328 2828 
Q 3544 3216 3844 3400 
Q 4144 3584 4550 3584 
Q 5097 3584 5394 3201 
Q 5691 2819 5691 2113 
L 5691 0 
L 5113 0 
L 5113 2094 
Q 5113 2597 4934 2840 
Q 4756 3084 4391 3084 
Q 3944 3084 3684 2787 
Q 3425 2491 3425 1978 
L 3425 0 
L 2847 0 
L 2847 2094 
Q 2847 2600 2669 2842 
Q 2491 3084 2119 3084 
Q 1678 3084 1418 2786 
Q 1159 2488 1159 1978 
L 1159 0 
L 581 0 
L 581 3500 
L 1159 3500 
L 1159 2956 
Q 1356 3278 1631 3431 
Q 1906 3584 2284 3584 
Q 2666 3584 2933 3390 
Q 3200 3197 3328 2828 
z
" transform="scale(0.015625)"/>
        <path id="DejaVuSans-70" d="M 1159 525 
L 1159 -1331 
L 581 -1331 
L 581 3500 
L 1159 3500 
L 1159 2969 
Q 1341 3281 1617 3432 
Q 1894 3584 2278 3584 
Q 2916 3584 3314 3078 
Q 3713 2572 3713 1747 
Q 3713 922 3314 415 
Q 2916 -91 2278 -91 
Q 1894 -91 1617 61 
Q 1341 213 1159 525 
z
M 3116 1747 
Q 3116 2381 2855 2742 
Q 2594 3103 2138 3103 
Q 1681 3103 1420 2742 
Q 1159 2381 1159 1747 
Q 1159 1113 1420 752 
Q 1681 391 2138 391 
Q 2594 391 2855 752 
Q 3116 1113 3116 1747 
z
" transform="scale(0.015625)"/>
        <path id="DejaVuSans-6c" d="M 603 4863 
L 1178 4863 
L 1178 0 
L 603 0 
L 603 4863 
z
" transform="scale(0.015625)"/>
        <path id="DejaVuSans-61" d="M 2194 1759 
Q 1497 1759 1228 1600 
Q 959 1441 959 1056 
Q 959 750 1161 570 
Q 1363 391 1709 391 
Q 2188 391 2477 730 
Q 2766 1069 2766 1631 
L 2766 1759 
L 2194 1759 
z
M 3341 1997 
L 3341 0 
L 2766 0 
L 2766 531 
Q 2569 213 2275 61 
Q 1981 -91 1556 -91 
Q 1019 -91 701 211 
Q 384 513 384 1019 
Q 384 1609 779 1909 
Q 1175 2209 1959 2209 
L 2766 2209 
L 2766 2266 
Q 2766 2663 2505 2880 
Q 2244 3097 1772 3097 
Q 1472 3097 1187 3025 
Q 903 2953 641 2809 
L 641 3341 
Q 956 3463 1253 3523 
Q 1550 3584 1831 3584 
Q 2591 3584 2966 3190 
Q 3341 2797 3341 1997 
z
" transform="scale(0.015625)"/>
        <path id="DejaVuSans-74" d="M 1172 4494 
L 1172 3500 
L 2356 3500 
L 2356 3053 
L 1172 3053 
L 1172 1153 
Q 1172 725 1289 603 
Q 1406 481 1766 481 
L 2356 481 
L 2356 0 
L 1766 0 
Q 1100 0 847 248 
Q 594 497 594 1153 
L 594 3053 
L 172 3053 
L 172 3500 
L 594 3500 
L 594 4494 
L 1172 4494 
z
" transform="scale(0.015625)"/>
       </defs>
       <use xlink:href="#DejaVuSans-54"/>
       <use xlink:href="#DejaVuSans-65" x="44.083984"/>
       <use xlink:href="#DejaVuSans-6d" x="105.607422"/>
       <use xlink:href="#DejaVuSans-70" x="203.019531"/>
       <use xlink:href="#DejaVuSans-6c" x="266.496094"/>
       <use xlink:href="#DejaVuSans-61" x="294.279297"/>
       <use xlink:href="#DejaVuSans-74" x="355.558594"/>
       <use xlink:href="#DejaVuSans-65" x="394.767578"/>
      </g>
     </g>
    </g>
    <g id="xtick_3">
     <g id="text_3">
      <!-- Backbone -->
      <g style="fill: #262626" transform="translate(304.246933 648.975944) rotate(-45) scale(0.2 -0.2)">
       <defs>
        <path id="DejaVuSans-42" d="M 1259 2228 
L 1259 519 
L 2272 519 
Q 2781 519 3026 730 
Q 3272 941 3272 1375 
Q 3272 1813 3026 2020 
Q 2781 2228 2272 2228 
L 1259 2228 
z
M 1259 4147 
L 1259 2741 
L 2194 2741 
Q 2656 2741 2882 2914 
Q 3109 3088 3109 3444 
Q 3109 3797 2882 3972 
Q 2656 4147 2194 4147 
L 1259 4147 
z
M 628 4666 
L 2241 4666 
Q 2963 4666 3353 4366 
Q 3744 4066 3744 3513 
Q 3744 3084 3544 2831 
Q 3344 2578 2956 2516 
Q 3422 2416 3680 2098 
Q 3938 1781 3938 1306 
Q 3938 681 3513 340 
Q 3088 0 2303 0 
L 628 0 
L 628 4666 
z
" transform="scale(0.015625)"/>
        <path id="DejaVuSans-63" d="M 3122 3366 
L 3122 2828 
Q 2878 2963 2633 3030 
Q 2388 3097 2138 3097 
Q 1578 3097 1268 2742 
Q 959 2388 959 1747 
Q 959 1106 1268 751 
Q 1578 397 2138 397 
Q 2388 397 2633 464 
Q 2878 531 3122 666 
L 3122 134 
Q 2881 22 2623 -34 
Q 2366 -91 2075 -91 
Q 1284 -91 818 406 
Q 353 903 353 1747 
Q 353 2603 823 3093 
Q 1294 3584 2113 3584 
Q 2378 3584 2631 3529 
Q 2884 3475 3122 3366 
z
" transform="scale(0.015625)"/>
        <path id="DejaVuSans-6b" d="M 581 4863 
L 1159 4863 
L 1159 1991 
L 2875 3500 
L 3609 3500 
L 1753 1863 
L 3688 0 
L 2938 0 
L 1159 1709 
L 1159 0 
L 581 0 
L 581 4863 
z
" transform="scale(0.015625)"/>
        <path id="DejaVuSans-62" d="M 3116 1747 
Q 3116 2381 2855 2742 
Q 2594 3103 2138 3103 
Q 1681 3103 1420 2742 
Q 1159 2381 1159 1747 
Q 1159 1113 1420 752 
Q 1681 391 2138 391 
Q 2594 391 2855 752 
Q 3116 1113 3116 1747 
z
M 1159 2969 
Q 1341 3281 1617 3432 
Q 1894 3584 2278 3584 
Q 2916 3584 3314 3078 
Q 3713 2572 3713 1747 
Q 3713 922 3314 415 
Q 2916 -91 2278 -91 
Q 1894 -91 1617 61 
Q 1341 213 1159 525 
L 1159 0 
L 581 0 
L 581 4863 
L 1159 4863 
L 1159 2969 
z
" transform="scale(0.015625)"/>
        <path id="DejaVuSans-6f" d="M 1959 3097 
Q 1497 3097 1228 2736 
Q 959 2375 959 1747 
Q 959 1119 1226 758 
Q 1494 397 1959 397 
Q 2419 397 2687 759 
Q 2956 1122 2956 1747 
Q 2956 2369 2687 2733 
Q 2419 3097 1959 3097 
z
M 1959 3584 
Q 2709 3584 3137 3096 
Q 3566 2609 3566 1747 
Q 3566 888 3137 398 
Q 2709 -91 1959 -91 
Q 1206 -91 779 398 
Q 353 888 353 1747 
Q 353 2609 779 3096 
Q 1206 3584 1959 3584 
z
" transform="scale(0.015625)"/>
        <path id="DejaVuSans-6e" d="M 3513 2113 
L 3513 0 
L 2938 0 
L 2938 2094 
Q 2938 2591 2744 2837 
Q 2550 3084 2163 3084 
Q 1697 3084 1428 2787 
Q 1159 2491 1159 1978 
L 1159 0 
L 581 0 
L 581 3500 
L 1159 3500 
L 1159 2956 
Q 1366 3272 1645 3428 
Q 1925 3584 2291 3584 
Q 2894 3584 3203 3211 
Q 3513 2838 3513 2113 
z
" transform="scale(0.015625)"/>
       </defs>
       <use xlink:href="#DejaVuSans-42"/>
       <use xlink:href="#DejaVuSans-61" x="68.603516"/>
       <use xlink:href="#DejaVuSans-63" x="129.882812"/>
       <use xlink:href="#DejaVuSans-6b" x="184.863281"/>
       <use xlink:href="#DejaVuSans-62" x="242.773438"/>
       <use xlink:href="#DejaVuSans-6f" x="306.25"/>
       <use xlink:href="#DejaVuSans-6e" x="367.431641"/>
       <use xlink:href="#DejaVuSans-65" x="430.810547"/>
      </g>
     </g>
    </g>
    <g id="xtick_4">
     <g id="text_4">
      <!-- Heuristic C-$\beta$ -->
      <g style="fill: #262626" transform="translate(394.40392 670.706219) rotate(-45) scale(0.2 -0.2)">
       <defs>
        <path id="DejaVuSans-48" d="M 628 4666 
L 1259 4666 
L 1259 2753 
L 3553 2753 
L 3553 4666 
L 4184 4666 
L 4184 0 
L 3553 0 
L 3553 2222 
L 1259 2222 
L 1259 0 
L 628 0 
L 628 4666 
z
" transform="scale(0.015625)"/>
        <path id="DejaVuSans-75" d="M 544 1381 
L 544 3500 
L 1119 3500 
L 1119 1403 
Q 1119 906 1312 657 
Q 1506 409 1894 409 
Q 2359 409 2629 706 
Q 2900 1003 2900 1516 
L 2900 3500 
L 3475 3500 
L 3475 0 
L 2900 0 
L 2900 538 
Q 2691 219 2414 64 
Q 2138 -91 1772 -91 
Q 1169 -91 856 284 
Q 544 659 544 1381 
z
M 1991 3584 
L 1991 3584 
z
" transform="scale(0.015625)"/>
        <path id="DejaVuSans-72" d="M 2631 2963 
Q 2534 3019 2420 3045 
Q 2306 3072 2169 3072 
Q 1681 3072 1420 2755 
Q 1159 2438 1159 1844 
L 1159 0 
L 581 0 
L 581 3500 
L 1159 3500 
L 1159 2956 
Q 1341 3275 1631 3429 
Q 1922 3584 2338 3584 
Q 2397 3584 2469 3576 
Q 2541 3569 2628 3553 
L 2631 2963 
z
" transform="scale(0.015625)"/>
        <path id="DejaVuSans-69" d="M 603 3500 
L 1178 3500 
L 1178 0 
L 603 0 
L 603 3500 
z
M 603 4863 
L 1178 4863 
L 1178 4134 
L 603 4134 
L 603 4863 
z
" transform="scale(0.015625)"/>
        <path id="DejaVuSans-73" d="M 2834 3397 
L 2834 2853 
Q 2591 2978 2328 3040 
Q 2066 3103 1784 3103 
Q 1356 3103 1142 2972 
Q 928 2841 928 2578 
Q 928 2378 1081 2264 
Q 1234 2150 1697 2047 
L 1894 2003 
Q 2506 1872 2764 1633 
Q 3022 1394 3022 966 
Q 3022 478 2636 193 
Q 2250 -91 1575 -91 
Q 1294 -91 989 -36 
Q 684 19 347 128 
L 347 722 
Q 666 556 975 473 
Q 1284 391 1588 391 
Q 1994 391 2212 530 
Q 2431 669 2431 922 
Q 2431 1156 2273 1281 
Q 2116 1406 1581 1522 
L 1381 1569 
Q 847 1681 609 1914 
Q 372 2147 372 2553 
Q 372 3047 722 3315 
Q 1072 3584 1716 3584 
Q 2034 3584 2315 3537 
Q 2597 3491 2834 3397 
z
" transform="scale(0.015625)"/>
        <path id="DejaVuSans-20" transform="scale(0.015625)"/>
        <path id="DejaVuSans-43" d="M 4122 4306 
L 4122 3641 
Q 3803 3938 3442 4084 
Q 3081 4231 2675 4231 
Q 1875 4231 1450 3742 
Q 1025 3253 1025 2328 
Q 1025 1406 1450 917 
Q 1875 428 2675 428 
Q 3081 428 3442 575 
Q 3803 722 4122 1019 
L 4122 359 
Q 3791 134 3420 21 
Q 3050 -91 2638 -91 
Q 1578 -91 968 557 
Q 359 1206 359 2328 
Q 359 3453 968 4101 
Q 1578 4750 2638 4750 
Q 3056 4750 3426 4639 
Q 3797 4528 4122 4306 
z
" transform="scale(0.015625)"/>
        <path id="DejaVuSans-2d" d="M 313 2009 
L 1997 2009 
L 1997 1497 
L 313 1497 
L 313 2009 
z
" transform="scale(0.015625)"/>
        <path id="DejaVuSans-Oblique-3b2" d="M 872 216 
L 572 -1331 
L -6 -1331 
L 928 3478 
Q 1206 4903 2538 4903 
Q 3888 4903 3659 3700 
Q 3503 2844 2894 2531 
Q 3713 2250 3553 1416 
Q 3272 -69 1759 -66 
Q 1097 -63 872 216 
z
M 1019 966 
Q 1259 422 1875 425 
Q 2775 425 2966 1406 
Q 3138 2288 1675 2219 
L 1778 2750 
Q 2909 2731 3106 3750 
Q 3241 4438 2509 4434 
Q 1691 4434 1503 3459 
L 1019 966 
z
" transform="scale(0.015625)"/>
       </defs>
       <use xlink:href="#DejaVuSans-48" transform="translate(0 0.390625)"/>
       <use xlink:href="#DejaVuSans-65" transform="translate(75.195312 0.390625)"/>
       <use xlink:href="#DejaVuSans-75" transform="translate(136.71875 0.390625)"/>
       <use xlink:href="#DejaVuSans-72" transform="translate(200.097656 0.390625)"/>
       <use xlink:href="#DejaVuSans-69" transform="translate(241.210938 0.390625)"/>
       <use xlink:href="#DejaVuSans-73" transform="translate(268.994141 0.390625)"/>
       <use xlink:href="#DejaVuSans-74" transform="translate(321.09375 0.390625)"/>
       <use xlink:href="#DejaVuSans-69" transform="translate(360.302734 0.390625)"/>
       <use xlink:href="#DejaVuSans-63" transform="translate(388.085938 0.390625)"/>
       <use xlink:href="#DejaVuSans-20" transform="translate(443.066406 0.390625)"/>
       <use xlink:href="#DejaVuSans-43" transform="translate(474.853516 0.390625)"/>
       <use xlink:href="#DejaVuSans-2d" transform="translate(544.677734 0.390625)"/>
       <use xlink:href="#DejaVuSans-Oblique-3b2" transform="translate(580.761719 0.390625)"/>
      </g>
     </g>
    </g>
    <g id="xtick_5">
     <g id="text_5">
      <!-- Template C-$\beta$ -->
      <g style="fill: #262626" transform="translate(501.761279 674.94886) rotate(-45) scale(0.2 -0.2)">
       <use xlink:href="#DejaVuSans-54" transform="translate(0 0.390625)"/>
       <use xlink:href="#DejaVuSans-65" transform="translate(61.083984 0.390625)"/>
       <use xlink:href="#DejaVuSans-6d" transform="translate(122.607422 0.390625)"/>
       <use xlink:href="#DejaVuSans-70" transform="translate(220.019531 0.390625)"/>
       <use xlink:href="#DejaVuSans-6c" transform="translate(283.496094 0.390625)"/>
       <use xlink:href="#DejaVuSans-61" transform="translate(311.279297 0.390625)"/>
       <use xlink:href="#DejaVuSans-74" transform="translate(372.558594 0.390625)"/>
       <use xlink:href="#DejaVuSans-65" transform="translate(411.767578 0.390625)"/>
       <use xlink:href="#DejaVuSans-20" transform="translate(473.291016 0.390625)"/>
       <use xlink:href="#DejaVuSans-43" transform="translate(505.078125 0.390625)"/>
       <use xlink:href="#DejaVuSans-2d" transform="translate(574.902344 0.390625)"/>
       <use xlink:href="#DejaVuSans-Oblique-3b2" transform="translate(610.986328 0.390625)"/>
      </g>
     </g>
    </g>
    <g id="xtick_6">
     <g id="text_6">
      <!-- AttnPacker -->
      <g style="fill: #262626" transform="translate(632.674133 655.348744) rotate(-45) scale(0.2 -0.2)">
       <defs>
        <path id="DejaVuSans-50" d="M 1259 4147 
L 1259 2394 
L 2053 2394 
Q 2494 2394 2734 2622 
Q 2975 2850 2975 3272 
Q 2975 3691 2734 3919 
Q 2494 4147 2053 4147 
L 1259 4147 
z
M 628 4666 
L 2053 4666 
Q 2838 4666 3239 4311 
Q 3641 3956 3641 3272 
Q 3641 2581 3239 2228 
Q 2838 1875 2053 1875 
L 1259 1875 
L 1259 0 
L 628 0 
L 628 4666 
z
" transform="scale(0.015625)"/>
       </defs>
       <use xlink:href="#DejaVuSans-41"/>
       <use xlink:href="#DejaVuSans-74" x="66.658203"/>
       <use xlink:href="#DejaVuSans-74" x="105.867188"/>
       <use xlink:href="#DejaVuSans-6e" x="145.076172"/>
       <use xlink:href="#DejaVuSans-50" x="208.455078"/>
       <use xlink:href="#DejaVuSans-61" x="264.257812"/>
       <use xlink:href="#DejaVuSans-63" x="325.537109"/>
       <use xlink:href="#DejaVuSans-6b" x="380.517578"/>
       <use xlink:href="#DejaVuSans-65" x="434.802734"/>
       <use xlink:href="#DejaVuSans-72" x="496.326172"/>
      </g>
     </g>
    </g>
    <g id="xtick_7">
     <g id="text_7">
      <!-- AttnPacker (AF2) -->
      <g style="fill: #262626" transform="translate(701.938324 697.684553) rotate(-45) scale(0.2 -0.2)">
       <defs>
        <path id="DejaVuSans-28" d="M 1984 4856 
Q 1566 4138 1362 3434 
Q 1159 2731 1159 2009 
Q 1159 1288 1364 580 
Q 1569 -128 1984 -844 
L 1484 -844 
Q 1016 -109 783 600 
Q 550 1309 550 2009 
Q 550 2706 781 3412 
Q 1013 4119 1484 4856 
L 1984 4856 
z
" transform="scale(0.015625)"/>
        <path id="DejaVuSans-46" d="M 628 4666 
L 3309 4666 
L 3309 4134 
L 1259 4134 
L 1259 2759 
L 3109 2759 
L 3109 2228 
L 1259 2228 
L 1259 0 
L 628 0 
L 628 4666 
z
" transform="scale(0.015625)"/>
        <path id="DejaVuSans-32" d="M 1228 531 
L 3431 531 
L 3431 0 
L 469 0 
L 469 531 
Q 828 903 1448 1529 
Q 2069 2156 2228 2338 
Q 2531 2678 2651 2914 
Q 2772 3150 2772 3378 
Q 2772 3750 2511 3984 
Q 2250 4219 1831 4219 
Q 1534 4219 1204 4116 
Q 875 4013 500 3803 
L 500 4441 
Q 881 4594 1212 4672 
Q 1544 4750 1819 4750 
Q 2544 4750 2975 4387 
Q 3406 4025 3406 3419 
Q 3406 3131 3298 2873 
Q 3191 2616 2906 2266 
Q 2828 2175 2409 1742 
Q 1991 1309 1228 531 
z
" transform="scale(0.015625)"/>
        <path id="DejaVuSans-29" d="M 513 4856 
L 1013 4856 
Q 1481 4119 1714 3412 
Q 1947 2706 1947 2009 
Q 1947 1309 1714 600 
Q 1481 -109 1013 -844 
L 513 -844 
Q 928 -128 1133 580 
Q 1338 1288 1338 2009 
Q 1338 2731 1133 3434 
Q 928 4138 513 4856 
z
" transform="scale(0.015625)"/>
       </defs>
       <use xlink:href="#DejaVuSans-41"/>
       <use xlink:href="#DejaVuSans-74" x="66.658203"/>
       <use xlink:href="#DejaVuSans-74" x="105.867188"/>
       <use xlink:href="#DejaVuSans-6e" x="145.076172"/>
       <use xlink:href="#DejaVuSans-50" x="208.455078"/>
       <use xlink:href="#DejaVuSans-61" x="264.257812"/>
       <use xlink:href="#DejaVuSans-63" x="325.537109"/>
       <use xlink:href="#DejaVuSans-6b" x="380.517578"/>
       <use xlink:href="#DejaVuSans-65" x="434.802734"/>
       <use xlink:href="#DejaVuSans-72" x="496.326172"/>
       <use xlink:href="#DejaVuSans-20" x="537.439453"/>
       <use xlink:href="#DejaVuSans-28" x="569.226562"/>
       <use xlink:href="#DejaVuSans-41" x="608.240234"/>
       <use xlink:href="#DejaVuSans-46" x="676.648438"/>
       <use xlink:href="#DejaVuSans-32" x="734.167969"/>
       <use xlink:href="#DejaVuSans-29" x="797.791016"/>
      </g>
     </g>
    </g>
   </g>
   <g id="matplotlib.axis_2">
    <g id="ytick_1">
     <g id="line2d_1">
      <path d="M 84.13125 547.794448 
L 865.33125 547.794448 
" clip-path="url(#pbb9f18f1ea)" style="fill: none; stroke: #cccccc; stroke-width: 0.8; stroke-linecap: round"/>
     </g>
     <g id="text_8">
      <!-- 0.00 -->
      <g style="fill: #262626" transform="translate(32.6 555.392885) scale(0.2 -0.2)">
       <defs>
        <path id="DejaVuSans-30" d="M 2034 4250 
Q 1547 4250 1301 3770 
Q 1056 3291 1056 2328 
Q 1056 1369 1301 889 
Q 1547 409 2034 409 
Q 2525 409 2770 889 
Q 3016 1369 3016 2328 
Q 3016 3291 2770 3770 
Q 2525 4250 2034 4250 
z
M 2034 4750 
Q 2819 4750 3233 4129 
Q 3647 3509 3647 2328 
Q 3647 1150 3233 529 
Q 2819 -91 2034 -91 
Q 1250 -91 836 529 
Q 422 1150 422 2328 
Q 422 3509 836 4129 
Q 1250 4750 2034 4750 
z
" transform="scale(0.015625)"/>
        <path id="DejaVuSans-2e" d="M 684 794 
L 1344 794 
L 1344 0 
L 684 0 
L 684 794 
z
" transform="scale(0.015625)"/>
       </defs>
       <use xlink:href="#DejaVuSans-30"/>
       <use xlink:href="#DejaVuSans-2e" x="63.623047"/>
       <use xlink:href="#DejaVuSans-30" x="95.410156"/>
       <use xlink:href="#DejaVuSans-30" x="159.033203"/>
      </g>
     </g>
    </g>
    <g id="ytick_2">
     <g id="line2d_2">
      <path d="M 84.13125 482.955843 
L 865.33125 482.955843 
" clip-path="url(#pbb9f18f1ea)" style="fill: none; stroke: #cccccc; stroke-width: 0.8; stroke-linecap: round"/>
     </g>
     <g id="text_9">
      <!-- 0.25 -->
      <g style="fill: #262626" transform="translate(32.6 490.554281) scale(0.2 -0.2)">
       <defs>
        <path id="DejaVuSans-35" d="M 691 4666 
L 3169 4666 
L 3169 4134 
L 1269 4134 
L 1269 2991 
Q 1406 3038 1543 3061 
Q 1681 3084 1819 3084 
Q 2600 3084 3056 2656 
Q 3513 2228 3513 1497 
Q 3513 744 3044 326 
Q 2575 -91 1722 -91 
Q 1428 -91 1123 -41 
Q 819 9 494 109 
L 494 744 
Q 775 591 1075 516 
Q 1375 441 1709 441 
Q 2250 441 2565 725 
Q 2881 1009 2881 1497 
Q 2881 1984 2565 2268 
Q 2250 2553 1709 2553 
Q 1456 2553 1204 2497 
Q 953 2441 691 2322 
L 691 4666 
z
" transform="scale(0.015625)"/>
       </defs>
       <use xlink:href="#DejaVuSans-30"/>
       <use xlink:href="#DejaVuSans-2e" x="63.623047"/>
       <use xlink:href="#DejaVuSans-32" x="95.410156"/>
       <use xlink:href="#DejaVuSans-35" x="159.033203"/>
      </g>
     </g>
    </g>
    <g id="ytick_3">
     <g id="line2d_3">
      <path d="M 84.13125 418.117239 
L 865.33125 418.117239 
" clip-path="url(#pbb9f18f1ea)" style="fill: none; stroke: #cccccc; stroke-width: 0.8; stroke-linecap: round"/>
     </g>
     <g id="text_10">
      <!-- 0.50 -->
      <g style="fill: #262626" transform="translate(32.6 425.715676) scale(0.2 -0.2)">
       <use xlink:href="#DejaVuSans-30"/>
       <use xlink:href="#DejaVuSans-2e" x="63.623047"/>
       <use xlink:href="#DejaVuSans-35" x="95.410156"/>
       <use xlink:href="#DejaVuSans-30" x="159.033203"/>
      </g>
     </g>
    </g>
    <g id="ytick_4">
     <g id="line2d_4">
      <path d="M 84.13125 353.278634 
L 865.33125 353.278634 
" clip-path="url(#pbb9f18f1ea)" style="fill: none; stroke: #cccccc; stroke-width: 0.8; stroke-linecap: round"/>
     </g>
     <g id="text_11">
      <!-- 0.75 -->
      <g style="fill: #262626" transform="translate(32.6 360.877071) scale(0.2 -0.2)">
       <defs>
        <path id="DejaVuSans-37" d="M 525 4666 
L 3525 4666 
L 3525 4397 
L 1831 0 
L 1172 0 
L 2766 4134 
L 525 4134 
L 525 4666 
z
" transform="scale(0.015625)"/>
       </defs>
       <use xlink:href="#DejaVuSans-30"/>
       <use xlink:href="#DejaVuSans-2e" x="63.623047"/>
       <use xlink:href="#DejaVuSans-37" x="95.410156"/>
       <use xlink:href="#DejaVuSans-35" x="159.033203"/>
      </g>
     </g>
    </g>
    <g id="ytick_5">
     <g id="line2d_5">
      <path d="M 84.13125 288.440029 
L 865.33125 288.440029 
" clip-path="url(#pbb9f18f1ea)" style="fill: none; stroke: #cccccc; stroke-width: 0.8; stroke-linecap: round"/>
     </g>
     <g id="text_12">
      <!-- 1.00 -->
      <g style="fill: #262626" transform="translate(32.6 296.038467) scale(0.2 -0.2)">
       <defs>
        <path id="DejaVuSans-31" d="M 794 531 
L 1825 531 
L 1825 4091 
L 703 3866 
L 703 4441 
L 1819 4666 
L 2450 4666 
L 2450 531 
L 3481 531 
L 3481 0 
L 794 0 
L 794 531 
z
" transform="scale(0.015625)"/>
       </defs>
       <use xlink:href="#DejaVuSans-31"/>
       <use xlink:href="#DejaVuSans-2e" x="63.623047"/>
       <use xlink:href="#DejaVuSans-30" x="95.410156"/>
       <use xlink:href="#DejaVuSans-30" x="159.033203"/>
      </g>
     </g>
    </g>
    <g id="ytick_6">
     <g id="line2d_6">
      <path d="M 84.13125 223.601425 
L 865.33125 223.601425 
" clip-path="url(#pbb9f18f1ea)" style="fill: none; stroke: #cccccc; stroke-width: 0.8; stroke-linecap: round"/>
     </g>
     <g id="text_13">
      <!-- 1.25 -->
      <g style="fill: #262626" transform="translate(32.6 231.199862) scale(0.2 -0.2)">
       <use xlink:href="#DejaVuSans-31"/>
       <use xlink:href="#DejaVuSans-2e" x="63.623047"/>
       <use xlink:href="#DejaVuSans-32" x="95.410156"/>
       <use xlink:href="#DejaVuSans-35" x="159.033203"/>
      </g>
     </g>
    </g>
    <g id="ytick_7">
     <g id="line2d_7">
      <path d="M 84.13125 158.76282 
L 865.33125 158.76282 
" clip-path="url(#pbb9f18f1ea)" style="fill: none; stroke: #cccccc; stroke-width: 0.8; stroke-linecap: round"/>
     </g>
     <g id="text_14">
      <!-- 1.50 -->
      <g style="fill: #262626" transform="translate(32.6 166.361258) scale(0.2 -0.2)">
       <use xlink:href="#DejaVuSans-31"/>
       <use xlink:href="#DejaVuSans-2e" x="63.623047"/>
       <use xlink:href="#DejaVuSans-35" x="95.410156"/>
       <use xlink:href="#DejaVuSans-30" x="159.033203"/>
      </g>
     </g>
    </g>
    <g id="ytick_8">
     <g id="line2d_8">
      <path d="M 84.13125 93.924216 
L 865.33125 93.924216 
" clip-path="url(#pbb9f18f1ea)" style="fill: none; stroke: #cccccc; stroke-width: 0.8; stroke-linecap: round"/>
     </g>
     <g id="text_15">
      <!-- 1.75 -->
      <g style="fill: #262626" transform="translate(32.6 101.522653) scale(0.2 -0.2)">
       <use xlink:href="#DejaVuSans-31"/>
       <use xlink:href="#DejaVuSans-2e" x="63.623047"/>
       <use xlink:href="#DejaVuSans-37" x="95.410156"/>
       <use xlink:href="#DejaVuSans-35" x="159.033203"/>
      </g>
     </g>
    </g>
    <g id="ytick_9">
     <g id="line2d_9">
      <path d="M 84.13125 29.085611 
L 865.33125 29.085611 
" clip-path="url(#pbb9f18f1ea)" style="fill: none; stroke: #cccccc; stroke-width: 0.8; stroke-linecap: round"/>
     </g>
     <g id="text_16">
      <!-- 2.00 -->
      <g style="fill: #262626" transform="translate(32.6 36.684048) scale(0.2 -0.2)">
       <use xlink:href="#DejaVuSans-32"/>
       <use xlink:href="#DejaVuSans-2e" x="63.623047"/>
       <use xlink:href="#DejaVuSans-30" x="95.410156"/>
       <use xlink:href="#DejaVuSans-30" x="159.033203"/>
      </g>
     </g>
    </g>
    <g id="text_17">
     <!-- RMSD ($\AA$) -->
     <g style="fill: #262626" transform="translate(24.440625 331.9) rotate(-90) scale(0.2 -0.2)">
      <defs>
       <path id="DejaVuSans-52" d="M 2841 2188 
Q 3044 2119 3236 1894 
Q 3428 1669 3622 1275 
L 4263 0 
L 3584 0 
L 2988 1197 
Q 2756 1666 2539 1819 
Q 2322 1972 1947 1972 
L 1259 1972 
L 1259 0 
L 628 0 
L 628 4666 
L 2053 4666 
Q 2853 4666 3247 4331 
Q 3641 3997 3641 3322 
Q 3641 2881 3436 2590 
Q 3231 2300 2841 2188 
z
M 1259 4147 
L 1259 2491 
L 2053 2491 
Q 2509 2491 2742 2702 
Q 2975 2913 2975 3322 
Q 2975 3731 2742 3939 
Q 2509 4147 2053 4147 
L 1259 4147 
z
" transform="scale(0.015625)"/>
       <path id="DejaVuSans-44" d="M 1259 4147 
L 1259 519 
L 2022 519 
Q 2988 519 3436 956 
Q 3884 1394 3884 2338 
Q 3884 3275 3436 3711 
Q 2988 4147 2022 4147 
L 1259 4147 
z
M 628 4666 
L 1925 4666 
Q 3281 4666 3915 4102 
Q 4550 3538 4550 2338 
Q 4550 1131 3912 565 
Q 3275 0 1925 0 
L 628 0 
L 628 4666 
z
" transform="scale(0.015625)"/>
       <path id="DejaVuSans-Oblique-c5" d="M 3188 5081 
Q 3188 5278 3048 5417 
Q 2909 5556 2713 5556 
Q 2513 5556 2377 5420 
Q 2241 5284 2241 5081 
Q 2241 4884 2377 4746 
Q 2513 4609 2713 4609 
Q 2909 4609 3048 4746 
Q 3188 4884 3188 5081 
z
M 2203 4397 
Q 2034 4513 1945 4689 
Q 1856 4866 1856 5081 
Q 1856 5438 2106 5689 
Q 2356 5941 2713 5941 
Q 3069 5941 3320 5689 
Q 3572 5438 3572 5081 
Q 3572 4834 3458 4643 
Q 3344 4453 3128 4341 
L 3938 0 
L 3278 0 
L 3084 1197 
L 984 1197 
L 325 0 
L -341 0 
L 2203 4397 
z
M 2584 4044 
L 1275 1722 
L 2988 1722 
L 2584 4044 
z
" transform="scale(0.015625)"/>
      </defs>
      <use xlink:href="#DejaVuSans-52" transform="translate(0 0.171875)"/>
      <use xlink:href="#DejaVuSans-4d" transform="translate(69.482422 0.171875)"/>
      <use xlink:href="#DejaVuSans-53" transform="translate(155.761719 0.171875)"/>
      <use xlink:href="#DejaVuSans-44" transform="translate(219.238281 0.171875)"/>
      <use xlink:href="#DejaVuSans-20" transform="translate(296.240234 0.171875)"/>
      <use xlink:href="#DejaVuSans-28" transform="translate(328.027344 0.171875)"/>
      <use xlink:href="#DejaVuSans-Oblique-c5" transform="translate(367.041016 0.171875)"/>
      <use xlink:href="#DejaVuSans-29" transform="translate(435.449219 0.171875)"/>
     </g>
    </g>
   </g>
   <g id="PolyCollection_1">
    <defs>
     <path id="m7fb3de0c22" d="M 140.473024 -229.518012 
L 139.389476 -229.518012 
L 139.106271 -234.02213 
L 138.709092 -238.526247 
L 138.168449 -243.030365 
L 137.453608 -247.534483 
L 136.534716 -252.038601 
L 135.385226 -256.542719 
L 133.984365 -261.046837 
L 132.31935 -265.550954 
L 130.387147 -270.055072 
L 128.195652 -274.55919 
L 125.764304 -279.063308 
L 123.12419 -283.567426 
L 120.317714 -288.071543 
L 117.397764 -292.575661 
L 114.426274 -297.079779 
L 111.471938 -301.583897 
L 108.60696 -306.088015 
L 105.902858 -310.592132 
L 103.425694 -315.09625 
L 101.231365 -319.600368 
L 99.361806 -324.104486 
L 97.84289 -328.608604 
L 96.684526 -333.112721 
L 95.882958 -337.616839 
L 95.424713 -342.120957 
L 95.29125 -346.625075 
L 95.463153 -351.129193 
L 95.922904 -355.63331 
L 96.655672 -360.137428 
L 97.648117 -364.641546 
L 98.885742 -369.145664 
L 100.349674 -373.649782 
L 102.013887 -378.1539 
L 103.843699 -382.658017 
L 105.796068 -387.162135 
L 107.821765 -391.666253 
L 109.86908 -396.170371 
L 111.888381 -400.674489 
L 113.836675 -405.178606 
L 115.681322 -409.682724 
L 117.402242 -414.186842 
L 118.992251 -418.69096 
L 120.455566 -423.195078 
L 121.804871 -427.699195 
L 123.057583 -432.203313 
L 124.232099 -436.707431 
L 125.344691 -441.211549 
L 126.407528 -445.715667 
L 127.427997 -450.219784 
L 128.409148 -454.723902 
L 129.350919 -459.22802 
L 130.25163 -463.732138 
L 131.109331 -468.236256 
L 131.922703 -472.740374 
L 132.691441 -477.244491 
L 133.41619 -481.748609 
L 134.098238 -486.252727 
L 134.739138 -490.756845 
L 135.340395 -495.260963 
L 135.903261 -499.76508 
L 136.428608 -504.269198 
L 136.916852 -508.773316 
L 137.367916 -513.277434 
L 137.781235 -517.781552 
L 138.155866 -522.285669 
L 138.490705 -526.789787 
L 138.784809 -531.293905 
L 139.037751 -535.798023 
L 139.249916 -540.302141 
L 139.422646 -544.806258 
L 139.55818 -549.310376 
L 139.659381 -553.814494 
L 139.729334 -558.318612 
L 139.770889 -562.82273 
L 139.786279 -567.326847 
L 139.776932 -571.830965 
L 139.743518 -576.335083 
L 139.686294 -580.839201 
L 139.605678 -585.343319 
L 139.502983 -589.847437 
L 139.381148 -594.351554 
L 139.245282 -598.855672 
L 139.102857 -603.35979 
L 138.963411 -607.863908 
L 138.837742 -612.368026 
L 138.736658 -616.872143 
L 138.669524 -621.376261 
L 138.642864 -625.880379 
L 138.659338 -630.384497 
L 138.717312 -634.888615 
L 138.811134 -639.392732 
L 138.932041 -643.89685 
L 139.06951 -648.400968 
L 139.212756 -652.905086 
L 139.352092 -657.409204 
L 139.479917 -661.913321 
L 139.591215 -666.417439 
L 139.683578 -670.921557 
L 139.756846 -675.425675 
L 140.105654 -675.425675 
L 140.105654 -675.425675 
L 140.178922 -670.921557 
L 140.271285 -666.417439 
L 140.382583 -661.913321 
L 140.510408 -657.409204 
L 140.649744 -652.905086 
L 140.79299 -648.400968 
L 140.930459 -643.89685 
L 141.051366 -639.392732 
L 141.145188 -634.888615 
L 141.203162 -630.384497 
L 141.219636 -625.880379 
L 141.192976 -621.376261 
L 141.125842 -616.872143 
L 141.024758 -612.368026 
L 140.899089 -607.863908 
L 140.759643 -603.35979 
L 140.617218 -598.855672 
L 140.481352 -594.351554 
L 140.359517 -589.847437 
L 140.256822 -585.343319 
L 140.176206 -580.839201 
L 140.118982 -576.335083 
L 140.085568 -571.830965 
L 140.076221 -567.326847 
L 140.091611 -562.82273 
L 140.133166 -558.318612 
L 140.203119 -553.814494 
L 140.30432 -549.310376 
L 140.439854 -544.806258 
L 140.612584 -540.302141 
L 140.824749 -535.798023 
L 141.077691 -531.293905 
L 141.371795 -526.789787 
L 141.706634 -522.285669 
L 142.081265 -517.781552 
L 142.494584 -513.277434 
L 142.945648 -508.773316 
L 143.433892 -504.269198 
L 143.959239 -499.76508 
L 144.522105 -495.260963 
L 145.123362 -490.756845 
L 145.764262 -486.252727 
L 146.44631 -481.748609 
L 147.171059 -477.244491 
L 147.939797 -472.740374 
L 148.753169 -468.236256 
L 149.61087 -463.732138 
L 150.511581 -459.22802 
L 151.453352 -454.723902 
L 152.434503 -450.219784 
L 153.454972 -445.715667 
L 154.517809 -441.211549 
L 155.630401 -436.707431 
L 156.804917 -432.203313 
L 158.057629 -427.699195 
L 159.406934 -423.195078 
L 160.870249 -418.69096 
L 162.460258 -414.186842 
L 164.181178 -409.682724 
L 166.025825 -405.178606 
L 167.974119 -400.674489 
L 169.99342 -396.170371 
L 172.040735 -391.666253 
L 174.066432 -387.162135 
L 176.018801 -382.658017 
L 177.848613 -378.1539 
L 179.512826 -373.649782 
L 180.976758 -369.145664 
L 182.214383 -364.641546 
L 183.206828 -360.137428 
L 183.939596 -355.63331 
L 184.399347 -351.129193 
L 184.57125 -346.625075 
L 184.437787 -342.120957 
L 183.979542 -337.616839 
L 183.177974 -333.112721 
L 182.01961 -328.608604 
L 180.500694 -324.104486 
L 178.631135 -319.600368 
L 176.436806 -315.09625 
L 173.959642 -310.592132 
L 171.25554 -306.088015 
L 168.390562 -301.583897 
L 165.436226 -297.079779 
L 162.464736 -292.575661 
L 159.544786 -288.071543 
L 156.73831 -283.567426 
L 154.098196 -279.063308 
L 151.666848 -274.55919 
L 149.475353 -270.055072 
L 147.54315 -265.550954 
L 145.878135 -261.046837 
L 144.477274 -256.542719 
L 143.327784 -252.038601 
L 142.408892 -247.534483 
L 141.694051 -243.030365 
L 141.153408 -238.526247 
L 140.756229 -234.02213 
L 140.473024 -229.518012 
z
" style="stroke: #3d3d3d; stroke-opacity: 0.5"/>
    </defs>
    <g clip-path="url(#pbb9f18f1ea)">
     <use xlink:href="#m7fb3de0c22" x="0" y="707.825675" style="fill: #3274a1; fill-opacity: 0.5; stroke: #3d3d3d; stroke-opacity: 0.5"/>
    </g>
   </g>
   <g id="PolyCollection_2">
    <defs>
     <path id="mc348004aa7" d="M 252.390991 -181.613283 
L 250.671509 -181.613283 
L 250.243079 -185.48217 
L 249.652736 -189.351057 
L 248.863562 -193.219944 
L 247.839629 -197.088831 
L 246.549502 -200.957718 
L 244.969911 -204.826605 
L 243.089067 -208.695492 
L 240.909055 -212.564379 
L 238.446939 -216.433266 
L 235.734456 -220.302153 
L 232.816521 -224.17104 
L 229.749025 -228.039928 
L 226.596499 -231.908815 
L 223.430105 -235.777702 
L 220.326109 -239.646589 
L 217.364591 -243.515476 
L 214.627853 -247.384363 
L 212.197839 -251.25325 
L 210.152129 -255.122137 
L 208.558495 -258.991024 
L 207.468594 -262.859911 
L 206.911906 -266.728798 
L 206.89125 -270.597685 
L 207.381091 -274.466573 
L 208.329352 -278.33546 
L 209.662683 -282.204347 
L 211.294391 -286.073234 
L 213.133639 -289.942121 
L 215.094324 -293.811008 
L 217.102183 -297.679895 
L 219.099243 -301.548782 
L 221.045334 -305.417669 
L 222.917052 -309.286556 
L 224.704951 -313.155443 
L 226.409893 -317.02433 
L 228.039325 -320.893217 
L 229.60399 -324.762105 
L 231.115245 -328.630992 
L 232.582969 -332.499879 
L 234.013962 -336.368766 
L 235.410825 -340.237653 
L 236.771396 -344.10654 
L 238.0889 -347.975427 
L 239.352918 -351.844314 
L 240.551116 -355.713201 
L 241.671491 -359.582088 
L 242.704666 -363.450975 
L 243.645745 -367.319862 
L 244.495286 -371.18875 
L 245.259164 -375.057637 
L 245.947401 -378.926524 
L 246.57225 -382.795411 
L 247.146025 -386.664298 
L 247.679151 -390.533185 
L 248.178835 -394.402072 
L 248.648545 -398.270959 
L 249.088289 -402.139846 
L 249.495505 -406.008733 
L 249.866274 -409.87762 
L 250.196555 -413.746507 
L 250.483178 -417.615394 
L 250.724464 -421.484282 
L 250.92041 -425.353169 
L 251.072498 -429.222056 
L 251.183258 -433.090943 
L 251.255725 -436.95983 
L 251.292952 -440.828717 
L 251.297679 -444.697604 
L 251.272243 -448.566491 
L 251.218716 -452.435378 
L 251.13924 -456.304265 
L 251.03644 -460.173152 
L 250.913807 -464.042039 
L 250.775921 -467.910927 
L 250.628438 -471.779814 
L 250.477804 -475.648701 
L 250.330754 -479.517588 
L 250.193707 -483.386475 
L 250.072206 -487.255362 
L 249.970538 -491.124249 
L 249.891626 -494.993136 
L 249.837176 -498.862023 
L 249.808012 -502.73091 
L 249.804437 -506.599797 
L 249.826482 -510.468684 
L 249.873942 -514.337572 
L 249.946182 -518.206459 
L 250.041792 -522.075346 
L 250.158247 -525.944233 
L 250.291699 -529.81312 
L 250.437033 -533.682007 
L 250.588206 -537.550894 
L 250.73882 -541.419781 
L 250.882796 -545.288668 
L 251.015005 -549.157555 
L 251.131735 -553.026442 
L 251.230907 -556.895329 
L 251.312032 -560.764216 
L 251.375969 -564.633104 
L 251.686531 -564.633104 
L 251.686531 -564.633104 
L 251.750468 -560.764216 
L 251.831593 -556.895329 
L 251.930765 -553.026442 
L 252.047495 -549.157555 
L 252.179704 -545.288668 
L 252.32368 -541.419781 
L 252.474294 -537.550894 
L 252.625467 -533.682007 
L 252.770801 -529.81312 
L 252.904253 -525.944233 
L 253.020708 -522.075346 
L 253.116318 -518.206459 
L 253.188558 -514.337572 
L 253.236018 -510.468684 
L 253.258063 -506.599797 
L 253.254488 -502.73091 
L 253.225324 -498.862023 
L 253.170874 -494.993136 
L 253.091962 -491.124249 
L 252.990294 -487.255362 
L 252.868793 -483.386475 
L 252.731746 -479.517588 
L 252.584696 -475.648701 
L 252.434062 -471.779814 
L 252.286579 -467.910927 
L 252.148693 -464.042039 
L 252.02606 -460.173152 
L 251.92326 -456.304265 
L 251.843784 -452.435378 
L 251.790257 -448.566491 
L 251.764821 -444.697604 
L 251.769548 -440.828717 
L 251.806775 -436.95983 
L 251.879242 -433.090943 
L 251.990002 -429.222056 
L 252.14209 -425.353169 
L 252.338036 -421.484282 
L 252.579322 -417.615394 
L 252.865945 -413.746507 
L 253.196226 -409.87762 
L 253.566995 -406.008733 
L 253.974211 -402.139846 
L 254.413955 -398.270959 
L 254.883665 -394.402072 
L 255.383349 -390.533185 
L 255.916475 -386.664298 
L 256.49025 -382.795411 
L 257.115099 -378.926524 
L 257.803336 -375.057637 
L 258.567214 -371.18875 
L 259.416755 -367.319862 
L 260.357834 -363.450975 
L 261.391009 -359.582088 
L 262.511384 -355.713201 
L 263.709582 -351.844314 
L 264.9736 -347.975427 
L 266.291104 -344.10654 
L 267.651675 -340.237653 
L 269.048538 -336.368766 
L 270.479531 -332.499879 
L 271.947255 -328.630992 
L 273.45851 -324.762105 
L 275.023175 -320.893217 
L 276.652607 -317.02433 
L 278.357549 -313.155443 
L 280.145448 -309.286556 
L 282.017166 -305.417669 
L 283.963257 -301.548782 
L 285.960317 -297.679895 
L 287.968176 -293.811008 
L 289.928861 -289.942121 
L 291.768109 -286.073234 
L 293.399817 -282.204347 
L 294.733148 -278.33546 
L 295.681409 -274.466573 
L 296.17125 -270.597685 
L 296.150594 -266.728798 
L 295.593906 -262.859911 
L 294.504005 -258.991024 
L 292.910371 -255.122137 
L 290.864661 -251.25325 
L 288.434647 -247.384363 
L 285.697909 -243.515476 
L 282.736391 -239.646589 
L 279.632395 -235.777702 
L 276.466001 -231.908815 
L 273.313475 -228.039928 
L 270.245979 -224.17104 
L 267.328044 -220.302153 
L 264.615561 -216.433266 
L 262.153445 -212.564379 
L 259.973433 -208.695492 
L 258.092589 -204.826605 
L 256.512998 -200.957718 
L 255.222871 -197.088831 
L 254.198938 -193.219944 
L 253.409764 -189.351057 
L 252.819421 -185.48217 
L 252.390991 -181.613283 
z
" style="stroke: #3d3d3d; stroke-opacity: 0.5"/>
    </defs>
    <g clip-path="url(#pbb9f18f1ea)">
     <use xlink:href="#mc348004aa7" x="0" y="707.825675" style="fill: #d684bd; fill-opacity: 0.5; stroke: #3d3d3d; stroke-opacity: 0.5"/>
    </g>
   </g>
   <g id="PolyCollection_3">
    <defs>
     <path id="m3e692de38e" d="M 363.65146 -324.520268 
L 362.61104 -324.520268 
L 362.396569 -327.553033 
L 362.11741 -330.585798 
L 361.763314 -333.618563 
L 361.325272 -336.651329 
L 360.796254 -339.684094 
L 360.171746 -342.716859 
L 359.44996 -345.749625 
L 358.631658 -348.78239 
L 357.719595 -351.815155 
L 356.717713 -354.84792 
L 355.630244 -357.880686 
L 354.460975 -360.913451 
L 353.212845 -363.946216 
L 351.888009 -366.978982 
L 350.488337 -370.011747 
L 349.016238 -373.044512 
L 347.475557 -376.077277 
L 345.872318 -379.110043 
L 344.215093 -382.142808 
L 342.514943 -385.175573 
L 340.78495 -388.208338 
L 339.039533 -391.241104 
L 337.29372 -394.273869 
L 335.562564 -397.306634 
L 333.860754 -400.3394 
L 332.202378 -403.372165 
L 330.600696 -406.40493 
L 329.067808 -409.437695 
L 327.614153 -412.470461 
L 326.247957 -415.503226 
L 324.974859 -418.535991 
L 323.798024 -421.568757 
L 322.718973 -424.601522 
L 321.739176 -427.634287 
L 320.862179 -430.667052 
L 320.09577 -433.699818 
L 319.45354 -436.732583 
L 318.955238 -439.765348 
L 318.625539 -442.798113 
L 318.49125 -445.830879 
L 318.577368 -448.863644 
L 318.902777 -451.896409 
L 319.476495 -454.929175 
L 320.295294 -457.96194 
L 321.343221 -460.994705 
L 322.593087 -464.02747 
L 324.009574 -467.060236 
L 325.553258 -470.093001 
L 327.184722 -473.125766 
L 328.868001 -476.158532 
L 330.572872 -479.191297 
L 332.27582 -482.224062 
L 333.959851 -485.256827 
L 335.61354 -488.289593 
L 337.229784 -491.322358 
L 338.804641 -494.355123 
L 340.33648 -497.387888 
L 341.825457 -500.420654 
L 343.273179 -503.453419 
L 344.682332 -506.486184 
L 346.056105 -509.51895 
L 347.397344 -512.551715 
L 348.707523 -515.58448 
L 349.985751 -518.617245 
L 351.228073 -521.650011 
L 352.4273 -524.682776 
L 353.573495 -527.715541 
L 354.655051 -530.748307 
L 355.660187 -533.781072 
L 356.578534 -536.813837 
L 357.402514 -539.846602 
L 358.128217 -542.879368 
L 358.755665 -545.912133 
L 359.288472 -548.944898 
L 359.733055 -551.977663 
L 360.097645 -555.010429 
L 360.391344 -558.043194 
L 360.623445 -561.075959 
L 360.803084 -564.108725 
L 360.939217 -567.14149 
L 361.040784 -570.174255 
L 361.116893 -573.20702 
L 361.176856 -576.239786 
L 361.229968 -579.272551 
L 361.28503 -582.305316 
L 361.349681 -585.338082 
L 361.429696 -588.370847 
L 361.528423 -591.403612 
L 361.646492 -594.436377 
L 361.781884 -597.469143 
L 361.930357 -600.501908 
L 362.086152 -603.534673 
L 362.242837 -606.567438 
L 362.394162 -609.600204 
L 362.534761 -612.632969 
L 362.660637 -615.665734 
L 362.769378 -618.6985 
L 362.860128 -621.731265 
L 362.933364 -624.76403 
L 363.329136 -624.76403 
L 363.329136 -624.76403 
L 363.402372 -621.731265 
L 363.493122 -618.6985 
L 363.601863 -615.665734 
L 363.727739 -612.632969 
L 363.868338 -609.600204 
L 364.019663 -606.567438 
L 364.176348 -603.534673 
L 364.332143 -600.501908 
L 364.480616 -597.469143 
L 364.616008 -594.436377 
L 364.734077 -591.403612 
L 364.832804 -588.370847 
L 364.912819 -585.338082 
L 364.97747 -582.305316 
L 365.032532 -579.272551 
L 365.085644 -576.239786 
L 365.145607 -573.20702 
L 365.221716 -570.174255 
L 365.323283 -567.14149 
L 365.459416 -564.108725 
L 365.639055 -561.075959 
L 365.871156 -558.043194 
L 366.164855 -555.010429 
L 366.529445 -551.977663 
L 366.974028 -548.944898 
L 367.506835 -545.912133 
L 368.134283 -542.879368 
L 368.859986 -539.846602 
L 369.683966 -536.813837 
L 370.602313 -533.781072 
L 371.607449 -530.748307 
L 372.689005 -527.715541 
L 373.8352 -524.682776 
L 375.034427 -521.650011 
L 376.276749 -518.617245 
L 377.554977 -515.58448 
L 378.865156 -512.551715 
L 380.206395 -509.51895 
L 381.580168 -506.486184 
L 382.989321 -503.453419 
L 384.437043 -500.420654 
L 385.92602 -497.387888 
L 387.457859 -494.355123 
L 389.032716 -491.322358 
L 390.64896 -488.289593 
L 392.302649 -485.256827 
L 393.98668 -482.224062 
L 395.689628 -479.191297 
L 397.394499 -476.158532 
L 399.077778 -473.125766 
L 400.709242 -470.093001 
L 402.252926 -467.060236 
L 403.669413 -464.02747 
L 404.919279 -460.994705 
L 405.967206 -457.96194 
L 406.786005 -454.929175 
L 407.359723 -451.896409 
L 407.685132 -448.863644 
L 407.77125 -445.830879 
L 407.636961 -442.798113 
L 407.307262 -439.765348 
L 406.80896 -436.732583 
L 406.16673 -433.699818 
L 405.400321 -430.667052 
L 404.523324 -427.634287 
L 403.543527 -424.601522 
L 402.464476 -421.568757 
L 401.287641 -418.535991 
L 400.014543 -415.503226 
L 398.648347 -412.470461 
L 397.194692 -409.437695 
L 395.661804 -406.40493 
L 394.060122 -403.372165 
L 392.401746 -400.3394 
L 390.699936 -397.306634 
L 388.96878 -394.273869 
L 387.222967 -391.241104 
L 385.47755 -388.208338 
L 383.747557 -385.175573 
L 382.047407 -382.142808 
L 380.390182 -379.110043 
L 378.786943 -376.077277 
L 377.246262 -373.044512 
L 375.774163 -370.011747 
L 374.374491 -366.978982 
L 373.049655 -363.946216 
L 371.801525 -360.913451 
L 370.632256 -357.880686 
L 369.544787 -354.84792 
L 368.542905 -351.815155 
L 367.630842 -348.78239 
L 366.81254 -345.749625 
L 366.090754 -342.716859 
L 365.466246 -339.684094 
L 364.937228 -336.651329 
L 364.499186 -333.618563 
L 364.14509 -330.585798 
L 363.865931 -327.553033 
L 363.65146 -324.520268 
z
" style="stroke: #3d3d3d; stroke-opacity: 0.5"/>
    </defs>
    <g clip-path="url(#pbb9f18f1ea)">
     <use xlink:href="#m3e692de38e" x="0" y="707.825675" style="fill: #c03d3e; fill-opacity: 0.5; stroke: #3d3d3d; stroke-opacity: 0.5"/>
    </g>
   </g>
   <g id="PolyCollection_4">
    <defs>
     <path id="m69337f9ade" d="M 475.488008 -244.03046 
L 473.974492 -244.03046 
L 473.587262 -248.189749 
L 473.050722 -252.349037 
L 472.330797 -256.508325 
L 471.394907 -260.667613 
L 470.21546 -264.826902 
L 468.773361 -268.98619 
L 467.060913 -273.145478 
L 465.083488 -277.304767 
L 462.859571 -281.464055 
L 460.419153 -285.623343 
L 457.800873 -289.782632 
L 455.048672 -293.94192 
L 452.208871 -298.101208 
L 449.328477 -302.260497 
L 446.455072 -306.419785 
L 443.638094 -310.579073 
L 440.930749 -314.738362 
L 438.39142 -318.89765 
L 436.083473 -323.056938 
L 434.07272 -327.216226 
L 432.422489 -331.375515 
L 431.187015 -335.534803 
L 430.404476 -339.694091 
L 430.09125 -343.85338 
L 430.238811 -348.012668 
L 430.814076 -352.171956 
L 431.763259 -356.331245 
L 433.018482 -360.490533 
L 434.505849 -364.649821 
L 436.153471 -368.80911 
L 437.898096 -372.968398 
L 439.689394 -377.127686 
L 441.491535 -381.286975 
L 443.282178 -385.446263 
L 445.049497 -389.605551 
L 446.788078 -393.764839 
L 448.494714 -397.924128 
L 450.165028 -402.083416 
L 451.791669 -406.242704 
L 453.364434 -410.401993 
L 454.872182 -414.561281 
L 456.305883 -418.720569 
L 457.661782 -422.879858 
L 458.943541 -427.039146 
L 460.162454 -431.198434 
L 461.335383 -435.357723 
L 462.480747 -439.517011 
L 463.613528 -443.676299 
L 464.740609 -447.835588 
L 465.857739 -451.994876 
L 466.948973 -456.154164 
L 467.988813 -460.313452 
L 468.946589 -464.472741 
L 469.792087 -468.632029 
L 470.501216 -472.791317 
L 471.060566 -476.950606 
L 471.470023 -481.109894 
L 471.743075 -485.269182 
L 471.904879 -489.428471 
L 471.988556 -493.587759 
L 472.030453 -497.747047 
L 472.065218 -501.906336 
L 472.121488 -506.065624 
L 472.218854 -510.224912 
L 472.36648 -514.384201 
L 472.563432 -518.543489 
L 472.800485 -522.702777 
L 473.062878 -526.862065 
L 473.333439 -531.021354 
L 473.595441 -535.180642 
L 473.834758 -539.33993 
L 474.041076 -543.499219 
L 474.208158 -547.658507 
L 474.333367 -551.817795 
L 474.416756 -555.977084 
L 474.460071 -560.136372 
L 474.465926 -564.29566 
L 474.437359 -568.454949 
L 474.377774 -572.614237 
L 474.291234 -576.773525 
L 474.182908 -580.932814 
L 474.059478 -585.092102 
L 473.929283 -589.25139 
L 473.802073 -593.410678 
L 473.688303 -597.569967 
L 473.598072 -601.729255 
L 473.539862 -605.888543 
L 473.519371 -610.047832 
L 473.538671 -614.20712 
L 473.595916 -618.366408 
L 473.685657 -622.525697 
L 473.799708 -626.684985 
L 473.928388 -630.844273 
L 474.061862 -635.003562 
L 474.191349 -639.16285 
L 474.309992 -643.322138 
L 474.413284 -647.481427 
L 474.499077 -651.640715 
L 474.567251 -655.800003 
L 474.895249 -655.800003 
L 474.895249 -655.800003 
L 474.963423 -651.640715 
L 475.049216 -647.481427 
L 475.152508 -643.322138 
L 475.271151 -639.16285 
L 475.400638 -635.003562 
L 475.534112 -630.844273 
L 475.662792 -626.684985 
L 475.776843 -622.525697 
L 475.866584 -618.366408 
L 475.923829 -614.20712 
L 475.943129 -610.047832 
L 475.922638 -605.888543 
L 475.864428 -601.729255 
L 475.774197 -597.569967 
L 475.660427 -593.410678 
L 475.533217 -589.25139 
L 475.403022 -585.092102 
L 475.279592 -580.932814 
L 475.171266 -576.773525 
L 475.084726 -572.614237 
L 475.025141 -568.454949 
L 474.996574 -564.29566 
L 475.002429 -560.136372 
L 475.045744 -555.977084 
L 475.129133 -551.817795 
L 475.254342 -547.658507 
L 475.421424 -543.499219 
L 475.627742 -539.33993 
L 475.867059 -535.180642 
L 476.129061 -531.021354 
L 476.399622 -526.862065 
L 476.662015 -522.702777 
L 476.899068 -518.543489 
L 477.09602 -514.384201 
L 477.243646 -510.224912 
L 477.341012 -506.065624 
L 477.397282 -501.906336 
L 477.432047 -497.747047 
L 477.473944 -493.587759 
L 477.557621 -489.428471 
L 477.719425 -485.269182 
L 477.992477 -481.109894 
L 478.401934 -476.950606 
L 478.961284 -472.791317 
L 479.670413 -468.632029 
L 480.515911 -464.472741 
L 481.473687 -460.313452 
L 482.513527 -456.154164 
L 483.604761 -451.994876 
L 484.721891 -447.835588 
L 485.848972 -443.676299 
L 486.981753 -439.517011 
L 488.127117 -435.357723 
L 489.300046 -431.198434 
L 490.518959 -427.039146 
L 491.800718 -422.879858 
L 493.156617 -418.720569 
L 494.590318 -414.561281 
L 496.098066 -410.401993 
L 497.670831 -406.242704 
L 499.297472 -402.083416 
L 500.967786 -397.924128 
L 502.674422 -393.764839 
L 504.413003 -389.605551 
L 506.180322 -385.446263 
L 507.970965 -381.286975 
L 509.773106 -377.127686 
L 511.564404 -372.968398 
L 513.309029 -368.80911 
L 514.956651 -364.649821 
L 516.444018 -360.490533 
L 517.699241 -356.331245 
L 518.648424 -352.171956 
L 519.223689 -348.012668 
L 519.37125 -343.85338 
L 519.058024 -339.694091 
L 518.275485 -335.534803 
L 517.040011 -331.375515 
L 515.38978 -327.216226 
L 513.379027 -323.056938 
L 511.07108 -318.89765 
L 508.531751 -314.738362 
L 505.824406 -310.579073 
L 503.007428 -306.419785 
L 500.134023 -302.260497 
L 497.253629 -298.101208 
L 494.413828 -293.94192 
L 491.661627 -289.782632 
L 489.043347 -285.623343 
L 486.602929 -281.464055 
L 484.379012 -277.304767 
L 482.401587 -273.145478 
L 480.689139 -268.98619 
L 479.24704 -264.826902 
L 478.067593 -260.667613 
L 477.131703 -256.508325 
L 476.411778 -252.349037 
L 475.875238 -248.189749 
L 475.488008 -244.03046 
z
" style="stroke: #3d3d3d; stroke-opacity: 0.5"/>
    </defs>
    <g clip-path="url(#pbb9f18f1ea)">
     <use xlink:href="#m69337f9ade" x="0" y="707.825675" style="fill: #9372b2; fill-opacity: 0.5; stroke: #3d3d3d; stroke-opacity: 0.5"/>
    </g>
   </g>
   <g id="PolyCollection_5">
    <defs>
     <path id="m27abd24df9" d="M 586.635853 -217.612983 
L 586.026647 -217.612983 
L 585.857887 -222.10853 
L 585.61399 -226.604076 
L 585.270308 -231.099622 
L 584.797544 -235.595168 
L 584.162013 -240.090714 
L 583.326424 -244.586261 
L 582.251358 -249.081807 
L 580.897661 -253.577353 
L 579.22988 -258.072899 
L 577.220766 -262.568445 
L 574.856568 -267.063992 
L 572.142552 -271.559538 
L 569.107859 -276.055084 
L 565.80864 -280.55063 
L 562.328436 -285.046176 
L 558.775115 -289.541723 
L 555.274215 -294.037269 
L 551.959252 -298.532815 
L 548.960179 -303.028361 
L 546.391603 -307.523907 
L 544.342496 -312.019454 
L 542.868865 -316.515 
L 541.99037 -321.010546 
L 541.69125 -325.506092 
L 541.925263 -330.001638 
L 542.623789 -334.497185 
L 543.705821 -338.992731 
L 545.08831 -343.488277 
L 546.695238 -347.983823 
L 548.464 -352.479369 
L 550.348091 -356.974916 
L 552.315847 -361.470462 
L 554.345805 -365.966008 
L 556.420099 -370.461554 
L 558.517786 -374.9571 
L 560.61004 -379.452647 
L 562.658648 -383.948193 
L 564.618305 -388.443739 
L 566.442137 -392.939285 
L 568.089033 -397.434831 
L 569.530874 -401.930378 
L 570.757883 -406.425924 
L 571.780837 -410.92147 
L 572.629685 -415.417016 
L 573.348932 -419.912562 
L 573.990757 -424.408109 
L 574.607196 -428.903655 
L 575.242782 -433.399201 
L 575.928809 -437.894747 
L 576.680074 -442.390293 
L 577.494424 -446.88584 
L 578.354972 -451.381386 
L 579.234388 -455.876932 
L 580.100362 -460.372478 
L 580.921221 -464.868024 
L 581.670741 -469.363571 
L 582.331466 -473.859117 
L 582.896175 -478.354663 
L 583.367495 -482.850209 
L 583.755995 -487.345755 
L 584.077295 -491.841302 
L 584.348817 -496.336848 
L 584.586817 -500.832394 
L 584.804155 -505.32794 
L 585.009107 -509.823486 
L 585.205254 -514.319033 
L 585.392257 -518.814579 
L 585.567197 -523.310125 
L 585.726065 -527.805671 
L 585.865058 -532.301217 
L 585.981441 -536.796764 
L 586.073872 -541.29231 
L 586.142272 -545.787856 
L 586.187368 -550.283402 
L 586.210134 -554.778948 
L 586.211296 -559.274495 
L 586.191081 -563.770041 
L 586.149267 -568.265587 
L 586.08556 -572.761133 
L 586.000233 -577.256679 
L 585.894885 -581.752226 
L 585.773139 -586.247772 
L 585.641057 -590.743318 
L 585.507109 -595.238864 
L 585.381571 -599.73441 
L 585.275398 -604.229957 
L 585.198738 -608.725503 
L 585.159374 -613.221049 
L 585.161445 -617.716595 
L 585.204736 -622.212141 
L 585.284725 -626.707688 
L 585.393359 -631.203234 
L 585.520393 -635.69878 
L 585.654971 -640.194326 
L 585.787127 -644.689872 
L 585.908914 -649.185418 
L 586.015017 -653.680965 
L 586.102823 -658.176511 
L 586.172075 -662.672057 
L 586.490425 -662.672057 
L 586.490425 -662.672057 
L 586.559677 -658.176511 
L 586.647483 -653.680965 
L 586.753586 -649.185418 
L 586.875373 -644.689872 
L 587.007529 -640.194326 
L 587.142107 -635.69878 
L 587.269141 -631.203234 
L 587.377775 -626.707688 
L 587.457764 -622.212141 
L 587.501055 -617.716595 
L 587.503126 -613.221049 
L 587.463762 -608.725503 
L 587.387102 -604.229957 
L 587.280929 -599.73441 
L 587.155391 -595.238864 
L 587.021443 -590.743318 
L 586.889361 -586.247772 
L 586.767615 -581.752226 
L 586.662267 -577.256679 
L 586.57694 -572.761133 
L 586.513233 -568.265587 
L 586.471419 -563.770041 
L 586.451204 -559.274495 
L 586.452366 -554.778948 
L 586.475132 -550.283402 
L 586.520228 -545.787856 
L 586.588628 -541.29231 
L 586.681059 -536.796764 
L 586.797442 -532.301217 
L 586.936435 -527.805671 
L 587.095303 -523.310125 
L 587.270243 -518.814579 
L 587.457246 -514.319033 
L 587.653393 -509.823486 
L 587.858345 -505.32794 
L 588.075683 -500.832394 
L 588.313683 -496.336848 
L 588.585205 -491.841302 
L 588.906505 -487.345755 
L 589.295005 -482.850209 
L 589.766325 -478.354663 
L 590.331034 -473.859117 
L 590.991759 -469.363571 
L 591.741279 -464.868024 
L 592.562138 -460.372478 
L 593.428112 -455.876932 
L 594.307528 -451.381386 
L 595.168076 -446.88584 
L 595.982426 -442.390293 
L 596.733691 -437.894747 
L 597.419718 -433.399201 
L 598.055304 -428.903655 
L 598.671743 -424.408109 
L 599.313568 -419.912562 
L 600.032815 -415.417016 
L 600.881663 -410.92147 
L 601.904617 -406.425924 
L 603.131626 -401.930378 
L 604.573467 -397.434831 
L 606.220363 -392.939285 
L 608.044195 -388.443739 
L 610.003852 -383.948193 
L 612.05246 -379.452647 
L 614.144714 -374.9571 
L 616.242401 -370.461554 
L 618.316695 -365.966008 
L 620.346653 -361.470462 
L 622.314409 -356.974916 
L 624.1985 -352.479369 
L 625.967262 -347.983823 
L 627.57419 -343.488277 
L 628.956679 -338.992731 
L 630.038711 -334.497185 
L 630.737237 -330.001638 
L 630.97125 -325.506092 
L 630.67213 -321.010546 
L 629.793635 -316.515 
L 628.320004 -312.019454 
L 626.270897 -307.523907 
L 623.702321 -303.028361 
L 620.703248 -298.532815 
L 617.388285 -294.037269 
L 613.887385 -289.541723 
L 610.334064 -285.046176 
L 606.85386 -280.55063 
L 603.554641 -276.055084 
L 600.519948 -271.559538 
L 597.805932 -267.063992 
L 595.441734 -262.568445 
L 593.43262 -258.072899 
L 591.764839 -253.577353 
L 590.411142 -249.081807 
L 589.336076 -244.586261 
L 588.500487 -240.090714 
L 587.864956 -235.595168 
L 587.392192 -231.099622 
L 587.04851 -226.604076 
L 586.804613 -222.10853 
L 586.635853 -217.612983 
z
" style="stroke: #3d3d3d; stroke-opacity: 0.5"/>
    </defs>
    <g clip-path="url(#pbb9f18f1ea)">
     <use xlink:href="#m27abd24df9" x="0" y="707.825675" style="fill: #845b53; fill-opacity: 0.5; stroke: #3d3d3d; stroke-opacity: 0.5"/>
    </g>
   </g>
   <g id="PolyCollection_6">
    <defs>
     <path id="m42f7082cec" d="M 698.143218 -171.425675 
L 697.719282 -171.425675 
L 697.600818 -175.716569 
L 697.429068 -180.007462 
L 697.186059 -184.298356 
L 696.849982 -188.58925 
L 696.395107 -192.880143 
L 695.792052 -197.171037 
L 695.00859 -201.461931 
L 694.011156 -205.752824 
L 692.767152 -210.043718 
L 691.247968 -214.334612 
L 689.432446 -218.625506 
L 687.310351 -222.916399 
L 684.885348 -227.207293 
L 682.17709 -231.498187 
L 679.222221 -235.78908 
L 676.074346 -240.079974 
L 672.803159 -244.370868 
L 669.492836 -248.661761 
L 666.239585 -252.952655 
L 663.148001 -257.243549 
L 660.325776 -261.534442 
L 657.87664 -265.825336 
L 655.892013 -270.11623 
L 654.442581 -274.407124 
L 653.571543 -278.698017 
L 653.29125 -282.988911 
L 653.584264 -287.279805 
L 654.408678 -291.570698 
L 655.706296 -295.861592 
L 657.411449 -300.152486 
L 659.458125 -304.443379 
L 661.783871 -308.734273 
L 664.330156 -313.025167 
L 667.040162 -317.316061 
L 669.85579 -321.606954 
L 672.715697 -325.897848 
L 675.55558 -330.188742 
L 678.310849 -334.479635 
L 680.920903 -338.770529 
L 683.333635 -343.061423 
L 685.508891 -347.352316 
L 687.420096 -351.64321 
L 689.05404 -355.934104 
L 690.409403 -360.224997 
L 691.494868 -364.515891 
L 692.327518 -368.806785 
L 692.931787 -373.097679 
L 693.338777 -377.388572 
L 693.585443 -381.679466 
L 693.713113 -385.97036 
L 693.765079 -390.261253 
L 693.783333 -394.552147 
L 693.804931 -398.843041 
L 693.85865 -403.133934 
L 693.962626 -407.424828 
L 694.123477 -411.715722 
L 694.337087 -416.006615 
L 694.590904 -420.297509 
L 694.867302 -424.588403 
L 695.147379 -428.879297 
L 695.414497 -433.17019 
L 695.656967 -437.461084 
L 695.869439 -441.751978 
L 696.052868 -446.042871 
L 696.213178 -450.333765 
L 696.359061 -454.624659 
L 696.499461 -458.915552 
L 696.641367 -463.206446 
L 696.788361 -467.49734 
L 696.94017 -471.788234 
L 697.093138 -476.079127 
L 697.241366 -480.370021 
L 697.378087 -484.660915 
L 697.496898 -488.951808 
L 697.592583 -493.242702 
L 697.661444 -497.533596 
L 697.701251 -501.824489 
L 697.710989 -506.115383 
L 697.690663 -510.406277 
L 697.641302 -514.69717 
L 697.565224 -518.988064 
L 697.466471 -523.278958 
L 697.351211 -527.569852 
L 697.227869 -531.860745 
L 697.106782 -536.151639 
L 696.999292 -540.442533 
L 696.916369 -544.733426 
L 696.867016 -549.02432 
L 696.856819 -553.315214 
L 696.887006 -557.606107 
L 696.954254 -561.897001 
L 697.051329 -566.187895 
L 697.168379 -570.478789 
L 697.29458 -574.769682 
L 697.419765 -579.060576 
L 697.535695 -583.35147 
L 697.636784 -587.642363 
L 697.720233 -591.933257 
L 697.785686 -596.224151 
L 698.076814 -596.224151 
L 698.076814 -596.224151 
L 698.142267 -591.933257 
L 698.225716 -587.642363 
L 698.326805 -583.35147 
L 698.442735 -579.060576 
L 698.56792 -574.769682 
L 698.694121 -570.478789 
L 698.811171 -566.187895 
L 698.908246 -561.897001 
L 698.975494 -557.606107 
L 699.005681 -553.315214 
L 698.995484 -549.02432 
L 698.946131 -544.733426 
L 698.863208 -540.442533 
L 698.755718 -536.151639 
L 698.634631 -531.860745 
L 698.511289 -527.569852 
L 698.396029 -523.278958 
L 698.297276 -518.988064 
L 698.221198 -514.69717 
L 698.171837 -510.406277 
L 698.151511 -506.115383 
L 698.161249 -501.824489 
L 698.201056 -497.533596 
L 698.269917 -493.242702 
L 698.365602 -488.951808 
L 698.484413 -484.660915 
L 698.621134 -480.370021 
L 698.769362 -476.079127 
L 698.92233 -471.788234 
L 699.074139 -467.49734 
L 699.221133 -463.206446 
L 699.363039 -458.915552 
L 699.503439 -454.624659 
L 699.649322 -450.333765 
L 699.809632 -446.042871 
L 699.993061 -441.751978 
L 700.205533 -437.461084 
L 700.448003 -433.17019 
L 700.715121 -428.879297 
L 700.995198 -424.588403 
L 701.271596 -420.297509 
L 701.525413 -416.006615 
L 701.739023 -411.715722 
L 701.899874 -407.424828 
L 702.00385 -403.133934 
L 702.057569 -398.843041 
L 702.079167 -394.552147 
L 702.097421 -390.261253 
L 702.149387 -385.97036 
L 702.277057 -381.679466 
L 702.523723 -377.388572 
L 702.930713 -373.097679 
L 703.534982 -368.806785 
L 704.367632 -364.515891 
L 705.453097 -360.224997 
L 706.80846 -355.934104 
L 708.442404 -351.64321 
L 710.353609 -347.352316 
L 712.528865 -343.061423 
L 714.941597 -338.770529 
L 717.551651 -334.479635 
L 720.30692 -330.188742 
L 723.146803 -325.897848 
L 726.00671 -321.606954 
L 728.822338 -317.316061 
L 731.532344 -313.025167 
L 734.078629 -308.734273 
L 736.404375 -304.443379 
L 738.451051 -300.152486 
L 740.156204 -295.861592 
L 741.453822 -291.570698 
L 742.278236 -287.279805 
L 742.57125 -282.988911 
L 742.290957 -278.698017 
L 741.419919 -274.407124 
L 739.970487 -270.11623 
L 737.98586 -265.825336 
L 735.536724 -261.534442 
L 732.714499 -257.243549 
L 729.622915 -252.952655 
L 726.369664 -248.661761 
L 723.059341 -244.370868 
L 719.788154 -240.079974 
L 716.640279 -235.78908 
L 713.68541 -231.498187 
L 710.977152 -227.207293 
L 708.552149 -222.916399 
L 706.430054 -218.625506 
L 704.614532 -214.334612 
L 703.095348 -210.043718 
L 701.851344 -205.752824 
L 700.85391 -201.461931 
L 700.070448 -197.171037 
L 699.467393 -192.880143 
L 699.012518 -188.58925 
L 698.676441 -184.298356 
L 698.433432 -180.007462 
L 698.261682 -175.716569 
L 698.143218 -171.425675 
z
" style="stroke: #3d3d3d; stroke-opacity: 0.5"/>
    </defs>
    <g clip-path="url(#pbb9f18f1ea)">
     <use xlink:href="#m42f7082cec" x="0" y="707.825675" style="fill: #e1812c; fill-opacity: 0.5; stroke: #3d3d3d; stroke-opacity: 0.5"/>
    </g>
   </g>
   <g id="PolyCollection_7">
    <defs>
     <path id="m4f1f887ff4" d="M 809.815808 -184.163315 
L 809.246692 -184.163315 
L 809.08918 -188.694729 
L 808.862743 -193.226142 
L 808.546443 -197.757556 
L 808.116829 -202.28897 
L 807.548988 -206.820384 
L 806.817973 -211.351798 
L 805.900443 -215.883211 
L 804.776264 -220.414625 
L 803.429793 -224.946039 
L 801.850593 -229.477453 
L 800.033484 -234.008867 
L 797.978067 -238.540281 
L 795.688179 -243.071694 
L 793.171908 -247.603108 
L 790.442905 -252.134522 
L 787.523408 -256.665936 
L 784.448887 -261.19735 
L 781.273415 -265.728764 
L 778.07417 -270.260177 
L 774.953068 -274.791591 
L 772.033733 -279.323005 
L 769.452912 -283.854419 
L 767.346871 -288.385833 
L 765.834849 -292.917246 
L 765.002833 -297.44866 
L 764.89125 -301.980074 
L 765.489424 -306.511488 
L 766.738101 -311.042902 
L 768.539277 -315.574316 
L 770.770835 -320.105729 
L 773.30248 -324.637143 
L 776.009568 -329.168557 
L 778.782462 -333.699971 
L 781.530647 -338.231385 
L 784.182381 -342.762799 
L 786.681742 -347.294212 
L 788.98516 -351.825626 
L 791.059118 -356.35704 
L 792.879773 -360.888454 
L 794.434308 -365.419868 
L 795.723087 -369.951281 
L 796.761391 -374.482695 
L 797.579674 -379.014109 
L 798.221684 -383.545523 
L 798.740436 -388.076937 
L 799.192541 -392.608351 
L 799.631795 -397.139764 
L 800.103152 -401.671178 
L 800.638076 -406.202592 
L 801.252041 -410.734006 
L 801.944485 -415.26542 
L 802.701029 -419.796834 
L 803.497364 -424.328247 
L 804.303924 -428.859661 
L 805.090436 -433.391075 
L 805.829598 -437.922489 
L 806.499489 -442.453903 
L 807.084646 -446.985316 
L 807.576064 -451.51673 
L 807.970529 -456.048144 
L 808.269687 -460.579558 
L 808.479184 -465.110972 
L 808.60799 -469.642386 
L 808.667914 -474.173799 
L 808.673144 -478.705213 
L 808.639657 -483.236627 
L 808.584354 -487.768041 
L 808.523871 -492.299455 
L 808.473178 -496.830869 
L 808.44414 -501.362282 
L 808.44433 -505.893696 
L 808.476322 -510.42511 
L 808.537651 -514.956524 
L 808.621444 -519.487938 
L 808.717632 -524.019351 
L 808.814499 -528.550765 
L 808.900311 -533.082179 
L 808.964809 -537.613593 
L 809.000384 -542.145007 
L 809.00289 -546.676421 
L 808.972053 -551.207834 
L 808.911512 -555.739248 
L 808.828478 -560.270662 
L 808.73301 -564.802076 
L 808.636936 -569.33349 
L 808.552457 -573.864904 
L 808.490623 -578.396317 
L 808.459871 -582.927731 
L 808.464915 -587.459145 
L 808.506193 -591.990559 
L 808.580001 -596.521973 
L 808.679292 -601.053386 
L 808.794941 -605.5848 
L 808.917223 -610.116214 
L 809.037185 -614.647628 
L 809.147684 -619.179042 
L 809.243939 -623.710456 
L 809.323608 -628.241869 
L 809.386463 -632.773283 
L 809.676037 -632.773283 
L 809.676037 -632.773283 
L 809.738892 -628.241869 
L 809.818561 -623.710456 
L 809.914816 -619.179042 
L 810.025315 -614.647628 
L 810.145277 -610.116214 
L 810.267559 -605.5848 
L 810.383208 -601.053386 
L 810.482499 -596.521973 
L 810.556307 -591.990559 
L 810.597585 -587.459145 
L 810.602629 -582.927731 
L 810.571877 -578.396317 
L 810.510043 -573.864904 
L 810.425564 -569.33349 
L 810.32949 -564.802076 
L 810.234022 -560.270662 
L 810.150988 -555.739248 
L 810.090447 -551.207834 
L 810.05961 -546.676421 
L 810.062116 -542.145007 
L 810.097691 -537.613593 
L 810.162189 -533.082179 
L 810.248001 -528.550765 
L 810.344868 -524.019351 
L 810.441056 -519.487938 
L 810.524849 -514.956524 
L 810.586178 -510.42511 
L 810.61817 -505.893696 
L 810.61836 -501.362282 
L 810.589322 -496.830869 
L 810.538629 -492.299455 
L 810.478146 -487.768041 
L 810.422843 -483.236627 
L 810.389356 -478.705213 
L 810.394586 -474.173799 
L 810.45451 -469.642386 
L 810.583316 -465.110972 
L 810.792813 -460.579558 
L 811.091971 -456.048144 
L 811.486436 -451.51673 
L 811.977854 -446.985316 
L 812.563011 -442.453903 
L 813.232902 -437.922489 
L 813.972064 -433.391075 
L 814.758576 -428.859661 
L 815.565136 -424.328247 
L 816.361471 -419.796834 
L 817.118015 -415.26542 
L 817.810459 -410.734006 
L 818.424424 -406.202592 
L 818.959348 -401.671178 
L 819.430705 -397.139764 
L 819.869959 -392.608351 
L 820.322064 -388.076937 
L 820.840816 -383.545523 
L 821.482826 -379.014109 
L 822.301109 -374.482695 
L 823.339413 -369.951281 
L 824.628192 -365.419868 
L 826.182727 -360.888454 
L 828.003382 -356.35704 
L 830.07734 -351.825626 
L 832.380758 -347.294212 
L 834.880119 -342.762799 
L 837.531853 -338.231385 
L 840.280038 -333.699971 
L 843.052932 -329.168557 
L 845.76002 -324.637143 
L 848.291665 -320.105729 
L 850.523223 -315.574316 
L 852.324399 -311.042902 
L 853.573076 -306.511488 
L 854.17125 -301.980074 
L 854.059667 -297.44866 
L 853.227651 -292.917246 
L 851.715629 -288.385833 
L 849.609588 -283.854419 
L 847.028767 -279.323005 
L 844.109432 -274.791591 
L 840.98833 -270.260177 
L 837.789085 -265.728764 
L 834.613613 -261.19735 
L 831.539092 -256.665936 
L 828.619595 -252.134522 
L 825.890592 -247.603108 
L 823.374321 -243.071694 
L 821.084433 -238.540281 
L 819.029016 -234.008867 
L 817.211907 -229.477453 
L 815.632707 -224.946039 
L 814.286236 -220.414625 
L 813.162057 -215.883211 
L 812.244527 -211.351798 
L 811.513512 -206.820384 
L 810.945671 -202.28897 
L 810.516057 -197.757556 
L 810.199757 -193.226142 
L 809.97332 -188.694729 
L 809.815808 -184.163315 
z
" style="stroke: #3d3d3d; stroke-opacity: 0.5"/>
    </defs>
    <g clip-path="url(#pbb9f18f1ea)">
     <use xlink:href="#m4f1f887ff4" x="0" y="707.825675" style="fill: #3a923a; fill-opacity: 0.5; stroke: #3d3d3d; stroke-opacity: 0.5"/>
    </g>
   </g>
   <g id="line2d_10">
    <path d="M 139.93125 429.299656 
L 139.93125 227.445958 
" clip-path="url(#pbb9f18f1ea)" style="fill: none; stroke: #3d3d3d; stroke-width: 1.5; stroke-linecap: round"/>
   </g>
   <g id="line2d_11">
    <path d="M 139.93125 381.970838 
L 139.93125 315.262911 
" clip-path="url(#pbb9f18f1ea)" style="fill: none; stroke: #3d3d3d; stroke-width: 4.5; stroke-linecap: round"/>
   </g>
   <g id="line2d_12">
    <path d="M 139.93125 348.065342 
" clip-path="url(#pbb9f18f1ea)" style="fill: none; stroke: #3d3d3d; stroke-width: 1.5; stroke-linecap: round"/>
    <defs>
     <path id="m88537b4925" d="M 1.875 0 
L -1.875 -0 
" style="stroke: #ffffff; stroke-width: 0.9"/>
    </defs>
    <g clip-path="url(#pbb9f18f1ea)">
     <use xlink:href="#m88537b4925" x="139.93125" y="348.065342" style="fill: #ffffff; stroke: #ffffff; stroke-width: 0.9"/>
    </g>
   </g>
   <g id="line2d_13">
    <path d="M 251.53125 482.636524 
L 251.53125 331.048291 
" clip-path="url(#pbb9f18f1ea)" style="fill: none; stroke: #3d3d3d; stroke-width: 1.5; stroke-linecap: round"/>
   </g>
   <g id="line2d_14">
    <path d="M 251.53125 447.803128 
L 251.53125 397.211557 
" clip-path="url(#pbb9f18f1ea)" style="fill: none; stroke: #3d3d3d; stroke-width: 4.5; stroke-linecap: round"/>
   </g>
   <g id="line2d_15">
    <path d="M 251.53125 431.474336 
" clip-path="url(#pbb9f18f1ea)" style="fill: none; stroke: #3d3d3d; stroke-width: 1.5; stroke-linecap: round"/>
    <g clip-path="url(#pbb9f18f1ea)">
     <use xlink:href="#m88537b4925" x="251.53125" y="431.474336" style="fill: #ffffff; stroke: #ffffff; stroke-width: 0.9"/>
    </g>
   </g>
   <g id="line2d_16">
    <path d="M 363.13125 346.178353 
L 363.13125 154.883586 
" clip-path="url(#pbb9f18f1ea)" style="fill: none; stroke: #3d3d3d; stroke-width: 1.5; stroke-linecap: round"/>
   </g>
   <g id="line2d_17">
    <path d="M 363.13125 287.917023 
L 363.13125 233.643819 
" clip-path="url(#pbb9f18f1ea)" style="fill: none; stroke: #3d3d3d; stroke-width: 4.5; stroke-linecap: round"/>
   </g>
   <g id="line2d_18">
    <path d="M 363.13125 260.419997 
" clip-path="url(#pbb9f18f1ea)" style="fill: none; stroke: #3d3d3d; stroke-width: 1.5; stroke-linecap: round"/>
    <g clip-path="url(#pbb9f18f1ea)">
     <use xlink:href="#m88537b4925" x="363.13125" y="260.419997" style="fill: #ffffff; stroke: #ffffff; stroke-width: 0.9"/>
    </g>
   </g>
   <g id="line2d_19">
    <path d="M 474.73125 418.114365 
L 474.73125 256.525615 
" clip-path="url(#pbb9f18f1ea)" style="fill: none; stroke: #3d3d3d; stroke-width: 1.5; stroke-linecap: round"/>
   </g>
   <g id="line2d_20">
    <path d="M 474.73125 376.445064 
L 474.73125 318.219852 
" clip-path="url(#pbb9f18f1ea)" style="fill: none; stroke: #3d3d3d; stroke-width: 4.5; stroke-linecap: round"/>
   </g>
   <g id="line2d_21">
    <path d="M 474.73125 355.319479 
" clip-path="url(#pbb9f18f1ea)" style="fill: none; stroke: #3d3d3d; stroke-width: 1.5; stroke-linecap: round"/>
    <g clip-path="url(#pbb9f18f1ea)">
     <use xlink:href="#m88537b4925" x="474.73125" y="355.319479" style="fill: #ffffff; stroke: #ffffff; stroke-width: 0.9"/>
    </g>
   </g>
   <g id="line2d_22">
    <path d="M 586.33125 442.789001 
L 586.33125 243.613983 
" clip-path="url(#pbb9f18f1ea)" style="fill: none; stroke: #3d3d3d; stroke-width: 1.5; stroke-linecap: round"/>
   </g>
   <g id="line2d_23">
    <path d="M 586.33125 395.207495 
L 586.33125 333.25514 
" clip-path="url(#pbb9f18f1ea)" style="fill: none; stroke: #3d3d3d; stroke-width: 4.5; stroke-linecap: round"/>
   </g>
   <g id="line2d_24">
    <path d="M 586.33125 370.785822 
" clip-path="url(#pbb9f18f1ea)" style="fill: none; stroke: #3d3d3d; stroke-width: 1.5; stroke-linecap: round"/>
    <g clip-path="url(#pbb9f18f1ea)">
     <use xlink:href="#m88537b4925" x="586.33125" y="370.785822" style="fill: #ffffff; stroke: #ffffff; stroke-width: 0.9"/>
    </g>
   </g>
   <g id="line2d_25">
    <path d="M 697.93125 492.432414 
L 697.93125 350.279716 
" clip-path="url(#pbb9f18f1ea)" style="fill: none; stroke: #3d3d3d; stroke-width: 1.5; stroke-linecap: round"/>
   </g>
   <g id="line2d_26">
    <path d="M 697.93125 439.872082 
L 697.93125 394.265077 
" clip-path="url(#pbb9f18f1ea)" style="fill: none; stroke: #3d3d3d; stroke-width: 4.5; stroke-linecap: round"/>
   </g>
   <g id="line2d_27">
    <path d="M 697.93125 420.796176 
" clip-path="url(#pbb9f18f1ea)" style="fill: none; stroke: #3d3d3d; stroke-width: 1.5; stroke-linecap: round"/>
    <g clip-path="url(#pbb9f18f1ea)">
     <use xlink:href="#m88537b4925" x="697.93125" y="420.796176" style="fill: #ffffff; stroke: #ffffff; stroke-width: 0.9"/>
    </g>
   </g>
   <g id="line2d_28">
    <path d="M 809.53125 475.76789 
L 809.53125 295.054365 
" clip-path="url(#pbb9f18f1ea)" style="fill: none; stroke: #3d3d3d; stroke-width: 1.5; stroke-linecap: round"/>
   </g>
   <g id="line2d_29">
    <path d="M 809.53125 421.573255 
L 809.53125 367.116754 
" clip-path="url(#pbb9f18f1ea)" style="fill: none; stroke: #3d3d3d; stroke-width: 4.5; stroke-linecap: round"/>
   </g>
   <g id="line2d_30">
    <path d="M 809.53125 404.785677 
" clip-path="url(#pbb9f18f1ea)" style="fill: none; stroke: #3d3d3d; stroke-width: 1.5; stroke-linecap: round"/>
    <g clip-path="url(#pbb9f18f1ea)">
     <use xlink:href="#m88537b4925" x="809.53125" y="404.785677" style="fill: #ffffff; stroke: #ffffff; stroke-width: 0.9"/>
    </g>
   </g>
   <g id="patch_3">
    <path d="M 84.13125 561.6 
L 865.33125 561.6 
" style="fill: none; stroke: #cccccc; stroke-width: 0.8; stroke-linejoin: miter; stroke-linecap: square"/>
   </g>
  </g>
 </g>
 <defs>
  <clipPath id="pbb9f18f1ea">
   <rect x="84.13125" y="7.2" width="781.2" height="554.4"/>
  </clipPath>
 </defs>
</svg>
