<?xml version="1.0" encoding="utf-8" standalone="no"?>
<!DOCTYPE svg PUBLIC "-//W3C//DTD SVG 1.1//EN"
  "http://www.w3.org/Graphics/SVG/1.1/DTD/svg11.dtd">
<svg xmlns:xlink="http://www.w3.org/1999/xlink" width="857.7625pt" height="707.825675pt" viewBox="0 0 857.7625 707.825675" xmlns="http://www.w3.org/2000/svg" version="1.1">
 <metadata>
  <rdf:RDF xmlns:dc="http://purl.org/dc/elements/1.1/" xmlns:cc="http://creativecommons.org/ns#" xmlns:rdf="http://www.w3.org/1999/02/22-rdf-syntax-ns#">
   <cc:Work>
    <dc:type rdf:resource="http://purl.org/dc/dcmitype/StillImage"/>
    <dc:date>2024-10-23T17:23:53.118434</dc:date>
    <dc:format>image/svg+xml</dc:format>
    <dc:creator>
     <cc:Agent>
      <dc:title>Matplotlib v3.8.0, https://matplotlib.org/</dc:title>
     </cc:Agent>
    </dc:creator>
   </cc:Work>
  </rdf:RDF>
 </metadata>
 <defs>
  <style type="text/css">*{stroke-linejoin: round; stroke-linecap: butt}</style>
 </defs>
 <g id="figure_1">
  <g id="patch_1">
   <path d="M 0 707.825675 
L 857.7625 707.825675 
L 857.7625 0 
L 0 0 
L 0 707.825675 
z
" style="fill: none"/>
  </g>
  <g id="axes_1">
   <g id="patch_2">
    <path d="M 69.3625 561.6 
L 850.5625 561.6 
L 850.5625 7.2 
L 69.3625 7.2 
L 69.3625 561.6 
z
" style="fill: none"/>
   </g>
   <g id="matplotlib.axis_1">
    <g id="xtick_1">
     <g id="text_1">
      <!-- MSA -->
      <g style="fill: #262626" transform="translate(104.788986 610.465141) rotate(-45) scale(0.2 -0.2)">
       <defs>
        <path id="DejaVuSans-4d" d="M 628 4666 
L 1569 4666 
L 2759 1491 
L 3956 4666 
L 4897 4666 
L 4897 0 
L 4281 0 
L 4281 4097 
L 3078 897 
L 2444 897 
L 1241 4097 
L 1241 0 
L 628 0 
L 628 4666 
z
" transform="scale(0.015625)"/>
        <path id="DejaVuSans-53" d="M 3425 4513 
L 3425 3897 
Q 3066 4069 2747 4153 
Q 2428 4238 2131 4238 
Q 1616 4238 1336 4038 
Q 1056 3838 1056 3469 
Q 1056 3159 1242 3001 
Q 1428 2844 1947 2747 
L 2328 2669 
Q 3034 2534 3370 2195 
Q 3706 1856 3706 1288 
Q 3706 609 3251 259 
Q 2797 -91 1919 -91 
Q 1588 -91 1214 -16 
Q 841 59 441 206 
L 441 856 
Q 825 641 1194 531 
Q 1563 422 1919 422 
Q 2459 422 2753 634 
Q 3047 847 3047 1241 
Q 3047 1584 2836 1778 
Q 2625 1972 2144 2069 
L 1759 2144 
Q 1053 2284 737 2584 
Q 422 2884 422 3419 
Q 422 4038 858 4394 
Q 1294 4750 2059 4750 
Q 2388 4750 2728 4690 
Q 3069 4631 3425 4513 
z
" transform="scale(0.015625)"/>
        <path id="DejaVuSans-41" d="M 2188 4044 
L 1331 1722 
L 3047 1722 
L 2188 4044 
z
M 1831 4666 
L 2547 4666 
L 4325 0 
L 3669 0 
L 3244 1197 
L 1141 1197 
L 716 0 
L 50 0 
L 1831 4666 
z
" transform="scale(0.015625)"/>
       </defs>
       <use xlink:href="#DejaVuSans-4d"/>
       <use xlink:href="#DejaVuSans-53" x="86.279297"/>
       <use xlink:href="#DejaVuSans-41" x="151.630859"/>
      </g>
     </g>
    </g>
    <g id="xtick_2">
     <g id="text_2">
      <!-- Template -->
      <g style="fill: #262626" transform="translate(182.97819 643.875936) rotate(-45) scale(0.2 -0.2)">
       <defs>
        <path id="DejaVuSans-54" d="M -19 4666 
L 3928 4666 
L 3928 4134 
L 2272 4134 
L 2272 0 
L 1638 0 
L 1638 4134 
L -19 4134 
L -19 4666 
z
" transform="scale(0.015625)"/>
        <path id="DejaVuSans-65" d="M 3597 1894 
L 3597 1613 
L 953 1613 
Q 991 1019 1311 708 
Q 1631 397 2203 397 
Q 2534 397 2845 478 
Q 3156 559 3463 722 
L 3463 178 
Q 3153 47 2828 -22 
Q 2503 -91 2169 -91 
Q 1331 -91 842 396 
Q 353 884 353 1716 
Q 353 2575 817 3079 
Q 1281 3584 2069 3584 
Q 2775 3584 3186 3129 
Q 3597 2675 3597 1894 
z
M 3022 2063 
Q 3016 2534 2758 2815 
Q 2500 3097 2075 3097 
Q 1594 3097 1305 2825 
Q 1016 2553 972 2059 
L 3022 2063 
z
" transform="scale(0.015625)"/>
        <path id="DejaVuSans-6d" d="M 3328 2828 
Q 3544 3216 3844 3400 
Q 4144 3584 4550 3584 
Q 5097 3584 5394 3201 
Q 5691 2819 5691 2113 
L 5691 0 
L 5113 0 
L 5113 2094 
Q 5113 2597 4934 2840 
Q 4756 3084 4391 3084 
Q 3944 3084 3684 2787 
Q 3425 2491 3425 1978 
L 3425 0 
L 2847 0 
L 2847 2094 
Q 2847 2600 2669 2842 
Q 2491 3084 2119 3084 
Q 1678 3084 1418 2786 
Q 1159 2488 1159 1978 
L 1159 0 
L 581 0 
L 581 3500 
L 1159 3500 
L 1159 2956 
Q 1356 3278 1631 3431 
Q 1906 3584 2284 3584 
Q 2666 3584 2933 3390 
Q 3200 3197 3328 2828 
z
" transform="scale(0.015625)"/>
        <path id="DejaVuSans-70" d="M 1159 525 
L 1159 -1331 
L 581 -1331 
L 581 3500 
L 1159 3500 
L 1159 2969 
Q 1341 3281 1617 3432 
Q 1894 3584 2278 3584 
Q 2916 3584 3314 3078 
Q 3713 2572 3713 1747 
Q 3713 922 3314 415 
Q 2916 -91 2278 -91 
Q 1894 -91 1617 61 
Q 1341 213 1159 525 
z
M 3116 1747 
Q 3116 2381 2855 2742 
Q 2594 3103 2138 3103 
Q 1681 3103 1420 2742 
Q 1159 2381 1159 1747 
Q 1159 1113 1420 752 
Q 1681 391 2138 391 
Q 2594 391 2855 752 
Q 3116 1113 3116 1747 
z
" transform="scale(0.015625)"/>
        <path id="DejaVuSans-6c" d="M 603 4863 
L 1178 4863 
L 1178 0 
L 603 0 
L 603 4863 
z
" transform="scale(0.015625)"/>
        <path id="DejaVuSans-61" d="M 2194 1759 
Q 1497 1759 1228 1600 
Q 959 1441 959 1056 
Q 959 750 1161 570 
Q 1363 391 1709 391 
Q 2188 391 2477 730 
Q 2766 1069 2766 1631 
L 2766 1759 
L 2194 1759 
z
M 3341 1997 
L 3341 0 
L 2766 0 
L 2766 531 
Q 2569 213 2275 61 
Q 1981 -91 1556 -91 
Q 1019 -91 701 211 
Q 384 513 384 1019 
Q 384 1609 779 1909 
Q 1175 2209 1959 2209 
L 2766 2209 
L 2766 2266 
Q 2766 2663 2505 2880 
Q 2244 3097 1772 3097 
Q 1472 3097 1187 3025 
Q 903 2953 641 2809 
L 641 3341 
Q 956 3463 1253 3523 
Q 1550 3584 1831 3584 
Q 2591 3584 2966 3190 
Q 3341 2797 3341 1997 
z
" transform="scale(0.015625)"/>
        <path id="DejaVuSans-74" d="M 1172 4494 
L 1172 3500 
L 2356 3500 
L 2356 3053 
L 1172 3053 
L 1172 1153 
Q 1172 725 1289 603 
Q 1406 481 1766 481 
L 2356 481 
L 2356 0 
L 1766 0 
Q 1100 0 847 248 
Q 594 497 594 1153 
L 594 3053 
L 172 3053 
L 172 3500 
L 594 3500 
L 594 4494 
L 1172 4494 
z
" transform="scale(0.015625)"/>
       </defs>
       <use xlink:href="#DejaVuSans-54"/>
       <use xlink:href="#DejaVuSans-65" x="44.083984"/>
       <use xlink:href="#DejaVuSans-6d" x="105.607422"/>
       <use xlink:href="#DejaVuSans-70" x="203.019531"/>
       <use xlink:href="#DejaVuSans-6c" x="266.496094"/>
       <use xlink:href="#DejaVuSans-61" x="294.279297"/>
       <use xlink:href="#DejaVuSans-74" x="355.558594"/>
       <use xlink:href="#DejaVuSans-65" x="394.767578"/>
      </g>
     </g>
    </g>
    <g id="xtick_3">
     <g id="text_3">
      <!-- Backbone -->
      <g style="fill: #262626" transform="translate(289.478183 648.975944) rotate(-45) scale(0.2 -0.2)">
       <defs>
        <path id="DejaVuSans-42" d="M 1259 2228 
L 1259 519 
L 2272 519 
Q 2781 519 3026 730 
Q 3272 941 3272 1375 
Q 3272 1813 3026 2020 
Q 2781 2228 2272 2228 
L 1259 2228 
z
M 1259 4147 
L 1259 2741 
L 2194 2741 
Q 2656 2741 2882 2914 
Q 3109 3088 3109 3444 
Q 3109 3797 2882 3972 
Q 2656 4147 2194 4147 
L 1259 4147 
z
M 628 4666 
L 2241 4666 
Q 2963 4666 3353 4366 
Q 3744 4066 3744 3513 
Q 3744 3084 3544 2831 
Q 3344 2578 2956 2516 
Q 3422 2416 3680 2098 
Q 3938 1781 3938 1306 
Q 3938 681 3513 340 
Q 3088 0 2303 0 
L 628 0 
L 628 4666 
z
" transform="scale(0.015625)"/>
        <path id="DejaVuSans-63" d="M 3122 3366 
L 3122 2828 
Q 2878 2963 2633 3030 
Q 2388 3097 2138 3097 
Q 1578 3097 1268 2742 
Q 959 2388 959 1747 
Q 959 1106 1268 751 
Q 1578 397 2138 397 
Q 2388 397 2633 464 
Q 2878 531 3122 666 
L 3122 134 
Q 2881 22 2623 -34 
Q 2366 -91 2075 -91 
Q 1284 -91 818 406 
Q 353 903 353 1747 
Q 353 2603 823 3093 
Q 1294 3584 2113 3584 
Q 2378 3584 2631 3529 
Q 2884 3475 3122 3366 
z
" transform="scale(0.015625)"/>
        <path id="DejaVuSans-6b" d="M 581 4863 
L 1159 4863 
L 1159 1991 
L 2875 3500 
L 3609 3500 
L 1753 1863 
L 3688 0 
L 2938 0 
L 1159 1709 
L 1159 0 
L 581 0 
L 581 4863 
z
" transform="scale(0.015625)"/>
        <path id="DejaVuSans-62" d="M 3116 1747 
Q 3116 2381 2855 2742 
Q 2594 3103 2138 3103 
Q 1681 3103 1420 2742 
Q 1159 2381 1159 1747 
Q 1159 1113 1420 752 
Q 1681 391 2138 391 
Q 2594 391 2855 752 
Q 3116 1113 3116 1747 
z
M 1159 2969 
Q 1341 3281 1617 3432 
Q 1894 3584 2278 3584 
Q 2916 3584 3314 3078 
Q 3713 2572 3713 1747 
Q 3713 922 3314 415 
Q 2916 -91 2278 -91 
Q 1894 -91 1617 61 
Q 1341 213 1159 525 
L 1159 0 
L 581 0 
L 581 4863 
L 1159 4863 
L 1159 2969 
z
" transform="scale(0.015625)"/>
        <path id="DejaVuSans-6f" d="M 1959 3097 
Q 1497 3097 1228 2736 
Q 959 2375 959 1747 
Q 959 1119 1226 758 
Q 1494 397 1959 397 
Q 2419 397 2687 759 
Q 2956 1122 2956 1747 
Q 2956 2369 2687 2733 
Q 2419 3097 1959 3097 
z
M 1959 3584 
Q 2709 3584 3137 3096 
Q 3566 2609 3566 1747 
Q 3566 888 3137 398 
Q 2709 -91 1959 -91 
Q 1206 -91 779 398 
Q 353 888 353 1747 
Q 353 2609 779 3096 
Q 1206 3584 1959 3584 
z
" transform="scale(0.015625)"/>
        <path id="DejaVuSans-6e" d="M 3513 2113 
L 3513 0 
L 2938 0 
L 2938 2094 
Q 2938 2591 2744 2837 
Q 2550 3084 2163 3084 
Q 1697 3084 1428 2787 
Q 1159 2491 1159 1978 
L 1159 0 
L 581 0 
L 581 3500 
L 1159 3500 
L 1159 2956 
Q 1366 3272 1645 3428 
Q 1925 3584 2291 3584 
Q 2894 3584 3203 3211 
Q 3513 2838 3513 2113 
z
" transform="scale(0.015625)"/>
       </defs>
       <use xlink:href="#DejaVuSans-42"/>
       <use xlink:href="#DejaVuSans-61" x="68.603516"/>
       <use xlink:href="#DejaVuSans-63" x="129.882812"/>
       <use xlink:href="#DejaVuSans-6b" x="184.863281"/>
       <use xlink:href="#DejaVuSans-62" x="242.773438"/>
       <use xlink:href="#DejaVuSans-6f" x="306.25"/>
       <use xlink:href="#DejaVuSans-6e" x="367.431641"/>
       <use xlink:href="#DejaVuSans-65" x="430.810547"/>
      </g>
     </g>
    </g>
    <g id="xtick_4">
     <g id="text_4">
      <!-- Heuristic C-$\beta$ -->
      <g style="fill: #262626" transform="translate(379.63517 670.706219) rotate(-45) scale(0.2 -0.2)">
       <defs>
        <path id="DejaVuSans-48" d="M 628 4666 
L 1259 4666 
L 1259 2753 
L 3553 2753 
L 3553 4666 
L 4184 4666 
L 4184 0 
L 3553 0 
L 3553 2222 
L 1259 2222 
L 1259 0 
L 628 0 
L 628 4666 
z
" transform="scale(0.015625)"/>
        <path id="DejaVuSans-75" d="M 544 1381 
L 544 3500 
L 1119 3500 
L 1119 1403 
Q 1119 906 1312 657 
Q 1506 409 1894 409 
Q 2359 409 2629 706 
Q 2900 1003 2900 1516 
L 2900 3500 
L 3475 3500 
L 3475 0 
L 2900 0 
L 2900 538 
Q 2691 219 2414 64 
Q 2138 -91 1772 -91 
Q 1169 -91 856 284 
Q 544 659 544 1381 
z
M 1991 3584 
L 1991 3584 
z
" transform="scale(0.015625)"/>
        <path id="DejaVuSans-72" d="M 2631 2963 
Q 2534 3019 2420 3045 
Q 2306 3072 2169 3072 
Q 1681 3072 1420 2755 
Q 1159 2438 1159 1844 
L 1159 0 
L 581 0 
L 581 3500 
L 1159 3500 
L 1159 2956 
Q 1341 3275 1631 3429 
Q 1922 3584 2338 3584 
Q 2397 3584 2469 3576 
Q 2541 3569 2628 3553 
L 2631 2963 
z
" transform="scale(0.015625)"/>
        <path id="DejaVuSans-69" d="M 603 3500 
L 1178 3500 
L 1178 0 
L 603 0 
L 603 3500 
z
M 603 4863 
L 1178 4863 
L 1178 4134 
L 603 4134 
L 603 4863 
z
" transform="scale(0.015625)"/>
        <path id="DejaVuSans-73" d="M 2834 3397 
L 2834 2853 
Q 2591 2978 2328 3040 
Q 2066 3103 1784 3103 
Q 1356 3103 1142 2972 
Q 928 2841 928 2578 
Q 928 2378 1081 2264 
Q 1234 2150 1697 2047 
L 1894 2003 
Q 2506 1872 2764 1633 
Q 3022 1394 3022 966 
Q 3022 478 2636 193 
Q 2250 -91 1575 -91 
Q 1294 -91 989 -36 
Q 684 19 347 128 
L 347 722 
Q 666 556 975 473 
Q 1284 391 1588 391 
Q 1994 391 2212 530 
Q 2431 669 2431 922 
Q 2431 1156 2273 1281 
Q 2116 1406 1581 1522 
L 1381 1569 
Q 847 1681 609 1914 
Q 372 2147 372 2553 
Q 372 3047 722 3315 
Q 1072 3584 1716 3584 
Q 2034 3584 2315 3537 
Q 2597 3491 2834 3397 
z
" transform="scale(0.015625)"/>
        <path id="DejaVuSans-20" transform="scale(0.015625)"/>
        <path id="DejaVuSans-43" d="M 4122 4306 
L 4122 3641 
Q 3803 3938 3442 4084 
Q 3081 4231 2675 4231 
Q 1875 4231 1450 3742 
Q 1025 3253 1025 2328 
Q 1025 1406 1450 917 
Q 1875 428 2675 428 
Q 3081 428 3442 575 
Q 3803 722 4122 1019 
L 4122 359 
Q 3791 134 3420 21 
Q 3050 -91 2638 -91 
Q 1578 -91 968 557 
Q 359 1206 359 2328 
Q 359 3453 968 4101 
Q 1578 4750 2638 4750 
Q 3056 4750 3426 4639 
Q 3797 4528 4122 4306 
z
" transform="scale(0.015625)"/>
        <path id="DejaVuSans-2d" d="M 313 2009 
L 1997 2009 
L 1997 1497 
L 313 1497 
L 313 2009 
z
" transform="scale(0.015625)"/>
        <path id="DejaVuSans-Oblique-3b2" d="M 872 216 
L 572 -1331 
L -6 -1331 
L 928 3478 
Q 1206 4903 2538 4903 
Q 3888 4903 3659 3700 
Q 3503 2844 2894 2531 
Q 3713 2250 3553 1416 
Q 3272 -69 1759 -66 
Q 1097 -63 872 216 
z
M 1019 966 
Q 1259 422 1875 425 
Q 2775 425 2966 1406 
Q 3138 2288 1675 2219 
L 1778 2750 
Q 2909 2731 3106 3750 
Q 3241 4438 2509 4434 
Q 1691 4434 1503 3459 
L 1019 966 
z
" transform="scale(0.015625)"/>
       </defs>
       <use xlink:href="#DejaVuSans-48" transform="translate(0 0.390625)"/>
       <use xlink:href="#DejaVuSans-65" transform="translate(75.195312 0.390625)"/>
       <use xlink:href="#DejaVuSans-75" transform="translate(136.71875 0.390625)"/>
       <use xlink:href="#DejaVuSans-72" transform="translate(200.097656 0.390625)"/>
       <use xlink:href="#DejaVuSans-69" transform="translate(241.210938 0.390625)"/>
       <use xlink:href="#DejaVuSans-73" transform="translate(268.994141 0.390625)"/>
       <use xlink:href="#DejaVuSans-74" transform="translate(321.09375 0.390625)"/>
       <use xlink:href="#DejaVuSans-69" transform="translate(360.302734 0.390625)"/>
       <use xlink:href="#DejaVuSans-63" transform="translate(388.085938 0.390625)"/>
       <use xlink:href="#DejaVuSans-20" transform="translate(443.066406 0.390625)"/>
       <use xlink:href="#DejaVuSans-43" transform="translate(474.853516 0.390625)"/>
       <use xlink:href="#DejaVuSans-2d" transform="translate(544.677734 0.390625)"/>
       <use xlink:href="#DejaVuSans-Oblique-3b2" transform="translate(580.761719 0.390625)"/>
      </g>
     </g>
    </g>
    <g id="xtick_5">
     <g id="text_5">
      <!-- Template C-$\beta$ -->
      <g style="fill: #262626" transform="translate(486.992529 674.94886) rotate(-45) scale(0.2 -0.2)">
       <use xlink:href="#DejaVuSans-54" transform="translate(0 0.390625)"/>
       <use xlink:href="#DejaVuSans-65" transform="translate(61.083984 0.390625)"/>
       <use xlink:href="#DejaVuSans-6d" transform="translate(122.607422 0.390625)"/>
       <use xlink:href="#DejaVuSans-70" transform="translate(220.019531 0.390625)"/>
       <use xlink:href="#DejaVuSans-6c" transform="translate(283.496094 0.390625)"/>
       <use xlink:href="#DejaVuSans-61" transform="translate(311.279297 0.390625)"/>
       <use xlink:href="#DejaVuSans-74" transform="translate(372.558594 0.390625)"/>
       <use xlink:href="#DejaVuSans-65" transform="translate(411.767578 0.390625)"/>
       <use xlink:href="#DejaVuSans-20" transform="translate(473.291016 0.390625)"/>
       <use xlink:href="#DejaVuSans-43" transform="translate(505.078125 0.390625)"/>
       <use xlink:href="#DejaVuSans-2d" transform="translate(574.902344 0.390625)"/>
       <use xlink:href="#DejaVuSans-Oblique-3b2" transform="translate(610.986328 0.390625)"/>
      </g>
     </g>
    </g>
    <g id="xtick_6">
     <g id="text_6">
      <!-- AttnPacker -->
      <g style="fill: #262626" transform="translate(617.905383 655.348744) rotate(-45) scale(0.2 -0.2)">
       <defs>
        <path id="DejaVuSans-50" d="M 1259 4147 
L 1259 2394 
L 2053 2394 
Q 2494 2394 2734 2622 
Q 2975 2850 2975 3272 
Q 2975 3691 2734 3919 
Q 2494 4147 2053 4147 
L 1259 4147 
z
M 628 4666 
L 2053 4666 
Q 2838 4666 3239 4311 
Q 3641 3956 3641 3272 
Q 3641 2581 3239 2228 
Q 2838 1875 2053 1875 
L 1259 1875 
L 1259 0 
L 628 0 
L 628 4666 
z
" transform="scale(0.015625)"/>
       </defs>
       <use xlink:href="#DejaVuSans-41"/>
       <use xlink:href="#DejaVuSans-74" x="66.658203"/>
       <use xlink:href="#DejaVuSans-74" x="105.867188"/>
       <use xlink:href="#DejaVuSans-6e" x="145.076172"/>
       <use xlink:href="#DejaVuSans-50" x="208.455078"/>
       <use xlink:href="#DejaVuSans-61" x="264.257812"/>
       <use xlink:href="#DejaVuSans-63" x="325.537109"/>
       <use xlink:href="#DejaVuSans-6b" x="380.517578"/>
       <use xlink:href="#DejaVuSans-65" x="434.802734"/>
       <use xlink:href="#DejaVuSans-72" x="496.326172"/>
      </g>
     </g>
    </g>
    <g id="xtick_7">
     <g id="text_7">
      <!-- AttnPacker (AF2) -->
      <g style="fill: #262626" transform="translate(687.169574 697.684553) rotate(-45) scale(0.2 -0.2)">
       <defs>
        <path id="DejaVuSans-28" d="M 1984 4856 
Q 1566 4138 1362 3434 
Q 1159 2731 1159 2009 
Q 1159 1288 1364 580 
Q 1569 -128 1984 -844 
L 1484 -844 
Q 1016 -109 783 600 
Q 550 1309 550 2009 
Q 550 2706 781 3412 
Q 1013 4119 1484 4856 
L 1984 4856 
z
" transform="scale(0.015625)"/>
        <path id="DejaVuSans-46" d="M 628 4666 
L 3309 4666 
L 3309 4134 
L 1259 4134 
L 1259 2759 
L 3109 2759 
L 3109 2228 
L 1259 2228 
L 1259 0 
L 628 0 
L 628 4666 
z
" transform="scale(0.015625)"/>
        <path id="DejaVuSans-32" d="M 1228 531 
L 3431 531 
L 3431 0 
L 469 0 
L 469 531 
Q 828 903 1448 1529 
Q 2069 2156 2228 2338 
Q 2531 2678 2651 2914 
Q 2772 3150 2772 3378 
Q 2772 3750 2511 3984 
Q 2250 4219 1831 4219 
Q 1534 4219 1204 4116 
Q 875 4013 500 3803 
L 500 4441 
Q 881 4594 1212 4672 
Q 1544 4750 1819 4750 
Q 2544 4750 2975 4387 
Q 3406 4025 3406 3419 
Q 3406 3131 3298 2873 
Q 3191 2616 2906 2266 
Q 2828 2175 2409 1742 
Q 1991 1309 1228 531 
z
" transform="scale(0.015625)"/>
        <path id="DejaVuSans-29" d="M 513 4856 
L 1013 4856 
Q 1481 4119 1714 3412 
Q 1947 2706 1947 2009 
Q 1947 1309 1714 600 
Q 1481 -109 1013 -844 
L 513 -844 
Q 928 -128 1133 580 
Q 1338 1288 1338 2009 
Q 1338 2731 1133 3434 
Q 928 4138 513 4856 
z
" transform="scale(0.015625)"/>
       </defs>
       <use xlink:href="#DejaVuSans-41"/>
       <use xlink:href="#DejaVuSans-74" x="66.658203"/>
       <use xlink:href="#DejaVuSans-74" x="105.867188"/>
       <use xlink:href="#DejaVuSans-6e" x="145.076172"/>
       <use xlink:href="#DejaVuSans-50" x="208.455078"/>
       <use xlink:href="#DejaVuSans-61" x="264.257812"/>
       <use xlink:href="#DejaVuSans-63" x="325.537109"/>
       <use xlink:href="#DejaVuSans-6b" x="380.517578"/>
       <use xlink:href="#DejaVuSans-65" x="434.802734"/>
       <use xlink:href="#DejaVuSans-72" x="496.326172"/>
       <use xlink:href="#DejaVuSans-20" x="537.439453"/>
       <use xlink:href="#DejaVuSans-28" x="569.226562"/>
       <use xlink:href="#DejaVuSans-41" x="608.240234"/>
       <use xlink:href="#DejaVuSans-46" x="676.648438"/>
       <use xlink:href="#DejaVuSans-32" x="734.167969"/>
       <use xlink:href="#DejaVuSans-29" x="797.791016"/>
      </g>
     </g>
    </g>
   </g>
   <g id="matplotlib.axis_2">
    <g id="ytick_1">
     <g id="line2d_1">
      <path d="M 69.3625 522.75975 
L 850.5625 522.75975 
" clip-path="url(#p7417410827)" style="fill: none; stroke: #cccccc; stroke-width: 0.8; stroke-linecap: round"/>
     </g>
     <g id="text_8">
      <!-- 0.0 -->
      <g style="fill: #262626" transform="translate(30.55625 530.358187) scale(0.2 -0.2)">
       <defs>
        <path id="DejaVuSans-30" d="M 2034 4250 
Q 1547 4250 1301 3770 
Q 1056 3291 1056 2328 
Q 1056 1369 1301 889 
Q 1547 409 2034 409 
Q 2525 409 2770 889 
Q 3016 1369 3016 2328 
Q 3016 3291 2770 3770 
Q 2525 4250 2034 4250 
z
M 2034 4750 
Q 2819 4750 3233 4129 
Q 3647 3509 3647 2328 
Q 3647 1150 3233 529 
Q 2819 -91 2034 -91 
Q 1250 -91 836 529 
Q 422 1150 422 2328 
Q 422 3509 836 4129 
Q 1250 4750 2034 4750 
z
" transform="scale(0.015625)"/>
        <path id="DejaVuSans-2e" d="M 684 794 
L 1344 794 
L 1344 0 
L 684 0 
L 684 794 
z
" transform="scale(0.015625)"/>
       </defs>
       <use xlink:href="#DejaVuSans-30"/>
       <use xlink:href="#DejaVuSans-2e" x="63.623047"/>
       <use xlink:href="#DejaVuSans-30" x="95.410156"/>
      </g>
     </g>
    </g>
    <g id="ytick_2">
     <g id="line2d_2">
      <path d="M 69.3625 436.529908 
L 850.5625 436.529908 
" clip-path="url(#p7417410827)" style="fill: none; stroke: #cccccc; stroke-width: 0.8; stroke-linecap: round"/>
     </g>
     <g id="text_9">
      <!-- 0.2 -->
      <g style="fill: #262626" transform="translate(30.55625 444.128345) scale(0.2 -0.2)">
       <use xlink:href="#DejaVuSans-30"/>
       <use xlink:href="#DejaVuSans-2e" x="63.623047"/>
       <use xlink:href="#DejaVuSans-32" x="95.410156"/>
      </g>
     </g>
    </g>
    <g id="ytick_3">
     <g id="line2d_3">
      <path d="M 69.3625 350.300065 
L 850.5625 350.300065 
" clip-path="url(#p7417410827)" style="fill: none; stroke: #cccccc; stroke-width: 0.8; stroke-linecap: round"/>
     </g>
     <g id="text_10">
      <!-- 0.4 -->
      <g style="fill: #262626" transform="translate(30.55625 357.898503) scale(0.2 -0.2)">
       <defs>
        <path id="DejaVuSans-34" d="M 2419 4116 
L 825 1625 
L 2419 1625 
L 2419 4116 
z
M 2253 4666 
L 3047 4666 
L 3047 1625 
L 3713 1625 
L 3713 1100 
L 3047 1100 
L 3047 0 
L 2419 0 
L 2419 1100 
L 313 1100 
L 313 1709 
L 2253 4666 
z
" transform="scale(0.015625)"/>
       </defs>
       <use xlink:href="#DejaVuSans-30"/>
       <use xlink:href="#DejaVuSans-2e" x="63.623047"/>
       <use xlink:href="#DejaVuSans-34" x="95.410156"/>
      </g>
     </g>
    </g>
    <g id="ytick_4">
     <g id="line2d_4">
      <path d="M 69.3625 264.070223 
L 850.5625 264.070223 
" clip-path="url(#p7417410827)" style="fill: none; stroke: #cccccc; stroke-width: 0.8; stroke-linecap: round"/>
     </g>
     <g id="text_11">
      <!-- 0.6 -->
      <g style="fill: #262626" transform="translate(30.55625 271.66866) scale(0.2 -0.2)">
       <defs>
        <path id="DejaVuSans-36" d="M 2113 2584 
Q 1688 2584 1439 2293 
Q 1191 2003 1191 1497 
Q 1191 994 1439 701 
Q 1688 409 2113 409 
Q 2538 409 2786 701 
Q 3034 994 3034 1497 
Q 3034 2003 2786 2293 
Q 2538 2584 2113 2584 
z
M 3366 4563 
L 3366 3988 
Q 3128 4100 2886 4159 
Q 2644 4219 2406 4219 
Q 1781 4219 1451 3797 
Q 1122 3375 1075 2522 
Q 1259 2794 1537 2939 
Q 1816 3084 2150 3084 
Q 2853 3084 3261 2657 
Q 3669 2231 3669 1497 
Q 3669 778 3244 343 
Q 2819 -91 2113 -91 
Q 1303 -91 875 529 
Q 447 1150 447 2328 
Q 447 3434 972 4092 
Q 1497 4750 2381 4750 
Q 2619 4750 2861 4703 
Q 3103 4656 3366 4563 
z
" transform="scale(0.015625)"/>
       </defs>
       <use xlink:href="#DejaVuSans-30"/>
       <use xlink:href="#DejaVuSans-2e" x="63.623047"/>
       <use xlink:href="#DejaVuSans-36" x="95.410156"/>
      </g>
     </g>
    </g>
    <g id="ytick_5">
     <g id="line2d_5">
      <path d="M 69.3625 177.840381 
L 850.5625 177.840381 
" clip-path="url(#p7417410827)" style="fill: none; stroke: #cccccc; stroke-width: 0.8; stroke-linecap: round"/>
     </g>
     <g id="text_12">
      <!-- 0.8 -->
      <g style="fill: #262626" transform="translate(30.55625 185.438818) scale(0.2 -0.2)">
       <defs>
        <path id="DejaVuSans-38" d="M 2034 2216 
Q 1584 2216 1326 1975 
Q 1069 1734 1069 1313 
Q 1069 891 1326 650 
Q 1584 409 2034 409 
Q 2484 409 2743 651 
Q 3003 894 3003 1313 
Q 3003 1734 2745 1975 
Q 2488 2216 2034 2216 
z
M 1403 2484 
Q 997 2584 770 2862 
Q 544 3141 544 3541 
Q 544 4100 942 4425 
Q 1341 4750 2034 4750 
Q 2731 4750 3128 4425 
Q 3525 4100 3525 3541 
Q 3525 3141 3298 2862 
Q 3072 2584 2669 2484 
Q 3125 2378 3379 2068 
Q 3634 1759 3634 1313 
Q 3634 634 3220 271 
Q 2806 -91 2034 -91 
Q 1263 -91 848 271 
Q 434 634 434 1313 
Q 434 1759 690 2068 
Q 947 2378 1403 2484 
z
M 1172 3481 
Q 1172 3119 1398 2916 
Q 1625 2713 2034 2713 
Q 2441 2713 2670 2916 
Q 2900 3119 2900 3481 
Q 2900 3844 2670 4047 
Q 2441 4250 2034 4250 
Q 1625 4250 1398 4047 
Q 1172 3844 1172 3481 
z
" transform="scale(0.015625)"/>
       </defs>
       <use xlink:href="#DejaVuSans-30"/>
       <use xlink:href="#DejaVuSans-2e" x="63.623047"/>
       <use xlink:href="#DejaVuSans-38" x="95.410156"/>
      </g>
     </g>
    </g>
    <g id="ytick_6">
     <g id="line2d_6">
      <path d="M 69.3625 91.610538 
L 850.5625 91.610538 
" clip-path="url(#p7417410827)" style="fill: none; stroke: #cccccc; stroke-width: 0.8; stroke-linecap: round"/>
     </g>
     <g id="text_13">
      <!-- 1.0 -->
      <g style="fill: #262626" transform="translate(30.55625 99.208976) scale(0.2 -0.2)">
       <defs>
        <path id="DejaVuSans-31" d="M 794 531 
L 1825 531 
L 1825 4091 
L 703 3866 
L 703 4441 
L 1819 4666 
L 2450 4666 
L 2450 531 
L 3481 531 
L 3481 0 
L 794 0 
L 794 531 
z
" transform="scale(0.015625)"/>
       </defs>
       <use xlink:href="#DejaVuSans-31"/>
       <use xlink:href="#DejaVuSans-2e" x="63.623047"/>
       <use xlink:href="#DejaVuSans-30" x="95.410156"/>
      </g>
     </g>
    </g>
    <g id="text_14">
     <!-- TM-score -->
     <g style="fill: #262626" transform="translate(22.396875 329.609375) rotate(-90) scale(0.2 -0.2)">
      <use xlink:href="#DejaVuSans-54"/>
      <use xlink:href="#DejaVuSans-4d" x="61.083984"/>
      <use xlink:href="#DejaVuSans-2d" x="147.363281"/>
      <use xlink:href="#DejaVuSans-73" x="183.447266"/>
      <use xlink:href="#DejaVuSans-63" x="235.546875"/>
      <use xlink:href="#DejaVuSans-6f" x="290.527344"/>
      <use xlink:href="#DejaVuSans-72" x="351.708984"/>
      <use xlink:href="#DejaVuSans-65" x="390.572266"/>
     </g>
    </g>
   </g>
   <g id="PolyCollection_1">
    <defs>
     <path id="m573f7894f4" d="M 125.420709 -237.299804 
L 124.904291 -237.299804 
L 124.82438 -241.725318 
L 124.727074 -246.150832 
L 124.61103 -250.576345 
L 124.47556 -255.001859 
L 124.320836 -259.427373 
L 124.148064 -263.852887 
L 123.959582 -268.278401 
L 123.758878 -272.703915 
L 123.550474 -277.129429 
L 123.339686 -281.554942 
L 123.132249 -285.980456 
L 122.933822 -290.40597 
L 122.749422 -294.831484 
L 122.582812 -299.256998 
L 122.435942 -303.682512 
L 122.308467 -308.108025 
L 122.19745 -312.533539 
L 122.097262 -316.959053 
L 121.999749 -321.384567 
L 121.894647 -325.810081 
L 121.770238 -330.235595 
L 121.614211 -334.661109 
L 121.414629 -339.086622 
L 121.160948 -343.512136 
L 120.844966 -347.93765 
L 120.46162 -352.363164 
L 120.00955 -356.788678 
L 119.491362 -361.214192 
L 118.913556 -365.639706 
L 118.286137 -370.065219 
L 117.621917 -374.490733 
L 116.935597 -378.916247 
L 116.24271 -383.341761 
L 115.558523 -387.767275 
L 114.897019 -392.192789 
L 114.270045 -396.618302 
L 113.686702 -401.043816 
L 113.153032 -405.46933 
L 112.671994 -409.894844 
L 112.243715 -414.320358 
L 111.865955 -418.745872 
L 111.534696 -423.171386 
L 111.244778 -427.596899 
L 110.990469 -432.022413 
L 110.765918 -436.447927 
L 110.565418 -440.873441 
L 110.383457 -445.298955 
L 110.214574 -449.724469 
L 110.05304 -454.149982 
L 109.892422 -458.575496 
L 109.7251 -463.00101 
L 109.541805 -467.426524 
L 109.331247 -471.852038 
L 109.079894 -476.277552 
L 108.771951 -480.703066 
L 108.389574 -485.128579 
L 107.913348 -489.554093 
L 107.323033 -493.979607 
L 106.598566 -498.405121 
L 105.721319 -502.830635 
L 104.675543 -507.256149 
L 103.449952 -511.681662 
L 102.039352 -516.107176 
L 100.4462 -520.53269 
L 98.681967 -524.958204 
L 96.768167 -529.383718 
L 94.736919 -533.809232 
L 92.63092 -538.234746 
L 90.502747 -542.660259 
L 88.413435 -547.085773 
L 86.430349 -551.511287 
L 84.624406 -555.936801 
L 83.066782 -560.362315 
L 81.825271 -564.787829 
L 80.960537 -569.213343 
L 80.5225 -573.638856 
L 80.547137 -578.06437 
L 81.053954 -582.489884 
L 82.044354 -586.915398 
L 83.50107 -591.340912 
L 85.388745 -595.766426 
L 87.655671 -600.191939 
L 90.236554 -604.617453 
L 93.056134 -609.042967 
L 96.033357 -613.468481 
L 99.08578 -617.893995 
L 102.133871 -622.319509 
L 105.104855 -626.745023 
L 107.93585 -631.170536 
L 110.576102 -635.59605 
L 112.988203 -640.021564 
L 115.148323 -644.447078 
L 117.045538 -648.872592 
L 118.680421 -653.298106 
L 120.063119 -657.723619 
L 121.211142 -662.149133 
L 122.147077 -666.574647 
L 122.896427 -671.000161 
L 123.485716 -675.425675 
L 126.839284 -675.425675 
L 126.839284 -675.425675 
L 127.428573 -671.000161 
L 128.177923 -666.574647 
L 129.113858 -662.149133 
L 130.261881 -657.723619 
L 131.644579 -653.298106 
L 133.279462 -648.872592 
L 135.176677 -644.447078 
L 137.336797 -640.021564 
L 139.748898 -635.59605 
L 142.38915 -631.170536 
L 145.220145 -626.745023 
L 148.191129 -622.319509 
L 151.23922 -617.893995 
L 154.291643 -613.468481 
L 157.268866 -609.042967 
L 160.088446 -604.617453 
L 162.669329 -600.191939 
L 164.936255 -595.766426 
L 166.82393 -591.340912 
L 168.280646 -586.915398 
L 169.271046 -582.489884 
L 169.777863 -578.06437 
L 169.8025 -573.638856 
L 169.364463 -569.213343 
L 168.499729 -564.787829 
L 167.258218 -560.362315 
L 165.700594 -555.936801 
L 163.894651 -551.511287 
L 161.911565 -547.085773 
L 159.822253 -542.660259 
L 157.69408 -538.234746 
L 155.588081 -533.809232 
L 153.556833 -529.383718 
L 151.643033 -524.958204 
L 149.8788 -520.53269 
L 148.285648 -516.107176 
L 146.875048 -511.681662 
L 145.649457 -507.256149 
L 144.603681 -502.830635 
L 143.726434 -498.405121 
L 143.001967 -493.979607 
L 142.411652 -489.554093 
L 141.935426 -485.128579 
L 141.553049 -480.703066 
L 141.245106 -476.277552 
L 140.993753 -471.852038 
L 140.783195 -467.426524 
L 140.5999 -463.00101 
L 140.432578 -458.575496 
L 140.27196 -454.149982 
L 140.110426 -449.724469 
L 139.941543 -445.298955 
L 139.759582 -440.873441 
L 139.559082 -436.447927 
L 139.334531 -432.022413 
L 139.080222 -427.596899 
L 138.790304 -423.171386 
L 138.459045 -418.745872 
L 138.081285 -414.320358 
L 137.653006 -409.894844 
L 137.171968 -405.46933 
L 136.638298 -401.043816 
L 136.054955 -396.618302 
L 135.427981 -392.192789 
L 134.766477 -387.767275 
L 134.08229 -383.341761 
L 133.389403 -378.916247 
L 132.703083 -374.490733 
L 132.038863 -370.065219 
L 131.411444 -365.639706 
L 130.833638 -361.214192 
L 130.31545 -356.788678 
L 129.86338 -352.363164 
L 129.480034 -347.93765 
L 129.164052 -343.512136 
L 128.910371 -339.086622 
L 128.710789 -334.661109 
L 128.554762 -330.235595 
L 128.430353 -325.810081 
L 128.325251 -321.384567 
L 128.227738 -316.959053 
L 128.12755 -312.533539 
L 128.016533 -308.108025 
L 127.889058 -303.682512 
L 127.742188 -299.256998 
L 127.575578 -294.831484 
L 127.391178 -290.40597 
L 127.192751 -285.980456 
L 126.985314 -281.554942 
L 126.774526 -277.129429 
L 126.566122 -272.703915 
L 126.365418 -268.278401 
L 126.176936 -263.852887 
L 126.004164 -259.427373 
L 125.84944 -255.001859 
L 125.71397 -250.576345 
L 125.597926 -246.150832 
L 125.50062 -241.725318 
L 125.420709 -237.299804 
z
" style="stroke: #3d3d3d; stroke-opacity: 0.5"/>
    </defs>
    <g clip-path="url(#p7417410827)">
     <use xlink:href="#m573f7894f4" x="0" y="707.825675" style="fill: #3274a1; fill-opacity: 0.5; stroke: #3d3d3d; stroke-opacity: 0.5"/>
    </g>
   </g>
   <g id="PolyCollection_2">
    <defs>
     <path id="m08e3298cd2" d="M 236.88887 -521.697285 
L 236.63613 -521.697285 
L 236.582963 -522.76553 
L 236.515922 -523.833775 
L 236.435129 -524.90202 
L 236.34234 -525.970264 
L 236.241213 -527.038509 
L 236.137287 -528.106754 
L 236.037619 -529.174999 
L 235.950056 -530.243243 
L 235.882245 -531.311488 
L 235.840541 -532.379733 
L 235.829025 -533.447978 
L 235.848846 -534.516223 
L 235.898031 -535.584467 
L 235.971813 -536.652712 
L 236.063385 -537.720957 
L 236.164942 -538.789202 
L 236.268758 -539.857446 
L 236.368125 -540.925691 
L 236.457984 -541.993936 
L 236.535196 -543.062181 
L 236.59847 -544.130425 
L 236.648046 -545.19867 
L 236.685238 -546.266915 
L 236.711953 -547.33516 
L 236.730267 -548.403405 
L 236.742102 -549.471649 
L 236.749011 -550.539894 
L 236.752059 -551.608139 
L 236.751762 -552.676384 
L 236.748065 -553.744628 
L 236.74034 -554.812873 
L 236.727409 -555.881118 
L 236.707601 -556.949363 
L 236.678877 -558.017608 
L 236.63903 -559.085852 
L 236.585999 -560.154097 
L 236.518246 -561.222342 
L 236.435178 -562.290587 
L 236.337493 -563.358831 
L 236.22738 -564.427076 
L 236.108449 -565.495321 
L 235.985352 -566.563566 
L 235.863112 -567.63181 
L 235.746279 -568.700055 
L 235.638079 -569.7683 
L 235.539794 -570.836545 
L 235.450528 -571.90479 
L 235.367459 -572.973034 
L 235.286529 -574.041279 
L 235.203374 -575.109524 
L 235.114251 -576.177769 
L 235.016666 -577.246013 
L 234.909525 -578.314258 
L 234.792761 -579.382503 
L 234.666571 -580.450748 
L 234.530501 -581.518993 
L 234.382736 -582.587237 
L 234.219848 -583.655482 
L 234.037162 -584.723727 
L 233.829678 -585.791972 
L 233.593298 -586.860216 
L 233.325947 -587.928461 
L 233.028146 -588.996706 
L 232.702644 -590.064951 
L 232.352958 -591.133196 
L 231.980864 -592.20144 
L 231.583188 -593.269685 
L 231.148389 -594.33793 
L 230.653559 -595.406175 
L 230.062402 -596.474419 
L 229.32473 -597.542664 
L 228.377918 -598.610909 
L 227.150681 -599.679154 
L 225.569486 -600.747398 
L 223.567745 -601.815643 
L 221.097565 -602.883888 
L 218.143261 -603.952133 
L 214.735016 -605.020378 
L 210.960185 -606.088622 
L 206.969232 -607.156867 
L 202.973253 -608.225112 
L 199.231045 -609.293357 
L 196.025467 -610.361601 
L 193.631305 -611.429846 
L 192.279278 -612.498091 
L 192.1225 -613.566336 
L 193.21205 -614.634581 
L 195.486893 -615.702825 
L 198.780644 -616.77107 
L 202.844118 -617.839315 
L 207.379257 -618.90756 
L 212.077844 -619.975804 
L 216.657867 -621.044049 
L 220.891532 -622.112294 
L 224.621364 -623.180539 
L 227.763675 -624.248784 
L 230.301288 -625.317028 
L 232.269021 -626.385273 
L 233.736025 -627.453518 
L 239.788975 -627.453518 
L 239.788975 -627.453518 
L 241.255979 -626.385273 
L 243.223712 -625.317028 
L 245.761325 -624.248784 
L 248.903636 -623.180539 
L 252.633468 -622.112294 
L 256.867133 -621.044049 
L 261.447156 -619.975804 
L 266.145743 -618.90756 
L 270.680882 -617.839315 
L 274.744356 -616.77107 
L 278.038107 -615.702825 
L 280.31295 -614.634581 
L 281.4025 -613.566336 
L 281.245722 -612.498091 
L 279.893695 -611.429846 
L 277.499533 -610.361601 
L 274.293955 -609.293357 
L 270.551747 -608.225112 
L 266.555768 -607.156867 
L 262.564815 -606.088622 
L 258.789984 -605.020378 
L 255.381739 -603.952133 
L 252.427435 -602.883888 
L 249.957255 -601.815643 
L 247.955514 -600.747398 
L 246.374319 -599.679154 
L 245.147082 -598.610909 
L 244.20027 -597.542664 
L 243.462598 -596.474419 
L 242.871441 -595.406175 
L 242.376611 -594.33793 
L 241.941812 -593.269685 
L 241.544136 -592.20144 
L 241.172042 -591.133196 
L 240.822356 -590.064951 
L 240.496854 -588.996706 
L 240.199053 -587.928461 
L 239.931702 -586.860216 
L 239.695322 -585.791972 
L 239.487838 -584.723727 
L 239.305152 -583.655482 
L 239.142264 -582.587237 
L 238.994499 -581.518993 
L 238.858429 -580.450748 
L 238.732239 -579.382503 
L 238.615475 -578.314258 
L 238.508334 -577.246013 
L 238.410749 -576.177769 
L 238.321626 -575.109524 
L 238.238471 -574.041279 
L 238.157541 -572.973034 
L 238.074472 -571.90479 
L 237.985206 -570.836545 
L 237.886921 -569.7683 
L 237.778721 -568.700055 
L 237.661888 -567.63181 
L 237.539648 -566.563566 
L 237.416551 -565.495321 
L 237.29762 -564.427076 
L 237.187507 -563.358831 
L 237.089822 -562.290587 
L 237.006754 -561.222342 
L 236.939001 -560.154097 
L 236.88597 -559.085852 
L 236.846123 -558.017608 
L 236.817399 -556.949363 
L 236.797591 -555.881118 
L 236.78466 -554.812873 
L 236.776935 -553.744628 
L 236.773238 -552.676384 
L 236.772941 -551.608139 
L 236.775989 -550.539894 
L 236.782898 -549.471649 
L 236.794733 -548.403405 
L 236.813047 -547.33516 
L 236.839762 -546.266915 
L 236.876954 -545.19867 
L 236.92653 -544.130425 
L 236.989804 -543.062181 
L 237.067016 -541.993936 
L 237.156875 -540.925691 
L 237.256242 -539.857446 
L 237.360058 -538.789202 
L 237.461615 -537.720957 
L 237.553187 -536.652712 
L 237.626969 -535.584467 
L 237.676154 -534.516223 
L 237.695975 -533.447978 
L 237.684459 -532.379733 
L 237.642755 -531.311488 
L 237.574944 -530.243243 
L 237.487381 -529.174999 
L 237.387713 -528.106754 
L 237.283787 -527.038509 
L 237.18266 -525.970264 
L 237.089871 -524.90202 
L 237.009078 -523.833775 
L 236.942037 -522.76553 
L 236.88887 -521.697285 
z
" style="stroke: #3d3d3d; stroke-opacity: 0.5"/>
    </defs>
    <g clip-path="url(#p7417410827)">
     <use xlink:href="#m08e3298cd2" x="0" y="707.825675" style="fill: #d684bd; fill-opacity: 0.5; stroke: #3d3d3d; stroke-opacity: 0.5"/>
    </g>
   </g>
   <g id="PolyCollection_3">
    <defs>
     <path id="m0551260776" d="M 349.639746 -171.425675 
L 347.085254 -171.425675 
L 346.660674 -176.206023 
L 346.125997 -180.986371 
L 345.463177 -185.766719 
L 344.65433 -190.547067 
L 343.68272 -195.327416 
L 342.533889 -200.107764 
L 341.196879 -204.888112 
L 339.66545 -209.66846 
L 337.939209 -214.448808 
L 336.024529 -219.229156 
L 333.935161 -224.009505 
L 331.69244 -228.789853 
L 329.325026 -233.570201 
L 326.868139 -238.350549 
L 324.362305 -243.130897 
L 321.851677 -247.911245 
L 319.382018 -252.691593 
L 316.998502 -257.471942 
L 314.743488 -262.25229 
L 312.654449 -267.032638 
L 310.762213 -271.812986 
L 309.089682 -276.593334 
L 307.651106 -281.373682 
L 306.451982 -286.154031 
L 305.489573 -290.934379 
L 304.753974 -295.714727 
L 304.22963 -300.495075 
L 303.897143 -305.275423 
L 303.735209 -310.055771 
L 303.7225 -314.836119 
L 303.839347 -319.616468 
L 304.069075 -324.396816 
L 304.39892 -329.177164 
L 304.820459 -333.957512 
L 305.329576 -338.73786 
L 305.925989 -343.518208 
L 306.61242 -348.298557 
L 307.393504 -353.078905 
L 308.274548 -357.859253 
L 309.260255 -362.639601 
L 310.35351 -367.419949 
L 311.554349 -372.200297 
L 312.859151 -376.980645 
L 314.260137 -381.760994 
L 315.745185 -386.541342 
L 317.29797 -391.32169 
L 318.898414 -396.102038 
L 320.523381 -400.882386 
L 322.147586 -405.662734 
L 323.744625 -410.443083 
L 325.288063 -415.223431 
L 326.752513 -420.003779 
L 328.114645 -424.784127 
L 329.354076 -429.564475 
L 330.454127 -434.344823 
L 331.402419 -439.125171 
L 332.191311 -443.90552 
L 332.818185 -448.685868 
L 333.285587 -453.466216 
L 333.601201 -458.246564 
L 333.777689 -463.026912 
L 333.832339 -467.80726 
L 333.786552 -472.587609 
L 333.665119 -477.367957 
L 333.495313 -482.148305 
L 333.305799 -486.928653 
L 333.125404 -491.709001 
L 332.981811 -496.489349 
L 332.900239 -501.269697 
L 332.902234 -506.050046 
L 333.004636 -510.830394 
L 333.218826 -515.610742 
L 333.550314 -520.39109 
L 333.998709 -525.171438 
L 334.558062 -529.951786 
L 335.217541 -534.732135 
L 335.96239 -539.512483 
L 336.775044 -544.292831 
L 337.636332 -549.073179 
L 338.526638 -553.853527 
L 339.426942 -558.633875 
L 340.319688 -563.414223 
L 341.189413 -568.194572 
L 342.023153 -572.97492 
L 342.810623 -577.755268 
L 343.544213 -582.535616 
L 344.218836 -587.315964 
L 344.831675 -592.096312 
L 345.381881 -596.876661 
L 345.870241 -601.657009 
L 346.298854 -606.437357 
L 346.670837 -611.217705 
L 346.990046 -615.998053 
L 347.260848 -620.778401 
L 347.487908 -625.558749 
L 347.676017 -630.339098 
L 347.829944 -635.119446 
L 347.954309 -639.899794 
L 348.053484 -644.680142 
L 348.671516 -644.680142 
L 348.671516 -644.680142 
L 348.770691 -639.899794 
L 348.895056 -635.119446 
L 349.048983 -630.339098 
L 349.237092 -625.558749 
L 349.464152 -620.778401 
L 349.734954 -615.998053 
L 350.054163 -611.217705 
L 350.426146 -606.437357 
L 350.854759 -601.657009 
L 351.343119 -596.876661 
L 351.893325 -592.096312 
L 352.506164 -587.315964 
L 353.180787 -582.535616 
L 353.914377 -577.755268 
L 354.701847 -572.97492 
L 355.535587 -568.194572 
L 356.405312 -563.414223 
L 357.298058 -558.633875 
L 358.198362 -553.853527 
L 359.088668 -549.073179 
L 359.949956 -544.292831 
L 360.76261 -539.512483 
L 361.507459 -534.732135 
L 362.166938 -529.951786 
L 362.726291 -525.171438 
L 363.174686 -520.39109 
L 363.506174 -515.610742 
L 363.720364 -510.830394 
L 363.822766 -506.050046 
L 363.824761 -501.269697 
L 363.743189 -496.489349 
L 363.599596 -491.709001 
L 363.419201 -486.928653 
L 363.229687 -482.148305 
L 363.059881 -477.367957 
L 362.938448 -472.587609 
L 362.892661 -467.80726 
L 362.947311 -463.026912 
L 363.123799 -458.246564 
L 363.439413 -453.466216 
L 363.906815 -448.685868 
L 364.533689 -443.90552 
L 365.322581 -439.125171 
L 366.270873 -434.344823 
L 367.370924 -429.564475 
L 368.610355 -424.784127 
L 369.972487 -420.003779 
L 371.436937 -415.223431 
L 372.980375 -410.443083 
L 374.577414 -405.662734 
L 376.201619 -400.882386 
L 377.826586 -396.102038 
L 379.42703 -391.32169 
L 380.979815 -386.541342 
L 382.464863 -381.760994 
L 383.865849 -376.980645 
L 385.170651 -372.200297 
L 386.37149 -367.419949 
L 387.464745 -362.639601 
L 388.450452 -357.859253 
L 389.331496 -353.078905 
L 390.11258 -348.298557 
L 390.799011 -343.518208 
L 391.395424 -338.73786 
L 391.904541 -333.957512 
L 392.32608 -329.177164 
L 392.655925 -324.396816 
L 392.885653 -319.616468 
L 393.0025 -314.836119 
L 392.989791 -310.055771 
L 392.827857 -305.275423 
L 392.49537 -300.495075 
L 391.971026 -295.714727 
L 391.235427 -290.934379 
L 390.273018 -286.154031 
L 389.073894 -281.373682 
L 387.635318 -276.593334 
L 385.962787 -271.812986 
L 384.070551 -267.032638 
L 381.981512 -262.25229 
L 379.726498 -257.471942 
L 377.342982 -252.691593 
L 374.873323 -247.911245 
L 372.362695 -243.130897 
L 369.856861 -238.350549 
L 367.399974 -233.570201 
L 365.03256 -228.789853 
L 362.789839 -224.009505 
L 360.700471 -219.229156 
L 358.785791 -214.448808 
L 357.05955 -209.66846 
L 355.528121 -204.888112 
L 354.191111 -200.107764 
L 353.04228 -195.327416 
L 352.07067 -190.547067 
L 351.261823 -185.766719 
L 350.599003 -180.986371 
L 350.064326 -176.206023 
L 349.639746 -171.425675 
z
" style="stroke: #3d3d3d; stroke-opacity: 0.5"/>
    </defs>
    <g clip-path="url(#p7417410827)">
     <use xlink:href="#m0551260776" x="0" y="707.825675" style="fill: #c03d3e; fill-opacity: 0.5; stroke: #3d3d3d; stroke-opacity: 0.5"/>
    </g>
   </g>
   <g id="PolyCollection_4">
    <defs>
     <path id="mfaa2aa4db0" d="M 460.091728 -515.408434 
L 459.833272 -515.408434 
L 459.780434 -516.549368 
L 459.714121 -517.690303 
L 459.634391 -518.831238 
L 459.542801 -519.972173 
L 459.442653 -521.113108 
L 459.339006 -522.254042 
L 459.238379 -523.394977 
L 459.148134 -524.535912 
L 459.075611 -525.676847 
L 459.027125 -526.817781 
L 459.00703 -527.958716 
L 459.017014 -529.099651 
L 459.055766 -530.240586 
L 459.119089 -531.38152 
L 459.200422 -532.522455 
L 459.291649 -533.66339 
L 459.384037 -534.804325 
L 459.469143 -535.94526 
L 459.539555 -537.086194 
L 459.589416 -538.227129 
L 459.614732 -539.368064 
L 459.613526 -540.508999 
L 459.585892 -541.649933 
L 459.533992 -542.790868 
L 459.461992 -543.931803 
L 459.375907 -545.072738 
L 459.283263 -546.213672 
L 459.192561 -547.354607 
L 459.112508 -548.495542 
L 459.051106 -549.636477 
L 459.014706 -550.777412 
L 459.007213 -551.918346 
L 459.029574 -553.059281 
L 459.079692 -554.200216 
L 459.152748 -555.341151 
L 459.241891 -556.482085 
L 459.339137 -557.62302 
L 459.436295 -558.763955 
L 459.525773 -559.90489 
L 459.601142 -561.045824 
L 459.65743 -562.186759 
L 459.691203 -563.327694 
L 459.700503 -564.468629 
L 459.684758 -565.609564 
L 459.644732 -566.750498 
L 459.582531 -567.891433 
L 459.501624 -569.032368 
L 459.406774 -570.173303 
L 459.303786 -571.314237 
L 459.198956 -572.455172 
L 459.098217 -573.596107 
L 459.006046 -574.737042 
L 458.92428 -575.877976 
L 458.851075 -577.018911 
L 458.780263 -578.159846 
L 458.701303 -579.300781 
L 458.59996 -580.441716 
L 458.459675 -581.58265 
L 458.263458 -582.723585 
L 457.996003 -583.86452 
L 457.645617 -585.005455 
L 457.205561 -586.146389 
L 456.674451 -587.287324 
L 456.055492 -588.428259 
L 455.354539 -589.569194 
L 454.577165 -590.710128 
L 453.725136 -591.851063 
L 452.792856 -592.991998 
L 451.764428 -594.132933 
L 450.611997 -595.273868 
L 449.295993 -596.414802 
L 447.767725 -597.555737 
L 445.974595 -598.696672 
L 443.867903 -599.837607 
L 441.4128 -600.978541 
L 438.599499 -602.119476 
L 435.454275 -603.260411 
L 432.048374 -604.401346 
L 428.502647 -605.542281 
L 424.985878 -606.683215 
L 421.705434 -607.82415 
L 418.89003 -608.965085 
L 416.76599 -610.10602 
L 415.529985 -611.246954 
L 415.3225 -612.387889 
L 416.206732 -613.528824 
L 418.157072 -614.669759 
L 421.059704 -615.810693 
L 424.725593 -616.951628 
L 428.913697 -618.092563 
L 433.360235 -619.233498 
L 437.808897 -620.374433 
L 442.037004 -621.515367 
L 445.873905 -622.656302 
L 449.209766 -623.797237 
L 451.994972 -624.938172 
L 454.232005 -626.079106 
L 455.962641 -627.220041 
L 457.253493 -628.360976 
L 462.671507 -628.360976 
L 462.671507 -628.360976 
L 463.962359 -627.220041 
L 465.692995 -626.079106 
L 467.930028 -624.938172 
L 470.715234 -623.797237 
L 474.051095 -622.656302 
L 477.887996 -621.515367 
L 482.116103 -620.374433 
L 486.564765 -619.233498 
L 491.011303 -618.092563 
L 495.199407 -616.951628 
L 498.865296 -615.810693 
L 501.767928 -614.669759 
L 503.718268 -613.528824 
L 504.6025 -612.387889 
L 504.395015 -611.246954 
L 503.15901 -610.10602 
L 501.03497 -608.965085 
L 498.219566 -607.82415 
L 494.939122 -606.683215 
L 491.422353 -605.542281 
L 487.876626 -604.401346 
L 484.470725 -603.260411 
L 481.325501 -602.119476 
L 478.5122 -600.978541 
L 476.057097 -599.837607 
L 473.950405 -598.696672 
L 472.157275 -597.555737 
L 470.629007 -596.414802 
L 469.313003 -595.273868 
L 468.160572 -594.132933 
L 467.132144 -592.991998 
L 466.199864 -591.851063 
L 465.347835 -590.710128 
L 464.570461 -589.569194 
L 463.869508 -588.428259 
L 463.250549 -587.287324 
L 462.719439 -586.146389 
L 462.279383 -585.005455 
L 461.928997 -583.86452 
L 461.661542 -582.723585 
L 461.465325 -581.58265 
L 461.32504 -580.441716 
L 461.223697 -579.300781 
L 461.144737 -578.159846 
L 461.073925 -577.018911 
L 461.00072 -575.877976 
L 460.918954 -574.737042 
L 460.826783 -573.596107 
L 460.726044 -572.455172 
L 460.621214 -571.314237 
L 460.518226 -570.173303 
L 460.423376 -569.032368 
L 460.342469 -567.891433 
L 460.280268 -566.750498 
L 460.240242 -565.609564 
L 460.224497 -564.468629 
L 460.233797 -563.327694 
L 460.26757 -562.186759 
L 460.323858 -561.045824 
L 460.399227 -559.90489 
L 460.488705 -558.763955 
L 460.585863 -557.62302 
L 460.683109 -556.482085 
L 460.772252 -555.341151 
L 460.845308 -554.200216 
L 460.895426 -553.059281 
L 460.917787 -551.918346 
L 460.910294 -550.777412 
L 460.873894 -549.636477 
L 460.812492 -548.495542 
L 460.732439 -547.354607 
L 460.641737 -546.213672 
L 460.549093 -545.072738 
L 460.463008 -543.931803 
L 460.391008 -542.790868 
L 460.339108 -541.649933 
L 460.311474 -540.508999 
L 460.310268 -539.368064 
L 460.335584 -538.227129 
L 460.385445 -537.086194 
L 460.455857 -535.94526 
L 460.540963 -534.804325 
L 460.633351 -533.66339 
L 460.724578 -532.522455 
L 460.805911 -531.38152 
L 460.869234 -530.240586 
L 460.907986 -529.099651 
L 460.91797 -527.958716 
L 460.897875 -526.817781 
L 460.849389 -525.676847 
L 460.776866 -524.535912 
L 460.686621 -523.394977 
L 460.585994 -522.254042 
L 460.482347 -521.113108 
L 460.382199 -519.972173 
L 460.290609 -518.831238 
L 460.210879 -517.690303 
L 460.144566 -516.549368 
L 460.091728 -515.408434 
z
" style="stroke: #3d3d3d; stroke-opacity: 0.5"/>
    </defs>
    <g clip-path="url(#p7417410827)">
     <use xlink:href="#mfaa2aa4db0" x="0" y="707.825675" style="fill: #9372b2; fill-opacity: 0.5; stroke: #3d3d3d; stroke-opacity: 0.5"/>
    </g>
   </g>
   <g id="PolyCollection_5">
    <defs>
     <path id="m0ccc90869b" d="M 571.769405 -513.27595 
L 571.355595 -513.27595 
L 571.274769 -514.454396 
L 571.172514 -515.632842 
L 571.047317 -516.811288 
L 570.899171 -517.989734 
L 570.730054 -519.16818 
L 570.544268 -520.346625 
L 570.348539 -521.525071 
L 570.151803 -522.703517 
L 569.96465 -523.881963 
L 569.798435 -525.060409 
L 569.664174 -526.238855 
L 569.571338 -527.417301 
L 569.526759 -528.595747 
L 569.533793 -529.774193 
L 569.591907 -530.952639 
L 569.696746 -532.131085 
L 569.840667 -533.309531 
L 570.013664 -534.487977 
L 570.204513 -535.666423 
L 570.401961 -536.844869 
L 570.595788 -538.023315 
L 570.77761 -539.201761 
L 570.941338 -540.380207 
L 571.083303 -541.558653 
L 571.20207 -542.737098 
L 571.298045 -543.915544 
L 571.372959 -545.09399 
L 571.429329 -546.272436 
L 571.469952 -547.450882 
L 571.497496 -548.629328 
L 571.514195 -549.807774 
L 571.521637 -550.98622 
L 571.520659 -552.164666 
L 571.511298 -553.343112 
L 571.492822 -554.521558 
L 571.463807 -555.700004 
L 571.422283 -556.87845 
L 571.365936 -558.056896 
L 571.292385 -559.235342 
L 571.199509 -560.413788 
L 571.085813 -561.592234 
L 570.950775 -562.77068 
L 570.795138 -563.949126 
L 570.62105 -565.127571 
L 570.43202 -566.306017 
L 570.232611 -567.484463 
L 570.027884 -568.662909 
L 569.822602 -569.841355 
L 569.620296 -571.019801 
L 569.422297 -572.198247 
L 569.226913 -573.376693 
L 569.028883 -574.555139 
L 568.819271 -575.733585 
L 568.585848 -576.912031 
L 568.313973 -578.090477 
L 567.987868 -579.268923 
L 567.592113 -580.447369 
L 567.113094 -581.625815 
L 566.540158 -582.804261 
L 565.866227 -583.982707 
L 565.087724 -585.161153 
L 564.203762 -586.339599 
L 563.214733 -587.518044 
L 562.120506 -588.69649 
L 560.918599 -589.874936 
L 559.602707 -591.053382 
L 558.161957 -592.231828 
L 556.581201 -593.410274 
L 554.842531 -594.58872 
L 552.928051 -595.767166 
L 550.823783 -596.945612 
L 548.524417 -598.124058 
L 546.038444 -599.302504 
L 543.393065 -600.48095 
L 540.638127 -601.659396 
L 537.848288 -602.837842 
L 535.12265 -604.016288 
L 532.581237 -605.194734 
L 530.358095 -606.37318 
L 528.591222 -607.551626 
L 527.410142 -608.730072 
L 526.9225 -609.908517 
L 527.20141 -611.086963 
L 528.275484 -612.265409 
L 530.123195 -613.443855 
L 532.672686 -614.622301 
L 535.807304 -615.800747 
L 539.376232 -616.979193 
L 543.208728 -618.157639 
L 547.129975 -619.336085 
L 550.976315 -620.514531 
L 554.607928 -621.692977 
L 557.917532 -622.871423 
L 560.83448 -624.049869 
L 563.324389 -625.228315 
L 565.385072 -626.406761 
L 567.039982 -627.585207 
L 568.330477 -628.763653 
L 569.308125 -629.942099 
L 573.816875 -629.942099 
L 573.816875 -629.942099 
L 574.794523 -628.763653 
L 576.085018 -627.585207 
L 577.739928 -626.406761 
L 579.800611 -625.228315 
L 582.29052 -624.049869 
L 585.207468 -622.871423 
L 588.517072 -621.692977 
L 592.148685 -620.514531 
L 595.995025 -619.336085 
L 599.916272 -618.157639 
L 603.748768 -616.979193 
L 607.317696 -615.800747 
L 610.452314 -614.622301 
L 613.001805 -613.443855 
L 614.849516 -612.265409 
L 615.92359 -611.086963 
L 616.2025 -609.908517 
L 615.714858 -608.730072 
L 614.533778 -607.551626 
L 612.766905 -606.37318 
L 610.543763 -605.194734 
L 608.00235 -604.016288 
L 605.276712 -602.837842 
L 602.486873 -601.659396 
L 599.731935 -600.48095 
L 597.086556 -599.302504 
L 594.600583 -598.124058 
L 592.301217 -596.945612 
L 590.196949 -595.767166 
L 588.282469 -594.58872 
L 586.543799 -593.410274 
L 584.963043 -592.231828 
L 583.522293 -591.053382 
L 582.206401 -589.874936 
L 581.004494 -588.69649 
L 579.910267 -587.518044 
L 578.921238 -586.339599 
L 578.037276 -585.161153 
L 577.258773 -583.982707 
L 576.584842 -582.804261 
L 576.011906 -581.625815 
L 575.532887 -580.447369 
L 575.137132 -579.268923 
L 574.811027 -578.090477 
L 574.539152 -576.912031 
L 574.305729 -575.733585 
L 574.096117 -574.555139 
L 573.898087 -573.376693 
L 573.702703 -572.198247 
L 573.504704 -571.019801 
L 573.302398 -569.841355 
L 573.097116 -568.662909 
L 572.892389 -567.484463 
L 572.69298 -566.306017 
L 572.50395 -565.127571 
L 572.329862 -563.949126 
L 572.174225 -562.77068 
L 572.039187 -561.592234 
L 571.925491 -560.413788 
L 571.832615 -559.235342 
L 571.759064 -558.056896 
L 571.702717 -556.87845 
L 571.661193 -555.700004 
L 571.632178 -554.521558 
L 571.613702 -553.343112 
L 571.604341 -552.164666 
L 571.603363 -550.98622 
L 571.610805 -549.807774 
L 571.627504 -548.629328 
L 571.655048 -547.450882 
L 571.695671 -546.272436 
L 571.752041 -545.09399 
L 571.826955 -543.915544 
L 571.92293 -542.737098 
L 572.041697 -541.558653 
L 572.183662 -540.380207 
L 572.34739 -539.201761 
L 572.529212 -538.023315 
L 572.723039 -536.844869 
L 572.920487 -535.666423 
L 573.111336 -534.487977 
L 573.284333 -533.309531 
L 573.428254 -532.131085 
L 573.533093 -530.952639 
L 573.591207 -529.774193 
L 573.598241 -528.595747 
L 573.553662 -527.417301 
L 573.460826 -526.238855 
L 573.326565 -525.060409 
L 573.16035 -523.881963 
L 572.973197 -522.703517 
L 572.776461 -521.525071 
L 572.580732 -520.346625 
L 572.394946 -519.16818 
L 572.225829 -517.989734 
L 572.077683 -516.811288 
L 571.952486 -515.632842 
L 571.850231 -514.454396 
L 571.769405 -513.27595 
z
" style="stroke: #3d3d3d; stroke-opacity: 0.5"/>
    </defs>
    <g clip-path="url(#p7417410827)">
     <use xlink:href="#m0ccc90869b" x="0" y="707.825675" style="fill: #845b53; fill-opacity: 0.5; stroke: #3d3d3d; stroke-opacity: 0.5"/>
    </g>
   </g>
   <g id="PolyCollection_6">
    <defs>
     <path id="me858796888" d="M 794.886824 -524.061395 
L 794.638176 -524.061395 
L 794.585583 -525.102057 
L 794.519208 -526.142719 
L 794.43918 -527.18338 
L 794.347277 -528.224042 
L 794.247182 -529.264704 
L 794.144462 -530.305365 
L 794.046193 -531.346027 
L 793.960215 -532.386689 
L 793.894133 -533.42735 
L 793.854213 -534.468012 
L 793.844404 -535.508674 
L 793.865695 -536.549335 
L 793.915949 -537.589997 
L 793.990258 -538.630659 
L 794.081732 -539.67132 
L 794.182551 -540.711982 
L 794.285052 -541.752644 
L 794.382651 -542.793305 
L 794.470456 -543.833967 
L 794.545503 -544.874629 
L 794.606658 -545.91529 
L 794.65428 -546.955952 
L 794.689745 -547.996614 
L 794.714959 -549.037275 
L 794.731934 -550.077937 
L 794.742465 -551.118599 
L 794.747909 -552.15926 
L 794.749068 -553.199922 
L 794.746119 -554.240584 
L 794.73861 -555.281245 
L 794.725484 -556.321907 
L 794.705165 -557.362569 
L 794.675711 -558.40323 
L 794.635069 -559.443892 
L 794.581427 -560.484554 
L 794.513649 -561.525215 
L 794.431733 -562.565877 
L 794.337185 -563.606539 
L 794.233203 -564.6472 
L 794.124556 -565.687862 
L 794.017103 -566.728524 
L 793.916965 -567.769185 
L 793.829483 -568.809847 
L 793.758155 -569.850509 
L 793.70381 -570.89117 
L 793.664224 -571.931832 
L 793.634319 -572.972494 
L 793.606936 -574.013155 
L 793.574008 -575.053817 
L 793.527878 -576.094479 
L 793.462446 -577.13514 
L 793.373907 -578.175802 
L 793.260925 -579.216464 
L 793.124291 -580.257125 
L 792.96623 -581.297787 
L 792.789606 -582.338449 
L 792.5973 -583.37911 
L 792.391917 -584.419772 
L 792.175875 -585.460434 
L 791.951744 -586.501095 
L 791.722601 -587.541757 
L 791.492081 -588.582419 
L 791.263882 -589.62308 
L 791.04053 -590.663742 
L 790.821434 -591.704404 
L 790.600418 -592.745065 
L 790.363076 -593.785727 
L 790.084395 -594.826389 
L 789.727141 -595.86705 
L 789.24142 -596.907712 
L 788.565805 -597.948374 
L 787.63028 -598.989035 
L 786.361206 -600.029697 
L 784.688384 -601.070359 
L 782.554156 -602.11102 
L 779.924181 -603.151682 
L 776.799091 -604.192344 
L 773.225635 -605.233005 
L 769.305289 -606.273667 
L 765.19788 -607.314329 
L 761.117792 -608.35499 
L 757.321055 -609.395652 
L 754.083092 -610.436314 
L 751.668942 -611.476975 
L 750.299951 -612.517637 
L 750.1225 -613.558299 
L 751.184834 -614.59896 
L 753.427015 -615.639622 
L 756.686644 -616.680284 
L 760.719728 -617.720945 
L 765.232895 -618.761607 
L 769.920842 -619.802269 
L 774.502147 -620.84293 
L 778.747464 -621.883592 
L 782.496315 -622.924254 
L 785.661455 -623.964915 
L 788.222405 -625.005577 
L 790.211481 -626.046239 
L 791.696343 -627.0869 
L 797.828657 -627.0869 
L 797.828657 -627.0869 
L 799.313519 -626.046239 
L 801.302595 -625.005577 
L 803.863545 -623.964915 
L 807.028685 -622.924254 
L 810.777536 -621.883592 
L 815.022853 -620.84293 
L 819.604158 -619.802269 
L 824.292105 -618.761607 
L 828.805272 -617.720945 
L 832.838356 -616.680284 
L 836.097985 -615.639622 
L 838.340166 -614.59896 
L 839.4025 -613.558299 
L 839.225049 -612.517637 
L 837.856058 -611.476975 
L 835.441908 -610.436314 
L 832.203945 -609.395652 
L 828.407208 -608.35499 
L 824.32712 -607.314329 
L 820.219711 -606.273667 
L 816.299365 -605.233005 
L 812.725909 -604.192344 
L 809.600819 -603.151682 
L 806.970844 -602.11102 
L 804.836616 -601.070359 
L 803.163794 -600.029697 
L 801.89472 -598.989035 
L 800.959195 -597.948374 
L 800.28358 -596.907712 
L 799.797859 -595.86705 
L 799.440605 -594.826389 
L 799.161924 -593.785727 
L 798.924582 -592.745065 
L 798.703566 -591.704404 
L 798.48447 -590.663742 
L 798.261118 -589.62308 
L 798.032919 -588.582419 
L 797.802399 -587.541757 
L 797.573256 -586.501095 
L 797.349125 -585.460434 
L 797.133083 -584.419772 
L 796.9277 -583.37911 
L 796.735394 -582.338449 
L 796.55877 -581.297787 
L 796.400709 -580.257125 
L 796.264075 -579.216464 
L 796.151093 -578.175802 
L 796.062554 -577.13514 
L 795.997122 -576.094479 
L 795.950992 -575.053817 
L 795.918064 -574.013155 
L 795.890681 -572.972494 
L 795.860776 -571.931832 
L 795.82119 -570.89117 
L 795.766845 -569.850509 
L 795.695517 -568.809847 
L 795.608035 -567.769185 
L 795.507897 -566.728524 
L 795.400444 -565.687862 
L 795.291797 -564.6472 
L 795.187815 -563.606539 
L 795.093267 -562.565877 
L 795.011351 -561.525215 
L 794.943573 -560.484554 
L 794.889931 -559.443892 
L 794.849289 -558.40323 
L 794.819835 -557.362569 
L 794.799516 -556.321907 
L 794.78639 -555.281245 
L 794.778881 -554.240584 
L 794.775932 -553.199922 
L 794.777091 -552.15926 
L 794.782535 -551.118599 
L 794.793066 -550.077937 
L 794.810041 -549.037275 
L 794.835255 -547.996614 
L 794.87072 -546.955952 
L 794.918342 -545.91529 
L 794.979497 -544.874629 
L 795.054544 -543.833967 
L 795.142349 -542.793305 
L 795.239948 -541.752644 
L 795.342449 -540.711982 
L 795.443268 -539.67132 
L 795.534742 -538.630659 
L 795.609051 -537.589997 
L 795.659305 -536.549335 
L 795.680596 -535.508674 
L 795.670787 -534.468012 
L 795.630867 -533.42735 
L 795.564785 -532.386689 
L 795.478807 -531.346027 
L 795.380538 -530.305365 
L 795.277818 -529.264704 
L 795.177723 -528.224042 
L 795.08582 -527.18338 
L 795.005792 -526.142719 
L 794.939417 -525.102057 
L 794.886824 -524.061395 
z
" style="stroke: #3d3d3d; stroke-opacity: 0.5"/>
    </defs>
    <g clip-path="url(#p7417410827)">
     <use xlink:href="#me858796888" x="0" y="707.825675" style="fill: #3a923a; fill-opacity: 0.5; stroke: #3d3d3d; stroke-opacity: 0.5"/>
    </g>
   </g>
   <g id="line2d_7">
    <path d="M 125.1625 403.217068 
L 125.1625 99.708802 
" clip-path="url(#p7417410827)" style="fill: none; stroke: #3d3d3d; stroke-width: 1.5; stroke-linecap: round"/>
   </g>
   <g id="line2d_8">
    <path d="M 125.1625 236.077477 
L 125.1625 123.080306 
" clip-path="url(#p7417410827)" style="fill: none; stroke: #3d3d3d; stroke-width: 4.5; stroke-linecap: round"/>
   </g>
   <g id="line2d_9">
    <path d="M 125.1625 149.886323 
" clip-path="url(#p7417410827)" style="fill: none; stroke: #3d3d3d; stroke-width: 1.5; stroke-linecap: round"/>
    <defs>
     <path id="m71d9645403" d="M 1.875 0 
L -1.875 -0 
" style="stroke: #ffffff; stroke-width: 0.9"/>
    </defs>
    <g clip-path="url(#p7417410827)">
     <use xlink:href="#m71d9645403" x="125.1625" y="149.886323" style="fill: #ffffff; stroke: #ffffff; stroke-width: 0.9"/>
    </g>
   </g>
   <g id="line2d_10">
    <path d="M 236.7625 102.944115 
L 236.7625 91.980186 
" clip-path="url(#p7417410827)" style="fill: none; stroke: #3d3d3d; stroke-width: 1.5; stroke-linecap: round"/>
   </g>
   <g id="line2d_11">
    <path d="M 236.7625 97.906638 
L 236.7625 93.15081 
" clip-path="url(#p7417410827)" style="fill: none; stroke: #3d3d3d; stroke-width: 4.5; stroke-linecap: round"/>
   </g>
   <g id="line2d_12">
    <path d="M 236.7625 94.817287 
" clip-path="url(#p7417410827)" style="fill: none; stroke: #3d3d3d; stroke-width: 1.5; stroke-linecap: round"/>
    <g clip-path="url(#p7417410827)">
     <use xlink:href="#m71d9645403" x="236.7625" y="94.817287" style="fill: #ffffff; stroke: #ffffff; stroke-width: 0.9"/>
    </g>
   </g>
   <g id="line2d_13">
    <path d="M 348.3625 460.672274 
L 348.3625 138.873258 
" clip-path="url(#p7417410827)" style="fill: none; stroke: #3d3d3d; stroke-width: 1.5; stroke-linecap: round"/>
   </g>
   <g id="line2d_14">
    <path d="M 348.3625 417.870932 
L 348.3625 305.563328 
" clip-path="url(#p7417410827)" style="fill: none; stroke: #3d3d3d; stroke-width: 4.5; stroke-linecap: round"/>
   </g>
   <g id="line2d_15">
    <path d="M 348.3625 365.701814 
" clip-path="url(#p7417410827)" style="fill: none; stroke: #3d3d3d; stroke-width: 1.5; stroke-linecap: round"/>
    <g clip-path="url(#p7417410827)">
     <use xlink:href="#m71d9645403" x="348.3625" y="365.701814" style="fill: #ffffff; stroke: #ffffff; stroke-width: 0.9"/>
    </g>
   </g>
   <g id="line2d_16">
    <path d="M 459.9625 111.108424 
L 459.9625 92.181019 
" clip-path="url(#p7417410827)" style="fill: none; stroke: #3d3d3d; stroke-width: 1.5; stroke-linecap: round"/>
   </g>
   <g id="line2d_17">
    <path d="M 459.9625 101.160298 
L 459.9625 93.615143 
" clip-path="url(#p7417410827)" style="fill: none; stroke: #3d3d3d; stroke-width: 4.5; stroke-linecap: round"/>
   </g>
   <g id="line2d_18">
    <path d="M 459.9625 95.900555 
" clip-path="url(#p7417410827)" style="fill: none; stroke: #3d3d3d; stroke-width: 1.5; stroke-linecap: round"/>
    <g clip-path="url(#p7417410827)">
     <use xlink:href="#m71d9645403" x="459.9625" y="95.900555" style="fill: #ffffff; stroke: #ffffff; stroke-width: 0.9"/>
    </g>
   </g>
   <g id="line2d_19">
    <path d="M 571.5625 120.910113 
L 571.5625 92.398608 
" clip-path="url(#p7417410827)" style="fill: none; stroke: #3d3d3d; stroke-width: 1.5; stroke-linecap: round"/>
   </g>
   <g id="line2d_20">
    <path d="M 571.5625 106.199529 
L 571.5625 94.80179 
" clip-path="url(#p7417410827)" style="fill: none; stroke: #3d3d3d; stroke-width: 4.5; stroke-linecap: round"/>
   </g>
   <g id="line2d_21">
    <path d="M 571.5625 98.354389 
" clip-path="url(#p7417410827)" style="fill: none; stroke: #3d3d3d; stroke-width: 1.5; stroke-linecap: round"/>
    <g clip-path="url(#p7417410827)">
     <use xlink:href="#m71d9645403" x="571.5625" y="98.354389" style="fill: #ffffff; stroke: #ffffff; stroke-width: 0.9"/>
    </g>
   </g>
   <g id="line2d_22">
    <path d="M 638.5225 91.610538 
L 727.8025 91.610538 
" clip-path="url(#p7417410827)" style="fill: none; stroke: #3d3d3d; stroke-linecap: round"/>
   </g>
   <g id="line2d_23">
    <path d="M 794.7625 102.85417 
L 794.7625 91.992521 
" clip-path="url(#p7417410827)" style="fill: none; stroke: #3d3d3d; stroke-width: 1.5; stroke-linecap: round"/>
   </g>
   <g id="line2d_24">
    <path d="M 794.7625 98.164162 
L 794.7625 93.032533 
" clip-path="url(#p7417410827)" style="fill: none; stroke: #3d3d3d; stroke-width: 4.5; stroke-linecap: round"/>
   </g>
   <g id="line2d_25">
    <path d="M 794.7625 94.566752 
" clip-path="url(#p7417410827)" style="fill: none; stroke: #3d3d3d; stroke-width: 1.5; stroke-linecap: round"/>
    <g clip-path="url(#p7417410827)">
     <use xlink:href="#m71d9645403" x="794.7625" y="94.566752" style="fill: #ffffff; stroke: #ffffff; stroke-width: 0.9"/>
    </g>
   </g>
   <g id="patch_3">
    <path d="M 69.3625 561.6 
L 850.5625 561.6 
" style="fill: none; stroke: #cccccc; stroke-width: 0.8; stroke-linejoin: miter; stroke-linecap: square"/>
   </g>
  </g>
 </g>
 <defs>
  <clipPath id="p7417410827">
   <rect x="69.3625" y="7.2" width="781.2" height="554.4"/>
  </clipPath>
 </defs>
</svg>
