<?xml version="1.0" encoding="utf-8" standalone="no"?>
<!DOCTYPE svg PUBLIC "-//W3C//DTD SVG 1.1//EN"
  "http://www.w3.org/Graphics/SVG/1.1/DTD/svg11.dtd">
<svg xmlns:xlink="http://www.w3.org/1999/xlink" width="872.53125pt" height="707.825675pt" viewBox="0 0 872.53125 707.825675" xmlns="http://www.w3.org/2000/svg" version="1.1">
 <metadata>
  <rdf:RDF xmlns:dc="http://purl.org/dc/elements/1.1/" xmlns:cc="http://creativecommons.org/ns#" xmlns:rdf="http://www.w3.org/1999/02/22-rdf-syntax-ns#">
   <cc:Work>
    <dc:type rdf:resource="http://purl.org/dc/dcmitype/StillImage"/>
    <dc:date>2024-10-23T17:23:57.502341</dc:date>
    <dc:format>image/svg+xml</dc:format>
    <dc:creator>
     <cc:Agent>
      <dc:title>Matplotlib v3.8.0, https://matplotlib.org/</dc:title>
     </cc:Agent>
    </dc:creator>
   </cc:Work>
  </rdf:RDF>
 </metadata>
 <defs>
  <style type="text/css">*{stroke-linejoin: round; stroke-linecap: butt}</style>
 </defs>
 <g id="figure_1">
  <g id="patch_1">
   <path d="M 0 707.825675 
L 872.53125 707.825675 
L 872.53125 0 
L 0 0 
L 0 707.825675 
z
" style="fill: none"/>
  </g>
  <g id="axes_1">
   <g id="patch_2">
    <path d="M 84.13125 561.6 
L 865.33125 561.6 
L 865.33125 7.2 
L 84.13125 7.2 
L 84.13125 561.6 
z
" style="fill: none"/>
   </g>
   <g id="matplotlib.axis_1">
    <g id="xtick_1">
     <g id="text_1">
      <!-- MSA -->
      <g style="fill: #262626" transform="translate(119.557736 610.465141) rotate(-45) scale(0.2 -0.2)">
       <defs>
        <path id="DejaVuSans-4d" d="M 628 4666 
L 1569 4666 
L 2759 1491 
L 3956 4666 
L 4897 4666 
L 4897 0 
L 4281 0 
L 4281 4097 
L 3078 897 
L 2444 897 
L 1241 4097 
L 1241 0 
L 628 0 
L 628 4666 
z
" transform="scale(0.015625)"/>
        <path id="DejaVuSans-53" d="M 3425 4513 
L 3425 3897 
Q 3066 4069 2747 4153 
Q 2428 4238 2131 4238 
Q 1616 4238 1336 4038 
Q 1056 3838 1056 3469 
Q 1056 3159 1242 3001 
Q 1428 2844 1947 2747 
L 2328 2669 
Q 3034 2534 3370 2195 
Q 3706 1856 3706 1288 
Q 3706 609 3251 259 
Q 2797 -91 1919 -91 
Q 1588 -91 1214 -16 
Q 841 59 441 206 
L 441 856 
Q 825 641 1194 531 
Q 1563 422 1919 422 
Q 2459 422 2753 634 
Q 3047 847 3047 1241 
Q 3047 1584 2836 1778 
Q 2625 1972 2144 2069 
L 1759 2144 
Q 1053 2284 737 2584 
Q 422 2884 422 3419 
Q 422 4038 858 4394 
Q 1294 4750 2059 4750 
Q 2388 4750 2728 4690 
Q 3069 4631 3425 4513 
z
" transform="scale(0.015625)"/>
        <path id="DejaVuSans-41" d="M 2188 4044 
L 1331 1722 
L 3047 1722 
L 2188 4044 
z
M 1831 4666 
L 2547 4666 
L 4325 0 
L 3669 0 
L 3244 1197 
L 1141 1197 
L 716 0 
L 50 0 
L 1831 4666 
z
" transform="scale(0.015625)"/>
       </defs>
       <use xlink:href="#DejaVuSans-4d"/>
       <use xlink:href="#DejaVuSans-53" x="86.279297"/>
       <use xlink:href="#DejaVuSans-41" x="151.630859"/>
      </g>
     </g>
    </g>
    <g id="xtick_2">
     <g id="text_2">
      <!-- Template -->
      <g style="fill: #262626" transform="translate(197.74694 643.875936) rotate(-45) scale(0.2 -0.2)">
       <defs>
        <path id="DejaVuSans-54" d="M -19 4666 
L 3928 4666 
L 3928 4134 
L 2272 4134 
L 2272 0 
L 1638 0 
L 1638 4134 
L -19 4134 
L -19 4666 
z
" transform="scale(0.015625)"/>
        <path id="DejaVuSans-65" d="M 3597 1894 
L 3597 1613 
L 953 1613 
Q 991 1019 1311 708 
Q 1631 397 2203 397 
Q 2534 397 2845 478 
Q 3156 559 3463 722 
L 3463 178 
Q 3153 47 2828 -22 
Q 2503 -91 2169 -91 
Q 1331 -91 842 396 
Q 353 884 353 1716 
Q 353 2575 817 3079 
Q 1281 3584 2069 3584 
Q 2775 3584 3186 3129 
Q 3597 2675 3597 1894 
z
M 3022 2063 
Q 3016 2534 2758 2815 
Q 2500 3097 2075 3097 
Q 1594 3097 1305 2825 
Q 1016 2553 972 2059 
L 3022 2063 
z
" transform="scale(0.015625)"/>
        <path id="DejaVuSans-6d" d="M 3328 2828 
Q 3544 3216 3844 3400 
Q 4144 3584 4550 3584 
Q 5097 3584 5394 3201 
Q 5691 2819 5691 2113 
L 5691 0 
L 5113 0 
L 5113 2094 
Q 5113 2597 4934 2840 
Q 4756 3084 4391 3084 
Q 3944 3084 3684 2787 
Q 3425 2491 3425 1978 
L 3425 0 
L 2847 0 
L 2847 2094 
Q 2847 2600 2669 2842 
Q 2491 3084 2119 3084 
Q 1678 3084 1418 2786 
Q 1159 2488 1159 1978 
L 1159 0 
L 581 0 
L 581 3500 
L 1159 3500 
L 1159 2956 
Q 1356 3278 1631 3431 
Q 1906 3584 2284 3584 
Q 2666 3584 2933 3390 
Q 3200 3197 3328 2828 
z
" transform="scale(0.015625)"/>
        <path id="DejaVuSans-70" d="M 1159 525 
L 1159 -1331 
L 581 -1331 
L 581 3500 
L 1159 3500 
L 1159 2969 
Q 1341 3281 1617 3432 
Q 1894 3584 2278 3584 
Q 2916 3584 3314 3078 
Q 3713 2572 3713 1747 
Q 3713 922 3314 415 
Q 2916 -91 2278 -91 
Q 1894 -91 1617 61 
Q 1341 213 1159 525 
z
M 3116 1747 
Q 3116 2381 2855 2742 
Q 2594 3103 2138 3103 
Q 1681 3103 1420 2742 
Q 1159 2381 1159 1747 
Q 1159 1113 1420 752 
Q 1681 391 2138 391 
Q 2594 391 2855 752 
Q 3116 1113 3116 1747 
z
" transform="scale(0.015625)"/>
        <path id="DejaVuSans-6c" d="M 603 4863 
L 1178 4863 
L 1178 0 
L 603 0 
L 603 4863 
z
" transform="scale(0.015625)"/>
        <path id="DejaVuSans-61" d="M 2194 1759 
Q 1497 1759 1228 1600 
Q 959 1441 959 1056 
Q 959 750 1161 570 
Q 1363 391 1709 391 
Q 2188 391 2477 730 
Q 2766 1069 2766 1631 
L 2766 1759 
L 2194 1759 
z
M 3341 1997 
L 3341 0 
L 2766 0 
L 2766 531 
Q 2569 213 2275 61 
Q 1981 -91 1556 -91 
Q 1019 -91 701 211 
Q 384 513 384 1019 
Q 384 1609 779 1909 
Q 1175 2209 1959 2209 
L 2766 2209 
L 2766 2266 
Q 2766 2663 2505 2880 
Q 2244 3097 1772 3097 
Q 1472 3097 1187 3025 
Q 903 2953 641 2809 
L 641 3341 
Q 956 3463 1253 3523 
Q 1550 3584 1831 3584 
Q 2591 3584 2966 3190 
Q 3341 2797 3341 1997 
z
" transform="scale(0.015625)"/>
        <path id="DejaVuSans-74" d="M 1172 4494 
L 1172 3500 
L 2356 3500 
L 2356 3053 
L 1172 3053 
L 1172 1153 
Q 1172 725 1289 603 
Q 1406 481 1766 481 
L 2356 481 
L 2356 0 
L 1766 0 
Q 1100 0 847 248 
Q 594 497 594 1153 
L 594 3053 
L 172 3053 
L 172 3500 
L 594 3500 
L 594 4494 
L 1172 4494 
z
" transform="scale(0.015625)"/>
       </defs>
       <use xlink:href="#DejaVuSans-54"/>
       <use xlink:href="#DejaVuSans-65" x="44.083984"/>
       <use xlink:href="#DejaVuSans-6d" x="105.607422"/>
       <use xlink:href="#DejaVuSans-70" x="203.019531"/>
       <use xlink:href="#DejaVuSans-6c" x="266.496094"/>
       <use xlink:href="#DejaVuSans-61" x="294.279297"/>
       <use xlink:href="#DejaVuSans-74" x="355.558594"/>
       <use xlink:href="#DejaVuSans-65" x="394.767578"/>
      </g>
     </g>
    </g>
    <g id="xtick_3">
     <g id="text_3">
      <!-- Backbone -->
      <g style="fill: #262626" transform="translate(304.246933 648.975944) rotate(-45) scale(0.2 -0.2)">
       <defs>
        <path id="DejaVuSans-42" d="M 1259 2228 
L 1259 519 
L 2272 519 
Q 2781 519 3026 730 
Q 3272 941 3272 1375 
Q 3272 1813 3026 2020 
Q 2781 2228 2272 2228 
L 1259 2228 
z
M 1259 4147 
L 1259 2741 
L 2194 2741 
Q 2656 2741 2882 2914 
Q 3109 3088 3109 3444 
Q 3109 3797 2882 3972 
Q 2656 4147 2194 4147 
L 1259 4147 
z
M 628 4666 
L 2241 4666 
Q 2963 4666 3353 4366 
Q 3744 4066 3744 3513 
Q 3744 3084 3544 2831 
Q 3344 2578 2956 2516 
Q 3422 2416 3680 2098 
Q 3938 1781 3938 1306 
Q 3938 681 3513 340 
Q 3088 0 2303 0 
L 628 0 
L 628 4666 
z
" transform="scale(0.015625)"/>
        <path id="DejaVuSans-63" d="M 3122 3366 
L 3122 2828 
Q 2878 2963 2633 3030 
Q 2388 3097 2138 3097 
Q 1578 3097 1268 2742 
Q 959 2388 959 1747 
Q 959 1106 1268 751 
Q 1578 397 2138 397 
Q 2388 397 2633 464 
Q 2878 531 3122 666 
L 3122 134 
Q 2881 22 2623 -34 
Q 2366 -91 2075 -91 
Q 1284 -91 818 406 
Q 353 903 353 1747 
Q 353 2603 823 3093 
Q 1294 3584 2113 3584 
Q 2378 3584 2631 3529 
Q 2884 3475 3122 3366 
z
" transform="scale(0.015625)"/>
        <path id="DejaVuSans-6b" d="M 581 4863 
L 1159 4863 
L 1159 1991 
L 2875 3500 
L 3609 3500 
L 1753 1863 
L 3688 0 
L 2938 0 
L 1159 1709 
L 1159 0 
L 581 0 
L 581 4863 
z
" transform="scale(0.015625)"/>
        <path id="DejaVuSans-62" d="M 3116 1747 
Q 3116 2381 2855 2742 
Q 2594 3103 2138 3103 
Q 1681 3103 1420 2742 
Q 1159 2381 1159 1747 
Q 1159 1113 1420 752 
Q 1681 391 2138 391 
Q 2594 391 2855 752 
Q 3116 1113 3116 1747 
z
M 1159 2969 
Q 1341 3281 1617 3432 
Q 1894 3584 2278 3584 
Q 2916 3584 3314 3078 
Q 3713 2572 3713 1747 
Q 3713 922 3314 415 
Q 2916 -91 2278 -91 
Q 1894 -91 1617 61 
Q 1341 213 1159 525 
L 1159 0 
L 581 0 
L 581 4863 
L 1159 4863 
L 1159 2969 
z
" transform="scale(0.015625)"/>
        <path id="DejaVuSans-6f" d="M 1959 3097 
Q 1497 3097 1228 2736 
Q 959 2375 959 1747 
Q 959 1119 1226 758 
Q 1494 397 1959 397 
Q 2419 397 2687 759 
Q 2956 1122 2956 1747 
Q 2956 2369 2687 2733 
Q 2419 3097 1959 3097 
z
M 1959 3584 
Q 2709 3584 3137 3096 
Q 3566 2609 3566 1747 
Q 3566 888 3137 398 
Q 2709 -91 1959 -91 
Q 1206 -91 779 398 
Q 353 888 353 1747 
Q 353 2609 779 3096 
Q 1206 3584 1959 3584 
z
" transform="scale(0.015625)"/>
        <path id="DejaVuSans-6e" d="M 3513 2113 
L 3513 0 
L 2938 0 
L 2938 2094 
Q 2938 2591 2744 2837 
Q 2550 3084 2163 3084 
Q 1697 3084 1428 2787 
Q 1159 2491 1159 1978 
L 1159 0 
L 581 0 
L 581 3500 
L 1159 3500 
L 1159 2956 
Q 1366 3272 1645 3428 
Q 1925 3584 2291 3584 
Q 2894 3584 3203 3211 
Q 3513 2838 3513 2113 
z
" transform="scale(0.015625)"/>
       </defs>
       <use xlink:href="#DejaVuSans-42"/>
       <use xlink:href="#DejaVuSans-61" x="68.603516"/>
       <use xlink:href="#DejaVuSans-63" x="129.882812"/>
       <use xlink:href="#DejaVuSans-6b" x="184.863281"/>
       <use xlink:href="#DejaVuSans-62" x="242.773438"/>
       <use xlink:href="#DejaVuSans-6f" x="306.25"/>
       <use xlink:href="#DejaVuSans-6e" x="367.431641"/>
       <use xlink:href="#DejaVuSans-65" x="430.810547"/>
      </g>
     </g>
    </g>
    <g id="xtick_4">
     <g id="text_4">
      <!-- Heuristic C-$\beta$ -->
      <g style="fill: #262626" transform="translate(394.40392 670.706219) rotate(-45) scale(0.2 -0.2)">
       <defs>
        <path id="DejaVuSans-48" d="M 628 4666 
L 1259 4666 
L 1259 2753 
L 3553 2753 
L 3553 4666 
L 4184 4666 
L 4184 0 
L 3553 0 
L 3553 2222 
L 1259 2222 
L 1259 0 
L 628 0 
L 628 4666 
z
" transform="scale(0.015625)"/>
        <path id="DejaVuSans-75" d="M 544 1381 
L 544 3500 
L 1119 3500 
L 1119 1403 
Q 1119 906 1312 657 
Q 1506 409 1894 409 
Q 2359 409 2629 706 
Q 2900 1003 2900 1516 
L 2900 3500 
L 3475 3500 
L 3475 0 
L 2900 0 
L 2900 538 
Q 2691 219 2414 64 
Q 2138 -91 1772 -91 
Q 1169 -91 856 284 
Q 544 659 544 1381 
z
M 1991 3584 
L 1991 3584 
z
" transform="scale(0.015625)"/>
        <path id="DejaVuSans-72" d="M 2631 2963 
Q 2534 3019 2420 3045 
Q 2306 3072 2169 3072 
Q 1681 3072 1420 2755 
Q 1159 2438 1159 1844 
L 1159 0 
L 581 0 
L 581 3500 
L 1159 3500 
L 1159 2956 
Q 1341 3275 1631 3429 
Q 1922 3584 2338 3584 
Q 2397 3584 2469 3576 
Q 2541 3569 2628 3553 
L 2631 2963 
z
" transform="scale(0.015625)"/>
        <path id="DejaVuSans-69" d="M 603 3500 
L 1178 3500 
L 1178 0 
L 603 0 
L 603 3500 
z
M 603 4863 
L 1178 4863 
L 1178 4134 
L 603 4134 
L 603 4863 
z
" transform="scale(0.015625)"/>
        <path id="DejaVuSans-73" d="M 2834 3397 
L 2834 2853 
Q 2591 2978 2328 3040 
Q 2066 3103 1784 3103 
Q 1356 3103 1142 2972 
Q 928 2841 928 2578 
Q 928 2378 1081 2264 
Q 1234 2150 1697 2047 
L 1894 2003 
Q 2506 1872 2764 1633 
Q 3022 1394 3022 966 
Q 3022 478 2636 193 
Q 2250 -91 1575 -91 
Q 1294 -91 989 -36 
Q 684 19 347 128 
L 347 722 
Q 666 556 975 473 
Q 1284 391 1588 391 
Q 1994 391 2212 530 
Q 2431 669 2431 922 
Q 2431 1156 2273 1281 
Q 2116 1406 1581 1522 
L 1381 1569 
Q 847 1681 609 1914 
Q 372 2147 372 2553 
Q 372 3047 722 3315 
Q 1072 3584 1716 3584 
Q 2034 3584 2315 3537 
Q 2597 3491 2834 3397 
z
" transform="scale(0.015625)"/>
        <path id="DejaVuSans-20" transform="scale(0.015625)"/>
        <path id="DejaVuSans-43" d="M 4122 4306 
L 4122 3641 
Q 3803 3938 3442 4084 
Q 3081 4231 2675 4231 
Q 1875 4231 1450 3742 
Q 1025 3253 1025 2328 
Q 1025 1406 1450 917 
Q 1875 428 2675 428 
Q 3081 428 3442 575 
Q 3803 722 4122 1019 
L 4122 359 
Q 3791 134 3420 21 
Q 3050 -91 2638 -91 
Q 1578 -91 968 557 
Q 359 1206 359 2328 
Q 359 3453 968 4101 
Q 1578 4750 2638 4750 
Q 3056 4750 3426 4639 
Q 3797 4528 4122 4306 
z
" transform="scale(0.015625)"/>
        <path id="DejaVuSans-2d" d="M 313 2009 
L 1997 2009 
L 1997 1497 
L 313 1497 
L 313 2009 
z
" transform="scale(0.015625)"/>
        <path id="DejaVuSans-Oblique-3b2" d="M 872 216 
L 572 -1331 
L -6 -1331 
L 928 3478 
Q 1206 4903 2538 4903 
Q 3888 4903 3659 3700 
Q 3503 2844 2894 2531 
Q 3713 2250 3553 1416 
Q 3272 -69 1759 -66 
Q 1097 -63 872 216 
z
M 1019 966 
Q 1259 422 1875 425 
Q 2775 425 2966 1406 
Q 3138 2288 1675 2219 
L 1778 2750 
Q 2909 2731 3106 3750 
Q 3241 4438 2509 4434 
Q 1691 4434 1503 3459 
L 1019 966 
z
" transform="scale(0.015625)"/>
       </defs>
       <use xlink:href="#DejaVuSans-48" transform="translate(0 0.390625)"/>
       <use xlink:href="#DejaVuSans-65" transform="translate(75.195312 0.390625)"/>
       <use xlink:href="#DejaVuSans-75" transform="translate(136.71875 0.390625)"/>
       <use xlink:href="#DejaVuSans-72" transform="translate(200.097656 0.390625)"/>
       <use xlink:href="#DejaVuSans-69" transform="translate(241.210938 0.390625)"/>
       <use xlink:href="#DejaVuSans-73" transform="translate(268.994141 0.390625)"/>
       <use xlink:href="#DejaVuSans-74" transform="translate(321.09375 0.390625)"/>
       <use xlink:href="#DejaVuSans-69" transform="translate(360.302734 0.390625)"/>
       <use xlink:href="#DejaVuSans-63" transform="translate(388.085938 0.390625)"/>
       <use xlink:href="#DejaVuSans-20" transform="translate(443.066406 0.390625)"/>
       <use xlink:href="#DejaVuSans-43" transform="translate(474.853516 0.390625)"/>
       <use xlink:href="#DejaVuSans-2d" transform="translate(544.677734 0.390625)"/>
       <use xlink:href="#DejaVuSans-Oblique-3b2" transform="translate(580.761719 0.390625)"/>
      </g>
     </g>
    </g>
    <g id="xtick_5">
     <g id="text_5">
      <!-- Template C-$\beta$ -->
      <g style="fill: #262626" transform="translate(501.761279 674.94886) rotate(-45) scale(0.2 -0.2)">
       <use xlink:href="#DejaVuSans-54" transform="translate(0 0.390625)"/>
       <use xlink:href="#DejaVuSans-65" transform="translate(61.083984 0.390625)"/>
       <use xlink:href="#DejaVuSans-6d" transform="translate(122.607422 0.390625)"/>
       <use xlink:href="#DejaVuSans-70" transform="translate(220.019531 0.390625)"/>
       <use xlink:href="#DejaVuSans-6c" transform="translate(283.496094 0.390625)"/>
       <use xlink:href="#DejaVuSans-61" transform="translate(311.279297 0.390625)"/>
       <use xlink:href="#DejaVuSans-74" transform="translate(372.558594 0.390625)"/>
       <use xlink:href="#DejaVuSans-65" transform="translate(411.767578 0.390625)"/>
       <use xlink:href="#DejaVuSans-20" transform="translate(473.291016 0.390625)"/>
       <use xlink:href="#DejaVuSans-43" transform="translate(505.078125 0.390625)"/>
       <use xlink:href="#DejaVuSans-2d" transform="translate(574.902344 0.390625)"/>
       <use xlink:href="#DejaVuSans-Oblique-3b2" transform="translate(610.986328 0.390625)"/>
      </g>
     </g>
    </g>
    <g id="xtick_6">
     <g id="text_6">
      <!-- AttnPacker -->
      <g style="fill: #262626" transform="translate(632.674133 655.348744) rotate(-45) scale(0.2 -0.2)">
       <defs>
        <path id="DejaVuSans-50" d="M 1259 4147 
L 1259 2394 
L 2053 2394 
Q 2494 2394 2734 2622 
Q 2975 2850 2975 3272 
Q 2975 3691 2734 3919 
Q 2494 4147 2053 4147 
L 1259 4147 
z
M 628 4666 
L 2053 4666 
Q 2838 4666 3239 4311 
Q 3641 3956 3641 3272 
Q 3641 2581 3239 2228 
Q 2838 1875 2053 1875 
L 1259 1875 
L 1259 0 
L 628 0 
L 628 4666 
z
" transform="scale(0.015625)"/>
       </defs>
       <use xlink:href="#DejaVuSans-41"/>
       <use xlink:href="#DejaVuSans-74" x="66.658203"/>
       <use xlink:href="#DejaVuSans-74" x="105.867188"/>
       <use xlink:href="#DejaVuSans-6e" x="145.076172"/>
       <use xlink:href="#DejaVuSans-50" x="208.455078"/>
       <use xlink:href="#DejaVuSans-61" x="264.257812"/>
       <use xlink:href="#DejaVuSans-63" x="325.537109"/>
       <use xlink:href="#DejaVuSans-6b" x="380.517578"/>
       <use xlink:href="#DejaVuSans-65" x="434.802734"/>
       <use xlink:href="#DejaVuSans-72" x="496.326172"/>
      </g>
     </g>
    </g>
    <g id="xtick_7">
     <g id="text_7">
      <!-- AttnPacker (AF2) -->
      <g style="fill: #262626" transform="translate(701.938324 697.684553) rotate(-45) scale(0.2 -0.2)">
       <defs>
        <path id="DejaVuSans-28" d="M 1984 4856 
Q 1566 4138 1362 3434 
Q 1159 2731 1159 2009 
Q 1159 1288 1364 580 
Q 1569 -128 1984 -844 
L 1484 -844 
Q 1016 -109 783 600 
Q 550 1309 550 2009 
Q 550 2706 781 3412 
Q 1013 4119 1484 4856 
L 1984 4856 
z
" transform="scale(0.015625)"/>
        <path id="DejaVuSans-46" d="M 628 4666 
L 3309 4666 
L 3309 4134 
L 1259 4134 
L 1259 2759 
L 3109 2759 
L 3109 2228 
L 1259 2228 
L 1259 0 
L 628 0 
L 628 4666 
z
" transform="scale(0.015625)"/>
        <path id="DejaVuSans-32" d="M 1228 531 
L 3431 531 
L 3431 0 
L 469 0 
L 469 531 
Q 828 903 1448 1529 
Q 2069 2156 2228 2338 
Q 2531 2678 2651 2914 
Q 2772 3150 2772 3378 
Q 2772 3750 2511 3984 
Q 2250 4219 1831 4219 
Q 1534 4219 1204 4116 
Q 875 4013 500 3803 
L 500 4441 
Q 881 4594 1212 4672 
Q 1544 4750 1819 4750 
Q 2544 4750 2975 4387 
Q 3406 4025 3406 3419 
Q 3406 3131 3298 2873 
Q 3191 2616 2906 2266 
Q 2828 2175 2409 1742 
Q 1991 1309 1228 531 
z
" transform="scale(0.015625)"/>
        <path id="DejaVuSans-29" d="M 513 4856 
L 1013 4856 
Q 1481 4119 1714 3412 
Q 1947 2706 1947 2009 
Q 1947 1309 1714 600 
Q 1481 -109 1013 -844 
L 513 -844 
Q 928 -128 1133 580 
Q 1338 1288 1338 2009 
Q 1338 2731 1133 3434 
Q 928 4138 513 4856 
z
" transform="scale(0.015625)"/>
       </defs>
       <use xlink:href="#DejaVuSans-41"/>
       <use xlink:href="#DejaVuSans-74" x="66.658203"/>
       <use xlink:href="#DejaVuSans-74" x="105.867188"/>
       <use xlink:href="#DejaVuSans-6e" x="145.076172"/>
       <use xlink:href="#DejaVuSans-50" x="208.455078"/>
       <use xlink:href="#DejaVuSans-61" x="264.257812"/>
       <use xlink:href="#DejaVuSans-63" x="325.537109"/>
       <use xlink:href="#DejaVuSans-6b" x="380.517578"/>
       <use xlink:href="#DejaVuSans-65" x="434.802734"/>
       <use xlink:href="#DejaVuSans-72" x="496.326172"/>
       <use xlink:href="#DejaVuSans-20" x="537.439453"/>
       <use xlink:href="#DejaVuSans-28" x="569.226562"/>
       <use xlink:href="#DejaVuSans-41" x="608.240234"/>
       <use xlink:href="#DejaVuSans-46" x="676.648438"/>
       <use xlink:href="#DejaVuSans-32" x="734.167969"/>
       <use xlink:href="#DejaVuSans-29" x="797.791016"/>
      </g>
     </g>
    </g>
   </g>
   <g id="matplotlib.axis_2">
    <g id="ytick_1">
     <g id="line2d_1">
      <path d="M 84.13125 542.736436 
L 865.33125 542.736436 
" clip-path="url(#p75149cf999)" style="fill: none; stroke: #cccccc; stroke-width: 0.8; stroke-linecap: round"/>
     </g>
     <g id="text_8">
      <!-- 0.00 -->
      <g style="fill: #262626" transform="translate(32.6 550.334873) scale(0.2 -0.2)">
       <defs>
        <path id="DejaVuSans-30" d="M 2034 4250 
Q 1547 4250 1301 3770 
Q 1056 3291 1056 2328 
Q 1056 1369 1301 889 
Q 1547 409 2034 409 
Q 2525 409 2770 889 
Q 3016 1369 3016 2328 
Q 3016 3291 2770 3770 
Q 2525 4250 2034 4250 
z
M 2034 4750 
Q 2819 4750 3233 4129 
Q 3647 3509 3647 2328 
Q 3647 1150 3233 529 
Q 2819 -91 2034 -91 
Q 1250 -91 836 529 
Q 422 1150 422 2328 
Q 422 3509 836 4129 
Q 1250 4750 2034 4750 
z
" transform="scale(0.015625)"/>
        <path id="DejaVuSans-2e" d="M 684 794 
L 1344 794 
L 1344 0 
L 684 0 
L 684 794 
z
" transform="scale(0.015625)"/>
       </defs>
       <use xlink:href="#DejaVuSans-30"/>
       <use xlink:href="#DejaVuSans-2e" x="63.623047"/>
       <use xlink:href="#DejaVuSans-30" x="95.410156"/>
       <use xlink:href="#DejaVuSans-30" x="159.033203"/>
      </g>
     </g>
    </g>
    <g id="ytick_2">
     <g id="line2d_2">
      <path d="M 84.13125 473.153254 
L 865.33125 473.153254 
" clip-path="url(#p75149cf999)" style="fill: none; stroke: #cccccc; stroke-width: 0.8; stroke-linecap: round"/>
     </g>
     <g id="text_9">
      <!-- 0.25 -->
      <g style="fill: #262626" transform="translate(32.6 480.751691) scale(0.2 -0.2)">
       <defs>
        <path id="DejaVuSans-35" d="M 691 4666 
L 3169 4666 
L 3169 4134 
L 1269 4134 
L 1269 2991 
Q 1406 3038 1543 3061 
Q 1681 3084 1819 3084 
Q 2600 3084 3056 2656 
Q 3513 2228 3513 1497 
Q 3513 744 3044 326 
Q 2575 -91 1722 -91 
Q 1428 -91 1123 -41 
Q 819 9 494 109 
L 494 744 
Q 775 591 1075 516 
Q 1375 441 1709 441 
Q 2250 441 2565 725 
Q 2881 1009 2881 1497 
Q 2881 1984 2565 2268 
Q 2250 2553 1709 2553 
Q 1456 2553 1204 2497 
Q 953 2441 691 2322 
L 691 4666 
z
" transform="scale(0.015625)"/>
       </defs>
       <use xlink:href="#DejaVuSans-30"/>
       <use xlink:href="#DejaVuSans-2e" x="63.623047"/>
       <use xlink:href="#DejaVuSans-32" x="95.410156"/>
       <use xlink:href="#DejaVuSans-35" x="159.033203"/>
      </g>
     </g>
    </g>
    <g id="ytick_3">
     <g id="line2d_3">
      <path d="M 84.13125 403.570072 
L 865.33125 403.570072 
" clip-path="url(#p75149cf999)" style="fill: none; stroke: #cccccc; stroke-width: 0.8; stroke-linecap: round"/>
     </g>
     <g id="text_10">
      <!-- 0.50 -->
      <g style="fill: #262626" transform="translate(32.6 411.168509) scale(0.2 -0.2)">
       <use xlink:href="#DejaVuSans-30"/>
       <use xlink:href="#DejaVuSans-2e" x="63.623047"/>
       <use xlink:href="#DejaVuSans-35" x="95.410156"/>
       <use xlink:href="#DejaVuSans-30" x="159.033203"/>
      </g>
     </g>
    </g>
    <g id="ytick_4">
     <g id="line2d_4">
      <path d="M 84.13125 333.98689 
L 865.33125 333.98689 
" clip-path="url(#p75149cf999)" style="fill: none; stroke: #cccccc; stroke-width: 0.8; stroke-linecap: round"/>
     </g>
     <g id="text_11">
      <!-- 0.75 -->
      <g style="fill: #262626" transform="translate(32.6 341.585327) scale(0.2 -0.2)">
       <defs>
        <path id="DejaVuSans-37" d="M 525 4666 
L 3525 4666 
L 3525 4397 
L 1831 0 
L 1172 0 
L 2766 4134 
L 525 4134 
L 525 4666 
z
" transform="scale(0.015625)"/>
       </defs>
       <use xlink:href="#DejaVuSans-30"/>
       <use xlink:href="#DejaVuSans-2e" x="63.623047"/>
       <use xlink:href="#DejaVuSans-37" x="95.410156"/>
       <use xlink:href="#DejaVuSans-35" x="159.033203"/>
      </g>
     </g>
    </g>
    <g id="ytick_5">
     <g id="line2d_5">
      <path d="M 84.13125 264.403707 
L 865.33125 264.403707 
" clip-path="url(#p75149cf999)" style="fill: none; stroke: #cccccc; stroke-width: 0.8; stroke-linecap: round"/>
     </g>
     <g id="text_12">
      <!-- 1.00 -->
      <g style="fill: #262626" transform="translate(32.6 272.002145) scale(0.2 -0.2)">
       <defs>
        <path id="DejaVuSans-31" d="M 794 531 
L 1825 531 
L 1825 4091 
L 703 3866 
L 703 4441 
L 1819 4666 
L 2450 4666 
L 2450 531 
L 3481 531 
L 3481 0 
L 794 0 
L 794 531 
z
" transform="scale(0.015625)"/>
       </defs>
       <use xlink:href="#DejaVuSans-31"/>
       <use xlink:href="#DejaVuSans-2e" x="63.623047"/>
       <use xlink:href="#DejaVuSans-30" x="95.410156"/>
       <use xlink:href="#DejaVuSans-30" x="159.033203"/>
      </g>
     </g>
    </g>
    <g id="ytick_6">
     <g id="line2d_6">
      <path d="M 84.13125 194.820525 
L 865.33125 194.820525 
" clip-path="url(#p75149cf999)" style="fill: none; stroke: #cccccc; stroke-width: 0.8; stroke-linecap: round"/>
     </g>
     <g id="text_13">
      <!-- 1.25 -->
      <g style="fill: #262626" transform="translate(32.6 202.418963) scale(0.2 -0.2)">
       <use xlink:href="#DejaVuSans-31"/>
       <use xlink:href="#DejaVuSans-2e" x="63.623047"/>
       <use xlink:href="#DejaVuSans-32" x="95.410156"/>
       <use xlink:href="#DejaVuSans-35" x="159.033203"/>
      </g>
     </g>
    </g>
    <g id="ytick_7">
     <g id="line2d_7">
      <path d="M 84.13125 125.237343 
L 865.33125 125.237343 
" clip-path="url(#p75149cf999)" style="fill: none; stroke: #cccccc; stroke-width: 0.8; stroke-linecap: round"/>
     </g>
     <g id="text_14">
      <!-- 1.50 -->
      <g style="fill: #262626" transform="translate(32.6 132.835781) scale(0.2 -0.2)">
       <use xlink:href="#DejaVuSans-31"/>
       <use xlink:href="#DejaVuSans-2e" x="63.623047"/>
       <use xlink:href="#DejaVuSans-35" x="95.410156"/>
       <use xlink:href="#DejaVuSans-30" x="159.033203"/>
      </g>
     </g>
    </g>
    <g id="ytick_8">
     <g id="line2d_8">
      <path d="M 84.13125 55.654161 
L 865.33125 55.654161 
" clip-path="url(#p75149cf999)" style="fill: none; stroke: #cccccc; stroke-width: 0.8; stroke-linecap: round"/>
     </g>
     <g id="text_15">
      <!-- 1.75 -->
      <g style="fill: #262626" transform="translate(32.6 63.252599) scale(0.2 -0.2)">
       <use xlink:href="#DejaVuSans-31"/>
       <use xlink:href="#DejaVuSans-2e" x="63.623047"/>
       <use xlink:href="#DejaVuSans-37" x="95.410156"/>
       <use xlink:href="#DejaVuSans-35" x="159.033203"/>
      </g>
     </g>
    </g>
    <g id="text_16">
     <!-- RMSD ($\AA$) -->
     <g style="fill: #262626" transform="translate(24.440625 331.9) rotate(-90) scale(0.2 -0.2)">
      <defs>
       <path id="DejaVuSans-52" d="M 2841 2188 
Q 3044 2119 3236 1894 
Q 3428 1669 3622 1275 
L 4263 0 
L 3584 0 
L 2988 1197 
Q 2756 1666 2539 1819 
Q 2322 1972 1947 1972 
L 1259 1972 
L 1259 0 
L 628 0 
L 628 4666 
L 2053 4666 
Q 2853 4666 3247 4331 
Q 3641 3997 3641 3322 
Q 3641 2881 3436 2590 
Q 3231 2300 2841 2188 
z
M 1259 4147 
L 1259 2491 
L 2053 2491 
Q 2509 2491 2742 2702 
Q 2975 2913 2975 3322 
Q 2975 3731 2742 3939 
Q 2509 4147 2053 4147 
L 1259 4147 
z
" transform="scale(0.015625)"/>
       <path id="DejaVuSans-44" d="M 1259 4147 
L 1259 519 
L 2022 519 
Q 2988 519 3436 956 
Q 3884 1394 3884 2338 
Q 3884 3275 3436 3711 
Q 2988 4147 2022 4147 
L 1259 4147 
z
M 628 4666 
L 1925 4666 
Q 3281 4666 3915 4102 
Q 4550 3538 4550 2338 
Q 4550 1131 3912 565 
Q 3275 0 1925 0 
L 628 0 
L 628 4666 
z
" transform="scale(0.015625)"/>
       <path id="DejaVuSans-Oblique-c5" d="M 3188 5081 
Q 3188 5278 3048 5417 
Q 2909 5556 2713 5556 
Q 2513 5556 2377 5420 
Q 2241 5284 2241 5081 
Q 2241 4884 2377 4746 
Q 2513 4609 2713 4609 
Q 2909 4609 3048 4746 
Q 3188 4884 3188 5081 
z
M 2203 4397 
Q 2034 4513 1945 4689 
Q 1856 4866 1856 5081 
Q 1856 5438 2106 5689 
Q 2356 5941 2713 5941 
Q 3069 5941 3320 5689 
Q 3572 5438 3572 5081 
Q 3572 4834 3458 4643 
Q 3344 4453 3128 4341 
L 3938 0 
L 3278 0 
L 3084 1197 
L 984 1197 
L 325 0 
L -341 0 
L 2203 4397 
z
M 2584 4044 
L 1275 1722 
L 2988 1722 
L 2584 4044 
z
" transform="scale(0.015625)"/>
      </defs>
      <use xlink:href="#DejaVuSans-52" transform="translate(0 0.171875)"/>
      <use xlink:href="#DejaVuSans-4d" transform="translate(69.482422 0.171875)"/>
      <use xlink:href="#DejaVuSans-53" transform="translate(155.761719 0.171875)"/>
      <use xlink:href="#DejaVuSans-44" transform="translate(219.238281 0.171875)"/>
      <use xlink:href="#DejaVuSans-20" transform="translate(296.240234 0.171875)"/>
      <use xlink:href="#DejaVuSans-28" transform="translate(328.027344 0.171875)"/>
      <use xlink:href="#DejaVuSans-Oblique-c5" transform="translate(367.041016 0.171875)"/>
      <use xlink:href="#DejaVuSans-29" transform="translate(435.449219 0.171875)"/>
     </g>
    </g>
   </g>
   <g id="PolyCollection_1">
    <defs>
     <path id="m79e828d18a" d="M 140.225285 -212.448021 
L 139.637215 -212.448021 
L 139.548142 -216.525896 
L 139.439465 -220.60377 
L 139.308941 -224.681645 
L 139.154456 -228.759519 
L 138.974004 -232.837394 
L 138.765598 -236.915268 
L 138.5271 -240.993142 
L 138.255966 -245.071017 
L 137.948922 -249.148891 
L 137.601611 -253.226766 
L 137.208252 -257.30464 
L 136.761377 -261.382514 
L 136.251721 -265.460389 
L 135.668315 -269.538263 
L 134.998841 -273.616138 
L 134.23026 -277.694012 
L 133.349699 -281.771887 
L 132.345531 -285.849761 
L 131.208566 -289.927635 
L 129.933216 -294.00551 
L 128.518514 -298.083384 
L 126.968847 -302.161259 
L 125.29431 -306.239133 
L 123.510618 -310.317007 
L 121.638571 -314.394882 
L 119.703117 -318.472756 
L 117.73211 -322.550631 
L 115.754884 -326.628505 
L 113.800791 -330.706379 
L 111.897825 -334.784254 
L 110.071446 -338.862128 
L 108.343676 -342.940003 
L 106.732493 -347.017877 
L 105.251521 -351.095752 
L 103.909987 -355.173626 
L 102.712905 -359.2515 
L 101.661432 -363.329375 
L 100.753372 -367.407249 
L 99.983784 -371.485124 
L 99.345679 -375.562998 
L 98.830766 -379.640872 
L 98.430203 -383.718747 
L 98.135295 -387.796621 
L 97.93805 -391.874496 
L 97.831502 -395.95237 
L 97.809737 -400.030245 
L 97.86754 -404.108119 
L 97.9997 -408.185993 
L 98.200003 -412.263868 
L 98.460073 -416.341742 
L 98.768242 -420.419617 
L 99.10867 -424.497491 
L 99.46096 -428.575365 
L 99.800436 -432.65324 
L 100.099198 -436.731114 
L 100.327957 -440.808989 
L 100.458518 -444.886863 
L 100.466682 -448.964737 
L 100.335238 -453.042612 
L 100.056664 -457.120486 
L 99.635175 -461.198361 
L 99.087805 -465.276235 
L 98.44431 -469.35411 
L 97.74584 -473.431984 
L 97.042462 -477.509858 
L 96.389772 -481.587733 
L 95.844948 -485.665607 
L 95.462657 -489.743482 
L 95.29125 -493.821356 
L 95.369619 -497.89923 
L 95.725002 -501.977105 
L 96.371885 -506.054979 
L 97.31201 -510.132854 
L 98.535365 -514.210728 
L 100.021922 -518.288603 
L 101.743837 -522.366477 
L 103.667799 -526.444351 
L 105.757267 -530.522226 
L 107.974396 -534.6001 
L 110.28152 -538.677975 
L 112.642199 -542.755849 
L 115.021862 -546.833723 
L 117.388163 -550.911598 
L 119.711178 -554.989472 
L 121.963561 -559.067347 
L 124.120738 -563.145221 
L 126.161188 -567.223095 
L 128.066795 -571.30097 
L 129.823232 -575.378844 
L 131.420292 -579.456719 
L 132.852118 -583.534593 
L 134.117243 -587.612468 
L 135.218418 -591.690342 
L 136.162223 -595.768216 
L 136.958481 -599.846091 
L 137.619529 -603.923965 
L 138.159417 -608.00184 
L 138.593092 -612.079714 
L 138.935651 -616.157588 
L 140.926849 -616.157588 
L 140.926849 -616.157588 
L 141.269408 -612.079714 
L 141.703083 -608.00184 
L 142.242971 -603.923965 
L 142.904019 -599.846091 
L 143.700277 -595.768216 
L 144.644082 -591.690342 
L 145.745257 -587.612468 
L 147.010382 -583.534593 
L 148.442208 -579.456719 
L 150.039268 -575.378844 
L 151.795705 -571.30097 
L 153.701312 -567.223095 
L 155.741762 -563.145221 
L 157.898939 -559.067347 
L 160.151322 -554.989472 
L 162.474337 -550.911598 
L 164.840638 -546.833723 
L 167.220301 -542.755849 
L 169.58098 -538.677975 
L 171.888104 -534.6001 
L 174.105233 -530.522226 
L 176.194701 -526.444351 
L 178.118663 -522.366477 
L 179.840578 -518.288603 
L 181.327135 -514.210728 
L 182.55049 -510.132854 
L 183.490615 -506.054979 
L 184.137498 -501.977105 
L 184.492881 -497.89923 
L 184.57125 -493.821356 
L 184.399843 -489.743482 
L 184.017552 -485.665607 
L 183.472728 -481.587733 
L 182.820038 -477.509858 
L 182.11666 -473.431984 
L 181.41819 -469.35411 
L 180.774695 -465.276235 
L 180.227325 -461.198361 
L 179.805836 -457.120486 
L 179.527262 -453.042612 
L 179.395818 -448.964737 
L 179.403982 -444.886863 
L 179.534543 -440.808989 
L 179.763302 -436.731114 
L 180.062064 -432.65324 
L 180.40154 -428.575365 
L 180.75383 -424.497491 
L 181.094258 -420.419617 
L 181.402427 -416.341742 
L 181.662497 -412.263868 
L 181.8628 -408.185993 
L 181.99496 -404.108119 
L 182.052763 -400.030245 
L 182.030998 -395.95237 
L 181.92445 -391.874496 
L 181.727205 -387.796621 
L 181.432297 -383.718747 
L 181.031734 -379.640872 
L 180.516821 -375.562998 
L 179.878716 -371.485124 
L 179.109128 -367.407249 
L 178.201068 -363.329375 
L 177.149595 -359.2515 
L 175.952513 -355.173626 
L 174.610979 -351.095752 
L 173.130007 -347.017877 
L 171.518824 -342.940003 
L 169.791054 -338.862128 
L 167.964675 -334.784254 
L 166.061709 -330.706379 
L 164.107616 -326.628505 
L 162.13039 -322.550631 
L 160.159383 -318.472756 
L 158.223929 -314.394882 
L 156.351882 -310.317007 
L 154.56819 -306.239133 
L 152.893653 -302.161259 
L 151.343986 -298.083384 
L 149.929284 -294.00551 
L 148.653934 -289.927635 
L 147.516969 -285.849761 
L 146.512801 -281.771887 
L 145.63224 -277.694012 
L 144.863659 -273.616138 
L 144.194185 -269.538263 
L 143.610779 -265.460389 
L 143.101123 -261.382514 
L 142.654248 -257.30464 
L 142.260889 -253.226766 
L 141.913578 -249.148891 
L 141.606534 -245.071017 
L 141.3354 -240.993142 
L 141.096902 -236.915268 
L 140.888496 -232.837394 
L 140.708044 -228.759519 
L 140.553559 -224.681645 
L 140.423035 -220.60377 
L 140.314358 -216.525896 
L 140.225285 -212.448021 
z
" style="stroke: #3d3d3d; stroke-opacity: 0.5"/>
    </defs>
    <g clip-path="url(#p75149cf999)">
     <use xlink:href="#m79e828d18a" x="0" y="707.825675" style="fill: #3274a1; fill-opacity: 0.5; stroke: #3d3d3d; stroke-opacity: 0.5"/>
    </g>
   </g>
   <g id="PolyCollection_2">
    <defs>
     <path id="m0fbff29102" d="M 252.113782 -171.425675 
L 250.948718 -171.425675 
L 250.74915 -175.011964 
L 250.494478 -178.598254 
L 250.174047 -182.184543 
L 249.77651 -185.770832 
L 249.290181 -189.357122 
L 248.703477 -192.943411 
L 248.005453 -196.5297 
L 247.186404 -200.11599 
L 246.238491 -203.702279 
L 245.156365 -207.288568 
L 243.937719 -210.874857 
L 242.583742 -214.461147 
L 241.099403 -218.047436 
L 239.493547 -221.633725 
L 237.778762 -225.220015 
L 235.97102 -228.806304 
L 234.089104 -232.392593 
L 232.153853 -235.978883 
L 230.187292 -239.565172 
L 228.211704 -243.151461 
L 226.248736 -246.737751 
L 224.318602 -250.32404 
L 222.439466 -253.910329 
L 220.627046 -257.496619 
L 218.894465 -261.082908 
L 217.252355 -264.669197 
L 215.709167 -268.255487 
L 214.271653 -271.841776 
L 212.945426 -275.428065 
L 211.735532 -279.014355 
L 210.646941 -282.600644 
L 209.684889 -286.186933 
L 208.855034 -289.773223 
L 208.163385 -293.359512 
L 207.616023 -296.945801 
L 207.218648 -300.532091 
L 206.976002 -304.11838 
L 206.89125 -307.704669 
L 206.965397 -311.290959 
L 207.196804 -314.877248 
L 207.580876 -318.463537 
L 208.109956 -322.049827 
L 208.773429 -325.636116 
L 209.558044 -329.222405 
L 210.448392 -332.808695 
L 211.427525 -336.394984 
L 212.47762 -339.981273 
L 213.580655 -343.567563 
L 214.719042 -347.153852 
L 215.876162 -350.740141 
L 217.036805 -354.326431 
L 218.18748 -357.91272 
L 219.316622 -361.499009 
L 220.4147 -365.085299 
L 221.474235 -368.671588 
L 222.489765 -372.257877 
L 223.457752 -375.844167 
L 224.376432 -379.430456 
L 225.245628 -383.016745 
L 226.066507 -386.603035 
L 226.841288 -390.189324 
L 227.572911 -393.775613 
L 228.264677 -397.361903 
L 228.919902 -400.948192 
L 229.541611 -404.534481 
L 230.132321 -408.120771 
L 230.693959 -411.70706 
L 231.227936 -415.293349 
L 231.735388 -418.879638 
L 232.217572 -422.465928 
L 232.67636 -426.052217 
L 233.114769 -429.638506 
L 233.537433 -433.224796 
L 233.95092 -436.811085 
L 234.363815 -440.397374 
L 234.786518 -443.983664 
L 235.230726 -447.569953 
L 235.708635 -451.156242 
L 236.231939 -454.742532 
L 236.810716 -458.328821 
L 237.452359 -461.91511 
L 238.160659 -465.5014 
L 238.935182 -469.087689 
L 239.77101 -472.673978 
L 240.658892 -476.260268 
L 241.585787 -479.846557 
L 242.535754 -483.432846 
L 243.491068 -487.019136 
L 244.433459 -490.605425 
L 245.345332 -494.191714 
L 246.210858 -497.778004 
L 247.016843 -501.364293 
L 247.753302 -504.950582 
L 248.413737 -508.536872 
L 248.995117 -512.123161 
L 249.497607 -515.70945 
L 249.924104 -519.29574 
L 250.279659 -522.882029 
L 250.570849 -526.468318 
L 252.491651 -526.468318 
L 252.491651 -526.468318 
L 252.782841 -522.882029 
L 253.138396 -519.29574 
L 253.564893 -515.70945 
L 254.067383 -512.123161 
L 254.648763 -508.536872 
L 255.309198 -504.950582 
L 256.045657 -501.364293 
L 256.851642 -497.778004 
L 257.717168 -494.191714 
L 258.629041 -490.605425 
L 259.571432 -487.019136 
L 260.526746 -483.432846 
L 261.476713 -479.846557 
L 262.403608 -476.260268 
L 263.29149 -472.673978 
L 264.127318 -469.087689 
L 264.901841 -465.5014 
L 265.610141 -461.91511 
L 266.251784 -458.328821 
L 266.830561 -454.742532 
L 267.353865 -451.156242 
L 267.831774 -447.569953 
L 268.275982 -443.983664 
L 268.698685 -440.397374 
L 269.11158 -436.811085 
L 269.525067 -433.224796 
L 269.947731 -429.638506 
L 270.38614 -426.052217 
L 270.844928 -422.465928 
L 271.327112 -418.879638 
L 271.834564 -415.293349 
L 272.368541 -411.70706 
L 272.930179 -408.120771 
L 273.520889 -404.534481 
L 274.142598 -400.948192 
L 274.797823 -397.361903 
L 275.489589 -393.775613 
L 276.221212 -390.189324 
L 276.995993 -386.603035 
L 277.816872 -383.016745 
L 278.686068 -379.430456 
L 279.604748 -375.844167 
L 280.572735 -372.257877 
L 281.588265 -368.671588 
L 282.6478 -365.085299 
L 283.745878 -361.499009 
L 284.87502 -357.91272 
L 286.025695 -354.326431 
L 287.186338 -350.740141 
L 288.343458 -347.153852 
L 289.481845 -343.567563 
L 290.58488 -339.981273 
L 291.634975 -336.394984 
L 292.614108 -332.808695 
L 293.504456 -329.222405 
L 294.289071 -325.636116 
L 294.952544 -322.049827 
L 295.481624 -318.463537 
L 295.865696 -314.877248 
L 296.097103 -311.290959 
L 296.17125 -307.704669 
L 296.086498 -304.11838 
L 295.843852 -300.532091 
L 295.446477 -296.945801 
L 294.899115 -293.359512 
L 294.207466 -289.773223 
L 293.377611 -286.186933 
L 292.415559 -282.600644 
L 291.326968 -279.014355 
L 290.117074 -275.428065 
L 288.790847 -271.841776 
L 287.353333 -268.255487 
L 285.810145 -264.669197 
L 284.168035 -261.082908 
L 282.435454 -257.496619 
L 280.623034 -253.910329 
L 278.743898 -250.32404 
L 276.813764 -246.737751 
L 274.850796 -243.151461 
L 272.875208 -239.565172 
L 270.908647 -235.978883 
L 268.973396 -232.392593 
L 267.09148 -228.806304 
L 265.283738 -225.220015 
L 263.568953 -221.633725 
L 261.963097 -218.047436 
L 260.478758 -214.461147 
L 259.124781 -210.874857 
L 257.906135 -207.288568 
L 256.824009 -203.702279 
L 255.876096 -200.11599 
L 255.057047 -196.5297 
L 254.359023 -192.943411 
L 253.772319 -189.357122 
L 253.28599 -185.770832 
L 252.888453 -182.184543 
L 252.568022 -178.598254 
L 252.31335 -175.011964 
L 252.113782 -171.425675 
z
" style="stroke: #3d3d3d; stroke-opacity: 0.5"/>
    </defs>
    <g clip-path="url(#p75149cf999)">
     <use xlink:href="#m0fbff29102" x="0" y="707.825675" style="fill: #d684bd; fill-opacity: 0.5; stroke: #3d3d3d; stroke-opacity: 0.5"/>
    </g>
   </g>
   <g id="PolyCollection_3">
    <defs>
     <path id="m6ca16fe280" d="M 363.374797 -305.15976 
L 362.887703 -305.15976 
L 362.800752 -308.89982 
L 362.692378 -312.63988 
L 362.560608 -316.379939 
L 362.40416 -320.119999 
L 362.222516 -323.860059 
L 362.015842 -327.600119 
L 361.784736 -331.340178 
L 361.529799 -335.080238 
L 361.251084 -338.820298 
L 360.947519 -342.560358 
L 360.61642 -346.300417 
L 360.253221 -350.040477 
L 359.851542 -353.780537 
L 359.403631 -357.520597 
L 358.901166 -361.260656 
L 358.336316 -365.000716 
L 357.702863 -368.740776 
L 356.997182 -372.480836 
L 356.218872 -376.220895 
L 355.370855 -379.960955 
L 354.458916 -383.701015 
L 353.490697 -387.441075 
L 352.47435 -391.181134 
L 351.41706 -394.921194 
L 350.323747 -398.661254 
L 349.196198 -402.401314 
L 348.032814 -406.141373 
L 346.82908 -409.881433 
L 345.578688 -413.621493 
L 344.275193 -417.361553 
L 342.913925 -421.101612 
L 341.493891 -424.841672 
L 340.019334 -428.581732 
L 338.500706 -432.321792 
L 336.954828 -436.061851 
L 335.40416 -439.801911 
L 333.875175 -443.541971 
L 332.395991 -447.282031 
L 330.993501 -451.02209 
L 329.690349 -454.76215 
L 328.502154 -458.50221 
L 327.435399 -462.242269 
L 326.486362 -465.982329 
L 325.64135 -469.722389 
L 324.87838 -473.462449 
L 324.170219 -477.202508 
L 323.488537 -480.942568 
L 322.808703 -484.682628 
L 322.114632 -488.422688 
L 321.402979 -492.162747 
L 320.686035 -495.902807 
L 319.992751 -499.642867 
L 319.367552 -503.382927 
L 318.866896 -507.122986 
L 318.553844 -510.863046 
L 318.49125 -514.603106 
L 318.734402 -518.343166 
L 319.324123 -522.083225 
L 320.281284 -525.823285 
L 321.603554 -529.563345 
L 323.264859 -533.303405 
L 325.217639 -537.043464 
L 327.397584 -540.783524 
L 329.730106 -544.523584 
L 332.137631 -548.263644 
L 334.546659 -552.003703 
L 336.893665 -555.743763 
L 339.129176 -559.483823 
L 341.219682 -563.223883 
L 343.147429 -566.963942 
L 344.908453 -570.704002 
L 346.509426 -574.444062 
L 347.963994 -578.184122 
L 349.289209 -581.924181 
L 350.502546 -585.664241 
L 351.619787 -589.404301 
L 352.65385 -593.144361 
L 353.614475 -596.88442 
L 354.508549 -600.62448 
L 355.34082 -604.36454 
L 356.114732 -608.104599 
L 356.833182 -611.844659 
L 357.499048 -615.584719 
L 358.115443 -619.324779 
L 358.685708 -623.064838 
L 359.213202 -626.804898 
L 359.701012 -630.544958 
L 360.15166 -634.285018 
L 360.566919 -638.025077 
L 360.947771 -641.765137 
L 361.294524 -645.505197 
L 361.607071 -649.245257 
L 361.885207 -652.985316 
L 362.128969 -656.725376 
L 362.338909 -660.465436 
L 362.516267 -664.205496 
L 362.663018 -667.945555 
L 362.781807 -671.685615 
L 362.875787 -675.425675 
L 363.386713 -675.425675 
L 363.386713 -675.425675 
L 363.480693 -671.685615 
L 363.599482 -667.945555 
L 363.746233 -664.205496 
L 363.923591 -660.465436 
L 364.133531 -656.725376 
L 364.377293 -652.985316 
L 364.655429 -649.245257 
L 364.967976 -645.505197 
L 365.314729 -641.765137 
L 365.695581 -638.025077 
L 366.11084 -634.285018 
L 366.561488 -630.544958 
L 367.049298 -626.804898 
L 367.576792 -623.064838 
L 368.147057 -619.324779 
L 368.763452 -615.584719 
L 369.429318 -611.844659 
L 370.147768 -608.104599 
L 370.92168 -604.36454 
L 371.753951 -600.62448 
L 372.648025 -596.88442 
L 373.60865 -593.144361 
L 374.642713 -589.404301 
L 375.759954 -585.664241 
L 376.973291 -581.924181 
L 378.298506 -578.184122 
L 379.753074 -574.444062 
L 381.354047 -570.704002 
L 383.115071 -566.963942 
L 385.042818 -563.223883 
L 387.133324 -559.483823 
L 389.368835 -555.743763 
L 391.715841 -552.003703 
L 394.124869 -548.263644 
L 396.532394 -544.523584 
L 398.864916 -540.783524 
L 401.044861 -537.043464 
L 402.997641 -533.303405 
L 404.658946 -529.563345 
L 405.981216 -525.823285 
L 406.938377 -522.083225 
L 407.528098 -518.343166 
L 407.77125 -514.603106 
L 407.708656 -510.863046 
L 407.395604 -507.122986 
L 406.894948 -503.382927 
L 406.269749 -499.642867 
L 405.576465 -495.902807 
L 404.859521 -492.162747 
L 404.147868 -488.422688 
L 403.453797 -484.682628 
L 402.773963 -480.942568 
L 402.092281 -477.202508 
L 401.38412 -473.462449 
L 400.62115 -469.722389 
L 399.776138 -465.982329 
L 398.827101 -462.242269 
L 397.760346 -458.50221 
L 396.572151 -454.76215 
L 395.268999 -451.02209 
L 393.866509 -447.282031 
L 392.387325 -443.541971 
L 390.85834 -439.801911 
L 389.307672 -436.061851 
L 387.761794 -432.321792 
L 386.243166 -428.581732 
L 384.768609 -424.841672 
L 383.348575 -421.101612 
L 381.987307 -417.361553 
L 380.683812 -413.621493 
L 379.43342 -409.881433 
L 378.229686 -406.141373 
L 377.066302 -402.401314 
L 375.938753 -398.661254 
L 374.84544 -394.921194 
L 373.78815 -391.181134 
L 372.771803 -387.441075 
L 371.803584 -383.701015 
L 370.891645 -379.960955 
L 370.043628 -376.220895 
L 369.265318 -372.480836 
L 368.559637 -368.740776 
L 367.926184 -365.000716 
L 367.361334 -361.260656 
L 366.858869 -357.520597 
L 366.410958 -353.780537 
L 366.009279 -350.040477 
L 365.64608 -346.300417 
L 365.314981 -342.560358 
L 365.011416 -338.820298 
L 364.732701 -335.080238 
L 364.477764 -331.340178 
L 364.246658 -327.600119 
L 364.039984 -323.860059 
L 363.85834 -320.119999 
L 363.701892 -316.379939 
L 363.570122 -312.63988 
L 363.461748 -308.89982 
L 363.374797 -305.15976 
z
" style="stroke: #3d3d3d; stroke-opacity: 0.5"/>
    </defs>
    <g clip-path="url(#p75149cf999)">
     <use xlink:href="#m6ca16fe280" x="0" y="707.825675" style="fill: #c03d3e; fill-opacity: 0.5; stroke: #3d3d3d; stroke-opacity: 0.5"/>
    </g>
   </g>
   <g id="PolyCollection_4">
    <defs>
     <path id="md715e60fb8" d="M 475.028969 -206.154195 
L 474.433531 -206.154195 
L 474.326862 -210.60347 
L 474.190712 -215.052744 
L 474.019645 -219.502018 
L 473.80779 -223.951293 
L 473.548836 -228.400567 
L 473.235998 -232.849842 
L 472.861967 -237.299116 
L 472.418874 -241.74839 
L 471.898312 -246.197665 
L 471.291464 -250.646939 
L 470.589396 -255.096214 
L 469.783546 -259.545488 
L 468.86641 -263.994762 
L 467.832392 -268.444037 
L 466.678712 -272.893311 
L 465.406245 -277.342586 
L 464.020135 -281.79186 
L 462.53003 -286.241134 
L 460.949829 -290.690409 
L 459.296923 -295.139683 
L 457.590983 -299.588958 
L 455.852481 -304.038232 
L 454.101173 -308.487506 
L 452.354838 -312.936781 
L 450.628529 -317.386055 
L 448.934498 -321.83533 
L 447.282849 -326.284604 
L 445.68278 -330.733878 
L 444.144137 -335.183153 
L 442.678911 -339.632427 
L 441.302238 -344.081702 
L 440.032553 -348.530976 
L 438.890664 -352.98025 
L 437.897737 -357.429525 
L 437.072398 -361.878799 
L 436.427367 -366.328074 
L 435.966204 -370.777348 
L 435.680762 -375.226622 
L 435.549901 -379.675897 
L 435.539842 -384.125171 
L 435.606295 -388.574446 
L 435.698217 -393.02372 
L 435.762788 -397.472994 
L 435.751004 -401.922269 
L 435.623147 -406.371543 
L 435.353409 -410.820818 
L 434.933064 -415.270092 
L 434.37176 -419.719366 
L 433.696793 -424.168641 
L 432.950497 -428.617915 
L 432.186127 -433.06719 
L 431.46284 -437.516464 
L 430.840427 -441.965738 
L 430.37447 -446.415013 
L 430.112465 -450.864287 
L 430.09125 -455.313562 
L 430.335851 -459.762836 
L 430.8596 -464.212111 
L 431.665219 -468.661385 
L 432.746416 -473.110659 
L 434.089578 -477.559934 
L 435.675198 -482.009208 
L 437.478824 -486.458483 
L 439.471537 -490.907757 
L 441.620092 -495.357031 
L 443.886997 -499.806306 
L 446.230834 -504.25558 
L 448.607063 -508.704855 
L 450.96947 -513.154129 
L 453.272204 -517.603403 
L 455.47225 -522.052678 
L 457.532034 -526.501952 
L 459.42179 -530.951227 
L 461.121369 -535.400501 
L 462.621216 -539.849775 
L 463.922377 -544.29905 
L 465.035568 -548.748324 
L 465.979422 -553.197599 
L 466.778172 -557.646873 
L 467.459067 -562.096147 
L 468.049811 -566.545422 
L 468.576296 -570.994696 
L 469.060823 -575.443971 
L 469.520923 -579.893245 
L 469.968804 -584.342519 
L 470.411396 -588.791794 
L 470.85088 -593.241068 
L 471.285581 -597.690343 
L 471.711064 -602.139617 
L 472.121299 -606.588891 
L 472.509754 -611.038166 
L 472.870332 -615.48744 
L 473.198065 -619.936715 
L 473.489557 -624.385989 
L 473.743171 -628.835263 
L 473.958993 -633.284538 
L 474.138617 -637.733812 
L 474.284831 -642.183087 
L 474.40124 -646.632361 
L 475.06126 -646.632361 
L 475.06126 -646.632361 
L 475.177669 -642.183087 
L 475.323883 -637.733812 
L 475.503507 -633.284538 
L 475.719329 -628.835263 
L 475.972943 -624.385989 
L 476.264435 -619.936715 
L 476.592168 -615.48744 
L 476.952746 -611.038166 
L 477.341201 -606.588891 
L 477.751436 -602.139617 
L 478.176919 -597.690343 
L 478.61162 -593.241068 
L 479.051104 -588.791794 
L 479.493696 -584.342519 
L 479.941577 -579.893245 
L 480.401677 -575.443971 
L 480.886204 -570.994696 
L 481.412689 -566.545422 
L 482.003433 -562.096147 
L 482.684328 -557.646873 
L 483.483078 -553.197599 
L 484.426932 -548.748324 
L 485.540123 -544.29905 
L 486.841284 -539.849775 
L 488.341131 -535.400501 
L 490.04071 -530.951227 
L 491.930466 -526.501952 
L 493.99025 -522.052678 
L 496.190296 -517.603403 
L 498.49303 -513.154129 
L 500.855437 -508.704855 
L 503.231666 -504.25558 
L 505.575503 -499.806306 
L 507.842408 -495.357031 
L 509.990963 -490.907757 
L 511.983676 -486.458483 
L 513.787302 -482.009208 
L 515.372922 -477.559934 
L 516.716084 -473.110659 
L 517.797281 -468.661385 
L 518.6029 -464.212111 
L 519.126649 -459.762836 
L 519.37125 -455.313562 
L 519.350035 -450.864287 
L 519.08803 -446.415013 
L 518.622073 -441.965738 
L 517.99966 -437.516464 
L 517.276373 -433.06719 
L 516.512003 -428.617915 
L 515.765707 -424.168641 
L 515.09074 -419.719366 
L 514.529436 -415.270092 
L 514.109091 -410.820818 
L 513.839353 -406.371543 
L 513.711496 -401.922269 
L 513.699712 -397.472994 
L 513.764283 -393.02372 
L 513.856205 -388.574446 
L 513.922658 -384.125171 
L 513.912599 -379.675897 
L 513.781738 -375.226622 
L 513.496296 -370.777348 
L 513.035133 -366.328074 
L 512.390102 -361.878799 
L 511.564763 -357.429525 
L 510.571836 -352.98025 
L 509.429947 -348.530976 
L 508.160262 -344.081702 
L 506.783589 -339.632427 
L 505.318363 -335.183153 
L 503.77972 -330.733878 
L 502.179651 -326.284604 
L 500.528002 -321.83533 
L 498.833971 -317.386055 
L 497.107662 -312.936781 
L 495.361327 -308.487506 
L 493.610019 -304.038232 
L 491.871517 -299.588958 
L 490.165577 -295.139683 
L 488.512671 -290.690409 
L 486.93247 -286.241134 
L 485.442365 -281.79186 
L 484.056255 -277.342586 
L 482.783788 -272.893311 
L 481.630108 -268.444037 
L 480.59609 -263.994762 
L 479.678954 -259.545488 
L 478.873104 -255.096214 
L 478.171036 -250.646939 
L 477.564188 -246.197665 
L 477.043626 -241.74839 
L 476.600533 -237.299116 
L 476.226502 -232.849842 
L 475.913664 -228.400567 
L 475.65471 -223.951293 
L 475.442855 -219.502018 
L 475.271788 -215.052744 
L 475.135638 -210.60347 
L 475.028969 -206.154195 
z
" style="stroke: #3d3d3d; stroke-opacity: 0.5"/>
    </defs>
    <g clip-path="url(#p75149cf999)">
     <use xlink:href="#md715e60fb8" x="0" y="707.825675" style="fill: #9372b2; fill-opacity: 0.5; stroke: #3d3d3d; stroke-opacity: 0.5"/>
    </g>
   </g>
   <g id="PolyCollection_5">
    <defs>
     <path id="m95a2562310" d="M 586.694026 -196.20588 
L 585.968474 -196.20588 
L 585.832314 -200.824717 
L 585.654539 -205.443553 
L 585.425506 -210.06239 
L 585.134134 -214.681226 
L 584.767879 -219.300063 
L 584.312784 -223.9189 
L 583.753661 -228.537736 
L 583.074441 -233.156573 
L 582.258768 -237.77541 
L 581.290859 -242.394246 
L 580.156646 -247.013083 
L 578.84517 -251.63192 
L 577.350123 -256.250756 
L 575.671379 -260.869593 
L 573.816316 -265.488429 
L 571.800688 -270.107266 
L 569.648841 -274.726103 
L 567.393094 -279.344939 
L 565.072269 -283.963776 
L 562.729405 -288.582613 
L 560.40891 -293.201449 
L 558.153459 -297.820286 
L 556.001037 -302.439123 
L 553.982535 -307.057959 
L 552.120212 -311.676796 
L 550.427203 -316.295632 
L 548.908106 -320.914469 
L 547.560464 -325.533306 
L 546.376854 -330.152142 
L 545.347191 -334.770979 
L 544.46086 -339.389816 
L 543.708332 -344.008652 
L 543.082091 -348.627489 
L 542.576774 -353.246326 
L 542.18864 -357.865162 
L 541.914541 -362.483999 
L 541.750656 -367.102835 
L 541.69125 -371.721672 
L 541.727699 -376.340509 
L 541.847929 -380.959345 
L 542.036378 -385.578182 
L 542.274494 -390.197019 
L 542.541721 -394.815855 
L 542.816895 -399.434692 
L 543.079903 -404.053529 
L 543.313471 -408.672365 
L 543.504898 -413.291202 
L 543.647559 -417.910038 
L 543.742006 -422.528875 
L 543.796532 -427.147712 
L 543.82709 -431.766548 
L 543.856549 -436.385385 
L 543.913318 -441.004222 
L 544.029477 -445.623058 
L 544.238555 -450.241895 
L 544.57319 -454.860732 
L 545.062846 -459.479568 
L 545.731783 -464.098405 
L 546.597396 -468.717241 
L 547.669036 -473.336078 
L 548.947324 -477.954915 
L 550.423995 -482.573751 
L 552.082244 -487.192588 
L 553.897561 -491.811425 
L 555.839007 -496.430261 
L 557.870865 -501.049098 
L 559.954586 -505.667934 
L 562.050892 -510.286771 
L 564.12189 -514.905608 
L 566.133019 -519.524444 
L 568.054666 -524.143281 
L 569.863328 -528.762118 
L 571.542219 -533.380954 
L 573.081345 -537.999791 
L 574.477072 -542.618628 
L 575.731316 -547.237464 
L 576.85049 -551.856301 
L 577.844352 -556.475137 
L 578.724873 -561.093974 
L 579.505209 -565.712811 
L 580.198832 -570.331647 
L 580.818817 -574.950484 
L 581.37729 -579.569321 
L 581.885001 -584.188157 
L 582.351027 -588.806994 
L 582.782587 -593.425831 
L 583.184983 -598.044667 
L 583.56166 -602.663504 
L 583.9144 -607.28234 
L 584.243622 -611.901177 
L 584.548772 -616.520014 
L 584.828748 -621.13885 
L 585.08233 -625.757687 
L 585.308544 -630.376524 
L 585.506946 -634.99536 
L 585.677786 -639.614197 
L 585.822063 -644.233034 
L 585.941468 -648.85187 
L 586.038257 -653.470707 
L 586.624243 -653.470707 
L 586.624243 -653.470707 
L 586.721032 -648.85187 
L 586.840437 -644.233034 
L 586.984714 -639.614197 
L 587.155554 -634.99536 
L 587.353956 -630.376524 
L 587.58017 -625.757687 
L 587.833752 -621.13885 
L 588.113728 -616.520014 
L 588.418878 -611.901177 
L 588.7481 -607.28234 
L 589.10084 -602.663504 
L 589.477517 -598.044667 
L 589.879913 -593.425831 
L 590.311473 -588.806994 
L 590.777499 -584.188157 
L 591.28521 -579.569321 
L 591.843683 -574.950484 
L 592.463668 -570.331647 
L 593.157291 -565.712811 
L 593.937627 -561.093974 
L 594.818148 -556.475137 
L 595.81201 -551.856301 
L 596.931184 -547.237464 
L 598.185428 -542.618628 
L 599.581155 -537.999791 
L 601.120281 -533.380954 
L 602.799172 -528.762118 
L 604.607834 -524.143281 
L 606.529481 -519.524444 
L 608.54061 -514.905608 
L 610.611608 -510.286771 
L 612.707914 -505.667934 
L 614.791635 -501.049098 
L 616.823493 -496.430261 
L 618.764939 -491.811425 
L 620.580256 -487.192588 
L 622.238505 -482.573751 
L 623.715176 -477.954915 
L 624.993464 -473.336078 
L 626.065104 -468.717241 
L 626.930717 -464.098405 
L 627.599654 -459.479568 
L 628.08931 -454.860732 
L 628.423945 -450.241895 
L 628.633023 -445.623058 
L 628.749182 -441.004222 
L 628.805951 -436.385385 
L 628.83541 -431.766548 
L 628.865968 -427.147712 
L 628.920494 -422.528875 
L 629.014941 -417.910038 
L 629.157602 -413.291202 
L 629.349029 -408.672365 
L 629.582597 -404.053529 
L 629.845605 -399.434692 
L 630.120779 -394.815855 
L 630.388006 -390.197019 
L 630.626122 -385.578182 
L 630.814571 -380.959345 
L 630.934801 -376.340509 
L 630.97125 -371.721672 
L 630.911844 -367.102835 
L 630.747959 -362.483999 
L 630.47386 -357.865162 
L 630.085726 -353.246326 
L 629.580409 -348.627489 
L 628.954168 -344.008652 
L 628.20164 -339.389816 
L 627.315309 -334.770979 
L 626.285646 -330.152142 
L 625.102036 -325.533306 
L 623.754394 -320.914469 
L 622.235297 -316.295632 
L 620.542288 -311.676796 
L 618.679965 -307.057959 
L 616.661463 -302.439123 
L 614.509041 -297.820286 
L 612.25359 -293.201449 
L 609.933095 -288.582613 
L 607.590231 -283.963776 
L 605.269406 -279.344939 
L 603.013659 -274.726103 
L 600.861812 -270.107266 
L 598.846184 -265.488429 
L 596.991121 -260.869593 
L 595.312377 -256.250756 
L 593.81733 -251.63192 
L 592.505854 -247.013083 
L 591.371641 -242.394246 
L 590.403732 -237.77541 
L 589.588059 -233.156573 
L 588.908839 -228.537736 
L 588.349716 -223.9189 
L 587.894621 -219.300063 
L 587.528366 -214.681226 
L 587.236994 -210.06239 
L 587.007961 -205.443553 
L 586.830186 -200.824717 
L 586.694026 -196.20588 
z
" style="stroke: #3d3d3d; stroke-opacity: 0.5"/>
    </defs>
    <g clip-path="url(#p75149cf999)">
     <use xlink:href="#m95a2562310" x="0" y="707.825675" style="fill: #845b53; fill-opacity: 0.5; stroke: #3d3d3d; stroke-opacity: 0.5"/>
    </g>
   </g>
   <g id="PolyCollection_6">
    <defs>
     <path id="m7256209427" d="M 698.511956 -195.978176 
L 697.350544 -195.978176 
L 697.152496 -199.376507 
L 696.900035 -202.774837 
L 696.582578 -206.173168 
L 696.188721 -209.571499 
L 695.706489 -212.969829 
L 695.123659 -216.36816 
L 694.428158 -219.766491 
L 693.608511 -223.164821 
L 692.654343 -226.563152 
L 691.556899 -229.961483 
L 690.309584 -233.359813 
L 688.908488 -236.758144 
L 687.352894 -240.156475 
L 685.645723 -243.554805 
L 683.793927 -246.953136 
L 681.808784 -250.351467 
L 679.706079 -253.749798 
L 677.506136 -257.148128 
L 675.233688 -260.546459 
L 672.917534 -263.94479 
L 670.58998 -267.34312 
L 668.286033 -270.741451 
L 666.042355 -274.139782 
L 663.895997 -277.538112 
L 661.882946 -280.936443 
L 660.036547 -284.334774 
L 658.385909 -287.733104 
L 656.954367 -291.131435 
L 655.758164 -294.529766 
L 654.805434 -297.928096 
L 654.095639 -301.326427 
L 653.619509 -304.724758 
L 653.359573 -308.123088 
L 653.29125 -311.521419 
L 653.38447 -314.91975 
L 653.605693 -318.31808 
L 653.920182 -321.716411 
L 654.294319 -325.114742 
L 654.697772 -328.513072 
L 655.105294 -331.911403 
L 655.497999 -335.309734 
L 655.864011 -338.708064 
L 656.198427 -342.106395 
L 656.50266 -345.504726 
L 656.783241 -348.903056 
L 657.050261 -352.301387 
L 657.315649 -355.699718 
L 657.591471 -359.098048 
L 657.888462 -362.496379 
L 658.214906 -365.89471 
L 658.575976 -369.29304 
L 658.973534 -372.691371 
L 659.406387 -376.089702 
L 659.870885 -379.488032 
L 660.361776 -382.886363 
L 660.873169 -386.284694 
L 661.399481 -389.683024 
L 661.936268 -393.081355 
L 662.480838 -396.479686 
L 663.032615 -399.878017 
L 663.593225 -403.276347 
L 664.166326 -406.674678 
L 664.757216 -410.073009 
L 665.372296 -413.471339 
L 666.018443 -416.86967 
L 666.702381 -420.268001 
L 667.430106 -423.666331 
L 668.206438 -427.064662 
L 669.034724 -430.462993 
L 669.916706 -433.861323 
L 670.852563 -437.259654 
L 671.841062 -440.657985 
L 672.879814 -444.056315 
L 673.965542 -447.454646 
L 675.094325 -450.852977 
L 676.261772 -454.251307 
L 677.463094 -457.649638 
L 678.693064 -461.047969 
L 679.945898 -464.446299 
L 681.21508 -467.84463 
L 682.493183 -471.242961 
L 683.771753 -474.641291 
L 685.041287 -478.039622 
L 686.291352 -481.437953 
L 687.510845 -484.836283 
L 688.688397 -488.234614 
L 689.812866 -491.632945 
L 690.87389 -495.031275 
L 691.862428 -498.429606 
L 692.771231 -501.827937 
L 693.595206 -505.226267 
L 694.331616 -508.624598 
L 694.980124 -512.022929 
L 695.542673 -515.421259 
L 696.023222 -518.81959 
L 696.427384 -522.217921 
L 696.761994 -525.616251 
L 697.034659 -529.014582 
L 697.253325 -532.412913 
L 698.609175 -532.412913 
L 698.609175 -532.412913 
L 698.827841 -529.014582 
L 699.100506 -525.616251 
L 699.435116 -522.217921 
L 699.839278 -518.81959 
L 700.319827 -515.421259 
L 700.882376 -512.022929 
L 701.530884 -508.624598 
L 702.267294 -505.226267 
L 703.091269 -501.827937 
L 704.000072 -498.429606 
L 704.98861 -495.031275 
L 706.049634 -491.632945 
L 707.174103 -488.234614 
L 708.351655 -484.836283 
L 709.571148 -481.437953 
L 710.821213 -478.039622 
L 712.090747 -474.641291 
L 713.369317 -471.242961 
L 714.64742 -467.84463 
L 715.916602 -464.446299 
L 717.169436 -461.047969 
L 718.399406 -457.649638 
L 719.600728 -454.251307 
L 720.768175 -450.852977 
L 721.896958 -447.454646 
L 722.982686 -444.056315 
L 724.021438 -440.657985 
L 725.009937 -437.259654 
L 725.945794 -433.861323 
L 726.827776 -430.462993 
L 727.656062 -427.064662 
L 728.432394 -423.666331 
L 729.160119 -420.268001 
L 729.844057 -416.86967 
L 730.490204 -413.471339 
L 731.105284 -410.073009 
L 731.696174 -406.674678 
L 732.269275 -403.276347 
L 732.829885 -399.878017 
L 733.381662 -396.479686 
L 733.926232 -393.081355 
L 734.463019 -389.683024 
L 734.989331 -386.284694 
L 735.500724 -382.886363 
L 735.991615 -379.488032 
L 736.456113 -376.089702 
L 736.888966 -372.691371 
L 737.286524 -369.29304 
L 737.647594 -365.89471 
L 737.974038 -362.496379 
L 738.271029 -359.098048 
L 738.546851 -355.699718 
L 738.812239 -352.301387 
L 739.079259 -348.903056 
L 739.35984 -345.504726 
L 739.664073 -342.106395 
L 739.998489 -338.708064 
L 740.364501 -335.309734 
L 740.757206 -331.911403 
L 741.164728 -328.513072 
L 741.568181 -325.114742 
L 741.942318 -321.716411 
L 742.256807 -318.31808 
L 742.47803 -314.91975 
L 742.57125 -311.521419 
L 742.502927 -308.123088 
L 742.242991 -304.724758 
L 741.766861 -301.326427 
L 741.057066 -297.928096 
L 740.104336 -294.529766 
L 738.908133 -291.131435 
L 737.476591 -287.733104 
L 735.825953 -284.334774 
L 733.979554 -280.936443 
L 731.966503 -277.538112 
L 729.820145 -274.139782 
L 727.576467 -270.741451 
L 725.27252 -267.34312 
L 722.944966 -263.94479 
L 720.628812 -260.546459 
L 718.356364 -257.148128 
L 716.156421 -253.749798 
L 714.053716 -250.351467 
L 712.068573 -246.953136 
L 710.216777 -243.554805 
L 708.509606 -240.156475 
L 706.954012 -236.758144 
L 705.552916 -233.359813 
L 704.305601 -229.961483 
L 703.208157 -226.563152 
L 702.253989 -223.164821 
L 701.434342 -219.766491 
L 700.738841 -216.36816 
L 700.156011 -212.969829 
L 699.673779 -209.571499 
L 699.279922 -206.173168 
L 698.962465 -202.774837 
L 698.710004 -199.376507 
L 698.511956 -195.978176 
z
" style="stroke: #3d3d3d; stroke-opacity: 0.5"/>
    </defs>
    <g clip-path="url(#p75149cf999)">
     <use xlink:href="#m7256209427" x="0" y="707.825675" style="fill: #e1812c; fill-opacity: 0.5; stroke: #3d3d3d; stroke-opacity: 0.5"/>
    </g>
   </g>
   <g id="PolyCollection_7">
    <defs>
     <path id="m4397a2a7ab" d="M 810.379989 -196.23673 
L 808.682511 -196.23673 
L 808.39386 -200.23669 
L 808.026775 -204.23665 
L 807.566728 -208.236609 
L 806.998553 -212.236569 
L 806.307028 -216.236529 
L 805.477598 -220.236489 
L 804.49722 -224.236448 
L 803.355279 -228.236408 
L 802.044525 -232.236368 
L 800.561956 -236.236328 
L 798.909567 -240.236288 
L 797.094899 -244.236247 
L 795.131308 -248.236207 
L 793.037903 -252.236167 
L 790.839145 -256.236127 
L 788.564093 -260.236086 
L 786.245345 -264.236046 
L 783.917754 -268.236006 
L 781.616995 -272.235966 
L 779.378109 -276.235925 
L 777.234114 -280.235885 
L 775.214795 -284.235845 
L 773.345732 -288.235805 
L 771.647604 -292.235765 
L 770.135787 -296.235724 
L 768.820203 -300.235684 
L 767.705394 -304.235644 
L 766.790762 -308.235604 
L 766.070924 -312.235563 
L 765.536153 -316.235523 
L 765.172897 -320.235483 
L 764.964373 -324.235443 
L 764.89125 -328.235403 
L 764.93245 -332.235362 
L 765.066056 -336.235322 
L 765.270314 -340.235282 
L 765.524678 -344.235242 
L 765.810822 -348.235201 
L 766.113528 -352.235161 
L 766.42134 -356.235121 
L 766.726915 -360.235081 
L 767.027006 -364.23504 
L 767.322067 -368.235 
L 767.615519 -372.23496 
L 767.91276 -376.23492 
L 768.220038 -380.23488 
L 768.543319 -384.234839 
L 768.887297 -388.234799 
L 769.254651 -392.234759 
L 769.64565 -396.234719 
L 770.058122 -400.234678 
L 770.487802 -404.234638 
L 770.928983 -408.234598 
L 771.375404 -412.234558 
L 771.821233 -416.234518 
L 772.26205 -420.234477 
L 772.695691 -424.234437 
L 773.122864 -428.234397 
L 773.547461 -432.234357 
L 773.97652 -436.234316 
L 774.419859 -440.234276 
L 774.889392 -444.234236 
L 775.398222 -448.234196 
L 775.95959 -452.234155 
L 776.585798 -456.234115 
L 777.287207 -460.234075 
L 778.071421 -464.234035 
L 778.942725 -468.233995 
L 779.901825 -472.233954 
L 780.945902 -476.233914 
L 782.068945 -480.233874 
L 783.262321 -484.233834 
L 784.515481 -488.233793 
L 785.816722 -492.233753 
L 787.153916 -496.233713 
L 788.515112 -500.233673 
L 789.888984 -504.233632 
L 791.265077 -508.233592 
L 792.633873 -512.233552 
L 793.986705 -516.233512 
L 795.315579 -520.233472 
L 796.612953 -524.233431 
L 797.87155 -528.233391 
L 799.084241 -532.233351 
L 800.244038 -536.233311 
L 801.344192 -540.23327 
L 802.378399 -544.23323 
L 803.341072 -548.23319 
L 804.227635 -552.23315 
L 805.034804 -556.23311 
L 805.760807 -560.233069 
L 806.405507 -564.233029 
L 806.970428 -568.232989 
L 807.458657 -572.232949 
L 807.874658 -576.232908 
L 808.224006 -580.232868 
L 808.513073 -584.232828 
L 808.748697 -588.232788 
L 808.937863 -592.232747 
L 810.124637 -592.232747 
L 810.124637 -592.232747 
L 810.313803 -588.232788 
L 810.549427 -584.232828 
L 810.838494 -580.232868 
L 811.187842 -576.232908 
L 811.603843 -572.232949 
L 812.092072 -568.232989 
L 812.656993 -564.233029 
L 813.301693 -560.233069 
L 814.027696 -556.23311 
L 814.834865 -552.23315 
L 815.721428 -548.23319 
L 816.684101 -544.23323 
L 817.718308 -540.23327 
L 818.818462 -536.233311 
L 819.978259 -532.233351 
L 821.19095 -528.233391 
L 822.449547 -524.233431 
L 823.746921 -520.233472 
L 825.075795 -516.233512 
L 826.428627 -512.233552 
L 827.797423 -508.233592 
L 829.173516 -504.233632 
L 830.547388 -500.233673 
L 831.908584 -496.233713 
L 833.245778 -492.233753 
L 834.547019 -488.233793 
L 835.800179 -484.233834 
L 836.993555 -480.233874 
L 838.116598 -476.233914 
L 839.160675 -472.233954 
L 840.119775 -468.233995 
L 840.991079 -464.234035 
L 841.775293 -460.234075 
L 842.476702 -456.234115 
L 843.10291 -452.234155 
L 843.664278 -448.234196 
L 844.173108 -444.234236 
L 844.642641 -440.234276 
L 845.08598 -436.234316 
L 845.515039 -432.234357 
L 845.939636 -428.234397 
L 846.366809 -424.234437 
L 846.80045 -420.234477 
L 847.241267 -416.234518 
L 847.687096 -412.234558 
L 848.133517 -408.234598 
L 848.574698 -404.234638 
L 849.004378 -400.234678 
L 849.41685 -396.234719 
L 849.807849 -392.234759 
L 850.175203 -388.234799 
L 850.519181 -384.234839 
L 850.842462 -380.23488 
L 851.14974 -376.23492 
L 851.446981 -372.23496 
L 851.740433 -368.235 
L 852.035494 -364.23504 
L 852.335585 -360.235081 
L 852.64116 -356.235121 
L 852.948972 -352.235161 
L 853.251678 -348.235201 
L 853.537822 -344.235242 
L 853.792186 -340.235282 
L 853.996444 -336.235322 
L 854.13005 -332.235362 
L 854.17125 -328.235403 
L 854.098127 -324.235443 
L 853.889603 -320.235483 
L 853.526347 -316.235523 
L 852.991576 -312.235563 
L 852.271738 -308.235604 
L 851.357106 -304.235644 
L 850.242297 -300.235684 
L 848.926713 -296.235724 
L 847.414896 -292.235765 
L 845.716768 -288.235805 
L 843.847705 -284.235845 
L 841.828386 -280.235885 
L 839.684391 -276.235925 
L 837.445505 -272.235966 
L 835.144746 -268.236006 
L 832.817155 -264.236046 
L 830.498407 -260.236086 
L 828.223355 -256.236127 
L 826.024597 -252.236167 
L 823.931192 -248.236207 
L 821.967601 -244.236247 
L 820.152933 -240.236288 
L 818.500544 -236.236328 
L 817.017975 -232.236368 
L 815.707221 -228.236408 
L 814.56528 -224.236448 
L 813.584902 -220.236489 
L 812.755472 -216.236529 
L 812.063947 -212.236569 
L 811.495772 -208.236609 
L 811.035725 -204.23665 
L 810.66864 -200.23669 
L 810.379989 -196.23673 
z
" style="stroke: #3d3d3d; stroke-opacity: 0.5"/>
    </defs>
    <g clip-path="url(#p75149cf999)">
     <use xlink:href="#m4397a2a7ab" x="0" y="707.825675" style="fill: #3a923a; fill-opacity: 0.5; stroke: #3d3d3d; stroke-opacity: 0.5"/>
    </g>
   </g>
   <g id="line2d_9">
    <path d="M 139.93125 433.398781 
L 139.93125 153.646959 
" clip-path="url(#p75149cf999)" style="fill: none; stroke: #3d3d3d; stroke-width: 1.5; stroke-linecap: round"/>
   </g>
   <g id="line2d_10">
    <path d="M 139.93125 328.166358 
L 139.93125 210.98275 
" clip-path="url(#p75149cf999)" style="fill: none; stroke: #3d3d3d; stroke-width: 4.5; stroke-linecap: round"/>
   </g>
   <g id="line2d_11">
    <path d="M 139.93125 277.622989 
" clip-path="url(#p75149cf999)" style="fill: none; stroke: #3d3d3d; stroke-width: 1.5; stroke-linecap: round"/>
    <defs>
     <path id="m71542c5dc3" d="M 1.875 0 
L -1.875 -0 
" style="stroke: #ffffff; stroke-width: 0.9"/>
    </defs>
    <g clip-path="url(#p75149cf999)">
     <use xlink:href="#m71542c5dc3" x="139.93125" y="277.622989" style="fill: #ffffff; stroke: #ffffff; stroke-width: 0.9"/>
    </g>
   </g>
   <g id="line2d_12">
    <path d="M 251.53125 478.998656 
L 251.53125 238.758701 
" clip-path="url(#p75149cf999)" style="fill: none; stroke: #3d3d3d; stroke-width: 1.5; stroke-linecap: round"/>
   </g>
   <g id="line2d_13">
    <path d="M 251.53125 421.181059 
L 251.53125 332.361337 
" clip-path="url(#p75149cf999)" style="fill: none; stroke: #3d3d3d; stroke-width: 4.5; stroke-linecap: round"/>
   </g>
   <g id="line2d_14">
    <path d="M 251.53125 386.643666 
" clip-path="url(#p75149cf999)" style="fill: none; stroke: #3d3d3d; stroke-width: 1.5; stroke-linecap: round"/>
    <g clip-path="url(#p75149cf999)">
     <use xlink:href="#m71542c5dc3" x="251.53125" y="386.643666" style="fill: #ffffff; stroke: #ffffff; stroke-width: 0.9"/>
    </g>
   </g>
   <g id="line2d_15">
    <path d="M 363.13125 317.059043 
L 363.13125 80.756621 
" clip-path="url(#p75149cf999)" style="fill: none; stroke: #3d3d3d; stroke-width: 1.5; stroke-linecap: round"/>
   </g>
   <g id="line2d_16">
    <path d="M 363.13125 246.859956 
L 363.13125 179.003991 
" clip-path="url(#p75149cf999)" style="fill: none; stroke: #3d3d3d; stroke-width: 4.5; stroke-linecap: round"/>
   </g>
   <g id="line2d_17">
    <path d="M 363.13125 208.88698 
" clip-path="url(#p75149cf999)" style="fill: none; stroke: #3d3d3d; stroke-width: 1.5; stroke-linecap: round"/>
    <g clip-path="url(#p75149cf999)">
     <use xlink:href="#m71542c5dc3" x="363.13125" y="208.88698" style="fill: #ffffff; stroke: #ffffff; stroke-width: 0.9"/>
    </g>
   </g>
   <g id="line2d_18">
    <path d="M 474.73125 440.309259 
L 474.73125 122.555535 
" clip-path="url(#p75149cf999)" style="fill: none; stroke: #3d3d3d; stroke-width: 1.5; stroke-linecap: round"/>
   </g>
   <g id="line2d_19">
    <path d="M 474.73125 339.540793 
L 474.73125 243.444072 
" clip-path="url(#p75149cf999)" style="fill: none; stroke: #3d3d3d; stroke-width: 4.5; stroke-linecap: round"/>
   </g>
   <g id="line2d_20">
    <path d="M 474.73125 276.420816 
" clip-path="url(#p75149cf999)" style="fill: none; stroke: #3d3d3d; stroke-width: 1.5; stroke-linecap: round"/>
    <g clip-path="url(#p75149cf999)">
     <use xlink:href="#m71542c5dc3" x="474.73125" y="276.420816" style="fill: #ffffff; stroke: #ffffff; stroke-width: 0.9"/>
    </g>
   </g>
   <g id="line2d_21">
    <path d="M 586.33125 446.913203 
L 586.33125 119.06156 
" clip-path="url(#p75149cf999)" style="fill: none; stroke: #3d3d3d; stroke-width: 1.5; stroke-linecap: round"/>
   </g>
   <g id="line2d_22">
    <path d="M 586.33125 360.774642 
L 586.33125 249.151015 
" clip-path="url(#p75149cf999)" style="fill: none; stroke: #3d3d3d; stroke-width: 4.5; stroke-linecap: round"/>
   </g>
   <g id="line2d_23">
    <path d="M 586.33125 306.76262 
" clip-path="url(#p75149cf999)" style="fill: none; stroke: #3d3d3d; stroke-width: 1.5; stroke-linecap: round"/>
    <g clip-path="url(#p75149cf999)">
     <use xlink:href="#m71542c5dc3" x="586.33125" y="306.76262" style="fill: #ffffff; stroke: #ffffff; stroke-width: 0.9"/>
    </g>
   </g>
   <g id="line2d_24">
    <path d="M 697.93125 458.089434 
L 697.93125 229.170826 
" clip-path="url(#p75149cf999)" style="fill: none; stroke: #3d3d3d; stroke-width: 1.5; stroke-linecap: round"/>
   </g>
   <g id="line2d_25">
    <path d="M 697.93125 400.367666 
L 697.93125 304.846017 
" clip-path="url(#p75149cf999)" style="fill: none; stroke: #3d3d3d; stroke-width: 4.5; stroke-linecap: round"/>
   </g>
   <g id="line2d_26">
    <path d="M 697.93125 356.476237 
" clip-path="url(#p75149cf999)" style="fill: none; stroke: #3d3d3d; stroke-width: 1.5; stroke-linecap: round"/>
    <g clip-path="url(#p75149cf999)">
     <use xlink:href="#m71542c5dc3" x="697.93125" y="356.476237" style="fill: #ffffff; stroke: #ffffff; stroke-width: 0.9"/>
    </g>
   </g>
   <g id="line2d_27">
    <path d="M 809.53125 447.557474 
L 809.53125 179.624398 
" clip-path="url(#p75149cf999)" style="fill: none; stroke: #3d3d3d; stroke-width: 1.5; stroke-linecap: round"/>
   </g>
   <g id="line2d_28">
    <path d="M 809.53125 387.230809 
L 809.53125 268.091752 
" clip-path="url(#p75149cf999)" style="fill: none; stroke: #3d3d3d; stroke-width: 4.5; stroke-linecap: round"/>
   </g>
   <g id="line2d_29">
    <path d="M 809.53125 332.895673 
" clip-path="url(#p75149cf999)" style="fill: none; stroke: #3d3d3d; stroke-width: 1.5; stroke-linecap: round"/>
    <g clip-path="url(#p75149cf999)">
     <use xlink:href="#m71542c5dc3" x="809.53125" y="332.895673" style="fill: #ffffff; stroke: #ffffff; stroke-width: 0.9"/>
    </g>
   </g>
   <g id="patch_3">
    <path d="M 84.13125 561.6 
L 865.33125 561.6 
" style="fill: none; stroke: #cccccc; stroke-width: 0.8; stroke-linejoin: miter; stroke-linecap: square"/>
   </g>
  </g>
 </g>
 <defs>
  <clipPath id="p75149cf999">
   <rect x="84.13125" y="7.2" width="781.2" height="554.4"/>
  </clipPath>
 </defs>
</svg>
