<?xml version="1.0" encoding="utf-8" standalone="no"?>
<!DOCTYPE svg PUBLIC "-//W3C//DTD SVG 1.1//EN"
  "http://www.w3.org/Graphics/SVG/1.1/DTD/svg11.dtd">
<svg xmlns:xlink="http://www.w3.org/1999/xlink" width="857.7625pt" height="707.825675pt" viewBox="0 0 857.7625 707.825675" xmlns="http://www.w3.org/2000/svg" version="1.1">
 <metadata>
  <rdf:RDF xmlns:dc="http://purl.org/dc/elements/1.1/" xmlns:cc="http://creativecommons.org/ns#" xmlns:rdf="http://www.w3.org/1999/02/22-rdf-syntax-ns#">
   <cc:Work>
    <dc:type rdf:resource="http://purl.org/dc/dcmitype/StillImage"/>
    <dc:date>2024-10-23T17:24:01.882473</dc:date>
    <dc:format>image/svg+xml</dc:format>
    <dc:creator>
     <cc:Agent>
      <dc:title>Matplotlib v3.8.0, https://matplotlib.org/</dc:title>
     </cc:Agent>
    </dc:creator>
   </cc:Work>
  </rdf:RDF>
 </metadata>
 <defs>
  <style type="text/css">*{stroke-linejoin: round; stroke-linecap: butt}</style>
 </defs>
 <g id="figure_1">
  <g id="patch_1">
   <path d="M 0 707.825675 
L 857.7625 707.825675 
L 857.7625 0 
L 0 0 
L 0 707.825675 
z
" style="fill: none"/>
  </g>
  <g id="axes_1">
   <g id="patch_2">
    <path d="M 69.3625 561.6 
L 850.5625 561.6 
L 850.5625 7.2 
L 69.3625 7.2 
L 69.3625 561.6 
z
" style="fill: none"/>
   </g>
   <g id="matplotlib.axis_1">
    <g id="xtick_1">
     <g id="text_1">
      <!-- MSA -->
      <g style="fill: #262626" transform="translate(104.788986 610.465141) rotate(-45) scale(0.2 -0.2)">
       <defs>
        <path id="DejaVuSans-4d" d="M 628 4666 
L 1569 4666 
L 2759 1491 
L 3956 4666 
L 4897 4666 
L 4897 0 
L 4281 0 
L 4281 4097 
L 3078 897 
L 2444 897 
L 1241 4097 
L 1241 0 
L 628 0 
L 628 4666 
z
" transform="scale(0.015625)"/>
        <path id="DejaVuSans-53" d="M 3425 4513 
L 3425 3897 
Q 3066 4069 2747 4153 
Q 2428 4238 2131 4238 
Q 1616 4238 1336 4038 
Q 1056 3838 1056 3469 
Q 1056 3159 1242 3001 
Q 1428 2844 1947 2747 
L 2328 2669 
Q 3034 2534 3370 2195 
Q 3706 1856 3706 1288 
Q 3706 609 3251 259 
Q 2797 -91 1919 -91 
Q 1588 -91 1214 -16 
Q 841 59 441 206 
L 441 856 
Q 825 641 1194 531 
Q 1563 422 1919 422 
Q 2459 422 2753 634 
Q 3047 847 3047 1241 
Q 3047 1584 2836 1778 
Q 2625 1972 2144 2069 
L 1759 2144 
Q 1053 2284 737 2584 
Q 422 2884 422 3419 
Q 422 4038 858 4394 
Q 1294 4750 2059 4750 
Q 2388 4750 2728 4690 
Q 3069 4631 3425 4513 
z
" transform="scale(0.015625)"/>
        <path id="DejaVuSans-41" d="M 2188 4044 
L 1331 1722 
L 3047 1722 
L 2188 4044 
z
M 1831 4666 
L 2547 4666 
L 4325 0 
L 3669 0 
L 3244 1197 
L 1141 1197 
L 716 0 
L 50 0 
L 1831 4666 
z
" transform="scale(0.015625)"/>
       </defs>
       <use xlink:href="#DejaVuSans-4d"/>
       <use xlink:href="#DejaVuSans-53" x="86.279297"/>
       <use xlink:href="#DejaVuSans-41" x="151.630859"/>
      </g>
     </g>
    </g>
    <g id="xtick_2">
     <g id="text_2">
      <!-- Template -->
      <g style="fill: #262626" transform="translate(182.97819 643.875936) rotate(-45) scale(0.2 -0.2)">
       <defs>
        <path id="DejaVuSans-54" d="M -19 4666 
L 3928 4666 
L 3928 4134 
L 2272 4134 
L 2272 0 
L 1638 0 
L 1638 4134 
L -19 4134 
L -19 4666 
z
" transform="scale(0.015625)"/>
        <path id="DejaVuSans-65" d="M 3597 1894 
L 3597 1613 
L 953 1613 
Q 991 1019 1311 708 
Q 1631 397 2203 397 
Q 2534 397 2845 478 
Q 3156 559 3463 722 
L 3463 178 
Q 3153 47 2828 -22 
Q 2503 -91 2169 -91 
Q 1331 -91 842 396 
Q 353 884 353 1716 
Q 353 2575 817 3079 
Q 1281 3584 2069 3584 
Q 2775 3584 3186 3129 
Q 3597 2675 3597 1894 
z
M 3022 2063 
Q 3016 2534 2758 2815 
Q 2500 3097 2075 3097 
Q 1594 3097 1305 2825 
Q 1016 2553 972 2059 
L 3022 2063 
z
" transform="scale(0.015625)"/>
        <path id="DejaVuSans-6d" d="M 3328 2828 
Q 3544 3216 3844 3400 
Q 4144 3584 4550 3584 
Q 5097 3584 5394 3201 
Q 5691 2819 5691 2113 
L 5691 0 
L 5113 0 
L 5113 2094 
Q 5113 2597 4934 2840 
Q 4756 3084 4391 3084 
Q 3944 3084 3684 2787 
Q 3425 2491 3425 1978 
L 3425 0 
L 2847 0 
L 2847 2094 
Q 2847 2600 2669 2842 
Q 2491 3084 2119 3084 
Q 1678 3084 1418 2786 
Q 1159 2488 1159 1978 
L 1159 0 
L 581 0 
L 581 3500 
L 1159 3500 
L 1159 2956 
Q 1356 3278 1631 3431 
Q 1906 3584 2284 3584 
Q 2666 3584 2933 3390 
Q 3200 3197 3328 2828 
z
" transform="scale(0.015625)"/>
        <path id="DejaVuSans-70" d="M 1159 525 
L 1159 -1331 
L 581 -1331 
L 581 3500 
L 1159 3500 
L 1159 2969 
Q 1341 3281 1617 3432 
Q 1894 3584 2278 3584 
Q 2916 3584 3314 3078 
Q 3713 2572 3713 1747 
Q 3713 922 3314 415 
Q 2916 -91 2278 -91 
Q 1894 -91 1617 61 
Q 1341 213 1159 525 
z
M 3116 1747 
Q 3116 2381 2855 2742 
Q 2594 3103 2138 3103 
Q 1681 3103 1420 2742 
Q 1159 2381 1159 1747 
Q 1159 1113 1420 752 
Q 1681 391 2138 391 
Q 2594 391 2855 752 
Q 3116 1113 3116 1747 
z
" transform="scale(0.015625)"/>
        <path id="DejaVuSans-6c" d="M 603 4863 
L 1178 4863 
L 1178 0 
L 603 0 
L 603 4863 
z
" transform="scale(0.015625)"/>
        <path id="DejaVuSans-61" d="M 2194 1759 
Q 1497 1759 1228 1600 
Q 959 1441 959 1056 
Q 959 750 1161 570 
Q 1363 391 1709 391 
Q 2188 391 2477 730 
Q 2766 1069 2766 1631 
L 2766 1759 
L 2194 1759 
z
M 3341 1997 
L 3341 0 
L 2766 0 
L 2766 531 
Q 2569 213 2275 61 
Q 1981 -91 1556 -91 
Q 1019 -91 701 211 
Q 384 513 384 1019 
Q 384 1609 779 1909 
Q 1175 2209 1959 2209 
L 2766 2209 
L 2766 2266 
Q 2766 2663 2505 2880 
Q 2244 3097 1772 3097 
Q 1472 3097 1187 3025 
Q 903 2953 641 2809 
L 641 3341 
Q 956 3463 1253 3523 
Q 1550 3584 1831 3584 
Q 2591 3584 2966 3190 
Q 3341 2797 3341 1997 
z
" transform="scale(0.015625)"/>
        <path id="DejaVuSans-74" d="M 1172 4494 
L 1172 3500 
L 2356 3500 
L 2356 3053 
L 1172 3053 
L 1172 1153 
Q 1172 725 1289 603 
Q 1406 481 1766 481 
L 2356 481 
L 2356 0 
L 1766 0 
Q 1100 0 847 248 
Q 594 497 594 1153 
L 594 3053 
L 172 3053 
L 172 3500 
L 594 3500 
L 594 4494 
L 1172 4494 
z
" transform="scale(0.015625)"/>
       </defs>
       <use xlink:href="#DejaVuSans-54"/>
       <use xlink:href="#DejaVuSans-65" x="44.083984"/>
       <use xlink:href="#DejaVuSans-6d" x="105.607422"/>
       <use xlink:href="#DejaVuSans-70" x="203.019531"/>
       <use xlink:href="#DejaVuSans-6c" x="266.496094"/>
       <use xlink:href="#DejaVuSans-61" x="294.279297"/>
       <use xlink:href="#DejaVuSans-74" x="355.558594"/>
       <use xlink:href="#DejaVuSans-65" x="394.767578"/>
      </g>
     </g>
    </g>
    <g id="xtick_3">
     <g id="text_3">
      <!-- Backbone -->
      <g style="fill: #262626" transform="translate(289.478183 648.975944) rotate(-45) scale(0.2 -0.2)">
       <defs>
        <path id="DejaVuSans-42" d="M 1259 2228 
L 1259 519 
L 2272 519 
Q 2781 519 3026 730 
Q 3272 941 3272 1375 
Q 3272 1813 3026 2020 
Q 2781 2228 2272 2228 
L 1259 2228 
z
M 1259 4147 
L 1259 2741 
L 2194 2741 
Q 2656 2741 2882 2914 
Q 3109 3088 3109 3444 
Q 3109 3797 2882 3972 
Q 2656 4147 2194 4147 
L 1259 4147 
z
M 628 4666 
L 2241 4666 
Q 2963 4666 3353 4366 
Q 3744 4066 3744 3513 
Q 3744 3084 3544 2831 
Q 3344 2578 2956 2516 
Q 3422 2416 3680 2098 
Q 3938 1781 3938 1306 
Q 3938 681 3513 340 
Q 3088 0 2303 0 
L 628 0 
L 628 4666 
z
" transform="scale(0.015625)"/>
        <path id="DejaVuSans-63" d="M 3122 3366 
L 3122 2828 
Q 2878 2963 2633 3030 
Q 2388 3097 2138 3097 
Q 1578 3097 1268 2742 
Q 959 2388 959 1747 
Q 959 1106 1268 751 
Q 1578 397 2138 397 
Q 2388 397 2633 464 
Q 2878 531 3122 666 
L 3122 134 
Q 2881 22 2623 -34 
Q 2366 -91 2075 -91 
Q 1284 -91 818 406 
Q 353 903 353 1747 
Q 353 2603 823 3093 
Q 1294 3584 2113 3584 
Q 2378 3584 2631 3529 
Q 2884 3475 3122 3366 
z
" transform="scale(0.015625)"/>
        <path id="DejaVuSans-6b" d="M 581 4863 
L 1159 4863 
L 1159 1991 
L 2875 3500 
L 3609 3500 
L 1753 1863 
L 3688 0 
L 2938 0 
L 1159 1709 
L 1159 0 
L 581 0 
L 581 4863 
z
" transform="scale(0.015625)"/>
        <path id="DejaVuSans-62" d="M 3116 1747 
Q 3116 2381 2855 2742 
Q 2594 3103 2138 3103 
Q 1681 3103 1420 2742 
Q 1159 2381 1159 1747 
Q 1159 1113 1420 752 
Q 1681 391 2138 391 
Q 2594 391 2855 752 
Q 3116 1113 3116 1747 
z
M 1159 2969 
Q 1341 3281 1617 3432 
Q 1894 3584 2278 3584 
Q 2916 3584 3314 3078 
Q 3713 2572 3713 1747 
Q 3713 922 3314 415 
Q 2916 -91 2278 -91 
Q 1894 -91 1617 61 
Q 1341 213 1159 525 
L 1159 0 
L 581 0 
L 581 4863 
L 1159 4863 
L 1159 2969 
z
" transform="scale(0.015625)"/>
        <path id="DejaVuSans-6f" d="M 1959 3097 
Q 1497 3097 1228 2736 
Q 959 2375 959 1747 
Q 959 1119 1226 758 
Q 1494 397 1959 397 
Q 2419 397 2687 759 
Q 2956 1122 2956 1747 
Q 2956 2369 2687 2733 
Q 2419 3097 1959 3097 
z
M 1959 3584 
Q 2709 3584 3137 3096 
Q 3566 2609 3566 1747 
Q 3566 888 3137 398 
Q 2709 -91 1959 -91 
Q 1206 -91 779 398 
Q 353 888 353 1747 
Q 353 2609 779 3096 
Q 1206 3584 1959 3584 
z
" transform="scale(0.015625)"/>
        <path id="DejaVuSans-6e" d="M 3513 2113 
L 3513 0 
L 2938 0 
L 2938 2094 
Q 2938 2591 2744 2837 
Q 2550 3084 2163 3084 
Q 1697 3084 1428 2787 
Q 1159 2491 1159 1978 
L 1159 0 
L 581 0 
L 581 3500 
L 1159 3500 
L 1159 2956 
Q 1366 3272 1645 3428 
Q 1925 3584 2291 3584 
Q 2894 3584 3203 3211 
Q 3513 2838 3513 2113 
z
" transform="scale(0.015625)"/>
       </defs>
       <use xlink:href="#DejaVuSans-42"/>
       <use xlink:href="#DejaVuSans-61" x="68.603516"/>
       <use xlink:href="#DejaVuSans-63" x="129.882812"/>
       <use xlink:href="#DejaVuSans-6b" x="184.863281"/>
       <use xlink:href="#DejaVuSans-62" x="242.773438"/>
       <use xlink:href="#DejaVuSans-6f" x="306.25"/>
       <use xlink:href="#DejaVuSans-6e" x="367.431641"/>
       <use xlink:href="#DejaVuSans-65" x="430.810547"/>
      </g>
     </g>
    </g>
    <g id="xtick_4">
     <g id="text_4">
      <!-- Heuristic C-$\beta$ -->
      <g style="fill: #262626" transform="translate(379.63517 670.706219) rotate(-45) scale(0.2 -0.2)">
       <defs>
        <path id="DejaVuSans-48" d="M 628 4666 
L 1259 4666 
L 1259 2753 
L 3553 2753 
L 3553 4666 
L 4184 4666 
L 4184 0 
L 3553 0 
L 3553 2222 
L 1259 2222 
L 1259 0 
L 628 0 
L 628 4666 
z
" transform="scale(0.015625)"/>
        <path id="DejaVuSans-75" d="M 544 1381 
L 544 3500 
L 1119 3500 
L 1119 1403 
Q 1119 906 1312 657 
Q 1506 409 1894 409 
Q 2359 409 2629 706 
Q 2900 1003 2900 1516 
L 2900 3500 
L 3475 3500 
L 3475 0 
L 2900 0 
L 2900 538 
Q 2691 219 2414 64 
Q 2138 -91 1772 -91 
Q 1169 -91 856 284 
Q 544 659 544 1381 
z
M 1991 3584 
L 1991 3584 
z
" transform="scale(0.015625)"/>
        <path id="DejaVuSans-72" d="M 2631 2963 
Q 2534 3019 2420 3045 
Q 2306 3072 2169 3072 
Q 1681 3072 1420 2755 
Q 1159 2438 1159 1844 
L 1159 0 
L 581 0 
L 581 3500 
L 1159 3500 
L 1159 2956 
Q 1341 3275 1631 3429 
Q 1922 3584 2338 3584 
Q 2397 3584 2469 3576 
Q 2541 3569 2628 3553 
L 2631 2963 
z
" transform="scale(0.015625)"/>
        <path id="DejaVuSans-69" d="M 603 3500 
L 1178 3500 
L 1178 0 
L 603 0 
L 603 3500 
z
M 603 4863 
L 1178 4863 
L 1178 4134 
L 603 4134 
L 603 4863 
z
" transform="scale(0.015625)"/>
        <path id="DejaVuSans-73" d="M 2834 3397 
L 2834 2853 
Q 2591 2978 2328 3040 
Q 2066 3103 1784 3103 
Q 1356 3103 1142 2972 
Q 928 2841 928 2578 
Q 928 2378 1081 2264 
Q 1234 2150 1697 2047 
L 1894 2003 
Q 2506 1872 2764 1633 
Q 3022 1394 3022 966 
Q 3022 478 2636 193 
Q 2250 -91 1575 -91 
Q 1294 -91 989 -36 
Q 684 19 347 128 
L 347 722 
Q 666 556 975 473 
Q 1284 391 1588 391 
Q 1994 391 2212 530 
Q 2431 669 2431 922 
Q 2431 1156 2273 1281 
Q 2116 1406 1581 1522 
L 1381 1569 
Q 847 1681 609 1914 
Q 372 2147 372 2553 
Q 372 3047 722 3315 
Q 1072 3584 1716 3584 
Q 2034 3584 2315 3537 
Q 2597 3491 2834 3397 
z
" transform="scale(0.015625)"/>
        <path id="DejaVuSans-20" transform="scale(0.015625)"/>
        <path id="DejaVuSans-43" d="M 4122 4306 
L 4122 3641 
Q 3803 3938 3442 4084 
Q 3081 4231 2675 4231 
Q 1875 4231 1450 3742 
Q 1025 3253 1025 2328 
Q 1025 1406 1450 917 
Q 1875 428 2675 428 
Q 3081 428 3442 575 
Q 3803 722 4122 1019 
L 4122 359 
Q 3791 134 3420 21 
Q 3050 -91 2638 -91 
Q 1578 -91 968 557 
Q 359 1206 359 2328 
Q 359 3453 968 4101 
Q 1578 4750 2638 4750 
Q 3056 4750 3426 4639 
Q 3797 4528 4122 4306 
z
" transform="scale(0.015625)"/>
        <path id="DejaVuSans-2d" d="M 313 2009 
L 1997 2009 
L 1997 1497 
L 313 1497 
L 313 2009 
z
" transform="scale(0.015625)"/>
        <path id="DejaVuSans-Oblique-3b2" d="M 872 216 
L 572 -1331 
L -6 -1331 
L 928 3478 
Q 1206 4903 2538 4903 
Q 3888 4903 3659 3700 
Q 3503 2844 2894 2531 
Q 3713 2250 3553 1416 
Q 3272 -69 1759 -66 
Q 1097 -63 872 216 
z
M 1019 966 
Q 1259 422 1875 425 
Q 2775 425 2966 1406 
Q 3138 2288 1675 2219 
L 1778 2750 
Q 2909 2731 3106 3750 
Q 3241 4438 2509 4434 
Q 1691 4434 1503 3459 
L 1019 966 
z
" transform="scale(0.015625)"/>
       </defs>
       <use xlink:href="#DejaVuSans-48" transform="translate(0 0.390625)"/>
       <use xlink:href="#DejaVuSans-65" transform="translate(75.195312 0.390625)"/>
       <use xlink:href="#DejaVuSans-75" transform="translate(136.71875 0.390625)"/>
       <use xlink:href="#DejaVuSans-72" transform="translate(200.097656 0.390625)"/>
       <use xlink:href="#DejaVuSans-69" transform="translate(241.210938 0.390625)"/>
       <use xlink:href="#DejaVuSans-73" transform="translate(268.994141 0.390625)"/>
       <use xlink:href="#DejaVuSans-74" transform="translate(321.09375 0.390625)"/>
       <use xlink:href="#DejaVuSans-69" transform="translate(360.302734 0.390625)"/>
       <use xlink:href="#DejaVuSans-63" transform="translate(388.085938 0.390625)"/>
       <use xlink:href="#DejaVuSans-20" transform="translate(443.066406 0.390625)"/>
       <use xlink:href="#DejaVuSans-43" transform="translate(474.853516 0.390625)"/>
       <use xlink:href="#DejaVuSans-2d" transform="translate(544.677734 0.390625)"/>
       <use xlink:href="#DejaVuSans-Oblique-3b2" transform="translate(580.761719 0.390625)"/>
      </g>
     </g>
    </g>
    <g id="xtick_5">
     <g id="text_5">
      <!-- Template C-$\beta$ -->
      <g style="fill: #262626" transform="translate(486.992529 674.94886) rotate(-45) scale(0.2 -0.2)">
       <use xlink:href="#DejaVuSans-54" transform="translate(0 0.390625)"/>
       <use xlink:href="#DejaVuSans-65" transform="translate(61.083984 0.390625)"/>
       <use xlink:href="#DejaVuSans-6d" transform="translate(122.607422 0.390625)"/>
       <use xlink:href="#DejaVuSans-70" transform="translate(220.019531 0.390625)"/>
       <use xlink:href="#DejaVuSans-6c" transform="translate(283.496094 0.390625)"/>
       <use xlink:href="#DejaVuSans-61" transform="translate(311.279297 0.390625)"/>
       <use xlink:href="#DejaVuSans-74" transform="translate(372.558594 0.390625)"/>
       <use xlink:href="#DejaVuSans-65" transform="translate(411.767578 0.390625)"/>
       <use xlink:href="#DejaVuSans-20" transform="translate(473.291016 0.390625)"/>
       <use xlink:href="#DejaVuSans-43" transform="translate(505.078125 0.390625)"/>
       <use xlink:href="#DejaVuSans-2d" transform="translate(574.902344 0.390625)"/>
       <use xlink:href="#DejaVuSans-Oblique-3b2" transform="translate(610.986328 0.390625)"/>
      </g>
     </g>
    </g>
    <g id="xtick_6">
     <g id="text_6">
      <!-- AttnPacker -->
      <g style="fill: #262626" transform="translate(617.905383 655.348744) rotate(-45) scale(0.2 -0.2)">
       <defs>
        <path id="DejaVuSans-50" d="M 1259 4147 
L 1259 2394 
L 2053 2394 
Q 2494 2394 2734 2622 
Q 2975 2850 2975 3272 
Q 2975 3691 2734 3919 
Q 2494 4147 2053 4147 
L 1259 4147 
z
M 628 4666 
L 2053 4666 
Q 2838 4666 3239 4311 
Q 3641 3956 3641 3272 
Q 3641 2581 3239 2228 
Q 2838 1875 2053 1875 
L 1259 1875 
L 1259 0 
L 628 0 
L 628 4666 
z
" transform="scale(0.015625)"/>
       </defs>
       <use xlink:href="#DejaVuSans-41"/>
       <use xlink:href="#DejaVuSans-74" x="66.658203"/>
       <use xlink:href="#DejaVuSans-74" x="105.867188"/>
       <use xlink:href="#DejaVuSans-6e" x="145.076172"/>
       <use xlink:href="#DejaVuSans-50" x="208.455078"/>
       <use xlink:href="#DejaVuSans-61" x="264.257812"/>
       <use xlink:href="#DejaVuSans-63" x="325.537109"/>
       <use xlink:href="#DejaVuSans-6b" x="380.517578"/>
       <use xlink:href="#DejaVuSans-65" x="434.802734"/>
       <use xlink:href="#DejaVuSans-72" x="496.326172"/>
      </g>
     </g>
    </g>
    <g id="xtick_7">
     <g id="text_7">
      <!-- AttnPacker (AF2) -->
      <g style="fill: #262626" transform="translate(687.169574 697.684553) rotate(-45) scale(0.2 -0.2)">
       <defs>
        <path id="DejaVuSans-28" d="M 1984 4856 
Q 1566 4138 1362 3434 
Q 1159 2731 1159 2009 
Q 1159 1288 1364 580 
Q 1569 -128 1984 -844 
L 1484 -844 
Q 1016 -109 783 600 
Q 550 1309 550 2009 
Q 550 2706 781 3412 
Q 1013 4119 1484 4856 
L 1984 4856 
z
" transform="scale(0.015625)"/>
        <path id="DejaVuSans-46" d="M 628 4666 
L 3309 4666 
L 3309 4134 
L 1259 4134 
L 1259 2759 
L 3109 2759 
L 3109 2228 
L 1259 2228 
L 1259 0 
L 628 0 
L 628 4666 
z
" transform="scale(0.015625)"/>
        <path id="DejaVuSans-32" d="M 1228 531 
L 3431 531 
L 3431 0 
L 469 0 
L 469 531 
Q 828 903 1448 1529 
Q 2069 2156 2228 2338 
Q 2531 2678 2651 2914 
Q 2772 3150 2772 3378 
Q 2772 3750 2511 3984 
Q 2250 4219 1831 4219 
Q 1534 4219 1204 4116 
Q 875 4013 500 3803 
L 500 4441 
Q 881 4594 1212 4672 
Q 1544 4750 1819 4750 
Q 2544 4750 2975 4387 
Q 3406 4025 3406 3419 
Q 3406 3131 3298 2873 
Q 3191 2616 2906 2266 
Q 2828 2175 2409 1742 
Q 1991 1309 1228 531 
z
" transform="scale(0.015625)"/>
        <path id="DejaVuSans-29" d="M 513 4856 
L 1013 4856 
Q 1481 4119 1714 3412 
Q 1947 2706 1947 2009 
Q 1947 1309 1714 600 
Q 1481 -109 1013 -844 
L 513 -844 
Q 928 -128 1133 580 
Q 1338 1288 1338 2009 
Q 1338 2731 1133 3434 
Q 928 4138 513 4856 
z
" transform="scale(0.015625)"/>
       </defs>
       <use xlink:href="#DejaVuSans-41"/>
       <use xlink:href="#DejaVuSans-74" x="66.658203"/>
       <use xlink:href="#DejaVuSans-74" x="105.867188"/>
       <use xlink:href="#DejaVuSans-6e" x="145.076172"/>
       <use xlink:href="#DejaVuSans-50" x="208.455078"/>
       <use xlink:href="#DejaVuSans-61" x="264.257812"/>
       <use xlink:href="#DejaVuSans-63" x="325.537109"/>
       <use xlink:href="#DejaVuSans-6b" x="380.517578"/>
       <use xlink:href="#DejaVuSans-65" x="434.802734"/>
       <use xlink:href="#DejaVuSans-72" x="496.326172"/>
       <use xlink:href="#DejaVuSans-20" x="537.439453"/>
       <use xlink:href="#DejaVuSans-28" x="569.226562"/>
       <use xlink:href="#DejaVuSans-41" x="608.240234"/>
       <use xlink:href="#DejaVuSans-46" x="676.648438"/>
       <use xlink:href="#DejaVuSans-32" x="734.167969"/>
       <use xlink:href="#DejaVuSans-29" x="797.791016"/>
      </g>
     </g>
    </g>
   </g>
   <g id="matplotlib.axis_2">
    <g id="ytick_1">
     <g id="line2d_1">
      <path d="M 69.3625 522.750082 
L 850.5625 522.750082 
" clip-path="url(#p01a28b01c1)" style="fill: none; stroke: #cccccc; stroke-width: 0.8; stroke-linecap: round"/>
     </g>
     <g id="text_8">
      <!-- 0.0 -->
      <g style="fill: #262626" transform="translate(30.55625 530.348519) scale(0.2 -0.2)">
       <defs>
        <path id="DejaVuSans-30" d="M 2034 4250 
Q 1547 4250 1301 3770 
Q 1056 3291 1056 2328 
Q 1056 1369 1301 889 
Q 1547 409 2034 409 
Q 2525 409 2770 889 
Q 3016 1369 3016 2328 
Q 3016 3291 2770 3770 
Q 2525 4250 2034 4250 
z
M 2034 4750 
Q 2819 4750 3233 4129 
Q 3647 3509 3647 2328 
Q 3647 1150 3233 529 
Q 2819 -91 2034 -91 
Q 1250 -91 836 529 
Q 422 1150 422 2328 
Q 422 3509 836 4129 
Q 1250 4750 2034 4750 
z
" transform="scale(0.015625)"/>
        <path id="DejaVuSans-2e" d="M 684 794 
L 1344 794 
L 1344 0 
L 684 0 
L 684 794 
z
" transform="scale(0.015625)"/>
       </defs>
       <use xlink:href="#DejaVuSans-30"/>
       <use xlink:href="#DejaVuSans-2e" x="63.623047"/>
       <use xlink:href="#DejaVuSans-30" x="95.410156"/>
      </g>
     </g>
    </g>
    <g id="ytick_2">
     <g id="line2d_2">
      <path d="M 69.3625 426.577305 
L 850.5625 426.577305 
" clip-path="url(#p01a28b01c1)" style="fill: none; stroke: #cccccc; stroke-width: 0.8; stroke-linecap: round"/>
     </g>
     <g id="text_9">
      <!-- 0.2 -->
      <g style="fill: #262626" transform="translate(30.55625 434.175742) scale(0.2 -0.2)">
       <use xlink:href="#DejaVuSans-30"/>
       <use xlink:href="#DejaVuSans-2e" x="63.623047"/>
       <use xlink:href="#DejaVuSans-32" x="95.410156"/>
      </g>
     </g>
    </g>
    <g id="ytick_3">
     <g id="line2d_3">
      <path d="M 69.3625 330.404528 
L 850.5625 330.404528 
" clip-path="url(#p01a28b01c1)" style="fill: none; stroke: #cccccc; stroke-width: 0.8; stroke-linecap: round"/>
     </g>
     <g id="text_10">
      <!-- 0.4 -->
      <g style="fill: #262626" transform="translate(30.55625 338.002965) scale(0.2 -0.2)">
       <defs>
        <path id="DejaVuSans-34" d="M 2419 4116 
L 825 1625 
L 2419 1625 
L 2419 4116 
z
M 2253 4666 
L 3047 4666 
L 3047 1625 
L 3713 1625 
L 3713 1100 
L 3047 1100 
L 3047 0 
L 2419 0 
L 2419 1100 
L 313 1100 
L 313 1709 
L 2253 4666 
z
" transform="scale(0.015625)"/>
       </defs>
       <use xlink:href="#DejaVuSans-30"/>
       <use xlink:href="#DejaVuSans-2e" x="63.623047"/>
       <use xlink:href="#DejaVuSans-34" x="95.410156"/>
      </g>
     </g>
    </g>
    <g id="ytick_4">
     <g id="line2d_4">
      <path d="M 69.3625 234.231751 
L 850.5625 234.231751 
" clip-path="url(#p01a28b01c1)" style="fill: none; stroke: #cccccc; stroke-width: 0.8; stroke-linecap: round"/>
     </g>
     <g id="text_11">
      <!-- 0.6 -->
      <g style="fill: #262626" transform="translate(30.55625 241.830188) scale(0.2 -0.2)">
       <defs>
        <path id="DejaVuSans-36" d="M 2113 2584 
Q 1688 2584 1439 2293 
Q 1191 2003 1191 1497 
Q 1191 994 1439 701 
Q 1688 409 2113 409 
Q 2538 409 2786 701 
Q 3034 994 3034 1497 
Q 3034 2003 2786 2293 
Q 2538 2584 2113 2584 
z
M 3366 4563 
L 3366 3988 
Q 3128 4100 2886 4159 
Q 2644 4219 2406 4219 
Q 1781 4219 1451 3797 
Q 1122 3375 1075 2522 
Q 1259 2794 1537 2939 
Q 1816 3084 2150 3084 
Q 2853 3084 3261 2657 
Q 3669 2231 3669 1497 
Q 3669 778 3244 343 
Q 2819 -91 2113 -91 
Q 1303 -91 875 529 
Q 447 1150 447 2328 
Q 447 3434 972 4092 
Q 1497 4750 2381 4750 
Q 2619 4750 2861 4703 
Q 3103 4656 3366 4563 
z
" transform="scale(0.015625)"/>
       </defs>
       <use xlink:href="#DejaVuSans-30"/>
       <use xlink:href="#DejaVuSans-2e" x="63.623047"/>
       <use xlink:href="#DejaVuSans-36" x="95.410156"/>
      </g>
     </g>
    </g>
    <g id="ytick_5">
     <g id="line2d_5">
      <path d="M 69.3625 138.058974 
L 850.5625 138.058974 
" clip-path="url(#p01a28b01c1)" style="fill: none; stroke: #cccccc; stroke-width: 0.8; stroke-linecap: round"/>
     </g>
     <g id="text_12">
      <!-- 0.8 -->
      <g style="fill: #262626" transform="translate(30.55625 145.657411) scale(0.2 -0.2)">
       <defs>
        <path id="DejaVuSans-38" d="M 2034 2216 
Q 1584 2216 1326 1975 
Q 1069 1734 1069 1313 
Q 1069 891 1326 650 
Q 1584 409 2034 409 
Q 2484 409 2743 651 
Q 3003 894 3003 1313 
Q 3003 1734 2745 1975 
Q 2488 2216 2034 2216 
z
M 1403 2484 
Q 997 2584 770 2862 
Q 544 3141 544 3541 
Q 544 4100 942 4425 
Q 1341 4750 2034 4750 
Q 2731 4750 3128 4425 
Q 3525 4100 3525 3541 
Q 3525 3141 3298 2862 
Q 3072 2584 2669 2484 
Q 3125 2378 3379 2068 
Q 3634 1759 3634 1313 
Q 3634 634 3220 271 
Q 2806 -91 2034 -91 
Q 1263 -91 848 271 
Q 434 634 434 1313 
Q 434 1759 690 2068 
Q 947 2378 1403 2484 
z
M 1172 3481 
Q 1172 3119 1398 2916 
Q 1625 2713 2034 2713 
Q 2441 2713 2670 2916 
Q 2900 3119 2900 3481 
Q 2900 3844 2670 4047 
Q 2441 4250 2034 4250 
Q 1625 4250 1398 4047 
Q 1172 3844 1172 3481 
z
" transform="scale(0.015625)"/>
       </defs>
       <use xlink:href="#DejaVuSans-30"/>
       <use xlink:href="#DejaVuSans-2e" x="63.623047"/>
       <use xlink:href="#DejaVuSans-38" x="95.410156"/>
      </g>
     </g>
    </g>
    <g id="ytick_6">
     <g id="line2d_6">
      <path d="M 69.3625 41.886197 
L 850.5625 41.886197 
" clip-path="url(#p01a28b01c1)" style="fill: none; stroke: #cccccc; stroke-width: 0.8; stroke-linecap: round"/>
     </g>
     <g id="text_13">
      <!-- 1.0 -->
      <g style="fill: #262626" transform="translate(30.55625 49.484634) scale(0.2 -0.2)">
       <defs>
        <path id="DejaVuSans-31" d="M 794 531 
L 1825 531 
L 1825 4091 
L 703 3866 
L 703 4441 
L 1819 4666 
L 2450 4666 
L 2450 531 
L 3481 531 
L 3481 0 
L 794 0 
L 794 531 
z
" transform="scale(0.015625)"/>
       </defs>
       <use xlink:href="#DejaVuSans-31"/>
       <use xlink:href="#DejaVuSans-2e" x="63.623047"/>
       <use xlink:href="#DejaVuSans-30" x="95.410156"/>
      </g>
     </g>
    </g>
    <g id="text_14">
     <!-- MAE 2 (rad) -->
     <g style="fill: #262626" transform="translate(22.396875 343.296875) rotate(-90) scale(0.2 -0.2)">
      <defs>
       <path id="DejaVuSans-45" d="M 628 4666 
L 3578 4666 
L 3578 4134 
L 1259 4134 
L 1259 2753 
L 3481 2753 
L 3481 2222 
L 1259 2222 
L 1259 531 
L 3634 531 
L 3634 0 
L 628 0 
L 628 4666 
z
" transform="scale(0.015625)"/>
       <path id="DejaVuSans-64" d="M 2906 2969 
L 2906 4863 
L 3481 4863 
L 3481 0 
L 2906 0 
L 2906 525 
Q 2725 213 2448 61 
Q 2172 -91 1784 -91 
Q 1150 -91 751 415 
Q 353 922 353 1747 
Q 353 2572 751 3078 
Q 1150 3584 1784 3584 
Q 2172 3584 2448 3432 
Q 2725 3281 2906 2969 
z
M 947 1747 
Q 947 1113 1208 752 
Q 1469 391 1925 391 
Q 2381 391 2643 752 
Q 2906 1113 2906 1747 
Q 2906 2381 2643 2742 
Q 2381 3103 1925 3103 
Q 1469 3103 1208 2742 
Q 947 2381 947 1747 
z
" transform="scale(0.015625)"/>
      </defs>
      <use xlink:href="#DejaVuSans-4d"/>
      <use xlink:href="#DejaVuSans-41" x="86.279297"/>
      <use xlink:href="#DejaVuSans-45" x="154.6875"/>
      <use xlink:href="#DejaVuSans-20" x="217.871094"/>
      <use xlink:href="#DejaVuSans-32" x="249.658203"/>
      <use xlink:href="#DejaVuSans-20" x="313.28125"/>
      <use xlink:href="#DejaVuSans-28" x="345.068359"/>
      <use xlink:href="#DejaVuSans-72" x="384.082031"/>
      <use xlink:href="#DejaVuSans-61" x="425.195312"/>
      <use xlink:href="#DejaVuSans-64" x="486.474609"/>
      <use xlink:href="#DejaVuSans-29" x="549.951172"/>
     </g>
    </g>
   </g>
   <g id="PolyCollection_1">
    <defs>
     <path id="m6d515bfef2" d="M 125.562134 -250.192462 
L 124.762866 -250.192462 
L 124.633489 -254.147823 
L 124.470857 -258.103184 
L 124.269095 -262.058545 
L 124.021975 -266.013905 
L 123.723039 -269.969266 
L 123.365752 -273.924627 
L 122.943669 -277.879988 
L 122.450611 -281.835349 
L 121.880849 -285.79071 
L 121.229293 -289.74607 
L 120.491671 -293.701431 
L 119.664704 -297.656792 
L 118.746274 -301.612153 
L 117.735579 -305.567514 
L 116.63327 -309.522875 
L 115.441566 -313.478235 
L 114.164344 -317.433596 
L 112.807185 -321.388957 
L 111.377375 -325.344318 
L 109.883857 -329.299679 
L 108.337124 -333.25504 
L 106.749062 -337.2104 
L 105.132745 -341.165761 
L 103.502198 -345.121122 
L 101.872135 -349.076483 
L 100.257691 -353.031844 
L 98.67414 -356.987205 
L 97.136619 -360.942565 
L 95.659833 -364.897926 
L 94.257737 -368.853287 
L 92.943174 -372.808648 
L 91.727467 -376.764009 
L 90.619948 -380.71937 
L 89.627459 -384.67473 
L 88.753839 -388.630091 
L 87.999457 -392.585452 
L 87.360854 -396.540813 
L 86.830564 -400.496174 
L 86.397173 -404.451535 
L 86.045675 -408.406895 
L 85.758129 -412.362256 
L 85.514613 -416.317617 
L 85.294427 -420.272978 
L 85.077454 -424.228339 
L 84.845574 -428.1837 
L 84.584016 -432.13906 
L 84.282516 -436.094421 
L 83.936185 -440.049782 
L 83.546001 -444.005143 
L 83.118869 -447.960504 
L 82.667236 -451.915865 
L 82.208299 -455.871225 
L 81.76283 -459.826586 
L 81.353736 -463.781947 
L 81.004434 -467.737308 
L 80.737174 -471.692669 
L 80.571432 -475.64803 
L 80.5225 -479.603391 
L 80.600387 -483.558751 
L 80.809123 -487.514112 
L 81.14654 -491.469473 
L 81.604556 -495.424834 
L 82.169953 -499.380195 
L 82.825596 -503.335556 
L 83.551998 -507.290916 
L 84.329099 -511.246277 
L 85.1381 -515.201638 
L 85.963195 -519.156999 
L 86.793026 -523.11236 
L 87.621735 -527.067721 
L 88.449502 -531.023081 
L 89.282515 -534.978442 
L 90.132359 -538.933803 
L 91.014895 -542.889164 
L 91.948691 -546.844525 
L 92.953178 -550.799886 
L 94.04667 -554.755246 
L 95.24444 -558.710607 
L 96.557014 -562.665968 
L 97.98884 -566.621329 
L 99.537458 -570.57669 
L 101.193223 -574.532051 
L 102.939623 -578.487411 
L 104.754139 -582.442772 
L 106.609574 -586.398133 
L 108.475717 -590.353494 
L 110.321187 -594.308855 
L 112.115302 -598.264216 
L 113.829804 -602.219576 
L 115.440302 -606.174937 
L 116.927356 -610.130298 
L 118.277111 -614.085659 
L 119.481511 -618.04102 
L 120.538082 -621.996381 
L 121.449395 -625.951741 
L 122.222259 -629.907102 
L 122.866771 -633.862463 
L 123.395305 -637.817824 
L 123.821545 -641.773185 
L 126.503455 -641.773185 
L 126.503455 -641.773185 
L 126.929695 -637.817824 
L 127.458229 -633.862463 
L 128.102741 -629.907102 
L 128.875605 -625.951741 
L 129.786918 -621.996381 
L 130.843489 -618.04102 
L 132.047889 -614.085659 
L 133.397644 -610.130298 
L 134.884698 -606.174937 
L 136.495196 -602.219576 
L 138.209698 -598.264216 
L 140.003813 -594.308855 
L 141.849283 -590.353494 
L 143.715426 -586.398133 
L 145.570861 -582.442772 
L 147.385377 -578.487411 
L 149.131777 -574.532051 
L 150.787542 -570.57669 
L 152.33616 -566.621329 
L 153.767986 -562.665968 
L 155.08056 -558.710607 
L 156.27833 -554.755246 
L 157.371822 -550.799886 
L 158.376309 -546.844525 
L 159.310105 -542.889164 
L 160.192641 -538.933803 
L 161.042485 -534.978442 
L 161.875498 -531.023081 
L 162.703265 -527.067721 
L 163.531974 -523.11236 
L 164.361805 -519.156999 
L 165.1869 -515.201638 
L 165.995901 -511.246277 
L 166.773002 -507.290916 
L 167.499404 -503.335556 
L 168.155047 -499.380195 
L 168.720444 -495.424834 
L 169.17846 -491.469473 
L 169.515877 -487.514112 
L 169.724613 -483.558751 
L 169.8025 -479.603391 
L 169.753568 -475.64803 
L 169.587826 -471.692669 
L 169.320566 -467.737308 
L 168.971264 -463.781947 
L 168.56217 -459.826586 
L 168.116701 -455.871225 
L 167.657764 -451.915865 
L 167.206131 -447.960504 
L 166.778999 -444.005143 
L 166.388815 -440.049782 
L 166.042484 -436.094421 
L 165.740984 -432.13906 
L 165.479426 -428.1837 
L 165.247546 -424.228339 
L 165.030573 -420.272978 
L 164.810387 -416.317617 
L 164.566871 -412.362256 
L 164.279325 -408.406895 
L 163.927827 -404.451535 
L 163.494436 -400.496174 
L 162.964146 -396.540813 
L 162.325543 -392.585452 
L 161.571161 -388.630091 
L 160.697541 -384.67473 
L 159.705052 -380.71937 
L 158.597533 -376.764009 
L 157.381826 -372.808648 
L 156.067263 -368.853287 
L 154.665167 -364.897926 
L 153.188381 -360.942565 
L 151.65086 -356.987205 
L 150.067309 -353.031844 
L 148.452865 -349.076483 
L 146.822802 -345.121122 
L 145.192255 -341.165761 
L 143.575938 -337.2104 
L 141.987876 -333.25504 
L 140.441143 -329.299679 
L 138.947625 -325.344318 
L 137.517815 -321.388957 
L 136.160656 -317.433596 
L 134.883434 -313.478235 
L 133.69173 -309.522875 
L 132.589421 -305.567514 
L 131.578726 -301.612153 
L 130.660296 -297.656792 
L 129.833329 -293.701431 
L 129.095707 -289.74607 
L 128.444151 -285.79071 
L 127.874389 -281.835349 
L 127.381331 -277.879988 
L 126.959248 -273.924627 
L 126.601961 -269.969266 
L 126.303025 -266.013905 
L 126.055905 -262.058545 
L 125.854143 -258.103184 
L 125.691511 -254.147823 
L 125.562134 -250.192462 
z
" style="stroke: #3d3d3d; stroke-opacity: 0.5"/>
    </defs>
    <g clip-path="url(#p01a28b01c1)">
     <use xlink:href="#m6d515bfef2" x="0" y="707.825675" style="fill: #3274a1; fill-opacity: 0.5; stroke: #3d3d3d; stroke-opacity: 0.5"/>
    </g>
   </g>
   <g id="PolyCollection_2">
    <defs>
     <path id="mb489b9a94f" d="M 237.216619 -171.425675 
L 236.308381 -171.425675 
L 236.129214 -176.134867 
L 235.89108 -180.844059 
L 235.57906 -185.553252 
L 235.176016 -190.262444 
L 234.662782 -194.971636 
L 234.018571 -199.680829 
L 233.22164 -204.390021 
L 232.250254 -209.099213 
L 231.083932 -213.808405 
L 229.704984 -218.517598 
L 228.100242 -223.22679 
L 226.262905 -227.935982 
L 224.194323 -232.645175 
L 221.90557 -237.354367 
L 219.418564 -242.063559 
L 216.766586 -246.772751 
L 213.993998 -251.481944 
L 211.155079 -256.191136 
L 208.311946 -260.900328 
L 205.531647 -265.609521 
L 202.882574 -270.318713 
L 200.430493 -275.027905 
L 198.234486 -279.737097 
L 196.34319 -284.44629 
L 194.791676 -289.155482 
L 193.599288 -293.864674 
L 192.768647 -298.573867 
L 192.285947 -303.283059 
L 192.1225 -307.992251 
L 192.237392 -312.701443 
L 192.580967 -317.410636 
L 193.098793 -322.119828 
L 193.735707 -326.82902 
L 194.439568 -331.538213 
L 195.164372 -336.247405 
L 195.872503 -340.956597 
L 196.536015 -345.665789 
L 197.136954 -350.374982 
L 197.666856 -355.084174 
L 198.125631 -359.793366 
L 198.520101 -364.502559 
L 198.86241 -369.211751 
L 199.16853 -373.920943 
L 199.456952 -378.630135 
L 199.747614 -383.339328 
L 200.060994 -388.04852 
L 200.417288 -392.757712 
L 200.835554 -397.466905 
L 201.332759 -402.176097 
L 201.922699 -406.885289 
L 202.614861 -411.594481 
L 203.413377 -416.303674 
L 204.316213 -421.012866 
L 205.314829 -425.722058 
L 206.394424 -430.431251 
L 207.534865 -435.140443 
L 208.712264 -439.849635 
L 209.901074 -444.558827 
L 211.076461 -449.26802 
L 212.216682 -453.977212 
L 213.305149 -458.686404 
L 214.331909 -463.395597 
L 215.294358 -468.104789 
L 216.197092 -472.813981 
L 217.050922 -477.523173 
L 217.871201 -482.232366 
L 218.675691 -486.941558 
L 219.482227 -491.65075 
L 220.306497 -496.359943 
L 221.160177 -501.069135 
L 222.049637 -505.778327 
L 222.97534 -510.487519 
L 223.931959 -515.196712 
L 224.909155 -519.905904 
L 225.892877 -524.615096 
L 226.866996 -529.324289 
L 227.815039 -534.033481 
L 228.721819 -538.742673 
L 229.57477 -543.451865 
L 230.364846 -548.161058 
L 231.086934 -552.87025 
L 231.739778 -557.579442 
L 232.325486 -562.288635 
L 232.848737 -566.997827 
L 233.315841 -571.707019 
L 233.733782 -576.416212 
L 234.109384 -581.125404 
L 234.448676 -585.834596 
L 234.756515 -590.543788 
L 235.036455 -595.252981 
L 235.290836 -599.962173 
L 235.521023 -604.671365 
L 235.727735 -609.380558 
L 235.911388 -614.08975 
L 236.072392 -618.798942 
L 236.21138 -623.508134 
L 236.329336 -628.217327 
L 236.427634 -632.926519 
L 236.508001 -637.635711 
L 237.016999 -637.635711 
L 237.016999 -637.635711 
L 237.097366 -632.926519 
L 237.195664 -628.217327 
L 237.31362 -623.508134 
L 237.452608 -618.798942 
L 237.613612 -614.08975 
L 237.797265 -609.380558 
L 238.003977 -604.671365 
L 238.234164 -599.962173 
L 238.488545 -595.252981 
L 238.768485 -590.543788 
L 239.076324 -585.834596 
L 239.415616 -581.125404 
L 239.791218 -576.416212 
L 240.209159 -571.707019 
L 240.676263 -566.997827 
L 241.199514 -562.288635 
L 241.785222 -557.579442 
L 242.438066 -552.87025 
L 243.160154 -548.161058 
L 243.95023 -543.451865 
L 244.803181 -538.742673 
L 245.709961 -534.033481 
L 246.658004 -529.324289 
L 247.632123 -524.615096 
L 248.615845 -519.905904 
L 249.593041 -515.196712 
L 250.54966 -510.487519 
L 251.475363 -505.778327 
L 252.364823 -501.069135 
L 253.218503 -496.359943 
L 254.042773 -491.65075 
L 254.849309 -486.941558 
L 255.653799 -482.232366 
L 256.474078 -477.523173 
L 257.327908 -472.813981 
L 258.230642 -468.104789 
L 259.193091 -463.395597 
L 260.219851 -458.686404 
L 261.308318 -453.977212 
L 262.448539 -449.26802 
L 263.623926 -444.558827 
L 264.812736 -439.849635 
L 265.990135 -435.140443 
L 267.130576 -430.431251 
L 268.210171 -425.722058 
L 269.208787 -421.012866 
L 270.111623 -416.303674 
L 270.910139 -411.594481 
L 271.602301 -406.885289 
L 272.192241 -402.176097 
L 272.689446 -397.466905 
L 273.107712 -392.757712 
L 273.464006 -388.04852 
L 273.777386 -383.339328 
L 274.068048 -378.630135 
L 274.35647 -373.920943 
L 274.66259 -369.211751 
L 275.004899 -364.502559 
L 275.399369 -359.793366 
L 275.858144 -355.084174 
L 276.388046 -350.374982 
L 276.988985 -345.665789 
L 277.652497 -340.956597 
L 278.360628 -336.247405 
L 279.085432 -331.538213 
L 279.789293 -326.82902 
L 280.426207 -322.119828 
L 280.944033 -317.410636 
L 281.287608 -312.701443 
L 281.4025 -307.992251 
L 281.239053 -303.283059 
L 280.756353 -298.573867 
L 279.925712 -293.864674 
L 278.733324 -289.155482 
L 277.18181 -284.44629 
L 275.290514 -279.737097 
L 273.094507 -275.027905 
L 270.642426 -270.318713 
L 267.993353 -265.609521 
L 265.213054 -260.900328 
L 262.369921 -256.191136 
L 259.531002 -251.481944 
L 256.758414 -246.772751 
L 254.106436 -242.063559 
L 251.61943 -237.354367 
L 249.330677 -232.645175 
L 247.262095 -227.935982 
L 245.424758 -223.22679 
L 243.820016 -218.517598 
L 242.441068 -213.808405 
L 241.274746 -209.099213 
L 240.30336 -204.390021 
L 239.506429 -199.680829 
L 238.862218 -194.971636 
L 238.348984 -190.262444 
L 237.94594 -185.553252 
L 237.63392 -180.844059 
L 237.395786 -176.134867 
L 237.216619 -171.425675 
z
" style="stroke: #3d3d3d; stroke-opacity: 0.5"/>
    </defs>
    <g clip-path="url(#p01a28b01c1)">
     <use xlink:href="#mb489b9a94f" x="0" y="707.825675" style="fill: #d684bd; fill-opacity: 0.5; stroke: #3d3d3d; stroke-opacity: 0.5"/>
    </g>
   </g>
   <g id="PolyCollection_3">
    <defs>
     <path id="m14812af924" d="M 348.61736 -336.43942 
L 348.10764 -336.43942 
L 348.027095 -339.537739 
L 347.928438 -342.636059 
L 347.809824 -345.734379 
L 347.669718 -348.832698 
L 347.506927 -351.931018 
L 347.320544 -355.029337 
L 347.109804 -358.127657 
L 346.873826 -361.225977 
L 346.611259 -364.324296 
L 346.319851 -367.422616 
L 345.995999 -370.520936 
L 345.634328 -373.619255 
L 345.227383 -376.717575 
L 344.765506 -379.815895 
L 344.236958 -382.914214 
L 343.628324 -386.012534 
L 342.925229 -389.110854 
L 342.113324 -392.209173 
L 341.179492 -395.307493 
L 340.113173 -398.405813 
L 338.907701 -401.504132 
L 337.561494 -404.602452 
L 336.07899 -407.700772 
L 334.471177 -410.799091 
L 332.755645 -413.897411 
L 330.956093 -416.99573 
L 329.101291 -420.09405 
L 327.223553 -423.19237 
L 325.356818 -426.290689 
L 323.534507 -429.389009 
L 321.787321 -432.487329 
L 320.141185 -435.585648 
L 318.615534 -438.683968 
L 317.222084 -441.782288 
L 315.964217 -444.880607 
L 314.837045 -447.978927 
L 313.828146 -451.077247 
L 312.918936 -454.175566 
L 312.08659 -457.273886 
L 311.306353 -460.372206 
L 310.55411 -463.470525 
L 309.809004 -466.568845 
L 309.055909 -469.667165 
L 308.28754 -472.765484 
L 307.505983 -475.863804 
L 306.723455 -478.962124 
L 305.962144 -482.060443 
L 305.253038 -485.158763 
L 304.633757 -488.257082 
L 304.14551 -491.355402 
L 303.829411 -494.453722 
L 303.7225 -497.552041 
L 303.853878 -500.650361 
L 304.241401 -503.748681 
L 304.889334 -506.847 
L 305.787274 -509.94532 
L 306.910511 -513.04364 
L 308.221807 -516.141959 
L 309.674414 -519.240279 
L 311.215967 -522.338599 
L 312.792799 -525.436918 
L 314.354179 -528.535238 
L 315.855998 -531.633558 
L 317.263546 -534.731877 
L 318.553141 -537.830197 
L 319.712562 -540.928517 
L 320.740387 -544.026836 
L 321.644474 -547.125156 
L 322.439899 -550.223476 
L 323.146672 -553.321795 
L 323.787552 -556.420115 
L 324.386163 -559.518434 
L 324.965557 -562.616754 
L 325.547222 -565.715074 
L 326.150498 -568.813393 
L 326.792254 -571.911713 
L 327.48671 -575.010033 
L 328.245271 -578.108352 
L 329.07628 -581.206672 
L 329.984698 -584.304992 
L 330.971715 -587.403311 
L 332.0344 -590.501631 
L 333.165477 -593.599951 
L 334.353358 -596.69827 
L 335.582485 -599.79659 
L 336.834029 -602.89491 
L 338.08691 -605.993229 
L 339.319063 -609.091549 
L 340.508821 -612.189869 
L 341.636275 -615.288188 
L 342.684462 -618.386508 
L 343.64027 -621.484828 
L 344.494974 -624.583147 
L 345.244383 -627.681467 
L 345.88862 -630.779786 
L 346.431585 -633.878106 
L 346.880213 -636.976426 
L 347.243616 -640.074745 
L 347.532202 -643.173065 
L 349.192798 -643.173065 
L 349.192798 -643.173065 
L 349.481384 -640.074745 
L 349.844787 -636.976426 
L 350.293415 -633.878106 
L 350.83638 -630.779786 
L 351.480617 -627.681467 
L 352.230026 -624.583147 
L 353.08473 -621.484828 
L 354.040538 -618.386508 
L 355.088725 -615.288188 
L 356.216179 -612.189869 
L 357.405937 -609.091549 
L 358.63809 -605.993229 
L 359.890971 -602.89491 
L 361.142515 -599.79659 
L 362.371642 -596.69827 
L 363.559523 -593.599951 
L 364.6906 -590.501631 
L 365.753285 -587.403311 
L 366.740302 -584.304992 
L 367.64872 -581.206672 
L 368.479729 -578.108352 
L 369.23829 -575.010033 
L 369.932746 -571.911713 
L 370.574502 -568.813393 
L 371.177778 -565.715074 
L 371.759443 -562.616754 
L 372.338837 -559.518434 
L 372.937448 -556.420115 
L 373.578328 -553.321795 
L 374.285101 -550.223476 
L 375.080526 -547.125156 
L 375.984613 -544.026836 
L 377.012438 -540.928517 
L 378.171859 -537.830197 
L 379.461454 -534.731877 
L 380.869002 -531.633558 
L 382.370821 -528.535238 
L 383.932201 -525.436918 
L 385.509033 -522.338599 
L 387.050586 -519.240279 
L 388.503193 -516.141959 
L 389.814489 -513.04364 
L 390.937726 -509.94532 
L 391.835666 -506.847 
L 392.483599 -503.748681 
L 392.871122 -500.650361 
L 393.0025 -497.552041 
L 392.895589 -494.453722 
L 392.57949 -491.355402 
L 392.091243 -488.257082 
L 391.471962 -485.158763 
L 390.762856 -482.060443 
L 390.001545 -478.962124 
L 389.219017 -475.863804 
L 388.43746 -472.765484 
L 387.669091 -469.667165 
L 386.915996 -466.568845 
L 386.17089 -463.470525 
L 385.418647 -460.372206 
L 384.63841 -457.273886 
L 383.806064 -454.175566 
L 382.896854 -451.077247 
L 381.887955 -447.978927 
L 380.760783 -444.880607 
L 379.502916 -441.782288 
L 378.109466 -438.683968 
L 376.583815 -435.585648 
L 374.937679 -432.487329 
L 373.190493 -429.389009 
L 371.368182 -426.290689 
L 369.501447 -423.19237 
L 367.623709 -420.09405 
L 365.768907 -416.99573 
L 363.969355 -413.897411 
L 362.253823 -410.799091 
L 360.64601 -407.700772 
L 359.163506 -404.602452 
L 357.817299 -401.504132 
L 356.611827 -398.405813 
L 355.545508 -395.307493 
L 354.611676 -392.209173 
L 353.799771 -389.110854 
L 353.096676 -386.012534 
L 352.488042 -382.914214 
L 351.959494 -379.815895 
L 351.497617 -376.717575 
L 351.090672 -373.619255 
L 350.729001 -370.520936 
L 350.405149 -367.422616 
L 350.113741 -364.324296 
L 349.851174 -361.225977 
L 349.615196 -358.127657 
L 349.404456 -355.029337 
L 349.218073 -351.931018 
L 349.055282 -348.832698 
L 348.915176 -345.734379 
L 348.796562 -342.636059 
L 348.697905 -339.537739 
L 348.61736 -336.43942 
z
" style="stroke: #3d3d3d; stroke-opacity: 0.5"/>
    </defs>
    <g clip-path="url(#p01a28b01c1)">
     <use xlink:href="#m14812af924" x="0" y="707.825675" style="fill: #c03d3e; fill-opacity: 0.5; stroke: #3d3d3d; stroke-opacity: 0.5"/>
    </g>
   </g>
   <g id="PolyCollection_4">
    <defs>
     <path id="m13ec5a2268" d="M 460.248837 -226.461651 
L 459.676163 -226.461651 
L 459.579239 -230.859559 
L 459.457159 -235.257468 
L 459.305758 -239.655377 
L 459.120732 -244.053286 
L 458.89771 -248.451194 
L 458.632325 -252.849103 
L 458.320265 -257.247012 
L 457.95732 -261.64492 
L 457.539413 -266.042829 
L 457.062649 -270.440738 
L 456.523368 -274.838647 
L 455.918224 -279.236555 
L 455.244288 -283.634464 
L 454.499159 -288.032373 
L 453.681078 -292.430281 
L 452.789024 -296.82819 
L 451.822768 -301.226099 
L 450.782895 -305.624008 
L 449.670798 -310.021916 
L 448.488673 -314.419825 
L 447.23957 -318.817734 
L 445.927524 -323.215643 
L 444.557812 -327.613551 
L 443.137332 -332.01146 
L 441.675053 -336.409369 
L 440.182457 -340.807277 
L 438.673838 -345.205186 
L 437.166331 -349.603095 
L 435.679539 -354.001004 
L 434.234677 -358.398912 
L 432.853256 -362.796821 
L 431.555367 -367.19473 
L 430.357774 -371.592638 
L 429.272041 -375.990547 
L 428.302974 -380.388456 
L 427.447636 -384.786365 
L 426.695129 -389.184273 
L 426.027239 -393.582182 
L 425.419935 -397.980091 
L 424.845573 -402.377999 
L 424.275602 -406.775908 
L 423.683467 -411.173817 
L 423.04741 -415.571726 
L 422.352887 -419.969634 
L 421.594351 -424.367543 
L 420.776257 -428.765452 
L 419.913198 -433.16336 
L 419.029186 -437.561269 
L 418.156151 -441.959178 
L 417.331797 -446.357087 
L 416.597 -450.754995 
L 415.992952 -455.152904 
L 415.558261 -459.550813 
L 415.326231 -463.948722 
L 415.3225 -468.34663 
L 415.563209 -472.744539 
L 416.053821 -477.142448 
L 416.788679 -481.540356 
L 417.751316 -485.938265 
L 418.915519 -490.336174 
L 420.247065 -494.734083 
L 421.70601 -499.131991 
L 423.24937 -503.5299 
L 424.833999 -507.927809 
L 426.419434 -512.325717 
L 427.970487 -516.723626 
L 429.459359 -521.121535 
L 430.867098 -525.519444 
L 432.184277 -529.917352 
L 433.410836 -534.315261 
L 434.555123 -538.71317 
L 435.632257 -543.111078 
L 436.661984 -547.508987 
L 437.666276 -551.906896 
L 438.666918 -556.304805 
L 439.68332 -560.702713 
L 440.730763 -565.100622 
L 441.819198 -569.498531 
L 442.952656 -573.896439 
L 444.129269 -578.294348 
L 445.3418 -582.692257 
L 446.578576 -587.090166 
L 447.824679 -591.488074 
L 449.063243 -595.885983 
L 450.276745 -600.283892 
L 451.448176 -604.681801 
L 452.562036 -609.079709 
L 453.605094 -613.477618 
L 454.566921 -617.875527 
L 455.440186 -622.273435 
L 456.220729 -626.671344 
L 456.90745 -631.069253 
L 457.502036 -635.467162 
L 458.00857 -639.86507 
L 458.433054 -644.262979 
L 458.782892 -648.660888 
L 459.066371 -653.058796 
L 459.292166 -657.456705 
L 459.468911 -661.854614 
L 460.456089 -661.854614 
L 460.456089 -661.854614 
L 460.632834 -657.456705 
L 460.858629 -653.058796 
L 461.142108 -648.660888 
L 461.491946 -644.262979 
L 461.91643 -639.86507 
L 462.422964 -635.467162 
L 463.01755 -631.069253 
L 463.704271 -626.671344 
L 464.484814 -622.273435 
L 465.358079 -617.875527 
L 466.319906 -613.477618 
L 467.362964 -609.079709 
L 468.476824 -604.681801 
L 469.648255 -600.283892 
L 470.861757 -595.885983 
L 472.100321 -591.488074 
L 473.346424 -587.090166 
L 474.5832 -582.692257 
L 475.795731 -578.294348 
L 476.972344 -573.896439 
L 478.105802 -569.498531 
L 479.194237 -565.100622 
L 480.24168 -560.702713 
L 481.258082 -556.304805 
L 482.258724 -551.906896 
L 483.263016 -547.508987 
L 484.292743 -543.111078 
L 485.369877 -538.71317 
L 486.514164 -534.315261 
L 487.740723 -529.917352 
L 489.057902 -525.519444 
L 490.465641 -521.121535 
L 491.954513 -516.723626 
L 493.505566 -512.325717 
L 495.091001 -507.927809 
L 496.67563 -503.5299 
L 498.21899 -499.131991 
L 499.677935 -494.734083 
L 501.009481 -490.336174 
L 502.173684 -485.938265 
L 503.136321 -481.540356 
L 503.871179 -477.142448 
L 504.361791 -472.744539 
L 504.6025 -468.34663 
L 504.598769 -463.948722 
L 504.366739 -459.550813 
L 503.932048 -455.152904 
L 503.328 -450.754995 
L 502.593203 -446.357087 
L 501.768849 -441.959178 
L 500.895814 -437.561269 
L 500.011802 -433.16336 
L 499.148743 -428.765452 
L 498.330649 -424.367543 
L 497.572113 -419.969634 
L 496.87759 -415.571726 
L 496.241533 -411.173817 
L 495.649398 -406.775908 
L 495.079427 -402.377999 
L 494.505065 -397.980091 
L 493.897761 -393.582182 
L 493.229871 -389.184273 
L 492.477364 -384.786365 
L 491.622026 -380.388456 
L 490.652959 -375.990547 
L 489.567226 -371.592638 
L 488.369633 -367.19473 
L 487.071744 -362.796821 
L 485.690323 -358.398912 
L 484.245461 -354.001004 
L 482.758669 -349.603095 
L 481.251162 -345.205186 
L 479.742543 -340.807277 
L 478.249947 -336.409369 
L 476.787668 -332.01146 
L 475.367188 -327.613551 
L 473.997476 -323.215643 
L 472.68543 -318.817734 
L 471.436327 -314.419825 
L 470.254202 -310.021916 
L 469.142105 -305.624008 
L 468.102232 -301.226099 
L 467.135976 -296.82819 
L 466.243922 -292.430281 
L 465.425841 -288.032373 
L 464.680712 -283.634464 
L 464.006776 -279.236555 
L 463.401632 -274.838647 
L 462.862351 -270.440738 
L 462.385587 -266.042829 
L 461.96768 -261.64492 
L 461.604735 -257.247012 
L 461.292675 -252.849103 
L 461.02729 -248.451194 
L 460.804268 -244.053286 
L 460.619242 -239.655377 
L 460.467841 -235.257468 
L 460.345761 -230.859559 
L 460.248837 -226.461651 
z
" style="stroke: #3d3d3d; stroke-opacity: 0.5"/>
    </defs>
    <g clip-path="url(#p01a28b01c1)">
     <use xlink:href="#m13ec5a2268" x="0" y="707.825675" style="fill: #9372b2; fill-opacity: 0.5; stroke: #3d3d3d; stroke-opacity: 0.5"/>
    </g>
   </g>
   <g id="PolyCollection_5">
    <defs>
     <path id="mfa40dd9fdd" d="M 571.998194 -215.231653 
L 571.126806 -215.231653 
L 570.969868 -219.880077 
L 570.767306 -224.528501 
L 570.509583 -229.176926 
L 570.18624 -233.82535 
L 569.78608 -238.473775 
L 569.297417 -243.122199 
L 568.708416 -247.770624 
L 568.0075 -252.419048 
L 567.183841 -257.067473 
L 566.22793 -261.715897 
L 565.132211 -266.364322 
L 563.891769 -271.012746 
L 562.505046 -275.661171 
L 560.97454 -280.309595 
L 559.307427 -284.95802 
L 557.516037 -289.606444 
L 555.618094 -294.254869 
L 553.636639 -298.903293 
L 551.599559 -303.551717 
L 549.538677 -308.200142 
L 547.488404 -312.848566 
L 545.484003 -317.496991 
L 543.559584 -322.145415 
L 541.74599 -326.79384 
L 540.068795 -331.442264 
L 538.546619 -336.090689 
L 537.189976 -340.739113 
L 536.000797 -345.387538 
L 534.972705 -350.035962 
L 534.092019 -354.684387 
L 533.339388 -359.332811 
L 532.691839 -363.981236 
L 532.125039 -368.62966 
L 531.615478 -373.278084 
L 531.142387 -377.926509 
L 530.689189 -382.574933 
L 530.244406 -387.223358 
L 529.801999 -391.871782 
L 529.361195 -396.520207 
L 528.925909 -401.168631 
L 528.503892 -405.817056 
L 528.105741 -410.46548 
L 527.743886 -415.113905 
L 527.431641 -419.762329 
L 527.182376 -424.410754 
L 527.00882 -429.059178 
L 526.9225 -433.707603 
L 526.933302 -438.356027 
L 527.049123 -443.004451 
L 527.275609 -447.652876 
L 527.615967 -452.3013 
L 528.070851 -456.949725 
L 528.638339 -461.598149 
L 529.314006 -466.246574 
L 530.091129 -470.894998 
L 530.961009 -475.543423 
L 531.913429 -480.191847 
L 532.93722 -484.840272 
L 534.020905 -489.488696 
L 535.153353 -494.137121 
L 536.324397 -498.785545 
L 537.525317 -503.43397 
L 538.74915 -508.082394 
L 539.990751 -512.730819 
L 541.246622 -517.379243 
L 542.514503 -522.027667 
L 543.792808 -526.676092 
L 545.079979 -531.324516 
L 546.373877 -535.972941 
L 547.67132 -540.621365 
L 548.96783 -545.26979 
L 550.25767 -549.918214 
L 551.534132 -554.566639 
L 552.790054 -559.215063 
L 554.018458 -563.863488 
L 555.213202 -568.511912 
L 556.369523 -573.160337 
L 557.484383 -577.808761 
L 558.55655 -582.457186 
L 559.586408 -587.10561 
L 560.575528 -591.754034 
L 561.526083 -596.402459 
L 562.440206 -601.050883 
L 563.319397 -605.699308 
L 564.164073 -610.347732 
L 564.973334 -614.996157 
L 565.74496 -619.644581 
L 566.475636 -624.293006 
L 567.161358 -628.94143 
L 567.797937 -633.589855 
L 568.381542 -638.238279 
L 568.909186 -642.886704 
L 569.379099 -647.535128 
L 569.790959 -652.183553 
L 570.145957 -656.831977 
L 570.446703 -661.480401 
L 570.697019 -666.128826 
L 570.901643 -670.77725 
L 571.06589 -675.425675 
L 572.05911 -675.425675 
L 572.05911 -675.425675 
L 572.223357 -670.77725 
L 572.427981 -666.128826 
L 572.678297 -661.480401 
L 572.979043 -656.831977 
L 573.334041 -652.183553 
L 573.745901 -647.535128 
L 574.215814 -642.886704 
L 574.743458 -638.238279 
L 575.327063 -633.589855 
L 575.963642 -628.94143 
L 576.649364 -624.293006 
L 577.38004 -619.644581 
L 578.151666 -614.996157 
L 578.960927 -610.347732 
L 579.805603 -605.699308 
L 580.684794 -601.050883 
L 581.598917 -596.402459 
L 582.549472 -591.754034 
L 583.538592 -587.10561 
L 584.56845 -582.457186 
L 585.640617 -577.808761 
L 586.755477 -573.160337 
L 587.911798 -568.511912 
L 589.106542 -563.863488 
L 590.334946 -559.215063 
L 591.590868 -554.566639 
L 592.86733 -549.918214 
L 594.15717 -545.26979 
L 595.45368 -540.621365 
L 596.751123 -535.972941 
L 598.045021 -531.324516 
L 599.332192 -526.676092 
L 600.610497 -522.027667 
L 601.878378 -517.379243 
L 603.134249 -512.730819 
L 604.37585 -508.082394 
L 605.599683 -503.43397 
L 606.800603 -498.785545 
L 607.971647 -494.137121 
L 609.104095 -489.488696 
L 610.18778 -484.840272 
L 611.211571 -480.191847 
L 612.163991 -475.543423 
L 613.033871 -470.894998 
L 613.810994 -466.246574 
L 614.486661 -461.598149 
L 615.054149 -456.949725 
L 615.509033 -452.3013 
L 615.849391 -447.652876 
L 616.075877 -443.004451 
L 616.191698 -438.356027 
L 616.2025 -433.707603 
L 616.11618 -429.059178 
L 615.942624 -424.410754 
L 615.693359 -419.762329 
L 615.381114 -415.113905 
L 615.019259 -410.46548 
L 614.621108 -405.817056 
L 614.199091 -401.168631 
L 613.763805 -396.520207 
L 613.323001 -391.871782 
L 612.880594 -387.223358 
L 612.435811 -382.574933 
L 611.982613 -377.926509 
L 611.509522 -373.278084 
L 610.999961 -368.62966 
L 610.433161 -363.981236 
L 609.785612 -359.332811 
L 609.032981 -354.684387 
L 608.152295 -350.035962 
L 607.124203 -345.387538 
L 605.935024 -340.739113 
L 604.578381 -336.090689 
L 603.056205 -331.442264 
L 601.37901 -326.79384 
L 599.565416 -322.145415 
L 597.640997 -317.496991 
L 595.636596 -312.848566 
L 593.586323 -308.200142 
L 591.525441 -303.551717 
L 589.488361 -298.903293 
L 587.506906 -294.254869 
L 585.608963 -289.606444 
L 583.817573 -284.95802 
L 582.15046 -280.309595 
L 580.619954 -275.661171 
L 579.233231 -271.012746 
L 577.992789 -266.364322 
L 576.89707 -261.715897 
L 575.941159 -257.067473 
L 575.1175 -252.419048 
L 574.416584 -247.770624 
L 573.827583 -243.122199 
L 573.33892 -238.473775 
L 572.93876 -233.82535 
L 572.615417 -229.176926 
L 572.357694 -224.528501 
L 572.155132 -219.880077 
L 571.998194 -215.231653 
z
" style="stroke: #3d3d3d; stroke-opacity: 0.5"/>
    </defs>
    <g clip-path="url(#p01a28b01c1)">
     <use xlink:href="#mfa40dd9fdd" x="0" y="707.825675" style="fill: #845b53; fill-opacity: 0.5; stroke: #3d3d3d; stroke-opacity: 0.5"/>
    </g>
   </g>
   <g id="PolyCollection_6">
    <defs>
     <path id="md8bb1e8f25" d="M 684.119044 -230.072544 
L 682.205956 -230.072544 
L 681.890658 -234.217295 
L 681.495588 -238.362046 
L 681.008293 -242.506798 
L 680.416404 -246.651549 
L 679.708123 -250.7963 
L 678.872724 -254.941051 
L 677.901032 -259.085802 
L 676.785856 -263.230553 
L 675.522353 -267.375305 
L 674.108331 -271.520056 
L 672.544493 -275.664807 
L 670.834651 -279.809558 
L 668.985952 -283.954309 
L 667.009105 -288.09906 
L 664.918645 -292.243811 
L 662.733184 -296.388563 
L 660.475599 -300.533314 
L 658.173079 -304.678065 
L 655.856924 -308.822816 
L 653.562005 -312.967567 
L 651.325819 -317.112318 
L 649.18712 -321.25707 
L 647.184165 -325.401821 
L 645.35269 -329.546572 
L 643.723784 -333.691323 
L 642.321865 -337.836074 
L 641.162993 -341.980825 
L 640.253702 -346.125577 
L 639.590502 -350.270328 
L 639.16012 -354.415079 
L 638.940463 -358.55983 
L 638.902188 -362.704581 
L 639.010727 -366.849332 
L 639.228538 -370.994084 
L 639.517369 -375.138835 
L 639.840347 -379.283586 
L 640.163721 -383.428337 
L 640.458191 -387.573088 
L 640.699796 -391.717839 
L 640.870399 -395.862591 
L 640.957854 -400.007342 
L 640.95597 -404.152093 
L 640.864354 -408.296844 
L 640.688232 -412.441595 
L 640.438274 -416.586346 
L 640.130418 -420.731098 
L 639.78563 -424.875849 
L 639.429528 -429.0206 
L 639.091756 -433.165351 
L 638.805031 -437.310102 
L 638.603795 -441.454853 
L 638.5225 -445.599604 
L 638.593571 -449.744356 
L 638.845212 -453.889107 
L 639.299247 -458.033858 
L 639.969219 -462.178609 
L 640.859004 -466.32336 
L 641.962105 -470.468111 
L 643.26179 -474.612863 
L 644.732089 -478.757614 
L 646.339586 -482.902365 
L 648.045846 -487.047116 
L 649.810223 -491.191867 
L 651.592769 -495.336618 
L 653.356929 -499.48137 
L 655.071771 -503.626121 
L 656.713545 -507.770872 
L 658.266469 -511.915623 
L 659.722726 -516.060374 
L 661.081764 -520.205125 
L 662.349042 -524.349877 
L 663.534434 -528.494628 
L 664.650506 -532.639379 
L 665.710854 -536.78413 
L 666.728664 -540.928881 
L 667.715601 -545.073632 
L 668.681068 -549.218384 
L 669.631819 -553.363135 
L 670.57189 -557.507886 
L 671.502761 -561.652637 
L 672.423667 -565.797388 
L 673.331999 -569.942139 
L 674.22373 -574.086891 
L 675.093818 -578.231642 
L 675.9366 -582.376393 
L 676.746137 -586.521144 
L 677.516548 -590.665895 
L 678.242308 -594.810646 
L 678.918536 -598.955397 
L 679.541238 -603.100149 
L 680.107523 -607.2449 
L 680.615746 -611.389651 
L 681.065586 -615.534402 
L 681.458046 -619.679153 
L 681.79536 -623.823904 
L 682.080842 -627.968656 
L 682.318663 -632.113407 
L 682.513603 -636.258158 
L 682.670786 -640.402909 
L 683.654214 -640.402909 
L 683.654214 -640.402909 
L 683.811397 -636.258158 
L 684.006337 -632.113407 
L 684.244158 -627.968656 
L 684.52964 -623.823904 
L 684.866954 -619.679153 
L 685.259414 -615.534402 
L 685.709254 -611.389651 
L 686.217477 -607.2449 
L 686.783762 -603.100149 
L 687.406464 -598.955397 
L 688.082692 -594.810646 
L 688.808452 -590.665895 
L 689.578863 -586.521144 
L 690.3884 -582.376393 
L 691.231182 -578.231642 
L 692.10127 -574.086891 
L 692.993001 -569.942139 
L 693.901333 -565.797388 
L 694.822239 -561.652637 
L 695.75311 -557.507886 
L 696.693181 -553.363135 
L 697.643932 -549.218384 
L 698.609399 -545.073632 
L 699.596336 -540.928881 
L 700.614146 -536.78413 
L 701.674494 -532.639379 
L 702.790566 -528.494628 
L 703.975958 -524.349877 
L 705.243236 -520.205125 
L 706.602274 -516.060374 
L 708.058531 -511.915623 
L 709.611455 -507.770872 
L 711.253229 -503.626121 
L 712.968071 -499.48137 
L 714.732231 -495.336618 
L 716.514777 -491.191867 
L 718.279154 -487.047116 
L 719.985414 -482.902365 
L 721.592911 -478.757614 
L 723.06321 -474.612863 
L 724.362895 -470.468111 
L 725.465996 -466.32336 
L 726.355781 -462.178609 
L 727.025753 -458.033858 
L 727.479788 -453.889107 
L 727.731429 -449.744356 
L 727.8025 -445.599604 
L 727.721205 -441.454853 
L 727.519969 -437.310102 
L 727.233244 -433.165351 
L 726.895472 -429.0206 
L 726.53937 -424.875849 
L 726.194582 -420.731098 
L 725.886726 -416.586346 
L 725.636768 -412.441595 
L 725.460646 -408.296844 
L 725.36903 -404.152093 
L 725.367146 -400.007342 
L 725.454601 -395.862591 
L 725.625204 -391.717839 
L 725.866809 -387.573088 
L 726.161279 -383.428337 
L 726.484653 -379.283586 
L 726.807631 -375.138835 
L 727.096462 -370.994084 
L 727.314273 -366.849332 
L 727.422812 -362.704581 
L 727.384537 -358.55983 
L 727.16488 -354.415079 
L 726.734498 -350.270328 
L 726.071298 -346.125577 
L 725.162007 -341.980825 
L 724.003135 -337.836074 
L 722.601216 -333.691323 
L 720.97231 -329.546572 
L 719.140835 -325.401821 
L 717.13788 -321.25707 
L 714.999181 -317.112318 
L 712.762995 -312.967567 
L 710.468076 -308.822816 
L 708.151921 -304.678065 
L 705.849401 -300.533314 
L 703.591816 -296.388563 
L 701.406355 -292.243811 
L 699.315895 -288.09906 
L 697.339048 -283.954309 
L 695.490349 -279.809558 
L 693.780507 -275.664807 
L 692.216669 -271.520056 
L 690.802647 -267.375305 
L 689.539144 -263.230553 
L 688.423968 -259.085802 
L 687.452276 -254.941051 
L 686.616877 -250.7963 
L 685.908596 -246.651549 
L 685.316707 -242.506798 
L 684.829412 -238.362046 
L 684.434342 -234.217295 
L 684.119044 -230.072544 
z
" style="stroke: #3d3d3d; stroke-opacity: 0.5"/>
    </defs>
    <g clip-path="url(#p01a28b01c1)">
     <use xlink:href="#md8bb1e8f25" x="0" y="707.825675" style="fill: #e1812c; fill-opacity: 0.5; stroke: #3d3d3d; stroke-opacity: 0.5"/>
    </g>
   </g>
   <g id="PolyCollection_7">
    <defs>
     <path id="mec0d91174c" d="M 795.669482 -217.52568 
L 793.855518 -217.52568 
L 793.546763 -222.067111 
L 793.156574 -226.608543 
L 792.671293 -231.149974 
L 792.077107 -235.691405 
L 791.360584 -240.232837 
L 790.509243 -244.774268 
L 789.512144 -249.315699 
L 788.360445 -253.857131 
L 787.047918 -258.398562 
L 785.571405 -262.939993 
L 783.93122 -267.481425 
L 782.131504 -272.022856 
L 780.180566 -276.564287 
L 778.091216 -281.105719 
L 775.881084 -285.64715 
L 773.572918 -290.188581 
L 771.194775 -294.730013 
L 768.780053 -299.271444 
L 766.367226 -303.812875 
L 763.999198 -308.354307 
L 761.722175 -312.895738 
L 759.584008 -317.437169 
L 757.632024 -321.978601 
L 755.910433 -326.520032 
L 754.457471 -331.061463 
L 753.302513 -335.602895 
L 752.463427 -340.144326 
L 751.944463 -344.685757 
L 751.734932 -349.227189 
L 751.808908 -353.76862 
L 752.126068 -358.310051 
L 752.633688 -362.851483 
L 753.269725 -367.392914 
L 753.966744 -371.934345 
L 754.656417 -376.475777 
L 755.27421 -381.017208 
L 755.763844 -385.558639 
L 756.081157 -390.100071 
L 756.19702 -394.641502 
L 756.099052 -399.182933 
L 755.79202 -403.724365 
L 755.296916 -408.265796 
L 754.648861 -412.807227 
L 753.894056 -417.348659 
L 753.08613 -421.89009 
L 752.282218 -426.431521 
L 751.53912 -430.972953 
L 750.909835 -435.514384 
L 750.440687 -440.055815 
L 750.169163 -444.597247 
L 750.1225 -449.138678 
L 750.316991 -453.680109 
L 750.757923 -458.221541 
L 751.440051 -462.762972 
L 752.348522 -467.304403 
L 753.460153 -471.845835 
L 754.745028 -476.387266 
L 756.168353 -480.928697 
L 757.692518 -485.470129 
L 759.279292 -490.01156 
L 760.89205 -494.552991 
L 762.497883 -499.094423 
L 764.069434 -503.635854 
L 765.586294 -508.177285 
L 767.035805 -512.718717 
L 768.413179 -517.260148 
L 769.720917 -521.801579 
L 770.96757 -526.343011 
L 772.165991 -530.884442 
L 773.331276 -535.425873 
L 774.478634 -539.967305 
L 775.621433 -544.508736 
L 776.769625 -549.050167 
L 777.928719 -553.591599 
L 779.099361 -558.13303 
L 780.27753 -562.674461 
L 781.45525 -567.215893 
L 782.62168 -571.757324 
L 783.76441 -576.298755 
L 784.870761 -580.840187 
L 785.928952 -585.381618 
L 786.929002 -589.923049 
L 787.8633 -594.464481 
L 788.726845 -599.005912 
L 789.51718 -603.547343 
L 790.234103 -608.088775 
L 790.879232 -612.630206 
L 791.455521 -617.171637 
L 791.966797 -621.713069 
L 792.417365 -626.2545 
L 792.811723 -630.795931 
L 793.154366 -635.337363 
L 793.449695 -639.878794 
L 793.701976 -644.420225 
L 793.915346 -648.961657 
L 794.093825 -653.503088 
L 794.241323 -658.044519 
L 794.361632 -662.585951 
L 794.458402 -667.127382 
L 795.066598 -667.127382 
L 795.066598 -667.127382 
L 795.163368 -662.585951 
L 795.283677 -658.044519 
L 795.431175 -653.503088 
L 795.609654 -648.961657 
L 795.823024 -644.420225 
L 796.075305 -639.878794 
L 796.370634 -635.337363 
L 796.713277 -630.795931 
L 797.107635 -626.2545 
L 797.558203 -621.713069 
L 798.069479 -617.171637 
L 798.645768 -612.630206 
L 799.290897 -608.088775 
L 800.00782 -603.547343 
L 800.798155 -599.005912 
L 801.6617 -594.464481 
L 802.595998 -589.923049 
L 803.596048 -585.381618 
L 804.654239 -580.840187 
L 805.76059 -576.298755 
L 806.90332 -571.757324 
L 808.06975 -567.215893 
L 809.24747 -562.674461 
L 810.425639 -558.13303 
L 811.596281 -553.591599 
L 812.755375 -549.050167 
L 813.903567 -544.508736 
L 815.046366 -539.967305 
L 816.193724 -535.425873 
L 817.359009 -530.884442 
L 818.55743 -526.343011 
L 819.804083 -521.801579 
L 821.111821 -517.260148 
L 822.489195 -512.718717 
L 823.938706 -508.177285 
L 825.455566 -503.635854 
L 827.027117 -499.094423 
L 828.63295 -494.552991 
L 830.245708 -490.01156 
L 831.832482 -485.470129 
L 833.356647 -480.928697 
L 834.779972 -476.387266 
L 836.064847 -471.845835 
L 837.176478 -467.304403 
L 838.084949 -462.762972 
L 838.767077 -458.221541 
L 839.208009 -453.680109 
L 839.4025 -449.138678 
L 839.355837 -444.597247 
L 839.084313 -440.055815 
L 838.615165 -435.514384 
L 837.98588 -430.972953 
L 837.242782 -426.431521 
L 836.43887 -421.89009 
L 835.630944 -417.348659 
L 834.876139 -412.807227 
L 834.228084 -408.265796 
L 833.73298 -403.724365 
L 833.425948 -399.182933 
L 833.32798 -394.641502 
L 833.443843 -390.100071 
L 833.761156 -385.558639 
L 834.25079 -381.017208 
L 834.868583 -376.475777 
L 835.558256 -371.934345 
L 836.255275 -367.392914 
L 836.891312 -362.851483 
L 837.398932 -358.310051 
L 837.716092 -353.76862 
L 837.790068 -349.227189 
L 837.580537 -344.685757 
L 837.061573 -340.144326 
L 836.222487 -335.602895 
L 835.067529 -331.061463 
L 833.614567 -326.520032 
L 831.892976 -321.978601 
L 829.940992 -317.437169 
L 827.802825 -312.895738 
L 825.525802 -308.354307 
L 823.157774 -303.812875 
L 820.744947 -299.271444 
L 818.330225 -294.730013 
L 815.952082 -290.188581 
L 813.643916 -285.64715 
L 811.433784 -281.105719 
L 809.344434 -276.564287 
L 807.393496 -272.022856 
L 805.59378 -267.481425 
L 803.953595 -262.939993 
L 802.477082 -258.398562 
L 801.164555 -253.857131 
L 800.012856 -249.315699 
L 799.015757 -244.774268 
L 798.164416 -240.232837 
L 797.447893 -235.691405 
L 796.853707 -231.149974 
L 796.368426 -226.608543 
L 795.978237 -222.067111 
L 795.669482 -217.52568 
z
" style="stroke: #3d3d3d; stroke-opacity: 0.5"/>
    </defs>
    <g clip-path="url(#p01a28b01c1)">
     <use xlink:href="#mec0d91174c" x="0" y="707.825675" style="fill: #3a923a; fill-opacity: 0.5; stroke: #3d3d3d; stroke-opacity: 0.5"/>
    </g>
   </g>
   <g id="line2d_7">
    <path d="M 125.1625 394.922176 
L 125.1625 128.763527 
" clip-path="url(#p01a28b01c1)" style="fill: none; stroke: #3d3d3d; stroke-width: 1.5; stroke-linecap: round"/>
   </g>
   <g id="line2d_8">
    <path d="M 125.1625 306.273445 
L 125.1625 193.032726 
" clip-path="url(#p01a28b01c1)" style="fill: none; stroke: #3d3d3d; stroke-width: 4.5; stroke-linecap: round"/>
   </g>
   <g id="line2d_9">
    <path d="M 125.1625 245.379824 
" clip-path="url(#p01a28b01c1)" style="fill: none; stroke: #3d3d3d; stroke-width: 1.5; stroke-linecap: round"/>
    <defs>
     <path id="mab4b9736fb" d="M 1.875 0 
L -1.875 -0 
" style="stroke: #ffffff; stroke-width: 0.9"/>
    </defs>
    <g clip-path="url(#p01a28b01c1)">
     <use xlink:href="#mab4b9736fb" x="125.1625" y="245.379824" style="fill: #ffffff; stroke: #ffffff; stroke-width: 0.9"/>
    </g>
   </g>
   <g id="line2d_10">
    <path d="M 236.7625 468.162611 
L 236.7625 138.427353 
" clip-path="url(#p01a28b01c1)" style="fill: none; stroke: #3d3d3d; stroke-width: 1.5; stroke-linecap: round"/>
   </g>
   <g id="line2d_11">
    <path d="M 236.7625 405.117067 
L 236.7625 287.22407 
" clip-path="url(#p01a28b01c1)" style="fill: none; stroke: #3d3d3d; stroke-width: 4.5; stroke-linecap: round"/>
   </g>
   <g id="line2d_12">
    <path d="M 236.7625 348.106876 
" clip-path="url(#p01a28b01c1)" style="fill: none; stroke: #3d3d3d; stroke-width: 1.5; stroke-linecap: round"/>
    <g clip-path="url(#p01a28b01c1)">
     <use xlink:href="#mab4b9736fb" x="236.7625" y="348.106876" style="fill: #ffffff; stroke: #ffffff; stroke-width: 0.9"/>
    </g>
   </g>
   <g id="line2d_13">
    <path d="M 348.3625 326.327505 
L 348.3625 109.71136 
" clip-path="url(#p01a28b01c1)" style="fill: none; stroke: #3d3d3d; stroke-width: 1.5; stroke-linecap: round"/>
   </g>
   <g id="line2d_14">
    <path d="M 348.3625 246.023134 
L 348.3625 170.240303 
" clip-path="url(#p01a28b01c1)" style="fill: none; stroke: #3d3d3d; stroke-width: 4.5; stroke-linecap: round"/>
   </g>
   <g id="line2d_15">
    <path d="M 348.3625 207.862331 
" clip-path="url(#p01a28b01c1)" style="fill: none; stroke: #3d3d3d; stroke-width: 1.5; stroke-linecap: round"/>
    <g clip-path="url(#p01a28b01c1)">
     <use xlink:href="#mab4b9736fb" x="348.3625" y="207.862331" style="fill: #ffffff; stroke: #ffffff; stroke-width: 0.9"/>
    </g>
   </g>
   <g id="line2d_16">
    <path d="M 459.9625 417.705126 
L 459.9625 109.629959 
" clip-path="url(#p01a28b01c1)" style="fill: none; stroke: #3d3d3d; stroke-width: 1.5; stroke-linecap: round"/>
   </g>
   <g id="line2d_17">
    <path d="M 459.9625 314.316567 
L 459.9625 210.372832 
" clip-path="url(#p01a28b01c1)" style="fill: none; stroke: #3d3d3d; stroke-width: 4.5; stroke-linecap: round"/>
   </g>
   <g id="line2d_18">
    <path d="M 459.9625 246.842874 
" clip-path="url(#p01a28b01c1)" style="fill: none; stroke: #3d3d3d; stroke-width: 1.5; stroke-linecap: round"/>
    <g clip-path="url(#p01a28b01c1)">
     <use xlink:href="#mab4b9736fb" x="459.9625" y="246.842874" style="fill: #ffffff; stroke: #ffffff; stroke-width: 0.9"/>
    </g>
   </g>
   <g id="line2d_19">
    <path d="M 571.5625 423.433404 
L 571.5625 101.560618 
" clip-path="url(#p01a28b01c1)" style="fill: none; stroke: #3d3d3d; stroke-width: 1.5; stroke-linecap: round"/>
   </g>
   <g id="line2d_20">
    <path d="M 571.5625 338.409787 
L 571.5625 215.851719 
" clip-path="url(#p01a28b01c1)" style="fill: none; stroke: #3d3d3d; stroke-width: 4.5; stroke-linecap: round"/>
   </g>
   <g id="line2d_21">
    <path d="M 571.5625 277.304817 
" clip-path="url(#p01a28b01c1)" style="fill: none; stroke: #3d3d3d; stroke-width: 1.5; stroke-linecap: round"/>
    <g clip-path="url(#p01a28b01c1)">
     <use xlink:href="#mab4b9736fb" x="571.5625" y="277.304817" style="fill: #ffffff; stroke: #ffffff; stroke-width: 0.9"/>
    </g>
   </g>
   <g id="line2d_22">
    <path d="M 683.1625 414.16016 
L 683.1625 131.015736 
" clip-path="url(#p01a28b01c1)" style="fill: none; stroke: #3d3d3d; stroke-width: 1.5; stroke-linecap: round"/>
   </g>
   <g id="line2d_23">
    <path d="M 683.1625 356.031634 
L 683.1625 239.137893 
" clip-path="url(#p01a28b01c1)" style="fill: none; stroke: #3d3d3d; stroke-width: 4.5; stroke-linecap: round"/>
   </g>
   <g id="line2d_24">
    <path d="M 683.1625 292.39957 
" clip-path="url(#p01a28b01c1)" style="fill: none; stroke: #3d3d3d; stroke-width: 1.5; stroke-linecap: round"/>
    <g clip-path="url(#p01a28b01c1)">
     <use xlink:href="#mab4b9736fb" x="683.1625" y="292.39957" style="fill: #ffffff; stroke: #ffffff; stroke-width: 0.9"/>
    </g>
   </g>
   <g id="line2d_25">
    <path d="M 794.7625 421.602053 
L 794.7625 109.396235 
" clip-path="url(#p01a28b01c1)" style="fill: none; stroke: #3d3d3d; stroke-width: 1.5; stroke-linecap: round"/>
   </g>
   <g id="line2d_26">
    <path d="M 794.7625 359.141551 
L 794.7625 236.65572 
" clip-path="url(#p01a28b01c1)" style="fill: none; stroke: #3d3d3d; stroke-width: 4.5; stroke-linecap: round"/>
   </g>
   <g id="line2d_27">
    <path d="M 794.7625 279.699978 
" clip-path="url(#p01a28b01c1)" style="fill: none; stroke: #3d3d3d; stroke-width: 1.5; stroke-linecap: round"/>
    <g clip-path="url(#p01a28b01c1)">
     <use xlink:href="#mab4b9736fb" x="794.7625" y="279.699978" style="fill: #ffffff; stroke: #ffffff; stroke-width: 0.9"/>
    </g>
   </g>
   <g id="patch_3">
    <path d="M 69.3625 561.6 
L 850.5625 561.6 
" style="fill: none; stroke: #cccccc; stroke-width: 0.8; stroke-linejoin: miter; stroke-linecap: square"/>
   </g>
  </g>
 </g>
 <defs>
  <clipPath id="p01a28b01c1">
   <rect x="69.3625" y="7.2" width="781.2" height="554.4"/>
  </clipPath>
 </defs>
</svg>
