<?xml version="1.0" encoding="utf-8" standalone="no"?>
<!DOCTYPE svg PUBLIC "-//W3C//DTD SVG 1.1//EN"
  "http://www.w3.org/Graphics/SVG/1.1/DTD/svg11.dtd">
<svg xmlns:xlink="http://www.w3.org/1999/xlink" width="864.13125pt" height="707.825675pt" viewBox="0 0 864.13125 707.825675" xmlns="http://www.w3.org/2000/svg" version="1.1">
 <metadata>
  <rdf:RDF xmlns:dc="http://purl.org/dc/elements/1.1/" xmlns:cc="http://creativecommons.org/ns#" xmlns:rdf="http://www.w3.org/1999/02/22-rdf-syntax-ns#">
   <cc:Work>
    <dc:type rdf:resource="http://purl.org/dc/dcmitype/StillImage"/>
    <dc:date>2024-10-23T17:23:55.264462</dc:date>
    <dc:format>image/svg+xml</dc:format>
    <dc:creator>
     <cc:Agent>
      <dc:title>Matplotlib v3.8.0, https://matplotlib.org/</dc:title>
     </cc:Agent>
    </dc:creator>
   </cc:Work>
  </rdf:RDF>
 </metadata>
 <defs>
  <style type="text/css">*{stroke-linejoin: round; stroke-linecap: butt}</style>
 </defs>
 <g id="figure_1">
  <g id="patch_1">
   <path d="M 0 707.825675 
L 864.13125 707.825675 
L 864.13125 0 
L 0 0 
L 0 707.825675 
z
" style="fill: none"/>
  </g>
  <g id="axes_1">
   <g id="patch_2">
    <path d="M 75.73125 561.6 
L 856.93125 561.6 
L 856.93125 7.2 
L 75.73125 7.2 
L 75.73125 561.6 
z
" style="fill: none"/>
   </g>
   <g id="matplotlib.axis_1">
    <g id="xtick_1">
     <g id="text_1">
      <!-- MSA -->
      <g style="fill: #262626" transform="translate(111.157736 610.465141) rotate(-45) scale(0.2 -0.2)">
       <defs>
        <path id="DejaVuSans-4d" d="M 628 4666 
L 1569 4666 
L 2759 1491 
L 3956 4666 
L 4897 4666 
L 4897 0 
L 4281 0 
L 4281 4097 
L 3078 897 
L 2444 897 
L 1241 4097 
L 1241 0 
L 628 0 
L 628 4666 
z
" transform="scale(0.015625)"/>
        <path id="DejaVuSans-53" d="M 3425 4513 
L 3425 3897 
Q 3066 4069 2747 4153 
Q 2428 4238 2131 4238 
Q 1616 4238 1336 4038 
Q 1056 3838 1056 3469 
Q 1056 3159 1242 3001 
Q 1428 2844 1947 2747 
L 2328 2669 
Q 3034 2534 3370 2195 
Q 3706 1856 3706 1288 
Q 3706 609 3251 259 
Q 2797 -91 1919 -91 
Q 1588 -91 1214 -16 
Q 841 59 441 206 
L 441 856 
Q 825 641 1194 531 
Q 1563 422 1919 422 
Q 2459 422 2753 634 
Q 3047 847 3047 1241 
Q 3047 1584 2836 1778 
Q 2625 1972 2144 2069 
L 1759 2144 
Q 1053 2284 737 2584 
Q 422 2884 422 3419 
Q 422 4038 858 4394 
Q 1294 4750 2059 4750 
Q 2388 4750 2728 4690 
Q 3069 4631 3425 4513 
z
" transform="scale(0.015625)"/>
        <path id="DejaVuSans-41" d="M 2188 4044 
L 1331 1722 
L 3047 1722 
L 2188 4044 
z
M 1831 4666 
L 2547 4666 
L 4325 0 
L 3669 0 
L 3244 1197 
L 1141 1197 
L 716 0 
L 50 0 
L 1831 4666 
z
" transform="scale(0.015625)"/>
       </defs>
       <use xlink:href="#DejaVuSans-4d"/>
       <use xlink:href="#DejaVuSans-53" x="86.279297"/>
       <use xlink:href="#DejaVuSans-41" x="151.630859"/>
      </g>
     </g>
    </g>
    <g id="xtick_2">
     <g id="text_2">
      <!-- Template -->
      <g style="fill: #262626" transform="translate(189.34694 643.875936) rotate(-45) scale(0.2 -0.2)">
       <defs>
        <path id="DejaVuSans-54" d="M -19 4666 
L 3928 4666 
L 3928 4134 
L 2272 4134 
L 2272 0 
L 1638 0 
L 1638 4134 
L -19 4134 
L -19 4666 
z
" transform="scale(0.015625)"/>
        <path id="DejaVuSans-65" d="M 3597 1894 
L 3597 1613 
L 953 1613 
Q 991 1019 1311 708 
Q 1631 397 2203 397 
Q 2534 397 2845 478 
Q 3156 559 3463 722 
L 3463 178 
Q 3153 47 2828 -22 
Q 2503 -91 2169 -91 
Q 1331 -91 842 396 
Q 353 884 353 1716 
Q 353 2575 817 3079 
Q 1281 3584 2069 3584 
Q 2775 3584 3186 3129 
Q 3597 2675 3597 1894 
z
M 3022 2063 
Q 3016 2534 2758 2815 
Q 2500 3097 2075 3097 
Q 1594 3097 1305 2825 
Q 1016 2553 972 2059 
L 3022 2063 
z
" transform="scale(0.015625)"/>
        <path id="DejaVuSans-6d" d="M 3328 2828 
Q 3544 3216 3844 3400 
Q 4144 3584 4550 3584 
Q 5097 3584 5394 3201 
Q 5691 2819 5691 2113 
L 5691 0 
L 5113 0 
L 5113 2094 
Q 5113 2597 4934 2840 
Q 4756 3084 4391 3084 
Q 3944 3084 3684 2787 
Q 3425 2491 3425 1978 
L 3425 0 
L 2847 0 
L 2847 2094 
Q 2847 2600 2669 2842 
Q 2491 3084 2119 3084 
Q 1678 3084 1418 2786 
Q 1159 2488 1159 1978 
L 1159 0 
L 581 0 
L 581 3500 
L 1159 3500 
L 1159 2956 
Q 1356 3278 1631 3431 
Q 1906 3584 2284 3584 
Q 2666 3584 2933 3390 
Q 3200 3197 3328 2828 
z
" transform="scale(0.015625)"/>
        <path id="DejaVuSans-70" d="M 1159 525 
L 1159 -1331 
L 581 -1331 
L 581 3500 
L 1159 3500 
L 1159 2969 
Q 1341 3281 1617 3432 
Q 1894 3584 2278 3584 
Q 2916 3584 3314 3078 
Q 3713 2572 3713 1747 
Q 3713 922 3314 415 
Q 2916 -91 2278 -91 
Q 1894 -91 1617 61 
Q 1341 213 1159 525 
z
M 3116 1747 
Q 3116 2381 2855 2742 
Q 2594 3103 2138 3103 
Q 1681 3103 1420 2742 
Q 1159 2381 1159 1747 
Q 1159 1113 1420 752 
Q 1681 391 2138 391 
Q 2594 391 2855 752 
Q 3116 1113 3116 1747 
z
" transform="scale(0.015625)"/>
        <path id="DejaVuSans-6c" d="M 603 4863 
L 1178 4863 
L 1178 0 
L 603 0 
L 603 4863 
z
" transform="scale(0.015625)"/>
        <path id="DejaVuSans-61" d="M 2194 1759 
Q 1497 1759 1228 1600 
Q 959 1441 959 1056 
Q 959 750 1161 570 
Q 1363 391 1709 391 
Q 2188 391 2477 730 
Q 2766 1069 2766 1631 
L 2766 1759 
L 2194 1759 
z
M 3341 1997 
L 3341 0 
L 2766 0 
L 2766 531 
Q 2569 213 2275 61 
Q 1981 -91 1556 -91 
Q 1019 -91 701 211 
Q 384 513 384 1019 
Q 384 1609 779 1909 
Q 1175 2209 1959 2209 
L 2766 2209 
L 2766 2266 
Q 2766 2663 2505 2880 
Q 2244 3097 1772 3097 
Q 1472 3097 1187 3025 
Q 903 2953 641 2809 
L 641 3341 
Q 956 3463 1253 3523 
Q 1550 3584 1831 3584 
Q 2591 3584 2966 3190 
Q 3341 2797 3341 1997 
z
" transform="scale(0.015625)"/>
        <path id="DejaVuSans-74" d="M 1172 4494 
L 1172 3500 
L 2356 3500 
L 2356 3053 
L 1172 3053 
L 1172 1153 
Q 1172 725 1289 603 
Q 1406 481 1766 481 
L 2356 481 
L 2356 0 
L 1766 0 
Q 1100 0 847 248 
Q 594 497 594 1153 
L 594 3053 
L 172 3053 
L 172 3500 
L 594 3500 
L 594 4494 
L 1172 4494 
z
" transform="scale(0.015625)"/>
       </defs>
       <use xlink:href="#DejaVuSans-54"/>
       <use xlink:href="#DejaVuSans-65" x="44.083984"/>
       <use xlink:href="#DejaVuSans-6d" x="105.607422"/>
       <use xlink:href="#DejaVuSans-70" x="203.019531"/>
       <use xlink:href="#DejaVuSans-6c" x="266.496094"/>
       <use xlink:href="#DejaVuSans-61" x="294.279297"/>
       <use xlink:href="#DejaVuSans-74" x="355.558594"/>
       <use xlink:href="#DejaVuSans-65" x="394.767578"/>
      </g>
     </g>
    </g>
    <g id="xtick_3">
     <g id="text_3">
      <!-- Backbone -->
      <g style="fill: #262626" transform="translate(295.846933 648.975944) rotate(-45) scale(0.2 -0.2)">
       <defs>
        <path id="DejaVuSans-42" d="M 1259 2228 
L 1259 519 
L 2272 519 
Q 2781 519 3026 730 
Q 3272 941 3272 1375 
Q 3272 1813 3026 2020 
Q 2781 2228 2272 2228 
L 1259 2228 
z
M 1259 4147 
L 1259 2741 
L 2194 2741 
Q 2656 2741 2882 2914 
Q 3109 3088 3109 3444 
Q 3109 3797 2882 3972 
Q 2656 4147 2194 4147 
L 1259 4147 
z
M 628 4666 
L 2241 4666 
Q 2963 4666 3353 4366 
Q 3744 4066 3744 3513 
Q 3744 3084 3544 2831 
Q 3344 2578 2956 2516 
Q 3422 2416 3680 2098 
Q 3938 1781 3938 1306 
Q 3938 681 3513 340 
Q 3088 0 2303 0 
L 628 0 
L 628 4666 
z
" transform="scale(0.015625)"/>
        <path id="DejaVuSans-63" d="M 3122 3366 
L 3122 2828 
Q 2878 2963 2633 3030 
Q 2388 3097 2138 3097 
Q 1578 3097 1268 2742 
Q 959 2388 959 1747 
Q 959 1106 1268 751 
Q 1578 397 2138 397 
Q 2388 397 2633 464 
Q 2878 531 3122 666 
L 3122 134 
Q 2881 22 2623 -34 
Q 2366 -91 2075 -91 
Q 1284 -91 818 406 
Q 353 903 353 1747 
Q 353 2603 823 3093 
Q 1294 3584 2113 3584 
Q 2378 3584 2631 3529 
Q 2884 3475 3122 3366 
z
" transform="scale(0.015625)"/>
        <path id="DejaVuSans-6b" d="M 581 4863 
L 1159 4863 
L 1159 1991 
L 2875 3500 
L 3609 3500 
L 1753 1863 
L 3688 0 
L 2938 0 
L 1159 1709 
L 1159 0 
L 581 0 
L 581 4863 
z
" transform="scale(0.015625)"/>
        <path id="DejaVuSans-62" d="M 3116 1747 
Q 3116 2381 2855 2742 
Q 2594 3103 2138 3103 
Q 1681 3103 1420 2742 
Q 1159 2381 1159 1747 
Q 1159 1113 1420 752 
Q 1681 391 2138 391 
Q 2594 391 2855 752 
Q 3116 1113 3116 1747 
z
M 1159 2969 
Q 1341 3281 1617 3432 
Q 1894 3584 2278 3584 
Q 2916 3584 3314 3078 
Q 3713 2572 3713 1747 
Q 3713 922 3314 415 
Q 2916 -91 2278 -91 
Q 1894 -91 1617 61 
Q 1341 213 1159 525 
L 1159 0 
L 581 0 
L 581 4863 
L 1159 4863 
L 1159 2969 
z
" transform="scale(0.015625)"/>
        <path id="DejaVuSans-6f" d="M 1959 3097 
Q 1497 3097 1228 2736 
Q 959 2375 959 1747 
Q 959 1119 1226 758 
Q 1494 397 1959 397 
Q 2419 397 2687 759 
Q 2956 1122 2956 1747 
Q 2956 2369 2687 2733 
Q 2419 3097 1959 3097 
z
M 1959 3584 
Q 2709 3584 3137 3096 
Q 3566 2609 3566 1747 
Q 3566 888 3137 398 
Q 2709 -91 1959 -91 
Q 1206 -91 779 398 
Q 353 888 353 1747 
Q 353 2609 779 3096 
Q 1206 3584 1959 3584 
z
" transform="scale(0.015625)"/>
        <path id="DejaVuSans-6e" d="M 3513 2113 
L 3513 0 
L 2938 0 
L 2938 2094 
Q 2938 2591 2744 2837 
Q 2550 3084 2163 3084 
Q 1697 3084 1428 2787 
Q 1159 2491 1159 1978 
L 1159 0 
L 581 0 
L 581 3500 
L 1159 3500 
L 1159 2956 
Q 1366 3272 1645 3428 
Q 1925 3584 2291 3584 
Q 2894 3584 3203 3211 
Q 3513 2838 3513 2113 
z
" transform="scale(0.015625)"/>
       </defs>
       <use xlink:href="#DejaVuSans-42"/>
       <use xlink:href="#DejaVuSans-61" x="68.603516"/>
       <use xlink:href="#DejaVuSans-63" x="129.882812"/>
       <use xlink:href="#DejaVuSans-6b" x="184.863281"/>
       <use xlink:href="#DejaVuSans-62" x="242.773438"/>
       <use xlink:href="#DejaVuSans-6f" x="306.25"/>
       <use xlink:href="#DejaVuSans-6e" x="367.431641"/>
       <use xlink:href="#DejaVuSans-65" x="430.810547"/>
      </g>
     </g>
    </g>
    <g id="xtick_4">
     <g id="text_4">
      <!-- Heuristic C-$\beta$ -->
      <g style="fill: #262626" transform="translate(386.00392 670.706219) rotate(-45) scale(0.2 -0.2)">
       <defs>
        <path id="DejaVuSans-48" d="M 628 4666 
L 1259 4666 
L 1259 2753 
L 3553 2753 
L 3553 4666 
L 4184 4666 
L 4184 0 
L 3553 0 
L 3553 2222 
L 1259 2222 
L 1259 0 
L 628 0 
L 628 4666 
z
" transform="scale(0.015625)"/>
        <path id="DejaVuSans-75" d="M 544 1381 
L 544 3500 
L 1119 3500 
L 1119 1403 
Q 1119 906 1312 657 
Q 1506 409 1894 409 
Q 2359 409 2629 706 
Q 2900 1003 2900 1516 
L 2900 3500 
L 3475 3500 
L 3475 0 
L 2900 0 
L 2900 538 
Q 2691 219 2414 64 
Q 2138 -91 1772 -91 
Q 1169 -91 856 284 
Q 544 659 544 1381 
z
M 1991 3584 
L 1991 3584 
z
" transform="scale(0.015625)"/>
        <path id="DejaVuSans-72" d="M 2631 2963 
Q 2534 3019 2420 3045 
Q 2306 3072 2169 3072 
Q 1681 3072 1420 2755 
Q 1159 2438 1159 1844 
L 1159 0 
L 581 0 
L 581 3500 
L 1159 3500 
L 1159 2956 
Q 1341 3275 1631 3429 
Q 1922 3584 2338 3584 
Q 2397 3584 2469 3576 
Q 2541 3569 2628 3553 
L 2631 2963 
z
" transform="scale(0.015625)"/>
        <path id="DejaVuSans-69" d="M 603 3500 
L 1178 3500 
L 1178 0 
L 603 0 
L 603 3500 
z
M 603 4863 
L 1178 4863 
L 1178 4134 
L 603 4134 
L 603 4863 
z
" transform="scale(0.015625)"/>
        <path id="DejaVuSans-73" d="M 2834 3397 
L 2834 2853 
Q 2591 2978 2328 3040 
Q 2066 3103 1784 3103 
Q 1356 3103 1142 2972 
Q 928 2841 928 2578 
Q 928 2378 1081 2264 
Q 1234 2150 1697 2047 
L 1894 2003 
Q 2506 1872 2764 1633 
Q 3022 1394 3022 966 
Q 3022 478 2636 193 
Q 2250 -91 1575 -91 
Q 1294 -91 989 -36 
Q 684 19 347 128 
L 347 722 
Q 666 556 975 473 
Q 1284 391 1588 391 
Q 1994 391 2212 530 
Q 2431 669 2431 922 
Q 2431 1156 2273 1281 
Q 2116 1406 1581 1522 
L 1381 1569 
Q 847 1681 609 1914 
Q 372 2147 372 2553 
Q 372 3047 722 3315 
Q 1072 3584 1716 3584 
Q 2034 3584 2315 3537 
Q 2597 3491 2834 3397 
z
" transform="scale(0.015625)"/>
        <path id="DejaVuSans-20" transform="scale(0.015625)"/>
        <path id="DejaVuSans-43" d="M 4122 4306 
L 4122 3641 
Q 3803 3938 3442 4084 
Q 3081 4231 2675 4231 
Q 1875 4231 1450 3742 
Q 1025 3253 1025 2328 
Q 1025 1406 1450 917 
Q 1875 428 2675 428 
Q 3081 428 3442 575 
Q 3803 722 4122 1019 
L 4122 359 
Q 3791 134 3420 21 
Q 3050 -91 2638 -91 
Q 1578 -91 968 557 
Q 359 1206 359 2328 
Q 359 3453 968 4101 
Q 1578 4750 2638 4750 
Q 3056 4750 3426 4639 
Q 3797 4528 4122 4306 
z
" transform="scale(0.015625)"/>
        <path id="DejaVuSans-2d" d="M 313 2009 
L 1997 2009 
L 1997 1497 
L 313 1497 
L 313 2009 
z
" transform="scale(0.015625)"/>
        <path id="DejaVuSans-Oblique-3b2" d="M 872 216 
L 572 -1331 
L -6 -1331 
L 928 3478 
Q 1206 4903 2538 4903 
Q 3888 4903 3659 3700 
Q 3503 2844 2894 2531 
Q 3713 2250 3553 1416 
Q 3272 -69 1759 -66 
Q 1097 -63 872 216 
z
M 1019 966 
Q 1259 422 1875 425 
Q 2775 425 2966 1406 
Q 3138 2288 1675 2219 
L 1778 2750 
Q 2909 2731 3106 3750 
Q 3241 4438 2509 4434 
Q 1691 4434 1503 3459 
L 1019 966 
z
" transform="scale(0.015625)"/>
       </defs>
       <use xlink:href="#DejaVuSans-48" transform="translate(0 0.390625)"/>
       <use xlink:href="#DejaVuSans-65" transform="translate(75.195312 0.390625)"/>
       <use xlink:href="#DejaVuSans-75" transform="translate(136.71875 0.390625)"/>
       <use xlink:href="#DejaVuSans-72" transform="translate(200.097656 0.390625)"/>
       <use xlink:href="#DejaVuSans-69" transform="translate(241.210938 0.390625)"/>
       <use xlink:href="#DejaVuSans-73" transform="translate(268.994141 0.390625)"/>
       <use xlink:href="#DejaVuSans-74" transform="translate(321.09375 0.390625)"/>
       <use xlink:href="#DejaVuSans-69" transform="translate(360.302734 0.390625)"/>
       <use xlink:href="#DejaVuSans-63" transform="translate(388.085938 0.390625)"/>
       <use xlink:href="#DejaVuSans-20" transform="translate(443.066406 0.390625)"/>
       <use xlink:href="#DejaVuSans-43" transform="translate(474.853516 0.390625)"/>
       <use xlink:href="#DejaVuSans-2d" transform="translate(544.677734 0.390625)"/>
       <use xlink:href="#DejaVuSans-Oblique-3b2" transform="translate(580.761719 0.390625)"/>
      </g>
     </g>
    </g>
    <g id="xtick_5">
     <g id="text_5">
      <!-- Template C-$\beta$ -->
      <g style="fill: #262626" transform="translate(493.361279 674.94886) rotate(-45) scale(0.2 -0.2)">
       <use xlink:href="#DejaVuSans-54" transform="translate(0 0.390625)"/>
       <use xlink:href="#DejaVuSans-65" transform="translate(61.083984 0.390625)"/>
       <use xlink:href="#DejaVuSans-6d" transform="translate(122.607422 0.390625)"/>
       <use xlink:href="#DejaVuSans-70" transform="translate(220.019531 0.390625)"/>
       <use xlink:href="#DejaVuSans-6c" transform="translate(283.496094 0.390625)"/>
       <use xlink:href="#DejaVuSans-61" transform="translate(311.279297 0.390625)"/>
       <use xlink:href="#DejaVuSans-74" transform="translate(372.558594 0.390625)"/>
       <use xlink:href="#DejaVuSans-65" transform="translate(411.767578 0.390625)"/>
       <use xlink:href="#DejaVuSans-20" transform="translate(473.291016 0.390625)"/>
       <use xlink:href="#DejaVuSans-43" transform="translate(505.078125 0.390625)"/>
       <use xlink:href="#DejaVuSans-2d" transform="translate(574.902344 0.390625)"/>
       <use xlink:href="#DejaVuSans-Oblique-3b2" transform="translate(610.986328 0.390625)"/>
      </g>
     </g>
    </g>
    <g id="xtick_6">
     <g id="text_6">
      <!-- AttnPacker -->
      <g style="fill: #262626" transform="translate(624.274133 655.348744) rotate(-45) scale(0.2 -0.2)">
       <defs>
        <path id="DejaVuSans-50" d="M 1259 4147 
L 1259 2394 
L 2053 2394 
Q 2494 2394 2734 2622 
Q 2975 2850 2975 3272 
Q 2975 3691 2734 3919 
Q 2494 4147 2053 4147 
L 1259 4147 
z
M 628 4666 
L 2053 4666 
Q 2838 4666 3239 4311 
Q 3641 3956 3641 3272 
Q 3641 2581 3239 2228 
Q 2838 1875 2053 1875 
L 1259 1875 
L 1259 0 
L 628 0 
L 628 4666 
z
" transform="scale(0.015625)"/>
       </defs>
       <use xlink:href="#DejaVuSans-41"/>
       <use xlink:href="#DejaVuSans-74" x="66.658203"/>
       <use xlink:href="#DejaVuSans-74" x="105.867188"/>
       <use xlink:href="#DejaVuSans-6e" x="145.076172"/>
       <use xlink:href="#DejaVuSans-50" x="208.455078"/>
       <use xlink:href="#DejaVuSans-61" x="264.257812"/>
       <use xlink:href="#DejaVuSans-63" x="325.537109"/>
       <use xlink:href="#DejaVuSans-6b" x="380.517578"/>
       <use xlink:href="#DejaVuSans-65" x="434.802734"/>
       <use xlink:href="#DejaVuSans-72" x="496.326172"/>
      </g>
     </g>
    </g>
    <g id="xtick_7">
     <g id="text_7">
      <!-- AttnPacker (AF2) -->
      <g style="fill: #262626" transform="translate(693.538324 697.684553) rotate(-45) scale(0.2 -0.2)">
       <defs>
        <path id="DejaVuSans-28" d="M 1984 4856 
Q 1566 4138 1362 3434 
Q 1159 2731 1159 2009 
Q 1159 1288 1364 580 
Q 1569 -128 1984 -844 
L 1484 -844 
Q 1016 -109 783 600 
Q 550 1309 550 2009 
Q 550 2706 781 3412 
Q 1013 4119 1484 4856 
L 1984 4856 
z
" transform="scale(0.015625)"/>
        <path id="DejaVuSans-46" d="M 628 4666 
L 3309 4666 
L 3309 4134 
L 1259 4134 
L 1259 2759 
L 3109 2759 
L 3109 2228 
L 1259 2228 
L 1259 0 
L 628 0 
L 628 4666 
z
" transform="scale(0.015625)"/>
        <path id="DejaVuSans-32" d="M 1228 531 
L 3431 531 
L 3431 0 
L 469 0 
L 469 531 
Q 828 903 1448 1529 
Q 2069 2156 2228 2338 
Q 2531 2678 2651 2914 
Q 2772 3150 2772 3378 
Q 2772 3750 2511 3984 
Q 2250 4219 1831 4219 
Q 1534 4219 1204 4116 
Q 875 4013 500 3803 
L 500 4441 
Q 881 4594 1212 4672 
Q 1544 4750 1819 4750 
Q 2544 4750 2975 4387 
Q 3406 4025 3406 3419 
Q 3406 3131 3298 2873 
Q 3191 2616 2906 2266 
Q 2828 2175 2409 1742 
Q 1991 1309 1228 531 
z
" transform="scale(0.015625)"/>
        <path id="DejaVuSans-29" d="M 513 4856 
L 1013 4856 
Q 1481 4119 1714 3412 
Q 1947 2706 1947 2009 
Q 1947 1309 1714 600 
Q 1481 -109 1013 -844 
L 513 -844 
Q 928 -128 1133 580 
Q 1338 1288 1338 2009 
Q 1338 2731 1133 3434 
Q 928 4138 513 4856 
z
" transform="scale(0.015625)"/>
       </defs>
       <use xlink:href="#DejaVuSans-41"/>
       <use xlink:href="#DejaVuSans-74" x="66.658203"/>
       <use xlink:href="#DejaVuSans-74" x="105.867188"/>
       <use xlink:href="#DejaVuSans-6e" x="145.076172"/>
       <use xlink:href="#DejaVuSans-50" x="208.455078"/>
       <use xlink:href="#DejaVuSans-61" x="264.257812"/>
       <use xlink:href="#DejaVuSans-63" x="325.537109"/>
       <use xlink:href="#DejaVuSans-6b" x="380.517578"/>
       <use xlink:href="#DejaVuSans-65" x="434.802734"/>
       <use xlink:href="#DejaVuSans-72" x="496.326172"/>
       <use xlink:href="#DejaVuSans-20" x="537.439453"/>
       <use xlink:href="#DejaVuSans-28" x="569.226562"/>
       <use xlink:href="#DejaVuSans-41" x="608.240234"/>
       <use xlink:href="#DejaVuSans-46" x="676.648438"/>
       <use xlink:href="#DejaVuSans-32" x="734.167969"/>
       <use xlink:href="#DejaVuSans-29" x="797.791016"/>
      </g>
     </g>
    </g>
   </g>
   <g id="matplotlib.axis_2">
    <g id="ytick_1">
     <g id="line2d_1">
      <path d="M 75.73125 543.394616 
L 856.93125 543.394616 
" clip-path="url(#ped34ee9d23)" style="fill: none; stroke: #cccccc; stroke-width: 0.8; stroke-linecap: round"/>
     </g>
     <g id="text_8">
      <!-- 20 -->
      <g style="fill: #262626" transform="translate(43.28125 550.993053) scale(0.2 -0.2)">
       <defs>
        <path id="DejaVuSans-30" d="M 2034 4250 
Q 1547 4250 1301 3770 
Q 1056 3291 1056 2328 
Q 1056 1369 1301 889 
Q 1547 409 2034 409 
Q 2525 409 2770 889 
Q 3016 1369 3016 2328 
Q 3016 3291 2770 3770 
Q 2525 4250 2034 4250 
z
M 2034 4750 
Q 2819 4750 3233 4129 
Q 3647 3509 3647 2328 
Q 3647 1150 3233 529 
Q 2819 -91 2034 -91 
Q 1250 -91 836 529 
Q 422 1150 422 2328 
Q 422 3509 836 4129 
Q 1250 4750 2034 4750 
z
" transform="scale(0.015625)"/>
       </defs>
       <use xlink:href="#DejaVuSans-32"/>
       <use xlink:href="#DejaVuSans-30" x="63.623047"/>
      </g>
     </g>
    </g>
    <g id="ytick_2">
     <g id="line2d_2">
      <path d="M 75.73125 430.321873 
L 856.93125 430.321873 
" clip-path="url(#ped34ee9d23)" style="fill: none; stroke: #cccccc; stroke-width: 0.8; stroke-linecap: round"/>
     </g>
     <g id="text_9">
      <!-- 40 -->
      <g style="fill: #262626" transform="translate(43.28125 437.92031) scale(0.2 -0.2)">
       <defs>
        <path id="DejaVuSans-34" d="M 2419 4116 
L 825 1625 
L 2419 1625 
L 2419 4116 
z
M 2253 4666 
L 3047 4666 
L 3047 1625 
L 3713 1625 
L 3713 1100 
L 3047 1100 
L 3047 0 
L 2419 0 
L 2419 1100 
L 313 1100 
L 313 1709 
L 2253 4666 
z
" transform="scale(0.015625)"/>
       </defs>
       <use xlink:href="#DejaVuSans-34"/>
       <use xlink:href="#DejaVuSans-30" x="63.623047"/>
      </g>
     </g>
    </g>
    <g id="ytick_3">
     <g id="line2d_3">
      <path d="M 75.73125 317.24913 
L 856.93125 317.24913 
" clip-path="url(#ped34ee9d23)" style="fill: none; stroke: #cccccc; stroke-width: 0.8; stroke-linecap: round"/>
     </g>
     <g id="text_10">
      <!-- 60 -->
      <g style="fill: #262626" transform="translate(43.28125 324.847567) scale(0.2 -0.2)">
       <defs>
        <path id="DejaVuSans-36" d="M 2113 2584 
Q 1688 2584 1439 2293 
Q 1191 2003 1191 1497 
Q 1191 994 1439 701 
Q 1688 409 2113 409 
Q 2538 409 2786 701 
Q 3034 994 3034 1497 
Q 3034 2003 2786 2293 
Q 2538 2584 2113 2584 
z
M 3366 4563 
L 3366 3988 
Q 3128 4100 2886 4159 
Q 2644 4219 2406 4219 
Q 1781 4219 1451 3797 
Q 1122 3375 1075 2522 
Q 1259 2794 1537 2939 
Q 1816 3084 2150 3084 
Q 2853 3084 3261 2657 
Q 3669 2231 3669 1497 
Q 3669 778 3244 343 
Q 2819 -91 2113 -91 
Q 1303 -91 875 529 
Q 447 1150 447 2328 
Q 447 3434 972 4092 
Q 1497 4750 2381 4750 
Q 2619 4750 2861 4703 
Q 3103 4656 3366 4563 
z
" transform="scale(0.015625)"/>
       </defs>
       <use xlink:href="#DejaVuSans-36"/>
       <use xlink:href="#DejaVuSans-30" x="63.623047"/>
      </g>
     </g>
    </g>
    <g id="ytick_4">
     <g id="line2d_4">
      <path d="M 75.73125 204.176387 
L 856.93125 204.176387 
" clip-path="url(#ped34ee9d23)" style="fill: none; stroke: #cccccc; stroke-width: 0.8; stroke-linecap: round"/>
     </g>
     <g id="text_11">
      <!-- 80 -->
      <g style="fill: #262626" transform="translate(43.28125 211.774824) scale(0.2 -0.2)">
       <defs>
        <path id="DejaVuSans-38" d="M 2034 2216 
Q 1584 2216 1326 1975 
Q 1069 1734 1069 1313 
Q 1069 891 1326 650 
Q 1584 409 2034 409 
Q 2484 409 2743 651 
Q 3003 894 3003 1313 
Q 3003 1734 2745 1975 
Q 2488 2216 2034 2216 
z
M 1403 2484 
Q 997 2584 770 2862 
Q 544 3141 544 3541 
Q 544 4100 942 4425 
Q 1341 4750 2034 4750 
Q 2731 4750 3128 4425 
Q 3525 4100 3525 3541 
Q 3525 3141 3298 2862 
Q 3072 2584 2669 2484 
Q 3125 2378 3379 2068 
Q 3634 1759 3634 1313 
Q 3634 634 3220 271 
Q 2806 -91 2034 -91 
Q 1263 -91 848 271 
Q 434 634 434 1313 
Q 434 1759 690 2068 
Q 947 2378 1403 2484 
z
M 1172 3481 
Q 1172 3119 1398 2916 
Q 1625 2713 2034 2713 
Q 2441 2713 2670 2916 
Q 2900 3119 2900 3481 
Q 2900 3844 2670 4047 
Q 2441 4250 2034 4250 
Q 1625 4250 1398 4047 
Q 1172 3844 1172 3481 
z
" transform="scale(0.015625)"/>
       </defs>
       <use xlink:href="#DejaVuSans-38"/>
       <use xlink:href="#DejaVuSans-30" x="63.623047"/>
      </g>
     </g>
    </g>
    <g id="ytick_5">
     <g id="line2d_5">
      <path d="M 75.73125 91.103644 
L 856.93125 91.103644 
" clip-path="url(#ped34ee9d23)" style="fill: none; stroke: #cccccc; stroke-width: 0.8; stroke-linecap: round"/>
     </g>
     <g id="text_12">
      <!-- 100 -->
      <g style="fill: #262626" transform="translate(30.55625 98.702081) scale(0.2 -0.2)">
       <defs>
        <path id="DejaVuSans-31" d="M 794 531 
L 1825 531 
L 1825 4091 
L 703 3866 
L 703 4441 
L 1819 4666 
L 2450 4666 
L 2450 531 
L 3481 531 
L 3481 0 
L 794 0 
L 794 531 
z
" transform="scale(0.015625)"/>
       </defs>
       <use xlink:href="#DejaVuSans-31"/>
       <use xlink:href="#DejaVuSans-30" x="63.623047"/>
       <use xlink:href="#DejaVuSans-30" x="127.246094"/>
      </g>
     </g>
    </g>
    <g id="text_13">
     <!-- pLDDT % -->
     <g style="fill: #262626" transform="translate(22.396875 330.507813) rotate(-90) scale(0.2 -0.2)">
      <defs>
       <path id="DejaVuSans-4c" d="M 628 4666 
L 1259 4666 
L 1259 531 
L 3531 531 
L 3531 0 
L 628 0 
L 628 4666 
z
" transform="scale(0.015625)"/>
       <path id="DejaVuSans-44" d="M 1259 4147 
L 1259 519 
L 2022 519 
Q 2988 519 3436 956 
Q 3884 1394 3884 2338 
Q 3884 3275 3436 3711 
Q 2988 4147 2022 4147 
L 1259 4147 
z
M 628 4666 
L 1925 4666 
Q 3281 4666 3915 4102 
Q 4550 3538 4550 2338 
Q 4550 1131 3912 565 
Q 3275 0 1925 0 
L 628 0 
L 628 4666 
z
" transform="scale(0.015625)"/>
       <path id="DejaVuSans-25" d="M 4653 2053 
Q 4381 2053 4226 1822 
Q 4072 1591 4072 1178 
Q 4072 772 4226 539 
Q 4381 306 4653 306 
Q 4919 306 5073 539 
Q 5228 772 5228 1178 
Q 5228 1588 5073 1820 
Q 4919 2053 4653 2053 
z
M 4653 2450 
Q 5147 2450 5437 2106 
Q 5728 1763 5728 1178 
Q 5728 594 5436 251 
Q 5144 -91 4653 -91 
Q 4153 -91 3862 251 
Q 3572 594 3572 1178 
Q 3572 1766 3864 2108 
Q 4156 2450 4653 2450 
z
M 1428 4353 
Q 1159 4353 1004 4120 
Q 850 3888 850 3481 
Q 850 3069 1003 2837 
Q 1156 2606 1428 2606 
Q 1700 2606 1854 2837 
Q 2009 3069 2009 3481 
Q 2009 3884 1853 4118 
Q 1697 4353 1428 4353 
z
M 4250 4750 
L 4750 4750 
L 1831 -91 
L 1331 -91 
L 4250 4750 
z
M 1428 4750 
Q 1922 4750 2215 4408 
Q 2509 4066 2509 3481 
Q 2509 2891 2217 2550 
Q 1925 2209 1428 2209 
Q 931 2209 642 2551 
Q 353 2894 353 3481 
Q 353 4063 643 4406 
Q 934 4750 1428 4750 
z
" transform="scale(0.015625)"/>
      </defs>
      <use xlink:href="#DejaVuSans-70"/>
      <use xlink:href="#DejaVuSans-4c" x="63.476562"/>
      <use xlink:href="#DejaVuSans-44" x="119.189453"/>
      <use xlink:href="#DejaVuSans-44" x="196.191406"/>
      <use xlink:href="#DejaVuSans-54" x="273.193359"/>
      <use xlink:href="#DejaVuSans-20" x="334.277344"/>
      <use xlink:href="#DejaVuSans-25" x="366.064453"/>
     </g>
    </g>
   </g>
   <g id="PolyCollection_1">
    <defs>
     <path id="m4d57a9720f" d="M 131.728857 -171.425675 
L 131.333643 -171.425675 
L 131.260402 -176.3731 
L 131.168112 -181.320525 
L 131.054931 -186.26795 
L 130.919925 -191.215375 
L 130.763413 -196.1628 
L 130.587259 -201.110225 
L 130.395031 -206.05765 
L 130.192016 -211.005075 
L 129.98501 -215.9525 
L 129.781913 -220.899925 
L 129.591123 -225.84735 
L 129.420794 -230.794775 
L 129.278051 -235.7422 
L 129.168261 -240.689625 
L 129.094458 -245.63705 
L 129.057034 -250.584475 
L 129.053735 -255.5319 
L 129.079975 -260.479325 
L 129.129438 -265.42675 
L 129.194861 -270.374175 
L 129.268888 -275.3216 
L 129.344852 -280.269025 
L 129.417374 -285.21645 
L 129.482685 -290.163875 
L 129.538651 -295.1113 
L 129.584516 -300.058725 
L 129.620458 -305.00615 
L 129.647047 -309.953575 
L 129.664735 -314.901 
L 129.673476 -319.848425 
L 129.672519 -324.79585 
L 129.660396 -329.743275 
L 129.635058 -334.6907 
L 129.594099 -339.638125 
L 129.534987 -344.58555 
L 129.455254 -349.532975 
L 129.352595 -354.4804 
L 129.224898 -359.427825 
L 129.070227 -364.37525 
L 128.886802 -369.322675 
L 128.673007 -374.2701 
L 128.427452 -379.217525 
L 128.149037 -384.16495 
L 127.837006 -389.112375 
L 127.490887 -394.0598 
L 127.110294 -399.007225 
L 126.694537 -403.95465 
L 126.242065 -408.902075 
L 125.74979 -413.8495 
L 125.212405 -418.796925 
L 124.621818 -423.74435 
L 123.96683 -428.691775 
L 123.233165 -433.6392 
L 122.40394 -438.586625 
L 121.460572 -443.53405 
L 120.384107 -448.481475 
L 119.156858 -453.4289 
L 117.764233 -458.376325 
L 116.196572 -463.32375 
L 114.450804 -468.271175 
L 112.531761 -473.2186 
L 110.453003 -478.166025 
L 108.237047 -483.11345 
L 105.914996 -488.060875 
L 103.525605 -493.0083 
L 101.113908 -497.955725 
L 98.729575 -502.90315 
L 96.425192 -507.850575 
L 94.254618 -512.798 
L 92.271543 -517.745425 
L 90.528274 -522.69285 
L 89.074675 -527.640275 
L 87.957145 -532.5877 
L 87.217449 -537.535125 
L 86.89125 -542.48255 
L 87.006283 -547.429975 
L 87.580197 -552.3774 
L 88.61827 -557.324825 
L 90.111297 -562.27225 
L 92.034054 -567.219675 
L 94.344724 -572.1671 
L 96.985595 -577.114525 
L 99.885179 -582.06195 
L 102.961702 -587.009375 
L 106.127685 -591.9568 
L 109.29517 -596.904225 
L 112.381026 -601.85165 
L 115.311767 -606.799075 
L 118.027373 -611.7465 
L 120.483753 -616.693925 
L 122.653709 -621.64135 
L 124.52643 -626.588775 
L 126.10574 -631.5362 
L 127.40745 -636.483625 
L 128.456203 -641.43105 
L 129.282222 -646.378475 
L 129.91828 -651.3259 
L 130.397147 -656.273325 
L 130.749648 -661.22075 
L 132.312852 -661.22075 
L 132.312852 -661.22075 
L 132.665353 -656.273325 
L 133.14422 -651.3259 
L 133.780278 -646.378475 
L 134.606297 -641.43105 
L 135.65505 -636.483625 
L 136.95676 -631.5362 
L 138.53607 -626.588775 
L 140.408791 -621.64135 
L 142.578747 -616.693925 
L 145.035127 -611.7465 
L 147.750733 -606.799075 
L 150.681474 -601.85165 
L 153.76733 -596.904225 
L 156.934815 -591.9568 
L 160.100798 -587.009375 
L 163.177321 -582.06195 
L 166.076905 -577.114525 
L 168.717776 -572.1671 
L 171.028446 -567.219675 
L 172.951203 -562.27225 
L 174.44423 -557.324825 
L 175.482303 -552.3774 
L 176.056217 -547.429975 
L 176.17125 -542.48255 
L 175.845051 -537.535125 
L 175.105355 -532.5877 
L 173.987825 -527.640275 
L 172.534226 -522.69285 
L 170.790957 -517.745425 
L 168.807882 -512.798 
L 166.637308 -507.850575 
L 164.332925 -502.90315 
L 161.948592 -497.955725 
L 159.536895 -493.0083 
L 157.147504 -488.060875 
L 154.825453 -483.11345 
L 152.609497 -478.166025 
L 150.530739 -473.2186 
L 148.611696 -468.271175 
L 146.865928 -463.32375 
L 145.298267 -458.376325 
L 143.905642 -453.4289 
L 142.678393 -448.481475 
L 141.601928 -443.53405 
L 140.65856 -438.586625 
L 139.829335 -433.6392 
L 139.09567 -428.691775 
L 138.440682 -423.74435 
L 137.850095 -418.796925 
L 137.31271 -413.8495 
L 136.820435 -408.902075 
L 136.367963 -403.95465 
L 135.952206 -399.007225 
L 135.571613 -394.0598 
L 135.225494 -389.112375 
L 134.913463 -384.16495 
L 134.635048 -379.217525 
L 134.389493 -374.2701 
L 134.175698 -369.322675 
L 133.992273 -364.37525 
L 133.837602 -359.427825 
L 133.709905 -354.4804 
L 133.607246 -349.532975 
L 133.527513 -344.58555 
L 133.468401 -339.638125 
L 133.427442 -334.6907 
L 133.402104 -329.743275 
L 133.389981 -324.79585 
L 133.389024 -319.848425 
L 133.397765 -314.901 
L 133.415453 -309.953575 
L 133.442042 -305.00615 
L 133.477984 -300.058725 
L 133.523849 -295.1113 
L 133.579815 -290.163875 
L 133.645126 -285.21645 
L 133.717648 -280.269025 
L 133.793612 -275.3216 
L 133.867639 -270.374175 
L 133.933062 -265.42675 
L 133.982525 -260.479325 
L 134.008765 -255.5319 
L 134.005466 -250.584475 
L 133.968042 -245.63705 
L 133.894239 -240.689625 
L 133.784449 -235.7422 
L 133.641706 -230.794775 
L 133.471377 -225.84735 
L 133.280587 -220.899925 
L 133.07749 -215.9525 
L 132.870484 -211.005075 
L 132.667469 -206.05765 
L 132.475241 -201.110225 
L 132.299087 -196.1628 
L 132.142575 -191.215375 
L 132.007569 -186.26795 
L 131.894388 -181.320525 
L 131.802098 -176.3731 
L 131.728857 -171.425675 
z
" style="stroke: #3d3d3d; stroke-opacity: 0.5"/>
    </defs>
    <g clip-path="url(#ped34ee9d23)">
     <use xlink:href="#m4d57a9720f" x="0" y="707.825675" style="fill: #3274a1; fill-opacity: 0.5; stroke: #3d3d3d; stroke-opacity: 0.5"/>
    </g>
   </g>
   <g id="PolyCollection_2">
    <defs>
     <path id="m0828e8e1fb" d="M 243.298163 -456.389094 
L 242.964337 -456.389094 
L 242.892396 -458.07488 
L 242.801319 -459.760666 
L 242.691346 -461.446452 
L 242.565092 -463.132238 
L 242.427914 -464.818023 
L 242.287851 -466.503809 
L 242.155027 -468.189595 
L 242.040539 -469.875381 
L 241.954956 -471.561167 
L 241.906726 -473.246953 
L 241.9008 -474.932739 
L 241.937795 -476.618525 
L 242.01389 -478.304311 
L 242.121473 -479.990097 
L 242.250397 -481.675883 
L 242.389551 -483.361669 
L 242.528413 -485.047455 
L 242.658287 -486.733241 
L 242.773049 -488.419027 
L 242.869334 -490.104813 
L 242.946273 -491.790599 
L 243.004897 -493.476385 
L 243.047423 -495.162171 
L 243.076544 -496.847957 
L 243.094844 -498.533742 
L 243.104363 -500.219528 
L 243.106329 -501.905314 
L 243.101011 -503.5911 
L 243.087692 -505.276886 
L 243.064749 -506.962672 
L 243.02985 -508.648458 
L 242.980296 -510.334244 
L 242.913524 -512.02003 
L 242.827755 -513.705816 
L 242.722716 -515.391602 
L 242.60031 -517.077388 
L 242.465062 -518.763174 
L 242.32416 -520.44896 
L 242.186962 -522.134746 
L 242.063935 -523.820532 
L 241.965133 -525.506318 
L 241.89845 -527.192104 
L 241.867973 -528.87789 
L 241.872781 -530.563676 
L 241.906422 -532.249462 
L 241.95719 -533.935247 
L 242.009109 -535.621033 
L 242.043396 -537.306819 
L 242.040087 -538.992605 
L 241.979517 -540.678391 
L 241.843445 -542.364177 
L 241.615744 -544.049963 
L 241.282742 -545.735749 
L 240.833398 -547.421535 
L 240.259546 -549.107321 
L 239.556367 -550.793107 
L 238.723106 -552.478893 
L 237.763865 -554.164679 
L 236.688105 -555.850465 
L 235.51043 -557.536251 
L 234.249243 -559.222037 
L 232.924152 -560.907823 
L 231.552351 -562.593609 
L 230.14461 -564.279395 
L 228.701846 -565.965181 
L 227.213309 -567.650966 
L 225.657227 -569.336752 
L 224.004213 -571.022538 
L 222.223118 -572.708324 
L 220.2883 -574.39411 
L 218.186919 -576.079896 
L 215.924755 -577.765682 
L 213.529447 -579.451468 
L 211.050695 -581.137254 
L 208.557741 -582.82304 
L 206.135045 -584.508826 
L 203.877281 -586.194612 
L 201.88456 -587.880398 
L 200.258209 -589.566184 
L 199.096748 -591.25197 
L 198.49125 -592.937756 
L 198.519281 -594.623542 
L 199.237121 -596.309328 
L 200.670913 -597.995114 
L 202.808322 -599.6809 
L 205.592892 -601.366686 
L 208.923264 -603.052471 
L 212.658571 -604.738257 
L 216.630033 -606.424043 
L 220.657214 -608.109829 
L 224.566264 -609.795615 
L 228.20691 -611.481401 
L 231.465312 -613.167187 
L 234.270921 -614.852973 
L 236.59682 -616.538759 
L 238.454426 -618.224545 
L 239.884352 -619.910331 
L 240.94562 -621.596117 
L 241.705269 -623.281903 
L 244.557231 -623.281903 
L 244.557231 -623.281903 
L 245.31688 -621.596117 
L 246.378148 -619.910331 
L 247.808074 -618.224545 
L 249.66568 -616.538759 
L 251.991579 -614.852973 
L 254.797188 -613.167187 
L 258.05559 -611.481401 
L 261.696236 -609.795615 
L 265.605286 -608.109829 
L 269.632467 -606.424043 
L 273.603929 -604.738257 
L 277.339236 -603.052471 
L 280.669608 -601.366686 
L 283.454178 -599.6809 
L 285.591587 -597.995114 
L 287.025379 -596.309328 
L 287.743219 -594.623542 
L 287.77125 -592.937756 
L 287.165752 -591.25197 
L 286.004291 -589.566184 
L 284.37794 -587.880398 
L 282.385219 -586.194612 
L 280.127455 -584.508826 
L 277.704759 -582.82304 
L 275.211805 -581.137254 
L 272.733053 -579.451468 
L 270.337745 -577.765682 
L 268.075581 -576.079896 
L 265.9742 -574.39411 
L 264.039382 -572.708324 
L 262.258287 -571.022538 
L 260.605273 -569.336752 
L 259.049191 -567.650966 
L 257.560654 -565.965181 
L 256.11789 -564.279395 
L 254.710149 -562.593609 
L 253.338348 -560.907823 
L 252.013257 -559.222037 
L 250.75207 -557.536251 
L 249.574395 -555.850465 
L 248.498635 -554.164679 
L 247.539394 -552.478893 
L 246.706133 -550.793107 
L 246.002954 -549.107321 
L 245.429102 -547.421535 
L 244.979758 -545.735749 
L 244.646756 -544.049963 
L 244.419055 -542.364177 
L 244.282983 -540.678391 
L 244.222413 -538.992605 
L 244.219104 -537.306819 
L 244.253391 -535.621033 
L 244.30531 -533.935247 
L 244.356078 -532.249462 
L 244.389719 -530.563676 
L 244.394527 -528.87789 
L 244.36405 -527.192104 
L 244.297367 -525.506318 
L 244.198565 -523.820532 
L 244.075538 -522.134746 
L 243.93834 -520.44896 
L 243.797438 -518.763174 
L 243.66219 -517.077388 
L 243.539784 -515.391602 
L 243.434745 -513.705816 
L 243.348976 -512.02003 
L 243.282204 -510.334244 
L 243.23265 -508.648458 
L 243.197751 -506.962672 
L 243.174808 -505.276886 
L 243.161489 -503.5911 
L 243.156171 -501.905314 
L 243.158137 -500.219528 
L 243.167656 -498.533742 
L 243.185956 -496.847957 
L 243.215077 -495.162171 
L 243.257603 -493.476385 
L 243.316227 -491.790599 
L 243.393166 -490.104813 
L 243.489451 -488.419027 
L 243.604213 -486.733241 
L 243.734087 -485.047455 
L 243.872949 -483.361669 
L 244.012103 -481.675883 
L 244.141027 -479.990097 
L 244.24861 -478.304311 
L 244.324705 -476.618525 
L 244.3617 -474.932739 
L 244.355774 -473.246953 
L 244.307544 -471.561167 
L 244.221961 -469.875381 
L 244.107473 -468.189595 
L 243.974649 -466.503809 
L 243.834586 -464.818023 
L 243.697408 -463.132238 
L 243.571154 -461.446452 
L 243.461181 -459.760666 
L 243.370104 -458.07488 
L 243.298163 -456.389094 
z
" style="stroke: #3d3d3d; stroke-opacity: 0.5"/>
    </defs>
    <g clip-path="url(#ped34ee9d23)">
     <use xlink:href="#m0828e8e1fb" x="0" y="707.825675" style="fill: #d684bd; fill-opacity: 0.5; stroke: #3d3d3d; stroke-opacity: 0.5"/>
    </g>
   </g>
   <g id="PolyCollection_3">
    <defs>
     <path id="m01602107ab" d="M 355.994145 -178.039289 
L 353.468355 -178.039289 
L 352.981774 -182.87091 
L 352.34824 -187.702531 
L 351.53917 -192.534151 
L 350.525849 -197.365772 
L 349.281372 -202.197393 
L 347.782999 -207.029013 
L 346.014741 -211.860634 
L 343.970007 -216.692255 
L 341.654009 -221.523875 
L 339.085655 -226.355496 
L 336.298623 -231.187117 
L 333.341394 -236.018737 
L 330.276076 -240.850358 
L 327.17601 -245.681979 
L 324.122263 -250.5136 
L 321.19928 -255.34522 
L 318.490042 -260.176841 
L 316.0712 -265.008462 
L 314.008618 -269.840082 
L 312.35376 -274.671703 
L 311.1412 -279.503324 
L 310.387473 -284.334944 
L 310.09125 -289.166565 
L 310.234754 -293.998186 
L 310.786165 -298.829806 
L 311.702712 -303.661427 
L 312.934138 -308.493048 
L 314.426185 -313.324668 
L 316.123867 -318.156289 
L 317.974276 -322.98791 
L 319.928818 -327.81953 
L 321.944769 -332.651151 
L 323.986163 -337.482772 
L 326.024027 -342.314392 
L 328.03604 -347.146013 
L 330.005734 -351.977634 
L 331.921373 -356.809254 
L 333.77465 -361.640875 
L 335.559375 -366.472496 
L 337.270293 -371.304116 
L 338.902146 -376.135737 
L 340.449074 -380.967358 
L 341.904364 -385.798978 
L 343.26054 -390.630599 
L 344.50973 -395.46222 
L 345.644211 -400.293841 
L 346.657032 -405.125461 
L 347.542611 -409.957082 
L 348.297241 -414.788703 
L 348.919454 -419.620323 
L 349.410232 -424.451944 
L 349.773091 -429.283565 
L 350.01406 -434.115185 
L 350.141605 -438.946806 
L 350.166506 -443.778427 
L 350.101712 -448.610047 
L 349.962148 -453.441668 
L 349.764442 -458.273289 
L 349.526549 -463.104909 
L 349.267226 -467.93653 
L 349.005361 -472.768151 
L 348.759174 -477.599771 
L 348.545337 -482.431392 
L 348.378103 -487.263013 
L 348.268528 -492.094633 
L 348.223892 -496.926254 
L 348.247382 -501.757875 
L 348.338105 -506.589495 
L 348.49142 -511.421116 
L 348.699555 -516.252737 
L 348.95246 -521.084357 
L 349.238769 -525.915978 
L 349.546796 -530.747599 
L 349.865443 -535.57922 
L 350.184958 -540.41084 
L 350.497466 -545.242461 
L 350.797265 -550.074082 
L 351.080881 -554.905702 
L 351.346905 -559.737323 
L 351.595664 -564.568944 
L 351.828784 -569.400564 
L 352.048688 -574.232185 
L 352.258105 -579.063806 
L 352.459622 -583.895426 
L 352.655334 -588.727047 
L 352.8466 -593.558668 
L 353.033935 -598.390288 
L 353.217017 -603.221909 
L 353.394801 -608.05353 
L 353.565717 -612.88515 
L 353.727906 -617.716771 
L 353.879477 -622.548392 
L 354.01873 -627.380012 
L 354.144344 -632.211633 
L 354.255499 -637.043254 
L 354.351926 -641.874874 
L 354.433895 -646.706495 
L 354.502155 -651.538116 
L 354.557831 -656.369736 
L 354.904669 -656.369736 
L 354.904669 -656.369736 
L 354.960345 -651.538116 
L 355.028605 -646.706495 
L 355.110574 -641.874874 
L 355.207001 -637.043254 
L 355.318156 -632.211633 
L 355.44377 -627.380012 
L 355.583023 -622.548392 
L 355.734594 -617.716771 
L 355.896783 -612.88515 
L 356.067699 -608.05353 
L 356.245483 -603.221909 
L 356.428565 -598.390288 
L 356.6159 -593.558668 
L 356.807166 -588.727047 
L 357.002878 -583.895426 
L 357.204395 -579.063806 
L 357.413812 -574.232185 
L 357.633716 -569.400564 
L 357.866836 -564.568944 
L 358.115595 -559.737323 
L 358.381619 -554.905702 
L 358.665235 -550.074082 
L 358.965034 -545.242461 
L 359.277542 -540.41084 
L 359.597057 -535.57922 
L 359.915704 -530.747599 
L 360.223731 -525.915978 
L 360.51004 -521.084357 
L 360.762945 -516.252737 
L 360.97108 -511.421116 
L 361.124395 -506.589495 
L 361.215118 -501.757875 
L 361.238608 -496.926254 
L 361.193972 -492.094633 
L 361.084397 -487.263013 
L 360.917163 -482.431392 
L 360.703326 -477.599771 
L 360.457139 -472.768151 
L 360.195274 -467.93653 
L 359.935951 -463.104909 
L 359.698058 -458.273289 
L 359.500352 -453.441668 
L 359.360788 -448.610047 
L 359.295994 -443.778427 
L 359.320895 -438.946806 
L 359.44844 -434.115185 
L 359.689409 -429.283565 
L 360.052268 -424.451944 
L 360.543046 -419.620323 
L 361.165259 -414.788703 
L 361.919889 -409.957082 
L 362.805468 -405.125461 
L 363.818289 -400.293841 
L 364.95277 -395.46222 
L 366.20196 -390.630599 
L 367.558136 -385.798978 
L 369.013426 -380.967358 
L 370.560354 -376.135737 
L 372.192207 -371.304116 
L 373.903125 -366.472496 
L 375.68785 -361.640875 
L 377.541127 -356.809254 
L 379.456766 -351.977634 
L 381.42646 -347.146013 
L 383.438473 -342.314392 
L 385.476337 -337.482772 
L 387.517731 -332.651151 
L 389.533682 -327.81953 
L 391.488224 -322.98791 
L 393.338633 -318.156289 
L 395.036315 -313.324668 
L 396.528362 -308.493048 
L 397.759788 -303.661427 
L 398.676335 -298.829806 
L 399.227746 -293.998186 
L 399.37125 -289.166565 
L 399.075027 -284.334944 
L 398.3213 -279.503324 
L 397.10874 -274.671703 
L 395.453882 -269.840082 
L 393.3913 -265.008462 
L 390.972458 -260.176841 
L 388.26322 -255.34522 
L 385.340237 -250.5136 
L 382.28649 -245.681979 
L 379.186424 -240.850358 
L 376.121106 -236.018737 
L 373.163877 -231.187117 
L 370.376845 -226.355496 
L 367.808491 -221.523875 
L 365.492493 -216.692255 
L 363.447759 -211.860634 
L 361.679501 -207.029013 
L 360.181128 -202.197393 
L 358.936651 -197.365772 
L 357.92333 -192.534151 
L 357.11426 -187.702531 
L 356.480726 -182.87091 
L 355.994145 -178.039289 
z
" style="stroke: #3d3d3d; stroke-opacity: 0.5"/>
    </defs>
    <g clip-path="url(#ped34ee9d23)">
     <use xlink:href="#m01602107ab" x="0" y="707.825675" style="fill: #c03d3e; fill-opacity: 0.5; stroke: #3d3d3d; stroke-opacity: 0.5"/>
    </g>
   </g>
   <g id="PolyCollection_4">
    <defs>
     <path id="m51835c325c" d="M 466.504447 -468.595726 
L 466.158053 -468.595726 
L 466.090314 -470.109931 
L 466.005881 -471.624137 
L 465.904692 -473.138342 
L 465.788336 -474.652547 
L 465.660333 -476.166753 
L 465.526152 -477.680958 
L 465.392916 -479.195163 
L 465.268747 -480.709368 
L 465.161808 -482.223574 
L 465.079181 -483.737779 
L 465.025743 -485.251984 
L 465.003269 -486.766189 
L 465.009959 -488.280395 
L 465.040496 -489.7946 
L 465.086688 -491.308805 
L 465.138608 -492.823011 
L 465.186057 -494.337216 
L 465.220114 -495.851421 
L 465.234515 -497.365626 
L 465.22663 -498.879832 
L 465.197868 -500.394037 
L 465.15345 -501.908242 
L 465.101572 -503.422447 
L 465.052108 -504.936653 
L 465.015055 -506.450858 
L 464.99898 -507.965063 
L 465.009708 -509.479269 
L 465.049463 -510.993474 
L 465.116559 -512.507679 
L 465.205659 -514.021884 
L 465.308526 -515.53609 
L 465.415088 -517.050295 
L 465.514649 -518.5645 
L 465.597052 -520.078705 
L 465.653657 -521.592911 
L 465.67803 -523.107116 
L 465.666312 -524.621321 
L 465.617224 -526.135527 
L 465.531729 -527.649732 
L 465.412339 -529.163937 
L 465.262097 -530.678142 
L 465.083303 -532.192348 
L 464.876114 -533.706553 
L 464.637207 -535.220758 
L 464.358786 -536.734963 
L 464.028206 -538.249169 
L 463.62845 -539.763374 
L 463.139586 -541.277579 
L 462.541142 -542.791785 
L 461.815131 -544.30599 
L 460.949291 -545.820195 
L 459.939968 -547.3344 
L 458.794064 -548.848606 
L 457.529564 -550.362811 
L 456.174342 -551.877016 
L 454.763226 -553.391221 
L 453.333556 -554.905427 
L 451.919776 -556.419632 
L 450.547797 -557.933837 
L 449.230003 -559.448043 
L 447.961804 -560.962248 
L 446.72055 -562.476453 
L 445.467329 -563.990658 
L 444.151843 -565.504864 
L 442.719986 -567.019069 
L 441.123267 -568.533274 
L 439.328741 -570.047479 
L 437.327817 -571.561685 
L 435.14238 -573.07589 
L 432.826964 -574.590095 
L 430.466371 -576.104301 
L 428.16891 -577.618506 
L 426.056224 -579.132711 
L 424.251255 -580.646916 
L 422.866171 -582.161122 
L 421.992 -583.675327 
L 421.69125 -585.189532 
L 421.994199 -586.703737 
L 422.898811 -588.217943 
L 424.373683 -589.732148 
L 426.363041 -591.246353 
L 428.792725 -592.760559 
L 431.576215 -594.274764 
L 434.620097 -595.788969 
L 437.828692 -597.303174 
L 441.107882 -598.81738 
L 444.368367 -600.331585 
L 447.528578 -601.84579 
L 450.517362 -603.359995 
L 453.276425 -604.874201 
L 455.762281 -606.388406 
L 457.947441 -607.902611 
L 459.820575 -609.416817 
L 461.385487 -610.931022 
L 462.658998 -612.445227 
L 463.667961 -613.959432 
L 464.445811 -615.473638 
L 465.029093 -616.987843 
L 465.454358 -618.502048 
L 467.208142 -618.502048 
L 467.208142 -618.502048 
L 467.633407 -616.987843 
L 468.216689 -615.473638 
L 468.994539 -613.959432 
L 470.003502 -612.445227 
L 471.277013 -610.931022 
L 472.841925 -609.416817 
L 474.715059 -607.902611 
L 476.900219 -606.388406 
L 479.386075 -604.874201 
L 482.145138 -603.359995 
L 485.133922 -601.84579 
L 488.294133 -600.331585 
L 491.554618 -598.81738 
L 494.833808 -597.303174 
L 498.042403 -595.788969 
L 501.086285 -594.274764 
L 503.869775 -592.760559 
L 506.299459 -591.246353 
L 508.288817 -589.732148 
L 509.763689 -588.217943 
L 510.668301 -586.703737 
L 510.97125 -585.189532 
L 510.6705 -583.675327 
L 509.796329 -582.161122 
L 508.411245 -580.646916 
L 506.606276 -579.132711 
L 504.49359 -577.618506 
L 502.196129 -576.104301 
L 499.835536 -574.590095 
L 497.52012 -573.07589 
L 495.334683 -571.561685 
L 493.333759 -570.047479 
L 491.539233 -568.533274 
L 489.942514 -567.019069 
L 488.510657 -565.504864 
L 487.195171 -563.990658 
L 485.94195 -562.476453 
L 484.700696 -560.962248 
L 483.432497 -559.448043 
L 482.114703 -557.933837 
L 480.742724 -556.419632 
L 479.328944 -554.905427 
L 477.899274 -553.391221 
L 476.488158 -551.877016 
L 475.132936 -550.362811 
L 473.868436 -548.848606 
L 472.722532 -547.3344 
L 471.713209 -545.820195 
L 470.847369 -544.30599 
L 470.121358 -542.791785 
L 469.522914 -541.277579 
L 469.03405 -539.763374 
L 468.634294 -538.249169 
L 468.303714 -536.734963 
L 468.025293 -535.220758 
L 467.786386 -533.706553 
L 467.579197 -532.192348 
L 467.400403 -530.678142 
L 467.250161 -529.163937 
L 467.130771 -527.649732 
L 467.045276 -526.135527 
L 466.996188 -524.621321 
L 466.98447 -523.107116 
L 467.008843 -521.592911 
L 467.065448 -520.078705 
L 467.147851 -518.5645 
L 467.247412 -517.050295 
L 467.353974 -515.53609 
L 467.456841 -514.021884 
L 467.545941 -512.507679 
L 467.613037 -510.993474 
L 467.652792 -509.479269 
L 467.66352 -507.965063 
L 467.647445 -506.450858 
L 467.610392 -504.936653 
L 467.560928 -503.422447 
L 467.50905 -501.908242 
L 467.464632 -500.394037 
L 467.43587 -498.879832 
L 467.427985 -497.365626 
L 467.442386 -495.851421 
L 467.476443 -494.337216 
L 467.523892 -492.823011 
L 467.575812 -491.308805 
L 467.622004 -489.7946 
L 467.652541 -488.280395 
L 467.659231 -486.766189 
L 467.636757 -485.251984 
L 467.583319 -483.737779 
L 467.500692 -482.223574 
L 467.393753 -480.709368 
L 467.269584 -479.195163 
L 467.136348 -477.680958 
L 467.002167 -476.166753 
L 466.874164 -474.652547 
L 466.757808 -473.138342 
L 466.656619 -471.624137 
L 466.572186 -470.109931 
L 466.504447 -468.595726 
z
" style="stroke: #3d3d3d; stroke-opacity: 0.5"/>
    </defs>
    <g clip-path="url(#ped34ee9d23)">
     <use xlink:href="#m51835c325c" x="0" y="707.825675" style="fill: #9372b2; fill-opacity: 0.5; stroke: #3d3d3d; stroke-opacity: 0.5"/>
    </g>
   </g>
   <g id="PolyCollection_5">
    <defs>
     <path id="mdf441947ba" d="M 578.105966 -432.70535 
L 577.756534 -432.70535 
L 577.686228 -434.623369 
L 577.598215 -436.541388 
L 577.492528 -438.459407 
L 577.371092 -440.377426 
L 577.238045 -442.295445 
L 577.099755 -444.213464 
L 576.964459 -446.131483 
L 576.841495 -448.049502 
L 576.740199 -449.967521 
L 576.668612 -451.885541 
L 576.632228 -453.80356 
L 576.633009 -455.721579 
L 576.66887 -457.639598 
L 576.733738 -459.557617 
L 576.818208 -461.475636 
L 576.910675 -463.393655 
L 576.998771 -465.311674 
L 577.070896 -467.229693 
L 577.117617 -469.147712 
L 577.13277 -471.065731 
L 577.114147 -472.983751 
L 577.063684 -474.90177 
L 576.987135 -476.819789 
L 576.893266 -478.737808 
L 576.792624 -480.655827 
L 576.696055 -482.573846 
L 576.613129 -484.491865 
L 576.55075 -486.409884 
L 576.512167 -488.327903 
L 576.496613 -490.245922 
L 576.499658 -492.163941 
L 576.514247 -494.081961 
L 576.532244 -495.99998 
L 576.546168 -497.917999 
L 576.55078 -499.836018 
L 576.54416 -501.754037 
L 576.528053 -503.672056 
L 576.50739 -505.590075 
L 576.489077 -507.508094 
L 576.480309 -509.426113 
L 576.486744 -511.344132 
L 576.510892 -513.262151 
L 576.55102 -515.180171 
L 576.600719 -517.09819 
L 576.649138 -519.016209 
L 576.681734 -520.934228 
L 576.681284 -522.852247 
L 576.628881 -524.770266 
L 576.504699 -526.688285 
L 576.288385 -528.606304 
L 575.95914 -530.524323 
L 575.495658 -532.442342 
L 574.876191 -534.360362 
L 574.07906 -536.278381 
L 573.083815 -538.1964 
L 571.873074 -540.114419 
L 570.434871 -542.032438 
L 568.765082 -543.950457 
L 566.869398 -545.868476 
L 564.7643 -547.786495 
L 562.476695 -549.704514 
L 560.042177 -551.622533 
L 557.502239 -553.540552 
L 554.901066 -555.458572 
L 552.282634 -557.376591 
L 549.688766 -559.29461 
L 547.158441 -561.212629 
L 544.728316 -563.130648 
L 542.433984 -565.048667 
L 540.311379 -566.966686 
L 538.397688 -568.884705 
L 536.731407 -570.802724 
L 535.351477 -572.720743 
L 534.295717 -574.638762 
L 533.598963 -576.556782 
L 533.29125 -578.474801 
L 533.396253 -580.39282 
L 533.929964 -582.310839 
L 534.899445 -584.228858 
L 536.301452 -586.146877 
L 538.1209 -588.064896 
L 540.329295 -589.982915 
L 542.883565 -591.900934 
L 545.725773 -593.818953 
L 548.784229 -595.736972 
L 551.976254 -597.654992 
L 555.212576 -599.573011 
L 558.402946 -601.49103 
L 561.462289 -603.409049 
L 564.316564 -605.327068 
L 566.907514 -607.245087 
L 569.195702 -609.163106 
L 571.16151 -611.081125 
L 572.804128 -612.999144 
L 574.138866 -614.917163 
L 575.193319 -616.835182 
L 576.003039 -618.753202 
L 576.60729 -620.671221 
L 577.045392 -622.58924 
L 578.817108 -622.58924 
L 578.817108 -622.58924 
L 579.25521 -620.671221 
L 579.859461 -618.753202 
L 580.669181 -616.835182 
L 581.723634 -614.917163 
L 583.058372 -612.999144 
L 584.70099 -611.081125 
L 586.666798 -609.163106 
L 588.954986 -607.245087 
L 591.545936 -605.327068 
L 594.400211 -603.409049 
L 597.459554 -601.49103 
L 600.649924 -599.573011 
L 603.886246 -597.654992 
L 607.078271 -595.736972 
L 610.136727 -593.818953 
L 612.978935 -591.900934 
L 615.533205 -589.982915 
L 617.7416 -588.064896 
L 619.561048 -586.146877 
L 620.963055 -584.228858 
L 621.932536 -582.310839 
L 622.466247 -580.39282 
L 622.57125 -578.474801 
L 622.263537 -576.556782 
L 621.566783 -574.638762 
L 620.511023 -572.720743 
L 619.131093 -570.802724 
L 617.464812 -568.884705 
L 615.551121 -566.966686 
L 613.428516 -565.048667 
L 611.134184 -563.130648 
L 608.704059 -561.212629 
L 606.173734 -559.29461 
L 603.579866 -557.376591 
L 600.961434 -555.458572 
L 598.360261 -553.540552 
L 595.820323 -551.622533 
L 593.385805 -549.704514 
L 591.0982 -547.786495 
L 588.993102 -545.868476 
L 587.097418 -543.950457 
L 585.427629 -542.032438 
L 583.989426 -540.114419 
L 582.778685 -538.1964 
L 581.78344 -536.278381 
L 580.986309 -534.360362 
L 580.366842 -532.442342 
L 579.90336 -530.524323 
L 579.574115 -528.606304 
L 579.357801 -526.688285 
L 579.233619 -524.770266 
L 579.181216 -522.852247 
L 579.180766 -520.934228 
L 579.213362 -519.016209 
L 579.261781 -517.09819 
L 579.31148 -515.180171 
L 579.351608 -513.262151 
L 579.375756 -511.344132 
L 579.382191 -509.426113 
L 579.373423 -507.508094 
L 579.35511 -505.590075 
L 579.334447 -503.672056 
L 579.31834 -501.754037 
L 579.31172 -499.836018 
L 579.316332 -497.917999 
L 579.330256 -495.99998 
L 579.348253 -494.081961 
L 579.362842 -492.163941 
L 579.365887 -490.245922 
L 579.350333 -488.327903 
L 579.31175 -486.409884 
L 579.249371 -484.491865 
L 579.166445 -482.573846 
L 579.069876 -480.655827 
L 578.969234 -478.737808 
L 578.875365 -476.819789 
L 578.798816 -474.90177 
L 578.748353 -472.983751 
L 578.72973 -471.065731 
L 578.744883 -469.147712 
L 578.791604 -467.229693 
L 578.863729 -465.311674 
L 578.951825 -463.393655 
L 579.044292 -461.475636 
L 579.128762 -459.557617 
L 579.19363 -457.639598 
L 579.229491 -455.721579 
L 579.230272 -453.80356 
L 579.193888 -451.885541 
L 579.122301 -449.967521 
L 579.021005 -448.049502 
L 578.898041 -446.131483 
L 578.762745 -444.213464 
L 578.624455 -442.295445 
L 578.491408 -440.377426 
L 578.369972 -438.459407 
L 578.264285 -436.541388 
L 578.176272 -434.623369 
L 578.105966 -432.70535 
z
" style="stroke: #3d3d3d; stroke-opacity: 0.5"/>
    </defs>
    <g clip-path="url(#ped34ee9d23)">
     <use xlink:href="#mdf441947ba" x="0" y="707.825675" style="fill: #845b53; fill-opacity: 0.5; stroke: #3d3d3d; stroke-opacity: 0.5"/>
    </g>
   </g>
   <g id="PolyCollection_6">
    <defs>
     <path id="mfe4d5fb732" d="M 690.130596 -212.582498 
L 688.931904 -212.582498 
L 688.757565 -217.257682 
L 688.545483 -221.932865 
L 688.291532 -226.608049 
L 687.992287 -231.283233 
L 687.645392 -235.958416 
L 687.249929 -240.6336 
L 686.806773 -245.308783 
L 686.318883 -249.983967 
L 685.791519 -254.659151 
L 685.232319 -259.334334 
L 684.651239 -264.009518 
L 684.060318 -268.684701 
L 683.473272 -273.359885 
L 682.904938 -278.035069 
L 682.370575 -282.710252 
L 681.885082 -287.385436 
L 681.462185 -292.060619 
L 681.113637 -296.735803 
L 680.84852 -301.410987 
L 680.672674 -306.08617 
L 680.588319 -310.761354 
L 680.593887 -315.436537 
L 680.684078 -320.111721 
L 680.850125 -324.786905 
L 681.080252 -329.462088 
L 681.360271 -334.137272 
L 681.674285 -338.812455 
L 682.005425 -343.487639 
L 682.336592 -348.162823 
L 682.651142 -352.838006 
L 682.933488 -357.51319 
L 683.169597 -362.188373 
L 683.347355 -366.863557 
L 683.456818 -371.538741 
L 683.490336 -376.213924 
L 683.442573 -380.889108 
L 683.310427 -385.564291 
L 683.09288 -390.239475 
L 682.790791 -394.914659 
L 682.406635 -399.589842 
L 681.94424 -404.265026 
L 681.408493 -408.940209 
L 680.805068 -413.615393 
L 680.140161 -418.290577 
L 679.420252 -422.96576 
L 678.651888 -427.640944 
L 677.841496 -432.316128 
L 676.99521 -436.991311 
L 676.118697 -441.666495 
L 675.216993 -446.341678 
L 674.294308 -451.016862 
L 673.35382 -455.692046 
L 672.397449 -460.367229 
L 671.425627 -465.042413 
L 670.437087 -469.717596 
L 669.428722 -474.39278 
L 668.395542 -479.067964 
L 667.330795 -483.743147 
L 666.226295 -488.418331 
L 665.072984 -493.093514 
L 663.861754 -497.768698 
L 662.584517 -502.443882 
L 661.235462 -507.119065 
L 659.812445 -511.794249 
L 658.318387 -516.469432 
L 656.762549 -521.144616 
L 655.161548 -525.8198 
L 653.539964 -530.494983 
L 651.930425 -535.170167 
L 650.37306 -539.84535 
L 648.9143 -544.520534 
L 647.605035 -549.195718 
L 646.498198 -553.870901 
L 645.645929 -558.546085 
L 645.096503 -563.221268 
L 644.89125 -567.896452 
L 645.061718 -572.571636 
L 645.627312 -577.246819 
L 646.593613 -581.922003 
L 647.951549 -586.597186 
L 649.677474 -591.27237 
L 651.734192 -595.947554 
L 654.072823 -600.622737 
L 656.635388 -605.297921 
L 659.357879 -609.973104 
L 662.1736 -614.648288 
L 665.016493 -619.323472 
L 667.824233 -623.998655 
L 670.540871 -628.673839 
L 673.118865 -633.349022 
L 675.520433 -638.024206 
L 677.718176 -642.69939 
L 679.695028 -647.374573 
L 681.443614 -652.049757 
L 682.965141 -656.72494 
L 684.267977 -661.400124 
L 685.366049 -666.075308 
L 686.277221 -670.750491 
L 687.021748 -675.425675 
L 692.040752 -675.425675 
L 692.040752 -675.425675 
L 692.785279 -670.750491 
L 693.696451 -666.075308 
L 694.794523 -661.400124 
L 696.097359 -656.72494 
L 697.618886 -652.049757 
L 699.367472 -647.374573 
L 701.344324 -642.69939 
L 703.542067 -638.024206 
L 705.943635 -633.349022 
L 708.521629 -628.673839 
L 711.238267 -623.998655 
L 714.046007 -619.323472 
L 716.8889 -614.648288 
L 719.704621 -609.973104 
L 722.427112 -605.297921 
L 724.989677 -600.622737 
L 727.328308 -595.947554 
L 729.385026 -591.27237 
L 731.110951 -586.597186 
L 732.468887 -581.922003 
L 733.435188 -577.246819 
L 734.000782 -572.571636 
L 734.17125 -567.896452 
L 733.965997 -563.221268 
L 733.416571 -558.546085 
L 732.564302 -553.870901 
L 731.457465 -549.195718 
L 730.1482 -544.520534 
L 728.68944 -539.84535 
L 727.132075 -535.170167 
L 725.522536 -530.494983 
L 723.900952 -525.8198 
L 722.299951 -521.144616 
L 720.744113 -516.469432 
L 719.250055 -511.794249 
L 717.827038 -507.119065 
L 716.477983 -502.443882 
L 715.200746 -497.768698 
L 713.989516 -493.093514 
L 712.836205 -488.418331 
L 711.731705 -483.743147 
L 710.666958 -479.067964 
L 709.633778 -474.39278 
L 708.625413 -469.717596 
L 707.636873 -465.042413 
L 706.665051 -460.367229 
L 705.70868 -455.692046 
L 704.768192 -451.016862 
L 703.845507 -446.341678 
L 702.943803 -441.666495 
L 702.06729 -436.991311 
L 701.221004 -432.316128 
L 700.410612 -427.640944 
L 699.642248 -422.96576 
L 698.922339 -418.290577 
L 698.257432 -413.615393 
L 697.654007 -408.940209 
L 697.11826 -404.265026 
L 696.655865 -399.589842 
L 696.271709 -394.914659 
L 695.96962 -390.239475 
L 695.752073 -385.564291 
L 695.619927 -380.889108 
L 695.572164 -376.213924 
L 695.605682 -371.538741 
L 695.715145 -366.863557 
L 695.892903 -362.188373 
L 696.129012 -357.51319 
L 696.411358 -352.838006 
L 696.725908 -348.162823 
L 697.057075 -343.487639 
L 697.388215 -338.812455 
L 697.702229 -334.137272 
L 697.982248 -329.462088 
L 698.212375 -324.786905 
L 698.378422 -320.111721 
L 698.468613 -315.436537 
L 698.474181 -310.761354 
L 698.389826 -306.08617 
L 698.21398 -301.410987 
L 697.948863 -296.735803 
L 697.600315 -292.060619 
L 697.177418 -287.385436 
L 696.691925 -282.710252 
L 696.157562 -278.035069 
L 695.589228 -273.359885 
L 695.002182 -268.684701 
L 694.411261 -264.009518 
L 693.830181 -259.334334 
L 693.270981 -254.659151 
L 692.743617 -249.983967 
L 692.255727 -245.308783 
L 691.812571 -240.6336 
L 691.417108 -235.958416 
L 691.070213 -231.283233 
L 690.770968 -226.608049 
L 690.517017 -221.932865 
L 690.304935 -217.257682 
L 690.130596 -212.582498 
z
" style="stroke: #3d3d3d; stroke-opacity: 0.5"/>
    </defs>
    <g clip-path="url(#ped34ee9d23)">
     <use xlink:href="#mfe4d5fb732" x="0" y="707.825675" style="fill: #e1812c; fill-opacity: 0.5; stroke: #3d3d3d; stroke-opacity: 0.5"/>
    </g>
   </g>
   <g id="PolyCollection_7">
    <defs>
     <path id="mcad877561b" d="M 801.293176 -476.242313 
L 800.969324 -476.242313 
L 800.90498 -477.715462 
L 800.824598 -479.188611 
L 800.728188 -480.661761 
L 800.617435 -482.13491 
L 800.495994 -483.608059 
L 800.369523 -485.081208 
L 800.245405 -486.554358 
L 800.132112 -488.027507 
L 800.038293 -489.500656 
L 799.97169 -490.973805 
L 799.938081 -492.446954 
L 799.940447 -493.920104 
L 799.978508 -495.393253 
L 800.048747 -496.866402 
L 800.144885 -498.339551 
L 800.258718 -499.8127 
L 800.381133 -501.28585 
L 800.503117 -502.758999 
L 800.61657 -504.232148 
L 800.714828 -505.705297 
L 800.792859 -507.178447 
L 800.847195 -508.651596 
L 800.875691 -510.124745 
L 800.877264 -511.597894 
L 800.85169 -513.071043 
L 800.799567 -514.544193 
L 800.722403 -516.017342 
L 800.622811 -517.490491 
L 800.504673 -518.96364 
L 800.373173 -520.436789 
L 800.2346 -521.909939 
L 800.095867 -523.383088 
L 799.963801 -524.856237 
L 799.844316 -526.329386 
L 799.741637 -527.802536 
L 799.65777 -529.275685 
L 799.592338 -530.748834 
L 799.542841 -532.221983 
L 799.505239 -533.695132 
L 799.474707 -535.168282 
L 799.446307 -536.641431 
L 799.415379 -538.11458 
L 799.377513 -539.587729 
L 799.328121 -541.060879 
L 799.261755 -542.534028 
L 799.171414 -544.007177 
L 799.048115 -545.480326 
L 798.880941 -546.953475 
L 798.657667 -548.426625 
L 798.3659 -549.899774 
L 797.994543 -551.372923 
L 797.535308 -552.846072 
L 796.983979 -554.319221 
L 796.341183 -555.792371 
L 795.612499 -557.26552 
L 794.807838 -558.738669 
L 793.940136 -560.211818 
L 793.023438 -561.684968 
L 792.070575 -563.158117 
L 791.090651 -564.631266 
L 790.086669 -566.104415 
L 789.053644 -567.577564 
L 787.977608 -569.050714 
L 786.83584 -570.523863 
L 785.598551 -571.997012 
L 784.23201 -573.470161 
L 782.702907 -574.94331 
L 780.983435 -576.41646 
L 779.056474 -577.889609 
L 776.920176 -579.362758 
L 774.591346 -580.835907 
L 772.10722 -582.309057 
L 769.525471 -583.782206 
L 766.922531 -585.255355 
L 764.390452 -586.728504 
L 762.032584 -588.201653 
L 759.958333 -589.674803 
L 758.277135 -591.147952 
L 757.091783 -592.621101 
L 756.49125 -594.09425 
L 756.543318 -595.5674 
L 757.287589 -597.040549 
L 758.729689 -598.513698 
L 760.837658 -599.986847 
L 763.541457 -601.459996 
L 766.736239 -602.933146 
L 770.289461 -604.406295 
L 774.051275 -605.879444 
L 777.866988 -607.352593 
L 781.589926 -608.825742 
L 785.09296 -610.298892 
L 788.277154 -611.772041 
L 791.076577 -613.24519 
L 793.458996 -614.718339 
L 795.422869 -616.191489 
L 796.991606 -617.664638 
L 798.206322 -619.137787 
L 799.118328 -620.610936 
L 799.782383 -622.084085 
L 802.480117 -622.084085 
L 802.480117 -622.084085 
L 803.144172 -620.610936 
L 804.056178 -619.137787 
L 805.270894 -617.664638 
L 806.839631 -616.191489 
L 808.803504 -614.718339 
L 811.185923 -613.24519 
L 813.985346 -611.772041 
L 817.16954 -610.298892 
L 820.672574 -608.825742 
L 824.395512 -607.352593 
L 828.211225 -605.879444 
L 831.973039 -604.406295 
L 835.526261 -602.933146 
L 838.721043 -601.459996 
L 841.424842 -599.986847 
L 843.532811 -598.513698 
L 844.974911 -597.040549 
L 845.719182 -595.5674 
L 845.77125 -594.09425 
L 845.170717 -592.621101 
L 843.985365 -591.147952 
L 842.304167 -589.674803 
L 840.229916 -588.201653 
L 837.872048 -586.728504 
L 835.339969 -585.255355 
L 832.737029 -583.782206 
L 830.15528 -582.309057 
L 827.671154 -580.835907 
L 825.342324 -579.362758 
L 823.206026 -577.889609 
L 821.279065 -576.41646 
L 819.559593 -574.94331 
L 818.03049 -573.470161 
L 816.663949 -571.997012 
L 815.42666 -570.523863 
L 814.284892 -569.050714 
L 813.208856 -567.577564 
L 812.175831 -566.104415 
L 811.171849 -564.631266 
L 810.191925 -563.158117 
L 809.239062 -561.684968 
L 808.322364 -560.211818 
L 807.454662 -558.738669 
L 806.650001 -557.26552 
L 805.921317 -555.792371 
L 805.278521 -554.319221 
L 804.727192 -552.846072 
L 804.267957 -551.372923 
L 803.8966 -549.899774 
L 803.604833 -548.426625 
L 803.381559 -546.953475 
L 803.214385 -545.480326 
L 803.091086 -544.007177 
L 803.000745 -542.534028 
L 802.934379 -541.060879 
L 802.884987 -539.587729 
L 802.847121 -538.11458 
L 802.816193 -536.641431 
L 802.787793 -535.168282 
L 802.757261 -533.695132 
L 802.719659 -532.221983 
L 802.670162 -530.748834 
L 802.60473 -529.275685 
L 802.520863 -527.802536 
L 802.418184 -526.329386 
L 802.298699 -524.856237 
L 802.166633 -523.383088 
L 802.0279 -521.909939 
L 801.889327 -520.436789 
L 801.757827 -518.96364 
L 801.639689 -517.490491 
L 801.540097 -516.017342 
L 801.462933 -514.544193 
L 801.41081 -513.071043 
L 801.385236 -511.597894 
L 801.386809 -510.124745 
L 801.415305 -508.651596 
L 801.469641 -507.178447 
L 801.547672 -505.705297 
L 801.64593 -504.232148 
L 801.759383 -502.758999 
L 801.881367 -501.28585 
L 802.003782 -499.8127 
L 802.117615 -498.339551 
L 802.213753 -496.866402 
L 802.283992 -495.393253 
L 802.322053 -493.920104 
L 802.324419 -492.446954 
L 802.29081 -490.973805 
L 802.224207 -489.500656 
L 802.130388 -488.027507 
L 802.017095 -486.554358 
L 801.892977 -485.081208 
L 801.766506 -483.608059 
L 801.645065 -482.13491 
L 801.534312 -480.661761 
L 801.437902 -479.188611 
L 801.35752 -477.715462 
L 801.293176 -476.242313 
z
" style="stroke: #3d3d3d; stroke-opacity: 0.5"/>
    </defs>
    <g clip-path="url(#ped34ee9d23)">
     <use xlink:href="#mcad877561b" x="0" y="707.825675" style="fill: #3a923a; fill-opacity: 0.5; stroke: #3d3d3d; stroke-opacity: 0.5"/>
    </g>
   </g>
   <g id="line2d_6">
    <path d="M 131.53125 301.196487 
L 131.53125 110.743042 
" clip-path="url(#ped34ee9d23)" style="fill: none; stroke: #3d3d3d; stroke-width: 1.5; stroke-linecap: round"/>
   </g>
   <g id="line2d_7">
    <path d="M 131.53125 209.682412 
L 131.53125 145.744697 
" clip-path="url(#ped34ee9d23)" style="fill: none; stroke: #3d3d3d; stroke-width: 4.5; stroke-linecap: round"/>
   </g>
   <g id="line2d_8">
    <path d="M 131.53125 176.154817 
" clip-path="url(#ped34ee9d23)" style="fill: none; stroke: #3d3d3d; stroke-width: 1.5; stroke-linecap: round"/>
    <defs>
     <path id="mc52aa53488" d="M 1.875 0 
L -1.875 -0 
" style="stroke: #ffffff; stroke-width: 0.9"/>
    </defs>
    <g clip-path="url(#ped34ee9d23)">
     <use xlink:href="#mc52aa53488" x="131.53125" y="176.154817" style="fill: #ffffff; stroke: #ffffff; stroke-width: 0.9"/>
    </g>
   </g>
   <g id="line2d_9">
    <path d="M 243.13125 145.763076 
L 243.13125 102.474714 
" clip-path="url(#ped34ee9d23)" style="fill: none; stroke: #3d3d3d; stroke-width: 1.5; stroke-linecap: round"/>
   </g>
   <g id="line2d_10">
    <path d="M 243.13125 126.479882 
L 243.13125 108.688801 
" clip-path="url(#ped34ee9d23)" style="fill: none; stroke: #3d3d3d; stroke-width: 4.5; stroke-linecap: round"/>
   </g>
   <g id="line2d_11">
    <path d="M 243.13125 118.195561 
" clip-path="url(#ped34ee9d23)" style="fill: none; stroke: #3d3d3d; stroke-width: 1.5; stroke-linecap: round"/>
    <g clip-path="url(#ped34ee9d23)">
     <use xlink:href="#mc52aa53488" x="243.13125" y="118.195561" style="fill: #ffffff; stroke: #ffffff; stroke-width: 0.9"/>
    </g>
   </g>
   <g id="line2d_12">
    <path d="M 354.73125 460.340973 
L 354.73125 268.302955 
" clip-path="url(#ped34ee9d23)" style="fill: none; stroke: #3d3d3d; stroke-width: 1.5; stroke-linecap: round"/>
   </g>
   <g id="line2d_13">
    <path d="M 354.73125 432.589203 
L 354.73125 356.50338 
" clip-path="url(#ped34ee9d23)" style="fill: none; stroke: #3d3d3d; stroke-width: 4.5; stroke-linecap: round"/>
   </g>
   <g id="line2d_14">
    <path d="M 354.73125 401.954277 
" clip-path="url(#ped34ee9d23)" style="fill: none; stroke: #3d3d3d; stroke-width: 1.5; stroke-linecap: round"/>
    <g clip-path="url(#ped34ee9d23)">
     <use xlink:href="#mc52aa53488" x="354.73125" y="401.954277" style="fill: #ffffff; stroke: #ffffff; stroke-width: 0.9"/>
    </g>
   </g>
   <g id="line2d_15">
    <path d="M 466.33125 169.622787 
L 466.33125 106.886585 
" clip-path="url(#ped34ee9d23)" style="fill: none; stroke: #3d3d3d; stroke-width: 1.5; stroke-linecap: round"/>
   </g>
   <g id="line2d_16">
    <path d="M 466.33125 139.683599 
L 466.33125 118.705812 
" clip-path="url(#ped34ee9d23)" style="fill: none; stroke: #3d3d3d; stroke-width: 4.5; stroke-linecap: round"/>
   </g>
   <g id="line2d_17">
    <path d="M 466.33125 125.668963 
" clip-path="url(#ped34ee9d23)" style="fill: none; stroke: #3d3d3d; stroke-width: 1.5; stroke-linecap: round"/>
    <g clip-path="url(#ped34ee9d23)">
     <use xlink:href="#mc52aa53488" x="466.33125" y="125.668963" style="fill: #ffffff; stroke: #ffffff; stroke-width: 0.9"/>
    </g>
   </g>
   <g id="line2d_18">
    <path d="M 577.93125 167.245698 
L 577.93125 106.920031 
" clip-path="url(#ped34ee9d23)" style="fill: none; stroke: #3d3d3d; stroke-width: 1.5; stroke-linecap: round"/>
   </g>
   <g id="line2d_19">
    <path d="M 577.93125 142.814061 
L 577.93125 119.750606 
" clip-path="url(#ped34ee9d23)" style="fill: none; stroke: #3d3d3d; stroke-width: 4.5; stroke-linecap: round"/>
   </g>
   <g id="line2d_20">
    <path d="M 577.93125 131.290491 
" clip-path="url(#ped34ee9d23)" style="fill: none; stroke: #3d3d3d; stroke-width: 1.5; stroke-linecap: round"/>
    <g clip-path="url(#ped34ee9d23)">
     <use xlink:href="#mc52aa53488" x="577.93125" y="131.290491" style="fill: #ffffff; stroke: #ffffff; stroke-width: 0.9"/>
    </g>
   </g>
   <g id="line2d_21">
    <path d="M 689.53125 344.21047 
L 689.53125 111.835616 
" clip-path="url(#ped34ee9d23)" style="fill: none; stroke: #3d3d3d; stroke-width: 1.5; stroke-linecap: round"/>
   </g>
   <g id="line2d_22">
    <path d="M 689.53125 225.316804 
L 689.53125 126.604895 
" clip-path="url(#ped34ee9d23)" style="fill: none; stroke: #3d3d3d; stroke-width: 4.5; stroke-linecap: round"/>
   </g>
   <g id="line2d_23">
    <path d="M 689.53125 155.401685 
" clip-path="url(#ped34ee9d23)" style="fill: none; stroke: #3d3d3d; stroke-width: 1.5; stroke-linecap: round"/>
    <g clip-path="url(#ped34ee9d23)">
     <use xlink:href="#mc52aa53488" x="689.53125" y="155.401685" style="fill: #ffffff; stroke: #ffffff; stroke-width: 0.9"/>
    </g>
   </g>
   <g id="line2d_24">
    <path d="M 801.13125 149.351433 
L 801.13125 102.582657 
" clip-path="url(#ped34ee9d23)" style="fill: none; stroke: #3d3d3d; stroke-width: 1.5; stroke-linecap: round"/>
   </g>
   <g id="line2d_25">
    <path d="M 801.13125 125.530509 
L 801.13125 108.750777 
" clip-path="url(#ped34ee9d23)" style="fill: none; stroke: #3d3d3d; stroke-width: 4.5; stroke-linecap: round"/>
   </g>
   <g id="line2d_26">
    <path d="M 801.13125 116.427894 
" clip-path="url(#ped34ee9d23)" style="fill: none; stroke: #3d3d3d; stroke-width: 1.5; stroke-linecap: round"/>
    <g clip-path="url(#ped34ee9d23)">
     <use xlink:href="#mc52aa53488" x="801.13125" y="116.427894" style="fill: #ffffff; stroke: #ffffff; stroke-width: 0.9"/>
    </g>
   </g>
   <g id="patch_3">
    <path d="M 75.73125 561.6 
L 856.93125 561.6 
" style="fill: none; stroke: #cccccc; stroke-width: 0.8; stroke-linejoin: miter; stroke-linecap: square"/>
   </g>
  </g>
 </g>
 <defs>
  <clipPath id="ped34ee9d23">
   <rect x="75.73125" y="7.2" width="781.2" height="554.4"/>
  </clipPath>
 </defs>
</svg>
