<?xml version="1.0" encoding="utf-8" standalone="no"?>
<!DOCTYPE svg PUBLIC "-//W3C//DTD SVG 1.1//EN"
  "http://www.w3.org/Graphics/SVG/1.1/DTD/svg11.dtd">
<svg xmlns:xlink="http://www.w3.org/1999/xlink" width="864.13125pt" height="707.825675pt" viewBox="0 0 864.13125 707.825675" xmlns="http://www.w3.org/2000/svg" version="1.1">
 <metadata>
  <rdf:RDF xmlns:dc="http://purl.org/dc/elements/1.1/" xmlns:cc="http://creativecommons.org/ns#" xmlns:rdf="http://www.w3.org/1999/02/22-rdf-syntax-ns#">
   <cc:Work>
    <dc:type rdf:resource="http://purl.org/dc/dcmitype/StillImage"/>
    <dc:date>2024-10-23T17:23:37.344172</dc:date>
    <dc:format>image/svg+xml</dc:format>
    <dc:creator>
     <cc:Agent>
      <dc:title>Matplotlib v3.8.0, https://matplotlib.org/</dc:title>
     </cc:Agent>
    </dc:creator>
   </cc:Work>
  </rdf:RDF>
 </metadata>
 <defs>
  <style type="text/css">*{stroke-linejoin: round; stroke-linecap: butt}</style>
 </defs>
 <g id="figure_1">
  <g id="patch_1">
   <path d="M 0 707.825675 
L 864.13125 707.825675 
L 864.13125 0 
L 0 0 
L 0 707.825675 
z
" style="fill: none"/>
  </g>
  <g id="axes_1">
   <g id="patch_2">
    <path d="M 75.73125 561.6 
L 856.93125 561.6 
L 856.93125 7.2 
L 75.73125 7.2 
L 75.73125 561.6 
z
" style="fill: none"/>
   </g>
   <g id="matplotlib.axis_1">
    <g id="xtick_1">
     <g id="text_1">
      <!-- MSA -->
      <g style="fill: #262626" transform="translate(111.157736 610.465141) rotate(-45) scale(0.2 -0.2)">
       <defs>
        <path id="DejaVuSans-4d" d="M 628 4666 
L 1569 4666 
L 2759 1491 
L 3956 4666 
L 4897 4666 
L 4897 0 
L 4281 0 
L 4281 4097 
L 3078 897 
L 2444 897 
L 1241 4097 
L 1241 0 
L 628 0 
L 628 4666 
z
" transform="scale(0.015625)"/>
        <path id="DejaVuSans-53" d="M 3425 4513 
L 3425 3897 
Q 3066 4069 2747 4153 
Q 2428 4238 2131 4238 
Q 1616 4238 1336 4038 
Q 1056 3838 1056 3469 
Q 1056 3159 1242 3001 
Q 1428 2844 1947 2747 
L 2328 2669 
Q 3034 2534 3370 2195 
Q 3706 1856 3706 1288 
Q 3706 609 3251 259 
Q 2797 -91 1919 -91 
Q 1588 -91 1214 -16 
Q 841 59 441 206 
L 441 856 
Q 825 641 1194 531 
Q 1563 422 1919 422 
Q 2459 422 2753 634 
Q 3047 847 3047 1241 
Q 3047 1584 2836 1778 
Q 2625 1972 2144 2069 
L 1759 2144 
Q 1053 2284 737 2584 
Q 422 2884 422 3419 
Q 422 4038 858 4394 
Q 1294 4750 2059 4750 
Q 2388 4750 2728 4690 
Q 3069 4631 3425 4513 
z
" transform="scale(0.015625)"/>
        <path id="DejaVuSans-41" d="M 2188 4044 
L 1331 1722 
L 3047 1722 
L 2188 4044 
z
M 1831 4666 
L 2547 4666 
L 4325 0 
L 3669 0 
L 3244 1197 
L 1141 1197 
L 716 0 
L 50 0 
L 1831 4666 
z
" transform="scale(0.015625)"/>
       </defs>
       <use xlink:href="#DejaVuSans-4d"/>
       <use xlink:href="#DejaVuSans-53" x="86.279297"/>
       <use xlink:href="#DejaVuSans-41" x="151.630859"/>
      </g>
     </g>
    </g>
    <g id="xtick_2">
     <g id="text_2">
      <!-- Template -->
      <g style="fill: #262626" transform="translate(189.34694 643.875936) rotate(-45) scale(0.2 -0.2)">
       <defs>
        <path id="DejaVuSans-54" d="M -19 4666 
L 3928 4666 
L 3928 4134 
L 2272 4134 
L 2272 0 
L 1638 0 
L 1638 4134 
L -19 4134 
L -19 4666 
z
" transform="scale(0.015625)"/>
        <path id="DejaVuSans-65" d="M 3597 1894 
L 3597 1613 
L 953 1613 
Q 991 1019 1311 708 
Q 1631 397 2203 397 
Q 2534 397 2845 478 
Q 3156 559 3463 722 
L 3463 178 
Q 3153 47 2828 -22 
Q 2503 -91 2169 -91 
Q 1331 -91 842 396 
Q 353 884 353 1716 
Q 353 2575 817 3079 
Q 1281 3584 2069 3584 
Q 2775 3584 3186 3129 
Q 3597 2675 3597 1894 
z
M 3022 2063 
Q 3016 2534 2758 2815 
Q 2500 3097 2075 3097 
Q 1594 3097 1305 2825 
Q 1016 2553 972 2059 
L 3022 2063 
z
" transform="scale(0.015625)"/>
        <path id="DejaVuSans-6d" d="M 3328 2828 
Q 3544 3216 3844 3400 
Q 4144 3584 4550 3584 
Q 5097 3584 5394 3201 
Q 5691 2819 5691 2113 
L 5691 0 
L 5113 0 
L 5113 2094 
Q 5113 2597 4934 2840 
Q 4756 3084 4391 3084 
Q 3944 3084 3684 2787 
Q 3425 2491 3425 1978 
L 3425 0 
L 2847 0 
L 2847 2094 
Q 2847 2600 2669 2842 
Q 2491 3084 2119 3084 
Q 1678 3084 1418 2786 
Q 1159 2488 1159 1978 
L 1159 0 
L 581 0 
L 581 3500 
L 1159 3500 
L 1159 2956 
Q 1356 3278 1631 3431 
Q 1906 3584 2284 3584 
Q 2666 3584 2933 3390 
Q 3200 3197 3328 2828 
z
" transform="scale(0.015625)"/>
        <path id="DejaVuSans-70" d="M 1159 525 
L 1159 -1331 
L 581 -1331 
L 581 3500 
L 1159 3500 
L 1159 2969 
Q 1341 3281 1617 3432 
Q 1894 3584 2278 3584 
Q 2916 3584 3314 3078 
Q 3713 2572 3713 1747 
Q 3713 922 3314 415 
Q 2916 -91 2278 -91 
Q 1894 -91 1617 61 
Q 1341 213 1159 525 
z
M 3116 1747 
Q 3116 2381 2855 2742 
Q 2594 3103 2138 3103 
Q 1681 3103 1420 2742 
Q 1159 2381 1159 1747 
Q 1159 1113 1420 752 
Q 1681 391 2138 391 
Q 2594 391 2855 752 
Q 3116 1113 3116 1747 
z
" transform="scale(0.015625)"/>
        <path id="DejaVuSans-6c" d="M 603 4863 
L 1178 4863 
L 1178 0 
L 603 0 
L 603 4863 
z
" transform="scale(0.015625)"/>
        <path id="DejaVuSans-61" d="M 2194 1759 
Q 1497 1759 1228 1600 
Q 959 1441 959 1056 
Q 959 750 1161 570 
Q 1363 391 1709 391 
Q 2188 391 2477 730 
Q 2766 1069 2766 1631 
L 2766 1759 
L 2194 1759 
z
M 3341 1997 
L 3341 0 
L 2766 0 
L 2766 531 
Q 2569 213 2275 61 
Q 1981 -91 1556 -91 
Q 1019 -91 701 211 
Q 384 513 384 1019 
Q 384 1609 779 1909 
Q 1175 2209 1959 2209 
L 2766 2209 
L 2766 2266 
Q 2766 2663 2505 2880 
Q 2244 3097 1772 3097 
Q 1472 3097 1187 3025 
Q 903 2953 641 2809 
L 641 3341 
Q 956 3463 1253 3523 
Q 1550 3584 1831 3584 
Q 2591 3584 2966 3190 
Q 3341 2797 3341 1997 
z
" transform="scale(0.015625)"/>
        <path id="DejaVuSans-74" d="M 1172 4494 
L 1172 3500 
L 2356 3500 
L 2356 3053 
L 1172 3053 
L 1172 1153 
Q 1172 725 1289 603 
Q 1406 481 1766 481 
L 2356 481 
L 2356 0 
L 1766 0 
Q 1100 0 847 248 
Q 594 497 594 1153 
L 594 3053 
L 172 3053 
L 172 3500 
L 594 3500 
L 594 4494 
L 1172 4494 
z
" transform="scale(0.015625)"/>
       </defs>
       <use xlink:href="#DejaVuSans-54"/>
       <use xlink:href="#DejaVuSans-65" x="44.083984"/>
       <use xlink:href="#DejaVuSans-6d" x="105.607422"/>
       <use xlink:href="#DejaVuSans-70" x="203.019531"/>
       <use xlink:href="#DejaVuSans-6c" x="266.496094"/>
       <use xlink:href="#DejaVuSans-61" x="294.279297"/>
       <use xlink:href="#DejaVuSans-74" x="355.558594"/>
       <use xlink:href="#DejaVuSans-65" x="394.767578"/>
      </g>
     </g>
    </g>
    <g id="xtick_3">
     <g id="text_3">
      <!-- Backbone -->
      <g style="fill: #262626" transform="translate(295.846933 648.975944) rotate(-45) scale(0.2 -0.2)">
       <defs>
        <path id="DejaVuSans-42" d="M 1259 2228 
L 1259 519 
L 2272 519 
Q 2781 519 3026 730 
Q 3272 941 3272 1375 
Q 3272 1813 3026 2020 
Q 2781 2228 2272 2228 
L 1259 2228 
z
M 1259 4147 
L 1259 2741 
L 2194 2741 
Q 2656 2741 2882 2914 
Q 3109 3088 3109 3444 
Q 3109 3797 2882 3972 
Q 2656 4147 2194 4147 
L 1259 4147 
z
M 628 4666 
L 2241 4666 
Q 2963 4666 3353 4366 
Q 3744 4066 3744 3513 
Q 3744 3084 3544 2831 
Q 3344 2578 2956 2516 
Q 3422 2416 3680 2098 
Q 3938 1781 3938 1306 
Q 3938 681 3513 340 
Q 3088 0 2303 0 
L 628 0 
L 628 4666 
z
" transform="scale(0.015625)"/>
        <path id="DejaVuSans-63" d="M 3122 3366 
L 3122 2828 
Q 2878 2963 2633 3030 
Q 2388 3097 2138 3097 
Q 1578 3097 1268 2742 
Q 959 2388 959 1747 
Q 959 1106 1268 751 
Q 1578 397 2138 397 
Q 2388 397 2633 464 
Q 2878 531 3122 666 
L 3122 134 
Q 2881 22 2623 -34 
Q 2366 -91 2075 -91 
Q 1284 -91 818 406 
Q 353 903 353 1747 
Q 353 2603 823 3093 
Q 1294 3584 2113 3584 
Q 2378 3584 2631 3529 
Q 2884 3475 3122 3366 
z
" transform="scale(0.015625)"/>
        <path id="DejaVuSans-6b" d="M 581 4863 
L 1159 4863 
L 1159 1991 
L 2875 3500 
L 3609 3500 
L 1753 1863 
L 3688 0 
L 2938 0 
L 1159 1709 
L 1159 0 
L 581 0 
L 581 4863 
z
" transform="scale(0.015625)"/>
        <path id="DejaVuSans-62" d="M 3116 1747 
Q 3116 2381 2855 2742 
Q 2594 3103 2138 3103 
Q 1681 3103 1420 2742 
Q 1159 2381 1159 1747 
Q 1159 1113 1420 752 
Q 1681 391 2138 391 
Q 2594 391 2855 752 
Q 3116 1113 3116 1747 
z
M 1159 2969 
Q 1341 3281 1617 3432 
Q 1894 3584 2278 3584 
Q 2916 3584 3314 3078 
Q 3713 2572 3713 1747 
Q 3713 922 3314 415 
Q 2916 -91 2278 -91 
Q 1894 -91 1617 61 
Q 1341 213 1159 525 
L 1159 0 
L 581 0 
L 581 4863 
L 1159 4863 
L 1159 2969 
z
" transform="scale(0.015625)"/>
        <path id="DejaVuSans-6f" d="M 1959 3097 
Q 1497 3097 1228 2736 
Q 959 2375 959 1747 
Q 959 1119 1226 758 
Q 1494 397 1959 397 
Q 2419 397 2687 759 
Q 2956 1122 2956 1747 
Q 2956 2369 2687 2733 
Q 2419 3097 1959 3097 
z
M 1959 3584 
Q 2709 3584 3137 3096 
Q 3566 2609 3566 1747 
Q 3566 888 3137 398 
Q 2709 -91 1959 -91 
Q 1206 -91 779 398 
Q 353 888 353 1747 
Q 353 2609 779 3096 
Q 1206 3584 1959 3584 
z
" transform="scale(0.015625)"/>
        <path id="DejaVuSans-6e" d="M 3513 2113 
L 3513 0 
L 2938 0 
L 2938 2094 
Q 2938 2591 2744 2837 
Q 2550 3084 2163 3084 
Q 1697 3084 1428 2787 
Q 1159 2491 1159 1978 
L 1159 0 
L 581 0 
L 581 3500 
L 1159 3500 
L 1159 2956 
Q 1366 3272 1645 3428 
Q 1925 3584 2291 3584 
Q 2894 3584 3203 3211 
Q 3513 2838 3513 2113 
z
" transform="scale(0.015625)"/>
       </defs>
       <use xlink:href="#DejaVuSans-42"/>
       <use xlink:href="#DejaVuSans-61" x="68.603516"/>
       <use xlink:href="#DejaVuSans-63" x="129.882812"/>
       <use xlink:href="#DejaVuSans-6b" x="184.863281"/>
       <use xlink:href="#DejaVuSans-62" x="242.773438"/>
       <use xlink:href="#DejaVuSans-6f" x="306.25"/>
       <use xlink:href="#DejaVuSans-6e" x="367.431641"/>
       <use xlink:href="#DejaVuSans-65" x="430.810547"/>
      </g>
     </g>
    </g>
    <g id="xtick_4">
     <g id="text_4">
      <!-- Heuristic C-$\beta$ -->
      <g style="fill: #262626" transform="translate(386.00392 670.706219) rotate(-45) scale(0.2 -0.2)">
       <defs>
        <path id="DejaVuSans-48" d="M 628 4666 
L 1259 4666 
L 1259 2753 
L 3553 2753 
L 3553 4666 
L 4184 4666 
L 4184 0 
L 3553 0 
L 3553 2222 
L 1259 2222 
L 1259 0 
L 628 0 
L 628 4666 
z
" transform="scale(0.015625)"/>
        <path id="DejaVuSans-75" d="M 544 1381 
L 544 3500 
L 1119 3500 
L 1119 1403 
Q 1119 906 1312 657 
Q 1506 409 1894 409 
Q 2359 409 2629 706 
Q 2900 1003 2900 1516 
L 2900 3500 
L 3475 3500 
L 3475 0 
L 2900 0 
L 2900 538 
Q 2691 219 2414 64 
Q 2138 -91 1772 -91 
Q 1169 -91 856 284 
Q 544 659 544 1381 
z
M 1991 3584 
L 1991 3584 
z
" transform="scale(0.015625)"/>
        <path id="DejaVuSans-72" d="M 2631 2963 
Q 2534 3019 2420 3045 
Q 2306 3072 2169 3072 
Q 1681 3072 1420 2755 
Q 1159 2438 1159 1844 
L 1159 0 
L 581 0 
L 581 3500 
L 1159 3500 
L 1159 2956 
Q 1341 3275 1631 3429 
Q 1922 3584 2338 3584 
Q 2397 3584 2469 3576 
Q 2541 3569 2628 3553 
L 2631 2963 
z
" transform="scale(0.015625)"/>
        <path id="DejaVuSans-69" d="M 603 3500 
L 1178 3500 
L 1178 0 
L 603 0 
L 603 3500 
z
M 603 4863 
L 1178 4863 
L 1178 4134 
L 603 4134 
L 603 4863 
z
" transform="scale(0.015625)"/>
        <path id="DejaVuSans-73" d="M 2834 3397 
L 2834 2853 
Q 2591 2978 2328 3040 
Q 2066 3103 1784 3103 
Q 1356 3103 1142 2972 
Q 928 2841 928 2578 
Q 928 2378 1081 2264 
Q 1234 2150 1697 2047 
L 1894 2003 
Q 2506 1872 2764 1633 
Q 3022 1394 3022 966 
Q 3022 478 2636 193 
Q 2250 -91 1575 -91 
Q 1294 -91 989 -36 
Q 684 19 347 128 
L 347 722 
Q 666 556 975 473 
Q 1284 391 1588 391 
Q 1994 391 2212 530 
Q 2431 669 2431 922 
Q 2431 1156 2273 1281 
Q 2116 1406 1581 1522 
L 1381 1569 
Q 847 1681 609 1914 
Q 372 2147 372 2553 
Q 372 3047 722 3315 
Q 1072 3584 1716 3584 
Q 2034 3584 2315 3537 
Q 2597 3491 2834 3397 
z
" transform="scale(0.015625)"/>
        <path id="DejaVuSans-20" transform="scale(0.015625)"/>
        <path id="DejaVuSans-43" d="M 4122 4306 
L 4122 3641 
Q 3803 3938 3442 4084 
Q 3081 4231 2675 4231 
Q 1875 4231 1450 3742 
Q 1025 3253 1025 2328 
Q 1025 1406 1450 917 
Q 1875 428 2675 428 
Q 3081 428 3442 575 
Q 3803 722 4122 1019 
L 4122 359 
Q 3791 134 3420 21 
Q 3050 -91 2638 -91 
Q 1578 -91 968 557 
Q 359 1206 359 2328 
Q 359 3453 968 4101 
Q 1578 4750 2638 4750 
Q 3056 4750 3426 4639 
Q 3797 4528 4122 4306 
z
" transform="scale(0.015625)"/>
        <path id="DejaVuSans-2d" d="M 313 2009 
L 1997 2009 
L 1997 1497 
L 313 1497 
L 313 2009 
z
" transform="scale(0.015625)"/>
        <path id="DejaVuSans-Oblique-3b2" d="M 872 216 
L 572 -1331 
L -6 -1331 
L 928 3478 
Q 1206 4903 2538 4903 
Q 3888 4903 3659 3700 
Q 3503 2844 2894 2531 
Q 3713 2250 3553 1416 
Q 3272 -69 1759 -66 
Q 1097 -63 872 216 
z
M 1019 966 
Q 1259 422 1875 425 
Q 2775 425 2966 1406 
Q 3138 2288 1675 2219 
L 1778 2750 
Q 2909 2731 3106 3750 
Q 3241 4438 2509 4434 
Q 1691 4434 1503 3459 
L 1019 966 
z
" transform="scale(0.015625)"/>
       </defs>
       <use xlink:href="#DejaVuSans-48" transform="translate(0 0.390625)"/>
       <use xlink:href="#DejaVuSans-65" transform="translate(75.195312 0.390625)"/>
       <use xlink:href="#DejaVuSans-75" transform="translate(136.71875 0.390625)"/>
       <use xlink:href="#DejaVuSans-72" transform="translate(200.097656 0.390625)"/>
       <use xlink:href="#DejaVuSans-69" transform="translate(241.210938 0.390625)"/>
       <use xlink:href="#DejaVuSans-73" transform="translate(268.994141 0.390625)"/>
       <use xlink:href="#DejaVuSans-74" transform="translate(321.09375 0.390625)"/>
       <use xlink:href="#DejaVuSans-69" transform="translate(360.302734 0.390625)"/>
       <use xlink:href="#DejaVuSans-63" transform="translate(388.085938 0.390625)"/>
       <use xlink:href="#DejaVuSans-20" transform="translate(443.066406 0.390625)"/>
       <use xlink:href="#DejaVuSans-43" transform="translate(474.853516 0.390625)"/>
       <use xlink:href="#DejaVuSans-2d" transform="translate(544.677734 0.390625)"/>
       <use xlink:href="#DejaVuSans-Oblique-3b2" transform="translate(580.761719 0.390625)"/>
      </g>
     </g>
    </g>
    <g id="xtick_5">
     <g id="text_5">
      <!-- Template C-$\beta$ -->
      <g style="fill: #262626" transform="translate(493.361279 674.94886) rotate(-45) scale(0.2 -0.2)">
       <use xlink:href="#DejaVuSans-54" transform="translate(0 0.390625)"/>
       <use xlink:href="#DejaVuSans-65" transform="translate(61.083984 0.390625)"/>
       <use xlink:href="#DejaVuSans-6d" transform="translate(122.607422 0.390625)"/>
       <use xlink:href="#DejaVuSans-70" transform="translate(220.019531 0.390625)"/>
       <use xlink:href="#DejaVuSans-6c" transform="translate(283.496094 0.390625)"/>
       <use xlink:href="#DejaVuSans-61" transform="translate(311.279297 0.390625)"/>
       <use xlink:href="#DejaVuSans-74" transform="translate(372.558594 0.390625)"/>
       <use xlink:href="#DejaVuSans-65" transform="translate(411.767578 0.390625)"/>
       <use xlink:href="#DejaVuSans-20" transform="translate(473.291016 0.390625)"/>
       <use xlink:href="#DejaVuSans-43" transform="translate(505.078125 0.390625)"/>
       <use xlink:href="#DejaVuSans-2d" transform="translate(574.902344 0.390625)"/>
       <use xlink:href="#DejaVuSans-Oblique-3b2" transform="translate(610.986328 0.390625)"/>
      </g>
     </g>
    </g>
    <g id="xtick_6">
     <g id="text_6">
      <!-- AttnPacker -->
      <g style="fill: #262626" transform="translate(624.274133 655.348744) rotate(-45) scale(0.2 -0.2)">
       <defs>
        <path id="DejaVuSans-50" d="M 1259 4147 
L 1259 2394 
L 2053 2394 
Q 2494 2394 2734 2622 
Q 2975 2850 2975 3272 
Q 2975 3691 2734 3919 
Q 2494 4147 2053 4147 
L 1259 4147 
z
M 628 4666 
L 2053 4666 
Q 2838 4666 3239 4311 
Q 3641 3956 3641 3272 
Q 3641 2581 3239 2228 
Q 2838 1875 2053 1875 
L 1259 1875 
L 1259 0 
L 628 0 
L 628 4666 
z
" transform="scale(0.015625)"/>
       </defs>
       <use xlink:href="#DejaVuSans-41"/>
       <use xlink:href="#DejaVuSans-74" x="66.658203"/>
       <use xlink:href="#DejaVuSans-74" x="105.867188"/>
       <use xlink:href="#DejaVuSans-6e" x="145.076172"/>
       <use xlink:href="#DejaVuSans-50" x="208.455078"/>
       <use xlink:href="#DejaVuSans-61" x="264.257812"/>
       <use xlink:href="#DejaVuSans-63" x="325.537109"/>
       <use xlink:href="#DejaVuSans-6b" x="380.517578"/>
       <use xlink:href="#DejaVuSans-65" x="434.802734"/>
       <use xlink:href="#DejaVuSans-72" x="496.326172"/>
      </g>
     </g>
    </g>
    <g id="xtick_7">
     <g id="text_7">
      <!-- AttnPacker (AF2) -->
      <g style="fill: #262626" transform="translate(693.538324 697.684553) rotate(-45) scale(0.2 -0.2)">
       <defs>
        <path id="DejaVuSans-28" d="M 1984 4856 
Q 1566 4138 1362 3434 
Q 1159 2731 1159 2009 
Q 1159 1288 1364 580 
Q 1569 -128 1984 -844 
L 1484 -844 
Q 1016 -109 783 600 
Q 550 1309 550 2009 
Q 550 2706 781 3412 
Q 1013 4119 1484 4856 
L 1984 4856 
z
" transform="scale(0.015625)"/>
        <path id="DejaVuSans-46" d="M 628 4666 
L 3309 4666 
L 3309 4134 
L 1259 4134 
L 1259 2759 
L 3109 2759 
L 3109 2228 
L 1259 2228 
L 1259 0 
L 628 0 
L 628 4666 
z
" transform="scale(0.015625)"/>
        <path id="DejaVuSans-32" d="M 1228 531 
L 3431 531 
L 3431 0 
L 469 0 
L 469 531 
Q 828 903 1448 1529 
Q 2069 2156 2228 2338 
Q 2531 2678 2651 2914 
Q 2772 3150 2772 3378 
Q 2772 3750 2511 3984 
Q 2250 4219 1831 4219 
Q 1534 4219 1204 4116 
Q 875 4013 500 3803 
L 500 4441 
Q 881 4594 1212 4672 
Q 1544 4750 1819 4750 
Q 2544 4750 2975 4387 
Q 3406 4025 3406 3419 
Q 3406 3131 3298 2873 
Q 3191 2616 2906 2266 
Q 2828 2175 2409 1742 
Q 1991 1309 1228 531 
z
" transform="scale(0.015625)"/>
        <path id="DejaVuSans-29" d="M 513 4856 
L 1013 4856 
Q 1481 4119 1714 3412 
Q 1947 2706 1947 2009 
Q 1947 1309 1714 600 
Q 1481 -109 1013 -844 
L 513 -844 
Q 928 -128 1133 580 
Q 1338 1288 1338 2009 
Q 1338 2731 1133 3434 
Q 928 4138 513 4856 
z
" transform="scale(0.015625)"/>
       </defs>
       <use xlink:href="#DejaVuSans-41"/>
       <use xlink:href="#DejaVuSans-74" x="66.658203"/>
       <use xlink:href="#DejaVuSans-74" x="105.867188"/>
       <use xlink:href="#DejaVuSans-6e" x="145.076172"/>
       <use xlink:href="#DejaVuSans-50" x="208.455078"/>
       <use xlink:href="#DejaVuSans-61" x="264.257812"/>
       <use xlink:href="#DejaVuSans-63" x="325.537109"/>
       <use xlink:href="#DejaVuSans-6b" x="380.517578"/>
       <use xlink:href="#DejaVuSans-65" x="434.802734"/>
       <use xlink:href="#DejaVuSans-72" x="496.326172"/>
       <use xlink:href="#DejaVuSans-20" x="537.439453"/>
       <use xlink:href="#DejaVuSans-28" x="569.226562"/>
       <use xlink:href="#DejaVuSans-41" x="608.240234"/>
       <use xlink:href="#DejaVuSans-46" x="676.648438"/>
       <use xlink:href="#DejaVuSans-32" x="734.167969"/>
       <use xlink:href="#DejaVuSans-29" x="797.791016"/>
      </g>
     </g>
    </g>
   </g>
   <g id="matplotlib.axis_2">
    <g id="ytick_1">
     <g id="line2d_1">
      <path d="M 75.73125 548.811415 
L 856.93125 548.811415 
" clip-path="url(#pe6fae6efec)" style="fill: none; stroke: #cccccc; stroke-width: 0.8; stroke-linecap: round"/>
     </g>
     <g id="text_8">
      <!-- 20 -->
      <g style="fill: #262626" transform="translate(43.28125 556.409853) scale(0.2 -0.2)">
       <defs>
        <path id="DejaVuSans-30" d="M 2034 4250 
Q 1547 4250 1301 3770 
Q 1056 3291 1056 2328 
Q 1056 1369 1301 889 
Q 1547 409 2034 409 
Q 2525 409 2770 889 
Q 3016 1369 3016 2328 
Q 3016 3291 2770 3770 
Q 2525 4250 2034 4250 
z
M 2034 4750 
Q 2819 4750 3233 4129 
Q 3647 3509 3647 2328 
Q 3647 1150 3233 529 
Q 2819 -91 2034 -91 
Q 1250 -91 836 529 
Q 422 1150 422 2328 
Q 422 3509 836 4129 
Q 1250 4750 2034 4750 
z
" transform="scale(0.015625)"/>
       </defs>
       <use xlink:href="#DejaVuSans-32"/>
       <use xlink:href="#DejaVuSans-30" x="63.623047"/>
      </g>
     </g>
    </g>
    <g id="ytick_2">
     <g id="line2d_2">
      <path d="M 75.73125 433.378165 
L 856.93125 433.378165 
" clip-path="url(#pe6fae6efec)" style="fill: none; stroke: #cccccc; stroke-width: 0.8; stroke-linecap: round"/>
     </g>
     <g id="text_9">
      <!-- 40 -->
      <g style="fill: #262626" transform="translate(43.28125 440.976602) scale(0.2 -0.2)">
       <defs>
        <path id="DejaVuSans-34" d="M 2419 4116 
L 825 1625 
L 2419 1625 
L 2419 4116 
z
M 2253 4666 
L 3047 4666 
L 3047 1625 
L 3713 1625 
L 3713 1100 
L 3047 1100 
L 3047 0 
L 2419 0 
L 2419 1100 
L 313 1100 
L 313 1709 
L 2253 4666 
z
" transform="scale(0.015625)"/>
       </defs>
       <use xlink:href="#DejaVuSans-34"/>
       <use xlink:href="#DejaVuSans-30" x="63.623047"/>
      </g>
     </g>
    </g>
    <g id="ytick_3">
     <g id="line2d_3">
      <path d="M 75.73125 317.944914 
L 856.93125 317.944914 
" clip-path="url(#pe6fae6efec)" style="fill: none; stroke: #cccccc; stroke-width: 0.8; stroke-linecap: round"/>
     </g>
     <g id="text_10">
      <!-- 60 -->
      <g style="fill: #262626" transform="translate(43.28125 325.543351) scale(0.2 -0.2)">
       <defs>
        <path id="DejaVuSans-36" d="M 2113 2584 
Q 1688 2584 1439 2293 
Q 1191 2003 1191 1497 
Q 1191 994 1439 701 
Q 1688 409 2113 409 
Q 2538 409 2786 701 
Q 3034 994 3034 1497 
Q 3034 2003 2786 2293 
Q 2538 2584 2113 2584 
z
M 3366 4563 
L 3366 3988 
Q 3128 4100 2886 4159 
Q 2644 4219 2406 4219 
Q 1781 4219 1451 3797 
Q 1122 3375 1075 2522 
Q 1259 2794 1537 2939 
Q 1816 3084 2150 3084 
Q 2853 3084 3261 2657 
Q 3669 2231 3669 1497 
Q 3669 778 3244 343 
Q 2819 -91 2113 -91 
Q 1303 -91 875 529 
Q 447 1150 447 2328 
Q 447 3434 972 4092 
Q 1497 4750 2381 4750 
Q 2619 4750 2861 4703 
Q 3103 4656 3366 4563 
z
" transform="scale(0.015625)"/>
       </defs>
       <use xlink:href="#DejaVuSans-36"/>
       <use xlink:href="#DejaVuSans-30" x="63.623047"/>
      </g>
     </g>
    </g>
    <g id="ytick_4">
     <g id="line2d_4">
      <path d="M 75.73125 202.511663 
L 856.93125 202.511663 
" clip-path="url(#pe6fae6efec)" style="fill: none; stroke: #cccccc; stroke-width: 0.8; stroke-linecap: round"/>
     </g>
     <g id="text_11">
      <!-- 80 -->
      <g style="fill: #262626" transform="translate(43.28125 210.110101) scale(0.2 -0.2)">
       <defs>
        <path id="DejaVuSans-38" d="M 2034 2216 
Q 1584 2216 1326 1975 
Q 1069 1734 1069 1313 
Q 1069 891 1326 650 
Q 1584 409 2034 409 
Q 2484 409 2743 651 
Q 3003 894 3003 1313 
Q 3003 1734 2745 1975 
Q 2488 2216 2034 2216 
z
M 1403 2484 
Q 997 2584 770 2862 
Q 544 3141 544 3541 
Q 544 4100 942 4425 
Q 1341 4750 2034 4750 
Q 2731 4750 3128 4425 
Q 3525 4100 3525 3541 
Q 3525 3141 3298 2862 
Q 3072 2584 2669 2484 
Q 3125 2378 3379 2068 
Q 3634 1759 3634 1313 
Q 3634 634 3220 271 
Q 2806 -91 2034 -91 
Q 1263 -91 848 271 
Q 434 634 434 1313 
Q 434 1759 690 2068 
Q 947 2378 1403 2484 
z
M 1172 3481 
Q 1172 3119 1398 2916 
Q 1625 2713 2034 2713 
Q 2441 2713 2670 2916 
Q 2900 3119 2900 3481 
Q 2900 3844 2670 4047 
Q 2441 4250 2034 4250 
Q 1625 4250 1398 4047 
Q 1172 3844 1172 3481 
z
" transform="scale(0.015625)"/>
       </defs>
       <use xlink:href="#DejaVuSans-38"/>
       <use xlink:href="#DejaVuSans-30" x="63.623047"/>
      </g>
     </g>
    </g>
    <g id="ytick_5">
     <g id="line2d_5">
      <path d="M 75.73125 87.078413 
L 856.93125 87.078413 
" clip-path="url(#pe6fae6efec)" style="fill: none; stroke: #cccccc; stroke-width: 0.8; stroke-linecap: round"/>
     </g>
     <g id="text_12">
      <!-- 100 -->
      <g style="fill: #262626" transform="translate(30.55625 94.67685) scale(0.2 -0.2)">
       <defs>
        <path id="DejaVuSans-31" d="M 794 531 
L 1825 531 
L 1825 4091 
L 703 3866 
L 703 4441 
L 1819 4666 
L 2450 4666 
L 2450 531 
L 3481 531 
L 3481 0 
L 794 0 
L 794 531 
z
" transform="scale(0.015625)"/>
       </defs>
       <use xlink:href="#DejaVuSans-31"/>
       <use xlink:href="#DejaVuSans-30" x="63.623047"/>
       <use xlink:href="#DejaVuSans-30" x="127.246094"/>
      </g>
     </g>
    </g>
    <g id="text_13">
     <!-- pLDDT % -->
     <g style="fill: #262626" transform="translate(22.396875 330.507813) rotate(-90) scale(0.2 -0.2)">
      <defs>
       <path id="DejaVuSans-4c" d="M 628 4666 
L 1259 4666 
L 1259 531 
L 3531 531 
L 3531 0 
L 628 0 
L 628 4666 
z
" transform="scale(0.015625)"/>
       <path id="DejaVuSans-44" d="M 1259 4147 
L 1259 519 
L 2022 519 
Q 2988 519 3436 956 
Q 3884 1394 3884 2338 
Q 3884 3275 3436 3711 
Q 2988 4147 2022 4147 
L 1259 4147 
z
M 628 4666 
L 1925 4666 
Q 3281 4666 3915 4102 
Q 4550 3538 4550 2338 
Q 4550 1131 3912 565 
Q 3275 0 1925 0 
L 628 0 
L 628 4666 
z
" transform="scale(0.015625)"/>
       <path id="DejaVuSans-25" d="M 4653 2053 
Q 4381 2053 4226 1822 
Q 4072 1591 4072 1178 
Q 4072 772 4226 539 
Q 4381 306 4653 306 
Q 4919 306 5073 539 
Q 5228 772 5228 1178 
Q 5228 1588 5073 1820 
Q 4919 2053 4653 2053 
z
M 4653 2450 
Q 5147 2450 5437 2106 
Q 5728 1763 5728 1178 
Q 5728 594 5436 251 
Q 5144 -91 4653 -91 
Q 4153 -91 3862 251 
Q 3572 594 3572 1178 
Q 3572 1766 3864 2108 
Q 4156 2450 4653 2450 
z
M 1428 4353 
Q 1159 4353 1004 4120 
Q 850 3888 850 3481 
Q 850 3069 1003 2837 
Q 1156 2606 1428 2606 
Q 1700 2606 1854 2837 
Q 2009 3069 2009 3481 
Q 2009 3884 1853 4118 
Q 1697 4353 1428 4353 
z
M 4250 4750 
L 4750 4750 
L 1831 -91 
L 1331 -91 
L 4250 4750 
z
M 1428 4750 
Q 1922 4750 2215 4408 
Q 2509 4066 2509 3481 
Q 2509 2891 2217 2550 
Q 1925 2209 1428 2209 
Q 931 2209 642 2551 
Q 353 2894 353 3481 
Q 353 4063 643 4406 
Q 934 4750 1428 4750 
z
" transform="scale(0.015625)"/>
      </defs>
      <use xlink:href="#DejaVuSans-70"/>
      <use xlink:href="#DejaVuSans-4c" x="63.476562"/>
      <use xlink:href="#DejaVuSans-44" x="119.189453"/>
      <use xlink:href="#DejaVuSans-44" x="196.191406"/>
      <use xlink:href="#DejaVuSans-54" x="273.193359"/>
      <use xlink:href="#DejaVuSans-20" x="334.277344"/>
      <use xlink:href="#DejaVuSans-25" x="366.064453"/>
     </g>
    </g>
   </g>
   <g id="PolyCollection_1">
    <defs>
     <path id="mda6ed47ad9" d="M 131.65723 -171.425675 
L 131.40527 -171.425675 
L 131.347631 -176.260702 
L 131.273856 -181.09573 
L 131.184199 -185.930757 
L 131.081071 -190.765785 
L 130.96929 -195.600812 
L 130.855851 -200.43584 
L 130.749126 -205.270867 
L 130.657554 -210.105895 
L 130.588063 -214.940923 
L 130.544564 -219.77595 
L 130.526956 -224.610978 
L 130.530958 -229.446005 
L 130.548901 -234.281033 
L 130.571381 -239.11606 
L 130.589395 -243.951088 
L 130.596446 -248.786115 
L 130.590093 -253.621143 
L 130.572533 -258.45617 
L 130.550078 -263.291198 
L 130.531647 -268.126225 
L 130.526678 -272.961253 
L 130.542982 -277.79628 
L 130.585051 -282.631308 
L 130.653214 -287.466335 
L 130.743756 -292.301363 
L 130.849876 -297.13639 
L 130.963174 -301.971418 
L 131.075238 -306.806445 
L 131.178974 -311.641473 
L 131.269436 -316.4765 
L 131.344087 -321.311528 
L 131.402569 -326.146555 
L 131.446166 -330.981583 
L 131.477146 -335.81661 
L 131.498154 -340.651638 
L 131.511752 -345.486665 
L 131.520133 -350.321693 
L 131.524993 -355.156721 
L 131.527512 -359.991748 
L 131.528389 -364.826776 
L 131.527881 -369.661803 
L 131.525816 -374.496831 
L 131.521569 -379.331858 
L 131.51399 -384.166886 
L 131.50131 -389.001913 
L 131.481056 -393.836941 
L 131.450001 -398.671968 
L 131.4042 -403.506996 
L 131.339124 -408.342023 
L 131.249887 -413.177051 
L 131.131512 -418.012078 
L 130.979146 -422.847106 
L 130.788122 -427.682133 
L 130.55379 -432.517161 
L 130.271091 -437.352188 
L 129.93396 -442.187216 
L 129.534714 -447.022243 
L 129.063603 -451.857271 
L 128.508668 -456.692298 
L 127.855953 -461.527326 
L 127.089969 -466.362353 
L 126.194284 -471.197381 
L 125.152097 -476.032408 
L 123.946807 -480.867436 
L 122.562753 -485.702463 
L 120.98635 -490.537491 
L 119.207818 -495.372518 
L 117.223435 -500.207546 
L 115.03791 -505.042574 
L 112.666204 -509.877601 
L 110.134153 -514.712629 
L 107.477554 -519.547656 
L 104.740016 -524.382684 
L 101.970544 -529.217711 
L 99.222162 -534.052739 
L 96.552724 -538.887766 
L 94.028171 -543.722794 
L 91.727284 -548.557821 
L 89.745683 -553.392849 
L 88.196262 -558.227876 
L 87.203585 -563.062904 
L 86.89125 -567.897931 
L 87.363441 -572.732959 
L 88.684091 -577.567986 
L 90.85855 -582.403014 
L 93.822723 -587.238041 
L 97.443228 -592.073069 
L 101.529511 -596.908096 
L 105.855942 -601.743124 
L 110.189452 -606.578151 
L 114.317155 -611.413179 
L 118.068697 -616.248206 
L 121.329755 -621.083234 
L 124.045441 -625.918261 
L 126.214669 -630.753289 
L 127.878216 -635.588316 
L 129.103887 -640.423344 
L 129.97196 -645.258371 
L 130.5632 -650.093399 
L 132.4993 -650.093399 
L 132.4993 -650.093399 
L 133.09054 -645.258371 
L 133.958613 -640.423344 
L 135.184284 -635.588316 
L 136.847831 -630.753289 
L 139.017059 -625.918261 
L 141.732745 -621.083234 
L 144.993803 -616.248206 
L 148.745345 -611.413179 
L 152.873048 -606.578151 
L 157.206558 -601.743124 
L 161.532989 -596.908096 
L 165.619272 -592.073069 
L 169.239777 -587.238041 
L 172.20395 -582.403014 
L 174.378409 -577.567986 
L 175.699059 -572.732959 
L 176.17125 -567.897931 
L 175.858915 -563.062904 
L 174.866238 -558.227876 
L 173.316817 -553.392849 
L 171.335216 -548.557821 
L 169.034329 -543.722794 
L 166.509776 -538.887766 
L 163.840338 -534.052739 
L 161.091956 -529.217711 
L 158.322484 -524.382684 
L 155.584946 -519.547656 
L 152.928347 -514.712629 
L 150.396296 -509.877601 
L 148.02459 -505.042574 
L 145.839065 -500.207546 
L 143.854682 -495.372518 
L 142.07615 -490.537491 
L 140.499747 -485.702463 
L 139.115693 -480.867436 
L 137.910403 -476.032408 
L 136.868216 -471.197381 
L 135.972531 -466.362353 
L 135.206547 -461.527326 
L 134.553832 -456.692298 
L 133.998897 -451.857271 
L 133.527786 -447.022243 
L 133.12854 -442.187216 
L 132.791409 -437.352188 
L 132.50871 -432.517161 
L 132.274378 -427.682133 
L 132.083354 -422.847106 
L 131.930988 -418.012078 
L 131.812613 -413.177051 
L 131.723376 -408.342023 
L 131.6583 -403.506996 
L 131.612499 -398.671968 
L 131.581444 -393.836941 
L 131.56119 -389.001913 
L 131.54851 -384.166886 
L 131.540931 -379.331858 
L 131.536684 -374.496831 
L 131.534619 -369.661803 
L 131.534111 -364.826776 
L 131.534988 -359.991748 
L 131.537507 -355.156721 
L 131.542367 -350.321693 
L 131.550748 -345.486665 
L 131.564346 -340.651638 
L 131.585354 -335.81661 
L 131.616334 -330.981583 
L 131.659931 -326.146555 
L 131.718413 -321.311528 
L 131.793064 -316.4765 
L 131.883526 -311.641473 
L 131.987262 -306.806445 
L 132.099326 -301.971418 
L 132.212624 -297.13639 
L 132.318744 -292.301363 
L 132.409286 -287.466335 
L 132.477449 -282.631308 
L 132.519518 -277.79628 
L 132.535822 -272.961253 
L 132.530853 -268.126225 
L 132.512422 -263.291198 
L 132.489967 -258.45617 
L 132.472407 -253.621143 
L 132.466054 -248.786115 
L 132.473105 -243.951088 
L 132.491119 -239.11606 
L 132.513599 -234.281033 
L 132.531542 -229.446005 
L 132.535544 -224.610978 
L 132.517936 -219.77595 
L 132.474437 -214.940923 
L 132.404946 -210.105895 
L 132.313374 -205.270867 
L 132.206649 -200.43584 
L 132.09321 -195.600812 
L 131.981429 -190.765785 
L 131.878301 -185.930757 
L 131.788644 -181.09573 
L 131.714869 -176.260702 
L 131.65723 -171.425675 
z
" style="stroke: #3d3d3d; stroke-opacity: 0.5"/>
    </defs>
    <g clip-path="url(#pe6fae6efec)">
     <use xlink:href="#mda6ed47ad9" x="0" y="707.825675" style="fill: #3274a1; fill-opacity: 0.5; stroke: #3d3d3d; stroke-opacity: 0.5"/>
    </g>
   </g>
   <g id="PolyCollection_2">
    <defs>
     <path id="mbb6f5c5a5a" d="M 243.416845 -534.801031 
L 242.845655 -534.801031 
L 242.743925 -535.697065 
L 242.616737 -536.5931 
L 242.461653 -537.489134 
L 242.277287 -538.385169 
L 242.06367 -539.281203 
L 241.822557 -540.177238 
L 241.5576 -541.073272 
L 241.274376 -541.969307 
L 240.980224 -542.865341 
L 240.683897 -543.761376 
L 240.395069 -544.65741 
L 240.123728 -545.553445 
L 239.879531 -546.449479 
L 239.671173 -547.345514 
L 239.505841 -548.241548 
L 239.388773 -549.137583 
L 239.322962 -550.033617 
L 239.308995 -550.929652 
L 239.345018 -551.825686 
L 239.426831 -552.721721 
L 239.54808 -553.617755 
L 239.700557 -554.51379 
L 239.874596 -555.409824 
L 240.059544 -556.305859 
L 240.244307 -557.201893 
L 240.417918 -558.097928 
L 240.570075 -558.993962 
L 240.691614 -559.889997 
L 240.774842 -560.786031 
L 240.813709 -561.682066 
L 240.803814 -562.5781 
L 240.742251 -563.474135 
L 240.627371 -564.370169 
L 240.458499 -565.266203 
L 240.235693 -566.162238 
L 239.95958 -567.058272 
L 239.631281 -567.954307 
L 239.252415 -568.850341 
L 238.825114 -569.746376 
L 238.351986 -570.64241 
L 237.835952 -571.538445 
L 237.27992 -572.434479 
L 236.686297 -573.330514 
L 236.056396 -574.226548 
L 235.389834 -575.122583 
L 234.684067 -576.018617 
L 233.934164 -576.914652 
L 233.132943 -577.810686 
L 232.271479 -578.706721 
L 231.339981 -579.602755 
L 230.328906 -580.49879 
L 229.230166 -581.394824 
L 228.038259 -582.290859 
L 226.751129 -583.186893 
L 225.370664 -584.082928 
L 223.902748 -584.978962 
L 222.3569 -585.874997 
L 220.745565 -586.771031 
L 219.083206 -587.667066 
L 217.385321 -588.5631 
L 215.667566 -589.459135 
L 213.945086 -590.355169 
L 212.232153 -591.251204 
L 210.542168 -592.147238 
L 208.888024 -593.043273 
L 207.282806 -593.939307 
L 205.740739 -594.835342 
L 204.278297 -595.731376 
L 202.915303 -596.627411 
L 201.675855 -597.523445 
L 200.588882 -598.41948 
L 199.688121 -599.315514 
L 199.011378 -600.211548 
L 198.598955 -601.107583 
L 198.49125 -602.003617 
L 198.725659 -602.899652 
L 199.333029 -603.795686 
L 200.334013 -604.691721 
L 201.735784 -605.587755 
L 203.529522 -606.48379 
L 205.689106 -607.379824 
L 208.171236 -608.275859 
L 210.917129 -609.171893 
L 213.855653 -610.067928 
L 216.907635 -610.963962 
L 219.990885 -611.859997 
L 223.025417 -612.756031 
L 225.938317 -613.652066 
L 228.667774 -614.5481 
L 231.165929 -615.444135 
L 233.400352 -616.340169 
L 235.354129 -617.236204 
L 237.024732 -618.132238 
L 238.421924 -619.028273 
L 239.565058 -619.924307 
L 240.480128 -620.820342 
L 241.19688 -621.716376 
L 241.746262 -622.612411 
L 242.158352 -623.508445 
L 244.104148 -623.508445 
L 244.104148 -623.508445 
L 244.516238 -622.612411 
L 245.06562 -621.716376 
L 245.782372 -620.820342 
L 246.697442 -619.924307 
L 247.840576 -619.028273 
L 249.237768 -618.132238 
L 250.908371 -617.236204 
L 252.862148 -616.340169 
L 255.096571 -615.444135 
L 257.594726 -614.5481 
L 260.324183 -613.652066 
L 263.237083 -612.756031 
L 266.271615 -611.859997 
L 269.354865 -610.963962 
L 272.406847 -610.067928 
L 275.345371 -609.171893 
L 278.091264 -608.275859 
L 280.573394 -607.379824 
L 282.732978 -606.48379 
L 284.526716 -605.587755 
L 285.928487 -604.691721 
L 286.929471 -603.795686 
L 287.536841 -602.899652 
L 287.77125 -602.003617 
L 287.663545 -601.107583 
L 287.251122 -600.211548 
L 286.574379 -599.315514 
L 285.673618 -598.41948 
L 284.586645 -597.523445 
L 283.347197 -596.627411 
L 281.984203 -595.731376 
L 280.521761 -594.835342 
L 278.979694 -593.939307 
L 277.374476 -593.043273 
L 275.720332 -592.147238 
L 274.030347 -591.251204 
L 272.317414 -590.355169 
L 270.594934 -589.459135 
L 268.877179 -588.5631 
L 267.179294 -587.667066 
L 265.516935 -586.771031 
L 263.9056 -585.874997 
L 262.359752 -584.978962 
L 260.891836 -584.082928 
L 259.511371 -583.186893 
L 258.224241 -582.290859 
L 257.032334 -581.394824 
L 255.933594 -580.49879 
L 254.922519 -579.602755 
L 253.991021 -578.706721 
L 253.129557 -577.810686 
L 252.328336 -576.914652 
L 251.578433 -576.018617 
L 250.872666 -575.122583 
L 250.206104 -574.226548 
L 249.576203 -573.330514 
L 248.98258 -572.434479 
L 248.426548 -571.538445 
L 247.910514 -570.64241 
L 247.437386 -569.746376 
L 247.010085 -568.850341 
L 246.631219 -567.954307 
L 246.30292 -567.058272 
L 246.026807 -566.162238 
L 245.804001 -565.266203 
L 245.635129 -564.370169 
L 245.520249 -563.474135 
L 245.458686 -562.5781 
L 245.448791 -561.682066 
L 245.487658 -560.786031 
L 245.570886 -559.889997 
L 245.692425 -558.993962 
L 245.844582 -558.097928 
L 246.018193 -557.201893 
L 246.202956 -556.305859 
L 246.387904 -555.409824 
L 246.561943 -554.51379 
L 246.71442 -553.617755 
L 246.835669 -552.721721 
L 246.917482 -551.825686 
L 246.953505 -550.929652 
L 246.939538 -550.033617 
L 246.873727 -549.137583 
L 246.756659 -548.241548 
L 246.591327 -547.345514 
L 246.382969 -546.449479 
L 246.138772 -545.553445 
L 245.867431 -544.65741 
L 245.578603 -543.761376 
L 245.282276 -542.865341 
L 244.988124 -541.969307 
L 244.7049 -541.073272 
L 244.439943 -540.177238 
L 244.19883 -539.281203 
L 243.985213 -538.385169 
L 243.800847 -537.489134 
L 243.645763 -536.5931 
L 243.518575 -535.697065 
L 243.416845 -534.801031 
z
" style="stroke: #3d3d3d; stroke-opacity: 0.5"/>
    </defs>
    <g clip-path="url(#pe6fae6efec)">
     <use xlink:href="#mbb6f5c5a5a" x="0" y="707.825675" style="fill: #d684bd; fill-opacity: 0.5; stroke: #3d3d3d; stroke-opacity: 0.5"/>
    </g>
   </g>
   <g id="PolyCollection_3">
    <defs>
     <path id="m99336d8f06" d="M 355.525224 -177.92111 
L 353.937276 -177.92111 
L 353.595509 -182.476099 
L 353.135215 -187.031088 
L 352.527567 -191.586077 
L 351.741372 -196.141066 
L 350.744588 -200.696055 
L 349.506419 -205.251044 
L 347.999956 -209.806033 
L 346.205198 -214.361022 
L 344.112253 -218.91601 
L 341.724368 -223.470999 
L 339.060453 -228.025988 
L 336.156681 -232.580977 
L 333.066846 -237.135966 
L 329.861222 -241.690955 
L 326.623828 -246.245944 
L 323.448206 -250.800933 
L 320.431974 -255.355922 
L 317.670633 -259.910911 
L 315.25119 -264.4659 
L 313.246242 -269.020889 
L 311.709096 -273.575877 
L 310.670437 -278.130866 
L 310.136842 -282.685855 
L 310.09125 -287.240844 
L 310.49529 -291.795833 
L 311.29316 -296.350822 
L 312.416616 -300.905811 
L 313.790547 -305.4608 
L 315.338583 -310.015789 
L 316.988219 -314.570778 
L 318.675057 -319.125767 
L 320.345858 -323.680756 
L 321.960282 -328.235744 
L 323.491318 -332.790733 
L 324.924535 -337.345722 
L 326.256424 -341.900711 
L 327.492098 -346.4557 
L 328.642704 -351.010689 
L 329.722826 -355.565678 
L 330.748126 -360.120667 
L 331.733403 -364.675656 
L 332.69116 -369.230645 
L 333.630706 -373.785634 
L 334.557767 -378.340623 
L 335.474536 -382.895612 
L 336.380082 -387.4506 
L 337.271007 -392.005589 
L 338.142273 -396.560578 
L 338.988083 -401.115567 
L 339.802738 -405.670556 
L 340.581386 -410.225545 
L 341.32059 -414.780534 
L 342.018689 -419.335523 
L 342.675902 -423.890512 
L 343.294216 -428.445501 
L 343.87706 -433.00049 
L 344.428849 -437.555479 
L 344.954431 -442.110467 
L 345.45853 -446.665456 
L 345.94523 -451.220445 
L 346.41755 -455.775434 
L 346.877152 -460.330423 
L 347.324193 -464.885412 
L 347.757344 -469.440401 
L 348.173965 -473.99539 
L 348.570432 -478.550379 
L 348.942588 -483.105368 
L 349.286283 -487.660357 
L 349.597952 -492.215346 
L 349.87516 -496.770334 
L 350.117053 -501.325323 
L 350.324649 -505.880312 
L 350.500918 -510.435301 
L 350.650641 -514.99029 
L 350.780047 -519.545279 
L 350.896297 -524.100268 
L 351.006857 -528.655257 
L 351.118864 -533.210246 
L 351.238556 -537.765235 
L 351.370833 -542.320224 
L 351.518972 -546.875213 
L 351.684535 -551.430202 
L 351.867418 -555.98519 
L 352.066033 -560.540179 
L 352.277578 -565.095168 
L 352.498345 -569.650157 
L 352.724044 -574.205146 
L 352.950118 -578.760135 
L 353.172036 -583.315124 
L 353.385546 -587.870113 
L 353.586897 -592.425102 
L 353.773009 -596.980091 
L 353.941594 -601.53508 
L 354.091215 -606.090069 
L 354.221288 -610.645057 
L 354.332022 -615.200046 
L 354.424314 -619.755035 
L 354.4996 -624.310024 
L 354.559694 -628.865013 
L 354.902806 -628.865013 
L 354.902806 -628.865013 
L 354.9629 -624.310024 
L 355.038186 -619.755035 
L 355.130478 -615.200046 
L 355.241212 -610.645057 
L 355.371285 -606.090069 
L 355.520906 -601.53508 
L 355.689491 -596.980091 
L 355.875603 -592.425102 
L 356.076954 -587.870113 
L 356.290464 -583.315124 
L 356.512382 -578.760135 
L 356.738456 -574.205146 
L 356.964155 -569.650157 
L 357.184922 -565.095168 
L 357.396467 -560.540179 
L 357.595082 -555.98519 
L 357.777965 -551.430202 
L 357.943528 -546.875213 
L 358.091667 -542.320224 
L 358.223944 -537.765235 
L 358.343636 -533.210246 
L 358.455643 -528.655257 
L 358.566203 -524.100268 
L 358.682453 -519.545279 
L 358.811859 -514.99029 
L 358.961582 -510.435301 
L 359.137851 -505.880312 
L 359.345447 -501.325323 
L 359.58734 -496.770334 
L 359.864548 -492.215346 
L 360.176217 -487.660357 
L 360.519912 -483.105368 
L 360.892068 -478.550379 
L 361.288535 -473.99539 
L 361.705156 -469.440401 
L 362.138307 -464.885412 
L 362.585348 -460.330423 
L 363.04495 -455.775434 
L 363.51727 -451.220445 
L 364.00397 -446.665456 
L 364.508069 -442.110467 
L 365.033651 -437.555479 
L 365.58544 -433.00049 
L 366.168284 -428.445501 
L 366.786598 -423.890512 
L 367.443811 -419.335523 
L 368.14191 -414.780534 
L 368.881114 -410.225545 
L 369.659762 -405.670556 
L 370.474417 -401.115567 
L 371.320227 -396.560578 
L 372.191493 -392.005589 
L 373.082418 -387.4506 
L 373.987964 -382.895612 
L 374.904733 -378.340623 
L 375.831794 -373.785634 
L 376.77134 -369.230645 
L 377.729097 -364.675656 
L 378.714374 -360.120667 
L 379.739674 -355.565678 
L 380.819796 -351.010689 
L 381.970402 -346.4557 
L 383.206076 -341.900711 
L 384.537965 -337.345722 
L 385.971182 -332.790733 
L 387.502218 -328.235744 
L 389.116642 -323.680756 
L 390.787443 -319.125767 
L 392.474281 -314.570778 
L 394.123917 -310.015789 
L 395.671953 -305.4608 
L 397.045884 -300.905811 
L 398.16934 -296.350822 
L 398.96721 -291.795833 
L 399.37125 -287.240844 
L 399.325658 -282.685855 
L 398.792063 -278.130866 
L 397.753404 -273.575877 
L 396.216258 -269.020889 
L 394.21131 -264.4659 
L 391.791867 -259.910911 
L 389.030526 -255.355922 
L 386.014294 -250.800933 
L 382.838672 -246.245944 
L 379.601278 -241.690955 
L 376.395654 -237.135966 
L 373.305819 -232.580977 
L 370.402047 -228.025988 
L 367.738132 -223.470999 
L 365.350247 -218.91601 
L 363.257302 -214.361022 
L 361.462544 -209.806033 
L 359.956081 -205.251044 
L 358.717912 -200.696055 
L 357.721128 -196.141066 
L 356.934933 -191.586077 
L 356.327285 -187.031088 
L 355.866991 -182.476099 
L 355.525224 -177.92111 
z
" style="stroke: #3d3d3d; stroke-opacity: 0.5"/>
    </defs>
    <g clip-path="url(#pe6fae6efec)">
     <use xlink:href="#m99336d8f06" x="0" y="707.825675" style="fill: #c03d3e; fill-opacity: 0.5; stroke: #3d3d3d; stroke-opacity: 0.5"/>
    </g>
   </g>
   <g id="PolyCollection_4">
    <defs>
     <path id="m2d548ef4c9" d="M 466.47386 -494.223077 
L 466.18864 -494.223077 
L 466.130365 -495.518987 
L 466.057234 -496.814898 
L 465.969311 -498.110808 
L 465.868308 -499.406719 
L 465.75786 -500.70263 
L 465.643535 -501.99854 
L 465.532509 -503.294451 
L 465.432887 -504.590361 
L 465.352747 -505.886272 
L 465.299038 -507.182183 
L 465.276542 -508.478093 
L 465.287089 -509.774004 
L 465.329185 -511.069914 
L 465.398132 -512.365825 
L 465.486588 -513.661736 
L 465.585462 -514.957646 
L 465.684957 -516.253557 
L 465.77558 -517.549468 
L 465.848979 -518.845378 
L 465.898544 -520.141289 
L 465.919753 -521.437199 
L 465.910306 -522.73311 
L 465.870103 -524.029021 
L 465.801076 -525.324931 
L 465.706882 -526.620842 
L 465.592412 -527.916752 
L 465.463106 -529.212663 
L 465.324079 -530.508574 
L 465.17917 -531.804484 
L 465.0301 -533.100395 
L 464.875943 -534.396305 
L 464.713149 -535.692216 
L 464.536232 -536.988127 
L 464.33908 -538.284037 
L 464.116675 -539.579948 
L 463.866829 -540.875858 
L 463.591486 -542.171769 
L 463.297174 -543.46768 
L 462.994365 -544.76359 
L 462.695771 -546.059501 
L 462.413871 -547.355411 
L 462.158207 -548.651322 
L 461.933049 -549.947233 
L 461.735997 -551.243143 
L 461.557858 -552.539054 
L 461.383837 -553.834964 
L 461.195787 -555.130875 
L 460.975003 -556.426786 
L 460.70494 -557.722696 
L 460.373291 -559.018607 
L 459.97298 -560.314518 
L 459.50192 -561.610428 
L 458.961609 -562.906339 
L 458.354894 -564.202249 
L 457.683367 -565.49816 
L 456.944895 -566.794071 
L 456.131749 -568.089981 
L 455.229668 -569.385892 
L 454.218052 -570.681802 
L 453.071311 -571.977713 
L 451.761298 -573.273624 
L 450.26066 -574.569534 
L 448.546851 -575.865445 
L 446.606504 -577.161355 
L 444.439716 -578.457266 
L 442.063723 -579.753177 
L 439.515334 -581.049087 
L 436.851506 -582.344998 
L 434.147597 -583.640908 
L 431.49318 -584.936819 
L 428.98575 -586.23273 
L 426.723146 -587.52864 
L 424.795868 -588.824551 
L 423.280546 -590.120461 
L 422.235582 -591.416372 
L 421.699421 -592.712283 
L 421.69125 -594.008193 
L 422.213291 -595.304104 
L 423.253569 -596.600014 
L 424.788062 -597.895925 
L 426.781615 -599.191836 
L 429.187606 -600.487746 
L 431.946977 -601.783657 
L 434.987627 -603.079568 
L 438.225155 -604.375478 
L 441.565623 -605.671389 
L 444.910414 -606.967299 
L 448.162662 -608.26321 
L 451.234254 -609.559121 
L 454.05223 -610.855031 
L 456.563527 -612.150942 
L 458.737354 -613.446852 
L 460.56501 -614.742763 
L 462.057399 -616.038674 
L 463.240886 -617.334584 
L 464.152294 -618.630495 
L 464.83385 -619.926405 
L 465.328726 -621.222316 
L 465.677596 -622.518227 
L 466.984904 -622.518227 
L 466.984904 -622.518227 
L 467.333774 -621.222316 
L 467.82865 -619.926405 
L 468.510206 -618.630495 
L 469.421614 -617.334584 
L 470.605101 -616.038674 
L 472.09749 -614.742763 
L 473.925146 -613.446852 
L 476.098973 -612.150942 
L 478.61027 -610.855031 
L 481.428246 -609.559121 
L 484.499838 -608.26321 
L 487.752086 -606.967299 
L 491.096877 -605.671389 
L 494.437345 -604.375478 
L 497.674873 -603.079568 
L 500.715523 -601.783657 
L 503.474894 -600.487746 
L 505.880885 -599.191836 
L 507.874438 -597.895925 
L 509.408931 -596.600014 
L 510.449209 -595.304104 
L 510.97125 -594.008193 
L 510.963079 -592.712283 
L 510.426918 -591.416372 
L 509.381954 -590.120461 
L 507.866632 -588.824551 
L 505.939354 -587.52864 
L 503.67675 -586.23273 
L 501.16932 -584.936819 
L 498.514903 -583.640908 
L 495.810994 -582.344998 
L 493.147166 -581.049087 
L 490.598777 -579.753177 
L 488.222784 -578.457266 
L 486.055996 -577.161355 
L 484.115649 -575.865445 
L 482.40184 -574.569534 
L 480.901202 -573.273624 
L 479.591189 -571.977713 
L 478.444448 -570.681802 
L 477.432832 -569.385892 
L 476.530751 -568.089981 
L 475.717605 -566.794071 
L 474.979133 -565.49816 
L 474.307606 -564.202249 
L 473.700891 -562.906339 
L 473.16058 -561.610428 
L 472.68952 -560.314518 
L 472.289209 -559.018607 
L 471.95756 -557.722696 
L 471.687497 -556.426786 
L 471.466713 -555.130875 
L 471.278663 -553.834964 
L 471.104642 -552.539054 
L 470.926503 -551.243143 
L 470.729451 -549.947233 
L 470.504293 -548.651322 
L 470.248629 -547.355411 
L 469.966729 -546.059501 
L 469.668135 -544.76359 
L 469.365326 -543.46768 
L 469.071014 -542.171769 
L 468.795671 -540.875858 
L 468.545825 -539.579948 
L 468.32342 -538.284037 
L 468.126268 -536.988127 
L 467.949351 -535.692216 
L 467.786557 -534.396305 
L 467.6324 -533.100395 
L 467.48333 -531.804484 
L 467.338421 -530.508574 
L 467.199394 -529.212663 
L 467.070088 -527.916752 
L 466.955618 -526.620842 
L 466.861424 -525.324931 
L 466.792397 -524.029021 
L 466.752194 -522.73311 
L 466.742747 -521.437199 
L 466.763956 -520.141289 
L 466.813521 -518.845378 
L 466.88692 -517.549468 
L 466.977543 -516.253557 
L 467.077038 -514.957646 
L 467.175912 -513.661736 
L 467.264368 -512.365825 
L 467.333315 -511.069914 
L 467.375411 -509.774004 
L 467.385958 -508.478093 
L 467.363462 -507.182183 
L 467.309753 -505.886272 
L 467.229613 -504.590361 
L 467.129991 -503.294451 
L 467.018965 -501.99854 
L 466.90464 -500.70263 
L 466.794192 -499.406719 
L 466.693189 -498.110808 
L 466.605266 -496.814898 
L 466.532135 -495.518987 
L 466.47386 -494.223077 
z
" style="stroke: #3d3d3d; stroke-opacity: 0.5"/>
    </defs>
    <g clip-path="url(#pe6fae6efec)">
     <use xlink:href="#m2d548ef4c9" x="0" y="707.825675" style="fill: #9372b2; fill-opacity: 0.5; stroke: #3d3d3d; stroke-opacity: 0.5"/>
    </g>
   </g>
   <g id="PolyCollection_5">
    <defs>
     <path id="m27adb894d1" d="M 578.085286 -496.736408 
L 577.777214 -496.736408 
L 577.720222 -498.011931 
L 577.649723 -499.287453 
L 577.565475 -500.562975 
L 577.468341 -501.838498 
L 577.360464 -503.11402 
L 577.245285 -504.389543 
L 577.12734 -505.665065 
L 577.011828 -506.940587 
L 576.90397 -508.21611 
L 576.808228 -509.491632 
L 576.727497 -510.767155 
L 576.66243 -512.042677 
L 576.611007 -513.318199 
L 576.568483 -514.593722 
L 576.527752 -515.869244 
L 576.480112 -517.144767 
L 576.416346 -518.420289 
L 576.32796 -519.695811 
L 576.2084 -520.971334 
L 576.054066 -522.246856 
L 575.86498 -523.522379 
L 575.645006 -524.797901 
L 575.401606 -526.073424 
L 575.145173 -527.348946 
L 574.888032 -528.624468 
L 574.643242 -529.899991 
L 574.423334 -531.175513 
L 574.239099 -532.451036 
L 574.098542 -533.726558 
L 574.006061 -535.00208 
L 573.961894 -536.277603 
L 573.961864 -537.553125 
L 573.997422 -538.828648 
L 574.055993 -540.10417 
L 574.121592 -541.379692 
L 574.175684 -542.655215 
L 574.19822 -543.930737 
L 574.168776 -545.20626 
L 574.067696 -546.481782 
L 573.877151 -547.757304 
L 573.582057 -549.032827 
L 573.170814 -550.308349 
L 572.635879 -551.583872 
L 571.974199 -552.859394 
L 571.187555 -554.134916 
L 570.282813 -555.410439 
L 569.272039 -556.685961 
L 568.172364 -557.961484 
L 567.005413 -559.237006 
L 565.796142 -560.512529 
L 564.570937 -561.788051 
L 563.354968 -563.063573 
L 562.169006 -564.339096 
L 561.026049 -565.614618 
L 559.928336 -566.890141 
L 558.865391 -568.165663 
L 557.813681 -569.441185 
L 556.738316 -570.716708 
L 555.59689 -571.99223 
L 554.345166 -573.267753 
L 552.943936 -574.543275 
L 551.366081 -575.818797 
L 549.602721 -577.09432 
L 547.667417 -578.369842 
L 545.597647 -579.645365 
L 543.453225 -580.920887 
L 541.311812 -582.196409 
L 539.26216 -583.471932 
L 537.396077 -584.747454 
L 535.800304 -586.022977 
L 534.549419 -587.298499 
L 533.700672 -588.574021 
L 533.29125 -589.849544 
L 533.338015 -591.125066 
L 533.839338 -592.400589 
L 534.778315 -593.676111 
L 536.126514 -594.951634 
L 537.847439 -596.227156 
L 539.899124 -597.502678 
L 542.235606 -598.778201 
L 544.807373 -600.053723 
L 547.561211 -601.329246 
L 550.440006 -602.604768 
L 553.383076 -603.88029 
L 556.327408 -605.155813 
L 559.209911 -606.431335 
L 561.970504 -607.706858 
L 564.555569 -608.98238 
L 566.921231 -610.257902 
L 569.035874 -611.533425 
L 570.881522 -612.808947 
L 572.453868 -614.08447 
L 573.761033 -615.359992 
L 574.821324 -616.635514 
L 575.660373 -617.911037 
L 576.308103 -619.186559 
L 576.7959 -620.462082 
L 577.154267 -621.737604 
L 577.411113 -623.013126 
L 578.451387 -623.013126 
L 578.451387 -623.013126 
L 578.708233 -621.737604 
L 579.0666 -620.462082 
L 579.554397 -619.186559 
L 580.202127 -617.911037 
L 581.041176 -616.635514 
L 582.101467 -615.359992 
L 583.408632 -614.08447 
L 584.980978 -612.808947 
L 586.826626 -611.533425 
L 588.941269 -610.257902 
L 591.306931 -608.98238 
L 593.891996 -607.706858 
L 596.652589 -606.431335 
L 599.535092 -605.155813 
L 602.479424 -603.88029 
L 605.422494 -602.604768 
L 608.301289 -601.329246 
L 611.055127 -600.053723 
L 613.626894 -598.778201 
L 615.963376 -597.502678 
L 618.015061 -596.227156 
L 619.735986 -594.951634 
L 621.084185 -593.676111 
L 622.023162 -592.400589 
L 622.524485 -591.125066 
L 622.57125 -589.849544 
L 622.161828 -588.574021 
L 621.313081 -587.298499 
L 620.062196 -586.022977 
L 618.466423 -584.747454 
L 616.60034 -583.471932 
L 614.550688 -582.196409 
L 612.409275 -580.920887 
L 610.264853 -579.645365 
L 608.195083 -578.369842 
L 606.259779 -577.09432 
L 604.496419 -575.818797 
L 602.918564 -574.543275 
L 601.517334 -573.267753 
L 600.26561 -571.99223 
L 599.124184 -570.716708 
L 598.048819 -569.441185 
L 596.997109 -568.165663 
L 595.934164 -566.890141 
L 594.836451 -565.614618 
L 593.693494 -564.339096 
L 592.507532 -563.063573 
L 591.291563 -561.788051 
L 590.066358 -560.512529 
L 588.857087 -559.237006 
L 587.690136 -557.961484 
L 586.590461 -556.685961 
L 585.579687 -555.410439 
L 584.674945 -554.134916 
L 583.888301 -552.859394 
L 583.226621 -551.583872 
L 582.691686 -550.308349 
L 582.280443 -549.032827 
L 581.985349 -547.757304 
L 581.794804 -546.481782 
L 581.693724 -545.20626 
L 581.66428 -543.930737 
L 581.686816 -542.655215 
L 581.740908 -541.379692 
L 581.806507 -540.10417 
L 581.865078 -538.828648 
L 581.900636 -537.553125 
L 581.900606 -536.277603 
L 581.856439 -535.00208 
L 581.763958 -533.726558 
L 581.623401 -532.451036 
L 581.439166 -531.175513 
L 581.219258 -529.899991 
L 580.974468 -528.624468 
L 580.717327 -527.348946 
L 580.460894 -526.073424 
L 580.217494 -524.797901 
L 579.99752 -523.522379 
L 579.808434 -522.246856 
L 579.6541 -520.971334 
L 579.53454 -519.695811 
L 579.446154 -518.420289 
L 579.382388 -517.144767 
L 579.334748 -515.869244 
L 579.294017 -514.593722 
L 579.251493 -513.318199 
L 579.20007 -512.042677 
L 579.135003 -510.767155 
L 579.054272 -509.491632 
L 578.95853 -508.21611 
L 578.850672 -506.940587 
L 578.73516 -505.665065 
L 578.617215 -504.389543 
L 578.502036 -503.11402 
L 578.394159 -501.838498 
L 578.297025 -500.562975 
L 578.212777 -499.287453 
L 578.142278 -498.011931 
L 578.085286 -496.736408 
z
" style="stroke: #3d3d3d; stroke-opacity: 0.5"/>
    </defs>
    <g clip-path="url(#pe6fae6efec)">
     <use xlink:href="#m27adb894d1" x="0" y="707.825675" style="fill: #845b53; fill-opacity: 0.5; stroke: #3d3d3d; stroke-opacity: 0.5"/>
    </g>
   </g>
   <g id="PolyCollection_6">
    <defs>
     <path id="ma576aef1c8" d="M 689.857326 -222.91706 
L 689.205174 -222.91706 
L 689.102447 -227.487854 
L 688.97556 -232.058648 
L 688.821556 -236.629442 
L 688.637932 -241.200236 
L 688.422906 -245.77103 
L 688.175695 -250.341824 
L 687.896767 -254.912618 
L 687.588047 -259.483413 
L 687.253051 -264.054207 
L 686.896909 -268.625001 
L 686.526266 -273.195795 
L 686.149058 -277.766589 
L 685.774152 -282.337383 
L 685.410885 -286.908177 
L 685.068527 -291.478971 
L 684.755724 -296.049765 
L 684.479957 -300.620559 
L 684.247088 -305.191353 
L 684.061022 -309.762148 
L 683.923537 -314.332942 
L 683.834276 -318.903736 
L 683.790912 -323.47453 
L 683.78946 -328.045324 
L 683.824689 -332.616118 
L 683.890589 -337.186912 
L 683.98084 -341.757706 
L 684.089228 -346.3285 
L 684.209983 -350.899294 
L 684.338002 -355.470088 
L 684.468961 -360.040883 
L 684.599327 -364.611677 
L 684.726285 -369.182471 
L 684.84762 -373.753265 
L 684.961571 -378.324059 
L 685.066699 -382.894853 
L 685.161758 -387.465647 
L 685.245605 -392.036441 
L 685.31713 -396.607235 
L 685.37519 -401.178029 
L 685.418563 -405.748823 
L 685.445879 -410.319618 
L 685.455554 -414.890412 
L 685.445713 -419.461206 
L 685.414103 -424.032 
L 685.358032 -428.602794 
L 685.27432 -433.173588 
L 685.159284 -437.744382 
L 685.008749 -442.315176 
L 684.818091 -446.88597 
L 684.582283 -451.456764 
L 684.295932 -456.027558 
L 683.953284 -460.598353 
L 683.548172 -465.169147 
L 683.073916 -469.739941 
L 682.523155 -474.310735 
L 681.887661 -478.881529 
L 681.158162 -483.452323 
L 680.32423 -488.023117 
L 679.374309 -492.593911 
L 678.295951 -497.164705 
L 677.076324 -501.735499 
L 675.703035 -506.306294 
L 674.165287 -510.877088 
L 672.455349 -515.447882 
L 670.570272 -520.018676 
L 668.513734 -524.58947 
L 666.297857 -529.160264 
L 663.944809 -533.731058 
L 661.487968 -538.301852 
L 658.972437 -542.872646 
L 656.454739 -547.44344 
L 654.001536 -552.014234 
L 651.687345 -556.585029 
L 649.591285 -561.155823 
L 647.793002 -565.726617 
L 646.368058 -570.297411 
L 645.383101 -574.868205 
L 644.89125 -579.438999 
L 644.928107 -584.009793 
L 645.50879 -588.580587 
L 646.626309 -593.151381 
L 648.251466 -597.722175 
L 650.334339 -602.292969 
L 652.807221 -606.863764 
L 655.58878 -611.434558 
L 658.589044 -616.005352 
L 661.714765 -620.576146 
L 664.874716 -625.14694 
L 667.984452 -629.717734 
L 670.970219 -634.288528 
L 673.771734 -638.859322 
L 676.343758 -643.430116 
L 678.656452 -648.00091 
L 680.694663 -652.571704 
L 682.456355 -657.142499 
L 683.950428 -661.713293 
L 685.194223 -666.284087 
L 686.210949 -670.854881 
L 687.027266 -675.425675 
L 692.035234 -675.425675 
L 692.035234 -675.425675 
L 692.851551 -670.854881 
L 693.868277 -666.284087 
L 695.112072 -661.713293 
L 696.606145 -657.142499 
L 698.367837 -652.571704 
L 700.406048 -648.00091 
L 702.718742 -643.430116 
L 705.290766 -638.859322 
L 708.092281 -634.288528 
L 711.078048 -629.717734 
L 714.187784 -625.14694 
L 717.347735 -620.576146 
L 720.473456 -616.005352 
L 723.47372 -611.434558 
L 726.255279 -606.863764 
L 728.728161 -602.292969 
L 730.811034 -597.722175 
L 732.436191 -593.151381 
L 733.55371 -588.580587 
L 734.134393 -584.009793 
L 734.17125 -579.438999 
L 733.679399 -574.868205 
L 732.694442 -570.297411 
L 731.269498 -565.726617 
L 729.471215 -561.155823 
L 727.375155 -556.585029 
L 725.060964 -552.014234 
L 722.607761 -547.44344 
L 720.090063 -542.872646 
L 717.574532 -538.301852 
L 715.117691 -533.731058 
L 712.764643 -529.160264 
L 710.548766 -524.58947 
L 708.492228 -520.018676 
L 706.607151 -515.447882 
L 704.897213 -510.877088 
L 703.359465 -506.306294 
L 701.986176 -501.735499 
L 700.766549 -497.164705 
L 699.688191 -492.593911 
L 698.73827 -488.023117 
L 697.904338 -483.452323 
L 697.174839 -478.881529 
L 696.539345 -474.310735 
L 695.988584 -469.739941 
L 695.514328 -465.169147 
L 695.109216 -460.598353 
L 694.766568 -456.027558 
L 694.480217 -451.456764 
L 694.244409 -446.88597 
L 694.053751 -442.315176 
L 693.903216 -437.744382 
L 693.78818 -433.173588 
L 693.704468 -428.602794 
L 693.648397 -424.032 
L 693.616787 -419.461206 
L 693.606946 -414.890412 
L 693.616621 -410.319618 
L 693.643937 -405.748823 
L 693.68731 -401.178029 
L 693.74537 -396.607235 
L 693.816895 -392.036441 
L 693.900742 -387.465647 
L 693.995801 -382.894853 
L 694.100929 -378.324059 
L 694.21488 -373.753265 
L 694.336215 -369.182471 
L 694.463173 -364.611677 
L 694.593539 -360.040883 
L 694.724498 -355.470088 
L 694.852517 -350.899294 
L 694.973272 -346.3285 
L 695.08166 -341.757706 
L 695.171911 -337.186912 
L 695.237811 -332.616118 
L 695.27304 -328.045324 
L 695.271588 -323.47453 
L 695.228224 -318.903736 
L 695.138963 -314.332942 
L 695.001478 -309.762148 
L 694.815412 -305.191353 
L 694.582543 -300.620559 
L 694.306776 -296.049765 
L 693.993973 -291.478971 
L 693.651615 -286.908177 
L 693.288348 -282.337383 
L 692.913442 -277.766589 
L 692.536234 -273.195795 
L 692.165591 -268.625001 
L 691.809449 -264.054207 
L 691.474453 -259.483413 
L 691.165733 -254.912618 
L 690.886805 -250.341824 
L 690.639594 -245.77103 
L 690.424568 -241.200236 
L 690.240944 -236.629442 
L 690.08694 -232.058648 
L 689.960053 -227.487854 
L 689.857326 -222.91706 
z
" style="stroke: #3d3d3d; stroke-opacity: 0.5"/>
    </defs>
    <g clip-path="url(#pe6fae6efec)">
     <use xlink:href="#ma576aef1c8" x="0" y="707.825675" style="fill: #e1812c; fill-opacity: 0.5; stroke: #3d3d3d; stroke-opacity: 0.5"/>
    </g>
   </g>
   <g id="PolyCollection_7">
    <defs>
     <path id="m4facf0ed63" d="M 801.479306 -543.469475 
L 800.783194 -543.469475 
L 800.662363 -544.265254 
L 800.512608 -545.061033 
L 800.331832 -545.856812 
L 800.119469 -546.652591 
L 799.876961 -547.44837 
L 799.608132 -548.244149 
L 799.319363 -549.039928 
L 799.019513 -549.835707 
L 798.719521 -550.631487 
L 798.431691 -551.427266 
L 798.168699 -552.223045 
L 797.94241 -553.018824 
L 797.762639 -553.814603 
L 797.63601 -554.610382 
L 797.565086 -555.406161 
L 797.547888 -556.20194 
L 797.577909 -556.997719 
L 797.644621 -557.793498 
L 797.734455 -558.589277 
L 797.832104 -559.385056 
L 797.922007 -560.180835 
L 797.989821 -560.976614 
L 798.023675 -561.772393 
L 798.015094 -562.568173 
L 797.95946 -563.363952 
L 797.856002 -564.159731 
L 797.707355 -564.95551 
L 797.51877 -565.751289 
L 797.297136 -566.547068 
L 797.049949 -567.342847 
L 796.784386 -568.138626 
L 796.506589 -568.934405 
L 796.221222 -569.730184 
L 795.931309 -570.525963 
L 795.638299 -571.321742 
L 795.342278 -572.117521 
L 795.0422 -572.9133 
L 794.736063 -573.70908 
L 794.420922 -574.504859 
L 794.092747 -575.300638 
L 793.746131 -576.096417 
L 793.373944 -576.892196 
L 792.967047 -577.687975 
L 792.514199 -578.483754 
L 792.002267 -579.279533 
L 791.416821 -580.075312 
L 790.743095 -580.871091 
L 789.967264 -581.66687 
L 789.077882 -582.462649 
L 788.067295 -583.258428 
L 786.932814 -584.054207 
L 785.677453 -584.849986 
L 784.310087 -585.645766 
L 782.844975 -586.441545 
L 781.300668 -587.237324 
L 779.698452 -588.033103 
L 778.06051 -588.828882 
L 776.408068 -589.624661 
L 774.759774 -590.42044 
L 773.130529 -591.216219 
L 771.53093 -592.011998 
L 769.967384 -592.807777 
L 768.442892 -593.603556 
L 766.958394 -594.399335 
L 765.514521 -595.195114 
L 764.113574 -595.990893 
L 762.76149 -596.786672 
L 761.469611 -597.582452 
L 760.256021 -598.378231 
L 759.146276 -599.17401 
L 758.173364 -599.969789 
L 757.376783 -600.765568 
L 756.800702 -601.561347 
L 756.49125 -602.357126 
L 756.493096 -603.152905 
L 756.845578 -603.948684 
L 757.578764 -604.744463 
L 758.709833 -605.540242 
L 760.240242 -606.336021 
L 762.154022 -607.1318 
L 764.417481 -607.927579 
L 766.980418 -608.723358 
L 769.778772 -609.519138 
L 772.738471 -610.314917 
L 775.780079 -611.110696 
L 778.823784 -611.906475 
L 781.794222 -612.702254 
L 784.624684 -613.498033 
L 787.260351 -614.293812 
L 789.660335 -615.089591 
L 791.798461 -615.88537 
L 793.662847 -616.681149 
L 795.254499 -617.476928 
L 796.585172 -618.272707 
L 797.67481 -619.068486 
L 798.548861 -619.864265 
L 799.235734 -620.660045 
L 799.764581 -621.455824 
L 800.163528 -622.251603 
L 802.098972 -622.251603 
L 802.098972 -622.251603 
L 802.497919 -621.455824 
L 803.026766 -620.660045 
L 803.713639 -619.864265 
L 804.58769 -619.068486 
L 805.677328 -618.272707 
L 807.008001 -617.476928 
L 808.599653 -616.681149 
L 810.464039 -615.88537 
L 812.602165 -615.089591 
L 815.002149 -614.293812 
L 817.637816 -613.498033 
L 820.468278 -612.702254 
L 823.438716 -611.906475 
L 826.482421 -611.110696 
L 829.524029 -610.314917 
L 832.483728 -609.519138 
L 835.282082 -608.723358 
L 837.845019 -607.927579 
L 840.108478 -607.1318 
L 842.022258 -606.336021 
L 843.552667 -605.540242 
L 844.683736 -604.744463 
L 845.416922 -603.948684 
L 845.769404 -603.152905 
L 845.77125 -602.357126 
L 845.461798 -601.561347 
L 844.885717 -600.765568 
L 844.089136 -599.969789 
L 843.116224 -599.17401 
L 842.006479 -598.378231 
L 840.792889 -597.582452 
L 839.50101 -596.786672 
L 838.148926 -595.990893 
L 836.747979 -595.195114 
L 835.304106 -594.399335 
L 833.819608 -593.603556 
L 832.295116 -592.807777 
L 830.73157 -592.011998 
L 829.131971 -591.216219 
L 827.502726 -590.42044 
L 825.854432 -589.624661 
L 824.20199 -588.828882 
L 822.564048 -588.033103 
L 820.961832 -587.237324 
L 819.417525 -586.441545 
L 817.952413 -585.645766 
L 816.585047 -584.849986 
L 815.329686 -584.054207 
L 814.195205 -583.258428 
L 813.184618 -582.462649 
L 812.295236 -581.66687 
L 811.519405 -580.871091 
L 810.845679 -580.075312 
L 810.260233 -579.279533 
L 809.748301 -578.483754 
L 809.295453 -577.687975 
L 808.888556 -576.892196 
L 808.516369 -576.096417 
L 808.169753 -575.300638 
L 807.841578 -574.504859 
L 807.526437 -573.70908 
L 807.2203 -572.9133 
L 806.920222 -572.117521 
L 806.624201 -571.321742 
L 806.331191 -570.525963 
L 806.041278 -569.730184 
L 805.755911 -568.934405 
L 805.478114 -568.138626 
L 805.212551 -567.342847 
L 804.965364 -566.547068 
L 804.74373 -565.751289 
L 804.555145 -564.95551 
L 804.406498 -564.159731 
L 804.30304 -563.363952 
L 804.247406 -562.568173 
L 804.238825 -561.772393 
L 804.272679 -560.976614 
L 804.340493 -560.180835 
L 804.430396 -559.385056 
L 804.528045 -558.589277 
L 804.617879 -557.793498 
L 804.684591 -556.997719 
L 804.714612 -556.20194 
L 804.697414 -555.406161 
L 804.62649 -554.610382 
L 804.499861 -553.814603 
L 804.32009 -553.018824 
L 804.093801 -552.223045 
L 803.830809 -551.427266 
L 803.542979 -550.631487 
L 803.242987 -549.835707 
L 802.943137 -549.039928 
L 802.654368 -548.244149 
L 802.385539 -547.44837 
L 802.143031 -546.652591 
L 801.930668 -545.856812 
L 801.749892 -545.061033 
L 801.600137 -544.265254 
L 801.479306 -543.469475 
z
" style="stroke: #3d3d3d; stroke-opacity: 0.5"/>
    </defs>
    <g clip-path="url(#pe6fae6efec)">
     <use xlink:href="#m4facf0ed63" x="0" y="707.825675" style="fill: #3a923a; fill-opacity: 0.5; stroke: #3d3d3d; stroke-opacity: 0.5"/>
    </g>
   </g>
   <g id="line2d_6">
    <path d="M 131.53125 229.308532 
L 131.53125 106.570649 
" clip-path="url(#pe6fae6efec)" style="fill: none; stroke: #3d3d3d; stroke-width: 1.5; stroke-linecap: round"/>
   </g>
   <g id="line2d_7">
    <path d="M 131.53125 173.231077 
L 131.53125 128.629161 
" clip-path="url(#pe6fae6efec)" style="fill: none; stroke: #3d3d3d; stroke-width: 4.5; stroke-linecap: round"/>
   </g>
   <g id="line2d_8">
    <path d="M 131.53125 146.53472 
" clip-path="url(#pe6fae6efec)" style="fill: none; stroke: #3d3d3d; stroke-width: 1.5; stroke-linecap: round"/>
    <defs>
     <path id="m416287f41b" d="M 1.875 0 
L -1.875 -0 
" style="stroke: #ffffff; stroke-width: 0.9"/>
    </defs>
    <g clip-path="url(#pe6fae6efec)">
     <use xlink:href="#m416287f41b" x="131.53125" y="146.53472" style="fill: #ffffff; stroke: #ffffff; stroke-width: 0.9"/>
    </g>
   </g>
   <g id="line2d_9">
    <path d="M 243.13125 135.13667 
L 243.13125 96.316978 
" clip-path="url(#pe6fae6efec)" style="fill: none; stroke: #3d3d3d; stroke-width: 1.5; stroke-linecap: round"/>
   </g>
   <g id="line2d_10">
    <path d="M 243.13125 117.662209 
L 243.13125 103.294962 
" clip-path="url(#pe6fae6efec)" style="fill: none; stroke: #3d3d3d; stroke-width: 4.5; stroke-linecap: round"/>
   </g>
   <g id="line2d_11">
    <path d="M 243.13125 109.39371 
" clip-path="url(#pe6fae6efec)" style="fill: none; stroke: #3d3d3d; stroke-width: 1.5; stroke-linecap: round"/>
    <g clip-path="url(#pe6fae6efec)">
     <use xlink:href="#m416287f41b" x="243.13125" y="109.39371" style="fill: #ffffff; stroke: #ffffff; stroke-width: 0.9"/>
    </g>
   </g>
   <g id="line2d_12">
    <path d="M 354.73125 467.974681 
L 354.73125 221.640789 
" clip-path="url(#pe6fae6efec)" style="fill: none; stroke: #3d3d3d; stroke-width: 1.5; stroke-linecap: round"/>
   </g>
   <g id="line2d_13">
    <path d="M 354.73125 432.651723 
L 354.73125 334.383414 
" clip-path="url(#pe6fae6efec)" style="fill: none; stroke: #3d3d3d; stroke-width: 4.5; stroke-linecap: round"/>
   </g>
   <g id="line2d_14">
    <path d="M 354.73125 402.757849 
" clip-path="url(#pe6fae6efec)" style="fill: none; stroke: #3d3d3d; stroke-width: 1.5; stroke-linecap: round"/>
    <g clip-path="url(#pe6fae6efec)">
     <use xlink:href="#m416287f41b" x="354.73125" y="402.757849" style="fill: #ffffff; stroke: #ffffff; stroke-width: 0.9"/>
    </g>
   </g>
   <g id="line2d_15">
    <path d="M 466.33125 150.895241 
L 466.33125 99.758495 
" clip-path="url(#pe6fae6efec)" style="fill: none; stroke: #3d3d3d; stroke-width: 1.5; stroke-linecap: round"/>
   </g>
   <g id="line2d_16">
    <path d="M 466.33125 126.363258 
L 466.33125 109.447854 
" clip-path="url(#pe6fae6efec)" style="fill: none; stroke: #3d3d3d; stroke-width: 4.5; stroke-linecap: round"/>
   </g>
   <g id="line2d_17">
    <path d="M 466.33125 116.991103 
" clip-path="url(#pe6fae6efec)" style="fill: none; stroke: #3d3d3d; stroke-width: 1.5; stroke-linecap: round"/>
    <g clip-path="url(#pe6fae6efec)">
     <use xlink:href="#m416287f41b" x="466.33125" y="116.991103" style="fill: #ffffff; stroke: #ffffff; stroke-width: 0.9"/>
    </g>
   </g>
   <g id="line2d_18">
    <path d="M 577.93125 154.874991 
L 577.93125 100.385783 
" clip-path="url(#pe6fae6efec)" style="fill: none; stroke: #3d3d3d; stroke-width: 1.5; stroke-linecap: round"/>
   </g>
   <g id="line2d_19">
    <path d="M 577.93125 134.632389 
L 577.93125 113.935113 
" clip-path="url(#pe6fae6efec)" style="fill: none; stroke: #3d3d3d; stroke-width: 4.5; stroke-linecap: round"/>
   </g>
   <g id="line2d_20">
    <path d="M 577.93125 120.644912 
" clip-path="url(#pe6fae6efec)" style="fill: none; stroke: #3d3d3d; stroke-width: 1.5; stroke-linecap: round"/>
    <g clip-path="url(#pe6fae6efec)">
     <use xlink:href="#m416287f41b" x="577.93125" y="120.644912" style="fill: #ffffff; stroke: #ffffff; stroke-width: 0.9"/>
    </g>
   </g>
   <g id="line2d_21">
    <path d="M 689.53125 230.988434 
L 689.53125 104.819896 
" clip-path="url(#pe6fae6efec)" style="fill: none; stroke: #3d3d3d; stroke-width: 1.5; stroke-linecap: round"/>
   </g>
   <g id="line2d_22">
    <path d="M 689.53125 176.692313 
L 689.53125 115.879636 
" clip-path="url(#pe6fae6efec)" style="fill: none; stroke: #3d3d3d; stroke-width: 4.5; stroke-linecap: round"/>
   </g>
   <g id="line2d_23">
    <path d="M 689.53125 131.423316 
" clip-path="url(#pe6fae6efec)" style="fill: none; stroke: #3d3d3d; stroke-width: 1.5; stroke-linecap: round"/>
    <g clip-path="url(#pe6fae6efec)">
     <use xlink:href="#m416287f41b" x="689.53125" y="131.423316" style="fill: #ffffff; stroke: #ffffff; stroke-width: 0.9"/>
    </g>
   </g>
   <g id="line2d_24">
    <path d="M 801.13125 135.587539 
L 801.13125 96.484487 
" clip-path="url(#pe6fae6efec)" style="fill: none; stroke: #3d3d3d; stroke-width: 1.5; stroke-linecap: round"/>
   </g>
   <g id="line2d_25">
    <path d="M 801.13125 116.958803 
L 801.13125 102.984863 
" clip-path="url(#pe6fae6efec)" style="fill: none; stroke: #3d3d3d; stroke-width: 4.5; stroke-linecap: round"/>
   </g>
   <g id="line2d_26">
    <path d="M 801.13125 108.410327 
" clip-path="url(#pe6fae6efec)" style="fill: none; stroke: #3d3d3d; stroke-width: 1.5; stroke-linecap: round"/>
    <g clip-path="url(#pe6fae6efec)">
     <use xlink:href="#m416287f41b" x="801.13125" y="108.410327" style="fill: #ffffff; stroke: #ffffff; stroke-width: 0.9"/>
    </g>
   </g>
   <g id="patch_3">
    <path d="M 75.73125 561.6 
L 856.93125 561.6 
" style="fill: none; stroke: #cccccc; stroke-width: 0.8; stroke-linejoin: miter; stroke-linecap: square"/>
   </g>
  </g>
 </g>
 <defs>
  <clipPath id="pe6fae6efec">
   <rect x="75.73125" y="7.2" width="781.2" height="554.4"/>
  </clipPath>
 </defs>
</svg>
