<?xml version="1.0" encoding="utf-8" standalone="no"?>
<!DOCTYPE svg PUBLIC "-//W3C//DTD SVG 1.1//EN"
  "http://www.w3.org/Graphics/SVG/1.1/DTD/svg11.dtd">
<svg xmlns:xlink="http://www.w3.org/1999/xlink" width="778.993986pt" height="1038.060156pt" viewBox="0 0 778.993986 1038.060156" xmlns="http://www.w3.org/2000/svg" version="1.1">
 <metadata>
  <rdf:RDF xmlns:dc="http://purl.org/dc/elements/1.1/" xmlns:cc="http://creativecommons.org/ns#" xmlns:rdf="http://www.w3.org/1999/02/22-rdf-syntax-ns#">
   <cc:Work>
    <dc:type rdf:resource="http://purl.org/dc/dcmitype/StillImage"/>
    <dc:date>2023-12-04T23:42:31.724517</dc:date>
    <dc:format>image/svg+xml</dc:format>
    <dc:creator>
     <cc:Agent>
      <dc:title>Matplotlib v3.6.2, https://matplotlib.org/</dc:title>
     </cc:Agent>
    </dc:creator>
   </cc:Work>
  </rdf:RDF>
 </metadata>
 <defs>
  <style type="text/css">*{stroke-linejoin: round; stroke-linecap: butt}</style>
 </defs>
 <g id="figure_1">
  <g id="patch_1">
   <path d="M 0 1038.060156 
L 778.993986 1038.060156 
L 778.993986 0 
L 0 0 
L 0 1038.060156 
z
" style="fill: none"/>
  </g>
  <g id="axes_1">
   <g id="patch_2">
    <path d="M 753.344649 375.297656 
C 753.344649 330.386628 744.498156 285.912302 727.311449 244.419922 
C 710.124743 202.927542 684.932061 165.22403 653.175168 133.467137 
C 621.418276 101.710244 583.714763 76.517563 542.222383 59.330856 
C 500.730003 42.14415 456.255678 33.297656 411.344649 33.297656 
C 366.433621 33.297656 321.959295 42.14415 280.466915 59.330856 
C 238.974535 76.517563 201.271023 101.710244 169.51413 133.467137 
C 137.757237 165.22403 112.564556 202.927542 95.377849 244.419922 
C 78.191143 285.912302 69.344649 330.386628 69.344649 375.297656 
C 69.344649 420.208685 78.191143 464.68301 95.377849 506.17539 
C 112.564556 547.66777 137.757237 585.371283 169.51413 617.128175 
C 201.271023 648.885068 238.974535 674.07775 280.466915 691.264456 
C 321.959295 708.451163 366.433621 717.297656 411.344649 717.297656 
C 456.255678 717.297656 500.730003 708.451163 542.222383 691.264456 
C 583.714763 674.07775 621.418276 648.885068 653.175168 617.128175 
C 684.932061 585.371283 710.124743 547.66777 727.311449 506.17539 
C 744.498156 464.68301 753.344649 420.208685 753.344649 375.297656 
M 411.344649 375.297656 
C 411.344649 375.297656 411.344649 375.297656 411.344649 375.297656 
C 411.344649 375.297656 411.344649 375.297656 411.344649 375.297656 
C 411.344649 375.297656 411.344649 375.297656 411.344649 375.297656 
C 411.344649 375.297656 411.344649 375.297656 411.344649 375.297656 
C 411.344649 375.297656 411.344649 375.297656 411.344649 375.297656 
C 411.344649 375.297656 411.344649 375.297656 411.344649 375.297656 
C 411.344649 375.297656 411.344649 375.297656 411.344649 375.297656 
C 411.344649 375.297656 411.344649 375.297656 411.344649 375.297656 
C 411.344649 375.297656 411.344649 375.297656 411.344649 375.297656 
C 411.344649 375.297656 411.344649 375.297656 411.344649 375.297656 
C 411.344649 375.297656 411.344649 375.297656 411.344649 375.297656 
C 411.344649 375.297656 411.344649 375.297656 411.344649 375.297656 
C 411.344649 375.297656 411.344649 375.297656 411.344649 375.297656 
C 411.344649 375.297656 411.344649 375.297656 411.344649 375.297656 
C 411.344649 375.297656 411.344649 375.297656 411.344649 375.297656 
C 411.344649 375.297656 411.344649 375.297656 411.344649 375.297656 
M 753.344649 375.297656 
L 753.344649 375.297656 
z
" style="fill: none"/>
   </g>
   <g id="matplotlib.axis_1">
    <g id="xtick_1">
     <g id="line2d_1">
      <path d="M 411.344649 375.297656 
L 411.344649 33.297656 
" clip-path="url(#p7f60e17c01)" style="fill: none; stroke: #000000; stroke-width: 0.5; stroke-linecap: square"/>
     </g>
     <g id="text_1">
      <!-- TM-Score -->
      <g transform="translate(353.409102 26.196094) scale(0.25 -0.25)">
       <defs>
        <path id="DejaVuSans-54" d="M -19 4666 
L 3928 4666 
L 3928 4134 
L 2272 4134 
L 2272 0 
L 1638 0 
L 1638 4134 
L -19 4134 
L -19 4666 
z
" transform="scale(0.015625)"/>
        <path id="DejaVuSans-4d" d="M 628 4666 
L 1569 4666 
L 2759 1491 
L 3956 4666 
L 4897 4666 
L 4897 0 
L 4281 0 
L 4281 4097 
L 3078 897 
L 2444 897 
L 1241 4097 
L 1241 0 
L 628 0 
L 628 4666 
z
" transform="scale(0.015625)"/>
        <path id="DejaVuSans-2d" d="M 313 2009 
L 1997 2009 
L 1997 1497 
L 313 1497 
L 313 2009 
z
" transform="scale(0.015625)"/>
        <path id="DejaVuSans-53" d="M 3425 4513 
L 3425 3897 
Q 3066 4069 2747 4153 
Q 2428 4238 2131 4238 
Q 1616 4238 1336 4038 
Q 1056 3838 1056 3469 
Q 1056 3159 1242 3001 
Q 1428 2844 1947 2747 
L 2328 2669 
Q 3034 2534 3370 2195 
Q 3706 1856 3706 1288 
Q 3706 609 3251 259 
Q 2797 -91 1919 -91 
Q 1588 -91 1214 -16 
Q 841 59 441 206 
L 441 856 
Q 825 641 1194 531 
Q 1563 422 1919 422 
Q 2459 422 2753 634 
Q 3047 847 3047 1241 
Q 3047 1584 2836 1778 
Q 2625 1972 2144 2069 
L 1759 2144 
Q 1053 2284 737 2584 
Q 422 2884 422 3419 
Q 422 4038 858 4394 
Q 1294 4750 2059 4750 
Q 2388 4750 2728 4690 
Q 3069 4631 3425 4513 
z
" transform="scale(0.015625)"/>
        <path id="DejaVuSans-63" d="M 3122 3366 
L 3122 2828 
Q 2878 2963 2633 3030 
Q 2388 3097 2138 3097 
Q 1578 3097 1268 2742 
Q 959 2388 959 1747 
Q 959 1106 1268 751 
Q 1578 397 2138 397 
Q 2388 397 2633 464 
Q 2878 531 3122 666 
L 3122 134 
Q 2881 22 2623 -34 
Q 2366 -91 2075 -91 
Q 1284 -91 818 406 
Q 353 903 353 1747 
Q 353 2603 823 3093 
Q 1294 3584 2113 3584 
Q 2378 3584 2631 3529 
Q 2884 3475 3122 3366 
z
" transform="scale(0.015625)"/>
        <path id="DejaVuSans-6f" d="M 1959 3097 
Q 1497 3097 1228 2736 
Q 959 2375 959 1747 
Q 959 1119 1226 758 
Q 1494 397 1959 397 
Q 2419 397 2687 759 
Q 2956 1122 2956 1747 
Q 2956 2369 2687 2733 
Q 2419 3097 1959 3097 
z
M 1959 3584 
Q 2709 3584 3137 3096 
Q 3566 2609 3566 1747 
Q 3566 888 3137 398 
Q 2709 -91 1959 -91 
Q 1206 -91 779 398 
Q 353 888 353 1747 
Q 353 2609 779 3096 
Q 1206 3584 1959 3584 
z
" transform="scale(0.015625)"/>
        <path id="DejaVuSans-72" d="M 2631 2963 
Q 2534 3019 2420 3045 
Q 2306 3072 2169 3072 
Q 1681 3072 1420 2755 
Q 1159 2438 1159 1844 
L 1159 0 
L 581 0 
L 581 3500 
L 1159 3500 
L 1159 2956 
Q 1341 3275 1631 3429 
Q 1922 3584 2338 3584 
Q 2397 3584 2469 3576 
Q 2541 3569 2628 3553 
L 2631 2963 
z
" transform="scale(0.015625)"/>
        <path id="DejaVuSans-65" d="M 3597 1894 
L 3597 1613 
L 953 1613 
Q 991 1019 1311 708 
Q 1631 397 2203 397 
Q 2534 397 2845 478 
Q 3156 559 3463 722 
L 3463 178 
Q 3153 47 2828 -22 
Q 2503 -91 2169 -91 
Q 1331 -91 842 396 
Q 353 884 353 1716 
Q 353 2575 817 3079 
Q 1281 3584 2069 3584 
Q 2775 3584 3186 3129 
Q 3597 2675 3597 1894 
z
M 3022 2063 
Q 3016 2534 2758 2815 
Q 2500 3097 2075 3097 
Q 1594 3097 1305 2825 
Q 1016 2553 972 2059 
L 3022 2063 
z
" transform="scale(0.015625)"/>
       </defs>
       <use xlink:href="#DejaVuSans-54"/>
       <use xlink:href="#DejaVuSans-4d" x="61.083984"/>
       <use xlink:href="#DejaVuSans-2d" x="147.363281"/>
       <use xlink:href="#DejaVuSans-53" x="183.447266"/>
       <use xlink:href="#DejaVuSans-63" x="246.923828"/>
       <use xlink:href="#DejaVuSans-6f" x="301.904297"/>
       <use xlink:href="#DejaVuSans-72" x="363.085938"/>
       <use xlink:href="#DejaVuSans-65" x="401.949219"/>
      </g>
     </g>
    </g>
    <g id="xtick_2">
     <g id="line2d_2">
      <path d="M 411.344649 375.297656 
L 143.958282 162.064144 
" clip-path="url(#p7f60e17c01)" style="fill: none; stroke: #000000; stroke-width: 0.5; stroke-linecap: square"/>
     </g>
     <g id="text_2">
      <!-- Side-chain RMSD -->
      <g transform="translate(26.614204 160.233724) scale(0.25 -0.25)">
       <defs>
        <path id="DejaVuSans-69" d="M 603 3500 
L 1178 3500 
L 1178 0 
L 603 0 
L 603 3500 
z
M 603 4863 
L 1178 4863 
L 1178 4134 
L 603 4134 
L 603 4863 
z
" transform="scale(0.015625)"/>
        <path id="DejaVuSans-64" d="M 2906 2969 
L 2906 4863 
L 3481 4863 
L 3481 0 
L 2906 0 
L 2906 525 
Q 2725 213 2448 61 
Q 2172 -91 1784 -91 
Q 1150 -91 751 415 
Q 353 922 353 1747 
Q 353 2572 751 3078 
Q 1150 3584 1784 3584 
Q 2172 3584 2448 3432 
Q 2725 3281 2906 2969 
z
M 947 1747 
Q 947 1113 1208 752 
Q 1469 391 1925 391 
Q 2381 391 2643 752 
Q 2906 1113 2906 1747 
Q 2906 2381 2643 2742 
Q 2381 3103 1925 3103 
Q 1469 3103 1208 2742 
Q 947 2381 947 1747 
z
" transform="scale(0.015625)"/>
        <path id="DejaVuSans-68" d="M 3513 2113 
L 3513 0 
L 2938 0 
L 2938 2094 
Q 2938 2591 2744 2837 
Q 2550 3084 2163 3084 
Q 1697 3084 1428 2787 
Q 1159 2491 1159 1978 
L 1159 0 
L 581 0 
L 581 4863 
L 1159 4863 
L 1159 2956 
Q 1366 3272 1645 3428 
Q 1925 3584 2291 3584 
Q 2894 3584 3203 3211 
Q 3513 2838 3513 2113 
z
" transform="scale(0.015625)"/>
        <path id="DejaVuSans-61" d="M 2194 1759 
Q 1497 1759 1228 1600 
Q 959 1441 959 1056 
Q 959 750 1161 570 
Q 1363 391 1709 391 
Q 2188 391 2477 730 
Q 2766 1069 2766 1631 
L 2766 1759 
L 2194 1759 
z
M 3341 1997 
L 3341 0 
L 2766 0 
L 2766 531 
Q 2569 213 2275 61 
Q 1981 -91 1556 -91 
Q 1019 -91 701 211 
Q 384 513 384 1019 
Q 384 1609 779 1909 
Q 1175 2209 1959 2209 
L 2766 2209 
L 2766 2266 
Q 2766 2663 2505 2880 
Q 2244 3097 1772 3097 
Q 1472 3097 1187 3025 
Q 903 2953 641 2809 
L 641 3341 
Q 956 3463 1253 3523 
Q 1550 3584 1831 3584 
Q 2591 3584 2966 3190 
Q 3341 2797 3341 1997 
z
" transform="scale(0.015625)"/>
        <path id="DejaVuSans-6e" d="M 3513 2113 
L 3513 0 
L 2938 0 
L 2938 2094 
Q 2938 2591 2744 2837 
Q 2550 3084 2163 3084 
Q 1697 3084 1428 2787 
Q 1159 2491 1159 1978 
L 1159 0 
L 581 0 
L 581 3500 
L 1159 3500 
L 1159 2956 
Q 1366 3272 1645 3428 
Q 1925 3584 2291 3584 
Q 2894 3584 3203 3211 
Q 3513 2838 3513 2113 
z
" transform="scale(0.015625)"/>
        <path id="DejaVuSans-20" transform="scale(0.015625)"/>
        <path id="DejaVuSans-52" d="M 2841 2188 
Q 3044 2119 3236 1894 
Q 3428 1669 3622 1275 
L 4263 0 
L 3584 0 
L 2988 1197 
Q 2756 1666 2539 1819 
Q 2322 1972 1947 1972 
L 1259 1972 
L 1259 0 
L 628 0 
L 628 4666 
L 2053 4666 
Q 2853 4666 3247 4331 
Q 3641 3997 3641 3322 
Q 3641 2881 3436 2590 
Q 3231 2300 2841 2188 
z
M 1259 4147 
L 1259 2491 
L 2053 2491 
Q 2509 2491 2742 2702 
Q 2975 2913 2975 3322 
Q 2975 3731 2742 3939 
Q 2509 4147 2053 4147 
L 1259 4147 
z
" transform="scale(0.015625)"/>
        <path id="DejaVuSans-44" d="M 1259 4147 
L 1259 519 
L 2022 519 
Q 2988 519 3436 956 
Q 3884 1394 3884 2338 
Q 3884 3275 3436 3711 
Q 2988 4147 2022 4147 
L 1259 4147 
z
M 628 4666 
L 1925 4666 
Q 3281 4666 3915 4102 
Q 4550 3538 4550 2338 
Q 4550 1131 3912 565 
Q 3275 0 1925 0 
L 628 0 
L 628 4666 
z
" transform="scale(0.015625)"/>
       </defs>
       <use xlink:href="#DejaVuSans-53"/>
       <use xlink:href="#DejaVuSans-69" x="63.476562"/>
       <use xlink:href="#DejaVuSans-64" x="91.259766"/>
       <use xlink:href="#DejaVuSans-65" x="154.736328"/>
       <use xlink:href="#DejaVuSans-2d" x="216.259766"/>
       <use xlink:href="#DejaVuSans-63" x="252.34375"/>
       <use xlink:href="#DejaVuSans-68" x="307.324219"/>
       <use xlink:href="#DejaVuSans-61" x="370.703125"/>
       <use xlink:href="#DejaVuSans-69" x="431.982422"/>
       <use xlink:href="#DejaVuSans-6e" x="459.765625"/>
       <use xlink:href="#DejaVuSans-20" x="523.144531"/>
       <use xlink:href="#DejaVuSans-52" x="554.931641"/>
       <use xlink:href="#DejaVuSans-4d" x="624.414062"/>
       <use xlink:href="#DejaVuSans-53" x="710.693359"/>
       <use xlink:href="#DejaVuSans-44" x="774.169922"/>
      </g>
     </g>
    </g>
    <g id="xtick_3">
     <g id="line2d_3">
      <path d="M 411.344649 375.297656 
L 77.919303 451.399816 
" clip-path="url(#p7f60e17c01)" style="fill: none; stroke: #000000; stroke-width: 0.5; stroke-linecap: square"/>
     </g>
     <g id="text_3">
      <!-- Accuracy -->
      <g transform="translate(7.2 461.413546) scale(0.25 -0.25)">
       <defs>
        <path id="DejaVuSans-41" d="M 2188 4044 
L 1331 1722 
L 3047 1722 
L 2188 4044 
z
M 1831 4666 
L 2547 4666 
L 4325 0 
L 3669 0 
L 3244 1197 
L 1141 1197 
L 716 0 
L 50 0 
L 1831 4666 
z
" transform="scale(0.015625)"/>
        <path id="DejaVuSans-75" d="M 544 1381 
L 544 3500 
L 1119 3500 
L 1119 1403 
Q 1119 906 1312 657 
Q 1506 409 1894 409 
Q 2359 409 2629 706 
Q 2900 1003 2900 1516 
L 2900 3500 
L 3475 3500 
L 3475 0 
L 2900 0 
L 2900 538 
Q 2691 219 2414 64 
Q 2138 -91 1772 -91 
Q 1169 -91 856 284 
Q 544 659 544 1381 
z
M 1991 3584 
L 1991 3584 
z
" transform="scale(0.015625)"/>
        <path id="DejaVuSans-79" d="M 2059 -325 
Q 1816 -950 1584 -1140 
Q 1353 -1331 966 -1331 
L 506 -1331 
L 506 -850 
L 844 -850 
Q 1081 -850 1212 -737 
Q 1344 -625 1503 -206 
L 1606 56 
L 191 3500 
L 800 3500 
L 1894 763 
L 2988 3500 
L 3597 3500 
L 2059 -325 
z
" transform="scale(0.015625)"/>
       </defs>
       <use xlink:href="#DejaVuSans-41"/>
       <use xlink:href="#DejaVuSans-63" x="66.658203"/>
       <use xlink:href="#DejaVuSans-63" x="121.638672"/>
       <use xlink:href="#DejaVuSans-75" x="176.619141"/>
       <use xlink:href="#DejaVuSans-72" x="239.998047"/>
       <use xlink:href="#DejaVuSans-61" x="281.111328"/>
       <use xlink:href="#DejaVuSans-63" x="342.390625"/>
       <use xlink:href="#DejaVuSans-79" x="397.371094"/>
      </g>
     </g>
    </g>
    <g id="xtick_4">
     <g id="line2d_4">
      <path d="M 411.344649 375.297656 
L 262.95641 683.429009 
" clip-path="url(#p7f60e17c01)" style="fill: none; stroke: #000000; stroke-width: 0.5; stroke-linecap: square"/>
     </g>
     <g id="text_4">
      <!-- $\chi_4$ -->
      <g transform="translate(243.507038 702.890229) scale(0.25 -0.25)">
       <defs>
        <path id="DejaVuSans-Oblique-3c7" d="M 1922 -781 
L 1691 416 
L 394 -1334 
L -284 -1334 
L 1553 1141 
L 1269 2613 
Q 1194 3006 713 3006 
L 559 3006 
L 653 3500 
L 872 3494 
Q 1675 3472 1775 2950 
L 2006 1753 
L 3303 3503 
L 3981 3503 
L 2144 1028 
L 2428 -444 
Q 2503 -838 2984 -838 
L 3138 -838 
L 3044 -1331 
L 2825 -1325 
Q 2022 -1303 1922 -781 
z
" transform="scale(0.015625)"/>
        <path id="DejaVuSans-34" d="M 2419 4116 
L 825 1625 
L 2419 1625 
L 2419 4116 
z
M 2253 4666 
L 3047 4666 
L 3047 1625 
L 3713 1625 
L 3713 1100 
L 3047 1100 
L 3047 0 
L 2419 0 
L 2419 1100 
L 313 1100 
L 313 1709 
L 2253 4666 
z
" transform="scale(0.015625)"/>
       </defs>
       <use xlink:href="#DejaVuSans-Oblique-3c7" transform="translate(0 0.265625)"/>
       <use xlink:href="#DejaVuSans-34" transform="translate(59.179688 -16.140625) scale(0.7)"/>
      </g>
     </g>
    </g>
    <g id="xtick_5">
     <g id="line2d_5">
      <path d="M 411.344649 375.297656 
L 559.732888 683.429009 
" clip-path="url(#p7f60e17c01)" style="fill: none; stroke: #000000; stroke-width: 0.5; stroke-linecap: square"/>
     </g>
     <g id="text_5">
      <!-- $\chi_3$ -->
      <g transform="translate(552.43226 702.890229) scale(0.25 -0.25)">
       <defs>
        <path id="DejaVuSans-33" d="M 2597 2516 
Q 3050 2419 3304 2112 
Q 3559 1806 3559 1356 
Q 3559 666 3084 287 
Q 2609 -91 1734 -91 
Q 1441 -91 1130 -33 
Q 819 25 488 141 
L 488 750 
Q 750 597 1062 519 
Q 1375 441 1716 441 
Q 2309 441 2620 675 
Q 2931 909 2931 1356 
Q 2931 1769 2642 2001 
Q 2353 2234 1838 2234 
L 1294 2234 
L 1294 2753 
L 1863 2753 
Q 2328 2753 2575 2939 
Q 2822 3125 2822 3475 
Q 2822 3834 2567 4026 
Q 2313 4219 1838 4219 
Q 1578 4219 1281 4162 
Q 984 4106 628 3988 
L 628 4550 
Q 988 4650 1302 4700 
Q 1616 4750 1894 4750 
Q 2613 4750 3031 4423 
Q 3450 4097 3450 3541 
Q 3450 3153 3228 2886 
Q 3006 2619 2597 2516 
z
" transform="scale(0.015625)"/>
       </defs>
       <use xlink:href="#DejaVuSans-Oblique-3c7" transform="translate(0 0.265625)"/>
       <use xlink:href="#DejaVuSans-33" transform="translate(59.179688 -16.140625) scale(0.7)"/>
      </g>
     </g>
    </g>
    <g id="xtick_6">
     <g id="line2d_6">
      <path d="M 411.344649 375.297656 
L 744.769995 451.399816 
" clip-path="url(#p7f60e17c01)" style="fill: none; stroke: #000000; stroke-width: 0.5; stroke-linecap: square"/>
     </g>
     <g id="text_6">
      <!-- $\chi_2$ -->
      <g transform="translate(745.043986 461.362765) scale(0.25 -0.25)">
       <defs>
        <path id="DejaVuSans-32" d="M 1228 531 
L 3431 531 
L 3431 0 
L 469 0 
L 469 531 
Q 828 903 1448 1529 
Q 2069 2156 2228 2338 
Q 2531 2678 2651 2914 
Q 2772 3150 2772 3378 
Q 2772 3750 2511 3984 
Q 2250 4219 1831 4219 
Q 1534 4219 1204 4116 
Q 875 4013 500 3803 
L 500 4441 
Q 881 4594 1212 4672 
Q 1544 4750 1819 4750 
Q 2544 4750 2975 4387 
Q 3406 4025 3406 3419 
Q 3406 3131 3298 2873 
Q 3191 2616 2906 2266 
Q 2828 2175 2409 1742 
Q 1991 1309 1228 531 
z
" transform="scale(0.015625)"/>
       </defs>
       <use xlink:href="#DejaVuSans-Oblique-3c7" transform="translate(0 0.265625)"/>
       <use xlink:href="#DejaVuSans-32" transform="translate(59.179688 -16.140625) scale(0.7)"/>
      </g>
     </g>
    </g>
    <g id="xtick_7">
     <g id="line2d_7">
      <path d="M 411.344649 375.297656 
L 678.731016 162.064144 
" clip-path="url(#p7f60e17c01)" style="fill: none; stroke: #000000; stroke-width: 0.5; stroke-linecap: square"/>
     </g>
     <g id="text_7">
      <!-- $\chi_1$ -->
      <g transform="translate(676.301657 160.182943) scale(0.25 -0.25)">
       <defs>
        <path id="DejaVuSans-31" d="M 794 531 
L 1825 531 
L 1825 4091 
L 703 3866 
L 703 4441 
L 1819 4666 
L 2450 4666 
L 2450 531 
L 3481 531 
L 3481 0 
L 794 0 
L 794 531 
z
" transform="scale(0.015625)"/>
       </defs>
       <use xlink:href="#DejaVuSans-Oblique-3c7" transform="translate(0 0.265625)"/>
       <use xlink:href="#DejaVuSans-31" transform="translate(59.179688 -16.140625) scale(0.7)"/>
      </g>
     </g>
    </g>
   </g>
   <g id="matplotlib.axis_2">
    <g id="ytick_1">
     <g id="line2d_8">
      <path d="M 473.526467 375.297656 
C 473.526467 367.132015 471.918014 359.045774 468.793158 351.501705 
C 465.668303 343.957636 461.087815 337.102451 455.313835 331.328471 
C 449.539854 325.55449 442.68467 320.974003 435.140601 317.849147 
C 427.596532 314.724291 419.510291 313.115838 411.344649 313.115838 
C 403.179008 313.115838 395.092767 314.724291 387.548698 317.849147 
C 380.004629 320.974003 373.149444 325.55449 367.375464 331.328471 
C 361.601483 337.102451 357.020996 343.957636 353.89614 351.501705 
C 350.771284 359.045774 349.162831 367.132015 349.162831 375.297656 
C 349.162831 383.463298 350.771284 391.549539 353.89614 399.093608 
C 357.020996 406.637677 361.601483 413.492861 367.375464 419.266842 
C 373.149444 425.040822 380.004629 429.62131 387.548698 432.746165 
C 395.092767 435.871021 403.179008 437.479474 411.344649 437.479474 
C 419.510291 437.479474 427.596532 435.871021 435.140601 432.746165 
C 442.68467 429.62131 449.539854 425.040822 455.313835 419.266842 
C 461.087815 413.492861 465.668303 406.637677 468.793158 399.093608 
C 471.918014 391.549539 473.526467 383.463298 473.526467 375.297656 
" clip-path="url(#p7f60e17c01)" style="fill: none; stroke: #b0b0b0; stroke-width: 0.1; stroke-linecap: square"/>
     </g>
     <g id="text_8">
      <!-- 0.87 -->
      <g transform="translate(411.344649 308.956463) scale(0.2 -0.2)">
       <defs>
        <path id="DejaVuSans-30" d="M 2034 4250 
Q 1547 4250 1301 3770 
Q 1056 3291 1056 2328 
Q 1056 1369 1301 889 
Q 1547 409 2034 409 
Q 2525 409 2770 889 
Q 3016 1369 3016 2328 
Q 3016 3291 2770 3770 
Q 2525 4250 2034 4250 
z
M 2034 4750 
Q 2819 4750 3233 4129 
Q 3647 3509 3647 2328 
Q 3647 1150 3233 529 
Q 2819 -91 2034 -91 
Q 1250 -91 836 529 
Q 422 1150 422 2328 
Q 422 3509 836 4129 
Q 1250 4750 2034 4750 
z
" transform="scale(0.015625)"/>
        <path id="DejaVuSans-2e" d="M 684 794 
L 1344 794 
L 1344 0 
L 684 0 
L 684 794 
z
" transform="scale(0.015625)"/>
        <path id="DejaVuSans-38" d="M 2034 2216 
Q 1584 2216 1326 1975 
Q 1069 1734 1069 1313 
Q 1069 891 1326 650 
Q 1584 409 2034 409 
Q 2484 409 2743 651 
Q 3003 894 3003 1313 
Q 3003 1734 2745 1975 
Q 2488 2216 2034 2216 
z
M 1403 2484 
Q 997 2584 770 2862 
Q 544 3141 544 3541 
Q 544 4100 942 4425 
Q 1341 4750 2034 4750 
Q 2731 4750 3128 4425 
Q 3525 4100 3525 3541 
Q 3525 3141 3298 2862 
Q 3072 2584 2669 2484 
Q 3125 2378 3379 2068 
Q 3634 1759 3634 1313 
Q 3634 634 3220 271 
Q 2806 -91 2034 -91 
Q 1263 -91 848 271 
Q 434 634 434 1313 
Q 434 1759 690 2068 
Q 947 2378 1403 2484 
z
M 1172 3481 
Q 1172 3119 1398 2916 
Q 1625 2713 2034 2713 
Q 2441 2713 2670 2916 
Q 2900 3119 2900 3481 
Q 2900 3844 2670 4047 
Q 2441 4250 2034 4250 
Q 1625 4250 1398 4047 
Q 1172 3844 1172 3481 
z
" transform="scale(0.015625)"/>
        <path id="DejaVuSans-37" d="M 525 4666 
L 3525 4666 
L 3525 4397 
L 1831 0 
L 1172 0 
L 2766 4134 
L 525 4134 
L 525 4666 
z
" transform="scale(0.015625)"/>
       </defs>
       <use xlink:href="#DejaVuSans-30"/>
       <use xlink:href="#DejaVuSans-2e" x="63.623047"/>
       <use xlink:href="#DejaVuSans-38" x="95.410156"/>
       <use xlink:href="#DejaVuSans-37" x="159.033203"/>
      </g>
     </g>
    </g>
    <g id="ytick_2">
     <g id="line2d_9">
      <path d="M 535.708286 375.297656 
C 535.708286 358.966373 532.491379 342.793891 526.241667 327.705753 
C 519.991956 312.617615 510.830981 298.907247 499.28302 287.359286 
C 487.735059 275.811325 474.024691 266.650349 458.936552 260.400638 
C 443.848414 254.150927 427.675932 250.93402 411.344649 250.93402 
C 395.013366 250.93402 378.840884 254.150927 363.752746 260.400638 
C 348.664608 266.650349 334.95424 275.811325 323.406279 287.359286 
C 311.858318 298.907247 302.697342 312.617615 296.447631 327.705753 
C 290.19792 342.793891 286.981013 358.966373 286.981013 375.297656 
C 286.981013 391.628939 290.19792 407.801421 296.447631 422.889559 
C 302.697342 437.977698 311.858318 451.688066 323.406279 463.236027 
C 334.95424 474.783988 348.664608 483.944963 363.752746 490.194674 
C 378.840884 496.444386 395.013366 499.661293 411.344649 499.661293 
C 427.675932 499.661293 443.848414 496.444386 458.936552 490.194674 
C 474.024691 483.944963 487.735059 474.783988 499.28302 463.236027 
C 510.830981 451.688066 519.991956 437.977698 526.241667 422.889559 
C 532.491379 407.801421 535.708286 391.628939 535.708286 375.297656 
" clip-path="url(#p7f60e17c01)" style="fill: none; stroke: #b0b0b0; stroke-width: 0.1; stroke-linecap: square"/>
     </g>
    </g>
    <g id="ytick_3">
     <g id="line2d_10">
      <path d="M 597.890104 375.297656 
C 597.890104 350.800732 593.064744 326.542009 583.690177 303.909801 
C 574.315609 281.277594 560.574147 260.712042 543.252205 243.3901 
C 525.930264 226.068159 505.364711 212.326696 482.732504 202.952129 
C 460.100297 193.577562 435.841574 188.752202 411.344649 188.752202 
C 386.847725 188.752202 362.589002 193.577562 339.956794 202.952129 
C 317.324587 212.326696 296.759035 226.068159 279.437093 243.3901 
C 262.115152 260.712042 248.373689 281.277594 238.999122 303.909801 
C 229.624555 326.542009 224.799195 350.800732 224.799195 375.297656 
C 224.799195 399.794581 229.624555 424.053304 238.999122 446.685511 
C 248.373689 469.317718 262.115152 489.883271 279.437093 507.205212 
C 296.759035 524.527154 317.324587 538.268616 339.956794 547.643184 
C 362.589002 557.017751 386.847725 561.843111 411.344649 561.843111 
C 435.841574 561.843111 460.100297 557.017751 482.732504 547.643184 
C 505.364711 538.268616 525.930264 524.527154 543.252205 507.205212 
C 560.574147 489.883271 574.315609 469.317718 583.690177 446.685511 
C 593.064744 424.053304 597.890104 399.794581 597.890104 375.297656 
" clip-path="url(#p7f60e17c01)" style="fill: none; stroke: #b0b0b0; stroke-width: 0.1; stroke-linecap: square"/>
     </g>
    </g>
    <g id="ytick_4">
     <g id="line2d_11">
      <path d="M 660.071922 375.297656 
C 660.071922 342.63509 653.638109 310.290126 641.138686 280.11385 
C 628.639263 249.937573 610.317312 222.516837 587.22139 199.420915 
C 564.125468 176.324993 536.704732 158.003043 506.528456 145.50362 
C 476.352179 133.004197 444.007215 126.570384 411.344649 126.570384 
C 378.682083 126.570384 346.337119 133.004197 316.160843 145.50362 
C 285.984566 158.003043 258.56383 176.324993 235.467908 199.420915 
C 212.371986 222.516837 194.050036 249.937573 181.550613 280.11385 
C 169.05119 310.290126 162.617377 342.63509 162.617377 375.297656 
C 162.617377 407.960222 169.05119 440.305186 181.550613 470.481463 
C 194.050036 500.657739 212.371986 528.078475 235.467908 551.174397 
C 258.56383 574.27032 285.984566 592.59227 316.160843 605.091693 
C 346.337119 617.591116 378.682083 624.024929 411.344649 624.024929 
C 444.007215 624.024929 476.352179 617.591116 506.528456 605.091693 
C 536.704732 592.59227 564.125468 574.27032 587.22139 551.174397 
C 610.317312 528.078475 628.639263 500.657739 641.138686 470.481463 
C 653.638109 440.305186 660.071922 407.960222 660.071922 375.297656 
" clip-path="url(#p7f60e17c01)" style="fill: none; stroke: #b0b0b0; stroke-width: 0.1; stroke-linecap: square"/>
     </g>
    </g>
    <g id="ytick_5">
     <g id="line2d_12">
      <path d="M 722.25374 375.297656 
C 722.25374 334.469449 714.211473 294.038244 698.587195 256.317898 
C 682.962916 218.597553 660.060478 184.321632 631.190576 155.45173 
C 602.320673 126.581827 568.044753 103.679389 530.324407 88.055111 
C 492.604062 72.430832 452.172857 64.388565 411.344649 64.388565 
C 370.516442 64.388565 330.085237 72.430832 292.364891 88.055111 
C 254.644546 103.679389 220.368625 126.581827 191.498723 155.45173 
C 162.62882 184.321632 139.726382 218.597553 124.102104 256.317898 
C 108.477825 294.038244 100.435558 334.469449 100.435558 375.297656 
C 100.435558 416.125864 108.477825 456.557069 124.102104 494.277414 
C 139.726382 531.99776 162.62882 566.27368 191.498723 595.143583 
C 220.368625 624.013485 254.644546 646.915923 292.364891 662.540202 
C 330.085237 678.16448 370.516442 686.206747 411.344649 686.206747 
C 452.172857 686.206747 492.604062 678.16448 530.324407 662.540202 
C 568.044753 646.915923 602.320673 624.013485 631.190576 595.143583 
C 660.060478 566.27368 682.962916 531.99776 698.587195 494.277414 
C 714.211473 456.557069 722.25374 416.125864 722.25374 375.297656 
" clip-path="url(#p7f60e17c01)" style="fill: none; stroke: #b0b0b0; stroke-width: 0.1; stroke-linecap: square"/>
     </g>
     <g id="text_9">
      <!-- 1.0 -->
      <g transform="translate(411.344649 60.22919) scale(0.2 -0.2)">
       <use xlink:href="#DejaVuSans-31"/>
       <use xlink:href="#DejaVuSans-2e" x="63.623047"/>
       <use xlink:href="#DejaVuSans-30" x="95.410156"/>
      </g>
     </g>
    </g>
   </g>
   <g id="line2d_13">
    <path d="M 411.344649 64.388565 
L 181.13279 191.709825 
L 117.013375 442.476849 
L 377.624149 445.318996 
L 517.568533 595.873823 
L 642.331347 428.018863 
L 648.435033 186.224385 
L 411.344649 64.388565 
" clip-path="url(#p7f60e17c01)" style="fill: none; stroke: #ffa047; stroke-width: 4; stroke-linecap: square"/>
   </g>
   <g id="line2d_14">
    <path d="M 411.344649 280.279925 
L 167.184095 180.586112 
L 96.177 447.232616 
L 293.296051 620.428096 
L 542.304835 647.239284 
L 704.11004 442.119446 
L 658.138016 178.486514 
L 411.344649 280.279925 
" clip-path="url(#p7f60e17c01)" style="fill: none; stroke: #fcbb56; stroke-width: 4; stroke-linecap: square"/>
   </g>
   <g id="line2d_15">
    <path d="M 411.344649 284.055258 
L 166.501013 180.041372 
L 95.974809 447.278764 
L 291.401852 624.361442 
L 542.898001 648.471006 
L 707.594375 442.914723 
L 657.874473 178.696682 
L 411.344649 284.055258 
" clip-path="url(#p7f60e17c01)" style="fill: none; stroke: #f9d565; stroke-width: 4; stroke-linecap: square"/>
   </g>
   <g id="line2d_16">
    <path d="M 411.344649 277.999972 
L 167.530088 180.862032 
L 99.100219 446.56541 
L 291.82826 623.475996 
L 539.457514 641.326761 
L 703.595701 442.002052 
L 656.877169 179.492006 
L 411.344649 277.999972 
" clip-path="url(#p7f60e17c01)" style="fill: none; stroke: #f6f074; stroke-width: 4; stroke-linecap: square"/>
   </g>
   <g id="line2d_17">
    <path d="M 411.344649 64.388565 
L 369.502525 341.929676 
L 327.288733 394.482871 
L 288.51166 630.362987 
L 438.255967 431.179584 
L 478.12933 390.540824 
L 453.940403 341.328676 
L 411.344649 64.388565 
" clip-path="url(#p7f60e17c01)" style="fill: none; stroke: #d4005f; stroke-width: 4; stroke-linecap: square"/>
   </g>
   <g id="line2d_18">
    <path d="M 411.344649 292.102957 
L 180.281383 191.03085 
L 119.824574 441.835211 
L 273.625489 661.27444 
L 525.362471 612.058104 
L 676.148023 435.737298 
L 645.190179 188.812069 
L 411.344649 292.102957 
" clip-path="url(#p7f60e17c01)" style="fill: none; stroke: #e2448c; stroke-width: 4; stroke-linecap: square"/>
   </g>
   <g id="line2d_19">
    <path d="M 411.344649 297.980783 
L 176.577718 188.077276 
L 116.769805 442.532442 
L 274.707641 659.027327 
L 529.615713 620.89005 
L 683.059677 437.314838 
L 647.838619 186.700008 
L 411.344649 297.980783 
" clip-path="url(#p7f60e17c01)" style="fill: none; stroke: #f188b9; stroke-width: 4; stroke-linecap: square"/>
   </g>
   <g id="line2d_20">
    <path d="M 411.344649 299.073767 
L 176.303933 187.85894 
L 117.272808 442.417635 
L 276.004026 656.335356 
L 536.36996 634.915388 
L 685.017547 437.761709 
L 647.175636 187.22872 
L 411.344649 299.073767 
" clip-path="url(#p7f60e17c01)" style="fill: none; stroke: #ffcce6; stroke-width: 4; stroke-linecap: square"/>
   </g>
   <g id="legend_1">
    <g id="patch_3">
     <path d="M 294.530196 1030.860156 
L 528.159102 1030.860156 
Q 533.159102 1030.860156 533.159102 1025.860156 
L 533.159102 734.797656 
Q 533.159102 729.797656 528.159102 729.797656 
L 294.530196 729.797656 
Q 289.530196 729.797656 289.530196 734.797656 
L 289.530196 1025.860156 
Q 289.530196 1030.860156 294.530196 1030.860156 
z
" style="fill: #ffffff; opacity: 0.8; stroke: #cccccc; stroke-linejoin: miter"/>
    </g>
    <g id="line2d_21">
     <path d="M 299.530196 750.04375 
L 324.530196 750.04375 
L 349.530196 750.04375 
" style="fill: none; stroke: #ffa047; stroke-width: 4; stroke-linecap: square"/>
    </g>
    <g id="text_10">
     <!-- FASPR -->
     <g transform="translate(369.530196 758.79375) scale(0.25 -0.25)">
      <defs>
       <path id="DejaVuSans-46" d="M 628 4666 
L 3309 4666 
L 3309 4134 
L 1259 4134 
L 1259 2759 
L 3109 2759 
L 3109 2228 
L 1259 2228 
L 1259 0 
L 628 0 
L 628 4666 
z
" transform="scale(0.015625)"/>
       <path id="DejaVuSans-50" d="M 1259 4147 
L 1259 2394 
L 2053 2394 
Q 2494 2394 2734 2622 
Q 2975 2850 2975 3272 
Q 2975 3691 2734 3919 
Q 2494 4147 2053 4147 
L 1259 4147 
z
M 628 4666 
L 2053 4666 
Q 2838 4666 3239 4311 
Q 3641 3956 3641 3272 
Q 3641 2581 3239 2228 
Q 2838 1875 2053 1875 
L 1259 1875 
L 1259 0 
L 628 0 
L 628 4666 
z
" transform="scale(0.015625)"/>
      </defs>
      <use xlink:href="#DejaVuSans-46"/>
      <use xlink:href="#DejaVuSans-41" x="48.394531"/>
      <use xlink:href="#DejaVuSans-53" x="116.802734"/>
      <use xlink:href="#DejaVuSans-50" x="180.279297"/>
      <use xlink:href="#DejaVuSans-52" x="240.582031"/>
     </g>
    </g>
    <g id="line2d_22">
     <path d="M 299.530196 786.739063 
L 324.530196 786.739063 
L 349.530196 786.739063 
" style="fill: none; stroke: #fcbb56; stroke-width: 4; stroke-linecap: square"/>
    </g>
    <g id="text_11">
     <!-- FASPR 0 -->
     <g transform="translate(369.530196 795.489063) scale(0.25 -0.25)">
      <use xlink:href="#DejaVuSans-46"/>
      <use xlink:href="#DejaVuSans-41" x="48.394531"/>
      <use xlink:href="#DejaVuSans-53" x="116.802734"/>
      <use xlink:href="#DejaVuSans-50" x="180.279297"/>
      <use xlink:href="#DejaVuSans-52" x="240.582031"/>
      <use xlink:href="#DejaVuSans-20" x="310.064453"/>
      <use xlink:href="#DejaVuSans-30" x="341.851562"/>
     </g>
    </g>
    <g id="line2d_23">
     <path d="M 299.530196 823.434375 
L 324.530196 823.434375 
L 349.530196 823.434375 
" style="fill: none; stroke: #f9d565; stroke-width: 4; stroke-linecap: square"/>
    </g>
    <g id="text_12">
     <!-- FASPR 1 -->
     <g transform="translate(369.530196 832.184375) scale(0.25 -0.25)">
      <use xlink:href="#DejaVuSans-46"/>
      <use xlink:href="#DejaVuSans-41" x="48.394531"/>
      <use xlink:href="#DejaVuSans-53" x="116.802734"/>
      <use xlink:href="#DejaVuSans-50" x="180.279297"/>
      <use xlink:href="#DejaVuSans-52" x="240.582031"/>
      <use xlink:href="#DejaVuSans-20" x="310.064453"/>
      <use xlink:href="#DejaVuSans-31" x="341.851562"/>
     </g>
    </g>
    <g id="line2d_24">
     <path d="M 299.530196 860.129688 
L 324.530196 860.129688 
L 349.530196 860.129688 
" style="fill: none; stroke: #f6f074; stroke-width: 4; stroke-linecap: square"/>
    </g>
    <g id="text_13">
     <!-- FASPR 10 -->
     <g transform="translate(369.530196 868.879688) scale(0.25 -0.25)">
      <use xlink:href="#DejaVuSans-46"/>
      <use xlink:href="#DejaVuSans-41" x="48.394531"/>
      <use xlink:href="#DejaVuSans-53" x="116.802734"/>
      <use xlink:href="#DejaVuSans-50" x="180.279297"/>
      <use xlink:href="#DejaVuSans-52" x="240.582031"/>
      <use xlink:href="#DejaVuSans-20" x="310.064453"/>
      <use xlink:href="#DejaVuSans-31" x="341.851562"/>
      <use xlink:href="#DejaVuSans-30" x="405.474609"/>
     </g>
    </g>
    <g id="line2d_25">
     <path d="M 299.530196 896.825 
L 324.530196 896.825 
L 349.530196 896.825 
" style="fill: none; stroke: #d4005f; stroke-width: 4; stroke-linecap: square"/>
    </g>
    <g id="text_14">
     <!-- CHARMM -->
     <g transform="translate(369.530196 905.575) scale(0.25 -0.25)">
      <defs>
       <path id="DejaVuSans-43" d="M 4122 4306 
L 4122 3641 
Q 3803 3938 3442 4084 
Q 3081 4231 2675 4231 
Q 1875 4231 1450 3742 
Q 1025 3253 1025 2328 
Q 1025 1406 1450 917 
Q 1875 428 2675 428 
Q 3081 428 3442 575 
Q 3803 722 4122 1019 
L 4122 359 
Q 3791 134 3420 21 
Q 3050 -91 2638 -91 
Q 1578 -91 968 557 
Q 359 1206 359 2328 
Q 359 3453 968 4101 
Q 1578 4750 2638 4750 
Q 3056 4750 3426 4639 
Q 3797 4528 4122 4306 
z
" transform="scale(0.015625)"/>
       <path id="DejaVuSans-48" d="M 628 4666 
L 1259 4666 
L 1259 2753 
L 3553 2753 
L 3553 4666 
L 4184 4666 
L 4184 0 
L 3553 0 
L 3553 2222 
L 1259 2222 
L 1259 0 
L 628 0 
L 628 4666 
z
" transform="scale(0.015625)"/>
      </defs>
      <use xlink:href="#DejaVuSans-43"/>
      <use xlink:href="#DejaVuSans-48" x="69.824219"/>
      <use xlink:href="#DejaVuSans-41" x="145.019531"/>
      <use xlink:href="#DejaVuSans-52" x="213.427734"/>
      <use xlink:href="#DejaVuSans-4d" x="282.910156"/>
      <use xlink:href="#DejaVuSans-4d" x="369.189453"/>
     </g>
    </g>
    <g id="line2d_26">
     <path d="M 299.530196 933.520313 
L 324.530196 933.520313 
L 349.530196 933.520313 
" style="fill: none; stroke: #e2448c; stroke-width: 4; stroke-linecap: square"/>
    </g>
    <g id="text_15">
     <!-- CHARMM 0 -->
     <g transform="translate(369.530196 942.270313) scale(0.25 -0.25)">
      <use xlink:href="#DejaVuSans-43"/>
      <use xlink:href="#DejaVuSans-48" x="69.824219"/>
      <use xlink:href="#DejaVuSans-41" x="145.019531"/>
      <use xlink:href="#DejaVuSans-52" x="213.427734"/>
      <use xlink:href="#DejaVuSans-4d" x="282.910156"/>
      <use xlink:href="#DejaVuSans-4d" x="369.189453"/>
      <use xlink:href="#DejaVuSans-20" x="455.46875"/>
      <use xlink:href="#DejaVuSans-30" x="487.255859"/>
     </g>
    </g>
    <g id="line2d_27">
     <path d="M 299.530196 970.215625 
L 324.530196 970.215625 
L 349.530196 970.215625 
" style="fill: none; stroke: #f188b9; stroke-width: 4; stroke-linecap: square"/>
    </g>
    <g id="text_16">
     <!-- CHARMM 1 -->
     <g transform="translate(369.530196 978.965625) scale(0.25 -0.25)">
      <use xlink:href="#DejaVuSans-43"/>
      <use xlink:href="#DejaVuSans-48" x="69.824219"/>
      <use xlink:href="#DejaVuSans-41" x="145.019531"/>
      <use xlink:href="#DejaVuSans-52" x="213.427734"/>
      <use xlink:href="#DejaVuSans-4d" x="282.910156"/>
      <use xlink:href="#DejaVuSans-4d" x="369.189453"/>
      <use xlink:href="#DejaVuSans-20" x="455.46875"/>
      <use xlink:href="#DejaVuSans-31" x="487.255859"/>
     </g>
    </g>
    <g id="line2d_28">
     <path d="M 299.530196 1006.910938 
L 324.530196 1006.910938 
L 349.530196 1006.910938 
" style="fill: none; stroke: #ffcce6; stroke-width: 4; stroke-linecap: square"/>
    </g>
    <g id="text_17">
     <!-- CHARMM 10 -->
     <g transform="translate(369.530196 1015.660938) scale(0.25 -0.25)">
      <use xlink:href="#DejaVuSans-43"/>
      <use xlink:href="#DejaVuSans-48" x="69.824219"/>
      <use xlink:href="#DejaVuSans-41" x="145.019531"/>
      <use xlink:href="#DejaVuSans-52" x="213.427734"/>
      <use xlink:href="#DejaVuSans-4d" x="282.910156"/>
      <use xlink:href="#DejaVuSans-4d" x="369.189453"/>
      <use xlink:href="#DejaVuSans-20" x="455.46875"/>
      <use xlink:href="#DejaVuSans-31" x="487.255859"/>
      <use xlink:href="#DejaVuSans-30" x="550.878906"/>
     </g>
    </g>
   </g>
  </g>
  <g id="axes_2">
   <g id="matplotlib.axis_3">
    <g id="ytick_6">
     <g id="line2d_29">
      <path d="M 473.526467 375.297656 
C 473.526467 367.132015 471.918014 359.045774 468.793158 351.501705 
C 465.668303 343.957636 461.087815 337.102451 455.313835 331.328471 
C 449.539854 325.55449 442.68467 320.974003 435.140601 317.849147 
C 427.596532 314.724291 419.510291 313.115838 411.344649 313.115838 
C 403.179008 313.115838 395.092767 314.724291 387.548698 317.849147 
C 380.004629 320.974003 373.149444 325.55449 367.375464 331.328471 
C 361.601483 337.102451 357.020996 343.957636 353.89614 351.501705 
C 350.771284 359.045774 349.162831 367.132015 349.162831 375.297656 
C 349.162831 383.463298 350.771284 391.549539 353.89614 399.093608 
C 357.020996 406.637677 361.601483 413.492861 367.375464 419.266842 
C 373.149444 425.040822 380.004629 429.62131 387.548698 432.746165 
C 395.092767 435.871021 403.179008 437.479474 411.344649 437.479474 
C 419.510291 437.479474 427.596532 435.871021 435.140601 432.746165 
C 442.68467 429.62131 449.539854 425.040822 455.313835 419.266842 
C 461.087815 413.492861 465.668303 406.637677 468.793158 399.093608 
C 471.918014 391.549539 473.526467 383.463298 473.526467 375.297656 
" clip-path="url(#p15932e203b)" style="fill: none; stroke: #b0b0b0; stroke-width: 0.1; stroke-linecap: square"/>
     </g>
     <g id="text_18">
      <!-- 2.0 -->
      <g transform="translate(362.728946 332.368552) scale(0.2 -0.2)">
       <use xlink:href="#DejaVuSans-32"/>
       <use xlink:href="#DejaVuSans-2e" x="63.623047"/>
       <use xlink:href="#DejaVuSans-30" x="95.410156"/>
      </g>
     </g>
    </g>
    <g id="ytick_7">
     <g id="line2d_30">
      <path d="M 535.708286 375.297656 
C 535.708286 358.966373 532.491379 342.793891 526.241667 327.705753 
C 519.991956 312.617615 510.830981 298.907247 499.28302 287.359286 
C 487.735059 275.811325 474.024691 266.650349 458.936552 260.400638 
C 443.848414 254.150927 427.675932 250.93402 411.344649 250.93402 
C 395.013366 250.93402 378.840884 254.150927 363.752746 260.400638 
C 348.664608 266.650349 334.95424 275.811325 323.406279 287.359286 
C 311.858318 298.907247 302.697342 312.617615 296.447631 327.705753 
C 290.19792 342.793891 286.981013 358.966373 286.981013 375.297656 
C 286.981013 391.628939 290.19792 407.801421 296.447631 422.889559 
C 302.697342 437.977698 311.858318 451.688066 323.406279 463.236027 
C 334.95424 474.783988 348.664608 483.944963 363.752746 490.194674 
C 378.840884 496.444386 395.013366 499.661293 411.344649 499.661293 
C 427.675932 499.661293 443.848414 496.444386 458.936552 490.194674 
C 474.024691 483.944963 487.735059 474.783988 499.28302 463.236027 
C 510.830981 451.688066 519.991956 437.977698 526.241667 422.889559 
C 532.491379 407.801421 535.708286 391.628939 535.708286 375.297656 
" clip-path="url(#p15932e203b)" style="fill: none; stroke: #b0b0b0; stroke-width: 0.1; stroke-linecap: square"/>
     </g>
    </g>
    <g id="ytick_8">
     <g id="line2d_31">
      <path d="M 597.890104 375.297656 
C 597.890104 350.800732 593.064744 326.542009 583.690177 303.909801 
C 574.315609 281.277594 560.574147 260.712042 543.252205 243.3901 
C 525.930264 226.068159 505.364711 212.326696 482.732504 202.952129 
C 460.100297 193.577562 435.841574 188.752202 411.344649 188.752202 
C 386.847725 188.752202 362.589002 193.577562 339.956794 202.952129 
C 317.324587 212.326696 296.759035 226.068159 279.437093 243.3901 
C 262.115152 260.712042 248.373689 281.277594 238.999122 303.909801 
C 229.624555 326.542009 224.799195 350.800732 224.799195 375.297656 
C 224.799195 399.794581 229.624555 424.053304 238.999122 446.685511 
C 248.373689 469.317718 262.115152 489.883271 279.437093 507.205212 
C 296.759035 524.527154 317.324587 538.268616 339.956794 547.643184 
C 362.589002 557.017751 386.847725 561.843111 411.344649 561.843111 
C 435.841574 561.843111 460.100297 557.017751 482.732504 547.643184 
C 505.364711 538.268616 525.930264 524.527154 543.252205 507.205212 
C 560.574147 489.883271 574.315609 469.317718 583.690177 446.685511 
C 593.064744 424.053304 597.890104 399.794581 597.890104 375.297656 
" clip-path="url(#p15932e203b)" style="fill: none; stroke: #b0b0b0; stroke-width: 0.1; stroke-linecap: square"/>
     </g>
    </g>
    <g id="ytick_9">
     <g id="line2d_32">
      <path d="M 660.071922 375.297656 
C 660.071922 342.63509 653.638109 310.290126 641.138686 280.11385 
C 628.639263 249.937573 610.317312 222.516837 587.22139 199.420915 
C 564.125468 176.324993 536.704732 158.003043 506.528456 145.50362 
C 476.352179 133.004197 444.007215 126.570384 411.344649 126.570384 
C 378.682083 126.570384 346.337119 133.004197 316.160843 145.50362 
C 285.984566 158.003043 258.56383 176.324993 235.467908 199.420915 
C 212.371986 222.516837 194.050036 249.937573 181.550613 280.11385 
C 169.05119 310.290126 162.617377 342.63509 162.617377 375.297656 
C 162.617377 407.960222 169.05119 440.305186 181.550613 470.481463 
C 194.050036 500.657739 212.371986 528.078475 235.467908 551.174397 
C 258.56383 574.27032 285.984566 592.59227 316.160843 605.091693 
C 346.337119 617.591116 378.682083 624.024929 411.344649 624.024929 
C 444.007215 624.024929 476.352179 617.591116 506.528456 605.091693 
C 536.704732 592.59227 564.125468 574.27032 587.22139 551.174397 
C 610.317312 528.078475 628.639263 500.657739 641.138686 470.481463 
C 653.638109 440.305186 660.071922 407.960222 660.071922 375.297656 
" clip-path="url(#p15932e203b)" style="fill: none; stroke: #b0b0b0; stroke-width: 0.1; stroke-linecap: square"/>
     </g>
    </g>
    <g id="ytick_10">
     <g id="line2d_33">
      <path d="M 722.25374 375.297656 
C 722.25374 334.469449 714.211473 294.038244 698.587195 256.317898 
C 682.962916 218.597553 660.060478 184.321632 631.190576 155.45173 
C 602.320673 126.581827 568.044753 103.679389 530.324407 88.055111 
C 492.604062 72.430832 452.172857 64.388565 411.344649 64.388565 
C 370.516442 64.388565 330.085237 72.430832 292.364891 88.055111 
C 254.644546 103.679389 220.368625 126.581827 191.498723 155.45173 
C 162.62882 184.321632 139.726382 218.597553 124.102104 256.317898 
C 108.477825 294.038244 100.435558 334.469449 100.435558 375.297656 
C 100.435558 416.125864 108.477825 456.557069 124.102104 494.277414 
C 139.726382 531.99776 162.62882 566.27368 191.498723 595.143583 
C 220.368625 624.013485 254.644546 646.915923 292.364891 662.540202 
C 330.085237 678.16448 370.516442 686.206747 411.344649 686.206747 
C 452.172857 686.206747 492.604062 678.16448 530.324407 662.540202 
C 568.044753 646.915923 602.320673 624.013485 631.190576 595.143583 
C 660.060478 566.27368 682.962916 531.99776 698.587195 494.277414 
C 714.211473 456.557069 722.25374 416.125864 722.25374 375.297656 
" clip-path="url(#p15932e203b)" style="fill: none; stroke: #b0b0b0; stroke-width: 0.1; stroke-linecap: square"/>
     </g>
     <g id="text_19">
      <!-- 0.95 -->
      <g transform="translate(168.266134 177.289634) scale(0.2 -0.2)">
       <defs>
        <path id="DejaVuSans-39" d="M 703 97 
L 703 672 
Q 941 559 1184 500 
Q 1428 441 1663 441 
Q 2288 441 2617 861 
Q 2947 1281 2994 2138 
Q 2813 1869 2534 1725 
Q 2256 1581 1919 1581 
Q 1219 1581 811 2004 
Q 403 2428 403 3163 
Q 403 3881 828 4315 
Q 1253 4750 1959 4750 
Q 2769 4750 3195 4129 
Q 3622 3509 3622 2328 
Q 3622 1225 3098 567 
Q 2575 -91 1691 -91 
Q 1453 -91 1209 -44 
Q 966 3 703 97 
z
M 1959 2075 
Q 2384 2075 2632 2365 
Q 2881 2656 2881 3163 
Q 2881 3666 2632 3958 
Q 2384 4250 1959 4250 
Q 1534 4250 1286 3958 
Q 1038 3666 1038 3163 
Q 1038 2656 1286 2365 
Q 1534 2075 1959 2075 
z
" transform="scale(0.015625)"/>
        <path id="DejaVuSans-35" d="M 691 4666 
L 3169 4666 
L 3169 4134 
L 1269 4134 
L 1269 2991 
Q 1406 3038 1543 3061 
Q 1681 3084 1819 3084 
Q 2600 3084 3056 2656 
Q 3513 2228 3513 1497 
Q 3513 744 3044 326 
Q 2575 -91 1722 -91 
Q 1428 -91 1123 -41 
Q 819 9 494 109 
L 494 744 
Q 775 591 1075 516 
Q 1375 441 1709 441 
Q 2250 441 2565 725 
Q 2881 1009 2881 1497 
Q 2881 1984 2565 2268 
Q 2250 2553 1709 2553 
Q 1456 2553 1204 2497 
Q 953 2441 691 2322 
L 691 4666 
z
" transform="scale(0.015625)"/>
       </defs>
       <use xlink:href="#DejaVuSans-30"/>
       <use xlink:href="#DejaVuSans-2e" x="63.623047"/>
       <use xlink:href="#DejaVuSans-39" x="95.410156"/>
       <use xlink:href="#DejaVuSans-35" x="159.033203"/>
      </g>
     </g>
    </g>
   </g>
  </g>
  <g id="axes_3">
   <g id="matplotlib.axis_4">
    <g id="ytick_11">
     <g id="line2d_34">
      <path d="M 473.526467 375.297656 
C 473.526467 367.132015 471.918014 359.045774 468.793158 351.501705 
C 465.668303 343.957636 461.087815 337.102451 455.313835 331.328471 
C 449.539854 325.55449 442.68467 320.974003 435.140601 317.849147 
C 427.596532 314.724291 419.510291 313.115838 411.344649 313.115838 
C 403.179008 313.115838 395.092767 314.724291 387.548698 317.849147 
C 380.004629 320.974003 373.149444 325.55449 367.375464 331.328471 
C 361.601483 337.102451 357.020996 343.957636 353.89614 351.501705 
C 350.771284 359.045774 349.162831 367.132015 349.162831 375.297656 
C 349.162831 383.463298 350.771284 391.549539 353.89614 399.093608 
C 357.020996 406.637677 361.601483 413.492861 367.375464 419.266842 
C 373.149444 425.040822 380.004629 429.62131 387.548698 432.746165 
C 395.092767 435.871021 403.179008 437.479474 411.344649 437.479474 
C 419.510291 437.479474 427.596532 435.871021 435.140601 432.746165 
C 442.68467 429.62131 449.539854 425.040822 455.313835 419.266842 
C 461.087815 413.492861 465.668303 406.637677 468.793158 399.093608 
C 471.918014 391.549539 473.526467 383.463298 473.526467 375.297656 
" clip-path="url(#p5c66347f3b)" style="fill: none; stroke: #b0b0b0; stroke-width: 0.1; stroke-linecap: square"/>
     </g>
     <g id="text_20">
      <!-- 0.15 -->
      <g transform="translate(350.721859 384.975038) scale(0.2 -0.2)">
       <use xlink:href="#DejaVuSans-30"/>
       <use xlink:href="#DejaVuSans-2e" x="63.623047"/>
       <use xlink:href="#DejaVuSans-31" x="95.410156"/>
       <use xlink:href="#DejaVuSans-35" x="159.033203"/>
      </g>
     </g>
    </g>
    <g id="ytick_12">
     <g id="line2d_35">
      <path d="M 535.708286 375.297656 
C 535.708286 358.966373 532.491379 342.793891 526.241667 327.705753 
C 519.991956 312.617615 510.830981 298.907247 499.28302 287.359286 
C 487.735059 275.811325 474.024691 266.650349 458.936552 260.400638 
C 443.848414 254.150927 427.675932 250.93402 411.344649 250.93402 
C 395.013366 250.93402 378.840884 254.150927 363.752746 260.400638 
C 348.664608 266.650349 334.95424 275.811325 323.406279 287.359286 
C 311.858318 298.907247 302.697342 312.617615 296.447631 327.705753 
C 290.19792 342.793891 286.981013 358.966373 286.981013 375.297656 
C 286.981013 391.628939 290.19792 407.801421 296.447631 422.889559 
C 302.697342 437.977698 311.858318 451.688066 323.406279 463.236027 
C 334.95424 474.783988 348.664608 483.944963 363.752746 490.194674 
C 378.840884 496.444386 395.013366 499.661293 411.344649 499.661293 
C 427.675932 499.661293 443.848414 496.444386 458.936552 490.194674 
C 474.024691 483.944963 487.735059 474.783988 499.28302 463.236027 
C 510.830981 451.688066 519.991956 437.977698 526.241667 422.889559 
C 532.491379 407.801421 535.708286 391.628939 535.708286 375.297656 
" clip-path="url(#p5c66347f3b)" style="fill: none; stroke: #b0b0b0; stroke-width: 0.1; stroke-linecap: square"/>
     </g>
    </g>
    <g id="ytick_13">
     <g id="line2d_36">
      <path d="M 597.890104 375.297656 
C 597.890104 350.800732 593.064744 326.542009 583.690177 303.909801 
C 574.315609 281.277594 560.574147 260.712042 543.252205 243.3901 
C 525.930264 226.068159 505.364711 212.326696 482.732504 202.952129 
C 460.100297 193.577562 435.841574 188.752202 411.344649 188.752202 
C 386.847725 188.752202 362.589002 193.577562 339.956794 202.952129 
C 317.324587 212.326696 296.759035 226.068159 279.437093 243.3901 
C 262.115152 260.712042 248.373689 281.277594 238.999122 303.909801 
C 229.624555 326.542009 224.799195 350.800732 224.799195 375.297656 
C 224.799195 399.794581 229.624555 424.053304 238.999122 446.685511 
C 248.373689 469.317718 262.115152 489.883271 279.437093 507.205212 
C 296.759035 524.527154 317.324587 538.268616 339.956794 547.643184 
C 362.589002 557.017751 386.847725 561.843111 411.344649 561.843111 
C 435.841574 561.843111 460.100297 557.017751 482.732504 547.643184 
C 505.364711 538.268616 525.930264 524.527154 543.252205 507.205212 
C 560.574147 489.883271 574.315609 469.317718 583.690177 446.685511 
C 593.064744 424.053304 597.890104 399.794581 597.890104 375.297656 
" clip-path="url(#p5c66347f3b)" style="fill: none; stroke: #b0b0b0; stroke-width: 0.1; stroke-linecap: square"/>
     </g>
    </g>
    <g id="ytick_14">
     <g id="line2d_37">
      <path d="M 660.071922 375.297656 
C 660.071922 342.63509 653.638109 310.290126 641.138686 280.11385 
C 628.639263 249.937573 610.317312 222.516837 587.22139 199.420915 
C 564.125468 176.324993 536.704732 158.003043 506.528456 145.50362 
C 476.352179 133.004197 444.007215 126.570384 411.344649 126.570384 
C 378.682083 126.570384 346.337119 133.004197 316.160843 145.50362 
C 285.984566 158.003043 258.56383 176.324993 235.467908 199.420915 
C 212.371986 222.516837 194.050036 249.937573 181.550613 280.11385 
C 169.05119 310.290126 162.617377 342.63509 162.617377 375.297656 
C 162.617377 407.960222 169.05119 440.305186 181.550613 470.481463 
C 194.050036 500.657739 212.371986 528.078475 235.467908 551.174397 
C 258.56383 574.27032 285.984566 592.59227 316.160843 605.091693 
C 346.337119 617.591116 378.682083 624.024929 411.344649 624.024929 
C 444.007215 624.024929 476.352179 617.591116 506.528456 605.091693 
C 536.704732 592.59227 564.125468 574.27032 587.22139 551.174397 
C 610.317312 528.078475 628.639263 500.657739 641.138686 470.481463 
C 653.638109 440.305186 660.071922 407.960222 660.071922 375.297656 
" clip-path="url(#p5c66347f3b)" style="fill: none; stroke: #b0b0b0; stroke-width: 0.1; stroke-linecap: square"/>
     </g>
    </g>
    <g id="ytick_15">
     <g id="line2d_38">
      <path d="M 722.25374 375.297656 
C 722.25374 334.469449 714.211473 294.038244 698.587195 256.317898 
C 682.962916 218.597553 660.060478 184.321632 631.190576 155.45173 
C 602.320673 126.581827 568.044753 103.679389 530.324407 88.055111 
C 492.604062 72.430832 452.172857 64.388565 411.344649 64.388565 
C 370.516442 64.388565 330.085237 72.430832 292.364891 88.055111 
C 254.644546 103.679389 220.368625 126.581827 191.498723 155.45173 
C 162.62882 184.321632 139.726382 218.597553 124.102104 256.317898 
C 108.477825 294.038244 100.435558 334.469449 100.435558 375.297656 
C 100.435558 416.125864 108.477825 456.557069 124.102104 494.277414 
C 139.726382 531.99776 162.62882 566.27368 191.498723 595.143583 
C 220.368625 624.013485 254.644546 646.915923 292.364891 662.540202 
C 330.085237 678.16448 370.516442 686.206747 411.344649 686.206747 
C 452.172857 686.206747 492.604062 678.16448 530.324407 662.540202 
C 568.044753 646.915923 602.320673 624.013485 631.190576 595.143583 
C 660.060478 566.27368 682.962916 531.99776 698.587195 494.277414 
C 714.211473 456.557069 722.25374 416.125864 722.25374 375.297656 
" clip-path="url(#p5c66347f3b)" style="fill: none; stroke: #b0b0b0; stroke-width: 0.1; stroke-linecap: square"/>
     </g>
     <g id="text_21">
      <!-- 0.5 -->
      <g transform="translate(108.230698 440.322063) scale(0.2 -0.2)">
       <use xlink:href="#DejaVuSans-30"/>
       <use xlink:href="#DejaVuSans-2e" x="63.623047"/>
       <use xlink:href="#DejaVuSans-35" x="95.410156"/>
      </g>
     </g>
    </g>
   </g>
  </g>
  <g id="axes_4">
   <g id="matplotlib.axis_5">
    <g id="ytick_16">
     <g id="line2d_39">
      <path d="M 473.526467 375.297656 
C 473.526467 367.132015 471.918014 359.045774 468.793158 351.501705 
C 465.668303 343.957636 461.087815 337.102451 455.313835 331.328471 
C 449.539854 325.55449 442.68467 320.974003 435.140601 317.849147 
C 427.596532 314.724291 419.510291 313.115838 411.344649 313.115838 
C 403.179008 313.115838 395.092767 314.724291 387.548698 317.849147 
C 380.004629 320.974003 373.149444 325.55449 367.375464 331.328471 
C 361.601483 337.102451 357.020996 343.957636 353.89614 351.501705 
C 350.771284 359.045774 349.162831 367.132015 349.162831 375.297656 
C 349.162831 383.463298 350.771284 391.549539 353.89614 399.093608 
C 357.020996 406.637677 361.601483 413.492861 367.375464 419.266842 
C 373.149444 425.040822 380.004629 429.62131 387.548698 432.746165 
C 395.092767 435.871021 403.179008 437.479474 411.344649 437.479474 
C 419.510291 437.479474 427.596532 435.871021 435.140601 432.746165 
C 442.68467 429.62131 449.539854 425.040822 455.313835 419.266842 
C 461.087815 413.492861 465.668303 406.637677 468.793158 399.093608 
C 471.918014 391.549539 473.526467 383.463298 473.526467 375.297656 
" clip-path="url(#p7731f5116c)" style="fill: none; stroke: #b0b0b0; stroke-width: 0.1; stroke-linecap: square"/>
     </g>
     <g id="text_22">
      <!-- 55.5 -->
      <g transform="translate(384.364969 427.162164) scale(0.2 -0.2)">
       <use xlink:href="#DejaVuSans-35"/>
       <use xlink:href="#DejaVuSans-35" x="63.623047"/>
       <use xlink:href="#DejaVuSans-2e" x="127.246094"/>
       <use xlink:href="#DejaVuSans-35" x="159.033203"/>
      </g>
     </g>
    </g>
    <g id="ytick_17">
     <g id="line2d_40">
      <path d="M 535.708286 375.297656 
C 535.708286 358.966373 532.491379 342.793891 526.241667 327.705753 
C 519.991956 312.617615 510.830981 298.907247 499.28302 287.359286 
C 487.735059 275.811325 474.024691 266.650349 458.936552 260.400638 
C 443.848414 254.150927 427.675932 250.93402 411.344649 250.93402 
C 395.013366 250.93402 378.840884 254.150927 363.752746 260.400638 
C 348.664608 266.650349 334.95424 275.811325 323.406279 287.359286 
C 311.858318 298.907247 302.697342 312.617615 296.447631 327.705753 
C 290.19792 342.793891 286.981013 358.966373 286.981013 375.297656 
C 286.981013 391.628939 290.19792 407.801421 296.447631 422.889559 
C 302.697342 437.977698 311.858318 451.688066 323.406279 463.236027 
C 334.95424 474.783988 348.664608 483.944963 363.752746 490.194674 
C 378.840884 496.444386 395.013366 499.661293 411.344649 499.661293 
C 427.675932 499.661293 443.848414 496.444386 458.936552 490.194674 
C 474.024691 483.944963 487.735059 474.783988 499.28302 463.236027 
C 510.830981 451.688066 519.991956 437.977698 526.241667 422.889559 
C 532.491379 407.801421 535.708286 391.628939 535.708286 375.297656 
" clip-path="url(#p7731f5116c)" style="fill: none; stroke: #b0b0b0; stroke-width: 0.1; stroke-linecap: square"/>
     </g>
    </g>
    <g id="ytick_18">
     <g id="line2d_41">
      <path d="M 597.890104 375.297656 
C 597.890104 350.800732 593.064744 326.542009 583.690177 303.909801 
C 574.315609 281.277594 560.574147 260.712042 543.252205 243.3901 
C 525.930264 226.068159 505.364711 212.326696 482.732504 202.952129 
C 460.100297 193.577562 435.841574 188.752202 411.344649 188.752202 
C 386.847725 188.752202 362.589002 193.577562 339.956794 202.952129 
C 317.324587 212.326696 296.759035 226.068159 279.437093 243.3901 
C 262.115152 260.712042 248.373689 281.277594 238.999122 303.909801 
C 229.624555 326.542009 224.799195 350.800732 224.799195 375.297656 
C 224.799195 399.794581 229.624555 424.053304 238.999122 446.685511 
C 248.373689 469.317718 262.115152 489.883271 279.437093 507.205212 
C 296.759035 524.527154 317.324587 538.268616 339.956794 547.643184 
C 362.589002 557.017751 386.847725 561.843111 411.344649 561.843111 
C 435.841574 561.843111 460.100297 557.017751 482.732504 547.643184 
C 505.364711 538.268616 525.930264 524.527154 543.252205 507.205212 
C 560.574147 489.883271 574.315609 469.317718 583.690177 446.685511 
C 593.064744 424.053304 597.890104 399.794581 597.890104 375.297656 
" clip-path="url(#p7731f5116c)" style="fill: none; stroke: #b0b0b0; stroke-width: 0.1; stroke-linecap: square"/>
     </g>
    </g>
    <g id="ytick_19">
     <g id="line2d_42">
      <path d="M 660.071922 375.297656 
C 660.071922 342.63509 653.638109 310.290126 641.138686 280.11385 
C 628.639263 249.937573 610.317312 222.516837 587.22139 199.420915 
C 564.125468 176.324993 536.704732 158.003043 506.528456 145.50362 
C 476.352179 133.004197 444.007215 126.570384 411.344649 126.570384 
C 378.682083 126.570384 346.337119 133.004197 316.160843 145.50362 
C 285.984566 158.003043 258.56383 176.324993 235.467908 199.420915 
C 212.371986 222.516837 194.050036 249.937573 181.550613 280.11385 
C 169.05119 310.290126 162.617377 342.63509 162.617377 375.297656 
C 162.617377 407.960222 169.05119 440.305186 181.550613 470.481463 
C 194.050036 500.657739 212.371986 528.078475 235.467908 551.174397 
C 258.56383 574.27032 285.984566 592.59227 316.160843 605.091693 
C 346.337119 617.591116 378.682083 624.024929 411.344649 624.024929 
C 444.007215 624.024929 476.352179 617.591116 506.528456 605.091693 
C 536.704732 592.59227 564.125468 574.27032 587.22139 551.174397 
C 610.317312 528.078475 628.639263 500.657739 641.138686 470.481463 
C 653.638109 440.305186 660.071922 407.960222 660.071922 375.297656 
" clip-path="url(#p7731f5116c)" style="fill: none; stroke: #b0b0b0; stroke-width: 0.1; stroke-linecap: square"/>
     </g>
    </g>
    <g id="ytick_20">
     <g id="line2d_43">
      <path d="M 722.25374 375.297656 
C 722.25374 334.469449 714.211473 294.038244 698.587195 256.317898 
C 682.962916 218.597553 660.060478 184.321632 631.190576 155.45173 
C 602.320673 126.581827 568.044753 103.679389 530.324407 88.055111 
C 492.604062 72.430832 452.172857 64.388565 411.344649 64.388565 
C 370.516442 64.388565 330.085237 72.430832 292.364891 88.055111 
C 254.644546 103.679389 220.368625 126.581827 191.498723 155.45173 
C 162.62882 184.321632 139.726382 218.597553 124.102104 256.317898 
C 108.477825 294.038244 100.435558 334.469449 100.435558 375.297656 
C 100.435558 416.125864 108.477825 456.557069 124.102104 494.277414 
C 139.726382 531.99776 162.62882 566.27368 191.498723 595.143583 
C 220.368625 624.013485 254.644546 646.915923 292.364891 662.540202 
C 330.085237 678.16448 370.516442 686.206747 411.344649 686.206747 
C 452.172857 686.206747 492.604062 678.16448 530.324407 662.540202 
C 568.044753 646.915923 602.320673 624.013485 631.190576 595.143583 
C 660.060478 566.27368 682.962916 531.99776 698.587195 494.277414 
C 714.211473 456.557069 722.25374 416.125864 722.25374 375.297656 
" clip-path="url(#p7731f5116c)" style="fill: none; stroke: #b0b0b0; stroke-width: 0.1; stroke-linecap: square"/>
     </g>
     <g id="text_23">
      <!-- 49.5 -->
      <g transform="translate(276.44625 651.257693) scale(0.2 -0.2)">
       <use xlink:href="#DejaVuSans-34"/>
       <use xlink:href="#DejaVuSans-39" x="63.623047"/>
       <use xlink:href="#DejaVuSans-2e" x="127.246094"/>
       <use xlink:href="#DejaVuSans-35" x="159.033203"/>
      </g>
     </g>
    </g>
   </g>
  </g>
  <g id="axes_5">
   <g id="matplotlib.axis_6">
    <g id="ytick_21">
     <g id="line2d_44">
      <path d="M 473.526467 375.297656 
C 473.526467 367.132015 471.918014 359.045774 468.793158 351.501705 
C 465.668303 343.957636 461.087815 337.102451 455.313835 331.328471 
C 449.539854 325.55449 442.68467 320.974003 435.140601 317.849147 
C 427.596532 314.724291 419.510291 313.115838 411.344649 313.115838 
C 403.179008 313.115838 395.092767 314.724291 387.548698 317.849147 
C 380.004629 320.974003 373.149444 325.55449 367.375464 331.328471 
C 361.601483 337.102451 357.020996 343.957636 353.89614 351.501705 
C 350.771284 359.045774 349.162831 367.132015 349.162831 375.297656 
C 349.162831 383.463298 350.771284 391.549539 353.89614 399.093608 
C 357.020996 406.637677 361.601483 413.492861 367.375464 419.266842 
C 373.149444 425.040822 380.004629 429.62131 387.548698 432.746165 
C 395.092767 435.871021 403.179008 437.479474 411.344649 437.479474 
C 419.510291 437.479474 427.596532 435.871021 435.140601 432.746165 
C 442.68467 429.62131 449.539854 425.040822 455.313835 419.266842 
C 461.087815 413.492861 465.668303 406.637677 468.793158 399.093608 
C 471.918014 391.549539 473.526467 383.463298 473.526467 375.297656 
" clip-path="url(#pfc221fe344)" style="fill: none; stroke: #b0b0b0; stroke-width: 0.1; stroke-linecap: square"/>
     </g>
     <g id="text_24">
      <!-- 56.0 -->
      <g transform="translate(438.324329 427.162164) scale(0.2 -0.2)">
       <defs>
        <path id="DejaVuSans-36" d="M 2113 2584 
Q 1688 2584 1439 2293 
Q 1191 2003 1191 1497 
Q 1191 994 1439 701 
Q 1688 409 2113 409 
Q 2538 409 2786 701 
Q 3034 994 3034 1497 
Q 3034 2003 2786 2293 
Q 2538 2584 2113 2584 
z
M 3366 4563 
L 3366 3988 
Q 3128 4100 2886 4159 
Q 2644 4219 2406 4219 
Q 1781 4219 1451 3797 
Q 1122 3375 1075 2522 
Q 1259 2794 1537 2939 
Q 1816 3084 2150 3084 
Q 2853 3084 3261 2657 
Q 3669 2231 3669 1497 
Q 3669 778 3244 343 
Q 2819 -91 2113 -91 
Q 1303 -91 875 529 
Q 447 1150 447 2328 
Q 447 3434 972 4092 
Q 1497 4750 2381 4750 
Q 2619 4750 2861 4703 
Q 3103 4656 3366 4563 
z
" transform="scale(0.015625)"/>
       </defs>
       <use xlink:href="#DejaVuSans-35"/>
       <use xlink:href="#DejaVuSans-36" x="63.623047"/>
       <use xlink:href="#DejaVuSans-2e" x="127.246094"/>
       <use xlink:href="#DejaVuSans-30" x="159.033203"/>
      </g>
     </g>
    </g>
    <g id="ytick_22">
     <g id="line2d_45">
      <path d="M 535.708286 375.297656 
C 535.708286 358.966373 532.491379 342.793891 526.241667 327.705753 
C 519.991956 312.617615 510.830981 298.907247 499.28302 287.359286 
C 487.735059 275.811325 474.024691 266.650349 458.936552 260.400638 
C 443.848414 254.150927 427.675932 250.93402 411.344649 250.93402 
C 395.013366 250.93402 378.840884 254.150927 363.752746 260.400638 
C 348.664608 266.650349 334.95424 275.811325 323.406279 287.359286 
C 311.858318 298.907247 302.697342 312.617615 296.447631 327.705753 
C 290.19792 342.793891 286.981013 358.966373 286.981013 375.297656 
C 286.981013 391.628939 290.19792 407.801421 296.447631 422.889559 
C 302.697342 437.977698 311.858318 451.688066 323.406279 463.236027 
C 334.95424 474.783988 348.664608 483.944963 363.752746 490.194674 
C 378.840884 496.444386 395.013366 499.661293 411.344649 499.661293 
C 427.675932 499.661293 443.848414 496.444386 458.936552 490.194674 
C 474.024691 483.944963 487.735059 474.783988 499.28302 463.236027 
C 510.830981 451.688066 519.991956 437.977698 526.241667 422.889559 
C 532.491379 407.801421 535.708286 391.628939 535.708286 375.297656 
" clip-path="url(#pfc221fe344)" style="fill: none; stroke: #b0b0b0; stroke-width: 0.1; stroke-linecap: square"/>
     </g>
    </g>
    <g id="ytick_23">
     <g id="line2d_46">
      <path d="M 597.890104 375.297656 
C 597.890104 350.800732 593.064744 326.542009 583.690177 303.909801 
C 574.315609 281.277594 560.574147 260.712042 543.252205 243.3901 
C 525.930264 226.068159 505.364711 212.326696 482.732504 202.952129 
C 460.100297 193.577562 435.841574 188.752202 411.344649 188.752202 
C 386.847725 188.752202 362.589002 193.577562 339.956794 202.952129 
C 317.324587 212.326696 296.759035 226.068159 279.437093 243.3901 
C 262.115152 260.712042 248.373689 281.277594 238.999122 303.909801 
C 229.624555 326.542009 224.799195 350.800732 224.799195 375.297656 
C 224.799195 399.794581 229.624555 424.053304 238.999122 446.685511 
C 248.373689 469.317718 262.115152 489.883271 279.437093 507.205212 
C 296.759035 524.527154 317.324587 538.268616 339.956794 547.643184 
C 362.589002 557.017751 386.847725 561.843111 411.344649 561.843111 
C 435.841574 561.843111 460.100297 557.017751 482.732504 547.643184 
C 505.364711 538.268616 525.930264 524.527154 543.252205 507.205212 
C 560.574147 489.883271 574.315609 469.317718 583.690177 446.685511 
C 593.064744 424.053304 597.890104 399.794581 597.890104 375.297656 
" clip-path="url(#pfc221fe344)" style="fill: none; stroke: #b0b0b0; stroke-width: 0.1; stroke-linecap: square"/>
     </g>
    </g>
    <g id="ytick_24">
     <g id="line2d_47">
      <path d="M 660.071922 375.297656 
C 660.071922 342.63509 653.638109 310.290126 641.138686 280.11385 
C 628.639263 249.937573 610.317312 222.516837 587.22139 199.420915 
C 564.125468 176.324993 536.704732 158.003043 506.528456 145.50362 
C 476.352179 133.004197 444.007215 126.570384 411.344649 126.570384 
C 378.682083 126.570384 346.337119 133.004197 316.160843 145.50362 
C 285.984566 158.003043 258.56383 176.324993 235.467908 199.420915 
C 212.371986 222.516837 194.050036 249.937573 181.550613 280.11385 
C 169.05119 310.290126 162.617377 342.63509 162.617377 375.297656 
C 162.617377 407.960222 169.05119 440.305186 181.550613 470.481463 
C 194.050036 500.657739 212.371986 528.078475 235.467908 551.174397 
C 258.56383 574.27032 285.984566 592.59227 316.160843 605.091693 
C 346.337119 617.591116 378.682083 624.024929 411.344649 624.024929 
C 444.007215 624.024929 476.352179 617.591116 506.528456 605.091693 
C 536.704732 592.59227 564.125468 574.27032 587.22139 551.174397 
C 610.317312 528.078475 628.639263 500.657739 641.138686 470.481463 
C 653.638109 440.305186 660.071922 407.960222 660.071922 375.297656 
" clip-path="url(#pfc221fe344)" style="fill: none; stroke: #b0b0b0; stroke-width: 0.1; stroke-linecap: square"/>
     </g>
    </g>
    <g id="ytick_25">
     <g id="line2d_48">
      <path d="M 722.25374 375.297656 
C 722.25374 334.469449 714.211473 294.038244 698.587195 256.317898 
C 682.962916 218.597553 660.060478 184.321632 631.190576 155.45173 
C 602.320673 126.581827 568.044753 103.679389 530.324407 88.055111 
C 492.604062 72.430832 452.172857 64.388565 411.344649 64.388565 
C 370.516442 64.388565 330.085237 72.430832 292.364891 88.055111 
C 254.644546 103.679389 220.368625 126.581827 191.498723 155.45173 
C 162.62882 184.321632 139.726382 218.597553 124.102104 256.317898 
C 108.477825 294.038244 100.435558 334.469449 100.435558 375.297656 
C 100.435558 416.125864 108.477825 456.557069 124.102104 494.277414 
C 139.726382 531.99776 162.62882 566.27368 191.498723 595.143583 
C 220.368625 624.013485 254.644546 646.915923 292.364891 662.540202 
C 330.085237 678.16448 370.516442 686.206747 411.344649 686.206747 
C 452.172857 686.206747 492.604062 678.16448 530.324407 662.540202 
C 568.044753 646.915923 602.320673 624.013485 631.190576 595.143583 
C 660.060478 566.27368 682.962916 531.99776 698.587195 494.277414 
C 714.211473 456.557069 722.25374 416.125864 722.25374 375.297656 
" clip-path="url(#pfc221fe344)" style="fill: none; stroke: #b0b0b0; stroke-width: 0.1; stroke-linecap: square"/>
     </g>
     <g id="text_25">
      <!-- 46.0 -->
      <g transform="translate(546.243048 651.257693) scale(0.2 -0.2)">
       <use xlink:href="#DejaVuSans-34"/>
       <use xlink:href="#DejaVuSans-36" x="63.623047"/>
       <use xlink:href="#DejaVuSans-2e" x="127.246094"/>
       <use xlink:href="#DejaVuSans-30" x="159.033203"/>
      </g>
     </g>
    </g>
   </g>
  </g>
  <g id="axes_6">
   <g id="matplotlib.axis_7">
    <g id="ytick_26">
     <g id="line2d_49">
      <path d="M 473.526467 375.297656 
C 473.526467 367.132015 471.918014 359.045774 468.793158 351.501705 
C 465.668303 343.957636 461.087815 337.102451 455.313835 331.328471 
C 449.539854 325.55449 442.68467 320.974003 435.140601 317.849147 
C 427.596532 314.724291 419.510291 313.115838 411.344649 313.115838 
C 403.179008 313.115838 395.092767 314.724291 387.548698 317.849147 
C 380.004629 320.974003 373.149444 325.55449 367.375464 331.328471 
C 361.601483 337.102451 357.020996 343.957636 353.89614 351.501705 
C 350.771284 359.045774 349.162831 367.132015 349.162831 375.297656 
C 349.162831 383.463298 350.771284 391.549539 353.89614 399.093608 
C 357.020996 406.637677 361.601483 413.492861 367.375464 419.266842 
C 373.149444 425.040822 380.004629 429.62131 387.548698 432.746165 
C 395.092767 435.871021 403.179008 437.479474 411.344649 437.479474 
C 419.510291 437.479474 427.596532 435.871021 435.140601 432.746165 
C 442.68467 429.62131 449.539854 425.040822 455.313835 419.266842 
C 461.087815 413.492861 465.668303 406.637677 468.793158 399.093608 
C 471.918014 391.549539 473.526467 383.463298 473.526467 375.297656 
" clip-path="url(#pd1592edcb8)" style="fill: none; stroke: #b0b0b0; stroke-width: 0.1; stroke-linecap: square"/>
     </g>
     <g id="text_26">
      <!-- 38.0 -->
      <g transform="translate(471.967439 384.975038) scale(0.2 -0.2)">
       <use xlink:href="#DejaVuSans-33"/>
       <use xlink:href="#DejaVuSans-38" x="63.623047"/>
       <use xlink:href="#DejaVuSans-2e" x="127.246094"/>
       <use xlink:href="#DejaVuSans-30" x="159.033203"/>
      </g>
     </g>
    </g>
    <g id="ytick_27">
     <g id="line2d_50">
      <path d="M 535.708286 375.297656 
C 535.708286 358.966373 532.491379 342.793891 526.241667 327.705753 
C 519.991956 312.617615 510.830981 298.907247 499.28302 287.359286 
C 487.735059 275.811325 474.024691 266.650349 458.936552 260.400638 
C 443.848414 254.150927 427.675932 250.93402 411.344649 250.93402 
C 395.013366 250.93402 378.840884 254.150927 363.752746 260.400638 
C 348.664608 266.650349 334.95424 275.811325 323.406279 287.359286 
C 311.858318 298.907247 302.697342 312.617615 296.447631 327.705753 
C 290.19792 342.793891 286.981013 358.966373 286.981013 375.297656 
C 286.981013 391.628939 290.19792 407.801421 296.447631 422.889559 
C 302.697342 437.977698 311.858318 451.688066 323.406279 463.236027 
C 334.95424 474.783988 348.664608 483.944963 363.752746 490.194674 
C 378.840884 496.444386 395.013366 499.661293 411.344649 499.661293 
C 427.675932 499.661293 443.848414 496.444386 458.936552 490.194674 
C 474.024691 483.944963 487.735059 474.783988 499.28302 463.236027 
C 510.830981 451.688066 519.991956 437.977698 526.241667 422.889559 
C 532.491379 407.801421 535.708286 391.628939 535.708286 375.297656 
" clip-path="url(#pd1592edcb8)" style="fill: none; stroke: #b0b0b0; stroke-width: 0.1; stroke-linecap: square"/>
     </g>
    </g>
    <g id="ytick_28">
     <g id="line2d_51">
      <path d="M 597.890104 375.297656 
C 597.890104 350.800732 593.064744 326.542009 583.690177 303.909801 
C 574.315609 281.277594 560.574147 260.712042 543.252205 243.3901 
C 525.930264 226.068159 505.364711 212.326696 482.732504 202.952129 
C 460.100297 193.577562 435.841574 188.752202 411.344649 188.752202 
C 386.847725 188.752202 362.589002 193.577562 339.956794 202.952129 
C 317.324587 212.326696 296.759035 226.068159 279.437093 243.3901 
C 262.115152 260.712042 248.373689 281.277594 238.999122 303.909801 
C 229.624555 326.542009 224.799195 350.800732 224.799195 375.297656 
C 224.799195 399.794581 229.624555 424.053304 238.999122 446.685511 
C 248.373689 469.317718 262.115152 489.883271 279.437093 507.205212 
C 296.759035 524.527154 317.324587 538.268616 339.956794 547.643184 
C 362.589002 557.017751 386.847725 561.843111 411.344649 561.843111 
C 435.841574 561.843111 460.100297 557.017751 482.732504 547.643184 
C 505.364711 538.268616 525.930264 524.527154 543.252205 507.205212 
C 560.574147 489.883271 574.315609 469.317718 583.690177 446.685511 
C 593.064744 424.053304 597.890104 399.794581 597.890104 375.297656 
" clip-path="url(#pd1592edcb8)" style="fill: none; stroke: #b0b0b0; stroke-width: 0.1; stroke-linecap: square"/>
     </g>
    </g>
    <g id="ytick_29">
     <g id="line2d_52">
      <path d="M 660.071922 375.297656 
C 660.071922 342.63509 653.638109 310.290126 641.138686 280.11385 
C 628.639263 249.937573 610.317312 222.516837 587.22139 199.420915 
C 564.125468 176.324993 536.704732 158.003043 506.528456 145.50362 
C 476.352179 133.004197 444.007215 126.570384 411.344649 126.570384 
C 378.682083 126.570384 346.337119 133.004197 316.160843 145.50362 
C 285.984566 158.003043 258.56383 176.324993 235.467908 199.420915 
C 212.371986 222.516837 194.050036 249.937573 181.550613 280.11385 
C 169.05119 310.290126 162.617377 342.63509 162.617377 375.297656 
C 162.617377 407.960222 169.05119 440.305186 181.550613 470.481463 
C 194.050036 500.657739 212.371986 528.078475 235.467908 551.174397 
C 258.56383 574.27032 285.984566 592.59227 316.160843 605.091693 
C 346.337119 617.591116 378.682083 624.024929 411.344649 624.024929 
C 444.007215 624.024929 476.352179 617.591116 506.528456 605.091693 
C 536.704732 592.59227 564.125468 574.27032 587.22139 551.174397 
C 610.317312 528.078475 628.639263 500.657739 641.138686 470.481463 
C 653.638109 440.305186 660.071922 407.960222 660.071922 375.297656 
" clip-path="url(#pd1592edcb8)" style="fill: none; stroke: #b0b0b0; stroke-width: 0.1; stroke-linecap: square"/>
     </g>
    </g>
    <g id="ytick_30">
     <g id="line2d_53">
      <path d="M 722.25374 375.297656 
C 722.25374 334.469449 714.211473 294.038244 698.587195 256.317898 
C 682.962916 218.597553 660.060478 184.321632 631.190576 155.45173 
C 602.320673 126.581827 568.044753 103.679389 530.324407 88.055111 
C 492.604062 72.430832 452.172857 64.388565 411.344649 64.388565 
C 370.516442 64.388565 330.085237 72.430832 292.364891 88.055111 
C 254.644546 103.679389 220.368625 126.581827 191.498723 155.45173 
C 162.62882 184.321632 139.726382 218.597553 124.102104 256.317898 
C 108.477825 294.038244 100.435558 334.469449 100.435558 375.297656 
C 100.435558 416.125864 108.477825 456.557069 124.102104 494.277414 
C 139.726382 531.99776 162.62882 566.27368 191.498723 595.143583 
C 220.368625 624.013485 254.644546 646.915923 292.364891 662.540202 
C 330.085237 678.16448 370.516442 686.206747 411.344649 686.206747 
C 452.172857 686.206747 492.604062 678.16448 530.324407 662.540202 
C 568.044753 646.915923 602.320673 624.013485 631.190576 595.143583 
C 660.060478 566.27368 682.962916 531.99776 698.587195 494.277414 
C 714.211473 456.557069 722.25374 416.125864 722.25374 375.297656 
" clip-path="url(#pd1592edcb8)" style="fill: none; stroke: #b0b0b0; stroke-width: 0.1; stroke-linecap: square"/>
     </g>
     <g id="text_27">
      <!-- 28.0 -->
      <g transform="translate(714.4586 440.322063) scale(0.2 -0.2)">
       <use xlink:href="#DejaVuSans-32"/>
       <use xlink:href="#DejaVuSans-38" x="63.623047"/>
       <use xlink:href="#DejaVuSans-2e" x="127.246094"/>
       <use xlink:href="#DejaVuSans-30" x="159.033203"/>
      </g>
     </g>
    </g>
   </g>
  </g>
  <g id="axes_7">
   <g id="matplotlib.axis_8">
    <g id="ytick_31">
     <g id="line2d_54">
      <path d="M 473.526467 375.297656 
C 473.526467 367.132015 471.918014 359.045774 468.793158 351.501705 
C 465.668303 343.957636 461.087815 337.102451 455.313835 331.328471 
C 449.539854 325.55449 442.68467 320.974003 435.140601 317.849147 
C 427.596532 314.724291 419.510291 313.115838 411.344649 313.115838 
C 403.179008 313.115838 395.092767 314.724291 387.548698 317.849147 
C 380.004629 320.974003 373.149444 325.55449 367.375464 331.328471 
C 361.601483 337.102451 357.020996 343.957636 353.89614 351.501705 
C 350.771284 359.045774 349.162831 367.132015 349.162831 375.297656 
C 349.162831 383.463298 350.771284 391.549539 353.89614 399.093608 
C 357.020996 406.637677 361.601483 413.492861 367.375464 419.266842 
C 373.149444 425.040822 380.004629 429.62131 387.548698 432.746165 
C 395.092767 435.871021 403.179008 437.479474 411.344649 437.479474 
C 419.510291 437.479474 427.596532 435.871021 435.140601 432.746165 
C 442.68467 429.62131 449.539854 425.040822 455.313835 419.266842 
C 461.087815 413.492861 465.668303 406.637677 468.793158 399.093608 
C 471.918014 391.549539 473.526467 383.463298 473.526467 375.297656 
" clip-path="url(#pd25ad1ab20)" style="fill: none; stroke: #b0b0b0; stroke-width: 0.1; stroke-linecap: square"/>
     </g>
     <g id="text_28">
      <!-- 75.0 -->
      <g transform="translate(459.960352 332.368552) scale(0.2 -0.2)">
       <use xlink:href="#DejaVuSans-37"/>
       <use xlink:href="#DejaVuSans-35" x="63.623047"/>
       <use xlink:href="#DejaVuSans-2e" x="127.246094"/>
       <use xlink:href="#DejaVuSans-30" x="159.033203"/>
      </g>
     </g>
    </g>
    <g id="ytick_32">
     <g id="line2d_55">
      <path d="M 535.708286 375.297656 
C 535.708286 358.966373 532.491379 342.793891 526.241667 327.705753 
C 519.991956 312.617615 510.830981 298.907247 499.28302 287.359286 
C 487.735059 275.811325 474.024691 266.650349 458.936552 260.400638 
C 443.848414 254.150927 427.675932 250.93402 411.344649 250.93402 
C 395.013366 250.93402 378.840884 254.150927 363.752746 260.400638 
C 348.664608 266.650349 334.95424 275.811325 323.406279 287.359286 
C 311.858318 298.907247 302.697342 312.617615 296.447631 327.705753 
C 290.19792 342.793891 286.981013 358.966373 286.981013 375.297656 
C 286.981013 391.628939 290.19792 407.801421 296.447631 422.889559 
C 302.697342 437.977698 311.858318 451.688066 323.406279 463.236027 
C 334.95424 474.783988 348.664608 483.944963 363.752746 490.194674 
C 378.840884 496.444386 395.013366 499.661293 411.344649 499.661293 
C 427.675932 499.661293 443.848414 496.444386 458.936552 490.194674 
C 474.024691 483.944963 487.735059 474.783988 499.28302 463.236027 
C 510.830981 451.688066 519.991956 437.977698 526.241667 422.889559 
C 532.491379 407.801421 535.708286 391.628939 535.708286 375.297656 
" clip-path="url(#pd25ad1ab20)" style="fill: none; stroke: #b0b0b0; stroke-width: 0.1; stroke-linecap: square"/>
     </g>
    </g>
    <g id="ytick_33">
     <g id="line2d_56">
      <path d="M 597.890104 375.297656 
C 597.890104 350.800732 593.064744 326.542009 583.690177 303.909801 
C 574.315609 281.277594 560.574147 260.712042 543.252205 243.3901 
C 525.930264 226.068159 505.364711 212.326696 482.732504 202.952129 
C 460.100297 193.577562 435.841574 188.752202 411.344649 188.752202 
C 386.847725 188.752202 362.589002 193.577562 339.956794 202.952129 
C 317.324587 212.326696 296.759035 226.068159 279.437093 243.3901 
C 262.115152 260.712042 248.373689 281.277594 238.999122 303.909801 
C 229.624555 326.542009 224.799195 350.800732 224.799195 375.297656 
C 224.799195 399.794581 229.624555 424.053304 238.999122 446.685511 
C 248.373689 469.317718 262.115152 489.883271 279.437093 507.205212 
C 296.759035 524.527154 317.324587 538.268616 339.956794 547.643184 
C 362.589002 557.017751 386.847725 561.843111 411.344649 561.843111 
C 435.841574 561.843111 460.100297 557.017751 482.732504 547.643184 
C 505.364711 538.268616 525.930264 524.527154 543.252205 507.205212 
C 560.574147 489.883271 574.315609 469.317718 583.690177 446.685511 
C 593.064744 424.053304 597.890104 399.794581 597.890104 375.297656 
" clip-path="url(#pd25ad1ab20)" style="fill: none; stroke: #b0b0b0; stroke-width: 0.1; stroke-linecap: square"/>
     </g>
    </g>
    <g id="ytick_34">
     <g id="line2d_57">
      <path d="M 660.071922 375.297656 
C 660.071922 342.63509 653.638109 310.290126 641.138686 280.11385 
C 628.639263 249.937573 610.317312 222.516837 587.22139 199.420915 
C 564.125468 176.324993 536.704732 158.003043 506.528456 145.50362 
C 476.352179 133.004197 444.007215 126.570384 411.344649 126.570384 
C 378.682083 126.570384 346.337119 133.004197 316.160843 145.50362 
C 285.984566 158.003043 258.56383 176.324993 235.467908 199.420915 
C 212.371986 222.516837 194.050036 249.937573 181.550613 280.11385 
C 169.05119 310.290126 162.617377 342.63509 162.617377 375.297656 
C 162.617377 407.960222 169.05119 440.305186 181.550613 470.481463 
C 194.050036 500.657739 212.371986 528.078475 235.467908 551.174397 
C 258.56383 574.27032 285.984566 592.59227 316.160843 605.091693 
C 346.337119 617.591116 378.682083 624.024929 411.344649 624.024929 
C 444.007215 624.024929 476.352179 617.591116 506.528456 605.091693 
C 536.704732 592.59227 564.125468 574.27032 587.22139 551.174397 
C 610.317312 528.078475 628.639263 500.657739 641.138686 470.481463 
C 653.638109 440.305186 660.071922 407.960222 660.071922 375.297656 
" clip-path="url(#pd25ad1ab20)" style="fill: none; stroke: #b0b0b0; stroke-width: 0.1; stroke-linecap: square"/>
     </g>
    </g>
    <g id="ytick_35">
     <g id="line2d_58">
      <path d="M 722.25374 375.297656 
C 722.25374 334.469449 714.211473 294.038244 698.587195 256.317898 
C 682.962916 218.597553 660.060478 184.321632 631.190576 155.45173 
C 602.320673 126.581827 568.044753 103.679389 530.324407 88.055111 
C 492.604062 72.430832 452.172857 64.388565 411.344649 64.388565 
C 370.516442 64.388565 330.085237 72.430832 292.364891 88.055111 
C 254.644546 103.679389 220.368625 126.581827 191.498723 155.45173 
C 162.62882 184.321632 139.726382 218.597553 124.102104 256.317898 
C 108.477825 294.038244 100.435558 334.469449 100.435558 375.297656 
C 100.435558 416.125864 108.477825 456.557069 124.102104 494.277414 
C 139.726382 531.99776 162.62882 566.27368 191.498723 595.143583 
C 220.368625 624.013485 254.644546 646.915923 292.364891 662.540202 
C 330.085237 678.16448 370.516442 686.206747 411.344649 686.206747 
C 452.172857 686.206747 492.604062 678.16448 530.324407 662.540202 
C 568.044753 646.915923 602.320673 624.013485 631.190576 595.143583 
C 660.060478 566.27368 682.962916 531.99776 698.587195 494.277414 
C 714.211473 456.557069 722.25374 416.125864 722.25374 375.297656 
" clip-path="url(#pd25ad1ab20)" style="fill: none; stroke: #b0b0b0; stroke-width: 0.1; stroke-linecap: square"/>
     </g>
     <g id="text_29">
      <!-- 30.0 -->
      <g transform="translate(654.423165 177.289634) scale(0.2 -0.2)">
       <use xlink:href="#DejaVuSans-33"/>
       <use xlink:href="#DejaVuSans-30" x="63.623047"/>
       <use xlink:href="#DejaVuSans-2e" x="127.246094"/>
       <use xlink:href="#DejaVuSans-30" x="159.033203"/>
      </g>
     </g>
    </g>
   </g>
  </g>
 </g>
 <defs>
  <clipPath id="p7f60e17c01">
   <path d="M 753.344649 375.297656 
C 753.344649 330.386628 744.498156 285.912302 727.311449 244.419922 
C 710.124743 202.927542 684.932061 165.22403 653.175168 133.467137 
C 621.418276 101.710244 583.714763 76.517563 542.222383 59.330856 
C 500.730003 42.14415 456.255678 33.297656 411.344649 33.297656 
C 366.433621 33.297656 321.959295 42.14415 280.466915 59.330856 
C 238.974535 76.517563 201.271023 101.710244 169.51413 133.467137 
C 137.757237 165.22403 112.564556 202.927542 95.377849 244.419922 
C 78.191143 285.912302 69.344649 330.386628 69.344649 375.297656 
C 69.344649 420.208685 78.191143 464.68301 95.377849 506.17539 
C 112.564556 547.66777 137.757237 585.371283 169.51413 617.128175 
C 201.271023 648.885068 238.974535 674.07775 280.466915 691.264456 
C 321.959295 708.451163 366.433621 717.297656 411.344649 717.297656 
C 456.255678 717.297656 500.730003 708.451163 542.222383 691.264456 
C 583.714763 674.07775 621.418276 648.885068 653.175168 617.128175 
C 684.932061 585.371283 710.124743 547.66777 727.311449 506.17539 
C 744.498156 464.68301 753.344649 420.208685 753.344649 375.297656 
M 411.344649 375.297656 
C 411.344649 375.297656 411.344649 375.297656 411.344649 375.297656 
C 411.344649 375.297656 411.344649 375.297656 411.344649 375.297656 
C 411.344649 375.297656 411.344649 375.297656 411.344649 375.297656 
C 411.344649 375.297656 411.344649 375.297656 411.344649 375.297656 
C 411.344649 375.297656 411.344649 375.297656 411.344649 375.297656 
C 411.344649 375.297656 411.344649 375.297656 411.344649 375.297656 
C 411.344649 375.297656 411.344649 375.297656 411.344649 375.297656 
C 411.344649 375.297656 411.344649 375.297656 411.344649 375.297656 
C 411.344649 375.297656 411.344649 375.297656 411.344649 375.297656 
C 411.344649 375.297656 411.344649 375.297656 411.344649 375.297656 
C 411.344649 375.297656 411.344649 375.297656 411.344649 375.297656 
C 411.344649 375.297656 411.344649 375.297656 411.344649 375.297656 
C 411.344649 375.297656 411.344649 375.297656 411.344649 375.297656 
C 411.344649 375.297656 411.344649 375.297656 411.344649 375.297656 
C 411.344649 375.297656 411.344649 375.297656 411.344649 375.297656 
C 411.344649 375.297656 411.344649 375.297656 411.344649 375.297656 
M 753.344649 375.297656 
z
"/>
  </clipPath>
  <clipPath id="p15932e203b">
   <path d="M 753.344649 375.297656 
C 753.344649 330.386628 744.498156 285.912302 727.311449 244.419922 
C 710.124743 202.927542 684.932061 165.22403 653.175168 133.467137 
C 621.418276 101.710244 583.714763 76.517563 542.222383 59.330856 
C 500.730003 42.14415 456.255678 33.297656 411.344649 33.297656 
C 366.433621 33.297656 321.959295 42.14415 280.466915 59.330856 
C 238.974535 76.517563 201.271023 101.710244 169.51413 133.467137 
C 137.757237 165.22403 112.564556 202.927542 95.377849 244.419922 
C 78.191143 285.912302 69.344649 330.386628 69.344649 375.297656 
C 69.344649 420.208685 78.191143 464.68301 95.377849 506.17539 
C 112.564556 547.66777 137.757237 585.371283 169.51413 617.128175 
C 201.271023 648.885068 238.974535 674.07775 280.466915 691.264456 
C 321.959295 708.451163 366.433621 717.297656 411.344649 717.297656 
C 456.255678 717.297656 500.730003 708.451163 542.222383 691.264456 
C 583.714763 674.07775 621.418276 648.885068 653.175168 617.128175 
C 684.932061 585.371283 710.124743 547.66777 727.311449 506.17539 
C 744.498156 464.68301 753.344649 420.208685 753.344649 375.297656 
M 411.344649 375.297656 
C 411.344649 375.297656 411.344649 375.297656 411.344649 375.297656 
C 411.344649 375.297656 411.344649 375.297656 411.344649 375.297656 
C 411.344649 375.297656 411.344649 375.297656 411.344649 375.297656 
C 411.344649 375.297656 411.344649 375.297656 411.344649 375.297656 
C 411.344649 375.297656 411.344649 375.297656 411.344649 375.297656 
C 411.344649 375.297656 411.344649 375.297656 411.344649 375.297656 
C 411.344649 375.297656 411.344649 375.297656 411.344649 375.297656 
C 411.344649 375.297656 411.344649 375.297656 411.344649 375.297656 
C 411.344649 375.297656 411.344649 375.297656 411.344649 375.297656 
C 411.344649 375.297656 411.344649 375.297656 411.344649 375.297656 
C 411.344649 375.297656 411.344649 375.297656 411.344649 375.297656 
C 411.344649 375.297656 411.344649 375.297656 411.344649 375.297656 
C 411.344649 375.297656 411.344649 375.297656 411.344649 375.297656 
C 411.344649 375.297656 411.344649 375.297656 411.344649 375.297656 
C 411.344649 375.297656 411.344649 375.297656 411.344649 375.297656 
C 411.344649 375.297656 411.344649 375.297656 411.344649 375.297656 
M 753.344649 375.297656 
z
"/>
  </clipPath>
  <clipPath id="p5c66347f3b">
   <path d="M 753.344649 375.297656 
C 753.344649 330.386628 744.498156 285.912302 727.311449 244.419922 
C 710.124743 202.927542 684.932061 165.22403 653.175168 133.467137 
C 621.418276 101.710244 583.714763 76.517563 542.222383 59.330856 
C 500.730003 42.14415 456.255678 33.297656 411.344649 33.297656 
C 366.433621 33.297656 321.959295 42.14415 280.466915 59.330856 
C 238.974535 76.517563 201.271023 101.710244 169.51413 133.467137 
C 137.757237 165.22403 112.564556 202.927542 95.377849 244.419922 
C 78.191143 285.912302 69.344649 330.386628 69.344649 375.297656 
C 69.344649 420.208685 78.191143 464.68301 95.377849 506.17539 
C 112.564556 547.66777 137.757237 585.371283 169.51413 617.128175 
C 201.271023 648.885068 238.974535 674.07775 280.466915 691.264456 
C 321.959295 708.451163 366.433621 717.297656 411.344649 717.297656 
C 456.255678 717.297656 500.730003 708.451163 542.222383 691.264456 
C 583.714763 674.07775 621.418276 648.885068 653.175168 617.128175 
C 684.932061 585.371283 710.124743 547.66777 727.311449 506.17539 
C 744.498156 464.68301 753.344649 420.208685 753.344649 375.297656 
M 411.344649 375.297656 
C 411.344649 375.297656 411.344649 375.297656 411.344649 375.297656 
C 411.344649 375.297656 411.344649 375.297656 411.344649 375.297656 
C 411.344649 375.297656 411.344649 375.297656 411.344649 375.297656 
C 411.344649 375.297656 411.344649 375.297656 411.344649 375.297656 
C 411.344649 375.297656 411.344649 375.297656 411.344649 375.297656 
C 411.344649 375.297656 411.344649 375.297656 411.344649 375.297656 
C 411.344649 375.297656 411.344649 375.297656 411.344649 375.297656 
C 411.344649 375.297656 411.344649 375.297656 411.344649 375.297656 
C 411.344649 375.297656 411.344649 375.297656 411.344649 375.297656 
C 411.344649 375.297656 411.344649 375.297656 411.344649 375.297656 
C 411.344649 375.297656 411.344649 375.297656 411.344649 375.297656 
C 411.344649 375.297656 411.344649 375.297656 411.344649 375.297656 
C 411.344649 375.297656 411.344649 375.297656 411.344649 375.297656 
C 411.344649 375.297656 411.344649 375.297656 411.344649 375.297656 
C 411.344649 375.297656 411.344649 375.297656 411.344649 375.297656 
C 411.344649 375.297656 411.344649 375.297656 411.344649 375.297656 
M 753.344649 375.297656 
z
"/>
  </clipPath>
  <clipPath id="p7731f5116c">
   <path d="M 753.344649 375.297656 
C 753.344649 330.386628 744.498156 285.912302 727.311449 244.419922 
C 710.124743 202.927542 684.932061 165.22403 653.175168 133.467137 
C 621.418276 101.710244 583.714763 76.517563 542.222383 59.330856 
C 500.730003 42.14415 456.255678 33.297656 411.344649 33.297656 
C 366.433621 33.297656 321.959295 42.14415 280.466915 59.330856 
C 238.974535 76.517563 201.271023 101.710244 169.51413 133.467137 
C 137.757237 165.22403 112.564556 202.927542 95.377849 244.419922 
C 78.191143 285.912302 69.344649 330.386628 69.344649 375.297656 
C 69.344649 420.208685 78.191143 464.68301 95.377849 506.17539 
C 112.564556 547.66777 137.757237 585.371283 169.51413 617.128175 
C 201.271023 648.885068 238.974535 674.07775 280.466915 691.264456 
C 321.959295 708.451163 366.433621 717.297656 411.344649 717.297656 
C 456.255678 717.297656 500.730003 708.451163 542.222383 691.264456 
C 583.714763 674.07775 621.418276 648.885068 653.175168 617.128175 
C 684.932061 585.371283 710.124743 547.66777 727.311449 506.17539 
C 744.498156 464.68301 753.344649 420.208685 753.344649 375.297656 
M 411.344649 375.297656 
C 411.344649 375.297656 411.344649 375.297656 411.344649 375.297656 
C 411.344649 375.297656 411.344649 375.297656 411.344649 375.297656 
C 411.344649 375.297656 411.344649 375.297656 411.344649 375.297656 
C 411.344649 375.297656 411.344649 375.297656 411.344649 375.297656 
C 411.344649 375.297656 411.344649 375.297656 411.344649 375.297656 
C 411.344649 375.297656 411.344649 375.297656 411.344649 375.297656 
C 411.344649 375.297656 411.344649 375.297656 411.344649 375.297656 
C 411.344649 375.297656 411.344649 375.297656 411.344649 375.297656 
C 411.344649 375.297656 411.344649 375.297656 411.344649 375.297656 
C 411.344649 375.297656 411.344649 375.297656 411.344649 375.297656 
C 411.344649 375.297656 411.344649 375.297656 411.344649 375.297656 
C 411.344649 375.297656 411.344649 375.297656 411.344649 375.297656 
C 411.344649 375.297656 411.344649 375.297656 411.344649 375.297656 
C 411.344649 375.297656 411.344649 375.297656 411.344649 375.297656 
C 411.344649 375.297656 411.344649 375.297656 411.344649 375.297656 
C 411.344649 375.297656 411.344649 375.297656 411.344649 375.297656 
M 753.344649 375.297656 
z
"/>
  </clipPath>
  <clipPath id="pfc221fe344">
   <path d="M 753.344649 375.297656 
C 753.344649 330.386628 744.498156 285.912302 727.311449 244.419922 
C 710.124743 202.927542 684.932061 165.22403 653.175168 133.467137 
C 621.418276 101.710244 583.714763 76.517563 542.222383 59.330856 
C 500.730003 42.14415 456.255678 33.297656 411.344649 33.297656 
C 366.433621 33.297656 321.959295 42.14415 280.466915 59.330856 
C 238.974535 76.517563 201.271023 101.710244 169.51413 133.467137 
C 137.757237 165.22403 112.564556 202.927542 95.377849 244.419922 
C 78.191143 285.912302 69.344649 330.386628 69.344649 375.297656 
C 69.344649 420.208685 78.191143 464.68301 95.377849 506.17539 
C 112.564556 547.66777 137.757237 585.371283 169.51413 617.128175 
C 201.271023 648.885068 238.974535 674.07775 280.466915 691.264456 
C 321.959295 708.451163 366.433621 717.297656 411.344649 717.297656 
C 456.255678 717.297656 500.730003 708.451163 542.222383 691.264456 
C 583.714763 674.07775 621.418276 648.885068 653.175168 617.128175 
C 684.932061 585.371283 710.124743 547.66777 727.311449 506.17539 
C 744.498156 464.68301 753.344649 420.208685 753.344649 375.297656 
M 411.344649 375.297656 
C 411.344649 375.297656 411.344649 375.297656 411.344649 375.297656 
C 411.344649 375.297656 411.344649 375.297656 411.344649 375.297656 
C 411.344649 375.297656 411.344649 375.297656 411.344649 375.297656 
C 411.344649 375.297656 411.344649 375.297656 411.344649 375.297656 
C 411.344649 375.297656 411.344649 375.297656 411.344649 375.297656 
C 411.344649 375.297656 411.344649 375.297656 411.344649 375.297656 
C 411.344649 375.297656 411.344649 375.297656 411.344649 375.297656 
C 411.344649 375.297656 411.344649 375.297656 411.344649 375.297656 
C 411.344649 375.297656 411.344649 375.297656 411.344649 375.297656 
C 411.344649 375.297656 411.344649 375.297656 411.344649 375.297656 
C 411.344649 375.297656 411.344649 375.297656 411.344649 375.297656 
C 411.344649 375.297656 411.344649 375.297656 411.344649 375.297656 
C 411.344649 375.297656 411.344649 375.297656 411.344649 375.297656 
C 411.344649 375.297656 411.344649 375.297656 411.344649 375.297656 
C 411.344649 375.297656 411.344649 375.297656 411.344649 375.297656 
C 411.344649 375.297656 411.344649 375.297656 411.344649 375.297656 
M 753.344649 375.297656 
z
"/>
  </clipPath>
  <clipPath id="pd1592edcb8">
   <path d="M 753.344649 375.297656 
C 753.344649 330.386628 744.498156 285.912302 727.311449 244.419922 
C 710.124743 202.927542 684.932061 165.22403 653.175168 133.467137 
C 621.418276 101.710244 583.714763 76.517563 542.222383 59.330856 
C 500.730003 42.14415 456.255678 33.297656 411.344649 33.297656 
C 366.433621 33.297656 321.959295 42.14415 280.466915 59.330856 
C 238.974535 76.517563 201.271023 101.710244 169.51413 133.467137 
C 137.757237 165.22403 112.564556 202.927542 95.377849 244.419922 
C 78.191143 285.912302 69.344649 330.386628 69.344649 375.297656 
C 69.344649 420.208685 78.191143 464.68301 95.377849 506.17539 
C 112.564556 547.66777 137.757237 585.371283 169.51413 617.128175 
C 201.271023 648.885068 238.974535 674.07775 280.466915 691.264456 
C 321.959295 708.451163 366.433621 717.297656 411.344649 717.297656 
C 456.255678 717.297656 500.730003 708.451163 542.222383 691.264456 
C 583.714763 674.07775 621.418276 648.885068 653.175168 617.128175 
C 684.932061 585.371283 710.124743 547.66777 727.311449 506.17539 
C 744.498156 464.68301 753.344649 420.208685 753.344649 375.297656 
M 411.344649 375.297656 
C 411.344649 375.297656 411.344649 375.297656 411.344649 375.297656 
C 411.344649 375.297656 411.344649 375.297656 411.344649 375.297656 
C 411.344649 375.297656 411.344649 375.297656 411.344649 375.297656 
C 411.344649 375.297656 411.344649 375.297656 411.344649 375.297656 
C 411.344649 375.297656 411.344649 375.297656 411.344649 375.297656 
C 411.344649 375.297656 411.344649 375.297656 411.344649 375.297656 
C 411.344649 375.297656 411.344649 375.297656 411.344649 375.297656 
C 411.344649 375.297656 411.344649 375.297656 411.344649 375.297656 
C 411.344649 375.297656 411.344649 375.297656 411.344649 375.297656 
C 411.344649 375.297656 411.344649 375.297656 411.344649 375.297656 
C 411.344649 375.297656 411.344649 375.297656 411.344649 375.297656 
C 411.344649 375.297656 411.344649 375.297656 411.344649 375.297656 
C 411.344649 375.297656 411.344649 375.297656 411.344649 375.297656 
C 411.344649 375.297656 411.344649 375.297656 411.344649 375.297656 
C 411.344649 375.297656 411.344649 375.297656 411.344649 375.297656 
C 411.344649 375.297656 411.344649 375.297656 411.344649 375.297656 
M 753.344649 375.297656 
z
"/>
  </clipPath>
  <clipPath id="pd25ad1ab20">
   <path d="M 753.344649 375.297656 
C 753.344649 330.386628 744.498156 285.912302 727.311449 244.419922 
C 710.124743 202.927542 684.932061 165.22403 653.175168 133.467137 
C 621.418276 101.710244 583.714763 76.517563 542.222383 59.330856 
C 500.730003 42.14415 456.255678 33.297656 411.344649 33.297656 
C 366.433621 33.297656 321.959295 42.14415 280.466915 59.330856 
C 238.974535 76.517563 201.271023 101.710244 169.51413 133.467137 
C 137.757237 165.22403 112.564556 202.927542 95.377849 244.419922 
C 78.191143 285.912302 69.344649 330.386628 69.344649 375.297656 
C 69.344649 420.208685 78.191143 464.68301 95.377849 506.17539 
C 112.564556 547.66777 137.757237 585.371283 169.51413 617.128175 
C 201.271023 648.885068 238.974535 674.07775 280.466915 691.264456 
C 321.959295 708.451163 366.433621 717.297656 411.344649 717.297656 
C 456.255678 717.297656 500.730003 708.451163 542.222383 691.264456 
C 583.714763 674.07775 621.418276 648.885068 653.175168 617.128175 
C 684.932061 585.371283 710.124743 547.66777 727.311449 506.17539 
C 744.498156 464.68301 753.344649 420.208685 753.344649 375.297656 
M 411.344649 375.297656 
C 411.344649 375.297656 411.344649 375.297656 411.344649 375.297656 
C 411.344649 375.297656 411.344649 375.297656 411.344649 375.297656 
C 411.344649 375.297656 411.344649 375.297656 411.344649 375.297656 
C 411.344649 375.297656 411.344649 375.297656 411.344649 375.297656 
C 411.344649 375.297656 411.344649 375.297656 411.344649 375.297656 
C 411.344649 375.297656 411.344649 375.297656 411.344649 375.297656 
C 411.344649 375.297656 411.344649 375.297656 411.344649 375.297656 
C 411.344649 375.297656 411.344649 375.297656 411.344649 375.297656 
C 411.344649 375.297656 411.344649 375.297656 411.344649 375.297656 
C 411.344649 375.297656 411.344649 375.297656 411.344649 375.297656 
C 411.344649 375.297656 411.344649 375.297656 411.344649 375.297656 
C 411.344649 375.297656 411.344649 375.297656 411.344649 375.297656 
C 411.344649 375.297656 411.344649 375.297656 411.344649 375.297656 
C 411.344649 375.297656 411.344649 375.297656 411.344649 375.297656 
C 411.344649 375.297656 411.344649 375.297656 411.344649 375.297656 
C 411.344649 375.297656 411.344649 375.297656 411.344649 375.297656 
M 753.344649 375.297656 
z
"/>
  </clipPath>
 </defs>
</svg>
