<?xml version="1.0" encoding="utf-8" standalone="no"?>
<!DOCTYPE svg PUBLIC "-//W3C//DTD SVG 1.1//EN"
  "http://www.w3.org/Graphics/SVG/1.1/DTD/svg11.dtd">
<svg xmlns:xlink="http://www.w3.org/1999/xlink" width="857.7625pt" height="707.825675pt" viewBox="0 0 857.7625 707.825675" xmlns="http://www.w3.org/2000/svg" version="1.1">
 <metadata>
  <rdf:RDF xmlns:dc="http://purl.org/dc/elements/1.1/" xmlns:cc="http://creativecommons.org/ns#" xmlns:rdf="http://www.w3.org/1999/02/22-rdf-syntax-ns#">
   <cc:Work>
    <dc:type rdf:resource="http://purl.org/dc/dcmitype/StillImage"/>
    <dc:date>2024-10-23T17:23:59.709382</dc:date>
    <dc:format>image/svg+xml</dc:format>
    <dc:creator>
     <cc:Agent>
      <dc:title>Matplotlib v3.8.0, https://matplotlib.org/</dc:title>
     </cc:Agent>
    </dc:creator>
   </cc:Work>
  </rdf:RDF>
 </metadata>
 <defs>
  <style type="text/css">*{stroke-linejoin: round; stroke-linecap: butt}</style>
 </defs>
 <g id="figure_1">
  <g id="patch_1">
   <path d="M 0 707.825675 
L 857.7625 707.825675 
L 857.7625 0 
L 0 0 
L 0 707.825675 
z
" style="fill: none"/>
  </g>
  <g id="axes_1">
   <g id="patch_2">
    <path d="M 69.3625 561.6 
L 850.5625 561.6 
L 850.5625 7.2 
L 69.3625 7.2 
L 69.3625 561.6 
z
" style="fill: none"/>
   </g>
   <g id="matplotlib.axis_1">
    <g id="xtick_1">
     <g id="text_1">
      <!-- MSA -->
      <g style="fill: #262626" transform="translate(104.788986 610.465141) rotate(-45) scale(0.2 -0.2)">
       <defs>
        <path id="DejaVuSans-4d" d="M 628 4666 
L 1569 4666 
L 2759 1491 
L 3956 4666 
L 4897 4666 
L 4897 0 
L 4281 0 
L 4281 4097 
L 3078 897 
L 2444 897 
L 1241 4097 
L 1241 0 
L 628 0 
L 628 4666 
z
" transform="scale(0.015625)"/>
        <path id="DejaVuSans-53" d="M 3425 4513 
L 3425 3897 
Q 3066 4069 2747 4153 
Q 2428 4238 2131 4238 
Q 1616 4238 1336 4038 
Q 1056 3838 1056 3469 
Q 1056 3159 1242 3001 
Q 1428 2844 1947 2747 
L 2328 2669 
Q 3034 2534 3370 2195 
Q 3706 1856 3706 1288 
Q 3706 609 3251 259 
Q 2797 -91 1919 -91 
Q 1588 -91 1214 -16 
Q 841 59 441 206 
L 441 856 
Q 825 641 1194 531 
Q 1563 422 1919 422 
Q 2459 422 2753 634 
Q 3047 847 3047 1241 
Q 3047 1584 2836 1778 
Q 2625 1972 2144 2069 
L 1759 2144 
Q 1053 2284 737 2584 
Q 422 2884 422 3419 
Q 422 4038 858 4394 
Q 1294 4750 2059 4750 
Q 2388 4750 2728 4690 
Q 3069 4631 3425 4513 
z
" transform="scale(0.015625)"/>
        <path id="DejaVuSans-41" d="M 2188 4044 
L 1331 1722 
L 3047 1722 
L 2188 4044 
z
M 1831 4666 
L 2547 4666 
L 4325 0 
L 3669 0 
L 3244 1197 
L 1141 1197 
L 716 0 
L 50 0 
L 1831 4666 
z
" transform="scale(0.015625)"/>
       </defs>
       <use xlink:href="#DejaVuSans-4d"/>
       <use xlink:href="#DejaVuSans-53" x="86.279297"/>
       <use xlink:href="#DejaVuSans-41" x="151.630859"/>
      </g>
     </g>
    </g>
    <g id="xtick_2">
     <g id="text_2">
      <!-- Template -->
      <g style="fill: #262626" transform="translate(182.97819 643.875936) rotate(-45) scale(0.2 -0.2)">
       <defs>
        <path id="DejaVuSans-54" d="M -19 4666 
L 3928 4666 
L 3928 4134 
L 2272 4134 
L 2272 0 
L 1638 0 
L 1638 4134 
L -19 4134 
L -19 4666 
z
" transform="scale(0.015625)"/>
        <path id="DejaVuSans-65" d="M 3597 1894 
L 3597 1613 
L 953 1613 
Q 991 1019 1311 708 
Q 1631 397 2203 397 
Q 2534 397 2845 478 
Q 3156 559 3463 722 
L 3463 178 
Q 3153 47 2828 -22 
Q 2503 -91 2169 -91 
Q 1331 -91 842 396 
Q 353 884 353 1716 
Q 353 2575 817 3079 
Q 1281 3584 2069 3584 
Q 2775 3584 3186 3129 
Q 3597 2675 3597 1894 
z
M 3022 2063 
Q 3016 2534 2758 2815 
Q 2500 3097 2075 3097 
Q 1594 3097 1305 2825 
Q 1016 2553 972 2059 
L 3022 2063 
z
" transform="scale(0.015625)"/>
        <path id="DejaVuSans-6d" d="M 3328 2828 
Q 3544 3216 3844 3400 
Q 4144 3584 4550 3584 
Q 5097 3584 5394 3201 
Q 5691 2819 5691 2113 
L 5691 0 
L 5113 0 
L 5113 2094 
Q 5113 2597 4934 2840 
Q 4756 3084 4391 3084 
Q 3944 3084 3684 2787 
Q 3425 2491 3425 1978 
L 3425 0 
L 2847 0 
L 2847 2094 
Q 2847 2600 2669 2842 
Q 2491 3084 2119 3084 
Q 1678 3084 1418 2786 
Q 1159 2488 1159 1978 
L 1159 0 
L 581 0 
L 581 3500 
L 1159 3500 
L 1159 2956 
Q 1356 3278 1631 3431 
Q 1906 3584 2284 3584 
Q 2666 3584 2933 3390 
Q 3200 3197 3328 2828 
z
" transform="scale(0.015625)"/>
        <path id="DejaVuSans-70" d="M 1159 525 
L 1159 -1331 
L 581 -1331 
L 581 3500 
L 1159 3500 
L 1159 2969 
Q 1341 3281 1617 3432 
Q 1894 3584 2278 3584 
Q 2916 3584 3314 3078 
Q 3713 2572 3713 1747 
Q 3713 922 3314 415 
Q 2916 -91 2278 -91 
Q 1894 -91 1617 61 
Q 1341 213 1159 525 
z
M 3116 1747 
Q 3116 2381 2855 2742 
Q 2594 3103 2138 3103 
Q 1681 3103 1420 2742 
Q 1159 2381 1159 1747 
Q 1159 1113 1420 752 
Q 1681 391 2138 391 
Q 2594 391 2855 752 
Q 3116 1113 3116 1747 
z
" transform="scale(0.015625)"/>
        <path id="DejaVuSans-6c" d="M 603 4863 
L 1178 4863 
L 1178 0 
L 603 0 
L 603 4863 
z
" transform="scale(0.015625)"/>
        <path id="DejaVuSans-61" d="M 2194 1759 
Q 1497 1759 1228 1600 
Q 959 1441 959 1056 
Q 959 750 1161 570 
Q 1363 391 1709 391 
Q 2188 391 2477 730 
Q 2766 1069 2766 1631 
L 2766 1759 
L 2194 1759 
z
M 3341 1997 
L 3341 0 
L 2766 0 
L 2766 531 
Q 2569 213 2275 61 
Q 1981 -91 1556 -91 
Q 1019 -91 701 211 
Q 384 513 384 1019 
Q 384 1609 779 1909 
Q 1175 2209 1959 2209 
L 2766 2209 
L 2766 2266 
Q 2766 2663 2505 2880 
Q 2244 3097 1772 3097 
Q 1472 3097 1187 3025 
Q 903 2953 641 2809 
L 641 3341 
Q 956 3463 1253 3523 
Q 1550 3584 1831 3584 
Q 2591 3584 2966 3190 
Q 3341 2797 3341 1997 
z
" transform="scale(0.015625)"/>
        <path id="DejaVuSans-74" d="M 1172 4494 
L 1172 3500 
L 2356 3500 
L 2356 3053 
L 1172 3053 
L 1172 1153 
Q 1172 725 1289 603 
Q 1406 481 1766 481 
L 2356 481 
L 2356 0 
L 1766 0 
Q 1100 0 847 248 
Q 594 497 594 1153 
L 594 3053 
L 172 3053 
L 172 3500 
L 594 3500 
L 594 4494 
L 1172 4494 
z
" transform="scale(0.015625)"/>
       </defs>
       <use xlink:href="#DejaVuSans-54"/>
       <use xlink:href="#DejaVuSans-65" x="44.083984"/>
       <use xlink:href="#DejaVuSans-6d" x="105.607422"/>
       <use xlink:href="#DejaVuSans-70" x="203.019531"/>
       <use xlink:href="#DejaVuSans-6c" x="266.496094"/>
       <use xlink:href="#DejaVuSans-61" x="294.279297"/>
       <use xlink:href="#DejaVuSans-74" x="355.558594"/>
       <use xlink:href="#DejaVuSans-65" x="394.767578"/>
      </g>
     </g>
    </g>
    <g id="xtick_3">
     <g id="text_3">
      <!-- Backbone -->
      <g style="fill: #262626" transform="translate(289.478183 648.975944) rotate(-45) scale(0.2 -0.2)">
       <defs>
        <path id="DejaVuSans-42" d="M 1259 2228 
L 1259 519 
L 2272 519 
Q 2781 519 3026 730 
Q 3272 941 3272 1375 
Q 3272 1813 3026 2020 
Q 2781 2228 2272 2228 
L 1259 2228 
z
M 1259 4147 
L 1259 2741 
L 2194 2741 
Q 2656 2741 2882 2914 
Q 3109 3088 3109 3444 
Q 3109 3797 2882 3972 
Q 2656 4147 2194 4147 
L 1259 4147 
z
M 628 4666 
L 2241 4666 
Q 2963 4666 3353 4366 
Q 3744 4066 3744 3513 
Q 3744 3084 3544 2831 
Q 3344 2578 2956 2516 
Q 3422 2416 3680 2098 
Q 3938 1781 3938 1306 
Q 3938 681 3513 340 
Q 3088 0 2303 0 
L 628 0 
L 628 4666 
z
" transform="scale(0.015625)"/>
        <path id="DejaVuSans-63" d="M 3122 3366 
L 3122 2828 
Q 2878 2963 2633 3030 
Q 2388 3097 2138 3097 
Q 1578 3097 1268 2742 
Q 959 2388 959 1747 
Q 959 1106 1268 751 
Q 1578 397 2138 397 
Q 2388 397 2633 464 
Q 2878 531 3122 666 
L 3122 134 
Q 2881 22 2623 -34 
Q 2366 -91 2075 -91 
Q 1284 -91 818 406 
Q 353 903 353 1747 
Q 353 2603 823 3093 
Q 1294 3584 2113 3584 
Q 2378 3584 2631 3529 
Q 2884 3475 3122 3366 
z
" transform="scale(0.015625)"/>
        <path id="DejaVuSans-6b" d="M 581 4863 
L 1159 4863 
L 1159 1991 
L 2875 3500 
L 3609 3500 
L 1753 1863 
L 3688 0 
L 2938 0 
L 1159 1709 
L 1159 0 
L 581 0 
L 581 4863 
z
" transform="scale(0.015625)"/>
        <path id="DejaVuSans-62" d="M 3116 1747 
Q 3116 2381 2855 2742 
Q 2594 3103 2138 3103 
Q 1681 3103 1420 2742 
Q 1159 2381 1159 1747 
Q 1159 1113 1420 752 
Q 1681 391 2138 391 
Q 2594 391 2855 752 
Q 3116 1113 3116 1747 
z
M 1159 2969 
Q 1341 3281 1617 3432 
Q 1894 3584 2278 3584 
Q 2916 3584 3314 3078 
Q 3713 2572 3713 1747 
Q 3713 922 3314 415 
Q 2916 -91 2278 -91 
Q 1894 -91 1617 61 
Q 1341 213 1159 525 
L 1159 0 
L 581 0 
L 581 4863 
L 1159 4863 
L 1159 2969 
z
" transform="scale(0.015625)"/>
        <path id="DejaVuSans-6f" d="M 1959 3097 
Q 1497 3097 1228 2736 
Q 959 2375 959 1747 
Q 959 1119 1226 758 
Q 1494 397 1959 397 
Q 2419 397 2687 759 
Q 2956 1122 2956 1747 
Q 2956 2369 2687 2733 
Q 2419 3097 1959 3097 
z
M 1959 3584 
Q 2709 3584 3137 3096 
Q 3566 2609 3566 1747 
Q 3566 888 3137 398 
Q 2709 -91 1959 -91 
Q 1206 -91 779 398 
Q 353 888 353 1747 
Q 353 2609 779 3096 
Q 1206 3584 1959 3584 
z
" transform="scale(0.015625)"/>
        <path id="DejaVuSans-6e" d="M 3513 2113 
L 3513 0 
L 2938 0 
L 2938 2094 
Q 2938 2591 2744 2837 
Q 2550 3084 2163 3084 
Q 1697 3084 1428 2787 
Q 1159 2491 1159 1978 
L 1159 0 
L 581 0 
L 581 3500 
L 1159 3500 
L 1159 2956 
Q 1366 3272 1645 3428 
Q 1925 3584 2291 3584 
Q 2894 3584 3203 3211 
Q 3513 2838 3513 2113 
z
" transform="scale(0.015625)"/>
       </defs>
       <use xlink:href="#DejaVuSans-42"/>
       <use xlink:href="#DejaVuSans-61" x="68.603516"/>
       <use xlink:href="#DejaVuSans-63" x="129.882812"/>
       <use xlink:href="#DejaVuSans-6b" x="184.863281"/>
       <use xlink:href="#DejaVuSans-62" x="242.773438"/>
       <use xlink:href="#DejaVuSans-6f" x="306.25"/>
       <use xlink:href="#DejaVuSans-6e" x="367.431641"/>
       <use xlink:href="#DejaVuSans-65" x="430.810547"/>
      </g>
     </g>
    </g>
    <g id="xtick_4">
     <g id="text_4">
      <!-- Heuristic C-$\beta$ -->
      <g style="fill: #262626" transform="translate(379.63517 670.706219) rotate(-45) scale(0.2 -0.2)">
       <defs>
        <path id="DejaVuSans-48" d="M 628 4666 
L 1259 4666 
L 1259 2753 
L 3553 2753 
L 3553 4666 
L 4184 4666 
L 4184 0 
L 3553 0 
L 3553 2222 
L 1259 2222 
L 1259 0 
L 628 0 
L 628 4666 
z
" transform="scale(0.015625)"/>
        <path id="DejaVuSans-75" d="M 544 1381 
L 544 3500 
L 1119 3500 
L 1119 1403 
Q 1119 906 1312 657 
Q 1506 409 1894 409 
Q 2359 409 2629 706 
Q 2900 1003 2900 1516 
L 2900 3500 
L 3475 3500 
L 3475 0 
L 2900 0 
L 2900 538 
Q 2691 219 2414 64 
Q 2138 -91 1772 -91 
Q 1169 -91 856 284 
Q 544 659 544 1381 
z
M 1991 3584 
L 1991 3584 
z
" transform="scale(0.015625)"/>
        <path id="DejaVuSans-72" d="M 2631 2963 
Q 2534 3019 2420 3045 
Q 2306 3072 2169 3072 
Q 1681 3072 1420 2755 
Q 1159 2438 1159 1844 
L 1159 0 
L 581 0 
L 581 3500 
L 1159 3500 
L 1159 2956 
Q 1341 3275 1631 3429 
Q 1922 3584 2338 3584 
Q 2397 3584 2469 3576 
Q 2541 3569 2628 3553 
L 2631 2963 
z
" transform="scale(0.015625)"/>
        <path id="DejaVuSans-69" d="M 603 3500 
L 1178 3500 
L 1178 0 
L 603 0 
L 603 3500 
z
M 603 4863 
L 1178 4863 
L 1178 4134 
L 603 4134 
L 603 4863 
z
" transform="scale(0.015625)"/>
        <path id="DejaVuSans-73" d="M 2834 3397 
L 2834 2853 
Q 2591 2978 2328 3040 
Q 2066 3103 1784 3103 
Q 1356 3103 1142 2972 
Q 928 2841 928 2578 
Q 928 2378 1081 2264 
Q 1234 2150 1697 2047 
L 1894 2003 
Q 2506 1872 2764 1633 
Q 3022 1394 3022 966 
Q 3022 478 2636 193 
Q 2250 -91 1575 -91 
Q 1294 -91 989 -36 
Q 684 19 347 128 
L 347 722 
Q 666 556 975 473 
Q 1284 391 1588 391 
Q 1994 391 2212 530 
Q 2431 669 2431 922 
Q 2431 1156 2273 1281 
Q 2116 1406 1581 1522 
L 1381 1569 
Q 847 1681 609 1914 
Q 372 2147 372 2553 
Q 372 3047 722 3315 
Q 1072 3584 1716 3584 
Q 2034 3584 2315 3537 
Q 2597 3491 2834 3397 
z
" transform="scale(0.015625)"/>
        <path id="DejaVuSans-20" transform="scale(0.015625)"/>
        <path id="DejaVuSans-43" d="M 4122 4306 
L 4122 3641 
Q 3803 3938 3442 4084 
Q 3081 4231 2675 4231 
Q 1875 4231 1450 3742 
Q 1025 3253 1025 2328 
Q 1025 1406 1450 917 
Q 1875 428 2675 428 
Q 3081 428 3442 575 
Q 3803 722 4122 1019 
L 4122 359 
Q 3791 134 3420 21 
Q 3050 -91 2638 -91 
Q 1578 -91 968 557 
Q 359 1206 359 2328 
Q 359 3453 968 4101 
Q 1578 4750 2638 4750 
Q 3056 4750 3426 4639 
Q 3797 4528 4122 4306 
z
" transform="scale(0.015625)"/>
        <path id="DejaVuSans-2d" d="M 313 2009 
L 1997 2009 
L 1997 1497 
L 313 1497 
L 313 2009 
z
" transform="scale(0.015625)"/>
        <path id="DejaVuSans-Oblique-3b2" d="M 872 216 
L 572 -1331 
L -6 -1331 
L 928 3478 
Q 1206 4903 2538 4903 
Q 3888 4903 3659 3700 
Q 3503 2844 2894 2531 
Q 3713 2250 3553 1416 
Q 3272 -69 1759 -66 
Q 1097 -63 872 216 
z
M 1019 966 
Q 1259 422 1875 425 
Q 2775 425 2966 1406 
Q 3138 2288 1675 2219 
L 1778 2750 
Q 2909 2731 3106 3750 
Q 3241 4438 2509 4434 
Q 1691 4434 1503 3459 
L 1019 966 
z
" transform="scale(0.015625)"/>
       </defs>
       <use xlink:href="#DejaVuSans-48" transform="translate(0 0.390625)"/>
       <use xlink:href="#DejaVuSans-65" transform="translate(75.195312 0.390625)"/>
       <use xlink:href="#DejaVuSans-75" transform="translate(136.71875 0.390625)"/>
       <use xlink:href="#DejaVuSans-72" transform="translate(200.097656 0.390625)"/>
       <use xlink:href="#DejaVuSans-69" transform="translate(241.210938 0.390625)"/>
       <use xlink:href="#DejaVuSans-73" transform="translate(268.994141 0.390625)"/>
       <use xlink:href="#DejaVuSans-74" transform="translate(321.09375 0.390625)"/>
       <use xlink:href="#DejaVuSans-69" transform="translate(360.302734 0.390625)"/>
       <use xlink:href="#DejaVuSans-63" transform="translate(388.085938 0.390625)"/>
       <use xlink:href="#DejaVuSans-20" transform="translate(443.066406 0.390625)"/>
       <use xlink:href="#DejaVuSans-43" transform="translate(474.853516 0.390625)"/>
       <use xlink:href="#DejaVuSans-2d" transform="translate(544.677734 0.390625)"/>
       <use xlink:href="#DejaVuSans-Oblique-3b2" transform="translate(580.761719 0.390625)"/>
      </g>
     </g>
    </g>
    <g id="xtick_5">
     <g id="text_5">
      <!-- Template C-$\beta$ -->
      <g style="fill: #262626" transform="translate(486.992529 674.94886) rotate(-45) scale(0.2 -0.2)">
       <use xlink:href="#DejaVuSans-54" transform="translate(0 0.390625)"/>
       <use xlink:href="#DejaVuSans-65" transform="translate(61.083984 0.390625)"/>
       <use xlink:href="#DejaVuSans-6d" transform="translate(122.607422 0.390625)"/>
       <use xlink:href="#DejaVuSans-70" transform="translate(220.019531 0.390625)"/>
       <use xlink:href="#DejaVuSans-6c" transform="translate(283.496094 0.390625)"/>
       <use xlink:href="#DejaVuSans-61" transform="translate(311.279297 0.390625)"/>
       <use xlink:href="#DejaVuSans-74" transform="translate(372.558594 0.390625)"/>
       <use xlink:href="#DejaVuSans-65" transform="translate(411.767578 0.390625)"/>
       <use xlink:href="#DejaVuSans-20" transform="translate(473.291016 0.390625)"/>
       <use xlink:href="#DejaVuSans-43" transform="translate(505.078125 0.390625)"/>
       <use xlink:href="#DejaVuSans-2d" transform="translate(574.902344 0.390625)"/>
       <use xlink:href="#DejaVuSans-Oblique-3b2" transform="translate(610.986328 0.390625)"/>
      </g>
     </g>
    </g>
    <g id="xtick_6">
     <g id="text_6">
      <!-- AttnPacker -->
      <g style="fill: #262626" transform="translate(617.905383 655.348744) rotate(-45) scale(0.2 -0.2)">
       <defs>
        <path id="DejaVuSans-50" d="M 1259 4147 
L 1259 2394 
L 2053 2394 
Q 2494 2394 2734 2622 
Q 2975 2850 2975 3272 
Q 2975 3691 2734 3919 
Q 2494 4147 2053 4147 
L 1259 4147 
z
M 628 4666 
L 2053 4666 
Q 2838 4666 3239 4311 
Q 3641 3956 3641 3272 
Q 3641 2581 3239 2228 
Q 2838 1875 2053 1875 
L 1259 1875 
L 1259 0 
L 628 0 
L 628 4666 
z
" transform="scale(0.015625)"/>
       </defs>
       <use xlink:href="#DejaVuSans-41"/>
       <use xlink:href="#DejaVuSans-74" x="66.658203"/>
       <use xlink:href="#DejaVuSans-74" x="105.867188"/>
       <use xlink:href="#DejaVuSans-6e" x="145.076172"/>
       <use xlink:href="#DejaVuSans-50" x="208.455078"/>
       <use xlink:href="#DejaVuSans-61" x="264.257812"/>
       <use xlink:href="#DejaVuSans-63" x="325.537109"/>
       <use xlink:href="#DejaVuSans-6b" x="380.517578"/>
       <use xlink:href="#DejaVuSans-65" x="434.802734"/>
       <use xlink:href="#DejaVuSans-72" x="496.326172"/>
      </g>
     </g>
    </g>
    <g id="xtick_7">
     <g id="text_7">
      <!-- AttnPacker (AF2) -->
      <g style="fill: #262626" transform="translate(687.169574 697.684553) rotate(-45) scale(0.2 -0.2)">
       <defs>
        <path id="DejaVuSans-28" d="M 1984 4856 
Q 1566 4138 1362 3434 
Q 1159 2731 1159 2009 
Q 1159 1288 1364 580 
Q 1569 -128 1984 -844 
L 1484 -844 
Q 1016 -109 783 600 
Q 550 1309 550 2009 
Q 550 2706 781 3412 
Q 1013 4119 1484 4856 
L 1984 4856 
z
" transform="scale(0.015625)"/>
        <path id="DejaVuSans-46" d="M 628 4666 
L 3309 4666 
L 3309 4134 
L 1259 4134 
L 1259 2759 
L 3109 2759 
L 3109 2228 
L 1259 2228 
L 1259 0 
L 628 0 
L 628 4666 
z
" transform="scale(0.015625)"/>
        <path id="DejaVuSans-32" d="M 1228 531 
L 3431 531 
L 3431 0 
L 469 0 
L 469 531 
Q 828 903 1448 1529 
Q 2069 2156 2228 2338 
Q 2531 2678 2651 2914 
Q 2772 3150 2772 3378 
Q 2772 3750 2511 3984 
Q 2250 4219 1831 4219 
Q 1534 4219 1204 4116 
Q 875 4013 500 3803 
L 500 4441 
Q 881 4594 1212 4672 
Q 1544 4750 1819 4750 
Q 2544 4750 2975 4387 
Q 3406 4025 3406 3419 
Q 3406 3131 3298 2873 
Q 3191 2616 2906 2266 
Q 2828 2175 2409 1742 
Q 1991 1309 1228 531 
z
" transform="scale(0.015625)"/>
        <path id="DejaVuSans-29" d="M 513 4856 
L 1013 4856 
Q 1481 4119 1714 3412 
Q 1947 2706 1947 2009 
Q 1947 1309 1714 600 
Q 1481 -109 1013 -844 
L 513 -844 
Q 928 -128 1133 580 
Q 1338 1288 1338 2009 
Q 1338 2731 1133 3434 
Q 928 4138 513 4856 
z
" transform="scale(0.015625)"/>
       </defs>
       <use xlink:href="#DejaVuSans-41"/>
       <use xlink:href="#DejaVuSans-74" x="66.658203"/>
       <use xlink:href="#DejaVuSans-74" x="105.867188"/>
       <use xlink:href="#DejaVuSans-6e" x="145.076172"/>
       <use xlink:href="#DejaVuSans-50" x="208.455078"/>
       <use xlink:href="#DejaVuSans-61" x="264.257812"/>
       <use xlink:href="#DejaVuSans-63" x="325.537109"/>
       <use xlink:href="#DejaVuSans-6b" x="380.517578"/>
       <use xlink:href="#DejaVuSans-65" x="434.802734"/>
       <use xlink:href="#DejaVuSans-72" x="496.326172"/>
       <use xlink:href="#DejaVuSans-20" x="537.439453"/>
       <use xlink:href="#DejaVuSans-28" x="569.226562"/>
       <use xlink:href="#DejaVuSans-41" x="608.240234"/>
       <use xlink:href="#DejaVuSans-46" x="676.648438"/>
       <use xlink:href="#DejaVuSans-32" x="734.167969"/>
       <use xlink:href="#DejaVuSans-29" x="797.791016"/>
      </g>
     </g>
    </g>
   </g>
   <g id="matplotlib.axis_2">
    <g id="ytick_1">
     <g id="line2d_1">
      <path d="M 69.3625 515.704497 
L 850.5625 515.704497 
" clip-path="url(#p1fecc86767)" style="fill: none; stroke: #cccccc; stroke-width: 0.8; stroke-linecap: round"/>
     </g>
     <g id="text_8">
      <!-- 0.0 -->
      <g style="fill: #262626" transform="translate(30.55625 523.302935) scale(0.2 -0.2)">
       <defs>
        <path id="DejaVuSans-30" d="M 2034 4250 
Q 1547 4250 1301 3770 
Q 1056 3291 1056 2328 
Q 1056 1369 1301 889 
Q 1547 409 2034 409 
Q 2525 409 2770 889 
Q 3016 1369 3016 2328 
Q 3016 3291 2770 3770 
Q 2525 4250 2034 4250 
z
M 2034 4750 
Q 2819 4750 3233 4129 
Q 3647 3509 3647 2328 
Q 3647 1150 3233 529 
Q 2819 -91 2034 -91 
Q 1250 -91 836 529 
Q 422 1150 422 2328 
Q 422 3509 836 4129 
Q 1250 4750 2034 4750 
z
" transform="scale(0.015625)"/>
        <path id="DejaVuSans-2e" d="M 684 794 
L 1344 794 
L 1344 0 
L 684 0 
L 684 794 
z
" transform="scale(0.015625)"/>
       </defs>
       <use xlink:href="#DejaVuSans-30"/>
       <use xlink:href="#DejaVuSans-2e" x="63.623047"/>
       <use xlink:href="#DejaVuSans-30" x="95.410156"/>
      </g>
     </g>
    </g>
    <g id="ytick_2">
     <g id="line2d_2">
      <path d="M 69.3625 439.307986 
L 850.5625 439.307986 
" clip-path="url(#p1fecc86767)" style="fill: none; stroke: #cccccc; stroke-width: 0.8; stroke-linecap: round"/>
     </g>
     <g id="text_9">
      <!-- 0.2 -->
      <g style="fill: #262626" transform="translate(30.55625 446.906423) scale(0.2 -0.2)">
       <use xlink:href="#DejaVuSans-30"/>
       <use xlink:href="#DejaVuSans-2e" x="63.623047"/>
       <use xlink:href="#DejaVuSans-32" x="95.410156"/>
      </g>
     </g>
    </g>
    <g id="ytick_3">
     <g id="line2d_3">
      <path d="M 69.3625 362.911475 
L 850.5625 362.911475 
" clip-path="url(#p1fecc86767)" style="fill: none; stroke: #cccccc; stroke-width: 0.8; stroke-linecap: round"/>
     </g>
     <g id="text_10">
      <!-- 0.4 -->
      <g style="fill: #262626" transform="translate(30.55625 370.509912) scale(0.2 -0.2)">
       <defs>
        <path id="DejaVuSans-34" d="M 2419 4116 
L 825 1625 
L 2419 1625 
L 2419 4116 
z
M 2253 4666 
L 3047 4666 
L 3047 1625 
L 3713 1625 
L 3713 1100 
L 3047 1100 
L 3047 0 
L 2419 0 
L 2419 1100 
L 313 1100 
L 313 1709 
L 2253 4666 
z
" transform="scale(0.015625)"/>
       </defs>
       <use xlink:href="#DejaVuSans-30"/>
       <use xlink:href="#DejaVuSans-2e" x="63.623047"/>
       <use xlink:href="#DejaVuSans-34" x="95.410156"/>
      </g>
     </g>
    </g>
    <g id="ytick_4">
     <g id="line2d_4">
      <path d="M 69.3625 286.514963 
L 850.5625 286.514963 
" clip-path="url(#p1fecc86767)" style="fill: none; stroke: #cccccc; stroke-width: 0.8; stroke-linecap: round"/>
     </g>
     <g id="text_11">
      <!-- 0.6 -->
      <g style="fill: #262626" transform="translate(30.55625 294.113401) scale(0.2 -0.2)">
       <defs>
        <path id="DejaVuSans-36" d="M 2113 2584 
Q 1688 2584 1439 2293 
Q 1191 2003 1191 1497 
Q 1191 994 1439 701 
Q 1688 409 2113 409 
Q 2538 409 2786 701 
Q 3034 994 3034 1497 
Q 3034 2003 2786 2293 
Q 2538 2584 2113 2584 
z
M 3366 4563 
L 3366 3988 
Q 3128 4100 2886 4159 
Q 2644 4219 2406 4219 
Q 1781 4219 1451 3797 
Q 1122 3375 1075 2522 
Q 1259 2794 1537 2939 
Q 1816 3084 2150 3084 
Q 2853 3084 3261 2657 
Q 3669 2231 3669 1497 
Q 3669 778 3244 343 
Q 2819 -91 2113 -91 
Q 1303 -91 875 529 
Q 447 1150 447 2328 
Q 447 3434 972 4092 
Q 1497 4750 2381 4750 
Q 2619 4750 2861 4703 
Q 3103 4656 3366 4563 
z
" transform="scale(0.015625)"/>
       </defs>
       <use xlink:href="#DejaVuSans-30"/>
       <use xlink:href="#DejaVuSans-2e" x="63.623047"/>
       <use xlink:href="#DejaVuSans-36" x="95.410156"/>
      </g>
     </g>
    </g>
    <g id="ytick_5">
     <g id="line2d_5">
      <path d="M 69.3625 210.118452 
L 850.5625 210.118452 
" clip-path="url(#p1fecc86767)" style="fill: none; stroke: #cccccc; stroke-width: 0.8; stroke-linecap: round"/>
     </g>
     <g id="text_12">
      <!-- 0.8 -->
      <g style="fill: #262626" transform="translate(30.55625 217.716889) scale(0.2 -0.2)">
       <defs>
        <path id="DejaVuSans-38" d="M 2034 2216 
Q 1584 2216 1326 1975 
Q 1069 1734 1069 1313 
Q 1069 891 1326 650 
Q 1584 409 2034 409 
Q 2484 409 2743 651 
Q 3003 894 3003 1313 
Q 3003 1734 2745 1975 
Q 2488 2216 2034 2216 
z
M 1403 2484 
Q 997 2584 770 2862 
Q 544 3141 544 3541 
Q 544 4100 942 4425 
Q 1341 4750 2034 4750 
Q 2731 4750 3128 4425 
Q 3525 4100 3525 3541 
Q 3525 3141 3298 2862 
Q 3072 2584 2669 2484 
Q 3125 2378 3379 2068 
Q 3634 1759 3634 1313 
Q 3634 634 3220 271 
Q 2806 -91 2034 -91 
Q 1263 -91 848 271 
Q 434 634 434 1313 
Q 434 1759 690 2068 
Q 947 2378 1403 2484 
z
M 1172 3481 
Q 1172 3119 1398 2916 
Q 1625 2713 2034 2713 
Q 2441 2713 2670 2916 
Q 2900 3119 2900 3481 
Q 2900 3844 2670 4047 
Q 2441 4250 2034 4250 
Q 1625 4250 1398 4047 
Q 1172 3844 1172 3481 
z
" transform="scale(0.015625)"/>
       </defs>
       <use xlink:href="#DejaVuSans-30"/>
       <use xlink:href="#DejaVuSans-2e" x="63.623047"/>
       <use xlink:href="#DejaVuSans-38" x="95.410156"/>
      </g>
     </g>
    </g>
    <g id="ytick_6">
     <g id="line2d_6">
      <path d="M 69.3625 133.72194 
L 850.5625 133.72194 
" clip-path="url(#p1fecc86767)" style="fill: none; stroke: #cccccc; stroke-width: 0.8; stroke-linecap: round"/>
     </g>
     <g id="text_13">
      <!-- 1.0 -->
      <g style="fill: #262626" transform="translate(30.55625 141.320378) scale(0.2 -0.2)">
       <defs>
        <path id="DejaVuSans-31" d="M 794 531 
L 1825 531 
L 1825 4091 
L 703 3866 
L 703 4441 
L 1819 4666 
L 2450 4666 
L 2450 531 
L 3481 531 
L 3481 0 
L 794 0 
L 794 531 
z
" transform="scale(0.015625)"/>
       </defs>
       <use xlink:href="#DejaVuSans-31"/>
       <use xlink:href="#DejaVuSans-2e" x="63.623047"/>
       <use xlink:href="#DejaVuSans-30" x="95.410156"/>
      </g>
     </g>
    </g>
    <g id="ytick_7">
     <g id="line2d_7">
      <path d="M 69.3625 57.325429 
L 850.5625 57.325429 
" clip-path="url(#p1fecc86767)" style="fill: none; stroke: #cccccc; stroke-width: 0.8; stroke-linecap: round"/>
     </g>
     <g id="text_14">
      <!-- 1.2 -->
      <g style="fill: #262626" transform="translate(30.55625 64.923866) scale(0.2 -0.2)">
       <use xlink:href="#DejaVuSans-31"/>
       <use xlink:href="#DejaVuSans-2e" x="63.623047"/>
       <use xlink:href="#DejaVuSans-32" x="95.410156"/>
      </g>
     </g>
    </g>
    <g id="text_15">
     <!-- MAE 1 (rad) -->
     <g style="fill: #262626" transform="translate(22.396875 343.296875) rotate(-90) scale(0.2 -0.2)">
      <defs>
       <path id="DejaVuSans-45" d="M 628 4666 
L 3578 4666 
L 3578 4134 
L 1259 4134 
L 1259 2753 
L 3481 2753 
L 3481 2222 
L 1259 2222 
L 1259 531 
L 3634 531 
L 3634 0 
L 628 0 
L 628 4666 
z
" transform="scale(0.015625)"/>
       <path id="DejaVuSans-64" d="M 2906 2969 
L 2906 4863 
L 3481 4863 
L 3481 0 
L 2906 0 
L 2906 525 
Q 2725 213 2448 61 
Q 2172 -91 1784 -91 
Q 1150 -91 751 415 
Q 353 922 353 1747 
Q 353 2572 751 3078 
Q 1150 3584 1784 3584 
Q 2172 3584 2448 3432 
Q 2725 3281 2906 2969 
z
M 947 1747 
Q 947 1113 1208 752 
Q 1469 391 1925 391 
Q 2381 391 2643 752 
Q 2906 1113 2906 1747 
Q 2906 2381 2643 2742 
Q 2381 3103 1925 3103 
Q 1469 3103 1208 2742 
Q 947 2381 947 1747 
z
" transform="scale(0.015625)"/>
      </defs>
      <use xlink:href="#DejaVuSans-4d"/>
      <use xlink:href="#DejaVuSans-41" x="86.279297"/>
      <use xlink:href="#DejaVuSans-45" x="154.6875"/>
      <use xlink:href="#DejaVuSans-20" x="217.871094"/>
      <use xlink:href="#DejaVuSans-31" x="249.658203"/>
      <use xlink:href="#DejaVuSans-20" x="313.28125"/>
      <use xlink:href="#DejaVuSans-28" x="345.068359"/>
      <use xlink:href="#DejaVuSans-72" x="384.082031"/>
      <use xlink:href="#DejaVuSans-61" x="425.195312"/>
      <use xlink:href="#DejaVuSans-64" x="486.474609"/>
      <use xlink:href="#DejaVuSans-29" x="549.951172"/>
     </g>
    </g>
   </g>
   <g id="PolyCollection_1">
    <defs>
     <path id="m5781aa11fb" d="M 125.715907 -242.272472 
L 124.609093 -242.272472 
L 124.431951 -246.110451 
L 124.209384 -249.94843 
L 123.933307 -253.786409 
L 123.595153 -257.624388 
L 123.186068 -261.462367 
L 122.697151 -265.300346 
L 122.119716 -269.138325 
L 121.445574 -272.976304 
L 120.667308 -276.814283 
L 119.778536 -280.652262 
L 118.774137 -284.49024 
L 117.650446 -288.328219 
L 116.405402 -292.166198 
L 115.038669 -296.004177 
L 113.551727 -299.842156 
L 111.947964 -303.680135 
L 110.232776 -307.518114 
L 108.413695 -311.356093 
L 106.500557 -315.194072 
L 104.505696 -319.032051 
L 102.444152 -322.87003 
L 100.333861 -326.708008 
L 98.195784 -330.545987 
L 96.053915 -334.383966 
L 93.93512 -338.221945 
L 91.868763 -342.059924 
L 89.886092 -345.897903 
L 88.019376 -349.735882 
L 86.300818 -353.573861 
L 84.761305 -357.41184 
L 83.429061 -361.249819 
L 82.328313 -365.087798 
L 81.478064 -368.925776 
L 80.891065 -372.763755 
L 80.573083 -376.601734 
L 80.5225 -380.439713 
L 80.730272 -384.277692 
L 81.180229 -388.115671 
L 81.849677 -391.95365 
L 82.710236 -395.791629 
L 83.728846 -399.629608 
L 84.868864 -403.467587 
L 86.091201 -407.305566 
L 87.355455 -411.143545 
L 88.621036 -414.981523 
L 89.848261 -418.819502 
L 90.999459 -422.657481 
L 92.040069 -426.49546 
L 92.939753 -430.333439 
L 93.673505 -434.171418 
L 94.222695 -438.009397 
L 94.576014 -441.847376 
L 94.7302 -445.685355 
L 94.690485 -449.523334 
L 94.470648 -453.361313 
L 94.092628 -457.199291 
L 93.585645 -461.03727 
L 92.984855 -464.875249 
L 92.329593 -468.713228 
L 91.661309 -472.551207 
L 91.021345 -476.389186 
L 90.448727 -480.227165 
L 89.978146 -484.065144 
L 89.638296 -487.903123 
L 89.45071 -491.741102 
L 89.429159 -495.579081 
L 89.579682 -499.417059 
L 89.901176 -503.255038 
L 90.386483 -507.093017 
L 91.023836 -510.930996 
L 91.798477 -514.768975 
L 92.694302 -518.606954 
L 93.695323 -522.444933 
L 94.786837 -526.282912 
L 95.956187 -530.120891 
L 97.193074 -533.95887 
L 98.489431 -537.796849 
L 99.838931 -541.634828 
L 101.236224 -545.472806 
L 102.676049 -549.310785 
L 104.152358 -553.148764 
L 105.657574 -556.986743 
L 107.182102 -560.824722 
L 108.714145 -564.662701 
L 110.239859 -568.50068 
L 111.743803 -572.338659 
L 113.209642 -576.176638 
L 114.62101 -580.014617 
L 115.962416 -583.852596 
L 117.220115 -587.690574 
L 118.382833 -591.528553 
L 119.442302 -595.366532 
L 120.393544 -599.204511 
L 121.23492 -603.04249 
L 121.967945 -606.880469 
L 122.596915 -610.718448 
L 123.128403 -614.556427 
L 123.570678 -618.394406 
L 123.933102 -622.232385 
L 126.391898 -622.232385 
L 126.391898 -622.232385 
L 126.754322 -618.394406 
L 127.196597 -614.556427 
L 127.728085 -610.718448 
L 128.357055 -606.880469 
L 129.09008 -603.04249 
L 129.931456 -599.204511 
L 130.882698 -595.366532 
L 131.942167 -591.528553 
L 133.104885 -587.690574 
L 134.362584 -583.852596 
L 135.70399 -580.014617 
L 137.115358 -576.176638 
L 138.581197 -572.338659 
L 140.085141 -568.50068 
L 141.610855 -564.662701 
L 143.142898 -560.824722 
L 144.667426 -556.986743 
L 146.172642 -553.148764 
L 147.648951 -549.310785 
L 149.088776 -545.472806 
L 150.486069 -541.634828 
L 151.835569 -537.796849 
L 153.131926 -533.95887 
L 154.368813 -530.120891 
L 155.538163 -526.282912 
L 156.629677 -522.444933 
L 157.630698 -518.606954 
L 158.526523 -514.768975 
L 159.301164 -510.930996 
L 159.938517 -507.093017 
L 160.423824 -503.255038 
L 160.745318 -499.417059 
L 160.895841 -495.579081 
L 160.87429 -491.741102 
L 160.686704 -487.903123 
L 160.346854 -484.065144 
L 159.876273 -480.227165 
L 159.303655 -476.389186 
L 158.663691 -472.551207 
L 157.995407 -468.713228 
L 157.340145 -464.875249 
L 156.739355 -461.03727 
L 156.232372 -457.199291 
L 155.854352 -453.361313 
L 155.634515 -449.523334 
L 155.5948 -445.685355 
L 155.748986 -441.847376 
L 156.102305 -438.009397 
L 156.651495 -434.171418 
L 157.385247 -430.333439 
L 158.284931 -426.49546 
L 159.325541 -422.657481 
L 160.476739 -418.819502 
L 161.703964 -414.981523 
L 162.969545 -411.143545 
L 164.233799 -407.305566 
L 165.456136 -403.467587 
L 166.596154 -399.629608 
L 167.614764 -395.791629 
L 168.475323 -391.95365 
L 169.144771 -388.115671 
L 169.594728 -384.277692 
L 169.8025 -380.439713 
L 169.751917 -376.601734 
L 169.433935 -372.763755 
L 168.846936 -368.925776 
L 167.996687 -365.087798 
L 166.895939 -361.249819 
L 165.563695 -357.41184 
L 164.024182 -353.573861 
L 162.305624 -349.735882 
L 160.438908 -345.897903 
L 158.456237 -342.059924 
L 156.38988 -338.221945 
L 154.271085 -334.383966 
L 152.129216 -330.545987 
L 149.991139 -326.708008 
L 147.880848 -322.87003 
L 145.819304 -319.032051 
L 143.824443 -315.194072 
L 141.911305 -311.356093 
L 140.092224 -307.518114 
L 138.377036 -303.680135 
L 136.773273 -299.842156 
L 135.286331 -296.004177 
L 133.919598 -292.166198 
L 132.674554 -288.328219 
L 131.550863 -284.49024 
L 130.546464 -280.652262 
L 129.657692 -276.814283 
L 128.879426 -272.976304 
L 128.205284 -269.138325 
L 127.627849 -265.300346 
L 127.138932 -261.462367 
L 126.729847 -257.624388 
L 126.391693 -253.786409 
L 126.115616 -249.94843 
L 125.893049 -246.110451 
L 125.715907 -242.272472 
z
" style="stroke: #3d3d3d; stroke-opacity: 0.5"/>
    </defs>
    <g clip-path="url(#p1fecc86767)">
     <use xlink:href="#m5781aa11fb" x="0" y="707.825675" style="fill: #3274a1; fill-opacity: 0.5; stroke: #3d3d3d; stroke-opacity: 0.5"/>
    </g>
   </g>
   <g id="PolyCollection_2">
    <defs>
     <path id="mf5e0100d7d" d="M 238.098739 -171.425675 
L 235.426261 -171.425675 
L 234.994972 -175.229532 
L 234.455253 -179.03339 
L 233.789973 -182.837248 
L 232.982218 -186.641105 
L 232.016185 -190.444963 
L 230.878196 -194.24882 
L 229.55777 -198.052678 
L 228.048693 -201.856535 
L 226.349994 -205.660393 
L 224.466732 -209.464251 
L 222.410528 -213.268108 
L 220.199764 -217.071966 
L 217.859404 -220.875823 
L 215.42044 -224.679681 
L 212.918976 -228.483538 
L 210.395007 -232.287396 
L 207.89099 -236.091254 
L 205.450296 -239.895111 
L 203.115665 -243.698969 
L 200.927762 -247.502826 
L 198.923912 -251.306684 
L 197.137078 -255.110541 
L 195.595091 -258.914399 
L 194.320126 -262.718257 
L 193.328392 -266.522114 
L 192.629972 -270.325972 
L 192.228766 -274.129829 
L 192.1225 -277.933687 
L 192.302768 -281.737544 
L 192.755115 -285.541402 
L 193.459199 -289.34526 
L 194.38906 -293.149117 
L 195.513573 -296.952975 
L 196.797121 -300.756832 
L 198.200519 -304.56069 
L 199.682196 -308.364547 
L 201.199601 -312.168405 
L 202.710766 -315.972263 
L 204.175927 -319.77612 
L 205.559107 -323.579978 
L 206.829546 -327.383835 
L 207.962871 -331.187693 
L 208.94195 -334.991551 
L 209.757369 -338.795408 
L 210.407531 -342.599266 
L 210.898388 -346.403123 
L 211.242851 -350.206981 
L 211.459919 -354.010838 
L 211.573603 -357.814696 
L 211.611673 -361.618554 
L 211.604304 -365.422411 
L 211.582639 -369.226269 
L 211.577333 -373.030126 
L 211.617096 -376.833984 
L 211.727304 -380.637841 
L 211.928736 -384.441699 
L 212.23649 -388.245557 
L 212.65919 -392.049414 
L 213.198518 -395.853272 
L 213.849179 -399.657129 
L 214.599299 -403.460987 
L 215.431295 -407.264844 
L 216.323162 -411.068702 
L 217.250103 -414.87256 
L 218.186385 -418.676417 
L 219.107264 -422.480275 
L 219.990821 -426.284132 
L 220.819537 -430.08799 
L 221.581467 -433.891847 
L 222.270906 -437.695705 
L 222.888496 -441.499563 
L 223.44077 -445.30342 
L 223.939198 -449.107278 
L 224.39884 -452.911135 
L 224.836751 -456.714993 
L 225.270303 -460.51885 
L 225.71559 -464.322708 
L 226.186056 -468.126566 
L 226.691464 -471.930423 
L 227.237274 -475.734281 
L 227.824454 -479.538138 
L 228.449697 -483.341996 
L 229.105989 -487.145853 
L 229.783439 -490.949711 
L 230.470257 -494.753569 
L 231.153787 -498.557426 
L 231.821483 -502.361284 
L 232.461761 -506.165141 
L 233.064668 -509.968999 
L 233.622335 -513.772856 
L 234.129211 -517.576714 
L 234.582095 -521.380572 
L 234.980004 -525.184429 
L 235.3239 -528.988287 
L 235.616346 -532.792144 
L 235.861111 -536.596002 
L 236.06278 -540.399859 
L 236.226387 -544.203717 
L 236.357097 -548.007575 
L 237.167903 -548.007575 
L 237.167903 -548.007575 
L 237.298613 -544.203717 
L 237.46222 -540.399859 
L 237.663889 -536.596002 
L 237.908654 -532.792144 
L 238.2011 -528.988287 
L 238.544996 -525.184429 
L 238.942905 -521.380572 
L 239.395789 -517.576714 
L 239.902665 -513.772856 
L 240.460332 -509.968999 
L 241.063239 -506.165141 
L 241.703517 -502.361284 
L 242.371213 -498.557426 
L 243.054743 -494.753569 
L 243.741561 -490.949711 
L 244.419011 -487.145853 
L 245.075303 -483.341996 
L 245.700546 -479.538138 
L 246.287726 -475.734281 
L 246.833536 -471.930423 
L 247.338944 -468.126566 
L 247.80941 -464.322708 
L 248.254697 -460.51885 
L 248.688249 -456.714993 
L 249.12616 -452.911135 
L 249.585802 -449.107278 
L 250.08423 -445.30342 
L 250.636504 -441.499563 
L 251.254094 -437.695705 
L 251.943533 -433.891847 
L 252.705463 -430.08799 
L 253.534179 -426.284132 
L 254.417736 -422.480275 
L 255.338615 -418.676417 
L 256.274897 -414.87256 
L 257.201838 -411.068702 
L 258.093705 -407.264844 
L 258.925701 -403.460987 
L 259.675821 -399.657129 
L 260.326482 -395.853272 
L 260.86581 -392.049414 
L 261.28851 -388.245557 
L 261.596264 -384.441699 
L 261.797696 -380.637841 
L 261.907904 -376.833984 
L 261.947667 -373.030126 
L 261.942361 -369.226269 
L 261.920696 -365.422411 
L 261.913327 -361.618554 
L 261.951397 -357.814696 
L 262.065081 -354.010838 
L 262.282149 -350.206981 
L 262.626612 -346.403123 
L 263.117469 -342.599266 
L 263.767631 -338.795408 
L 264.58305 -334.991551 
L 265.562129 -331.187693 
L 266.695454 -327.383835 
L 267.965893 -323.579978 
L 269.349073 -319.77612 
L 270.814234 -315.972263 
L 272.325399 -312.168405 
L 273.842804 -308.364547 
L 275.324481 -304.56069 
L 276.727879 -300.756832 
L 278.011427 -296.952975 
L 279.13594 -293.149117 
L 280.065801 -289.34526 
L 280.769885 -285.541402 
L 281.222232 -281.737544 
L 281.4025 -277.933687 
L 281.296234 -274.129829 
L 280.895028 -270.325972 
L 280.196608 -266.522114 
L 279.204874 -262.718257 
L 277.929909 -258.914399 
L 276.387922 -255.110541 
L 274.601088 -251.306684 
L 272.597238 -247.502826 
L 270.409335 -243.698969 
L 268.074704 -239.895111 
L 265.63401 -236.091254 
L 263.129993 -232.287396 
L 260.606024 -228.483538 
L 258.10456 -224.679681 
L 255.665596 -220.875823 
L 253.325236 -217.071966 
L 251.114472 -213.268108 
L 249.058268 -209.464251 
L 247.175006 -205.660393 
L 245.476307 -201.856535 
L 243.96723 -198.052678 
L 242.646804 -194.24882 
L 241.508815 -190.444963 
L 240.542782 -186.641105 
L 239.735027 -182.837248 
L 239.069747 -179.03339 
L 238.530028 -175.229532 
L 238.098739 -171.425675 
z
" style="stroke: #3d3d3d; stroke-opacity: 0.5"/>
    </defs>
    <g clip-path="url(#p1fecc86767)">
     <use xlink:href="#mf5e0100d7d" x="0" y="707.825675" style="fill: #d684bd; fill-opacity: 0.5; stroke: #3d3d3d; stroke-opacity: 0.5"/>
    </g>
   </g>
   <g id="PolyCollection_3">
    <defs>
     <path id="mbe059b212a" d="M 348.644854 -312.069285 
L 348.080146 -312.069285 
L 347.975165 -315.739551 
L 347.841806 -319.409818 
L 347.67618 -323.080084 
L 347.474924 -326.750351 
L 347.235436 -330.420618 
L 346.956016 -334.090884 
L 346.635897 -337.761151 
L 346.275112 -341.431417 
L 345.874228 -345.101684 
L 345.433954 -348.77195 
L 344.954693 -352.442217 
L 344.436102 -356.112484 
L 343.876748 -359.78275 
L 343.273917 -363.453017 
L 342.62364 -367.123283 
L 341.920921 -370.79355 
L 341.160166 -374.463816 
L 340.335749 -378.134083 
L 339.442649 -381.80435 
L 338.477072 -385.474616 
L 337.436981 -389.144883 
L 336.322474 -392.815149 
L 335.13596 -396.485416 
L 333.882095 -400.155682 
L 332.567492 -403.825949 
L 331.200205 -407.496216 
L 329.789064 -411.166482 
L 328.342929 -414.836749 
L 326.870003 -418.507015 
L 325.377321 -422.177282 
L 323.870546 -425.847548 
L 322.354154 -429.517815 
L 320.832013 -433.188081 
L 319.308287 -436.858348 
L 317.788495 -440.528615 
L 316.280495 -444.198881 
L 314.795164 -447.869148 
L 313.346558 -451.539414 
L 311.951461 -455.209681 
L 310.628314 -458.879947 
L 309.395692 -462.550214 
L 308.27055 -466.220481 
L 307.266551 -469.890747 
L 306.39275 -473.561014 
L 305.652895 -477.23128 
L 305.045453 -480.901547 
L 304.564411 -484.571813 
L 304.200761 -488.24208 
L 303.944491 -491.912347 
L 303.786839 -495.582613 
L 303.7225 -499.25288 
L 303.751488 -502.923146 
L 303.88033 -506.593413 
L 304.122351 -510.263679 
L 304.496876 -513.933946 
L 305.027345 -517.604213 
L 305.738464 -521.274479 
L 306.652738 -524.944746 
L 307.786813 -528.615012 
L 309.14818 -532.285279 
L 310.732762 -535.955545 
L 312.523784 -539.625812 
L 314.492149 -543.296078 
L 316.598317 -546.966345 
L 318.795403 -550.636612 
L 321.033087 -554.306878 
L 323.261736 -557.977145 
L 325.436219 -561.647411 
L 327.518904 -565.317678 
L 329.481539 -568.987944 
L 331.305886 -572.658211 
L 332.983199 -576.328478 
L 334.512783 -579.998744 
L 335.899992 -583.669011 
L 337.154049 -587.339277 
L 338.286039 -591.009544 
L 339.307344 -594.67981 
L 340.228642 -598.350077 
L 341.059488 -602.020344 
L 341.808362 -605.69061 
L 342.483001 -609.360877 
L 343.090815 -613.031143 
L 343.639193 -616.70141 
L 344.135608 -620.371676 
L 344.587465 -624.041943 
L 345.001746 -627.71221 
L 345.384569 -631.382476 
L 345.740764 -635.052743 
L 346.0736 -638.723009 
L 346.384729 -642.393276 
L 346.674363 -646.063542 
L 346.941647 -649.733809 
L 347.185152 -653.404075 
L 347.4034 -657.074342 
L 347.595308 -660.744609 
L 347.760515 -664.414875 
L 347.89954 -668.085142 
L 348.01378 -671.755408 
L 348.105376 -675.425675 
L 348.619624 -675.425675 
L 348.619624 -675.425675 
L 348.71122 -671.755408 
L 348.82546 -668.085142 
L 348.964485 -664.414875 
L 349.129692 -660.744609 
L 349.3216 -657.074342 
L 349.539848 -653.404075 
L 349.783353 -649.733809 
L 350.050637 -646.063542 
L 350.340271 -642.393276 
L 350.6514 -638.723009 
L 350.984236 -635.052743 
L 351.340431 -631.382476 
L 351.723254 -627.71221 
L 352.137535 -624.041943 
L 352.589392 -620.371676 
L 353.085807 -616.70141 
L 353.634185 -613.031143 
L 354.241999 -609.360877 
L 354.916638 -605.69061 
L 355.665512 -602.020344 
L 356.496358 -598.350077 
L 357.417656 -594.67981 
L 358.438961 -591.009544 
L 359.570951 -587.339277 
L 360.825008 -583.669011 
L 362.212217 -579.998744 
L 363.741801 -576.328478 
L 365.419114 -572.658211 
L 367.243461 -568.987944 
L 369.206096 -565.317678 
L 371.288781 -561.647411 
L 373.463264 -557.977145 
L 375.691913 -554.306878 
L 377.929597 -550.636612 
L 380.126683 -546.966345 
L 382.232851 -543.296078 
L 384.201216 -539.625812 
L 385.992238 -535.955545 
L 387.57682 -532.285279 
L 388.938187 -528.615012 
L 390.072262 -524.944746 
L 390.986536 -521.274479 
L 391.697655 -517.604213 
L 392.228124 -513.933946 
L 392.602649 -510.263679 
L 392.84467 -506.593413 
L 392.973512 -502.923146 
L 393.0025 -499.25288 
L 392.938161 -495.582613 
L 392.780509 -491.912347 
L 392.524239 -488.24208 
L 392.160589 -484.571813 
L 391.679547 -480.901547 
L 391.072105 -477.23128 
L 390.33225 -473.561014 
L 389.458449 -469.890747 
L 388.45445 -466.220481 
L 387.329308 -462.550214 
L 386.096686 -458.879947 
L 384.773539 -455.209681 
L 383.378442 -451.539414 
L 381.929836 -447.869148 
L 380.444505 -444.198881 
L 378.936505 -440.528615 
L 377.416713 -436.858348 
L 375.892987 -433.188081 
L 374.370846 -429.517815 
L 372.854454 -425.847548 
L 371.347679 -422.177282 
L 369.854997 -418.507015 
L 368.382071 -414.836749 
L 366.935936 -411.166482 
L 365.524795 -407.496216 
L 364.157508 -403.825949 
L 362.842905 -400.155682 
L 361.58904 -396.485416 
L 360.402526 -392.815149 
L 359.288019 -389.144883 
L 358.247928 -385.474616 
L 357.282351 -381.80435 
L 356.389251 -378.134083 
L 355.564834 -374.463816 
L 354.804079 -370.79355 
L 354.10136 -367.123283 
L 353.451083 -363.453017 
L 352.848252 -359.78275 
L 352.288898 -356.112484 
L 351.770307 -352.442217 
L 351.291046 -348.77195 
L 350.850772 -345.101684 
L 350.449888 -341.431417 
L 350.089103 -337.761151 
L 349.768984 -334.090884 
L 349.489564 -330.420618 
L 349.250076 -326.750351 
L 349.04882 -323.080084 
L 348.883194 -319.409818 
L 348.749835 -315.739551 
L 348.644854 -312.069285 
z
" style="stroke: #3d3d3d; stroke-opacity: 0.5"/>
    </defs>
    <g clip-path="url(#p1fecc86767)">
     <use xlink:href="#mbe059b212a" x="0" y="707.825675" style="fill: #c03d3e; fill-opacity: 0.5; stroke: #3d3d3d; stroke-opacity: 0.5"/>
    </g>
   </g>
   <g id="PolyCollection_4">
    <defs>
     <path id="m12c3a666ed" d="M 460.286948 -207.513799 
L 459.638052 -207.513799 
L 459.522437 -211.97543 
L 459.373276 -216.437061 
L 459.18305 -220.898693 
L 458.943 -225.360324 
L 458.642967 -229.821955 
L 458.271241 -234.283587 
L 457.814452 -238.745218 
L 457.257547 -243.206849 
L 456.583915 -247.668481 
L 455.775733 -252.130112 
L 454.814586 -256.591743 
L 453.682407 -261.053375 
L 452.362748 -265.515006 
L 450.842328 -269.976637 
L 449.112767 -274.438269 
L 447.172363 -278.8999 
L 445.027709 -283.361531 
L 442.694947 -287.823163 
L 440.200465 -292.284794 
L 437.580874 -296.746425 
L 434.882172 -301.208057 
L 432.158098 -305.669688 
L 429.467771 -310.131319 
L 426.872763 -314.59295 
L 424.433865 -319.054582 
L 422.207803 -323.516213 
L 420.244159 -327.977844 
L 418.582752 -332.439476 
L 417.251628 -336.901107 
L 416.265793 -341.362738 
L 415.626703 -345.82437 
L 415.3225 -350.286001 
L 415.328919 -354.747632 
L 415.610769 -359.209264 
L 416.123874 -363.670895 
L 416.817368 -368.132526 
L 417.636238 -372.594158 
L 418.524004 -377.055789 
L 419.425436 -381.51742 
L 420.289182 -385.979052 
L 421.070185 -390.440683 
L 421.731744 -394.902314 
L 422.247089 -399.363946 
L 422.600373 -403.825577 
L 422.786979 -408.287208 
L 422.81317 -412.74884 
L 422.695096 -417.210471 
L 422.457297 -421.672102 
L 422.130848 -426.133734 
L 421.751324 -430.595365 
L 421.356763 -435.056996 
L 420.985751 -439.518628 
L 420.675731 -443.980259 
L 420.461552 -448.44189 
L 420.374262 -452.903522 
L 420.440098 -457.365153 
L 420.67966 -461.826784 
L 421.107232 -466.288416 
L 421.730302 -470.750047 
L 422.549313 -475.211678 
L 423.55771 -479.67331 
L 424.742361 -484.134941 
L 426.084352 -488.596572 
L 427.560146 -493.058204 
L 429.14302 -497.519835 
L 430.804637 -501.981466 
L 432.516614 -506.443097 
L 434.251909 -510.904729 
L 435.985919 -515.36636 
L 437.697203 -519.827991 
L 439.367833 -524.289623 
L 440.983408 -528.751254 
L 442.532833 -533.212885 
L 444.007964 -537.674517 
L 445.403214 -542.136148 
L 446.715198 -546.597779 
L 447.94245 -551.059411 
L 449.085194 -555.521042 
L 450.145161 -559.982673 
L 451.12539 -564.444305 
L 452.02999 -568.905936 
L 452.863836 -573.367567 
L 453.632206 -577.829199 
L 454.340404 -582.29083 
L 454.993383 -586.752461 
L 455.595451 -591.214093 
L 456.150073 -595.675724 
L 456.659809 -600.137355 
L 457.126387 -604.598987 
L 457.550886 -609.060618 
L 457.933991 -613.522249 
L 458.276287 -617.983881 
L 458.578524 -622.445512 
L 458.841836 -626.907143 
L 459.067878 -631.368775 
L 459.258872 -635.830406 
L 459.417567 -640.292037 
L 459.547137 -644.753669 
L 459.651034 -649.2153 
L 460.273966 -649.2153 
L 460.273966 -649.2153 
L 460.377863 -644.753669 
L 460.507433 -640.292037 
L 460.666128 -635.830406 
L 460.857122 -631.368775 
L 461.083164 -626.907143 
L 461.346476 -622.445512 
L 461.648713 -617.983881 
L 461.991009 -613.522249 
L 462.374114 -609.060618 
L 462.798613 -604.598987 
L 463.265191 -600.137355 
L 463.774927 -595.675724 
L 464.329549 -591.214093 
L 464.931617 -586.752461 
L 465.584596 -582.29083 
L 466.292794 -577.829199 
L 467.061164 -573.367567 
L 467.89501 -568.905936 
L 468.79961 -564.444305 
L 469.779839 -559.982673 
L 470.839806 -555.521042 
L 471.98255 -551.059411 
L 473.209802 -546.597779 
L 474.521786 -542.136148 
L 475.917036 -537.674517 
L 477.392167 -533.212885 
L 478.941592 -528.751254 
L 480.557167 -524.289623 
L 482.227797 -519.827991 
L 483.939081 -515.36636 
L 485.673091 -510.904729 
L 487.408386 -506.443097 
L 489.120363 -501.981466 
L 490.78198 -497.519835 
L 492.364854 -493.058204 
L 493.840648 -488.596572 
L 495.182639 -484.134941 
L 496.36729 -479.67331 
L 497.375687 -475.211678 
L 498.194698 -470.750047 
L 498.817768 -466.288416 
L 499.24534 -461.826784 
L 499.484902 -457.365153 
L 499.550738 -452.903522 
L 499.463448 -448.44189 
L 499.249269 -443.980259 
L 498.939249 -439.518628 
L 498.568237 -435.056996 
L 498.173676 -430.595365 
L 497.794152 -426.133734 
L 497.467703 -421.672102 
L 497.229904 -417.210471 
L 497.11183 -412.74884 
L 497.138021 -408.287208 
L 497.324627 -403.825577 
L 497.677911 -399.363946 
L 498.193256 -394.902314 
L 498.854815 -390.440683 
L 499.635818 -385.979052 
L 500.499564 -381.51742 
L 501.400996 -377.055789 
L 502.288762 -372.594158 
L 503.107632 -368.132526 
L 503.801126 -363.670895 
L 504.314231 -359.209264 
L 504.596081 -354.747632 
L 504.6025 -350.286001 
L 504.298297 -345.82437 
L 503.659207 -341.362738 
L 502.673372 -336.901107 
L 501.342248 -332.439476 
L 499.680841 -327.977844 
L 497.717197 -323.516213 
L 495.491135 -319.054582 
L 493.052237 -314.59295 
L 490.457229 -310.131319 
L 487.766902 -305.669688 
L 485.042828 -301.208057 
L 482.344126 -296.746425 
L 479.724535 -292.284794 
L 477.230053 -287.823163 
L 474.897291 -283.361531 
L 472.752637 -278.8999 
L 470.812233 -274.438269 
L 469.082672 -269.976637 
L 467.562252 -265.515006 
L 466.242593 -261.053375 
L 465.110414 -256.591743 
L 464.149267 -252.130112 
L 463.341085 -247.668481 
L 462.667453 -243.206849 
L 462.110548 -238.745218 
L 461.653759 -234.283587 
L 461.282033 -229.821955 
L 460.982 -225.360324 
L 460.74195 -220.898693 
L 460.551724 -216.437061 
L 460.402563 -211.97543 
L 460.286948 -207.513799 
z
" style="stroke: #3d3d3d; stroke-opacity: 0.5"/>
    </defs>
    <g clip-path="url(#p1fecc86767)">
     <use xlink:href="#m12c3a666ed" x="0" y="707.825675" style="fill: #9372b2; fill-opacity: 0.5; stroke: #3d3d3d; stroke-opacity: 0.5"/>
    </g>
   </g>
   <g id="PolyCollection_5">
    <defs>
     <path id="m95dd858ed9" d="M 572.401309 -218.72109 
L 570.723691 -218.72109 
L 570.417124 -223.023819 
L 570.021157 -227.326548 
L 569.518034 -231.629277 
L 568.889137 -235.932005 
L 568.115768 -240.234734 
L 567.180136 -244.537463 
L 566.066498 -248.840192 
L 564.762393 -253.14292 
L 563.259888 -257.445649 
L 561.556725 -261.748378 
L 559.657273 -266.051107 
L 557.573181 -270.353835 
L 555.323641 -274.656564 
L 552.935234 -278.959293 
L 550.441317 -283.262022 
L 547.880987 -287.564751 
L 545.297689 -291.867479 
L 542.73755 -296.170208 
L 540.247552 -300.472937 
L 537.873678 -304.775666 
L 535.659117 -309.078394 
L 533.642657 -313.381123 
L 531.857321 -317.683852 
L 530.329305 -321.986581 
L 529.077242 -326.28931 
L 528.111795 -330.592038 
L 527.435576 -334.894767 
L 527.043348 -339.197496 
L 526.9225 -343.500225 
L 527.05376 -347.802953 
L 527.412097 -352.105682 
L 527.967784 -356.408411 
L 528.687579 -360.71114 
L 529.535971 -365.013869 
L 530.476443 -369.316597 
L 531.472687 -373.619326 
L 532.489742 -377.922055 
L 533.49498 -382.224784 
L 534.458938 -386.527512 
L 535.355959 -390.830241 
L 536.164668 -395.13297 
L 536.868295 -399.435699 
L 537.454885 -403.738428 
L 537.917443 -408.041156 
L 538.25404 -412.343885 
L 538.467901 -416.646614 
L 538.567468 -420.949343 
L 538.566401 -425.252071 
L 538.483458 -429.5548 
L 538.34217 -433.857529 
L 538.170261 -438.160258 
L 537.998729 -442.462987 
L 537.860586 -446.765715 
L 537.789286 -451.068444 
L 537.816914 -455.371173 
L 537.972275 -459.673902 
L 538.279046 -463.97663 
L 538.754178 -468.279359 
L 539.406711 -472.582088 
L 540.237151 -476.884817 
L 541.237478 -481.187546 
L 542.391802 -485.490274 
L 543.677608 -489.793003 
L 545.067461 -494.095732 
L 546.531 -498.398461 
L 548.037025 -502.701189 
L 549.555473 -507.003918 
L 551.059123 -511.306647 
L 552.52488 -515.609376 
L 553.934592 -519.912104 
L 555.275358 -524.214833 
L 556.539381 -528.517562 
L 557.723451 -532.820291 
L 558.828154 -537.12302 
L 559.856941 -541.425748 
L 560.815163 -545.728477 
L 561.709169 -550.031206 
L 562.545535 -554.333935 
L 563.330467 -558.636663 
L 564.069392 -562.939392 
L 564.766715 -567.242121 
L 565.425732 -571.54485 
L 566.048662 -575.847579 
L 566.636759 -580.150307 
L 567.190478 -584.453036 
L 567.709679 -588.755765 
L 568.193831 -593.058494 
L 568.642227 -597.361222 
L 569.054173 -601.663951 
L 569.429168 -605.96668 
L 569.767044 -610.269409 
L 570.068081 -614.572138 
L 570.333072 -618.874866 
L 570.563343 -623.177595 
L 570.76074 -627.480324 
L 570.927561 -631.783053 
L 571.066469 -636.085781 
L 571.180378 -640.38851 
L 571.272328 -644.691239 
L 571.852672 -644.691239 
L 571.852672 -644.691239 
L 571.944622 -640.38851 
L 572.058531 -636.085781 
L 572.197439 -631.783053 
L 572.36426 -627.480324 
L 572.561657 -623.177595 
L 572.791928 -618.874866 
L 573.056919 -614.572138 
L 573.357956 -610.269409 
L 573.695832 -605.96668 
L 574.070827 -601.663951 
L 574.482773 -597.361222 
L 574.931169 -593.058494 
L 575.415321 -588.755765 
L 575.934522 -584.453036 
L 576.488241 -580.150307 
L 577.076338 -575.847579 
L 577.699268 -571.54485 
L 578.358285 -567.242121 
L 579.055608 -562.939392 
L 579.794533 -558.636663 
L 580.579465 -554.333935 
L 581.415831 -550.031206 
L 582.309837 -545.728477 
L 583.268059 -541.425748 
L 584.296846 -537.12302 
L 585.401549 -532.820291 
L 586.585619 -528.517562 
L 587.849642 -524.214833 
L 589.190408 -519.912104 
L 590.60012 -515.609376 
L 592.065877 -511.306647 
L 593.569527 -507.003918 
L 595.087975 -502.701189 
L 596.594 -498.398461 
L 598.057539 -494.095732 
L 599.447392 -489.793003 
L 600.733198 -485.490274 
L 601.887522 -481.187546 
L 602.887849 -476.884817 
L 603.718289 -472.582088 
L 604.370822 -468.279359 
L 604.845954 -463.97663 
L 605.152725 -459.673902 
L 605.308086 -455.371173 
L 605.335714 -451.068444 
L 605.264414 -446.765715 
L 605.126271 -442.462987 
L 604.954739 -438.160258 
L 604.78283 -433.857529 
L 604.641542 -429.5548 
L 604.558599 -425.252071 
L 604.557532 -420.949343 
L 604.657099 -416.646614 
L 604.87096 -412.343885 
L 605.207557 -408.041156 
L 605.670115 -403.738428 
L 606.256705 -399.435699 
L 606.960332 -395.13297 
L 607.769041 -390.830241 
L 608.666062 -386.527512 
L 609.63002 -382.224784 
L 610.635258 -377.922055 
L 611.652313 -373.619326 
L 612.648557 -369.316597 
L 613.589029 -365.013869 
L 614.437421 -360.71114 
L 615.157216 -356.408411 
L 615.712903 -352.105682 
L 616.07124 -347.802953 
L 616.2025 -343.500225 
L 616.081652 -339.197496 
L 615.689424 -334.894767 
L 615.013205 -330.592038 
L 614.047758 -326.28931 
L 612.795695 -321.986581 
L 611.267679 -317.683852 
L 609.482343 -313.381123 
L 607.465883 -309.078394 
L 605.251322 -304.775666 
L 602.877448 -300.472937 
L 600.38745 -296.170208 
L 597.827311 -291.867479 
L 595.244013 -287.564751 
L 592.683683 -283.262022 
L 590.189766 -278.959293 
L 587.801359 -274.656564 
L 585.551819 -270.353835 
L 583.467727 -266.051107 
L 581.568275 -261.748378 
L 579.865112 -257.445649 
L 578.362607 -253.14292 
L 577.058502 -248.840192 
L 575.944864 -244.537463 
L 575.009232 -240.234734 
L 574.235863 -235.932005 
L 573.606966 -231.629277 
L 573.103843 -227.326548 
L 572.707876 -223.023819 
L 572.401309 -218.72109 
z
" style="stroke: #3d3d3d; stroke-opacity: 0.5"/>
    </defs>
    <g clip-path="url(#p1fecc86767)">
     <use xlink:href="#m95dd858ed9" x="0" y="707.825675" style="fill: #845b53; fill-opacity: 0.5; stroke: #3d3d3d; stroke-opacity: 0.5"/>
    </g>
   </g>
   <g id="PolyCollection_6">
    <defs>
     <path id="m4d90446b5b" d="M 683.611918 -176.638587 
L 682.713082 -176.638587 
L 682.560543 -180.224446 
L 682.364547 -183.810304 
L 682.115471 -187.396163 
L 681.802391 -190.982021 
L 681.413139 -194.56788 
L 680.93446 -198.153738 
L 680.352263 -201.739597 
L 679.652005 -205.325455 
L 678.819199 -208.911314 
L 677.840059 -212.497172 
L 676.702275 -216.08303 
L 675.395878 -219.668889 
L 673.914183 -223.254747 
L 672.254723 -226.840606 
L 670.420137 -230.426464 
L 668.418902 -234.012323 
L 666.265856 -237.598181 
L 663.982415 -241.18404 
L 661.596438 -244.769898 
L 659.141688 -248.355757 
L 656.656898 -251.941615 
L 654.184462 -255.527474 
L 651.768824 -259.113332 
L 649.454656 -262.699191 
L 647.284962 -266.285049 
L 645.299229 -269.870908 
L 643.531766 -273.456766 
L 642.010343 -277.042625 
L 640.75522 -280.628483 
L 639.778616 -284.214341 
L 639.08462 -287.8002 
L 638.669524 -291.386058 
L 638.5225 -294.971917 
L 638.626547 -298.557775 
L 638.959603 -302.143634 
L 639.495727 -305.729492 
L 640.206269 -309.315351 
L 641.060956 -312.901209 
L 642.028858 -316.487068 
L 643.079202 -320.072926 
L 644.182036 -323.658785 
L 645.308744 -327.244643 
L 646.432445 -330.830502 
L 647.528293 -334.41636 
L 648.573696 -338.002219 
L 649.548503 -341.588077 
L 650.435153 -345.173936 
L 651.218837 -348.759794 
L 651.887648 -352.345653 
L 652.432763 -355.931511 
L 652.848618 -359.517369 
L 653.133088 -363.103228 
L 653.287629 -366.689086 
L 653.317368 -370.274945 
L 653.231103 -373.860803 
L 653.041175 -377.446662 
L 652.763214 -381.03252 
L 652.415729 -384.618379 
L 652.019567 -388.204237 
L 651.597263 -391.790096 
L 651.17231 -395.375954 
L 650.768422 -398.961813 
L 650.408798 -402.547671 
L 650.115473 -406.13353 
L 649.908756 -409.719388 
L 649.806776 -413.305247 
L 649.825144 -416.891105 
L 649.976715 -420.476964 
L 650.271418 -424.062822 
L 650.716143 -427.648681 
L 651.314662 -431.234539 
L 652.067568 -434.820397 
L 652.972238 -438.406256 
L 654.022825 -441.992114 
L 655.210301 -445.577973 
L 656.52257 -449.163831 
L 657.944663 -452.74969 
L 659.459054 -456.335548 
L 661.046063 -459.921407 
L 662.684386 -463.507265 
L 664.351696 -467.093124 
L 666.025317 -470.678982 
L 667.682923 -474.264841 
L 669.303236 -477.850699 
L 670.866673 -481.436558 
L 672.355921 -485.022416 
L 673.756396 -488.608275 
L 675.056582 -492.194133 
L 676.248207 -495.779992 
L 677.326287 -499.36585 
L 678.289013 -502.951709 
L 679.137509 -506.537567 
L 679.875492 -510.123425 
L 680.508836 -513.709284 
L 681.045099 -517.295142 
L 681.493025 -520.881001 
L 681.862067 -524.466859 
L 682.161937 -528.052718 
L 682.402225 -531.638576 
L 683.922775 -531.638576 
L 683.922775 -531.638576 
L 684.163063 -528.052718 
L 684.462933 -524.466859 
L 684.831975 -520.881001 
L 685.279901 -517.295142 
L 685.816164 -513.709284 
L 686.449508 -510.123425 
L 687.187491 -506.537567 
L 688.035987 -502.951709 
L 688.998713 -499.36585 
L 690.076793 -495.779992 
L 691.268418 -492.194133 
L 692.568604 -488.608275 
L 693.969079 -485.022416 
L 695.458327 -481.436558 
L 697.021764 -477.850699 
L 698.642077 -474.264841 
L 700.299683 -470.678982 
L 701.973304 -467.093124 
L 703.640614 -463.507265 
L 705.278937 -459.921407 
L 706.865946 -456.335548 
L 708.380337 -452.74969 
L 709.80243 -449.163831 
L 711.114699 -445.577973 
L 712.302175 -441.992114 
L 713.352762 -438.406256 
L 714.257432 -434.820397 
L 715.010338 -431.234539 
L 715.608857 -427.648681 
L 716.053582 -424.062822 
L 716.348285 -420.476964 
L 716.499856 -416.891105 
L 716.518224 -413.305247 
L 716.416244 -409.719388 
L 716.209527 -406.13353 
L 715.916202 -402.547671 
L 715.556578 -398.961813 
L 715.15269 -395.375954 
L 714.727737 -391.790096 
L 714.305433 -388.204237 
L 713.909271 -384.618379 
L 713.561786 -381.03252 
L 713.283825 -377.446662 
L 713.093897 -373.860803 
L 713.007632 -370.274945 
L 713.037371 -366.689086 
L 713.191912 -363.103228 
L 713.476382 -359.517369 
L 713.892237 -355.931511 
L 714.437352 -352.345653 
L 715.106163 -348.759794 
L 715.889847 -345.173936 
L 716.776497 -341.588077 
L 717.751304 -338.002219 
L 718.796707 -334.41636 
L 719.892555 -330.830502 
L 721.016256 -327.244643 
L 722.142964 -323.658785 
L 723.245798 -320.072926 
L 724.296142 -316.487068 
L 725.264044 -312.901209 
L 726.118731 -309.315351 
L 726.829273 -305.729492 
L 727.365397 -302.143634 
L 727.698453 -298.557775 
L 727.8025 -294.971917 
L 727.655476 -291.386058 
L 727.24038 -287.8002 
L 726.546384 -284.214341 
L 725.56978 -280.628483 
L 724.314657 -277.042625 
L 722.793234 -273.456766 
L 721.025771 -269.870908 
L 719.040038 -266.285049 
L 716.870344 -262.699191 
L 714.556176 -259.113332 
L 712.140538 -255.527474 
L 709.668102 -251.941615 
L 707.183312 -248.355757 
L 704.728562 -244.769898 
L 702.342585 -241.18404 
L 700.059144 -237.598181 
L 697.906098 -234.012323 
L 695.904863 -230.426464 
L 694.070277 -226.840606 
L 692.410817 -223.254747 
L 690.929122 -219.668889 
L 689.622725 -216.08303 
L 688.484941 -212.497172 
L 687.505801 -208.911314 
L 686.672995 -205.325455 
L 685.972737 -201.739597 
L 685.39054 -198.153738 
L 684.911861 -194.56788 
L 684.522609 -190.982021 
L 684.209529 -187.396163 
L 683.960453 -183.810304 
L 683.764457 -180.224446 
L 683.611918 -176.638587 
z
" style="stroke: #3d3d3d; stroke-opacity: 0.5"/>
    </defs>
    <g clip-path="url(#p1fecc86767)">
     <use xlink:href="#m4d90446b5b" x="0" y="707.825675" style="fill: #e1812c; fill-opacity: 0.5; stroke: #3d3d3d; stroke-opacity: 0.5"/>
    </g>
   </g>
   <g id="PolyCollection_7">
    <defs>
     <path id="m49090f2e39" d="M 795.394349 -179.446719 
L 794.130651 -179.446719 
L 793.914977 -183.552728 
L 793.638884 -187.658738 
L 793.289981 -191.764748 
L 792.854714 -195.870758 
L 792.318651 -199.976768 
L 791.66689 -204.082777 
L 790.884589 -208.188787 
L 789.957619 -212.294797 
L 788.873314 -216.400807 
L 787.621293 -220.506817 
L 786.194322 -224.612826 
L 784.589155 -228.718836 
L 782.807309 -232.824846 
L 780.855718 -236.930856 
L 778.747191 -241.036866 
L 776.500655 -245.142875 
L 774.141106 -249.248885 
L 771.699271 -253.354895 
L 769.21095 -257.460905 
L 766.716067 -261.566915 
L 764.257445 -265.672924 
L 761.879363 -269.778934 
L 759.62597 -273.884944 
L 757.539625 -277.990954 
L 755.659267 -282.096964 
L 754.018897 -286.202973 
L 752.646279 -290.308983 
L 751.561909 -294.414993 
L 750.778334 -298.521003 
L 750.299837 -302.627012 
L 750.1225 -306.733022 
L 750.234611 -310.839032 
L 750.617377 -314.945042 
L 751.245857 -319.051052 
L 752.09006 -323.157061 
L 753.116093 -327.263071 
L 754.287324 -331.369081 
L 755.565476 -335.475091 
L 756.911638 -339.581101 
L 758.287175 -343.68711 
L 759.654564 -347.79312 
L 760.978152 -351.89913 
L 762.224901 -356.00514 
L 763.365123 -360.11115 
L 764.373212 -364.217159 
L 765.228383 -368.323169 
L 765.915364 -372.429179 
L 766.425006 -376.535189 
L 766.754745 -380.641199 
L 766.908845 -384.747208 
L 766.898375 -388.853218 
L 766.740876 -392.959228 
L 766.459707 -397.065238 
L 766.083083 -401.171248 
L 765.642847 -405.277257 
L 765.173053 -409.383267 
L 764.708431 -413.489277 
L 764.282832 -417.595287 
L 763.927754 -421.701297 
L 763.671014 -425.807306 
L 763.535655 -429.913316 
L 763.539126 -434.019326 
L 763.692776 -438.125336 
L 764.00168 -442.231346 
L 764.464786 -446.337355 
L 765.075369 -450.443365 
L 765.821763 -454.549375 
L 766.688313 -458.655385 
L 767.656497 -462.761395 
L 768.706144 -466.867404 
L 769.816663 -470.973414 
L 770.968216 -475.079424 
L 772.14273 -479.185434 
L 773.324709 -483.291443 
L 774.501754 -487.397453 
L 775.664798 -491.503463 
L 776.808015 -495.609473 
L 777.928458 -499.715483 
L 779.025458 -503.821492 
L 780.09987 -507.927502 
L 781.153254 -512.033512 
L 782.18708 -516.139522 
L 783.202049 -520.245532 
L 784.197592 -524.351541 
L 785.171597 -528.457551 
L 786.120371 -532.563561 
L 787.038836 -536.669571 
L 787.920899 -540.775581 
L 788.759957 -544.88159 
L 789.549456 -548.9876 
L 790.283442 -553.09361 
L 790.957043 -557.19962 
L 791.566832 -561.30563 
L 792.111049 -565.411639 
L 792.589668 -569.517649 
L 793.004329 -573.623659 
L 793.358142 -577.729669 
L 793.655418 -581.835679 
L 793.901341 -585.941688 
L 795.623659 -585.941688 
L 795.623659 -585.941688 
L 795.869582 -581.835679 
L 796.166858 -577.729669 
L 796.520671 -573.623659 
L 796.935332 -569.517649 
L 797.413951 -565.411639 
L 797.958168 -561.30563 
L 798.567957 -557.19962 
L 799.241558 -553.09361 
L 799.975544 -548.9876 
L 800.765043 -544.88159 
L 801.604101 -540.775581 
L 802.486164 -536.669571 
L 803.404629 -532.563561 
L 804.353403 -528.457551 
L 805.327408 -524.351541 
L 806.322951 -520.245532 
L 807.33792 -516.139522 
L 808.371746 -512.033512 
L 809.42513 -507.927502 
L 810.499542 -503.821492 
L 811.596542 -499.715483 
L 812.716985 -495.609473 
L 813.860202 -491.503463 
L 815.023246 -487.397453 
L 816.200291 -483.291443 
L 817.38227 -479.185434 
L 818.556784 -475.079424 
L 819.708337 -470.973414 
L 820.818856 -466.867404 
L 821.868503 -462.761395 
L 822.836687 -458.655385 
L 823.703237 -454.549375 
L 824.449631 -450.443365 
L 825.060214 -446.337355 
L 825.52332 -442.231346 
L 825.832224 -438.125336 
L 825.985874 -434.019326 
L 825.989345 -429.913316 
L 825.853986 -425.807306 
L 825.597246 -421.701297 
L 825.242168 -417.595287 
L 824.816569 -413.489277 
L 824.351947 -409.383267 
L 823.882153 -405.277257 
L 823.441917 -401.171248 
L 823.065293 -397.065238 
L 822.784124 -392.959228 
L 822.626625 -388.853218 
L 822.616155 -384.747208 
L 822.770255 -380.641199 
L 823.099994 -376.535189 
L 823.609636 -372.429179 
L 824.296617 -368.323169 
L 825.151788 -364.217159 
L 826.159877 -360.11115 
L 827.300099 -356.00514 
L 828.546848 -351.89913 
L 829.870436 -347.79312 
L 831.237825 -343.68711 
L 832.613362 -339.581101 
L 833.959524 -335.475091 
L 835.237676 -331.369081 
L 836.408907 -327.263071 
L 837.43494 -323.157061 
L 838.279143 -319.051052 
L 838.907623 -314.945042 
L 839.290389 -310.839032 
L 839.4025 -306.733022 
L 839.225163 -302.627012 
L 838.746666 -298.521003 
L 837.963091 -294.414993 
L 836.878721 -290.308983 
L 835.506103 -286.202973 
L 833.865733 -282.096964 
L 831.985375 -277.990954 
L 829.89903 -273.884944 
L 827.645637 -269.778934 
L 825.267555 -265.672924 
L 822.808933 -261.566915 
L 820.31405 -257.460905 
L 817.825729 -253.354895 
L 815.383894 -249.248885 
L 813.024345 -245.142875 
L 810.777809 -241.036866 
L 808.669282 -236.930856 
L 806.717691 -232.824846 
L 804.935845 -228.718836 
L 803.330678 -224.612826 
L 801.903707 -220.506817 
L 800.651686 -216.400807 
L 799.567381 -212.294797 
L 798.640411 -208.188787 
L 797.85811 -204.082777 
L 797.206349 -199.976768 
L 796.670286 -195.870758 
L 796.235019 -191.764748 
L 795.886116 -187.658738 
L 795.610023 -183.552728 
L 795.394349 -179.446719 
z
" style="stroke: #3d3d3d; stroke-opacity: 0.5"/>
    </defs>
    <g clip-path="url(#p1fecc86767)">
     <use xlink:href="#m49090f2e39" x="0" y="707.825675" style="fill: #3a923a; fill-opacity: 0.5; stroke: #3d3d3d; stroke-opacity: 0.5"/>
    </g>
   </g>
   <g id="line2d_8">
    <path d="M 125.1625 401.795855 
L 125.1625 149.350638 
" clip-path="url(#p1fecc86767)" style="fill: none; stroke: #3d3d3d; stroke-width: 1.5; stroke-linecap: round"/>
   </g>
   <g id="line2d_9">
    <path d="M 125.1625 334.500941 
L 125.1625 215.727319 
" clip-path="url(#p1fecc86767)" style="fill: none; stroke: #3d3d3d; stroke-width: 4.5; stroke-linecap: round"/>
   </g>
   <g id="line2d_10">
    <path d="M 125.1625 285.496956 
" clip-path="url(#p1fecc86767)" style="fill: none; stroke: #3d3d3d; stroke-width: 1.5; stroke-linecap: round"/>
    <defs>
     <path id="mc13bf04528" d="M 1.875 0 
L -1.875 -0 
" style="stroke: #ffffff; stroke-width: 0.9"/>
    </defs>
    <g clip-path="url(#p1fecc86767)">
     <use xlink:href="#mc13bf04528" x="125.1625" y="285.496956" style="fill: #ffffff; stroke: #ffffff; stroke-width: 0.9"/>
    </g>
   </g>
   <g id="line2d_11">
    <path d="M 236.7625 474.623959 
L 236.7625 221.594141 
" clip-path="url(#p1fecc86767)" style="fill: none; stroke: #3d3d3d; stroke-width: 1.5; stroke-linecap: round"/>
   </g>
   <g id="line2d_12">
    <path d="M 236.7625 442.61144 
L 236.7625 325.285091 
" clip-path="url(#p1fecc86767)" style="fill: none; stroke: #3d3d3d; stroke-width: 4.5; stroke-linecap: round"/>
   </g>
   <g id="line2d_13">
    <path d="M 236.7625 407.545235 
" clip-path="url(#p1fecc86767)" style="fill: none; stroke: #3d3d3d; stroke-width: 1.5; stroke-linecap: round"/>
    <g clip-path="url(#p1fecc86767)">
     <use xlink:href="#mc13bf04528" x="236.7625" y="407.545235" style="fill: #ffffff; stroke: #ffffff; stroke-width: 0.9"/>
    </g>
   </g>
   <g id="line2d_14">
    <path d="M 348.3625 347.998061 
L 348.3625 80.158329 
" clip-path="url(#p1fecc86767)" style="fill: none; stroke: #3d3d3d; stroke-width: 1.5; stroke-linecap: round"/>
   </g>
   <g id="line2d_15">
    <path d="M 348.3625 252.126896 
L 348.3625 176.931031 
" clip-path="url(#p1fecc86767)" style="fill: none; stroke: #3d3d3d; stroke-width: 4.5; stroke-linecap: round"/>
   </g>
   <g id="line2d_16">
    <path d="M 348.3625 215.720087 
" clip-path="url(#p1fecc86767)" style="fill: none; stroke: #3d3d3d; stroke-width: 1.5; stroke-linecap: round"/>
    <g clip-path="url(#p1fecc86767)">
     <use xlink:href="#mc13bf04528" x="348.3625" y="215.720087" style="fill: #ffffff; stroke: #ffffff; stroke-width: 0.9"/>
    </g>
   </g>
   <g id="line2d_17">
    <path d="M 459.9625 435.862261 
L 459.9625 123.05999 
" clip-path="url(#p1fecc86767)" style="fill: none; stroke: #3d3d3d; stroke-width: 1.5; stroke-linecap: round"/>
   </g>
   <g id="line2d_18">
    <path d="M 459.9625 361.873341 
L 459.9625 235.143989 
" clip-path="url(#p1fecc86767)" style="fill: none; stroke: #3d3d3d; stroke-width: 4.5; stroke-linecap: round"/>
   </g>
   <g id="line2d_19">
    <path d="M 459.9625 298.549082 
" clip-path="url(#p1fecc86767)" style="fill: none; stroke: #3d3d3d; stroke-width: 1.5; stroke-linecap: round"/>
    <g clip-path="url(#p1fecc86767)">
     <use xlink:href="#mc13bf04528" x="459.9625" y="298.549082" style="fill: #ffffff; stroke: #ffffff; stroke-width: 0.9"/>
    </g>
   </g>
   <g id="line2d_20">
    <path d="M 571.5625 423.571009 
L 571.5625 128.668011 
" clip-path="url(#p1fecc86767)" style="fill: none; stroke: #3d3d3d; stroke-width: 1.5; stroke-linecap: round"/>
   </g>
   <g id="line2d_21">
    <path d="M 571.5625 370.634046 
L 571.5625 241.432121 
" clip-path="url(#p1fecc86767)" style="fill: none; stroke: #3d3d3d; stroke-width: 4.5; stroke-linecap: round"/>
   </g>
   <g id="line2d_22">
    <path d="M 571.5625 319.431188 
" clip-path="url(#p1fecc86767)" style="fill: none; stroke: #3d3d3d; stroke-width: 1.5; stroke-linecap: round"/>
    <g clip-path="url(#p1fecc86767)">
     <use xlink:href="#mc13bf04528" x="571.5625" y="319.431188" style="fill: #ffffff; stroke: #ffffff; stroke-width: 0.9"/>
    </g>
   </g>
   <g id="line2d_23">
    <path d="M 683.1625 472.184228 
L 683.1625 235.189958 
" clip-path="url(#p1fecc86767)" style="fill: none; stroke: #3d3d3d; stroke-width: 1.5; stroke-linecap: round"/>
   </g>
   <g id="line2d_24">
    <path d="M 683.1625 418.8788 
L 683.1625 303.027276 
" clip-path="url(#p1fecc86767)" style="fill: none; stroke: #3d3d3d; stroke-width: 4.5; stroke-linecap: round"/>
   </g>
   <g id="line2d_25">
    <path d="M 683.1625 367.398806 
" clip-path="url(#p1fecc86767)" style="fill: none; stroke: #3d3d3d; stroke-width: 1.5; stroke-linecap: round"/>
    <g clip-path="url(#p1fecc86767)">
     <use xlink:href="#mc13bf04528" x="683.1625" y="367.398806" style="fill: #ffffff; stroke: #ffffff; stroke-width: 0.9"/>
    </g>
   </g>
   <g id="line2d_26">
    <path d="M 794.7625 460.562112 
L 794.7625 189.700831 
" clip-path="url(#p1fecc86767)" style="fill: none; stroke: #3d3d3d; stroke-width: 1.5; stroke-linecap: round"/>
   </g>
   <g id="line2d_27">
    <path d="M 794.7625 403.086143 
L 794.7625 275.285246 
" clip-path="url(#p1fecc86767)" style="fill: none; stroke: #3d3d3d; stroke-width: 4.5; stroke-linecap: round"/>
   </g>
   <g id="line2d_28">
    <path d="M 794.7625 358.048158 
" clip-path="url(#p1fecc86767)" style="fill: none; stroke: #3d3d3d; stroke-width: 1.5; stroke-linecap: round"/>
    <g clip-path="url(#p1fecc86767)">
     <use xlink:href="#mc13bf04528" x="794.7625" y="358.048158" style="fill: #ffffff; stroke: #ffffff; stroke-width: 0.9"/>
    </g>
   </g>
   <g id="patch_3">
    <path d="M 69.3625 561.6 
L 850.5625 561.6 
" style="fill: none; stroke: #cccccc; stroke-width: 0.8; stroke-linejoin: miter; stroke-linecap: square"/>
   </g>
  </g>
 </g>
 <defs>
  <clipPath id="p1fecc86767">
   <rect x="69.3625" y="7.2" width="781.2" height="554.4"/>
  </clipPath>
 </defs>
</svg>
