<?xml version="1.0" encoding="utf-8" standalone="no"?>
<!DOCTYPE svg PUBLIC "-//W3C//DTD SVG 1.1//EN"
  "http://www.w3.org/Graphics/SVG/1.1/DTD/svg11.dtd">
<svg xmlns:xlink="http://www.w3.org/1999/xlink" width="857.7625pt" height="707.825675pt" viewBox="0 0 857.7625 707.825675" xmlns="http://www.w3.org/2000/svg" version="1.1">
 <metadata>
  <rdf:RDF xmlns:dc="http://purl.org/dc/elements/1.1/" xmlns:cc="http://creativecommons.org/ns#" xmlns:rdf="http://www.w3.org/1999/02/22-rdf-syntax-ns#">
   <cc:Work>
    <dc:type rdf:resource="http://purl.org/dc/dcmitype/StillImage"/>
    <dc:date>2024-10-23T17:23:32.709877</dc:date>
    <dc:format>image/svg+xml</dc:format>
    <dc:creator>
     <cc:Agent>
      <dc:title>Matplotlib v3.8.0, https://matplotlib.org/</dc:title>
     </cc:Agent>
    </dc:creator>
   </cc:Work>
  </rdf:RDF>
 </metadata>
 <defs>
  <style type="text/css">*{stroke-linejoin: round; stroke-linecap: butt}</style>
 </defs>
 <g id="figure_1">
  <g id="patch_1">
   <path d="M 0 707.825675 
L 857.7625 707.825675 
L 857.7625 0 
L 0 0 
L 0 707.825675 
z
" style="fill: none"/>
  </g>
  <g id="axes_1">
   <g id="patch_2">
    <path d="M 69.3625 561.6 
L 850.5625 561.6 
L 850.5625 7.2 
L 69.3625 7.2 
L 69.3625 561.6 
z
" style="fill: none"/>
   </g>
   <g id="matplotlib.axis_1">
    <g id="xtick_1">
     <g id="text_1">
      <!-- MSA -->
      <g style="fill: #262626" transform="translate(104.788986 610.465141) rotate(-45) scale(0.2 -0.2)">
       <defs>
        <path id="DejaVuSans-4d" d="M 628 4666 
L 1569 4666 
L 2759 1491 
L 3956 4666 
L 4897 4666 
L 4897 0 
L 4281 0 
L 4281 4097 
L 3078 897 
L 2444 897 
L 1241 4097 
L 1241 0 
L 628 0 
L 628 4666 
z
" transform="scale(0.015625)"/>
        <path id="DejaVuSans-53" d="M 3425 4513 
L 3425 3897 
Q 3066 4069 2747 4153 
Q 2428 4238 2131 4238 
Q 1616 4238 1336 4038 
Q 1056 3838 1056 3469 
Q 1056 3159 1242 3001 
Q 1428 2844 1947 2747 
L 2328 2669 
Q 3034 2534 3370 2195 
Q 3706 1856 3706 1288 
Q 3706 609 3251 259 
Q 2797 -91 1919 -91 
Q 1588 -91 1214 -16 
Q 841 59 441 206 
L 441 856 
Q 825 641 1194 531 
Q 1563 422 1919 422 
Q 2459 422 2753 634 
Q 3047 847 3047 1241 
Q 3047 1584 2836 1778 
Q 2625 1972 2144 2069 
L 1759 2144 
Q 1053 2284 737 2584 
Q 422 2884 422 3419 
Q 422 4038 858 4394 
Q 1294 4750 2059 4750 
Q 2388 4750 2728 4690 
Q 3069 4631 3425 4513 
z
" transform="scale(0.015625)"/>
        <path id="DejaVuSans-41" d="M 2188 4044 
L 1331 1722 
L 3047 1722 
L 2188 4044 
z
M 1831 4666 
L 2547 4666 
L 4325 0 
L 3669 0 
L 3244 1197 
L 1141 1197 
L 716 0 
L 50 0 
L 1831 4666 
z
" transform="scale(0.015625)"/>
       </defs>
       <use xlink:href="#DejaVuSans-4d"/>
       <use xlink:href="#DejaVuSans-53" x="86.279297"/>
       <use xlink:href="#DejaVuSans-41" x="151.630859"/>
      </g>
     </g>
    </g>
    <g id="xtick_2">
     <g id="text_2">
      <!-- Template -->
      <g style="fill: #262626" transform="translate(182.97819 643.875936) rotate(-45) scale(0.2 -0.2)">
       <defs>
        <path id="DejaVuSans-54" d="M -19 4666 
L 3928 4666 
L 3928 4134 
L 2272 4134 
L 2272 0 
L 1638 0 
L 1638 4134 
L -19 4134 
L -19 4666 
z
" transform="scale(0.015625)"/>
        <path id="DejaVuSans-65" d="M 3597 1894 
L 3597 1613 
L 953 1613 
Q 991 1019 1311 708 
Q 1631 397 2203 397 
Q 2534 397 2845 478 
Q 3156 559 3463 722 
L 3463 178 
Q 3153 47 2828 -22 
Q 2503 -91 2169 -91 
Q 1331 -91 842 396 
Q 353 884 353 1716 
Q 353 2575 817 3079 
Q 1281 3584 2069 3584 
Q 2775 3584 3186 3129 
Q 3597 2675 3597 1894 
z
M 3022 2063 
Q 3016 2534 2758 2815 
Q 2500 3097 2075 3097 
Q 1594 3097 1305 2825 
Q 1016 2553 972 2059 
L 3022 2063 
z
" transform="scale(0.015625)"/>
        <path id="DejaVuSans-6d" d="M 3328 2828 
Q 3544 3216 3844 3400 
Q 4144 3584 4550 3584 
Q 5097 3584 5394 3201 
Q 5691 2819 5691 2113 
L 5691 0 
L 5113 0 
L 5113 2094 
Q 5113 2597 4934 2840 
Q 4756 3084 4391 3084 
Q 3944 3084 3684 2787 
Q 3425 2491 3425 1978 
L 3425 0 
L 2847 0 
L 2847 2094 
Q 2847 2600 2669 2842 
Q 2491 3084 2119 3084 
Q 1678 3084 1418 2786 
Q 1159 2488 1159 1978 
L 1159 0 
L 581 0 
L 581 3500 
L 1159 3500 
L 1159 2956 
Q 1356 3278 1631 3431 
Q 1906 3584 2284 3584 
Q 2666 3584 2933 3390 
Q 3200 3197 3328 2828 
z
" transform="scale(0.015625)"/>
        <path id="DejaVuSans-70" d="M 1159 525 
L 1159 -1331 
L 581 -1331 
L 581 3500 
L 1159 3500 
L 1159 2969 
Q 1341 3281 1617 3432 
Q 1894 3584 2278 3584 
Q 2916 3584 3314 3078 
Q 3713 2572 3713 1747 
Q 3713 922 3314 415 
Q 2916 -91 2278 -91 
Q 1894 -91 1617 61 
Q 1341 213 1159 525 
z
M 3116 1747 
Q 3116 2381 2855 2742 
Q 2594 3103 2138 3103 
Q 1681 3103 1420 2742 
Q 1159 2381 1159 1747 
Q 1159 1113 1420 752 
Q 1681 391 2138 391 
Q 2594 391 2855 752 
Q 3116 1113 3116 1747 
z
" transform="scale(0.015625)"/>
        <path id="DejaVuSans-6c" d="M 603 4863 
L 1178 4863 
L 1178 0 
L 603 0 
L 603 4863 
z
" transform="scale(0.015625)"/>
        <path id="DejaVuSans-61" d="M 2194 1759 
Q 1497 1759 1228 1600 
Q 959 1441 959 1056 
Q 959 750 1161 570 
Q 1363 391 1709 391 
Q 2188 391 2477 730 
Q 2766 1069 2766 1631 
L 2766 1759 
L 2194 1759 
z
M 3341 1997 
L 3341 0 
L 2766 0 
L 2766 531 
Q 2569 213 2275 61 
Q 1981 -91 1556 -91 
Q 1019 -91 701 211 
Q 384 513 384 1019 
Q 384 1609 779 1909 
Q 1175 2209 1959 2209 
L 2766 2209 
L 2766 2266 
Q 2766 2663 2505 2880 
Q 2244 3097 1772 3097 
Q 1472 3097 1187 3025 
Q 903 2953 641 2809 
L 641 3341 
Q 956 3463 1253 3523 
Q 1550 3584 1831 3584 
Q 2591 3584 2966 3190 
Q 3341 2797 3341 1997 
z
" transform="scale(0.015625)"/>
        <path id="DejaVuSans-74" d="M 1172 4494 
L 1172 3500 
L 2356 3500 
L 2356 3053 
L 1172 3053 
L 1172 1153 
Q 1172 725 1289 603 
Q 1406 481 1766 481 
L 2356 481 
L 2356 0 
L 1766 0 
Q 1100 0 847 248 
Q 594 497 594 1153 
L 594 3053 
L 172 3053 
L 172 3500 
L 594 3500 
L 594 4494 
L 1172 4494 
z
" transform="scale(0.015625)"/>
       </defs>
       <use xlink:href="#DejaVuSans-54"/>
       <use xlink:href="#DejaVuSans-65" x="44.083984"/>
       <use xlink:href="#DejaVuSans-6d" x="105.607422"/>
       <use xlink:href="#DejaVuSans-70" x="203.019531"/>
       <use xlink:href="#DejaVuSans-6c" x="266.496094"/>
       <use xlink:href="#DejaVuSans-61" x="294.279297"/>
       <use xlink:href="#DejaVuSans-74" x="355.558594"/>
       <use xlink:href="#DejaVuSans-65" x="394.767578"/>
      </g>
     </g>
    </g>
    <g id="xtick_3">
     <g id="text_3">
      <!-- Backbone -->
      <g style="fill: #262626" transform="translate(289.478183 648.975944) rotate(-45) scale(0.2 -0.2)">
       <defs>
        <path id="DejaVuSans-42" d="M 1259 2228 
L 1259 519 
L 2272 519 
Q 2781 519 3026 730 
Q 3272 941 3272 1375 
Q 3272 1813 3026 2020 
Q 2781 2228 2272 2228 
L 1259 2228 
z
M 1259 4147 
L 1259 2741 
L 2194 2741 
Q 2656 2741 2882 2914 
Q 3109 3088 3109 3444 
Q 3109 3797 2882 3972 
Q 2656 4147 2194 4147 
L 1259 4147 
z
M 628 4666 
L 2241 4666 
Q 2963 4666 3353 4366 
Q 3744 4066 3744 3513 
Q 3744 3084 3544 2831 
Q 3344 2578 2956 2516 
Q 3422 2416 3680 2098 
Q 3938 1781 3938 1306 
Q 3938 681 3513 340 
Q 3088 0 2303 0 
L 628 0 
L 628 4666 
z
" transform="scale(0.015625)"/>
        <path id="DejaVuSans-63" d="M 3122 3366 
L 3122 2828 
Q 2878 2963 2633 3030 
Q 2388 3097 2138 3097 
Q 1578 3097 1268 2742 
Q 959 2388 959 1747 
Q 959 1106 1268 751 
Q 1578 397 2138 397 
Q 2388 397 2633 464 
Q 2878 531 3122 666 
L 3122 134 
Q 2881 22 2623 -34 
Q 2366 -91 2075 -91 
Q 1284 -91 818 406 
Q 353 903 353 1747 
Q 353 2603 823 3093 
Q 1294 3584 2113 3584 
Q 2378 3584 2631 3529 
Q 2884 3475 3122 3366 
z
" transform="scale(0.015625)"/>
        <path id="DejaVuSans-6b" d="M 581 4863 
L 1159 4863 
L 1159 1991 
L 2875 3500 
L 3609 3500 
L 1753 1863 
L 3688 0 
L 2938 0 
L 1159 1709 
L 1159 0 
L 581 0 
L 581 4863 
z
" transform="scale(0.015625)"/>
        <path id="DejaVuSans-62" d="M 3116 1747 
Q 3116 2381 2855 2742 
Q 2594 3103 2138 3103 
Q 1681 3103 1420 2742 
Q 1159 2381 1159 1747 
Q 1159 1113 1420 752 
Q 1681 391 2138 391 
Q 2594 391 2855 752 
Q 3116 1113 3116 1747 
z
M 1159 2969 
Q 1341 3281 1617 3432 
Q 1894 3584 2278 3584 
Q 2916 3584 3314 3078 
Q 3713 2572 3713 1747 
Q 3713 922 3314 415 
Q 2916 -91 2278 -91 
Q 1894 -91 1617 61 
Q 1341 213 1159 525 
L 1159 0 
L 581 0 
L 581 4863 
L 1159 4863 
L 1159 2969 
z
" transform="scale(0.015625)"/>
        <path id="DejaVuSans-6f" d="M 1959 3097 
Q 1497 3097 1228 2736 
Q 959 2375 959 1747 
Q 959 1119 1226 758 
Q 1494 397 1959 397 
Q 2419 397 2687 759 
Q 2956 1122 2956 1747 
Q 2956 2369 2687 2733 
Q 2419 3097 1959 3097 
z
M 1959 3584 
Q 2709 3584 3137 3096 
Q 3566 2609 3566 1747 
Q 3566 888 3137 398 
Q 2709 -91 1959 -91 
Q 1206 -91 779 398 
Q 353 888 353 1747 
Q 353 2609 779 3096 
Q 1206 3584 1959 3584 
z
" transform="scale(0.015625)"/>
        <path id="DejaVuSans-6e" d="M 3513 2113 
L 3513 0 
L 2938 0 
L 2938 2094 
Q 2938 2591 2744 2837 
Q 2550 3084 2163 3084 
Q 1697 3084 1428 2787 
Q 1159 2491 1159 1978 
L 1159 0 
L 581 0 
L 581 3500 
L 1159 3500 
L 1159 2956 
Q 1366 3272 1645 3428 
Q 1925 3584 2291 3584 
Q 2894 3584 3203 3211 
Q 3513 2838 3513 2113 
z
" transform="scale(0.015625)"/>
       </defs>
       <use xlink:href="#DejaVuSans-42"/>
       <use xlink:href="#DejaVuSans-61" x="68.603516"/>
       <use xlink:href="#DejaVuSans-63" x="129.882812"/>
       <use xlink:href="#DejaVuSans-6b" x="184.863281"/>
       <use xlink:href="#DejaVuSans-62" x="242.773438"/>
       <use xlink:href="#DejaVuSans-6f" x="306.25"/>
       <use xlink:href="#DejaVuSans-6e" x="367.431641"/>
       <use xlink:href="#DejaVuSans-65" x="430.810547"/>
      </g>
     </g>
    </g>
    <g id="xtick_4">
     <g id="text_4">
      <!-- Heuristic C-$\beta$ -->
      <g style="fill: #262626" transform="translate(379.63517 670.706219) rotate(-45) scale(0.2 -0.2)">
       <defs>
        <path id="DejaVuSans-48" d="M 628 4666 
L 1259 4666 
L 1259 2753 
L 3553 2753 
L 3553 4666 
L 4184 4666 
L 4184 0 
L 3553 0 
L 3553 2222 
L 1259 2222 
L 1259 0 
L 628 0 
L 628 4666 
z
" transform="scale(0.015625)"/>
        <path id="DejaVuSans-75" d="M 544 1381 
L 544 3500 
L 1119 3500 
L 1119 1403 
Q 1119 906 1312 657 
Q 1506 409 1894 409 
Q 2359 409 2629 706 
Q 2900 1003 2900 1516 
L 2900 3500 
L 3475 3500 
L 3475 0 
L 2900 0 
L 2900 538 
Q 2691 219 2414 64 
Q 2138 -91 1772 -91 
Q 1169 -91 856 284 
Q 544 659 544 1381 
z
M 1991 3584 
L 1991 3584 
z
" transform="scale(0.015625)"/>
        <path id="DejaVuSans-72" d="M 2631 2963 
Q 2534 3019 2420 3045 
Q 2306 3072 2169 3072 
Q 1681 3072 1420 2755 
Q 1159 2438 1159 1844 
L 1159 0 
L 581 0 
L 581 3500 
L 1159 3500 
L 1159 2956 
Q 1341 3275 1631 3429 
Q 1922 3584 2338 3584 
Q 2397 3584 2469 3576 
Q 2541 3569 2628 3553 
L 2631 2963 
z
" transform="scale(0.015625)"/>
        <path id="DejaVuSans-69" d="M 603 3500 
L 1178 3500 
L 1178 0 
L 603 0 
L 603 3500 
z
M 603 4863 
L 1178 4863 
L 1178 4134 
L 603 4134 
L 603 4863 
z
" transform="scale(0.015625)"/>
        <path id="DejaVuSans-73" d="M 2834 3397 
L 2834 2853 
Q 2591 2978 2328 3040 
Q 2066 3103 1784 3103 
Q 1356 3103 1142 2972 
Q 928 2841 928 2578 
Q 928 2378 1081 2264 
Q 1234 2150 1697 2047 
L 1894 2003 
Q 2506 1872 2764 1633 
Q 3022 1394 3022 966 
Q 3022 478 2636 193 
Q 2250 -91 1575 -91 
Q 1294 -91 989 -36 
Q 684 19 347 128 
L 347 722 
Q 666 556 975 473 
Q 1284 391 1588 391 
Q 1994 391 2212 530 
Q 2431 669 2431 922 
Q 2431 1156 2273 1281 
Q 2116 1406 1581 1522 
L 1381 1569 
Q 847 1681 609 1914 
Q 372 2147 372 2553 
Q 372 3047 722 3315 
Q 1072 3584 1716 3584 
Q 2034 3584 2315 3537 
Q 2597 3491 2834 3397 
z
" transform="scale(0.015625)"/>
        <path id="DejaVuSans-20" transform="scale(0.015625)"/>
        <path id="DejaVuSans-43" d="M 4122 4306 
L 4122 3641 
Q 3803 3938 3442 4084 
Q 3081 4231 2675 4231 
Q 1875 4231 1450 3742 
Q 1025 3253 1025 2328 
Q 1025 1406 1450 917 
Q 1875 428 2675 428 
Q 3081 428 3442 575 
Q 3803 722 4122 1019 
L 4122 359 
Q 3791 134 3420 21 
Q 3050 -91 2638 -91 
Q 1578 -91 968 557 
Q 359 1206 359 2328 
Q 359 3453 968 4101 
Q 1578 4750 2638 4750 
Q 3056 4750 3426 4639 
Q 3797 4528 4122 4306 
z
" transform="scale(0.015625)"/>
        <path id="DejaVuSans-2d" d="M 313 2009 
L 1997 2009 
L 1997 1497 
L 313 1497 
L 313 2009 
z
" transform="scale(0.015625)"/>
        <path id="DejaVuSans-Oblique-3b2" d="M 872 216 
L 572 -1331 
L -6 -1331 
L 928 3478 
Q 1206 4903 2538 4903 
Q 3888 4903 3659 3700 
Q 3503 2844 2894 2531 
Q 3713 2250 3553 1416 
Q 3272 -69 1759 -66 
Q 1097 -63 872 216 
z
M 1019 966 
Q 1259 422 1875 425 
Q 2775 425 2966 1406 
Q 3138 2288 1675 2219 
L 1778 2750 
Q 2909 2731 3106 3750 
Q 3241 4438 2509 4434 
Q 1691 4434 1503 3459 
L 1019 966 
z
" transform="scale(0.015625)"/>
       </defs>
       <use xlink:href="#DejaVuSans-48" transform="translate(0 0.390625)"/>
       <use xlink:href="#DejaVuSans-65" transform="translate(75.195312 0.390625)"/>
       <use xlink:href="#DejaVuSans-75" transform="translate(136.71875 0.390625)"/>
       <use xlink:href="#DejaVuSans-72" transform="translate(200.097656 0.390625)"/>
       <use xlink:href="#DejaVuSans-69" transform="translate(241.210938 0.390625)"/>
       <use xlink:href="#DejaVuSans-73" transform="translate(268.994141 0.390625)"/>
       <use xlink:href="#DejaVuSans-74" transform="translate(321.09375 0.390625)"/>
       <use xlink:href="#DejaVuSans-69" transform="translate(360.302734 0.390625)"/>
       <use xlink:href="#DejaVuSans-63" transform="translate(388.085938 0.390625)"/>
       <use xlink:href="#DejaVuSans-20" transform="translate(443.066406 0.390625)"/>
       <use xlink:href="#DejaVuSans-43" transform="translate(474.853516 0.390625)"/>
       <use xlink:href="#DejaVuSans-2d" transform="translate(544.677734 0.390625)"/>
       <use xlink:href="#DejaVuSans-Oblique-3b2" transform="translate(580.761719 0.390625)"/>
      </g>
     </g>
    </g>
    <g id="xtick_5">
     <g id="text_5">
      <!-- Template C-$\beta$ -->
      <g style="fill: #262626" transform="translate(486.992529 674.94886) rotate(-45) scale(0.2 -0.2)">
       <use xlink:href="#DejaVuSans-54" transform="translate(0 0.390625)"/>
       <use xlink:href="#DejaVuSans-65" transform="translate(61.083984 0.390625)"/>
       <use xlink:href="#DejaVuSans-6d" transform="translate(122.607422 0.390625)"/>
       <use xlink:href="#DejaVuSans-70" transform="translate(220.019531 0.390625)"/>
       <use xlink:href="#DejaVuSans-6c" transform="translate(283.496094 0.390625)"/>
       <use xlink:href="#DejaVuSans-61" transform="translate(311.279297 0.390625)"/>
       <use xlink:href="#DejaVuSans-74" transform="translate(372.558594 0.390625)"/>
       <use xlink:href="#DejaVuSans-65" transform="translate(411.767578 0.390625)"/>
       <use xlink:href="#DejaVuSans-20" transform="translate(473.291016 0.390625)"/>
       <use xlink:href="#DejaVuSans-43" transform="translate(505.078125 0.390625)"/>
       <use xlink:href="#DejaVuSans-2d" transform="translate(574.902344 0.390625)"/>
       <use xlink:href="#DejaVuSans-Oblique-3b2" transform="translate(610.986328 0.390625)"/>
      </g>
     </g>
    </g>
    <g id="xtick_6">
     <g id="text_6">
      <!-- AttnPacker -->
      <g style="fill: #262626" transform="translate(617.905383 655.348744) rotate(-45) scale(0.2 -0.2)">
       <defs>
        <path id="DejaVuSans-50" d="M 1259 4147 
L 1259 2394 
L 2053 2394 
Q 2494 2394 2734 2622 
Q 2975 2850 2975 3272 
Q 2975 3691 2734 3919 
Q 2494 4147 2053 4147 
L 1259 4147 
z
M 628 4666 
L 2053 4666 
Q 2838 4666 3239 4311 
Q 3641 3956 3641 3272 
Q 3641 2581 3239 2228 
Q 2838 1875 2053 1875 
L 1259 1875 
L 1259 0 
L 628 0 
L 628 4666 
z
" transform="scale(0.015625)"/>
       </defs>
       <use xlink:href="#DejaVuSans-41"/>
       <use xlink:href="#DejaVuSans-74" x="66.658203"/>
       <use xlink:href="#DejaVuSans-74" x="105.867188"/>
       <use xlink:href="#DejaVuSans-6e" x="145.076172"/>
       <use xlink:href="#DejaVuSans-50" x="208.455078"/>
       <use xlink:href="#DejaVuSans-61" x="264.257812"/>
       <use xlink:href="#DejaVuSans-63" x="325.537109"/>
       <use xlink:href="#DejaVuSans-6b" x="380.517578"/>
       <use xlink:href="#DejaVuSans-65" x="434.802734"/>
       <use xlink:href="#DejaVuSans-72" x="496.326172"/>
      </g>
     </g>
    </g>
    <g id="xtick_7">
     <g id="text_7">
      <!-- AttnPacker (AF2) -->
      <g style="fill: #262626" transform="translate(687.169574 697.684553) rotate(-45) scale(0.2 -0.2)">
       <defs>
        <path id="DejaVuSans-28" d="M 1984 4856 
Q 1566 4138 1362 3434 
Q 1159 2731 1159 2009 
Q 1159 1288 1364 580 
Q 1569 -128 1984 -844 
L 1484 -844 
Q 1016 -109 783 600 
Q 550 1309 550 2009 
Q 550 2706 781 3412 
Q 1013 4119 1484 4856 
L 1984 4856 
z
" transform="scale(0.015625)"/>
        <path id="DejaVuSans-46" d="M 628 4666 
L 3309 4666 
L 3309 4134 
L 1259 4134 
L 1259 2759 
L 3109 2759 
L 3109 2228 
L 1259 2228 
L 1259 0 
L 628 0 
L 628 4666 
z
" transform="scale(0.015625)"/>
        <path id="DejaVuSans-32" d="M 1228 531 
L 3431 531 
L 3431 0 
L 469 0 
L 469 531 
Q 828 903 1448 1529 
Q 2069 2156 2228 2338 
Q 2531 2678 2651 2914 
Q 2772 3150 2772 3378 
Q 2772 3750 2511 3984 
Q 2250 4219 1831 4219 
Q 1534 4219 1204 4116 
Q 875 4013 500 3803 
L 500 4441 
Q 881 4594 1212 4672 
Q 1544 4750 1819 4750 
Q 2544 4750 2975 4387 
Q 3406 4025 3406 3419 
Q 3406 3131 3298 2873 
Q 3191 2616 2906 2266 
Q 2828 2175 2409 1742 
Q 1991 1309 1228 531 
z
" transform="scale(0.015625)"/>
        <path id="DejaVuSans-29" d="M 513 4856 
L 1013 4856 
Q 1481 4119 1714 3412 
Q 1947 2706 1947 2009 
Q 1947 1309 1714 600 
Q 1481 -109 1013 -844 
L 513 -844 
Q 928 -128 1133 580 
Q 1338 1288 1338 2009 
Q 1338 2731 1133 3434 
Q 928 4138 513 4856 
z
" transform="scale(0.015625)"/>
       </defs>
       <use xlink:href="#DejaVuSans-41"/>
       <use xlink:href="#DejaVuSans-74" x="66.658203"/>
       <use xlink:href="#DejaVuSans-74" x="105.867188"/>
       <use xlink:href="#DejaVuSans-6e" x="145.076172"/>
       <use xlink:href="#DejaVuSans-50" x="208.455078"/>
       <use xlink:href="#DejaVuSans-61" x="264.257812"/>
       <use xlink:href="#DejaVuSans-63" x="325.537109"/>
       <use xlink:href="#DejaVuSans-6b" x="380.517578"/>
       <use xlink:href="#DejaVuSans-65" x="434.802734"/>
       <use xlink:href="#DejaVuSans-72" x="496.326172"/>
       <use xlink:href="#DejaVuSans-20" x="537.439453"/>
       <use xlink:href="#DejaVuSans-28" x="569.226562"/>
       <use xlink:href="#DejaVuSans-41" x="608.240234"/>
       <use xlink:href="#DejaVuSans-46" x="676.648438"/>
       <use xlink:href="#DejaVuSans-32" x="734.167969"/>
       <use xlink:href="#DejaVuSans-29" x="797.791016"/>
      </g>
     </g>
    </g>
   </g>
   <g id="matplotlib.axis_2">
    <g id="ytick_1">
     <g id="line2d_1">
      <path d="M 69.3625 539.717665 
L 850.5625 539.717665 
" clip-path="url(#pa92847c9bf)" style="fill: none; stroke: #cccccc; stroke-width: 0.8; stroke-linecap: round"/>
     </g>
     <g id="text_8">
      <!-- 0.0 -->
      <g style="fill: #262626" transform="translate(30.55625 547.316102) scale(0.2 -0.2)">
       <defs>
        <path id="DejaVuSans-30" d="M 2034 4250 
Q 1547 4250 1301 3770 
Q 1056 3291 1056 2328 
Q 1056 1369 1301 889 
Q 1547 409 2034 409 
Q 2525 409 2770 889 
Q 3016 1369 3016 2328 
Q 3016 3291 2770 3770 
Q 2525 4250 2034 4250 
z
M 2034 4750 
Q 2819 4750 3233 4129 
Q 3647 3509 3647 2328 
Q 3647 1150 3233 529 
Q 2819 -91 2034 -91 
Q 1250 -91 836 529 
Q 422 1150 422 2328 
Q 422 3509 836 4129 
Q 1250 4750 2034 4750 
z
" transform="scale(0.015625)"/>
        <path id="DejaVuSans-2e" d="M 684 794 
L 1344 794 
L 1344 0 
L 684 0 
L 684 794 
z
" transform="scale(0.015625)"/>
       </defs>
       <use xlink:href="#DejaVuSans-30"/>
       <use xlink:href="#DejaVuSans-2e" x="63.623047"/>
       <use xlink:href="#DejaVuSans-30" x="95.410156"/>
      </g>
     </g>
    </g>
    <g id="ytick_2">
     <g id="line2d_2">
      <path d="M 69.3625 439.756665 
L 850.5625 439.756665 
" clip-path="url(#pa92847c9bf)" style="fill: none; stroke: #cccccc; stroke-width: 0.8; stroke-linecap: round"/>
     </g>
     <g id="text_9">
      <!-- 0.2 -->
      <g style="fill: #262626" transform="translate(30.55625 447.355102) scale(0.2 -0.2)">
       <use xlink:href="#DejaVuSans-30"/>
       <use xlink:href="#DejaVuSans-2e" x="63.623047"/>
       <use xlink:href="#DejaVuSans-32" x="95.410156"/>
      </g>
     </g>
    </g>
    <g id="ytick_3">
     <g id="line2d_3">
      <path d="M 69.3625 339.795665 
L 850.5625 339.795665 
" clip-path="url(#pa92847c9bf)" style="fill: none; stroke: #cccccc; stroke-width: 0.8; stroke-linecap: round"/>
     </g>
     <g id="text_10">
      <!-- 0.4 -->
      <g style="fill: #262626" transform="translate(30.55625 347.394102) scale(0.2 -0.2)">
       <defs>
        <path id="DejaVuSans-34" d="M 2419 4116 
L 825 1625 
L 2419 1625 
L 2419 4116 
z
M 2253 4666 
L 3047 4666 
L 3047 1625 
L 3713 1625 
L 3713 1100 
L 3047 1100 
L 3047 0 
L 2419 0 
L 2419 1100 
L 313 1100 
L 313 1709 
L 2253 4666 
z
" transform="scale(0.015625)"/>
       </defs>
       <use xlink:href="#DejaVuSans-30"/>
       <use xlink:href="#DejaVuSans-2e" x="63.623047"/>
       <use xlink:href="#DejaVuSans-34" x="95.410156"/>
      </g>
     </g>
    </g>
    <g id="ytick_4">
     <g id="line2d_4">
      <path d="M 69.3625 239.834664 
L 850.5625 239.834664 
" clip-path="url(#pa92847c9bf)" style="fill: none; stroke: #cccccc; stroke-width: 0.8; stroke-linecap: round"/>
     </g>
     <g id="text_11">
      <!-- 0.6 -->
      <g style="fill: #262626" transform="translate(30.55625 247.433102) scale(0.2 -0.2)">
       <defs>
        <path id="DejaVuSans-36" d="M 2113 2584 
Q 1688 2584 1439 2293 
Q 1191 2003 1191 1497 
Q 1191 994 1439 701 
Q 1688 409 2113 409 
Q 2538 409 2786 701 
Q 3034 994 3034 1497 
Q 3034 2003 2786 2293 
Q 2538 2584 2113 2584 
z
M 3366 4563 
L 3366 3988 
Q 3128 4100 2886 4159 
Q 2644 4219 2406 4219 
Q 1781 4219 1451 3797 
Q 1122 3375 1075 2522 
Q 1259 2794 1537 2939 
Q 1816 3084 2150 3084 
Q 2853 3084 3261 2657 
Q 3669 2231 3669 1497 
Q 3669 778 3244 343 
Q 2819 -91 2113 -91 
Q 1303 -91 875 529 
Q 447 1150 447 2328 
Q 447 3434 972 4092 
Q 1497 4750 2381 4750 
Q 2619 4750 2861 4703 
Q 3103 4656 3366 4563 
z
" transform="scale(0.015625)"/>
       </defs>
       <use xlink:href="#DejaVuSans-30"/>
       <use xlink:href="#DejaVuSans-2e" x="63.623047"/>
       <use xlink:href="#DejaVuSans-36" x="95.410156"/>
      </g>
     </g>
    </g>
    <g id="ytick_5">
     <g id="line2d_5">
      <path d="M 69.3625 139.873664 
L 850.5625 139.873664 
" clip-path="url(#pa92847c9bf)" style="fill: none; stroke: #cccccc; stroke-width: 0.8; stroke-linecap: round"/>
     </g>
     <g id="text_12">
      <!-- 0.8 -->
      <g style="fill: #262626" transform="translate(30.55625 147.472102) scale(0.2 -0.2)">
       <defs>
        <path id="DejaVuSans-38" d="M 2034 2216 
Q 1584 2216 1326 1975 
Q 1069 1734 1069 1313 
Q 1069 891 1326 650 
Q 1584 409 2034 409 
Q 2484 409 2743 651 
Q 3003 894 3003 1313 
Q 3003 1734 2745 1975 
Q 2488 2216 2034 2216 
z
M 1403 2484 
Q 997 2584 770 2862 
Q 544 3141 544 3541 
Q 544 4100 942 4425 
Q 1341 4750 2034 4750 
Q 2731 4750 3128 4425 
Q 3525 4100 3525 3541 
Q 3525 3141 3298 2862 
Q 3072 2584 2669 2484 
Q 3125 2378 3379 2068 
Q 3634 1759 3634 1313 
Q 3634 634 3220 271 
Q 2806 -91 2034 -91 
Q 1263 -91 848 271 
Q 434 634 434 1313 
Q 434 1759 690 2068 
Q 947 2378 1403 2484 
z
M 1172 3481 
Q 1172 3119 1398 2916 
Q 1625 2713 2034 2713 
Q 2441 2713 2670 2916 
Q 2900 3119 2900 3481 
Q 2900 3844 2670 4047 
Q 2441 4250 2034 4250 
Q 1625 4250 1398 4047 
Q 1172 3844 1172 3481 
z
" transform="scale(0.015625)"/>
       </defs>
       <use xlink:href="#DejaVuSans-30"/>
       <use xlink:href="#DejaVuSans-2e" x="63.623047"/>
       <use xlink:href="#DejaVuSans-38" x="95.410156"/>
      </g>
     </g>
    </g>
    <g id="ytick_6">
     <g id="line2d_6">
      <path d="M 69.3625 39.912664 
L 850.5625 39.912664 
" clip-path="url(#pa92847c9bf)" style="fill: none; stroke: #cccccc; stroke-width: 0.8; stroke-linecap: round"/>
     </g>
     <g id="text_13">
      <!-- 1.0 -->
      <g style="fill: #262626" transform="translate(30.55625 47.511101) scale(0.2 -0.2)">
       <defs>
        <path id="DejaVuSans-31" d="M 794 531 
L 1825 531 
L 1825 4091 
L 703 3866 
L 703 4441 
L 1819 4666 
L 2450 4666 
L 2450 531 
L 3481 531 
L 3481 0 
L 794 0 
L 794 531 
z
" transform="scale(0.015625)"/>
       </defs>
       <use xlink:href="#DejaVuSans-31"/>
       <use xlink:href="#DejaVuSans-2e" x="63.623047"/>
       <use xlink:href="#DejaVuSans-30" x="95.410156"/>
      </g>
     </g>
    </g>
    <g id="text_14">
     <!-- lDDT -->
     <g style="fill: #262626" transform="translate(22.396875 308.685938) rotate(-90) scale(0.2 -0.2)">
      <defs>
       <path id="DejaVuSans-44" d="M 1259 4147 
L 1259 519 
L 2022 519 
Q 2988 519 3436 956 
Q 3884 1394 3884 2338 
Q 3884 3275 3436 3711 
Q 2988 4147 2022 4147 
L 1259 4147 
z
M 628 4666 
L 1925 4666 
Q 3281 4666 3915 4102 
Q 4550 3538 4550 2338 
Q 4550 1131 3912 565 
Q 3275 0 1925 0 
L 628 0 
L 628 4666 
z
" transform="scale(0.015625)"/>
      </defs>
      <use xlink:href="#DejaVuSans-6c"/>
      <use xlink:href="#DejaVuSans-44" x="27.783203"/>
      <use xlink:href="#DejaVuSans-44" x="104.785156"/>
      <use xlink:href="#DejaVuSans-54" x="181.787109"/>
     </g>
    </g>
   </g>
   <g id="PolyCollection_1">
    <defs>
     <path id="m8126a81fc4" d="M 125.295427 -230.929056 
L 125.029573 -230.929056 
L 124.971893 -235.407169 
L 124.898764 -239.885282 
L 124.81035 -244.363396 
L 124.708717 -248.841509 
L 124.598099 -253.319623 
L 124.484801 -257.797736 
L 124.376638 -262.275849 
L 124.281944 -266.753963 
L 124.208258 -271.232076 
L 124.160946 -275.71019 
L 124.142057 -280.188303 
L 124.1497 -284.666416 
L 124.178145 -289.14453 
L 124.218672 -293.622643 
L 124.261061 -298.100756 
L 124.295424 -302.57887 
L 124.314038 -307.056983 
L 124.312787 -311.535097 
L 124.291943 -316.01321 
L 124.256107 -320.491323 
L 124.213338 -324.969437 
L 124.17363 -329.44755 
L 124.147054 -333.925663 
L 124.141919 -338.403777 
L 124.163315 -342.88189 
L 124.212299 -347.360004 
L 124.285826 -351.838117 
L 124.377364 -356.31623 
L 124.47801 -360.794344 
L 124.577815 -365.272457 
L 124.667071 -369.750571 
L 124.737342 -374.228684 
L 124.782186 -378.706797 
L 124.797559 -383.184911 
L 124.781989 -387.663024 
L 124.736609 -392.141137 
L 124.665061 -396.619251 
L 124.573262 -401.097364 
L 124.468944 -405.575478 
L 124.360912 -410.053591 
L 124.258022 -414.531704 
L 124.16797 -419.009818 
L 124.09612 -423.487931 
L 124.044614 -427.966044 
L 124.012025 -432.444158 
L 123.993645 -436.922271 
L 123.982367 -441.400385 
L 123.969896 -445.878498 
L 123.947898 -450.356611 
L 123.908698 -454.834725 
L 123.845232 -459.312838 
L 123.750187 -463.790952 
L 123.614545 -468.269065 
L 123.425969 -472.747178 
L 123.167624 -477.225292 
L 122.817932 -481.703405 
L 122.351628 -486.181518 
L 121.742108 -490.659632 
L 120.964712 -495.137745 
L 120.000294 -499.615859 
L 118.838238 -504.093972 
L 117.478142 -508.572085 
L 115.92963 -513.050199 
L 114.21019 -517.528312 
L 112.341458 -522.006425 
L 110.344856 -526.484539 
L 108.237783 -530.962652 
L 106.031573 -535.440766 
L 103.732049 -539.918879 
L 101.342867 -544.396992 
L 98.871012 -548.875106 
L 96.333126 -553.353219 
L 93.760989 -557.831332 
L 91.204616 -562.309446 
L 88.732071 -566.787559 
L 86.426002 -571.265673 
L 84.377763 -575.743786 
L 82.680505 -580.221899 
L 81.422576 -584.700013 
L 80.682058 -589.178126 
L 80.5225 -593.65624 
L 80.989299 -598.134353 
L 82.105973 -602.612466 
L 83.869983 -607.09058 
L 86.248488 -611.568693 
L 89.175266 -616.046806 
L 92.55041 -620.52492 
L 96.244254 -625.003033 
L 100.106058 -629.481147 
L 103.976751 -633.95926 
L 107.703822 -638.437373 
L 111.155731 -642.915487 
L 114.233213 -647.3936 
L 116.87559 -651.871713 
L 119.061399 -656.349827 
L 120.803863 -660.82794 
L 122.142748 -665.306054 
L 123.134559 -669.784167 
L 123.842975 -674.26228 
L 126.482025 -674.26228 
L 126.482025 -674.26228 
L 127.190441 -669.784167 
L 128.182252 -665.306054 
L 129.521137 -660.82794 
L 131.263601 -656.349827 
L 133.44941 -651.871713 
L 136.091787 -647.3936 
L 139.169269 -642.915487 
L 142.621178 -638.437373 
L 146.348249 -633.95926 
L 150.218942 -629.481147 
L 154.080746 -625.003033 
L 157.77459 -620.52492 
L 161.149734 -616.046806 
L 164.076512 -611.568693 
L 166.455017 -607.09058 
L 168.219027 -602.612466 
L 169.335701 -598.134353 
L 169.8025 -593.65624 
L 169.642942 -589.178126 
L 168.902424 -584.700013 
L 167.644495 -580.221899 
L 165.947237 -575.743786 
L 163.898998 -571.265673 
L 161.592929 -566.787559 
L 159.120384 -562.309446 
L 156.564011 -557.831332 
L 153.991874 -553.353219 
L 151.453988 -548.875106 
L 148.982133 -544.396992 
L 146.592951 -539.918879 
L 144.293427 -535.440766 
L 142.087217 -530.962652 
L 139.980144 -526.484539 
L 137.983542 -522.006425 
L 136.11481 -517.528312 
L 134.39537 -513.050199 
L 132.846858 -508.572085 
L 131.486762 -504.093972 
L 130.324706 -499.615859 
L 129.360288 -495.137745 
L 128.582892 -490.659632 
L 127.973372 -486.181518 
L 127.507068 -481.703405 
L 127.157376 -477.225292 
L 126.899031 -472.747178 
L 126.710455 -468.269065 
L 126.574813 -463.790952 
L 126.479768 -459.312838 
L 126.416302 -454.834725 
L 126.377102 -450.356611 
L 126.355104 -445.878498 
L 126.342633 -441.400385 
L 126.331355 -436.922271 
L 126.312975 -432.444158 
L 126.280386 -427.966044 
L 126.22888 -423.487931 
L 126.15703 -419.009818 
L 126.066978 -414.531704 
L 125.964088 -410.053591 
L 125.856056 -405.575478 
L 125.751738 -401.097364 
L 125.659939 -396.619251 
L 125.588391 -392.141137 
L 125.543011 -387.663024 
L 125.527441 -383.184911 
L 125.542814 -378.706797 
L 125.587658 -374.228684 
L 125.657929 -369.750571 
L 125.747185 -365.272457 
L 125.84699 -360.794344 
L 125.947636 -356.31623 
L 126.039174 -351.838117 
L 126.112701 -347.360004 
L 126.161685 -342.88189 
L 126.183081 -338.403777 
L 126.177946 -333.925663 
L 126.15137 -329.44755 
L 126.111662 -324.969437 
L 126.068893 -320.491323 
L 126.033057 -316.01321 
L 126.012213 -311.535097 
L 126.010962 -307.056983 
L 126.029576 -302.57887 
L 126.063939 -298.100756 
L 126.106328 -293.622643 
L 126.146855 -289.14453 
L 126.1753 -284.666416 
L 126.182943 -280.188303 
L 126.164054 -275.71019 
L 126.116742 -271.232076 
L 126.043056 -266.753963 
L 125.948362 -262.275849 
L 125.840199 -257.797736 
L 125.726901 -253.319623 
L 125.616283 -248.841509 
L 125.51465 -244.363396 
L 125.426236 -239.885282 
L 125.353107 -235.407169 
L 125.295427 -230.929056 
z
" style="stroke: #3d3d3d; stroke-opacity: 0.5"/>
    </defs>
    <g clip-path="url(#pa92847c9bf)">
     <use xlink:href="#m8126a81fc4" x="0" y="707.825675" style="fill: #3274a1; fill-opacity: 0.5; stroke: #3d3d3d; stroke-opacity: 0.5"/>
    </g>
   </g>
   <g id="PolyCollection_2">
    <defs>
     <path id="mf8bd2e4746" d="M 236.984262 -539.579151 
L 236.540738 -539.579151 
L 236.451138 -540.951338 
L 236.337825 -542.323525 
L 236.199819 -543.695712 
L 236.038262 -545.067899 
L 235.856945 -546.440086 
L 235.662576 -547.812273 
L 235.464646 -549.184461 
L 235.274839 -550.556648 
L 235.105976 -551.928835 
L 234.970629 -553.301022 
L 234.879582 -554.673209 
L 234.840418 -556.045396 
L 234.856476 -557.417583 
L 234.926381 -558.78977 
L 235.044238 -560.161957 
L 235.200447 -561.534145 
L 235.382998 -562.906332 
L 235.578978 -564.278519 
L 235.776047 -565.650706 
L 235.963643 -567.022893 
L 236.133759 -568.39508 
L 236.281236 -569.767267 
L 236.40362 -571.139454 
L 236.500666 -572.511641 
L 236.573651 -573.883829 
L 236.624623 -575.256016 
L 236.655698 -576.628203 
L 236.668503 -578.00039 
L 236.663798 -579.372577 
L 236.641314 -580.744764 
L 236.599795 -582.116951 
L 236.537256 -583.489138 
L 236.451426 -584.861325 
L 236.340321 -586.233513 
L 236.202901 -587.6057 
L 236.039671 -588.977887 
L 235.853121 -590.350074 
L 235.647836 -591.722261 
L 235.430188 -593.094448 
L 235.207523 -594.466635 
L 234.986917 -595.838822 
L 234.773633 -597.21101 
L 234.569547 -598.583197 
L 234.37187 -599.955384 
L 234.172469 -601.327571 
L 233.958043 -602.699758 
L 233.711224 -604.071945 
L 233.412539 -605.444132 
L 233.042929 -606.816319 
L 232.58643 -608.188506 
L 232.032539 -609.560694 
L 231.377839 -610.932881 
L 230.626594 -612.305068 
L 229.790195 -613.677255 
L 228.885553 -615.049442 
L 227.932724 -616.421629 
L 226.95214 -617.793816 
L 225.961871 -619.166003 
L 224.97529 -620.53819 
L 223.999383 -621.910378 
L 223.033826 -623.282565 
L 222.070793 -624.654752 
L 221.095347 -626.026939 
L 220.086268 -627.399126 
L 219.017172 -628.771313 
L 217.857911 -630.1435 
L 216.576364 -631.515687 
L 215.140843 -632.887874 
L 213.523359 -634.260062 
L 211.703885 -635.632249 
L 209.675519 -637.004436 
L 207.45008 -638.376623 
L 205.063319 -639.74881 
L 202.578647 -641.120997 
L 200.088189 -642.493184 
L 197.710197 -643.865371 
L 195.58231 -645.237558 
L 193.850855 -646.609746 
L 192.657154 -647.981933 
L 192.1225 -649.35412 
L 192.333878 -650.726307 
L 193.332616 -652.098494 
L 195.107778 -653.470681 
L 197.595466 -654.842868 
L 200.684223 -656.215055 
L 204.22582 -657.587242 
L 208.04984 -658.95943 
L 211.97995 -660.331617 
L 215.849631 -661.703804 
L 219.515346 -663.075991 
L 222.865753 -664.448178 
L 225.826251 -665.820365 
L 228.358994 -667.192552 
L 230.459097 -668.564739 
L 232.148214 -669.936926 
L 233.466802 -671.309114 
L 234.466309 -672.681301 
L 235.202246 -674.053488 
L 235.728732 -675.425675 
L 237.796268 -675.425675 
L 237.796268 -675.425675 
L 238.322754 -674.053488 
L 239.058691 -672.681301 
L 240.058198 -671.309114 
L 241.376786 -669.936926 
L 243.065903 -668.564739 
L 245.166006 -667.192552 
L 247.698749 -665.820365 
L 250.659247 -664.448178 
L 254.009654 -663.075991 
L 257.675369 -661.703804 
L 261.54505 -660.331617 
L 265.47516 -658.95943 
L 269.29918 -657.587242 
L 272.840777 -656.215055 
L 275.929534 -654.842868 
L 278.417222 -653.470681 
L 280.192384 -652.098494 
L 281.191122 -650.726307 
L 281.4025 -649.35412 
L 280.867846 -647.981933 
L 279.674145 -646.609746 
L 277.94269 -645.237558 
L 275.814803 -643.865371 
L 273.436811 -642.493184 
L 270.946353 -641.120997 
L 268.461681 -639.74881 
L 266.07492 -638.376623 
L 263.849481 -637.004436 
L 261.821115 -635.632249 
L 260.001641 -634.260062 
L 258.384157 -632.887874 
L 256.948636 -631.515687 
L 255.667089 -630.1435 
L 254.507828 -628.771313 
L 253.438732 -627.399126 
L 252.429653 -626.026939 
L 251.454207 -624.654752 
L 250.491174 -623.282565 
L 249.525617 -621.910378 
L 248.54971 -620.53819 
L 247.563129 -619.166003 
L 246.57286 -617.793816 
L 245.592276 -616.421629 
L 244.639447 -615.049442 
L 243.734805 -613.677255 
L 242.898406 -612.305068 
L 242.147161 -610.932881 
L 241.492461 -609.560694 
L 240.93857 -608.188506 
L 240.482071 -606.816319 
L 240.112461 -605.444132 
L 239.813776 -604.071945 
L 239.566957 -602.699758 
L 239.352531 -601.327571 
L 239.15313 -599.955384 
L 238.955453 -598.583197 
L 238.751367 -597.21101 
L 238.538083 -595.838822 
L 238.317477 -594.466635 
L 238.094812 -593.094448 
L 237.877164 -591.722261 
L 237.671879 -590.350074 
L 237.485329 -588.977887 
L 237.322099 -587.6057 
L 237.184679 -586.233513 
L 237.073574 -584.861325 
L 236.987744 -583.489138 
L 236.925205 -582.116951 
L 236.883686 -580.744764 
L 236.861202 -579.372577 
L 236.856497 -578.00039 
L 236.869302 -576.628203 
L 236.900377 -575.256016 
L 236.951349 -573.883829 
L 237.024334 -572.511641 
L 237.12138 -571.139454 
L 237.243764 -569.767267 
L 237.391241 -568.39508 
L 237.561357 -567.022893 
L 237.748953 -565.650706 
L 237.946022 -564.278519 
L 238.142002 -562.906332 
L 238.324553 -561.534145 
L 238.480762 -560.161957 
L 238.598619 -558.78977 
L 238.668524 -557.417583 
L 238.684582 -556.045396 
L 238.645418 -554.673209 
L 238.554371 -553.301022 
L 238.419024 -551.928835 
L 238.250161 -550.556648 
L 238.060354 -549.184461 
L 237.862424 -547.812273 
L 237.668055 -546.440086 
L 237.486738 -545.067899 
L 237.325181 -543.695712 
L 237.187175 -542.323525 
L 237.073862 -540.951338 
L 236.984262 -539.579151 
z
" style="stroke: #3d3d3d; stroke-opacity: 0.5"/>
    </defs>
    <g clip-path="url(#pa92847c9bf)">
     <use xlink:href="#mf8bd2e4746" x="0" y="707.825675" style="fill: #d684bd; fill-opacity: 0.5; stroke: #3d3d3d; stroke-opacity: 0.5"/>
    </g>
   </g>
   <g id="PolyCollection_3">
    <defs>
     <path id="m313c05c31c" d="M 348.900562 -171.425675 
L 347.824438 -171.425675 
L 347.611116 -176.324094 
L 347.329136 -181.222512 
L 346.96254 -186.120931 
L 346.493713 -191.01935 
L 345.903841 -195.917768 
L 345.173578 -200.816187 
L 344.28392 -205.714606 
L 343.217274 -210.613024 
L 341.958682 -215.511443 
L 340.497139 -220.409862 
L 338.82694 -225.30828 
L 336.948936 -230.206699 
L 334.871605 -235.105118 
L 332.611805 -240.003536 
L 330.1951 -244.901955 
L 327.655556 -249.800374 
L 325.034928 -254.698792 
L 322.38123 -259.597211 
L 319.746714 -264.49563 
L 317.185367 -269.394048 
L 314.750095 -274.292467 
L 312.489839 -279.190886 
L 310.446877 -284.089304 
L 308.654596 -288.987723 
L 307.135978 -293.886142 
L 305.902972 -298.78456 
L 304.956821 -303.682979 
L 304.28931 -308.581398 
L 303.884758 -313.479816 
L 303.7225 -318.378235 
L 303.779526 -323.276654 
L 304.032943 -328.175072 
L 304.461958 -333.073491 
L 305.04917 -337.97191 
L 305.781061 -342.870328 
L 306.647726 -347.768747 
L 307.641958 -352.667166 
L 308.757918 -357.565584 
L 309.989641 -362.464003 
L 311.329632 -367.362422 
L 312.76775 -372.26084 
L 314.290528 -377.159259 
L 315.880966 -382.057678 
L 317.518808 -386.956096 
L 319.18119 -391.854515 
L 320.843593 -396.752934 
L 322.480941 -401.651352 
L 324.068772 -406.549771 
L 325.584356 -411.44819 
L 327.007722 -416.346608 
L 328.322511 -421.245027 
L 329.516644 -426.143446 
L 330.582756 -431.041864 
L 331.518379 -435.940283 
L 332.325855 -440.838702 
L 333.011974 -445.73712 
L 333.587352 -450.635539 
L 334.065575 -455.533958 
L 334.462182 -460.432377 
L 334.793569 -465.330795 
L 335.075903 -470.229214 
L 335.324163 -475.127633 
L 335.5514 -480.026051 
L 335.768272 -484.92447 
L 335.982909 -489.822889 
L 336.201073 -494.721307 
L 336.42658 -499.619726 
L 336.661886 -504.518145 
L 336.908736 -509.416563 
L 337.168759 -514.314982 
L 337.443917 -519.213401 
L 337.736742 -524.111819 
L 338.050329 -529.010238 
L 338.38811 -533.908657 
L 338.753455 -538.807075 
L 339.149175 -543.705494 
L 339.577024 -548.603913 
L 340.037279 -553.502331 
L 340.52846 -558.40075 
L 341.047225 -563.299169 
L 341.588465 -568.197587 
L 342.145558 -573.096006 
L 342.710756 -577.994425 
L 343.275656 -582.892843 
L 343.831697 -587.791262 
L 344.370632 -592.689681 
L 344.884948 -597.588099 
L 345.368201 -602.486518 
L 345.815255 -607.384937 
L 346.222412 -612.283355 
L 346.587457 -617.181774 
L 346.909609 -622.080193 
L 347.189399 -626.978611 
L 347.428499 -631.87703 
L 347.629501 -636.775449 
L 347.795685 -641.673867 
L 347.930779 -646.572286 
L 348.038729 -651.470705 
L 348.123498 -656.369123 
L 348.601502 -656.369123 
L 348.601502 -656.369123 
L 348.686271 -651.470705 
L 348.794221 -646.572286 
L 348.929315 -641.673867 
L 349.095499 -636.775449 
L 349.296501 -631.87703 
L 349.535601 -626.978611 
L 349.815391 -622.080193 
L 350.137543 -617.181774 
L 350.502588 -612.283355 
L 350.909745 -607.384937 
L 351.356799 -602.486518 
L 351.840052 -597.588099 
L 352.354368 -592.689681 
L 352.893303 -587.791262 
L 353.449344 -582.892843 
L 354.014244 -577.994425 
L 354.579442 -573.096006 
L 355.136535 -568.197587 
L 355.677775 -563.299169 
L 356.19654 -558.40075 
L 356.687721 -553.502331 
L 357.147976 -548.603913 
L 357.575825 -543.705494 
L 357.971545 -538.807075 
L 358.33689 -533.908657 
L 358.674671 -529.010238 
L 358.988258 -524.111819 
L 359.281083 -519.213401 
L 359.556241 -514.314982 
L 359.816264 -509.416563 
L 360.063114 -504.518145 
L 360.29842 -499.619726 
L 360.523927 -494.721307 
L 360.742091 -489.822889 
L 360.956728 -484.92447 
L 361.1736 -480.026051 
L 361.400837 -475.127633 
L 361.649097 -470.229214 
L 361.931431 -465.330795 
L 362.262818 -460.432377 
L 362.659425 -455.533958 
L 363.137648 -450.635539 
L 363.713026 -445.73712 
L 364.399145 -440.838702 
L 365.206621 -435.940283 
L 366.142244 -431.041864 
L 367.208356 -426.143446 
L 368.402489 -421.245027 
L 369.717278 -416.346608 
L 371.140644 -411.44819 
L 372.656228 -406.549771 
L 374.244059 -401.651352 
L 375.881407 -396.752934 
L 377.54381 -391.854515 
L 379.206192 -386.956096 
L 380.844034 -382.057678 
L 382.434472 -377.159259 
L 383.95725 -372.26084 
L 385.395368 -367.362422 
L 386.735359 -362.464003 
L 387.967082 -357.565584 
L 389.083042 -352.667166 
L 390.077274 -347.768747 
L 390.943939 -342.870328 
L 391.67583 -337.97191 
L 392.263042 -333.073491 
L 392.692057 -328.175072 
L 392.945474 -323.276654 
L 393.0025 -318.378235 
L 392.840242 -313.479816 
L 392.43569 -308.581398 
L 391.768179 -303.682979 
L 390.822028 -298.78456 
L 389.589022 -293.886142 
L 388.070404 -288.987723 
L 386.278123 -284.089304 
L 384.235161 -279.190886 
L 381.974905 -274.292467 
L 379.539633 -269.394048 
L 376.978286 -264.49563 
L 374.34377 -259.597211 
L 371.690072 -254.698792 
L 369.069444 -249.800374 
L 366.5299 -244.901955 
L 364.113195 -240.003536 
L 361.853395 -235.105118 
L 359.776064 -230.206699 
L 357.89806 -225.30828 
L 356.227861 -220.409862 
L 354.766318 -215.511443 
L 353.507726 -210.613024 
L 352.44108 -205.714606 
L 351.551422 -200.816187 
L 350.821159 -195.917768 
L 350.231287 -191.01935 
L 349.76246 -186.120931 
L 349.395864 -181.222512 
L 349.113884 -176.324094 
L 348.900562 -171.425675 
z
" style="stroke: #3d3d3d; stroke-opacity: 0.5"/>
    </defs>
    <g clip-path="url(#pa92847c9bf)">
     <use xlink:href="#m313c05c31c" x="0" y="707.825675" style="fill: #c03d3e; fill-opacity: 0.5; stroke: #3d3d3d; stroke-opacity: 0.5"/>
    </g>
   </g>
   <g id="PolyCollection_4">
    <defs>
     <path id="md0166810c6" d="M 460.11034 -525.067371 
L 459.81466 -525.067371 
L 459.755589 -526.453944 
L 459.681298 -527.840517 
L 459.591272 -529.227089 
L 459.486255 -530.613662 
L 459.368447 -532.000235 
L 459.241503 -533.386808 
L 459.110285 -534.773381 
L 458.980371 -536.159954 
L 458.857389 -537.546527 
L 458.746307 -538.9331 
L 458.650836 -540.319673 
L 458.573087 -541.706246 
L 458.513575 -543.092818 
L 458.471573 -544.479391 
L 458.445711 -545.865964 
L 458.434659 -547.252537 
L 458.437688 -548.63911 
L 458.454935 -550.025683 
L 458.487293 -551.412256 
L 458.535936 -552.798829 
L 458.601606 -554.185402 
L 458.683837 -555.571974 
L 458.780295 -556.958547 
L 458.886385 -558.34512 
L 458.995166 -559.731693 
L 459.097552 -561.118266 
L 459.182717 -562.504839 
L 459.238579 -563.891412 
L 459.252324 -565.277985 
L 459.210917 -566.664558 
L 459.101665 -568.051131 
L 458.912907 -569.437703 
L 458.634901 -570.824276 
L 458.26092 -572.210849 
L 457.788496 -573.597422 
L 457.220608 -574.983995 
L 456.566574 -576.370568 
L 455.842326 -577.757141 
L 455.069819 -579.143714 
L 454.275415 -580.530287 
L 453.487303 -581.91686 
L 452.732183 -583.303432 
L 452.031695 -584.690005 
L 451.399174 -586.076578 
L 450.837375 -587.463151 
L 450.33769 -588.849724 
L 449.881175 -590.236297 
L 449.44132 -591.62287 
L 448.988173 -593.009443 
L 448.493044 -594.396016 
L 447.932837 -595.782589 
L 447.293016 -597.169161 
L 446.568452 -598.555734 
L 445.761806 -599.942307 
L 444.879684 -601.32888 
L 443.927379 -602.715453 
L 442.903482 -604.102026 
L 441.795843 -605.488599 
L 440.580222 -606.875172 
L 439.222496 -608.261745 
L 437.684511 -609.648317 
L 435.932808 -611.03489 
L 433.948662 -612.421463 
L 431.737438 -613.808036 
L 429.335183 -615.194609 
L 426.810876 -616.581182 
L 424.263539 -617.967755 
L 421.814462 -619.354328 
L 419.595737 -620.740901 
L 417.736965 -622.127474 
L 416.352251 -623.514046 
L 415.529378 -624.900619 
L 415.3225 -626.287192 
L 415.748963 -627.673765 
L 416.790139 -629.060338 
L 418.395612 -630.446911 
L 420.489739 -631.833484 
L 422.979527 -633.220057 
L 425.762827 -634.60663 
L 428.736037 -635.993203 
L 431.800695 -637.379775 
L 434.868537 -638.766348 
L 437.864827 -640.152921 
L 440.729927 -641.539494 
L 443.419315 -642.926067 
L 445.902381 -644.31264 
L 448.160471 -645.699213 
L 450.184643 -647.085786 
L 451.973546 -648.472359 
L 453.531668 -649.858932 
L 454.868051 -651.245504 
L 455.99541 -652.632077 
L 456.929489 -654.01865 
L 457.688484 -655.405223 
L 458.292395 -656.791796 
L 458.762255 -658.178369 
L 459.119251 -659.564942 
L 459.383835 -660.951515 
L 459.574928 -662.338088 
L 460.350072 -662.338088 
L 460.350072 -662.338088 
L 460.541165 -660.951515 
L 460.805749 -659.564942 
L 461.162745 -658.178369 
L 461.632605 -656.791796 
L 462.236516 -655.405223 
L 462.995511 -654.01865 
L 463.92959 -652.632077 
L 465.056949 -651.245504 
L 466.393332 -649.858932 
L 467.951454 -648.472359 
L 469.740357 -647.085786 
L 471.764529 -645.699213 
L 474.022619 -644.31264 
L 476.505685 -642.926067 
L 479.195073 -641.539494 
L 482.060173 -640.152921 
L 485.056463 -638.766348 
L 488.124305 -637.379775 
L 491.188963 -635.993203 
L 494.162173 -634.60663 
L 496.945473 -633.220057 
L 499.435261 -631.833484 
L 501.529388 -630.446911 
L 503.134861 -629.060338 
L 504.176037 -627.673765 
L 504.6025 -626.287192 
L 504.395622 -624.900619 
L 503.572749 -623.514046 
L 502.188035 -622.127474 
L 500.329263 -620.740901 
L 498.110538 -619.354328 
L 495.661461 -617.967755 
L 493.114124 -616.581182 
L 490.589817 -615.194609 
L 488.187562 -613.808036 
L 485.976338 -612.421463 
L 483.992192 -611.03489 
L 482.240489 -609.648317 
L 480.702504 -608.261745 
L 479.344778 -606.875172 
L 478.129157 -605.488599 
L 477.021518 -604.102026 
L 475.997621 -602.715453 
L 475.045316 -601.32888 
L 474.163194 -599.942307 
L 473.356548 -598.555734 
L 472.631984 -597.169161 
L 471.992163 -595.782589 
L 471.431956 -594.396016 
L 470.936827 -593.009443 
L 470.48368 -591.62287 
L 470.043825 -590.236297 
L 469.58731 -588.849724 
L 469.087625 -587.463151 
L 468.525826 -586.076578 
L 467.893305 -584.690005 
L 467.192817 -583.303432 
L 466.437697 -581.91686 
L 465.649585 -580.530287 
L 464.855181 -579.143714 
L 464.082674 -577.757141 
L 463.358426 -576.370568 
L 462.704392 -574.983995 
L 462.136504 -573.597422 
L 461.66408 -572.210849 
L 461.290099 -570.824276 
L 461.012093 -569.437703 
L 460.823335 -568.051131 
L 460.714083 -566.664558 
L 460.672676 -565.277985 
L 460.686421 -563.891412 
L 460.742283 -562.504839 
L 460.827448 -561.118266 
L 460.929834 -559.731693 
L 461.038615 -558.34512 
L 461.144705 -556.958547 
L 461.241163 -555.571974 
L 461.323394 -554.185402 
L 461.389064 -552.798829 
L 461.437707 -551.412256 
L 461.470065 -550.025683 
L 461.487312 -548.63911 
L 461.490341 -547.252537 
L 461.479289 -545.865964 
L 461.453427 -544.479391 
L 461.411425 -543.092818 
L 461.351913 -541.706246 
L 461.274164 -540.319673 
L 461.178693 -538.9331 
L 461.067611 -537.546527 
L 460.944629 -536.159954 
L 460.814715 -534.773381 
L 460.683497 -533.386808 
L 460.556553 -532.000235 
L 460.438745 -530.613662 
L 460.333728 -529.227089 
L 460.243702 -527.840517 
L 460.169411 -526.453944 
L 460.11034 -525.067371 
z
" style="stroke: #3d3d3d; stroke-opacity: 0.5"/>
    </defs>
    <g clip-path="url(#pa92847c9bf)">
     <use xlink:href="#md0166810c6" x="0" y="707.825675" style="fill: #9372b2; fill-opacity: 0.5; stroke: #3d3d3d; stroke-opacity: 0.5"/>
    </g>
   </g>
   <g id="PolyCollection_5">
    <defs>
     <path id="m13d5c1429a" d="M 571.7119 -513.164518 
L 571.4131 -513.164518 
L 571.352086 -514.689038 
L 571.275522 -516.213558 
L 571.183466 -517.738078 
L 571.077695 -519.262599 
L 570.961979 -520.787119 
L 570.842093 -522.311639 
L 570.725456 -523.836159 
L 570.620406 -525.360679 
L 570.535171 -526.885199 
L 570.476685 -528.409719 
L 570.449461 -529.93424 
L 570.454736 -531.45876 
L 570.490073 -532.98328 
L 570.549502 -534.5078 
L 570.624208 -536.03232 
L 570.703629 -537.55684 
L 570.776818 -539.08136 
L 570.833835 -540.60588 
L 570.866989 -542.130401 
L 570.871776 -543.654921 
L 570.847388 -545.179441 
L 570.796761 -546.703961 
L 570.726131 -548.228481 
L 570.644125 -549.753001 
L 570.560499 -551.277521 
L 570.484624 -552.802042 
L 570.423939 -554.326562 
L 570.382588 -555.851082 
L 570.360454 -557.375602 
L 570.352782 -558.900122 
L 570.350481 -560.424642 
L 570.341078 -561.949162 
L 570.31021 -563.473683 
L 570.243414 -564.998203 
L 570.127955 -566.522723 
L 569.95442 -568.047243 
L 569.717839 -569.571763 
L 569.41818 -571.096283 
L 569.060151 -572.620803 
L 568.652365 -574.145323 
L 568.205969 -575.669844 
L 567.732984 -577.194364 
L 567.244562 -578.718884 
L 566.749433 -580.243404 
L 566.252717 -581.767924 
L 565.755217 -583.292444 
L 565.253208 -584.816964 
L 564.738633 -586.341485 
L 564.199626 -587.866005 
L 563.621226 -589.390525 
L 562.986298 -590.915045 
L 562.276663 -592.439565 
L 561.474571 -593.964085 
L 560.564563 -595.488605 
L 559.535709 -597.013125 
L 558.383958 -598.537646 
L 557.114203 -600.062166 
L 555.741425 -601.586686 
L 554.290347 -603.111206 
L 552.793125 -604.635726 
L 551.285023 -606.160246 
L 549.798496 -607.684766 
L 548.35663 -609.209287 
L 546.967292 -610.733807 
L 545.619528 -612.258327 
L 544.283524 -613.782847 
L 542.914906 -615.307367 
L 541.463349 -616.831887 
L 539.884427 -618.356407 
L 538.152816 -619.880927 
L 536.274321 -621.405448 
L 534.294136 -622.929968 
L 532.299175 -624.454488 
L 530.413314 -625.979008 
L 528.78569 -627.503528 
L 527.573573 -629.028048 
L 526.9225 -630.552568 
L 526.946924 -632.077089 
L 527.714652 -633.601609 
L 529.237581 -635.126129 
L 531.470066 -636.650649 
L 534.314828 -638.175169 
L 537.634984 -639.699689 
L 541.269893 -641.224209 
L 545.052105 -642.74873 
L 548.822926 -644.27325 
L 552.444703 -645.79777 
L 555.808826 -647.32229 
L 558.839267 -648.84681 
L 561.492206 -650.37133 
L 563.752678 -651.89585 
L 565.62937 -653.42037 
L 567.148588 -654.944891 
L 568.34825 -656.469411 
L 569.272468 -657.993931 
L 569.96708 -659.518451 
L 570.47625 -661.042971 
L 570.840156 -662.567491 
L 571.093628 -664.092011 
L 572.031372 -664.092011 
L 572.031372 -664.092011 
L 572.284844 -662.567491 
L 572.64875 -661.042971 
L 573.15792 -659.518451 
L 573.852532 -657.993931 
L 574.77675 -656.469411 
L 575.976412 -654.944891 
L 577.49563 -653.42037 
L 579.372322 -651.89585 
L 581.632794 -650.37133 
L 584.285733 -648.84681 
L 587.316174 -647.32229 
L 590.680297 -645.79777 
L 594.302074 -644.27325 
L 598.072895 -642.74873 
L 601.855107 -641.224209 
L 605.490016 -639.699689 
L 608.810172 -638.175169 
L 611.654934 -636.650649 
L 613.887419 -635.126129 
L 615.410348 -633.601609 
L 616.178076 -632.077089 
L 616.2025 -630.552568 
L 615.551427 -629.028048 
L 614.33931 -627.503528 
L 612.711686 -625.979008 
L 610.825825 -624.454488 
L 608.830864 -622.929968 
L 606.850679 -621.405448 
L 604.972184 -619.880927 
L 603.240573 -618.356407 
L 601.661651 -616.831887 
L 600.210094 -615.307367 
L 598.841476 -613.782847 
L 597.505472 -612.258327 
L 596.157708 -610.733807 
L 594.76837 -609.209287 
L 593.326504 -607.684766 
L 591.839977 -606.160246 
L 590.331875 -604.635726 
L 588.834653 -603.111206 
L 587.383575 -601.586686 
L 586.010797 -600.062166 
L 584.741042 -598.537646 
L 583.589291 -597.013125 
L 582.560437 -595.488605 
L 581.650429 -593.964085 
L 580.848337 -592.439565 
L 580.138702 -590.915045 
L 579.503774 -589.390525 
L 578.925374 -587.866005 
L 578.386367 -586.341485 
L 577.871792 -584.816964 
L 577.369783 -583.292444 
L 576.872283 -581.767924 
L 576.375567 -580.243404 
L 575.880438 -578.718884 
L 575.392016 -577.194364 
L 574.919031 -575.669844 
L 574.472635 -574.145323 
L 574.064849 -572.620803 
L 573.70682 -571.096283 
L 573.407161 -569.571763 
L 573.17058 -568.047243 
L 572.997045 -566.522723 
L 572.881586 -564.998203 
L 572.81479 -563.473683 
L 572.783922 -561.949162 
L 572.774519 -560.424642 
L 572.772218 -558.900122 
L 572.764546 -557.375602 
L 572.742412 -555.851082 
L 572.701061 -554.326562 
L 572.640376 -552.802042 
L 572.564501 -551.277521 
L 572.480875 -549.753001 
L 572.398869 -548.228481 
L 572.328239 -546.703961 
L 572.277612 -545.179441 
L 572.253224 -543.654921 
L 572.258011 -542.130401 
L 572.291165 -540.60588 
L 572.348182 -539.08136 
L 572.421371 -537.55684 
L 572.500792 -536.03232 
L 572.575498 -534.5078 
L 572.634927 -532.98328 
L 572.670264 -531.45876 
L 572.675539 -529.93424 
L 572.648315 -528.409719 
L 572.589829 -526.885199 
L 572.504594 -525.360679 
L 572.399544 -523.836159 
L 572.282907 -522.311639 
L 572.163021 -520.787119 
L 572.047305 -519.262599 
L 571.941534 -517.738078 
L 571.849478 -516.213558 
L 571.772914 -514.689038 
L 571.7119 -513.164518 
z
" style="stroke: #3d3d3d; stroke-opacity: 0.5"/>
    </defs>
    <g clip-path="url(#pa92847c9bf)">
     <use xlink:href="#m13d5c1429a" x="0" y="707.825675" style="fill: #845b53; fill-opacity: 0.5; stroke: #3d3d3d; stroke-opacity: 0.5"/>
    </g>
   </g>
   <g id="PolyCollection_6">
    <defs>
     <path id="me0d7128f33" d="M 683.299601 -563.938758 
L 683.025399 -563.938758 
L 682.960645 -565.02072 
L 682.877396 -566.102682 
L 682.776198 -567.184644 
L 682.660375 -568.266606 
L 682.536379 -569.348567 
L 682.413526 -570.430529 
L 682.303019 -571.512491 
L 682.216333 -572.594453 
L 682.163282 -573.676414 
L 682.150188 -574.758376 
L 682.178648 -575.840338 
L 682.24521 -576.9223 
L 682.342063 -578.004261 
L 682.458544 -579.086223 
L 682.583062 -580.168185 
L 682.704958 -581.250147 
L 682.815906 -582.332109 
L 682.910623 -583.41407 
L 682.986881 -584.496032 
L 683.044978 -585.577994 
L 683.086928 -586.659956 
L 683.115592 -587.741917 
L 683.133947 -588.823879 
L 683.144549 -589.905841 
L 683.149209 -590.987803 
L 683.148823 -592.069764 
L 683.143303 -593.151726 
L 683.131576 -594.233688 
L 683.111642 -595.31565 
L 683.080737 -596.397612 
L 683.035636 -597.479573 
L 682.973151 -598.561535 
L 682.890785 -599.643497 
L 682.787467 -600.725459 
L 682.664184 -601.80742 
L 682.524288 -602.889382 
L 682.373284 -603.971344 
L 682.218012 -605.053306 
L 682.065326 -606.135267 
L 681.920544 -607.217229 
L 681.786086 -608.299191 
L 681.660691 -609.381153 
L 681.539478 -610.463115 
L 681.414828 -611.545076 
L 681.277871 -612.627038 
L 681.120146 -613.709 
L 680.935045 -614.790962 
L 680.718701 -615.872923 
L 680.470205 -616.954885 
L 680.191136 -618.036847 
L 679.884539 -619.118809 
L 679.553486 -620.20077 
L 679.19945 -621.282732 
L 678.820751 -622.364694 
L 678.411374 -623.446656 
L 677.960462 -624.528618 
L 677.4526 -625.610579 
L 676.868822 -626.692541 
L 676.187971 -627.774503 
L 675.387956 -628.856465 
L 674.446517 -629.938426 
L 673.341415 -631.020388 
L 672.050373 -632.10235 
L 670.551376 -633.184312 
L 668.823981 -634.266273 
L 666.852016 -635.348235 
L 664.627571 -636.430197 
L 662.155679 -637.512159 
L 659.458815 -638.594121 
L 656.580295 -639.676082 
L 653.585937 -640.758044 
L 650.563687 -641.840006 
L 647.62116 -642.921968 
L 644.881173 -644.003929 
L 642.47531 -645.085891 
L 640.535548 -646.167853 
L 639.184159 -647.249815 
L 638.5225 -648.331776 
L 638.619887 -649.413738 
L 639.50424 -650.4957 
L 641.156331 -651.577662 
L 643.509109 -652.659624 
L 646.45274 -653.741585 
L 649.844841 -654.823547 
L 653.52433 -655.905509 
L 657.326589 -656.987471 
L 661.09756 -658.069432 
L 664.704825 -659.151394 
L 668.044611 -660.233356 
L 671.044603 -661.315318 
L 673.663177 -662.397279 
L 675.886111 -663.479241 
L 677.721842 -664.561203 
L 679.196145 -665.643165 
L 680.34681 -666.725127 
L 681.218681 -667.807088 
L 681.859256 -668.88905 
L 682.31502 -669.971012 
L 682.628635 -671.052974 
L 683.696365 -671.052974 
L 683.696365 -671.052974 
L 684.00998 -669.971012 
L 684.465744 -668.88905 
L 685.106319 -667.807088 
L 685.97819 -666.725127 
L 687.128855 -665.643165 
L 688.603158 -664.561203 
L 690.438889 -663.479241 
L 692.661823 -662.397279 
L 695.280397 -661.315318 
L 698.280389 -660.233356 
L 701.620175 -659.151394 
L 705.22744 -658.069432 
L 708.998411 -656.987471 
L 712.80067 -655.905509 
L 716.480159 -654.823547 
L 719.87226 -653.741585 
L 722.815891 -652.659624 
L 725.168669 -651.577662 
L 726.82076 -650.4957 
L 727.705113 -649.413738 
L 727.8025 -648.331776 
L 727.140841 -647.249815 
L 725.789452 -646.167853 
L 723.84969 -645.085891 
L 721.443827 -644.003929 
L 718.70384 -642.921968 
L 715.761313 -641.840006 
L 712.739063 -640.758044 
L 709.744705 -639.676082 
L 706.866185 -638.594121 
L 704.169321 -637.512159 
L 701.697429 -636.430197 
L 699.472984 -635.348235 
L 697.501019 -634.266273 
L 695.773624 -633.184312 
L 694.274627 -632.10235 
L 692.983585 -631.020388 
L 691.878483 -629.938426 
L 690.937044 -628.856465 
L 690.137029 -627.774503 
L 689.456178 -626.692541 
L 688.8724 -625.610579 
L 688.364538 -624.528618 
L 687.913626 -623.446656 
L 687.504249 -622.364694 
L 687.12555 -621.282732 
L 686.771514 -620.20077 
L 686.440461 -619.118809 
L 686.133864 -618.036847 
L 685.854795 -616.954885 
L 685.606299 -615.872923 
L 685.389955 -614.790962 
L 685.204854 -613.709 
L 685.047129 -612.627038 
L 684.910172 -611.545076 
L 684.785522 -610.463115 
L 684.664309 -609.381153 
L 684.538914 -608.299191 
L 684.404456 -607.217229 
L 684.259674 -606.135267 
L 684.106988 -605.053306 
L 683.951716 -603.971344 
L 683.800712 -602.889382 
L 683.660816 -601.80742 
L 683.537533 -600.725459 
L 683.434215 -599.643497 
L 683.351849 -598.561535 
L 683.289364 -597.479573 
L 683.244263 -596.397612 
L 683.213358 -595.31565 
L 683.193424 -594.233688 
L 683.181697 -593.151726 
L 683.176177 -592.069764 
L 683.175791 -590.987803 
L 683.180451 -589.905841 
L 683.191053 -588.823879 
L 683.209408 -587.741917 
L 683.238072 -586.659956 
L 683.280022 -585.577994 
L 683.338119 -584.496032 
L 683.414377 -583.41407 
L 683.509094 -582.332109 
L 683.620042 -581.250147 
L 683.741938 -580.168185 
L 683.866456 -579.086223 
L 683.982937 -578.004261 
L 684.07979 -576.9223 
L 684.146352 -575.840338 
L 684.174812 -574.758376 
L 684.161718 -573.676414 
L 684.108667 -572.594453 
L 684.021981 -571.512491 
L 683.911474 -570.430529 
L 683.788621 -569.348567 
L 683.664625 -568.266606 
L 683.548802 -567.184644 
L 683.447604 -566.102682 
L 683.364355 -565.02072 
L 683.299601 -563.938758 
z
" style="stroke: #3d3d3d; stroke-opacity: 0.5"/>
    </defs>
    <g clip-path="url(#pa92847c9bf)">
     <use xlink:href="#me0d7128f33" x="0" y="707.825675" style="fill: #e1812c; fill-opacity: 0.5; stroke: #3d3d3d; stroke-opacity: 0.5"/>
    </g>
   </g>
   <g id="PolyCollection_7">
    <defs>
     <path id="mec28138d7f" d="M 794.915389 -533.829328 
L 794.609611 -533.829328 
L 794.545301 -535.237477 
L 794.462426 -536.645626 
L 794.359217 -538.053774 
L 794.235115 -539.461923 
L 794.091203 -540.870072 
L 793.930536 -542.278221 
L 793.758274 -543.68637 
L 793.581564 -545.094518 
L 793.409139 -546.502667 
L 793.250656 -547.910816 
L 793.115834 -549.318965 
L 793.013499 -550.727113 
L 792.950656 -552.135262 
L 792.931731 -553.543411 
L 792.958071 -554.95156 
L 793.027797 -556.359709 
L 793.136009 -557.767857 
L 793.27533 -559.176006 
L 793.436698 -560.584155 
L 793.610293 -561.992304 
L 793.786474 -563.400452 
L 793.956589 -564.808601 
L 794.11356 -566.21675 
L 794.25219 -567.624899 
L 794.369164 -569.033048 
L 794.462799 -570.441196 
L 794.532596 -571.849345 
L 794.578696 -573.257494 
L 794.60134 -574.665643 
L 794.600411 -576.073791 
L 794.57513 -577.48194 
L 794.523939 -578.890089 
L 794.444582 -580.298238 
L 794.334353 -581.706387 
L 794.190448 -583.114535 
L 794.010351 -584.522684 
L 793.792158 -585.930833 
L 793.534753 -587.338982 
L 793.237771 -588.74713 
L 792.901363 -590.155279 
L 792.525778 -591.563428 
L 792.110903 -592.971577 
L 791.655893 -594.379726 
L 791.15906 -595.787874 
L 790.618147 -597.196023 
L 790.031017 -598.604172 
L 789.396705 -600.012321 
L 788.716621 -601.420469 
L 787.995628 -602.828618 
L 787.242665 -604.236767 
L 786.47062 -605.644916 
L 785.695272 -607.053065 
L 784.933341 -608.461213 
L 784.199839 -609.869362 
L 783.505129 -611.277511 
L 782.85222 -612.68566 
L 782.234767 -614.093808 
L 781.636204 -615.501957 
L 781.030174 -616.910106 
L 780.382226 -618.318255 
L 779.652543 -619.726403 
L 778.799295 -621.134552 
L 777.782244 -622.542701 
L 776.566223 -623.95085 
L 775.12431 -625.358999 
L 773.440587 -626.767147 
L 771.512539 -628.175296 
L 769.353156 -629.583445 
L 766.992727 -630.991594 
L 764.480225 -632.399742 
L 761.883991 -633.807891 
L 759.29128 -635.21604 
L 756.806202 -636.624189 
L 754.545615 -638.032338 
L 752.632777 -639.440486 
L 751.188908 -640.848635 
L 750.323228 -642.256784 
L 750.1225 -643.664933 
L 750.641359 -645.073081 
L 751.89487 -646.48123 
L 753.854585 -647.889379 
L 756.448936 -649.297528 
L 759.568245 -650.705677 
L 763.073845 -652.113825 
L 766.81022 -653.521974 
L 770.618547 -654.930123 
L 774.349857 -656.338272 
L 777.876159 -657.74642 
L 781.098279 -659.154569 
L 783.949791 -660.562718 
L 786.397051 -661.970867 
L 788.435916 -663.379016 
L 790.086145 -664.787164 
L 791.3846 -666.195313 
L 792.378329 -667.603462 
L 793.118377 -669.011611 
L 793.654872 -670.419759 
L 794.033594 -671.827908 
L 794.29399 -673.236057 
L 795.23101 -673.236057 
L 795.23101 -673.236057 
L 795.491406 -671.827908 
L 795.870128 -670.419759 
L 796.406623 -669.011611 
L 797.146671 -667.603462 
L 798.1404 -666.195313 
L 799.438855 -664.787164 
L 801.089084 -663.379016 
L 803.127949 -661.970867 
L 805.575209 -660.562718 
L 808.426721 -659.154569 
L 811.648841 -657.74642 
L 815.175143 -656.338272 
L 818.906453 -654.930123 
L 822.71478 -653.521974 
L 826.451155 -652.113825 
L 829.956755 -650.705677 
L 833.076064 -649.297528 
L 835.670415 -647.889379 
L 837.63013 -646.48123 
L 838.883641 -645.073081 
L 839.4025 -643.664933 
L 839.201772 -642.256784 
L 838.336092 -640.848635 
L 836.892223 -639.440486 
L 834.979385 -638.032338 
L 832.718798 -636.624189 
L 830.23372 -635.21604 
L 827.641009 -633.807891 
L 825.044775 -632.399742 
L 822.532273 -630.991594 
L 820.171844 -629.583445 
L 818.012461 -628.175296 
L 816.084413 -626.767147 
L 814.40069 -625.358999 
L 812.958777 -623.95085 
L 811.742756 -622.542701 
L 810.725705 -621.134552 
L 809.872457 -619.726403 
L 809.142774 -618.318255 
L 808.494826 -616.910106 
L 807.888796 -615.501957 
L 807.290233 -614.093808 
L 806.67278 -612.68566 
L 806.019871 -611.277511 
L 805.325161 -609.869362 
L 804.591659 -608.461213 
L 803.829728 -607.053065 
L 803.05438 -605.644916 
L 802.282335 -604.236767 
L 801.529372 -602.828618 
L 800.808379 -601.420469 
L 800.128295 -600.012321 
L 799.493983 -598.604172 
L 798.906853 -597.196023 
L 798.36594 -595.787874 
L 797.869107 -594.379726 
L 797.414097 -592.971577 
L 796.999222 -591.563428 
L 796.623637 -590.155279 
L 796.287229 -588.74713 
L 795.990247 -587.338982 
L 795.732842 -585.930833 
L 795.514649 -584.522684 
L 795.334552 -583.114535 
L 795.190647 -581.706387 
L 795.080418 -580.298238 
L 795.001061 -578.890089 
L 794.94987 -577.48194 
L 794.924589 -576.073791 
L 794.92366 -574.665643 
L 794.946304 -573.257494 
L 794.992404 -571.849345 
L 795.062201 -570.441196 
L 795.155836 -569.033048 
L 795.27281 -567.624899 
L 795.41144 -566.21675 
L 795.568411 -564.808601 
L 795.738526 -563.400452 
L 795.914707 -561.992304 
L 796.088302 -560.584155 
L 796.24967 -559.176006 
L 796.388991 -557.767857 
L 796.497203 -556.359709 
L 796.566929 -554.95156 
L 796.593269 -553.543411 
L 796.574344 -552.135262 
L 796.511501 -550.727113 
L 796.409166 -549.318965 
L 796.274344 -547.910816 
L 796.115861 -546.502667 
L 795.943436 -545.094518 
L 795.766726 -543.68637 
L 795.594464 -542.278221 
L 795.433797 -540.870072 
L 795.289885 -539.461923 
L 795.165783 -538.053774 
L 795.062574 -536.645626 
L 794.979699 -535.237477 
L 794.915389 -533.829328 
z
" style="stroke: #3d3d3d; stroke-opacity: 0.5"/>
    </defs>
    <g clip-path="url(#pa92847c9bf)">
     <use xlink:href="#mec28138d7f" x="0" y="707.825675" style="fill: #3a923a; fill-opacity: 0.5; stroke: #3d3d3d; stroke-opacity: 0.5"/>
    </g>
   </g>
   <g id="line2d_7">
    <path d="M 125.1625 193.104759 
L 125.1625 80.930171 
" clip-path="url(#pa92847c9bf)" style="fill: none; stroke: #3d3d3d; stroke-width: 1.5; stroke-linecap: round"/>
   </g>
   <g id="line2d_8">
    <path d="M 125.1625 143.463468 
L 125.1625 100.309283 
" clip-path="url(#pa92847c9bf)" style="fill: none; stroke: #3d3d3d; stroke-width: 4.5; stroke-linecap: round"/>
   </g>
   <g id="line2d_9">
    <path d="M 125.1625 122.518931 
" clip-path="url(#pa92847c9bf)" style="fill: none; stroke: #3d3d3d; stroke-width: 1.5; stroke-linecap: round"/>
    <defs>
     <path id="m4901d65523" d="M 1.875 0 
L -1.875 -0 
" style="stroke: #ffffff; stroke-width: 0.9"/>
    </defs>
    <g clip-path="url(#pa92847c9bf)">
     <use xlink:href="#m4901d65523" x="125.1625" y="122.518931" style="fill: #ffffff; stroke: #ffffff; stroke-width: 0.9"/>
    </g>
   </g>
   <g id="line2d_10">
    <path d="M 236.7625 92.288617 
L 236.7625 48.461947 
" clip-path="url(#pa92847c9bf)" style="fill: none; stroke: #3d3d3d; stroke-width: 1.5; stroke-linecap: round"/>
   </g>
   <g id="line2d_11">
    <path d="M 236.7625 72.823043 
L 236.7625 55.577915 
" clip-path="url(#pa92847c9bf)" style="fill: none; stroke: #3d3d3d; stroke-width: 4.5; stroke-linecap: round"/>
   </g>
   <g id="line2d_12">
    <path d="M 236.7625 60.629232 
" clip-path="url(#pa92847c9bf)" style="fill: none; stroke: #3d3d3d; stroke-width: 1.5; stroke-linecap: round"/>
    <g clip-path="url(#pa92847c9bf)">
     <use xlink:href="#m4901d65523" x="236.7625" y="60.629232" style="fill: #ffffff; stroke: #ffffff; stroke-width: 0.9"/>
    </g>
   </g>
   <g id="line2d_13">
    <path d="M 348.3625 466.141345 
L 348.3625 158.98826 
" clip-path="url(#pa92847c9bf)" style="fill: none; stroke: #3d3d3d; stroke-width: 1.5; stroke-linecap: round"/>
   </g>
   <g id="line2d_14">
    <path d="M 348.3625 406.916464 
L 348.3625 305.876584 
" clip-path="url(#pa92847c9bf)" style="fill: none; stroke: #3d3d3d; stroke-width: 4.5; stroke-linecap: round"/>
   </g>
   <g id="line2d_15">
    <path d="M 348.3625 356.378378 
" clip-path="url(#pa92847c9bf)" style="fill: none; stroke: #3d3d3d; stroke-width: 1.5; stroke-linecap: round"/>
    <g clip-path="url(#pa92847c9bf)">
     <use xlink:href="#m4901d65523" x="348.3625" y="356.378378" style="fill: #ffffff; stroke: #ffffff; stroke-width: 0.9"/>
    </g>
   </g>
   <g id="line2d_16">
    <path d="M 459.9625 125.330053 
L 459.9625 61.407378 
" clip-path="url(#pa92847c9bf)" style="fill: none; stroke: #3d3d3d; stroke-width: 1.5; stroke-linecap: round"/>
   </g>
   <g id="line2d_17">
    <path d="M 459.9625 98.977017 
L 459.9625 77.130511 
" clip-path="url(#pa92847c9bf)" style="fill: none; stroke: #3d3d3d; stroke-width: 4.5; stroke-linecap: round"/>
   </g>
   <g id="line2d_18">
    <path d="M 459.9625 85.57867 
" clip-path="url(#pa92847c9bf)" style="fill: none; stroke: #3d3d3d; stroke-width: 1.5; stroke-linecap: round"/>
    <g clip-path="url(#pa92847c9bf)">
     <use xlink:href="#m4901d65523" x="459.9625" y="85.57867" style="fill: #ffffff; stroke: #ffffff; stroke-width: 0.9"/>
    </g>
   </g>
   <g id="line2d_19">
    <path d="M 571.5625 130.852953 
L 571.5625 60.743678 
" clip-path="url(#pa92847c9bf)" style="fill: none; stroke: #3d3d3d; stroke-width: 1.5; stroke-linecap: round"/>
   </g>
   <g id="line2d_20">
    <path d="M 571.5625 97.123962 
L 571.5625 74.082618 
" clip-path="url(#pa92847c9bf)" style="fill: none; stroke: #3d3d3d; stroke-width: 4.5; stroke-linecap: round"/>
   </g>
   <g id="line2d_21">
    <path d="M 571.5625 81.138623 
" clip-path="url(#pa92847c9bf)" style="fill: none; stroke: #3d3d3d; stroke-width: 1.5; stroke-linecap: round"/>
    <g clip-path="url(#pa92847c9bf)">
     <use xlink:href="#m4901d65523" x="571.5625" y="81.138623" style="fill: #ffffff; stroke: #ffffff; stroke-width: 0.9"/>
    </g>
   </g>
   <g id="line2d_22">
    <path d="M 683.1625 82.148056 
L 683.1625 47.390471 
" clip-path="url(#pa92847c9bf)" style="fill: none; stroke: #3d3d3d; stroke-width: 1.5; stroke-linecap: round"/>
   </g>
   <g id="line2d_23">
    <path d="M 683.1625 66.798139 
L 683.1625 56.453426 
" clip-path="url(#pa92847c9bf)" style="fill: none; stroke: #3d3d3d; stroke-width: 4.5; stroke-linecap: round"/>
   </g>
   <g id="line2d_24">
    <path d="M 683.1625 60.259294 
" clip-path="url(#pa92847c9bf)" style="fill: none; stroke: #3d3d3d; stroke-width: 1.5; stroke-linecap: round"/>
    <g clip-path="url(#pa92847c9bf)">
     <use xlink:href="#m4901d65523" x="683.1625" y="60.259294" style="fill: #ffffff; stroke: #ffffff; stroke-width: 0.9"/>
    </g>
   </g>
   <g id="line2d_25">
    <path d="M 794.7625 103.684432 
L 794.7625 50.757452 
" clip-path="url(#pa92847c9bf)" style="fill: none; stroke: #3d3d3d; stroke-width: 1.5; stroke-linecap: round"/>
   </g>
   <g id="line2d_26">
    <path d="M 794.7625 80.035971 
L 794.7625 61.440277 
" clip-path="url(#pa92847c9bf)" style="fill: none; stroke: #3d3d3d; stroke-width: 4.5; stroke-linecap: round"/>
   </g>
   <g id="line2d_27">
    <path d="M 794.7625 67.689296 
" clip-path="url(#pa92847c9bf)" style="fill: none; stroke: #3d3d3d; stroke-width: 1.5; stroke-linecap: round"/>
    <g clip-path="url(#pa92847c9bf)">
     <use xlink:href="#m4901d65523" x="794.7625" y="67.689296" style="fill: #ffffff; stroke: #ffffff; stroke-width: 0.9"/>
    </g>
   </g>
   <g id="patch_3">
    <path d="M 69.3625 561.6 
L 850.5625 561.6 
" style="fill: none; stroke: #cccccc; stroke-width: 0.8; stroke-linejoin: miter; stroke-linecap: square"/>
   </g>
  </g>
 </g>
 <defs>
  <clipPath id="pa92847c9bf">
   <rect x="69.3625" y="7.2" width="781.2" height="554.4"/>
  </clipPath>
 </defs>
</svg>
