<?xml version="1.0" encoding="utf-8" standalone="no"?>
<!DOCTYPE svg PUBLIC "-//W3C//DTD SVG 1.1//EN"
  "http://www.w3.org/Graphics/SVG/1.1/DTD/svg11.dtd">
<svg xmlns:xlink="http://www.w3.org/1999/xlink" width="870.4875pt" height="707.825675pt" viewBox="0 0 870.4875 707.825675" xmlns="http://www.w3.org/2000/svg" version="1.1">
 <metadata>
  <rdf:RDF xmlns:dc="http://purl.org/dc/elements/1.1/" xmlns:cc="http://creativecommons.org/ns#" xmlns:rdf="http://www.w3.org/1999/02/22-rdf-syntax-ns#">
   <cc:Work>
    <dc:type rdf:resource="http://purl.org/dc/dcmitype/StillImage"/>
    <dc:date>2024-10-23T17:23:48.738843</dc:date>
    <dc:format>image/svg+xml</dc:format>
    <dc:creator>
     <cc:Agent>
      <dc:title>Matplotlib v3.8.0, https://matplotlib.org/</dc:title>
     </cc:Agent>
    </dc:creator>
   </cc:Work>
  </rdf:RDF>
 </metadata>
 <defs>
  <style type="text/css">*{stroke-linejoin: round; stroke-linecap: butt}</style>
 </defs>
 <g id="figure_1">
  <g id="patch_1">
   <path d="M 0 707.825675 
L 870.4875 707.825675 
L 870.4875 0 
L 0 0 
L 0 707.825675 
z
" style="fill: none"/>
  </g>
  <g id="axes_1">
   <g id="patch_2">
    <path d="M 82.0875 561.6 
L 863.2875 561.6 
L 863.2875 7.2 
L 82.0875 7.2 
L 82.0875 561.6 
z
" style="fill: none"/>
   </g>
   <g id="matplotlib.axis_1">
    <g id="xtick_1">
     <g id="text_1">
      <!-- MSA -->
      <g style="fill: #262626" transform="translate(117.513986 610.465141) rotate(-45) scale(0.2 -0.2)">
       <defs>
        <path id="DejaVuSans-4d" d="M 628 4666 
L 1569 4666 
L 2759 1491 
L 3956 4666 
L 4897 4666 
L 4897 0 
L 4281 0 
L 4281 4097 
L 3078 897 
L 2444 897 
L 1241 4097 
L 1241 0 
L 628 0 
L 628 4666 
z
" transform="scale(0.015625)"/>
        <path id="DejaVuSans-53" d="M 3425 4513 
L 3425 3897 
Q 3066 4069 2747 4153 
Q 2428 4238 2131 4238 
Q 1616 4238 1336 4038 
Q 1056 3838 1056 3469 
Q 1056 3159 1242 3001 
Q 1428 2844 1947 2747 
L 2328 2669 
Q 3034 2534 3370 2195 
Q 3706 1856 3706 1288 
Q 3706 609 3251 259 
Q 2797 -91 1919 -91 
Q 1588 -91 1214 -16 
Q 841 59 441 206 
L 441 856 
Q 825 641 1194 531 
Q 1563 422 1919 422 
Q 2459 422 2753 634 
Q 3047 847 3047 1241 
Q 3047 1584 2836 1778 
Q 2625 1972 2144 2069 
L 1759 2144 
Q 1053 2284 737 2584 
Q 422 2884 422 3419 
Q 422 4038 858 4394 
Q 1294 4750 2059 4750 
Q 2388 4750 2728 4690 
Q 3069 4631 3425 4513 
z
" transform="scale(0.015625)"/>
        <path id="DejaVuSans-41" d="M 2188 4044 
L 1331 1722 
L 3047 1722 
L 2188 4044 
z
M 1831 4666 
L 2547 4666 
L 4325 0 
L 3669 0 
L 3244 1197 
L 1141 1197 
L 716 0 
L 50 0 
L 1831 4666 
z
" transform="scale(0.015625)"/>
       </defs>
       <use xlink:href="#DejaVuSans-4d"/>
       <use xlink:href="#DejaVuSans-53" x="86.279297"/>
       <use xlink:href="#DejaVuSans-41" x="151.630859"/>
      </g>
     </g>
    </g>
    <g id="xtick_2">
     <g id="text_2">
      <!-- Template -->
      <g style="fill: #262626" transform="translate(195.70319 643.875936) rotate(-45) scale(0.2 -0.2)">
       <defs>
        <path id="DejaVuSans-54" d="M -19 4666 
L 3928 4666 
L 3928 4134 
L 2272 4134 
L 2272 0 
L 1638 0 
L 1638 4134 
L -19 4134 
L -19 4666 
z
" transform="scale(0.015625)"/>
        <path id="DejaVuSans-65" d="M 3597 1894 
L 3597 1613 
L 953 1613 
Q 991 1019 1311 708 
Q 1631 397 2203 397 
Q 2534 397 2845 478 
Q 3156 559 3463 722 
L 3463 178 
Q 3153 47 2828 -22 
Q 2503 -91 2169 -91 
Q 1331 -91 842 396 
Q 353 884 353 1716 
Q 353 2575 817 3079 
Q 1281 3584 2069 3584 
Q 2775 3584 3186 3129 
Q 3597 2675 3597 1894 
z
M 3022 2063 
Q 3016 2534 2758 2815 
Q 2500 3097 2075 3097 
Q 1594 3097 1305 2825 
Q 1016 2553 972 2059 
L 3022 2063 
z
" transform="scale(0.015625)"/>
        <path id="DejaVuSans-6d" d="M 3328 2828 
Q 3544 3216 3844 3400 
Q 4144 3584 4550 3584 
Q 5097 3584 5394 3201 
Q 5691 2819 5691 2113 
L 5691 0 
L 5113 0 
L 5113 2094 
Q 5113 2597 4934 2840 
Q 4756 3084 4391 3084 
Q 3944 3084 3684 2787 
Q 3425 2491 3425 1978 
L 3425 0 
L 2847 0 
L 2847 2094 
Q 2847 2600 2669 2842 
Q 2491 3084 2119 3084 
Q 1678 3084 1418 2786 
Q 1159 2488 1159 1978 
L 1159 0 
L 581 0 
L 581 3500 
L 1159 3500 
L 1159 2956 
Q 1356 3278 1631 3431 
Q 1906 3584 2284 3584 
Q 2666 3584 2933 3390 
Q 3200 3197 3328 2828 
z
" transform="scale(0.015625)"/>
        <path id="DejaVuSans-70" d="M 1159 525 
L 1159 -1331 
L 581 -1331 
L 581 3500 
L 1159 3500 
L 1159 2969 
Q 1341 3281 1617 3432 
Q 1894 3584 2278 3584 
Q 2916 3584 3314 3078 
Q 3713 2572 3713 1747 
Q 3713 922 3314 415 
Q 2916 -91 2278 -91 
Q 1894 -91 1617 61 
Q 1341 213 1159 525 
z
M 3116 1747 
Q 3116 2381 2855 2742 
Q 2594 3103 2138 3103 
Q 1681 3103 1420 2742 
Q 1159 2381 1159 1747 
Q 1159 1113 1420 752 
Q 1681 391 2138 391 
Q 2594 391 2855 752 
Q 3116 1113 3116 1747 
z
" transform="scale(0.015625)"/>
        <path id="DejaVuSans-6c" d="M 603 4863 
L 1178 4863 
L 1178 0 
L 603 0 
L 603 4863 
z
" transform="scale(0.015625)"/>
        <path id="DejaVuSans-61" d="M 2194 1759 
Q 1497 1759 1228 1600 
Q 959 1441 959 1056 
Q 959 750 1161 570 
Q 1363 391 1709 391 
Q 2188 391 2477 730 
Q 2766 1069 2766 1631 
L 2766 1759 
L 2194 1759 
z
M 3341 1997 
L 3341 0 
L 2766 0 
L 2766 531 
Q 2569 213 2275 61 
Q 1981 -91 1556 -91 
Q 1019 -91 701 211 
Q 384 513 384 1019 
Q 384 1609 779 1909 
Q 1175 2209 1959 2209 
L 2766 2209 
L 2766 2266 
Q 2766 2663 2505 2880 
Q 2244 3097 1772 3097 
Q 1472 3097 1187 3025 
Q 903 2953 641 2809 
L 641 3341 
Q 956 3463 1253 3523 
Q 1550 3584 1831 3584 
Q 2591 3584 2966 3190 
Q 3341 2797 3341 1997 
z
" transform="scale(0.015625)"/>
        <path id="DejaVuSans-74" d="M 1172 4494 
L 1172 3500 
L 2356 3500 
L 2356 3053 
L 1172 3053 
L 1172 1153 
Q 1172 725 1289 603 
Q 1406 481 1766 481 
L 2356 481 
L 2356 0 
L 1766 0 
Q 1100 0 847 248 
Q 594 497 594 1153 
L 594 3053 
L 172 3053 
L 172 3500 
L 594 3500 
L 594 4494 
L 1172 4494 
z
" transform="scale(0.015625)"/>
       </defs>
       <use xlink:href="#DejaVuSans-54"/>
       <use xlink:href="#DejaVuSans-65" x="44.083984"/>
       <use xlink:href="#DejaVuSans-6d" x="105.607422"/>
       <use xlink:href="#DejaVuSans-70" x="203.019531"/>
       <use xlink:href="#DejaVuSans-6c" x="266.496094"/>
       <use xlink:href="#DejaVuSans-61" x="294.279297"/>
       <use xlink:href="#DejaVuSans-74" x="355.558594"/>
       <use xlink:href="#DejaVuSans-65" x="394.767578"/>
      </g>
     </g>
    </g>
    <g id="xtick_3">
     <g id="text_3">
      <!-- Backbone -->
      <g style="fill: #262626" transform="translate(302.203183 648.975944) rotate(-45) scale(0.2 -0.2)">
       <defs>
        <path id="DejaVuSans-42" d="M 1259 2228 
L 1259 519 
L 2272 519 
Q 2781 519 3026 730 
Q 3272 941 3272 1375 
Q 3272 1813 3026 2020 
Q 2781 2228 2272 2228 
L 1259 2228 
z
M 1259 4147 
L 1259 2741 
L 2194 2741 
Q 2656 2741 2882 2914 
Q 3109 3088 3109 3444 
Q 3109 3797 2882 3972 
Q 2656 4147 2194 4147 
L 1259 4147 
z
M 628 4666 
L 2241 4666 
Q 2963 4666 3353 4366 
Q 3744 4066 3744 3513 
Q 3744 3084 3544 2831 
Q 3344 2578 2956 2516 
Q 3422 2416 3680 2098 
Q 3938 1781 3938 1306 
Q 3938 681 3513 340 
Q 3088 0 2303 0 
L 628 0 
L 628 4666 
z
" transform="scale(0.015625)"/>
        <path id="DejaVuSans-63" d="M 3122 3366 
L 3122 2828 
Q 2878 2963 2633 3030 
Q 2388 3097 2138 3097 
Q 1578 3097 1268 2742 
Q 959 2388 959 1747 
Q 959 1106 1268 751 
Q 1578 397 2138 397 
Q 2388 397 2633 464 
Q 2878 531 3122 666 
L 3122 134 
Q 2881 22 2623 -34 
Q 2366 -91 2075 -91 
Q 1284 -91 818 406 
Q 353 903 353 1747 
Q 353 2603 823 3093 
Q 1294 3584 2113 3584 
Q 2378 3584 2631 3529 
Q 2884 3475 3122 3366 
z
" transform="scale(0.015625)"/>
        <path id="DejaVuSans-6b" d="M 581 4863 
L 1159 4863 
L 1159 1991 
L 2875 3500 
L 3609 3500 
L 1753 1863 
L 3688 0 
L 2938 0 
L 1159 1709 
L 1159 0 
L 581 0 
L 581 4863 
z
" transform="scale(0.015625)"/>
        <path id="DejaVuSans-62" d="M 3116 1747 
Q 3116 2381 2855 2742 
Q 2594 3103 2138 3103 
Q 1681 3103 1420 2742 
Q 1159 2381 1159 1747 
Q 1159 1113 1420 752 
Q 1681 391 2138 391 
Q 2594 391 2855 752 
Q 3116 1113 3116 1747 
z
M 1159 2969 
Q 1341 3281 1617 3432 
Q 1894 3584 2278 3584 
Q 2916 3584 3314 3078 
Q 3713 2572 3713 1747 
Q 3713 922 3314 415 
Q 2916 -91 2278 -91 
Q 1894 -91 1617 61 
Q 1341 213 1159 525 
L 1159 0 
L 581 0 
L 581 4863 
L 1159 4863 
L 1159 2969 
z
" transform="scale(0.015625)"/>
        <path id="DejaVuSans-6f" d="M 1959 3097 
Q 1497 3097 1228 2736 
Q 959 2375 959 1747 
Q 959 1119 1226 758 
Q 1494 397 1959 397 
Q 2419 397 2687 759 
Q 2956 1122 2956 1747 
Q 2956 2369 2687 2733 
Q 2419 3097 1959 3097 
z
M 1959 3584 
Q 2709 3584 3137 3096 
Q 3566 2609 3566 1747 
Q 3566 888 3137 398 
Q 2709 -91 1959 -91 
Q 1206 -91 779 398 
Q 353 888 353 1747 
Q 353 2609 779 3096 
Q 1206 3584 1959 3584 
z
" transform="scale(0.015625)"/>
        <path id="DejaVuSans-6e" d="M 3513 2113 
L 3513 0 
L 2938 0 
L 2938 2094 
Q 2938 2591 2744 2837 
Q 2550 3084 2163 3084 
Q 1697 3084 1428 2787 
Q 1159 2491 1159 1978 
L 1159 0 
L 581 0 
L 581 3500 
L 1159 3500 
L 1159 2956 
Q 1366 3272 1645 3428 
Q 1925 3584 2291 3584 
Q 2894 3584 3203 3211 
Q 3513 2838 3513 2113 
z
" transform="scale(0.015625)"/>
       </defs>
       <use xlink:href="#DejaVuSans-42"/>
       <use xlink:href="#DejaVuSans-61" x="68.603516"/>
       <use xlink:href="#DejaVuSans-63" x="129.882812"/>
       <use xlink:href="#DejaVuSans-6b" x="184.863281"/>
       <use xlink:href="#DejaVuSans-62" x="242.773438"/>
       <use xlink:href="#DejaVuSans-6f" x="306.25"/>
       <use xlink:href="#DejaVuSans-6e" x="367.431641"/>
       <use xlink:href="#DejaVuSans-65" x="430.810547"/>
      </g>
     </g>
    </g>
    <g id="xtick_4">
     <g id="text_4">
      <!-- Heuristic C-$\beta$ -->
      <g style="fill: #262626" transform="translate(392.36017 670.706219) rotate(-45) scale(0.2 -0.2)">
       <defs>
        <path id="DejaVuSans-48" d="M 628 4666 
L 1259 4666 
L 1259 2753 
L 3553 2753 
L 3553 4666 
L 4184 4666 
L 4184 0 
L 3553 0 
L 3553 2222 
L 1259 2222 
L 1259 0 
L 628 0 
L 628 4666 
z
" transform="scale(0.015625)"/>
        <path id="DejaVuSans-75" d="M 544 1381 
L 544 3500 
L 1119 3500 
L 1119 1403 
Q 1119 906 1312 657 
Q 1506 409 1894 409 
Q 2359 409 2629 706 
Q 2900 1003 2900 1516 
L 2900 3500 
L 3475 3500 
L 3475 0 
L 2900 0 
L 2900 538 
Q 2691 219 2414 64 
Q 2138 -91 1772 -91 
Q 1169 -91 856 284 
Q 544 659 544 1381 
z
M 1991 3584 
L 1991 3584 
z
" transform="scale(0.015625)"/>
        <path id="DejaVuSans-72" d="M 2631 2963 
Q 2534 3019 2420 3045 
Q 2306 3072 2169 3072 
Q 1681 3072 1420 2755 
Q 1159 2438 1159 1844 
L 1159 0 
L 581 0 
L 581 3500 
L 1159 3500 
L 1159 2956 
Q 1341 3275 1631 3429 
Q 1922 3584 2338 3584 
Q 2397 3584 2469 3576 
Q 2541 3569 2628 3553 
L 2631 2963 
z
" transform="scale(0.015625)"/>
        <path id="DejaVuSans-69" d="M 603 3500 
L 1178 3500 
L 1178 0 
L 603 0 
L 603 3500 
z
M 603 4863 
L 1178 4863 
L 1178 4134 
L 603 4134 
L 603 4863 
z
" transform="scale(0.015625)"/>
        <path id="DejaVuSans-73" d="M 2834 3397 
L 2834 2853 
Q 2591 2978 2328 3040 
Q 2066 3103 1784 3103 
Q 1356 3103 1142 2972 
Q 928 2841 928 2578 
Q 928 2378 1081 2264 
Q 1234 2150 1697 2047 
L 1894 2003 
Q 2506 1872 2764 1633 
Q 3022 1394 3022 966 
Q 3022 478 2636 193 
Q 2250 -91 1575 -91 
Q 1294 -91 989 -36 
Q 684 19 347 128 
L 347 722 
Q 666 556 975 473 
Q 1284 391 1588 391 
Q 1994 391 2212 530 
Q 2431 669 2431 922 
Q 2431 1156 2273 1281 
Q 2116 1406 1581 1522 
L 1381 1569 
Q 847 1681 609 1914 
Q 372 2147 372 2553 
Q 372 3047 722 3315 
Q 1072 3584 1716 3584 
Q 2034 3584 2315 3537 
Q 2597 3491 2834 3397 
z
" transform="scale(0.015625)"/>
        <path id="DejaVuSans-20" transform="scale(0.015625)"/>
        <path id="DejaVuSans-43" d="M 4122 4306 
L 4122 3641 
Q 3803 3938 3442 4084 
Q 3081 4231 2675 4231 
Q 1875 4231 1450 3742 
Q 1025 3253 1025 2328 
Q 1025 1406 1450 917 
Q 1875 428 2675 428 
Q 3081 428 3442 575 
Q 3803 722 4122 1019 
L 4122 359 
Q 3791 134 3420 21 
Q 3050 -91 2638 -91 
Q 1578 -91 968 557 
Q 359 1206 359 2328 
Q 359 3453 968 4101 
Q 1578 4750 2638 4750 
Q 3056 4750 3426 4639 
Q 3797 4528 4122 4306 
z
" transform="scale(0.015625)"/>
        <path id="DejaVuSans-2d" d="M 313 2009 
L 1997 2009 
L 1997 1497 
L 313 1497 
L 313 2009 
z
" transform="scale(0.015625)"/>
        <path id="DejaVuSans-Oblique-3b2" d="M 872 216 
L 572 -1331 
L -6 -1331 
L 928 3478 
Q 1206 4903 2538 4903 
Q 3888 4903 3659 3700 
Q 3503 2844 2894 2531 
Q 3713 2250 3553 1416 
Q 3272 -69 1759 -66 
Q 1097 -63 872 216 
z
M 1019 966 
Q 1259 422 1875 425 
Q 2775 425 2966 1406 
Q 3138 2288 1675 2219 
L 1778 2750 
Q 2909 2731 3106 3750 
Q 3241 4438 2509 4434 
Q 1691 4434 1503 3459 
L 1019 966 
z
" transform="scale(0.015625)"/>
       </defs>
       <use xlink:href="#DejaVuSans-48" transform="translate(0 0.390625)"/>
       <use xlink:href="#DejaVuSans-65" transform="translate(75.195312 0.390625)"/>
       <use xlink:href="#DejaVuSans-75" transform="translate(136.71875 0.390625)"/>
       <use xlink:href="#DejaVuSans-72" transform="translate(200.097656 0.390625)"/>
       <use xlink:href="#DejaVuSans-69" transform="translate(241.210938 0.390625)"/>
       <use xlink:href="#DejaVuSans-73" transform="translate(268.994141 0.390625)"/>
       <use xlink:href="#DejaVuSans-74" transform="translate(321.09375 0.390625)"/>
       <use xlink:href="#DejaVuSans-69" transform="translate(360.302734 0.390625)"/>
       <use xlink:href="#DejaVuSans-63" transform="translate(388.085938 0.390625)"/>
       <use xlink:href="#DejaVuSans-20" transform="translate(443.066406 0.390625)"/>
       <use xlink:href="#DejaVuSans-43" transform="translate(474.853516 0.390625)"/>
       <use xlink:href="#DejaVuSans-2d" transform="translate(544.677734 0.390625)"/>
       <use xlink:href="#DejaVuSans-Oblique-3b2" transform="translate(580.761719 0.390625)"/>
      </g>
     </g>
    </g>
    <g id="xtick_5">
     <g id="text_5">
      <!-- Template C-$\beta$ -->
      <g style="fill: #262626" transform="translate(499.717529 674.94886) rotate(-45) scale(0.2 -0.2)">
       <use xlink:href="#DejaVuSans-54" transform="translate(0 0.390625)"/>
       <use xlink:href="#DejaVuSans-65" transform="translate(61.083984 0.390625)"/>
       <use xlink:href="#DejaVuSans-6d" transform="translate(122.607422 0.390625)"/>
       <use xlink:href="#DejaVuSans-70" transform="translate(220.019531 0.390625)"/>
       <use xlink:href="#DejaVuSans-6c" transform="translate(283.496094 0.390625)"/>
       <use xlink:href="#DejaVuSans-61" transform="translate(311.279297 0.390625)"/>
       <use xlink:href="#DejaVuSans-74" transform="translate(372.558594 0.390625)"/>
       <use xlink:href="#DejaVuSans-65" transform="translate(411.767578 0.390625)"/>
       <use xlink:href="#DejaVuSans-20" transform="translate(473.291016 0.390625)"/>
       <use xlink:href="#DejaVuSans-43" transform="translate(505.078125 0.390625)"/>
       <use xlink:href="#DejaVuSans-2d" transform="translate(574.902344 0.390625)"/>
       <use xlink:href="#DejaVuSans-Oblique-3b2" transform="translate(610.986328 0.390625)"/>
      </g>
     </g>
    </g>
    <g id="xtick_6">
     <g id="text_6">
      <!-- AttnPacker -->
      <g style="fill: #262626" transform="translate(630.630383 655.348744) rotate(-45) scale(0.2 -0.2)">
       <defs>
        <path id="DejaVuSans-50" d="M 1259 4147 
L 1259 2394 
L 2053 2394 
Q 2494 2394 2734 2622 
Q 2975 2850 2975 3272 
Q 2975 3691 2734 3919 
Q 2494 4147 2053 4147 
L 1259 4147 
z
M 628 4666 
L 2053 4666 
Q 2838 4666 3239 4311 
Q 3641 3956 3641 3272 
Q 3641 2581 3239 2228 
Q 2838 1875 2053 1875 
L 1259 1875 
L 1259 0 
L 628 0 
L 628 4666 
z
" transform="scale(0.015625)"/>
       </defs>
       <use xlink:href="#DejaVuSans-41"/>
       <use xlink:href="#DejaVuSans-74" x="66.658203"/>
       <use xlink:href="#DejaVuSans-74" x="105.867188"/>
       <use xlink:href="#DejaVuSans-6e" x="145.076172"/>
       <use xlink:href="#DejaVuSans-50" x="208.455078"/>
       <use xlink:href="#DejaVuSans-61" x="264.257812"/>
       <use xlink:href="#DejaVuSans-63" x="325.537109"/>
       <use xlink:href="#DejaVuSans-6b" x="380.517578"/>
       <use xlink:href="#DejaVuSans-65" x="434.802734"/>
       <use xlink:href="#DejaVuSans-72" x="496.326172"/>
      </g>
     </g>
    </g>
    <g id="xtick_7">
     <g id="text_7">
      <!-- AttnPacker (AF2) -->
      <g style="fill: #262626" transform="translate(699.894574 697.684553) rotate(-45) scale(0.2 -0.2)">
       <defs>
        <path id="DejaVuSans-28" d="M 1984 4856 
Q 1566 4138 1362 3434 
Q 1159 2731 1159 2009 
Q 1159 1288 1364 580 
Q 1569 -128 1984 -844 
L 1484 -844 
Q 1016 -109 783 600 
Q 550 1309 550 2009 
Q 550 2706 781 3412 
Q 1013 4119 1484 4856 
L 1984 4856 
z
" transform="scale(0.015625)"/>
        <path id="DejaVuSans-46" d="M 628 4666 
L 3309 4666 
L 3309 4134 
L 1259 4134 
L 1259 2759 
L 3109 2759 
L 3109 2228 
L 1259 2228 
L 1259 0 
L 628 0 
L 628 4666 
z
" transform="scale(0.015625)"/>
        <path id="DejaVuSans-32" d="M 1228 531 
L 3431 531 
L 3431 0 
L 469 0 
L 469 531 
Q 828 903 1448 1529 
Q 2069 2156 2228 2338 
Q 2531 2678 2651 2914 
Q 2772 3150 2772 3378 
Q 2772 3750 2511 3984 
Q 2250 4219 1831 4219 
Q 1534 4219 1204 4116 
Q 875 4013 500 3803 
L 500 4441 
Q 881 4594 1212 4672 
Q 1544 4750 1819 4750 
Q 2544 4750 2975 4387 
Q 3406 4025 3406 3419 
Q 3406 3131 3298 2873 
Q 3191 2616 2906 2266 
Q 2828 2175 2409 1742 
Q 1991 1309 1228 531 
z
" transform="scale(0.015625)"/>
        <path id="DejaVuSans-29" d="M 513 4856 
L 1013 4856 
Q 1481 4119 1714 3412 
Q 1947 2706 1947 2009 
Q 1947 1309 1714 600 
Q 1481 -109 1013 -844 
L 513 -844 
Q 928 -128 1133 580 
Q 1338 1288 1338 2009 
Q 1338 2731 1133 3434 
Q 928 4138 513 4856 
z
" transform="scale(0.015625)"/>
       </defs>
       <use xlink:href="#DejaVuSans-41"/>
       <use xlink:href="#DejaVuSans-74" x="66.658203"/>
       <use xlink:href="#DejaVuSans-74" x="105.867188"/>
       <use xlink:href="#DejaVuSans-6e" x="145.076172"/>
       <use xlink:href="#DejaVuSans-50" x="208.455078"/>
       <use xlink:href="#DejaVuSans-61" x="264.257812"/>
       <use xlink:href="#DejaVuSans-63" x="325.537109"/>
       <use xlink:href="#DejaVuSans-6b" x="380.517578"/>
       <use xlink:href="#DejaVuSans-65" x="434.802734"/>
       <use xlink:href="#DejaVuSans-72" x="496.326172"/>
       <use xlink:href="#DejaVuSans-20" x="537.439453"/>
       <use xlink:href="#DejaVuSans-28" x="569.226562"/>
       <use xlink:href="#DejaVuSans-41" x="608.240234"/>
       <use xlink:href="#DejaVuSans-46" x="676.648438"/>
       <use xlink:href="#DejaVuSans-32" x="734.167969"/>
       <use xlink:href="#DejaVuSans-29" x="797.791016"/>
      </g>
     </g>
    </g>
   </g>
   <g id="matplotlib.axis_2">
    <g id="ytick_1">
     <g id="line2d_1">
      <path d="M 82.0875 552.435931 
L 863.2875 552.435931 
" clip-path="url(#p255ed876ba)" style="fill: none; stroke: #cccccc; stroke-width: 0.8; stroke-linecap: round"/>
     </g>
     <g id="text_8">
      <!-- 0.00 -->
      <g style="fill: #262626" transform="translate(30.55625 560.034368) scale(0.2 -0.2)">
       <defs>
        <path id="DejaVuSans-30" d="M 2034 4250 
Q 1547 4250 1301 3770 
Q 1056 3291 1056 2328 
Q 1056 1369 1301 889 
Q 1547 409 2034 409 
Q 2525 409 2770 889 
Q 3016 1369 3016 2328 
Q 3016 3291 2770 3770 
Q 2525 4250 2034 4250 
z
M 2034 4750 
Q 2819 4750 3233 4129 
Q 3647 3509 3647 2328 
Q 3647 1150 3233 529 
Q 2819 -91 2034 -91 
Q 1250 -91 836 529 
Q 422 1150 422 2328 
Q 422 3509 836 4129 
Q 1250 4750 2034 4750 
z
" transform="scale(0.015625)"/>
        <path id="DejaVuSans-2e" d="M 684 794 
L 1344 794 
L 1344 0 
L 684 0 
L 684 794 
z
" transform="scale(0.015625)"/>
       </defs>
       <use xlink:href="#DejaVuSans-30"/>
       <use xlink:href="#DejaVuSans-2e" x="63.623047"/>
       <use xlink:href="#DejaVuSans-30" x="95.410156"/>
       <use xlink:href="#DejaVuSans-30" x="159.033203"/>
      </g>
     </g>
    </g>
    <g id="ytick_2">
     <g id="line2d_2">
      <path d="M 82.0875 476.017488 
L 863.2875 476.017488 
" clip-path="url(#p255ed876ba)" style="fill: none; stroke: #cccccc; stroke-width: 0.8; stroke-linecap: round"/>
     </g>
     <g id="text_9">
      <!-- 0.25 -->
      <g style="fill: #262626" transform="translate(30.55625 483.615925) scale(0.2 -0.2)">
       <defs>
        <path id="DejaVuSans-35" d="M 691 4666 
L 3169 4666 
L 3169 4134 
L 1269 4134 
L 1269 2991 
Q 1406 3038 1543 3061 
Q 1681 3084 1819 3084 
Q 2600 3084 3056 2656 
Q 3513 2228 3513 1497 
Q 3513 744 3044 326 
Q 2575 -91 1722 -91 
Q 1428 -91 1123 -41 
Q 819 9 494 109 
L 494 744 
Q 775 591 1075 516 
Q 1375 441 1709 441 
Q 2250 441 2565 725 
Q 2881 1009 2881 1497 
Q 2881 1984 2565 2268 
Q 2250 2553 1709 2553 
Q 1456 2553 1204 2497 
Q 953 2441 691 2322 
L 691 4666 
z
" transform="scale(0.015625)"/>
       </defs>
       <use xlink:href="#DejaVuSans-30"/>
       <use xlink:href="#DejaVuSans-2e" x="63.623047"/>
       <use xlink:href="#DejaVuSans-32" x="95.410156"/>
       <use xlink:href="#DejaVuSans-35" x="159.033203"/>
      </g>
     </g>
    </g>
    <g id="ytick_3">
     <g id="line2d_3">
      <path d="M 82.0875 399.599044 
L 863.2875 399.599044 
" clip-path="url(#p255ed876ba)" style="fill: none; stroke: #cccccc; stroke-width: 0.8; stroke-linecap: round"/>
     </g>
     <g id="text_10">
      <!-- 0.50 -->
      <g style="fill: #262626" transform="translate(30.55625 407.197482) scale(0.2 -0.2)">
       <use xlink:href="#DejaVuSans-30"/>
       <use xlink:href="#DejaVuSans-2e" x="63.623047"/>
       <use xlink:href="#DejaVuSans-35" x="95.410156"/>
       <use xlink:href="#DejaVuSans-30" x="159.033203"/>
      </g>
     </g>
    </g>
    <g id="ytick_4">
     <g id="line2d_4">
      <path d="M 82.0875 323.180601 
L 863.2875 323.180601 
" clip-path="url(#p255ed876ba)" style="fill: none; stroke: #cccccc; stroke-width: 0.8; stroke-linecap: round"/>
     </g>
     <g id="text_11">
      <!-- 0.75 -->
      <g style="fill: #262626" transform="translate(30.55625 330.779038) scale(0.2 -0.2)">
       <defs>
        <path id="DejaVuSans-37" d="M 525 4666 
L 3525 4666 
L 3525 4397 
L 1831 0 
L 1172 0 
L 2766 4134 
L 525 4134 
L 525 4666 
z
" transform="scale(0.015625)"/>
       </defs>
       <use xlink:href="#DejaVuSans-30"/>
       <use xlink:href="#DejaVuSans-2e" x="63.623047"/>
       <use xlink:href="#DejaVuSans-37" x="95.410156"/>
       <use xlink:href="#DejaVuSans-35" x="159.033203"/>
      </g>
     </g>
    </g>
    <g id="ytick_5">
     <g id="line2d_5">
      <path d="M 82.0875 246.762157 
L 863.2875 246.762157 
" clip-path="url(#p255ed876ba)" style="fill: none; stroke: #cccccc; stroke-width: 0.8; stroke-linecap: round"/>
     </g>
     <g id="text_12">
      <!-- 1.00 -->
      <g style="fill: #262626" transform="translate(30.55625 254.360595) scale(0.2 -0.2)">
       <defs>
        <path id="DejaVuSans-31" d="M 794 531 
L 1825 531 
L 1825 4091 
L 703 3866 
L 703 4441 
L 1819 4666 
L 2450 4666 
L 2450 531 
L 3481 531 
L 3481 0 
L 794 0 
L 794 531 
z
" transform="scale(0.015625)"/>
       </defs>
       <use xlink:href="#DejaVuSans-31"/>
       <use xlink:href="#DejaVuSans-2e" x="63.623047"/>
       <use xlink:href="#DejaVuSans-30" x="95.410156"/>
       <use xlink:href="#DejaVuSans-30" x="159.033203"/>
      </g>
     </g>
    </g>
    <g id="ytick_6">
     <g id="line2d_6">
      <path d="M 82.0875 170.343714 
L 863.2875 170.343714 
" clip-path="url(#p255ed876ba)" style="fill: none; stroke: #cccccc; stroke-width: 0.8; stroke-linecap: round"/>
     </g>
     <g id="text_13">
      <!-- 1.25 -->
      <g style="fill: #262626" transform="translate(30.55625 177.942152) scale(0.2 -0.2)">
       <use xlink:href="#DejaVuSans-31"/>
       <use xlink:href="#DejaVuSans-2e" x="63.623047"/>
       <use xlink:href="#DejaVuSans-32" x="95.410156"/>
       <use xlink:href="#DejaVuSans-35" x="159.033203"/>
      </g>
     </g>
    </g>
    <g id="ytick_7">
     <g id="line2d_7">
      <path d="M 82.0875 93.925271 
L 863.2875 93.925271 
" clip-path="url(#p255ed876ba)" style="fill: none; stroke: #cccccc; stroke-width: 0.8; stroke-linecap: round"/>
     </g>
     <g id="text_14">
      <!-- 1.50 -->
      <g style="fill: #262626" transform="translate(30.55625 101.523708) scale(0.2 -0.2)">
       <use xlink:href="#DejaVuSans-31"/>
       <use xlink:href="#DejaVuSans-2e" x="63.623047"/>
       <use xlink:href="#DejaVuSans-35" x="95.410156"/>
       <use xlink:href="#DejaVuSans-30" x="159.033203"/>
      </g>
     </g>
    </g>
    <g id="ytick_8">
     <g id="line2d_8">
      <path d="M 82.0875 17.506827 
L 863.2875 17.506827 
" clip-path="url(#p255ed876ba)" style="fill: none; stroke: #cccccc; stroke-width: 0.8; stroke-linecap: round"/>
     </g>
     <g id="text_15">
      <!-- 1.75 -->
      <g style="fill: #262626" transform="translate(30.55625 25.105265) scale(0.2 -0.2)">
       <use xlink:href="#DejaVuSans-31"/>
       <use xlink:href="#DejaVuSans-2e" x="63.623047"/>
       <use xlink:href="#DejaVuSans-37" x="95.410156"/>
       <use xlink:href="#DejaVuSans-35" x="159.033203"/>
      </g>
     </g>
    </g>
    <g id="text_16">
     <!-- MAE 4 (rad) -->
     <g style="fill: #262626" transform="translate(22.396875 343.296875) rotate(-90) scale(0.2 -0.2)">
      <defs>
       <path id="DejaVuSans-45" d="M 628 4666 
L 3578 4666 
L 3578 4134 
L 1259 4134 
L 1259 2753 
L 3481 2753 
L 3481 2222 
L 1259 2222 
L 1259 531 
L 3634 531 
L 3634 0 
L 628 0 
L 628 4666 
z
" transform="scale(0.015625)"/>
       <path id="DejaVuSans-34" d="M 2419 4116 
L 825 1625 
L 2419 1625 
L 2419 4116 
z
M 2253 4666 
L 3047 4666 
L 3047 1625 
L 3713 1625 
L 3713 1100 
L 3047 1100 
L 3047 0 
L 2419 0 
L 2419 1100 
L 313 1100 
L 313 1709 
L 2253 4666 
z
" transform="scale(0.015625)"/>
       <path id="DejaVuSans-64" d="M 2906 2969 
L 2906 4863 
L 3481 4863 
L 3481 0 
L 2906 0 
L 2906 525 
Q 2725 213 2448 61 
Q 2172 -91 1784 -91 
Q 1150 -91 751 415 
Q 353 922 353 1747 
Q 353 2572 751 3078 
Q 1150 3584 1784 3584 
Q 2172 3584 2448 3432 
Q 2725 3281 2906 2969 
z
M 947 1747 
Q 947 1113 1208 752 
Q 1469 391 1925 391 
Q 2381 391 2643 752 
Q 2906 1113 2906 1747 
Q 2906 2381 2643 2742 
Q 2381 3103 1925 3103 
Q 1469 3103 1208 2742 
Q 947 2381 947 1747 
z
" transform="scale(0.015625)"/>
      </defs>
      <use xlink:href="#DejaVuSans-4d"/>
      <use xlink:href="#DejaVuSans-41" x="86.279297"/>
      <use xlink:href="#DejaVuSans-45" x="154.6875"/>
      <use xlink:href="#DejaVuSans-20" x="217.871094"/>
      <use xlink:href="#DejaVuSans-34" x="249.658203"/>
      <use xlink:href="#DejaVuSans-20" x="313.28125"/>
      <use xlink:href="#DejaVuSans-28" x="345.068359"/>
      <use xlink:href="#DejaVuSans-72" x="384.082031"/>
      <use xlink:href="#DejaVuSans-61" x="425.195312"/>
      <use xlink:href="#DejaVuSans-64" x="486.474609"/>
      <use xlink:href="#DejaVuSans-29" x="549.951172"/>
     </g>
    </g>
   </g>
   <g id="PolyCollection_1">
    <defs>
     <path id="m557df2c354" d="M 138.073332 -173.027951 
L 137.701668 -173.027951 
L 137.630687 -178.056701 
L 137.542046 -183.085452 
L 137.435034 -188.114202 
L 137.310205 -193.142952 
L 137.16956 -198.171703 
L 137.016527 -203.200453 
L 136.855674 -208.229203 
L 136.692145 -213.257954 
L 136.530894 -218.286704 
L 136.375817 -223.315454 
L 136.228959 -228.344204 
L 136.089968 -233.372955 
L 135.955957 -238.401705 
L 135.821846 -243.430455 
L 135.681163 -248.459206 
L 135.527195 -253.487956 
L 135.354251 -258.516706 
L 135.158785 -263.545456 
L 134.940088 -268.574207 
L 134.700336 -273.602957 
L 134.443863 -278.631707 
L 134.175647 -283.660458 
L 133.899162 -288.689208 
L 133.61385 -293.717958 
L 133.312592 -298.746708 
L 132.979618 -303.775459 
L 132.589277 -308.804209 
L 132.106041 -313.832959 
L 131.485994 -318.86171 
L 130.679836 -323.89046 
L 129.637257 -328.91921 
L 128.312309 -333.947961 
L 126.669209 -338.976711 
L 124.687928 -344.005461 
L 122.368871 -349.034211 
L 119.736007 -354.062962 
L 116.837977 -359.091712 
L 113.746876 -364.120462 
L 110.554671 -369.149213 
L 107.367453 -374.177963 
L 104.297986 -379.206713 
L 101.45721 -384.235463 
L 98.945534 -389.264214 
L 96.844812 -394.292964 
L 95.211907 -399.321714 
L 94.074578 -404.350465 
L 93.430199 -409.379215 
L 93.2475 -414.407965 
L 93.471099 -419.436715 
L 94.028256 -424.465466 
L 94.836963 -429.494216 
L 95.814309 -434.522966 
L 96.884072 -439.551717 
L 97.982648 -444.580467 
L 99.062739 -449.609217 
L 100.094636 -454.637968 
L 101.065319 -459.666718 
L 101.975912 -464.695468 
L 102.838223 -469.724218 
L 103.671108 -474.752969 
L 104.497208 -479.781719 
L 105.340406 -484.810469 
L 106.224028 -489.83922 
L 107.169596 -494.86797 
L 108.195835 -499.89672 
L 109.317651 -504.92547 
L 110.544936 -509.954221 
L 111.881243 -514.982971 
L 113.322567 -520.011721 
L 114.856546 -525.040472 
L 116.462394 -530.069222 
L 118.111775 -535.097972 
L 119.770629 -540.126723 
L 121.401797 -545.155473 
L 122.968119 -550.184223 
L 124.435639 -555.212973 
L 125.776539 -560.241724 
L 126.971472 -565.270474 
L 128.011087 -570.299224 
L 128.896587 -575.327975 
L 129.639278 -580.356725 
L 130.259135 -585.385475 
L 130.782493 -590.414225 
L 131.239081 -595.442976 
L 131.65871 -600.471726 
L 132.068027 -605.500476 
L 132.487752 -610.529227 
L 132.9308 -615.557977 
L 133.401537 -620.586727 
L 133.89626 -625.615477 
L 134.404746 -630.644228 
L 134.912543 -635.672978 
L 135.40359 -640.701728 
L 135.862686 -645.730479 
L 136.277452 -650.759229 
L 136.639552 -655.787979 
L 136.945121 -660.81673 
L 137.194477 -665.84548 
L 137.391337 -670.87423 
L 138.383663 -670.87423 
L 138.383663 -670.87423 
L 138.580523 -665.84548 
L 138.829879 -660.81673 
L 139.135448 -655.787979 
L 139.497548 -650.759229 
L 139.912314 -645.730479 
L 140.37141 -640.701728 
L 140.862457 -635.672978 
L 141.370254 -630.644228 
L 141.87874 -625.615477 
L 142.373463 -620.586727 
L 142.8442 -615.557977 
L 143.287248 -610.529227 
L 143.706973 -605.500476 
L 144.11629 -600.471726 
L 144.535919 -595.442976 
L 144.992507 -590.414225 
L 145.515865 -585.385475 
L 146.135722 -580.356725 
L 146.878413 -575.327975 
L 147.763913 -570.299224 
L 148.803528 -565.270474 
L 149.998461 -560.241724 
L 151.339361 -555.212973 
L 152.806881 -550.184223 
L 154.373203 -545.155473 
L 156.004371 -540.126723 
L 157.663225 -535.097972 
L 159.312606 -530.069222 
L 160.918454 -525.040472 
L 162.452433 -520.011721 
L 163.893757 -514.982971 
L 165.230064 -509.954221 
L 166.457349 -504.92547 
L 167.579165 -499.89672 
L 168.605404 -494.86797 
L 169.550972 -489.83922 
L 170.434594 -484.810469 
L 171.277792 -479.781719 
L 172.103892 -474.752969 
L 172.936777 -469.724218 
L 173.799088 -464.695468 
L 174.709681 -459.666718 
L 175.680364 -454.637968 
L 176.712261 -449.609217 
L 177.792352 -444.580467 
L 178.890928 -439.551717 
L 179.960691 -434.522966 
L 180.938037 -429.494216 
L 181.746744 -424.465466 
L 182.303901 -419.436715 
L 182.5275 -414.407965 
L 182.344801 -409.379215 
L 181.700422 -404.350465 
L 180.563093 -399.321714 
L 178.930188 -394.292964 
L 176.829466 -389.264214 
L 174.31779 -384.235463 
L 171.477014 -379.206713 
L 168.407547 -374.177963 
L 165.220329 -369.149213 
L 162.028124 -364.120462 
L 158.937023 -359.091712 
L 156.038993 -354.062962 
L 153.406129 -349.034211 
L 151.087072 -344.005461 
L 149.105791 -338.976711 
L 147.462691 -333.947961 
L 146.137743 -328.91921 
L 145.095164 -323.89046 
L 144.289006 -318.86171 
L 143.668959 -313.832959 
L 143.185723 -308.804209 
L 142.795382 -303.775459 
L 142.462408 -298.746708 
L 142.16115 -293.717958 
L 141.875838 -288.689208 
L 141.599353 -283.660458 
L 141.331137 -278.631707 
L 141.074664 -273.602957 
L 140.834912 -268.574207 
L 140.616215 -263.545456 
L 140.420749 -258.516706 
L 140.247805 -253.487956 
L 140.093837 -248.459206 
L 139.953154 -243.430455 
L 139.819043 -238.401705 
L 139.685032 -233.372955 
L 139.546041 -228.344204 
L 139.399183 -223.315454 
L 139.244106 -218.286704 
L 139.082855 -213.257954 
L 138.919326 -208.229203 
L 138.758473 -203.200453 
L 138.60544 -198.171703 
L 138.464795 -193.142952 
L 138.339966 -188.114202 
L 138.232954 -183.085452 
L 138.144313 -178.056701 
L 138.073332 -173.027951 
z
" style="stroke: #3d3d3d; stroke-opacity: 0.5"/>
    </defs>
    <g clip-path="url(#p255ed876ba)">
     <use xlink:href="#m557df2c354" x="0" y="707.825675" style="fill: #3274a1; fill-opacity: 0.5; stroke: #3d3d3d; stroke-opacity: 0.5"/>
    </g>
   </g>
   <g id="PolyCollection_2">
    <defs>
     <path id="m6ef2b0952c" d="M 249.797429 -171.425675 
L 249.177571 -171.425675 
L 249.062434 -176.062427 
L 248.918419 -180.699179 
L 248.743654 -185.335931 
L 248.538036 -189.972683 
L 248.303641 -194.609436 
L 248.044903 -199.246188 
L 247.768417 -203.88294 
L 247.482305 -208.519692 
L 247.195102 -213.156444 
L 246.914249 -217.793196 
L 246.644337 -222.429949 
L 246.385362 -227.066701 
L 246.131274 -231.703453 
L 245.869151 -236.340205 
L 245.579246 -240.976957 
L 245.236056 -245.613709 
L 244.810424 -250.250461 
L 244.272471 -254.887214 
L 243.595038 -259.523966 
L 242.757132 -264.160718 
L 241.746865 -268.79747 
L 240.563367 -273.434222 
L 239.217322 -278.070974 
L 237.729935 -282.707726 
L 236.130456 -287.344479 
L 234.452591 -291.981231 
L 232.730365 -296.617983 
L 230.994122 -301.254735 
L 229.267307 -305.891487 
L 227.564556 -310.528239 
L 225.891364 -315.164991 
L 224.245321 -319.801744 
L 222.618622 -324.438496 
L 221.001348 -329.075248 
L 219.384928 -333.712 
L 217.765219 -338.348752 
L 216.144774 -342.985504 
L 214.534044 -347.622257 
L 212.951478 -352.259009 
L 211.422627 -356.895761 
L 209.978439 -361.532513 
L 208.653006 -366.169265 
L 207.480968 -370.806017 
L 206.494808 -375.442769 
L 205.722229 -380.079522 
L 205.183868 -384.716274 
L 204.891569 -389.353026 
L 204.8475 -393.989778 
L 205.044289 -398.62653 
L 205.46628 -403.263282 
L 206.091787 -407.900034 
L 206.896068 -412.536787 
L 207.854501 -417.173539 
L 208.945431 -421.810291 
L 210.15213 -426.447043 
L 211.463515 -431.083795 
L 212.873528 -435.720547 
L 214.379355 -440.357299 
L 215.978932 -444.994052 
L 217.668322 -449.630804 
L 219.439533 -454.267556 
L 221.279213 -458.904308 
L 223.168432 -463.54106 
L 225.083474 -468.177812 
L 226.997377 -472.814565 
L 228.881818 -477.451317 
L 230.708932 -482.088069 
L 232.452787 -486.724821 
L 234.090358 -491.361573 
L 235.602056 -495.998325 
L 236.971954 -500.635077 
L 238.187936 -505.27183 
L 239.241958 -509.908582 
L 240.130503 -514.545334 
L 240.85522 -519.182086 
L 241.423573 -523.818838 
L 241.849307 -528.45559 
L 242.152469 -533.092342 
L 242.358792 -537.729095 
L 242.498366 -542.365847 
L 242.603619 -547.002599 
L 242.706804 -551.639351 
L 242.837288 -556.276103 
L 243.019 -560.912855 
L 243.2684 -565.549607 
L 243.593272 -570.18636 
L 243.992502 -574.823112 
L 244.45686 -579.459864 
L 244.970654 -584.096616 
L 245.513976 -588.733368 
L 246.065205 -593.37012 
L 246.603411 -598.006873 
L 247.110355 -602.643625 
L 247.571889 -607.280377 
L 247.978652 -611.917129 
L 248.326116 -616.553881 
L 248.614079 -621.190633 
L 248.845807 -625.827385 
L 249.026992 -630.464138 
L 249.948008 -630.464138 
L 249.948008 -630.464138 
L 250.129193 -625.827385 
L 250.360921 -621.190633 
L 250.648884 -616.553881 
L 250.996348 -611.917129 
L 251.403111 -607.280377 
L 251.864645 -602.643625 
L 252.371589 -598.006873 
L 252.909795 -593.37012 
L 253.461024 -588.733368 
L 254.004346 -584.096616 
L 254.51814 -579.459864 
L 254.982498 -574.823112 
L 255.381728 -570.18636 
L 255.7066 -565.549607 
L 255.956 -560.912855 
L 256.137712 -556.276103 
L 256.268196 -551.639351 
L 256.371381 -547.002599 
L 256.476634 -542.365847 
L 256.616208 -537.729095 
L 256.822531 -533.092342 
L 257.125693 -528.45559 
L 257.551427 -523.818838 
L 258.11978 -519.182086 
L 258.844497 -514.545334 
L 259.733042 -509.908582 
L 260.787064 -505.27183 
L 262.003046 -500.635077 
L 263.372944 -495.998325 
L 264.884642 -491.361573 
L 266.522213 -486.724821 
L 268.266068 -482.088069 
L 270.093182 -477.451317 
L 271.977623 -472.814565 
L 273.891526 -468.177812 
L 275.806568 -463.54106 
L 277.695787 -458.904308 
L 279.535467 -454.267556 
L 281.306678 -449.630804 
L 282.996068 -444.994052 
L 284.595645 -440.357299 
L 286.101472 -435.720547 
L 287.511485 -431.083795 
L 288.82287 -426.447043 
L 290.029569 -421.810291 
L 291.120499 -417.173539 
L 292.078932 -412.536787 
L 292.883213 -407.900034 
L 293.50872 -403.263282 
L 293.930711 -398.62653 
L 294.1275 -393.989778 
L 294.083431 -389.353026 
L 293.791132 -384.716274 
L 293.252771 -380.079522 
L 292.480192 -375.442769 
L 291.494032 -370.806017 
L 290.321994 -366.169265 
L 288.996561 -361.532513 
L 287.552373 -356.895761 
L 286.023522 -352.259009 
L 284.440956 -347.622257 
L 282.830226 -342.985504 
L 281.209781 -338.348752 
L 279.590072 -333.712 
L 277.973652 -329.075248 
L 276.356378 -324.438496 
L 274.729679 -319.801744 
L 273.083636 -315.164991 
L 271.410444 -310.528239 
L 269.707693 -305.891487 
L 267.980878 -301.254735 
L 266.244635 -296.617983 
L 264.522409 -291.981231 
L 262.844544 -287.344479 
L 261.245065 -282.707726 
L 259.757678 -278.070974 
L 258.411633 -273.434222 
L 257.228135 -268.79747 
L 256.217868 -264.160718 
L 255.379962 -259.523966 
L 254.702529 -254.887214 
L 254.164576 -250.250461 
L 253.738944 -245.613709 
L 253.395754 -240.976957 
L 253.105849 -236.340205 
L 252.843726 -231.703453 
L 252.589638 -227.066701 
L 252.330663 -222.429949 
L 252.060751 -217.793196 
L 251.779898 -213.156444 
L 251.492695 -208.519692 
L 251.206583 -203.88294 
L 250.930097 -199.246188 
L 250.671359 -194.609436 
L 250.436964 -189.972683 
L 250.231346 -185.335931 
L 250.056581 -180.699179 
L 249.912566 -176.062427 
L 249.797429 -171.425675 
z
" style="stroke: #3d3d3d; stroke-opacity: 0.5"/>
    </defs>
    <g clip-path="url(#p255ed876ba)">
     <use xlink:href="#m6ef2b0952c" x="0" y="707.825675" style="fill: #d684bd; fill-opacity: 0.5; stroke: #3d3d3d; stroke-opacity: 0.5"/>
    </g>
   </g>
   <g id="PolyCollection_3">
    <defs>
     <path id="m647d564e13" d="M 361.281935 -233.843972 
L 360.893065 -233.843972 
L 360.822685 -238.200338 
L 360.735757 -242.556704 
L 360.631735 -246.913071 
L 360.511176 -251.269437 
L 360.375872 -255.625803 
L 360.228746 -259.98217 
L 360.073497 -264.338536 
L 359.913917 -268.694902 
L 359.752934 -273.051269 
L 359.591451 -277.407635 
L 359.427123 -281.764001 
L 359.253268 -286.120368 
L 359.05812 -290.476734 
L 358.824613 -294.8331 
L 358.530839 -299.189467 
L 358.151231 -303.545833 
L 357.658407 -307.902199 
L 357.025513 -312.258566 
L 356.228782 -316.614932 
L 355.250006 -320.971298 
L 354.078554 -325.327665 
L 352.712681 -329.684031 
L 351.159917 -334.040397 
L 349.436505 -338.396764 
L 347.565988 -342.75313 
L 345.577194 -347.109496 
L 343.501918 -351.465863 
L 341.372671 -355.822229 
L 339.220761 -360.178595 
L 337.074911 -364.534962 
L 334.960462 -368.891328 
L 332.899115 -373.247694 
L 330.909068 -377.604061 
L 329.005394 -381.960427 
L 327.200524 -386.316793 
L 325.504758 -390.67316 
L 323.9268 -395.029526 
L 322.47433 -399.385892 
L 321.154655 -403.742259 
L 319.975416 -408.098625 
L 318.945291 -412.454991 
L 318.074563 -416.811358 
L 317.375367 -421.167724 
L 316.861475 -425.52409 
L 316.547498 -429.880457 
L 316.4475 -434.236823 
L 316.573147 -438.593189 
L 316.931625 -442.949556 
L 317.523645 -447.305922 
L 318.341903 -451.662288 
L 319.37029 -456.018655 
L 320.584077 -460.375021 
L 321.951114 -464.731387 
L 323.433945 -469.087754 
L 324.992571 -473.44412 
L 326.587481 -477.800486 
L 328.182577 -482.156853 
L 329.747584 -486.513219 
L 331.2597 -490.869585 
L 332.70432 -495.225952 
L 334.074841 -499.582318 
L 335.37167 -503.938684 
L 336.600656 -508.295051 
L 337.771214 -512.651417 
L 338.894404 -517.007783 
L 339.981187 -521.36415 
L 341.041026 -525.720516 
L 342.080905 -530.076882 
L 343.104789 -534.433249 
L 344.113511 -538.789615 
L 345.105015 -543.145981 
L 346.074905 -547.502348 
L 347.017243 -551.858714 
L 347.925488 -556.21508 
L 348.79353 -560.571447 
L 349.616668 -564.927813 
L 350.392427 -569.284179 
L 351.121094 -573.640546 
L 351.80585 -577.996912 
L 352.452476 -582.353278 
L 353.068632 -586.709645 
L 353.662822 -591.066011 
L 354.243193 -595.422377 
L 354.816354 -599.778744 
L 355.38643 -604.13511 
L 355.954469 -608.491476 
L 356.518317 -612.847843 
L 357.07295 -617.204209 
L 357.611204 -621.560575 
L 358.124752 -625.916942 
L 358.605196 -630.273308 
L 359.045071 -634.629674 
L 359.43866 -638.986041 
L 359.782501 -643.342407 
L 360.075577 -647.698773 
L 360.319193 -652.05514 
L 360.516613 -656.411506 
L 360.672545 -660.767872 
L 360.79257 -665.124239 
L 361.38243 -665.124239 
L 361.38243 -665.124239 
L 361.502455 -660.767872 
L 361.658387 -656.411506 
L 361.855807 -652.05514 
L 362.099423 -647.698773 
L 362.392499 -643.342407 
L 362.73634 -638.986041 
L 363.129929 -634.629674 
L 363.569804 -630.273308 
L 364.050248 -625.916942 
L 364.563796 -621.560575 
L 365.10205 -617.204209 
L 365.656683 -612.847843 
L 366.220531 -608.491476 
L 366.78857 -604.13511 
L 367.358646 -599.778744 
L 367.931807 -595.422377 
L 368.512178 -591.066011 
L 369.106368 -586.709645 
L 369.722524 -582.353278 
L 370.36915 -577.996912 
L 371.053906 -573.640546 
L 371.782573 -569.284179 
L 372.558332 -564.927813 
L 373.38147 -560.571447 
L 374.249512 -556.21508 
L 375.157757 -551.858714 
L 376.100095 -547.502348 
L 377.069985 -543.145981 
L 378.061489 -538.789615 
L 379.070211 -534.433249 
L 380.094095 -530.076882 
L 381.133974 -525.720516 
L 382.193813 -521.36415 
L 383.280596 -517.007783 
L 384.403786 -512.651417 
L 385.574344 -508.295051 
L 386.80333 -503.938684 
L 388.100159 -499.582318 
L 389.47068 -495.225952 
L 390.9153 -490.869585 
L 392.427416 -486.513219 
L 393.992423 -482.156853 
L 395.587519 -477.800486 
L 397.182429 -473.44412 
L 398.741055 -469.087754 
L 400.223886 -464.731387 
L 401.590923 -460.375021 
L 402.80471 -456.018655 
L 403.833097 -451.662288 
L 404.651355 -447.305922 
L 405.243375 -442.949556 
L 405.601853 -438.593189 
L 405.7275 -434.236823 
L 405.627502 -429.880457 
L 405.313525 -425.52409 
L 404.799633 -421.167724 
L 404.100437 -416.811358 
L 403.229709 -412.454991 
L 402.199584 -408.098625 
L 401.020345 -403.742259 
L 399.70067 -399.385892 
L 398.2482 -395.029526 
L 396.670242 -390.67316 
L 394.974476 -386.316793 
L 393.169606 -381.960427 
L 391.265932 -377.604061 
L 389.275885 -373.247694 
L 387.214538 -368.891328 
L 385.100089 -364.534962 
L 382.954239 -360.178595 
L 380.802329 -355.822229 
L 378.673082 -351.465863 
L 376.597806 -347.109496 
L 374.609012 -342.75313 
L 372.738495 -338.396764 
L 371.015083 -334.040397 
L 369.462319 -329.684031 
L 368.096446 -325.327665 
L 366.924994 -320.971298 
L 365.946218 -316.614932 
L 365.149487 -312.258566 
L 364.516593 -307.902199 
L 364.023769 -303.545833 
L 363.644161 -299.189467 
L 363.350387 -294.8331 
L 363.11688 -290.476734 
L 362.921732 -286.120368 
L 362.747877 -281.764001 
L 362.583549 -277.407635 
L 362.422066 -273.051269 
L 362.261083 -268.694902 
L 362.101503 -264.338536 
L 361.946254 -259.98217 
L 361.799128 -255.625803 
L 361.663824 -251.269437 
L 361.543265 -246.913071 
L 361.439243 -242.556704 
L 361.352315 -238.200338 
L 361.281935 -233.843972 
z
" style="stroke: #3d3d3d; stroke-opacity: 0.5"/>
    </defs>
    <g clip-path="url(#p255ed876ba)">
     <use xlink:href="#m647d564e13" x="0" y="707.825675" style="fill: #c03d3e; fill-opacity: 0.5; stroke: #3d3d3d; stroke-opacity: 0.5"/>
    </g>
   </g>
   <g id="PolyCollection_4">
    <defs>
     <path id="m56a7d5bb8c" d="M 472.88234 -220.51093 
L 472.49266 -220.51093 
L 472.421408 -224.852748 
L 472.332742 -229.194566 
L 472.225588 -233.536384 
L 472.099812 -237.878201 
L 471.956376 -242.220019 
L 471.797332 -246.561837 
L 471.625641 -250.903655 
L 471.444777 -255.245473 
L 471.258175 -259.587291 
L 471.068573 -263.929109 
L 470.877354 -268.270926 
L 470.684003 -272.612744 
L 470.485773 -276.954562 
L 470.277608 -281.29638 
L 470.052337 -285.638198 
L 469.801071 -289.980016 
L 469.513723 -294.321833 
L 469.179519 -298.663651 
L 468.787428 -303.005469 
L 468.326435 -307.347287 
L 467.785683 -311.689105 
L 467.15453 -316.030923 
L 466.422606 -320.37274 
L 465.579954 -324.714558 
L 464.617316 -329.056376 
L 463.526553 -333.398194 
L 462.301169 -337.740012 
L 460.936849 -342.08183 
L 459.431949 -346.423648 
L 457.787886 -350.765465 
L 456.009427 -355.107283 
L 454.104944 -359.449101 
L 452.086687 -363.790919 
L 449.971138 -368.132737 
L 447.77945 -372.474555 
L 445.537858 -376.816372 
L 443.277905 -381.15819 
L 441.036257 -385.500008 
L 438.853897 -389.841826 
L 436.774572 -394.183644 
L 434.84254 -398.525462 
L 433.09979 -402.867279 
L 431.583107 -407.209097 
L 430.321408 -411.550915 
L 429.333788 -415.892733 
L 428.628586 -420.234551 
L 428.203616 -424.576369 
L 428.0475 -428.918187 
L 428.141825 -433.260004 
L 428.46374 -437.601822 
L 428.988549 -441.94364 
L 429.691887 -446.285458 
L 430.551191 -450.627276 
L 431.546301 -454.969094 
L 432.659209 -459.310911 
L 433.87311 -463.652729 
L 435.171041 -467.994547 
L 436.534475 -472.336365 
L 437.94224 -476.678183 
L 439.37013 -481.020001 
L 440.791427 -485.361818 
L 442.178398 -489.703636 
L 443.504639 -494.045454 
L 444.747908 -498.387272 
L 445.892968 -502.72909 
L 446.933862 -507.070908 
L 447.875134 -511.412726 
L 448.731631 -515.754543 
L 449.526802 -520.096361 
L 450.289699 -524.438179 
L 451.051127 -528.779997 
L 451.839583 -533.121815 
L 452.677665 -537.463633 
L 453.579538 -541.80545 
L 454.54982 -546.147268 
L 455.583993 -550.489086 
L 456.670103 -554.830904 
L 457.791328 -559.172722 
L 458.928849 -563.51454 
L 460.064449 -567.856357 
L 461.182444 -572.198175 
L 462.270678 -576.539993 
L 463.320616 -580.881811 
L 464.326712 -585.223629 
L 465.285369 -589.565447 
L 466.193833 -593.907264 
L 467.049323 -598.249082 
L 467.848559 -602.5909 
L 468.587742 -606.932718 
L 469.262926 -611.274536 
L 469.870613 -615.616354 
L 470.408398 -619.958172 
L 470.875516 -624.299989 
L 471.273155 -628.641807 
L 471.604498 -632.983625 
L 471.874517 -637.325443 
L 472.089561 -641.667261 
L 472.256843 -646.009079 
L 472.383892 -650.350896 
L 472.991108 -650.350896 
L 472.991108 -650.350896 
L 473.118157 -646.009079 
L 473.285439 -641.667261 
L 473.500483 -637.325443 
L 473.770502 -632.983625 
L 474.101845 -628.641807 
L 474.499484 -624.299989 
L 474.966602 -619.958172 
L 475.504387 -615.616354 
L 476.112074 -611.274536 
L 476.787258 -606.932718 
L 477.526441 -602.5909 
L 478.325677 -598.249082 
L 479.181167 -593.907264 
L 480.089631 -589.565447 
L 481.048288 -585.223629 
L 482.054384 -580.881811 
L 483.104322 -576.539993 
L 484.192556 -572.198175 
L 485.310551 -567.856357 
L 486.446151 -563.51454 
L 487.583672 -559.172722 
L 488.704897 -554.830904 
L 489.791007 -550.489086 
L 490.82518 -546.147268 
L 491.795462 -541.80545 
L 492.697335 -537.463633 
L 493.535417 -533.121815 
L 494.323873 -528.779997 
L 495.085301 -524.438179 
L 495.848198 -520.096361 
L 496.643369 -515.754543 
L 497.499866 -511.412726 
L 498.441138 -507.070908 
L 499.482032 -502.72909 
L 500.627092 -498.387272 
L 501.870361 -494.045454 
L 503.196602 -489.703636 
L 504.583573 -485.361818 
L 506.00487 -481.020001 
L 507.43276 -476.678183 
L 508.840525 -472.336365 
L 510.203959 -467.994547 
L 511.50189 -463.652729 
L 512.715791 -459.310911 
L 513.828699 -454.969094 
L 514.823809 -450.627276 
L 515.683113 -446.285458 
L 516.386451 -441.94364 
L 516.91126 -437.601822 
L 517.233175 -433.260004 
L 517.3275 -428.918187 
L 517.171384 -424.576369 
L 516.746414 -420.234551 
L 516.041212 -415.892733 
L 515.053592 -411.550915 
L 513.791893 -407.209097 
L 512.27521 -402.867279 
L 510.53246 -398.525462 
L 508.600428 -394.183644 
L 506.521103 -389.841826 
L 504.338743 -385.500008 
L 502.097095 -381.15819 
L 499.837142 -376.816372 
L 497.59555 -372.474555 
L 495.403862 -368.132737 
L 493.288313 -363.790919 
L 491.270056 -359.449101 
L 489.365573 -355.107283 
L 487.587114 -350.765465 
L 485.943051 -346.423648 
L 484.438151 -342.08183 
L 483.073831 -337.740012 
L 481.848447 -333.398194 
L 480.757684 -329.056376 
L 479.795046 -324.714558 
L 478.952394 -320.37274 
L 478.22047 -316.030923 
L 477.589317 -311.689105 
L 477.048565 -307.347287 
L 476.587572 -303.005469 
L 476.195481 -298.663651 
L 475.861277 -294.321833 
L 475.573929 -289.980016 
L 475.322663 -285.638198 
L 475.097392 -281.29638 
L 474.889227 -276.954562 
L 474.690997 -272.612744 
L 474.497646 -268.270926 
L 474.306427 -263.929109 
L 474.116825 -259.587291 
L 473.930223 -255.245473 
L 473.749359 -250.903655 
L 473.577668 -246.561837 
L 473.418624 -242.220019 
L 473.275188 -237.878201 
L 473.149412 -233.536384 
L 473.042258 -229.194566 
L 472.953592 -224.852748 
L 472.88234 -220.51093 
z
" style="stroke: #3d3d3d; stroke-opacity: 0.5"/>
    </defs>
    <g clip-path="url(#p255ed876ba)">
     <use xlink:href="#m56a7d5bb8c" x="0" y="707.825675" style="fill: #9372b2; fill-opacity: 0.5; stroke: #3d3d3d; stroke-opacity: 0.5"/>
    </g>
   </g>
   <g id="PolyCollection_5">
    <defs>
     <path id="m921191f4b5" d="M 584.56436 -237.647579 
L 584.01064 -237.647579 
L 583.907073 -241.885766 
L 583.774376 -246.123953 
L 583.607801 -250.36214 
L 583.402819 -254.600327 
L 583.155375 -258.838514 
L 582.862109 -263.076701 
L 582.520522 -267.314887 
L 582.129038 -271.553074 
L 581.686965 -275.791261 
L 581.194339 -280.029448 
L 580.651667 -284.267635 
L 580.059611 -288.505822 
L 579.418632 -292.744008 
L 578.72864 -296.982195 
L 577.988688 -301.220382 
L 577.196712 -305.458569 
L 576.349332 -309.696756 
L 575.441728 -313.934943 
L 574.467579 -318.173129 
L 573.419094 -322.411316 
L 572.287161 -326.649503 
L 571.061671 -330.88769 
L 569.732056 -335.125877 
L 568.2881 -339.364064 
L 566.721036 -343.60225 
L 565.024908 -347.840437 
L 563.198119 -352.078624 
L 561.245048 -356.316811 
L 559.177544 -360.554998 
L 557.016112 -364.793185 
L 554.790564 -369.031372 
L 552.539961 -373.269558 
L 550.311704 -377.507745 
L 548.15971 -381.745932 
L 546.141723 -385.984119 
L 544.31589 -390.222306 
L 542.736872 -394.460493 
L 541.451837 -398.698679 
L 540.496746 -402.936866 
L 539.893384 -407.175053 
L 539.6475 -411.41324 
L 539.748355 -415.651427 
L 540.169788 -419.889614 
L 540.872705 -424.1278 
L 541.808709 -428.365987 
L 542.924399 -432.604174 
L 544.165773 -436.842361 
L 545.482168 -441.080548 
L 546.82925 -445.318735 
L 548.170754 -449.556922 
L 549.478904 -453.795108 
L 550.733686 -458.033295 
L 551.921314 -462.271482 
L 553.032386 -466.509669 
L 554.060181 -470.747856 
L 554.999524 -474.986043 
L 555.846406 -479.224229 
L 556.598411 -483.462416 
L 557.255752 -487.700603 
L 557.822596 -491.93879 
L 558.308286 -496.176977 
L 558.728085 -500.415164 
L 559.103152 -504.65335 
L 559.45963 -508.891537 
L 559.826888 -513.129724 
L 560.235122 -517.367911 
L 560.712624 -521.606098 
L 561.283117 -525.844285 
L 561.963501 -530.082471 
L 562.762324 -534.320658 
L 563.679159 -538.558845 
L 564.704936 -542.797032 
L 565.823157 -547.035219 
L 567.01179 -551.273406 
L 568.245558 -555.511593 
L 569.49834 -559.749779 
L 570.745358 -563.987966 
L 571.964937 -568.226153 
L 573.139666 -572.46434 
L 574.25691 -576.702527 
L 575.308712 -580.940714 
L 576.291206 -585.1789 
L 577.203706 -589.417087 
L 578.047668 -593.655274 
L 578.825692 -597.893461 
L 579.540701 -602.131648 
L 580.195384 -606.369835 
L 580.791913 -610.608021 
L 581.331924 -614.846208 
L 581.816684 -619.084395 
L 582.24737 -623.322582 
L 582.625372 -627.560769 
L 582.952554 -631.798956 
L 583.231426 -636.037143 
L 583.465196 -640.275329 
L 583.657722 -644.513516 
L 583.813365 -648.751703 
L 583.93679 -652.98989 
L 584.032744 -657.228077 
L 584.542256 -657.228077 
L 584.542256 -657.228077 
L 584.63821 -652.98989 
L 584.761635 -648.751703 
L 584.917278 -644.513516 
L 585.109804 -640.275329 
L 585.343574 -636.037143 
L 585.622446 -631.798956 
L 585.949628 -627.560769 
L 586.32763 -623.322582 
L 586.758316 -619.084395 
L 587.243076 -614.846208 
L 587.783087 -610.608021 
L 588.379616 -606.369835 
L 589.034299 -602.131648 
L 589.749308 -597.893461 
L 590.527332 -593.655274 
L 591.371294 -589.417087 
L 592.283794 -585.1789 
L 593.266288 -580.940714 
L 594.31809 -576.702527 
L 595.435334 -572.46434 
L 596.610063 -568.226153 
L 597.829642 -563.987966 
L 599.07666 -559.749779 
L 600.329442 -555.511593 
L 601.56321 -551.273406 
L 602.751843 -547.035219 
L 603.870064 -542.797032 
L 604.895841 -538.558845 
L 605.812676 -534.320658 
L 606.611499 -530.082471 
L 607.291883 -525.844285 
L 607.862376 -521.606098 
L 608.339878 -517.367911 
L 608.748112 -513.129724 
L 609.11537 -508.891537 
L 609.471848 -504.65335 
L 609.846915 -500.415164 
L 610.266714 -496.176977 
L 610.752404 -491.93879 
L 611.319248 -487.700603 
L 611.976589 -483.462416 
L 612.728594 -479.224229 
L 613.575476 -474.986043 
L 614.514819 -470.747856 
L 615.542614 -466.509669 
L 616.653686 -462.271482 
L 617.841314 -458.033295 
L 619.096096 -453.795108 
L 620.404246 -449.556922 
L 621.74575 -445.318735 
L 623.092832 -441.080548 
L 624.409227 -436.842361 
L 625.650601 -432.604174 
L 626.766291 -428.365987 
L 627.702295 -424.1278 
L 628.405212 -419.889614 
L 628.826645 -415.651427 
L 628.9275 -411.41324 
L 628.681616 -407.175053 
L 628.078254 -402.936866 
L 627.123163 -398.698679 
L 625.838128 -394.460493 
L 624.25911 -390.222306 
L 622.433277 -385.984119 
L 620.41529 -381.745932 
L 618.263296 -377.507745 
L 616.035039 -373.269558 
L 613.784436 -369.031372 
L 611.558888 -364.793185 
L 609.397456 -360.554998 
L 607.329952 -356.316811 
L 605.376881 -352.078624 
L 603.550092 -347.840437 
L 601.853964 -343.60225 
L 600.2869 -339.364064 
L 598.842944 -335.125877 
L 597.513329 -330.88769 
L 596.287839 -326.649503 
L 595.155906 -322.411316 
L 594.107421 -318.173129 
L 593.133272 -313.934943 
L 592.225668 -309.696756 
L 591.378288 -305.458569 
L 590.586312 -301.220382 
L 589.84636 -296.982195 
L 589.156368 -292.744008 
L 588.515389 -288.505822 
L 587.923333 -284.267635 
L 587.380661 -280.029448 
L 586.888035 -275.791261 
L 586.445962 -271.553074 
L 586.054478 -267.314887 
L 585.712891 -263.076701 
L 585.419625 -258.838514 
L 585.172181 -254.600327 
L 584.967199 -250.36214 
L 584.800624 -246.123953 
L 584.667927 -241.885766 
L 584.56436 -237.647579 
z
" style="stroke: #3d3d3d; stroke-opacity: 0.5"/>
    </defs>
    <g clip-path="url(#p255ed876ba)">
     <use xlink:href="#m921191f4b5" x="0" y="707.825675" style="fill: #845b53; fill-opacity: 0.5; stroke: #3d3d3d; stroke-opacity: 0.5"/>
    </g>
   </g>
   <g id="PolyCollection_6">
    <defs>
     <path id="m314daaf053" d="M 696.09338 -206.950801 
L 695.68162 -206.950801 
L 695.60158 -211.68287 
L 695.499563 -216.41494 
L 695.372893 -221.147009 
L 695.219537 -225.879079 
L 695.038301 -230.611148 
L 694.82894 -235.343218 
L 694.592164 -240.075287 
L 694.329549 -244.807357 
L 694.043408 -249.539426 
L 693.736666 -254.271495 
L 693.412805 -259.003565 
L 693.075898 -263.735634 
L 692.730709 -268.467704 
L 692.38275 -273.199773 
L 692.03815 -277.931843 
L 691.703169 -282.663912 
L 691.383203 -287.395981 
L 691.081251 -292.128051 
L 690.795926 -296.86012 
L 690.519282 -301.59219 
L 690.234839 -306.324259 
L 689.916296 -311.056329 
L 689.527376 -315.788398 
L 689.023155 -320.520467 
L 688.353007 -325.252537 
L 687.465024 -329.984606 
L 686.311509 -334.716676 
L 684.854902 -339.448745 
L 683.073351 -344.180815 
L 680.965147 -348.912884 
L 678.551316 -353.644953 
L 675.875931 -358.377023 
L 673.004003 -363.109092 
L 670.017138 -367.841162 
L 667.007508 -372.573231 
L 664.070857 -377.305301 
L 661.299391 -382.03737 
L 658.775363 -386.769439 
L 656.565963 -391.501509 
L 654.719886 -396.233578 
L 653.265693 -400.965648 
L 652.211817 -405.697717 
L 651.547951 -410.429787 
L 651.2475 -415.161856 
L 651.270807 -419.893926 
L 651.568922 -424.625995 
L 652.087722 -429.358064 
L 652.772186 -434.090134 
L 653.570552 -438.822203 
L 654.438014 -443.554273 
L 655.339553 -448.286342 
L 656.251524 -453.018412 
L 657.161771 -457.750481 
L 658.068228 -462.48255 
L 658.976289 -467.21462 
L 659.895432 -471.946689 
L 660.835755 -476.678759 
L 661.805098 -481.410828 
L 662.807261 -486.142898 
L 663.841581 -490.874967 
L 664.903815 -495.607036 
L 665.987984 -500.339106 
L 667.088608 -505.071175 
L 668.202737 -509.803245 
L 669.331213 -514.535314 
L 670.478848 -519.267384 
L 671.65341 -523.999453 
L 672.863662 -528.731522 
L 674.116848 -533.463592 
L 675.416181 -538.195661 
L 676.758899 -542.927731 
L 678.135277 -547.6598 
L 679.528858 -552.39187 
L 680.917855 -557.123939 
L 682.277482 -561.856009 
L 683.582801 -566.588078 
L 684.811596 -571.320147 
L 685.946791 -576.052217 
L 686.978076 -580.784286 
L 687.902511 -585.516356 
L 688.724126 -590.248425 
L 689.452638 -594.980495 
L 690.101565 -599.712564 
L 690.686078 -604.444633 
L 691.220917 -609.176703 
L 691.718671 -613.908772 
L 692.188619 -618.640842 
L 692.636213 -623.372911 
L 693.063211 -628.104981 
L 693.468312 -632.83705 
L 693.848149 -637.569119 
L 694.198408 -642.301189 
L 694.514897 -647.033258 
L 694.794398 -651.765328 
L 695.035222 -656.497397 
L 695.237429 -661.229467 
L 695.402754 -665.961536 
L 695.534314 -670.693605 
L 695.636177 -675.425675 
L 696.138823 -675.425675 
L 696.138823 -675.425675 
L 696.240686 -670.693605 
L 696.372246 -665.961536 
L 696.537571 -661.229467 
L 696.739778 -656.497397 
L 696.980602 -651.765328 
L 697.260103 -647.033258 
L 697.576592 -642.301189 
L 697.926851 -637.569119 
L 698.306688 -632.83705 
L 698.711789 -628.104981 
L 699.138787 -623.372911 
L 699.586381 -618.640842 
L 700.056329 -613.908772 
L 700.554083 -609.176703 
L 701.088922 -604.444633 
L 701.673435 -599.712564 
L 702.322362 -594.980495 
L 703.050874 -590.248425 
L 703.872489 -585.516356 
L 704.796924 -580.784286 
L 705.828209 -576.052217 
L 706.963404 -571.320147 
L 708.192199 -566.588078 
L 709.497518 -561.856009 
L 710.857145 -557.123939 
L 712.246142 -552.39187 
L 713.639723 -547.6598 
L 715.016101 -542.927731 
L 716.358819 -538.195661 
L 717.658152 -533.463592 
L 718.911338 -528.731522 
L 720.12159 -523.999453 
L 721.296152 -519.267384 
L 722.443787 -514.535314 
L 723.572263 -509.803245 
L 724.686392 -505.071175 
L 725.787016 -500.339106 
L 726.871185 -495.607036 
L 727.933419 -490.874967 
L 728.967739 -486.142898 
L 729.969902 -481.410828 
L 730.939245 -476.678759 
L 731.879568 -471.946689 
L 732.798711 -467.21462 
L 733.706772 -462.48255 
L 734.613229 -457.750481 
L 735.523476 -453.018412 
L 736.435447 -448.286342 
L 737.336986 -443.554273 
L 738.204448 -438.822203 
L 739.002814 -434.090134 
L 739.687278 -429.358064 
L 740.206078 -424.625995 
L 740.504193 -419.893926 
L 740.5275 -415.161856 
L 740.227049 -410.429787 
L 739.563183 -405.697717 
L 738.509307 -400.965648 
L 737.055114 -396.233578 
L 735.209037 -391.501509 
L 732.999637 -386.769439 
L 730.475609 -382.03737 
L 727.704143 -377.305301 
L 724.767492 -372.573231 
L 721.757862 -367.841162 
L 718.770997 -363.109092 
L 715.899069 -358.377023 
L 713.223684 -353.644953 
L 710.809853 -348.912884 
L 708.701649 -344.180815 
L 706.920098 -339.448745 
L 705.463491 -334.716676 
L 704.309976 -329.984606 
L 703.421993 -325.252537 
L 702.751845 -320.520467 
L 702.247624 -315.788398 
L 701.858704 -311.056329 
L 701.540161 -306.324259 
L 701.255718 -301.59219 
L 700.979074 -296.86012 
L 700.693749 -292.128051 
L 700.391797 -287.395981 
L 700.071831 -282.663912 
L 699.73685 -277.931843 
L 699.39225 -273.199773 
L 699.044291 -268.467704 
L 698.699102 -263.735634 
L 698.362195 -259.003565 
L 698.038334 -254.271495 
L 697.731592 -249.539426 
L 697.445451 -244.807357 
L 697.182836 -240.075287 
L 696.94606 -235.343218 
L 696.736699 -230.611148 
L 696.555463 -225.879079 
L 696.402107 -221.147009 
L 696.275437 -216.41494 
L 696.17342 -211.68287 
L 696.09338 -206.950801 
z
" style="stroke: #3d3d3d; stroke-opacity: 0.5"/>
    </defs>
    <g clip-path="url(#p255ed876ba)">
     <use xlink:href="#m314daaf053" x="0" y="707.825675" style="fill: #e1812c; fill-opacity: 0.5; stroke: #3d3d3d; stroke-opacity: 0.5"/>
    </g>
   </g>
   <g id="PolyCollection_7">
    <defs>
     <path id="m5b5c6248f6" d="M 807.670051 -187.135268 
L 807.304949 -187.135268 
L 807.236745 -191.929206 
L 807.152237 -196.723145 
L 807.051136 -201.517083 
L 806.934502 -206.311022 
L 806.804956 -211.10496 
L 806.666678 -215.898899 
L 806.525137 -220.692837 
L 806.386518 -225.486776 
L 806.256875 -230.280714 
L 806.141106 -235.074652 
L 806.041879 -239.868591 
L 805.958697 -244.662529 
L 805.887239 -249.456468 
L 805.819142 -254.250406 
L 805.74224 -259.044345 
L 805.641274 -263.838283 
L 805.498936 -268.632222 
L 805.297113 -273.42616 
L 805.018136 -278.220099 
L 804.64588 -283.014037 
L 804.166582 -287.807976 
L 803.569329 -292.601914 
L 802.84621 -297.395853 
L 801.992176 -302.189791 
L 801.004675 -306.98373 
L 799.883128 -311.777668 
L 798.628324 -316.571607 
L 797.241802 -321.365545 
L 795.725289 -326.159484 
L 794.080322 -330.953422 
L 792.308169 -335.747361 
L 790.410197 -340.541299 
L 788.388795 -345.335238 
L 786.248882 -350.129176 
L 783.999917 -354.923115 
L 781.658176 -359.717053 
L 779.248925 -364.510992 
L 776.808023 -369.30493 
L 774.382484 -374.098869 
L 772.029608 -378.892807 
L 769.814493 -383.686746 
L 767.805983 -388.480684 
L 766.071393 -393.274622 
L 764.67064 -398.068561 
L 763.650536 -402.862499 
L 763.040084 -407.656438 
L 762.8475 -412.450376 
L 763.059443 -417.244315 
L 763.6426 -422.038253 
L 764.547395 -426.832192 
L 765.713237 -431.62613 
L 767.074497 -436.420069 
L 768.566301 -441.214007 
L 770.129344 -446.007946 
L 771.71315 -450.801884 
L 773.277575 -455.595823 
L 774.792693 -460.389761 
L 776.23756 -465.1837 
L 777.598453 -469.977638 
L 778.867247 -474.771577 
L 780.04036 -479.565515 
L 781.118452 -484.359454 
L 782.10674 -489.153392 
L 783.015508 -493.947331 
L 783.860326 -498.741269 
L 784.661508 -503.535208 
L 785.44258 -508.329146 
L 786.227814 -513.123085 
L 787.039206 -517.917023 
L 787.893473 -522.710962 
L 788.799715 -527.5049 
L 789.758275 -532.298839 
L 790.761045 -537.092777 
L 791.793177 -541.886715 
L 792.835815 -546.680654 
L 793.869288 -551.474592 
L 794.876115 -556.268531 
L 795.843269 -561.062469 
L 796.763373 -565.856408 
L 797.634711 -570.650346 
L 798.460238 -575.444285 
L 799.245899 -580.238223 
L 799.998686 -585.032162 
L 800.72482 -589.8261 
L 801.428376 -594.620039 
L 802.110516 -599.413977 
L 802.769367 -604.207916 
L 803.400466 -609.001854 
L 803.997604 -613.795793 
L 804.553883 -618.589731 
L 805.062775 -623.38367 
L 805.519035 -628.177608 
L 805.919351 -632.971547 
L 806.262674 -637.765485 
L 806.55024 -642.559424 
L 806.785319 -647.353362 
L 806.972775 -652.147301 
L 807.118525 -656.941239 
L 807.228977 -661.735178 
L 807.746023 -661.735178 
L 807.746023 -661.735178 
L 807.856475 -656.941239 
L 808.002225 -652.147301 
L 808.189681 -647.353362 
L 808.42476 -642.559424 
L 808.712326 -637.765485 
L 809.055649 -632.971547 
L 809.455965 -628.177608 
L 809.912225 -623.38367 
L 810.421117 -618.589731 
L 810.977396 -613.795793 
L 811.574534 -609.001854 
L 812.205633 -604.207916 
L 812.864484 -599.413977 
L 813.546624 -594.620039 
L 814.25018 -589.8261 
L 814.976314 -585.032162 
L 815.729101 -580.238223 
L 816.514762 -575.444285 
L 817.340289 -570.650346 
L 818.211627 -565.856408 
L 819.131731 -561.062469 
L 820.098885 -556.268531 
L 821.105712 -551.474592 
L 822.139185 -546.680654 
L 823.181823 -541.886715 
L 824.213955 -537.092777 
L 825.216725 -532.298839 
L 826.175285 -527.5049 
L 827.081527 -522.710962 
L 827.935794 -517.917023 
L 828.747186 -513.123085 
L 829.53242 -508.329146 
L 830.313492 -503.535208 
L 831.114674 -498.741269 
L 831.959492 -493.947331 
L 832.86826 -489.153392 
L 833.856548 -484.359454 
L 834.93464 -479.565515 
L 836.107753 -474.771577 
L 837.376547 -469.977638 
L 838.73744 -465.1837 
L 840.182307 -460.389761 
L 841.697425 -455.595823 
L 843.26185 -450.801884 
L 844.845656 -446.007946 
L 846.408699 -441.214007 
L 847.900503 -436.420069 
L 849.261763 -431.62613 
L 850.427605 -426.832192 
L 851.3324 -422.038253 
L 851.915557 -417.244315 
L 852.1275 -412.450376 
L 851.934916 -407.656438 
L 851.324464 -402.862499 
L 850.30436 -398.068561 
L 848.903607 -393.274622 
L 847.169017 -388.480684 
L 845.160507 -383.686746 
L 842.945392 -378.892807 
L 840.592516 -374.098869 
L 838.166977 -369.30493 
L 835.726075 -364.510992 
L 833.316824 -359.717053 
L 830.975083 -354.923115 
L 828.726118 -350.129176 
L 826.586205 -345.335238 
L 824.564803 -340.541299 
L 822.666831 -335.747361 
L 820.894678 -330.953422 
L 819.249711 -326.159484 
L 817.733198 -321.365545 
L 816.346676 -316.571607 
L 815.091872 -311.777668 
L 813.970325 -306.98373 
L 812.982824 -302.189791 
L 812.12879 -297.395853 
L 811.405671 -292.601914 
L 810.808418 -287.807976 
L 810.32912 -283.014037 
L 809.956864 -278.220099 
L 809.677887 -273.42616 
L 809.476064 -268.632222 
L 809.333726 -263.838283 
L 809.23276 -259.044345 
L 809.155858 -254.250406 
L 809.087761 -249.456468 
L 809.016303 -244.662529 
L 808.933121 -239.868591 
L 808.833894 -235.074652 
L 808.718125 -230.280714 
L 808.588482 -225.486776 
L 808.449863 -220.692837 
L 808.308322 -215.898899 
L 808.170044 -211.10496 
L 808.040498 -206.311022 
L 807.923864 -201.517083 
L 807.822763 -196.723145 
L 807.738255 -191.929206 
L 807.670051 -187.135268 
z
" style="stroke: #3d3d3d; stroke-opacity: 0.5"/>
    </defs>
    <g clip-path="url(#p255ed876ba)">
     <use xlink:href="#m5b5c6248f6" x="0" y="707.825675" style="fill: #3a923a; fill-opacity: 0.5; stroke: #3d3d3d; stroke-opacity: 0.5"/>
    </g>
   </g>
   <g id="line2d_9">
    <path d="M 137.8875 424.13546 
L 137.8875 97.074391 
" clip-path="url(#p255ed876ba)" style="fill: none; stroke: #3d3d3d; stroke-width: 1.5; stroke-linecap: round"/>
   </g>
   <g id="line2d_10">
    <path d="M 137.8875 310.058888 
L 137.8875 216.874691 
" clip-path="url(#p255ed876ba)" style="fill: none; stroke: #3d3d3d; stroke-width: 4.5; stroke-linecap: round"/>
   </g>
   <g id="line2d_11">
    <path d="M 137.8875 274.855326 
" clip-path="url(#p255ed876ba)" style="fill: none; stroke: #3d3d3d; stroke-width: 1.5; stroke-linecap: round"/>
    <defs>
     <path id="me610b1af4a" d="M 1.875 0 
L -1.875 -0 
" style="stroke: #ffffff; stroke-width: 0.9"/>
    </defs>
    <g clip-path="url(#p255ed876ba)">
     <use xlink:href="#me610b1af4a" x="137.8875" y="274.855326" style="fill: #ffffff; stroke: #ffffff; stroke-width: 0.9"/>
    </g>
   </g>
   <g id="line2d_12">
    <path d="M 249.4875 477.425708 
L 249.4875 136.33583 
" clip-path="url(#p255ed876ba)" style="fill: none; stroke: #3d3d3d; stroke-width: 1.5; stroke-linecap: round"/>
   </g>
   <g id="line2d_13">
    <path d="M 249.4875 355.82594 
L 249.4875 265.204432 
" clip-path="url(#p255ed876ba)" style="fill: none; stroke: #3d3d3d; stroke-width: 4.5; stroke-linecap: round"/>
   </g>
   <g id="line2d_14">
    <path d="M 249.4875 310.917245 
" clip-path="url(#p255ed876ba)" style="fill: none; stroke: #3d3d3d; stroke-width: 1.5; stroke-linecap: round"/>
    <g clip-path="url(#p255ed876ba)">
     <use xlink:href="#me610b1af4a" x="249.4875" y="310.917245" style="fill: #ffffff; stroke: #ffffff; stroke-width: 0.9"/>
    </g>
   </g>
   <g id="line2d_15">
    <path d="M 361.0875 419.600359 
L 361.0875 97.08278 
" clip-path="url(#p255ed876ba)" style="fill: none; stroke: #3d3d3d; stroke-width: 1.5; stroke-linecap: round"/>
   </g>
   <g id="line2d_16">
    <path d="M 361.0875 307.959238 
L 361.0875 223.259523 
" clip-path="url(#p255ed876ba)" style="fill: none; stroke: #3d3d3d; stroke-width: 4.5; stroke-linecap: round"/>
   </g>
   <g id="line2d_17">
    <path d="M 361.0875 264.015692 
" clip-path="url(#p255ed876ba)" style="fill: none; stroke: #3d3d3d; stroke-width: 1.5; stroke-linecap: round"/>
    <g clip-path="url(#p255ed876ba)">
     <use xlink:href="#me610b1af4a" x="361.0875" y="264.015692" style="fill: #ffffff; stroke: #ffffff; stroke-width: 0.9"/>
    </g>
   </g>
   <g id="line2d_18">
    <path d="M 472.6875 391.796712 
L 472.6875 111.844135 
" clip-path="url(#p255ed876ba)" style="fill: none; stroke: #3d3d3d; stroke-width: 1.5; stroke-linecap: round"/>
   </g>
   <g id="line2d_19">
    <path d="M 472.6875 300.005245 
L 472.6875 221.733915 
" clip-path="url(#p255ed876ba)" style="fill: none; stroke: #3d3d3d; stroke-width: 4.5; stroke-linecap: round"/>
   </g>
   <g id="line2d_20">
    <path d="M 472.6875 262.49729 
" clip-path="url(#p255ed876ba)" style="fill: none; stroke: #3d3d3d; stroke-width: 1.5; stroke-linecap: round"/>
    <g clip-path="url(#p255ed876ba)">
     <use xlink:href="#me610b1af4a" x="472.6875" y="262.49729" style="fill: #ffffff; stroke: #ffffff; stroke-width: 0.9"/>
    </g>
   </g>
   <g id="line2d_21">
    <path d="M 584.2875 413.069006 
L 584.2875 107.706688 
" clip-path="url(#p255ed876ba)" style="fill: none; stroke: #3d3d3d; stroke-width: 1.5; stroke-linecap: round"/>
   </g>
   <g id="line2d_22">
    <path d="M 584.2875 312.824367 
L 584.2875 217.213381 
" clip-path="url(#p255ed876ba)" style="fill: none; stroke: #3d3d3d; stroke-width: 4.5; stroke-linecap: round"/>
   </g>
   <g id="line2d_23">
    <path d="M 584.2875 283.490633 
" clip-path="url(#p255ed876ba)" style="fill: none; stroke: #3d3d3d; stroke-width: 1.5; stroke-linecap: round"/>
    <g clip-path="url(#p255ed876ba)">
     <use xlink:href="#me610b1af4a" x="584.2875" y="283.490633" style="fill: #ffffff; stroke: #ffffff; stroke-width: 0.9"/>
    </g>
   </g>
   <g id="line2d_24">
    <path d="M 695.8875 442.946682 
L 695.8875 90.328192 
" clip-path="url(#p255ed876ba)" style="fill: none; stroke: #3d3d3d; stroke-width: 1.5; stroke-linecap: round"/>
   </g>
   <g id="line2d_25">
    <path d="M 695.8875 309.9813 
L 695.8875 215.223662 
" clip-path="url(#p255ed876ba)" style="fill: none; stroke: #3d3d3d; stroke-width: 4.5; stroke-linecap: round"/>
   </g>
   <g id="line2d_26">
    <path d="M 695.8875 274.762641 
" clip-path="url(#p255ed876ba)" style="fill: none; stroke: #3d3d3d; stroke-width: 1.5; stroke-linecap: round"/>
    <g clip-path="url(#p255ed876ba)">
     <use xlink:href="#me610b1af4a" x="695.8875" y="274.762641" style="fill: #ffffff; stroke: #ffffff; stroke-width: 0.9"/>
    </g>
   </g>
   <g id="line2d_27">
    <path d="M 807.4875 400.194285 
L 807.4875 104.120589 
" clip-path="url(#p255ed876ba)" style="fill: none; stroke: #3d3d3d; stroke-width: 1.5; stroke-linecap: round"/>
   </g>
   <g id="line2d_28">
    <path d="M 807.4875 312.723259 
L 807.4875 228.154206 
" clip-path="url(#p255ed876ba)" style="fill: none; stroke: #3d3d3d; stroke-width: 4.5; stroke-linecap: round"/>
   </g>
   <g id="line2d_29">
    <path d="M 807.4875 281.663103 
" clip-path="url(#p255ed876ba)" style="fill: none; stroke: #3d3d3d; stroke-width: 1.5; stroke-linecap: round"/>
    <g clip-path="url(#p255ed876ba)">
     <use xlink:href="#me610b1af4a" x="807.4875" y="281.663103" style="fill: #ffffff; stroke: #ffffff; stroke-width: 0.9"/>
    </g>
   </g>
   <g id="patch_3">
    <path d="M 82.0875 561.6 
L 863.2875 561.6 
" style="fill: none; stroke: #cccccc; stroke-width: 0.8; stroke-linejoin: miter; stroke-linecap: square"/>
   </g>
  </g>
 </g>
 <defs>
  <clipPath id="p255ed876ba">
   <rect x="82.0875" y="7.2" width="781.2" height="554.4"/>
  </clipPath>
 </defs>
</svg>
