<?xml version="1.0" encoding="utf-8" standalone="no"?>
<!DOCTYPE svg PUBLIC "-//W3C//DTD SVG 1.1//EN"
  "http://www.w3.org/Graphics/SVG/1.1/DTD/svg11.dtd">
<svg xmlns:xlink="http://www.w3.org/1999/xlink" width="857.7625pt" height="707.825675pt" viewBox="0 0 857.7625 707.825675" xmlns="http://www.w3.org/2000/svg" version="1.1">
 <metadata>
  <rdf:RDF xmlns:dc="http://purl.org/dc/elements/1.1/" xmlns:cc="http://creativecommons.org/ns#" xmlns:rdf="http://www.w3.org/1999/02/22-rdf-syntax-ns#">
   <cc:Work>
    <dc:type rdf:resource="http://purl.org/dc/dcmitype/StillImage"/>
    <dc:date>2024-10-23T17:23:50.914206</dc:date>
    <dc:format>image/svg+xml</dc:format>
    <dc:creator>
     <cc:Agent>
      <dc:title>Matplotlib v3.8.0, https://matplotlib.org/</dc:title>
     </cc:Agent>
    </dc:creator>
   </cc:Work>
  </rdf:RDF>
 </metadata>
 <defs>
  <style type="text/css">*{stroke-linejoin: round; stroke-linecap: butt}</style>
 </defs>
 <g id="figure_1">
  <g id="patch_1">
   <path d="M 0 707.825675 
L 857.7625 707.825675 
L 857.7625 0 
L 0 0 
L 0 707.825675 
z
" style="fill: none"/>
  </g>
  <g id="axes_1">
   <g id="patch_2">
    <path d="M 69.3625 561.6 
L 850.5625 561.6 
L 850.5625 7.2 
L 69.3625 7.2 
L 69.3625 561.6 
z
" style="fill: none"/>
   </g>
   <g id="matplotlib.axis_1">
    <g id="xtick_1">
     <g id="text_1">
      <!-- MSA -->
      <g style="fill: #262626" transform="translate(104.788986 610.465141) rotate(-45) scale(0.2 -0.2)">
       <defs>
        <path id="DejaVuSans-4d" d="M 628 4666 
L 1569 4666 
L 2759 1491 
L 3956 4666 
L 4897 4666 
L 4897 0 
L 4281 0 
L 4281 4097 
L 3078 897 
L 2444 897 
L 1241 4097 
L 1241 0 
L 628 0 
L 628 4666 
z
" transform="scale(0.015625)"/>
        <path id="DejaVuSans-53" d="M 3425 4513 
L 3425 3897 
Q 3066 4069 2747 4153 
Q 2428 4238 2131 4238 
Q 1616 4238 1336 4038 
Q 1056 3838 1056 3469 
Q 1056 3159 1242 3001 
Q 1428 2844 1947 2747 
L 2328 2669 
Q 3034 2534 3370 2195 
Q 3706 1856 3706 1288 
Q 3706 609 3251 259 
Q 2797 -91 1919 -91 
Q 1588 -91 1214 -16 
Q 841 59 441 206 
L 441 856 
Q 825 641 1194 531 
Q 1563 422 1919 422 
Q 2459 422 2753 634 
Q 3047 847 3047 1241 
Q 3047 1584 2836 1778 
Q 2625 1972 2144 2069 
L 1759 2144 
Q 1053 2284 737 2584 
Q 422 2884 422 3419 
Q 422 4038 858 4394 
Q 1294 4750 2059 4750 
Q 2388 4750 2728 4690 
Q 3069 4631 3425 4513 
z
" transform="scale(0.015625)"/>
        <path id="DejaVuSans-41" d="M 2188 4044 
L 1331 1722 
L 3047 1722 
L 2188 4044 
z
M 1831 4666 
L 2547 4666 
L 4325 0 
L 3669 0 
L 3244 1197 
L 1141 1197 
L 716 0 
L 50 0 
L 1831 4666 
z
" transform="scale(0.015625)"/>
       </defs>
       <use xlink:href="#DejaVuSans-4d"/>
       <use xlink:href="#DejaVuSans-53" x="86.279297"/>
       <use xlink:href="#DejaVuSans-41" x="151.630859"/>
      </g>
     </g>
    </g>
    <g id="xtick_2">
     <g id="text_2">
      <!-- Template -->
      <g style="fill: #262626" transform="translate(182.97819 643.875936) rotate(-45) scale(0.2 -0.2)">
       <defs>
        <path id="DejaVuSans-54" d="M -19 4666 
L 3928 4666 
L 3928 4134 
L 2272 4134 
L 2272 0 
L 1638 0 
L 1638 4134 
L -19 4134 
L -19 4666 
z
" transform="scale(0.015625)"/>
        <path id="DejaVuSans-65" d="M 3597 1894 
L 3597 1613 
L 953 1613 
Q 991 1019 1311 708 
Q 1631 397 2203 397 
Q 2534 397 2845 478 
Q 3156 559 3463 722 
L 3463 178 
Q 3153 47 2828 -22 
Q 2503 -91 2169 -91 
Q 1331 -91 842 396 
Q 353 884 353 1716 
Q 353 2575 817 3079 
Q 1281 3584 2069 3584 
Q 2775 3584 3186 3129 
Q 3597 2675 3597 1894 
z
M 3022 2063 
Q 3016 2534 2758 2815 
Q 2500 3097 2075 3097 
Q 1594 3097 1305 2825 
Q 1016 2553 972 2059 
L 3022 2063 
z
" transform="scale(0.015625)"/>
        <path id="DejaVuSans-6d" d="M 3328 2828 
Q 3544 3216 3844 3400 
Q 4144 3584 4550 3584 
Q 5097 3584 5394 3201 
Q 5691 2819 5691 2113 
L 5691 0 
L 5113 0 
L 5113 2094 
Q 5113 2597 4934 2840 
Q 4756 3084 4391 3084 
Q 3944 3084 3684 2787 
Q 3425 2491 3425 1978 
L 3425 0 
L 2847 0 
L 2847 2094 
Q 2847 2600 2669 2842 
Q 2491 3084 2119 3084 
Q 1678 3084 1418 2786 
Q 1159 2488 1159 1978 
L 1159 0 
L 581 0 
L 581 3500 
L 1159 3500 
L 1159 2956 
Q 1356 3278 1631 3431 
Q 1906 3584 2284 3584 
Q 2666 3584 2933 3390 
Q 3200 3197 3328 2828 
z
" transform="scale(0.015625)"/>
        <path id="DejaVuSans-70" d="M 1159 525 
L 1159 -1331 
L 581 -1331 
L 581 3500 
L 1159 3500 
L 1159 2969 
Q 1341 3281 1617 3432 
Q 1894 3584 2278 3584 
Q 2916 3584 3314 3078 
Q 3713 2572 3713 1747 
Q 3713 922 3314 415 
Q 2916 -91 2278 -91 
Q 1894 -91 1617 61 
Q 1341 213 1159 525 
z
M 3116 1747 
Q 3116 2381 2855 2742 
Q 2594 3103 2138 3103 
Q 1681 3103 1420 2742 
Q 1159 2381 1159 1747 
Q 1159 1113 1420 752 
Q 1681 391 2138 391 
Q 2594 391 2855 752 
Q 3116 1113 3116 1747 
z
" transform="scale(0.015625)"/>
        <path id="DejaVuSans-6c" d="M 603 4863 
L 1178 4863 
L 1178 0 
L 603 0 
L 603 4863 
z
" transform="scale(0.015625)"/>
        <path id="DejaVuSans-61" d="M 2194 1759 
Q 1497 1759 1228 1600 
Q 959 1441 959 1056 
Q 959 750 1161 570 
Q 1363 391 1709 391 
Q 2188 391 2477 730 
Q 2766 1069 2766 1631 
L 2766 1759 
L 2194 1759 
z
M 3341 1997 
L 3341 0 
L 2766 0 
L 2766 531 
Q 2569 213 2275 61 
Q 1981 -91 1556 -91 
Q 1019 -91 701 211 
Q 384 513 384 1019 
Q 384 1609 779 1909 
Q 1175 2209 1959 2209 
L 2766 2209 
L 2766 2266 
Q 2766 2663 2505 2880 
Q 2244 3097 1772 3097 
Q 1472 3097 1187 3025 
Q 903 2953 641 2809 
L 641 3341 
Q 956 3463 1253 3523 
Q 1550 3584 1831 3584 
Q 2591 3584 2966 3190 
Q 3341 2797 3341 1997 
z
" transform="scale(0.015625)"/>
        <path id="DejaVuSans-74" d="M 1172 4494 
L 1172 3500 
L 2356 3500 
L 2356 3053 
L 1172 3053 
L 1172 1153 
Q 1172 725 1289 603 
Q 1406 481 1766 481 
L 2356 481 
L 2356 0 
L 1766 0 
Q 1100 0 847 248 
Q 594 497 594 1153 
L 594 3053 
L 172 3053 
L 172 3500 
L 594 3500 
L 594 4494 
L 1172 4494 
z
" transform="scale(0.015625)"/>
       </defs>
       <use xlink:href="#DejaVuSans-54"/>
       <use xlink:href="#DejaVuSans-65" x="44.083984"/>
       <use xlink:href="#DejaVuSans-6d" x="105.607422"/>
       <use xlink:href="#DejaVuSans-70" x="203.019531"/>
       <use xlink:href="#DejaVuSans-6c" x="266.496094"/>
       <use xlink:href="#DejaVuSans-61" x="294.279297"/>
       <use xlink:href="#DejaVuSans-74" x="355.558594"/>
       <use xlink:href="#DejaVuSans-65" x="394.767578"/>
      </g>
     </g>
    </g>
    <g id="xtick_3">
     <g id="text_3">
      <!-- Backbone -->
      <g style="fill: #262626" transform="translate(289.478183 648.975944) rotate(-45) scale(0.2 -0.2)">
       <defs>
        <path id="DejaVuSans-42" d="M 1259 2228 
L 1259 519 
L 2272 519 
Q 2781 519 3026 730 
Q 3272 941 3272 1375 
Q 3272 1813 3026 2020 
Q 2781 2228 2272 2228 
L 1259 2228 
z
M 1259 4147 
L 1259 2741 
L 2194 2741 
Q 2656 2741 2882 2914 
Q 3109 3088 3109 3444 
Q 3109 3797 2882 3972 
Q 2656 4147 2194 4147 
L 1259 4147 
z
M 628 4666 
L 2241 4666 
Q 2963 4666 3353 4366 
Q 3744 4066 3744 3513 
Q 3744 3084 3544 2831 
Q 3344 2578 2956 2516 
Q 3422 2416 3680 2098 
Q 3938 1781 3938 1306 
Q 3938 681 3513 340 
Q 3088 0 2303 0 
L 628 0 
L 628 4666 
z
" transform="scale(0.015625)"/>
        <path id="DejaVuSans-63" d="M 3122 3366 
L 3122 2828 
Q 2878 2963 2633 3030 
Q 2388 3097 2138 3097 
Q 1578 3097 1268 2742 
Q 959 2388 959 1747 
Q 959 1106 1268 751 
Q 1578 397 2138 397 
Q 2388 397 2633 464 
Q 2878 531 3122 666 
L 3122 134 
Q 2881 22 2623 -34 
Q 2366 -91 2075 -91 
Q 1284 -91 818 406 
Q 353 903 353 1747 
Q 353 2603 823 3093 
Q 1294 3584 2113 3584 
Q 2378 3584 2631 3529 
Q 2884 3475 3122 3366 
z
" transform="scale(0.015625)"/>
        <path id="DejaVuSans-6b" d="M 581 4863 
L 1159 4863 
L 1159 1991 
L 2875 3500 
L 3609 3500 
L 1753 1863 
L 3688 0 
L 2938 0 
L 1159 1709 
L 1159 0 
L 581 0 
L 581 4863 
z
" transform="scale(0.015625)"/>
        <path id="DejaVuSans-62" d="M 3116 1747 
Q 3116 2381 2855 2742 
Q 2594 3103 2138 3103 
Q 1681 3103 1420 2742 
Q 1159 2381 1159 1747 
Q 1159 1113 1420 752 
Q 1681 391 2138 391 
Q 2594 391 2855 752 
Q 3116 1113 3116 1747 
z
M 1159 2969 
Q 1341 3281 1617 3432 
Q 1894 3584 2278 3584 
Q 2916 3584 3314 3078 
Q 3713 2572 3713 1747 
Q 3713 922 3314 415 
Q 2916 -91 2278 -91 
Q 1894 -91 1617 61 
Q 1341 213 1159 525 
L 1159 0 
L 581 0 
L 581 4863 
L 1159 4863 
L 1159 2969 
z
" transform="scale(0.015625)"/>
        <path id="DejaVuSans-6f" d="M 1959 3097 
Q 1497 3097 1228 2736 
Q 959 2375 959 1747 
Q 959 1119 1226 758 
Q 1494 397 1959 397 
Q 2419 397 2687 759 
Q 2956 1122 2956 1747 
Q 2956 2369 2687 2733 
Q 2419 3097 1959 3097 
z
M 1959 3584 
Q 2709 3584 3137 3096 
Q 3566 2609 3566 1747 
Q 3566 888 3137 398 
Q 2709 -91 1959 -91 
Q 1206 -91 779 398 
Q 353 888 353 1747 
Q 353 2609 779 3096 
Q 1206 3584 1959 3584 
z
" transform="scale(0.015625)"/>
        <path id="DejaVuSans-6e" d="M 3513 2113 
L 3513 0 
L 2938 0 
L 2938 2094 
Q 2938 2591 2744 2837 
Q 2550 3084 2163 3084 
Q 1697 3084 1428 2787 
Q 1159 2491 1159 1978 
L 1159 0 
L 581 0 
L 581 3500 
L 1159 3500 
L 1159 2956 
Q 1366 3272 1645 3428 
Q 1925 3584 2291 3584 
Q 2894 3584 3203 3211 
Q 3513 2838 3513 2113 
z
" transform="scale(0.015625)"/>
       </defs>
       <use xlink:href="#DejaVuSans-42"/>
       <use xlink:href="#DejaVuSans-61" x="68.603516"/>
       <use xlink:href="#DejaVuSans-63" x="129.882812"/>
       <use xlink:href="#DejaVuSans-6b" x="184.863281"/>
       <use xlink:href="#DejaVuSans-62" x="242.773438"/>
       <use xlink:href="#DejaVuSans-6f" x="306.25"/>
       <use xlink:href="#DejaVuSans-6e" x="367.431641"/>
       <use xlink:href="#DejaVuSans-65" x="430.810547"/>
      </g>
     </g>
    </g>
    <g id="xtick_4">
     <g id="text_4">
      <!-- Heuristic C-$\beta$ -->
      <g style="fill: #262626" transform="translate(379.63517 670.706219) rotate(-45) scale(0.2 -0.2)">
       <defs>
        <path id="DejaVuSans-48" d="M 628 4666 
L 1259 4666 
L 1259 2753 
L 3553 2753 
L 3553 4666 
L 4184 4666 
L 4184 0 
L 3553 0 
L 3553 2222 
L 1259 2222 
L 1259 0 
L 628 0 
L 628 4666 
z
" transform="scale(0.015625)"/>
        <path id="DejaVuSans-75" d="M 544 1381 
L 544 3500 
L 1119 3500 
L 1119 1403 
Q 1119 906 1312 657 
Q 1506 409 1894 409 
Q 2359 409 2629 706 
Q 2900 1003 2900 1516 
L 2900 3500 
L 3475 3500 
L 3475 0 
L 2900 0 
L 2900 538 
Q 2691 219 2414 64 
Q 2138 -91 1772 -91 
Q 1169 -91 856 284 
Q 544 659 544 1381 
z
M 1991 3584 
L 1991 3584 
z
" transform="scale(0.015625)"/>
        <path id="DejaVuSans-72" d="M 2631 2963 
Q 2534 3019 2420 3045 
Q 2306 3072 2169 3072 
Q 1681 3072 1420 2755 
Q 1159 2438 1159 1844 
L 1159 0 
L 581 0 
L 581 3500 
L 1159 3500 
L 1159 2956 
Q 1341 3275 1631 3429 
Q 1922 3584 2338 3584 
Q 2397 3584 2469 3576 
Q 2541 3569 2628 3553 
L 2631 2963 
z
" transform="scale(0.015625)"/>
        <path id="DejaVuSans-69" d="M 603 3500 
L 1178 3500 
L 1178 0 
L 603 0 
L 603 3500 
z
M 603 4863 
L 1178 4863 
L 1178 4134 
L 603 4134 
L 603 4863 
z
" transform="scale(0.015625)"/>
        <path id="DejaVuSans-73" d="M 2834 3397 
L 2834 2853 
Q 2591 2978 2328 3040 
Q 2066 3103 1784 3103 
Q 1356 3103 1142 2972 
Q 928 2841 928 2578 
Q 928 2378 1081 2264 
Q 1234 2150 1697 2047 
L 1894 2003 
Q 2506 1872 2764 1633 
Q 3022 1394 3022 966 
Q 3022 478 2636 193 
Q 2250 -91 1575 -91 
Q 1294 -91 989 -36 
Q 684 19 347 128 
L 347 722 
Q 666 556 975 473 
Q 1284 391 1588 391 
Q 1994 391 2212 530 
Q 2431 669 2431 922 
Q 2431 1156 2273 1281 
Q 2116 1406 1581 1522 
L 1381 1569 
Q 847 1681 609 1914 
Q 372 2147 372 2553 
Q 372 3047 722 3315 
Q 1072 3584 1716 3584 
Q 2034 3584 2315 3537 
Q 2597 3491 2834 3397 
z
" transform="scale(0.015625)"/>
        <path id="DejaVuSans-20" transform="scale(0.015625)"/>
        <path id="DejaVuSans-43" d="M 4122 4306 
L 4122 3641 
Q 3803 3938 3442 4084 
Q 3081 4231 2675 4231 
Q 1875 4231 1450 3742 
Q 1025 3253 1025 2328 
Q 1025 1406 1450 917 
Q 1875 428 2675 428 
Q 3081 428 3442 575 
Q 3803 722 4122 1019 
L 4122 359 
Q 3791 134 3420 21 
Q 3050 -91 2638 -91 
Q 1578 -91 968 557 
Q 359 1206 359 2328 
Q 359 3453 968 4101 
Q 1578 4750 2638 4750 
Q 3056 4750 3426 4639 
Q 3797 4528 4122 4306 
z
" transform="scale(0.015625)"/>
        <path id="DejaVuSans-2d" d="M 313 2009 
L 1997 2009 
L 1997 1497 
L 313 1497 
L 313 2009 
z
" transform="scale(0.015625)"/>
        <path id="DejaVuSans-Oblique-3b2" d="M 872 216 
L 572 -1331 
L -6 -1331 
L 928 3478 
Q 1206 4903 2538 4903 
Q 3888 4903 3659 3700 
Q 3503 2844 2894 2531 
Q 3713 2250 3553 1416 
Q 3272 -69 1759 -66 
Q 1097 -63 872 216 
z
M 1019 966 
Q 1259 422 1875 425 
Q 2775 425 2966 1406 
Q 3138 2288 1675 2219 
L 1778 2750 
Q 2909 2731 3106 3750 
Q 3241 4438 2509 4434 
Q 1691 4434 1503 3459 
L 1019 966 
z
" transform="scale(0.015625)"/>
       </defs>
       <use xlink:href="#DejaVuSans-48" transform="translate(0 0.390625)"/>
       <use xlink:href="#DejaVuSans-65" transform="translate(75.195312 0.390625)"/>
       <use xlink:href="#DejaVuSans-75" transform="translate(136.71875 0.390625)"/>
       <use xlink:href="#DejaVuSans-72" transform="translate(200.097656 0.390625)"/>
       <use xlink:href="#DejaVuSans-69" transform="translate(241.210938 0.390625)"/>
       <use xlink:href="#DejaVuSans-73" transform="translate(268.994141 0.390625)"/>
       <use xlink:href="#DejaVuSans-74" transform="translate(321.09375 0.390625)"/>
       <use xlink:href="#DejaVuSans-69" transform="translate(360.302734 0.390625)"/>
       <use xlink:href="#DejaVuSans-63" transform="translate(388.085938 0.390625)"/>
       <use xlink:href="#DejaVuSans-20" transform="translate(443.066406 0.390625)"/>
       <use xlink:href="#DejaVuSans-43" transform="translate(474.853516 0.390625)"/>
       <use xlink:href="#DejaVuSans-2d" transform="translate(544.677734 0.390625)"/>
       <use xlink:href="#DejaVuSans-Oblique-3b2" transform="translate(580.761719 0.390625)"/>
      </g>
     </g>
    </g>
    <g id="xtick_5">
     <g id="text_5">
      <!-- Template C-$\beta$ -->
      <g style="fill: #262626" transform="translate(486.992529 674.94886) rotate(-45) scale(0.2 -0.2)">
       <use xlink:href="#DejaVuSans-54" transform="translate(0 0.390625)"/>
       <use xlink:href="#DejaVuSans-65" transform="translate(61.083984 0.390625)"/>
       <use xlink:href="#DejaVuSans-6d" transform="translate(122.607422 0.390625)"/>
       <use xlink:href="#DejaVuSans-70" transform="translate(220.019531 0.390625)"/>
       <use xlink:href="#DejaVuSans-6c" transform="translate(283.496094 0.390625)"/>
       <use xlink:href="#DejaVuSans-61" transform="translate(311.279297 0.390625)"/>
       <use xlink:href="#DejaVuSans-74" transform="translate(372.558594 0.390625)"/>
       <use xlink:href="#DejaVuSans-65" transform="translate(411.767578 0.390625)"/>
       <use xlink:href="#DejaVuSans-20" transform="translate(473.291016 0.390625)"/>
       <use xlink:href="#DejaVuSans-43" transform="translate(505.078125 0.390625)"/>
       <use xlink:href="#DejaVuSans-2d" transform="translate(574.902344 0.390625)"/>
       <use xlink:href="#DejaVuSans-Oblique-3b2" transform="translate(610.986328 0.390625)"/>
      </g>
     </g>
    </g>
    <g id="xtick_6">
     <g id="text_6">
      <!-- AttnPacker -->
      <g style="fill: #262626" transform="translate(617.905383 655.348744) rotate(-45) scale(0.2 -0.2)">
       <defs>
        <path id="DejaVuSans-50" d="M 1259 4147 
L 1259 2394 
L 2053 2394 
Q 2494 2394 2734 2622 
Q 2975 2850 2975 3272 
Q 2975 3691 2734 3919 
Q 2494 4147 2053 4147 
L 1259 4147 
z
M 628 4666 
L 2053 4666 
Q 2838 4666 3239 4311 
Q 3641 3956 3641 3272 
Q 3641 2581 3239 2228 
Q 2838 1875 2053 1875 
L 1259 1875 
L 1259 0 
L 628 0 
L 628 4666 
z
" transform="scale(0.015625)"/>
       </defs>
       <use xlink:href="#DejaVuSans-41"/>
       <use xlink:href="#DejaVuSans-74" x="66.658203"/>
       <use xlink:href="#DejaVuSans-74" x="105.867188"/>
       <use xlink:href="#DejaVuSans-6e" x="145.076172"/>
       <use xlink:href="#DejaVuSans-50" x="208.455078"/>
       <use xlink:href="#DejaVuSans-61" x="264.257812"/>
       <use xlink:href="#DejaVuSans-63" x="325.537109"/>
       <use xlink:href="#DejaVuSans-6b" x="380.517578"/>
       <use xlink:href="#DejaVuSans-65" x="434.802734"/>
       <use xlink:href="#DejaVuSans-72" x="496.326172"/>
      </g>
     </g>
    </g>
    <g id="xtick_7">
     <g id="text_7">
      <!-- AttnPacker (AF2) -->
      <g style="fill: #262626" transform="translate(687.169574 697.684553) rotate(-45) scale(0.2 -0.2)">
       <defs>
        <path id="DejaVuSans-28" d="M 1984 4856 
Q 1566 4138 1362 3434 
Q 1159 2731 1159 2009 
Q 1159 1288 1364 580 
Q 1569 -128 1984 -844 
L 1484 -844 
Q 1016 -109 783 600 
Q 550 1309 550 2009 
Q 550 2706 781 3412 
Q 1013 4119 1484 4856 
L 1984 4856 
z
" transform="scale(0.015625)"/>
        <path id="DejaVuSans-46" d="M 628 4666 
L 3309 4666 
L 3309 4134 
L 1259 4134 
L 1259 2759 
L 3109 2759 
L 3109 2228 
L 1259 2228 
L 1259 0 
L 628 0 
L 628 4666 
z
" transform="scale(0.015625)"/>
        <path id="DejaVuSans-32" d="M 1228 531 
L 3431 531 
L 3431 0 
L 469 0 
L 469 531 
Q 828 903 1448 1529 
Q 2069 2156 2228 2338 
Q 2531 2678 2651 2914 
Q 2772 3150 2772 3378 
Q 2772 3750 2511 3984 
Q 2250 4219 1831 4219 
Q 1534 4219 1204 4116 
Q 875 4013 500 3803 
L 500 4441 
Q 881 4594 1212 4672 
Q 1544 4750 1819 4750 
Q 2544 4750 2975 4387 
Q 3406 4025 3406 3419 
Q 3406 3131 3298 2873 
Q 3191 2616 2906 2266 
Q 2828 2175 2409 1742 
Q 1991 1309 1228 531 
z
" transform="scale(0.015625)"/>
        <path id="DejaVuSans-29" d="M 513 4856 
L 1013 4856 
Q 1481 4119 1714 3412 
Q 1947 2706 1947 2009 
Q 1947 1309 1714 600 
Q 1481 -109 1013 -844 
L 513 -844 
Q 928 -128 1133 580 
Q 1338 1288 1338 2009 
Q 1338 2731 1133 3434 
Q 928 4138 513 4856 
z
" transform="scale(0.015625)"/>
       </defs>
       <use xlink:href="#DejaVuSans-41"/>
       <use xlink:href="#DejaVuSans-74" x="66.658203"/>
       <use xlink:href="#DejaVuSans-74" x="105.867188"/>
       <use xlink:href="#DejaVuSans-6e" x="145.076172"/>
       <use xlink:href="#DejaVuSans-50" x="208.455078"/>
       <use xlink:href="#DejaVuSans-61" x="264.257812"/>
       <use xlink:href="#DejaVuSans-63" x="325.537109"/>
       <use xlink:href="#DejaVuSans-6b" x="380.517578"/>
       <use xlink:href="#DejaVuSans-65" x="434.802734"/>
       <use xlink:href="#DejaVuSans-72" x="496.326172"/>
       <use xlink:href="#DejaVuSans-20" x="537.439453"/>
       <use xlink:href="#DejaVuSans-28" x="569.226562"/>
       <use xlink:href="#DejaVuSans-41" x="608.240234"/>
       <use xlink:href="#DejaVuSans-46" x="676.648438"/>
       <use xlink:href="#DejaVuSans-32" x="734.167969"/>
       <use xlink:href="#DejaVuSans-29" x="797.791016"/>
      </g>
     </g>
    </g>
   </g>
   <g id="matplotlib.axis_2">
    <g id="ytick_1">
     <g id="line2d_1">
      <path d="M 69.3625 526.947803 
L 850.5625 526.947803 
" clip-path="url(#p2ca9ca9993)" style="fill: none; stroke: #cccccc; stroke-width: 0.8; stroke-linecap: round"/>
     </g>
     <g id="text_8">
      <!-- 0.0 -->
      <g style="fill: #262626" transform="translate(30.55625 534.54624) scale(0.2 -0.2)">
       <defs>
        <path id="DejaVuSans-30" d="M 2034 4250 
Q 1547 4250 1301 3770 
Q 1056 3291 1056 2328 
Q 1056 1369 1301 889 
Q 1547 409 2034 409 
Q 2525 409 2770 889 
Q 3016 1369 3016 2328 
Q 3016 3291 2770 3770 
Q 2525 4250 2034 4250 
z
M 2034 4750 
Q 2819 4750 3233 4129 
Q 3647 3509 3647 2328 
Q 3647 1150 3233 529 
Q 2819 -91 2034 -91 
Q 1250 -91 836 529 
Q 422 1150 422 2328 
Q 422 3509 836 4129 
Q 1250 4750 2034 4750 
z
" transform="scale(0.015625)"/>
        <path id="DejaVuSans-2e" d="M 684 794 
L 1344 794 
L 1344 0 
L 684 0 
L 684 794 
z
" transform="scale(0.015625)"/>
       </defs>
       <use xlink:href="#DejaVuSans-30"/>
       <use xlink:href="#DejaVuSans-2e" x="63.623047"/>
       <use xlink:href="#DejaVuSans-30" x="95.410156"/>
      </g>
     </g>
    </g>
    <g id="ytick_2">
     <g id="line2d_2">
      <path d="M 69.3625 433.691602 
L 850.5625 433.691602 
" clip-path="url(#p2ca9ca9993)" style="fill: none; stroke: #cccccc; stroke-width: 0.8; stroke-linecap: round"/>
     </g>
     <g id="text_9">
      <!-- 0.2 -->
      <g style="fill: #262626" transform="translate(30.55625 441.290039) scale(0.2 -0.2)">
       <use xlink:href="#DejaVuSans-30"/>
       <use xlink:href="#DejaVuSans-2e" x="63.623047"/>
       <use xlink:href="#DejaVuSans-32" x="95.410156"/>
      </g>
     </g>
    </g>
    <g id="ytick_3">
     <g id="line2d_3">
      <path d="M 69.3625 340.435401 
L 850.5625 340.435401 
" clip-path="url(#p2ca9ca9993)" style="fill: none; stroke: #cccccc; stroke-width: 0.8; stroke-linecap: round"/>
     </g>
     <g id="text_10">
      <!-- 0.4 -->
      <g style="fill: #262626" transform="translate(30.55625 348.033838) scale(0.2 -0.2)">
       <defs>
        <path id="DejaVuSans-34" d="M 2419 4116 
L 825 1625 
L 2419 1625 
L 2419 4116 
z
M 2253 4666 
L 3047 4666 
L 3047 1625 
L 3713 1625 
L 3713 1100 
L 3047 1100 
L 3047 0 
L 2419 0 
L 2419 1100 
L 313 1100 
L 313 1709 
L 2253 4666 
z
" transform="scale(0.015625)"/>
       </defs>
       <use xlink:href="#DejaVuSans-30"/>
       <use xlink:href="#DejaVuSans-2e" x="63.623047"/>
       <use xlink:href="#DejaVuSans-34" x="95.410156"/>
      </g>
     </g>
    </g>
    <g id="ytick_4">
     <g id="line2d_4">
      <path d="M 69.3625 247.1792 
L 850.5625 247.1792 
" clip-path="url(#p2ca9ca9993)" style="fill: none; stroke: #cccccc; stroke-width: 0.8; stroke-linecap: round"/>
     </g>
     <g id="text_11">
      <!-- 0.6 -->
      <g style="fill: #262626" transform="translate(30.55625 254.777638) scale(0.2 -0.2)">
       <defs>
        <path id="DejaVuSans-36" d="M 2113 2584 
Q 1688 2584 1439 2293 
Q 1191 2003 1191 1497 
Q 1191 994 1439 701 
Q 1688 409 2113 409 
Q 2538 409 2786 701 
Q 3034 994 3034 1497 
Q 3034 2003 2786 2293 
Q 2538 2584 2113 2584 
z
M 3366 4563 
L 3366 3988 
Q 3128 4100 2886 4159 
Q 2644 4219 2406 4219 
Q 1781 4219 1451 3797 
Q 1122 3375 1075 2522 
Q 1259 2794 1537 2939 
Q 1816 3084 2150 3084 
Q 2853 3084 3261 2657 
Q 3669 2231 3669 1497 
Q 3669 778 3244 343 
Q 2819 -91 2113 -91 
Q 1303 -91 875 529 
Q 447 1150 447 2328 
Q 447 3434 972 4092 
Q 1497 4750 2381 4750 
Q 2619 4750 2861 4703 
Q 3103 4656 3366 4563 
z
" transform="scale(0.015625)"/>
       </defs>
       <use xlink:href="#DejaVuSans-30"/>
       <use xlink:href="#DejaVuSans-2e" x="63.623047"/>
       <use xlink:href="#DejaVuSans-36" x="95.410156"/>
      </g>
     </g>
    </g>
    <g id="ytick_5">
     <g id="line2d_5">
      <path d="M 69.3625 153.922999 
L 850.5625 153.922999 
" clip-path="url(#p2ca9ca9993)" style="fill: none; stroke: #cccccc; stroke-width: 0.8; stroke-linecap: round"/>
     </g>
     <g id="text_12">
      <!-- 0.8 -->
      <g style="fill: #262626" transform="translate(30.55625 161.521437) scale(0.2 -0.2)">
       <defs>
        <path id="DejaVuSans-38" d="M 2034 2216 
Q 1584 2216 1326 1975 
Q 1069 1734 1069 1313 
Q 1069 891 1326 650 
Q 1584 409 2034 409 
Q 2484 409 2743 651 
Q 3003 894 3003 1313 
Q 3003 1734 2745 1975 
Q 2488 2216 2034 2216 
z
M 1403 2484 
Q 997 2584 770 2862 
Q 544 3141 544 3541 
Q 544 4100 942 4425 
Q 1341 4750 2034 4750 
Q 2731 4750 3128 4425 
Q 3525 4100 3525 3541 
Q 3525 3141 3298 2862 
Q 3072 2584 2669 2484 
Q 3125 2378 3379 2068 
Q 3634 1759 3634 1313 
Q 3634 634 3220 271 
Q 2806 -91 2034 -91 
Q 1263 -91 848 271 
Q 434 634 434 1313 
Q 434 1759 690 2068 
Q 947 2378 1403 2484 
z
M 1172 3481 
Q 1172 3119 1398 2916 
Q 1625 2713 2034 2713 
Q 2441 2713 2670 2916 
Q 2900 3119 2900 3481 
Q 2900 3844 2670 4047 
Q 2441 4250 2034 4250 
Q 1625 4250 1398 4047 
Q 1172 3844 1172 3481 
z
" transform="scale(0.015625)"/>
       </defs>
       <use xlink:href="#DejaVuSans-30"/>
       <use xlink:href="#DejaVuSans-2e" x="63.623047"/>
       <use xlink:href="#DejaVuSans-38" x="95.410156"/>
      </g>
     </g>
    </g>
    <g id="ytick_6">
     <g id="line2d_6">
      <path d="M 69.3625 60.666798 
L 850.5625 60.666798 
" clip-path="url(#p2ca9ca9993)" style="fill: none; stroke: #cccccc; stroke-width: 0.8; stroke-linecap: round"/>
     </g>
     <g id="text_13">
      <!-- 1.0 -->
      <g style="fill: #262626" transform="translate(30.55625 68.265236) scale(0.2 -0.2)">
       <defs>
        <path id="DejaVuSans-31" d="M 794 531 
L 1825 531 
L 1825 4091 
L 703 3866 
L 703 4441 
L 1819 4666 
L 2450 4666 
L 2450 531 
L 3481 531 
L 3481 0 
L 794 0 
L 794 531 
z
" transform="scale(0.015625)"/>
       </defs>
       <use xlink:href="#DejaVuSans-31"/>
       <use xlink:href="#DejaVuSans-2e" x="63.623047"/>
       <use xlink:href="#DejaVuSans-30" x="95.410156"/>
      </g>
     </g>
    </g>
    <g id="text_14">
     <!-- lDDT -->
     <g style="fill: #262626" transform="translate(22.396875 308.685938) rotate(-90) scale(0.2 -0.2)">
      <defs>
       <path id="DejaVuSans-44" d="M 1259 4147 
L 1259 519 
L 2022 519 
Q 2988 519 3436 956 
Q 3884 1394 3884 2338 
Q 3884 3275 3436 3711 
Q 2988 4147 2022 4147 
L 1259 4147 
z
M 628 4666 
L 1925 4666 
Q 3281 4666 3915 4102 
Q 4550 3538 4550 2338 
Q 4550 1131 3912 565 
Q 3275 0 1925 0 
L 628 0 
L 628 4666 
z
" transform="scale(0.015625)"/>
      </defs>
      <use xlink:href="#DejaVuSans-6c"/>
      <use xlink:href="#DejaVuSans-44" x="27.783203"/>
      <use xlink:href="#DejaVuSans-44" x="104.785156"/>
      <use xlink:href="#DejaVuSans-54" x="181.787109"/>
     </g>
    </g>
   </g>
   <g id="PolyCollection_1">
    <defs>
     <path id="m6252cf5718" d="M 125.348305 -219.177408 
L 124.976695 -219.177408 
L 124.909136 -223.785977 
L 124.824497 -228.394545 
L 124.721242 -233.003113 
L 124.598627 -237.611682 
L 124.456974 -242.22025 
L 124.297875 -246.828818 
L 124.124314 -251.437387 
L 123.940655 -256.045955 
L 123.752479 -260.654523 
L 123.566275 -265.263092 
L 123.388987 -269.87166 
L 123.227466 -274.480228 
L 123.087849 -279.088797 
L 122.974945 -283.697365 
L 122.891672 -288.305933 
L 122.838596 -292.914502 
L 122.813642 -297.52307 
L 122.81201 -302.131638 
L 122.826332 -306.740207 
L 122.847094 -311.348775 
L 122.863307 -315.957344 
L 122.863415 -320.565912 
L 122.836356 -325.17448 
L 122.772689 -329.783049 
L 122.665679 -334.391617 
L 122.512192 -339.000185 
L 122.313286 -343.608754 
L 122.074398 -348.217322 
L 121.805073 -352.82589 
L 121.518241 -357.434459 
L 121.229094 -362.043027 
L 120.953689 -366.651595 
L 120.707414 -371.260164 
L 120.503508 -375.868732 
L 120.351776 -380.4773 
L 120.257644 -385.085869 
L 120.221646 -389.694437 
L 120.239362 -394.303006 
L 120.30178 -398.911574 
L 120.396005 -403.520142 
L 120.506162 -408.128711 
L 120.614352 -412.737279 
L 120.701517 -417.345847 
L 120.748058 -421.954416 
L 120.734181 -426.562984 
L 120.639931 -431.171552 
L 120.445016 -435.780121 
L 120.128574 -440.388689 
L 119.66905 -444.997257 
L 119.044399 -449.605826 
L 118.232774 -454.214394 
L 117.213757 -458.822962 
L 115.970117 -463.431531 
L 114.489935 -468.040099 
L 112.768815 -472.648667 
L 110.811876 -477.257236 
L 108.635156 -481.865804 
L 106.266154 -486.474373 
L 103.74335 -491.082941 
L 101.114687 -495.691509 
L 98.435172 -500.300078 
L 95.763919 -504.908646 
L 93.161004 -509.517214 
L 90.684534 -514.125783 
L 88.388265 -518.734351 
L 86.319959 -523.342919 
L 84.520545 -527.951488 
L 83.023956 -532.560056 
L 81.857463 -537.168624 
L 81.042227 -541.777193 
L 80.593814 -546.385761 
L 80.5225 -550.994329 
L 80.833237 -555.602898 
L 81.525279 -560.211466 
L 82.591526 -564.820034 
L 84.017739 -569.428603 
L 85.78177 -574.037171 
L 87.853013 -578.64574 
L 90.192268 -583.254308 
L 92.752142 -587.862876 
L 95.478126 -592.471445 
L 98.310351 -597.080013 
L 101.185977 -601.688581 
L 104.042039 -606.29715 
L 106.818518 -610.905718 
L 109.461337 -615.514286 
L 111.924961 -620.122855 
L 114.174346 -624.731423 
L 116.186036 -629.339991 
L 117.948334 -633.94856 
L 119.4606 -638.557128 
L 120.7318 -643.165696 
L 121.778555 -647.774265 
L 122.622918 -652.382833 
L 123.290148 -656.991401 
L 123.806672 -661.59997 
L 124.198397 -666.208538 
L 124.489433 -670.817107 
L 124.701263 -675.425675 
L 125.623737 -675.425675 
L 125.623737 -675.425675 
L 125.835567 -670.817107 
L 126.126603 -666.208538 
L 126.518328 -661.59997 
L 127.034852 -656.991401 
L 127.702082 -652.382833 
L 128.546445 -647.774265 
L 129.5932 -643.165696 
L 130.8644 -638.557128 
L 132.376666 -633.94856 
L 134.138964 -629.339991 
L 136.150654 -624.731423 
L 138.400039 -620.122855 
L 140.863663 -615.514286 
L 143.506482 -610.905718 
L 146.282961 -606.29715 
L 149.139023 -601.688581 
L 152.014649 -597.080013 
L 154.846874 -592.471445 
L 157.572858 -587.862876 
L 160.132732 -583.254308 
L 162.471987 -578.64574 
L 164.54323 -574.037171 
L 166.307261 -569.428603 
L 167.733474 -564.820034 
L 168.799721 -560.211466 
L 169.491763 -555.602898 
L 169.8025 -550.994329 
L 169.731186 -546.385761 
L 169.282773 -541.777193 
L 168.467537 -537.168624 
L 167.301044 -532.560056 
L 165.804455 -527.951488 
L 164.005041 -523.342919 
L 161.936735 -518.734351 
L 159.640466 -514.125783 
L 157.163996 -509.517214 
L 154.561081 -504.908646 
L 151.889828 -500.300078 
L 149.210313 -495.691509 
L 146.58165 -491.082941 
L 144.058846 -486.474373 
L 141.689844 -481.865804 
L 139.513124 -477.257236 
L 137.556185 -472.648667 
L 135.835065 -468.040099 
L 134.354883 -463.431531 
L 133.111243 -458.822962 
L 132.092226 -454.214394 
L 131.280601 -449.605826 
L 130.65595 -444.997257 
L 130.196426 -440.388689 
L 129.879984 -435.780121 
L 129.685069 -431.171552 
L 129.590819 -426.562984 
L 129.576942 -421.954416 
L 129.623483 -417.345847 
L 129.710648 -412.737279 
L 129.818838 -408.128711 
L 129.928995 -403.520142 
L 130.02322 -398.911574 
L 130.085638 -394.303006 
L 130.103354 -389.694437 
L 130.067356 -385.085869 
L 129.973224 -380.4773 
L 129.821492 -375.868732 
L 129.617586 -371.260164 
L 129.371311 -366.651595 
L 129.095906 -362.043027 
L 128.806759 -357.434459 
L 128.519927 -352.82589 
L 128.250602 -348.217322 
L 128.011714 -343.608754 
L 127.812808 -339.000185 
L 127.659321 -334.391617 
L 127.552311 -329.783049 
L 127.488644 -325.17448 
L 127.461585 -320.565912 
L 127.461693 -315.957344 
L 127.477906 -311.348775 
L 127.498668 -306.740207 
L 127.51299 -302.131638 
L 127.511358 -297.52307 
L 127.486404 -292.914502 
L 127.433328 -288.305933 
L 127.350055 -283.697365 
L 127.237151 -279.088797 
L 127.097534 -274.480228 
L 126.936013 -269.87166 
L 126.758725 -265.263092 
L 126.572521 -260.654523 
L 126.384345 -256.045955 
L 126.200686 -251.437387 
L 126.027125 -246.828818 
L 125.868026 -242.22025 
L 125.726373 -237.611682 
L 125.603758 -233.003113 
L 125.500503 -228.394545 
L 125.415864 -223.785977 
L 125.348305 -219.177408 
z
" style="stroke: #3d3d3d; stroke-opacity: 0.5"/>
    </defs>
    <g clip-path="url(#p2ca9ca9993)">
     <use xlink:href="#m6252cf5718" x="0" y="707.825675" style="fill: #3274a1; fill-opacity: 0.5; stroke: #3d3d3d; stroke-opacity: 0.5"/>
    </g>
   </g>
   <g id="PolyCollection_2">
    <defs>
     <path id="m7fc70e9fc7" d="M 237.045606 -533.272687 
L 236.479394 -533.272687 
L 236.385933 -534.531835 
L 236.270337 -535.790983 
L 236.13036 -537.050132 
L 235.964453 -538.30928 
L 235.772025 -539.568428 
L 235.553683 -540.827577 
L 235.311386 -542.086725 
L 235.048504 -543.345873 
L 234.76974 -544.605022 
L 234.480915 -545.86417 
L 234.188608 -547.123319 
L 233.899693 -548.382467 
L 233.6208 -549.641615 
L 233.357762 -550.900764 
L 233.115116 -552.159912 
L 232.895693 -553.41906 
L 232.700366 -554.678209 
L 232.527965 -555.937357 
L 232.375359 -557.196505 
L 232.237692 -558.455654 
L 232.108731 -559.714802 
L 231.981276 -560.973951 
L 231.847583 -562.233099 
L 231.699762 -563.492247 
L 231.530125 -564.751396 
L 231.331465 -566.010544 
L 231.097292 -567.269692 
L 230.822018 -568.528841 
L 230.501143 -569.787989 
L 230.131434 -571.047137 
L 229.711126 -572.306286 
L 229.240121 -573.565434 
L 228.720173 -574.824583 
L 228.155013 -576.083731 
L 227.550365 -577.342879 
L 226.913819 -578.602028 
L 226.254501 -579.861176 
L 225.582549 -581.120324 
L 224.908381 -582.379473 
L 224.241806 -583.638621 
L 223.591047 -584.897769 
L 222.961762 -586.156918 
L 222.356198 -587.416066 
L 221.772575 -588.675215 
L 221.204814 -589.934363 
L 220.642688 -591.193511 
L 220.072426 -592.45266 
L 219.47774 -593.711808 
L 218.841197 -594.970956 
L 218.145786 -596.230105 
L 217.376504 -597.489253 
L 216.521757 -598.748401 
L 215.574393 -600.00755 
L 214.532231 -601.266698 
L 213.398008 -602.525847 
L 212.17879 -603.784995 
L 210.884947 -605.044143 
L 209.52889 -606.303292 
L 208.123816 -607.56244 
L 206.682706 -608.821588 
L 205.217767 -610.080737 
L 203.740474 -611.339885 
L 202.262188 -612.599033 
L 200.795301 -613.858182 
L 199.35467 -615.11733 
L 197.9591 -616.376479 
L 196.632561 -617.635627 
L 195.404871 -618.894775 
L 194.311632 -620.153924 
L 193.393299 -621.413072 
L 192.693389 -622.67222 
L 192.255949 -623.931369 
L 192.1225 -625.190517 
L 192.328749 -626.449665 
L 192.901407 -627.708814 
L 193.855423 -628.967962 
L 195.191946 -630.227111 
L 196.897217 -631.486259 
L 198.942532 -632.745407 
L 201.285301 -634.004556 
L 203.871119 -635.263704 
L 206.636682 -636.522852 
L 209.513295 -637.782001 
L 212.430672 -639.041149 
L 215.320696 -640.300297 
L 218.120863 -641.559446 
L 220.777112 -642.818594 
L 223.24589 -644.077743 
L 225.495326 -645.336891 
L 227.50552 -646.596039 
L 229.268012 -647.855188 
L 230.784574 -649.114336 
L 232.065525 -650.373484 
L 233.127758 -651.632633 
L 233.99269 -652.891781 
L 234.68431 -654.15093 
L 235.227455 -655.410078 
L 235.6464 -656.669226 
L 235.963806 -657.928375 
L 237.561194 -657.928375 
L 237.561194 -657.928375 
L 237.8786 -656.669226 
L 238.297545 -655.410078 
L 238.84069 -654.15093 
L 239.53231 -652.891781 
L 240.397242 -651.632633 
L 241.459475 -650.373484 
L 242.740426 -649.114336 
L 244.256988 -647.855188 
L 246.01948 -646.596039 
L 248.029674 -645.336891 
L 250.27911 -644.077743 
L 252.747888 -642.818594 
L 255.404137 -641.559446 
L 258.204304 -640.300297 
L 261.094328 -639.041149 
L 264.011705 -637.782001 
L 266.888318 -636.522852 
L 269.653881 -635.263704 
L 272.239699 -634.004556 
L 274.582468 -632.745407 
L 276.627783 -631.486259 
L 278.333054 -630.227111 
L 279.669577 -628.967962 
L 280.623593 -627.708814 
L 281.196251 -626.449665 
L 281.4025 -625.190517 
L 281.269051 -623.931369 
L 280.831611 -622.67222 
L 280.131701 -621.413072 
L 279.213368 -620.153924 
L 278.120129 -618.894775 
L 276.892439 -617.635627 
L 275.5659 -616.376479 
L 274.17033 -615.11733 
L 272.729699 -613.858182 
L 271.262812 -612.599033 
L 269.784526 -611.339885 
L 268.307233 -610.080737 
L 266.842294 -608.821588 
L 265.401184 -607.56244 
L 263.99611 -606.303292 
L 262.640053 -605.044143 
L 261.34621 -603.784995 
L 260.126992 -602.525847 
L 258.992769 -601.266698 
L 257.950607 -600.00755 
L 257.003243 -598.748401 
L 256.148496 -597.489253 
L 255.379214 -596.230105 
L 254.683803 -594.970956 
L 254.04726 -593.711808 
L 253.452574 -592.45266 
L 252.882312 -591.193511 
L 252.320186 -589.934363 
L 251.752425 -588.675215 
L 251.168802 -587.416066 
L 250.563238 -586.156918 
L 249.933953 -584.897769 
L 249.283194 -583.638621 
L 248.616619 -582.379473 
L 247.942451 -581.120324 
L 247.270499 -579.861176 
L 246.611181 -578.602028 
L 245.974635 -577.342879 
L 245.369987 -576.083731 
L 244.804827 -574.824583 
L 244.284879 -573.565434 
L 243.813874 -572.306286 
L 243.393566 -571.047137 
L 243.023857 -569.787989 
L 242.702982 -568.528841 
L 242.427708 -567.269692 
L 242.193535 -566.010544 
L 241.994875 -564.751396 
L 241.825238 -563.492247 
L 241.677417 -562.233099 
L 241.543724 -560.973951 
L 241.416269 -559.714802 
L 241.287308 -558.455654 
L 241.149641 -557.196505 
L 240.997035 -555.937357 
L 240.824634 -554.678209 
L 240.629307 -553.41906 
L 240.409884 -552.159912 
L 240.167238 -550.900764 
L 239.9042 -549.641615 
L 239.625307 -548.382467 
L 239.336392 -547.123319 
L 239.044085 -545.86417 
L 238.75526 -544.605022 
L 238.476496 -543.345873 
L 238.213614 -542.086725 
L 237.971317 -540.827577 
L 237.752975 -539.568428 
L 237.560547 -538.30928 
L 237.39464 -537.050132 
L 237.254663 -535.790983 
L 237.139067 -534.531835 
L 237.045606 -533.272687 
z
" style="stroke: #3d3d3d; stroke-opacity: 0.5"/>
    </defs>
    <g clip-path="url(#p2ca9ca9993)">
     <use xlink:href="#m7fc70e9fc7" x="0" y="707.825675" style="fill: #d684bd; fill-opacity: 0.5; stroke: #3d3d3d; stroke-opacity: 0.5"/>
    </g>
   </g>
   <g id="PolyCollection_3">
    <defs>
     <path id="md9a80980c0" d="M 348.931944 -171.425675 
L 347.793056 -171.425675 
L 347.576993 -176.337228 
L 347.29458 -181.248782 
L 346.931293 -186.160336 
L 346.471338 -191.071889 
L 345.898127 -195.983443 
L 345.194942 -200.894996 
L 344.345761 -205.80655 
L 343.336239 -210.718103 
L 342.154783 -215.629657 
L 340.793663 -220.541211 
L 339.250057 -225.452764 
L 337.526952 -230.364318 
L 335.633782 -235.275871 
L 333.586712 -240.187425 
L 331.408503 -245.098978 
L 329.127896 -250.010532 
L 326.778539 -254.922085 
L 324.397499 -259.833639 
L 322.023462 -264.745193 
L 319.694791 -269.656746 
L 317.447614 -274.5683 
L 315.314154 -279.479853 
L 313.321483 -284.391407 
L 311.490839 -289.30296 
L 309.837596 -294.214514 
L 308.371868 -299.126068 
L 307.099652 -304.037621 
L 306.024338 -308.949175 
L 305.148332 -313.860728 
L 304.474555 -318.772282 
L 304.007544 -323.683835 
L 303.753975 -328.595389 
L 303.7225 -333.506942 
L 303.922892 -338.418496 
L 304.364601 -343.33005 
L 305.054914 -348.241603 
L 305.996983 -353.153157 
L 307.187988 -358.06471 
L 308.617705 -362.976264 
L 310.267675 -367.887817 
L 312.111097 -372.799371 
L 314.113469 -377.710925 
L 316.233916 -382.622478 
L 318.427054 -387.534032 
L 320.645188 -392.445585 
L 322.840644 -397.357139 
L 324.968007 -402.268692 
L 326.986089 -407.180246 
L 328.859517 -412.091799 
L 330.559841 -417.003353 
L 332.066175 -421.914907 
L 333.365395 -426.82646 
L 334.451953 -431.738014 
L 335.327412 -436.649567 
L 335.999777 -441.561121 
L 336.482706 -446.472674 
L 336.794666 -451.384228 
L 336.958049 -456.295782 
L 336.998288 -461.207335 
L 336.942943 -466.118889 
L 336.820761 -471.030442 
L 336.660685 -475.941996 
L 336.490828 -480.853549 
L 336.337418 -485.765103 
L 336.223767 -490.676656 
L 336.169327 -495.58821 
L 336.188907 -500.499764 
L 336.29214 -505.411317 
L 336.483257 -510.322871 
L 336.761226 -515.234424 
L 337.120247 -520.145978 
L 337.550584 -525.057531 
L 338.039648 -529.969085 
L 338.573223 -534.880639 
L 339.136716 -539.792192 
L 339.716299 -544.703746 
L 340.299826 -549.615299 
L 340.877459 -554.526853 
L 341.441945 -559.438406 
L 341.988578 -564.34996 
L 342.514868 -569.261513 
L 343.020024 -574.173067 
L 343.504325 -579.084621 
L 343.968502 -583.996174 
L 344.413201 -588.907728 
L 344.838602 -593.819281 
L 345.244213 -598.730835 
L 345.628856 -603.642388 
L 345.9908 -608.553942 
L 346.328011 -613.465496 
L 346.638451 -618.377049 
L 346.920375 -623.288603 
L 347.172589 -628.200156 
L 347.394618 -633.11171 
L 347.586788 -638.023263 
L 347.750215 -642.934817 
L 347.88671 -647.84637 
L 347.998631 -652.757924 
L 348.088708 -657.669478 
L 348.636292 -657.669478 
L 348.636292 -657.669478 
L 348.726369 -652.757924 
L 348.83829 -647.84637 
L 348.974785 -642.934817 
L 349.138212 -638.023263 
L 349.330382 -633.11171 
L 349.552411 -628.200156 
L 349.804625 -623.288603 
L 350.086549 -618.377049 
L 350.396989 -613.465496 
L 350.7342 -608.553942 
L 351.096144 -603.642388 
L 351.480787 -598.730835 
L 351.886398 -593.819281 
L 352.311799 -588.907728 
L 352.756498 -583.996174 
L 353.220675 -579.084621 
L 353.704976 -574.173067 
L 354.210132 -569.261513 
L 354.736422 -564.34996 
L 355.283055 -559.438406 
L 355.847541 -554.526853 
L 356.425174 -549.615299 
L 357.008701 -544.703746 
L 357.588284 -539.792192 
L 358.151777 -534.880639 
L 358.685352 -529.969085 
L 359.174416 -525.057531 
L 359.604753 -520.145978 
L 359.963774 -515.234424 
L 360.241743 -510.322871 
L 360.43286 -505.411317 
L 360.536093 -500.499764 
L 360.555673 -495.58821 
L 360.501233 -490.676656 
L 360.387582 -485.765103 
L 360.234172 -480.853549 
L 360.064315 -475.941996 
L 359.904239 -471.030442 
L 359.782057 -466.118889 
L 359.726712 -461.207335 
L 359.766951 -456.295782 
L 359.930334 -451.384228 
L 360.242294 -446.472674 
L 360.725223 -441.561121 
L 361.397588 -436.649567 
L 362.273047 -431.738014 
L 363.359605 -426.82646 
L 364.658825 -421.914907 
L 366.165159 -417.003353 
L 367.865483 -412.091799 
L 369.738911 -407.180246 
L 371.756993 -402.268692 
L 373.884356 -397.357139 
L 376.079812 -392.445585 
L 378.297946 -387.534032 
L 380.491084 -382.622478 
L 382.611531 -377.710925 
L 384.613903 -372.799371 
L 386.457325 -367.887817 
L 388.107295 -362.976264 
L 389.537012 -358.06471 
L 390.728017 -353.153157 
L 391.670086 -348.241603 
L 392.360399 -343.33005 
L 392.802108 -338.418496 
L 393.0025 -333.506942 
L 392.971025 -328.595389 
L 392.717456 -323.683835 
L 392.250445 -318.772282 
L 391.576668 -313.860728 
L 390.700662 -308.949175 
L 389.625348 -304.037621 
L 388.353132 -299.126068 
L 386.887404 -294.214514 
L 385.234161 -289.30296 
L 383.403517 -284.391407 
L 381.410846 -279.479853 
L 379.277386 -274.5683 
L 377.030209 -269.656746 
L 374.701538 -264.745193 
L 372.327501 -259.833639 
L 369.946461 -254.922085 
L 367.597104 -250.010532 
L 365.316497 -245.098978 
L 363.138288 -240.187425 
L 361.091218 -235.275871 
L 359.198048 -230.364318 
L 357.474943 -225.452764 
L 355.931337 -220.541211 
L 354.570217 -215.629657 
L 353.388761 -210.718103 
L 352.379239 -205.80655 
L 351.530058 -200.894996 
L 350.826873 -195.983443 
L 350.253662 -191.071889 
L 349.793707 -186.160336 
L 349.43042 -181.248782 
L 349.148007 -176.337228 
L 348.931944 -171.425675 
z
" style="stroke: #3d3d3d; stroke-opacity: 0.5"/>
    </defs>
    <g clip-path="url(#p2ca9ca9993)">
     <use xlink:href="#md9a80980c0" x="0" y="707.825675" style="fill: #c03d3e; fill-opacity: 0.5; stroke: #3d3d3d; stroke-opacity: 0.5"/>
    </g>
   </g>
   <g id="PolyCollection_4">
    <defs>
     <path id="m27470578ab" d="M 460.187829 -510.781763 
L 459.737171 -510.781763 
L 459.662723 -512.136781 
L 459.571174 -513.491799 
L 459.461042 -514.846817 
L 459.331352 -516.201836 
L 459.181728 -517.556854 
L 459.012394 -518.911872 
L 458.824091 -520.26689 
L 458.617887 -521.621908 
L 458.394912 -522.976926 
L 458.156053 -524.331945 
L 457.901668 -525.686963 
L 457.631386 -527.041981 
L 457.344062 -528.396999 
L 457.037917 -529.752017 
L 456.710891 -531.107036 
L 456.361159 -532.462054 
L 455.987746 -533.817072 
L 455.591126 -535.17209 
L 455.173689 -536.527108 
L 454.739951 -537.882126 
L 454.296433 -539.237145 
L 453.851183 -540.592163 
L 453.412983 -541.947181 
L 452.990335 -543.302199 
L 452.590385 -544.657217 
L 452.217951 -546.012236 
L 451.874808 -547.367254 
L 451.559336 -548.722272 
L 451.266596 -550.07729 
L 450.988774 -551.432308 
L 450.715909 -552.787326 
L 450.436752 -554.142345 
L 450.139588 -555.497363 
L 449.812885 -556.852381 
L 449.445663 -558.207399 
L 449.027575 -559.562417 
L 448.548736 -560.917436 
L 447.999432 -562.272454 
L 447.36985 -563.627472 
L 446.649988 -564.98249 
L 445.829891 -566.337508 
L 444.900259 -567.692526 
L 443.853444 -569.047545 
L 442.684735 -570.402563 
L 441.393776 -571.757581 
L 439.985889 -573.112599 
L 438.473071 -574.467617 
L 436.87443 -575.822636 
L 435.215869 -577.177654 
L 433.528933 -578.532672 
L 431.848831 -579.88769 
L 430.211752 -581.242708 
L 428.651763 -582.597726 
L 427.197617 -583.952745 
L 425.869913 -585.307763 
L 424.679003 -586.662781 
L 423.624022 -588.017799 
L 422.693253 -589.372817 
L 421.865904 -590.727836 
L 421.115156 -592.082854 
L 420.412178 -593.437872 
L 419.73063 -594.79289 
L 419.051107 -596.147908 
L 418.364953 -597.502926 
L 417.676935 -598.857945 
L 417.006407 -600.212963 
L 416.38679 -601.567981 
L 415.863362 -602.922999 
L 415.489608 -604.278017 
L 415.3225 -605.633036 
L 415.417233 -606.988054 
L 415.821967 -608.343072 
L 416.573131 -609.69809 
L 417.691757 -611.053108 
L 419.181185 -612.408126 
L 421.026316 -613.763145 
L 423.194441 -615.118163 
L 425.63747 -616.473181 
L 428.295303 -617.828199 
L 431.099951 -619.183217 
L 433.979985 -620.538236 
L 436.864913 -621.893254 
L 439.689095 -623.248272 
L 442.394934 -624.60329 
L 444.935148 -625.958308 
L 447.274058 -627.313326 
L 449.387923 -628.668345 
L 451.264437 -630.023363 
L 452.901563 -631.378381 
L 454.305912 -632.733399 
L 455.49087 -634.088417 
L 456.474671 -635.443436 
L 457.278565 -636.798454 
L 457.925201 -638.153472 
L 458.437288 -639.50849 
L 458.836567 -640.863508 
L 459.143086 -642.218526 
L 459.374748 -643.573545 
L 459.547101 -644.928563 
L 460.377899 -644.928563 
L 460.377899 -644.928563 
L 460.550252 -643.573545 
L 460.781914 -642.218526 
L 461.088433 -640.863508 
L 461.487712 -639.50849 
L 461.999799 -638.153472 
L 462.646435 -636.798454 
L 463.450329 -635.443436 
L 464.43413 -634.088417 
L 465.619088 -632.733399 
L 467.023437 -631.378381 
L 468.660563 -630.023363 
L 470.537077 -628.668345 
L 472.650942 -627.313326 
L 474.989852 -625.958308 
L 477.530066 -624.60329 
L 480.235905 -623.248272 
L 483.060087 -621.893254 
L 485.945015 -620.538236 
L 488.825049 -619.183217 
L 491.629697 -617.828199 
L 494.28753 -616.473181 
L 496.730559 -615.118163 
L 498.898684 -613.763145 
L 500.743815 -612.408126 
L 502.233243 -611.053108 
L 503.351869 -609.69809 
L 504.103033 -608.343072 
L 504.507767 -606.988054 
L 504.6025 -605.633036 
L 504.435392 -604.278017 
L 504.061638 -602.922999 
L 503.53821 -601.567981 
L 502.918593 -600.212963 
L 502.248065 -598.857945 
L 501.560047 -597.502926 
L 500.873893 -596.147908 
L 500.19437 -594.79289 
L 499.512822 -593.437872 
L 498.809844 -592.082854 
L 498.059096 -590.727836 
L 497.231747 -589.372817 
L 496.300978 -588.017799 
L 495.245997 -586.662781 
L 494.055087 -585.307763 
L 492.727383 -583.952745 
L 491.273237 -582.597726 
L 489.713248 -581.242708 
L 488.076169 -579.88769 
L 486.396067 -578.532672 
L 484.709131 -577.177654 
L 483.05057 -575.822636 
L 481.451929 -574.467617 
L 479.939111 -573.112599 
L 478.531224 -571.757581 
L 477.240265 -570.402563 
L 476.071556 -569.047545 
L 475.024741 -567.692526 
L 474.095109 -566.337508 
L 473.275012 -564.98249 
L 472.55515 -563.627472 
L 471.925568 -562.272454 
L 471.376264 -560.917436 
L 470.897425 -559.562417 
L 470.479337 -558.207399 
L 470.112115 -556.852381 
L 469.785412 -555.497363 
L 469.488248 -554.142345 
L 469.209091 -552.787326 
L 468.936226 -551.432308 
L 468.658404 -550.07729 
L 468.365664 -548.722272 
L 468.050192 -547.367254 
L 467.707049 -546.012236 
L 467.334615 -544.657217 
L 466.934665 -543.302199 
L 466.512017 -541.947181 
L 466.073817 -540.592163 
L 465.628567 -539.237145 
L 465.185049 -537.882126 
L 464.751311 -536.527108 
L 464.333874 -535.17209 
L 463.937254 -533.817072 
L 463.563841 -532.462054 
L 463.214109 -531.107036 
L 462.887083 -529.752017 
L 462.580938 -528.396999 
L 462.293614 -527.041981 
L 462.023332 -525.686963 
L 461.768947 -524.331945 
L 461.530088 -522.976926 
L 461.307113 -521.621908 
L 461.100909 -520.26689 
L 460.912606 -518.911872 
L 460.743272 -517.556854 
L 460.593648 -516.201836 
L 460.463958 -514.846817 
L 460.353826 -513.491799 
L 460.262277 -512.136781 
L 460.187829 -510.781763 
z
" style="stroke: #3d3d3d; stroke-opacity: 0.5"/>
    </defs>
    <g clip-path="url(#p2ca9ca9993)">
     <use xlink:href="#m27470578ab" x="0" y="707.825675" style="fill: #9372b2; fill-opacity: 0.5; stroke: #3d3d3d; stroke-opacity: 0.5"/>
    </g>
   </g>
   <g id="PolyCollection_5">
    <defs>
     <path id="m0c6f087e9d" d="M 571.776681 -492.048111 
L 571.348319 -492.048111 
L 571.275933 -493.658878 
L 571.187688 -495.269644 
L 571.083239 -496.880411 
L 570.963338 -498.491178 
L 570.830031 -500.101945 
L 570.686715 -501.712712 
L 570.538034 -503.323478 
L 570.389553 -504.934245 
L 570.247234 -506.545012 
L 570.116737 -508.155779 
L 570.002616 -509.766545 
L 569.907516 -511.377312 
L 569.831482 -512.988079 
L 569.771506 -514.598846 
L 569.721402 -516.209613 
L 569.672066 -517.820379 
L 569.612134 -519.431146 
L 569.528987 -521.041913 
L 569.409997 -522.65268 
L 569.243879 -524.263447 
L 569.02197 -525.874213 
L 568.73928 -527.48498 
L 568.395157 -529.095747 
L 567.993468 -530.706514 
L 567.542241 -532.317281 
L 567.05279 -533.928047 
L 566.538405 -535.538814 
L 566.012745 -537.149581 
L 565.488119 -538.760348 
L 564.973844 -540.371115 
L 564.474882 -541.981881 
L 563.99091 -543.592648 
L 563.515962 -545.203415 
L 563.038685 -546.814182 
L 562.54324 -548.424949 
L 562.010763 -550.035715 
L 561.421296 -551.646482 
L 560.755985 -553.257249 
L 559.999358 -554.868016 
L 559.141392 -556.478783 
L 558.179135 -558.089549 
L 557.117635 -559.700316 
L 555.969987 -561.311083 
L 554.756417 -562.92185 
L 553.502463 -564.532617 
L 552.236406 -566.143383 
L 550.986279 -567.75415 
L 549.776833 -569.364917 
L 548.62686 -570.975684 
L 547.547257 -572.586451 
L 546.54007 -574.197217 
L 545.598618 -575.807984 
L 544.708645 -577.418751 
L 543.850258 -579.029518 
L 543.000378 -580.640285 
L 542.135327 -582.251051 
L 541.233268 -583.861818 
L 540.276265 -585.472585 
L 539.251858 -587.083352 
L 538.154156 -588.694119 
L 536.984526 -590.304885 
L 535.751986 -591.915652 
L 534.473397 -593.526419 
L 533.173488 -595.137186 
L 531.884662 -596.747953 
L 530.646472 -598.358719 
L 529.504626 -599.969486 
L 528.509386 -601.580253 
L 527.713296 -603.19102 
L 527.168315 -604.801787 
L 526.9225 -606.412553 
L 527.016561 -608.02332 
L 527.480627 -609.634087 
L 528.331595 -611.244854 
L 529.571377 -612.855621 
L 531.186229 -614.466387 
L 533.147237 -616.077154 
L 535.411885 -617.687921 
L 537.926502 -619.298688 
L 540.629341 -620.909455 
L 543.453996 -622.520221 
L 546.332876 -624.130988 
L 549.200497 -625.741755 
L 551.996401 -627.352522 
L 554.667547 -628.963289 
L 557.170097 -630.574055 
L 559.470531 -632.184822 
L 561.546082 -633.795589 
L 563.384537 -635.406356 
L 564.983449 -637.017123 
L 566.3489 -638.627889 
L 567.49392 -640.238656 
L 568.436735 -641.849423 
L 569.198982 -643.46019 
L 569.804035 -645.070957 
L 570.275537 -646.681723 
L 570.636221 -648.29249 
L 570.907038 -649.903257 
L 571.106599 -651.514024 
L 572.018401 -651.514024 
L 572.018401 -651.514024 
L 572.217962 -649.903257 
L 572.488779 -648.29249 
L 572.849463 -646.681723 
L 573.320965 -645.070957 
L 573.926018 -643.46019 
L 574.688265 -641.849423 
L 575.63108 -640.238656 
L 576.7761 -638.627889 
L 578.141551 -637.017123 
L 579.740463 -635.406356 
L 581.578918 -633.795589 
L 583.654469 -632.184822 
L 585.954903 -630.574055 
L 588.457453 -628.963289 
L 591.128599 -627.352522 
L 593.924503 -625.741755 
L 596.792124 -624.130988 
L 599.671004 -622.520221 
L 602.495659 -620.909455 
L 605.198498 -619.298688 
L 607.713115 -617.687921 
L 609.977763 -616.077154 
L 611.938771 -614.466387 
L 613.553623 -612.855621 
L 614.793405 -611.244854 
L 615.644373 -609.634087 
L 616.108439 -608.02332 
L 616.2025 -606.412553 
L 615.956685 -604.801787 
L 615.411704 -603.19102 
L 614.615614 -601.580253 
L 613.620374 -599.969486 
L 612.478528 -598.358719 
L 611.240338 -596.747953 
L 609.951512 -595.137186 
L 608.651603 -593.526419 
L 607.373014 -591.915652 
L 606.140474 -590.304885 
L 604.970844 -588.694119 
L 603.873142 -587.083352 
L 602.848735 -585.472585 
L 601.891732 -583.861818 
L 600.989673 -582.251051 
L 600.124622 -580.640285 
L 599.274742 -579.029518 
L 598.416355 -577.418751 
L 597.526382 -575.807984 
L 596.58493 -574.197217 
L 595.577743 -572.586451 
L 594.49814 -570.975684 
L 593.348167 -569.364917 
L 592.138721 -567.75415 
L 590.888594 -566.143383 
L 589.622537 -564.532617 
L 588.368583 -562.92185 
L 587.155013 -561.311083 
L 586.007365 -559.700316 
L 584.945865 -558.089549 
L 583.983608 -556.478783 
L 583.125642 -554.868016 
L 582.369015 -553.257249 
L 581.703704 -551.646482 
L 581.114237 -550.035715 
L 580.58176 -548.424949 
L 580.086315 -546.814182 
L 579.609038 -545.203415 
L 579.13409 -543.592648 
L 578.650118 -541.981881 
L 578.151156 -540.371115 
L 577.636881 -538.760348 
L 577.112255 -537.149581 
L 576.586595 -535.538814 
L 576.07221 -533.928047 
L 575.582759 -532.317281 
L 575.131532 -530.706514 
L 574.729843 -529.095747 
L 574.38572 -527.48498 
L 574.10303 -525.874213 
L 573.881121 -524.263447 
L 573.715003 -522.65268 
L 573.596013 -521.041913 
L 573.512866 -519.431146 
L 573.452934 -517.820379 
L 573.403598 -516.209613 
L 573.353494 -514.598846 
L 573.293518 -512.988079 
L 573.217484 -511.377312 
L 573.122384 -509.766545 
L 573.008263 -508.155779 
L 572.877766 -506.545012 
L 572.735447 -504.934245 
L 572.586966 -503.323478 
L 572.438285 -501.712712 
L 572.294969 -500.101945 
L 572.161662 -498.491178 
L 572.041761 -496.880411 
L 571.937312 -495.269644 
L 571.849067 -493.658878 
L 571.776681 -492.048111 
z
" style="stroke: #3d3d3d; stroke-opacity: 0.5"/>
    </defs>
    <g clip-path="url(#p2ca9ca9993)">
     <use xlink:href="#m0c6f087e9d" x="0" y="707.825675" style="fill: #845b53; fill-opacity: 0.5; stroke: #3d3d3d; stroke-opacity: 0.5"/>
    </g>
   </g>
   <g id="PolyCollection_6">
    <defs>
     <path id="md145e8da9a" d="M 683.682957 -581.231323 
L 682.642043 -581.231323 
L 682.472045 -581.901203 
L 682.25974 -582.571083 
L 681.998975 -583.240963 
L 681.683946 -583.910843 
L 681.309577 -584.580723 
L 680.8719 -585.250602 
L 680.368428 -585.920482 
L 679.79846 -586.590362 
L 679.16331 -587.260242 
L 678.466409 -587.930122 
L 677.713273 -588.600001 
L 676.911329 -589.269881 
L 676.06962 -589.939761 
L 675.198402 -590.609641 
L 674.308686 -591.279521 
L 673.411751 -591.9494 
L 672.518685 -592.61928 
L 671.639966 -593.28916 
L 670.785121 -593.95904 
L 669.962434 -594.62892 
L 669.17872 -595.298799 
L 668.43911 -595.968679 
L 667.746841 -596.638559 
L 667.103026 -597.308439 
L 666.506395 -597.978319 
L 665.953039 -598.648198 
L 665.436196 -599.318078 
L 664.946147 -599.987958 
L 664.470288 -600.657838 
L 663.993466 -601.327718 
L 663.498621 -601.997598 
L 662.96775 -602.667477 
L 662.383181 -603.337357 
L 661.72906 -604.007237 
L 660.992948 -604.677117 
L 660.167341 -605.346997 
L 659.250942 -606.016876 
L 658.249508 -606.686756 
L 657.176099 -607.356636 
L 656.050649 -608.026516 
L 654.898809 -608.696396 
L 653.75012 -609.366275 
L 652.63564 -610.036155 
L 651.585237 -610.706035 
L 650.624801 -611.375915 
L 649.773667 -612.045795 
L 649.042538 -612.715674 
L 648.432154 -613.385554 
L 647.932892 -614.055434 
L 647.525406 -614.725314 
L 647.182269 -615.395194 
L 646.870519 -616.065073 
L 646.55487 -616.734953 
L 646.201294 -617.404833 
L 645.780608 -618.074713 
L 645.27171 -618.744593 
L 644.664134 -619.414473 
L 643.959656 -620.084352 
L 643.172781 -620.754232 
L 642.330094 -621.424112 
L 641.468512 -622.093992 
L 640.632672 -622.763872 
L 639.871694 -623.433751 
L 639.23566 -624.103631 
L 638.772153 -624.773511 
L 638.523147 -625.443391 
L 638.5225 -626.113271 
L 638.794224 -626.78315 
L 639.351583 -627.45303 
L 640.197005 -628.12291 
L 641.322711 -628.79279 
L 642.711892 -629.46267 
L 644.340267 -630.132549 
L 646.177822 -630.802429 
L 648.190566 -631.472309 
L 650.342177 -632.142189 
L 652.595444 -632.812069 
L 654.913471 -633.481948 
L 657.260632 -634.151828 
L 659.603307 -634.821708 
L 661.91044 -635.491588 
L 664.153967 -636.161468 
L 666.30914 -636.831348 
L 668.354797 -637.501227 
L 670.273558 -638.171107 
L 672.051971 -638.840987 
L 673.680572 -639.510867 
L 675.153861 -640.180747 
L 676.470162 -640.850626 
L 677.631371 -641.520506 
L 678.642582 -642.190386 
L 679.51162 -642.860266 
L 680.248498 -643.530146 
L 680.864822 -644.200025 
L 681.373198 -644.869905 
L 681.786658 -645.539785 
L 682.118153 -646.209665 
L 682.380115 -646.879545 
L 682.584125 -647.549424 
L 683.740875 -647.549424 
L 683.740875 -647.549424 
L 683.944885 -646.879545 
L 684.206847 -646.209665 
L 684.538342 -645.539785 
L 684.951802 -644.869905 
L 685.460178 -644.200025 
L 686.076502 -643.530146 
L 686.81338 -642.860266 
L 687.682418 -642.190386 
L 688.693629 -641.520506 
L 689.854838 -640.850626 
L 691.171139 -640.180747 
L 692.644428 -639.510867 
L 694.273029 -638.840987 
L 696.051442 -638.171107 
L 697.970203 -637.501227 
L 700.01586 -636.831348 
L 702.171033 -636.161468 
L 704.41456 -635.491588 
L 706.721693 -634.821708 
L 709.064368 -634.151828 
L 711.411529 -633.481948 
L 713.729556 -632.812069 
L 715.982823 -632.142189 
L 718.134434 -631.472309 
L 720.147178 -630.802429 
L 721.984733 -630.132549 
L 723.613108 -629.46267 
L 725.002289 -628.79279 
L 726.127995 -628.12291 
L 726.973417 -627.45303 
L 727.530776 -626.78315 
L 727.8025 -626.113271 
L 727.801853 -625.443391 
L 727.552847 -624.773511 
L 727.08934 -624.103631 
L 726.453306 -623.433751 
L 725.692328 -622.763872 
L 724.856488 -622.093992 
L 723.994906 -621.424112 
L 723.152219 -620.754232 
L 722.365344 -620.084352 
L 721.660866 -619.414473 
L 721.05329 -618.744593 
L 720.544392 -618.074713 
L 720.123706 -617.404833 
L 719.77013 -616.734953 
L 719.454481 -616.065073 
L 719.142731 -615.395194 
L 718.799594 -614.725314 
L 718.392108 -614.055434 
L 717.892846 -613.385554 
L 717.282462 -612.715674 
L 716.551333 -612.045795 
L 715.700199 -611.375915 
L 714.739763 -610.706035 
L 713.68936 -610.036155 
L 712.57488 -609.366275 
L 711.426191 -608.696396 
L 710.274351 -608.026516 
L 709.148901 -607.356636 
L 708.075492 -606.686756 
L 707.074058 -606.016876 
L 706.157659 -605.346997 
L 705.332052 -604.677117 
L 704.59594 -604.007237 
L 703.941819 -603.337357 
L 703.35725 -602.667477 
L 702.826379 -601.997598 
L 702.331534 -601.327718 
L 701.854712 -600.657838 
L 701.378853 -599.987958 
L 700.888804 -599.318078 
L 700.371961 -598.648198 
L 699.818605 -597.978319 
L 699.221974 -597.308439 
L 698.578159 -596.638559 
L 697.88589 -595.968679 
L 697.14628 -595.298799 
L 696.362566 -594.62892 
L 695.539879 -593.95904 
L 694.685034 -593.28916 
L 693.806315 -592.61928 
L 692.913249 -591.9494 
L 692.016314 -591.279521 
L 691.126598 -590.609641 
L 690.25538 -589.939761 
L 689.413671 -589.269881 
L 688.611727 -588.600001 
L 687.858591 -587.930122 
L 687.16169 -587.260242 
L 686.52654 -586.590362 
L 685.956572 -585.920482 
L 685.4531 -585.250602 
L 685.015423 -584.580723 
L 684.641054 -583.910843 
L 684.326025 -583.240963 
L 684.06526 -582.571083 
L 683.852955 -581.901203 
L 683.682957 -581.231323 
z
" style="stroke: #3d3d3d; stroke-opacity: 0.5"/>
    </defs>
    <g clip-path="url(#p2ca9ca9993)">
     <use xlink:href="#md145e8da9a" x="0" y="707.825675" style="fill: #e1812c; fill-opacity: 0.5; stroke: #3d3d3d; stroke-opacity: 0.5"/>
    </g>
   </g>
   <g id="PolyCollection_7">
    <defs>
     <path id="me38f4a4134" d="M 795.213966 -529.025654 
L 794.311034 -529.025654 
L 794.174585 -530.264586 
L 794.009773 -531.503518 
L 793.814821 -532.74245 
L 793.589042 -533.981382 
L 793.333105 -535.220314 
L 793.049218 -536.459246 
L 792.741194 -537.698178 
L 792.41437 -538.93711 
L 792.075371 -540.176042 
L 791.73171 -541.414974 
L 791.391267 -542.653906 
L 791.061674 -543.892838 
L 790.749688 -545.13177 
L 790.460599 -546.370702 
L 790.197767 -547.609634 
L 789.962305 -548.848566 
L 789.752988 -550.087498 
L 789.566349 -551.32643 
L 789.396975 -552.565362 
L 789.237947 -553.804294 
L 789.081358 -555.043226 
L 788.918851 -556.282158 
L 788.742112 -557.52109 
L 788.543262 -558.760022 
L 788.315124 -559.998954 
L 788.051355 -561.237886 
L 787.746469 -562.476818 
L 787.395761 -563.71575 
L 786.995199 -564.954682 
L 786.541311 -566.193614 
L 786.031109 -567.432546 
L 785.462065 -568.671478 
L 784.832162 -569.91041 
L 784.13999 -571.149342 
L 783.384889 -572.388274 
L 782.567094 -573.627206 
L 781.687862 -574.866138 
L 780.74957 -576.10507 
L 779.75575 -577.344002 
L 778.711088 -578.582934 
L 777.621382 -579.821866 
L 776.493475 -581.060798 
L 775.335189 -582.299731 
L 774.155269 -583.538663 
L 772.963326 -584.777595 
L 771.769773 -586.016527 
L 770.585723 -587.255459 
L 769.422803 -588.494391 
L 768.292844 -589.733323 
L 767.207411 -590.972255 
L 766.177164 -592.211187 
L 765.211052 -593.450119 
L 764.315407 -594.689051 
L 763.493021 -595.927983 
L 762.742331 -597.166915 
L 762.056847 -598.405847 
L 761.424986 -599.644779 
L 760.830411 -600.883711 
L 760.252962 -602.122643 
L 759.670195 -603.361575 
L 759.059449 -604.600507 
L 758.400299 -605.839439 
L 757.677181 -607.078371 
L 756.881912 -608.317303 
L 756.015816 -609.556235 
L 755.09119 -610.795167 
L 754.131879 -612.034099 
L 753.172839 -613.273031 
L 752.258651 -614.511963 
L 751.441075 -615.750895 
L 750.775825 -616.989827 
L 750.318861 -618.228759 
L 750.1225 -619.467691 
L 750.231694 -620.706623 
L 750.680797 -621.945555 
L 751.491063 -623.184487 
L 752.669073 -624.423419 
L 754.206167 -625.662351 
L 756.078884 -626.901283 
L 758.250345 -628.140215 
L 760.672403 -629.379147 
L 763.2884 -630.618079 
L 766.036287 -631.857011 
L 768.85189 -633.095943 
L 771.672093 -634.334875 
L 774.437754 -635.573807 
L 777.09616 -636.812739 
L 779.602926 -638.051671 
L 781.923246 -639.290603 
L 784.032474 -640.529535 
L 785.916062 -641.768467 
L 787.56894 -643.007399 
L 788.994419 -644.246331 
L 790.202776 -645.485263 
L 791.20965 -646.724195 
L 792.034393 -647.963127 
L 792.698492 -649.202059 
L 793.224167 -650.440991 
L 793.63321 -651.679923 
L 795.89179 -651.679923 
L 795.89179 -651.679923 
L 796.300833 -650.440991 
L 796.826508 -649.202059 
L 797.490607 -647.963127 
L 798.31535 -646.724195 
L 799.322224 -645.485263 
L 800.530581 -644.246331 
L 801.95606 -643.007399 
L 803.608938 -641.768467 
L 805.492526 -640.529535 
L 807.601754 -639.290603 
L 809.922074 -638.051671 
L 812.42884 -636.812739 
L 815.087246 -635.573807 
L 817.852907 -634.334875 
L 820.67311 -633.095943 
L 823.488713 -631.857011 
L 826.2366 -630.618079 
L 828.852597 -629.379147 
L 831.274655 -628.140215 
L 833.446116 -626.901283 
L 835.318833 -625.662351 
L 836.855927 -624.423419 
L 838.033937 -623.184487 
L 838.844203 -621.945555 
L 839.293306 -620.706623 
L 839.4025 -619.467691 
L 839.206139 -618.228759 
L 838.749175 -616.989827 
L 838.083925 -615.750895 
L 837.266349 -614.511963 
L 836.352161 -613.273031 
L 835.393121 -612.034099 
L 834.43381 -610.795167 
L 833.509184 -609.556235 
L 832.643088 -608.317303 
L 831.847819 -607.078371 
L 831.124701 -605.839439 
L 830.465551 -604.600507 
L 829.854805 -603.361575 
L 829.272038 -602.122643 
L 828.694589 -600.883711 
L 828.100014 -599.644779 
L 827.468153 -598.405847 
L 826.782669 -597.166915 
L 826.031979 -595.927983 
L 825.209593 -594.689051 
L 824.313948 -593.450119 
L 823.347836 -592.211187 
L 822.317589 -590.972255 
L 821.232156 -589.733323 
L 820.102197 -588.494391 
L 818.939277 -587.255459 
L 817.755227 -586.016527 
L 816.561674 -584.777595 
L 815.369731 -583.538663 
L 814.189811 -582.299731 
L 813.031525 -581.060798 
L 811.903618 -579.821866 
L 810.813912 -578.582934 
L 809.76925 -577.344002 
L 808.77543 -576.10507 
L 807.837138 -574.866138 
L 806.957906 -573.627206 
L 806.140111 -572.388274 
L 805.38501 -571.149342 
L 804.692838 -569.91041 
L 804.062935 -568.671478 
L 803.493891 -567.432546 
L 802.983689 -566.193614 
L 802.529801 -564.954682 
L 802.129239 -563.71575 
L 801.778531 -562.476818 
L 801.473645 -561.237886 
L 801.209876 -559.998954 
L 800.981738 -558.760022 
L 800.782888 -557.52109 
L 800.606149 -556.282158 
L 800.443642 -555.043226 
L 800.287053 -553.804294 
L 800.128025 -552.565362 
L 799.958651 -551.32643 
L 799.772012 -550.087498 
L 799.562695 -548.848566 
L 799.327233 -547.609634 
L 799.064401 -546.370702 
L 798.775312 -545.13177 
L 798.463326 -543.892838 
L 798.133733 -542.653906 
L 797.79329 -541.414974 
L 797.449629 -540.176042 
L 797.11063 -538.93711 
L 796.783806 -537.698178 
L 796.475782 -536.459246 
L 796.191895 -535.220314 
L 795.935958 -533.981382 
L 795.710179 -532.74245 
L 795.515227 -531.503518 
L 795.350415 -530.264586 
L 795.213966 -529.025654 
z
" style="stroke: #3d3d3d; stroke-opacity: 0.5"/>
    </defs>
    <g clip-path="url(#p2ca9ca9993)">
     <use xlink:href="#me38f4a4134" x="0" y="707.825675" style="fill: #3a923a; fill-opacity: 0.5; stroke: #3d3d3d; stroke-opacity: 0.5"/>
    </g>
   </g>
   <g id="line2d_7">
    <path d="M 125.1625 268.566845 
L 125.1625 92.108908 
" clip-path="url(#p2ca9ca9993)" style="fill: none; stroke: #3d3d3d; stroke-width: 1.5; stroke-linecap: round"/>
   </g>
   <g id="line2d_8">
    <path d="M 125.1625 194.392975 
L 125.1625 136.767141 
" clip-path="url(#p2ca9ca9993)" style="fill: none; stroke: #3d3d3d; stroke-width: 4.5; stroke-linecap: round"/>
   </g>
   <g id="line2d_9">
    <path d="M 125.1625 163.918233 
" clip-path="url(#p2ca9ca9993)" style="fill: none; stroke: #3d3d3d; stroke-width: 1.5; stroke-linecap: round"/>
    <defs>
     <path id="m3a2a465d3f" d="M 1.875 0 
L -1.875 -0 
" style="stroke: #ffffff; stroke-width: 0.9"/>
    </defs>
    <g clip-path="url(#p2ca9ca9993)">
     <use xlink:href="#m3a2a465d3f" x="125.1625" y="163.918233" style="fill: #ffffff; stroke: #ffffff; stroke-width: 0.9"/>
    </g>
   </g>
   <g id="line2d_10">
    <path d="M 236.7625 136.678585 
L 236.7625 68.225978 
" clip-path="url(#p2ca9ca9993)" style="fill: none; stroke: #3d3d3d; stroke-width: 1.5; stroke-linecap: round"/>
   </g>
   <g id="line2d_11">
    <path d="M 236.7625 104.334385 
L 236.7625 79.911946 
" clip-path="url(#p2ca9ca9993)" style="fill: none; stroke: #3d3d3d; stroke-width: 4.5; stroke-linecap: round"/>
   </g>
   <g id="line2d_12">
    <path d="M 236.7625 88.276641 
" clip-path="url(#p2ca9ca9993)" style="fill: none; stroke: #3d3d3d; stroke-width: 1.5; stroke-linecap: round"/>
    <g clip-path="url(#p2ca9ca9993)">
     <use xlink:href="#m3a2a465d3f" x="236.7625" y="88.276641" style="fill: #ffffff; stroke: #ffffff; stroke-width: 0.9"/>
    </g>
   </g>
   <g id="line2d_13">
    <path d="M 348.3625 463.798216 
L 348.3625 197.11188 
" clip-path="url(#p2ca9ca9993)" style="fill: none; stroke: #3d3d3d; stroke-width: 1.5; stroke-linecap: round"/>
   </g>
   <g id="line2d_14">
    <path d="M 348.3625 405.943854 
L 348.3625 320.001844 
" clip-path="url(#p2ca9ca9993)" style="fill: none; stroke: #3d3d3d; stroke-width: 4.5; stroke-linecap: round"/>
   </g>
   <g id="line2d_15">
    <path d="M 348.3625 360.164917 
" clip-path="url(#p2ca9ca9993)" style="fill: none; stroke: #3d3d3d; stroke-width: 1.5; stroke-linecap: round"/>
    <g clip-path="url(#p2ca9ca9993)">
     <use xlink:href="#m3a2a465d3f" x="348.3625" y="360.164917" style="fill: #ffffff; stroke: #ffffff; stroke-width: 0.9"/>
    </g>
   </g>
   <g id="line2d_16">
    <path d="M 459.9625 163.017635 
L 459.9625 81.675396 
" clip-path="url(#p2ca9ca9993)" style="fill: none; stroke: #3d3d3d; stroke-width: 1.5; stroke-linecap: round"/>
   </g>
   <g id="line2d_17">
    <path d="M 459.9625 124.695515 
L 459.9625 98.475555 
" clip-path="url(#p2ca9ca9993)" style="fill: none; stroke: #3d3d3d; stroke-width: 4.5; stroke-linecap: round"/>
   </g>
   <g id="line2d_18">
    <path d="M 459.9625 111.796373 
" clip-path="url(#p2ca9ca9993)" style="fill: none; stroke: #3d3d3d; stroke-width: 1.5; stroke-linecap: round"/>
    <g clip-path="url(#p2ca9ca9993)">
     <use xlink:href="#m3a2a465d3f" x="459.9625" y="111.796373" style="fill: #ffffff; stroke: #ffffff; stroke-width: 0.9"/>
    </g>
   </g>
   <g id="line2d_19">
    <path d="M 571.5625 168.563651 
L 571.5625 77.628031 
" clip-path="url(#p2ca9ca9993)" style="fill: none; stroke: #3d3d3d; stroke-width: 1.5; stroke-linecap: round"/>
   </g>
   <g id="line2d_20">
    <path d="M 571.5625 131.143728 
L 571.5625 97.323159 
" clip-path="url(#p2ca9ca9993)" style="fill: none; stroke: #3d3d3d; stroke-width: 4.5; stroke-linecap: round"/>
   </g>
   <g id="line2d_21">
    <path d="M 571.5625 109.578248 
" clip-path="url(#p2ca9ca9993)" style="fill: none; stroke: #3d3d3d; stroke-width: 1.5; stroke-linecap: round"/>
    <g clip-path="url(#p2ca9ca9993)">
     <use xlink:href="#m3a2a465d3f" x="571.5625" y="109.578248" style="fill: #ffffff; stroke: #ffffff; stroke-width: 0.9"/>
    </g>
   </g>
   <g id="line2d_22">
    <path d="M 683.1625 116.168199 
L 683.1625 70.702403 
" clip-path="url(#p2ca9ca9993)" style="fill: none; stroke: #3d3d3d; stroke-width: 1.5; stroke-linecap: round"/>
   </g>
   <g id="line2d_23">
    <path d="M 683.1625 97.054585 
L 683.1625 80.909973 
" clip-path="url(#p2ca9ca9993)" style="fill: none; stroke: #3d3d3d; stroke-width: 4.5; stroke-linecap: round"/>
   </g>
   <g id="line2d_24">
    <path d="M 683.1625 87.895292 
" clip-path="url(#p2ca9ca9993)" style="fill: none; stroke: #3d3d3d; stroke-width: 1.5; stroke-linecap: round"/>
    <g clip-path="url(#p2ca9ca9993)">
     <use xlink:href="#m3a2a465d3f" x="683.1625" y="87.895292" style="fill: #ffffff; stroke: #ffffff; stroke-width: 0.9"/>
    </g>
   </g>
   <g id="line2d_25">
    <path d="M 794.7625 150.383614 
L 794.7625 74.678084 
" clip-path="url(#p2ca9ca9993)" style="fill: none; stroke: #3d3d3d; stroke-width: 1.5; stroke-linecap: round"/>
   </g>
   <g id="line2d_26">
    <path d="M 794.7625 113.852485 
L 794.7625 85.907087 
" clip-path="url(#p2ca9ca9993)" style="fill: none; stroke: #3d3d3d; stroke-width: 4.5; stroke-linecap: round"/>
   </g>
   <g id="line2d_27">
    <path d="M 794.7625 99.787034 
" clip-path="url(#p2ca9ca9993)" style="fill: none; stroke: #3d3d3d; stroke-width: 1.5; stroke-linecap: round"/>
    <g clip-path="url(#p2ca9ca9993)">
     <use xlink:href="#m3a2a465d3f" x="794.7625" y="99.787034" style="fill: #ffffff; stroke: #ffffff; stroke-width: 0.9"/>
    </g>
   </g>
   <g id="patch_3">
    <path d="M 69.3625 561.6 
L 850.5625 561.6 
" style="fill: none; stroke: #cccccc; stroke-width: 0.8; stroke-linejoin: miter; stroke-linecap: square"/>
   </g>
  </g>
 </g>
 <defs>
  <clipPath id="p2ca9ca9993">
   <rect x="69.3625" y="7.2" width="781.2" height="554.4"/>
  </clipPath>
 </defs>
</svg>
