<?xml version="1.0" encoding="utf-8" standalone="no"?>
<!DOCTYPE svg PUBLIC "-//W3C//DTD SVG 1.1//EN"
  "http://www.w3.org/Graphics/SVG/1.1/DTD/svg11.dtd">
<svg xmlns:xlink="http://www.w3.org/1999/xlink" width="857.7625pt" height="707.825675pt" viewBox="0 0 857.7625 707.825675" xmlns="http://www.w3.org/2000/svg" version="1.1">
 <metadata>
  <rdf:RDF xmlns:dc="http://purl.org/dc/elements/1.1/" xmlns:cc="http://creativecommons.org/ns#" xmlns:rdf="http://www.w3.org/1999/02/22-rdf-syntax-ns#">
   <cc:Work>
    <dc:type rdf:resource="http://purl.org/dc/dcmitype/StillImage"/>
    <dc:date>2024-10-23T17:24:04.254321</dc:date>
    <dc:format>image/svg+xml</dc:format>
    <dc:creator>
     <cc:Agent>
      <dc:title>Matplotlib v3.8.0, https://matplotlib.org/</dc:title>
     </cc:Agent>
    </dc:creator>
   </cc:Work>
  </rdf:RDF>
 </metadata>
 <defs>
  <style type="text/css">*{stroke-linejoin: round; stroke-linecap: butt}</style>
 </defs>
 <g id="figure_1">
  <g id="patch_1">
   <path d="M 0 707.825675 
L 857.7625 707.825675 
L 857.7625 0 
L 0 0 
L 0 707.825675 
z
" style="fill: none"/>
  </g>
  <g id="axes_1">
   <g id="patch_2">
    <path d="M 69.3625 561.6 
L 850.5625 561.6 
L 850.5625 7.2 
L 69.3625 7.2 
L 69.3625 561.6 
z
" style="fill: none"/>
   </g>
   <g id="matplotlib.axis_1">
    <g id="xtick_1">
     <g id="text_1">
      <!-- MSA -->
      <g style="fill: #262626" transform="translate(104.788986 610.465141) rotate(-45) scale(0.2 -0.2)">
       <defs>
        <path id="DejaVuSans-4d" d="M 628 4666 
L 1569 4666 
L 2759 1491 
L 3956 4666 
L 4897 4666 
L 4897 0 
L 4281 0 
L 4281 4097 
L 3078 897 
L 2444 897 
L 1241 4097 
L 1241 0 
L 628 0 
L 628 4666 
z
" transform="scale(0.015625)"/>
        <path id="DejaVuSans-53" d="M 3425 4513 
L 3425 3897 
Q 3066 4069 2747 4153 
Q 2428 4238 2131 4238 
Q 1616 4238 1336 4038 
Q 1056 3838 1056 3469 
Q 1056 3159 1242 3001 
Q 1428 2844 1947 2747 
L 2328 2669 
Q 3034 2534 3370 2195 
Q 3706 1856 3706 1288 
Q 3706 609 3251 259 
Q 2797 -91 1919 -91 
Q 1588 -91 1214 -16 
Q 841 59 441 206 
L 441 856 
Q 825 641 1194 531 
Q 1563 422 1919 422 
Q 2459 422 2753 634 
Q 3047 847 3047 1241 
Q 3047 1584 2836 1778 
Q 2625 1972 2144 2069 
L 1759 2144 
Q 1053 2284 737 2584 
Q 422 2884 422 3419 
Q 422 4038 858 4394 
Q 1294 4750 2059 4750 
Q 2388 4750 2728 4690 
Q 3069 4631 3425 4513 
z
" transform="scale(0.015625)"/>
        <path id="DejaVuSans-41" d="M 2188 4044 
L 1331 1722 
L 3047 1722 
L 2188 4044 
z
M 1831 4666 
L 2547 4666 
L 4325 0 
L 3669 0 
L 3244 1197 
L 1141 1197 
L 716 0 
L 50 0 
L 1831 4666 
z
" transform="scale(0.015625)"/>
       </defs>
       <use xlink:href="#DejaVuSans-4d"/>
       <use xlink:href="#DejaVuSans-53" x="86.279297"/>
       <use xlink:href="#DejaVuSans-41" x="151.630859"/>
      </g>
     </g>
    </g>
    <g id="xtick_2">
     <g id="text_2">
      <!-- Template -->
      <g style="fill: #262626" transform="translate(182.97819 643.875936) rotate(-45) scale(0.2 -0.2)">
       <defs>
        <path id="DejaVuSans-54" d="M -19 4666 
L 3928 4666 
L 3928 4134 
L 2272 4134 
L 2272 0 
L 1638 0 
L 1638 4134 
L -19 4134 
L -19 4666 
z
" transform="scale(0.015625)"/>
        <path id="DejaVuSans-65" d="M 3597 1894 
L 3597 1613 
L 953 1613 
Q 991 1019 1311 708 
Q 1631 397 2203 397 
Q 2534 397 2845 478 
Q 3156 559 3463 722 
L 3463 178 
Q 3153 47 2828 -22 
Q 2503 -91 2169 -91 
Q 1331 -91 842 396 
Q 353 884 353 1716 
Q 353 2575 817 3079 
Q 1281 3584 2069 3584 
Q 2775 3584 3186 3129 
Q 3597 2675 3597 1894 
z
M 3022 2063 
Q 3016 2534 2758 2815 
Q 2500 3097 2075 3097 
Q 1594 3097 1305 2825 
Q 1016 2553 972 2059 
L 3022 2063 
z
" transform="scale(0.015625)"/>
        <path id="DejaVuSans-6d" d="M 3328 2828 
Q 3544 3216 3844 3400 
Q 4144 3584 4550 3584 
Q 5097 3584 5394 3201 
Q 5691 2819 5691 2113 
L 5691 0 
L 5113 0 
L 5113 2094 
Q 5113 2597 4934 2840 
Q 4756 3084 4391 3084 
Q 3944 3084 3684 2787 
Q 3425 2491 3425 1978 
L 3425 0 
L 2847 0 
L 2847 2094 
Q 2847 2600 2669 2842 
Q 2491 3084 2119 3084 
Q 1678 3084 1418 2786 
Q 1159 2488 1159 1978 
L 1159 0 
L 581 0 
L 581 3500 
L 1159 3500 
L 1159 2956 
Q 1356 3278 1631 3431 
Q 1906 3584 2284 3584 
Q 2666 3584 2933 3390 
Q 3200 3197 3328 2828 
z
" transform="scale(0.015625)"/>
        <path id="DejaVuSans-70" d="M 1159 525 
L 1159 -1331 
L 581 -1331 
L 581 3500 
L 1159 3500 
L 1159 2969 
Q 1341 3281 1617 3432 
Q 1894 3584 2278 3584 
Q 2916 3584 3314 3078 
Q 3713 2572 3713 1747 
Q 3713 922 3314 415 
Q 2916 -91 2278 -91 
Q 1894 -91 1617 61 
Q 1341 213 1159 525 
z
M 3116 1747 
Q 3116 2381 2855 2742 
Q 2594 3103 2138 3103 
Q 1681 3103 1420 2742 
Q 1159 2381 1159 1747 
Q 1159 1113 1420 752 
Q 1681 391 2138 391 
Q 2594 391 2855 752 
Q 3116 1113 3116 1747 
z
" transform="scale(0.015625)"/>
        <path id="DejaVuSans-6c" d="M 603 4863 
L 1178 4863 
L 1178 0 
L 603 0 
L 603 4863 
z
" transform="scale(0.015625)"/>
        <path id="DejaVuSans-61" d="M 2194 1759 
Q 1497 1759 1228 1600 
Q 959 1441 959 1056 
Q 959 750 1161 570 
Q 1363 391 1709 391 
Q 2188 391 2477 730 
Q 2766 1069 2766 1631 
L 2766 1759 
L 2194 1759 
z
M 3341 1997 
L 3341 0 
L 2766 0 
L 2766 531 
Q 2569 213 2275 61 
Q 1981 -91 1556 -91 
Q 1019 -91 701 211 
Q 384 513 384 1019 
Q 384 1609 779 1909 
Q 1175 2209 1959 2209 
L 2766 2209 
L 2766 2266 
Q 2766 2663 2505 2880 
Q 2244 3097 1772 3097 
Q 1472 3097 1187 3025 
Q 903 2953 641 2809 
L 641 3341 
Q 956 3463 1253 3523 
Q 1550 3584 1831 3584 
Q 2591 3584 2966 3190 
Q 3341 2797 3341 1997 
z
" transform="scale(0.015625)"/>
        <path id="DejaVuSans-74" d="M 1172 4494 
L 1172 3500 
L 2356 3500 
L 2356 3053 
L 1172 3053 
L 1172 1153 
Q 1172 725 1289 603 
Q 1406 481 1766 481 
L 2356 481 
L 2356 0 
L 1766 0 
Q 1100 0 847 248 
Q 594 497 594 1153 
L 594 3053 
L 172 3053 
L 172 3500 
L 594 3500 
L 594 4494 
L 1172 4494 
z
" transform="scale(0.015625)"/>
       </defs>
       <use xlink:href="#DejaVuSans-54"/>
       <use xlink:href="#DejaVuSans-65" x="44.083984"/>
       <use xlink:href="#DejaVuSans-6d" x="105.607422"/>
       <use xlink:href="#DejaVuSans-70" x="203.019531"/>
       <use xlink:href="#DejaVuSans-6c" x="266.496094"/>
       <use xlink:href="#DejaVuSans-61" x="294.279297"/>
       <use xlink:href="#DejaVuSans-74" x="355.558594"/>
       <use xlink:href="#DejaVuSans-65" x="394.767578"/>
      </g>
     </g>
    </g>
    <g id="xtick_3">
     <g id="text_3">
      <!-- Backbone -->
      <g style="fill: #262626" transform="translate(289.478183 648.975944) rotate(-45) scale(0.2 -0.2)">
       <defs>
        <path id="DejaVuSans-42" d="M 1259 2228 
L 1259 519 
L 2272 519 
Q 2781 519 3026 730 
Q 3272 941 3272 1375 
Q 3272 1813 3026 2020 
Q 2781 2228 2272 2228 
L 1259 2228 
z
M 1259 4147 
L 1259 2741 
L 2194 2741 
Q 2656 2741 2882 2914 
Q 3109 3088 3109 3444 
Q 3109 3797 2882 3972 
Q 2656 4147 2194 4147 
L 1259 4147 
z
M 628 4666 
L 2241 4666 
Q 2963 4666 3353 4366 
Q 3744 4066 3744 3513 
Q 3744 3084 3544 2831 
Q 3344 2578 2956 2516 
Q 3422 2416 3680 2098 
Q 3938 1781 3938 1306 
Q 3938 681 3513 340 
Q 3088 0 2303 0 
L 628 0 
L 628 4666 
z
" transform="scale(0.015625)"/>
        <path id="DejaVuSans-63" d="M 3122 3366 
L 3122 2828 
Q 2878 2963 2633 3030 
Q 2388 3097 2138 3097 
Q 1578 3097 1268 2742 
Q 959 2388 959 1747 
Q 959 1106 1268 751 
Q 1578 397 2138 397 
Q 2388 397 2633 464 
Q 2878 531 3122 666 
L 3122 134 
Q 2881 22 2623 -34 
Q 2366 -91 2075 -91 
Q 1284 -91 818 406 
Q 353 903 353 1747 
Q 353 2603 823 3093 
Q 1294 3584 2113 3584 
Q 2378 3584 2631 3529 
Q 2884 3475 3122 3366 
z
" transform="scale(0.015625)"/>
        <path id="DejaVuSans-6b" d="M 581 4863 
L 1159 4863 
L 1159 1991 
L 2875 3500 
L 3609 3500 
L 1753 1863 
L 3688 0 
L 2938 0 
L 1159 1709 
L 1159 0 
L 581 0 
L 581 4863 
z
" transform="scale(0.015625)"/>
        <path id="DejaVuSans-62" d="M 3116 1747 
Q 3116 2381 2855 2742 
Q 2594 3103 2138 3103 
Q 1681 3103 1420 2742 
Q 1159 2381 1159 1747 
Q 1159 1113 1420 752 
Q 1681 391 2138 391 
Q 2594 391 2855 752 
Q 3116 1113 3116 1747 
z
M 1159 2969 
Q 1341 3281 1617 3432 
Q 1894 3584 2278 3584 
Q 2916 3584 3314 3078 
Q 3713 2572 3713 1747 
Q 3713 922 3314 415 
Q 2916 -91 2278 -91 
Q 1894 -91 1617 61 
Q 1341 213 1159 525 
L 1159 0 
L 581 0 
L 581 4863 
L 1159 4863 
L 1159 2969 
z
" transform="scale(0.015625)"/>
        <path id="DejaVuSans-6f" d="M 1959 3097 
Q 1497 3097 1228 2736 
Q 959 2375 959 1747 
Q 959 1119 1226 758 
Q 1494 397 1959 397 
Q 2419 397 2687 759 
Q 2956 1122 2956 1747 
Q 2956 2369 2687 2733 
Q 2419 3097 1959 3097 
z
M 1959 3584 
Q 2709 3584 3137 3096 
Q 3566 2609 3566 1747 
Q 3566 888 3137 398 
Q 2709 -91 1959 -91 
Q 1206 -91 779 398 
Q 353 888 353 1747 
Q 353 2609 779 3096 
Q 1206 3584 1959 3584 
z
" transform="scale(0.015625)"/>
        <path id="DejaVuSans-6e" d="M 3513 2113 
L 3513 0 
L 2938 0 
L 2938 2094 
Q 2938 2591 2744 2837 
Q 2550 3084 2163 3084 
Q 1697 3084 1428 2787 
Q 1159 2491 1159 1978 
L 1159 0 
L 581 0 
L 581 3500 
L 1159 3500 
L 1159 2956 
Q 1366 3272 1645 3428 
Q 1925 3584 2291 3584 
Q 2894 3584 3203 3211 
Q 3513 2838 3513 2113 
z
" transform="scale(0.015625)"/>
       </defs>
       <use xlink:href="#DejaVuSans-42"/>
       <use xlink:href="#DejaVuSans-61" x="68.603516"/>
       <use xlink:href="#DejaVuSans-63" x="129.882812"/>
       <use xlink:href="#DejaVuSans-6b" x="184.863281"/>
       <use xlink:href="#DejaVuSans-62" x="242.773438"/>
       <use xlink:href="#DejaVuSans-6f" x="306.25"/>
       <use xlink:href="#DejaVuSans-6e" x="367.431641"/>
       <use xlink:href="#DejaVuSans-65" x="430.810547"/>
      </g>
     </g>
    </g>
    <g id="xtick_4">
     <g id="text_4">
      <!-- Heuristic C-$\beta$ -->
      <g style="fill: #262626" transform="translate(379.63517 670.706219) rotate(-45) scale(0.2 -0.2)">
       <defs>
        <path id="DejaVuSans-48" d="M 628 4666 
L 1259 4666 
L 1259 2753 
L 3553 2753 
L 3553 4666 
L 4184 4666 
L 4184 0 
L 3553 0 
L 3553 2222 
L 1259 2222 
L 1259 0 
L 628 0 
L 628 4666 
z
" transform="scale(0.015625)"/>
        <path id="DejaVuSans-75" d="M 544 1381 
L 544 3500 
L 1119 3500 
L 1119 1403 
Q 1119 906 1312 657 
Q 1506 409 1894 409 
Q 2359 409 2629 706 
Q 2900 1003 2900 1516 
L 2900 3500 
L 3475 3500 
L 3475 0 
L 2900 0 
L 2900 538 
Q 2691 219 2414 64 
Q 2138 -91 1772 -91 
Q 1169 -91 856 284 
Q 544 659 544 1381 
z
M 1991 3584 
L 1991 3584 
z
" transform="scale(0.015625)"/>
        <path id="DejaVuSans-72" d="M 2631 2963 
Q 2534 3019 2420 3045 
Q 2306 3072 2169 3072 
Q 1681 3072 1420 2755 
Q 1159 2438 1159 1844 
L 1159 0 
L 581 0 
L 581 3500 
L 1159 3500 
L 1159 2956 
Q 1341 3275 1631 3429 
Q 1922 3584 2338 3584 
Q 2397 3584 2469 3576 
Q 2541 3569 2628 3553 
L 2631 2963 
z
" transform="scale(0.015625)"/>
        <path id="DejaVuSans-69" d="M 603 3500 
L 1178 3500 
L 1178 0 
L 603 0 
L 603 3500 
z
M 603 4863 
L 1178 4863 
L 1178 4134 
L 603 4134 
L 603 4863 
z
" transform="scale(0.015625)"/>
        <path id="DejaVuSans-73" d="M 2834 3397 
L 2834 2853 
Q 2591 2978 2328 3040 
Q 2066 3103 1784 3103 
Q 1356 3103 1142 2972 
Q 928 2841 928 2578 
Q 928 2378 1081 2264 
Q 1234 2150 1697 2047 
L 1894 2003 
Q 2506 1872 2764 1633 
Q 3022 1394 3022 966 
Q 3022 478 2636 193 
Q 2250 -91 1575 -91 
Q 1294 -91 989 -36 
Q 684 19 347 128 
L 347 722 
Q 666 556 975 473 
Q 1284 391 1588 391 
Q 1994 391 2212 530 
Q 2431 669 2431 922 
Q 2431 1156 2273 1281 
Q 2116 1406 1581 1522 
L 1381 1569 
Q 847 1681 609 1914 
Q 372 2147 372 2553 
Q 372 3047 722 3315 
Q 1072 3584 1716 3584 
Q 2034 3584 2315 3537 
Q 2597 3491 2834 3397 
z
" transform="scale(0.015625)"/>
        <path id="DejaVuSans-20" transform="scale(0.015625)"/>
        <path id="DejaVuSans-43" d="M 4122 4306 
L 4122 3641 
Q 3803 3938 3442 4084 
Q 3081 4231 2675 4231 
Q 1875 4231 1450 3742 
Q 1025 3253 1025 2328 
Q 1025 1406 1450 917 
Q 1875 428 2675 428 
Q 3081 428 3442 575 
Q 3803 722 4122 1019 
L 4122 359 
Q 3791 134 3420 21 
Q 3050 -91 2638 -91 
Q 1578 -91 968 557 
Q 359 1206 359 2328 
Q 359 3453 968 4101 
Q 1578 4750 2638 4750 
Q 3056 4750 3426 4639 
Q 3797 4528 4122 4306 
z
" transform="scale(0.015625)"/>
        <path id="DejaVuSans-2d" d="M 313 2009 
L 1997 2009 
L 1997 1497 
L 313 1497 
L 313 2009 
z
" transform="scale(0.015625)"/>
        <path id="DejaVuSans-Oblique-3b2" d="M 872 216 
L 572 -1331 
L -6 -1331 
L 928 3478 
Q 1206 4903 2538 4903 
Q 3888 4903 3659 3700 
Q 3503 2844 2894 2531 
Q 3713 2250 3553 1416 
Q 3272 -69 1759 -66 
Q 1097 -63 872 216 
z
M 1019 966 
Q 1259 422 1875 425 
Q 2775 425 2966 1406 
Q 3138 2288 1675 2219 
L 1778 2750 
Q 2909 2731 3106 3750 
Q 3241 4438 2509 4434 
Q 1691 4434 1503 3459 
L 1019 966 
z
" transform="scale(0.015625)"/>
       </defs>
       <use xlink:href="#DejaVuSans-48" transform="translate(0 0.390625)"/>
       <use xlink:href="#DejaVuSans-65" transform="translate(75.195312 0.390625)"/>
       <use xlink:href="#DejaVuSans-75" transform="translate(136.71875 0.390625)"/>
       <use xlink:href="#DejaVuSans-72" transform="translate(200.097656 0.390625)"/>
       <use xlink:href="#DejaVuSans-69" transform="translate(241.210938 0.390625)"/>
       <use xlink:href="#DejaVuSans-73" transform="translate(268.994141 0.390625)"/>
       <use xlink:href="#DejaVuSans-74" transform="translate(321.09375 0.390625)"/>
       <use xlink:href="#DejaVuSans-69" transform="translate(360.302734 0.390625)"/>
       <use xlink:href="#DejaVuSans-63" transform="translate(388.085938 0.390625)"/>
       <use xlink:href="#DejaVuSans-20" transform="translate(443.066406 0.390625)"/>
       <use xlink:href="#DejaVuSans-43" transform="translate(474.853516 0.390625)"/>
       <use xlink:href="#DejaVuSans-2d" transform="translate(544.677734 0.390625)"/>
       <use xlink:href="#DejaVuSans-Oblique-3b2" transform="translate(580.761719 0.390625)"/>
      </g>
     </g>
    </g>
    <g id="xtick_5">
     <g id="text_5">
      <!-- Template C-$\beta$ -->
      <g style="fill: #262626" transform="translate(486.992529 674.94886) rotate(-45) scale(0.2 -0.2)">
       <use xlink:href="#DejaVuSans-54" transform="translate(0 0.390625)"/>
       <use xlink:href="#DejaVuSans-65" transform="translate(61.083984 0.390625)"/>
       <use xlink:href="#DejaVuSans-6d" transform="translate(122.607422 0.390625)"/>
       <use xlink:href="#DejaVuSans-70" transform="translate(220.019531 0.390625)"/>
       <use xlink:href="#DejaVuSans-6c" transform="translate(283.496094 0.390625)"/>
       <use xlink:href="#DejaVuSans-61" transform="translate(311.279297 0.390625)"/>
       <use xlink:href="#DejaVuSans-74" transform="translate(372.558594 0.390625)"/>
       <use xlink:href="#DejaVuSans-65" transform="translate(411.767578 0.390625)"/>
       <use xlink:href="#DejaVuSans-20" transform="translate(473.291016 0.390625)"/>
       <use xlink:href="#DejaVuSans-43" transform="translate(505.078125 0.390625)"/>
       <use xlink:href="#DejaVuSans-2d" transform="translate(574.902344 0.390625)"/>
       <use xlink:href="#DejaVuSans-Oblique-3b2" transform="translate(610.986328 0.390625)"/>
      </g>
     </g>
    </g>
    <g id="xtick_6">
     <g id="text_6">
      <!-- AttnPacker -->
      <g style="fill: #262626" transform="translate(617.905383 655.348744) rotate(-45) scale(0.2 -0.2)">
       <defs>
        <path id="DejaVuSans-50" d="M 1259 4147 
L 1259 2394 
L 2053 2394 
Q 2494 2394 2734 2622 
Q 2975 2850 2975 3272 
Q 2975 3691 2734 3919 
Q 2494 4147 2053 4147 
L 1259 4147 
z
M 628 4666 
L 2053 4666 
Q 2838 4666 3239 4311 
Q 3641 3956 3641 3272 
Q 3641 2581 3239 2228 
Q 2838 1875 2053 1875 
L 1259 1875 
L 1259 0 
L 628 0 
L 628 4666 
z
" transform="scale(0.015625)"/>
       </defs>
       <use xlink:href="#DejaVuSans-41"/>
       <use xlink:href="#DejaVuSans-74" x="66.658203"/>
       <use xlink:href="#DejaVuSans-74" x="105.867188"/>
       <use xlink:href="#DejaVuSans-6e" x="145.076172"/>
       <use xlink:href="#DejaVuSans-50" x="208.455078"/>
       <use xlink:href="#DejaVuSans-61" x="264.257812"/>
       <use xlink:href="#DejaVuSans-63" x="325.537109"/>
       <use xlink:href="#DejaVuSans-6b" x="380.517578"/>
       <use xlink:href="#DejaVuSans-65" x="434.802734"/>
       <use xlink:href="#DejaVuSans-72" x="496.326172"/>
      </g>
     </g>
    </g>
    <g id="xtick_7">
     <g id="text_7">
      <!-- AttnPacker (AF2) -->
      <g style="fill: #262626" transform="translate(687.169574 697.684553) rotate(-45) scale(0.2 -0.2)">
       <defs>
        <path id="DejaVuSans-28" d="M 1984 4856 
Q 1566 4138 1362 3434 
Q 1159 2731 1159 2009 
Q 1159 1288 1364 580 
Q 1569 -128 1984 -844 
L 1484 -844 
Q 1016 -109 783 600 
Q 550 1309 550 2009 
Q 550 2706 781 3412 
Q 1013 4119 1484 4856 
L 1984 4856 
z
" transform="scale(0.015625)"/>
        <path id="DejaVuSans-46" d="M 628 4666 
L 3309 4666 
L 3309 4134 
L 1259 4134 
L 1259 2759 
L 3109 2759 
L 3109 2228 
L 1259 2228 
L 1259 0 
L 628 0 
L 628 4666 
z
" transform="scale(0.015625)"/>
        <path id="DejaVuSans-32" d="M 1228 531 
L 3431 531 
L 3431 0 
L 469 0 
L 469 531 
Q 828 903 1448 1529 
Q 2069 2156 2228 2338 
Q 2531 2678 2651 2914 
Q 2772 3150 2772 3378 
Q 2772 3750 2511 3984 
Q 2250 4219 1831 4219 
Q 1534 4219 1204 4116 
Q 875 4013 500 3803 
L 500 4441 
Q 881 4594 1212 4672 
Q 1544 4750 1819 4750 
Q 2544 4750 2975 4387 
Q 3406 4025 3406 3419 
Q 3406 3131 3298 2873 
Q 3191 2616 2906 2266 
Q 2828 2175 2409 1742 
Q 1991 1309 1228 531 
z
" transform="scale(0.015625)"/>
        <path id="DejaVuSans-29" d="M 513 4856 
L 1013 4856 
Q 1481 4119 1714 3412 
Q 1947 2706 1947 2009 
Q 1947 1309 1714 600 
Q 1481 -109 1013 -844 
L 513 -844 
Q 928 -128 1133 580 
Q 1338 1288 1338 2009 
Q 1338 2731 1133 3434 
Q 928 4138 513 4856 
z
" transform="scale(0.015625)"/>
       </defs>
       <use xlink:href="#DejaVuSans-41"/>
       <use xlink:href="#DejaVuSans-74" x="66.658203"/>
       <use xlink:href="#DejaVuSans-74" x="105.867188"/>
       <use xlink:href="#DejaVuSans-6e" x="145.076172"/>
       <use xlink:href="#DejaVuSans-50" x="208.455078"/>
       <use xlink:href="#DejaVuSans-61" x="264.257812"/>
       <use xlink:href="#DejaVuSans-63" x="325.537109"/>
       <use xlink:href="#DejaVuSans-6b" x="380.517578"/>
       <use xlink:href="#DejaVuSans-65" x="434.802734"/>
       <use xlink:href="#DejaVuSans-72" x="496.326172"/>
       <use xlink:href="#DejaVuSans-20" x="537.439453"/>
       <use xlink:href="#DejaVuSans-28" x="569.226562"/>
       <use xlink:href="#DejaVuSans-41" x="608.240234"/>
       <use xlink:href="#DejaVuSans-46" x="676.648438"/>
       <use xlink:href="#DejaVuSans-32" x="734.167969"/>
       <use xlink:href="#DejaVuSans-29" x="797.791016"/>
      </g>
     </g>
    </g>
   </g>
   <g id="matplotlib.axis_2">
    <g id="ytick_1">
     <g id="line2d_1">
      <path d="M 69.3625 542.474277 
L 850.5625 542.474277 
" clip-path="url(#pc8156b47cc)" style="fill: none; stroke: #cccccc; stroke-width: 0.8; stroke-linecap: round"/>
     </g>
     <g id="text_8">
      <!-- 0.0 -->
      <g style="fill: #262626" transform="translate(30.55625 550.072715) scale(0.2 -0.2)">
       <defs>
        <path id="DejaVuSans-30" d="M 2034 4250 
Q 1547 4250 1301 3770 
Q 1056 3291 1056 2328 
Q 1056 1369 1301 889 
Q 1547 409 2034 409 
Q 2525 409 2770 889 
Q 3016 1369 3016 2328 
Q 3016 3291 2770 3770 
Q 2525 4250 2034 4250 
z
M 2034 4750 
Q 2819 4750 3233 4129 
Q 3647 3509 3647 2328 
Q 3647 1150 3233 529 
Q 2819 -91 2034 -91 
Q 1250 -91 836 529 
Q 422 1150 422 2328 
Q 422 3509 836 4129 
Q 1250 4750 2034 4750 
z
" transform="scale(0.015625)"/>
        <path id="DejaVuSans-2e" d="M 684 794 
L 1344 794 
L 1344 0 
L 684 0 
L 684 794 
z
" transform="scale(0.015625)"/>
       </defs>
       <use xlink:href="#DejaVuSans-30"/>
       <use xlink:href="#DejaVuSans-2e" x="63.623047"/>
       <use xlink:href="#DejaVuSans-30" x="95.410156"/>
      </g>
     </g>
    </g>
    <g id="ytick_2">
     <g id="line2d_2">
      <path d="M 69.3625 471.884913 
L 850.5625 471.884913 
" clip-path="url(#pc8156b47cc)" style="fill: none; stroke: #cccccc; stroke-width: 0.8; stroke-linecap: round"/>
     </g>
     <g id="text_9">
      <!-- 0.2 -->
      <g style="fill: #262626" transform="translate(30.55625 479.483351) scale(0.2 -0.2)">
       <use xlink:href="#DejaVuSans-30"/>
       <use xlink:href="#DejaVuSans-2e" x="63.623047"/>
       <use xlink:href="#DejaVuSans-32" x="95.410156"/>
      </g>
     </g>
    </g>
    <g id="ytick_3">
     <g id="line2d_3">
      <path d="M 69.3625 401.295549 
L 850.5625 401.295549 
" clip-path="url(#pc8156b47cc)" style="fill: none; stroke: #cccccc; stroke-width: 0.8; stroke-linecap: round"/>
     </g>
     <g id="text_10">
      <!-- 0.4 -->
      <g style="fill: #262626" transform="translate(30.55625 408.893987) scale(0.2 -0.2)">
       <defs>
        <path id="DejaVuSans-34" d="M 2419 4116 
L 825 1625 
L 2419 1625 
L 2419 4116 
z
M 2253 4666 
L 3047 4666 
L 3047 1625 
L 3713 1625 
L 3713 1100 
L 3047 1100 
L 3047 0 
L 2419 0 
L 2419 1100 
L 313 1100 
L 313 1709 
L 2253 4666 
z
" transform="scale(0.015625)"/>
       </defs>
       <use xlink:href="#DejaVuSans-30"/>
       <use xlink:href="#DejaVuSans-2e" x="63.623047"/>
       <use xlink:href="#DejaVuSans-34" x="95.410156"/>
      </g>
     </g>
    </g>
    <g id="ytick_4">
     <g id="line2d_4">
      <path d="M 69.3625 330.706186 
L 850.5625 330.706186 
" clip-path="url(#pc8156b47cc)" style="fill: none; stroke: #cccccc; stroke-width: 0.8; stroke-linecap: round"/>
     </g>
     <g id="text_11">
      <!-- 0.6 -->
      <g style="fill: #262626" transform="translate(30.55625 338.304623) scale(0.2 -0.2)">
       <defs>
        <path id="DejaVuSans-36" d="M 2113 2584 
Q 1688 2584 1439 2293 
Q 1191 2003 1191 1497 
Q 1191 994 1439 701 
Q 1688 409 2113 409 
Q 2538 409 2786 701 
Q 3034 994 3034 1497 
Q 3034 2003 2786 2293 
Q 2538 2584 2113 2584 
z
M 3366 4563 
L 3366 3988 
Q 3128 4100 2886 4159 
Q 2644 4219 2406 4219 
Q 1781 4219 1451 3797 
Q 1122 3375 1075 2522 
Q 1259 2794 1537 2939 
Q 1816 3084 2150 3084 
Q 2853 3084 3261 2657 
Q 3669 2231 3669 1497 
Q 3669 778 3244 343 
Q 2819 -91 2113 -91 
Q 1303 -91 875 529 
Q 447 1150 447 2328 
Q 447 3434 972 4092 
Q 1497 4750 2381 4750 
Q 2619 4750 2861 4703 
Q 3103 4656 3366 4563 
z
" transform="scale(0.015625)"/>
       </defs>
       <use xlink:href="#DejaVuSans-30"/>
       <use xlink:href="#DejaVuSans-2e" x="63.623047"/>
       <use xlink:href="#DejaVuSans-36" x="95.410156"/>
      </g>
     </g>
    </g>
    <g id="ytick_5">
     <g id="line2d_5">
      <path d="M 69.3625 260.116822 
L 850.5625 260.116822 
" clip-path="url(#pc8156b47cc)" style="fill: none; stroke: #cccccc; stroke-width: 0.8; stroke-linecap: round"/>
     </g>
     <g id="text_12">
      <!-- 0.8 -->
      <g style="fill: #262626" transform="translate(30.55625 267.715259) scale(0.2 -0.2)">
       <defs>
        <path id="DejaVuSans-38" d="M 2034 2216 
Q 1584 2216 1326 1975 
Q 1069 1734 1069 1313 
Q 1069 891 1326 650 
Q 1584 409 2034 409 
Q 2484 409 2743 651 
Q 3003 894 3003 1313 
Q 3003 1734 2745 1975 
Q 2488 2216 2034 2216 
z
M 1403 2484 
Q 997 2584 770 2862 
Q 544 3141 544 3541 
Q 544 4100 942 4425 
Q 1341 4750 2034 4750 
Q 2731 4750 3128 4425 
Q 3525 4100 3525 3541 
Q 3525 3141 3298 2862 
Q 3072 2584 2669 2484 
Q 3125 2378 3379 2068 
Q 3634 1759 3634 1313 
Q 3634 634 3220 271 
Q 2806 -91 2034 -91 
Q 1263 -91 848 271 
Q 434 634 434 1313 
Q 434 1759 690 2068 
Q 947 2378 1403 2484 
z
M 1172 3481 
Q 1172 3119 1398 2916 
Q 1625 2713 2034 2713 
Q 2441 2713 2670 2916 
Q 2900 3119 2900 3481 
Q 2900 3844 2670 4047 
Q 2441 4250 2034 4250 
Q 1625 4250 1398 4047 
Q 1172 3844 1172 3481 
z
" transform="scale(0.015625)"/>
       </defs>
       <use xlink:href="#DejaVuSans-30"/>
       <use xlink:href="#DejaVuSans-2e" x="63.623047"/>
       <use xlink:href="#DejaVuSans-38" x="95.410156"/>
      </g>
     </g>
    </g>
    <g id="ytick_6">
     <g id="line2d_6">
      <path d="M 69.3625 189.527458 
L 850.5625 189.527458 
" clip-path="url(#pc8156b47cc)" style="fill: none; stroke: #cccccc; stroke-width: 0.8; stroke-linecap: round"/>
     </g>
     <g id="text_13">
      <!-- 1.0 -->
      <g style="fill: #262626" transform="translate(30.55625 197.125895) scale(0.2 -0.2)">
       <defs>
        <path id="DejaVuSans-31" d="M 794 531 
L 1825 531 
L 1825 4091 
L 703 3866 
L 703 4441 
L 1819 4666 
L 2450 4666 
L 2450 531 
L 3481 531 
L 3481 0 
L 794 0 
L 794 531 
z
" transform="scale(0.015625)"/>
       </defs>
       <use xlink:href="#DejaVuSans-31"/>
       <use xlink:href="#DejaVuSans-2e" x="63.623047"/>
       <use xlink:href="#DejaVuSans-30" x="95.410156"/>
      </g>
     </g>
    </g>
    <g id="ytick_7">
     <g id="line2d_7">
      <path d="M 69.3625 118.938094 
L 850.5625 118.938094 
" clip-path="url(#pc8156b47cc)" style="fill: none; stroke: #cccccc; stroke-width: 0.8; stroke-linecap: round"/>
     </g>
     <g id="text_14">
      <!-- 1.2 -->
      <g style="fill: #262626" transform="translate(30.55625 126.536531) scale(0.2 -0.2)">
       <use xlink:href="#DejaVuSans-31"/>
       <use xlink:href="#DejaVuSans-2e" x="63.623047"/>
       <use xlink:href="#DejaVuSans-32" x="95.410156"/>
      </g>
     </g>
    </g>
    <g id="ytick_8">
     <g id="line2d_8">
      <path d="M 69.3625 48.34873 
L 850.5625 48.34873 
" clip-path="url(#pc8156b47cc)" style="fill: none; stroke: #cccccc; stroke-width: 0.8; stroke-linecap: round"/>
     </g>
     <g id="text_15">
      <!-- 1.4 -->
      <g style="fill: #262626" transform="translate(30.55625 55.947167) scale(0.2 -0.2)">
       <use xlink:href="#DejaVuSans-31"/>
       <use xlink:href="#DejaVuSans-2e" x="63.623047"/>
       <use xlink:href="#DejaVuSans-34" x="95.410156"/>
      </g>
     </g>
    </g>
    <g id="text_16">
     <!-- MAE 3 (rad) -->
     <g style="fill: #262626" transform="translate(22.396875 343.296875) rotate(-90) scale(0.2 -0.2)">
      <defs>
       <path id="DejaVuSans-45" d="M 628 4666 
L 3578 4666 
L 3578 4134 
L 1259 4134 
L 1259 2753 
L 3481 2753 
L 3481 2222 
L 1259 2222 
L 1259 531 
L 3634 531 
L 3634 0 
L 628 0 
L 628 4666 
z
" transform="scale(0.015625)"/>
       <path id="DejaVuSans-33" d="M 2597 2516 
Q 3050 2419 3304 2112 
Q 3559 1806 3559 1356 
Q 3559 666 3084 287 
Q 2609 -91 1734 -91 
Q 1441 -91 1130 -33 
Q 819 25 488 141 
L 488 750 
Q 750 597 1062 519 
Q 1375 441 1716 441 
Q 2309 441 2620 675 
Q 2931 909 2931 1356 
Q 2931 1769 2642 2001 
Q 2353 2234 1838 2234 
L 1294 2234 
L 1294 2753 
L 1863 2753 
Q 2328 2753 2575 2939 
Q 2822 3125 2822 3475 
Q 2822 3834 2567 4026 
Q 2313 4219 1838 4219 
Q 1578 4219 1281 4162 
Q 984 4106 628 3988 
L 628 4550 
Q 988 4650 1302 4700 
Q 1616 4750 1894 4750 
Q 2613 4750 3031 4423 
Q 3450 4097 3450 3541 
Q 3450 3153 3228 2886 
Q 3006 2619 2597 2516 
z
" transform="scale(0.015625)"/>
       <path id="DejaVuSans-64" d="M 2906 2969 
L 2906 4863 
L 3481 4863 
L 3481 0 
L 2906 0 
L 2906 525 
Q 2725 213 2448 61 
Q 2172 -91 1784 -91 
Q 1150 -91 751 415 
Q 353 922 353 1747 
Q 353 2572 751 3078 
Q 1150 3584 1784 3584 
Q 2172 3584 2448 3432 
Q 2725 3281 2906 2969 
z
M 947 1747 
Q 947 1113 1208 752 
Q 1469 391 1925 391 
Q 2381 391 2643 752 
Q 2906 1113 2906 1747 
Q 2906 2381 2643 2742 
Q 2381 3103 1925 3103 
Q 1469 3103 1208 2742 
Q 947 2381 947 1747 
z
" transform="scale(0.015625)"/>
      </defs>
      <use xlink:href="#DejaVuSans-4d"/>
      <use xlink:href="#DejaVuSans-41" x="86.279297"/>
      <use xlink:href="#DejaVuSans-45" x="154.6875"/>
      <use xlink:href="#DejaVuSans-20" x="217.871094"/>
      <use xlink:href="#DejaVuSans-33" x="249.658203"/>
      <use xlink:href="#DejaVuSans-20" x="313.28125"/>
      <use xlink:href="#DejaVuSans-28" x="345.068359"/>
      <use xlink:href="#DejaVuSans-72" x="384.082031"/>
      <use xlink:href="#DejaVuSans-61" x="425.195312"/>
      <use xlink:href="#DejaVuSans-64" x="486.474609"/>
      <use xlink:href="#DejaVuSans-29" x="549.951172"/>
     </g>
    </g>
   </g>
   <g id="PolyCollection_1">
    <defs>
     <path id="m9da46679d9" d="M 125.469298 -296.906077 
L 124.855702 -296.906077 
L 124.739329 -300.729507 
L 124.592161 -304.552937 
L 124.411241 -308.376368 
L 124.195115 -312.199798 
L 123.94431 -316.023228 
L 123.661629 -319.846658 
L 123.352142 -323.670089 
L 123.02277 -327.493519 
L 122.681421 -331.316949 
L 122.335697 -335.14038 
L 121.991287 -338.96381 
L 121.650249 -342.78724 
L 121.309454 -346.61067 
L 120.959491 -350.434101 
L 120.584319 -354.257531 
L 120.161851 -358.080961 
L 119.665541 -361.904392 
L 119.066873 -365.727822 
L 118.338459 -369.551252 
L 117.457336 -373.374682 
L 116.407956 -377.198113 
L 115.184357 -381.021543 
L 113.79112 -384.844973 
L 112.242895 -388.668403 
L 110.562514 -392.491834 
L 108.777998 -396.315264 
L 106.918949 -400.138694 
L 105.013001 -403.962125 
L 103.082976 -407.785555 
L 101.145296 -411.608985 
L 99.209963 -415.432415 
L 97.282084 -419.255846 
L 95.364646 -423.079276 
L 93.461949 -426.902706 
L 91.582988 -430.726137 
L 89.744088 -434.549567 
L 87.970216 -438.372997 
L 86.294684 -442.196427 
L 84.757227 -446.019858 
L 83.400747 -449.843288 
L 82.267211 -453.666718 
L 81.39333 -457.490149 
L 80.806637 -461.313579 
L 80.5225 -465.137009 
L 80.542459 -468.960439 
L 80.854071 -472.78387 
L 81.432278 -476.6073 
L 82.242084 -480.43073 
L 83.242221 -484.254161 
L 84.389313 -488.077591 
L 85.642022 -491.901021 
L 86.964631 -495.724451 
L 88.329634 -499.547882 
L 89.719004 -503.371312 
L 91.124053 -507.194742 
L 92.543993 -511.018173 
L 93.983521 -514.841603 
L 95.44989 -518.665033 
L 96.949962 -522.488463 
L 98.487703 -526.311894 
L 100.062456 -530.135324 
L 101.668116 -533.958754 
L 103.2932 -537.782185 
L 104.921631 -541.605615 
L 106.533983 -545.429045 
L 108.108949 -549.252475 
L 109.624822 -553.075906 
L 111.060866 -556.899336 
L 112.398529 -560.722766 
L 113.622492 -564.546197 
L 114.721572 -568.369627 
L 115.689441 -572.193057 
L 116.525133 -576.016487 
L 117.233239 -579.839918 
L 117.823703 -583.663348 
L 118.311181 -587.486778 
L 118.713951 -591.310209 
L 119.052476 -595.133639 
L 119.347758 -598.957069 
L 119.619692 -602.780499 
L 119.885604 -606.60393 
L 120.159155 -610.42736 
L 120.449691 -614.25079 
L 120.762078 -618.074221 
L 121.096971 -621.897651 
L 121.451423 -625.721081 
L 121.819715 -629.544511 
L 122.194292 -633.367942 
L 122.566696 -637.191372 
L 122.92842 -641.014802 
L 123.271632 -644.838233 
L 123.589724 -648.661663 
L 123.877695 -652.485093 
L 124.132335 -656.308523 
L 124.352242 -660.131954 
L 124.537692 -663.955384 
L 124.690381 -667.778814 
L 124.813095 -671.602245 
L 124.909347 -675.425675 
L 125.415653 -675.425675 
L 125.415653 -675.425675 
L 125.511905 -671.602245 
L 125.634619 -667.778814 
L 125.787308 -663.955384 
L 125.972758 -660.131954 
L 126.192665 -656.308523 
L 126.447305 -652.485093 
L 126.735276 -648.661663 
L 127.053368 -644.838233 
L 127.39658 -641.014802 
L 127.758304 -637.191372 
L 128.130708 -633.367942 
L 128.505285 -629.544511 
L 128.873577 -625.721081 
L 129.228029 -621.897651 
L 129.562922 -618.074221 
L 129.875309 -614.25079 
L 130.165845 -610.42736 
L 130.439396 -606.60393 
L 130.705308 -602.780499 
L 130.977242 -598.957069 
L 131.272524 -595.133639 
L 131.611049 -591.310209 
L 132.013819 -587.486778 
L 132.501297 -583.663348 
L 133.091761 -579.839918 
L 133.799867 -576.016487 
L 134.635559 -572.193057 
L 135.603428 -568.369627 
L 136.702508 -564.546197 
L 137.926471 -560.722766 
L 139.264134 -556.899336 
L 140.700178 -553.075906 
L 142.216051 -549.252475 
L 143.791017 -545.429045 
L 145.403369 -541.605615 
L 147.0318 -537.782185 
L 148.656884 -533.958754 
L 150.262544 -530.135324 
L 151.837297 -526.311894 
L 153.375038 -522.488463 
L 154.87511 -518.665033 
L 156.341479 -514.841603 
L 157.781007 -511.018173 
L 159.200947 -507.194742 
L 160.605996 -503.371312 
L 161.995366 -499.547882 
L 163.360369 -495.724451 
L 164.682978 -491.901021 
L 165.935687 -488.077591 
L 167.082779 -484.254161 
L 168.082916 -480.43073 
L 168.892722 -476.6073 
L 169.470929 -472.78387 
L 169.782541 -468.960439 
L 169.8025 -465.137009 
L 169.518363 -461.313579 
L 168.93167 -457.490149 
L 168.057789 -453.666718 
L 166.924253 -449.843288 
L 165.567773 -446.019858 
L 164.030316 -442.196427 
L 162.354784 -438.372997 
L 160.580912 -434.549567 
L 158.742012 -430.726137 
L 156.863051 -426.902706 
L 154.960354 -423.079276 
L 153.042916 -419.255846 
L 151.115037 -415.432415 
L 149.179704 -411.608985 
L 147.242024 -407.785555 
L 145.311999 -403.962125 
L 143.406051 -400.138694 
L 141.547002 -396.315264 
L 139.762486 -392.491834 
L 138.082105 -388.668403 
L 136.53388 -384.844973 
L 135.140643 -381.021543 
L 133.917044 -377.198113 
L 132.867664 -373.374682 
L 131.986541 -369.551252 
L 131.258127 -365.727822 
L 130.659459 -361.904392 
L 130.163149 -358.080961 
L 129.740681 -354.257531 
L 129.365509 -350.434101 
L 129.015546 -346.61067 
L 128.674751 -342.78724 
L 128.333713 -338.96381 
L 127.989303 -335.14038 
L 127.643579 -331.316949 
L 127.30223 -327.493519 
L 126.972858 -323.670089 
L 126.663371 -319.846658 
L 126.38069 -316.023228 
L 126.129885 -312.199798 
L 125.913759 -308.376368 
L 125.732839 -304.552937 
L 125.585671 -300.729507 
L 125.469298 -296.906077 
z
" style="stroke: #3d3d3d; stroke-opacity: 0.5"/>
    </defs>
    <g clip-path="url(#pc8156b47cc)">
     <use xlink:href="#m9da46679d9" x="0" y="707.825675" style="fill: #3274a1; fill-opacity: 0.5; stroke: #3d3d3d; stroke-opacity: 0.5"/>
    </g>
   </g>
   <g id="PolyCollection_2">
    <defs>
     <path id="mec6f4cc7c9" d="M 237.081053 -171.425675 
L 236.443947 -171.425675 
L 236.322642 -175.874903 
L 236.169842 -180.324131 
L 235.983212 -184.773359 
L 235.762387 -189.222587 
L 235.509548 -193.671815 
L 235.229787 -198.121042 
L 234.931124 -202.57027 
L 234.624084 -207.019498 
L 234.320776 -211.468726 
L 234.033532 -215.917954 
L 233.773232 -220.367182 
L 233.547525 -224.81641 
L 233.359221 -229.265638 
L 233.205126 -233.714866 
L 233.075539 -238.164094 
L 232.954566 -242.613322 
L 232.82124 -247.06255 
L 232.65134 -251.511778 
L 232.41967 -255.961005 
L 232.102459 -260.410233 
L 231.679569 -264.859461 
L 231.136161 -269.308689 
L 230.463608 -273.757917 
L 229.659545 -278.207145 
L 228.727074 -282.656373 
L 227.673339 -287.105601 
L 226.507751 -291.554829 
L 225.240264 -296.004057 
L 223.880075 -300.453285 
L 222.435056 -304.902513 
L 220.912068 -309.351741 
L 219.318071 -313.800969 
L 217.661731 -318.250196 
L 215.955042 -322.699424 
L 214.21441 -327.148652 
L 212.460691 -331.59788 
L 210.717939 -336.047108 
L 209.010921 -340.496336 
L 207.361833 -344.945564 
L 205.786951 -349.394792 
L 204.294075 -353.84402 
L 202.881569 -358.293248 
L 201.539482 -362.742476 
L 200.252794 -367.191704 
L 199.006334 -371.640932 
L 197.790507 -376.090159 
L 196.6067 -380.539387 
L 195.471266 -384.988615 
L 194.417193 -389.437843 
L 193.493007 -393.887071 
L 192.758925 -398.336299 
L 192.280767 -402.785527 
L 192.1225 -407.234755 
L 192.338479 -411.683983 
L 192.966477 -416.133211 
L 194.022451 -420.582439 
L 195.497719 -425.031667 
L 197.358892 -429.480895 
L 199.550496 -433.930123 
L 201.999913 -438.37935 
L 204.623944 -442.828578 
L 207.336108 -447.277806 
L 210.053742 -451.727034 
L 212.70402 -456.176262 
L 215.228207 -460.62549 
L 217.583763 -465.074718 
L 219.744283 -469.523946 
L 221.697548 -473.973174 
L 223.442303 -478.422402 
L 224.984462 -482.87163 
L 226.333517 -487.320858 
L 227.499753 -491.770086 
L 228.492667 -496.219314 
L 229.320693 -500.668541 
L 229.992034 -505.117769 
L 230.516206 -509.566997 
L 230.905747 -514.016225 
L 231.177553 -518.465453 
L 231.353438 -522.914681 
L 231.459655 -527.363909 
L 231.525406 -531.813137 
L 231.580554 -536.262365 
L 231.652929 -540.711593 
L 231.765693 -545.160821 
L 231.93521 -549.610049 
L 232.169776 -554.059277 
L 232.46937 -558.508504 
L 232.826434 -562.957732 
L 233.22749 -567.40696 
L 233.655302 -571.856188 
L 234.091212 -576.305416 
L 234.517322 -580.754644 
L 234.918245 -585.203872 
L 235.282256 -589.6531 
L 235.601806 -594.102328 
L 235.873457 -598.551556 
L 236.097364 -603.000784 
L 236.276485 -607.450012 
L 236.415671 -611.89924 
L 237.109329 -611.89924 
L 237.109329 -611.89924 
L 237.248515 -607.450012 
L 237.427636 -603.000784 
L 237.651543 -598.551556 
L 237.923194 -594.102328 
L 238.242744 -589.6531 
L 238.606755 -585.203872 
L 239.007678 -580.754644 
L 239.433788 -576.305416 
L 239.869698 -571.856188 
L 240.29751 -567.40696 
L 240.698566 -562.957732 
L 241.05563 -558.508504 
L 241.355224 -554.059277 
L 241.58979 -549.610049 
L 241.759307 -545.160821 
L 241.872071 -540.711593 
L 241.944446 -536.262365 
L 241.999594 -531.813137 
L 242.065345 -527.363909 
L 242.171562 -522.914681 
L 242.347447 -518.465453 
L 242.619253 -514.016225 
L 243.008794 -509.566997 
L 243.532966 -505.117769 
L 244.204307 -500.668541 
L 245.032333 -496.219314 
L 246.025247 -491.770086 
L 247.191483 -487.320858 
L 248.540538 -482.87163 
L 250.082697 -478.422402 
L 251.827452 -473.973174 
L 253.780717 -469.523946 
L 255.941237 -465.074718 
L 258.296793 -460.62549 
L 260.82098 -456.176262 
L 263.471258 -451.727034 
L 266.188892 -447.277806 
L 268.901056 -442.828578 
L 271.525087 -438.37935 
L 273.974504 -433.930123 
L 276.166108 -429.480895 
L 278.027281 -425.031667 
L 279.502549 -420.582439 
L 280.558523 -416.133211 
L 281.186521 -411.683983 
L 281.4025 -407.234755 
L 281.244233 -402.785527 
L 280.766075 -398.336299 
L 280.031993 -393.887071 
L 279.107807 -389.437843 
L 278.053734 -384.988615 
L 276.9183 -380.539387 
L 275.734493 -376.090159 
L 274.518666 -371.640932 
L 273.272206 -367.191704 
L 271.985518 -362.742476 
L 270.643431 -358.293248 
L 269.230925 -353.84402 
L 267.738049 -349.394792 
L 266.163167 -344.945564 
L 264.514079 -340.496336 
L 262.807061 -336.047108 
L 261.064309 -331.59788 
L 259.31059 -327.148652 
L 257.569958 -322.699424 
L 255.863269 -318.250196 
L 254.206929 -313.800969 
L 252.612932 -309.351741 
L 251.089944 -304.902513 
L 249.644925 -300.453285 
L 248.284736 -296.004057 
L 247.017249 -291.554829 
L 245.851661 -287.105601 
L 244.797926 -282.656373 
L 243.865455 -278.207145 
L 243.061392 -273.757917 
L 242.388839 -269.308689 
L 241.845431 -264.859461 
L 241.422541 -260.410233 
L 241.10533 -255.961005 
L 240.87366 -251.511778 
L 240.70376 -247.06255 
L 240.570434 -242.613322 
L 240.449461 -238.164094 
L 240.319874 -233.714866 
L 240.165779 -229.265638 
L 239.977475 -224.81641 
L 239.751768 -220.367182 
L 239.491468 -215.917954 
L 239.204224 -211.468726 
L 238.900916 -207.019498 
L 238.593876 -202.57027 
L 238.295213 -198.121042 
L 238.015452 -193.671815 
L 237.762613 -189.222587 
L 237.541788 -184.773359 
L 237.355158 -180.324131 
L 237.202358 -175.874903 
L 237.081053 -171.425675 
z
" style="stroke: #3d3d3d; stroke-opacity: 0.5"/>
    </defs>
    <g clip-path="url(#pc8156b47cc)">
     <use xlink:href="#mec6f4cc7c9" x="0" y="707.825675" style="fill: #d684bd; fill-opacity: 0.5; stroke: #3d3d3d; stroke-opacity: 0.5"/>
    </g>
   </g>
   <g id="PolyCollection_3">
    <defs>
     <path id="mb3ec92a2fd" d="M 348.671092 -331.40343 
L 348.053908 -331.40343 
L 347.944482 -334.746197 
L 347.805446 -338.088963 
L 347.631876 -341.431729 
L 347.418854 -344.774495 
L 347.161661 -348.117261 
L 346.855952 -351.460027 
L 346.49791 -354.802793 
L 346.084344 -358.145559 
L 345.612728 -361.488325 
L 345.081183 -364.831092 
L 344.488376 -368.173858 
L 343.83338 -371.516624 
L 343.11549 -374.85939 
L 342.334026 -378.202156 
L 341.488132 -381.544922 
L 340.576612 -384.887688 
L 339.597787 -388.230454 
L 338.549415 -391.57322 
L 337.42865 -394.915987 
L 336.232074 -398.258753 
L 334.955795 -401.601519 
L 333.595631 -404.944285 
L 332.147408 -408.287051 
L 330.607411 -411.629817 
L 328.973007 -414.972583 
L 327.24348 -418.315349 
L 325.42106 -421.658115 
L 323.512118 -425.000882 
L 321.528407 -428.343648 
L 319.488194 -431.686414 
L 317.417066 -435.02918 
L 315.348148 -438.371946 
L 313.32152 -441.714712 
L 311.38266 -445.057478 
L 309.57988 -448.400244 
L 307.960871 -451.74301 
L 306.568664 -455.085777 
L 305.437478 -458.428543 
L 304.588991 -461.771309 
L 304.029639 -465.114075 
L 303.749418 -468.456841 
L 303.7225 -471.799607 
L 303.909712 -475.142373 
L 304.262663 -478.485139 
L 304.729009 -481.827905 
L 305.258189 -485.170672 
L 305.806856 -488.513438 
L 306.343251 -491.856204 
L 306.849957 -495.19897 
L 307.324659 -498.541736 
L 307.778877 -501.884502 
L 308.234891 -505.227268 
L 308.721378 -508.570034 
L 309.268401 -511.912801 
L 309.90251 -515.255567 
L 310.642633 -518.598333 
L 311.49731 -521.941099 
L 312.463593 -525.283865 
L 313.527688 -528.626631 
L 314.667137 -531.969397 
L 315.854127 -535.312163 
L 317.059386 -538.654929 
L 318.256038 -541.997696 
L 319.422866 -545.340462 
L 320.546542 -548.683228 
L 321.622573 -552.025994 
L 322.65493 -555.36876 
L 323.654518 -558.711526 
L 324.636814 -562.054292 
L 325.61908 -565.397058 
L 326.617615 -568.739824 
L 327.645404 -572.082591 
L 328.710477 -575.425357 
L 329.815114 -578.768123 
L 330.955903 -582.110889 
L 332.124534 -585.453655 
L 333.309102 -588.796421 
L 334.495667 -592.139187 
L 335.669811 -595.481953 
L 336.81797 -598.824719 
L 337.928395 -602.167486 
L 338.991691 -605.510252 
L 340.000934 -608.853018 
L 340.951466 -612.195784 
L 341.840482 -615.53855 
L 342.666524 -618.881316 
L 343.42902 -622.224082 
L 344.127927 -625.566848 
L 344.763535 -628.909614 
L 345.336417 -632.252381 
L 345.84749 -635.595147 
L 346.298155 -638.937913 
L 346.690435 -642.280679 
L 347.02707 -645.623445 
L 347.311553 -648.966211 
L 347.548063 -652.308977 
L 347.741341 -655.651743 
L 347.896486 -658.994509 
L 348.018742 -662.337276 
L 348.706258 -662.337276 
L 348.706258 -662.337276 
L 348.828514 -658.994509 
L 348.983659 -655.651743 
L 349.176937 -652.308977 
L 349.413447 -648.966211 
L 349.69793 -645.623445 
L 350.034565 -642.280679 
L 350.426845 -638.937913 
L 350.87751 -635.595147 
L 351.388583 -632.252381 
L 351.961465 -628.909614 
L 352.597073 -625.566848 
L 353.29598 -622.224082 
L 354.058476 -618.881316 
L 354.884518 -615.53855 
L 355.773534 -612.195784 
L 356.724066 -608.853018 
L 357.733309 -605.510252 
L 358.796605 -602.167486 
L 359.90703 -598.824719 
L 361.055189 -595.481953 
L 362.229333 -592.139187 
L 363.415898 -588.796421 
L 364.600466 -585.453655 
L 365.769097 -582.110889 
L 366.909886 -578.768123 
L 368.014523 -575.425357 
L 369.079596 -572.082591 
L 370.107385 -568.739824 
L 371.10592 -565.397058 
L 372.088186 -562.054292 
L 373.070482 -558.711526 
L 374.07007 -555.36876 
L 375.102427 -552.025994 
L 376.178458 -548.683228 
L 377.302134 -545.340462 
L 378.468962 -541.997696 
L 379.665614 -538.654929 
L 380.870873 -535.312163 
L 382.057863 -531.969397 
L 383.197312 -528.626631 
L 384.261407 -525.283865 
L 385.22769 -521.941099 
L 386.082367 -518.598333 
L 386.82249 -515.255567 
L 387.456599 -511.912801 
L 388.003622 -508.570034 
L 388.490109 -505.227268 
L 388.946123 -501.884502 
L 389.400341 -498.541736 
L 389.875043 -495.19897 
L 390.381749 -491.856204 
L 390.918144 -488.513438 
L 391.466811 -485.170672 
L 391.995991 -481.827905 
L 392.462337 -478.485139 
L 392.815288 -475.142373 
L 393.0025 -471.799607 
L 392.975582 -468.456841 
L 392.695361 -465.114075 
L 392.136009 -461.771309 
L 391.287522 -458.428543 
L 390.156336 -455.085777 
L 388.764129 -451.74301 
L 387.14512 -448.400244 
L 385.34234 -445.057478 
L 383.40348 -441.714712 
L 381.376852 -438.371946 
L 379.307934 -435.02918 
L 377.236806 -431.686414 
L 375.196593 -428.343648 
L 373.212882 -425.000882 
L 371.30394 -421.658115 
L 369.48152 -418.315349 
L 367.751993 -414.972583 
L 366.117589 -411.629817 
L 364.577592 -408.287051 
L 363.129369 -404.944285 
L 361.769205 -401.601519 
L 360.492926 -398.258753 
L 359.29635 -394.915987 
L 358.175585 -391.57322 
L 357.127213 -388.230454 
L 356.148388 -384.887688 
L 355.236868 -381.544922 
L 354.390974 -378.202156 
L 353.60951 -374.85939 
L 352.89162 -371.516624 
L 352.236624 -368.173858 
L 351.643817 -364.831092 
L 351.112272 -361.488325 
L 350.640656 -358.145559 
L 350.22709 -354.802793 
L 349.869048 -351.460027 
L 349.563339 -348.117261 
L 349.306146 -344.774495 
L 349.093124 -341.431729 
L 348.919554 -338.088963 
L 348.780518 -334.746197 
L 348.671092 -331.40343 
z
" style="stroke: #3d3d3d; stroke-opacity: 0.5"/>
    </defs>
    <g clip-path="url(#pc8156b47cc)">
     <use xlink:href="#mb3ec92a2fd" x="0" y="707.825675" style="fill: #c03d3e; fill-opacity: 0.5; stroke: #3d3d3d; stroke-opacity: 0.5"/>
    </g>
   </g>
   <g id="PolyCollection_4">
    <defs>
     <path id="m87475e928b" d="M 460.223965 -276.116636 
L 459.701035 -276.116636 
L 459.616022 -279.721954 
L 459.511662 -283.327272 
L 459.386209 -286.932591 
L 459.238438 -290.537909 
L 459.06773 -294.143227 
L 458.874073 -297.748545 
L 458.657949 -301.353864 
L 458.420104 -304.959182 
L 458.161184 -308.5645 
L 457.881297 -312.169818 
L 457.579509 -315.775136 
L 457.253363 -319.380455 
L 456.898465 -322.985773 
L 456.508208 -326.591091 
L 456.073672 -330.196409 
L 455.583725 -333.801727 
L 455.025341 -337.407046 
L 454.384085 -341.012364 
L 453.64477 -344.617682 
L 452.792216 -348.223 
L 451.812095 -351.828318 
L 450.691819 -355.433637 
L 449.421459 -359.038955 
L 447.994665 -362.644273 
L 446.409548 -366.249591 
L 444.669503 -369.85491 
L 442.78387 -373.460228 
L 440.768392 -377.065546 
L 438.645341 -380.670864 
L 436.443245 -384.276182 
L 434.196151 -387.881501 
L 431.942396 -391.486819 
L 429.722921 -395.092137 
L 427.579219 -398.697455 
L 425.551061 -402.302773 
L 423.674181 -405.908092 
L 421.978137 -409.51341 
L 420.484531 -413.118728 
L 419.205777 -416.724046 
L 418.144534 -420.329364 
L 417.293877 -423.934683 
L 416.638211 -427.540001 
L 416.154867 -431.145319 
L 415.81627 -434.750637 
L 415.592524 -438.355956 
L 415.45422 -441.961274 
L 415.375249 -445.566592 
L 415.335402 -449.17191 
L 415.3225 -452.777228 
L 415.333862 -456.382547 
L 415.376895 -459.987865 
L 415.468695 -463.593183 
L 415.634584 -467.198501 
L 415.905648 -470.803819 
L 416.315435 -474.409138 
L 416.896085 -478.014456 
L 417.674279 -481.619774 
L 418.667425 -485.225092 
L 419.880539 -488.83041 
L 421.304199 -492.435729 
L 422.913882 -496.041047 
L 424.670808 -499.646365 
L 426.524288 -503.251683 
L 428.415365 -506.857002 
L 430.281416 -510.46232 
L 432.061251 -514.067638 
L 433.700213 -517.672956 
L 435.154751 -521.278274 
L 436.396023 -524.883593 
L 437.412175 -528.488911 
L 438.209074 -532.094229 
L 438.809448 -535.699547 
L 439.250527 -539.304865 
L 439.580439 -542.910184 
L 439.853736 -546.515502 
L 440.126501 -550.12082 
L 440.451513 -553.726138 
L 440.87394 -557.331456 
L 441.427936 -560.936775 
L 442.134436 -564.542093 
L 443.000269 -568.147411 
L 444.018591 -571.752729 
L 445.17048 -575.358048 
L 446.427457 -578.963366 
L 447.754568 -582.568684 
L 449.113706 -586.174002 
L 450.466803 -589.77932 
L 451.77862 -593.384639 
L 453.018924 -596.989957 
L 454.163941 -600.595275 
L 455.197055 -604.200593 
L 456.108824 -607.805911 
L 456.896427 -611.41123 
L 457.562693 -615.016548 
L 458.114894 -618.621866 
L 458.563443 -622.227184 
L 458.920644 -625.832503 
L 459.199578 -629.437821 
L 459.413206 -633.043139 
L 460.511794 -633.043139 
L 460.511794 -633.043139 
L 460.725422 -629.437821 
L 461.004356 -625.832503 
L 461.361557 -622.227184 
L 461.810106 -618.621866 
L 462.362307 -615.016548 
L 463.028573 -611.41123 
L 463.816176 -607.805911 
L 464.727945 -604.200593 
L 465.761059 -600.595275 
L 466.906076 -596.989957 
L 468.14638 -593.384639 
L 469.458197 -589.77932 
L 470.811294 -586.174002 
L 472.170432 -582.568684 
L 473.497543 -578.963366 
L 474.75452 -575.358048 
L 475.906409 -571.752729 
L 476.924731 -568.147411 
L 477.790564 -564.542093 
L 478.497064 -560.936775 
L 479.05106 -557.331456 
L 479.473487 -553.726138 
L 479.798499 -550.12082 
L 480.071264 -546.515502 
L 480.344561 -542.910184 
L 480.674473 -539.304865 
L 481.115552 -535.699547 
L 481.715926 -532.094229 
L 482.512825 -528.488911 
L 483.528977 -524.883593 
L 484.770249 -521.278274 
L 486.224787 -517.672956 
L 487.863749 -514.067638 
L 489.643584 -510.46232 
L 491.509635 -506.857002 
L 493.400712 -503.251683 
L 495.254192 -499.646365 
L 497.011118 -496.041047 
L 498.620801 -492.435729 
L 500.044461 -488.83041 
L 501.257575 -485.225092 
L 502.250721 -481.619774 
L 503.028915 -478.014456 
L 503.609565 -474.409138 
L 504.019352 -470.803819 
L 504.290416 -467.198501 
L 504.456305 -463.593183 
L 504.548105 -459.987865 
L 504.591138 -456.382547 
L 504.6025 -452.777228 
L 504.589598 -449.17191 
L 504.549751 -445.566592 
L 504.47078 -441.961274 
L 504.332476 -438.355956 
L 504.10873 -434.750637 
L 503.770133 -431.145319 
L 503.286789 -427.540001 
L 502.631123 -423.934683 
L 501.780466 -420.329364 
L 500.719223 -416.724046 
L 499.440469 -413.118728 
L 497.946863 -409.51341 
L 496.250819 -405.908092 
L 494.373939 -402.302773 
L 492.345781 -398.697455 
L 490.202079 -395.092137 
L 487.982604 -391.486819 
L 485.728849 -387.881501 
L 483.481755 -384.276182 
L 481.279659 -380.670864 
L 479.156608 -377.065546 
L 477.14113 -373.460228 
L 475.255497 -369.85491 
L 473.515452 -366.249591 
L 471.930335 -362.644273 
L 470.503541 -359.038955 
L 469.233181 -355.433637 
L 468.112905 -351.828318 
L 467.132784 -348.223 
L 466.28023 -344.617682 
L 465.540915 -341.012364 
L 464.899659 -337.407046 
L 464.341275 -333.801727 
L 463.851328 -330.196409 
L 463.416792 -326.591091 
L 463.026535 -322.985773 
L 462.671637 -319.380455 
L 462.345491 -315.775136 
L 462.043703 -312.169818 
L 461.763816 -308.5645 
L 461.504896 -304.959182 
L 461.267051 -301.353864 
L 461.050927 -297.748545 
L 460.85727 -294.143227 
L 460.686562 -290.537909 
L 460.538791 -286.932591 
L 460.413338 -283.327272 
L 460.308978 -279.721954 
L 460.223965 -276.116636 
z
" style="stroke: #3d3d3d; stroke-opacity: 0.5"/>
    </defs>
    <g clip-path="url(#pc8156b47cc)">
     <use xlink:href="#m87475e928b" x="0" y="707.825675" style="fill: #9372b2; fill-opacity: 0.5; stroke: #3d3d3d; stroke-opacity: 0.5"/>
    </g>
   </g>
   <g id="PolyCollection_5">
    <defs>
     <path id="m7ea53621b1" d="M 572.003123 -301.789853 
L 571.121877 -301.789853 
L 570.949851 -305.435325 
L 570.723587 -309.080798 
L 570.430843 -312.72627 
L 570.05821 -316.371743 
L 569.591483 -320.017215 
L 569.016211 -323.662688 
L 568.318406 -327.30816 
L 567.485406 -330.953633 
L 566.506855 -334.599105 
L 565.375746 -338.244578 
L 564.089439 -341.89005 
L 562.650567 -345.535523 
L 561.067701 -349.180996 
L 559.355666 -352.826468 
L 557.535414 -356.471941 
L 555.63337 -360.117413 
L 553.680248 -363.762886 
L 551.709374 -367.408358 
L 549.754625 -371.053831 
L 547.848155 -374.699303 
L 546.018146 -378.344776 
L 544.286806 -381.990248 
L 542.668873 -385.635721 
L 541.170816 -389.281193 
L 539.790854 -392.926666 
L 538.519846 -396.572139 
L 537.34297 -400.217611 
L 536.242034 -403.863084 
L 535.198172 -407.508556 
L 534.194617 -411.154029 
L 533.219216 -414.799501 
L 532.266395 -418.444974 
L 531.338308 -422.090446 
L 530.445015 -425.735919 
L 529.603633 -429.381391 
L 528.836547 -433.026864 
L 528.168869 -436.672336 
L 527.625441 -440.317809 
L 527.227747 -443.963282 
L 526.991105 -447.608754 
L 526.9225 -451.254227 
L 527.019325 -454.899699 
L 527.269211 -458.545172 
L 527.650975 -462.190644 
L 528.136611 -465.836117 
L 528.694101 -469.481589 
L 529.290758 -473.127062 
L 529.896743 -476.772534 
L 530.488366 -480.418007 
L 531.050821 -484.063479 
L 531.580026 -487.708952 
L 532.083363 -491.354425 
L 532.579165 -494.999897 
L 533.094978 -498.64537 
L 533.664731 -502.290842 
L 534.32508 -505.936315 
L 535.111309 -509.581787 
L 536.053239 -513.22726 
L 537.171612 -516.872732 
L 538.475383 -520.518205 
L 539.960245 -524.163677 
L 541.608574 -527.80915 
L 543.390784 -531.454622 
L 545.267926 -535.100095 
L 547.195194 -538.745568 
L 549.125887 -542.39104 
L 551.015355 -546.036513 
L 552.824462 -549.681985 
L 554.522199 -553.327458 
L 556.08723 -556.97293 
L 557.508283 -560.618403 
L 558.783493 -564.263875 
L 559.91891 -567.909348 
L 560.926463 -571.55482 
L 561.821729 -575.200293 
L 562.621799 -578.845765 
L 563.343489 -582.491238 
L 564.002027 -586.136711 
L 564.610281 -589.782183 
L 565.178457 -593.427656 
L 565.714182 -597.073128 
L 566.222824 -600.718601 
L 566.707911 -604.364073 
L 567.171555 -608.009546 
L 567.614795 -611.655018 
L 568.037859 -615.300491 
L 568.440337 -618.945963 
L 568.82132 -622.591436 
L 569.179518 -626.236908 
L 569.513406 -629.882381 
L 569.821401 -633.527854 
L 570.102063 -637.173326 
L 570.354294 -640.818799 
L 570.57752 -644.464271 
L 570.771812 -648.109744 
L 570.937944 -651.755216 
L 571.077371 -655.400689 
L 571.192135 -659.046161 
L 571.28473 -662.691634 
L 571.84027 -662.691634 
L 571.84027 -662.691634 
L 571.932865 -659.046161 
L 572.047629 -655.400689 
L 572.187056 -651.755216 
L 572.353188 -648.109744 
L 572.54748 -644.464271 
L 572.770706 -640.818799 
L 573.022937 -637.173326 
L 573.303599 -633.527854 
L 573.611594 -629.882381 
L 573.945482 -626.236908 
L 574.30368 -622.591436 
L 574.684663 -618.945963 
L 575.087141 -615.300491 
L 575.510205 -611.655018 
L 575.953445 -608.009546 
L 576.417089 -604.364073 
L 576.902176 -600.718601 
L 577.410818 -597.073128 
L 577.946543 -593.427656 
L 578.514719 -589.782183 
L 579.122973 -586.136711 
L 579.781511 -582.491238 
L 580.503201 -578.845765 
L 581.303271 -575.200293 
L 582.198537 -571.55482 
L 583.20609 -567.909348 
L 584.341507 -564.263875 
L 585.616717 -560.618403 
L 587.03777 -556.97293 
L 588.602801 -553.327458 
L 590.300538 -549.681985 
L 592.109645 -546.036513 
L 593.999113 -542.39104 
L 595.929806 -538.745568 
L 597.857074 -535.100095 
L 599.734216 -531.454622 
L 601.516426 -527.80915 
L 603.164755 -524.163677 
L 604.649617 -520.518205 
L 605.953388 -516.872732 
L 607.071761 -513.22726 
L 608.013691 -509.581787 
L 608.79992 -505.936315 
L 609.460269 -502.290842 
L 610.030022 -498.64537 
L 610.545835 -494.999897 
L 611.041637 -491.354425 
L 611.544974 -487.708952 
L 612.074179 -484.063479 
L 612.636634 -480.418007 
L 613.228257 -476.772534 
L 613.834242 -473.127062 
L 614.430899 -469.481589 
L 614.988389 -465.836117 
L 615.474025 -462.190644 
L 615.855789 -458.545172 
L 616.105675 -454.899699 
L 616.2025 -451.254227 
L 616.133895 -447.608754 
L 615.897253 -443.963282 
L 615.499559 -440.317809 
L 614.956131 -436.672336 
L 614.288453 -433.026864 
L 613.521367 -429.381391 
L 612.679985 -425.735919 
L 611.786692 -422.090446 
L 610.858605 -418.444974 
L 609.905784 -414.799501 
L 608.930383 -411.154029 
L 607.926828 -407.508556 
L 606.882966 -403.863084 
L 605.78203 -400.217611 
L 604.605154 -396.572139 
L 603.334146 -392.926666 
L 601.954184 -389.281193 
L 600.456127 -385.635721 
L 598.838194 -381.990248 
L 597.106854 -378.344776 
L 595.276845 -374.699303 
L 593.370375 -371.053831 
L 591.415626 -367.408358 
L 589.444752 -363.762886 
L 587.49163 -360.117413 
L 585.589586 -356.471941 
L 583.769334 -352.826468 
L 582.057299 -349.180996 
L 580.474433 -345.535523 
L 579.035561 -341.89005 
L 577.749254 -338.244578 
L 576.618145 -334.599105 
L 575.639594 -330.953633 
L 574.806594 -327.30816 
L 574.108789 -323.662688 
L 573.533517 -320.017215 
L 573.06679 -316.371743 
L 572.694157 -312.72627 
L 572.401413 -309.080798 
L 572.175149 -305.435325 
L 572.003123 -301.789853 
z
" style="stroke: #3d3d3d; stroke-opacity: 0.5"/>
    </defs>
    <g clip-path="url(#pc8156b47cc)">
     <use xlink:href="#m7ea53621b1" x="0" y="707.825675" style="fill: #845b53; fill-opacity: 0.5; stroke: #3d3d3d; stroke-opacity: 0.5"/>
    </g>
   </g>
   <g id="PolyCollection_6">
    <defs>
     <path id="m9cca5dbfd1" d="M 683.404864 -271.058878 
L 682.920136 -271.058878 
L 682.830556 -274.896929 
L 682.717435 -278.73498 
L 682.577891 -282.573031 
L 682.409541 -286.411082 
L 682.21061 -290.249133 
L 681.979934 -294.087185 
L 681.716837 -297.925236 
L 681.420912 -301.763287 
L 681.091724 -305.601338 
L 680.728535 -309.439389 
L 680.330124 -313.27744 
L 679.894768 -317.115491 
L 679.420435 -320.953543 
L 678.905158 -324.791594 
L 678.347501 -328.629645 
L 677.747005 -332.467696 
L 677.104429 -336.305747 
L 676.421679 -340.143798 
L 675.701326 -343.98185 
L 674.945745 -347.819901 
L 674.156001 -351.657952 
L 673.330672 -355.496003 
L 672.464894 -359.334054 
L 671.549852 -363.172105 
L 670.572927 -367.010156 
L 669.518563 -370.848208 
L 668.369802 -374.686259 
L 667.110314 -378.52431 
L 665.726628 -382.362361 
L 664.21025 -386.200412 
L 662.559362 -390.038463 
L 660.779859 -393.876514 
L 658.885607 -397.714566 
L 656.897954 -401.552617 
L 654.844635 -405.390668 
L 652.758331 -409.228719 
L 650.675173 -413.06677 
L 648.633434 -416.904821 
L 646.672599 -420.742873 
L 644.832781 -424.580924 
L 643.154375 -428.418975 
L 641.677632 -432.257026 
L 640.44186 -436.095077 
L 639.483935 -439.933128 
L 638.836009 -443.771179 
L 638.5225 -447.609231 
L 638.556708 -451.447282 
L 638.937605 -455.285333 
L 639.647465 -459.123384 
L 640.650963 -462.961435 
L 641.896196 -466.799486 
L 643.317781 -470.637537 
L 644.841852 -474.475589 
L 646.392406 -478.31364 
L 647.898232 -482.151691 
L 649.299517 -485.989742 
L 650.553257 -489.827793 
L 651.636811 -493.665844 
L 652.54919 -497.503896 
L 653.310004 -501.341947 
L 653.956314 -505.179998 
L 654.537855 -509.018049 
L 655.111257 -512.8561 
L 655.733941 -516.694151 
L 656.458318 -520.532202 
L 657.32682 -524.370254 
L 658.368165 -528.208305 
L 659.595098 -532.046356 
L 661.003703 -535.884407 
L 662.574239 -539.722458 
L 664.273351 -543.560509 
L 666.057353 -547.39856 
L 667.876252 -551.236612 
L 669.6781 -555.074663 
L 671.413237 -558.912714 
L 673.038063 -562.750765 
L 674.517996 -566.588816 
L 675.829403 -570.426867 
L 676.960404 -574.264919 
L 677.910553 -578.10297 
L 678.689534 -581.941021 
L 679.315091 -585.779072 
L 679.810464 -589.617123 
L 680.201639 -593.455174 
L 680.514719 -597.293225 
L 680.773671 -601.131277 
L 680.998637 -604.969328 
L 681.204934 -608.807379 
L 681.402742 -612.64543 
L 681.597411 -616.483481 
L 681.790259 -620.321532 
L 681.979649 -624.159583 
L 682.162183 -627.997635 
L 682.333812 -631.835686 
L 682.490748 -635.673737 
L 682.630091 -639.511788 
L 682.750162 -643.349839 
L 682.850572 -647.18789 
L 682.932077 -651.025942 
L 683.392923 -651.025942 
L 683.392923 -651.025942 
L 683.474428 -647.18789 
L 683.574838 -643.349839 
L 683.694909 -639.511788 
L 683.834252 -635.673737 
L 683.991188 -631.835686 
L 684.162817 -627.997635 
L 684.345351 -624.159583 
L 684.534741 -620.321532 
L 684.727589 -616.483481 
L 684.922258 -612.64543 
L 685.120066 -608.807379 
L 685.326363 -604.969328 
L 685.551329 -601.131277 
L 685.810281 -597.293225 
L 686.123361 -593.455174 
L 686.514536 -589.617123 
L 687.009909 -585.779072 
L 687.635466 -581.941021 
L 688.414447 -578.10297 
L 689.364596 -574.264919 
L 690.495597 -570.426867 
L 691.807004 -566.588816 
L 693.286937 -562.750765 
L 694.911763 -558.912714 
L 696.6469 -555.074663 
L 698.448748 -551.236612 
L 700.267647 -547.39856 
L 702.051649 -543.560509 
L 703.750761 -539.722458 
L 705.321297 -535.884407 
L 706.729902 -532.046356 
L 707.956835 -528.208305 
L 708.99818 -524.370254 
L 709.866682 -520.532202 
L 710.591059 -516.694151 
L 711.213743 -512.8561 
L 711.787145 -509.018049 
L 712.368686 -505.179998 
L 713.014996 -501.341947 
L 713.77581 -497.503896 
L 714.688189 -493.665844 
L 715.771743 -489.827793 
L 717.025483 -485.989742 
L 718.426768 -482.151691 
L 719.932594 -478.31364 
L 721.483148 -474.475589 
L 723.007219 -470.637537 
L 724.428804 -466.799486 
L 725.674037 -462.961435 
L 726.677535 -459.123384 
L 727.387395 -455.285333 
L 727.768292 -451.447282 
L 727.8025 -447.609231 
L 727.488991 -443.771179 
L 726.841065 -439.933128 
L 725.88314 -436.095077 
L 724.647368 -432.257026 
L 723.170625 -428.418975 
L 721.492219 -424.580924 
L 719.652401 -420.742873 
L 717.691566 -416.904821 
L 715.649827 -413.06677 
L 713.566669 -409.228719 
L 711.480365 -405.390668 
L 709.427046 -401.552617 
L 707.439393 -397.714566 
L 705.545141 -393.876514 
L 703.765638 -390.038463 
L 702.11475 -386.200412 
L 700.598372 -382.362361 
L 699.214686 -378.52431 
L 697.955198 -374.686259 
L 696.806437 -370.848208 
L 695.752073 -367.010156 
L 694.775148 -363.172105 
L 693.860106 -359.334054 
L 692.994328 -355.496003 
L 692.168999 -351.657952 
L 691.379255 -347.819901 
L 690.623674 -343.98185 
L 689.903321 -340.143798 
L 689.220571 -336.305747 
L 688.577995 -332.467696 
L 687.977499 -328.629645 
L 687.419842 -324.791594 
L 686.904565 -320.953543 
L 686.430232 -317.115491 
L 685.994876 -313.27744 
L 685.596465 -309.439389 
L 685.233276 -305.601338 
L 684.904088 -301.763287 
L 684.608163 -297.925236 
L 684.345066 -294.087185 
L 684.11439 -290.249133 
L 683.915459 -286.411082 
L 683.747109 -282.573031 
L 683.607565 -278.73498 
L 683.494444 -274.896929 
L 683.404864 -271.058878 
z
" style="stroke: #3d3d3d; stroke-opacity: 0.5"/>
    </defs>
    <g clip-path="url(#pc8156b47cc)">
     <use xlink:href="#m9cca5dbfd1" x="0" y="707.825675" style="fill: #e1812c; fill-opacity: 0.5; stroke: #3d3d3d; stroke-opacity: 0.5"/>
    </g>
   </g>
   <g id="PolyCollection_7">
    <defs>
     <path id="m178142a8fe" d="M 794.996618 -232.613312 
L 794.528382 -232.613312 
L 794.448305 -236.482149 
L 794.350508 -240.350986 
L 794.234623 -244.219824 
L 794.101543 -248.088661 
L 793.953643 -251.957498 
L 793.794852 -255.826335 
L 793.630507 -259.695173 
L 793.466972 -263.56401 
L 793.311004 -267.432847 
L 793.168912 -271.301684 
L 793.045579 -275.170522 
L 792.943475 -279.039359 
L 792.86176 -282.908196 
L 792.795633 -286.777033 
L 792.736008 -290.645871 
L 792.669587 -294.514708 
L 792.579359 -298.383545 
L 792.445469 -302.252382 
L 792.24642 -306.12122 
L 791.96047 -309.990057 
L 791.567138 -313.858894 
L 791.048679 -317.727731 
L 790.391417 -321.596569 
L 789.586804 -325.465406 
L 788.632116 -329.334243 
L 787.53066 -333.20308 
L 786.291435 -337.071918 
L 784.928193 -340.940755 
L 783.457933 -344.809592 
L 781.898932 -348.678429 
L 780.268525 -352.547267 
L 778.580943 -356.416104 
L 776.845576 -360.284941 
L 775.066051 -364.153778 
L 773.240463 -368.022616 
L 771.36292 -371.891453 
L 769.426388 -375.76029 
L 767.426524 -379.629127 
L 765.365967 -383.497965 
L 763.258351 -387.366802 
L 761.131219 -391.235639 
L 759.027127 -395.104476 
L 757.002417 -398.973314 
L 755.12353 -402.842151 
L 753.461127 -406.710988 
L 752.082742 -410.579825 
L 751.044974 -414.448663 
L 750.386422 -418.3175 
L 750.1225 -422.186337 
L 750.243023 -426.055174 
L 750.713024 -429.924012 
L 751.476743 -433.792849 
L 752.4642 -437.661686 
L 753.599343 -441.530523 
L 754.808513 -445.399361 
L 756.027938 -449.268198 
L 757.209168 -453.137035 
L 758.321779 -457.005872 
L 759.353129 -460.87471 
L 760.305514 -464.743547 
L 761.191475 -468.612384 
L 762.028297 -472.481221 
L 762.832801 -476.350059 
L 763.6174 -480.218896 
L 764.388058 -484.087733 
L 765.14438 -487.95657 
L 765.881606 -491.825408 
L 766.593922 -495.694245 
L 767.278226 -499.563082 
L 767.937462 -503.431919 
L 768.582727 -507.300756 
L 769.233633 -511.169594 
L 769.916803 -515.038431 
L 770.662718 -518.907268 
L 771.501503 -522.776105 
L 772.458403 -526.644943 
L 773.549773 -530.51378 
L 774.780266 -534.382617 
L 776.141665 -538.251454 
L 777.613494 -542.120292 
L 779.165215 -545.989129 
L 780.759574 -549.857966 
L 782.356505 -553.726803 
L 783.916968 -557.595641 
L 785.406221 -561.464478 
L 786.796141 -565.333315 
L 788.066477 -569.202152 
L 789.205066 -573.07099 
L 790.207211 -576.939827 
L 791.074494 -580.808664 
L 791.813311 -584.677501 
L 792.433382 -588.546339 
L 792.946405 -592.415176 
L 793.364963 -596.284013 
L 793.701707 -600.15285 
L 793.968788 -604.021688 
L 794.177507 -607.890525 
L 794.338108 -611.759362 
L 794.45968 -615.628199 
L 795.06532 -615.628199 
L 795.06532 -615.628199 
L 795.186892 -611.759362 
L 795.347493 -607.890525 
L 795.556212 -604.021688 
L 795.823293 -600.15285 
L 796.160037 -596.284013 
L 796.578595 -592.415176 
L 797.091618 -588.546339 
L 797.711689 -584.677501 
L 798.450506 -580.808664 
L 799.317789 -576.939827 
L 800.319934 -573.07099 
L 801.458523 -569.202152 
L 802.728859 -565.333315 
L 804.118779 -561.464478 
L 805.608032 -557.595641 
L 807.168495 -553.726803 
L 808.765426 -549.857966 
L 810.359785 -545.989129 
L 811.911506 -542.120292 
L 813.383335 -538.251454 
L 814.744734 -534.382617 
L 815.975227 -530.51378 
L 817.066597 -526.644943 
L 818.023497 -522.776105 
L 818.862282 -518.907268 
L 819.608197 -515.038431 
L 820.291367 -511.169594 
L 820.942273 -507.300756 
L 821.587538 -503.431919 
L 822.246774 -499.563082 
L 822.931078 -495.694245 
L 823.643394 -491.825408 
L 824.38062 -487.95657 
L 825.136942 -484.087733 
L 825.9076 -480.218896 
L 826.692199 -476.350059 
L 827.496703 -472.481221 
L 828.333525 -468.612384 
L 829.219486 -464.743547 
L 830.171871 -460.87471 
L 831.203221 -457.005872 
L 832.315832 -453.137035 
L 833.497062 -449.268198 
L 834.716487 -445.399361 
L 835.925657 -441.530523 
L 837.0608 -437.661686 
L 838.048257 -433.792849 
L 838.811976 -429.924012 
L 839.281977 -426.055174 
L 839.4025 -422.186337 
L 839.138578 -418.3175 
L 838.480026 -414.448663 
L 837.442258 -410.579825 
L 836.063873 -406.710988 
L 834.40147 -402.842151 
L 832.522583 -398.973314 
L 830.497873 -395.104476 
L 828.393781 -391.235639 
L 826.266649 -387.366802 
L 824.159033 -383.497965 
L 822.098476 -379.629127 
L 820.098612 -375.76029 
L 818.16208 -371.891453 
L 816.284537 -368.022616 
L 814.458949 -364.153778 
L 812.679424 -360.284941 
L 810.944057 -356.416104 
L 809.256475 -352.547267 
L 807.626068 -348.678429 
L 806.067067 -344.809592 
L 804.596807 -340.940755 
L 803.233565 -337.071918 
L 801.99434 -333.20308 
L 800.892884 -329.334243 
L 799.938196 -325.465406 
L 799.133583 -321.596569 
L 798.476321 -317.727731 
L 797.957862 -313.858894 
L 797.56453 -309.990057 
L 797.27858 -306.12122 
L 797.079531 -302.252382 
L 796.945641 -298.383545 
L 796.855413 -294.514708 
L 796.788992 -290.645871 
L 796.729367 -286.777033 
L 796.66324 -282.908196 
L 796.581525 -279.039359 
L 796.479421 -275.170522 
L 796.356088 -271.301684 
L 796.213996 -267.432847 
L 796.058028 -263.56401 
L 795.894493 -259.695173 
L 795.730148 -255.826335 
L 795.571357 -251.957498 
L 795.423457 -248.088661 
L 795.290377 -244.219824 
L 795.174492 -240.350986 
L 795.076695 -236.482149 
L 794.996618 -232.613312 
z
" style="stroke: #3d3d3d; stroke-opacity: 0.5"/>
    </defs>
    <g clip-path="url(#pc8156b47cc)">
     <use xlink:href="#m178142a8fe" x="0" y="707.825675" style="fill: #3a923a; fill-opacity: 0.5; stroke: #3d3d3d; stroke-opacity: 0.5"/>
    </g>
   </g>
   <g id="line2d_9">
    <path d="M 125.1625 362.116961 
L 125.1625 105.20447 
" clip-path="url(#pc8156b47cc)" style="fill: none; stroke: #3d3d3d; stroke-width: 1.5; stroke-linecap: round"/>
   </g>
   <g id="line2d_10">
    <path d="M 125.1625 264.845464 
L 125.1625 194.686821 
" clip-path="url(#pc8156b47cc)" style="fill: none; stroke: #3d3d3d; stroke-width: 4.5; stroke-linecap: round"/>
   </g>
   <g id="line2d_11">
    <path d="M 125.1625 232.726867 
" clip-path="url(#pc8156b47cc)" style="fill: none; stroke: #3d3d3d; stroke-width: 1.5; stroke-linecap: round"/>
    <defs>
     <path id="m6111e0fbb3" d="M 1.875 0 
L -1.875 -0 
" style="stroke: #ffffff; stroke-width: 0.9"/>
    </defs>
    <g clip-path="url(#pc8156b47cc)">
     <use xlink:href="#m6111e0fbb3" x="125.1625" y="232.726867" style="fill: #ffffff; stroke: #ffffff; stroke-width: 0.9"/>
    </g>
   </g>
   <g id="line2d_12">
    <path d="M 236.7625 423.038316 
L 236.7625 219.390417 
" clip-path="url(#pc8156b47cc)" style="fill: none; stroke: #3d3d3d; stroke-width: 1.5; stroke-linecap: round"/>
   </g>
   <g id="line2d_13">
    <path d="M 236.7625 351.864206 
L 236.7625 279.461199 
" clip-path="url(#pc8156b47cc)" style="fill: none; stroke: #3d3d3d; stroke-width: 4.5; stroke-linecap: round"/>
   </g>
   <g id="line2d_14">
    <path d="M 236.7625 309.829257 
" clip-path="url(#pc8156b47cc)" style="fill: none; stroke: #3d3d3d; stroke-width: 1.5; stroke-linecap: round"/>
    <g clip-path="url(#pc8156b47cc)">
     <use xlink:href="#m6111e0fbb3" x="236.7625" y="309.829257" style="fill: #ffffff; stroke: #ffffff; stroke-width: 0.9"/>
    </g>
   </g>
   <g id="line2d_15">
    <path d="M 348.3625 329.420314 
L 348.3625 92.49033 
" clip-path="url(#pc8156b47cc)" style="fill: none; stroke: #3d3d3d; stroke-width: 1.5; stroke-linecap: round"/>
   </g>
   <g id="line2d_16">
    <path d="M 348.3625 247.497051 
L 348.3625 181.105569 
" clip-path="url(#pc8156b47cc)" style="fill: none; stroke: #3d3d3d; stroke-width: 4.5; stroke-linecap: round"/>
   </g>
   <g id="line2d_17">
    <path d="M 348.3625 213.449758 
" clip-path="url(#pc8156b47cc)" style="fill: none; stroke: #3d3d3d; stroke-width: 1.5; stroke-linecap: round"/>
    <g clip-path="url(#pc8156b47cc)">
     <use xlink:href="#m6111e0fbb3" x="348.3625" y="213.449758" style="fill: #ffffff; stroke: #ffffff; stroke-width: 0.9"/>
    </g>
   </g>
   <g id="line2d_18">
    <path d="M 459.9625 380.865405 
L 459.9625 125.62617 
" clip-path="url(#pc8156b47cc)" style="fill: none; stroke: #3d3d3d; stroke-width: 1.5; stroke-linecap: round"/>
   </g>
   <g id="line2d_19">
    <path d="M 459.9625 288.580876 
L 459.9625 210.792491 
" clip-path="url(#pc8156b47cc)" style="fill: none; stroke: #3d3d3d; stroke-width: 4.5; stroke-linecap: round"/>
   </g>
   <g id="line2d_20">
    <path d="M 459.9625 247.316346 
" clip-path="url(#pc8156b47cc)" style="fill: none; stroke: #3d3d3d; stroke-width: 1.5; stroke-linecap: round"/>
    <g clip-path="url(#pc8156b47cc)">
     <use xlink:href="#m6111e0fbb3" x="459.9625" y="247.316346" style="fill: #ffffff; stroke: #ffffff; stroke-width: 0.9"/>
    </g>
   </g>
   <g id="line2d_21">
    <path d="M 571.5625 354.867394 
L 571.5625 96.30247 
" clip-path="url(#pc8156b47cc)" style="fill: none; stroke: #3d3d3d; stroke-width: 1.5; stroke-linecap: round"/>
   </g>
   <g id="line2d_22">
    <path d="M 571.5625 288.668936 
L 571.5625 198.034615 
" clip-path="url(#pc8156b47cc)" style="fill: none; stroke: #3d3d3d; stroke-width: 4.5; stroke-linecap: round"/>
   </g>
   <g id="line2d_23">
    <path d="M 571.5625 254.885006 
" clip-path="url(#pc8156b47cc)" style="fill: none; stroke: #3d3d3d; stroke-width: 1.5; stroke-linecap: round"/>
    <g clip-path="url(#pc8156b47cc)">
     <use xlink:href="#m6111e0fbb3" x="571.5625" y="254.885006" style="fill: #ffffff; stroke: #ffffff; stroke-width: 0.9"/>
    </g>
   </g>
   <g id="line2d_24">
    <path d="M 683.1625 387.751654 
L 683.1625 105.814876 
" clip-path="url(#pc8156b47cc)" style="fill: none; stroke: #3d3d3d; stroke-width: 1.5; stroke-linecap: round"/>
   </g>
   <g id="line2d_25">
    <path d="M 683.1625 283.943052 
L 683.1625 204.908025 
" clip-path="url(#pc8156b47cc)" style="fill: none; stroke: #3d3d3d; stroke-width: 4.5; stroke-linecap: round"/>
   </g>
   <g id="line2d_26">
    <path d="M 683.1625 253.768015 
" clip-path="url(#pc8156b47cc)" style="fill: none; stroke: #3d3d3d; stroke-width: 1.5; stroke-linecap: round"/>
    <g clip-path="url(#pc8156b47cc)">
     <use xlink:href="#m6111e0fbb3" x="683.1625" y="253.768015" style="fill: #ffffff; stroke: #ffffff; stroke-width: 0.9"/>
    </g>
   </g>
   <g id="line2d_27">
    <path d="M 794.7625 365.702643 
L 794.7625 142.847024 
" clip-path="url(#pc8156b47cc)" style="fill: none; stroke: #3d3d3d; stroke-width: 1.5; stroke-linecap: round"/>
   </g>
   <g id="line2d_28">
    <path d="M 794.7625 299.68499 
L 794.7625 222.963775 
" clip-path="url(#pc8156b47cc)" style="fill: none; stroke: #3d3d3d; stroke-width: 4.5; stroke-linecap: round"/>
   </g>
   <g id="line2d_29">
    <path d="M 794.7625 274.04245 
" clip-path="url(#pc8156b47cc)" style="fill: none; stroke: #3d3d3d; stroke-width: 1.5; stroke-linecap: round"/>
    <g clip-path="url(#pc8156b47cc)">
     <use xlink:href="#m6111e0fbb3" x="794.7625" y="274.04245" style="fill: #ffffff; stroke: #ffffff; stroke-width: 0.9"/>
    </g>
   </g>
   <g id="patch_3">
    <path d="M 69.3625 561.6 
L 850.5625 561.6 
" style="fill: none; stroke: #cccccc; stroke-width: 0.8; stroke-linejoin: miter; stroke-linecap: square"/>
   </g>
  </g>
 </g>
 <defs>
  <clipPath id="pc8156b47cc">
   <rect x="69.3625" y="7.2" width="781.2" height="554.4"/>
  </clipPath>
 </defs>
</svg>
