<?xml version="1.0" encoding="utf-8" standalone="no"?>
<!DOCTYPE svg PUBLIC "-//W3C//DTD SVG 1.1//EN"
  "http://www.w3.org/Graphics/SVG/1.1/DTD/svg11.dtd">
<svg xmlns:xlink="http://www.w3.org/1999/xlink" width="974.392187pt" height="817.888281pt" viewBox="0 0 974.392187 817.888281" xmlns="http://www.w3.org/2000/svg" version="1.1">
 <metadata>
  <rdf:RDF xmlns:dc="http://purl.org/dc/elements/1.1/" xmlns:cc="http://creativecommons.org/ns#" xmlns:rdf="http://www.w3.org/1999/02/22-rdf-syntax-ns#">
   <cc:Work>
    <dc:type rdf:resource="http://purl.org/dc/dcmitype/StillImage"/>
    <dc:date>2023-12-03T01:59:19.334675</dc:date>
    <dc:format>image/svg+xml</dc:format>
    <dc:creator>
     <cc:Agent>
      <dc:title>Matplotlib v3.6.2, https://matplotlib.org/</dc:title>
     </cc:Agent>
    </dc:creator>
   </cc:Work>
  </rdf:RDF>
 </metadata>
 <defs>
  <style type="text/css">*{stroke-linejoin: round; stroke-linecap: butt}</style>
 </defs>
 <g id="figure_1">
  <g id="patch_1">
   <path d="M 0 817.888281 
L 974.392187 817.888281 
L 974.392187 0 
L 0 0 
L 0 817.888281 
z
" style="fill: none"/>
  </g>
  <g id="axes_1">
   <g id="patch_2">
    <path d="M 829.196094 375.297656 
C 829.196094 330.386628 820.3496 285.912302 803.162894 244.419922 
C 785.976187 202.927542 760.783506 165.22403 729.026613 133.467137 
C 697.26972 101.710244 659.566208 76.517563 618.073828 59.330856 
C 576.581448 42.14415 532.107122 33.297656 487.196094 33.297656 
C 442.285065 33.297656 397.81074 42.14415 356.31836 59.330856 
C 314.82598 76.517563 277.122467 101.710244 245.365575 133.467137 
C 213.608682 165.22403 188.416 202.927542 171.229294 244.419922 
C 154.042587 285.912302 145.196094 330.386628 145.196094 375.297656 
C 145.196094 420.208685 154.042587 464.68301 171.229294 506.17539 
C 188.416 547.66777 213.608682 585.371283 245.365575 617.128175 
C 277.122467 648.885068 314.82598 674.07775 356.31836 691.264456 
C 397.81074 708.451163 442.285065 717.297656 487.196094 717.297656 
C 532.107122 717.297656 576.581448 708.451163 618.073828 691.264456 
C 659.566208 674.07775 697.26972 648.885068 729.026613 617.128175 
C 760.783506 585.371283 785.976187 547.66777 803.162894 506.17539 
C 820.3496 464.68301 829.196094 420.208685 829.196094 375.297656 
M 487.196094 375.297656 
C 487.196094 375.297656 487.196094 375.297656 487.196094 375.297656 
C 487.196094 375.297656 487.196094 375.297656 487.196094 375.297656 
C 487.196094 375.297656 487.196094 375.297656 487.196094 375.297656 
C 487.196094 375.297656 487.196094 375.297656 487.196094 375.297656 
C 487.196094 375.297656 487.196094 375.297656 487.196094 375.297656 
C 487.196094 375.297656 487.196094 375.297656 487.196094 375.297656 
C 487.196094 375.297656 487.196094 375.297656 487.196094 375.297656 
C 487.196094 375.297656 487.196094 375.297656 487.196094 375.297656 
C 487.196094 375.297656 487.196094 375.297656 487.196094 375.297656 
C 487.196094 375.297656 487.196094 375.297656 487.196094 375.297656 
C 487.196094 375.297656 487.196094 375.297656 487.196094 375.297656 
C 487.196094 375.297656 487.196094 375.297656 487.196094 375.297656 
C 487.196094 375.297656 487.196094 375.297656 487.196094 375.297656 
C 487.196094 375.297656 487.196094 375.297656 487.196094 375.297656 
C 487.196094 375.297656 487.196094 375.297656 487.196094 375.297656 
C 487.196094 375.297656 487.196094 375.297656 487.196094 375.297656 
M 829.196094 375.297656 
L 829.196094 375.297656 
z
" style="fill: none"/>
   </g>
   <g id="matplotlib.axis_1">
    <g id="xtick_1">
     <g id="line2d_1">
      <path d="M 487.196094 375.297656 
L 487.196094 33.297656 
" clip-path="url(#p9088a70851)" style="fill: none; stroke: #000000; stroke-width: 0.5; stroke-linecap: square"/>
     </g>
     <g id="text_1">
      <!-- TM-Score -->
      <g transform="translate(429.260547 26.196094) scale(0.25 -0.25)">
       <defs>
        <path id="DejaVuSans-54" d="M -19 4666 
L 3928 4666 
L 3928 4134 
L 2272 4134 
L 2272 0 
L 1638 0 
L 1638 4134 
L -19 4134 
L -19 4666 
z
" transform="scale(0.015625)"/>
        <path id="DejaVuSans-4d" d="M 628 4666 
L 1569 4666 
L 2759 1491 
L 3956 4666 
L 4897 4666 
L 4897 0 
L 4281 0 
L 4281 4097 
L 3078 897 
L 2444 897 
L 1241 4097 
L 1241 0 
L 628 0 
L 628 4666 
z
" transform="scale(0.015625)"/>
        <path id="DejaVuSans-2d" d="M 313 2009 
L 1997 2009 
L 1997 1497 
L 313 1497 
L 313 2009 
z
" transform="scale(0.015625)"/>
        <path id="DejaVuSans-53" d="M 3425 4513 
L 3425 3897 
Q 3066 4069 2747 4153 
Q 2428 4238 2131 4238 
Q 1616 4238 1336 4038 
Q 1056 3838 1056 3469 
Q 1056 3159 1242 3001 
Q 1428 2844 1947 2747 
L 2328 2669 
Q 3034 2534 3370 2195 
Q 3706 1856 3706 1288 
Q 3706 609 3251 259 
Q 2797 -91 1919 -91 
Q 1588 -91 1214 -16 
Q 841 59 441 206 
L 441 856 
Q 825 641 1194 531 
Q 1563 422 1919 422 
Q 2459 422 2753 634 
Q 3047 847 3047 1241 
Q 3047 1584 2836 1778 
Q 2625 1972 2144 2069 
L 1759 2144 
Q 1053 2284 737 2584 
Q 422 2884 422 3419 
Q 422 4038 858 4394 
Q 1294 4750 2059 4750 
Q 2388 4750 2728 4690 
Q 3069 4631 3425 4513 
z
" transform="scale(0.015625)"/>
        <path id="DejaVuSans-63" d="M 3122 3366 
L 3122 2828 
Q 2878 2963 2633 3030 
Q 2388 3097 2138 3097 
Q 1578 3097 1268 2742 
Q 959 2388 959 1747 
Q 959 1106 1268 751 
Q 1578 397 2138 397 
Q 2388 397 2633 464 
Q 2878 531 3122 666 
L 3122 134 
Q 2881 22 2623 -34 
Q 2366 -91 2075 -91 
Q 1284 -91 818 406 
Q 353 903 353 1747 
Q 353 2603 823 3093 
Q 1294 3584 2113 3584 
Q 2378 3584 2631 3529 
Q 2884 3475 3122 3366 
z
" transform="scale(0.015625)"/>
        <path id="DejaVuSans-6f" d="M 1959 3097 
Q 1497 3097 1228 2736 
Q 959 2375 959 1747 
Q 959 1119 1226 758 
Q 1494 397 1959 397 
Q 2419 397 2687 759 
Q 2956 1122 2956 1747 
Q 2956 2369 2687 2733 
Q 2419 3097 1959 3097 
z
M 1959 3584 
Q 2709 3584 3137 3096 
Q 3566 2609 3566 1747 
Q 3566 888 3137 398 
Q 2709 -91 1959 -91 
Q 1206 -91 779 398 
Q 353 888 353 1747 
Q 353 2609 779 3096 
Q 1206 3584 1959 3584 
z
" transform="scale(0.015625)"/>
        <path id="DejaVuSans-72" d="M 2631 2963 
Q 2534 3019 2420 3045 
Q 2306 3072 2169 3072 
Q 1681 3072 1420 2755 
Q 1159 2438 1159 1844 
L 1159 0 
L 581 0 
L 581 3500 
L 1159 3500 
L 1159 2956 
Q 1341 3275 1631 3429 
Q 1922 3584 2338 3584 
Q 2397 3584 2469 3576 
Q 2541 3569 2628 3553 
L 2631 2963 
z
" transform="scale(0.015625)"/>
        <path id="DejaVuSans-65" d="M 3597 1894 
L 3597 1613 
L 953 1613 
Q 991 1019 1311 708 
Q 1631 397 2203 397 
Q 2534 397 2845 478 
Q 3156 559 3463 722 
L 3463 178 
Q 3153 47 2828 -22 
Q 2503 -91 2169 -91 
Q 1331 -91 842 396 
Q 353 884 353 1716 
Q 353 2575 817 3079 
Q 1281 3584 2069 3584 
Q 2775 3584 3186 3129 
Q 3597 2675 3597 1894 
z
M 3022 2063 
Q 3016 2534 2758 2815 
Q 2500 3097 2075 3097 
Q 1594 3097 1305 2825 
Q 1016 2553 972 2059 
L 3022 2063 
z
" transform="scale(0.015625)"/>
       </defs>
       <use xlink:href="#DejaVuSans-54"/>
       <use xlink:href="#DejaVuSans-4d" x="61.083984"/>
       <use xlink:href="#DejaVuSans-2d" x="147.363281"/>
       <use xlink:href="#DejaVuSans-53" x="183.447266"/>
       <use xlink:href="#DejaVuSans-63" x="246.923828"/>
       <use xlink:href="#DejaVuSans-6f" x="301.904297"/>
       <use xlink:href="#DejaVuSans-72" x="363.085938"/>
       <use xlink:href="#DejaVuSans-65" x="401.949219"/>
      </g>
     </g>
    </g>
    <g id="xtick_2">
     <g id="line2d_2">
      <path d="M 487.196094 375.297656 
L 219.809727 162.064144 
" clip-path="url(#p9088a70851)" style="fill: none; stroke: #000000; stroke-width: 0.5; stroke-linecap: square"/>
     </g>
     <g id="text_2">
      <!-- Side-chain RMSD -->
      <g transform="translate(102.465648 160.233724) scale(0.25 -0.25)">
       <defs>
        <path id="DejaVuSans-69" d="M 603 3500 
L 1178 3500 
L 1178 0 
L 603 0 
L 603 3500 
z
M 603 4863 
L 1178 4863 
L 1178 4134 
L 603 4134 
L 603 4863 
z
" transform="scale(0.015625)"/>
        <path id="DejaVuSans-64" d="M 2906 2969 
L 2906 4863 
L 3481 4863 
L 3481 0 
L 2906 0 
L 2906 525 
Q 2725 213 2448 61 
Q 2172 -91 1784 -91 
Q 1150 -91 751 415 
Q 353 922 353 1747 
Q 353 2572 751 3078 
Q 1150 3584 1784 3584 
Q 2172 3584 2448 3432 
Q 2725 3281 2906 2969 
z
M 947 1747 
Q 947 1113 1208 752 
Q 1469 391 1925 391 
Q 2381 391 2643 752 
Q 2906 1113 2906 1747 
Q 2906 2381 2643 2742 
Q 2381 3103 1925 3103 
Q 1469 3103 1208 2742 
Q 947 2381 947 1747 
z
" transform="scale(0.015625)"/>
        <path id="DejaVuSans-68" d="M 3513 2113 
L 3513 0 
L 2938 0 
L 2938 2094 
Q 2938 2591 2744 2837 
Q 2550 3084 2163 3084 
Q 1697 3084 1428 2787 
Q 1159 2491 1159 1978 
L 1159 0 
L 581 0 
L 581 4863 
L 1159 4863 
L 1159 2956 
Q 1366 3272 1645 3428 
Q 1925 3584 2291 3584 
Q 2894 3584 3203 3211 
Q 3513 2838 3513 2113 
z
" transform="scale(0.015625)"/>
        <path id="DejaVuSans-61" d="M 2194 1759 
Q 1497 1759 1228 1600 
Q 959 1441 959 1056 
Q 959 750 1161 570 
Q 1363 391 1709 391 
Q 2188 391 2477 730 
Q 2766 1069 2766 1631 
L 2766 1759 
L 2194 1759 
z
M 3341 1997 
L 3341 0 
L 2766 0 
L 2766 531 
Q 2569 213 2275 61 
Q 1981 -91 1556 -91 
Q 1019 -91 701 211 
Q 384 513 384 1019 
Q 384 1609 779 1909 
Q 1175 2209 1959 2209 
L 2766 2209 
L 2766 2266 
Q 2766 2663 2505 2880 
Q 2244 3097 1772 3097 
Q 1472 3097 1187 3025 
Q 903 2953 641 2809 
L 641 3341 
Q 956 3463 1253 3523 
Q 1550 3584 1831 3584 
Q 2591 3584 2966 3190 
Q 3341 2797 3341 1997 
z
" transform="scale(0.015625)"/>
        <path id="DejaVuSans-6e" d="M 3513 2113 
L 3513 0 
L 2938 0 
L 2938 2094 
Q 2938 2591 2744 2837 
Q 2550 3084 2163 3084 
Q 1697 3084 1428 2787 
Q 1159 2491 1159 1978 
L 1159 0 
L 581 0 
L 581 3500 
L 1159 3500 
L 1159 2956 
Q 1366 3272 1645 3428 
Q 1925 3584 2291 3584 
Q 2894 3584 3203 3211 
Q 3513 2838 3513 2113 
z
" transform="scale(0.015625)"/>
        <path id="DejaVuSans-20" transform="scale(0.015625)"/>
        <path id="DejaVuSans-52" d="M 2841 2188 
Q 3044 2119 3236 1894 
Q 3428 1669 3622 1275 
L 4263 0 
L 3584 0 
L 2988 1197 
Q 2756 1666 2539 1819 
Q 2322 1972 1947 1972 
L 1259 1972 
L 1259 0 
L 628 0 
L 628 4666 
L 2053 4666 
Q 2853 4666 3247 4331 
Q 3641 3997 3641 3322 
Q 3641 2881 3436 2590 
Q 3231 2300 2841 2188 
z
M 1259 4147 
L 1259 2491 
L 2053 2491 
Q 2509 2491 2742 2702 
Q 2975 2913 2975 3322 
Q 2975 3731 2742 3939 
Q 2509 4147 2053 4147 
L 1259 4147 
z
" transform="scale(0.015625)"/>
        <path id="DejaVuSans-44" d="M 1259 4147 
L 1259 519 
L 2022 519 
Q 2988 519 3436 956 
Q 3884 1394 3884 2338 
Q 3884 3275 3436 3711 
Q 2988 4147 2022 4147 
L 1259 4147 
z
M 628 4666 
L 1925 4666 
Q 3281 4666 3915 4102 
Q 4550 3538 4550 2338 
Q 4550 1131 3912 565 
Q 3275 0 1925 0 
L 628 0 
L 628 4666 
z
" transform="scale(0.015625)"/>
       </defs>
       <use xlink:href="#DejaVuSans-53"/>
       <use xlink:href="#DejaVuSans-69" x="63.476562"/>
       <use xlink:href="#DejaVuSans-64" x="91.259766"/>
       <use xlink:href="#DejaVuSans-65" x="154.736328"/>
       <use xlink:href="#DejaVuSans-2d" x="216.259766"/>
       <use xlink:href="#DejaVuSans-63" x="252.34375"/>
       <use xlink:href="#DejaVuSans-68" x="307.324219"/>
       <use xlink:href="#DejaVuSans-61" x="370.703125"/>
       <use xlink:href="#DejaVuSans-69" x="431.982422"/>
       <use xlink:href="#DejaVuSans-6e" x="459.765625"/>
       <use xlink:href="#DejaVuSans-20" x="523.144531"/>
       <use xlink:href="#DejaVuSans-52" x="554.931641"/>
       <use xlink:href="#DejaVuSans-4d" x="624.414062"/>
       <use xlink:href="#DejaVuSans-53" x="710.693359"/>
       <use xlink:href="#DejaVuSans-44" x="774.169922"/>
      </g>
     </g>
    </g>
    <g id="xtick_3">
     <g id="line2d_3">
      <path d="M 487.196094 375.297656 
L 153.770748 451.399816 
" clip-path="url(#p9088a70851)" style="fill: none; stroke: #000000; stroke-width: 0.5; stroke-linecap: square"/>
     </g>
     <g id="text_3">
      <!-- Accuracy -->
      <g transform="translate(83.051445 461.413546) scale(0.25 -0.25)">
       <defs>
        <path id="DejaVuSans-41" d="M 2188 4044 
L 1331 1722 
L 3047 1722 
L 2188 4044 
z
M 1831 4666 
L 2547 4666 
L 4325 0 
L 3669 0 
L 3244 1197 
L 1141 1197 
L 716 0 
L 50 0 
L 1831 4666 
z
" transform="scale(0.015625)"/>
        <path id="DejaVuSans-75" d="M 544 1381 
L 544 3500 
L 1119 3500 
L 1119 1403 
Q 1119 906 1312 657 
Q 1506 409 1894 409 
Q 2359 409 2629 706 
Q 2900 1003 2900 1516 
L 2900 3500 
L 3475 3500 
L 3475 0 
L 2900 0 
L 2900 538 
Q 2691 219 2414 64 
Q 2138 -91 1772 -91 
Q 1169 -91 856 284 
Q 544 659 544 1381 
z
M 1991 3584 
L 1991 3584 
z
" transform="scale(0.015625)"/>
        <path id="DejaVuSans-79" d="M 2059 -325 
Q 1816 -950 1584 -1140 
Q 1353 -1331 966 -1331 
L 506 -1331 
L 506 -850 
L 844 -850 
Q 1081 -850 1212 -737 
Q 1344 -625 1503 -206 
L 1606 56 
L 191 3500 
L 800 3500 
L 1894 763 
L 2988 3500 
L 3597 3500 
L 2059 -325 
z
" transform="scale(0.015625)"/>
       </defs>
       <use xlink:href="#DejaVuSans-41"/>
       <use xlink:href="#DejaVuSans-63" x="66.658203"/>
       <use xlink:href="#DejaVuSans-63" x="121.638672"/>
       <use xlink:href="#DejaVuSans-75" x="176.619141"/>
       <use xlink:href="#DejaVuSans-72" x="239.998047"/>
       <use xlink:href="#DejaVuSans-61" x="281.111328"/>
       <use xlink:href="#DejaVuSans-63" x="342.390625"/>
       <use xlink:href="#DejaVuSans-79" x="397.371094"/>
      </g>
     </g>
    </g>
    <g id="xtick_4">
     <g id="line2d_4">
      <path d="M 487.196094 375.297656 
L 338.807855 683.429009 
" clip-path="url(#p9088a70851)" style="fill: none; stroke: #000000; stroke-width: 0.5; stroke-linecap: square"/>
     </g>
     <g id="text_4">
      <!-- $\chi_4$ -->
      <g transform="translate(319.358483 702.890229) scale(0.25 -0.25)">
       <defs>
        <path id="DejaVuSans-Oblique-3c7" d="M 1922 -781 
L 1691 416 
L 394 -1334 
L -284 -1334 
L 1553 1141 
L 1269 2613 
Q 1194 3006 713 3006 
L 559 3006 
L 653 3500 
L 872 3494 
Q 1675 3472 1775 2950 
L 2006 1753 
L 3303 3503 
L 3981 3503 
L 2144 1028 
L 2428 -444 
Q 2503 -838 2984 -838 
L 3138 -838 
L 3044 -1331 
L 2825 -1325 
Q 2022 -1303 1922 -781 
z
" transform="scale(0.015625)"/>
        <path id="DejaVuSans-34" d="M 2419 4116 
L 825 1625 
L 2419 1625 
L 2419 4116 
z
M 2253 4666 
L 3047 4666 
L 3047 1625 
L 3713 1625 
L 3713 1100 
L 3047 1100 
L 3047 0 
L 2419 0 
L 2419 1100 
L 313 1100 
L 313 1709 
L 2253 4666 
z
" transform="scale(0.015625)"/>
       </defs>
       <use xlink:href="#DejaVuSans-Oblique-3c7" transform="translate(0 0.265625)"/>
       <use xlink:href="#DejaVuSans-34" transform="translate(59.179688 -16.140625) scale(0.7)"/>
      </g>
     </g>
    </g>
    <g id="xtick_5">
     <g id="line2d_5">
      <path d="M 487.196094 375.297656 
L 635.584333 683.429009 
" clip-path="url(#p9088a70851)" style="fill: none; stroke: #000000; stroke-width: 0.5; stroke-linecap: square"/>
     </g>
     <g id="text_5">
      <!-- $\chi_3$ -->
      <g transform="translate(628.283705 702.890229) scale(0.25 -0.25)">
       <defs>
        <path id="DejaVuSans-33" d="M 2597 2516 
Q 3050 2419 3304 2112 
Q 3559 1806 3559 1356 
Q 3559 666 3084 287 
Q 2609 -91 1734 -91 
Q 1441 -91 1130 -33 
Q 819 25 488 141 
L 488 750 
Q 750 597 1062 519 
Q 1375 441 1716 441 
Q 2309 441 2620 675 
Q 2931 909 2931 1356 
Q 2931 1769 2642 2001 
Q 2353 2234 1838 2234 
L 1294 2234 
L 1294 2753 
L 1863 2753 
Q 2328 2753 2575 2939 
Q 2822 3125 2822 3475 
Q 2822 3834 2567 4026 
Q 2313 4219 1838 4219 
Q 1578 4219 1281 4162 
Q 984 4106 628 3988 
L 628 4550 
Q 988 4650 1302 4700 
Q 1616 4750 1894 4750 
Q 2613 4750 3031 4423 
Q 3450 4097 3450 3541 
Q 3450 3153 3228 2886 
Q 3006 2619 2597 2516 
z
" transform="scale(0.015625)"/>
       </defs>
       <use xlink:href="#DejaVuSans-Oblique-3c7" transform="translate(0 0.265625)"/>
       <use xlink:href="#DejaVuSans-33" transform="translate(59.179688 -16.140625) scale(0.7)"/>
      </g>
     </g>
    </g>
    <g id="xtick_6">
     <g id="line2d_6">
      <path d="M 487.196094 375.297656 
L 820.62144 451.399816 
" clip-path="url(#p9088a70851)" style="fill: none; stroke: #000000; stroke-width: 0.5; stroke-linecap: square"/>
     </g>
     <g id="text_6">
      <!-- $\chi_2$ -->
      <g transform="translate(820.89543 461.362765) scale(0.25 -0.25)">
       <defs>
        <path id="DejaVuSans-32" d="M 1228 531 
L 3431 531 
L 3431 0 
L 469 0 
L 469 531 
Q 828 903 1448 1529 
Q 2069 2156 2228 2338 
Q 2531 2678 2651 2914 
Q 2772 3150 2772 3378 
Q 2772 3750 2511 3984 
Q 2250 4219 1831 4219 
Q 1534 4219 1204 4116 
Q 875 4013 500 3803 
L 500 4441 
Q 881 4594 1212 4672 
Q 1544 4750 1819 4750 
Q 2544 4750 2975 4387 
Q 3406 4025 3406 3419 
Q 3406 3131 3298 2873 
Q 3191 2616 2906 2266 
Q 2828 2175 2409 1742 
Q 1991 1309 1228 531 
z
" transform="scale(0.015625)"/>
       </defs>
       <use xlink:href="#DejaVuSans-Oblique-3c7" transform="translate(0 0.265625)"/>
       <use xlink:href="#DejaVuSans-32" transform="translate(59.179688 -16.140625) scale(0.7)"/>
      </g>
     </g>
    </g>
    <g id="xtick_7">
     <g id="line2d_7">
      <path d="M 487.196094 375.297656 
L 754.582461 162.064144 
" clip-path="url(#p9088a70851)" style="fill: none; stroke: #000000; stroke-width: 0.5; stroke-linecap: square"/>
     </g>
     <g id="text_7">
      <!-- $\chi_1$ -->
      <g transform="translate(752.153102 160.182943) scale(0.25 -0.25)">
       <defs>
        <path id="DejaVuSans-31" d="M 794 531 
L 1825 531 
L 1825 4091 
L 703 3866 
L 703 4441 
L 1819 4666 
L 2450 4666 
L 2450 531 
L 3481 531 
L 3481 0 
L 794 0 
L 794 531 
z
" transform="scale(0.015625)"/>
       </defs>
       <use xlink:href="#DejaVuSans-Oblique-3c7" transform="translate(0 0.265625)"/>
       <use xlink:href="#DejaVuSans-31" transform="translate(59.179688 -16.140625) scale(0.7)"/>
      </g>
     </g>
    </g>
   </g>
   <g id="matplotlib.axis_2">
    <g id="ytick_1">
     <g id="line2d_8">
      <path d="M 549.377912 375.297656 
C 549.377912 367.132015 547.769459 359.045774 544.644603 351.501705 
C 541.519747 343.957636 536.93926 337.102451 531.165279 331.328471 
C 525.391299 325.55449 518.536114 320.974003 510.992045 317.849147 
C 503.447976 314.724291 495.361735 313.115838 487.196094 313.115838 
C 479.030452 313.115838 470.944211 314.724291 463.400142 317.849147 
C 455.856073 320.974003 449.000889 325.55449 443.226908 331.328471 
C 437.452928 337.102451 432.87244 343.957636 429.747585 351.501705 
C 426.622729 359.045774 425.014276 367.132015 425.014276 375.297656 
C 425.014276 383.463298 426.622729 391.549539 429.747585 399.093608 
C 432.87244 406.637677 437.452928 413.492861 443.226908 419.266842 
C 449.000889 425.040822 455.856073 429.62131 463.400142 432.746165 
C 470.944211 435.871021 479.030452 437.479474 487.196094 437.479474 
C 495.361735 437.479474 503.447976 435.871021 510.992045 432.746165 
C 518.536114 429.62131 525.391299 425.040822 531.165279 419.266842 
C 536.93926 413.492861 541.519747 406.637677 544.644603 399.093608 
C 547.769459 391.549539 549.377912 383.463298 549.377912 375.297656 
" clip-path="url(#p9088a70851)" style="fill: none; stroke: #b0b0b0; stroke-width: 0.1; stroke-linecap: square"/>
     </g>
     <g id="text_8">
      <!-- 0.87 -->
      <g transform="translate(487.196094 308.956463) scale(0.2 -0.2)">
       <defs>
        <path id="DejaVuSans-30" d="M 2034 4250 
Q 1547 4250 1301 3770 
Q 1056 3291 1056 2328 
Q 1056 1369 1301 889 
Q 1547 409 2034 409 
Q 2525 409 2770 889 
Q 3016 1369 3016 2328 
Q 3016 3291 2770 3770 
Q 2525 4250 2034 4250 
z
M 2034 4750 
Q 2819 4750 3233 4129 
Q 3647 3509 3647 2328 
Q 3647 1150 3233 529 
Q 2819 -91 2034 -91 
Q 1250 -91 836 529 
Q 422 1150 422 2328 
Q 422 3509 836 4129 
Q 1250 4750 2034 4750 
z
" transform="scale(0.015625)"/>
        <path id="DejaVuSans-2e" d="M 684 794 
L 1344 794 
L 1344 0 
L 684 0 
L 684 794 
z
" transform="scale(0.015625)"/>
        <path id="DejaVuSans-38" d="M 2034 2216 
Q 1584 2216 1326 1975 
Q 1069 1734 1069 1313 
Q 1069 891 1326 650 
Q 1584 409 2034 409 
Q 2484 409 2743 651 
Q 3003 894 3003 1313 
Q 3003 1734 2745 1975 
Q 2488 2216 2034 2216 
z
M 1403 2484 
Q 997 2584 770 2862 
Q 544 3141 544 3541 
Q 544 4100 942 4425 
Q 1341 4750 2034 4750 
Q 2731 4750 3128 4425 
Q 3525 4100 3525 3541 
Q 3525 3141 3298 2862 
Q 3072 2584 2669 2484 
Q 3125 2378 3379 2068 
Q 3634 1759 3634 1313 
Q 3634 634 3220 271 
Q 2806 -91 2034 -91 
Q 1263 -91 848 271 
Q 434 634 434 1313 
Q 434 1759 690 2068 
Q 947 2378 1403 2484 
z
M 1172 3481 
Q 1172 3119 1398 2916 
Q 1625 2713 2034 2713 
Q 2441 2713 2670 2916 
Q 2900 3119 2900 3481 
Q 2900 3844 2670 4047 
Q 2441 4250 2034 4250 
Q 1625 4250 1398 4047 
Q 1172 3844 1172 3481 
z
" transform="scale(0.015625)"/>
        <path id="DejaVuSans-37" d="M 525 4666 
L 3525 4666 
L 3525 4397 
L 1831 0 
L 1172 0 
L 2766 4134 
L 525 4134 
L 525 4666 
z
" transform="scale(0.015625)"/>
       </defs>
       <use xlink:href="#DejaVuSans-30"/>
       <use xlink:href="#DejaVuSans-2e" x="63.623047"/>
       <use xlink:href="#DejaVuSans-38" x="95.410156"/>
       <use xlink:href="#DejaVuSans-37" x="159.033203"/>
      </g>
     </g>
    </g>
    <g id="ytick_2">
     <g id="line2d_9">
      <path d="M 611.55973 375.297656 
C 611.55973 358.966373 608.342823 342.793891 602.093112 327.705753 
C 595.843401 312.617615 586.682425 298.907247 575.134464 287.359286 
C 563.586503 275.811325 549.876135 266.650349 534.787997 260.400638 
C 519.699859 254.150927 503.527377 250.93402 487.196094 250.93402 
C 470.864811 250.93402 454.692329 254.150927 439.604191 260.400638 
C 424.516052 266.650349 410.805684 275.811325 399.257723 287.359286 
C 387.709762 298.907247 378.548787 312.617615 372.299076 327.705753 
C 366.049364 342.793891 362.832457 358.966373 362.832457 375.297656 
C 362.832457 391.628939 366.049364 407.801421 372.299076 422.889559 
C 378.548787 437.977698 387.709762 451.688066 399.257723 463.236027 
C 410.805684 474.783988 424.516052 483.944963 439.604191 490.194674 
C 454.692329 496.444386 470.864811 499.661293 487.196094 499.661293 
C 503.527377 499.661293 519.699859 496.444386 534.787997 490.194674 
C 549.876135 483.944963 563.586503 474.783988 575.134464 463.236027 
C 586.682425 451.688066 595.843401 437.977698 602.093112 422.889559 
C 608.342823 407.801421 611.55973 391.628939 611.55973 375.297656 
" clip-path="url(#p9088a70851)" style="fill: none; stroke: #b0b0b0; stroke-width: 0.1; stroke-linecap: square"/>
     </g>
    </g>
    <g id="ytick_3">
     <g id="line2d_10">
      <path d="M 673.741548 375.297656 
C 673.741548 350.800732 668.916188 326.542009 659.541621 303.909801 
C 650.167054 281.277594 636.425591 260.712042 619.10365 243.3901 
C 601.781708 226.068159 581.216156 212.326696 558.583949 202.952129 
C 535.951741 193.577562 511.693018 188.752202 487.196094 188.752202 
C 462.699169 188.752202 438.440446 193.577562 415.808239 202.952129 
C 393.176032 212.326696 372.610479 226.068159 355.288538 243.3901 
C 337.966596 260.712042 324.225134 281.277594 314.850566 303.909801 
C 305.475999 326.542009 300.650639 350.800732 300.650639 375.297656 
C 300.650639 399.794581 305.475999 424.053304 314.850566 446.685511 
C 324.225134 469.317718 337.966596 489.883271 355.288538 507.205212 
C 372.610479 524.527154 393.176032 538.268616 415.808239 547.643184 
C 438.440446 557.017751 462.699169 561.843111 487.196094 561.843111 
C 511.693018 561.843111 535.951741 557.017751 558.583949 547.643184 
C 581.216156 538.268616 601.781708 524.527154 619.10365 507.205212 
C 636.425591 489.883271 650.167054 469.317718 659.541621 446.685511 
C 668.916188 424.053304 673.741548 399.794581 673.741548 375.297656 
" clip-path="url(#p9088a70851)" style="fill: none; stroke: #b0b0b0; stroke-width: 0.1; stroke-linecap: square"/>
     </g>
    </g>
    <g id="ytick_4">
     <g id="line2d_11">
      <path d="M 735.923366 375.297656 
C 735.923366 342.63509 729.489553 310.290126 716.99013 280.11385 
C 704.490707 249.937573 686.168757 222.516837 663.072835 199.420915 
C 639.976913 176.324993 612.556177 158.003043 582.3799 145.50362 
C 552.203624 133.004197 519.85866 126.570384 487.196094 126.570384 
C 454.533528 126.570384 422.188564 133.004197 392.012287 145.50362 
C 361.836011 158.003043 334.415275 176.324993 311.319353 199.420915 
C 288.22343 222.516837 269.90148 249.937573 257.402057 280.11385 
C 244.902634 310.290126 238.468821 342.63509 238.468821 375.297656 
C 238.468821 407.960222 244.902634 440.305186 257.402057 470.481463 
C 269.90148 500.657739 288.22343 528.078475 311.319353 551.174397 
C 334.415275 574.27032 361.836011 592.59227 392.012287 605.091693 
C 422.188564 617.591116 454.533528 624.024929 487.196094 624.024929 
C 519.85866 624.024929 552.203624 617.591116 582.3799 605.091693 
C 612.556177 592.59227 639.976913 574.27032 663.072835 551.174397 
C 686.168757 528.078475 704.490707 500.657739 716.99013 470.481463 
C 729.489553 440.305186 735.923366 407.960222 735.923366 375.297656 
" clip-path="url(#p9088a70851)" style="fill: none; stroke: #b0b0b0; stroke-width: 0.1; stroke-linecap: square"/>
     </g>
    </g>
    <g id="ytick_5">
     <g id="line2d_12">
      <path d="M 798.105185 375.297656 
C 798.105185 334.469449 790.062918 294.038244 774.438639 256.317898 
C 758.814361 218.597553 735.911923 184.321632 707.04202 155.45173 
C 678.172118 126.581827 643.896197 103.679389 606.175852 88.055111 
C 568.455506 72.430832 528.024301 64.388565 487.196094 64.388565 
C 446.367886 64.388565 405.936681 72.430832 368.216336 88.055111 
C 330.49599 103.679389 296.22007 126.581827 267.350167 155.45173 
C 238.480265 184.321632 215.577827 218.597553 199.953548 256.317898 
C 184.32927 294.038244 176.287003 334.469449 176.287003 375.297656 
C 176.287003 416.125864 184.32927 456.557069 199.953548 494.277414 
C 215.577827 531.99776 238.480265 566.27368 267.350167 595.143583 
C 296.22007 624.013485 330.49599 646.915923 368.216336 662.540202 
C 405.936681 678.16448 446.367886 686.206747 487.196094 686.206747 
C 528.024301 686.206747 568.455506 678.16448 606.175852 662.540202 
C 643.896197 646.915923 678.172118 624.013485 707.04202 595.143583 
C 735.911923 566.27368 758.814361 531.99776 774.438639 494.277414 
C 790.062918 456.557069 798.105185 416.125864 798.105185 375.297656 
" clip-path="url(#p9088a70851)" style="fill: none; stroke: #b0b0b0; stroke-width: 0.1; stroke-linecap: square"/>
     </g>
     <g id="text_9">
      <!-- 1.0 -->
      <g transform="translate(487.196094 60.22919) scale(0.2 -0.2)">
       <use xlink:href="#DejaVuSans-31"/>
       <use xlink:href="#DejaVuSans-2e" x="63.623047"/>
       <use xlink:href="#DejaVuSans-30" x="95.410156"/>
      </g>
     </g>
    </g>
   </g>
   <g id="line2d_13">
    <path d="M 487.196094 64.388565 
L 256.984234 191.709825 
L 192.86482 442.476849 
L 453.475594 445.318996 
L 593.419977 595.873823 
L 718.182791 428.018863 
L 724.286477 186.224385 
L 487.196094 64.388565 
" clip-path="url(#p9088a70851)" style="fill: none; stroke: #ff0000; stroke-width: 4; stroke-linecap: square"/>
   </g>
   <g id="line2d_14">
    <path d="M 487.196094 280.279925 
L 243.03554 180.586112 
L 172.028444 447.232616 
L 369.147496 620.428096 
L 618.156279 647.239284 
L 779.961484 442.119446 
L 733.98946 178.486514 
L 487.196094 280.279925 
" clip-path="url(#p9088a70851)" style="fill: none; stroke: #ff0000; stroke-width: 4; stroke-linecap: square"/>
   </g>
   <g id="line2d_15">
    <path d="M 487.196094 284.055258 
L 242.352457 180.041372 
L 171.826254 447.278764 
L 367.253296 624.361442 
L 618.749445 648.471006 
L 783.445819 442.914723 
L 733.725917 178.696682 
L 487.196094 284.055258 
" clip-path="url(#p9088a70851)" style="fill: none; stroke: #ff0000; stroke-width: 4; stroke-linecap: square"/>
   </g>
   <g id="line2d_16">
    <path d="M 487.196094 277.999972 
L 243.381533 180.862032 
L 174.951663 446.56541 
L 367.679704 623.475996 
L 615.308959 641.326761 
L 779.447146 442.002052 
L 732.728613 179.492006 
L 487.196094 277.999972 
" clip-path="url(#p9088a70851)" style="fill: none; stroke: #000000; stroke-width: 4; stroke-linecap: square"/>
   </g>
   <g id="line2d_17">
    <path d="M 487.196094 64.388565 
L 445.35397 341.929676 
L 403.140178 394.482871 
L 364.363104 630.362987 
L 514.107412 431.179584 
L 553.980774 390.540824 
L 529.791847 341.328676 
L 487.196094 64.388565 
" clip-path="url(#p9088a70851)" style="fill: none; stroke: #000000; stroke-width: 4; stroke-linecap: square"/>
   </g>
   <g id="line2d_18">
    <path d="M 487.196094 292.102957 
L 256.132827 191.03085 
L 195.676019 441.835211 
L 349.476933 661.27444 
L 601.213916 612.058104 
L 751.999467 435.737298 
L 721.041624 188.812069 
L 487.196094 292.102957 
" clip-path="url(#p9088a70851)" style="fill: none; stroke: #000000; stroke-width: 4; stroke-linecap: square"/>
   </g>
   <g id="line2d_19">
    <path d="M 487.196094 297.980783 
L 252.429163 188.077276 
L 192.62125 442.532442 
L 350.559086 659.027327 
L 605.467157 620.89005 
L 758.911121 437.314838 
L 723.690064 186.700008 
L 487.196094 297.980783 
" clip-path="url(#p9088a70851)" style="fill: none; stroke: #000000; stroke-width: 4; stroke-linecap: square"/>
   </g>
   <g id="line2d_20">
    <path d="M 487.196094 299.073767 
L 252.155377 187.85894 
L 193.124252 442.417635 
L 351.85547 656.335356 
L 612.221404 634.915388 
L 760.868992 437.761709 
L 723.02708 187.22872 
L 487.196094 299.073767 
" clip-path="url(#p9088a70851)" style="fill: none; stroke: #ff0000; stroke-width: 4; stroke-linecap: square"/>
   </g>
   <g id="legend_1">
    <g id="patch_3">
     <path d="M 12.2 810.688281 
L 962.192188 810.688281 
Q 967.192188 810.688281 967.192188 805.688281 
L 967.192188 734.797656 
Q 967.192188 729.797656 962.192188 729.797656 
L 12.2 729.797656 
Q 7.2 729.797656 7.2 734.797656 
L 7.2 805.688281 
Q 7.2 810.688281 12.2 810.688281 
z
" style="fill: #ffffff; opacity: 0.8; stroke: #cccccc; stroke-linejoin: miter"/>
    </g>
    <g id="line2d_21">
     <path d="M 17.2 750.04375 
L 42.2 750.04375 
L 67.2 750.04375 
" style="fill: none; stroke: #ff0000; stroke-width: 4; stroke-linecap: square"/>
    </g>
    <g id="text_10">
     <!-- FASPR -->
     <g transform="translate(87.2 758.79375) scale(0.25 -0.25)">
      <defs>
       <path id="DejaVuSans-46" d="M 628 4666 
L 3309 4666 
L 3309 4134 
L 1259 4134 
L 1259 2759 
L 3109 2759 
L 3109 2228 
L 1259 2228 
L 1259 0 
L 628 0 
L 628 4666 
z
" transform="scale(0.015625)"/>
       <path id="DejaVuSans-50" d="M 1259 4147 
L 1259 2394 
L 2053 2394 
Q 2494 2394 2734 2622 
Q 2975 2850 2975 3272 
Q 2975 3691 2734 3919 
Q 2494 4147 2053 4147 
L 1259 4147 
z
M 628 4666 
L 2053 4666 
Q 2838 4666 3239 4311 
Q 3641 3956 3641 3272 
Q 3641 2581 3239 2228 
Q 2838 1875 2053 1875 
L 1259 1875 
L 1259 0 
L 628 0 
L 628 4666 
z
" transform="scale(0.015625)"/>
      </defs>
      <use xlink:href="#DejaVuSans-46"/>
      <use xlink:href="#DejaVuSans-41" x="48.394531"/>
      <use xlink:href="#DejaVuSans-53" x="116.802734"/>
      <use xlink:href="#DejaVuSans-50" x="180.279297"/>
      <use xlink:href="#DejaVuSans-52" x="240.582031"/>
     </g>
    </g>
    <g id="line2d_22">
     <path d="M 17.2 786.739063 
L 42.2 786.739063 
L 67.2 786.739063 
" style="fill: none; stroke: #ff0000; stroke-width: 4; stroke-linecap: square"/>
    </g>
    <g id="text_11">
     <!-- FASPR 0 -->
     <g transform="translate(87.2 795.489063) scale(0.25 -0.25)">
      <use xlink:href="#DejaVuSans-46"/>
      <use xlink:href="#DejaVuSans-41" x="48.394531"/>
      <use xlink:href="#DejaVuSans-53" x="116.802734"/>
      <use xlink:href="#DejaVuSans-50" x="180.279297"/>
      <use xlink:href="#DejaVuSans-52" x="240.582031"/>
      <use xlink:href="#DejaVuSans-20" x="310.064453"/>
      <use xlink:href="#DejaVuSans-30" x="341.851562"/>
     </g>
    </g>
    <g id="line2d_23">
     <path d="M 238.567187 750.04375 
L 263.567187 750.04375 
L 288.567187 750.04375 
" style="fill: none; stroke: #ff0000; stroke-width: 4; stroke-linecap: square"/>
    </g>
    <g id="text_12">
     <!-- FASPR 1 -->
     <g transform="translate(308.567187 758.79375) scale(0.25 -0.25)">
      <use xlink:href="#DejaVuSans-46"/>
      <use xlink:href="#DejaVuSans-41" x="48.394531"/>
      <use xlink:href="#DejaVuSans-53" x="116.802734"/>
      <use xlink:href="#DejaVuSans-50" x="180.279297"/>
      <use xlink:href="#DejaVuSans-52" x="240.582031"/>
      <use xlink:href="#DejaVuSans-20" x="310.064453"/>
      <use xlink:href="#DejaVuSans-31" x="341.851562"/>
     </g>
    </g>
    <g id="line2d_24">
     <path d="M 238.567187 786.739063 
L 263.567187 786.739063 
L 288.567187 786.739063 
" style="fill: none; stroke: #000000; stroke-width: 4; stroke-linecap: square"/>
    </g>
    <g id="text_13">
     <!-- FASPR 10 -->
     <g transform="translate(308.567187 795.489063) scale(0.25 -0.25)">
      <use xlink:href="#DejaVuSans-46"/>
      <use xlink:href="#DejaVuSans-41" x="48.394531"/>
      <use xlink:href="#DejaVuSans-53" x="116.802734"/>
      <use xlink:href="#DejaVuSans-50" x="180.279297"/>
      <use xlink:href="#DejaVuSans-52" x="240.582031"/>
      <use xlink:href="#DejaVuSans-20" x="310.064453"/>
      <use xlink:href="#DejaVuSans-31" x="341.851562"/>
      <use xlink:href="#DejaVuSans-30" x="405.474609"/>
     </g>
    </g>
    <g id="line2d_25">
     <path d="M 475.840625 750.04375 
L 500.840625 750.04375 
L 525.840625 750.04375 
" style="fill: none; stroke: #000000; stroke-width: 4; stroke-linecap: square"/>
    </g>
    <g id="text_14">
     <!-- CHARMM -->
     <g transform="translate(545.840625 758.79375) scale(0.25 -0.25)">
      <defs>
       <path id="DejaVuSans-43" d="M 4122 4306 
L 4122 3641 
Q 3803 3938 3442 4084 
Q 3081 4231 2675 4231 
Q 1875 4231 1450 3742 
Q 1025 3253 1025 2328 
Q 1025 1406 1450 917 
Q 1875 428 2675 428 
Q 3081 428 3442 575 
Q 3803 722 4122 1019 
L 4122 359 
Q 3791 134 3420 21 
Q 3050 -91 2638 -91 
Q 1578 -91 968 557 
Q 359 1206 359 2328 
Q 359 3453 968 4101 
Q 1578 4750 2638 4750 
Q 3056 4750 3426 4639 
Q 3797 4528 4122 4306 
z
" transform="scale(0.015625)"/>
       <path id="DejaVuSans-48" d="M 628 4666 
L 1259 4666 
L 1259 2753 
L 3553 2753 
L 3553 4666 
L 4184 4666 
L 4184 0 
L 3553 0 
L 3553 2222 
L 1259 2222 
L 1259 0 
L 628 0 
L 628 4666 
z
" transform="scale(0.015625)"/>
      </defs>
      <use xlink:href="#DejaVuSans-43"/>
      <use xlink:href="#DejaVuSans-48" x="69.824219"/>
      <use xlink:href="#DejaVuSans-41" x="145.019531"/>
      <use xlink:href="#DejaVuSans-52" x="213.427734"/>
      <use xlink:href="#DejaVuSans-4d" x="282.910156"/>
      <use xlink:href="#DejaVuSans-4d" x="369.189453"/>
     </g>
    </g>
    <g id="line2d_26">
     <path d="M 475.840625 786.739063 
L 500.840625 786.739063 
L 525.840625 786.739063 
" style="fill: none; stroke: #000000; stroke-width: 4; stroke-linecap: square"/>
    </g>
    <g id="text_15">
     <!-- CHARMM 0 -->
     <g transform="translate(545.840625 795.489063) scale(0.25 -0.25)">
      <use xlink:href="#DejaVuSans-43"/>
      <use xlink:href="#DejaVuSans-48" x="69.824219"/>
      <use xlink:href="#DejaVuSans-41" x="145.019531"/>
      <use xlink:href="#DejaVuSans-52" x="213.427734"/>
      <use xlink:href="#DejaVuSans-4d" x="282.910156"/>
      <use xlink:href="#DejaVuSans-4d" x="369.189453"/>
      <use xlink:href="#DejaVuSans-20" x="455.46875"/>
      <use xlink:href="#DejaVuSans-30" x="487.255859"/>
     </g>
    </g>
    <g id="line2d_27">
     <path d="M 733.563281 750.04375 
L 758.563281 750.04375 
L 783.563281 750.04375 
" style="fill: none; stroke: #000000; stroke-width: 4; stroke-linecap: square"/>
    </g>
    <g id="text_16">
     <!-- CHARMM 1 -->
     <g transform="translate(803.563281 758.79375) scale(0.25 -0.25)">
      <use xlink:href="#DejaVuSans-43"/>
      <use xlink:href="#DejaVuSans-48" x="69.824219"/>
      <use xlink:href="#DejaVuSans-41" x="145.019531"/>
      <use xlink:href="#DejaVuSans-52" x="213.427734"/>
      <use xlink:href="#DejaVuSans-4d" x="282.910156"/>
      <use xlink:href="#DejaVuSans-4d" x="369.189453"/>
      <use xlink:href="#DejaVuSans-20" x="455.46875"/>
      <use xlink:href="#DejaVuSans-31" x="487.255859"/>
     </g>
    </g>
    <g id="line2d_28">
     <path d="M 733.563281 786.739063 
L 758.563281 786.739063 
L 783.563281 786.739063 
" style="fill: none; stroke: #ff0000; stroke-width: 4; stroke-linecap: square"/>
    </g>
    <g id="text_17">
     <!-- CHARMM 10 -->
     <g transform="translate(803.563281 795.489063) scale(0.25 -0.25)">
      <use xlink:href="#DejaVuSans-43"/>
      <use xlink:href="#DejaVuSans-48" x="69.824219"/>
      <use xlink:href="#DejaVuSans-41" x="145.019531"/>
      <use xlink:href="#DejaVuSans-52" x="213.427734"/>
      <use xlink:href="#DejaVuSans-4d" x="282.910156"/>
      <use xlink:href="#DejaVuSans-4d" x="369.189453"/>
      <use xlink:href="#DejaVuSans-20" x="455.46875"/>
      <use xlink:href="#DejaVuSans-31" x="487.255859"/>
      <use xlink:href="#DejaVuSans-30" x="550.878906"/>
     </g>
    </g>
   </g>
  </g>
  <g id="axes_2">
   <g id="matplotlib.axis_3">
    <g id="ytick_6">
     <g id="line2d_29">
      <path d="M 549.377912 375.297656 
C 549.377912 367.132015 547.769459 359.045774 544.644603 351.501705 
C 541.519747 343.957636 536.93926 337.102451 531.165279 331.328471 
C 525.391299 325.55449 518.536114 320.974003 510.992045 317.849147 
C 503.447976 314.724291 495.361735 313.115838 487.196094 313.115838 
C 479.030452 313.115838 470.944211 314.724291 463.400142 317.849147 
C 455.856073 320.974003 449.000889 325.55449 443.226908 331.328471 
C 437.452928 337.102451 432.87244 343.957636 429.747585 351.501705 
C 426.622729 359.045774 425.014276 367.132015 425.014276 375.297656 
C 425.014276 383.463298 426.622729 391.549539 429.747585 399.093608 
C 432.87244 406.637677 437.452928 413.492861 443.226908 419.266842 
C 449.000889 425.040822 455.856073 429.62131 463.400142 432.746165 
C 470.944211 435.871021 479.030452 437.479474 487.196094 437.479474 
C 495.361735 437.479474 503.447976 435.871021 510.992045 432.746165 
C 518.536114 429.62131 525.391299 425.040822 531.165279 419.266842 
C 536.93926 413.492861 541.519747 406.637677 544.644603 399.093608 
C 547.769459 391.549539 549.377912 383.463298 549.377912 375.297656 
" clip-path="url(#p599015e638)" style="fill: none; stroke: #b0b0b0; stroke-width: 0.1; stroke-linecap: square"/>
     </g>
     <g id="text_18">
      <!-- 2.0 -->
      <g transform="translate(438.580391 332.368552) scale(0.2 -0.2)">
       <use xlink:href="#DejaVuSans-32"/>
       <use xlink:href="#DejaVuSans-2e" x="63.623047"/>
       <use xlink:href="#DejaVuSans-30" x="95.410156"/>
      </g>
     </g>
    </g>
    <g id="ytick_7">
     <g id="line2d_30">
      <path d="M 611.55973 375.297656 
C 611.55973 358.966373 608.342823 342.793891 602.093112 327.705753 
C 595.843401 312.617615 586.682425 298.907247 575.134464 287.359286 
C 563.586503 275.811325 549.876135 266.650349 534.787997 260.400638 
C 519.699859 254.150927 503.527377 250.93402 487.196094 250.93402 
C 470.864811 250.93402 454.692329 254.150927 439.604191 260.400638 
C 424.516052 266.650349 410.805684 275.811325 399.257723 287.359286 
C 387.709762 298.907247 378.548787 312.617615 372.299076 327.705753 
C 366.049364 342.793891 362.832457 358.966373 362.832457 375.297656 
C 362.832457 391.628939 366.049364 407.801421 372.299076 422.889559 
C 378.548787 437.977698 387.709762 451.688066 399.257723 463.236027 
C 410.805684 474.783988 424.516052 483.944963 439.604191 490.194674 
C 454.692329 496.444386 470.864811 499.661293 487.196094 499.661293 
C 503.527377 499.661293 519.699859 496.444386 534.787997 490.194674 
C 549.876135 483.944963 563.586503 474.783988 575.134464 463.236027 
C 586.682425 451.688066 595.843401 437.977698 602.093112 422.889559 
C 608.342823 407.801421 611.55973 391.628939 611.55973 375.297656 
" clip-path="url(#p599015e638)" style="fill: none; stroke: #b0b0b0; stroke-width: 0.1; stroke-linecap: square"/>
     </g>
    </g>
    <g id="ytick_8">
     <g id="line2d_31">
      <path d="M 673.741548 375.297656 
C 673.741548 350.800732 668.916188 326.542009 659.541621 303.909801 
C 650.167054 281.277594 636.425591 260.712042 619.10365 243.3901 
C 601.781708 226.068159 581.216156 212.326696 558.583949 202.952129 
C 535.951741 193.577562 511.693018 188.752202 487.196094 188.752202 
C 462.699169 188.752202 438.440446 193.577562 415.808239 202.952129 
C 393.176032 212.326696 372.610479 226.068159 355.288538 243.3901 
C 337.966596 260.712042 324.225134 281.277594 314.850566 303.909801 
C 305.475999 326.542009 300.650639 350.800732 300.650639 375.297656 
C 300.650639 399.794581 305.475999 424.053304 314.850566 446.685511 
C 324.225134 469.317718 337.966596 489.883271 355.288538 507.205212 
C 372.610479 524.527154 393.176032 538.268616 415.808239 547.643184 
C 438.440446 557.017751 462.699169 561.843111 487.196094 561.843111 
C 511.693018 561.843111 535.951741 557.017751 558.583949 547.643184 
C 581.216156 538.268616 601.781708 524.527154 619.10365 507.205212 
C 636.425591 489.883271 650.167054 469.317718 659.541621 446.685511 
C 668.916188 424.053304 673.741548 399.794581 673.741548 375.297656 
" clip-path="url(#p599015e638)" style="fill: none; stroke: #b0b0b0; stroke-width: 0.1; stroke-linecap: square"/>
     </g>
    </g>
    <g id="ytick_9">
     <g id="line2d_32">
      <path d="M 735.923366 375.297656 
C 735.923366 342.63509 729.489553 310.290126 716.99013 280.11385 
C 704.490707 249.937573 686.168757 222.516837 663.072835 199.420915 
C 639.976913 176.324993 612.556177 158.003043 582.3799 145.50362 
C 552.203624 133.004197 519.85866 126.570384 487.196094 126.570384 
C 454.533528 126.570384 422.188564 133.004197 392.012287 145.50362 
C 361.836011 158.003043 334.415275 176.324993 311.319353 199.420915 
C 288.22343 222.516837 269.90148 249.937573 257.402057 280.11385 
C 244.902634 310.290126 238.468821 342.63509 238.468821 375.297656 
C 238.468821 407.960222 244.902634 440.305186 257.402057 470.481463 
C 269.90148 500.657739 288.22343 528.078475 311.319353 551.174397 
C 334.415275 574.27032 361.836011 592.59227 392.012287 605.091693 
C 422.188564 617.591116 454.533528 624.024929 487.196094 624.024929 
C 519.85866 624.024929 552.203624 617.591116 582.3799 605.091693 
C 612.556177 592.59227 639.976913 574.27032 663.072835 551.174397 
C 686.168757 528.078475 704.490707 500.657739 716.99013 470.481463 
C 729.489553 440.305186 735.923366 407.960222 735.923366 375.297656 
" clip-path="url(#p599015e638)" style="fill: none; stroke: #b0b0b0; stroke-width: 0.1; stroke-linecap: square"/>
     </g>
    </g>
    <g id="ytick_10">
     <g id="line2d_33">
      <path d="M 798.105185 375.297656 
C 798.105185 334.469449 790.062918 294.038244 774.438639 256.317898 
C 758.814361 218.597553 735.911923 184.321632 707.04202 155.45173 
C 678.172118 126.581827 643.896197 103.679389 606.175852 88.055111 
C 568.455506 72.430832 528.024301 64.388565 487.196094 64.388565 
C 446.367886 64.388565 405.936681 72.430832 368.216336 88.055111 
C 330.49599 103.679389 296.22007 126.581827 267.350167 155.45173 
C 238.480265 184.321632 215.577827 218.597553 199.953548 256.317898 
C 184.32927 294.038244 176.287003 334.469449 176.287003 375.297656 
C 176.287003 416.125864 184.32927 456.557069 199.953548 494.277414 
C 215.577827 531.99776 238.480265 566.27368 267.350167 595.143583 
C 296.22007 624.013485 330.49599 646.915923 368.216336 662.540202 
C 405.936681 678.16448 446.367886 686.206747 487.196094 686.206747 
C 528.024301 686.206747 568.455506 678.16448 606.175852 662.540202 
C 643.896197 646.915923 678.172118 624.013485 707.04202 595.143583 
C 735.911923 566.27368 758.814361 531.99776 774.438639 494.277414 
C 790.062918 456.557069 798.105185 416.125864 798.105185 375.297656 
" clip-path="url(#p599015e638)" style="fill: none; stroke: #b0b0b0; stroke-width: 0.1; stroke-linecap: square"/>
     </g>
     <g id="text_19">
      <!-- 0.95 -->
      <g transform="translate(244.117578 177.289634) scale(0.2 -0.2)">
       <defs>
        <path id="DejaVuSans-39" d="M 703 97 
L 703 672 
Q 941 559 1184 500 
Q 1428 441 1663 441 
Q 2288 441 2617 861 
Q 2947 1281 2994 2138 
Q 2813 1869 2534 1725 
Q 2256 1581 1919 1581 
Q 1219 1581 811 2004 
Q 403 2428 403 3163 
Q 403 3881 828 4315 
Q 1253 4750 1959 4750 
Q 2769 4750 3195 4129 
Q 3622 3509 3622 2328 
Q 3622 1225 3098 567 
Q 2575 -91 1691 -91 
Q 1453 -91 1209 -44 
Q 966 3 703 97 
z
M 1959 2075 
Q 2384 2075 2632 2365 
Q 2881 2656 2881 3163 
Q 2881 3666 2632 3958 
Q 2384 4250 1959 4250 
Q 1534 4250 1286 3958 
Q 1038 3666 1038 3163 
Q 1038 2656 1286 2365 
Q 1534 2075 1959 2075 
z
" transform="scale(0.015625)"/>
        <path id="DejaVuSans-35" d="M 691 4666 
L 3169 4666 
L 3169 4134 
L 1269 4134 
L 1269 2991 
Q 1406 3038 1543 3061 
Q 1681 3084 1819 3084 
Q 2600 3084 3056 2656 
Q 3513 2228 3513 1497 
Q 3513 744 3044 326 
Q 2575 -91 1722 -91 
Q 1428 -91 1123 -41 
Q 819 9 494 109 
L 494 744 
Q 775 591 1075 516 
Q 1375 441 1709 441 
Q 2250 441 2565 725 
Q 2881 1009 2881 1497 
Q 2881 1984 2565 2268 
Q 2250 2553 1709 2553 
Q 1456 2553 1204 2497 
Q 953 2441 691 2322 
L 691 4666 
z
" transform="scale(0.015625)"/>
       </defs>
       <use xlink:href="#DejaVuSans-30"/>
       <use xlink:href="#DejaVuSans-2e" x="63.623047"/>
       <use xlink:href="#DejaVuSans-39" x="95.410156"/>
       <use xlink:href="#DejaVuSans-35" x="159.033203"/>
      </g>
     </g>
    </g>
   </g>
  </g>
  <g id="axes_3">
   <g id="matplotlib.axis_4">
    <g id="ytick_11">
     <g id="line2d_34">
      <path d="M 549.377912 375.297656 
C 549.377912 367.132015 547.769459 359.045774 544.644603 351.501705 
C 541.519747 343.957636 536.93926 337.102451 531.165279 331.328471 
C 525.391299 325.55449 518.536114 320.974003 510.992045 317.849147 
C 503.447976 314.724291 495.361735 313.115838 487.196094 313.115838 
C 479.030452 313.115838 470.944211 314.724291 463.400142 317.849147 
C 455.856073 320.974003 449.000889 325.55449 443.226908 331.328471 
C 437.452928 337.102451 432.87244 343.957636 429.747585 351.501705 
C 426.622729 359.045774 425.014276 367.132015 425.014276 375.297656 
C 425.014276 383.463298 426.622729 391.549539 429.747585 399.093608 
C 432.87244 406.637677 437.452928 413.492861 443.226908 419.266842 
C 449.000889 425.040822 455.856073 429.62131 463.400142 432.746165 
C 470.944211 435.871021 479.030452 437.479474 487.196094 437.479474 
C 495.361735 437.479474 503.447976 435.871021 510.992045 432.746165 
C 518.536114 429.62131 525.391299 425.040822 531.165279 419.266842 
C 536.93926 413.492861 541.519747 406.637677 544.644603 399.093608 
C 547.769459 391.549539 549.377912 383.463298 549.377912 375.297656 
" clip-path="url(#peef64da1b5)" style="fill: none; stroke: #b0b0b0; stroke-width: 0.1; stroke-linecap: square"/>
     </g>
     <g id="text_20">
      <!-- 0.15 -->
      <g transform="translate(426.573304 384.975038) scale(0.2 -0.2)">
       <use xlink:href="#DejaVuSans-30"/>
       <use xlink:href="#DejaVuSans-2e" x="63.623047"/>
       <use xlink:href="#DejaVuSans-31" x="95.410156"/>
       <use xlink:href="#DejaVuSans-35" x="159.033203"/>
      </g>
     </g>
    </g>
    <g id="ytick_12">
     <g id="line2d_35">
      <path d="M 611.55973 375.297656 
C 611.55973 358.966373 608.342823 342.793891 602.093112 327.705753 
C 595.843401 312.617615 586.682425 298.907247 575.134464 287.359286 
C 563.586503 275.811325 549.876135 266.650349 534.787997 260.400638 
C 519.699859 254.150927 503.527377 250.93402 487.196094 250.93402 
C 470.864811 250.93402 454.692329 254.150927 439.604191 260.400638 
C 424.516052 266.650349 410.805684 275.811325 399.257723 287.359286 
C 387.709762 298.907247 378.548787 312.617615 372.299076 327.705753 
C 366.049364 342.793891 362.832457 358.966373 362.832457 375.297656 
C 362.832457 391.628939 366.049364 407.801421 372.299076 422.889559 
C 378.548787 437.977698 387.709762 451.688066 399.257723 463.236027 
C 410.805684 474.783988 424.516052 483.944963 439.604191 490.194674 
C 454.692329 496.444386 470.864811 499.661293 487.196094 499.661293 
C 503.527377 499.661293 519.699859 496.444386 534.787997 490.194674 
C 549.876135 483.944963 563.586503 474.783988 575.134464 463.236027 
C 586.682425 451.688066 595.843401 437.977698 602.093112 422.889559 
C 608.342823 407.801421 611.55973 391.628939 611.55973 375.297656 
" clip-path="url(#peef64da1b5)" style="fill: none; stroke: #b0b0b0; stroke-width: 0.1; stroke-linecap: square"/>
     </g>
    </g>
    <g id="ytick_13">
     <g id="line2d_36">
      <path d="M 673.741548 375.297656 
C 673.741548 350.800732 668.916188 326.542009 659.541621 303.909801 
C 650.167054 281.277594 636.425591 260.712042 619.10365 243.3901 
C 601.781708 226.068159 581.216156 212.326696 558.583949 202.952129 
C 535.951741 193.577562 511.693018 188.752202 487.196094 188.752202 
C 462.699169 188.752202 438.440446 193.577562 415.808239 202.952129 
C 393.176032 212.326696 372.610479 226.068159 355.288538 243.3901 
C 337.966596 260.712042 324.225134 281.277594 314.850566 303.909801 
C 305.475999 326.542009 300.650639 350.800732 300.650639 375.297656 
C 300.650639 399.794581 305.475999 424.053304 314.850566 446.685511 
C 324.225134 469.317718 337.966596 489.883271 355.288538 507.205212 
C 372.610479 524.527154 393.176032 538.268616 415.808239 547.643184 
C 438.440446 557.017751 462.699169 561.843111 487.196094 561.843111 
C 511.693018 561.843111 535.951741 557.017751 558.583949 547.643184 
C 581.216156 538.268616 601.781708 524.527154 619.10365 507.205212 
C 636.425591 489.883271 650.167054 469.317718 659.541621 446.685511 
C 668.916188 424.053304 673.741548 399.794581 673.741548 375.297656 
" clip-path="url(#peef64da1b5)" style="fill: none; stroke: #b0b0b0; stroke-width: 0.1; stroke-linecap: square"/>
     </g>
    </g>
    <g id="ytick_14">
     <g id="line2d_37">
      <path d="M 735.923366 375.297656 
C 735.923366 342.63509 729.489553 310.290126 716.99013 280.11385 
C 704.490707 249.937573 686.168757 222.516837 663.072835 199.420915 
C 639.976913 176.324993 612.556177 158.003043 582.3799 145.50362 
C 552.203624 133.004197 519.85866 126.570384 487.196094 126.570384 
C 454.533528 126.570384 422.188564 133.004197 392.012287 145.50362 
C 361.836011 158.003043 334.415275 176.324993 311.319353 199.420915 
C 288.22343 222.516837 269.90148 249.937573 257.402057 280.11385 
C 244.902634 310.290126 238.468821 342.63509 238.468821 375.297656 
C 238.468821 407.960222 244.902634 440.305186 257.402057 470.481463 
C 269.90148 500.657739 288.22343 528.078475 311.319353 551.174397 
C 334.415275 574.27032 361.836011 592.59227 392.012287 605.091693 
C 422.188564 617.591116 454.533528 624.024929 487.196094 624.024929 
C 519.85866 624.024929 552.203624 617.591116 582.3799 605.091693 
C 612.556177 592.59227 639.976913 574.27032 663.072835 551.174397 
C 686.168757 528.078475 704.490707 500.657739 716.99013 470.481463 
C 729.489553 440.305186 735.923366 407.960222 735.923366 375.297656 
" clip-path="url(#peef64da1b5)" style="fill: none; stroke: #b0b0b0; stroke-width: 0.1; stroke-linecap: square"/>
     </g>
    </g>
    <g id="ytick_15">
     <g id="line2d_38">
      <path d="M 798.105185 375.297656 
C 798.105185 334.469449 790.062918 294.038244 774.438639 256.317898 
C 758.814361 218.597553 735.911923 184.321632 707.04202 155.45173 
C 678.172118 126.581827 643.896197 103.679389 606.175852 88.055111 
C 568.455506 72.430832 528.024301 64.388565 487.196094 64.388565 
C 446.367886 64.388565 405.936681 72.430832 368.216336 88.055111 
C 330.49599 103.679389 296.22007 126.581827 267.350167 155.45173 
C 238.480265 184.321632 215.577827 218.597553 199.953548 256.317898 
C 184.32927 294.038244 176.287003 334.469449 176.287003 375.297656 
C 176.287003 416.125864 184.32927 456.557069 199.953548 494.277414 
C 215.577827 531.99776 238.480265 566.27368 267.350167 595.143583 
C 296.22007 624.013485 330.49599 646.915923 368.216336 662.540202 
C 405.936681 678.16448 446.367886 686.206747 487.196094 686.206747 
C 528.024301 686.206747 568.455506 678.16448 606.175852 662.540202 
C 643.896197 646.915923 678.172118 624.013485 707.04202 595.143583 
C 735.911923 566.27368 758.814361 531.99776 774.438639 494.277414 
C 790.062918 456.557069 798.105185 416.125864 798.105185 375.297656 
" clip-path="url(#peef64da1b5)" style="fill: none; stroke: #b0b0b0; stroke-width: 0.1; stroke-linecap: square"/>
     </g>
     <g id="text_21">
      <!-- 0.5 -->
      <g transform="translate(184.082143 440.322063) scale(0.2 -0.2)">
       <use xlink:href="#DejaVuSans-30"/>
       <use xlink:href="#DejaVuSans-2e" x="63.623047"/>
       <use xlink:href="#DejaVuSans-35" x="95.410156"/>
      </g>
     </g>
    </g>
   </g>
  </g>
  <g id="axes_4">
   <g id="matplotlib.axis_5">
    <g id="ytick_16">
     <g id="line2d_39">
      <path d="M 549.377912 375.297656 
C 549.377912 367.132015 547.769459 359.045774 544.644603 351.501705 
C 541.519747 343.957636 536.93926 337.102451 531.165279 331.328471 
C 525.391299 325.55449 518.536114 320.974003 510.992045 317.849147 
C 503.447976 314.724291 495.361735 313.115838 487.196094 313.115838 
C 479.030452 313.115838 470.944211 314.724291 463.400142 317.849147 
C 455.856073 320.974003 449.000889 325.55449 443.226908 331.328471 
C 437.452928 337.102451 432.87244 343.957636 429.747585 351.501705 
C 426.622729 359.045774 425.014276 367.132015 425.014276 375.297656 
C 425.014276 383.463298 426.622729 391.549539 429.747585 399.093608 
C 432.87244 406.637677 437.452928 413.492861 443.226908 419.266842 
C 449.000889 425.040822 455.856073 429.62131 463.400142 432.746165 
C 470.944211 435.871021 479.030452 437.479474 487.196094 437.479474 
C 495.361735 437.479474 503.447976 435.871021 510.992045 432.746165 
C 518.536114 429.62131 525.391299 425.040822 531.165279 419.266842 
C 536.93926 413.492861 541.519747 406.637677 544.644603 399.093608 
C 547.769459 391.549539 549.377912 383.463298 549.377912 375.297656 
" clip-path="url(#p0124e12757)" style="fill: none; stroke: #b0b0b0; stroke-width: 0.1; stroke-linecap: square"/>
     </g>
     <g id="text_22">
      <!-- 55.5 -->
      <g transform="translate(460.216414 427.162164) scale(0.2 -0.2)">
       <use xlink:href="#DejaVuSans-35"/>
       <use xlink:href="#DejaVuSans-35" x="63.623047"/>
       <use xlink:href="#DejaVuSans-2e" x="127.246094"/>
       <use xlink:href="#DejaVuSans-35" x="159.033203"/>
      </g>
     </g>
    </g>
    <g id="ytick_17">
     <g id="line2d_40">
      <path d="M 611.55973 375.297656 
C 611.55973 358.966373 608.342823 342.793891 602.093112 327.705753 
C 595.843401 312.617615 586.682425 298.907247 575.134464 287.359286 
C 563.586503 275.811325 549.876135 266.650349 534.787997 260.400638 
C 519.699859 254.150927 503.527377 250.93402 487.196094 250.93402 
C 470.864811 250.93402 454.692329 254.150927 439.604191 260.400638 
C 424.516052 266.650349 410.805684 275.811325 399.257723 287.359286 
C 387.709762 298.907247 378.548787 312.617615 372.299076 327.705753 
C 366.049364 342.793891 362.832457 358.966373 362.832457 375.297656 
C 362.832457 391.628939 366.049364 407.801421 372.299076 422.889559 
C 378.548787 437.977698 387.709762 451.688066 399.257723 463.236027 
C 410.805684 474.783988 424.516052 483.944963 439.604191 490.194674 
C 454.692329 496.444386 470.864811 499.661293 487.196094 499.661293 
C 503.527377 499.661293 519.699859 496.444386 534.787997 490.194674 
C 549.876135 483.944963 563.586503 474.783988 575.134464 463.236027 
C 586.682425 451.688066 595.843401 437.977698 602.093112 422.889559 
C 608.342823 407.801421 611.55973 391.628939 611.55973 375.297656 
" clip-path="url(#p0124e12757)" style="fill: none; stroke: #b0b0b0; stroke-width: 0.1; stroke-linecap: square"/>
     </g>
    </g>
    <g id="ytick_18">
     <g id="line2d_41">
      <path d="M 673.741548 375.297656 
C 673.741548 350.800732 668.916188 326.542009 659.541621 303.909801 
C 650.167054 281.277594 636.425591 260.712042 619.10365 243.3901 
C 601.781708 226.068159 581.216156 212.326696 558.583949 202.952129 
C 535.951741 193.577562 511.693018 188.752202 487.196094 188.752202 
C 462.699169 188.752202 438.440446 193.577562 415.808239 202.952129 
C 393.176032 212.326696 372.610479 226.068159 355.288538 243.3901 
C 337.966596 260.712042 324.225134 281.277594 314.850566 303.909801 
C 305.475999 326.542009 300.650639 350.800732 300.650639 375.297656 
C 300.650639 399.794581 305.475999 424.053304 314.850566 446.685511 
C 324.225134 469.317718 337.966596 489.883271 355.288538 507.205212 
C 372.610479 524.527154 393.176032 538.268616 415.808239 547.643184 
C 438.440446 557.017751 462.699169 561.843111 487.196094 561.843111 
C 511.693018 561.843111 535.951741 557.017751 558.583949 547.643184 
C 581.216156 538.268616 601.781708 524.527154 619.10365 507.205212 
C 636.425591 489.883271 650.167054 469.317718 659.541621 446.685511 
C 668.916188 424.053304 673.741548 399.794581 673.741548 375.297656 
" clip-path="url(#p0124e12757)" style="fill: none; stroke: #b0b0b0; stroke-width: 0.1; stroke-linecap: square"/>
     </g>
    </g>
    <g id="ytick_19">
     <g id="line2d_42">
      <path d="M 735.923366 375.297656 
C 735.923366 342.63509 729.489553 310.290126 716.99013 280.11385 
C 704.490707 249.937573 686.168757 222.516837 663.072835 199.420915 
C 639.976913 176.324993 612.556177 158.003043 582.3799 145.50362 
C 552.203624 133.004197 519.85866 126.570384 487.196094 126.570384 
C 454.533528 126.570384 422.188564 133.004197 392.012287 145.50362 
C 361.836011 158.003043 334.415275 176.324993 311.319353 199.420915 
C 288.22343 222.516837 269.90148 249.937573 257.402057 280.11385 
C 244.902634 310.290126 238.468821 342.63509 238.468821 375.297656 
C 238.468821 407.960222 244.902634 440.305186 257.402057 470.481463 
C 269.90148 500.657739 288.22343 528.078475 311.319353 551.174397 
C 334.415275 574.27032 361.836011 592.59227 392.012287 605.091693 
C 422.188564 617.591116 454.533528 624.024929 487.196094 624.024929 
C 519.85866 624.024929 552.203624 617.591116 582.3799 605.091693 
C 612.556177 592.59227 639.976913 574.27032 663.072835 551.174397 
C 686.168757 528.078475 704.490707 500.657739 716.99013 470.481463 
C 729.489553 440.305186 735.923366 407.960222 735.923366 375.297656 
" clip-path="url(#p0124e12757)" style="fill: none; stroke: #b0b0b0; stroke-width: 0.1; stroke-linecap: square"/>
     </g>
    </g>
    <g id="ytick_20">
     <g id="line2d_43">
      <path d="M 798.105185 375.297656 
C 798.105185 334.469449 790.062918 294.038244 774.438639 256.317898 
C 758.814361 218.597553 735.911923 184.321632 707.04202 155.45173 
C 678.172118 126.581827 643.896197 103.679389 606.175852 88.055111 
C 568.455506 72.430832 528.024301 64.388565 487.196094 64.388565 
C 446.367886 64.388565 405.936681 72.430832 368.216336 88.055111 
C 330.49599 103.679389 296.22007 126.581827 267.350167 155.45173 
C 238.480265 184.321632 215.577827 218.597553 199.953548 256.317898 
C 184.32927 294.038244 176.287003 334.469449 176.287003 375.297656 
C 176.287003 416.125864 184.32927 456.557069 199.953548 494.277414 
C 215.577827 531.99776 238.480265 566.27368 267.350167 595.143583 
C 296.22007 624.013485 330.49599 646.915923 368.216336 662.540202 
C 405.936681 678.16448 446.367886 686.206747 487.196094 686.206747 
C 528.024301 686.206747 568.455506 678.16448 606.175852 662.540202 
C 643.896197 646.915923 678.172118 624.013485 707.04202 595.143583 
C 735.911923 566.27368 758.814361 531.99776 774.438639 494.277414 
C 790.062918 456.557069 798.105185 416.125864 798.105185 375.297656 
" clip-path="url(#p0124e12757)" style="fill: none; stroke: #b0b0b0; stroke-width: 0.1; stroke-linecap: square"/>
     </g>
     <g id="text_23">
      <!-- 49.5 -->
      <g transform="translate(352.297695 651.257693) scale(0.2 -0.2)">
       <use xlink:href="#DejaVuSans-34"/>
       <use xlink:href="#DejaVuSans-39" x="63.623047"/>
       <use xlink:href="#DejaVuSans-2e" x="127.246094"/>
       <use xlink:href="#DejaVuSans-35" x="159.033203"/>
      </g>
     </g>
    </g>
   </g>
  </g>
  <g id="axes_5">
   <g id="matplotlib.axis_6">
    <g id="ytick_21">
     <g id="line2d_44">
      <path d="M 549.377912 375.297656 
C 549.377912 367.132015 547.769459 359.045774 544.644603 351.501705 
C 541.519747 343.957636 536.93926 337.102451 531.165279 331.328471 
C 525.391299 325.55449 518.536114 320.974003 510.992045 317.849147 
C 503.447976 314.724291 495.361735 313.115838 487.196094 313.115838 
C 479.030452 313.115838 470.944211 314.724291 463.400142 317.849147 
C 455.856073 320.974003 449.000889 325.55449 443.226908 331.328471 
C 437.452928 337.102451 432.87244 343.957636 429.747585 351.501705 
C 426.622729 359.045774 425.014276 367.132015 425.014276 375.297656 
C 425.014276 383.463298 426.622729 391.549539 429.747585 399.093608 
C 432.87244 406.637677 437.452928 413.492861 443.226908 419.266842 
C 449.000889 425.040822 455.856073 429.62131 463.400142 432.746165 
C 470.944211 435.871021 479.030452 437.479474 487.196094 437.479474 
C 495.361735 437.479474 503.447976 435.871021 510.992045 432.746165 
C 518.536114 429.62131 525.391299 425.040822 531.165279 419.266842 
C 536.93926 413.492861 541.519747 406.637677 544.644603 399.093608 
C 547.769459 391.549539 549.377912 383.463298 549.377912 375.297656 
" clip-path="url(#p01a64fc14b)" style="fill: none; stroke: #b0b0b0; stroke-width: 0.1; stroke-linecap: square"/>
     </g>
     <g id="text_24">
      <!-- 56.0 -->
      <g transform="translate(514.175774 427.162164) scale(0.2 -0.2)">
       <defs>
        <path id="DejaVuSans-36" d="M 2113 2584 
Q 1688 2584 1439 2293 
Q 1191 2003 1191 1497 
Q 1191 994 1439 701 
Q 1688 409 2113 409 
Q 2538 409 2786 701 
Q 3034 994 3034 1497 
Q 3034 2003 2786 2293 
Q 2538 2584 2113 2584 
z
M 3366 4563 
L 3366 3988 
Q 3128 4100 2886 4159 
Q 2644 4219 2406 4219 
Q 1781 4219 1451 3797 
Q 1122 3375 1075 2522 
Q 1259 2794 1537 2939 
Q 1816 3084 2150 3084 
Q 2853 3084 3261 2657 
Q 3669 2231 3669 1497 
Q 3669 778 3244 343 
Q 2819 -91 2113 -91 
Q 1303 -91 875 529 
Q 447 1150 447 2328 
Q 447 3434 972 4092 
Q 1497 4750 2381 4750 
Q 2619 4750 2861 4703 
Q 3103 4656 3366 4563 
z
" transform="scale(0.015625)"/>
       </defs>
       <use xlink:href="#DejaVuSans-35"/>
       <use xlink:href="#DejaVuSans-36" x="63.623047"/>
       <use xlink:href="#DejaVuSans-2e" x="127.246094"/>
       <use xlink:href="#DejaVuSans-30" x="159.033203"/>
      </g>
     </g>
    </g>
    <g id="ytick_22">
     <g id="line2d_45">
      <path d="M 611.55973 375.297656 
C 611.55973 358.966373 608.342823 342.793891 602.093112 327.705753 
C 595.843401 312.617615 586.682425 298.907247 575.134464 287.359286 
C 563.586503 275.811325 549.876135 266.650349 534.787997 260.400638 
C 519.699859 254.150927 503.527377 250.93402 487.196094 250.93402 
C 470.864811 250.93402 454.692329 254.150927 439.604191 260.400638 
C 424.516052 266.650349 410.805684 275.811325 399.257723 287.359286 
C 387.709762 298.907247 378.548787 312.617615 372.299076 327.705753 
C 366.049364 342.793891 362.832457 358.966373 362.832457 375.297656 
C 362.832457 391.628939 366.049364 407.801421 372.299076 422.889559 
C 378.548787 437.977698 387.709762 451.688066 399.257723 463.236027 
C 410.805684 474.783988 424.516052 483.944963 439.604191 490.194674 
C 454.692329 496.444386 470.864811 499.661293 487.196094 499.661293 
C 503.527377 499.661293 519.699859 496.444386 534.787997 490.194674 
C 549.876135 483.944963 563.586503 474.783988 575.134464 463.236027 
C 586.682425 451.688066 595.843401 437.977698 602.093112 422.889559 
C 608.342823 407.801421 611.55973 391.628939 611.55973 375.297656 
" clip-path="url(#p01a64fc14b)" style="fill: none; stroke: #b0b0b0; stroke-width: 0.1; stroke-linecap: square"/>
     </g>
    </g>
    <g id="ytick_23">
     <g id="line2d_46">
      <path d="M 673.741548 375.297656 
C 673.741548 350.800732 668.916188 326.542009 659.541621 303.909801 
C 650.167054 281.277594 636.425591 260.712042 619.10365 243.3901 
C 601.781708 226.068159 581.216156 212.326696 558.583949 202.952129 
C 535.951741 193.577562 511.693018 188.752202 487.196094 188.752202 
C 462.699169 188.752202 438.440446 193.577562 415.808239 202.952129 
C 393.176032 212.326696 372.610479 226.068159 355.288538 243.3901 
C 337.966596 260.712042 324.225134 281.277594 314.850566 303.909801 
C 305.475999 326.542009 300.650639 350.800732 300.650639 375.297656 
C 300.650639 399.794581 305.475999 424.053304 314.850566 446.685511 
C 324.225134 469.317718 337.966596 489.883271 355.288538 507.205212 
C 372.610479 524.527154 393.176032 538.268616 415.808239 547.643184 
C 438.440446 557.017751 462.699169 561.843111 487.196094 561.843111 
C 511.693018 561.843111 535.951741 557.017751 558.583949 547.643184 
C 581.216156 538.268616 601.781708 524.527154 619.10365 507.205212 
C 636.425591 489.883271 650.167054 469.317718 659.541621 446.685511 
C 668.916188 424.053304 673.741548 399.794581 673.741548 375.297656 
" clip-path="url(#p01a64fc14b)" style="fill: none; stroke: #b0b0b0; stroke-width: 0.1; stroke-linecap: square"/>
     </g>
    </g>
    <g id="ytick_24">
     <g id="line2d_47">
      <path d="M 735.923366 375.297656 
C 735.923366 342.63509 729.489553 310.290126 716.99013 280.11385 
C 704.490707 249.937573 686.168757 222.516837 663.072835 199.420915 
C 639.976913 176.324993 612.556177 158.003043 582.3799 145.50362 
C 552.203624 133.004197 519.85866 126.570384 487.196094 126.570384 
C 454.533528 126.570384 422.188564 133.004197 392.012287 145.50362 
C 361.836011 158.003043 334.415275 176.324993 311.319353 199.420915 
C 288.22343 222.516837 269.90148 249.937573 257.402057 280.11385 
C 244.902634 310.290126 238.468821 342.63509 238.468821 375.297656 
C 238.468821 407.960222 244.902634 440.305186 257.402057 470.481463 
C 269.90148 500.657739 288.22343 528.078475 311.319353 551.174397 
C 334.415275 574.27032 361.836011 592.59227 392.012287 605.091693 
C 422.188564 617.591116 454.533528 624.024929 487.196094 624.024929 
C 519.85866 624.024929 552.203624 617.591116 582.3799 605.091693 
C 612.556177 592.59227 639.976913 574.27032 663.072835 551.174397 
C 686.168757 528.078475 704.490707 500.657739 716.99013 470.481463 
C 729.489553 440.305186 735.923366 407.960222 735.923366 375.297656 
" clip-path="url(#p01a64fc14b)" style="fill: none; stroke: #b0b0b0; stroke-width: 0.1; stroke-linecap: square"/>
     </g>
    </g>
    <g id="ytick_25">
     <g id="line2d_48">
      <path d="M 798.105185 375.297656 
C 798.105185 334.469449 790.062918 294.038244 774.438639 256.317898 
C 758.814361 218.597553 735.911923 184.321632 707.04202 155.45173 
C 678.172118 126.581827 643.896197 103.679389 606.175852 88.055111 
C 568.455506 72.430832 528.024301 64.388565 487.196094 64.388565 
C 446.367886 64.388565 405.936681 72.430832 368.216336 88.055111 
C 330.49599 103.679389 296.22007 126.581827 267.350167 155.45173 
C 238.480265 184.321632 215.577827 218.597553 199.953548 256.317898 
C 184.32927 294.038244 176.287003 334.469449 176.287003 375.297656 
C 176.287003 416.125864 184.32927 456.557069 199.953548 494.277414 
C 215.577827 531.99776 238.480265 566.27368 267.350167 595.143583 
C 296.22007 624.013485 330.49599 646.915923 368.216336 662.540202 
C 405.936681 678.16448 446.367886 686.206747 487.196094 686.206747 
C 528.024301 686.206747 568.455506 678.16448 606.175852 662.540202 
C 643.896197 646.915923 678.172118 624.013485 707.04202 595.143583 
C 735.911923 566.27368 758.814361 531.99776 774.438639 494.277414 
C 790.062918 456.557069 798.105185 416.125864 798.105185 375.297656 
" clip-path="url(#p01a64fc14b)" style="fill: none; stroke: #b0b0b0; stroke-width: 0.1; stroke-linecap: square"/>
     </g>
     <g id="text_25">
      <!-- 46.0 -->
      <g transform="translate(622.094493 651.257693) scale(0.2 -0.2)">
       <use xlink:href="#DejaVuSans-34"/>
       <use xlink:href="#DejaVuSans-36" x="63.623047"/>
       <use xlink:href="#DejaVuSans-2e" x="127.246094"/>
       <use xlink:href="#DejaVuSans-30" x="159.033203"/>
      </g>
     </g>
    </g>
   </g>
  </g>
  <g id="axes_6">
   <g id="matplotlib.axis_7">
    <g id="ytick_26">
     <g id="line2d_49">
      <path d="M 549.377912 375.297656 
C 549.377912 367.132015 547.769459 359.045774 544.644603 351.501705 
C 541.519747 343.957636 536.93926 337.102451 531.165279 331.328471 
C 525.391299 325.55449 518.536114 320.974003 510.992045 317.849147 
C 503.447976 314.724291 495.361735 313.115838 487.196094 313.115838 
C 479.030452 313.115838 470.944211 314.724291 463.400142 317.849147 
C 455.856073 320.974003 449.000889 325.55449 443.226908 331.328471 
C 437.452928 337.102451 432.87244 343.957636 429.747585 351.501705 
C 426.622729 359.045774 425.014276 367.132015 425.014276 375.297656 
C 425.014276 383.463298 426.622729 391.549539 429.747585 399.093608 
C 432.87244 406.637677 437.452928 413.492861 443.226908 419.266842 
C 449.000889 425.040822 455.856073 429.62131 463.400142 432.746165 
C 470.944211 435.871021 479.030452 437.479474 487.196094 437.479474 
C 495.361735 437.479474 503.447976 435.871021 510.992045 432.746165 
C 518.536114 429.62131 525.391299 425.040822 531.165279 419.266842 
C 536.93926 413.492861 541.519747 406.637677 544.644603 399.093608 
C 547.769459 391.549539 549.377912 383.463298 549.377912 375.297656 
" clip-path="url(#pdac3211e6e)" style="fill: none; stroke: #b0b0b0; stroke-width: 0.1; stroke-linecap: square"/>
     </g>
     <g id="text_26">
      <!-- 38.0 -->
      <g transform="translate(547.818884 384.975038) scale(0.2 -0.2)">
       <use xlink:href="#DejaVuSans-33"/>
       <use xlink:href="#DejaVuSans-38" x="63.623047"/>
       <use xlink:href="#DejaVuSans-2e" x="127.246094"/>
       <use xlink:href="#DejaVuSans-30" x="159.033203"/>
      </g>
     </g>
    </g>
    <g id="ytick_27">
     <g id="line2d_50">
      <path d="M 611.55973 375.297656 
C 611.55973 358.966373 608.342823 342.793891 602.093112 327.705753 
C 595.843401 312.617615 586.682425 298.907247 575.134464 287.359286 
C 563.586503 275.811325 549.876135 266.650349 534.787997 260.400638 
C 519.699859 254.150927 503.527377 250.93402 487.196094 250.93402 
C 470.864811 250.93402 454.692329 254.150927 439.604191 260.400638 
C 424.516052 266.650349 410.805684 275.811325 399.257723 287.359286 
C 387.709762 298.907247 378.548787 312.617615 372.299076 327.705753 
C 366.049364 342.793891 362.832457 358.966373 362.832457 375.297656 
C 362.832457 391.628939 366.049364 407.801421 372.299076 422.889559 
C 378.548787 437.977698 387.709762 451.688066 399.257723 463.236027 
C 410.805684 474.783988 424.516052 483.944963 439.604191 490.194674 
C 454.692329 496.444386 470.864811 499.661293 487.196094 499.661293 
C 503.527377 499.661293 519.699859 496.444386 534.787997 490.194674 
C 549.876135 483.944963 563.586503 474.783988 575.134464 463.236027 
C 586.682425 451.688066 595.843401 437.977698 602.093112 422.889559 
C 608.342823 407.801421 611.55973 391.628939 611.55973 375.297656 
" clip-path="url(#pdac3211e6e)" style="fill: none; stroke: #b0b0b0; stroke-width: 0.1; stroke-linecap: square"/>
     </g>
    </g>
    <g id="ytick_28">
     <g id="line2d_51">
      <path d="M 673.741548 375.297656 
C 673.741548 350.800732 668.916188 326.542009 659.541621 303.909801 
C 650.167054 281.277594 636.425591 260.712042 619.10365 243.3901 
C 601.781708 226.068159 581.216156 212.326696 558.583949 202.952129 
C 535.951741 193.577562 511.693018 188.752202 487.196094 188.752202 
C 462.699169 188.752202 438.440446 193.577562 415.808239 202.952129 
C 393.176032 212.326696 372.610479 226.068159 355.288538 243.3901 
C 337.966596 260.712042 324.225134 281.277594 314.850566 303.909801 
C 305.475999 326.542009 300.650639 350.800732 300.650639 375.297656 
C 300.650639 399.794581 305.475999 424.053304 314.850566 446.685511 
C 324.225134 469.317718 337.966596 489.883271 355.288538 507.205212 
C 372.610479 524.527154 393.176032 538.268616 415.808239 547.643184 
C 438.440446 557.017751 462.699169 561.843111 487.196094 561.843111 
C 511.693018 561.843111 535.951741 557.017751 558.583949 547.643184 
C 581.216156 538.268616 601.781708 524.527154 619.10365 507.205212 
C 636.425591 489.883271 650.167054 469.317718 659.541621 446.685511 
C 668.916188 424.053304 673.741548 399.794581 673.741548 375.297656 
" clip-path="url(#pdac3211e6e)" style="fill: none; stroke: #b0b0b0; stroke-width: 0.1; stroke-linecap: square"/>
     </g>
    </g>
    <g id="ytick_29">
     <g id="line2d_52">
      <path d="M 735.923366 375.297656 
C 735.923366 342.63509 729.489553 310.290126 716.99013 280.11385 
C 704.490707 249.937573 686.168757 222.516837 663.072835 199.420915 
C 639.976913 176.324993 612.556177 158.003043 582.3799 145.50362 
C 552.203624 133.004197 519.85866 126.570384 487.196094 126.570384 
C 454.533528 126.570384 422.188564 133.004197 392.012287 145.50362 
C 361.836011 158.003043 334.415275 176.324993 311.319353 199.420915 
C 288.22343 222.516837 269.90148 249.937573 257.402057 280.11385 
C 244.902634 310.290126 238.468821 342.63509 238.468821 375.297656 
C 238.468821 407.960222 244.902634 440.305186 257.402057 470.481463 
C 269.90148 500.657739 288.22343 528.078475 311.319353 551.174397 
C 334.415275 574.27032 361.836011 592.59227 392.012287 605.091693 
C 422.188564 617.591116 454.533528 624.024929 487.196094 624.024929 
C 519.85866 624.024929 552.203624 617.591116 582.3799 605.091693 
C 612.556177 592.59227 639.976913 574.27032 663.072835 551.174397 
C 686.168757 528.078475 704.490707 500.657739 716.99013 470.481463 
C 729.489553 440.305186 735.923366 407.960222 735.923366 375.297656 
" clip-path="url(#pdac3211e6e)" style="fill: none; stroke: #b0b0b0; stroke-width: 0.1; stroke-linecap: square"/>
     </g>
    </g>
    <g id="ytick_30">
     <g id="line2d_53">
      <path d="M 798.105185 375.297656 
C 798.105185 334.469449 790.062918 294.038244 774.438639 256.317898 
C 758.814361 218.597553 735.911923 184.321632 707.04202 155.45173 
C 678.172118 126.581827 643.896197 103.679389 606.175852 88.055111 
C 568.455506 72.430832 528.024301 64.388565 487.196094 64.388565 
C 446.367886 64.388565 405.936681 72.430832 368.216336 88.055111 
C 330.49599 103.679389 296.22007 126.581827 267.350167 155.45173 
C 238.480265 184.321632 215.577827 218.597553 199.953548 256.317898 
C 184.32927 294.038244 176.287003 334.469449 176.287003 375.297656 
C 176.287003 416.125864 184.32927 456.557069 199.953548 494.277414 
C 215.577827 531.99776 238.480265 566.27368 267.350167 595.143583 
C 296.22007 624.013485 330.49599 646.915923 368.216336 662.540202 
C 405.936681 678.16448 446.367886 686.206747 487.196094 686.206747 
C 528.024301 686.206747 568.455506 678.16448 606.175852 662.540202 
C 643.896197 646.915923 678.172118 624.013485 707.04202 595.143583 
C 735.911923 566.27368 758.814361 531.99776 774.438639 494.277414 
C 790.062918 456.557069 798.105185 416.125864 798.105185 375.297656 
" clip-path="url(#pdac3211e6e)" style="fill: none; stroke: #b0b0b0; stroke-width: 0.1; stroke-linecap: square"/>
     </g>
     <g id="text_27">
      <!-- 28.0 -->
      <g transform="translate(790.310045 440.322063) scale(0.2 -0.2)">
       <use xlink:href="#DejaVuSans-32"/>
       <use xlink:href="#DejaVuSans-38" x="63.623047"/>
       <use xlink:href="#DejaVuSans-2e" x="127.246094"/>
       <use xlink:href="#DejaVuSans-30" x="159.033203"/>
      </g>
     </g>
    </g>
   </g>
  </g>
  <g id="axes_7">
   <g id="matplotlib.axis_8">
    <g id="ytick_31">
     <g id="line2d_54">
      <path d="M 549.377912 375.297656 
C 549.377912 367.132015 547.769459 359.045774 544.644603 351.501705 
C 541.519747 343.957636 536.93926 337.102451 531.165279 331.328471 
C 525.391299 325.55449 518.536114 320.974003 510.992045 317.849147 
C 503.447976 314.724291 495.361735 313.115838 487.196094 313.115838 
C 479.030452 313.115838 470.944211 314.724291 463.400142 317.849147 
C 455.856073 320.974003 449.000889 325.55449 443.226908 331.328471 
C 437.452928 337.102451 432.87244 343.957636 429.747585 351.501705 
C 426.622729 359.045774 425.014276 367.132015 425.014276 375.297656 
C 425.014276 383.463298 426.622729 391.549539 429.747585 399.093608 
C 432.87244 406.637677 437.452928 413.492861 443.226908 419.266842 
C 449.000889 425.040822 455.856073 429.62131 463.400142 432.746165 
C 470.944211 435.871021 479.030452 437.479474 487.196094 437.479474 
C 495.361735 437.479474 503.447976 435.871021 510.992045 432.746165 
C 518.536114 429.62131 525.391299 425.040822 531.165279 419.266842 
C 536.93926 413.492861 541.519747 406.637677 544.644603 399.093608 
C 547.769459 391.549539 549.377912 383.463298 549.377912 375.297656 
" clip-path="url(#p04a145c05d)" style="fill: none; stroke: #b0b0b0; stroke-width: 0.1; stroke-linecap: square"/>
     </g>
     <g id="text_28">
      <!-- 75.0 -->
      <g transform="translate(535.811797 332.368552) scale(0.2 -0.2)">
       <use xlink:href="#DejaVuSans-37"/>
       <use xlink:href="#DejaVuSans-35" x="63.623047"/>
       <use xlink:href="#DejaVuSans-2e" x="127.246094"/>
       <use xlink:href="#DejaVuSans-30" x="159.033203"/>
      </g>
     </g>
    </g>
    <g id="ytick_32">
     <g id="line2d_55">
      <path d="M 611.55973 375.297656 
C 611.55973 358.966373 608.342823 342.793891 602.093112 327.705753 
C 595.843401 312.617615 586.682425 298.907247 575.134464 287.359286 
C 563.586503 275.811325 549.876135 266.650349 534.787997 260.400638 
C 519.699859 254.150927 503.527377 250.93402 487.196094 250.93402 
C 470.864811 250.93402 454.692329 254.150927 439.604191 260.400638 
C 424.516052 266.650349 410.805684 275.811325 399.257723 287.359286 
C 387.709762 298.907247 378.548787 312.617615 372.299076 327.705753 
C 366.049364 342.793891 362.832457 358.966373 362.832457 375.297656 
C 362.832457 391.628939 366.049364 407.801421 372.299076 422.889559 
C 378.548787 437.977698 387.709762 451.688066 399.257723 463.236027 
C 410.805684 474.783988 424.516052 483.944963 439.604191 490.194674 
C 454.692329 496.444386 470.864811 499.661293 487.196094 499.661293 
C 503.527377 499.661293 519.699859 496.444386 534.787997 490.194674 
C 549.876135 483.944963 563.586503 474.783988 575.134464 463.236027 
C 586.682425 451.688066 595.843401 437.977698 602.093112 422.889559 
C 608.342823 407.801421 611.55973 391.628939 611.55973 375.297656 
" clip-path="url(#p04a145c05d)" style="fill: none; stroke: #b0b0b0; stroke-width: 0.1; stroke-linecap: square"/>
     </g>
    </g>
    <g id="ytick_33">
     <g id="line2d_56">
      <path d="M 673.741548 375.297656 
C 673.741548 350.800732 668.916188 326.542009 659.541621 303.909801 
C 650.167054 281.277594 636.425591 260.712042 619.10365 243.3901 
C 601.781708 226.068159 581.216156 212.326696 558.583949 202.952129 
C 535.951741 193.577562 511.693018 188.752202 487.196094 188.752202 
C 462.699169 188.752202 438.440446 193.577562 415.808239 202.952129 
C 393.176032 212.326696 372.610479 226.068159 355.288538 243.3901 
C 337.966596 260.712042 324.225134 281.277594 314.850566 303.909801 
C 305.475999 326.542009 300.650639 350.800732 300.650639 375.297656 
C 300.650639 399.794581 305.475999 424.053304 314.850566 446.685511 
C 324.225134 469.317718 337.966596 489.883271 355.288538 507.205212 
C 372.610479 524.527154 393.176032 538.268616 415.808239 547.643184 
C 438.440446 557.017751 462.699169 561.843111 487.196094 561.843111 
C 511.693018 561.843111 535.951741 557.017751 558.583949 547.643184 
C 581.216156 538.268616 601.781708 524.527154 619.10365 507.205212 
C 636.425591 489.883271 650.167054 469.317718 659.541621 446.685511 
C 668.916188 424.053304 673.741548 399.794581 673.741548 375.297656 
" clip-path="url(#p04a145c05d)" style="fill: none; stroke: #b0b0b0; stroke-width: 0.1; stroke-linecap: square"/>
     </g>
    </g>
    <g id="ytick_34">
     <g id="line2d_57">
      <path d="M 735.923366 375.297656 
C 735.923366 342.63509 729.489553 310.290126 716.99013 280.11385 
C 704.490707 249.937573 686.168757 222.516837 663.072835 199.420915 
C 639.976913 176.324993 612.556177 158.003043 582.3799 145.50362 
C 552.203624 133.004197 519.85866 126.570384 487.196094 126.570384 
C 454.533528 126.570384 422.188564 133.004197 392.012287 145.50362 
C 361.836011 158.003043 334.415275 176.324993 311.319353 199.420915 
C 288.22343 222.516837 269.90148 249.937573 257.402057 280.11385 
C 244.902634 310.290126 238.468821 342.63509 238.468821 375.297656 
C 238.468821 407.960222 244.902634 440.305186 257.402057 470.481463 
C 269.90148 500.657739 288.22343 528.078475 311.319353 551.174397 
C 334.415275 574.27032 361.836011 592.59227 392.012287 605.091693 
C 422.188564 617.591116 454.533528 624.024929 487.196094 624.024929 
C 519.85866 624.024929 552.203624 617.591116 582.3799 605.091693 
C 612.556177 592.59227 639.976913 574.27032 663.072835 551.174397 
C 686.168757 528.078475 704.490707 500.657739 716.99013 470.481463 
C 729.489553 440.305186 735.923366 407.960222 735.923366 375.297656 
" clip-path="url(#p04a145c05d)" style="fill: none; stroke: #b0b0b0; stroke-width: 0.1; stroke-linecap: square"/>
     </g>
    </g>
    <g id="ytick_35">
     <g id="line2d_58">
      <path d="M 798.105185 375.297656 
C 798.105185 334.469449 790.062918 294.038244 774.438639 256.317898 
C 758.814361 218.597553 735.911923 184.321632 707.04202 155.45173 
C 678.172118 126.581827 643.896197 103.679389 606.175852 88.055111 
C 568.455506 72.430832 528.024301 64.388565 487.196094 64.388565 
C 446.367886 64.388565 405.936681 72.430832 368.216336 88.055111 
C 330.49599 103.679389 296.22007 126.581827 267.350167 155.45173 
C 238.480265 184.321632 215.577827 218.597553 199.953548 256.317898 
C 184.32927 294.038244 176.287003 334.469449 176.287003 375.297656 
C 176.287003 416.125864 184.32927 456.557069 199.953548 494.277414 
C 215.577827 531.99776 238.480265 566.27368 267.350167 595.143583 
C 296.22007 624.013485 330.49599 646.915923 368.216336 662.540202 
C 405.936681 678.16448 446.367886 686.206747 487.196094 686.206747 
C 528.024301 686.206747 568.455506 678.16448 606.175852 662.540202 
C 643.896197 646.915923 678.172118 624.013485 707.04202 595.143583 
C 735.911923 566.27368 758.814361 531.99776 774.438639 494.277414 
C 790.062918 456.557069 798.105185 416.125864 798.105185 375.297656 
" clip-path="url(#p04a145c05d)" style="fill: none; stroke: #b0b0b0; stroke-width: 0.1; stroke-linecap: square"/>
     </g>
     <g id="text_29">
      <!-- 30.0 -->
      <g transform="translate(730.274609 177.289634) scale(0.2 -0.2)">
       <use xlink:href="#DejaVuSans-33"/>
       <use xlink:href="#DejaVuSans-30" x="63.623047"/>
       <use xlink:href="#DejaVuSans-2e" x="127.246094"/>
       <use xlink:href="#DejaVuSans-30" x="159.033203"/>
      </g>
     </g>
    </g>
   </g>
  </g>
 </g>
 <defs>
  <clipPath id="p9088a70851">
   <path d="M 829.196094 375.297656 
C 829.196094 330.386628 820.3496 285.912302 803.162894 244.419922 
C 785.976187 202.927542 760.783506 165.22403 729.026613 133.467137 
C 697.26972 101.710244 659.566208 76.517563 618.073828 59.330856 
C 576.581448 42.14415 532.107122 33.297656 487.196094 33.297656 
C 442.285065 33.297656 397.81074 42.14415 356.31836 59.330856 
C 314.82598 76.517563 277.122467 101.710244 245.365575 133.467137 
C 213.608682 165.22403 188.416 202.927542 171.229294 244.419922 
C 154.042587 285.912302 145.196094 330.386628 145.196094 375.297656 
C 145.196094 420.208685 154.042587 464.68301 171.229294 506.17539 
C 188.416 547.66777 213.608682 585.371283 245.365575 617.128175 
C 277.122467 648.885068 314.82598 674.07775 356.31836 691.264456 
C 397.81074 708.451163 442.285065 717.297656 487.196094 717.297656 
C 532.107122 717.297656 576.581448 708.451163 618.073828 691.264456 
C 659.566208 674.07775 697.26972 648.885068 729.026613 617.128175 
C 760.783506 585.371283 785.976187 547.66777 803.162894 506.17539 
C 820.3496 464.68301 829.196094 420.208685 829.196094 375.297656 
M 487.196094 375.297656 
C 487.196094 375.297656 487.196094 375.297656 487.196094 375.297656 
C 487.196094 375.297656 487.196094 375.297656 487.196094 375.297656 
C 487.196094 375.297656 487.196094 375.297656 487.196094 375.297656 
C 487.196094 375.297656 487.196094 375.297656 487.196094 375.297656 
C 487.196094 375.297656 487.196094 375.297656 487.196094 375.297656 
C 487.196094 375.297656 487.196094 375.297656 487.196094 375.297656 
C 487.196094 375.297656 487.196094 375.297656 487.196094 375.297656 
C 487.196094 375.297656 487.196094 375.297656 487.196094 375.297656 
C 487.196094 375.297656 487.196094 375.297656 487.196094 375.297656 
C 487.196094 375.297656 487.196094 375.297656 487.196094 375.297656 
C 487.196094 375.297656 487.196094 375.297656 487.196094 375.297656 
C 487.196094 375.297656 487.196094 375.297656 487.196094 375.297656 
C 487.196094 375.297656 487.196094 375.297656 487.196094 375.297656 
C 487.196094 375.297656 487.196094 375.297656 487.196094 375.297656 
C 487.196094 375.297656 487.196094 375.297656 487.196094 375.297656 
C 487.196094 375.297656 487.196094 375.297656 487.196094 375.297656 
M 829.196094 375.297656 
z
"/>
  </clipPath>
  <clipPath id="p599015e638">
   <path d="M 829.196094 375.297656 
C 829.196094 330.386628 820.3496 285.912302 803.162894 244.419922 
C 785.976187 202.927542 760.783506 165.22403 729.026613 133.467137 
C 697.26972 101.710244 659.566208 76.517563 618.073828 59.330856 
C 576.581448 42.14415 532.107122 33.297656 487.196094 33.297656 
C 442.285065 33.297656 397.81074 42.14415 356.31836 59.330856 
C 314.82598 76.517563 277.122467 101.710244 245.365575 133.467137 
C 213.608682 165.22403 188.416 202.927542 171.229294 244.419922 
C 154.042587 285.912302 145.196094 330.386628 145.196094 375.297656 
C 145.196094 420.208685 154.042587 464.68301 171.229294 506.17539 
C 188.416 547.66777 213.608682 585.371283 245.365575 617.128175 
C 277.122467 648.885068 314.82598 674.07775 356.31836 691.264456 
C 397.81074 708.451163 442.285065 717.297656 487.196094 717.297656 
C 532.107122 717.297656 576.581448 708.451163 618.073828 691.264456 
C 659.566208 674.07775 697.26972 648.885068 729.026613 617.128175 
C 760.783506 585.371283 785.976187 547.66777 803.162894 506.17539 
C 820.3496 464.68301 829.196094 420.208685 829.196094 375.297656 
M 487.196094 375.297656 
C 487.196094 375.297656 487.196094 375.297656 487.196094 375.297656 
C 487.196094 375.297656 487.196094 375.297656 487.196094 375.297656 
C 487.196094 375.297656 487.196094 375.297656 487.196094 375.297656 
C 487.196094 375.297656 487.196094 375.297656 487.196094 375.297656 
C 487.196094 375.297656 487.196094 375.297656 487.196094 375.297656 
C 487.196094 375.297656 487.196094 375.297656 487.196094 375.297656 
C 487.196094 375.297656 487.196094 375.297656 487.196094 375.297656 
C 487.196094 375.297656 487.196094 375.297656 487.196094 375.297656 
C 487.196094 375.297656 487.196094 375.297656 487.196094 375.297656 
C 487.196094 375.297656 487.196094 375.297656 487.196094 375.297656 
C 487.196094 375.297656 487.196094 375.297656 487.196094 375.297656 
C 487.196094 375.297656 487.196094 375.297656 487.196094 375.297656 
C 487.196094 375.297656 487.196094 375.297656 487.196094 375.297656 
C 487.196094 375.297656 487.196094 375.297656 487.196094 375.297656 
C 487.196094 375.297656 487.196094 375.297656 487.196094 375.297656 
C 487.196094 375.297656 487.196094 375.297656 487.196094 375.297656 
M 829.196094 375.297656 
z
"/>
  </clipPath>
  <clipPath id="peef64da1b5">
   <path d="M 829.196094 375.297656 
C 829.196094 330.386628 820.3496 285.912302 803.162894 244.419922 
C 785.976187 202.927542 760.783506 165.22403 729.026613 133.467137 
C 697.26972 101.710244 659.566208 76.517563 618.073828 59.330856 
C 576.581448 42.14415 532.107122 33.297656 487.196094 33.297656 
C 442.285065 33.297656 397.81074 42.14415 356.31836 59.330856 
C 314.82598 76.517563 277.122467 101.710244 245.365575 133.467137 
C 213.608682 165.22403 188.416 202.927542 171.229294 244.419922 
C 154.042587 285.912302 145.196094 330.386628 145.196094 375.297656 
C 145.196094 420.208685 154.042587 464.68301 171.229294 506.17539 
C 188.416 547.66777 213.608682 585.371283 245.365575 617.128175 
C 277.122467 648.885068 314.82598 674.07775 356.31836 691.264456 
C 397.81074 708.451163 442.285065 717.297656 487.196094 717.297656 
C 532.107122 717.297656 576.581448 708.451163 618.073828 691.264456 
C 659.566208 674.07775 697.26972 648.885068 729.026613 617.128175 
C 760.783506 585.371283 785.976187 547.66777 803.162894 506.17539 
C 820.3496 464.68301 829.196094 420.208685 829.196094 375.297656 
M 487.196094 375.297656 
C 487.196094 375.297656 487.196094 375.297656 487.196094 375.297656 
C 487.196094 375.297656 487.196094 375.297656 487.196094 375.297656 
C 487.196094 375.297656 487.196094 375.297656 487.196094 375.297656 
C 487.196094 375.297656 487.196094 375.297656 487.196094 375.297656 
C 487.196094 375.297656 487.196094 375.297656 487.196094 375.297656 
C 487.196094 375.297656 487.196094 375.297656 487.196094 375.297656 
C 487.196094 375.297656 487.196094 375.297656 487.196094 375.297656 
C 487.196094 375.297656 487.196094 375.297656 487.196094 375.297656 
C 487.196094 375.297656 487.196094 375.297656 487.196094 375.297656 
C 487.196094 375.297656 487.196094 375.297656 487.196094 375.297656 
C 487.196094 375.297656 487.196094 375.297656 487.196094 375.297656 
C 487.196094 375.297656 487.196094 375.297656 487.196094 375.297656 
C 487.196094 375.297656 487.196094 375.297656 487.196094 375.297656 
C 487.196094 375.297656 487.196094 375.297656 487.196094 375.297656 
C 487.196094 375.297656 487.196094 375.297656 487.196094 375.297656 
C 487.196094 375.297656 487.196094 375.297656 487.196094 375.297656 
M 829.196094 375.297656 
z
"/>
  </clipPath>
  <clipPath id="p0124e12757">
   <path d="M 829.196094 375.297656 
C 829.196094 330.386628 820.3496 285.912302 803.162894 244.419922 
C 785.976187 202.927542 760.783506 165.22403 729.026613 133.467137 
C 697.26972 101.710244 659.566208 76.517563 618.073828 59.330856 
C 576.581448 42.14415 532.107122 33.297656 487.196094 33.297656 
C 442.285065 33.297656 397.81074 42.14415 356.31836 59.330856 
C 314.82598 76.517563 277.122467 101.710244 245.365575 133.467137 
C 213.608682 165.22403 188.416 202.927542 171.229294 244.419922 
C 154.042587 285.912302 145.196094 330.386628 145.196094 375.297656 
C 145.196094 420.208685 154.042587 464.68301 171.229294 506.17539 
C 188.416 547.66777 213.608682 585.371283 245.365575 617.128175 
C 277.122467 648.885068 314.82598 674.07775 356.31836 691.264456 
C 397.81074 708.451163 442.285065 717.297656 487.196094 717.297656 
C 532.107122 717.297656 576.581448 708.451163 618.073828 691.264456 
C 659.566208 674.07775 697.26972 648.885068 729.026613 617.128175 
C 760.783506 585.371283 785.976187 547.66777 803.162894 506.17539 
C 820.3496 464.68301 829.196094 420.208685 829.196094 375.297656 
M 487.196094 375.297656 
C 487.196094 375.297656 487.196094 375.297656 487.196094 375.297656 
C 487.196094 375.297656 487.196094 375.297656 487.196094 375.297656 
C 487.196094 375.297656 487.196094 375.297656 487.196094 375.297656 
C 487.196094 375.297656 487.196094 375.297656 487.196094 375.297656 
C 487.196094 375.297656 487.196094 375.297656 487.196094 375.297656 
C 487.196094 375.297656 487.196094 375.297656 487.196094 375.297656 
C 487.196094 375.297656 487.196094 375.297656 487.196094 375.297656 
C 487.196094 375.297656 487.196094 375.297656 487.196094 375.297656 
C 487.196094 375.297656 487.196094 375.297656 487.196094 375.297656 
C 487.196094 375.297656 487.196094 375.297656 487.196094 375.297656 
C 487.196094 375.297656 487.196094 375.297656 487.196094 375.297656 
C 487.196094 375.297656 487.196094 375.297656 487.196094 375.297656 
C 487.196094 375.297656 487.196094 375.297656 487.196094 375.297656 
C 487.196094 375.297656 487.196094 375.297656 487.196094 375.297656 
C 487.196094 375.297656 487.196094 375.297656 487.196094 375.297656 
C 487.196094 375.297656 487.196094 375.297656 487.196094 375.297656 
M 829.196094 375.297656 
z
"/>
  </clipPath>
  <clipPath id="p01a64fc14b">
   <path d="M 829.196094 375.297656 
C 829.196094 330.386628 820.3496 285.912302 803.162894 244.419922 
C 785.976187 202.927542 760.783506 165.22403 729.026613 133.467137 
C 697.26972 101.710244 659.566208 76.517563 618.073828 59.330856 
C 576.581448 42.14415 532.107122 33.297656 487.196094 33.297656 
C 442.285065 33.297656 397.81074 42.14415 356.31836 59.330856 
C 314.82598 76.517563 277.122467 101.710244 245.365575 133.467137 
C 213.608682 165.22403 188.416 202.927542 171.229294 244.419922 
C 154.042587 285.912302 145.196094 330.386628 145.196094 375.297656 
C 145.196094 420.208685 154.042587 464.68301 171.229294 506.17539 
C 188.416 547.66777 213.608682 585.371283 245.365575 617.128175 
C 277.122467 648.885068 314.82598 674.07775 356.31836 691.264456 
C 397.81074 708.451163 442.285065 717.297656 487.196094 717.297656 
C 532.107122 717.297656 576.581448 708.451163 618.073828 691.264456 
C 659.566208 674.07775 697.26972 648.885068 729.026613 617.128175 
C 760.783506 585.371283 785.976187 547.66777 803.162894 506.17539 
C 820.3496 464.68301 829.196094 420.208685 829.196094 375.297656 
M 487.196094 375.297656 
C 487.196094 375.297656 487.196094 375.297656 487.196094 375.297656 
C 487.196094 375.297656 487.196094 375.297656 487.196094 375.297656 
C 487.196094 375.297656 487.196094 375.297656 487.196094 375.297656 
C 487.196094 375.297656 487.196094 375.297656 487.196094 375.297656 
C 487.196094 375.297656 487.196094 375.297656 487.196094 375.297656 
C 487.196094 375.297656 487.196094 375.297656 487.196094 375.297656 
C 487.196094 375.297656 487.196094 375.297656 487.196094 375.297656 
C 487.196094 375.297656 487.196094 375.297656 487.196094 375.297656 
C 487.196094 375.297656 487.196094 375.297656 487.196094 375.297656 
C 487.196094 375.297656 487.196094 375.297656 487.196094 375.297656 
C 487.196094 375.297656 487.196094 375.297656 487.196094 375.297656 
C 487.196094 375.297656 487.196094 375.297656 487.196094 375.297656 
C 487.196094 375.297656 487.196094 375.297656 487.196094 375.297656 
C 487.196094 375.297656 487.196094 375.297656 487.196094 375.297656 
C 487.196094 375.297656 487.196094 375.297656 487.196094 375.297656 
C 487.196094 375.297656 487.196094 375.297656 487.196094 375.297656 
M 829.196094 375.297656 
z
"/>
  </clipPath>
  <clipPath id="pdac3211e6e">
   <path d="M 829.196094 375.297656 
C 829.196094 330.386628 820.3496 285.912302 803.162894 244.419922 
C 785.976187 202.927542 760.783506 165.22403 729.026613 133.467137 
C 697.26972 101.710244 659.566208 76.517563 618.073828 59.330856 
C 576.581448 42.14415 532.107122 33.297656 487.196094 33.297656 
C 442.285065 33.297656 397.81074 42.14415 356.31836 59.330856 
C 314.82598 76.517563 277.122467 101.710244 245.365575 133.467137 
C 213.608682 165.22403 188.416 202.927542 171.229294 244.419922 
C 154.042587 285.912302 145.196094 330.386628 145.196094 375.297656 
C 145.196094 420.208685 154.042587 464.68301 171.229294 506.17539 
C 188.416 547.66777 213.608682 585.371283 245.365575 617.128175 
C 277.122467 648.885068 314.82598 674.07775 356.31836 691.264456 
C 397.81074 708.451163 442.285065 717.297656 487.196094 717.297656 
C 532.107122 717.297656 576.581448 708.451163 618.073828 691.264456 
C 659.566208 674.07775 697.26972 648.885068 729.026613 617.128175 
C 760.783506 585.371283 785.976187 547.66777 803.162894 506.17539 
C 820.3496 464.68301 829.196094 420.208685 829.196094 375.297656 
M 487.196094 375.297656 
C 487.196094 375.297656 487.196094 375.297656 487.196094 375.297656 
C 487.196094 375.297656 487.196094 375.297656 487.196094 375.297656 
C 487.196094 375.297656 487.196094 375.297656 487.196094 375.297656 
C 487.196094 375.297656 487.196094 375.297656 487.196094 375.297656 
C 487.196094 375.297656 487.196094 375.297656 487.196094 375.297656 
C 487.196094 375.297656 487.196094 375.297656 487.196094 375.297656 
C 487.196094 375.297656 487.196094 375.297656 487.196094 375.297656 
C 487.196094 375.297656 487.196094 375.297656 487.196094 375.297656 
C 487.196094 375.297656 487.196094 375.297656 487.196094 375.297656 
C 487.196094 375.297656 487.196094 375.297656 487.196094 375.297656 
C 487.196094 375.297656 487.196094 375.297656 487.196094 375.297656 
C 487.196094 375.297656 487.196094 375.297656 487.196094 375.297656 
C 487.196094 375.297656 487.196094 375.297656 487.196094 375.297656 
C 487.196094 375.297656 487.196094 375.297656 487.196094 375.297656 
C 487.196094 375.297656 487.196094 375.297656 487.196094 375.297656 
C 487.196094 375.297656 487.196094 375.297656 487.196094 375.297656 
M 829.196094 375.297656 
z
"/>
  </clipPath>
  <clipPath id="p04a145c05d">
   <path d="M 829.196094 375.297656 
C 829.196094 330.386628 820.3496 285.912302 803.162894 244.419922 
C 785.976187 202.927542 760.783506 165.22403 729.026613 133.467137 
C 697.26972 101.710244 659.566208 76.517563 618.073828 59.330856 
C 576.581448 42.14415 532.107122 33.297656 487.196094 33.297656 
C 442.285065 33.297656 397.81074 42.14415 356.31836 59.330856 
C 314.82598 76.517563 277.122467 101.710244 245.365575 133.467137 
C 213.608682 165.22403 188.416 202.927542 171.229294 244.419922 
C 154.042587 285.912302 145.196094 330.386628 145.196094 375.297656 
C 145.196094 420.208685 154.042587 464.68301 171.229294 506.17539 
C 188.416 547.66777 213.608682 585.371283 245.365575 617.128175 
C 277.122467 648.885068 314.82598 674.07775 356.31836 691.264456 
C 397.81074 708.451163 442.285065 717.297656 487.196094 717.297656 
C 532.107122 717.297656 576.581448 708.451163 618.073828 691.264456 
C 659.566208 674.07775 697.26972 648.885068 729.026613 617.128175 
C 760.783506 585.371283 785.976187 547.66777 803.162894 506.17539 
C 820.3496 464.68301 829.196094 420.208685 829.196094 375.297656 
M 487.196094 375.297656 
C 487.196094 375.297656 487.196094 375.297656 487.196094 375.297656 
C 487.196094 375.297656 487.196094 375.297656 487.196094 375.297656 
C 487.196094 375.297656 487.196094 375.297656 487.196094 375.297656 
C 487.196094 375.297656 487.196094 375.297656 487.196094 375.297656 
C 487.196094 375.297656 487.196094 375.297656 487.196094 375.297656 
C 487.196094 375.297656 487.196094 375.297656 487.196094 375.297656 
C 487.196094 375.297656 487.196094 375.297656 487.196094 375.297656 
C 487.196094 375.297656 487.196094 375.297656 487.196094 375.297656 
C 487.196094 375.297656 487.196094 375.297656 487.196094 375.297656 
C 487.196094 375.297656 487.196094 375.297656 487.196094 375.297656 
C 487.196094 375.297656 487.196094 375.297656 487.196094 375.297656 
C 487.196094 375.297656 487.196094 375.297656 487.196094 375.297656 
C 487.196094 375.297656 487.196094 375.297656 487.196094 375.297656 
C 487.196094 375.297656 487.196094 375.297656 487.196094 375.297656 
C 487.196094 375.297656 487.196094 375.297656 487.196094 375.297656 
C 487.196094 375.297656 487.196094 375.297656 487.196094 375.297656 
M 829.196094 375.297656 
z
"/>
  </clipPath>
 </defs>
</svg>
