<?xml version="1.0" encoding="utf-8" standalone="no"?>
<!DOCTYPE svg PUBLIC "-//W3C//DTD SVG 1.1//EN"
  "http://www.w3.org/Graphics/SVG/1.1/DTD/svg11.dtd">
<svg xmlns:xlink="http://www.w3.org/1999/xlink" width="857.7625pt" height="707.825675pt" viewBox="0 0 857.7625 707.825675" xmlns="http://www.w3.org/2000/svg" version="1.1">
 <metadata>
  <rdf:RDF xmlns:dc="http://purl.org/dc/elements/1.1/" xmlns:cc="http://creativecommons.org/ns#" xmlns:rdf="http://www.w3.org/1999/02/22-rdf-syntax-ns#">
   <cc:Work>
    <dc:type rdf:resource="http://purl.org/dc/dcmitype/StillImage"/>
    <dc:date>2024-10-23T17:23:44.178876</dc:date>
    <dc:format>image/svg+xml</dc:format>
    <dc:creator>
     <cc:Agent>
      <dc:title>Matplotlib v3.8.0, https://matplotlib.org/</dc:title>
     </cc:Agent>
    </dc:creator>
   </cc:Work>
  </rdf:RDF>
 </metadata>
 <defs>
  <style type="text/css">*{stroke-linejoin: round; stroke-linecap: butt}</style>
 </defs>
 <g id="figure_1">
  <g id="patch_1">
   <path d="M 0 707.825675 
L 857.7625 707.825675 
L 857.7625 0 
L 0 0 
L 0 707.825675 
z
" style="fill: none"/>
  </g>
  <g id="axes_1">
   <g id="patch_2">
    <path d="M 69.3625 561.6 
L 850.5625 561.6 
L 850.5625 7.2 
L 69.3625 7.2 
L 69.3625 561.6 
z
" style="fill: none"/>
   </g>
   <g id="matplotlib.axis_1">
    <g id="xtick_1">
     <g id="text_1">
      <!-- MSA -->
      <g style="fill: #262626" transform="translate(104.788986 610.465141) rotate(-45) scale(0.2 -0.2)">
       <defs>
        <path id="DejaVuSans-4d" d="M 628 4666 
L 1569 4666 
L 2759 1491 
L 3956 4666 
L 4897 4666 
L 4897 0 
L 4281 0 
L 4281 4097 
L 3078 897 
L 2444 897 
L 1241 4097 
L 1241 0 
L 628 0 
L 628 4666 
z
" transform="scale(0.015625)"/>
        <path id="DejaVuSans-53" d="M 3425 4513 
L 3425 3897 
Q 3066 4069 2747 4153 
Q 2428 4238 2131 4238 
Q 1616 4238 1336 4038 
Q 1056 3838 1056 3469 
Q 1056 3159 1242 3001 
Q 1428 2844 1947 2747 
L 2328 2669 
Q 3034 2534 3370 2195 
Q 3706 1856 3706 1288 
Q 3706 609 3251 259 
Q 2797 -91 1919 -91 
Q 1588 -91 1214 -16 
Q 841 59 441 206 
L 441 856 
Q 825 641 1194 531 
Q 1563 422 1919 422 
Q 2459 422 2753 634 
Q 3047 847 3047 1241 
Q 3047 1584 2836 1778 
Q 2625 1972 2144 2069 
L 1759 2144 
Q 1053 2284 737 2584 
Q 422 2884 422 3419 
Q 422 4038 858 4394 
Q 1294 4750 2059 4750 
Q 2388 4750 2728 4690 
Q 3069 4631 3425 4513 
z
" transform="scale(0.015625)"/>
        <path id="DejaVuSans-41" d="M 2188 4044 
L 1331 1722 
L 3047 1722 
L 2188 4044 
z
M 1831 4666 
L 2547 4666 
L 4325 0 
L 3669 0 
L 3244 1197 
L 1141 1197 
L 716 0 
L 50 0 
L 1831 4666 
z
" transform="scale(0.015625)"/>
       </defs>
       <use xlink:href="#DejaVuSans-4d"/>
       <use xlink:href="#DejaVuSans-53" x="86.279297"/>
       <use xlink:href="#DejaVuSans-41" x="151.630859"/>
      </g>
     </g>
    </g>
    <g id="xtick_2">
     <g id="text_2">
      <!-- Template -->
      <g style="fill: #262626" transform="translate(182.97819 643.875936) rotate(-45) scale(0.2 -0.2)">
       <defs>
        <path id="DejaVuSans-54" d="M -19 4666 
L 3928 4666 
L 3928 4134 
L 2272 4134 
L 2272 0 
L 1638 0 
L 1638 4134 
L -19 4134 
L -19 4666 
z
" transform="scale(0.015625)"/>
        <path id="DejaVuSans-65" d="M 3597 1894 
L 3597 1613 
L 953 1613 
Q 991 1019 1311 708 
Q 1631 397 2203 397 
Q 2534 397 2845 478 
Q 3156 559 3463 722 
L 3463 178 
Q 3153 47 2828 -22 
Q 2503 -91 2169 -91 
Q 1331 -91 842 396 
Q 353 884 353 1716 
Q 353 2575 817 3079 
Q 1281 3584 2069 3584 
Q 2775 3584 3186 3129 
Q 3597 2675 3597 1894 
z
M 3022 2063 
Q 3016 2534 2758 2815 
Q 2500 3097 2075 3097 
Q 1594 3097 1305 2825 
Q 1016 2553 972 2059 
L 3022 2063 
z
" transform="scale(0.015625)"/>
        <path id="DejaVuSans-6d" d="M 3328 2828 
Q 3544 3216 3844 3400 
Q 4144 3584 4550 3584 
Q 5097 3584 5394 3201 
Q 5691 2819 5691 2113 
L 5691 0 
L 5113 0 
L 5113 2094 
Q 5113 2597 4934 2840 
Q 4756 3084 4391 3084 
Q 3944 3084 3684 2787 
Q 3425 2491 3425 1978 
L 3425 0 
L 2847 0 
L 2847 2094 
Q 2847 2600 2669 2842 
Q 2491 3084 2119 3084 
Q 1678 3084 1418 2786 
Q 1159 2488 1159 1978 
L 1159 0 
L 581 0 
L 581 3500 
L 1159 3500 
L 1159 2956 
Q 1356 3278 1631 3431 
Q 1906 3584 2284 3584 
Q 2666 3584 2933 3390 
Q 3200 3197 3328 2828 
z
" transform="scale(0.015625)"/>
        <path id="DejaVuSans-70" d="M 1159 525 
L 1159 -1331 
L 581 -1331 
L 581 3500 
L 1159 3500 
L 1159 2969 
Q 1341 3281 1617 3432 
Q 1894 3584 2278 3584 
Q 2916 3584 3314 3078 
Q 3713 2572 3713 1747 
Q 3713 922 3314 415 
Q 2916 -91 2278 -91 
Q 1894 -91 1617 61 
Q 1341 213 1159 525 
z
M 3116 1747 
Q 3116 2381 2855 2742 
Q 2594 3103 2138 3103 
Q 1681 3103 1420 2742 
Q 1159 2381 1159 1747 
Q 1159 1113 1420 752 
Q 1681 391 2138 391 
Q 2594 391 2855 752 
Q 3116 1113 3116 1747 
z
" transform="scale(0.015625)"/>
        <path id="DejaVuSans-6c" d="M 603 4863 
L 1178 4863 
L 1178 0 
L 603 0 
L 603 4863 
z
" transform="scale(0.015625)"/>
        <path id="DejaVuSans-61" d="M 2194 1759 
Q 1497 1759 1228 1600 
Q 959 1441 959 1056 
Q 959 750 1161 570 
Q 1363 391 1709 391 
Q 2188 391 2477 730 
Q 2766 1069 2766 1631 
L 2766 1759 
L 2194 1759 
z
M 3341 1997 
L 3341 0 
L 2766 0 
L 2766 531 
Q 2569 213 2275 61 
Q 1981 -91 1556 -91 
Q 1019 -91 701 211 
Q 384 513 384 1019 
Q 384 1609 779 1909 
Q 1175 2209 1959 2209 
L 2766 2209 
L 2766 2266 
Q 2766 2663 2505 2880 
Q 2244 3097 1772 3097 
Q 1472 3097 1187 3025 
Q 903 2953 641 2809 
L 641 3341 
Q 956 3463 1253 3523 
Q 1550 3584 1831 3584 
Q 2591 3584 2966 3190 
Q 3341 2797 3341 1997 
z
" transform="scale(0.015625)"/>
        <path id="DejaVuSans-74" d="M 1172 4494 
L 1172 3500 
L 2356 3500 
L 2356 3053 
L 1172 3053 
L 1172 1153 
Q 1172 725 1289 603 
Q 1406 481 1766 481 
L 2356 481 
L 2356 0 
L 1766 0 
Q 1100 0 847 248 
Q 594 497 594 1153 
L 594 3053 
L 172 3053 
L 172 3500 
L 594 3500 
L 594 4494 
L 1172 4494 
z
" transform="scale(0.015625)"/>
       </defs>
       <use xlink:href="#DejaVuSans-54"/>
       <use xlink:href="#DejaVuSans-65" x="44.083984"/>
       <use xlink:href="#DejaVuSans-6d" x="105.607422"/>
       <use xlink:href="#DejaVuSans-70" x="203.019531"/>
       <use xlink:href="#DejaVuSans-6c" x="266.496094"/>
       <use xlink:href="#DejaVuSans-61" x="294.279297"/>
       <use xlink:href="#DejaVuSans-74" x="355.558594"/>
       <use xlink:href="#DejaVuSans-65" x="394.767578"/>
      </g>
     </g>
    </g>
    <g id="xtick_3">
     <g id="text_3">
      <!-- Backbone -->
      <g style="fill: #262626" transform="translate(289.478183 648.975944) rotate(-45) scale(0.2 -0.2)">
       <defs>
        <path id="DejaVuSans-42" d="M 1259 2228 
L 1259 519 
L 2272 519 
Q 2781 519 3026 730 
Q 3272 941 3272 1375 
Q 3272 1813 3026 2020 
Q 2781 2228 2272 2228 
L 1259 2228 
z
M 1259 4147 
L 1259 2741 
L 2194 2741 
Q 2656 2741 2882 2914 
Q 3109 3088 3109 3444 
Q 3109 3797 2882 3972 
Q 2656 4147 2194 4147 
L 1259 4147 
z
M 628 4666 
L 2241 4666 
Q 2963 4666 3353 4366 
Q 3744 4066 3744 3513 
Q 3744 3084 3544 2831 
Q 3344 2578 2956 2516 
Q 3422 2416 3680 2098 
Q 3938 1781 3938 1306 
Q 3938 681 3513 340 
Q 3088 0 2303 0 
L 628 0 
L 628 4666 
z
" transform="scale(0.015625)"/>
        <path id="DejaVuSans-63" d="M 3122 3366 
L 3122 2828 
Q 2878 2963 2633 3030 
Q 2388 3097 2138 3097 
Q 1578 3097 1268 2742 
Q 959 2388 959 1747 
Q 959 1106 1268 751 
Q 1578 397 2138 397 
Q 2388 397 2633 464 
Q 2878 531 3122 666 
L 3122 134 
Q 2881 22 2623 -34 
Q 2366 -91 2075 -91 
Q 1284 -91 818 406 
Q 353 903 353 1747 
Q 353 2603 823 3093 
Q 1294 3584 2113 3584 
Q 2378 3584 2631 3529 
Q 2884 3475 3122 3366 
z
" transform="scale(0.015625)"/>
        <path id="DejaVuSans-6b" d="M 581 4863 
L 1159 4863 
L 1159 1991 
L 2875 3500 
L 3609 3500 
L 1753 1863 
L 3688 0 
L 2938 0 
L 1159 1709 
L 1159 0 
L 581 0 
L 581 4863 
z
" transform="scale(0.015625)"/>
        <path id="DejaVuSans-62" d="M 3116 1747 
Q 3116 2381 2855 2742 
Q 2594 3103 2138 3103 
Q 1681 3103 1420 2742 
Q 1159 2381 1159 1747 
Q 1159 1113 1420 752 
Q 1681 391 2138 391 
Q 2594 391 2855 752 
Q 3116 1113 3116 1747 
z
M 1159 2969 
Q 1341 3281 1617 3432 
Q 1894 3584 2278 3584 
Q 2916 3584 3314 3078 
Q 3713 2572 3713 1747 
Q 3713 922 3314 415 
Q 2916 -91 2278 -91 
Q 1894 -91 1617 61 
Q 1341 213 1159 525 
L 1159 0 
L 581 0 
L 581 4863 
L 1159 4863 
L 1159 2969 
z
" transform="scale(0.015625)"/>
        <path id="DejaVuSans-6f" d="M 1959 3097 
Q 1497 3097 1228 2736 
Q 959 2375 959 1747 
Q 959 1119 1226 758 
Q 1494 397 1959 397 
Q 2419 397 2687 759 
Q 2956 1122 2956 1747 
Q 2956 2369 2687 2733 
Q 2419 3097 1959 3097 
z
M 1959 3584 
Q 2709 3584 3137 3096 
Q 3566 2609 3566 1747 
Q 3566 888 3137 398 
Q 2709 -91 1959 -91 
Q 1206 -91 779 398 
Q 353 888 353 1747 
Q 353 2609 779 3096 
Q 1206 3584 1959 3584 
z
" transform="scale(0.015625)"/>
        <path id="DejaVuSans-6e" d="M 3513 2113 
L 3513 0 
L 2938 0 
L 2938 2094 
Q 2938 2591 2744 2837 
Q 2550 3084 2163 3084 
Q 1697 3084 1428 2787 
Q 1159 2491 1159 1978 
L 1159 0 
L 581 0 
L 581 3500 
L 1159 3500 
L 1159 2956 
Q 1366 3272 1645 3428 
Q 1925 3584 2291 3584 
Q 2894 3584 3203 3211 
Q 3513 2838 3513 2113 
z
" transform="scale(0.015625)"/>
       </defs>
       <use xlink:href="#DejaVuSans-42"/>
       <use xlink:href="#DejaVuSans-61" x="68.603516"/>
       <use xlink:href="#DejaVuSans-63" x="129.882812"/>
       <use xlink:href="#DejaVuSans-6b" x="184.863281"/>
       <use xlink:href="#DejaVuSans-62" x="242.773438"/>
       <use xlink:href="#DejaVuSans-6f" x="306.25"/>
       <use xlink:href="#DejaVuSans-6e" x="367.431641"/>
       <use xlink:href="#DejaVuSans-65" x="430.810547"/>
      </g>
     </g>
    </g>
    <g id="xtick_4">
     <g id="text_4">
      <!-- Heuristic C-$\beta$ -->
      <g style="fill: #262626" transform="translate(379.63517 670.706219) rotate(-45) scale(0.2 -0.2)">
       <defs>
        <path id="DejaVuSans-48" d="M 628 4666 
L 1259 4666 
L 1259 2753 
L 3553 2753 
L 3553 4666 
L 4184 4666 
L 4184 0 
L 3553 0 
L 3553 2222 
L 1259 2222 
L 1259 0 
L 628 0 
L 628 4666 
z
" transform="scale(0.015625)"/>
        <path id="DejaVuSans-75" d="M 544 1381 
L 544 3500 
L 1119 3500 
L 1119 1403 
Q 1119 906 1312 657 
Q 1506 409 1894 409 
Q 2359 409 2629 706 
Q 2900 1003 2900 1516 
L 2900 3500 
L 3475 3500 
L 3475 0 
L 2900 0 
L 2900 538 
Q 2691 219 2414 64 
Q 2138 -91 1772 -91 
Q 1169 -91 856 284 
Q 544 659 544 1381 
z
M 1991 3584 
L 1991 3584 
z
" transform="scale(0.015625)"/>
        <path id="DejaVuSans-72" d="M 2631 2963 
Q 2534 3019 2420 3045 
Q 2306 3072 2169 3072 
Q 1681 3072 1420 2755 
Q 1159 2438 1159 1844 
L 1159 0 
L 581 0 
L 581 3500 
L 1159 3500 
L 1159 2956 
Q 1341 3275 1631 3429 
Q 1922 3584 2338 3584 
Q 2397 3584 2469 3576 
Q 2541 3569 2628 3553 
L 2631 2963 
z
" transform="scale(0.015625)"/>
        <path id="DejaVuSans-69" d="M 603 3500 
L 1178 3500 
L 1178 0 
L 603 0 
L 603 3500 
z
M 603 4863 
L 1178 4863 
L 1178 4134 
L 603 4134 
L 603 4863 
z
" transform="scale(0.015625)"/>
        <path id="DejaVuSans-73" d="M 2834 3397 
L 2834 2853 
Q 2591 2978 2328 3040 
Q 2066 3103 1784 3103 
Q 1356 3103 1142 2972 
Q 928 2841 928 2578 
Q 928 2378 1081 2264 
Q 1234 2150 1697 2047 
L 1894 2003 
Q 2506 1872 2764 1633 
Q 3022 1394 3022 966 
Q 3022 478 2636 193 
Q 2250 -91 1575 -91 
Q 1294 -91 989 -36 
Q 684 19 347 128 
L 347 722 
Q 666 556 975 473 
Q 1284 391 1588 391 
Q 1994 391 2212 530 
Q 2431 669 2431 922 
Q 2431 1156 2273 1281 
Q 2116 1406 1581 1522 
L 1381 1569 
Q 847 1681 609 1914 
Q 372 2147 372 2553 
Q 372 3047 722 3315 
Q 1072 3584 1716 3584 
Q 2034 3584 2315 3537 
Q 2597 3491 2834 3397 
z
" transform="scale(0.015625)"/>
        <path id="DejaVuSans-20" transform="scale(0.015625)"/>
        <path id="DejaVuSans-43" d="M 4122 4306 
L 4122 3641 
Q 3803 3938 3442 4084 
Q 3081 4231 2675 4231 
Q 1875 4231 1450 3742 
Q 1025 3253 1025 2328 
Q 1025 1406 1450 917 
Q 1875 428 2675 428 
Q 3081 428 3442 575 
Q 3803 722 4122 1019 
L 4122 359 
Q 3791 134 3420 21 
Q 3050 -91 2638 -91 
Q 1578 -91 968 557 
Q 359 1206 359 2328 
Q 359 3453 968 4101 
Q 1578 4750 2638 4750 
Q 3056 4750 3426 4639 
Q 3797 4528 4122 4306 
z
" transform="scale(0.015625)"/>
        <path id="DejaVuSans-2d" d="M 313 2009 
L 1997 2009 
L 1997 1497 
L 313 1497 
L 313 2009 
z
" transform="scale(0.015625)"/>
        <path id="DejaVuSans-Oblique-3b2" d="M 872 216 
L 572 -1331 
L -6 -1331 
L 928 3478 
Q 1206 4903 2538 4903 
Q 3888 4903 3659 3700 
Q 3503 2844 2894 2531 
Q 3713 2250 3553 1416 
Q 3272 -69 1759 -66 
Q 1097 -63 872 216 
z
M 1019 966 
Q 1259 422 1875 425 
Q 2775 425 2966 1406 
Q 3138 2288 1675 2219 
L 1778 2750 
Q 2909 2731 3106 3750 
Q 3241 4438 2509 4434 
Q 1691 4434 1503 3459 
L 1019 966 
z
" transform="scale(0.015625)"/>
       </defs>
       <use xlink:href="#DejaVuSans-48" transform="translate(0 0.390625)"/>
       <use xlink:href="#DejaVuSans-65" transform="translate(75.195312 0.390625)"/>
       <use xlink:href="#DejaVuSans-75" transform="translate(136.71875 0.390625)"/>
       <use xlink:href="#DejaVuSans-72" transform="translate(200.097656 0.390625)"/>
       <use xlink:href="#DejaVuSans-69" transform="translate(241.210938 0.390625)"/>
       <use xlink:href="#DejaVuSans-73" transform="translate(268.994141 0.390625)"/>
       <use xlink:href="#DejaVuSans-74" transform="translate(321.09375 0.390625)"/>
       <use xlink:href="#DejaVuSans-69" transform="translate(360.302734 0.390625)"/>
       <use xlink:href="#DejaVuSans-63" transform="translate(388.085938 0.390625)"/>
       <use xlink:href="#DejaVuSans-20" transform="translate(443.066406 0.390625)"/>
       <use xlink:href="#DejaVuSans-43" transform="translate(474.853516 0.390625)"/>
       <use xlink:href="#DejaVuSans-2d" transform="translate(544.677734 0.390625)"/>
       <use xlink:href="#DejaVuSans-Oblique-3b2" transform="translate(580.761719 0.390625)"/>
      </g>
     </g>
    </g>
    <g id="xtick_5">
     <g id="text_5">
      <!-- Template C-$\beta$ -->
      <g style="fill: #262626" transform="translate(486.992529 674.94886) rotate(-45) scale(0.2 -0.2)">
       <use xlink:href="#DejaVuSans-54" transform="translate(0 0.390625)"/>
       <use xlink:href="#DejaVuSans-65" transform="translate(61.083984 0.390625)"/>
       <use xlink:href="#DejaVuSans-6d" transform="translate(122.607422 0.390625)"/>
       <use xlink:href="#DejaVuSans-70" transform="translate(220.019531 0.390625)"/>
       <use xlink:href="#DejaVuSans-6c" transform="translate(283.496094 0.390625)"/>
       <use xlink:href="#DejaVuSans-61" transform="translate(311.279297 0.390625)"/>
       <use xlink:href="#DejaVuSans-74" transform="translate(372.558594 0.390625)"/>
       <use xlink:href="#DejaVuSans-65" transform="translate(411.767578 0.390625)"/>
       <use xlink:href="#DejaVuSans-20" transform="translate(473.291016 0.390625)"/>
       <use xlink:href="#DejaVuSans-43" transform="translate(505.078125 0.390625)"/>
       <use xlink:href="#DejaVuSans-2d" transform="translate(574.902344 0.390625)"/>
       <use xlink:href="#DejaVuSans-Oblique-3b2" transform="translate(610.986328 0.390625)"/>
      </g>
     </g>
    </g>
    <g id="xtick_6">
     <g id="text_6">
      <!-- AttnPacker -->
      <g style="fill: #262626" transform="translate(617.905383 655.348744) rotate(-45) scale(0.2 -0.2)">
       <defs>
        <path id="DejaVuSans-50" d="M 1259 4147 
L 1259 2394 
L 2053 2394 
Q 2494 2394 2734 2622 
Q 2975 2850 2975 3272 
Q 2975 3691 2734 3919 
Q 2494 4147 2053 4147 
L 1259 4147 
z
M 628 4666 
L 2053 4666 
Q 2838 4666 3239 4311 
Q 3641 3956 3641 3272 
Q 3641 2581 3239 2228 
Q 2838 1875 2053 1875 
L 1259 1875 
L 1259 0 
L 628 0 
L 628 4666 
z
" transform="scale(0.015625)"/>
       </defs>
       <use xlink:href="#DejaVuSans-41"/>
       <use xlink:href="#DejaVuSans-74" x="66.658203"/>
       <use xlink:href="#DejaVuSans-74" x="105.867188"/>
       <use xlink:href="#DejaVuSans-6e" x="145.076172"/>
       <use xlink:href="#DejaVuSans-50" x="208.455078"/>
       <use xlink:href="#DejaVuSans-61" x="264.257812"/>
       <use xlink:href="#DejaVuSans-63" x="325.537109"/>
       <use xlink:href="#DejaVuSans-6b" x="380.517578"/>
       <use xlink:href="#DejaVuSans-65" x="434.802734"/>
       <use xlink:href="#DejaVuSans-72" x="496.326172"/>
      </g>
     </g>
    </g>
    <g id="xtick_7">
     <g id="text_7">
      <!-- AttnPacker (AF2) -->
      <g style="fill: #262626" transform="translate(687.169574 697.684553) rotate(-45) scale(0.2 -0.2)">
       <defs>
        <path id="DejaVuSans-28" d="M 1984 4856 
Q 1566 4138 1362 3434 
Q 1159 2731 1159 2009 
Q 1159 1288 1364 580 
Q 1569 -128 1984 -844 
L 1484 -844 
Q 1016 -109 783 600 
Q 550 1309 550 2009 
Q 550 2706 781 3412 
Q 1013 4119 1484 4856 
L 1984 4856 
z
" transform="scale(0.015625)"/>
        <path id="DejaVuSans-46" d="M 628 4666 
L 3309 4666 
L 3309 4134 
L 1259 4134 
L 1259 2759 
L 3109 2759 
L 3109 2228 
L 1259 2228 
L 1259 0 
L 628 0 
L 628 4666 
z
" transform="scale(0.015625)"/>
        <path id="DejaVuSans-32" d="M 1228 531 
L 3431 531 
L 3431 0 
L 469 0 
L 469 531 
Q 828 903 1448 1529 
Q 2069 2156 2228 2338 
Q 2531 2678 2651 2914 
Q 2772 3150 2772 3378 
Q 2772 3750 2511 3984 
Q 2250 4219 1831 4219 
Q 1534 4219 1204 4116 
Q 875 4013 500 3803 
L 500 4441 
Q 881 4594 1212 4672 
Q 1544 4750 1819 4750 
Q 2544 4750 2975 4387 
Q 3406 4025 3406 3419 
Q 3406 3131 3298 2873 
Q 3191 2616 2906 2266 
Q 2828 2175 2409 1742 
Q 1991 1309 1228 531 
z
" transform="scale(0.015625)"/>
        <path id="DejaVuSans-29" d="M 513 4856 
L 1013 4856 
Q 1481 4119 1714 3412 
Q 1947 2706 1947 2009 
Q 1947 1309 1714 600 
Q 1481 -109 1013 -844 
L 513 -844 
Q 928 -128 1133 580 
Q 1338 1288 1338 2009 
Q 1338 2731 1133 3434 
Q 928 4138 513 4856 
z
" transform="scale(0.015625)"/>
       </defs>
       <use xlink:href="#DejaVuSans-41"/>
       <use xlink:href="#DejaVuSans-74" x="66.658203"/>
       <use xlink:href="#DejaVuSans-74" x="105.867188"/>
       <use xlink:href="#DejaVuSans-6e" x="145.076172"/>
       <use xlink:href="#DejaVuSans-50" x="208.455078"/>
       <use xlink:href="#DejaVuSans-61" x="264.257812"/>
       <use xlink:href="#DejaVuSans-63" x="325.537109"/>
       <use xlink:href="#DejaVuSans-6b" x="380.517578"/>
       <use xlink:href="#DejaVuSans-65" x="434.802734"/>
       <use xlink:href="#DejaVuSans-72" x="496.326172"/>
       <use xlink:href="#DejaVuSans-20" x="537.439453"/>
       <use xlink:href="#DejaVuSans-28" x="569.226562"/>
       <use xlink:href="#DejaVuSans-41" x="608.240234"/>
       <use xlink:href="#DejaVuSans-46" x="676.648438"/>
       <use xlink:href="#DejaVuSans-32" x="734.167969"/>
       <use xlink:href="#DejaVuSans-29" x="797.791016"/>
      </g>
     </g>
    </g>
   </g>
   <g id="matplotlib.axis_2">
    <g id="ytick_1">
     <g id="line2d_1">
      <path d="M 69.3625 552.097255 
L 850.5625 552.097255 
" clip-path="url(#pf0a980fb64)" style="fill: none; stroke: #cccccc; stroke-width: 0.8; stroke-linecap: round"/>
     </g>
     <g id="text_8">
      <!-- 0.0 -->
      <g style="fill: #262626" transform="translate(30.55625 559.695692) scale(0.2 -0.2)">
       <defs>
        <path id="DejaVuSans-30" d="M 2034 4250 
Q 1547 4250 1301 3770 
Q 1056 3291 1056 2328 
Q 1056 1369 1301 889 
Q 1547 409 2034 409 
Q 2525 409 2770 889 
Q 3016 1369 3016 2328 
Q 3016 3291 2770 3770 
Q 2525 4250 2034 4250 
z
M 2034 4750 
Q 2819 4750 3233 4129 
Q 3647 3509 3647 2328 
Q 3647 1150 3233 529 
Q 2819 -91 2034 -91 
Q 1250 -91 836 529 
Q 422 1150 422 2328 
Q 422 3509 836 4129 
Q 1250 4750 2034 4750 
z
" transform="scale(0.015625)"/>
        <path id="DejaVuSans-2e" d="M 684 794 
L 1344 794 
L 1344 0 
L 684 0 
L 684 794 
z
" transform="scale(0.015625)"/>
       </defs>
       <use xlink:href="#DejaVuSans-30"/>
       <use xlink:href="#DejaVuSans-2e" x="63.623047"/>
       <use xlink:href="#DejaVuSans-30" x="95.410156"/>
      </g>
     </g>
    </g>
    <g id="ytick_2">
     <g id="line2d_2">
      <path d="M 69.3625 449.392607 
L 850.5625 449.392607 
" clip-path="url(#pf0a980fb64)" style="fill: none; stroke: #cccccc; stroke-width: 0.8; stroke-linecap: round"/>
     </g>
     <g id="text_9">
      <!-- 0.2 -->
      <g style="fill: #262626" transform="translate(30.55625 456.991045) scale(0.2 -0.2)">
       <use xlink:href="#DejaVuSans-30"/>
       <use xlink:href="#DejaVuSans-2e" x="63.623047"/>
       <use xlink:href="#DejaVuSans-32" x="95.410156"/>
      </g>
     </g>
    </g>
    <g id="ytick_3">
     <g id="line2d_3">
      <path d="M 69.3625 346.68796 
L 850.5625 346.68796 
" clip-path="url(#pf0a980fb64)" style="fill: none; stroke: #cccccc; stroke-width: 0.8; stroke-linecap: round"/>
     </g>
     <g id="text_10">
      <!-- 0.4 -->
      <g style="fill: #262626" transform="translate(30.55625 354.286397) scale(0.2 -0.2)">
       <defs>
        <path id="DejaVuSans-34" d="M 2419 4116 
L 825 1625 
L 2419 1625 
L 2419 4116 
z
M 2253 4666 
L 3047 4666 
L 3047 1625 
L 3713 1625 
L 3713 1100 
L 3047 1100 
L 3047 0 
L 2419 0 
L 2419 1100 
L 313 1100 
L 313 1709 
L 2253 4666 
z
" transform="scale(0.015625)"/>
       </defs>
       <use xlink:href="#DejaVuSans-30"/>
       <use xlink:href="#DejaVuSans-2e" x="63.623047"/>
       <use xlink:href="#DejaVuSans-34" x="95.410156"/>
      </g>
     </g>
    </g>
    <g id="ytick_4">
     <g id="line2d_4">
      <path d="M 69.3625 243.983312 
L 850.5625 243.983312 
" clip-path="url(#pf0a980fb64)" style="fill: none; stroke: #cccccc; stroke-width: 0.8; stroke-linecap: round"/>
     </g>
     <g id="text_11">
      <!-- 0.6 -->
      <g style="fill: #262626" transform="translate(30.55625 251.58175) scale(0.2 -0.2)">
       <defs>
        <path id="DejaVuSans-36" d="M 2113 2584 
Q 1688 2584 1439 2293 
Q 1191 2003 1191 1497 
Q 1191 994 1439 701 
Q 1688 409 2113 409 
Q 2538 409 2786 701 
Q 3034 994 3034 1497 
Q 3034 2003 2786 2293 
Q 2538 2584 2113 2584 
z
M 3366 4563 
L 3366 3988 
Q 3128 4100 2886 4159 
Q 2644 4219 2406 4219 
Q 1781 4219 1451 3797 
Q 1122 3375 1075 2522 
Q 1259 2794 1537 2939 
Q 1816 3084 2150 3084 
Q 2853 3084 3261 2657 
Q 3669 2231 3669 1497 
Q 3669 778 3244 343 
Q 2819 -91 2113 -91 
Q 1303 -91 875 529 
Q 447 1150 447 2328 
Q 447 3434 972 4092 
Q 1497 4750 2381 4750 
Q 2619 4750 2861 4703 
Q 3103 4656 3366 4563 
z
" transform="scale(0.015625)"/>
       </defs>
       <use xlink:href="#DejaVuSans-30"/>
       <use xlink:href="#DejaVuSans-2e" x="63.623047"/>
       <use xlink:href="#DejaVuSans-36" x="95.410156"/>
      </g>
     </g>
    </g>
    <g id="ytick_5">
     <g id="line2d_5">
      <path d="M 69.3625 141.278665 
L 850.5625 141.278665 
" clip-path="url(#pf0a980fb64)" style="fill: none; stroke: #cccccc; stroke-width: 0.8; stroke-linecap: round"/>
     </g>
     <g id="text_12">
      <!-- 0.8 -->
      <g style="fill: #262626" transform="translate(30.55625 148.877102) scale(0.2 -0.2)">
       <defs>
        <path id="DejaVuSans-38" d="M 2034 2216 
Q 1584 2216 1326 1975 
Q 1069 1734 1069 1313 
Q 1069 891 1326 650 
Q 1584 409 2034 409 
Q 2484 409 2743 651 
Q 3003 894 3003 1313 
Q 3003 1734 2745 1975 
Q 2488 2216 2034 2216 
z
M 1403 2484 
Q 997 2584 770 2862 
Q 544 3141 544 3541 
Q 544 4100 942 4425 
Q 1341 4750 2034 4750 
Q 2731 4750 3128 4425 
Q 3525 4100 3525 3541 
Q 3525 3141 3298 2862 
Q 3072 2584 2669 2484 
Q 3125 2378 3379 2068 
Q 3634 1759 3634 1313 
Q 3634 634 3220 271 
Q 2806 -91 2034 -91 
Q 1263 -91 848 271 
Q 434 634 434 1313 
Q 434 1759 690 2068 
Q 947 2378 1403 2484 
z
M 1172 3481 
Q 1172 3119 1398 2916 
Q 1625 2713 2034 2713 
Q 2441 2713 2670 2916 
Q 2900 3119 2900 3481 
Q 2900 3844 2670 4047 
Q 2441 4250 2034 4250 
Q 1625 4250 1398 4047 
Q 1172 3844 1172 3481 
z
" transform="scale(0.015625)"/>
       </defs>
       <use xlink:href="#DejaVuSans-30"/>
       <use xlink:href="#DejaVuSans-2e" x="63.623047"/>
       <use xlink:href="#DejaVuSans-38" x="95.410156"/>
      </g>
     </g>
    </g>
    <g id="ytick_6">
     <g id="line2d_6">
      <path d="M 69.3625 38.574017 
L 850.5625 38.574017 
" clip-path="url(#pf0a980fb64)" style="fill: none; stroke: #cccccc; stroke-width: 0.8; stroke-linecap: round"/>
     </g>
     <g id="text_13">
      <!-- 1.0 -->
      <g style="fill: #262626" transform="translate(30.55625 46.172455) scale(0.2 -0.2)">
       <defs>
        <path id="DejaVuSans-31" d="M 794 531 
L 1825 531 
L 1825 4091 
L 703 3866 
L 703 4441 
L 1819 4666 
L 2450 4666 
L 2450 531 
L 3481 531 
L 3481 0 
L 794 0 
L 794 531 
z
" transform="scale(0.015625)"/>
       </defs>
       <use xlink:href="#DejaVuSans-31"/>
       <use xlink:href="#DejaVuSans-2e" x="63.623047"/>
       <use xlink:href="#DejaVuSans-30" x="95.410156"/>
      </g>
     </g>
    </g>
    <g id="text_14">
     <!-- MAE 2 (rad) -->
     <g style="fill: #262626" transform="translate(22.396875 343.296875) rotate(-90) scale(0.2 -0.2)">
      <defs>
       <path id="DejaVuSans-45" d="M 628 4666 
L 3578 4666 
L 3578 4134 
L 1259 4134 
L 1259 2753 
L 3481 2753 
L 3481 2222 
L 1259 2222 
L 1259 531 
L 3634 531 
L 3634 0 
L 628 0 
L 628 4666 
z
" transform="scale(0.015625)"/>
       <path id="DejaVuSans-64" d="M 2906 2969 
L 2906 4863 
L 3481 4863 
L 3481 0 
L 2906 0 
L 2906 525 
Q 2725 213 2448 61 
Q 2172 -91 1784 -91 
Q 1150 -91 751 415 
Q 353 922 353 1747 
Q 353 2572 751 3078 
Q 1150 3584 1784 3584 
Q 2172 3584 2448 3432 
Q 2725 3281 2906 2969 
z
M 947 1747 
Q 947 1113 1208 752 
Q 1469 391 1925 391 
Q 2381 391 2643 752 
Q 2906 1113 2906 1747 
Q 2906 2381 2643 2742 
Q 2381 3103 1925 3103 
Q 1469 3103 1208 2742 
Q 947 2381 947 1747 
z
" transform="scale(0.015625)"/>
      </defs>
      <use xlink:href="#DejaVuSans-4d"/>
      <use xlink:href="#DejaVuSans-41" x="86.279297"/>
      <use xlink:href="#DejaVuSans-45" x="154.6875"/>
      <use xlink:href="#DejaVuSans-20" x="217.871094"/>
      <use xlink:href="#DejaVuSans-32" x="249.658203"/>
      <use xlink:href="#DejaVuSans-20" x="313.28125"/>
      <use xlink:href="#DejaVuSans-28" x="345.068359"/>
      <use xlink:href="#DejaVuSans-72" x="384.082031"/>
      <use xlink:href="#DejaVuSans-61" x="425.195312"/>
      <use xlink:href="#DejaVuSans-64" x="486.474609"/>
      <use xlink:href="#DejaVuSans-29" x="549.951172"/>
     </g>
    </g>
   </g>
   <g id="PolyCollection_1">
    <defs>
     <path id="me26b5c29f0" d="M 125.42814 -227.60122 
L 124.89686 -227.60122 
L 124.785838 -232.124699 
L 124.639087 -236.648179 
L 124.449035 -241.171658 
L 124.207525 -245.695137 
L 123.905855 -250.218617 
L 123.534737 -254.742096 
L 123.084147 -259.265575 
L 122.543087 -263.789055 
L 121.899318 -268.312534 
L 121.139184 -272.836013 
L 120.247669 -277.359493 
L 119.208851 -281.882972 
L 118.006871 -286.406451 
L 116.627466 -290.929931 
L 115.059992 -295.45341 
L 113.299698 -299.976889 
L 111.349942 -304.500369 
L 109.223902 -309.023848 
L 106.945384 -313.547327 
L 104.548433 -318.070807 
L 102.075619 -322.594286 
L 99.575165 -327.117765 
L 97.097309 -331.641245 
L 94.690468 -336.164724 
L 92.397894 -340.688203 
L 90.25536 -345.211683 
L 88.290268 -349.735162 
L 86.522198 -354.258641 
L 84.964625 -358.782121 
L 83.627248 -363.3056 
L 82.51822 -367.829079 
L 81.645631 -372.352559 
L 81.017767 -376.876038 
L 80.641997 -381.399518 
L 80.5225 -385.922997 
L 80.657376 -390.446476 
L 81.035879 -394.969956 
L 81.636547 -399.493435 
L 82.426886 -404.016914 
L 83.364926 -408.540394 
L 84.402611 -413.063873 
L 85.490588 -417.587352 
L 86.583635 -422.110832 
L 87.645821 -426.634311 
L 88.654508 -431.15779 
L 89.602526 -435.68127 
L 90.498164 -440.204749 
L 91.36303 -444.728228 
L 92.228179 -449.251708 
L 93.129157 -453.775187 
L 94.100747 -458.298666 
L 95.172139 -462.822146 
L 96.363136 -467.345625 
L 97.681768 -471.869104 
L 99.123472 -476.392584 
L 100.671776 -480.916063 
L 102.300267 -485.439542 
L 103.975504 -489.963022 
L 105.660486 -494.486501 
L 107.318253 -499.00998 
L 108.915221 -503.53346 
L 110.423893 -508.056939 
L 111.824678 -512.580418 
L 113.106664 -517.103898 
L 114.267308 -521.627377 
L 115.311163 -526.150857 
L 116.247878 -530.674336 
L 117.089797 -535.197815 
L 117.849551 -539.721295 
L 118.537982 -544.244774 
L 119.162716 -548.768253 
L 119.727555 -553.291733 
L 120.232732 -557.815212 
L 120.675917 -562.338691 
L 121.053756 -566.862171 
L 121.363638 -571.38565 
L 121.605341 -575.909129 
L 121.782274 -580.432609 
L 121.902083 -584.956088 
L 121.976507 -589.479567 
L 122.020531 -594.003047 
L 122.050956 -598.526526 
L 122.084643 -603.050005 
L 122.136702 -607.573485 
L 122.218923 -612.096964 
L 122.338658 -616.620443 
L 122.498321 -621.143923 
L 122.695526 -625.667402 
L 122.923805 -630.190881 
L 123.173749 -634.714361 
L 123.434372 -639.23784 
L 123.694493 -643.761319 
L 123.943934 -648.284799 
L 124.174408 -652.808278 
L 124.380039 -657.331758 
L 124.557498 -661.855237 
L 124.705823 -666.378716 
L 124.826023 -670.902196 
L 124.92054 -675.425675 
L 125.40446 -675.425675 
L 125.40446 -675.425675 
L 125.498977 -670.902196 
L 125.619177 -666.378716 
L 125.767502 -661.855237 
L 125.944961 -657.331758 
L 126.150592 -652.808278 
L 126.381066 -648.284799 
L 126.630507 -643.761319 
L 126.890628 -639.23784 
L 127.151251 -634.714361 
L 127.401195 -630.190881 
L 127.629474 -625.667402 
L 127.826679 -621.143923 
L 127.986342 -616.620443 
L 128.106077 -612.096964 
L 128.188298 -607.573485 
L 128.240357 -603.050005 
L 128.274044 -598.526526 
L 128.304469 -594.003047 
L 128.348493 -589.479567 
L 128.422917 -584.956088 
L 128.542726 -580.432609 
L 128.719659 -575.909129 
L 128.961362 -571.38565 
L 129.271244 -566.862171 
L 129.649083 -562.338691 
L 130.092268 -557.815212 
L 130.597445 -553.291733 
L 131.162284 -548.768253 
L 131.787018 -544.244774 
L 132.475449 -539.721295 
L 133.235203 -535.197815 
L 134.077122 -530.674336 
L 135.013837 -526.150857 
L 136.057692 -521.627377 
L 137.218336 -517.103898 
L 138.500322 -512.580418 
L 139.901107 -508.056939 
L 141.409779 -503.53346 
L 143.006747 -499.00998 
L 144.664514 -494.486501 
L 146.349496 -489.963022 
L 148.024733 -485.439542 
L 149.653224 -480.916063 
L 151.201528 -476.392584 
L 152.643232 -471.869104 
L 153.961864 -467.345625 
L 155.152861 -462.822146 
L 156.224253 -458.298666 
L 157.195843 -453.775187 
L 158.096821 -449.251708 
L 158.96197 -444.728228 
L 159.826836 -440.204749 
L 160.722474 -435.68127 
L 161.670492 -431.15779 
L 162.679179 -426.634311 
L 163.741365 -422.110832 
L 164.834412 -417.587352 
L 165.922389 -413.063873 
L 166.960074 -408.540394 
L 167.898114 -404.016914 
L 168.688453 -399.493435 
L 169.289121 -394.969956 
L 169.667624 -390.446476 
L 169.8025 -385.922997 
L 169.683003 -381.399518 
L 169.307233 -376.876038 
L 168.679369 -372.352559 
L 167.80678 -367.829079 
L 166.697752 -363.3056 
L 165.360375 -358.782121 
L 163.802802 -354.258641 
L 162.034732 -349.735162 
L 160.06964 -345.211683 
L 157.927106 -340.688203 
L 155.634532 -336.164724 
L 153.227691 -331.641245 
L 150.749835 -327.117765 
L 148.249381 -322.594286 
L 145.776567 -318.070807 
L 143.379616 -313.547327 
L 141.101098 -309.023848 
L 138.975058 -304.500369 
L 137.025302 -299.976889 
L 135.265008 -295.45341 
L 133.697534 -290.929931 
L 132.318129 -286.406451 
L 131.116149 -281.882972 
L 130.077331 -277.359493 
L 129.185816 -272.836013 
L 128.425682 -268.312534 
L 127.781913 -263.789055 
L 127.240853 -259.265575 
L 126.790263 -254.742096 
L 126.419145 -250.218617 
L 126.117475 -245.695137 
L 125.875965 -241.171658 
L 125.685913 -236.648179 
L 125.539162 -232.124699 
L 125.42814 -227.60122 
z
" style="stroke: #3d3d3d; stroke-opacity: 0.5"/>
    </defs>
    <g clip-path="url(#pf0a980fb64)">
     <use xlink:href="#me26b5c29f0" x="0" y="707.825675" style="fill: #3274a1; fill-opacity: 0.5; stroke: #3d3d3d; stroke-opacity: 0.5"/>
    </g>
   </g>
   <g id="PolyCollection_2">
    <defs>
     <path id="m0132b6c294" d="M 237.307344 -171.425675 
L 236.217656 -171.425675 
L 235.949283 -176.023468 
L 235.574467 -180.621262 
L 235.06302 -185.219056 
L 234.381017 -189.816849 
L 233.492129 -194.414643 
L 232.359658 -199.012436 
L 230.949284 -203.61023 
L 229.232454 -208.208024 
L 227.190199 -212.805817 
L 224.817103 -217.403611 
L 222.124989 -222.001404 
L 219.145844 -226.599198 
L 215.933456 -231.196991 
L 212.563275 -235.794785 
L 209.130152 -240.392579 
L 205.743796 -244.990372 
L 202.522111 -249.588166 
L 199.582861 -254.185959 
L 197.034453 -258.783753 
L 194.966832 -263.381546 
L 193.443603 -267.97934 
L 192.496429 -272.577134 
L 192.1225 -277.174927 
L 192.285511 -281.772721 
L 192.920078 -286.370514 
L 193.93906 -290.968308 
L 195.242828 -295.566101 
L 196.729261 -300.163895 
L 198.303169 -304.761689 
L 199.884017 -309.359482 
L 201.411101 -313.957276 
L 202.845783 -318.555069 
L 204.170872 -323.152863 
L 205.387605 -327.750657 
L 206.511011 -332.34845 
L 207.564512 -336.946244 
L 208.574614 -341.544037 
L 209.566353 -346.141831 
L 210.559918 -350.739624 
L 211.568661 -355.337418 
L 212.598461 -359.935212 
L 213.648288 -364.533005 
L 214.711709 -369.130799 
L 215.779011 -373.728592 
L 216.83961 -378.326386 
L 217.884373 -382.924179 
L 218.907493 -387.521973 
L 219.907606 -392.119767 
L 220.887925 -396.71756 
L 221.855352 -401.315354 
L 222.818685 -405.913147 
L 223.786274 -410.510941 
L 224.76358 -415.108735 
L 225.751165 -419.706528 
L 226.743552 -424.304322 
L 227.729213 -428.902115 
L 228.691705 -433.499909 
L 229.611744 -438.097702 
L 230.469786 -442.695496 
L 231.248641 -447.29329 
L 231.935637 -451.891083 
L 232.524002 -456.488877 
L 233.013327 -461.08667 
L 233.409124 -465.684464 
L 233.721705 -470.282257 
L 233.964638 -474.880051 
L 234.153077 -479.477845 
L 234.30221 -484.075638 
L 234.425958 -488.673432 
L 234.536008 -493.271225 
L 234.641185 -497.869019 
L 234.747128 -502.466812 
L 234.856258 -507.064606 
L 234.968013 -511.6624 
L 235.07935 -516.260193 
L 235.18549 -520.857987 
L 235.280864 -525.45578 
L 235.360175 -530.053574 
L 235.419426 -534.651368 
L 235.456787 -539.249161 
L 235.473131 -543.846955 
L 235.472147 -548.444748 
L 235.459984 -553.042542 
L 235.444479 -557.640335 
L 235.434084 -562.238129 
L 235.436693 -566.835923 
L 235.45855 -571.433716 
L 235.503437 -576.03151 
L 235.572271 -580.629303 
L 235.66314 -585.227097 
L 235.771755 -589.82489 
L 235.892198 -594.422684 
L 236.017821 -599.020478 
L 236.142119 -603.618271 
L 236.259462 -608.216065 
L 236.365582 -612.813858 
L 236.457783 -617.411652 
L 236.534915 -622.009446 
L 236.597146 -626.607239 
L 236.927854 -626.607239 
L 236.927854 -626.607239 
L 236.990085 -622.009446 
L 237.067217 -617.411652 
L 237.159418 -612.813858 
L 237.265538 -608.216065 
L 237.382881 -603.618271 
L 237.507179 -599.020478 
L 237.632802 -594.422684 
L 237.753245 -589.82489 
L 237.86186 -585.227097 
L 237.952729 -580.629303 
L 238.021563 -576.03151 
L 238.06645 -571.433716 
L 238.088307 -566.835923 
L 238.090916 -562.238129 
L 238.080521 -557.640335 
L 238.065016 -553.042542 
L 238.052853 -548.444748 
L 238.051869 -543.846955 
L 238.068213 -539.249161 
L 238.105574 -534.651368 
L 238.164825 -530.053574 
L 238.244136 -525.45578 
L 238.33951 -520.857987 
L 238.44565 -516.260193 
L 238.556987 -511.6624 
L 238.668742 -507.064606 
L 238.777872 -502.466812 
L 238.883815 -497.869019 
L 238.988992 -493.271225 
L 239.099042 -488.673432 
L 239.22279 -484.075638 
L 239.371923 -479.477845 
L 239.560362 -474.880051 
L 239.803295 -470.282257 
L 240.115876 -465.684464 
L 240.511673 -461.08667 
L 241.000998 -456.488877 
L 241.589363 -451.891083 
L 242.276359 -447.29329 
L 243.055214 -442.695496 
L 243.913256 -438.097702 
L 244.833295 -433.499909 
L 245.795787 -428.902115 
L 246.781448 -424.304322 
L 247.773835 -419.706528 
L 248.76142 -415.108735 
L 249.738726 -410.510941 
L 250.706315 -405.913147 
L 251.669648 -401.315354 
L 252.637075 -396.71756 
L 253.617394 -392.119767 
L 254.617507 -387.521973 
L 255.640627 -382.924179 
L 256.68539 -378.326386 
L 257.745989 -373.728592 
L 258.813291 -369.130799 
L 259.876712 -364.533005 
L 260.926539 -359.935212 
L 261.956339 -355.337418 
L 262.965082 -350.739624 
L 263.958647 -346.141831 
L 264.950386 -341.544037 
L 265.960488 -336.946244 
L 267.013989 -332.34845 
L 268.137395 -327.750657 
L 269.354128 -323.152863 
L 270.679217 -318.555069 
L 272.113899 -313.957276 
L 273.640983 -309.359482 
L 275.221831 -304.761689 
L 276.795739 -300.163895 
L 278.282172 -295.566101 
L 279.58594 -290.968308 
L 280.604922 -286.370514 
L 281.239489 -281.772721 
L 281.4025 -277.174927 
L 281.028571 -272.577134 
L 280.081397 -267.97934 
L 278.558168 -263.381546 
L 276.490547 -258.783753 
L 273.942139 -254.185959 
L 271.002889 -249.588166 
L 267.781204 -244.990372 
L 264.394848 -240.392579 
L 260.961725 -235.794785 
L 257.591544 -231.196991 
L 254.379156 -226.599198 
L 251.400011 -222.001404 
L 248.707897 -217.403611 
L 246.334801 -212.805817 
L 244.292546 -208.208024 
L 242.575716 -203.61023 
L 241.165342 -199.012436 
L 240.032871 -194.414643 
L 239.143983 -189.816849 
L 238.46198 -185.219056 
L 237.950533 -180.621262 
L 237.575717 -176.023468 
L 237.307344 -171.425675 
z
" style="stroke: #3d3d3d; stroke-opacity: 0.5"/>
    </defs>
    <g clip-path="url(#pf0a980fb64)">
     <use xlink:href="#m0132b6c294" x="0" y="707.825675" style="fill: #d684bd; fill-opacity: 0.5; stroke: #3d3d3d; stroke-opacity: 0.5"/>
    </g>
   </g>
   <g id="PolyCollection_3">
    <defs>
     <path id="m6d1feb8490" d="M 348.547547 -305.501441 
L 348.177453 -305.501441 
L 348.112301 -308.952628 
L 348.031127 -312.403815 
L 347.932278 -315.855001 
L 347.814463 -319.306188 
L 347.67676 -322.757375 
L 347.518498 -326.208561 
L 347.33902 -329.659748 
L 347.137324 -333.110935 
L 346.911629 -336.562122 
L 346.658957 -340.013308 
L 346.374821 -343.464495 
L 346.053137 -346.915682 
L 345.686449 -350.366868 
L 345.266508 -353.818055 
L 344.785172 -357.269242 
L 344.235508 -360.720428 
L 343.612909 -364.171615 
L 342.915968 -367.622802 
L 342.146858 -371.073988 
L 341.31102 -374.525175 
L 340.416078 -377.976362 
L 339.470034 -381.427549 
L 338.478983 -384.878735 
L 337.444749 -388.329922 
L 336.362917 -391.781109 
L 335.221741 -395.232295 
L 334.002352 -398.683482 
L 332.680444 -402.134669 
L 331.229405 -405.585855 
L 329.624561 -409.037042 
L 327.847967 -412.488229 
L 325.893018 -415.939416 
L 323.768121 -419.390602 
L 321.498778 -422.841789 
L 319.12766 -426.292976 
L 316.712546 -429.744162 
L 314.32235 -433.195349 
L 312.031747 -436.646536 
L 309.915109 -440.097722 
L 308.040534 -443.548909 
L 306.464717 -447.000096 
L 305.229201 -450.451283 
L 304.358361 -453.902469 
L 303.859161 -457.353656 
L 303.7225 -460.804843 
L 303.925799 -464.256029 
L 304.436338 -467.707216 
L 305.214879 -471.158403 
L 306.219111 -474.609589 
L 307.406603 -478.060776 
L 308.737035 -481.511963 
L 310.173641 -484.96315 
L 311.683884 -488.414336 
L 313.239501 -491.865523 
L 314.816096 -495.31671 
L 316.392479 -498.767896 
L 317.949954 -502.219083 
L 319.471704 -505.67027 
L 320.942389 -509.121456 
L 322.347996 -512.572643 
L 323.675945 -516.02383 
L 324.9154 -519.475016 
L 326.057705 -522.926203 
L 327.096864 -526.37739 
L 328.029981 -529.828577 
L 328.85759 -533.279763 
L 329.583816 -536.73095 
L 330.21636 -540.182137 
L 330.766285 -543.633323 
L 331.247621 -547.08451 
L 331.676813 -550.535697 
L 332.072039 -553.986883 
L 332.452423 -557.43807 
L 332.837178 -560.889257 
L 333.244701 -564.340444 
L 333.691656 -567.79163 
L 334.192069 -571.242817 
L 334.756509 -574.694004 
L 335.39139 -578.14519 
L 336.09848 -581.596377 
L 336.874684 -585.047564 
L 337.71214 -588.49875 
L 338.598678 -591.949937 
L 339.518605 -595.401124 
L 340.453779 -598.852311 
L 341.384864 -602.303497 
L 342.292658 -605.754684 
L 343.159363 -609.205871 
L 343.969659 -612.657057 
L 344.711515 -616.108244 
L 345.376656 -619.559431 
L 345.960696 -623.010617 
L 346.462937 -626.461804 
L 346.885921 -629.912991 
L 347.234796 -633.364177 
L 347.51659 -636.815364 
L 347.739476 -640.266551 
L 347.912095 -643.717738 
L 348.042987 -647.168924 
L 348.682013 -647.168924 
L 348.682013 -647.168924 
L 348.812905 -643.717738 
L 348.985524 -640.266551 
L 349.20841 -636.815364 
L 349.490204 -633.364177 
L 349.839079 -629.912991 
L 350.262063 -626.461804 
L 350.764304 -623.010617 
L 351.348344 -619.559431 
L 352.013485 -616.108244 
L 352.755341 -612.657057 
L 353.565637 -609.205871 
L 354.432342 -605.754684 
L 355.340136 -602.303497 
L 356.271221 -598.852311 
L 357.206395 -595.401124 
L 358.126322 -591.949937 
L 359.01286 -588.49875 
L 359.850316 -585.047564 
L 360.62652 -581.596377 
L 361.33361 -578.14519 
L 361.968491 -574.694004 
L 362.532931 -571.242817 
L 363.033344 -567.79163 
L 363.480299 -564.340444 
L 363.887822 -560.889257 
L 364.272577 -557.43807 
L 364.652961 -553.986883 
L 365.048187 -550.535697 
L 365.477379 -547.08451 
L 365.958715 -543.633323 
L 366.50864 -540.182137 
L 367.141184 -536.73095 
L 367.86741 -533.279763 
L 368.695019 -529.828577 
L 369.628136 -526.37739 
L 370.667295 -522.926203 
L 371.8096 -519.475016 
L 373.049055 -516.02383 
L 374.377004 -512.572643 
L 375.782611 -509.121456 
L 377.253296 -505.67027 
L 378.775046 -502.219083 
L 380.332521 -498.767896 
L 381.908904 -495.31671 
L 383.485499 -491.865523 
L 385.041116 -488.414336 
L 386.551359 -484.96315 
L 387.987965 -481.511963 
L 389.318397 -478.060776 
L 390.505889 -474.609589 
L 391.510121 -471.158403 
L 392.288662 -467.707216 
L 392.799201 -464.256029 
L 393.0025 -460.804843 
L 392.865839 -457.353656 
L 392.366639 -453.902469 
L 391.495799 -450.451283 
L 390.260283 -447.000096 
L 388.684466 -443.548909 
L 386.809891 -440.097722 
L 384.693253 -436.646536 
L 382.40265 -433.195349 
L 380.012454 -429.744162 
L 377.59734 -426.292976 
L 375.226222 -422.841789 
L 372.956879 -419.390602 
L 370.831982 -415.939416 
L 368.877033 -412.488229 
L 367.100439 -409.037042 
L 365.495595 -405.585855 
L 364.044556 -402.134669 
L 362.722648 -398.683482 
L 361.503259 -395.232295 
L 360.362083 -391.781109 
L 359.280251 -388.329922 
L 358.246017 -384.878735 
L 357.254966 -381.427549 
L 356.308922 -377.976362 
L 355.41398 -374.525175 
L 354.578142 -371.073988 
L 353.809032 -367.622802 
L 353.112091 -364.171615 
L 352.489492 -360.720428 
L 351.939828 -357.269242 
L 351.458492 -353.818055 
L 351.038551 -350.366868 
L 350.671863 -346.915682 
L 350.350179 -343.464495 
L 350.066043 -340.013308 
L 349.813371 -336.562122 
L 349.587676 -333.110935 
L 349.38598 -329.659748 
L 349.206502 -326.208561 
L 349.04824 -322.757375 
L 348.910537 -319.306188 
L 348.792722 -315.855001 
L 348.693873 -312.403815 
L 348.612699 -308.952628 
L 348.547547 -305.501441 
z
" style="stroke: #3d3d3d; stroke-opacity: 0.5"/>
    </defs>
    <g clip-path="url(#pf0a980fb64)">
     <use xlink:href="#m6d1feb8490" x="0" y="707.825675" style="fill: #c03d3e; fill-opacity: 0.5; stroke: #3d3d3d; stroke-opacity: 0.5"/>
    </g>
   </g>
   <g id="PolyCollection_4">
    <defs>
     <path id="me815a55c71" d="M 460.27827 -239.638373 
L 459.64673 -239.638373 
L 459.522877 -243.783327 
L 459.362128 -247.92828 
L 459.157751 -252.073233 
L 458.902984 -256.218187 
L 458.591277 -260.36314 
L 458.216475 -264.508094 
L 457.772911 -268.653047 
L 457.255377 -272.798001 
L 456.65895 -276.942954 
L 455.978727 -281.087908 
L 455.20948 -285.232861 
L 454.345334 -289.377815 
L 453.379527 -293.522768 
L 452.304344 -297.667721 
L 451.111271 -301.812675 
L 449.791427 -305.957628 
L 448.336253 -310.102582 
L 446.738465 -314.247535 
L 444.993212 -318.392489 
L 443.099378 -322.537442 
L 441.060944 -326.682396 
L 438.888291 -330.827349 
L 436.599322 -334.972303 
L 434.22023 -339.117256 
L 431.785759 -343.262209 
L 429.338813 -347.407163 
L 426.929312 -351.552116 
L 424.612268 -355.69707 
L 422.445182 -359.842023 
L 420.484913 -363.986977 
L 418.784308 -368.13193 
L 417.388893 -372.276884 
L 416.333944 -376.421837 
L 415.642212 -380.566791 
L 415.3225 -384.711744 
L 415.369182 -388.856697 
L 415.762665 -393.001651 
L 416.470716 -397.146604 
L 417.450491 -401.291558 
L 418.651118 -405.436511 
L 420.016635 -409.581465 
L 421.48912 -413.726418 
L 423.011861 -417.871372 
L 424.532419 -422.016325 
L 426.005441 -426.161279 
L 427.395091 -430.306232 
L 428.676915 -434.451185 
L 429.838992 -438.596139 
L 430.882192 -442.741092 
L 431.819425 -446.886046 
L 432.673819 -451.030999 
L 433.475894 -455.175953 
L 434.259934 -459.320906 
L 435.059889 -463.46586 
L 435.905294 -467.610813 
L 436.817688 -471.755767 
L 437.808059 -475.90072 
L 438.875669 -480.045673 
L 440.008446 -484.190627 
L 441.184889 -488.33558 
L 442.377172 -492.480534 
L 443.554971 -496.625487 
L 444.689396 -500.770441 
L 445.756447 -504.915394 
L 446.739493 -509.060348 
L 447.63048 -513.205301 
L 448.429796 -517.350255 
L 449.144956 -521.495208 
L 449.788433 -525.640161 
L 450.375082 -529.785115 
L 450.919601 -533.930068 
L 451.434443 -538.075022 
L 451.928434 -542.219975 
L 452.40624 -546.364929 
L 452.868653 -550.509882 
L 453.313525 -554.654836 
L 453.737134 -558.799789 
L 454.13566 -562.944743 
L 454.506522 -567.089696 
L 454.849317 -571.234649 
L 455.166249 -575.379603 
L 455.461979 -579.524556 
L 455.74298 -583.66951 
L 456.016534 -587.814463 
L 456.289571 -591.959417 
L 456.567583 -596.10437 
L 456.853791 -600.249324 
L 457.148703 -604.394277 
L 457.450113 -608.539231 
L 457.753519 -612.684184 
L 458.052834 -616.829137 
L 458.341282 -620.974091 
L 458.612288 -625.119044 
L 458.860243 -629.263998 
L 459.081047 -633.408951 
L 459.27238 -637.553905 
L 459.433713 -641.698858 
L 459.566107 -645.843812 
L 459.671864 -649.988765 
L 460.253136 -649.988765 
L 460.253136 -649.988765 
L 460.358893 -645.843812 
L 460.491287 -641.698858 
L 460.65262 -637.553905 
L 460.843953 -633.408951 
L 461.064757 -629.263998 
L 461.312712 -625.119044 
L 461.583718 -620.974091 
L 461.872166 -616.829137 
L 462.171481 -612.684184 
L 462.474887 -608.539231 
L 462.776297 -604.394277 
L 463.071209 -600.249324 
L 463.357417 -596.10437 
L 463.635429 -591.959417 
L 463.908466 -587.814463 
L 464.18202 -583.66951 
L 464.463021 -579.524556 
L 464.758751 -575.379603 
L 465.075683 -571.234649 
L 465.418478 -567.089696 
L 465.78934 -562.944743 
L 466.187866 -558.799789 
L 466.611475 -554.654836 
L 467.056347 -550.509882 
L 467.51876 -546.364929 
L 467.996566 -542.219975 
L 468.490557 -538.075022 
L 469.005399 -533.930068 
L 469.549918 -529.785115 
L 470.136567 -525.640161 
L 470.780044 -521.495208 
L 471.495204 -517.350255 
L 472.29452 -513.205301 
L 473.185507 -509.060348 
L 474.168553 -504.915394 
L 475.235604 -500.770441 
L 476.370029 -496.625487 
L 477.547828 -492.480534 
L 478.740111 -488.33558 
L 479.916554 -484.190627 
L 481.049331 -480.045673 
L 482.116941 -475.90072 
L 483.107312 -471.755767 
L 484.019706 -467.610813 
L 484.865111 -463.46586 
L 485.665066 -459.320906 
L 486.449106 -455.175953 
L 487.251181 -451.030999 
L 488.105575 -446.886046 
L 489.042808 -442.741092 
L 490.086008 -438.596139 
L 491.248085 -434.451185 
L 492.529909 -430.306232 
L 493.919559 -426.161279 
L 495.392581 -422.016325 
L 496.913139 -417.871372 
L 498.43588 -413.726418 
L 499.908365 -409.581465 
L 501.273882 -405.436511 
L 502.474509 -401.291558 
L 503.454284 -397.146604 
L 504.162335 -393.001651 
L 504.555818 -388.856697 
L 504.6025 -384.711744 
L 504.282788 -380.566791 
L 503.591056 -376.421837 
L 502.536107 -372.276884 
L 501.140692 -368.13193 
L 499.440087 -363.986977 
L 497.479818 -359.842023 
L 495.312732 -355.69707 
L 492.995688 -351.552116 
L 490.586187 -347.407163 
L 488.139241 -343.262209 
L 485.70477 -339.117256 
L 483.325678 -334.972303 
L 481.036709 -330.827349 
L 478.864056 -326.682396 
L 476.825622 -322.537442 
L 474.931788 -318.392489 
L 473.186535 -314.247535 
L 471.588747 -310.102582 
L 470.133573 -305.957628 
L 468.813729 -301.812675 
L 467.620656 -297.667721 
L 466.545473 -293.522768 
L 465.579666 -289.377815 
L 464.71552 -285.232861 
L 463.946273 -281.087908 
L 463.26605 -276.942954 
L 462.669623 -272.798001 
L 462.152089 -268.653047 
L 461.708525 -264.508094 
L 461.333723 -260.36314 
L 461.022016 -256.218187 
L 460.767249 -252.073233 
L 460.562872 -247.92828 
L 460.402123 -243.783327 
L 460.27827 -239.638373 
z
" style="stroke: #3d3d3d; stroke-opacity: 0.5"/>
    </defs>
    <g clip-path="url(#pf0a980fb64)">
     <use xlink:href="#me815a55c71" x="0" y="707.825675" style="fill: #9372b2; fill-opacity: 0.5; stroke: #3d3d3d; stroke-opacity: 0.5"/>
    </g>
   </g>
   <g id="PolyCollection_5">
    <defs>
     <path id="ma9bab4fcf4" d="M 572.01128 -223.522098 
L 571.11372 -223.522098 
L 570.938581 -227.826511 
L 570.711494 -232.130923 
L 570.422848 -236.435336 
L 570.062775 -240.739748 
L 569.621374 -245.044161 
L 569.08886 -249.348574 
L 568.455605 -253.652986 
L 567.712073 -257.957399 
L 566.848681 -262.261811 
L 565.855655 -266.566224 
L 564.722996 -270.870637 
L 563.440653 -275.175049 
L 561.999006 -279.479462 
L 560.389723 -283.783874 
L 558.606979 -288.088287 
L 556.648977 -292.392699 
L 554.51963 -296.697112 
L 552.230214 -301.001525 
L 549.800783 -305.305937 
L 547.261121 -309.61035 
L 544.651023 -313.914762 
L 542.019759 -318.219175 
L 539.424596 -322.523588 
L 536.928376 -326.828 
L 534.596213 -331.132413 
L 532.491492 -335.436825 
L 530.67148 -339.741238 
L 529.182934 -344.045651 
L 528.0582 -348.350063 
L 527.312272 -352.654476 
L 526.941249 -356.958888 
L 526.9225 -361.263301 
L 527.216612 -365.567714 
L 527.771026 -369.872126 
L 528.524976 -374.176539 
L 529.415186 -378.480951 
L 530.381642 -382.785364 
L 531.372762 -387.089777 
L 532.349322 -391.394189 
L 533.286717 -395.698602 
L 534.175347 -400.003014 
L 535.019193 -404.307427 
L 535.83291 -408.611839 
L 536.637946 -412.916252 
L 537.458327 -417.220665 
L 538.316733 -421.525077 
L 539.231402 -425.82949 
L 540.214204 -430.133902 
L 541.269996 -434.438315 
L 542.397138 -438.742728 
L 543.588856 -443.04714 
L 544.835052 -447.351553 
L 546.124111 -451.655965 
L 547.444382 -455.960378 
L 548.785102 -460.264791 
L 550.136718 -464.569203 
L 551.490695 -468.873616 
L 552.839009 -473.178028 
L 554.173542 -477.482441 
L 555.485597 -481.786854 
L 556.765673 -486.091266 
L 558.003571 -490.395679 
L 559.188802 -494.700091 
L 560.31121 -499.004504 
L 561.361695 -503.308917 
L 562.332879 -507.613329 
L 563.219616 -511.917742 
L 564.019241 -516.222154 
L 564.731543 -520.526567 
L 565.358469 -524.830979 
L 565.903632 -529.135392 
L 566.371727 -533.439805 
L 566.767983 -537.744217 
L 567.097764 -542.04863 
L 567.366401 -546.353042 
L 567.57929 -550.657455 
L 567.7422 -554.961868 
L 567.861719 -559.26628 
L 567.945668 -563.570693 
L 568.003347 -567.875105 
L 568.045489 -572.179518 
L 568.083833 -576.483931 
L 568.13036 -580.788343 
L 568.196264 -585.092756 
L 568.290841 -589.397168 
L 568.420482 -593.701581 
L 568.587965 -598.005994 
L 568.792171 -602.310406 
L 569.028298 -606.614819 
L 569.288518 -610.919231 
L 569.562977 -615.223644 
L 569.840975 -619.528056 
L 570.112127 -623.832469 
L 570.367364 -628.136882 
L 570.599633 -632.441294 
L 570.804265 -636.745707 
L 570.979009 -641.050119 
L 571.123783 -645.354532 
L 571.240246 -649.658945 
L 571.884754 -649.658945 
L 571.884754 -649.658945 
L 572.001217 -645.354532 
L 572.145991 -641.050119 
L 572.320735 -636.745707 
L 572.525367 -632.441294 
L 572.757636 -628.136882 
L 573.012873 -623.832469 
L 573.284025 -619.528056 
L 573.562023 -615.223644 
L 573.836482 -610.919231 
L 574.096702 -606.614819 
L 574.332829 -602.310406 
L 574.537035 -598.005994 
L 574.704518 -593.701581 
L 574.834159 -589.397168 
L 574.928736 -585.092756 
L 574.99464 -580.788343 
L 575.041167 -576.483931 
L 575.079511 -572.179518 
L 575.121653 -567.875105 
L 575.179332 -563.570693 
L 575.263281 -559.26628 
L 575.3828 -554.961868 
L 575.54571 -550.657455 
L 575.758599 -546.353042 
L 576.027236 -542.04863 
L 576.357017 -537.744217 
L 576.753273 -533.439805 
L 577.221368 -529.135392 
L 577.766531 -524.830979 
L 578.393457 -520.526567 
L 579.105759 -516.222154 
L 579.905384 -511.917742 
L 580.792121 -507.613329 
L 581.763305 -503.308917 
L 582.81379 -499.004504 
L 583.936198 -494.700091 
L 585.121429 -490.395679 
L 586.359327 -486.091266 
L 587.639403 -481.786854 
L 588.951458 -477.482441 
L 590.285991 -473.178028 
L 591.634305 -468.873616 
L 592.988282 -464.569203 
L 594.339898 -460.264791 
L 595.680618 -455.960378 
L 597.000889 -451.655965 
L 598.289948 -447.351553 
L 599.536144 -443.04714 
L 600.727862 -438.742728 
L 601.855004 -434.438315 
L 602.910796 -430.133902 
L 603.893598 -425.82949 
L 604.808267 -421.525077 
L 605.666673 -417.220665 
L 606.487054 -412.916252 
L 607.29209 -408.611839 
L 608.105807 -404.307427 
L 608.949653 -400.003014 
L 609.838283 -395.698602 
L 610.775678 -391.394189 
L 611.752238 -387.089777 
L 612.743358 -382.785364 
L 613.709814 -378.480951 
L 614.600024 -374.176539 
L 615.353974 -369.872126 
L 615.908388 -365.567714 
L 616.2025 -361.263301 
L 616.183751 -356.958888 
L 615.812728 -352.654476 
L 615.0668 -348.350063 
L 613.942066 -344.045651 
L 612.45352 -339.741238 
L 610.633508 -335.436825 
L 608.528787 -331.132413 
L 606.196624 -326.828 
L 603.700404 -322.523588 
L 601.105241 -318.219175 
L 598.473977 -313.914762 
L 595.863879 -309.61035 
L 593.324217 -305.305937 
L 590.894786 -301.001525 
L 588.60537 -296.697112 
L 586.476023 -292.392699 
L 584.518021 -288.088287 
L 582.735277 -283.783874 
L 581.125994 -279.479462 
L 579.684347 -275.175049 
L 578.402004 -270.870637 
L 577.269345 -266.566224 
L 576.276319 -262.261811 
L 575.412927 -257.957399 
L 574.669395 -253.652986 
L 574.03614 -249.348574 
L 573.503626 -245.044161 
L 573.062225 -240.739748 
L 572.702152 -236.435336 
L 572.413506 -232.130923 
L 572.186419 -227.826511 
L 572.01128 -223.522098 
z
" style="stroke: #3d3d3d; stroke-opacity: 0.5"/>
    </defs>
    <g clip-path="url(#pf0a980fb64)">
     <use xlink:href="#ma9bab4fcf4" x="0" y="707.825675" style="fill: #845b53; fill-opacity: 0.5; stroke: #3d3d3d; stroke-opacity: 0.5"/>
    </g>
   </g>
   <g id="PolyCollection_6">
    <defs>
     <path id="m5381372315" d="M 683.54278 -194.934504 
L 682.78222 -194.934504 
L 682.61299 -199.599253 
L 682.387503 -204.264003 
L 682.094699 -208.928752 
L 681.723574 -213.593501 
L 681.263512 -218.258251 
L 680.704365 -222.923 
L 680.036189 -227.587749 
L 679.248641 -232.252499 
L 678.330164 -236.917248 
L 677.267219 -241.581997 
L 676.043933 -246.246747 
L 674.642495 -250.911496 
L 673.044591 -255.576245 
L 671.233912 -260.240995 
L 669.199537 -264.905744 
L 666.93973 -269.570494 
L 664.465477 -274.235243 
L 661.80311 -278.899992 
L 658.995407 -283.564742 
L 656.100877 -288.229491 
L 653.191198 -292.89424 
L 650.347106 -297.55899 
L 647.653223 -302.223739 
L 645.192436 -306.888488 
L 643.040384 -311.553238 
L 641.260543 -316.217987 
L 639.900289 -320.882736 
L 638.98819 -325.547486 
L 638.532723 -330.212235 
L 638.5225 -334.876984 
L 638.928003 -339.541734 
L 639.704696 -344.206483 
L 640.797195 -348.871232 
L 642.144054 -353.535982 
L 643.682613 -358.200731 
L 645.353347 -362.86548 
L 647.10327 -367.53023 
L 648.888102 -372.194979 
L 650.673156 -376.859728 
L 652.433086 -381.524478 
L 654.150776 -386.189227 
L 655.815754 -390.853976 
L 657.422449 -395.518726 
L 658.968613 -400.183475 
L 660.454071 -404.848224 
L 661.879919 -409.512974 
L 663.248157 -414.177723 
L 664.561674 -418.842473 
L 665.824415 -423.507222 
L 667.041541 -428.171971 
L 668.219368 -432.836721 
L 669.364931 -437.50147 
L 670.485128 -442.166219 
L 671.585511 -446.830969 
L 672.668947 -451.495718 
L 673.734432 -456.160467 
L 674.77638 -460.825217 
L 675.784626 -465.489966 
L 676.745248 -470.154715 
L 677.642144 -474.819465 
L 678.459119 -479.484214 
L 679.18214 -484.148963 
L 679.801362 -488.813713 
L 680.312571 -493.478462 
L 680.717798 -498.143211 
L 681.025026 -502.807961 
L 681.247028 -507.47271 
L 681.399581 -512.137459 
L 681.499334 -516.802209 
L 681.56171 -521.466958 
L 681.599169 -526.131707 
L 681.620105 -530.796457 
L 681.628532 -535.461206 
L 681.624582 -540.125955 
L 681.60568 -544.790705 
L 681.568171 -549.455454 
L 681.50907 -554.120204 
L 681.42762 -558.784953 
L 681.326366 -563.449702 
L 681.211562 -568.114452 
L 681.092829 -572.779201 
L 680.982157 -577.44395 
L 680.892418 -582.1087 
L 680.835663 -586.773449 
L 680.8215 -591.438198 
L 680.85582 -596.102948 
L 680.940063 -600.767697 
L 681.071124 -605.432446 
L 681.241878 -610.097196 
L 681.442203 -614.761945 
L 681.660294 -619.426694 
L 681.884073 -624.091444 
L 682.102445 -628.756193 
L 682.306268 -633.420942 
L 682.488932 -638.085692 
L 682.646532 -642.750441 
L 682.777692 -647.41519 
L 682.883131 -652.07994 
L 682.965093 -656.744689 
L 683.359907 -656.744689 
L 683.359907 -656.744689 
L 683.441869 -652.07994 
L 683.547308 -647.41519 
L 683.678468 -642.750441 
L 683.836068 -638.085692 
L 684.018732 -633.420942 
L 684.222555 -628.756193 
L 684.440927 -624.091444 
L 684.664706 -619.426694 
L 684.882797 -614.761945 
L 685.083122 -610.097196 
L 685.253876 -605.432446 
L 685.384937 -600.767697 
L 685.46918 -596.102948 
L 685.5035 -591.438198 
L 685.489337 -586.773449 
L 685.432582 -582.1087 
L 685.342843 -577.44395 
L 685.232171 -572.779201 
L 685.113438 -568.114452 
L 684.998634 -563.449702 
L 684.89738 -558.784953 
L 684.81593 -554.120204 
L 684.756829 -549.455454 
L 684.71932 -544.790705 
L 684.700418 -540.125955 
L 684.696468 -535.461206 
L 684.704895 -530.796457 
L 684.725831 -526.131707 
L 684.76329 -521.466958 
L 684.825666 -516.802209 
L 684.925419 -512.137459 
L 685.077972 -507.47271 
L 685.299974 -502.807961 
L 685.607202 -498.143211 
L 686.012429 -493.478462 
L 686.523638 -488.813713 
L 687.14286 -484.148963 
L 687.865881 -479.484214 
L 688.682856 -474.819465 
L 689.579752 -470.154715 
L 690.540374 -465.489966 
L 691.54862 -460.825217 
L 692.590568 -456.160467 
L 693.656053 -451.495718 
L 694.739489 -446.830969 
L 695.839872 -442.166219 
L 696.960069 -437.50147 
L 698.105632 -432.836721 
L 699.283459 -428.171971 
L 700.500585 -423.507222 
L 701.763326 -418.842473 
L 703.076843 -414.177723 
L 704.445081 -409.512974 
L 705.870929 -404.848224 
L 707.356387 -400.183475 
L 708.902551 -395.518726 
L 710.509246 -390.853976 
L 712.174224 -386.189227 
L 713.891914 -381.524478 
L 715.651844 -376.859728 
L 717.436898 -372.194979 
L 719.22173 -367.53023 
L 720.971653 -362.86548 
L 722.642387 -358.200731 
L 724.180946 -353.535982 
L 725.527805 -348.871232 
L 726.620304 -344.206483 
L 727.396997 -339.541734 
L 727.8025 -334.876984 
L 727.792277 -330.212235 
L 727.33681 -325.547486 
L 726.424711 -320.882736 
L 725.064457 -316.217987 
L 723.284616 -311.553238 
L 721.132564 -306.888488 
L 718.671777 -302.223739 
L 715.977894 -297.55899 
L 713.133802 -292.89424 
L 710.224123 -288.229491 
L 707.329593 -283.564742 
L 704.52189 -278.899992 
L 701.859523 -274.235243 
L 699.38527 -269.570494 
L 697.125463 -264.905744 
L 695.091088 -260.240995 
L 693.280409 -255.576245 
L 691.682505 -250.911496 
L 690.281067 -246.246747 
L 689.057781 -241.581997 
L 687.994836 -236.917248 
L 687.076359 -232.252499 
L 686.288811 -227.587749 
L 685.620635 -222.923 
L 685.061488 -218.258251 
L 684.601426 -213.593501 
L 684.230301 -208.928752 
L 683.937497 -204.264003 
L 683.71201 -199.599253 
L 683.54278 -194.934504 
z
" style="stroke: #3d3d3d; stroke-opacity: 0.5"/>
    </defs>
    <g clip-path="url(#pf0a980fb64)">
     <use xlink:href="#m5381372315" x="0" y="707.825675" style="fill: #e1812c; fill-opacity: 0.5; stroke: #3d3d3d; stroke-opacity: 0.5"/>
    </g>
   </g>
   <g id="PolyCollection_7">
    <defs>
     <path id="mb6865e2a59" d="M 795.268232 -196.531117 
L 794.256768 -196.531117 
L 794.053415 -201.217868 
L 793.790598 -205.904619 
L 793.45882 -210.59137 
L 793.048863 -215.278121 
L 792.551722 -219.964873 
L 791.958158 -224.651624 
L 791.257865 -229.338375 
L 790.438376 -234.025126 
L 789.483966 -238.711877 
L 788.374982 -243.398628 
L 787.088015 -248.08538 
L 785.597339 -252.772131 
L 783.877789 -257.458882 
L 781.908973 -262.145633 
L 779.680356 -266.832384 
L 777.196412 -271.519135 
L 774.480861 -276.205887 
L 771.57899 -280.892638 
L 768.557339 -285.579389 
L 765.500404 -290.26614 
L 762.504613 -294.952891 
L 759.670332 -299.639643 
L 757.093064 -304.326394 
L 754.855167 -309.013145 
L 753.019312 -313.699896 
L 751.624559 -318.386647 
L 750.685409 -323.073398 
L 750.19367 -327.76015 
L 750.1225 -332.446901 
L 750.431687 -337.133652 
L 751.073163 -341.820403 
L 751.995878 -346.507154 
L 753.149412 -351.193906 
L 754.486115 -355.880657 
L 755.961874 -360.567408 
L 757.5359 -365.254159 
L 759.170067 -369.94091 
L 760.828332 -374.627661 
L 762.476637 -379.314413 
L 764.083497 -384.001164 
L 765.621216 -388.687915 
L 767.067511 -393.374666 
L 768.407155 -398.061417 
L 769.633269 -402.748169 
L 770.747906 -407.43492 
L 771.761763 -412.121671 
L 772.692961 -416.808422 
L 773.565044 -421.495173 
L 774.40444 -426.181924 
L 775.237677 -430.868676 
L 776.088705 -435.555427 
L 776.9766 -440.242178 
L 777.913867 -444.928929 
L 778.905511 -449.61568 
L 779.948927 -454.302432 
L 781.034581 -458.989183 
L 782.147392 -463.675934 
L 783.26861 -468.362685 
L 784.377953 -473.049436 
L 785.455721 -477.736187 
L 786.484617 -482.422939 
L 787.451029 -487.10969 
L 788.34567 -491.796441 
L 789.163518 -496.483192 
L 789.903175 -501.169943 
L 790.565819 -505.856695 
L 791.154004 -510.543446 
L 791.670529 -515.230197 
L 792.117605 -519.916948 
L 792.496427 -524.603699 
L 792.807191 -529.29045 
L 793.049512 -533.977202 
L 793.223124 -538.663953 
L 793.328729 -543.350704 
L 793.368821 -548.037455 
L 793.348358 -552.724206 
L 793.275161 -557.410958 
L 793.159958 -562.097709 
L 793.016045 -566.78446 
L 792.858581 -571.471211 
L 792.70357 -576.157962 
L 792.566632 -580.844713 
L 792.461723 -585.531465 
L 792.399942 -590.218216 
L 792.3886 -594.904967 
L 792.430666 -599.591718 
L 792.524674 -604.278469 
L 792.665113 -608.965221 
L 792.843214 -613.651972 
L 793.048046 -618.338723 
L 793.267744 -623.025474 
L 793.490712 -627.712225 
L 793.706644 -632.398976 
L 793.907262 -637.085728 
L 794.086715 -641.772479 
L 794.241646 -646.45923 
L 794.370978 -651.145981 
L 794.475504 -655.832732 
L 794.557374 -660.519484 
L 794.967626 -660.519484 
L 794.967626 -660.519484 
L 795.049496 -655.832732 
L 795.154022 -651.145981 
L 795.283354 -646.45923 
L 795.438285 -641.772479 
L 795.617738 -637.085728 
L 795.818356 -632.398976 
L 796.034288 -627.712225 
L 796.257256 -623.025474 
L 796.476954 -618.338723 
L 796.681786 -613.651972 
L 796.859887 -608.965221 
L 797.000326 -604.278469 
L 797.094334 -599.591718 
L 797.1364 -594.904967 
L 797.125058 -590.218216 
L 797.063277 -585.531465 
L 796.958368 -580.844713 
L 796.82143 -576.157962 
L 796.666419 -571.471211 
L 796.508955 -566.78446 
L 796.365042 -562.097709 
L 796.249839 -557.410958 
L 796.176642 -552.724206 
L 796.156179 -548.037455 
L 796.196271 -543.350704 
L 796.301876 -538.663953 
L 796.475488 -533.977202 
L 796.717809 -529.29045 
L 797.028573 -524.603699 
L 797.407395 -519.916948 
L 797.854471 -515.230197 
L 798.370996 -510.543446 
L 798.959181 -505.856695 
L 799.621825 -501.169943 
L 800.361482 -496.483192 
L 801.17933 -491.796441 
L 802.073971 -487.10969 
L 803.040383 -482.422939 
L 804.069279 -477.736187 
L 805.147047 -473.049436 
L 806.25639 -468.362685 
L 807.377608 -463.675934 
L 808.490419 -458.989183 
L 809.576073 -454.302432 
L 810.619489 -449.61568 
L 811.611133 -444.928929 
L 812.5484 -440.242178 
L 813.436295 -435.555427 
L 814.287323 -430.868676 
L 815.12056 -426.181924 
L 815.959956 -421.495173 
L 816.832039 -416.808422 
L 817.763237 -412.121671 
L 818.777094 -407.43492 
L 819.891731 -402.748169 
L 821.117845 -398.061417 
L 822.457489 -393.374666 
L 823.903784 -388.687915 
L 825.441503 -384.001164 
L 827.048363 -379.314413 
L 828.696668 -374.627661 
L 830.354933 -369.94091 
L 831.9891 -365.254159 
L 833.563126 -360.567408 
L 835.038885 -355.880657 
L 836.375588 -351.193906 
L 837.529122 -346.507154 
L 838.451837 -341.820403 
L 839.093313 -337.133652 
L 839.4025 -332.446901 
L 839.33133 -327.76015 
L 838.839591 -323.073398 
L 837.900441 -318.386647 
L 836.505688 -313.699896 
L 834.669833 -309.013145 
L 832.431936 -304.326394 
L 829.854668 -299.639643 
L 827.020387 -294.952891 
L 824.024596 -290.26614 
L 820.967661 -285.579389 
L 817.94601 -280.892638 
L 815.044139 -276.205887 
L 812.328588 -271.519135 
L 809.844644 -266.832384 
L 807.616027 -262.145633 
L 805.647211 -257.458882 
L 803.927661 -252.772131 
L 802.436985 -248.08538 
L 801.150018 -243.398628 
L 800.041034 -238.711877 
L 799.086624 -234.025126 
L 798.267135 -229.338375 
L 797.566842 -224.651624 
L 796.973278 -219.964873 
L 796.476137 -215.278121 
L 796.06618 -210.59137 
L 795.734402 -205.904619 
L 795.471585 -201.217868 
L 795.268232 -196.531117 
z
" style="stroke: #3d3d3d; stroke-opacity: 0.5"/>
    </defs>
    <g clip-path="url(#pf0a980fb64)">
     <use xlink:href="#mb6865e2a59" x="0" y="707.825675" style="fill: #3a923a; fill-opacity: 0.5; stroke: #3d3d3d; stroke-opacity: 0.5"/>
    </g>
   </g>
   <g id="line2d_7">
    <path d="M 125.1625 424.077989 
L 125.1625 155.121598 
" clip-path="url(#pf0a980fb64)" style="fill: none; stroke: #3d3d3d; stroke-width: 1.5; stroke-linecap: round"/>
   </g>
   <g id="line2d_8">
    <path d="M 125.1625 342.984499 
L 125.1625 255.810863 
" clip-path="url(#pf0a980fb64)" style="fill: none; stroke: #3d3d3d; stroke-width: 4.5; stroke-linecap: round"/>
   </g>
   <g id="line2d_9">
    <path d="M 125.1625 305.801499 
" clip-path="url(#pf0a980fb64)" style="fill: none; stroke: #3d3d3d; stroke-width: 1.5; stroke-linecap: round"/>
    <defs>
     <path id="mb4269f76cf" d="M 1.875 0 
L -1.875 -0 
" style="stroke: #ffffff; stroke-width: 0.9"/>
    </defs>
    <g clip-path="url(#pf0a980fb64)">
     <use xlink:href="#mb4269f76cf" x="125.1625" y="305.801499" style="fill: #ffffff; stroke: #ffffff; stroke-width: 0.9"/>
    </g>
   </g>
   <g id="line2d_10">
    <path d="M 236.7625 481.170858 
L 236.7625 235.637958 
" clip-path="url(#pf0a980fb64)" style="fill: none; stroke: #3d3d3d; stroke-width: 1.5; stroke-linecap: round"/>
   </g>
   <g id="line2d_11">
    <path d="M 236.7625 439.938806 
L 236.7625 356.967742 
" clip-path="url(#pf0a980fb64)" style="fill: none; stroke: #3d3d3d; stroke-width: 4.5; stroke-linecap: round"/>
   </g>
   <g id="line2d_12">
    <path d="M 236.7625 410.146653 
" clip-path="url(#pf0a980fb64)" style="fill: none; stroke: #3d3d3d; stroke-width: 1.5; stroke-linecap: round"/>
    <g clip-path="url(#pf0a980fb64)">
     <use xlink:href="#mb4269f76cf" x="236.7625" y="410.146653" style="fill: #ffffff; stroke: #ffffff; stroke-width: 0.9"/>
    </g>
   </g>
   <g id="line2d_13">
    <path d="M 348.3625 356.999514 
L 348.3625 105.98147 
" clip-path="url(#pf0a980fb64)" style="fill: none; stroke: #3d3d3d; stroke-width: 1.5; stroke-linecap: round"/>
   </g>
   <g id="line2d_14">
    <path d="M 348.3625 263.963454 
L 348.3625 196.842293 
" clip-path="url(#pf0a980fb64)" style="fill: none; stroke: #3d3d3d; stroke-width: 4.5; stroke-linecap: round"/>
   </g>
   <g id="line2d_15">
    <path d="M 348.3625 239.396373 
" clip-path="url(#pf0a980fb64)" style="fill: none; stroke: #3d3d3d; stroke-width: 1.5; stroke-linecap: round"/>
    <g clip-path="url(#pf0a980fb64)">
     <use xlink:href="#mb4269f76cf" x="348.3625" y="239.396373" style="fill: #ffffff; stroke: #ffffff; stroke-width: 0.9"/>
    </g>
   </g>
   <g id="line2d_16">
    <path d="M 459.9625 413.935425 
L 459.9625 112.088787 
" clip-path="url(#pf0a980fb64)" style="fill: none; stroke: #3d3d3d; stroke-width: 1.5; stroke-linecap: round"/>
   </g>
   <g id="line2d_17">
    <path d="M 459.9625 339.39473 
L 459.9625 246.553349 
" clip-path="url(#pf0a980fb64)" style="fill: none; stroke: #3d3d3d; stroke-width: 4.5; stroke-linecap: round"/>
   </g>
   <g id="line2d_18">
    <path d="M 459.9625 306.943523 
" clip-path="url(#pf0a980fb64)" style="fill: none; stroke: #3d3d3d; stroke-width: 1.5; stroke-linecap: round"/>
    <g clip-path="url(#pf0a980fb64)">
     <use xlink:href="#mb4269f76cf" x="459.9625" y="306.943523" style="fill: #ffffff; stroke: #ffffff; stroke-width: 0.9"/>
    </g>
   </g>
   <g id="line2d_19">
    <path d="M 571.5625 428.619225 
L 571.5625 160.803805 
" clip-path="url(#pf0a980fb64)" style="fill: none; stroke: #3d3d3d; stroke-width: 1.5; stroke-linecap: round"/>
   </g>
   <g id="line2d_20">
    <path d="M 571.5625 360.124849 
L 571.5625 274.008904 
" clip-path="url(#pf0a980fb64)" style="fill: none; stroke: #3d3d3d; stroke-width: 4.5; stroke-linecap: round"/>
   </g>
   <g id="line2d_21">
    <path d="M 571.5625 328.445273 
" clip-path="url(#pf0a980fb64)" style="fill: none; stroke: #3d3d3d; stroke-width: 1.5; stroke-linecap: round"/>
    <g clip-path="url(#pf0a980fb64)">
     <use xlink:href="#mb4269f76cf" x="571.5625" y="328.445273" style="fill: #ffffff; stroke: #ffffff; stroke-width: 0.9"/>
    </g>
   </g>
   <g id="line2d_22">
    <path d="M 683.1625 458.152015 
L 683.1625 245.39251 
" clip-path="url(#pf0a980fb64)" style="fill: none; stroke: #3d3d3d; stroke-width: 1.5; stroke-linecap: round"/>
   </g>
   <g id="line2d_23">
    <path d="M 683.1625 390.251947 
L 683.1625 321.741989 
" clip-path="url(#pf0a980fb64)" style="fill: none; stroke: #3d3d3d; stroke-width: 4.5; stroke-linecap: round"/>
   </g>
   <g id="line2d_24">
    <path d="M 683.1625 364.874074 
" clip-path="url(#pf0a980fb64)" style="fill: none; stroke: #3d3d3d; stroke-width: 1.5; stroke-linecap: round"/>
    <g clip-path="url(#pf0a980fb64)">
     <use xlink:href="#mb4269f76cf" x="683.1625" y="364.874074" style="fill: #ffffff; stroke: #ffffff; stroke-width: 0.9"/>
    </g>
   </g>
   <g id="line2d_25">
    <path d="M 794.7625 454.357399 
L 794.7625 199.131861 
" clip-path="url(#pf0a980fb64)" style="fill: none; stroke: #3d3d3d; stroke-width: 1.5; stroke-linecap: round"/>
   </g>
   <g id="line2d_26">
    <path d="M 794.7625 392.018386 
L 794.7625 306.695392 
" clip-path="url(#pf0a980fb64)" style="fill: none; stroke: #3d3d3d; stroke-width: 4.5; stroke-linecap: round"/>
   </g>
   <g id="line2d_27">
    <path d="M 794.7625 360.536086 
" clip-path="url(#pf0a980fb64)" style="fill: none; stroke: #3d3d3d; stroke-width: 1.5; stroke-linecap: round"/>
    <g clip-path="url(#pf0a980fb64)">
     <use xlink:href="#mb4269f76cf" x="794.7625" y="360.536086" style="fill: #ffffff; stroke: #ffffff; stroke-width: 0.9"/>
    </g>
   </g>
   <g id="patch_3">
    <path d="M 69.3625 561.6 
L 850.5625 561.6 
" style="fill: none; stroke: #cccccc; stroke-width: 0.8; stroke-linejoin: miter; stroke-linecap: square"/>
   </g>
  </g>
 </g>
 <defs>
  <clipPath id="pf0a980fb64">
   <rect x="69.3625" y="7.2" width="781.2" height="554.4"/>
  </clipPath>
 </defs>
</svg>
