<?xml version="1.0" encoding="utf-8" standalone="no"?>
<!DOCTYPE svg PUBLIC "-//W3C//DTD SVG 1.1//EN"
  "http://www.w3.org/Graphics/SVG/1.1/DTD/svg11.dtd">
<svg xmlns:xlink="http://www.w3.org/1999/xlink" width="870.4875pt" height="707.825675pt" viewBox="0 0 870.4875 707.825675" xmlns="http://www.w3.org/2000/svg" version="1.1">
 <metadata>
  <rdf:RDF xmlns:dc="http://purl.org/dc/elements/1.1/" xmlns:cc="http://creativecommons.org/ns#" xmlns:rdf="http://www.w3.org/1999/02/22-rdf-syntax-ns#">
   <cc:Work>
    <dc:type rdf:resource="http://purl.org/dc/dcmitype/StillImage"/>
    <dc:date>2024-10-23T17:24:06.507102</dc:date>
    <dc:format>image/svg+xml</dc:format>
    <dc:creator>
     <cc:Agent>
      <dc:title>Matplotlib v3.8.0, https://matplotlib.org/</dc:title>
     </cc:Agent>
    </dc:creator>
   </cc:Work>
  </rdf:RDF>
 </metadata>
 <defs>
  <style type="text/css">*{stroke-linejoin: round; stroke-linecap: butt}</style>
 </defs>
 <g id="figure_1">
  <g id="patch_1">
   <path d="M 0 707.825675 
L 870.4875 707.825675 
L 870.4875 0 
L 0 0 
L 0 707.825675 
z
" style="fill: none"/>
  </g>
  <g id="axes_1">
   <g id="patch_2">
    <path d="M 82.0875 561.6 
L 863.2875 561.6 
L 863.2875 7.2 
L 82.0875 7.2 
L 82.0875 561.6 
z
" style="fill: none"/>
   </g>
   <g id="matplotlib.axis_1">
    <g id="xtick_1">
     <g id="text_1">
      <!-- MSA -->
      <g style="fill: #262626" transform="translate(117.513986 610.465141) rotate(-45) scale(0.2 -0.2)">
       <defs>
        <path id="DejaVuSans-4d" d="M 628 4666 
L 1569 4666 
L 2759 1491 
L 3956 4666 
L 4897 4666 
L 4897 0 
L 4281 0 
L 4281 4097 
L 3078 897 
L 2444 897 
L 1241 4097 
L 1241 0 
L 628 0 
L 628 4666 
z
" transform="scale(0.015625)"/>
        <path id="DejaVuSans-53" d="M 3425 4513 
L 3425 3897 
Q 3066 4069 2747 4153 
Q 2428 4238 2131 4238 
Q 1616 4238 1336 4038 
Q 1056 3838 1056 3469 
Q 1056 3159 1242 3001 
Q 1428 2844 1947 2747 
L 2328 2669 
Q 3034 2534 3370 2195 
Q 3706 1856 3706 1288 
Q 3706 609 3251 259 
Q 2797 -91 1919 -91 
Q 1588 -91 1214 -16 
Q 841 59 441 206 
L 441 856 
Q 825 641 1194 531 
Q 1563 422 1919 422 
Q 2459 422 2753 634 
Q 3047 847 3047 1241 
Q 3047 1584 2836 1778 
Q 2625 1972 2144 2069 
L 1759 2144 
Q 1053 2284 737 2584 
Q 422 2884 422 3419 
Q 422 4038 858 4394 
Q 1294 4750 2059 4750 
Q 2388 4750 2728 4690 
Q 3069 4631 3425 4513 
z
" transform="scale(0.015625)"/>
        <path id="DejaVuSans-41" d="M 2188 4044 
L 1331 1722 
L 3047 1722 
L 2188 4044 
z
M 1831 4666 
L 2547 4666 
L 4325 0 
L 3669 0 
L 3244 1197 
L 1141 1197 
L 716 0 
L 50 0 
L 1831 4666 
z
" transform="scale(0.015625)"/>
       </defs>
       <use xlink:href="#DejaVuSans-4d"/>
       <use xlink:href="#DejaVuSans-53" x="86.279297"/>
       <use xlink:href="#DejaVuSans-41" x="151.630859"/>
      </g>
     </g>
    </g>
    <g id="xtick_2">
     <g id="text_2">
      <!-- Template -->
      <g style="fill: #262626" transform="translate(195.70319 643.875936) rotate(-45) scale(0.2 -0.2)">
       <defs>
        <path id="DejaVuSans-54" d="M -19 4666 
L 3928 4666 
L 3928 4134 
L 2272 4134 
L 2272 0 
L 1638 0 
L 1638 4134 
L -19 4134 
L -19 4666 
z
" transform="scale(0.015625)"/>
        <path id="DejaVuSans-65" d="M 3597 1894 
L 3597 1613 
L 953 1613 
Q 991 1019 1311 708 
Q 1631 397 2203 397 
Q 2534 397 2845 478 
Q 3156 559 3463 722 
L 3463 178 
Q 3153 47 2828 -22 
Q 2503 -91 2169 -91 
Q 1331 -91 842 396 
Q 353 884 353 1716 
Q 353 2575 817 3079 
Q 1281 3584 2069 3584 
Q 2775 3584 3186 3129 
Q 3597 2675 3597 1894 
z
M 3022 2063 
Q 3016 2534 2758 2815 
Q 2500 3097 2075 3097 
Q 1594 3097 1305 2825 
Q 1016 2553 972 2059 
L 3022 2063 
z
" transform="scale(0.015625)"/>
        <path id="DejaVuSans-6d" d="M 3328 2828 
Q 3544 3216 3844 3400 
Q 4144 3584 4550 3584 
Q 5097 3584 5394 3201 
Q 5691 2819 5691 2113 
L 5691 0 
L 5113 0 
L 5113 2094 
Q 5113 2597 4934 2840 
Q 4756 3084 4391 3084 
Q 3944 3084 3684 2787 
Q 3425 2491 3425 1978 
L 3425 0 
L 2847 0 
L 2847 2094 
Q 2847 2600 2669 2842 
Q 2491 3084 2119 3084 
Q 1678 3084 1418 2786 
Q 1159 2488 1159 1978 
L 1159 0 
L 581 0 
L 581 3500 
L 1159 3500 
L 1159 2956 
Q 1356 3278 1631 3431 
Q 1906 3584 2284 3584 
Q 2666 3584 2933 3390 
Q 3200 3197 3328 2828 
z
" transform="scale(0.015625)"/>
        <path id="DejaVuSans-70" d="M 1159 525 
L 1159 -1331 
L 581 -1331 
L 581 3500 
L 1159 3500 
L 1159 2969 
Q 1341 3281 1617 3432 
Q 1894 3584 2278 3584 
Q 2916 3584 3314 3078 
Q 3713 2572 3713 1747 
Q 3713 922 3314 415 
Q 2916 -91 2278 -91 
Q 1894 -91 1617 61 
Q 1341 213 1159 525 
z
M 3116 1747 
Q 3116 2381 2855 2742 
Q 2594 3103 2138 3103 
Q 1681 3103 1420 2742 
Q 1159 2381 1159 1747 
Q 1159 1113 1420 752 
Q 1681 391 2138 391 
Q 2594 391 2855 752 
Q 3116 1113 3116 1747 
z
" transform="scale(0.015625)"/>
        <path id="DejaVuSans-6c" d="M 603 4863 
L 1178 4863 
L 1178 0 
L 603 0 
L 603 4863 
z
" transform="scale(0.015625)"/>
        <path id="DejaVuSans-61" d="M 2194 1759 
Q 1497 1759 1228 1600 
Q 959 1441 959 1056 
Q 959 750 1161 570 
Q 1363 391 1709 391 
Q 2188 391 2477 730 
Q 2766 1069 2766 1631 
L 2766 1759 
L 2194 1759 
z
M 3341 1997 
L 3341 0 
L 2766 0 
L 2766 531 
Q 2569 213 2275 61 
Q 1981 -91 1556 -91 
Q 1019 -91 701 211 
Q 384 513 384 1019 
Q 384 1609 779 1909 
Q 1175 2209 1959 2209 
L 2766 2209 
L 2766 2266 
Q 2766 2663 2505 2880 
Q 2244 3097 1772 3097 
Q 1472 3097 1187 3025 
Q 903 2953 641 2809 
L 641 3341 
Q 956 3463 1253 3523 
Q 1550 3584 1831 3584 
Q 2591 3584 2966 3190 
Q 3341 2797 3341 1997 
z
" transform="scale(0.015625)"/>
        <path id="DejaVuSans-74" d="M 1172 4494 
L 1172 3500 
L 2356 3500 
L 2356 3053 
L 1172 3053 
L 1172 1153 
Q 1172 725 1289 603 
Q 1406 481 1766 481 
L 2356 481 
L 2356 0 
L 1766 0 
Q 1100 0 847 248 
Q 594 497 594 1153 
L 594 3053 
L 172 3053 
L 172 3500 
L 594 3500 
L 594 4494 
L 1172 4494 
z
" transform="scale(0.015625)"/>
       </defs>
       <use xlink:href="#DejaVuSans-54"/>
       <use xlink:href="#DejaVuSans-65" x="44.083984"/>
       <use xlink:href="#DejaVuSans-6d" x="105.607422"/>
       <use xlink:href="#DejaVuSans-70" x="203.019531"/>
       <use xlink:href="#DejaVuSans-6c" x="266.496094"/>
       <use xlink:href="#DejaVuSans-61" x="294.279297"/>
       <use xlink:href="#DejaVuSans-74" x="355.558594"/>
       <use xlink:href="#DejaVuSans-65" x="394.767578"/>
      </g>
     </g>
    </g>
    <g id="xtick_3">
     <g id="text_3">
      <!-- Backbone -->
      <g style="fill: #262626" transform="translate(302.203183 648.975944) rotate(-45) scale(0.2 -0.2)">
       <defs>
        <path id="DejaVuSans-42" d="M 1259 2228 
L 1259 519 
L 2272 519 
Q 2781 519 3026 730 
Q 3272 941 3272 1375 
Q 3272 1813 3026 2020 
Q 2781 2228 2272 2228 
L 1259 2228 
z
M 1259 4147 
L 1259 2741 
L 2194 2741 
Q 2656 2741 2882 2914 
Q 3109 3088 3109 3444 
Q 3109 3797 2882 3972 
Q 2656 4147 2194 4147 
L 1259 4147 
z
M 628 4666 
L 2241 4666 
Q 2963 4666 3353 4366 
Q 3744 4066 3744 3513 
Q 3744 3084 3544 2831 
Q 3344 2578 2956 2516 
Q 3422 2416 3680 2098 
Q 3938 1781 3938 1306 
Q 3938 681 3513 340 
Q 3088 0 2303 0 
L 628 0 
L 628 4666 
z
" transform="scale(0.015625)"/>
        <path id="DejaVuSans-63" d="M 3122 3366 
L 3122 2828 
Q 2878 2963 2633 3030 
Q 2388 3097 2138 3097 
Q 1578 3097 1268 2742 
Q 959 2388 959 1747 
Q 959 1106 1268 751 
Q 1578 397 2138 397 
Q 2388 397 2633 464 
Q 2878 531 3122 666 
L 3122 134 
Q 2881 22 2623 -34 
Q 2366 -91 2075 -91 
Q 1284 -91 818 406 
Q 353 903 353 1747 
Q 353 2603 823 3093 
Q 1294 3584 2113 3584 
Q 2378 3584 2631 3529 
Q 2884 3475 3122 3366 
z
" transform="scale(0.015625)"/>
        <path id="DejaVuSans-6b" d="M 581 4863 
L 1159 4863 
L 1159 1991 
L 2875 3500 
L 3609 3500 
L 1753 1863 
L 3688 0 
L 2938 0 
L 1159 1709 
L 1159 0 
L 581 0 
L 581 4863 
z
" transform="scale(0.015625)"/>
        <path id="DejaVuSans-62" d="M 3116 1747 
Q 3116 2381 2855 2742 
Q 2594 3103 2138 3103 
Q 1681 3103 1420 2742 
Q 1159 2381 1159 1747 
Q 1159 1113 1420 752 
Q 1681 391 2138 391 
Q 2594 391 2855 752 
Q 3116 1113 3116 1747 
z
M 1159 2969 
Q 1341 3281 1617 3432 
Q 1894 3584 2278 3584 
Q 2916 3584 3314 3078 
Q 3713 2572 3713 1747 
Q 3713 922 3314 415 
Q 2916 -91 2278 -91 
Q 1894 -91 1617 61 
Q 1341 213 1159 525 
L 1159 0 
L 581 0 
L 581 4863 
L 1159 4863 
L 1159 2969 
z
" transform="scale(0.015625)"/>
        <path id="DejaVuSans-6f" d="M 1959 3097 
Q 1497 3097 1228 2736 
Q 959 2375 959 1747 
Q 959 1119 1226 758 
Q 1494 397 1959 397 
Q 2419 397 2687 759 
Q 2956 1122 2956 1747 
Q 2956 2369 2687 2733 
Q 2419 3097 1959 3097 
z
M 1959 3584 
Q 2709 3584 3137 3096 
Q 3566 2609 3566 1747 
Q 3566 888 3137 398 
Q 2709 -91 1959 -91 
Q 1206 -91 779 398 
Q 353 888 353 1747 
Q 353 2609 779 3096 
Q 1206 3584 1959 3584 
z
" transform="scale(0.015625)"/>
        <path id="DejaVuSans-6e" d="M 3513 2113 
L 3513 0 
L 2938 0 
L 2938 2094 
Q 2938 2591 2744 2837 
Q 2550 3084 2163 3084 
Q 1697 3084 1428 2787 
Q 1159 2491 1159 1978 
L 1159 0 
L 581 0 
L 581 3500 
L 1159 3500 
L 1159 2956 
Q 1366 3272 1645 3428 
Q 1925 3584 2291 3584 
Q 2894 3584 3203 3211 
Q 3513 2838 3513 2113 
z
" transform="scale(0.015625)"/>
       </defs>
       <use xlink:href="#DejaVuSans-42"/>
       <use xlink:href="#DejaVuSans-61" x="68.603516"/>
       <use xlink:href="#DejaVuSans-63" x="129.882812"/>
       <use xlink:href="#DejaVuSans-6b" x="184.863281"/>
       <use xlink:href="#DejaVuSans-62" x="242.773438"/>
       <use xlink:href="#DejaVuSans-6f" x="306.25"/>
       <use xlink:href="#DejaVuSans-6e" x="367.431641"/>
       <use xlink:href="#DejaVuSans-65" x="430.810547"/>
      </g>
     </g>
    </g>
    <g id="xtick_4">
     <g id="text_4">
      <!-- Heuristic C-$\beta$ -->
      <g style="fill: #262626" transform="translate(392.36017 670.706219) rotate(-45) scale(0.2 -0.2)">
       <defs>
        <path id="DejaVuSans-48" d="M 628 4666 
L 1259 4666 
L 1259 2753 
L 3553 2753 
L 3553 4666 
L 4184 4666 
L 4184 0 
L 3553 0 
L 3553 2222 
L 1259 2222 
L 1259 0 
L 628 0 
L 628 4666 
z
" transform="scale(0.015625)"/>
        <path id="DejaVuSans-75" d="M 544 1381 
L 544 3500 
L 1119 3500 
L 1119 1403 
Q 1119 906 1312 657 
Q 1506 409 1894 409 
Q 2359 409 2629 706 
Q 2900 1003 2900 1516 
L 2900 3500 
L 3475 3500 
L 3475 0 
L 2900 0 
L 2900 538 
Q 2691 219 2414 64 
Q 2138 -91 1772 -91 
Q 1169 -91 856 284 
Q 544 659 544 1381 
z
M 1991 3584 
L 1991 3584 
z
" transform="scale(0.015625)"/>
        <path id="DejaVuSans-72" d="M 2631 2963 
Q 2534 3019 2420 3045 
Q 2306 3072 2169 3072 
Q 1681 3072 1420 2755 
Q 1159 2438 1159 1844 
L 1159 0 
L 581 0 
L 581 3500 
L 1159 3500 
L 1159 2956 
Q 1341 3275 1631 3429 
Q 1922 3584 2338 3584 
Q 2397 3584 2469 3576 
Q 2541 3569 2628 3553 
L 2631 2963 
z
" transform="scale(0.015625)"/>
        <path id="DejaVuSans-69" d="M 603 3500 
L 1178 3500 
L 1178 0 
L 603 0 
L 603 3500 
z
M 603 4863 
L 1178 4863 
L 1178 4134 
L 603 4134 
L 603 4863 
z
" transform="scale(0.015625)"/>
        <path id="DejaVuSans-73" d="M 2834 3397 
L 2834 2853 
Q 2591 2978 2328 3040 
Q 2066 3103 1784 3103 
Q 1356 3103 1142 2972 
Q 928 2841 928 2578 
Q 928 2378 1081 2264 
Q 1234 2150 1697 2047 
L 1894 2003 
Q 2506 1872 2764 1633 
Q 3022 1394 3022 966 
Q 3022 478 2636 193 
Q 2250 -91 1575 -91 
Q 1294 -91 989 -36 
Q 684 19 347 128 
L 347 722 
Q 666 556 975 473 
Q 1284 391 1588 391 
Q 1994 391 2212 530 
Q 2431 669 2431 922 
Q 2431 1156 2273 1281 
Q 2116 1406 1581 1522 
L 1381 1569 
Q 847 1681 609 1914 
Q 372 2147 372 2553 
Q 372 3047 722 3315 
Q 1072 3584 1716 3584 
Q 2034 3584 2315 3537 
Q 2597 3491 2834 3397 
z
" transform="scale(0.015625)"/>
        <path id="DejaVuSans-20" transform="scale(0.015625)"/>
        <path id="DejaVuSans-43" d="M 4122 4306 
L 4122 3641 
Q 3803 3938 3442 4084 
Q 3081 4231 2675 4231 
Q 1875 4231 1450 3742 
Q 1025 3253 1025 2328 
Q 1025 1406 1450 917 
Q 1875 428 2675 428 
Q 3081 428 3442 575 
Q 3803 722 4122 1019 
L 4122 359 
Q 3791 134 3420 21 
Q 3050 -91 2638 -91 
Q 1578 -91 968 557 
Q 359 1206 359 2328 
Q 359 3453 968 4101 
Q 1578 4750 2638 4750 
Q 3056 4750 3426 4639 
Q 3797 4528 4122 4306 
z
" transform="scale(0.015625)"/>
        <path id="DejaVuSans-2d" d="M 313 2009 
L 1997 2009 
L 1997 1497 
L 313 1497 
L 313 2009 
z
" transform="scale(0.015625)"/>
        <path id="DejaVuSans-Oblique-3b2" d="M 872 216 
L 572 -1331 
L -6 -1331 
L 928 3478 
Q 1206 4903 2538 4903 
Q 3888 4903 3659 3700 
Q 3503 2844 2894 2531 
Q 3713 2250 3553 1416 
Q 3272 -69 1759 -66 
Q 1097 -63 872 216 
z
M 1019 966 
Q 1259 422 1875 425 
Q 2775 425 2966 1406 
Q 3138 2288 1675 2219 
L 1778 2750 
Q 2909 2731 3106 3750 
Q 3241 4438 2509 4434 
Q 1691 4434 1503 3459 
L 1019 966 
z
" transform="scale(0.015625)"/>
       </defs>
       <use xlink:href="#DejaVuSans-48" transform="translate(0 0.390625)"/>
       <use xlink:href="#DejaVuSans-65" transform="translate(75.195312 0.390625)"/>
       <use xlink:href="#DejaVuSans-75" transform="translate(136.71875 0.390625)"/>
       <use xlink:href="#DejaVuSans-72" transform="translate(200.097656 0.390625)"/>
       <use xlink:href="#DejaVuSans-69" transform="translate(241.210938 0.390625)"/>
       <use xlink:href="#DejaVuSans-73" transform="translate(268.994141 0.390625)"/>
       <use xlink:href="#DejaVuSans-74" transform="translate(321.09375 0.390625)"/>
       <use xlink:href="#DejaVuSans-69" transform="translate(360.302734 0.390625)"/>
       <use xlink:href="#DejaVuSans-63" transform="translate(388.085938 0.390625)"/>
       <use xlink:href="#DejaVuSans-20" transform="translate(443.066406 0.390625)"/>
       <use xlink:href="#DejaVuSans-43" transform="translate(474.853516 0.390625)"/>
       <use xlink:href="#DejaVuSans-2d" transform="translate(544.677734 0.390625)"/>
       <use xlink:href="#DejaVuSans-Oblique-3b2" transform="translate(580.761719 0.390625)"/>
      </g>
     </g>
    </g>
    <g id="xtick_5">
     <g id="text_5">
      <!-- Template C-$\beta$ -->
      <g style="fill: #262626" transform="translate(499.717529 674.94886) rotate(-45) scale(0.2 -0.2)">
       <use xlink:href="#DejaVuSans-54" transform="translate(0 0.390625)"/>
       <use xlink:href="#DejaVuSans-65" transform="translate(61.083984 0.390625)"/>
       <use xlink:href="#DejaVuSans-6d" transform="translate(122.607422 0.390625)"/>
       <use xlink:href="#DejaVuSans-70" transform="translate(220.019531 0.390625)"/>
       <use xlink:href="#DejaVuSans-6c" transform="translate(283.496094 0.390625)"/>
       <use xlink:href="#DejaVuSans-61" transform="translate(311.279297 0.390625)"/>
       <use xlink:href="#DejaVuSans-74" transform="translate(372.558594 0.390625)"/>
       <use xlink:href="#DejaVuSans-65" transform="translate(411.767578 0.390625)"/>
       <use xlink:href="#DejaVuSans-20" transform="translate(473.291016 0.390625)"/>
       <use xlink:href="#DejaVuSans-43" transform="translate(505.078125 0.390625)"/>
       <use xlink:href="#DejaVuSans-2d" transform="translate(574.902344 0.390625)"/>
       <use xlink:href="#DejaVuSans-Oblique-3b2" transform="translate(610.986328 0.390625)"/>
      </g>
     </g>
    </g>
    <g id="xtick_6">
     <g id="text_6">
      <!-- AttnPacker -->
      <g style="fill: #262626" transform="translate(630.630383 655.348744) rotate(-45) scale(0.2 -0.2)">
       <defs>
        <path id="DejaVuSans-50" d="M 1259 4147 
L 1259 2394 
L 2053 2394 
Q 2494 2394 2734 2622 
Q 2975 2850 2975 3272 
Q 2975 3691 2734 3919 
Q 2494 4147 2053 4147 
L 1259 4147 
z
M 628 4666 
L 2053 4666 
Q 2838 4666 3239 4311 
Q 3641 3956 3641 3272 
Q 3641 2581 3239 2228 
Q 2838 1875 2053 1875 
L 1259 1875 
L 1259 0 
L 628 0 
L 628 4666 
z
" transform="scale(0.015625)"/>
       </defs>
       <use xlink:href="#DejaVuSans-41"/>
       <use xlink:href="#DejaVuSans-74" x="66.658203"/>
       <use xlink:href="#DejaVuSans-74" x="105.867188"/>
       <use xlink:href="#DejaVuSans-6e" x="145.076172"/>
       <use xlink:href="#DejaVuSans-50" x="208.455078"/>
       <use xlink:href="#DejaVuSans-61" x="264.257812"/>
       <use xlink:href="#DejaVuSans-63" x="325.537109"/>
       <use xlink:href="#DejaVuSans-6b" x="380.517578"/>
       <use xlink:href="#DejaVuSans-65" x="434.802734"/>
       <use xlink:href="#DejaVuSans-72" x="496.326172"/>
      </g>
     </g>
    </g>
    <g id="xtick_7">
     <g id="text_7">
      <!-- AttnPacker (AF2) -->
      <g style="fill: #262626" transform="translate(699.894574 697.684553) rotate(-45) scale(0.2 -0.2)">
       <defs>
        <path id="DejaVuSans-28" d="M 1984 4856 
Q 1566 4138 1362 3434 
Q 1159 2731 1159 2009 
Q 1159 1288 1364 580 
Q 1569 -128 1984 -844 
L 1484 -844 
Q 1016 -109 783 600 
Q 550 1309 550 2009 
Q 550 2706 781 3412 
Q 1013 4119 1484 4856 
L 1984 4856 
z
" transform="scale(0.015625)"/>
        <path id="DejaVuSans-46" d="M 628 4666 
L 3309 4666 
L 3309 4134 
L 1259 4134 
L 1259 2759 
L 3109 2759 
L 3109 2228 
L 1259 2228 
L 1259 0 
L 628 0 
L 628 4666 
z
" transform="scale(0.015625)"/>
        <path id="DejaVuSans-32" d="M 1228 531 
L 3431 531 
L 3431 0 
L 469 0 
L 469 531 
Q 828 903 1448 1529 
Q 2069 2156 2228 2338 
Q 2531 2678 2651 2914 
Q 2772 3150 2772 3378 
Q 2772 3750 2511 3984 
Q 2250 4219 1831 4219 
Q 1534 4219 1204 4116 
Q 875 4013 500 3803 
L 500 4441 
Q 881 4594 1212 4672 
Q 1544 4750 1819 4750 
Q 2544 4750 2975 4387 
Q 3406 4025 3406 3419 
Q 3406 3131 3298 2873 
Q 3191 2616 2906 2266 
Q 2828 2175 2409 1742 
Q 1991 1309 1228 531 
z
" transform="scale(0.015625)"/>
        <path id="DejaVuSans-29" d="M 513 4856 
L 1013 4856 
Q 1481 4119 1714 3412 
Q 1947 2706 1947 2009 
Q 1947 1309 1714 600 
Q 1481 -109 1013 -844 
L 513 -844 
Q 928 -128 1133 580 
Q 1338 1288 1338 2009 
Q 1338 2731 1133 3434 
Q 928 4138 513 4856 
z
" transform="scale(0.015625)"/>
       </defs>
       <use xlink:href="#DejaVuSans-41"/>
       <use xlink:href="#DejaVuSans-74" x="66.658203"/>
       <use xlink:href="#DejaVuSans-74" x="105.867188"/>
       <use xlink:href="#DejaVuSans-6e" x="145.076172"/>
       <use xlink:href="#DejaVuSans-50" x="208.455078"/>
       <use xlink:href="#DejaVuSans-61" x="264.257812"/>
       <use xlink:href="#DejaVuSans-63" x="325.537109"/>
       <use xlink:href="#DejaVuSans-6b" x="380.517578"/>
       <use xlink:href="#DejaVuSans-65" x="434.802734"/>
       <use xlink:href="#DejaVuSans-72" x="496.326172"/>
       <use xlink:href="#DejaVuSans-20" x="537.439453"/>
       <use xlink:href="#DejaVuSans-28" x="569.226562"/>
       <use xlink:href="#DejaVuSans-41" x="608.240234"/>
       <use xlink:href="#DejaVuSans-46" x="676.648438"/>
       <use xlink:href="#DejaVuSans-32" x="734.167969"/>
       <use xlink:href="#DejaVuSans-29" x="797.791016"/>
      </g>
     </g>
    </g>
   </g>
   <g id="matplotlib.axis_2">
    <g id="ytick_1">
     <g id="line2d_1">
      <path d="M 82.0875 529.881406 
L 863.2875 529.881406 
" clip-path="url(#p1fd75bb498)" style="fill: none; stroke: #cccccc; stroke-width: 0.8; stroke-linecap: round"/>
     </g>
     <g id="text_8">
      <!-- 0.00 -->
      <g style="fill: #262626" transform="translate(30.55625 537.479844) scale(0.2 -0.2)">
       <defs>
        <path id="DejaVuSans-30" d="M 2034 4250 
Q 1547 4250 1301 3770 
Q 1056 3291 1056 2328 
Q 1056 1369 1301 889 
Q 1547 409 2034 409 
Q 2525 409 2770 889 
Q 3016 1369 3016 2328 
Q 3016 3291 2770 3770 
Q 2525 4250 2034 4250 
z
M 2034 4750 
Q 2819 4750 3233 4129 
Q 3647 3509 3647 2328 
Q 3647 1150 3233 529 
Q 2819 -91 2034 -91 
Q 1250 -91 836 529 
Q 422 1150 422 2328 
Q 422 3509 836 4129 
Q 1250 4750 2034 4750 
z
" transform="scale(0.015625)"/>
        <path id="DejaVuSans-2e" d="M 684 794 
L 1344 794 
L 1344 0 
L 684 0 
L 684 794 
z
" transform="scale(0.015625)"/>
       </defs>
       <use xlink:href="#DejaVuSans-30"/>
       <use xlink:href="#DejaVuSans-2e" x="63.623047"/>
       <use xlink:href="#DejaVuSans-30" x="95.410156"/>
       <use xlink:href="#DejaVuSans-30" x="159.033203"/>
      </g>
     </g>
    </g>
    <g id="ytick_2">
     <g id="line2d_2">
      <path d="M 82.0875 454.161971 
L 863.2875 454.161971 
" clip-path="url(#p1fd75bb498)" style="fill: none; stroke: #cccccc; stroke-width: 0.8; stroke-linecap: round"/>
     </g>
     <g id="text_9">
      <!-- 0.25 -->
      <g style="fill: #262626" transform="translate(30.55625 461.760408) scale(0.2 -0.2)">
       <defs>
        <path id="DejaVuSans-35" d="M 691 4666 
L 3169 4666 
L 3169 4134 
L 1269 4134 
L 1269 2991 
Q 1406 3038 1543 3061 
Q 1681 3084 1819 3084 
Q 2600 3084 3056 2656 
Q 3513 2228 3513 1497 
Q 3513 744 3044 326 
Q 2575 -91 1722 -91 
Q 1428 -91 1123 -41 
Q 819 9 494 109 
L 494 744 
Q 775 591 1075 516 
Q 1375 441 1709 441 
Q 2250 441 2565 725 
Q 2881 1009 2881 1497 
Q 2881 1984 2565 2268 
Q 2250 2553 1709 2553 
Q 1456 2553 1204 2497 
Q 953 2441 691 2322 
L 691 4666 
z
" transform="scale(0.015625)"/>
       </defs>
       <use xlink:href="#DejaVuSans-30"/>
       <use xlink:href="#DejaVuSans-2e" x="63.623047"/>
       <use xlink:href="#DejaVuSans-32" x="95.410156"/>
       <use xlink:href="#DejaVuSans-35" x="159.033203"/>
      </g>
     </g>
    </g>
    <g id="ytick_3">
     <g id="line2d_3">
      <path d="M 82.0875 378.442535 
L 863.2875 378.442535 
" clip-path="url(#p1fd75bb498)" style="fill: none; stroke: #cccccc; stroke-width: 0.8; stroke-linecap: round"/>
     </g>
     <g id="text_10">
      <!-- 0.50 -->
      <g style="fill: #262626" transform="translate(30.55625 386.040973) scale(0.2 -0.2)">
       <use xlink:href="#DejaVuSans-30"/>
       <use xlink:href="#DejaVuSans-2e" x="63.623047"/>
       <use xlink:href="#DejaVuSans-35" x="95.410156"/>
       <use xlink:href="#DejaVuSans-30" x="159.033203"/>
      </g>
     </g>
    </g>
    <g id="ytick_4">
     <g id="line2d_4">
      <path d="M 82.0875 302.7231 
L 863.2875 302.7231 
" clip-path="url(#p1fd75bb498)" style="fill: none; stroke: #cccccc; stroke-width: 0.8; stroke-linecap: round"/>
     </g>
     <g id="text_11">
      <!-- 0.75 -->
      <g style="fill: #262626" transform="translate(30.55625 310.321538) scale(0.2 -0.2)">
       <defs>
        <path id="DejaVuSans-37" d="M 525 4666 
L 3525 4666 
L 3525 4397 
L 1831 0 
L 1172 0 
L 2766 4134 
L 525 4134 
L 525 4666 
z
" transform="scale(0.015625)"/>
       </defs>
       <use xlink:href="#DejaVuSans-30"/>
       <use xlink:href="#DejaVuSans-2e" x="63.623047"/>
       <use xlink:href="#DejaVuSans-37" x="95.410156"/>
       <use xlink:href="#DejaVuSans-35" x="159.033203"/>
      </g>
     </g>
    </g>
    <g id="ytick_5">
     <g id="line2d_5">
      <path d="M 82.0875 227.003665 
L 863.2875 227.003665 
" clip-path="url(#p1fd75bb498)" style="fill: none; stroke: #cccccc; stroke-width: 0.8; stroke-linecap: round"/>
     </g>
     <g id="text_12">
      <!-- 1.00 -->
      <g style="fill: #262626" transform="translate(30.55625 234.602102) scale(0.2 -0.2)">
       <defs>
        <path id="DejaVuSans-31" d="M 794 531 
L 1825 531 
L 1825 4091 
L 703 3866 
L 703 4441 
L 1819 4666 
L 2450 4666 
L 2450 531 
L 3481 531 
L 3481 0 
L 794 0 
L 794 531 
z
" transform="scale(0.015625)"/>
       </defs>
       <use xlink:href="#DejaVuSans-31"/>
       <use xlink:href="#DejaVuSans-2e" x="63.623047"/>
       <use xlink:href="#DejaVuSans-30" x="95.410156"/>
       <use xlink:href="#DejaVuSans-30" x="159.033203"/>
      </g>
     </g>
    </g>
    <g id="ytick_6">
     <g id="line2d_6">
      <path d="M 82.0875 151.284229 
L 863.2875 151.284229 
" clip-path="url(#p1fd75bb498)" style="fill: none; stroke: #cccccc; stroke-width: 0.8; stroke-linecap: round"/>
     </g>
     <g id="text_13">
      <!-- 1.25 -->
      <g style="fill: #262626" transform="translate(30.55625 158.882667) scale(0.2 -0.2)">
       <use xlink:href="#DejaVuSans-31"/>
       <use xlink:href="#DejaVuSans-2e" x="63.623047"/>
       <use xlink:href="#DejaVuSans-32" x="95.410156"/>
       <use xlink:href="#DejaVuSans-35" x="159.033203"/>
      </g>
     </g>
    </g>
    <g id="ytick_7">
     <g id="line2d_7">
      <path d="M 82.0875 75.564794 
L 863.2875 75.564794 
" clip-path="url(#p1fd75bb498)" style="fill: none; stroke: #cccccc; stroke-width: 0.8; stroke-linecap: round"/>
     </g>
     <g id="text_14">
      <!-- 1.50 -->
      <g style="fill: #262626" transform="translate(30.55625 83.163231) scale(0.2 -0.2)">
       <use xlink:href="#DejaVuSans-31"/>
       <use xlink:href="#DejaVuSans-2e" x="63.623047"/>
       <use xlink:href="#DejaVuSans-35" x="95.410156"/>
       <use xlink:href="#DejaVuSans-30" x="159.033203"/>
      </g>
     </g>
    </g>
    <g id="text_15">
     <!-- MAE 4 (rad) -->
     <g style="fill: #262626" transform="translate(22.396875 343.296875) rotate(-90) scale(0.2 -0.2)">
      <defs>
       <path id="DejaVuSans-45" d="M 628 4666 
L 3578 4666 
L 3578 4134 
L 1259 4134 
L 1259 2753 
L 3481 2753 
L 3481 2222 
L 1259 2222 
L 1259 531 
L 3634 531 
L 3634 0 
L 628 0 
L 628 4666 
z
" transform="scale(0.015625)"/>
       <path id="DejaVuSans-34" d="M 2419 4116 
L 825 1625 
L 2419 1625 
L 2419 4116 
z
M 2253 4666 
L 3047 4666 
L 3047 1625 
L 3713 1625 
L 3713 1100 
L 3047 1100 
L 3047 0 
L 2419 0 
L 2419 1100 
L 313 1100 
L 313 1709 
L 2253 4666 
z
" transform="scale(0.015625)"/>
       <path id="DejaVuSans-64" d="M 2906 2969 
L 2906 4863 
L 3481 4863 
L 3481 0 
L 2906 0 
L 2906 525 
Q 2725 213 2448 61 
Q 2172 -91 1784 -91 
Q 1150 -91 751 415 
Q 353 922 353 1747 
Q 353 2572 751 3078 
Q 1150 3584 1784 3584 
Q 2172 3584 2448 3432 
Q 2725 3281 2906 2969 
z
M 947 1747 
Q 947 1113 1208 752 
Q 1469 391 1925 391 
Q 2381 391 2643 752 
Q 2906 1113 2906 1747 
Q 2906 2381 2643 2742 
Q 2381 3103 1925 3103 
Q 1469 3103 1208 2742 
Q 947 2381 947 1747 
z
" transform="scale(0.015625)"/>
      </defs>
      <use xlink:href="#DejaVuSans-4d"/>
      <use xlink:href="#DejaVuSans-41" x="86.279297"/>
      <use xlink:href="#DejaVuSans-45" x="154.6875"/>
      <use xlink:href="#DejaVuSans-20" x="217.871094"/>
      <use xlink:href="#DejaVuSans-34" x="249.658203"/>
      <use xlink:href="#DejaVuSans-20" x="313.28125"/>
      <use xlink:href="#DejaVuSans-28" x="345.068359"/>
      <use xlink:href="#DejaVuSans-72" x="384.082031"/>
      <use xlink:href="#DejaVuSans-61" x="425.195312"/>
      <use xlink:href="#DejaVuSans-64" x="486.474609"/>
      <use xlink:href="#DejaVuSans-29" x="549.951172"/>
     </g>
    </g>
   </g>
   <g id="PolyCollection_1">
    <defs>
     <path id="m26d8e3b033" d="M 138.417935 -234.26976 
L 137.357065 -234.26976 
L 137.167463 -238.6476 
L 136.928145 -243.025441 
L 136.632551 -247.403281 
L 136.275239 -251.781121 
L 135.852494 -256.158962 
L 135.362867 -260.536802 
L 134.807597 -264.914642 
L 134.190821 -269.292482 
L 133.519545 -273.670323 
L 132.80333 -278.048163 
L 132.053722 -282.426003 
L 131.283467 -286.803844 
L 130.505574 -291.181684 
L 129.732319 -295.559524 
L 128.974275 -299.937365 
L 128.239418 -304.315205 
L 127.532388 -308.693045 
L 126.853909 -313.070886 
L 126.200414 -317.448726 
L 125.563891 -321.826566 
L 124.931986 -326.204406 
L 124.288411 -330.582247 
L 123.613721 -334.960087 
L 122.886485 -339.337927 
L 122.08485 -343.715768 
L 121.188447 -348.093608 
L 120.180476 -352.471448 
L 119.049771 -356.849289 
L 117.792552 -361.227129 
L 116.413595 -365.604969 
L 114.926567 -369.98281 
L 113.35336 -374.36065 
L 111.722441 -378.73849 
L 110.066328 -383.11633 
L 108.418512 -387.494171 
L 106.810226 -391.872011 
L 105.267528 -396.249851 
L 103.809152 -400.627692 
L 102.445456 -405.005532 
L 101.17867 -409.383372 
L 100.004421 -413.761213 
L 98.914344 -418.139053 
L 97.899363 -422.516893 
L 96.953166 -426.894733 
L 96.075319 -431.272574 
L 95.273505 -435.650414 
L 94.564519 -440.028254 
L 93.973808 -444.406095 
L 93.533568 -448.783935 
L 93.279623 -453.161775 
L 93.2475 -457.539616 
L 93.468222 -461.917456 
L 93.964408 -466.295296 
L 94.747184 -470.673137 
L 95.814335 -475.050977 
L 97.149882 -479.428817 
L 98.725113 -483.806657 
L 100.500858 -488.184498 
L 102.430649 -492.562338 
L 104.464317 -496.940178 
L 106.551566 -501.318019 
L 108.645111 -505.695859 
L 110.703107 -510.073699 
L 112.690724 -514.45154 
L 114.580884 -518.82938 
L 116.354263 -523.20722 
L 117.998774 -527.585061 
L 119.508722 -531.962901 
L 120.883825 -536.340741 
L 122.128244 -540.718581 
L 123.249676 -545.096422 
L 124.258553 -549.474262 
L 125.167303 -553.852102 
L 125.98966 -558.229943 
L 126.739996 -562.607783 
L 127.432651 -566.985623 
L 128.081293 -571.363464 
L 128.69833 -575.741304 
L 129.294396 -580.119144 
L 129.877971 -584.496984 
L 130.455132 -588.874825 
L 131.029466 -593.252665 
L 131.602127 -597.630505 
L 132.172042 -602.008346 
L 132.736229 -606.386186 
L 133.29021 -610.764026 
L 133.828496 -615.141867 
L 134.345101 -619.519707 
L 134.834059 -623.897547 
L 135.289899 -628.275388 
L 135.70806 -632.653228 
L 136.085199 -637.031068 
L 136.419381 -641.408908 
L 136.71014 -645.786749 
L 136.95842 -650.164589 
L 137.166401 -654.542429 
L 137.337257 -658.92027 
L 137.474863 -663.29811 
L 137.583488 -667.67595 
L 138.191512 -667.67595 
L 138.191512 -667.67595 
L 138.300137 -663.29811 
L 138.437743 -658.92027 
L 138.608599 -654.542429 
L 138.81658 -650.164589 
L 139.06486 -645.786749 
L 139.355619 -641.408908 
L 139.689801 -637.031068 
L 140.06694 -632.653228 
L 140.485101 -628.275388 
L 140.940941 -623.897547 
L 141.429899 -619.519707 
L 141.946504 -615.141867 
L 142.48479 -610.764026 
L 143.038771 -606.386186 
L 143.602958 -602.008346 
L 144.172873 -597.630505 
L 144.745534 -593.252665 
L 145.319868 -588.874825 
L 145.897029 -584.496984 
L 146.480604 -580.119144 
L 147.07667 -575.741304 
L 147.693707 -571.363464 
L 148.342349 -566.985623 
L 149.035004 -562.607783 
L 149.78534 -558.229943 
L 150.607697 -553.852102 
L 151.516447 -549.474262 
L 152.525324 -545.096422 
L 153.646756 -540.718581 
L 154.891175 -536.340741 
L 156.266278 -531.962901 
L 157.776226 -527.585061 
L 159.420737 -523.20722 
L 161.194116 -518.82938 
L 163.084276 -514.45154 
L 165.071893 -510.073699 
L 167.129889 -505.695859 
L 169.223434 -501.318019 
L 171.310683 -496.940178 
L 173.344351 -492.562338 
L 175.274142 -488.184498 
L 177.049887 -483.806657 
L 178.625118 -479.428817 
L 179.960665 -475.050977 
L 181.027816 -470.673137 
L 181.810592 -466.295296 
L 182.306778 -461.917456 
L 182.5275 -457.539616 
L 182.495377 -453.161775 
L 182.241432 -448.783935 
L 181.801192 -444.406095 
L 181.210481 -440.028254 
L 180.501495 -435.650414 
L 179.699681 -431.272574 
L 178.821834 -426.894733 
L 177.875637 -422.516893 
L 176.860656 -418.139053 
L 175.770579 -413.761213 
L 174.59633 -409.383372 
L 173.329544 -405.005532 
L 171.965848 -400.627692 
L 170.507472 -396.249851 
L 168.964774 -391.872011 
L 167.356488 -387.494171 
L 165.708672 -383.11633 
L 164.052559 -378.73849 
L 162.42164 -374.36065 
L 160.848433 -369.98281 
L 159.361405 -365.604969 
L 157.982448 -361.227129 
L 156.725229 -356.849289 
L 155.594524 -352.471448 
L 154.586553 -348.093608 
L 153.69015 -343.715768 
L 152.888515 -339.337927 
L 152.161279 -334.960087 
L 151.486589 -330.582247 
L 150.843014 -326.204406 
L 150.211109 -321.826566 
L 149.574586 -317.448726 
L 148.921091 -313.070886 
L 148.242612 -308.693045 
L 147.535582 -304.315205 
L 146.800725 -299.937365 
L 146.042681 -295.559524 
L 145.269426 -291.181684 
L 144.491533 -286.803844 
L 143.721278 -282.426003 
L 142.97167 -278.048163 
L 142.255455 -273.670323 
L 141.584179 -269.292482 
L 140.967403 -264.914642 
L 140.412133 -260.536802 
L 139.922506 -256.158962 
L 139.499761 -251.781121 
L 139.142449 -247.403281 
L 138.846855 -243.025441 
L 138.607537 -238.6476 
L 138.417935 -234.26976 
z
" style="stroke: #3d3d3d; stroke-opacity: 0.5"/>
    </defs>
    <g clip-path="url(#p1fd75bb498)">
     <use xlink:href="#m26d8e3b033" x="0" y="707.825675" style="fill: #3274a1; fill-opacity: 0.5; stroke: #3d3d3d; stroke-opacity: 0.5"/>
    </g>
   </g>
   <g id="PolyCollection_2">
    <defs>
     <path id="md0e2d28d99" d="M 249.704321 -171.425675 
L 249.270679 -171.425675 
L 249.195183 -176.164036 
L 249.101706 -180.902397 
L 248.988808 -185.640758 
L 248.855698 -190.379118 
L 248.702301 -195.117479 
L 248.529182 -199.85584 
L 248.3373 -204.594201 
L 248.127579 -209.332562 
L 247.900326 -214.070923 
L 247.654565 -218.809284 
L 247.38738 -223.547645 
L 247.093412 -228.286006 
L 246.76462 -233.024367 
L 246.390428 -237.762727 
L 245.958304 -242.501088 
L 245.45479 -247.239449 
L 244.866877 -251.97781 
L 244.183591 -256.716171 
L 243.397568 -261.454532 
L 242.506398 -266.192893 
L 241.513497 -270.931254 
L 240.428331 -275.669615 
L 239.265869 -280.407976 
L 238.045286 -285.146336 
L 236.787985 -289.884697 
L 235.515177 -294.623058 
L 234.2453 -299.361419 
L 232.991629 -304.09978 
L 231.760438 -308.838141 
L 230.550009 -313.576502 
L 229.350693 -318.314863 
L 228.146094 -323.053224 
L 226.915277 -327.791585 
L 225.635741 -332.529945 
L 224.286786 -337.268306 
L 222.852836 -342.006667 
L 221.326265 -346.745028 
L 219.709369 -351.483389 
L 218.01527 -356.22175 
L 216.267676 -360.960111 
L 214.499626 -365.698472 
L 212.751469 -370.436833 
L 211.068396 -375.175194 
L 209.497872 -379.913554 
L 208.087228 -384.651915 
L 206.881589 -389.390276 
L 205.922179 -394.128637 
L 205.244951 -398.866998 
L 204.879407 -403.605359 
L 204.8475 -408.34372 
L 205.162526 -413.082081 
L 205.828044 -417.820442 
L 206.836915 -422.558803 
L 208.170667 -427.297163 
L 209.799402 -432.035524 
L 211.682424 -436.773885 
L 213.769703 -441.512246 
L 216.004127 -446.250607 
L 218.324422 -450.988968 
L 220.668431 -455.727329 
L 222.976471 -460.46569 
L 225.194412 -465.204051 
L 227.276234 -469.942412 
L 229.185867 -474.680772 
L 230.898262 -479.419133 
L 232.399684 -484.157494 
L 233.687343 -488.895855 
L 234.768446 -493.634216 
L 235.65881 -498.372577 
L 236.381142 -503.110938 
L 236.963091 -507.849299 
L 237.435183 -512.58766 
L 237.828755 -517.326021 
L 238.174026 -522.064381 
L 238.49843 -526.802742 
L 238.825323 -531.541103 
L 239.173166 -536.279464 
L 239.55517 -541.017825 
L 239.979393 -545.756186 
L 240.449179 -550.494547 
L 240.963817 -555.232908 
L 241.519301 -559.971269 
L 242.109071 -564.70963 
L 242.724682 -569.447991 
L 243.356384 -574.186351 
L 243.993613 -578.924712 
L 244.625461 -583.663073 
L 245.241124 -588.401434 
L 245.830379 -593.139795 
L 246.38406 -597.878156 
L 246.894503 -602.616517 
L 247.355925 -607.354878 
L 247.764667 -612.093239 
L 248.119283 -616.8316 
L 248.420451 -621.56996 
L 248.670724 -626.308321 
L 248.874154 -631.046682 
L 249.035843 -635.785043 
L 249.161477 -640.523404 
L 249.813523 -640.523404 
L 249.813523 -640.523404 
L 249.939157 -635.785043 
L 250.100846 -631.046682 
L 250.304276 -626.308321 
L 250.554549 -621.56996 
L 250.855717 -616.8316 
L 251.210333 -612.093239 
L 251.619075 -607.354878 
L 252.080497 -602.616517 
L 252.59094 -597.878156 
L 253.144621 -593.139795 
L 253.733876 -588.401434 
L 254.349539 -583.663073 
L 254.981387 -578.924712 
L 255.618616 -574.186351 
L 256.250318 -569.447991 
L 256.865929 -564.70963 
L 257.455699 -559.971269 
L 258.011183 -555.232908 
L 258.525821 -550.494547 
L 258.995607 -545.756186 
L 259.41983 -541.017825 
L 259.801834 -536.279464 
L 260.149677 -531.541103 
L 260.47657 -526.802742 
L 260.800974 -522.064381 
L 261.146245 -517.326021 
L 261.539817 -512.58766 
L 262.011909 -507.849299 
L 262.593858 -503.110938 
L 263.31619 -498.372577 
L 264.206554 -493.634216 
L 265.287657 -488.895855 
L 266.575316 -484.157494 
L 268.076738 -479.419133 
L 269.789133 -474.680772 
L 271.698766 -469.942412 
L 273.780588 -465.204051 
L 275.998529 -460.46569 
L 278.306569 -455.727329 
L 280.650578 -450.988968 
L 282.970873 -446.250607 
L 285.205297 -441.512246 
L 287.292576 -436.773885 
L 289.175598 -432.035524 
L 290.804333 -427.297163 
L 292.138085 -422.558803 
L 293.146956 -417.820442 
L 293.812474 -413.082081 
L 294.1275 -408.34372 
L 294.095593 -403.605359 
L 293.730049 -398.866998 
L 293.052821 -394.128637 
L 292.093411 -389.390276 
L 290.887772 -384.651915 
L 289.477128 -379.913554 
L 287.906604 -375.175194 
L 286.223531 -370.436833 
L 284.475374 -365.698472 
L 282.707324 -360.960111 
L 280.95973 -356.22175 
L 279.265631 -351.483389 
L 277.648735 -346.745028 
L 276.122164 -342.006667 
L 274.688214 -337.268306 
L 273.339259 -332.529945 
L 272.059723 -327.791585 
L 270.828906 -323.053224 
L 269.624307 -318.314863 
L 268.424991 -313.576502 
L 267.214562 -308.838141 
L 265.983371 -304.09978 
L 264.7297 -299.361419 
L 263.459823 -294.623058 
L 262.187015 -289.884697 
L 260.929714 -285.146336 
L 259.709131 -280.407976 
L 258.546669 -275.669615 
L 257.461503 -270.931254 
L 256.468602 -266.192893 
L 255.577432 -261.454532 
L 254.791409 -256.716171 
L 254.108123 -251.97781 
L 253.52021 -247.239449 
L 253.016696 -242.501088 
L 252.584572 -237.762727 
L 252.21038 -233.024367 
L 251.881588 -228.286006 
L 251.58762 -223.547645 
L 251.320435 -218.809284 
L 251.074674 -214.070923 
L 250.847421 -209.332562 
L 250.6377 -204.594201 
L 250.445818 -199.85584 
L 250.272699 -195.117479 
L 250.119302 -190.379118 
L 249.986192 -185.640758 
L 249.873294 -180.902397 
L 249.779817 -176.164036 
L 249.704321 -171.425675 
z
" style="stroke: #3d3d3d; stroke-opacity: 0.5"/>
    </defs>
    <g clip-path="url(#p1fd75bb498)">
     <use xlink:href="#md0e2d28d99" x="0" y="707.825675" style="fill: #d684bd; fill-opacity: 0.5; stroke: #3d3d3d; stroke-opacity: 0.5"/>
    </g>
   </g>
   <g id="PolyCollection_3">
    <defs>
     <path id="m8954d50ca7" d="M 361.361249 -198.101501 
L 360.813751 -198.101501 
L 360.711044 -202.869413 
L 360.579903 -207.637326 
L 360.416063 -212.405238 
L 360.215653 -217.173151 
L 359.975476 -221.941063 
L 359.693241 -226.708976 
L 359.367756 -231.476888 
L 358.99903 -236.244801 
L 358.588303 -241.012713 
L 358.138009 -245.780626 
L 357.65168 -250.548538 
L 357.133832 -255.31645 
L 356.589837 -260.084363 
L 356.025791 -264.852275 
L 355.448373 -269.620188 
L 354.86465 -274.3881 
L 354.281811 -279.156013 
L 353.706764 -283.923925 
L 353.145601 -288.691838 
L 352.602898 -293.45975 
L 352.080895 -298.227663 
L 351.578616 -302.995575 
L 351.091025 -307.763488 
L 350.608342 -312.5314 
L 350.115661 -317.299313 
L 349.593013 -322.067225 
L 349.015983 -326.835138 
L 348.356956 -331.60305 
L 347.587005 -336.370963 
L 346.678332 -341.138875 
L 345.607081 -345.906788 
L 344.356273 -350.6747 
L 342.918497 -355.442613 
L 341.298023 -360.210525 
L 339.511969 -364.978438 
L 337.590263 -369.74635 
L 335.574278 -374.514263 
L 333.514164 -379.282175 
L 331.465093 -384.050088 
L 329.482787 -388.818 
L 327.61882 -393.585913 
L 325.916209 -398.353825 
L 324.405815 -403.121738 
L 323.103973 -407.88965 
L 322.011616 -412.657562 
L 321.115025 -417.425475 
L 320.388145 -422.193387 
L 319.796232 -426.9613 
L 319.3005 -431.729212 
L 318.863274 -436.497125 
L 318.453126 -441.265037 
L 318.049422 -446.03295 
L 317.64572 -450.800862 
L 317.251592 -455.568775 
L 316.892548 -460.336687 
L 316.608011 -465.1046 
L 316.4475 -469.872512 
L 316.465464 -474.640425 
L 316.715372 -479.408337 
L 317.243806 -484.17625 
L 318.085259 -488.944162 
L 319.258253 -493.712075 
L 320.763151 -498.479987 
L 322.581816 -503.2479 
L 324.678992 -508.015812 
L 327.005125 -512.783725 
L 329.500169 -517.551637 
L 332.097948 -522.31955 
L 334.730608 -527.087462 
L 337.332807 -531.855375 
L 339.845359 -536.623287 
L 342.218132 -541.3912 
L 344.412099 -546.159112 
L 346.40047 -550.927025 
L 348.168932 -555.694937 
L 349.715027 -560.462849 
L 351.046817 -565.230762 
L 352.180951 -569.998674 
L 353.140363 -574.766587 
L 353.951797 -579.534499 
L 354.643374 -584.302412 
L 355.24239 -589.070324 
L 355.773508 -593.838237 
L 356.257438 -598.606149 
L 356.710147 -603.374062 
L 357.14261 -608.141974 
L 357.561032 -612.909887 
L 357.967463 -617.677799 
L 358.360686 -622.445712 
L 358.737254 -627.213624 
L 359.092548 -631.981537 
L 359.421752 -636.749449 
L 359.720643 -641.517362 
L 359.986164 -646.285274 
L 360.216735 -651.053187 
L 360.41233 -655.821099 
L 360.574354 -660.589012 
L 360.705381 -665.356924 
L 360.808808 -670.124837 
L 361.366192 -670.124837 
L 361.366192 -670.124837 
L 361.469619 -665.356924 
L 361.600646 -660.589012 
L 361.76267 -655.821099 
L 361.958265 -651.053187 
L 362.188836 -646.285274 
L 362.454357 -641.517362 
L 362.753248 -636.749449 
L 363.082452 -631.981537 
L 363.437746 -627.213624 
L 363.814314 -622.445712 
L 364.207537 -617.677799 
L 364.613968 -612.909887 
L 365.03239 -608.141974 
L 365.464853 -603.374062 
L 365.917562 -598.606149 
L 366.401492 -593.838237 
L 366.93261 -589.070324 
L 367.531626 -584.302412 
L 368.223203 -579.534499 
L 369.034637 -574.766587 
L 369.994049 -569.998674 
L 371.128183 -565.230762 
L 372.459973 -560.462849 
L 374.006068 -555.694937 
L 375.77453 -550.927025 
L 377.762901 -546.159112 
L 379.956868 -541.3912 
L 382.329641 -536.623287 
L 384.842193 -531.855375 
L 387.444392 -527.087462 
L 390.077052 -522.31955 
L 392.674831 -517.551637 
L 395.169875 -512.783725 
L 397.496008 -508.015812 
L 399.593184 -503.2479 
L 401.411849 -498.479987 
L 402.916747 -493.712075 
L 404.089741 -488.944162 
L 404.931194 -484.17625 
L 405.459628 -479.408337 
L 405.709536 -474.640425 
L 405.7275 -469.872512 
L 405.566989 -465.1046 
L 405.282452 -460.336687 
L 404.923408 -455.568775 
L 404.52928 -450.800862 
L 404.125578 -446.03295 
L 403.721874 -441.265037 
L 403.311726 -436.497125 
L 402.8745 -431.729212 
L 402.378768 -426.9613 
L 401.786855 -422.193387 
L 401.059975 -417.425475 
L 400.163384 -412.657562 
L 399.071027 -407.88965 
L 397.769185 -403.121738 
L 396.258791 -398.353825 
L 394.55618 -393.585913 
L 392.692213 -388.818 
L 390.709907 -384.050088 
L 388.660836 -379.282175 
L 386.600722 -374.514263 
L 384.584737 -369.74635 
L 382.663031 -364.978438 
L 380.876977 -360.210525 
L 379.256503 -355.442613 
L 377.818727 -350.6747 
L 376.567919 -345.906788 
L 375.496668 -341.138875 
L 374.587995 -336.370963 
L 373.818044 -331.60305 
L 373.159017 -326.835138 
L 372.581987 -322.067225 
L 372.059339 -317.299313 
L 371.566658 -312.5314 
L 371.083975 -307.763488 
L 370.596384 -302.995575 
L 370.094105 -298.227663 
L 369.572102 -293.45975 
L 369.029399 -288.691838 
L 368.468236 -283.923925 
L 367.893189 -279.156013 
L 367.31035 -274.3881 
L 366.726627 -269.620188 
L 366.149209 -264.852275 
L 365.585163 -260.084363 
L 365.041168 -255.31645 
L 364.52332 -250.548538 
L 364.036991 -245.780626 
L 363.586697 -241.012713 
L 363.17597 -236.244801 
L 362.807244 -231.476888 
L 362.481759 -226.708976 
L 362.199524 -221.941063 
L 361.959347 -217.173151 
L 361.758937 -212.405238 
L 361.595097 -207.637326 
L 361.463956 -202.869413 
L 361.361249 -198.101501 
z
" style="stroke: #3d3d3d; stroke-opacity: 0.5"/>
    </defs>
    <g clip-path="url(#p1fd75bb498)">
     <use xlink:href="#m8954d50ca7" x="0" y="707.825675" style="fill: #c03d3e; fill-opacity: 0.5; stroke: #3d3d3d; stroke-opacity: 0.5"/>
    </g>
   </g>
   <g id="PolyCollection_4">
    <defs>
     <path id="m6fd127b757" d="M 472.900172 -183.863738 
L 472.474828 -183.863738 
L 472.399543 -188.828035 
L 472.306158 -193.792333 
L 472.193289 -198.75663 
L 472.06026 -203.720928 
L 471.907164 -208.685225 
L 471.734782 -213.649522 
L 471.544308 -218.61382 
L 471.336916 -223.578117 
L 471.11319 -228.542415 
L 470.872525 -233.506712 
L 470.612622 -238.471009 
L 470.329219 -243.435307 
L 470.016188 -248.399604 
L 469.66606 -253.363902 
L 469.270973 -258.328199 
L 468.823937 -263.292496 
L 468.320213 -268.256794 
L 467.758543 -273.221091 
L 467.141958 -278.185389 
L 466.477943 -283.149686 
L 465.77782 -288.113983 
L 465.055395 -293.078281 
L 464.325036 -298.042578 
L 463.599488 -303.006876 
L 462.887821 -307.971173 
L 462.19388 -312.935471 
L 461.515525 -317.899768 
L 460.844807 -322.864065 
L 460.169049 -327.828363 
L 459.472601 -332.79266 
L 458.738965 -337.756958 
L 457.952877 -342.721255 
L 457.102012 -347.685552 
L 456.17803 -352.64985 
L 455.176845 -357.614147 
L 454.098155 -362.578445 
L 452.94437 -367.542742 
L 451.71922 -372.507039 
L 450.426356 -377.471337 
L 449.06825 -382.435634 
L 447.64568 -387.399932 
L 446.157983 -392.364229 
L 444.604155 -397.328526 
L 442.98471 -402.292824 
L 441.304098 -407.257121 
L 439.573306 -412.221419 
L 437.812217 -417.185716 
L 436.051224 -422.150014 
L 434.331708 -427.114311 
L 432.705054 -432.078608 
L 431.230152 -437.042906 
L 429.969506 -442.007203 
L 428.984358 -446.971501 
L 428.329364 -451.935798 
L 428.0475 -456.900095 
L 428.165859 -461.864393 
L 428.692878 -466.82869 
L 429.617371 -471.792988 
L 430.909477 -476.757285 
L 432.523398 -481.721582 
L 434.401527 -486.68588 
L 436.479443 -491.650177 
L 438.691106 -496.614475 
L 440.973632 -501.578772 
L 443.27109 -506.543069 
L 445.536961 -511.507367 
L 447.73513 -516.471664 
L 449.839485 -521.435962 
L 451.832457 -526.400259 
L 453.702931 -531.364557 
L 455.444047 -536.328854 
L 457.05135 -541.293151 
L 458.521629 -546.257449 
L 459.852577 -551.221746 
L 461.043221 -556.186044 
L 462.094876 -561.150341 
L 463.012263 -566.114638 
L 463.804409 -571.078936 
L 464.484995 -576.043233 
L 465.071965 -581.007531 
L 465.586364 -585.971828 
L 466.050575 -590.936125 
L 466.486204 -595.900423 
L 466.912008 -600.86472 
L 467.342175 -605.829018 
L 467.78524 -610.793315 
L 468.243781 -615.757612 
L 468.714885 -620.72191 
L 469.191261 -625.686207 
L 469.662769 -630.650505 
L 470.118111 -635.614802 
L 470.546406 -640.5791 
L 470.938474 -645.543397 
L 471.287679 -650.507694 
L 471.590319 -655.471992 
L 471.845587 -660.436289 
L 472.055197 -665.400587 
L 472.222815 -670.364884 
L 472.353387 -675.329181 
L 473.021613 -675.329181 
L 473.021613 -675.329181 
L 473.152185 -670.364884 
L 473.319803 -665.400587 
L 473.529413 -660.436289 
L 473.784681 -655.471992 
L 474.087321 -650.507694 
L 474.436526 -645.543397 
L 474.828594 -640.5791 
L 475.256889 -635.614802 
L 475.712231 -630.650505 
L 476.183739 -625.686207 
L 476.660115 -620.72191 
L 477.131219 -615.757612 
L 477.58976 -610.793315 
L 478.032825 -605.829018 
L 478.462992 -600.86472 
L 478.888796 -595.900423 
L 479.324425 -590.936125 
L 479.788636 -585.971828 
L 480.303035 -581.007531 
L 480.890005 -576.043233 
L 481.570591 -571.078936 
L 482.362737 -566.114638 
L 483.280124 -561.150341 
L 484.331779 -556.186044 
L 485.522423 -551.221746 
L 486.853371 -546.257449 
L 488.32365 -541.293151 
L 489.930953 -536.328854 
L 491.672069 -531.364557 
L 493.542543 -526.400259 
L 495.535515 -521.435962 
L 497.63987 -516.471664 
L 499.838039 -511.507367 
L 502.10391 -506.543069 
L 504.401368 -501.578772 
L 506.683894 -496.614475 
L 508.895557 -491.650177 
L 510.973473 -486.68588 
L 512.851602 -481.721582 
L 514.465523 -476.757285 
L 515.757629 -471.792988 
L 516.682122 -466.82869 
L 517.209141 -461.864393 
L 517.3275 -456.900095 
L 517.045636 -451.935798 
L 516.390642 -446.971501 
L 515.405494 -442.007203 
L 514.144848 -437.042906 
L 512.669946 -432.078608 
L 511.043292 -427.114311 
L 509.323776 -422.150014 
L 507.562783 -417.185716 
L 505.801694 -412.221419 
L 504.070902 -407.257121 
L 502.39029 -402.292824 
L 500.770845 -397.328526 
L 499.217017 -392.364229 
L 497.72932 -387.399932 
L 496.30675 -382.435634 
L 494.948644 -377.471337 
L 493.65578 -372.507039 
L 492.43063 -367.542742 
L 491.276845 -362.578445 
L 490.198155 -357.614147 
L 489.19697 -352.64985 
L 488.272988 -347.685552 
L 487.422123 -342.721255 
L 486.636035 -337.756958 
L 485.902399 -332.79266 
L 485.205951 -327.828363 
L 484.530193 -322.864065 
L 483.859475 -317.899768 
L 483.18112 -312.935471 
L 482.487179 -307.971173 
L 481.775512 -303.006876 
L 481.049964 -298.042578 
L 480.319605 -293.078281 
L 479.59718 -288.113983 
L 478.897057 -283.149686 
L 478.233042 -278.185389 
L 477.616457 -273.221091 
L 477.054787 -268.256794 
L 476.551063 -263.292496 
L 476.104027 -258.328199 
L 475.70894 -253.363902 
L 475.358812 -248.399604 
L 475.045781 -243.435307 
L 474.762378 -238.471009 
L 474.502475 -233.506712 
L 474.26181 -228.542415 
L 474.038084 -223.578117 
L 473.830692 -218.61382 
L 473.640218 -213.649522 
L 473.467836 -208.685225 
L 473.31474 -203.720928 
L 473.181711 -198.75663 
L 473.068842 -193.792333 
L 472.975457 -188.828035 
L 472.900172 -183.863738 
z
" style="stroke: #3d3d3d; stroke-opacity: 0.5"/>
    </defs>
    <g clip-path="url(#p1fd75bb498)">
     <use xlink:href="#m6fd127b757" x="0" y="707.825675" style="fill: #9372b2; fill-opacity: 0.5; stroke: #3d3d3d; stroke-opacity: 0.5"/>
    </g>
   </g>
   <g id="PolyCollection_5">
    <defs>
     <path id="mceb53dcb3b" d="M 584.578477 -202.452783 
L 583.996523 -202.452783 
L 583.886589 -207.230287 
L 583.745156 -212.007791 
L 583.566816 -216.785295 
L 583.346297 -221.562799 
L 583.078765 -226.340303 
L 582.760119 -231.117807 
L 582.387276 -235.895311 
L 581.958398 -240.672815 
L 581.473053 -245.450319 
L 580.932308 -250.227823 
L 580.338736 -255.005326 
L 579.696367 -259.78283 
L 579.01058 -264.560334 
L 578.287956 -269.337838 
L 577.536082 -274.115342 
L 576.763312 -278.892846 
L 575.978441 -283.67035 
L 575.190286 -288.447854 
L 574.40713 -293.225358 
L 573.636039 -298.002862 
L 572.882046 -302.780366 
L 572.147286 -307.55787 
L 571.430154 -312.335374 
L 570.724627 -317.112878 
L 570.019896 -321.890382 
L 569.300445 -326.667886 
L 568.546691 -331.44539 
L 567.736226 -336.222894 
L 566.845617 -341.000398 
L 565.852643 -345.777902 
L 564.738725 -350.555406 
L 563.491284 -355.33291 
L 562.105694 -360.110414 
L 560.586561 -364.887918 
L 558.948089 -369.665421 
L 557.213463 -374.442925 
L 555.41327 -379.220429 
L 553.583165 -383.997933 
L 551.761087 -388.775437 
L 549.984402 -393.552941 
L 548.287371 -398.330445 
L 546.699277 -403.107949 
L 545.243408 -407.885453 
L 543.936973 -412.662957 
L 542.791844 -417.440461 
L 541.815863 -422.217965 
L 541.014426 -426.995469 
L 540.391962 -431.772973 
L 539.953044 -436.550477 
L 539.702932 -441.327981 
L 539.6475 -446.105485 
L 539.792649 -450.882989 
L 540.143364 -455.660493 
L 540.702679 -460.437997 
L 541.470748 -465.215501 
L 542.444208 -469.993005 
L 543.615878 -474.770509 
L 544.974792 -479.548013 
L 546.50645 -484.325517 
L 548.19317 -489.10302 
L 550.014421 -493.880524 
L 551.947072 -498.658028 
L 553.965562 -503.435532 
L 556.042056 -508.213036 
L 558.146704 -512.99054 
L 560.248106 -517.768044 
L 562.314086 -522.545548 
L 564.312778 -527.323052 
L 566.214007 -532.100556 
L 567.990825 -536.87806 
L 569.621063 -541.655564 
L 571.08871 -546.433068 
L 572.384933 -551.210572 
L 573.508621 -555.988076 
L 574.466344 -560.76558 
L 575.271714 -565.543084 
L 575.944187 -570.320588 
L 576.507415 -575.098092 
L 576.987293 -579.875596 
L 577.409896 -584.6531 
L 577.799516 -589.430604 
L 578.176959 -594.208108 
L 578.558291 -598.985612 
L 578.954112 -603.763115 
L 579.369409 -608.540619 
L 579.803943 -613.318123 
L 580.253099 -618.095627 
L 580.709041 -622.873131 
L 581.162027 -627.650635 
L 581.601718 -632.428139 
L 582.01834 -637.205643 
L 582.403598 -641.983147 
L 582.751285 -646.760651 
L 583.057571 -651.538155 
L 583.321005 -656.315659 
L 583.542278 -661.093163 
L 583.723826 -665.870667 
L 583.869357 -670.648171 
L 583.983352 -675.425675 
L 584.591648 -675.425675 
L 584.591648 -675.425675 
L 584.705643 -670.648171 
L 584.851174 -665.870667 
L 585.032722 -661.093163 
L 585.253995 -656.315659 
L 585.517429 -651.538155 
L 585.823715 -646.760651 
L 586.171402 -641.983147 
L 586.55666 -637.205643 
L 586.973282 -632.428139 
L 587.412973 -627.650635 
L 587.865959 -622.873131 
L 588.321901 -618.095627 
L 588.771057 -613.318123 
L 589.205591 -608.540619 
L 589.620888 -603.763115 
L 590.016709 -598.985612 
L 590.398041 -594.208108 
L 590.775484 -589.430604 
L 591.165104 -584.6531 
L 591.587707 -579.875596 
L 592.067585 -575.098092 
L 592.630813 -570.320588 
L 593.303286 -565.543084 
L 594.108656 -560.76558 
L 595.066379 -555.988076 
L 596.190067 -551.210572 
L 597.48629 -546.433068 
L 598.953937 -541.655564 
L 600.584175 -536.87806 
L 602.360993 -532.100556 
L 604.262222 -527.323052 
L 606.260914 -522.545548 
L 608.326894 -517.768044 
L 610.428296 -512.99054 
L 612.532944 -508.213036 
L 614.609438 -503.435532 
L 616.627928 -498.658028 
L 618.560579 -493.880524 
L 620.38183 -489.10302 
L 622.06855 -484.325517 
L 623.600208 -479.548013 
L 624.959122 -474.770509 
L 626.130792 -469.993005 
L 627.104252 -465.215501 
L 627.872321 -460.437997 
L 628.431636 -455.660493 
L 628.782351 -450.882989 
L 628.9275 -446.105485 
L 628.872068 -441.327981 
L 628.621956 -436.550477 
L 628.183038 -431.772973 
L 627.560574 -426.995469 
L 626.759137 -422.217965 
L 625.783156 -417.440461 
L 624.638027 -412.662957 
L 623.331592 -407.885453 
L 621.875723 -403.107949 
L 620.287629 -398.330445 
L 618.590598 -393.552941 
L 616.813913 -388.775437 
L 614.991835 -383.997933 
L 613.16173 -379.220429 
L 611.361537 -374.442925 
L 609.626911 -369.665421 
L 607.988439 -364.887918 
L 606.469306 -360.110414 
L 605.083716 -355.33291 
L 603.836275 -350.555406 
L 602.722357 -345.777902 
L 601.729383 -341.000398 
L 600.838774 -336.222894 
L 600.028309 -331.44539 
L 599.274555 -326.667886 
L 598.555104 -321.890382 
L 597.850373 -317.112878 
L 597.144846 -312.335374 
L 596.427714 -307.55787 
L 595.692954 -302.780366 
L 594.938961 -298.002862 
L 594.16787 -293.225358 
L 593.384714 -288.447854 
L 592.596559 -283.67035 
L 591.811688 -278.892846 
L 591.038918 -274.115342 
L 590.287044 -269.337838 
L 589.56442 -264.560334 
L 588.878633 -259.78283 
L 588.236264 -255.005326 
L 587.642692 -250.227823 
L 587.101947 -245.450319 
L 586.616602 -240.672815 
L 586.187724 -235.895311 
L 585.814881 -231.117807 
L 585.496235 -226.340303 
L 585.228703 -221.562799 
L 585.008184 -216.785295 
L 584.829844 -212.007791 
L 584.688411 -207.230287 
L 584.578477 -202.452783 
z
" style="stroke: #3d3d3d; stroke-opacity: 0.5"/>
    </defs>
    <g clip-path="url(#p1fd75bb498)">
     <use xlink:href="#mceb53dcb3b" x="0" y="707.825675" style="fill: #845b53; fill-opacity: 0.5; stroke: #3d3d3d; stroke-opacity: 0.5"/>
    </g>
   </g>
   <g id="PolyCollection_6">
    <defs>
     <path id="m7afc54b02c" d="M 696.381628 -237.040817 
L 695.393372 -237.040817 
L 695.218379 -241.417161 
L 694.998959 -245.793506 
L 694.730261 -250.169851 
L 694.408999 -254.546195 
L 694.034087 -258.92254 
L 693.607175 -263.298885 
L 693.132974 -267.67523 
L 692.61928 -272.051574 
L 692.076626 -276.427919 
L 691.517541 -280.804264 
L 690.955439 -285.180608 
L 690.403255 -289.556953 
L 689.871973 -293.933298 
L 689.369246 -298.309642 
L 688.898309 -302.685987 
L 688.457358 -307.062332 
L 688.0395 -311.438676 
L 687.633304 -315.815021 
L 687.223869 -320.191366 
L 686.794248 -324.56771 
L 686.326999 -328.944055 
L 685.805624 -333.3204 
L 685.215672 -337.696745 
L 684.545374 -342.073089 
L 683.785742 -346.449434 
L 682.930206 -350.825779 
L 681.973935 -355.202123 
L 680.913061 -359.578468 
L 679.744032 -363.954813 
L 678.463306 -368.331157 
L 677.067527 -372.707502 
L 675.554211 -377.083847 
L 673.922897 -381.460191 
L 672.1766 -385.836536 
L 670.323359 -390.212881 
L 668.377629 -394.589226 
L 666.36128 -398.96557 
L 664.304018 -403.341915 
L 662.24311 -407.71826 
L 660.222379 -412.094604 
L 658.290524 -416.470949 
L 656.4989 -420.847294 
L 654.898937 -425.223638 
L 653.53941 -429.599983 
L 652.463773 -433.976328 
L 651.707755 -438.352672 
L 651.297375 -442.729017 
L 651.2475 -447.105362 
L 651.56102 -451.481707 
L 652.228692 -455.858051 
L 653.229648 -460.234396 
L 654.532556 -464.610741 
L 656.097351 -468.987085 
L 657.877452 -473.36343 
L 659.822296 -477.739775 
L 661.880019 -482.116119 
L 664.000035 -486.492464 
L 666.135328 -490.868809 
L 668.244231 -495.245153 
L 670.291564 -499.621498 
L 672.249093 -503.997843 
L 674.095348 -508.374188 
L 675.814944 -512.750532 
L 677.397618 -517.126877 
L 678.837203 -521.503222 
L 680.130762 -525.879566 
L 681.278008 -530.255911 
L 682.281089 -534.632256 
L 683.144675 -539.0086 
L 683.876238 -543.384945 
L 684.486357 -547.76129 
L 684.988873 -552.137634 
L 685.400748 -556.513979 
L 685.741568 -560.890324 
L 686.032677 -565.266668 
L 686.296025 -569.643013 
L 686.552862 -574.019358 
L 686.822416 -578.395703 
L 687.120735 -582.772047 
L 687.459787 -587.148392 
L 687.846924 -591.524737 
L 688.284713 -595.901081 
L 688.771154 -600.277426 
L 689.300199 -604.653771 
L 689.862527 -609.030115 
L 690.446474 -613.40646 
L 691.039036 -617.782805 
L 691.626869 -622.159149 
L 692.197206 -626.535494 
L 692.738638 -630.911839 
L 693.241721 -635.288184 
L 693.699361 -639.664528 
L 694.107 -644.040873 
L 694.462584 -648.417218 
L 694.766356 -652.793562 
L 695.020512 -657.169907 
L 695.228767 -661.546252 
L 695.395886 -665.922596 
L 695.527219 -670.298941 
L 696.247781 -670.298941 
L 696.247781 -670.298941 
L 696.379114 -665.922596 
L 696.546233 -661.546252 
L 696.754488 -657.169907 
L 697.008644 -652.793562 
L 697.312416 -648.417218 
L 697.668 -644.040873 
L 698.075639 -639.664528 
L 698.533279 -635.288184 
L 699.036362 -630.911839 
L 699.577794 -626.535494 
L 700.148131 -622.159149 
L 700.735964 -617.782805 
L 701.328526 -613.40646 
L 701.912473 -609.030115 
L 702.474801 -604.653771 
L 703.003846 -600.277426 
L 703.490287 -595.901081 
L 703.928076 -591.524737 
L 704.315213 -587.148392 
L 704.654265 -582.772047 
L 704.952584 -578.395703 
L 705.222138 -574.019358 
L 705.478975 -569.643013 
L 705.742323 -565.266668 
L 706.033432 -560.890324 
L 706.374252 -556.513979 
L 706.786127 -552.137634 
L 707.288643 -547.76129 
L 707.898762 -543.384945 
L 708.630325 -539.0086 
L 709.493911 -534.632256 
L 710.496992 -530.255911 
L 711.644238 -525.879566 
L 712.937797 -521.503222 
L 714.377382 -517.126877 
L 715.960056 -512.750532 
L 717.679652 -508.374188 
L 719.525907 -503.997843 
L 721.483436 -499.621498 
L 723.530769 -495.245153 
L 725.639672 -490.868809 
L 727.774965 -486.492464 
L 729.894981 -482.116119 
L 731.952704 -477.739775 
L 733.897548 -473.36343 
L 735.677649 -468.987085 
L 737.242444 -464.610741 
L 738.545352 -460.234396 
L 739.546308 -455.858051 
L 740.21398 -451.481707 
L 740.5275 -447.105362 
L 740.477625 -442.729017 
L 740.067245 -438.352672 
L 739.311227 -433.976328 
L 738.23559 -429.599983 
L 736.876063 -425.223638 
L 735.2761 -420.847294 
L 733.484476 -416.470949 
L 731.552621 -412.094604 
L 729.53189 -407.71826 
L 727.470982 -403.341915 
L 725.41372 -398.96557 
L 723.397371 -394.589226 
L 721.451641 -390.212881 
L 719.5984 -385.836536 
L 717.852103 -381.460191 
L 716.220789 -377.083847 
L 714.707473 -372.707502 
L 713.311694 -368.331157 
L 712.030968 -363.954813 
L 710.861939 -359.578468 
L 709.801065 -355.202123 
L 708.844794 -350.825779 
L 707.989258 -346.449434 
L 707.229626 -342.073089 
L 706.559328 -337.696745 
L 705.969376 -333.3204 
L 705.448001 -328.944055 
L 704.980752 -324.56771 
L 704.551131 -320.191366 
L 704.141696 -315.815021 
L 703.7355 -311.438676 
L 703.317642 -307.062332 
L 702.876691 -302.685987 
L 702.405754 -298.309642 
L 701.903027 -293.933298 
L 701.371745 -289.556953 
L 700.819561 -285.180608 
L 700.257459 -280.804264 
L 699.698374 -276.427919 
L 699.15572 -272.051574 
L 698.642026 -267.67523 
L 698.167825 -263.298885 
L 697.740913 -258.92254 
L 697.366001 -254.546195 
L 697.044739 -250.169851 
L 696.776041 -245.793506 
L 696.556621 -241.417161 
L 696.381628 -237.040817 
z
" style="stroke: #3d3d3d; stroke-opacity: 0.5"/>
    </defs>
    <g clip-path="url(#p1fd75bb498)">
     <use xlink:href="#m7afc54b02c" x="0" y="707.825675" style="fill: #e1812c; fill-opacity: 0.5; stroke: #3d3d3d; stroke-opacity: 0.5"/>
    </g>
   </g>
   <g id="PolyCollection_7">
    <defs>
     <path id="m3300b5ccf3" d="M 807.71459 -191.779896 
L 807.26041 -191.779896 
L 807.177778 -196.575812 
L 807.073762 -201.371727 
L 806.945871 -206.167642 
L 806.792174 -210.963558 
L 806.611484 -215.759473 
L 806.403451 -220.555389 
L 806.168572 -225.351304 
L 805.908091 -230.147219 
L 805.623796 -234.943135 
L 805.31776 -239.73905 
L 804.992063 -244.534966 
L 804.648533 -249.330881 
L 804.288563 -254.126796 
L 803.913004 -258.922712 
L 803.522151 -263.718627 
L 803.115773 -268.514543 
L 802.693165 -273.310458 
L 802.25318 -278.106374 
L 801.794192 -282.902289 
L 801.314005 -287.698204 
L 800.809685 -292.49412 
L 800.277367 -297.290035 
L 799.712045 -302.085951 
L 799.107411 -306.881866 
L 798.455764 -311.677781 
L 797.748047 -316.473697 
L 796.974057 -321.269612 
L 796.122883 -326.065528 
L 795.183597 -330.861443 
L 794.146229 -335.657358 
L 793.002961 -340.453274 
L 791.74945 -345.249189 
L 790.386074 -350.045105 
L 788.91888 -354.84102 
L 787.35996 -359.636935 
L 785.727059 -364.432851 
L 784.042323 -369.228766 
L 782.330272 -374.024682 
L 780.615256 -378.820597 
L 778.918845 -383.616512 
L 777.257677 -388.412428 
L 775.642269 -393.208343 
L 774.077155 -398.004259 
L 772.562485 -402.800174 
L 771.096889 -407.59609 
L 769.681126 -412.392005 
L 768.321827 -417.18792 
L 767.034545 -421.983836 
L 765.845409 -426.779751 
L 764.790934 -431.575667 
L 763.915828 -436.371582 
L 763.269095 -441.167497 
L 762.898967 -445.963413 
L 762.8475 -450.759328 
L 763.145641 -455.555244 
L 763.80952 -460.351159 
L 764.838431 -465.147074 
L 766.214663 -469.94299 
L 767.905033 -474.738905 
L 769.863711 -479.534821 
L 772.035816 -484.330736 
L 774.361238 -489.126651 
L 776.778236 -493.922567 
L 779.226543 -498.718482 
L 781.649847 -503.514398 
L 783.997661 -508.310313 
L 786.226686 -513.106228 
L 788.301747 -517.902144 
L 790.196397 -522.698059 
L 791.893202 -527.493975 
L 793.383697 -532.28989 
L 794.667997 -537.085805 
L 795.754053 -541.881721 
L 796.656603 -546.677636 
L 797.395866 -551.473552 
L 797.996109 -556.269467 
L 798.48416 -561.065383 
L 798.887966 -565.861298 
L 799.235227 -570.657213 
L 799.552134 -575.453129 
L 799.862216 -580.249044 
L 800.185305 -585.04496 
L 800.536656 -589.840875 
L 800.926302 -594.63679 
L 801.358698 -599.432706 
L 801.832765 -604.228621 
L 802.34236 -609.024537 
L 802.877169 -613.820452 
L 803.423945 -618.616367 
L 803.967968 -623.412283 
L 804.494543 -628.208198 
L 804.990365 -633.004114 
L 805.444599 -637.800029 
L 805.849569 -642.595944 
L 806.201027 -647.39186 
L 806.498022 -652.187775 
L 806.74246 -656.983691 
L 806.938454 -661.779606 
L 807.091587 -666.575521 
L 807.883413 -666.575521 
L 807.883413 -666.575521 
L 808.036546 -661.779606 
L 808.23254 -656.983691 
L 808.476978 -652.187775 
L 808.773973 -647.39186 
L 809.125431 -642.595944 
L 809.530401 -637.800029 
L 809.984635 -633.004114 
L 810.480457 -628.208198 
L 811.007032 -623.412283 
L 811.551055 -618.616367 
L 812.097831 -613.820452 
L 812.63264 -609.024537 
L 813.142235 -604.228621 
L 813.616302 -599.432706 
L 814.048698 -594.63679 
L 814.438344 -589.840875 
L 814.789695 -585.04496 
L 815.112784 -580.249044 
L 815.422866 -575.453129 
L 815.739773 -570.657213 
L 816.087034 -565.861298 
L 816.49084 -561.065383 
L 816.978891 -556.269467 
L 817.579134 -551.473552 
L 818.318397 -546.677636 
L 819.220947 -541.881721 
L 820.307003 -537.085805 
L 821.591303 -532.28989 
L 823.081798 -527.493975 
L 824.778603 -522.698059 
L 826.673253 -517.902144 
L 828.748314 -513.106228 
L 830.977339 -508.310313 
L 833.325153 -503.514398 
L 835.748457 -498.718482 
L 838.196764 -493.922567 
L 840.613762 -489.126651 
L 842.939184 -484.330736 
L 845.111289 -479.534821 
L 847.069967 -474.738905 
L 848.760337 -469.94299 
L 850.136569 -465.147074 
L 851.16548 -460.351159 
L 851.829359 -455.555244 
L 852.1275 -450.759328 
L 852.076033 -445.963413 
L 851.705905 -441.167497 
L 851.059172 -436.371582 
L 850.184066 -431.575667 
L 849.129591 -426.779751 
L 847.940455 -421.983836 
L 846.653173 -417.18792 
L 845.293874 -412.392005 
L 843.878111 -407.59609 
L 842.412515 -402.800174 
L 840.897845 -398.004259 
L 839.332731 -393.208343 
L 837.717323 -388.412428 
L 836.056155 -383.616512 
L 834.359744 -378.820597 
L 832.644728 -374.024682 
L 830.932677 -369.228766 
L 829.247941 -364.432851 
L 827.61504 -359.636935 
L 826.05612 -354.84102 
L 824.588926 -350.045105 
L 823.22555 -345.249189 
L 821.972039 -340.453274 
L 820.828771 -335.657358 
L 819.791403 -330.861443 
L 818.852117 -326.065528 
L 818.000943 -321.269612 
L 817.226953 -316.473697 
L 816.519236 -311.677781 
L 815.867589 -306.881866 
L 815.262955 -302.085951 
L 814.697633 -297.290035 
L 814.165315 -292.49412 
L 813.660995 -287.698204 
L 813.180808 -282.902289 
L 812.72182 -278.106374 
L 812.281835 -273.310458 
L 811.859227 -268.514543 
L 811.452849 -263.718627 
L 811.061996 -258.922712 
L 810.686437 -254.126796 
L 810.326467 -249.330881 
L 809.982937 -244.534966 
L 809.65724 -239.73905 
L 809.351204 -234.943135 
L 809.066909 -230.147219 
L 808.806428 -225.351304 
L 808.571549 -220.555389 
L 808.363516 -215.759473 
L 808.182826 -210.963558 
L 808.029129 -206.167642 
L 807.901238 -201.371727 
L 807.797222 -196.575812 
L 807.71459 -191.779896 
z
" style="stroke: #3d3d3d; stroke-opacity: 0.5"/>
    </defs>
    <g clip-path="url(#p1fd75bb498)">
     <use xlink:href="#m3300b5ccf3" x="0" y="707.825675" style="fill: #3a923a; fill-opacity: 0.5; stroke: #3d3d3d; stroke-opacity: 0.5"/>
    </g>
   </g>
   <g id="line2d_8">
    <path d="M 137.8875 412.666511 
L 137.8875 118.42324 
" clip-path="url(#p1fd75bb498)" style="fill: none; stroke: #3d3d3d; stroke-width: 1.5; stroke-linecap: round"/>
   </g>
   <g id="line2d_9">
    <path d="M 137.8875 309.098701 
L 137.8875 227.444349 
" clip-path="url(#p1fd75bb498)" style="fill: none; stroke: #3d3d3d; stroke-width: 4.5; stroke-linecap: round"/>
   </g>
   <g id="line2d_10">
    <path d="M 137.8875 254.525906 
" clip-path="url(#p1fd75bb498)" style="fill: none; stroke: #3d3d3d; stroke-width: 1.5; stroke-linecap: round"/>
    <defs>
     <path id="m21fc6472fa" d="M 1.875 0 
L -1.875 -0 
" style="stroke: #ffffff; stroke-width: 0.9"/>
    </defs>
    <g clip-path="url(#p1fd75bb498)">
     <use xlink:href="#m21fc6472fa" x="137.8875" y="254.525906" style="fill: #ffffff; stroke: #ffffff; stroke-width: 0.9"/>
    </g>
   </g>
   <g id="line2d_11">
    <path d="M 249.4875 428.044407 
L 249.4875 172.964899 
" clip-path="url(#p1fd75bb498)" style="fill: none; stroke: #3d3d3d; stroke-width: 1.5; stroke-linecap: round"/>
   </g>
   <g id="line2d_12">
    <path d="M 249.4875 342.14153 
L 249.4875 269.22849 
" clip-path="url(#p1fd75bb498)" style="fill: none; stroke: #3d3d3d; stroke-width: 4.5; stroke-linecap: round"/>
   </g>
   <g id="line2d_13">
    <path d="M 249.4875 300.414142 
" clip-path="url(#p1fd75bb498)" style="fill: none; stroke: #3d3d3d; stroke-width: 1.5; stroke-linecap: round"/>
    <g clip-path="url(#p1fd75bb498)">
     <use xlink:href="#m21fc6472fa" x="249.4875" y="300.414142" style="fill: #ffffff; stroke: #ffffff; stroke-width: 0.9"/>
    </g>
   </g>
   <g id="line2d_14">
    <path d="M 361.0875 418.915377 
L 361.0875 99.914694 
" clip-path="url(#p1fd75bb498)" style="fill: none; stroke: #3d3d3d; stroke-width: 1.5; stroke-linecap: round"/>
   </g>
   <g id="line2d_15">
    <path d="M 361.0875 306.421061 
L 361.0875 219.669208 
" clip-path="url(#p1fd75bb498)" style="fill: none; stroke: #3d3d3d; stroke-width: 4.5; stroke-linecap: round"/>
   </g>
   <g id="line2d_16">
    <path d="M 361.0875 262.689372 
" clip-path="url(#p1fd75bb498)" style="fill: none; stroke: #3d3d3d; stroke-width: 1.5; stroke-linecap: round"/>
    <g clip-path="url(#p1fd75bb498)">
     <use xlink:href="#m21fc6472fa" x="361.0875" y="262.689372" style="fill: #ffffff; stroke: #ffffff; stroke-width: 0.9"/>
    </g>
   </g>
   <g id="line2d_17">
    <path d="M 472.6875 407.411301 
L 472.6875 96.660699 
" clip-path="url(#p1fd75bb498)" style="fill: none; stroke: #3d3d3d; stroke-width: 1.5; stroke-linecap: round"/>
   </g>
   <g id="line2d_18">
    <path d="M 472.6875 309.402336 
L 472.6875 223.374558 
" clip-path="url(#p1fd75bb498)" style="fill: none; stroke: #3d3d3d; stroke-width: 4.5; stroke-linecap: round"/>
   </g>
   <g id="line2d_19">
    <path d="M 472.6875 254.414686 
" clip-path="url(#p1fd75bb498)" style="fill: none; stroke: #3d3d3d; stroke-width: 1.5; stroke-linecap: round"/>
    <g clip-path="url(#p1fd75bb498)">
     <use xlink:href="#m21fc6472fa" x="472.6875" y="254.414686" style="fill: #ffffff; stroke: #ffffff; stroke-width: 0.9"/>
    </g>
   </g>
   <g id="line2d_20">
    <path d="M 584.2875 441.555466 
L 584.2875 96.217426 
" clip-path="url(#p1fd75bb498)" style="fill: none; stroke: #3d3d3d; stroke-width: 1.5; stroke-linecap: round"/>
   </g>
   <g id="line2d_21">
    <path d="M 584.2875 313.201225 
L 584.2875 224.034694 
" clip-path="url(#p1fd75bb498)" style="fill: none; stroke: #3d3d3d; stroke-width: 4.5; stroke-linecap: round"/>
   </g>
   <g id="line2d_22">
    <path d="M 584.2875 267.485899 
" clip-path="url(#p1fd75bb498)" style="fill: none; stroke: #3d3d3d; stroke-width: 1.5; stroke-linecap: round"/>
    <g clip-path="url(#p1fd75bb498)">
     <use xlink:href="#m21fc6472fa" x="584.2875" y="267.485899" style="fill: #ffffff; stroke: #ffffff; stroke-width: 0.9"/>
    </g>
   </g>
   <g id="line2d_23">
    <path d="M 695.8875 389.150343 
L 695.8875 134.103081 
" clip-path="url(#p1fd75bb498)" style="fill: none; stroke: #3d3d3d; stroke-width: 1.5; stroke-linecap: round"/>
   </g>
   <g id="line2d_24">
    <path d="M 695.8875 294.03779 
L 695.8875 229.613557 
" clip-path="url(#p1fd75bb498)" style="fill: none; stroke: #3d3d3d; stroke-width: 4.5; stroke-linecap: round"/>
   </g>
   <g id="line2d_25">
    <path d="M 695.8875 263.381381 
" clip-path="url(#p1fd75bb498)" style="fill: none; stroke: #3d3d3d; stroke-width: 1.5; stroke-linecap: round"/>
    <g clip-path="url(#p1fd75bb498)">
     <use xlink:href="#m21fc6472fa" x="695.8875" y="263.381381" style="fill: #ffffff; stroke: #ffffff; stroke-width: 0.9"/>
    </g>
   </g>
   <g id="line2d_26">
    <path d="M 807.4875 417.21168 
L 807.4875 112.241658 
" clip-path="url(#p1fd75bb498)" style="fill: none; stroke: #3d3d3d; stroke-width: 1.5; stroke-linecap: round"/>
   </g>
   <g id="line2d_27">
    <path d="M 807.4875 313.235666 
L 807.4875 230.891988 
" clip-path="url(#p1fd75bb498)" style="fill: none; stroke: #3d3d3d; stroke-width: 4.5; stroke-linecap: round"/>
   </g>
   <g id="line2d_28">
    <path d="M 807.4875 260.806729 
" clip-path="url(#p1fd75bb498)" style="fill: none; stroke: #3d3d3d; stroke-width: 1.5; stroke-linecap: round"/>
    <g clip-path="url(#p1fd75bb498)">
     <use xlink:href="#m21fc6472fa" x="807.4875" y="260.806729" style="fill: #ffffff; stroke: #ffffff; stroke-width: 0.9"/>
    </g>
   </g>
   <g id="patch_3">
    <path d="M 82.0875 561.6 
L 863.2875 561.6 
" style="fill: none; stroke: #cccccc; stroke-width: 0.8; stroke-linejoin: miter; stroke-linecap: square"/>
   </g>
  </g>
 </g>
 <defs>
  <clipPath id="p1fd75bb498">
   <rect x="82.0875" y="7.2" width="781.2" height="554.4"/>
  </clipPath>
 </defs>
</svg>
