<?xml version="1.0" encoding="utf-8" standalone="no"?>
<!DOCTYPE svg PUBLIC "-//W3C//DTD SVG 1.1//EN"
  "http://www.w3.org/Graphics/SVG/1.1/DTD/svg11.dtd">
<svg xmlns:xlink="http://www.w3.org/1999/xlink" width="861.923437pt" height="781.192969pt" viewBox="0 0 861.923437 781.192969" xmlns="http://www.w3.org/2000/svg" version="1.1">
 <metadata>
  <rdf:RDF xmlns:dc="http://purl.org/dc/elements/1.1/" xmlns:cc="http://creativecommons.org/ns#" xmlns:rdf="http://www.w3.org/1999/02/22-rdf-syntax-ns#">
   <cc:Work>
    <dc:type rdf:resource="http://purl.org/dc/dcmitype/StillImage"/>
    <dc:date>2023-12-03T01:59:27.295206</dc:date>
    <dc:format>image/svg+xml</dc:format>
    <dc:creator>
     <cc:Agent>
      <dc:title>Matplotlib v3.6.2, https://matplotlib.org/</dc:title>
     </cc:Agent>
    </dc:creator>
   </cc:Work>
  </rdf:RDF>
 </metadata>
 <defs>
  <style type="text/css">*{stroke-linejoin: round; stroke-linecap: butt}</style>
 </defs>
 <g id="figure_1">
  <g id="patch_1">
   <path d="M 0 781.192969 
L 861.923437 781.192969 
L 861.923437 0 
L 0 0 
L 0 781.192969 
z
" style="fill: none"/>
  </g>
  <g id="axes_1">
   <g id="patch_2">
    <path d="M 772.961719 375.297656 
C 772.961719 330.386628 764.115225 285.912302 746.928519 244.419922 
C 729.741812 202.927542 704.549131 165.22403 672.792238 133.467137 
C 641.035345 101.710244 603.331833 76.517563 561.839453 59.330856 
C 520.347073 42.14415 475.872747 33.297656 430.961719 33.297656 
C 386.05069 33.297656 341.576365 42.14415 300.083985 59.330856 
C 258.591605 76.517563 220.888092 101.710244 189.1312 133.467137 
C 157.374307 165.22403 132.181625 202.927542 114.994919 244.419922 
C 97.808212 285.912302 88.961719 330.386628 88.961719 375.297656 
C 88.961719 420.208685 97.808212 464.68301 114.994919 506.17539 
C 132.181625 547.66777 157.374307 585.371283 189.1312 617.128175 
C 220.888092 648.885068 258.591605 674.07775 300.083985 691.264456 
C 341.576365 708.451163 386.05069 717.297656 430.961719 717.297656 
C 475.872747 717.297656 520.347073 708.451163 561.839453 691.264456 
C 603.331833 674.07775 641.035345 648.885068 672.792238 617.128175 
C 704.549131 585.371283 729.741812 547.66777 746.928519 506.17539 
C 764.115225 464.68301 772.961719 420.208685 772.961719 375.297656 
M 430.961719 375.297656 
C 430.961719 375.297656 430.961719 375.297656 430.961719 375.297656 
C 430.961719 375.297656 430.961719 375.297656 430.961719 375.297656 
C 430.961719 375.297656 430.961719 375.297656 430.961719 375.297656 
C 430.961719 375.297656 430.961719 375.297656 430.961719 375.297656 
C 430.961719 375.297656 430.961719 375.297656 430.961719 375.297656 
C 430.961719 375.297656 430.961719 375.297656 430.961719 375.297656 
C 430.961719 375.297656 430.961719 375.297656 430.961719 375.297656 
C 430.961719 375.297656 430.961719 375.297656 430.961719 375.297656 
C 430.961719 375.297656 430.961719 375.297656 430.961719 375.297656 
C 430.961719 375.297656 430.961719 375.297656 430.961719 375.297656 
C 430.961719 375.297656 430.961719 375.297656 430.961719 375.297656 
C 430.961719 375.297656 430.961719 375.297656 430.961719 375.297656 
C 430.961719 375.297656 430.961719 375.297656 430.961719 375.297656 
C 430.961719 375.297656 430.961719 375.297656 430.961719 375.297656 
C 430.961719 375.297656 430.961719 375.297656 430.961719 375.297656 
C 430.961719 375.297656 430.961719 375.297656 430.961719 375.297656 
M 772.961719 375.297656 
L 772.961719 375.297656 
z
" style="fill: none"/>
   </g>
   <g id="matplotlib.axis_1">
    <g id="xtick_1">
     <g id="line2d_1">
      <path d="M 430.961719 375.297656 
L 430.961719 33.297656 
" clip-path="url(#p36616ae934)" style="fill: none; stroke: #000000; stroke-width: 0.5; stroke-linecap: square"/>
     </g>
     <g id="text_1">
      <!-- TM-Score -->
      <g transform="translate(373.026172 26.196094) scale(0.25 -0.25)">
       <defs>
        <path id="DejaVuSans-54" d="M -19 4666 
L 3928 4666 
L 3928 4134 
L 2272 4134 
L 2272 0 
L 1638 0 
L 1638 4134 
L -19 4134 
L -19 4666 
z
" transform="scale(0.015625)"/>
        <path id="DejaVuSans-4d" d="M 628 4666 
L 1569 4666 
L 2759 1491 
L 3956 4666 
L 4897 4666 
L 4897 0 
L 4281 0 
L 4281 4097 
L 3078 897 
L 2444 897 
L 1241 4097 
L 1241 0 
L 628 0 
L 628 4666 
z
" transform="scale(0.015625)"/>
        <path id="DejaVuSans-2d" d="M 313 2009 
L 1997 2009 
L 1997 1497 
L 313 1497 
L 313 2009 
z
" transform="scale(0.015625)"/>
        <path id="DejaVuSans-53" d="M 3425 4513 
L 3425 3897 
Q 3066 4069 2747 4153 
Q 2428 4238 2131 4238 
Q 1616 4238 1336 4038 
Q 1056 3838 1056 3469 
Q 1056 3159 1242 3001 
Q 1428 2844 1947 2747 
L 2328 2669 
Q 3034 2534 3370 2195 
Q 3706 1856 3706 1288 
Q 3706 609 3251 259 
Q 2797 -91 1919 -91 
Q 1588 -91 1214 -16 
Q 841 59 441 206 
L 441 856 
Q 825 641 1194 531 
Q 1563 422 1919 422 
Q 2459 422 2753 634 
Q 3047 847 3047 1241 
Q 3047 1584 2836 1778 
Q 2625 1972 2144 2069 
L 1759 2144 
Q 1053 2284 737 2584 
Q 422 2884 422 3419 
Q 422 4038 858 4394 
Q 1294 4750 2059 4750 
Q 2388 4750 2728 4690 
Q 3069 4631 3425 4513 
z
" transform="scale(0.015625)"/>
        <path id="DejaVuSans-63" d="M 3122 3366 
L 3122 2828 
Q 2878 2963 2633 3030 
Q 2388 3097 2138 3097 
Q 1578 3097 1268 2742 
Q 959 2388 959 1747 
Q 959 1106 1268 751 
Q 1578 397 2138 397 
Q 2388 397 2633 464 
Q 2878 531 3122 666 
L 3122 134 
Q 2881 22 2623 -34 
Q 2366 -91 2075 -91 
Q 1284 -91 818 406 
Q 353 903 353 1747 
Q 353 2603 823 3093 
Q 1294 3584 2113 3584 
Q 2378 3584 2631 3529 
Q 2884 3475 3122 3366 
z
" transform="scale(0.015625)"/>
        <path id="DejaVuSans-6f" d="M 1959 3097 
Q 1497 3097 1228 2736 
Q 959 2375 959 1747 
Q 959 1119 1226 758 
Q 1494 397 1959 397 
Q 2419 397 2687 759 
Q 2956 1122 2956 1747 
Q 2956 2369 2687 2733 
Q 2419 3097 1959 3097 
z
M 1959 3584 
Q 2709 3584 3137 3096 
Q 3566 2609 3566 1747 
Q 3566 888 3137 398 
Q 2709 -91 1959 -91 
Q 1206 -91 779 398 
Q 353 888 353 1747 
Q 353 2609 779 3096 
Q 1206 3584 1959 3584 
z
" transform="scale(0.015625)"/>
        <path id="DejaVuSans-72" d="M 2631 2963 
Q 2534 3019 2420 3045 
Q 2306 3072 2169 3072 
Q 1681 3072 1420 2755 
Q 1159 2438 1159 1844 
L 1159 0 
L 581 0 
L 581 3500 
L 1159 3500 
L 1159 2956 
Q 1341 3275 1631 3429 
Q 1922 3584 2338 3584 
Q 2397 3584 2469 3576 
Q 2541 3569 2628 3553 
L 2631 2963 
z
" transform="scale(0.015625)"/>
        <path id="DejaVuSans-65" d="M 3597 1894 
L 3597 1613 
L 953 1613 
Q 991 1019 1311 708 
Q 1631 397 2203 397 
Q 2534 397 2845 478 
Q 3156 559 3463 722 
L 3463 178 
Q 3153 47 2828 -22 
Q 2503 -91 2169 -91 
Q 1331 -91 842 396 
Q 353 884 353 1716 
Q 353 2575 817 3079 
Q 1281 3584 2069 3584 
Q 2775 3584 3186 3129 
Q 3597 2675 3597 1894 
z
M 3022 2063 
Q 3016 2534 2758 2815 
Q 2500 3097 2075 3097 
Q 1594 3097 1305 2825 
Q 1016 2553 972 2059 
L 3022 2063 
z
" transform="scale(0.015625)"/>
       </defs>
       <use xlink:href="#DejaVuSans-54"/>
       <use xlink:href="#DejaVuSans-4d" x="61.083984"/>
       <use xlink:href="#DejaVuSans-2d" x="147.363281"/>
       <use xlink:href="#DejaVuSans-53" x="183.447266"/>
       <use xlink:href="#DejaVuSans-63" x="246.923828"/>
       <use xlink:href="#DejaVuSans-6f" x="301.904297"/>
       <use xlink:href="#DejaVuSans-72" x="363.085938"/>
       <use xlink:href="#DejaVuSans-65" x="401.949219"/>
      </g>
     </g>
    </g>
    <g id="xtick_2">
     <g id="line2d_2">
      <path d="M 430.961719 375.297656 
L 163.575352 162.064144 
" clip-path="url(#p36616ae934)" style="fill: none; stroke: #000000; stroke-width: 0.5; stroke-linecap: square"/>
     </g>
     <g id="text_2">
      <!-- Side-chain RMSD -->
      <g transform="translate(46.231273 160.233724) scale(0.25 -0.25)">
       <defs>
        <path id="DejaVuSans-69" d="M 603 3500 
L 1178 3500 
L 1178 0 
L 603 0 
L 603 3500 
z
M 603 4863 
L 1178 4863 
L 1178 4134 
L 603 4134 
L 603 4863 
z
" transform="scale(0.015625)"/>
        <path id="DejaVuSans-64" d="M 2906 2969 
L 2906 4863 
L 3481 4863 
L 3481 0 
L 2906 0 
L 2906 525 
Q 2725 213 2448 61 
Q 2172 -91 1784 -91 
Q 1150 -91 751 415 
Q 353 922 353 1747 
Q 353 2572 751 3078 
Q 1150 3584 1784 3584 
Q 2172 3584 2448 3432 
Q 2725 3281 2906 2969 
z
M 947 1747 
Q 947 1113 1208 752 
Q 1469 391 1925 391 
Q 2381 391 2643 752 
Q 2906 1113 2906 1747 
Q 2906 2381 2643 2742 
Q 2381 3103 1925 3103 
Q 1469 3103 1208 2742 
Q 947 2381 947 1747 
z
" transform="scale(0.015625)"/>
        <path id="DejaVuSans-68" d="M 3513 2113 
L 3513 0 
L 2938 0 
L 2938 2094 
Q 2938 2591 2744 2837 
Q 2550 3084 2163 3084 
Q 1697 3084 1428 2787 
Q 1159 2491 1159 1978 
L 1159 0 
L 581 0 
L 581 4863 
L 1159 4863 
L 1159 2956 
Q 1366 3272 1645 3428 
Q 1925 3584 2291 3584 
Q 2894 3584 3203 3211 
Q 3513 2838 3513 2113 
z
" transform="scale(0.015625)"/>
        <path id="DejaVuSans-61" d="M 2194 1759 
Q 1497 1759 1228 1600 
Q 959 1441 959 1056 
Q 959 750 1161 570 
Q 1363 391 1709 391 
Q 2188 391 2477 730 
Q 2766 1069 2766 1631 
L 2766 1759 
L 2194 1759 
z
M 3341 1997 
L 3341 0 
L 2766 0 
L 2766 531 
Q 2569 213 2275 61 
Q 1981 -91 1556 -91 
Q 1019 -91 701 211 
Q 384 513 384 1019 
Q 384 1609 779 1909 
Q 1175 2209 1959 2209 
L 2766 2209 
L 2766 2266 
Q 2766 2663 2505 2880 
Q 2244 3097 1772 3097 
Q 1472 3097 1187 3025 
Q 903 2953 641 2809 
L 641 3341 
Q 956 3463 1253 3523 
Q 1550 3584 1831 3584 
Q 2591 3584 2966 3190 
Q 3341 2797 3341 1997 
z
" transform="scale(0.015625)"/>
        <path id="DejaVuSans-6e" d="M 3513 2113 
L 3513 0 
L 2938 0 
L 2938 2094 
Q 2938 2591 2744 2837 
Q 2550 3084 2163 3084 
Q 1697 3084 1428 2787 
Q 1159 2491 1159 1978 
L 1159 0 
L 581 0 
L 581 3500 
L 1159 3500 
L 1159 2956 
Q 1366 3272 1645 3428 
Q 1925 3584 2291 3584 
Q 2894 3584 3203 3211 
Q 3513 2838 3513 2113 
z
" transform="scale(0.015625)"/>
        <path id="DejaVuSans-20" transform="scale(0.015625)"/>
        <path id="DejaVuSans-52" d="M 2841 2188 
Q 3044 2119 3236 1894 
Q 3428 1669 3622 1275 
L 4263 0 
L 3584 0 
L 2988 1197 
Q 2756 1666 2539 1819 
Q 2322 1972 1947 1972 
L 1259 1972 
L 1259 0 
L 628 0 
L 628 4666 
L 2053 4666 
Q 2853 4666 3247 4331 
Q 3641 3997 3641 3322 
Q 3641 2881 3436 2590 
Q 3231 2300 2841 2188 
z
M 1259 4147 
L 1259 2491 
L 2053 2491 
Q 2509 2491 2742 2702 
Q 2975 2913 2975 3322 
Q 2975 3731 2742 3939 
Q 2509 4147 2053 4147 
L 1259 4147 
z
" transform="scale(0.015625)"/>
        <path id="DejaVuSans-44" d="M 1259 4147 
L 1259 519 
L 2022 519 
Q 2988 519 3436 956 
Q 3884 1394 3884 2338 
Q 3884 3275 3436 3711 
Q 2988 4147 2022 4147 
L 1259 4147 
z
M 628 4666 
L 1925 4666 
Q 3281 4666 3915 4102 
Q 4550 3538 4550 2338 
Q 4550 1131 3912 565 
Q 3275 0 1925 0 
L 628 0 
L 628 4666 
z
" transform="scale(0.015625)"/>
       </defs>
       <use xlink:href="#DejaVuSans-53"/>
       <use xlink:href="#DejaVuSans-69" x="63.476562"/>
       <use xlink:href="#DejaVuSans-64" x="91.259766"/>
       <use xlink:href="#DejaVuSans-65" x="154.736328"/>
       <use xlink:href="#DejaVuSans-2d" x="216.259766"/>
       <use xlink:href="#DejaVuSans-63" x="252.34375"/>
       <use xlink:href="#DejaVuSans-68" x="307.324219"/>
       <use xlink:href="#DejaVuSans-61" x="370.703125"/>
       <use xlink:href="#DejaVuSans-69" x="431.982422"/>
       <use xlink:href="#DejaVuSans-6e" x="459.765625"/>
       <use xlink:href="#DejaVuSans-20" x="523.144531"/>
       <use xlink:href="#DejaVuSans-52" x="554.931641"/>
       <use xlink:href="#DejaVuSans-4d" x="624.414062"/>
       <use xlink:href="#DejaVuSans-53" x="710.693359"/>
       <use xlink:href="#DejaVuSans-44" x="774.169922"/>
      </g>
     </g>
    </g>
    <g id="xtick_3">
     <g id="line2d_3">
      <path d="M 430.961719 375.297656 
L 97.536373 451.399816 
" clip-path="url(#p36616ae934)" style="fill: none; stroke: #000000; stroke-width: 0.5; stroke-linecap: square"/>
     </g>
     <g id="text_3">
      <!-- Accuracy -->
      <g transform="translate(26.81707 461.413546) scale(0.25 -0.25)">
       <defs>
        <path id="DejaVuSans-41" d="M 2188 4044 
L 1331 1722 
L 3047 1722 
L 2188 4044 
z
M 1831 4666 
L 2547 4666 
L 4325 0 
L 3669 0 
L 3244 1197 
L 1141 1197 
L 716 0 
L 50 0 
L 1831 4666 
z
" transform="scale(0.015625)"/>
        <path id="DejaVuSans-75" d="M 544 1381 
L 544 3500 
L 1119 3500 
L 1119 1403 
Q 1119 906 1312 657 
Q 1506 409 1894 409 
Q 2359 409 2629 706 
Q 2900 1003 2900 1516 
L 2900 3500 
L 3475 3500 
L 3475 0 
L 2900 0 
L 2900 538 
Q 2691 219 2414 64 
Q 2138 -91 1772 -91 
Q 1169 -91 856 284 
Q 544 659 544 1381 
z
M 1991 3584 
L 1991 3584 
z
" transform="scale(0.015625)"/>
        <path id="DejaVuSans-79" d="M 2059 -325 
Q 1816 -950 1584 -1140 
Q 1353 -1331 966 -1331 
L 506 -1331 
L 506 -850 
L 844 -850 
Q 1081 -850 1212 -737 
Q 1344 -625 1503 -206 
L 1606 56 
L 191 3500 
L 800 3500 
L 1894 763 
L 2988 3500 
L 3597 3500 
L 2059 -325 
z
" transform="scale(0.015625)"/>
       </defs>
       <use xlink:href="#DejaVuSans-41"/>
       <use xlink:href="#DejaVuSans-63" x="66.658203"/>
       <use xlink:href="#DejaVuSans-63" x="121.638672"/>
       <use xlink:href="#DejaVuSans-75" x="176.619141"/>
       <use xlink:href="#DejaVuSans-72" x="239.998047"/>
       <use xlink:href="#DejaVuSans-61" x="281.111328"/>
       <use xlink:href="#DejaVuSans-63" x="342.390625"/>
       <use xlink:href="#DejaVuSans-79" x="397.371094"/>
      </g>
     </g>
    </g>
    <g id="xtick_4">
     <g id="line2d_4">
      <path d="M 430.961719 375.297656 
L 282.57348 683.429009 
" clip-path="url(#p36616ae934)" style="fill: none; stroke: #000000; stroke-width: 0.5; stroke-linecap: square"/>
     </g>
     <g id="text_4">
      <!-- $\chi_4$ -->
      <g transform="translate(263.124108 702.890229) scale(0.25 -0.25)">
       <defs>
        <path id="DejaVuSans-Oblique-3c7" d="M 1922 -781 
L 1691 416 
L 394 -1334 
L -284 -1334 
L 1553 1141 
L 1269 2613 
Q 1194 3006 713 3006 
L 559 3006 
L 653 3500 
L 872 3494 
Q 1675 3472 1775 2950 
L 2006 1753 
L 3303 3503 
L 3981 3503 
L 2144 1028 
L 2428 -444 
Q 2503 -838 2984 -838 
L 3138 -838 
L 3044 -1331 
L 2825 -1325 
Q 2022 -1303 1922 -781 
z
" transform="scale(0.015625)"/>
        <path id="DejaVuSans-34" d="M 2419 4116 
L 825 1625 
L 2419 1625 
L 2419 4116 
z
M 2253 4666 
L 3047 4666 
L 3047 1625 
L 3713 1625 
L 3713 1100 
L 3047 1100 
L 3047 0 
L 2419 0 
L 2419 1100 
L 313 1100 
L 313 1709 
L 2253 4666 
z
" transform="scale(0.015625)"/>
       </defs>
       <use xlink:href="#DejaVuSans-Oblique-3c7" transform="translate(0 0.265625)"/>
       <use xlink:href="#DejaVuSans-34" transform="translate(59.179688 -16.140625) scale(0.7)"/>
      </g>
     </g>
    </g>
    <g id="xtick_5">
     <g id="line2d_5">
      <path d="M 430.961719 375.297656 
L 579.349958 683.429009 
" clip-path="url(#p36616ae934)" style="fill: none; stroke: #000000; stroke-width: 0.5; stroke-linecap: square"/>
     </g>
     <g id="text_5">
      <!-- $\chi_3$ -->
      <g transform="translate(572.04933 702.890229) scale(0.25 -0.25)">
       <defs>
        <path id="DejaVuSans-33" d="M 2597 2516 
Q 3050 2419 3304 2112 
Q 3559 1806 3559 1356 
Q 3559 666 3084 287 
Q 2609 -91 1734 -91 
Q 1441 -91 1130 -33 
Q 819 25 488 141 
L 488 750 
Q 750 597 1062 519 
Q 1375 441 1716 441 
Q 2309 441 2620 675 
Q 2931 909 2931 1356 
Q 2931 1769 2642 2001 
Q 2353 2234 1838 2234 
L 1294 2234 
L 1294 2753 
L 1863 2753 
Q 2328 2753 2575 2939 
Q 2822 3125 2822 3475 
Q 2822 3834 2567 4026 
Q 2313 4219 1838 4219 
Q 1578 4219 1281 4162 
Q 984 4106 628 3988 
L 628 4550 
Q 988 4650 1302 4700 
Q 1616 4750 1894 4750 
Q 2613 4750 3031 4423 
Q 3450 4097 3450 3541 
Q 3450 3153 3228 2886 
Q 3006 2619 2597 2516 
z
" transform="scale(0.015625)"/>
       </defs>
       <use xlink:href="#DejaVuSans-Oblique-3c7" transform="translate(0 0.265625)"/>
       <use xlink:href="#DejaVuSans-33" transform="translate(59.179688 -16.140625) scale(0.7)"/>
      </g>
     </g>
    </g>
    <g id="xtick_6">
     <g id="line2d_6">
      <path d="M 430.961719 375.297656 
L 764.387065 451.399816 
" clip-path="url(#p36616ae934)" style="fill: none; stroke: #000000; stroke-width: 0.5; stroke-linecap: square"/>
     </g>
     <g id="text_6">
      <!-- $\chi_2$ -->
      <g transform="translate(764.661055 461.362765) scale(0.25 -0.25)">
       <defs>
        <path id="DejaVuSans-32" d="M 1228 531 
L 3431 531 
L 3431 0 
L 469 0 
L 469 531 
Q 828 903 1448 1529 
Q 2069 2156 2228 2338 
Q 2531 2678 2651 2914 
Q 2772 3150 2772 3378 
Q 2772 3750 2511 3984 
Q 2250 4219 1831 4219 
Q 1534 4219 1204 4116 
Q 875 4013 500 3803 
L 500 4441 
Q 881 4594 1212 4672 
Q 1544 4750 1819 4750 
Q 2544 4750 2975 4387 
Q 3406 4025 3406 3419 
Q 3406 3131 3298 2873 
Q 3191 2616 2906 2266 
Q 2828 2175 2409 1742 
Q 1991 1309 1228 531 
z
" transform="scale(0.015625)"/>
       </defs>
       <use xlink:href="#DejaVuSans-Oblique-3c7" transform="translate(0 0.265625)"/>
       <use xlink:href="#DejaVuSans-32" transform="translate(59.179688 -16.140625) scale(0.7)"/>
      </g>
     </g>
    </g>
    <g id="xtick_7">
     <g id="line2d_7">
      <path d="M 430.961719 375.297656 
L 698.348086 162.064144 
" clip-path="url(#p36616ae934)" style="fill: none; stroke: #000000; stroke-width: 0.5; stroke-linecap: square"/>
     </g>
     <g id="text_7">
      <!-- $\chi_1$ -->
      <g transform="translate(695.918727 160.182943) scale(0.25 -0.25)">
       <defs>
        <path id="DejaVuSans-31" d="M 794 531 
L 1825 531 
L 1825 4091 
L 703 3866 
L 703 4441 
L 1819 4666 
L 2450 4666 
L 2450 531 
L 3481 531 
L 3481 0 
L 794 0 
L 794 531 
z
" transform="scale(0.015625)"/>
       </defs>
       <use xlink:href="#DejaVuSans-Oblique-3c7" transform="translate(0 0.265625)"/>
       <use xlink:href="#DejaVuSans-31" transform="translate(59.179688 -16.140625) scale(0.7)"/>
      </g>
     </g>
    </g>
   </g>
   <g id="matplotlib.axis_2">
    <g id="ytick_1">
     <g id="line2d_8">
      <path d="M 493.143537 375.297656 
C 493.143537 367.132015 491.535084 359.045774 488.410228 351.501705 
C 485.285372 343.957636 480.704885 337.102451 474.930904 331.328471 
C 469.156924 325.55449 462.301739 320.974003 454.75767 317.849147 
C 447.213601 314.724291 439.12736 313.115838 430.961719 313.115838 
C 422.796077 313.115838 414.709836 314.724291 407.165767 317.849147 
C 399.621698 320.974003 392.766514 325.55449 386.992533 331.328471 
C 381.218553 337.102451 376.638065 343.957636 373.51321 351.501705 
C 370.388354 359.045774 368.779901 367.132015 368.779901 375.297656 
C 368.779901 383.463298 370.388354 391.549539 373.51321 399.093608 
C 376.638065 406.637677 381.218553 413.492861 386.992533 419.266842 
C 392.766514 425.040822 399.621698 429.62131 407.165767 432.746165 
C 414.709836 435.871021 422.796077 437.479474 430.961719 437.479474 
C 439.12736 437.479474 447.213601 435.871021 454.75767 432.746165 
C 462.301739 429.62131 469.156924 425.040822 474.930904 419.266842 
C 480.704885 413.492861 485.285372 406.637677 488.410228 399.093608 
C 491.535084 391.549539 493.143537 383.463298 493.143537 375.297656 
" clip-path="url(#p36616ae934)" style="fill: none; stroke: #b0b0b0; stroke-width: 0.1; stroke-linecap: square"/>
     </g>
     <g id="text_8">
      <!-- 0.87 -->
      <g transform="translate(430.961719 308.956463) scale(0.2 -0.2)">
       <defs>
        <path id="DejaVuSans-30" d="M 2034 4250 
Q 1547 4250 1301 3770 
Q 1056 3291 1056 2328 
Q 1056 1369 1301 889 
Q 1547 409 2034 409 
Q 2525 409 2770 889 
Q 3016 1369 3016 2328 
Q 3016 3291 2770 3770 
Q 2525 4250 2034 4250 
z
M 2034 4750 
Q 2819 4750 3233 4129 
Q 3647 3509 3647 2328 
Q 3647 1150 3233 529 
Q 2819 -91 2034 -91 
Q 1250 -91 836 529 
Q 422 1150 422 2328 
Q 422 3509 836 4129 
Q 1250 4750 2034 4750 
z
" transform="scale(0.015625)"/>
        <path id="DejaVuSans-2e" d="M 684 794 
L 1344 794 
L 1344 0 
L 684 0 
L 684 794 
z
" transform="scale(0.015625)"/>
        <path id="DejaVuSans-38" d="M 2034 2216 
Q 1584 2216 1326 1975 
Q 1069 1734 1069 1313 
Q 1069 891 1326 650 
Q 1584 409 2034 409 
Q 2484 409 2743 651 
Q 3003 894 3003 1313 
Q 3003 1734 2745 1975 
Q 2488 2216 2034 2216 
z
M 1403 2484 
Q 997 2584 770 2862 
Q 544 3141 544 3541 
Q 544 4100 942 4425 
Q 1341 4750 2034 4750 
Q 2731 4750 3128 4425 
Q 3525 4100 3525 3541 
Q 3525 3141 3298 2862 
Q 3072 2584 2669 2484 
Q 3125 2378 3379 2068 
Q 3634 1759 3634 1313 
Q 3634 634 3220 271 
Q 2806 -91 2034 -91 
Q 1263 -91 848 271 
Q 434 634 434 1313 
Q 434 1759 690 2068 
Q 947 2378 1403 2484 
z
M 1172 3481 
Q 1172 3119 1398 2916 
Q 1625 2713 2034 2713 
Q 2441 2713 2670 2916 
Q 2900 3119 2900 3481 
Q 2900 3844 2670 4047 
Q 2441 4250 2034 4250 
Q 1625 4250 1398 4047 
Q 1172 3844 1172 3481 
z
" transform="scale(0.015625)"/>
        <path id="DejaVuSans-37" d="M 525 4666 
L 3525 4666 
L 3525 4397 
L 1831 0 
L 1172 0 
L 2766 4134 
L 525 4134 
L 525 4666 
z
" transform="scale(0.015625)"/>
       </defs>
       <use xlink:href="#DejaVuSans-30"/>
       <use xlink:href="#DejaVuSans-2e" x="63.623047"/>
       <use xlink:href="#DejaVuSans-38" x="95.410156"/>
       <use xlink:href="#DejaVuSans-37" x="159.033203"/>
      </g>
     </g>
    </g>
    <g id="ytick_2">
     <g id="line2d_9">
      <path d="M 555.325355 375.297656 
C 555.325355 358.966373 552.108448 342.793891 545.858737 327.705753 
C 539.609026 312.617615 530.44805 298.907247 518.900089 287.359286 
C 507.352128 275.811325 493.64176 266.650349 478.553622 260.400638 
C 463.465484 254.150927 447.293002 250.93402 430.961719 250.93402 
C 414.630436 250.93402 398.457954 254.150927 383.369816 260.400638 
C 368.281677 266.650349 354.571309 275.811325 343.023348 287.359286 
C 331.475387 298.907247 322.314412 312.617615 316.064701 327.705753 
C 309.814989 342.793891 306.598082 358.966373 306.598082 375.297656 
C 306.598082 391.628939 309.814989 407.801421 316.064701 422.889559 
C 322.314412 437.977698 331.475387 451.688066 343.023348 463.236027 
C 354.571309 474.783988 368.281677 483.944963 383.369816 490.194674 
C 398.457954 496.444386 414.630436 499.661293 430.961719 499.661293 
C 447.293002 499.661293 463.465484 496.444386 478.553622 490.194674 
C 493.64176 483.944963 507.352128 474.783988 518.900089 463.236027 
C 530.44805 451.688066 539.609026 437.977698 545.858737 422.889559 
C 552.108448 407.801421 555.325355 391.628939 555.325355 375.297656 
" clip-path="url(#p36616ae934)" style="fill: none; stroke: #b0b0b0; stroke-width: 0.1; stroke-linecap: square"/>
     </g>
    </g>
    <g id="ytick_3">
     <g id="line2d_10">
      <path d="M 617.507173 375.297656 
C 617.507173 350.800732 612.681813 326.542009 603.307246 303.909801 
C 593.932679 281.277594 580.191216 260.712042 562.869275 243.3901 
C 545.547333 226.068159 524.981781 212.326696 502.349574 202.952129 
C 479.717366 193.577562 455.458643 188.752202 430.961719 188.752202 
C 406.464794 188.752202 382.206071 193.577562 359.573864 202.952129 
C 336.941657 212.326696 316.376104 226.068159 299.054163 243.3901 
C 281.732221 260.712042 267.990759 281.277594 258.616191 303.909801 
C 249.241624 326.542009 244.416264 350.800732 244.416264 375.297656 
C 244.416264 399.794581 249.241624 424.053304 258.616191 446.685511 
C 267.990759 469.317718 281.732221 489.883271 299.054163 507.205212 
C 316.376104 524.527154 336.941657 538.268616 359.573864 547.643184 
C 382.206071 557.017751 406.464794 561.843111 430.961719 561.843111 
C 455.458643 561.843111 479.717366 557.017751 502.349574 547.643184 
C 524.981781 538.268616 545.547333 524.527154 562.869275 507.205212 
C 580.191216 489.883271 593.932679 469.317718 603.307246 446.685511 
C 612.681813 424.053304 617.507173 399.794581 617.507173 375.297656 
" clip-path="url(#p36616ae934)" style="fill: none; stroke: #b0b0b0; stroke-width: 0.1; stroke-linecap: square"/>
     </g>
    </g>
    <g id="ytick_4">
     <g id="line2d_11">
      <path d="M 679.688991 375.297656 
C 679.688991 342.63509 673.255178 310.290126 660.755755 280.11385 
C 648.256332 249.937573 629.934382 222.516837 606.83846 199.420915 
C 583.742538 176.324993 556.321802 158.003043 526.145525 145.50362 
C 495.969249 133.004197 463.624285 126.570384 430.961719 126.570384 
C 398.299153 126.570384 365.954189 133.004197 335.777912 145.50362 
C 305.601636 158.003043 278.1809 176.324993 255.084978 199.420915 
C 231.989055 222.516837 213.667105 249.937573 201.167682 280.11385 
C 188.668259 310.290126 182.234446 342.63509 182.234446 375.297656 
C 182.234446 407.960222 188.668259 440.305186 201.167682 470.481463 
C 213.667105 500.657739 231.989055 528.078475 255.084978 551.174397 
C 278.1809 574.27032 305.601636 592.59227 335.777912 605.091693 
C 365.954189 617.591116 398.299153 624.024929 430.961719 624.024929 
C 463.624285 624.024929 495.969249 617.591116 526.145525 605.091693 
C 556.321802 592.59227 583.742538 574.27032 606.83846 551.174397 
C 629.934382 528.078475 648.256332 500.657739 660.755755 470.481463 
C 673.255178 440.305186 679.688991 407.960222 679.688991 375.297656 
" clip-path="url(#p36616ae934)" style="fill: none; stroke: #b0b0b0; stroke-width: 0.1; stroke-linecap: square"/>
     </g>
    </g>
    <g id="ytick_5">
     <g id="line2d_12">
      <path d="M 741.87081 375.297656 
C 741.87081 334.469449 733.828543 294.038244 718.204264 256.317898 
C 702.579986 218.597553 679.677548 184.321632 650.807645 155.45173 
C 621.937743 126.581827 587.661822 103.679389 549.941477 88.055111 
C 512.221131 72.430832 471.789926 64.388565 430.961719 64.388565 
C 390.133511 64.388565 349.702306 72.430832 311.981961 88.055111 
C 274.261615 103.679389 239.985695 126.581827 211.115792 155.45173 
C 182.24589 184.321632 159.343452 218.597553 143.719173 256.317898 
C 128.094895 294.038244 120.052628 334.469449 120.052628 375.297656 
C 120.052628 416.125864 128.094895 456.557069 143.719173 494.277414 
C 159.343452 531.99776 182.24589 566.27368 211.115792 595.143583 
C 239.985695 624.013485 274.261615 646.915923 311.981961 662.540202 
C 349.702306 678.16448 390.133511 686.206747 430.961719 686.206747 
C 471.789926 686.206747 512.221131 678.16448 549.941477 662.540202 
C 587.661822 646.915923 621.937743 624.013485 650.807645 595.143583 
C 679.677548 566.27368 702.579986 531.99776 718.204264 494.277414 
C 733.828543 456.557069 741.87081 416.125864 741.87081 375.297656 
" clip-path="url(#p36616ae934)" style="fill: none; stroke: #b0b0b0; stroke-width: 0.1; stroke-linecap: square"/>
     </g>
     <g id="text_9">
      <!-- 1.0 -->
      <g transform="translate(430.961719 60.22919) scale(0.2 -0.2)">
       <use xlink:href="#DejaVuSans-31"/>
       <use xlink:href="#DejaVuSans-2e" x="63.623047"/>
       <use xlink:href="#DejaVuSans-30" x="95.410156"/>
      </g>
     </g>
    </g>
   </g>
   <g id="line2d_13">
    <path d="M 430.961719 64.388565 
L 200.749859 191.709825 
L 136.630445 442.476849 
L 397.241219 445.318996 
L 537.185602 595.873823 
L 661.948416 428.018863 
L 668.052102 186.224385 
L 430.961719 64.388565 
" clip-path="url(#p36616ae934)" style="fill: none; stroke: #ff0000; stroke-width: 4; stroke-linecap: square"/>
   </g>
   <g id="line2d_14">
    <path d="M 430.961719 280.279925 
L 186.801165 180.586112 
L 115.794069 447.232616 
L 312.913121 620.428096 
L 561.921904 647.239284 
L 723.727109 442.119446 
L 677.755085 178.486514 
L 430.961719 280.279925 
" clip-path="url(#p36616ae934)" style="fill: none; stroke: #ff0000; stroke-width: 4; stroke-linecap: square"/>
   </g>
   <g id="line2d_15">
    <path d="M 430.961719 284.055258 
L 186.118082 180.041372 
L 115.591879 447.278764 
L 311.018921 624.361442 
L 562.51507 648.471006 
L 727.211444 442.914723 
L 677.491542 178.696682 
L 430.961719 284.055258 
" clip-path="url(#p36616ae934)" style="fill: none; stroke: #ff0000; stroke-width: 4; stroke-linecap: square"/>
   </g>
   <g id="line2d_16">
    <path d="M 430.961719 277.999972 
L 187.147158 180.862032 
L 118.717288 446.56541 
L 311.445329 623.475996 
L 559.074584 641.326761 
L 723.212771 442.002052 
L 676.494238 179.492006 
L 430.961719 277.999972 
" clip-path="url(#p36616ae934)" style="fill: none; stroke: #000000; stroke-width: 4; stroke-linecap: square"/>
   </g>
   <g id="legend_1">
    <g id="patch_3">
     <path d="M 12.2 773.992969 
L 849.723438 773.992969 
Q 854.723438 773.992969 854.723438 768.992969 
L 854.723438 734.797656 
Q 854.723438 729.797656 849.723438 729.797656 
L 12.2 729.797656 
Q 7.2 729.797656 7.2 734.797656 
L 7.2 768.992969 
Q 7.2 773.992969 12.2 773.992969 
z
" style="fill: #ffffff; opacity: 0.8; stroke: #cccccc; stroke-linejoin: miter"/>
    </g>
    <g id="line2d_17">
     <path d="M 17.2 750.04375 
L 42.2 750.04375 
L 67.2 750.04375 
" style="fill: none; stroke: #ff0000; stroke-width: 4; stroke-linecap: square"/>
    </g>
    <g id="text_10">
     <!-- FASPR -->
     <g transform="translate(87.2 758.79375) scale(0.25 -0.25)">
      <defs>
       <path id="DejaVuSans-46" d="M 628 4666 
L 3309 4666 
L 3309 4134 
L 1259 4134 
L 1259 2759 
L 3109 2759 
L 3109 2228 
L 1259 2228 
L 1259 0 
L 628 0 
L 628 4666 
z
" transform="scale(0.015625)"/>
       <path id="DejaVuSans-50" d="M 1259 4147 
L 1259 2394 
L 2053 2394 
Q 2494 2394 2734 2622 
Q 2975 2850 2975 3272 
Q 2975 3691 2734 3919 
Q 2494 4147 2053 4147 
L 1259 4147 
z
M 628 4666 
L 2053 4666 
Q 2838 4666 3239 4311 
Q 3641 3956 3641 3272 
Q 3641 2581 3239 2228 
Q 2838 1875 2053 1875 
L 1259 1875 
L 1259 0 
L 628 0 
L 628 4666 
z
" transform="scale(0.015625)"/>
      </defs>
      <use xlink:href="#DejaVuSans-46"/>
      <use xlink:href="#DejaVuSans-41" x="48.394531"/>
      <use xlink:href="#DejaVuSans-53" x="116.802734"/>
      <use xlink:href="#DejaVuSans-50" x="180.279297"/>
      <use xlink:href="#DejaVuSans-52" x="240.582031"/>
     </g>
    </g>
    <g id="line2d_18">
     <path d="M 214.715625 750.04375 
L 239.715625 750.04375 
L 264.715625 750.04375 
" style="fill: none; stroke: #ff0000; stroke-width: 4; stroke-linecap: square"/>
    </g>
    <g id="text_11">
     <!-- FASPR 0 -->
     <g transform="translate(284.715625 758.79375) scale(0.25 -0.25)">
      <use xlink:href="#DejaVuSans-46"/>
      <use xlink:href="#DejaVuSans-41" x="48.394531"/>
      <use xlink:href="#DejaVuSans-53" x="116.802734"/>
      <use xlink:href="#DejaVuSans-50" x="180.279297"/>
      <use xlink:href="#DejaVuSans-52" x="240.582031"/>
      <use xlink:href="#DejaVuSans-20" x="310.064453"/>
      <use xlink:href="#DejaVuSans-30" x="341.851562"/>
     </g>
    </g>
    <g id="line2d_19">
     <path d="M 436.082812 750.04375 
L 461.082812 750.04375 
L 486.082812 750.04375 
" style="fill: none; stroke: #ff0000; stroke-width: 4; stroke-linecap: square"/>
    </g>
    <g id="text_12">
     <!-- FASPR 1 -->
     <g transform="translate(506.082812 758.79375) scale(0.25 -0.25)">
      <use xlink:href="#DejaVuSans-46"/>
      <use xlink:href="#DejaVuSans-41" x="48.394531"/>
      <use xlink:href="#DejaVuSans-53" x="116.802734"/>
      <use xlink:href="#DejaVuSans-50" x="180.279297"/>
      <use xlink:href="#DejaVuSans-52" x="240.582031"/>
      <use xlink:href="#DejaVuSans-20" x="310.064453"/>
      <use xlink:href="#DejaVuSans-31" x="341.851562"/>
     </g>
    </g>
    <g id="line2d_20">
     <path d="M 657.45 750.04375 
L 682.45 750.04375 
L 707.45 750.04375 
" style="fill: none; stroke: #000000; stroke-width: 4; stroke-linecap: square"/>
    </g>
    <g id="text_13">
     <!-- FASPR 10 -->
     <g transform="translate(727.45 758.79375) scale(0.25 -0.25)">
      <use xlink:href="#DejaVuSans-46"/>
      <use xlink:href="#DejaVuSans-41" x="48.394531"/>
      <use xlink:href="#DejaVuSans-53" x="116.802734"/>
      <use xlink:href="#DejaVuSans-50" x="180.279297"/>
      <use xlink:href="#DejaVuSans-52" x="240.582031"/>
      <use xlink:href="#DejaVuSans-20" x="310.064453"/>
      <use xlink:href="#DejaVuSans-31" x="341.851562"/>
      <use xlink:href="#DejaVuSans-30" x="405.474609"/>
     </g>
    </g>
   </g>
  </g>
  <g id="axes_2">
   <g id="matplotlib.axis_3">
    <g id="ytick_6">
     <g id="line2d_21">
      <path d="M 493.143537 375.297656 
C 493.143537 367.132015 491.535084 359.045774 488.410228 351.501705 
C 485.285372 343.957636 480.704885 337.102451 474.930904 331.328471 
C 469.156924 325.55449 462.301739 320.974003 454.75767 317.849147 
C 447.213601 314.724291 439.12736 313.115838 430.961719 313.115838 
C 422.796077 313.115838 414.709836 314.724291 407.165767 317.849147 
C 399.621698 320.974003 392.766514 325.55449 386.992533 331.328471 
C 381.218553 337.102451 376.638065 343.957636 373.51321 351.501705 
C 370.388354 359.045774 368.779901 367.132015 368.779901 375.297656 
C 368.779901 383.463298 370.388354 391.549539 373.51321 399.093608 
C 376.638065 406.637677 381.218553 413.492861 386.992533 419.266842 
C 392.766514 425.040822 399.621698 429.62131 407.165767 432.746165 
C 414.709836 435.871021 422.796077 437.479474 430.961719 437.479474 
C 439.12736 437.479474 447.213601 435.871021 454.75767 432.746165 
C 462.301739 429.62131 469.156924 425.040822 474.930904 419.266842 
C 480.704885 413.492861 485.285372 406.637677 488.410228 399.093608 
C 491.535084 391.549539 493.143537 383.463298 493.143537 375.297656 
" clip-path="url(#p036a98008f)" style="fill: none; stroke: #b0b0b0; stroke-width: 0.1; stroke-linecap: square"/>
     </g>
     <g id="text_14">
      <!-- 2.0 -->
      <g transform="translate(382.346016 332.368552) scale(0.2 -0.2)">
       <use xlink:href="#DejaVuSans-32"/>
       <use xlink:href="#DejaVuSans-2e" x="63.623047"/>
       <use xlink:href="#DejaVuSans-30" x="95.410156"/>
      </g>
     </g>
    </g>
    <g id="ytick_7">
     <g id="line2d_22">
      <path d="M 555.325355 375.297656 
C 555.325355 358.966373 552.108448 342.793891 545.858737 327.705753 
C 539.609026 312.617615 530.44805 298.907247 518.900089 287.359286 
C 507.352128 275.811325 493.64176 266.650349 478.553622 260.400638 
C 463.465484 254.150927 447.293002 250.93402 430.961719 250.93402 
C 414.630436 250.93402 398.457954 254.150927 383.369816 260.400638 
C 368.281677 266.650349 354.571309 275.811325 343.023348 287.359286 
C 331.475387 298.907247 322.314412 312.617615 316.064701 327.705753 
C 309.814989 342.793891 306.598082 358.966373 306.598082 375.297656 
C 306.598082 391.628939 309.814989 407.801421 316.064701 422.889559 
C 322.314412 437.977698 331.475387 451.688066 343.023348 463.236027 
C 354.571309 474.783988 368.281677 483.944963 383.369816 490.194674 
C 398.457954 496.444386 414.630436 499.661293 430.961719 499.661293 
C 447.293002 499.661293 463.465484 496.444386 478.553622 490.194674 
C 493.64176 483.944963 507.352128 474.783988 518.900089 463.236027 
C 530.44805 451.688066 539.609026 437.977698 545.858737 422.889559 
C 552.108448 407.801421 555.325355 391.628939 555.325355 375.297656 
" clip-path="url(#p036a98008f)" style="fill: none; stroke: #b0b0b0; stroke-width: 0.1; stroke-linecap: square"/>
     </g>
    </g>
    <g id="ytick_8">
     <g id="line2d_23">
      <path d="M 617.507173 375.297656 
C 617.507173 350.800732 612.681813 326.542009 603.307246 303.909801 
C 593.932679 281.277594 580.191216 260.712042 562.869275 243.3901 
C 545.547333 226.068159 524.981781 212.326696 502.349574 202.952129 
C 479.717366 193.577562 455.458643 188.752202 430.961719 188.752202 
C 406.464794 188.752202 382.206071 193.577562 359.573864 202.952129 
C 336.941657 212.326696 316.376104 226.068159 299.054163 243.3901 
C 281.732221 260.712042 267.990759 281.277594 258.616191 303.909801 
C 249.241624 326.542009 244.416264 350.800732 244.416264 375.297656 
C 244.416264 399.794581 249.241624 424.053304 258.616191 446.685511 
C 267.990759 469.317718 281.732221 489.883271 299.054163 507.205212 
C 316.376104 524.527154 336.941657 538.268616 359.573864 547.643184 
C 382.206071 557.017751 406.464794 561.843111 430.961719 561.843111 
C 455.458643 561.843111 479.717366 557.017751 502.349574 547.643184 
C 524.981781 538.268616 545.547333 524.527154 562.869275 507.205212 
C 580.191216 489.883271 593.932679 469.317718 603.307246 446.685511 
C 612.681813 424.053304 617.507173 399.794581 617.507173 375.297656 
" clip-path="url(#p036a98008f)" style="fill: none; stroke: #b0b0b0; stroke-width: 0.1; stroke-linecap: square"/>
     </g>
    </g>
    <g id="ytick_9">
     <g id="line2d_24">
      <path d="M 679.688991 375.297656 
C 679.688991 342.63509 673.255178 310.290126 660.755755 280.11385 
C 648.256332 249.937573 629.934382 222.516837 606.83846 199.420915 
C 583.742538 176.324993 556.321802 158.003043 526.145525 145.50362 
C 495.969249 133.004197 463.624285 126.570384 430.961719 126.570384 
C 398.299153 126.570384 365.954189 133.004197 335.777912 145.50362 
C 305.601636 158.003043 278.1809 176.324993 255.084978 199.420915 
C 231.989055 222.516837 213.667105 249.937573 201.167682 280.11385 
C 188.668259 310.290126 182.234446 342.63509 182.234446 375.297656 
C 182.234446 407.960222 188.668259 440.305186 201.167682 470.481463 
C 213.667105 500.657739 231.989055 528.078475 255.084978 551.174397 
C 278.1809 574.27032 305.601636 592.59227 335.777912 605.091693 
C 365.954189 617.591116 398.299153 624.024929 430.961719 624.024929 
C 463.624285 624.024929 495.969249 617.591116 526.145525 605.091693 
C 556.321802 592.59227 583.742538 574.27032 606.83846 551.174397 
C 629.934382 528.078475 648.256332 500.657739 660.755755 470.481463 
C 673.255178 440.305186 679.688991 407.960222 679.688991 375.297656 
" clip-path="url(#p036a98008f)" style="fill: none; stroke: #b0b0b0; stroke-width: 0.1; stroke-linecap: square"/>
     </g>
    </g>
    <g id="ytick_10">
     <g id="line2d_25">
      <path d="M 741.87081 375.297656 
C 741.87081 334.469449 733.828543 294.038244 718.204264 256.317898 
C 702.579986 218.597553 679.677548 184.321632 650.807645 155.45173 
C 621.937743 126.581827 587.661822 103.679389 549.941477 88.055111 
C 512.221131 72.430832 471.789926 64.388565 430.961719 64.388565 
C 390.133511 64.388565 349.702306 72.430832 311.981961 88.055111 
C 274.261615 103.679389 239.985695 126.581827 211.115792 155.45173 
C 182.24589 184.321632 159.343452 218.597553 143.719173 256.317898 
C 128.094895 294.038244 120.052628 334.469449 120.052628 375.297656 
C 120.052628 416.125864 128.094895 456.557069 143.719173 494.277414 
C 159.343452 531.99776 182.24589 566.27368 211.115792 595.143583 
C 239.985695 624.013485 274.261615 646.915923 311.981961 662.540202 
C 349.702306 678.16448 390.133511 686.206747 430.961719 686.206747 
C 471.789926 686.206747 512.221131 678.16448 549.941477 662.540202 
C 587.661822 646.915923 621.937743 624.013485 650.807645 595.143583 
C 679.677548 566.27368 702.579986 531.99776 718.204264 494.277414 
C 733.828543 456.557069 741.87081 416.125864 741.87081 375.297656 
" clip-path="url(#p036a98008f)" style="fill: none; stroke: #b0b0b0; stroke-width: 0.1; stroke-linecap: square"/>
     </g>
     <g id="text_15">
      <!-- 0.95 -->
      <g transform="translate(187.883203 177.289634) scale(0.2 -0.2)">
       <defs>
        <path id="DejaVuSans-39" d="M 703 97 
L 703 672 
Q 941 559 1184 500 
Q 1428 441 1663 441 
Q 2288 441 2617 861 
Q 2947 1281 2994 2138 
Q 2813 1869 2534 1725 
Q 2256 1581 1919 1581 
Q 1219 1581 811 2004 
Q 403 2428 403 3163 
Q 403 3881 828 4315 
Q 1253 4750 1959 4750 
Q 2769 4750 3195 4129 
Q 3622 3509 3622 2328 
Q 3622 1225 3098 567 
Q 2575 -91 1691 -91 
Q 1453 -91 1209 -44 
Q 966 3 703 97 
z
M 1959 2075 
Q 2384 2075 2632 2365 
Q 2881 2656 2881 3163 
Q 2881 3666 2632 3958 
Q 2384 4250 1959 4250 
Q 1534 4250 1286 3958 
Q 1038 3666 1038 3163 
Q 1038 2656 1286 2365 
Q 1534 2075 1959 2075 
z
" transform="scale(0.015625)"/>
        <path id="DejaVuSans-35" d="M 691 4666 
L 3169 4666 
L 3169 4134 
L 1269 4134 
L 1269 2991 
Q 1406 3038 1543 3061 
Q 1681 3084 1819 3084 
Q 2600 3084 3056 2656 
Q 3513 2228 3513 1497 
Q 3513 744 3044 326 
Q 2575 -91 1722 -91 
Q 1428 -91 1123 -41 
Q 819 9 494 109 
L 494 744 
Q 775 591 1075 516 
Q 1375 441 1709 441 
Q 2250 441 2565 725 
Q 2881 1009 2881 1497 
Q 2881 1984 2565 2268 
Q 2250 2553 1709 2553 
Q 1456 2553 1204 2497 
Q 953 2441 691 2322 
L 691 4666 
z
" transform="scale(0.015625)"/>
       </defs>
       <use xlink:href="#DejaVuSans-30"/>
       <use xlink:href="#DejaVuSans-2e" x="63.623047"/>
       <use xlink:href="#DejaVuSans-39" x="95.410156"/>
       <use xlink:href="#DejaVuSans-35" x="159.033203"/>
      </g>
     </g>
    </g>
   </g>
  </g>
  <g id="axes_3">
   <g id="matplotlib.axis_4">
    <g id="ytick_11">
     <g id="line2d_26">
      <path d="M 493.143537 375.297656 
C 493.143537 367.132015 491.535084 359.045774 488.410228 351.501705 
C 485.285372 343.957636 480.704885 337.102451 474.930904 331.328471 
C 469.156924 325.55449 462.301739 320.974003 454.75767 317.849147 
C 447.213601 314.724291 439.12736 313.115838 430.961719 313.115838 
C 422.796077 313.115838 414.709836 314.724291 407.165767 317.849147 
C 399.621698 320.974003 392.766514 325.55449 386.992533 331.328471 
C 381.218553 337.102451 376.638065 343.957636 373.51321 351.501705 
C 370.388354 359.045774 368.779901 367.132015 368.779901 375.297656 
C 368.779901 383.463298 370.388354 391.549539 373.51321 399.093608 
C 376.638065 406.637677 381.218553 413.492861 386.992533 419.266842 
C 392.766514 425.040822 399.621698 429.62131 407.165767 432.746165 
C 414.709836 435.871021 422.796077 437.479474 430.961719 437.479474 
C 439.12736 437.479474 447.213601 435.871021 454.75767 432.746165 
C 462.301739 429.62131 469.156924 425.040822 474.930904 419.266842 
C 480.704885 413.492861 485.285372 406.637677 488.410228 399.093608 
C 491.535084 391.549539 493.143537 383.463298 493.143537 375.297656 
" clip-path="url(#pbb9a868e53)" style="fill: none; stroke: #b0b0b0; stroke-width: 0.1; stroke-linecap: square"/>
     </g>
     <g id="text_16">
      <!-- 0.15 -->
      <g transform="translate(370.338929 384.975038) scale(0.2 -0.2)">
       <use xlink:href="#DejaVuSans-30"/>
       <use xlink:href="#DejaVuSans-2e" x="63.623047"/>
       <use xlink:href="#DejaVuSans-31" x="95.410156"/>
       <use xlink:href="#DejaVuSans-35" x="159.033203"/>
      </g>
     </g>
    </g>
    <g id="ytick_12">
     <g id="line2d_27">
      <path d="M 555.325355 375.297656 
C 555.325355 358.966373 552.108448 342.793891 545.858737 327.705753 
C 539.609026 312.617615 530.44805 298.907247 518.900089 287.359286 
C 507.352128 275.811325 493.64176 266.650349 478.553622 260.400638 
C 463.465484 254.150927 447.293002 250.93402 430.961719 250.93402 
C 414.630436 250.93402 398.457954 254.150927 383.369816 260.400638 
C 368.281677 266.650349 354.571309 275.811325 343.023348 287.359286 
C 331.475387 298.907247 322.314412 312.617615 316.064701 327.705753 
C 309.814989 342.793891 306.598082 358.966373 306.598082 375.297656 
C 306.598082 391.628939 309.814989 407.801421 316.064701 422.889559 
C 322.314412 437.977698 331.475387 451.688066 343.023348 463.236027 
C 354.571309 474.783988 368.281677 483.944963 383.369816 490.194674 
C 398.457954 496.444386 414.630436 499.661293 430.961719 499.661293 
C 447.293002 499.661293 463.465484 496.444386 478.553622 490.194674 
C 493.64176 483.944963 507.352128 474.783988 518.900089 463.236027 
C 530.44805 451.688066 539.609026 437.977698 545.858737 422.889559 
C 552.108448 407.801421 555.325355 391.628939 555.325355 375.297656 
" clip-path="url(#pbb9a868e53)" style="fill: none; stroke: #b0b0b0; stroke-width: 0.1; stroke-linecap: square"/>
     </g>
    </g>
    <g id="ytick_13">
     <g id="line2d_28">
      <path d="M 617.507173 375.297656 
C 617.507173 350.800732 612.681813 326.542009 603.307246 303.909801 
C 593.932679 281.277594 580.191216 260.712042 562.869275 243.3901 
C 545.547333 226.068159 524.981781 212.326696 502.349574 202.952129 
C 479.717366 193.577562 455.458643 188.752202 430.961719 188.752202 
C 406.464794 188.752202 382.206071 193.577562 359.573864 202.952129 
C 336.941657 212.326696 316.376104 226.068159 299.054163 243.3901 
C 281.732221 260.712042 267.990759 281.277594 258.616191 303.909801 
C 249.241624 326.542009 244.416264 350.800732 244.416264 375.297656 
C 244.416264 399.794581 249.241624 424.053304 258.616191 446.685511 
C 267.990759 469.317718 281.732221 489.883271 299.054163 507.205212 
C 316.376104 524.527154 336.941657 538.268616 359.573864 547.643184 
C 382.206071 557.017751 406.464794 561.843111 430.961719 561.843111 
C 455.458643 561.843111 479.717366 557.017751 502.349574 547.643184 
C 524.981781 538.268616 545.547333 524.527154 562.869275 507.205212 
C 580.191216 489.883271 593.932679 469.317718 603.307246 446.685511 
C 612.681813 424.053304 617.507173 399.794581 617.507173 375.297656 
" clip-path="url(#pbb9a868e53)" style="fill: none; stroke: #b0b0b0; stroke-width: 0.1; stroke-linecap: square"/>
     </g>
    </g>
    <g id="ytick_14">
     <g id="line2d_29">
      <path d="M 679.688991 375.297656 
C 679.688991 342.63509 673.255178 310.290126 660.755755 280.11385 
C 648.256332 249.937573 629.934382 222.516837 606.83846 199.420915 
C 583.742538 176.324993 556.321802 158.003043 526.145525 145.50362 
C 495.969249 133.004197 463.624285 126.570384 430.961719 126.570384 
C 398.299153 126.570384 365.954189 133.004197 335.777912 145.50362 
C 305.601636 158.003043 278.1809 176.324993 255.084978 199.420915 
C 231.989055 222.516837 213.667105 249.937573 201.167682 280.11385 
C 188.668259 310.290126 182.234446 342.63509 182.234446 375.297656 
C 182.234446 407.960222 188.668259 440.305186 201.167682 470.481463 
C 213.667105 500.657739 231.989055 528.078475 255.084978 551.174397 
C 278.1809 574.27032 305.601636 592.59227 335.777912 605.091693 
C 365.954189 617.591116 398.299153 624.024929 430.961719 624.024929 
C 463.624285 624.024929 495.969249 617.591116 526.145525 605.091693 
C 556.321802 592.59227 583.742538 574.27032 606.83846 551.174397 
C 629.934382 528.078475 648.256332 500.657739 660.755755 470.481463 
C 673.255178 440.305186 679.688991 407.960222 679.688991 375.297656 
" clip-path="url(#pbb9a868e53)" style="fill: none; stroke: #b0b0b0; stroke-width: 0.1; stroke-linecap: square"/>
     </g>
    </g>
    <g id="ytick_15">
     <g id="line2d_30">
      <path d="M 741.87081 375.297656 
C 741.87081 334.469449 733.828543 294.038244 718.204264 256.317898 
C 702.579986 218.597553 679.677548 184.321632 650.807645 155.45173 
C 621.937743 126.581827 587.661822 103.679389 549.941477 88.055111 
C 512.221131 72.430832 471.789926 64.388565 430.961719 64.388565 
C 390.133511 64.388565 349.702306 72.430832 311.981961 88.055111 
C 274.261615 103.679389 239.985695 126.581827 211.115792 155.45173 
C 182.24589 184.321632 159.343452 218.597553 143.719173 256.317898 
C 128.094895 294.038244 120.052628 334.469449 120.052628 375.297656 
C 120.052628 416.125864 128.094895 456.557069 143.719173 494.277414 
C 159.343452 531.99776 182.24589 566.27368 211.115792 595.143583 
C 239.985695 624.013485 274.261615 646.915923 311.981961 662.540202 
C 349.702306 678.16448 390.133511 686.206747 430.961719 686.206747 
C 471.789926 686.206747 512.221131 678.16448 549.941477 662.540202 
C 587.661822 646.915923 621.937743 624.013485 650.807645 595.143583 
C 679.677548 566.27368 702.579986 531.99776 718.204264 494.277414 
C 733.828543 456.557069 741.87081 416.125864 741.87081 375.297656 
" clip-path="url(#pbb9a868e53)" style="fill: none; stroke: #b0b0b0; stroke-width: 0.1; stroke-linecap: square"/>
     </g>
     <g id="text_17">
      <!-- 0.5 -->
      <g transform="translate(127.847768 440.322063) scale(0.2 -0.2)">
       <use xlink:href="#DejaVuSans-30"/>
       <use xlink:href="#DejaVuSans-2e" x="63.623047"/>
       <use xlink:href="#DejaVuSans-35" x="95.410156"/>
      </g>
     </g>
    </g>
   </g>
  </g>
  <g id="axes_4">
   <g id="matplotlib.axis_5">
    <g id="ytick_16">
     <g id="line2d_31">
      <path d="M 493.143537 375.297656 
C 493.143537 367.132015 491.535084 359.045774 488.410228 351.501705 
C 485.285372 343.957636 480.704885 337.102451 474.930904 331.328471 
C 469.156924 325.55449 462.301739 320.974003 454.75767 317.849147 
C 447.213601 314.724291 439.12736 313.115838 430.961719 313.115838 
C 422.796077 313.115838 414.709836 314.724291 407.165767 317.849147 
C 399.621698 320.974003 392.766514 325.55449 386.992533 331.328471 
C 381.218553 337.102451 376.638065 343.957636 373.51321 351.501705 
C 370.388354 359.045774 368.779901 367.132015 368.779901 375.297656 
C 368.779901 383.463298 370.388354 391.549539 373.51321 399.093608 
C 376.638065 406.637677 381.218553 413.492861 386.992533 419.266842 
C 392.766514 425.040822 399.621698 429.62131 407.165767 432.746165 
C 414.709836 435.871021 422.796077 437.479474 430.961719 437.479474 
C 439.12736 437.479474 447.213601 435.871021 454.75767 432.746165 
C 462.301739 429.62131 469.156924 425.040822 474.930904 419.266842 
C 480.704885 413.492861 485.285372 406.637677 488.410228 399.093608 
C 491.535084 391.549539 493.143537 383.463298 493.143537 375.297656 
" clip-path="url(#pf6aa6db547)" style="fill: none; stroke: #b0b0b0; stroke-width: 0.1; stroke-linecap: square"/>
     </g>
     <g id="text_18">
      <!-- 55.5 -->
      <g transform="translate(403.982039 427.162164) scale(0.2 -0.2)">
       <use xlink:href="#DejaVuSans-35"/>
       <use xlink:href="#DejaVuSans-35" x="63.623047"/>
       <use xlink:href="#DejaVuSans-2e" x="127.246094"/>
       <use xlink:href="#DejaVuSans-35" x="159.033203"/>
      </g>
     </g>
    </g>
    <g id="ytick_17">
     <g id="line2d_32">
      <path d="M 555.325355 375.297656 
C 555.325355 358.966373 552.108448 342.793891 545.858737 327.705753 
C 539.609026 312.617615 530.44805 298.907247 518.900089 287.359286 
C 507.352128 275.811325 493.64176 266.650349 478.553622 260.400638 
C 463.465484 254.150927 447.293002 250.93402 430.961719 250.93402 
C 414.630436 250.93402 398.457954 254.150927 383.369816 260.400638 
C 368.281677 266.650349 354.571309 275.811325 343.023348 287.359286 
C 331.475387 298.907247 322.314412 312.617615 316.064701 327.705753 
C 309.814989 342.793891 306.598082 358.966373 306.598082 375.297656 
C 306.598082 391.628939 309.814989 407.801421 316.064701 422.889559 
C 322.314412 437.977698 331.475387 451.688066 343.023348 463.236027 
C 354.571309 474.783988 368.281677 483.944963 383.369816 490.194674 
C 398.457954 496.444386 414.630436 499.661293 430.961719 499.661293 
C 447.293002 499.661293 463.465484 496.444386 478.553622 490.194674 
C 493.64176 483.944963 507.352128 474.783988 518.900089 463.236027 
C 530.44805 451.688066 539.609026 437.977698 545.858737 422.889559 
C 552.108448 407.801421 555.325355 391.628939 555.325355 375.297656 
" clip-path="url(#pf6aa6db547)" style="fill: none; stroke: #b0b0b0; stroke-width: 0.1; stroke-linecap: square"/>
     </g>
    </g>
    <g id="ytick_18">
     <g id="line2d_33">
      <path d="M 617.507173 375.297656 
C 617.507173 350.800732 612.681813 326.542009 603.307246 303.909801 
C 593.932679 281.277594 580.191216 260.712042 562.869275 243.3901 
C 545.547333 226.068159 524.981781 212.326696 502.349574 202.952129 
C 479.717366 193.577562 455.458643 188.752202 430.961719 188.752202 
C 406.464794 188.752202 382.206071 193.577562 359.573864 202.952129 
C 336.941657 212.326696 316.376104 226.068159 299.054163 243.3901 
C 281.732221 260.712042 267.990759 281.277594 258.616191 303.909801 
C 249.241624 326.542009 244.416264 350.800732 244.416264 375.297656 
C 244.416264 399.794581 249.241624 424.053304 258.616191 446.685511 
C 267.990759 469.317718 281.732221 489.883271 299.054163 507.205212 
C 316.376104 524.527154 336.941657 538.268616 359.573864 547.643184 
C 382.206071 557.017751 406.464794 561.843111 430.961719 561.843111 
C 455.458643 561.843111 479.717366 557.017751 502.349574 547.643184 
C 524.981781 538.268616 545.547333 524.527154 562.869275 507.205212 
C 580.191216 489.883271 593.932679 469.317718 603.307246 446.685511 
C 612.681813 424.053304 617.507173 399.794581 617.507173 375.297656 
" clip-path="url(#pf6aa6db547)" style="fill: none; stroke: #b0b0b0; stroke-width: 0.1; stroke-linecap: square"/>
     </g>
    </g>
    <g id="ytick_19">
     <g id="line2d_34">
      <path d="M 679.688991 375.297656 
C 679.688991 342.63509 673.255178 310.290126 660.755755 280.11385 
C 648.256332 249.937573 629.934382 222.516837 606.83846 199.420915 
C 583.742538 176.324993 556.321802 158.003043 526.145525 145.50362 
C 495.969249 133.004197 463.624285 126.570384 430.961719 126.570384 
C 398.299153 126.570384 365.954189 133.004197 335.777912 145.50362 
C 305.601636 158.003043 278.1809 176.324993 255.084978 199.420915 
C 231.989055 222.516837 213.667105 249.937573 201.167682 280.11385 
C 188.668259 310.290126 182.234446 342.63509 182.234446 375.297656 
C 182.234446 407.960222 188.668259 440.305186 201.167682 470.481463 
C 213.667105 500.657739 231.989055 528.078475 255.084978 551.174397 
C 278.1809 574.27032 305.601636 592.59227 335.777912 605.091693 
C 365.954189 617.591116 398.299153 624.024929 430.961719 624.024929 
C 463.624285 624.024929 495.969249 617.591116 526.145525 605.091693 
C 556.321802 592.59227 583.742538 574.27032 606.83846 551.174397 
C 629.934382 528.078475 648.256332 500.657739 660.755755 470.481463 
C 673.255178 440.305186 679.688991 407.960222 679.688991 375.297656 
" clip-path="url(#pf6aa6db547)" style="fill: none; stroke: #b0b0b0; stroke-width: 0.1; stroke-linecap: square"/>
     </g>
    </g>
    <g id="ytick_20">
     <g id="line2d_35">
      <path d="M 741.87081 375.297656 
C 741.87081 334.469449 733.828543 294.038244 718.204264 256.317898 
C 702.579986 218.597553 679.677548 184.321632 650.807645 155.45173 
C 621.937743 126.581827 587.661822 103.679389 549.941477 88.055111 
C 512.221131 72.430832 471.789926 64.388565 430.961719 64.388565 
C 390.133511 64.388565 349.702306 72.430832 311.981961 88.055111 
C 274.261615 103.679389 239.985695 126.581827 211.115792 155.45173 
C 182.24589 184.321632 159.343452 218.597553 143.719173 256.317898 
C 128.094895 294.038244 120.052628 334.469449 120.052628 375.297656 
C 120.052628 416.125864 128.094895 456.557069 143.719173 494.277414 
C 159.343452 531.99776 182.24589 566.27368 211.115792 595.143583 
C 239.985695 624.013485 274.261615 646.915923 311.981961 662.540202 
C 349.702306 678.16448 390.133511 686.206747 430.961719 686.206747 
C 471.789926 686.206747 512.221131 678.16448 549.941477 662.540202 
C 587.661822 646.915923 621.937743 624.013485 650.807645 595.143583 
C 679.677548 566.27368 702.579986 531.99776 718.204264 494.277414 
C 733.828543 456.557069 741.87081 416.125864 741.87081 375.297656 
" clip-path="url(#pf6aa6db547)" style="fill: none; stroke: #b0b0b0; stroke-width: 0.1; stroke-linecap: square"/>
     </g>
     <g id="text_19">
      <!-- 49.5 -->
      <g transform="translate(296.06332 651.257693) scale(0.2 -0.2)">
       <use xlink:href="#DejaVuSans-34"/>
       <use xlink:href="#DejaVuSans-39" x="63.623047"/>
       <use xlink:href="#DejaVuSans-2e" x="127.246094"/>
       <use xlink:href="#DejaVuSans-35" x="159.033203"/>
      </g>
     </g>
    </g>
   </g>
  </g>
  <g id="axes_5">
   <g id="matplotlib.axis_6">
    <g id="ytick_21">
     <g id="line2d_36">
      <path d="M 493.143537 375.297656 
C 493.143537 367.132015 491.535084 359.045774 488.410228 351.501705 
C 485.285372 343.957636 480.704885 337.102451 474.930904 331.328471 
C 469.156924 325.55449 462.301739 320.974003 454.75767 317.849147 
C 447.213601 314.724291 439.12736 313.115838 430.961719 313.115838 
C 422.796077 313.115838 414.709836 314.724291 407.165767 317.849147 
C 399.621698 320.974003 392.766514 325.55449 386.992533 331.328471 
C 381.218553 337.102451 376.638065 343.957636 373.51321 351.501705 
C 370.388354 359.045774 368.779901 367.132015 368.779901 375.297656 
C 368.779901 383.463298 370.388354 391.549539 373.51321 399.093608 
C 376.638065 406.637677 381.218553 413.492861 386.992533 419.266842 
C 392.766514 425.040822 399.621698 429.62131 407.165767 432.746165 
C 414.709836 435.871021 422.796077 437.479474 430.961719 437.479474 
C 439.12736 437.479474 447.213601 435.871021 454.75767 432.746165 
C 462.301739 429.62131 469.156924 425.040822 474.930904 419.266842 
C 480.704885 413.492861 485.285372 406.637677 488.410228 399.093608 
C 491.535084 391.549539 493.143537 383.463298 493.143537 375.297656 
" clip-path="url(#pc1e1cb8e2a)" style="fill: none; stroke: #b0b0b0; stroke-width: 0.1; stroke-linecap: square"/>
     </g>
     <g id="text_20">
      <!-- 56.0 -->
      <g transform="translate(457.941399 427.162164) scale(0.2 -0.2)">
       <defs>
        <path id="DejaVuSans-36" d="M 2113 2584 
Q 1688 2584 1439 2293 
Q 1191 2003 1191 1497 
Q 1191 994 1439 701 
Q 1688 409 2113 409 
Q 2538 409 2786 701 
Q 3034 994 3034 1497 
Q 3034 2003 2786 2293 
Q 2538 2584 2113 2584 
z
M 3366 4563 
L 3366 3988 
Q 3128 4100 2886 4159 
Q 2644 4219 2406 4219 
Q 1781 4219 1451 3797 
Q 1122 3375 1075 2522 
Q 1259 2794 1537 2939 
Q 1816 3084 2150 3084 
Q 2853 3084 3261 2657 
Q 3669 2231 3669 1497 
Q 3669 778 3244 343 
Q 2819 -91 2113 -91 
Q 1303 -91 875 529 
Q 447 1150 447 2328 
Q 447 3434 972 4092 
Q 1497 4750 2381 4750 
Q 2619 4750 2861 4703 
Q 3103 4656 3366 4563 
z
" transform="scale(0.015625)"/>
       </defs>
       <use xlink:href="#DejaVuSans-35"/>
       <use xlink:href="#DejaVuSans-36" x="63.623047"/>
       <use xlink:href="#DejaVuSans-2e" x="127.246094"/>
       <use xlink:href="#DejaVuSans-30" x="159.033203"/>
      </g>
     </g>
    </g>
    <g id="ytick_22">
     <g id="line2d_37">
      <path d="M 555.325355 375.297656 
C 555.325355 358.966373 552.108448 342.793891 545.858737 327.705753 
C 539.609026 312.617615 530.44805 298.907247 518.900089 287.359286 
C 507.352128 275.811325 493.64176 266.650349 478.553622 260.400638 
C 463.465484 254.150927 447.293002 250.93402 430.961719 250.93402 
C 414.630436 250.93402 398.457954 254.150927 383.369816 260.400638 
C 368.281677 266.650349 354.571309 275.811325 343.023348 287.359286 
C 331.475387 298.907247 322.314412 312.617615 316.064701 327.705753 
C 309.814989 342.793891 306.598082 358.966373 306.598082 375.297656 
C 306.598082 391.628939 309.814989 407.801421 316.064701 422.889559 
C 322.314412 437.977698 331.475387 451.688066 343.023348 463.236027 
C 354.571309 474.783988 368.281677 483.944963 383.369816 490.194674 
C 398.457954 496.444386 414.630436 499.661293 430.961719 499.661293 
C 447.293002 499.661293 463.465484 496.444386 478.553622 490.194674 
C 493.64176 483.944963 507.352128 474.783988 518.900089 463.236027 
C 530.44805 451.688066 539.609026 437.977698 545.858737 422.889559 
C 552.108448 407.801421 555.325355 391.628939 555.325355 375.297656 
" clip-path="url(#pc1e1cb8e2a)" style="fill: none; stroke: #b0b0b0; stroke-width: 0.1; stroke-linecap: square"/>
     </g>
    </g>
    <g id="ytick_23">
     <g id="line2d_38">
      <path d="M 617.507173 375.297656 
C 617.507173 350.800732 612.681813 326.542009 603.307246 303.909801 
C 593.932679 281.277594 580.191216 260.712042 562.869275 243.3901 
C 545.547333 226.068159 524.981781 212.326696 502.349574 202.952129 
C 479.717366 193.577562 455.458643 188.752202 430.961719 188.752202 
C 406.464794 188.752202 382.206071 193.577562 359.573864 202.952129 
C 336.941657 212.326696 316.376104 226.068159 299.054163 243.3901 
C 281.732221 260.712042 267.990759 281.277594 258.616191 303.909801 
C 249.241624 326.542009 244.416264 350.800732 244.416264 375.297656 
C 244.416264 399.794581 249.241624 424.053304 258.616191 446.685511 
C 267.990759 469.317718 281.732221 489.883271 299.054163 507.205212 
C 316.376104 524.527154 336.941657 538.268616 359.573864 547.643184 
C 382.206071 557.017751 406.464794 561.843111 430.961719 561.843111 
C 455.458643 561.843111 479.717366 557.017751 502.349574 547.643184 
C 524.981781 538.268616 545.547333 524.527154 562.869275 507.205212 
C 580.191216 489.883271 593.932679 469.317718 603.307246 446.685511 
C 612.681813 424.053304 617.507173 399.794581 617.507173 375.297656 
" clip-path="url(#pc1e1cb8e2a)" style="fill: none; stroke: #b0b0b0; stroke-width: 0.1; stroke-linecap: square"/>
     </g>
    </g>
    <g id="ytick_24">
     <g id="line2d_39">
      <path d="M 679.688991 375.297656 
C 679.688991 342.63509 673.255178 310.290126 660.755755 280.11385 
C 648.256332 249.937573 629.934382 222.516837 606.83846 199.420915 
C 583.742538 176.324993 556.321802 158.003043 526.145525 145.50362 
C 495.969249 133.004197 463.624285 126.570384 430.961719 126.570384 
C 398.299153 126.570384 365.954189 133.004197 335.777912 145.50362 
C 305.601636 158.003043 278.1809 176.324993 255.084978 199.420915 
C 231.989055 222.516837 213.667105 249.937573 201.167682 280.11385 
C 188.668259 310.290126 182.234446 342.63509 182.234446 375.297656 
C 182.234446 407.960222 188.668259 440.305186 201.167682 470.481463 
C 213.667105 500.657739 231.989055 528.078475 255.084978 551.174397 
C 278.1809 574.27032 305.601636 592.59227 335.777912 605.091693 
C 365.954189 617.591116 398.299153 624.024929 430.961719 624.024929 
C 463.624285 624.024929 495.969249 617.591116 526.145525 605.091693 
C 556.321802 592.59227 583.742538 574.27032 606.83846 551.174397 
C 629.934382 528.078475 648.256332 500.657739 660.755755 470.481463 
C 673.255178 440.305186 679.688991 407.960222 679.688991 375.297656 
" clip-path="url(#pc1e1cb8e2a)" style="fill: none; stroke: #b0b0b0; stroke-width: 0.1; stroke-linecap: square"/>
     </g>
    </g>
    <g id="ytick_25">
     <g id="line2d_40">
      <path d="M 741.87081 375.297656 
C 741.87081 334.469449 733.828543 294.038244 718.204264 256.317898 
C 702.579986 218.597553 679.677548 184.321632 650.807645 155.45173 
C 621.937743 126.581827 587.661822 103.679389 549.941477 88.055111 
C 512.221131 72.430832 471.789926 64.388565 430.961719 64.388565 
C 390.133511 64.388565 349.702306 72.430832 311.981961 88.055111 
C 274.261615 103.679389 239.985695 126.581827 211.115792 155.45173 
C 182.24589 184.321632 159.343452 218.597553 143.719173 256.317898 
C 128.094895 294.038244 120.052628 334.469449 120.052628 375.297656 
C 120.052628 416.125864 128.094895 456.557069 143.719173 494.277414 
C 159.343452 531.99776 182.24589 566.27368 211.115792 595.143583 
C 239.985695 624.013485 274.261615 646.915923 311.981961 662.540202 
C 349.702306 678.16448 390.133511 686.206747 430.961719 686.206747 
C 471.789926 686.206747 512.221131 678.16448 549.941477 662.540202 
C 587.661822 646.915923 621.937743 624.013485 650.807645 595.143583 
C 679.677548 566.27368 702.579986 531.99776 718.204264 494.277414 
C 733.828543 456.557069 741.87081 416.125864 741.87081 375.297656 
" clip-path="url(#pc1e1cb8e2a)" style="fill: none; stroke: #b0b0b0; stroke-width: 0.1; stroke-linecap: square"/>
     </g>
     <g id="text_21">
      <!-- 46.0 -->
      <g transform="translate(565.860118 651.257693) scale(0.2 -0.2)">
       <use xlink:href="#DejaVuSans-34"/>
       <use xlink:href="#DejaVuSans-36" x="63.623047"/>
       <use xlink:href="#DejaVuSans-2e" x="127.246094"/>
       <use xlink:href="#DejaVuSans-30" x="159.033203"/>
      </g>
     </g>
    </g>
   </g>
  </g>
  <g id="axes_6">
   <g id="matplotlib.axis_7">
    <g id="ytick_26">
     <g id="line2d_41">
      <path d="M 493.143537 375.297656 
C 493.143537 367.132015 491.535084 359.045774 488.410228 351.501705 
C 485.285372 343.957636 480.704885 337.102451 474.930904 331.328471 
C 469.156924 325.55449 462.301739 320.974003 454.75767 317.849147 
C 447.213601 314.724291 439.12736 313.115838 430.961719 313.115838 
C 422.796077 313.115838 414.709836 314.724291 407.165767 317.849147 
C 399.621698 320.974003 392.766514 325.55449 386.992533 331.328471 
C 381.218553 337.102451 376.638065 343.957636 373.51321 351.501705 
C 370.388354 359.045774 368.779901 367.132015 368.779901 375.297656 
C 368.779901 383.463298 370.388354 391.549539 373.51321 399.093608 
C 376.638065 406.637677 381.218553 413.492861 386.992533 419.266842 
C 392.766514 425.040822 399.621698 429.62131 407.165767 432.746165 
C 414.709836 435.871021 422.796077 437.479474 430.961719 437.479474 
C 439.12736 437.479474 447.213601 435.871021 454.75767 432.746165 
C 462.301739 429.62131 469.156924 425.040822 474.930904 419.266842 
C 480.704885 413.492861 485.285372 406.637677 488.410228 399.093608 
C 491.535084 391.549539 493.143537 383.463298 493.143537 375.297656 
" clip-path="url(#p2f8ce18188)" style="fill: none; stroke: #b0b0b0; stroke-width: 0.1; stroke-linecap: square"/>
     </g>
     <g id="text_22">
      <!-- 38.0 -->
      <g transform="translate(491.584509 384.975038) scale(0.2 -0.2)">
       <use xlink:href="#DejaVuSans-33"/>
       <use xlink:href="#DejaVuSans-38" x="63.623047"/>
       <use xlink:href="#DejaVuSans-2e" x="127.246094"/>
       <use xlink:href="#DejaVuSans-30" x="159.033203"/>
      </g>
     </g>
    </g>
    <g id="ytick_27">
     <g id="line2d_42">
      <path d="M 555.325355 375.297656 
C 555.325355 358.966373 552.108448 342.793891 545.858737 327.705753 
C 539.609026 312.617615 530.44805 298.907247 518.900089 287.359286 
C 507.352128 275.811325 493.64176 266.650349 478.553622 260.400638 
C 463.465484 254.150927 447.293002 250.93402 430.961719 250.93402 
C 414.630436 250.93402 398.457954 254.150927 383.369816 260.400638 
C 368.281677 266.650349 354.571309 275.811325 343.023348 287.359286 
C 331.475387 298.907247 322.314412 312.617615 316.064701 327.705753 
C 309.814989 342.793891 306.598082 358.966373 306.598082 375.297656 
C 306.598082 391.628939 309.814989 407.801421 316.064701 422.889559 
C 322.314412 437.977698 331.475387 451.688066 343.023348 463.236027 
C 354.571309 474.783988 368.281677 483.944963 383.369816 490.194674 
C 398.457954 496.444386 414.630436 499.661293 430.961719 499.661293 
C 447.293002 499.661293 463.465484 496.444386 478.553622 490.194674 
C 493.64176 483.944963 507.352128 474.783988 518.900089 463.236027 
C 530.44805 451.688066 539.609026 437.977698 545.858737 422.889559 
C 552.108448 407.801421 555.325355 391.628939 555.325355 375.297656 
" clip-path="url(#p2f8ce18188)" style="fill: none; stroke: #b0b0b0; stroke-width: 0.1; stroke-linecap: square"/>
     </g>
    </g>
    <g id="ytick_28">
     <g id="line2d_43">
      <path d="M 617.507173 375.297656 
C 617.507173 350.800732 612.681813 326.542009 603.307246 303.909801 
C 593.932679 281.277594 580.191216 260.712042 562.869275 243.3901 
C 545.547333 226.068159 524.981781 212.326696 502.349574 202.952129 
C 479.717366 193.577562 455.458643 188.752202 430.961719 188.752202 
C 406.464794 188.752202 382.206071 193.577562 359.573864 202.952129 
C 336.941657 212.326696 316.376104 226.068159 299.054163 243.3901 
C 281.732221 260.712042 267.990759 281.277594 258.616191 303.909801 
C 249.241624 326.542009 244.416264 350.800732 244.416264 375.297656 
C 244.416264 399.794581 249.241624 424.053304 258.616191 446.685511 
C 267.990759 469.317718 281.732221 489.883271 299.054163 507.205212 
C 316.376104 524.527154 336.941657 538.268616 359.573864 547.643184 
C 382.206071 557.017751 406.464794 561.843111 430.961719 561.843111 
C 455.458643 561.843111 479.717366 557.017751 502.349574 547.643184 
C 524.981781 538.268616 545.547333 524.527154 562.869275 507.205212 
C 580.191216 489.883271 593.932679 469.317718 603.307246 446.685511 
C 612.681813 424.053304 617.507173 399.794581 617.507173 375.297656 
" clip-path="url(#p2f8ce18188)" style="fill: none; stroke: #b0b0b0; stroke-width: 0.1; stroke-linecap: square"/>
     </g>
    </g>
    <g id="ytick_29">
     <g id="line2d_44">
      <path d="M 679.688991 375.297656 
C 679.688991 342.63509 673.255178 310.290126 660.755755 280.11385 
C 648.256332 249.937573 629.934382 222.516837 606.83846 199.420915 
C 583.742538 176.324993 556.321802 158.003043 526.145525 145.50362 
C 495.969249 133.004197 463.624285 126.570384 430.961719 126.570384 
C 398.299153 126.570384 365.954189 133.004197 335.777912 145.50362 
C 305.601636 158.003043 278.1809 176.324993 255.084978 199.420915 
C 231.989055 222.516837 213.667105 249.937573 201.167682 280.11385 
C 188.668259 310.290126 182.234446 342.63509 182.234446 375.297656 
C 182.234446 407.960222 188.668259 440.305186 201.167682 470.481463 
C 213.667105 500.657739 231.989055 528.078475 255.084978 551.174397 
C 278.1809 574.27032 305.601636 592.59227 335.777912 605.091693 
C 365.954189 617.591116 398.299153 624.024929 430.961719 624.024929 
C 463.624285 624.024929 495.969249 617.591116 526.145525 605.091693 
C 556.321802 592.59227 583.742538 574.27032 606.83846 551.174397 
C 629.934382 528.078475 648.256332 500.657739 660.755755 470.481463 
C 673.255178 440.305186 679.688991 407.960222 679.688991 375.297656 
" clip-path="url(#p2f8ce18188)" style="fill: none; stroke: #b0b0b0; stroke-width: 0.1; stroke-linecap: square"/>
     </g>
    </g>
    <g id="ytick_30">
     <g id="line2d_45">
      <path d="M 741.87081 375.297656 
C 741.87081 334.469449 733.828543 294.038244 718.204264 256.317898 
C 702.579986 218.597553 679.677548 184.321632 650.807645 155.45173 
C 621.937743 126.581827 587.661822 103.679389 549.941477 88.055111 
C 512.221131 72.430832 471.789926 64.388565 430.961719 64.388565 
C 390.133511 64.388565 349.702306 72.430832 311.981961 88.055111 
C 274.261615 103.679389 239.985695 126.581827 211.115792 155.45173 
C 182.24589 184.321632 159.343452 218.597553 143.719173 256.317898 
C 128.094895 294.038244 120.052628 334.469449 120.052628 375.297656 
C 120.052628 416.125864 128.094895 456.557069 143.719173 494.277414 
C 159.343452 531.99776 182.24589 566.27368 211.115792 595.143583 
C 239.985695 624.013485 274.261615 646.915923 311.981961 662.540202 
C 349.702306 678.16448 390.133511 686.206747 430.961719 686.206747 
C 471.789926 686.206747 512.221131 678.16448 549.941477 662.540202 
C 587.661822 646.915923 621.937743 624.013485 650.807645 595.143583 
C 679.677548 566.27368 702.579986 531.99776 718.204264 494.277414 
C 733.828543 456.557069 741.87081 416.125864 741.87081 375.297656 
" clip-path="url(#p2f8ce18188)" style="fill: none; stroke: #b0b0b0; stroke-width: 0.1; stroke-linecap: square"/>
     </g>
     <g id="text_23">
      <!-- 28.0 -->
      <g transform="translate(734.07567 440.322063) scale(0.2 -0.2)">
       <use xlink:href="#DejaVuSans-32"/>
       <use xlink:href="#DejaVuSans-38" x="63.623047"/>
       <use xlink:href="#DejaVuSans-2e" x="127.246094"/>
       <use xlink:href="#DejaVuSans-30" x="159.033203"/>
      </g>
     </g>
    </g>
   </g>
  </g>
  <g id="axes_7">
   <g id="matplotlib.axis_8">
    <g id="ytick_31">
     <g id="line2d_46">
      <path d="M 493.143537 375.297656 
C 493.143537 367.132015 491.535084 359.045774 488.410228 351.501705 
C 485.285372 343.957636 480.704885 337.102451 474.930904 331.328471 
C 469.156924 325.55449 462.301739 320.974003 454.75767 317.849147 
C 447.213601 314.724291 439.12736 313.115838 430.961719 313.115838 
C 422.796077 313.115838 414.709836 314.724291 407.165767 317.849147 
C 399.621698 320.974003 392.766514 325.55449 386.992533 331.328471 
C 381.218553 337.102451 376.638065 343.957636 373.51321 351.501705 
C 370.388354 359.045774 368.779901 367.132015 368.779901 375.297656 
C 368.779901 383.463298 370.388354 391.549539 373.51321 399.093608 
C 376.638065 406.637677 381.218553 413.492861 386.992533 419.266842 
C 392.766514 425.040822 399.621698 429.62131 407.165767 432.746165 
C 414.709836 435.871021 422.796077 437.479474 430.961719 437.479474 
C 439.12736 437.479474 447.213601 435.871021 454.75767 432.746165 
C 462.301739 429.62131 469.156924 425.040822 474.930904 419.266842 
C 480.704885 413.492861 485.285372 406.637677 488.410228 399.093608 
C 491.535084 391.549539 493.143537 383.463298 493.143537 375.297656 
" clip-path="url(#p8c571c1280)" style="fill: none; stroke: #b0b0b0; stroke-width: 0.1; stroke-linecap: square"/>
     </g>
     <g id="text_24">
      <!-- 75.0 -->
      <g transform="translate(479.577422 332.368552) scale(0.2 -0.2)">
       <use xlink:href="#DejaVuSans-37"/>
       <use xlink:href="#DejaVuSans-35" x="63.623047"/>
       <use xlink:href="#DejaVuSans-2e" x="127.246094"/>
       <use xlink:href="#DejaVuSans-30" x="159.033203"/>
      </g>
     </g>
    </g>
    <g id="ytick_32">
     <g id="line2d_47">
      <path d="M 555.325355 375.297656 
C 555.325355 358.966373 552.108448 342.793891 545.858737 327.705753 
C 539.609026 312.617615 530.44805 298.907247 518.900089 287.359286 
C 507.352128 275.811325 493.64176 266.650349 478.553622 260.400638 
C 463.465484 254.150927 447.293002 250.93402 430.961719 250.93402 
C 414.630436 250.93402 398.457954 254.150927 383.369816 260.400638 
C 368.281677 266.650349 354.571309 275.811325 343.023348 287.359286 
C 331.475387 298.907247 322.314412 312.617615 316.064701 327.705753 
C 309.814989 342.793891 306.598082 358.966373 306.598082 375.297656 
C 306.598082 391.628939 309.814989 407.801421 316.064701 422.889559 
C 322.314412 437.977698 331.475387 451.688066 343.023348 463.236027 
C 354.571309 474.783988 368.281677 483.944963 383.369816 490.194674 
C 398.457954 496.444386 414.630436 499.661293 430.961719 499.661293 
C 447.293002 499.661293 463.465484 496.444386 478.553622 490.194674 
C 493.64176 483.944963 507.352128 474.783988 518.900089 463.236027 
C 530.44805 451.688066 539.609026 437.977698 545.858737 422.889559 
C 552.108448 407.801421 555.325355 391.628939 555.325355 375.297656 
" clip-path="url(#p8c571c1280)" style="fill: none; stroke: #b0b0b0; stroke-width: 0.1; stroke-linecap: square"/>
     </g>
    </g>
    <g id="ytick_33">
     <g id="line2d_48">
      <path d="M 617.507173 375.297656 
C 617.507173 350.800732 612.681813 326.542009 603.307246 303.909801 
C 593.932679 281.277594 580.191216 260.712042 562.869275 243.3901 
C 545.547333 226.068159 524.981781 212.326696 502.349574 202.952129 
C 479.717366 193.577562 455.458643 188.752202 430.961719 188.752202 
C 406.464794 188.752202 382.206071 193.577562 359.573864 202.952129 
C 336.941657 212.326696 316.376104 226.068159 299.054163 243.3901 
C 281.732221 260.712042 267.990759 281.277594 258.616191 303.909801 
C 249.241624 326.542009 244.416264 350.800732 244.416264 375.297656 
C 244.416264 399.794581 249.241624 424.053304 258.616191 446.685511 
C 267.990759 469.317718 281.732221 489.883271 299.054163 507.205212 
C 316.376104 524.527154 336.941657 538.268616 359.573864 547.643184 
C 382.206071 557.017751 406.464794 561.843111 430.961719 561.843111 
C 455.458643 561.843111 479.717366 557.017751 502.349574 547.643184 
C 524.981781 538.268616 545.547333 524.527154 562.869275 507.205212 
C 580.191216 489.883271 593.932679 469.317718 603.307246 446.685511 
C 612.681813 424.053304 617.507173 399.794581 617.507173 375.297656 
" clip-path="url(#p8c571c1280)" style="fill: none; stroke: #b0b0b0; stroke-width: 0.1; stroke-linecap: square"/>
     </g>
    </g>
    <g id="ytick_34">
     <g id="line2d_49">
      <path d="M 679.688991 375.297656 
C 679.688991 342.63509 673.255178 310.290126 660.755755 280.11385 
C 648.256332 249.937573 629.934382 222.516837 606.83846 199.420915 
C 583.742538 176.324993 556.321802 158.003043 526.145525 145.50362 
C 495.969249 133.004197 463.624285 126.570384 430.961719 126.570384 
C 398.299153 126.570384 365.954189 133.004197 335.777912 145.50362 
C 305.601636 158.003043 278.1809 176.324993 255.084978 199.420915 
C 231.989055 222.516837 213.667105 249.937573 201.167682 280.11385 
C 188.668259 310.290126 182.234446 342.63509 182.234446 375.297656 
C 182.234446 407.960222 188.668259 440.305186 201.167682 470.481463 
C 213.667105 500.657739 231.989055 528.078475 255.084978 551.174397 
C 278.1809 574.27032 305.601636 592.59227 335.777912 605.091693 
C 365.954189 617.591116 398.299153 624.024929 430.961719 624.024929 
C 463.624285 624.024929 495.969249 617.591116 526.145525 605.091693 
C 556.321802 592.59227 583.742538 574.27032 606.83846 551.174397 
C 629.934382 528.078475 648.256332 500.657739 660.755755 470.481463 
C 673.255178 440.305186 679.688991 407.960222 679.688991 375.297656 
" clip-path="url(#p8c571c1280)" style="fill: none; stroke: #b0b0b0; stroke-width: 0.1; stroke-linecap: square"/>
     </g>
    </g>
    <g id="ytick_35">
     <g id="line2d_50">
      <path d="M 741.87081 375.297656 
C 741.87081 334.469449 733.828543 294.038244 718.204264 256.317898 
C 702.579986 218.597553 679.677548 184.321632 650.807645 155.45173 
C 621.937743 126.581827 587.661822 103.679389 549.941477 88.055111 
C 512.221131 72.430832 471.789926 64.388565 430.961719 64.388565 
C 390.133511 64.388565 349.702306 72.430832 311.981961 88.055111 
C 274.261615 103.679389 239.985695 126.581827 211.115792 155.45173 
C 182.24589 184.321632 159.343452 218.597553 143.719173 256.317898 
C 128.094895 294.038244 120.052628 334.469449 120.052628 375.297656 
C 120.052628 416.125864 128.094895 456.557069 143.719173 494.277414 
C 159.343452 531.99776 182.24589 566.27368 211.115792 595.143583 
C 239.985695 624.013485 274.261615 646.915923 311.981961 662.540202 
C 349.702306 678.16448 390.133511 686.206747 430.961719 686.206747 
C 471.789926 686.206747 512.221131 678.16448 549.941477 662.540202 
C 587.661822 646.915923 621.937743 624.013485 650.807645 595.143583 
C 679.677548 566.27368 702.579986 531.99776 718.204264 494.277414 
C 733.828543 456.557069 741.87081 416.125864 741.87081 375.297656 
" clip-path="url(#p8c571c1280)" style="fill: none; stroke: #b0b0b0; stroke-width: 0.1; stroke-linecap: square"/>
     </g>
     <g id="text_25">
      <!-- 30.0 -->
      <g transform="translate(674.040234 177.289634) scale(0.2 -0.2)">
       <use xlink:href="#DejaVuSans-33"/>
       <use xlink:href="#DejaVuSans-30" x="63.623047"/>
       <use xlink:href="#DejaVuSans-2e" x="127.246094"/>
       <use xlink:href="#DejaVuSans-30" x="159.033203"/>
      </g>
     </g>
    </g>
   </g>
  </g>
 </g>
 <defs>
  <clipPath id="p36616ae934">
   <path d="M 772.961719 375.297656 
C 772.961719 330.386628 764.115225 285.912302 746.928519 244.419922 
C 729.741812 202.927542 704.549131 165.22403 672.792238 133.467137 
C 641.035345 101.710244 603.331833 76.517563 561.839453 59.330856 
C 520.347073 42.14415 475.872747 33.297656 430.961719 33.297656 
C 386.05069 33.297656 341.576365 42.14415 300.083985 59.330856 
C 258.591605 76.517563 220.888092 101.710244 189.1312 133.467137 
C 157.374307 165.22403 132.181625 202.927542 114.994919 244.419922 
C 97.808212 285.912302 88.961719 330.386628 88.961719 375.297656 
C 88.961719 420.208685 97.808212 464.68301 114.994919 506.17539 
C 132.181625 547.66777 157.374307 585.371283 189.1312 617.128175 
C 220.888092 648.885068 258.591605 674.07775 300.083985 691.264456 
C 341.576365 708.451163 386.05069 717.297656 430.961719 717.297656 
C 475.872747 717.297656 520.347073 708.451163 561.839453 691.264456 
C 603.331833 674.07775 641.035345 648.885068 672.792238 617.128175 
C 704.549131 585.371283 729.741812 547.66777 746.928519 506.17539 
C 764.115225 464.68301 772.961719 420.208685 772.961719 375.297656 
M 430.961719 375.297656 
C 430.961719 375.297656 430.961719 375.297656 430.961719 375.297656 
C 430.961719 375.297656 430.961719 375.297656 430.961719 375.297656 
C 430.961719 375.297656 430.961719 375.297656 430.961719 375.297656 
C 430.961719 375.297656 430.961719 375.297656 430.961719 375.297656 
C 430.961719 375.297656 430.961719 375.297656 430.961719 375.297656 
C 430.961719 375.297656 430.961719 375.297656 430.961719 375.297656 
C 430.961719 375.297656 430.961719 375.297656 430.961719 375.297656 
C 430.961719 375.297656 430.961719 375.297656 430.961719 375.297656 
C 430.961719 375.297656 430.961719 375.297656 430.961719 375.297656 
C 430.961719 375.297656 430.961719 375.297656 430.961719 375.297656 
C 430.961719 375.297656 430.961719 375.297656 430.961719 375.297656 
C 430.961719 375.297656 430.961719 375.297656 430.961719 375.297656 
C 430.961719 375.297656 430.961719 375.297656 430.961719 375.297656 
C 430.961719 375.297656 430.961719 375.297656 430.961719 375.297656 
C 430.961719 375.297656 430.961719 375.297656 430.961719 375.297656 
C 430.961719 375.297656 430.961719 375.297656 430.961719 375.297656 
M 772.961719 375.297656 
z
"/>
  </clipPath>
  <clipPath id="p036a98008f">
   <path d="M 772.961719 375.297656 
C 772.961719 330.386628 764.115225 285.912302 746.928519 244.419922 
C 729.741812 202.927542 704.549131 165.22403 672.792238 133.467137 
C 641.035345 101.710244 603.331833 76.517563 561.839453 59.330856 
C 520.347073 42.14415 475.872747 33.297656 430.961719 33.297656 
C 386.05069 33.297656 341.576365 42.14415 300.083985 59.330856 
C 258.591605 76.517563 220.888092 101.710244 189.1312 133.467137 
C 157.374307 165.22403 132.181625 202.927542 114.994919 244.419922 
C 97.808212 285.912302 88.961719 330.386628 88.961719 375.297656 
C 88.961719 420.208685 97.808212 464.68301 114.994919 506.17539 
C 132.181625 547.66777 157.374307 585.371283 189.1312 617.128175 
C 220.888092 648.885068 258.591605 674.07775 300.083985 691.264456 
C 341.576365 708.451163 386.05069 717.297656 430.961719 717.297656 
C 475.872747 717.297656 520.347073 708.451163 561.839453 691.264456 
C 603.331833 674.07775 641.035345 648.885068 672.792238 617.128175 
C 704.549131 585.371283 729.741812 547.66777 746.928519 506.17539 
C 764.115225 464.68301 772.961719 420.208685 772.961719 375.297656 
M 430.961719 375.297656 
C 430.961719 375.297656 430.961719 375.297656 430.961719 375.297656 
C 430.961719 375.297656 430.961719 375.297656 430.961719 375.297656 
C 430.961719 375.297656 430.961719 375.297656 430.961719 375.297656 
C 430.961719 375.297656 430.961719 375.297656 430.961719 375.297656 
C 430.961719 375.297656 430.961719 375.297656 430.961719 375.297656 
C 430.961719 375.297656 430.961719 375.297656 430.961719 375.297656 
C 430.961719 375.297656 430.961719 375.297656 430.961719 375.297656 
C 430.961719 375.297656 430.961719 375.297656 430.961719 375.297656 
C 430.961719 375.297656 430.961719 375.297656 430.961719 375.297656 
C 430.961719 375.297656 430.961719 375.297656 430.961719 375.297656 
C 430.961719 375.297656 430.961719 375.297656 430.961719 375.297656 
C 430.961719 375.297656 430.961719 375.297656 430.961719 375.297656 
C 430.961719 375.297656 430.961719 375.297656 430.961719 375.297656 
C 430.961719 375.297656 430.961719 375.297656 430.961719 375.297656 
C 430.961719 375.297656 430.961719 375.297656 430.961719 375.297656 
C 430.961719 375.297656 430.961719 375.297656 430.961719 375.297656 
M 772.961719 375.297656 
z
"/>
  </clipPath>
  <clipPath id="pbb9a868e53">
   <path d="M 772.961719 375.297656 
C 772.961719 330.386628 764.115225 285.912302 746.928519 244.419922 
C 729.741812 202.927542 704.549131 165.22403 672.792238 133.467137 
C 641.035345 101.710244 603.331833 76.517563 561.839453 59.330856 
C 520.347073 42.14415 475.872747 33.297656 430.961719 33.297656 
C 386.05069 33.297656 341.576365 42.14415 300.083985 59.330856 
C 258.591605 76.517563 220.888092 101.710244 189.1312 133.467137 
C 157.374307 165.22403 132.181625 202.927542 114.994919 244.419922 
C 97.808212 285.912302 88.961719 330.386628 88.961719 375.297656 
C 88.961719 420.208685 97.808212 464.68301 114.994919 506.17539 
C 132.181625 547.66777 157.374307 585.371283 189.1312 617.128175 
C 220.888092 648.885068 258.591605 674.07775 300.083985 691.264456 
C 341.576365 708.451163 386.05069 717.297656 430.961719 717.297656 
C 475.872747 717.297656 520.347073 708.451163 561.839453 691.264456 
C 603.331833 674.07775 641.035345 648.885068 672.792238 617.128175 
C 704.549131 585.371283 729.741812 547.66777 746.928519 506.17539 
C 764.115225 464.68301 772.961719 420.208685 772.961719 375.297656 
M 430.961719 375.297656 
C 430.961719 375.297656 430.961719 375.297656 430.961719 375.297656 
C 430.961719 375.297656 430.961719 375.297656 430.961719 375.297656 
C 430.961719 375.297656 430.961719 375.297656 430.961719 375.297656 
C 430.961719 375.297656 430.961719 375.297656 430.961719 375.297656 
C 430.961719 375.297656 430.961719 375.297656 430.961719 375.297656 
C 430.961719 375.297656 430.961719 375.297656 430.961719 375.297656 
C 430.961719 375.297656 430.961719 375.297656 430.961719 375.297656 
C 430.961719 375.297656 430.961719 375.297656 430.961719 375.297656 
C 430.961719 375.297656 430.961719 375.297656 430.961719 375.297656 
C 430.961719 375.297656 430.961719 375.297656 430.961719 375.297656 
C 430.961719 375.297656 430.961719 375.297656 430.961719 375.297656 
C 430.961719 375.297656 430.961719 375.297656 430.961719 375.297656 
C 430.961719 375.297656 430.961719 375.297656 430.961719 375.297656 
C 430.961719 375.297656 430.961719 375.297656 430.961719 375.297656 
C 430.961719 375.297656 430.961719 375.297656 430.961719 375.297656 
C 430.961719 375.297656 430.961719 375.297656 430.961719 375.297656 
M 772.961719 375.297656 
z
"/>
  </clipPath>
  <clipPath id="pf6aa6db547">
   <path d="M 772.961719 375.297656 
C 772.961719 330.386628 764.115225 285.912302 746.928519 244.419922 
C 729.741812 202.927542 704.549131 165.22403 672.792238 133.467137 
C 641.035345 101.710244 603.331833 76.517563 561.839453 59.330856 
C 520.347073 42.14415 475.872747 33.297656 430.961719 33.297656 
C 386.05069 33.297656 341.576365 42.14415 300.083985 59.330856 
C 258.591605 76.517563 220.888092 101.710244 189.1312 133.467137 
C 157.374307 165.22403 132.181625 202.927542 114.994919 244.419922 
C 97.808212 285.912302 88.961719 330.386628 88.961719 375.297656 
C 88.961719 420.208685 97.808212 464.68301 114.994919 506.17539 
C 132.181625 547.66777 157.374307 585.371283 189.1312 617.128175 
C 220.888092 648.885068 258.591605 674.07775 300.083985 691.264456 
C 341.576365 708.451163 386.05069 717.297656 430.961719 717.297656 
C 475.872747 717.297656 520.347073 708.451163 561.839453 691.264456 
C 603.331833 674.07775 641.035345 648.885068 672.792238 617.128175 
C 704.549131 585.371283 729.741812 547.66777 746.928519 506.17539 
C 764.115225 464.68301 772.961719 420.208685 772.961719 375.297656 
M 430.961719 375.297656 
C 430.961719 375.297656 430.961719 375.297656 430.961719 375.297656 
C 430.961719 375.297656 430.961719 375.297656 430.961719 375.297656 
C 430.961719 375.297656 430.961719 375.297656 430.961719 375.297656 
C 430.961719 375.297656 430.961719 375.297656 430.961719 375.297656 
C 430.961719 375.297656 430.961719 375.297656 430.961719 375.297656 
C 430.961719 375.297656 430.961719 375.297656 430.961719 375.297656 
C 430.961719 375.297656 430.961719 375.297656 430.961719 375.297656 
C 430.961719 375.297656 430.961719 375.297656 430.961719 375.297656 
C 430.961719 375.297656 430.961719 375.297656 430.961719 375.297656 
C 430.961719 375.297656 430.961719 375.297656 430.961719 375.297656 
C 430.961719 375.297656 430.961719 375.297656 430.961719 375.297656 
C 430.961719 375.297656 430.961719 375.297656 430.961719 375.297656 
C 430.961719 375.297656 430.961719 375.297656 430.961719 375.297656 
C 430.961719 375.297656 430.961719 375.297656 430.961719 375.297656 
C 430.961719 375.297656 430.961719 375.297656 430.961719 375.297656 
C 430.961719 375.297656 430.961719 375.297656 430.961719 375.297656 
M 772.961719 375.297656 
z
"/>
  </clipPath>
  <clipPath id="pc1e1cb8e2a">
   <path d="M 772.961719 375.297656 
C 772.961719 330.386628 764.115225 285.912302 746.928519 244.419922 
C 729.741812 202.927542 704.549131 165.22403 672.792238 133.467137 
C 641.035345 101.710244 603.331833 76.517563 561.839453 59.330856 
C 520.347073 42.14415 475.872747 33.297656 430.961719 33.297656 
C 386.05069 33.297656 341.576365 42.14415 300.083985 59.330856 
C 258.591605 76.517563 220.888092 101.710244 189.1312 133.467137 
C 157.374307 165.22403 132.181625 202.927542 114.994919 244.419922 
C 97.808212 285.912302 88.961719 330.386628 88.961719 375.297656 
C 88.961719 420.208685 97.808212 464.68301 114.994919 506.17539 
C 132.181625 547.66777 157.374307 585.371283 189.1312 617.128175 
C 220.888092 648.885068 258.591605 674.07775 300.083985 691.264456 
C 341.576365 708.451163 386.05069 717.297656 430.961719 717.297656 
C 475.872747 717.297656 520.347073 708.451163 561.839453 691.264456 
C 603.331833 674.07775 641.035345 648.885068 672.792238 617.128175 
C 704.549131 585.371283 729.741812 547.66777 746.928519 506.17539 
C 764.115225 464.68301 772.961719 420.208685 772.961719 375.297656 
M 430.961719 375.297656 
C 430.961719 375.297656 430.961719 375.297656 430.961719 375.297656 
C 430.961719 375.297656 430.961719 375.297656 430.961719 375.297656 
C 430.961719 375.297656 430.961719 375.297656 430.961719 375.297656 
C 430.961719 375.297656 430.961719 375.297656 430.961719 375.297656 
C 430.961719 375.297656 430.961719 375.297656 430.961719 375.297656 
C 430.961719 375.297656 430.961719 375.297656 430.961719 375.297656 
C 430.961719 375.297656 430.961719 375.297656 430.961719 375.297656 
C 430.961719 375.297656 430.961719 375.297656 430.961719 375.297656 
C 430.961719 375.297656 430.961719 375.297656 430.961719 375.297656 
C 430.961719 375.297656 430.961719 375.297656 430.961719 375.297656 
C 430.961719 375.297656 430.961719 375.297656 430.961719 375.297656 
C 430.961719 375.297656 430.961719 375.297656 430.961719 375.297656 
C 430.961719 375.297656 430.961719 375.297656 430.961719 375.297656 
C 430.961719 375.297656 430.961719 375.297656 430.961719 375.297656 
C 430.961719 375.297656 430.961719 375.297656 430.961719 375.297656 
C 430.961719 375.297656 430.961719 375.297656 430.961719 375.297656 
M 772.961719 375.297656 
z
"/>
  </clipPath>
  <clipPath id="p2f8ce18188">
   <path d="M 772.961719 375.297656 
C 772.961719 330.386628 764.115225 285.912302 746.928519 244.419922 
C 729.741812 202.927542 704.549131 165.22403 672.792238 133.467137 
C 641.035345 101.710244 603.331833 76.517563 561.839453 59.330856 
C 520.347073 42.14415 475.872747 33.297656 430.961719 33.297656 
C 386.05069 33.297656 341.576365 42.14415 300.083985 59.330856 
C 258.591605 76.517563 220.888092 101.710244 189.1312 133.467137 
C 157.374307 165.22403 132.181625 202.927542 114.994919 244.419922 
C 97.808212 285.912302 88.961719 330.386628 88.961719 375.297656 
C 88.961719 420.208685 97.808212 464.68301 114.994919 506.17539 
C 132.181625 547.66777 157.374307 585.371283 189.1312 617.128175 
C 220.888092 648.885068 258.591605 674.07775 300.083985 691.264456 
C 341.576365 708.451163 386.05069 717.297656 430.961719 717.297656 
C 475.872747 717.297656 520.347073 708.451163 561.839453 691.264456 
C 603.331833 674.07775 641.035345 648.885068 672.792238 617.128175 
C 704.549131 585.371283 729.741812 547.66777 746.928519 506.17539 
C 764.115225 464.68301 772.961719 420.208685 772.961719 375.297656 
M 430.961719 375.297656 
C 430.961719 375.297656 430.961719 375.297656 430.961719 375.297656 
C 430.961719 375.297656 430.961719 375.297656 430.961719 375.297656 
C 430.961719 375.297656 430.961719 375.297656 430.961719 375.297656 
C 430.961719 375.297656 430.961719 375.297656 430.961719 375.297656 
C 430.961719 375.297656 430.961719 375.297656 430.961719 375.297656 
C 430.961719 375.297656 430.961719 375.297656 430.961719 375.297656 
C 430.961719 375.297656 430.961719 375.297656 430.961719 375.297656 
C 430.961719 375.297656 430.961719 375.297656 430.961719 375.297656 
C 430.961719 375.297656 430.961719 375.297656 430.961719 375.297656 
C 430.961719 375.297656 430.961719 375.297656 430.961719 375.297656 
C 430.961719 375.297656 430.961719 375.297656 430.961719 375.297656 
C 430.961719 375.297656 430.961719 375.297656 430.961719 375.297656 
C 430.961719 375.297656 430.961719 375.297656 430.961719 375.297656 
C 430.961719 375.297656 430.961719 375.297656 430.961719 375.297656 
C 430.961719 375.297656 430.961719 375.297656 430.961719 375.297656 
C 430.961719 375.297656 430.961719 375.297656 430.961719 375.297656 
M 772.961719 375.297656 
z
"/>
  </clipPath>
  <clipPath id="p8c571c1280">
   <path d="M 772.961719 375.297656 
C 772.961719 330.386628 764.115225 285.912302 746.928519 244.419922 
C 729.741812 202.927542 704.549131 165.22403 672.792238 133.467137 
C 641.035345 101.710244 603.331833 76.517563 561.839453 59.330856 
C 520.347073 42.14415 475.872747 33.297656 430.961719 33.297656 
C 386.05069 33.297656 341.576365 42.14415 300.083985 59.330856 
C 258.591605 76.517563 220.888092 101.710244 189.1312 133.467137 
C 157.374307 165.22403 132.181625 202.927542 114.994919 244.419922 
C 97.808212 285.912302 88.961719 330.386628 88.961719 375.297656 
C 88.961719 420.208685 97.808212 464.68301 114.994919 506.17539 
C 132.181625 547.66777 157.374307 585.371283 189.1312 617.128175 
C 220.888092 648.885068 258.591605 674.07775 300.083985 691.264456 
C 341.576365 708.451163 386.05069 717.297656 430.961719 717.297656 
C 475.872747 717.297656 520.347073 708.451163 561.839453 691.264456 
C 603.331833 674.07775 641.035345 648.885068 672.792238 617.128175 
C 704.549131 585.371283 729.741812 547.66777 746.928519 506.17539 
C 764.115225 464.68301 772.961719 420.208685 772.961719 375.297656 
M 430.961719 375.297656 
C 430.961719 375.297656 430.961719 375.297656 430.961719 375.297656 
C 430.961719 375.297656 430.961719 375.297656 430.961719 375.297656 
C 430.961719 375.297656 430.961719 375.297656 430.961719 375.297656 
C 430.961719 375.297656 430.961719 375.297656 430.961719 375.297656 
C 430.961719 375.297656 430.961719 375.297656 430.961719 375.297656 
C 430.961719 375.297656 430.961719 375.297656 430.961719 375.297656 
C 430.961719 375.297656 430.961719 375.297656 430.961719 375.297656 
C 430.961719 375.297656 430.961719 375.297656 430.961719 375.297656 
C 430.961719 375.297656 430.961719 375.297656 430.961719 375.297656 
C 430.961719 375.297656 430.961719 375.297656 430.961719 375.297656 
C 430.961719 375.297656 430.961719 375.297656 430.961719 375.297656 
C 430.961719 375.297656 430.961719 375.297656 430.961719 375.297656 
C 430.961719 375.297656 430.961719 375.297656 430.961719 375.297656 
C 430.961719 375.297656 430.961719 375.297656 430.961719 375.297656 
C 430.961719 375.297656 430.961719 375.297656 430.961719 375.297656 
C 430.961719 375.297656 430.961719 375.297656 430.961719 375.297656 
M 772.961719 375.297656 
z
"/>
  </clipPath>
 </defs>
</svg>
