<?xml version="1.0" encoding="utf-8" standalone="no"?>
<!DOCTYPE svg PUBLIC "-//W3C//DTD SVG 1.1//EN"
  "http://www.w3.org/Graphics/SVG/1.1/DTD/svg11.dtd">
<svg xmlns:xlink="http://www.w3.org/1999/xlink" width="857.7625pt" height="707.825675pt" viewBox="0 0 857.7625 707.825675" xmlns="http://www.w3.org/2000/svg" version="1.1">
 <metadata>
  <rdf:RDF xmlns:dc="http://purl.org/dc/elements/1.1/" xmlns:cc="http://creativecommons.org/ns#" xmlns:rdf="http://www.w3.org/1999/02/22-rdf-syntax-ns#">
   <cc:Work>
    <dc:type rdf:resource="http://purl.org/dc/dcmitype/StillImage"/>
    <dc:date>2024-10-23T17:23:41.913901</dc:date>
    <dc:format>image/svg+xml</dc:format>
    <dc:creator>
     <cc:Agent>
      <dc:title>Matplotlib v3.8.0, https://matplotlib.org/</dc:title>
     </cc:Agent>
    </dc:creator>
   </cc:Work>
  </rdf:RDF>
 </metadata>
 <defs>
  <style type="text/css">*{stroke-linejoin: round; stroke-linecap: butt}</style>
 </defs>
 <g id="figure_1">
  <g id="patch_1">
   <path d="M 0 707.825675 
L 857.7625 707.825675 
L 857.7625 0 
L 0 0 
L 0 707.825675 
z
" style="fill: none"/>
  </g>
  <g id="axes_1">
   <g id="patch_2">
    <path d="M 69.3625 561.6 
L 850.5625 561.6 
L 850.5625 7.2 
L 69.3625 7.2 
L 69.3625 561.6 
z
" style="fill: none"/>
   </g>
   <g id="matplotlib.axis_1">
    <g id="xtick_1">
     <g id="text_1">
      <!-- MSA -->
      <g style="fill: #262626" transform="translate(104.788986 610.465141) rotate(-45) scale(0.2 -0.2)">
       <defs>
        <path id="DejaVuSans-4d" d="M 628 4666 
L 1569 4666 
L 2759 1491 
L 3956 4666 
L 4897 4666 
L 4897 0 
L 4281 0 
L 4281 4097 
L 3078 897 
L 2444 897 
L 1241 4097 
L 1241 0 
L 628 0 
L 628 4666 
z
" transform="scale(0.015625)"/>
        <path id="DejaVuSans-53" d="M 3425 4513 
L 3425 3897 
Q 3066 4069 2747 4153 
Q 2428 4238 2131 4238 
Q 1616 4238 1336 4038 
Q 1056 3838 1056 3469 
Q 1056 3159 1242 3001 
Q 1428 2844 1947 2747 
L 2328 2669 
Q 3034 2534 3370 2195 
Q 3706 1856 3706 1288 
Q 3706 609 3251 259 
Q 2797 -91 1919 -91 
Q 1588 -91 1214 -16 
Q 841 59 441 206 
L 441 856 
Q 825 641 1194 531 
Q 1563 422 1919 422 
Q 2459 422 2753 634 
Q 3047 847 3047 1241 
Q 3047 1584 2836 1778 
Q 2625 1972 2144 2069 
L 1759 2144 
Q 1053 2284 737 2584 
Q 422 2884 422 3419 
Q 422 4038 858 4394 
Q 1294 4750 2059 4750 
Q 2388 4750 2728 4690 
Q 3069 4631 3425 4513 
z
" transform="scale(0.015625)"/>
        <path id="DejaVuSans-41" d="M 2188 4044 
L 1331 1722 
L 3047 1722 
L 2188 4044 
z
M 1831 4666 
L 2547 4666 
L 4325 0 
L 3669 0 
L 3244 1197 
L 1141 1197 
L 716 0 
L 50 0 
L 1831 4666 
z
" transform="scale(0.015625)"/>
       </defs>
       <use xlink:href="#DejaVuSans-4d"/>
       <use xlink:href="#DejaVuSans-53" x="86.279297"/>
       <use xlink:href="#DejaVuSans-41" x="151.630859"/>
      </g>
     </g>
    </g>
    <g id="xtick_2">
     <g id="text_2">
      <!-- Template -->
      <g style="fill: #262626" transform="translate(182.97819 643.875936) rotate(-45) scale(0.2 -0.2)">
       <defs>
        <path id="DejaVuSans-54" d="M -19 4666 
L 3928 4666 
L 3928 4134 
L 2272 4134 
L 2272 0 
L 1638 0 
L 1638 4134 
L -19 4134 
L -19 4666 
z
" transform="scale(0.015625)"/>
        <path id="DejaVuSans-65" d="M 3597 1894 
L 3597 1613 
L 953 1613 
Q 991 1019 1311 708 
Q 1631 397 2203 397 
Q 2534 397 2845 478 
Q 3156 559 3463 722 
L 3463 178 
Q 3153 47 2828 -22 
Q 2503 -91 2169 -91 
Q 1331 -91 842 396 
Q 353 884 353 1716 
Q 353 2575 817 3079 
Q 1281 3584 2069 3584 
Q 2775 3584 3186 3129 
Q 3597 2675 3597 1894 
z
M 3022 2063 
Q 3016 2534 2758 2815 
Q 2500 3097 2075 3097 
Q 1594 3097 1305 2825 
Q 1016 2553 972 2059 
L 3022 2063 
z
" transform="scale(0.015625)"/>
        <path id="DejaVuSans-6d" d="M 3328 2828 
Q 3544 3216 3844 3400 
Q 4144 3584 4550 3584 
Q 5097 3584 5394 3201 
Q 5691 2819 5691 2113 
L 5691 0 
L 5113 0 
L 5113 2094 
Q 5113 2597 4934 2840 
Q 4756 3084 4391 3084 
Q 3944 3084 3684 2787 
Q 3425 2491 3425 1978 
L 3425 0 
L 2847 0 
L 2847 2094 
Q 2847 2600 2669 2842 
Q 2491 3084 2119 3084 
Q 1678 3084 1418 2786 
Q 1159 2488 1159 1978 
L 1159 0 
L 581 0 
L 581 3500 
L 1159 3500 
L 1159 2956 
Q 1356 3278 1631 3431 
Q 1906 3584 2284 3584 
Q 2666 3584 2933 3390 
Q 3200 3197 3328 2828 
z
" transform="scale(0.015625)"/>
        <path id="DejaVuSans-70" d="M 1159 525 
L 1159 -1331 
L 581 -1331 
L 581 3500 
L 1159 3500 
L 1159 2969 
Q 1341 3281 1617 3432 
Q 1894 3584 2278 3584 
Q 2916 3584 3314 3078 
Q 3713 2572 3713 1747 
Q 3713 922 3314 415 
Q 2916 -91 2278 -91 
Q 1894 -91 1617 61 
Q 1341 213 1159 525 
z
M 3116 1747 
Q 3116 2381 2855 2742 
Q 2594 3103 2138 3103 
Q 1681 3103 1420 2742 
Q 1159 2381 1159 1747 
Q 1159 1113 1420 752 
Q 1681 391 2138 391 
Q 2594 391 2855 752 
Q 3116 1113 3116 1747 
z
" transform="scale(0.015625)"/>
        <path id="DejaVuSans-6c" d="M 603 4863 
L 1178 4863 
L 1178 0 
L 603 0 
L 603 4863 
z
" transform="scale(0.015625)"/>
        <path id="DejaVuSans-61" d="M 2194 1759 
Q 1497 1759 1228 1600 
Q 959 1441 959 1056 
Q 959 750 1161 570 
Q 1363 391 1709 391 
Q 2188 391 2477 730 
Q 2766 1069 2766 1631 
L 2766 1759 
L 2194 1759 
z
M 3341 1997 
L 3341 0 
L 2766 0 
L 2766 531 
Q 2569 213 2275 61 
Q 1981 -91 1556 -91 
Q 1019 -91 701 211 
Q 384 513 384 1019 
Q 384 1609 779 1909 
Q 1175 2209 1959 2209 
L 2766 2209 
L 2766 2266 
Q 2766 2663 2505 2880 
Q 2244 3097 1772 3097 
Q 1472 3097 1187 3025 
Q 903 2953 641 2809 
L 641 3341 
Q 956 3463 1253 3523 
Q 1550 3584 1831 3584 
Q 2591 3584 2966 3190 
Q 3341 2797 3341 1997 
z
" transform="scale(0.015625)"/>
        <path id="DejaVuSans-74" d="M 1172 4494 
L 1172 3500 
L 2356 3500 
L 2356 3053 
L 1172 3053 
L 1172 1153 
Q 1172 725 1289 603 
Q 1406 481 1766 481 
L 2356 481 
L 2356 0 
L 1766 0 
Q 1100 0 847 248 
Q 594 497 594 1153 
L 594 3053 
L 172 3053 
L 172 3500 
L 594 3500 
L 594 4494 
L 1172 4494 
z
" transform="scale(0.015625)"/>
       </defs>
       <use xlink:href="#DejaVuSans-54"/>
       <use xlink:href="#DejaVuSans-65" x="44.083984"/>
       <use xlink:href="#DejaVuSans-6d" x="105.607422"/>
       <use xlink:href="#DejaVuSans-70" x="203.019531"/>
       <use xlink:href="#DejaVuSans-6c" x="266.496094"/>
       <use xlink:href="#DejaVuSans-61" x="294.279297"/>
       <use xlink:href="#DejaVuSans-74" x="355.558594"/>
       <use xlink:href="#DejaVuSans-65" x="394.767578"/>
      </g>
     </g>
    </g>
    <g id="xtick_3">
     <g id="text_3">
      <!-- Backbone -->
      <g style="fill: #262626" transform="translate(289.478183 648.975944) rotate(-45) scale(0.2 -0.2)">
       <defs>
        <path id="DejaVuSans-42" d="M 1259 2228 
L 1259 519 
L 2272 519 
Q 2781 519 3026 730 
Q 3272 941 3272 1375 
Q 3272 1813 3026 2020 
Q 2781 2228 2272 2228 
L 1259 2228 
z
M 1259 4147 
L 1259 2741 
L 2194 2741 
Q 2656 2741 2882 2914 
Q 3109 3088 3109 3444 
Q 3109 3797 2882 3972 
Q 2656 4147 2194 4147 
L 1259 4147 
z
M 628 4666 
L 2241 4666 
Q 2963 4666 3353 4366 
Q 3744 4066 3744 3513 
Q 3744 3084 3544 2831 
Q 3344 2578 2956 2516 
Q 3422 2416 3680 2098 
Q 3938 1781 3938 1306 
Q 3938 681 3513 340 
Q 3088 0 2303 0 
L 628 0 
L 628 4666 
z
" transform="scale(0.015625)"/>
        <path id="DejaVuSans-63" d="M 3122 3366 
L 3122 2828 
Q 2878 2963 2633 3030 
Q 2388 3097 2138 3097 
Q 1578 3097 1268 2742 
Q 959 2388 959 1747 
Q 959 1106 1268 751 
Q 1578 397 2138 397 
Q 2388 397 2633 464 
Q 2878 531 3122 666 
L 3122 134 
Q 2881 22 2623 -34 
Q 2366 -91 2075 -91 
Q 1284 -91 818 406 
Q 353 903 353 1747 
Q 353 2603 823 3093 
Q 1294 3584 2113 3584 
Q 2378 3584 2631 3529 
Q 2884 3475 3122 3366 
z
" transform="scale(0.015625)"/>
        <path id="DejaVuSans-6b" d="M 581 4863 
L 1159 4863 
L 1159 1991 
L 2875 3500 
L 3609 3500 
L 1753 1863 
L 3688 0 
L 2938 0 
L 1159 1709 
L 1159 0 
L 581 0 
L 581 4863 
z
" transform="scale(0.015625)"/>
        <path id="DejaVuSans-62" d="M 3116 1747 
Q 3116 2381 2855 2742 
Q 2594 3103 2138 3103 
Q 1681 3103 1420 2742 
Q 1159 2381 1159 1747 
Q 1159 1113 1420 752 
Q 1681 391 2138 391 
Q 2594 391 2855 752 
Q 3116 1113 3116 1747 
z
M 1159 2969 
Q 1341 3281 1617 3432 
Q 1894 3584 2278 3584 
Q 2916 3584 3314 3078 
Q 3713 2572 3713 1747 
Q 3713 922 3314 415 
Q 2916 -91 2278 -91 
Q 1894 -91 1617 61 
Q 1341 213 1159 525 
L 1159 0 
L 581 0 
L 581 4863 
L 1159 4863 
L 1159 2969 
z
" transform="scale(0.015625)"/>
        <path id="DejaVuSans-6f" d="M 1959 3097 
Q 1497 3097 1228 2736 
Q 959 2375 959 1747 
Q 959 1119 1226 758 
Q 1494 397 1959 397 
Q 2419 397 2687 759 
Q 2956 1122 2956 1747 
Q 2956 2369 2687 2733 
Q 2419 3097 1959 3097 
z
M 1959 3584 
Q 2709 3584 3137 3096 
Q 3566 2609 3566 1747 
Q 3566 888 3137 398 
Q 2709 -91 1959 -91 
Q 1206 -91 779 398 
Q 353 888 353 1747 
Q 353 2609 779 3096 
Q 1206 3584 1959 3584 
z
" transform="scale(0.015625)"/>
        <path id="DejaVuSans-6e" d="M 3513 2113 
L 3513 0 
L 2938 0 
L 2938 2094 
Q 2938 2591 2744 2837 
Q 2550 3084 2163 3084 
Q 1697 3084 1428 2787 
Q 1159 2491 1159 1978 
L 1159 0 
L 581 0 
L 581 3500 
L 1159 3500 
L 1159 2956 
Q 1366 3272 1645 3428 
Q 1925 3584 2291 3584 
Q 2894 3584 3203 3211 
Q 3513 2838 3513 2113 
z
" transform="scale(0.015625)"/>
       </defs>
       <use xlink:href="#DejaVuSans-42"/>
       <use xlink:href="#DejaVuSans-61" x="68.603516"/>
       <use xlink:href="#DejaVuSans-63" x="129.882812"/>
       <use xlink:href="#DejaVuSans-6b" x="184.863281"/>
       <use xlink:href="#DejaVuSans-62" x="242.773438"/>
       <use xlink:href="#DejaVuSans-6f" x="306.25"/>
       <use xlink:href="#DejaVuSans-6e" x="367.431641"/>
       <use xlink:href="#DejaVuSans-65" x="430.810547"/>
      </g>
     </g>
    </g>
    <g id="xtick_4">
     <g id="text_4">
      <!-- Heuristic C-$\beta$ -->
      <g style="fill: #262626" transform="translate(379.63517 670.706219) rotate(-45) scale(0.2 -0.2)">
       <defs>
        <path id="DejaVuSans-48" d="M 628 4666 
L 1259 4666 
L 1259 2753 
L 3553 2753 
L 3553 4666 
L 4184 4666 
L 4184 0 
L 3553 0 
L 3553 2222 
L 1259 2222 
L 1259 0 
L 628 0 
L 628 4666 
z
" transform="scale(0.015625)"/>
        <path id="DejaVuSans-75" d="M 544 1381 
L 544 3500 
L 1119 3500 
L 1119 1403 
Q 1119 906 1312 657 
Q 1506 409 1894 409 
Q 2359 409 2629 706 
Q 2900 1003 2900 1516 
L 2900 3500 
L 3475 3500 
L 3475 0 
L 2900 0 
L 2900 538 
Q 2691 219 2414 64 
Q 2138 -91 1772 -91 
Q 1169 -91 856 284 
Q 544 659 544 1381 
z
M 1991 3584 
L 1991 3584 
z
" transform="scale(0.015625)"/>
        <path id="DejaVuSans-72" d="M 2631 2963 
Q 2534 3019 2420 3045 
Q 2306 3072 2169 3072 
Q 1681 3072 1420 2755 
Q 1159 2438 1159 1844 
L 1159 0 
L 581 0 
L 581 3500 
L 1159 3500 
L 1159 2956 
Q 1341 3275 1631 3429 
Q 1922 3584 2338 3584 
Q 2397 3584 2469 3576 
Q 2541 3569 2628 3553 
L 2631 2963 
z
" transform="scale(0.015625)"/>
        <path id="DejaVuSans-69" d="M 603 3500 
L 1178 3500 
L 1178 0 
L 603 0 
L 603 3500 
z
M 603 4863 
L 1178 4863 
L 1178 4134 
L 603 4134 
L 603 4863 
z
" transform="scale(0.015625)"/>
        <path id="DejaVuSans-73" d="M 2834 3397 
L 2834 2853 
Q 2591 2978 2328 3040 
Q 2066 3103 1784 3103 
Q 1356 3103 1142 2972 
Q 928 2841 928 2578 
Q 928 2378 1081 2264 
Q 1234 2150 1697 2047 
L 1894 2003 
Q 2506 1872 2764 1633 
Q 3022 1394 3022 966 
Q 3022 478 2636 193 
Q 2250 -91 1575 -91 
Q 1294 -91 989 -36 
Q 684 19 347 128 
L 347 722 
Q 666 556 975 473 
Q 1284 391 1588 391 
Q 1994 391 2212 530 
Q 2431 669 2431 922 
Q 2431 1156 2273 1281 
Q 2116 1406 1581 1522 
L 1381 1569 
Q 847 1681 609 1914 
Q 372 2147 372 2553 
Q 372 3047 722 3315 
Q 1072 3584 1716 3584 
Q 2034 3584 2315 3537 
Q 2597 3491 2834 3397 
z
" transform="scale(0.015625)"/>
        <path id="DejaVuSans-20" transform="scale(0.015625)"/>
        <path id="DejaVuSans-43" d="M 4122 4306 
L 4122 3641 
Q 3803 3938 3442 4084 
Q 3081 4231 2675 4231 
Q 1875 4231 1450 3742 
Q 1025 3253 1025 2328 
Q 1025 1406 1450 917 
Q 1875 428 2675 428 
Q 3081 428 3442 575 
Q 3803 722 4122 1019 
L 4122 359 
Q 3791 134 3420 21 
Q 3050 -91 2638 -91 
Q 1578 -91 968 557 
Q 359 1206 359 2328 
Q 359 3453 968 4101 
Q 1578 4750 2638 4750 
Q 3056 4750 3426 4639 
Q 3797 4528 4122 4306 
z
" transform="scale(0.015625)"/>
        <path id="DejaVuSans-2d" d="M 313 2009 
L 1997 2009 
L 1997 1497 
L 313 1497 
L 313 2009 
z
" transform="scale(0.015625)"/>
        <path id="DejaVuSans-Oblique-3b2" d="M 872 216 
L 572 -1331 
L -6 -1331 
L 928 3478 
Q 1206 4903 2538 4903 
Q 3888 4903 3659 3700 
Q 3503 2844 2894 2531 
Q 3713 2250 3553 1416 
Q 3272 -69 1759 -66 
Q 1097 -63 872 216 
z
M 1019 966 
Q 1259 422 1875 425 
Q 2775 425 2966 1406 
Q 3138 2288 1675 2219 
L 1778 2750 
Q 2909 2731 3106 3750 
Q 3241 4438 2509 4434 
Q 1691 4434 1503 3459 
L 1019 966 
z
" transform="scale(0.015625)"/>
       </defs>
       <use xlink:href="#DejaVuSans-48" transform="translate(0 0.390625)"/>
       <use xlink:href="#DejaVuSans-65" transform="translate(75.195312 0.390625)"/>
       <use xlink:href="#DejaVuSans-75" transform="translate(136.71875 0.390625)"/>
       <use xlink:href="#DejaVuSans-72" transform="translate(200.097656 0.390625)"/>
       <use xlink:href="#DejaVuSans-69" transform="translate(241.210938 0.390625)"/>
       <use xlink:href="#DejaVuSans-73" transform="translate(268.994141 0.390625)"/>
       <use xlink:href="#DejaVuSans-74" transform="translate(321.09375 0.390625)"/>
       <use xlink:href="#DejaVuSans-69" transform="translate(360.302734 0.390625)"/>
       <use xlink:href="#DejaVuSans-63" transform="translate(388.085938 0.390625)"/>
       <use xlink:href="#DejaVuSans-20" transform="translate(443.066406 0.390625)"/>
       <use xlink:href="#DejaVuSans-43" transform="translate(474.853516 0.390625)"/>
       <use xlink:href="#DejaVuSans-2d" transform="translate(544.677734 0.390625)"/>
       <use xlink:href="#DejaVuSans-Oblique-3b2" transform="translate(580.761719 0.390625)"/>
      </g>
     </g>
    </g>
    <g id="xtick_5">
     <g id="text_5">
      <!-- Template C-$\beta$ -->
      <g style="fill: #262626" transform="translate(486.992529 674.94886) rotate(-45) scale(0.2 -0.2)">
       <use xlink:href="#DejaVuSans-54" transform="translate(0 0.390625)"/>
       <use xlink:href="#DejaVuSans-65" transform="translate(61.083984 0.390625)"/>
       <use xlink:href="#DejaVuSans-6d" transform="translate(122.607422 0.390625)"/>
       <use xlink:href="#DejaVuSans-70" transform="translate(220.019531 0.390625)"/>
       <use xlink:href="#DejaVuSans-6c" transform="translate(283.496094 0.390625)"/>
       <use xlink:href="#DejaVuSans-61" transform="translate(311.279297 0.390625)"/>
       <use xlink:href="#DejaVuSans-74" transform="translate(372.558594 0.390625)"/>
       <use xlink:href="#DejaVuSans-65" transform="translate(411.767578 0.390625)"/>
       <use xlink:href="#DejaVuSans-20" transform="translate(473.291016 0.390625)"/>
       <use xlink:href="#DejaVuSans-43" transform="translate(505.078125 0.390625)"/>
       <use xlink:href="#DejaVuSans-2d" transform="translate(574.902344 0.390625)"/>
       <use xlink:href="#DejaVuSans-Oblique-3b2" transform="translate(610.986328 0.390625)"/>
      </g>
     </g>
    </g>
    <g id="xtick_6">
     <g id="text_6">
      <!-- AttnPacker -->
      <g style="fill: #262626" transform="translate(617.905383 655.348744) rotate(-45) scale(0.2 -0.2)">
       <defs>
        <path id="DejaVuSans-50" d="M 1259 4147 
L 1259 2394 
L 2053 2394 
Q 2494 2394 2734 2622 
Q 2975 2850 2975 3272 
Q 2975 3691 2734 3919 
Q 2494 4147 2053 4147 
L 1259 4147 
z
M 628 4666 
L 2053 4666 
Q 2838 4666 3239 4311 
Q 3641 3956 3641 3272 
Q 3641 2581 3239 2228 
Q 2838 1875 2053 1875 
L 1259 1875 
L 1259 0 
L 628 0 
L 628 4666 
z
" transform="scale(0.015625)"/>
       </defs>
       <use xlink:href="#DejaVuSans-41"/>
       <use xlink:href="#DejaVuSans-74" x="66.658203"/>
       <use xlink:href="#DejaVuSans-74" x="105.867188"/>
       <use xlink:href="#DejaVuSans-6e" x="145.076172"/>
       <use xlink:href="#DejaVuSans-50" x="208.455078"/>
       <use xlink:href="#DejaVuSans-61" x="264.257812"/>
       <use xlink:href="#DejaVuSans-63" x="325.537109"/>
       <use xlink:href="#DejaVuSans-6b" x="380.517578"/>
       <use xlink:href="#DejaVuSans-65" x="434.802734"/>
       <use xlink:href="#DejaVuSans-72" x="496.326172"/>
      </g>
     </g>
    </g>
    <g id="xtick_7">
     <g id="text_7">
      <!-- AttnPacker (AF2) -->
      <g style="fill: #262626" transform="translate(687.169574 697.684553) rotate(-45) scale(0.2 -0.2)">
       <defs>
        <path id="DejaVuSans-28" d="M 1984 4856 
Q 1566 4138 1362 3434 
Q 1159 2731 1159 2009 
Q 1159 1288 1364 580 
Q 1569 -128 1984 -844 
L 1484 -844 
Q 1016 -109 783 600 
Q 550 1309 550 2009 
Q 550 2706 781 3412 
Q 1013 4119 1484 4856 
L 1984 4856 
z
" transform="scale(0.015625)"/>
        <path id="DejaVuSans-46" d="M 628 4666 
L 3309 4666 
L 3309 4134 
L 1259 4134 
L 1259 2759 
L 3109 2759 
L 3109 2228 
L 1259 2228 
L 1259 0 
L 628 0 
L 628 4666 
z
" transform="scale(0.015625)"/>
        <path id="DejaVuSans-32" d="M 1228 531 
L 3431 531 
L 3431 0 
L 469 0 
L 469 531 
Q 828 903 1448 1529 
Q 2069 2156 2228 2338 
Q 2531 2678 2651 2914 
Q 2772 3150 2772 3378 
Q 2772 3750 2511 3984 
Q 2250 4219 1831 4219 
Q 1534 4219 1204 4116 
Q 875 4013 500 3803 
L 500 4441 
Q 881 4594 1212 4672 
Q 1544 4750 1819 4750 
Q 2544 4750 2975 4387 
Q 3406 4025 3406 3419 
Q 3406 3131 3298 2873 
Q 3191 2616 2906 2266 
Q 2828 2175 2409 1742 
Q 1991 1309 1228 531 
z
" transform="scale(0.015625)"/>
        <path id="DejaVuSans-29" d="M 513 4856 
L 1013 4856 
Q 1481 4119 1714 3412 
Q 1947 2706 1947 2009 
Q 1947 1309 1714 600 
Q 1481 -109 1013 -844 
L 513 -844 
Q 928 -128 1133 580 
Q 1338 1288 1338 2009 
Q 1338 2731 1133 3434 
Q 928 4138 513 4856 
z
" transform="scale(0.015625)"/>
       </defs>
       <use xlink:href="#DejaVuSans-41"/>
       <use xlink:href="#DejaVuSans-74" x="66.658203"/>
       <use xlink:href="#DejaVuSans-74" x="105.867188"/>
       <use xlink:href="#DejaVuSans-6e" x="145.076172"/>
       <use xlink:href="#DejaVuSans-50" x="208.455078"/>
       <use xlink:href="#DejaVuSans-61" x="264.257812"/>
       <use xlink:href="#DejaVuSans-63" x="325.537109"/>
       <use xlink:href="#DejaVuSans-6b" x="380.517578"/>
       <use xlink:href="#DejaVuSans-65" x="434.802734"/>
       <use xlink:href="#DejaVuSans-72" x="496.326172"/>
       <use xlink:href="#DejaVuSans-20" x="537.439453"/>
       <use xlink:href="#DejaVuSans-28" x="569.226562"/>
       <use xlink:href="#DejaVuSans-41" x="608.240234"/>
       <use xlink:href="#DejaVuSans-46" x="676.648438"/>
       <use xlink:href="#DejaVuSans-32" x="734.167969"/>
       <use xlink:href="#DejaVuSans-29" x="797.791016"/>
      </g>
     </g>
    </g>
   </g>
   <g id="matplotlib.axis_2">
    <g id="ytick_1">
     <g id="line2d_1">
      <path d="M 69.3625 529.436884 
L 850.5625 529.436884 
" clip-path="url(#pe7e9b8dfe0)" style="fill: none; stroke: #cccccc; stroke-width: 0.8; stroke-linecap: round"/>
     </g>
     <g id="text_8">
      <!-- 0.0 -->
      <g style="fill: #262626" transform="translate(30.55625 537.035321) scale(0.2 -0.2)">
       <defs>
        <path id="DejaVuSans-30" d="M 2034 4250 
Q 1547 4250 1301 3770 
Q 1056 3291 1056 2328 
Q 1056 1369 1301 889 
Q 1547 409 2034 409 
Q 2525 409 2770 889 
Q 3016 1369 3016 2328 
Q 3016 3291 2770 3770 
Q 2525 4250 2034 4250 
z
M 2034 4750 
Q 2819 4750 3233 4129 
Q 3647 3509 3647 2328 
Q 3647 1150 3233 529 
Q 2819 -91 2034 -91 
Q 1250 -91 836 529 
Q 422 1150 422 2328 
Q 422 3509 836 4129 
Q 1250 4750 2034 4750 
z
" transform="scale(0.015625)"/>
        <path id="DejaVuSans-2e" d="M 684 794 
L 1344 794 
L 1344 0 
L 684 0 
L 684 794 
z
" transform="scale(0.015625)"/>
       </defs>
       <use xlink:href="#DejaVuSans-30"/>
       <use xlink:href="#DejaVuSans-2e" x="63.623047"/>
       <use xlink:href="#DejaVuSans-30" x="95.410156"/>
      </g>
     </g>
    </g>
    <g id="ytick_2">
     <g id="line2d_2">
      <path d="M 69.3625 449.993692 
L 850.5625 449.993692 
" clip-path="url(#pe7e9b8dfe0)" style="fill: none; stroke: #cccccc; stroke-width: 0.8; stroke-linecap: round"/>
     </g>
     <g id="text_9">
      <!-- 0.2 -->
      <g style="fill: #262626" transform="translate(30.55625 457.59213) scale(0.2 -0.2)">
       <use xlink:href="#DejaVuSans-30"/>
       <use xlink:href="#DejaVuSans-2e" x="63.623047"/>
       <use xlink:href="#DejaVuSans-32" x="95.410156"/>
      </g>
     </g>
    </g>
    <g id="ytick_3">
     <g id="line2d_3">
      <path d="M 69.3625 370.5505 
L 850.5625 370.5505 
" clip-path="url(#pe7e9b8dfe0)" style="fill: none; stroke: #cccccc; stroke-width: 0.8; stroke-linecap: round"/>
     </g>
     <g id="text_10">
      <!-- 0.4 -->
      <g style="fill: #262626" transform="translate(30.55625 378.148938) scale(0.2 -0.2)">
       <defs>
        <path id="DejaVuSans-34" d="M 2419 4116 
L 825 1625 
L 2419 1625 
L 2419 4116 
z
M 2253 4666 
L 3047 4666 
L 3047 1625 
L 3713 1625 
L 3713 1100 
L 3047 1100 
L 3047 0 
L 2419 0 
L 2419 1100 
L 313 1100 
L 313 1709 
L 2253 4666 
z
" transform="scale(0.015625)"/>
       </defs>
       <use xlink:href="#DejaVuSans-30"/>
       <use xlink:href="#DejaVuSans-2e" x="63.623047"/>
       <use xlink:href="#DejaVuSans-34" x="95.410156"/>
      </g>
     </g>
    </g>
    <g id="ytick_4">
     <g id="line2d_4">
      <path d="M 69.3625 291.107309 
L 850.5625 291.107309 
" clip-path="url(#pe7e9b8dfe0)" style="fill: none; stroke: #cccccc; stroke-width: 0.8; stroke-linecap: round"/>
     </g>
     <g id="text_11">
      <!-- 0.6 -->
      <g style="fill: #262626" transform="translate(30.55625 298.705746) scale(0.2 -0.2)">
       <defs>
        <path id="DejaVuSans-36" d="M 2113 2584 
Q 1688 2584 1439 2293 
Q 1191 2003 1191 1497 
Q 1191 994 1439 701 
Q 1688 409 2113 409 
Q 2538 409 2786 701 
Q 3034 994 3034 1497 
Q 3034 2003 2786 2293 
Q 2538 2584 2113 2584 
z
M 3366 4563 
L 3366 3988 
Q 3128 4100 2886 4159 
Q 2644 4219 2406 4219 
Q 1781 4219 1451 3797 
Q 1122 3375 1075 2522 
Q 1259 2794 1537 2939 
Q 1816 3084 2150 3084 
Q 2853 3084 3261 2657 
Q 3669 2231 3669 1497 
Q 3669 778 3244 343 
Q 2819 -91 2113 -91 
Q 1303 -91 875 529 
Q 447 1150 447 2328 
Q 447 3434 972 4092 
Q 1497 4750 2381 4750 
Q 2619 4750 2861 4703 
Q 3103 4656 3366 4563 
z
" transform="scale(0.015625)"/>
       </defs>
       <use xlink:href="#DejaVuSans-30"/>
       <use xlink:href="#DejaVuSans-2e" x="63.623047"/>
       <use xlink:href="#DejaVuSans-36" x="95.410156"/>
      </g>
     </g>
    </g>
    <g id="ytick_5">
     <g id="line2d_5">
      <path d="M 69.3625 211.664117 
L 850.5625 211.664117 
" clip-path="url(#pe7e9b8dfe0)" style="fill: none; stroke: #cccccc; stroke-width: 0.8; stroke-linecap: round"/>
     </g>
     <g id="text_12">
      <!-- 0.8 -->
      <g style="fill: #262626" transform="translate(30.55625 219.262555) scale(0.2 -0.2)">
       <defs>
        <path id="DejaVuSans-38" d="M 2034 2216 
Q 1584 2216 1326 1975 
Q 1069 1734 1069 1313 
Q 1069 891 1326 650 
Q 1584 409 2034 409 
Q 2484 409 2743 651 
Q 3003 894 3003 1313 
Q 3003 1734 2745 1975 
Q 2488 2216 2034 2216 
z
M 1403 2484 
Q 997 2584 770 2862 
Q 544 3141 544 3541 
Q 544 4100 942 4425 
Q 1341 4750 2034 4750 
Q 2731 4750 3128 4425 
Q 3525 4100 3525 3541 
Q 3525 3141 3298 2862 
Q 3072 2584 2669 2484 
Q 3125 2378 3379 2068 
Q 3634 1759 3634 1313 
Q 3634 634 3220 271 
Q 2806 -91 2034 -91 
Q 1263 -91 848 271 
Q 434 634 434 1313 
Q 434 1759 690 2068 
Q 947 2378 1403 2484 
z
M 1172 3481 
Q 1172 3119 1398 2916 
Q 1625 2713 2034 2713 
Q 2441 2713 2670 2916 
Q 2900 3119 2900 3481 
Q 2900 3844 2670 4047 
Q 2441 4250 2034 4250 
Q 1625 4250 1398 4047 
Q 1172 3844 1172 3481 
z
" transform="scale(0.015625)"/>
       </defs>
       <use xlink:href="#DejaVuSans-30"/>
       <use xlink:href="#DejaVuSans-2e" x="63.623047"/>
       <use xlink:href="#DejaVuSans-38" x="95.410156"/>
      </g>
     </g>
    </g>
    <g id="ytick_6">
     <g id="line2d_6">
      <path d="M 69.3625 132.220926 
L 850.5625 132.220926 
" clip-path="url(#pe7e9b8dfe0)" style="fill: none; stroke: #cccccc; stroke-width: 0.8; stroke-linecap: round"/>
     </g>
     <g id="text_13">
      <!-- 1.0 -->
      <g style="fill: #262626" transform="translate(30.55625 139.819363) scale(0.2 -0.2)">
       <defs>
        <path id="DejaVuSans-31" d="M 794 531 
L 1825 531 
L 1825 4091 
L 703 3866 
L 703 4441 
L 1819 4666 
L 2450 4666 
L 2450 531 
L 3481 531 
L 3481 0 
L 794 0 
L 794 531 
z
" transform="scale(0.015625)"/>
       </defs>
       <use xlink:href="#DejaVuSans-31"/>
       <use xlink:href="#DejaVuSans-2e" x="63.623047"/>
       <use xlink:href="#DejaVuSans-30" x="95.410156"/>
      </g>
     </g>
    </g>
    <g id="ytick_7">
     <g id="line2d_7">
      <path d="M 69.3625 52.777734 
L 850.5625 52.777734 
" clip-path="url(#pe7e9b8dfe0)" style="fill: none; stroke: #cccccc; stroke-width: 0.8; stroke-linecap: round"/>
     </g>
     <g id="text_14">
      <!-- 1.2 -->
      <g style="fill: #262626" transform="translate(30.55625 60.376171) scale(0.2 -0.2)">
       <use xlink:href="#DejaVuSans-31"/>
       <use xlink:href="#DejaVuSans-2e" x="63.623047"/>
       <use xlink:href="#DejaVuSans-32" x="95.410156"/>
      </g>
     </g>
    </g>
    <g id="text_15">
     <!-- MAE 1 (rad) -->
     <g style="fill: #262626" transform="translate(22.396875 343.296875) rotate(-90) scale(0.2 -0.2)">
      <defs>
       <path id="DejaVuSans-45" d="M 628 4666 
L 3578 4666 
L 3578 4134 
L 1259 4134 
L 1259 2753 
L 3481 2753 
L 3481 2222 
L 1259 2222 
L 1259 531 
L 3634 531 
L 3634 0 
L 628 0 
L 628 4666 
z
" transform="scale(0.015625)"/>
       <path id="DejaVuSans-64" d="M 2906 2969 
L 2906 4863 
L 3481 4863 
L 3481 0 
L 2906 0 
L 2906 525 
Q 2725 213 2448 61 
Q 2172 -91 1784 -91 
Q 1150 -91 751 415 
Q 353 922 353 1747 
Q 353 2572 751 3078 
Q 1150 3584 1784 3584 
Q 2172 3584 2448 3432 
Q 2725 3281 2906 2969 
z
M 947 1747 
Q 947 1113 1208 752 
Q 1469 391 1925 391 
Q 2381 391 2643 752 
Q 2906 1113 2906 1747 
Q 2906 2381 2643 2742 
Q 2381 3103 1925 3103 
Q 1469 3103 1208 2742 
Q 947 2381 947 1747 
z
" transform="scale(0.015625)"/>
      </defs>
      <use xlink:href="#DejaVuSans-4d"/>
      <use xlink:href="#DejaVuSans-41" x="86.279297"/>
      <use xlink:href="#DejaVuSans-45" x="154.6875"/>
      <use xlink:href="#DejaVuSans-20" x="217.871094"/>
      <use xlink:href="#DejaVuSans-31" x="249.658203"/>
      <use xlink:href="#DejaVuSans-20" x="313.28125"/>
      <use xlink:href="#DejaVuSans-28" x="345.068359"/>
      <use xlink:href="#DejaVuSans-72" x="384.082031"/>
      <use xlink:href="#DejaVuSans-61" x="425.195312"/>
      <use xlink:href="#DejaVuSans-64" x="486.474609"/>
      <use xlink:href="#DejaVuSans-29" x="549.951172"/>
     </g>
    </g>
   </g>
   <g id="PolyCollection_1">
    <defs>
     <path id="m272f667723" d="M 125.418284 -196.151184 
L 124.906716 -196.151184 
L 124.795517 -200.99234 
L 124.643873 -205.833497 
L 124.440049 -210.674653 
L 124.169896 -215.51581 
L 123.816713 -220.356966 
L 123.36128 -225.198123 
L 122.782165 -230.039279 
L 122.0564 -234.880436 
L 121.160619 -239.721592 
L 120.07269 -244.562749 
L 118.773799 -249.403905 
L 117.25085 -254.245061 
L 115.498918 -259.086218 
L 113.523408 -263.927374 
L 111.341523 -268.768531 
L 108.982689 -273.609687 
L 106.487665 -278.450844 
L 103.906291 -283.292 
L 101.294045 -288.133157 
L 98.707819 -292.974313 
L 96.2015 -297.81547 
L 93.822007 -302.656626 
L 91.606391 -307.497783 
L 89.580406 -312.338939 
L 87.758694 -317.180096 
L 86.146459 -322.021252 
L 84.742209 -326.862409 
L 83.541047 -331.703565 
L 82.537906 -336.544722 
L 81.730237 -341.385878 
L 81.119794 -346.227035 
L 80.713373 -351.068191 
L 80.5225 -355.909347 
L 80.562214 -360.750504 
L 80.849137 -365.59166 
L 81.399053 -370.432817 
L 82.2242 -375.273973 
L 83.330497 -380.11513 
L 84.714945 -384.956286 
L 86.363445 -389.797443 
L 88.249351 -394.638599 
L 90.333011 -399.479756 
L 92.562551 -404.320912 
L 94.876003 -409.162069 
L 97.204732 -414.003225 
L 99.477923 -418.844382 
L 101.627708 -423.685538 
L 103.594378 -428.526695 
L 105.331066 -433.367851 
L 106.807319 -438.209008 
L 108.011113 -443.050164 
L 108.949025 -447.891321 
L 109.644571 -452.732477 
L 110.134923 -457.573633 
L 110.466449 -462.41479 
L 110.689675 -467.255946 
L 110.85432 -472.097103 
L 111.005008 -476.938259 
L 111.178122 -481.779416 
L 111.400072 -486.620572 
L 111.687004 -491.461729 
L 112.04573 -496.302885 
L 112.475531 -501.144042 
L 112.970359 -505.985198 
L 113.521001 -510.826355 
L 114.11684 -515.667511 
L 114.747028 -520.508668 
L 115.401049 -525.349824 
L 116.068774 -530.190981 
L 116.740262 -535.032137 
L 117.405523 -539.873294 
L 118.054459 -544.71445 
L 118.677086 -549.555607 
L 119.264044 -554.396763 
L 119.807298 -559.237919 
L 120.300876 -564.079076 
L 120.741481 -568.920232 
L 121.128831 -573.761389 
L 121.465662 -578.602545 
L 121.757369 -583.443702 
L 122.011358 -588.284858 
L 122.236197 -593.126015 
L 122.440696 -597.967171 
L 122.633032 -602.808328 
L 122.820024 -607.649484 
L 123.006629 -612.490641 
L 123.195688 -617.331797 
L 123.387933 -622.172954 
L 123.582224 -627.01411 
L 123.775962 -631.855267 
L 123.965614 -636.696423 
L 124.147275 -641.53758 
L 124.317192 -646.378736 
L 124.4722 -651.219893 
L 124.610016 -656.061049 
L 124.729389 -660.902205 
L 124.830103 -665.743362 
L 124.912862 -670.584518 
L 124.979099 -675.425675 
L 125.345901 -675.425675 
L 125.345901 -675.425675 
L 125.412138 -670.584518 
L 125.494897 -665.743362 
L 125.595611 -660.902205 
L 125.714984 -656.061049 
L 125.8528 -651.219893 
L 126.007808 -646.378736 
L 126.177725 -641.53758 
L 126.359386 -636.696423 
L 126.549038 -631.855267 
L 126.742776 -627.01411 
L 126.937067 -622.172954 
L 127.129312 -617.331797 
L 127.318371 -612.490641 
L 127.504976 -607.649484 
L 127.691968 -602.808328 
L 127.884304 -597.967171 
L 128.088803 -593.126015 
L 128.313642 -588.284858 
L 128.567631 -583.443702 
L 128.859338 -578.602545 
L 129.196169 -573.761389 
L 129.583519 -568.920232 
L 130.024124 -564.079076 
L 130.517702 -559.237919 
L 131.060956 -554.396763 
L 131.647914 -549.555607 
L 132.270541 -544.71445 
L 132.919477 -539.873294 
L 133.584738 -535.032137 
L 134.256226 -530.190981 
L 134.923951 -525.349824 
L 135.577972 -520.508668 
L 136.20816 -515.667511 
L 136.803999 -510.826355 
L 137.354641 -505.985198 
L 137.849469 -501.144042 
L 138.27927 -496.302885 
L 138.637996 -491.461729 
L 138.924928 -486.620572 
L 139.146878 -481.779416 
L 139.319992 -476.938259 
L 139.47068 -472.097103 
L 139.635325 -467.255946 
L 139.858551 -462.41479 
L 140.190077 -457.573633 
L 140.680429 -452.732477 
L 141.375975 -447.891321 
L 142.313887 -443.050164 
L 143.517681 -438.209008 
L 144.993934 -433.367851 
L 146.730622 -428.526695 
L 148.697292 -423.685538 
L 150.847077 -418.844382 
L 153.120268 -414.003225 
L 155.448997 -409.162069 
L 157.762449 -404.320912 
L 159.991989 -399.479756 
L 162.075649 -394.638599 
L 163.961555 -389.797443 
L 165.610055 -384.956286 
L 166.994503 -380.11513 
L 168.1008 -375.273973 
L 168.925947 -370.432817 
L 169.475863 -365.59166 
L 169.762786 -360.750504 
L 169.8025 -355.909347 
L 169.611627 -351.068191 
L 169.205206 -346.227035 
L 168.594763 -341.385878 
L 167.787094 -336.544722 
L 166.783953 -331.703565 
L 165.582791 -326.862409 
L 164.178541 -322.021252 
L 162.566306 -317.180096 
L 160.744594 -312.338939 
L 158.718609 -307.497783 
L 156.502993 -302.656626 
L 154.1235 -297.81547 
L 151.617181 -292.974313 
L 149.030955 -288.133157 
L 146.418709 -283.292 
L 143.837335 -278.450844 
L 141.342311 -273.609687 
L 138.983477 -268.768531 
L 136.801592 -263.927374 
L 134.826082 -259.086218 
L 133.07415 -254.245061 
L 131.551201 -249.403905 
L 130.25231 -244.562749 
L 129.164381 -239.721592 
L 128.2686 -234.880436 
L 127.542835 -230.039279 
L 126.96372 -225.198123 
L 126.508287 -220.356966 
L 126.155104 -215.51581 
L 125.884951 -210.674653 
L 125.681127 -205.833497 
L 125.529483 -200.99234 
L 125.418284 -196.151184 
z
" style="stroke: #3d3d3d; stroke-opacity: 0.5"/>
    </defs>
    <g clip-path="url(#pe7e9b8dfe0)">
     <use xlink:href="#m272f667723" x="0" y="707.825675" style="fill: #3274a1; fill-opacity: 0.5; stroke: #3d3d3d; stroke-opacity: 0.5"/>
    </g>
   </g>
   <g id="PolyCollection_2">
    <defs>
     <path id="mccb454a9b9" d="M 238.16455 -171.425675 
L 235.36045 -171.425675 
L 234.825095 -174.95 
L 234.131732 -178.474325 
L 233.251588 -181.99865 
L 232.15668 -185.522975 
L 230.821989 -189.0473 
L 229.22796 -192.571625 
L 227.363136 -196.09595 
L 225.226658 -199.620275 
L 222.830359 -203.1446 
L 220.200141 -206.668925 
L 217.37638 -210.19325 
L 214.413163 -213.717575 
L 211.376312 -217.2419 
L 208.340246 -220.766225 
L 205.383912 -224.290551 
L 202.586142 -227.814876 
L 200.020872 -231.339201 
L 197.752703 -234.863526 
L 195.833272 -238.387851 
L 194.298779 -241.912176 
L 193.168907 -245.436501 
L 192.447158 -248.960826 
L 192.1225 -252.485151 
L 192.171986 -256.009476 
L 192.563981 -259.533801 
L 193.261516 -263.058126 
L 194.225352 -266.582451 
L 195.41642 -270.106776 
L 196.797424 -273.631101 
L 198.333578 -277.155426 
L 199.992578 -280.679751 
L 201.744039 -284.204076 
L 203.558705 -287.728401 
L 205.407722 -291.252726 
L 207.262232 -294.777051 
L 209.093448 -298.301376 
L 210.873244 -301.825702 
L 212.57518 -305.350027 
L 214.17579 -308.874352 
L 215.655905 -312.398677 
L 217.001785 -315.923002 
L 218.205864 -319.447327 
L 219.266987 -322.971652 
L 220.190115 -326.495977 
L 220.985533 -330.020302 
L 221.667704 -333.544627 
L 222.253914 -337.068952 
L 222.762871 -340.593277 
L 223.213419 -344.117602 
L 223.623452 -347.641927 
L 224.009112 -351.166252 
L 224.38425 -354.690577 
L 224.760156 -358.214902 
L 225.145489 -361.739227 
L 225.546353 -365.263552 
L 225.966471 -368.787877 
L 226.407396 -372.312202 
L 226.868744 -375.836527 
L 227.348421 -379.360852 
L 227.842839 -382.885178 
L 228.347133 -386.409503 
L 228.855389 -389.933828 
L 229.360884 -393.458153 
L 229.856361 -396.982478 
L 230.334338 -400.506803 
L 230.78745 -404.031128 
L 231.208804 -407.555453 
L 231.59235 -411.079778 
L 231.933218 -414.604103 
L 232.228026 -418.128428 
L 232.475117 -421.652753 
L 232.67472 -425.177078 
L 232.82901 -428.701403 
L 232.942075 -432.225728 
L 233.019774 -435.750053 
L 233.069491 -439.274378 
L 233.099792 -442.798703 
L 233.119988 -446.323028 
L 233.13963 -449.847353 
L 233.167948 -453.371678 
L 233.213286 -456.896003 
L 233.282558 -460.420328 
L 233.380791 -463.944654 
L 233.510787 -467.468979 
L 233.67296 -470.993304 
L 233.865357 -474.517629 
L 234.083883 -478.041954 
L 234.322697 -481.566279 
L 234.574743 -485.090604 
L 234.832366 -488.614929 
L 235.087927 -492.139254 
L 235.334377 -495.663579 
L 235.565717 -499.187904 
L 235.777307 -502.712229 
L 235.966033 -506.236554 
L 236.130295 -509.760879 
L 236.269886 -513.285204 
L 236.385761 -516.809529 
L 236.479754 -520.333854 
L 237.045246 -520.333854 
L 237.045246 -520.333854 
L 237.139239 -516.809529 
L 237.255114 -513.285204 
L 237.394705 -509.760879 
L 237.558967 -506.236554 
L 237.747693 -502.712229 
L 237.959283 -499.187904 
L 238.190623 -495.663579 
L 238.437073 -492.139254 
L 238.692634 -488.614929 
L 238.950257 -485.090604 
L 239.202303 -481.566279 
L 239.441117 -478.041954 
L 239.659643 -474.517629 
L 239.85204 -470.993304 
L 240.014213 -467.468979 
L 240.144209 -463.944654 
L 240.242442 -460.420328 
L 240.311714 -456.896003 
L 240.357052 -453.371678 
L 240.38537 -449.847353 
L 240.405012 -446.323028 
L 240.425208 -442.798703 
L 240.455509 -439.274378 
L 240.505226 -435.750053 
L 240.582925 -432.225728 
L 240.69599 -428.701403 
L 240.85028 -425.177078 
L 241.049883 -421.652753 
L 241.296974 -418.128428 
L 241.591782 -414.604103 
L 241.93265 -411.079778 
L 242.316196 -407.555453 
L 242.73755 -404.031128 
L 243.190662 -400.506803 
L 243.668639 -396.982478 
L 244.164116 -393.458153 
L 244.669611 -389.933828 
L 245.177867 -386.409503 
L 245.682161 -382.885178 
L 246.176579 -379.360852 
L 246.656256 -375.836527 
L 247.117604 -372.312202 
L 247.558529 -368.787877 
L 247.978647 -365.263552 
L 248.379511 -361.739227 
L 248.764844 -358.214902 
L 249.14075 -354.690577 
L 249.515888 -351.166252 
L 249.901548 -347.641927 
L 250.311581 -344.117602 
L 250.762129 -340.593277 
L 251.271086 -337.068952 
L 251.857296 -333.544627 
L 252.539467 -330.020302 
L 253.334885 -326.495977 
L 254.258013 -322.971652 
L 255.319136 -319.447327 
L 256.523215 -315.923002 
L 257.869095 -312.398677 
L 259.34921 -308.874352 
L 260.94982 -305.350027 
L 262.651756 -301.825702 
L 264.431552 -298.301376 
L 266.262768 -294.777051 
L 268.117278 -291.252726 
L 269.966295 -287.728401 
L 271.780961 -284.204076 
L 273.532422 -280.679751 
L 275.191422 -277.155426 
L 276.727576 -273.631101 
L 278.10858 -270.106776 
L 279.299648 -266.582451 
L 280.263484 -263.058126 
L 280.961019 -259.533801 
L 281.353014 -256.009476 
L 281.4025 -252.485151 
L 281.077842 -248.960826 
L 280.356093 -245.436501 
L 279.226221 -241.912176 
L 277.691728 -238.387851 
L 275.772297 -234.863526 
L 273.504128 -231.339201 
L 270.938858 -227.814876 
L 268.141088 -224.290551 
L 265.184754 -220.766225 
L 262.148688 -217.2419 
L 259.111837 -213.717575 
L 256.14862 -210.19325 
L 253.324859 -206.668925 
L 250.694641 -203.1446 
L 248.298342 -199.620275 
L 246.161864 -196.09595 
L 244.29704 -192.571625 
L 242.703011 -189.0473 
L 241.36832 -185.522975 
L 240.273412 -181.99865 
L 239.393268 -178.474325 
L 238.699905 -174.95 
L 238.16455 -171.425675 
z
" style="stroke: #3d3d3d; stroke-opacity: 0.5"/>
    </defs>
    <g clip-path="url(#pe7e9b8dfe0)">
     <use xlink:href="#mccb454a9b9" x="0" y="707.825675" style="fill: #d684bd; fill-opacity: 0.5; stroke: #3d3d3d; stroke-opacity: 0.5"/>
    </g>
   </g>
   <g id="PolyCollection_3">
    <defs>
     <path id="m5d500080b4" d="M 348.75694 -318.267175 
L 347.96806 -318.267175 
L 347.814124 -321.825936 
L 347.614615 -325.384698 
L 347.361383 -328.94346 
L 347.046417 -332.502222 
L 346.662271 -336.060984 
L 346.202515 -339.619746 
L 345.662139 -343.178507 
L 345.037909 -346.737269 
L 344.32863 -350.296031 
L 343.535318 -353.854793 
L 342.661265 -357.413555 
L 341.711999 -360.972317 
L 340.695108 -364.531078 
L 339.619904 -368.08984 
L 338.496882 -371.648602 
L 337.336949 -375.207364 
L 336.150398 -378.766126 
L 334.945703 -382.324888 
L 333.728218 -385.883649 
L 332.499002 -389.442411 
L 331.25398 -393.001173 
L 329.983704 -396.559935 
L 328.673925 -400.118697 
L 327.307066 -403.677458 
L 325.864578 -407.23622 
L 324.329951 -410.794982 
L 322.692047 -414.353744 
L 320.94827 -417.912506 
L 319.107093 -421.471268 
L 317.189482 -425.030029 
L 315.228922 -428.588791 
L 313.269904 -432.147553 
L 311.365007 -435.706315 
L 309.570882 -439.265077 
L 307.943638 -442.823839 
L 306.534238 -446.3826 
L 305.384483 -449.941362 
L 304.524096 -453.500124 
L 303.96923 -457.058886 
L 303.7225 -460.617648 
L 303.774404 -464.17641 
L 304.105797 -467.735171 
L 304.690959 -471.293933 
L 305.500737 -474.852695 
L 306.505327 -478.411457 
L 307.676349 -481.970219 
L 308.988085 -485.52898 
L 310.417886 -489.087742 
L 311.945928 -492.646504 
L 313.554564 -496.205266 
L 315.227539 -499.764028 
L 316.949298 -503.32279 
L 318.704521 -506.881551 
L 320.477928 -510.440313 
L 322.254313 -513.999075 
L 324.018697 -517.557837 
L 325.756508 -521.116599 
L 327.453689 -524.675361 
L 329.096701 -528.234122 
L 330.672442 -531.792884 
L 332.168147 -535.351646 
L 333.571358 -538.910408 
L 334.870049 -542.46917 
L 336.052974 -546.027931 
L 337.110239 -549.586693 
L 338.034082 -553.145455 
L 338.81976 -556.704217 
L 339.466435 -560.262979 
L 339.977906 -563.821741 
L 340.363074 -567.380502 
L 340.635995 -570.939264 
L 340.815475 -574.498026 
L 340.924171 -578.056788 
L 340.987258 -581.61555 
L 341.030766 -585.174312 
L 341.079764 -588.733073 
L 341.156577 -592.291835 
L 341.279257 -595.850597 
L 341.460463 -599.409359 
L 341.706883 -602.968121 
L 342.019239 -606.526883 
L 342.392831 -610.085644 
L 342.818516 -613.644406 
L 343.28397 -617.203168 
L 343.775055 -620.76193 
L 344.277126 -624.320692 
L 344.776167 -627.879453 
L 345.259655 -631.438215 
L 345.717148 -634.996977 
L 346.140594 -638.555739 
L 346.5244 -642.114501 
L 346.86533 -645.673263 
L 347.162268 -649.232024 
L 347.415904 -652.790786 
L 347.628379 -656.349548 
L 347.802922 -659.90831 
L 347.943488 -663.467072 
L 348.05443 -667.025834 
L 348.140212 -670.584595 
L 348.584788 -670.584595 
L 348.584788 -670.584595 
L 348.67057 -667.025834 
L 348.781512 -663.467072 
L 348.922078 -659.90831 
L 349.096621 -656.349548 
L 349.309096 -652.790786 
L 349.562732 -649.232024 
L 349.85967 -645.673263 
L 350.2006 -642.114501 
L 350.584406 -638.555739 
L 351.007852 -634.996977 
L 351.465345 -631.438215 
L 351.948833 -627.879453 
L 352.447874 -624.320692 
L 352.949945 -620.76193 
L 353.44103 -617.203168 
L 353.906484 -613.644406 
L 354.332169 -610.085644 
L 354.705761 -606.526883 
L 355.018117 -602.968121 
L 355.264537 -599.409359 
L 355.445743 -595.850597 
L 355.568423 -592.291835 
L 355.645236 -588.733073 
L 355.694234 -585.174312 
L 355.737742 -581.61555 
L 355.800829 -578.056788 
L 355.909525 -574.498026 
L 356.089005 -570.939264 
L 356.361926 -567.380502 
L 356.747094 -563.821741 
L 357.258565 -560.262979 
L 357.90524 -556.704217 
L 358.690918 -553.145455 
L 359.614761 -549.586693 
L 360.672026 -546.027931 
L 361.854951 -542.46917 
L 363.153642 -538.910408 
L 364.556853 -535.351646 
L 366.052558 -531.792884 
L 367.628299 -528.234122 
L 369.271311 -524.675361 
L 370.968492 -521.116599 
L 372.706303 -517.557837 
L 374.470687 -513.999075 
L 376.247072 -510.440313 
L 378.020479 -506.881551 
L 379.775702 -503.32279 
L 381.497461 -499.764028 
L 383.170436 -496.205266 
L 384.779072 -492.646504 
L 386.307114 -489.087742 
L 387.736915 -485.52898 
L 389.048651 -481.970219 
L 390.219673 -478.411457 
L 391.224263 -474.852695 
L 392.034041 -471.293933 
L 392.619203 -467.735171 
L 392.950596 -464.17641 
L 393.0025 -460.617648 
L 392.75577 -457.058886 
L 392.200904 -453.500124 
L 391.340517 -449.941362 
L 390.190762 -446.3826 
L 388.781362 -442.823839 
L 387.154118 -439.265077 
L 385.359993 -435.706315 
L 383.455096 -432.147553 
L 381.496078 -428.588791 
L 379.535518 -425.030029 
L 377.617907 -421.471268 
L 375.77673 -417.912506 
L 374.032953 -414.353744 
L 372.395049 -410.794982 
L 370.860422 -407.23622 
L 369.417934 -403.677458 
L 368.051075 -400.118697 
L 366.741296 -396.559935 
L 365.47102 -393.001173 
L 364.225998 -389.442411 
L 362.996782 -385.883649 
L 361.779297 -382.324888 
L 360.574602 -378.766126 
L 359.388051 -375.207364 
L 358.228118 -371.648602 
L 357.105096 -368.08984 
L 356.029892 -364.531078 
L 355.013001 -360.972317 
L 354.063735 -357.413555 
L 353.189682 -353.854793 
L 352.39637 -350.296031 
L 351.687091 -346.737269 
L 351.062861 -343.178507 
L 350.522485 -339.619746 
L 350.062729 -336.060984 
L 349.678583 -332.502222 
L 349.363617 -328.94346 
L 349.110385 -325.384698 
L 348.910876 -321.825936 
L 348.75694 -318.267175 
z
" style="stroke: #3d3d3d; stroke-opacity: 0.5"/>
    </defs>
    <g clip-path="url(#pe7e9b8dfe0)">
     <use xlink:href="#m5d500080b4" x="0" y="707.825675" style="fill: #c03d3e; fill-opacity: 0.5; stroke: #3d3d3d; stroke-opacity: 0.5"/>
    </g>
   </g>
   <g id="PolyCollection_4">
    <defs>
     <path id="m7b8fe3b336" d="M 460.443116 -207.35721 
L 459.481884 -207.35721 
L 459.279154 -211.916944 
L 459.008536 -216.476679 
L 458.654357 -221.036414 
L 458.199741 -225.596149 
L 457.627282 -230.155883 
L 456.91995 -234.715618 
L 456.062156 -239.275353 
L 455.040953 -243.835087 
L 453.847235 -248.394822 
L 452.476819 -252.954557 
L 450.931261 -257.514291 
L 449.218269 -262.074026 
L 447.351606 -266.633761 
L 445.350436 -271.193496 
L 443.238176 -275.75323 
L 441.040976 -280.312965 
L 438.786071 -284.8727 
L 436.500277 -289.432434 
L 434.208913 -293.992169 
L 431.935367 -298.551904 
L 429.701404 -303.111638 
L 427.52815 -307.671373 
L 425.437547 -312.231108 
L 423.453918 -316.790843 
L 421.605243 -321.350577 
L 419.923771 -325.910312 
L 418.44567 -330.470047 
L 417.209604 -335.029781 
L 416.254333 -339.589516 
L 415.615568 -344.149251 
L 415.3225 -348.708985 
L 415.394468 -353.26872 
L 415.838208 -357.828455 
L 416.646084 -362.38819 
L 417.795547 -366.947924 
L 419.249932 -371.507659 
L 420.960544 -376.067394 
L 422.869827 -380.627128 
L 424.915318 -385.186863 
L 427.033966 -389.746598 
L 429.166385 -394.306332 
L 431.260593 -398.866067 
L 433.274835 -403.425802 
L 435.179206 -407.985537 
L 436.955927 -412.545271 
L 438.598275 -417.105006 
L 440.108404 -421.664741 
L 441.494375 -426.224475 
L 442.766899 -430.78421 
L 443.93627 -435.343945 
L 445.009976 -439.903679 
L 445.991323 -444.463414 
L 446.879255 -449.023149 
L 447.669342 -453.582884 
L 448.3557 -458.142618 
L 448.933455 -462.702353 
L 449.401277 -467.262088 
L 449.76348 -471.821822 
L 450.031274 -476.381557 
L 450.222917 -480.941292 
L 450.362666 -485.501026 
L 450.478685 -490.060761 
L 450.600209 -494.620496 
L 450.754409 -499.180231 
L 450.963436 -503.739965 
L 451.242103 -508.2997 
L 451.596515 -512.859435 
L 452.023836 -517.419169 
L 452.513162 -521.978904 
L 453.047314 -526.538639 
L 453.605257 -531.098373 
L 454.164738 -535.658108 
L 454.704805 -540.217843 
L 455.207875 -544.777578 
L 455.661161 -549.337312 
L 456.057353 -553.897047 
L 456.394607 -558.456782 
L 456.675926 -563.016516 
L 456.90814 -567.576251 
L 457.100642 -572.135986 
L 457.264091 -576.69572 
L 457.409205 -581.255455 
L 457.545747 -585.81519 
L 457.681781 -590.374925 
L 457.823191 -594.934659 
L 457.973481 -599.494394 
L 458.133814 -604.054129 
L 458.303259 -608.613863 
L 458.479193 -613.173598 
L 458.657811 -617.733333 
L 458.834677 -622.293067 
L 459.005271 -626.852802 
L 459.165459 -631.412537 
L 459.311867 -635.972272 
L 459.442112 -640.532006 
L 459.554901 -645.091741 
L 459.649989 -649.651476 
L 459.728044 -654.21121 
L 459.79044 -658.770945 
L 460.13456 -658.770945 
L 460.13456 -658.770945 
L 460.196956 -654.21121 
L 460.275011 -649.651476 
L 460.370099 -645.091741 
L 460.482888 -640.532006 
L 460.613133 -635.972272 
L 460.759541 -631.412537 
L 460.919729 -626.852802 
L 461.090323 -622.293067 
L 461.267189 -617.733333 
L 461.445807 -613.173598 
L 461.621741 -608.613863 
L 461.791186 -604.054129 
L 461.951519 -599.494394 
L 462.101809 -594.934659 
L 462.243219 -590.374925 
L 462.379253 -585.81519 
L 462.515795 -581.255455 
L 462.660909 -576.69572 
L 462.824358 -572.135986 
L 463.01686 -567.576251 
L 463.249074 -563.016516 
L 463.530393 -558.456782 
L 463.867647 -553.897047 
L 464.263839 -549.337312 
L 464.717125 -544.777578 
L 465.220195 -540.217843 
L 465.760262 -535.658108 
L 466.319743 -531.098373 
L 466.877686 -526.538639 
L 467.411838 -521.978904 
L 467.901164 -517.419169 
L 468.328485 -512.859435 
L 468.682897 -508.2997 
L 468.961564 -503.739965 
L 469.170591 -499.180231 
L 469.324791 -494.620496 
L 469.446315 -490.060761 
L 469.562334 -485.501026 
L 469.702083 -480.941292 
L 469.893726 -476.381557 
L 470.16152 -471.821822 
L 470.523723 -467.262088 
L 470.991545 -462.702353 
L 471.5693 -458.142618 
L 472.255658 -453.582884 
L 473.045745 -449.023149 
L 473.933677 -444.463414 
L 474.915024 -439.903679 
L 475.98873 -435.343945 
L 477.158101 -430.78421 
L 478.430625 -426.224475 
L 479.816596 -421.664741 
L 481.326725 -417.105006 
L 482.969073 -412.545271 
L 484.745794 -407.985537 
L 486.650165 -403.425802 
L 488.664407 -398.866067 
L 490.758615 -394.306332 
L 492.891034 -389.746598 
L 495.009682 -385.186863 
L 497.055173 -380.627128 
L 498.964456 -376.067394 
L 500.675068 -371.507659 
L 502.129453 -366.947924 
L 503.278916 -362.38819 
L 504.086792 -357.828455 
L 504.530532 -353.26872 
L 504.6025 -348.708985 
L 504.309432 -344.149251 
L 503.670667 -339.589516 
L 502.715396 -335.029781 
L 501.47933 -330.470047 
L 500.001229 -325.910312 
L 498.319757 -321.350577 
L 496.471082 -316.790843 
L 494.487453 -312.231108 
L 492.39685 -307.671373 
L 490.223596 -303.111638 
L 487.989633 -298.551904 
L 485.716087 -293.992169 
L 483.424723 -289.432434 
L 481.138929 -284.8727 
L 478.884024 -280.312965 
L 476.686824 -275.75323 
L 474.574564 -271.193496 
L 472.573394 -266.633761 
L 470.706731 -262.074026 
L 468.993739 -257.514291 
L 467.448181 -252.954557 
L 466.077765 -248.394822 
L 464.884047 -243.835087 
L 463.862844 -239.275353 
L 463.00505 -234.715618 
L 462.297718 -230.155883 
L 461.725259 -225.596149 
L 461.270643 -221.036414 
L 460.916464 -216.476679 
L 460.645846 -211.916944 
L 460.443116 -207.35721 
z
" style="stroke: #3d3d3d; stroke-opacity: 0.5"/>
    </defs>
    <g clip-path="url(#pe7e9b8dfe0)">
     <use xlink:href="#m7b8fe3b336" x="0" y="707.825675" style="fill: #9372b2; fill-opacity: 0.5; stroke: #3d3d3d; stroke-opacity: 0.5"/>
    </g>
   </g>
   <g id="PolyCollection_5">
    <defs>
     <path id="m3f597f23a8" d="M 572.625888 -215.364419 
L 570.499112 -215.364419 
L 570.04242 -219.874076 
L 569.434614 -224.383734 
L 568.644784 -228.893392 
L 567.642655 -233.403049 
L 566.40119 -237.912707 
L 564.899552 -242.422365 
L 563.126097 -246.932022 
L 561.081042 -251.44168 
L 558.778386 -255.951338 
L 556.246736 -260.460995 
L 553.528783 -264.970653 
L 550.679377 -269.480311 
L 547.762328 -273.989968 
L 544.846289 -278.499626 
L 542.000214 -283.009284 
L 539.288969 -287.518941 
L 536.769634 -292.028599 
L 534.488934 -296.538257 
L 532.482015 -301.047914 
L 530.772584 -305.557572 
L 529.374176 -310.06723 
L 528.292169 -314.576888 
L 527.526084 -319.086545 
L 527.07168 -323.596203 
L 526.9225 -328.105861 
L 527.070638 -332.615518 
L 527.506701 -337.125176 
L 528.21913 -341.634834 
L 529.193139 -346.144491 
L 530.409631 -350.654149 
L 531.844402 -355.163807 
L 533.467878 -359.673464 
L 535.245498 -364.183122 
L 537.138708 -368.69278 
L 539.106417 -373.202437 
L 541.106701 -377.712095 
L 543.098526 -382.221753 
L 545.043302 -386.73141 
L 546.906177 -391.241068 
L 548.657048 -395.750726 
L 550.271338 -400.260383 
L 551.73062 -404.770041 
L 553.023134 -409.279699 
L 554.144194 -413.789356 
L 555.096422 -418.299014 
L 555.889695 -422.808672 
L 556.540669 -427.318329 
L 557.071788 -431.827987 
L 557.509758 -436.337645 
L 557.883558 -440.847302 
L 558.222161 -445.35696 
L 558.552214 -449.866618 
L 558.895956 -454.376275 
L 559.269627 -458.885933 
L 559.682579 -463.395591 
L 560.137174 -467.905248 
L 560.62948 -472.414906 
L 561.150633 -476.924564 
L 561.68867 -481.434222 
L 562.230572 -485.943879 
L 562.764237 -490.453537 
L 563.280116 -494.963195 
L 563.772316 -499.472852 
L 564.239031 -503.98251 
L 564.682284 -508.492168 
L 565.107058 -513.001825 
L 565.519977 -517.511483 
L 565.927775 -522.021141 
L 566.335816 -526.530798 
L 566.746896 -531.040456 
L 567.160529 -535.550114 
L 567.572815 -540.059771 
L 567.976883 -544.569429 
L 568.363833 -549.079087 
L 568.724002 -553.588744 
L 569.048338 -558.098402 
L 569.32968 -562.60806 
L 569.563756 -567.117717 
L 569.749755 -571.627375 
L 569.890438 -576.137033 
L 569.991771 -580.64669 
L 570.062187 -585.156348 
L 570.111566 -589.666006 
L 570.150122 -594.175663 
L 570.187316 -598.685321 
L 570.230954 -603.194979 
L 570.286556 -607.704636 
L 570.357064 -612.214294 
L 570.442877 -616.723952 
L 570.542187 -621.233609 
L 570.651522 -625.743267 
L 570.766407 -630.252925 
L 570.882038 -634.762582 
L 570.993876 -639.27224 
L 571.098104 -643.781898 
L 571.191904 -648.291556 
L 571.273568 -652.801213 
L 571.342444 -657.310871 
L 571.398788 -661.820529 
L 571.726212 -661.820529 
L 571.726212 -661.820529 
L 571.782556 -657.310871 
L 571.851432 -652.801213 
L 571.933096 -648.291556 
L 572.026896 -643.781898 
L 572.131124 -639.27224 
L 572.242962 -634.762582 
L 572.358593 -630.252925 
L 572.473478 -625.743267 
L 572.582813 -621.233609 
L 572.682123 -616.723952 
L 572.767936 -612.214294 
L 572.838444 -607.704636 
L 572.894046 -603.194979 
L 572.937684 -598.685321 
L 572.974878 -594.175663 
L 573.013434 -589.666006 
L 573.062813 -585.156348 
L 573.133229 -580.64669 
L 573.234562 -576.137033 
L 573.375245 -571.627375 
L 573.561244 -567.117717 
L 573.79532 -562.60806 
L 574.076662 -558.098402 
L 574.400998 -553.588744 
L 574.761167 -549.079087 
L 575.148117 -544.569429 
L 575.552185 -540.059771 
L 575.964471 -535.550114 
L 576.378104 -531.040456 
L 576.789184 -526.530798 
L 577.197225 -522.021141 
L 577.605023 -517.511483 
L 578.017942 -513.001825 
L 578.442716 -508.492168 
L 578.885969 -503.98251 
L 579.352684 -499.472852 
L 579.844884 -494.963195 
L 580.360763 -490.453537 
L 580.894428 -485.943879 
L 581.43633 -481.434222 
L 581.974367 -476.924564 
L 582.49552 -472.414906 
L 582.987826 -467.905248 
L 583.442421 -463.395591 
L 583.855373 -458.885933 
L 584.229044 -454.376275 
L 584.572786 -449.866618 
L 584.902839 -445.35696 
L 585.241442 -440.847302 
L 585.615242 -436.337645 
L 586.053212 -431.827987 
L 586.584331 -427.318329 
L 587.235305 -422.808672 
L 588.028578 -418.299014 
L 588.980806 -413.789356 
L 590.101866 -409.279699 
L 591.39438 -404.770041 
L 592.853662 -400.260383 
L 594.467952 -395.750726 
L 596.218823 -391.241068 
L 598.081698 -386.73141 
L 600.026474 -382.221753 
L 602.018299 -377.712095 
L 604.018583 -373.202437 
L 605.986292 -368.69278 
L 607.879502 -364.183122 
L 609.657122 -359.673464 
L 611.280598 -355.163807 
L 612.715369 -350.654149 
L 613.931861 -346.144491 
L 614.90587 -341.634834 
L 615.618299 -337.125176 
L 616.054362 -332.615518 
L 616.2025 -328.105861 
L 616.05332 -323.596203 
L 615.598916 -319.086545 
L 614.832831 -314.576888 
L 613.750824 -310.06723 
L 612.352416 -305.557572 
L 610.642985 -301.047914 
L 608.636066 -296.538257 
L 606.355366 -292.028599 
L 603.836031 -287.518941 
L 601.124786 -283.009284 
L 598.278711 -278.499626 
L 595.362672 -273.989968 
L 592.445623 -269.480311 
L 589.596217 -264.970653 
L 586.878264 -260.460995 
L 584.346614 -255.951338 
L 582.043958 -251.44168 
L 579.998903 -246.932022 
L 578.225448 -242.422365 
L 576.72381 -237.912707 
L 575.482345 -233.403049 
L 574.480216 -228.893392 
L 573.690386 -224.383734 
L 573.08258 -219.874076 
L 572.625888 -215.364419 
z
" style="stroke: #3d3d3d; stroke-opacity: 0.5"/>
    </defs>
    <g clip-path="url(#pe7e9b8dfe0)">
     <use xlink:href="#m3f597f23a8" x="0" y="707.825675" style="fill: #845b53; fill-opacity: 0.5; stroke: #3d3d3d; stroke-opacity: 0.5"/>
    </g>
   </g>
   <g id="PolyCollection_6">
    <defs>
     <path id="m1426cd135c" d="M 683.838263 -172.672773 
L 682.486737 -172.672773 
L 682.142889 -177.02875 
L 681.661927 -181.384726 
L 681.007566 -185.740702 
L 680.141487 -190.096679 
L 679.026132 -194.452655 
L 677.628227 -198.808631 
L 675.922706 -203.164607 
L 673.896561 -207.520584 
L 671.552086 -211.87656 
L 668.90902 -216.232536 
L 666.005252 -220.588512 
L 662.895975 -224.944489 
L 659.651456 -229.300465 
L 656.353781 -233.656441 
L 653.093002 -238.012417 
L 649.963074 -242.368394 
L 647.05778 -246.72437 
L 644.466654 -251.080346 
L 642.270792 -255.436323 
L 640.538467 -259.792299 
L 639.320671 -264.148275 
L 638.646991 -268.504251 
L 638.5225 -272.860228 
L 638.926435 -277.216204 
L 639.813306 -281.57218 
L 641.11667 -285.928156 
L 642.755262 -290.284133 
L 644.640667 -294.640109 
L 646.68533 -298.996085 
L 648.809671 -303.352061 
L 650.947288 -307.708038 
L 653.047692 -312.064014 
L 655.076566 -316.41999 
L 657.013995 -320.775966 
L 658.851411 -325.131943 
L 660.588072 -329.487919 
L 662.227746 -333.843895 
L 663.776078 -338.199872 
L 665.238814 -342.555848 
L 666.620857 -346.911824 
L 667.925982 -351.2678 
L 669.15696 -355.623777 
L 670.315866 -359.979753 
L 671.404369 -364.335729 
L 672.423881 -368.691705 
L 673.375502 -373.047682 
L 674.259787 -377.403658 
L 675.076418 -381.759634 
L 675.823902 -386.11561 
L 676.499453 -390.471587 
L 677.099182 -394.827563 
L 677.618678 -399.183539 
L 678.053975 -403.539516 
L 678.402818 -407.895492 
L 678.666043 -412.251468 
L 678.848808 -416.607444 
L 678.961419 -420.963421 
L 679.019459 -425.319397 
L 679.043085 -429.675373 
L 679.055441 -434.031349 
L 679.08035 -438.387326 
L 679.139611 -442.743302 
L 679.250339 -447.099278 
L 679.42284 -451.455254 
L 679.659422 -455.811231 
L 679.954375 -460.167207 
L 680.295102 -464.523183 
L 680.664172 -468.879159 
L 681.041872 -473.235136 
L 681.40877 -477.591112 
L 681.747867 -481.947088 
L 682.046021 -486.303065 
L 682.294562 -490.659041 
L 682.489165 -495.015017 
L 682.629205 -499.370993 
L 682.716866 -503.72697 
L 682.756276 -508.082946 
L 682.752846 -512.438922 
L 682.712889 -516.794898 
L 682.643501 -521.150875 
L 682.552572 -525.506851 
L 682.448792 -529.862827 
L 682.341497 -534.218803 
L 682.240283 -538.57478 
L 682.154363 -542.930756 
L 682.091765 -547.286732 
L 682.058499 -551.642709 
L 682.057881 -555.998685 
L 682.090169 -560.354661 
L 682.1526 -564.710637 
L 682.239839 -569.066614 
L 682.344767 -573.42259 
L 682.459458 -577.778566 
L 682.57616 -582.134542 
L 682.688132 -586.490519 
L 682.790213 -590.846495 
L 682.879076 -595.202471 
L 682.953188 -599.558447 
L 683.01255 -603.914424 
L 683.31245 -603.914424 
L 683.31245 -603.914424 
L 683.371812 -599.558447 
L 683.445924 -595.202471 
L 683.534787 -590.846495 
L 683.636868 -586.490519 
L 683.74884 -582.134542 
L 683.865542 -577.778566 
L 683.980233 -573.42259 
L 684.085161 -569.066614 
L 684.1724 -564.710637 
L 684.234831 -560.354661 
L 684.267119 -555.998685 
L 684.266501 -551.642709 
L 684.233235 -547.286732 
L 684.170637 -542.930756 
L 684.084717 -538.57478 
L 683.983503 -534.218803 
L 683.876208 -529.862827 
L 683.772428 -525.506851 
L 683.681499 -521.150875 
L 683.612111 -516.794898 
L 683.572154 -512.438922 
L 683.568724 -508.082946 
L 683.608134 -503.72697 
L 683.695795 -499.370993 
L 683.835835 -495.015017 
L 684.030438 -490.659041 
L 684.278979 -486.303065 
L 684.577133 -481.947088 
L 684.91623 -477.591112 
L 685.283128 -473.235136 
L 685.660828 -468.879159 
L 686.029898 -464.523183 
L 686.370625 -460.167207 
L 686.665578 -455.811231 
L 686.90216 -451.455254 
L 687.074661 -447.099278 
L 687.185389 -442.743302 
L 687.24465 -438.387326 
L 687.269559 -434.031349 
L 687.281915 -429.675373 
L 687.305541 -425.319397 
L 687.363581 -420.963421 
L 687.476192 -416.607444 
L 687.658957 -412.251468 
L 687.922182 -407.895492 
L 688.271025 -403.539516 
L 688.706322 -399.183539 
L 689.225818 -394.827563 
L 689.825547 -390.471587 
L 690.501098 -386.11561 
L 691.248582 -381.759634 
L 692.065213 -377.403658 
L 692.949498 -373.047682 
L 693.901119 -368.691705 
L 694.920631 -364.335729 
L 696.009134 -359.979753 
L 697.16804 -355.623777 
L 698.399018 -351.2678 
L 699.704143 -346.911824 
L 701.086186 -342.555848 
L 702.548922 -338.199872 
L 704.097254 -333.843895 
L 705.736928 -329.487919 
L 707.473589 -325.131943 
L 709.311005 -320.775966 
L 711.248434 -316.41999 
L 713.277308 -312.064014 
L 715.377712 -307.708038 
L 717.515329 -303.352061 
L 719.63967 -298.996085 
L 721.684333 -294.640109 
L 723.569738 -290.284133 
L 725.20833 -285.928156 
L 726.511694 -281.57218 
L 727.398565 -277.216204 
L 727.8025 -272.860228 
L 727.678009 -268.504251 
L 727.004329 -264.148275 
L 725.786533 -259.792299 
L 724.054208 -255.436323 
L 721.858346 -251.080346 
L 719.26722 -246.72437 
L 716.361926 -242.368394 
L 713.231998 -238.012417 
L 709.971219 -233.656441 
L 706.673544 -229.300465 
L 703.429025 -224.944489 
L 700.319748 -220.588512 
L 697.41598 -216.232536 
L 694.772914 -211.87656 
L 692.428439 -207.520584 
L 690.402294 -203.164607 
L 688.696773 -198.808631 
L 687.298868 -194.452655 
L 686.183513 -190.096679 
L 685.317434 -185.740702 
L 684.663073 -181.384726 
L 684.182111 -177.02875 
L 683.838263 -172.672773 
z
" style="stroke: #3d3d3d; stroke-opacity: 0.5"/>
    </defs>
    <g clip-path="url(#pe7e9b8dfe0)">
     <use xlink:href="#m1426cd135c" x="0" y="707.825675" style="fill: #e1812c; fill-opacity: 0.5; stroke: #3d3d3d; stroke-opacity: 0.5"/>
    </g>
   </g>
   <g id="PolyCollection_7">
    <defs>
     <path id="mac8442865b" d="M 795.575806 -176.693769 
L 793.949194 -176.693769 
L 793.592238 -181.200449 
L 793.111264 -185.707129 
L 792.477165 -190.213809 
L 791.659171 -194.720488 
L 790.6266 -199.227168 
L 789.351112 -203.733848 
L 787.809363 -208.240528 
L 785.98586 -212.747208 
L 783.875741 -217.253887 
L 781.487179 -221.760567 
L 778.843095 -226.267247 
L 775.981888 -230.773927 
L 772.956998 -235.280607 
L 769.835215 -239.787286 
L 766.693815 -244.293966 
L 763.616729 -248.800646 
L 760.690067 -253.307326 
L 757.997408 -257.814006 
L 755.615268 -262.320685 
L 753.609129 -266.827365 
L 752.030318 -271.334045 
L 750.913918 -275.840725 
L 750.277765 -280.347405 
L 750.1225 -284.854084 
L 750.432536 -289.360764 
L 751.177795 -293.867444 
L 752.316019 -298.374124 
L 753.795475 -302.880804 
L 755.557872 -307.387483 
L 757.541305 -311.894163 
L 759.683072 -316.400843 
L 761.922188 -320.907523 
L 764.201467 -325.414203 
L 766.469084 -329.920882 
L 768.679585 -334.427562 
L 770.794379 -338.934242 
L 772.781807 -343.440922 
L 774.61695 -347.947602 
L 776.281322 -352.454281 
L 777.76259 -356.960961 
L 779.054407 -361.467641 
L 780.156366 -365.974321 
L 781.074001 -370.481001 
L 781.818717 -374.98768 
L 782.407488 -379.49436 
L 782.862186 -384.00104 
L 783.208456 -388.50772 
L 783.474154 -393.0144 
L 783.687431 -397.521079 
L 783.874677 -402.027759 
L 784.058578 -406.534439 
L 784.256541 -411.041119 
L 784.479747 -415.547799 
L 784.732965 -420.054478 
L 785.015175 -424.561158 
L 785.320893 -429.067838 
L 785.641998 -433.574518 
L 785.969751 -438.081198 
L 786.296687 -442.587877 
L 786.61808 -447.094557 
L 786.932765 -451.601237 
L 787.243211 -456.107917 
L 787.554889 -460.614597 
L 787.87508 -465.121276 
L 788.211375 -469.627956 
L 788.57012 -474.134636 
L 788.9551 -478.641316 
L 789.366636 -483.147996 
L 789.801223 -487.654675 
L 790.251729 -492.161355 
L 790.70808 -496.668035 
L 791.158309 -501.174715 
L 791.58979 -505.681395 
L 791.990511 -510.188074 
L 792.350214 -514.694754 
L 792.661306 -519.201434 
L 792.919464 -523.708114 
L 793.123889 -528.214794 
L 793.277226 -532.721473 
L 793.385174 -537.228153 
L 793.455834 -541.734833 
L 793.498877 -546.241513 
L 793.524602 -550.748193 
L 793.543005 -555.254872 
L 793.562925 -559.761552 
L 793.591368 -564.268232 
L 793.633069 -568.774912 
L 793.690333 -573.281592 
L 793.763137 -577.788271 
L 793.849482 -582.294951 
L 793.945906 -586.801631 
L 794.048091 -591.308311 
L 794.151476 -595.814991 
L 794.251787 -600.32167 
L 794.345446 -604.82835 
L 794.429819 -609.33503 
L 794.503301 -613.84171 
L 794.565268 -618.34839 
L 794.615935 -622.855069 
L 794.909065 -622.855069 
L 794.909065 -622.855069 
L 794.959732 -618.34839 
L 795.021699 -613.84171 
L 795.095181 -609.33503 
L 795.179554 -604.82835 
L 795.273213 -600.32167 
L 795.373524 -595.814991 
L 795.476909 -591.308311 
L 795.579094 -586.801631 
L 795.675518 -582.294951 
L 795.761863 -577.788271 
L 795.834667 -573.281592 
L 795.891931 -568.774912 
L 795.933632 -564.268232 
L 795.962075 -559.761552 
L 795.981995 -555.254872 
L 796.000398 -550.748193 
L 796.026123 -546.241513 
L 796.069166 -541.734833 
L 796.139826 -537.228153 
L 796.247774 -532.721473 
L 796.401111 -528.214794 
L 796.605536 -523.708114 
L 796.863694 -519.201434 
L 797.174786 -514.694754 
L 797.534489 -510.188074 
L 797.93521 -505.681395 
L 798.366691 -501.174715 
L 798.81692 -496.668035 
L 799.273271 -492.161355 
L 799.723777 -487.654675 
L 800.158364 -483.147996 
L 800.5699 -478.641316 
L 800.95488 -474.134636 
L 801.313625 -469.627956 
L 801.64992 -465.121276 
L 801.970111 -460.614597 
L 802.281789 -456.107917 
L 802.592235 -451.601237 
L 802.90692 -447.094557 
L 803.228313 -442.587877 
L 803.555249 -438.081198 
L 803.883002 -433.574518 
L 804.204107 -429.067838 
L 804.509825 -424.561158 
L 804.792035 -420.054478 
L 805.045253 -415.547799 
L 805.268459 -411.041119 
L 805.466422 -406.534439 
L 805.650323 -402.027759 
L 805.837569 -397.521079 
L 806.050846 -393.0144 
L 806.316544 -388.50772 
L 806.662814 -384.00104 
L 807.117512 -379.49436 
L 807.706283 -374.98768 
L 808.450999 -370.481001 
L 809.368634 -365.974321 
L 810.470593 -361.467641 
L 811.76241 -356.960961 
L 813.243678 -352.454281 
L 814.90805 -347.947602 
L 816.743193 -343.440922 
L 818.730621 -338.934242 
L 820.845415 -334.427562 
L 823.055916 -329.920882 
L 825.323533 -325.414203 
L 827.602812 -320.907523 
L 829.841928 -316.400843 
L 831.983695 -311.894163 
L 833.967128 -307.387483 
L 835.729525 -302.880804 
L 837.208981 -298.374124 
L 838.347205 -293.867444 
L 839.092464 -289.360764 
L 839.4025 -284.854084 
L 839.247235 -280.347405 
L 838.611082 -275.840725 
L 837.494682 -271.334045 
L 835.915871 -266.827365 
L 833.909732 -262.320685 
L 831.527592 -257.814006 
L 828.834933 -253.307326 
L 825.908271 -248.800646 
L 822.831185 -244.293966 
L 819.689785 -239.787286 
L 816.568002 -235.280607 
L 813.543112 -230.773927 
L 810.681905 -226.267247 
L 808.037821 -221.760567 
L 805.649259 -217.253887 
L 803.53914 -212.747208 
L 801.715637 -208.240528 
L 800.173888 -203.733848 
L 798.8984 -199.227168 
L 797.865829 -194.720488 
L 797.047835 -190.213809 
L 796.413736 -185.707129 
L 795.932762 -181.200449 
L 795.575806 -176.693769 
z
" style="stroke: #3d3d3d; stroke-opacity: 0.5"/>
    </defs>
    <g clip-path="url(#pe7e9b8dfe0)">
     <use xlink:href="#mac8442865b" x="0" y="707.825675" style="fill: #3a923a; fill-opacity: 0.5; stroke: #3d3d3d; stroke-opacity: 0.5"/>
    </g>
   </g>
   <g id="line2d_8">
    <path d="M 125.1625 449.141887 
L 125.1625 189.252024 
" clip-path="url(#pe7e9b8dfe0)" style="fill: none; stroke: #3d3d3d; stroke-width: 1.5; stroke-linecap: round"/>
   </g>
   <g id="line2d_9">
    <path d="M 125.1625 375.76545 
L 125.1625 296.270856 
" clip-path="url(#pe7e9b8dfe0)" style="fill: none; stroke: #3d3d3d; stroke-width: 4.5; stroke-linecap: round"/>
   </g>
   <g id="line2d_10">
    <path d="M 125.1625 339.552503 
" clip-path="url(#pe7e9b8dfe0)" style="fill: none; stroke: #3d3d3d; stroke-width: 1.5; stroke-linecap: round"/>
    <defs>
     <path id="m4af8cb8773" d="M 1.875 0 
L -1.875 -0 
" style="stroke: #ffffff; stroke-width: 0.9"/>
    </defs>
    <g clip-path="url(#pe7e9b8dfe0)">
     <use xlink:href="#m4af8cb8773" x="125.1625" y="339.552503" style="fill: #ffffff; stroke: #ffffff; stroke-width: 0.9"/>
    </g>
   </g>
   <g id="line2d_11">
    <path d="M 236.7625 486.450494 
L 236.7625 312.295616 
" clip-path="url(#pe7e9b8dfe0)" style="fill: none; stroke: #3d3d3d; stroke-width: 1.5; stroke-linecap: round"/>
   </g>
   <g id="line2d_12">
    <path d="M 236.7625 462.696211 
L 236.7625 398.596587 
" clip-path="url(#pe7e9b8dfe0)" style="fill: none; stroke: #3d3d3d; stroke-width: 4.5; stroke-linecap: round"/>
   </g>
   <g id="line2d_13">
    <path d="M 236.7625 437.515124 
" clip-path="url(#pe7e9b8dfe0)" style="fill: none; stroke: #3d3d3d; stroke-width: 1.5; stroke-linecap: round"/>
    <g clip-path="url(#pe7e9b8dfe0)">
     <use xlink:href="#m4af8cb8773" x="236.7625" y="437.515124" style="fill: #ffffff; stroke: #ffffff; stroke-width: 0.9"/>
    </g>
   </g>
   <g id="line2d_14">
    <path d="M 348.3625 342.920119 
L 348.3625 117.070676 
" clip-path="url(#pe7e9b8dfe0)" style="fill: none; stroke: #3d3d3d; stroke-width: 1.5; stroke-linecap: round"/>
   </g>
   <g id="line2d_15">
    <path d="M 348.3625 268.230451 
L 348.3625 207.344845 
" clip-path="url(#pe7e9b8dfe0)" style="fill: none; stroke: #3d3d3d; stroke-width: 4.5; stroke-linecap: round"/>
   </g>
   <g id="line2d_16">
    <path d="M 348.3625 243.351592 
" clip-path="url(#pe7e9b8dfe0)" style="fill: none; stroke: #3d3d3d; stroke-width: 1.5; stroke-linecap: round"/>
    <g clip-path="url(#pe7e9b8dfe0)">
     <use xlink:href="#m4af8cb8773" x="348.3625" y="243.351592" style="fill: #ffffff; stroke: #ffffff; stroke-width: 0.9"/>
    </g>
   </g>
   <g id="line2d_17">
    <path d="M 459.9625 441.62822 
L 459.9625 196.010283 
" clip-path="url(#pe7e9b8dfe0)" style="fill: none; stroke: #3d3d3d; stroke-width: 1.5; stroke-linecap: round"/>
   </g>
   <g id="line2d_18">
    <path d="M 459.9625 378.883248 
L 459.9625 302.59091 
" clip-path="url(#pe7e9b8dfe0)" style="fill: none; stroke: #3d3d3d; stroke-width: 4.5; stroke-linecap: round"/>
   </g>
   <g id="line2d_19">
    <path d="M 459.9625 349.422585 
" clip-path="url(#pe7e9b8dfe0)" style="fill: none; stroke: #3d3d3d; stroke-width: 1.5; stroke-linecap: round"/>
    <g clip-path="url(#pe7e9b8dfe0)">
     <use xlink:href="#m4af8cb8773" x="459.9625" y="349.422585" style="fill: #ffffff; stroke: #ffffff; stroke-width: 0.9"/>
    </g>
   </g>
   <g id="line2d_20">
    <path d="M 571.5625 433.754816 
L 571.5625 190.43105 
" clip-path="url(#pe7e9b8dfe0)" style="fill: none; stroke: #3d3d3d; stroke-width: 1.5; stroke-linecap: round"/>
   </g>
   <g id="line2d_21">
    <path d="M 571.5625 398.354355 
L 571.5625 312.887713 
" clip-path="url(#pe7e9b8dfe0)" style="fill: none; stroke: #3d3d3d; stroke-width: 4.5; stroke-linecap: round"/>
   </g>
   <g id="line2d_22">
    <path d="M 571.5625 365.766109 
" clip-path="url(#pe7e9b8dfe0)" style="fill: none; stroke: #3d3d3d; stroke-width: 1.5; stroke-linecap: round"/>
    <g clip-path="url(#pe7e9b8dfe0)">
     <use xlink:href="#m4af8cb8773" x="571.5625" y="365.766109" style="fill: #ffffff; stroke: #ffffff; stroke-width: 0.9"/>
    </g>
   </g>
   <g id="line2d_23">
    <path d="M 683.1625 485.188231 
L 683.1625 316.953861 
" clip-path="url(#pe7e9b8dfe0)" style="fill: none; stroke: #3d3d3d; stroke-width: 1.5; stroke-linecap: round"/>
   </g>
   <g id="line2d_24">
    <path d="M 683.1625 444.218695 
L 683.1625 387.218345 
" clip-path="url(#pe7e9b8dfe0)" style="fill: none; stroke: #3d3d3d; stroke-width: 4.5; stroke-linecap: round"/>
   </g>
   <g id="line2d_25">
    <path d="M 683.1625 424.62944 
" clip-path="url(#pe7e9b8dfe0)" style="fill: none; stroke: #3d3d3d; stroke-width: 1.5; stroke-linecap: round"/>
    <g clip-path="url(#pe7e9b8dfe0)">
     <use xlink:href="#m4af8cb8773" x="683.1625" y="424.62944" style="fill: #ffffff; stroke: #ffffff; stroke-width: 0.9"/>
    </g>
   </g>
   <g id="line2d_26">
    <path d="M 794.7625 472.709622 
L 794.7625 243.335483 
" clip-path="url(#pe7e9b8dfe0)" style="fill: none; stroke: #3d3d3d; stroke-width: 1.5; stroke-linecap: round"/>
   </g>
   <g id="line2d_27">
    <path d="M 794.7625 437.86379 
L 794.7625 359.029004 
" clip-path="url(#pe7e9b8dfe0)" style="fill: none; stroke: #3d3d3d; stroke-width: 4.5; stroke-linecap: round"/>
   </g>
   <g id="line2d_28">
    <path d="M 794.7625 411.38202 
" clip-path="url(#pe7e9b8dfe0)" style="fill: none; stroke: #3d3d3d; stroke-width: 1.5; stroke-linecap: round"/>
    <g clip-path="url(#pe7e9b8dfe0)">
     <use xlink:href="#m4af8cb8773" x="794.7625" y="411.38202" style="fill: #ffffff; stroke: #ffffff; stroke-width: 0.9"/>
    </g>
   </g>
   <g id="patch_3">
    <path d="M 69.3625 561.6 
L 850.5625 561.6 
" style="fill: none; stroke: #cccccc; stroke-width: 0.8; stroke-linejoin: miter; stroke-linecap: square"/>
   </g>
  </g>
 </g>
 <defs>
  <clipPath id="pe7e9b8dfe0">
   <rect x="69.3625" y="7.2" width="781.2" height="554.4"/>
  </clipPath>
 </defs>
</svg>
