<?xml version="1.0" encoding="utf-8" standalone="no"?>
<!DOCTYPE svg PUBLIC "-//W3C//DTD SVG 1.1//EN"
  "http://www.w3.org/Graphics/SVG/1.1/DTD/svg11.dtd">
<svg xmlns:xlink="http://www.w3.org/1999/xlink" width="857.7625pt" height="707.825675pt" viewBox="0 0 857.7625 707.825675" xmlns="http://www.w3.org/2000/svg" version="1.1">
 <metadata>
  <rdf:RDF xmlns:dc="http://purl.org/dc/elements/1.1/" xmlns:cc="http://creativecommons.org/ns#" xmlns:rdf="http://www.w3.org/1999/02/22-rdf-syntax-ns#">
   <cc:Work>
    <dc:type rdf:resource="http://purl.org/dc/dcmitype/StillImage"/>
    <dc:date>2024-10-23T17:23:46.398268</dc:date>
    <dc:format>image/svg+xml</dc:format>
    <dc:creator>
     <cc:Agent>
      <dc:title>Matplotlib v3.8.0, https://matplotlib.org/</dc:title>
     </cc:Agent>
    </dc:creator>
   </cc:Work>
  </rdf:RDF>
 </metadata>
 <defs>
  <style type="text/css">*{stroke-linejoin: round; stroke-linecap: butt}</style>
 </defs>
 <g id="figure_1">
  <g id="patch_1">
   <path d="M 0 707.825675 
L 857.7625 707.825675 
L 857.7625 0 
L 0 0 
L 0 707.825675 
z
" style="fill: none"/>
  </g>
  <g id="axes_1">
   <g id="patch_2">
    <path d="M 69.3625 561.6 
L 850.5625 561.6 
L 850.5625 7.2 
L 69.3625 7.2 
L 69.3625 561.6 
z
" style="fill: none"/>
   </g>
   <g id="matplotlib.axis_1">
    <g id="xtick_1">
     <g id="text_1">
      <!-- MSA -->
      <g style="fill: #262626" transform="translate(104.788986 610.465141) rotate(-45) scale(0.2 -0.2)">
       <defs>
        <path id="DejaVuSans-4d" d="M 628 4666 
L 1569 4666 
L 2759 1491 
L 3956 4666 
L 4897 4666 
L 4897 0 
L 4281 0 
L 4281 4097 
L 3078 897 
L 2444 897 
L 1241 4097 
L 1241 0 
L 628 0 
L 628 4666 
z
" transform="scale(0.015625)"/>
        <path id="DejaVuSans-53" d="M 3425 4513 
L 3425 3897 
Q 3066 4069 2747 4153 
Q 2428 4238 2131 4238 
Q 1616 4238 1336 4038 
Q 1056 3838 1056 3469 
Q 1056 3159 1242 3001 
Q 1428 2844 1947 2747 
L 2328 2669 
Q 3034 2534 3370 2195 
Q 3706 1856 3706 1288 
Q 3706 609 3251 259 
Q 2797 -91 1919 -91 
Q 1588 -91 1214 -16 
Q 841 59 441 206 
L 441 856 
Q 825 641 1194 531 
Q 1563 422 1919 422 
Q 2459 422 2753 634 
Q 3047 847 3047 1241 
Q 3047 1584 2836 1778 
Q 2625 1972 2144 2069 
L 1759 2144 
Q 1053 2284 737 2584 
Q 422 2884 422 3419 
Q 422 4038 858 4394 
Q 1294 4750 2059 4750 
Q 2388 4750 2728 4690 
Q 3069 4631 3425 4513 
z
" transform="scale(0.015625)"/>
        <path id="DejaVuSans-41" d="M 2188 4044 
L 1331 1722 
L 3047 1722 
L 2188 4044 
z
M 1831 4666 
L 2547 4666 
L 4325 0 
L 3669 0 
L 3244 1197 
L 1141 1197 
L 716 0 
L 50 0 
L 1831 4666 
z
" transform="scale(0.015625)"/>
       </defs>
       <use xlink:href="#DejaVuSans-4d"/>
       <use xlink:href="#DejaVuSans-53" x="86.279297"/>
       <use xlink:href="#DejaVuSans-41" x="151.630859"/>
      </g>
     </g>
    </g>
    <g id="xtick_2">
     <g id="text_2">
      <!-- Template -->
      <g style="fill: #262626" transform="translate(182.97819 643.875936) rotate(-45) scale(0.2 -0.2)">
       <defs>
        <path id="DejaVuSans-54" d="M -19 4666 
L 3928 4666 
L 3928 4134 
L 2272 4134 
L 2272 0 
L 1638 0 
L 1638 4134 
L -19 4134 
L -19 4666 
z
" transform="scale(0.015625)"/>
        <path id="DejaVuSans-65" d="M 3597 1894 
L 3597 1613 
L 953 1613 
Q 991 1019 1311 708 
Q 1631 397 2203 397 
Q 2534 397 2845 478 
Q 3156 559 3463 722 
L 3463 178 
Q 3153 47 2828 -22 
Q 2503 -91 2169 -91 
Q 1331 -91 842 396 
Q 353 884 353 1716 
Q 353 2575 817 3079 
Q 1281 3584 2069 3584 
Q 2775 3584 3186 3129 
Q 3597 2675 3597 1894 
z
M 3022 2063 
Q 3016 2534 2758 2815 
Q 2500 3097 2075 3097 
Q 1594 3097 1305 2825 
Q 1016 2553 972 2059 
L 3022 2063 
z
" transform="scale(0.015625)"/>
        <path id="DejaVuSans-6d" d="M 3328 2828 
Q 3544 3216 3844 3400 
Q 4144 3584 4550 3584 
Q 5097 3584 5394 3201 
Q 5691 2819 5691 2113 
L 5691 0 
L 5113 0 
L 5113 2094 
Q 5113 2597 4934 2840 
Q 4756 3084 4391 3084 
Q 3944 3084 3684 2787 
Q 3425 2491 3425 1978 
L 3425 0 
L 2847 0 
L 2847 2094 
Q 2847 2600 2669 2842 
Q 2491 3084 2119 3084 
Q 1678 3084 1418 2786 
Q 1159 2488 1159 1978 
L 1159 0 
L 581 0 
L 581 3500 
L 1159 3500 
L 1159 2956 
Q 1356 3278 1631 3431 
Q 1906 3584 2284 3584 
Q 2666 3584 2933 3390 
Q 3200 3197 3328 2828 
z
" transform="scale(0.015625)"/>
        <path id="DejaVuSans-70" d="M 1159 525 
L 1159 -1331 
L 581 -1331 
L 581 3500 
L 1159 3500 
L 1159 2969 
Q 1341 3281 1617 3432 
Q 1894 3584 2278 3584 
Q 2916 3584 3314 3078 
Q 3713 2572 3713 1747 
Q 3713 922 3314 415 
Q 2916 -91 2278 -91 
Q 1894 -91 1617 61 
Q 1341 213 1159 525 
z
M 3116 1747 
Q 3116 2381 2855 2742 
Q 2594 3103 2138 3103 
Q 1681 3103 1420 2742 
Q 1159 2381 1159 1747 
Q 1159 1113 1420 752 
Q 1681 391 2138 391 
Q 2594 391 2855 752 
Q 3116 1113 3116 1747 
z
" transform="scale(0.015625)"/>
        <path id="DejaVuSans-6c" d="M 603 4863 
L 1178 4863 
L 1178 0 
L 603 0 
L 603 4863 
z
" transform="scale(0.015625)"/>
        <path id="DejaVuSans-61" d="M 2194 1759 
Q 1497 1759 1228 1600 
Q 959 1441 959 1056 
Q 959 750 1161 570 
Q 1363 391 1709 391 
Q 2188 391 2477 730 
Q 2766 1069 2766 1631 
L 2766 1759 
L 2194 1759 
z
M 3341 1997 
L 3341 0 
L 2766 0 
L 2766 531 
Q 2569 213 2275 61 
Q 1981 -91 1556 -91 
Q 1019 -91 701 211 
Q 384 513 384 1019 
Q 384 1609 779 1909 
Q 1175 2209 1959 2209 
L 2766 2209 
L 2766 2266 
Q 2766 2663 2505 2880 
Q 2244 3097 1772 3097 
Q 1472 3097 1187 3025 
Q 903 2953 641 2809 
L 641 3341 
Q 956 3463 1253 3523 
Q 1550 3584 1831 3584 
Q 2591 3584 2966 3190 
Q 3341 2797 3341 1997 
z
" transform="scale(0.015625)"/>
        <path id="DejaVuSans-74" d="M 1172 4494 
L 1172 3500 
L 2356 3500 
L 2356 3053 
L 1172 3053 
L 1172 1153 
Q 1172 725 1289 603 
Q 1406 481 1766 481 
L 2356 481 
L 2356 0 
L 1766 0 
Q 1100 0 847 248 
Q 594 497 594 1153 
L 594 3053 
L 172 3053 
L 172 3500 
L 594 3500 
L 594 4494 
L 1172 4494 
z
" transform="scale(0.015625)"/>
       </defs>
       <use xlink:href="#DejaVuSans-54"/>
       <use xlink:href="#DejaVuSans-65" x="44.083984"/>
       <use xlink:href="#DejaVuSans-6d" x="105.607422"/>
       <use xlink:href="#DejaVuSans-70" x="203.019531"/>
       <use xlink:href="#DejaVuSans-6c" x="266.496094"/>
       <use xlink:href="#DejaVuSans-61" x="294.279297"/>
       <use xlink:href="#DejaVuSans-74" x="355.558594"/>
       <use xlink:href="#DejaVuSans-65" x="394.767578"/>
      </g>
     </g>
    </g>
    <g id="xtick_3">
     <g id="text_3">
      <!-- Backbone -->
      <g style="fill: #262626" transform="translate(289.478183 648.975944) rotate(-45) scale(0.2 -0.2)">
       <defs>
        <path id="DejaVuSans-42" d="M 1259 2228 
L 1259 519 
L 2272 519 
Q 2781 519 3026 730 
Q 3272 941 3272 1375 
Q 3272 1813 3026 2020 
Q 2781 2228 2272 2228 
L 1259 2228 
z
M 1259 4147 
L 1259 2741 
L 2194 2741 
Q 2656 2741 2882 2914 
Q 3109 3088 3109 3444 
Q 3109 3797 2882 3972 
Q 2656 4147 2194 4147 
L 1259 4147 
z
M 628 4666 
L 2241 4666 
Q 2963 4666 3353 4366 
Q 3744 4066 3744 3513 
Q 3744 3084 3544 2831 
Q 3344 2578 2956 2516 
Q 3422 2416 3680 2098 
Q 3938 1781 3938 1306 
Q 3938 681 3513 340 
Q 3088 0 2303 0 
L 628 0 
L 628 4666 
z
" transform="scale(0.015625)"/>
        <path id="DejaVuSans-63" d="M 3122 3366 
L 3122 2828 
Q 2878 2963 2633 3030 
Q 2388 3097 2138 3097 
Q 1578 3097 1268 2742 
Q 959 2388 959 1747 
Q 959 1106 1268 751 
Q 1578 397 2138 397 
Q 2388 397 2633 464 
Q 2878 531 3122 666 
L 3122 134 
Q 2881 22 2623 -34 
Q 2366 -91 2075 -91 
Q 1284 -91 818 406 
Q 353 903 353 1747 
Q 353 2603 823 3093 
Q 1294 3584 2113 3584 
Q 2378 3584 2631 3529 
Q 2884 3475 3122 3366 
z
" transform="scale(0.015625)"/>
        <path id="DejaVuSans-6b" d="M 581 4863 
L 1159 4863 
L 1159 1991 
L 2875 3500 
L 3609 3500 
L 1753 1863 
L 3688 0 
L 2938 0 
L 1159 1709 
L 1159 0 
L 581 0 
L 581 4863 
z
" transform="scale(0.015625)"/>
        <path id="DejaVuSans-62" d="M 3116 1747 
Q 3116 2381 2855 2742 
Q 2594 3103 2138 3103 
Q 1681 3103 1420 2742 
Q 1159 2381 1159 1747 
Q 1159 1113 1420 752 
Q 1681 391 2138 391 
Q 2594 391 2855 752 
Q 3116 1113 3116 1747 
z
M 1159 2969 
Q 1341 3281 1617 3432 
Q 1894 3584 2278 3584 
Q 2916 3584 3314 3078 
Q 3713 2572 3713 1747 
Q 3713 922 3314 415 
Q 2916 -91 2278 -91 
Q 1894 -91 1617 61 
Q 1341 213 1159 525 
L 1159 0 
L 581 0 
L 581 4863 
L 1159 4863 
L 1159 2969 
z
" transform="scale(0.015625)"/>
        <path id="DejaVuSans-6f" d="M 1959 3097 
Q 1497 3097 1228 2736 
Q 959 2375 959 1747 
Q 959 1119 1226 758 
Q 1494 397 1959 397 
Q 2419 397 2687 759 
Q 2956 1122 2956 1747 
Q 2956 2369 2687 2733 
Q 2419 3097 1959 3097 
z
M 1959 3584 
Q 2709 3584 3137 3096 
Q 3566 2609 3566 1747 
Q 3566 888 3137 398 
Q 2709 -91 1959 -91 
Q 1206 -91 779 398 
Q 353 888 353 1747 
Q 353 2609 779 3096 
Q 1206 3584 1959 3584 
z
" transform="scale(0.015625)"/>
        <path id="DejaVuSans-6e" d="M 3513 2113 
L 3513 0 
L 2938 0 
L 2938 2094 
Q 2938 2591 2744 2837 
Q 2550 3084 2163 3084 
Q 1697 3084 1428 2787 
Q 1159 2491 1159 1978 
L 1159 0 
L 581 0 
L 581 3500 
L 1159 3500 
L 1159 2956 
Q 1366 3272 1645 3428 
Q 1925 3584 2291 3584 
Q 2894 3584 3203 3211 
Q 3513 2838 3513 2113 
z
" transform="scale(0.015625)"/>
       </defs>
       <use xlink:href="#DejaVuSans-42"/>
       <use xlink:href="#DejaVuSans-61" x="68.603516"/>
       <use xlink:href="#DejaVuSans-63" x="129.882812"/>
       <use xlink:href="#DejaVuSans-6b" x="184.863281"/>
       <use xlink:href="#DejaVuSans-62" x="242.773438"/>
       <use xlink:href="#DejaVuSans-6f" x="306.25"/>
       <use xlink:href="#DejaVuSans-6e" x="367.431641"/>
       <use xlink:href="#DejaVuSans-65" x="430.810547"/>
      </g>
     </g>
    </g>
    <g id="xtick_4">
     <g id="text_4">
      <!-- Heuristic C-$\beta$ -->
      <g style="fill: #262626" transform="translate(379.63517 670.706219) rotate(-45) scale(0.2 -0.2)">
       <defs>
        <path id="DejaVuSans-48" d="M 628 4666 
L 1259 4666 
L 1259 2753 
L 3553 2753 
L 3553 4666 
L 4184 4666 
L 4184 0 
L 3553 0 
L 3553 2222 
L 1259 2222 
L 1259 0 
L 628 0 
L 628 4666 
z
" transform="scale(0.015625)"/>
        <path id="DejaVuSans-75" d="M 544 1381 
L 544 3500 
L 1119 3500 
L 1119 1403 
Q 1119 906 1312 657 
Q 1506 409 1894 409 
Q 2359 409 2629 706 
Q 2900 1003 2900 1516 
L 2900 3500 
L 3475 3500 
L 3475 0 
L 2900 0 
L 2900 538 
Q 2691 219 2414 64 
Q 2138 -91 1772 -91 
Q 1169 -91 856 284 
Q 544 659 544 1381 
z
M 1991 3584 
L 1991 3584 
z
" transform="scale(0.015625)"/>
        <path id="DejaVuSans-72" d="M 2631 2963 
Q 2534 3019 2420 3045 
Q 2306 3072 2169 3072 
Q 1681 3072 1420 2755 
Q 1159 2438 1159 1844 
L 1159 0 
L 581 0 
L 581 3500 
L 1159 3500 
L 1159 2956 
Q 1341 3275 1631 3429 
Q 1922 3584 2338 3584 
Q 2397 3584 2469 3576 
Q 2541 3569 2628 3553 
L 2631 2963 
z
" transform="scale(0.015625)"/>
        <path id="DejaVuSans-69" d="M 603 3500 
L 1178 3500 
L 1178 0 
L 603 0 
L 603 3500 
z
M 603 4863 
L 1178 4863 
L 1178 4134 
L 603 4134 
L 603 4863 
z
" transform="scale(0.015625)"/>
        <path id="DejaVuSans-73" d="M 2834 3397 
L 2834 2853 
Q 2591 2978 2328 3040 
Q 2066 3103 1784 3103 
Q 1356 3103 1142 2972 
Q 928 2841 928 2578 
Q 928 2378 1081 2264 
Q 1234 2150 1697 2047 
L 1894 2003 
Q 2506 1872 2764 1633 
Q 3022 1394 3022 966 
Q 3022 478 2636 193 
Q 2250 -91 1575 -91 
Q 1294 -91 989 -36 
Q 684 19 347 128 
L 347 722 
Q 666 556 975 473 
Q 1284 391 1588 391 
Q 1994 391 2212 530 
Q 2431 669 2431 922 
Q 2431 1156 2273 1281 
Q 2116 1406 1581 1522 
L 1381 1569 
Q 847 1681 609 1914 
Q 372 2147 372 2553 
Q 372 3047 722 3315 
Q 1072 3584 1716 3584 
Q 2034 3584 2315 3537 
Q 2597 3491 2834 3397 
z
" transform="scale(0.015625)"/>
        <path id="DejaVuSans-20" transform="scale(0.015625)"/>
        <path id="DejaVuSans-43" d="M 4122 4306 
L 4122 3641 
Q 3803 3938 3442 4084 
Q 3081 4231 2675 4231 
Q 1875 4231 1450 3742 
Q 1025 3253 1025 2328 
Q 1025 1406 1450 917 
Q 1875 428 2675 428 
Q 3081 428 3442 575 
Q 3803 722 4122 1019 
L 4122 359 
Q 3791 134 3420 21 
Q 3050 -91 2638 -91 
Q 1578 -91 968 557 
Q 359 1206 359 2328 
Q 359 3453 968 4101 
Q 1578 4750 2638 4750 
Q 3056 4750 3426 4639 
Q 3797 4528 4122 4306 
z
" transform="scale(0.015625)"/>
        <path id="DejaVuSans-2d" d="M 313 2009 
L 1997 2009 
L 1997 1497 
L 313 1497 
L 313 2009 
z
" transform="scale(0.015625)"/>
        <path id="DejaVuSans-Oblique-3b2" d="M 872 216 
L 572 -1331 
L -6 -1331 
L 928 3478 
Q 1206 4903 2538 4903 
Q 3888 4903 3659 3700 
Q 3503 2844 2894 2531 
Q 3713 2250 3553 1416 
Q 3272 -69 1759 -66 
Q 1097 -63 872 216 
z
M 1019 966 
Q 1259 422 1875 425 
Q 2775 425 2966 1406 
Q 3138 2288 1675 2219 
L 1778 2750 
Q 2909 2731 3106 3750 
Q 3241 4438 2509 4434 
Q 1691 4434 1503 3459 
L 1019 966 
z
" transform="scale(0.015625)"/>
       </defs>
       <use xlink:href="#DejaVuSans-48" transform="translate(0 0.390625)"/>
       <use xlink:href="#DejaVuSans-65" transform="translate(75.195312 0.390625)"/>
       <use xlink:href="#DejaVuSans-75" transform="translate(136.71875 0.390625)"/>
       <use xlink:href="#DejaVuSans-72" transform="translate(200.097656 0.390625)"/>
       <use xlink:href="#DejaVuSans-69" transform="translate(241.210938 0.390625)"/>
       <use xlink:href="#DejaVuSans-73" transform="translate(268.994141 0.390625)"/>
       <use xlink:href="#DejaVuSans-74" transform="translate(321.09375 0.390625)"/>
       <use xlink:href="#DejaVuSans-69" transform="translate(360.302734 0.390625)"/>
       <use xlink:href="#DejaVuSans-63" transform="translate(388.085938 0.390625)"/>
       <use xlink:href="#DejaVuSans-20" transform="translate(443.066406 0.390625)"/>
       <use xlink:href="#DejaVuSans-43" transform="translate(474.853516 0.390625)"/>
       <use xlink:href="#DejaVuSans-2d" transform="translate(544.677734 0.390625)"/>
       <use xlink:href="#DejaVuSans-Oblique-3b2" transform="translate(580.761719 0.390625)"/>
      </g>
     </g>
    </g>
    <g id="xtick_5">
     <g id="text_5">
      <!-- Template C-$\beta$ -->
      <g style="fill: #262626" transform="translate(486.992529 674.94886) rotate(-45) scale(0.2 -0.2)">
       <use xlink:href="#DejaVuSans-54" transform="translate(0 0.390625)"/>
       <use xlink:href="#DejaVuSans-65" transform="translate(61.083984 0.390625)"/>
       <use xlink:href="#DejaVuSans-6d" transform="translate(122.607422 0.390625)"/>
       <use xlink:href="#DejaVuSans-70" transform="translate(220.019531 0.390625)"/>
       <use xlink:href="#DejaVuSans-6c" transform="translate(283.496094 0.390625)"/>
       <use xlink:href="#DejaVuSans-61" transform="translate(311.279297 0.390625)"/>
       <use xlink:href="#DejaVuSans-74" transform="translate(372.558594 0.390625)"/>
       <use xlink:href="#DejaVuSans-65" transform="translate(411.767578 0.390625)"/>
       <use xlink:href="#DejaVuSans-20" transform="translate(473.291016 0.390625)"/>
       <use xlink:href="#DejaVuSans-43" transform="translate(505.078125 0.390625)"/>
       <use xlink:href="#DejaVuSans-2d" transform="translate(574.902344 0.390625)"/>
       <use xlink:href="#DejaVuSans-Oblique-3b2" transform="translate(610.986328 0.390625)"/>
      </g>
     </g>
    </g>
    <g id="xtick_6">
     <g id="text_6">
      <!-- AttnPacker -->
      <g style="fill: #262626" transform="translate(617.905383 655.348744) rotate(-45) scale(0.2 -0.2)">
       <defs>
        <path id="DejaVuSans-50" d="M 1259 4147 
L 1259 2394 
L 2053 2394 
Q 2494 2394 2734 2622 
Q 2975 2850 2975 3272 
Q 2975 3691 2734 3919 
Q 2494 4147 2053 4147 
L 1259 4147 
z
M 628 4666 
L 2053 4666 
Q 2838 4666 3239 4311 
Q 3641 3956 3641 3272 
Q 3641 2581 3239 2228 
Q 2838 1875 2053 1875 
L 1259 1875 
L 1259 0 
L 628 0 
L 628 4666 
z
" transform="scale(0.015625)"/>
       </defs>
       <use xlink:href="#DejaVuSans-41"/>
       <use xlink:href="#DejaVuSans-74" x="66.658203"/>
       <use xlink:href="#DejaVuSans-74" x="105.867188"/>
       <use xlink:href="#DejaVuSans-6e" x="145.076172"/>
       <use xlink:href="#DejaVuSans-50" x="208.455078"/>
       <use xlink:href="#DejaVuSans-61" x="264.257812"/>
       <use xlink:href="#DejaVuSans-63" x="325.537109"/>
       <use xlink:href="#DejaVuSans-6b" x="380.517578"/>
       <use xlink:href="#DejaVuSans-65" x="434.802734"/>
       <use xlink:href="#DejaVuSans-72" x="496.326172"/>
      </g>
     </g>
    </g>
    <g id="xtick_7">
     <g id="text_7">
      <!-- AttnPacker (AF2) -->
      <g style="fill: #262626" transform="translate(687.169574 697.684553) rotate(-45) scale(0.2 -0.2)">
       <defs>
        <path id="DejaVuSans-28" d="M 1984 4856 
Q 1566 4138 1362 3434 
Q 1159 2731 1159 2009 
Q 1159 1288 1364 580 
Q 1569 -128 1984 -844 
L 1484 -844 
Q 1016 -109 783 600 
Q 550 1309 550 2009 
Q 550 2706 781 3412 
Q 1013 4119 1484 4856 
L 1984 4856 
z
" transform="scale(0.015625)"/>
        <path id="DejaVuSans-46" d="M 628 4666 
L 3309 4666 
L 3309 4134 
L 1259 4134 
L 1259 2759 
L 3109 2759 
L 3109 2228 
L 1259 2228 
L 1259 0 
L 628 0 
L 628 4666 
z
" transform="scale(0.015625)"/>
        <path id="DejaVuSans-32" d="M 1228 531 
L 3431 531 
L 3431 0 
L 469 0 
L 469 531 
Q 828 903 1448 1529 
Q 2069 2156 2228 2338 
Q 2531 2678 2651 2914 
Q 2772 3150 2772 3378 
Q 2772 3750 2511 3984 
Q 2250 4219 1831 4219 
Q 1534 4219 1204 4116 
Q 875 4013 500 3803 
L 500 4441 
Q 881 4594 1212 4672 
Q 1544 4750 1819 4750 
Q 2544 4750 2975 4387 
Q 3406 4025 3406 3419 
Q 3406 3131 3298 2873 
Q 3191 2616 2906 2266 
Q 2828 2175 2409 1742 
Q 1991 1309 1228 531 
z
" transform="scale(0.015625)"/>
        <path id="DejaVuSans-29" d="M 513 4856 
L 1013 4856 
Q 1481 4119 1714 3412 
Q 1947 2706 1947 2009 
Q 1947 1309 1714 600 
Q 1481 -109 1013 -844 
L 513 -844 
Q 928 -128 1133 580 
Q 1338 1288 1338 2009 
Q 1338 2731 1133 3434 
Q 928 4138 513 4856 
z
" transform="scale(0.015625)"/>
       </defs>
       <use xlink:href="#DejaVuSans-41"/>
       <use xlink:href="#DejaVuSans-74" x="66.658203"/>
       <use xlink:href="#DejaVuSans-74" x="105.867188"/>
       <use xlink:href="#DejaVuSans-6e" x="145.076172"/>
       <use xlink:href="#DejaVuSans-50" x="208.455078"/>
       <use xlink:href="#DejaVuSans-61" x="264.257812"/>
       <use xlink:href="#DejaVuSans-63" x="325.537109"/>
       <use xlink:href="#DejaVuSans-6b" x="380.517578"/>
       <use xlink:href="#DejaVuSans-65" x="434.802734"/>
       <use xlink:href="#DejaVuSans-72" x="496.326172"/>
       <use xlink:href="#DejaVuSans-20" x="537.439453"/>
       <use xlink:href="#DejaVuSans-28" x="569.226562"/>
       <use xlink:href="#DejaVuSans-41" x="608.240234"/>
       <use xlink:href="#DejaVuSans-46" x="676.648438"/>
       <use xlink:href="#DejaVuSans-32" x="734.167969"/>
       <use xlink:href="#DejaVuSans-29" x="797.791016"/>
      </g>
     </g>
    </g>
   </g>
   <g id="matplotlib.axis_2">
    <g id="ytick_1">
     <g id="line2d_1">
      <path d="M 69.3625 536.349362 
L 850.5625 536.349362 
" clip-path="url(#pb73b020fc3)" style="fill: none; stroke: #cccccc; stroke-width: 0.8; stroke-linecap: round"/>
     </g>
     <g id="text_8">
      <!-- 0.0 -->
      <g style="fill: #262626" transform="translate(30.55625 543.947799) scale(0.2 -0.2)">
       <defs>
        <path id="DejaVuSans-30" d="M 2034 4250 
Q 1547 4250 1301 3770 
Q 1056 3291 1056 2328 
Q 1056 1369 1301 889 
Q 1547 409 2034 409 
Q 2525 409 2770 889 
Q 3016 1369 3016 2328 
Q 3016 3291 2770 3770 
Q 2525 4250 2034 4250 
z
M 2034 4750 
Q 2819 4750 3233 4129 
Q 3647 3509 3647 2328 
Q 3647 1150 3233 529 
Q 2819 -91 2034 -91 
Q 1250 -91 836 529 
Q 422 1150 422 2328 
Q 422 3509 836 4129 
Q 1250 4750 2034 4750 
z
" transform="scale(0.015625)"/>
        <path id="DejaVuSans-2e" d="M 684 794 
L 1344 794 
L 1344 0 
L 684 0 
L 684 794 
z
" transform="scale(0.015625)"/>
       </defs>
       <use xlink:href="#DejaVuSans-30"/>
       <use xlink:href="#DejaVuSans-2e" x="63.623047"/>
       <use xlink:href="#DejaVuSans-30" x="95.410156"/>
      </g>
     </g>
    </g>
    <g id="ytick_2">
     <g id="line2d_2">
      <path d="M 69.3625 467.850591 
L 850.5625 467.850591 
" clip-path="url(#pb73b020fc3)" style="fill: none; stroke: #cccccc; stroke-width: 0.8; stroke-linecap: round"/>
     </g>
     <g id="text_9">
      <!-- 0.2 -->
      <g style="fill: #262626" transform="translate(30.55625 475.449029) scale(0.2 -0.2)">
       <use xlink:href="#DejaVuSans-30"/>
       <use xlink:href="#DejaVuSans-2e" x="63.623047"/>
       <use xlink:href="#DejaVuSans-32" x="95.410156"/>
      </g>
     </g>
    </g>
    <g id="ytick_3">
     <g id="line2d_3">
      <path d="M 69.3625 399.35182 
L 850.5625 399.35182 
" clip-path="url(#pb73b020fc3)" style="fill: none; stroke: #cccccc; stroke-width: 0.8; stroke-linecap: round"/>
     </g>
     <g id="text_10">
      <!-- 0.4 -->
      <g style="fill: #262626" transform="translate(30.55625 406.950258) scale(0.2 -0.2)">
       <defs>
        <path id="DejaVuSans-34" d="M 2419 4116 
L 825 1625 
L 2419 1625 
L 2419 4116 
z
M 2253 4666 
L 3047 4666 
L 3047 1625 
L 3713 1625 
L 3713 1100 
L 3047 1100 
L 3047 0 
L 2419 0 
L 2419 1100 
L 313 1100 
L 313 1709 
L 2253 4666 
z
" transform="scale(0.015625)"/>
       </defs>
       <use xlink:href="#DejaVuSans-30"/>
       <use xlink:href="#DejaVuSans-2e" x="63.623047"/>
       <use xlink:href="#DejaVuSans-34" x="95.410156"/>
      </g>
     </g>
    </g>
    <g id="ytick_4">
     <g id="line2d_4">
      <path d="M 69.3625 330.853049 
L 850.5625 330.853049 
" clip-path="url(#pb73b020fc3)" style="fill: none; stroke: #cccccc; stroke-width: 0.8; stroke-linecap: round"/>
     </g>
     <g id="text_11">
      <!-- 0.6 -->
      <g style="fill: #262626" transform="translate(30.55625 338.451487) scale(0.2 -0.2)">
       <defs>
        <path id="DejaVuSans-36" d="M 2113 2584 
Q 1688 2584 1439 2293 
Q 1191 2003 1191 1497 
Q 1191 994 1439 701 
Q 1688 409 2113 409 
Q 2538 409 2786 701 
Q 3034 994 3034 1497 
Q 3034 2003 2786 2293 
Q 2538 2584 2113 2584 
z
M 3366 4563 
L 3366 3988 
Q 3128 4100 2886 4159 
Q 2644 4219 2406 4219 
Q 1781 4219 1451 3797 
Q 1122 3375 1075 2522 
Q 1259 2794 1537 2939 
Q 1816 3084 2150 3084 
Q 2853 3084 3261 2657 
Q 3669 2231 3669 1497 
Q 3669 778 3244 343 
Q 2819 -91 2113 -91 
Q 1303 -91 875 529 
Q 447 1150 447 2328 
Q 447 3434 972 4092 
Q 1497 4750 2381 4750 
Q 2619 4750 2861 4703 
Q 3103 4656 3366 4563 
z
" transform="scale(0.015625)"/>
       </defs>
       <use xlink:href="#DejaVuSans-30"/>
       <use xlink:href="#DejaVuSans-2e" x="63.623047"/>
       <use xlink:href="#DejaVuSans-36" x="95.410156"/>
      </g>
     </g>
    </g>
    <g id="ytick_5">
     <g id="line2d_5">
      <path d="M 69.3625 262.354278 
L 850.5625 262.354278 
" clip-path="url(#pb73b020fc3)" style="fill: none; stroke: #cccccc; stroke-width: 0.8; stroke-linecap: round"/>
     </g>
     <g id="text_12">
      <!-- 0.8 -->
      <g style="fill: #262626" transform="translate(30.55625 269.952716) scale(0.2 -0.2)">
       <defs>
        <path id="DejaVuSans-38" d="M 2034 2216 
Q 1584 2216 1326 1975 
Q 1069 1734 1069 1313 
Q 1069 891 1326 650 
Q 1584 409 2034 409 
Q 2484 409 2743 651 
Q 3003 894 3003 1313 
Q 3003 1734 2745 1975 
Q 2488 2216 2034 2216 
z
M 1403 2484 
Q 997 2584 770 2862 
Q 544 3141 544 3541 
Q 544 4100 942 4425 
Q 1341 4750 2034 4750 
Q 2731 4750 3128 4425 
Q 3525 4100 3525 3541 
Q 3525 3141 3298 2862 
Q 3072 2584 2669 2484 
Q 3125 2378 3379 2068 
Q 3634 1759 3634 1313 
Q 3634 634 3220 271 
Q 2806 -91 2034 -91 
Q 1263 -91 848 271 
Q 434 634 434 1313 
Q 434 1759 690 2068 
Q 947 2378 1403 2484 
z
M 1172 3481 
Q 1172 3119 1398 2916 
Q 1625 2713 2034 2713 
Q 2441 2713 2670 2916 
Q 2900 3119 2900 3481 
Q 2900 3844 2670 4047 
Q 2441 4250 2034 4250 
Q 1625 4250 1398 4047 
Q 1172 3844 1172 3481 
z
" transform="scale(0.015625)"/>
       </defs>
       <use xlink:href="#DejaVuSans-30"/>
       <use xlink:href="#DejaVuSans-2e" x="63.623047"/>
       <use xlink:href="#DejaVuSans-38" x="95.410156"/>
      </g>
     </g>
    </g>
    <g id="ytick_6">
     <g id="line2d_6">
      <path d="M 69.3625 193.855507 
L 850.5625 193.855507 
" clip-path="url(#pb73b020fc3)" style="fill: none; stroke: #cccccc; stroke-width: 0.8; stroke-linecap: round"/>
     </g>
     <g id="text_13">
      <!-- 1.0 -->
      <g style="fill: #262626" transform="translate(30.55625 201.453945) scale(0.2 -0.2)">
       <defs>
        <path id="DejaVuSans-31" d="M 794 531 
L 1825 531 
L 1825 4091 
L 703 3866 
L 703 4441 
L 1819 4666 
L 2450 4666 
L 2450 531 
L 3481 531 
L 3481 0 
L 794 0 
L 794 531 
z
" transform="scale(0.015625)"/>
       </defs>
       <use xlink:href="#DejaVuSans-31"/>
       <use xlink:href="#DejaVuSans-2e" x="63.623047"/>
       <use xlink:href="#DejaVuSans-30" x="95.410156"/>
      </g>
     </g>
    </g>
    <g id="ytick_7">
     <g id="line2d_7">
      <path d="M 69.3625 125.356736 
L 850.5625 125.356736 
" clip-path="url(#pb73b020fc3)" style="fill: none; stroke: #cccccc; stroke-width: 0.8; stroke-linecap: round"/>
     </g>
     <g id="text_14">
      <!-- 1.2 -->
      <g style="fill: #262626" transform="translate(30.55625 132.955174) scale(0.2 -0.2)">
       <use xlink:href="#DejaVuSans-31"/>
       <use xlink:href="#DejaVuSans-2e" x="63.623047"/>
       <use xlink:href="#DejaVuSans-32" x="95.410156"/>
      </g>
     </g>
    </g>
    <g id="ytick_8">
     <g id="line2d_8">
      <path d="M 69.3625 56.857965 
L 850.5625 56.857965 
" clip-path="url(#pb73b020fc3)" style="fill: none; stroke: #cccccc; stroke-width: 0.8; stroke-linecap: round"/>
     </g>
     <g id="text_15">
      <!-- 1.4 -->
      <g style="fill: #262626" transform="translate(30.55625 64.456403) scale(0.2 -0.2)">
       <use xlink:href="#DejaVuSans-31"/>
       <use xlink:href="#DejaVuSans-2e" x="63.623047"/>
       <use xlink:href="#DejaVuSans-34" x="95.410156"/>
      </g>
     </g>
    </g>
    <g id="text_16">
     <!-- MAE 3 (rad) -->
     <g style="fill: #262626" transform="translate(22.396875 343.296875) rotate(-90) scale(0.2 -0.2)">
      <defs>
       <path id="DejaVuSans-45" d="M 628 4666 
L 3578 4666 
L 3578 4134 
L 1259 4134 
L 1259 2753 
L 3481 2753 
L 3481 2222 
L 1259 2222 
L 1259 531 
L 3634 531 
L 3634 0 
L 628 0 
L 628 4666 
z
" transform="scale(0.015625)"/>
       <path id="DejaVuSans-33" d="M 2597 2516 
Q 3050 2419 3304 2112 
Q 3559 1806 3559 1356 
Q 3559 666 3084 287 
Q 2609 -91 1734 -91 
Q 1441 -91 1130 -33 
Q 819 25 488 141 
L 488 750 
Q 750 597 1062 519 
Q 1375 441 1716 441 
Q 2309 441 2620 675 
Q 2931 909 2931 1356 
Q 2931 1769 2642 2001 
Q 2353 2234 1838 2234 
L 1294 2234 
L 1294 2753 
L 1863 2753 
Q 2328 2753 2575 2939 
Q 2822 3125 2822 3475 
Q 2822 3834 2567 4026 
Q 2313 4219 1838 4219 
Q 1578 4219 1281 4162 
Q 984 4106 628 3988 
L 628 4550 
Q 988 4650 1302 4700 
Q 1616 4750 1894 4750 
Q 2613 4750 3031 4423 
Q 3450 4097 3450 3541 
Q 3450 3153 3228 2886 
Q 3006 2619 2597 2516 
z
" transform="scale(0.015625)"/>
       <path id="DejaVuSans-64" d="M 2906 2969 
L 2906 4863 
L 3481 4863 
L 3481 0 
L 2906 0 
L 2906 525 
Q 2725 213 2448 61 
Q 2172 -91 1784 -91 
Q 1150 -91 751 415 
Q 353 922 353 1747 
Q 353 2572 751 3078 
Q 1150 3584 1784 3584 
Q 2172 3584 2448 3432 
Q 2725 3281 2906 2969 
z
M 947 1747 
Q 947 1113 1208 752 
Q 1469 391 1925 391 
Q 2381 391 2643 752 
Q 2906 1113 2906 1747 
Q 2906 2381 2643 2742 
Q 2381 3103 1925 3103 
Q 1469 3103 1208 2742 
Q 947 2381 947 1747 
z
" transform="scale(0.015625)"/>
      </defs>
      <use xlink:href="#DejaVuSans-4d"/>
      <use xlink:href="#DejaVuSans-41" x="86.279297"/>
      <use xlink:href="#DejaVuSans-45" x="154.6875"/>
      <use xlink:href="#DejaVuSans-20" x="217.871094"/>
      <use xlink:href="#DejaVuSans-33" x="249.658203"/>
      <use xlink:href="#DejaVuSans-20" x="313.28125"/>
      <use xlink:href="#DejaVuSans-28" x="345.068359"/>
      <use xlink:href="#DejaVuSans-72" x="384.082031"/>
      <use xlink:href="#DejaVuSans-61" x="425.195312"/>
      <use xlink:href="#DejaVuSans-64" x="486.474609"/>
      <use xlink:href="#DejaVuSans-29" x="549.951172"/>
     </g>
    </g>
   </g>
   <g id="PolyCollection_1">
    <defs>
     <path id="ma59bc5d9ef" d="M 125.48993 -271.19473 
L 124.83507 -271.19473 
L 124.716202 -274.774979 
L 124.567614 -278.355228 
L 124.386894 -281.935477 
L 124.173095 -285.515726 
L 123.927134 -289.095975 
L 123.652004 -292.676224 
L 123.352734 -296.256473 
L 123.036018 -299.836722 
L 122.709503 -303.416971 
L 122.380771 -306.99722 
L 122.056127 -310.577469 
L 121.739333 -314.157718 
L 121.430484 -317.737967 
L 121.125184 -321.318216 
L 120.814181 -324.898465 
L 120.483497 -328.478714 
L 120.115071 -332.058963 
L 119.687787 -335.639212 
L 119.178768 -339.219461 
L 118.564747 -342.79971 
L 117.823377 -346.379959 
L 116.934383 -349.960208 
L 115.880527 -353.540457 
L 114.648435 -357.120706 
L 113.22935 -360.700955 
L 111.619903 -364.281204 
L 109.822932 -367.861453 
L 107.848329 -371.441702 
L 105.713802 -375.021951 
L 103.445366 -378.6022 
L 101.077347 -382.182449 
L 98.651709 -385.762698 
L 96.21657 -389.342947 
L 93.823899 -392.923196 
L 91.526538 -396.503445 
L 89.374832 -400.083694 
L 87.413237 -403.663943 
L 85.677364 -407.244192 
L 84.191842 -410.824441 
L 82.969303 -414.40469 
L 82.010623 -417.984939 
L 81.30634 -421.565188 
L 80.838997 -425.145437 
L 80.585996 -428.725686 
L 80.5225 -432.305935 
L 80.623928 -435.886184 
L 80.867725 -439.466433 
L 81.234248 -443.046682 
L 81.706827 -446.626931 
L 82.271249 -450.20718 
L 82.914989 -453.787429 
L 83.626583 -457.367678 
L 84.395405 -460.947927 
L 85.21199 -464.528176 
L 86.068825 -468.108425 
L 86.961362 -471.688674 
L 87.888918 -475.268923 
L 88.855062 -478.849172 
L 89.867259 -482.429421 
L 90.935637 -486.00967 
L 92.07102 -489.589919 
L 93.28252 -493.170168 
L 94.575134 -496.750417 
L 95.947795 -500.330666 
L 97.392266 -503.910915 
L 98.893084 -507.491164 
L 100.428559 -511.071413 
L 101.972642 -514.651662 
L 103.497328 -518.231911 
L 104.975195 -521.81216 
L 106.381731 -525.392409 
L 107.697173 -528.972658 
L 108.907721 -532.552907 
L 110.006117 -536.133156 
L 110.991675 -539.713405 
L 111.869854 -543.293654 
L 112.651511 -546.873903 
L 113.351889 -550.454152 
L 113.989393 -554.034401 
L 114.584164 -557.61465 
L 115.156505 -561.194899 
L 115.725227 -564.775148 
L 116.306045 -568.355397 
L 116.910201 -571.935646 
L 117.543498 -575.515895 
L 118.205888 -579.096144 
L 118.891706 -582.676393 
L 119.590529 -586.256642 
L 120.288538 -589.836891 
L 120.970206 -593.41714 
L 121.620053 -596.997389 
L 122.224241 -600.577638 
L 122.771809 -604.157887 
L 123.25544 -607.738136 
L 123.671717 -611.318385 
L 124.020909 -614.898634 
L 124.306414 -618.478883 
L 124.533975 -622.059132 
L 124.710817 -625.639381 
L 125.614183 -625.639381 
L 125.614183 -625.639381 
L 125.791025 -622.059132 
L 126.018586 -618.478883 
L 126.304091 -614.898634 
L 126.653283 -611.318385 
L 127.06956 -607.738136 
L 127.553191 -604.157887 
L 128.100759 -600.577638 
L 128.704947 -596.997389 
L 129.354794 -593.41714 
L 130.036462 -589.836891 
L 130.734471 -586.256642 
L 131.433294 -582.676393 
L 132.119112 -579.096144 
L 132.781502 -575.515895 
L 133.414799 -571.935646 
L 134.018955 -568.355397 
L 134.599773 -564.775148 
L 135.168495 -561.194899 
L 135.740836 -557.61465 
L 136.335607 -554.034401 
L 136.973111 -550.454152 
L 137.673489 -546.873903 
L 138.455146 -543.293654 
L 139.333325 -539.713405 
L 140.318883 -536.133156 
L 141.417279 -532.552907 
L 142.627827 -528.972658 
L 143.943269 -525.392409 
L 145.349805 -521.81216 
L 146.827672 -518.231911 
L 148.352358 -514.651662 
L 149.896441 -511.071413 
L 151.431916 -507.491164 
L 152.932734 -503.910915 
L 154.377205 -500.330666 
L 155.749866 -496.750417 
L 157.04248 -493.170168 
L 158.25398 -489.589919 
L 159.389363 -486.00967 
L 160.457741 -482.429421 
L 161.469938 -478.849172 
L 162.436082 -475.268923 
L 163.363638 -471.688674 
L 164.256175 -468.108425 
L 165.11301 -464.528176 
L 165.929595 -460.947927 
L 166.698417 -457.367678 
L 167.410011 -453.787429 
L 168.053751 -450.20718 
L 168.618173 -446.626931 
L 169.090752 -443.046682 
L 169.457275 -439.466433 
L 169.701072 -435.886184 
L 169.8025 -432.305935 
L 169.739004 -428.725686 
L 169.486003 -425.145437 
L 169.01866 -421.565188 
L 168.314377 -417.984939 
L 167.355697 -414.40469 
L 166.133158 -410.824441 
L 164.647636 -407.244192 
L 162.911763 -403.663943 
L 160.950168 -400.083694 
L 158.798462 -396.503445 
L 156.501101 -392.923196 
L 154.10843 -389.342947 
L 151.673291 -385.762698 
L 149.247653 -382.182449 
L 146.879634 -378.6022 
L 144.611198 -375.021951 
L 142.476671 -371.441702 
L 140.502068 -367.861453 
L 138.705097 -364.281204 
L 137.09565 -360.700955 
L 135.676565 -357.120706 
L 134.444473 -353.540457 
L 133.390617 -349.960208 
L 132.501623 -346.379959 
L 131.760253 -342.79971 
L 131.146232 -339.219461 
L 130.637213 -335.639212 
L 130.209929 -332.058963 
L 129.841503 -328.478714 
L 129.510819 -324.898465 
L 129.199816 -321.318216 
L 128.894516 -317.737967 
L 128.585667 -314.157718 
L 128.268873 -310.577469 
L 127.944229 -306.99722 
L 127.615497 -303.416971 
L 127.288982 -299.836722 
L 126.972266 -296.256473 
L 126.672996 -292.676224 
L 126.397866 -289.095975 
L 126.151905 -285.515726 
L 125.938106 -281.935477 
L 125.757386 -278.355228 
L 125.608798 -274.774979 
L 125.48993 -271.19473 
z
" style="stroke: #3d3d3d; stroke-opacity: 0.5"/>
    </defs>
    <g clip-path="url(#pb73b020fc3)">
     <use xlink:href="#ma59bc5d9ef" x="0" y="707.825675" style="fill: #3274a1; fill-opacity: 0.5; stroke: #3d3d3d; stroke-opacity: 0.5"/>
    </g>
   </g>
   <g id="PolyCollection_2">
    <defs>
     <path id="m06ef44ae81" d="M 236.988854 -171.425675 
L 236.536146 -171.425675 
L 236.448561 -175.544689 
L 236.336749 -179.663704 
L 236.197717 -183.782718 
L 236.029305 -187.901733 
L 235.830521 -192.020747 
L 235.601773 -196.139762 
L 235.34493 -200.258776 
L 235.063164 -204.377791 
L 234.760532 -208.496805 
L 234.441319 -212.61582 
L 234.109208 -216.734834 
L 233.766371 -220.853849 
L 233.412625 -224.972863 
L 233.044786 -229.091877 
L 232.656351 -233.210892 
L 232.237564 -237.329906 
L 231.775888 -241.448921 
L 231.256799 -245.567935 
L 230.664768 -249.68695 
L 229.984274 -253.805964 
L 229.200661 -257.924979 
L 228.300719 -262.043993 
L 227.27294 -266.163008 
L 226.107495 -270.282022 
L 224.796079 -274.401037 
L 223.331843 -278.520051 
L 221.709632 -282.639066 
L 219.926732 -286.75808 
L 217.984177 -290.877094 
L 215.888539 -294.996109 
L 213.653947 -299.115123 
L 211.303933 -303.234138 
L 208.872657 -307.353152 
L 206.405094 -311.472167 
L 203.955904 -315.591181 
L 201.586928 -319.710196 
L 199.363537 -323.82921 
L 197.350255 -327.948225 
L 195.606254 -332.067239 
L 194.181314 -336.186254 
L 193.11277 -340.305268 
L 192.423712 -344.424283 
L 192.1225 -348.543297 
L 192.203392 -352.662312 
L 192.647947 -356.781326 
L 193.426827 -360.90034 
L 194.501676 -365.019355 
L 195.826894 -369.138369 
L 197.351291 -373.257384 
L 199.019712 -377.376398 
L 200.774782 -381.495413 
L 202.558899 -385.614427 
L 204.316522 -389.733442 
L 205.996665 -393.852456 
L 207.55543 -397.971471 
L 208.958326 -402.090485 
L 210.182103 -406.2095 
L 211.215883 -410.328514 
L 212.061435 -414.447529 
L 212.732535 -418.566543 
L 213.253472 -422.685558 
L 213.656837 -426.804572 
L 213.980818 -430.923586 
L 214.266255 -435.042601 
L 214.553729 -439.161615 
L 214.880922 -443.28063 
L 215.28043 -447.399644 
L 215.778136 -451.518659 
L 216.392177 -455.637673 
L 217.132445 -459.756688 
L 218.000569 -463.875702 
L 218.990272 -467.994717 
L 220.088064 -472.113731 
L 221.274217 -476.232746 
L 222.52404 -480.35176 
L 223.809434 -484.470775 
L 225.100701 -488.589789 
L 226.368517 -492.708804 
L 227.585908 -496.827818 
L 228.730044 -500.946832 
L 229.78364 -505.065847 
L 230.73577 -509.184861 
L 231.582005 -513.303876 
L 232.323878 -517.42289 
L 232.96777 -521.541905 
L 233.523425 -525.660919 
L 234.00233 -529.779934 
L 234.416207 -533.898948 
L 234.775817 -538.017963 
L 235.090177 -542.136977 
L 235.366236 -546.255992 
L 235.608954 -550.375006 
L 235.821658 -554.494021 
L 236.006558 -558.613035 
L 236.165278 -562.732049 
L 236.299305 -566.851064 
L 236.410295 -570.970078 
L 236.500223 -575.089093 
L 236.571393 -579.208107 
L 236.953607 -579.208107 
L 236.953607 -579.208107 
L 237.024777 -575.089093 
L 237.114705 -570.970078 
L 237.225695 -566.851064 
L 237.359722 -562.732049 
L 237.518442 -558.613035 
L 237.703342 -554.494021 
L 237.916046 -550.375006 
L 238.158764 -546.255992 
L 238.434823 -542.136977 
L 238.749183 -538.017963 
L 239.108793 -533.898948 
L 239.52267 -529.779934 
L 240.001575 -525.660919 
L 240.55723 -521.541905 
L 241.201122 -517.42289 
L 241.942995 -513.303876 
L 242.78923 -509.184861 
L 243.74136 -505.065847 
L 244.794956 -500.946832 
L 245.939092 -496.827818 
L 247.156483 -492.708804 
L 248.424299 -488.589789 
L 249.715566 -484.470775 
L 251.00096 -480.35176 
L 252.250783 -476.232746 
L 253.436936 -472.113731 
L 254.534728 -467.994717 
L 255.524431 -463.875702 
L 256.392555 -459.756688 
L 257.132823 -455.637673 
L 257.746864 -451.518659 
L 258.24457 -447.399644 
L 258.644078 -443.28063 
L 258.971271 -439.161615 
L 259.258745 -435.042601 
L 259.544182 -430.923586 
L 259.868163 -426.804572 
L 260.271528 -422.685558 
L 260.792465 -418.566543 
L 261.463565 -414.447529 
L 262.309117 -410.328514 
L 263.342897 -406.2095 
L 264.566674 -402.090485 
L 265.96957 -397.971471 
L 267.528335 -393.852456 
L 269.208478 -389.733442 
L 270.966101 -385.614427 
L 272.750218 -381.495413 
L 274.505288 -377.376398 
L 276.173709 -373.257384 
L 277.698106 -369.138369 
L 279.023324 -365.019355 
L 280.098173 -360.90034 
L 280.877053 -356.781326 
L 281.321608 -352.662312 
L 281.4025 -348.543297 
L 281.101288 -344.424283 
L 280.41223 -340.305268 
L 279.343686 -336.186254 
L 277.918746 -332.067239 
L 276.174745 -327.948225 
L 274.161463 -323.82921 
L 271.938072 -319.710196 
L 269.569096 -315.591181 
L 267.119906 -311.472167 
L 264.652343 -307.353152 
L 262.221067 -303.234138 
L 259.871053 -299.115123 
L 257.636461 -294.996109 
L 255.540823 -290.877094 
L 253.598268 -286.75808 
L 251.815368 -282.639066 
L 250.193157 -278.520051 
L 248.728921 -274.401037 
L 247.417505 -270.282022 
L 246.25206 -266.163008 
L 245.224281 -262.043993 
L 244.324339 -257.924979 
L 243.540726 -253.805964 
L 242.860232 -249.68695 
L 242.268201 -245.567935 
L 241.749112 -241.448921 
L 241.287436 -237.329906 
L 240.868649 -233.210892 
L 240.480214 -229.091877 
L 240.112375 -224.972863 
L 239.758629 -220.853849 
L 239.415792 -216.734834 
L 239.083681 -212.61582 
L 238.764468 -208.496805 
L 238.461836 -204.377791 
L 238.18007 -200.258776 
L 237.923227 -196.139762 
L 237.694479 -192.020747 
L 237.495695 -187.901733 
L 237.327283 -183.782718 
L 237.188251 -179.663704 
L 237.076439 -175.544689 
L 236.988854 -171.425675 
z
" style="stroke: #3d3d3d; stroke-opacity: 0.5"/>
    </defs>
    <g clip-path="url(#pb73b020fc3)">
     <use xlink:href="#m06ef44ae81" x="0" y="707.825675" style="fill: #d684bd; fill-opacity: 0.5; stroke: #3d3d3d; stroke-opacity: 0.5"/>
    </g>
   </g>
   <g id="PolyCollection_3">
    <defs>
     <path id="m2cf6925043" d="M 348.56097 -299.941475 
L 348.16403 -299.941475 
L 348.089493 -303.177721 
L 347.995127 -306.413967 
L 347.878652 -309.650213 
L 347.738439 -312.886459 
L 347.57374 -316.122706 
L 347.384842 -319.358952 
L 347.173123 -322.595198 
L 346.940975 -325.831444 
L 346.691613 -329.06769 
L 346.428774 -332.303937 
L 346.156354 -335.540183 
L 345.878034 -338.776429 
L 345.596946 -342.012675 
L 345.315415 -345.248922 
L 345.034797 -348.485168 
L 344.755423 -351.721414 
L 344.476621 -354.95766 
L 344.196794 -358.193906 
L 343.913535 -361.430153 
L 343.623743 -364.666399 
L 343.323741 -367.902645 
L 343.009391 -371.138891 
L 342.676192 -374.375137 
L 342.31937 -377.611384 
L 341.933931 -380.84763 
L 341.514669 -384.083876 
L 341.056103 -387.320122 
L 340.552345 -390.556368 
L 339.996911 -393.792615 
L 339.382526 -397.028861 
L 338.701015 -400.265107 
L 337.943376 -403.501353 
L 337.100133 -406.7376 
L 336.162047 -409.973846 
L 335.121181 -413.210092 
L 333.972249 -416.446338 
L 332.714049 -419.682584 
L 331.350753 -422.918831 
L 329.892735 -426.155077 
L 328.35668 -429.391323 
L 326.764769 -432.627569 
L 325.142933 -435.863815 
L 323.518298 -439.100062 
L 321.916174 -442.336308 
L 320.357074 -445.572554 
L 318.854304 -448.8088 
L 317.412651 -452.045047 
L 316.028523 -455.281293 
L 314.691684 -458.517539 
L 313.388414 -461.753785 
L 312.105668 -464.990031 
L 310.835567 -468.226278 
L 309.579465 -471.462524 
L 308.350838 -474.69877 
L 307.176443 -477.935016 
L 306.095441 -481.171262 
L 305.156536 -484.407509 
L 304.413498 -487.643755 
L 303.919706 -490.880001 
L 303.7225 -494.116247 
L 303.858088 -497.352494 
L 304.347687 -500.58874 
L 305.195286 -503.824986 
L 306.387193 -507.061232 
L 307.89324 -510.297478 
L 309.669355 -513.533725 
L 311.661061 -516.769971 
L 313.807474 -520.006217 
L 316.045398 -523.242463 
L 318.313185 -526.478709 
L 320.554146 -529.714956 
L 322.719343 -532.951202 
L 324.769668 -536.187448 
L 326.67715 -539.423694 
L 328.425457 -542.659941 
L 330.009598 -545.896187 
L 331.434876 -549.132433 
L 332.715188 -552.368679 
L 333.870811 -555.604925 
L 334.925881 -558.841172 
L 335.905766 -562.077418 
L 336.834561 -565.313664 
L 337.732929 -568.54991 
L 338.616455 -571.786156 
L 339.49464 -575.022403 
L 340.370607 -578.258649 
L 341.241497 -581.494895 
L 342.099478 -584.731141 
L 342.933203 -587.967388 
L 343.729532 -591.203634 
L 344.475281 -594.43988 
L 345.158786 -597.676126 
L 345.771128 -600.912372 
L 346.306879 -604.148619 
L 346.764372 -607.384865 
L 347.1455 -610.621111 
L 347.455164 -613.857357 
L 347.700499 -617.093603 
L 347.889999 -620.32985 
L 348.835001 -620.32985 
L 348.835001 -620.32985 
L 349.024501 -617.093603 
L 349.269836 -613.857357 
L 349.5795 -610.621111 
L 349.960628 -607.384865 
L 350.418121 -604.148619 
L 350.953872 -600.912372 
L 351.566214 -597.676126 
L 352.249719 -594.43988 
L 352.995468 -591.203634 
L 353.791797 -587.967388 
L 354.625522 -584.731141 
L 355.483503 -581.494895 
L 356.354393 -578.258649 
L 357.23036 -575.022403 
L 358.108545 -571.786156 
L 358.992071 -568.54991 
L 359.890439 -565.313664 
L 360.819234 -562.077418 
L 361.799119 -558.841172 
L 362.854189 -555.604925 
L 364.009812 -552.368679 
L 365.290124 -549.132433 
L 366.715402 -545.896187 
L 368.299543 -542.659941 
L 370.04785 -539.423694 
L 371.955332 -536.187448 
L 374.005657 -532.951202 
L 376.170854 -529.714956 
L 378.411815 -526.478709 
L 380.679602 -523.242463 
L 382.917526 -520.006217 
L 385.063939 -516.769971 
L 387.055645 -513.533725 
L 388.83176 -510.297478 
L 390.337807 -507.061232 
L 391.529714 -503.824986 
L 392.377313 -500.58874 
L 392.866912 -497.352494 
L 393.0025 -494.116247 
L 392.805294 -490.880001 
L 392.311502 -487.643755 
L 391.568464 -484.407509 
L 390.629559 -481.171262 
L 389.548557 -477.935016 
L 388.374162 -474.69877 
L 387.145535 -471.462524 
L 385.889433 -468.226278 
L 384.619332 -464.990031 
L 383.336586 -461.753785 
L 382.033316 -458.517539 
L 380.696477 -455.281293 
L 379.312349 -452.045047 
L 377.870696 -448.8088 
L 376.367926 -445.572554 
L 374.808826 -442.336308 
L 373.206702 -439.100062 
L 371.582067 -435.863815 
L 369.960231 -432.627569 
L 368.36832 -429.391323 
L 366.832265 -426.155077 
L 365.374247 -422.918831 
L 364.010951 -419.682584 
L 362.752751 -416.446338 
L 361.603819 -413.210092 
L 360.562953 -409.973846 
L 359.624867 -406.7376 
L 358.781624 -403.501353 
L 358.023985 -400.265107 
L 357.342474 -397.028861 
L 356.728089 -393.792615 
L 356.172655 -390.556368 
L 355.668897 -387.320122 
L 355.210331 -384.083876 
L 354.791069 -380.84763 
L 354.40563 -377.611384 
L 354.048808 -374.375137 
L 353.715609 -371.138891 
L 353.401259 -367.902645 
L 353.101257 -364.666399 
L 352.811465 -361.430153 
L 352.528206 -358.193906 
L 352.248379 -354.95766 
L 351.969577 -351.721414 
L 351.690203 -348.485168 
L 351.409585 -345.248922 
L 351.128054 -342.012675 
L 350.846966 -338.776429 
L 350.568646 -335.540183 
L 350.296226 -332.303937 
L 350.033387 -329.06769 
L 349.784025 -325.831444 
L 349.551877 -322.595198 
L 349.340158 -319.358952 
L 349.15126 -316.122706 
L 348.986561 -312.886459 
L 348.846348 -309.650213 
L 348.729873 -306.413967 
L 348.635507 -303.177721 
L 348.56097 -299.941475 
z
" style="stroke: #3d3d3d; stroke-opacity: 0.5"/>
    </defs>
    <g clip-path="url(#pb73b020fc3)">
     <use xlink:href="#m2cf6925043" x="0" y="707.825675" style="fill: #c03d3e; fill-opacity: 0.5; stroke: #3d3d3d; stroke-opacity: 0.5"/>
    </g>
   </g>
   <g id="PolyCollection_4">
    <defs>
     <path id="m8a5565ad42" d="M 460.192374 -263.280041 
L 459.732626 -263.280041 
L 459.642038 -267.077764 
L 459.526448 -270.875488 
L 459.38324 -274.673211 
L 459.211047 -278.470934 
L 459.0102 -282.268658 
L 458.783059 -286.066381 
L 458.534117 -289.864105 
L 458.269814 -293.661828 
L 457.998026 -297.459552 
L 457.72724 -301.257275 
L 457.465511 -305.054999 
L 457.219328 -308.852722 
L 456.992554 -312.650445 
L 456.785614 -316.448169 
L 456.595059 -320.245892 
L 456.413569 -324.043616 
L 456.230378 -327.841339 
L 456.032033 -331.639063 
L 455.803317 -335.436786 
L 455.528159 -339.23451 
L 455.190343 -343.032233 
L 454.773907 -346.829957 
L 454.263166 -350.62768 
L 453.642425 -354.425403 
L 452.895494 -358.223127 
L 452.005249 -362.02085 
L 450.953465 -365.818574 
L 449.721188 -369.616297 
L 448.28984 -373.414021 
L 446.643129 -377.211744 
L 444.769728 -381.009468 
L 442.66645 -384.807191 
L 440.341555 -388.604914 
L 437.817618 -392.402638 
L 435.13342 -396.200361 
L 432.344317 -399.998085 
L 429.520742 -403.795808 
L 426.744757 -407.593532 
L 424.104881 -411.391255 
L 421.689748 -415.188979 
L 419.581387 -418.986702 
L 417.849044 -422.784425 
L 416.544387 -426.582149 
L 415.698725 -430.379872 
L 415.3225 -434.177596 
L 415.406893 -437.975319 
L 415.927009 -441.773043 
L 416.845837 -445.570766 
L 418.118145 -449.36849 
L 419.693573 -453.166213 
L 421.518528 -456.963937 
L 423.536834 -460.76166 
L 425.689494 -464.559383 
L 427.914158 -468.357107 
L 430.144993 -472.15483 
L 432.313562 -475.952554 
L 434.351051 -479.750277 
L 436.19187 -483.548001 
L 437.778307 -487.345724 
L 439.06561 -491.143448 
L 440.026769 -494.941171 
L 440.656189 -498.738894 
L 440.971616 -502.536618 
L 441.013871 -506.334341 
L 440.844249 -510.132065 
L 440.539745 -513.929788 
L 440.186571 -517.727512 
L 439.87264 -521.525235 
L 439.67983 -525.322959 
L 439.676905 -529.120682 
L 439.913838 -532.918406 
L 440.418166 -536.716129 
L 441.193693 -540.513852 
L 442.22161 -544.311576 
L 443.463789 -548.109299 
L 444.867754 -551.907023 
L 446.372663 -555.704746 
L 447.915565 -559.50247 
L 449.4372 -563.300193 
L 450.886746 -567.097917 
L 452.22508 -570.89564 
L 453.426378 -574.693363 
L 454.47807 -578.491087 
L 455.379417 -582.28881 
L 456.139072 -586.086534 
L 456.772117 -589.884257 
L 457.297028 -593.681981 
L 457.732973 -597.479704 
L 458.097726 -601.277428 
L 458.40632 -605.075151 
L 458.670465 -608.872875 
L 458.898588 -612.670598 
L 459.096325 -616.468321 
L 459.267258 -620.266045 
L 459.413688 -624.063768 
L 459.537319 -627.861492 
L 459.639752 -631.659215 
L 459.722771 -635.456939 
L 459.788439 -639.254662 
L 460.136561 -639.254662 
L 460.136561 -639.254662 
L 460.202229 -635.456939 
L 460.285248 -631.659215 
L 460.387681 -627.861492 
L 460.511312 -624.063768 
L 460.657742 -620.266045 
L 460.828675 -616.468321 
L 461.026412 -612.670598 
L 461.254535 -608.872875 
L 461.51868 -605.075151 
L 461.827274 -601.277428 
L 462.192027 -597.479704 
L 462.627972 -593.681981 
L 463.152883 -589.884257 
L 463.785928 -586.086534 
L 464.545583 -582.28881 
L 465.44693 -578.491087 
L 466.498622 -574.693363 
L 467.69992 -570.89564 
L 469.038254 -567.097917 
L 470.4878 -563.300193 
L 472.009435 -559.50247 
L 473.552337 -555.704746 
L 475.057246 -551.907023 
L 476.461211 -548.109299 
L 477.70339 -544.311576 
L 478.731307 -540.513852 
L 479.506834 -536.716129 
L 480.011162 -532.918406 
L 480.248095 -529.120682 
L 480.24517 -525.322959 
L 480.05236 -521.525235 
L 479.738429 -517.727512 
L 479.385255 -513.929788 
L 479.080751 -510.132065 
L 478.911129 -506.334341 
L 478.953384 -502.536618 
L 479.268811 -498.738894 
L 479.898231 -494.941171 
L 480.85939 -491.143448 
L 482.146693 -487.345724 
L 483.73313 -483.548001 
L 485.573949 -479.750277 
L 487.611438 -475.952554 
L 489.780007 -472.15483 
L 492.010842 -468.357107 
L 494.235506 -464.559383 
L 496.388166 -460.76166 
L 498.406472 -456.963937 
L 500.231427 -453.166213 
L 501.806855 -449.36849 
L 503.079163 -445.570766 
L 503.997991 -441.773043 
L 504.518107 -437.975319 
L 504.6025 -434.177596 
L 504.226275 -430.379872 
L 503.380613 -426.582149 
L 502.075956 -422.784425 
L 500.343613 -418.986702 
L 498.235252 -415.188979 
L 495.820119 -411.391255 
L 493.180243 -407.593532 
L 490.404258 -403.795808 
L 487.580683 -399.998085 
L 484.79158 -396.200361 
L 482.107382 -392.402638 
L 479.583445 -388.604914 
L 477.25855 -384.807191 
L 475.155272 -381.009468 
L 473.281871 -377.211744 
L 471.63516 -373.414021 
L 470.203812 -369.616297 
L 468.971535 -365.818574 
L 467.919751 -362.02085 
L 467.029506 -358.223127 
L 466.282575 -354.425403 
L 465.661834 -350.62768 
L 465.151093 -346.829957 
L 464.734657 -343.032233 
L 464.396841 -339.23451 
L 464.121683 -335.436786 
L 463.892967 -331.639063 
L 463.694622 -327.841339 
L 463.511431 -324.043616 
L 463.329941 -320.245892 
L 463.139386 -316.448169 
L 462.932446 -312.650445 
L 462.705672 -308.852722 
L 462.459489 -305.054999 
L 462.19776 -301.257275 
L 461.926974 -297.459552 
L 461.655186 -293.661828 
L 461.390883 -289.864105 
L 461.141941 -286.066381 
L 460.9148 -282.268658 
L 460.713953 -278.470934 
L 460.54176 -274.673211 
L 460.398552 -270.875488 
L 460.282962 -267.077764 
L 460.192374 -263.280041 
z
" style="stroke: #3d3d3d; stroke-opacity: 0.5"/>
    </defs>
    <g clip-path="url(#pb73b020fc3)">
     <use xlink:href="#m8a5565ad42" x="0" y="707.825675" style="fill: #9372b2; fill-opacity: 0.5; stroke: #3d3d3d; stroke-opacity: 0.5"/>
    </g>
   </g>
   <g id="PolyCollection_5">
    <defs>
     <path id="m5958df965b" d="M 571.923537 -257.825182 
L 571.201463 -257.825182 
L 571.054971 -262.043369 
L 570.868444 -266.261556 
L 570.63865 -270.479742 
L 570.364683 -274.697929 
L 570.04846 -278.916116 
L 569.694833 -283.134303 
L 569.311248 -287.35249 
L 568.906937 -291.570676 
L 568.491754 -295.788863 
L 568.074871 -300.00705 
L 567.663566 -304.225237 
L 567.262323 -308.443424 
L 566.872358 -312.66161 
L 566.491518 -316.879797 
L 566.11439 -321.097984 
L 565.732347 -325.316171 
L 565.33332 -329.534358 
L 564.901199 -333.752544 
L 564.414975 -337.970731 
L 563.847985 -342.188918 
L 563.167731 -346.407105 
L 562.336789 -350.625292 
L 561.315148 -354.843478 
L 560.064041 -359.061665 
L 558.550936 -363.279852 
L 556.755028 -367.498039 
L 554.672304 -371.716226 
L 552.319245 -375.934412 
L 549.734364 -380.152599 
L 546.977135 -384.370786 
L 544.12431 -388.588973 
L 541.264054 -392.80716 
L 538.48872 -397.025346 
L 535.887249 -401.243533 
L 533.538212 -405.46172 
L 531.504367 -409.679907 
L 529.829319 -413.898094 
L 528.536517 -418.11628 
L 527.630517 -422.334467 
L 527.100078 -426.552654 
L 526.9225 -430.770841 
L 527.068422 -434.989028 
L 527.506344 -439.207214 
L 528.206198 -443.425401 
L 529.141513 -447.643588 
L 530.289985 -451.861775 
L 531.632564 -456.079961 
L 533.151433 -460.298148 
L 534.827458 -464.516335 
L 536.637756 -468.734522 
L 538.553971 -472.952709 
L 540.541698 -477.170895 
L 542.561254 -481.389082 
L 544.569715 -485.607269 
L 546.523948 -489.825456 
L 548.384165 -494.043643 
L 550.11747 -498.261829 
L 551.70088 -502.480016 
L 553.123362 -506.698203 
L 554.386593 -510.91639 
L 555.504289 -515.134577 
L 556.500139 -519.352763 
L 557.404567 -523.57095 
L 558.250709 -527.789137 
L 559.070134 -532.007324 
L 559.888881 -536.225511 
L 560.724422 -540.443697 
L 561.583965 -544.661884 
L 562.464365 -548.880071 
L 563.353575 -553.098258 
L 564.233319 -557.316445 
L 565.082428 -561.534631 
L 565.880206 -565.752818 
L 566.609224 -569.971005 
L 567.257158 -574.189192 
L 567.817507 -578.407379 
L 568.289339 -582.625565 
L 568.676358 -586.843752 
L 568.985696 -591.061939 
L 569.226753 -595.280126 
L 569.410303 -599.498313 
L 569.547888 -603.716499 
L 569.651414 -607.934686 
L 569.732778 -612.152873 
L 569.8034 -616.37106 
L 569.873589 -620.589247 
L 569.951821 -624.807433 
L 570.044045 -629.02562 
L 570.153212 -633.243807 
L 570.279156 -637.461994 
L 570.418897 -641.680181 
L 570.567323 -645.898367 
L 570.718127 -650.116554 
L 570.864809 -654.334741 
L 571.001579 -658.552928 
L 571.124006 -662.771114 
L 571.229351 -666.989301 
L 571.316595 -671.207488 
L 571.386205 -675.425675 
L 571.738795 -675.425675 
L 571.738795 -675.425675 
L 571.808405 -671.207488 
L 571.895649 -666.989301 
L 572.000994 -662.771114 
L 572.123421 -658.552928 
L 572.260191 -654.334741 
L 572.406873 -650.116554 
L 572.557677 -645.898367 
L 572.706103 -641.680181 
L 572.845844 -637.461994 
L 572.971788 -633.243807 
L 573.080955 -629.02562 
L 573.173179 -624.807433 
L 573.251411 -620.589247 
L 573.3216 -616.37106 
L 573.392222 -612.152873 
L 573.473586 -607.934686 
L 573.577112 -603.716499 
L 573.714697 -599.498313 
L 573.898247 -595.280126 
L 574.139304 -591.061939 
L 574.448642 -586.843752 
L 574.835661 -582.625565 
L 575.307493 -578.407379 
L 575.867842 -574.189192 
L 576.515776 -569.971005 
L 577.244794 -565.752818 
L 578.042572 -561.534631 
L 578.891681 -557.316445 
L 579.771425 -553.098258 
L 580.660635 -548.880071 
L 581.541035 -544.661884 
L 582.400578 -540.443697 
L 583.236119 -536.225511 
L 584.054866 -532.007324 
L 584.874291 -527.789137 
L 585.720433 -523.57095 
L 586.624861 -519.352763 
L 587.620711 -515.134577 
L 588.738407 -510.91639 
L 590.001638 -506.698203 
L 591.42412 -502.480016 
L 593.00753 -498.261829 
L 594.740835 -494.043643 
L 596.601052 -489.825456 
L 598.555285 -485.607269 
L 600.563746 -481.389082 
L 602.583302 -477.170895 
L 604.571029 -472.952709 
L 606.487244 -468.734522 
L 608.297542 -464.516335 
L 609.973567 -460.298148 
L 611.492436 -456.079961 
L 612.835015 -451.861775 
L 613.983487 -447.643588 
L 614.918802 -443.425401 
L 615.618656 -439.207214 
L 616.056578 -434.989028 
L 616.2025 -430.770841 
L 616.024922 -426.552654 
L 615.494483 -422.334467 
L 614.588483 -418.11628 
L 613.295681 -413.898094 
L 611.620633 -409.679907 
L 609.586788 -405.46172 
L 607.237751 -401.243533 
L 604.63628 -397.025346 
L 601.860946 -392.80716 
L 599.00069 -388.588973 
L 596.147865 -384.370786 
L 593.390636 -380.152599 
L 590.805755 -375.934412 
L 588.452696 -371.716226 
L 586.369972 -367.498039 
L 584.574064 -363.279852 
L 583.060959 -359.061665 
L 581.809852 -354.843478 
L 580.788211 -350.625292 
L 579.957269 -346.407105 
L 579.277015 -342.188918 
L 578.710025 -337.970731 
L 578.223801 -333.752544 
L 577.79168 -329.534358 
L 577.392653 -325.316171 
L 577.01061 -321.097984 
L 576.633482 -316.879797 
L 576.252642 -312.66161 
L 575.862677 -308.443424 
L 575.461434 -304.225237 
L 575.050129 -300.00705 
L 574.633246 -295.788863 
L 574.218063 -291.570676 
L 573.813752 -287.35249 
L 573.430167 -283.134303 
L 573.07654 -278.916116 
L 572.760317 -274.697929 
L 572.48635 -270.479742 
L 572.256556 -266.261556 
L 572.070029 -262.043369 
L 571.923537 -257.825182 
z
" style="stroke: #3d3d3d; stroke-opacity: 0.5"/>
    </defs>
    <g clip-path="url(#pb73b020fc3)">
     <use xlink:href="#m5958df965b" x="0" y="707.825675" style="fill: #845b53; fill-opacity: 0.5; stroke: #3d3d3d; stroke-opacity: 0.5"/>
    </g>
   </g>
   <g id="PolyCollection_6">
    <defs>
     <path id="m1eb567bcec" d="M 683.545104 -255.861987 
L 682.779896 -255.861987 
L 682.626123 -259.895676 
L 682.423911 -263.929365 
L 682.163202 -267.963055 
L 681.833554 -271.996744 
L 681.424652 -276.030434 
L 680.926899 -280.064123 
L 680.332053 -284.097813 
L 679.633857 -288.131502 
L 678.828578 -292.165191 
L 677.915419 -296.198881 
L 676.896724 -300.23257 
L 675.77797 -304.26626 
L 674.567511 -308.299949 
L 673.276105 -312.333639 
L 671.916254 -316.367328 
L 670.501417 -320.401018 
L 669.04517 -324.434707 
L 667.560372 -328.468396 
L 666.058444 -332.502086 
L 664.548796 -336.535775 
L 663.038487 -340.569465 
L 661.532161 -344.603154 
L 660.032262 -348.636844 
L 658.53956 -352.670533 
L 657.053922 -356.704222 
L 655.57528 -360.737912 
L 654.104679 -364.771601 
L 652.645276 -368.805291 
L 651.203135 -372.83898 
L 649.787654 -376.87267 
L 648.411521 -380.906359 
L 647.090091 -384.940048 
L 645.840222 -388.973738 
L 644.678647 -393.007427 
L 643.62009 -397.041117 
L 642.675405 -401.074806 
L 641.850072 -405.108496 
L 641.143348 -409.142185 
L 640.548357 -413.175875 
L 640.05321 -417.209564 
L 639.643137 -421.243253 
L 639.303372 -425.276943 
L 639.022414 -429.310632 
L 638.795144 -433.344322 
L 638.625251 -437.378011 
L 638.526498 -441.411701 
L 638.5225 -445.44539 
L 638.644912 -449.479079 
L 638.93017 -453.512769 
L 639.415179 -457.546458 
L 640.13252 -461.580148 
L 641.105829 -465.613837 
L 642.346023 -469.647527 
L 643.848874 -473.681216 
L 645.594291 -477.714905 
L 647.547362 -481.748595 
L 649.66099 -485.782284 
L 651.879731 -489.815974 
L 654.14428 -493.849663 
L 656.396057 -497.883353 
L 658.581323 -501.917042 
L 660.654452 -505.950732 
L 662.580089 -509.984421 
L 664.334153 -514.01811 
L 665.903767 -518.0518 
L 667.28632 -522.085489 
L 668.487921 -526.119179 
L 669.521515 -530.152868 
L 670.404881 -534.186558 
L 671.158711 -538.220247 
L 671.804882 -542.253936 
L 672.365012 -546.287626 
L 672.859336 -550.321315 
L 673.305928 -554.355005 
L 673.720254 -558.388694 
L 674.115033 -562.422384 
L 674.500358 -566.456073 
L 674.884 -570.489762 
L 675.271803 -574.523452 
L 675.668081 -578.557141 
L 676.07593 -582.590831 
L 676.497395 -586.62452 
L 676.933488 -590.65821 
L 677.384075 -594.691899 
L 677.847697 -598.725589 
L 678.321414 -602.759278 
L 678.800758 -606.792967 
L 679.279849 -610.826657 
L 679.751706 -614.860346 
L 680.208727 -618.894036 
L 680.643297 -622.927725 
L 681.048411 -626.961415 
L 681.418255 -630.995104 
L 681.748642 -635.028793 
L 682.037253 -639.062483 
L 682.283685 -643.096172 
L 682.489287 -647.129862 
L 682.656863 -651.163551 
L 682.790273 -655.197241 
L 683.534727 -655.197241 
L 683.534727 -655.197241 
L 683.668137 -651.163551 
L 683.835713 -647.129862 
L 684.041315 -643.096172 
L 684.287747 -639.062483 
L 684.576358 -635.028793 
L 684.906745 -630.995104 
L 685.276589 -626.961415 
L 685.681703 -622.927725 
L 686.116273 -618.894036 
L 686.573294 -614.860346 
L 687.045151 -610.826657 
L 687.524242 -606.792967 
L 688.003586 -602.759278 
L 688.477303 -598.725589 
L 688.940925 -594.691899 
L 689.391512 -590.65821 
L 689.827605 -586.62452 
L 690.24907 -582.590831 
L 690.656919 -578.557141 
L 691.053197 -574.523452 
L 691.441 -570.489762 
L 691.824642 -566.456073 
L 692.209967 -562.422384 
L 692.604746 -558.388694 
L 693.019072 -554.355005 
L 693.465664 -550.321315 
L 693.959988 -546.287626 
L 694.520118 -542.253936 
L 695.166289 -538.220247 
L 695.920119 -534.186558 
L 696.803485 -530.152868 
L 697.837079 -526.119179 
L 699.03868 -522.085489 
L 700.421233 -518.0518 
L 701.990847 -514.01811 
L 703.744911 -509.984421 
L 705.670548 -505.950732 
L 707.743677 -501.917042 
L 709.928943 -497.883353 
L 712.18072 -493.849663 
L 714.445269 -489.815974 
L 716.66401 -485.782284 
L 718.777638 -481.748595 
L 720.730709 -477.714905 
L 722.476126 -473.681216 
L 723.978977 -469.647527 
L 725.219171 -465.613837 
L 726.19248 -461.580148 
L 726.909821 -457.546458 
L 727.39483 -453.512769 
L 727.680088 -449.479079 
L 727.8025 -445.44539 
L 727.798502 -441.411701 
L 727.699749 -437.378011 
L 727.529856 -433.344322 
L 727.302586 -429.310632 
L 727.021628 -425.276943 
L 726.681863 -421.243253 
L 726.27179 -417.209564 
L 725.776643 -413.175875 
L 725.181652 -409.142185 
L 724.474928 -405.108496 
L 723.649595 -401.074806 
L 722.70491 -397.041117 
L 721.646353 -393.007427 
L 720.484778 -388.973738 
L 719.234909 -384.940048 
L 717.913479 -380.906359 
L 716.537346 -376.87267 
L 715.121865 -372.83898 
L 713.679724 -368.805291 
L 712.220321 -364.771601 
L 710.74972 -360.737912 
L 709.271078 -356.704222 
L 707.78544 -352.670533 
L 706.292738 -348.636844 
L 704.792839 -344.603154 
L 703.286513 -340.569465 
L 701.776204 -336.535775 
L 700.266556 -332.502086 
L 698.764628 -328.468396 
L 697.27983 -324.434707 
L 695.823583 -320.401018 
L 694.408746 -316.367328 
L 693.048895 -312.333639 
L 691.757489 -308.299949 
L 690.54703 -304.26626 
L 689.428276 -300.23257 
L 688.409581 -296.198881 
L 687.496422 -292.165191 
L 686.691143 -288.131502 
L 685.992947 -284.097813 
L 685.398101 -280.064123 
L 684.900348 -276.030434 
L 684.491446 -271.996744 
L 684.161798 -267.963055 
L 683.901089 -263.929365 
L 683.698877 -259.895676 
L 683.545104 -255.861987 
z
" style="stroke: #3d3d3d; stroke-opacity: 0.5"/>
    </defs>
    <g clip-path="url(#pb73b020fc3)">
     <use xlink:href="#m1eb567bcec" x="0" y="707.825675" style="fill: #e1812c; fill-opacity: 0.5; stroke: #3d3d3d; stroke-opacity: 0.5"/>
    </g>
   </g>
   <g id="PolyCollection_7">
    <defs>
     <path id="mbc125180ab" d="M 794.946559 -175.802742 
L 794.578441 -175.802742 
L 794.507264 -180.322009 
L 794.4183 -184.841277 
L 794.310959 -189.360545 
L 794.186015 -193.879812 
L 794.045798 -198.39908 
L 793.894148 -202.918348 
L 793.736074 -207.437615 
L 793.57711 -211.956883 
L 793.422448 -216.476151 
L 793.275975 -220.995418 
L 793.139407 -225.514686 
L 793.011719 -230.033954 
L 792.889029 -234.553221 
L 792.765 -239.072489 
L 792.63172 -243.591757 
L 792.480902 -248.111024 
L 792.305153 -252.630292 
L 792.099045 -257.14956 
L 791.859766 -261.668827 
L 791.587205 -266.188095 
L 791.283459 -270.707363 
L 790.951884 -275.22663 
L 790.595865 -279.745898 
L 790.217508 -284.265166 
L 789.81646 -288.784433 
L 789.388942 -293.303701 
L 788.927062 -297.822968 
L 788.418409 -302.342236 
L 787.845939 -306.861504 
L 787.188186 -311.380771 
L 786.419905 -315.900039 
L 785.513238 -320.419307 
L 784.439501 -324.938574 
L 783.171566 -329.457842 
L 781.686723 -333.97711 
L 779.969734 -338.496377 
L 778.015736 -343.015645 
L 775.832616 -347.534913 
L 773.442523 -352.05418 
L 770.882338 -356.573448 
L 768.203012 -361.092716 
L 765.467812 -365.611983 
L 762.749562 -370.131251 
L 760.127012 -374.650519 
L 757.68044 -379.169786 
L 755.48668 -383.689054 
L 753.613842 -388.208322 
L 752.116129 -392.727589 
L 751.029337 -397.246857 
L 750.367673 -401.766125 
L 750.1225 -406.285392 
L 750.263408 -410.80466 
L 750.741656 -415.323927 
L 751.495595 -419.843195 
L 752.45731 -424.362463 
L 753.559476 -428.88173 
L 754.741411 -433.400998 
L 755.953561 -437.920266 
L 757.159984 -442.439533 
L 758.338912 -446.958801 
L 759.481766 -451.478069 
L 760.591227 -455.997336 
L 761.678916 -460.516604 
L 762.763059 -465.035872 
L 763.866251 -469.555139 
L 765.013217 -474.074407 
L 766.228372 -478.593675 
L 767.533076 -483.112942 
L 768.94264 -487.63221 
L 770.463412 -492.151478 
L 772.090429 -496.670745 
L 773.806184 -501.190013 
L 775.580945 -505.709281 
L 777.374806 -510.228548 
L 779.141342 -514.747816 
L 780.832415 -519.267084 
L 782.403451 -523.786351 
L 783.818409 -528.305619 
L 785.053692 -532.824887 
L 786.100448 -537.344154 
L 786.964933 -541.863422 
L 787.666938 -546.382689 
L 788.236547 -550.901957 
L 788.709763 -555.421225 
L 789.123677 -559.940492 
L 789.511891 -564.45976 
L 789.900864 -568.979028 
L 790.307627 -573.498295 
L 790.739098 -578.017563 
L 791.192913 -582.536831 
L 791.659469 -587.056098 
L 792.124694 -591.575366 
L 792.572988 -596.094634 
L 792.989849 -600.613901 
L 793.363823 -605.133169 
L 793.687599 -609.652437 
L 793.958269 -614.171704 
L 794.176889 -618.690972 
L 794.347602 -623.21024 
L 795.177398 -623.21024 
L 795.177398 -623.21024 
L 795.348111 -618.690972 
L 795.566731 -614.171704 
L 795.837401 -609.652437 
L 796.161177 -605.133169 
L 796.535151 -600.613901 
L 796.952012 -596.094634 
L 797.400306 -591.575366 
L 797.865531 -587.056098 
L 798.332087 -582.536831 
L 798.785902 -578.017563 
L 799.217373 -573.498295 
L 799.624136 -568.979028 
L 800.013109 -564.45976 
L 800.401323 -559.940492 
L 800.815237 -555.421225 
L 801.288453 -550.901957 
L 801.858062 -546.382689 
L 802.560067 -541.863422 
L 803.424552 -537.344154 
L 804.471308 -532.824887 
L 805.706591 -528.305619 
L 807.121549 -523.786351 
L 808.692585 -519.267084 
L 810.383658 -514.747816 
L 812.150194 -510.228548 
L 813.944055 -505.709281 
L 815.718816 -501.190013 
L 817.434571 -496.670745 
L 819.061588 -492.151478 
L 820.58236 -487.63221 
L 821.991924 -483.112942 
L 823.296628 -478.593675 
L 824.511783 -474.074407 
L 825.658749 -469.555139 
L 826.761941 -465.035872 
L 827.846084 -460.516604 
L 828.933773 -455.997336 
L 830.043234 -451.478069 
L 831.186088 -446.958801 
L 832.365016 -442.439533 
L 833.571439 -437.920266 
L 834.783589 -433.400998 
L 835.965524 -428.88173 
L 837.06769 -424.362463 
L 838.029405 -419.843195 
L 838.783344 -415.323927 
L 839.261592 -410.80466 
L 839.4025 -406.285392 
L 839.157327 -401.766125 
L 838.495663 -397.246857 
L 837.408871 -392.727589 
L 835.911158 -388.208322 
L 834.03832 -383.689054 
L 831.84456 -379.169786 
L 829.397988 -374.650519 
L 826.775438 -370.131251 
L 824.057188 -365.611983 
L 821.321988 -361.092716 
L 818.642662 -356.573448 
L 816.082477 -352.05418 
L 813.692384 -347.534913 
L 811.509264 -343.015645 
L 809.555266 -338.496377 
L 807.838277 -333.97711 
L 806.353434 -329.457842 
L 805.085499 -324.938574 
L 804.011762 -320.419307 
L 803.105095 -315.900039 
L 802.336814 -311.380771 
L 801.679061 -306.861504 
L 801.106591 -302.342236 
L 800.597938 -297.822968 
L 800.136058 -293.303701 
L 799.70854 -288.784433 
L 799.307492 -284.265166 
L 798.929135 -279.745898 
L 798.573116 -275.22663 
L 798.241541 -270.707363 
L 797.937795 -266.188095 
L 797.665234 -261.668827 
L 797.425955 -257.14956 
L 797.219847 -252.630292 
L 797.044098 -248.111024 
L 796.89328 -243.591757 
L 796.76 -239.072489 
L 796.635971 -234.553221 
L 796.513281 -230.033954 
L 796.385593 -225.514686 
L 796.249025 -220.995418 
L 796.102552 -216.476151 
L 795.94789 -211.956883 
L 795.788926 -207.437615 
L 795.630852 -202.918348 
L 795.479202 -198.39908 
L 795.338985 -193.879812 
L 795.214041 -189.360545 
L 795.1067 -184.841277 
L 795.017736 -180.322009 
L 794.946559 -175.802742 
z
" style="stroke: #3d3d3d; stroke-opacity: 0.5"/>
    </defs>
    <g clip-path="url(#pb73b020fc3)">
     <use xlink:href="#mbc125180ab" x="0" y="707.825675" style="fill: #3a923a; fill-opacity: 0.5; stroke: #3d3d3d; stroke-opacity: 0.5"/>
    </g>
   </g>
   <g id="line2d_9">
    <path d="M 125.1625 389.776184 
L 125.1625 129.041055 
" clip-path="url(#pb73b020fc3)" style="fill: none; stroke: #3d3d3d; stroke-width: 1.5; stroke-linecap: round"/>
   </g>
   <g id="line2d_10">
    <path d="M 125.1625 294.453288 
L 125.1625 218.143869 
" clip-path="url(#pb73b020fc3)" style="fill: none; stroke: #3d3d3d; stroke-width: 4.5; stroke-linecap: round"/>
   </g>
   <g id="line2d_11">
    <path d="M 125.1625 258.960661 
" clip-path="url(#pb73b020fc3)" style="fill: none; stroke: #3d3d3d; stroke-width: 1.5; stroke-linecap: round"/>
    <defs>
     <path id="m1bb58cd2bb" d="M 1.875 0 
L -1.875 -0 
" style="stroke: #ffffff; stroke-width: 0.9"/>
    </defs>
    <g clip-path="url(#pb73b020fc3)">
     <use xlink:href="#m1bb58cd2bb" x="125.1625" y="258.960661" style="fill: #ffffff; stroke: #ffffff; stroke-width: 0.9"/>
    </g>
   </g>
   <g id="line2d_12">
    <path d="M 236.7625 484.363923 
L 236.7625 180.653644 
" clip-path="url(#pb73b020fc3)" style="fill: none; stroke: #3d3d3d; stroke-width: 1.5; stroke-linecap: round"/>
   </g>
   <g id="line2d_13">
    <path d="M 236.7625 375.019254 
L 236.7625 289.00443 
" clip-path="url(#pb73b020fc3)" style="fill: none; stroke: #3d3d3d; stroke-width: 4.5; stroke-linecap: round"/>
   </g>
   <g id="line2d_14">
    <path d="M 236.7625 343.506442 
" clip-path="url(#pb73b020fc3)" style="fill: none; stroke: #3d3d3d; stroke-width: 1.5; stroke-linecap: round"/>
    <g clip-path="url(#pb73b020fc3)">
     <use xlink:href="#m1bb58cd2bb" x="236.7625" y="343.506442" style="fill: #ffffff; stroke: #ffffff; stroke-width: 0.9"/>
    </g>
   </g>
   <g id="line2d_15">
    <path d="M 348.3625 333.812636 
L 348.3625 128.573164 
" clip-path="url(#pb73b020fc3)" style="fill: none; stroke: #3d3d3d; stroke-width: 1.5; stroke-linecap: round"/>
   </g>
   <g id="line2d_16">
    <path d="M 348.3625 254.537243 
L 348.3625 194.901089 
" clip-path="url(#pb73b020fc3)" style="fill: none; stroke: #3d3d3d; stroke-width: 4.5; stroke-linecap: round"/>
   </g>
   <g id="line2d_17">
    <path d="M 348.3625 218.242249 
" clip-path="url(#pb73b020fc3)" style="fill: none; stroke: #3d3d3d; stroke-width: 1.5; stroke-linecap: round"/>
    <g clip-path="url(#pb73b020fc3)">
     <use xlink:href="#m1bb58cd2bb" x="348.3625" y="218.242249" style="fill: #ffffff; stroke: #ffffff; stroke-width: 0.9"/>
    </g>
   </g>
   <g id="line2d_18">
    <path d="M 459.9625 359.464244 
L 459.9625 150.083134 
" clip-path="url(#pb73b020fc3)" style="fill: none; stroke: #3d3d3d; stroke-width: 1.5; stroke-linecap: round"/>
   </g>
   <g id="line2d_19">
    <path d="M 459.9625 284.927136 
L 459.9625 218.928047 
" clip-path="url(#pb73b020fc3)" style="fill: none; stroke: #3d3d3d; stroke-width: 4.5; stroke-linecap: round"/>
   </g>
   <g id="line2d_20">
    <path d="M 459.9625 261.948024 
" clip-path="url(#pb73b020fc3)" style="fill: none; stroke: #3d3d3d; stroke-width: 1.5; stroke-linecap: round"/>
    <g clip-path="url(#pb73b020fc3)">
     <use xlink:href="#m1bb58cd2bb" x="459.9625" y="261.948024" style="fill: #ffffff; stroke: #ffffff; stroke-width: 0.9"/>
    </g>
   </g>
   <g id="line2d_21">
    <path d="M 571.5625 372.144061 
L 571.5625 157.680006 
" clip-path="url(#pb73b020fc3)" style="fill: none; stroke: #3d3d3d; stroke-width: 1.5; stroke-linecap: round"/>
   </g>
   <g id="line2d_22">
    <path d="M 571.5625 297.815547 
L 571.5625 235.393909 
" clip-path="url(#pb73b020fc3)" style="fill: none; stroke: #3d3d3d; stroke-width: 4.5; stroke-linecap: round"/>
   </g>
   <g id="line2d_23">
    <path d="M 571.5625 268.612041 
" clip-path="url(#pb73b020fc3)" style="fill: none; stroke: #3d3d3d; stroke-width: 1.5; stroke-linecap: round"/>
    <g clip-path="url(#pb73b020fc3)">
     <use xlink:href="#m1bb58cd2bb" x="571.5625" y="268.612041" style="fill: #ffffff; stroke: #ffffff; stroke-width: 0.9"/>
    </g>
   </g>
   <g id="line2d_24">
    <path d="M 683.1625 397.686871 
L 683.1625 134.941595 
" clip-path="url(#pb73b020fc3)" style="fill: none; stroke: #3d3d3d; stroke-width: 1.5; stroke-linecap: round"/>
   </g>
   <g id="line2d_25">
    <path d="M 683.1625 316.044592 
L 683.1625 234.593182 
" clip-path="url(#pb73b020fc3)" style="fill: none; stroke: #3d3d3d; stroke-width: 4.5; stroke-linecap: round"/>
   </g>
   <g id="line2d_26">
    <path d="M 683.1625 273.020998 
" clip-path="url(#pb73b020fc3)" style="fill: none; stroke: #3d3d3d; stroke-width: 1.5; stroke-linecap: round"/>
    <g clip-path="url(#pb73b020fc3)">
     <use xlink:href="#m1bb58cd2bb" x="683.1625" y="273.020998" style="fill: #ffffff; stroke: #ffffff; stroke-width: 0.9"/>
    </g>
   </g>
   <g id="line2d_27">
    <path d="M 794.7625 430.730699 
L 794.7625 137.931264 
" clip-path="url(#pb73b020fc3)" style="fill: none; stroke: #3d3d3d; stroke-width: 1.5; stroke-linecap: round"/>
   </g>
   <g id="line2d_28">
    <path d="M 794.7625 320.436703 
L 794.7625 242.810471 
" clip-path="url(#pb73b020fc3)" style="fill: none; stroke: #3d3d3d; stroke-width: 4.5; stroke-linecap: round"/>
   </g>
   <g id="line2d_29">
    <path d="M 794.7625 292.799167 
" clip-path="url(#pb73b020fc3)" style="fill: none; stroke: #3d3d3d; stroke-width: 1.5; stroke-linecap: round"/>
    <g clip-path="url(#pb73b020fc3)">
     <use xlink:href="#m1bb58cd2bb" x="794.7625" y="292.799167" style="fill: #ffffff; stroke: #ffffff; stroke-width: 0.9"/>
    </g>
   </g>
   <g id="patch_3">
    <path d="M 69.3625 561.6 
L 850.5625 561.6 
" style="fill: none; stroke: #cccccc; stroke-width: 0.8; stroke-linejoin: miter; stroke-linecap: square"/>
   </g>
  </g>
 </g>
 <defs>
  <clipPath id="pb73b020fc3">
   <rect x="69.3625" y="7.2" width="781.2" height="554.4"/>
  </clipPath>
 </defs>
</svg>
