<?xml version="1.0" encoding="utf-8" standalone="no"?>
<!DOCTYPE svg PUBLIC "-//W3C//DTD SVG 1.1//EN"
  "http://www.w3.org/Graphics/SVG/1.1/DTD/svg11.dtd">
<svg xmlns:xlink="http://www.w3.org/1999/xlink" width="1204.860937pt" height="781.192969pt" viewBox="0 0 1204.860937 781.192969" xmlns="http://www.w3.org/2000/svg" version="1.1">
 <metadata>
  <rdf:RDF xmlns:dc="http://purl.org/dc/elements/1.1/" xmlns:cc="http://creativecommons.org/ns#" xmlns:rdf="http://www.w3.org/1999/02/22-rdf-syntax-ns#">
   <cc:Work>
    <dc:type rdf:resource="http://purl.org/dc/dcmitype/StillImage"/>
    <dc:date>2023-12-03T01:59:24.206940</dc:date>
    <dc:format>image/svg+xml</dc:format>
    <dc:creator>
     <cc:Agent>
      <dc:title>Matplotlib v3.6.2, https://matplotlib.org/</dc:title>
     </cc:Agent>
    </dc:creator>
   </cc:Work>
  </rdf:RDF>
 </metadata>
 <defs>
  <style type="text/css">*{stroke-linejoin: round; stroke-linecap: butt}</style>
 </defs>
 <g id="figure_1">
  <g id="patch_1">
   <path d="M 0 781.192969 
L 1204.860937 781.192969 
L 1204.860937 0 
L 0 0 
L 0 781.192969 
z
" style="fill: none"/>
  </g>
  <g id="axes_1">
   <g id="patch_2">
    <path d="M 944.430469 375.297656 
C 944.430469 330.386628 935.583975 285.912302 918.397269 244.419922 
C 901.210562 202.927542 876.017881 165.22403 844.260988 133.467137 
C 812.504095 101.710244 774.800583 76.517563 733.308203 59.330856 
C 691.815823 42.14415 647.341497 33.297656 602.430469 33.297656 
C 557.51944 33.297656 513.045115 42.14415 471.552735 59.330856 
C 430.060355 76.517563 392.356842 101.710244 360.59995 133.467137 
C 328.843057 165.22403 303.650375 202.927542 286.463669 244.419922 
C 269.276962 285.912302 260.430469 330.386628 260.430469 375.297656 
C 260.430469 420.208685 269.276962 464.68301 286.463669 506.17539 
C 303.650375 547.66777 328.843057 585.371283 360.59995 617.128175 
C 392.356842 648.885068 430.060355 674.07775 471.552735 691.264456 
C 513.045115 708.451163 557.51944 717.297656 602.430469 717.297656 
C 647.341497 717.297656 691.815823 708.451163 733.308203 691.264456 
C 774.800583 674.07775 812.504095 648.885068 844.260988 617.128175 
C 876.017881 585.371283 901.210562 547.66777 918.397269 506.17539 
C 935.583975 464.68301 944.430469 420.208685 944.430469 375.297656 
M 602.430469 375.297656 
C 602.430469 375.297656 602.430469 375.297656 602.430469 375.297656 
C 602.430469 375.297656 602.430469 375.297656 602.430469 375.297656 
C 602.430469 375.297656 602.430469 375.297656 602.430469 375.297656 
C 602.430469 375.297656 602.430469 375.297656 602.430469 375.297656 
C 602.430469 375.297656 602.430469 375.297656 602.430469 375.297656 
C 602.430469 375.297656 602.430469 375.297656 602.430469 375.297656 
C 602.430469 375.297656 602.430469 375.297656 602.430469 375.297656 
C 602.430469 375.297656 602.430469 375.297656 602.430469 375.297656 
C 602.430469 375.297656 602.430469 375.297656 602.430469 375.297656 
C 602.430469 375.297656 602.430469 375.297656 602.430469 375.297656 
C 602.430469 375.297656 602.430469 375.297656 602.430469 375.297656 
C 602.430469 375.297656 602.430469 375.297656 602.430469 375.297656 
C 602.430469 375.297656 602.430469 375.297656 602.430469 375.297656 
C 602.430469 375.297656 602.430469 375.297656 602.430469 375.297656 
C 602.430469 375.297656 602.430469 375.297656 602.430469 375.297656 
C 602.430469 375.297656 602.430469 375.297656 602.430469 375.297656 
M 944.430469 375.297656 
L 944.430469 375.297656 
z
" style="fill: none"/>
   </g>
   <g id="matplotlib.axis_1">
    <g id="xtick_1">
     <g id="line2d_1">
      <path d="M 602.430469 375.297656 
L 602.430469 33.297656 
" clip-path="url(#pa99479e463)" style="fill: none; stroke: #000000; stroke-width: 0.5; stroke-linecap: square"/>
     </g>
     <g id="text_1">
      <!-- TM-Score -->
      <g transform="translate(544.494922 26.196094) scale(0.25 -0.25)">
       <defs>
        <path id="DejaVuSans-54" d="M -19 4666 
L 3928 4666 
L 3928 4134 
L 2272 4134 
L 2272 0 
L 1638 0 
L 1638 4134 
L -19 4134 
L -19 4666 
z
" transform="scale(0.015625)"/>
        <path id="DejaVuSans-4d" d="M 628 4666 
L 1569 4666 
L 2759 1491 
L 3956 4666 
L 4897 4666 
L 4897 0 
L 4281 0 
L 4281 4097 
L 3078 897 
L 2444 897 
L 1241 4097 
L 1241 0 
L 628 0 
L 628 4666 
z
" transform="scale(0.015625)"/>
        <path id="DejaVuSans-2d" d="M 313 2009 
L 1997 2009 
L 1997 1497 
L 313 1497 
L 313 2009 
z
" transform="scale(0.015625)"/>
        <path id="DejaVuSans-53" d="M 3425 4513 
L 3425 3897 
Q 3066 4069 2747 4153 
Q 2428 4238 2131 4238 
Q 1616 4238 1336 4038 
Q 1056 3838 1056 3469 
Q 1056 3159 1242 3001 
Q 1428 2844 1947 2747 
L 2328 2669 
Q 3034 2534 3370 2195 
Q 3706 1856 3706 1288 
Q 3706 609 3251 259 
Q 2797 -91 1919 -91 
Q 1588 -91 1214 -16 
Q 841 59 441 206 
L 441 856 
Q 825 641 1194 531 
Q 1563 422 1919 422 
Q 2459 422 2753 634 
Q 3047 847 3047 1241 
Q 3047 1584 2836 1778 
Q 2625 1972 2144 2069 
L 1759 2144 
Q 1053 2284 737 2584 
Q 422 2884 422 3419 
Q 422 4038 858 4394 
Q 1294 4750 2059 4750 
Q 2388 4750 2728 4690 
Q 3069 4631 3425 4513 
z
" transform="scale(0.015625)"/>
        <path id="DejaVuSans-63" d="M 3122 3366 
L 3122 2828 
Q 2878 2963 2633 3030 
Q 2388 3097 2138 3097 
Q 1578 3097 1268 2742 
Q 959 2388 959 1747 
Q 959 1106 1268 751 
Q 1578 397 2138 397 
Q 2388 397 2633 464 
Q 2878 531 3122 666 
L 3122 134 
Q 2881 22 2623 -34 
Q 2366 -91 2075 -91 
Q 1284 -91 818 406 
Q 353 903 353 1747 
Q 353 2603 823 3093 
Q 1294 3584 2113 3584 
Q 2378 3584 2631 3529 
Q 2884 3475 3122 3366 
z
" transform="scale(0.015625)"/>
        <path id="DejaVuSans-6f" d="M 1959 3097 
Q 1497 3097 1228 2736 
Q 959 2375 959 1747 
Q 959 1119 1226 758 
Q 1494 397 1959 397 
Q 2419 397 2687 759 
Q 2956 1122 2956 1747 
Q 2956 2369 2687 2733 
Q 2419 3097 1959 3097 
z
M 1959 3584 
Q 2709 3584 3137 3096 
Q 3566 2609 3566 1747 
Q 3566 888 3137 398 
Q 2709 -91 1959 -91 
Q 1206 -91 779 398 
Q 353 888 353 1747 
Q 353 2609 779 3096 
Q 1206 3584 1959 3584 
z
" transform="scale(0.015625)"/>
        <path id="DejaVuSans-72" d="M 2631 2963 
Q 2534 3019 2420 3045 
Q 2306 3072 2169 3072 
Q 1681 3072 1420 2755 
Q 1159 2438 1159 1844 
L 1159 0 
L 581 0 
L 581 3500 
L 1159 3500 
L 1159 2956 
Q 1341 3275 1631 3429 
Q 1922 3584 2338 3584 
Q 2397 3584 2469 3576 
Q 2541 3569 2628 3553 
L 2631 2963 
z
" transform="scale(0.015625)"/>
        <path id="DejaVuSans-65" d="M 3597 1894 
L 3597 1613 
L 953 1613 
Q 991 1019 1311 708 
Q 1631 397 2203 397 
Q 2534 397 2845 478 
Q 3156 559 3463 722 
L 3463 178 
Q 3153 47 2828 -22 
Q 2503 -91 2169 -91 
Q 1331 -91 842 396 
Q 353 884 353 1716 
Q 353 2575 817 3079 
Q 1281 3584 2069 3584 
Q 2775 3584 3186 3129 
Q 3597 2675 3597 1894 
z
M 3022 2063 
Q 3016 2534 2758 2815 
Q 2500 3097 2075 3097 
Q 1594 3097 1305 2825 
Q 1016 2553 972 2059 
L 3022 2063 
z
" transform="scale(0.015625)"/>
       </defs>
       <use xlink:href="#DejaVuSans-54"/>
       <use xlink:href="#DejaVuSans-4d" x="61.083984"/>
       <use xlink:href="#DejaVuSans-2d" x="147.363281"/>
       <use xlink:href="#DejaVuSans-53" x="183.447266"/>
       <use xlink:href="#DejaVuSans-63" x="246.923828"/>
       <use xlink:href="#DejaVuSans-6f" x="301.904297"/>
       <use xlink:href="#DejaVuSans-72" x="363.085938"/>
       <use xlink:href="#DejaVuSans-65" x="401.949219"/>
      </g>
     </g>
    </g>
    <g id="xtick_2">
     <g id="line2d_2">
      <path d="M 602.430469 375.297656 
L 335.044102 162.064144 
" clip-path="url(#pa99479e463)" style="fill: none; stroke: #000000; stroke-width: 0.5; stroke-linecap: square"/>
     </g>
     <g id="text_2">
      <!-- Side-chain RMSD -->
      <g transform="translate(217.700023 160.233724) scale(0.25 -0.25)">
       <defs>
        <path id="DejaVuSans-69" d="M 603 3500 
L 1178 3500 
L 1178 0 
L 603 0 
L 603 3500 
z
M 603 4863 
L 1178 4863 
L 1178 4134 
L 603 4134 
L 603 4863 
z
" transform="scale(0.015625)"/>
        <path id="DejaVuSans-64" d="M 2906 2969 
L 2906 4863 
L 3481 4863 
L 3481 0 
L 2906 0 
L 2906 525 
Q 2725 213 2448 61 
Q 2172 -91 1784 -91 
Q 1150 -91 751 415 
Q 353 922 353 1747 
Q 353 2572 751 3078 
Q 1150 3584 1784 3584 
Q 2172 3584 2448 3432 
Q 2725 3281 2906 2969 
z
M 947 1747 
Q 947 1113 1208 752 
Q 1469 391 1925 391 
Q 2381 391 2643 752 
Q 2906 1113 2906 1747 
Q 2906 2381 2643 2742 
Q 2381 3103 1925 3103 
Q 1469 3103 1208 2742 
Q 947 2381 947 1747 
z
" transform="scale(0.015625)"/>
        <path id="DejaVuSans-68" d="M 3513 2113 
L 3513 0 
L 2938 0 
L 2938 2094 
Q 2938 2591 2744 2837 
Q 2550 3084 2163 3084 
Q 1697 3084 1428 2787 
Q 1159 2491 1159 1978 
L 1159 0 
L 581 0 
L 581 4863 
L 1159 4863 
L 1159 2956 
Q 1366 3272 1645 3428 
Q 1925 3584 2291 3584 
Q 2894 3584 3203 3211 
Q 3513 2838 3513 2113 
z
" transform="scale(0.015625)"/>
        <path id="DejaVuSans-61" d="M 2194 1759 
Q 1497 1759 1228 1600 
Q 959 1441 959 1056 
Q 959 750 1161 570 
Q 1363 391 1709 391 
Q 2188 391 2477 730 
Q 2766 1069 2766 1631 
L 2766 1759 
L 2194 1759 
z
M 3341 1997 
L 3341 0 
L 2766 0 
L 2766 531 
Q 2569 213 2275 61 
Q 1981 -91 1556 -91 
Q 1019 -91 701 211 
Q 384 513 384 1019 
Q 384 1609 779 1909 
Q 1175 2209 1959 2209 
L 2766 2209 
L 2766 2266 
Q 2766 2663 2505 2880 
Q 2244 3097 1772 3097 
Q 1472 3097 1187 3025 
Q 903 2953 641 2809 
L 641 3341 
Q 956 3463 1253 3523 
Q 1550 3584 1831 3584 
Q 2591 3584 2966 3190 
Q 3341 2797 3341 1997 
z
" transform="scale(0.015625)"/>
        <path id="DejaVuSans-6e" d="M 3513 2113 
L 3513 0 
L 2938 0 
L 2938 2094 
Q 2938 2591 2744 2837 
Q 2550 3084 2163 3084 
Q 1697 3084 1428 2787 
Q 1159 2491 1159 1978 
L 1159 0 
L 581 0 
L 581 3500 
L 1159 3500 
L 1159 2956 
Q 1366 3272 1645 3428 
Q 1925 3584 2291 3584 
Q 2894 3584 3203 3211 
Q 3513 2838 3513 2113 
z
" transform="scale(0.015625)"/>
        <path id="DejaVuSans-20" transform="scale(0.015625)"/>
        <path id="DejaVuSans-52" d="M 2841 2188 
Q 3044 2119 3236 1894 
Q 3428 1669 3622 1275 
L 4263 0 
L 3584 0 
L 2988 1197 
Q 2756 1666 2539 1819 
Q 2322 1972 1947 1972 
L 1259 1972 
L 1259 0 
L 628 0 
L 628 4666 
L 2053 4666 
Q 2853 4666 3247 4331 
Q 3641 3997 3641 3322 
Q 3641 2881 3436 2590 
Q 3231 2300 2841 2188 
z
M 1259 4147 
L 1259 2491 
L 2053 2491 
Q 2509 2491 2742 2702 
Q 2975 2913 2975 3322 
Q 2975 3731 2742 3939 
Q 2509 4147 2053 4147 
L 1259 4147 
z
" transform="scale(0.015625)"/>
        <path id="DejaVuSans-44" d="M 1259 4147 
L 1259 519 
L 2022 519 
Q 2988 519 3436 956 
Q 3884 1394 3884 2338 
Q 3884 3275 3436 3711 
Q 2988 4147 2022 4147 
L 1259 4147 
z
M 628 4666 
L 1925 4666 
Q 3281 4666 3915 4102 
Q 4550 3538 4550 2338 
Q 4550 1131 3912 565 
Q 3275 0 1925 0 
L 628 0 
L 628 4666 
z
" transform="scale(0.015625)"/>
       </defs>
       <use xlink:href="#DejaVuSans-53"/>
       <use xlink:href="#DejaVuSans-69" x="63.476562"/>
       <use xlink:href="#DejaVuSans-64" x="91.259766"/>
       <use xlink:href="#DejaVuSans-65" x="154.736328"/>
       <use xlink:href="#DejaVuSans-2d" x="216.259766"/>
       <use xlink:href="#DejaVuSans-63" x="252.34375"/>
       <use xlink:href="#DejaVuSans-68" x="307.324219"/>
       <use xlink:href="#DejaVuSans-61" x="370.703125"/>
       <use xlink:href="#DejaVuSans-69" x="431.982422"/>
       <use xlink:href="#DejaVuSans-6e" x="459.765625"/>
       <use xlink:href="#DejaVuSans-20" x="523.144531"/>
       <use xlink:href="#DejaVuSans-52" x="554.931641"/>
       <use xlink:href="#DejaVuSans-4d" x="624.414062"/>
       <use xlink:href="#DejaVuSans-53" x="710.693359"/>
       <use xlink:href="#DejaVuSans-44" x="774.169922"/>
      </g>
     </g>
    </g>
    <g id="xtick_3">
     <g id="line2d_3">
      <path d="M 602.430469 375.297656 
L 269.005123 451.399816 
" clip-path="url(#pa99479e463)" style="fill: none; stroke: #000000; stroke-width: 0.5; stroke-linecap: square"/>
     </g>
     <g id="text_3">
      <!-- Accuracy -->
      <g transform="translate(198.28582 461.413546) scale(0.25 -0.25)">
       <defs>
        <path id="DejaVuSans-41" d="M 2188 4044 
L 1331 1722 
L 3047 1722 
L 2188 4044 
z
M 1831 4666 
L 2547 4666 
L 4325 0 
L 3669 0 
L 3244 1197 
L 1141 1197 
L 716 0 
L 50 0 
L 1831 4666 
z
" transform="scale(0.015625)"/>
        <path id="DejaVuSans-75" d="M 544 1381 
L 544 3500 
L 1119 3500 
L 1119 1403 
Q 1119 906 1312 657 
Q 1506 409 1894 409 
Q 2359 409 2629 706 
Q 2900 1003 2900 1516 
L 2900 3500 
L 3475 3500 
L 3475 0 
L 2900 0 
L 2900 538 
Q 2691 219 2414 64 
Q 2138 -91 1772 -91 
Q 1169 -91 856 284 
Q 544 659 544 1381 
z
M 1991 3584 
L 1991 3584 
z
" transform="scale(0.015625)"/>
        <path id="DejaVuSans-79" d="M 2059 -325 
Q 1816 -950 1584 -1140 
Q 1353 -1331 966 -1331 
L 506 -1331 
L 506 -850 
L 844 -850 
Q 1081 -850 1212 -737 
Q 1344 -625 1503 -206 
L 1606 56 
L 191 3500 
L 800 3500 
L 1894 763 
L 2988 3500 
L 3597 3500 
L 2059 -325 
z
" transform="scale(0.015625)"/>
       </defs>
       <use xlink:href="#DejaVuSans-41"/>
       <use xlink:href="#DejaVuSans-63" x="66.658203"/>
       <use xlink:href="#DejaVuSans-63" x="121.638672"/>
       <use xlink:href="#DejaVuSans-75" x="176.619141"/>
       <use xlink:href="#DejaVuSans-72" x="239.998047"/>
       <use xlink:href="#DejaVuSans-61" x="281.111328"/>
       <use xlink:href="#DejaVuSans-63" x="342.390625"/>
       <use xlink:href="#DejaVuSans-79" x="397.371094"/>
      </g>
     </g>
    </g>
    <g id="xtick_4">
     <g id="line2d_4">
      <path d="M 602.430469 375.297656 
L 454.04223 683.429009 
" clip-path="url(#pa99479e463)" style="fill: none; stroke: #000000; stroke-width: 0.5; stroke-linecap: square"/>
     </g>
     <g id="text_4">
      <!-- $\chi_4$ -->
      <g transform="translate(434.592858 702.890229) scale(0.25 -0.25)">
       <defs>
        <path id="DejaVuSans-Oblique-3c7" d="M 1922 -781 
L 1691 416 
L 394 -1334 
L -284 -1334 
L 1553 1141 
L 1269 2613 
Q 1194 3006 713 3006 
L 559 3006 
L 653 3500 
L 872 3494 
Q 1675 3472 1775 2950 
L 2006 1753 
L 3303 3503 
L 3981 3503 
L 2144 1028 
L 2428 -444 
Q 2503 -838 2984 -838 
L 3138 -838 
L 3044 -1331 
L 2825 -1325 
Q 2022 -1303 1922 -781 
z
" transform="scale(0.015625)"/>
        <path id="DejaVuSans-34" d="M 2419 4116 
L 825 1625 
L 2419 1625 
L 2419 4116 
z
M 2253 4666 
L 3047 4666 
L 3047 1625 
L 3713 1625 
L 3713 1100 
L 3047 1100 
L 3047 0 
L 2419 0 
L 2419 1100 
L 313 1100 
L 313 1709 
L 2253 4666 
z
" transform="scale(0.015625)"/>
       </defs>
       <use xlink:href="#DejaVuSans-Oblique-3c7" transform="translate(0 0.265625)"/>
       <use xlink:href="#DejaVuSans-34" transform="translate(59.179688 -16.140625) scale(0.7)"/>
      </g>
     </g>
    </g>
    <g id="xtick_5">
     <g id="line2d_5">
      <path d="M 602.430469 375.297656 
L 750.818708 683.429009 
" clip-path="url(#pa99479e463)" style="fill: none; stroke: #000000; stroke-width: 0.5; stroke-linecap: square"/>
     </g>
     <g id="text_5">
      <!-- $\chi_3$ -->
      <g transform="translate(743.51808 702.890229) scale(0.25 -0.25)">
       <defs>
        <path id="DejaVuSans-33" d="M 2597 2516 
Q 3050 2419 3304 2112 
Q 3559 1806 3559 1356 
Q 3559 666 3084 287 
Q 2609 -91 1734 -91 
Q 1441 -91 1130 -33 
Q 819 25 488 141 
L 488 750 
Q 750 597 1062 519 
Q 1375 441 1716 441 
Q 2309 441 2620 675 
Q 2931 909 2931 1356 
Q 2931 1769 2642 2001 
Q 2353 2234 1838 2234 
L 1294 2234 
L 1294 2753 
L 1863 2753 
Q 2328 2753 2575 2939 
Q 2822 3125 2822 3475 
Q 2822 3834 2567 4026 
Q 2313 4219 1838 4219 
Q 1578 4219 1281 4162 
Q 984 4106 628 3988 
L 628 4550 
Q 988 4650 1302 4700 
Q 1616 4750 1894 4750 
Q 2613 4750 3031 4423 
Q 3450 4097 3450 3541 
Q 3450 3153 3228 2886 
Q 3006 2619 2597 2516 
z
" transform="scale(0.015625)"/>
       </defs>
       <use xlink:href="#DejaVuSans-Oblique-3c7" transform="translate(0 0.265625)"/>
       <use xlink:href="#DejaVuSans-33" transform="translate(59.179688 -16.140625) scale(0.7)"/>
      </g>
     </g>
    </g>
    <g id="xtick_6">
     <g id="line2d_6">
      <path d="M 602.430469 375.297656 
L 935.855815 451.399816 
" clip-path="url(#pa99479e463)" style="fill: none; stroke: #000000; stroke-width: 0.5; stroke-linecap: square"/>
     </g>
     <g id="text_6">
      <!-- $\chi_2$ -->
      <g transform="translate(936.129805 461.362765) scale(0.25 -0.25)">
       <defs>
        <path id="DejaVuSans-32" d="M 1228 531 
L 3431 531 
L 3431 0 
L 469 0 
L 469 531 
Q 828 903 1448 1529 
Q 2069 2156 2228 2338 
Q 2531 2678 2651 2914 
Q 2772 3150 2772 3378 
Q 2772 3750 2511 3984 
Q 2250 4219 1831 4219 
Q 1534 4219 1204 4116 
Q 875 4013 500 3803 
L 500 4441 
Q 881 4594 1212 4672 
Q 1544 4750 1819 4750 
Q 2544 4750 2975 4387 
Q 3406 4025 3406 3419 
Q 3406 3131 3298 2873 
Q 3191 2616 2906 2266 
Q 2828 2175 2409 1742 
Q 1991 1309 1228 531 
z
" transform="scale(0.015625)"/>
       </defs>
       <use xlink:href="#DejaVuSans-Oblique-3c7" transform="translate(0 0.265625)"/>
       <use xlink:href="#DejaVuSans-32" transform="translate(59.179688 -16.140625) scale(0.7)"/>
      </g>
     </g>
    </g>
    <g id="xtick_7">
     <g id="line2d_7">
      <path d="M 602.430469 375.297656 
L 869.816836 162.064144 
" clip-path="url(#pa99479e463)" style="fill: none; stroke: #000000; stroke-width: 0.5; stroke-linecap: square"/>
     </g>
     <g id="text_7">
      <!-- $\chi_1$ -->
      <g transform="translate(867.387477 160.182943) scale(0.25 -0.25)">
       <defs>
        <path id="DejaVuSans-31" d="M 794 531 
L 1825 531 
L 1825 4091 
L 703 3866 
L 703 4441 
L 1819 4666 
L 2450 4666 
L 2450 531 
L 3481 531 
L 3481 0 
L 794 0 
L 794 531 
z
" transform="scale(0.015625)"/>
       </defs>
       <use xlink:href="#DejaVuSans-Oblique-3c7" transform="translate(0 0.265625)"/>
       <use xlink:href="#DejaVuSans-31" transform="translate(59.179688 -16.140625) scale(0.7)"/>
      </g>
     </g>
    </g>
   </g>
   <g id="matplotlib.axis_2">
    <g id="ytick_1">
     <g id="line2d_8">
      <path d="M 664.612287 375.297656 
C 664.612287 367.132015 663.003834 359.045774 659.878978 351.501705 
C 656.754122 343.957636 652.173635 337.102451 646.399654 331.328471 
C 640.625674 325.55449 633.770489 320.974003 626.22642 317.849147 
C 618.682351 314.724291 610.59611 313.115838 602.430469 313.115838 
C 594.264827 313.115838 586.178586 314.724291 578.634517 317.849147 
C 571.090448 320.974003 564.235264 325.55449 558.461283 331.328471 
C 552.687303 337.102451 548.106815 343.957636 544.98196 351.501705 
C 541.857104 359.045774 540.248651 367.132015 540.248651 375.297656 
C 540.248651 383.463298 541.857104 391.549539 544.98196 399.093608 
C 548.106815 406.637677 552.687303 413.492861 558.461283 419.266842 
C 564.235264 425.040822 571.090448 429.62131 578.634517 432.746165 
C 586.178586 435.871021 594.264827 437.479474 602.430469 437.479474 
C 610.59611 437.479474 618.682351 435.871021 626.22642 432.746165 
C 633.770489 429.62131 640.625674 425.040822 646.399654 419.266842 
C 652.173635 413.492861 656.754122 406.637677 659.878978 399.093608 
C 663.003834 391.549539 664.612287 383.463298 664.612287 375.297656 
" clip-path="url(#pa99479e463)" style="fill: none; stroke: #b0b0b0; stroke-width: 0.1; stroke-linecap: square"/>
     </g>
     <g id="text_8">
      <!-- 0.87 -->
      <g transform="translate(602.430469 308.956463) scale(0.2 -0.2)">
       <defs>
        <path id="DejaVuSans-30" d="M 2034 4250 
Q 1547 4250 1301 3770 
Q 1056 3291 1056 2328 
Q 1056 1369 1301 889 
Q 1547 409 2034 409 
Q 2525 409 2770 889 
Q 3016 1369 3016 2328 
Q 3016 3291 2770 3770 
Q 2525 4250 2034 4250 
z
M 2034 4750 
Q 2819 4750 3233 4129 
Q 3647 3509 3647 2328 
Q 3647 1150 3233 529 
Q 2819 -91 2034 -91 
Q 1250 -91 836 529 
Q 422 1150 422 2328 
Q 422 3509 836 4129 
Q 1250 4750 2034 4750 
z
" transform="scale(0.015625)"/>
        <path id="DejaVuSans-2e" d="M 684 794 
L 1344 794 
L 1344 0 
L 684 0 
L 684 794 
z
" transform="scale(0.015625)"/>
        <path id="DejaVuSans-38" d="M 2034 2216 
Q 1584 2216 1326 1975 
Q 1069 1734 1069 1313 
Q 1069 891 1326 650 
Q 1584 409 2034 409 
Q 2484 409 2743 651 
Q 3003 894 3003 1313 
Q 3003 1734 2745 1975 
Q 2488 2216 2034 2216 
z
M 1403 2484 
Q 997 2584 770 2862 
Q 544 3141 544 3541 
Q 544 4100 942 4425 
Q 1341 4750 2034 4750 
Q 2731 4750 3128 4425 
Q 3525 4100 3525 3541 
Q 3525 3141 3298 2862 
Q 3072 2584 2669 2484 
Q 3125 2378 3379 2068 
Q 3634 1759 3634 1313 
Q 3634 634 3220 271 
Q 2806 -91 2034 -91 
Q 1263 -91 848 271 
Q 434 634 434 1313 
Q 434 1759 690 2068 
Q 947 2378 1403 2484 
z
M 1172 3481 
Q 1172 3119 1398 2916 
Q 1625 2713 2034 2713 
Q 2441 2713 2670 2916 
Q 2900 3119 2900 3481 
Q 2900 3844 2670 4047 
Q 2441 4250 2034 4250 
Q 1625 4250 1398 4047 
Q 1172 3844 1172 3481 
z
" transform="scale(0.015625)"/>
        <path id="DejaVuSans-37" d="M 525 4666 
L 3525 4666 
L 3525 4397 
L 1831 0 
L 1172 0 
L 2766 4134 
L 525 4134 
L 525 4666 
z
" transform="scale(0.015625)"/>
       </defs>
       <use xlink:href="#DejaVuSans-30"/>
       <use xlink:href="#DejaVuSans-2e" x="63.623047"/>
       <use xlink:href="#DejaVuSans-38" x="95.410156"/>
       <use xlink:href="#DejaVuSans-37" x="159.033203"/>
      </g>
     </g>
    </g>
    <g id="ytick_2">
     <g id="line2d_9">
      <path d="M 726.794105 375.297656 
C 726.794105 358.966373 723.577198 342.793891 717.327487 327.705753 
C 711.077776 312.617615 701.9168 298.907247 690.368839 287.359286 
C 678.820878 275.811325 665.11051 266.650349 650.022372 260.400638 
C 634.934234 254.150927 618.761752 250.93402 602.430469 250.93402 
C 586.099186 250.93402 569.926704 254.150927 554.838566 260.400638 
C 539.750427 266.650349 526.040059 275.811325 514.492098 287.359286 
C 502.944137 298.907247 493.783162 312.617615 487.533451 327.705753 
C 481.283739 342.793891 478.066832 358.966373 478.066832 375.297656 
C 478.066832 391.628939 481.283739 407.801421 487.533451 422.889559 
C 493.783162 437.977698 502.944137 451.688066 514.492098 463.236027 
C 526.040059 474.783988 539.750427 483.944963 554.838566 490.194674 
C 569.926704 496.444386 586.099186 499.661293 602.430469 499.661293 
C 618.761752 499.661293 634.934234 496.444386 650.022372 490.194674 
C 665.11051 483.944963 678.820878 474.783988 690.368839 463.236027 
C 701.9168 451.688066 711.077776 437.977698 717.327487 422.889559 
C 723.577198 407.801421 726.794105 391.628939 726.794105 375.297656 
" clip-path="url(#pa99479e463)" style="fill: none; stroke: #b0b0b0; stroke-width: 0.1; stroke-linecap: square"/>
     </g>
    </g>
    <g id="ytick_3">
     <g id="line2d_10">
      <path d="M 788.975923 375.297656 
C 788.975923 350.800732 784.150563 326.542009 774.775996 303.909801 
C 765.401429 281.277594 751.659966 260.712042 734.338025 243.3901 
C 717.016083 226.068159 696.450531 212.326696 673.818324 202.952129 
C 651.186116 193.577562 626.927393 188.752202 602.430469 188.752202 
C 577.933544 188.752202 553.674821 193.577562 531.042614 202.952129 
C 508.410407 212.326696 487.844854 226.068159 470.522913 243.3901 
C 453.200971 260.712042 439.459509 281.277594 430.084941 303.909801 
C 420.710374 326.542009 415.885014 350.800732 415.885014 375.297656 
C 415.885014 399.794581 420.710374 424.053304 430.084941 446.685511 
C 439.459509 469.317718 453.200971 489.883271 470.522913 507.205212 
C 487.844854 524.527154 508.410407 538.268616 531.042614 547.643184 
C 553.674821 557.017751 577.933544 561.843111 602.430469 561.843111 
C 626.927393 561.843111 651.186116 557.017751 673.818324 547.643184 
C 696.450531 538.268616 717.016083 524.527154 734.338025 507.205212 
C 751.659966 489.883271 765.401429 469.317718 774.775996 446.685511 
C 784.150563 424.053304 788.975923 399.794581 788.975923 375.297656 
" clip-path="url(#pa99479e463)" style="fill: none; stroke: #b0b0b0; stroke-width: 0.1; stroke-linecap: square"/>
     </g>
    </g>
    <g id="ytick_4">
     <g id="line2d_11">
      <path d="M 851.157741 375.297656 
C 851.157741 342.63509 844.723928 310.290126 832.224505 280.11385 
C 819.725082 249.937573 801.403132 222.516837 778.30721 199.420915 
C 755.211288 176.324993 727.790552 158.003043 697.614275 145.50362 
C 667.437999 133.004197 635.093035 126.570384 602.430469 126.570384 
C 569.767903 126.570384 537.422939 133.004197 507.246662 145.50362 
C 477.070386 158.003043 449.64965 176.324993 426.553728 199.420915 
C 403.457805 222.516837 385.135855 249.937573 372.636432 280.11385 
C 360.137009 310.290126 353.703196 342.63509 353.703196 375.297656 
C 353.703196 407.960222 360.137009 440.305186 372.636432 470.481463 
C 385.135855 500.657739 403.457805 528.078475 426.553728 551.174397 
C 449.64965 574.27032 477.070386 592.59227 507.246662 605.091693 
C 537.422939 617.591116 569.767903 624.024929 602.430469 624.024929 
C 635.093035 624.024929 667.437999 617.591116 697.614275 605.091693 
C 727.790552 592.59227 755.211288 574.27032 778.30721 551.174397 
C 801.403132 528.078475 819.725082 500.657739 832.224505 470.481463 
C 844.723928 440.305186 851.157741 407.960222 851.157741 375.297656 
" clip-path="url(#pa99479e463)" style="fill: none; stroke: #b0b0b0; stroke-width: 0.1; stroke-linecap: square"/>
     </g>
    </g>
    <g id="ytick_5">
     <g id="line2d_12">
      <path d="M 913.33956 375.297656 
C 913.33956 334.469449 905.297293 294.038244 889.673014 256.317898 
C 874.048736 218.597553 851.146298 184.321632 822.276395 155.45173 
C 793.406493 126.581827 759.130572 103.679389 721.410227 88.055111 
C 683.689881 72.430832 643.258676 64.388565 602.430469 64.388565 
C 561.602261 64.388565 521.171056 72.430832 483.450711 88.055111 
C 445.730365 103.679389 411.454445 126.581827 382.584542 155.45173 
C 353.71464 184.321632 330.812202 218.597553 315.187923 256.317898 
C 299.563645 294.038244 291.521378 334.469449 291.521378 375.297656 
C 291.521378 416.125864 299.563645 456.557069 315.187923 494.277414 
C 330.812202 531.99776 353.71464 566.27368 382.584542 595.143583 
C 411.454445 624.013485 445.730365 646.915923 483.450711 662.540202 
C 521.171056 678.16448 561.602261 686.206747 602.430469 686.206747 
C 643.258676 686.206747 683.689881 678.16448 721.410227 662.540202 
C 759.130572 646.915923 793.406493 624.013485 822.276395 595.143583 
C 851.146298 566.27368 874.048736 531.99776 889.673014 494.277414 
C 905.297293 456.557069 913.33956 416.125864 913.33956 375.297656 
" clip-path="url(#pa99479e463)" style="fill: none; stroke: #b0b0b0; stroke-width: 0.1; stroke-linecap: square"/>
     </g>
     <g id="text_9">
      <!-- 1.0 -->
      <g transform="translate(602.430469 60.22919) scale(0.2 -0.2)">
       <use xlink:href="#DejaVuSans-31"/>
       <use xlink:href="#DejaVuSans-2e" x="63.623047"/>
       <use xlink:href="#DejaVuSans-30" x="95.410156"/>
      </g>
     </g>
    </g>
   </g>
   <g id="line2d_13">
    <path d="M 602.430469 64.388565 
L 372.218609 191.709825 
L 308.099195 442.476849 
L 568.709969 445.318996 
L 708.654352 595.873823 
L 833.417166 428.018863 
L 839.520852 186.224385 
L 602.430469 64.388565 
" clip-path="url(#pa99479e463)" style="fill: none; stroke: #ff0000; stroke-width: 4; stroke-linecap: square"/>
   </g>
   <g id="line2d_14">
    <path d="M 602.430469 64.388565 
L 560.588345 341.929676 
L 518.374553 394.482871 
L 479.597479 630.362987 
L 629.341787 431.179584 
L 669.215149 390.540824 
L 645.026222 341.328676 
L 602.430469 64.388565 
" clip-path="url(#pa99479e463)" style="fill: none; stroke: #000000; stroke-width: 4; stroke-linecap: square"/>
   </g>
   <g id="line2d_15">
    <path d="M 602.430469 292.102957 
L 371.367202 191.03085 
L 310.910394 441.835211 
L 464.711308 661.27444 
L 716.448291 612.058104 
L 867.233842 435.737298 
L 836.275999 188.812069 
L 602.430469 292.102957 
" clip-path="url(#pa99479e463)" style="fill: none; stroke: #000000; stroke-width: 4; stroke-linecap: square"/>
   </g>
   <g id="line2d_16">
    <path d="M 602.430469 297.980783 
L 367.663538 188.077276 
L 307.855625 442.532442 
L 465.793461 659.027327 
L 720.701532 620.89005 
L 874.145496 437.314838 
L 838.924439 186.700008 
L 602.430469 297.980783 
" clip-path="url(#pa99479e463)" style="fill: none; stroke: #000000; stroke-width: 4; stroke-linecap: square"/>
   </g>
   <g id="line2d_17">
    <path d="M 602.430469 299.073767 
L 367.389752 187.85894 
L 308.358627 442.417635 
L 467.089845 656.335356 
L 727.455779 634.915388 
L 876.103367 437.761709 
L 838.261455 187.22872 
L 602.430469 299.073767 
" clip-path="url(#pa99479e463)" style="fill: none; stroke: #ff0000; stroke-width: 4; stroke-linecap: square"/>
   </g>
   <g id="legend_1">
    <g id="patch_3">
     <path d="M 12.2 773.992969 
L 1192.660938 773.992969 
Q 1197.660938 773.992969 1197.660938 768.992969 
L 1197.660938 734.797656 
Q 1197.660938 729.797656 1192.660938 729.797656 
L 12.2 729.797656 
Q 7.2 729.797656 7.2 734.797656 
L 7.2 768.992969 
Q 7.2 773.992969 12.2 773.992969 
z
" style="fill: #ffffff; opacity: 0.8; stroke: #cccccc; stroke-linejoin: miter"/>
    </g>
    <g id="line2d_18">
     <path d="M 17.2 750.04375 
L 42.2 750.04375 
L 67.2 750.04375 
" style="fill: none; stroke: #ff0000; stroke-width: 4; stroke-linecap: square"/>
    </g>
    <g id="text_10">
     <!-- FASPR -->
     <g transform="translate(87.2 758.79375) scale(0.25 -0.25)">
      <defs>
       <path id="DejaVuSans-46" d="M 628 4666 
L 3309 4666 
L 3309 4134 
L 1259 4134 
L 1259 2759 
L 3109 2759 
L 3109 2228 
L 1259 2228 
L 1259 0 
L 628 0 
L 628 4666 
z
" transform="scale(0.015625)"/>
       <path id="DejaVuSans-50" d="M 1259 4147 
L 1259 2394 
L 2053 2394 
Q 2494 2394 2734 2622 
Q 2975 2850 2975 3272 
Q 2975 3691 2734 3919 
Q 2494 4147 2053 4147 
L 1259 4147 
z
M 628 4666 
L 2053 4666 
Q 2838 4666 3239 4311 
Q 3641 3956 3641 3272 
Q 3641 2581 3239 2228 
Q 2838 1875 2053 1875 
L 1259 1875 
L 1259 0 
L 628 0 
L 628 4666 
z
" transform="scale(0.015625)"/>
      </defs>
      <use xlink:href="#DejaVuSans-46"/>
      <use xlink:href="#DejaVuSans-41" x="48.394531"/>
      <use xlink:href="#DejaVuSans-53" x="116.802734"/>
      <use xlink:href="#DejaVuSans-50" x="180.279297"/>
      <use xlink:href="#DejaVuSans-52" x="240.582031"/>
     </g>
    </g>
    <g id="line2d_19">
     <path d="M 214.715625 750.04375 
L 239.715625 750.04375 
L 264.715625 750.04375 
" style="fill: none; stroke: #000000; stroke-width: 4; stroke-linecap: square"/>
    </g>
    <g id="text_11">
     <!-- CHARMM -->
     <g transform="translate(284.715625 758.79375) scale(0.25 -0.25)">
      <defs>
       <path id="DejaVuSans-43" d="M 4122 4306 
L 4122 3641 
Q 3803 3938 3442 4084 
Q 3081 4231 2675 4231 
Q 1875 4231 1450 3742 
Q 1025 3253 1025 2328 
Q 1025 1406 1450 917 
Q 1875 428 2675 428 
Q 3081 428 3442 575 
Q 3803 722 4122 1019 
L 4122 359 
Q 3791 134 3420 21 
Q 3050 -91 2638 -91 
Q 1578 -91 968 557 
Q 359 1206 359 2328 
Q 359 3453 968 4101 
Q 1578 4750 2638 4750 
Q 3056 4750 3426 4639 
Q 3797 4528 4122 4306 
z
" transform="scale(0.015625)"/>
       <path id="DejaVuSans-48" d="M 628 4666 
L 1259 4666 
L 1259 2753 
L 3553 2753 
L 3553 4666 
L 4184 4666 
L 4184 0 
L 3553 0 
L 3553 2222 
L 1259 2222 
L 1259 0 
L 628 0 
L 628 4666 
z
" transform="scale(0.015625)"/>
      </defs>
      <use xlink:href="#DejaVuSans-43"/>
      <use xlink:href="#DejaVuSans-48" x="69.824219"/>
      <use xlink:href="#DejaVuSans-41" x="145.019531"/>
      <use xlink:href="#DejaVuSans-52" x="213.427734"/>
      <use xlink:href="#DejaVuSans-4d" x="282.910156"/>
      <use xlink:href="#DejaVuSans-4d" x="369.189453"/>
     </g>
    </g>
    <g id="line2d_20">
     <path d="M 448.586719 750.04375 
L 473.586719 750.04375 
L 498.586719 750.04375 
" style="fill: none; stroke: #000000; stroke-width: 4; stroke-linecap: square"/>
    </g>
    <g id="text_12">
     <!-- CHARMM 0 -->
     <g transform="translate(518.586719 758.79375) scale(0.25 -0.25)">
      <use xlink:href="#DejaVuSans-43"/>
      <use xlink:href="#DejaVuSans-48" x="69.824219"/>
      <use xlink:href="#DejaVuSans-41" x="145.019531"/>
      <use xlink:href="#DejaVuSans-52" x="213.427734"/>
      <use xlink:href="#DejaVuSans-4d" x="282.910156"/>
      <use xlink:href="#DejaVuSans-4d" x="369.189453"/>
      <use xlink:href="#DejaVuSans-20" x="455.46875"/>
      <use xlink:href="#DejaVuSans-30" x="487.255859"/>
     </g>
    </g>
    <g id="line2d_21">
     <path d="M 706.309375 750.04375 
L 731.309375 750.04375 
L 756.309375 750.04375 
" style="fill: none; stroke: #000000; stroke-width: 4; stroke-linecap: square"/>
    </g>
    <g id="text_13">
     <!-- CHARMM 1 -->
     <g transform="translate(776.309375 758.79375) scale(0.25 -0.25)">
      <use xlink:href="#DejaVuSans-43"/>
      <use xlink:href="#DejaVuSans-48" x="69.824219"/>
      <use xlink:href="#DejaVuSans-41" x="145.019531"/>
      <use xlink:href="#DejaVuSans-52" x="213.427734"/>
      <use xlink:href="#DejaVuSans-4d" x="282.910156"/>
      <use xlink:href="#DejaVuSans-4d" x="369.189453"/>
      <use xlink:href="#DejaVuSans-20" x="455.46875"/>
      <use xlink:href="#DejaVuSans-31" x="487.255859"/>
     </g>
    </g>
    <g id="line2d_22">
     <path d="M 964.032031 750.04375 
L 989.032031 750.04375 
L 1014.032031 750.04375 
" style="fill: none; stroke: #ff0000; stroke-width: 4; stroke-linecap: square"/>
    </g>
    <g id="text_14">
     <!-- CHARMM 10 -->
     <g transform="translate(1034.032031 758.79375) scale(0.25 -0.25)">
      <use xlink:href="#DejaVuSans-43"/>
      <use xlink:href="#DejaVuSans-48" x="69.824219"/>
      <use xlink:href="#DejaVuSans-41" x="145.019531"/>
      <use xlink:href="#DejaVuSans-52" x="213.427734"/>
      <use xlink:href="#DejaVuSans-4d" x="282.910156"/>
      <use xlink:href="#DejaVuSans-4d" x="369.189453"/>
      <use xlink:href="#DejaVuSans-20" x="455.46875"/>
      <use xlink:href="#DejaVuSans-31" x="487.255859"/>
      <use xlink:href="#DejaVuSans-30" x="550.878906"/>
     </g>
    </g>
   </g>
  </g>
  <g id="axes_2">
   <g id="matplotlib.axis_3">
    <g id="ytick_6">
     <g id="line2d_23">
      <path d="M 664.612287 375.297656 
C 664.612287 367.132015 663.003834 359.045774 659.878978 351.501705 
C 656.754122 343.957636 652.173635 337.102451 646.399654 331.328471 
C 640.625674 325.55449 633.770489 320.974003 626.22642 317.849147 
C 618.682351 314.724291 610.59611 313.115838 602.430469 313.115838 
C 594.264827 313.115838 586.178586 314.724291 578.634517 317.849147 
C 571.090448 320.974003 564.235264 325.55449 558.461283 331.328471 
C 552.687303 337.102451 548.106815 343.957636 544.98196 351.501705 
C 541.857104 359.045774 540.248651 367.132015 540.248651 375.297656 
C 540.248651 383.463298 541.857104 391.549539 544.98196 399.093608 
C 548.106815 406.637677 552.687303 413.492861 558.461283 419.266842 
C 564.235264 425.040822 571.090448 429.62131 578.634517 432.746165 
C 586.178586 435.871021 594.264827 437.479474 602.430469 437.479474 
C 610.59611 437.479474 618.682351 435.871021 626.22642 432.746165 
C 633.770489 429.62131 640.625674 425.040822 646.399654 419.266842 
C 652.173635 413.492861 656.754122 406.637677 659.878978 399.093608 
C 663.003834 391.549539 664.612287 383.463298 664.612287 375.297656 
" clip-path="url(#p44e5582215)" style="fill: none; stroke: #b0b0b0; stroke-width: 0.1; stroke-linecap: square"/>
     </g>
     <g id="text_15">
      <!-- 2.0 -->
      <g transform="translate(553.814766 332.368552) scale(0.2 -0.2)">
       <use xlink:href="#DejaVuSans-32"/>
       <use xlink:href="#DejaVuSans-2e" x="63.623047"/>
       <use xlink:href="#DejaVuSans-30" x="95.410156"/>
      </g>
     </g>
    </g>
    <g id="ytick_7">
     <g id="line2d_24">
      <path d="M 726.794105 375.297656 
C 726.794105 358.966373 723.577198 342.793891 717.327487 327.705753 
C 711.077776 312.617615 701.9168 298.907247 690.368839 287.359286 
C 678.820878 275.811325 665.11051 266.650349 650.022372 260.400638 
C 634.934234 254.150927 618.761752 250.93402 602.430469 250.93402 
C 586.099186 250.93402 569.926704 254.150927 554.838566 260.400638 
C 539.750427 266.650349 526.040059 275.811325 514.492098 287.359286 
C 502.944137 298.907247 493.783162 312.617615 487.533451 327.705753 
C 481.283739 342.793891 478.066832 358.966373 478.066832 375.297656 
C 478.066832 391.628939 481.283739 407.801421 487.533451 422.889559 
C 493.783162 437.977698 502.944137 451.688066 514.492098 463.236027 
C 526.040059 474.783988 539.750427 483.944963 554.838566 490.194674 
C 569.926704 496.444386 586.099186 499.661293 602.430469 499.661293 
C 618.761752 499.661293 634.934234 496.444386 650.022372 490.194674 
C 665.11051 483.944963 678.820878 474.783988 690.368839 463.236027 
C 701.9168 451.688066 711.077776 437.977698 717.327487 422.889559 
C 723.577198 407.801421 726.794105 391.628939 726.794105 375.297656 
" clip-path="url(#p44e5582215)" style="fill: none; stroke: #b0b0b0; stroke-width: 0.1; stroke-linecap: square"/>
     </g>
    </g>
    <g id="ytick_8">
     <g id="line2d_25">
      <path d="M 788.975923 375.297656 
C 788.975923 350.800732 784.150563 326.542009 774.775996 303.909801 
C 765.401429 281.277594 751.659966 260.712042 734.338025 243.3901 
C 717.016083 226.068159 696.450531 212.326696 673.818324 202.952129 
C 651.186116 193.577562 626.927393 188.752202 602.430469 188.752202 
C 577.933544 188.752202 553.674821 193.577562 531.042614 202.952129 
C 508.410407 212.326696 487.844854 226.068159 470.522913 243.3901 
C 453.200971 260.712042 439.459509 281.277594 430.084941 303.909801 
C 420.710374 326.542009 415.885014 350.800732 415.885014 375.297656 
C 415.885014 399.794581 420.710374 424.053304 430.084941 446.685511 
C 439.459509 469.317718 453.200971 489.883271 470.522913 507.205212 
C 487.844854 524.527154 508.410407 538.268616 531.042614 547.643184 
C 553.674821 557.017751 577.933544 561.843111 602.430469 561.843111 
C 626.927393 561.843111 651.186116 557.017751 673.818324 547.643184 
C 696.450531 538.268616 717.016083 524.527154 734.338025 507.205212 
C 751.659966 489.883271 765.401429 469.317718 774.775996 446.685511 
C 784.150563 424.053304 788.975923 399.794581 788.975923 375.297656 
" clip-path="url(#p44e5582215)" style="fill: none; stroke: #b0b0b0; stroke-width: 0.1; stroke-linecap: square"/>
     </g>
    </g>
    <g id="ytick_9">
     <g id="line2d_26">
      <path d="M 851.157741 375.297656 
C 851.157741 342.63509 844.723928 310.290126 832.224505 280.11385 
C 819.725082 249.937573 801.403132 222.516837 778.30721 199.420915 
C 755.211288 176.324993 727.790552 158.003043 697.614275 145.50362 
C 667.437999 133.004197 635.093035 126.570384 602.430469 126.570384 
C 569.767903 126.570384 537.422939 133.004197 507.246662 145.50362 
C 477.070386 158.003043 449.64965 176.324993 426.553728 199.420915 
C 403.457805 222.516837 385.135855 249.937573 372.636432 280.11385 
C 360.137009 310.290126 353.703196 342.63509 353.703196 375.297656 
C 353.703196 407.960222 360.137009 440.305186 372.636432 470.481463 
C 385.135855 500.657739 403.457805 528.078475 426.553728 551.174397 
C 449.64965 574.27032 477.070386 592.59227 507.246662 605.091693 
C 537.422939 617.591116 569.767903 624.024929 602.430469 624.024929 
C 635.093035 624.024929 667.437999 617.591116 697.614275 605.091693 
C 727.790552 592.59227 755.211288 574.27032 778.30721 551.174397 
C 801.403132 528.078475 819.725082 500.657739 832.224505 470.481463 
C 844.723928 440.305186 851.157741 407.960222 851.157741 375.297656 
" clip-path="url(#p44e5582215)" style="fill: none; stroke: #b0b0b0; stroke-width: 0.1; stroke-linecap: square"/>
     </g>
    </g>
    <g id="ytick_10">
     <g id="line2d_27">
      <path d="M 913.33956 375.297656 
C 913.33956 334.469449 905.297293 294.038244 889.673014 256.317898 
C 874.048736 218.597553 851.146298 184.321632 822.276395 155.45173 
C 793.406493 126.581827 759.130572 103.679389 721.410227 88.055111 
C 683.689881 72.430832 643.258676 64.388565 602.430469 64.388565 
C 561.602261 64.388565 521.171056 72.430832 483.450711 88.055111 
C 445.730365 103.679389 411.454445 126.581827 382.584542 155.45173 
C 353.71464 184.321632 330.812202 218.597553 315.187923 256.317898 
C 299.563645 294.038244 291.521378 334.469449 291.521378 375.297656 
C 291.521378 416.125864 299.563645 456.557069 315.187923 494.277414 
C 330.812202 531.99776 353.71464 566.27368 382.584542 595.143583 
C 411.454445 624.013485 445.730365 646.915923 483.450711 662.540202 
C 521.171056 678.16448 561.602261 686.206747 602.430469 686.206747 
C 643.258676 686.206747 683.689881 678.16448 721.410227 662.540202 
C 759.130572 646.915923 793.406493 624.013485 822.276395 595.143583 
C 851.146298 566.27368 874.048736 531.99776 889.673014 494.277414 
C 905.297293 456.557069 913.33956 416.125864 913.33956 375.297656 
" clip-path="url(#p44e5582215)" style="fill: none; stroke: #b0b0b0; stroke-width: 0.1; stroke-linecap: square"/>
     </g>
     <g id="text_16">
      <!-- 0.95 -->
      <g transform="translate(359.351953 177.289634) scale(0.2 -0.2)">
       <defs>
        <path id="DejaVuSans-39" d="M 703 97 
L 703 672 
Q 941 559 1184 500 
Q 1428 441 1663 441 
Q 2288 441 2617 861 
Q 2947 1281 2994 2138 
Q 2813 1869 2534 1725 
Q 2256 1581 1919 1581 
Q 1219 1581 811 2004 
Q 403 2428 403 3163 
Q 403 3881 828 4315 
Q 1253 4750 1959 4750 
Q 2769 4750 3195 4129 
Q 3622 3509 3622 2328 
Q 3622 1225 3098 567 
Q 2575 -91 1691 -91 
Q 1453 -91 1209 -44 
Q 966 3 703 97 
z
M 1959 2075 
Q 2384 2075 2632 2365 
Q 2881 2656 2881 3163 
Q 2881 3666 2632 3958 
Q 2384 4250 1959 4250 
Q 1534 4250 1286 3958 
Q 1038 3666 1038 3163 
Q 1038 2656 1286 2365 
Q 1534 2075 1959 2075 
z
" transform="scale(0.015625)"/>
        <path id="DejaVuSans-35" d="M 691 4666 
L 3169 4666 
L 3169 4134 
L 1269 4134 
L 1269 2991 
Q 1406 3038 1543 3061 
Q 1681 3084 1819 3084 
Q 2600 3084 3056 2656 
Q 3513 2228 3513 1497 
Q 3513 744 3044 326 
Q 2575 -91 1722 -91 
Q 1428 -91 1123 -41 
Q 819 9 494 109 
L 494 744 
Q 775 591 1075 516 
Q 1375 441 1709 441 
Q 2250 441 2565 725 
Q 2881 1009 2881 1497 
Q 2881 1984 2565 2268 
Q 2250 2553 1709 2553 
Q 1456 2553 1204 2497 
Q 953 2441 691 2322 
L 691 4666 
z
" transform="scale(0.015625)"/>
       </defs>
       <use xlink:href="#DejaVuSans-30"/>
       <use xlink:href="#DejaVuSans-2e" x="63.623047"/>
       <use xlink:href="#DejaVuSans-39" x="95.410156"/>
       <use xlink:href="#DejaVuSans-35" x="159.033203"/>
      </g>
     </g>
    </g>
   </g>
  </g>
  <g id="axes_3">
   <g id="matplotlib.axis_4">
    <g id="ytick_11">
     <g id="line2d_28">
      <path d="M 664.612287 375.297656 
C 664.612287 367.132015 663.003834 359.045774 659.878978 351.501705 
C 656.754122 343.957636 652.173635 337.102451 646.399654 331.328471 
C 640.625674 325.55449 633.770489 320.974003 626.22642 317.849147 
C 618.682351 314.724291 610.59611 313.115838 602.430469 313.115838 
C 594.264827 313.115838 586.178586 314.724291 578.634517 317.849147 
C 571.090448 320.974003 564.235264 325.55449 558.461283 331.328471 
C 552.687303 337.102451 548.106815 343.957636 544.98196 351.501705 
C 541.857104 359.045774 540.248651 367.132015 540.248651 375.297656 
C 540.248651 383.463298 541.857104 391.549539 544.98196 399.093608 
C 548.106815 406.637677 552.687303 413.492861 558.461283 419.266842 
C 564.235264 425.040822 571.090448 429.62131 578.634517 432.746165 
C 586.178586 435.871021 594.264827 437.479474 602.430469 437.479474 
C 610.59611 437.479474 618.682351 435.871021 626.22642 432.746165 
C 633.770489 429.62131 640.625674 425.040822 646.399654 419.266842 
C 652.173635 413.492861 656.754122 406.637677 659.878978 399.093608 
C 663.003834 391.549539 664.612287 383.463298 664.612287 375.297656 
" clip-path="url(#p33569497e2)" style="fill: none; stroke: #b0b0b0; stroke-width: 0.1; stroke-linecap: square"/>
     </g>
     <g id="text_17">
      <!-- 0.15 -->
      <g transform="translate(541.807679 384.975038) scale(0.2 -0.2)">
       <use xlink:href="#DejaVuSans-30"/>
       <use xlink:href="#DejaVuSans-2e" x="63.623047"/>
       <use xlink:href="#DejaVuSans-31" x="95.410156"/>
       <use xlink:href="#DejaVuSans-35" x="159.033203"/>
      </g>
     </g>
    </g>
    <g id="ytick_12">
     <g id="line2d_29">
      <path d="M 726.794105 375.297656 
C 726.794105 358.966373 723.577198 342.793891 717.327487 327.705753 
C 711.077776 312.617615 701.9168 298.907247 690.368839 287.359286 
C 678.820878 275.811325 665.11051 266.650349 650.022372 260.400638 
C 634.934234 254.150927 618.761752 250.93402 602.430469 250.93402 
C 586.099186 250.93402 569.926704 254.150927 554.838566 260.400638 
C 539.750427 266.650349 526.040059 275.811325 514.492098 287.359286 
C 502.944137 298.907247 493.783162 312.617615 487.533451 327.705753 
C 481.283739 342.793891 478.066832 358.966373 478.066832 375.297656 
C 478.066832 391.628939 481.283739 407.801421 487.533451 422.889559 
C 493.783162 437.977698 502.944137 451.688066 514.492098 463.236027 
C 526.040059 474.783988 539.750427 483.944963 554.838566 490.194674 
C 569.926704 496.444386 586.099186 499.661293 602.430469 499.661293 
C 618.761752 499.661293 634.934234 496.444386 650.022372 490.194674 
C 665.11051 483.944963 678.820878 474.783988 690.368839 463.236027 
C 701.9168 451.688066 711.077776 437.977698 717.327487 422.889559 
C 723.577198 407.801421 726.794105 391.628939 726.794105 375.297656 
" clip-path="url(#p33569497e2)" style="fill: none; stroke: #b0b0b0; stroke-width: 0.1; stroke-linecap: square"/>
     </g>
    </g>
    <g id="ytick_13">
     <g id="line2d_30">
      <path d="M 788.975923 375.297656 
C 788.975923 350.800732 784.150563 326.542009 774.775996 303.909801 
C 765.401429 281.277594 751.659966 260.712042 734.338025 243.3901 
C 717.016083 226.068159 696.450531 212.326696 673.818324 202.952129 
C 651.186116 193.577562 626.927393 188.752202 602.430469 188.752202 
C 577.933544 188.752202 553.674821 193.577562 531.042614 202.952129 
C 508.410407 212.326696 487.844854 226.068159 470.522913 243.3901 
C 453.200971 260.712042 439.459509 281.277594 430.084941 303.909801 
C 420.710374 326.542009 415.885014 350.800732 415.885014 375.297656 
C 415.885014 399.794581 420.710374 424.053304 430.084941 446.685511 
C 439.459509 469.317718 453.200971 489.883271 470.522913 507.205212 
C 487.844854 524.527154 508.410407 538.268616 531.042614 547.643184 
C 553.674821 557.017751 577.933544 561.843111 602.430469 561.843111 
C 626.927393 561.843111 651.186116 557.017751 673.818324 547.643184 
C 696.450531 538.268616 717.016083 524.527154 734.338025 507.205212 
C 751.659966 489.883271 765.401429 469.317718 774.775996 446.685511 
C 784.150563 424.053304 788.975923 399.794581 788.975923 375.297656 
" clip-path="url(#p33569497e2)" style="fill: none; stroke: #b0b0b0; stroke-width: 0.1; stroke-linecap: square"/>
     </g>
    </g>
    <g id="ytick_14">
     <g id="line2d_31">
      <path d="M 851.157741 375.297656 
C 851.157741 342.63509 844.723928 310.290126 832.224505 280.11385 
C 819.725082 249.937573 801.403132 222.516837 778.30721 199.420915 
C 755.211288 176.324993 727.790552 158.003043 697.614275 145.50362 
C 667.437999 133.004197 635.093035 126.570384 602.430469 126.570384 
C 569.767903 126.570384 537.422939 133.004197 507.246662 145.50362 
C 477.070386 158.003043 449.64965 176.324993 426.553728 199.420915 
C 403.457805 222.516837 385.135855 249.937573 372.636432 280.11385 
C 360.137009 310.290126 353.703196 342.63509 353.703196 375.297656 
C 353.703196 407.960222 360.137009 440.305186 372.636432 470.481463 
C 385.135855 500.657739 403.457805 528.078475 426.553728 551.174397 
C 449.64965 574.27032 477.070386 592.59227 507.246662 605.091693 
C 537.422939 617.591116 569.767903 624.024929 602.430469 624.024929 
C 635.093035 624.024929 667.437999 617.591116 697.614275 605.091693 
C 727.790552 592.59227 755.211288 574.27032 778.30721 551.174397 
C 801.403132 528.078475 819.725082 500.657739 832.224505 470.481463 
C 844.723928 440.305186 851.157741 407.960222 851.157741 375.297656 
" clip-path="url(#p33569497e2)" style="fill: none; stroke: #b0b0b0; stroke-width: 0.1; stroke-linecap: square"/>
     </g>
    </g>
    <g id="ytick_15">
     <g id="line2d_32">
      <path d="M 913.33956 375.297656 
C 913.33956 334.469449 905.297293 294.038244 889.673014 256.317898 
C 874.048736 218.597553 851.146298 184.321632 822.276395 155.45173 
C 793.406493 126.581827 759.130572 103.679389 721.410227 88.055111 
C 683.689881 72.430832 643.258676 64.388565 602.430469 64.388565 
C 561.602261 64.388565 521.171056 72.430832 483.450711 88.055111 
C 445.730365 103.679389 411.454445 126.581827 382.584542 155.45173 
C 353.71464 184.321632 330.812202 218.597553 315.187923 256.317898 
C 299.563645 294.038244 291.521378 334.469449 291.521378 375.297656 
C 291.521378 416.125864 299.563645 456.557069 315.187923 494.277414 
C 330.812202 531.99776 353.71464 566.27368 382.584542 595.143583 
C 411.454445 624.013485 445.730365 646.915923 483.450711 662.540202 
C 521.171056 678.16448 561.602261 686.206747 602.430469 686.206747 
C 643.258676 686.206747 683.689881 678.16448 721.410227 662.540202 
C 759.130572 646.915923 793.406493 624.013485 822.276395 595.143583 
C 851.146298 566.27368 874.048736 531.99776 889.673014 494.277414 
C 905.297293 456.557069 913.33956 416.125864 913.33956 375.297656 
" clip-path="url(#p33569497e2)" style="fill: none; stroke: #b0b0b0; stroke-width: 0.1; stroke-linecap: square"/>
     </g>
     <g id="text_18">
      <!-- 0.5 -->
      <g transform="translate(299.316518 440.322063) scale(0.2 -0.2)">
       <use xlink:href="#DejaVuSans-30"/>
       <use xlink:href="#DejaVuSans-2e" x="63.623047"/>
       <use xlink:href="#DejaVuSans-35" x="95.410156"/>
      </g>
     </g>
    </g>
   </g>
  </g>
  <g id="axes_4">
   <g id="matplotlib.axis_5">
    <g id="ytick_16">
     <g id="line2d_33">
      <path d="M 664.612287 375.297656 
C 664.612287 367.132015 663.003834 359.045774 659.878978 351.501705 
C 656.754122 343.957636 652.173635 337.102451 646.399654 331.328471 
C 640.625674 325.55449 633.770489 320.974003 626.22642 317.849147 
C 618.682351 314.724291 610.59611 313.115838 602.430469 313.115838 
C 594.264827 313.115838 586.178586 314.724291 578.634517 317.849147 
C 571.090448 320.974003 564.235264 325.55449 558.461283 331.328471 
C 552.687303 337.102451 548.106815 343.957636 544.98196 351.501705 
C 541.857104 359.045774 540.248651 367.132015 540.248651 375.297656 
C 540.248651 383.463298 541.857104 391.549539 544.98196 399.093608 
C 548.106815 406.637677 552.687303 413.492861 558.461283 419.266842 
C 564.235264 425.040822 571.090448 429.62131 578.634517 432.746165 
C 586.178586 435.871021 594.264827 437.479474 602.430469 437.479474 
C 610.59611 437.479474 618.682351 435.871021 626.22642 432.746165 
C 633.770489 429.62131 640.625674 425.040822 646.399654 419.266842 
C 652.173635 413.492861 656.754122 406.637677 659.878978 399.093608 
C 663.003834 391.549539 664.612287 383.463298 664.612287 375.297656 
" clip-path="url(#p7245d2c6a2)" style="fill: none; stroke: #b0b0b0; stroke-width: 0.1; stroke-linecap: square"/>
     </g>
     <g id="text_19">
      <!-- 55.5 -->
      <g transform="translate(575.450789 427.162164) scale(0.2 -0.2)">
       <use xlink:href="#DejaVuSans-35"/>
       <use xlink:href="#DejaVuSans-35" x="63.623047"/>
       <use xlink:href="#DejaVuSans-2e" x="127.246094"/>
       <use xlink:href="#DejaVuSans-35" x="159.033203"/>
      </g>
     </g>
    </g>
    <g id="ytick_17">
     <g id="line2d_34">
      <path d="M 726.794105 375.297656 
C 726.794105 358.966373 723.577198 342.793891 717.327487 327.705753 
C 711.077776 312.617615 701.9168 298.907247 690.368839 287.359286 
C 678.820878 275.811325 665.11051 266.650349 650.022372 260.400638 
C 634.934234 254.150927 618.761752 250.93402 602.430469 250.93402 
C 586.099186 250.93402 569.926704 254.150927 554.838566 260.400638 
C 539.750427 266.650349 526.040059 275.811325 514.492098 287.359286 
C 502.944137 298.907247 493.783162 312.617615 487.533451 327.705753 
C 481.283739 342.793891 478.066832 358.966373 478.066832 375.297656 
C 478.066832 391.628939 481.283739 407.801421 487.533451 422.889559 
C 493.783162 437.977698 502.944137 451.688066 514.492098 463.236027 
C 526.040059 474.783988 539.750427 483.944963 554.838566 490.194674 
C 569.926704 496.444386 586.099186 499.661293 602.430469 499.661293 
C 618.761752 499.661293 634.934234 496.444386 650.022372 490.194674 
C 665.11051 483.944963 678.820878 474.783988 690.368839 463.236027 
C 701.9168 451.688066 711.077776 437.977698 717.327487 422.889559 
C 723.577198 407.801421 726.794105 391.628939 726.794105 375.297656 
" clip-path="url(#p7245d2c6a2)" style="fill: none; stroke: #b0b0b0; stroke-width: 0.1; stroke-linecap: square"/>
     </g>
    </g>
    <g id="ytick_18">
     <g id="line2d_35">
      <path d="M 788.975923 375.297656 
C 788.975923 350.800732 784.150563 326.542009 774.775996 303.909801 
C 765.401429 281.277594 751.659966 260.712042 734.338025 243.3901 
C 717.016083 226.068159 696.450531 212.326696 673.818324 202.952129 
C 651.186116 193.577562 626.927393 188.752202 602.430469 188.752202 
C 577.933544 188.752202 553.674821 193.577562 531.042614 202.952129 
C 508.410407 212.326696 487.844854 226.068159 470.522913 243.3901 
C 453.200971 260.712042 439.459509 281.277594 430.084941 303.909801 
C 420.710374 326.542009 415.885014 350.800732 415.885014 375.297656 
C 415.885014 399.794581 420.710374 424.053304 430.084941 446.685511 
C 439.459509 469.317718 453.200971 489.883271 470.522913 507.205212 
C 487.844854 524.527154 508.410407 538.268616 531.042614 547.643184 
C 553.674821 557.017751 577.933544 561.843111 602.430469 561.843111 
C 626.927393 561.843111 651.186116 557.017751 673.818324 547.643184 
C 696.450531 538.268616 717.016083 524.527154 734.338025 507.205212 
C 751.659966 489.883271 765.401429 469.317718 774.775996 446.685511 
C 784.150563 424.053304 788.975923 399.794581 788.975923 375.297656 
" clip-path="url(#p7245d2c6a2)" style="fill: none; stroke: #b0b0b0; stroke-width: 0.1; stroke-linecap: square"/>
     </g>
    </g>
    <g id="ytick_19">
     <g id="line2d_36">
      <path d="M 851.157741 375.297656 
C 851.157741 342.63509 844.723928 310.290126 832.224505 280.11385 
C 819.725082 249.937573 801.403132 222.516837 778.30721 199.420915 
C 755.211288 176.324993 727.790552 158.003043 697.614275 145.50362 
C 667.437999 133.004197 635.093035 126.570384 602.430469 126.570384 
C 569.767903 126.570384 537.422939 133.004197 507.246662 145.50362 
C 477.070386 158.003043 449.64965 176.324993 426.553728 199.420915 
C 403.457805 222.516837 385.135855 249.937573 372.636432 280.11385 
C 360.137009 310.290126 353.703196 342.63509 353.703196 375.297656 
C 353.703196 407.960222 360.137009 440.305186 372.636432 470.481463 
C 385.135855 500.657739 403.457805 528.078475 426.553728 551.174397 
C 449.64965 574.27032 477.070386 592.59227 507.246662 605.091693 
C 537.422939 617.591116 569.767903 624.024929 602.430469 624.024929 
C 635.093035 624.024929 667.437999 617.591116 697.614275 605.091693 
C 727.790552 592.59227 755.211288 574.27032 778.30721 551.174397 
C 801.403132 528.078475 819.725082 500.657739 832.224505 470.481463 
C 844.723928 440.305186 851.157741 407.960222 851.157741 375.297656 
" clip-path="url(#p7245d2c6a2)" style="fill: none; stroke: #b0b0b0; stroke-width: 0.1; stroke-linecap: square"/>
     </g>
    </g>
    <g id="ytick_20">
     <g id="line2d_37">
      <path d="M 913.33956 375.297656 
C 913.33956 334.469449 905.297293 294.038244 889.673014 256.317898 
C 874.048736 218.597553 851.146298 184.321632 822.276395 155.45173 
C 793.406493 126.581827 759.130572 103.679389 721.410227 88.055111 
C 683.689881 72.430832 643.258676 64.388565 602.430469 64.388565 
C 561.602261 64.388565 521.171056 72.430832 483.450711 88.055111 
C 445.730365 103.679389 411.454445 126.581827 382.584542 155.45173 
C 353.71464 184.321632 330.812202 218.597553 315.187923 256.317898 
C 299.563645 294.038244 291.521378 334.469449 291.521378 375.297656 
C 291.521378 416.125864 299.563645 456.557069 315.187923 494.277414 
C 330.812202 531.99776 353.71464 566.27368 382.584542 595.143583 
C 411.454445 624.013485 445.730365 646.915923 483.450711 662.540202 
C 521.171056 678.16448 561.602261 686.206747 602.430469 686.206747 
C 643.258676 686.206747 683.689881 678.16448 721.410227 662.540202 
C 759.130572 646.915923 793.406493 624.013485 822.276395 595.143583 
C 851.146298 566.27368 874.048736 531.99776 889.673014 494.277414 
C 905.297293 456.557069 913.33956 416.125864 913.33956 375.297656 
" clip-path="url(#p7245d2c6a2)" style="fill: none; stroke: #b0b0b0; stroke-width: 0.1; stroke-linecap: square"/>
     </g>
     <g id="text_20">
      <!-- 49.5 -->
      <g transform="translate(467.53207 651.257693) scale(0.2 -0.2)">
       <use xlink:href="#DejaVuSans-34"/>
       <use xlink:href="#DejaVuSans-39" x="63.623047"/>
       <use xlink:href="#DejaVuSans-2e" x="127.246094"/>
       <use xlink:href="#DejaVuSans-35" x="159.033203"/>
      </g>
     </g>
    </g>
   </g>
  </g>
  <g id="axes_5">
   <g id="matplotlib.axis_6">
    <g id="ytick_21">
     <g id="line2d_38">
      <path d="M 664.612287 375.297656 
C 664.612287 367.132015 663.003834 359.045774 659.878978 351.501705 
C 656.754122 343.957636 652.173635 337.102451 646.399654 331.328471 
C 640.625674 325.55449 633.770489 320.974003 626.22642 317.849147 
C 618.682351 314.724291 610.59611 313.115838 602.430469 313.115838 
C 594.264827 313.115838 586.178586 314.724291 578.634517 317.849147 
C 571.090448 320.974003 564.235264 325.55449 558.461283 331.328471 
C 552.687303 337.102451 548.106815 343.957636 544.98196 351.501705 
C 541.857104 359.045774 540.248651 367.132015 540.248651 375.297656 
C 540.248651 383.463298 541.857104 391.549539 544.98196 399.093608 
C 548.106815 406.637677 552.687303 413.492861 558.461283 419.266842 
C 564.235264 425.040822 571.090448 429.62131 578.634517 432.746165 
C 586.178586 435.871021 594.264827 437.479474 602.430469 437.479474 
C 610.59611 437.479474 618.682351 435.871021 626.22642 432.746165 
C 633.770489 429.62131 640.625674 425.040822 646.399654 419.266842 
C 652.173635 413.492861 656.754122 406.637677 659.878978 399.093608 
C 663.003834 391.549539 664.612287 383.463298 664.612287 375.297656 
" clip-path="url(#pf808a60376)" style="fill: none; stroke: #b0b0b0; stroke-width: 0.1; stroke-linecap: square"/>
     </g>
     <g id="text_21">
      <!-- 56.0 -->
      <g transform="translate(629.410149 427.162164) scale(0.2 -0.2)">
       <defs>
        <path id="DejaVuSans-36" d="M 2113 2584 
Q 1688 2584 1439 2293 
Q 1191 2003 1191 1497 
Q 1191 994 1439 701 
Q 1688 409 2113 409 
Q 2538 409 2786 701 
Q 3034 994 3034 1497 
Q 3034 2003 2786 2293 
Q 2538 2584 2113 2584 
z
M 3366 4563 
L 3366 3988 
Q 3128 4100 2886 4159 
Q 2644 4219 2406 4219 
Q 1781 4219 1451 3797 
Q 1122 3375 1075 2522 
Q 1259 2794 1537 2939 
Q 1816 3084 2150 3084 
Q 2853 3084 3261 2657 
Q 3669 2231 3669 1497 
Q 3669 778 3244 343 
Q 2819 -91 2113 -91 
Q 1303 -91 875 529 
Q 447 1150 447 2328 
Q 447 3434 972 4092 
Q 1497 4750 2381 4750 
Q 2619 4750 2861 4703 
Q 3103 4656 3366 4563 
z
" transform="scale(0.015625)"/>
       </defs>
       <use xlink:href="#DejaVuSans-35"/>
       <use xlink:href="#DejaVuSans-36" x="63.623047"/>
       <use xlink:href="#DejaVuSans-2e" x="127.246094"/>
       <use xlink:href="#DejaVuSans-30" x="159.033203"/>
      </g>
     </g>
    </g>
    <g id="ytick_22">
     <g id="line2d_39">
      <path d="M 726.794105 375.297656 
C 726.794105 358.966373 723.577198 342.793891 717.327487 327.705753 
C 711.077776 312.617615 701.9168 298.907247 690.368839 287.359286 
C 678.820878 275.811325 665.11051 266.650349 650.022372 260.400638 
C 634.934234 254.150927 618.761752 250.93402 602.430469 250.93402 
C 586.099186 250.93402 569.926704 254.150927 554.838566 260.400638 
C 539.750427 266.650349 526.040059 275.811325 514.492098 287.359286 
C 502.944137 298.907247 493.783162 312.617615 487.533451 327.705753 
C 481.283739 342.793891 478.066832 358.966373 478.066832 375.297656 
C 478.066832 391.628939 481.283739 407.801421 487.533451 422.889559 
C 493.783162 437.977698 502.944137 451.688066 514.492098 463.236027 
C 526.040059 474.783988 539.750427 483.944963 554.838566 490.194674 
C 569.926704 496.444386 586.099186 499.661293 602.430469 499.661293 
C 618.761752 499.661293 634.934234 496.444386 650.022372 490.194674 
C 665.11051 483.944963 678.820878 474.783988 690.368839 463.236027 
C 701.9168 451.688066 711.077776 437.977698 717.327487 422.889559 
C 723.577198 407.801421 726.794105 391.628939 726.794105 375.297656 
" clip-path="url(#pf808a60376)" style="fill: none; stroke: #b0b0b0; stroke-width: 0.1; stroke-linecap: square"/>
     </g>
    </g>
    <g id="ytick_23">
     <g id="line2d_40">
      <path d="M 788.975923 375.297656 
C 788.975923 350.800732 784.150563 326.542009 774.775996 303.909801 
C 765.401429 281.277594 751.659966 260.712042 734.338025 243.3901 
C 717.016083 226.068159 696.450531 212.326696 673.818324 202.952129 
C 651.186116 193.577562 626.927393 188.752202 602.430469 188.752202 
C 577.933544 188.752202 553.674821 193.577562 531.042614 202.952129 
C 508.410407 212.326696 487.844854 226.068159 470.522913 243.3901 
C 453.200971 260.712042 439.459509 281.277594 430.084941 303.909801 
C 420.710374 326.542009 415.885014 350.800732 415.885014 375.297656 
C 415.885014 399.794581 420.710374 424.053304 430.084941 446.685511 
C 439.459509 469.317718 453.200971 489.883271 470.522913 507.205212 
C 487.844854 524.527154 508.410407 538.268616 531.042614 547.643184 
C 553.674821 557.017751 577.933544 561.843111 602.430469 561.843111 
C 626.927393 561.843111 651.186116 557.017751 673.818324 547.643184 
C 696.450531 538.268616 717.016083 524.527154 734.338025 507.205212 
C 751.659966 489.883271 765.401429 469.317718 774.775996 446.685511 
C 784.150563 424.053304 788.975923 399.794581 788.975923 375.297656 
" clip-path="url(#pf808a60376)" style="fill: none; stroke: #b0b0b0; stroke-width: 0.1; stroke-linecap: square"/>
     </g>
    </g>
    <g id="ytick_24">
     <g id="line2d_41">
      <path d="M 851.157741 375.297656 
C 851.157741 342.63509 844.723928 310.290126 832.224505 280.11385 
C 819.725082 249.937573 801.403132 222.516837 778.30721 199.420915 
C 755.211288 176.324993 727.790552 158.003043 697.614275 145.50362 
C 667.437999 133.004197 635.093035 126.570384 602.430469 126.570384 
C 569.767903 126.570384 537.422939 133.004197 507.246662 145.50362 
C 477.070386 158.003043 449.64965 176.324993 426.553728 199.420915 
C 403.457805 222.516837 385.135855 249.937573 372.636432 280.11385 
C 360.137009 310.290126 353.703196 342.63509 353.703196 375.297656 
C 353.703196 407.960222 360.137009 440.305186 372.636432 470.481463 
C 385.135855 500.657739 403.457805 528.078475 426.553728 551.174397 
C 449.64965 574.27032 477.070386 592.59227 507.246662 605.091693 
C 537.422939 617.591116 569.767903 624.024929 602.430469 624.024929 
C 635.093035 624.024929 667.437999 617.591116 697.614275 605.091693 
C 727.790552 592.59227 755.211288 574.27032 778.30721 551.174397 
C 801.403132 528.078475 819.725082 500.657739 832.224505 470.481463 
C 844.723928 440.305186 851.157741 407.960222 851.157741 375.297656 
" clip-path="url(#pf808a60376)" style="fill: none; stroke: #b0b0b0; stroke-width: 0.1; stroke-linecap: square"/>
     </g>
    </g>
    <g id="ytick_25">
     <g id="line2d_42">
      <path d="M 913.33956 375.297656 
C 913.33956 334.469449 905.297293 294.038244 889.673014 256.317898 
C 874.048736 218.597553 851.146298 184.321632 822.276395 155.45173 
C 793.406493 126.581827 759.130572 103.679389 721.410227 88.055111 
C 683.689881 72.430832 643.258676 64.388565 602.430469 64.388565 
C 561.602261 64.388565 521.171056 72.430832 483.450711 88.055111 
C 445.730365 103.679389 411.454445 126.581827 382.584542 155.45173 
C 353.71464 184.321632 330.812202 218.597553 315.187923 256.317898 
C 299.563645 294.038244 291.521378 334.469449 291.521378 375.297656 
C 291.521378 416.125864 299.563645 456.557069 315.187923 494.277414 
C 330.812202 531.99776 353.71464 566.27368 382.584542 595.143583 
C 411.454445 624.013485 445.730365 646.915923 483.450711 662.540202 
C 521.171056 678.16448 561.602261 686.206747 602.430469 686.206747 
C 643.258676 686.206747 683.689881 678.16448 721.410227 662.540202 
C 759.130572 646.915923 793.406493 624.013485 822.276395 595.143583 
C 851.146298 566.27368 874.048736 531.99776 889.673014 494.277414 
C 905.297293 456.557069 913.33956 416.125864 913.33956 375.297656 
" clip-path="url(#pf808a60376)" style="fill: none; stroke: #b0b0b0; stroke-width: 0.1; stroke-linecap: square"/>
     </g>
     <g id="text_22">
      <!-- 46.0 -->
      <g transform="translate(737.328868 651.257693) scale(0.2 -0.2)">
       <use xlink:href="#DejaVuSans-34"/>
       <use xlink:href="#DejaVuSans-36" x="63.623047"/>
       <use xlink:href="#DejaVuSans-2e" x="127.246094"/>
       <use xlink:href="#DejaVuSans-30" x="159.033203"/>
      </g>
     </g>
    </g>
   </g>
  </g>
  <g id="axes_6">
   <g id="matplotlib.axis_7">
    <g id="ytick_26">
     <g id="line2d_43">
      <path d="M 664.612287 375.297656 
C 664.612287 367.132015 663.003834 359.045774 659.878978 351.501705 
C 656.754122 343.957636 652.173635 337.102451 646.399654 331.328471 
C 640.625674 325.55449 633.770489 320.974003 626.22642 317.849147 
C 618.682351 314.724291 610.59611 313.115838 602.430469 313.115838 
C 594.264827 313.115838 586.178586 314.724291 578.634517 317.849147 
C 571.090448 320.974003 564.235264 325.55449 558.461283 331.328471 
C 552.687303 337.102451 548.106815 343.957636 544.98196 351.501705 
C 541.857104 359.045774 540.248651 367.132015 540.248651 375.297656 
C 540.248651 383.463298 541.857104 391.549539 544.98196 399.093608 
C 548.106815 406.637677 552.687303 413.492861 558.461283 419.266842 
C 564.235264 425.040822 571.090448 429.62131 578.634517 432.746165 
C 586.178586 435.871021 594.264827 437.479474 602.430469 437.479474 
C 610.59611 437.479474 618.682351 435.871021 626.22642 432.746165 
C 633.770489 429.62131 640.625674 425.040822 646.399654 419.266842 
C 652.173635 413.492861 656.754122 406.637677 659.878978 399.093608 
C 663.003834 391.549539 664.612287 383.463298 664.612287 375.297656 
" clip-path="url(#p5aa3011d30)" style="fill: none; stroke: #b0b0b0; stroke-width: 0.1; stroke-linecap: square"/>
     </g>
     <g id="text_23">
      <!-- 38.0 -->
      <g transform="translate(663.053259 384.975038) scale(0.2 -0.2)">
       <use xlink:href="#DejaVuSans-33"/>
       <use xlink:href="#DejaVuSans-38" x="63.623047"/>
       <use xlink:href="#DejaVuSans-2e" x="127.246094"/>
       <use xlink:href="#DejaVuSans-30" x="159.033203"/>
      </g>
     </g>
    </g>
    <g id="ytick_27">
     <g id="line2d_44">
      <path d="M 726.794105 375.297656 
C 726.794105 358.966373 723.577198 342.793891 717.327487 327.705753 
C 711.077776 312.617615 701.9168 298.907247 690.368839 287.359286 
C 678.820878 275.811325 665.11051 266.650349 650.022372 260.400638 
C 634.934234 254.150927 618.761752 250.93402 602.430469 250.93402 
C 586.099186 250.93402 569.926704 254.150927 554.838566 260.400638 
C 539.750427 266.650349 526.040059 275.811325 514.492098 287.359286 
C 502.944137 298.907247 493.783162 312.617615 487.533451 327.705753 
C 481.283739 342.793891 478.066832 358.966373 478.066832 375.297656 
C 478.066832 391.628939 481.283739 407.801421 487.533451 422.889559 
C 493.783162 437.977698 502.944137 451.688066 514.492098 463.236027 
C 526.040059 474.783988 539.750427 483.944963 554.838566 490.194674 
C 569.926704 496.444386 586.099186 499.661293 602.430469 499.661293 
C 618.761752 499.661293 634.934234 496.444386 650.022372 490.194674 
C 665.11051 483.944963 678.820878 474.783988 690.368839 463.236027 
C 701.9168 451.688066 711.077776 437.977698 717.327487 422.889559 
C 723.577198 407.801421 726.794105 391.628939 726.794105 375.297656 
" clip-path="url(#p5aa3011d30)" style="fill: none; stroke: #b0b0b0; stroke-width: 0.1; stroke-linecap: square"/>
     </g>
    </g>
    <g id="ytick_28">
     <g id="line2d_45">
      <path d="M 788.975923 375.297656 
C 788.975923 350.800732 784.150563 326.542009 774.775996 303.909801 
C 765.401429 281.277594 751.659966 260.712042 734.338025 243.3901 
C 717.016083 226.068159 696.450531 212.326696 673.818324 202.952129 
C 651.186116 193.577562 626.927393 188.752202 602.430469 188.752202 
C 577.933544 188.752202 553.674821 193.577562 531.042614 202.952129 
C 508.410407 212.326696 487.844854 226.068159 470.522913 243.3901 
C 453.200971 260.712042 439.459509 281.277594 430.084941 303.909801 
C 420.710374 326.542009 415.885014 350.800732 415.885014 375.297656 
C 415.885014 399.794581 420.710374 424.053304 430.084941 446.685511 
C 439.459509 469.317718 453.200971 489.883271 470.522913 507.205212 
C 487.844854 524.527154 508.410407 538.268616 531.042614 547.643184 
C 553.674821 557.017751 577.933544 561.843111 602.430469 561.843111 
C 626.927393 561.843111 651.186116 557.017751 673.818324 547.643184 
C 696.450531 538.268616 717.016083 524.527154 734.338025 507.205212 
C 751.659966 489.883271 765.401429 469.317718 774.775996 446.685511 
C 784.150563 424.053304 788.975923 399.794581 788.975923 375.297656 
" clip-path="url(#p5aa3011d30)" style="fill: none; stroke: #b0b0b0; stroke-width: 0.1; stroke-linecap: square"/>
     </g>
    </g>
    <g id="ytick_29">
     <g id="line2d_46">
      <path d="M 851.157741 375.297656 
C 851.157741 342.63509 844.723928 310.290126 832.224505 280.11385 
C 819.725082 249.937573 801.403132 222.516837 778.30721 199.420915 
C 755.211288 176.324993 727.790552 158.003043 697.614275 145.50362 
C 667.437999 133.004197 635.093035 126.570384 602.430469 126.570384 
C 569.767903 126.570384 537.422939 133.004197 507.246662 145.50362 
C 477.070386 158.003043 449.64965 176.324993 426.553728 199.420915 
C 403.457805 222.516837 385.135855 249.937573 372.636432 280.11385 
C 360.137009 310.290126 353.703196 342.63509 353.703196 375.297656 
C 353.703196 407.960222 360.137009 440.305186 372.636432 470.481463 
C 385.135855 500.657739 403.457805 528.078475 426.553728 551.174397 
C 449.64965 574.27032 477.070386 592.59227 507.246662 605.091693 
C 537.422939 617.591116 569.767903 624.024929 602.430469 624.024929 
C 635.093035 624.024929 667.437999 617.591116 697.614275 605.091693 
C 727.790552 592.59227 755.211288 574.27032 778.30721 551.174397 
C 801.403132 528.078475 819.725082 500.657739 832.224505 470.481463 
C 844.723928 440.305186 851.157741 407.960222 851.157741 375.297656 
" clip-path="url(#p5aa3011d30)" style="fill: none; stroke: #b0b0b0; stroke-width: 0.1; stroke-linecap: square"/>
     </g>
    </g>
    <g id="ytick_30">
     <g id="line2d_47">
      <path d="M 913.33956 375.297656 
C 913.33956 334.469449 905.297293 294.038244 889.673014 256.317898 
C 874.048736 218.597553 851.146298 184.321632 822.276395 155.45173 
C 793.406493 126.581827 759.130572 103.679389 721.410227 88.055111 
C 683.689881 72.430832 643.258676 64.388565 602.430469 64.388565 
C 561.602261 64.388565 521.171056 72.430832 483.450711 88.055111 
C 445.730365 103.679389 411.454445 126.581827 382.584542 155.45173 
C 353.71464 184.321632 330.812202 218.597553 315.187923 256.317898 
C 299.563645 294.038244 291.521378 334.469449 291.521378 375.297656 
C 291.521378 416.125864 299.563645 456.557069 315.187923 494.277414 
C 330.812202 531.99776 353.71464 566.27368 382.584542 595.143583 
C 411.454445 624.013485 445.730365 646.915923 483.450711 662.540202 
C 521.171056 678.16448 561.602261 686.206747 602.430469 686.206747 
C 643.258676 686.206747 683.689881 678.16448 721.410227 662.540202 
C 759.130572 646.915923 793.406493 624.013485 822.276395 595.143583 
C 851.146298 566.27368 874.048736 531.99776 889.673014 494.277414 
C 905.297293 456.557069 913.33956 416.125864 913.33956 375.297656 
" clip-path="url(#p5aa3011d30)" style="fill: none; stroke: #b0b0b0; stroke-width: 0.1; stroke-linecap: square"/>
     </g>
     <g id="text_24">
      <!-- 28.0 -->
      <g transform="translate(905.54442 440.322063) scale(0.2 -0.2)">
       <use xlink:href="#DejaVuSans-32"/>
       <use xlink:href="#DejaVuSans-38" x="63.623047"/>
       <use xlink:href="#DejaVuSans-2e" x="127.246094"/>
       <use xlink:href="#DejaVuSans-30" x="159.033203"/>
      </g>
     </g>
    </g>
   </g>
  </g>
  <g id="axes_7">
   <g id="matplotlib.axis_8">
    <g id="ytick_31">
     <g id="line2d_48">
      <path d="M 664.612287 375.297656 
C 664.612287 367.132015 663.003834 359.045774 659.878978 351.501705 
C 656.754122 343.957636 652.173635 337.102451 646.399654 331.328471 
C 640.625674 325.55449 633.770489 320.974003 626.22642 317.849147 
C 618.682351 314.724291 610.59611 313.115838 602.430469 313.115838 
C 594.264827 313.115838 586.178586 314.724291 578.634517 317.849147 
C 571.090448 320.974003 564.235264 325.55449 558.461283 331.328471 
C 552.687303 337.102451 548.106815 343.957636 544.98196 351.501705 
C 541.857104 359.045774 540.248651 367.132015 540.248651 375.297656 
C 540.248651 383.463298 541.857104 391.549539 544.98196 399.093608 
C 548.106815 406.637677 552.687303 413.492861 558.461283 419.266842 
C 564.235264 425.040822 571.090448 429.62131 578.634517 432.746165 
C 586.178586 435.871021 594.264827 437.479474 602.430469 437.479474 
C 610.59611 437.479474 618.682351 435.871021 626.22642 432.746165 
C 633.770489 429.62131 640.625674 425.040822 646.399654 419.266842 
C 652.173635 413.492861 656.754122 406.637677 659.878978 399.093608 
C 663.003834 391.549539 664.612287 383.463298 664.612287 375.297656 
" clip-path="url(#p464f021de8)" style="fill: none; stroke: #b0b0b0; stroke-width: 0.1; stroke-linecap: square"/>
     </g>
     <g id="text_25">
      <!-- 75.0 -->
      <g transform="translate(651.046172 332.368552) scale(0.2 -0.2)">
       <use xlink:href="#DejaVuSans-37"/>
       <use xlink:href="#DejaVuSans-35" x="63.623047"/>
       <use xlink:href="#DejaVuSans-2e" x="127.246094"/>
       <use xlink:href="#DejaVuSans-30" x="159.033203"/>
      </g>
     </g>
    </g>
    <g id="ytick_32">
     <g id="line2d_49">
      <path d="M 726.794105 375.297656 
C 726.794105 358.966373 723.577198 342.793891 717.327487 327.705753 
C 711.077776 312.617615 701.9168 298.907247 690.368839 287.359286 
C 678.820878 275.811325 665.11051 266.650349 650.022372 260.400638 
C 634.934234 254.150927 618.761752 250.93402 602.430469 250.93402 
C 586.099186 250.93402 569.926704 254.150927 554.838566 260.400638 
C 539.750427 266.650349 526.040059 275.811325 514.492098 287.359286 
C 502.944137 298.907247 493.783162 312.617615 487.533451 327.705753 
C 481.283739 342.793891 478.066832 358.966373 478.066832 375.297656 
C 478.066832 391.628939 481.283739 407.801421 487.533451 422.889559 
C 493.783162 437.977698 502.944137 451.688066 514.492098 463.236027 
C 526.040059 474.783988 539.750427 483.944963 554.838566 490.194674 
C 569.926704 496.444386 586.099186 499.661293 602.430469 499.661293 
C 618.761752 499.661293 634.934234 496.444386 650.022372 490.194674 
C 665.11051 483.944963 678.820878 474.783988 690.368839 463.236027 
C 701.9168 451.688066 711.077776 437.977698 717.327487 422.889559 
C 723.577198 407.801421 726.794105 391.628939 726.794105 375.297656 
" clip-path="url(#p464f021de8)" style="fill: none; stroke: #b0b0b0; stroke-width: 0.1; stroke-linecap: square"/>
     </g>
    </g>
    <g id="ytick_33">
     <g id="line2d_50">
      <path d="M 788.975923 375.297656 
C 788.975923 350.800732 784.150563 326.542009 774.775996 303.909801 
C 765.401429 281.277594 751.659966 260.712042 734.338025 243.3901 
C 717.016083 226.068159 696.450531 212.326696 673.818324 202.952129 
C 651.186116 193.577562 626.927393 188.752202 602.430469 188.752202 
C 577.933544 188.752202 553.674821 193.577562 531.042614 202.952129 
C 508.410407 212.326696 487.844854 226.068159 470.522913 243.3901 
C 453.200971 260.712042 439.459509 281.277594 430.084941 303.909801 
C 420.710374 326.542009 415.885014 350.800732 415.885014 375.297656 
C 415.885014 399.794581 420.710374 424.053304 430.084941 446.685511 
C 439.459509 469.317718 453.200971 489.883271 470.522913 507.205212 
C 487.844854 524.527154 508.410407 538.268616 531.042614 547.643184 
C 553.674821 557.017751 577.933544 561.843111 602.430469 561.843111 
C 626.927393 561.843111 651.186116 557.017751 673.818324 547.643184 
C 696.450531 538.268616 717.016083 524.527154 734.338025 507.205212 
C 751.659966 489.883271 765.401429 469.317718 774.775996 446.685511 
C 784.150563 424.053304 788.975923 399.794581 788.975923 375.297656 
" clip-path="url(#p464f021de8)" style="fill: none; stroke: #b0b0b0; stroke-width: 0.1; stroke-linecap: square"/>
     </g>
    </g>
    <g id="ytick_34">
     <g id="line2d_51">
      <path d="M 851.157741 375.297656 
C 851.157741 342.63509 844.723928 310.290126 832.224505 280.11385 
C 819.725082 249.937573 801.403132 222.516837 778.30721 199.420915 
C 755.211288 176.324993 727.790552 158.003043 697.614275 145.50362 
C 667.437999 133.004197 635.093035 126.570384 602.430469 126.570384 
C 569.767903 126.570384 537.422939 133.004197 507.246662 145.50362 
C 477.070386 158.003043 449.64965 176.324993 426.553728 199.420915 
C 403.457805 222.516837 385.135855 249.937573 372.636432 280.11385 
C 360.137009 310.290126 353.703196 342.63509 353.703196 375.297656 
C 353.703196 407.960222 360.137009 440.305186 372.636432 470.481463 
C 385.135855 500.657739 403.457805 528.078475 426.553728 551.174397 
C 449.64965 574.27032 477.070386 592.59227 507.246662 605.091693 
C 537.422939 617.591116 569.767903 624.024929 602.430469 624.024929 
C 635.093035 624.024929 667.437999 617.591116 697.614275 605.091693 
C 727.790552 592.59227 755.211288 574.27032 778.30721 551.174397 
C 801.403132 528.078475 819.725082 500.657739 832.224505 470.481463 
C 844.723928 440.305186 851.157741 407.960222 851.157741 375.297656 
" clip-path="url(#p464f021de8)" style="fill: none; stroke: #b0b0b0; stroke-width: 0.1; stroke-linecap: square"/>
     </g>
    </g>
    <g id="ytick_35">
     <g id="line2d_52">
      <path d="M 913.33956 375.297656 
C 913.33956 334.469449 905.297293 294.038244 889.673014 256.317898 
C 874.048736 218.597553 851.146298 184.321632 822.276395 155.45173 
C 793.406493 126.581827 759.130572 103.679389 721.410227 88.055111 
C 683.689881 72.430832 643.258676 64.388565 602.430469 64.388565 
C 561.602261 64.388565 521.171056 72.430832 483.450711 88.055111 
C 445.730365 103.679389 411.454445 126.581827 382.584542 155.45173 
C 353.71464 184.321632 330.812202 218.597553 315.187923 256.317898 
C 299.563645 294.038244 291.521378 334.469449 291.521378 375.297656 
C 291.521378 416.125864 299.563645 456.557069 315.187923 494.277414 
C 330.812202 531.99776 353.71464 566.27368 382.584542 595.143583 
C 411.454445 624.013485 445.730365 646.915923 483.450711 662.540202 
C 521.171056 678.16448 561.602261 686.206747 602.430469 686.206747 
C 643.258676 686.206747 683.689881 678.16448 721.410227 662.540202 
C 759.130572 646.915923 793.406493 624.013485 822.276395 595.143583 
C 851.146298 566.27368 874.048736 531.99776 889.673014 494.277414 
C 905.297293 456.557069 913.33956 416.125864 913.33956 375.297656 
" clip-path="url(#p464f021de8)" style="fill: none; stroke: #b0b0b0; stroke-width: 0.1; stroke-linecap: square"/>
     </g>
     <g id="text_26">
      <!-- 30.0 -->
      <g transform="translate(845.508984 177.289634) scale(0.2 -0.2)">
       <use xlink:href="#DejaVuSans-33"/>
       <use xlink:href="#DejaVuSans-30" x="63.623047"/>
       <use xlink:href="#DejaVuSans-2e" x="127.246094"/>
       <use xlink:href="#DejaVuSans-30" x="159.033203"/>
      </g>
     </g>
    </g>
   </g>
  </g>
 </g>
 <defs>
  <clipPath id="pa99479e463">
   <path d="M 944.430469 375.297656 
C 944.430469 330.386628 935.583975 285.912302 918.397269 244.419922 
C 901.210562 202.927542 876.017881 165.22403 844.260988 133.467137 
C 812.504095 101.710244 774.800583 76.517563 733.308203 59.330856 
C 691.815823 42.14415 647.341497 33.297656 602.430469 33.297656 
C 557.51944 33.297656 513.045115 42.14415 471.552735 59.330856 
C 430.060355 76.517563 392.356842 101.710244 360.59995 133.467137 
C 328.843057 165.22403 303.650375 202.927542 286.463669 244.419922 
C 269.276962 285.912302 260.430469 330.386628 260.430469 375.297656 
C 260.430469 420.208685 269.276962 464.68301 286.463669 506.17539 
C 303.650375 547.66777 328.843057 585.371283 360.59995 617.128175 
C 392.356842 648.885068 430.060355 674.07775 471.552735 691.264456 
C 513.045115 708.451163 557.51944 717.297656 602.430469 717.297656 
C 647.341497 717.297656 691.815823 708.451163 733.308203 691.264456 
C 774.800583 674.07775 812.504095 648.885068 844.260988 617.128175 
C 876.017881 585.371283 901.210562 547.66777 918.397269 506.17539 
C 935.583975 464.68301 944.430469 420.208685 944.430469 375.297656 
M 602.430469 375.297656 
C 602.430469 375.297656 602.430469 375.297656 602.430469 375.297656 
C 602.430469 375.297656 602.430469 375.297656 602.430469 375.297656 
C 602.430469 375.297656 602.430469 375.297656 602.430469 375.297656 
C 602.430469 375.297656 602.430469 375.297656 602.430469 375.297656 
C 602.430469 375.297656 602.430469 375.297656 602.430469 375.297656 
C 602.430469 375.297656 602.430469 375.297656 602.430469 375.297656 
C 602.430469 375.297656 602.430469 375.297656 602.430469 375.297656 
C 602.430469 375.297656 602.430469 375.297656 602.430469 375.297656 
C 602.430469 375.297656 602.430469 375.297656 602.430469 375.297656 
C 602.430469 375.297656 602.430469 375.297656 602.430469 375.297656 
C 602.430469 375.297656 602.430469 375.297656 602.430469 375.297656 
C 602.430469 375.297656 602.430469 375.297656 602.430469 375.297656 
C 602.430469 375.297656 602.430469 375.297656 602.430469 375.297656 
C 602.430469 375.297656 602.430469 375.297656 602.430469 375.297656 
C 602.430469 375.297656 602.430469 375.297656 602.430469 375.297656 
C 602.430469 375.297656 602.430469 375.297656 602.430469 375.297656 
M 944.430469 375.297656 
z
"/>
  </clipPath>
  <clipPath id="p44e5582215">
   <path d="M 944.430469 375.297656 
C 944.430469 330.386628 935.583975 285.912302 918.397269 244.419922 
C 901.210562 202.927542 876.017881 165.22403 844.260988 133.467137 
C 812.504095 101.710244 774.800583 76.517563 733.308203 59.330856 
C 691.815823 42.14415 647.341497 33.297656 602.430469 33.297656 
C 557.51944 33.297656 513.045115 42.14415 471.552735 59.330856 
C 430.060355 76.517563 392.356842 101.710244 360.59995 133.467137 
C 328.843057 165.22403 303.650375 202.927542 286.463669 244.419922 
C 269.276962 285.912302 260.430469 330.386628 260.430469 375.297656 
C 260.430469 420.208685 269.276962 464.68301 286.463669 506.17539 
C 303.650375 547.66777 328.843057 585.371283 360.59995 617.128175 
C 392.356842 648.885068 430.060355 674.07775 471.552735 691.264456 
C 513.045115 708.451163 557.51944 717.297656 602.430469 717.297656 
C 647.341497 717.297656 691.815823 708.451163 733.308203 691.264456 
C 774.800583 674.07775 812.504095 648.885068 844.260988 617.128175 
C 876.017881 585.371283 901.210562 547.66777 918.397269 506.17539 
C 935.583975 464.68301 944.430469 420.208685 944.430469 375.297656 
M 602.430469 375.297656 
C 602.430469 375.297656 602.430469 375.297656 602.430469 375.297656 
C 602.430469 375.297656 602.430469 375.297656 602.430469 375.297656 
C 602.430469 375.297656 602.430469 375.297656 602.430469 375.297656 
C 602.430469 375.297656 602.430469 375.297656 602.430469 375.297656 
C 602.430469 375.297656 602.430469 375.297656 602.430469 375.297656 
C 602.430469 375.297656 602.430469 375.297656 602.430469 375.297656 
C 602.430469 375.297656 602.430469 375.297656 602.430469 375.297656 
C 602.430469 375.297656 602.430469 375.297656 602.430469 375.297656 
C 602.430469 375.297656 602.430469 375.297656 602.430469 375.297656 
C 602.430469 375.297656 602.430469 375.297656 602.430469 375.297656 
C 602.430469 375.297656 602.430469 375.297656 602.430469 375.297656 
C 602.430469 375.297656 602.430469 375.297656 602.430469 375.297656 
C 602.430469 375.297656 602.430469 375.297656 602.430469 375.297656 
C 602.430469 375.297656 602.430469 375.297656 602.430469 375.297656 
C 602.430469 375.297656 602.430469 375.297656 602.430469 375.297656 
C 602.430469 375.297656 602.430469 375.297656 602.430469 375.297656 
M 944.430469 375.297656 
z
"/>
  </clipPath>
  <clipPath id="p33569497e2">
   <path d="M 944.430469 375.297656 
C 944.430469 330.386628 935.583975 285.912302 918.397269 244.419922 
C 901.210562 202.927542 876.017881 165.22403 844.260988 133.467137 
C 812.504095 101.710244 774.800583 76.517563 733.308203 59.330856 
C 691.815823 42.14415 647.341497 33.297656 602.430469 33.297656 
C 557.51944 33.297656 513.045115 42.14415 471.552735 59.330856 
C 430.060355 76.517563 392.356842 101.710244 360.59995 133.467137 
C 328.843057 165.22403 303.650375 202.927542 286.463669 244.419922 
C 269.276962 285.912302 260.430469 330.386628 260.430469 375.297656 
C 260.430469 420.208685 269.276962 464.68301 286.463669 506.17539 
C 303.650375 547.66777 328.843057 585.371283 360.59995 617.128175 
C 392.356842 648.885068 430.060355 674.07775 471.552735 691.264456 
C 513.045115 708.451163 557.51944 717.297656 602.430469 717.297656 
C 647.341497 717.297656 691.815823 708.451163 733.308203 691.264456 
C 774.800583 674.07775 812.504095 648.885068 844.260988 617.128175 
C 876.017881 585.371283 901.210562 547.66777 918.397269 506.17539 
C 935.583975 464.68301 944.430469 420.208685 944.430469 375.297656 
M 602.430469 375.297656 
C 602.430469 375.297656 602.430469 375.297656 602.430469 375.297656 
C 602.430469 375.297656 602.430469 375.297656 602.430469 375.297656 
C 602.430469 375.297656 602.430469 375.297656 602.430469 375.297656 
C 602.430469 375.297656 602.430469 375.297656 602.430469 375.297656 
C 602.430469 375.297656 602.430469 375.297656 602.430469 375.297656 
C 602.430469 375.297656 602.430469 375.297656 602.430469 375.297656 
C 602.430469 375.297656 602.430469 375.297656 602.430469 375.297656 
C 602.430469 375.297656 602.430469 375.297656 602.430469 375.297656 
C 602.430469 375.297656 602.430469 375.297656 602.430469 375.297656 
C 602.430469 375.297656 602.430469 375.297656 602.430469 375.297656 
C 602.430469 375.297656 602.430469 375.297656 602.430469 375.297656 
C 602.430469 375.297656 602.430469 375.297656 602.430469 375.297656 
C 602.430469 375.297656 602.430469 375.297656 602.430469 375.297656 
C 602.430469 375.297656 602.430469 375.297656 602.430469 375.297656 
C 602.430469 375.297656 602.430469 375.297656 602.430469 375.297656 
C 602.430469 375.297656 602.430469 375.297656 602.430469 375.297656 
M 944.430469 375.297656 
z
"/>
  </clipPath>
  <clipPath id="p7245d2c6a2">
   <path d="M 944.430469 375.297656 
C 944.430469 330.386628 935.583975 285.912302 918.397269 244.419922 
C 901.210562 202.927542 876.017881 165.22403 844.260988 133.467137 
C 812.504095 101.710244 774.800583 76.517563 733.308203 59.330856 
C 691.815823 42.14415 647.341497 33.297656 602.430469 33.297656 
C 557.51944 33.297656 513.045115 42.14415 471.552735 59.330856 
C 430.060355 76.517563 392.356842 101.710244 360.59995 133.467137 
C 328.843057 165.22403 303.650375 202.927542 286.463669 244.419922 
C 269.276962 285.912302 260.430469 330.386628 260.430469 375.297656 
C 260.430469 420.208685 269.276962 464.68301 286.463669 506.17539 
C 303.650375 547.66777 328.843057 585.371283 360.59995 617.128175 
C 392.356842 648.885068 430.060355 674.07775 471.552735 691.264456 
C 513.045115 708.451163 557.51944 717.297656 602.430469 717.297656 
C 647.341497 717.297656 691.815823 708.451163 733.308203 691.264456 
C 774.800583 674.07775 812.504095 648.885068 844.260988 617.128175 
C 876.017881 585.371283 901.210562 547.66777 918.397269 506.17539 
C 935.583975 464.68301 944.430469 420.208685 944.430469 375.297656 
M 602.430469 375.297656 
C 602.430469 375.297656 602.430469 375.297656 602.430469 375.297656 
C 602.430469 375.297656 602.430469 375.297656 602.430469 375.297656 
C 602.430469 375.297656 602.430469 375.297656 602.430469 375.297656 
C 602.430469 375.297656 602.430469 375.297656 602.430469 375.297656 
C 602.430469 375.297656 602.430469 375.297656 602.430469 375.297656 
C 602.430469 375.297656 602.430469 375.297656 602.430469 375.297656 
C 602.430469 375.297656 602.430469 375.297656 602.430469 375.297656 
C 602.430469 375.297656 602.430469 375.297656 602.430469 375.297656 
C 602.430469 375.297656 602.430469 375.297656 602.430469 375.297656 
C 602.430469 375.297656 602.430469 375.297656 602.430469 375.297656 
C 602.430469 375.297656 602.430469 375.297656 602.430469 375.297656 
C 602.430469 375.297656 602.430469 375.297656 602.430469 375.297656 
C 602.430469 375.297656 602.430469 375.297656 602.430469 375.297656 
C 602.430469 375.297656 602.430469 375.297656 602.430469 375.297656 
C 602.430469 375.297656 602.430469 375.297656 602.430469 375.297656 
C 602.430469 375.297656 602.430469 375.297656 602.430469 375.297656 
M 944.430469 375.297656 
z
"/>
  </clipPath>
  <clipPath id="pf808a60376">
   <path d="M 944.430469 375.297656 
C 944.430469 330.386628 935.583975 285.912302 918.397269 244.419922 
C 901.210562 202.927542 876.017881 165.22403 844.260988 133.467137 
C 812.504095 101.710244 774.800583 76.517563 733.308203 59.330856 
C 691.815823 42.14415 647.341497 33.297656 602.430469 33.297656 
C 557.51944 33.297656 513.045115 42.14415 471.552735 59.330856 
C 430.060355 76.517563 392.356842 101.710244 360.59995 133.467137 
C 328.843057 165.22403 303.650375 202.927542 286.463669 244.419922 
C 269.276962 285.912302 260.430469 330.386628 260.430469 375.297656 
C 260.430469 420.208685 269.276962 464.68301 286.463669 506.17539 
C 303.650375 547.66777 328.843057 585.371283 360.59995 617.128175 
C 392.356842 648.885068 430.060355 674.07775 471.552735 691.264456 
C 513.045115 708.451163 557.51944 717.297656 602.430469 717.297656 
C 647.341497 717.297656 691.815823 708.451163 733.308203 691.264456 
C 774.800583 674.07775 812.504095 648.885068 844.260988 617.128175 
C 876.017881 585.371283 901.210562 547.66777 918.397269 506.17539 
C 935.583975 464.68301 944.430469 420.208685 944.430469 375.297656 
M 602.430469 375.297656 
C 602.430469 375.297656 602.430469 375.297656 602.430469 375.297656 
C 602.430469 375.297656 602.430469 375.297656 602.430469 375.297656 
C 602.430469 375.297656 602.430469 375.297656 602.430469 375.297656 
C 602.430469 375.297656 602.430469 375.297656 602.430469 375.297656 
C 602.430469 375.297656 602.430469 375.297656 602.430469 375.297656 
C 602.430469 375.297656 602.430469 375.297656 602.430469 375.297656 
C 602.430469 375.297656 602.430469 375.297656 602.430469 375.297656 
C 602.430469 375.297656 602.430469 375.297656 602.430469 375.297656 
C 602.430469 375.297656 602.430469 375.297656 602.430469 375.297656 
C 602.430469 375.297656 602.430469 375.297656 602.430469 375.297656 
C 602.430469 375.297656 602.430469 375.297656 602.430469 375.297656 
C 602.430469 375.297656 602.430469 375.297656 602.430469 375.297656 
C 602.430469 375.297656 602.430469 375.297656 602.430469 375.297656 
C 602.430469 375.297656 602.430469 375.297656 602.430469 375.297656 
C 602.430469 375.297656 602.430469 375.297656 602.430469 375.297656 
C 602.430469 375.297656 602.430469 375.297656 602.430469 375.297656 
M 944.430469 375.297656 
z
"/>
  </clipPath>
  <clipPath id="p5aa3011d30">
   <path d="M 944.430469 375.297656 
C 944.430469 330.386628 935.583975 285.912302 918.397269 244.419922 
C 901.210562 202.927542 876.017881 165.22403 844.260988 133.467137 
C 812.504095 101.710244 774.800583 76.517563 733.308203 59.330856 
C 691.815823 42.14415 647.341497 33.297656 602.430469 33.297656 
C 557.51944 33.297656 513.045115 42.14415 471.552735 59.330856 
C 430.060355 76.517563 392.356842 101.710244 360.59995 133.467137 
C 328.843057 165.22403 303.650375 202.927542 286.463669 244.419922 
C 269.276962 285.912302 260.430469 330.386628 260.430469 375.297656 
C 260.430469 420.208685 269.276962 464.68301 286.463669 506.17539 
C 303.650375 547.66777 328.843057 585.371283 360.59995 617.128175 
C 392.356842 648.885068 430.060355 674.07775 471.552735 691.264456 
C 513.045115 708.451163 557.51944 717.297656 602.430469 717.297656 
C 647.341497 717.297656 691.815823 708.451163 733.308203 691.264456 
C 774.800583 674.07775 812.504095 648.885068 844.260988 617.128175 
C 876.017881 585.371283 901.210562 547.66777 918.397269 506.17539 
C 935.583975 464.68301 944.430469 420.208685 944.430469 375.297656 
M 602.430469 375.297656 
C 602.430469 375.297656 602.430469 375.297656 602.430469 375.297656 
C 602.430469 375.297656 602.430469 375.297656 602.430469 375.297656 
C 602.430469 375.297656 602.430469 375.297656 602.430469 375.297656 
C 602.430469 375.297656 602.430469 375.297656 602.430469 375.297656 
C 602.430469 375.297656 602.430469 375.297656 602.430469 375.297656 
C 602.430469 375.297656 602.430469 375.297656 602.430469 375.297656 
C 602.430469 375.297656 602.430469 375.297656 602.430469 375.297656 
C 602.430469 375.297656 602.430469 375.297656 602.430469 375.297656 
C 602.430469 375.297656 602.430469 375.297656 602.430469 375.297656 
C 602.430469 375.297656 602.430469 375.297656 602.430469 375.297656 
C 602.430469 375.297656 602.430469 375.297656 602.430469 375.297656 
C 602.430469 375.297656 602.430469 375.297656 602.430469 375.297656 
C 602.430469 375.297656 602.430469 375.297656 602.430469 375.297656 
C 602.430469 375.297656 602.430469 375.297656 602.430469 375.297656 
C 602.430469 375.297656 602.430469 375.297656 602.430469 375.297656 
C 602.430469 375.297656 602.430469 375.297656 602.430469 375.297656 
M 944.430469 375.297656 
z
"/>
  </clipPath>
  <clipPath id="p464f021de8">
   <path d="M 944.430469 375.297656 
C 944.430469 330.386628 935.583975 285.912302 918.397269 244.419922 
C 901.210562 202.927542 876.017881 165.22403 844.260988 133.467137 
C 812.504095 101.710244 774.800583 76.517563 733.308203 59.330856 
C 691.815823 42.14415 647.341497 33.297656 602.430469 33.297656 
C 557.51944 33.297656 513.045115 42.14415 471.552735 59.330856 
C 430.060355 76.517563 392.356842 101.710244 360.59995 133.467137 
C 328.843057 165.22403 303.650375 202.927542 286.463669 244.419922 
C 269.276962 285.912302 260.430469 330.386628 260.430469 375.297656 
C 260.430469 420.208685 269.276962 464.68301 286.463669 506.17539 
C 303.650375 547.66777 328.843057 585.371283 360.59995 617.128175 
C 392.356842 648.885068 430.060355 674.07775 471.552735 691.264456 
C 513.045115 708.451163 557.51944 717.297656 602.430469 717.297656 
C 647.341497 717.297656 691.815823 708.451163 733.308203 691.264456 
C 774.800583 674.07775 812.504095 648.885068 844.260988 617.128175 
C 876.017881 585.371283 901.210562 547.66777 918.397269 506.17539 
C 935.583975 464.68301 944.430469 420.208685 944.430469 375.297656 
M 602.430469 375.297656 
C 602.430469 375.297656 602.430469 375.297656 602.430469 375.297656 
C 602.430469 375.297656 602.430469 375.297656 602.430469 375.297656 
C 602.430469 375.297656 602.430469 375.297656 602.430469 375.297656 
C 602.430469 375.297656 602.430469 375.297656 602.430469 375.297656 
C 602.430469 375.297656 602.430469 375.297656 602.430469 375.297656 
C 602.430469 375.297656 602.430469 375.297656 602.430469 375.297656 
C 602.430469 375.297656 602.430469 375.297656 602.430469 375.297656 
C 602.430469 375.297656 602.430469 375.297656 602.430469 375.297656 
C 602.430469 375.297656 602.430469 375.297656 602.430469 375.297656 
C 602.430469 375.297656 602.430469 375.297656 602.430469 375.297656 
C 602.430469 375.297656 602.430469 375.297656 602.430469 375.297656 
C 602.430469 375.297656 602.430469 375.297656 602.430469 375.297656 
C 602.430469 375.297656 602.430469 375.297656 602.430469 375.297656 
C 602.430469 375.297656 602.430469 375.297656 602.430469 375.297656 
C 602.430469 375.297656 602.430469 375.297656 602.430469 375.297656 
C 602.430469 375.297656 602.430469 375.297656 602.430469 375.297656 
M 944.430469 375.297656 
z
"/>
  </clipPath>
 </defs>
</svg>
