<?xml version="1.0" encoding="utf-8" standalone="no"?>
<!DOCTYPE svg PUBLIC "-//W3C//DTD SVG 1.1//EN"
  "http://www.w3.org/Graphics/SVG/1.1/DTD/svg11.dtd">
<svg xmlns:xlink="http://www.w3.org/1999/xlink" width="857.7625pt" height="708.571662pt" viewBox="0 0 857.7625 708.571662" xmlns="http://www.w3.org/2000/svg" version="1.1">
 <metadata>
  <rdf:RDF xmlns:dc="http://purl.org/dc/elements/1.1/" xmlns:cc="http://creativecommons.org/ns#" xmlns:rdf="http://www.w3.org/1999/02/22-rdf-syntax-ns#">
   <cc:Work>
    <dc:type rdf:resource="http://purl.org/dc/dcmitype/StillImage"/>
    <dc:date>2024-10-23T17:23:34.844806</dc:date>
    <dc:format>image/svg+xml</dc:format>
    <dc:creator>
     <cc:Agent>
      <dc:title>Matplotlib v3.8.0, https://matplotlib.org/</dc:title>
     </cc:Agent>
    </dc:creator>
   </cc:Work>
  </rdf:RDF>
 </metadata>
 <defs>
  <style type="text/css">*{stroke-linejoin: round; stroke-linecap: butt}</style>
 </defs>
 <g id="figure_1">
  <g id="patch_1">
   <path d="M 0 708.571662 
L 857.7625 708.571662 
L 857.7625 0 
L 0 0 
L 0 708.571662 
z
" style="fill: none"/>
  </g>
  <g id="axes_1">
   <g id="patch_2">
    <path d="M 69.3625 562.345987 
L 850.5625 562.345987 
L 850.5625 7.945987 
L 69.3625 7.945987 
L 69.3625 562.345987 
z
" style="fill: none"/>
   </g>
   <g id="matplotlib.axis_1">
    <g id="xtick_1">
     <g id="text_1">
      <!-- MSA -->
      <g style="fill: #262626" transform="translate(104.788986 611.211128) rotate(-45) scale(0.2 -0.2)">
       <defs>
        <path id="DejaVuSans-4d" d="M 628 4666 
L 1569 4666 
L 2759 1491 
L 3956 4666 
L 4897 4666 
L 4897 0 
L 4281 0 
L 4281 4097 
L 3078 897 
L 2444 897 
L 1241 4097 
L 1241 0 
L 628 0 
L 628 4666 
z
" transform="scale(0.015625)"/>
        <path id="DejaVuSans-53" d="M 3425 4513 
L 3425 3897 
Q 3066 4069 2747 4153 
Q 2428 4238 2131 4238 
Q 1616 4238 1336 4038 
Q 1056 3838 1056 3469 
Q 1056 3159 1242 3001 
Q 1428 2844 1947 2747 
L 2328 2669 
Q 3034 2534 3370 2195 
Q 3706 1856 3706 1288 
Q 3706 609 3251 259 
Q 2797 -91 1919 -91 
Q 1588 -91 1214 -16 
Q 841 59 441 206 
L 441 856 
Q 825 641 1194 531 
Q 1563 422 1919 422 
Q 2459 422 2753 634 
Q 3047 847 3047 1241 
Q 3047 1584 2836 1778 
Q 2625 1972 2144 2069 
L 1759 2144 
Q 1053 2284 737 2584 
Q 422 2884 422 3419 
Q 422 4038 858 4394 
Q 1294 4750 2059 4750 
Q 2388 4750 2728 4690 
Q 3069 4631 3425 4513 
z
" transform="scale(0.015625)"/>
        <path id="DejaVuSans-41" d="M 2188 4044 
L 1331 1722 
L 3047 1722 
L 2188 4044 
z
M 1831 4666 
L 2547 4666 
L 4325 0 
L 3669 0 
L 3244 1197 
L 1141 1197 
L 716 0 
L 50 0 
L 1831 4666 
z
" transform="scale(0.015625)"/>
       </defs>
       <use xlink:href="#DejaVuSans-4d"/>
       <use xlink:href="#DejaVuSans-53" x="86.279297"/>
       <use xlink:href="#DejaVuSans-41" x="151.630859"/>
      </g>
     </g>
    </g>
    <g id="xtick_2">
     <g id="text_2">
      <!-- Template -->
      <g style="fill: #262626" transform="translate(182.97819 644.621923) rotate(-45) scale(0.2 -0.2)">
       <defs>
        <path id="DejaVuSans-54" d="M -19 4666 
L 3928 4666 
L 3928 4134 
L 2272 4134 
L 2272 0 
L 1638 0 
L 1638 4134 
L -19 4134 
L -19 4666 
z
" transform="scale(0.015625)"/>
        <path id="DejaVuSans-65" d="M 3597 1894 
L 3597 1613 
L 953 1613 
Q 991 1019 1311 708 
Q 1631 397 2203 397 
Q 2534 397 2845 478 
Q 3156 559 3463 722 
L 3463 178 
Q 3153 47 2828 -22 
Q 2503 -91 2169 -91 
Q 1331 -91 842 396 
Q 353 884 353 1716 
Q 353 2575 817 3079 
Q 1281 3584 2069 3584 
Q 2775 3584 3186 3129 
Q 3597 2675 3597 1894 
z
M 3022 2063 
Q 3016 2534 2758 2815 
Q 2500 3097 2075 3097 
Q 1594 3097 1305 2825 
Q 1016 2553 972 2059 
L 3022 2063 
z
" transform="scale(0.015625)"/>
        <path id="DejaVuSans-6d" d="M 3328 2828 
Q 3544 3216 3844 3400 
Q 4144 3584 4550 3584 
Q 5097 3584 5394 3201 
Q 5691 2819 5691 2113 
L 5691 0 
L 5113 0 
L 5113 2094 
Q 5113 2597 4934 2840 
Q 4756 3084 4391 3084 
Q 3944 3084 3684 2787 
Q 3425 2491 3425 1978 
L 3425 0 
L 2847 0 
L 2847 2094 
Q 2847 2600 2669 2842 
Q 2491 3084 2119 3084 
Q 1678 3084 1418 2786 
Q 1159 2488 1159 1978 
L 1159 0 
L 581 0 
L 581 3500 
L 1159 3500 
L 1159 2956 
Q 1356 3278 1631 3431 
Q 1906 3584 2284 3584 
Q 2666 3584 2933 3390 
Q 3200 3197 3328 2828 
z
" transform="scale(0.015625)"/>
        <path id="DejaVuSans-70" d="M 1159 525 
L 1159 -1331 
L 581 -1331 
L 581 3500 
L 1159 3500 
L 1159 2969 
Q 1341 3281 1617 3432 
Q 1894 3584 2278 3584 
Q 2916 3584 3314 3078 
Q 3713 2572 3713 1747 
Q 3713 922 3314 415 
Q 2916 -91 2278 -91 
Q 1894 -91 1617 61 
Q 1341 213 1159 525 
z
M 3116 1747 
Q 3116 2381 2855 2742 
Q 2594 3103 2138 3103 
Q 1681 3103 1420 2742 
Q 1159 2381 1159 1747 
Q 1159 1113 1420 752 
Q 1681 391 2138 391 
Q 2594 391 2855 752 
Q 3116 1113 3116 1747 
z
" transform="scale(0.015625)"/>
        <path id="DejaVuSans-6c" d="M 603 4863 
L 1178 4863 
L 1178 0 
L 603 0 
L 603 4863 
z
" transform="scale(0.015625)"/>
        <path id="DejaVuSans-61" d="M 2194 1759 
Q 1497 1759 1228 1600 
Q 959 1441 959 1056 
Q 959 750 1161 570 
Q 1363 391 1709 391 
Q 2188 391 2477 730 
Q 2766 1069 2766 1631 
L 2766 1759 
L 2194 1759 
z
M 3341 1997 
L 3341 0 
L 2766 0 
L 2766 531 
Q 2569 213 2275 61 
Q 1981 -91 1556 -91 
Q 1019 -91 701 211 
Q 384 513 384 1019 
Q 384 1609 779 1909 
Q 1175 2209 1959 2209 
L 2766 2209 
L 2766 2266 
Q 2766 2663 2505 2880 
Q 2244 3097 1772 3097 
Q 1472 3097 1187 3025 
Q 903 2953 641 2809 
L 641 3341 
Q 956 3463 1253 3523 
Q 1550 3584 1831 3584 
Q 2591 3584 2966 3190 
Q 3341 2797 3341 1997 
z
" transform="scale(0.015625)"/>
        <path id="DejaVuSans-74" d="M 1172 4494 
L 1172 3500 
L 2356 3500 
L 2356 3053 
L 1172 3053 
L 1172 1153 
Q 1172 725 1289 603 
Q 1406 481 1766 481 
L 2356 481 
L 2356 0 
L 1766 0 
Q 1100 0 847 248 
Q 594 497 594 1153 
L 594 3053 
L 172 3053 
L 172 3500 
L 594 3500 
L 594 4494 
L 1172 4494 
z
" transform="scale(0.015625)"/>
       </defs>
       <use xlink:href="#DejaVuSans-54"/>
       <use xlink:href="#DejaVuSans-65" x="44.083984"/>
       <use xlink:href="#DejaVuSans-6d" x="105.607422"/>
       <use xlink:href="#DejaVuSans-70" x="203.019531"/>
       <use xlink:href="#DejaVuSans-6c" x="266.496094"/>
       <use xlink:href="#DejaVuSans-61" x="294.279297"/>
       <use xlink:href="#DejaVuSans-74" x="355.558594"/>
       <use xlink:href="#DejaVuSans-65" x="394.767578"/>
      </g>
     </g>
    </g>
    <g id="xtick_3">
     <g id="text_3">
      <!-- Backbone -->
      <g style="fill: #262626" transform="translate(289.478183 649.721931) rotate(-45) scale(0.2 -0.2)">
       <defs>
        <path id="DejaVuSans-42" d="M 1259 2228 
L 1259 519 
L 2272 519 
Q 2781 519 3026 730 
Q 3272 941 3272 1375 
Q 3272 1813 3026 2020 
Q 2781 2228 2272 2228 
L 1259 2228 
z
M 1259 4147 
L 1259 2741 
L 2194 2741 
Q 2656 2741 2882 2914 
Q 3109 3088 3109 3444 
Q 3109 3797 2882 3972 
Q 2656 4147 2194 4147 
L 1259 4147 
z
M 628 4666 
L 2241 4666 
Q 2963 4666 3353 4366 
Q 3744 4066 3744 3513 
Q 3744 3084 3544 2831 
Q 3344 2578 2956 2516 
Q 3422 2416 3680 2098 
Q 3938 1781 3938 1306 
Q 3938 681 3513 340 
Q 3088 0 2303 0 
L 628 0 
L 628 4666 
z
" transform="scale(0.015625)"/>
        <path id="DejaVuSans-63" d="M 3122 3366 
L 3122 2828 
Q 2878 2963 2633 3030 
Q 2388 3097 2138 3097 
Q 1578 3097 1268 2742 
Q 959 2388 959 1747 
Q 959 1106 1268 751 
Q 1578 397 2138 397 
Q 2388 397 2633 464 
Q 2878 531 3122 666 
L 3122 134 
Q 2881 22 2623 -34 
Q 2366 -91 2075 -91 
Q 1284 -91 818 406 
Q 353 903 353 1747 
Q 353 2603 823 3093 
Q 1294 3584 2113 3584 
Q 2378 3584 2631 3529 
Q 2884 3475 3122 3366 
z
" transform="scale(0.015625)"/>
        <path id="DejaVuSans-6b" d="M 581 4863 
L 1159 4863 
L 1159 1991 
L 2875 3500 
L 3609 3500 
L 1753 1863 
L 3688 0 
L 2938 0 
L 1159 1709 
L 1159 0 
L 581 0 
L 581 4863 
z
" transform="scale(0.015625)"/>
        <path id="DejaVuSans-62" d="M 3116 1747 
Q 3116 2381 2855 2742 
Q 2594 3103 2138 3103 
Q 1681 3103 1420 2742 
Q 1159 2381 1159 1747 
Q 1159 1113 1420 752 
Q 1681 391 2138 391 
Q 2594 391 2855 752 
Q 3116 1113 3116 1747 
z
M 1159 2969 
Q 1341 3281 1617 3432 
Q 1894 3584 2278 3584 
Q 2916 3584 3314 3078 
Q 3713 2572 3713 1747 
Q 3713 922 3314 415 
Q 2916 -91 2278 -91 
Q 1894 -91 1617 61 
Q 1341 213 1159 525 
L 1159 0 
L 581 0 
L 581 4863 
L 1159 4863 
L 1159 2969 
z
" transform="scale(0.015625)"/>
        <path id="DejaVuSans-6f" d="M 1959 3097 
Q 1497 3097 1228 2736 
Q 959 2375 959 1747 
Q 959 1119 1226 758 
Q 1494 397 1959 397 
Q 2419 397 2687 759 
Q 2956 1122 2956 1747 
Q 2956 2369 2687 2733 
Q 2419 3097 1959 3097 
z
M 1959 3584 
Q 2709 3584 3137 3096 
Q 3566 2609 3566 1747 
Q 3566 888 3137 398 
Q 2709 -91 1959 -91 
Q 1206 -91 779 398 
Q 353 888 353 1747 
Q 353 2609 779 3096 
Q 1206 3584 1959 3584 
z
" transform="scale(0.015625)"/>
        <path id="DejaVuSans-6e" d="M 3513 2113 
L 3513 0 
L 2938 0 
L 2938 2094 
Q 2938 2591 2744 2837 
Q 2550 3084 2163 3084 
Q 1697 3084 1428 2787 
Q 1159 2491 1159 1978 
L 1159 0 
L 581 0 
L 581 3500 
L 1159 3500 
L 1159 2956 
Q 1366 3272 1645 3428 
Q 1925 3584 2291 3584 
Q 2894 3584 3203 3211 
Q 3513 2838 3513 2113 
z
" transform="scale(0.015625)"/>
       </defs>
       <use xlink:href="#DejaVuSans-42"/>
       <use xlink:href="#DejaVuSans-61" x="68.603516"/>
       <use xlink:href="#DejaVuSans-63" x="129.882812"/>
       <use xlink:href="#DejaVuSans-6b" x="184.863281"/>
       <use xlink:href="#DejaVuSans-62" x="242.773438"/>
       <use xlink:href="#DejaVuSans-6f" x="306.25"/>
       <use xlink:href="#DejaVuSans-6e" x="367.431641"/>
       <use xlink:href="#DejaVuSans-65" x="430.810547"/>
      </g>
     </g>
    </g>
    <g id="xtick_4">
     <g id="text_4">
      <!-- Heuristic C-$\beta$ -->
      <g style="fill: #262626" transform="translate(379.63517 671.452206) rotate(-45) scale(0.2 -0.2)">
       <defs>
        <path id="DejaVuSans-48" d="M 628 4666 
L 1259 4666 
L 1259 2753 
L 3553 2753 
L 3553 4666 
L 4184 4666 
L 4184 0 
L 3553 0 
L 3553 2222 
L 1259 2222 
L 1259 0 
L 628 0 
L 628 4666 
z
" transform="scale(0.015625)"/>
        <path id="DejaVuSans-75" d="M 544 1381 
L 544 3500 
L 1119 3500 
L 1119 1403 
Q 1119 906 1312 657 
Q 1506 409 1894 409 
Q 2359 409 2629 706 
Q 2900 1003 2900 1516 
L 2900 3500 
L 3475 3500 
L 3475 0 
L 2900 0 
L 2900 538 
Q 2691 219 2414 64 
Q 2138 -91 1772 -91 
Q 1169 -91 856 284 
Q 544 659 544 1381 
z
M 1991 3584 
L 1991 3584 
z
" transform="scale(0.015625)"/>
        <path id="DejaVuSans-72" d="M 2631 2963 
Q 2534 3019 2420 3045 
Q 2306 3072 2169 3072 
Q 1681 3072 1420 2755 
Q 1159 2438 1159 1844 
L 1159 0 
L 581 0 
L 581 3500 
L 1159 3500 
L 1159 2956 
Q 1341 3275 1631 3429 
Q 1922 3584 2338 3584 
Q 2397 3584 2469 3576 
Q 2541 3569 2628 3553 
L 2631 2963 
z
" transform="scale(0.015625)"/>
        <path id="DejaVuSans-69" d="M 603 3500 
L 1178 3500 
L 1178 0 
L 603 0 
L 603 3500 
z
M 603 4863 
L 1178 4863 
L 1178 4134 
L 603 4134 
L 603 4863 
z
" transform="scale(0.015625)"/>
        <path id="DejaVuSans-73" d="M 2834 3397 
L 2834 2853 
Q 2591 2978 2328 3040 
Q 2066 3103 1784 3103 
Q 1356 3103 1142 2972 
Q 928 2841 928 2578 
Q 928 2378 1081 2264 
Q 1234 2150 1697 2047 
L 1894 2003 
Q 2506 1872 2764 1633 
Q 3022 1394 3022 966 
Q 3022 478 2636 193 
Q 2250 -91 1575 -91 
Q 1294 -91 989 -36 
Q 684 19 347 128 
L 347 722 
Q 666 556 975 473 
Q 1284 391 1588 391 
Q 1994 391 2212 530 
Q 2431 669 2431 922 
Q 2431 1156 2273 1281 
Q 2116 1406 1581 1522 
L 1381 1569 
Q 847 1681 609 1914 
Q 372 2147 372 2553 
Q 372 3047 722 3315 
Q 1072 3584 1716 3584 
Q 2034 3584 2315 3537 
Q 2597 3491 2834 3397 
z
" transform="scale(0.015625)"/>
        <path id="DejaVuSans-20" transform="scale(0.015625)"/>
        <path id="DejaVuSans-43" d="M 4122 4306 
L 4122 3641 
Q 3803 3938 3442 4084 
Q 3081 4231 2675 4231 
Q 1875 4231 1450 3742 
Q 1025 3253 1025 2328 
Q 1025 1406 1450 917 
Q 1875 428 2675 428 
Q 3081 428 3442 575 
Q 3803 722 4122 1019 
L 4122 359 
Q 3791 134 3420 21 
Q 3050 -91 2638 -91 
Q 1578 -91 968 557 
Q 359 1206 359 2328 
Q 359 3453 968 4101 
Q 1578 4750 2638 4750 
Q 3056 4750 3426 4639 
Q 3797 4528 4122 4306 
z
" transform="scale(0.015625)"/>
        <path id="DejaVuSans-2d" d="M 313 2009 
L 1997 2009 
L 1997 1497 
L 313 1497 
L 313 2009 
z
" transform="scale(0.015625)"/>
        <path id="DejaVuSans-Oblique-3b2" d="M 872 216 
L 572 -1331 
L -6 -1331 
L 928 3478 
Q 1206 4903 2538 4903 
Q 3888 4903 3659 3700 
Q 3503 2844 2894 2531 
Q 3713 2250 3553 1416 
Q 3272 -69 1759 -66 
Q 1097 -63 872 216 
z
M 1019 966 
Q 1259 422 1875 425 
Q 2775 425 2966 1406 
Q 3138 2288 1675 2219 
L 1778 2750 
Q 2909 2731 3106 3750 
Q 3241 4438 2509 4434 
Q 1691 4434 1503 3459 
L 1019 966 
z
" transform="scale(0.015625)"/>
       </defs>
       <use xlink:href="#DejaVuSans-48" transform="translate(0 0.390625)"/>
       <use xlink:href="#DejaVuSans-65" transform="translate(75.195312 0.390625)"/>
       <use xlink:href="#DejaVuSans-75" transform="translate(136.71875 0.390625)"/>
       <use xlink:href="#DejaVuSans-72" transform="translate(200.097656 0.390625)"/>
       <use xlink:href="#DejaVuSans-69" transform="translate(241.210938 0.390625)"/>
       <use xlink:href="#DejaVuSans-73" transform="translate(268.994141 0.390625)"/>
       <use xlink:href="#DejaVuSans-74" transform="translate(321.09375 0.390625)"/>
       <use xlink:href="#DejaVuSans-69" transform="translate(360.302734 0.390625)"/>
       <use xlink:href="#DejaVuSans-63" transform="translate(388.085938 0.390625)"/>
       <use xlink:href="#DejaVuSans-20" transform="translate(443.066406 0.390625)"/>
       <use xlink:href="#DejaVuSans-43" transform="translate(474.853516 0.390625)"/>
       <use xlink:href="#DejaVuSans-2d" transform="translate(544.677734 0.390625)"/>
       <use xlink:href="#DejaVuSans-Oblique-3b2" transform="translate(580.761719 0.390625)"/>
      </g>
     </g>
    </g>
    <g id="xtick_5">
     <g id="text_5">
      <!-- Template C-$\beta$ -->
      <g style="fill: #262626" transform="translate(486.992529 675.694847) rotate(-45) scale(0.2 -0.2)">
       <use xlink:href="#DejaVuSans-54" transform="translate(0 0.390625)"/>
       <use xlink:href="#DejaVuSans-65" transform="translate(61.083984 0.390625)"/>
       <use xlink:href="#DejaVuSans-6d" transform="translate(122.607422 0.390625)"/>
       <use xlink:href="#DejaVuSans-70" transform="translate(220.019531 0.390625)"/>
       <use xlink:href="#DejaVuSans-6c" transform="translate(283.496094 0.390625)"/>
       <use xlink:href="#DejaVuSans-61" transform="translate(311.279297 0.390625)"/>
       <use xlink:href="#DejaVuSans-74" transform="translate(372.558594 0.390625)"/>
       <use xlink:href="#DejaVuSans-65" transform="translate(411.767578 0.390625)"/>
       <use xlink:href="#DejaVuSans-20" transform="translate(473.291016 0.390625)"/>
       <use xlink:href="#DejaVuSans-43" transform="translate(505.078125 0.390625)"/>
       <use xlink:href="#DejaVuSans-2d" transform="translate(574.902344 0.390625)"/>
       <use xlink:href="#DejaVuSans-Oblique-3b2" transform="translate(610.986328 0.390625)"/>
      </g>
     </g>
    </g>
    <g id="xtick_6">
     <g id="text_6">
      <!-- AttnPacker -->
      <g style="fill: #262626" transform="translate(617.905383 656.094731) rotate(-45) scale(0.2 -0.2)">
       <defs>
        <path id="DejaVuSans-50" d="M 1259 4147 
L 1259 2394 
L 2053 2394 
Q 2494 2394 2734 2622 
Q 2975 2850 2975 3272 
Q 2975 3691 2734 3919 
Q 2494 4147 2053 4147 
L 1259 4147 
z
M 628 4666 
L 2053 4666 
Q 2838 4666 3239 4311 
Q 3641 3956 3641 3272 
Q 3641 2581 3239 2228 
Q 2838 1875 2053 1875 
L 1259 1875 
L 1259 0 
L 628 0 
L 628 4666 
z
" transform="scale(0.015625)"/>
       </defs>
       <use xlink:href="#DejaVuSans-41"/>
       <use xlink:href="#DejaVuSans-74" x="66.658203"/>
       <use xlink:href="#DejaVuSans-74" x="105.867188"/>
       <use xlink:href="#DejaVuSans-6e" x="145.076172"/>
       <use xlink:href="#DejaVuSans-50" x="208.455078"/>
       <use xlink:href="#DejaVuSans-61" x="264.257812"/>
       <use xlink:href="#DejaVuSans-63" x="325.537109"/>
       <use xlink:href="#DejaVuSans-6b" x="380.517578"/>
       <use xlink:href="#DejaVuSans-65" x="434.802734"/>
       <use xlink:href="#DejaVuSans-72" x="496.326172"/>
      </g>
     </g>
    </g>
    <g id="xtick_7">
     <g id="text_7">
      <!-- AttnPacker (AF2) -->
      <g style="fill: #262626" transform="translate(687.169574 698.43054) rotate(-45) scale(0.2 -0.2)">
       <defs>
        <path id="DejaVuSans-28" d="M 1984 4856 
Q 1566 4138 1362 3434 
Q 1159 2731 1159 2009 
Q 1159 1288 1364 580 
Q 1569 -128 1984 -844 
L 1484 -844 
Q 1016 -109 783 600 
Q 550 1309 550 2009 
Q 550 2706 781 3412 
Q 1013 4119 1484 4856 
L 1984 4856 
z
" transform="scale(0.015625)"/>
        <path id="DejaVuSans-46" d="M 628 4666 
L 3309 4666 
L 3309 4134 
L 1259 4134 
L 1259 2759 
L 3109 2759 
L 3109 2228 
L 1259 2228 
L 1259 0 
L 628 0 
L 628 4666 
z
" transform="scale(0.015625)"/>
        <path id="DejaVuSans-32" d="M 1228 531 
L 3431 531 
L 3431 0 
L 469 0 
L 469 531 
Q 828 903 1448 1529 
Q 2069 2156 2228 2338 
Q 2531 2678 2651 2914 
Q 2772 3150 2772 3378 
Q 2772 3750 2511 3984 
Q 2250 4219 1831 4219 
Q 1534 4219 1204 4116 
Q 875 4013 500 3803 
L 500 4441 
Q 881 4594 1212 4672 
Q 1544 4750 1819 4750 
Q 2544 4750 2975 4387 
Q 3406 4025 3406 3419 
Q 3406 3131 3298 2873 
Q 3191 2616 2906 2266 
Q 2828 2175 2409 1742 
Q 1991 1309 1228 531 
z
" transform="scale(0.015625)"/>
        <path id="DejaVuSans-29" d="M 513 4856 
L 1013 4856 
Q 1481 4119 1714 3412 
Q 1947 2706 1947 2009 
Q 1947 1309 1714 600 
Q 1481 -109 1013 -844 
L 513 -844 
Q 928 -128 1133 580 
Q 1338 1288 1338 2009 
Q 1338 2731 1133 3434 
Q 928 4138 513 4856 
z
" transform="scale(0.015625)"/>
       </defs>
       <use xlink:href="#DejaVuSans-41"/>
       <use xlink:href="#DejaVuSans-74" x="66.658203"/>
       <use xlink:href="#DejaVuSans-74" x="105.867188"/>
       <use xlink:href="#DejaVuSans-6e" x="145.076172"/>
       <use xlink:href="#DejaVuSans-50" x="208.455078"/>
       <use xlink:href="#DejaVuSans-61" x="264.257812"/>
       <use xlink:href="#DejaVuSans-63" x="325.537109"/>
       <use xlink:href="#DejaVuSans-6b" x="380.517578"/>
       <use xlink:href="#DejaVuSans-65" x="434.802734"/>
       <use xlink:href="#DejaVuSans-72" x="496.326172"/>
       <use xlink:href="#DejaVuSans-20" x="537.439453"/>
       <use xlink:href="#DejaVuSans-28" x="569.226562"/>
       <use xlink:href="#DejaVuSans-41" x="608.240234"/>
       <use xlink:href="#DejaVuSans-46" x="676.648438"/>
       <use xlink:href="#DejaVuSans-32" x="734.167969"/>
       <use xlink:href="#DejaVuSans-29" x="797.791016"/>
      </g>
     </g>
    </g>
   </g>
   <g id="matplotlib.axis_2">
    <g id="ytick_1">
     <g id="line2d_1">
      <path d="M 69.3625 525.226304 
L 850.5625 525.226304 
" clip-path="url(#p16fa3e788c)" style="fill: none; stroke: #cccccc; stroke-width: 0.8; stroke-linecap: round"/>
     </g>
     <g id="text_8">
      <!-- 0.0 -->
      <g style="fill: #262626" transform="translate(30.55625 532.824742) scale(0.2 -0.2)">
       <defs>
        <path id="DejaVuSans-30" d="M 2034 4250 
Q 1547 4250 1301 3770 
Q 1056 3291 1056 2328 
Q 1056 1369 1301 889 
Q 1547 409 2034 409 
Q 2525 409 2770 889 
Q 3016 1369 3016 2328 
Q 3016 3291 2770 3770 
Q 2525 4250 2034 4250 
z
M 2034 4750 
Q 2819 4750 3233 4129 
Q 3647 3509 3647 2328 
Q 3647 1150 3233 529 
Q 2819 -91 2034 -91 
Q 1250 -91 836 529 
Q 422 1150 422 2328 
Q 422 3509 836 4129 
Q 1250 4750 2034 4750 
z
" transform="scale(0.015625)"/>
        <path id="DejaVuSans-2e" d="M 684 794 
L 1344 794 
L 1344 0 
L 684 0 
L 684 794 
z
" transform="scale(0.015625)"/>
       </defs>
       <use xlink:href="#DejaVuSans-30"/>
       <use xlink:href="#DejaVuSans-2e" x="63.623047"/>
       <use xlink:href="#DejaVuSans-30" x="95.410156"/>
      </g>
     </g>
    </g>
    <g id="ytick_2">
     <g id="line2d_2">
      <path d="M 69.3625 440.154993 
L 850.5625 440.154993 
" clip-path="url(#p16fa3e788c)" style="fill: none; stroke: #cccccc; stroke-width: 0.8; stroke-linecap: round"/>
     </g>
     <g id="text_9">
      <!-- 0.2 -->
      <g style="fill: #262626" transform="translate(30.55625 447.75343) scale(0.2 -0.2)">
       <use xlink:href="#DejaVuSans-30"/>
       <use xlink:href="#DejaVuSans-2e" x="63.623047"/>
       <use xlink:href="#DejaVuSans-32" x="95.410156"/>
      </g>
     </g>
    </g>
    <g id="ytick_3">
     <g id="line2d_3">
      <path d="M 69.3625 355.083682 
L 850.5625 355.083682 
" clip-path="url(#p16fa3e788c)" style="fill: none; stroke: #cccccc; stroke-width: 0.8; stroke-linecap: round"/>
     </g>
     <g id="text_10">
      <!-- 0.4 -->
      <g style="fill: #262626" transform="translate(30.55625 362.682119) scale(0.2 -0.2)">
       <defs>
        <path id="DejaVuSans-34" d="M 2419 4116 
L 825 1625 
L 2419 1625 
L 2419 4116 
z
M 2253 4666 
L 3047 4666 
L 3047 1625 
L 3713 1625 
L 3713 1100 
L 3047 1100 
L 3047 0 
L 2419 0 
L 2419 1100 
L 313 1100 
L 313 1709 
L 2253 4666 
z
" transform="scale(0.015625)"/>
       </defs>
       <use xlink:href="#DejaVuSans-30"/>
       <use xlink:href="#DejaVuSans-2e" x="63.623047"/>
       <use xlink:href="#DejaVuSans-34" x="95.410156"/>
      </g>
     </g>
    </g>
    <g id="ytick_4">
     <g id="line2d_4">
      <path d="M 69.3625 270.012371 
L 850.5625 270.012371 
" clip-path="url(#p16fa3e788c)" style="fill: none; stroke: #cccccc; stroke-width: 0.8; stroke-linecap: round"/>
     </g>
     <g id="text_11">
      <!-- 0.6 -->
      <g style="fill: #262626" transform="translate(30.55625 277.610808) scale(0.2 -0.2)">
       <defs>
        <path id="DejaVuSans-36" d="M 2113 2584 
Q 1688 2584 1439 2293 
Q 1191 2003 1191 1497 
Q 1191 994 1439 701 
Q 1688 409 2113 409 
Q 2538 409 2786 701 
Q 3034 994 3034 1497 
Q 3034 2003 2786 2293 
Q 2538 2584 2113 2584 
z
M 3366 4563 
L 3366 3988 
Q 3128 4100 2886 4159 
Q 2644 4219 2406 4219 
Q 1781 4219 1451 3797 
Q 1122 3375 1075 2522 
Q 1259 2794 1537 2939 
Q 1816 3084 2150 3084 
Q 2853 3084 3261 2657 
Q 3669 2231 3669 1497 
Q 3669 778 3244 343 
Q 2819 -91 2113 -91 
Q 1303 -91 875 529 
Q 447 1150 447 2328 
Q 447 3434 972 4092 
Q 1497 4750 2381 4750 
Q 2619 4750 2861 4703 
Q 3103 4656 3366 4563 
z
" transform="scale(0.015625)"/>
       </defs>
       <use xlink:href="#DejaVuSans-30"/>
       <use xlink:href="#DejaVuSans-2e" x="63.623047"/>
       <use xlink:href="#DejaVuSans-36" x="95.410156"/>
      </g>
     </g>
    </g>
    <g id="ytick_5">
     <g id="line2d_5">
      <path d="M 69.3625 184.94106 
L 850.5625 184.94106 
" clip-path="url(#p16fa3e788c)" style="fill: none; stroke: #cccccc; stroke-width: 0.8; stroke-linecap: round"/>
     </g>
     <g id="text_12">
      <!-- 0.8 -->
      <g style="fill: #262626" transform="translate(30.55625 192.539497) scale(0.2 -0.2)">
       <defs>
        <path id="DejaVuSans-38" d="M 2034 2216 
Q 1584 2216 1326 1975 
Q 1069 1734 1069 1313 
Q 1069 891 1326 650 
Q 1584 409 2034 409 
Q 2484 409 2743 651 
Q 3003 894 3003 1313 
Q 3003 1734 2745 1975 
Q 2488 2216 2034 2216 
z
M 1403 2484 
Q 997 2584 770 2862 
Q 544 3141 544 3541 
Q 544 4100 942 4425 
Q 1341 4750 2034 4750 
Q 2731 4750 3128 4425 
Q 3525 4100 3525 3541 
Q 3525 3141 3298 2862 
Q 3072 2584 2669 2484 
Q 3125 2378 3379 2068 
Q 3634 1759 3634 1313 
Q 3634 634 3220 271 
Q 2806 -91 2034 -91 
Q 1263 -91 848 271 
Q 434 634 434 1313 
Q 434 1759 690 2068 
Q 947 2378 1403 2484 
z
M 1172 3481 
Q 1172 3119 1398 2916 
Q 1625 2713 2034 2713 
Q 2441 2713 2670 2916 
Q 2900 3119 2900 3481 
Q 2900 3844 2670 4047 
Q 2441 4250 2034 4250 
Q 1625 4250 1398 4047 
Q 1172 3844 1172 3481 
z
" transform="scale(0.015625)"/>
       </defs>
       <use xlink:href="#DejaVuSans-30"/>
       <use xlink:href="#DejaVuSans-2e" x="63.623047"/>
       <use xlink:href="#DejaVuSans-38" x="95.410156"/>
      </g>
     </g>
    </g>
    <g id="ytick_6">
     <g id="line2d_6">
      <path d="M 69.3625 99.869749 
L 850.5625 99.869749 
" clip-path="url(#p16fa3e788c)" style="fill: none; stroke: #cccccc; stroke-width: 0.8; stroke-linecap: round"/>
     </g>
     <g id="text_13">
      <!-- 1.0 -->
      <g style="fill: #262626" transform="translate(30.55625 107.468186) scale(0.2 -0.2)">
       <defs>
        <path id="DejaVuSans-31" d="M 794 531 
L 1825 531 
L 1825 4091 
L 703 3866 
L 703 4441 
L 1819 4666 
L 2450 4666 
L 2450 531 
L 3481 531 
L 3481 0 
L 794 0 
L 794 531 
z
" transform="scale(0.015625)"/>
       </defs>
       <use xlink:href="#DejaVuSans-31"/>
       <use xlink:href="#DejaVuSans-2e" x="63.623047"/>
       <use xlink:href="#DejaVuSans-30" x="95.410156"/>
      </g>
     </g>
    </g>
    <g id="ytick_7">
     <g id="line2d_7">
      <path d="M 69.3625 14.798437 
L 850.5625 14.798437 
" clip-path="url(#p16fa3e788c)" style="fill: none; stroke: #cccccc; stroke-width: 0.8; stroke-linecap: round"/>
     </g>
     <g id="text_14">
      <!-- 1.2 -->
      <g style="fill: #262626" transform="translate(30.55625 22.396875) scale(0.2 -0.2)">
       <use xlink:href="#DejaVuSans-31"/>
       <use xlink:href="#DejaVuSans-2e" x="63.623047"/>
       <use xlink:href="#DejaVuSans-32" x="95.410156"/>
      </g>
     </g>
    </g>
    <g id="text_15">
     <!-- TM-score -->
     <g style="fill: #262626" transform="translate(22.396875 330.355362) rotate(-90) scale(0.2 -0.2)">
      <use xlink:href="#DejaVuSans-54"/>
      <use xlink:href="#DejaVuSans-4d" x="61.083984"/>
      <use xlink:href="#DejaVuSans-2d" x="147.363281"/>
      <use xlink:href="#DejaVuSans-73" x="183.447266"/>
      <use xlink:href="#DejaVuSans-63" x="235.546875"/>
      <use xlink:href="#DejaVuSans-6f" x="290.527344"/>
      <use xlink:href="#DejaVuSans-72" x="351.708984"/>
      <use xlink:href="#DejaVuSans-65" x="390.572266"/>
     </g>
    </g>
   </g>
   <g id="PolyCollection_1">
    <defs>
     <path id="mec8c2c237a" d="M 125.535717 -250.61682 
L 124.789283 -250.61682 
L 124.677988 -254.907819 
L 124.542027 -259.198818 
L 124.378569 -263.489816 
L 124.185186 -267.780815 
L 123.960062 -272.071813 
L 123.70221 -276.362812 
L 123.411666 -280.65381 
L 123.089649 -284.944809 
L 122.738675 -289.235807 
L 122.362592 -293.526806 
L 121.966541 -297.817804 
L 121.556831 -302.108803 
L 121.140731 -306.399801 
L 120.726189 -310.6908 
L 120.321485 -314.981798 
L 119.93485 -319.272797 
L 119.574067 -323.563795 
L 119.24607 -327.854794 
L 118.956592 -332.145793 
L 118.709851 -336.436791 
L 118.508325 -340.72779 
L 118.352608 -345.018788 
L 118.241378 -349.309787 
L 118.171469 -353.600785 
L 118.13806 -357.891784 
L 118.134961 -362.182782 
L 118.154993 -366.473781 
L 118.190443 -370.764779 
L 118.233553 -375.055778 
L 118.277022 -379.346776 
L 118.31448 -383.637775 
L 118.340892 -387.928773 
L 118.352867 -392.219772 
L 118.348829 -396.51077 
L 118.329044 -400.801769 
L 118.295493 -405.092768 
L 118.251596 -409.383766 
L 118.201816 -413.674765 
L 118.151163 -417.965763 
L 118.104651 -422.256762 
L 118.066741 -426.54776 
L 118.040817 -430.838759 
L 118.028728 -435.129757 
L 118.030427 -439.420756 
L 118.043711 -443.711754 
L 118.064086 -448.002753 
L 118.084735 -452.293751 
L 118.096587 -456.58475 
L 118.088471 -460.875748 
L 118.047339 -465.166747 
L 117.958542 -469.457745 
L 117.806149 -473.748744 
L 117.573307 -478.039743 
L 117.24263 -482.330741 
L 116.796637 -486.62174 
L 116.218225 -490.912738 
L 115.491192 -495.203737 
L 114.600831 -499.494735 
L 113.534568 -503.785734 
L 112.282687 -508.076732 
L 110.83911 -512.367731 
L 109.20224 -516.658729 
L 107.375828 -520.949728 
L 105.369852 -525.240726 
L 103.201328 -529.531725 
L 100.894996 -533.822723 
L 98.483789 -538.113722 
L 96.008977 -542.40472 
L 93.519892 -546.695719 
L 91.073141 -550.986718 
L 88.731236 -555.277716 
L 86.56062 -559.568715 
L 84.629119 -563.859713 
L 83.002913 -568.150712 
L 81.743192 -572.44171 
L 80.902711 -576.732709 
L 80.5225 -581.023707 
L 80.629032 -585.314706 
L 81.232087 -589.605704 
L 82.323564 -593.896703 
L 83.877376 -598.187701 
L 85.850495 -602.4787 
L 88.185096 -606.769698 
L 90.811646 -611.060697 
L 93.652692 -615.351695 
L 96.627052 -619.642694 
L 99.654051 -623.933693 
L 102.657494 -628.224691 
L 105.569072 -632.51569 
L 108.330983 -636.806688 
L 110.897644 -641.097687 
L 113.236448 -645.388685 
L 115.327626 -649.679684 
L 117.163333 -653.970682 
L 118.746138 -658.261681 
L 120.087125 -662.552679 
L 121.203801 -666.843678 
L 122.118013 -671.134676 
L 122.854013 -675.425675 
L 127.470987 -675.425675 
L 127.470987 -675.425675 
L 128.206987 -671.134676 
L 129.121199 -666.843678 
L 130.237875 -662.552679 
L 131.578862 -658.261681 
L 133.161667 -653.970682 
L 134.997374 -649.679684 
L 137.088552 -645.388685 
L 139.427356 -641.097687 
L 141.994017 -636.806688 
L 144.755928 -632.51569 
L 147.667506 -628.224691 
L 150.670949 -623.933693 
L 153.697948 -619.642694 
L 156.672308 -615.351695 
L 159.513354 -611.060697 
L 162.139904 -606.769698 
L 164.474505 -602.4787 
L 166.447624 -598.187701 
L 168.001436 -593.896703 
L 169.092913 -589.605704 
L 169.695968 -585.314706 
L 169.8025 -581.023707 
L 169.422289 -576.732709 
L 168.581808 -572.44171 
L 167.322087 -568.150712 
L 165.695881 -563.859713 
L 163.76438 -559.568715 
L 161.593764 -555.277716 
L 159.251859 -550.986718 
L 156.805108 -546.695719 
L 154.316023 -542.40472 
L 151.841211 -538.113722 
L 149.430004 -533.822723 
L 147.123672 -529.531725 
L 144.955148 -525.240726 
L 142.949172 -520.949728 
L 141.12276 -516.658729 
L 139.48589 -512.367731 
L 138.042313 -508.076732 
L 136.790432 -503.785734 
L 135.724169 -499.494735 
L 134.833808 -495.203737 
L 134.106775 -490.912738 
L 133.528363 -486.62174 
L 133.08237 -482.330741 
L 132.751693 -478.039743 
L 132.518851 -473.748744 
L 132.366458 -469.457745 
L 132.277661 -465.166747 
L 132.236529 -460.875748 
L 132.228413 -456.58475 
L 132.240265 -452.293751 
L 132.260914 -448.002753 
L 132.281289 -443.711754 
L 132.294573 -439.420756 
L 132.296272 -435.129757 
L 132.284183 -430.838759 
L 132.258259 -426.54776 
L 132.220349 -422.256762 
L 132.173837 -417.965763 
L 132.123184 -413.674765 
L 132.073404 -409.383766 
L 132.029507 -405.092768 
L 131.995956 -400.801769 
L 131.976171 -396.51077 
L 131.972133 -392.219772 
L 131.984108 -387.928773 
L 132.01052 -383.637775 
L 132.047978 -379.346776 
L 132.091447 -375.055778 
L 132.134557 -370.764779 
L 132.170007 -366.473781 
L 132.190039 -362.182782 
L 132.18694 -357.891784 
L 132.153531 -353.600785 
L 132.083622 -349.309787 
L 131.972392 -345.018788 
L 131.816675 -340.72779 
L 131.615149 -336.436791 
L 131.368408 -332.145793 
L 131.07893 -327.854794 
L 130.750933 -323.563795 
L 130.39015 -319.272797 
L 130.003515 -314.981798 
L 129.598811 -310.6908 
L 129.184269 -306.399801 
L 128.768169 -302.108803 
L 128.358459 -297.817804 
L 127.962408 -293.526806 
L 127.586325 -289.235807 
L 127.235351 -284.944809 
L 126.913334 -280.65381 
L 126.62279 -276.362812 
L 126.364938 -272.071813 
L 126.139814 -267.780815 
L 125.946431 -263.489816 
L 125.782973 -259.198818 
L 125.647012 -254.907819 
L 125.535717 -250.61682 
z
" style="stroke: #3d3d3d; stroke-opacity: 0.5"/>
    </defs>
    <g clip-path="url(#p16fa3e788c)">
     <use xlink:href="#mec8c2c237a" x="0" y="708.571662" style="fill: #3274a1; fill-opacity: 0.5; stroke: #3d3d3d; stroke-opacity: 0.5"/>
    </g>
   </g>
   <g id="PolyCollection_2">
    <defs>
     <path id="m0a1eebeeed" d="M 236.856082 -519.5965 
L 236.668918 -519.5965 
L 236.631112 -520.609158 
L 236.583709 -521.621817 
L 236.526662 -522.634476 
L 236.460908 -523.647135 
L 236.388508 -524.659794 
L 236.312636 -525.672453 
L 236.237343 -526.685112 
L 236.167112 -527.697771 
L 236.106244 -528.71043 
L 236.058163 -529.723089 
L 236.024796 -530.735747 
L 236.006138 -531.748406 
L 236.000149 -532.761065 
L 236.003004 -533.773724 
L 236.009682 -534.786383 
L 236.014794 -535.799042 
L 236.013473 -536.811701 
L 236.002159 -537.82436 
L 235.979133 -538.837019 
L 235.944691 -539.849678 
L 235.900968 -540.862336 
L 235.851479 -541.874995 
L 235.800508 -542.887654 
L 235.75249 -543.900313 
L 235.711511 -544.912972 
L 235.680997 -545.925631 
L 235.66358 -546.93829 
L 235.661116 -547.950949 
L 235.674735 -548.963608 
L 235.704882 -549.976267 
L 235.751293 -550.988925 
L 235.812915 -552.001584 
L 235.887827 -553.014243 
L 235.973216 -554.026902 
L 236.065469 -555.039561 
L 236.160385 -556.05222 
L 236.253488 -557.064879 
L 236.340386 -558.077538 
L 236.417089 -559.090197 
L 236.480243 -560.102856 
L 236.52725 -561.115514 
L 236.556281 -562.128173 
L 236.566218 -563.140832 
L 236.556586 -564.153491 
L 236.52751 -565.16615 
L 236.479709 -566.178809 
L 236.414525 -567.191468 
L 236.333938 -568.204127 
L 236.240521 -569.216786 
L 236.137302 -570.229445 
L 236.027523 -571.242103 
L 235.91433 -572.254762 
L 235.800447 -573.267421 
L 235.687931 -574.28008 
L 235.578044 -575.292739 
L 235.471281 -576.305398 
L 235.367528 -577.318057 
L 235.266258 -578.330716 
L 235.166683 -579.343375 
L 235.067762 -580.356034 
L 234.968003 -581.368693 
L 234.865065 -582.381351 
L 234.755166 -583.39401 
L 234.632357 -584.406669 
L 234.487678 -585.419328 
L 234.308181 -586.431987 
L 234.075796 -587.444646 
L 233.765997 -588.457305 
L 233.346384 -589.469964 
L 232.7754 -590.482623 
L 232.001694 -591.495282 
L 230.964825 -592.50794 
L 229.598111 -593.520599 
L 227.834367 -594.533258 
L 225.614872 -595.545917 
L 222.90128 -596.558576 
L 219.689293 -597.571235 
L 216.021988 -598.583894 
L 211.999998 -599.596553 
L 207.785486 -600.609212 
L 203.59734 -601.621871 
L 199.696282 -602.634529 
L 196.360451 -603.647188 
L 193.854208 -604.659847 
L 192.394787 -605.672506 
L 192.1225 -606.685165 
L 193.080074 -607.697824 
L 195.205246 -608.710483 
L 198.338262 -609.723142 
L 202.242977 -610.735801 
L 206.637632 -611.74846 
L 211.229639 -612.761118 
L 215.748361 -613.773777 
L 219.970824 -614.786436 
L 223.737233 -615.799095 
L 226.955521 -616.811754 
L 229.596267 -617.824413 
L 231.680796 -618.837072 
L 233.265867 -619.849731 
L 240.259133 -619.849731 
L 240.259133 -619.849731 
L 241.844204 -618.837072 
L 243.928733 -617.824413 
L 246.569479 -616.811754 
L 249.787767 -615.799095 
L 253.554176 -614.786436 
L 257.776639 -613.773777 
L 262.295361 -612.761118 
L 266.887368 -611.74846 
L 271.282023 -610.735801 
L 275.186738 -609.723142 
L 278.319754 -608.710483 
L 280.444926 -607.697824 
L 281.4025 -606.685165 
L 281.130213 -605.672506 
L 279.670792 -604.659847 
L 277.164549 -603.647188 
L 273.828718 -602.634529 
L 269.92766 -601.621871 
L 265.739514 -600.609212 
L 261.525002 -599.596553 
L 257.503012 -598.583894 
L 253.835707 -597.571235 
L 250.62372 -596.558576 
L 247.910128 -595.545917 
L 245.690633 -594.533258 
L 243.926889 -593.520599 
L 242.560175 -592.50794 
L 241.523306 -591.495282 
L 240.7496 -590.482623 
L 240.178616 -589.469964 
L 239.759003 -588.457305 
L 239.449204 -587.444646 
L 239.216819 -586.431987 
L 239.037322 -585.419328 
L 238.892643 -584.406669 
L 238.769834 -583.39401 
L 238.659935 -582.381351 
L 238.556997 -581.368693 
L 238.457238 -580.356034 
L 238.358317 -579.343375 
L 238.258742 -578.330716 
L 238.157472 -577.318057 
L 238.053719 -576.305398 
L 237.946956 -575.292739 
L 237.837069 -574.28008 
L 237.724553 -573.267421 
L 237.61067 -572.254762 
L 237.497477 -571.242103 
L 237.387698 -570.229445 
L 237.284479 -569.216786 
L 237.191062 -568.204127 
L 237.110475 -567.191468 
L 237.045291 -566.178809 
L 236.99749 -565.16615 
L 236.968414 -564.153491 
L 236.958782 -563.140832 
L 236.968719 -562.128173 
L 236.99775 -561.115514 
L 237.044757 -560.102856 
L 237.107911 -559.090197 
L 237.184614 -558.077538 
L 237.271512 -557.064879 
L 237.364615 -556.05222 
L 237.459531 -555.039561 
L 237.551784 -554.026902 
L 237.637173 -553.014243 
L 237.712085 -552.001584 
L 237.773707 -550.988925 
L 237.820118 -549.976267 
L 237.850265 -548.963608 
L 237.863884 -547.950949 
L 237.86142 -546.93829 
L 237.844003 -545.925631 
L 237.813489 -544.912972 
L 237.77251 -543.900313 
L 237.724492 -542.887654 
L 237.673521 -541.874995 
L 237.624032 -540.862336 
L 237.580309 -539.849678 
L 237.545867 -538.837019 
L 237.522841 -537.82436 
L 237.511527 -536.811701 
L 237.510206 -535.799042 
L 237.515318 -534.786383 
L 237.521996 -533.773724 
L 237.524851 -532.761065 
L 237.518862 -531.748406 
L 237.500204 -530.735747 
L 237.466837 -529.723089 
L 237.418756 -528.71043 
L 237.357888 -527.697771 
L 237.287657 -526.685112 
L 237.212364 -525.672453 
L 237.136492 -524.659794 
L 237.064092 -523.647135 
L 236.998338 -522.634476 
L 236.941291 -521.621817 
L 236.893888 -520.609158 
L 236.856082 -519.5965 
z
" style="stroke: #3d3d3d; stroke-opacity: 0.5"/>
    </defs>
    <g clip-path="url(#p16fa3e788c)">
     <use xlink:href="#m0a1eebeeed" x="0" y="708.571662" style="fill: #d684bd; fill-opacity: 0.5; stroke: #3d3d3d; stroke-opacity: 0.5"/>
    </g>
   </g>
   <g id="PolyCollection_3">
    <defs>
     <path id="m56a355e808" d="M 349.228938 -171.425675 
L 347.496062 -171.425675 
L 347.170177 -176.29355 
L 346.745908 -181.161425 
L 346.202671 -186.0293 
L 345.518597 -190.897176 
L 344.67143 -195.765051 
L 343.639695 -200.632926 
L 342.404124 -205.500801 
L 340.949264 -210.368676 
L 339.265181 -215.236551 
L 337.349119 -220.104427 
L 335.206985 -224.972302 
L 332.854489 -229.840177 
L 330.317794 -234.708052 
L 327.633539 -239.575927 
L 324.848152 -244.443802 
L 322.016421 -249.311678 
L 319.199348 -254.179553 
L 316.461398 -259.047428 
L 313.867311 -263.915303 
L 311.478708 -268.783178 
L 309.350751 -273.651053 
L 307.529143 -278.518929 
L 306.047722 -283.386804 
L 304.926857 -288.254679 
L 304.172799 -293.122554 
L 303.778018 -297.990429 
L 303.7225 -302.858304 
L 303.975835 -307.726179 
L 304.499898 -312.594055 
L 305.251832 -317.46193 
L 306.187049 -322.329805 
L 307.261978 -327.19768 
L 308.436322 -332.065555 
L 309.674694 -336.93343 
L 310.947549 -341.801306 
L 312.231466 -346.669181 
L 313.508864 -351.537056 
L 314.767331 -356.404931 
L 315.998736 -361.272806 
L 317.19831 -366.140681 
L 318.363837 -371.008557 
L 319.495019 -375.876432 
L 320.593067 -380.744307 
L 321.660443 -385.612182 
L 322.700697 -390.480057 
L 323.718287 -395.347932 
L 324.718289 -400.215808 
L 325.705941 -405.083683 
L 326.686016 -409.951558 
L 327.662061 -414.819433 
L 328.635601 -419.687308 
L 329.605431 -424.555183 
L 330.567133 -429.423059 
L 331.512923 -434.290934 
L 332.431901 -439.158809 
L 333.310721 -444.026684 
L 334.134618 -448.894559 
L 334.888711 -453.762434 
L 335.559403 -458.63031 
L 336.135753 -463.498185 
L 336.610628 -468.36606 
L 336.981537 -473.233935 
L 337.251049 -478.10181 
L 337.42676 -482.969685 
L 337.520854 -487.837561 
L 337.549301 -492.705436 
L 337.530803 -497.573311 
L 337.485608 -502.441186 
L 337.43429 -507.309061 
L 337.3966 -512.176936 
L 337.390481 -517.044812 
L 337.431269 -521.912687 
L 337.531125 -526.780562 
L 337.698698 -531.648437 
L 337.938991 -536.516312 
L 338.253419 -541.384187 
L 338.640024 -546.252063 
L 339.093814 -551.119938 
L 339.607198 -555.987813 
L 340.170492 -560.855688 
L 340.772474 -565.723563 
L 341.400954 -570.591438 
L 342.043348 -575.459314 
L 342.687227 -580.327189 
L 343.320816 -585.195064 
L 343.933435 -590.062939 
L 344.515844 -594.930814 
L 345.060502 -599.798689 
L 345.561713 -604.666565 
L 346.015673 -609.53444 
L 346.420414 -614.402315 
L 346.775667 -619.27019 
L 347.082647 -624.138065 
L 347.343797 -629.00594 
L 347.562506 -633.873816 
L 347.74281 -638.741691 
L 347.889121 -643.609566 
L 348.005973 -648.477441 
L 348.097815 -653.345316 
L 348.627185 -653.345316 
L 348.627185 -653.345316 
L 348.719027 -648.477441 
L 348.835879 -643.609566 
L 348.98219 -638.741691 
L 349.162494 -633.873816 
L 349.381203 -629.00594 
L 349.642353 -624.138065 
L 349.949333 -619.27019 
L 350.304586 -614.402315 
L 350.709327 -609.53444 
L 351.163287 -604.666565 
L 351.664498 -599.798689 
L 352.209156 -594.930814 
L 352.791565 -590.062939 
L 353.404184 -585.195064 
L 354.037773 -580.327189 
L 354.681652 -575.459314 
L 355.324046 -570.591438 
L 355.952526 -565.723563 
L 356.554508 -560.855688 
L 357.117802 -555.987813 
L 357.631186 -551.119938 
L 358.084976 -546.252063 
L 358.471581 -541.384187 
L 358.786009 -536.516312 
L 359.026302 -531.648437 
L 359.193875 -526.780562 
L 359.293731 -521.912687 
L 359.334519 -517.044812 
L 359.3284 -512.176936 
L 359.29071 -507.309061 
L 359.239392 -502.441186 
L 359.194197 -497.573311 
L 359.175699 -492.705436 
L 359.204146 -487.837561 
L 359.29824 -482.969685 
L 359.473951 -478.10181 
L 359.743463 -473.233935 
L 360.114372 -468.36606 
L 360.589247 -463.498185 
L 361.165597 -458.63031 
L 361.836289 -453.762434 
L 362.590382 -448.894559 
L 363.414279 -444.026684 
L 364.293099 -439.158809 
L 365.212077 -434.290934 
L 366.157867 -429.423059 
L 367.119569 -424.555183 
L 368.089399 -419.687308 
L 369.062939 -414.819433 
L 370.038984 -409.951558 
L 371.019059 -405.083683 
L 372.006711 -400.215808 
L 373.006713 -395.347932 
L 374.024303 -390.480057 
L 375.064557 -385.612182 
L 376.131933 -380.744307 
L 377.229981 -375.876432 
L 378.361163 -371.008557 
L 379.52669 -366.140681 
L 380.726264 -361.272806 
L 381.957669 -356.404931 
L 383.216136 -351.537056 
L 384.493534 -346.669181 
L 385.777451 -341.801306 
L 387.050306 -336.93343 
L 388.288678 -332.065555 
L 389.463022 -327.19768 
L 390.537951 -322.329805 
L 391.473168 -317.46193 
L 392.225102 -312.594055 
L 392.749165 -307.726179 
L 393.0025 -302.858304 
L 392.946982 -297.990429 
L 392.552201 -293.122554 
L 391.798143 -288.254679 
L 390.677278 -283.386804 
L 389.195857 -278.518929 
L 387.374249 -273.651053 
L 385.246292 -268.783178 
L 382.857689 -263.915303 
L 380.263602 -259.047428 
L 377.525652 -254.179553 
L 374.708579 -249.311678 
L 371.876848 -244.443802 
L 369.091461 -239.575927 
L 366.407206 -234.708052 
L 363.870511 -229.840177 
L 361.518015 -224.972302 
L 359.375881 -220.104427 
L 357.459819 -215.236551 
L 355.775736 -210.368676 
L 354.320876 -205.500801 
L 353.085305 -200.632926 
L 352.05357 -195.765051 
L 351.206403 -190.897176 
L 350.522329 -186.0293 
L 349.979092 -181.161425 
L 349.554823 -176.29355 
L 349.228938 -171.425675 
z
" style="stroke: #3d3d3d; stroke-opacity: 0.5"/>
    </defs>
    <g clip-path="url(#p16fa3e788c)">
     <use xlink:href="#m56a355e808" x="0" y="708.571662" style="fill: #c03d3e; fill-opacity: 0.5; stroke: #3d3d3d; stroke-opacity: 0.5"/>
    </g>
   </g>
   <g id="PolyCollection_4">
    <defs>
     <path id="mc0f78ecade" d="M 460.051018 -369.757987 
L 459.873982 -369.757987 
L 459.822936 -372.386812 
L 459.755003 -375.015637 
L 459.671601 -377.644463 
L 459.577938 -380.273288 
L 459.483114 -382.902113 
L 459.398995 -385.530938 
L 459.337897 -388.159763 
L 459.309663 -390.788588 
L 459.319074 -393.417414 
L 459.36452 -396.046239 
L 459.438456 -398.675064 
L 459.529444 -401.303889 
L 459.625047 -403.932714 
L 459.714543 -406.561539 
L 459.790696 -409.190364 
L 459.850251 -411.81919 
L 459.893344 -414.448015 
L 459.922324 -417.07684 
L 459.940491 -419.705665 
L 459.951131 -422.33449 
L 459.956962 -424.963315 
L 459.959956 -427.592141 
L 459.961398 -430.220966 
L 459.96205 -432.849791 
L 459.962327 -435.478616 
L 459.962437 -438.107441 
L 459.962478 -440.736266 
L 459.962493 -443.365092 
L 459.962498 -445.993917 
L 459.962499 -448.622742 
L 459.9625 -451.251567 
L 459.9625 -453.880392 
L 459.9625 -456.509217 
L 459.9625 -459.138043 
L 459.9625 -461.766868 
L 459.9625 -464.395693 
L 459.9625 -467.024518 
L 459.9625 -469.653343 
L 459.9625 -472.282168 
L 459.9625 -474.910993 
L 459.9625 -477.539819 
L 459.9625 -480.168644 
L 459.9625 -482.797469 
L 459.9625 -485.426294 
L 459.9625 -488.055119 
L 459.9625 -490.683944 
L 459.962499 -493.31277 
L 459.962497 -495.941595 
L 459.96249 -498.57042 
L 459.962468 -501.199245 
L 459.962409 -503.82807 
L 459.962255 -506.456895 
L 459.961875 -509.085721 
L 459.960996 -511.714546 
L 459.959085 -514.343371 
L 459.955181 -516.972196 
L 459.947687 -519.601021 
L 459.934173 -522.229846 
L 459.911291 -524.858672 
L 459.874915 -527.487497 
L 459.820632 -530.116322 
L 459.744585 -532.745147 
L 459.644539 -535.373972 
L 459.520836 -538.002797 
L 459.376851 -540.631622 
L 459.21863 -543.260448 
L 459.053693 -545.889273 
L 458.889323 -548.518098 
L 458.730919 -551.146923 
L 458.580914 -553.775748 
L 458.438426 -556.404573 
L 458.299238 -559.033399 
L 458.155285 -561.662224 
L 457.992604 -564.291049 
L 457.787019 -566.919874 
L 457.49746 -569.548699 
L 457.057799 -572.177524 
L 456.369282 -574.80635 
L 455.296945 -577.435175 
L 453.674683 -580.064 
L 451.324164 -582.692825 
L 448.091558 -585.32165 
L 443.901563 -587.950475 
L 438.820193 -590.579301 
L 433.108007 -593.208126 
L 427.23876 -595.836951 
L 421.860898 -598.465776 
L 417.69436 -601.094601 
L 415.379912 -603.723426 
L 415.3225 -606.352251 
L 417.580824 -608.981077 
L 421.84417 -611.609902 
L 427.507208 -614.238727 
L 433.817259 -616.867552 
L 440.043653 -619.496377 
L 445.615974 -622.125202 
L 450.196523 -624.754028 
L 453.680922 -627.382853 
L 456.145513 -630.011678 
L 463.779487 -630.011678 
L 463.779487 -630.011678 
L 466.244078 -627.382853 
L 469.728477 -624.754028 
L 474.309026 -622.125202 
L 479.881347 -619.496377 
L 486.107741 -616.867552 
L 492.417792 -614.238727 
L 498.08083 -611.609902 
L 502.344176 -608.981077 
L 504.6025 -606.352251 
L 504.545088 -603.723426 
L 502.23064 -601.094601 
L 498.064102 -598.465776 
L 492.68624 -595.836951 
L 486.816993 -593.208126 
L 481.104807 -590.579301 
L 476.023437 -587.950475 
L 471.833442 -585.32165 
L 468.600836 -582.692825 
L 466.250317 -580.064 
L 464.628055 -577.435175 
L 463.555718 -574.80635 
L 462.867201 -572.177524 
L 462.42754 -569.548699 
L 462.137981 -566.919874 
L 461.932396 -564.291049 
L 461.769715 -561.662224 
L 461.625762 -559.033399 
L 461.486574 -556.404573 
L 461.344086 -553.775748 
L 461.194081 -551.146923 
L 461.035677 -548.518098 
L 460.871307 -545.889273 
L 460.70637 -543.260448 
L 460.548149 -540.631622 
L 460.404164 -538.002797 
L 460.280461 -535.373972 
L 460.180415 -532.745147 
L 460.104368 -530.116322 
L 460.050085 -527.487497 
L 460.013709 -524.858672 
L 459.990827 -522.229846 
L 459.977313 -519.601021 
L 459.969819 -516.972196 
L 459.965915 -514.343371 
L 459.964004 -511.714546 
L 459.963125 -509.085721 
L 459.962745 -506.456895 
L 459.962591 -503.82807 
L 459.962532 -501.199245 
L 459.96251 -498.57042 
L 459.962503 -495.941595 
L 459.962501 -493.31277 
L 459.9625 -490.683944 
L 459.9625 -488.055119 
L 459.9625 -485.426294 
L 459.9625 -482.797469 
L 459.9625 -480.168644 
L 459.9625 -477.539819 
L 459.9625 -474.910993 
L 459.9625 -472.282168 
L 459.9625 -469.653343 
L 459.9625 -467.024518 
L 459.9625 -464.395693 
L 459.9625 -461.766868 
L 459.9625 -459.138043 
L 459.9625 -456.509217 
L 459.9625 -453.880392 
L 459.9625 -451.251567 
L 459.962501 -448.622742 
L 459.962502 -445.993917 
L 459.962507 -443.365092 
L 459.962522 -440.736266 
L 459.962563 -438.107441 
L 459.962673 -435.478616 
L 459.96295 -432.849791 
L 459.963602 -430.220966 
L 459.965044 -427.592141 
L 459.968038 -424.963315 
L 459.973869 -422.33449 
L 459.984509 -419.705665 
L 460.002676 -417.07684 
L 460.031656 -414.448015 
L 460.074749 -411.81919 
L 460.134304 -409.190364 
L 460.210457 -406.561539 
L 460.299953 -403.932714 
L 460.395556 -401.303889 
L 460.486544 -398.675064 
L 460.56048 -396.046239 
L 460.605926 -393.417414 
L 460.615337 -390.788588 
L 460.587103 -388.159763 
L 460.526005 -385.530938 
L 460.441886 -382.902113 
L 460.347062 -380.273288 
L 460.253399 -377.644463 
L 460.169997 -375.015637 
L 460.102064 -372.386812 
L 460.051018 -369.757987 
z
" style="stroke: #3d3d3d; stroke-opacity: 0.5"/>
    </defs>
    <g clip-path="url(#p16fa3e788c)">
     <use xlink:href="#mc0f78ecade" x="0" y="708.571662" style="fill: #9372b2; fill-opacity: 0.5; stroke: #3d3d3d; stroke-opacity: 0.5"/>
    </g>
   </g>
   <g id="PolyCollection_5">
    <defs>
     <path id="m3123ce4c00" d="M 571.654021 -376.234069 
L 571.470979 -376.234069 
L 571.421017 -378.802298 
L 571.355161 -381.370527 
L 571.274461 -383.938756 
L 571.183174 -386.506985 
L 571.08895 -389.075214 
L 571.002082 -391.643442 
L 570.933791 -394.211671 
L 570.89388 -396.7799 
L 570.888435 -399.348129 
L 570.918307 -401.916358 
L 570.978891 -404.484587 
L 571.061289 -407.052816 
L 571.154452 -409.621045 
L 571.247585 -412.189274 
L 571.332108 -414.757503 
L 571.402715 -417.325732 
L 571.45745 -419.89396 
L 571.49703 -422.462189 
L 571.52382 -425.030418 
L 571.540837 -427.598647 
L 571.550999 -430.166876 
L 571.556711 -432.735105 
L 571.559738 -435.303334 
L 571.561251 -437.871563 
L 571.561964 -440.439792 
L 571.562282 -443.008021 
L 571.562416 -445.57625 
L 571.562469 -448.144478 
L 571.562489 -450.712707 
L 571.562497 -453.280936 
L 571.562499 -455.849165 
L 571.5625 -458.417394 
L 571.5625 -460.985623 
L 571.5625 -463.553852 
L 571.5625 -466.122081 
L 571.5625 -468.69031 
L 571.5625 -471.258539 
L 571.5625 -473.826768 
L 571.562499 -476.394996 
L 571.562495 -478.963225 
L 571.562486 -481.531454 
L 571.56246 -484.099683 
L 571.562391 -486.667912 
L 571.56222 -489.236141 
L 571.561818 -491.80437 
L 571.560927 -494.372599 
L 571.559057 -496.940828 
L 571.555349 -499.509057 
L 571.548398 -502.077286 
L 571.536092 -504.645514 
L 571.515516 -507.213743 
L 571.483033 -509.781972 
L 571.434632 -512.350201 
L 571.366586 -514.91843 
L 571.276355 -517.486659 
L 571.163551 -520.054888 
L 571.030662 -522.623117 
L 570.883234 -525.191346 
L 570.72935 -527.759575 
L 570.57843 -530.327804 
L 570.43966 -532.896032 
L 570.320457 -535.464261 
L 570.225377 -538.03249 
L 570.155662 -540.600719 
L 570.109394 -543.168948 
L 570.082013 -545.737177 
L 570.066879 -548.305406 
L 570.055653 -550.873635 
L 570.038396 -553.441864 
L 570.003412 -556.010093 
L 569.936877 -558.578322 
L 569.822073 -561.14655 
L 569.637808 -563.714779 
L 569.355446 -566.283008 
L 568.934112 -568.851237 
L 568.314389 -571.419466 
L 567.412077 -573.987695 
L 566.115177 -576.555924 
L 564.28858 -579.124153 
L 561.791091 -581.692382 
L 558.507552 -584.260611 
L 554.39424 -586.82884 
L 549.529065 -589.397068 
L 544.151353 -591.965297 
L 538.672638 -594.533526 
L 533.643333 -597.101755 
L 529.671603 -599.669984 
L 527.307654 -602.238213 
L 526.9225 -604.806442 
L 528.617443 -607.374671 
L 532.194142 -609.9429 
L 537.196432 -612.511129 
L 543.011236 -615.079358 
L 548.997075 -617.647586 
L 554.602418 -620.215815 
L 559.444028 -622.784044 
L 563.332642 -625.352273 
L 566.251627 -627.920502 
L 568.306491 -630.488731 
L 574.818509 -630.488731 
L 574.818509 -630.488731 
L 576.873373 -627.920502 
L 579.792358 -625.352273 
L 583.680972 -622.784044 
L 588.522582 -620.215815 
L 594.127925 -617.647586 
L 600.113764 -615.079358 
L 605.928568 -612.511129 
L 610.930858 -609.9429 
L 614.507557 -607.374671 
L 616.2025 -604.806442 
L 615.817346 -602.238213 
L 613.453397 -599.669984 
L 609.481667 -597.101755 
L 604.452362 -594.533526 
L 598.973647 -591.965297 
L 593.595935 -589.397068 
L 588.73076 -586.82884 
L 584.617448 -584.260611 
L 581.333909 -581.692382 
L 578.83642 -579.124153 
L 577.009823 -576.555924 
L 575.712923 -573.987695 
L 574.810611 -571.419466 
L 574.190888 -568.851237 
L 573.769554 -566.283008 
L 573.487192 -563.714779 
L 573.302927 -561.14655 
L 573.188123 -558.578322 
L 573.121588 -556.010093 
L 573.086604 -553.441864 
L 573.069347 -550.873635 
L 573.058121 -548.305406 
L 573.042987 -545.737177 
L 573.015606 -543.168948 
L 572.969338 -540.600719 
L 572.899623 -538.03249 
L 572.804543 -535.464261 
L 572.68534 -532.896032 
L 572.54657 -530.327804 
L 572.39565 -527.759575 
L 572.241766 -525.191346 
L 572.094338 -522.623117 
L 571.961449 -520.054888 
L 571.848645 -517.486659 
L 571.758414 -514.91843 
L 571.690368 -512.350201 
L 571.641967 -509.781972 
L 571.609484 -507.213743 
L 571.588908 -504.645514 
L 571.576602 -502.077286 
L 571.569651 -499.509057 
L 571.565943 -496.940828 
L 571.564073 -494.372599 
L 571.563182 -491.80437 
L 571.56278 -489.236141 
L 571.562609 -486.667912 
L 571.56254 -484.099683 
L 571.562514 -481.531454 
L 571.562505 -478.963225 
L 571.562501 -476.394996 
L 571.5625 -473.826768 
L 571.5625 -471.258539 
L 571.5625 -468.69031 
L 571.5625 -466.122081 
L 571.5625 -463.553852 
L 571.5625 -460.985623 
L 571.5625 -458.417394 
L 571.562501 -455.849165 
L 571.562503 -453.280936 
L 571.562511 -450.712707 
L 571.562531 -448.144478 
L 571.562584 -445.57625 
L 571.562718 -443.008021 
L 571.563036 -440.439792 
L 571.563749 -437.871563 
L 571.565262 -435.303334 
L 571.568289 -432.735105 
L 571.574001 -430.166876 
L 571.584163 -427.598647 
L 571.60118 -425.030418 
L 571.62797 -422.462189 
L 571.66755 -419.89396 
L 571.722285 -417.325732 
L 571.792892 -414.757503 
L 571.877415 -412.189274 
L 571.970548 -409.621045 
L 572.063711 -407.052816 
L 572.146109 -404.484587 
L 572.206693 -401.916358 
L 572.236565 -399.348129 
L 572.23112 -396.7799 
L 572.191209 -394.211671 
L 572.122918 -391.643442 
L 572.03605 -389.075214 
L 571.941826 -386.506985 
L 571.850539 -383.938756 
L 571.769839 -381.370527 
L 571.703983 -378.802298 
L 571.654021 -376.234069 
z
" style="stroke: #3d3d3d; stroke-opacity: 0.5"/>
    </defs>
    <g clip-path="url(#p16fa3e788c)">
     <use xlink:href="#m3123ce4c00" x="0" y="708.571662" style="fill: #845b53; fill-opacity: 0.5; stroke: #3d3d3d; stroke-opacity: 0.5"/>
    </g>
   </g>
   <g id="PolyCollection_6">
    <defs>
     <path id="m68bec2a05e" d="M 794.855765 -516.665346 
L 794.669235 -516.665346 
L 794.629423 -517.704896 
L 794.579102 -518.744446 
L 794.518385 -519.783996 
L 794.448661 -520.823546 
L 794.372793 -521.863095 
L 794.295093 -522.902645 
L 794.221002 -523.942195 
L 794.156494 -524.981745 
L 794.107268 -526.021294 
L 794.077854 -527.060844 
L 794.07083 -528.100394 
L 794.086295 -529.139944 
L 794.121714 -530.179494 
L 794.172187 -531.219043 
L 794.231055 -532.258593 
L 794.290745 -533.298143 
L 794.343687 -534.337693 
L 794.383164 -535.377242 
L 794.40399 -536.416792 
L 794.402966 -537.456342 
L 794.37909 -538.495892 
L 794.333545 -539.535441 
L 794.26947 -540.574991 
L 794.191548 -541.614541 
L 794.105455 -542.654091 
L 794.017217 -543.693641 
L 793.93258 -544.73319 
L 793.856496 -545.77274 
L 793.792799 -546.81229 
L 793.744134 -547.85184 
L 793.712102 -548.891389 
L 793.697533 -549.930939 
L 793.700769 -550.970489 
L 793.72183 -552.010039 
L 793.760395 -553.049589 
L 793.815638 -554.089138 
L 793.885966 -555.128688 
L 793.968826 -556.168238 
L 794.06065 -557.207788 
L 794.157025 -558.247337 
L 794.253042 -559.286887 
L 794.343756 -560.326437 
L 794.42463 -561.365987 
L 794.491876 -562.405537 
L 794.542632 -563.445086 
L 794.574989 -564.484636 
L 794.587927 -565.524186 
L 794.581231 -566.563736 
L 794.555476 -567.603285 
L 794.512072 -568.642835 
L 794.453372 -569.682385 
L 794.382731 -570.721935 
L 794.304432 -571.761485 
L 794.223392 -572.801034 
L 794.1446 -573.840584 
L 794.072359 -574.880134 
L 794.009442 -575.919684 
L 793.956358 -576.959233 
L 793.910909 -577.998783 
L 793.868173 -579.038333 
L 793.820935 -580.077883 
L 793.760468 -581.117433 
L 793.677442 -582.156982 
L 793.562691 -583.196532 
L 793.40753 -584.236082 
L 793.203423 -585.275632 
L 792.940887 -586.315181 
L 792.607648 -587.354731 
L 792.18624 -588.394281 
L 791.65136 -589.433831 
L 790.96744 -590.473381 
L 790.087077 -591.51293 
L 788.951111 -592.55248 
L 787.491238 -593.59203 
L 785.636002 -594.63158 
L 783.320661 -595.671129 
L 780.500785 -596.710679 
L 777.168355 -597.750229 
L 773.367967 -598.789779 
L 769.209661 -599.829329 
L 764.874362 -600.868878 
L 760.608424 -601.908428 
L 756.705319 -602.947978 
L 753.475182 -603.987528 
L 751.205945 -605.027077 
L 750.1225 -606.066627 
L 750.351722 -607.106177 
L 751.900748 -608.145727 
L 754.653456 -609.185277 
L 758.386259 -610.224826 
L 762.800129 -611.264376 
L 767.562282 -612.303926 
L 772.34931 -613.343476 
L 776.88388 -614.383025 
L 780.959387 -615.422575 
L 784.450165 -616.462125 
L 787.308201 -617.501675 
L 789.549752 -618.541225 
L 791.236492 -619.580774 
L 798.288508 -619.580774 
L 798.288508 -619.580774 
L 799.975248 -618.541225 
L 802.216799 -617.501675 
L 805.074835 -616.462125 
L 808.565613 -615.422575 
L 812.64112 -614.383025 
L 817.17569 -613.343476 
L 821.962718 -612.303926 
L 826.724871 -611.264376 
L 831.138741 -610.224826 
L 834.871544 -609.185277 
L 837.624252 -608.145727 
L 839.173278 -607.106177 
L 839.4025 -606.066627 
L 838.319055 -605.027077 
L 836.049818 -603.987528 
L 832.819681 -602.947978 
L 828.916576 -601.908428 
L 824.650638 -600.868878 
L 820.315339 -599.829329 
L 816.157033 -598.789779 
L 812.356645 -597.750229 
L 809.024215 -596.710679 
L 806.204339 -595.671129 
L 803.888998 -594.63158 
L 802.033762 -593.59203 
L 800.573889 -592.55248 
L 799.437923 -591.51293 
L 798.55756 -590.473381 
L 797.87364 -589.433831 
L 797.33876 -588.394281 
L 796.917352 -587.354731 
L 796.584113 -586.315181 
L 796.321577 -585.275632 
L 796.11747 -584.236082 
L 795.962309 -583.196532 
L 795.847558 -582.156982 
L 795.764532 -581.117433 
L 795.704065 -580.077883 
L 795.656827 -579.038333 
L 795.614091 -577.998783 
L 795.568642 -576.959233 
L 795.515558 -575.919684 
L 795.452641 -574.880134 
L 795.3804 -573.840584 
L 795.301608 -572.801034 
L 795.220568 -571.761485 
L 795.142269 -570.721935 
L 795.071628 -569.682385 
L 795.012928 -568.642835 
L 794.969524 -567.603285 
L 794.943769 -566.563736 
L 794.937073 -565.524186 
L 794.950011 -564.484636 
L 794.982368 -563.445086 
L 795.033124 -562.405537 
L 795.10037 -561.365987 
L 795.181244 -560.326437 
L 795.271958 -559.286887 
L 795.367975 -558.247337 
L 795.46435 -557.207788 
L 795.556174 -556.168238 
L 795.639034 -555.128688 
L 795.709362 -554.089138 
L 795.764605 -553.049589 
L 795.80317 -552.010039 
L 795.824231 -550.970489 
L 795.827467 -549.930939 
L 795.812898 -548.891389 
L 795.780866 -547.85184 
L 795.732201 -546.81229 
L 795.668504 -545.77274 
L 795.59242 -544.73319 
L 795.507783 -543.693641 
L 795.419545 -542.654091 
L 795.333452 -541.614541 
L 795.25553 -540.574991 
L 795.191455 -539.535441 
L 795.14591 -538.495892 
L 795.122034 -537.456342 
L 795.12101 -536.416792 
L 795.141836 -535.377242 
L 795.181313 -534.337693 
L 795.234255 -533.298143 
L 795.293945 -532.258593 
L 795.352813 -531.219043 
L 795.403286 -530.179494 
L 795.438705 -529.139944 
L 795.45417 -528.100394 
L 795.447146 -527.060844 
L 795.417732 -526.021294 
L 795.368506 -524.981745 
L 795.303998 -523.942195 
L 795.229907 -522.902645 
L 795.152207 -521.863095 
L 795.076339 -520.823546 
L 795.006615 -519.783996 
L 794.945898 -518.744446 
L 794.895577 -517.704896 
L 794.855765 -516.665346 
z
" style="stroke: #3d3d3d; stroke-opacity: 0.5"/>
    </defs>
    <g clip-path="url(#p16fa3e788c)">
     <use xlink:href="#m68bec2a05e" x="0" y="708.571662" style="fill: #3a923a; fill-opacity: 0.5; stroke: #3d3d3d; stroke-opacity: 0.5"/>
    </g>
   </g>
   <g id="line2d_8">
    <path d="M 125.1625 278.174401 
L 125.1625 102.911198 
" clip-path="url(#p16fa3e788c)" style="fill: none; stroke: #3d3d3d; stroke-width: 1.5; stroke-linecap: round"/>
   </g>
   <g id="line2d_9">
    <path d="M 125.1625 180.657044 
L 125.1625 114.265792 
" clip-path="url(#p16fa3e788c)" style="fill: none; stroke: #3d3d3d; stroke-width: 4.5; stroke-linecap: round"/>
   </g>
   <g id="line2d_10">
    <path d="M 125.1625 134.114478 
" clip-path="url(#p16fa3e788c)" style="fill: none; stroke: #3d3d3d; stroke-width: 1.5; stroke-linecap: round"/>
    <defs>
     <path id="mce2dc6ae1e" d="M 1.875 0 
L -1.875 -0 
" style="stroke: #ffffff; stroke-width: 0.9"/>
    </defs>
    <g clip-path="url(#p16fa3e788c)">
     <use xlink:href="#mce2dc6ae1e" x="125.1625" y="134.114478" style="fill: #ffffff; stroke: #ffffff; stroke-width: 0.9"/>
    </g>
   </g>
   <g id="line2d_11">
    <path d="M 236.7625 109.450657 
L 236.7625 100.144223 
" clip-path="url(#p16fa3e788c)" style="fill: none; stroke: #3d3d3d; stroke-width: 1.5; stroke-linecap: round"/>
   </g>
   <g id="line2d_12">
    <path d="M 236.7625 104.515271 
L 236.7625 100.932607 
" clip-path="url(#p16fa3e788c)" style="fill: none; stroke: #3d3d3d; stroke-width: 4.5; stroke-linecap: round"/>
   </g>
   <g id="line2d_13">
    <path d="M 236.7625 101.930002 
" clip-path="url(#p16fa3e788c)" style="fill: none; stroke: #3d3d3d; stroke-width: 1.5; stroke-linecap: round"/>
    <g clip-path="url(#p16fa3e788c)">
     <use xlink:href="#mce2dc6ae1e" x="236.7625" y="101.930002" style="fill: #ffffff; stroke: #ffffff; stroke-width: 0.9"/>
    </g>
   </g>
   <g id="line2d_14">
    <path d="M 348.3625 463.926481 
L 348.3625 128.445852 
" clip-path="url(#p16fa3e788c)" style="fill: none; stroke: #3d3d3d; stroke-width: 1.5; stroke-linecap: round"/>
   </g>
   <g id="line2d_15">
    <path d="M 348.3625 420.153179 
L 348.3625 297.6598 
" clip-path="url(#p16fa3e788c)" style="fill: none; stroke: #3d3d3d; stroke-width: 4.5; stroke-linecap: round"/>
   </g>
   <g id="line2d_16">
    <path d="M 348.3625 377.435198 
" clip-path="url(#p16fa3e788c)" style="fill: none; stroke: #3d3d3d; stroke-width: 1.5; stroke-linecap: round"/>
    <g clip-path="url(#p16fa3e788c)">
     <use xlink:href="#mce2dc6ae1e" x="348.3625" y="377.435198" style="fill: #ffffff; stroke: #ffffff; stroke-width: 0.9"/>
    </g>
   </g>
   <g id="line2d_17">
    <path d="M 459.9625 110.594265 
L 459.9625 100.255067 
" clip-path="url(#p16fa3e788c)" style="fill: none; stroke: #3d3d3d; stroke-width: 1.5; stroke-linecap: round"/>
   </g>
   <g id="line2d_18">
    <path d="M 459.9625 105.750981 
L 459.9625 101.316435 
" clip-path="url(#p16fa3e788c)" style="fill: none; stroke: #3d3d3d; stroke-width: 4.5; stroke-linecap: round"/>
   </g>
   <g id="line2d_19">
    <path d="M 459.9625 102.640615 
" clip-path="url(#p16fa3e788c)" style="fill: none; stroke: #3d3d3d; stroke-width: 1.5; stroke-linecap: round"/>
    <g clip-path="url(#p16fa3e788c)">
     <use xlink:href="#mce2dc6ae1e" x="459.9625" y="102.640615" style="fill: #ffffff; stroke: #ffffff; stroke-width: 0.9"/>
    </g>
   </g>
   <g id="line2d_20">
    <path d="M 571.5625 115.48186 
L 571.5625 100.30263 
" clip-path="url(#p16fa3e788c)" style="fill: none; stroke: #3d3d3d; stroke-width: 1.5; stroke-linecap: round"/>
   </g>
   <g id="line2d_21">
    <path d="M 571.5625 107.553171 
L 571.5625 102.156787 
" clip-path="url(#p16fa3e788c)" style="fill: none; stroke: #3d3d3d; stroke-width: 4.5; stroke-linecap: round"/>
   </g>
   <g id="line2d_22">
    <path d="M 571.5625 103.95319 
" clip-path="url(#p16fa3e788c)" style="fill: none; stroke: #3d3d3d; stroke-width: 1.5; stroke-linecap: round"/>
    <g clip-path="url(#p16fa3e788c)">
     <use xlink:href="#mce2dc6ae1e" x="571.5625" y="103.95319" style="fill: #ffffff; stroke: #ffffff; stroke-width: 0.9"/>
    </g>
   </g>
   <g id="line2d_23">
    <path d="M 638.5225 99.869749 
L 727.8025 99.869749 
" clip-path="url(#p16fa3e788c)" style="fill: none; stroke: #3d3d3d; stroke-linecap: round"/>
   </g>
   <g id="line2d_24">
    <path d="M 794.7625 109.290323 
L 794.7625 100.143234 
" clip-path="url(#p16fa3e788c)" style="fill: none; stroke: #3d3d3d; stroke-width: 1.5; stroke-linecap: round"/>
   </g>
   <g id="line2d_25">
    <path d="M 794.7625 104.44271 
L 794.7625 100.896377 
" clip-path="url(#p16fa3e788c)" style="fill: none; stroke: #3d3d3d; stroke-width: 4.5; stroke-linecap: round"/>
   </g>
   <g id="line2d_26">
    <path d="M 794.7625 101.865073 
" clip-path="url(#p16fa3e788c)" style="fill: none; stroke: #3d3d3d; stroke-width: 1.5; stroke-linecap: round"/>
    <g clip-path="url(#p16fa3e788c)">
     <use xlink:href="#mce2dc6ae1e" x="794.7625" y="101.865073" style="fill: #ffffff; stroke: #ffffff; stroke-width: 0.9"/>
    </g>
   </g>
   <g id="patch_3">
    <path d="M 69.3625 562.345987 
L 850.5625 562.345987 
" style="fill: none; stroke: #cccccc; stroke-width: 0.8; stroke-linejoin: miter; stroke-linecap: square"/>
   </g>
  </g>
 </g>
 <defs>
  <clipPath id="p16fa3e788c">
   <rect x="69.3625" y="7.945987" width="781.2" height="554.4"/>
  </clipPath>
 </defs>
</svg>
